<?xml version="1.0" encoding="utf-8" standalone="no"?>
<!DOCTYPE svg PUBLIC "-//W3C//DTD SVG 1.1//EN"
  "http://www.w3.org/Graphics/SVG/1.1/DTD/svg11.dtd">
<svg xmlns:xlink="http://www.w3.org/1999/xlink" width="589.885375pt" height="363.785279pt" viewBox="0 0 589.885375 363.785279" xmlns="http://www.w3.org/2000/svg" version="1.1">
 <metadata>
  <rdf:RDF xmlns:dc="http://purl.org/dc/elements/1.1/" xmlns:cc="http://creativecommons.org/ns#" xmlns:rdf="http://www.w3.org/1999/02/22-rdf-syntax-ns#">
   <cc:Work>
    <dc:type rdf:resource="http://purl.org/dc/dcmitype/StillImage"/>
    <dc:date>2025-05-21T21:40:35.702802</dc:date>
    <dc:format>image/svg+xml</dc:format>
    <dc:creator>
     <cc:Agent>
      <dc:title>Matplotlib v3.9.2, https://matplotlib.org/</dc:title>
     </cc:Agent>
    </dc:creator>
   </cc:Work>
  </rdf:RDF>
 </metadata>
 <defs>
  <style type="text/css">*{stroke-linejoin: round; stroke-linecap: butt}</style>
 </defs>
 <g id="figure_1">
  <g id="patch_1">
   <path d="M 0 363.785279 
L 589.885375 363.785279 
L 589.885375 0 
L 0 0 
z
" style="fill: #ffffff"/>
  </g>
  <g id="axes_1">
   <g id="patch_2">
    <path d="M 39.760938 314.12125 
L 428.560938 314.12125 
L 428.560938 36.92125 
L 39.760938 36.92125 
z
" style="fill: #ffffff"/>
   </g>
   <g id="PolyCollection_1">
    <path d="M 57.433665 184.365251 
L 57.433665 203.576424 
L 58.853161 204.350865 
L 60.272657 204.997832 
L 61.692153 205.525933 
L 63.111649 205.943779 
L 64.531146 206.259978 
L 65.950642 206.483139 
L 67.370138 206.621871 
L 68.789634 206.684785 
L 70.20913 206.680489 
L 71.628626 206.617592 
L 73.048123 206.504703 
L 74.467619 206.350433 
L 75.887115 206.163389 
L 77.306611 205.952182 
L 78.726107 205.725419 
L 80.145603 205.491712 
L 81.5651 205.259668 
L 82.984596 205.037898 
L 84.404092 204.83501 
L 85.823588 204.659613 
L 87.243084 204.520287 
L 88.66258 204.421867 
L 90.082077 204.361925 
L 91.501573 204.337198 
L 92.921069 204.344421 
L 94.340565 204.380332 
L 95.760061 204.441666 
L 97.179557 204.52516 
L 98.599054 204.627549 
L 100.01855 204.745572 
L 101.438046 204.875963 
L 102.857542 205.016285 
L 104.277038 205.168926 
L 105.696534 205.33802 
L 107.116031 205.527703 
L 108.535527 205.742112 
L 109.955023 205.985383 
L 111.374519 206.261652 
L 112.794015 206.575056 
L 114.213511 206.929732 
L 115.633008 207.329815 
L 117.052504 207.779106 
L 118.472 208.273678 
L 119.891496 208.801875 
L 121.310992 209.351708 
L 122.730488 209.911185 
L 124.149985 210.468315 
L 125.569481 211.011108 
L 126.988977 211.527572 
L 128.408473 212.005717 
L 129.827969 212.433551 
L 131.247465 212.799089 
L 132.666962 213.093641 
L 134.086458 213.317629 
L 135.505954 213.473033 
L 136.92545 213.561834 
L 138.344946 213.586014 
L 139.764442 213.547553 
L 141.183939 213.448431 
L 142.603435 213.290631 
L 144.022931 213.076133 
L 145.442427 212.806918 
L 146.861923 212.486042 
L 148.281419 212.12593 
L 149.700916 211.743827 
L 151.120412 211.357017 
L 152.539908 210.982787 
L 153.959404 210.638422 
L 155.3789 210.341208 
L 156.798396 210.108429 
L 158.217893 209.957372 
L 159.637389 209.905321 
L 161.056885 209.969244 
L 162.476381 210.151648 
L 163.895877 210.434981 
L 165.315373 210.800213 
L 166.73487 211.228312 
L 168.154366 211.700249 
L 169.573862 212.196994 
L 170.993358 212.699515 
L 172.412854 213.188782 
L 173.83235 213.645766 
L 175.251847 214.051435 
L 176.671343 214.39148 
L 178.090839 214.670469 
L 179.510335 214.897695 
L 180.929831 215.082445 
L 182.349327 215.234011 
L 183.768824 215.361683 
L 185.18832 215.47475 
L 186.607816 215.582504 
L 188.027312 215.694232 
L 189.446808 215.819227 
L 190.866304 215.966154 
L 192.285801 216.135196 
L 193.705297 216.320428 
L 195.124793 216.515786 
L 196.544289 216.71521 
L 197.963785 216.912638 
L 199.383281 217.102007 
L 200.802778 217.277256 
L 202.222274 217.432322 
L 203.64177 217.561145 
L 205.061266 217.657709 
L 206.480762 217.721913 
L 207.900258 217.765124 
L 209.319755 217.800034 
L 210.739251 217.839331 
L 212.158747 217.895704 
L 213.578243 217.981842 
L 214.997739 218.110435 
L 216.417235 218.294171 
L 217.836732 218.54574 
L 219.256228 218.87783 
L 220.675724 219.299334 
L 222.09522 219.796971 
L 223.514716 220.349434 
L 224.934212 220.935407 
L 226.353709 221.533571 
L 227.773205 222.122609 
L 229.192701 222.681203 
L 230.612197 223.188036 
L 232.031693 223.62179 
L 233.451189 223.961148 
L 234.870686 224.185667 
L 236.290182 224.29502 
L 237.709678 224.308995 
L 239.129174 224.248257 
L 240.54867 224.133468 
L 241.968166 223.985292 
L 243.387663 223.824393 
L 244.807159 223.671434 
L 246.226655 223.547078 
L 247.646151 223.471989 
L 249.065647 223.466821 
L 250.485143 223.54541 
L 251.90464 223.702752 
L 253.324136 223.930618 
L 254.743632 224.220778 
L 256.163128 224.565005 
L 257.582624 224.955068 
L 259.00212 225.382739 
L 260.421617 225.839789 
L 261.841113 226.317987 
L 263.260609 226.809106 
L 264.680105 227.305339 
L 266.099601 227.802567 
L 267.519097 228.298567 
L 268.938594 228.791132 
L 270.35809 229.278056 
L 271.777586 229.757132 
L 273.197082 230.226153 
L 274.616578 230.682913 
L 276.036074 231.125205 
L 277.455571 231.550823 
L 278.875067 231.957619 
L 280.294563 232.346116 
L 281.714059 232.720548 
L 283.133555 233.08542 
L 284.553051 233.445236 
L 285.972548 233.804502 
L 287.392044 234.167724 
L 288.81154 234.539407 
L 290.231036 234.924056 
L 291.650532 235.326175 
L 293.070028 235.750272 
L 294.489525 236.199298 
L 295.909021 236.670002 
L 297.328517 237.157577 
L 298.748013 237.65722 
L 300.167509 238.164126 
L 301.587005 238.673489 
L 303.006502 239.180505 
L 304.425998 239.68037 
L 305.845494 240.168278 
L 307.26499 240.639425 
L 308.684486 241.089394 
L 310.103982 241.519045 
L 311.523479 241.93304 
L 312.942975 242.336125 
L 314.362471 242.733045 
L 315.781967 243.128546 
L 317.201463 243.527374 
L 318.620959 243.934274 
L 320.040456 244.353993 
L 321.459952 244.791276 
L 322.879448 245.25085 
L 324.298944 245.735182 
L 325.71844 246.24235 
L 327.137936 246.769929 
L 328.557433 247.315493 
L 329.976929 247.876615 
L 331.396425 248.450869 
L 332.815921 249.03583 
L 334.235417 249.629071 
L 335.654913 250.228166 
L 337.07441 250.830689 
L 338.493906 251.434564 
L 339.913402 252.039757 
L 341.332898 252.646972 
L 342.752394 253.256916 
L 344.17189 253.870293 
L 345.591387 254.487811 
L 347.010883 255.110174 
L 348.430379 255.738089 
L 349.849875 256.372261 
L 351.269371 257.013396 
L 352.688867 257.662161 
L 354.108364 258.318303 
L 355.52786 258.980655 
L 356.947356 259.648007 
L 358.366852 260.319151 
L 359.786348 260.992878 
L 361.205844 261.667979 
L 362.625341 262.343247 
L 364.044837 263.017472 
L 365.464333 263.689445 
L 366.883829 264.35796 
L 368.303325 265.022548 
L 369.722821 265.684785 
L 371.142318 266.346596 
L 372.561814 267.009908 
L 373.98131 267.676646 
L 375.400806 268.348735 
L 376.820302 269.028102 
L 378.239798 269.716672 
L 379.659295 270.41637 
L 381.078791 271.129123 
L 382.498287 271.856785 
L 383.917783 272.600593 
L 385.337279 273.361469 
L 386.756775 274.140328 
L 388.176272 274.938088 
L 389.595768 275.755667 
L 391.015264 276.593981 
L 392.43476 277.453948 
L 393.854256 278.336484 
L 395.273752 279.242508 
L 396.693249 280.172937 
L 398.112745 281.128686 
L 399.532241 282.110675 
L 400.951737 283.11982 
L 402.371233 284.157038 
L 403.790729 285.223247 
L 405.210226 286.319363 
L 406.629722 287.446304 
L 408.049218 288.604988 
L 409.468714 289.796331 
L 410.88821 291.02125 
L 410.88821 256.028806 
L 410.88821 256.028806 
L 409.468714 255.071884 
L 408.049218 254.136244 
L 406.629722 253.220862 
L 405.210226 252.324709 
L 403.790729 251.446759 
L 402.371233 250.585986 
L 400.951737 249.741362 
L 399.532241 248.911861 
L 398.112745 248.096457 
L 396.693249 247.294123 
L 395.273752 246.503831 
L 393.854256 245.724555 
L 392.43476 244.95527 
L 391.015264 244.194947 
L 389.595768 243.44256 
L 388.176272 242.697082 
L 386.756775 241.957488 
L 385.337279 241.222749 
L 383.917783 240.49184 
L 382.498287 239.763733 
L 381.078791 239.03741 
L 379.659295 238.312697 
L 378.239798 237.591073 
L 376.820302 236.874201 
L 375.400806 236.163747 
L 373.98131 235.461375 
L 372.561814 234.768753 
L 371.142318 234.087543 
L 369.722821 233.419413 
L 368.303325 232.766026 
L 366.883829 232.129049 
L 365.464333 231.509546 
L 364.044837 230.905086 
L 362.625341 230.311967 
L 361.205844 229.726489 
L 359.786348 229.144951 
L 358.366852 228.563649 
L 356.947356 227.978884 
L 355.52786 227.386953 
L 354.108364 226.784155 
L 352.688867 226.166788 
L 351.269371 225.531329 
L 349.849875 224.878327 
L 348.430379 224.212411 
L 347.010883 223.538384 
L 345.591387 222.86105 
L 344.17189 222.185213 
L 342.752394 221.515678 
L 341.332898 220.857247 
L 339.913402 220.214726 
L 338.493906 219.592918 
L 337.07441 218.996626 
L 335.654913 218.429265 
L 334.235417 217.890425 
L 332.815921 217.379038 
L 331.396425 216.894038 
L 329.976929 216.434358 
L 328.557433 215.99893 
L 327.137936 215.586688 
L 325.71844 215.196564 
L 324.298944 214.827492 
L 322.879448 214.478405 
L 321.459952 214.147963 
L 320.040456 213.832454 
L 318.620959 213.526944 
L 317.201463 213.226489 
L 315.781967 212.926145 
L 314.362471 212.620969 
L 312.942975 212.306016 
L 311.523479 211.976342 
L 310.103982 211.627004 
L 308.684486 211.253057 
L 307.26499 210.84965 
L 305.845494 210.416084 
L 304.425998 209.957427 
L 303.006502 209.47917 
L 301.587005 208.986805 
L 300.167509 208.485824 
L 298.748013 207.981717 
L 297.328517 207.479977 
L 295.909021 206.986095 
L 294.489525 206.505563 
L 293.070028 206.043873 
L 291.650532 205.605278 
L 290.231036 205.189085 
L 288.81154 204.79336 
L 287.392044 204.416173 
L 285.972548 204.05559 
L 284.553051 203.709681 
L 283.133555 203.376513 
L 281.714059 203.054154 
L 280.294563 202.740672 
L 278.875067 202.434135 
L 277.455571 202.132721 
L 276.036074 201.836089 
L 274.616578 201.544968 
L 273.197082 201.260111 
L 271.777586 200.982269 
L 270.35809 200.712195 
L 268.938594 200.45064 
L 267.519097 200.198358 
L 266.099601 199.956101 
L 264.680105 199.72462 
L 263.260609 199.50467 
L 261.841113 199.297178 
L 260.421617 199.103413 
L 259.00212 198.92468 
L 257.582624 198.762287 
L 256.163128 198.617539 
L 254.743632 198.491743 
L 253.324136 198.386206 
L 251.90464 198.302234 
L 250.485143 198.241133 
L 249.065647 198.204211 
L 247.646151 198.191667 
L 246.226655 198.197253 
L 244.807159 198.212379 
L 243.387663 198.228458 
L 241.968166 198.236899 
L 240.54867 198.229113 
L 239.129174 198.196509 
L 237.709678 198.130497 
L 236.290182 198.022489 
L 234.870686 197.863893 
L 233.451189 197.646533 
L 232.031693 197.371723 
L 230.612197 197.050265 
L 229.192701 196.693375 
L 227.773205 196.312271 
L 226.353709 195.918169 
L 224.934212 195.522284 
L 223.514716 195.135833 
L 222.09522 194.770032 
L 220.675724 194.436097 
L 219.256228 194.145239 
L 217.836732 193.904279 
L 216.417235 193.707916 
L 214.997739 193.548772 
L 213.578243 193.419468 
L 212.158747 193.312627 
L 210.739251 193.22087 
L 209.319755 193.13682 
L 207.900258 193.053099 
L 206.480762 192.962329 
L 205.061266 192.857131 
L 203.64177 192.730997 
L 202.222274 192.584976 
L 200.802778 192.424012 
L 199.383281 192.25308 
L 197.963785 192.077155 
L 196.544289 191.901212 
L 195.124793 191.730227 
L 193.705297 191.569173 
L 192.285801 191.423027 
L 190.866304 191.296764 
L 189.446808 191.195221 
L 188.027312 191.117 
L 186.607816 191.052056 
L 185.18832 190.989703 
L 183.768824 190.919257 
L 182.349327 190.830033 
L 180.929831 190.711348 
L 179.510335 190.552515 
L 178.090839 190.342851 
L 176.671343 190.071671 
L 175.251847 189.728291 
L 173.83235 189.307469 
L 172.412854 188.825734 
L 170.993358 188.305058 
L 169.573862 187.767412 
L 168.154366 187.234768 
L 166.73487 186.729098 
L 165.315373 186.272373 
L 163.895877 185.886566 
L 162.476381 185.593648 
L 161.056885 185.415591 
L 159.637389 185.372721 
L 158.217893 185.463031 
L 156.798396 185.668416 
L 155.3789 185.970418 
L 153.959404 186.350576 
L 152.539908 186.790431 
L 151.120412 187.271524 
L 149.700916 187.775396 
L 148.281419 188.283586 
L 146.861923 188.777637 
L 145.442427 189.239127 
L 144.022931 189.654472 
L 142.603435 190.019474 
L 141.183939 190.331013 
L 139.764442 190.585971 
L 138.344946 190.781229 
L 136.92545 190.913667 
L 135.505954 190.980166 
L 134.086458 190.977607 
L 132.666962 190.902871 
L 131.247465 190.752839 
L 129.827969 190.5258 
L 128.408473 190.228267 
L 126.988977 189.869729 
L 125.569481 189.45968 
L 124.149985 189.007614 
L 122.730488 188.523025 
L 121.310992 188.015405 
L 119.891496 187.494249 
L 118.472 186.96905 
L 117.052504 186.449302 
L 115.633008 185.944379 
L 114.213511 185.460906 
L 112.794015 185.002759 
L 111.374519 184.573693 
L 109.955023 184.177467 
L 108.535527 183.817835 
L 107.116031 183.498555 
L 105.696534 183.223382 
L 104.277038 182.996073 
L 102.857542 182.820384 
L 101.438046 182.700069 
L 100.01855 182.636684 
L 98.599054 182.62572 
L 97.179557 182.661628 
L 95.760061 182.738858 
L 94.340565 182.85186 
L 92.921069 182.995087 
L 91.501573 183.162988 
L 90.082077 183.350015 
L 88.66258 183.550618 
L 87.243084 183.759248 
L 85.823588 183.970555 
L 84.404092 184.180911 
L 82.984596 184.387582 
L 81.5651 184.587836 
L 80.145603 184.778944 
L 78.726107 184.958176 
L 77.306611 185.122801 
L 75.887115 185.270092 
L 74.467619 185.397317 
L 73.048123 185.501746 
L 71.628626 185.580651 
L 70.20913 185.6313 
L 68.789634 185.650965 
L 67.370138 185.636915 
L 65.950642 185.58642 
L 64.531146 185.496752 
L 63.111649 185.365179 
L 61.692153 185.188972 
L 60.272657 184.965402 
L 58.853161 184.691738 
L 57.433665 184.365251 
z
" clip-path="url(#p0d0eb06e83)" style="fill: #1f77b4"/>
   </g>
   <g id="PolyCollection_2">
    <path d="M 57.433665 167.920661 
L 57.433665 184.365251 
L 58.853161 184.691738 
L 60.272657 184.965402 
L 61.692153 185.188972 
L 63.111649 185.365179 
L 64.531146 185.496752 
L 65.950642 185.58642 
L 67.370138 185.636915 
L 68.789634 185.650965 
L 70.20913 185.6313 
L 71.628626 185.580651 
L 73.048123 185.501746 
L 74.467619 185.397317 
L 75.887115 185.270092 
L 77.306611 185.122801 
L 78.726107 184.958176 
L 80.145603 184.778944 
L 81.5651 184.587836 
L 82.984596 184.387582 
L 84.404092 184.180911 
L 85.823588 183.970555 
L 87.243084 183.759248 
L 88.66258 183.550618 
L 90.082077 183.350015 
L 91.501573 183.162988 
L 92.921069 182.995087 
L 94.340565 182.85186 
L 95.760061 182.738858 
L 97.179557 182.661628 
L 98.599054 182.62572 
L 100.01855 182.636684 
L 101.438046 182.700069 
L 102.857542 182.820384 
L 104.277038 182.996073 
L 105.696534 183.223382 
L 107.116031 183.498555 
L 108.535527 183.817835 
L 109.955023 184.177467 
L 111.374519 184.573693 
L 112.794015 185.002759 
L 114.213511 185.460906 
L 115.633008 185.944379 
L 117.052504 186.449302 
L 118.472 186.96905 
L 119.891496 187.494249 
L 121.310992 188.015405 
L 122.730488 188.523025 
L 124.149985 189.007614 
L 125.569481 189.45968 
L 126.988977 189.869729 
L 128.408473 190.228267 
L 129.827969 190.5258 
L 131.247465 190.752839 
L 132.666962 190.902871 
L 134.086458 190.977607 
L 135.505954 190.980166 
L 136.92545 190.913667 
L 138.344946 190.781229 
L 139.764442 190.585971 
L 141.183939 190.331013 
L 142.603435 190.019474 
L 144.022931 189.654472 
L 145.442427 189.239127 
L 146.861923 188.777637 
L 148.281419 188.283586 
L 149.700916 187.775396 
L 151.120412 187.271524 
L 152.539908 186.790431 
L 153.959404 186.350576 
L 155.3789 185.970418 
L 156.798396 185.668416 
L 158.217893 185.463031 
L 159.637389 185.372721 
L 161.056885 185.415591 
L 162.476381 185.593648 
L 163.895877 185.886566 
L 165.315373 186.272373 
L 166.73487 186.729098 
L 168.154366 187.234768 
L 169.573862 187.767412 
L 170.993358 188.305058 
L 172.412854 188.825734 
L 173.83235 189.307469 
L 175.251847 189.728291 
L 176.671343 190.071671 
L 178.090839 190.342851 
L 179.510335 190.552515 
L 180.929831 190.711348 
L 182.349327 190.830033 
L 183.768824 190.919257 
L 185.18832 190.989703 
L 186.607816 191.052056 
L 188.027312 191.117 
L 189.446808 191.195221 
L 190.866304 191.296764 
L 192.285801 191.423027 
L 193.705297 191.569173 
L 195.124793 191.730227 
L 196.544289 191.901212 
L 197.963785 192.077155 
L 199.383281 192.25308 
L 200.802778 192.424012 
L 202.222274 192.584976 
L 203.64177 192.730997 
L 205.061266 192.857131 
L 206.480762 192.962329 
L 207.900258 193.053099 
L 209.319755 193.13682 
L 210.739251 193.22087 
L 212.158747 193.312627 
L 213.578243 193.419468 
L 214.997739 193.548772 
L 216.417235 193.707916 
L 217.836732 193.904279 
L 219.256228 194.145239 
L 220.675724 194.436097 
L 222.09522 194.770032 
L 223.514716 195.135833 
L 224.934212 195.522284 
L 226.353709 195.918169 
L 227.773205 196.312271 
L 229.192701 196.693375 
L 230.612197 197.050265 
L 232.031693 197.371723 
L 233.451189 197.646533 
L 234.870686 197.863893 
L 236.290182 198.022489 
L 237.709678 198.130497 
L 239.129174 198.196509 
L 240.54867 198.229113 
L 241.968166 198.236899 
L 243.387663 198.228458 
L 244.807159 198.212379 
L 246.226655 198.197253 
L 247.646151 198.191667 
L 249.065647 198.204211 
L 250.485143 198.241133 
L 251.90464 198.302234 
L 253.324136 198.386206 
L 254.743632 198.491743 
L 256.163128 198.617539 
L 257.582624 198.762287 
L 259.00212 198.92468 
L 260.421617 199.103413 
L 261.841113 199.297178 
L 263.260609 199.50467 
L 264.680105 199.72462 
L 266.099601 199.956101 
L 267.519097 200.198358 
L 268.938594 200.45064 
L 270.35809 200.712195 
L 271.777586 200.982269 
L 273.197082 201.260111 
L 274.616578 201.544968 
L 276.036074 201.836089 
L 277.455571 202.132721 
L 278.875067 202.434135 
L 280.294563 202.740672 
L 281.714059 203.054154 
L 283.133555 203.376513 
L 284.553051 203.709681 
L 285.972548 204.05559 
L 287.392044 204.416173 
L 288.81154 204.79336 
L 290.231036 205.189085 
L 291.650532 205.605278 
L 293.070028 206.043873 
L 294.489525 206.505563 
L 295.909021 206.986095 
L 297.328517 207.479977 
L 298.748013 207.981717 
L 300.167509 208.485824 
L 301.587005 208.986805 
L 303.006502 209.47917 
L 304.425998 209.957427 
L 305.845494 210.416084 
L 307.26499 210.84965 
L 308.684486 211.253057 
L 310.103982 211.627004 
L 311.523479 211.976342 
L 312.942975 212.306016 
L 314.362471 212.620969 
L 315.781967 212.926145 
L 317.201463 213.226489 
L 318.620959 213.526944 
L 320.040456 213.832454 
L 321.459952 214.147963 
L 322.879448 214.478405 
L 324.298944 214.827492 
L 325.71844 215.196564 
L 327.137936 215.586688 
L 328.557433 215.99893 
L 329.976929 216.434358 
L 331.396425 216.894038 
L 332.815921 217.379038 
L 334.235417 217.890425 
L 335.654913 218.429265 
L 337.07441 218.996626 
L 338.493906 219.592918 
L 339.913402 220.214726 
L 341.332898 220.857247 
L 342.752394 221.515678 
L 344.17189 222.185213 
L 345.591387 222.86105 
L 347.010883 223.538384 
L 348.430379 224.212411 
L 349.849875 224.878327 
L 351.269371 225.531329 
L 352.688867 226.166788 
L 354.108364 226.784155 
L 355.52786 227.386953 
L 356.947356 227.978884 
L 358.366852 228.563649 
L 359.786348 229.144951 
L 361.205844 229.726489 
L 362.625341 230.311967 
L 364.044837 230.905086 
L 365.464333 231.509546 
L 366.883829 232.129049 
L 368.303325 232.766026 
L 369.722821 233.419413 
L 371.142318 234.087543 
L 372.561814 234.768753 
L 373.98131 235.461375 
L 375.400806 236.163747 
L 376.820302 236.874201 
L 378.239798 237.591073 
L 379.659295 238.312697 
L 381.078791 239.03741 
L 382.498287 239.763733 
L 383.917783 240.49184 
L 385.337279 241.222749 
L 386.756775 241.957488 
L 388.176272 242.697082 
L 389.595768 243.44256 
L 391.015264 244.194947 
L 392.43476 244.95527 
L 393.854256 245.724555 
L 395.273752 246.503831 
L 396.693249 247.294123 
L 398.112745 248.096457 
L 399.532241 248.911861 
L 400.951737 249.741362 
L 402.371233 250.585986 
L 403.790729 251.446759 
L 405.210226 252.324709 
L 406.629722 253.220862 
L 408.049218 254.136244 
L 409.468714 255.071884 
L 410.88821 256.028806 
L 410.88821 255.832443 
L 410.88821 255.832443 
L 409.468714 254.875477 
L 408.049218 253.939808 
L 406.629722 253.024407 
L 405.210226 252.128246 
L 403.790729 251.250297 
L 402.371233 250.389532 
L 400.951737 249.544923 
L 399.532241 248.715441 
L 398.112745 247.90006 
L 396.693249 247.09775 
L 395.273752 246.307483 
L 393.854256 245.528232 
L 392.43476 244.758968 
L 391.015264 243.998663 
L 389.595768 243.246289 
L 388.176272 242.500818 
L 386.756775 241.761222 
L 385.337279 241.026473 
L 383.917783 240.295543 
L 382.498287 239.567403 
L 381.078791 238.841033 
L 379.659295 238.116262 
L 378.239798 237.394573 
L 376.820302 236.677638 
L 375.400806 235.967128 
L 373.98131 235.264717 
L 372.561814 234.572077 
L 371.142318 233.890879 
L 369.722821 233.222796 
L 368.303325 232.5695 
L 366.883829 231.932663 
L 365.464333 231.313355 
L 364.044837 230.709124 
L 362.625341 230.116242 
L 361.205844 229.530983 
L 359.786348 228.949619 
L 358.366852 228.36842 
L 356.947356 227.783659 
L 355.52786 227.191608 
L 354.108364 226.588539 
L 352.688867 225.970724 
L 351.269371 225.334614 
L 349.849875 224.680797 
L 348.430379 224.013997 
L 347.010883 223.339117 
L 345.591387 222.661059 
L 344.17189 221.984727 
L 342.752394 221.315025 
L 341.332898 220.656856 
L 339.913402 220.015122 
L 338.493906 219.394727 
L 337.07441 218.800572 
L 335.654913 218.236062 
L 334.235417 217.700468 
L 332.815921 217.192353 
L 331.396425 216.710278 
L 329.976929 216.252808 
L 328.557433 215.818505 
L 327.137936 215.405931 
L 325.71844 215.01365 
L 324.298944 214.640224 
L 322.879448 214.284216 
L 321.459952 213.94404 
L 320.040456 213.616808 
L 318.620959 213.298963 
L 317.201463 212.986944 
L 315.781967 212.677189 
L 314.362471 212.366134 
L 312.942975 212.050218 
L 311.523479 211.725879 
L 310.103982 211.389555 
L 308.684486 211.037682 
L 307.26499 210.666718 
L 305.845494 210.273944 
L 304.425998 209.857788 
L 303.006502 209.416762 
L 301.587005 208.94938 
L 300.167509 208.454152 
L 298.748013 207.929592 
L 297.328517 207.374213 
L 295.909021 206.786526 
L 294.489525 206.165043 
L 293.070028 205.508278 
L 291.650532 204.817571 
L 290.231036 204.105584 
L 288.81154 203.387805 
L 287.392044 202.679725 
L 285.972548 201.996831 
L 284.553051 201.354615 
L 283.133555 200.768564 
L 281.714059 200.25417 
L 280.294563 199.826921 
L 278.875067 199.502306 
L 277.455571 199.294222 
L 276.036074 199.194928 
L 274.616578 199.18109 
L 273.197082 199.229031 
L 271.777586 199.315072 
L 270.35809 199.415537 
L 268.938594 199.506747 
L 267.519097 199.565024 
L 266.099601 199.566691 
L 264.680105 199.48807 
L 263.260609 199.305587 
L 261.841113 199.008354 
L 260.421617 198.610111 
L 259.00212 198.12743 
L 257.582624 197.576884 
L 256.163128 196.975045 
L 254.743632 196.338484 
L 253.324136 195.683773 
L 251.90464 195.027485 
L 250.485143 194.38619 
L 249.065647 193.776462 
L 247.646151 193.212868 
L 246.226655 192.698272 
L 244.807159 192.231305 
L 243.387663 191.81059 
L 241.968166 191.434749 
L 240.54867 191.102407 
L 239.129174 190.812187 
L 237.709678 190.562712 
L 236.290182 190.352605 
L 234.870686 190.18049 
L 233.451189 190.044838 
L 232.031693 189.940597 
L 230.612197 189.859197 
L 229.192701 189.791913 
L 227.773205 189.730023 
L 226.353709 189.6648 
L 224.934212 189.587523 
L 223.514716 189.489465 
L 222.09522 189.361904 
L 220.675724 189.196115 
L 219.256228 188.98338 
L 217.836732 188.719002 
L 216.417235 188.409394 
L 214.997739 188.062875 
L 213.578243 187.68776 
L 212.158747 187.292366 
L 210.739251 186.885011 
L 209.319755 186.474011 
L 207.900258 186.067682 
L 206.480762 185.674342 
L 205.061266 185.302308 
L 203.64177 184.959132 
L 202.222274 184.645725 
L 200.802778 184.359573 
L 199.383281 184.098136 
L 197.963785 183.858873 
L 196.544289 183.639245 
L 195.124793 183.43671 
L 193.705297 183.248729 
L 192.285801 183.07276 
L 190.866304 182.906264 
L 189.446808 182.746705 
L 188.027312 182.591825 
L 186.607816 182.439744 
L 185.18832 182.288613 
L 183.768824 182.136581 
L 182.349327 181.981797 
L 180.929831 181.822412 
L 179.510335 181.656575 
L 178.090839 181.482435 
L 176.671343 181.298143 
L 175.251847 181.101848 
L 173.83235 180.891967 
L 172.412854 180.667983 
L 170.993358 180.429649 
L 169.573862 180.176715 
L 168.154366 179.908933 
L 166.73487 179.626055 
L 165.315373 179.327831 
L 163.895877 179.014013 
L 162.476381 178.684352 
L 161.056885 178.338599 
L 159.637389 177.976597 
L 158.217893 177.599411 
L 156.798396 177.20899 
L 155.3789 176.807303 
L 153.959404 176.396319 
L 152.539908 175.978007 
L 151.120412 175.554334 
L 149.700916 175.127269 
L 148.281419 174.698782 
L 146.861923 174.27084 
L 145.442427 173.845425 
L 144.022931 173.426166 
L 142.603435 173.019881 
L 141.183939 172.63376 
L 139.764442 172.274989 
L 138.344946 171.950758 
L 136.92545 171.668253 
L 135.505954 171.434662 
L 134.086458 171.257174 
L 132.666962 171.142975 
L 131.247465 171.099255 
L 129.827969 171.130829 
L 128.408473 171.228674 
L 126.988977 171.378754 
L 125.569481 171.567026 
L 124.149985 171.779449 
L 122.730488 172.00198 
L 121.310992 172.220577 
L 119.891496 172.421198 
L 118.472 172.589801 
L 117.052504 172.712343 
L 115.633008 172.775242 
L 114.213511 172.775497 
L 112.794015 172.720688 
L 111.374519 172.618855 
L 109.955023 172.478038 
L 108.535527 172.306276 
L 107.116031 172.11161 
L 105.696534 171.90208 
L 104.277038 171.685725 
L 102.857542 171.470586 
L 101.438046 171.264699 
L 100.01855 171.0735 
L 98.599054 170.895245 
L 97.179557 170.726959 
L 95.760061 170.565668 
L 94.340565 170.408396 
L 92.921069 170.252168 
L 91.501573 170.09401 
L 90.082077 169.930948 
L 88.66258 169.760006 
L 87.243084 169.578209 
L 85.823588 169.383053 
L 84.404092 169.176114 
L 82.984596 168.961074 
L 81.5651 168.74163 
L 80.145603 168.521481 
L 78.726107 168.304324 
L 77.306611 168.093858 
L 75.887115 167.893779 
L 74.467619 167.707787 
L 73.048123 167.539579 
L 71.628626 167.392853 
L 70.20913 167.271308 
L 68.789634 167.17864 
L 67.370138 167.118548 
L 65.950642 167.09473 
L 64.531146 167.110885 
L 63.111649 167.170708 
L 61.692153 167.2779 
L 60.272657 167.436157 
L 58.853161 167.649178 
L 57.433665 167.920661 
z
" clip-path="url(#p0d0eb06e83)" style="fill: #aec7e8"/>
   </g>
   <g id="PolyCollection_3">
    <path d="M 57.433665 147.466076 
L 57.433665 167.920661 
L 58.853161 167.649178 
L 60.272657 167.436157 
L 61.692153 167.2779 
L 63.111649 167.170708 
L 64.531146 167.110885 
L 65.950642 167.09473 
L 67.370138 167.118548 
L 68.789634 167.17864 
L 70.20913 167.271308 
L 71.628626 167.392853 
L 73.048123 167.539579 
L 74.467619 167.707787 
L 75.887115 167.893779 
L 77.306611 168.093858 
L 78.726107 168.304324 
L 80.145603 168.521481 
L 81.5651 168.74163 
L 82.984596 168.961074 
L 84.404092 169.176114 
L 85.823588 169.383053 
L 87.243084 169.578209 
L 88.66258 169.760006 
L 90.082077 169.930948 
L 91.501573 170.09401 
L 92.921069 170.252168 
L 94.340565 170.408396 
L 95.760061 170.565668 
L 97.179557 170.726959 
L 98.599054 170.895245 
L 100.01855 171.0735 
L 101.438046 171.264699 
L 102.857542 171.470586 
L 104.277038 171.685725 
L 105.696534 171.90208 
L 107.116031 172.11161 
L 108.535527 172.306276 
L 109.955023 172.478038 
L 111.374519 172.618855 
L 112.794015 172.720688 
L 114.213511 172.775497 
L 115.633008 172.775242 
L 117.052504 172.712343 
L 118.472 172.589801 
L 119.891496 172.421198 
L 121.310992 172.220577 
L 122.730488 172.00198 
L 124.149985 171.779449 
L 125.569481 171.567026 
L 126.988977 171.378754 
L 128.408473 171.228674 
L 129.827969 171.130829 
L 131.247465 171.099255 
L 132.666962 171.142975 
L 134.086458 171.257174 
L 135.505954 171.434662 
L 136.92545 171.668253 
L 138.344946 171.950758 
L 139.764442 172.274989 
L 141.183939 172.63376 
L 142.603435 173.019881 
L 144.022931 173.426166 
L 145.442427 173.845425 
L 146.861923 174.27084 
L 148.281419 174.698782 
L 149.700916 175.127269 
L 151.120412 175.554334 
L 152.539908 175.978007 
L 153.959404 176.396319 
L 155.3789 176.807303 
L 156.798396 177.20899 
L 158.217893 177.599411 
L 159.637389 177.976597 
L 161.056885 178.338599 
L 162.476381 178.684352 
L 163.895877 179.014013 
L 165.315373 179.327831 
L 166.73487 179.626055 
L 168.154366 179.908933 
L 169.573862 180.176715 
L 170.993358 180.429649 
L 172.412854 180.667983 
L 173.83235 180.891967 
L 175.251847 181.101848 
L 176.671343 181.298143 
L 178.090839 181.482435 
L 179.510335 181.656575 
L 180.929831 181.822412 
L 182.349327 181.981797 
L 183.768824 182.136581 
L 185.18832 182.288613 
L 186.607816 182.439744 
L 188.027312 182.591825 
L 189.446808 182.746705 
L 190.866304 182.906264 
L 192.285801 183.07276 
L 193.705297 183.248729 
L 195.124793 183.43671 
L 196.544289 183.639245 
L 197.963785 183.858873 
L 199.383281 184.098136 
L 200.802778 184.359573 
L 202.222274 184.645725 
L 203.64177 184.959132 
L 205.061266 185.302308 
L 206.480762 185.674342 
L 207.900258 186.067682 
L 209.319755 186.474011 
L 210.739251 186.885011 
L 212.158747 187.292366 
L 213.578243 187.68776 
L 214.997739 188.062875 
L 216.417235 188.409394 
L 217.836732 188.719002 
L 219.256228 188.98338 
L 220.675724 189.196115 
L 222.09522 189.361904 
L 223.514716 189.489465 
L 224.934212 189.587523 
L 226.353709 189.6648 
L 227.773205 189.730023 
L 229.192701 189.791913 
L 230.612197 189.859197 
L 232.031693 189.940597 
L 233.451189 190.044838 
L 234.870686 190.18049 
L 236.290182 190.352605 
L 237.709678 190.562712 
L 239.129174 190.812187 
L 240.54867 191.102407 
L 241.968166 191.434749 
L 243.387663 191.81059 
L 244.807159 192.231305 
L 246.226655 192.698272 
L 247.646151 193.212868 
L 249.065647 193.776462 
L 250.485143 194.38619 
L 251.90464 195.027485 
L 253.324136 195.683773 
L 254.743632 196.338484 
L 256.163128 196.975045 
L 257.582624 197.576884 
L 259.00212 198.12743 
L 260.421617 198.610111 
L 261.841113 199.008354 
L 263.260609 199.305587 
L 264.680105 199.48807 
L 266.099601 199.566691 
L 267.519097 199.565024 
L 268.938594 199.506747 
L 270.35809 199.415537 
L 271.777586 199.315072 
L 273.197082 199.229031 
L 274.616578 199.18109 
L 276.036074 199.194928 
L 277.455571 199.294222 
L 278.875067 199.502306 
L 280.294563 199.826921 
L 281.714059 200.25417 
L 283.133555 200.768564 
L 284.553051 201.354615 
L 285.972548 201.996831 
L 287.392044 202.679725 
L 288.81154 203.387805 
L 290.231036 204.105584 
L 291.650532 204.817571 
L 293.070028 205.508278 
L 294.489525 206.165043 
L 295.909021 206.786526 
L 297.328517 207.374213 
L 298.748013 207.929592 
L 300.167509 208.454152 
L 301.587005 208.94938 
L 303.006502 209.416762 
L 304.425998 209.857788 
L 305.845494 210.273944 
L 307.26499 210.666718 
L 308.684486 211.037682 
L 310.103982 211.389555 
L 311.523479 211.725879 
L 312.942975 212.050218 
L 314.362471 212.366134 
L 315.781967 212.677189 
L 317.201463 212.986944 
L 318.620959 213.298963 
L 320.040456 213.616808 
L 321.459952 213.94404 
L 322.879448 214.284216 
L 324.298944 214.640224 
L 325.71844 215.01365 
L 327.137936 215.405931 
L 328.557433 215.818505 
L 329.976929 216.252808 
L 331.396425 216.710278 
L 332.815921 217.192353 
L 334.235417 217.700468 
L 335.654913 218.236062 
L 337.07441 218.800572 
L 338.493906 219.394727 
L 339.913402 220.015122 
L 341.332898 220.656856 
L 342.752394 221.315025 
L 344.17189 221.984727 
L 345.591387 222.661059 
L 347.010883 223.339117 
L 348.430379 224.013997 
L 349.849875 224.680797 
L 351.269371 225.334614 
L 352.688867 225.970724 
L 354.108364 226.588539 
L 355.52786 227.191608 
L 356.947356 227.783659 
L 358.366852 228.36842 
L 359.786348 228.949619 
L 361.205844 229.530983 
L 362.625341 230.116242 
L 364.044837 230.709124 
L 365.464333 231.313355 
L 366.883829 231.932663 
L 368.303325 232.5695 
L 369.722821 233.222796 
L 371.142318 233.890879 
L 372.561814 234.572077 
L 373.98131 235.264717 
L 375.400806 235.967128 
L 376.820302 236.677638 
L 378.239798 237.394573 
L 379.659295 238.116262 
L 381.078791 238.841033 
L 382.498287 239.567403 
L 383.917783 240.295543 
L 385.337279 241.026473 
L 386.756775 241.761222 
L 388.176272 242.500818 
L 389.595768 243.246289 
L 391.015264 243.998663 
L 392.43476 244.758968 
L 393.854256 245.528232 
L 395.273752 246.307483 
L 396.693249 247.09775 
L 398.112745 247.90006 
L 399.532241 248.715441 
L 400.951737 249.544923 
L 402.371233 250.389532 
L 403.790729 251.250297 
L 405.210226 252.128246 
L 406.629722 253.024407 
L 408.049218 253.939808 
L 409.468714 254.875477 
L 410.88821 255.832443 
L 410.88821 60.02125 
L 410.88821 60.02125 
L 409.468714 61.246169 
L 408.049218 62.437512 
L 406.629722 63.596196 
L 405.210226 64.723137 
L 403.790729 65.819253 
L 402.371233 66.885462 
L 400.951737 67.92268 
L 399.532241 68.931825 
L 398.112745 69.913814 
L 396.693249 70.869563 
L 395.273752 71.799992 
L 393.854256 72.706016 
L 392.43476 73.588552 
L 391.015264 74.448519 
L 389.595768 75.286833 
L 388.176272 76.104412 
L 386.756775 76.902172 
L 385.337279 77.681031 
L 383.917783 78.441907 
L 382.498287 79.185715 
L 381.078791 79.913377 
L 379.659295 80.62613 
L 378.239798 81.325828 
L 376.820302 82.014398 
L 375.400806 82.693765 
L 373.98131 83.365854 
L 372.561814 84.032592 
L 371.142318 84.695904 
L 369.722821 85.357715 
L 368.303325 86.019952 
L 366.883829 86.68454 
L 365.464333 87.353055 
L 364.044837 88.025028 
L 362.625341 88.699253 
L 361.205844 89.374521 
L 359.786348 90.049622 
L 358.366852 90.723349 
L 356.947356 91.394493 
L 355.52786 92.061845 
L 354.108364 92.724197 
L 352.688867 93.380339 
L 351.269371 94.029104 
L 349.849875 94.670239 
L 348.430379 95.304411 
L 347.010883 95.932326 
L 345.591387 96.554689 
L 344.17189 97.172207 
L 342.752394 97.785584 
L 341.332898 98.395528 
L 339.913402 99.002743 
L 338.493906 99.607936 
L 337.07441 100.211811 
L 335.654913 100.814334 
L 334.235417 101.413429 
L 332.815921 102.00667 
L 331.396425 102.591631 
L 329.976929 103.165885 
L 328.557433 103.727007 
L 327.137936 104.272571 
L 325.71844 104.80015 
L 324.298944 105.307318 
L 322.879448 105.79165 
L 321.459952 106.251224 
L 320.040456 106.688507 
L 318.620959 107.108226 
L 317.201463 107.515126 
L 315.781967 107.913954 
L 314.362471 108.309455 
L 312.942975 108.706375 
L 311.523479 109.10946 
L 310.103982 109.523455 
L 308.684486 109.953106 
L 307.26499 110.403075 
L 305.845494 110.874222 
L 304.425998 111.36213 
L 303.006502 111.861995 
L 301.587005 112.369011 
L 300.167509 112.878374 
L 298.748013 113.38528 
L 297.328517 113.884923 
L 295.909021 114.372498 
L 294.489525 114.843202 
L 293.070028 115.292228 
L 291.650532 115.716325 
L 290.231036 116.118444 
L 288.81154 116.503093 
L 287.392044 116.874776 
L 285.972548 117.237998 
L 284.553051 117.597264 
L 283.133555 117.95708 
L 281.714059 118.321952 
L 280.294563 118.696384 
L 278.875067 119.084881 
L 277.455571 119.491677 
L 276.036074 119.917295 
L 274.616578 120.359587 
L 273.197082 120.816347 
L 271.777586 121.285368 
L 270.35809 121.764444 
L 268.938594 122.251368 
L 267.519097 122.743933 
L 266.099601 123.239933 
L 264.680105 123.737161 
L 263.260609 124.233394 
L 261.841113 124.724513 
L 260.421617 125.202711 
L 259.00212 125.659761 
L 257.582624 126.087432 
L 256.163128 126.477495 
L 254.743632 126.821722 
L 253.324136 127.111882 
L 251.90464 127.339748 
L 250.485143 127.49709 
L 249.065647 127.575679 
L 247.646151 127.570511 
L 246.226655 127.495422 
L 244.807159 127.371066 
L 243.387663 127.218107 
L 241.968166 127.057208 
L 240.54867 126.909032 
L 239.129174 126.794243 
L 237.709678 126.733505 
L 236.290182 126.74748 
L 234.870686 126.856833 
L 233.451189 127.081352 
L 232.031693 127.42071 
L 230.612197 127.854464 
L 229.192701 128.361297 
L 227.773205 128.919891 
L 226.353709 129.508929 
L 224.934212 130.107093 
L 223.514716 130.693066 
L 222.09522 131.245529 
L 220.675724 131.743166 
L 219.256228 132.16467 
L 217.836732 132.49676 
L 216.417235 132.748329 
L 214.997739 132.932065 
L 213.578243 133.060658 
L 212.158747 133.146796 
L 210.739251 133.203169 
L 209.319755 133.242466 
L 207.900258 133.277376 
L 206.480762 133.320587 
L 205.061266 133.384791 
L 203.64177 133.481355 
L 202.222274 133.610178 
L 200.802778 133.765244 
L 199.383281 133.940493 
L 197.963785 134.129862 
L 196.544289 134.32729 
L 195.124793 134.526714 
L 193.705297 134.722072 
L 192.285801 134.907304 
L 190.866304 135.076346 
L 189.446808 135.223273 
L 188.027312 135.348268 
L 186.607816 135.459996 
L 185.18832 135.56775 
L 183.768824 135.680817 
L 182.349327 135.808489 
L 180.929831 135.960055 
L 179.510335 136.144805 
L 178.090839 136.372031 
L 176.671343 136.65102 
L 175.251847 136.991065 
L 173.83235 137.396734 
L 172.412854 137.853718 
L 170.993358 138.342985 
L 169.573862 138.845506 
L 168.154366 139.342251 
L 166.73487 139.814188 
L 165.315373 140.242287 
L 163.895877 140.607519 
L 162.476381 140.890852 
L 161.056885 141.073256 
L 159.637389 141.137179 
L 158.217893 141.085128 
L 156.798396 140.934071 
L 155.3789 140.701292 
L 153.959404 140.404078 
L 152.539908 140.059713 
L 151.120412 139.685483 
L 149.700916 139.298673 
L 148.281419 138.91657 
L 146.861923 138.556458 
L 145.442427 138.235582 
L 144.022931 137.966367 
L 142.603435 137.751869 
L 141.183939 137.594069 
L 139.764442 137.494947 
L 138.344946 137.456486 
L 136.92545 137.480666 
L 135.505954 137.569467 
L 134.086458 137.724871 
L 132.666962 137.948859 
L 131.247465 138.243411 
L 129.827969 138.608949 
L 128.408473 139.036783 
L 126.988977 139.514928 
L 125.569481 140.031392 
L 124.149985 140.574185 
L 122.730488 141.131315 
L 121.310992 141.690792 
L 119.891496 142.240625 
L 118.472 142.768822 
L 117.052504 143.263394 
L 115.633008 143.712685 
L 114.213511 144.112768 
L 112.794015 144.467444 
L 111.374519 144.780848 
L 109.955023 145.057117 
L 108.535527 145.300388 
L 107.116031 145.514797 
L 105.696534 145.70448 
L 104.277038 145.873574 
L 102.857542 146.026215 
L 101.438046 146.166537 
L 100.01855 146.296928 
L 98.599054 146.414951 
L 97.179557 146.51734 
L 95.760061 146.600834 
L 94.340565 146.662168 
L 92.921069 146.698079 
L 91.501573 146.705302 
L 90.082077 146.680575 
L 88.66258 146.620633 
L 87.243084 146.522213 
L 85.823588 146.382887 
L 84.404092 146.20749 
L 82.984596 146.004602 
L 81.5651 145.782832 
L 80.145603 145.550788 
L 78.726107 145.317081 
L 77.306611 145.090318 
L 75.887115 144.879111 
L 74.467619 144.692067 
L 73.048123 144.537797 
L 71.628626 144.424908 
L 70.20913 144.362011 
L 68.789634 144.357715 
L 67.370138 144.420629 
L 65.950642 144.559361 
L 64.531146 144.782522 
L 63.111649 145.098721 
L 61.692153 145.516567 
L 60.272657 146.044668 
L 58.853161 146.691635 
L 57.433665 147.466076 
z
" clip-path="url(#p0d0eb06e83)" style="fill: #ff7f0e"/>
   </g>
   <g id="matplotlib.axis_1">
    <g id="xtick_1">
     <g id="line2d_1">
      <defs>
       <path id="maafd9621ca" d="M 0 0 
L 0 3.5 
" style="stroke: #000000; stroke-width: 0.8"/>
      </defs>
      <g>
       <use xlink:href="#maafd9621ca" x="57.433665" y="314.12125" style="stroke: #000000; stroke-width: 0.8"/>
      </g>
     </g>
     <g id="text_1">
      <!-- 1997 -->
      <g transform="translate(41.778984 340.173358) rotate(-45) scale(0.1 -0.1)">
       <defs>
        <path id="TimesNewRomanPSMT-31" d="M 750 3822 
L 1781 4325 
L 1884 4325 
L 1884 747 
Q 1884 391 1914 303 
Q 1944 216 2037 169 
Q 2131 122 2419 116 
L 2419 0 
L 825 0 
L 825 116 
Q 1125 122 1212 167 
Q 1300 213 1334 289 
Q 1369 366 1369 747 
L 1369 3034 
Q 1369 3497 1338 3628 
Q 1316 3728 1258 3775 
Q 1200 3822 1119 3822 
Q 1003 3822 797 3725 
L 750 3822 
z
" transform="scale(0.015625)"/>
        <path id="TimesNewRomanPSMT-39" d="M 338 -88 
L 338 28 
Q 744 34 1094 217 
Q 1444 400 1770 856 
Q 2097 1313 2225 1859 
Q 1734 1544 1338 1544 
Q 891 1544 572 1889 
Q 253 2234 253 2806 
Q 253 3363 572 3797 
Q 956 4325 1575 4325 
Q 2097 4325 2469 3894 
Q 2925 3359 2925 2575 
Q 2925 1869 2578 1258 
Q 2231 647 1613 244 
Q 1109 -88 516 -88 
L 338 -88 
z
M 2275 2091 
Q 2331 2497 2331 2741 
Q 2331 3044 2228 3395 
Q 2125 3747 1936 3934 
Q 1747 4122 1506 4122 
Q 1228 4122 1018 3872 
Q 809 3622 809 3128 
Q 809 2469 1088 2097 
Q 1291 1828 1588 1828 
Q 1731 1828 1928 1897 
Q 2125 1966 2275 2091 
z
" transform="scale(0.015625)"/>
        <path id="TimesNewRomanPSMT-37" d="M 644 4238 
L 2916 4238 
L 2916 4119 
L 1503 -88 
L 1153 -88 
L 2419 3728 
L 1253 3728 
Q 900 3728 750 3644 
Q 488 3500 328 3200 
L 238 3234 
L 644 4238 
z
" transform="scale(0.015625)"/>
       </defs>
       <use xlink:href="#TimesNewRomanPSMT-31"/>
       <use xlink:href="#TimesNewRomanPSMT-39" x="50"/>
       <use xlink:href="#TimesNewRomanPSMT-39" x="100"/>
       <use xlink:href="#TimesNewRomanPSMT-37" x="150"/>
      </g>
     </g>
    </g>
    <g id="xtick_2">
     <g id="line2d_2">
      <g>
       <use xlink:href="#maafd9621ca" x="86.88821" y="314.12125" style="stroke: #000000; stroke-width: 0.8"/>
      </g>
     </g>
     <g id="text_2">
      <!-- 1999 -->
      <g transform="translate(71.233529 340.173358) rotate(-45) scale(0.1 -0.1)">
       <use xlink:href="#TimesNewRomanPSMT-31"/>
       <use xlink:href="#TimesNewRomanPSMT-39" x="50"/>
       <use xlink:href="#TimesNewRomanPSMT-39" x="100"/>
       <use xlink:href="#TimesNewRomanPSMT-39" x="150"/>
      </g>
     </g>
    </g>
    <g id="xtick_3">
     <g id="line2d_3">
      <g>
       <use xlink:href="#maafd9621ca" x="116.342756" y="314.12125" style="stroke: #000000; stroke-width: 0.8"/>
      </g>
     </g>
     <g id="text_3">
      <!-- 2001 -->
      <g transform="translate(100.688074 340.173358) rotate(-45) scale(0.1 -0.1)">
       <defs>
        <path id="TimesNewRomanPSMT-32" d="M 2934 816 
L 2638 0 
L 138 0 
L 138 116 
Q 1241 1122 1691 1759 
Q 2141 2397 2141 2925 
Q 2141 3328 1894 3587 
Q 1647 3847 1303 3847 
Q 991 3847 742 3664 
Q 494 3481 375 3128 
L 259 3128 
Q 338 3706 661 4015 
Q 984 4325 1469 4325 
Q 1984 4325 2329 3994 
Q 2675 3663 2675 3213 
Q 2675 2891 2525 2569 
Q 2294 2063 1775 1497 
Q 997 647 803 472 
L 1909 472 
Q 2247 472 2383 497 
Q 2519 522 2628 598 
Q 2738 675 2819 816 
L 2934 816 
z
" transform="scale(0.015625)"/>
        <path id="TimesNewRomanPSMT-30" d="M 231 2094 
Q 231 2819 450 3342 
Q 669 3866 1031 4122 
Q 1313 4325 1613 4325 
Q 2100 4325 2488 3828 
Q 2972 3213 2972 2159 
Q 2972 1422 2759 906 
Q 2547 391 2217 158 
Q 1888 -75 1581 -75 
Q 975 -75 572 641 
Q 231 1244 231 2094 
z
M 844 2016 
Q 844 1141 1059 588 
Q 1238 122 1591 122 
Q 1759 122 1940 273 
Q 2122 425 2216 781 
Q 2359 1319 2359 2297 
Q 2359 3022 2209 3506 
Q 2097 3866 1919 4016 
Q 1791 4119 1609 4119 
Q 1397 4119 1231 3928 
Q 1006 3669 925 3112 
Q 844 2556 844 2016 
z
" transform="scale(0.015625)"/>
       </defs>
       <use xlink:href="#TimesNewRomanPSMT-32"/>
       <use xlink:href="#TimesNewRomanPSMT-30" x="50"/>
       <use xlink:href="#TimesNewRomanPSMT-30" x="100"/>
       <use xlink:href="#TimesNewRomanPSMT-31" x="150"/>
      </g>
     </g>
    </g>
    <g id="xtick_4">
     <g id="line2d_4">
      <g>
       <use xlink:href="#maafd9621ca" x="145.797301" y="314.12125" style="stroke: #000000; stroke-width: 0.8"/>
      </g>
     </g>
     <g id="text_4">
      <!-- 2003 -->
      <g transform="translate(130.14262 340.173358) rotate(-45) scale(0.1 -0.1)">
       <defs>
        <path id="TimesNewRomanPSMT-33" d="M 325 3431 
Q 506 3859 782 4092 
Q 1059 4325 1472 4325 
Q 1981 4325 2253 3994 
Q 2459 3747 2459 3466 
Q 2459 3003 1878 2509 
Q 2269 2356 2469 2072 
Q 2669 1788 2669 1403 
Q 2669 853 2319 450 
Q 1863 -75 997 -75 
Q 569 -75 414 31 
Q 259 138 259 259 
Q 259 350 332 419 
Q 406 488 509 488 
Q 588 488 669 463 
Q 722 447 909 348 
Q 1097 250 1169 231 
Q 1284 197 1416 197 
Q 1734 197 1970 444 
Q 2206 691 2206 1028 
Q 2206 1275 2097 1509 
Q 2016 1684 1919 1775 
Q 1784 1900 1550 2001 
Q 1316 2103 1072 2103 
L 972 2103 
L 972 2197 
Q 1219 2228 1467 2375 
Q 1716 2522 1828 2728 
Q 1941 2934 1941 3181 
Q 1941 3503 1739 3701 
Q 1538 3900 1238 3900 
Q 753 3900 428 3381 
L 325 3431 
z
" transform="scale(0.015625)"/>
       </defs>
       <use xlink:href="#TimesNewRomanPSMT-32"/>
       <use xlink:href="#TimesNewRomanPSMT-30" x="50"/>
       <use xlink:href="#TimesNewRomanPSMT-30" x="100"/>
       <use xlink:href="#TimesNewRomanPSMT-33" x="150"/>
      </g>
     </g>
    </g>
    <g id="xtick_5">
     <g id="line2d_5">
      <g>
       <use xlink:href="#maafd9621ca" x="175.251847" y="314.12125" style="stroke: #000000; stroke-width: 0.8"/>
      </g>
     </g>
     <g id="text_5">
      <!-- 2005 -->
      <g transform="translate(159.597165 340.173358) rotate(-45) scale(0.1 -0.1)">
       <defs>
        <path id="TimesNewRomanPSMT-35" d="M 2778 4238 
L 2534 3706 
L 1259 3706 
L 981 3138 
Q 1809 3016 2294 2522 
Q 2709 2097 2709 1522 
Q 2709 1188 2573 903 
Q 2438 619 2231 419 
Q 2025 219 1772 97 
Q 1413 -75 1034 -75 
Q 653 -75 479 54 
Q 306 184 306 341 
Q 306 428 378 495 
Q 450 563 559 563 
Q 641 563 702 538 
Q 763 513 909 409 
Q 1144 247 1384 247 
Q 1750 247 2026 523 
Q 2303 800 2303 1197 
Q 2303 1581 2056 1914 
Q 1809 2247 1375 2428 
Q 1034 2569 447 2591 
L 1259 4238 
L 2778 4238 
z
" transform="scale(0.015625)"/>
       </defs>
       <use xlink:href="#TimesNewRomanPSMT-32"/>
       <use xlink:href="#TimesNewRomanPSMT-30" x="50"/>
       <use xlink:href="#TimesNewRomanPSMT-30" x="100"/>
       <use xlink:href="#TimesNewRomanPSMT-35" x="150"/>
      </g>
     </g>
    </g>
    <g id="xtick_6">
     <g id="line2d_6">
      <g>
       <use xlink:href="#maafd9621ca" x="204.706392" y="314.12125" style="stroke: #000000; stroke-width: 0.8"/>
      </g>
     </g>
     <g id="text_6">
      <!-- 2007 -->
      <g transform="translate(189.051711 340.173358) rotate(-45) scale(0.1 -0.1)">
       <use xlink:href="#TimesNewRomanPSMT-32"/>
       <use xlink:href="#TimesNewRomanPSMT-30" x="50"/>
       <use xlink:href="#TimesNewRomanPSMT-30" x="100"/>
       <use xlink:href="#TimesNewRomanPSMT-37" x="150"/>
      </g>
     </g>
    </g>
    <g id="xtick_7">
     <g id="line2d_7">
      <g>
       <use xlink:href="#maafd9621ca" x="234.160937" y="314.12125" style="stroke: #000000; stroke-width: 0.8"/>
      </g>
     </g>
     <g id="text_7">
      <!-- 2009 -->
      <g transform="translate(218.506256 340.173358) rotate(-45) scale(0.1 -0.1)">
       <use xlink:href="#TimesNewRomanPSMT-32"/>
       <use xlink:href="#TimesNewRomanPSMT-30" x="50"/>
       <use xlink:href="#TimesNewRomanPSMT-30" x="100"/>
       <use xlink:href="#TimesNewRomanPSMT-39" x="150"/>
      </g>
     </g>
    </g>
    <g id="xtick_8">
     <g id="line2d_8">
      <g>
       <use xlink:href="#maafd9621ca" x="263.615483" y="314.12125" style="stroke: #000000; stroke-width: 0.8"/>
      </g>
     </g>
     <g id="text_8">
      <!-- 2011 -->
      <g transform="translate(248.225967 339.908193) rotate(-45) scale(0.1 -0.1)">
       <use xlink:href="#TimesNewRomanPSMT-32"/>
       <use xlink:href="#TimesNewRomanPSMT-30" x="50"/>
       <use xlink:href="#TimesNewRomanPSMT-31" x="100"/>
       <use xlink:href="#TimesNewRomanPSMT-31" x="146.25"/>
      </g>
     </g>
    </g>
    <g id="xtick_9">
     <g id="line2d_9">
      <g>
       <use xlink:href="#maafd9621ca" x="293.070028" y="314.12125" style="stroke: #000000; stroke-width: 0.8"/>
      </g>
     </g>
     <g id="text_9">
      <!-- 2013 -->
      <g transform="translate(277.415347 340.173358) rotate(-45) scale(0.1 -0.1)">
       <use xlink:href="#TimesNewRomanPSMT-32"/>
       <use xlink:href="#TimesNewRomanPSMT-30" x="50"/>
       <use xlink:href="#TimesNewRomanPSMT-31" x="100"/>
       <use xlink:href="#TimesNewRomanPSMT-33" x="150"/>
      </g>
     </g>
    </g>
    <g id="xtick_10">
     <g id="line2d_10">
      <g>
       <use xlink:href="#maafd9621ca" x="322.524574" y="314.12125" style="stroke: #000000; stroke-width: 0.8"/>
      </g>
     </g>
     <g id="text_10">
      <!-- 2015 -->
      <g transform="translate(306.869893 340.173358) rotate(-45) scale(0.1 -0.1)">
       <use xlink:href="#TimesNewRomanPSMT-32"/>
       <use xlink:href="#TimesNewRomanPSMT-30" x="50"/>
       <use xlink:href="#TimesNewRomanPSMT-31" x="100"/>
       <use xlink:href="#TimesNewRomanPSMT-35" x="150"/>
      </g>
     </g>
    </g>
    <g id="xtick_11">
     <g id="line2d_11">
      <g>
       <use xlink:href="#maafd9621ca" x="351.979119" y="314.12125" style="stroke: #000000; stroke-width: 0.8"/>
      </g>
     </g>
     <g id="text_11">
      <!-- 2017 -->
      <g transform="translate(336.324438 340.173358) rotate(-45) scale(0.1 -0.1)">
       <use xlink:href="#TimesNewRomanPSMT-32"/>
       <use xlink:href="#TimesNewRomanPSMT-30" x="50"/>
       <use xlink:href="#TimesNewRomanPSMT-31" x="100"/>
       <use xlink:href="#TimesNewRomanPSMT-37" x="150"/>
      </g>
     </g>
    </g>
    <g id="xtick_12">
     <g id="line2d_12">
      <g>
       <use xlink:href="#maafd9621ca" x="381.433665" y="314.12125" style="stroke: #000000; stroke-width: 0.8"/>
      </g>
     </g>
     <g id="text_12">
      <!-- 2019 -->
      <g transform="translate(365.778984 340.173358) rotate(-45) scale(0.1 -0.1)">
       <use xlink:href="#TimesNewRomanPSMT-32"/>
       <use xlink:href="#TimesNewRomanPSMT-30" x="50"/>
       <use xlink:href="#TimesNewRomanPSMT-31" x="100"/>
       <use xlink:href="#TimesNewRomanPSMT-39" x="150"/>
      </g>
     </g>
    </g>
    <g id="xtick_13">
     <g id="line2d_13">
      <g>
       <use xlink:href="#maafd9621ca" x="410.88821" y="314.12125" style="stroke: #000000; stroke-width: 0.8"/>
      </g>
     </g>
     <g id="text_13">
      <!-- 2021 -->
      <g transform="translate(395.233529 340.173358) rotate(-45) scale(0.1 -0.1)">
       <use xlink:href="#TimesNewRomanPSMT-32"/>
       <use xlink:href="#TimesNewRomanPSMT-30" x="50"/>
       <use xlink:href="#TimesNewRomanPSMT-32" x="100"/>
       <use xlink:href="#TimesNewRomanPSMT-31" x="150"/>
      </g>
     </g>
    </g>
    <g id="text_14">
     <!-- Year -->
     <g transform="translate(223.103125 354.018404) scale(0.12 -0.12)">
      <defs>
       <path id="TimesNewRomanPSMT-59" d="M 3050 4238 
L 4528 4238 
L 4528 4122 
L 4447 4122 
Q 4366 4122 4209 4050 
Q 4053 3978 3925 3843 
Q 3797 3709 3609 3406 
L 2588 1797 
L 2588 734 
Q 2588 344 2675 247 
Q 2794 116 3050 116 
L 3188 116 
L 3188 0 
L 1388 0 
L 1388 116 
L 1538 116 
Q 1806 116 1919 278 
Q 1988 378 1988 734 
L 1988 1738 
L 825 3513 
Q 619 3825 545 3903 
Q 472 3981 241 4091 
Q 178 4122 59 4122 
L 59 4238 
L 1872 4238 
L 1872 4122 
L 1778 4122 
Q 1631 4122 1507 4053 
Q 1384 3984 1384 3847 
Q 1384 3734 1575 3441 
L 2459 2075 
L 3291 3381 
Q 3478 3675 3478 3819 
Q 3478 3906 3433 3975 
Q 3388 4044 3303 4083 
Q 3219 4122 3050 4122 
L 3050 4238 
z
" transform="scale(0.015625)"/>
       <path id="TimesNewRomanPSMT-65" d="M 681 1784 
Q 678 1147 991 784 
Q 1303 422 1725 422 
Q 2006 422 2214 576 
Q 2422 731 2563 1106 
L 2659 1044 
Q 2594 616 2278 264 
Q 1963 -88 1488 -88 
Q 972 -88 605 314 
Q 238 716 238 1394 
Q 238 2128 614 2539 
Q 991 2950 1559 2950 
Q 2041 2950 2350 2633 
Q 2659 2316 2659 1784 
L 681 1784 
z
M 681 1966 
L 2006 1966 
Q 1991 2241 1941 2353 
Q 1863 2528 1708 2628 
Q 1553 2728 1384 2728 
Q 1125 2728 920 2526 
Q 716 2325 681 1966 
z
" transform="scale(0.015625)"/>
       <path id="TimesNewRomanPSMT-61" d="M 1822 413 
Q 1381 72 1269 19 
Q 1100 -59 909 -59 
Q 613 -59 420 144 
Q 228 347 228 678 
Q 228 888 322 1041 
Q 450 1253 767 1440 
Q 1084 1628 1822 1897 
L 1822 2009 
Q 1822 2438 1686 2597 
Q 1550 2756 1291 2756 
Q 1094 2756 978 2650 
Q 859 2544 859 2406 
L 866 2225 
Q 866 2081 792 2003 
Q 719 1925 600 1925 
Q 484 1925 411 2006 
Q 338 2088 338 2228 
Q 338 2497 613 2722 
Q 888 2947 1384 2947 
Q 1766 2947 2009 2819 
Q 2194 2722 2281 2516 
Q 2338 2381 2338 1966 
L 2338 994 
Q 2338 584 2353 492 
Q 2369 400 2405 369 
Q 2441 338 2488 338 
Q 2538 338 2575 359 
Q 2641 400 2828 588 
L 2828 413 
Q 2478 -56 2159 -56 
Q 2006 -56 1915 50 
Q 1825 156 1822 413 
z
M 1822 616 
L 1822 1706 
Q 1350 1519 1213 1441 
Q 966 1303 859 1153 
Q 753 1003 753 825 
Q 753 600 887 451 
Q 1022 303 1197 303 
Q 1434 303 1822 616 
z
" transform="scale(0.015625)"/>
       <path id="TimesNewRomanPSMT-72" d="M 1038 2947 
L 1038 2303 
Q 1397 2947 1775 2947 
Q 1947 2947 2059 2842 
Q 2172 2738 2172 2600 
Q 2172 2478 2090 2393 
Q 2009 2309 1897 2309 
Q 1788 2309 1652 2417 
Q 1516 2525 1450 2525 
Q 1394 2525 1328 2463 
Q 1188 2334 1038 2041 
L 1038 669 
Q 1038 431 1097 309 
Q 1138 225 1241 169 
Q 1344 113 1538 113 
L 1538 0 
L 72 0 
L 72 113 
Q 291 113 397 181 
Q 475 231 506 341 
Q 522 394 522 644 
L 522 1753 
Q 522 2253 501 2348 
Q 481 2444 426 2487 
Q 372 2531 291 2531 
Q 194 2531 72 2484 
L 41 2597 
L 906 2947 
L 1038 2947 
z
" transform="scale(0.015625)"/>
      </defs>
      <use xlink:href="#TimesNewRomanPSMT-59"/>
      <use xlink:href="#TimesNewRomanPSMT-65" x="62.216797"/>
      <use xlink:href="#TimesNewRomanPSMT-61" x="106.601562"/>
      <use xlink:href="#TimesNewRomanPSMT-72" x="150.986328"/>
     </g>
    </g>
   </g>
   <g id="matplotlib.axis_2">
    <g id="ytick_1">
     <g id="line2d_14">
      <defs>
       <path id="m585187f81d" d="M 0 0 
L -3.5 0 
" style="stroke: #000000; stroke-width: 0.8"/>
      </defs>
      <g>
       <use xlink:href="#m585187f81d" x="39.760938" y="293.339428" style="stroke: #000000; stroke-width: 0.8"/>
      </g>
     </g>
     <g id="text_15">
      <!-- 6 -->
      <g transform="translate(22.121875 296.811303) scale(0.1 -0.1)">
       <defs>
        <path id="TimesNewRomanPSMT-2212" d="M 3484 2000 
L 116 2000 
L 116 2256 
L 3484 2256 
L 3484 2000 
z
" transform="scale(0.015625)"/>
        <path id="TimesNewRomanPSMT-36" d="M 2869 4325 
L 2869 4209 
Q 2456 4169 2195 4045 
Q 1934 3922 1679 3669 
Q 1425 3416 1258 3105 
Q 1091 2794 978 2366 
Q 1428 2675 1881 2675 
Q 2316 2675 2634 2325 
Q 2953 1975 2953 1425 
Q 2953 894 2631 456 
Q 2244 -75 1606 -75 
Q 1172 -75 869 213 
Q 275 772 275 1663 
Q 275 2231 503 2743 
Q 731 3256 1154 3653 
Q 1578 4050 1965 4187 
Q 2353 4325 2688 4325 
L 2869 4325 
z
M 925 2138 
Q 869 1716 869 1456 
Q 869 1156 980 804 
Q 1091 453 1309 247 
Q 1469 100 1697 100 
Q 1969 100 2183 356 
Q 2397 613 2397 1088 
Q 2397 1622 2184 2012 
Q 1972 2403 1581 2403 
Q 1463 2403 1327 2353 
Q 1191 2303 925 2138 
z
" transform="scale(0.015625)"/>
       </defs>
       <use xlink:href="#TimesNewRomanPSMT-2212"/>
       <use xlink:href="#TimesNewRomanPSMT-36" x="56.396484"/>
      </g>
     </g>
    </g>
    <g id="ytick_2">
     <g id="line2d_15">
      <g>
       <use xlink:href="#m585187f81d" x="39.760938" y="254.066702" style="stroke: #000000; stroke-width: 0.8"/>
      </g>
     </g>
     <g id="text_16">
      <!-- 4 -->
      <g transform="translate(22.121875 257.538577) scale(0.1 -0.1)">
       <defs>
        <path id="TimesNewRomanPSMT-34" d="M 2978 1563 
L 2978 1119 
L 2409 1119 
L 2409 0 
L 1894 0 
L 1894 1119 
L 100 1119 
L 100 1519 
L 2066 4325 
L 2409 4325 
L 2409 1563 
L 2978 1563 
z
M 1894 1563 
L 1894 3666 
L 406 1563 
L 1894 1563 
z
" transform="scale(0.015625)"/>
       </defs>
       <use xlink:href="#TimesNewRomanPSMT-2212"/>
       <use xlink:href="#TimesNewRomanPSMT-34" x="56.396484"/>
      </g>
     </g>
    </g>
    <g id="ytick_3">
     <g id="line2d_16">
      <g>
       <use xlink:href="#m585187f81d" x="39.760938" y="214.793976" style="stroke: #000000; stroke-width: 0.8"/>
      </g>
     </g>
     <g id="text_17">
      <!-- 2 -->
      <g transform="translate(22.121875 218.265851) scale(0.1 -0.1)">
       <use xlink:href="#TimesNewRomanPSMT-2212"/>
       <use xlink:href="#TimesNewRomanPSMT-32" x="56.396484"/>
      </g>
     </g>
    </g>
    <g id="ytick_4">
     <g id="line2d_17">
      <g>
       <use xlink:href="#m585187f81d" x="39.760938" y="175.52125" style="stroke: #000000; stroke-width: 0.8"/>
      </g>
     </g>
     <g id="text_18">
      <!-- 0 -->
      <g transform="translate(27.760938 178.993125) scale(0.1 -0.1)">
       <use xlink:href="#TimesNewRomanPSMT-30"/>
      </g>
     </g>
    </g>
    <g id="ytick_5">
     <g id="line2d_18">
      <g>
       <use xlink:href="#m585187f81d" x="39.760938" y="136.248524" style="stroke: #000000; stroke-width: 0.8"/>
      </g>
     </g>
     <g id="text_19">
      <!-- 2 -->
      <g transform="translate(27.760938 139.720399) scale(0.1 -0.1)">
       <use xlink:href="#TimesNewRomanPSMT-32"/>
      </g>
     </g>
    </g>
    <g id="ytick_6">
     <g id="line2d_19">
      <g>
       <use xlink:href="#m585187f81d" x="39.760938" y="96.975798" style="stroke: #000000; stroke-width: 0.8"/>
      </g>
     </g>
     <g id="text_20">
      <!-- 4 -->
      <g transform="translate(27.760938 100.447673) scale(0.1 -0.1)">
       <use xlink:href="#TimesNewRomanPSMT-34"/>
      </g>
     </g>
    </g>
    <g id="ytick_7">
     <g id="line2d_20">
      <g>
       <use xlink:href="#m585187f81d" x="39.760938" y="57.703072" style="stroke: #000000; stroke-width: 0.8"/>
      </g>
     </g>
     <g id="text_21">
      <!-- 6 -->
      <g transform="translate(27.760938 61.174947) scale(0.1 -0.1)">
       <use xlink:href="#TimesNewRomanPSMT-36"/>
      </g>
     </g>
    </g>
    <g id="text_22">
     <!-- Electricity Demand (MWh) -->
     <g transform="translate(15.5325 241.829687) rotate(-90) scale(0.12 -0.12)">
      <defs>
       <path id="TimesNewRomanPSMT-45" d="M 1338 4006 
L 1338 2331 
L 2269 2331 
Q 2631 2331 2753 2441 
Q 2916 2584 2934 2947 
L 3050 2947 
L 3050 1472 
L 2934 1472 
Q 2891 1781 2847 1869 
Q 2791 1978 2662 2040 
Q 2534 2103 2269 2103 
L 1338 2103 
L 1338 706 
Q 1338 425 1363 364 
Q 1388 303 1450 267 
Q 1513 231 1688 231 
L 2406 231 
Q 2766 231 2928 281 
Q 3091 331 3241 478 
Q 3434 672 3638 1063 
L 3763 1063 
L 3397 0 
L 131 0 
L 131 116 
L 281 116 
Q 431 116 566 188 
Q 666 238 702 338 
Q 738 438 738 747 
L 738 3500 
Q 738 3903 656 3997 
Q 544 4122 281 4122 
L 131 4122 
L 131 4238 
L 3397 4238 
L 3444 3309 
L 3322 3309 
Q 3256 3644 3176 3769 
Q 3097 3894 2941 3959 
Q 2816 4006 2500 4006 
L 1338 4006 
z
" transform="scale(0.015625)"/>
       <path id="TimesNewRomanPSMT-6c" d="M 1184 4444 
L 1184 647 
Q 1184 378 1223 290 
Q 1263 203 1344 158 
Q 1425 113 1647 113 
L 1647 0 
L 244 0 
L 244 113 
Q 441 113 512 153 
Q 584 194 625 287 
Q 666 381 666 647 
L 666 3247 
Q 666 3731 644 3842 
Q 622 3953 573 3993 
Q 525 4034 450 4034 
Q 369 4034 244 3984 
L 191 4094 
L 1044 4444 
L 1184 4444 
z
" transform="scale(0.015625)"/>
       <path id="TimesNewRomanPSMT-63" d="M 2631 1088 
Q 2516 522 2178 217 
Q 1841 -88 1431 -88 
Q 944 -88 581 321 
Q 219 731 219 1428 
Q 219 2103 620 2525 
Q 1022 2947 1584 2947 
Q 2006 2947 2278 2723 
Q 2550 2500 2550 2259 
Q 2550 2141 2473 2067 
Q 2397 1994 2259 1994 
Q 2075 1994 1981 2113 
Q 1928 2178 1911 2362 
Q 1894 2547 1784 2644 
Q 1675 2738 1481 2738 
Q 1169 2738 978 2506 
Q 725 2200 725 1697 
Q 725 1184 976 792 
Q 1228 400 1656 400 
Q 1963 400 2206 609 
Q 2378 753 2541 1131 
L 2631 1088 
z
" transform="scale(0.015625)"/>
       <path id="TimesNewRomanPSMT-74" d="M 1031 3803 
L 1031 2863 
L 1700 2863 
L 1700 2644 
L 1031 2644 
L 1031 788 
Q 1031 509 1111 412 
Q 1191 316 1316 316 
Q 1419 316 1516 380 
Q 1613 444 1666 569 
L 1788 569 
Q 1678 263 1478 108 
Q 1278 -47 1066 -47 
Q 922 -47 784 33 
Q 647 113 581 261 
Q 516 409 516 719 
L 516 2644 
L 63 2644 
L 63 2747 
Q 234 2816 414 2980 
Q 594 3144 734 3369 
Q 806 3488 934 3803 
L 1031 3803 
z
" transform="scale(0.015625)"/>
       <path id="TimesNewRomanPSMT-69" d="M 928 4444 
Q 1059 4444 1151 4351 
Q 1244 4259 1244 4128 
Q 1244 3997 1151 3903 
Q 1059 3809 928 3809 
Q 797 3809 703 3903 
Q 609 3997 609 4128 
Q 609 4259 701 4351 
Q 794 4444 928 4444 
z
M 1188 2947 
L 1188 647 
Q 1188 378 1227 289 
Q 1266 200 1342 156 
Q 1419 113 1622 113 
L 1622 0 
L 231 0 
L 231 113 
Q 441 113 512 153 
Q 584 194 626 287 
Q 669 381 669 647 
L 669 1750 
Q 669 2216 641 2353 
Q 619 2453 572 2492 
Q 525 2531 444 2531 
Q 356 2531 231 2484 
L 188 2597 
L 1050 2947 
L 1188 2947 
z
" transform="scale(0.015625)"/>
       <path id="TimesNewRomanPSMT-79" d="M 38 2863 
L 1372 2863 
L 1372 2747 
L 1306 2747 
Q 1166 2747 1095 2686 
Q 1025 2625 1025 2534 
Q 1025 2413 1128 2197 
L 1825 753 
L 2466 2334 
Q 2519 2463 2519 2588 
Q 2519 2644 2497 2672 
Q 2472 2706 2419 2726 
Q 2366 2747 2231 2747 
L 2231 2863 
L 3163 2863 
L 3163 2747 
Q 3047 2734 2984 2696 
Q 2922 2659 2847 2556 
Q 2819 2513 2741 2316 
L 1575 -541 
Q 1406 -956 1132 -1168 
Q 859 -1381 606 -1381 
Q 422 -1381 303 -1275 
Q 184 -1169 184 -1031 
Q 184 -900 270 -820 
Q 356 -741 506 -741 
Q 609 -741 788 -809 
Q 913 -856 944 -856 
Q 1038 -856 1148 -759 
Q 1259 -663 1372 -384 
L 1575 113 
L 547 2272 
Q 500 2369 397 2513 
Q 319 2622 269 2659 
Q 197 2709 38 2747 
L 38 2863 
z
" transform="scale(0.015625)"/>
       <path id="TimesNewRomanPSMT-20" transform="scale(0.015625)"/>
       <path id="TimesNewRomanPSMT-44" d="M 109 0 
L 109 116 
L 269 116 
Q 538 116 650 288 
Q 719 391 719 750 
L 719 3488 
Q 719 3884 631 3984 
Q 509 4122 269 4122 
L 109 4122 
L 109 4238 
L 1834 4238 
Q 2784 4238 3279 4022 
Q 3775 3806 4076 3303 
Q 4378 2800 4378 2141 
Q 4378 1256 3841 663 
Q 3238 0 2003 0 
L 109 0 
z
M 1319 306 
Q 1716 219 1984 219 
Q 2709 219 3187 728 
Q 3666 1238 3666 2109 
Q 3666 2988 3187 3494 
Q 2709 4000 1959 4000 
Q 1678 4000 1319 3909 
L 1319 306 
z
" transform="scale(0.015625)"/>
       <path id="TimesNewRomanPSMT-6d" d="M 1050 2338 
Q 1363 2650 1419 2697 
Q 1559 2816 1721 2881 
Q 1884 2947 2044 2947 
Q 2313 2947 2506 2790 
Q 2700 2634 2766 2338 
Q 3088 2713 3309 2830 
Q 3531 2947 3766 2947 
Q 3994 2947 4170 2830 
Q 4347 2713 4450 2447 
Q 4519 2266 4519 1878 
L 4519 647 
Q 4519 378 4559 278 
Q 4591 209 4675 161 
Q 4759 113 4950 113 
L 4950 0 
L 3538 0 
L 3538 113 
L 3597 113 
Q 3781 113 3884 184 
Q 3956 234 3988 344 
Q 4000 397 4000 647 
L 4000 1878 
Q 4000 2228 3916 2372 
Q 3794 2572 3525 2572 
Q 3359 2572 3192 2489 
Q 3025 2406 2788 2181 
L 2781 2147 
L 2788 2013 
L 2788 647 
Q 2788 353 2820 281 
Q 2853 209 2943 161 
Q 3034 113 3253 113 
L 3253 0 
L 1806 0 
L 1806 113 
Q 2044 113 2133 169 
Q 2222 225 2256 338 
Q 2272 391 2272 647 
L 2272 1878 
Q 2272 2228 2169 2381 
Q 2031 2581 1784 2581 
Q 1616 2581 1450 2491 
Q 1191 2353 1050 2181 
L 1050 647 
Q 1050 366 1089 281 
Q 1128 197 1204 155 
Q 1281 113 1516 113 
L 1516 0 
L 100 0 
L 100 113 
Q 297 113 375 155 
Q 453 197 493 289 
Q 534 381 534 647 
L 534 1741 
Q 534 2213 506 2350 
Q 484 2453 437 2492 
Q 391 2531 309 2531 
Q 222 2531 100 2484 
L 53 2597 
L 916 2947 
L 1050 2947 
L 1050 2338 
z
" transform="scale(0.015625)"/>
       <path id="TimesNewRomanPSMT-6e" d="M 1034 2341 
Q 1538 2947 1994 2947 
Q 2228 2947 2397 2830 
Q 2566 2713 2666 2444 
Q 2734 2256 2734 1869 
L 2734 647 
Q 2734 375 2778 278 
Q 2813 200 2889 156 
Q 2966 113 3172 113 
L 3172 0 
L 1756 0 
L 1756 113 
L 1816 113 
Q 2016 113 2095 173 
Q 2175 234 2206 353 
Q 2219 400 2219 647 
L 2219 1819 
Q 2219 2209 2117 2386 
Q 2016 2563 1775 2563 
Q 1403 2563 1034 2156 
L 1034 647 
Q 1034 356 1069 288 
Q 1113 197 1189 155 
Q 1266 113 1500 113 
L 1500 0 
L 84 0 
L 84 113 
L 147 113 
Q 366 113 442 223 
Q 519 334 519 647 
L 519 1709 
Q 519 2225 495 2337 
Q 472 2450 423 2490 
Q 375 2531 294 2531 
Q 206 2531 84 2484 
L 38 2597 
L 900 2947 
L 1034 2947 
L 1034 2341 
z
" transform="scale(0.015625)"/>
       <path id="TimesNewRomanPSMT-64" d="M 2222 322 
Q 2013 103 1813 7 
Q 1613 -88 1381 -88 
Q 913 -88 563 304 
Q 213 697 213 1313 
Q 213 1928 600 2439 
Q 988 2950 1597 2950 
Q 1975 2950 2222 2709 
L 2222 3238 
Q 2222 3728 2198 3840 
Q 2175 3953 2125 3993 
Q 2075 4034 2000 4034 
Q 1919 4034 1784 3984 
L 1744 4094 
L 2597 4444 
L 2738 4444 
L 2738 1134 
Q 2738 631 2761 520 
Q 2784 409 2836 365 
Q 2888 322 2956 322 
Q 3041 322 3181 375 
L 3216 266 
L 2366 -88 
L 2222 -88 
L 2222 322 
z
M 2222 541 
L 2222 2016 
Q 2203 2228 2109 2403 
Q 2016 2578 1861 2667 
Q 1706 2756 1559 2756 
Q 1284 2756 1069 2509 
Q 784 2184 784 1559 
Q 784 928 1059 592 
Q 1334 256 1672 256 
Q 1956 256 2222 541 
z
" transform="scale(0.015625)"/>
       <path id="TimesNewRomanPSMT-28" d="M 1988 -1253 
L 1988 -1369 
Q 1516 -1131 1200 -813 
Q 750 -359 506 256 
Q 263 872 263 1534 
Q 263 2503 741 3301 
Q 1219 4100 1988 4444 
L 1988 4313 
Q 1603 4100 1356 3731 
Q 1109 3363 987 2797 
Q 866 2231 866 1616 
Q 866 947 969 400 
Q 1050 -31 1165 -292 
Q 1281 -553 1476 -793 
Q 1672 -1034 1988 -1253 
z
" transform="scale(0.015625)"/>
       <path id="TimesNewRomanPSMT-4d" d="M 2619 0 
L 981 3566 
L 981 734 
Q 981 344 1066 247 
Q 1181 116 1431 116 
L 1581 116 
L 1581 0 
L 106 0 
L 106 116 
L 256 116 
Q 525 116 638 278 
Q 706 378 706 734 
L 706 3503 
Q 706 3784 644 3909 
Q 600 4000 483 4061 
Q 366 4122 106 4122 
L 106 4238 
L 1306 4238 
L 2844 922 
L 4356 4238 
L 5556 4238 
L 5556 4122 
L 5409 4122 
Q 5138 4122 5025 3959 
Q 4956 3859 4956 3503 
L 4956 734 
Q 4956 344 5044 247 
Q 5159 116 5409 116 
L 5556 116 
L 5556 0 
L 3756 0 
L 3756 116 
L 3906 116 
Q 4178 116 4288 278 
Q 4356 378 4356 734 
L 4356 3566 
L 2722 0 
L 2619 0 
z
" transform="scale(0.015625)"/>
       <path id="TimesNewRomanPSMT-57" d="M 5991 4238 
L 5991 4122 
Q 5825 4122 5722 4062 
Q 5619 4003 5525 3841 
Q 5463 3731 5328 3319 
L 4147 -97 
L 4022 -97 
L 3056 2613 
L 2097 -97 
L 1984 -97 
L 725 3422 
Q 584 3816 547 3888 
Q 484 4006 376 4064 
Q 269 4122 84 4122 
L 84 4238 
L 1653 4238 
L 1653 4122 
L 1578 4122 
Q 1413 4122 1325 4047 
Q 1238 3972 1238 3866 
Q 1238 3756 1375 3363 
L 2209 984 
L 2913 3006 
L 2788 3363 
L 2688 3647 
Q 2622 3803 2541 3922 
Q 2500 3981 2441 4022 
Q 2363 4078 2284 4103 
Q 2225 4122 2097 4122 
L 2097 4238 
L 3747 4238 
L 3747 4122 
L 3634 4122 
Q 3459 4122 3378 4047 
Q 3297 3972 3297 3844 
Q 3297 3684 3438 3288 
L 4250 984 
L 5056 3319 
Q 5194 3706 5194 3856 
Q 5194 3928 5148 3990 
Q 5103 4053 5034 4078 
Q 4916 4122 4725 4122 
L 4725 4238 
L 5991 4238 
z
" transform="scale(0.015625)"/>
       <path id="TimesNewRomanPSMT-68" d="M 1041 4444 
L 1041 2350 
Q 1388 2731 1591 2839 
Q 1794 2947 1997 2947 
Q 2241 2947 2416 2812 
Q 2591 2678 2675 2391 
Q 2734 2191 2734 1659 
L 2734 647 
Q 2734 375 2778 275 
Q 2809 200 2884 156 
Q 2959 113 3159 113 
L 3159 0 
L 1753 0 
L 1753 113 
L 1819 113 
Q 2019 113 2097 173 
Q 2175 234 2206 353 
Q 2216 403 2216 647 
L 2216 1659 
Q 2216 2128 2167 2275 
Q 2119 2422 2012 2495 
Q 1906 2569 1756 2569 
Q 1603 2569 1437 2487 
Q 1272 2406 1041 2159 
L 1041 647 
Q 1041 353 1073 281 
Q 1106 209 1195 161 
Q 1284 113 1503 113 
L 1503 0 
L 84 0 
L 84 113 
Q 275 113 384 172 
Q 447 203 484 290 
Q 522 378 522 647 
L 522 3238 
Q 522 3728 498 3840 
Q 475 3953 426 3993 
Q 378 4034 297 4034 
Q 231 4034 84 3984 
L 41 4094 
L 897 4444 
L 1041 4444 
z
" transform="scale(0.015625)"/>
       <path id="TimesNewRomanPSMT-29" d="M 144 4313 
L 144 4444 
Q 619 4209 934 3891 
Q 1381 3434 1625 2820 
Q 1869 2206 1869 1541 
Q 1869 572 1392 -226 
Q 916 -1025 144 -1369 
L 144 -1253 
Q 528 -1038 776 -670 
Q 1025 -303 1145 264 
Q 1266 831 1266 1447 
Q 1266 2113 1163 2663 
Q 1084 3094 967 3353 
Q 850 3613 656 3853 
Q 463 4094 144 4313 
z
" transform="scale(0.015625)"/>
      </defs>
      <use xlink:href="#TimesNewRomanPSMT-45"/>
      <use xlink:href="#TimesNewRomanPSMT-6c" x="61.083984"/>
      <use xlink:href="#TimesNewRomanPSMT-65" x="88.867188"/>
      <use xlink:href="#TimesNewRomanPSMT-63" x="133.251953"/>
      <use xlink:href="#TimesNewRomanPSMT-74" x="177.636719"/>
      <use xlink:href="#TimesNewRomanPSMT-72" x="205.419922"/>
      <use xlink:href="#TimesNewRomanPSMT-69" x="238.720703"/>
      <use xlink:href="#TimesNewRomanPSMT-63" x="266.503906"/>
      <use xlink:href="#TimesNewRomanPSMT-69" x="310.888672"/>
      <use xlink:href="#TimesNewRomanPSMT-74" x="338.671875"/>
      <use xlink:href="#TimesNewRomanPSMT-79" x="366.455078"/>
      <use xlink:href="#TimesNewRomanPSMT-20" x="416.455078"/>
      <use xlink:href="#TimesNewRomanPSMT-44" x="441.455078"/>
      <use xlink:href="#TimesNewRomanPSMT-65" x="513.671875"/>
      <use xlink:href="#TimesNewRomanPSMT-6d" x="558.056641"/>
      <use xlink:href="#TimesNewRomanPSMT-61" x="635.839844"/>
      <use xlink:href="#TimesNewRomanPSMT-6e" x="680.224609"/>
      <use xlink:href="#TimesNewRomanPSMT-64" x="730.224609"/>
      <use xlink:href="#TimesNewRomanPSMT-20" x="780.224609"/>
      <use xlink:href="#TimesNewRomanPSMT-28" x="805.224609"/>
      <use xlink:href="#TimesNewRomanPSMT-4d" x="838.525391"/>
      <use xlink:href="#TimesNewRomanPSMT-57" x="927.441406"/>
      <use xlink:href="#TimesNewRomanPSMT-68" x="1021.826172"/>
      <use xlink:href="#TimesNewRomanPSMT-29" x="1071.826172"/>
     </g>
    </g>
    <g id="text_23">
     <!-- 1e9 -->
     <g transform="translate(39.760938 33.92125) scale(0.1 -0.1)">
      <use xlink:href="#TimesNewRomanPSMT-31"/>
      <use xlink:href="#TimesNewRomanPSMT-65" x="50"/>
      <use xlink:href="#TimesNewRomanPSMT-39" x="94.384766"/>
     </g>
    </g>
   </g>
   <g id="patch_3">
    <path d="M 39.760938 314.12125 
L 39.760938 36.92125 
" style="fill: none; stroke: #000000; stroke-width: 0.8; stroke-linejoin: miter; stroke-linecap: square"/>
   </g>
   <g id="patch_4">
    <path d="M 428.560938 314.12125 
L 428.560938 36.92125 
" style="fill: none; stroke: #000000; stroke-width: 0.8; stroke-linejoin: miter; stroke-linecap: square"/>
   </g>
   <g id="patch_5">
    <path d="M 39.760937 314.12125 
L 428.560937 314.12125 
" style="fill: none; stroke: #000000; stroke-width: 0.8; stroke-linejoin: miter; stroke-linecap: square"/>
   </g>
   <g id="patch_6">
    <path d="M 39.760937 36.92125 
L 428.560937 36.92125 
" style="fill: none; stroke: #000000; stroke-width: 0.8; stroke-linejoin: miter; stroke-linecap: square"/>
   </g>
   <g id="text_24">
    <!-- Electricity Demand from 1997 to 2021 (MWh)  -->
    <g transform="translate(101.000156 16.92125) scale(0.14 -0.14)">
     <defs>
      <path id="TimesNewRomanPSMT-66" d="M 1319 2638 
L 1319 756 
Q 1319 356 1406 250 
Q 1522 113 1716 113 
L 1975 113 
L 1975 0 
L 266 0 
L 266 113 
L 394 113 
Q 519 113 622 175 
Q 725 238 764 344 
Q 803 450 803 756 
L 803 2638 
L 247 2638 
L 247 2863 
L 803 2863 
L 803 3050 
Q 803 3478 940 3775 
Q 1078 4072 1361 4255 
Q 1644 4438 1997 4438 
Q 2325 4438 2600 4225 
Q 2781 4084 2781 3909 
Q 2781 3816 2700 3733 
Q 2619 3650 2525 3650 
Q 2453 3650 2373 3701 
Q 2294 3753 2178 3923 
Q 2063 4094 1966 4153 
Q 1869 4213 1750 4213 
Q 1606 4213 1506 4136 
Q 1406 4059 1362 3898 
Q 1319 3738 1319 3069 
L 1319 2863 
L 2056 2863 
L 2056 2638 
L 1319 2638 
z
" transform="scale(0.015625)"/>
      <path id="TimesNewRomanPSMT-6f" d="M 1600 2947 
Q 2250 2947 2644 2453 
Q 2978 2031 2978 1484 
Q 2978 1100 2793 706 
Q 2609 313 2286 112 
Q 1963 -88 1566 -88 
Q 919 -88 538 428 
Q 216 863 216 1403 
Q 216 1797 411 2186 
Q 606 2575 925 2761 
Q 1244 2947 1600 2947 
z
M 1503 2744 
Q 1338 2744 1170 2645 
Q 1003 2547 900 2300 
Q 797 2053 797 1666 
Q 797 1041 1045 587 
Q 1294 134 1700 134 
Q 2003 134 2200 384 
Q 2397 634 2397 1244 
Q 2397 2006 2069 2444 
Q 1847 2744 1503 2744 
z
" transform="scale(0.015625)"/>
     </defs>
     <use xlink:href="#TimesNewRomanPSMT-45"/>
     <use xlink:href="#TimesNewRomanPSMT-6c" x="61.083984"/>
     <use xlink:href="#TimesNewRomanPSMT-65" x="88.867188"/>
     <use xlink:href="#TimesNewRomanPSMT-63" x="133.251953"/>
     <use xlink:href="#TimesNewRomanPSMT-74" x="177.636719"/>
     <use xlink:href="#TimesNewRomanPSMT-72" x="205.419922"/>
     <use xlink:href="#TimesNewRomanPSMT-69" x="238.720703"/>
     <use xlink:href="#TimesNewRomanPSMT-63" x="266.503906"/>
     <use xlink:href="#TimesNewRomanPSMT-69" x="310.888672"/>
     <use xlink:href="#TimesNewRomanPSMT-74" x="338.671875"/>
     <use xlink:href="#TimesNewRomanPSMT-79" x="366.455078"/>
     <use xlink:href="#TimesNewRomanPSMT-20" x="416.455078"/>
     <use xlink:href="#TimesNewRomanPSMT-44" x="441.455078"/>
     <use xlink:href="#TimesNewRomanPSMT-65" x="513.671875"/>
     <use xlink:href="#TimesNewRomanPSMT-6d" x="558.056641"/>
     <use xlink:href="#TimesNewRomanPSMT-61" x="635.839844"/>
     <use xlink:href="#TimesNewRomanPSMT-6e" x="680.224609"/>
     <use xlink:href="#TimesNewRomanPSMT-64" x="730.224609"/>
     <use xlink:href="#TimesNewRomanPSMT-20" x="780.224609"/>
     <use xlink:href="#TimesNewRomanPSMT-66" x="805.224609"/>
     <use xlink:href="#TimesNewRomanPSMT-72" x="838.525391"/>
     <use xlink:href="#TimesNewRomanPSMT-6f" x="871.826172"/>
     <use xlink:href="#TimesNewRomanPSMT-6d" x="921.826172"/>
     <use xlink:href="#TimesNewRomanPSMT-20" x="999.609375"/>
     <use xlink:href="#TimesNewRomanPSMT-31" x="1024.609375"/>
     <use xlink:href="#TimesNewRomanPSMT-39" x="1074.609375"/>
     <use xlink:href="#TimesNewRomanPSMT-39" x="1124.609375"/>
     <use xlink:href="#TimesNewRomanPSMT-37" x="1174.609375"/>
     <use xlink:href="#TimesNewRomanPSMT-20" x="1224.609375"/>
     <use xlink:href="#TimesNewRomanPSMT-74" x="1249.609375"/>
     <use xlink:href="#TimesNewRomanPSMT-6f" x="1277.392578"/>
     <use xlink:href="#TimesNewRomanPSMT-20" x="1327.392578"/>
     <use xlink:href="#TimesNewRomanPSMT-32" x="1352.392578"/>
     <use xlink:href="#TimesNewRomanPSMT-30" x="1402.392578"/>
     <use xlink:href="#TimesNewRomanPSMT-32" x="1452.392578"/>
     <use xlink:href="#TimesNewRomanPSMT-31" x="1502.392578"/>
     <use xlink:href="#TimesNewRomanPSMT-20" x="1552.392578"/>
     <use xlink:href="#TimesNewRomanPSMT-28" x="1577.392578"/>
     <use xlink:href="#TimesNewRomanPSMT-4d" x="1610.693359"/>
     <use xlink:href="#TimesNewRomanPSMT-57" x="1699.609375"/>
     <use xlink:href="#TimesNewRomanPSMT-68" x="1793.994141"/>
     <use xlink:href="#TimesNewRomanPSMT-29" x="1843.994141"/>
     <use xlink:href="#TimesNewRomanPSMT-20" x="1877.294922"/>
    </g>
   </g>
   <g id="legend_1">
    <g id="patch_7">
     <path d="M 445.336938 163.784531 
L 465.336938 163.784531 
L 465.336938 156.784531 
L 445.336938 156.784531 
z
" style="fill: #1f77b4"/>
    </g>
    <g id="text_25">
     <!-- Zenith Utility Services -->
     <g transform="translate(473.336938 163.784531) scale(0.1 -0.1)">
      <defs>
       <path id="TimesNewRomanPSMT-5a" d="M 3681 4238 
L 897 256 
L 2634 256 
Q 3034 256 3248 431 
Q 3463 606 3628 1141 
L 3731 1122 
L 3531 0 
L 81 0 
L 81 116 
L 2800 3984 
L 1444 3984 
Q 1106 3984 954 3911 
Q 803 3838 723 3698 
Q 644 3559 578 3178 
L 459 3178 
L 547 4238 
L 3681 4238 
z
" transform="scale(0.015625)"/>
       <path id="TimesNewRomanPSMT-55" d="M 3053 4122 
L 3053 4238 
L 4553 4238 
L 4553 4122 
L 4394 4122 
Q 4144 4122 4009 3913 
Q 3944 3816 3944 3463 
L 3944 1744 
Q 3944 1106 3817 754 
Q 3691 403 3320 151 
Q 2950 -100 2313 -100 
Q 1619 -100 1259 140 
Q 900 381 750 788 
Q 650 1066 650 1831 
L 650 3488 
Q 650 3878 542 4000 
Q 434 4122 194 4122 
L 34 4122 
L 34 4238 
L 1866 4238 
L 1866 4122 
L 1703 4122 
Q 1441 4122 1328 3956 
Q 1250 3844 1250 3488 
L 1250 1641 
Q 1250 1394 1295 1075 
Q 1341 756 1459 578 
Q 1578 400 1801 284 
Q 2025 169 2350 169 
Q 2766 169 3094 350 
Q 3422 531 3542 814 
Q 3663 1097 3663 1772 
L 3663 3488 
Q 3663 3884 3575 3984 
Q 3453 4122 3213 4122 
L 3053 4122 
z
" transform="scale(0.015625)"/>
       <path id="TimesNewRomanPSMT-53" d="M 2934 4334 
L 2934 2869 
L 2819 2869 
Q 2763 3291 2617 3541 
Q 2472 3791 2203 3937 
Q 1934 4084 1647 4084 
Q 1322 4084 1109 3886 
Q 897 3688 897 3434 
Q 897 3241 1031 3081 
Q 1225 2847 1953 2456 
Q 2547 2138 2764 1967 
Q 2981 1797 3098 1565 
Q 3216 1334 3216 1081 
Q 3216 600 2842 251 
Q 2469 -97 1881 -97 
Q 1697 -97 1534 -69 
Q 1438 -53 1133 45 
Q 828 144 747 144 
Q 669 144 623 97 
Q 578 50 556 -97 
L 441 -97 
L 441 1356 
L 556 1356 
Q 638 900 775 673 
Q 913 447 1195 297 
Q 1478 147 1816 147 
Q 2206 147 2432 353 
Q 2659 559 2659 841 
Q 2659 997 2573 1156 
Q 2488 1316 2306 1453 
Q 2184 1547 1640 1851 
Q 1097 2156 867 2337 
Q 638 2519 519 2737 
Q 400 2956 400 3219 
Q 400 3675 750 4004 
Q 1100 4334 1641 4334 
Q 1978 4334 2356 4169 
Q 2531 4091 2603 4091 
Q 2684 4091 2736 4139 
Q 2788 4188 2819 4334 
L 2934 4334 
z
" transform="scale(0.015625)"/>
       <path id="TimesNewRomanPSMT-76" d="M 53 2863 
L 1400 2863 
L 1400 2747 
L 1313 2747 
Q 1191 2747 1127 2687 
Q 1063 2628 1063 2528 
Q 1063 2419 1128 2269 
L 1794 688 
L 2463 2328 
Q 2534 2503 2534 2594 
Q 2534 2638 2509 2666 
Q 2475 2713 2422 2730 
Q 2369 2747 2206 2747 
L 2206 2863 
L 3141 2863 
L 3141 2747 
Q 2978 2734 2916 2681 
Q 2806 2588 2719 2369 
L 1703 -88 
L 1575 -88 
L 553 2328 
Q 484 2497 421 2570 
Q 359 2644 263 2694 
Q 209 2722 53 2747 
L 53 2863 
z
" transform="scale(0.015625)"/>
       <path id="TimesNewRomanPSMT-73" d="M 2050 2947 
L 2050 1972 
L 1947 1972 
Q 1828 2431 1642 2597 
Q 1456 2763 1169 2763 
Q 950 2763 815 2647 
Q 681 2531 681 2391 
Q 681 2216 781 2091 
Q 878 1963 1175 1819 
L 1631 1597 
Q 2266 1288 2266 781 
Q 2266 391 1970 151 
Q 1675 -88 1309 -88 
Q 1047 -88 709 6 
Q 606 38 541 38 
Q 469 38 428 -44 
L 325 -44 
L 325 978 
L 428 978 
Q 516 541 762 319 
Q 1009 97 1316 97 
Q 1531 97 1667 223 
Q 1803 350 1803 528 
Q 1803 744 1651 891 
Q 1500 1038 1047 1263 
Q 594 1488 453 1669 
Q 313 1847 313 2119 
Q 313 2472 555 2709 
Q 797 2947 1181 2947 
Q 1350 2947 1591 2875 
Q 1750 2828 1803 2828 
Q 1853 2828 1881 2850 
Q 1909 2872 1947 2947 
L 2050 2947 
z
" transform="scale(0.015625)"/>
      </defs>
      <use xlink:href="#TimesNewRomanPSMT-5a"/>
      <use xlink:href="#TimesNewRomanPSMT-65" x="61.083984"/>
      <use xlink:href="#TimesNewRomanPSMT-6e" x="105.46875"/>
      <use xlink:href="#TimesNewRomanPSMT-69" x="155.46875"/>
      <use xlink:href="#TimesNewRomanPSMT-74" x="183.251953"/>
      <use xlink:href="#TimesNewRomanPSMT-68" x="211.035156"/>
      <use xlink:href="#TimesNewRomanPSMT-20" x="261.035156"/>
      <use xlink:href="#TimesNewRomanPSMT-55" x="286.035156"/>
      <use xlink:href="#TimesNewRomanPSMT-74" x="358.251953"/>
      <use xlink:href="#TimesNewRomanPSMT-69" x="386.035156"/>
      <use xlink:href="#TimesNewRomanPSMT-6c" x="413.818359"/>
      <use xlink:href="#TimesNewRomanPSMT-69" x="441.601562"/>
      <use xlink:href="#TimesNewRomanPSMT-74" x="469.384766"/>
      <use xlink:href="#TimesNewRomanPSMT-79" x="497.167969"/>
      <use xlink:href="#TimesNewRomanPSMT-20" x="547.167969"/>
      <use xlink:href="#TimesNewRomanPSMT-53" x="572.167969"/>
      <use xlink:href="#TimesNewRomanPSMT-65" x="627.783203"/>
      <use xlink:href="#TimesNewRomanPSMT-72" x="672.167969"/>
      <use xlink:href="#TimesNewRomanPSMT-76" x="705.46875"/>
      <use xlink:href="#TimesNewRomanPSMT-69" x="755.46875"/>
      <use xlink:href="#TimesNewRomanPSMT-63" x="783.251953"/>
      <use xlink:href="#TimesNewRomanPSMT-65" x="827.636719"/>
      <use xlink:href="#TimesNewRomanPSMT-73" x="872.021484"/>
     </g>
    </g>
    <g id="patch_8">
     <path d="M 445.336938 177.942344 
L 465.336938 177.942344 
L 465.336938 170.942344 
L 445.336938 170.942344 
z
" style="fill: #aec7e8"/>
    </g>
    <g id="text_26">
     <!-- Aethelgard Power Grid -->
     <g transform="translate(473.336938 177.942344) scale(0.1 -0.1)">
      <defs>
       <path id="TimesNewRomanPSMT-41" d="M 2928 1419 
L 1288 1419 
L 1000 750 
Q 894 503 894 381 
Q 894 284 986 211 
Q 1078 138 1384 116 
L 1384 0 
L 50 0 
L 50 116 
Q 316 163 394 238 
Q 553 388 747 847 
L 2238 4334 
L 2347 4334 
L 3822 809 
Q 4000 384 4145 257 
Q 4291 131 4550 116 
L 4550 0 
L 2878 0 
L 2878 116 
Q 3131 128 3220 200 
Q 3309 272 3309 375 
Q 3309 513 3184 809 
L 2928 1419 
z
M 2841 1650 
L 2122 3363 
L 1384 1650 
L 2841 1650 
z
" transform="scale(0.015625)"/>
       <path id="TimesNewRomanPSMT-67" d="M 966 1044 
Q 703 1172 562 1401 
Q 422 1631 422 1909 
Q 422 2334 742 2640 
Q 1063 2947 1563 2947 
Q 1972 2947 2272 2747 
L 2878 2747 
Q 3013 2747 3034 2739 
Q 3056 2731 3066 2713 
Q 3084 2684 3084 2613 
Q 3084 2531 3069 2500 
Q 3059 2484 3036 2475 
Q 3013 2466 2878 2466 
L 2506 2466 
Q 2681 2241 2681 1891 
Q 2681 1491 2375 1206 
Q 2069 922 1553 922 
Q 1341 922 1119 984 
Q 981 866 932 777 
Q 884 688 884 625 
Q 884 572 936 522 
Q 988 472 1138 450 
Q 1225 438 1575 428 
Q 2219 413 2409 384 
Q 2700 344 2873 169 
Q 3047 -6 3047 -263 
Q 3047 -616 2716 -925 
Q 2228 -1381 1444 -1381 
Q 841 -1381 425 -1109 
Q 191 -953 191 -784 
Q 191 -709 225 -634 
Q 278 -519 444 -313 
Q 466 -284 763 25 
Q 600 122 533 198 
Q 466 275 466 372 
Q 466 481 555 628 
Q 644 775 966 1044 
z
M 1509 2797 
Q 1278 2797 1122 2612 
Q 966 2428 966 2047 
Q 966 1553 1178 1281 
Q 1341 1075 1591 1075 
Q 1828 1075 1981 1253 
Q 2134 1431 2134 1813 
Q 2134 2309 1919 2591 
Q 1759 2797 1509 2797 
z
M 934 0 
Q 788 -159 713 -296 
Q 638 -434 638 -550 
Q 638 -700 819 -813 
Q 1131 -1006 1722 -1006 
Q 2284 -1006 2551 -807 
Q 2819 -609 2819 -384 
Q 2819 -222 2659 -153 
Q 2497 -84 2016 -72 
Q 1313 -53 934 0 
z
" transform="scale(0.015625)"/>
       <path id="TimesNewRomanPSMT-50" d="M 1313 1984 
L 1313 750 
Q 1313 350 1400 253 
Q 1519 116 1759 116 
L 1922 116 
L 1922 0 
L 106 0 
L 106 116 
L 266 116 
Q 534 116 650 291 
Q 713 388 713 750 
L 713 3488 
Q 713 3888 628 3984 
Q 506 4122 266 4122 
L 106 4122 
L 106 4238 
L 1659 4238 
Q 2228 4238 2556 4120 
Q 2884 4003 3109 3725 
Q 3334 3447 3334 3066 
Q 3334 2547 2992 2222 
Q 2650 1897 2025 1897 
Q 1872 1897 1694 1919 
Q 1516 1941 1313 1984 
z
M 1313 2163 
Q 1478 2131 1606 2115 
Q 1734 2100 1825 2100 
Q 2150 2100 2386 2351 
Q 2622 2603 2622 3003 
Q 2622 3278 2509 3514 
Q 2397 3750 2190 3867 
Q 1984 3984 1722 3984 
Q 1563 3984 1313 3925 
L 1313 2163 
z
" transform="scale(0.015625)"/>
       <path id="TimesNewRomanPSMT-77" d="M 41 2863 
L 1241 2863 
L 1241 2747 
Q 1075 2734 1023 2687 
Q 972 2641 972 2553 
Q 972 2456 1025 2319 
L 1638 672 
L 2253 2013 
L 2091 2434 
Q 2016 2622 1894 2694 
Q 1825 2738 1638 2747 
L 1638 2863 
L 3000 2863 
L 3000 2747 
Q 2775 2738 2681 2666 
Q 2619 2616 2619 2506 
Q 2619 2444 2644 2378 
L 3294 734 
L 3897 2319 
Q 3959 2488 3959 2588 
Q 3959 2647 3898 2694 
Q 3838 2741 3659 2747 
L 3659 2863 
L 4563 2863 
L 4563 2747 
Q 4291 2706 4163 2378 
L 3206 -88 
L 3078 -88 
L 2363 1741 
L 1528 -88 
L 1413 -88 
L 494 2319 
Q 403 2547 315 2626 
Q 228 2706 41 2747 
L 41 2863 
z
" transform="scale(0.015625)"/>
       <path id="TimesNewRomanPSMT-47" d="M 3928 4334 
L 4038 2997 
L 3928 2997 
Q 3763 3497 3500 3750 
Q 3122 4116 2528 4116 
Q 1719 4116 1297 3475 
Q 944 2934 944 2188 
Q 944 1581 1178 1081 
Q 1413 581 1792 348 
Q 2172 116 2572 116 
Q 2806 116 3025 175 
Q 3244 234 3447 350 
L 3447 1575 
Q 3447 1894 3398 1992 
Q 3350 2091 3248 2142 
Q 3147 2194 2891 2194 
L 2891 2313 
L 4531 2313 
L 4531 2194 
L 4453 2194 
Q 4209 2194 4119 2031 
Q 4056 1916 4056 1575 
L 4056 278 
Q 3697 84 3347 -6 
Q 2997 -97 2569 -97 
Q 1341 -97 703 691 
Q 225 1281 225 2053 
Q 225 2613 494 3125 
Q 813 3734 1369 4063 
Q 1834 4334 2469 4334 
Q 2700 4334 2889 4296 
Q 3078 4259 3425 4131 
Q 3600 4066 3659 4066 
Q 3719 4066 3761 4120 
Q 3803 4175 3813 4334 
L 3928 4334 
z
" transform="scale(0.015625)"/>
      </defs>
      <use xlink:href="#TimesNewRomanPSMT-41"/>
      <use xlink:href="#TimesNewRomanPSMT-65" x="72.216797"/>
      <use xlink:href="#TimesNewRomanPSMT-74" x="116.601562"/>
      <use xlink:href="#TimesNewRomanPSMT-68" x="144.384766"/>
      <use xlink:href="#TimesNewRomanPSMT-65" x="194.384766"/>
      <use xlink:href="#TimesNewRomanPSMT-6c" x="238.769531"/>
      <use xlink:href="#TimesNewRomanPSMT-67" x="266.552734"/>
      <use xlink:href="#TimesNewRomanPSMT-61" x="316.552734"/>
      <use xlink:href="#TimesNewRomanPSMT-72" x="360.9375"/>
      <use xlink:href="#TimesNewRomanPSMT-64" x="394.238281"/>
      <use xlink:href="#TimesNewRomanPSMT-20" x="444.238281"/>
      <use xlink:href="#TimesNewRomanPSMT-50" x="469.238281"/>
      <use xlink:href="#TimesNewRomanPSMT-6f" x="524.853516"/>
      <use xlink:href="#TimesNewRomanPSMT-77" x="574.853516"/>
      <use xlink:href="#TimesNewRomanPSMT-65" x="647.070312"/>
      <use xlink:href="#TimesNewRomanPSMT-72" x="691.455078"/>
      <use xlink:href="#TimesNewRomanPSMT-20" x="724.755859"/>
      <use xlink:href="#TimesNewRomanPSMT-47" x="749.755859"/>
      <use xlink:href="#TimesNewRomanPSMT-72" x="821.972656"/>
      <use xlink:href="#TimesNewRomanPSMT-69" x="855.273438"/>
      <use xlink:href="#TimesNewRomanPSMT-64" x="883.056641"/>
     </g>
    </g>
    <g id="patch_9">
     <path d="M 445.336938 192.100156 
L 465.336938 192.100156 
L 465.336938 185.100156 
L 445.336938 185.100156 
z
" style="fill: #ff7f0e"/>
    </g>
    <g id="text_27">
     <!-- Meridian Energy Network -->
     <g transform="translate(473.336938 192.100156) scale(0.1 -0.1)">
      <defs>
       <path id="TimesNewRomanPSMT-4e" d="M -84 4238 
L 1066 4238 
L 3656 1059 
L 3656 3503 
Q 3656 3894 3569 3991 
Q 3453 4122 3203 4122 
L 3056 4122 
L 3056 4238 
L 4531 4238 
L 4531 4122 
L 4381 4122 
Q 4113 4122 4000 3959 
Q 3931 3859 3931 3503 
L 3931 -69 
L 3819 -69 
L 1025 3344 
L 1025 734 
Q 1025 344 1109 247 
Q 1228 116 1475 116 
L 1625 116 
L 1625 0 
L 150 0 
L 150 116 
L 297 116 
Q 569 116 681 278 
Q 750 378 750 734 
L 750 3681 
Q 566 3897 470 3965 
Q 375 4034 191 4094 
Q 100 4122 -84 4122 
L -84 4238 
z
" transform="scale(0.015625)"/>
       <path id="TimesNewRomanPSMT-6b" d="M 1047 4444 
L 1047 1597 
L 1775 2259 
Q 2006 2472 2044 2528 
Q 2069 2566 2069 2603 
Q 2069 2666 2017 2711 
Q 1966 2756 1847 2763 
L 1847 2863 
L 3091 2863 
L 3091 2763 
Q 2834 2756 2664 2684 
Q 2494 2613 2291 2428 
L 1556 1750 
L 2291 822 
Q 2597 438 2703 334 
Q 2853 188 2966 144 
Q 3044 113 3238 113 
L 3238 0 
L 1847 0 
L 1847 113 
Q 1966 116 2008 148 
Q 2050 181 2050 241 
Q 2050 313 1925 472 
L 1047 1594 
L 1047 644 
Q 1047 366 1086 278 
Q 1125 191 1197 153 
Q 1269 116 1509 113 
L 1509 0 
L 53 0 
L 53 113 
Q 272 113 381 166 
Q 447 200 481 272 
Q 528 375 528 628 
L 528 3234 
Q 528 3731 506 3842 
Q 484 3953 434 3995 
Q 384 4038 303 4038 
Q 238 4038 106 3984 
L 53 4094 
L 903 4444 
L 1047 4444 
z
" transform="scale(0.015625)"/>
      </defs>
      <use xlink:href="#TimesNewRomanPSMT-4d"/>
      <use xlink:href="#TimesNewRomanPSMT-65" x="88.916016"/>
      <use xlink:href="#TimesNewRomanPSMT-72" x="133.300781"/>
      <use xlink:href="#TimesNewRomanPSMT-69" x="166.601562"/>
      <use xlink:href="#TimesNewRomanPSMT-64" x="194.384766"/>
      <use xlink:href="#TimesNewRomanPSMT-69" x="244.384766"/>
      <use xlink:href="#TimesNewRomanPSMT-61" x="272.167969"/>
      <use xlink:href="#TimesNewRomanPSMT-6e" x="316.552734"/>
      <use xlink:href="#TimesNewRomanPSMT-20" x="366.552734"/>
      <use xlink:href="#TimesNewRomanPSMT-45" x="391.552734"/>
      <use xlink:href="#TimesNewRomanPSMT-6e" x="452.636719"/>
      <use xlink:href="#TimesNewRomanPSMT-65" x="502.636719"/>
      <use xlink:href="#TimesNewRomanPSMT-72" x="547.021484"/>
      <use xlink:href="#TimesNewRomanPSMT-67" x="578.572266"/>
      <use xlink:href="#TimesNewRomanPSMT-79" x="628.572266"/>
      <use xlink:href="#TimesNewRomanPSMT-20" x="678.572266"/>
      <use xlink:href="#TimesNewRomanPSMT-4e" x="703.572266"/>
      <use xlink:href="#TimesNewRomanPSMT-65" x="775.789062"/>
      <use xlink:href="#TimesNewRomanPSMT-74" x="820.173828"/>
      <use xlink:href="#TimesNewRomanPSMT-77" x="847.957031"/>
      <use xlink:href="#TimesNewRomanPSMT-6f" x="920.173828"/>
      <use xlink:href="#TimesNewRomanPSMT-72" x="970.173828"/>
      <use xlink:href="#TimesNewRomanPSMT-6b" x="1003.474609"/>
     </g>
    </g>
   </g>
  </g>
 </g>
 <defs>
  <clipPath id="p0d0eb06e83">
   <rect x="39.760938" y="36.92125" width="388.8" height="277.2"/>
  </clipPath>
 </defs>
</svg>
