<?xml version="1.0" encoding="utf-8" standalone="no"?>
<!DOCTYPE svg PUBLIC "-//W3C//DTD SVG 1.1//EN"
  "http://www.w3.org/Graphics/SVG/1.1/DTD/svg11.dtd">
<svg xmlns:xlink="http://www.w3.org/1999/xlink" width="574.533812pt" height="363.785279pt" viewBox="0 0 574.533812 363.785279" xmlns="http://www.w3.org/2000/svg" version="1.1">
 <metadata>
  <rdf:RDF xmlns:dc="http://purl.org/dc/elements/1.1/" xmlns:cc="http://creativecommons.org/ns#" xmlns:rdf="http://www.w3.org/1999/02/22-rdf-syntax-ns#">
   <cc:Work>
    <dc:type rdf:resource="http://purl.org/dc/dcmitype/StillImage"/>
    <dc:date>2025-05-21T21:40:49.697713</dc:date>
    <dc:format>image/svg+xml</dc:format>
    <dc:creator>
     <cc:Agent>
      <dc:title>Matplotlib v3.9.2, https://matplotlib.org/</dc:title>
     </cc:Agent>
    </dc:creator>
   </cc:Work>
  </rdf:RDF>
 </metadata>
 <defs>
  <style type="text/css">*{stroke-linejoin: round; stroke-linecap: butt}</style>
 </defs>
 <g id="figure_1">
  <g id="patch_1">
   <path d="M 0 363.785279 
L 574.533812 363.785279 
L 574.533812 0 
L 0 0 
z
" style="fill: #ffffff"/>
  </g>
  <g id="axes_1">
   <g id="patch_2">
    <path d="M 44.760938 314.12125 
L 433.560938 314.12125 
L 433.560938 36.92125 
L 44.760938 36.92125 
z
" style="fill: #ffffff"/>
   </g>
   <g id="PolyCollection_1">
    <path d="M 62.433665 202.428724 
L 62.433665 277.492036 
L 71.496602 279.155297 
L 80.559539 280.698344 
L 89.622476 282.123535 
L 98.685413 283.433226 
L 107.74835 284.629775 
L 116.811287 285.715538 
L 125.874224 286.692874 
L 134.937161 287.564138 
L 144.000098 288.331688 
L 153.063035 288.997882 
L 162.125972 289.565076 
L 171.18891 290.035628 
L 180.251847 290.411895 
L 189.314784 290.696233 
L 198.377721 290.891 
L 207.440658 290.998553 
L 216.503595 291.02125 
L 225.566532 290.961447 
L 234.629469 290.821501 
L 243.692406 290.60377 
L 252.755343 290.310611 
L 261.81828 289.94438 
L 270.881217 289.507436 
L 279.944154 289.002135 
L 289.007091 288.430834 
L 298.070028 287.79589 
L 307.132965 287.099661 
L 316.195903 286.344504 
L 325.25884 285.532775 
L 334.321777 284.666833 
L 343.384714 283.749033 
L 352.447651 282.781734 
L 361.510588 281.767292 
L 370.573525 280.708064 
L 379.636462 279.606408 
L 388.699399 278.464681 
L 397.762336 277.28524 
L 406.825273 276.070442 
L 415.88821 274.822644 
L 415.88821 195.488304 
L 415.88821 195.488304 
L 406.825273 197.127873 
L 397.762336 198.68482 
L 388.699399 200.159607 
L 379.636462 201.552697 
L 370.573525 202.864551 
L 361.510588 204.09563 
L 352.447651 205.246397 
L 343.384714 206.317313 
L 334.321777 207.30884 
L 325.25884 208.221439 
L 316.195903 209.055573 
L 307.132965 209.811702 
L 298.070028 210.490289 
L 289.007091 211.091795 
L 279.944154 211.616683 
L 270.881217 212.065413 
L 261.81828 212.438447 
L 252.755343 212.736248 
L 243.692406 212.959277 
L 234.629469 213.107995 
L 225.566532 213.182864 
L 216.503595 213.184346 
L 207.440658 213.112903 
L 198.377721 212.968997 
L 189.314784 212.753088 
L 180.251847 212.465639 
L 171.18891 212.107112 
L 162.125972 211.677968 
L 153.063035 211.178669 
L 144.000098 210.609677 
L 134.937161 209.971453 
L 125.874224 209.264459 
L 116.811287 208.489156 
L 107.74835 207.646007 
L 98.685413 206.735474 
L 89.622476 205.758017 
L 80.559539 204.714098 
L 71.496602 203.60418 
L 62.433665 202.428724 
z
" clip-path="url(#p551fe3cd39)" style="fill: #1f77b4"/>
   </g>
   <g id="PolyCollection_2">
    <path d="M 62.433665 143.06144 
L 62.433665 202.428724 
L 71.496602 203.60418 
L 80.559539 204.714098 
L 89.622476 205.758017 
L 98.685413 206.735474 
L 107.74835 207.646007 
L 116.811287 208.489156 
L 125.874224 209.264459 
L 134.937161 209.971453 
L 144.000098 210.609677 
L 153.063035 211.178669 
L 162.125972 211.677968 
L 171.18891 212.107112 
L 180.251847 212.465639 
L 189.314784 212.753088 
L 198.377721 212.968997 
L 207.440658 213.112903 
L 216.503595 213.184346 
L 225.566532 213.182864 
L 234.629469 213.107995 
L 243.692406 212.959277 
L 252.755343 212.736248 
L 261.81828 212.438447 
L 270.881217 212.065413 
L 279.944154 211.616683 
L 289.007091 211.091795 
L 298.070028 210.490289 
L 307.132965 209.811702 
L 316.195903 209.055573 
L 325.25884 208.221439 
L 334.321777 207.30884 
L 343.384714 206.317313 
L 352.447651 205.246397 
L 361.510588 204.09563 
L 370.573525 202.864551 
L 379.636462 201.552697 
L 388.699399 200.159607 
L 397.762336 198.68482 
L 406.825273 197.127873 
L 415.88821 195.488304 
L 415.88821 124.696021 
L 415.88821 124.696021 
L 406.825273 126.229931 
L 397.762336 127.627273 
L 388.699399 128.894585 
L 379.636462 130.038402 
L 370.573525 131.065261 
L 361.510588 131.9817 
L 352.447651 132.794255 
L 343.384714 133.509462 
L 334.321777 134.133859 
L 325.25884 134.673983 
L 316.195903 135.13637 
L 307.132965 135.527557 
L 298.070028 135.85408 
L 289.007091 136.122478 
L 279.944154 136.339285 
L 270.881217 136.51104 
L 261.81828 136.644279 
L 252.755343 136.745538 
L 243.692406 136.821355 
L 234.629469 136.878267 
L 225.566532 136.922809 
L 216.503595 136.96152 
L 207.440658 137.000935 
L 198.377721 137.047592 
L 189.314784 137.108027 
L 180.251847 137.188777 
L 171.18891 137.296378 
L 162.125972 137.437369 
L 153.063035 137.618285 
L 144.000098 137.845663 
L 134.937161 138.126041 
L 125.874224 138.465954 
L 116.811287 138.87194 
L 107.74835 139.350535 
L 98.685413 139.908276 
L 89.622476 140.551701 
L 80.559539 141.287345 
L 71.496602 142.121745 
L 62.433665 143.06144 
z
" clip-path="url(#p551fe3cd39)" style="fill: #aec7e8"/>
   </g>
   <g id="PolyCollection_3">
    <path d="M 62.433665 73.550464 
L 62.433665 143.06144 
L 71.496602 142.121745 
L 80.559539 141.287345 
L 89.622476 140.551701 
L 98.685413 139.908276 
L 107.74835 139.350535 
L 116.811287 138.87194 
L 125.874224 138.465954 
L 134.937161 138.126041 
L 144.000098 137.845663 
L 153.063035 137.618285 
L 162.125972 137.437369 
L 171.18891 137.296378 
L 180.251847 137.188777 
L 189.314784 137.108027 
L 198.377721 137.047592 
L 207.440658 137.000935 
L 216.503595 136.96152 
L 225.566532 136.922809 
L 234.629469 136.878267 
L 243.692406 136.821355 
L 252.755343 136.745538 
L 261.81828 136.644279 
L 270.881217 136.51104 
L 279.944154 136.339285 
L 289.007091 136.122478 
L 298.070028 135.85408 
L 307.132965 135.527557 
L 316.195903 135.13637 
L 325.25884 134.673983 
L 334.321777 134.133859 
L 343.384714 133.509462 
L 352.447651 132.794255 
L 361.510588 131.9817 
L 370.573525 131.065261 
L 379.636462 130.038402 
L 388.699399 128.894585 
L 397.762336 127.627273 
L 406.825273 126.229931 
L 415.88821 124.696021 
L 415.88821 76.219856 
L 415.88821 76.219856 
L 406.825273 74.972058 
L 397.762336 73.75726 
L 388.699399 72.577819 
L 379.636462 71.436092 
L 370.573525 70.334436 
L 361.510588 69.275208 
L 352.447651 68.260766 
L 343.384714 67.293467 
L 334.321777 66.375667 
L 325.25884 65.509725 
L 316.195903 64.697996 
L 307.132965 63.942839 
L 298.070028 63.24661 
L 289.007091 62.611666 
L 279.944154 62.040365 
L 270.881217 61.535064 
L 261.81828 61.09812 
L 252.755343 60.731889 
L 243.692406 60.43873 
L 234.629469 60.220999 
L 225.566532 60.081053 
L 216.503595 60.02125 
L 207.440658 60.043947 
L 198.377721 60.1515 
L 189.314784 60.346267 
L 180.251847 60.630605 
L 171.18891 61.006872 
L 162.125972 61.477424 
L 153.063035 62.044618 
L 144.000098 62.710812 
L 134.937161 63.478362 
L 125.874224 64.349626 
L 116.811287 65.326962 
L 107.74835 66.412725 
L 98.685413 67.609274 
L 89.622476 68.918965 
L 80.559539 70.344156 
L 71.496602 71.887203 
L 62.433665 73.550464 
z
" clip-path="url(#p551fe3cd39)" style="fill: #ff7f0e"/>
   </g>
   <g id="matplotlib.axis_1">
    <g id="xtick_1">
     <g id="line2d_1">
      <defs>
       <path id="mc211a3abd5" d="M 0 0 
L 0 3.5 
" style="stroke: #000000; stroke-width: 0.8"/>
      </defs>
      <g>
       <use xlink:href="#mc211a3abd5" x="62.433665" y="314.12125" style="stroke: #000000; stroke-width: 0.8"/>
      </g>
     </g>
     <g id="text_1">
      <!-- 1985 -->
      <g transform="translate(46.778984 340.173358) rotate(-45) scale(0.1 -0.1)">
       <defs>
        <path id="TimesNewRomanPSMT-31" d="M 750 3822 
L 1781 4325 
L 1884 4325 
L 1884 747 
Q 1884 391 1914 303 
Q 1944 216 2037 169 
Q 2131 122 2419 116 
L 2419 0 
L 825 0 
L 825 116 
Q 1125 122 1212 167 
Q 1300 213 1334 289 
Q 1369 366 1369 747 
L 1369 3034 
Q 1369 3497 1338 3628 
Q 1316 3728 1258 3775 
Q 1200 3822 1119 3822 
Q 1003 3822 797 3725 
L 750 3822 
z
" transform="scale(0.015625)"/>
        <path id="TimesNewRomanPSMT-39" d="M 338 -88 
L 338 28 
Q 744 34 1094 217 
Q 1444 400 1770 856 
Q 2097 1313 2225 1859 
Q 1734 1544 1338 1544 
Q 891 1544 572 1889 
Q 253 2234 253 2806 
Q 253 3363 572 3797 
Q 956 4325 1575 4325 
Q 2097 4325 2469 3894 
Q 2925 3359 2925 2575 
Q 2925 1869 2578 1258 
Q 2231 647 1613 244 
Q 1109 -88 516 -88 
L 338 -88 
z
M 2275 2091 
Q 2331 2497 2331 2741 
Q 2331 3044 2228 3395 
Q 2125 3747 1936 3934 
Q 1747 4122 1506 4122 
Q 1228 4122 1018 3872 
Q 809 3622 809 3128 
Q 809 2469 1088 2097 
Q 1291 1828 1588 1828 
Q 1731 1828 1928 1897 
Q 2125 1966 2275 2091 
z
" transform="scale(0.015625)"/>
        <path id="TimesNewRomanPSMT-38" d="M 1228 2134 
Q 725 2547 579 2797 
Q 434 3047 434 3316 
Q 434 3728 753 4026 
Q 1072 4325 1600 4325 
Q 2113 4325 2425 4047 
Q 2738 3769 2738 3413 
Q 2738 3175 2569 2928 
Q 2400 2681 1866 2347 
Q 2416 1922 2594 1678 
Q 2831 1359 2831 1006 
Q 2831 559 2490 242 
Q 2150 -75 1597 -75 
Q 994 -75 656 303 
Q 388 606 388 966 
Q 388 1247 577 1523 
Q 766 1800 1228 2134 
z
M 1719 2469 
Q 2094 2806 2194 3001 
Q 2294 3197 2294 3444 
Q 2294 3772 2109 3958 
Q 1925 4144 1606 4144 
Q 1288 4144 1088 3959 
Q 888 3775 888 3528 
Q 888 3366 970 3203 
Q 1053 3041 1206 2894 
L 1719 2469 
z
M 1375 2016 
Q 1116 1797 991 1539 
Q 866 1281 866 981 
Q 866 578 1086 336 
Q 1306 94 1647 94 
Q 1984 94 2187 284 
Q 2391 475 2391 747 
Q 2391 972 2272 1150 
Q 2050 1481 1375 2016 
z
" transform="scale(0.015625)"/>
        <path id="TimesNewRomanPSMT-35" d="M 2778 4238 
L 2534 3706 
L 1259 3706 
L 981 3138 
Q 1809 3016 2294 2522 
Q 2709 2097 2709 1522 
Q 2709 1188 2573 903 
Q 2438 619 2231 419 
Q 2025 219 1772 97 
Q 1413 -75 1034 -75 
Q 653 -75 479 54 
Q 306 184 306 341 
Q 306 428 378 495 
Q 450 563 559 563 
Q 641 563 702 538 
Q 763 513 909 409 
Q 1144 247 1384 247 
Q 1750 247 2026 523 
Q 2303 800 2303 1197 
Q 2303 1581 2056 1914 
Q 1809 2247 1375 2428 
Q 1034 2569 447 2591 
L 1259 4238 
L 2778 4238 
z
" transform="scale(0.015625)"/>
       </defs>
       <use xlink:href="#TimesNewRomanPSMT-31"/>
       <use xlink:href="#TimesNewRomanPSMT-39" x="50"/>
       <use xlink:href="#TimesNewRomanPSMT-38" x="100"/>
       <use xlink:href="#TimesNewRomanPSMT-35" x="150"/>
      </g>
     </g>
    </g>
    <g id="xtick_2">
     <g id="line2d_2">
      <g>
       <use xlink:href="#mc211a3abd5" x="180.251847" y="314.12125" style="stroke: #000000; stroke-width: 0.8"/>
      </g>
     </g>
     <g id="text_2">
      <!-- 1986 -->
      <g transform="translate(164.597165 340.173358) rotate(-45) scale(0.1 -0.1)">
       <defs>
        <path id="TimesNewRomanPSMT-36" d="M 2869 4325 
L 2869 4209 
Q 2456 4169 2195 4045 
Q 1934 3922 1679 3669 
Q 1425 3416 1258 3105 
Q 1091 2794 978 2366 
Q 1428 2675 1881 2675 
Q 2316 2675 2634 2325 
Q 2953 1975 2953 1425 
Q 2953 894 2631 456 
Q 2244 -75 1606 -75 
Q 1172 -75 869 213 
Q 275 772 275 1663 
Q 275 2231 503 2743 
Q 731 3256 1154 3653 
Q 1578 4050 1965 4187 
Q 2353 4325 2688 4325 
L 2869 4325 
z
M 925 2138 
Q 869 1716 869 1456 
Q 869 1156 980 804 
Q 1091 453 1309 247 
Q 1469 100 1697 100 
Q 1969 100 2183 356 
Q 2397 613 2397 1088 
Q 2397 1622 2184 2012 
Q 1972 2403 1581 2403 
Q 1463 2403 1327 2353 
Q 1191 2303 925 2138 
z
" transform="scale(0.015625)"/>
       </defs>
       <use xlink:href="#TimesNewRomanPSMT-31"/>
       <use xlink:href="#TimesNewRomanPSMT-39" x="50"/>
       <use xlink:href="#TimesNewRomanPSMT-38" x="100"/>
       <use xlink:href="#TimesNewRomanPSMT-36" x="150"/>
      </g>
     </g>
    </g>
    <g id="xtick_3">
     <g id="line2d_3">
      <g>
       <use xlink:href="#mc211a3abd5" x="298.070028" y="314.12125" style="stroke: #000000; stroke-width: 0.8"/>
      </g>
     </g>
     <g id="text_3">
      <!-- 1987 -->
      <g transform="translate(282.415347 340.173358) rotate(-45) scale(0.1 -0.1)">
       <defs>
        <path id="TimesNewRomanPSMT-37" d="M 644 4238 
L 2916 4238 
L 2916 4119 
L 1503 -88 
L 1153 -88 
L 2419 3728 
L 1253 3728 
Q 900 3728 750 3644 
Q 488 3500 328 3200 
L 238 3234 
L 644 4238 
z
" transform="scale(0.015625)"/>
       </defs>
       <use xlink:href="#TimesNewRomanPSMT-31"/>
       <use xlink:href="#TimesNewRomanPSMT-39" x="50"/>
       <use xlink:href="#TimesNewRomanPSMT-38" x="100"/>
       <use xlink:href="#TimesNewRomanPSMT-37" x="150"/>
      </g>
     </g>
    </g>
    <g id="xtick_4">
     <g id="line2d_4">
      <g>
       <use xlink:href="#mc211a3abd5" x="415.88821" y="314.12125" style="stroke: #000000; stroke-width: 0.8"/>
      </g>
     </g>
     <g id="text_4">
      <!-- 1988 -->
      <g transform="translate(400.233529 340.173358) rotate(-45) scale(0.1 -0.1)">
       <use xlink:href="#TimesNewRomanPSMT-31"/>
       <use xlink:href="#TimesNewRomanPSMT-39" x="50"/>
       <use xlink:href="#TimesNewRomanPSMT-38" x="100"/>
       <use xlink:href="#TimesNewRomanPSMT-38" x="150"/>
      </g>
     </g>
    </g>
    <g id="text_5">
     <!-- Year -->
     <g transform="translate(228.103125 354.018404) scale(0.12 -0.12)">
      <defs>
       <path id="TimesNewRomanPSMT-59" d="M 3050 4238 
L 4528 4238 
L 4528 4122 
L 4447 4122 
Q 4366 4122 4209 4050 
Q 4053 3978 3925 3843 
Q 3797 3709 3609 3406 
L 2588 1797 
L 2588 734 
Q 2588 344 2675 247 
Q 2794 116 3050 116 
L 3188 116 
L 3188 0 
L 1388 0 
L 1388 116 
L 1538 116 
Q 1806 116 1919 278 
Q 1988 378 1988 734 
L 1988 1738 
L 825 3513 
Q 619 3825 545 3903 
Q 472 3981 241 4091 
Q 178 4122 59 4122 
L 59 4238 
L 1872 4238 
L 1872 4122 
L 1778 4122 
Q 1631 4122 1507 4053 
Q 1384 3984 1384 3847 
Q 1384 3734 1575 3441 
L 2459 2075 
L 3291 3381 
Q 3478 3675 3478 3819 
Q 3478 3906 3433 3975 
Q 3388 4044 3303 4083 
Q 3219 4122 3050 4122 
L 3050 4238 
z
" transform="scale(0.015625)"/>
       <path id="TimesNewRomanPSMT-65" d="M 681 1784 
Q 678 1147 991 784 
Q 1303 422 1725 422 
Q 2006 422 2214 576 
Q 2422 731 2563 1106 
L 2659 1044 
Q 2594 616 2278 264 
Q 1963 -88 1488 -88 
Q 972 -88 605 314 
Q 238 716 238 1394 
Q 238 2128 614 2539 
Q 991 2950 1559 2950 
Q 2041 2950 2350 2633 
Q 2659 2316 2659 1784 
L 681 1784 
z
M 681 1966 
L 2006 1966 
Q 1991 2241 1941 2353 
Q 1863 2528 1708 2628 
Q 1553 2728 1384 2728 
Q 1125 2728 920 2526 
Q 716 2325 681 1966 
z
" transform="scale(0.015625)"/>
       <path id="TimesNewRomanPSMT-61" d="M 1822 413 
Q 1381 72 1269 19 
Q 1100 -59 909 -59 
Q 613 -59 420 144 
Q 228 347 228 678 
Q 228 888 322 1041 
Q 450 1253 767 1440 
Q 1084 1628 1822 1897 
L 1822 2009 
Q 1822 2438 1686 2597 
Q 1550 2756 1291 2756 
Q 1094 2756 978 2650 
Q 859 2544 859 2406 
L 866 2225 
Q 866 2081 792 2003 
Q 719 1925 600 1925 
Q 484 1925 411 2006 
Q 338 2088 338 2228 
Q 338 2497 613 2722 
Q 888 2947 1384 2947 
Q 1766 2947 2009 2819 
Q 2194 2722 2281 2516 
Q 2338 2381 2338 1966 
L 2338 994 
Q 2338 584 2353 492 
Q 2369 400 2405 369 
Q 2441 338 2488 338 
Q 2538 338 2575 359 
Q 2641 400 2828 588 
L 2828 413 
Q 2478 -56 2159 -56 
Q 2006 -56 1915 50 
Q 1825 156 1822 413 
z
M 1822 616 
L 1822 1706 
Q 1350 1519 1213 1441 
Q 966 1303 859 1153 
Q 753 1003 753 825 
Q 753 600 887 451 
Q 1022 303 1197 303 
Q 1434 303 1822 616 
z
" transform="scale(0.015625)"/>
       <path id="TimesNewRomanPSMT-72" d="M 1038 2947 
L 1038 2303 
Q 1397 2947 1775 2947 
Q 1947 2947 2059 2842 
Q 2172 2738 2172 2600 
Q 2172 2478 2090 2393 
Q 2009 2309 1897 2309 
Q 1788 2309 1652 2417 
Q 1516 2525 1450 2525 
Q 1394 2525 1328 2463 
Q 1188 2334 1038 2041 
L 1038 669 
Q 1038 431 1097 309 
Q 1138 225 1241 169 
Q 1344 113 1538 113 
L 1538 0 
L 72 0 
L 72 113 
Q 291 113 397 181 
Q 475 231 506 341 
Q 522 394 522 644 
L 522 1753 
Q 522 2253 501 2348 
Q 481 2444 426 2487 
Q 372 2531 291 2531 
Q 194 2531 72 2484 
L 41 2597 
L 906 2947 
L 1038 2947 
z
" transform="scale(0.015625)"/>
      </defs>
      <use xlink:href="#TimesNewRomanPSMT-59"/>
      <use xlink:href="#TimesNewRomanPSMT-65" x="62.216797"/>
      <use xlink:href="#TimesNewRomanPSMT-61" x="106.601562"/>
      <use xlink:href="#TimesNewRomanPSMT-72" x="150.986328"/>
     </g>
    </g>
   </g>
   <g id="matplotlib.axis_2">
    <g id="ytick_1">
     <g id="line2d_5">
      <defs>
       <path id="mddba182904" d="M 0 0 
L -3.5 0 
" style="stroke: #000000; stroke-width: 0.8"/>
      </defs>
      <g>
       <use xlink:href="#mddba182904" x="44.760938" y="282.296942" style="stroke: #000000; stroke-width: 0.8"/>
      </g>
     </g>
     <g id="text_6">
      <!-- −10 -->
      <g transform="translate(22.121875 285.768817) scale(0.1 -0.1)">
       <defs>
        <path id="TimesNewRomanPSMT-2212" d="M 3484 2000 
L 116 2000 
L 116 2256 
L 3484 2256 
L 3484 2000 
z
" transform="scale(0.015625)"/>
        <path id="TimesNewRomanPSMT-30" d="M 231 2094 
Q 231 2819 450 3342 
Q 669 3866 1031 4122 
Q 1313 4325 1613 4325 
Q 2100 4325 2488 3828 
Q 2972 3213 2972 2159 
Q 2972 1422 2759 906 
Q 2547 391 2217 158 
Q 1888 -75 1581 -75 
Q 975 -75 572 641 
Q 231 1244 231 2094 
z
M 844 2016 
Q 844 1141 1059 588 
Q 1238 122 1591 122 
Q 1759 122 1940 273 
Q 2122 425 2216 781 
Q 2359 1319 2359 2297 
Q 2359 3022 2209 3506 
Q 2097 3866 1919 4016 
Q 1791 4119 1609 4119 
Q 1397 4119 1231 3928 
Q 1006 3669 925 3112 
Q 844 2556 844 2016 
z
" transform="scale(0.015625)"/>
       </defs>
       <use xlink:href="#TimesNewRomanPSMT-2212"/>
       <use xlink:href="#TimesNewRomanPSMT-31" x="56.396484"/>
       <use xlink:href="#TimesNewRomanPSMT-30" x="106.396484"/>
      </g>
     </g>
    </g>
    <g id="ytick_2">
     <g id="line2d_6">
      <g>
       <use xlink:href="#mddba182904" x="44.760938" y="228.909096" style="stroke: #000000; stroke-width: 0.8"/>
      </g>
     </g>
     <g id="text_7">
      <!-- −5 -->
      <g transform="translate(27.121875 232.380971) scale(0.1 -0.1)">
       <use xlink:href="#TimesNewRomanPSMT-2212"/>
       <use xlink:href="#TimesNewRomanPSMT-35" x="56.396484"/>
      </g>
     </g>
    </g>
    <g id="ytick_3">
     <g id="line2d_7">
      <g>
       <use xlink:href="#mddba182904" x="44.760938" y="175.52125" style="stroke: #000000; stroke-width: 0.8"/>
      </g>
     </g>
     <g id="text_8">
      <!-- 0 -->
      <g transform="translate(32.760938 178.993125) scale(0.1 -0.1)">
       <use xlink:href="#TimesNewRomanPSMT-30"/>
      </g>
     </g>
    </g>
    <g id="ytick_4">
     <g id="line2d_8">
      <g>
       <use xlink:href="#mddba182904" x="44.760938" y="122.133404" style="stroke: #000000; stroke-width: 0.8"/>
      </g>
     </g>
     <g id="text_9">
      <!-- 5 -->
      <g transform="translate(32.760938 125.605279) scale(0.1 -0.1)">
       <use xlink:href="#TimesNewRomanPSMT-35"/>
      </g>
     </g>
    </g>
    <g id="ytick_5">
     <g id="line2d_9">
      <g>
       <use xlink:href="#mddba182904" x="44.760938" y="68.745558" style="stroke: #000000; stroke-width: 0.8"/>
      </g>
     </g>
     <g id="text_10">
      <!-- 10 -->
      <g transform="translate(27.760938 72.217433) scale(0.1 -0.1)">
       <use xlink:href="#TimesNewRomanPSMT-31"/>
       <use xlink:href="#TimesNewRomanPSMT-30" x="50"/>
      </g>
     </g>
    </g>
    <g id="text_11">
     <!-- Inventory Turnover (times/year) -->
     <g transform="translate(15.5325 252.8425) rotate(-90) scale(0.12 -0.12)">
      <defs>
       <path id="TimesNewRomanPSMT-49" d="M 1975 116 
L 1975 0 
L 159 0 
L 159 116 
L 309 116 
Q 572 116 691 269 
Q 766 369 766 750 
L 766 3488 
Q 766 3809 725 3913 
Q 694 3991 597 4047 
Q 459 4122 309 4122 
L 159 4122 
L 159 4238 
L 1975 4238 
L 1975 4122 
L 1822 4122 
Q 1563 4122 1444 3969 
Q 1366 3869 1366 3488 
L 1366 750 
Q 1366 428 1406 325 
Q 1438 247 1538 191 
Q 1672 116 1822 116 
L 1975 116 
z
" transform="scale(0.015625)"/>
       <path id="TimesNewRomanPSMT-6e" d="M 1034 2341 
Q 1538 2947 1994 2947 
Q 2228 2947 2397 2830 
Q 2566 2713 2666 2444 
Q 2734 2256 2734 1869 
L 2734 647 
Q 2734 375 2778 278 
Q 2813 200 2889 156 
Q 2966 113 3172 113 
L 3172 0 
L 1756 0 
L 1756 113 
L 1816 113 
Q 2016 113 2095 173 
Q 2175 234 2206 353 
Q 2219 400 2219 647 
L 2219 1819 
Q 2219 2209 2117 2386 
Q 2016 2563 1775 2563 
Q 1403 2563 1034 2156 
L 1034 647 
Q 1034 356 1069 288 
Q 1113 197 1189 155 
Q 1266 113 1500 113 
L 1500 0 
L 84 0 
L 84 113 
L 147 113 
Q 366 113 442 223 
Q 519 334 519 647 
L 519 1709 
Q 519 2225 495 2337 
Q 472 2450 423 2490 
Q 375 2531 294 2531 
Q 206 2531 84 2484 
L 38 2597 
L 900 2947 
L 1034 2947 
L 1034 2341 
z
" transform="scale(0.015625)"/>
       <path id="TimesNewRomanPSMT-76" d="M 53 2863 
L 1400 2863 
L 1400 2747 
L 1313 2747 
Q 1191 2747 1127 2687 
Q 1063 2628 1063 2528 
Q 1063 2419 1128 2269 
L 1794 688 
L 2463 2328 
Q 2534 2503 2534 2594 
Q 2534 2638 2509 2666 
Q 2475 2713 2422 2730 
Q 2369 2747 2206 2747 
L 2206 2863 
L 3141 2863 
L 3141 2747 
Q 2978 2734 2916 2681 
Q 2806 2588 2719 2369 
L 1703 -88 
L 1575 -88 
L 553 2328 
Q 484 2497 421 2570 
Q 359 2644 263 2694 
Q 209 2722 53 2747 
L 53 2863 
z
" transform="scale(0.015625)"/>
       <path id="TimesNewRomanPSMT-74" d="M 1031 3803 
L 1031 2863 
L 1700 2863 
L 1700 2644 
L 1031 2644 
L 1031 788 
Q 1031 509 1111 412 
Q 1191 316 1316 316 
Q 1419 316 1516 380 
Q 1613 444 1666 569 
L 1788 569 
Q 1678 263 1478 108 
Q 1278 -47 1066 -47 
Q 922 -47 784 33 
Q 647 113 581 261 
Q 516 409 516 719 
L 516 2644 
L 63 2644 
L 63 2747 
Q 234 2816 414 2980 
Q 594 3144 734 3369 
Q 806 3488 934 3803 
L 1031 3803 
z
" transform="scale(0.015625)"/>
       <path id="TimesNewRomanPSMT-6f" d="M 1600 2947 
Q 2250 2947 2644 2453 
Q 2978 2031 2978 1484 
Q 2978 1100 2793 706 
Q 2609 313 2286 112 
Q 1963 -88 1566 -88 
Q 919 -88 538 428 
Q 216 863 216 1403 
Q 216 1797 411 2186 
Q 606 2575 925 2761 
Q 1244 2947 1600 2947 
z
M 1503 2744 
Q 1338 2744 1170 2645 
Q 1003 2547 900 2300 
Q 797 2053 797 1666 
Q 797 1041 1045 587 
Q 1294 134 1700 134 
Q 2003 134 2200 384 
Q 2397 634 2397 1244 
Q 2397 2006 2069 2444 
Q 1847 2744 1503 2744 
z
" transform="scale(0.015625)"/>
       <path id="TimesNewRomanPSMT-79" d="M 38 2863 
L 1372 2863 
L 1372 2747 
L 1306 2747 
Q 1166 2747 1095 2686 
Q 1025 2625 1025 2534 
Q 1025 2413 1128 2197 
L 1825 753 
L 2466 2334 
Q 2519 2463 2519 2588 
Q 2519 2644 2497 2672 
Q 2472 2706 2419 2726 
Q 2366 2747 2231 2747 
L 2231 2863 
L 3163 2863 
L 3163 2747 
Q 3047 2734 2984 2696 
Q 2922 2659 2847 2556 
Q 2819 2513 2741 2316 
L 1575 -541 
Q 1406 -956 1132 -1168 
Q 859 -1381 606 -1381 
Q 422 -1381 303 -1275 
Q 184 -1169 184 -1031 
Q 184 -900 270 -820 
Q 356 -741 506 -741 
Q 609 -741 788 -809 
Q 913 -856 944 -856 
Q 1038 -856 1148 -759 
Q 1259 -663 1372 -384 
L 1575 113 
L 547 2272 
Q 500 2369 397 2513 
Q 319 2622 269 2659 
Q 197 2709 38 2747 
L 38 2863 
z
" transform="scale(0.015625)"/>
       <path id="TimesNewRomanPSMT-20" transform="scale(0.015625)"/>
       <path id="TimesNewRomanPSMT-54" d="M 3703 4238 
L 3750 3244 
L 3631 3244 
Q 3597 3506 3538 3619 
Q 3441 3800 3280 3886 
Q 3119 3972 2856 3972 
L 2259 3972 
L 2259 734 
Q 2259 344 2344 247 
Q 2463 116 2709 116 
L 2856 116 
L 2856 0 
L 1059 0 
L 1059 116 
L 1209 116 
Q 1478 116 1591 278 
Q 1659 378 1659 734 
L 1659 3972 
L 1150 3972 
Q 853 3972 728 3928 
Q 566 3869 450 3700 
Q 334 3531 313 3244 
L 194 3244 
L 244 4238 
L 3703 4238 
z
" transform="scale(0.015625)"/>
       <path id="TimesNewRomanPSMT-75" d="M 2709 2863 
L 2709 1128 
Q 2709 631 2732 520 
Q 2756 409 2807 365 
Q 2859 322 2928 322 
Q 3025 322 3147 375 
L 3191 266 
L 2334 -88 
L 2194 -88 
L 2194 519 
Q 1825 119 1631 15 
Q 1438 -88 1222 -88 
Q 981 -88 804 51 
Q 628 191 559 409 
Q 491 628 491 1028 
L 491 2306 
Q 491 2509 447 2587 
Q 403 2666 317 2708 
Q 231 2750 6 2747 
L 6 2863 
L 1009 2863 
L 1009 947 
Q 1009 547 1148 422 
Q 1288 297 1484 297 
Q 1619 297 1789 381 
Q 1959 466 2194 703 
L 2194 2325 
Q 2194 2569 2105 2655 
Q 2016 2741 1734 2747 
L 1734 2863 
L 2709 2863 
z
" transform="scale(0.015625)"/>
       <path id="TimesNewRomanPSMT-28" d="M 1988 -1253 
L 1988 -1369 
Q 1516 -1131 1200 -813 
Q 750 -359 506 256 
Q 263 872 263 1534 
Q 263 2503 741 3301 
Q 1219 4100 1988 4444 
L 1988 4313 
Q 1603 4100 1356 3731 
Q 1109 3363 987 2797 
Q 866 2231 866 1616 
Q 866 947 969 400 
Q 1050 -31 1165 -292 
Q 1281 -553 1476 -793 
Q 1672 -1034 1988 -1253 
z
" transform="scale(0.015625)"/>
       <path id="TimesNewRomanPSMT-69" d="M 928 4444 
Q 1059 4444 1151 4351 
Q 1244 4259 1244 4128 
Q 1244 3997 1151 3903 
Q 1059 3809 928 3809 
Q 797 3809 703 3903 
Q 609 3997 609 4128 
Q 609 4259 701 4351 
Q 794 4444 928 4444 
z
M 1188 2947 
L 1188 647 
Q 1188 378 1227 289 
Q 1266 200 1342 156 
Q 1419 113 1622 113 
L 1622 0 
L 231 0 
L 231 113 
Q 441 113 512 153 
Q 584 194 626 287 
Q 669 381 669 647 
L 669 1750 
Q 669 2216 641 2353 
Q 619 2453 572 2492 
Q 525 2531 444 2531 
Q 356 2531 231 2484 
L 188 2597 
L 1050 2947 
L 1188 2947 
z
" transform="scale(0.015625)"/>
       <path id="TimesNewRomanPSMT-6d" d="M 1050 2338 
Q 1363 2650 1419 2697 
Q 1559 2816 1721 2881 
Q 1884 2947 2044 2947 
Q 2313 2947 2506 2790 
Q 2700 2634 2766 2338 
Q 3088 2713 3309 2830 
Q 3531 2947 3766 2947 
Q 3994 2947 4170 2830 
Q 4347 2713 4450 2447 
Q 4519 2266 4519 1878 
L 4519 647 
Q 4519 378 4559 278 
Q 4591 209 4675 161 
Q 4759 113 4950 113 
L 4950 0 
L 3538 0 
L 3538 113 
L 3597 113 
Q 3781 113 3884 184 
Q 3956 234 3988 344 
Q 4000 397 4000 647 
L 4000 1878 
Q 4000 2228 3916 2372 
Q 3794 2572 3525 2572 
Q 3359 2572 3192 2489 
Q 3025 2406 2788 2181 
L 2781 2147 
L 2788 2013 
L 2788 647 
Q 2788 353 2820 281 
Q 2853 209 2943 161 
Q 3034 113 3253 113 
L 3253 0 
L 1806 0 
L 1806 113 
Q 2044 113 2133 169 
Q 2222 225 2256 338 
Q 2272 391 2272 647 
L 2272 1878 
Q 2272 2228 2169 2381 
Q 2031 2581 1784 2581 
Q 1616 2581 1450 2491 
Q 1191 2353 1050 2181 
L 1050 647 
Q 1050 366 1089 281 
Q 1128 197 1204 155 
Q 1281 113 1516 113 
L 1516 0 
L 100 0 
L 100 113 
Q 297 113 375 155 
Q 453 197 493 289 
Q 534 381 534 647 
L 534 1741 
Q 534 2213 506 2350 
Q 484 2453 437 2492 
Q 391 2531 309 2531 
Q 222 2531 100 2484 
L 53 2597 
L 916 2947 
L 1050 2947 
L 1050 2338 
z
" transform="scale(0.015625)"/>
       <path id="TimesNewRomanPSMT-73" d="M 2050 2947 
L 2050 1972 
L 1947 1972 
Q 1828 2431 1642 2597 
Q 1456 2763 1169 2763 
Q 950 2763 815 2647 
Q 681 2531 681 2391 
Q 681 2216 781 2091 
Q 878 1963 1175 1819 
L 1631 1597 
Q 2266 1288 2266 781 
Q 2266 391 1970 151 
Q 1675 -88 1309 -88 
Q 1047 -88 709 6 
Q 606 38 541 38 
Q 469 38 428 -44 
L 325 -44 
L 325 978 
L 428 978 
Q 516 541 762 319 
Q 1009 97 1316 97 
Q 1531 97 1667 223 
Q 1803 350 1803 528 
Q 1803 744 1651 891 
Q 1500 1038 1047 1263 
Q 594 1488 453 1669 
Q 313 1847 313 2119 
Q 313 2472 555 2709 
Q 797 2947 1181 2947 
Q 1350 2947 1591 2875 
Q 1750 2828 1803 2828 
Q 1853 2828 1881 2850 
Q 1909 2872 1947 2947 
L 2050 2947 
z
" transform="scale(0.015625)"/>
       <path id="TimesNewRomanPSMT-2f" d="M 1794 4444 
L 259 -88 
L 9 -88 
L 1544 4444 
L 1794 4444 
z
" transform="scale(0.015625)"/>
       <path id="TimesNewRomanPSMT-29" d="M 144 4313 
L 144 4444 
Q 619 4209 934 3891 
Q 1381 3434 1625 2820 
Q 1869 2206 1869 1541 
Q 1869 572 1392 -226 
Q 916 -1025 144 -1369 
L 144 -1253 
Q 528 -1038 776 -670 
Q 1025 -303 1145 264 
Q 1266 831 1266 1447 
Q 1266 2113 1163 2663 
Q 1084 3094 967 3353 
Q 850 3613 656 3853 
Q 463 4094 144 4313 
z
" transform="scale(0.015625)"/>
      </defs>
      <use xlink:href="#TimesNewRomanPSMT-49"/>
      <use xlink:href="#TimesNewRomanPSMT-6e" x="33.300781"/>
      <use xlink:href="#TimesNewRomanPSMT-76" x="83.300781"/>
      <use xlink:href="#TimesNewRomanPSMT-65" x="133.300781"/>
      <use xlink:href="#TimesNewRomanPSMT-6e" x="177.685547"/>
      <use xlink:href="#TimesNewRomanPSMT-74" x="227.685547"/>
      <use xlink:href="#TimesNewRomanPSMT-6f" x="255.46875"/>
      <use xlink:href="#TimesNewRomanPSMT-72" x="305.46875"/>
      <use xlink:href="#TimesNewRomanPSMT-79" x="338.769531"/>
      <use xlink:href="#TimesNewRomanPSMT-20" x="388.769531"/>
      <use xlink:href="#TimesNewRomanPSMT-54" x="412.019531"/>
      <use xlink:href="#TimesNewRomanPSMT-75" x="469.603516"/>
      <use xlink:href="#TimesNewRomanPSMT-72" x="519.603516"/>
      <use xlink:href="#TimesNewRomanPSMT-6e" x="552.904297"/>
      <use xlink:href="#TimesNewRomanPSMT-6f" x="602.904297"/>
      <use xlink:href="#TimesNewRomanPSMT-76" x="652.904297"/>
      <use xlink:href="#TimesNewRomanPSMT-65" x="702.904297"/>
      <use xlink:href="#TimesNewRomanPSMT-72" x="747.289062"/>
      <use xlink:href="#TimesNewRomanPSMT-20" x="780.589844"/>
      <use xlink:href="#TimesNewRomanPSMT-28" x="805.589844"/>
      <use xlink:href="#TimesNewRomanPSMT-74" x="838.890625"/>
      <use xlink:href="#TimesNewRomanPSMT-69" x="866.673828"/>
      <use xlink:href="#TimesNewRomanPSMT-6d" x="894.457031"/>
      <use xlink:href="#TimesNewRomanPSMT-65" x="972.240234"/>
      <use xlink:href="#TimesNewRomanPSMT-73" x="1016.625"/>
      <use xlink:href="#TimesNewRomanPSMT-2f" x="1055.541016"/>
      <use xlink:href="#TimesNewRomanPSMT-79" x="1083.324219"/>
      <use xlink:href="#TimesNewRomanPSMT-65" x="1133.324219"/>
      <use xlink:href="#TimesNewRomanPSMT-61" x="1177.708984"/>
      <use xlink:href="#TimesNewRomanPSMT-72" x="1222.09375"/>
      <use xlink:href="#TimesNewRomanPSMT-29" x="1255.394531"/>
     </g>
    </g>
   </g>
   <g id="patch_3">
    <path d="M 44.760938 314.12125 
L 44.760938 36.92125 
" style="fill: none; stroke: #000000; stroke-width: 0.8; stroke-linejoin: miter; stroke-linecap: square"/>
   </g>
   <g id="patch_4">
    <path d="M 433.560938 314.12125 
L 433.560938 36.92125 
" style="fill: none; stroke: #000000; stroke-width: 0.8; stroke-linejoin: miter; stroke-linecap: square"/>
   </g>
   <g id="patch_5">
    <path d="M 44.760937 314.12125 
L 433.560938 314.12125 
" style="fill: none; stroke: #000000; stroke-width: 0.8; stroke-linejoin: miter; stroke-linecap: square"/>
   </g>
   <g id="patch_6">
    <path d="M 44.760937 36.92125 
L 433.560938 36.92125 
" style="fill: none; stroke: #000000; stroke-width: 0.8; stroke-linejoin: miter; stroke-linecap: square"/>
   </g>
   <g id="text_12">
    <!-- Inventory Turnover from 1985 to 1988 (times/year)  -->
    <g transform="translate(93.151875 16.92125) scale(0.14 -0.14)">
     <defs>
      <path id="TimesNewRomanPSMT-66" d="M 1319 2638 
L 1319 756 
Q 1319 356 1406 250 
Q 1522 113 1716 113 
L 1975 113 
L 1975 0 
L 266 0 
L 266 113 
L 394 113 
Q 519 113 622 175 
Q 725 238 764 344 
Q 803 450 803 756 
L 803 2638 
L 247 2638 
L 247 2863 
L 803 2863 
L 803 3050 
Q 803 3478 940 3775 
Q 1078 4072 1361 4255 
Q 1644 4438 1997 4438 
Q 2325 4438 2600 4225 
Q 2781 4084 2781 3909 
Q 2781 3816 2700 3733 
Q 2619 3650 2525 3650 
Q 2453 3650 2373 3701 
Q 2294 3753 2178 3923 
Q 2063 4094 1966 4153 
Q 1869 4213 1750 4213 
Q 1606 4213 1506 4136 
Q 1406 4059 1362 3898 
Q 1319 3738 1319 3069 
L 1319 2863 
L 2056 2863 
L 2056 2638 
L 1319 2638 
z
" transform="scale(0.015625)"/>
     </defs>
     <use xlink:href="#TimesNewRomanPSMT-49"/>
     <use xlink:href="#TimesNewRomanPSMT-6e" x="33.300781"/>
     <use xlink:href="#TimesNewRomanPSMT-76" x="83.300781"/>
     <use xlink:href="#TimesNewRomanPSMT-65" x="133.300781"/>
     <use xlink:href="#TimesNewRomanPSMT-6e" x="177.685547"/>
     <use xlink:href="#TimesNewRomanPSMT-74" x="227.685547"/>
     <use xlink:href="#TimesNewRomanPSMT-6f" x="255.46875"/>
     <use xlink:href="#TimesNewRomanPSMT-72" x="305.46875"/>
     <use xlink:href="#TimesNewRomanPSMT-79" x="338.769531"/>
     <use xlink:href="#TimesNewRomanPSMT-20" x="388.769531"/>
     <use xlink:href="#TimesNewRomanPSMT-54" x="412.019531"/>
     <use xlink:href="#TimesNewRomanPSMT-75" x="469.603516"/>
     <use xlink:href="#TimesNewRomanPSMT-72" x="519.603516"/>
     <use xlink:href="#TimesNewRomanPSMT-6e" x="552.904297"/>
     <use xlink:href="#TimesNewRomanPSMT-6f" x="602.904297"/>
     <use xlink:href="#TimesNewRomanPSMT-76" x="652.904297"/>
     <use xlink:href="#TimesNewRomanPSMT-65" x="702.904297"/>
     <use xlink:href="#TimesNewRomanPSMT-72" x="747.289062"/>
     <use xlink:href="#TimesNewRomanPSMT-20" x="780.589844"/>
     <use xlink:href="#TimesNewRomanPSMT-66" x="805.589844"/>
     <use xlink:href="#TimesNewRomanPSMT-72" x="838.890625"/>
     <use xlink:href="#TimesNewRomanPSMT-6f" x="872.191406"/>
     <use xlink:href="#TimesNewRomanPSMT-6d" x="922.191406"/>
     <use xlink:href="#TimesNewRomanPSMT-20" x="999.974609"/>
     <use xlink:href="#TimesNewRomanPSMT-31" x="1024.974609"/>
     <use xlink:href="#TimesNewRomanPSMT-39" x="1074.974609"/>
     <use xlink:href="#TimesNewRomanPSMT-38" x="1124.974609"/>
     <use xlink:href="#TimesNewRomanPSMT-35" x="1174.974609"/>
     <use xlink:href="#TimesNewRomanPSMT-20" x="1224.974609"/>
     <use xlink:href="#TimesNewRomanPSMT-74" x="1249.974609"/>
     <use xlink:href="#TimesNewRomanPSMT-6f" x="1277.757812"/>
     <use xlink:href="#TimesNewRomanPSMT-20" x="1327.757812"/>
     <use xlink:href="#TimesNewRomanPSMT-31" x="1352.757812"/>
     <use xlink:href="#TimesNewRomanPSMT-39" x="1402.757812"/>
     <use xlink:href="#TimesNewRomanPSMT-38" x="1452.757812"/>
     <use xlink:href="#TimesNewRomanPSMT-38" x="1502.757812"/>
     <use xlink:href="#TimesNewRomanPSMT-20" x="1552.757812"/>
     <use xlink:href="#TimesNewRomanPSMT-28" x="1577.757812"/>
     <use xlink:href="#TimesNewRomanPSMT-74" x="1611.058594"/>
     <use xlink:href="#TimesNewRomanPSMT-69" x="1638.841797"/>
     <use xlink:href="#TimesNewRomanPSMT-6d" x="1666.625"/>
     <use xlink:href="#TimesNewRomanPSMT-65" x="1744.408203"/>
     <use xlink:href="#TimesNewRomanPSMT-73" x="1788.792969"/>
     <use xlink:href="#TimesNewRomanPSMT-2f" x="1827.708984"/>
     <use xlink:href="#TimesNewRomanPSMT-79" x="1855.492188"/>
     <use xlink:href="#TimesNewRomanPSMT-65" x="1905.492188"/>
     <use xlink:href="#TimesNewRomanPSMT-61" x="1949.876953"/>
     <use xlink:href="#TimesNewRomanPSMT-72" x="1994.261719"/>
     <use xlink:href="#TimesNewRomanPSMT-29" x="2027.5625"/>
     <use xlink:href="#TimesNewRomanPSMT-20" x="2060.863281"/>
    </g>
   </g>
   <g id="legend_1">
    <g id="patch_7">
     <path d="M 450.336938 163.812656 
L 470.336938 163.812656 
L 470.336938 156.812656 
L 450.336938 156.812656 
z
" style="fill: #1f77b4"/>
    </g>
    <g id="text_13">
     <!-- Cold Chain Facilities -->
     <g transform="translate(478.336938 163.812656) scale(0.1 -0.1)">
      <defs>
       <path id="TimesNewRomanPSMT-43" d="M 3853 4334 
L 3950 2894 
L 3853 2894 
Q 3659 3541 3300 3825 
Q 2941 4109 2438 4109 
Q 2016 4109 1675 3895 
Q 1334 3681 1139 3212 
Q 944 2744 944 2047 
Q 944 1472 1128 1050 
Q 1313 628 1683 403 
Q 2053 178 2528 178 
Q 2941 178 3256 354 
Q 3572 531 3950 1056 
L 4047 994 
Q 3728 428 3303 165 
Q 2878 -97 2294 -97 
Q 1241 -97 663 684 
Q 231 1266 231 2053 
Q 231 2688 515 3219 
Q 800 3750 1298 4042 
Q 1797 4334 2388 4334 
Q 2847 4334 3294 4109 
Q 3425 4041 3481 4041 
Q 3566 4041 3628 4100 
Q 3709 4184 3744 4334 
L 3853 4334 
z
" transform="scale(0.015625)"/>
       <path id="TimesNewRomanPSMT-6c" d="M 1184 4444 
L 1184 647 
Q 1184 378 1223 290 
Q 1263 203 1344 158 
Q 1425 113 1647 113 
L 1647 0 
L 244 0 
L 244 113 
Q 441 113 512 153 
Q 584 194 625 287 
Q 666 381 666 647 
L 666 3247 
Q 666 3731 644 3842 
Q 622 3953 573 3993 
Q 525 4034 450 4034 
Q 369 4034 244 3984 
L 191 4094 
L 1044 4444 
L 1184 4444 
z
" transform="scale(0.015625)"/>
       <path id="TimesNewRomanPSMT-64" d="M 2222 322 
Q 2013 103 1813 7 
Q 1613 -88 1381 -88 
Q 913 -88 563 304 
Q 213 697 213 1313 
Q 213 1928 600 2439 
Q 988 2950 1597 2950 
Q 1975 2950 2222 2709 
L 2222 3238 
Q 2222 3728 2198 3840 
Q 2175 3953 2125 3993 
Q 2075 4034 2000 4034 
Q 1919 4034 1784 3984 
L 1744 4094 
L 2597 4444 
L 2738 4444 
L 2738 1134 
Q 2738 631 2761 520 
Q 2784 409 2836 365 
Q 2888 322 2956 322 
Q 3041 322 3181 375 
L 3216 266 
L 2366 -88 
L 2222 -88 
L 2222 322 
z
M 2222 541 
L 2222 2016 
Q 2203 2228 2109 2403 
Q 2016 2578 1861 2667 
Q 1706 2756 1559 2756 
Q 1284 2756 1069 2509 
Q 784 2184 784 1559 
Q 784 928 1059 592 
Q 1334 256 1672 256 
Q 1956 256 2222 541 
z
" transform="scale(0.015625)"/>
       <path id="TimesNewRomanPSMT-68" d="M 1041 4444 
L 1041 2350 
Q 1388 2731 1591 2839 
Q 1794 2947 1997 2947 
Q 2241 2947 2416 2812 
Q 2591 2678 2675 2391 
Q 2734 2191 2734 1659 
L 2734 647 
Q 2734 375 2778 275 
Q 2809 200 2884 156 
Q 2959 113 3159 113 
L 3159 0 
L 1753 0 
L 1753 113 
L 1819 113 
Q 2019 113 2097 173 
Q 2175 234 2206 353 
Q 2216 403 2216 647 
L 2216 1659 
Q 2216 2128 2167 2275 
Q 2119 2422 2012 2495 
Q 1906 2569 1756 2569 
Q 1603 2569 1437 2487 
Q 1272 2406 1041 2159 
L 1041 647 
Q 1041 353 1073 281 
Q 1106 209 1195 161 
Q 1284 113 1503 113 
L 1503 0 
L 84 0 
L 84 113 
Q 275 113 384 172 
Q 447 203 484 290 
Q 522 378 522 647 
L 522 3238 
Q 522 3728 498 3840 
Q 475 3953 426 3993 
Q 378 4034 297 4034 
Q 231 4034 84 3984 
L 41 4094 
L 897 4444 
L 1041 4444 
z
" transform="scale(0.015625)"/>
       <path id="TimesNewRomanPSMT-46" d="M 1309 4006 
L 1309 2341 
L 2081 2341 
Q 2347 2341 2470 2458 
Q 2594 2575 2634 2922 
L 2750 2922 
L 2750 1488 
L 2634 1488 
Q 2631 1734 2570 1850 
Q 2509 1966 2401 2023 
Q 2294 2081 2081 2081 
L 1309 2081 
L 1309 750 
Q 1309 428 1350 325 
Q 1381 247 1481 191 
Q 1619 116 1769 116 
L 1922 116 
L 1922 0 
L 103 0 
L 103 116 
L 253 116 
Q 516 116 634 269 
Q 709 369 709 750 
L 709 3488 
Q 709 3809 669 3913 
Q 638 3991 541 4047 
Q 406 4122 253 4122 
L 103 4122 
L 103 4238 
L 3256 4238 
L 3297 3306 
L 3188 3306 
Q 3106 3603 2998 3742 
Q 2891 3881 2733 3943 
Q 2575 4006 2244 4006 
L 1309 4006 
z
" transform="scale(0.015625)"/>
       <path id="TimesNewRomanPSMT-63" d="M 2631 1088 
Q 2516 522 2178 217 
Q 1841 -88 1431 -88 
Q 944 -88 581 321 
Q 219 731 219 1428 
Q 219 2103 620 2525 
Q 1022 2947 1584 2947 
Q 2006 2947 2278 2723 
Q 2550 2500 2550 2259 
Q 2550 2141 2473 2067 
Q 2397 1994 2259 1994 
Q 2075 1994 1981 2113 
Q 1928 2178 1911 2362 
Q 1894 2547 1784 2644 
Q 1675 2738 1481 2738 
Q 1169 2738 978 2506 
Q 725 2200 725 1697 
Q 725 1184 976 792 
Q 1228 400 1656 400 
Q 1963 400 2206 609 
Q 2378 753 2541 1131 
L 2631 1088 
z
" transform="scale(0.015625)"/>
      </defs>
      <use xlink:href="#TimesNewRomanPSMT-43"/>
      <use xlink:href="#TimesNewRomanPSMT-6f" x="66.699219"/>
      <use xlink:href="#TimesNewRomanPSMT-6c" x="116.699219"/>
      <use xlink:href="#TimesNewRomanPSMT-64" x="144.482422"/>
      <use xlink:href="#TimesNewRomanPSMT-20" x="194.482422"/>
      <use xlink:href="#TimesNewRomanPSMT-43" x="219.482422"/>
      <use xlink:href="#TimesNewRomanPSMT-68" x="286.181641"/>
      <use xlink:href="#TimesNewRomanPSMT-61" x="336.181641"/>
      <use xlink:href="#TimesNewRomanPSMT-69" x="380.566406"/>
      <use xlink:href="#TimesNewRomanPSMT-6e" x="408.349609"/>
      <use xlink:href="#TimesNewRomanPSMT-20" x="458.349609"/>
      <use xlink:href="#TimesNewRomanPSMT-46" x="483.349609"/>
      <use xlink:href="#TimesNewRomanPSMT-61" x="538.964844"/>
      <use xlink:href="#TimesNewRomanPSMT-63" x="583.349609"/>
      <use xlink:href="#TimesNewRomanPSMT-69" x="627.734375"/>
      <use xlink:href="#TimesNewRomanPSMT-6c" x="655.517578"/>
      <use xlink:href="#TimesNewRomanPSMT-69" x="683.300781"/>
      <use xlink:href="#TimesNewRomanPSMT-74" x="711.083984"/>
      <use xlink:href="#TimesNewRomanPSMT-69" x="738.867188"/>
      <use xlink:href="#TimesNewRomanPSMT-65" x="766.650391"/>
      <use xlink:href="#TimesNewRomanPSMT-73" x="811.035156"/>
     </g>
    </g>
    <g id="patch_8">
     <path d="M 450.336938 177.951719 
L 470.336938 177.951719 
L 470.336938 170.951719 
L 450.336938 170.951719 
z
" style="fill: #aec7e8"/>
    </g>
    <g id="text_14">
     <!-- Tech Distribution -->
     <g transform="translate(478.336938 177.951719) scale(0.1 -0.1)">
      <defs>
       <path id="TimesNewRomanPSMT-44" d="M 109 0 
L 109 116 
L 269 116 
Q 538 116 650 288 
Q 719 391 719 750 
L 719 3488 
Q 719 3884 631 3984 
Q 509 4122 269 4122 
L 109 4122 
L 109 4238 
L 1834 4238 
Q 2784 4238 3279 4022 
Q 3775 3806 4076 3303 
Q 4378 2800 4378 2141 
Q 4378 1256 3841 663 
Q 3238 0 2003 0 
L 109 0 
z
M 1319 306 
Q 1716 219 1984 219 
Q 2709 219 3187 728 
Q 3666 1238 3666 2109 
Q 3666 2988 3187 3494 
Q 2709 4000 1959 4000 
Q 1678 4000 1319 3909 
L 1319 306 
z
" transform="scale(0.015625)"/>
       <path id="TimesNewRomanPSMT-62" d="M 984 2369 
Q 1400 2947 1881 2947 
Q 2322 2947 2650 2570 
Q 2978 2194 2978 1541 
Q 2978 778 2472 313 
Q 2038 -88 1503 -88 
Q 1253 -88 995 3 
Q 738 94 469 275 
L 469 3241 
Q 469 3728 445 3840 
Q 422 3953 372 3993 
Q 322 4034 247 4034 
Q 159 4034 28 3984 
L -16 4094 
L 844 4444 
L 984 4444 
L 984 2369 
z
M 984 2169 
L 984 456 
Q 1144 300 1314 220 
Q 1484 141 1663 141 
Q 1947 141 2192 453 
Q 2438 766 2438 1363 
Q 2438 1913 2192 2208 
Q 1947 2503 1634 2503 
Q 1469 2503 1303 2419 
Q 1178 2356 984 2169 
z
" transform="scale(0.015625)"/>
      </defs>
      <use xlink:href="#TimesNewRomanPSMT-54"/>
      <use xlink:href="#TimesNewRomanPSMT-65" x="54.083984"/>
      <use xlink:href="#TimesNewRomanPSMT-63" x="98.46875"/>
      <use xlink:href="#TimesNewRomanPSMT-68" x="142.853516"/>
      <use xlink:href="#TimesNewRomanPSMT-20" x="192.853516"/>
      <use xlink:href="#TimesNewRomanPSMT-44" x="217.853516"/>
      <use xlink:href="#TimesNewRomanPSMT-69" x="290.070312"/>
      <use xlink:href="#TimesNewRomanPSMT-73" x="317.853516"/>
      <use xlink:href="#TimesNewRomanPSMT-74" x="356.769531"/>
      <use xlink:href="#TimesNewRomanPSMT-72" x="384.552734"/>
      <use xlink:href="#TimesNewRomanPSMT-69" x="417.853516"/>
      <use xlink:href="#TimesNewRomanPSMT-62" x="445.636719"/>
      <use xlink:href="#TimesNewRomanPSMT-75" x="495.636719"/>
      <use xlink:href="#TimesNewRomanPSMT-74" x="545.636719"/>
      <use xlink:href="#TimesNewRomanPSMT-69" x="573.419922"/>
      <use xlink:href="#TimesNewRomanPSMT-6f" x="601.203125"/>
      <use xlink:href="#TimesNewRomanPSMT-6e" x="651.203125"/>
     </g>
    </g>
    <g id="patch_9">
     <path d="M 450.336938 192.090781 
L 470.336938 192.090781 
L 470.336938 185.090781 
L 450.336938 185.090781 
z
" style="fill: #ff7f0e"/>
    </g>
    <g id="text_15">
     <!-- QuickDeliver Hubs -->
     <g transform="translate(478.336938 192.090781) scale(0.1 -0.1)">
      <defs>
       <path id="TimesNewRomanPSMT-51" d="M 2819 -47 
Q 3138 -597 3508 -856 
Q 3878 -1116 4350 -1153 
L 4350 -1253 
Q 3919 -1238 3428 -1080 
Q 2938 -922 2498 -642 
Q 2059 -363 1741 -47 
Q 1291 134 1028 338 
Q 647 641 436 1083 
Q 225 1525 225 2128 
Q 225 3078 840 3706 
Q 1456 4334 2331 4334 
Q 3163 4334 3770 3704 
Q 4378 3075 4378 2116 
Q 4378 1338 3945 750 
Q 3513 163 2819 -47 
z
M 2294 4094 
Q 1725 4094 1378 3688 
Q 941 3178 941 2128 
Q 941 1100 1384 544 
Q 1728 116 2294 116 
Q 2881 116 3241 544 
Q 3663 1050 3663 2038 
Q 3663 2797 3431 3316 
Q 3253 3716 2958 3905 
Q 2663 4094 2294 4094 
z
" transform="scale(0.015625)"/>
       <path id="TimesNewRomanPSMT-6b" d="M 1047 4444 
L 1047 1597 
L 1775 2259 
Q 2006 2472 2044 2528 
Q 2069 2566 2069 2603 
Q 2069 2666 2017 2711 
Q 1966 2756 1847 2763 
L 1847 2863 
L 3091 2863 
L 3091 2763 
Q 2834 2756 2664 2684 
Q 2494 2613 2291 2428 
L 1556 1750 
L 2291 822 
Q 2597 438 2703 334 
Q 2853 188 2966 144 
Q 3044 113 3238 113 
L 3238 0 
L 1847 0 
L 1847 113 
Q 1966 116 2008 148 
Q 2050 181 2050 241 
Q 2050 313 1925 472 
L 1047 1594 
L 1047 644 
Q 1047 366 1086 278 
Q 1125 191 1197 153 
Q 1269 116 1509 113 
L 1509 0 
L 53 0 
L 53 113 
Q 272 113 381 166 
Q 447 200 481 272 
Q 528 375 528 628 
L 528 3234 
Q 528 3731 506 3842 
Q 484 3953 434 3995 
Q 384 4038 303 4038 
Q 238 4038 106 3984 
L 53 4094 
L 903 4444 
L 1047 4444 
z
" transform="scale(0.015625)"/>
       <path id="TimesNewRomanPSMT-48" d="M 1316 2272 
L 3284 2272 
L 3284 3484 
Q 3284 3809 3244 3913 
Q 3213 3991 3113 4047 
Q 2978 4122 2828 4122 
L 2678 4122 
L 2678 4238 
L 4491 4238 
L 4491 4122 
L 4341 4122 
Q 4191 4122 4056 4050 
Q 3956 4000 3920 3898 
Q 3884 3797 3884 3484 
L 3884 750 
Q 3884 428 3925 325 
Q 3956 247 4053 191 
Q 4191 116 4341 116 
L 4491 116 
L 4491 0 
L 2678 0 
L 2678 116 
L 2828 116 
Q 3088 116 3206 269 
Q 3284 369 3284 750 
L 3284 2041 
L 1316 2041 
L 1316 750 
Q 1316 428 1356 325 
Q 1388 247 1488 191 
Q 1622 116 1772 116 
L 1925 116 
L 1925 0 
L 109 0 
L 109 116 
L 259 116 
Q 522 116 641 269 
Q 716 369 716 750 
L 716 3484 
Q 716 3809 675 3913 
Q 644 3991 547 4047 
Q 409 4122 259 4122 
L 109 4122 
L 109 4238 
L 1925 4238 
L 1925 4122 
L 1772 4122 
Q 1622 4122 1488 4050 
Q 1391 4000 1353 3898 
Q 1316 3797 1316 3484 
L 1316 2272 
z
" transform="scale(0.015625)"/>
      </defs>
      <use xlink:href="#TimesNewRomanPSMT-51"/>
      <use xlink:href="#TimesNewRomanPSMT-75" x="72.216797"/>
      <use xlink:href="#TimesNewRomanPSMT-69" x="122.216797"/>
      <use xlink:href="#TimesNewRomanPSMT-63" x="150"/>
      <use xlink:href="#TimesNewRomanPSMT-6b" x="194.384766"/>
      <use xlink:href="#TimesNewRomanPSMT-44" x="244.384766"/>
      <use xlink:href="#TimesNewRomanPSMT-65" x="316.601562"/>
      <use xlink:href="#TimesNewRomanPSMT-6c" x="360.986328"/>
      <use xlink:href="#TimesNewRomanPSMT-69" x="388.769531"/>
      <use xlink:href="#TimesNewRomanPSMT-76" x="416.552734"/>
      <use xlink:href="#TimesNewRomanPSMT-65" x="466.552734"/>
      <use xlink:href="#TimesNewRomanPSMT-72" x="510.9375"/>
      <use xlink:href="#TimesNewRomanPSMT-20" x="544.238281"/>
      <use xlink:href="#TimesNewRomanPSMT-48" x="569.238281"/>
      <use xlink:href="#TimesNewRomanPSMT-75" x="641.455078"/>
      <use xlink:href="#TimesNewRomanPSMT-62" x="691.455078"/>
      <use xlink:href="#TimesNewRomanPSMT-73" x="741.455078"/>
     </g>
    </g>
   </g>
  </g>
 </g>
 <defs>
  <clipPath id="p551fe3cd39">
   <rect x="44.760938" y="36.92125" width="388.8" height="277.2"/>
  </clipPath>
 </defs>
</svg>
