<?xml version="1.0" encoding="utf-8" standalone="no"?>
<!DOCTYPE svg PUBLIC "-//W3C//DTD SVG 1.1//EN"
  "http://www.w3.org/Graphics/SVG/1.1/DTD/svg11.dtd">
<svg xmlns:xlink="http://www.w3.org/1999/xlink" width="588.664437pt" height="364.113404pt" viewBox="0 0 588.664437 364.113404" xmlns="http://www.w3.org/2000/svg" version="1.1">
 <metadata>
  <rdf:RDF xmlns:dc="http://purl.org/dc/elements/1.1/" xmlns:cc="http://creativecommons.org/ns#" xmlns:rdf="http://www.w3.org/1999/02/22-rdf-syntax-ns#">
   <cc:Work>
    <dc:type rdf:resource="http://purl.org/dc/dcmitype/StillImage"/>
    <dc:date>2025-05-21T21:40:48.156627</dc:date>
    <dc:format>image/svg+xml</dc:format>
    <dc:creator>
     <cc:Agent>
      <dc:title>Matplotlib v3.9.2, https://matplotlib.org/</dc:title>
     </cc:Agent>
    </dc:creator>
   </cc:Work>
  </rdf:RDF>
 </metadata>
 <defs>
  <style type="text/css">*{stroke-linejoin: round; stroke-linecap: butt}</style>
 </defs>
 <g id="figure_1">
  <g id="patch_1">
   <path d="M 0 364.113404 
L 588.664437 364.113404 
L 588.664437 0 
L 0 0 
z
" style="fill: #ffffff"/>
  </g>
  <g id="axes_1">
   <g id="patch_2">
    <path d="M 47.519688 314.449375 
L 436.319687 314.449375 
L 436.319687 37.249375 
L 47.519688 37.249375 
z
" style="fill: #ffffff"/>
   </g>
   <g id="PolyCollection_1">
    <path d="M 65.192415 208.806634 
L 65.192415 242.666747 
L 68.762663 249.001909 
L 72.332911 254.412511 
L 75.903159 258.957601 
L 79.473407 262.696227 
L 83.043654 265.687439 
L 86.613902 267.990284 
L 90.18415 269.663811 
L 93.754398 270.767068 
L 97.324646 271.359105 
L 100.894894 271.498969 
L 104.465142 271.245709 
L 108.03539 270.658374 
L 111.605638 269.796012 
L 115.175886 268.717671 
L 118.746134 267.4824 
L 122.316382 266.149248 
L 125.88663 264.777263 
L 129.456878 263.425493 
L 133.027126 262.152987 
L 136.597373 261.018793 
L 140.167621 260.081961 
L 143.737869 259.401537 
L 147.308117 259.017045 
L 150.878365 258.889893 
L 154.448613 258.961967 
L 158.018861 259.17515 
L 161.589109 259.471326 
L 165.159357 259.792378 
L 168.729605 260.080189 
L 172.299853 260.276644 
L 175.870101 260.323627 
L 179.440349 260.16302 
L 183.010597 259.736707 
L 186.580845 259.008235 
L 190.151092 258.027798 
L 193.72134 256.867253 
L 197.291588 255.598456 
L 200.861836 254.293265 
L 204.432084 253.023536 
L 208.002332 251.861126 
L 211.57258 250.877891 
L 215.142828 250.145689 
L 218.713076 249.736377 
L 222.283324 249.721811 
L 225.853572 250.154746 
L 229.42382 251.011531 
L 232.994068 252.249413 
L 236.564316 253.825637 
L 240.134564 255.697452 
L 243.704811 257.822103 
L 247.275059 260.156838 
L 250.845307 262.658904 
L 254.415555 265.285546 
L 257.985803 267.994012 
L 261.556051 270.741548 
L 265.126299 273.484175 
L 268.696547 276.173 
L 272.266795 278.757908 
L 275.837043 281.188779 
L 279.407291 283.415497 
L 282.977539 285.387944 
L 286.547787 287.056001 
L 290.118035 288.369551 
L 293.688283 289.278477 
L 297.25853 289.73266 
L 300.828778 289.681983 
L 304.399026 289.101195 
L 307.969274 288.064512 
L 311.539522 286.671016 
L 315.10977 285.019791 
L 318.680018 283.209918 
L 322.250266 281.340481 
L 325.820514 279.510562 
L 329.390762 277.819243 
L 332.96101 276.365608 
L 336.531258 275.24874 
L 340.101506 274.56772 
L 343.671754 274.39417 
L 347.242002 274.689868 
L 350.812249 275.38913 
L 354.382497 276.426272 
L 357.952745 277.735611 
L 361.522993 279.251462 
L 365.093241 280.908142 
L 368.663489 282.639968 
L 372.233737 284.381255 
L 375.803985 286.066319 
L 379.374233 287.629478 
L 382.944481 289.005046 
L 386.514729 290.127341 
L 390.084977 290.930679 
L 393.655225 291.349375 
L 397.225473 291.317747 
L 400.795721 290.77011 
L 404.365968 289.64078 
L 407.936216 287.864075 
L 411.506464 285.374309 
L 415.076712 282.1058 
L 418.64696 277.992864 
L 418.64696 248.457985 
L 418.64696 248.457985 
L 415.076712 254.326591 
L 411.506464 258.933953 
L 407.936216 262.376674 
L 404.365968 264.75136 
L 400.795721 266.154614 
L 397.225473 266.68304 
L 393.655225 266.433242 
L 390.084977 265.501825 
L 386.514729 263.985391 
L 382.944481 261.980546 
L 379.374233 259.583892 
L 375.803985 256.892035 
L 372.233737 254.001579 
L 368.663489 251.009126 
L 365.093241 248.011282 
L 361.522993 245.10465 
L 357.952745 242.385834 
L 354.382497 239.951439 
L 350.812249 237.898068 
L 347.242002 236.322325 
L 343.671754 235.320815 
L 340.101506 234.990141 
L 336.531258 235.389115 
L 332.96101 236.425381 
L 329.390762 237.968788 
L 325.820514 239.88919 
L 322.250266 242.056435 
L 318.680018 244.340375 
L 315.10977 246.610862 
L 311.539522 248.737745 
L 307.969274 250.590877 
L 304.399026 252.040107 
L 300.828778 252.955287 
L 297.25853 253.241273 
L 293.688283 252.942944 
L 290.118035 252.14018 
L 286.547787 250.912867 
L 282.977539 249.340886 
L 279.407291 247.504121 
L 275.837043 245.482455 
L 272.266795 243.35577 
L 268.696547 241.20395 
L 265.126299 239.106878 
L 261.556051 237.144436 
L 257.985803 235.382964 
L 254.415555 233.834625 
L 250.845307 232.498038 
L 247.275059 231.371822 
L 243.704811 230.454595 
L 240.134564 229.744978 
L 236.564316 229.241589 
L 232.994068 228.943048 
L 229.42382 228.847973 
L 225.853572 228.954984 
L 222.283324 229.2627 
L 218.713076 229.759864 
L 215.142828 230.395718 
L 211.57258 231.109628 
L 208.002332 231.840961 
L 204.432084 232.529081 
L 200.861836 233.113356 
L 197.291588 233.533152 
L 193.72134 233.727834 
L 190.151092 233.636768 
L 186.580845 233.199321 
L 183.010597 232.35486 
L 179.440349 231.069672 
L 175.870101 229.417746 
L 172.299853 227.499991 
L 168.729605 225.417316 
L 165.159357 223.270632 
L 161.589109 221.160849 
L 158.018861 219.188876 
L 154.448613 217.455624 
L 150.878365 216.062003 
L 147.308117 215.108922 
L 143.737869 214.697292 
L 140.167621 214.896273 
L 136.597373 215.64803 
L 133.027126 216.86298 
L 129.456878 218.451537 
L 125.88663 220.324118 
L 122.316382 222.39114 
L 118.746134 224.563017 
L 115.175886 226.750165 
L 111.605638 228.863001 
L 108.03539 230.811939 
L 104.465142 232.507398 
L 100.894894 233.859791 
L 97.324646 234.779534 
L 93.754398 235.177045 
L 90.18415 234.962738 
L 86.613902 234.047029 
L 83.043654 232.340335 
L 79.473407 229.753071 
L 75.903159 226.195653 
L 72.332911 221.578497 
L 68.762663 215.812019 
L 65.192415 208.806634 
z
" clip-path="url(#p19ab59ead3)" style="fill: #1f77b4"/>
   </g>
   <g id="PolyCollection_2">
    <path d="M 65.192415 175.264315 
L 65.192415 208.806634 
L 68.762663 215.812019 
L 72.332911 221.578497 
L 75.903159 226.195653 
L 79.473407 229.753071 
L 83.043654 232.340335 
L 86.613902 234.047029 
L 90.18415 234.962738 
L 93.754398 235.177045 
L 97.324646 234.779534 
L 100.894894 233.859791 
L 104.465142 232.507398 
L 108.03539 230.811939 
L 111.605638 228.863001 
L 115.175886 226.750165 
L 118.746134 224.563017 
L 122.316382 222.39114 
L 125.88663 220.324118 
L 129.456878 218.451537 
L 133.027126 216.86298 
L 136.597373 215.64803 
L 140.167621 214.896273 
L 143.737869 214.697292 
L 147.308117 215.108922 
L 150.878365 216.062003 
L 154.448613 217.455624 
L 158.018861 219.188876 
L 161.589109 221.160849 
L 165.159357 223.270632 
L 168.729605 225.417316 
L 172.299853 227.499991 
L 175.870101 229.417746 
L 179.440349 231.069672 
L 183.010597 232.35486 
L 186.580845 233.199321 
L 190.151092 233.636768 
L 193.72134 233.727834 
L 197.291588 233.533152 
L 200.861836 233.113356 
L 204.432084 232.529081 
L 208.002332 231.840961 
L 211.57258 231.109628 
L 215.142828 230.395718 
L 218.713076 229.759864 
L 222.283324 229.2627 
L 225.853572 228.954984 
L 229.42382 228.847973 
L 232.994068 228.943048 
L 236.564316 229.241589 
L 240.134564 229.744978 
L 243.704811 230.454595 
L 247.275059 231.371822 
L 250.845307 232.498038 
L 254.415555 233.834625 
L 257.985803 235.382964 
L 261.556051 237.144436 
L 265.126299 239.106878 
L 268.696547 241.20395 
L 272.266795 243.35577 
L 275.837043 245.482455 
L 279.407291 247.504121 
L 282.977539 249.340886 
L 286.547787 250.912867 
L 290.118035 252.14018 
L 293.688283 252.942944 
L 297.25853 253.241273 
L 300.828778 252.955287 
L 304.399026 252.040107 
L 307.969274 250.590877 
L 311.539522 248.737745 
L 315.10977 246.610862 
L 318.680018 244.340375 
L 322.250266 242.056435 
L 325.820514 239.88919 
L 329.390762 237.968788 
L 332.96101 236.425381 
L 336.531258 235.389115 
L 340.101506 234.990141 
L 343.671754 235.320815 
L 347.242002 236.322325 
L 350.812249 237.898068 
L 354.382497 239.951439 
L 357.952745 242.385834 
L 361.522993 245.10465 
L 365.093241 248.011282 
L 368.663489 251.009126 
L 372.233737 254.001579 
L 375.803985 256.892035 
L 379.374233 259.583892 
L 382.944481 261.980546 
L 386.514729 263.985391 
L 390.084977 265.501825 
L 393.655225 266.433242 
L 397.225473 266.68304 
L 400.795721 266.154614 
L 404.365968 264.75136 
L 407.936216 262.376674 
L 411.506464 258.933953 
L 415.076712 254.326591 
L 418.64696 248.457985 
L 418.64696 174.623083 
L 418.64696 174.623083 
L 415.076712 177.457682 
L 411.506464 179.808084 
L 407.936216 181.708215 
L 404.365968 183.191999 
L 400.795721 184.293363 
L 397.225473 185.046229 
L 393.655225 185.484525 
L 390.084977 185.642174 
L 386.514729 185.553102 
L 382.944481 185.251233 
L 379.374233 184.770494 
L 375.803985 184.144808 
L 372.233737 183.408101 
L 368.663489 182.594298 
L 365.093241 181.737324 
L 361.522993 180.871104 
L 357.952745 180.029562 
L 354.382497 179.246625 
L 350.812249 178.556217 
L 347.242002 177.992262 
L 343.671754 177.588687 
L 340.101506 177.379416 
L 336.531258 177.386682 
L 332.96101 177.585956 
L 329.390762 177.941016 
L 325.820514 178.41564 
L 322.250266 178.973606 
L 318.680018 179.578693 
L 315.10977 180.19468 
L 311.539522 180.785343 
L 307.969274 181.314463 
L 304.399026 181.745817 
L 300.828778 182.043183 
L 297.25853 182.177029 
L 293.688283 182.144573 
L 290.118035 181.949724 
L 286.547787 181.596389 
L 282.977539 181.088477 
L 279.407291 180.429895 
L 275.837043 179.624552 
L 272.266795 178.676354 
L 268.696547 177.58921 
L 265.126299 176.367028 
L 261.556051 175.013716 
L 257.985803 173.543137 
L 254.415555 172.008979 
L 250.845307 170.474886 
L 247.275059 169.0045 
L 243.704811 167.661467 
L 240.134564 166.509428 
L 236.564316 165.612027 
L 232.994068 165.032908 
L 229.42382 164.835715 
L 225.853572 165.08409 
L 222.283324 165.841678 
L 218.713076 167.142374 
L 215.142828 168.901084 
L 211.57258 171.002967 
L 208.002332 173.33318 
L 204.432084 175.776882 
L 200.861836 178.219232 
L 197.291588 180.545387 
L 193.72134 182.640507 
L 190.151092 184.389749 
L 186.580845 185.678272 
L 183.010597 186.391233 
L 179.440349 186.45262 
L 175.870101 185.941731 
L 172.299853 184.976691 
L 168.729605 183.675627 
L 165.159357 182.156664 
L 161.589109 180.53793 
L 158.018861 178.937549 
L 154.448613 177.473648 
L 150.878365 176.264353 
L 147.308117 175.427791 
L 143.737869 175.082087 
L 140.167621 175.311981 
L 136.597373 176.068675 
L 133.027126 177.269981 
L 129.456878 178.833715 
L 125.88663 180.67769 
L 122.316382 182.719722 
L 118.746134 184.877623 
L 115.175886 187.069209 
L 111.605638 189.212294 
L 108.03539 191.224692 
L 104.465142 193.024218 
L 100.894894 194.528686 
L 97.324646 195.65591 
L 93.754398 196.323704 
L 90.18415 196.449883 
L 86.613902 195.952261 
L 83.043654 194.748653 
L 79.473407 192.756873 
L 75.903159 189.894734 
L 72.332911 186.080052 
L 68.762663 181.230641 
L 65.192415 175.264315 
z
" clip-path="url(#p19ab59ead3)" style="fill: #aec7e8"/>
   </g>
   <g id="PolyCollection_3">
    <path d="M 65.192415 162.008653 
L 65.192415 175.264315 
L 68.762663 181.230641 
L 72.332911 186.080052 
L 75.903159 189.894734 
L 79.473407 192.756873 
L 83.043654 194.748653 
L 86.613902 195.952261 
L 90.18415 196.449883 
L 93.754398 196.323704 
L 97.324646 195.65591 
L 100.894894 194.528686 
L 104.465142 193.024218 
L 108.03539 191.224692 
L 111.605638 189.212294 
L 115.175886 187.069209 
L 118.746134 184.877623 
L 122.316382 182.719722 
L 125.88663 180.67769 
L 129.456878 178.833715 
L 133.027126 177.269981 
L 136.597373 176.068675 
L 140.167621 175.311981 
L 143.737869 175.082087 
L 147.308117 175.427791 
L 150.878365 176.264353 
L 154.448613 177.473648 
L 158.018861 178.937549 
L 161.589109 180.53793 
L 165.159357 182.156664 
L 168.729605 183.675627 
L 172.299853 184.976691 
L 175.870101 185.941731 
L 179.440349 186.45262 
L 183.010597 186.391233 
L 186.580845 185.678272 
L 190.151092 184.389749 
L 193.72134 182.640507 
L 197.291588 180.545387 
L 200.861836 178.219232 
L 204.432084 175.776882 
L 208.002332 173.33318 
L 211.57258 171.002967 
L 215.142828 168.901084 
L 218.713076 167.142374 
L 222.283324 165.841678 
L 225.853572 165.08409 
L 229.42382 164.835715 
L 232.994068 165.032908 
L 236.564316 165.612027 
L 240.134564 166.509428 
L 243.704811 167.661467 
L 247.275059 169.0045 
L 250.845307 170.474886 
L 254.415555 172.008979 
L 257.985803 173.543137 
L 261.556051 175.013716 
L 265.126299 176.367028 
L 268.696547 177.58921 
L 272.266795 178.676354 
L 275.837043 179.624552 
L 279.407291 180.429895 
L 282.977539 181.088477 
L 286.547787 181.596389 
L 290.118035 181.949724 
L 293.688283 182.144573 
L 297.25853 182.177029 
L 300.828778 182.043183 
L 304.399026 181.745817 
L 307.969274 181.314463 
L 311.539522 180.785343 
L 315.10977 180.19468 
L 318.680018 179.578693 
L 322.250266 178.973606 
L 325.820514 178.41564 
L 329.390762 177.941016 
L 332.96101 177.585956 
L 336.531258 177.386682 
L 340.101506 177.379416 
L 343.671754 177.588687 
L 347.242002 177.992262 
L 350.812249 178.556217 
L 354.382497 179.246625 
L 357.952745 180.029562 
L 361.522993 180.871104 
L 365.093241 181.737324 
L 368.663489 182.594298 
L 372.233737 183.408101 
L 375.803985 184.144808 
L 379.374233 184.770494 
L 382.944481 185.251233 
L 386.514729 185.553102 
L 390.084977 185.642174 
L 393.655225 185.484525 
L 397.225473 185.046229 
L 400.795721 184.293363 
L 404.365968 183.191999 
L 407.936216 181.708215 
L 411.506464 179.808084 
L 415.076712 177.457682 
L 418.64696 174.623083 
L 418.64696 158.294345 
L 418.64696 158.294345 
L 415.076712 157.631029 
L 411.506464 157.440199 
L 407.936216 157.669759 
L 404.365968 158.267615 
L 400.795721 159.181672 
L 397.225473 160.359835 
L 393.655225 161.75001 
L 390.084977 163.300102 
L 386.514729 164.958016 
L 382.944481 166.671657 
L 379.374233 168.38893 
L 375.803985 170.057741 
L 372.233737 171.625995 
L 368.663489 173.041597 
L 365.093241 174.252452 
L 361.522993 175.206467 
L 357.952745 175.851545 
L 354.382497 176.135592 
L 350.812249 176.006513 
L 347.242002 175.412214 
L 343.671754 174.3006 
L 340.101506 172.619576 
L 336.531258 170.351881 
L 332.96101 167.619588 
L 329.390762 164.579603 
L 325.820514 161.388834 
L 322.250266 158.204188 
L 318.680018 155.18257 
L 315.10977 152.480887 
L 311.539522 150.256047 
L 307.969274 148.664956 
L 304.399026 147.864521 
L 300.828778 148.011649 
L 297.25853 149.20079 
L 293.688283 151.27658 
L 290.118035 154.021194 
L 286.547787 157.216813 
L 282.977539 160.645613 
L 279.407291 164.089773 
L 275.837043 167.331472 
L 272.266795 170.152887 
L 268.696547 172.336197 
L 265.126299 173.663579 
L 261.556051 173.917212 
L 257.985803 172.952182 
L 254.415555 170.915199 
L 250.845307 168.025885 
L 247.275059 164.503858 
L 243.704811 160.568738 
L 240.134564 156.440145 
L 236.564316 152.337697 
L 232.994068 148.481014 
L 229.42382 145.089716 
L 225.853572 142.383421 
L 222.283324 140.581751 
L 218.713076 139.840774 
L 215.142828 140.062364 
L 211.57258 141.084844 
L 208.002332 142.74654 
L 204.432084 144.885775 
L 200.861836 147.340872 
L 197.291588 149.950157 
L 193.72134 152.551952 
L 190.151092 154.984582 
L 186.580845 157.086371 
L 183.010597 158.695643 
L 179.440349 159.692057 
L 175.870101 160.120614 
L 172.299853 160.067649 
L 168.729605 159.619498 
L 165.159357 158.862497 
L 161.589109 157.882981 
L 158.018861 156.767287 
L 154.448613 155.601749 
L 150.878365 154.472704 
L 147.308117 153.466487 
L 143.737869 152.669434 
L 140.167621 152.149024 
L 136.597373 151.897308 
L 133.027126 151.887482 
L 129.456878 152.092739 
L 125.88663 152.486275 
L 122.316382 153.041284 
L 118.746134 153.730961 
L 115.175886 154.528501 
L 111.605638 155.407097 
L 108.03539 156.339946 
L 104.465142 157.300242 
L 100.894894 158.261178 
L 97.324646 159.195951 
L 93.754398 160.077755 
L 90.18415 160.879784 
L 86.613902 161.575233 
L 83.043654 162.137297 
L 79.473407 162.53917 
L 75.903159 162.754048 
L 72.332911 162.755124 
L 68.762663 162.515595 
L 65.192415 162.008653 
z
" clip-path="url(#p19ab59ead3)" style="fill: #ff7f0e"/>
   </g>
   <g id="PolyCollection_4">
    <path d="M 65.192415 126.729616 
L 65.192415 162.008653 
L 68.762663 162.515595 
L 72.332911 162.755124 
L 75.903159 162.754048 
L 79.473407 162.53917 
L 83.043654 162.137297 
L 86.613902 161.575233 
L 90.18415 160.879784 
L 93.754398 160.077755 
L 97.324646 159.195951 
L 100.894894 158.261178 
L 104.465142 157.300242 
L 108.03539 156.339946 
L 111.605638 155.407097 
L 115.175886 154.528501 
L 118.746134 153.730961 
L 122.316382 153.041284 
L 125.88663 152.486275 
L 129.456878 152.092739 
L 133.027126 151.887482 
L 136.597373 151.897308 
L 140.167621 152.149024 
L 143.737869 152.669434 
L 147.308117 153.466487 
L 150.878365 154.472704 
L 154.448613 155.601749 
L 158.018861 156.767287 
L 161.589109 157.882981 
L 165.159357 158.862497 
L 168.729605 159.619498 
L 172.299853 160.067649 
L 175.870101 160.120614 
L 179.440349 159.692057 
L 183.010597 158.695643 
L 186.580845 157.086371 
L 190.151092 154.984582 
L 193.72134 152.551952 
L 197.291588 149.950157 
L 200.861836 147.340872 
L 204.432084 144.885775 
L 208.002332 142.74654 
L 211.57258 141.084844 
L 215.142828 140.062364 
L 218.713076 139.840774 
L 222.283324 140.581751 
L 225.853572 142.383421 
L 229.42382 145.089716 
L 232.994068 148.481014 
L 236.564316 152.337697 
L 240.134564 156.440145 
L 243.704811 160.568738 
L 247.275059 164.503858 
L 250.845307 168.025885 
L 254.415555 170.915199 
L 257.985803 172.952182 
L 261.556051 173.917212 
L 265.126299 173.663579 
L 268.696547 172.336197 
L 272.266795 170.152887 
L 275.837043 167.331472 
L 279.407291 164.089773 
L 282.977539 160.645613 
L 286.547787 157.216813 
L 290.118035 154.021194 
L 293.688283 151.27658 
L 297.25853 149.20079 
L 300.828778 148.011649 
L 304.399026 147.864521 
L 307.969274 148.664956 
L 311.539522 150.256047 
L 315.10977 152.480887 
L 318.680018 155.18257 
L 322.250266 158.204188 
L 325.820514 161.388834 
L 329.390762 164.579603 
L 332.96101 167.619588 
L 336.531258 170.351881 
L 340.101506 172.619576 
L 343.671754 174.3006 
L 347.242002 175.412214 
L 350.812249 176.006513 
L 354.382497 176.135592 
L 357.952745 175.851545 
L 361.522993 175.206467 
L 365.093241 174.252452 
L 368.663489 173.041597 
L 372.233737 171.625995 
L 375.803985 170.057741 
L 379.374233 168.38893 
L 382.944481 166.671657 
L 386.514729 164.958016 
L 390.084977 163.300102 
L 393.655225 161.75001 
L 397.225473 160.359835 
L 400.795721 159.181672 
L 404.365968 158.267615 
L 407.936216 157.669759 
L 411.506464 157.440199 
L 415.076712 157.631029 
L 418.64696 158.294345 
L 418.64696 156.721741 
L 418.64696 156.721741 
L 415.076712 151.902084 
L 411.506464 147.860275 
L 407.936216 144.541811 
L 404.365968 141.892192 
L 400.795721 139.856916 
L 397.225473 138.381479 
L 393.655225 137.411382 
L 390.084977 136.892121 
L 386.514729 136.769195 
L 382.944481 136.988103 
L 379.374233 137.494342 
L 375.803985 138.23341 
L 372.233737 139.150806 
L 368.663489 140.192028 
L 365.093241 141.302574 
L 361.522993 142.427943 
L 357.952745 143.513631 
L 354.382497 144.505138 
L 350.812249 145.347962 
L 347.242002 145.987601 
L 343.671754 146.369552 
L 340.101506 146.439315 
L 336.531258 146.164675 
L 332.96101 145.602564 
L 329.390762 144.832203 
L 325.820514 143.932814 
L 322.250266 142.983616 
L 318.680018 142.06383 
L 315.10977 141.252676 
L 311.539522 140.629375 
L 307.969274 140.273148 
L 304.399026 140.263214 
L 300.828778 140.678795 
L 297.25853 141.565248 
L 293.688283 142.832478 
L 290.118035 144.356529 
L 286.547787 146.013441 
L 282.977539 147.679258 
L 279.407291 149.230023 
L 275.837043 150.541777 
L 272.266795 151.490563 
L 268.696547 151.952423 
L 265.126299 151.8034 
L 261.556051 150.919537 
L 257.985803 149.224062 
L 254.415555 146.828953 
L 250.845307 143.893376 
L 247.275059 140.576493 
L 243.704811 137.037471 
L 240.134564 133.435473 
L 236.564316 129.929665 
L 232.994068 126.67921 
L 229.42382 123.843273 
L 225.853572 121.581019 
L 222.283324 120.051612 
L 218.713076 119.367556 
L 215.142828 119.454707 
L 211.57258 120.19226 
L 208.002332 121.45941 
L 204.432084 123.135353 
L 200.861836 125.099283 
L 197.291588 127.230396 
L 193.72134 129.407887 
L 190.151092 131.510951 
L 186.580845 133.418783 
L 183.010597 135.010579 
L 179.440349 136.194523 
L 175.870101 136.994763 
L 172.299853 137.464435 
L 168.729605 137.656676 
L 165.159357 137.624624 
L 161.589109 137.421415 
L 158.018861 137.100185 
L 154.448613 136.714073 
L 150.878365 136.316215 
L 147.308117 135.959747 
L 143.737869 135.697807 
L 140.167621 135.570885 
L 136.597373 135.568879 
L 133.027126 135.669042 
L 129.456878 135.848627 
L 125.88663 136.084885 
L 122.316382 136.355068 
L 118.746134 136.636429 
L 115.175886 136.906219 
L 111.605638 137.141692 
L 108.03539 137.320098 
L 104.465142 137.418691 
L 100.894894 137.414722 
L 97.324646 137.285444 
L 93.754398 137.008108 
L 90.18415 136.559967 
L 86.613902 135.918273 
L 83.043654 135.060278 
L 79.473407 133.963235 
L 75.903159 132.604394 
L 72.332911 130.96101 
L 68.762663 129.010333 
L 65.192415 126.729616 
z
" clip-path="url(#p19ab59ead3)" style="fill: #ffbb78"/>
   </g>
   <g id="PolyCollection_5">
    <path d="M 65.192415 109.032003 
L 65.192415 126.729616 
L 68.762663 129.010333 
L 72.332911 130.96101 
L 75.903159 132.604394 
L 79.473407 133.963235 
L 83.043654 135.060278 
L 86.613902 135.918273 
L 90.18415 136.559967 
L 93.754398 137.008108 
L 97.324646 137.285444 
L 100.894894 137.414722 
L 104.465142 137.418691 
L 108.03539 137.320098 
L 111.605638 137.141692 
L 115.175886 136.906219 
L 118.746134 136.636429 
L 122.316382 136.355068 
L 125.88663 136.084885 
L 129.456878 135.848627 
L 133.027126 135.669042 
L 136.597373 135.568879 
L 140.167621 135.570885 
L 143.737869 135.697807 
L 147.308117 135.959747 
L 150.878365 136.316215 
L 154.448613 136.714073 
L 158.018861 137.100185 
L 161.589109 137.421415 
L 165.159357 137.624624 
L 168.729605 137.656676 
L 172.299853 137.464435 
L 175.870101 136.994763 
L 179.440349 136.194523 
L 183.010597 135.010579 
L 186.580845 133.418783 
L 190.151092 131.510951 
L 193.72134 129.407887 
L 197.291588 127.230396 
L 200.861836 125.099283 
L 204.432084 123.135353 
L 208.002332 121.45941 
L 211.57258 120.19226 
L 215.142828 119.454707 
L 218.713076 119.367556 
L 222.283324 120.051612 
L 225.853572 121.581019 
L 229.42382 123.843273 
L 232.994068 126.67921 
L 236.564316 129.929665 
L 240.134564 133.435473 
L 243.704811 137.037471 
L 247.275059 140.576493 
L 250.845307 143.893376 
L 254.415555 146.828953 
L 257.985803 149.224062 
L 261.556051 150.919537 
L 265.126299 151.8034 
L 268.696547 151.952423 
L 272.266795 151.490563 
L 275.837043 150.541777 
L 279.407291 149.230023 
L 282.977539 147.679258 
L 286.547787 146.013441 
L 290.118035 144.356529 
L 293.688283 142.832478 
L 297.25853 141.565248 
L 300.828778 140.678795 
L 304.399026 140.263214 
L 307.969274 140.273148 
L 311.539522 140.629375 
L 315.10977 141.252676 
L 318.680018 142.06383 
L 322.250266 142.983616 
L 325.820514 143.932814 
L 329.390762 144.832203 
L 332.96101 145.602564 
L 336.531258 146.164675 
L 340.101506 146.439315 
L 343.671754 146.369552 
L 347.242002 145.987601 
L 350.812249 145.347962 
L 354.382497 144.505138 
L 357.952745 143.513631 
L 361.522993 142.427943 
L 365.093241 141.302574 
L 368.663489 140.192028 
L 372.233737 139.150806 
L 375.803985 138.23341 
L 379.374233 137.494342 
L 382.944481 136.988103 
L 386.514729 136.769195 
L 390.084977 136.892121 
L 393.655225 137.411382 
L 397.225473 138.381479 
L 400.795721 139.856916 
L 404.365968 141.892192 
L 407.936216 144.541811 
L 411.506464 147.860275 
L 415.076712 151.902084 
L 418.64696 156.721741 
L 418.64696 73.705886 
L 418.64696 73.705886 
L 415.076712 69.59295 
L 411.506464 66.324441 
L 407.936216 63.834675 
L 404.365968 62.05797 
L 400.795721 60.92864 
L 397.225473 60.381003 
L 393.655225 60.349375 
L 390.084977 60.768071 
L 386.514729 61.571409 
L 382.944481 62.693704 
L 379.374233 64.069272 
L 375.803985 65.632431 
L 372.233737 67.317495 
L 368.663489 69.058782 
L 365.093241 70.790608 
L 361.522993 72.447288 
L 357.952745 73.963139 
L 354.382497 75.272478 
L 350.812249 76.30962 
L 347.242002 77.008882 
L 343.671754 77.30458 
L 340.101506 77.13103 
L 336.531258 76.45001 
L 332.96101 75.333142 
L 329.390762 73.879507 
L 325.820514 72.188188 
L 322.250266 70.358269 
L 318.680018 68.488832 
L 315.10977 66.678959 
L 311.539522 65.027734 
L 307.969274 63.634238 
L 304.399026 62.597555 
L 300.828778 62.016767 
L 297.25853 61.96609 
L 293.688283 62.420273 
L 290.118035 63.329199 
L 286.547787 64.642749 
L 282.977539 66.310806 
L 279.407291 68.283253 
L 275.837043 70.509971 
L 272.266795 72.940842 
L 268.696547 75.52575 
L 265.126299 78.214575 
L 261.556051 80.957202 
L 257.985803 83.704738 
L 254.415555 86.413204 
L 250.845307 89.039846 
L 247.275059 91.541912 
L 243.704811 93.876647 
L 240.134564 96.001298 
L 236.564316 97.873113 
L 232.994068 99.449337 
L 229.42382 100.687219 
L 225.853572 101.544004 
L 222.283324 101.976939 
L 218.713076 101.962373 
L 215.142828 101.553061 
L 211.57258 100.820859 
L 208.002332 99.837624 
L 204.432084 98.675214 
L 200.861836 97.405485 
L 197.291588 96.100294 
L 193.72134 94.831497 
L 190.151092 93.670952 
L 186.580845 92.690515 
L 183.010597 91.962043 
L 179.440349 91.53573 
L 175.870101 91.375123 
L 172.299853 91.422106 
L 168.729605 91.618561 
L 165.159357 91.906372 
L 161.589109 92.227424 
L 158.018861 92.5236 
L 154.448613 92.736783 
L 150.878365 92.808857 
L 147.308117 92.681705 
L 143.737869 92.297213 
L 140.167621 91.616789 
L 136.597373 90.679957 
L 133.027126 89.545763 
L 129.456878 88.273257 
L 125.88663 86.921487 
L 122.316382 85.549502 
L 118.746134 84.21635 
L 115.175886 82.981079 
L 111.605638 81.902738 
L 108.03539 81.040376 
L 104.465142 80.453041 
L 100.894894 80.199781 
L 97.324646 80.339645 
L 93.754398 80.931682 
L 90.18415 82.034939 
L 86.613902 83.708466 
L 83.043654 86.011311 
L 79.473407 89.002523 
L 75.903159 92.741149 
L 72.332911 97.286239 
L 68.762663 102.696841 
L 65.192415 109.032003 
z
" clip-path="url(#p19ab59ead3)" style="fill: #2ca02c"/>
   </g>
   <g id="matplotlib.axis_1">
    <g id="xtick_1">
     <g id="line2d_1">
      <defs>
       <path id="md127001d28" d="M 0 0 
L 0 3.5 
" style="stroke: #000000; stroke-width: 0.8"/>
      </defs>
      <g>
       <use xlink:href="#md127001d28" x="65.192415" y="314.449375" style="stroke: #000000; stroke-width: 0.8"/>
      </g>
     </g>
     <g id="text_1">
      <!-- 1980 -->
      <g transform="translate(49.537734 340.501483) rotate(-45) scale(0.1 -0.1)">
       <defs>
        <path id="TimesNewRomanPSMT-31" d="M 750 3822 
L 1781 4325 
L 1884 4325 
L 1884 747 
Q 1884 391 1914 303 
Q 1944 216 2037 169 
Q 2131 122 2419 116 
L 2419 0 
L 825 0 
L 825 116 
Q 1125 122 1212 167 
Q 1300 213 1334 289 
Q 1369 366 1369 747 
L 1369 3034 
Q 1369 3497 1338 3628 
Q 1316 3728 1258 3775 
Q 1200 3822 1119 3822 
Q 1003 3822 797 3725 
L 750 3822 
z
" transform="scale(0.015625)"/>
        <path id="TimesNewRomanPSMT-39" d="M 338 -88 
L 338 28 
Q 744 34 1094 217 
Q 1444 400 1770 856 
Q 2097 1313 2225 1859 
Q 1734 1544 1338 1544 
Q 891 1544 572 1889 
Q 253 2234 253 2806 
Q 253 3363 572 3797 
Q 956 4325 1575 4325 
Q 2097 4325 2469 3894 
Q 2925 3359 2925 2575 
Q 2925 1869 2578 1258 
Q 2231 647 1613 244 
Q 1109 -88 516 -88 
L 338 -88 
z
M 2275 2091 
Q 2331 2497 2331 2741 
Q 2331 3044 2228 3395 
Q 2125 3747 1936 3934 
Q 1747 4122 1506 4122 
Q 1228 4122 1018 3872 
Q 809 3622 809 3128 
Q 809 2469 1088 2097 
Q 1291 1828 1588 1828 
Q 1731 1828 1928 1897 
Q 2125 1966 2275 2091 
z
" transform="scale(0.015625)"/>
        <path id="TimesNewRomanPSMT-38" d="M 1228 2134 
Q 725 2547 579 2797 
Q 434 3047 434 3316 
Q 434 3728 753 4026 
Q 1072 4325 1600 4325 
Q 2113 4325 2425 4047 
Q 2738 3769 2738 3413 
Q 2738 3175 2569 2928 
Q 2400 2681 1866 2347 
Q 2416 1922 2594 1678 
Q 2831 1359 2831 1006 
Q 2831 559 2490 242 
Q 2150 -75 1597 -75 
Q 994 -75 656 303 
Q 388 606 388 966 
Q 388 1247 577 1523 
Q 766 1800 1228 2134 
z
M 1719 2469 
Q 2094 2806 2194 3001 
Q 2294 3197 2294 3444 
Q 2294 3772 2109 3958 
Q 1925 4144 1606 4144 
Q 1288 4144 1088 3959 
Q 888 3775 888 3528 
Q 888 3366 970 3203 
Q 1053 3041 1206 2894 
L 1719 2469 
z
M 1375 2016 
Q 1116 1797 991 1539 
Q 866 1281 866 981 
Q 866 578 1086 336 
Q 1306 94 1647 94 
Q 1984 94 2187 284 
Q 2391 475 2391 747 
Q 2391 972 2272 1150 
Q 2050 1481 1375 2016 
z
" transform="scale(0.015625)"/>
        <path id="TimesNewRomanPSMT-30" d="M 231 2094 
Q 231 2819 450 3342 
Q 669 3866 1031 4122 
Q 1313 4325 1613 4325 
Q 2100 4325 2488 3828 
Q 2972 3213 2972 2159 
Q 2972 1422 2759 906 
Q 2547 391 2217 158 
Q 1888 -75 1581 -75 
Q 975 -75 572 641 
Q 231 1244 231 2094 
z
M 844 2016 
Q 844 1141 1059 588 
Q 1238 122 1591 122 
Q 1759 122 1940 273 
Q 2122 425 2216 781 
Q 2359 1319 2359 2297 
Q 2359 3022 2209 3506 
Q 2097 3866 1919 4016 
Q 1791 4119 1609 4119 
Q 1397 4119 1231 3928 
Q 1006 3669 925 3112 
Q 844 2556 844 2016 
z
" transform="scale(0.015625)"/>
       </defs>
       <use xlink:href="#TimesNewRomanPSMT-31"/>
       <use xlink:href="#TimesNewRomanPSMT-39" x="50"/>
       <use xlink:href="#TimesNewRomanPSMT-38" x="100"/>
       <use xlink:href="#TimesNewRomanPSMT-30" x="150"/>
      </g>
     </g>
    </g>
    <g id="xtick_2">
     <g id="line2d_2">
      <g>
       <use xlink:href="#md127001d28" x="104.465142" y="314.449375" style="stroke: #000000; stroke-width: 0.8"/>
      </g>
     </g>
     <g id="text_2">
      <!-- 1981 -->
      <g transform="translate(88.810461 340.501483) rotate(-45) scale(0.1 -0.1)">
       <use xlink:href="#TimesNewRomanPSMT-31"/>
       <use xlink:href="#TimesNewRomanPSMT-39" x="50"/>
       <use xlink:href="#TimesNewRomanPSMT-38" x="100"/>
       <use xlink:href="#TimesNewRomanPSMT-31" x="150"/>
      </g>
     </g>
    </g>
    <g id="xtick_3">
     <g id="line2d_3">
      <g>
       <use xlink:href="#md127001d28" x="143.737869" y="314.449375" style="stroke: #000000; stroke-width: 0.8"/>
      </g>
     </g>
     <g id="text_3">
      <!-- 1982 -->
      <g transform="translate(128.083188 340.501483) rotate(-45) scale(0.1 -0.1)">
       <defs>
        <path id="TimesNewRomanPSMT-32" d="M 2934 816 
L 2638 0 
L 138 0 
L 138 116 
Q 1241 1122 1691 1759 
Q 2141 2397 2141 2925 
Q 2141 3328 1894 3587 
Q 1647 3847 1303 3847 
Q 991 3847 742 3664 
Q 494 3481 375 3128 
L 259 3128 
Q 338 3706 661 4015 
Q 984 4325 1469 4325 
Q 1984 4325 2329 3994 
Q 2675 3663 2675 3213 
Q 2675 2891 2525 2569 
Q 2294 2063 1775 1497 
Q 997 647 803 472 
L 1909 472 
Q 2247 472 2383 497 
Q 2519 522 2628 598 
Q 2738 675 2819 816 
L 2934 816 
z
" transform="scale(0.015625)"/>
       </defs>
       <use xlink:href="#TimesNewRomanPSMT-31"/>
       <use xlink:href="#TimesNewRomanPSMT-39" x="50"/>
       <use xlink:href="#TimesNewRomanPSMT-38" x="100"/>
       <use xlink:href="#TimesNewRomanPSMT-32" x="150"/>
      </g>
     </g>
    </g>
    <g id="xtick_4">
     <g id="line2d_4">
      <g>
       <use xlink:href="#md127001d28" x="183.010597" y="314.449375" style="stroke: #000000; stroke-width: 0.8"/>
      </g>
     </g>
     <g id="text_4">
      <!-- 1983 -->
      <g transform="translate(167.355915 340.501483) rotate(-45) scale(0.1 -0.1)">
       <defs>
        <path id="TimesNewRomanPSMT-33" d="M 325 3431 
Q 506 3859 782 4092 
Q 1059 4325 1472 4325 
Q 1981 4325 2253 3994 
Q 2459 3747 2459 3466 
Q 2459 3003 1878 2509 
Q 2269 2356 2469 2072 
Q 2669 1788 2669 1403 
Q 2669 853 2319 450 
Q 1863 -75 997 -75 
Q 569 -75 414 31 
Q 259 138 259 259 
Q 259 350 332 419 
Q 406 488 509 488 
Q 588 488 669 463 
Q 722 447 909 348 
Q 1097 250 1169 231 
Q 1284 197 1416 197 
Q 1734 197 1970 444 
Q 2206 691 2206 1028 
Q 2206 1275 2097 1509 
Q 2016 1684 1919 1775 
Q 1784 1900 1550 2001 
Q 1316 2103 1072 2103 
L 972 2103 
L 972 2197 
Q 1219 2228 1467 2375 
Q 1716 2522 1828 2728 
Q 1941 2934 1941 3181 
Q 1941 3503 1739 3701 
Q 1538 3900 1238 3900 
Q 753 3900 428 3381 
L 325 3431 
z
" transform="scale(0.015625)"/>
       </defs>
       <use xlink:href="#TimesNewRomanPSMT-31"/>
       <use xlink:href="#TimesNewRomanPSMT-39" x="50"/>
       <use xlink:href="#TimesNewRomanPSMT-38" x="100"/>
       <use xlink:href="#TimesNewRomanPSMT-33" x="150"/>
      </g>
     </g>
    </g>
    <g id="xtick_5">
     <g id="line2d_5">
      <g>
       <use xlink:href="#md127001d28" x="222.283324" y="314.449375" style="stroke: #000000; stroke-width: 0.8"/>
      </g>
     </g>
     <g id="text_5">
      <!-- 1984 -->
      <g transform="translate(206.628643 340.501483) rotate(-45) scale(0.1 -0.1)">
       <defs>
        <path id="TimesNewRomanPSMT-34" d="M 2978 1563 
L 2978 1119 
L 2409 1119 
L 2409 0 
L 1894 0 
L 1894 1119 
L 100 1119 
L 100 1519 
L 2066 4325 
L 2409 4325 
L 2409 1563 
L 2978 1563 
z
M 1894 1563 
L 1894 3666 
L 406 1563 
L 1894 1563 
z
" transform="scale(0.015625)"/>
       </defs>
       <use xlink:href="#TimesNewRomanPSMT-31"/>
       <use xlink:href="#TimesNewRomanPSMT-39" x="50"/>
       <use xlink:href="#TimesNewRomanPSMT-38" x="100"/>
       <use xlink:href="#TimesNewRomanPSMT-34" x="150"/>
      </g>
     </g>
    </g>
    <g id="xtick_6">
     <g id="line2d_6">
      <g>
       <use xlink:href="#md127001d28" x="261.556051" y="314.449375" style="stroke: #000000; stroke-width: 0.8"/>
      </g>
     </g>
     <g id="text_6">
      <!-- 1985 -->
      <g transform="translate(245.90137 340.501483) rotate(-45) scale(0.1 -0.1)">
       <defs>
        <path id="TimesNewRomanPSMT-35" d="M 2778 4238 
L 2534 3706 
L 1259 3706 
L 981 3138 
Q 1809 3016 2294 2522 
Q 2709 2097 2709 1522 
Q 2709 1188 2573 903 
Q 2438 619 2231 419 
Q 2025 219 1772 97 
Q 1413 -75 1034 -75 
Q 653 -75 479 54 
Q 306 184 306 341 
Q 306 428 378 495 
Q 450 563 559 563 
Q 641 563 702 538 
Q 763 513 909 409 
Q 1144 247 1384 247 
Q 1750 247 2026 523 
Q 2303 800 2303 1197 
Q 2303 1581 2056 1914 
Q 1809 2247 1375 2428 
Q 1034 2569 447 2591 
L 1259 4238 
L 2778 4238 
z
" transform="scale(0.015625)"/>
       </defs>
       <use xlink:href="#TimesNewRomanPSMT-31"/>
       <use xlink:href="#TimesNewRomanPSMT-39" x="50"/>
       <use xlink:href="#TimesNewRomanPSMT-38" x="100"/>
       <use xlink:href="#TimesNewRomanPSMT-35" x="150"/>
      </g>
     </g>
    </g>
    <g id="xtick_7">
     <g id="line2d_7">
      <g>
       <use xlink:href="#md127001d28" x="300.828778" y="314.449375" style="stroke: #000000; stroke-width: 0.8"/>
      </g>
     </g>
     <g id="text_7">
      <!-- 1986 -->
      <g transform="translate(285.174097 340.501483) rotate(-45) scale(0.1 -0.1)">
       <defs>
        <path id="TimesNewRomanPSMT-36" d="M 2869 4325 
L 2869 4209 
Q 2456 4169 2195 4045 
Q 1934 3922 1679 3669 
Q 1425 3416 1258 3105 
Q 1091 2794 978 2366 
Q 1428 2675 1881 2675 
Q 2316 2675 2634 2325 
Q 2953 1975 2953 1425 
Q 2953 894 2631 456 
Q 2244 -75 1606 -75 
Q 1172 -75 869 213 
Q 275 772 275 1663 
Q 275 2231 503 2743 
Q 731 3256 1154 3653 
Q 1578 4050 1965 4187 
Q 2353 4325 2688 4325 
L 2869 4325 
z
M 925 2138 
Q 869 1716 869 1456 
Q 869 1156 980 804 
Q 1091 453 1309 247 
Q 1469 100 1697 100 
Q 1969 100 2183 356 
Q 2397 613 2397 1088 
Q 2397 1622 2184 2012 
Q 1972 2403 1581 2403 
Q 1463 2403 1327 2353 
Q 1191 2303 925 2138 
z
" transform="scale(0.015625)"/>
       </defs>
       <use xlink:href="#TimesNewRomanPSMT-31"/>
       <use xlink:href="#TimesNewRomanPSMT-39" x="50"/>
       <use xlink:href="#TimesNewRomanPSMT-38" x="100"/>
       <use xlink:href="#TimesNewRomanPSMT-36" x="150"/>
      </g>
     </g>
    </g>
    <g id="xtick_8">
     <g id="line2d_8">
      <g>
       <use xlink:href="#md127001d28" x="340.101506" y="314.449375" style="stroke: #000000; stroke-width: 0.8"/>
      </g>
     </g>
     <g id="text_8">
      <!-- 1987 -->
      <g transform="translate(324.446824 340.501483) rotate(-45) scale(0.1 -0.1)">
       <defs>
        <path id="TimesNewRomanPSMT-37" d="M 644 4238 
L 2916 4238 
L 2916 4119 
L 1503 -88 
L 1153 -88 
L 2419 3728 
L 1253 3728 
Q 900 3728 750 3644 
Q 488 3500 328 3200 
L 238 3234 
L 644 4238 
z
" transform="scale(0.015625)"/>
       </defs>
       <use xlink:href="#TimesNewRomanPSMT-31"/>
       <use xlink:href="#TimesNewRomanPSMT-39" x="50"/>
       <use xlink:href="#TimesNewRomanPSMT-38" x="100"/>
       <use xlink:href="#TimesNewRomanPSMT-37" x="150"/>
      </g>
     </g>
    </g>
    <g id="xtick_9">
     <g id="line2d_9">
      <g>
       <use xlink:href="#md127001d28" x="379.374233" y="314.449375" style="stroke: #000000; stroke-width: 0.8"/>
      </g>
     </g>
     <g id="text_9">
      <!-- 1988 -->
      <g transform="translate(363.719552 340.501483) rotate(-45) scale(0.1 -0.1)">
       <use xlink:href="#TimesNewRomanPSMT-31"/>
       <use xlink:href="#TimesNewRomanPSMT-39" x="50"/>
       <use xlink:href="#TimesNewRomanPSMT-38" x="100"/>
       <use xlink:href="#TimesNewRomanPSMT-38" x="150"/>
      </g>
     </g>
    </g>
    <g id="xtick_10">
     <g id="line2d_10">
      <g>
       <use xlink:href="#md127001d28" x="418.64696" y="314.449375" style="stroke: #000000; stroke-width: 0.8"/>
      </g>
     </g>
     <g id="text_10">
      <!-- 1989 -->
      <g transform="translate(402.992279 340.501483) rotate(-45) scale(0.1 -0.1)">
       <use xlink:href="#TimesNewRomanPSMT-31"/>
       <use xlink:href="#TimesNewRomanPSMT-39" x="50"/>
       <use xlink:href="#TimesNewRomanPSMT-38" x="100"/>
       <use xlink:href="#TimesNewRomanPSMT-39" x="150"/>
      </g>
     </g>
    </g>
    <g id="text_11">
     <!-- Year -->
     <g transform="translate(230.861875 354.346529) scale(0.12 -0.12)">
      <defs>
       <path id="TimesNewRomanPSMT-59" d="M 3050 4238 
L 4528 4238 
L 4528 4122 
L 4447 4122 
Q 4366 4122 4209 4050 
Q 4053 3978 3925 3843 
Q 3797 3709 3609 3406 
L 2588 1797 
L 2588 734 
Q 2588 344 2675 247 
Q 2794 116 3050 116 
L 3188 116 
L 3188 0 
L 1388 0 
L 1388 116 
L 1538 116 
Q 1806 116 1919 278 
Q 1988 378 1988 734 
L 1988 1738 
L 825 3513 
Q 619 3825 545 3903 
Q 472 3981 241 4091 
Q 178 4122 59 4122 
L 59 4238 
L 1872 4238 
L 1872 4122 
L 1778 4122 
Q 1631 4122 1507 4053 
Q 1384 3984 1384 3847 
Q 1384 3734 1575 3441 
L 2459 2075 
L 3291 3381 
Q 3478 3675 3478 3819 
Q 3478 3906 3433 3975 
Q 3388 4044 3303 4083 
Q 3219 4122 3050 4122 
L 3050 4238 
z
" transform="scale(0.015625)"/>
       <path id="TimesNewRomanPSMT-65" d="M 681 1784 
Q 678 1147 991 784 
Q 1303 422 1725 422 
Q 2006 422 2214 576 
Q 2422 731 2563 1106 
L 2659 1044 
Q 2594 616 2278 264 
Q 1963 -88 1488 -88 
Q 972 -88 605 314 
Q 238 716 238 1394 
Q 238 2128 614 2539 
Q 991 2950 1559 2950 
Q 2041 2950 2350 2633 
Q 2659 2316 2659 1784 
L 681 1784 
z
M 681 1966 
L 2006 1966 
Q 1991 2241 1941 2353 
Q 1863 2528 1708 2628 
Q 1553 2728 1384 2728 
Q 1125 2728 920 2526 
Q 716 2325 681 1966 
z
" transform="scale(0.015625)"/>
       <path id="TimesNewRomanPSMT-61" d="M 1822 413 
Q 1381 72 1269 19 
Q 1100 -59 909 -59 
Q 613 -59 420 144 
Q 228 347 228 678 
Q 228 888 322 1041 
Q 450 1253 767 1440 
Q 1084 1628 1822 1897 
L 1822 2009 
Q 1822 2438 1686 2597 
Q 1550 2756 1291 2756 
Q 1094 2756 978 2650 
Q 859 2544 859 2406 
L 866 2225 
Q 866 2081 792 2003 
Q 719 1925 600 1925 
Q 484 1925 411 2006 
Q 338 2088 338 2228 
Q 338 2497 613 2722 
Q 888 2947 1384 2947 
Q 1766 2947 2009 2819 
Q 2194 2722 2281 2516 
Q 2338 2381 2338 1966 
L 2338 994 
Q 2338 584 2353 492 
Q 2369 400 2405 369 
Q 2441 338 2488 338 
Q 2538 338 2575 359 
Q 2641 400 2828 588 
L 2828 413 
Q 2478 -56 2159 -56 
Q 2006 -56 1915 50 
Q 1825 156 1822 413 
z
M 1822 616 
L 1822 1706 
Q 1350 1519 1213 1441 
Q 966 1303 859 1153 
Q 753 1003 753 825 
Q 753 600 887 451 
Q 1022 303 1197 303 
Q 1434 303 1822 616 
z
" transform="scale(0.015625)"/>
       <path id="TimesNewRomanPSMT-72" d="M 1038 2947 
L 1038 2303 
Q 1397 2947 1775 2947 
Q 1947 2947 2059 2842 
Q 2172 2738 2172 2600 
Q 2172 2478 2090 2393 
Q 2009 2309 1897 2309 
Q 1788 2309 1652 2417 
Q 1516 2525 1450 2525 
Q 1394 2525 1328 2463 
Q 1188 2334 1038 2041 
L 1038 669 
Q 1038 431 1097 309 
Q 1138 225 1241 169 
Q 1344 113 1538 113 
L 1538 0 
L 72 0 
L 72 113 
Q 291 113 397 181 
Q 475 231 506 341 
Q 522 394 522 644 
L 522 1753 
Q 522 2253 501 2348 
Q 481 2444 426 2487 
Q 372 2531 291 2531 
Q 194 2531 72 2484 
L 41 2597 
L 906 2947 
L 1038 2947 
z
" transform="scale(0.015625)"/>
      </defs>
      <use xlink:href="#TimesNewRomanPSMT-59"/>
      <use xlink:href="#TimesNewRomanPSMT-65" x="62.216797"/>
      <use xlink:href="#TimesNewRomanPSMT-61" x="106.601562"/>
      <use xlink:href="#TimesNewRomanPSMT-72" x="150.986328"/>
     </g>
    </g>
   </g>
   <g id="matplotlib.axis_2">
    <g id="ytick_1">
     <g id="line2d_11">
      <defs>
       <path id="md6e7ccfd8f" d="M 0 0 
L -3.5 0 
" style="stroke: #000000; stroke-width: 0.8"/>
      </defs>
      <g>
       <use xlink:href="#md6e7ccfd8f" x="47.519688" y="302.770164" style="stroke: #000000; stroke-width: 0.8"/>
      </g>
     </g>
     <g id="text_12">
      <!-- −2.0 -->
      <g transform="translate(22.380625 306.242039) scale(0.1 -0.1)">
       <defs>
        <path id="TimesNewRomanPSMT-2212" d="M 3484 2000 
L 116 2000 
L 116 2256 
L 3484 2256 
L 3484 2000 
z
" transform="scale(0.015625)"/>
        <path id="TimesNewRomanPSMT-2e" d="M 800 606 
Q 947 606 1047 504 
Q 1147 403 1147 259 
Q 1147 116 1045 14 
Q 944 -88 800 -88 
Q 656 -88 554 14 
Q 453 116 453 259 
Q 453 406 554 506 
Q 656 606 800 606 
z
" transform="scale(0.015625)"/>
       </defs>
       <use xlink:href="#TimesNewRomanPSMT-2212"/>
       <use xlink:href="#TimesNewRomanPSMT-32" x="56.396484"/>
       <use xlink:href="#TimesNewRomanPSMT-2e" x="106.396484"/>
       <use xlink:href="#TimesNewRomanPSMT-30" x="131.396484"/>
      </g>
     </g>
    </g>
    <g id="ytick_2">
     <g id="line2d_12">
      <g>
       <use xlink:href="#md6e7ccfd8f" x="47.519688" y="271.039967" style="stroke: #000000; stroke-width: 0.8"/>
      </g>
     </g>
     <g id="text_13">
      <!-- −1.5 -->
      <g transform="translate(22.380625 274.511842) scale(0.1 -0.1)">
       <use xlink:href="#TimesNewRomanPSMT-2212"/>
       <use xlink:href="#TimesNewRomanPSMT-31" x="56.396484"/>
       <use xlink:href="#TimesNewRomanPSMT-2e" x="106.396484"/>
       <use xlink:href="#TimesNewRomanPSMT-35" x="131.396484"/>
      </g>
     </g>
    </g>
    <g id="ytick_3">
     <g id="line2d_13">
      <g>
       <use xlink:href="#md6e7ccfd8f" x="47.519688" y="239.30977" style="stroke: #000000; stroke-width: 0.8"/>
      </g>
     </g>
     <g id="text_14">
      <!-- −1.0 -->
      <g transform="translate(22.380625 242.781645) scale(0.1 -0.1)">
       <use xlink:href="#TimesNewRomanPSMT-2212"/>
       <use xlink:href="#TimesNewRomanPSMT-31" x="56.396484"/>
       <use xlink:href="#TimesNewRomanPSMT-2e" x="106.396484"/>
       <use xlink:href="#TimesNewRomanPSMT-30" x="131.396484"/>
      </g>
     </g>
    </g>
    <g id="ytick_4">
     <g id="line2d_14">
      <g>
       <use xlink:href="#md6e7ccfd8f" x="47.519688" y="207.579572" style="stroke: #000000; stroke-width: 0.8"/>
      </g>
     </g>
     <g id="text_15">
      <!-- −0.5 -->
      <g transform="translate(22.380625 211.051447) scale(0.1 -0.1)">
       <use xlink:href="#TimesNewRomanPSMT-2212"/>
       <use xlink:href="#TimesNewRomanPSMT-30" x="56.396484"/>
       <use xlink:href="#TimesNewRomanPSMT-2e" x="106.396484"/>
       <use xlink:href="#TimesNewRomanPSMT-35" x="131.396484"/>
      </g>
     </g>
    </g>
    <g id="ytick_5">
     <g id="line2d_15">
      <g>
       <use xlink:href="#md6e7ccfd8f" x="47.519688" y="175.849375" style="stroke: #000000; stroke-width: 0.8"/>
      </g>
     </g>
     <g id="text_16">
      <!-- 0.0 -->
      <g transform="translate(28.019688 179.32125) scale(0.1 -0.1)">
       <use xlink:href="#TimesNewRomanPSMT-30"/>
       <use xlink:href="#TimesNewRomanPSMT-2e" x="50"/>
       <use xlink:href="#TimesNewRomanPSMT-30" x="75"/>
      </g>
     </g>
    </g>
    <g id="ytick_6">
     <g id="line2d_16">
      <g>
       <use xlink:href="#md6e7ccfd8f" x="47.519688" y="144.119178" style="stroke: #000000; stroke-width: 0.8"/>
      </g>
     </g>
     <g id="text_17">
      <!-- 0.5 -->
      <g transform="translate(28.019688 147.591053) scale(0.1 -0.1)">
       <use xlink:href="#TimesNewRomanPSMT-30"/>
       <use xlink:href="#TimesNewRomanPSMT-2e" x="50"/>
       <use xlink:href="#TimesNewRomanPSMT-35" x="75"/>
      </g>
     </g>
    </g>
    <g id="ytick_7">
     <g id="line2d_17">
      <g>
       <use xlink:href="#md6e7ccfd8f" x="47.519688" y="112.38898" style="stroke: #000000; stroke-width: 0.8"/>
      </g>
     </g>
     <g id="text_18">
      <!-- 1.0 -->
      <g transform="translate(28.019688 115.860855) scale(0.1 -0.1)">
       <use xlink:href="#TimesNewRomanPSMT-31"/>
       <use xlink:href="#TimesNewRomanPSMT-2e" x="50"/>
       <use xlink:href="#TimesNewRomanPSMT-30" x="75"/>
      </g>
     </g>
    </g>
    <g id="ytick_8">
     <g id="line2d_18">
      <g>
       <use xlink:href="#md6e7ccfd8f" x="47.519688" y="80.658783" style="stroke: #000000; stroke-width: 0.8"/>
      </g>
     </g>
     <g id="text_19">
      <!-- 1.5 -->
      <g transform="translate(28.019688 84.130658) scale(0.1 -0.1)">
       <use xlink:href="#TimesNewRomanPSMT-31"/>
       <use xlink:href="#TimesNewRomanPSMT-2e" x="50"/>
       <use xlink:href="#TimesNewRomanPSMT-35" x="75"/>
      </g>
     </g>
    </g>
    <g id="ytick_9">
     <g id="line2d_19">
      <g>
       <use xlink:href="#md6e7ccfd8f" x="47.519688" y="48.928586" style="stroke: #000000; stroke-width: 0.8"/>
      </g>
     </g>
     <g id="text_20">
      <!-- 2.0 -->
      <g transform="translate(28.019688 52.400461) scale(0.1 -0.1)">
       <use xlink:href="#TimesNewRomanPSMT-32"/>
       <use xlink:href="#TimesNewRomanPSMT-2e" x="50"/>
       <use xlink:href="#TimesNewRomanPSMT-30" x="75"/>
      </g>
     </g>
    </g>
    <g id="text_21">
     <!-- Online Sales Volume ($) -->
     <g transform="translate(15.81375 234.79375) rotate(-90) scale(0.12 -0.12)">
      <defs>
       <path id="TimesNewRomanPSMT-4f" d="M 2341 4334 
Q 3166 4334 3770 3707 
Q 4375 3081 4375 2144 
Q 4375 1178 3765 540 
Q 3156 -97 2291 -97 
Q 1416 -97 820 525 
Q 225 1147 225 2134 
Q 225 3144 913 3781 
Q 1509 4334 2341 4334 
z
M 2281 4106 
Q 1713 4106 1369 3684 
Q 941 3159 941 2147 
Q 941 1109 1384 550 
Q 1725 125 2284 125 
Q 2881 125 3270 590 
Q 3659 1056 3659 2059 
Q 3659 3147 3231 3681 
Q 2888 4106 2281 4106 
z
" transform="scale(0.015625)"/>
       <path id="TimesNewRomanPSMT-6e" d="M 1034 2341 
Q 1538 2947 1994 2947 
Q 2228 2947 2397 2830 
Q 2566 2713 2666 2444 
Q 2734 2256 2734 1869 
L 2734 647 
Q 2734 375 2778 278 
Q 2813 200 2889 156 
Q 2966 113 3172 113 
L 3172 0 
L 1756 0 
L 1756 113 
L 1816 113 
Q 2016 113 2095 173 
Q 2175 234 2206 353 
Q 2219 400 2219 647 
L 2219 1819 
Q 2219 2209 2117 2386 
Q 2016 2563 1775 2563 
Q 1403 2563 1034 2156 
L 1034 647 
Q 1034 356 1069 288 
Q 1113 197 1189 155 
Q 1266 113 1500 113 
L 1500 0 
L 84 0 
L 84 113 
L 147 113 
Q 366 113 442 223 
Q 519 334 519 647 
L 519 1709 
Q 519 2225 495 2337 
Q 472 2450 423 2490 
Q 375 2531 294 2531 
Q 206 2531 84 2484 
L 38 2597 
L 900 2947 
L 1034 2947 
L 1034 2341 
z
" transform="scale(0.015625)"/>
       <path id="TimesNewRomanPSMT-6c" d="M 1184 4444 
L 1184 647 
Q 1184 378 1223 290 
Q 1263 203 1344 158 
Q 1425 113 1647 113 
L 1647 0 
L 244 0 
L 244 113 
Q 441 113 512 153 
Q 584 194 625 287 
Q 666 381 666 647 
L 666 3247 
Q 666 3731 644 3842 
Q 622 3953 573 3993 
Q 525 4034 450 4034 
Q 369 4034 244 3984 
L 191 4094 
L 1044 4444 
L 1184 4444 
z
" transform="scale(0.015625)"/>
       <path id="TimesNewRomanPSMT-69" d="M 928 4444 
Q 1059 4444 1151 4351 
Q 1244 4259 1244 4128 
Q 1244 3997 1151 3903 
Q 1059 3809 928 3809 
Q 797 3809 703 3903 
Q 609 3997 609 4128 
Q 609 4259 701 4351 
Q 794 4444 928 4444 
z
M 1188 2947 
L 1188 647 
Q 1188 378 1227 289 
Q 1266 200 1342 156 
Q 1419 113 1622 113 
L 1622 0 
L 231 0 
L 231 113 
Q 441 113 512 153 
Q 584 194 626 287 
Q 669 381 669 647 
L 669 1750 
Q 669 2216 641 2353 
Q 619 2453 572 2492 
Q 525 2531 444 2531 
Q 356 2531 231 2484 
L 188 2597 
L 1050 2947 
L 1188 2947 
z
" transform="scale(0.015625)"/>
       <path id="TimesNewRomanPSMT-20" transform="scale(0.015625)"/>
       <path id="TimesNewRomanPSMT-53" d="M 2934 4334 
L 2934 2869 
L 2819 2869 
Q 2763 3291 2617 3541 
Q 2472 3791 2203 3937 
Q 1934 4084 1647 4084 
Q 1322 4084 1109 3886 
Q 897 3688 897 3434 
Q 897 3241 1031 3081 
Q 1225 2847 1953 2456 
Q 2547 2138 2764 1967 
Q 2981 1797 3098 1565 
Q 3216 1334 3216 1081 
Q 3216 600 2842 251 
Q 2469 -97 1881 -97 
Q 1697 -97 1534 -69 
Q 1438 -53 1133 45 
Q 828 144 747 144 
Q 669 144 623 97 
Q 578 50 556 -97 
L 441 -97 
L 441 1356 
L 556 1356 
Q 638 900 775 673 
Q 913 447 1195 297 
Q 1478 147 1816 147 
Q 2206 147 2432 353 
Q 2659 559 2659 841 
Q 2659 997 2573 1156 
Q 2488 1316 2306 1453 
Q 2184 1547 1640 1851 
Q 1097 2156 867 2337 
Q 638 2519 519 2737 
Q 400 2956 400 3219 
Q 400 3675 750 4004 
Q 1100 4334 1641 4334 
Q 1978 4334 2356 4169 
Q 2531 4091 2603 4091 
Q 2684 4091 2736 4139 
Q 2788 4188 2819 4334 
L 2934 4334 
z
" transform="scale(0.015625)"/>
       <path id="TimesNewRomanPSMT-73" d="M 2050 2947 
L 2050 1972 
L 1947 1972 
Q 1828 2431 1642 2597 
Q 1456 2763 1169 2763 
Q 950 2763 815 2647 
Q 681 2531 681 2391 
Q 681 2216 781 2091 
Q 878 1963 1175 1819 
L 1631 1597 
Q 2266 1288 2266 781 
Q 2266 391 1970 151 
Q 1675 -88 1309 -88 
Q 1047 -88 709 6 
Q 606 38 541 38 
Q 469 38 428 -44 
L 325 -44 
L 325 978 
L 428 978 
Q 516 541 762 319 
Q 1009 97 1316 97 
Q 1531 97 1667 223 
Q 1803 350 1803 528 
Q 1803 744 1651 891 
Q 1500 1038 1047 1263 
Q 594 1488 453 1669 
Q 313 1847 313 2119 
Q 313 2472 555 2709 
Q 797 2947 1181 2947 
Q 1350 2947 1591 2875 
Q 1750 2828 1803 2828 
Q 1853 2828 1881 2850 
Q 1909 2872 1947 2947 
L 2050 2947 
z
" transform="scale(0.015625)"/>
       <path id="TimesNewRomanPSMT-56" d="M 4544 4238 
L 4544 4122 
Q 4319 4081 4203 3978 
Q 4038 3825 3909 3509 
L 2431 -97 
L 2316 -97 
L 728 3556 
Q 606 3838 556 3900 
Q 478 3997 364 4051 
Q 250 4106 56 4122 
L 56 4238 
L 1788 4238 
L 1788 4122 
Q 1494 4094 1406 4022 
Q 1319 3950 1319 3838 
Q 1319 3681 1463 3350 
L 2541 866 
L 3541 3319 
Q 3688 3681 3688 3822 
Q 3688 3913 3597 3995 
Q 3506 4078 3291 4113 
Q 3275 4116 3238 4122 
L 3238 4238 
L 4544 4238 
z
" transform="scale(0.015625)"/>
       <path id="TimesNewRomanPSMT-6f" d="M 1600 2947 
Q 2250 2947 2644 2453 
Q 2978 2031 2978 1484 
Q 2978 1100 2793 706 
Q 2609 313 2286 112 
Q 1963 -88 1566 -88 
Q 919 -88 538 428 
Q 216 863 216 1403 
Q 216 1797 411 2186 
Q 606 2575 925 2761 
Q 1244 2947 1600 2947 
z
M 1503 2744 
Q 1338 2744 1170 2645 
Q 1003 2547 900 2300 
Q 797 2053 797 1666 
Q 797 1041 1045 587 
Q 1294 134 1700 134 
Q 2003 134 2200 384 
Q 2397 634 2397 1244 
Q 2397 2006 2069 2444 
Q 1847 2744 1503 2744 
z
" transform="scale(0.015625)"/>
       <path id="TimesNewRomanPSMT-75" d="M 2709 2863 
L 2709 1128 
Q 2709 631 2732 520 
Q 2756 409 2807 365 
Q 2859 322 2928 322 
Q 3025 322 3147 375 
L 3191 266 
L 2334 -88 
L 2194 -88 
L 2194 519 
Q 1825 119 1631 15 
Q 1438 -88 1222 -88 
Q 981 -88 804 51 
Q 628 191 559 409 
Q 491 628 491 1028 
L 491 2306 
Q 491 2509 447 2587 
Q 403 2666 317 2708 
Q 231 2750 6 2747 
L 6 2863 
L 1009 2863 
L 1009 947 
Q 1009 547 1148 422 
Q 1288 297 1484 297 
Q 1619 297 1789 381 
Q 1959 466 2194 703 
L 2194 2325 
Q 2194 2569 2105 2655 
Q 2016 2741 1734 2747 
L 1734 2863 
L 2709 2863 
z
" transform="scale(0.015625)"/>
       <path id="TimesNewRomanPSMT-6d" d="M 1050 2338 
Q 1363 2650 1419 2697 
Q 1559 2816 1721 2881 
Q 1884 2947 2044 2947 
Q 2313 2947 2506 2790 
Q 2700 2634 2766 2338 
Q 3088 2713 3309 2830 
Q 3531 2947 3766 2947 
Q 3994 2947 4170 2830 
Q 4347 2713 4450 2447 
Q 4519 2266 4519 1878 
L 4519 647 
Q 4519 378 4559 278 
Q 4591 209 4675 161 
Q 4759 113 4950 113 
L 4950 0 
L 3538 0 
L 3538 113 
L 3597 113 
Q 3781 113 3884 184 
Q 3956 234 3988 344 
Q 4000 397 4000 647 
L 4000 1878 
Q 4000 2228 3916 2372 
Q 3794 2572 3525 2572 
Q 3359 2572 3192 2489 
Q 3025 2406 2788 2181 
L 2781 2147 
L 2788 2013 
L 2788 647 
Q 2788 353 2820 281 
Q 2853 209 2943 161 
Q 3034 113 3253 113 
L 3253 0 
L 1806 0 
L 1806 113 
Q 2044 113 2133 169 
Q 2222 225 2256 338 
Q 2272 391 2272 647 
L 2272 1878 
Q 2272 2228 2169 2381 
Q 2031 2581 1784 2581 
Q 1616 2581 1450 2491 
Q 1191 2353 1050 2181 
L 1050 647 
Q 1050 366 1089 281 
Q 1128 197 1204 155 
Q 1281 113 1516 113 
L 1516 0 
L 100 0 
L 100 113 
Q 297 113 375 155 
Q 453 197 493 289 
Q 534 381 534 647 
L 534 1741 
Q 534 2213 506 2350 
Q 484 2453 437 2492 
Q 391 2531 309 2531 
Q 222 2531 100 2484 
L 53 2597 
L 916 2947 
L 1050 2947 
L 1050 2338 
z
" transform="scale(0.015625)"/>
       <path id="TimesNewRomanPSMT-28" d="M 1988 -1253 
L 1988 -1369 
Q 1516 -1131 1200 -813 
Q 750 -359 506 256 
Q 263 872 263 1534 
Q 263 2503 741 3301 
Q 1219 4100 1988 4444 
L 1988 4313 
Q 1603 4100 1356 3731 
Q 1109 3363 987 2797 
Q 866 2231 866 1616 
Q 866 947 969 400 
Q 1050 -31 1165 -292 
Q 1281 -553 1476 -793 
Q 1672 -1034 1988 -1253 
z
" transform="scale(0.015625)"/>
       <path id="TimesNewRomanPSMT-24" d="M 338 1044 
L 475 1044 
Q 509 616 743 387 
Q 978 159 1444 116 
L 1444 1941 
Q 741 2375 506 2709 
Q 341 2947 341 3288 
Q 341 3672 627 3959 
Q 913 4247 1444 4306 
L 1444 4594 
L 1644 4594 
L 1644 4306 
Q 1900 4291 2075 4247 
Q 2166 4225 2675 4031 
L 2675 3097 
L 2553 3097 
Q 2513 3594 2295 3823 
Q 2078 4053 1644 4097 
L 1644 2509 
Q 2431 1959 2654 1698 
Q 2878 1438 2878 1050 
Q 2878 619 2551 290 
Q 2225 -38 1644 -88 
L 1644 -488 
L 1444 -488 
L 1444 -88 
Q 1150 -75 897 -20 
Q 644 34 338 159 
L 338 1044 
z
M 1444 2641 
L 1444 4094 
Q 1131 4056 979 3895 
Q 828 3734 828 3491 
Q 828 3263 965 3064 
Q 1103 2866 1444 2641 
z
M 1644 116 
Q 1878 156 2003 231 
Q 2178 341 2279 517 
Q 2381 694 2381 894 
Q 2381 1100 2257 1284 
Q 2134 1469 1644 1806 
L 1644 116 
z
" transform="scale(0.015625)"/>
       <path id="TimesNewRomanPSMT-29" d="M 144 4313 
L 144 4444 
Q 619 4209 934 3891 
Q 1381 3434 1625 2820 
Q 1869 2206 1869 1541 
Q 1869 572 1392 -226 
Q 916 -1025 144 -1369 
L 144 -1253 
Q 528 -1038 776 -670 
Q 1025 -303 1145 264 
Q 1266 831 1266 1447 
Q 1266 2113 1163 2663 
Q 1084 3094 967 3353 
Q 850 3613 656 3853 
Q 463 4094 144 4313 
z
" transform="scale(0.015625)"/>
      </defs>
      <use xlink:href="#TimesNewRomanPSMT-4f"/>
      <use xlink:href="#TimesNewRomanPSMT-6e" x="72.216797"/>
      <use xlink:href="#TimesNewRomanPSMT-6c" x="122.216797"/>
      <use xlink:href="#TimesNewRomanPSMT-69" x="150"/>
      <use xlink:href="#TimesNewRomanPSMT-6e" x="177.783203"/>
      <use xlink:href="#TimesNewRomanPSMT-65" x="227.783203"/>
      <use xlink:href="#TimesNewRomanPSMT-20" x="272.167969"/>
      <use xlink:href="#TimesNewRomanPSMT-53" x="297.167969"/>
      <use xlink:href="#TimesNewRomanPSMT-61" x="352.783203"/>
      <use xlink:href="#TimesNewRomanPSMT-6c" x="397.167969"/>
      <use xlink:href="#TimesNewRomanPSMT-65" x="424.951172"/>
      <use xlink:href="#TimesNewRomanPSMT-73" x="469.335938"/>
      <use xlink:href="#TimesNewRomanPSMT-20" x="508.251953"/>
      <use xlink:href="#TimesNewRomanPSMT-56" x="531.501953"/>
      <use xlink:href="#TimesNewRomanPSMT-6f" x="590.84375"/>
      <use xlink:href="#TimesNewRomanPSMT-6c" x="640.84375"/>
      <use xlink:href="#TimesNewRomanPSMT-75" x="668.626953"/>
      <use xlink:href="#TimesNewRomanPSMT-6d" x="718.626953"/>
      <use xlink:href="#TimesNewRomanPSMT-65" x="796.410156"/>
      <use xlink:href="#TimesNewRomanPSMT-20" x="840.794922"/>
      <use xlink:href="#TimesNewRomanPSMT-28" x="865.794922"/>
      <use xlink:href="#TimesNewRomanPSMT-24" x="899.095703"/>
      <use xlink:href="#TimesNewRomanPSMT-29" x="949.095703"/>
     </g>
    </g>
    <g id="text_22">
     <!-- 1e7 -->
     <g transform="translate(47.519688 34.249375) scale(0.1 -0.1)">
      <use xlink:href="#TimesNewRomanPSMT-31"/>
      <use xlink:href="#TimesNewRomanPSMT-65" x="50"/>
      <use xlink:href="#TimesNewRomanPSMT-37" x="94.384766"/>
     </g>
    </g>
   </g>
   <g id="patch_3">
    <path d="M 47.519688 314.449375 
L 47.519688 37.249375 
" style="fill: none; stroke: #000000; stroke-width: 0.8; stroke-linejoin: miter; stroke-linecap: square"/>
   </g>
   <g id="patch_4">
    <path d="M 436.319687 314.449375 
L 436.319687 37.249375 
" style="fill: none; stroke: #000000; stroke-width: 0.8; stroke-linejoin: miter; stroke-linecap: square"/>
   </g>
   <g id="patch_5">
    <path d="M 47.519687 314.449375 
L 436.319687 314.449375 
" style="fill: none; stroke: #000000; stroke-width: 0.8; stroke-linejoin: miter; stroke-linecap: square"/>
   </g>
   <g id="patch_6">
    <path d="M 47.519687 37.249375 
L 436.319687 37.249375 
" style="fill: none; stroke: #000000; stroke-width: 0.8; stroke-linejoin: miter; stroke-linecap: square"/>
   </g>
   <g id="text_23">
    <!-- Online Sales Volume from 1980 to 1989 ($)  -->
    <g transform="translate(117.350312 17.249375) scale(0.14 -0.14)">
     <defs>
      <path id="TimesNewRomanPSMT-66" d="M 1319 2638 
L 1319 756 
Q 1319 356 1406 250 
Q 1522 113 1716 113 
L 1975 113 
L 1975 0 
L 266 0 
L 266 113 
L 394 113 
Q 519 113 622 175 
Q 725 238 764 344 
Q 803 450 803 756 
L 803 2638 
L 247 2638 
L 247 2863 
L 803 2863 
L 803 3050 
Q 803 3478 940 3775 
Q 1078 4072 1361 4255 
Q 1644 4438 1997 4438 
Q 2325 4438 2600 4225 
Q 2781 4084 2781 3909 
Q 2781 3816 2700 3733 
Q 2619 3650 2525 3650 
Q 2453 3650 2373 3701 
Q 2294 3753 2178 3923 
Q 2063 4094 1966 4153 
Q 1869 4213 1750 4213 
Q 1606 4213 1506 4136 
Q 1406 4059 1362 3898 
Q 1319 3738 1319 3069 
L 1319 2863 
L 2056 2863 
L 2056 2638 
L 1319 2638 
z
" transform="scale(0.015625)"/>
      <path id="TimesNewRomanPSMT-74" d="M 1031 3803 
L 1031 2863 
L 1700 2863 
L 1700 2644 
L 1031 2644 
L 1031 788 
Q 1031 509 1111 412 
Q 1191 316 1316 316 
Q 1419 316 1516 380 
Q 1613 444 1666 569 
L 1788 569 
Q 1678 263 1478 108 
Q 1278 -47 1066 -47 
Q 922 -47 784 33 
Q 647 113 581 261 
Q 516 409 516 719 
L 516 2644 
L 63 2644 
L 63 2747 
Q 234 2816 414 2980 
Q 594 3144 734 3369 
Q 806 3488 934 3803 
L 1031 3803 
z
" transform="scale(0.015625)"/>
     </defs>
     <use xlink:href="#TimesNewRomanPSMT-4f"/>
     <use xlink:href="#TimesNewRomanPSMT-6e" x="72.216797"/>
     <use xlink:href="#TimesNewRomanPSMT-6c" x="122.216797"/>
     <use xlink:href="#TimesNewRomanPSMT-69" x="150"/>
     <use xlink:href="#TimesNewRomanPSMT-6e" x="177.783203"/>
     <use xlink:href="#TimesNewRomanPSMT-65" x="227.783203"/>
     <use xlink:href="#TimesNewRomanPSMT-20" x="272.167969"/>
     <use xlink:href="#TimesNewRomanPSMT-53" x="297.167969"/>
     <use xlink:href="#TimesNewRomanPSMT-61" x="352.783203"/>
     <use xlink:href="#TimesNewRomanPSMT-6c" x="397.167969"/>
     <use xlink:href="#TimesNewRomanPSMT-65" x="424.951172"/>
     <use xlink:href="#TimesNewRomanPSMT-73" x="469.335938"/>
     <use xlink:href="#TimesNewRomanPSMT-20" x="508.251953"/>
     <use xlink:href="#TimesNewRomanPSMT-56" x="531.501953"/>
     <use xlink:href="#TimesNewRomanPSMT-6f" x="590.84375"/>
     <use xlink:href="#TimesNewRomanPSMT-6c" x="640.84375"/>
     <use xlink:href="#TimesNewRomanPSMT-75" x="668.626953"/>
     <use xlink:href="#TimesNewRomanPSMT-6d" x="718.626953"/>
     <use xlink:href="#TimesNewRomanPSMT-65" x="796.410156"/>
     <use xlink:href="#TimesNewRomanPSMT-20" x="840.794922"/>
     <use xlink:href="#TimesNewRomanPSMT-66" x="865.794922"/>
     <use xlink:href="#TimesNewRomanPSMT-72" x="899.095703"/>
     <use xlink:href="#TimesNewRomanPSMT-6f" x="932.396484"/>
     <use xlink:href="#TimesNewRomanPSMT-6d" x="982.396484"/>
     <use xlink:href="#TimesNewRomanPSMT-20" x="1060.179688"/>
     <use xlink:href="#TimesNewRomanPSMT-31" x="1085.179688"/>
     <use xlink:href="#TimesNewRomanPSMT-39" x="1135.179688"/>
     <use xlink:href="#TimesNewRomanPSMT-38" x="1185.179688"/>
     <use xlink:href="#TimesNewRomanPSMT-30" x="1235.179688"/>
     <use xlink:href="#TimesNewRomanPSMT-20" x="1285.179688"/>
     <use xlink:href="#TimesNewRomanPSMT-74" x="1310.179688"/>
     <use xlink:href="#TimesNewRomanPSMT-6f" x="1337.962891"/>
     <use xlink:href="#TimesNewRomanPSMT-20" x="1387.962891"/>
     <use xlink:href="#TimesNewRomanPSMT-31" x="1412.962891"/>
     <use xlink:href="#TimesNewRomanPSMT-39" x="1462.962891"/>
     <use xlink:href="#TimesNewRomanPSMT-38" x="1512.962891"/>
     <use xlink:href="#TimesNewRomanPSMT-39" x="1562.962891"/>
     <use xlink:href="#TimesNewRomanPSMT-20" x="1612.962891"/>
     <use xlink:href="#TimesNewRomanPSMT-28" x="1637.962891"/>
     <use xlink:href="#TimesNewRomanPSMT-24" x="1671.263672"/>
     <use xlink:href="#TimesNewRomanPSMT-29" x="1721.263672"/>
     <use xlink:href="#TimesNewRomanPSMT-20" x="1754.564453"/>
    </g>
   </g>
   <g id="legend_1">
    <g id="patch_7">
     <path d="M 453.095687 149.973594 
L 473.095687 149.973594 
L 473.095687 142.973594 
L 453.095687 142.973594 
z
" style="fill: #1f77b4"/>
    </g>
    <g id="text_24">
     <!-- Luxury Consumers -->
     <g transform="translate(481.095687 149.973594) scale(0.1 -0.1)">
      <defs>
       <path id="TimesNewRomanPSMT-4c" d="M 3669 1172 
L 3772 1150 
L 3409 0 
L 128 0 
L 128 116 
L 288 116 
Q 556 116 672 291 
Q 738 391 738 753 
L 738 3488 
Q 738 3884 650 3984 
Q 528 4122 288 4122 
L 128 4122 
L 128 4238 
L 2047 4238 
L 2047 4122 
Q 1709 4125 1573 4059 
Q 1438 3994 1388 3894 
Q 1338 3794 1338 3416 
L 1338 753 
Q 1338 494 1388 397 
Q 1425 331 1503 300 
Q 1581 269 1991 269 
L 2300 269 
Q 2788 269 2984 341 
Q 3181 413 3343 595 
Q 3506 778 3669 1172 
z
" transform="scale(0.015625)"/>
       <path id="TimesNewRomanPSMT-78" d="M 84 2863 
L 1431 2863 
L 1431 2747 
Q 1303 2747 1251 2703 
Q 1200 2659 1200 2588 
Q 1200 2513 1309 2356 
Q 1344 2306 1413 2200 
L 1616 1875 
L 1850 2200 
Q 2075 2509 2075 2591 
Q 2075 2656 2022 2701 
Q 1969 2747 1850 2747 
L 1850 2863 
L 2819 2863 
L 2819 2747 
Q 2666 2738 2553 2663 
Q 2400 2556 2134 2200 
L 1744 1678 
L 2456 653 
Q 2719 275 2831 198 
Q 2944 122 3122 113 
L 3122 0 
L 1772 0 
L 1772 113 
Q 1913 113 1991 175 
Q 2050 219 2050 291 
Q 2050 363 1850 653 
L 1431 1266 
L 972 653 
Q 759 369 759 316 
Q 759 241 829 180 
Q 900 119 1041 113 
L 1041 0 
L 106 0 
L 106 113 
Q 219 128 303 191 
Q 422 281 703 653 
L 1303 1450 
L 759 2238 
Q 528 2575 401 2661 
Q 275 2747 84 2747 
L 84 2863 
z
" transform="scale(0.015625)"/>
       <path id="TimesNewRomanPSMT-79" d="M 38 2863 
L 1372 2863 
L 1372 2747 
L 1306 2747 
Q 1166 2747 1095 2686 
Q 1025 2625 1025 2534 
Q 1025 2413 1128 2197 
L 1825 753 
L 2466 2334 
Q 2519 2463 2519 2588 
Q 2519 2644 2497 2672 
Q 2472 2706 2419 2726 
Q 2366 2747 2231 2747 
L 2231 2863 
L 3163 2863 
L 3163 2747 
Q 3047 2734 2984 2696 
Q 2922 2659 2847 2556 
Q 2819 2513 2741 2316 
L 1575 -541 
Q 1406 -956 1132 -1168 
Q 859 -1381 606 -1381 
Q 422 -1381 303 -1275 
Q 184 -1169 184 -1031 
Q 184 -900 270 -820 
Q 356 -741 506 -741 
Q 609 -741 788 -809 
Q 913 -856 944 -856 
Q 1038 -856 1148 -759 
Q 1259 -663 1372 -384 
L 1575 113 
L 547 2272 
Q 500 2369 397 2513 
Q 319 2622 269 2659 
Q 197 2709 38 2747 
L 38 2863 
z
" transform="scale(0.015625)"/>
       <path id="TimesNewRomanPSMT-43" d="M 3853 4334 
L 3950 2894 
L 3853 2894 
Q 3659 3541 3300 3825 
Q 2941 4109 2438 4109 
Q 2016 4109 1675 3895 
Q 1334 3681 1139 3212 
Q 944 2744 944 2047 
Q 944 1472 1128 1050 
Q 1313 628 1683 403 
Q 2053 178 2528 178 
Q 2941 178 3256 354 
Q 3572 531 3950 1056 
L 4047 994 
Q 3728 428 3303 165 
Q 2878 -97 2294 -97 
Q 1241 -97 663 684 
Q 231 1266 231 2053 
Q 231 2688 515 3219 
Q 800 3750 1298 4042 
Q 1797 4334 2388 4334 
Q 2847 4334 3294 4109 
Q 3425 4041 3481 4041 
Q 3566 4041 3628 4100 
Q 3709 4184 3744 4334 
L 3853 4334 
z
" transform="scale(0.015625)"/>
      </defs>
      <use xlink:href="#TimesNewRomanPSMT-4c"/>
      <use xlink:href="#TimesNewRomanPSMT-75" x="61.083984"/>
      <use xlink:href="#TimesNewRomanPSMT-78" x="111.083984"/>
      <use xlink:href="#TimesNewRomanPSMT-75" x="161.083984"/>
      <use xlink:href="#TimesNewRomanPSMT-72" x="211.083984"/>
      <use xlink:href="#TimesNewRomanPSMT-79" x="244.384766"/>
      <use xlink:href="#TimesNewRomanPSMT-20" x="294.384766"/>
      <use xlink:href="#TimesNewRomanPSMT-43" x="319.384766"/>
      <use xlink:href="#TimesNewRomanPSMT-6f" x="386.083984"/>
      <use xlink:href="#TimesNewRomanPSMT-6e" x="436.083984"/>
      <use xlink:href="#TimesNewRomanPSMT-73" x="486.083984"/>
      <use xlink:href="#TimesNewRomanPSMT-75" x="525"/>
      <use xlink:href="#TimesNewRomanPSMT-6d" x="575"/>
      <use xlink:href="#TimesNewRomanPSMT-65" x="652.783203"/>
      <use xlink:href="#TimesNewRomanPSMT-72" x="697.167969"/>
      <use xlink:href="#TimesNewRomanPSMT-73" x="730.46875"/>
     </g>
    </g>
    <g id="patch_8">
     <path d="M 453.095687 164.131406 
L 473.095687 164.131406 
L 473.095687 157.131406 
L 453.095687 157.131406 
z
" style="fill: #aec7e8"/>
    </g>
    <g id="text_25">
     <!-- Budget Shoppers -->
     <g transform="translate(481.095687 164.131406) scale(0.1 -0.1)">
      <defs>
       <path id="TimesNewRomanPSMT-42" d="M 2956 2163 
Q 3397 2069 3616 1863 
Q 3919 1575 3919 1159 
Q 3919 844 3719 555 
Q 3519 266 3170 133 
Q 2822 0 2106 0 
L 106 0 
L 106 116 
L 266 116 
Q 531 116 647 284 
Q 719 394 719 750 
L 719 3488 
Q 719 3881 628 3984 
Q 506 4122 266 4122 
L 106 4122 
L 106 4238 
L 1938 4238 
Q 2450 4238 2759 4163 
Q 3228 4050 3475 3764 
Q 3722 3478 3722 3106 
Q 3722 2788 3528 2536 
Q 3334 2284 2956 2163 
z
M 1319 2331 
Q 1434 2309 1582 2298 
Q 1731 2288 1909 2288 
Q 2366 2288 2595 2386 
Q 2825 2484 2947 2687 
Q 3069 2891 3069 3131 
Q 3069 3503 2766 3765 
Q 2463 4028 1881 4028 
Q 1569 4028 1319 3959 
L 1319 2331 
z
M 1319 306 
Q 1681 222 2034 222 
Q 2600 222 2897 476 
Q 3194 731 3194 1106 
Q 3194 1353 3059 1581 
Q 2925 1809 2622 1940 
Q 2319 2072 1872 2072 
Q 1678 2072 1540 2065 
Q 1403 2059 1319 2044 
L 1319 306 
z
" transform="scale(0.015625)"/>
       <path id="TimesNewRomanPSMT-64" d="M 2222 322 
Q 2013 103 1813 7 
Q 1613 -88 1381 -88 
Q 913 -88 563 304 
Q 213 697 213 1313 
Q 213 1928 600 2439 
Q 988 2950 1597 2950 
Q 1975 2950 2222 2709 
L 2222 3238 
Q 2222 3728 2198 3840 
Q 2175 3953 2125 3993 
Q 2075 4034 2000 4034 
Q 1919 4034 1784 3984 
L 1744 4094 
L 2597 4444 
L 2738 4444 
L 2738 1134 
Q 2738 631 2761 520 
Q 2784 409 2836 365 
Q 2888 322 2956 322 
Q 3041 322 3181 375 
L 3216 266 
L 2366 -88 
L 2222 -88 
L 2222 322 
z
M 2222 541 
L 2222 2016 
Q 2203 2228 2109 2403 
Q 2016 2578 1861 2667 
Q 1706 2756 1559 2756 
Q 1284 2756 1069 2509 
Q 784 2184 784 1559 
Q 784 928 1059 592 
Q 1334 256 1672 256 
Q 1956 256 2222 541 
z
" transform="scale(0.015625)"/>
       <path id="TimesNewRomanPSMT-67" d="M 966 1044 
Q 703 1172 562 1401 
Q 422 1631 422 1909 
Q 422 2334 742 2640 
Q 1063 2947 1563 2947 
Q 1972 2947 2272 2747 
L 2878 2747 
Q 3013 2747 3034 2739 
Q 3056 2731 3066 2713 
Q 3084 2684 3084 2613 
Q 3084 2531 3069 2500 
Q 3059 2484 3036 2475 
Q 3013 2466 2878 2466 
L 2506 2466 
Q 2681 2241 2681 1891 
Q 2681 1491 2375 1206 
Q 2069 922 1553 922 
Q 1341 922 1119 984 
Q 981 866 932 777 
Q 884 688 884 625 
Q 884 572 936 522 
Q 988 472 1138 450 
Q 1225 438 1575 428 
Q 2219 413 2409 384 
Q 2700 344 2873 169 
Q 3047 -6 3047 -263 
Q 3047 -616 2716 -925 
Q 2228 -1381 1444 -1381 
Q 841 -1381 425 -1109 
Q 191 -953 191 -784 
Q 191 -709 225 -634 
Q 278 -519 444 -313 
Q 466 -284 763 25 
Q 600 122 533 198 
Q 466 275 466 372 
Q 466 481 555 628 
Q 644 775 966 1044 
z
M 1509 2797 
Q 1278 2797 1122 2612 
Q 966 2428 966 2047 
Q 966 1553 1178 1281 
Q 1341 1075 1591 1075 
Q 1828 1075 1981 1253 
Q 2134 1431 2134 1813 
Q 2134 2309 1919 2591 
Q 1759 2797 1509 2797 
z
M 934 0 
Q 788 -159 713 -296 
Q 638 -434 638 -550 
Q 638 -700 819 -813 
Q 1131 -1006 1722 -1006 
Q 2284 -1006 2551 -807 
Q 2819 -609 2819 -384 
Q 2819 -222 2659 -153 
Q 2497 -84 2016 -72 
Q 1313 -53 934 0 
z
" transform="scale(0.015625)"/>
       <path id="TimesNewRomanPSMT-68" d="M 1041 4444 
L 1041 2350 
Q 1388 2731 1591 2839 
Q 1794 2947 1997 2947 
Q 2241 2947 2416 2812 
Q 2591 2678 2675 2391 
Q 2734 2191 2734 1659 
L 2734 647 
Q 2734 375 2778 275 
Q 2809 200 2884 156 
Q 2959 113 3159 113 
L 3159 0 
L 1753 0 
L 1753 113 
L 1819 113 
Q 2019 113 2097 173 
Q 2175 234 2206 353 
Q 2216 403 2216 647 
L 2216 1659 
Q 2216 2128 2167 2275 
Q 2119 2422 2012 2495 
Q 1906 2569 1756 2569 
Q 1603 2569 1437 2487 
Q 1272 2406 1041 2159 
L 1041 647 
Q 1041 353 1073 281 
Q 1106 209 1195 161 
Q 1284 113 1503 113 
L 1503 0 
L 84 0 
L 84 113 
Q 275 113 384 172 
Q 447 203 484 290 
Q 522 378 522 647 
L 522 3238 
Q 522 3728 498 3840 
Q 475 3953 426 3993 
Q 378 4034 297 4034 
Q 231 4034 84 3984 
L 41 4094 
L 897 4444 
L 1041 4444 
z
" transform="scale(0.015625)"/>
       <path id="TimesNewRomanPSMT-70" d="M -6 2578 
L 875 2934 
L 994 2934 
L 994 2266 
Q 1216 2644 1439 2795 
Q 1663 2947 1909 2947 
Q 2341 2947 2628 2609 
Q 2981 2197 2981 1534 
Q 2981 794 2556 309 
Q 2206 -88 1675 -88 
Q 1444 -88 1275 -22 
Q 1150 25 994 166 
L 994 -706 
Q 994 -1000 1030 -1079 
Q 1066 -1159 1155 -1206 
Q 1244 -1253 1478 -1253 
L 1478 -1369 
L -22 -1369 
L -22 -1253 
L 56 -1253 
Q 228 -1256 350 -1188 
Q 409 -1153 442 -1076 
Q 475 -1000 475 -688 
L 475 2019 
Q 475 2297 450 2372 
Q 425 2447 370 2484 
Q 316 2522 222 2522 
Q 147 2522 31 2478 
L -6 2578 
z
M 994 2081 
L 994 1013 
Q 994 666 1022 556 
Q 1066 375 1236 237 
Q 1406 100 1666 100 
Q 1978 100 2172 344 
Q 2425 663 2425 1241 
Q 2425 1897 2138 2250 
Q 1938 2494 1663 2494 
Q 1513 2494 1366 2419 
Q 1253 2363 994 2081 
z
" transform="scale(0.015625)"/>
      </defs>
      <use xlink:href="#TimesNewRomanPSMT-42"/>
      <use xlink:href="#TimesNewRomanPSMT-75" x="66.699219"/>
      <use xlink:href="#TimesNewRomanPSMT-64" x="116.699219"/>
      <use xlink:href="#TimesNewRomanPSMT-67" x="166.699219"/>
      <use xlink:href="#TimesNewRomanPSMT-65" x="216.699219"/>
      <use xlink:href="#TimesNewRomanPSMT-74" x="261.083984"/>
      <use xlink:href="#TimesNewRomanPSMT-20" x="288.867188"/>
      <use xlink:href="#TimesNewRomanPSMT-53" x="313.867188"/>
      <use xlink:href="#TimesNewRomanPSMT-68" x="369.482422"/>
      <use xlink:href="#TimesNewRomanPSMT-6f" x="419.482422"/>
      <use xlink:href="#TimesNewRomanPSMT-70" x="469.482422"/>
      <use xlink:href="#TimesNewRomanPSMT-70" x="519.482422"/>
      <use xlink:href="#TimesNewRomanPSMT-65" x="569.482422"/>
      <use xlink:href="#TimesNewRomanPSMT-72" x="613.867188"/>
      <use xlink:href="#TimesNewRomanPSMT-73" x="647.167969"/>
     </g>
    </g>
    <g id="patch_9">
     <path d="M 453.095687 178.289219 
L 473.095687 178.289219 
L 473.095687 171.289219 
L 453.095687 171.289219 
z
" style="fill: #ff7f0e"/>
    </g>
    <g id="text_26">
     <!-- Urban Shoppers -->
     <g transform="translate(481.095687 178.289219) scale(0.1 -0.1)">
      <defs>
       <path id="TimesNewRomanPSMT-55" d="M 3053 4122 
L 3053 4238 
L 4553 4238 
L 4553 4122 
L 4394 4122 
Q 4144 4122 4009 3913 
Q 3944 3816 3944 3463 
L 3944 1744 
Q 3944 1106 3817 754 
Q 3691 403 3320 151 
Q 2950 -100 2313 -100 
Q 1619 -100 1259 140 
Q 900 381 750 788 
Q 650 1066 650 1831 
L 650 3488 
Q 650 3878 542 4000 
Q 434 4122 194 4122 
L 34 4122 
L 34 4238 
L 1866 4238 
L 1866 4122 
L 1703 4122 
Q 1441 4122 1328 3956 
Q 1250 3844 1250 3488 
L 1250 1641 
Q 1250 1394 1295 1075 
Q 1341 756 1459 578 
Q 1578 400 1801 284 
Q 2025 169 2350 169 
Q 2766 169 3094 350 
Q 3422 531 3542 814 
Q 3663 1097 3663 1772 
L 3663 3488 
Q 3663 3884 3575 3984 
Q 3453 4122 3213 4122 
L 3053 4122 
z
" transform="scale(0.015625)"/>
       <path id="TimesNewRomanPSMT-62" d="M 984 2369 
Q 1400 2947 1881 2947 
Q 2322 2947 2650 2570 
Q 2978 2194 2978 1541 
Q 2978 778 2472 313 
Q 2038 -88 1503 -88 
Q 1253 -88 995 3 
Q 738 94 469 275 
L 469 3241 
Q 469 3728 445 3840 
Q 422 3953 372 3993 
Q 322 4034 247 4034 
Q 159 4034 28 3984 
L -16 4094 
L 844 4444 
L 984 4444 
L 984 2369 
z
M 984 2169 
L 984 456 
Q 1144 300 1314 220 
Q 1484 141 1663 141 
Q 1947 141 2192 453 
Q 2438 766 2438 1363 
Q 2438 1913 2192 2208 
Q 1947 2503 1634 2503 
Q 1469 2503 1303 2419 
Q 1178 2356 984 2169 
z
" transform="scale(0.015625)"/>
      </defs>
      <use xlink:href="#TimesNewRomanPSMT-55"/>
      <use xlink:href="#TimesNewRomanPSMT-72" x="72.216797"/>
      <use xlink:href="#TimesNewRomanPSMT-62" x="105.517578"/>
      <use xlink:href="#TimesNewRomanPSMT-61" x="155.517578"/>
      <use xlink:href="#TimesNewRomanPSMT-6e" x="199.902344"/>
      <use xlink:href="#TimesNewRomanPSMT-20" x="249.902344"/>
      <use xlink:href="#TimesNewRomanPSMT-53" x="274.902344"/>
      <use xlink:href="#TimesNewRomanPSMT-68" x="330.517578"/>
      <use xlink:href="#TimesNewRomanPSMT-6f" x="380.517578"/>
      <use xlink:href="#TimesNewRomanPSMT-70" x="430.517578"/>
      <use xlink:href="#TimesNewRomanPSMT-70" x="480.517578"/>
      <use xlink:href="#TimesNewRomanPSMT-65" x="530.517578"/>
      <use xlink:href="#TimesNewRomanPSMT-72" x="574.902344"/>
      <use xlink:href="#TimesNewRomanPSMT-73" x="608.203125"/>
     </g>
    </g>
    <g id="patch_10">
     <path d="M 453.095687 192.428281 
L 473.095687 192.428281 
L 473.095687 185.428281 
L 453.095687 185.428281 
z
" style="fill: #ffbb78"/>
    </g>
    <g id="text_27">
     <!-- International Customers -->
     <g transform="translate(481.095687 192.428281) scale(0.1 -0.1)">
      <defs>
       <path id="TimesNewRomanPSMT-49" d="M 1975 116 
L 1975 0 
L 159 0 
L 159 116 
L 309 116 
Q 572 116 691 269 
Q 766 369 766 750 
L 766 3488 
Q 766 3809 725 3913 
Q 694 3991 597 4047 
Q 459 4122 309 4122 
L 159 4122 
L 159 4238 
L 1975 4238 
L 1975 4122 
L 1822 4122 
Q 1563 4122 1444 3969 
Q 1366 3869 1366 3488 
L 1366 750 
Q 1366 428 1406 325 
Q 1438 247 1538 191 
Q 1672 116 1822 116 
L 1975 116 
z
" transform="scale(0.015625)"/>
      </defs>
      <use xlink:href="#TimesNewRomanPSMT-49"/>
      <use xlink:href="#TimesNewRomanPSMT-6e" x="33.300781"/>
      <use xlink:href="#TimesNewRomanPSMT-74" x="83.300781"/>
      <use xlink:href="#TimesNewRomanPSMT-65" x="111.083984"/>
      <use xlink:href="#TimesNewRomanPSMT-72" x="155.46875"/>
      <use xlink:href="#TimesNewRomanPSMT-6e" x="188.769531"/>
      <use xlink:href="#TimesNewRomanPSMT-61" x="238.769531"/>
      <use xlink:href="#TimesNewRomanPSMT-74" x="283.154297"/>
      <use xlink:href="#TimesNewRomanPSMT-69" x="310.9375"/>
      <use xlink:href="#TimesNewRomanPSMT-6f" x="338.720703"/>
      <use xlink:href="#TimesNewRomanPSMT-6e" x="388.720703"/>
      <use xlink:href="#TimesNewRomanPSMT-61" x="438.720703"/>
      <use xlink:href="#TimesNewRomanPSMT-6c" x="483.105469"/>
      <use xlink:href="#TimesNewRomanPSMT-20" x="510.888672"/>
      <use xlink:href="#TimesNewRomanPSMT-43" x="535.888672"/>
      <use xlink:href="#TimesNewRomanPSMT-75" x="602.587891"/>
      <use xlink:href="#TimesNewRomanPSMT-73" x="652.587891"/>
      <use xlink:href="#TimesNewRomanPSMT-74" x="691.503906"/>
      <use xlink:href="#TimesNewRomanPSMT-6f" x="719.287109"/>
      <use xlink:href="#TimesNewRomanPSMT-6d" x="769.287109"/>
      <use xlink:href="#TimesNewRomanPSMT-65" x="847.070312"/>
      <use xlink:href="#TimesNewRomanPSMT-72" x="891.455078"/>
      <use xlink:href="#TimesNewRomanPSMT-73" x="924.755859"/>
     </g>
    </g>
    <g id="patch_11">
     <path d="M 453.095687 206.567344 
L 473.095687 206.567344 
L 473.095687 199.567344 
L 453.095687 199.567344 
z
" style="fill: #2ca02c"/>
    </g>
    <g id="text_28">
     <!-- Rural Buyers -->
     <g transform="translate(481.095687 206.567344) scale(0.1 -0.1)">
      <defs>
       <path id="TimesNewRomanPSMT-52" d="M 4325 0 
L 3194 0 
L 1759 1981 
Q 1600 1975 1500 1975 
Q 1459 1975 1412 1976 
Q 1366 1978 1316 1981 
L 1316 750 
Q 1316 350 1403 253 
Q 1522 116 1759 116 
L 1925 116 
L 1925 0 
L 109 0 
L 109 116 
L 269 116 
Q 538 116 653 291 
Q 719 388 719 750 
L 719 3488 
Q 719 3888 631 3984 
Q 509 4122 269 4122 
L 109 4122 
L 109 4238 
L 1653 4238 
Q 2328 4238 2648 4139 
Q 2969 4041 3192 3777 
Q 3416 3513 3416 3147 
Q 3416 2756 3161 2468 
Q 2906 2181 2372 2063 
L 3247 847 
Q 3547 428 3762 290 
Q 3978 153 4325 116 
L 4325 0 
z
M 1316 2178 
Q 1375 2178 1419 2176 
Q 1463 2175 1491 2175 
Q 2097 2175 2405 2437 
Q 2713 2700 2713 3106 
Q 2713 3503 2464 3751 
Q 2216 4000 1806 4000 
Q 1625 4000 1316 3941 
L 1316 2178 
z
" transform="scale(0.015625)"/>
      </defs>
      <use xlink:href="#TimesNewRomanPSMT-52"/>
      <use xlink:href="#TimesNewRomanPSMT-75" x="66.699219"/>
      <use xlink:href="#TimesNewRomanPSMT-72" x="116.699219"/>
      <use xlink:href="#TimesNewRomanPSMT-61" x="150"/>
      <use xlink:href="#TimesNewRomanPSMT-6c" x="194.384766"/>
      <use xlink:href="#TimesNewRomanPSMT-20" x="222.167969"/>
      <use xlink:href="#TimesNewRomanPSMT-42" x="247.167969"/>
      <use xlink:href="#TimesNewRomanPSMT-75" x="313.867188"/>
      <use xlink:href="#TimesNewRomanPSMT-79" x="363.867188"/>
      <use xlink:href="#TimesNewRomanPSMT-65" x="413.867188"/>
      <use xlink:href="#TimesNewRomanPSMT-72" x="458.251953"/>
      <use xlink:href="#TimesNewRomanPSMT-73" x="491.552734"/>
     </g>
    </g>
   </g>
  </g>
 </g>
 <defs>
  <clipPath id="p19ab59ead3">
   <rect x="47.519688" y="37.249375" width="388.8" height="277.2"/>
  </clipPath>
 </defs>
</svg>
