<?xml version="1.0" encoding="utf-8" standalone="no"?>
<!DOCTYPE svg PUBLIC "-//W3C//DTD SVG 1.1//EN"
  "http://www.w3.org/Graphics/SVG/1.1/DTD/svg11.dtd">
<svg xmlns:xlink="http://www.w3.org/1999/xlink" width="541.115062pt" height="363.785279pt" viewBox="0 0 541.115062 363.785279" xmlns="http://www.w3.org/2000/svg" version="1.1">
 <metadata>
  <rdf:RDF xmlns:dc="http://purl.org/dc/elements/1.1/" xmlns:cc="http://creativecommons.org/ns#" xmlns:rdf="http://www.w3.org/1999/02/22-rdf-syntax-ns#">
   <cc:Work>
    <dc:type rdf:resource="http://purl.org/dc/dcmitype/StillImage"/>
    <dc:date>2025-05-21T21:40:46.379606</dc:date>
    <dc:format>image/svg+xml</dc:format>
    <dc:creator>
     <cc:Agent>
      <dc:title>Matplotlib v3.9.2, https://matplotlib.org/</dc:title>
     </cc:Agent>
    </dc:creator>
   </cc:Work>
  </rdf:RDF>
 </metadata>
 <defs>
  <style type="text/css">*{stroke-linejoin: round; stroke-linecap: butt}</style>
 </defs>
 <g id="figure_1">
  <g id="patch_1">
   <path d="M 0 363.785279 
L 541.115062 363.785279 
L 541.115062 0 
L 0 0 
z
" style="fill: #ffffff"/>
  </g>
  <g id="axes_1">
   <g id="patch_2">
    <path d="M 39.760938 314.12125 
L 428.560938 314.12125 
L 428.560938 36.92125 
L 39.760938 36.92125 
z
" style="fill: #ffffff"/>
   </g>
   <g id="PolyCollection_1">
    <path d="M 57.433665 176.583896 
L 57.433665 278.597931 
L 59.656649 282.413416 
L 61.879634 285.450455 
L 64.102618 287.767972 
L 66.325603 289.424888 
L 68.548588 290.480125 
L 70.771572 290.992605 
L 72.994557 291.02125 
L 75.217541 290.624982 
L 77.440526 289.862723 
L 79.66351 288.793395 
L 81.886495 287.47592 
L 84.10948 285.969219 
L 86.332464 284.332215 
L 88.555449 282.623829 
L 90.778433 280.902985 
L 93.001418 279.228602 
L 95.224402 277.659604 
L 97.447387 276.254913 
L 99.670371 275.07345 
L 101.893356 274.174137 
L 104.116341 273.615896 
L 106.339325 273.446097 
L 108.56231 273.626726 
L 110.785294 274.081501 
L 113.008279 274.73396 
L 115.231263 275.507641 
L 117.454248 276.326081 
L 119.677233 277.112817 
L 121.900217 277.791389 
L 124.123202 278.285332 
L 126.346186 278.518186 
L 128.569171 278.413695 
L 130.792155 277.939921 
L 133.01514 277.163792 
L 135.238124 276.165613 
L 137.461109 275.025689 
L 139.684094 273.824327 
L 141.907078 272.641833 
L 144.130063 271.558512 
L 146.353047 270.654669 
L 148.576032 270.010611 
L 150.799016 269.706643 
L 153.022001 269.817174 
L 155.244986 270.328381 
L 157.46797 271.158519 
L 159.690955 272.224096 
L 161.913939 273.441619 
L 164.136924 274.727598 
L 166.359908 275.998538 
L 168.582893 277.17095 
L 170.805877 278.161339 
L 173.028862 278.886215 
L 175.251847 279.262085 
L 177.474831 279.22953 
L 179.697816 278.825421 
L 181.9208 278.1107 
L 184.143785 277.146312 
L 186.366769 275.993201 
L 188.589754 274.712308 
L 190.812739 273.364579 
L 193.035723 272.010956 
L 195.258708 270.712383 
L 197.481692 269.529803 
L 199.704677 268.52325 
L 201.927661 267.717348 
L 204.150646 267.090732 
L 206.37363 266.618959 
L 208.596615 266.277587 
L 210.8196 266.042175 
L 213.042584 265.888282 
L 215.265569 265.791466 
L 217.488553 265.727285 
L 219.711538 265.671298 
L 221.934522 265.599063 
L 224.157507 265.489082 
L 226.380492 265.341615 
L 228.603476 265.166672 
L 230.826461 264.974308 
L 233.049445 264.77458 
L 235.27243 264.577545 
L 237.495414 264.393258 
L 239.718399 264.231776 
L 241.941383 264.103155 
L 244.164368 264.017451 
L 246.387353 263.984707 
L 248.610337 264.012011 
L 250.833322 264.099862 
L 253.056306 264.247868 
L 255.279291 264.455637 
L 257.502275 264.722774 
L 259.72526 265.048889 
L 261.948245 265.433587 
L 264.171229 265.876477 
L 266.394214 266.377166 
L 268.617198 266.935261 
L 270.840183 267.549259 
L 273.063167 268.201042 
L 275.286152 268.859702 
L 277.509136 269.494002 
L 279.732121 270.072704 
L 281.955106 270.564572 
L 284.17809 270.938367 
L 286.401075 271.162854 
L 288.624059 271.206793 
L 290.847044 271.03895 
L 293.070028 270.628085 
L 295.293013 269.958463 
L 297.515998 269.076355 
L 299.738982 268.04353 
L 301.961967 266.92176 
L 304.184951 265.772816 
L 306.407936 264.658469 
L 308.63092 263.640489 
L 310.853905 262.780649 
L 313.076889 262.140719 
L 315.299874 261.782469 
L 317.522859 261.76628 
L 319.745843 262.09846 
L 321.968828 262.71507 
L 324.191812 263.547482 
L 326.414797 264.527063 
L 328.637781 265.585183 
L 330.860766 266.653211 
L 333.083751 267.662517 
L 335.306735 268.54447 
L 337.52972 269.230438 
L 339.752704 269.651792 
L 341.975689 269.750036 
L 344.198673 269.541582 
L 346.421658 269.076418 
L 348.644642 268.40469 
L 350.867627 267.576542 
L 353.090612 266.64212 
L 355.313596 265.651569 
L 357.536581 264.655035 
L 359.759565 263.702663 
L 361.98255 262.844599 
L 364.205534 262.130896 
L 366.428519 261.592292 
L 368.651504 261.216426 
L 370.874488 260.985105 
L 373.097473 260.880135 
L 375.320457 260.883325 
L 377.543442 260.976481 
L 379.766426 261.14141 
L 381.989411 261.359919 
L 384.212395 261.613817 
L 386.43538 261.884908 
L 388.658365 262.155002 
L 390.881349 262.405905 
L 393.104334 262.619423 
L 395.327318 262.777365 
L 397.550303 262.861538 
L 399.773287 262.853747 
L 401.996272 262.735802 
L 404.219257 262.489508 
L 406.442241 262.096673 
L 408.665226 261.539103 
L 410.88821 260.798607 
L 410.88821 247.249868 
L 410.88821 247.249868 
L 408.665226 246.286922 
L 406.442241 245.552658 
L 404.219257 245.023623 
L 401.996272 244.676367 
L 399.773287 244.487438 
L 397.550303 244.433384 
L 395.327318 244.490754 
L 393.104334 244.636096 
L 390.881349 244.845959 
L 388.658365 245.09689 
L 386.43538 245.36544 
L 384.212395 245.628155 
L 381.989411 245.861585 
L 379.766426 246.042277 
L 377.543442 246.146781 
L 375.320457 246.151644 
L 373.097473 246.033416 
L 370.874488 245.768644 
L 368.651504 245.333877 
L 366.428519 244.705663 
L 364.205534 243.860551 
L 361.98255 242.782129 
L 359.759565 241.506009 
L 357.536581 240.091123 
L 355.313596 238.59651 
L 353.090612 237.081211 
L 350.867627 235.604267 
L 348.644642 234.224718 
L 346.421658 233.001605 
L 344.198673 231.993969 
L 341.975689 231.26085 
L 339.752704 230.861102 
L 337.52972 230.813836 
L 335.306735 231.049494 
L 333.083751 231.486522 
L 330.860766 232.043365 
L 328.637781 232.638468 
L 326.414797 233.190277 
L 324.191812 233.617237 
L 321.968828 233.837793 
L 319.745843 233.77039 
L 317.522859 233.333474 
L 315.299874 232.451708 
L 313.076889 231.142809 
L 310.853905 229.49612 
L 308.63092 227.602831 
L 306.407936 225.55413 
L 304.184951 223.441206 
L 301.961967 221.355246 
L 299.738982 219.387439 
L 297.515998 217.628974 
L 295.293013 216.171038 
L 293.070028 215.104821 
L 290.847044 214.496362 
L 288.624059 214.311112 
L 286.401075 214.489373 
L 284.17809 214.971446 
L 281.955106 215.697633 
L 279.732121 216.608237 
L 277.509136 217.64356 
L 275.286152 218.743903 
L 273.063167 219.849569 
L 270.840183 220.900859 
L 268.617198 221.83868 
L 266.394214 222.627469 
L 264.171229 223.262225 
L 261.948245 223.739988 
L 259.72526 224.057801 
L 257.502275 224.212706 
L 255.279291 224.201744 
L 253.056306 224.021958 
L 250.833322 223.670389 
L 248.610337 223.144078 
L 246.387353 222.440069 
L 244.164368 221.558675 
L 241.941383 220.5244 
L 239.718399 219.372588 
L 237.495414 218.138636 
L 235.27243 216.857939 
L 233.049445 215.565893 
L 230.826461 214.297895 
L 228.603476 213.08934 
L 226.380492 211.975624 
L 224.157507 210.992143 
L 221.934522 210.174192 
L 219.711538 209.53568 
L 217.488553 209.042807 
L 215.265569 208.655312 
L 213.042584 208.332939 
L 210.8196 208.035427 
L 208.596615 207.72252 
L 206.37363 207.353958 
L 204.150646 206.889483 
L 201.927661 206.288837 
L 199.704677 205.511761 
L 197.481692 204.521513 
L 195.258708 203.333944 
L 193.035723 202.005396 
L 190.812739 200.593253 
L 188.589754 199.154897 
L 186.366769 197.747712 
L 184.143785 196.429079 
L 181.9208 195.256384 
L 179.697816 194.287007 
L 177.474831 193.578332 
L 175.251847 193.187743 
L 173.028862 193.152145 
L 170.805877 193.426537 
L 168.582893 193.945441 
L 166.359908 194.643378 
L 164.136924 195.45487 
L 161.913939 196.31444 
L 159.690955 197.156608 
L 157.46797 197.915896 
L 155.244986 198.526826 
L 153.022001 198.923921 
L 150.799016 199.042925 
L 148.576032 198.867173 
L 146.353047 198.441817 
L 144.130063 197.816142 
L 141.907078 197.039431 
L 139.684094 196.160969 
L 137.461109 195.23004 
L 135.238124 194.295927 
L 133.01514 193.407915 
L 130.792155 192.615288 
L 128.569171 191.96733 
L 126.346186 191.505364 
L 124.123202 191.211886 
L 121.900217 191.043022 
L 119.677233 190.954775 
L 117.454248 190.903147 
L 115.231263 190.84414 
L 113.008279 190.733758 
L 110.785294 190.528001 
L 108.56231 190.182874 
L 106.339325 189.654378 
L 104.116341 188.898628 
L 101.893356 187.895591 
L 99.670371 186.678451 
L 97.447387 185.287591 
L 95.224402 183.763396 
L 93.001418 182.146249 
L 90.778433 180.476536 
L 88.555449 178.794639 
L 86.332464 177.140942 
L 84.10948 175.555831 
L 81.886495 174.079688 
L 79.66351 172.752898 
L 77.440526 171.615845 
L 75.217541 170.708914 
L 72.994557 170.072487 
L 70.771572 169.746949 
L 68.548588 169.772684 
L 66.325603 170.190076 
L 64.102618 171.039509 
L 61.879634 172.361368 
L 59.656649 174.196035 
L 57.433665 176.583896 
z
" clip-path="url(#p990772f62d)" style="fill: #1f77b4"/>
   </g>
   <g id="PolyCollection_2">
    <path d="M 57.433665 72.444569 
L 57.433665 176.583896 
L 59.656649 174.196035 
L 61.879634 172.361368 
L 64.102618 171.039509 
L 66.325603 170.190076 
L 68.548588 169.772684 
L 70.771572 169.746949 
L 72.994557 170.072487 
L 75.217541 170.708914 
L 77.440526 171.615845 
L 79.66351 172.752898 
L 81.886495 174.079688 
L 84.10948 175.555831 
L 86.332464 177.140942 
L 88.555449 178.794639 
L 90.778433 180.476536 
L 93.001418 182.146249 
L 95.224402 183.763396 
L 97.447387 185.287591 
L 99.670371 186.678451 
L 101.893356 187.895591 
L 104.116341 188.898628 
L 106.339325 189.654378 
L 108.56231 190.182874 
L 110.785294 190.528001 
L 113.008279 190.733758 
L 115.231263 190.84414 
L 117.454248 190.903147 
L 119.677233 190.954775 
L 121.900217 191.043022 
L 124.123202 191.211886 
L 126.346186 191.505364 
L 128.569171 191.96733 
L 130.792155 192.615288 
L 133.01514 193.407915 
L 135.238124 194.295927 
L 137.461109 195.23004 
L 139.684094 196.160969 
L 141.907078 197.039431 
L 144.130063 197.816142 
L 146.353047 198.441817 
L 148.576032 198.867173 
L 150.799016 199.042925 
L 153.022001 198.923921 
L 155.244986 198.526826 
L 157.46797 197.915896 
L 159.690955 197.156608 
L 161.913939 196.31444 
L 164.136924 195.45487 
L 166.359908 194.643378 
L 168.582893 193.945441 
L 170.805877 193.426537 
L 173.028862 193.152145 
L 175.251847 193.187743 
L 177.474831 193.578332 
L 179.697816 194.287007 
L 181.9208 195.256384 
L 184.143785 196.429079 
L 186.366769 197.747712 
L 188.589754 199.154897 
L 190.812739 200.593253 
L 193.035723 202.005396 
L 195.258708 203.333944 
L 197.481692 204.521513 
L 199.704677 205.511761 
L 201.927661 206.288837 
L 204.150646 206.889483 
L 206.37363 207.353958 
L 208.596615 207.72252 
L 210.8196 208.035427 
L 213.042584 208.332939 
L 215.265569 208.655312 
L 217.488553 209.042807 
L 219.711538 209.53568 
L 221.934522 210.174192 
L 224.157507 210.992143 
L 226.380492 211.975624 
L 228.603476 213.08934 
L 230.826461 214.297895 
L 233.049445 215.565893 
L 235.27243 216.857939 
L 237.495414 218.138636 
L 239.718399 219.372588 
L 241.941383 220.5244 
L 244.164368 221.558675 
L 246.387353 222.440069 
L 248.610337 223.144078 
L 250.833322 223.670389 
L 253.056306 224.021958 
L 255.279291 224.201744 
L 257.502275 224.212706 
L 259.72526 224.057801 
L 261.948245 223.739988 
L 264.171229 223.262225 
L 266.394214 222.627469 
L 268.617198 221.83868 
L 270.840183 220.900859 
L 273.063167 219.849569 
L 275.286152 218.743903 
L 277.509136 217.64356 
L 279.732121 216.608237 
L 281.955106 215.697633 
L 284.17809 214.971446 
L 286.401075 214.489373 
L 288.624059 214.311112 
L 290.847044 214.496362 
L 293.070028 215.104821 
L 295.293013 216.171038 
L 297.515998 217.628974 
L 299.738982 219.387439 
L 301.961967 221.355246 
L 304.184951 223.441206 
L 306.407936 225.55413 
L 308.63092 227.602831 
L 310.853905 229.49612 
L 313.076889 231.142809 
L 315.299874 232.451708 
L 317.522859 233.333474 
L 319.745843 233.77039 
L 321.968828 233.837793 
L 324.191812 233.617237 
L 326.414797 233.190277 
L 328.637781 232.638468 
L 330.860766 232.043365 
L 333.083751 231.486522 
L 335.306735 231.049494 
L 337.52972 230.813836 
L 339.752704 230.861102 
L 341.975689 231.26085 
L 344.198673 231.993969 
L 346.421658 233.001605 
L 348.644642 234.224718 
L 350.867627 235.604267 
L 353.090612 237.081211 
L 355.313596 238.59651 
L 357.536581 240.091123 
L 359.759565 241.506009 
L 361.98255 242.782129 
L 364.205534 243.860551 
L 366.428519 244.705663 
L 368.651504 245.333877 
L 370.874488 245.768644 
L 373.097473 246.033416 
L 375.320457 246.151644 
L 377.543442 246.146781 
L 379.766426 246.042277 
L 381.989411 245.861585 
L 384.212395 245.628155 
L 386.43538 245.36544 
L 388.658365 245.09689 
L 390.881349 244.845959 
L 393.104334 244.636096 
L 395.327318 244.490754 
L 397.550303 244.433384 
L 399.773287 244.487438 
L 401.996272 244.676367 
L 404.219257 245.023623 
L 406.442241 245.552658 
L 408.665226 246.286922 
L 410.88821 247.249868 
L 410.88821 90.243893 
L 410.88821 90.243893 
L 408.665226 89.503397 
L 406.442241 88.945827 
L 404.219257 88.552992 
L 401.996272 88.306698 
L 399.773287 88.188753 
L 397.550303 88.180962 
L 395.327318 88.265135 
L 393.104334 88.423077 
L 390.881349 88.636595 
L 388.658365 88.887498 
L 386.43538 89.157592 
L 384.212395 89.428683 
L 381.989411 89.682581 
L 379.766426 89.90109 
L 377.543442 90.066019 
L 375.320457 90.159175 
L 373.097473 90.162365 
L 370.874488 90.057395 
L 368.651504 89.826074 
L 366.428519 89.450208 
L 364.205534 88.911604 
L 361.98255 88.197901 
L 359.759565 87.339837 
L 357.536581 86.387465 
L 355.313596 85.390931 
L 353.090612 84.40038 
L 350.867627 83.465958 
L 348.644642 82.63781 
L 346.421658 81.966082 
L 344.198673 81.500918 
L 341.975689 81.292464 
L 339.752704 81.390708 
L 337.52972 81.812062 
L 335.306735 82.49803 
L 333.083751 83.379983 
L 330.860766 84.389289 
L 328.637781 85.457317 
L 326.414797 86.515437 
L 324.191812 87.495018 
L 321.968828 88.32743 
L 319.745843 88.94404 
L 317.522859 89.27622 
L 315.299874 89.260031 
L 313.076889 88.901781 
L 310.853905 88.261851 
L 308.63092 87.402011 
L 306.407936 86.384031 
L 304.184951 85.269684 
L 301.961967 84.12074 
L 299.738982 82.99897 
L 297.515998 81.966145 
L 295.293013 81.084037 
L 293.070028 80.414415 
L 290.847044 80.00355 
L 288.624059 79.835707 
L 286.401075 79.879646 
L 284.17809 80.104133 
L 281.955106 80.477928 
L 279.732121 80.969796 
L 277.509136 81.548498 
L 275.286152 82.182798 
L 273.063167 82.841458 
L 270.840183 83.493241 
L 268.617198 84.107239 
L 266.394214 84.665334 
L 264.171229 85.166023 
L 261.948245 85.608913 
L 259.72526 85.993611 
L 257.502275 86.319726 
L 255.279291 86.586863 
L 253.056306 86.794632 
L 250.833322 86.942638 
L 248.610337 87.030489 
L 246.387353 87.057793 
L 244.164368 87.025049 
L 241.941383 86.939345 
L 239.718399 86.810724 
L 237.495414 86.649242 
L 235.27243 86.464955 
L 233.049445 86.26792 
L 230.826461 86.068192 
L 228.603476 85.875828 
L 226.380492 85.700885 
L 224.157507 85.553418 
L 221.934522 85.443437 
L 219.711538 85.371202 
L 217.488553 85.315215 
L 215.265569 85.251034 
L 213.042584 85.154218 
L 210.8196 85.000325 
L 208.596615 84.764913 
L 206.37363 84.423541 
L 204.150646 83.951768 
L 201.927661 83.325152 
L 199.704677 82.51925 
L 197.481692 81.512697 
L 195.258708 80.330117 
L 193.035723 79.031544 
L 190.812739 77.677921 
L 188.589754 76.330192 
L 186.366769 75.049299 
L 184.143785 73.896188 
L 181.9208 72.9318 
L 179.697816 72.217079 
L 177.474831 71.81297 
L 175.251847 71.780415 
L 173.028862 72.156285 
L 170.805877 72.881161 
L 168.582893 73.87155 
L 166.359908 75.043962 
L 164.136924 76.314902 
L 161.913939 77.600881 
L 159.690955 78.818404 
L 157.46797 79.883981 
L 155.244986 80.714119 
L 153.022001 81.225326 
L 150.799016 81.335857 
L 148.576032 81.031889 
L 146.353047 80.387831 
L 144.130063 79.483988 
L 141.907078 78.400667 
L 139.684094 77.218173 
L 137.461109 76.016811 
L 135.238124 74.876887 
L 133.01514 73.878708 
L 130.792155 73.102579 
L 128.569171 72.628805 
L 126.346186 72.524314 
L 124.123202 72.757168 
L 121.900217 73.251111 
L 119.677233 73.929683 
L 117.454248 74.716419 
L 115.231263 75.534859 
L 113.008279 76.30854 
L 110.785294 76.960999 
L 108.56231 77.415774 
L 106.339325 77.596403 
L 104.116341 77.426604 
L 101.893356 76.868363 
L 99.670371 75.96905 
L 97.447387 74.787587 
L 95.224402 73.382896 
L 93.001418 71.813898 
L 90.778433 70.139515 
L 88.555449 68.418671 
L 86.332464 66.710285 
L 84.10948 65.073281 
L 81.886495 63.56658 
L 79.66351 62.249105 
L 77.440526 61.179777 
L 75.217541 60.417518 
L 72.994557 60.02125 
L 70.771572 60.049895 
L 68.548588 60.562375 
L 66.325603 61.617612 
L 64.102618 63.274528 
L 61.879634 65.592045 
L 59.656649 68.629084 
L 57.433665 72.444569 
z
" clip-path="url(#p990772f62d)" style="fill: #aec7e8"/>
   </g>
   <g id="matplotlib.axis_1">
    <g id="xtick_1">
     <g id="line2d_1">
      <defs>
       <path id="m60c9113315" d="M 0 0 
L 0 3.5 
" style="stroke: #000000; stroke-width: 0.8"/>
      </defs>
      <g>
       <use xlink:href="#m60c9113315" x="57.433665" y="314.12125" style="stroke: #000000; stroke-width: 0.8"/>
      </g>
     </g>
     <g id="text_1">
      <!-- 1961 -->
      <g transform="translate(41.778984 340.173358) rotate(-45) scale(0.1 -0.1)">
       <defs>
        <path id="TimesNewRomanPSMT-31" d="M 750 3822 
L 1781 4325 
L 1884 4325 
L 1884 747 
Q 1884 391 1914 303 
Q 1944 216 2037 169 
Q 2131 122 2419 116 
L 2419 0 
L 825 0 
L 825 116 
Q 1125 122 1212 167 
Q 1300 213 1334 289 
Q 1369 366 1369 747 
L 1369 3034 
Q 1369 3497 1338 3628 
Q 1316 3728 1258 3775 
Q 1200 3822 1119 3822 
Q 1003 3822 797 3725 
L 750 3822 
z
" transform="scale(0.015625)"/>
        <path id="TimesNewRomanPSMT-39" d="M 338 -88 
L 338 28 
Q 744 34 1094 217 
Q 1444 400 1770 856 
Q 2097 1313 2225 1859 
Q 1734 1544 1338 1544 
Q 891 1544 572 1889 
Q 253 2234 253 2806 
Q 253 3363 572 3797 
Q 956 4325 1575 4325 
Q 2097 4325 2469 3894 
Q 2925 3359 2925 2575 
Q 2925 1869 2578 1258 
Q 2231 647 1613 244 
Q 1109 -88 516 -88 
L 338 -88 
z
M 2275 2091 
Q 2331 2497 2331 2741 
Q 2331 3044 2228 3395 
Q 2125 3747 1936 3934 
Q 1747 4122 1506 4122 
Q 1228 4122 1018 3872 
Q 809 3622 809 3128 
Q 809 2469 1088 2097 
Q 1291 1828 1588 1828 
Q 1731 1828 1928 1897 
Q 2125 1966 2275 2091 
z
" transform="scale(0.015625)"/>
        <path id="TimesNewRomanPSMT-36" d="M 2869 4325 
L 2869 4209 
Q 2456 4169 2195 4045 
Q 1934 3922 1679 3669 
Q 1425 3416 1258 3105 
Q 1091 2794 978 2366 
Q 1428 2675 1881 2675 
Q 2316 2675 2634 2325 
Q 2953 1975 2953 1425 
Q 2953 894 2631 456 
Q 2244 -75 1606 -75 
Q 1172 -75 869 213 
Q 275 772 275 1663 
Q 275 2231 503 2743 
Q 731 3256 1154 3653 
Q 1578 4050 1965 4187 
Q 2353 4325 2688 4325 
L 2869 4325 
z
M 925 2138 
Q 869 1716 869 1456 
Q 869 1156 980 804 
Q 1091 453 1309 247 
Q 1469 100 1697 100 
Q 1969 100 2183 356 
Q 2397 613 2397 1088 
Q 2397 1622 2184 2012 
Q 1972 2403 1581 2403 
Q 1463 2403 1327 2353 
Q 1191 2303 925 2138 
z
" transform="scale(0.015625)"/>
       </defs>
       <use xlink:href="#TimesNewRomanPSMT-31"/>
       <use xlink:href="#TimesNewRomanPSMT-39" x="50"/>
       <use xlink:href="#TimesNewRomanPSMT-36" x="100"/>
       <use xlink:href="#TimesNewRomanPSMT-31" x="150"/>
      </g>
     </g>
    </g>
    <g id="xtick_2">
     <g id="line2d_2">
      <g>
       <use xlink:href="#m60c9113315" x="80.997301" y="314.12125" style="stroke: #000000; stroke-width: 0.8"/>
      </g>
     </g>
     <g id="text_2">
      <!-- 1962 -->
      <g transform="translate(65.34262 340.173358) rotate(-45) scale(0.1 -0.1)">
       <defs>
        <path id="TimesNewRomanPSMT-32" d="M 2934 816 
L 2638 0 
L 138 0 
L 138 116 
Q 1241 1122 1691 1759 
Q 2141 2397 2141 2925 
Q 2141 3328 1894 3587 
Q 1647 3847 1303 3847 
Q 991 3847 742 3664 
Q 494 3481 375 3128 
L 259 3128 
Q 338 3706 661 4015 
Q 984 4325 1469 4325 
Q 1984 4325 2329 3994 
Q 2675 3663 2675 3213 
Q 2675 2891 2525 2569 
Q 2294 2063 1775 1497 
Q 997 647 803 472 
L 1909 472 
Q 2247 472 2383 497 
Q 2519 522 2628 598 
Q 2738 675 2819 816 
L 2934 816 
z
" transform="scale(0.015625)"/>
       </defs>
       <use xlink:href="#TimesNewRomanPSMT-31"/>
       <use xlink:href="#TimesNewRomanPSMT-39" x="50"/>
       <use xlink:href="#TimesNewRomanPSMT-36" x="100"/>
       <use xlink:href="#TimesNewRomanPSMT-32" x="150"/>
      </g>
     </g>
    </g>
    <g id="xtick_3">
     <g id="line2d_3">
      <g>
       <use xlink:href="#m60c9113315" x="104.560938" y="314.12125" style="stroke: #000000; stroke-width: 0.8"/>
      </g>
     </g>
     <g id="text_3">
      <!-- 1963 -->
      <g transform="translate(88.906256 340.173358) rotate(-45) scale(0.1 -0.1)">
       <defs>
        <path id="TimesNewRomanPSMT-33" d="M 325 3431 
Q 506 3859 782 4092 
Q 1059 4325 1472 4325 
Q 1981 4325 2253 3994 
Q 2459 3747 2459 3466 
Q 2459 3003 1878 2509 
Q 2269 2356 2469 2072 
Q 2669 1788 2669 1403 
Q 2669 853 2319 450 
Q 1863 -75 997 -75 
Q 569 -75 414 31 
Q 259 138 259 259 
Q 259 350 332 419 
Q 406 488 509 488 
Q 588 488 669 463 
Q 722 447 909 348 
Q 1097 250 1169 231 
Q 1284 197 1416 197 
Q 1734 197 1970 444 
Q 2206 691 2206 1028 
Q 2206 1275 2097 1509 
Q 2016 1684 1919 1775 
Q 1784 1900 1550 2001 
Q 1316 2103 1072 2103 
L 972 2103 
L 972 2197 
Q 1219 2228 1467 2375 
Q 1716 2522 1828 2728 
Q 1941 2934 1941 3181 
Q 1941 3503 1739 3701 
Q 1538 3900 1238 3900 
Q 753 3900 428 3381 
L 325 3431 
z
" transform="scale(0.015625)"/>
       </defs>
       <use xlink:href="#TimesNewRomanPSMT-31"/>
       <use xlink:href="#TimesNewRomanPSMT-39" x="50"/>
       <use xlink:href="#TimesNewRomanPSMT-36" x="100"/>
       <use xlink:href="#TimesNewRomanPSMT-33" x="150"/>
      </g>
     </g>
    </g>
    <g id="xtick_4">
     <g id="line2d_4">
      <g>
       <use xlink:href="#m60c9113315" x="128.124574" y="314.12125" style="stroke: #000000; stroke-width: 0.8"/>
      </g>
     </g>
     <g id="text_4">
      <!-- 1964 -->
      <g transform="translate(112.469893 340.173358) rotate(-45) scale(0.1 -0.1)">
       <defs>
        <path id="TimesNewRomanPSMT-34" d="M 2978 1563 
L 2978 1119 
L 2409 1119 
L 2409 0 
L 1894 0 
L 1894 1119 
L 100 1119 
L 100 1519 
L 2066 4325 
L 2409 4325 
L 2409 1563 
L 2978 1563 
z
M 1894 1563 
L 1894 3666 
L 406 1563 
L 1894 1563 
z
" transform="scale(0.015625)"/>
       </defs>
       <use xlink:href="#TimesNewRomanPSMT-31"/>
       <use xlink:href="#TimesNewRomanPSMT-39" x="50"/>
       <use xlink:href="#TimesNewRomanPSMT-36" x="100"/>
       <use xlink:href="#TimesNewRomanPSMT-34" x="150"/>
      </g>
     </g>
    </g>
    <g id="xtick_5">
     <g id="line2d_5">
      <g>
       <use xlink:href="#m60c9113315" x="151.68821" y="314.12125" style="stroke: #000000; stroke-width: 0.8"/>
      </g>
     </g>
     <g id="text_5">
      <!-- 1965 -->
      <g transform="translate(136.033529 340.173358) rotate(-45) scale(0.1 -0.1)">
       <defs>
        <path id="TimesNewRomanPSMT-35" d="M 2778 4238 
L 2534 3706 
L 1259 3706 
L 981 3138 
Q 1809 3016 2294 2522 
Q 2709 2097 2709 1522 
Q 2709 1188 2573 903 
Q 2438 619 2231 419 
Q 2025 219 1772 97 
Q 1413 -75 1034 -75 
Q 653 -75 479 54 
Q 306 184 306 341 
Q 306 428 378 495 
Q 450 563 559 563 
Q 641 563 702 538 
Q 763 513 909 409 
Q 1144 247 1384 247 
Q 1750 247 2026 523 
Q 2303 800 2303 1197 
Q 2303 1581 2056 1914 
Q 1809 2247 1375 2428 
Q 1034 2569 447 2591 
L 1259 4238 
L 2778 4238 
z
" transform="scale(0.015625)"/>
       </defs>
       <use xlink:href="#TimesNewRomanPSMT-31"/>
       <use xlink:href="#TimesNewRomanPSMT-39" x="50"/>
       <use xlink:href="#TimesNewRomanPSMT-36" x="100"/>
       <use xlink:href="#TimesNewRomanPSMT-35" x="150"/>
      </g>
     </g>
    </g>
    <g id="xtick_6">
     <g id="line2d_6">
      <g>
       <use xlink:href="#m60c9113315" x="175.251847" y="314.12125" style="stroke: #000000; stroke-width: 0.8"/>
      </g>
     </g>
     <g id="text_6">
      <!-- 1966 -->
      <g transform="translate(159.597165 340.173358) rotate(-45) scale(0.1 -0.1)">
       <use xlink:href="#TimesNewRomanPSMT-31"/>
       <use xlink:href="#TimesNewRomanPSMT-39" x="50"/>
       <use xlink:href="#TimesNewRomanPSMT-36" x="100"/>
       <use xlink:href="#TimesNewRomanPSMT-36" x="150"/>
      </g>
     </g>
    </g>
    <g id="xtick_7">
     <g id="line2d_7">
      <g>
       <use xlink:href="#m60c9113315" x="198.815483" y="314.12125" style="stroke: #000000; stroke-width: 0.8"/>
      </g>
     </g>
     <g id="text_7">
      <!-- 1967 -->
      <g transform="translate(183.160802 340.173358) rotate(-45) scale(0.1 -0.1)">
       <defs>
        <path id="TimesNewRomanPSMT-37" d="M 644 4238 
L 2916 4238 
L 2916 4119 
L 1503 -88 
L 1153 -88 
L 2419 3728 
L 1253 3728 
Q 900 3728 750 3644 
Q 488 3500 328 3200 
L 238 3234 
L 644 4238 
z
" transform="scale(0.015625)"/>
       </defs>
       <use xlink:href="#TimesNewRomanPSMT-31"/>
       <use xlink:href="#TimesNewRomanPSMT-39" x="50"/>
       <use xlink:href="#TimesNewRomanPSMT-36" x="100"/>
       <use xlink:href="#TimesNewRomanPSMT-37" x="150"/>
      </g>
     </g>
    </g>
    <g id="xtick_8">
     <g id="line2d_8">
      <g>
       <use xlink:href="#m60c9113315" x="222.379119" y="314.12125" style="stroke: #000000; stroke-width: 0.8"/>
      </g>
     </g>
     <g id="text_8">
      <!-- 1968 -->
      <g transform="translate(206.724438 340.173358) rotate(-45) scale(0.1 -0.1)">
       <defs>
        <path id="TimesNewRomanPSMT-38" d="M 1228 2134 
Q 725 2547 579 2797 
Q 434 3047 434 3316 
Q 434 3728 753 4026 
Q 1072 4325 1600 4325 
Q 2113 4325 2425 4047 
Q 2738 3769 2738 3413 
Q 2738 3175 2569 2928 
Q 2400 2681 1866 2347 
Q 2416 1922 2594 1678 
Q 2831 1359 2831 1006 
Q 2831 559 2490 242 
Q 2150 -75 1597 -75 
Q 994 -75 656 303 
Q 388 606 388 966 
Q 388 1247 577 1523 
Q 766 1800 1228 2134 
z
M 1719 2469 
Q 2094 2806 2194 3001 
Q 2294 3197 2294 3444 
Q 2294 3772 2109 3958 
Q 1925 4144 1606 4144 
Q 1288 4144 1088 3959 
Q 888 3775 888 3528 
Q 888 3366 970 3203 
Q 1053 3041 1206 2894 
L 1719 2469 
z
M 1375 2016 
Q 1116 1797 991 1539 
Q 866 1281 866 981 
Q 866 578 1086 336 
Q 1306 94 1647 94 
Q 1984 94 2187 284 
Q 2391 475 2391 747 
Q 2391 972 2272 1150 
Q 2050 1481 1375 2016 
z
" transform="scale(0.015625)"/>
       </defs>
       <use xlink:href="#TimesNewRomanPSMT-31"/>
       <use xlink:href="#TimesNewRomanPSMT-39" x="50"/>
       <use xlink:href="#TimesNewRomanPSMT-36" x="100"/>
       <use xlink:href="#TimesNewRomanPSMT-38" x="150"/>
      </g>
     </g>
    </g>
    <g id="xtick_9">
     <g id="line2d_9">
      <g>
       <use xlink:href="#m60c9113315" x="245.942756" y="314.12125" style="stroke: #000000; stroke-width: 0.8"/>
      </g>
     </g>
     <g id="text_9">
      <!-- 1969 -->
      <g transform="translate(230.288074 340.173358) rotate(-45) scale(0.1 -0.1)">
       <use xlink:href="#TimesNewRomanPSMT-31"/>
       <use xlink:href="#TimesNewRomanPSMT-39" x="50"/>
       <use xlink:href="#TimesNewRomanPSMT-36" x="100"/>
       <use xlink:href="#TimesNewRomanPSMT-39" x="150"/>
      </g>
     </g>
    </g>
    <g id="xtick_10">
     <g id="line2d_10">
      <g>
       <use xlink:href="#m60c9113315" x="269.506392" y="314.12125" style="stroke: #000000; stroke-width: 0.8"/>
      </g>
     </g>
     <g id="text_10">
      <!-- 1970 -->
      <g transform="translate(253.851711 340.173358) rotate(-45) scale(0.1 -0.1)">
       <defs>
        <path id="TimesNewRomanPSMT-30" d="M 231 2094 
Q 231 2819 450 3342 
Q 669 3866 1031 4122 
Q 1313 4325 1613 4325 
Q 2100 4325 2488 3828 
Q 2972 3213 2972 2159 
Q 2972 1422 2759 906 
Q 2547 391 2217 158 
Q 1888 -75 1581 -75 
Q 975 -75 572 641 
Q 231 1244 231 2094 
z
M 844 2016 
Q 844 1141 1059 588 
Q 1238 122 1591 122 
Q 1759 122 1940 273 
Q 2122 425 2216 781 
Q 2359 1319 2359 2297 
Q 2359 3022 2209 3506 
Q 2097 3866 1919 4016 
Q 1791 4119 1609 4119 
Q 1397 4119 1231 3928 
Q 1006 3669 925 3112 
Q 844 2556 844 2016 
z
" transform="scale(0.015625)"/>
       </defs>
       <use xlink:href="#TimesNewRomanPSMT-31"/>
       <use xlink:href="#TimesNewRomanPSMT-39" x="50"/>
       <use xlink:href="#TimesNewRomanPSMT-37" x="100"/>
       <use xlink:href="#TimesNewRomanPSMT-30" x="150"/>
      </g>
     </g>
    </g>
    <g id="xtick_11">
     <g id="line2d_11">
      <g>
       <use xlink:href="#m60c9113315" x="293.070028" y="314.12125" style="stroke: #000000; stroke-width: 0.8"/>
      </g>
     </g>
     <g id="text_11">
      <!-- 1971 -->
      <g transform="translate(277.415347 340.173358) rotate(-45) scale(0.1 -0.1)">
       <use xlink:href="#TimesNewRomanPSMT-31"/>
       <use xlink:href="#TimesNewRomanPSMT-39" x="50"/>
       <use xlink:href="#TimesNewRomanPSMT-37" x="100"/>
       <use xlink:href="#TimesNewRomanPSMT-31" x="150"/>
      </g>
     </g>
    </g>
    <g id="xtick_12">
     <g id="line2d_12">
      <g>
       <use xlink:href="#m60c9113315" x="316.633665" y="314.12125" style="stroke: #000000; stroke-width: 0.8"/>
      </g>
     </g>
     <g id="text_12">
      <!-- 1972 -->
      <g transform="translate(300.978984 340.173358) rotate(-45) scale(0.1 -0.1)">
       <use xlink:href="#TimesNewRomanPSMT-31"/>
       <use xlink:href="#TimesNewRomanPSMT-39" x="50"/>
       <use xlink:href="#TimesNewRomanPSMT-37" x="100"/>
       <use xlink:href="#TimesNewRomanPSMT-32" x="150"/>
      </g>
     </g>
    </g>
    <g id="xtick_13">
     <g id="line2d_13">
      <g>
       <use xlink:href="#m60c9113315" x="340.197301" y="314.12125" style="stroke: #000000; stroke-width: 0.8"/>
      </g>
     </g>
     <g id="text_13">
      <!-- 1973 -->
      <g transform="translate(324.54262 340.173358) rotate(-45) scale(0.1 -0.1)">
       <use xlink:href="#TimesNewRomanPSMT-31"/>
       <use xlink:href="#TimesNewRomanPSMT-39" x="50"/>
       <use xlink:href="#TimesNewRomanPSMT-37" x="100"/>
       <use xlink:href="#TimesNewRomanPSMT-33" x="150"/>
      </g>
     </g>
    </g>
    <g id="xtick_14">
     <g id="line2d_14">
      <g>
       <use xlink:href="#m60c9113315" x="363.760938" y="314.12125" style="stroke: #000000; stroke-width: 0.8"/>
      </g>
     </g>
     <g id="text_14">
      <!-- 1974 -->
      <g transform="translate(348.106256 340.173358) rotate(-45) scale(0.1 -0.1)">
       <use xlink:href="#TimesNewRomanPSMT-31"/>
       <use xlink:href="#TimesNewRomanPSMT-39" x="50"/>
       <use xlink:href="#TimesNewRomanPSMT-37" x="100"/>
       <use xlink:href="#TimesNewRomanPSMT-34" x="150"/>
      </g>
     </g>
    </g>
    <g id="xtick_15">
     <g id="line2d_15">
      <g>
       <use xlink:href="#m60c9113315" x="387.324574" y="314.12125" style="stroke: #000000; stroke-width: 0.8"/>
      </g>
     </g>
     <g id="text_15">
      <!-- 1975 -->
      <g transform="translate(371.669893 340.173358) rotate(-45) scale(0.1 -0.1)">
       <use xlink:href="#TimesNewRomanPSMT-31"/>
       <use xlink:href="#TimesNewRomanPSMT-39" x="50"/>
       <use xlink:href="#TimesNewRomanPSMT-37" x="100"/>
       <use xlink:href="#TimesNewRomanPSMT-35" x="150"/>
      </g>
     </g>
    </g>
    <g id="xtick_16">
     <g id="line2d_16">
      <g>
       <use xlink:href="#m60c9113315" x="410.88821" y="314.12125" style="stroke: #000000; stroke-width: 0.8"/>
      </g>
     </g>
     <g id="text_16">
      <!-- 1976 -->
      <g transform="translate(395.233529 340.173358) rotate(-45) scale(0.1 -0.1)">
       <use xlink:href="#TimesNewRomanPSMT-31"/>
       <use xlink:href="#TimesNewRomanPSMT-39" x="50"/>
       <use xlink:href="#TimesNewRomanPSMT-37" x="100"/>
       <use xlink:href="#TimesNewRomanPSMT-36" x="150"/>
      </g>
     </g>
    </g>
    <g id="text_17">
     <!-- Year -->
     <g transform="translate(223.103125 354.018404) scale(0.12 -0.12)">
      <defs>
       <path id="TimesNewRomanPSMT-59" d="M 3050 4238 
L 4528 4238 
L 4528 4122 
L 4447 4122 
Q 4366 4122 4209 4050 
Q 4053 3978 3925 3843 
Q 3797 3709 3609 3406 
L 2588 1797 
L 2588 734 
Q 2588 344 2675 247 
Q 2794 116 3050 116 
L 3188 116 
L 3188 0 
L 1388 0 
L 1388 116 
L 1538 116 
Q 1806 116 1919 278 
Q 1988 378 1988 734 
L 1988 1738 
L 825 3513 
Q 619 3825 545 3903 
Q 472 3981 241 4091 
Q 178 4122 59 4122 
L 59 4238 
L 1872 4238 
L 1872 4122 
L 1778 4122 
Q 1631 4122 1507 4053 
Q 1384 3984 1384 3847 
Q 1384 3734 1575 3441 
L 2459 2075 
L 3291 3381 
Q 3478 3675 3478 3819 
Q 3478 3906 3433 3975 
Q 3388 4044 3303 4083 
Q 3219 4122 3050 4122 
L 3050 4238 
z
" transform="scale(0.015625)"/>
       <path id="TimesNewRomanPSMT-65" d="M 681 1784 
Q 678 1147 991 784 
Q 1303 422 1725 422 
Q 2006 422 2214 576 
Q 2422 731 2563 1106 
L 2659 1044 
Q 2594 616 2278 264 
Q 1963 -88 1488 -88 
Q 972 -88 605 314 
Q 238 716 238 1394 
Q 238 2128 614 2539 
Q 991 2950 1559 2950 
Q 2041 2950 2350 2633 
Q 2659 2316 2659 1784 
L 681 1784 
z
M 681 1966 
L 2006 1966 
Q 1991 2241 1941 2353 
Q 1863 2528 1708 2628 
Q 1553 2728 1384 2728 
Q 1125 2728 920 2526 
Q 716 2325 681 1966 
z
" transform="scale(0.015625)"/>
       <path id="TimesNewRomanPSMT-61" d="M 1822 413 
Q 1381 72 1269 19 
Q 1100 -59 909 -59 
Q 613 -59 420 144 
Q 228 347 228 678 
Q 228 888 322 1041 
Q 450 1253 767 1440 
Q 1084 1628 1822 1897 
L 1822 2009 
Q 1822 2438 1686 2597 
Q 1550 2756 1291 2756 
Q 1094 2756 978 2650 
Q 859 2544 859 2406 
L 866 2225 
Q 866 2081 792 2003 
Q 719 1925 600 1925 
Q 484 1925 411 2006 
Q 338 2088 338 2228 
Q 338 2497 613 2722 
Q 888 2947 1384 2947 
Q 1766 2947 2009 2819 
Q 2194 2722 2281 2516 
Q 2338 2381 2338 1966 
L 2338 994 
Q 2338 584 2353 492 
Q 2369 400 2405 369 
Q 2441 338 2488 338 
Q 2538 338 2575 359 
Q 2641 400 2828 588 
L 2828 413 
Q 2478 -56 2159 -56 
Q 2006 -56 1915 50 
Q 1825 156 1822 413 
z
M 1822 616 
L 1822 1706 
Q 1350 1519 1213 1441 
Q 966 1303 859 1153 
Q 753 1003 753 825 
Q 753 600 887 451 
Q 1022 303 1197 303 
Q 1434 303 1822 616 
z
" transform="scale(0.015625)"/>
       <path id="TimesNewRomanPSMT-72" d="M 1038 2947 
L 1038 2303 
Q 1397 2947 1775 2947 
Q 1947 2947 2059 2842 
Q 2172 2738 2172 2600 
Q 2172 2478 2090 2393 
Q 2009 2309 1897 2309 
Q 1788 2309 1652 2417 
Q 1516 2525 1450 2525 
Q 1394 2525 1328 2463 
Q 1188 2334 1038 2041 
L 1038 669 
Q 1038 431 1097 309 
Q 1138 225 1241 169 
Q 1344 113 1538 113 
L 1538 0 
L 72 0 
L 72 113 
Q 291 113 397 181 
Q 475 231 506 341 
Q 522 394 522 644 
L 522 1753 
Q 522 2253 501 2348 
Q 481 2444 426 2487 
Q 372 2531 291 2531 
Q 194 2531 72 2484 
L 41 2597 
L 906 2947 
L 1038 2947 
z
" transform="scale(0.015625)"/>
      </defs>
      <use xlink:href="#TimesNewRomanPSMT-59"/>
      <use xlink:href="#TimesNewRomanPSMT-65" x="62.216797"/>
      <use xlink:href="#TimesNewRomanPSMT-61" x="106.601562"/>
      <use xlink:href="#TimesNewRomanPSMT-72" x="150.986328"/>
     </g>
    </g>
   </g>
   <g id="matplotlib.axis_2">
    <g id="ytick_1">
     <g id="line2d_17">
      <defs>
       <path id="m20c730f42c" d="M 0 0 
L -3.5 0 
" style="stroke: #000000; stroke-width: 0.8"/>
      </defs>
      <g>
       <use xlink:href="#m20c730f42c" x="39.760938" y="281.78587" style="stroke: #000000; stroke-width: 0.8"/>
      </g>
     </g>
     <g id="text_18">
      <!-- −4 -->
      <g transform="translate(22.121875 285.257745) scale(0.1 -0.1)">
       <defs>
        <path id="TimesNewRomanPSMT-2212" d="M 3484 2000 
L 116 2000 
L 116 2256 
L 3484 2256 
L 3484 2000 
z
" transform="scale(0.015625)"/>
       </defs>
       <use xlink:href="#TimesNewRomanPSMT-2212"/>
       <use xlink:href="#TimesNewRomanPSMT-34" x="56.396484"/>
      </g>
     </g>
    </g>
    <g id="ytick_2">
     <g id="line2d_18">
      <g>
       <use xlink:href="#m20c730f42c" x="39.760938" y="228.65356" style="stroke: #000000; stroke-width: 0.8"/>
      </g>
     </g>
     <g id="text_19">
      <!-- −2 -->
      <g transform="translate(22.121875 232.125435) scale(0.1 -0.1)">
       <use xlink:href="#TimesNewRomanPSMT-2212"/>
       <use xlink:href="#TimesNewRomanPSMT-32" x="56.396484"/>
      </g>
     </g>
    </g>
    <g id="ytick_3">
     <g id="line2d_19">
      <g>
       <use xlink:href="#m20c730f42c" x="39.760938" y="175.52125" style="stroke: #000000; stroke-width: 0.8"/>
      </g>
     </g>
     <g id="text_20">
      <!-- 0 -->
      <g transform="translate(27.760938 178.993125) scale(0.1 -0.1)">
       <use xlink:href="#TimesNewRomanPSMT-30"/>
      </g>
     </g>
    </g>
    <g id="ytick_4">
     <g id="line2d_20">
      <g>
       <use xlink:href="#m20c730f42c" x="39.760938" y="122.38894" style="stroke: #000000; stroke-width: 0.8"/>
      </g>
     </g>
     <g id="text_21">
      <!-- 2 -->
      <g transform="translate(27.760938 125.860815) scale(0.1 -0.1)">
       <use xlink:href="#TimesNewRomanPSMT-32"/>
      </g>
     </g>
    </g>
    <g id="ytick_5">
     <g id="line2d_21">
      <g>
       <use xlink:href="#m20c730f42c" x="39.760938" y="69.25663" style="stroke: #000000; stroke-width: 0.8"/>
      </g>
     </g>
     <g id="text_22">
      <!-- 4 -->
      <g transform="translate(27.760938 72.728505) scale(0.1 -0.1)">
       <use xlink:href="#TimesNewRomanPSMT-34"/>
      </g>
     </g>
    </g>
    <g id="text_23">
     <!-- Mortgage Rate (%) -->
     <g transform="translate(15.5325 221.8375) rotate(-90) scale(0.12 -0.12)">
      <defs>
       <path id="TimesNewRomanPSMT-4d" d="M 2619 0 
L 981 3566 
L 981 734 
Q 981 344 1066 247 
Q 1181 116 1431 116 
L 1581 116 
L 1581 0 
L 106 0 
L 106 116 
L 256 116 
Q 525 116 638 278 
Q 706 378 706 734 
L 706 3503 
Q 706 3784 644 3909 
Q 600 4000 483 4061 
Q 366 4122 106 4122 
L 106 4238 
L 1306 4238 
L 2844 922 
L 4356 4238 
L 5556 4238 
L 5556 4122 
L 5409 4122 
Q 5138 4122 5025 3959 
Q 4956 3859 4956 3503 
L 4956 734 
Q 4956 344 5044 247 
Q 5159 116 5409 116 
L 5556 116 
L 5556 0 
L 3756 0 
L 3756 116 
L 3906 116 
Q 4178 116 4288 278 
Q 4356 378 4356 734 
L 4356 3566 
L 2722 0 
L 2619 0 
z
" transform="scale(0.015625)"/>
       <path id="TimesNewRomanPSMT-6f" d="M 1600 2947 
Q 2250 2947 2644 2453 
Q 2978 2031 2978 1484 
Q 2978 1100 2793 706 
Q 2609 313 2286 112 
Q 1963 -88 1566 -88 
Q 919 -88 538 428 
Q 216 863 216 1403 
Q 216 1797 411 2186 
Q 606 2575 925 2761 
Q 1244 2947 1600 2947 
z
M 1503 2744 
Q 1338 2744 1170 2645 
Q 1003 2547 900 2300 
Q 797 2053 797 1666 
Q 797 1041 1045 587 
Q 1294 134 1700 134 
Q 2003 134 2200 384 
Q 2397 634 2397 1244 
Q 2397 2006 2069 2444 
Q 1847 2744 1503 2744 
z
" transform="scale(0.015625)"/>
       <path id="TimesNewRomanPSMT-74" d="M 1031 3803 
L 1031 2863 
L 1700 2863 
L 1700 2644 
L 1031 2644 
L 1031 788 
Q 1031 509 1111 412 
Q 1191 316 1316 316 
Q 1419 316 1516 380 
Q 1613 444 1666 569 
L 1788 569 
Q 1678 263 1478 108 
Q 1278 -47 1066 -47 
Q 922 -47 784 33 
Q 647 113 581 261 
Q 516 409 516 719 
L 516 2644 
L 63 2644 
L 63 2747 
Q 234 2816 414 2980 
Q 594 3144 734 3369 
Q 806 3488 934 3803 
L 1031 3803 
z
" transform="scale(0.015625)"/>
       <path id="TimesNewRomanPSMT-67" d="M 966 1044 
Q 703 1172 562 1401 
Q 422 1631 422 1909 
Q 422 2334 742 2640 
Q 1063 2947 1563 2947 
Q 1972 2947 2272 2747 
L 2878 2747 
Q 3013 2747 3034 2739 
Q 3056 2731 3066 2713 
Q 3084 2684 3084 2613 
Q 3084 2531 3069 2500 
Q 3059 2484 3036 2475 
Q 3013 2466 2878 2466 
L 2506 2466 
Q 2681 2241 2681 1891 
Q 2681 1491 2375 1206 
Q 2069 922 1553 922 
Q 1341 922 1119 984 
Q 981 866 932 777 
Q 884 688 884 625 
Q 884 572 936 522 
Q 988 472 1138 450 
Q 1225 438 1575 428 
Q 2219 413 2409 384 
Q 2700 344 2873 169 
Q 3047 -6 3047 -263 
Q 3047 -616 2716 -925 
Q 2228 -1381 1444 -1381 
Q 841 -1381 425 -1109 
Q 191 -953 191 -784 
Q 191 -709 225 -634 
Q 278 -519 444 -313 
Q 466 -284 763 25 
Q 600 122 533 198 
Q 466 275 466 372 
Q 466 481 555 628 
Q 644 775 966 1044 
z
M 1509 2797 
Q 1278 2797 1122 2612 
Q 966 2428 966 2047 
Q 966 1553 1178 1281 
Q 1341 1075 1591 1075 
Q 1828 1075 1981 1253 
Q 2134 1431 2134 1813 
Q 2134 2309 1919 2591 
Q 1759 2797 1509 2797 
z
M 934 0 
Q 788 -159 713 -296 
Q 638 -434 638 -550 
Q 638 -700 819 -813 
Q 1131 -1006 1722 -1006 
Q 2284 -1006 2551 -807 
Q 2819 -609 2819 -384 
Q 2819 -222 2659 -153 
Q 2497 -84 2016 -72 
Q 1313 -53 934 0 
z
" transform="scale(0.015625)"/>
       <path id="TimesNewRomanPSMT-20" transform="scale(0.015625)"/>
       <path id="TimesNewRomanPSMT-52" d="M 4325 0 
L 3194 0 
L 1759 1981 
Q 1600 1975 1500 1975 
Q 1459 1975 1412 1976 
Q 1366 1978 1316 1981 
L 1316 750 
Q 1316 350 1403 253 
Q 1522 116 1759 116 
L 1925 116 
L 1925 0 
L 109 0 
L 109 116 
L 269 116 
Q 538 116 653 291 
Q 719 388 719 750 
L 719 3488 
Q 719 3888 631 3984 
Q 509 4122 269 4122 
L 109 4122 
L 109 4238 
L 1653 4238 
Q 2328 4238 2648 4139 
Q 2969 4041 3192 3777 
Q 3416 3513 3416 3147 
Q 3416 2756 3161 2468 
Q 2906 2181 2372 2063 
L 3247 847 
Q 3547 428 3762 290 
Q 3978 153 4325 116 
L 4325 0 
z
M 1316 2178 
Q 1375 2178 1419 2176 
Q 1463 2175 1491 2175 
Q 2097 2175 2405 2437 
Q 2713 2700 2713 3106 
Q 2713 3503 2464 3751 
Q 2216 4000 1806 4000 
Q 1625 4000 1316 3941 
L 1316 2178 
z
" transform="scale(0.015625)"/>
       <path id="TimesNewRomanPSMT-28" d="M 1988 -1253 
L 1988 -1369 
Q 1516 -1131 1200 -813 
Q 750 -359 506 256 
Q 263 872 263 1534 
Q 263 2503 741 3301 
Q 1219 4100 1988 4444 
L 1988 4313 
Q 1603 4100 1356 3731 
Q 1109 3363 987 2797 
Q 866 2231 866 1616 
Q 866 947 969 400 
Q 1050 -31 1165 -292 
Q 1281 -553 1476 -793 
Q 1672 -1034 1988 -1253 
z
" transform="scale(0.015625)"/>
       <path id="TimesNewRomanPSMT-25" d="M 4350 4334 
L 1263 -175 
L 984 -175 
L 4072 4334 
L 4350 4334 
z
M 1138 4334 
Q 1559 4334 1792 3984 
Q 2025 3634 2025 3181 
Q 2025 2638 1762 2341 
Q 1500 2044 1131 2044 
Q 884 2044 678 2180 
Q 472 2316 348 2584 
Q 225 2853 225 3181 
Q 225 3509 350 3786 
Q 475 4063 692 4198 
Q 909 4334 1138 4334 
z
M 1128 4159 
Q 969 4159 845 3971 
Q 722 3784 722 3184 
Q 722 2750 791 2522 
Q 844 2350 956 2256 
Q 1022 2200 1119 2200 
Q 1269 2200 1375 2363 
Q 1531 2603 1531 3166 
Q 1531 3759 1378 4000 
Q 1278 4159 1128 4159 
z
M 4206 2103 
Q 4428 2103 4648 1962 
Q 4869 1822 4989 1553 
Q 5109 1284 5109 963 
Q 5109 409 4843 117 
Q 4578 -175 4216 -175 
Q 3988 -175 3773 -34 
Q 3559 106 3436 367 
Q 3313 628 3313 963 
Q 3313 1291 3436 1562 
Q 3559 1834 3773 1968 
Q 3988 2103 4206 2103 
z
M 4209 1938 
Q 4059 1938 3950 1769 
Q 3809 1550 3809 941 
Q 3809 381 3953 159 
Q 4059 0 4209 0 
Q 4353 0 4466 172 
Q 4616 400 4616 956 
Q 4616 1544 4466 1778 
Q 4363 1938 4209 1938 
z
" transform="scale(0.015625)"/>
       <path id="TimesNewRomanPSMT-29" d="M 144 4313 
L 144 4444 
Q 619 4209 934 3891 
Q 1381 3434 1625 2820 
Q 1869 2206 1869 1541 
Q 1869 572 1392 -226 
Q 916 -1025 144 -1369 
L 144 -1253 
Q 528 -1038 776 -670 
Q 1025 -303 1145 264 
Q 1266 831 1266 1447 
Q 1266 2113 1163 2663 
Q 1084 3094 967 3353 
Q 850 3613 656 3853 
Q 463 4094 144 4313 
z
" transform="scale(0.015625)"/>
      </defs>
      <use xlink:href="#TimesNewRomanPSMT-4d"/>
      <use xlink:href="#TimesNewRomanPSMT-6f" x="88.916016"/>
      <use xlink:href="#TimesNewRomanPSMT-72" x="138.916016"/>
      <use xlink:href="#TimesNewRomanPSMT-74" x="172.216797"/>
      <use xlink:href="#TimesNewRomanPSMT-67" x="200"/>
      <use xlink:href="#TimesNewRomanPSMT-61" x="250"/>
      <use xlink:href="#TimesNewRomanPSMT-67" x="294.384766"/>
      <use xlink:href="#TimesNewRomanPSMT-65" x="344.384766"/>
      <use xlink:href="#TimesNewRomanPSMT-20" x="388.769531"/>
      <use xlink:href="#TimesNewRomanPSMT-52" x="413.769531"/>
      <use xlink:href="#TimesNewRomanPSMT-61" x="480.46875"/>
      <use xlink:href="#TimesNewRomanPSMT-74" x="524.853516"/>
      <use xlink:href="#TimesNewRomanPSMT-65" x="552.636719"/>
      <use xlink:href="#TimesNewRomanPSMT-20" x="597.021484"/>
      <use xlink:href="#TimesNewRomanPSMT-28" x="622.021484"/>
      <use xlink:href="#TimesNewRomanPSMT-25" x="655.322266"/>
      <use xlink:href="#TimesNewRomanPSMT-29" x="738.623047"/>
     </g>
    </g>
   </g>
   <g id="patch_3">
    <path d="M 39.760938 314.12125 
L 39.760938 36.92125 
" style="fill: none; stroke: #000000; stroke-width: 0.8; stroke-linejoin: miter; stroke-linecap: square"/>
   </g>
   <g id="patch_4">
    <path d="M 428.560938 314.12125 
L 428.560938 36.92125 
" style="fill: none; stroke: #000000; stroke-width: 0.8; stroke-linejoin: miter; stroke-linecap: square"/>
   </g>
   <g id="patch_5">
    <path d="M 39.760938 314.12125 
L 428.560938 314.12125 
" style="fill: none; stroke: #000000; stroke-width: 0.8; stroke-linejoin: miter; stroke-linecap: square"/>
   </g>
   <g id="patch_6">
    <path d="M 39.760938 36.92125 
L 428.560938 36.92125 
" style="fill: none; stroke: #000000; stroke-width: 0.8; stroke-linejoin: miter; stroke-linecap: square"/>
   </g>
   <g id="text_24">
    <!-- Mortgage Rate from 1961 to 1976 (%)  -->
    <g transform="translate(124.324375 16.92125) scale(0.14 -0.14)">
     <defs>
      <path id="TimesNewRomanPSMT-66" d="M 1319 2638 
L 1319 756 
Q 1319 356 1406 250 
Q 1522 113 1716 113 
L 1975 113 
L 1975 0 
L 266 0 
L 266 113 
L 394 113 
Q 519 113 622 175 
Q 725 238 764 344 
Q 803 450 803 756 
L 803 2638 
L 247 2638 
L 247 2863 
L 803 2863 
L 803 3050 
Q 803 3478 940 3775 
Q 1078 4072 1361 4255 
Q 1644 4438 1997 4438 
Q 2325 4438 2600 4225 
Q 2781 4084 2781 3909 
Q 2781 3816 2700 3733 
Q 2619 3650 2525 3650 
Q 2453 3650 2373 3701 
Q 2294 3753 2178 3923 
Q 2063 4094 1966 4153 
Q 1869 4213 1750 4213 
Q 1606 4213 1506 4136 
Q 1406 4059 1362 3898 
Q 1319 3738 1319 3069 
L 1319 2863 
L 2056 2863 
L 2056 2638 
L 1319 2638 
z
" transform="scale(0.015625)"/>
      <path id="TimesNewRomanPSMT-6d" d="M 1050 2338 
Q 1363 2650 1419 2697 
Q 1559 2816 1721 2881 
Q 1884 2947 2044 2947 
Q 2313 2947 2506 2790 
Q 2700 2634 2766 2338 
Q 3088 2713 3309 2830 
Q 3531 2947 3766 2947 
Q 3994 2947 4170 2830 
Q 4347 2713 4450 2447 
Q 4519 2266 4519 1878 
L 4519 647 
Q 4519 378 4559 278 
Q 4591 209 4675 161 
Q 4759 113 4950 113 
L 4950 0 
L 3538 0 
L 3538 113 
L 3597 113 
Q 3781 113 3884 184 
Q 3956 234 3988 344 
Q 4000 397 4000 647 
L 4000 1878 
Q 4000 2228 3916 2372 
Q 3794 2572 3525 2572 
Q 3359 2572 3192 2489 
Q 3025 2406 2788 2181 
L 2781 2147 
L 2788 2013 
L 2788 647 
Q 2788 353 2820 281 
Q 2853 209 2943 161 
Q 3034 113 3253 113 
L 3253 0 
L 1806 0 
L 1806 113 
Q 2044 113 2133 169 
Q 2222 225 2256 338 
Q 2272 391 2272 647 
L 2272 1878 
Q 2272 2228 2169 2381 
Q 2031 2581 1784 2581 
Q 1616 2581 1450 2491 
Q 1191 2353 1050 2181 
L 1050 647 
Q 1050 366 1089 281 
Q 1128 197 1204 155 
Q 1281 113 1516 113 
L 1516 0 
L 100 0 
L 100 113 
Q 297 113 375 155 
Q 453 197 493 289 
Q 534 381 534 647 
L 534 1741 
Q 534 2213 506 2350 
Q 484 2453 437 2492 
Q 391 2531 309 2531 
Q 222 2531 100 2484 
L 53 2597 
L 916 2947 
L 1050 2947 
L 1050 2338 
z
" transform="scale(0.015625)"/>
     </defs>
     <use xlink:href="#TimesNewRomanPSMT-4d"/>
     <use xlink:href="#TimesNewRomanPSMT-6f" x="88.916016"/>
     <use xlink:href="#TimesNewRomanPSMT-72" x="138.916016"/>
     <use xlink:href="#TimesNewRomanPSMT-74" x="172.216797"/>
     <use xlink:href="#TimesNewRomanPSMT-67" x="200"/>
     <use xlink:href="#TimesNewRomanPSMT-61" x="250"/>
     <use xlink:href="#TimesNewRomanPSMT-67" x="294.384766"/>
     <use xlink:href="#TimesNewRomanPSMT-65" x="344.384766"/>
     <use xlink:href="#TimesNewRomanPSMT-20" x="388.769531"/>
     <use xlink:href="#TimesNewRomanPSMT-52" x="413.769531"/>
     <use xlink:href="#TimesNewRomanPSMT-61" x="480.46875"/>
     <use xlink:href="#TimesNewRomanPSMT-74" x="524.853516"/>
     <use xlink:href="#TimesNewRomanPSMT-65" x="552.636719"/>
     <use xlink:href="#TimesNewRomanPSMT-20" x="597.021484"/>
     <use xlink:href="#TimesNewRomanPSMT-66" x="622.021484"/>
     <use xlink:href="#TimesNewRomanPSMT-72" x="655.322266"/>
     <use xlink:href="#TimesNewRomanPSMT-6f" x="688.623047"/>
     <use xlink:href="#TimesNewRomanPSMT-6d" x="738.623047"/>
     <use xlink:href="#TimesNewRomanPSMT-20" x="816.40625"/>
     <use xlink:href="#TimesNewRomanPSMT-31" x="841.40625"/>
     <use xlink:href="#TimesNewRomanPSMT-39" x="891.40625"/>
     <use xlink:href="#TimesNewRomanPSMT-36" x="941.40625"/>
     <use xlink:href="#TimesNewRomanPSMT-31" x="991.40625"/>
     <use xlink:href="#TimesNewRomanPSMT-20" x="1041.40625"/>
     <use xlink:href="#TimesNewRomanPSMT-74" x="1066.40625"/>
     <use xlink:href="#TimesNewRomanPSMT-6f" x="1094.189453"/>
     <use xlink:href="#TimesNewRomanPSMT-20" x="1144.189453"/>
     <use xlink:href="#TimesNewRomanPSMT-31" x="1169.189453"/>
     <use xlink:href="#TimesNewRomanPSMT-39" x="1219.189453"/>
     <use xlink:href="#TimesNewRomanPSMT-37" x="1269.189453"/>
     <use xlink:href="#TimesNewRomanPSMT-36" x="1319.189453"/>
     <use xlink:href="#TimesNewRomanPSMT-20" x="1369.189453"/>
     <use xlink:href="#TimesNewRomanPSMT-28" x="1394.189453"/>
     <use xlink:href="#TimesNewRomanPSMT-25" x="1427.490234"/>
     <use xlink:href="#TimesNewRomanPSMT-29" x="1510.791016"/>
     <use xlink:href="#TimesNewRomanPSMT-20" x="1544.091797"/>
    </g>
   </g>
   <g id="legend_1">
    <g id="patch_7">
     <path d="M 445.336938 170.872812 
L 465.336938 170.872812 
L 465.336938 163.872812 
L 445.336938 163.872812 
z
" style="fill: #1f77b4"/>
    </g>
    <g id="text_25">
     <!-- Titan Lending -->
     <g transform="translate(473.336938 170.872812) scale(0.1 -0.1)">
      <defs>
       <path id="TimesNewRomanPSMT-54" d="M 3703 4238 
L 3750 3244 
L 3631 3244 
Q 3597 3506 3538 3619 
Q 3441 3800 3280 3886 
Q 3119 3972 2856 3972 
L 2259 3972 
L 2259 734 
Q 2259 344 2344 247 
Q 2463 116 2709 116 
L 2856 116 
L 2856 0 
L 1059 0 
L 1059 116 
L 1209 116 
Q 1478 116 1591 278 
Q 1659 378 1659 734 
L 1659 3972 
L 1150 3972 
Q 853 3972 728 3928 
Q 566 3869 450 3700 
Q 334 3531 313 3244 
L 194 3244 
L 244 4238 
L 3703 4238 
z
" transform="scale(0.015625)"/>
       <path id="TimesNewRomanPSMT-69" d="M 928 4444 
Q 1059 4444 1151 4351 
Q 1244 4259 1244 4128 
Q 1244 3997 1151 3903 
Q 1059 3809 928 3809 
Q 797 3809 703 3903 
Q 609 3997 609 4128 
Q 609 4259 701 4351 
Q 794 4444 928 4444 
z
M 1188 2947 
L 1188 647 
Q 1188 378 1227 289 
Q 1266 200 1342 156 
Q 1419 113 1622 113 
L 1622 0 
L 231 0 
L 231 113 
Q 441 113 512 153 
Q 584 194 626 287 
Q 669 381 669 647 
L 669 1750 
Q 669 2216 641 2353 
Q 619 2453 572 2492 
Q 525 2531 444 2531 
Q 356 2531 231 2484 
L 188 2597 
L 1050 2947 
L 1188 2947 
z
" transform="scale(0.015625)"/>
       <path id="TimesNewRomanPSMT-6e" d="M 1034 2341 
Q 1538 2947 1994 2947 
Q 2228 2947 2397 2830 
Q 2566 2713 2666 2444 
Q 2734 2256 2734 1869 
L 2734 647 
Q 2734 375 2778 278 
Q 2813 200 2889 156 
Q 2966 113 3172 113 
L 3172 0 
L 1756 0 
L 1756 113 
L 1816 113 
Q 2016 113 2095 173 
Q 2175 234 2206 353 
Q 2219 400 2219 647 
L 2219 1819 
Q 2219 2209 2117 2386 
Q 2016 2563 1775 2563 
Q 1403 2563 1034 2156 
L 1034 647 
Q 1034 356 1069 288 
Q 1113 197 1189 155 
Q 1266 113 1500 113 
L 1500 0 
L 84 0 
L 84 113 
L 147 113 
Q 366 113 442 223 
Q 519 334 519 647 
L 519 1709 
Q 519 2225 495 2337 
Q 472 2450 423 2490 
Q 375 2531 294 2531 
Q 206 2531 84 2484 
L 38 2597 
L 900 2947 
L 1034 2947 
L 1034 2341 
z
" transform="scale(0.015625)"/>
       <path id="TimesNewRomanPSMT-4c" d="M 3669 1172 
L 3772 1150 
L 3409 0 
L 128 0 
L 128 116 
L 288 116 
Q 556 116 672 291 
Q 738 391 738 753 
L 738 3488 
Q 738 3884 650 3984 
Q 528 4122 288 4122 
L 128 4122 
L 128 4238 
L 2047 4238 
L 2047 4122 
Q 1709 4125 1573 4059 
Q 1438 3994 1388 3894 
Q 1338 3794 1338 3416 
L 1338 753 
Q 1338 494 1388 397 
Q 1425 331 1503 300 
Q 1581 269 1991 269 
L 2300 269 
Q 2788 269 2984 341 
Q 3181 413 3343 595 
Q 3506 778 3669 1172 
z
" transform="scale(0.015625)"/>
       <path id="TimesNewRomanPSMT-64" d="M 2222 322 
Q 2013 103 1813 7 
Q 1613 -88 1381 -88 
Q 913 -88 563 304 
Q 213 697 213 1313 
Q 213 1928 600 2439 
Q 988 2950 1597 2950 
Q 1975 2950 2222 2709 
L 2222 3238 
Q 2222 3728 2198 3840 
Q 2175 3953 2125 3993 
Q 2075 4034 2000 4034 
Q 1919 4034 1784 3984 
L 1744 4094 
L 2597 4444 
L 2738 4444 
L 2738 1134 
Q 2738 631 2761 520 
Q 2784 409 2836 365 
Q 2888 322 2956 322 
Q 3041 322 3181 375 
L 3216 266 
L 2366 -88 
L 2222 -88 
L 2222 322 
z
M 2222 541 
L 2222 2016 
Q 2203 2228 2109 2403 
Q 2016 2578 1861 2667 
Q 1706 2756 1559 2756 
Q 1284 2756 1069 2509 
Q 784 2184 784 1559 
Q 784 928 1059 592 
Q 1334 256 1672 256 
Q 1956 256 2222 541 
z
" transform="scale(0.015625)"/>
      </defs>
      <use xlink:href="#TimesNewRomanPSMT-54"/>
      <use xlink:href="#TimesNewRomanPSMT-69" x="57.583984"/>
      <use xlink:href="#TimesNewRomanPSMT-74" x="85.367188"/>
      <use xlink:href="#TimesNewRomanPSMT-61" x="113.150391"/>
      <use xlink:href="#TimesNewRomanPSMT-6e" x="157.535156"/>
      <use xlink:href="#TimesNewRomanPSMT-20" x="207.535156"/>
      <use xlink:href="#TimesNewRomanPSMT-4c" x="232.535156"/>
      <use xlink:href="#TimesNewRomanPSMT-65" x="293.619141"/>
      <use xlink:href="#TimesNewRomanPSMT-6e" x="338.003906"/>
      <use xlink:href="#TimesNewRomanPSMT-64" x="388.003906"/>
      <use xlink:href="#TimesNewRomanPSMT-69" x="438.003906"/>
      <use xlink:href="#TimesNewRomanPSMT-6e" x="465.787109"/>
      <use xlink:href="#TimesNewRomanPSMT-67" x="515.787109"/>
     </g>
    </g>
    <g id="patch_8">
     <path d="M 445.336938 185.030625 
L 465.336938 185.030625 
L 465.336938 178.030625 
L 445.336938 178.030625 
z
" style="fill: #aec7e8"/>
    </g>
    <g id="text_26">
     <!-- Aura Finance -->
     <g transform="translate(473.336938 185.030625) scale(0.1 -0.1)">
      <defs>
       <path id="TimesNewRomanPSMT-41" d="M 2928 1419 
L 1288 1419 
L 1000 750 
Q 894 503 894 381 
Q 894 284 986 211 
Q 1078 138 1384 116 
L 1384 0 
L 50 0 
L 50 116 
Q 316 163 394 238 
Q 553 388 747 847 
L 2238 4334 
L 2347 4334 
L 3822 809 
Q 4000 384 4145 257 
Q 4291 131 4550 116 
L 4550 0 
L 2878 0 
L 2878 116 
Q 3131 128 3220 200 
Q 3309 272 3309 375 
Q 3309 513 3184 809 
L 2928 1419 
z
M 2841 1650 
L 2122 3363 
L 1384 1650 
L 2841 1650 
z
" transform="scale(0.015625)"/>
       <path id="TimesNewRomanPSMT-75" d="M 2709 2863 
L 2709 1128 
Q 2709 631 2732 520 
Q 2756 409 2807 365 
Q 2859 322 2928 322 
Q 3025 322 3147 375 
L 3191 266 
L 2334 -88 
L 2194 -88 
L 2194 519 
Q 1825 119 1631 15 
Q 1438 -88 1222 -88 
Q 981 -88 804 51 
Q 628 191 559 409 
Q 491 628 491 1028 
L 491 2306 
Q 491 2509 447 2587 
Q 403 2666 317 2708 
Q 231 2750 6 2747 
L 6 2863 
L 1009 2863 
L 1009 947 
Q 1009 547 1148 422 
Q 1288 297 1484 297 
Q 1619 297 1789 381 
Q 1959 466 2194 703 
L 2194 2325 
Q 2194 2569 2105 2655 
Q 2016 2741 1734 2747 
L 1734 2863 
L 2709 2863 
z
" transform="scale(0.015625)"/>
       <path id="TimesNewRomanPSMT-46" d="M 1309 4006 
L 1309 2341 
L 2081 2341 
Q 2347 2341 2470 2458 
Q 2594 2575 2634 2922 
L 2750 2922 
L 2750 1488 
L 2634 1488 
Q 2631 1734 2570 1850 
Q 2509 1966 2401 2023 
Q 2294 2081 2081 2081 
L 1309 2081 
L 1309 750 
Q 1309 428 1350 325 
Q 1381 247 1481 191 
Q 1619 116 1769 116 
L 1922 116 
L 1922 0 
L 103 0 
L 103 116 
L 253 116 
Q 516 116 634 269 
Q 709 369 709 750 
L 709 3488 
Q 709 3809 669 3913 
Q 638 3991 541 4047 
Q 406 4122 253 4122 
L 103 4122 
L 103 4238 
L 3256 4238 
L 3297 3306 
L 3188 3306 
Q 3106 3603 2998 3742 
Q 2891 3881 2733 3943 
Q 2575 4006 2244 4006 
L 1309 4006 
z
" transform="scale(0.015625)"/>
       <path id="TimesNewRomanPSMT-63" d="M 2631 1088 
Q 2516 522 2178 217 
Q 1841 -88 1431 -88 
Q 944 -88 581 321 
Q 219 731 219 1428 
Q 219 2103 620 2525 
Q 1022 2947 1584 2947 
Q 2006 2947 2278 2723 
Q 2550 2500 2550 2259 
Q 2550 2141 2473 2067 
Q 2397 1994 2259 1994 
Q 2075 1994 1981 2113 
Q 1928 2178 1911 2362 
Q 1894 2547 1784 2644 
Q 1675 2738 1481 2738 
Q 1169 2738 978 2506 
Q 725 2200 725 1697 
Q 725 1184 976 792 
Q 1228 400 1656 400 
Q 1963 400 2206 609 
Q 2378 753 2541 1131 
L 2631 1088 
z
" transform="scale(0.015625)"/>
      </defs>
      <use xlink:href="#TimesNewRomanPSMT-41"/>
      <use xlink:href="#TimesNewRomanPSMT-75" x="72.216797"/>
      <use xlink:href="#TimesNewRomanPSMT-72" x="122.216797"/>
      <use xlink:href="#TimesNewRomanPSMT-61" x="155.517578"/>
      <use xlink:href="#TimesNewRomanPSMT-20" x="199.902344"/>
      <use xlink:href="#TimesNewRomanPSMT-46" x="224.902344"/>
      <use xlink:href="#TimesNewRomanPSMT-69" x="280.517578"/>
      <use xlink:href="#TimesNewRomanPSMT-6e" x="308.300781"/>
      <use xlink:href="#TimesNewRomanPSMT-61" x="358.300781"/>
      <use xlink:href="#TimesNewRomanPSMT-6e" x="402.685547"/>
      <use xlink:href="#TimesNewRomanPSMT-63" x="452.685547"/>
      <use xlink:href="#TimesNewRomanPSMT-65" x="497.070312"/>
     </g>
    </g>
   </g>
  </g>
 </g>
 <defs>
  <clipPath id="p990772f62d">
   <rect x="39.760938" y="36.92125" width="388.8" height="277.2"/>
  </clipPath>
 </defs>
</svg>
