<?xml version="1.0" encoding="utf-8" standalone="no"?>
<!DOCTYPE svg PUBLIC "-//W3C//DTD SVG 1.1//EN"
  "http://www.w3.org/Graphics/SVG/1.1/DTD/svg11.dtd">
<svg xmlns:xlink="http://www.w3.org/1999/xlink" width="569.239438pt" height="363.785279pt" viewBox="0 0 569.239438 363.785279" xmlns="http://www.w3.org/2000/svg" version="1.1">
 <metadata>
  <rdf:RDF xmlns:dc="http://purl.org/dc/elements/1.1/" xmlns:cc="http://creativecommons.org/ns#" xmlns:rdf="http://www.w3.org/1999/02/22-rdf-syntax-ns#">
   <cc:Work>
    <dc:type rdf:resource="http://purl.org/dc/dcmitype/StillImage"/>
    <dc:date>2025-05-21T21:40:52.780409</dc:date>
    <dc:format>image/svg+xml</dc:format>
    <dc:creator>
     <cc:Agent>
      <dc:title>Matplotlib v3.9.2, https://matplotlib.org/</dc:title>
     </cc:Agent>
    </dc:creator>
   </cc:Work>
  </rdf:RDF>
 </metadata>
 <defs>
  <style type="text/css">*{stroke-linejoin: round; stroke-linecap: butt}</style>
 </defs>
 <g id="figure_1">
  <g id="patch_1">
   <path d="M 0 363.785279 
L 569.239437 363.785279 
L 569.239437 0 
L 0 0 
z
" style="fill: #ffffff"/>
  </g>
  <g id="axes_1">
   <g id="patch_2">
    <path d="M 49.738438 314.12125 
L 438.538437 314.12125 
L 438.538437 36.92125 
L 49.738438 36.92125 
z
" style="fill: #ffffff"/>
   </g>
   <g id="PolyCollection_1">
    <path d="M 67.411165 228.073636 
L 67.411165 254.401358 
L 71.885273 255.190034 
L 76.359381 255.900163 
L 80.833489 256.536399 
L 85.307597 257.103398 
L 89.781706 257.605814 
L 94.255814 258.048302 
L 98.729922 258.435517 
L 103.20403 258.772114 
L 107.678138 259.062748 
L 112.152246 259.312074 
L 116.626355 259.524746 
L 121.100463 259.70542 
L 125.574571 259.85875 
L 130.048679 259.989391 
L 134.522787 260.101998 
L 138.996895 260.201226 
L 143.471004 260.291731 
L 147.945112 260.378165 
L 152.41922 260.465186 
L 156.893328 260.557447 
L 161.367436 260.659603 
L 165.841545 260.77631 
L 170.315653 260.912202 
L 174.789761 261.071254 
L 179.263869 261.25665 
L 183.737977 261.471523 
L 188.212085 261.719007 
L 192.686194 262.002237 
L 197.160302 262.324347 
L 201.63441 262.688471 
L 206.108518 263.097745 
L 210.582626 263.555302 
L 215.056734 264.064276 
L 219.530843 264.627794 
L 224.004951 265.244155 
L 228.479059 265.899006 
L 232.953167 266.575941 
L 237.427275 267.258554 
L 241.901383 267.930441 
L 246.375492 268.575196 
L 250.8496 269.176413 
L 255.323708 269.717687 
L 259.797816 270.182613 
L 264.271924 270.554784 
L 268.746032 270.817796 
L 273.220141 270.96045 
L 277.694249 271.00368 
L 282.168357 270.980666 
L 286.642465 270.924611 
L 291.116573 270.868719 
L 295.590681 270.846195 
L 300.06479 270.890241 
L 304.538898 271.034062 
L 309.013006 271.310862 
L 313.487114 271.753843 
L 317.961222 272.396211 
L 322.43533 273.268902 
L 326.909439 274.364782 
L 331.383547 275.645126 
L 335.857655 277.070255 
L 340.331763 278.600488 
L 344.805871 280.196144 
L 349.27998 281.817542 
L 353.754088 283.425003 
L 358.228196 284.978844 
L 362.702304 286.439387 
L 367.176412 287.76695 
L 371.65052 288.921853 
L 376.124629 289.864415 
L 380.598737 290.554955 
L 385.072845 290.953794 
L 389.546953 291.02125 
L 394.021061 290.717643 
L 398.495169 290.003292 
L 402.969278 288.838518 
L 407.443386 287.183638 
L 411.917494 284.998973 
L 416.391602 282.244842 
L 420.86571 278.881565 
L 420.86571 254.177646 
L 420.86571 254.177646 
L 416.391602 257.487604 
L 411.917494 260.140443 
L 407.443386 262.180114 
L 402.969278 263.650565 
L 398.495169 264.595746 
L 394.021061 265.059605 
L 389.546953 265.086092 
L 385.072845 264.719157 
L 380.598737 264.002748 
L 376.124629 262.980814 
L 371.65052 261.697305 
L 367.176412 260.196171 
L 362.702304 258.521359 
L 358.228196 256.716821 
L 353.754088 254.826504 
L 349.27998 252.894358 
L 344.805871 250.964332 
L 340.331763 249.080376 
L 335.857655 247.286439 
L 331.383547 245.626469 
L 326.909439 244.144417 
L 322.43533 242.884231 
L 317.961222 241.888879 
L 313.487114 241.168867 
L 309.013006 240.695584 
L 304.538898 240.438092 
L 300.06479 240.36545 
L 295.590681 240.446719 
L 291.116573 240.650958 
L 286.642465 240.947228 
L 282.168357 241.30459 
L 277.694249 241.692102 
L 273.220141 242.078827 
L 268.746032 242.433836 
L 264.271924 242.73307 
L 259.797816 242.970477 
L 255.323708 243.142928 
L 250.8496 243.247292 
L 246.375492 243.280438 
L 241.901383 243.239235 
L 237.427275 243.120554 
L 232.953167 242.921263 
L 228.479059 242.638232 
L 224.004951 242.268329 
L 219.530843 241.808425 
L 215.056734 241.256926 
L 210.582626 240.621724 
L 206.108518 239.914324 
L 201.63441 239.146242 
L 197.160302 238.32899 
L 192.686194 237.474082 
L 188.212085 236.593032 
L 183.737977 235.697354 
L 179.263869 234.798561 
L 174.789761 233.908167 
L 170.315653 233.037686 
L 165.841545 232.198357 
L 161.367436 231.396808 
L 156.893328 230.635839 
L 152.41922 229.918136 
L 147.945112 229.246384 
L 143.471004 228.623268 
L 138.996895 228.051474 
L 134.522787 227.533686 
L 130.048679 227.07259 
L 125.574571 226.670872 
L 121.100463 226.331216 
L 116.626355 226.056307 
L 112.152246 225.848832 
L 107.678138 225.711474 
L 103.20403 225.64692 
L 98.729922 225.657855 
L 94.255814 225.746963 
L 89.781706 225.916931 
L 85.307597 226.170442 
L 80.833489 226.510183 
L 76.359381 226.938839 
L 71.885273 227.459095 
L 67.411165 228.073636 
z
" clip-path="url(#p2ed8ab1231)" style="fill: #1f77b4"/>
   </g>
   <g id="PolyCollection_2">
    <path d="M 67.411165 199.212178 
L 67.411165 228.073636 
L 71.885273 227.459095 
L 76.359381 226.938839 
L 80.833489 226.510183 
L 85.307597 226.170442 
L 89.781706 225.916931 
L 94.255814 225.746963 
L 98.729922 225.657855 
L 103.20403 225.64692 
L 107.678138 225.711474 
L 112.152246 225.848832 
L 116.626355 226.056307 
L 121.100463 226.331216 
L 125.574571 226.670872 
L 130.048679 227.07259 
L 134.522787 227.533686 
L 138.996895 228.051474 
L 143.471004 228.623268 
L 147.945112 229.246384 
L 152.41922 229.918136 
L 156.893328 230.635839 
L 161.367436 231.396808 
L 165.841545 232.198357 
L 170.315653 233.037686 
L 174.789761 233.908167 
L 179.263869 234.798561 
L 183.737977 235.697354 
L 188.212085 236.593032 
L 192.686194 237.474082 
L 197.160302 238.32899 
L 201.63441 239.146242 
L 206.108518 239.914324 
L 210.582626 240.621724 
L 215.056734 241.256926 
L 219.530843 241.808425 
L 224.004951 242.268329 
L 228.479059 242.638232 
L 232.953167 242.921263 
L 237.427275 243.120554 
L 241.901383 243.239235 
L 246.375492 243.280438 
L 250.8496 243.247292 
L 255.323708 243.142928 
L 259.797816 242.970477 
L 264.271924 242.73307 
L 268.746032 242.433836 
L 273.220141 242.078827 
L 277.694249 241.692102 
L 282.168357 241.30459 
L 286.642465 240.947228 
L 291.116573 240.650958 
L 295.590681 240.446719 
L 300.06479 240.36545 
L 304.538898 240.438092 
L 309.013006 240.695584 
L 313.487114 241.168867 
L 317.961222 241.888879 
L 322.43533 242.884231 
L 326.909439 244.144417 
L 331.383547 245.626469 
L 335.857655 247.286439 
L 340.331763 249.080376 
L 344.805871 250.964332 
L 349.27998 252.894358 
L 353.754088 254.826504 
L 358.228196 256.716821 
L 362.702304 258.521359 
L 367.176412 260.196171 
L 371.65052 261.697305 
L 376.124629 262.980814 
L 380.598737 264.002748 
L 385.072845 264.719157 
L 389.546953 265.086092 
L 394.021061 265.059605 
L 398.495169 264.595746 
L 402.969278 263.650565 
L 407.443386 262.180114 
L 411.917494 260.140443 
L 416.391602 257.487604 
L 420.86571 254.177646 
L 420.86571 202.492461 
L 420.86571 202.492461 
L 416.391602 203.327882 
L 411.917494 204.084605 
L 407.443386 204.764916 
L 402.969278 205.371098 
L 398.495169 205.905437 
L 394.021061 206.370216 
L 389.546953 206.76772 
L 385.072845 207.100234 
L 380.598737 207.370042 
L 376.124629 207.579429 
L 371.65052 207.730679 
L 367.176412 207.826077 
L 362.702304 207.867908 
L 358.228196 207.858455 
L 353.754088 207.800003 
L 349.27998 207.694837 
L 344.805871 207.545242 
L 340.331763 207.353502 
L 335.857655 207.121901 
L 331.383547 206.852724 
L 326.909439 206.548256 
L 322.43533 206.21078 
L 317.961222 205.842549 
L 313.487114 205.444726 
L 309.013006 205.01716 
L 304.538898 204.559625 
L 300.06479 204.071893 
L 295.590681 203.553737 
L 291.116573 203.004928 
L 286.642465 202.425241 
L 282.168357 201.814446 
L 277.694249 201.172317 
L 273.220141 200.498627 
L 268.746032 199.793162 
L 264.271924 199.063204 
L 259.797816 198.3357 
L 255.323708 197.640783 
L 250.8496 197.008586 
L 246.375492 196.469243 
L 241.901383 196.052888 
L 237.427275 195.789653 
L 232.953167 195.709671 
L 228.479059 195.843077 
L 224.004951 196.220003 
L 219.530843 196.870583 
L 215.056734 197.81465 
L 210.582626 199.008473 
L 206.108518 200.384098 
L 201.63441 201.873522 
L 197.160302 203.408743 
L 192.686194 204.921758 
L 188.212085 206.344566 
L 183.737977 207.609163 
L 179.263869 208.647547 
L 174.789761 209.391716 
L 170.315653 209.773668 
L 165.841545 209.729246 
L 161.367436 209.258895 
L 156.893328 208.416665 
L 152.41922 207.258227 
L 147.945112 205.839254 
L 143.471004 204.215418 
L 138.996895 202.442389 
L 134.522787 200.575842 
L 130.048679 198.671446 
L 125.574571 196.784875 
L 121.100463 194.971799 
L 116.626355 193.287892 
L 112.152246 191.788825 
L 107.678138 190.53027 
L 103.20403 189.567898 
L 98.729922 188.957383 
L 94.255814 188.754395 
L 89.781706 189.014607 
L 85.307597 189.79369 
L 80.833489 191.147317 
L 76.359381 193.131159 
L 71.885273 195.800889 
L 67.411165 199.212178 
z
" clip-path="url(#p2ed8ab1231)" style="fill: #aec7e8"/>
   </g>
   <g id="PolyCollection_3">
    <path d="M 67.411165 166.183128 
L 67.411165 199.212178 
L 71.885273 195.800889 
L 76.359381 193.131159 
L 80.833489 191.147317 
L 85.307597 189.79369 
L 89.781706 189.014607 
L 94.255814 188.754395 
L 98.729922 188.957383 
L 103.20403 189.567898 
L 107.678138 190.53027 
L 112.152246 191.788825 
L 116.626355 193.287892 
L 121.100463 194.971799 
L 125.574571 196.784875 
L 130.048679 198.671446 
L 134.522787 200.575842 
L 138.996895 202.442389 
L 143.471004 204.215418 
L 147.945112 205.839254 
L 152.41922 207.258227 
L 156.893328 208.416665 
L 161.367436 209.258895 
L 165.841545 209.729246 
L 170.315653 209.773668 
L 174.789761 209.391716 
L 179.263869 208.647547 
L 183.737977 207.609163 
L 188.212085 206.344566 
L 192.686194 204.921758 
L 197.160302 203.408743 
L 201.63441 201.873522 
L 206.108518 200.384098 
L 210.582626 199.008473 
L 215.056734 197.81465 
L 219.530843 196.870583 
L 224.004951 196.220003 
L 228.479059 195.843077 
L 232.953167 195.709671 
L 237.427275 195.789653 
L 241.901383 196.052888 
L 246.375492 196.469243 
L 250.8496 197.008586 
L 255.323708 197.640783 
L 259.797816 198.3357 
L 264.271924 199.063204 
L 268.746032 199.793162 
L 273.220141 200.498627 
L 277.694249 201.172317 
L 282.168357 201.814446 
L 286.642465 202.425241 
L 291.116573 203.004928 
L 295.590681 203.553737 
L 300.06479 204.071893 
L 304.538898 204.559625 
L 309.013006 205.01716 
L 313.487114 205.444726 
L 317.961222 205.842549 
L 322.43533 206.21078 
L 326.909439 206.548256 
L 331.383547 206.852724 
L 335.857655 207.121901 
L 340.331763 207.353502 
L 344.805871 207.545242 
L 349.27998 207.694837 
L 353.754088 207.800003 
L 358.228196 207.858455 
L 362.702304 207.867908 
L 367.176412 207.826077 
L 371.65052 207.730679 
L 376.124629 207.579429 
L 380.598737 207.370042 
L 385.072845 207.100234 
L 389.546953 206.76772 
L 394.021061 206.370216 
L 398.495169 205.905437 
L 402.969278 205.371098 
L 407.443386 204.764916 
L 411.917494 204.084605 
L 416.391602 203.327882 
L 420.86571 202.492461 
L 420.86571 155.583166 
L 420.86571 155.583166 
L 416.391602 153.737648 
L 411.917494 152.435688 
L 407.443386 151.634415 
L 402.969278 151.29096 
L 398.495169 151.362451 
L 394.021061 151.806019 
L 389.546953 152.578791 
L 385.072845 153.637898 
L 380.598737 154.940469 
L 376.124629 156.443634 
L 371.65052 158.104522 
L 367.176412 159.880262 
L 362.702304 161.727983 
L 358.228196 163.604816 
L 353.754088 165.467889 
L 349.27998 167.274332 
L 344.805871 168.981275 
L 340.331763 170.545846 
L 335.857655 171.925175 
L 331.383547 173.076392 
L 326.909439 173.956626 
L 322.43533 174.523006 
L 317.961222 174.733778 
L 313.487114 174.584074 
L 309.013006 174.113474 
L 304.538898 173.36421 
L 300.06479 172.378509 
L 295.590681 171.198602 
L 291.116573 169.866716 
L 286.642465 168.425082 
L 282.168357 166.915928 
L 277.694249 165.381484 
L 273.220141 163.863978 
L 268.746032 162.405631 
L 264.271924 161.043763 
L 259.797816 159.802844 
L 255.323708 158.705261 
L 250.8496 157.7734 
L 246.375492 157.029648 
L 241.901383 156.496391 
L 237.427275 156.196015 
L 232.953167 156.150909 
L 228.479059 156.383458 
L 224.004951 156.916048 
L 219.530843 157.771067 
L 215.056734 158.962086 
L 210.582626 160.448284 
L 206.108518 162.168106 
L 201.63441 164.05996 
L 197.160302 166.062252 
L 192.686194 168.113389 
L 188.212085 170.151777 
L 183.737977 172.115822 
L 179.263869 173.943931 
L 174.789761 175.574511 
L 170.315653 176.945967 
L 165.841545 177.999479 
L 161.367436 178.722798 
L 156.893328 179.142318 
L 152.41922 179.285602 
L 147.945112 179.180215 
L 143.471004 178.85372 
L 138.996895 178.33368 
L 134.522787 177.647661 
L 130.048679 176.823224 
L 125.574571 175.887936 
L 121.100463 174.869358 
L 116.626355 173.795056 
L 112.152246 172.692592 
L 107.678138 171.589531 
L 103.20403 170.513436 
L 98.729922 169.491872 
L 94.255814 168.552402 
L 89.781706 167.722589 
L 85.307597 167.029998 
L 80.833489 166.502193 
L 76.359381 166.166737 
L 71.885273 166.051194 
L 67.411165 166.183128 
z
" clip-path="url(#p2ed8ab1231)" style="fill: #ff7f0e"/>
   </g>
   <g id="PolyCollection_4">
    <path d="M 67.411165 148.185564 
L 67.411165 166.183128 
L 71.885273 166.051194 
L 76.359381 166.166737 
L 80.833489 166.502193 
L 85.307597 167.029998 
L 89.781706 167.722589 
L 94.255814 168.552402 
L 98.729922 169.491872 
L 103.20403 170.513436 
L 107.678138 171.589531 
L 112.152246 172.692592 
L 116.626355 173.795056 
L 121.100463 174.869358 
L 125.574571 175.887936 
L 130.048679 176.823224 
L 134.522787 177.647661 
L 138.996895 178.33368 
L 143.471004 178.85372 
L 147.945112 179.180215 
L 152.41922 179.285602 
L 156.893328 179.142318 
L 161.367436 178.722798 
L 165.841545 177.999479 
L 170.315653 176.945967 
L 174.789761 175.574511 
L 179.263869 173.943931 
L 183.737977 172.115822 
L 188.212085 170.151777 
L 192.686194 168.113389 
L 197.160302 166.062252 
L 201.63441 164.05996 
L 206.108518 162.168106 
L 210.582626 160.448284 
L 215.056734 158.962086 
L 219.530843 157.771067 
L 224.004951 156.916048 
L 228.479059 156.383458 
L 232.953167 156.150909 
L 237.427275 156.196015 
L 241.901383 156.496391 
L 246.375492 157.029648 
L 250.8496 157.7734 
L 255.323708 158.705261 
L 259.797816 159.802844 
L 264.271924 161.043763 
L 268.746032 162.405631 
L 273.220141 163.863978 
L 277.694249 165.381484 
L 282.168357 166.915928 
L 286.642465 168.425082 
L 291.116573 169.866716 
L 295.590681 171.198602 
L 300.06479 172.378509 
L 304.538898 173.36421 
L 309.013006 174.113474 
L 313.487114 174.584074 
L 317.961222 174.733778 
L 322.43533 174.523006 
L 326.909439 173.956626 
L 331.383547 173.076392 
L 335.857655 171.925175 
L 340.331763 170.545846 
L 344.805871 168.981275 
L 349.27998 167.274332 
L 353.754088 165.467889 
L 358.228196 163.604816 
L 362.702304 161.727983 
L 367.176412 159.880262 
L 371.65052 158.104522 
L 376.124629 156.443634 
L 380.598737 154.940469 
L 385.072845 153.637898 
L 389.546953 152.578791 
L 394.021061 151.806019 
L 398.495169 151.362451 
L 402.969278 151.29096 
L 407.443386 151.634415 
L 411.917494 152.435688 
L 416.391602 153.737648 
L 420.86571 155.583166 
L 420.86571 125.429704 
L 420.86571 125.429704 
L 416.391602 124.000184 
L 411.917494 123.032835 
L 407.443386 122.490405 
L 402.969278 122.33564 
L 398.495169 122.531288 
L 394.021061 123.040097 
L 389.546953 123.824813 
L 385.072845 124.848184 
L 380.598737 126.072957 
L 376.124629 127.461879 
L 371.65052 128.977698 
L 367.176412 130.583161 
L 362.702304 132.241015 
L 358.228196 133.914007 
L 353.754088 135.564885 
L 349.27998 137.156396 
L 344.805871 138.651287 
L 340.331763 140.012305 
L 335.857655 141.202198 
L 331.383547 142.183713 
L 326.909439 142.919597 
L 322.43533 143.372597 
L 317.961222 143.506505 
L 313.487114 143.319572 
L 309.013006 142.851586 
L 304.538898 142.144804 
L 300.06479 141.241486 
L 295.590681 140.183891 
L 291.116573 139.014278 
L 286.642465 137.774905 
L 282.168357 136.508031 
L 277.694249 135.255916 
L 273.220141 134.060817 
L 268.746032 132.964977 
L 264.271924 132.002251 
L 259.797816 131.184482 
L 255.323708 130.519948 
L 250.8496 130.016925 
L 246.375492 129.683691 
L 241.901383 129.528523 
L 237.427275 129.559698 
L 232.953167 129.785494 
L 228.479059 130.214187 
L 224.004951 130.854056 
L 219.530843 131.713376 
L 215.056734 132.795645 
L 210.582626 134.074857 
L 206.108518 135.513765 
L 201.63441 137.075096 
L 197.160302 138.721581 
L 192.686194 140.415949 
L 188.212085 142.12093 
L 183.737977 143.799252 
L 179.263869 145.413646 
L 174.789761 146.92684 
L 170.315653 148.301564 
L 165.841545 149.502043 
L 161.367436 150.517634 
L 156.893328 151.358543 
L 152.41922 152.03561 
L 147.945112 152.559674 
L 143.471004 152.941572 
L 138.996895 153.192146 
L 134.522787 153.322232 
L 130.048679 153.342671 
L 125.574571 153.2643 
L 121.100463 153.09796 
L 116.626355 152.854488 
L 112.152246 152.544724 
L 107.678138 152.179507 
L 103.20403 151.769675 
L 98.729922 151.326067 
L 94.255814 150.859523 
L 89.781706 150.380881 
L 85.307597 149.90098 
L 80.833489 149.430658 
L 76.359381 148.980756 
L 71.885273 148.562112 
L 67.411165 148.185564 
z
" clip-path="url(#p2ed8ab1231)" style="fill: #ffbb78"/>
   </g>
   <g id="PolyCollection_5">
    <path d="M 67.411165 122.973891 
L 67.411165 148.185564 
L 71.885273 148.562112 
L 76.359381 148.980756 
L 80.833489 149.430658 
L 85.307597 149.90098 
L 89.781706 150.380881 
L 94.255814 150.859523 
L 98.729922 151.326067 
L 103.20403 151.769675 
L 107.678138 152.179507 
L 112.152246 152.544724 
L 116.626355 152.854488 
L 121.100463 153.09796 
L 125.574571 153.2643 
L 130.048679 153.342671 
L 134.522787 153.322232 
L 138.996895 153.192146 
L 143.471004 152.941572 
L 147.945112 152.559674 
L 152.41922 152.03561 
L 156.893328 151.358543 
L 161.367436 150.517634 
L 165.841545 149.502043 
L 170.315653 148.301564 
L 174.789761 146.92684 
L 179.263869 145.413646 
L 183.737977 143.799252 
L 188.212085 142.12093 
L 192.686194 140.415949 
L 197.160302 138.721581 
L 201.63441 137.075096 
L 206.108518 135.513765 
L 210.582626 134.074857 
L 215.056734 132.795645 
L 219.530843 131.713376 
L 224.004951 130.854056 
L 228.479059 130.214187 
L 232.953167 129.785494 
L 237.427275 129.559698 
L 241.901383 129.528523 
L 246.375492 129.683691 
L 250.8496 130.016925 
L 255.323708 130.519948 
L 259.797816 131.184482 
L 264.271924 132.002251 
L 268.746032 132.964977 
L 273.220141 134.060817 
L 277.694249 135.255916 
L 282.168357 136.508031 
L 286.642465 137.774905 
L 291.116573 139.014278 
L 295.590681 140.183891 
L 300.06479 141.241486 
L 304.538898 142.144804 
L 309.013006 142.851586 
L 313.487114 143.319572 
L 317.961222 143.506505 
L 322.43533 143.372597 
L 326.909439 142.919597 
L 331.383547 142.183713 
L 335.857655 141.202198 
L 340.331763 140.012305 
L 344.805871 138.651287 
L 349.27998 137.156396 
L 353.754088 135.564885 
L 358.228196 133.914007 
L 362.702304 132.241015 
L 367.176412 130.583161 
L 371.65052 128.977698 
L 376.124629 127.461879 
L 380.598737 126.072957 
L 385.072845 124.848184 
L 389.546953 123.824813 
L 394.021061 123.040097 
L 398.495169 122.531288 
L 402.969278 122.33564 
L 407.443386 122.490405 
L 411.917494 123.032835 
L 416.391602 124.000184 
L 420.86571 125.429704 
L 420.86571 100.564912 
L 420.86571 100.564912 
L 416.391602 97.509479 
L 411.917494 95.070356 
L 407.443386 93.202413 
L 402.969278 91.860517 
L 398.495169 90.999538 
L 394.021061 90.574342 
L 389.546953 90.5398 
L 385.072845 90.850778 
L 380.598737 91.462146 
L 376.124629 92.328771 
L 371.65052 93.405522 
L 367.176412 94.647268 
L 362.702304 96.008876 
L 358.228196 97.445215 
L 353.754088 98.911154 
L 349.27998 100.36156 
L 344.805871 101.751303 
L 340.331763 103.035249 
L 335.857655 104.168268 
L 331.383547 105.105229 
L 326.909439 105.800998 
L 322.43533 106.210446 
L 317.961222 106.289825 
L 313.487114 106.041185 
L 309.013006 105.521761 
L 304.538898 104.792077 
L 300.06479 103.912654 
L 295.590681 102.944014 
L 291.116573 101.946681 
L 286.642465 100.981175 
L 282.168357 100.10802 
L 277.694249 99.387738 
L 273.220141 98.88085 
L 268.746032 98.647833 
L 264.271924 98.725206 
L 259.797816 99.086633 
L 255.323708 99.695593 
L 250.8496 100.515563 
L 246.375492 101.510023 
L 241.901383 102.642449 
L 237.427275 103.876321 
L 232.953167 105.175116 
L 228.479059 106.502313 
L 224.004951 107.82139 
L 219.530843 109.095826 
L 215.056734 110.293466 
L 210.582626 111.409118 
L 206.108518 112.447861 
L 201.63441 113.414795 
L 197.160302 114.315023 
L 192.686194 115.153643 
L 188.212085 115.935756 
L 183.737977 116.666463 
L 179.263869 117.350864 
L 174.789761 117.99406 
L 170.315653 118.601151 
L 165.841545 119.177053 
L 161.367436 119.723588 
L 156.893328 120.240008 
L 152.41922 120.725488 
L 147.945112 121.179204 
L 143.471004 121.600329 
L 138.996895 121.988041 
L 134.522787 122.341513 
L 130.048679 122.65992 
L 125.574571 122.942438 
L 121.100463 123.188242 
L 116.626355 123.396506 
L 112.152246 123.566406 
L 107.678138 123.697118 
L 103.20403 123.787815 
L 98.729922 123.837673 
L 94.255814 123.845867 
L 89.781706 123.811572 
L 85.307597 123.733963 
L 80.833489 123.612216 
L 76.359381 123.445505 
L 71.885273 123.233005 
L 67.411165 122.973891 
z
" clip-path="url(#p2ed8ab1231)" style="fill: #2ca02c"/>
   </g>
   <g id="PolyCollection_6">
    <path d="M 67.411165 96.641142 
L 67.411165 122.973891 
L 71.885273 123.233005 
L 76.359381 123.445505 
L 80.833489 123.612216 
L 85.307597 123.733963 
L 89.781706 123.811572 
L 94.255814 123.845867 
L 98.729922 123.837673 
L 103.20403 123.787815 
L 107.678138 123.697118 
L 112.152246 123.566406 
L 116.626355 123.396506 
L 121.100463 123.188242 
L 125.574571 122.942438 
L 130.048679 122.65992 
L 134.522787 122.341513 
L 138.996895 121.988041 
L 143.471004 121.600329 
L 147.945112 121.179204 
L 152.41922 120.725488 
L 156.893328 120.240008 
L 161.367436 119.723588 
L 165.841545 119.177053 
L 170.315653 118.601151 
L 174.789761 117.99406 
L 179.263869 117.350864 
L 183.737977 116.666463 
L 188.212085 115.935756 
L 192.686194 115.153643 
L 197.160302 114.315023 
L 201.63441 113.414795 
L 206.108518 112.447861 
L 210.582626 111.409118 
L 215.056734 110.293466 
L 219.530843 109.095826 
L 224.004951 107.82139 
L 228.479059 106.502313 
L 232.953167 105.175116 
L 237.427275 103.876321 
L 241.901383 102.642449 
L 246.375492 101.510023 
L 250.8496 100.515563 
L 255.323708 99.695593 
L 259.797816 99.086633 
L 264.271924 98.725206 
L 268.746032 98.647833 
L 273.220141 98.88085 
L 277.694249 99.387738 
L 282.168357 100.10802 
L 286.642465 100.981175 
L 291.116573 101.946681 
L 295.590681 102.944014 
L 300.06479 103.912654 
L 304.538898 104.792077 
L 309.013006 105.521761 
L 313.487114 106.041185 
L 317.961222 106.289825 
L 322.43533 106.210446 
L 326.909439 105.800998 
L 331.383547 105.105229 
L 335.857655 104.168268 
L 340.331763 103.035249 
L 344.805871 101.751303 
L 349.27998 100.36156 
L 353.754088 98.911154 
L 358.228196 97.445215 
L 362.702304 96.008876 
L 367.176412 94.647268 
L 371.65052 93.405522 
L 376.124629 92.328771 
L 380.598737 91.462146 
L 385.072845 90.850778 
L 389.546953 90.5398 
L 394.021061 90.574342 
L 398.495169 90.999538 
L 402.969278 91.860517 
L 407.443386 93.202413 
L 411.917494 95.070356 
L 416.391602 97.509479 
L 420.86571 100.564912 
L 420.86571 72.160935 
L 420.86571 72.160935 
L 416.391602 68.797658 
L 411.917494 66.043527 
L 407.443386 63.858862 
L 402.969278 62.203982 
L 398.495169 61.039208 
L 394.021061 60.324857 
L 389.546953 60.02125 
L 385.072845 60.088706 
L 380.598737 60.487545 
L 376.124629 61.178085 
L 371.65052 62.120647 
L 367.176412 63.27555 
L 362.702304 64.603113 
L 358.228196 66.063656 
L 353.754088 67.617497 
L 349.27998 69.224958 
L 344.805871 70.846356 
L 340.331763 72.442012 
L 335.857655 73.972245 
L 331.383547 75.397374 
L 326.909439 76.677718 
L 322.43533 77.773598 
L 317.961222 78.646289 
L 313.487114 79.288657 
L 309.013006 79.731638 
L 304.538898 80.008438 
L 300.06479 80.152259 
L 295.590681 80.196305 
L 291.116573 80.173781 
L 286.642465 80.117889 
L 282.168357 80.061834 
L 277.694249 80.03882 
L 273.220141 80.08205 
L 268.746032 80.224704 
L 264.271924 80.487716 
L 259.797816 80.859887 
L 255.323708 81.324813 
L 250.8496 81.866087 
L 246.375492 82.467304 
L 241.901383 83.112059 
L 237.427275 83.783946 
L 232.953167 84.466559 
L 228.479059 85.143494 
L 224.004951 85.798345 
L 219.530843 86.414706 
L 215.056734 86.978224 
L 210.582626 87.487198 
L 206.108518 87.944755 
L 201.63441 88.354029 
L 197.160302 88.718153 
L 192.686194 89.040263 
L 188.212085 89.323493 
L 183.737977 89.570977 
L 179.263869 89.78585 
L 174.789761 89.971246 
L 170.315653 90.130298 
L 165.841545 90.26619 
L 161.367436 90.382897 
L 156.893328 90.485053 
L 152.41922 90.577314 
L 147.945112 90.664335 
L 143.471004 90.750769 
L 138.996895 90.841274 
L 134.522787 90.940502 
L 130.048679 91.053109 
L 125.574571 91.18375 
L 121.100463 91.33708 
L 116.626355 91.517754 
L 112.152246 91.730426 
L 107.678138 91.979752 
L 103.20403 92.270386 
L 98.729922 92.606983 
L 94.255814 92.994198 
L 89.781706 93.436686 
L 85.307597 93.939102 
L 80.833489 94.506101 
L 76.359381 95.142337 
L 71.885273 95.852466 
L 67.411165 96.641142 
z
" clip-path="url(#p2ed8ab1231)" style="fill: #98df8a"/>
   </g>
   <g id="matplotlib.axis_1">
    <g id="xtick_1">
     <g id="line2d_1">
      <defs>
       <path id="m937a37621a" d="M 0 0 
L 0 3.5 
" style="stroke: #000000; stroke-width: 0.8"/>
      </defs>
      <g>
       <use xlink:href="#m937a37621a" x="67.411165" y="314.12125" style="stroke: #000000; stroke-width: 0.8"/>
      </g>
     </g>
     <g id="text_1">
      <!-- 1961 -->
      <g transform="translate(51.756484 340.173358) rotate(-45) scale(0.1 -0.1)">
       <defs>
        <path id="TimesNewRomanPSMT-31" d="M 750 3822 
L 1781 4325 
L 1884 4325 
L 1884 747 
Q 1884 391 1914 303 
Q 1944 216 2037 169 
Q 2131 122 2419 116 
L 2419 0 
L 825 0 
L 825 116 
Q 1125 122 1212 167 
Q 1300 213 1334 289 
Q 1369 366 1369 747 
L 1369 3034 
Q 1369 3497 1338 3628 
Q 1316 3728 1258 3775 
Q 1200 3822 1119 3822 
Q 1003 3822 797 3725 
L 750 3822 
z
" transform="scale(0.015625)"/>
        <path id="TimesNewRomanPSMT-39" d="M 338 -88 
L 338 28 
Q 744 34 1094 217 
Q 1444 400 1770 856 
Q 2097 1313 2225 1859 
Q 1734 1544 1338 1544 
Q 891 1544 572 1889 
Q 253 2234 253 2806 
Q 253 3363 572 3797 
Q 956 4325 1575 4325 
Q 2097 4325 2469 3894 
Q 2925 3359 2925 2575 
Q 2925 1869 2578 1258 
Q 2231 647 1613 244 
Q 1109 -88 516 -88 
L 338 -88 
z
M 2275 2091 
Q 2331 2497 2331 2741 
Q 2331 3044 2228 3395 
Q 2125 3747 1936 3934 
Q 1747 4122 1506 4122 
Q 1228 4122 1018 3872 
Q 809 3622 809 3128 
Q 809 2469 1088 2097 
Q 1291 1828 1588 1828 
Q 1731 1828 1928 1897 
Q 2125 1966 2275 2091 
z
" transform="scale(0.015625)"/>
        <path id="TimesNewRomanPSMT-36" d="M 2869 4325 
L 2869 4209 
Q 2456 4169 2195 4045 
Q 1934 3922 1679 3669 
Q 1425 3416 1258 3105 
Q 1091 2794 978 2366 
Q 1428 2675 1881 2675 
Q 2316 2675 2634 2325 
Q 2953 1975 2953 1425 
Q 2953 894 2631 456 
Q 2244 -75 1606 -75 
Q 1172 -75 869 213 
Q 275 772 275 1663 
Q 275 2231 503 2743 
Q 731 3256 1154 3653 
Q 1578 4050 1965 4187 
Q 2353 4325 2688 4325 
L 2869 4325 
z
M 925 2138 
Q 869 1716 869 1456 
Q 869 1156 980 804 
Q 1091 453 1309 247 
Q 1469 100 1697 100 
Q 1969 100 2183 356 
Q 2397 613 2397 1088 
Q 2397 1622 2184 2012 
Q 1972 2403 1581 2403 
Q 1463 2403 1327 2353 
Q 1191 2303 925 2138 
z
" transform="scale(0.015625)"/>
       </defs>
       <use xlink:href="#TimesNewRomanPSMT-31"/>
       <use xlink:href="#TimesNewRomanPSMT-39" x="50"/>
       <use xlink:href="#TimesNewRomanPSMT-36" x="100"/>
       <use xlink:href="#TimesNewRomanPSMT-31" x="150"/>
      </g>
     </g>
    </g>
    <g id="xtick_2">
     <g id="line2d_2">
      <g>
       <use xlink:href="#m937a37621a" x="117.904671" y="314.12125" style="stroke: #000000; stroke-width: 0.8"/>
      </g>
     </g>
     <g id="text_2">
      <!-- 1962 -->
      <g transform="translate(102.24999 340.173358) rotate(-45) scale(0.1 -0.1)">
       <defs>
        <path id="TimesNewRomanPSMT-32" d="M 2934 816 
L 2638 0 
L 138 0 
L 138 116 
Q 1241 1122 1691 1759 
Q 2141 2397 2141 2925 
Q 2141 3328 1894 3587 
Q 1647 3847 1303 3847 
Q 991 3847 742 3664 
Q 494 3481 375 3128 
L 259 3128 
Q 338 3706 661 4015 
Q 984 4325 1469 4325 
Q 1984 4325 2329 3994 
Q 2675 3663 2675 3213 
Q 2675 2891 2525 2569 
Q 2294 2063 1775 1497 
Q 997 647 803 472 
L 1909 472 
Q 2247 472 2383 497 
Q 2519 522 2628 598 
Q 2738 675 2819 816 
L 2934 816 
z
" transform="scale(0.015625)"/>
       </defs>
       <use xlink:href="#TimesNewRomanPSMT-31"/>
       <use xlink:href="#TimesNewRomanPSMT-39" x="50"/>
       <use xlink:href="#TimesNewRomanPSMT-36" x="100"/>
       <use xlink:href="#TimesNewRomanPSMT-32" x="150"/>
      </g>
     </g>
    </g>
    <g id="xtick_3">
     <g id="line2d_3">
      <g>
       <use xlink:href="#m937a37621a" x="168.398178" y="314.12125" style="stroke: #000000; stroke-width: 0.8"/>
      </g>
     </g>
     <g id="text_3">
      <!-- 1963 -->
      <g transform="translate(152.743497 340.173358) rotate(-45) scale(0.1 -0.1)">
       <defs>
        <path id="TimesNewRomanPSMT-33" d="M 325 3431 
Q 506 3859 782 4092 
Q 1059 4325 1472 4325 
Q 1981 4325 2253 3994 
Q 2459 3747 2459 3466 
Q 2459 3003 1878 2509 
Q 2269 2356 2469 2072 
Q 2669 1788 2669 1403 
Q 2669 853 2319 450 
Q 1863 -75 997 -75 
Q 569 -75 414 31 
Q 259 138 259 259 
Q 259 350 332 419 
Q 406 488 509 488 
Q 588 488 669 463 
Q 722 447 909 348 
Q 1097 250 1169 231 
Q 1284 197 1416 197 
Q 1734 197 1970 444 
Q 2206 691 2206 1028 
Q 2206 1275 2097 1509 
Q 2016 1684 1919 1775 
Q 1784 1900 1550 2001 
Q 1316 2103 1072 2103 
L 972 2103 
L 972 2197 
Q 1219 2228 1467 2375 
Q 1716 2522 1828 2728 
Q 1941 2934 1941 3181 
Q 1941 3503 1739 3701 
Q 1538 3900 1238 3900 
Q 753 3900 428 3381 
L 325 3431 
z
" transform="scale(0.015625)"/>
       </defs>
       <use xlink:href="#TimesNewRomanPSMT-31"/>
       <use xlink:href="#TimesNewRomanPSMT-39" x="50"/>
       <use xlink:href="#TimesNewRomanPSMT-36" x="100"/>
       <use xlink:href="#TimesNewRomanPSMT-33" x="150"/>
      </g>
     </g>
    </g>
    <g id="xtick_4">
     <g id="line2d_4">
      <g>
       <use xlink:href="#m937a37621a" x="218.891684" y="314.12125" style="stroke: #000000; stroke-width: 0.8"/>
      </g>
     </g>
     <g id="text_4">
      <!-- 1964 -->
      <g transform="translate(203.237003 340.173358) rotate(-45) scale(0.1 -0.1)">
       <defs>
        <path id="TimesNewRomanPSMT-34" d="M 2978 1563 
L 2978 1119 
L 2409 1119 
L 2409 0 
L 1894 0 
L 1894 1119 
L 100 1119 
L 100 1519 
L 2066 4325 
L 2409 4325 
L 2409 1563 
L 2978 1563 
z
M 1894 1563 
L 1894 3666 
L 406 1563 
L 1894 1563 
z
" transform="scale(0.015625)"/>
       </defs>
       <use xlink:href="#TimesNewRomanPSMT-31"/>
       <use xlink:href="#TimesNewRomanPSMT-39" x="50"/>
       <use xlink:href="#TimesNewRomanPSMT-36" x="100"/>
       <use xlink:href="#TimesNewRomanPSMT-34" x="150"/>
      </g>
     </g>
    </g>
    <g id="xtick_5">
     <g id="line2d_5">
      <g>
       <use xlink:href="#m937a37621a" x="269.385191" y="314.12125" style="stroke: #000000; stroke-width: 0.8"/>
      </g>
     </g>
     <g id="text_5">
      <!-- 1965 -->
      <g transform="translate(253.73051 340.173358) rotate(-45) scale(0.1 -0.1)">
       <defs>
        <path id="TimesNewRomanPSMT-35" d="M 2778 4238 
L 2534 3706 
L 1259 3706 
L 981 3138 
Q 1809 3016 2294 2522 
Q 2709 2097 2709 1522 
Q 2709 1188 2573 903 
Q 2438 619 2231 419 
Q 2025 219 1772 97 
Q 1413 -75 1034 -75 
Q 653 -75 479 54 
Q 306 184 306 341 
Q 306 428 378 495 
Q 450 563 559 563 
Q 641 563 702 538 
Q 763 513 909 409 
Q 1144 247 1384 247 
Q 1750 247 2026 523 
Q 2303 800 2303 1197 
Q 2303 1581 2056 1914 
Q 1809 2247 1375 2428 
Q 1034 2569 447 2591 
L 1259 4238 
L 2778 4238 
z
" transform="scale(0.015625)"/>
       </defs>
       <use xlink:href="#TimesNewRomanPSMT-31"/>
       <use xlink:href="#TimesNewRomanPSMT-39" x="50"/>
       <use xlink:href="#TimesNewRomanPSMT-36" x="100"/>
       <use xlink:href="#TimesNewRomanPSMT-35" x="150"/>
      </g>
     </g>
    </g>
    <g id="xtick_6">
     <g id="line2d_6">
      <g>
       <use xlink:href="#m937a37621a" x="319.878697" y="314.12125" style="stroke: #000000; stroke-width: 0.8"/>
      </g>
     </g>
     <g id="text_6">
      <!-- 1966 -->
      <g transform="translate(304.224016 340.173358) rotate(-45) scale(0.1 -0.1)">
       <use xlink:href="#TimesNewRomanPSMT-31"/>
       <use xlink:href="#TimesNewRomanPSMT-39" x="50"/>
       <use xlink:href="#TimesNewRomanPSMT-36" x="100"/>
       <use xlink:href="#TimesNewRomanPSMT-36" x="150"/>
      </g>
     </g>
    </g>
    <g id="xtick_7">
     <g id="line2d_7">
      <g>
       <use xlink:href="#m937a37621a" x="370.372204" y="314.12125" style="stroke: #000000; stroke-width: 0.8"/>
      </g>
     </g>
     <g id="text_7">
      <!-- 1967 -->
      <g transform="translate(354.717523 340.173358) rotate(-45) scale(0.1 -0.1)">
       <defs>
        <path id="TimesNewRomanPSMT-37" d="M 644 4238 
L 2916 4238 
L 2916 4119 
L 1503 -88 
L 1153 -88 
L 2419 3728 
L 1253 3728 
Q 900 3728 750 3644 
Q 488 3500 328 3200 
L 238 3234 
L 644 4238 
z
" transform="scale(0.015625)"/>
       </defs>
       <use xlink:href="#TimesNewRomanPSMT-31"/>
       <use xlink:href="#TimesNewRomanPSMT-39" x="50"/>
       <use xlink:href="#TimesNewRomanPSMT-36" x="100"/>
       <use xlink:href="#TimesNewRomanPSMT-37" x="150"/>
      </g>
     </g>
    </g>
    <g id="xtick_8">
     <g id="line2d_8">
      <g>
       <use xlink:href="#m937a37621a" x="420.86571" y="314.12125" style="stroke: #000000; stroke-width: 0.8"/>
      </g>
     </g>
     <g id="text_8">
      <!-- 1968 -->
      <g transform="translate(405.211029 340.173358) rotate(-45) scale(0.1 -0.1)">
       <defs>
        <path id="TimesNewRomanPSMT-38" d="M 1228 2134 
Q 725 2547 579 2797 
Q 434 3047 434 3316 
Q 434 3728 753 4026 
Q 1072 4325 1600 4325 
Q 2113 4325 2425 4047 
Q 2738 3769 2738 3413 
Q 2738 3175 2569 2928 
Q 2400 2681 1866 2347 
Q 2416 1922 2594 1678 
Q 2831 1359 2831 1006 
Q 2831 559 2490 242 
Q 2150 -75 1597 -75 
Q 994 -75 656 303 
Q 388 606 388 966 
Q 388 1247 577 1523 
Q 766 1800 1228 2134 
z
M 1719 2469 
Q 2094 2806 2194 3001 
Q 2294 3197 2294 3444 
Q 2294 3772 2109 3958 
Q 1925 4144 1606 4144 
Q 1288 4144 1088 3959 
Q 888 3775 888 3528 
Q 888 3366 970 3203 
Q 1053 3041 1206 2894 
L 1719 2469 
z
M 1375 2016 
Q 1116 1797 991 1539 
Q 866 1281 866 981 
Q 866 578 1086 336 
Q 1306 94 1647 94 
Q 1984 94 2187 284 
Q 2391 475 2391 747 
Q 2391 972 2272 1150 
Q 2050 1481 1375 2016 
z
" transform="scale(0.015625)"/>
       </defs>
       <use xlink:href="#TimesNewRomanPSMT-31"/>
       <use xlink:href="#TimesNewRomanPSMT-39" x="50"/>
       <use xlink:href="#TimesNewRomanPSMT-36" x="100"/>
       <use xlink:href="#TimesNewRomanPSMT-38" x="150"/>
      </g>
     </g>
    </g>
    <g id="text_9">
     <!-- Year -->
     <g transform="translate(233.080625 354.018404) scale(0.12 -0.12)">
      <defs>
       <path id="TimesNewRomanPSMT-59" d="M 3050 4238 
L 4528 4238 
L 4528 4122 
L 4447 4122 
Q 4366 4122 4209 4050 
Q 4053 3978 3925 3843 
Q 3797 3709 3609 3406 
L 2588 1797 
L 2588 734 
Q 2588 344 2675 247 
Q 2794 116 3050 116 
L 3188 116 
L 3188 0 
L 1388 0 
L 1388 116 
L 1538 116 
Q 1806 116 1919 278 
Q 1988 378 1988 734 
L 1988 1738 
L 825 3513 
Q 619 3825 545 3903 
Q 472 3981 241 4091 
Q 178 4122 59 4122 
L 59 4238 
L 1872 4238 
L 1872 4122 
L 1778 4122 
Q 1631 4122 1507 4053 
Q 1384 3984 1384 3847 
Q 1384 3734 1575 3441 
L 2459 2075 
L 3291 3381 
Q 3478 3675 3478 3819 
Q 3478 3906 3433 3975 
Q 3388 4044 3303 4083 
Q 3219 4122 3050 4122 
L 3050 4238 
z
" transform="scale(0.015625)"/>
       <path id="TimesNewRomanPSMT-65" d="M 681 1784 
Q 678 1147 991 784 
Q 1303 422 1725 422 
Q 2006 422 2214 576 
Q 2422 731 2563 1106 
L 2659 1044 
Q 2594 616 2278 264 
Q 1963 -88 1488 -88 
Q 972 -88 605 314 
Q 238 716 238 1394 
Q 238 2128 614 2539 
Q 991 2950 1559 2950 
Q 2041 2950 2350 2633 
Q 2659 2316 2659 1784 
L 681 1784 
z
M 681 1966 
L 2006 1966 
Q 1991 2241 1941 2353 
Q 1863 2528 1708 2628 
Q 1553 2728 1384 2728 
Q 1125 2728 920 2526 
Q 716 2325 681 1966 
z
" transform="scale(0.015625)"/>
       <path id="TimesNewRomanPSMT-61" d="M 1822 413 
Q 1381 72 1269 19 
Q 1100 -59 909 -59 
Q 613 -59 420 144 
Q 228 347 228 678 
Q 228 888 322 1041 
Q 450 1253 767 1440 
Q 1084 1628 1822 1897 
L 1822 2009 
Q 1822 2438 1686 2597 
Q 1550 2756 1291 2756 
Q 1094 2756 978 2650 
Q 859 2544 859 2406 
L 866 2225 
Q 866 2081 792 2003 
Q 719 1925 600 1925 
Q 484 1925 411 2006 
Q 338 2088 338 2228 
Q 338 2497 613 2722 
Q 888 2947 1384 2947 
Q 1766 2947 2009 2819 
Q 2194 2722 2281 2516 
Q 2338 2381 2338 1966 
L 2338 994 
Q 2338 584 2353 492 
Q 2369 400 2405 369 
Q 2441 338 2488 338 
Q 2538 338 2575 359 
Q 2641 400 2828 588 
L 2828 413 
Q 2478 -56 2159 -56 
Q 2006 -56 1915 50 
Q 1825 156 1822 413 
z
M 1822 616 
L 1822 1706 
Q 1350 1519 1213 1441 
Q 966 1303 859 1153 
Q 753 1003 753 825 
Q 753 600 887 451 
Q 1022 303 1197 303 
Q 1434 303 1822 616 
z
" transform="scale(0.015625)"/>
       <path id="TimesNewRomanPSMT-72" d="M 1038 2947 
L 1038 2303 
Q 1397 2947 1775 2947 
Q 1947 2947 2059 2842 
Q 2172 2738 2172 2600 
Q 2172 2478 2090 2393 
Q 2009 2309 1897 2309 
Q 1788 2309 1652 2417 
Q 1516 2525 1450 2525 
Q 1394 2525 1328 2463 
Q 1188 2334 1038 2041 
L 1038 669 
Q 1038 431 1097 309 
Q 1138 225 1241 169 
Q 1344 113 1538 113 
L 1538 0 
L 72 0 
L 72 113 
Q 291 113 397 181 
Q 475 231 506 341 
Q 522 394 522 644 
L 522 1753 
Q 522 2253 501 2348 
Q 481 2444 426 2487 
Q 372 2531 291 2531 
Q 194 2531 72 2484 
L 41 2597 
L 906 2947 
L 1038 2947 
z
" transform="scale(0.015625)"/>
      </defs>
      <use xlink:href="#TimesNewRomanPSMT-59"/>
      <use xlink:href="#TimesNewRomanPSMT-65" x="62.216797"/>
      <use xlink:href="#TimesNewRomanPSMT-61" x="106.601562"/>
      <use xlink:href="#TimesNewRomanPSMT-72" x="150.986328"/>
     </g>
    </g>
   </g>
   <g id="matplotlib.axis_2">
    <g id="ytick_1">
     <g id="line2d_9">
      <defs>
       <path id="mfa49d3a6e5" d="M 0 0 
L -3.5 0 
" style="stroke: #000000; stroke-width: 0.8"/>
      </defs>
      <g>
       <use xlink:href="#mfa49d3a6e5" x="49.738438" y="276.066304" style="stroke: #000000; stroke-width: 0.8"/>
      </g>
     </g>
     <g id="text_10">
      <!-- −200 -->
      <g transform="translate(22.099375 279.538179) scale(0.1 -0.1)">
       <defs>
        <path id="TimesNewRomanPSMT-2212" d="M 3484 2000 
L 116 2000 
L 116 2256 
L 3484 2256 
L 3484 2000 
z
" transform="scale(0.015625)"/>
        <path id="TimesNewRomanPSMT-30" d="M 231 2094 
Q 231 2819 450 3342 
Q 669 3866 1031 4122 
Q 1313 4325 1613 4325 
Q 2100 4325 2488 3828 
Q 2972 3213 2972 2159 
Q 2972 1422 2759 906 
Q 2547 391 2217 158 
Q 1888 -75 1581 -75 
Q 975 -75 572 641 
Q 231 1244 231 2094 
z
M 844 2016 
Q 844 1141 1059 588 
Q 1238 122 1591 122 
Q 1759 122 1940 273 
Q 2122 425 2216 781 
Q 2359 1319 2359 2297 
Q 2359 3022 2209 3506 
Q 2097 3866 1919 4016 
Q 1791 4119 1609 4119 
Q 1397 4119 1231 3928 
Q 1006 3669 925 3112 
Q 844 2556 844 2016 
z
" transform="scale(0.015625)"/>
       </defs>
       <use xlink:href="#TimesNewRomanPSMT-2212"/>
       <use xlink:href="#TimesNewRomanPSMT-32" x="56.396484"/>
       <use xlink:href="#TimesNewRomanPSMT-30" x="106.396484"/>
       <use xlink:href="#TimesNewRomanPSMT-30" x="156.396484"/>
      </g>
     </g>
    </g>
    <g id="ytick_2">
     <g id="line2d_10">
      <g>
       <use xlink:href="#mfa49d3a6e5" x="49.738438" y="225.793777" style="stroke: #000000; stroke-width: 0.8"/>
      </g>
     </g>
     <g id="text_11">
      <!-- −100 -->
      <g transform="translate(22.099375 229.265652) scale(0.1 -0.1)">
       <use xlink:href="#TimesNewRomanPSMT-2212"/>
       <use xlink:href="#TimesNewRomanPSMT-31" x="56.396484"/>
       <use xlink:href="#TimesNewRomanPSMT-30" x="106.396484"/>
       <use xlink:href="#TimesNewRomanPSMT-30" x="156.396484"/>
      </g>
     </g>
    </g>
    <g id="ytick_3">
     <g id="line2d_11">
      <g>
       <use xlink:href="#mfa49d3a6e5" x="49.738438" y="175.52125" style="stroke: #000000; stroke-width: 0.8"/>
      </g>
     </g>
     <g id="text_12">
      <!-- 0 -->
      <g transform="translate(37.738438 178.993125) scale(0.1 -0.1)">
       <use xlink:href="#TimesNewRomanPSMT-30"/>
      </g>
     </g>
    </g>
    <g id="ytick_4">
     <g id="line2d_12">
      <g>
       <use xlink:href="#mfa49d3a6e5" x="49.738438" y="125.248723" style="stroke: #000000; stroke-width: 0.8"/>
      </g>
     </g>
     <g id="text_13">
      <!-- 100 -->
      <g transform="translate(27.738438 128.720598) scale(0.1 -0.1)">
       <use xlink:href="#TimesNewRomanPSMT-31"/>
       <use xlink:href="#TimesNewRomanPSMT-30" x="50"/>
       <use xlink:href="#TimesNewRomanPSMT-30" x="100"/>
      </g>
     </g>
    </g>
    <g id="ytick_5">
     <g id="line2d_13">
      <g>
       <use xlink:href="#mfa49d3a6e5" x="49.738438" y="74.976196" style="stroke: #000000; stroke-width: 0.8"/>
      </g>
     </g>
     <g id="text_14">
      <!-- 200 -->
      <g transform="translate(27.738438 78.448071) scale(0.1 -0.1)">
       <use xlink:href="#TimesNewRomanPSMT-32"/>
       <use xlink:href="#TimesNewRomanPSMT-30" x="50"/>
       <use xlink:href="#TimesNewRomanPSMT-30" x="100"/>
      </g>
     </g>
    </g>
    <g id="text_15">
     <!-- Innovation Index (index) -->
     <g transform="translate(15.5325 235.503437) rotate(-90) scale(0.12 -0.12)">
      <defs>
       <path id="TimesNewRomanPSMT-49" d="M 1975 116 
L 1975 0 
L 159 0 
L 159 116 
L 309 116 
Q 572 116 691 269 
Q 766 369 766 750 
L 766 3488 
Q 766 3809 725 3913 
Q 694 3991 597 4047 
Q 459 4122 309 4122 
L 159 4122 
L 159 4238 
L 1975 4238 
L 1975 4122 
L 1822 4122 
Q 1563 4122 1444 3969 
Q 1366 3869 1366 3488 
L 1366 750 
Q 1366 428 1406 325 
Q 1438 247 1538 191 
Q 1672 116 1822 116 
L 1975 116 
z
" transform="scale(0.015625)"/>
       <path id="TimesNewRomanPSMT-6e" d="M 1034 2341 
Q 1538 2947 1994 2947 
Q 2228 2947 2397 2830 
Q 2566 2713 2666 2444 
Q 2734 2256 2734 1869 
L 2734 647 
Q 2734 375 2778 278 
Q 2813 200 2889 156 
Q 2966 113 3172 113 
L 3172 0 
L 1756 0 
L 1756 113 
L 1816 113 
Q 2016 113 2095 173 
Q 2175 234 2206 353 
Q 2219 400 2219 647 
L 2219 1819 
Q 2219 2209 2117 2386 
Q 2016 2563 1775 2563 
Q 1403 2563 1034 2156 
L 1034 647 
Q 1034 356 1069 288 
Q 1113 197 1189 155 
Q 1266 113 1500 113 
L 1500 0 
L 84 0 
L 84 113 
L 147 113 
Q 366 113 442 223 
Q 519 334 519 647 
L 519 1709 
Q 519 2225 495 2337 
Q 472 2450 423 2490 
Q 375 2531 294 2531 
Q 206 2531 84 2484 
L 38 2597 
L 900 2947 
L 1034 2947 
L 1034 2341 
z
" transform="scale(0.015625)"/>
       <path id="TimesNewRomanPSMT-6f" d="M 1600 2947 
Q 2250 2947 2644 2453 
Q 2978 2031 2978 1484 
Q 2978 1100 2793 706 
Q 2609 313 2286 112 
Q 1963 -88 1566 -88 
Q 919 -88 538 428 
Q 216 863 216 1403 
Q 216 1797 411 2186 
Q 606 2575 925 2761 
Q 1244 2947 1600 2947 
z
M 1503 2744 
Q 1338 2744 1170 2645 
Q 1003 2547 900 2300 
Q 797 2053 797 1666 
Q 797 1041 1045 587 
Q 1294 134 1700 134 
Q 2003 134 2200 384 
Q 2397 634 2397 1244 
Q 2397 2006 2069 2444 
Q 1847 2744 1503 2744 
z
" transform="scale(0.015625)"/>
       <path id="TimesNewRomanPSMT-76" d="M 53 2863 
L 1400 2863 
L 1400 2747 
L 1313 2747 
Q 1191 2747 1127 2687 
Q 1063 2628 1063 2528 
Q 1063 2419 1128 2269 
L 1794 688 
L 2463 2328 
Q 2534 2503 2534 2594 
Q 2534 2638 2509 2666 
Q 2475 2713 2422 2730 
Q 2369 2747 2206 2747 
L 2206 2863 
L 3141 2863 
L 3141 2747 
Q 2978 2734 2916 2681 
Q 2806 2588 2719 2369 
L 1703 -88 
L 1575 -88 
L 553 2328 
Q 484 2497 421 2570 
Q 359 2644 263 2694 
Q 209 2722 53 2747 
L 53 2863 
z
" transform="scale(0.015625)"/>
       <path id="TimesNewRomanPSMT-74" d="M 1031 3803 
L 1031 2863 
L 1700 2863 
L 1700 2644 
L 1031 2644 
L 1031 788 
Q 1031 509 1111 412 
Q 1191 316 1316 316 
Q 1419 316 1516 380 
Q 1613 444 1666 569 
L 1788 569 
Q 1678 263 1478 108 
Q 1278 -47 1066 -47 
Q 922 -47 784 33 
Q 647 113 581 261 
Q 516 409 516 719 
L 516 2644 
L 63 2644 
L 63 2747 
Q 234 2816 414 2980 
Q 594 3144 734 3369 
Q 806 3488 934 3803 
L 1031 3803 
z
" transform="scale(0.015625)"/>
       <path id="TimesNewRomanPSMT-69" d="M 928 4444 
Q 1059 4444 1151 4351 
Q 1244 4259 1244 4128 
Q 1244 3997 1151 3903 
Q 1059 3809 928 3809 
Q 797 3809 703 3903 
Q 609 3997 609 4128 
Q 609 4259 701 4351 
Q 794 4444 928 4444 
z
M 1188 2947 
L 1188 647 
Q 1188 378 1227 289 
Q 1266 200 1342 156 
Q 1419 113 1622 113 
L 1622 0 
L 231 0 
L 231 113 
Q 441 113 512 153 
Q 584 194 626 287 
Q 669 381 669 647 
L 669 1750 
Q 669 2216 641 2353 
Q 619 2453 572 2492 
Q 525 2531 444 2531 
Q 356 2531 231 2484 
L 188 2597 
L 1050 2947 
L 1188 2947 
z
" transform="scale(0.015625)"/>
       <path id="TimesNewRomanPSMT-20" transform="scale(0.015625)"/>
       <path id="TimesNewRomanPSMT-64" d="M 2222 322 
Q 2013 103 1813 7 
Q 1613 -88 1381 -88 
Q 913 -88 563 304 
Q 213 697 213 1313 
Q 213 1928 600 2439 
Q 988 2950 1597 2950 
Q 1975 2950 2222 2709 
L 2222 3238 
Q 2222 3728 2198 3840 
Q 2175 3953 2125 3993 
Q 2075 4034 2000 4034 
Q 1919 4034 1784 3984 
L 1744 4094 
L 2597 4444 
L 2738 4444 
L 2738 1134 
Q 2738 631 2761 520 
Q 2784 409 2836 365 
Q 2888 322 2956 322 
Q 3041 322 3181 375 
L 3216 266 
L 2366 -88 
L 2222 -88 
L 2222 322 
z
M 2222 541 
L 2222 2016 
Q 2203 2228 2109 2403 
Q 2016 2578 1861 2667 
Q 1706 2756 1559 2756 
Q 1284 2756 1069 2509 
Q 784 2184 784 1559 
Q 784 928 1059 592 
Q 1334 256 1672 256 
Q 1956 256 2222 541 
z
" transform="scale(0.015625)"/>
       <path id="TimesNewRomanPSMT-78" d="M 84 2863 
L 1431 2863 
L 1431 2747 
Q 1303 2747 1251 2703 
Q 1200 2659 1200 2588 
Q 1200 2513 1309 2356 
Q 1344 2306 1413 2200 
L 1616 1875 
L 1850 2200 
Q 2075 2509 2075 2591 
Q 2075 2656 2022 2701 
Q 1969 2747 1850 2747 
L 1850 2863 
L 2819 2863 
L 2819 2747 
Q 2666 2738 2553 2663 
Q 2400 2556 2134 2200 
L 1744 1678 
L 2456 653 
Q 2719 275 2831 198 
Q 2944 122 3122 113 
L 3122 0 
L 1772 0 
L 1772 113 
Q 1913 113 1991 175 
Q 2050 219 2050 291 
Q 2050 363 1850 653 
L 1431 1266 
L 972 653 
Q 759 369 759 316 
Q 759 241 829 180 
Q 900 119 1041 113 
L 1041 0 
L 106 0 
L 106 113 
Q 219 128 303 191 
Q 422 281 703 653 
L 1303 1450 
L 759 2238 
Q 528 2575 401 2661 
Q 275 2747 84 2747 
L 84 2863 
z
" transform="scale(0.015625)"/>
       <path id="TimesNewRomanPSMT-28" d="M 1988 -1253 
L 1988 -1369 
Q 1516 -1131 1200 -813 
Q 750 -359 506 256 
Q 263 872 263 1534 
Q 263 2503 741 3301 
Q 1219 4100 1988 4444 
L 1988 4313 
Q 1603 4100 1356 3731 
Q 1109 3363 987 2797 
Q 866 2231 866 1616 
Q 866 947 969 400 
Q 1050 -31 1165 -292 
Q 1281 -553 1476 -793 
Q 1672 -1034 1988 -1253 
z
" transform="scale(0.015625)"/>
       <path id="TimesNewRomanPSMT-29" d="M 144 4313 
L 144 4444 
Q 619 4209 934 3891 
Q 1381 3434 1625 2820 
Q 1869 2206 1869 1541 
Q 1869 572 1392 -226 
Q 916 -1025 144 -1369 
L 144 -1253 
Q 528 -1038 776 -670 
Q 1025 -303 1145 264 
Q 1266 831 1266 1447 
Q 1266 2113 1163 2663 
Q 1084 3094 967 3353 
Q 850 3613 656 3853 
Q 463 4094 144 4313 
z
" transform="scale(0.015625)"/>
      </defs>
      <use xlink:href="#TimesNewRomanPSMT-49"/>
      <use xlink:href="#TimesNewRomanPSMT-6e" x="33.300781"/>
      <use xlink:href="#TimesNewRomanPSMT-6e" x="83.300781"/>
      <use xlink:href="#TimesNewRomanPSMT-6f" x="133.300781"/>
      <use xlink:href="#TimesNewRomanPSMT-76" x="183.300781"/>
      <use xlink:href="#TimesNewRomanPSMT-61" x="233.300781"/>
      <use xlink:href="#TimesNewRomanPSMT-74" x="277.685547"/>
      <use xlink:href="#TimesNewRomanPSMT-69" x="305.46875"/>
      <use xlink:href="#TimesNewRomanPSMT-6f" x="333.251953"/>
      <use xlink:href="#TimesNewRomanPSMT-6e" x="383.251953"/>
      <use xlink:href="#TimesNewRomanPSMT-20" x="433.251953"/>
      <use xlink:href="#TimesNewRomanPSMT-49" x="458.251953"/>
      <use xlink:href="#TimesNewRomanPSMT-6e" x="491.552734"/>
      <use xlink:href="#TimesNewRomanPSMT-64" x="541.552734"/>
      <use xlink:href="#TimesNewRomanPSMT-65" x="591.552734"/>
      <use xlink:href="#TimesNewRomanPSMT-78" x="635.9375"/>
      <use xlink:href="#TimesNewRomanPSMT-20" x="685.9375"/>
      <use xlink:href="#TimesNewRomanPSMT-28" x="710.9375"/>
      <use xlink:href="#TimesNewRomanPSMT-69" x="744.238281"/>
      <use xlink:href="#TimesNewRomanPSMT-6e" x="772.021484"/>
      <use xlink:href="#TimesNewRomanPSMT-64" x="822.021484"/>
      <use xlink:href="#TimesNewRomanPSMT-65" x="872.021484"/>
      <use xlink:href="#TimesNewRomanPSMT-78" x="916.40625"/>
      <use xlink:href="#TimesNewRomanPSMT-29" x="966.40625"/>
     </g>
    </g>
   </g>
   <g id="patch_3">
    <path d="M 49.738438 314.12125 
L 49.738438 36.92125 
" style="fill: none; stroke: #000000; stroke-width: 0.8; stroke-linejoin: miter; stroke-linecap: square"/>
   </g>
   <g id="patch_4">
    <path d="M 438.538437 314.12125 
L 438.538437 36.92125 
" style="fill: none; stroke: #000000; stroke-width: 0.8; stroke-linejoin: miter; stroke-linecap: square"/>
   </g>
   <g id="patch_5">
    <path d="M 49.738437 314.12125 
L 438.538437 314.12125 
" style="fill: none; stroke: #000000; stroke-width: 0.8; stroke-linejoin: miter; stroke-linecap: square"/>
   </g>
   <g id="patch_6">
    <path d="M 49.738437 36.92125 
L 438.538437 36.92125 
" style="fill: none; stroke: #000000; stroke-width: 0.8; stroke-linejoin: miter; stroke-linecap: square"/>
   </g>
   <g id="text_16">
    <!-- Innovation Index from 1961 to 1968 (index)  -->
    <g transform="translate(118.358281 16.92125) scale(0.14 -0.14)">
     <defs>
      <path id="TimesNewRomanPSMT-66" d="M 1319 2638 
L 1319 756 
Q 1319 356 1406 250 
Q 1522 113 1716 113 
L 1975 113 
L 1975 0 
L 266 0 
L 266 113 
L 394 113 
Q 519 113 622 175 
Q 725 238 764 344 
Q 803 450 803 756 
L 803 2638 
L 247 2638 
L 247 2863 
L 803 2863 
L 803 3050 
Q 803 3478 940 3775 
Q 1078 4072 1361 4255 
Q 1644 4438 1997 4438 
Q 2325 4438 2600 4225 
Q 2781 4084 2781 3909 
Q 2781 3816 2700 3733 
Q 2619 3650 2525 3650 
Q 2453 3650 2373 3701 
Q 2294 3753 2178 3923 
Q 2063 4094 1966 4153 
Q 1869 4213 1750 4213 
Q 1606 4213 1506 4136 
Q 1406 4059 1362 3898 
Q 1319 3738 1319 3069 
L 1319 2863 
L 2056 2863 
L 2056 2638 
L 1319 2638 
z
" transform="scale(0.015625)"/>
      <path id="TimesNewRomanPSMT-6d" d="M 1050 2338 
Q 1363 2650 1419 2697 
Q 1559 2816 1721 2881 
Q 1884 2947 2044 2947 
Q 2313 2947 2506 2790 
Q 2700 2634 2766 2338 
Q 3088 2713 3309 2830 
Q 3531 2947 3766 2947 
Q 3994 2947 4170 2830 
Q 4347 2713 4450 2447 
Q 4519 2266 4519 1878 
L 4519 647 
Q 4519 378 4559 278 
Q 4591 209 4675 161 
Q 4759 113 4950 113 
L 4950 0 
L 3538 0 
L 3538 113 
L 3597 113 
Q 3781 113 3884 184 
Q 3956 234 3988 344 
Q 4000 397 4000 647 
L 4000 1878 
Q 4000 2228 3916 2372 
Q 3794 2572 3525 2572 
Q 3359 2572 3192 2489 
Q 3025 2406 2788 2181 
L 2781 2147 
L 2788 2013 
L 2788 647 
Q 2788 353 2820 281 
Q 2853 209 2943 161 
Q 3034 113 3253 113 
L 3253 0 
L 1806 0 
L 1806 113 
Q 2044 113 2133 169 
Q 2222 225 2256 338 
Q 2272 391 2272 647 
L 2272 1878 
Q 2272 2228 2169 2381 
Q 2031 2581 1784 2581 
Q 1616 2581 1450 2491 
Q 1191 2353 1050 2181 
L 1050 647 
Q 1050 366 1089 281 
Q 1128 197 1204 155 
Q 1281 113 1516 113 
L 1516 0 
L 100 0 
L 100 113 
Q 297 113 375 155 
Q 453 197 493 289 
Q 534 381 534 647 
L 534 1741 
Q 534 2213 506 2350 
Q 484 2453 437 2492 
Q 391 2531 309 2531 
Q 222 2531 100 2484 
L 53 2597 
L 916 2947 
L 1050 2947 
L 1050 2338 
z
" transform="scale(0.015625)"/>
     </defs>
     <use xlink:href="#TimesNewRomanPSMT-49"/>
     <use xlink:href="#TimesNewRomanPSMT-6e" x="33.300781"/>
     <use xlink:href="#TimesNewRomanPSMT-6e" x="83.300781"/>
     <use xlink:href="#TimesNewRomanPSMT-6f" x="133.300781"/>
     <use xlink:href="#TimesNewRomanPSMT-76" x="183.300781"/>
     <use xlink:href="#TimesNewRomanPSMT-61" x="233.300781"/>
     <use xlink:href="#TimesNewRomanPSMT-74" x="277.685547"/>
     <use xlink:href="#TimesNewRomanPSMT-69" x="305.46875"/>
     <use xlink:href="#TimesNewRomanPSMT-6f" x="333.251953"/>
     <use xlink:href="#TimesNewRomanPSMT-6e" x="383.251953"/>
     <use xlink:href="#TimesNewRomanPSMT-20" x="433.251953"/>
     <use xlink:href="#TimesNewRomanPSMT-49" x="458.251953"/>
     <use xlink:href="#TimesNewRomanPSMT-6e" x="491.552734"/>
     <use xlink:href="#TimesNewRomanPSMT-64" x="541.552734"/>
     <use xlink:href="#TimesNewRomanPSMT-65" x="591.552734"/>
     <use xlink:href="#TimesNewRomanPSMT-78" x="635.9375"/>
     <use xlink:href="#TimesNewRomanPSMT-20" x="685.9375"/>
     <use xlink:href="#TimesNewRomanPSMT-66" x="710.9375"/>
     <use xlink:href="#TimesNewRomanPSMT-72" x="744.238281"/>
     <use xlink:href="#TimesNewRomanPSMT-6f" x="777.539062"/>
     <use xlink:href="#TimesNewRomanPSMT-6d" x="827.539062"/>
     <use xlink:href="#TimesNewRomanPSMT-20" x="905.322266"/>
     <use xlink:href="#TimesNewRomanPSMT-31" x="930.322266"/>
     <use xlink:href="#TimesNewRomanPSMT-39" x="980.322266"/>
     <use xlink:href="#TimesNewRomanPSMT-36" x="1030.322266"/>
     <use xlink:href="#TimesNewRomanPSMT-31" x="1080.322266"/>
     <use xlink:href="#TimesNewRomanPSMT-20" x="1130.322266"/>
     <use xlink:href="#TimesNewRomanPSMT-74" x="1155.322266"/>
     <use xlink:href="#TimesNewRomanPSMT-6f" x="1183.105469"/>
     <use xlink:href="#TimesNewRomanPSMT-20" x="1233.105469"/>
     <use xlink:href="#TimesNewRomanPSMT-31" x="1258.105469"/>
     <use xlink:href="#TimesNewRomanPSMT-39" x="1308.105469"/>
     <use xlink:href="#TimesNewRomanPSMT-36" x="1358.105469"/>
     <use xlink:href="#TimesNewRomanPSMT-38" x="1408.105469"/>
     <use xlink:href="#TimesNewRomanPSMT-20" x="1458.105469"/>
     <use xlink:href="#TimesNewRomanPSMT-28" x="1483.105469"/>
     <use xlink:href="#TimesNewRomanPSMT-69" x="1516.40625"/>
     <use xlink:href="#TimesNewRomanPSMT-6e" x="1544.189453"/>
     <use xlink:href="#TimesNewRomanPSMT-64" x="1594.189453"/>
     <use xlink:href="#TimesNewRomanPSMT-65" x="1644.189453"/>
     <use xlink:href="#TimesNewRomanPSMT-78" x="1688.574219"/>
     <use xlink:href="#TimesNewRomanPSMT-29" x="1738.574219"/>
     <use xlink:href="#TimesNewRomanPSMT-20" x="1771.875"/>
    </g>
   </g>
   <g id="legend_1">
    <g id="patch_7">
     <path d="M 455.314437 142.594687 
L 475.314437 142.594687 
L 475.314437 135.594687 
L 455.314437 135.594687 
z
" style="fill: #1f77b4"/>
    </g>
    <g id="text_17">
     <!-- Oracle Solutions -->
     <g transform="translate(483.314437 142.594687) scale(0.1 -0.1)">
      <defs>
       <path id="TimesNewRomanPSMT-4f" d="M 2341 4334 
Q 3166 4334 3770 3707 
Q 4375 3081 4375 2144 
Q 4375 1178 3765 540 
Q 3156 -97 2291 -97 
Q 1416 -97 820 525 
Q 225 1147 225 2134 
Q 225 3144 913 3781 
Q 1509 4334 2341 4334 
z
M 2281 4106 
Q 1713 4106 1369 3684 
Q 941 3159 941 2147 
Q 941 1109 1384 550 
Q 1725 125 2284 125 
Q 2881 125 3270 590 
Q 3659 1056 3659 2059 
Q 3659 3147 3231 3681 
Q 2888 4106 2281 4106 
z
" transform="scale(0.015625)"/>
       <path id="TimesNewRomanPSMT-63" d="M 2631 1088 
Q 2516 522 2178 217 
Q 1841 -88 1431 -88 
Q 944 -88 581 321 
Q 219 731 219 1428 
Q 219 2103 620 2525 
Q 1022 2947 1584 2947 
Q 2006 2947 2278 2723 
Q 2550 2500 2550 2259 
Q 2550 2141 2473 2067 
Q 2397 1994 2259 1994 
Q 2075 1994 1981 2113 
Q 1928 2178 1911 2362 
Q 1894 2547 1784 2644 
Q 1675 2738 1481 2738 
Q 1169 2738 978 2506 
Q 725 2200 725 1697 
Q 725 1184 976 792 
Q 1228 400 1656 400 
Q 1963 400 2206 609 
Q 2378 753 2541 1131 
L 2631 1088 
z
" transform="scale(0.015625)"/>
       <path id="TimesNewRomanPSMT-6c" d="M 1184 4444 
L 1184 647 
Q 1184 378 1223 290 
Q 1263 203 1344 158 
Q 1425 113 1647 113 
L 1647 0 
L 244 0 
L 244 113 
Q 441 113 512 153 
Q 584 194 625 287 
Q 666 381 666 647 
L 666 3247 
Q 666 3731 644 3842 
Q 622 3953 573 3993 
Q 525 4034 450 4034 
Q 369 4034 244 3984 
L 191 4094 
L 1044 4444 
L 1184 4444 
z
" transform="scale(0.015625)"/>
       <path id="TimesNewRomanPSMT-53" d="M 2934 4334 
L 2934 2869 
L 2819 2869 
Q 2763 3291 2617 3541 
Q 2472 3791 2203 3937 
Q 1934 4084 1647 4084 
Q 1322 4084 1109 3886 
Q 897 3688 897 3434 
Q 897 3241 1031 3081 
Q 1225 2847 1953 2456 
Q 2547 2138 2764 1967 
Q 2981 1797 3098 1565 
Q 3216 1334 3216 1081 
Q 3216 600 2842 251 
Q 2469 -97 1881 -97 
Q 1697 -97 1534 -69 
Q 1438 -53 1133 45 
Q 828 144 747 144 
Q 669 144 623 97 
Q 578 50 556 -97 
L 441 -97 
L 441 1356 
L 556 1356 
Q 638 900 775 673 
Q 913 447 1195 297 
Q 1478 147 1816 147 
Q 2206 147 2432 353 
Q 2659 559 2659 841 
Q 2659 997 2573 1156 
Q 2488 1316 2306 1453 
Q 2184 1547 1640 1851 
Q 1097 2156 867 2337 
Q 638 2519 519 2737 
Q 400 2956 400 3219 
Q 400 3675 750 4004 
Q 1100 4334 1641 4334 
Q 1978 4334 2356 4169 
Q 2531 4091 2603 4091 
Q 2684 4091 2736 4139 
Q 2788 4188 2819 4334 
L 2934 4334 
z
" transform="scale(0.015625)"/>
       <path id="TimesNewRomanPSMT-75" d="M 2709 2863 
L 2709 1128 
Q 2709 631 2732 520 
Q 2756 409 2807 365 
Q 2859 322 2928 322 
Q 3025 322 3147 375 
L 3191 266 
L 2334 -88 
L 2194 -88 
L 2194 519 
Q 1825 119 1631 15 
Q 1438 -88 1222 -88 
Q 981 -88 804 51 
Q 628 191 559 409 
Q 491 628 491 1028 
L 491 2306 
Q 491 2509 447 2587 
Q 403 2666 317 2708 
Q 231 2750 6 2747 
L 6 2863 
L 1009 2863 
L 1009 947 
Q 1009 547 1148 422 
Q 1288 297 1484 297 
Q 1619 297 1789 381 
Q 1959 466 2194 703 
L 2194 2325 
Q 2194 2569 2105 2655 
Q 2016 2741 1734 2747 
L 1734 2863 
L 2709 2863 
z
" transform="scale(0.015625)"/>
       <path id="TimesNewRomanPSMT-73" d="M 2050 2947 
L 2050 1972 
L 1947 1972 
Q 1828 2431 1642 2597 
Q 1456 2763 1169 2763 
Q 950 2763 815 2647 
Q 681 2531 681 2391 
Q 681 2216 781 2091 
Q 878 1963 1175 1819 
L 1631 1597 
Q 2266 1288 2266 781 
Q 2266 391 1970 151 
Q 1675 -88 1309 -88 
Q 1047 -88 709 6 
Q 606 38 541 38 
Q 469 38 428 -44 
L 325 -44 
L 325 978 
L 428 978 
Q 516 541 762 319 
Q 1009 97 1316 97 
Q 1531 97 1667 223 
Q 1803 350 1803 528 
Q 1803 744 1651 891 
Q 1500 1038 1047 1263 
Q 594 1488 453 1669 
Q 313 1847 313 2119 
Q 313 2472 555 2709 
Q 797 2947 1181 2947 
Q 1350 2947 1591 2875 
Q 1750 2828 1803 2828 
Q 1853 2828 1881 2850 
Q 1909 2872 1947 2947 
L 2050 2947 
z
" transform="scale(0.015625)"/>
      </defs>
      <use xlink:href="#TimesNewRomanPSMT-4f"/>
      <use xlink:href="#TimesNewRomanPSMT-72" x="72.216797"/>
      <use xlink:href="#TimesNewRomanPSMT-61" x="105.517578"/>
      <use xlink:href="#TimesNewRomanPSMT-63" x="149.902344"/>
      <use xlink:href="#TimesNewRomanPSMT-6c" x="194.287109"/>
      <use xlink:href="#TimesNewRomanPSMT-65" x="222.070312"/>
      <use xlink:href="#TimesNewRomanPSMT-20" x="266.455078"/>
      <use xlink:href="#TimesNewRomanPSMT-53" x="291.455078"/>
      <use xlink:href="#TimesNewRomanPSMT-6f" x="347.070312"/>
      <use xlink:href="#TimesNewRomanPSMT-6c" x="397.070312"/>
      <use xlink:href="#TimesNewRomanPSMT-75" x="424.853516"/>
      <use xlink:href="#TimesNewRomanPSMT-74" x="474.853516"/>
      <use xlink:href="#TimesNewRomanPSMT-69" x="502.636719"/>
      <use xlink:href="#TimesNewRomanPSMT-6f" x="530.419922"/>
      <use xlink:href="#TimesNewRomanPSMT-6e" x="580.419922"/>
      <use xlink:href="#TimesNewRomanPSMT-73" x="630.419922"/>
     </g>
    </g>
    <g id="patch_8">
     <path d="M 455.314437 156.73375 
L 475.314437 156.73375 
L 475.314437 149.73375 
L 455.314437 149.73375 
z
" style="fill: #aec7e8"/>
    </g>
    <g id="text_18">
     <!-- Nova Innovations -->
     <g transform="translate(483.314437 156.73375) scale(0.1 -0.1)">
      <defs>
       <path id="TimesNewRomanPSMT-4e" d="M -84 4238 
L 1066 4238 
L 3656 1059 
L 3656 3503 
Q 3656 3894 3569 3991 
Q 3453 4122 3203 4122 
L 3056 4122 
L 3056 4238 
L 4531 4238 
L 4531 4122 
L 4381 4122 
Q 4113 4122 4000 3959 
Q 3931 3859 3931 3503 
L 3931 -69 
L 3819 -69 
L 1025 3344 
L 1025 734 
Q 1025 344 1109 247 
Q 1228 116 1475 116 
L 1625 116 
L 1625 0 
L 150 0 
L 150 116 
L 297 116 
Q 569 116 681 278 
Q 750 378 750 734 
L 750 3681 
Q 566 3897 470 3965 
Q 375 4034 191 4094 
Q 100 4122 -84 4122 
L -84 4238 
z
" transform="scale(0.015625)"/>
      </defs>
      <use xlink:href="#TimesNewRomanPSMT-4e"/>
      <use xlink:href="#TimesNewRomanPSMT-6f" x="72.216797"/>
      <use xlink:href="#TimesNewRomanPSMT-76" x="122.216797"/>
      <use xlink:href="#TimesNewRomanPSMT-61" x="172.216797"/>
      <use xlink:href="#TimesNewRomanPSMT-20" x="216.601562"/>
      <use xlink:href="#TimesNewRomanPSMT-49" x="241.601562"/>
      <use xlink:href="#TimesNewRomanPSMT-6e" x="274.902344"/>
      <use xlink:href="#TimesNewRomanPSMT-6e" x="324.902344"/>
      <use xlink:href="#TimesNewRomanPSMT-6f" x="374.902344"/>
      <use xlink:href="#TimesNewRomanPSMT-76" x="424.902344"/>
      <use xlink:href="#TimesNewRomanPSMT-61" x="474.902344"/>
      <use xlink:href="#TimesNewRomanPSMT-74" x="519.287109"/>
      <use xlink:href="#TimesNewRomanPSMT-69" x="547.070312"/>
      <use xlink:href="#TimesNewRomanPSMT-6f" x="574.853516"/>
      <use xlink:href="#TimesNewRomanPSMT-6e" x="624.853516"/>
      <use xlink:href="#TimesNewRomanPSMT-73" x="674.853516"/>
     </g>
    </g>
    <g id="patch_9">
     <path d="M 455.314437 170.872812 
L 475.314437 170.872812 
L 475.314437 163.872812 
L 455.314437 163.872812 
z
" style="fill: #ff7f0e"/>
    </g>
    <g id="text_19">
     <!-- Aether Tech -->
     <g transform="translate(483.314437 170.872812) scale(0.1 -0.1)">
      <defs>
       <path id="TimesNewRomanPSMT-41" d="M 2928 1419 
L 1288 1419 
L 1000 750 
Q 894 503 894 381 
Q 894 284 986 211 
Q 1078 138 1384 116 
L 1384 0 
L 50 0 
L 50 116 
Q 316 163 394 238 
Q 553 388 747 847 
L 2238 4334 
L 2347 4334 
L 3822 809 
Q 4000 384 4145 257 
Q 4291 131 4550 116 
L 4550 0 
L 2878 0 
L 2878 116 
Q 3131 128 3220 200 
Q 3309 272 3309 375 
Q 3309 513 3184 809 
L 2928 1419 
z
M 2841 1650 
L 2122 3363 
L 1384 1650 
L 2841 1650 
z
" transform="scale(0.015625)"/>
       <path id="TimesNewRomanPSMT-68" d="M 1041 4444 
L 1041 2350 
Q 1388 2731 1591 2839 
Q 1794 2947 1997 2947 
Q 2241 2947 2416 2812 
Q 2591 2678 2675 2391 
Q 2734 2191 2734 1659 
L 2734 647 
Q 2734 375 2778 275 
Q 2809 200 2884 156 
Q 2959 113 3159 113 
L 3159 0 
L 1753 0 
L 1753 113 
L 1819 113 
Q 2019 113 2097 173 
Q 2175 234 2206 353 
Q 2216 403 2216 647 
L 2216 1659 
Q 2216 2128 2167 2275 
Q 2119 2422 2012 2495 
Q 1906 2569 1756 2569 
Q 1603 2569 1437 2487 
Q 1272 2406 1041 2159 
L 1041 647 
Q 1041 353 1073 281 
Q 1106 209 1195 161 
Q 1284 113 1503 113 
L 1503 0 
L 84 0 
L 84 113 
Q 275 113 384 172 
Q 447 203 484 290 
Q 522 378 522 647 
L 522 3238 
Q 522 3728 498 3840 
Q 475 3953 426 3993 
Q 378 4034 297 4034 
Q 231 4034 84 3984 
L 41 4094 
L 897 4444 
L 1041 4444 
z
" transform="scale(0.015625)"/>
       <path id="TimesNewRomanPSMT-54" d="M 3703 4238 
L 3750 3244 
L 3631 3244 
Q 3597 3506 3538 3619 
Q 3441 3800 3280 3886 
Q 3119 3972 2856 3972 
L 2259 3972 
L 2259 734 
Q 2259 344 2344 247 
Q 2463 116 2709 116 
L 2856 116 
L 2856 0 
L 1059 0 
L 1059 116 
L 1209 116 
Q 1478 116 1591 278 
Q 1659 378 1659 734 
L 1659 3972 
L 1150 3972 
Q 853 3972 728 3928 
Q 566 3869 450 3700 
Q 334 3531 313 3244 
L 194 3244 
L 244 4238 
L 3703 4238 
z
" transform="scale(0.015625)"/>
      </defs>
      <use xlink:href="#TimesNewRomanPSMT-41"/>
      <use xlink:href="#TimesNewRomanPSMT-65" x="72.216797"/>
      <use xlink:href="#TimesNewRomanPSMT-74" x="116.601562"/>
      <use xlink:href="#TimesNewRomanPSMT-68" x="144.384766"/>
      <use xlink:href="#TimesNewRomanPSMT-65" x="194.384766"/>
      <use xlink:href="#TimesNewRomanPSMT-72" x="238.769531"/>
      <use xlink:href="#TimesNewRomanPSMT-20" x="272.070312"/>
      <use xlink:href="#TimesNewRomanPSMT-54" x="295.320312"/>
      <use xlink:href="#TimesNewRomanPSMT-65" x="349.404297"/>
      <use xlink:href="#TimesNewRomanPSMT-63" x="393.789062"/>
      <use xlink:href="#TimesNewRomanPSMT-68" x="438.173828"/>
     </g>
    </g>
    <g id="patch_10">
     <path d="M 455.314437 185.011875 
L 475.314437 185.011875 
L 475.314437 178.011875 
L 455.314437 178.011875 
z
" style="fill: #ffbb78"/>
    </g>
    <g id="text_20">
     <!-- Crimson Analytics -->
     <g transform="translate(483.314437 185.011875) scale(0.1 -0.1)">
      <defs>
       <path id="TimesNewRomanPSMT-43" d="M 3853 4334 
L 3950 2894 
L 3853 2894 
Q 3659 3541 3300 3825 
Q 2941 4109 2438 4109 
Q 2016 4109 1675 3895 
Q 1334 3681 1139 3212 
Q 944 2744 944 2047 
Q 944 1472 1128 1050 
Q 1313 628 1683 403 
Q 2053 178 2528 178 
Q 2941 178 3256 354 
Q 3572 531 3950 1056 
L 4047 994 
Q 3728 428 3303 165 
Q 2878 -97 2294 -97 
Q 1241 -97 663 684 
Q 231 1266 231 2053 
Q 231 2688 515 3219 
Q 800 3750 1298 4042 
Q 1797 4334 2388 4334 
Q 2847 4334 3294 4109 
Q 3425 4041 3481 4041 
Q 3566 4041 3628 4100 
Q 3709 4184 3744 4334 
L 3853 4334 
z
" transform="scale(0.015625)"/>
       <path id="TimesNewRomanPSMT-79" d="M 38 2863 
L 1372 2863 
L 1372 2747 
L 1306 2747 
Q 1166 2747 1095 2686 
Q 1025 2625 1025 2534 
Q 1025 2413 1128 2197 
L 1825 753 
L 2466 2334 
Q 2519 2463 2519 2588 
Q 2519 2644 2497 2672 
Q 2472 2706 2419 2726 
Q 2366 2747 2231 2747 
L 2231 2863 
L 3163 2863 
L 3163 2747 
Q 3047 2734 2984 2696 
Q 2922 2659 2847 2556 
Q 2819 2513 2741 2316 
L 1575 -541 
Q 1406 -956 1132 -1168 
Q 859 -1381 606 -1381 
Q 422 -1381 303 -1275 
Q 184 -1169 184 -1031 
Q 184 -900 270 -820 
Q 356 -741 506 -741 
Q 609 -741 788 -809 
Q 913 -856 944 -856 
Q 1038 -856 1148 -759 
Q 1259 -663 1372 -384 
L 1575 113 
L 547 2272 
Q 500 2369 397 2513 
Q 319 2622 269 2659 
Q 197 2709 38 2747 
L 38 2863 
z
" transform="scale(0.015625)"/>
      </defs>
      <use xlink:href="#TimesNewRomanPSMT-43"/>
      <use xlink:href="#TimesNewRomanPSMT-72" x="66.699219"/>
      <use xlink:href="#TimesNewRomanPSMT-69" x="100"/>
      <use xlink:href="#TimesNewRomanPSMT-6d" x="127.783203"/>
      <use xlink:href="#TimesNewRomanPSMT-73" x="205.566406"/>
      <use xlink:href="#TimesNewRomanPSMT-6f" x="244.482422"/>
      <use xlink:href="#TimesNewRomanPSMT-6e" x="294.482422"/>
      <use xlink:href="#TimesNewRomanPSMT-20" x="344.482422"/>
      <use xlink:href="#TimesNewRomanPSMT-41" x="363.982422"/>
      <use xlink:href="#TimesNewRomanPSMT-6e" x="436.199219"/>
      <use xlink:href="#TimesNewRomanPSMT-61" x="486.199219"/>
      <use xlink:href="#TimesNewRomanPSMT-6c" x="530.583984"/>
      <use xlink:href="#TimesNewRomanPSMT-79" x="558.367188"/>
      <use xlink:href="#TimesNewRomanPSMT-74" x="608.367188"/>
      <use xlink:href="#TimesNewRomanPSMT-69" x="636.150391"/>
      <use xlink:href="#TimesNewRomanPSMT-63" x="663.933594"/>
      <use xlink:href="#TimesNewRomanPSMT-73" x="708.318359"/>
     </g>
    </g>
    <g id="patch_11">
     <path d="M 455.314437 199.169687 
L 475.314437 199.169687 
L 475.314437 192.169687 
L 455.314437 192.169687 
z
" style="fill: #2ca02c"/>
    </g>
    <g id="text_21">
     <!-- Luminara R&amp;D -->
     <g transform="translate(483.314437 199.169687) scale(0.1 -0.1)">
      <defs>
       <path id="TimesNewRomanPSMT-4c" d="M 3669 1172 
L 3772 1150 
L 3409 0 
L 128 0 
L 128 116 
L 288 116 
Q 556 116 672 291 
Q 738 391 738 753 
L 738 3488 
Q 738 3884 650 3984 
Q 528 4122 288 4122 
L 128 4122 
L 128 4238 
L 2047 4238 
L 2047 4122 
Q 1709 4125 1573 4059 
Q 1438 3994 1388 3894 
Q 1338 3794 1338 3416 
L 1338 753 
Q 1338 494 1388 397 
Q 1425 331 1503 300 
Q 1581 269 1991 269 
L 2300 269 
Q 2788 269 2984 341 
Q 3181 413 3343 595 
Q 3506 778 3669 1172 
z
" transform="scale(0.015625)"/>
       <path id="TimesNewRomanPSMT-52" d="M 4325 0 
L 3194 0 
L 1759 1981 
Q 1600 1975 1500 1975 
Q 1459 1975 1412 1976 
Q 1366 1978 1316 1981 
L 1316 750 
Q 1316 350 1403 253 
Q 1522 116 1759 116 
L 1925 116 
L 1925 0 
L 109 0 
L 109 116 
L 269 116 
Q 538 116 653 291 
Q 719 388 719 750 
L 719 3488 
Q 719 3888 631 3984 
Q 509 4122 269 4122 
L 109 4122 
L 109 4238 
L 1653 4238 
Q 2328 4238 2648 4139 
Q 2969 4041 3192 3777 
Q 3416 3513 3416 3147 
Q 3416 2756 3161 2468 
Q 2906 2181 2372 2063 
L 3247 847 
Q 3547 428 3762 290 
Q 3978 153 4325 116 
L 4325 0 
z
M 1316 2178 
Q 1375 2178 1419 2176 
Q 1463 2175 1491 2175 
Q 2097 2175 2405 2437 
Q 2713 2700 2713 3106 
Q 2713 3503 2464 3751 
Q 2216 4000 1806 4000 
Q 1625 4000 1316 3941 
L 1316 2178 
z
" transform="scale(0.015625)"/>
       <path id="TimesNewRomanPSMT-26" d="M 3266 2728 
L 4578 2728 
L 4578 2613 
Q 4306 2591 4176 2492 
Q 4047 2394 3772 1897 
Q 3497 1400 3153 969 
Q 3431 644 3650 514 
Q 3869 384 4091 384 
Q 4306 384 4456 501 
Q 4606 619 4669 847 
L 4784 763 
Q 4669 322 4412 112 
Q 4156 -97 3816 -97 
Q 3559 -97 3295 42 
Q 3031 181 2719 513 
Q 2331 169 2020 36 
Q 1709 -97 1356 -97 
Q 841 -97 537 178 
Q 234 453 234 834 
Q 234 1213 506 1589 
Q 778 1966 1528 2369 
Q 1381 2694 1328 2901 
Q 1275 3109 1275 3300 
Q 1275 3834 1669 4116 
Q 1975 4334 2366 4334 
Q 2738 4334 2972 4114 
Q 3206 3894 3206 3572 
Q 3206 3241 2979 2991 
Q 2753 2741 2178 2444 
Q 2575 1738 3006 1150 
Q 3556 1806 3556 2256 
Q 3556 2400 3463 2513 
Q 3394 2597 3266 2613 
L 3266 2728 
z
M 2072 2647 
Q 2459 2831 2651 3065 
Q 2844 3300 2844 3588 
Q 2844 3813 2705 3959 
Q 2566 4106 2359 4106 
Q 2088 4106 1948 3917 
Q 1809 3728 1809 3547 
Q 1809 3394 1862 3205 
Q 1916 3016 2072 2647 
z
M 2556 694 
Q 2144 1256 1984 1515 
Q 1825 1775 1634 2159 
Q 1259 1944 1070 1684 
Q 881 1425 881 1122 
Q 881 788 1097 534 
Q 1313 281 1678 281 
Q 1875 281 2058 359 
Q 2241 438 2556 694 
z
" transform="scale(0.015625)"/>
       <path id="TimesNewRomanPSMT-44" d="M 109 0 
L 109 116 
L 269 116 
Q 538 116 650 288 
Q 719 391 719 750 
L 719 3488 
Q 719 3884 631 3984 
Q 509 4122 269 4122 
L 109 4122 
L 109 4238 
L 1834 4238 
Q 2784 4238 3279 4022 
Q 3775 3806 4076 3303 
Q 4378 2800 4378 2141 
Q 4378 1256 3841 663 
Q 3238 0 2003 0 
L 109 0 
z
M 1319 306 
Q 1716 219 1984 219 
Q 2709 219 3187 728 
Q 3666 1238 3666 2109 
Q 3666 2988 3187 3494 
Q 2709 4000 1959 4000 
Q 1678 4000 1319 3909 
L 1319 306 
z
" transform="scale(0.015625)"/>
      </defs>
      <use xlink:href="#TimesNewRomanPSMT-4c"/>
      <use xlink:href="#TimesNewRomanPSMT-75" x="61.083984"/>
      <use xlink:href="#TimesNewRomanPSMT-6d" x="111.083984"/>
      <use xlink:href="#TimesNewRomanPSMT-69" x="188.867188"/>
      <use xlink:href="#TimesNewRomanPSMT-6e" x="216.650391"/>
      <use xlink:href="#TimesNewRomanPSMT-61" x="266.650391"/>
      <use xlink:href="#TimesNewRomanPSMT-72" x="311.035156"/>
      <use xlink:href="#TimesNewRomanPSMT-61" x="344.335938"/>
      <use xlink:href="#TimesNewRomanPSMT-20" x="388.720703"/>
      <use xlink:href="#TimesNewRomanPSMT-52" x="413.720703"/>
      <use xlink:href="#TimesNewRomanPSMT-26" x="480.419922"/>
      <use xlink:href="#TimesNewRomanPSMT-44" x="558.203125"/>
     </g>
    </g>
    <g id="patch_12">
     <path d="M 455.314437 213.30875 
L 475.314437 213.30875 
L 475.314437 206.30875 
L 455.314437 206.30875 
z
" style="fill: #98df8a"/>
    </g>
    <g id="text_22">
     <!-- Starburst Ventures -->
     <g transform="translate(483.314437 213.30875) scale(0.1 -0.1)">
      <defs>
       <path id="TimesNewRomanPSMT-62" d="M 984 2369 
Q 1400 2947 1881 2947 
Q 2322 2947 2650 2570 
Q 2978 2194 2978 1541 
Q 2978 778 2472 313 
Q 2038 -88 1503 -88 
Q 1253 -88 995 3 
Q 738 94 469 275 
L 469 3241 
Q 469 3728 445 3840 
Q 422 3953 372 3993 
Q 322 4034 247 4034 
Q 159 4034 28 3984 
L -16 4094 
L 844 4444 
L 984 4444 
L 984 2369 
z
M 984 2169 
L 984 456 
Q 1144 300 1314 220 
Q 1484 141 1663 141 
Q 1947 141 2192 453 
Q 2438 766 2438 1363 
Q 2438 1913 2192 2208 
Q 1947 2503 1634 2503 
Q 1469 2503 1303 2419 
Q 1178 2356 984 2169 
z
" transform="scale(0.015625)"/>
       <path id="TimesNewRomanPSMT-56" d="M 4544 4238 
L 4544 4122 
Q 4319 4081 4203 3978 
Q 4038 3825 3909 3509 
L 2431 -97 
L 2316 -97 
L 728 3556 
Q 606 3838 556 3900 
Q 478 3997 364 4051 
Q 250 4106 56 4122 
L 56 4238 
L 1788 4238 
L 1788 4122 
Q 1494 4094 1406 4022 
Q 1319 3950 1319 3838 
Q 1319 3681 1463 3350 
L 2541 866 
L 3541 3319 
Q 3688 3681 3688 3822 
Q 3688 3913 3597 3995 
Q 3506 4078 3291 4113 
Q 3275 4116 3238 4122 
L 3238 4238 
L 4544 4238 
z
" transform="scale(0.015625)"/>
      </defs>
      <use xlink:href="#TimesNewRomanPSMT-53"/>
      <use xlink:href="#TimesNewRomanPSMT-74" x="55.615234"/>
      <use xlink:href="#TimesNewRomanPSMT-61" x="83.398438"/>
      <use xlink:href="#TimesNewRomanPSMT-72" x="127.783203"/>
      <use xlink:href="#TimesNewRomanPSMT-62" x="161.083984"/>
      <use xlink:href="#TimesNewRomanPSMT-75" x="211.083984"/>
      <use xlink:href="#TimesNewRomanPSMT-72" x="261.083984"/>
      <use xlink:href="#TimesNewRomanPSMT-73" x="294.384766"/>
      <use xlink:href="#TimesNewRomanPSMT-74" x="333.300781"/>
      <use xlink:href="#TimesNewRomanPSMT-20" x="361.083984"/>
      <use xlink:href="#TimesNewRomanPSMT-56" x="384.333984"/>
      <use xlink:href="#TimesNewRomanPSMT-65" x="445.425781"/>
      <use xlink:href="#TimesNewRomanPSMT-6e" x="489.810547"/>
      <use xlink:href="#TimesNewRomanPSMT-74" x="539.810547"/>
      <use xlink:href="#TimesNewRomanPSMT-75" x="567.59375"/>
      <use xlink:href="#TimesNewRomanPSMT-72" x="617.59375"/>
      <use xlink:href="#TimesNewRomanPSMT-65" x="650.894531"/>
      <use xlink:href="#TimesNewRomanPSMT-73" x="695.279297"/>
     </g>
    </g>
   </g>
  </g>
 </g>
 <defs>
  <clipPath id="p2ed8ab1231">
   <rect x="49.738438" y="36.92125" width="388.8" height="277.2"/>
  </clipPath>
 </defs>
</svg>
