<?xml version="1.0" encoding="utf-8" standalone="no"?>
<!DOCTYPE svg PUBLIC "-//W3C//DTD SVG 1.1//EN"
  "http://www.w3.org/Graphics/SVG/1.1/DTD/svg11.dtd">
<svg xmlns:xlink="http://www.w3.org/1999/xlink" width="566.052563pt" height="364.113404pt" viewBox="0 0 566.052563 364.113404" xmlns="http://www.w3.org/2000/svg" version="1.1">
 <metadata>
  <rdf:RDF xmlns:dc="http://purl.org/dc/elements/1.1/" xmlns:cc="http://creativecommons.org/ns#" xmlns:rdf="http://www.w3.org/1999/02/22-rdf-syntax-ns#">
   <cc:Work>
    <dc:type rdf:resource="http://purl.org/dc/dcmitype/StillImage"/>
    <dc:date>2025-05-21T21:40:28.932879</dc:date>
    <dc:format>image/svg+xml</dc:format>
    <dc:creator>
     <cc:Agent>
      <dc:title>Matplotlib v3.9.2, https://matplotlib.org/</dc:title>
     </cc:Agent>
    </dc:creator>
   </cc:Work>
  </rdf:RDF>
 </metadata>
 <defs>
  <style type="text/css">*{stroke-linejoin: round; stroke-linecap: butt}</style>
 </defs>
 <g id="figure_1">
  <g id="patch_1">
   <path d="M 0 364.113404 
L 566.052563 364.113404 
L 566.052563 0 
L 0 0 
z
" style="fill: #ffffff"/>
  </g>
  <g id="axes_1">
   <g id="patch_2">
    <path d="M 40.042188 314.449375 
L 428.842188 314.449375 
L 428.842188 37.249375 
L 40.042188 37.249375 
z
" style="fill: #ffffff"/>
   </g>
   <g id="PolyCollection_1">
    <path d="M 57.714915 188.501759 
L 57.714915 201.084228 
L 59.134411 201.095405 
L 60.553907 201.050053 
L 61.973403 200.954675 
L 63.392899 200.815773 
L 64.812396 200.639849 
L 66.231892 200.433406 
L 67.651388 200.202946 
L 69.070884 199.954972 
L 70.49038 199.695986 
L 71.909876 199.432491 
L 73.329373 199.170989 
L 74.748869 198.917983 
L 76.168365 198.679974 
L 77.587861 198.463466 
L 79.007357 198.274961 
L 80.426853 198.120961 
L 81.84635 198.007968 
L 83.265846 197.942486 
L 84.685342 197.931016 
L 86.104838 197.980062 
L 87.524334 198.096071 
L 88.94383 198.278903 
L 90.363327 198.515627 
L 91.782823 198.79184 
L 93.202319 199.093141 
L 94.621815 199.405127 
L 96.041311 199.713395 
L 97.460807 200.003544 
L 98.880304 200.261172 
L 100.2998 200.471876 
L 101.719296 200.621254 
L 103.138792 200.698245 
L 104.558288 200.711307 
L 105.977784 200.675957 
L 107.397281 200.607727 
L 108.816777 200.522145 
L 110.236273 200.434741 
L 111.655769 200.361045 
L 113.075265 200.316586 
L 114.494761 200.316893 
L 115.914258 200.377496 
L 117.333754 200.513366 
L 118.75325 200.726647 
L 120.172746 201.006651 
L 121.592242 201.342133 
L 123.011738 201.721847 
L 124.431235 202.13455 
L 125.850731 202.568995 
L 127.270227 203.013939 
L 128.689723 203.458136 
L 130.109219 203.890342 
L 131.528715 204.299313 
L 132.948212 204.675758 
L 134.367708 205.015771 
L 135.787204 205.316371 
L 137.2067 205.574574 
L 138.626196 205.787398 
L 140.045692 205.951859 
L 141.465189 206.064977 
L 142.884685 206.123767 
L 144.304181 206.125248 
L 145.723677 206.066437 
L 147.143173 205.945604 
L 148.562669 205.771926 
L 149.982166 205.560197 
L 151.401662 205.325256 
L 152.821158 205.081942 
L 154.240654 204.845095 
L 155.66015 204.629554 
L 157.079646 204.450158 
L 158.499143 204.321746 
L 159.918639 204.259159 
L 161.338135 204.276951 
L 162.757631 204.376786 
L 164.177127 204.542439 
L 165.596623 204.75637 
L 167.01612 205.001037 
L 168.435616 205.258899 
L 169.855112 205.512414 
L 171.274608 205.744042 
L 172.694104 205.93624 
L 174.1136 206.071468 
L 175.533097 206.132184 
L 176.952593 206.108109 
L 178.372089 206.01801 
L 179.791585 205.887915 
L 181.211081 205.743854 
L 182.630577 205.611856 
L 184.050074 205.517949 
L 185.46957 205.488162 
L 186.889066 205.548524 
L 188.308562 205.725064 
L 189.728058 206.043811 
L 191.147554 206.52827 
L 192.567051 207.167687 
L 193.986547 207.926615 
L 195.406043 208.769064 
L 196.825539 209.659042 
L 198.245035 210.56056 
L 199.664531 211.437626 
L 201.084028 212.254249 
L 202.503524 212.974439 
L 203.92302 213.562205 
L 205.342516 213.981731 
L 206.762012 214.218337 
L 208.181508 214.298395 
L 209.601005 214.252995 
L 211.020501 214.113225 
L 212.439997 213.910174 
L 213.859493 213.67493 
L 215.278989 213.438583 
L 216.698485 213.23222 
L 218.117982 213.086931 
L 219.537478 213.033804 
L 220.956974 213.098537 
L 222.37647 213.275346 
L 223.795966 213.547051 
L 225.215462 213.896459 
L 226.634959 214.306373 
L 228.054455 214.7596 
L 229.473951 215.238944 
L 230.893447 215.72721 
L 232.312943 216.207205 
L 233.732439 216.661732 
L 235.151936 217.074023 
L 236.571432 217.43708 
L 237.990928 217.753683 
L 239.410424 218.027035 
L 240.82992 218.260338 
L 242.249416 218.456795 
L 243.668913 218.619611 
L 245.088409 218.751987 
L 246.507905 218.857127 
L 247.927401 218.938234 
L 249.346897 218.998514 
L 250.766393 219.04321 
L 252.18589 219.083194 
L 253.605386 219.130301 
L 255.024882 219.196366 
L 256.444378 219.293224 
L 257.863874 219.432712 
L 259.28337 219.626663 
L 260.702867 219.886914 
L 262.122363 220.2253 
L 263.541859 220.653656 
L 264.961355 221.217224 
L 266.380851 221.919906 
L 267.800347 222.648449 
L 269.219844 223.385225 
L 270.63934 224.112607 
L 272.058836 224.812968 
L 273.478332 225.46868 
L 274.897828 226.062117 
L 276.317324 226.57565 
L 277.736821 227.024509 
L 279.156317 227.364285 
L 280.575813 227.577576 
L 281.995309 227.69119 
L 283.414805 227.734074 
L 284.834301 227.735171 
L 286.253798 227.723427 
L 287.673294 227.727787 
L 289.09279 227.777195 
L 290.512286 227.900596 
L 291.931782 228.126935 
L 293.351278 228.485157 
L 294.770775 228.998029 
L 296.190271 229.661268 
L 297.609767 230.402213 
L 299.029263 231.25078 
L 300.448759 232.164084 
L 301.868255 233.1181 
L 303.287752 234.088806 
L 304.707248 235.052179 
L 306.126744 235.984196 
L 307.54624 236.860834 
L 308.965736 237.659682 
L 310.385232 238.380208 
L 311.804729 239.037648 
L 313.224225 239.665881 
L 314.643721 240.257765 
L 316.063217 240.823047 
L 317.482713 241.373518 
L 318.902209 241.924024 
L 320.321706 242.530226 
L 321.741202 243.182434 
L 323.160698 243.896147 
L 324.580194 244.676648 
L 325.99969 245.509367 
L 327.419186 246.377457 
L 328.838683 247.264071 
L 330.258179 248.152359 
L 331.677675 249.025475 
L 333.097171 249.866571 
L 334.516667 250.658797 
L 335.936163 251.385308 
L 337.35566 252.029253 
L 338.775156 252.577491 
L 340.194652 253.038508 
L 341.614148 253.428624 
L 343.033644 253.764165 
L 344.45314 254.061462 
L 345.872637 254.336842 
L 347.292133 254.606634 
L 348.711629 254.887167 
L 350.131125 255.194769 
L 351.550621 255.545769 
L 352.970117 255.956006 
L 354.389614 256.486727 
L 355.80911 257.055254 
L 357.228606 257.648516 
L 358.648102 258.264715 
L 360.067598 258.902053 
L 361.487094 259.558734 
L 362.906591 260.23296 
L 364.326087 260.943958 
L 365.745583 261.673244 
L 367.165079 262.402055 
L 368.584575 263.126695 
L 370.004071 263.853129 
L 371.423568 264.588976 
L 372.843064 265.348712 
L 374.26256 266.149892 
L 375.682056 266.976928 
L 377.101552 267.832799 
L 378.521048 268.720486 
L 379.940545 269.64297 
L 381.360041 270.643484 
L 382.779537 271.727576 
L 384.199033 272.8752 
L 385.618529 274.074818 
L 387.038025 275.314842 
L 388.457522 276.583686 
L 389.877018 277.869761 
L 391.296514 279.161481 
L 392.71601 280.447259 
L 394.135506 281.715507 
L 395.555002 282.954637 
L 396.974499 284.153063 
L 398.393995 285.299198 
L 399.813491 286.381453 
L 401.232987 287.388242 
L 402.652483 288.307977 
L 404.071979 289.129072 
L 405.491476 289.839938 
L 406.910972 290.428989 
L 408.330468 290.884637 
L 409.749964 291.195294 
L 411.16946 291.349375 
L 411.16946 178.072795 
L 411.16946 178.072795 
L 409.749964 178.122282 
L 408.330468 178.132323 
L 406.910972 178.107334 
L 405.491476 178.051731 
L 404.071979 177.96993 
L 402.652483 177.866349 
L 401.232987 177.745402 
L 399.813491 177.611506 
L 398.393995 177.469078 
L 396.974499 177.322533 
L 395.555002 177.176289 
L 394.135506 177.03476 
L 392.71601 176.902364 
L 391.296514 176.783516 
L 389.877018 176.682633 
L 388.457522 176.604131 
L 387.038025 176.552426 
L 385.618529 176.531935 
L 384.199033 176.547074 
L 382.779537 176.602258 
L 381.360041 176.70186 
L 379.940545 176.859381 
L 378.521048 177.063928 
L 377.101552 177.267063 
L 375.682056 177.460601 
L 374.26256 177.636356 
L 372.843064 177.786143 
L 371.423568 177.920345 
L 370.004071 178.016203 
L 368.584575 178.054036 
L 367.165079 178.021019 
L 365.745583 177.907692 
L 364.326087 177.724235 
L 362.906591 177.499512 
L 361.487094 177.262108 
L 360.067598 177.002899 
L 358.648102 176.733787 
L 357.228606 176.46667 
L 355.80911 176.213451 
L 354.389614 175.986028 
L 352.970117 175.807578 
L 351.550621 175.770732 
L 350.131125 175.820755 
L 348.711629 175.944879 
L 347.292133 176.129699 
L 345.872637 176.361809 
L 344.45314 176.627801 
L 343.033644 176.914269 
L 341.614148 177.207808 
L 340.194652 177.495011 
L 338.775156 177.76247 
L 337.35566 177.996786 
L 335.936163 178.188354 
L 334.516667 178.338058 
L 333.097171 178.448579 
L 331.677675 178.522597 
L 330.258179 178.562793 
L 328.838683 178.571847 
L 327.419186 178.552441 
L 325.99969 178.507254 
L 324.580194 178.438968 
L 323.160698 178.350262 
L 321.741202 178.243811 
L 320.321706 178.122216 
L 318.902209 177.988046 
L 317.482713 177.869142 
L 316.063217 177.727996 
L 314.643721 177.567913 
L 313.224225 177.395256 
L 311.804729 177.218427 
L 310.385232 177.062722 
L 308.965736 176.912413 
L 307.54624 176.77008 
L 306.126744 176.63881 
L 304.707248 176.522398 
L 303.287752 176.42469 
L 301.868255 176.349533 
L 300.448759 176.300774 
L 299.029263 176.282258 
L 297.609767 176.297834 
L 296.190271 176.370209 
L 294.770775 176.449292 
L 293.351278 176.587568 
L 291.931782 176.774984 
L 290.512286 176.997807 
L 289.09279 177.241964 
L 287.673294 177.493384 
L 286.253798 177.737997 
L 284.834301 177.961732 
L 283.414805 178.150516 
L 281.995309 178.290281 
L 280.575813 178.366953 
L 279.156317 178.366463 
L 277.736821 178.276142 
L 276.317324 178.117601 
L 274.897828 177.932296 
L 273.478332 177.701888 
L 272.058836 177.440894 
L 270.63934 177.16383 
L 269.219844 176.885213 
L 267.800347 176.619561 
L 266.380851 176.38139 
L 264.961355 176.185217 
L 263.541859 176.141179 
L 262.122363 176.241509 
L 260.702867 176.435647 
L 259.28337 176.706271 
L 257.863874 177.036061 
L 256.444378 177.407696 
L 255.024882 177.803854 
L 253.605386 178.207216 
L 252.18589 178.600459 
L 250.766393 178.966264 
L 249.346897 179.287308 
L 247.927401 179.549077 
L 246.507905 179.753434 
L 245.088409 179.908174 
L 243.668913 180.021097 
L 242.249416 180.100005 
L 240.82992 180.1527 
L 239.410424 180.186984 
L 237.990928 180.210657 
L 236.571432 180.231522 
L 235.151936 180.25738 
L 233.732439 180.295809 
L 232.312943 180.349226 
L 230.893447 180.414892 
L 229.473951 180.48984 
L 228.054455 180.571106 
L 226.634959 180.655726 
L 225.215462 180.740733 
L 223.795966 180.823164 
L 222.37647 180.900052 
L 220.956974 180.968434 
L 219.537478 181.025345 
L 218.117982 181.068882 
L 216.698485 181.10007 
L 215.278989 181.120433 
L 213.859493 181.131499 
L 212.439997 181.134793 
L 211.020501 181.13184 
L 209.601005 181.124167 
L 208.181508 181.1133 
L 206.762012 181.100764 
L 205.342516 181.088086 
L 203.92302 181.076325 
L 202.503524 181.062479 
L 201.084028 181.041458 
L 199.664531 181.008153 
L 198.245035 180.957456 
L 196.825539 180.884258 
L 195.406043 180.78345 
L 193.986547 180.649924 
L 192.567051 180.47857 
L 191.147554 180.264282 
L 189.728058 180.002154 
L 188.308562 179.696561 
L 186.889066 179.364751 
L 185.46957 179.024918 
L 184.050074 178.69526 
L 182.630577 178.393973 
L 181.211081 178.139251 
L 179.791585 177.949291 
L 178.372089 177.842289 
L 176.952593 177.836441 
L 175.533097 177.949943 
L 174.1136 178.194184 
L 172.694104 178.553329 
L 171.274608 179.004736 
L 169.855112 179.525766 
L 168.435616 180.093775 
L 167.01612 180.686123 
L 165.596623 181.280169 
L 164.177127 181.85327 
L 162.757631 182.382787 
L 161.338135 182.846076 
L 159.918639 183.222009 
L 158.499143 183.50999 
L 157.079646 183.724218 
L 155.66015 183.879219 
L 154.240654 183.98952 
L 152.821158 184.069648 
L 151.401662 184.134129 
L 149.982166 184.19749 
L 148.562669 184.274257 
L 147.143173 184.378957 
L 145.723677 184.526034 
L 144.304181 184.719928 
L 142.884685 184.945654 
L 141.465189 185.185994 
L 140.045692 185.42373 
L 138.626196 185.641644 
L 137.2067 185.822517 
L 135.787204 185.949133 
L 134.367708 186.004273 
L 132.948212 185.970718 
L 131.528715 185.831252 
L 130.109219 185.573807 
L 128.689723 185.216402 
L 127.270227 184.787945 
L 125.850731 184.317356 
L 124.431235 183.83356 
L 123.011738 183.365479 
L 121.592242 182.942033 
L 120.172746 182.592147 
L 118.75325 182.344742 
L 117.333754 182.228741 
L 115.914258 182.27185 
L 114.494761 182.473811 
L 113.075265 182.806398 
L 111.655769 183.240173 
L 110.236273 183.745695 
L 108.816777 184.293524 
L 107.397281 184.854219 
L 105.977784 185.398342 
L 104.558288 185.896451 
L 103.138792 186.319107 
L 101.719296 186.636885 
L 100.2998 186.831398 
L 98.880304 186.914756 
L 97.460807 186.90429 
L 96.041311 186.817332 
L 94.621815 186.671214 
L 93.202319 186.483266 
L 91.782823 186.270822 
L 90.363327 186.051212 
L 88.94383 185.841768 
L 87.524334 185.659821 
L 86.104838 185.521269 
L 84.685342 185.429521 
L 83.265846 185.381556 
L 81.84635 185.374303 
L 80.426853 185.404687 
L 79.007357 185.469635 
L 77.587861 185.566074 
L 76.168365 185.690931 
L 74.748869 185.841132 
L 73.329373 186.013605 
L 71.909876 186.205275 
L 70.49038 186.413071 
L 69.070884 186.633918 
L 67.651388 186.864743 
L 66.231892 187.102473 
L 64.812396 187.344035 
L 63.392899 187.586356 
L 61.973403 187.826361 
L 60.553907 188.060979 
L 59.134411 188.287136 
L 57.714915 188.501759 
z
" clip-path="url(#pdba4fc51fe)" style="fill: #1f77b4"/>
   </g>
   <g id="PolyCollection_2">
    <path d="M 57.714915 176.561751 
L 57.714915 188.501759 
L 59.134411 188.287136 
L 60.553907 188.060979 
L 61.973403 187.826361 
L 63.392899 187.586356 
L 64.812396 187.344035 
L 66.231892 187.102473 
L 67.651388 186.864743 
L 69.070884 186.633918 
L 70.49038 186.413071 
L 71.909876 186.205275 
L 73.329373 186.013605 
L 74.748869 185.841132 
L 76.168365 185.690931 
L 77.587861 185.566074 
L 79.007357 185.469635 
L 80.426853 185.404687 
L 81.84635 185.374303 
L 83.265846 185.381556 
L 84.685342 185.429521 
L 86.104838 185.521269 
L 87.524334 185.659821 
L 88.94383 185.841768 
L 90.363327 186.051212 
L 91.782823 186.270822 
L 93.202319 186.483266 
L 94.621815 186.671214 
L 96.041311 186.817332 
L 97.460807 186.90429 
L 98.880304 186.914756 
L 100.2998 186.831398 
L 101.719296 186.636885 
L 103.138792 186.319107 
L 104.558288 185.896451 
L 105.977784 185.398342 
L 107.397281 184.854219 
L 108.816777 184.293524 
L 110.236273 183.745695 
L 111.655769 183.240173 
L 113.075265 182.806398 
L 114.494761 182.473811 
L 115.914258 182.27185 
L 117.333754 182.228741 
L 118.75325 182.344742 
L 120.172746 182.592147 
L 121.592242 182.942033 
L 123.011738 183.365479 
L 124.431235 183.83356 
L 125.850731 184.317356 
L 127.270227 184.787945 
L 128.689723 185.216402 
L 130.109219 185.573807 
L 131.528715 185.831252 
L 132.948212 185.970718 
L 134.367708 186.004273 
L 135.787204 185.949133 
L 137.2067 185.822517 
L 138.626196 185.641644 
L 140.045692 185.42373 
L 141.465189 185.185994 
L 142.884685 184.945654 
L 144.304181 184.719928 
L 145.723677 184.526034 
L 147.143173 184.378957 
L 148.562669 184.274257 
L 149.982166 184.19749 
L 151.401662 184.134129 
L 152.821158 184.069648 
L 154.240654 183.98952 
L 155.66015 183.879219 
L 157.079646 183.724218 
L 158.499143 183.50999 
L 159.918639 183.222009 
L 161.338135 182.846076 
L 162.757631 182.382787 
L 164.177127 181.85327 
L 165.596623 181.280169 
L 167.01612 180.686123 
L 168.435616 180.093775 
L 169.855112 179.525766 
L 171.274608 179.004736 
L 172.694104 178.553329 
L 174.1136 178.194184 
L 175.533097 177.949943 
L 176.952593 177.836441 
L 178.372089 177.842289 
L 179.791585 177.949291 
L 181.211081 178.139251 
L 182.630577 178.393973 
L 184.050074 178.69526 
L 185.46957 179.024918 
L 186.889066 179.364751 
L 188.308562 179.696561 
L 189.728058 180.002154 
L 191.147554 180.264282 
L 192.567051 180.47857 
L 193.986547 180.649924 
L 195.406043 180.78345 
L 196.825539 180.884258 
L 198.245035 180.957456 
L 199.664531 181.008153 
L 201.084028 181.041458 
L 202.503524 181.062479 
L 203.92302 181.076325 
L 205.342516 181.088086 
L 206.762012 181.100764 
L 208.181508 181.1133 
L 209.601005 181.124167 
L 211.020501 181.13184 
L 212.439997 181.134793 
L 213.859493 181.131499 
L 215.278989 181.120433 
L 216.698485 181.10007 
L 218.117982 181.068882 
L 219.537478 181.025345 
L 220.956974 180.968434 
L 222.37647 180.900052 
L 223.795966 180.823164 
L 225.215462 180.740733 
L 226.634959 180.655726 
L 228.054455 180.571106 
L 229.473951 180.48984 
L 230.893447 180.414892 
L 232.312943 180.349226 
L 233.732439 180.295809 
L 235.151936 180.25738 
L 236.571432 180.231522 
L 237.990928 180.210657 
L 239.410424 180.186984 
L 240.82992 180.1527 
L 242.249416 180.100005 
L 243.668913 180.021097 
L 245.088409 179.908174 
L 246.507905 179.753434 
L 247.927401 179.549077 
L 249.346897 179.287308 
L 250.766393 178.966264 
L 252.18589 178.600459 
L 253.605386 178.207216 
L 255.024882 177.803854 
L 256.444378 177.407696 
L 257.863874 177.036061 
L 259.28337 176.706271 
L 260.702867 176.435647 
L 262.122363 176.241509 
L 263.541859 176.141179 
L 264.961355 176.185217 
L 266.380851 176.38139 
L 267.800347 176.619561 
L 269.219844 176.885213 
L 270.63934 177.16383 
L 272.058836 177.440894 
L 273.478332 177.701888 
L 274.897828 177.932296 
L 276.317324 178.117601 
L 277.736821 178.276142 
L 279.156317 178.366463 
L 280.575813 178.366953 
L 281.995309 178.290281 
L 283.414805 178.150516 
L 284.834301 177.961732 
L 286.253798 177.737997 
L 287.673294 177.493384 
L 289.09279 177.241964 
L 290.512286 176.997807 
L 291.931782 176.774984 
L 293.351278 176.587568 
L 294.770775 176.449292 
L 296.190271 176.370209 
L 297.609767 176.297834 
L 299.029263 176.282258 
L 300.448759 176.300774 
L 301.868255 176.349533 
L 303.287752 176.42469 
L 304.707248 176.522398 
L 306.126744 176.63881 
L 307.54624 176.77008 
L 308.965736 176.912413 
L 310.385232 177.062722 
L 311.804729 177.218427 
L 313.224225 177.395256 
L 314.643721 177.567913 
L 316.063217 177.727996 
L 317.482713 177.869142 
L 318.902209 177.988046 
L 320.321706 178.122216 
L 321.741202 178.243811 
L 323.160698 178.350262 
L 324.580194 178.438968 
L 325.99969 178.507254 
L 327.419186 178.552441 
L 328.838683 178.571847 
L 330.258179 178.562793 
L 331.677675 178.522597 
L 333.097171 178.448579 
L 334.516667 178.338058 
L 335.936163 178.188354 
L 337.35566 177.996786 
L 338.775156 177.76247 
L 340.194652 177.495011 
L 341.614148 177.207808 
L 343.033644 176.914269 
L 344.45314 176.627801 
L 345.872637 176.361809 
L 347.292133 176.129699 
L 348.711629 175.944879 
L 350.131125 175.820755 
L 351.550621 175.770732 
L 352.970117 175.807578 
L 354.389614 175.986028 
L 355.80911 176.213451 
L 357.228606 176.46667 
L 358.648102 176.733787 
L 360.067598 177.002899 
L 361.487094 177.262108 
L 362.906591 177.499512 
L 364.326087 177.724235 
L 365.745583 177.907692 
L 367.165079 178.021019 
L 368.584575 178.054036 
L 370.004071 178.016203 
L 371.423568 177.920345 
L 372.843064 177.786143 
L 374.26256 177.636356 
L 375.682056 177.460601 
L 377.101552 177.267063 
L 378.521048 177.063928 
L 379.940545 176.859381 
L 381.360041 176.70186 
L 382.779537 176.602258 
L 384.199033 176.547074 
L 385.618529 176.531935 
L 387.038025 176.552426 
L 388.457522 176.604131 
L 389.877018 176.682633 
L 391.296514 176.783516 
L 392.71601 176.902364 
L 394.135506 177.03476 
L 395.555002 177.176289 
L 396.974499 177.322533 
L 398.393995 177.469078 
L 399.813491 177.611506 
L 401.232987 177.745402 
L 402.652483 177.866349 
L 404.071979 177.96993 
L 405.491476 178.051731 
L 406.910972 178.107334 
L 408.330468 178.132323 
L 409.749964 178.122282 
L 411.16946 178.072795 
L 411.16946 60.582983 
L 411.16946 60.582983 
L 409.749964 62.05885 
L 408.330468 63.444212 
L 406.910972 64.745598 
L 405.491476 65.969537 
L 404.071979 67.12256 
L 402.652483 68.211195 
L 401.232987 69.241973 
L 399.813491 70.221424 
L 398.393995 71.156077 
L 396.974499 72.052462 
L 395.555002 72.917108 
L 394.135506 73.756546 
L 392.71601 74.577306 
L 391.296514 75.385916 
L 389.877018 76.188906 
L 388.457522 76.992808 
L 387.038025 77.804149 
L 385.618529 78.62946 
L 384.199033 79.475271 
L 382.779537 80.348111 
L 381.360041 81.254463 
L 379.940545 82.209643 
L 378.521048 83.203995 
L 377.101552 84.190253 
L 375.682056 85.161404 
L 374.26256 86.110433 
L 372.843064 87.030327 
L 371.423568 87.932639 
L 370.004071 88.795784 
L 368.584575 89.601251 
L 367.165079 90.337387 
L 365.745583 90.995682 
L 364.326087 91.585985 
L 362.906591 92.136359 
L 361.487094 92.67459 
L 360.067598 93.190755 
L 358.648102 93.695955 
L 357.228606 94.201292 
L 355.80911 94.717865 
L 354.389614 95.256776 
L 352.970117 95.840401 
L 351.550621 96.560543 
L 350.131125 97.360997 
L 348.711629 98.226887 
L 347.292133 99.142665 
L 345.872637 100.092787 
L 344.45314 101.061706 
L 343.033644 102.033876 
L 341.614148 102.993753 
L 340.194652 103.92579 
L 338.775156 104.814441 
L 337.35566 105.644168 
L 335.936163 106.404668 
L 334.516667 107.100099 
L 333.097171 107.737097 
L 331.677675 108.322299 
L 330.258179 108.862341 
L 328.838683 109.363858 
L 327.419186 109.833486 
L 325.99969 110.277862 
L 324.580194 110.70362 
L 323.160698 111.117398 
L 321.741202 111.525701 
L 320.321706 111.933897 
L 318.902209 112.346771 
L 317.482713 112.794376 
L 316.063217 113.241417 
L 314.643721 113.69341 
L 313.224225 114.158929 
L 311.804729 114.64859 
L 310.385232 115.189899 
L 308.965736 115.769342 
L 307.54624 116.391575 
L 306.126744 117.05574 
L 304.707248 117.753319 
L 303.287752 118.475231 
L 301.868255 119.212397 
L 300.448759 119.955736 
L 299.029263 120.696166 
L 297.609767 121.424609 
L 296.190271 122.150846 
L 294.770775 122.811857 
L 293.351278 123.447201 
L 291.931782 124.039287 
L 290.512286 124.5884 
L 289.09279 125.099876 
L 287.673294 125.579052 
L 286.253798 126.031264 
L 284.834301 126.461849 
L 283.414805 126.876144 
L 281.995309 127.279486 
L 280.575813 127.677211 
L 279.156317 128.074656 
L 277.736821 128.477037 
L 276.317324 128.903146 
L 274.897828 129.376708 
L 273.478332 129.861319 
L 272.058836 130.353432 
L 270.63934 130.8495 
L 269.219844 131.345978 
L 267.800347 131.839319 
L 266.380851 132.325976 
L 264.961355 132.802404 
L 263.541859 133.360747 
L 262.122363 133.984075 
L 260.702867 134.629799 
L 259.28337 135.290542 
L 257.863874 135.958925 
L 256.444378 136.627571 
L 255.024882 137.289102 
L 253.605386 137.936138 
L 252.18589 138.561303 
L 250.766393 139.157217 
L 249.346897 139.716504 
L 247.927401 140.23294 
L 246.507905 140.707052 
L 245.088409 141.141812 
L 243.668913 141.540192 
L 242.249416 141.905166 
L 240.82992 142.239708 
L 239.410424 142.54679 
L 237.990928 142.829388 
L 236.571432 143.090474 
L 235.151936 143.333021 
L 233.732439 143.560053 
L 232.312943 143.775693 
L 230.893447 143.985174 
L 229.473951 144.193773 
L 228.054455 144.40677 
L 226.634959 144.629442 
L 225.215462 144.867068 
L 223.795966 145.124926 
L 222.37647 145.408296 
L 220.956974 145.722456 
L 219.537478 146.072679 
L 218.117982 146.461017 
L 216.698485 146.880612 
L 215.278989 147.323085 
L 213.859493 147.780054 
L 212.439997 148.243137 
L 211.020501 148.703955 
L 209.601005 149.154125 
L 208.181508 149.585266 
L 206.762012 149.988998 
L 205.342516 150.356939 
L 203.92302 150.681504 
L 202.503524 150.962034 
L 201.084028 151.201434 
L 199.664531 151.402639 
L 198.245035 151.568587 
L 196.825539 151.702212 
L 195.406043 151.80645 
L 193.986547 151.884238 
L 192.567051 151.938509 
L 191.147554 151.972201 
L 189.728058 151.988294 
L 188.308562 151.991832 
L 186.889066 151.990719 
L 185.46957 151.993071 
L 184.050074 152.007001 
L 182.630577 152.040626 
L 181.211081 152.10206 
L 179.791585 152.199419 
L 178.372089 152.340818 
L 176.952593 152.534371 
L 175.533097 152.788195 
L 174.1136 153.107846 
L 172.694104 153.488657 
L 171.274608 153.923402 
L 169.855112 154.404853 
L 168.435616 154.925787 
L 167.01612 155.478977 
L 165.596623 156.057196 
L 164.177127 156.65322 
L 162.757631 157.259823 
L 161.338135 157.869777 
L 159.918639 158.476041 
L 158.499143 159.074034 
L 157.079646 159.660957 
L 155.66015 160.234047 
L 154.240654 160.790544 
L 152.821158 161.327685 
L 151.401662 161.842709 
L 149.982166 162.332853 
L 148.562669 162.795357 
L 147.143173 163.227459 
L 145.723677 163.626408 
L 144.304181 163.990731 
L 142.884685 164.321441 
L 141.465189 164.619837 
L 140.045692 164.887215 
L 138.626196 165.124874 
L 137.2067 165.334111 
L 135.787204 165.516225 
L 134.367708 165.672513 
L 132.948212 165.804273 
L 131.528715 165.912803 
L 130.109219 165.999892 
L 128.689723 166.070199 
L 127.270227 166.129422 
L 125.850731 166.18326 
L 124.431235 166.237412 
L 123.011738 166.297577 
L 121.592242 166.369454 
L 120.172746 166.458743 
L 118.75325 166.571141 
L 117.333754 166.712349 
L 115.914258 166.887888 
L 114.494761 167.099192 
L 113.075265 167.343609 
L 111.655769 167.618308 
L 110.236273 167.92046 
L 108.816777 168.247233 
L 107.397281 168.595797 
L 105.977784 168.963323 
L 104.558288 169.34698 
L 103.138792 169.743938 
L 101.719296 170.151365 
L 100.2998 170.565979 
L 98.880304 170.983247 
L 97.460807 171.398422 
L 96.041311 171.806756 
L 94.621815 172.203504 
L 93.202319 172.583917 
L 91.782823 172.94325 
L 90.363327 173.276755 
L 88.94383 173.579685 
L 87.524334 173.847293 
L 86.104838 174.075478 
L 84.685342 174.265753 
L 83.265846 174.422519 
L 81.84635 174.550206 
L 80.426853 174.65324 
L 79.007357 174.736049 
L 77.587861 174.80306 
L 76.168365 174.8587 
L 74.748869 174.907397 
L 73.329373 174.953579 
L 71.909876 175.001671 
L 70.49038 175.056103 
L 69.070884 175.121301 
L 67.651388 175.201692 
L 66.231892 175.301705 
L 64.812396 175.425765 
L 63.392899 175.578302 
L 61.973403 175.763741 
L 60.553907 175.986511 
L 59.134411 176.251038 
L 57.714915 176.561751 
z
" clip-path="url(#pdba4fc51fe)" style="fill: #aec7e8"/>
   </g>
   <g id="PolyCollection_3">
    <path d="M 57.714915 161.953159 
L 57.714915 176.561751 
L 59.134411 176.251038 
L 60.553907 175.986511 
L 61.973403 175.763741 
L 63.392899 175.578302 
L 64.812396 175.425765 
L 66.231892 175.301705 
L 67.651388 175.201692 
L 69.070884 175.121301 
L 70.49038 175.056103 
L 71.909876 175.001671 
L 73.329373 174.953579 
L 74.748869 174.907397 
L 76.168365 174.8587 
L 77.587861 174.80306 
L 79.007357 174.736049 
L 80.426853 174.65324 
L 81.84635 174.550206 
L 83.265846 174.422519 
L 84.685342 174.265753 
L 86.104838 174.075478 
L 87.524334 173.847293 
L 88.94383 173.579685 
L 90.363327 173.276755 
L 91.782823 172.94325 
L 93.202319 172.583917 
L 94.621815 172.203504 
L 96.041311 171.806756 
L 97.460807 171.398422 
L 98.880304 170.983247 
L 100.2998 170.565979 
L 101.719296 170.151365 
L 103.138792 169.743938 
L 104.558288 169.34698 
L 105.977784 168.963323 
L 107.397281 168.595797 
L 108.816777 168.247233 
L 110.236273 167.92046 
L 111.655769 167.618308 
L 113.075265 167.343609 
L 114.494761 167.099192 
L 115.914258 166.887888 
L 117.333754 166.712349 
L 118.75325 166.571141 
L 120.172746 166.458743 
L 121.592242 166.369454 
L 123.011738 166.297577 
L 124.431235 166.237412 
L 125.850731 166.18326 
L 127.270227 166.129422 
L 128.689723 166.070199 
L 130.109219 165.999892 
L 131.528715 165.912803 
L 132.948212 165.804273 
L 134.367708 165.672513 
L 135.787204 165.516225 
L 137.2067 165.334111 
L 138.626196 165.124874 
L 140.045692 164.887215 
L 141.465189 164.619837 
L 142.884685 164.321441 
L 144.304181 163.990731 
L 145.723677 163.626408 
L 147.143173 163.227459 
L 148.562669 162.795357 
L 149.982166 162.332853 
L 151.401662 161.842709 
L 152.821158 161.327685 
L 154.240654 160.790544 
L 155.66015 160.234047 
L 157.079646 159.660957 
L 158.499143 159.074034 
L 159.918639 158.476041 
L 161.338135 157.869777 
L 162.757631 157.259823 
L 164.177127 156.65322 
L 165.596623 156.057196 
L 167.01612 155.478977 
L 168.435616 154.925787 
L 169.855112 154.404853 
L 171.274608 153.923402 
L 172.694104 153.488657 
L 174.1136 153.107846 
L 175.533097 152.788195 
L 176.952593 152.534371 
L 178.372089 152.340818 
L 179.791585 152.199419 
L 181.211081 152.10206 
L 182.630577 152.040626 
L 184.050074 152.007001 
L 185.46957 151.993071 
L 186.889066 151.990719 
L 188.308562 151.991832 
L 189.728058 151.988294 
L 191.147554 151.972201 
L 192.567051 151.938509 
L 193.986547 151.884238 
L 195.406043 151.80645 
L 196.825539 151.702212 
L 198.245035 151.568587 
L 199.664531 151.402639 
L 201.084028 151.201434 
L 202.503524 150.962034 
L 203.92302 150.681504 
L 205.342516 150.356939 
L 206.762012 149.988998 
L 208.181508 149.585266 
L 209.601005 149.154125 
L 211.020501 148.703955 
L 212.439997 148.243137 
L 213.859493 147.780054 
L 215.278989 147.323085 
L 216.698485 146.880612 
L 218.117982 146.461017 
L 219.537478 146.072679 
L 220.956974 145.722456 
L 222.37647 145.408296 
L 223.795966 145.124926 
L 225.215462 144.867068 
L 226.634959 144.629442 
L 228.054455 144.40677 
L 229.473951 144.193773 
L 230.893447 143.985174 
L 232.312943 143.775693 
L 233.732439 143.560053 
L 235.151936 143.333021 
L 236.571432 143.090474 
L 237.990928 142.829388 
L 239.410424 142.54679 
L 240.82992 142.239708 
L 242.249416 141.905166 
L 243.668913 141.540192 
L 245.088409 141.141812 
L 246.507905 140.707052 
L 247.927401 140.23294 
L 249.346897 139.716504 
L 250.766393 139.157217 
L 252.18589 138.561303 
L 253.605386 137.936138 
L 255.024882 137.289102 
L 256.444378 136.627571 
L 257.863874 135.958925 
L 259.28337 135.290542 
L 260.702867 134.629799 
L 262.122363 133.984075 
L 263.541859 133.360747 
L 264.961355 132.802404 
L 266.380851 132.325976 
L 267.800347 131.839319 
L 269.219844 131.345978 
L 270.63934 130.8495 
L 272.058836 130.353432 
L 273.478332 129.861319 
L 274.897828 129.376708 
L 276.317324 128.903146 
L 277.736821 128.477037 
L 279.156317 128.074656 
L 280.575813 127.677211 
L 281.995309 127.279486 
L 283.414805 126.876144 
L 284.834301 126.461849 
L 286.253798 126.031264 
L 287.673294 125.579052 
L 289.09279 125.099876 
L 290.512286 124.5884 
L 291.931782 124.039287 
L 293.351278 123.447201 
L 294.770775 122.811857 
L 296.190271 122.150846 
L 297.609767 121.424609 
L 299.029263 120.696166 
L 300.448759 119.955736 
L 301.868255 119.212397 
L 303.287752 118.475231 
L 304.707248 117.753319 
L 306.126744 117.05574 
L 307.54624 116.391575 
L 308.965736 115.769342 
L 310.385232 115.189899 
L 311.804729 114.64859 
L 313.224225 114.158929 
L 314.643721 113.69341 
L 316.063217 113.241417 
L 317.482713 112.794376 
L 318.902209 112.346771 
L 320.321706 111.933897 
L 321.741202 111.525701 
L 323.160698 111.117398 
L 324.580194 110.70362 
L 325.99969 110.277862 
L 327.419186 109.833486 
L 328.838683 109.363858 
L 330.258179 108.862341 
L 331.677675 108.322299 
L 333.097171 107.737097 
L 334.516667 107.100099 
L 335.936163 106.404668 
L 337.35566 105.644168 
L 338.775156 104.814441 
L 340.194652 103.92579 
L 341.614148 102.993753 
L 343.033644 102.033876 
L 344.45314 101.061706 
L 345.872637 100.092787 
L 347.292133 99.142665 
L 348.711629 98.226887 
L 350.131125 97.360997 
L 351.550621 96.560543 
L 352.970117 95.840401 
L 354.389614 95.256776 
L 355.80911 94.717865 
L 357.228606 94.201292 
L 358.648102 93.695955 
L 360.067598 93.190755 
L 361.487094 92.67459 
L 362.906591 92.136359 
L 364.326087 91.585985 
L 365.745583 90.995682 
L 367.165079 90.337387 
L 368.584575 89.601251 
L 370.004071 88.795784 
L 371.423568 87.932639 
L 372.843064 87.030327 
L 374.26256 86.110433 
L 375.682056 85.161404 
L 377.101552 84.190253 
L 378.521048 83.203995 
L 379.940545 82.209643 
L 381.360041 81.254463 
L 382.779537 80.348111 
L 384.199033 79.475271 
L 385.618529 78.62946 
L 387.038025 77.804149 
L 388.457522 76.992808 
L 389.877018 76.188906 
L 391.296514 75.385916 
L 392.71601 74.577306 
L 394.135506 73.756546 
L 395.555002 72.917108 
L 396.974499 72.052462 
L 398.393995 71.156077 
L 399.813491 70.221424 
L 401.232987 69.241973 
L 402.652483 68.211195 
L 404.071979 67.12256 
L 405.491476 65.969537 
L 406.910972 64.745598 
L 408.330468 63.444212 
L 409.749964 62.05885 
L 411.16946 60.582983 
L 411.16946 60.466179 
L 411.16946 60.466179 
L 409.749964 61.482498 
L 408.330468 62.499166 
L 406.910972 63.515622 
L 405.491476 64.531304 
L 404.071979 65.545651 
L 402.652483 66.558102 
L 401.232987 67.568096 
L 399.813491 68.575072 
L 398.393995 69.578468 
L 396.974499 70.577724 
L 395.555002 71.572278 
L 394.135506 72.561569 
L 392.71601 73.545037 
L 391.296514 74.522119 
L 389.877018 75.492255 
L 388.457522 76.454883 
L 387.038025 77.409443 
L 385.618529 78.355374 
L 384.199033 79.292113 
L 382.779537 80.2191 
L 381.360041 81.135772 
L 379.940545 82.05578 
L 378.521048 82.978264 
L 377.101552 83.865951 
L 375.682056 84.721822 
L 374.26256 85.548858 
L 372.843064 86.350038 
L 371.423568 87.146912 
L 370.004071 87.927887 
L 368.584575 88.684448 
L 367.165079 89.414937 
L 365.745583 90.118281 
L 364.326087 90.796842 
L 362.906591 91.46579 
L 361.487094 92.140016 
L 360.067598 92.796697 
L 358.648102 93.434035 
L 357.228606 94.050234 
L 355.80911 94.643496 
L 354.389614 95.212023 
L 352.970117 95.765294 
L 351.550621 96.382764 
L 350.131125 97.008575 
L 348.711629 97.640883 
L 347.292133 98.277729 
L 345.872637 98.917154 
L 344.45314 99.557199 
L 343.033644 100.195905 
L 341.614148 100.831314 
L 340.194652 101.461467 
L 338.775156 102.084404 
L 337.35566 102.698167 
L 335.936163 103.301301 
L 334.516667 103.89374 
L 333.097171 104.475654 
L 331.677675 105.047217 
L 330.258179 105.608598 
L 328.838683 106.15997 
L 327.419186 106.701503 
L 325.99969 107.233371 
L 324.580194 107.755743 
L 323.160698 108.268792 
L 321.741202 108.77324 
L 320.321706 109.274596 
L 318.902209 109.780837 
L 317.482713 110.325232 
L 316.063217 110.875703 
L 314.643721 111.440985 
L 313.224225 112.032869 
L 311.804729 112.665186 
L 310.385232 113.36866 
L 308.965736 114.132994 
L 307.54624 114.965923 
L 306.126744 115.863391 
L 304.707248 116.804973 
L 303.287752 117.769043 
L 301.868255 118.733971 
L 300.448759 119.67813 
L 299.029263 120.579892 
L 297.609767 121.417627 
L 296.190271 122.150846 
L 294.770775 122.811857 
L 293.351278 123.330397 
L 291.931782 123.703584 
L 290.512286 123.951621 
L 289.09279 124.099898 
L 287.673294 124.173805 
L 286.253798 124.19873 
L 284.834301 124.200062 
L 283.414805 124.203192 
L 281.995309 124.233508 
L 280.575813 124.316399 
L 279.156317 124.477255 
L 277.736821 124.739955 
L 276.317324 125.1231 
L 274.897828 125.636633 
L 273.478332 126.23007 
L 272.058836 126.885782 
L 270.63934 127.586143 
L 269.219844 128.313525 
L 267.800347 129.050301 
L 266.380851 129.778844 
L 264.961355 130.481526 
L 263.541859 131.236453 
L 262.122363 132.017571 
L 260.702867 132.782724 
L 259.28337 133.526063 
L 257.863874 134.241737 
L 256.444378 134.923898 
L 255.024882 135.566694 
L 253.605386 136.164277 
L 252.18589 136.710796 
L 250.766393 137.200403 
L 249.346897 137.627246 
L 247.927401 137.987038 
L 246.507905 138.284602 
L 245.088409 138.528059 
L 243.668913 138.725536 
L 242.249416 138.885159 
L 240.82992 139.015056 
L 239.410424 139.123353 
L 237.990928 139.218175 
L 236.571432 139.307651 
L 235.151936 139.399906 
L 233.732439 139.502876 
L 232.312943 139.620122 
L 230.893447 139.750829 
L 229.473951 139.89399 
L 228.054455 140.048601 
L 226.634959 140.213655 
L 225.215462 140.388148 
L 223.795966 140.571072 
L 222.37647 140.761423 
L 220.956974 140.958195 
L 219.537478 141.160383 
L 218.117982 141.367748 
L 216.698485 141.582164 
L 215.278989 141.805867 
L 213.859493 142.041094 
L 212.439997 142.29008 
L 211.020501 142.555062 
L 209.601005 142.838277 
L 208.181508 143.141959 
L 206.762012 143.468347 
L 205.342516 143.819675 
L 203.92302 144.197344 
L 202.503524 144.595474 
L 201.084028 145.004437 
L 199.664531 145.414575 
L 198.245035 145.816227 
L 196.825539 146.199736 
L 195.406043 146.555442 
L 193.986547 146.873687 
L 192.567051 147.144811 
L 191.147554 147.359156 
L 189.728058 147.507285 
L 188.308562 147.589872 
L 186.889066 147.621612 
L 185.46957 147.618238 
L 184.050074 147.595478 
L 182.630577 147.569063 
L 181.211081 147.554723 
L 179.791585 147.56819 
L 178.372089 147.625192 
L 176.952593 147.741461 
L 175.533097 147.932727 
L 174.1136 148.209949 
L 172.694104 148.565 
L 171.274608 148.984984 
L 169.855112 149.457001 
L 168.435616 149.968155 
L 167.01612 150.505549 
L 165.596623 151.056283 
L 164.177127 151.607462 
L 162.757631 152.146186 
L 161.338135 152.659559 
L 159.918639 153.135384 
L 158.499143 153.570967 
L 157.079646 153.970471 
L 155.66015 154.338204 
L 154.240654 154.678478 
L 152.821158 154.995605 
L 151.401662 155.293893 
L 149.982166 155.577655 
L 148.562669 155.851202 
L 147.143173 156.118843 
L 145.723677 156.384882 
L 144.304181 156.652579 
L 142.884685 156.923173 
L 141.465189 157.197671 
L 140.045692 157.477079 
L 138.626196 157.762405 
L 137.2067 158.054654 
L 135.787204 158.354833 
L 134.367708 158.663949 
L 132.948212 158.983008 
L 131.528715 159.313017 
L 130.109219 159.653876 
L 128.689723 159.999029 
L 127.270227 160.339579 
L 125.850731 160.666629 
L 124.431235 160.971279 
L 123.011738 161.244631 
L 121.592242 161.477787 
L 120.172746 161.661848 
L 118.75325 161.787916 
L 117.333754 161.847092 
L 115.914258 161.831077 
L 114.494761 161.745375 
L 113.075265 161.609287 
L 111.655769 161.442715 
L 110.236273 161.265563 
L 108.816777 161.097732 
L 107.397281 160.959126 
L 105.977784 160.869646 
L 104.558288 160.849196 
L 103.138792 160.917677 
L 101.719296 161.094978 
L 100.2998 161.390117 
L 98.880304 161.782089 
L 97.460807 162.244747 
L 96.041311 162.751941 
L 94.621815 163.277525 
L 93.202319 163.795351 
L 91.782823 164.279272 
L 90.363327 164.703138 
L 88.94383 165.040804 
L 87.524334 165.266121 
L 86.104838 165.355973 
L 84.685342 165.313638 
L 83.265846 165.155981 
L 81.84635 164.89998 
L 80.426853 164.562613 
L 79.007357 164.160859 
L 77.587861 163.711696 
L 76.168365 163.232101 
L 74.748869 162.739053 
L 73.329373 162.24953 
L 71.909876 161.78051 
L 70.49038 161.348971 
L 69.070884 160.971891 
L 67.651388 160.666249 
L 66.231892 160.449022 
L 64.812396 160.337189 
L 63.392899 160.347727 
L 61.973403 160.497615 
L 60.553907 160.803831 
L 59.134411 161.283353 
L 57.714915 161.953159 
z
" clip-path="url(#pdba4fc51fe)" style="fill: #ff7f0e"/>
   </g>
   <g id="PolyCollection_4">
    <path d="M 57.714915 150.614522 
L 57.714915 161.953159 
L 59.134411 161.283353 
L 60.553907 160.803831 
L 61.973403 160.497615 
L 63.392899 160.347727 
L 64.812396 160.337189 
L 66.231892 160.449022 
L 67.651388 160.666249 
L 69.070884 160.971891 
L 70.49038 161.348971 
L 71.909876 161.78051 
L 73.329373 162.24953 
L 74.748869 162.739053 
L 76.168365 163.232101 
L 77.587861 163.711696 
L 79.007357 164.160859 
L 80.426853 164.562613 
L 81.84635 164.89998 
L 83.265846 165.155981 
L 84.685342 165.313638 
L 86.104838 165.355973 
L 87.524334 165.266121 
L 88.94383 165.040804 
L 90.363327 164.703138 
L 91.782823 164.279272 
L 93.202319 163.795351 
L 94.621815 163.277525 
L 96.041311 162.751941 
L 97.460807 162.244747 
L 98.880304 161.782089 
L 100.2998 161.390117 
L 101.719296 161.094978 
L 103.138792 160.917677 
L 104.558288 160.849196 
L 105.977784 160.869646 
L 107.397281 160.959126 
L 108.816777 161.097732 
L 110.236273 161.265563 
L 111.655769 161.442715 
L 113.075265 161.609287 
L 114.494761 161.745375 
L 115.914258 161.831077 
L 117.333754 161.847092 
L 118.75325 161.787916 
L 120.172746 161.661848 
L 121.592242 161.477787 
L 123.011738 161.244631 
L 124.431235 160.971279 
L 125.850731 160.666629 
L 127.270227 160.339579 
L 128.689723 159.999029 
L 130.109219 159.653876 
L 131.528715 159.313017 
L 132.948212 158.983008 
L 134.367708 158.663949 
L 135.787204 158.354833 
L 137.2067 158.054654 
L 138.626196 157.762405 
L 140.045692 157.477079 
L 141.465189 157.197671 
L 142.884685 156.923173 
L 144.304181 156.652579 
L 145.723677 156.384882 
L 147.143173 156.118843 
L 148.562669 155.851202 
L 149.982166 155.577655 
L 151.401662 155.293893 
L 152.821158 154.995605 
L 154.240654 154.678478 
L 155.66015 154.338204 
L 157.079646 153.970471 
L 158.499143 153.570967 
L 159.918639 153.135384 
L 161.338135 152.659559 
L 162.757631 152.146186 
L 164.177127 151.607462 
L 165.596623 151.056283 
L 167.01612 150.505549 
L 168.435616 149.968155 
L 169.855112 149.457001 
L 171.274608 148.984984 
L 172.694104 148.565 
L 174.1136 148.209949 
L 175.533097 147.932727 
L 176.952593 147.741461 
L 178.372089 147.625192 
L 179.791585 147.56819 
L 181.211081 147.554723 
L 182.630577 147.569063 
L 184.050074 147.595478 
L 185.46957 147.618238 
L 186.889066 147.621612 
L 188.308562 147.589872 
L 189.728058 147.507285 
L 191.147554 147.359156 
L 192.567051 147.144811 
L 193.986547 146.873687 
L 195.406043 146.555442 
L 196.825539 146.199736 
L 198.245035 145.816227 
L 199.664531 145.414575 
L 201.084028 145.004437 
L 202.503524 144.595474 
L 203.92302 144.197344 
L 205.342516 143.819675 
L 206.762012 143.468347 
L 208.181508 143.141959 
L 209.601005 142.838277 
L 211.020501 142.555062 
L 212.439997 142.29008 
L 213.859493 142.041094 
L 215.278989 141.805867 
L 216.698485 141.582164 
L 218.117982 141.367748 
L 219.537478 141.160383 
L 220.956974 140.958195 
L 222.37647 140.761423 
L 223.795966 140.571072 
L 225.215462 140.388148 
L 226.634959 140.213655 
L 228.054455 140.048601 
L 229.473951 139.89399 
L 230.893447 139.750829 
L 232.312943 139.620122 
L 233.732439 139.502876 
L 235.151936 139.399906 
L 236.571432 139.307651 
L 237.990928 139.218175 
L 239.410424 139.123353 
L 240.82992 139.015056 
L 242.249416 138.885159 
L 243.668913 138.725536 
L 245.088409 138.528059 
L 246.507905 138.284602 
L 247.927401 137.987038 
L 249.346897 137.627246 
L 250.766393 137.200403 
L 252.18589 136.710796 
L 253.605386 136.164277 
L 255.024882 135.566694 
L 256.444378 134.923898 
L 257.863874 134.241737 
L 259.28337 133.526063 
L 260.702867 132.782724 
L 262.122363 132.017571 
L 263.541859 131.236453 
L 264.961355 130.481526 
L 266.380851 129.778844 
L 267.800347 129.050301 
L 269.219844 128.313525 
L 270.63934 127.586143 
L 272.058836 126.885782 
L 273.478332 126.23007 
L 274.897828 125.636633 
L 276.317324 125.1231 
L 277.736821 124.739955 
L 279.156317 124.477255 
L 280.575813 124.316399 
L 281.995309 124.233508 
L 283.414805 124.203192 
L 284.834301 124.200062 
L 286.253798 124.19873 
L 287.673294 124.173805 
L 289.09279 124.099898 
L 290.512286 123.951621 
L 291.931782 123.703584 
L 293.351278 123.330397 
L 294.770775 122.811857 
L 296.190271 122.150846 
L 297.609767 121.417627 
L 299.029263 120.579892 
L 300.448759 119.67813 
L 301.868255 118.733971 
L 303.287752 117.769043 
L 304.707248 116.804973 
L 306.126744 115.863391 
L 307.54624 114.965923 
L 308.965736 114.132994 
L 310.385232 113.36866 
L 311.804729 112.665186 
L 313.224225 112.032869 
L 314.643721 111.440985 
L 316.063217 110.875703 
L 317.482713 110.325232 
L 318.902209 109.780837 
L 320.321706 109.274596 
L 321.741202 108.77324 
L 323.160698 108.268792 
L 324.580194 107.755743 
L 325.99969 107.233371 
L 327.419186 106.701503 
L 328.838683 106.15997 
L 330.258179 105.608598 
L 331.677675 105.047217 
L 333.097171 104.475654 
L 334.516667 103.89374 
L 335.936163 103.301301 
L 337.35566 102.698167 
L 338.775156 102.084404 
L 340.194652 101.461467 
L 341.614148 100.831314 
L 343.033644 100.195905 
L 344.45314 99.557199 
L 345.872637 98.917154 
L 347.292133 98.277729 
L 348.711629 97.640883 
L 350.131125 97.008575 
L 351.550621 96.382764 
L 352.970117 95.765294 
L 354.389614 95.212023 
L 355.80911 94.643496 
L 357.228606 94.050234 
L 358.648102 93.434035 
L 360.067598 92.796697 
L 361.487094 92.140016 
L 362.906591 91.46579 
L 364.326087 90.796842 
L 365.745583 90.118281 
L 367.165079 89.414937 
L 368.584575 88.684448 
L 370.004071 87.927887 
L 371.423568 87.146912 
L 372.843064 86.350038 
L 374.26256 85.548858 
L 375.682056 84.721822 
L 377.101552 83.865951 
L 378.521048 82.978264 
L 379.940545 82.05578 
L 381.360041 81.135772 
L 382.779537 80.2191 
L 384.199033 79.292113 
L 385.618529 78.355374 
L 387.038025 77.409443 
L 388.457522 76.454883 
L 389.877018 75.492255 
L 391.296514 74.522119 
L 392.71601 73.545037 
L 394.135506 72.561569 
L 395.555002 71.572278 
L 396.974499 70.577724 
L 398.393995 69.578468 
L 399.813491 68.575072 
L 401.232987 67.568096 
L 402.652483 66.558102 
L 404.071979 65.545651 
L 405.491476 64.531304 
L 406.910972 63.515622 
L 408.330468 62.499166 
L 409.749964 61.482498 
L 411.16946 60.466179 
L 411.16946 60.349375 
L 411.16946 60.349375 
L 409.749964 60.503456 
L 408.330468 60.814113 
L 406.910972 61.269761 
L 405.491476 61.858812 
L 404.071979 62.569678 
L 402.652483 63.390773 
L 401.232987 64.310508 
L 399.813491 65.317297 
L 398.393995 66.399552 
L 396.974499 67.545687 
L 395.555002 68.744113 
L 394.135506 69.983243 
L 392.71601 71.251491 
L 391.296514 72.537269 
L 389.877018 73.828989 
L 388.457522 75.115064 
L 387.038025 76.383908 
L 385.618529 77.623932 
L 384.199033 78.82355 
L 382.779537 79.971174 
L 381.360041 81.055266 
L 379.940545 82.05578 
L 378.521048 82.978264 
L 377.101552 83.865951 
L 375.682056 84.721822 
L 374.26256 85.548858 
L 372.843064 86.350038 
L 371.423568 87.109774 
L 370.004071 87.845621 
L 368.584575 88.572055 
L 367.165079 89.296695 
L 365.745583 90.025506 
L 364.326087 90.754792 
L 362.906591 91.46579 
L 361.487094 92.140016 
L 360.067598 92.796697 
L 358.648102 93.434035 
L 357.228606 94.050234 
L 355.80911 94.643496 
L 354.389614 95.212023 
L 352.970117 95.742744 
L 351.550621 96.152981 
L 350.131125 96.503981 
L 348.711629 96.811583 
L 347.292133 97.092116 
L 345.872637 97.361908 
L 344.45314 97.637288 
L 343.033644 97.934585 
L 341.614148 98.270126 
L 340.194652 98.660242 
L 338.775156 99.121259 
L 337.35566 99.669497 
L 335.936163 100.313442 
L 334.516667 101.039953 
L 333.097171 101.832179 
L 331.677675 102.673275 
L 330.258179 103.546391 
L 328.838683 104.434679 
L 327.419186 105.321293 
L 325.99969 106.189383 
L 324.580194 107.022102 
L 323.160698 107.802603 
L 321.741202 108.516316 
L 320.321706 109.168524 
L 318.902209 109.774726 
L 317.482713 110.325232 
L 316.063217 110.875703 
L 314.643721 111.440985 
L 313.224225 112.032869 
L 311.804729 112.661102 
L 310.385232 113.318542 
L 308.965736 114.039068 
L 307.54624 114.837916 
L 306.126744 115.714554 
L 304.707248 116.646571 
L 303.287752 117.609944 
L 301.868255 118.58065 
L 300.448759 119.534666 
L 299.029263 120.44797 
L 297.609767 121.296537 
L 296.190271 122.037482 
L 294.770775 122.700721 
L 293.351278 123.213593 
L 291.931782 123.571815 
L 290.512286 123.798154 
L 289.09279 123.921555 
L 287.673294 123.970963 
L 286.253798 123.975323 
L 284.834301 123.963579 
L 283.414805 123.964676 
L 281.995309 124.00756 
L 280.575813 124.121174 
L 279.156317 124.334465 
L 277.736821 124.674241 
L 276.317324 125.1231 
L 274.897828 125.636633 
L 273.478332 126.23007 
L 272.058836 126.885782 
L 270.63934 127.586143 
L 269.219844 128.313525 
L 267.800347 129.050301 
L 266.380851 129.778844 
L 264.961355 130.481526 
L 263.541859 131.045094 
L 262.122363 131.47345 
L 260.702867 131.811836 
L 259.28337 132.072087 
L 257.863874 132.266038 
L 256.444378 132.405526 
L 255.024882 132.502384 
L 253.605386 132.568449 
L 252.18589 132.615556 
L 250.766393 132.65554 
L 249.346897 132.700236 
L 247.927401 132.760516 
L 246.507905 132.841623 
L 245.088409 132.946763 
L 243.668913 133.079139 
L 242.249416 133.241955 
L 240.82992 133.438412 
L 239.410424 133.671715 
L 237.990928 133.945067 
L 236.571432 134.26167 
L 235.151936 134.624727 
L 233.732439 135.037018 
L 232.312943 135.491545 
L 230.893447 135.97154 
L 229.473951 136.459806 
L 228.054455 136.93915 
L 226.634959 137.392377 
L 225.215462 137.802291 
L 223.795966 138.151699 
L 222.37647 138.423404 
L 220.956974 138.600213 
L 219.537478 138.664946 
L 218.117982 138.611819 
L 216.698485 138.46653 
L 215.278989 138.260167 
L 213.859493 138.02382 
L 212.439997 137.788576 
L 211.020501 137.585525 
L 209.601005 137.445755 
L 208.181508 137.400355 
L 206.762012 137.480413 
L 205.342516 137.717019 
L 203.92302 138.136545 
L 202.503524 138.724311 
L 201.084028 139.444501 
L 199.664531 140.261124 
L 198.245035 141.13819 
L 196.825539 142.039708 
L 195.406043 142.929686 
L 193.986547 143.772135 
L 192.567051 144.531063 
L 191.147554 145.17048 
L 189.728058 145.654939 
L 188.308562 145.973686 
L 186.889066 146.150226 
L 185.46957 146.210588 
L 184.050074 146.180801 
L 182.630577 146.086894 
L 181.211081 145.954896 
L 179.791585 145.810835 
L 178.372089 145.68074 
L 176.952593 145.590641 
L 175.533097 145.566566 
L 174.1136 145.627282 
L 172.694104 145.76251 
L 171.274608 145.954708 
L 169.855112 146.186336 
L 168.435616 146.439851 
L 167.01612 146.697713 
L 165.596623 146.94238 
L 164.177127 147.156311 
L 162.757631 147.321964 
L 161.338135 147.421799 
L 159.918639 147.439591 
L 158.499143 147.377004 
L 157.079646 147.248592 
L 155.66015 147.069196 
L 154.240654 146.853655 
L 152.821158 146.616808 
L 151.401662 146.373494 
L 149.982166 146.138553 
L 148.562669 145.926824 
L 147.143173 145.753146 
L 145.723677 145.632313 
L 144.304181 145.573502 
L 142.884685 145.574983 
L 141.465189 145.633773 
L 140.045692 145.746891 
L 138.626196 145.911352 
L 137.2067 146.124176 
L 135.787204 146.382379 
L 134.367708 146.682979 
L 132.948212 147.022992 
L 131.528715 147.399437 
L 130.109219 147.808408 
L 128.689723 148.240614 
L 127.270227 148.684811 
L 125.850731 149.129755 
L 124.431235 149.5642 
L 123.011738 149.976903 
L 121.592242 150.356617 
L 120.172746 150.692099 
L 118.75325 150.972103 
L 117.333754 151.185384 
L 115.914258 151.321254 
L 114.494761 151.381857 
L 113.075265 151.382164 
L 111.655769 151.337705 
L 110.236273 151.264009 
L 108.816777 151.176605 
L 107.397281 151.091023 
L 105.977784 151.022793 
L 104.558288 150.987443 
L 103.138792 151.000505 
L 101.719296 151.077496 
L 100.2998 151.226874 
L 98.880304 151.437578 
L 97.460807 151.695206 
L 96.041311 151.985355 
L 94.621815 152.293623 
L 93.202319 152.605609 
L 91.782823 152.90691 
L 90.363327 153.183123 
L 88.94383 153.419847 
L 87.524334 153.602679 
L 86.104838 153.718688 
L 84.685342 153.767734 
L 83.265846 153.756264 
L 81.84635 153.690782 
L 80.426853 153.577789 
L 79.007357 153.423789 
L 77.587861 153.235284 
L 76.168365 153.018776 
L 74.748869 152.780767 
L 73.329373 152.527761 
L 71.909876 152.266259 
L 70.49038 152.002764 
L 69.070884 151.743778 
L 67.651388 151.495804 
L 66.231892 151.265344 
L 64.812396 151.058901 
L 63.392899 150.882977 
L 61.973403 150.744075 
L 60.553907 150.648697 
L 59.134411 150.603345 
L 57.714915 150.614522 
z
" clip-path="url(#pdba4fc51fe)" style="fill: #ffbb78"/>
   </g>
   <g id="matplotlib.axis_1">
    <g id="xtick_1">
     <g id="line2d_1">
      <defs>
       <path id="mddfb6e40d3" d="M 0 0 
L 0 3.5 
" style="stroke: #000000; stroke-width: 0.8"/>
      </defs>
      <g>
       <use xlink:href="#mddfb6e40d3" x="57.714915" y="314.449375" style="stroke: #000000; stroke-width: 0.8"/>
      </g>
     </g>
     <g id="text_1">
      <!-- 1976 -->
      <g transform="translate(42.060234 340.501483) rotate(-45) scale(0.1 -0.1)">
       <defs>
        <path id="TimesNewRomanPSMT-31" d="M 750 3822 
L 1781 4325 
L 1884 4325 
L 1884 747 
Q 1884 391 1914 303 
Q 1944 216 2037 169 
Q 2131 122 2419 116 
L 2419 0 
L 825 0 
L 825 116 
Q 1125 122 1212 167 
Q 1300 213 1334 289 
Q 1369 366 1369 747 
L 1369 3034 
Q 1369 3497 1338 3628 
Q 1316 3728 1258 3775 
Q 1200 3822 1119 3822 
Q 1003 3822 797 3725 
L 750 3822 
z
" transform="scale(0.015625)"/>
        <path id="TimesNewRomanPSMT-39" d="M 338 -88 
L 338 28 
Q 744 34 1094 217 
Q 1444 400 1770 856 
Q 2097 1313 2225 1859 
Q 1734 1544 1338 1544 
Q 891 1544 572 1889 
Q 253 2234 253 2806 
Q 253 3363 572 3797 
Q 956 4325 1575 4325 
Q 2097 4325 2469 3894 
Q 2925 3359 2925 2575 
Q 2925 1869 2578 1258 
Q 2231 647 1613 244 
Q 1109 -88 516 -88 
L 338 -88 
z
M 2275 2091 
Q 2331 2497 2331 2741 
Q 2331 3044 2228 3395 
Q 2125 3747 1936 3934 
Q 1747 4122 1506 4122 
Q 1228 4122 1018 3872 
Q 809 3622 809 3128 
Q 809 2469 1088 2097 
Q 1291 1828 1588 1828 
Q 1731 1828 1928 1897 
Q 2125 1966 2275 2091 
z
" transform="scale(0.015625)"/>
        <path id="TimesNewRomanPSMT-37" d="M 644 4238 
L 2916 4238 
L 2916 4119 
L 1503 -88 
L 1153 -88 
L 2419 3728 
L 1253 3728 
Q 900 3728 750 3644 
Q 488 3500 328 3200 
L 238 3234 
L 644 4238 
z
" transform="scale(0.015625)"/>
        <path id="TimesNewRomanPSMT-36" d="M 2869 4325 
L 2869 4209 
Q 2456 4169 2195 4045 
Q 1934 3922 1679 3669 
Q 1425 3416 1258 3105 
Q 1091 2794 978 2366 
Q 1428 2675 1881 2675 
Q 2316 2675 2634 2325 
Q 2953 1975 2953 1425 
Q 2953 894 2631 456 
Q 2244 -75 1606 -75 
Q 1172 -75 869 213 
Q 275 772 275 1663 
Q 275 2231 503 2743 
Q 731 3256 1154 3653 
Q 1578 4050 1965 4187 
Q 2353 4325 2688 4325 
L 2869 4325 
z
M 925 2138 
Q 869 1716 869 1456 
Q 869 1156 980 804 
Q 1091 453 1309 247 
Q 1469 100 1697 100 
Q 1969 100 2183 356 
Q 2397 613 2397 1088 
Q 2397 1622 2184 2012 
Q 1972 2403 1581 2403 
Q 1463 2403 1327 2353 
Q 1191 2303 925 2138 
z
" transform="scale(0.015625)"/>
       </defs>
       <use xlink:href="#TimesNewRomanPSMT-31"/>
       <use xlink:href="#TimesNewRomanPSMT-39" x="50"/>
       <use xlink:href="#TimesNewRomanPSMT-37" x="100"/>
       <use xlink:href="#TimesNewRomanPSMT-36" x="150"/>
      </g>
     </g>
    </g>
    <g id="xtick_2">
     <g id="line2d_2">
      <g>
       <use xlink:href="#mddfb6e40d3" x="87.16946" y="314.449375" style="stroke: #000000; stroke-width: 0.8"/>
      </g>
     </g>
     <g id="text_2">
      <!-- 1978 -->
      <g transform="translate(71.514779 340.501483) rotate(-45) scale(0.1 -0.1)">
       <defs>
        <path id="TimesNewRomanPSMT-38" d="M 1228 2134 
Q 725 2547 579 2797 
Q 434 3047 434 3316 
Q 434 3728 753 4026 
Q 1072 4325 1600 4325 
Q 2113 4325 2425 4047 
Q 2738 3769 2738 3413 
Q 2738 3175 2569 2928 
Q 2400 2681 1866 2347 
Q 2416 1922 2594 1678 
Q 2831 1359 2831 1006 
Q 2831 559 2490 242 
Q 2150 -75 1597 -75 
Q 994 -75 656 303 
Q 388 606 388 966 
Q 388 1247 577 1523 
Q 766 1800 1228 2134 
z
M 1719 2469 
Q 2094 2806 2194 3001 
Q 2294 3197 2294 3444 
Q 2294 3772 2109 3958 
Q 1925 4144 1606 4144 
Q 1288 4144 1088 3959 
Q 888 3775 888 3528 
Q 888 3366 970 3203 
Q 1053 3041 1206 2894 
L 1719 2469 
z
M 1375 2016 
Q 1116 1797 991 1539 
Q 866 1281 866 981 
Q 866 578 1086 336 
Q 1306 94 1647 94 
Q 1984 94 2187 284 
Q 2391 475 2391 747 
Q 2391 972 2272 1150 
Q 2050 1481 1375 2016 
z
" transform="scale(0.015625)"/>
       </defs>
       <use xlink:href="#TimesNewRomanPSMT-31"/>
       <use xlink:href="#TimesNewRomanPSMT-39" x="50"/>
       <use xlink:href="#TimesNewRomanPSMT-37" x="100"/>
       <use xlink:href="#TimesNewRomanPSMT-38" x="150"/>
      </g>
     </g>
    </g>
    <g id="xtick_3">
     <g id="line2d_3">
      <g>
       <use xlink:href="#mddfb6e40d3" x="116.624006" y="314.449375" style="stroke: #000000; stroke-width: 0.8"/>
      </g>
     </g>
     <g id="text_3">
      <!-- 1980 -->
      <g transform="translate(100.969324 340.501483) rotate(-45) scale(0.1 -0.1)">
       <defs>
        <path id="TimesNewRomanPSMT-30" d="M 231 2094 
Q 231 2819 450 3342 
Q 669 3866 1031 4122 
Q 1313 4325 1613 4325 
Q 2100 4325 2488 3828 
Q 2972 3213 2972 2159 
Q 2972 1422 2759 906 
Q 2547 391 2217 158 
Q 1888 -75 1581 -75 
Q 975 -75 572 641 
Q 231 1244 231 2094 
z
M 844 2016 
Q 844 1141 1059 588 
Q 1238 122 1591 122 
Q 1759 122 1940 273 
Q 2122 425 2216 781 
Q 2359 1319 2359 2297 
Q 2359 3022 2209 3506 
Q 2097 3866 1919 4016 
Q 1791 4119 1609 4119 
Q 1397 4119 1231 3928 
Q 1006 3669 925 3112 
Q 844 2556 844 2016 
z
" transform="scale(0.015625)"/>
       </defs>
       <use xlink:href="#TimesNewRomanPSMT-31"/>
       <use xlink:href="#TimesNewRomanPSMT-39" x="50"/>
       <use xlink:href="#TimesNewRomanPSMT-38" x="100"/>
       <use xlink:href="#TimesNewRomanPSMT-30" x="150"/>
      </g>
     </g>
    </g>
    <g id="xtick_4">
     <g id="line2d_4">
      <g>
       <use xlink:href="#mddfb6e40d3" x="146.078551" y="314.449375" style="stroke: #000000; stroke-width: 0.8"/>
      </g>
     </g>
     <g id="text_4">
      <!-- 1982 -->
      <g transform="translate(130.42387 340.501483) rotate(-45) scale(0.1 -0.1)">
       <defs>
        <path id="TimesNewRomanPSMT-32" d="M 2934 816 
L 2638 0 
L 138 0 
L 138 116 
Q 1241 1122 1691 1759 
Q 2141 2397 2141 2925 
Q 2141 3328 1894 3587 
Q 1647 3847 1303 3847 
Q 991 3847 742 3664 
Q 494 3481 375 3128 
L 259 3128 
Q 338 3706 661 4015 
Q 984 4325 1469 4325 
Q 1984 4325 2329 3994 
Q 2675 3663 2675 3213 
Q 2675 2891 2525 2569 
Q 2294 2063 1775 1497 
Q 997 647 803 472 
L 1909 472 
Q 2247 472 2383 497 
Q 2519 522 2628 598 
Q 2738 675 2819 816 
L 2934 816 
z
" transform="scale(0.015625)"/>
       </defs>
       <use xlink:href="#TimesNewRomanPSMT-31"/>
       <use xlink:href="#TimesNewRomanPSMT-39" x="50"/>
       <use xlink:href="#TimesNewRomanPSMT-38" x="100"/>
       <use xlink:href="#TimesNewRomanPSMT-32" x="150"/>
      </g>
     </g>
    </g>
    <g id="xtick_5">
     <g id="line2d_5">
      <g>
       <use xlink:href="#mddfb6e40d3" x="175.533097" y="314.449375" style="stroke: #000000; stroke-width: 0.8"/>
      </g>
     </g>
     <g id="text_5">
      <!-- 1984 -->
      <g transform="translate(159.878415 340.501483) rotate(-45) scale(0.1 -0.1)">
       <defs>
        <path id="TimesNewRomanPSMT-34" d="M 2978 1563 
L 2978 1119 
L 2409 1119 
L 2409 0 
L 1894 0 
L 1894 1119 
L 100 1119 
L 100 1519 
L 2066 4325 
L 2409 4325 
L 2409 1563 
L 2978 1563 
z
M 1894 1563 
L 1894 3666 
L 406 1563 
L 1894 1563 
z
" transform="scale(0.015625)"/>
       </defs>
       <use xlink:href="#TimesNewRomanPSMT-31"/>
       <use xlink:href="#TimesNewRomanPSMT-39" x="50"/>
       <use xlink:href="#TimesNewRomanPSMT-38" x="100"/>
       <use xlink:href="#TimesNewRomanPSMT-34" x="150"/>
      </g>
     </g>
    </g>
    <g id="xtick_6">
     <g id="line2d_6">
      <g>
       <use xlink:href="#mddfb6e40d3" x="204.987642" y="314.449375" style="stroke: #000000; stroke-width: 0.8"/>
      </g>
     </g>
     <g id="text_6">
      <!-- 1986 -->
      <g transform="translate(189.332961 340.501483) rotate(-45) scale(0.1 -0.1)">
       <use xlink:href="#TimesNewRomanPSMT-31"/>
       <use xlink:href="#TimesNewRomanPSMT-39" x="50"/>
       <use xlink:href="#TimesNewRomanPSMT-38" x="100"/>
       <use xlink:href="#TimesNewRomanPSMT-36" x="150"/>
      </g>
     </g>
    </g>
    <g id="xtick_7">
     <g id="line2d_7">
      <g>
       <use xlink:href="#mddfb6e40d3" x="234.442188" y="314.449375" style="stroke: #000000; stroke-width: 0.8"/>
      </g>
     </g>
     <g id="text_7">
      <!-- 1988 -->
      <g transform="translate(218.787506 340.501483) rotate(-45) scale(0.1 -0.1)">
       <use xlink:href="#TimesNewRomanPSMT-31"/>
       <use xlink:href="#TimesNewRomanPSMT-39" x="50"/>
       <use xlink:href="#TimesNewRomanPSMT-38" x="100"/>
       <use xlink:href="#TimesNewRomanPSMT-38" x="150"/>
      </g>
     </g>
    </g>
    <g id="xtick_8">
     <g id="line2d_8">
      <g>
       <use xlink:href="#mddfb6e40d3" x="263.896733" y="314.449375" style="stroke: #000000; stroke-width: 0.8"/>
      </g>
     </g>
     <g id="text_8">
      <!-- 1990 -->
      <g transform="translate(248.242052 340.501483) rotate(-45) scale(0.1 -0.1)">
       <use xlink:href="#TimesNewRomanPSMT-31"/>
       <use xlink:href="#TimesNewRomanPSMT-39" x="50"/>
       <use xlink:href="#TimesNewRomanPSMT-39" x="100"/>
       <use xlink:href="#TimesNewRomanPSMT-30" x="150"/>
      </g>
     </g>
    </g>
    <g id="xtick_9">
     <g id="line2d_9">
      <g>
       <use xlink:href="#mddfb6e40d3" x="293.351278" y="314.449375" style="stroke: #000000; stroke-width: 0.8"/>
      </g>
     </g>
     <g id="text_9">
      <!-- 1992 -->
      <g transform="translate(277.696597 340.501483) rotate(-45) scale(0.1 -0.1)">
       <use xlink:href="#TimesNewRomanPSMT-31"/>
       <use xlink:href="#TimesNewRomanPSMT-39" x="50"/>
       <use xlink:href="#TimesNewRomanPSMT-39" x="100"/>
       <use xlink:href="#TimesNewRomanPSMT-32" x="150"/>
      </g>
     </g>
    </g>
    <g id="xtick_10">
     <g id="line2d_10">
      <g>
       <use xlink:href="#mddfb6e40d3" x="322.805824" y="314.449375" style="stroke: #000000; stroke-width: 0.8"/>
      </g>
     </g>
     <g id="text_10">
      <!-- 1994 -->
      <g transform="translate(307.151143 340.501483) rotate(-45) scale(0.1 -0.1)">
       <use xlink:href="#TimesNewRomanPSMT-31"/>
       <use xlink:href="#TimesNewRomanPSMT-39" x="50"/>
       <use xlink:href="#TimesNewRomanPSMT-39" x="100"/>
       <use xlink:href="#TimesNewRomanPSMT-34" x="150"/>
      </g>
     </g>
    </g>
    <g id="xtick_11">
     <g id="line2d_11">
      <g>
       <use xlink:href="#mddfb6e40d3" x="352.260369" y="314.449375" style="stroke: #000000; stroke-width: 0.8"/>
      </g>
     </g>
     <g id="text_11">
      <!-- 1996 -->
      <g transform="translate(336.605688 340.501483) rotate(-45) scale(0.1 -0.1)">
       <use xlink:href="#TimesNewRomanPSMT-31"/>
       <use xlink:href="#TimesNewRomanPSMT-39" x="50"/>
       <use xlink:href="#TimesNewRomanPSMT-39" x="100"/>
       <use xlink:href="#TimesNewRomanPSMT-36" x="150"/>
      </g>
     </g>
    </g>
    <g id="xtick_12">
     <g id="line2d_12">
      <g>
       <use xlink:href="#mddfb6e40d3" x="381.714915" y="314.449375" style="stroke: #000000; stroke-width: 0.8"/>
      </g>
     </g>
     <g id="text_12">
      <!-- 1998 -->
      <g transform="translate(366.060234 340.501483) rotate(-45) scale(0.1 -0.1)">
       <use xlink:href="#TimesNewRomanPSMT-31"/>
       <use xlink:href="#TimesNewRomanPSMT-39" x="50"/>
       <use xlink:href="#TimesNewRomanPSMT-39" x="100"/>
       <use xlink:href="#TimesNewRomanPSMT-38" x="150"/>
      </g>
     </g>
    </g>
    <g id="xtick_13">
     <g id="line2d_13">
      <g>
       <use xlink:href="#mddfb6e40d3" x="411.16946" y="314.449375" style="stroke: #000000; stroke-width: 0.8"/>
      </g>
     </g>
     <g id="text_13">
      <!-- 2000 -->
      <g transform="translate(395.514779 340.501483) rotate(-45) scale(0.1 -0.1)">
       <use xlink:href="#TimesNewRomanPSMT-32"/>
       <use xlink:href="#TimesNewRomanPSMT-30" x="50"/>
       <use xlink:href="#TimesNewRomanPSMT-30" x="100"/>
       <use xlink:href="#TimesNewRomanPSMT-30" x="150"/>
      </g>
     </g>
    </g>
    <g id="text_14">
     <!-- Year -->
     <g transform="translate(223.384375 354.346529) scale(0.12 -0.12)">
      <defs>
       <path id="TimesNewRomanPSMT-59" d="M 3050 4238 
L 4528 4238 
L 4528 4122 
L 4447 4122 
Q 4366 4122 4209 4050 
Q 4053 3978 3925 3843 
Q 3797 3709 3609 3406 
L 2588 1797 
L 2588 734 
Q 2588 344 2675 247 
Q 2794 116 3050 116 
L 3188 116 
L 3188 0 
L 1388 0 
L 1388 116 
L 1538 116 
Q 1806 116 1919 278 
Q 1988 378 1988 734 
L 1988 1738 
L 825 3513 
Q 619 3825 545 3903 
Q 472 3981 241 4091 
Q 178 4122 59 4122 
L 59 4238 
L 1872 4238 
L 1872 4122 
L 1778 4122 
Q 1631 4122 1507 4053 
Q 1384 3984 1384 3847 
Q 1384 3734 1575 3441 
L 2459 2075 
L 3291 3381 
Q 3478 3675 3478 3819 
Q 3478 3906 3433 3975 
Q 3388 4044 3303 4083 
Q 3219 4122 3050 4122 
L 3050 4238 
z
" transform="scale(0.015625)"/>
       <path id="TimesNewRomanPSMT-65" d="M 681 1784 
Q 678 1147 991 784 
Q 1303 422 1725 422 
Q 2006 422 2214 576 
Q 2422 731 2563 1106 
L 2659 1044 
Q 2594 616 2278 264 
Q 1963 -88 1488 -88 
Q 972 -88 605 314 
Q 238 716 238 1394 
Q 238 2128 614 2539 
Q 991 2950 1559 2950 
Q 2041 2950 2350 2633 
Q 2659 2316 2659 1784 
L 681 1784 
z
M 681 1966 
L 2006 1966 
Q 1991 2241 1941 2353 
Q 1863 2528 1708 2628 
Q 1553 2728 1384 2728 
Q 1125 2728 920 2526 
Q 716 2325 681 1966 
z
" transform="scale(0.015625)"/>
       <path id="TimesNewRomanPSMT-61" d="M 1822 413 
Q 1381 72 1269 19 
Q 1100 -59 909 -59 
Q 613 -59 420 144 
Q 228 347 228 678 
Q 228 888 322 1041 
Q 450 1253 767 1440 
Q 1084 1628 1822 1897 
L 1822 2009 
Q 1822 2438 1686 2597 
Q 1550 2756 1291 2756 
Q 1094 2756 978 2650 
Q 859 2544 859 2406 
L 866 2225 
Q 866 2081 792 2003 
Q 719 1925 600 1925 
Q 484 1925 411 2006 
Q 338 2088 338 2228 
Q 338 2497 613 2722 
Q 888 2947 1384 2947 
Q 1766 2947 2009 2819 
Q 2194 2722 2281 2516 
Q 2338 2381 2338 1966 
L 2338 994 
Q 2338 584 2353 492 
Q 2369 400 2405 369 
Q 2441 338 2488 338 
Q 2538 338 2575 359 
Q 2641 400 2828 588 
L 2828 413 
Q 2478 -56 2159 -56 
Q 2006 -56 1915 50 
Q 1825 156 1822 413 
z
M 1822 616 
L 1822 1706 
Q 1350 1519 1213 1441 
Q 966 1303 859 1153 
Q 753 1003 753 825 
Q 753 600 887 451 
Q 1022 303 1197 303 
Q 1434 303 1822 616 
z
" transform="scale(0.015625)"/>
       <path id="TimesNewRomanPSMT-72" d="M 1038 2947 
L 1038 2303 
Q 1397 2947 1775 2947 
Q 1947 2947 2059 2842 
Q 2172 2738 2172 2600 
Q 2172 2478 2090 2393 
Q 2009 2309 1897 2309 
Q 1788 2309 1652 2417 
Q 1516 2525 1450 2525 
Q 1394 2525 1328 2463 
Q 1188 2334 1038 2041 
L 1038 669 
Q 1038 431 1097 309 
Q 1138 225 1241 169 
Q 1344 113 1538 113 
L 1538 0 
L 72 0 
L 72 113 
Q 291 113 397 181 
Q 475 231 506 341 
Q 522 394 522 644 
L 522 1753 
Q 522 2253 501 2348 
Q 481 2444 426 2487 
Q 372 2531 291 2531 
Q 194 2531 72 2484 
L 41 2597 
L 906 2947 
L 1038 2947 
z
" transform="scale(0.015625)"/>
      </defs>
      <use xlink:href="#TimesNewRomanPSMT-59"/>
      <use xlink:href="#TimesNewRomanPSMT-65" x="62.216797"/>
      <use xlink:href="#TimesNewRomanPSMT-61" x="106.601562"/>
      <use xlink:href="#TimesNewRomanPSMT-72" x="150.986328"/>
     </g>
    </g>
   </g>
   <g id="matplotlib.axis_2">
    <g id="ytick_1">
     <g id="line2d_14">
      <defs>
       <path id="m2cd601e1dd" d="M 0 0 
L -3.5 0 
" style="stroke: #000000; stroke-width: 0.8"/>
      </defs>
      <g>
       <use xlink:href="#m2cd601e1dd" x="40.042188" y="269.292378" style="stroke: #000000; stroke-width: 0.8"/>
      </g>
     </g>
     <g id="text_15">
      <!-- 4 -->
      <g transform="translate(22.403125 272.764253) scale(0.1 -0.1)">
       <defs>
        <path id="TimesNewRomanPSMT-2212" d="M 3484 2000 
L 116 2000 
L 116 2256 
L 3484 2256 
L 3484 2000 
z
" transform="scale(0.015625)"/>
       </defs>
       <use xlink:href="#TimesNewRomanPSMT-2212"/>
       <use xlink:href="#TimesNewRomanPSMT-34" x="56.396484"/>
      </g>
     </g>
    </g>
    <g id="ytick_2">
     <g id="line2d_15">
      <g>
       <use xlink:href="#m2cd601e1dd" x="40.042188" y="222.570877" style="stroke: #000000; stroke-width: 0.8"/>
      </g>
     </g>
     <g id="text_16">
      <!-- 2 -->
      <g transform="translate(22.403125 226.042752) scale(0.1 -0.1)">
       <use xlink:href="#TimesNewRomanPSMT-2212"/>
       <use xlink:href="#TimesNewRomanPSMT-32" x="56.396484"/>
      </g>
     </g>
    </g>
    <g id="ytick_3">
     <g id="line2d_16">
      <g>
       <use xlink:href="#m2cd601e1dd" x="40.042188" y="175.849375" style="stroke: #000000; stroke-width: 0.8"/>
      </g>
     </g>
     <g id="text_17">
      <!-- 0 -->
      <g transform="translate(28.042188 179.32125) scale(0.1 -0.1)">
       <use xlink:href="#TimesNewRomanPSMT-30"/>
      </g>
     </g>
    </g>
    <g id="ytick_4">
     <g id="line2d_17">
      <g>
       <use xlink:href="#m2cd601e1dd" x="40.042188" y="129.127873" style="stroke: #000000; stroke-width: 0.8"/>
      </g>
     </g>
     <g id="text_18">
      <!-- 2 -->
      <g transform="translate(28.042188 132.599748) scale(0.1 -0.1)">
       <use xlink:href="#TimesNewRomanPSMT-32"/>
      </g>
     </g>
    </g>
    <g id="ytick_5">
     <g id="line2d_18">
      <g>
       <use xlink:href="#m2cd601e1dd" x="40.042188" y="82.406372" style="stroke: #000000; stroke-width: 0.8"/>
      </g>
     </g>
     <g id="text_19">
      <!-- 4 -->
      <g transform="translate(28.042188 85.878247) scale(0.1 -0.1)">
       <use xlink:href="#TimesNewRomanPSMT-34"/>
      </g>
     </g>
    </g>
    <g id="text_20">
     <!-- Operating Expenses ($) -->
     <g transform="translate(15.81375 232.49875) rotate(-90) scale(0.12 -0.12)">
      <defs>
       <path id="TimesNewRomanPSMT-4f" d="M 2341 4334 
Q 3166 4334 3770 3707 
Q 4375 3081 4375 2144 
Q 4375 1178 3765 540 
Q 3156 -97 2291 -97 
Q 1416 -97 820 525 
Q 225 1147 225 2134 
Q 225 3144 913 3781 
Q 1509 4334 2341 4334 
z
M 2281 4106 
Q 1713 4106 1369 3684 
Q 941 3159 941 2147 
Q 941 1109 1384 550 
Q 1725 125 2284 125 
Q 2881 125 3270 590 
Q 3659 1056 3659 2059 
Q 3659 3147 3231 3681 
Q 2888 4106 2281 4106 
z
" transform="scale(0.015625)"/>
       <path id="TimesNewRomanPSMT-70" d="M -6 2578 
L 875 2934 
L 994 2934 
L 994 2266 
Q 1216 2644 1439 2795 
Q 1663 2947 1909 2947 
Q 2341 2947 2628 2609 
Q 2981 2197 2981 1534 
Q 2981 794 2556 309 
Q 2206 -88 1675 -88 
Q 1444 -88 1275 -22 
Q 1150 25 994 166 
L 994 -706 
Q 994 -1000 1030 -1079 
Q 1066 -1159 1155 -1206 
Q 1244 -1253 1478 -1253 
L 1478 -1369 
L -22 -1369 
L -22 -1253 
L 56 -1253 
Q 228 -1256 350 -1188 
Q 409 -1153 442 -1076 
Q 475 -1000 475 -688 
L 475 2019 
Q 475 2297 450 2372 
Q 425 2447 370 2484 
Q 316 2522 222 2522 
Q 147 2522 31 2478 
L -6 2578 
z
M 994 2081 
L 994 1013 
Q 994 666 1022 556 
Q 1066 375 1236 237 
Q 1406 100 1666 100 
Q 1978 100 2172 344 
Q 2425 663 2425 1241 
Q 2425 1897 2138 2250 
Q 1938 2494 1663 2494 
Q 1513 2494 1366 2419 
Q 1253 2363 994 2081 
z
" transform="scale(0.015625)"/>
       <path id="TimesNewRomanPSMT-74" d="M 1031 3803 
L 1031 2863 
L 1700 2863 
L 1700 2644 
L 1031 2644 
L 1031 788 
Q 1031 509 1111 412 
Q 1191 316 1316 316 
Q 1419 316 1516 380 
Q 1613 444 1666 569 
L 1788 569 
Q 1678 263 1478 108 
Q 1278 -47 1066 -47 
Q 922 -47 784 33 
Q 647 113 581 261 
Q 516 409 516 719 
L 516 2644 
L 63 2644 
L 63 2747 
Q 234 2816 414 2980 
Q 594 3144 734 3369 
Q 806 3488 934 3803 
L 1031 3803 
z
" transform="scale(0.015625)"/>
       <path id="TimesNewRomanPSMT-69" d="M 928 4444 
Q 1059 4444 1151 4351 
Q 1244 4259 1244 4128 
Q 1244 3997 1151 3903 
Q 1059 3809 928 3809 
Q 797 3809 703 3903 
Q 609 3997 609 4128 
Q 609 4259 701 4351 
Q 794 4444 928 4444 
z
M 1188 2947 
L 1188 647 
Q 1188 378 1227 289 
Q 1266 200 1342 156 
Q 1419 113 1622 113 
L 1622 0 
L 231 0 
L 231 113 
Q 441 113 512 153 
Q 584 194 626 287 
Q 669 381 669 647 
L 669 1750 
Q 669 2216 641 2353 
Q 619 2453 572 2492 
Q 525 2531 444 2531 
Q 356 2531 231 2484 
L 188 2597 
L 1050 2947 
L 1188 2947 
z
" transform="scale(0.015625)"/>
       <path id="TimesNewRomanPSMT-6e" d="M 1034 2341 
Q 1538 2947 1994 2947 
Q 2228 2947 2397 2830 
Q 2566 2713 2666 2444 
Q 2734 2256 2734 1869 
L 2734 647 
Q 2734 375 2778 278 
Q 2813 200 2889 156 
Q 2966 113 3172 113 
L 3172 0 
L 1756 0 
L 1756 113 
L 1816 113 
Q 2016 113 2095 173 
Q 2175 234 2206 353 
Q 2219 400 2219 647 
L 2219 1819 
Q 2219 2209 2117 2386 
Q 2016 2563 1775 2563 
Q 1403 2563 1034 2156 
L 1034 647 
Q 1034 356 1069 288 
Q 1113 197 1189 155 
Q 1266 113 1500 113 
L 1500 0 
L 84 0 
L 84 113 
L 147 113 
Q 366 113 442 223 
Q 519 334 519 647 
L 519 1709 
Q 519 2225 495 2337 
Q 472 2450 423 2490 
Q 375 2531 294 2531 
Q 206 2531 84 2484 
L 38 2597 
L 900 2947 
L 1034 2947 
L 1034 2341 
z
" transform="scale(0.015625)"/>
       <path id="TimesNewRomanPSMT-67" d="M 966 1044 
Q 703 1172 562 1401 
Q 422 1631 422 1909 
Q 422 2334 742 2640 
Q 1063 2947 1563 2947 
Q 1972 2947 2272 2747 
L 2878 2747 
Q 3013 2747 3034 2739 
Q 3056 2731 3066 2713 
Q 3084 2684 3084 2613 
Q 3084 2531 3069 2500 
Q 3059 2484 3036 2475 
Q 3013 2466 2878 2466 
L 2506 2466 
Q 2681 2241 2681 1891 
Q 2681 1491 2375 1206 
Q 2069 922 1553 922 
Q 1341 922 1119 984 
Q 981 866 932 777 
Q 884 688 884 625 
Q 884 572 936 522 
Q 988 472 1138 450 
Q 1225 438 1575 428 
Q 2219 413 2409 384 
Q 2700 344 2873 169 
Q 3047 -6 3047 -263 
Q 3047 -616 2716 -925 
Q 2228 -1381 1444 -1381 
Q 841 -1381 425 -1109 
Q 191 -953 191 -784 
Q 191 -709 225 -634 
Q 278 -519 444 -313 
Q 466 -284 763 25 
Q 600 122 533 198 
Q 466 275 466 372 
Q 466 481 555 628 
Q 644 775 966 1044 
z
M 1509 2797 
Q 1278 2797 1122 2612 
Q 966 2428 966 2047 
Q 966 1553 1178 1281 
Q 1341 1075 1591 1075 
Q 1828 1075 1981 1253 
Q 2134 1431 2134 1813 
Q 2134 2309 1919 2591 
Q 1759 2797 1509 2797 
z
M 934 0 
Q 788 -159 713 -296 
Q 638 -434 638 -550 
Q 638 -700 819 -813 
Q 1131 -1006 1722 -1006 
Q 2284 -1006 2551 -807 
Q 2819 -609 2819 -384 
Q 2819 -222 2659 -153 
Q 2497 -84 2016 -72 
Q 1313 -53 934 0 
z
" transform="scale(0.015625)"/>
       <path id="TimesNewRomanPSMT-20" transform="scale(0.015625)"/>
       <path id="TimesNewRomanPSMT-45" d="M 1338 4006 
L 1338 2331 
L 2269 2331 
Q 2631 2331 2753 2441 
Q 2916 2584 2934 2947 
L 3050 2947 
L 3050 1472 
L 2934 1472 
Q 2891 1781 2847 1869 
Q 2791 1978 2662 2040 
Q 2534 2103 2269 2103 
L 1338 2103 
L 1338 706 
Q 1338 425 1363 364 
Q 1388 303 1450 267 
Q 1513 231 1688 231 
L 2406 231 
Q 2766 231 2928 281 
Q 3091 331 3241 478 
Q 3434 672 3638 1063 
L 3763 1063 
L 3397 0 
L 131 0 
L 131 116 
L 281 116 
Q 431 116 566 188 
Q 666 238 702 338 
Q 738 438 738 747 
L 738 3500 
Q 738 3903 656 3997 
Q 544 4122 281 4122 
L 131 4122 
L 131 4238 
L 3397 4238 
L 3444 3309 
L 3322 3309 
Q 3256 3644 3176 3769 
Q 3097 3894 2941 3959 
Q 2816 4006 2500 4006 
L 1338 4006 
z
" transform="scale(0.015625)"/>
       <path id="TimesNewRomanPSMT-78" d="M 84 2863 
L 1431 2863 
L 1431 2747 
Q 1303 2747 1251 2703 
Q 1200 2659 1200 2588 
Q 1200 2513 1309 2356 
Q 1344 2306 1413 2200 
L 1616 1875 
L 1850 2200 
Q 2075 2509 2075 2591 
Q 2075 2656 2022 2701 
Q 1969 2747 1850 2747 
L 1850 2863 
L 2819 2863 
L 2819 2747 
Q 2666 2738 2553 2663 
Q 2400 2556 2134 2200 
L 1744 1678 
L 2456 653 
Q 2719 275 2831 198 
Q 2944 122 3122 113 
L 3122 0 
L 1772 0 
L 1772 113 
Q 1913 113 1991 175 
Q 2050 219 2050 291 
Q 2050 363 1850 653 
L 1431 1266 
L 972 653 
Q 759 369 759 316 
Q 759 241 829 180 
Q 900 119 1041 113 
L 1041 0 
L 106 0 
L 106 113 
Q 219 128 303 191 
Q 422 281 703 653 
L 1303 1450 
L 759 2238 
Q 528 2575 401 2661 
Q 275 2747 84 2747 
L 84 2863 
z
" transform="scale(0.015625)"/>
       <path id="TimesNewRomanPSMT-73" d="M 2050 2947 
L 2050 1972 
L 1947 1972 
Q 1828 2431 1642 2597 
Q 1456 2763 1169 2763 
Q 950 2763 815 2647 
Q 681 2531 681 2391 
Q 681 2216 781 2091 
Q 878 1963 1175 1819 
L 1631 1597 
Q 2266 1288 2266 781 
Q 2266 391 1970 151 
Q 1675 -88 1309 -88 
Q 1047 -88 709 6 
Q 606 38 541 38 
Q 469 38 428 -44 
L 325 -44 
L 325 978 
L 428 978 
Q 516 541 762 319 
Q 1009 97 1316 97 
Q 1531 97 1667 223 
Q 1803 350 1803 528 
Q 1803 744 1651 891 
Q 1500 1038 1047 1263 
Q 594 1488 453 1669 
Q 313 1847 313 2119 
Q 313 2472 555 2709 
Q 797 2947 1181 2947 
Q 1350 2947 1591 2875 
Q 1750 2828 1803 2828 
Q 1853 2828 1881 2850 
Q 1909 2872 1947 2947 
L 2050 2947 
z
" transform="scale(0.015625)"/>
       <path id="TimesNewRomanPSMT-28" d="M 1988 -1253 
L 1988 -1369 
Q 1516 -1131 1200 -813 
Q 750 -359 506 256 
Q 263 872 263 1534 
Q 263 2503 741 3301 
Q 1219 4100 1988 4444 
L 1988 4313 
Q 1603 4100 1356 3731 
Q 1109 3363 987 2797 
Q 866 2231 866 1616 
Q 866 947 969 400 
Q 1050 -31 1165 -292 
Q 1281 -553 1476 -793 
Q 1672 -1034 1988 -1253 
z
" transform="scale(0.015625)"/>
       <path id="TimesNewRomanPSMT-24" d="M 338 1044 
L 475 1044 
Q 509 616 743 387 
Q 978 159 1444 116 
L 1444 1941 
Q 741 2375 506 2709 
Q 341 2947 341 3288 
Q 341 3672 627 3959 
Q 913 4247 1444 4306 
L 1444 4594 
L 1644 4594 
L 1644 4306 
Q 1900 4291 2075 4247 
Q 2166 4225 2675 4031 
L 2675 3097 
L 2553 3097 
Q 2513 3594 2295 3823 
Q 2078 4053 1644 4097 
L 1644 2509 
Q 2431 1959 2654 1698 
Q 2878 1438 2878 1050 
Q 2878 619 2551 290 
Q 2225 -38 1644 -88 
L 1644 -488 
L 1444 -488 
L 1444 -88 
Q 1150 -75 897 -20 
Q 644 34 338 159 
L 338 1044 
z
M 1444 2641 
L 1444 4094 
Q 1131 4056 979 3895 
Q 828 3734 828 3491 
Q 828 3263 965 3064 
Q 1103 2866 1444 2641 
z
M 1644 116 
Q 1878 156 2003 231 
Q 2178 341 2279 517 
Q 2381 694 2381 894 
Q 2381 1100 2257 1284 
Q 2134 1469 1644 1806 
L 1644 116 
z
" transform="scale(0.015625)"/>
       <path id="TimesNewRomanPSMT-29" d="M 144 4313 
L 144 4444 
Q 619 4209 934 3891 
Q 1381 3434 1625 2820 
Q 1869 2206 1869 1541 
Q 1869 572 1392 -226 
Q 916 -1025 144 -1369 
L 144 -1253 
Q 528 -1038 776 -670 
Q 1025 -303 1145 264 
Q 1266 831 1266 1447 
Q 1266 2113 1163 2663 
Q 1084 3094 967 3353 
Q 850 3613 656 3853 
Q 463 4094 144 4313 
z
" transform="scale(0.015625)"/>
      </defs>
      <use xlink:href="#TimesNewRomanPSMT-4f"/>
      <use xlink:href="#TimesNewRomanPSMT-70" x="72.216797"/>
      <use xlink:href="#TimesNewRomanPSMT-65" x="122.216797"/>
      <use xlink:href="#TimesNewRomanPSMT-72" x="166.601562"/>
      <use xlink:href="#TimesNewRomanPSMT-61" x="199.902344"/>
      <use xlink:href="#TimesNewRomanPSMT-74" x="244.287109"/>
      <use xlink:href="#TimesNewRomanPSMT-69" x="272.070312"/>
      <use xlink:href="#TimesNewRomanPSMT-6e" x="299.853516"/>
      <use xlink:href="#TimesNewRomanPSMT-67" x="349.853516"/>
      <use xlink:href="#TimesNewRomanPSMT-20" x="399.853516"/>
      <use xlink:href="#TimesNewRomanPSMT-45" x="424.853516"/>
      <use xlink:href="#TimesNewRomanPSMT-78" x="485.9375"/>
      <use xlink:href="#TimesNewRomanPSMT-70" x="535.9375"/>
      <use xlink:href="#TimesNewRomanPSMT-65" x="585.9375"/>
      <use xlink:href="#TimesNewRomanPSMT-6e" x="630.322266"/>
      <use xlink:href="#TimesNewRomanPSMT-73" x="680.322266"/>
      <use xlink:href="#TimesNewRomanPSMT-65" x="719.238281"/>
      <use xlink:href="#TimesNewRomanPSMT-73" x="763.623047"/>
      <use xlink:href="#TimesNewRomanPSMT-20" x="802.539062"/>
      <use xlink:href="#TimesNewRomanPSMT-28" x="827.539062"/>
      <use xlink:href="#TimesNewRomanPSMT-24" x="860.839844"/>
      <use xlink:href="#TimesNewRomanPSMT-29" x="910.839844"/>
     </g>
    </g>
    <g id="text_21">
     <!-- 1e7 -->
     <g transform="translate(40.042188 34.249375) scale(0.1 -0.1)">
      <use xlink:href="#TimesNewRomanPSMT-31"/>
      <use xlink:href="#TimesNewRomanPSMT-65" x="50"/>
      <use xlink:href="#TimesNewRomanPSMT-37" x="94.384766"/>
     </g>
    </g>
   </g>
   <g id="patch_3">
    <path d="M 40.042188 314.449375 
L 40.042188 37.249375 
" style="fill: none; stroke: #000000; stroke-width: 0.8; stroke-linejoin: miter; stroke-linecap: square"/>
   </g>
   <g id="patch_4">
    <path d="M 428.842188 314.449375 
L 428.842188 37.249375 
" style="fill: none; stroke: #000000; stroke-width: 0.8; stroke-linejoin: miter; stroke-linecap: square"/>
   </g>
   <g id="patch_5">
    <path d="M 40.042187 314.449375 
L 428.842188 314.449375 
" style="fill: none; stroke: #000000; stroke-width: 0.8; stroke-linejoin: miter; stroke-linecap: square"/>
   </g>
   <g id="patch_6">
    <path d="M 40.042187 37.249375 
L 428.842188 37.249375 
" style="fill: none; stroke: #000000; stroke-width: 0.8; stroke-linejoin: miter; stroke-linecap: square"/>
   </g>
   <g id="text_22">
    <!-- Operating Expenses from 1976 to 2000 ($)  -->
    <g transform="translate(112.550313 17.249375) scale(0.14 -0.14)">
     <defs>
      <path id="TimesNewRomanPSMT-66" d="M 1319 2638 
L 1319 756 
Q 1319 356 1406 250 
Q 1522 113 1716 113 
L 1975 113 
L 1975 0 
L 266 0 
L 266 113 
L 394 113 
Q 519 113 622 175 
Q 725 238 764 344 
Q 803 450 803 756 
L 803 2638 
L 247 2638 
L 247 2863 
L 803 2863 
L 803 3050 
Q 803 3478 940 3775 
Q 1078 4072 1361 4255 
Q 1644 4438 1997 4438 
Q 2325 4438 2600 4225 
Q 2781 4084 2781 3909 
Q 2781 3816 2700 3733 
Q 2619 3650 2525 3650 
Q 2453 3650 2373 3701 
Q 2294 3753 2178 3923 
Q 2063 4094 1966 4153 
Q 1869 4213 1750 4213 
Q 1606 4213 1506 4136 
Q 1406 4059 1362 3898 
Q 1319 3738 1319 3069 
L 1319 2863 
L 2056 2863 
L 2056 2638 
L 1319 2638 
z
" transform="scale(0.015625)"/>
      <path id="TimesNewRomanPSMT-6f" d="M 1600 2947 
Q 2250 2947 2644 2453 
Q 2978 2031 2978 1484 
Q 2978 1100 2793 706 
Q 2609 313 2286 112 
Q 1963 -88 1566 -88 
Q 919 -88 538 428 
Q 216 863 216 1403 
Q 216 1797 411 2186 
Q 606 2575 925 2761 
Q 1244 2947 1600 2947 
z
M 1503 2744 
Q 1338 2744 1170 2645 
Q 1003 2547 900 2300 
Q 797 2053 797 1666 
Q 797 1041 1045 587 
Q 1294 134 1700 134 
Q 2003 134 2200 384 
Q 2397 634 2397 1244 
Q 2397 2006 2069 2444 
Q 1847 2744 1503 2744 
z
" transform="scale(0.015625)"/>
      <path id="TimesNewRomanPSMT-6d" d="M 1050 2338 
Q 1363 2650 1419 2697 
Q 1559 2816 1721 2881 
Q 1884 2947 2044 2947 
Q 2313 2947 2506 2790 
Q 2700 2634 2766 2338 
Q 3088 2713 3309 2830 
Q 3531 2947 3766 2947 
Q 3994 2947 4170 2830 
Q 4347 2713 4450 2447 
Q 4519 2266 4519 1878 
L 4519 647 
Q 4519 378 4559 278 
Q 4591 209 4675 161 
Q 4759 113 4950 113 
L 4950 0 
L 3538 0 
L 3538 113 
L 3597 113 
Q 3781 113 3884 184 
Q 3956 234 3988 344 
Q 4000 397 4000 647 
L 4000 1878 
Q 4000 2228 3916 2372 
Q 3794 2572 3525 2572 
Q 3359 2572 3192 2489 
Q 3025 2406 2788 2181 
L 2781 2147 
L 2788 2013 
L 2788 647 
Q 2788 353 2820 281 
Q 2853 209 2943 161 
Q 3034 113 3253 113 
L 3253 0 
L 1806 0 
L 1806 113 
Q 2044 113 2133 169 
Q 2222 225 2256 338 
Q 2272 391 2272 647 
L 2272 1878 
Q 2272 2228 2169 2381 
Q 2031 2581 1784 2581 
Q 1616 2581 1450 2491 
Q 1191 2353 1050 2181 
L 1050 647 
Q 1050 366 1089 281 
Q 1128 197 1204 155 
Q 1281 113 1516 113 
L 1516 0 
L 100 0 
L 100 113 
Q 297 113 375 155 
Q 453 197 493 289 
Q 534 381 534 647 
L 534 1741 
Q 534 2213 506 2350 
Q 484 2453 437 2492 
Q 391 2531 309 2531 
Q 222 2531 100 2484 
L 53 2597 
L 916 2947 
L 1050 2947 
L 1050 2338 
z
" transform="scale(0.015625)"/>
     </defs>
     <use xlink:href="#TimesNewRomanPSMT-4f"/>
     <use xlink:href="#TimesNewRomanPSMT-70" x="72.216797"/>
     <use xlink:href="#TimesNewRomanPSMT-65" x="122.216797"/>
     <use xlink:href="#TimesNewRomanPSMT-72" x="166.601562"/>
     <use xlink:href="#TimesNewRomanPSMT-61" x="199.902344"/>
     <use xlink:href="#TimesNewRomanPSMT-74" x="244.287109"/>
     <use xlink:href="#TimesNewRomanPSMT-69" x="272.070312"/>
     <use xlink:href="#TimesNewRomanPSMT-6e" x="299.853516"/>
     <use xlink:href="#TimesNewRomanPSMT-67" x="349.853516"/>
     <use xlink:href="#TimesNewRomanPSMT-20" x="399.853516"/>
     <use xlink:href="#TimesNewRomanPSMT-45" x="424.853516"/>
     <use xlink:href="#TimesNewRomanPSMT-78" x="485.9375"/>
     <use xlink:href="#TimesNewRomanPSMT-70" x="535.9375"/>
     <use xlink:href="#TimesNewRomanPSMT-65" x="585.9375"/>
     <use xlink:href="#TimesNewRomanPSMT-6e" x="630.322266"/>
     <use xlink:href="#TimesNewRomanPSMT-73" x="680.322266"/>
     <use xlink:href="#TimesNewRomanPSMT-65" x="719.238281"/>
     <use xlink:href="#TimesNewRomanPSMT-73" x="763.623047"/>
     <use xlink:href="#TimesNewRomanPSMT-20" x="802.539062"/>
     <use xlink:href="#TimesNewRomanPSMT-66" x="827.539062"/>
     <use xlink:href="#TimesNewRomanPSMT-72" x="860.839844"/>
     <use xlink:href="#TimesNewRomanPSMT-6f" x="894.140625"/>
     <use xlink:href="#TimesNewRomanPSMT-6d" x="944.140625"/>
     <use xlink:href="#TimesNewRomanPSMT-20" x="1021.923828"/>
     <use xlink:href="#TimesNewRomanPSMT-31" x="1046.923828"/>
     <use xlink:href="#TimesNewRomanPSMT-39" x="1096.923828"/>
     <use xlink:href="#TimesNewRomanPSMT-37" x="1146.923828"/>
     <use xlink:href="#TimesNewRomanPSMT-36" x="1196.923828"/>
     <use xlink:href="#TimesNewRomanPSMT-20" x="1246.923828"/>
     <use xlink:href="#TimesNewRomanPSMT-74" x="1271.923828"/>
     <use xlink:href="#TimesNewRomanPSMT-6f" x="1299.707031"/>
     <use xlink:href="#TimesNewRomanPSMT-20" x="1349.707031"/>
     <use xlink:href="#TimesNewRomanPSMT-32" x="1374.707031"/>
     <use xlink:href="#TimesNewRomanPSMT-30" x="1424.707031"/>
     <use xlink:href="#TimesNewRomanPSMT-30" x="1474.707031"/>
     <use xlink:href="#TimesNewRomanPSMT-30" x="1524.707031"/>
     <use xlink:href="#TimesNewRomanPSMT-20" x="1574.707031"/>
     <use xlink:href="#TimesNewRomanPSMT-28" x="1599.707031"/>
     <use xlink:href="#TimesNewRomanPSMT-24" x="1633.007812"/>
     <use xlink:href="#TimesNewRomanPSMT-29" x="1683.007812"/>
     <use xlink:href="#TimesNewRomanPSMT-20" x="1716.308594"/>
    </g>
   </g>
   <g id="legend_1">
    <g id="patch_7">
     <path d="M 445.618188 157.0525 
L 465.618188 157.0525 
L 465.618188 150.0525 
L 445.618188 150.0525 
z
" style="fill: #1f77b4"/>
    </g>
    <g id="text_23">
     <!-- NovaTech Solutions -->
     <g transform="translate(473.618188 157.0525) scale(0.1 -0.1)">
      <defs>
       <path id="TimesNewRomanPSMT-4e" d="M -84 4238 
L 1066 4238 
L 3656 1059 
L 3656 3503 
Q 3656 3894 3569 3991 
Q 3453 4122 3203 4122 
L 3056 4122 
L 3056 4238 
L 4531 4238 
L 4531 4122 
L 4381 4122 
Q 4113 4122 4000 3959 
Q 3931 3859 3931 3503 
L 3931 -69 
L 3819 -69 
L 1025 3344 
L 1025 734 
Q 1025 344 1109 247 
Q 1228 116 1475 116 
L 1625 116 
L 1625 0 
L 150 0 
L 150 116 
L 297 116 
Q 569 116 681 278 
Q 750 378 750 734 
L 750 3681 
Q 566 3897 470 3965 
Q 375 4034 191 4094 
Q 100 4122 -84 4122 
L -84 4238 
z
" transform="scale(0.015625)"/>
       <path id="TimesNewRomanPSMT-76" d="M 53 2863 
L 1400 2863 
L 1400 2747 
L 1313 2747 
Q 1191 2747 1127 2687 
Q 1063 2628 1063 2528 
Q 1063 2419 1128 2269 
L 1794 688 
L 2463 2328 
Q 2534 2503 2534 2594 
Q 2534 2638 2509 2666 
Q 2475 2713 2422 2730 
Q 2369 2747 2206 2747 
L 2206 2863 
L 3141 2863 
L 3141 2747 
Q 2978 2734 2916 2681 
Q 2806 2588 2719 2369 
L 1703 -88 
L 1575 -88 
L 553 2328 
Q 484 2497 421 2570 
Q 359 2644 263 2694 
Q 209 2722 53 2747 
L 53 2863 
z
" transform="scale(0.015625)"/>
       <path id="TimesNewRomanPSMT-54" d="M 3703 4238 
L 3750 3244 
L 3631 3244 
Q 3597 3506 3538 3619 
Q 3441 3800 3280 3886 
Q 3119 3972 2856 3972 
L 2259 3972 
L 2259 734 
Q 2259 344 2344 247 
Q 2463 116 2709 116 
L 2856 116 
L 2856 0 
L 1059 0 
L 1059 116 
L 1209 116 
Q 1478 116 1591 278 
Q 1659 378 1659 734 
L 1659 3972 
L 1150 3972 
Q 853 3972 728 3928 
Q 566 3869 450 3700 
Q 334 3531 313 3244 
L 194 3244 
L 244 4238 
L 3703 4238 
z
" transform="scale(0.015625)"/>
       <path id="TimesNewRomanPSMT-63" d="M 2631 1088 
Q 2516 522 2178 217 
Q 1841 -88 1431 -88 
Q 944 -88 581 321 
Q 219 731 219 1428 
Q 219 2103 620 2525 
Q 1022 2947 1584 2947 
Q 2006 2947 2278 2723 
Q 2550 2500 2550 2259 
Q 2550 2141 2473 2067 
Q 2397 1994 2259 1994 
Q 2075 1994 1981 2113 
Q 1928 2178 1911 2362 
Q 1894 2547 1784 2644 
Q 1675 2738 1481 2738 
Q 1169 2738 978 2506 
Q 725 2200 725 1697 
Q 725 1184 976 792 
Q 1228 400 1656 400 
Q 1963 400 2206 609 
Q 2378 753 2541 1131 
L 2631 1088 
z
" transform="scale(0.015625)"/>
       <path id="TimesNewRomanPSMT-68" d="M 1041 4444 
L 1041 2350 
Q 1388 2731 1591 2839 
Q 1794 2947 1997 2947 
Q 2241 2947 2416 2812 
Q 2591 2678 2675 2391 
Q 2734 2191 2734 1659 
L 2734 647 
Q 2734 375 2778 275 
Q 2809 200 2884 156 
Q 2959 113 3159 113 
L 3159 0 
L 1753 0 
L 1753 113 
L 1819 113 
Q 2019 113 2097 173 
Q 2175 234 2206 353 
Q 2216 403 2216 647 
L 2216 1659 
Q 2216 2128 2167 2275 
Q 2119 2422 2012 2495 
Q 1906 2569 1756 2569 
Q 1603 2569 1437 2487 
Q 1272 2406 1041 2159 
L 1041 647 
Q 1041 353 1073 281 
Q 1106 209 1195 161 
Q 1284 113 1503 113 
L 1503 0 
L 84 0 
L 84 113 
Q 275 113 384 172 
Q 447 203 484 290 
Q 522 378 522 647 
L 522 3238 
Q 522 3728 498 3840 
Q 475 3953 426 3993 
Q 378 4034 297 4034 
Q 231 4034 84 3984 
L 41 4094 
L 897 4444 
L 1041 4444 
z
" transform="scale(0.015625)"/>
       <path id="TimesNewRomanPSMT-53" d="M 2934 4334 
L 2934 2869 
L 2819 2869 
Q 2763 3291 2617 3541 
Q 2472 3791 2203 3937 
Q 1934 4084 1647 4084 
Q 1322 4084 1109 3886 
Q 897 3688 897 3434 
Q 897 3241 1031 3081 
Q 1225 2847 1953 2456 
Q 2547 2138 2764 1967 
Q 2981 1797 3098 1565 
Q 3216 1334 3216 1081 
Q 3216 600 2842 251 
Q 2469 -97 1881 -97 
Q 1697 -97 1534 -69 
Q 1438 -53 1133 45 
Q 828 144 747 144 
Q 669 144 623 97 
Q 578 50 556 -97 
L 441 -97 
L 441 1356 
L 556 1356 
Q 638 900 775 673 
Q 913 447 1195 297 
Q 1478 147 1816 147 
Q 2206 147 2432 353 
Q 2659 559 2659 841 
Q 2659 997 2573 1156 
Q 2488 1316 2306 1453 
Q 2184 1547 1640 1851 
Q 1097 2156 867 2337 
Q 638 2519 519 2737 
Q 400 2956 400 3219 
Q 400 3675 750 4004 
Q 1100 4334 1641 4334 
Q 1978 4334 2356 4169 
Q 2531 4091 2603 4091 
Q 2684 4091 2736 4139 
Q 2788 4188 2819 4334 
L 2934 4334 
z
" transform="scale(0.015625)"/>
       <path id="TimesNewRomanPSMT-6c" d="M 1184 4444 
L 1184 647 
Q 1184 378 1223 290 
Q 1263 203 1344 158 
Q 1425 113 1647 113 
L 1647 0 
L 244 0 
L 244 113 
Q 441 113 512 153 
Q 584 194 625 287 
Q 666 381 666 647 
L 666 3247 
Q 666 3731 644 3842 
Q 622 3953 573 3993 
Q 525 4034 450 4034 
Q 369 4034 244 3984 
L 191 4094 
L 1044 4444 
L 1184 4444 
z
" transform="scale(0.015625)"/>
       <path id="TimesNewRomanPSMT-75" d="M 2709 2863 
L 2709 1128 
Q 2709 631 2732 520 
Q 2756 409 2807 365 
Q 2859 322 2928 322 
Q 3025 322 3147 375 
L 3191 266 
L 2334 -88 
L 2194 -88 
L 2194 519 
Q 1825 119 1631 15 
Q 1438 -88 1222 -88 
Q 981 -88 804 51 
Q 628 191 559 409 
Q 491 628 491 1028 
L 491 2306 
Q 491 2509 447 2587 
Q 403 2666 317 2708 
Q 231 2750 6 2747 
L 6 2863 
L 1009 2863 
L 1009 947 
Q 1009 547 1148 422 
Q 1288 297 1484 297 
Q 1619 297 1789 381 
Q 1959 466 2194 703 
L 2194 2325 
Q 2194 2569 2105 2655 
Q 2016 2741 1734 2747 
L 1734 2863 
L 2709 2863 
z
" transform="scale(0.015625)"/>
      </defs>
      <use xlink:href="#TimesNewRomanPSMT-4e"/>
      <use xlink:href="#TimesNewRomanPSMT-6f" x="72.216797"/>
      <use xlink:href="#TimesNewRomanPSMT-76" x="122.216797"/>
      <use xlink:href="#TimesNewRomanPSMT-61" x="172.216797"/>
      <use xlink:href="#TimesNewRomanPSMT-54" x="216.601562"/>
      <use xlink:href="#TimesNewRomanPSMT-65" x="270.685547"/>
      <use xlink:href="#TimesNewRomanPSMT-63" x="315.070312"/>
      <use xlink:href="#TimesNewRomanPSMT-68" x="359.455078"/>
      <use xlink:href="#TimesNewRomanPSMT-20" x="409.455078"/>
      <use xlink:href="#TimesNewRomanPSMT-53" x="434.455078"/>
      <use xlink:href="#TimesNewRomanPSMT-6f" x="490.070312"/>
      <use xlink:href="#TimesNewRomanPSMT-6c" x="540.070312"/>
      <use xlink:href="#TimesNewRomanPSMT-75" x="567.853516"/>
      <use xlink:href="#TimesNewRomanPSMT-74" x="617.853516"/>
      <use xlink:href="#TimesNewRomanPSMT-69" x="645.636719"/>
      <use xlink:href="#TimesNewRomanPSMT-6f" x="673.419922"/>
      <use xlink:href="#TimesNewRomanPSMT-6e" x="723.419922"/>
      <use xlink:href="#TimesNewRomanPSMT-73" x="773.419922"/>
     </g>
    </g>
    <g id="patch_8">
     <path d="M 445.618188 171.191562 
L 465.618188 171.191562 
L 465.618188 164.191562 
L 445.618188 164.191562 
z
" style="fill: #aec7e8"/>
    </g>
    <g id="text_24">
     <!-- Apex Systems -->
     <g transform="translate(473.618188 171.191562) scale(0.1 -0.1)">
      <defs>
       <path id="TimesNewRomanPSMT-41" d="M 2928 1419 
L 1288 1419 
L 1000 750 
Q 894 503 894 381 
Q 894 284 986 211 
Q 1078 138 1384 116 
L 1384 0 
L 50 0 
L 50 116 
Q 316 163 394 238 
Q 553 388 747 847 
L 2238 4334 
L 2347 4334 
L 3822 809 
Q 4000 384 4145 257 
Q 4291 131 4550 116 
L 4550 0 
L 2878 0 
L 2878 116 
Q 3131 128 3220 200 
Q 3309 272 3309 375 
Q 3309 513 3184 809 
L 2928 1419 
z
M 2841 1650 
L 2122 3363 
L 1384 1650 
L 2841 1650 
z
" transform="scale(0.015625)"/>
       <path id="TimesNewRomanPSMT-79" d="M 38 2863 
L 1372 2863 
L 1372 2747 
L 1306 2747 
Q 1166 2747 1095 2686 
Q 1025 2625 1025 2534 
Q 1025 2413 1128 2197 
L 1825 753 
L 2466 2334 
Q 2519 2463 2519 2588 
Q 2519 2644 2497 2672 
Q 2472 2706 2419 2726 
Q 2366 2747 2231 2747 
L 2231 2863 
L 3163 2863 
L 3163 2747 
Q 3047 2734 2984 2696 
Q 2922 2659 2847 2556 
Q 2819 2513 2741 2316 
L 1575 -541 
Q 1406 -956 1132 -1168 
Q 859 -1381 606 -1381 
Q 422 -1381 303 -1275 
Q 184 -1169 184 -1031 
Q 184 -900 270 -820 
Q 356 -741 506 -741 
Q 609 -741 788 -809 
Q 913 -856 944 -856 
Q 1038 -856 1148 -759 
Q 1259 -663 1372 -384 
L 1575 113 
L 547 2272 
Q 500 2369 397 2513 
Q 319 2622 269 2659 
Q 197 2709 38 2747 
L 38 2863 
z
" transform="scale(0.015625)"/>
      </defs>
      <use xlink:href="#TimesNewRomanPSMT-41"/>
      <use xlink:href="#TimesNewRomanPSMT-70" x="72.216797"/>
      <use xlink:href="#TimesNewRomanPSMT-65" x="122.216797"/>
      <use xlink:href="#TimesNewRomanPSMT-78" x="166.601562"/>
      <use xlink:href="#TimesNewRomanPSMT-20" x="216.601562"/>
      <use xlink:href="#TimesNewRomanPSMT-53" x="241.601562"/>
      <use xlink:href="#TimesNewRomanPSMT-79" x="297.216797"/>
      <use xlink:href="#TimesNewRomanPSMT-73" x="347.216797"/>
      <use xlink:href="#TimesNewRomanPSMT-74" x="386.132812"/>
      <use xlink:href="#TimesNewRomanPSMT-65" x="413.916016"/>
      <use xlink:href="#TimesNewRomanPSMT-6d" x="458.300781"/>
      <use xlink:href="#TimesNewRomanPSMT-73" x="536.083984"/>
     </g>
    </g>
    <g id="patch_9">
     <path d="M 445.618188 185.349375 
L 465.618188 185.349375 
L 465.618188 178.349375 
L 445.618188 178.349375 
z
" style="fill: #ff7f0e"/>
    </g>
    <g id="text_25">
     <!-- Aegis Corp -->
     <g transform="translate(473.618188 185.349375) scale(0.1 -0.1)">
      <defs>
       <path id="TimesNewRomanPSMT-43" d="M 3853 4334 
L 3950 2894 
L 3853 2894 
Q 3659 3541 3300 3825 
Q 2941 4109 2438 4109 
Q 2016 4109 1675 3895 
Q 1334 3681 1139 3212 
Q 944 2744 944 2047 
Q 944 1472 1128 1050 
Q 1313 628 1683 403 
Q 2053 178 2528 178 
Q 2941 178 3256 354 
Q 3572 531 3950 1056 
L 4047 994 
Q 3728 428 3303 165 
Q 2878 -97 2294 -97 
Q 1241 -97 663 684 
Q 231 1266 231 2053 
Q 231 2688 515 3219 
Q 800 3750 1298 4042 
Q 1797 4334 2388 4334 
Q 2847 4334 3294 4109 
Q 3425 4041 3481 4041 
Q 3566 4041 3628 4100 
Q 3709 4184 3744 4334 
L 3853 4334 
z
" transform="scale(0.015625)"/>
      </defs>
      <use xlink:href="#TimesNewRomanPSMT-41"/>
      <use xlink:href="#TimesNewRomanPSMT-65" x="72.216797"/>
      <use xlink:href="#TimesNewRomanPSMT-67" x="116.601562"/>
      <use xlink:href="#TimesNewRomanPSMT-69" x="166.601562"/>
      <use xlink:href="#TimesNewRomanPSMT-73" x="194.384766"/>
      <use xlink:href="#TimesNewRomanPSMT-20" x="233.300781"/>
      <use xlink:href="#TimesNewRomanPSMT-43" x="258.300781"/>
      <use xlink:href="#TimesNewRomanPSMT-6f" x="325"/>
      <use xlink:href="#TimesNewRomanPSMT-72" x="375"/>
      <use xlink:href="#TimesNewRomanPSMT-70" x="408.300781"/>
     </g>
    </g>
    <g id="patch_10">
     <path d="M 445.618188 199.507187 
L 465.618188 199.507187 
L 465.618188 192.507187 
L 445.618188 192.507187 
z
" style="fill: #ffbb78"/>
    </g>
    <g id="text_26">
     <!-- Horizon Enterprises -->
     <g transform="translate(473.618188 199.507187) scale(0.1 -0.1)">
      <defs>
       <path id="TimesNewRomanPSMT-48" d="M 1316 2272 
L 3284 2272 
L 3284 3484 
Q 3284 3809 3244 3913 
Q 3213 3991 3113 4047 
Q 2978 4122 2828 4122 
L 2678 4122 
L 2678 4238 
L 4491 4238 
L 4491 4122 
L 4341 4122 
Q 4191 4122 4056 4050 
Q 3956 4000 3920 3898 
Q 3884 3797 3884 3484 
L 3884 750 
Q 3884 428 3925 325 
Q 3956 247 4053 191 
Q 4191 116 4341 116 
L 4491 116 
L 4491 0 
L 2678 0 
L 2678 116 
L 2828 116 
Q 3088 116 3206 269 
Q 3284 369 3284 750 
L 3284 2041 
L 1316 2041 
L 1316 750 
Q 1316 428 1356 325 
Q 1388 247 1488 191 
Q 1622 116 1772 116 
L 1925 116 
L 1925 0 
L 109 0 
L 109 116 
L 259 116 
Q 522 116 641 269 
Q 716 369 716 750 
L 716 3484 
Q 716 3809 675 3913 
Q 644 3991 547 4047 
Q 409 4122 259 4122 
L 109 4122 
L 109 4238 
L 1925 4238 
L 1925 4122 
L 1772 4122 
Q 1622 4122 1488 4050 
Q 1391 4000 1353 3898 
Q 1316 3797 1316 3484 
L 1316 2272 
z
" transform="scale(0.015625)"/>
       <path id="TimesNewRomanPSMT-7a" d="M 2688 878 
L 2653 0 
L 128 0 
L 128 113 
L 2028 2644 
L 1091 2644 
Q 788 2644 694 2605 
Q 600 2566 541 2456 
Q 456 2300 444 2069 
L 319 2069 
L 338 2863 
L 2738 2863 
L 2738 2747 
L 819 209 
L 1863 209 
Q 2191 209 2308 264 
Q 2425 319 2497 456 
Q 2547 556 2581 878 
L 2688 878 
z
" transform="scale(0.015625)"/>
      </defs>
      <use xlink:href="#TimesNewRomanPSMT-48"/>
      <use xlink:href="#TimesNewRomanPSMT-6f" x="72.216797"/>
      <use xlink:href="#TimesNewRomanPSMT-72" x="122.216797"/>
      <use xlink:href="#TimesNewRomanPSMT-69" x="155.517578"/>
      <use xlink:href="#TimesNewRomanPSMT-7a" x="183.300781"/>
      <use xlink:href="#TimesNewRomanPSMT-6f" x="227.685547"/>
      <use xlink:href="#TimesNewRomanPSMT-6e" x="277.685547"/>
      <use xlink:href="#TimesNewRomanPSMT-20" x="327.685547"/>
      <use xlink:href="#TimesNewRomanPSMT-45" x="352.685547"/>
      <use xlink:href="#TimesNewRomanPSMT-6e" x="413.769531"/>
      <use xlink:href="#TimesNewRomanPSMT-74" x="463.769531"/>
      <use xlink:href="#TimesNewRomanPSMT-65" x="491.552734"/>
      <use xlink:href="#TimesNewRomanPSMT-72" x="535.9375"/>
      <use xlink:href="#TimesNewRomanPSMT-70" x="569.238281"/>
      <use xlink:href="#TimesNewRomanPSMT-72" x="619.238281"/>
      <use xlink:href="#TimesNewRomanPSMT-69" x="652.539062"/>
      <use xlink:href="#TimesNewRomanPSMT-73" x="680.322266"/>
      <use xlink:href="#TimesNewRomanPSMT-65" x="719.238281"/>
      <use xlink:href="#TimesNewRomanPSMT-73" x="763.623047"/>
     </g>
    </g>
   </g>
  </g>
 </g>
 <defs>
  <clipPath id="pdba4fc51fe">
   <rect x="40.042188" y="37.249375" width="388.8" height="277.2"/>
  </clipPath>
 </defs>
</svg>
