<?xml version="1.0" encoding="utf-8" standalone="no"?>
<!DOCTYPE svg PUBLIC "-//W3C//DTD SVG 1.1//EN"
  "http://www.w3.org/Graphics/SVG/1.1/DTD/svg11.dtd">
<svg xmlns:xlink="http://www.w3.org/1999/xlink" width="558.710375pt" height="363.785279pt" viewBox="0 0 558.710375 363.785279" xmlns="http://www.w3.org/2000/svg" version="1.1">
 <metadata>
  <rdf:RDF xmlns:dc="http://purl.org/dc/elements/1.1/" xmlns:cc="http://creativecommons.org/ns#" xmlns:rdf="http://www.w3.org/1999/02/22-rdf-syntax-ns#">
   <cc:Work>
    <dc:type rdf:resource="http://purl.org/dc/dcmitype/StillImage"/>
    <dc:date>2025-05-21T21:40:58.278309</dc:date>
    <dc:format>image/svg+xml</dc:format>
    <dc:creator>
     <cc:Agent>
      <dc:title>Matplotlib v3.9.2, https://matplotlib.org/</dc:title>
     </cc:Agent>
    </dc:creator>
   </cc:Work>
  </rdf:RDF>
 </metadata>
 <defs>
  <style type="text/css">*{stroke-linejoin: round; stroke-linecap: butt}</style>
 </defs>
 <g id="figure_1">
  <g id="patch_1">
   <path d="M 0 363.785279 
L 558.710375 363.785279 
L 558.710375 0 
L 0 0 
z
" style="fill: #ffffff"/>
  </g>
  <g id="axes_1">
   <g id="patch_2">
    <path d="M 49.760938 314.12125 
L 438.560938 314.12125 
L 438.560938 36.92125 
L 49.760938 36.92125 
z
" style="fill: #ffffff"/>
   </g>
   <g id="PolyCollection_1">
    <path d="M 67.433665 213.770431 
L 67.433665 258.083155 
L 70.676367 265.80289 
L 73.919069 272.331617 
L 77.161772 277.744773 
L 80.404474 282.117796 
L 83.647176 285.526125 
L 86.889878 288.045197 
L 90.132581 289.750449 
L 93.375283 290.717321 
L 96.617985 291.02125 
L 99.860687 290.737673 
L 103.10339 289.942029 
L 106.346092 288.709756 
L 109.588794 287.116291 
L 112.831496 285.237072 
L 116.074199 283.147537 
L 119.316901 280.923124 
L 122.559603 278.639271 
L 125.802305 276.371416 
L 129.045008 274.194997 
L 132.28771 272.185451 
L 135.530412 270.418216 
L 138.773114 268.968605 
L 142.015817 267.885086 
L 145.258519 267.156243 
L 148.501221 266.762557 
L 151.743923 266.684509 
L 154.986626 266.902578 
L 158.229328 267.397246 
L 161.47203 268.148993 
L 164.714732 269.138299 
L 167.957435 270.345646 
L 171.200137 271.751513 
L 174.442839 273.336173 
L 177.685541 275.063744 
L 180.928244 276.870968 
L 184.170946 278.691933 
L 187.413648 280.460727 
L 190.65635 282.111438 
L 193.899053 283.578155 
L 197.141755 284.794966 
L 200.384457 285.695959 
L 203.627159 286.215223 
L 206.869862 286.286846 
L 210.112564 285.846696 
L 213.355266 284.899816 
L 216.597968 283.541112 
L 219.840671 281.871494 
L 223.083373 279.991875 
L 226.326075 278.003165 
L 229.568777 276.006275 
L 232.81148 274.102116 
L 236.054182 272.3916 
L 239.296884 270.975637 
L 242.539586 269.955139 
L 245.782289 269.42686 
L 249.024991 269.391959 
L 252.267693 269.756001 
L 255.510395 270.420393 
L 258.753098 271.286542 
L 261.9958 272.255855 
L 265.238502 273.22974 
L 268.481204 274.109604 
L 271.723907 274.796856 
L 274.966609 275.192901 
L 278.209311 275.199148 
L 281.452013 274.724286 
L 284.694716 273.785973 
L 287.937418 272.485749 
L 291.18012 270.927313 
L 294.422822 269.214363 
L 297.665525 267.450597 
L 300.908227 265.739713 
L 304.150929 264.18541 
L 307.393631 262.891386 
L 310.636334 261.997338 
L 313.879036 261.498969 
L 317.121738 261.596042 
L 320.36444 262.221156 
L 323.607143 263.270248 
L 326.849845 264.638313 
L 330.092547 266.220347 
L 333.335249 267.911347 
L 336.577952 269.606309 
L 339.820654 271.200229 
L 343.063356 272.588103 
L 346.306058 273.664928 
L 349.548761 274.325699 
L 352.791463 274.480116 
L 356.034165 274.146538 
L 359.276867 273.392025 
L 362.51957 272.283869 
L 365.762272 270.889361 
L 369.004974 269.275792 
L 372.247676 267.510453 
L 375.490379 265.660635 
L 378.733081 263.793628 
L 381.975783 261.976724 
L 385.218485 260.277214 
L 388.461188 258.762389 
L 391.70389 257.49954 
L 394.946592 256.555957 
L 398.189294 256.197181 
L 401.431997 256.200419 
L 404.674699 256.442711 
L 407.917401 257.320113 
L 411.160103 258.982229 
L 414.402806 261.367358 
L 417.645508 264.54279 
L 420.88821 268.575817 
L 420.88821 196.732878 
L 420.88821 196.732878 
L 417.645508 192.782129 
L 414.402806 189.665241 
L 411.160103 187.317319 
L 407.917401 185.673472 
L 404.674699 184.797795 
L 401.431997 184.543085 
L 398.189294 184.515682 
L 394.946592 184.840942 
L 391.70389 185.744057 
L 388.461188 186.961884 
L 385.218485 188.429528 
L 381.975783 190.082098 
L 378.733081 191.854698 
L 375.490379 193.682436 
L 372.247676 195.500417 
L 369.004974 197.243748 
L 365.762272 198.847536 
L 362.51957 200.246887 
L 359.276867 201.376906 
L 356.034165 202.172702 
L 352.791463 202.569379 
L 349.548761 202.502263 
L 346.306058 201.952923 
L 343.063356 201.006108 
L 339.820654 199.760524 
L 336.577952 198.314883 
L 333.335249 196.767891 
L 330.092547 195.218259 
L 326.849845 193.764695 
L 323.607143 192.505907 
L 320.36444 191.540604 
L 317.121738 190.967495 
L 313.879036 190.884404 
L 310.636334 191.356668 
L 307.393631 192.189547 
L 304.150929 193.393043 
L 300.908227 194.833168 
L 297.665525 196.411931 
L 294.422822 198.03134 
L 291.18012 199.593405 
L 287.937418 201.000135 
L 284.694716 202.153538 
L 281.452013 202.955624 
L 278.209311 203.310505 
L 274.966609 203.204032 
L 271.723907 202.728245 
L 268.481204 201.982275 
L 265.238502 201.065258 
L 261.9958 200.076326 
L 258.753098 199.114615 
L 255.510395 198.279257 
L 252.267693 197.669387 
L 249.024991 197.384138 
L 245.782289 197.522644 
L 242.539586 198.180642 
L 239.296884 199.375743 
L 236.054182 201.047427 
L 232.81148 203.131781 
L 229.568777 205.564891 
L 226.326075 208.282842 
L 223.083373 211.221719 
L 219.840671 214.317608 
L 216.597968 217.506594 
L 213.355266 220.724764 
L 210.112564 223.908203 
L 206.869862 226.994756 
L 203.627159 229.948611 
L 200.384457 232.754234 
L 197.141755 235.396611 
L 193.899053 237.860729 
L 190.65635 240.131575 
L 187.413648 242.194136 
L 184.170946 244.033398 
L 180.928244 245.634348 
L 177.685541 246.981973 
L 174.442839 248.061261 
L 171.200137 248.8589 
L 167.957435 249.379159 
L 164.714732 249.636679 
L 161.47203 249.646233 
L 158.229328 249.422596 
L 154.986626 248.98054 
L 151.743923 248.334841 
L 148.501221 247.500271 
L 145.258519 246.491606 
L 142.015817 245.323618 
L 138.773114 244.011081 
L 135.530412 242.569033 
L 132.28771 241.014445 
L 129.045008 239.365159 
L 125.802305 237.63902 
L 122.559603 235.853874 
L 119.316901 234.027566 
L 116.074199 232.177941 
L 112.831496 230.322845 
L 109.588794 228.480124 
L 106.346092 226.667621 
L 103.10339 224.903184 
L 99.860687 223.204657 
L 96.617985 221.589886 
L 93.375283 220.076715 
L 90.132581 218.682991 
L 86.889878 217.426559 
L 83.647176 216.325263 
L 80.404474 215.396951 
L 77.161772 214.659465 
L 73.919069 214.130654 
L 70.676367 213.82836 
L 67.433665 213.770431 
z
" clip-path="url(#p320bd552a4)" style="fill: #1f77b4"/>
   </g>
   <g id="PolyCollection_2">
    <path d="M 67.433665 146.690679 
L 67.433665 213.770431 
L 70.676367 213.82836 
L 73.919069 214.130654 
L 77.161772 214.659465 
L 80.404474 215.396951 
L 83.647176 216.325263 
L 86.889878 217.426559 
L 90.132581 218.682991 
L 93.375283 220.076715 
L 96.617985 221.589886 
L 99.860687 223.204657 
L 103.10339 224.903184 
L 106.346092 226.667621 
L 109.588794 228.480124 
L 112.831496 230.322845 
L 116.074199 232.177941 
L 119.316901 234.027566 
L 122.559603 235.853874 
L 125.802305 237.63902 
L 129.045008 239.365159 
L 132.28771 241.014445 
L 135.530412 242.569033 
L 138.773114 244.011081 
L 142.015817 245.323618 
L 145.258519 246.491606 
L 148.501221 247.500271 
L 151.743923 248.334841 
L 154.986626 248.98054 
L 158.229328 249.422596 
L 161.47203 249.646233 
L 164.714732 249.636679 
L 167.957435 249.379159 
L 171.200137 248.8589 
L 174.442839 248.061261 
L 177.685541 246.981973 
L 180.928244 245.634348 
L 184.170946 244.033398 
L 187.413648 242.194136 
L 190.65635 240.131575 
L 193.899053 237.860729 
L 197.141755 235.396611 
L 200.384457 232.754234 
L 203.627159 229.948611 
L 206.869862 226.994756 
L 210.112564 223.908203 
L 213.355266 220.724764 
L 216.597968 217.506594 
L 219.840671 214.317608 
L 223.083373 211.221719 
L 226.326075 208.282842 
L 229.568777 205.564891 
L 232.81148 203.131781 
L 236.054182 201.047427 
L 239.296884 199.375743 
L 242.539586 198.180642 
L 245.782289 197.522644 
L 249.024991 197.384138 
L 252.267693 197.669387 
L 255.510395 198.279257 
L 258.753098 199.114615 
L 261.9958 200.076326 
L 265.238502 201.065258 
L 268.481204 201.982275 
L 271.723907 202.728245 
L 274.966609 203.204032 
L 278.209311 203.310505 
L 281.452013 202.955624 
L 284.694716 202.153538 
L 287.937418 201.000135 
L 291.18012 199.593405 
L 294.422822 198.03134 
L 297.665525 196.411931 
L 300.908227 194.833168 
L 304.150929 193.393043 
L 307.393631 192.189547 
L 310.636334 191.356668 
L 313.879036 190.884404 
L 317.121738 190.967495 
L 320.36444 191.540604 
L 323.607143 192.505907 
L 326.849845 193.764695 
L 330.092547 195.218259 
L 333.335249 196.767891 
L 336.577952 198.314883 
L 339.820654 199.760524 
L 343.063356 201.006108 
L 346.306058 201.952923 
L 349.548761 202.502263 
L 352.791463 202.569379 
L 356.034165 202.172702 
L 359.276867 201.376906 
L 362.51957 200.246887 
L 365.762272 198.847536 
L 369.004974 197.243748 
L 372.247676 195.500417 
L 375.490379 193.682436 
L 378.733081 191.854698 
L 381.975783 190.082098 
L 385.218485 188.429528 
L 388.461188 186.961884 
L 391.70389 185.744057 
L 394.946592 184.840942 
L 398.189294 184.515682 
L 401.431997 184.543085 
L 404.674699 184.797795 
L 407.917401 185.673472 
L 411.160103 187.317319 
L 414.402806 189.665241 
L 417.645508 192.782129 
L 420.88821 196.732878 
L 420.88821 124.889939 
L 420.88821 124.889939 
L 417.645508 120.352799 
L 414.402806 116.808011 
L 411.160103 114.177189 
L 407.917401 112.381945 
L 404.674699 111.472887 
L 401.431997 111.289315 
L 398.189294 111.424077 
L 394.946592 111.989038 
L 391.70389 113.195895 
L 388.461188 114.768014 
L 385.218485 116.627007 
L 381.975783 118.694489 
L 378.733081 120.892073 
L 375.490379 123.141372 
L 372.247676 125.364001 
L 369.004974 127.481573 
L 365.762272 129.415701 
L 362.51957 131.088 
L 359.276867 132.420082 
L 356.034165 133.333562 
L 352.791463 133.750053 
L 349.548761 133.59144 
L 346.306058 132.837107 
L 343.063356 131.594728 
L 339.820654 129.989334 
L 336.577952 128.145957 
L 333.335249 126.189628 
L 330.092547 124.245378 
L 326.849845 122.43824 
L 323.607143 120.893245 
L 320.36444 119.735424 
L 317.121738 119.089808 
L 313.879036 119.080356 
L 310.636334 119.783892 
L 307.393631 120.99234 
L 304.150929 122.699962 
L 300.908227 124.757029 
L 297.665525 127.049808 
L 294.422822 129.464567 
L 291.18012 131.887575 
L 287.937418 134.2051 
L 284.694716 136.30341 
L 281.452013 138.068774 
L 278.209311 139.389577 
L 274.966609 140.23658 
L 271.723907 140.687544 
L 268.481204 140.827385 
L 265.238502 140.741016 
L 261.9958 140.513352 
L 258.753098 140.229307 
L 255.510395 139.973794 
L 252.267693 139.831729 
L 249.024991 139.888025 
L 245.782289 140.227597 
L 242.539586 140.932696 
L 239.296884 142.024354 
L 236.054182 143.462376 
L 232.81148 145.20391 
L 229.568777 147.2061 
L 226.326075 149.426093 
L 223.083373 151.821034 
L 219.840671 154.348068 
L 216.597968 156.964342 
L 213.355266 159.627001 
L 210.112564 162.293191 
L 206.869862 164.921207 
L 203.627159 167.486555 
L 200.384457 169.977986 
L 197.141755 172.384594 
L 193.899053 174.69547 
L 190.65635 176.899709 
L 187.413648 178.986402 
L 184.170946 180.944644 
L 180.928244 182.763526 
L 177.685541 184.432142 
L 174.442839 185.939584 
L 171.200137 187.274652 
L 167.957435 188.423106 
L 164.714732 189.368917 
L 161.47203 190.096031 
L 158.229328 190.588394 
L 154.986626 190.829954 
L 151.743923 190.804657 
L 148.501221 190.496449 
L 145.258519 189.889276 
L 142.015817 188.967087 
L 138.773114 187.713826 
L 135.530412 186.118522 
L 132.28771 184.207748 
L 129.045008 182.024908 
L 125.802305 179.613486 
L 122.559603 177.016963 
L 119.316901 174.278823 
L 116.074199 171.442549 
L 112.831496 168.551623 
L 109.588794 165.649529 
L 106.346092 162.779749 
L 103.10339 159.985767 
L 99.860687 157.311064 
L 96.617985 154.799125 
L 93.375283 152.493431 
L 90.132581 150.437466 
L 86.889878 148.674713 
L 83.647176 147.248654 
L 80.404474 146.202773 
L 77.161772 145.580551 
L 73.919069 145.425474 
L 70.676367 145.781022 
L 67.433665 146.690679 
z
" clip-path="url(#p320bd552a4)" style="fill: #aec7e8"/>
   </g>
   <g id="PolyCollection_3">
    <path d="M 67.433665 100.258587 
L 67.433665 146.690679 
L 70.676367 145.781022 
L 73.919069 145.425474 
L 77.161772 145.580551 
L 80.404474 146.202773 
L 83.647176 147.248654 
L 86.889878 148.674713 
L 90.132581 150.437466 
L 93.375283 152.493431 
L 96.617985 154.799125 
L 99.860687 157.311064 
L 103.10339 159.985767 
L 106.346092 162.779749 
L 109.588794 165.649529 
L 112.831496 168.551623 
L 116.074199 171.442549 
L 119.316901 174.278823 
L 122.559603 177.016963 
L 125.802305 179.613486 
L 129.045008 182.024908 
L 132.28771 184.207748 
L 135.530412 186.118522 
L 138.773114 187.713826 
L 142.015817 188.967087 
L 145.258519 189.889276 
L 148.501221 190.496449 
L 151.743923 190.804657 
L 154.986626 190.829954 
L 158.229328 190.588394 
L 161.47203 190.096031 
L 164.714732 189.368917 
L 167.957435 188.423106 
L 171.200137 187.274652 
L 174.442839 185.939584 
L 177.685541 184.432142 
L 180.928244 182.763526 
L 184.170946 180.944644 
L 187.413648 178.986402 
L 190.65635 176.899709 
L 193.899053 174.69547 
L 197.141755 172.384594 
L 200.384457 169.977986 
L 203.627159 167.486555 
L 206.869862 164.921207 
L 210.112564 162.293191 
L 213.355266 159.627001 
L 216.597968 156.964342 
L 219.840671 154.348068 
L 223.083373 151.821034 
L 226.326075 149.426093 
L 229.568777 147.2061 
L 232.81148 145.20391 
L 236.054182 143.462376 
L 239.296884 142.024354 
L 242.539586 140.932696 
L 245.782289 140.227597 
L 249.024991 139.888025 
L 252.267693 139.831729 
L 255.510395 139.973794 
L 258.753098 140.229307 
L 261.9958 140.513352 
L 265.238502 140.741016 
L 268.481204 140.827385 
L 271.723907 140.687544 
L 274.966609 140.23658 
L 278.209311 139.389577 
L 281.452013 138.068774 
L 284.694716 136.30341 
L 287.937418 134.2051 
L 291.18012 131.887575 
L 294.422822 129.464567 
L 297.665525 127.049808 
L 300.908227 124.757029 
L 304.150929 122.699962 
L 307.393631 120.99234 
L 310.636334 119.783892 
L 313.879036 119.080356 
L 317.121738 119.089808 
L 320.36444 119.735424 
L 323.607143 120.893245 
L 326.849845 122.43824 
L 330.092547 124.245378 
L 333.335249 126.189628 
L 336.577952 128.145957 
L 339.820654 129.989334 
L 343.063356 131.594728 
L 346.306058 132.837107 
L 349.548761 133.59144 
L 352.791463 133.750053 
L 356.034165 133.333562 
L 359.276867 132.420082 
L 362.51957 131.088 
L 365.762272 129.415701 
L 369.004974 127.481573 
L 372.247676 125.364001 
L 375.490379 123.141372 
L 378.733081 120.892073 
L 381.975783 118.694489 
L 385.218485 116.627007 
L 388.461188 114.768014 
L 391.70389 113.195895 
L 394.946592 111.989038 
L 398.189294 111.424077 
L 401.431997 111.289315 
L 404.674699 111.472887 
L 407.917401 112.381945 
L 411.160103 114.177189 
L 414.402806 116.808011 
L 417.645508 120.352799 
L 420.88821 124.889939 
L 420.88821 94.65843 
L 420.88821 94.65843 
L 417.645508 94.563354 
L 414.402806 94.493489 
L 411.160103 94.452398 
L 407.917401 94.443646 
L 404.674699 94.599789 
L 401.431997 94.842081 
L 398.189294 94.845319 
L 394.946592 94.803319 
L 391.70389 95.009731 
L 388.461188 95.269868 
L 385.218485 95.587297 
L 381.975783 95.965581 
L 378.733081 96.408286 
L 375.490379 96.918974 
L 372.247676 97.501212 
L 369.004974 98.158564 
L 365.762272 98.894594 
L 362.51957 99.712866 
L 359.276867 100.616946 
L 356.034165 101.610397 
L 352.791463 102.696785 
L 349.548761 103.879643 
L 346.306058 105.155889 
L 343.063356 106.507684 
L 339.820654 107.915191 
L 336.577952 109.358574 
L 333.335249 110.817996 
L 330.092547 112.273621 
L 326.849845 113.705612 
L 323.607143 115.094132 
L 320.36444 116.419346 
L 317.121738 117.661416 
L 313.879036 118.800544 
L 310.636334 119.783892 
L 307.393631 120.707623 
L 304.150929 121.452402 
L 300.908227 122.042881 
L 297.665525 122.467718 
L 294.422822 122.71557 
L 291.18012 122.775093 
L 287.937418 122.634943 
L 284.694716 122.283777 
L 281.452013 121.710252 
L 278.209311 120.903572 
L 274.966609 119.874207 
L 271.723907 118.660259 
L 268.481204 117.301674 
L 265.238502 115.838398 
L 261.9958 114.310378 
L 258.753098 112.757559 
L 255.510395 111.21989 
L 252.267693 109.737315 
L 249.024991 108.349782 
L 245.782289 107.097237 
L 242.539586 106.018987 
L 239.296884 105.139656 
L 236.054182 104.469179 
L 232.81148 104.016855 
L 229.568777 103.791981 
L 226.326075 103.803854 
L 223.083373 104.061773 
L 219.840671 104.575036 
L 216.597968 105.352941 
L 213.355266 106.404784 
L 210.112564 107.739865 
L 206.869862 109.365527 
L 203.627159 111.259884 
L 200.384457 113.378548 
L 197.141755 115.67655 
L 193.899053 118.108924 
L 190.65635 120.630703 
L 187.413648 123.196919 
L 184.170946 125.762604 
L 180.928244 128.282792 
L 177.685541 130.712515 
L 174.442839 133.006806 
L 171.200137 135.12144 
L 167.957435 137.01985 
L 164.714732 138.669992 
L 161.47203 140.039876 
L 158.229328 141.097516 
L 154.986626 141.810924 
L 151.743923 142.148112 
L 148.501221 142.077091 
L 145.258519 141.565875 
L 142.015817 140.582474 
L 138.773114 139.094903 
L 135.530412 137.080374 
L 132.28771 134.584104 
L 129.045008 131.681792 
L 125.802305 128.449278 
L 122.559603 124.962405 
L 119.316901 121.297012 
L 116.074199 117.528942 
L 112.831496 113.734035 
L 109.588794 109.988132 
L 106.346092 106.367076 
L 103.10339 102.946707 
L 99.860687 99.802866 
L 96.617985 97.011395 
L 93.375283 94.648135 
L 90.132581 92.788926 
L 86.889878 91.509611 
L 83.647176 90.88603 
L 80.404474 90.994025 
L 77.161772 91.909437 
L 73.919069 93.708108 
L 70.676367 96.465877 
L 67.433665 100.258587 
z
" clip-path="url(#p320bd552a4)" style="fill: #ff7f0e"/>
   </g>
   <g id="PolyCollection_4">
    <path d="M 67.433665 92.959345 
L 67.433665 100.258587 
L 70.676367 96.465877 
L 73.919069 93.708108 
L 77.161772 91.909437 
L 80.404474 90.994025 
L 83.647176 90.88603 
L 86.889878 91.509611 
L 90.132581 92.788926 
L 93.375283 94.648135 
L 96.617985 97.011395 
L 99.860687 99.802866 
L 103.10339 102.946707 
L 106.346092 106.367076 
L 109.588794 109.988132 
L 112.831496 113.734035 
L 116.074199 117.528942 
L 119.316901 121.297012 
L 122.559603 124.962405 
L 125.802305 128.449278 
L 129.045008 131.681792 
L 132.28771 134.584104 
L 135.530412 137.080374 
L 138.773114 139.094903 
L 142.015817 140.582474 
L 145.258519 141.565875 
L 148.501221 142.077091 
L 151.743923 142.148112 
L 154.986626 141.810924 
L 158.229328 141.097516 
L 161.47203 140.039876 
L 164.714732 138.669992 
L 167.957435 137.01985 
L 171.200137 135.12144 
L 174.442839 133.006806 
L 177.685541 130.712515 
L 180.928244 128.282792 
L 184.170946 125.762604 
L 187.413648 123.196919 
L 190.65635 120.630703 
L 193.899053 118.108924 
L 197.141755 115.67655 
L 200.384457 113.378548 
L 203.627159 111.259884 
L 206.869862 109.365527 
L 210.112564 107.739865 
L 213.355266 106.404784 
L 216.597968 105.352941 
L 219.840671 104.575036 
L 223.083373 104.061773 
L 226.326075 103.803854 
L 229.568777 103.791981 
L 232.81148 104.016855 
L 236.054182 104.469179 
L 239.296884 105.139656 
L 242.539586 106.018987 
L 245.782289 107.097237 
L 249.024991 108.349782 
L 252.267693 109.737315 
L 255.510395 111.21989 
L 258.753098 112.757559 
L 261.9958 114.310378 
L 265.238502 115.838398 
L 268.481204 117.301674 
L 271.723907 118.660259 
L 274.966609 119.874207 
L 278.209311 120.903572 
L 281.452013 121.710252 
L 284.694716 122.283777 
L 287.937418 122.634943 
L 291.18012 122.775093 
L 294.422822 122.71557 
L 297.665525 122.467718 
L 300.908227 122.042881 
L 304.150929 121.452402 
L 307.393631 120.707623 
L 310.636334 119.783892 
L 313.879036 118.800544 
L 317.121738 117.661416 
L 320.36444 116.419346 
L 323.607143 115.094132 
L 326.849845 113.705612 
L 330.092547 112.273621 
L 333.335249 110.817996 
L 336.577952 109.358574 
L 339.820654 107.915191 
L 343.063356 106.507684 
L 346.306058 105.155889 
L 349.548761 103.879643 
L 352.791463 102.696785 
L 356.034165 101.610397 
L 359.276867 100.616946 
L 362.51957 99.712866 
L 365.762272 98.894594 
L 369.004974 98.158564 
L 372.247676 97.501212 
L 375.490379 96.918974 
L 378.733081 96.408286 
L 381.975783 95.965581 
L 385.218485 95.587297 
L 388.461188 95.269868 
L 391.70389 95.009731 
L 394.946592 94.803319 
L 398.189294 94.845319 
L 401.431997 94.842081 
L 404.674699 94.599789 
L 407.917401 94.443646 
L 411.160103 94.452398 
L 414.402806 94.493489 
L 417.645508 94.563354 
L 420.88821 94.65843 
L 420.88821 82.466683 
L 420.88821 82.466683 
L 417.645508 86.49971 
L 414.402806 89.675142 
L 411.160103 92.060271 
L 407.917401 93.722387 
L 404.674699 94.599789 
L 401.431997 94.842081 
L 398.189294 94.845319 
L 394.946592 94.486543 
L 391.70389 93.54296 
L 388.461188 92.280111 
L 385.218485 90.765286 
L 381.975783 89.065776 
L 378.733081 87.248872 
L 375.490379 85.381865 
L 372.247676 83.532047 
L 369.004974 81.766708 
L 365.762272 80.153139 
L 362.51957 78.758631 
L 359.276867 77.650475 
L 356.034165 76.895962 
L 352.791463 76.562384 
L 349.548761 76.716801 
L 346.306058 77.377572 
L 343.063356 78.454397 
L 339.820654 79.842271 
L 336.577952 81.436191 
L 333.335249 83.131153 
L 330.092547 84.822153 
L 326.849845 86.404187 
L 323.607143 87.772252 
L 320.36444 88.821344 
L 317.121738 89.446458 
L 313.879036 89.543531 
L 310.636334 89.045162 
L 307.393631 88.151114 
L 304.150929 86.85709 
L 300.908227 85.302787 
L 297.665525 83.591903 
L 294.422822 81.828137 
L 291.18012 80.115187 
L 287.937418 78.556751 
L 284.694716 77.256527 
L 281.452013 76.318214 
L 278.209311 75.843352 
L 274.966609 75.849599 
L 271.723907 76.245644 
L 268.481204 76.932896 
L 265.238502 77.81276 
L 261.9958 78.786645 
L 258.753098 79.755958 
L 255.510395 80.622107 
L 252.267693 81.286499 
L 249.024991 81.650541 
L 245.782289 81.61564 
L 242.539586 81.087361 
L 239.296884 80.066863 
L 236.054182 78.6509 
L 232.81148 76.940384 
L 229.568777 75.036225 
L 226.326075 73.039335 
L 223.083373 71.050625 
L 219.840671 69.171006 
L 216.597968 67.501388 
L 213.355266 66.142684 
L 210.112564 65.195804 
L 206.869862 64.755654 
L 203.627159 64.827277 
L 200.384457 65.346541 
L 197.141755 66.247534 
L 193.899053 67.464345 
L 190.65635 68.931062 
L 187.413648 70.581773 
L 184.170946 72.350567 
L 180.928244 74.171532 
L 177.685541 75.978756 
L 174.442839 77.706327 
L 171.200137 79.290987 
L 167.957435 80.696854 
L 164.714732 81.904201 
L 161.47203 82.893507 
L 158.229328 83.645254 
L 154.986626 84.139922 
L 151.743923 84.357991 
L 148.501221 84.279943 
L 145.258519 83.886257 
L 142.015817 83.157414 
L 138.773114 82.073895 
L 135.530412 80.624284 
L 132.28771 78.857049 
L 129.045008 76.847503 
L 125.802305 74.671084 
L 122.559603 72.403229 
L 119.316901 70.119376 
L 116.074199 67.894963 
L 112.831496 65.805428 
L 109.588794 63.926209 
L 106.346092 62.332744 
L 103.10339 61.100471 
L 99.860687 60.304827 
L 96.617985 60.02125 
L 93.375283 60.325179 
L 90.132581 61.292051 
L 86.889878 62.997303 
L 83.647176 65.516375 
L 80.404474 68.924704 
L 77.161772 73.297727 
L 73.919069 78.710883 
L 70.676367 85.23961 
L 67.433665 92.959345 
z
" clip-path="url(#p320bd552a4)" style="fill: #ffbb78"/>
   </g>
   <g id="matplotlib.axis_1">
    <g id="xtick_1">
     <g id="line2d_1">
      <defs>
       <path id="m0206881281" d="M 0 0 
L 0 3.5 
" style="stroke: #000000; stroke-width: 0.8"/>
      </defs>
      <g>
       <use xlink:href="#m0206881281" x="67.433665" y="314.12125" style="stroke: #000000; stroke-width: 0.8"/>
      </g>
     </g>
     <g id="text_1">
      <!-- 1983 -->
      <g transform="translate(51.778984 340.173358) rotate(-45) scale(0.1 -0.1)">
       <defs>
        <path id="TimesNewRomanPSMT-31" d="M 750 3822 
L 1781 4325 
L 1884 4325 
L 1884 747 
Q 1884 391 1914 303 
Q 1944 216 2037 169 
Q 2131 122 2419 116 
L 2419 0 
L 825 0 
L 825 116 
Q 1125 122 1212 167 
Q 1300 213 1334 289 
Q 1369 366 1369 747 
L 1369 3034 
Q 1369 3497 1338 3628 
Q 1316 3728 1258 3775 
Q 1200 3822 1119 3822 
Q 1003 3822 797 3725 
L 750 3822 
z
" transform="scale(0.015625)"/>
        <path id="TimesNewRomanPSMT-39" d="M 338 -88 
L 338 28 
Q 744 34 1094 217 
Q 1444 400 1770 856 
Q 2097 1313 2225 1859 
Q 1734 1544 1338 1544 
Q 891 1544 572 1889 
Q 253 2234 253 2806 
Q 253 3363 572 3797 
Q 956 4325 1575 4325 
Q 2097 4325 2469 3894 
Q 2925 3359 2925 2575 
Q 2925 1869 2578 1258 
Q 2231 647 1613 244 
Q 1109 -88 516 -88 
L 338 -88 
z
M 2275 2091 
Q 2331 2497 2331 2741 
Q 2331 3044 2228 3395 
Q 2125 3747 1936 3934 
Q 1747 4122 1506 4122 
Q 1228 4122 1018 3872 
Q 809 3622 809 3128 
Q 809 2469 1088 2097 
Q 1291 1828 1588 1828 
Q 1731 1828 1928 1897 
Q 2125 1966 2275 2091 
z
" transform="scale(0.015625)"/>
        <path id="TimesNewRomanPSMT-38" d="M 1228 2134 
Q 725 2547 579 2797 
Q 434 3047 434 3316 
Q 434 3728 753 4026 
Q 1072 4325 1600 4325 
Q 2113 4325 2425 4047 
Q 2738 3769 2738 3413 
Q 2738 3175 2569 2928 
Q 2400 2681 1866 2347 
Q 2416 1922 2594 1678 
Q 2831 1359 2831 1006 
Q 2831 559 2490 242 
Q 2150 -75 1597 -75 
Q 994 -75 656 303 
Q 388 606 388 966 
Q 388 1247 577 1523 
Q 766 1800 1228 2134 
z
M 1719 2469 
Q 2094 2806 2194 3001 
Q 2294 3197 2294 3444 
Q 2294 3772 2109 3958 
Q 1925 4144 1606 4144 
Q 1288 4144 1088 3959 
Q 888 3775 888 3528 
Q 888 3366 970 3203 
Q 1053 3041 1206 2894 
L 1719 2469 
z
M 1375 2016 
Q 1116 1797 991 1539 
Q 866 1281 866 981 
Q 866 578 1086 336 
Q 1306 94 1647 94 
Q 1984 94 2187 284 
Q 2391 475 2391 747 
Q 2391 972 2272 1150 
Q 2050 1481 1375 2016 
z
" transform="scale(0.015625)"/>
        <path id="TimesNewRomanPSMT-33" d="M 325 3431 
Q 506 3859 782 4092 
Q 1059 4325 1472 4325 
Q 1981 4325 2253 3994 
Q 2459 3747 2459 3466 
Q 2459 3003 1878 2509 
Q 2269 2356 2469 2072 
Q 2669 1788 2669 1403 
Q 2669 853 2319 450 
Q 1863 -75 997 -75 
Q 569 -75 414 31 
Q 259 138 259 259 
Q 259 350 332 419 
Q 406 488 509 488 
Q 588 488 669 463 
Q 722 447 909 348 
Q 1097 250 1169 231 
Q 1284 197 1416 197 
Q 1734 197 1970 444 
Q 2206 691 2206 1028 
Q 2206 1275 2097 1509 
Q 2016 1684 1919 1775 
Q 1784 1900 1550 2001 
Q 1316 2103 1072 2103 
L 972 2103 
L 972 2197 
Q 1219 2228 1467 2375 
Q 1716 2522 1828 2728 
Q 1941 2934 1941 3181 
Q 1941 3503 1739 3701 
Q 1538 3900 1238 3900 
Q 753 3900 428 3381 
L 325 3431 
z
" transform="scale(0.015625)"/>
       </defs>
       <use xlink:href="#TimesNewRomanPSMT-31"/>
       <use xlink:href="#TimesNewRomanPSMT-39" x="50"/>
       <use xlink:href="#TimesNewRomanPSMT-38" x="100"/>
       <use xlink:href="#TimesNewRomanPSMT-33" x="150"/>
      </g>
     </g>
    </g>
    <g id="xtick_2">
     <g id="line2d_2">
      <g>
       <use xlink:href="#m0206881281" x="102.779119" y="314.12125" style="stroke: #000000; stroke-width: 0.8"/>
      </g>
     </g>
     <g id="text_2">
      <!-- 1984 -->
      <g transform="translate(87.124438 340.173358) rotate(-45) scale(0.1 -0.1)">
       <defs>
        <path id="TimesNewRomanPSMT-34" d="M 2978 1563 
L 2978 1119 
L 2409 1119 
L 2409 0 
L 1894 0 
L 1894 1119 
L 100 1119 
L 100 1519 
L 2066 4325 
L 2409 4325 
L 2409 1563 
L 2978 1563 
z
M 1894 1563 
L 1894 3666 
L 406 1563 
L 1894 1563 
z
" transform="scale(0.015625)"/>
       </defs>
       <use xlink:href="#TimesNewRomanPSMT-31"/>
       <use xlink:href="#TimesNewRomanPSMT-39" x="50"/>
       <use xlink:href="#TimesNewRomanPSMT-38" x="100"/>
       <use xlink:href="#TimesNewRomanPSMT-34" x="150"/>
      </g>
     </g>
    </g>
    <g id="xtick_3">
     <g id="line2d_3">
      <g>
       <use xlink:href="#m0206881281" x="138.124574" y="314.12125" style="stroke: #000000; stroke-width: 0.8"/>
      </g>
     </g>
     <g id="text_3">
      <!-- 1985 -->
      <g transform="translate(122.469893 340.173358) rotate(-45) scale(0.1 -0.1)">
       <defs>
        <path id="TimesNewRomanPSMT-35" d="M 2778 4238 
L 2534 3706 
L 1259 3706 
L 981 3138 
Q 1809 3016 2294 2522 
Q 2709 2097 2709 1522 
Q 2709 1188 2573 903 
Q 2438 619 2231 419 
Q 2025 219 1772 97 
Q 1413 -75 1034 -75 
Q 653 -75 479 54 
Q 306 184 306 341 
Q 306 428 378 495 
Q 450 563 559 563 
Q 641 563 702 538 
Q 763 513 909 409 
Q 1144 247 1384 247 
Q 1750 247 2026 523 
Q 2303 800 2303 1197 
Q 2303 1581 2056 1914 
Q 1809 2247 1375 2428 
Q 1034 2569 447 2591 
L 1259 4238 
L 2778 4238 
z
" transform="scale(0.015625)"/>
       </defs>
       <use xlink:href="#TimesNewRomanPSMT-31"/>
       <use xlink:href="#TimesNewRomanPSMT-39" x="50"/>
       <use xlink:href="#TimesNewRomanPSMT-38" x="100"/>
       <use xlink:href="#TimesNewRomanPSMT-35" x="150"/>
      </g>
     </g>
    </g>
    <g id="xtick_4">
     <g id="line2d_4">
      <g>
       <use xlink:href="#m0206881281" x="173.470028" y="314.12125" style="stroke: #000000; stroke-width: 0.8"/>
      </g>
     </g>
     <g id="text_4">
      <!-- 1986 -->
      <g transform="translate(157.815347 340.173358) rotate(-45) scale(0.1 -0.1)">
       <defs>
        <path id="TimesNewRomanPSMT-36" d="M 2869 4325 
L 2869 4209 
Q 2456 4169 2195 4045 
Q 1934 3922 1679 3669 
Q 1425 3416 1258 3105 
Q 1091 2794 978 2366 
Q 1428 2675 1881 2675 
Q 2316 2675 2634 2325 
Q 2953 1975 2953 1425 
Q 2953 894 2631 456 
Q 2244 -75 1606 -75 
Q 1172 -75 869 213 
Q 275 772 275 1663 
Q 275 2231 503 2743 
Q 731 3256 1154 3653 
Q 1578 4050 1965 4187 
Q 2353 4325 2688 4325 
L 2869 4325 
z
M 925 2138 
Q 869 1716 869 1456 
Q 869 1156 980 804 
Q 1091 453 1309 247 
Q 1469 100 1697 100 
Q 1969 100 2183 356 
Q 2397 613 2397 1088 
Q 2397 1622 2184 2012 
Q 1972 2403 1581 2403 
Q 1463 2403 1327 2353 
Q 1191 2303 925 2138 
z
" transform="scale(0.015625)"/>
       </defs>
       <use xlink:href="#TimesNewRomanPSMT-31"/>
       <use xlink:href="#TimesNewRomanPSMT-39" x="50"/>
       <use xlink:href="#TimesNewRomanPSMT-38" x="100"/>
       <use xlink:href="#TimesNewRomanPSMT-36" x="150"/>
      </g>
     </g>
    </g>
    <g id="xtick_5">
     <g id="line2d_5">
      <g>
       <use xlink:href="#m0206881281" x="208.815483" y="314.12125" style="stroke: #000000; stroke-width: 0.8"/>
      </g>
     </g>
     <g id="text_5">
      <!-- 1987 -->
      <g transform="translate(193.160802 340.173358) rotate(-45) scale(0.1 -0.1)">
       <defs>
        <path id="TimesNewRomanPSMT-37" d="M 644 4238 
L 2916 4238 
L 2916 4119 
L 1503 -88 
L 1153 -88 
L 2419 3728 
L 1253 3728 
Q 900 3728 750 3644 
Q 488 3500 328 3200 
L 238 3234 
L 644 4238 
z
" transform="scale(0.015625)"/>
       </defs>
       <use xlink:href="#TimesNewRomanPSMT-31"/>
       <use xlink:href="#TimesNewRomanPSMT-39" x="50"/>
       <use xlink:href="#TimesNewRomanPSMT-38" x="100"/>
       <use xlink:href="#TimesNewRomanPSMT-37" x="150"/>
      </g>
     </g>
    </g>
    <g id="xtick_6">
     <g id="line2d_6">
      <g>
       <use xlink:href="#m0206881281" x="244.160938" y="314.12125" style="stroke: #000000; stroke-width: 0.8"/>
      </g>
     </g>
     <g id="text_6">
      <!-- 1988 -->
      <g transform="translate(228.506256 340.173358) rotate(-45) scale(0.1 -0.1)">
       <use xlink:href="#TimesNewRomanPSMT-31"/>
       <use xlink:href="#TimesNewRomanPSMT-39" x="50"/>
       <use xlink:href="#TimesNewRomanPSMT-38" x="100"/>
       <use xlink:href="#TimesNewRomanPSMT-38" x="150"/>
      </g>
     </g>
    </g>
    <g id="xtick_7">
     <g id="line2d_7">
      <g>
       <use xlink:href="#m0206881281" x="279.506392" y="314.12125" style="stroke: #000000; stroke-width: 0.8"/>
      </g>
     </g>
     <g id="text_7">
      <!-- 1989 -->
      <g transform="translate(263.851711 340.173358) rotate(-45) scale(0.1 -0.1)">
       <use xlink:href="#TimesNewRomanPSMT-31"/>
       <use xlink:href="#TimesNewRomanPSMT-39" x="50"/>
       <use xlink:href="#TimesNewRomanPSMT-38" x="100"/>
       <use xlink:href="#TimesNewRomanPSMT-39" x="150"/>
      </g>
     </g>
    </g>
    <g id="xtick_8">
     <g id="line2d_8">
      <g>
       <use xlink:href="#m0206881281" x="314.851847" y="314.12125" style="stroke: #000000; stroke-width: 0.8"/>
      </g>
     </g>
     <g id="text_8">
      <!-- 1990 -->
      <g transform="translate(299.197165 340.173358) rotate(-45) scale(0.1 -0.1)">
       <defs>
        <path id="TimesNewRomanPSMT-30" d="M 231 2094 
Q 231 2819 450 3342 
Q 669 3866 1031 4122 
Q 1313 4325 1613 4325 
Q 2100 4325 2488 3828 
Q 2972 3213 2972 2159 
Q 2972 1422 2759 906 
Q 2547 391 2217 158 
Q 1888 -75 1581 -75 
Q 975 -75 572 641 
Q 231 1244 231 2094 
z
M 844 2016 
Q 844 1141 1059 588 
Q 1238 122 1591 122 
Q 1759 122 1940 273 
Q 2122 425 2216 781 
Q 2359 1319 2359 2297 
Q 2359 3022 2209 3506 
Q 2097 3866 1919 4016 
Q 1791 4119 1609 4119 
Q 1397 4119 1231 3928 
Q 1006 3669 925 3112 
Q 844 2556 844 2016 
z
" transform="scale(0.015625)"/>
       </defs>
       <use xlink:href="#TimesNewRomanPSMT-31"/>
       <use xlink:href="#TimesNewRomanPSMT-39" x="50"/>
       <use xlink:href="#TimesNewRomanPSMT-39" x="100"/>
       <use xlink:href="#TimesNewRomanPSMT-30" x="150"/>
      </g>
     </g>
    </g>
    <g id="xtick_9">
     <g id="line2d_9">
      <g>
       <use xlink:href="#m0206881281" x="350.197301" y="314.12125" style="stroke: #000000; stroke-width: 0.8"/>
      </g>
     </g>
     <g id="text_9">
      <!-- 1991 -->
      <g transform="translate(334.54262 340.173358) rotate(-45) scale(0.1 -0.1)">
       <use xlink:href="#TimesNewRomanPSMT-31"/>
       <use xlink:href="#TimesNewRomanPSMT-39" x="50"/>
       <use xlink:href="#TimesNewRomanPSMT-39" x="100"/>
       <use xlink:href="#TimesNewRomanPSMT-31" x="150"/>
      </g>
     </g>
    </g>
    <g id="xtick_10">
     <g id="line2d_10">
      <g>
       <use xlink:href="#m0206881281" x="385.542756" y="314.12125" style="stroke: #000000; stroke-width: 0.8"/>
      </g>
     </g>
     <g id="text_10">
      <!-- 1992 -->
      <g transform="translate(369.888074 340.173358) rotate(-45) scale(0.1 -0.1)">
       <defs>
        <path id="TimesNewRomanPSMT-32" d="M 2934 816 
L 2638 0 
L 138 0 
L 138 116 
Q 1241 1122 1691 1759 
Q 2141 2397 2141 2925 
Q 2141 3328 1894 3587 
Q 1647 3847 1303 3847 
Q 991 3847 742 3664 
Q 494 3481 375 3128 
L 259 3128 
Q 338 3706 661 4015 
Q 984 4325 1469 4325 
Q 1984 4325 2329 3994 
Q 2675 3663 2675 3213 
Q 2675 2891 2525 2569 
Q 2294 2063 1775 1497 
Q 997 647 803 472 
L 1909 472 
Q 2247 472 2383 497 
Q 2519 522 2628 598 
Q 2738 675 2819 816 
L 2934 816 
z
" transform="scale(0.015625)"/>
       </defs>
       <use xlink:href="#TimesNewRomanPSMT-31"/>
       <use xlink:href="#TimesNewRomanPSMT-39" x="50"/>
       <use xlink:href="#TimesNewRomanPSMT-39" x="100"/>
       <use xlink:href="#TimesNewRomanPSMT-32" x="150"/>
      </g>
     </g>
    </g>
    <g id="xtick_11">
     <g id="line2d_11">
      <g>
       <use xlink:href="#m0206881281" x="420.88821" y="314.12125" style="stroke: #000000; stroke-width: 0.8"/>
      </g>
     </g>
     <g id="text_11">
      <!-- 1993 -->
      <g transform="translate(405.233529 340.173358) rotate(-45) scale(0.1 -0.1)">
       <use xlink:href="#TimesNewRomanPSMT-31"/>
       <use xlink:href="#TimesNewRomanPSMT-39" x="50"/>
       <use xlink:href="#TimesNewRomanPSMT-39" x="100"/>
       <use xlink:href="#TimesNewRomanPSMT-33" x="150"/>
      </g>
     </g>
    </g>
    <g id="text_12">
     <!-- Year -->
     <g transform="translate(233.103125 354.018404) scale(0.12 -0.12)">
      <defs>
       <path id="TimesNewRomanPSMT-59" d="M 3050 4238 
L 4528 4238 
L 4528 4122 
L 4447 4122 
Q 4366 4122 4209 4050 
Q 4053 3978 3925 3843 
Q 3797 3709 3609 3406 
L 2588 1797 
L 2588 734 
Q 2588 344 2675 247 
Q 2794 116 3050 116 
L 3188 116 
L 3188 0 
L 1388 0 
L 1388 116 
L 1538 116 
Q 1806 116 1919 278 
Q 1988 378 1988 734 
L 1988 1738 
L 825 3513 
Q 619 3825 545 3903 
Q 472 3981 241 4091 
Q 178 4122 59 4122 
L 59 4238 
L 1872 4238 
L 1872 4122 
L 1778 4122 
Q 1631 4122 1507 4053 
Q 1384 3984 1384 3847 
Q 1384 3734 1575 3441 
L 2459 2075 
L 3291 3381 
Q 3478 3675 3478 3819 
Q 3478 3906 3433 3975 
Q 3388 4044 3303 4083 
Q 3219 4122 3050 4122 
L 3050 4238 
z
" transform="scale(0.015625)"/>
       <path id="TimesNewRomanPSMT-65" d="M 681 1784 
Q 678 1147 991 784 
Q 1303 422 1725 422 
Q 2006 422 2214 576 
Q 2422 731 2563 1106 
L 2659 1044 
Q 2594 616 2278 264 
Q 1963 -88 1488 -88 
Q 972 -88 605 314 
Q 238 716 238 1394 
Q 238 2128 614 2539 
Q 991 2950 1559 2950 
Q 2041 2950 2350 2633 
Q 2659 2316 2659 1784 
L 681 1784 
z
M 681 1966 
L 2006 1966 
Q 1991 2241 1941 2353 
Q 1863 2528 1708 2628 
Q 1553 2728 1384 2728 
Q 1125 2728 920 2526 
Q 716 2325 681 1966 
z
" transform="scale(0.015625)"/>
       <path id="TimesNewRomanPSMT-61" d="M 1822 413 
Q 1381 72 1269 19 
Q 1100 -59 909 -59 
Q 613 -59 420 144 
Q 228 347 228 678 
Q 228 888 322 1041 
Q 450 1253 767 1440 
Q 1084 1628 1822 1897 
L 1822 2009 
Q 1822 2438 1686 2597 
Q 1550 2756 1291 2756 
Q 1094 2756 978 2650 
Q 859 2544 859 2406 
L 866 2225 
Q 866 2081 792 2003 
Q 719 1925 600 1925 
Q 484 1925 411 2006 
Q 338 2088 338 2228 
Q 338 2497 613 2722 
Q 888 2947 1384 2947 
Q 1766 2947 2009 2819 
Q 2194 2722 2281 2516 
Q 2338 2381 2338 1966 
L 2338 994 
Q 2338 584 2353 492 
Q 2369 400 2405 369 
Q 2441 338 2488 338 
Q 2538 338 2575 359 
Q 2641 400 2828 588 
L 2828 413 
Q 2478 -56 2159 -56 
Q 2006 -56 1915 50 
Q 1825 156 1822 413 
z
M 1822 616 
L 1822 1706 
Q 1350 1519 1213 1441 
Q 966 1303 859 1153 
Q 753 1003 753 825 
Q 753 600 887 451 
Q 1022 303 1197 303 
Q 1434 303 1822 616 
z
" transform="scale(0.015625)"/>
       <path id="TimesNewRomanPSMT-72" d="M 1038 2947 
L 1038 2303 
Q 1397 2947 1775 2947 
Q 1947 2947 2059 2842 
Q 2172 2738 2172 2600 
Q 2172 2478 2090 2393 
Q 2009 2309 1897 2309 
Q 1788 2309 1652 2417 
Q 1516 2525 1450 2525 
Q 1394 2525 1328 2463 
Q 1188 2334 1038 2041 
L 1038 669 
Q 1038 431 1097 309 
Q 1138 225 1241 169 
Q 1344 113 1538 113 
L 1538 0 
L 72 0 
L 72 113 
Q 291 113 397 181 
Q 475 231 506 341 
Q 522 394 522 644 
L 522 1753 
Q 522 2253 501 2348 
Q 481 2444 426 2487 
Q 372 2531 291 2531 
Q 194 2531 72 2484 
L 41 2597 
L 906 2947 
L 1038 2947 
z
" transform="scale(0.015625)"/>
      </defs>
      <use xlink:href="#TimesNewRomanPSMT-59"/>
      <use xlink:href="#TimesNewRomanPSMT-65" x="62.216797"/>
      <use xlink:href="#TimesNewRomanPSMT-61" x="106.601562"/>
      <use xlink:href="#TimesNewRomanPSMT-72" x="150.986328"/>
     </g>
    </g>
   </g>
   <g id="matplotlib.axis_2">
    <g id="ytick_1">
     <g id="line2d_12">
      <defs>
       <path id="m49302e068f" d="M 0 0 
L -3.5 0 
" style="stroke: #000000; stroke-width: 0.8"/>
      </defs>
      <g>
       <use xlink:href="#m49302e068f" x="49.760938" y="283.285658" style="stroke: #000000; stroke-width: 0.8"/>
      </g>
     </g>
     <g id="text_13">
      <!-- −150 -->
      <g transform="translate(22.121875 286.757533) scale(0.1 -0.1)">
       <defs>
        <path id="TimesNewRomanPSMT-2212" d="M 3484 2000 
L 116 2000 
L 116 2256 
L 3484 2256 
L 3484 2000 
z
" transform="scale(0.015625)"/>
       </defs>
       <use xlink:href="#TimesNewRomanPSMT-2212"/>
       <use xlink:href="#TimesNewRomanPSMT-31" x="56.396484"/>
       <use xlink:href="#TimesNewRomanPSMT-35" x="106.396484"/>
       <use xlink:href="#TimesNewRomanPSMT-30" x="156.396484"/>
      </g>
     </g>
    </g>
    <g id="ytick_2">
     <g id="line2d_13">
      <g>
       <use xlink:href="#m49302e068f" x="49.760938" y="247.364189" style="stroke: #000000; stroke-width: 0.8"/>
      </g>
     </g>
     <g id="text_14">
      <!-- −100 -->
      <g transform="translate(22.121875 250.836064) scale(0.1 -0.1)">
       <use xlink:href="#TimesNewRomanPSMT-2212"/>
       <use xlink:href="#TimesNewRomanPSMT-31" x="56.396484"/>
       <use xlink:href="#TimesNewRomanPSMT-30" x="106.396484"/>
       <use xlink:href="#TimesNewRomanPSMT-30" x="156.396484"/>
      </g>
     </g>
    </g>
    <g id="ytick_3">
     <g id="line2d_14">
      <g>
       <use xlink:href="#m49302e068f" x="49.760938" y="211.442719" style="stroke: #000000; stroke-width: 0.8"/>
      </g>
     </g>
     <g id="text_15">
      <!-- −50 -->
      <g transform="translate(27.121875 214.914594) scale(0.1 -0.1)">
       <use xlink:href="#TimesNewRomanPSMT-2212"/>
       <use xlink:href="#TimesNewRomanPSMT-35" x="56.396484"/>
       <use xlink:href="#TimesNewRomanPSMT-30" x="106.396484"/>
      </g>
     </g>
    </g>
    <g id="ytick_4">
     <g id="line2d_15">
      <g>
       <use xlink:href="#m49302e068f" x="49.760938" y="175.52125" style="stroke: #000000; stroke-width: 0.8"/>
      </g>
     </g>
     <g id="text_16">
      <!-- 0 -->
      <g transform="translate(37.760938 178.993125) scale(0.1 -0.1)">
       <use xlink:href="#TimesNewRomanPSMT-30"/>
      </g>
     </g>
    </g>
    <g id="ytick_5">
     <g id="line2d_16">
      <g>
       <use xlink:href="#m49302e068f" x="49.760938" y="139.599781" style="stroke: #000000; stroke-width: 0.8"/>
      </g>
     </g>
     <g id="text_17">
      <!-- 50 -->
      <g transform="translate(32.760938 143.071656) scale(0.1 -0.1)">
       <use xlink:href="#TimesNewRomanPSMT-35"/>
       <use xlink:href="#TimesNewRomanPSMT-30" x="50"/>
      </g>
     </g>
    </g>
    <g id="ytick_6">
     <g id="line2d_17">
      <g>
       <use xlink:href="#m49302e068f" x="49.760938" y="103.678311" style="stroke: #000000; stroke-width: 0.8"/>
      </g>
     </g>
     <g id="text_18">
      <!-- 100 -->
      <g transform="translate(27.760938 107.150186) scale(0.1 -0.1)">
       <use xlink:href="#TimesNewRomanPSMT-31"/>
       <use xlink:href="#TimesNewRomanPSMT-30" x="50"/>
       <use xlink:href="#TimesNewRomanPSMT-30" x="100"/>
      </g>
     </g>
    </g>
    <g id="ytick_7">
     <g id="line2d_18">
      <g>
       <use xlink:href="#m49302e068f" x="49.760938" y="67.756842" style="stroke: #000000; stroke-width: 0.8"/>
      </g>
     </g>
     <g id="text_19">
      <!-- 150 -->
      <g transform="translate(27.760938 71.228717) scale(0.1 -0.1)">
       <use xlink:href="#TimesNewRomanPSMT-31"/>
       <use xlink:href="#TimesNewRomanPSMT-35" x="50"/>
       <use xlink:href="#TimesNewRomanPSMT-30" x="100"/>
      </g>
     </g>
    </g>
    <g id="text_20">
     <!-- Hotel Occupancy Rate (%) -->
     <g transform="translate(15.5325 240.327812) rotate(-90) scale(0.12 -0.12)">
      <defs>
       <path id="TimesNewRomanPSMT-48" d="M 1316 2272 
L 3284 2272 
L 3284 3484 
Q 3284 3809 3244 3913 
Q 3213 3991 3113 4047 
Q 2978 4122 2828 4122 
L 2678 4122 
L 2678 4238 
L 4491 4238 
L 4491 4122 
L 4341 4122 
Q 4191 4122 4056 4050 
Q 3956 4000 3920 3898 
Q 3884 3797 3884 3484 
L 3884 750 
Q 3884 428 3925 325 
Q 3956 247 4053 191 
Q 4191 116 4341 116 
L 4491 116 
L 4491 0 
L 2678 0 
L 2678 116 
L 2828 116 
Q 3088 116 3206 269 
Q 3284 369 3284 750 
L 3284 2041 
L 1316 2041 
L 1316 750 
Q 1316 428 1356 325 
Q 1388 247 1488 191 
Q 1622 116 1772 116 
L 1925 116 
L 1925 0 
L 109 0 
L 109 116 
L 259 116 
Q 522 116 641 269 
Q 716 369 716 750 
L 716 3484 
Q 716 3809 675 3913 
Q 644 3991 547 4047 
Q 409 4122 259 4122 
L 109 4122 
L 109 4238 
L 1925 4238 
L 1925 4122 
L 1772 4122 
Q 1622 4122 1488 4050 
Q 1391 4000 1353 3898 
Q 1316 3797 1316 3484 
L 1316 2272 
z
" transform="scale(0.015625)"/>
       <path id="TimesNewRomanPSMT-6f" d="M 1600 2947 
Q 2250 2947 2644 2453 
Q 2978 2031 2978 1484 
Q 2978 1100 2793 706 
Q 2609 313 2286 112 
Q 1963 -88 1566 -88 
Q 919 -88 538 428 
Q 216 863 216 1403 
Q 216 1797 411 2186 
Q 606 2575 925 2761 
Q 1244 2947 1600 2947 
z
M 1503 2744 
Q 1338 2744 1170 2645 
Q 1003 2547 900 2300 
Q 797 2053 797 1666 
Q 797 1041 1045 587 
Q 1294 134 1700 134 
Q 2003 134 2200 384 
Q 2397 634 2397 1244 
Q 2397 2006 2069 2444 
Q 1847 2744 1503 2744 
z
" transform="scale(0.015625)"/>
       <path id="TimesNewRomanPSMT-74" d="M 1031 3803 
L 1031 2863 
L 1700 2863 
L 1700 2644 
L 1031 2644 
L 1031 788 
Q 1031 509 1111 412 
Q 1191 316 1316 316 
Q 1419 316 1516 380 
Q 1613 444 1666 569 
L 1788 569 
Q 1678 263 1478 108 
Q 1278 -47 1066 -47 
Q 922 -47 784 33 
Q 647 113 581 261 
Q 516 409 516 719 
L 516 2644 
L 63 2644 
L 63 2747 
Q 234 2816 414 2980 
Q 594 3144 734 3369 
Q 806 3488 934 3803 
L 1031 3803 
z
" transform="scale(0.015625)"/>
       <path id="TimesNewRomanPSMT-6c" d="M 1184 4444 
L 1184 647 
Q 1184 378 1223 290 
Q 1263 203 1344 158 
Q 1425 113 1647 113 
L 1647 0 
L 244 0 
L 244 113 
Q 441 113 512 153 
Q 584 194 625 287 
Q 666 381 666 647 
L 666 3247 
Q 666 3731 644 3842 
Q 622 3953 573 3993 
Q 525 4034 450 4034 
Q 369 4034 244 3984 
L 191 4094 
L 1044 4444 
L 1184 4444 
z
" transform="scale(0.015625)"/>
       <path id="TimesNewRomanPSMT-20" transform="scale(0.015625)"/>
       <path id="TimesNewRomanPSMT-4f" d="M 2341 4334 
Q 3166 4334 3770 3707 
Q 4375 3081 4375 2144 
Q 4375 1178 3765 540 
Q 3156 -97 2291 -97 
Q 1416 -97 820 525 
Q 225 1147 225 2134 
Q 225 3144 913 3781 
Q 1509 4334 2341 4334 
z
M 2281 4106 
Q 1713 4106 1369 3684 
Q 941 3159 941 2147 
Q 941 1109 1384 550 
Q 1725 125 2284 125 
Q 2881 125 3270 590 
Q 3659 1056 3659 2059 
Q 3659 3147 3231 3681 
Q 2888 4106 2281 4106 
z
" transform="scale(0.015625)"/>
       <path id="TimesNewRomanPSMT-63" d="M 2631 1088 
Q 2516 522 2178 217 
Q 1841 -88 1431 -88 
Q 944 -88 581 321 
Q 219 731 219 1428 
Q 219 2103 620 2525 
Q 1022 2947 1584 2947 
Q 2006 2947 2278 2723 
Q 2550 2500 2550 2259 
Q 2550 2141 2473 2067 
Q 2397 1994 2259 1994 
Q 2075 1994 1981 2113 
Q 1928 2178 1911 2362 
Q 1894 2547 1784 2644 
Q 1675 2738 1481 2738 
Q 1169 2738 978 2506 
Q 725 2200 725 1697 
Q 725 1184 976 792 
Q 1228 400 1656 400 
Q 1963 400 2206 609 
Q 2378 753 2541 1131 
L 2631 1088 
z
" transform="scale(0.015625)"/>
       <path id="TimesNewRomanPSMT-75" d="M 2709 2863 
L 2709 1128 
Q 2709 631 2732 520 
Q 2756 409 2807 365 
Q 2859 322 2928 322 
Q 3025 322 3147 375 
L 3191 266 
L 2334 -88 
L 2194 -88 
L 2194 519 
Q 1825 119 1631 15 
Q 1438 -88 1222 -88 
Q 981 -88 804 51 
Q 628 191 559 409 
Q 491 628 491 1028 
L 491 2306 
Q 491 2509 447 2587 
Q 403 2666 317 2708 
Q 231 2750 6 2747 
L 6 2863 
L 1009 2863 
L 1009 947 
Q 1009 547 1148 422 
Q 1288 297 1484 297 
Q 1619 297 1789 381 
Q 1959 466 2194 703 
L 2194 2325 
Q 2194 2569 2105 2655 
Q 2016 2741 1734 2747 
L 1734 2863 
L 2709 2863 
z
" transform="scale(0.015625)"/>
       <path id="TimesNewRomanPSMT-70" d="M -6 2578 
L 875 2934 
L 994 2934 
L 994 2266 
Q 1216 2644 1439 2795 
Q 1663 2947 1909 2947 
Q 2341 2947 2628 2609 
Q 2981 2197 2981 1534 
Q 2981 794 2556 309 
Q 2206 -88 1675 -88 
Q 1444 -88 1275 -22 
Q 1150 25 994 166 
L 994 -706 
Q 994 -1000 1030 -1079 
Q 1066 -1159 1155 -1206 
Q 1244 -1253 1478 -1253 
L 1478 -1369 
L -22 -1369 
L -22 -1253 
L 56 -1253 
Q 228 -1256 350 -1188 
Q 409 -1153 442 -1076 
Q 475 -1000 475 -688 
L 475 2019 
Q 475 2297 450 2372 
Q 425 2447 370 2484 
Q 316 2522 222 2522 
Q 147 2522 31 2478 
L -6 2578 
z
M 994 2081 
L 994 1013 
Q 994 666 1022 556 
Q 1066 375 1236 237 
Q 1406 100 1666 100 
Q 1978 100 2172 344 
Q 2425 663 2425 1241 
Q 2425 1897 2138 2250 
Q 1938 2494 1663 2494 
Q 1513 2494 1366 2419 
Q 1253 2363 994 2081 
z
" transform="scale(0.015625)"/>
       <path id="TimesNewRomanPSMT-6e" d="M 1034 2341 
Q 1538 2947 1994 2947 
Q 2228 2947 2397 2830 
Q 2566 2713 2666 2444 
Q 2734 2256 2734 1869 
L 2734 647 
Q 2734 375 2778 278 
Q 2813 200 2889 156 
Q 2966 113 3172 113 
L 3172 0 
L 1756 0 
L 1756 113 
L 1816 113 
Q 2016 113 2095 173 
Q 2175 234 2206 353 
Q 2219 400 2219 647 
L 2219 1819 
Q 2219 2209 2117 2386 
Q 2016 2563 1775 2563 
Q 1403 2563 1034 2156 
L 1034 647 
Q 1034 356 1069 288 
Q 1113 197 1189 155 
Q 1266 113 1500 113 
L 1500 0 
L 84 0 
L 84 113 
L 147 113 
Q 366 113 442 223 
Q 519 334 519 647 
L 519 1709 
Q 519 2225 495 2337 
Q 472 2450 423 2490 
Q 375 2531 294 2531 
Q 206 2531 84 2484 
L 38 2597 
L 900 2947 
L 1034 2947 
L 1034 2341 
z
" transform="scale(0.015625)"/>
       <path id="TimesNewRomanPSMT-79" d="M 38 2863 
L 1372 2863 
L 1372 2747 
L 1306 2747 
Q 1166 2747 1095 2686 
Q 1025 2625 1025 2534 
Q 1025 2413 1128 2197 
L 1825 753 
L 2466 2334 
Q 2519 2463 2519 2588 
Q 2519 2644 2497 2672 
Q 2472 2706 2419 2726 
Q 2366 2747 2231 2747 
L 2231 2863 
L 3163 2863 
L 3163 2747 
Q 3047 2734 2984 2696 
Q 2922 2659 2847 2556 
Q 2819 2513 2741 2316 
L 1575 -541 
Q 1406 -956 1132 -1168 
Q 859 -1381 606 -1381 
Q 422 -1381 303 -1275 
Q 184 -1169 184 -1031 
Q 184 -900 270 -820 
Q 356 -741 506 -741 
Q 609 -741 788 -809 
Q 913 -856 944 -856 
Q 1038 -856 1148 -759 
Q 1259 -663 1372 -384 
L 1575 113 
L 547 2272 
Q 500 2369 397 2513 
Q 319 2622 269 2659 
Q 197 2709 38 2747 
L 38 2863 
z
" transform="scale(0.015625)"/>
       <path id="TimesNewRomanPSMT-52" d="M 4325 0 
L 3194 0 
L 1759 1981 
Q 1600 1975 1500 1975 
Q 1459 1975 1412 1976 
Q 1366 1978 1316 1981 
L 1316 750 
Q 1316 350 1403 253 
Q 1522 116 1759 116 
L 1925 116 
L 1925 0 
L 109 0 
L 109 116 
L 269 116 
Q 538 116 653 291 
Q 719 388 719 750 
L 719 3488 
Q 719 3888 631 3984 
Q 509 4122 269 4122 
L 109 4122 
L 109 4238 
L 1653 4238 
Q 2328 4238 2648 4139 
Q 2969 4041 3192 3777 
Q 3416 3513 3416 3147 
Q 3416 2756 3161 2468 
Q 2906 2181 2372 2063 
L 3247 847 
Q 3547 428 3762 290 
Q 3978 153 4325 116 
L 4325 0 
z
M 1316 2178 
Q 1375 2178 1419 2176 
Q 1463 2175 1491 2175 
Q 2097 2175 2405 2437 
Q 2713 2700 2713 3106 
Q 2713 3503 2464 3751 
Q 2216 4000 1806 4000 
Q 1625 4000 1316 3941 
L 1316 2178 
z
" transform="scale(0.015625)"/>
       <path id="TimesNewRomanPSMT-28" d="M 1988 -1253 
L 1988 -1369 
Q 1516 -1131 1200 -813 
Q 750 -359 506 256 
Q 263 872 263 1534 
Q 263 2503 741 3301 
Q 1219 4100 1988 4444 
L 1988 4313 
Q 1603 4100 1356 3731 
Q 1109 3363 987 2797 
Q 866 2231 866 1616 
Q 866 947 969 400 
Q 1050 -31 1165 -292 
Q 1281 -553 1476 -793 
Q 1672 -1034 1988 -1253 
z
" transform="scale(0.015625)"/>
       <path id="TimesNewRomanPSMT-25" d="M 4350 4334 
L 1263 -175 
L 984 -175 
L 4072 4334 
L 4350 4334 
z
M 1138 4334 
Q 1559 4334 1792 3984 
Q 2025 3634 2025 3181 
Q 2025 2638 1762 2341 
Q 1500 2044 1131 2044 
Q 884 2044 678 2180 
Q 472 2316 348 2584 
Q 225 2853 225 3181 
Q 225 3509 350 3786 
Q 475 4063 692 4198 
Q 909 4334 1138 4334 
z
M 1128 4159 
Q 969 4159 845 3971 
Q 722 3784 722 3184 
Q 722 2750 791 2522 
Q 844 2350 956 2256 
Q 1022 2200 1119 2200 
Q 1269 2200 1375 2363 
Q 1531 2603 1531 3166 
Q 1531 3759 1378 4000 
Q 1278 4159 1128 4159 
z
M 4206 2103 
Q 4428 2103 4648 1962 
Q 4869 1822 4989 1553 
Q 5109 1284 5109 963 
Q 5109 409 4843 117 
Q 4578 -175 4216 -175 
Q 3988 -175 3773 -34 
Q 3559 106 3436 367 
Q 3313 628 3313 963 
Q 3313 1291 3436 1562 
Q 3559 1834 3773 1968 
Q 3988 2103 4206 2103 
z
M 4209 1938 
Q 4059 1938 3950 1769 
Q 3809 1550 3809 941 
Q 3809 381 3953 159 
Q 4059 0 4209 0 
Q 4353 0 4466 172 
Q 4616 400 4616 956 
Q 4616 1544 4466 1778 
Q 4363 1938 4209 1938 
z
" transform="scale(0.015625)"/>
       <path id="TimesNewRomanPSMT-29" d="M 144 4313 
L 144 4444 
Q 619 4209 934 3891 
Q 1381 3434 1625 2820 
Q 1869 2206 1869 1541 
Q 1869 572 1392 -226 
Q 916 -1025 144 -1369 
L 144 -1253 
Q 528 -1038 776 -670 
Q 1025 -303 1145 264 
Q 1266 831 1266 1447 
Q 1266 2113 1163 2663 
Q 1084 3094 967 3353 
Q 850 3613 656 3853 
Q 463 4094 144 4313 
z
" transform="scale(0.015625)"/>
      </defs>
      <use xlink:href="#TimesNewRomanPSMT-48"/>
      <use xlink:href="#TimesNewRomanPSMT-6f" x="72.216797"/>
      <use xlink:href="#TimesNewRomanPSMT-74" x="122.216797"/>
      <use xlink:href="#TimesNewRomanPSMT-65" x="150"/>
      <use xlink:href="#TimesNewRomanPSMT-6c" x="194.384766"/>
      <use xlink:href="#TimesNewRomanPSMT-20" x="222.167969"/>
      <use xlink:href="#TimesNewRomanPSMT-4f" x="247.167969"/>
      <use xlink:href="#TimesNewRomanPSMT-63" x="319.384766"/>
      <use xlink:href="#TimesNewRomanPSMT-63" x="363.769531"/>
      <use xlink:href="#TimesNewRomanPSMT-75" x="408.154297"/>
      <use xlink:href="#TimesNewRomanPSMT-70" x="458.154297"/>
      <use xlink:href="#TimesNewRomanPSMT-61" x="508.154297"/>
      <use xlink:href="#TimesNewRomanPSMT-6e" x="552.539062"/>
      <use xlink:href="#TimesNewRomanPSMT-63" x="602.539062"/>
      <use xlink:href="#TimesNewRomanPSMT-79" x="646.923828"/>
      <use xlink:href="#TimesNewRomanPSMT-20" x="696.923828"/>
      <use xlink:href="#TimesNewRomanPSMT-52" x="721.923828"/>
      <use xlink:href="#TimesNewRomanPSMT-61" x="788.623047"/>
      <use xlink:href="#TimesNewRomanPSMT-74" x="833.007812"/>
      <use xlink:href="#TimesNewRomanPSMT-65" x="860.791016"/>
      <use xlink:href="#TimesNewRomanPSMT-20" x="905.175781"/>
      <use xlink:href="#TimesNewRomanPSMT-28" x="930.175781"/>
      <use xlink:href="#TimesNewRomanPSMT-25" x="963.476562"/>
      <use xlink:href="#TimesNewRomanPSMT-29" x="1046.777344"/>
     </g>
    </g>
   </g>
   <g id="patch_3">
    <path d="M 49.760938 314.12125 
L 49.760938 36.92125 
" style="fill: none; stroke: #000000; stroke-width: 0.8; stroke-linejoin: miter; stroke-linecap: square"/>
   </g>
   <g id="patch_4">
    <path d="M 438.560938 314.12125 
L 438.560938 36.92125 
" style="fill: none; stroke: #000000; stroke-width: 0.8; stroke-linejoin: miter; stroke-linecap: square"/>
   </g>
   <g id="patch_5">
    <path d="M 49.760938 314.12125 
L 438.560938 314.12125 
" style="fill: none; stroke: #000000; stroke-width: 0.8; stroke-linejoin: miter; stroke-linecap: square"/>
   </g>
   <g id="patch_6">
    <path d="M 49.760938 36.92125 
L 438.560938 36.92125 
" style="fill: none; stroke: #000000; stroke-width: 0.8; stroke-linejoin: miter; stroke-linecap: square"/>
   </g>
   <g id="text_21">
    <!-- Hotel Occupancy Rate from 1983 to 1993 (%)  -->
    <g transform="translate(112.752344 16.92125) scale(0.14 -0.14)">
     <defs>
      <path id="TimesNewRomanPSMT-66" d="M 1319 2638 
L 1319 756 
Q 1319 356 1406 250 
Q 1522 113 1716 113 
L 1975 113 
L 1975 0 
L 266 0 
L 266 113 
L 394 113 
Q 519 113 622 175 
Q 725 238 764 344 
Q 803 450 803 756 
L 803 2638 
L 247 2638 
L 247 2863 
L 803 2863 
L 803 3050 
Q 803 3478 940 3775 
Q 1078 4072 1361 4255 
Q 1644 4438 1997 4438 
Q 2325 4438 2600 4225 
Q 2781 4084 2781 3909 
Q 2781 3816 2700 3733 
Q 2619 3650 2525 3650 
Q 2453 3650 2373 3701 
Q 2294 3753 2178 3923 
Q 2063 4094 1966 4153 
Q 1869 4213 1750 4213 
Q 1606 4213 1506 4136 
Q 1406 4059 1362 3898 
Q 1319 3738 1319 3069 
L 1319 2863 
L 2056 2863 
L 2056 2638 
L 1319 2638 
z
" transform="scale(0.015625)"/>
      <path id="TimesNewRomanPSMT-6d" d="M 1050 2338 
Q 1363 2650 1419 2697 
Q 1559 2816 1721 2881 
Q 1884 2947 2044 2947 
Q 2313 2947 2506 2790 
Q 2700 2634 2766 2338 
Q 3088 2713 3309 2830 
Q 3531 2947 3766 2947 
Q 3994 2947 4170 2830 
Q 4347 2713 4450 2447 
Q 4519 2266 4519 1878 
L 4519 647 
Q 4519 378 4559 278 
Q 4591 209 4675 161 
Q 4759 113 4950 113 
L 4950 0 
L 3538 0 
L 3538 113 
L 3597 113 
Q 3781 113 3884 184 
Q 3956 234 3988 344 
Q 4000 397 4000 647 
L 4000 1878 
Q 4000 2228 3916 2372 
Q 3794 2572 3525 2572 
Q 3359 2572 3192 2489 
Q 3025 2406 2788 2181 
L 2781 2147 
L 2788 2013 
L 2788 647 
Q 2788 353 2820 281 
Q 2853 209 2943 161 
Q 3034 113 3253 113 
L 3253 0 
L 1806 0 
L 1806 113 
Q 2044 113 2133 169 
Q 2222 225 2256 338 
Q 2272 391 2272 647 
L 2272 1878 
Q 2272 2228 2169 2381 
Q 2031 2581 1784 2581 
Q 1616 2581 1450 2491 
Q 1191 2353 1050 2181 
L 1050 647 
Q 1050 366 1089 281 
Q 1128 197 1204 155 
Q 1281 113 1516 113 
L 1516 0 
L 100 0 
L 100 113 
Q 297 113 375 155 
Q 453 197 493 289 
Q 534 381 534 647 
L 534 1741 
Q 534 2213 506 2350 
Q 484 2453 437 2492 
Q 391 2531 309 2531 
Q 222 2531 100 2484 
L 53 2597 
L 916 2947 
L 1050 2947 
L 1050 2338 
z
" transform="scale(0.015625)"/>
     </defs>
     <use xlink:href="#TimesNewRomanPSMT-48"/>
     <use xlink:href="#TimesNewRomanPSMT-6f" x="72.216797"/>
     <use xlink:href="#TimesNewRomanPSMT-74" x="122.216797"/>
     <use xlink:href="#TimesNewRomanPSMT-65" x="150"/>
     <use xlink:href="#TimesNewRomanPSMT-6c" x="194.384766"/>
     <use xlink:href="#TimesNewRomanPSMT-20" x="222.167969"/>
     <use xlink:href="#TimesNewRomanPSMT-4f" x="247.167969"/>
     <use xlink:href="#TimesNewRomanPSMT-63" x="319.384766"/>
     <use xlink:href="#TimesNewRomanPSMT-63" x="363.769531"/>
     <use xlink:href="#TimesNewRomanPSMT-75" x="408.154297"/>
     <use xlink:href="#TimesNewRomanPSMT-70" x="458.154297"/>
     <use xlink:href="#TimesNewRomanPSMT-61" x="508.154297"/>
     <use xlink:href="#TimesNewRomanPSMT-6e" x="552.539062"/>
     <use xlink:href="#TimesNewRomanPSMT-63" x="602.539062"/>
     <use xlink:href="#TimesNewRomanPSMT-79" x="646.923828"/>
     <use xlink:href="#TimesNewRomanPSMT-20" x="696.923828"/>
     <use xlink:href="#TimesNewRomanPSMT-52" x="721.923828"/>
     <use xlink:href="#TimesNewRomanPSMT-61" x="788.623047"/>
     <use xlink:href="#TimesNewRomanPSMT-74" x="833.007812"/>
     <use xlink:href="#TimesNewRomanPSMT-65" x="860.791016"/>
     <use xlink:href="#TimesNewRomanPSMT-20" x="905.175781"/>
     <use xlink:href="#TimesNewRomanPSMT-66" x="930.175781"/>
     <use xlink:href="#TimesNewRomanPSMT-72" x="963.476562"/>
     <use xlink:href="#TimesNewRomanPSMT-6f" x="996.777344"/>
     <use xlink:href="#TimesNewRomanPSMT-6d" x="1046.777344"/>
     <use xlink:href="#TimesNewRomanPSMT-20" x="1124.560547"/>
     <use xlink:href="#TimesNewRomanPSMT-31" x="1149.560547"/>
     <use xlink:href="#TimesNewRomanPSMT-39" x="1199.560547"/>
     <use xlink:href="#TimesNewRomanPSMT-38" x="1249.560547"/>
     <use xlink:href="#TimesNewRomanPSMT-33" x="1299.560547"/>
     <use xlink:href="#TimesNewRomanPSMT-20" x="1349.560547"/>
     <use xlink:href="#TimesNewRomanPSMT-74" x="1374.560547"/>
     <use xlink:href="#TimesNewRomanPSMT-6f" x="1402.34375"/>
     <use xlink:href="#TimesNewRomanPSMT-20" x="1452.34375"/>
     <use xlink:href="#TimesNewRomanPSMT-31" x="1477.34375"/>
     <use xlink:href="#TimesNewRomanPSMT-39" x="1527.34375"/>
     <use xlink:href="#TimesNewRomanPSMT-39" x="1577.34375"/>
     <use xlink:href="#TimesNewRomanPSMT-33" x="1627.34375"/>
     <use xlink:href="#TimesNewRomanPSMT-20" x="1677.34375"/>
     <use xlink:href="#TimesNewRomanPSMT-28" x="1702.34375"/>
     <use xlink:href="#TimesNewRomanPSMT-25" x="1735.644531"/>
     <use xlink:href="#TimesNewRomanPSMT-29" x="1818.945312"/>
     <use xlink:href="#TimesNewRomanPSMT-20" x="1852.246094"/>
    </g>
   </g>
   <g id="legend_1">
    <g id="patch_7">
     <path d="M 455.336938 156.73375 
L 475.336938 156.73375 
L 475.336938 149.73375 
L 455.336938 149.73375 
z
" style="fill: #1f77b4"/>
    </g>
    <g id="text_22">
     <!-- Luxury Resorts -->
     <g transform="translate(483.336938 156.73375) scale(0.1 -0.1)">
      <defs>
       <path id="TimesNewRomanPSMT-4c" d="M 3669 1172 
L 3772 1150 
L 3409 0 
L 128 0 
L 128 116 
L 288 116 
Q 556 116 672 291 
Q 738 391 738 753 
L 738 3488 
Q 738 3884 650 3984 
Q 528 4122 288 4122 
L 128 4122 
L 128 4238 
L 2047 4238 
L 2047 4122 
Q 1709 4125 1573 4059 
Q 1438 3994 1388 3894 
Q 1338 3794 1338 3416 
L 1338 753 
Q 1338 494 1388 397 
Q 1425 331 1503 300 
Q 1581 269 1991 269 
L 2300 269 
Q 2788 269 2984 341 
Q 3181 413 3343 595 
Q 3506 778 3669 1172 
z
" transform="scale(0.015625)"/>
       <path id="TimesNewRomanPSMT-78" d="M 84 2863 
L 1431 2863 
L 1431 2747 
Q 1303 2747 1251 2703 
Q 1200 2659 1200 2588 
Q 1200 2513 1309 2356 
Q 1344 2306 1413 2200 
L 1616 1875 
L 1850 2200 
Q 2075 2509 2075 2591 
Q 2075 2656 2022 2701 
Q 1969 2747 1850 2747 
L 1850 2863 
L 2819 2863 
L 2819 2747 
Q 2666 2738 2553 2663 
Q 2400 2556 2134 2200 
L 1744 1678 
L 2456 653 
Q 2719 275 2831 198 
Q 2944 122 3122 113 
L 3122 0 
L 1772 0 
L 1772 113 
Q 1913 113 1991 175 
Q 2050 219 2050 291 
Q 2050 363 1850 653 
L 1431 1266 
L 972 653 
Q 759 369 759 316 
Q 759 241 829 180 
Q 900 119 1041 113 
L 1041 0 
L 106 0 
L 106 113 
Q 219 128 303 191 
Q 422 281 703 653 
L 1303 1450 
L 759 2238 
Q 528 2575 401 2661 
Q 275 2747 84 2747 
L 84 2863 
z
" transform="scale(0.015625)"/>
       <path id="TimesNewRomanPSMT-73" d="M 2050 2947 
L 2050 1972 
L 1947 1972 
Q 1828 2431 1642 2597 
Q 1456 2763 1169 2763 
Q 950 2763 815 2647 
Q 681 2531 681 2391 
Q 681 2216 781 2091 
Q 878 1963 1175 1819 
L 1631 1597 
Q 2266 1288 2266 781 
Q 2266 391 1970 151 
Q 1675 -88 1309 -88 
Q 1047 -88 709 6 
Q 606 38 541 38 
Q 469 38 428 -44 
L 325 -44 
L 325 978 
L 428 978 
Q 516 541 762 319 
Q 1009 97 1316 97 
Q 1531 97 1667 223 
Q 1803 350 1803 528 
Q 1803 744 1651 891 
Q 1500 1038 1047 1263 
Q 594 1488 453 1669 
Q 313 1847 313 2119 
Q 313 2472 555 2709 
Q 797 2947 1181 2947 
Q 1350 2947 1591 2875 
Q 1750 2828 1803 2828 
Q 1853 2828 1881 2850 
Q 1909 2872 1947 2947 
L 2050 2947 
z
" transform="scale(0.015625)"/>
      </defs>
      <use xlink:href="#TimesNewRomanPSMT-4c"/>
      <use xlink:href="#TimesNewRomanPSMT-75" x="61.083984"/>
      <use xlink:href="#TimesNewRomanPSMT-78" x="111.083984"/>
      <use xlink:href="#TimesNewRomanPSMT-75" x="161.083984"/>
      <use xlink:href="#TimesNewRomanPSMT-72" x="211.083984"/>
      <use xlink:href="#TimesNewRomanPSMT-79" x="244.384766"/>
      <use xlink:href="#TimesNewRomanPSMT-20" x="294.384766"/>
      <use xlink:href="#TimesNewRomanPSMT-52" x="319.384766"/>
      <use xlink:href="#TimesNewRomanPSMT-65" x="386.083984"/>
      <use xlink:href="#TimesNewRomanPSMT-73" x="430.46875"/>
      <use xlink:href="#TimesNewRomanPSMT-6f" x="469.384766"/>
      <use xlink:href="#TimesNewRomanPSMT-72" x="519.384766"/>
      <use xlink:href="#TimesNewRomanPSMT-74" x="552.685547"/>
      <use xlink:href="#TimesNewRomanPSMT-73" x="580.46875"/>
     </g>
    </g>
    <g id="patch_8">
     <path d="M 455.336938 170.891562 
L 475.336938 170.891562 
L 475.336938 163.891562 
L 455.336938 163.891562 
z
" style="fill: #aec7e8"/>
    </g>
    <g id="text_23">
     <!-- Business Hotels -->
     <g transform="translate(483.336938 170.891562) scale(0.1 -0.1)">
      <defs>
       <path id="TimesNewRomanPSMT-42" d="M 2956 2163 
Q 3397 2069 3616 1863 
Q 3919 1575 3919 1159 
Q 3919 844 3719 555 
Q 3519 266 3170 133 
Q 2822 0 2106 0 
L 106 0 
L 106 116 
L 266 116 
Q 531 116 647 284 
Q 719 394 719 750 
L 719 3488 
Q 719 3881 628 3984 
Q 506 4122 266 4122 
L 106 4122 
L 106 4238 
L 1938 4238 
Q 2450 4238 2759 4163 
Q 3228 4050 3475 3764 
Q 3722 3478 3722 3106 
Q 3722 2788 3528 2536 
Q 3334 2284 2956 2163 
z
M 1319 2331 
Q 1434 2309 1582 2298 
Q 1731 2288 1909 2288 
Q 2366 2288 2595 2386 
Q 2825 2484 2947 2687 
Q 3069 2891 3069 3131 
Q 3069 3503 2766 3765 
Q 2463 4028 1881 4028 
Q 1569 4028 1319 3959 
L 1319 2331 
z
M 1319 306 
Q 1681 222 2034 222 
Q 2600 222 2897 476 
Q 3194 731 3194 1106 
Q 3194 1353 3059 1581 
Q 2925 1809 2622 1940 
Q 2319 2072 1872 2072 
Q 1678 2072 1540 2065 
Q 1403 2059 1319 2044 
L 1319 306 
z
" transform="scale(0.015625)"/>
       <path id="TimesNewRomanPSMT-69" d="M 928 4444 
Q 1059 4444 1151 4351 
Q 1244 4259 1244 4128 
Q 1244 3997 1151 3903 
Q 1059 3809 928 3809 
Q 797 3809 703 3903 
Q 609 3997 609 4128 
Q 609 4259 701 4351 
Q 794 4444 928 4444 
z
M 1188 2947 
L 1188 647 
Q 1188 378 1227 289 
Q 1266 200 1342 156 
Q 1419 113 1622 113 
L 1622 0 
L 231 0 
L 231 113 
Q 441 113 512 153 
Q 584 194 626 287 
Q 669 381 669 647 
L 669 1750 
Q 669 2216 641 2353 
Q 619 2453 572 2492 
Q 525 2531 444 2531 
Q 356 2531 231 2484 
L 188 2597 
L 1050 2947 
L 1188 2947 
z
" transform="scale(0.015625)"/>
      </defs>
      <use xlink:href="#TimesNewRomanPSMT-42"/>
      <use xlink:href="#TimesNewRomanPSMT-75" x="66.699219"/>
      <use xlink:href="#TimesNewRomanPSMT-73" x="116.699219"/>
      <use xlink:href="#TimesNewRomanPSMT-69" x="155.615234"/>
      <use xlink:href="#TimesNewRomanPSMT-6e" x="183.398438"/>
      <use xlink:href="#TimesNewRomanPSMT-65" x="233.398438"/>
      <use xlink:href="#TimesNewRomanPSMT-73" x="277.783203"/>
      <use xlink:href="#TimesNewRomanPSMT-73" x="316.699219"/>
      <use xlink:href="#TimesNewRomanPSMT-20" x="355.615234"/>
      <use xlink:href="#TimesNewRomanPSMT-48" x="380.615234"/>
      <use xlink:href="#TimesNewRomanPSMT-6f" x="452.832031"/>
      <use xlink:href="#TimesNewRomanPSMT-74" x="502.832031"/>
      <use xlink:href="#TimesNewRomanPSMT-65" x="530.615234"/>
      <use xlink:href="#TimesNewRomanPSMT-6c" x="575"/>
      <use xlink:href="#TimesNewRomanPSMT-73" x="602.783203"/>
     </g>
    </g>
    <g id="patch_9">
     <path d="M 455.336938 185.030625 
L 475.336938 185.030625 
L 475.336938 178.030625 
L 455.336938 178.030625 
z
" style="fill: #ff7f0e"/>
    </g>
    <g id="text_24">
     <!-- Airbnb Hosts -->
     <g transform="translate(483.336938 185.030625) scale(0.1 -0.1)">
      <defs>
       <path id="TimesNewRomanPSMT-41" d="M 2928 1419 
L 1288 1419 
L 1000 750 
Q 894 503 894 381 
Q 894 284 986 211 
Q 1078 138 1384 116 
L 1384 0 
L 50 0 
L 50 116 
Q 316 163 394 238 
Q 553 388 747 847 
L 2238 4334 
L 2347 4334 
L 3822 809 
Q 4000 384 4145 257 
Q 4291 131 4550 116 
L 4550 0 
L 2878 0 
L 2878 116 
Q 3131 128 3220 200 
Q 3309 272 3309 375 
Q 3309 513 3184 809 
L 2928 1419 
z
M 2841 1650 
L 2122 3363 
L 1384 1650 
L 2841 1650 
z
" transform="scale(0.015625)"/>
       <path id="TimesNewRomanPSMT-62" d="M 984 2369 
Q 1400 2947 1881 2947 
Q 2322 2947 2650 2570 
Q 2978 2194 2978 1541 
Q 2978 778 2472 313 
Q 2038 -88 1503 -88 
Q 1253 -88 995 3 
Q 738 94 469 275 
L 469 3241 
Q 469 3728 445 3840 
Q 422 3953 372 3993 
Q 322 4034 247 4034 
Q 159 4034 28 3984 
L -16 4094 
L 844 4444 
L 984 4444 
L 984 2369 
z
M 984 2169 
L 984 456 
Q 1144 300 1314 220 
Q 1484 141 1663 141 
Q 1947 141 2192 453 
Q 2438 766 2438 1363 
Q 2438 1913 2192 2208 
Q 1947 2503 1634 2503 
Q 1469 2503 1303 2419 
Q 1178 2356 984 2169 
z
" transform="scale(0.015625)"/>
      </defs>
      <use xlink:href="#TimesNewRomanPSMT-41"/>
      <use xlink:href="#TimesNewRomanPSMT-69" x="72.216797"/>
      <use xlink:href="#TimesNewRomanPSMT-72" x="100"/>
      <use xlink:href="#TimesNewRomanPSMT-62" x="133.300781"/>
      <use xlink:href="#TimesNewRomanPSMT-6e" x="183.300781"/>
      <use xlink:href="#TimesNewRomanPSMT-62" x="233.300781"/>
      <use xlink:href="#TimesNewRomanPSMT-20" x="283.300781"/>
      <use xlink:href="#TimesNewRomanPSMT-48" x="308.300781"/>
      <use xlink:href="#TimesNewRomanPSMT-6f" x="380.517578"/>
      <use xlink:href="#TimesNewRomanPSMT-73" x="430.517578"/>
      <use xlink:href="#TimesNewRomanPSMT-74" x="469.433594"/>
      <use xlink:href="#TimesNewRomanPSMT-73" x="497.216797"/>
     </g>
    </g>
    <g id="patch_10">
     <path d="M 455.336938 199.169687 
L 475.336938 199.169687 
L 475.336938 192.169687 
L 455.336938 192.169687 
z
" style="fill: #ffbb78"/>
    </g>
    <g id="text_25">
     <!-- Boutique Inns -->
     <g transform="translate(483.336938 199.169687) scale(0.1 -0.1)">
      <defs>
       <path id="TimesNewRomanPSMT-71" d="M 2734 2947 
L 2734 -734 
Q 2734 -1009 2771 -1087 
Q 2809 -1166 2889 -1209 
Q 2969 -1253 3200 -1253 
L 3200 -1369 
L 1756 -1369 
L 1756 -1253 
L 1816 -1253 
Q 1991 -1253 2081 -1203 
Q 2144 -1169 2181 -1080 
Q 2219 -991 2219 -734 
L 2219 497 
Q 1934 159 1721 35 
Q 1509 -88 1281 -88 
Q 866 -88 539 290 
Q 213 669 213 1303 
Q 213 2031 644 2489 
Q 1075 2947 1684 2947 
Q 1863 2947 2013 2897 
Q 2163 2847 2281 2747 
Q 2463 2834 2628 2947 
L 2734 2947 
z
M 2219 694 
L 2219 2038 
Q 2219 2272 2158 2406 
Q 2097 2541 1940 2634 
Q 1784 2728 1588 2728 
Q 1238 2728 988 2431 
Q 738 2134 738 1531 
Q 738 953 992 653 
Q 1247 353 1606 353 
Q 1791 353 1934 433 
Q 2078 513 2219 694 
z
" transform="scale(0.015625)"/>
       <path id="TimesNewRomanPSMT-49" d="M 1975 116 
L 1975 0 
L 159 0 
L 159 116 
L 309 116 
Q 572 116 691 269 
Q 766 369 766 750 
L 766 3488 
Q 766 3809 725 3913 
Q 694 3991 597 4047 
Q 459 4122 309 4122 
L 159 4122 
L 159 4238 
L 1975 4238 
L 1975 4122 
L 1822 4122 
Q 1563 4122 1444 3969 
Q 1366 3869 1366 3488 
L 1366 750 
Q 1366 428 1406 325 
Q 1438 247 1538 191 
Q 1672 116 1822 116 
L 1975 116 
z
" transform="scale(0.015625)"/>
      </defs>
      <use xlink:href="#TimesNewRomanPSMT-42"/>
      <use xlink:href="#TimesNewRomanPSMT-6f" x="66.699219"/>
      <use xlink:href="#TimesNewRomanPSMT-75" x="116.699219"/>
      <use xlink:href="#TimesNewRomanPSMT-74" x="166.699219"/>
      <use xlink:href="#TimesNewRomanPSMT-69" x="194.482422"/>
      <use xlink:href="#TimesNewRomanPSMT-71" x="222.265625"/>
      <use xlink:href="#TimesNewRomanPSMT-75" x="272.265625"/>
      <use xlink:href="#TimesNewRomanPSMT-65" x="322.265625"/>
      <use xlink:href="#TimesNewRomanPSMT-20" x="366.650391"/>
      <use xlink:href="#TimesNewRomanPSMT-49" x="391.650391"/>
      <use xlink:href="#TimesNewRomanPSMT-6e" x="424.951172"/>
      <use xlink:href="#TimesNewRomanPSMT-6e" x="474.951172"/>
      <use xlink:href="#TimesNewRomanPSMT-73" x="524.951172"/>
     </g>
    </g>
   </g>
  </g>
 </g>
 <defs>
  <clipPath id="p320bd552a4">
   <rect x="49.760938" y="36.92125" width="388.8" height="277.2"/>
  </clipPath>
 </defs>
</svg>
