<?xml version="1.0" encoding="utf-8" standalone="no"?>
<!DOCTYPE svg PUBLIC "-//W3C//DTD SVG 1.1//EN"
  "http://www.w3.org/Graphics/SVG/1.1/DTD/svg11.dtd">
<svg xmlns:xlink="http://www.w3.org/1999/xlink" width="573.661313pt" height="364.113404pt" viewBox="0 0 573.661313 364.113404" xmlns="http://www.w3.org/2000/svg" version="1.1">
 <metadata>
  <rdf:RDF xmlns:dc="http://purl.org/dc/elements/1.1/" xmlns:cc="http://creativecommons.org/ns#" xmlns:rdf="http://www.w3.org/1999/02/22-rdf-syntax-ns#">
   <cc:Work>
    <dc:type rdf:resource="http://purl.org/dc/dcmitype/StillImage"/>
    <dc:date>2025-05-21T21:40:28.216337</dc:date>
    <dc:format>image/svg+xml</dc:format>
    <dc:creator>
     <cc:Agent>
      <dc:title>Matplotlib v3.9.2, https://matplotlib.org/</dc:title>
     </cc:Agent>
    </dc:creator>
   </cc:Work>
  </rdf:RDF>
 </metadata>
 <defs>
  <style type="text/css">*{stroke-linejoin: round; stroke-linecap: butt}</style>
 </defs>
 <g id="figure_1">
  <g id="patch_1">
   <path d="M 0 364.113404 
L 573.661313 364.113404 
L 573.661313 0 
L 0 0 
z
" style="fill: #ffffff"/>
  </g>
  <g id="axes_1">
   <g id="patch_2">
    <path d="M 47.519688 314.449375 
L 436.319687 314.449375 
L 436.319687 37.249375 
L 47.519688 37.249375 
z
" style="fill: #ffffff"/>
   </g>
   <g id="PolyCollection_1">
    <path d="M 65.192415 195.51342 
L 65.192415 264.378163 
L 68.762663 268.620724 
L 72.332911 272.4475 
L 75.903159 275.873348 
L 79.473407 278.913125 
L 83.043654 281.581688 
L 86.613902 283.893895 
L 90.18415 285.864603 
L 93.754398 287.508669 
L 97.324646 288.84095 
L 100.894894 289.876304 
L 104.465142 290.629588 
L 108.03539 291.115659 
L 111.605638 291.349375 
L 115.175886 291.345592 
L 118.746134 291.119168 
L 122.316382 290.684961 
L 125.88663 290.057827 
L 129.456878 289.252623 
L 133.027126 288.284208 
L 136.597373 287.167437 
L 140.167621 285.91717 
L 143.737869 284.548261 
L 147.308117 283.071933 
L 150.878365 281.484853 
L 154.448613 279.780054 
L 158.018861 277.950567 
L 161.589109 275.989425 
L 165.159357 273.889659 
L 168.729605 271.644301 
L 172.299853 269.246383 
L 175.870101 266.688937 
L 179.440349 263.964994 
L 183.010597 261.067587 
L 186.580845 257.996859 
L 190.151092 254.781403 
L 193.72134 251.456924 
L 197.291588 248.059127 
L 200.861836 244.623716 
L 204.432084 241.186395 
L 208.002332 237.782871 
L 211.57258 234.448847 
L 215.142828 231.220028 
L 218.713076 228.132119 
L 222.283324 225.220825 
L 225.853572 222.521409 
L 229.42382 220.06737 
L 232.994068 217.891767 
L 236.564316 216.027656 
L 240.134564 214.508096 
L 243.704811 213.366145 
L 247.275059 212.63486 
L 250.845307 212.347299 
L 254.415555 212.53652 
L 257.985803 213.235581 
L 261.556051 214.47754 
L 265.126299 216.27717 
L 268.696547 218.576106 
L 272.266795 221.297697 
L 275.837043 224.365295 
L 279.407291 227.702249 
L 282.977539 231.23191 
L 286.547787 234.877628 
L 290.118035 238.562754 
L 293.688283 242.210636 
L 297.25853 245.744626 
L 300.828778 249.088074 
L 304.399026 252.170805 
L 307.969274 254.94854 
L 311.539522 257.383476 
L 315.10977 259.437809 
L 318.680018 261.073736 
L 322.250266 262.253453 
L 325.820514 262.939158 
L 329.390762 263.093045 
L 332.96101 262.677312 
L 336.531258 261.654155 
L 340.101506 259.98577 
L 343.671754 257.654649 
L 347.242002 254.724459 
L 350.812249 251.279162 
L 354.382497 247.402721 
L 357.952745 243.179097 
L 361.522993 238.692254 
L 365.093241 234.026153 
L 368.663489 229.264757 
L 372.233737 224.492028 
L 375.803985 219.791928 
L 379.374233 215.248419 
L 382.944481 210.945464 
L 386.514729 206.967024 
L 390.084977 203.397063 
L 393.655225 200.319542 
L 397.225473 197.818424 
L 400.795721 195.97767 
L 404.365968 194.881244 
L 407.936216 194.613106 
L 411.506464 195.257221 
L 415.076712 196.897549 
L 418.64696 199.618053 
L 418.64696 195.78285 
L 418.64696 195.78285 
L 415.076712 191.900963 
L 411.506464 188.688677 
L 407.936216 186.095543 
L 404.365968 184.071109 
L 400.795721 182.564927 
L 397.225473 181.526546 
L 393.655225 180.905517 
L 390.084977 180.651389 
L 386.514729 180.713713 
L 382.944481 181.042038 
L 379.374233 181.585915 
L 375.803985 182.294894 
L 372.233737 183.118525 
L 368.663489 184.006358 
L 365.093241 184.907943 
L 361.522993 185.77283 
L 357.952745 186.550569 
L 354.382497 187.19071 
L 350.812249 187.642804 
L 347.242002 187.8564 
L 343.671754 187.781048 
L 340.101506 187.366299 
L 336.531258 186.589283 
L 332.96101 185.537447 
L 329.390762 184.325822 
L 325.820514 183.069437 
L 322.250266 181.883319 
L 318.680018 180.882497 
L 315.10977 180.182002 
L 311.539522 179.89686 
L 307.969274 180.142102 
L 304.399026 181.032756 
L 300.828778 182.683851 
L 297.25853 185.156063 
L 293.688283 188.292658 
L 290.118035 191.88255 
L 286.547787 195.714653 
L 282.977539 199.57788 
L 279.407291 203.261145 
L 275.837043 206.553362 
L 272.266795 209.243444 
L 268.696547 211.120305 
L 265.126299 211.972858 
L 261.556051 211.590018 
L 257.985803 209.840032 
L 254.415555 206.90849 
L 250.845307 203.060315 
L 247.275059 198.56043 
L 243.704811 193.673759 
L 240.134564 188.665225 
L 236.564316 183.799751 
L 232.994068 179.342262 
L 229.42382 175.55768 
L 225.853572 172.710929 
L 222.283324 171.066932 
L 218.713076 170.814161 
L 215.142828 171.835277 
L 211.57258 173.936488 
L 208.002332 176.924004 
L 204.432084 180.604033 
L 200.861836 184.782785 
L 197.291588 189.266469 
L 193.72134 193.861293 
L 190.151092 198.373466 
L 186.580845 202.609197 
L 183.010597 206.374695 
L 179.440349 209.515945 
L 175.870101 212.038034 
L 172.299853 213.985825 
L 168.729605 215.404181 
L 165.159357 216.337965 
L 161.589109 216.83204 
L 158.018861 216.931269 
L 154.448613 216.680516 
L 150.878365 216.124642 
L 147.308117 215.308512 
L 143.737869 214.276987 
L 140.167621 213.071891 
L 136.597373 211.722883 
L 133.027126 210.25658 
L 129.456878 208.699602 
L 125.88663 207.078567 
L 122.316382 205.420092 
L 118.746134 203.750798 
L 115.175886 202.097301 
L 111.605638 200.48622 
L 108.03539 198.944174 
L 104.465142 197.497781 
L 100.894894 196.173659 
L 97.324646 194.998428 
L 93.754398 193.998704 
L 90.18415 193.201107 
L 86.613902 192.632255 
L 83.043654 192.318767 
L 79.473407 192.28726 
L 75.903159 192.564354 
L 72.332911 193.176666 
L 68.762663 194.150816 
L 65.192415 195.51342 
z
" clip-path="url(#p11f3ca6b39)" style="fill: #1f77b4"/>
   </g>
   <g id="PolyCollection_2">
    <path d="M 65.192415 133.748996 
L 65.192415 195.51342 
L 68.762663 194.150816 
L 72.332911 193.176666 
L 75.903159 192.564354 
L 79.473407 192.28726 
L 83.043654 192.318767 
L 86.613902 192.632255 
L 90.18415 193.201107 
L 93.754398 193.998704 
L 97.324646 194.998428 
L 100.894894 196.173659 
L 104.465142 197.497781 
L 108.03539 198.944174 
L 111.605638 200.48622 
L 115.175886 202.097301 
L 118.746134 203.750798 
L 122.316382 205.420092 
L 125.88663 207.078567 
L 129.456878 208.699602 
L 133.027126 210.25658 
L 136.597373 211.722883 
L 140.167621 213.071891 
L 143.737869 214.276987 
L 147.308117 215.308512 
L 150.878365 216.124642 
L 154.448613 216.680516 
L 158.018861 216.931269 
L 161.589109 216.83204 
L 165.159357 216.337965 
L 168.729605 215.404181 
L 172.299853 213.985825 
L 175.870101 212.038034 
L 179.440349 209.515945 
L 183.010597 206.374695 
L 186.580845 202.609197 
L 190.151092 198.373466 
L 193.72134 193.861293 
L 197.291588 189.266469 
L 200.861836 184.782785 
L 204.432084 180.604033 
L 208.002332 176.924004 
L 211.57258 173.936488 
L 215.142828 171.835277 
L 218.713076 170.814161 
L 222.283324 171.066932 
L 225.853572 172.710929 
L 229.42382 175.55768 
L 232.994068 179.342262 
L 236.564316 183.799751 
L 240.134564 188.665225 
L 243.704811 193.673759 
L 247.275059 198.56043 
L 250.845307 203.060315 
L 254.415555 206.90849 
L 257.985803 209.840032 
L 261.556051 211.590018 
L 265.126299 211.972858 
L 268.696547 211.120305 
L 272.266795 209.243444 
L 275.837043 206.553362 
L 279.407291 203.261145 
L 282.977539 199.57788 
L 286.547787 195.714653 
L 290.118035 191.88255 
L 293.688283 188.292658 
L 297.25853 185.156063 
L 300.828778 182.683851 
L 304.399026 181.032756 
L 307.969274 180.142102 
L 311.539522 179.89686 
L 315.10977 180.182002 
L 318.680018 180.882497 
L 322.250266 181.883319 
L 325.820514 183.069437 
L 329.390762 184.325822 
L 332.96101 185.537447 
L 336.531258 186.589283 
L 340.101506 187.366299 
L 343.671754 187.781048 
L 347.242002 187.8564 
L 350.812249 187.642804 
L 354.382497 187.19071 
L 357.952745 186.550569 
L 361.522993 185.77283 
L 365.093241 184.907943 
L 368.663489 184.006358 
L 372.233737 183.118525 
L 375.803985 182.294894 
L 379.374233 181.585915 
L 382.944481 181.042038 
L 386.514729 180.713713 
L 390.084977 180.651389 
L 393.655225 180.905517 
L 397.225473 181.526546 
L 400.795721 182.564927 
L 404.365968 184.071109 
L 407.936216 186.095543 
L 411.506464 188.688677 
L 415.076712 191.900963 
L 418.64696 195.78285 
L 418.64696 172.105613 
L 418.64696 172.105613 
L 415.076712 170.143827 
L 411.506464 168.354723 
L 407.936216 166.723417 
L 404.365968 165.235025 
L 400.795721 163.874664 
L 397.225473 162.627449 
L 393.655225 161.478496 
L 390.084977 160.412922 
L 386.514729 159.415842 
L 382.944481 158.472373 
L 379.374233 157.567631 
L 375.803985 156.686731 
L 372.233737 155.81479 
L 368.663489 154.936924 
L 365.093241 154.038249 
L 361.522993 153.103881 
L 357.952745 152.118935 
L 354.382497 151.068529 
L 350.812249 149.937778 
L 347.242002 148.711798 
L 343.671754 147.375706 
L 340.101506 145.914616 
L 336.531258 144.334804 
L 332.96101 142.727169 
L 329.390762 141.203772 
L 325.820514 139.87667 
L 322.250266 138.857923 
L 318.680018 138.25959 
L 315.10977 138.19373 
L 311.539522 138.772401 
L 307.969274 140.107662 
L 304.399026 142.311573 
L 300.828778 145.496191 
L 297.25853 149.707542 
L 293.688283 154.727512 
L 290.118035 160.271953 
L 286.547787 166.056717 
L 282.977539 171.797657 
L 279.407291 177.210624 
L 275.837043 182.011471 
L 272.266795 185.91605 
L 268.696547 188.640213 
L 265.126299 189.899813 
L 261.556051 189.4107 
L 257.985803 186.996158 
L 254.415555 182.90919 
L 250.845307 177.510229 
L 247.275059 171.159709 
L 243.704811 164.218063 
L 240.134564 157.045725 
L 236.564316 150.003127 
L 232.994068 143.450703 
L 229.42382 137.748887 
L 225.853572 133.258112 
L 222.283324 130.338811 
L 218.713076 129.242252 
L 215.142828 129.783037 
L 211.57258 131.666602 
L 208.002332 134.598384 
L 204.432084 138.283818 
L 200.861836 142.428342 
L 197.291588 146.737392 
L 193.72134 150.916403 
L 190.151092 154.670813 
L 186.580845 157.706057 
L 183.010597 159.727571 
L 179.440349 160.520772 
L 175.870101 160.190986 
L 172.299853 158.923523 
L 168.729605 156.903689 
L 165.159357 154.316792 
L 161.589109 151.348139 
L 158.018861 148.183038 
L 154.448613 145.006797 
L 150.878365 142.004722 
L 147.308117 139.362121 
L 143.737869 137.264302 
L 140.167621 135.852408 
L 136.597373 135.090928 
L 133.027126 134.900188 
L 129.456878 135.200512 
L 125.88663 135.912225 
L 122.316382 136.955654 
L 118.746134 138.251122 
L 115.175886 139.718955 
L 111.605638 141.279478 
L 108.03539 142.853016 
L 104.465142 144.359894 
L 100.894894 145.720438 
L 97.324646 146.854972 
L 93.754398 147.683822 
L 90.18415 148.127313 
L 86.613902 148.105769 
L 83.043654 147.539516 
L 79.473407 146.34888 
L 75.903159 144.454184 
L 72.332911 141.775755 
L 68.762663 138.233917 
L 65.192415 133.748996 
z
" clip-path="url(#p11f3ca6b39)" style="fill: #aec7e8"/>
   </g>
   <g id="PolyCollection_3">
    <path d="M 65.192415 87.320587 
L 65.192415 133.748996 
L 68.762663 138.233917 
L 72.332911 141.775755 
L 75.903159 144.454184 
L 79.473407 146.34888 
L 83.043654 147.539516 
L 86.613902 148.105769 
L 90.18415 148.127313 
L 93.754398 147.683822 
L 97.324646 146.854972 
L 100.894894 145.720438 
L 104.465142 144.359894 
L 108.03539 142.853016 
L 111.605638 141.279478 
L 115.175886 139.718955 
L 118.746134 138.251122 
L 122.316382 136.955654 
L 125.88663 135.912225 
L 129.456878 135.200512 
L 133.027126 134.900188 
L 136.597373 135.090928 
L 140.167621 135.852408 
L 143.737869 137.264302 
L 147.308117 139.362121 
L 150.878365 142.004722 
L 154.448613 145.006797 
L 158.018861 148.183038 
L 161.589109 151.348139 
L 165.159357 154.316792 
L 168.729605 156.903689 
L 172.299853 158.923523 
L 175.870101 160.190986 
L 179.440349 160.520772 
L 183.010597 159.727571 
L 186.580845 157.706057 
L 190.151092 154.670813 
L 193.72134 150.916403 
L 197.291588 146.737392 
L 200.861836 142.428342 
L 204.432084 138.283818 
L 208.002332 134.598384 
L 211.57258 131.666602 
L 215.142828 129.783037 
L 218.713076 129.242252 
L 222.283324 130.338811 
L 225.853572 133.258112 
L 229.42382 137.748887 
L 232.994068 143.450703 
L 236.564316 150.003127 
L 240.134564 157.045725 
L 243.704811 164.218063 
L 247.275059 171.159709 
L 250.845307 177.510229 
L 254.415555 182.90919 
L 257.985803 186.996158 
L 261.556051 189.4107 
L 265.126299 189.899813 
L 268.696547 188.640213 
L 272.266795 185.91605 
L 275.837043 182.011471 
L 279.407291 177.210624 
L 282.977539 171.797657 
L 286.547787 166.056717 
L 290.118035 160.271953 
L 293.688283 154.727512 
L 297.25853 149.707542 
L 300.828778 145.496191 
L 304.399026 142.311573 
L 307.969274 140.107662 
L 311.539522 138.772401 
L 315.10977 138.19373 
L 318.680018 138.25959 
L 322.250266 138.857923 
L 325.820514 139.87667 
L 329.390762 141.203772 
L 332.96101 142.727169 
L 336.531258 144.334804 
L 340.101506 145.914616 
L 343.671754 147.375706 
L 347.242002 148.711798 
L 350.812249 149.937778 
L 354.382497 151.068529 
L 357.952745 152.118935 
L 361.522993 153.103881 
L 365.093241 154.038249 
L 368.663489 154.936924 
L 372.233737 155.81479 
L 375.803985 156.686731 
L 379.374233 157.567631 
L 382.944481 158.472373 
L 386.514729 159.415842 
L 390.084977 160.412922 
L 393.655225 161.478496 
L 397.225473 162.627449 
L 400.795721 163.874664 
L 404.365968 165.235025 
L 407.936216 166.723417 
L 411.506464 168.354723 
L 415.076712 170.143827 
L 418.64696 172.105613 
L 418.64696 152.080697 
L 418.64696 152.080697 
L 415.076712 154.801201 
L 411.506464 156.441529 
L 407.936216 157.085644 
L 404.365968 156.817506 
L 400.795721 155.72108 
L 397.225473 153.880326 
L 393.655225 151.379208 
L 390.084977 148.301687 
L 386.514729 144.731726 
L 382.944481 140.753286 
L 379.374233 136.450331 
L 375.803985 131.906822 
L 372.233737 127.206722 
L 368.663489 122.433993 
L 365.093241 117.672597 
L 361.522993 113.006496 
L 357.952745 108.519653 
L 354.382497 104.296029 
L 350.812249 100.419588 
L 347.242002 96.974291 
L 343.671754 94.044101 
L 340.101506 91.71298 
L 336.531258 90.044595 
L 332.96101 89.021438 
L 329.390762 88.605705 
L 325.820514 88.759592 
L 322.250266 89.445297 
L 318.680018 90.625014 
L 315.10977 92.260941 
L 311.539522 94.315274 
L 307.969274 96.75021 
L 304.399026 99.527945 
L 300.828778 102.610676 
L 297.25853 105.954124 
L 293.688283 109.488114 
L 290.118035 113.135996 
L 286.547787 116.821122 
L 282.977539 120.46684 
L 279.407291 123.996501 
L 275.837043 127.333455 
L 272.266795 130.401053 
L 268.696547 133.122644 
L 265.126299 135.42158 
L 261.556051 137.22121 
L 257.985803 138.463169 
L 254.415555 139.16223 
L 250.845307 139.351451 
L 247.275059 139.06389 
L 243.704811 138.332605 
L 240.134564 137.190654 
L 236.564316 135.671094 
L 232.994068 133.806983 
L 229.42382 131.63138 
L 225.853572 129.177341 
L 222.283324 126.477925 
L 218.713076 123.566631 
L 215.142828 120.478722 
L 211.57258 117.249903 
L 208.002332 113.915879 
L 204.432084 110.512355 
L 200.861836 107.075034 
L 197.291588 103.639623 
L 193.72134 100.241826 
L 190.151092 96.917347 
L 186.580845 93.701891 
L 183.010597 90.631163 
L 179.440349 87.733756 
L 175.870101 85.009813 
L 172.299853 82.452367 
L 168.729605 80.054449 
L 165.159357 77.809091 
L 161.589109 75.709325 
L 158.018861 73.748183 
L 154.448613 71.918696 
L 150.878365 70.213897 
L 147.308117 68.626817 
L 143.737869 67.150489 
L 140.167621 65.78158 
L 136.597373 64.531313 
L 133.027126 63.414542 
L 129.456878 62.446127 
L 125.88663 61.640923 
L 122.316382 61.013789 
L 118.746134 60.579582 
L 115.175886 60.353158 
L 111.605638 60.349375 
L 108.03539 60.583091 
L 104.465142 61.069162 
L 100.894894 61.822446 
L 97.324646 62.8578 
L 93.754398 64.190081 
L 90.18415 65.834147 
L 86.613902 67.804855 
L 83.043654 70.117062 
L 79.473407 72.785625 
L 75.903159 75.825402 
L 72.332911 79.25125 
L 68.762663 83.078026 
L 65.192415 87.320587 
z
" clip-path="url(#p11f3ca6b39)" style="fill: #ff7f0e"/>
   </g>
   <g id="matplotlib.axis_1">
    <g id="xtick_1">
     <g id="line2d_1">
      <defs>
       <path id="ma198223fc6" d="M 0 0 
L 0 3.5 
" style="stroke: #000000; stroke-width: 0.8"/>
      </defs>
      <g>
       <use xlink:href="#ma198223fc6" x="65.192415" y="314.449375" style="stroke: #000000; stroke-width: 0.8"/>
      </g>
     </g>
     <g id="text_1">
      <!-- 1979 -->
      <g transform="translate(49.537734 340.501483) rotate(-45) scale(0.1 -0.1)">
       <defs>
        <path id="TimesNewRomanPSMT-31" d="M 750 3822 
L 1781 4325 
L 1884 4325 
L 1884 747 
Q 1884 391 1914 303 
Q 1944 216 2037 169 
Q 2131 122 2419 116 
L 2419 0 
L 825 0 
L 825 116 
Q 1125 122 1212 167 
Q 1300 213 1334 289 
Q 1369 366 1369 747 
L 1369 3034 
Q 1369 3497 1338 3628 
Q 1316 3728 1258 3775 
Q 1200 3822 1119 3822 
Q 1003 3822 797 3725 
L 750 3822 
z
" transform="scale(0.015625)"/>
        <path id="TimesNewRomanPSMT-39" d="M 338 -88 
L 338 28 
Q 744 34 1094 217 
Q 1444 400 1770 856 
Q 2097 1313 2225 1859 
Q 1734 1544 1338 1544 
Q 891 1544 572 1889 
Q 253 2234 253 2806 
Q 253 3363 572 3797 
Q 956 4325 1575 4325 
Q 2097 4325 2469 3894 
Q 2925 3359 2925 2575 
Q 2925 1869 2578 1258 
Q 2231 647 1613 244 
Q 1109 -88 516 -88 
L 338 -88 
z
M 2275 2091 
Q 2331 2497 2331 2741 
Q 2331 3044 2228 3395 
Q 2125 3747 1936 3934 
Q 1747 4122 1506 4122 
Q 1228 4122 1018 3872 
Q 809 3622 809 3128 
Q 809 2469 1088 2097 
Q 1291 1828 1588 1828 
Q 1731 1828 1928 1897 
Q 2125 1966 2275 2091 
z
" transform="scale(0.015625)"/>
        <path id="TimesNewRomanPSMT-37" d="M 644 4238 
L 2916 4238 
L 2916 4119 
L 1503 -88 
L 1153 -88 
L 2419 3728 
L 1253 3728 
Q 900 3728 750 3644 
Q 488 3500 328 3200 
L 238 3234 
L 644 4238 
z
" transform="scale(0.015625)"/>
       </defs>
       <use xlink:href="#TimesNewRomanPSMT-31"/>
       <use xlink:href="#TimesNewRomanPSMT-39" x="50"/>
       <use xlink:href="#TimesNewRomanPSMT-37" x="100"/>
       <use xlink:href="#TimesNewRomanPSMT-39" x="150"/>
      </g>
     </g>
    </g>
    <g id="xtick_2">
     <g id="line2d_2">
      <g>
       <use xlink:href="#ma198223fc6" x="104.465142" y="314.449375" style="stroke: #000000; stroke-width: 0.8"/>
      </g>
     </g>
     <g id="text_2">
      <!-- 1980 -->
      <g transform="translate(88.810461 340.501483) rotate(-45) scale(0.1 -0.1)">
       <defs>
        <path id="TimesNewRomanPSMT-38" d="M 1228 2134 
Q 725 2547 579 2797 
Q 434 3047 434 3316 
Q 434 3728 753 4026 
Q 1072 4325 1600 4325 
Q 2113 4325 2425 4047 
Q 2738 3769 2738 3413 
Q 2738 3175 2569 2928 
Q 2400 2681 1866 2347 
Q 2416 1922 2594 1678 
Q 2831 1359 2831 1006 
Q 2831 559 2490 242 
Q 2150 -75 1597 -75 
Q 994 -75 656 303 
Q 388 606 388 966 
Q 388 1247 577 1523 
Q 766 1800 1228 2134 
z
M 1719 2469 
Q 2094 2806 2194 3001 
Q 2294 3197 2294 3444 
Q 2294 3772 2109 3958 
Q 1925 4144 1606 4144 
Q 1288 4144 1088 3959 
Q 888 3775 888 3528 
Q 888 3366 970 3203 
Q 1053 3041 1206 2894 
L 1719 2469 
z
M 1375 2016 
Q 1116 1797 991 1539 
Q 866 1281 866 981 
Q 866 578 1086 336 
Q 1306 94 1647 94 
Q 1984 94 2187 284 
Q 2391 475 2391 747 
Q 2391 972 2272 1150 
Q 2050 1481 1375 2016 
z
" transform="scale(0.015625)"/>
        <path id="TimesNewRomanPSMT-30" d="M 231 2094 
Q 231 2819 450 3342 
Q 669 3866 1031 4122 
Q 1313 4325 1613 4325 
Q 2100 4325 2488 3828 
Q 2972 3213 2972 2159 
Q 2972 1422 2759 906 
Q 2547 391 2217 158 
Q 1888 -75 1581 -75 
Q 975 -75 572 641 
Q 231 1244 231 2094 
z
M 844 2016 
Q 844 1141 1059 588 
Q 1238 122 1591 122 
Q 1759 122 1940 273 
Q 2122 425 2216 781 
Q 2359 1319 2359 2297 
Q 2359 3022 2209 3506 
Q 2097 3866 1919 4016 
Q 1791 4119 1609 4119 
Q 1397 4119 1231 3928 
Q 1006 3669 925 3112 
Q 844 2556 844 2016 
z
" transform="scale(0.015625)"/>
       </defs>
       <use xlink:href="#TimesNewRomanPSMT-31"/>
       <use xlink:href="#TimesNewRomanPSMT-39" x="50"/>
       <use xlink:href="#TimesNewRomanPSMT-38" x="100"/>
       <use xlink:href="#TimesNewRomanPSMT-30" x="150"/>
      </g>
     </g>
    </g>
    <g id="xtick_3">
     <g id="line2d_3">
      <g>
       <use xlink:href="#ma198223fc6" x="143.737869" y="314.449375" style="stroke: #000000; stroke-width: 0.8"/>
      </g>
     </g>
     <g id="text_3">
      <!-- 1981 -->
      <g transform="translate(128.083188 340.501483) rotate(-45) scale(0.1 -0.1)">
       <use xlink:href="#TimesNewRomanPSMT-31"/>
       <use xlink:href="#TimesNewRomanPSMT-39" x="50"/>
       <use xlink:href="#TimesNewRomanPSMT-38" x="100"/>
       <use xlink:href="#TimesNewRomanPSMT-31" x="150"/>
      </g>
     </g>
    </g>
    <g id="xtick_4">
     <g id="line2d_4">
      <g>
       <use xlink:href="#ma198223fc6" x="183.010597" y="314.449375" style="stroke: #000000; stroke-width: 0.8"/>
      </g>
     </g>
     <g id="text_4">
      <!-- 1982 -->
      <g transform="translate(167.355915 340.501483) rotate(-45) scale(0.1 -0.1)">
       <defs>
        <path id="TimesNewRomanPSMT-32" d="M 2934 816 
L 2638 0 
L 138 0 
L 138 116 
Q 1241 1122 1691 1759 
Q 2141 2397 2141 2925 
Q 2141 3328 1894 3587 
Q 1647 3847 1303 3847 
Q 991 3847 742 3664 
Q 494 3481 375 3128 
L 259 3128 
Q 338 3706 661 4015 
Q 984 4325 1469 4325 
Q 1984 4325 2329 3994 
Q 2675 3663 2675 3213 
Q 2675 2891 2525 2569 
Q 2294 2063 1775 1497 
Q 997 647 803 472 
L 1909 472 
Q 2247 472 2383 497 
Q 2519 522 2628 598 
Q 2738 675 2819 816 
L 2934 816 
z
" transform="scale(0.015625)"/>
       </defs>
       <use xlink:href="#TimesNewRomanPSMT-31"/>
       <use xlink:href="#TimesNewRomanPSMT-39" x="50"/>
       <use xlink:href="#TimesNewRomanPSMT-38" x="100"/>
       <use xlink:href="#TimesNewRomanPSMT-32" x="150"/>
      </g>
     </g>
    </g>
    <g id="xtick_5">
     <g id="line2d_5">
      <g>
       <use xlink:href="#ma198223fc6" x="222.283324" y="314.449375" style="stroke: #000000; stroke-width: 0.8"/>
      </g>
     </g>
     <g id="text_5">
      <!-- 1983 -->
      <g transform="translate(206.628643 340.501483) rotate(-45) scale(0.1 -0.1)">
       <defs>
        <path id="TimesNewRomanPSMT-33" d="M 325 3431 
Q 506 3859 782 4092 
Q 1059 4325 1472 4325 
Q 1981 4325 2253 3994 
Q 2459 3747 2459 3466 
Q 2459 3003 1878 2509 
Q 2269 2356 2469 2072 
Q 2669 1788 2669 1403 
Q 2669 853 2319 450 
Q 1863 -75 997 -75 
Q 569 -75 414 31 
Q 259 138 259 259 
Q 259 350 332 419 
Q 406 488 509 488 
Q 588 488 669 463 
Q 722 447 909 348 
Q 1097 250 1169 231 
Q 1284 197 1416 197 
Q 1734 197 1970 444 
Q 2206 691 2206 1028 
Q 2206 1275 2097 1509 
Q 2016 1684 1919 1775 
Q 1784 1900 1550 2001 
Q 1316 2103 1072 2103 
L 972 2103 
L 972 2197 
Q 1219 2228 1467 2375 
Q 1716 2522 1828 2728 
Q 1941 2934 1941 3181 
Q 1941 3503 1739 3701 
Q 1538 3900 1238 3900 
Q 753 3900 428 3381 
L 325 3431 
z
" transform="scale(0.015625)"/>
       </defs>
       <use xlink:href="#TimesNewRomanPSMT-31"/>
       <use xlink:href="#TimesNewRomanPSMT-39" x="50"/>
       <use xlink:href="#TimesNewRomanPSMT-38" x="100"/>
       <use xlink:href="#TimesNewRomanPSMT-33" x="150"/>
      </g>
     </g>
    </g>
    <g id="xtick_6">
     <g id="line2d_6">
      <g>
       <use xlink:href="#ma198223fc6" x="261.556051" y="314.449375" style="stroke: #000000; stroke-width: 0.8"/>
      </g>
     </g>
     <g id="text_6">
      <!-- 1984 -->
      <g transform="translate(245.90137 340.501483) rotate(-45) scale(0.1 -0.1)">
       <defs>
        <path id="TimesNewRomanPSMT-34" d="M 2978 1563 
L 2978 1119 
L 2409 1119 
L 2409 0 
L 1894 0 
L 1894 1119 
L 100 1119 
L 100 1519 
L 2066 4325 
L 2409 4325 
L 2409 1563 
L 2978 1563 
z
M 1894 1563 
L 1894 3666 
L 406 1563 
L 1894 1563 
z
" transform="scale(0.015625)"/>
       </defs>
       <use xlink:href="#TimesNewRomanPSMT-31"/>
       <use xlink:href="#TimesNewRomanPSMT-39" x="50"/>
       <use xlink:href="#TimesNewRomanPSMT-38" x="100"/>
       <use xlink:href="#TimesNewRomanPSMT-34" x="150"/>
      </g>
     </g>
    </g>
    <g id="xtick_7">
     <g id="line2d_7">
      <g>
       <use xlink:href="#ma198223fc6" x="300.828778" y="314.449375" style="stroke: #000000; stroke-width: 0.8"/>
      </g>
     </g>
     <g id="text_7">
      <!-- 1985 -->
      <g transform="translate(285.174097 340.501483) rotate(-45) scale(0.1 -0.1)">
       <defs>
        <path id="TimesNewRomanPSMT-35" d="M 2778 4238 
L 2534 3706 
L 1259 3706 
L 981 3138 
Q 1809 3016 2294 2522 
Q 2709 2097 2709 1522 
Q 2709 1188 2573 903 
Q 2438 619 2231 419 
Q 2025 219 1772 97 
Q 1413 -75 1034 -75 
Q 653 -75 479 54 
Q 306 184 306 341 
Q 306 428 378 495 
Q 450 563 559 563 
Q 641 563 702 538 
Q 763 513 909 409 
Q 1144 247 1384 247 
Q 1750 247 2026 523 
Q 2303 800 2303 1197 
Q 2303 1581 2056 1914 
Q 1809 2247 1375 2428 
Q 1034 2569 447 2591 
L 1259 4238 
L 2778 4238 
z
" transform="scale(0.015625)"/>
       </defs>
       <use xlink:href="#TimesNewRomanPSMT-31"/>
       <use xlink:href="#TimesNewRomanPSMT-39" x="50"/>
       <use xlink:href="#TimesNewRomanPSMT-38" x="100"/>
       <use xlink:href="#TimesNewRomanPSMT-35" x="150"/>
      </g>
     </g>
    </g>
    <g id="xtick_8">
     <g id="line2d_8">
      <g>
       <use xlink:href="#ma198223fc6" x="340.101506" y="314.449375" style="stroke: #000000; stroke-width: 0.8"/>
      </g>
     </g>
     <g id="text_8">
      <!-- 1986 -->
      <g transform="translate(324.446824 340.501483) rotate(-45) scale(0.1 -0.1)">
       <defs>
        <path id="TimesNewRomanPSMT-36" d="M 2869 4325 
L 2869 4209 
Q 2456 4169 2195 4045 
Q 1934 3922 1679 3669 
Q 1425 3416 1258 3105 
Q 1091 2794 978 2366 
Q 1428 2675 1881 2675 
Q 2316 2675 2634 2325 
Q 2953 1975 2953 1425 
Q 2953 894 2631 456 
Q 2244 -75 1606 -75 
Q 1172 -75 869 213 
Q 275 772 275 1663 
Q 275 2231 503 2743 
Q 731 3256 1154 3653 
Q 1578 4050 1965 4187 
Q 2353 4325 2688 4325 
L 2869 4325 
z
M 925 2138 
Q 869 1716 869 1456 
Q 869 1156 980 804 
Q 1091 453 1309 247 
Q 1469 100 1697 100 
Q 1969 100 2183 356 
Q 2397 613 2397 1088 
Q 2397 1622 2184 2012 
Q 1972 2403 1581 2403 
Q 1463 2403 1327 2353 
Q 1191 2303 925 2138 
z
" transform="scale(0.015625)"/>
       </defs>
       <use xlink:href="#TimesNewRomanPSMT-31"/>
       <use xlink:href="#TimesNewRomanPSMT-39" x="50"/>
       <use xlink:href="#TimesNewRomanPSMT-38" x="100"/>
       <use xlink:href="#TimesNewRomanPSMT-36" x="150"/>
      </g>
     </g>
    </g>
    <g id="xtick_9">
     <g id="line2d_9">
      <g>
       <use xlink:href="#ma198223fc6" x="379.374233" y="314.449375" style="stroke: #000000; stroke-width: 0.8"/>
      </g>
     </g>
     <g id="text_9">
      <!-- 1987 -->
      <g transform="translate(363.719552 340.501483) rotate(-45) scale(0.1 -0.1)">
       <use xlink:href="#TimesNewRomanPSMT-31"/>
       <use xlink:href="#TimesNewRomanPSMT-39" x="50"/>
       <use xlink:href="#TimesNewRomanPSMT-38" x="100"/>
       <use xlink:href="#TimesNewRomanPSMT-37" x="150"/>
      </g>
     </g>
    </g>
    <g id="xtick_10">
     <g id="line2d_10">
      <g>
       <use xlink:href="#ma198223fc6" x="418.64696" y="314.449375" style="stroke: #000000; stroke-width: 0.8"/>
      </g>
     </g>
     <g id="text_10">
      <!-- 1988 -->
      <g transform="translate(402.992279 340.501483) rotate(-45) scale(0.1 -0.1)">
       <use xlink:href="#TimesNewRomanPSMT-31"/>
       <use xlink:href="#TimesNewRomanPSMT-39" x="50"/>
       <use xlink:href="#TimesNewRomanPSMT-38" x="100"/>
       <use xlink:href="#TimesNewRomanPSMT-38" x="150"/>
      </g>
     </g>
    </g>
    <g id="text_11">
     <!-- Year -->
     <g transform="translate(230.861875 354.346529) scale(0.12 -0.12)">
      <defs>
       <path id="TimesNewRomanPSMT-59" d="M 3050 4238 
L 4528 4238 
L 4528 4122 
L 4447 4122 
Q 4366 4122 4209 4050 
Q 4053 3978 3925 3843 
Q 3797 3709 3609 3406 
L 2588 1797 
L 2588 734 
Q 2588 344 2675 247 
Q 2794 116 3050 116 
L 3188 116 
L 3188 0 
L 1388 0 
L 1388 116 
L 1538 116 
Q 1806 116 1919 278 
Q 1988 378 1988 734 
L 1988 1738 
L 825 3513 
Q 619 3825 545 3903 
Q 472 3981 241 4091 
Q 178 4122 59 4122 
L 59 4238 
L 1872 4238 
L 1872 4122 
L 1778 4122 
Q 1631 4122 1507 4053 
Q 1384 3984 1384 3847 
Q 1384 3734 1575 3441 
L 2459 2075 
L 3291 3381 
Q 3478 3675 3478 3819 
Q 3478 3906 3433 3975 
Q 3388 4044 3303 4083 
Q 3219 4122 3050 4122 
L 3050 4238 
z
" transform="scale(0.015625)"/>
       <path id="TimesNewRomanPSMT-65" d="M 681 1784 
Q 678 1147 991 784 
Q 1303 422 1725 422 
Q 2006 422 2214 576 
Q 2422 731 2563 1106 
L 2659 1044 
Q 2594 616 2278 264 
Q 1963 -88 1488 -88 
Q 972 -88 605 314 
Q 238 716 238 1394 
Q 238 2128 614 2539 
Q 991 2950 1559 2950 
Q 2041 2950 2350 2633 
Q 2659 2316 2659 1784 
L 681 1784 
z
M 681 1966 
L 2006 1966 
Q 1991 2241 1941 2353 
Q 1863 2528 1708 2628 
Q 1553 2728 1384 2728 
Q 1125 2728 920 2526 
Q 716 2325 681 1966 
z
" transform="scale(0.015625)"/>
       <path id="TimesNewRomanPSMT-61" d="M 1822 413 
Q 1381 72 1269 19 
Q 1100 -59 909 -59 
Q 613 -59 420 144 
Q 228 347 228 678 
Q 228 888 322 1041 
Q 450 1253 767 1440 
Q 1084 1628 1822 1897 
L 1822 2009 
Q 1822 2438 1686 2597 
Q 1550 2756 1291 2756 
Q 1094 2756 978 2650 
Q 859 2544 859 2406 
L 866 2225 
Q 866 2081 792 2003 
Q 719 1925 600 1925 
Q 484 1925 411 2006 
Q 338 2088 338 2228 
Q 338 2497 613 2722 
Q 888 2947 1384 2947 
Q 1766 2947 2009 2819 
Q 2194 2722 2281 2516 
Q 2338 2381 2338 1966 
L 2338 994 
Q 2338 584 2353 492 
Q 2369 400 2405 369 
Q 2441 338 2488 338 
Q 2538 338 2575 359 
Q 2641 400 2828 588 
L 2828 413 
Q 2478 -56 2159 -56 
Q 2006 -56 1915 50 
Q 1825 156 1822 413 
z
M 1822 616 
L 1822 1706 
Q 1350 1519 1213 1441 
Q 966 1303 859 1153 
Q 753 1003 753 825 
Q 753 600 887 451 
Q 1022 303 1197 303 
Q 1434 303 1822 616 
z
" transform="scale(0.015625)"/>
       <path id="TimesNewRomanPSMT-72" d="M 1038 2947 
L 1038 2303 
Q 1397 2947 1775 2947 
Q 1947 2947 2059 2842 
Q 2172 2738 2172 2600 
Q 2172 2478 2090 2393 
Q 2009 2309 1897 2309 
Q 1788 2309 1652 2417 
Q 1516 2525 1450 2525 
Q 1394 2525 1328 2463 
Q 1188 2334 1038 2041 
L 1038 669 
Q 1038 431 1097 309 
Q 1138 225 1241 169 
Q 1344 113 1538 113 
L 1538 0 
L 72 0 
L 72 113 
Q 291 113 397 181 
Q 475 231 506 341 
Q 522 394 522 644 
L 522 1753 
Q 522 2253 501 2348 
Q 481 2444 426 2487 
Q 372 2531 291 2531 
Q 194 2531 72 2484 
L 41 2597 
L 906 2947 
L 1038 2947 
z
" transform="scale(0.015625)"/>
      </defs>
      <use xlink:href="#TimesNewRomanPSMT-59"/>
      <use xlink:href="#TimesNewRomanPSMT-65" x="62.216797"/>
      <use xlink:href="#TimesNewRomanPSMT-61" x="106.601562"/>
      <use xlink:href="#TimesNewRomanPSMT-72" x="150.986328"/>
     </g>
    </g>
   </g>
   <g id="matplotlib.axis_2">
    <g id="ytick_1">
     <g id="line2d_11">
      <defs>
       <path id="mcc3dc29500" d="M 0 0 
L -3.5 0 
" style="stroke: #000000; stroke-width: 0.8"/>
      </defs>
      <g>
       <use xlink:href="#mcc3dc29500" x="47.519688" y="312.510281" style="stroke: #000000; stroke-width: 0.8"/>
      </g>
     </g>
     <g id="text_12">
      <!-- −2.0 -->
      <g transform="translate(22.380625 315.982156) scale(0.1 -0.1)">
       <defs>
        <path id="TimesNewRomanPSMT-2212" d="M 3484 2000 
L 116 2000 
L 116 2256 
L 3484 2256 
L 3484 2000 
z
" transform="scale(0.015625)"/>
        <path id="TimesNewRomanPSMT-2e" d="M 800 606 
Q 947 606 1047 504 
Q 1147 403 1147 259 
Q 1147 116 1045 14 
Q 944 -88 800 -88 
Q 656 -88 554 14 
Q 453 116 453 259 
Q 453 406 554 506 
Q 656 606 800 606 
z
" transform="scale(0.015625)"/>
       </defs>
       <use xlink:href="#TimesNewRomanPSMT-2212"/>
       <use xlink:href="#TimesNewRomanPSMT-32" x="56.396484"/>
       <use xlink:href="#TimesNewRomanPSMT-2e" x="106.396484"/>
       <use xlink:href="#TimesNewRomanPSMT-30" x="131.396484"/>
      </g>
     </g>
    </g>
    <g id="ytick_2">
     <g id="line2d_12">
      <g>
       <use xlink:href="#mcc3dc29500" x="47.519688" y="278.345055" style="stroke: #000000; stroke-width: 0.8"/>
      </g>
     </g>
     <g id="text_13">
      <!-- −1.5 -->
      <g transform="translate(22.380625 281.81693) scale(0.1 -0.1)">
       <use xlink:href="#TimesNewRomanPSMT-2212"/>
       <use xlink:href="#TimesNewRomanPSMT-31" x="56.396484"/>
       <use xlink:href="#TimesNewRomanPSMT-2e" x="106.396484"/>
       <use xlink:href="#TimesNewRomanPSMT-35" x="131.396484"/>
      </g>
     </g>
    </g>
    <g id="ytick_3">
     <g id="line2d_13">
      <g>
       <use xlink:href="#mcc3dc29500" x="47.519688" y="244.179828" style="stroke: #000000; stroke-width: 0.8"/>
      </g>
     </g>
     <g id="text_14">
      <!-- −1.0 -->
      <g transform="translate(22.380625 247.651703) scale(0.1 -0.1)">
       <use xlink:href="#TimesNewRomanPSMT-2212"/>
       <use xlink:href="#TimesNewRomanPSMT-31" x="56.396484"/>
       <use xlink:href="#TimesNewRomanPSMT-2e" x="106.396484"/>
       <use xlink:href="#TimesNewRomanPSMT-30" x="131.396484"/>
      </g>
     </g>
    </g>
    <g id="ytick_4">
     <g id="line2d_14">
      <g>
       <use xlink:href="#mcc3dc29500" x="47.519688" y="210.014602" style="stroke: #000000; stroke-width: 0.8"/>
      </g>
     </g>
     <g id="text_15">
      <!-- −0.5 -->
      <g transform="translate(22.380625 213.486477) scale(0.1 -0.1)">
       <use xlink:href="#TimesNewRomanPSMT-2212"/>
       <use xlink:href="#TimesNewRomanPSMT-30" x="56.396484"/>
       <use xlink:href="#TimesNewRomanPSMT-2e" x="106.396484"/>
       <use xlink:href="#TimesNewRomanPSMT-35" x="131.396484"/>
      </g>
     </g>
    </g>
    <g id="ytick_5">
     <g id="line2d_15">
      <g>
       <use xlink:href="#mcc3dc29500" x="47.519688" y="175.849375" style="stroke: #000000; stroke-width: 0.8"/>
      </g>
     </g>
     <g id="text_16">
      <!-- 0.0 -->
      <g transform="translate(28.019688 179.32125) scale(0.1 -0.1)">
       <use xlink:href="#TimesNewRomanPSMT-30"/>
       <use xlink:href="#TimesNewRomanPSMT-2e" x="50"/>
       <use xlink:href="#TimesNewRomanPSMT-30" x="75"/>
      </g>
     </g>
    </g>
    <g id="ytick_6">
     <g id="line2d_16">
      <g>
       <use xlink:href="#mcc3dc29500" x="47.519688" y="141.684148" style="stroke: #000000; stroke-width: 0.8"/>
      </g>
     </g>
     <g id="text_17">
      <!-- 0.5 -->
      <g transform="translate(28.019688 145.156023) scale(0.1 -0.1)">
       <use xlink:href="#TimesNewRomanPSMT-30"/>
       <use xlink:href="#TimesNewRomanPSMT-2e" x="50"/>
       <use xlink:href="#TimesNewRomanPSMT-35" x="75"/>
      </g>
     </g>
    </g>
    <g id="ytick_7">
     <g id="line2d_17">
      <g>
       <use xlink:href="#mcc3dc29500" x="47.519688" y="107.518922" style="stroke: #000000; stroke-width: 0.8"/>
      </g>
     </g>
     <g id="text_18">
      <!-- 1.0 -->
      <g transform="translate(28.019688 110.990797) scale(0.1 -0.1)">
       <use xlink:href="#TimesNewRomanPSMT-31"/>
       <use xlink:href="#TimesNewRomanPSMT-2e" x="50"/>
       <use xlink:href="#TimesNewRomanPSMT-30" x="75"/>
      </g>
     </g>
    </g>
    <g id="ytick_8">
     <g id="line2d_18">
      <g>
       <use xlink:href="#mcc3dc29500" x="47.519688" y="73.353695" style="stroke: #000000; stroke-width: 0.8"/>
      </g>
     </g>
     <g id="text_19">
      <!-- 1.5 -->
      <g transform="translate(28.019688 76.82557) scale(0.1 -0.1)">
       <use xlink:href="#TimesNewRomanPSMT-31"/>
       <use xlink:href="#TimesNewRomanPSMT-2e" x="50"/>
       <use xlink:href="#TimesNewRomanPSMT-35" x="75"/>
      </g>
     </g>
    </g>
    <g id="ytick_9">
     <g id="line2d_19">
      <g>
       <use xlink:href="#mcc3dc29500" x="47.519688" y="39.188469" style="stroke: #000000; stroke-width: 0.8"/>
      </g>
     </g>
     <g id="text_20">
      <!-- 2.0 -->
      <g transform="translate(28.019688 42.660344) scale(0.1 -0.1)">
       <use xlink:href="#TimesNewRomanPSMT-32"/>
       <use xlink:href="#TimesNewRomanPSMT-2e" x="50"/>
       <use xlink:href="#TimesNewRomanPSMT-30" x="75"/>
      </g>
     </g>
    </g>
    <g id="text_21">
     <!-- Revenue Growth ($) -->
     <g transform="translate(15.81375 225.168437) rotate(-90) scale(0.12 -0.12)">
      <defs>
       <path id="TimesNewRomanPSMT-52" d="M 4325 0 
L 3194 0 
L 1759 1981 
Q 1600 1975 1500 1975 
Q 1459 1975 1412 1976 
Q 1366 1978 1316 1981 
L 1316 750 
Q 1316 350 1403 253 
Q 1522 116 1759 116 
L 1925 116 
L 1925 0 
L 109 0 
L 109 116 
L 269 116 
Q 538 116 653 291 
Q 719 388 719 750 
L 719 3488 
Q 719 3888 631 3984 
Q 509 4122 269 4122 
L 109 4122 
L 109 4238 
L 1653 4238 
Q 2328 4238 2648 4139 
Q 2969 4041 3192 3777 
Q 3416 3513 3416 3147 
Q 3416 2756 3161 2468 
Q 2906 2181 2372 2063 
L 3247 847 
Q 3547 428 3762 290 
Q 3978 153 4325 116 
L 4325 0 
z
M 1316 2178 
Q 1375 2178 1419 2176 
Q 1463 2175 1491 2175 
Q 2097 2175 2405 2437 
Q 2713 2700 2713 3106 
Q 2713 3503 2464 3751 
Q 2216 4000 1806 4000 
Q 1625 4000 1316 3941 
L 1316 2178 
z
" transform="scale(0.015625)"/>
       <path id="TimesNewRomanPSMT-76" d="M 53 2863 
L 1400 2863 
L 1400 2747 
L 1313 2747 
Q 1191 2747 1127 2687 
Q 1063 2628 1063 2528 
Q 1063 2419 1128 2269 
L 1794 688 
L 2463 2328 
Q 2534 2503 2534 2594 
Q 2534 2638 2509 2666 
Q 2475 2713 2422 2730 
Q 2369 2747 2206 2747 
L 2206 2863 
L 3141 2863 
L 3141 2747 
Q 2978 2734 2916 2681 
Q 2806 2588 2719 2369 
L 1703 -88 
L 1575 -88 
L 553 2328 
Q 484 2497 421 2570 
Q 359 2644 263 2694 
Q 209 2722 53 2747 
L 53 2863 
z
" transform="scale(0.015625)"/>
       <path id="TimesNewRomanPSMT-6e" d="M 1034 2341 
Q 1538 2947 1994 2947 
Q 2228 2947 2397 2830 
Q 2566 2713 2666 2444 
Q 2734 2256 2734 1869 
L 2734 647 
Q 2734 375 2778 278 
Q 2813 200 2889 156 
Q 2966 113 3172 113 
L 3172 0 
L 1756 0 
L 1756 113 
L 1816 113 
Q 2016 113 2095 173 
Q 2175 234 2206 353 
Q 2219 400 2219 647 
L 2219 1819 
Q 2219 2209 2117 2386 
Q 2016 2563 1775 2563 
Q 1403 2563 1034 2156 
L 1034 647 
Q 1034 356 1069 288 
Q 1113 197 1189 155 
Q 1266 113 1500 113 
L 1500 0 
L 84 0 
L 84 113 
L 147 113 
Q 366 113 442 223 
Q 519 334 519 647 
L 519 1709 
Q 519 2225 495 2337 
Q 472 2450 423 2490 
Q 375 2531 294 2531 
Q 206 2531 84 2484 
L 38 2597 
L 900 2947 
L 1034 2947 
L 1034 2341 
z
" transform="scale(0.015625)"/>
       <path id="TimesNewRomanPSMT-75" d="M 2709 2863 
L 2709 1128 
Q 2709 631 2732 520 
Q 2756 409 2807 365 
Q 2859 322 2928 322 
Q 3025 322 3147 375 
L 3191 266 
L 2334 -88 
L 2194 -88 
L 2194 519 
Q 1825 119 1631 15 
Q 1438 -88 1222 -88 
Q 981 -88 804 51 
Q 628 191 559 409 
Q 491 628 491 1028 
L 491 2306 
Q 491 2509 447 2587 
Q 403 2666 317 2708 
Q 231 2750 6 2747 
L 6 2863 
L 1009 2863 
L 1009 947 
Q 1009 547 1148 422 
Q 1288 297 1484 297 
Q 1619 297 1789 381 
Q 1959 466 2194 703 
L 2194 2325 
Q 2194 2569 2105 2655 
Q 2016 2741 1734 2747 
L 1734 2863 
L 2709 2863 
z
" transform="scale(0.015625)"/>
       <path id="TimesNewRomanPSMT-20" transform="scale(0.015625)"/>
       <path id="TimesNewRomanPSMT-47" d="M 3928 4334 
L 4038 2997 
L 3928 2997 
Q 3763 3497 3500 3750 
Q 3122 4116 2528 4116 
Q 1719 4116 1297 3475 
Q 944 2934 944 2188 
Q 944 1581 1178 1081 
Q 1413 581 1792 348 
Q 2172 116 2572 116 
Q 2806 116 3025 175 
Q 3244 234 3447 350 
L 3447 1575 
Q 3447 1894 3398 1992 
Q 3350 2091 3248 2142 
Q 3147 2194 2891 2194 
L 2891 2313 
L 4531 2313 
L 4531 2194 
L 4453 2194 
Q 4209 2194 4119 2031 
Q 4056 1916 4056 1575 
L 4056 278 
Q 3697 84 3347 -6 
Q 2997 -97 2569 -97 
Q 1341 -97 703 691 
Q 225 1281 225 2053 
Q 225 2613 494 3125 
Q 813 3734 1369 4063 
Q 1834 4334 2469 4334 
Q 2700 4334 2889 4296 
Q 3078 4259 3425 4131 
Q 3600 4066 3659 4066 
Q 3719 4066 3761 4120 
Q 3803 4175 3813 4334 
L 3928 4334 
z
" transform="scale(0.015625)"/>
       <path id="TimesNewRomanPSMT-6f" d="M 1600 2947 
Q 2250 2947 2644 2453 
Q 2978 2031 2978 1484 
Q 2978 1100 2793 706 
Q 2609 313 2286 112 
Q 1963 -88 1566 -88 
Q 919 -88 538 428 
Q 216 863 216 1403 
Q 216 1797 411 2186 
Q 606 2575 925 2761 
Q 1244 2947 1600 2947 
z
M 1503 2744 
Q 1338 2744 1170 2645 
Q 1003 2547 900 2300 
Q 797 2053 797 1666 
Q 797 1041 1045 587 
Q 1294 134 1700 134 
Q 2003 134 2200 384 
Q 2397 634 2397 1244 
Q 2397 2006 2069 2444 
Q 1847 2744 1503 2744 
z
" transform="scale(0.015625)"/>
       <path id="TimesNewRomanPSMT-77" d="M 41 2863 
L 1241 2863 
L 1241 2747 
Q 1075 2734 1023 2687 
Q 972 2641 972 2553 
Q 972 2456 1025 2319 
L 1638 672 
L 2253 2013 
L 2091 2434 
Q 2016 2622 1894 2694 
Q 1825 2738 1638 2747 
L 1638 2863 
L 3000 2863 
L 3000 2747 
Q 2775 2738 2681 2666 
Q 2619 2616 2619 2506 
Q 2619 2444 2644 2378 
L 3294 734 
L 3897 2319 
Q 3959 2488 3959 2588 
Q 3959 2647 3898 2694 
Q 3838 2741 3659 2747 
L 3659 2863 
L 4563 2863 
L 4563 2747 
Q 4291 2706 4163 2378 
L 3206 -88 
L 3078 -88 
L 2363 1741 
L 1528 -88 
L 1413 -88 
L 494 2319 
Q 403 2547 315 2626 
Q 228 2706 41 2747 
L 41 2863 
z
" transform="scale(0.015625)"/>
       <path id="TimesNewRomanPSMT-74" d="M 1031 3803 
L 1031 2863 
L 1700 2863 
L 1700 2644 
L 1031 2644 
L 1031 788 
Q 1031 509 1111 412 
Q 1191 316 1316 316 
Q 1419 316 1516 380 
Q 1613 444 1666 569 
L 1788 569 
Q 1678 263 1478 108 
Q 1278 -47 1066 -47 
Q 922 -47 784 33 
Q 647 113 581 261 
Q 516 409 516 719 
L 516 2644 
L 63 2644 
L 63 2747 
Q 234 2816 414 2980 
Q 594 3144 734 3369 
Q 806 3488 934 3803 
L 1031 3803 
z
" transform="scale(0.015625)"/>
       <path id="TimesNewRomanPSMT-68" d="M 1041 4444 
L 1041 2350 
Q 1388 2731 1591 2839 
Q 1794 2947 1997 2947 
Q 2241 2947 2416 2812 
Q 2591 2678 2675 2391 
Q 2734 2191 2734 1659 
L 2734 647 
Q 2734 375 2778 275 
Q 2809 200 2884 156 
Q 2959 113 3159 113 
L 3159 0 
L 1753 0 
L 1753 113 
L 1819 113 
Q 2019 113 2097 173 
Q 2175 234 2206 353 
Q 2216 403 2216 647 
L 2216 1659 
Q 2216 2128 2167 2275 
Q 2119 2422 2012 2495 
Q 1906 2569 1756 2569 
Q 1603 2569 1437 2487 
Q 1272 2406 1041 2159 
L 1041 647 
Q 1041 353 1073 281 
Q 1106 209 1195 161 
Q 1284 113 1503 113 
L 1503 0 
L 84 0 
L 84 113 
Q 275 113 384 172 
Q 447 203 484 290 
Q 522 378 522 647 
L 522 3238 
Q 522 3728 498 3840 
Q 475 3953 426 3993 
Q 378 4034 297 4034 
Q 231 4034 84 3984 
L 41 4094 
L 897 4444 
L 1041 4444 
z
" transform="scale(0.015625)"/>
       <path id="TimesNewRomanPSMT-28" d="M 1988 -1253 
L 1988 -1369 
Q 1516 -1131 1200 -813 
Q 750 -359 506 256 
Q 263 872 263 1534 
Q 263 2503 741 3301 
Q 1219 4100 1988 4444 
L 1988 4313 
Q 1603 4100 1356 3731 
Q 1109 3363 987 2797 
Q 866 2231 866 1616 
Q 866 947 969 400 
Q 1050 -31 1165 -292 
Q 1281 -553 1476 -793 
Q 1672 -1034 1988 -1253 
z
" transform="scale(0.015625)"/>
       <path id="TimesNewRomanPSMT-24" d="M 338 1044 
L 475 1044 
Q 509 616 743 387 
Q 978 159 1444 116 
L 1444 1941 
Q 741 2375 506 2709 
Q 341 2947 341 3288 
Q 341 3672 627 3959 
Q 913 4247 1444 4306 
L 1444 4594 
L 1644 4594 
L 1644 4306 
Q 1900 4291 2075 4247 
Q 2166 4225 2675 4031 
L 2675 3097 
L 2553 3097 
Q 2513 3594 2295 3823 
Q 2078 4053 1644 4097 
L 1644 2509 
Q 2431 1959 2654 1698 
Q 2878 1438 2878 1050 
Q 2878 619 2551 290 
Q 2225 -38 1644 -88 
L 1644 -488 
L 1444 -488 
L 1444 -88 
Q 1150 -75 897 -20 
Q 644 34 338 159 
L 338 1044 
z
M 1444 2641 
L 1444 4094 
Q 1131 4056 979 3895 
Q 828 3734 828 3491 
Q 828 3263 965 3064 
Q 1103 2866 1444 2641 
z
M 1644 116 
Q 1878 156 2003 231 
Q 2178 341 2279 517 
Q 2381 694 2381 894 
Q 2381 1100 2257 1284 
Q 2134 1469 1644 1806 
L 1644 116 
z
" transform="scale(0.015625)"/>
       <path id="TimesNewRomanPSMT-29" d="M 144 4313 
L 144 4444 
Q 619 4209 934 3891 
Q 1381 3434 1625 2820 
Q 1869 2206 1869 1541 
Q 1869 572 1392 -226 
Q 916 -1025 144 -1369 
L 144 -1253 
Q 528 -1038 776 -670 
Q 1025 -303 1145 264 
Q 1266 831 1266 1447 
Q 1266 2113 1163 2663 
Q 1084 3094 967 3353 
Q 850 3613 656 3853 
Q 463 4094 144 4313 
z
" transform="scale(0.015625)"/>
      </defs>
      <use xlink:href="#TimesNewRomanPSMT-52"/>
      <use xlink:href="#TimesNewRomanPSMT-65" x="66.699219"/>
      <use xlink:href="#TimesNewRomanPSMT-76" x="111.083984"/>
      <use xlink:href="#TimesNewRomanPSMT-65" x="161.083984"/>
      <use xlink:href="#TimesNewRomanPSMT-6e" x="205.46875"/>
      <use xlink:href="#TimesNewRomanPSMT-75" x="255.46875"/>
      <use xlink:href="#TimesNewRomanPSMT-65" x="305.46875"/>
      <use xlink:href="#TimesNewRomanPSMT-20" x="349.853516"/>
      <use xlink:href="#TimesNewRomanPSMT-47" x="374.853516"/>
      <use xlink:href="#TimesNewRomanPSMT-72" x="447.070312"/>
      <use xlink:href="#TimesNewRomanPSMT-6f" x="480.371094"/>
      <use xlink:href="#TimesNewRomanPSMT-77" x="530.371094"/>
      <use xlink:href="#TimesNewRomanPSMT-74" x="602.587891"/>
      <use xlink:href="#TimesNewRomanPSMT-68" x="630.371094"/>
      <use xlink:href="#TimesNewRomanPSMT-20" x="680.371094"/>
      <use xlink:href="#TimesNewRomanPSMT-28" x="705.371094"/>
      <use xlink:href="#TimesNewRomanPSMT-24" x="738.671875"/>
      <use xlink:href="#TimesNewRomanPSMT-29" x="788.671875"/>
     </g>
    </g>
    <g id="text_22">
     <!-- 1e7 -->
     <g transform="translate(47.519688 34.249375) scale(0.1 -0.1)">
      <use xlink:href="#TimesNewRomanPSMT-31"/>
      <use xlink:href="#TimesNewRomanPSMT-65" x="50"/>
      <use xlink:href="#TimesNewRomanPSMT-37" x="94.384766"/>
     </g>
    </g>
   </g>
   <g id="patch_3">
    <path d="M 47.519688 314.449375 
L 47.519688 37.249375 
" style="fill: none; stroke: #000000; stroke-width: 0.8; stroke-linejoin: miter; stroke-linecap: square"/>
   </g>
   <g id="patch_4">
    <path d="M 436.319687 314.449375 
L 436.319687 37.249375 
" style="fill: none; stroke: #000000; stroke-width: 0.8; stroke-linejoin: miter; stroke-linecap: square"/>
   </g>
   <g id="patch_5">
    <path d="M 47.519687 314.449375 
L 436.319687 314.449375 
" style="fill: none; stroke: #000000; stroke-width: 0.8; stroke-linejoin: miter; stroke-linecap: square"/>
   </g>
   <g id="patch_6">
    <path d="M 47.519687 37.249375 
L 436.319687 37.249375 
" style="fill: none; stroke: #000000; stroke-width: 0.8; stroke-linejoin: miter; stroke-linecap: square"/>
   </g>
   <g id="text_23">
    <!-- Revenue Growth from 1979 to 1988 ($)  -->
    <g transform="translate(128.579844 17.249375) scale(0.14 -0.14)">
     <defs>
      <path id="TimesNewRomanPSMT-66" d="M 1319 2638 
L 1319 756 
Q 1319 356 1406 250 
Q 1522 113 1716 113 
L 1975 113 
L 1975 0 
L 266 0 
L 266 113 
L 394 113 
Q 519 113 622 175 
Q 725 238 764 344 
Q 803 450 803 756 
L 803 2638 
L 247 2638 
L 247 2863 
L 803 2863 
L 803 3050 
Q 803 3478 940 3775 
Q 1078 4072 1361 4255 
Q 1644 4438 1997 4438 
Q 2325 4438 2600 4225 
Q 2781 4084 2781 3909 
Q 2781 3816 2700 3733 
Q 2619 3650 2525 3650 
Q 2453 3650 2373 3701 
Q 2294 3753 2178 3923 
Q 2063 4094 1966 4153 
Q 1869 4213 1750 4213 
Q 1606 4213 1506 4136 
Q 1406 4059 1362 3898 
Q 1319 3738 1319 3069 
L 1319 2863 
L 2056 2863 
L 2056 2638 
L 1319 2638 
z
" transform="scale(0.015625)"/>
      <path id="TimesNewRomanPSMT-6d" d="M 1050 2338 
Q 1363 2650 1419 2697 
Q 1559 2816 1721 2881 
Q 1884 2947 2044 2947 
Q 2313 2947 2506 2790 
Q 2700 2634 2766 2338 
Q 3088 2713 3309 2830 
Q 3531 2947 3766 2947 
Q 3994 2947 4170 2830 
Q 4347 2713 4450 2447 
Q 4519 2266 4519 1878 
L 4519 647 
Q 4519 378 4559 278 
Q 4591 209 4675 161 
Q 4759 113 4950 113 
L 4950 0 
L 3538 0 
L 3538 113 
L 3597 113 
Q 3781 113 3884 184 
Q 3956 234 3988 344 
Q 4000 397 4000 647 
L 4000 1878 
Q 4000 2228 3916 2372 
Q 3794 2572 3525 2572 
Q 3359 2572 3192 2489 
Q 3025 2406 2788 2181 
L 2781 2147 
L 2788 2013 
L 2788 647 
Q 2788 353 2820 281 
Q 2853 209 2943 161 
Q 3034 113 3253 113 
L 3253 0 
L 1806 0 
L 1806 113 
Q 2044 113 2133 169 
Q 2222 225 2256 338 
Q 2272 391 2272 647 
L 2272 1878 
Q 2272 2228 2169 2381 
Q 2031 2581 1784 2581 
Q 1616 2581 1450 2491 
Q 1191 2353 1050 2181 
L 1050 647 
Q 1050 366 1089 281 
Q 1128 197 1204 155 
Q 1281 113 1516 113 
L 1516 0 
L 100 0 
L 100 113 
Q 297 113 375 155 
Q 453 197 493 289 
Q 534 381 534 647 
L 534 1741 
Q 534 2213 506 2350 
Q 484 2453 437 2492 
Q 391 2531 309 2531 
Q 222 2531 100 2484 
L 53 2597 
L 916 2947 
L 1050 2947 
L 1050 2338 
z
" transform="scale(0.015625)"/>
     </defs>
     <use xlink:href="#TimesNewRomanPSMT-52"/>
     <use xlink:href="#TimesNewRomanPSMT-65" x="66.699219"/>
     <use xlink:href="#TimesNewRomanPSMT-76" x="111.083984"/>
     <use xlink:href="#TimesNewRomanPSMT-65" x="161.083984"/>
     <use xlink:href="#TimesNewRomanPSMT-6e" x="205.46875"/>
     <use xlink:href="#TimesNewRomanPSMT-75" x="255.46875"/>
     <use xlink:href="#TimesNewRomanPSMT-65" x="305.46875"/>
     <use xlink:href="#TimesNewRomanPSMT-20" x="349.853516"/>
     <use xlink:href="#TimesNewRomanPSMT-47" x="374.853516"/>
     <use xlink:href="#TimesNewRomanPSMT-72" x="447.070312"/>
     <use xlink:href="#TimesNewRomanPSMT-6f" x="480.371094"/>
     <use xlink:href="#TimesNewRomanPSMT-77" x="530.371094"/>
     <use xlink:href="#TimesNewRomanPSMT-74" x="602.587891"/>
     <use xlink:href="#TimesNewRomanPSMT-68" x="630.371094"/>
     <use xlink:href="#TimesNewRomanPSMT-20" x="680.371094"/>
     <use xlink:href="#TimesNewRomanPSMT-66" x="705.371094"/>
     <use xlink:href="#TimesNewRomanPSMT-72" x="738.671875"/>
     <use xlink:href="#TimesNewRomanPSMT-6f" x="771.972656"/>
     <use xlink:href="#TimesNewRomanPSMT-6d" x="821.972656"/>
     <use xlink:href="#TimesNewRomanPSMT-20" x="899.755859"/>
     <use xlink:href="#TimesNewRomanPSMT-31" x="924.755859"/>
     <use xlink:href="#TimesNewRomanPSMT-39" x="974.755859"/>
     <use xlink:href="#TimesNewRomanPSMT-37" x="1024.755859"/>
     <use xlink:href="#TimesNewRomanPSMT-39" x="1074.755859"/>
     <use xlink:href="#TimesNewRomanPSMT-20" x="1124.755859"/>
     <use xlink:href="#TimesNewRomanPSMT-74" x="1149.755859"/>
     <use xlink:href="#TimesNewRomanPSMT-6f" x="1177.539062"/>
     <use xlink:href="#TimesNewRomanPSMT-20" x="1227.539062"/>
     <use xlink:href="#TimesNewRomanPSMT-31" x="1252.539062"/>
     <use xlink:href="#TimesNewRomanPSMT-39" x="1302.539062"/>
     <use xlink:href="#TimesNewRomanPSMT-38" x="1352.539062"/>
     <use xlink:href="#TimesNewRomanPSMT-38" x="1402.539062"/>
     <use xlink:href="#TimesNewRomanPSMT-20" x="1452.539062"/>
     <use xlink:href="#TimesNewRomanPSMT-28" x="1477.539062"/>
     <use xlink:href="#TimesNewRomanPSMT-24" x="1510.839844"/>
     <use xlink:href="#TimesNewRomanPSMT-29" x="1560.839844"/>
     <use xlink:href="#TimesNewRomanPSMT-20" x="1594.140625"/>
    </g>
   </g>
   <g id="legend_1">
    <g id="patch_7">
     <path d="M 453.095687 164.122031 
L 473.095687 164.122031 
L 473.095687 157.122031 
L 453.095687 157.122031 
z
" style="fill: #1f77b4"/>
    </g>
    <g id="text_24">
     <!-- Ironclad Ventures -->
     <g transform="translate(481.095687 164.122031) scale(0.1 -0.1)">
      <defs>
       <path id="TimesNewRomanPSMT-49" d="M 1975 116 
L 1975 0 
L 159 0 
L 159 116 
L 309 116 
Q 572 116 691 269 
Q 766 369 766 750 
L 766 3488 
Q 766 3809 725 3913 
Q 694 3991 597 4047 
Q 459 4122 309 4122 
L 159 4122 
L 159 4238 
L 1975 4238 
L 1975 4122 
L 1822 4122 
Q 1563 4122 1444 3969 
Q 1366 3869 1366 3488 
L 1366 750 
Q 1366 428 1406 325 
Q 1438 247 1538 191 
Q 1672 116 1822 116 
L 1975 116 
z
" transform="scale(0.015625)"/>
       <path id="TimesNewRomanPSMT-63" d="M 2631 1088 
Q 2516 522 2178 217 
Q 1841 -88 1431 -88 
Q 944 -88 581 321 
Q 219 731 219 1428 
Q 219 2103 620 2525 
Q 1022 2947 1584 2947 
Q 2006 2947 2278 2723 
Q 2550 2500 2550 2259 
Q 2550 2141 2473 2067 
Q 2397 1994 2259 1994 
Q 2075 1994 1981 2113 
Q 1928 2178 1911 2362 
Q 1894 2547 1784 2644 
Q 1675 2738 1481 2738 
Q 1169 2738 978 2506 
Q 725 2200 725 1697 
Q 725 1184 976 792 
Q 1228 400 1656 400 
Q 1963 400 2206 609 
Q 2378 753 2541 1131 
L 2631 1088 
z
" transform="scale(0.015625)"/>
       <path id="TimesNewRomanPSMT-6c" d="M 1184 4444 
L 1184 647 
Q 1184 378 1223 290 
Q 1263 203 1344 158 
Q 1425 113 1647 113 
L 1647 0 
L 244 0 
L 244 113 
Q 441 113 512 153 
Q 584 194 625 287 
Q 666 381 666 647 
L 666 3247 
Q 666 3731 644 3842 
Q 622 3953 573 3993 
Q 525 4034 450 4034 
Q 369 4034 244 3984 
L 191 4094 
L 1044 4444 
L 1184 4444 
z
" transform="scale(0.015625)"/>
       <path id="TimesNewRomanPSMT-64" d="M 2222 322 
Q 2013 103 1813 7 
Q 1613 -88 1381 -88 
Q 913 -88 563 304 
Q 213 697 213 1313 
Q 213 1928 600 2439 
Q 988 2950 1597 2950 
Q 1975 2950 2222 2709 
L 2222 3238 
Q 2222 3728 2198 3840 
Q 2175 3953 2125 3993 
Q 2075 4034 2000 4034 
Q 1919 4034 1784 3984 
L 1744 4094 
L 2597 4444 
L 2738 4444 
L 2738 1134 
Q 2738 631 2761 520 
Q 2784 409 2836 365 
Q 2888 322 2956 322 
Q 3041 322 3181 375 
L 3216 266 
L 2366 -88 
L 2222 -88 
L 2222 322 
z
M 2222 541 
L 2222 2016 
Q 2203 2228 2109 2403 
Q 2016 2578 1861 2667 
Q 1706 2756 1559 2756 
Q 1284 2756 1069 2509 
Q 784 2184 784 1559 
Q 784 928 1059 592 
Q 1334 256 1672 256 
Q 1956 256 2222 541 
z
" transform="scale(0.015625)"/>
       <path id="TimesNewRomanPSMT-56" d="M 4544 4238 
L 4544 4122 
Q 4319 4081 4203 3978 
Q 4038 3825 3909 3509 
L 2431 -97 
L 2316 -97 
L 728 3556 
Q 606 3838 556 3900 
Q 478 3997 364 4051 
Q 250 4106 56 4122 
L 56 4238 
L 1788 4238 
L 1788 4122 
Q 1494 4094 1406 4022 
Q 1319 3950 1319 3838 
Q 1319 3681 1463 3350 
L 2541 866 
L 3541 3319 
Q 3688 3681 3688 3822 
Q 3688 3913 3597 3995 
Q 3506 4078 3291 4113 
Q 3275 4116 3238 4122 
L 3238 4238 
L 4544 4238 
z
" transform="scale(0.015625)"/>
       <path id="TimesNewRomanPSMT-73" d="M 2050 2947 
L 2050 1972 
L 1947 1972 
Q 1828 2431 1642 2597 
Q 1456 2763 1169 2763 
Q 950 2763 815 2647 
Q 681 2531 681 2391 
Q 681 2216 781 2091 
Q 878 1963 1175 1819 
L 1631 1597 
Q 2266 1288 2266 781 
Q 2266 391 1970 151 
Q 1675 -88 1309 -88 
Q 1047 -88 709 6 
Q 606 38 541 38 
Q 469 38 428 -44 
L 325 -44 
L 325 978 
L 428 978 
Q 516 541 762 319 
Q 1009 97 1316 97 
Q 1531 97 1667 223 
Q 1803 350 1803 528 
Q 1803 744 1651 891 
Q 1500 1038 1047 1263 
Q 594 1488 453 1669 
Q 313 1847 313 2119 
Q 313 2472 555 2709 
Q 797 2947 1181 2947 
Q 1350 2947 1591 2875 
Q 1750 2828 1803 2828 
Q 1853 2828 1881 2850 
Q 1909 2872 1947 2947 
L 2050 2947 
z
" transform="scale(0.015625)"/>
      </defs>
      <use xlink:href="#TimesNewRomanPSMT-49"/>
      <use xlink:href="#TimesNewRomanPSMT-72" x="33.300781"/>
      <use xlink:href="#TimesNewRomanPSMT-6f" x="66.601562"/>
      <use xlink:href="#TimesNewRomanPSMT-6e" x="116.601562"/>
      <use xlink:href="#TimesNewRomanPSMT-63" x="166.601562"/>
      <use xlink:href="#TimesNewRomanPSMT-6c" x="210.986328"/>
      <use xlink:href="#TimesNewRomanPSMT-61" x="238.769531"/>
      <use xlink:href="#TimesNewRomanPSMT-64" x="283.154297"/>
      <use xlink:href="#TimesNewRomanPSMT-20" x="333.154297"/>
      <use xlink:href="#TimesNewRomanPSMT-56" x="356.404297"/>
      <use xlink:href="#TimesNewRomanPSMT-65" x="417.496094"/>
      <use xlink:href="#TimesNewRomanPSMT-6e" x="461.880859"/>
      <use xlink:href="#TimesNewRomanPSMT-74" x="511.880859"/>
      <use xlink:href="#TimesNewRomanPSMT-75" x="539.664062"/>
      <use xlink:href="#TimesNewRomanPSMT-72" x="589.664062"/>
      <use xlink:href="#TimesNewRomanPSMT-65" x="622.964844"/>
      <use xlink:href="#TimesNewRomanPSMT-73" x="667.349609"/>
     </g>
    </g>
    <g id="patch_8">
     <path d="M 453.095687 178.261094 
L 473.095687 178.261094 
L 473.095687 171.261094 
L 453.095687 171.261094 
z
" style="fill: #aec7e8"/>
    </g>
    <g id="text_25">
     <!-- Apex Systems -->
     <g transform="translate(481.095687 178.261094) scale(0.1 -0.1)">
      <defs>
       <path id="TimesNewRomanPSMT-41" d="M 2928 1419 
L 1288 1419 
L 1000 750 
Q 894 503 894 381 
Q 894 284 986 211 
Q 1078 138 1384 116 
L 1384 0 
L 50 0 
L 50 116 
Q 316 163 394 238 
Q 553 388 747 847 
L 2238 4334 
L 2347 4334 
L 3822 809 
Q 4000 384 4145 257 
Q 4291 131 4550 116 
L 4550 0 
L 2878 0 
L 2878 116 
Q 3131 128 3220 200 
Q 3309 272 3309 375 
Q 3309 513 3184 809 
L 2928 1419 
z
M 2841 1650 
L 2122 3363 
L 1384 1650 
L 2841 1650 
z
" transform="scale(0.015625)"/>
       <path id="TimesNewRomanPSMT-70" d="M -6 2578 
L 875 2934 
L 994 2934 
L 994 2266 
Q 1216 2644 1439 2795 
Q 1663 2947 1909 2947 
Q 2341 2947 2628 2609 
Q 2981 2197 2981 1534 
Q 2981 794 2556 309 
Q 2206 -88 1675 -88 
Q 1444 -88 1275 -22 
Q 1150 25 994 166 
L 994 -706 
Q 994 -1000 1030 -1079 
Q 1066 -1159 1155 -1206 
Q 1244 -1253 1478 -1253 
L 1478 -1369 
L -22 -1369 
L -22 -1253 
L 56 -1253 
Q 228 -1256 350 -1188 
Q 409 -1153 442 -1076 
Q 475 -1000 475 -688 
L 475 2019 
Q 475 2297 450 2372 
Q 425 2447 370 2484 
Q 316 2522 222 2522 
Q 147 2522 31 2478 
L -6 2578 
z
M 994 2081 
L 994 1013 
Q 994 666 1022 556 
Q 1066 375 1236 237 
Q 1406 100 1666 100 
Q 1978 100 2172 344 
Q 2425 663 2425 1241 
Q 2425 1897 2138 2250 
Q 1938 2494 1663 2494 
Q 1513 2494 1366 2419 
Q 1253 2363 994 2081 
z
" transform="scale(0.015625)"/>
       <path id="TimesNewRomanPSMT-78" d="M 84 2863 
L 1431 2863 
L 1431 2747 
Q 1303 2747 1251 2703 
Q 1200 2659 1200 2588 
Q 1200 2513 1309 2356 
Q 1344 2306 1413 2200 
L 1616 1875 
L 1850 2200 
Q 2075 2509 2075 2591 
Q 2075 2656 2022 2701 
Q 1969 2747 1850 2747 
L 1850 2863 
L 2819 2863 
L 2819 2747 
Q 2666 2738 2553 2663 
Q 2400 2556 2134 2200 
L 1744 1678 
L 2456 653 
Q 2719 275 2831 198 
Q 2944 122 3122 113 
L 3122 0 
L 1772 0 
L 1772 113 
Q 1913 113 1991 175 
Q 2050 219 2050 291 
Q 2050 363 1850 653 
L 1431 1266 
L 972 653 
Q 759 369 759 316 
Q 759 241 829 180 
Q 900 119 1041 113 
L 1041 0 
L 106 0 
L 106 113 
Q 219 128 303 191 
Q 422 281 703 653 
L 1303 1450 
L 759 2238 
Q 528 2575 401 2661 
Q 275 2747 84 2747 
L 84 2863 
z
" transform="scale(0.015625)"/>
       <path id="TimesNewRomanPSMT-53" d="M 2934 4334 
L 2934 2869 
L 2819 2869 
Q 2763 3291 2617 3541 
Q 2472 3791 2203 3937 
Q 1934 4084 1647 4084 
Q 1322 4084 1109 3886 
Q 897 3688 897 3434 
Q 897 3241 1031 3081 
Q 1225 2847 1953 2456 
Q 2547 2138 2764 1967 
Q 2981 1797 3098 1565 
Q 3216 1334 3216 1081 
Q 3216 600 2842 251 
Q 2469 -97 1881 -97 
Q 1697 -97 1534 -69 
Q 1438 -53 1133 45 
Q 828 144 747 144 
Q 669 144 623 97 
Q 578 50 556 -97 
L 441 -97 
L 441 1356 
L 556 1356 
Q 638 900 775 673 
Q 913 447 1195 297 
Q 1478 147 1816 147 
Q 2206 147 2432 353 
Q 2659 559 2659 841 
Q 2659 997 2573 1156 
Q 2488 1316 2306 1453 
Q 2184 1547 1640 1851 
Q 1097 2156 867 2337 
Q 638 2519 519 2737 
Q 400 2956 400 3219 
Q 400 3675 750 4004 
Q 1100 4334 1641 4334 
Q 1978 4334 2356 4169 
Q 2531 4091 2603 4091 
Q 2684 4091 2736 4139 
Q 2788 4188 2819 4334 
L 2934 4334 
z
" transform="scale(0.015625)"/>
       <path id="TimesNewRomanPSMT-79" d="M 38 2863 
L 1372 2863 
L 1372 2747 
L 1306 2747 
Q 1166 2747 1095 2686 
Q 1025 2625 1025 2534 
Q 1025 2413 1128 2197 
L 1825 753 
L 2466 2334 
Q 2519 2463 2519 2588 
Q 2519 2644 2497 2672 
Q 2472 2706 2419 2726 
Q 2366 2747 2231 2747 
L 2231 2863 
L 3163 2863 
L 3163 2747 
Q 3047 2734 2984 2696 
Q 2922 2659 2847 2556 
Q 2819 2513 2741 2316 
L 1575 -541 
Q 1406 -956 1132 -1168 
Q 859 -1381 606 -1381 
Q 422 -1381 303 -1275 
Q 184 -1169 184 -1031 
Q 184 -900 270 -820 
Q 356 -741 506 -741 
Q 609 -741 788 -809 
Q 913 -856 944 -856 
Q 1038 -856 1148 -759 
Q 1259 -663 1372 -384 
L 1575 113 
L 547 2272 
Q 500 2369 397 2513 
Q 319 2622 269 2659 
Q 197 2709 38 2747 
L 38 2863 
z
" transform="scale(0.015625)"/>
      </defs>
      <use xlink:href="#TimesNewRomanPSMT-41"/>
      <use xlink:href="#TimesNewRomanPSMT-70" x="72.216797"/>
      <use xlink:href="#TimesNewRomanPSMT-65" x="122.216797"/>
      <use xlink:href="#TimesNewRomanPSMT-78" x="166.601562"/>
      <use xlink:href="#TimesNewRomanPSMT-20" x="216.601562"/>
      <use xlink:href="#TimesNewRomanPSMT-53" x="241.601562"/>
      <use xlink:href="#TimesNewRomanPSMT-79" x="297.216797"/>
      <use xlink:href="#TimesNewRomanPSMT-73" x="347.216797"/>
      <use xlink:href="#TimesNewRomanPSMT-74" x="386.132812"/>
      <use xlink:href="#TimesNewRomanPSMT-65" x="413.916016"/>
      <use xlink:href="#TimesNewRomanPSMT-6d" x="458.300781"/>
      <use xlink:href="#TimesNewRomanPSMT-73" x="536.083984"/>
     </g>
    </g>
    <g id="patch_9">
     <path d="M 453.095687 192.418906 
L 473.095687 192.418906 
L 473.095687 185.418906 
L 453.095687 185.418906 
z
" style="fill: #ff7f0e"/>
    </g>
    <g id="text_26">
     <!-- Vanguard Dynamics -->
     <g transform="translate(481.095687 192.418906) scale(0.1 -0.1)">
      <defs>
       <path id="TimesNewRomanPSMT-67" d="M 966 1044 
Q 703 1172 562 1401 
Q 422 1631 422 1909 
Q 422 2334 742 2640 
Q 1063 2947 1563 2947 
Q 1972 2947 2272 2747 
L 2878 2747 
Q 3013 2747 3034 2739 
Q 3056 2731 3066 2713 
Q 3084 2684 3084 2613 
Q 3084 2531 3069 2500 
Q 3059 2484 3036 2475 
Q 3013 2466 2878 2466 
L 2506 2466 
Q 2681 2241 2681 1891 
Q 2681 1491 2375 1206 
Q 2069 922 1553 922 
Q 1341 922 1119 984 
Q 981 866 932 777 
Q 884 688 884 625 
Q 884 572 936 522 
Q 988 472 1138 450 
Q 1225 438 1575 428 
Q 2219 413 2409 384 
Q 2700 344 2873 169 
Q 3047 -6 3047 -263 
Q 3047 -616 2716 -925 
Q 2228 -1381 1444 -1381 
Q 841 -1381 425 -1109 
Q 191 -953 191 -784 
Q 191 -709 225 -634 
Q 278 -519 444 -313 
Q 466 -284 763 25 
Q 600 122 533 198 
Q 466 275 466 372 
Q 466 481 555 628 
Q 644 775 966 1044 
z
M 1509 2797 
Q 1278 2797 1122 2612 
Q 966 2428 966 2047 
Q 966 1553 1178 1281 
Q 1341 1075 1591 1075 
Q 1828 1075 1981 1253 
Q 2134 1431 2134 1813 
Q 2134 2309 1919 2591 
Q 1759 2797 1509 2797 
z
M 934 0 
Q 788 -159 713 -296 
Q 638 -434 638 -550 
Q 638 -700 819 -813 
Q 1131 -1006 1722 -1006 
Q 2284 -1006 2551 -807 
Q 2819 -609 2819 -384 
Q 2819 -222 2659 -153 
Q 2497 -84 2016 -72 
Q 1313 -53 934 0 
z
" transform="scale(0.015625)"/>
       <path id="TimesNewRomanPSMT-44" d="M 109 0 
L 109 116 
L 269 116 
Q 538 116 650 288 
Q 719 391 719 750 
L 719 3488 
Q 719 3884 631 3984 
Q 509 4122 269 4122 
L 109 4122 
L 109 4238 
L 1834 4238 
Q 2784 4238 3279 4022 
Q 3775 3806 4076 3303 
Q 4378 2800 4378 2141 
Q 4378 1256 3841 663 
Q 3238 0 2003 0 
L 109 0 
z
M 1319 306 
Q 1716 219 1984 219 
Q 2709 219 3187 728 
Q 3666 1238 3666 2109 
Q 3666 2988 3187 3494 
Q 2709 4000 1959 4000 
Q 1678 4000 1319 3909 
L 1319 306 
z
" transform="scale(0.015625)"/>
       <path id="TimesNewRomanPSMT-69" d="M 928 4444 
Q 1059 4444 1151 4351 
Q 1244 4259 1244 4128 
Q 1244 3997 1151 3903 
Q 1059 3809 928 3809 
Q 797 3809 703 3903 
Q 609 3997 609 4128 
Q 609 4259 701 4351 
Q 794 4444 928 4444 
z
M 1188 2947 
L 1188 647 
Q 1188 378 1227 289 
Q 1266 200 1342 156 
Q 1419 113 1622 113 
L 1622 0 
L 231 0 
L 231 113 
Q 441 113 512 153 
Q 584 194 626 287 
Q 669 381 669 647 
L 669 1750 
Q 669 2216 641 2353 
Q 619 2453 572 2492 
Q 525 2531 444 2531 
Q 356 2531 231 2484 
L 188 2597 
L 1050 2947 
L 1188 2947 
z
" transform="scale(0.015625)"/>
      </defs>
      <use xlink:href="#TimesNewRomanPSMT-56"/>
      <use xlink:href="#TimesNewRomanPSMT-61" x="61.091797"/>
      <use xlink:href="#TimesNewRomanPSMT-6e" x="105.476562"/>
      <use xlink:href="#TimesNewRomanPSMT-67" x="155.476562"/>
      <use xlink:href="#TimesNewRomanPSMT-75" x="205.476562"/>
      <use xlink:href="#TimesNewRomanPSMT-61" x="255.476562"/>
      <use xlink:href="#TimesNewRomanPSMT-72" x="299.861328"/>
      <use xlink:href="#TimesNewRomanPSMT-64" x="333.162109"/>
      <use xlink:href="#TimesNewRomanPSMT-20" x="383.162109"/>
      <use xlink:href="#TimesNewRomanPSMT-44" x="408.162109"/>
      <use xlink:href="#TimesNewRomanPSMT-79" x="480.378906"/>
      <use xlink:href="#TimesNewRomanPSMT-6e" x="530.378906"/>
      <use xlink:href="#TimesNewRomanPSMT-61" x="580.378906"/>
      <use xlink:href="#TimesNewRomanPSMT-6d" x="624.763672"/>
      <use xlink:href="#TimesNewRomanPSMT-69" x="702.546875"/>
      <use xlink:href="#TimesNewRomanPSMT-63" x="730.330078"/>
      <use xlink:href="#TimesNewRomanPSMT-73" x="774.714844"/>
     </g>
    </g>
   </g>
  </g>
 </g>
 <defs>
  <clipPath id="p11f3ca6b39">
   <rect x="47.519688" y="37.249375" width="388.8" height="277.2"/>
  </clipPath>
 </defs>
</svg>
