<?xml version="1.0" encoding="utf-8" standalone="no"?>
<!DOCTYPE svg PUBLIC "-//W3C//DTD SVG 1.1//EN"
  "http://www.w3.org/Graphics/SVG/1.1/DTD/svg11.dtd">
<svg xmlns:xlink="http://www.w3.org/1999/xlink" width="470.588437pt" height="319.98799pt" viewBox="0 0 470.588437 319.98799" xmlns="http://www.w3.org/2000/svg" version="1.1">
 <metadata>
  <rdf:RDF xmlns:dc="http://purl.org/dc/elements/1.1/" xmlns:cc="http://creativecommons.org/ns#" xmlns:rdf="http://www.w3.org/1999/02/22-rdf-syntax-ns#">
   <cc:Work>
    <dc:type rdf:resource="http://purl.org/dc/dcmitype/StillImage"/>
    <dc:date>2025-05-26T17:33:16.935276</dc:date>
    <dc:format>image/svg+xml</dc:format>
    <dc:creator>
     <cc:Agent>
      <dc:title>Matplotlib v3.7.2, https://matplotlib.org/</dc:title>
     </cc:Agent>
    </dc:creator>
   </cc:Work>
  </rdf:RDF>
 </metadata>
 <defs>
  <style type="text/css">*{stroke-linejoin: round; stroke-linecap: butt}</style>
 </defs>
 <g id="figure_1">
  <g id="patch_1">
   <path d="M 0 319.98799 
L 470.588437 319.98799 
L 470.588437 0 
L 0 0 
z
" style="fill: #ffffff"/>
  </g>
  <g id="axes_1">
   <g id="patch_2">
    <path d="M 50.915938 261.318486 
L 427.715937 261.318486 
L 427.715937 30.045 
L 50.915938 30.045 
z
" style="fill: #ffffff"/>
   </g>
   <g id="PolyCollection_1">
    <defs>
     <path id="m1e1e346d08" d="M 106.896767 -69.181935 
L 89.135108 -69.181935 
L 88.16456 -70.530265 
L 87.169112 -71.878595 
L 86.145658 -73.226926 
L 85.087318 -74.575256 
L 83.984134 -75.923586 
L 82.82434 -77.271916 
L 81.5961 -78.620247 
L 80.289524 -79.968577 
L 78.898716 -81.316907 
L 77.4236 -82.665237 
L 75.871237 -84.013568 
L 74.256451 -85.361898 
L 72.601622 -86.710228 
L 70.93564 -88.058559 
L 69.292107 -89.406889 
L 67.707 -90.755219 
L 66.216062 -92.103549 
L 64.852233 -93.45188 
L 63.643445 -94.80021 
L 62.61101 -96.14854 
L 61.76878 -97.49687 
L 61.123121 -98.845201 
L 60.673641 -100.193531 
L 60.414479 -101.541861 
L 60.335938 -102.890191 
L 60.426165 -104.238522 
L 60.672623 -105.586852 
L 61.063148 -106.935182 
L 61.586465 -108.283513 
L 62.232165 -109.631843 
L 62.990202 -110.980173 
L 63.850104 -112.328503 
L 64.800097 -113.676834 
L 65.826381 -115.025164 
L 66.912752 -116.373494 
L 68.040703 -117.721824 
L 69.190046 -119.070155 
L 70.339999 -120.418485 
L 71.470606 -121.766815 
L 72.564265 -123.115146 
L 73.607162 -124.463476 
L 74.590355 -125.811806 
L 75.510351 -127.160136 
L 76.369067 -128.508467 
L 77.173171 -129.856797 
L 77.93288 -131.205127 
L 78.660387 -132.553457 
L 79.368122 -133.901788 
L 80.067087 -135.250118 
L 80.765477 -136.598448 
L 81.467753 -137.946779 
L 82.174277 -139.295109 
L 82.881497 -140.643439 
L 83.582664 -141.991769 
L 84.268914 -143.3401 
L 84.930585 -144.68843 
L 85.558573 -146.03676 
L 86.14556 -147.38509 
L 86.686975 -148.733421 
L 87.181594 -150.081751 
L 87.63172 -151.430081 
L 88.042969 -152.778412 
L 88.423685 -154.126742 
L 88.78408 -155.475072 
L 89.135198 -156.823402 
L 89.487823 -158.171733 
L 89.851449 -159.520063 
L 90.233403 -160.868393 
L 90.638227 -162.216723 
L 91.067351 -163.565054 
L 91.519103 -164.913384 
L 91.989012 -166.261714 
L 92.47038 -167.610045 
L 92.955032 -168.958375 
L 93.434145 -170.306705 
L 93.899067 -171.655035 
L 94.342023 -173.003366 
L 94.756642 -174.351696 
L 95.138268 -175.700026 
L 95.484032 -177.048356 
L 95.792736 -178.396687 
L 96.064576 -179.745017 
L 96.300783 -181.093347 
L 96.50325 -182.441677 
L 96.674204 -183.790008 
L 96.815967 -185.138338 
L 96.930827 -186.486668 
L 97.021021 -187.834999 
L 97.088792 -189.183329 
L 97.136512 -190.531659 
L 97.166795 -191.879989 
L 97.18259 -193.22832 
L 97.187206 -194.57665 
L 97.184254 -195.92498 
L 97.17752 -197.27331 
L 97.170765 -198.621641 
L 97.167487 -199.969971 
L 97.170684 -201.318301 
L 97.182644 -202.666632 
L 98.849231 -202.666632 
L 98.849231 -202.666632 
L 98.861191 -201.318301 
L 98.864388 -199.969971 
L 98.86111 -198.621641 
L 98.854355 -197.27331 
L 98.847621 -195.92498 
L 98.844669 -194.57665 
L 98.849285 -193.22832 
L 98.86508 -191.879989 
L 98.895363 -190.531659 
L 98.943083 -189.183329 
L 99.010854 -187.834999 
L 99.101048 -186.486668 
L 99.215908 -185.138338 
L 99.357671 -183.790008 
L 99.528625 -182.441677 
L 99.731092 -181.093347 
L 99.967299 -179.745017 
L 100.239139 -178.396687 
L 100.547843 -177.048356 
L 100.893607 -175.700026 
L 101.275233 -174.351696 
L 101.689852 -173.003366 
L 102.132808 -171.655035 
L 102.59773 -170.306705 
L 103.076843 -168.958375 
L 103.561495 -167.610045 
L 104.042863 -166.261714 
L 104.512772 -164.913384 
L 104.964524 -163.565054 
L 105.393648 -162.216723 
L 105.798472 -160.868393 
L 106.180426 -159.520063 
L 106.544052 -158.171733 
L 106.896677 -156.823402 
L 107.247795 -155.475072 
L 107.60819 -154.126742 
L 107.988906 -152.778412 
L 108.400155 -151.430081 
L 108.850281 -150.081751 
L 109.3449 -148.733421 
L 109.886315 -147.38509 
L 110.473302 -146.03676 
L 111.10129 -144.68843 
L 111.762961 -143.3401 
L 112.449211 -141.991769 
L 113.150378 -140.643439 
L 113.857598 -139.295109 
L 114.564122 -137.946779 
L 115.266398 -136.598448 
L 115.964788 -135.250118 
L 116.663753 -133.901788 
L 117.371488 -132.553457 
L 118.098995 -131.205127 
L 118.858704 -129.856797 
L 119.662808 -128.508467 
L 120.521524 -127.160136 
L 121.44152 -125.811806 
L 122.424713 -124.463476 
L 123.46761 -123.115146 
L 124.561269 -121.766815 
L 125.691876 -120.418485 
L 126.841829 -119.070155 
L 127.991172 -117.721824 
L 129.119123 -116.373494 
L 130.205494 -115.025164 
L 131.231778 -113.676834 
L 132.181771 -112.328503 
L 133.041673 -110.980173 
L 133.79971 -109.631843 
L 134.44541 -108.283513 
L 134.968727 -106.935182 
L 135.359252 -105.586852 
L 135.60571 -104.238522 
L 135.695937 -102.890191 
L 135.617396 -101.541861 
L 135.358234 -100.193531 
L 134.908754 -98.845201 
L 134.263095 -97.49687 
L 133.420865 -96.14854 
L 132.38843 -94.80021 
L 131.179642 -93.45188 
L 129.815813 -92.103549 
L 128.324875 -90.755219 
L 126.739768 -89.406889 
L 125.096235 -88.058559 
L 123.430253 -86.710228 
L 121.775424 -85.361898 
L 120.160638 -84.013568 
L 118.608275 -82.665237 
L 117.133159 -81.316907 
L 115.742351 -79.968577 
L 114.435775 -78.620247 
L 113.207535 -77.271916 
L 112.047741 -75.923586 
L 110.944557 -74.575256 
L 109.886217 -73.226926 
L 108.862763 -71.878595 
L 107.867315 -70.530265 
L 106.896767 -69.181935 
z
" style="stroke: #000000; stroke-opacity: 0.7"/>
    </defs>
    <g clip-path="url(#p9582582237)">
     <use xlink:href="#m1e1e346d08" x="0" y="319.98799" style="fill: #d62728; fill-opacity: 0.7; stroke: #000000; stroke-opacity: 0.7"/>
    </g>
   </g>
   <g id="PolyCollection_2">
    <defs>
     <path id="maf3b729f6a" d="M 201.905468 -70.136371 
L 182.526407 -70.136371 
L 181.405868 -72.250453 
L 180.238071 -74.364536 
L 179.027905 -76.478619 
L 177.779944 -78.592702 
L 176.498436 -80.706784 
L 175.187397 -82.820867 
L 173.850795 -84.93495 
L 172.492807 -87.049032 
L 171.118105 -89.163115 
L 169.732143 -91.277198 
L 168.34141 -93.39128 
L 166.95361 -95.505363 
L 165.577764 -97.619446 
L 164.224215 -99.733529 
L 162.904545 -101.847611 
L 161.631422 -103.961694 
L 160.418384 -106.075777 
L 159.279598 -108.189859 
L 158.229599 -110.303942 
L 157.283023 -112.418025 
L 156.454336 -114.532108 
L 155.757557 -116.64619 
L 155.205949 -118.760273 
L 154.811681 -120.874356 
L 154.585431 -122.988438 
L 154.535938 -125.102521 
L 154.66951 -127.216604 
L 154.989505 -129.330686 
L 155.495831 -131.444769 
L 156.184503 -133.558852 
L 157.04732 -135.672935 
L 158.071717 -137.787017 
L 159.240819 -139.9011 
L 160.53375 -142.015183 
L 161.92619 -144.129265 
L 163.391157 -146.243348 
L 164.900005 -148.357431 
L 166.423538 -150.471513 
L 167.933207 -152.585596 
L 169.402273 -154.699679 
L 170.806889 -156.813762 
L 172.126995 -158.927844 
L 173.346998 -161.041927 
L 174.456178 -163.15601 
L 175.44881 -165.270092 
L 176.324004 -167.384175 
L 177.085293 -169.498258 
L 177.740002 -171.61234 
L 178.298458 -173.726423 
L 178.773101 -175.840506 
L 179.177562 -177.954589 
L 179.525764 -180.068671 
L 179.831107 -182.182754 
L 180.10578 -184.296837 
L 180.360238 -186.410919 
L 180.602853 -188.525002 
L 180.839759 -190.639085 
L 181.074877 -192.753168 
L 181.310096 -194.86725 
L 181.545597 -196.981333 
L 181.78027 -199.095416 
L 182.012184 -201.209498 
L 182.239076 -203.323581 
L 182.458817 -205.437664 
L 182.669806 -207.551746 
L 182.871286 -209.665829 
L 183.063536 -211.779912 
L 183.247954 -213.893995 
L 183.427009 -216.008077 
L 183.604091 -218.12216 
L 183.783259 -220.236243 
L 183.968931 -222.350325 
L 184.165527 -224.464408 
L 184.377107 -226.578491 
L 184.607032 -228.692573 
L 184.85767 -230.806656 
L 185.130175 -232.920739 
L 185.424355 -235.034822 
L 185.738633 -237.148904 
L 186.070113 -239.262987 
L 186.414732 -241.37707 
L 186.76751 -243.491152 
L 187.122853 -245.605235 
L 187.474903 -247.719318 
L 187.81791 -249.8334 
L 188.146587 -251.947483 
L 188.456434 -254.061566 
L 188.743994 -256.175649 
L 189.007027 -258.289731 
L 189.244599 -260.403814 
L 189.457059 -262.517897 
L 189.645925 -264.631979 
L 189.813695 -266.746062 
L 189.963579 -268.860145 
L 190.099206 -270.974228 
L 190.224314 -273.08831 
L 190.342456 -275.202393 
L 190.456745 -277.316476 
L 190.569671 -279.430558 
L 193.862204 -279.430558 
L 193.862204 -279.430558 
L 193.97513 -277.316476 
L 194.089419 -275.202393 
L 194.207561 -273.08831 
L 194.332669 -270.974228 
L 194.468296 -268.860145 
L 194.61818 -266.746062 
L 194.78595 -264.631979 
L 194.974816 -262.517897 
L 195.187276 -260.403814 
L 195.424848 -258.289731 
L 195.687881 -256.175649 
L 195.975441 -254.061566 
L 196.285288 -251.947483 
L 196.613965 -249.8334 
L 196.956972 -247.719318 
L 197.309022 -245.605235 
L 197.664365 -243.491152 
L 198.017143 -241.37707 
L 198.361762 -239.262987 
L 198.693242 -237.148904 
L 199.00752 -235.034822 
L 199.3017 -232.920739 
L 199.574205 -230.806656 
L 199.824843 -228.692573 
L 200.054768 -226.578491 
L 200.266348 -224.464408 
L 200.462944 -222.350325 
L 200.648616 -220.236243 
L 200.827784 -218.12216 
L 201.004866 -216.008077 
L 201.183921 -213.893995 
L 201.368339 -211.779912 
L 201.560589 -209.665829 
L 201.762069 -207.551746 
L 201.973058 -205.437664 
L 202.192799 -203.323581 
L 202.419691 -201.209498 
L 202.651605 -199.095416 
L 202.886278 -196.981333 
L 203.121779 -194.86725 
L 203.356998 -192.753168 
L 203.592116 -190.639085 
L 203.829022 -188.525002 
L 204.071637 -186.410919 
L 204.326095 -184.296837 
L 204.600768 -182.182754 
L 204.906111 -180.068671 
L 205.254313 -177.954589 
L 205.658774 -175.840506 
L 206.133417 -173.726423 
L 206.691873 -171.61234 
L 207.346582 -169.498258 
L 208.107871 -167.384175 
L 208.983065 -165.270092 
L 209.975697 -163.15601 
L 211.084877 -161.041927 
L 212.30488 -158.927844 
L 213.624986 -156.813762 
L 215.029602 -154.699679 
L 216.498668 -152.585596 
L 218.008337 -150.471513 
L 219.53187 -148.357431 
L 221.040718 -146.243348 
L 222.505685 -144.129265 
L 223.898125 -142.015183 
L 225.191056 -139.9011 
L 226.360158 -137.787017 
L 227.384555 -135.672935 
L 228.247372 -133.558852 
L 228.936044 -131.444769 
L 229.44237 -129.330686 
L 229.762365 -127.216604 
L 229.895937 -125.102521 
L 229.846444 -122.988438 
L 229.620194 -120.874356 
L 229.225926 -118.760273 
L 228.674318 -116.64619 
L 227.977539 -114.532108 
L 227.148852 -112.418025 
L 226.202276 -110.303942 
L 225.152277 -108.189859 
L 224.013491 -106.075777 
L 222.800453 -103.961694 
L 221.52733 -101.847611 
L 220.20766 -99.733529 
L 218.854111 -97.619446 
L 217.478265 -95.505363 
L 216.090465 -93.39128 
L 214.699732 -91.277198 
L 213.31377 -89.163115 
L 211.939068 -87.049032 
L 210.58108 -84.93495 
L 209.244478 -82.820867 
L 207.933439 -80.706784 
L 206.651931 -78.592702 
L 205.40397 -76.478619 
L 204.193804 -74.364536 
L 203.026007 -72.250453 
L 201.905468 -70.136371 
z
" style="stroke: #000000; stroke-opacity: 0.7"/>
    </defs>
    <g clip-path="url(#p9582582237)">
     <use xlink:href="#maf3b729f6a" x="0" y="319.98799" style="fill: #8da0cb; fill-opacity: 0.7; stroke: #000000; stroke-opacity: 0.7"/>
    </g>
   </g>
   <g id="PolyCollection_3">
    <defs>
     <path id="ma166519cad" d="M 296.235965 -70.272719 
L 276.59591 -70.272719 
L 275.574263 -71.417216 
L 274.503812 -72.561713 
L 273.384226 -73.706209 
L 272.215229 -74.850706 
L 270.997033 -75.995203 
L 269.730828 -77.1397 
L 268.419265 -78.284197 
L 267.066897 -79.428694 
L 265.680493 -80.573191 
L 264.269195 -81.717688 
L 262.844476 -82.862185 
L 261.419903 -84.006681 
L 260.010688 -85.151178 
L 258.63309 -86.295675 
L 257.303695 -87.440172 
L 256.03864 -88.584669 
L 254.852851 -89.729166 
L 253.759343 -90.873663 
L 252.768648 -92.01816 
L 251.888398 -93.162657 
L 251.12309 -94.307153 
L 250.474029 -95.45165 
L 249.939449 -96.596147 
L 249.514776 -97.740644 
L 249.193003 -98.885141 
L 248.965144 -100.029638 
L 248.820729 -101.174135 
L 248.748308 -102.318632 
L 248.735938 -103.463129 
L 248.771641 -104.607625 
L 248.843823 -105.752122 
L 248.94165 -106.896619 
L 249.055381 -108.041116 
L 249.176677 -109.185613 
L 249.29887 -110.33011 
L 249.41721 -111.474607 
L 249.52907 -112.619104 
L 249.634114 -113.763601 
L 249.73439 -114.908097 
L 249.834349 -116.052594 
L 249.940753 -117.197091 
L 250.062449 -118.341588 
L 250.210017 -119.486085 
L 250.395261 -120.630582 
L 250.630574 -121.775079 
L 250.928206 -122.919576 
L 251.299455 -124.064073 
L 251.753869 -125.208569 
L 252.298494 -126.353066 
L 252.937252 -127.497563 
L 253.670502 -128.64206 
L 254.494828 -129.786557 
L 255.403096 -130.931054 
L 256.384771 -132.075551 
L 257.426478 -133.220048 
L 258.512773 -134.364545 
L 259.627039 -135.509041 
L 260.75246 -136.653538 
L 261.872962 -137.798035 
L 262.974064 -138.942532 
L 264.043565 -140.087029 
L 265.072022 -141.231526 
L 266.052991 -142.376023 
L 266.983036 -143.52052 
L 267.861514 -144.665017 
L 268.690185 -145.809513 
L 269.472685 -146.95401 
L 270.213927 -148.098507 
L 270.919479 -149.243004 
L 271.594967 -150.387501 
L 272.24556 -151.531998 
L 272.875549 -152.676495 
L 273.488057 -153.820992 
L 274.084881 -154.965489 
L 274.666468 -156.109985 
L 275.232014 -157.254482 
L 275.779674 -158.398979 
L 276.306858 -159.543476 
L 276.810577 -160.687973 
L 277.287831 -161.83247 
L 277.735982 -162.976967 
L 278.153098 -164.121464 
L 278.538236 -165.265961 
L 278.891634 -166.410458 
L 279.214805 -167.554954 
L 279.510516 -168.699451 
L 279.78266 -169.843948 
L 280.036027 -170.988445 
L 280.276 -172.132942 
L 280.508196 -173.277439 
L 280.738094 -174.421936 
L 280.970672 -175.566433 
L 281.210089 -176.71093 
L 281.459438 -177.855426 
L 281.720583 -178.999923 
L 281.994099 -180.14442 
L 282.279297 -181.288917 
L 282.574347 -182.433414 
L 282.876462 -183.577911 
L 289.955413 -183.577911 
L 289.955413 -183.577911 
L 290.257528 -182.433414 
L 290.552578 -181.288917 
L 290.837776 -180.14442 
L 291.111292 -178.999923 
L 291.372437 -177.855426 
L 291.621786 -176.71093 
L 291.861203 -175.566433 
L 292.093781 -174.421936 
L 292.323679 -173.277439 
L 292.555875 -172.132942 
L 292.795848 -170.988445 
L 293.049215 -169.843948 
L 293.321359 -168.699451 
L 293.61707 -167.554954 
L 293.940241 -166.410458 
L 294.293639 -165.265961 
L 294.678777 -164.121464 
L 295.095893 -162.976967 
L 295.544044 -161.83247 
L 296.021298 -160.687973 
L 296.525017 -159.543476 
L 297.052201 -158.398979 
L 297.599861 -157.254482 
L 298.165407 -156.109985 
L 298.746994 -154.965489 
L 299.343818 -153.820992 
L 299.956326 -152.676495 
L 300.586315 -151.531998 
L 301.236908 -150.387501 
L 301.912396 -149.243004 
L 302.617948 -148.098507 
L 303.35919 -146.95401 
L 304.14169 -145.809513 
L 304.970361 -144.665017 
L 305.848839 -143.52052 
L 306.778884 -142.376023 
L 307.759853 -141.231526 
L 308.78831 -140.087029 
L 309.857811 -138.942532 
L 310.958913 -137.798035 
L 312.079415 -136.653538 
L 313.204836 -135.509041 
L 314.319102 -134.364545 
L 315.405397 -133.220048 
L 316.447104 -132.075551 
L 317.428779 -130.931054 
L 318.337047 -129.786557 
L 319.161373 -128.64206 
L 319.894623 -127.497563 
L 320.533381 -126.353066 
L 321.078006 -125.208569 
L 321.53242 -124.064073 
L 321.903669 -122.919576 
L 322.201301 -121.775079 
L 322.436614 -120.630582 
L 322.621858 -119.486085 
L 322.769426 -118.341588 
L 322.891122 -117.197091 
L 322.997526 -116.052594 
L 323.097485 -114.908097 
L 323.197761 -113.763601 
L 323.302805 -112.619104 
L 323.414665 -111.474607 
L 323.533005 -110.33011 
L 323.655198 -109.185613 
L 323.776494 -108.041116 
L 323.890225 -106.896619 
L 323.988052 -105.752122 
L 324.060234 -104.607625 
L 324.095937 -103.463129 
L 324.083567 -102.318632 
L 324.011146 -101.174135 
L 323.866731 -100.029638 
L 323.638872 -98.885141 
L 323.317099 -97.740644 
L 322.892426 -96.596147 
L 322.357846 -95.45165 
L 321.708785 -94.307153 
L 320.943477 -93.162657 
L 320.063227 -92.01816 
L 319.072532 -90.873663 
L 317.979024 -89.729166 
L 316.793235 -88.584669 
L 315.52818 -87.440172 
L 314.198785 -86.295675 
L 312.821187 -85.151178 
L 311.411972 -84.006681 
L 309.987399 -82.862185 
L 308.56268 -81.717688 
L 307.151382 -80.573191 
L 305.764978 -79.428694 
L 304.41261 -78.284197 
L 303.101047 -77.1397 
L 301.834842 -75.995203 
L 300.616646 -74.850706 
L 299.447649 -73.706209 
L 298.328063 -72.561713 
L 297.257612 -71.417216 
L 296.235965 -70.272719 
z
" style="stroke: #000000; stroke-opacity: 0.7"/>
    </defs>
    <g clip-path="url(#p9582582237)">
     <use xlink:href="#ma166519cad" x="0" y="319.98799" style="fill: #c7c7c7; fill-opacity: 0.7; stroke: #000000; stroke-opacity: 0.7"/>
    </g>
   </g>
   <g id="PolyCollection_4">
    <defs>
     <path id="mf1128f4afa" d="M 397.186659 -74.499507 
L 364.045216 -74.499507 
L 362.364952 -76.452451 
L 360.673649 -78.405395 
L 358.992128 -80.358339 
L 357.340726 -82.311284 
L 355.738492 -84.264228 
L 354.202485 -86.217172 
L 352.747211 -88.170116 
L 351.384239 -90.12306 
L 350.122027 -92.076004 
L 348.965965 -94.028948 
L 347.918612 -95.981893 
L 346.98011 -97.934837 
L 346.148705 -99.887781 
L 345.421348 -101.840725 
L 344.794279 -103.793669 
L 344.263566 -105.746613 
L 343.825528 -107.699557 
L 343.477017 -109.652502 
L 343.215533 -111.605446 
L 343.039172 -113.55839 
L 342.946439 -115.511334 
L 342.935937 -117.464278 
L 343.005999 -119.417222 
L 343.154297 -121.370167 
L 343.377499 -123.323111 
L 343.670994 -125.276055 
L 344.028751 -127.228999 
L 344.443309 -129.181943 
L 344.905921 -131.134887 
L 345.406844 -133.087831 
L 345.935743 -135.040776 
L 346.482191 -136.99372 
L 347.036204 -138.946664 
L 347.588793 -140.899608 
L 348.132461 -142.852552 
L 348.661619 -144.805496 
L 349.172893 -146.758441 
L 349.66528 -148.711385 
L 350.140156 -150.664329 
L 350.601131 -152.617273 
L 351.053762 -154.570217 
L 351.505143 -156.523161 
L 351.963402 -158.476105 
L 352.437141 -160.42905 
L 352.934856 -162.381994 
L 353.46437 -164.334938 
L 354.032318 -166.287882 
L 354.643718 -168.240826 
L 355.301639 -170.19377 
L 356.006993 -172.146714 
L 356.758466 -174.099659 
L 357.552562 -176.052603 
L 358.383787 -178.005547 
L 359.244931 -179.958491 
L 360.127445 -181.911435 
L 361.021872 -183.864379 
L 361.918329 -185.817324 
L 362.806978 -187.770268 
L 363.678486 -189.723212 
L 364.524425 -191.676156 
L 365.337604 -193.6291 
L 366.1123 -195.582044 
L 366.84439 -197.534988 
L 367.531371 -199.487933 
L 368.172274 -201.440877 
L 368.767485 -203.393821 
L 369.318498 -205.346765 
L 369.827612 -207.299709 
L 370.297612 -209.252653 
L 370.731457 -211.205598 
L 371.13201 -213.158542 
L 371.501813 -215.111486 
L 371.842957 -217.06443 
L 372.157021 -219.017374 
L 372.445105 -220.970318 
L 372.707932 -222.923262 
L 372.946019 -224.876207 
L 373.159879 -226.829151 
L 373.350239 -228.782095 
L 373.518248 -230.735039 
L 373.66564 -232.687983 
L 373.794849 -234.640927 
L 373.90905 -236.593871 
L 374.012122 -238.546816 
L 374.108537 -240.49976 
L 374.203186 -242.452704 
L 374.301145 -244.405648 
L 374.407425 -246.358592 
L 374.526694 -248.311536 
L 374.663028 -250.264481 
L 374.819685 -252.217425 
L 374.998931 -254.170369 
L 375.201931 -256.123313 
L 375.428697 -258.076257 
L 375.678119 -260.029201 
L 375.948043 -261.982145 
L 376.235415 -263.93509 
L 376.536459 -265.888034 
L 376.846888 -267.840978 
L 384.384987 -267.840978 
L 384.384987 -267.840978 
L 384.695416 -265.888034 
L 384.99646 -263.93509 
L 385.283832 -261.982145 
L 385.553756 -260.029201 
L 385.803178 -258.076257 
L 386.029944 -256.123313 
L 386.232944 -254.170369 
L 386.41219 -252.217425 
L 386.568847 -250.264481 
L 386.705181 -248.311536 
L 386.82445 -246.358592 
L 386.93073 -244.405648 
L 387.028689 -242.452704 
L 387.123338 -240.49976 
L 387.219753 -238.546816 
L 387.322825 -236.593871 
L 387.437026 -234.640927 
L 387.566235 -232.687983 
L 387.713627 -230.735039 
L 387.881636 -228.782095 
L 388.071996 -226.829151 
L 388.285856 -224.876207 
L 388.523943 -222.923262 
L 388.78677 -220.970318 
L 389.074854 -219.017374 
L 389.388918 -217.06443 
L 389.730062 -215.111486 
L 390.099865 -213.158542 
L 390.500418 -211.205598 
L 390.934263 -209.252653 
L 391.404263 -207.299709 
L 391.913377 -205.346765 
L 392.46439 -203.393821 
L 393.059601 -201.440877 
L 393.700504 -199.487933 
L 394.387485 -197.534988 
L 395.119575 -195.582044 
L 395.894271 -193.6291 
L 396.70745 -191.676156 
L 397.553389 -189.723212 
L 398.424897 -187.770268 
L 399.313546 -185.817324 
L 400.210003 -183.864379 
L 401.10443 -181.911435 
L 401.986944 -179.958491 
L 402.848088 -178.005547 
L 403.679313 -176.052603 
L 404.473409 -174.099659 
L 405.224882 -172.146714 
L 405.930236 -170.19377 
L 406.588157 -168.240826 
L 407.199557 -166.287882 
L 407.767505 -164.334938 
L 408.297019 -162.381994 
L 408.794734 -160.42905 
L 409.268473 -158.476105 
L 409.726732 -156.523161 
L 410.178113 -154.570217 
L 410.630744 -152.617273 
L 411.091719 -150.664329 
L 411.566595 -148.711385 
L 412.058982 -146.758441 
L 412.570256 -144.805496 
L 413.099414 -142.852552 
L 413.643082 -140.899608 
L 414.195671 -138.946664 
L 414.749684 -136.99372 
L 415.296132 -135.040776 
L 415.825031 -133.087831 
L 416.325954 -131.134887 
L 416.788566 -129.181943 
L 417.203124 -127.228999 
L 417.560881 -125.276055 
L 417.854376 -123.323111 
L 418.077578 -121.370167 
L 418.225876 -119.417222 
L 418.295937 -117.464278 
L 418.285436 -115.511334 
L 418.192703 -113.55839 
L 418.016342 -111.605446 
L 417.754858 -109.652502 
L 417.406347 -107.699557 
L 416.968309 -105.746613 
L 416.437596 -103.793669 
L 415.810527 -101.840725 
L 415.08317 -99.887781 
L 414.251765 -97.934837 
L 413.313263 -95.981893 
L 412.26591 -94.028948 
L 411.109848 -92.076004 
L 409.847636 -90.12306 
L 408.484664 -88.170116 
L 407.02939 -86.217172 
L 405.493383 -84.264228 
L 403.891149 -82.311284 
L 402.239747 -80.358339 
L 400.558226 -78.405395 
L 398.866923 -76.452451 
L 397.186659 -74.499507 
z
" style="stroke: #000000; stroke-opacity: 0.7"/>
    </defs>
    <g clip-path="url(#p9582582237)">
     <use xlink:href="#mf1128f4afa" x="0" y="319.98799" style="fill: #e5c494; fill-opacity: 0.7; stroke: #000000; stroke-opacity: 0.7"/>
    </g>
   </g>
   <g id="matplotlib.axis_1">
    <g id="xtick_1">
     <g id="line2d_1">
      <defs>
       <path id="m9834f09c43" d="M 0 0 
L 0 3.5 
" style="stroke: #000000; stroke-width: 0.8"/>
      </defs>
      <g>
       <use xlink:href="#m9834f09c43" x="98.015938" y="261.318486" style="stroke: #000000; stroke-width: 0.8"/>
      </g>
     </g>
     <g id="text_1">
      <!-- Elmhurst -->
      <g transform="translate(65.090394 305.320942) rotate(-45) scale(0.12 -0.12)">
       <defs>
        <path id="TimesNewRomanPSMT-45" d="M 1338 4006 
L 1338 2331 
L 2269 2331 
Q 2631 2331 2753 2441 
Q 2916 2584 2934 2947 
L 3050 2947 
L 3050 1472 
L 2934 1472 
Q 2891 1781 2847 1869 
Q 2791 1978 2662 2040 
Q 2534 2103 2269 2103 
L 1338 2103 
L 1338 706 
Q 1338 425 1363 364 
Q 1388 303 1450 267 
Q 1513 231 1688 231 
L 2406 231 
Q 2766 231 2928 281 
Q 3091 331 3241 478 
Q 3434 672 3638 1063 
L 3763 1063 
L 3397 0 
L 131 0 
L 131 116 
L 281 116 
Q 431 116 566 188 
Q 666 238 702 338 
Q 738 438 738 747 
L 738 3500 
Q 738 3903 656 3997 
Q 544 4122 281 4122 
L 131 4122 
L 131 4238 
L 3397 4238 
L 3444 3309 
L 3322 3309 
Q 3256 3644 3176 3769 
Q 3097 3894 2941 3959 
Q 2816 4006 2500 4006 
L 1338 4006 
z
" transform="scale(0.015625)"/>
        <path id="TimesNewRomanPSMT-6c" d="M 1184 4444 
L 1184 647 
Q 1184 378 1223 290 
Q 1263 203 1344 158 
Q 1425 113 1647 113 
L 1647 0 
L 244 0 
L 244 113 
Q 441 113 512 153 
Q 584 194 625 287 
Q 666 381 666 647 
L 666 3247 
Q 666 3731 644 3842 
Q 622 3953 573 3993 
Q 525 4034 450 4034 
Q 369 4034 244 3984 
L 191 4094 
L 1044 4444 
L 1184 4444 
z
" transform="scale(0.015625)"/>
        <path id="TimesNewRomanPSMT-6d" d="M 1050 2338 
Q 1363 2650 1419 2697 
Q 1559 2816 1721 2881 
Q 1884 2947 2044 2947 
Q 2313 2947 2506 2790 
Q 2700 2634 2766 2338 
Q 3088 2713 3309 2830 
Q 3531 2947 3766 2947 
Q 3994 2947 4170 2830 
Q 4347 2713 4450 2447 
Q 4519 2266 4519 1878 
L 4519 647 
Q 4519 378 4559 278 
Q 4591 209 4675 161 
Q 4759 113 4950 113 
L 4950 0 
L 3538 0 
L 3538 113 
L 3597 113 
Q 3781 113 3884 184 
Q 3956 234 3988 344 
Q 4000 397 4000 647 
L 4000 1878 
Q 4000 2228 3916 2372 
Q 3794 2572 3525 2572 
Q 3359 2572 3192 2489 
Q 3025 2406 2788 2181 
L 2781 2147 
L 2788 2013 
L 2788 647 
Q 2788 353 2820 281 
Q 2853 209 2943 161 
Q 3034 113 3253 113 
L 3253 0 
L 1806 0 
L 1806 113 
Q 2044 113 2133 169 
Q 2222 225 2256 338 
Q 2272 391 2272 647 
L 2272 1878 
Q 2272 2228 2169 2381 
Q 2031 2581 1784 2581 
Q 1616 2581 1450 2491 
Q 1191 2353 1050 2181 
L 1050 647 
Q 1050 366 1089 281 
Q 1128 197 1204 155 
Q 1281 113 1516 113 
L 1516 0 
L 100 0 
L 100 113 
Q 297 113 375 155 
Q 453 197 493 289 
Q 534 381 534 647 
L 534 1741 
Q 534 2213 506 2350 
Q 484 2453 437 2492 
Q 391 2531 309 2531 
Q 222 2531 100 2484 
L 53 2597 
L 916 2947 
L 1050 2947 
L 1050 2338 
z
" transform="scale(0.015625)"/>
        <path id="TimesNewRomanPSMT-68" d="M 1041 4444 
L 1041 2350 
Q 1388 2731 1591 2839 
Q 1794 2947 1997 2947 
Q 2241 2947 2416 2812 
Q 2591 2678 2675 2391 
Q 2734 2191 2734 1659 
L 2734 647 
Q 2734 375 2778 275 
Q 2809 200 2884 156 
Q 2959 113 3159 113 
L 3159 0 
L 1753 0 
L 1753 113 
L 1819 113 
Q 2019 113 2097 173 
Q 2175 234 2206 353 
Q 2216 403 2216 647 
L 2216 1659 
Q 2216 2128 2167 2275 
Q 2119 2422 2012 2495 
Q 1906 2569 1756 2569 
Q 1603 2569 1437 2487 
Q 1272 2406 1041 2159 
L 1041 647 
Q 1041 353 1073 281 
Q 1106 209 1195 161 
Q 1284 113 1503 113 
L 1503 0 
L 84 0 
L 84 113 
Q 275 113 384 172 
Q 447 203 484 290 
Q 522 378 522 647 
L 522 3238 
Q 522 3728 498 3840 
Q 475 3953 426 3993 
Q 378 4034 297 4034 
Q 231 4034 84 3984 
L 41 4094 
L 897 4444 
L 1041 4444 
z
" transform="scale(0.015625)"/>
        <path id="TimesNewRomanPSMT-75" d="M 2709 2863 
L 2709 1128 
Q 2709 631 2732 520 
Q 2756 409 2807 365 
Q 2859 322 2928 322 
Q 3025 322 3147 375 
L 3191 266 
L 2334 -88 
L 2194 -88 
L 2194 519 
Q 1825 119 1631 15 
Q 1438 -88 1222 -88 
Q 981 -88 804 51 
Q 628 191 559 409 
Q 491 628 491 1028 
L 491 2306 
Q 491 2509 447 2587 
Q 403 2666 317 2708 
Q 231 2750 6 2747 
L 6 2863 
L 1009 2863 
L 1009 947 
Q 1009 547 1148 422 
Q 1288 297 1484 297 
Q 1619 297 1789 381 
Q 1959 466 2194 703 
L 2194 2325 
Q 2194 2569 2105 2655 
Q 2016 2741 1734 2747 
L 1734 2863 
L 2709 2863 
z
" transform="scale(0.015625)"/>
        <path id="TimesNewRomanPSMT-72" d="M 1038 2947 
L 1038 2303 
Q 1397 2947 1775 2947 
Q 1947 2947 2059 2842 
Q 2172 2738 2172 2600 
Q 2172 2478 2090 2393 
Q 2009 2309 1897 2309 
Q 1788 2309 1652 2417 
Q 1516 2525 1450 2525 
Q 1394 2525 1328 2463 
Q 1188 2334 1038 2041 
L 1038 669 
Q 1038 431 1097 309 
Q 1138 225 1241 169 
Q 1344 113 1538 113 
L 1538 0 
L 72 0 
L 72 113 
Q 291 113 397 181 
Q 475 231 506 341 
Q 522 394 522 644 
L 522 1753 
Q 522 2253 501 2348 
Q 481 2444 426 2487 
Q 372 2531 291 2531 
Q 194 2531 72 2484 
L 41 2597 
L 906 2947 
L 1038 2947 
z
" transform="scale(0.015625)"/>
        <path id="TimesNewRomanPSMT-73" d="M 2050 2947 
L 2050 1972 
L 1947 1972 
Q 1828 2431 1642 2597 
Q 1456 2763 1169 2763 
Q 950 2763 815 2647 
Q 681 2531 681 2391 
Q 681 2216 781 2091 
Q 878 1963 1175 1819 
L 1631 1597 
Q 2266 1288 2266 781 
Q 2266 391 1970 151 
Q 1675 -88 1309 -88 
Q 1047 -88 709 6 
Q 606 38 541 38 
Q 469 38 428 -44 
L 325 -44 
L 325 978 
L 428 978 
Q 516 541 762 319 
Q 1009 97 1316 97 
Q 1531 97 1667 223 
Q 1803 350 1803 528 
Q 1803 744 1651 891 
Q 1500 1038 1047 1263 
Q 594 1488 453 1669 
Q 313 1847 313 2119 
Q 313 2472 555 2709 
Q 797 2947 1181 2947 
Q 1350 2947 1591 2875 
Q 1750 2828 1803 2828 
Q 1853 2828 1881 2850 
Q 1909 2872 1947 2947 
L 2050 2947 
z
" transform="scale(0.015625)"/>
        <path id="TimesNewRomanPSMT-74" d="M 1031 3803 
L 1031 2863 
L 1700 2863 
L 1700 2644 
L 1031 2644 
L 1031 788 
Q 1031 509 1111 412 
Q 1191 316 1316 316 
Q 1419 316 1516 380 
Q 1613 444 1666 569 
L 1788 569 
Q 1678 263 1478 108 
Q 1278 -47 1066 -47 
Q 922 -47 784 33 
Q 647 113 581 261 
Q 516 409 516 719 
L 516 2644 
L 63 2644 
L 63 2747 
Q 234 2816 414 2980 
Q 594 3144 734 3369 
Q 806 3488 934 3803 
L 1031 3803 
z
" transform="scale(0.015625)"/>
       </defs>
       <use xlink:href="#TimesNewRomanPSMT-45"/>
       <use xlink:href="#TimesNewRomanPSMT-6c" x="61.083984"/>
       <use xlink:href="#TimesNewRomanPSMT-6d" x="88.867188"/>
       <use xlink:href="#TimesNewRomanPSMT-68" x="166.650391"/>
       <use xlink:href="#TimesNewRomanPSMT-75" x="216.650391"/>
       <use xlink:href="#TimesNewRomanPSMT-72" x="266.650391"/>
       <use xlink:href="#TimesNewRomanPSMT-73" x="299.951172"/>
       <use xlink:href="#TimesNewRomanPSMT-74" x="338.867188"/>
      </g>
     </g>
    </g>
    <g id="xtick_2">
     <g id="line2d_2">
      <g>
       <use xlink:href="#m9834f09c43" x="192.215937" y="261.318486" style="stroke: #000000; stroke-width: 0.8"/>
      </g>
     </g>
     <g id="text_2">
      <!-- Brookfield -->
      <g transform="translate(153.638401 310.972935) rotate(-45) scale(0.12 -0.12)">
       <defs>
        <path id="TimesNewRomanPSMT-42" d="M 2956 2163 
Q 3397 2069 3616 1863 
Q 3919 1575 3919 1159 
Q 3919 844 3719 555 
Q 3519 266 3170 133 
Q 2822 0 2106 0 
L 106 0 
L 106 116 
L 266 116 
Q 531 116 647 284 
Q 719 394 719 750 
L 719 3488 
Q 719 3881 628 3984 
Q 506 4122 266 4122 
L 106 4122 
L 106 4238 
L 1938 4238 
Q 2450 4238 2759 4163 
Q 3228 4050 3475 3764 
Q 3722 3478 3722 3106 
Q 3722 2788 3528 2536 
Q 3334 2284 2956 2163 
z
M 1319 2331 
Q 1434 2309 1582 2298 
Q 1731 2288 1909 2288 
Q 2366 2288 2595 2386 
Q 2825 2484 2947 2687 
Q 3069 2891 3069 3131 
Q 3069 3503 2766 3765 
Q 2463 4028 1881 4028 
Q 1569 4028 1319 3959 
L 1319 2331 
z
M 1319 306 
Q 1681 222 2034 222 
Q 2600 222 2897 476 
Q 3194 731 3194 1106 
Q 3194 1353 3059 1581 
Q 2925 1809 2622 1940 
Q 2319 2072 1872 2072 
Q 1678 2072 1540 2065 
Q 1403 2059 1319 2044 
L 1319 306 
z
" transform="scale(0.015625)"/>
        <path id="TimesNewRomanPSMT-6f" d="M 1600 2947 
Q 2250 2947 2644 2453 
Q 2978 2031 2978 1484 
Q 2978 1100 2793 706 
Q 2609 313 2286 112 
Q 1963 -88 1566 -88 
Q 919 -88 538 428 
Q 216 863 216 1403 
Q 216 1797 411 2186 
Q 606 2575 925 2761 
Q 1244 2947 1600 2947 
z
M 1503 2744 
Q 1338 2744 1170 2645 
Q 1003 2547 900 2300 
Q 797 2053 797 1666 
Q 797 1041 1045 587 
Q 1294 134 1700 134 
Q 2003 134 2200 384 
Q 2397 634 2397 1244 
Q 2397 2006 2069 2444 
Q 1847 2744 1503 2744 
z
" transform="scale(0.015625)"/>
        <path id="TimesNewRomanPSMT-6b" d="M 1047 4444 
L 1047 1597 
L 1775 2259 
Q 2006 2472 2044 2528 
Q 2069 2566 2069 2603 
Q 2069 2666 2017 2711 
Q 1966 2756 1847 2763 
L 1847 2863 
L 3091 2863 
L 3091 2763 
Q 2834 2756 2664 2684 
Q 2494 2613 2291 2428 
L 1556 1750 
L 2291 822 
Q 2597 438 2703 334 
Q 2853 188 2966 144 
Q 3044 113 3238 113 
L 3238 0 
L 1847 0 
L 1847 113 
Q 1966 116 2008 148 
Q 2050 181 2050 241 
Q 2050 313 1925 472 
L 1047 1594 
L 1047 644 
Q 1047 366 1086 278 
Q 1125 191 1197 153 
Q 1269 116 1509 113 
L 1509 0 
L 53 0 
L 53 113 
Q 272 113 381 166 
Q 447 200 481 272 
Q 528 375 528 628 
L 528 3234 
Q 528 3731 506 3842 
Q 484 3953 434 3995 
Q 384 4038 303 4038 
Q 238 4038 106 3984 
L 53 4094 
L 903 4444 
L 1047 4444 
z
" transform="scale(0.015625)"/>
        <path id="TimesNewRomanPSMT-66" d="M 1319 2638 
L 1319 756 
Q 1319 356 1406 250 
Q 1522 113 1716 113 
L 1975 113 
L 1975 0 
L 266 0 
L 266 113 
L 394 113 
Q 519 113 622 175 
Q 725 238 764 344 
Q 803 450 803 756 
L 803 2638 
L 247 2638 
L 247 2863 
L 803 2863 
L 803 3050 
Q 803 3478 940 3775 
Q 1078 4072 1361 4255 
Q 1644 4438 1997 4438 
Q 2325 4438 2600 4225 
Q 2781 4084 2781 3909 
Q 2781 3816 2700 3733 
Q 2619 3650 2525 3650 
Q 2453 3650 2373 3701 
Q 2294 3753 2178 3923 
Q 2063 4094 1966 4153 
Q 1869 4213 1750 4213 
Q 1606 4213 1506 4136 
Q 1406 4059 1362 3898 
Q 1319 3738 1319 3069 
L 1319 2863 
L 2056 2863 
L 2056 2638 
L 1319 2638 
z
" transform="scale(0.015625)"/>
        <path id="TimesNewRomanPSMT-69" d="M 928 4444 
Q 1059 4444 1151 4351 
Q 1244 4259 1244 4128 
Q 1244 3997 1151 3903 
Q 1059 3809 928 3809 
Q 797 3809 703 3903 
Q 609 3997 609 4128 
Q 609 4259 701 4351 
Q 794 4444 928 4444 
z
M 1188 2947 
L 1188 647 
Q 1188 378 1227 289 
Q 1266 200 1342 156 
Q 1419 113 1622 113 
L 1622 0 
L 231 0 
L 231 113 
Q 441 113 512 153 
Q 584 194 626 287 
Q 669 381 669 647 
L 669 1750 
Q 669 2216 641 2353 
Q 619 2453 572 2492 
Q 525 2531 444 2531 
Q 356 2531 231 2484 
L 188 2597 
L 1050 2947 
L 1188 2947 
z
" transform="scale(0.015625)"/>
        <path id="TimesNewRomanPSMT-65" d="M 681 1784 
Q 678 1147 991 784 
Q 1303 422 1725 422 
Q 2006 422 2214 576 
Q 2422 731 2563 1106 
L 2659 1044 
Q 2594 616 2278 264 
Q 1963 -88 1488 -88 
Q 972 -88 605 314 
Q 238 716 238 1394 
Q 238 2128 614 2539 
Q 991 2950 1559 2950 
Q 2041 2950 2350 2633 
Q 2659 2316 2659 1784 
L 681 1784 
z
M 681 1966 
L 2006 1966 
Q 1991 2241 1941 2353 
Q 1863 2528 1708 2628 
Q 1553 2728 1384 2728 
Q 1125 2728 920 2526 
Q 716 2325 681 1966 
z
" transform="scale(0.015625)"/>
        <path id="TimesNewRomanPSMT-64" d="M 2222 322 
Q 2013 103 1813 7 
Q 1613 -88 1381 -88 
Q 913 -88 563 304 
Q 213 697 213 1313 
Q 213 1928 600 2439 
Q 988 2950 1597 2950 
Q 1975 2950 2222 2709 
L 2222 3238 
Q 2222 3728 2198 3840 
Q 2175 3953 2125 3993 
Q 2075 4034 2000 4034 
Q 1919 4034 1784 3984 
L 1744 4094 
L 2597 4444 
L 2738 4444 
L 2738 1134 
Q 2738 631 2761 520 
Q 2784 409 2836 365 
Q 2888 322 2956 322 
Q 3041 322 3181 375 
L 3216 266 
L 2366 -88 
L 2222 -88 
L 2222 322 
z
M 2222 541 
L 2222 2016 
Q 2203 2228 2109 2403 
Q 2016 2578 1861 2667 
Q 1706 2756 1559 2756 
Q 1284 2756 1069 2509 
Q 784 2184 784 1559 
Q 784 928 1059 592 
Q 1334 256 1672 256 
Q 1956 256 2222 541 
z
" transform="scale(0.015625)"/>
       </defs>
       <use xlink:href="#TimesNewRomanPSMT-42"/>
       <use xlink:href="#TimesNewRomanPSMT-72" x="66.699219"/>
       <use xlink:href="#TimesNewRomanPSMT-6f" x="100"/>
       <use xlink:href="#TimesNewRomanPSMT-6f" x="150"/>
       <use xlink:href="#TimesNewRomanPSMT-6b" x="200"/>
       <use xlink:href="#TimesNewRomanPSMT-66" x="250"/>
       <use xlink:href="#TimesNewRomanPSMT-69" x="283.300781"/>
       <use xlink:href="#TimesNewRomanPSMT-65" x="311.083984"/>
       <use xlink:href="#TimesNewRomanPSMT-6c" x="355.46875"/>
       <use xlink:href="#TimesNewRomanPSMT-64" x="383.251953"/>
      </g>
     </g>
    </g>
    <g id="xtick_3">
     <g id="line2d_3">
      <g>
       <use xlink:href="#m9834f09c43" x="286.415937" y="261.318486" style="stroke: #000000; stroke-width: 0.8"/>
      </g>
     </g>
     <g id="text_3">
      <!-- Ironwood -->
      <g transform="translate(251.609048 307.202288) rotate(-45) scale(0.12 -0.12)">
       <defs>
        <path id="TimesNewRomanPSMT-49" d="M 1975 116 
L 1975 0 
L 159 0 
L 159 116 
L 309 116 
Q 572 116 691 269 
Q 766 369 766 750 
L 766 3488 
Q 766 3809 725 3913 
Q 694 3991 597 4047 
Q 459 4122 309 4122 
L 159 4122 
L 159 4238 
L 1975 4238 
L 1975 4122 
L 1822 4122 
Q 1563 4122 1444 3969 
Q 1366 3869 1366 3488 
L 1366 750 
Q 1366 428 1406 325 
Q 1438 247 1538 191 
Q 1672 116 1822 116 
L 1975 116 
z
" transform="scale(0.015625)"/>
        <path id="TimesNewRomanPSMT-6e" d="M 1034 2341 
Q 1538 2947 1994 2947 
Q 2228 2947 2397 2830 
Q 2566 2713 2666 2444 
Q 2734 2256 2734 1869 
L 2734 647 
Q 2734 375 2778 278 
Q 2813 200 2889 156 
Q 2966 113 3172 113 
L 3172 0 
L 1756 0 
L 1756 113 
L 1816 113 
Q 2016 113 2095 173 
Q 2175 234 2206 353 
Q 2219 400 2219 647 
L 2219 1819 
Q 2219 2209 2117 2386 
Q 2016 2563 1775 2563 
Q 1403 2563 1034 2156 
L 1034 647 
Q 1034 356 1069 288 
Q 1113 197 1189 155 
Q 1266 113 1500 113 
L 1500 0 
L 84 0 
L 84 113 
L 147 113 
Q 366 113 442 223 
Q 519 334 519 647 
L 519 1709 
Q 519 2225 495 2337 
Q 472 2450 423 2490 
Q 375 2531 294 2531 
Q 206 2531 84 2484 
L 38 2597 
L 900 2947 
L 1034 2947 
L 1034 2341 
z
" transform="scale(0.015625)"/>
        <path id="TimesNewRomanPSMT-77" d="M 41 2863 
L 1241 2863 
L 1241 2747 
Q 1075 2734 1023 2687 
Q 972 2641 972 2553 
Q 972 2456 1025 2319 
L 1638 672 
L 2253 2013 
L 2091 2434 
Q 2016 2622 1894 2694 
Q 1825 2738 1638 2747 
L 1638 2863 
L 3000 2863 
L 3000 2747 
Q 2775 2738 2681 2666 
Q 2619 2616 2619 2506 
Q 2619 2444 2644 2378 
L 3294 734 
L 3897 2319 
Q 3959 2488 3959 2588 
Q 3959 2647 3898 2694 
Q 3838 2741 3659 2747 
L 3659 2863 
L 4563 2863 
L 4563 2747 
Q 4291 2706 4163 2378 
L 3206 -88 
L 3078 -88 
L 2363 1741 
L 1528 -88 
L 1413 -88 
L 494 2319 
Q 403 2547 315 2626 
Q 228 2706 41 2747 
L 41 2863 
z
" transform="scale(0.015625)"/>
       </defs>
       <use xlink:href="#TimesNewRomanPSMT-49"/>
       <use xlink:href="#TimesNewRomanPSMT-72" x="33.300781"/>
       <use xlink:href="#TimesNewRomanPSMT-6f" x="66.601562"/>
       <use xlink:href="#TimesNewRomanPSMT-6e" x="116.601562"/>
       <use xlink:href="#TimesNewRomanPSMT-77" x="166.601562"/>
       <use xlink:href="#TimesNewRomanPSMT-6f" x="238.818359"/>
       <use xlink:href="#TimesNewRomanPSMT-6f" x="288.818359"/>
       <use xlink:href="#TimesNewRomanPSMT-64" x="338.818359"/>
      </g>
     </g>
    </g>
    <g id="xtick_4">
     <g id="line2d_4">
      <g>
       <use xlink:href="#m9834f09c43" x="380.615937" y="261.318486" style="stroke: #000000; stroke-width: 0.8"/>
      </g>
     </g>
     <g id="text_4">
      <!-- Yorkton -->
      <g transform="translate(351.368233 301.643103) rotate(-45) scale(0.12 -0.12)">
       <defs>
        <path id="TimesNewRomanPSMT-59" d="M 3050 4238 
L 4528 4238 
L 4528 4122 
L 4447 4122 
Q 4366 4122 4209 4050 
Q 4053 3978 3925 3843 
Q 3797 3709 3609 3406 
L 2588 1797 
L 2588 734 
Q 2588 344 2675 247 
Q 2794 116 3050 116 
L 3188 116 
L 3188 0 
L 1388 0 
L 1388 116 
L 1538 116 
Q 1806 116 1919 278 
Q 1988 378 1988 734 
L 1988 1738 
L 825 3513 
Q 619 3825 545 3903 
Q 472 3981 241 4091 
Q 178 4122 59 4122 
L 59 4238 
L 1872 4238 
L 1872 4122 
L 1778 4122 
Q 1631 4122 1507 4053 
Q 1384 3984 1384 3847 
Q 1384 3734 1575 3441 
L 2459 2075 
L 3291 3381 
Q 3478 3675 3478 3819 
Q 3478 3906 3433 3975 
Q 3388 4044 3303 4083 
Q 3219 4122 3050 4122 
L 3050 4238 
z
" transform="scale(0.015625)"/>
       </defs>
       <use xlink:href="#TimesNewRomanPSMT-59"/>
       <use xlink:href="#TimesNewRomanPSMT-6f" x="62.216797"/>
       <use xlink:href="#TimesNewRomanPSMT-72" x="112.216797"/>
       <use xlink:href="#TimesNewRomanPSMT-6b" x="145.517578"/>
       <use xlink:href="#TimesNewRomanPSMT-74" x="195.517578"/>
       <use xlink:href="#TimesNewRomanPSMT-6f" x="223.300781"/>
       <use xlink:href="#TimesNewRomanPSMT-6e" x="273.300781"/>
      </g>
     </g>
    </g>
   </g>
   <g id="matplotlib.axis_2">
    <g id="ytick_1">
     <g id="line2d_5">
      <defs>
       <path id="m2bb562a3eb" d="M 0 0 
L -3.5 0 
" style="stroke: #000000; stroke-width: 0.8"/>
      </defs>
      <g>
       <use xlink:href="#m2bb562a3eb" x="50.915938" y="244.670395" style="stroke: #000000; stroke-width: 0.8"/>
      </g>
     </g>
     <g id="text_5">
      <!-- 200 -->
      <g transform="translate(28.915938 248.14227) scale(0.1 -0.1)">
       <defs>
        <path id="TimesNewRomanPSMT-32" d="M 2934 816 
L 2638 0 
L 138 0 
L 138 116 
Q 1241 1122 1691 1759 
Q 2141 2397 2141 2925 
Q 2141 3328 1894 3587 
Q 1647 3847 1303 3847 
Q 991 3847 742 3664 
Q 494 3481 375 3128 
L 259 3128 
Q 338 3706 661 4015 
Q 984 4325 1469 4325 
Q 1984 4325 2329 3994 
Q 2675 3663 2675 3213 
Q 2675 2891 2525 2569 
Q 2294 2063 1775 1497 
Q 997 647 803 472 
L 1909 472 
Q 2247 472 2383 497 
Q 2519 522 2628 598 
Q 2738 675 2819 816 
L 2934 816 
z
" transform="scale(0.015625)"/>
        <path id="TimesNewRomanPSMT-30" d="M 231 2094 
Q 231 2819 450 3342 
Q 669 3866 1031 4122 
Q 1313 4325 1613 4325 
Q 2100 4325 2488 3828 
Q 2972 3213 2972 2159 
Q 2972 1422 2759 906 
Q 2547 391 2217 158 
Q 1888 -75 1581 -75 
Q 975 -75 572 641 
Q 231 1244 231 2094 
z
M 844 2016 
Q 844 1141 1059 588 
Q 1238 122 1591 122 
Q 1759 122 1940 273 
Q 2122 425 2216 781 
Q 2359 1319 2359 2297 
Q 2359 3022 2209 3506 
Q 2097 3866 1919 4016 
Q 1791 4119 1609 4119 
Q 1397 4119 1231 3928 
Q 1006 3669 925 3112 
Q 844 2556 844 2016 
z
" transform="scale(0.015625)"/>
       </defs>
       <use xlink:href="#TimesNewRomanPSMT-32"/>
       <use xlink:href="#TimesNewRomanPSMT-30" x="50"/>
       <use xlink:href="#TimesNewRomanPSMT-30" x="100"/>
      </g>
     </g>
    </g>
    <g id="ytick_2">
     <g id="line2d_6">
      <g>
       <use xlink:href="#m2bb562a3eb" x="50.915938" y="217.400794" style="stroke: #000000; stroke-width: 0.8"/>
      </g>
     </g>
     <g id="text_6">
      <!-- 400 -->
      <g transform="translate(28.915938 220.872669) scale(0.1 -0.1)">
       <defs>
        <path id="TimesNewRomanPSMT-34" d="M 2978 1563 
L 2978 1119 
L 2409 1119 
L 2409 0 
L 1894 0 
L 1894 1119 
L 100 1119 
L 100 1519 
L 2066 4325 
L 2409 4325 
L 2409 1563 
L 2978 1563 
z
M 1894 1563 
L 1894 3666 
L 406 1563 
L 1894 1563 
z
" transform="scale(0.015625)"/>
       </defs>
       <use xlink:href="#TimesNewRomanPSMT-34"/>
       <use xlink:href="#TimesNewRomanPSMT-30" x="50"/>
       <use xlink:href="#TimesNewRomanPSMT-30" x="100"/>
      </g>
     </g>
    </g>
    <g id="ytick_3">
     <g id="line2d_7">
      <g>
       <use xlink:href="#m2bb562a3eb" x="50.915938" y="190.131193" style="stroke: #000000; stroke-width: 0.8"/>
      </g>
     </g>
     <g id="text_7">
      <!-- 600 -->
      <g transform="translate(28.915938 193.603068) scale(0.1 -0.1)">
       <defs>
        <path id="TimesNewRomanPSMT-36" d="M 2869 4325 
L 2869 4209 
Q 2456 4169 2195 4045 
Q 1934 3922 1679 3669 
Q 1425 3416 1258 3105 
Q 1091 2794 978 2366 
Q 1428 2675 1881 2675 
Q 2316 2675 2634 2325 
Q 2953 1975 2953 1425 
Q 2953 894 2631 456 
Q 2244 -75 1606 -75 
Q 1172 -75 869 213 
Q 275 772 275 1663 
Q 275 2231 503 2743 
Q 731 3256 1154 3653 
Q 1578 4050 1965 4187 
Q 2353 4325 2688 4325 
L 2869 4325 
z
M 925 2138 
Q 869 1716 869 1456 
Q 869 1156 980 804 
Q 1091 453 1309 247 
Q 1469 100 1697 100 
Q 1969 100 2183 356 
Q 2397 613 2397 1088 
Q 2397 1622 2184 2012 
Q 1972 2403 1581 2403 
Q 1463 2403 1327 2353 
Q 1191 2303 925 2138 
z
" transform="scale(0.015625)"/>
       </defs>
       <use xlink:href="#TimesNewRomanPSMT-36"/>
       <use xlink:href="#TimesNewRomanPSMT-30" x="50"/>
       <use xlink:href="#TimesNewRomanPSMT-30" x="100"/>
      </g>
     </g>
    </g>
    <g id="ytick_4">
     <g id="line2d_8">
      <g>
       <use xlink:href="#m2bb562a3eb" x="50.915938" y="162.861592" style="stroke: #000000; stroke-width: 0.8"/>
      </g>
     </g>
     <g id="text_8">
      <!-- 800 -->
      <g transform="translate(28.915938 166.333467) scale(0.1 -0.1)">
       <defs>
        <path id="TimesNewRomanPSMT-38" d="M 1228 2134 
Q 725 2547 579 2797 
Q 434 3047 434 3316 
Q 434 3728 753 4026 
Q 1072 4325 1600 4325 
Q 2113 4325 2425 4047 
Q 2738 3769 2738 3413 
Q 2738 3175 2569 2928 
Q 2400 2681 1866 2347 
Q 2416 1922 2594 1678 
Q 2831 1359 2831 1006 
Q 2831 559 2490 242 
Q 2150 -75 1597 -75 
Q 994 -75 656 303 
Q 388 606 388 966 
Q 388 1247 577 1523 
Q 766 1800 1228 2134 
z
M 1719 2469 
Q 2094 2806 2194 3001 
Q 2294 3197 2294 3444 
Q 2294 3772 2109 3958 
Q 1925 4144 1606 4144 
Q 1288 4144 1088 3959 
Q 888 3775 888 3528 
Q 888 3366 970 3203 
Q 1053 3041 1206 2894 
L 1719 2469 
z
M 1375 2016 
Q 1116 1797 991 1539 
Q 866 1281 866 981 
Q 866 578 1086 336 
Q 1306 94 1647 94 
Q 1984 94 2187 284 
Q 2391 475 2391 747 
Q 2391 972 2272 1150 
Q 2050 1481 1375 2016 
z
" transform="scale(0.015625)"/>
       </defs>
       <use xlink:href="#TimesNewRomanPSMT-38"/>
       <use xlink:href="#TimesNewRomanPSMT-30" x="50"/>
       <use xlink:href="#TimesNewRomanPSMT-30" x="100"/>
      </g>
     </g>
    </g>
    <g id="ytick_5">
     <g id="line2d_9">
      <g>
       <use xlink:href="#m2bb562a3eb" x="50.915938" y="135.591991" style="stroke: #000000; stroke-width: 0.8"/>
      </g>
     </g>
     <g id="text_9">
      <!-- 1000 -->
      <g transform="translate(23.915938 139.063866) scale(0.1 -0.1)">
       <defs>
        <path id="TimesNewRomanPSMT-31" d="M 750 3822 
L 1781 4325 
L 1884 4325 
L 1884 747 
Q 1884 391 1914 303 
Q 1944 216 2037 169 
Q 2131 122 2419 116 
L 2419 0 
L 825 0 
L 825 116 
Q 1125 122 1212 167 
Q 1300 213 1334 289 
Q 1369 366 1369 747 
L 1369 3034 
Q 1369 3497 1338 3628 
Q 1316 3728 1258 3775 
Q 1200 3822 1119 3822 
Q 1003 3822 797 3725 
L 750 3822 
z
" transform="scale(0.015625)"/>
       </defs>
       <use xlink:href="#TimesNewRomanPSMT-31"/>
       <use xlink:href="#TimesNewRomanPSMT-30" x="50"/>
       <use xlink:href="#TimesNewRomanPSMT-30" x="100"/>
       <use xlink:href="#TimesNewRomanPSMT-30" x="150"/>
      </g>
     </g>
    </g>
    <g id="ytick_6">
     <g id="line2d_10">
      <g>
       <use xlink:href="#m2bb562a3eb" x="50.915938" y="108.32239" style="stroke: #000000; stroke-width: 0.8"/>
      </g>
     </g>
     <g id="text_10">
      <!-- 1200 -->
      <g transform="translate(23.915938 111.794265) scale(0.1 -0.1)">
       <use xlink:href="#TimesNewRomanPSMT-31"/>
       <use xlink:href="#TimesNewRomanPSMT-32" x="50"/>
       <use xlink:href="#TimesNewRomanPSMT-30" x="100"/>
       <use xlink:href="#TimesNewRomanPSMT-30" x="150"/>
      </g>
     </g>
    </g>
    <g id="ytick_7">
     <g id="line2d_11">
      <g>
       <use xlink:href="#m2bb562a3eb" x="50.915938" y="81.052789" style="stroke: #000000; stroke-width: 0.8"/>
      </g>
     </g>
     <g id="text_11">
      <!-- 1400 -->
      <g transform="translate(23.915938 84.524664) scale(0.1 -0.1)">
       <use xlink:href="#TimesNewRomanPSMT-31"/>
       <use xlink:href="#TimesNewRomanPSMT-34" x="50"/>
       <use xlink:href="#TimesNewRomanPSMT-30" x="100"/>
       <use xlink:href="#TimesNewRomanPSMT-30" x="150"/>
      </g>
     </g>
    </g>
    <g id="ytick_8">
     <g id="line2d_12">
      <g>
       <use xlink:href="#m2bb562a3eb" x="50.915938" y="53.783188" style="stroke: #000000; stroke-width: 0.8"/>
      </g>
     </g>
     <g id="text_12">
      <!-- 1600 -->
      <g transform="translate(23.915938 57.255063) scale(0.1 -0.1)">
       <use xlink:href="#TimesNewRomanPSMT-31"/>
       <use xlink:href="#TimesNewRomanPSMT-36" x="50"/>
       <use xlink:href="#TimesNewRomanPSMT-30" x="100"/>
       <use xlink:href="#TimesNewRomanPSMT-30" x="150"/>
      </g>
     </g>
    </g>
    <g id="text_13">
     <!-- million USD -->
     <g transform="translate(16.92125 181.658462) rotate(-90) scale(0.14 -0.14)">
      <defs>
       <path id="TimesNewRomanPSMT-20" transform="scale(0.015625)"/>
       <path id="TimesNewRomanPSMT-55" d="M 3053 4122 
L 3053 4238 
L 4553 4238 
L 4553 4122 
L 4394 4122 
Q 4144 4122 4009 3913 
Q 3944 3816 3944 3463 
L 3944 1744 
Q 3944 1106 3817 754 
Q 3691 403 3320 151 
Q 2950 -100 2313 -100 
Q 1619 -100 1259 140 
Q 900 381 750 788 
Q 650 1066 650 1831 
L 650 3488 
Q 650 3878 542 4000 
Q 434 4122 194 4122 
L 34 4122 
L 34 4238 
L 1866 4238 
L 1866 4122 
L 1703 4122 
Q 1441 4122 1328 3956 
Q 1250 3844 1250 3488 
L 1250 1641 
Q 1250 1394 1295 1075 
Q 1341 756 1459 578 
Q 1578 400 1801 284 
Q 2025 169 2350 169 
Q 2766 169 3094 350 
Q 3422 531 3542 814 
Q 3663 1097 3663 1772 
L 3663 3488 
Q 3663 3884 3575 3984 
Q 3453 4122 3213 4122 
L 3053 4122 
z
" transform="scale(0.015625)"/>
       <path id="TimesNewRomanPSMT-53" d="M 2934 4334 
L 2934 2869 
L 2819 2869 
Q 2763 3291 2617 3541 
Q 2472 3791 2203 3937 
Q 1934 4084 1647 4084 
Q 1322 4084 1109 3886 
Q 897 3688 897 3434 
Q 897 3241 1031 3081 
Q 1225 2847 1953 2456 
Q 2547 2138 2764 1967 
Q 2981 1797 3098 1565 
Q 3216 1334 3216 1081 
Q 3216 600 2842 251 
Q 2469 -97 1881 -97 
Q 1697 -97 1534 -69 
Q 1438 -53 1133 45 
Q 828 144 747 144 
Q 669 144 623 97 
Q 578 50 556 -97 
L 441 -97 
L 441 1356 
L 556 1356 
Q 638 900 775 673 
Q 913 447 1195 297 
Q 1478 147 1816 147 
Q 2206 147 2432 353 
Q 2659 559 2659 841 
Q 2659 997 2573 1156 
Q 2488 1316 2306 1453 
Q 2184 1547 1640 1851 
Q 1097 2156 867 2337 
Q 638 2519 519 2737 
Q 400 2956 400 3219 
Q 400 3675 750 4004 
Q 1100 4334 1641 4334 
Q 1978 4334 2356 4169 
Q 2531 4091 2603 4091 
Q 2684 4091 2736 4139 
Q 2788 4188 2819 4334 
L 2934 4334 
z
" transform="scale(0.015625)"/>
       <path id="TimesNewRomanPSMT-44" d="M 109 0 
L 109 116 
L 269 116 
Q 538 116 650 288 
Q 719 391 719 750 
L 719 3488 
Q 719 3884 631 3984 
Q 509 4122 269 4122 
L 109 4122 
L 109 4238 
L 1834 4238 
Q 2784 4238 3279 4022 
Q 3775 3806 4076 3303 
Q 4378 2800 4378 2141 
Q 4378 1256 3841 663 
Q 3238 0 2003 0 
L 109 0 
z
M 1319 306 
Q 1716 219 1984 219 
Q 2709 219 3187 728 
Q 3666 1238 3666 2109 
Q 3666 2988 3187 3494 
Q 2709 4000 1959 4000 
Q 1678 4000 1319 3909 
L 1319 306 
z
" transform="scale(0.015625)"/>
      </defs>
      <use xlink:href="#TimesNewRomanPSMT-6d"/>
      <use xlink:href="#TimesNewRomanPSMT-69" x="77.783203"/>
      <use xlink:href="#TimesNewRomanPSMT-6c" x="105.566406"/>
      <use xlink:href="#TimesNewRomanPSMT-6c" x="133.349609"/>
      <use xlink:href="#TimesNewRomanPSMT-69" x="161.132812"/>
      <use xlink:href="#TimesNewRomanPSMT-6f" x="188.916016"/>
      <use xlink:href="#TimesNewRomanPSMT-6e" x="238.916016"/>
      <use xlink:href="#TimesNewRomanPSMT-20" x="288.916016"/>
      <use xlink:href="#TimesNewRomanPSMT-55" x="313.916016"/>
      <use xlink:href="#TimesNewRomanPSMT-53" x="386.132812"/>
      <use xlink:href="#TimesNewRomanPSMT-44" x="441.748047"/>
     </g>
    </g>
   </g>
   <g id="patch_3">
    <path d="M 92.363937 225.274891 
L 103.667937 225.274891 
L 103.667937 191.017455 
L 92.363937 191.017455 
L 92.363937 225.274891 
L 92.363937 225.274891 
z
" clip-path="url(#p9582582237)" style="fill: none; stroke: #000000; stroke-linejoin: miter"/>
   </g>
   <g id="line2d_13">
    <path d="M 98.015938 225.274891 
L 98.015938 250.806055 
" clip-path="url(#p9582582237)" style="fill: none; stroke: #000000; stroke-linecap: square"/>
   </g>
   <g id="line2d_14">
    <path d="M 98.015938 191.017455 
L 98.015938 140.227823 
" clip-path="url(#p9582582237)" style="fill: none; stroke: #000000; stroke-linecap: square"/>
   </g>
   <g id="line2d_15">
    <path d="M 95.189937 250.806055 
L 100.841938 250.806055 
" clip-path="url(#p9582582237)" style="fill: none; stroke: #000000; stroke-linecap: square"/>
   </g>
   <g id="line2d_16">
    <path d="M 95.189937 140.227823 
L 100.841938 140.227823 
" clip-path="url(#p9582582237)" style="fill: none; stroke: #000000; stroke-linecap: square"/>
   </g>
   <g id="patch_4">
    <path d="M 186.563937 209.049478 
L 197.867938 209.049478 
L 197.867938 158.737064 
L 186.563937 158.737064 
L 186.563937 209.049478 
L 186.563937 209.049478 
z
" clip-path="url(#p9582582237)" style="fill: none; stroke: #000000; stroke-linejoin: miter"/>
   </g>
   <g id="line2d_17">
    <path d="M 192.215937 209.049478 
L 192.215937 249.851619 
" clip-path="url(#p9582582237)" style="fill: none; stroke: #000000; stroke-linecap: square"/>
   </g>
   <g id="line2d_18">
    <path d="M 192.215937 158.737064 
L 192.215937 83.916097 
" clip-path="url(#p9582582237)" style="fill: none; stroke: #000000; stroke-linecap: square"/>
   </g>
   <g id="line2d_19">
    <path d="M 189.389938 249.851619 
L 195.041937 249.851619 
" clip-path="url(#p9582582237)" style="fill: none; stroke: #000000; stroke-linecap: square"/>
   </g>
   <g id="line2d_20">
    <path d="M 189.389938 83.916097 
L 195.041937 83.916097 
" clip-path="url(#p9582582237)" style="fill: none; stroke: #000000; stroke-linecap: square"/>
   </g>
   <g id="patch_5">
    <path d="M 280.763937 223.638715 
L 292.067937 223.638715 
L 292.067937 189.279018 
L 280.763937 189.279018 
L 280.763937 223.638715 
L 280.763937 223.638715 
z
" clip-path="url(#p9582582237)" style="fill: none; stroke: #000000; stroke-linejoin: miter"/>
   </g>
   <g id="line2d_21">
    <path d="M 286.415937 223.638715 
L 286.415937 249.715271 
" clip-path="url(#p9582582237)" style="fill: none; stroke: #000000; stroke-linecap: square"/>
   </g>
   <g id="line2d_22">
    <path d="M 286.415937 189.279018 
L 286.415937 142.273043 
" clip-path="url(#p9582582237)" style="fill: none; stroke: #000000; stroke-linecap: square"/>
   </g>
   <g id="line2d_23">
    <path d="M 283.589938 249.715271 
L 289.241937 249.715271 
" clip-path="url(#p9582582237)" style="fill: none; stroke: #000000; stroke-linecap: square"/>
   </g>
   <g id="line2d_24">
    <path d="M 283.589938 142.273043 
L 289.241937 142.273043 
" clip-path="url(#p9582582237)" style="fill: none; stroke: #000000; stroke-linecap: square"/>
   </g>
   <g id="patch_6">
    <path d="M 374.963937 212.32183 
L 386.267937 212.32183 
L 386.267937 153.112709 
L 374.963937 153.112709 
L 374.963937 212.32183 
L 374.963937 212.32183 
z
" clip-path="url(#p9582582237)" style="fill: none; stroke: #000000; stroke-linejoin: miter"/>
   </g>
   <g id="line2d_25">
    <path d="M 380.615937 212.32183 
L 380.615937 245.488483 
" clip-path="url(#p9582582237)" style="fill: none; stroke: #000000; stroke-linecap: square"/>
   </g>
   <g id="line2d_26">
    <path d="M 380.615937 153.112709 
L 380.615937 69.32686 
" clip-path="url(#p9582582237)" style="fill: none; stroke: #000000; stroke-linecap: square"/>
   </g>
   <g id="line2d_27">
    <path d="M 377.789938 245.488483 
L 383.441937 245.488483 
" clip-path="url(#p9582582237)" style="fill: none; stroke: #000000; stroke-linecap: square"/>
   </g>
   <g id="line2d_28">
    <path d="M 377.789938 69.32686 
L 383.441937 69.32686 
" clip-path="url(#p9582582237)" style="fill: none; stroke: #000000; stroke-linecap: square"/>
   </g>
   <g id="line2d_29">
    <path d="M 92.363937 211.265133 
L 103.667937 211.265133 
" clip-path="url(#p9582582237)" style="fill: none; stroke: #000000; stroke-width: 1.5; stroke-linecap: square"/>
   </g>
   <g id="line2d_30">
    <path d="M 186.563937 186.927014 
L 197.867938 186.927014 
" clip-path="url(#p9582582237)" style="fill: none; stroke: #000000; stroke-width: 1.5; stroke-linecap: square"/>
   </g>
   <g id="line2d_31">
    <path d="M 280.763937 206.629301 
L 292.067937 206.629301 
" clip-path="url(#p9582582237)" style="fill: none; stroke: #000000; stroke-width: 1.5; stroke-linecap: square"/>
   </g>
   <g id="line2d_32">
    <path d="M 374.963937 187.472407 
L 386.267937 187.472407 
" clip-path="url(#p9582582237)" style="fill: none; stroke: #000000; stroke-width: 1.5; stroke-linecap: square"/>
   </g>
   <g id="patch_7">
    <path d="M 50.915938 261.318486 
L 50.915938 30.045 
" style="fill: none; stroke: #000000; stroke-linejoin: miter; stroke-linecap: square"/>
   </g>
   <g id="patch_8">
    <path d="M 427.715937 261.318486 
L 427.715937 30.045 
" style="fill: none; stroke: #000000; stroke-linejoin: miter; stroke-linecap: square"/>
   </g>
   <g id="patch_9">
    <path d="M 50.915938 261.318486 
L 427.715937 261.318486 
" style="fill: none; stroke: #000000; stroke-linejoin: miter; stroke-linecap: square"/>
   </g>
   <g id="patch_10">
    <path d="M 50.915938 30.045 
L 427.715937 30.045 
" style="fill: none; stroke: #000000; stroke-linejoin: miter; stroke-linecap: square"/>
   </g>
   <g id="text_14">
    <!-- Research and Development Investment by Country (million USD) -->
    <g transform="translate(15.243437 18.045) scale(0.16 -0.16)">
     <defs>
      <path id="TimesNewRomanPS-BoldMT-52" d="M 1700 1931 
L 1700 744 
Q 1700 400 1742 311 
Q 1784 222 1890 169 
Q 1997 116 2288 116 
L 2288 0 
L 119 0 
L 119 116 
Q 413 116 517 170 
Q 622 225 664 312 
Q 706 400 706 744 
L 706 3494 
Q 706 3838 664 3927 
Q 622 4016 515 4069 
Q 409 4122 119 4122 
L 119 4238 
L 2088 4238 
Q 2856 4238 3212 4131 
Q 3569 4025 3794 3739 
Q 4019 3453 4019 3069 
Q 4019 2600 3681 2294 
Q 3466 2100 3078 2003 
L 4097 569 
Q 4297 291 4381 222 
Q 4509 125 4678 116 
L 4678 0 
L 3344 0 
L 1978 1931 
L 1700 1931 
z
M 1700 4009 
L 1700 2153 
L 1878 2153 
Q 2313 2153 2528 2233 
Q 2744 2313 2867 2520 
Q 2991 2728 2991 3063 
Q 2991 3547 2764 3778 
Q 2538 4009 2034 4009 
L 1700 4009 
z
" transform="scale(0.015625)"/>
      <path id="TimesNewRomanPS-BoldMT-65" d="M 2691 1566 
L 1088 1566 
Q 1116 984 1397 647 
Q 1613 388 1916 388 
Q 2103 388 2256 492 
Q 2409 597 2584 869 
L 2691 800 
Q 2453 316 2165 114 
Q 1878 -88 1500 -88 
Q 850 -88 516 413 
Q 247 816 247 1413 
Q 247 2144 642 2576 
Q 1038 3009 1569 3009 
Q 2013 3009 2339 2645 
Q 2666 2281 2691 1566 
z
M 1922 1775 
Q 1922 2278 1867 2465 
Q 1813 2653 1697 2750 
Q 1631 2806 1522 2806 
Q 1359 2806 1256 2647 
Q 1072 2369 1072 1884 
L 1072 1775 
L 1922 1775 
z
" transform="scale(0.015625)"/>
      <path id="TimesNewRomanPS-BoldMT-73" d="M 2063 3003 
L 2109 2006 
L 2003 2006 
Q 1813 2450 1608 2612 
Q 1403 2775 1200 2775 
Q 1072 2775 981 2689 
Q 891 2603 891 2491 
Q 891 2406 953 2328 
Q 1053 2200 1512 1889 
Q 1972 1578 2117 1361 
Q 2263 1144 2263 875 
Q 2263 631 2141 397 
Q 2019 163 1797 37 
Q 1575 -88 1306 -88 
Q 1097 -88 747 44 
Q 653 78 619 78 
Q 516 78 447 -78 
L 344 -78 
L 294 972 
L 400 972 
Q 541 559 786 353 
Q 1031 147 1250 147 
Q 1400 147 1495 239 
Q 1591 331 1591 463 
Q 1591 613 1497 722 
Q 1403 831 1078 1053 
Q 600 1384 459 1559 
Q 253 1816 253 2125 
Q 253 2463 486 2736 
Q 719 3009 1159 3009 
Q 1397 3009 1619 2894 
Q 1703 2847 1756 2847 
Q 1813 2847 1847 2870 
Q 1881 2894 1956 3003 
L 2063 3003 
z
" transform="scale(0.015625)"/>
      <path id="TimesNewRomanPS-BoldMT-61" d="M 1828 431 
Q 1294 -41 869 -41 
Q 619 -41 453 123 
Q 288 288 288 534 
Q 288 869 575 1136 
Q 863 1403 1828 1847 
L 1828 2141 
Q 1828 2472 1792 2558 
Q 1756 2644 1656 2708 
Q 1556 2772 1431 2772 
Q 1228 2772 1097 2681 
Q 1016 2625 1016 2550 
Q 1016 2484 1103 2388 
Q 1222 2253 1222 2128 
Q 1222 1975 1108 1867 
Q 994 1759 809 1759 
Q 613 1759 480 1878 
Q 347 1997 347 2156 
Q 347 2381 525 2586 
Q 703 2791 1022 2900 
Q 1341 3009 1684 3009 
Q 2100 3009 2342 2832 
Q 2584 2656 2656 2450 
Q 2700 2319 2700 1847 
L 2700 713 
Q 2700 513 2715 461 
Q 2731 409 2762 384 
Q 2794 359 2834 359 
Q 2916 359 3000 475 
L 3094 400 
Q 2938 169 2770 64 
Q 2603 -41 2391 -41 
Q 2141 -41 2000 76 
Q 1859 194 1828 431 
z
M 1828 659 
L 1828 1638 
Q 1450 1416 1266 1163 
Q 1144 994 1144 822 
Q 1144 678 1247 569 
Q 1325 484 1466 484 
Q 1622 484 1828 659 
z
" transform="scale(0.015625)"/>
      <path id="TimesNewRomanPS-BoldMT-72" d="M 1428 2922 
L 1428 2259 
Q 1719 2713 1937 2861 
Q 2156 3009 2359 3009 
Q 2534 3009 2639 2901 
Q 2744 2794 2744 2597 
Q 2744 2388 2642 2272 
Q 2541 2156 2397 2156 
Q 2231 2156 2109 2262 
Q 1988 2369 1966 2381 
Q 1934 2400 1894 2400 
Q 1803 2400 1722 2331 
Q 1594 2225 1528 2028 
Q 1428 1725 1428 1359 
L 1428 688 
L 1431 513 
Q 1431 334 1453 284 
Q 1491 200 1564 161 
Q 1638 122 1813 113 
L 1813 0 
L 234 0 
L 234 113 
Q 425 128 492 217 
Q 559 306 559 688 
L 559 2303 
Q 559 2553 534 2622 
Q 503 2709 443 2750 
Q 384 2791 234 2806 
L 234 2922 
L 1428 2922 
z
" transform="scale(0.015625)"/>
      <path id="TimesNewRomanPS-BoldMT-63" d="M 2600 753 
L 2697 678 
Q 2491 291 2183 101 
Q 1875 -88 1528 -88 
Q 944 -88 594 353 
Q 244 794 244 1413 
Q 244 2009 563 2463 
Q 947 3009 1622 3009 
Q 2075 3009 2342 2781 
Q 2609 2553 2609 2272 
Q 2609 2094 2501 1987 
Q 2394 1881 2219 1881 
Q 2034 1881 1914 2003 
Q 1794 2125 1766 2438 
Q 1747 2634 1675 2713 
Q 1603 2791 1506 2791 
Q 1356 2791 1250 2631 
Q 1088 2391 1088 1894 
Q 1088 1481 1219 1104 
Q 1350 728 1578 544 
Q 1750 409 1984 409 
Q 2138 409 2275 481 
Q 2413 553 2600 753 
z
" transform="scale(0.015625)"/>
      <path id="TimesNewRomanPS-BoldMT-68" d="M 1409 4238 
L 1409 2547 
Q 1650 2800 1850 2904 
Q 2050 3009 2266 3009 
Q 2541 3009 2736 2853 
Q 2931 2697 2995 2486 
Q 3059 2275 3059 1775 
L 3059 634 
Q 3059 300 3121 217 
Q 3184 134 3375 113 
L 3375 0 
L 1894 0 
L 1894 113 
Q 2050 134 2128 238 
Q 2184 319 2184 634 
L 2184 1938 
Q 2184 2300 2156 2392 
Q 2128 2484 2061 2536 
Q 1994 2588 1909 2588 
Q 1784 2588 1665 2502 
Q 1547 2416 1409 2200 
L 1409 634 
Q 1409 322 1456 244 
Q 1516 138 1700 113 
L 1700 0 
L 219 0 
L 219 113 
Q 403 131 481 231 
Q 534 300 534 634 
L 534 3603 
Q 534 3934 473 4015 
Q 413 4097 219 4122 
L 219 4238 
L 1409 4238 
z
" transform="scale(0.015625)"/>
      <path id="TimesNewRomanPS-BoldMT-20" transform="scale(0.015625)"/>
      <path id="TimesNewRomanPS-BoldMT-6e" d="M 1409 2922 
L 1409 2544 
Q 1634 2788 1840 2898 
Q 2047 3009 2284 3009 
Q 2569 3009 2756 2851 
Q 2944 2694 3006 2459 
Q 3056 2281 3056 1775 
L 3056 638 
Q 3056 300 3117 217 
Q 3178 134 3372 113 
L 3372 0 
L 1894 0 
L 1894 113 
Q 2059 134 2131 250 
Q 2181 328 2181 638 
L 2181 1938 
Q 2181 2297 2153 2390 
Q 2125 2484 2058 2536 
Q 1991 2588 1909 2588 
Q 1641 2588 1409 2203 
L 1409 638 
Q 1409 309 1470 221 
Q 1531 134 1697 113 
L 1697 0 
L 219 0 
L 219 113 
Q 403 131 481 231 
Q 534 300 534 638 
L 534 2288 
Q 534 2619 473 2700 
Q 413 2781 219 2806 
L 219 2922 
L 1409 2922 
z
" transform="scale(0.015625)"/>
      <path id="TimesNewRomanPS-BoldMT-64" d="M 3056 4238 
L 3056 875 
Q 3056 534 3075 472 
Q 3100 369 3170 319 
Q 3241 269 3416 256 
L 3416 153 
L 2181 -88 
L 2181 375 
Q 1959 106 1786 9 
Q 1613 -88 1394 -88 
Q 834 -88 509 413 
Q 247 819 247 1409 
Q 247 1881 409 2254 
Q 572 2628 855 2818 
Q 1138 3009 1463 3009 
Q 1672 3009 1834 2928 
Q 1997 2847 2181 2644 
L 2181 3525 
Q 2181 3859 2153 3928 
Q 2116 4019 2041 4062 
Q 1966 4106 1759 4106 
L 1759 4238 
L 3056 4238 
z
M 2181 2256 
Q 1950 2700 1616 2700 
Q 1500 2700 1425 2638 
Q 1309 2541 1236 2297 
Q 1163 2053 1163 1550 
Q 1163 997 1244 731 
Q 1325 466 1466 347 
Q 1538 288 1663 288 
Q 1938 288 2181 719 
L 2181 2256 
z
" transform="scale(0.015625)"/>
      <path id="TimesNewRomanPS-BoldMT-44" d="M 84 0 
L 84 116 
L 225 116 
Q 409 116 507 173 
Q 606 231 653 331 
Q 681 397 681 725 
L 681 3513 
Q 681 3838 647 3919 
Q 613 4000 508 4061 
Q 403 4122 225 4122 
L 84 4122 
L 84 4238 
L 1981 4238 
Q 2741 4238 3203 4031 
Q 3769 3778 4061 3265 
Q 4353 2753 4353 2106 
Q 4353 1659 4209 1282 
Q 4066 906 3837 661 
Q 3609 416 3311 267 
Q 3013 119 2581 38 
Q 2391 0 1981 0 
L 84 0 
z
M 1700 3997 
L 1700 691 
Q 1700 428 1725 368 
Q 1750 309 1809 278 
Q 1894 231 2053 231 
Q 2575 231 2850 588 
Q 3225 1069 3225 2081 
Q 3225 2897 2969 3384 
Q 2766 3766 2447 3903 
Q 2222 4000 1700 3997 
z
" transform="scale(0.015625)"/>
      <path id="TimesNewRomanPS-BoldMT-76" d="M 1534 -88 
L 550 2178 
Q 372 2588 272 2697 
Q 200 2778 59 2806 
L 59 2922 
L 1613 2922 
L 1613 2806 
Q 1466 2806 1413 2753 
Q 1338 2684 1338 2591 
Q 1338 2475 1475 2156 
L 1956 1059 
L 2341 2006 
Q 2506 2413 2506 2581 
Q 2506 2678 2436 2739 
Q 2366 2800 2188 2806 
L 2188 2922 
L 3144 2922 
L 3144 2806 
Q 3006 2788 2918 2703 
Q 2831 2619 2656 2206 
L 1681 -88 
L 1534 -88 
z
" transform="scale(0.015625)"/>
      <path id="TimesNewRomanPS-BoldMT-6c" d="M 1359 4238 
L 1359 606 
Q 1359 297 1431 211 
Q 1503 125 1713 113 
L 1713 0 
L 134 0 
L 134 113 
Q 328 119 422 225 
Q 484 297 484 606 
L 484 3631 
Q 484 3938 412 4023 
Q 341 4109 134 4122 
L 134 4238 
L 1359 4238 
z
" transform="scale(0.015625)"/>
      <path id="TimesNewRomanPS-BoldMT-6f" d="M 1594 3009 
Q 1975 3009 2303 2812 
Q 2631 2616 2801 2253 
Q 2972 1891 2972 1459 
Q 2972 838 2656 419 
Q 2275 -88 1603 -88 
Q 944 -88 587 375 
Q 231 838 231 1447 
Q 231 2075 595 2542 
Q 959 3009 1594 3009 
z
M 1606 2788 
Q 1447 2788 1333 2667 
Q 1219 2547 1183 2192 
Q 1147 1838 1147 1206 
Q 1147 872 1191 581 
Q 1225 359 1337 243 
Q 1450 128 1594 128 
Q 1734 128 1828 206 
Q 1950 313 1991 503 
Q 2053 800 2053 1703 
Q 2053 2234 1993 2432 
Q 1934 2631 1819 2722 
Q 1738 2788 1606 2788 
z
" transform="scale(0.015625)"/>
      <path id="TimesNewRomanPS-BoldMT-70" d="M 1347 297 
L 1347 -791 
Q 1347 -1016 1383 -1097 
Q 1419 -1178 1494 -1215 
Q 1569 -1253 1788 -1253 
L 1788 -1369 
L 122 -1369 
L 122 -1253 
Q 316 -1247 409 -1144 
Q 472 -1072 472 -772 
L 472 2313 
Q 472 2622 400 2708 
Q 328 2794 122 2806 
L 122 2922 
L 1347 2922 
L 1347 2538 
Q 1500 2763 1659 2863 
Q 1888 3009 2156 3009 
Q 2478 3009 2742 2806 
Q 3006 2603 3143 2245 
Q 3281 1888 3281 1475 
Q 3281 1031 3139 664 
Q 2997 297 2726 104 
Q 2456 -88 2125 -88 
Q 1884 -88 1675 19 
Q 1519 100 1347 297 
z
M 1347 613 
Q 1616 231 1922 231 
Q 2091 231 2200 409 
Q 2363 672 2363 1409 
Q 2363 2166 2184 2444 
Q 2066 2628 1866 2628 
Q 1550 2628 1347 2172 
L 1347 613 
z
" transform="scale(0.015625)"/>
      <path id="TimesNewRomanPS-BoldMT-6d" d="M 1428 2922 
L 1428 2538 
Q 1669 2800 1873 2904 
Q 2078 3009 2322 3009 
Q 2603 3009 2793 2878 
Q 2984 2747 3088 2478 
Q 3338 2759 3567 2884 
Q 3797 3009 4047 3009 
Q 4350 3009 4529 2870 
Q 4709 2731 4779 2517 
Q 4850 2303 4850 1834 
L 4850 638 
Q 4850 300 4911 219 
Q 4972 138 5166 113 
L 5166 0 
L 3656 0 
L 3656 113 
Q 3834 128 3919 250 
Q 3975 334 3975 638 
L 3975 1894 
Q 3975 2284 3944 2390 
Q 3913 2497 3845 2548 
Q 3778 2600 3688 2600 
Q 3553 2600 3415 2501 
Q 3278 2403 3138 2206 
L 3138 638 
Q 3138 322 3191 241 
Q 3263 125 3466 113 
L 3466 0 
L 1953 0 
L 1953 113 
Q 2075 119 2145 173 
Q 2216 228 2239 304 
Q 2263 381 2263 638 
L 2263 1894 
Q 2263 2291 2231 2391 
Q 2200 2491 2126 2547 
Q 2053 2603 1969 2603 
Q 1844 2603 1741 2538 
Q 1594 2441 1428 2206 
L 1428 638 
Q 1428 328 1489 229 
Q 1550 131 1744 113 
L 1744 0 
L 238 0 
L 238 113 
Q 422 131 500 231 
Q 553 300 553 638 
L 553 2288 
Q 553 2619 492 2700 
Q 431 2781 238 2806 
L 238 2922 
L 1428 2922 
z
" transform="scale(0.015625)"/>
      <path id="TimesNewRomanPS-BoldMT-74" d="M 1375 3991 
L 1375 2922 
L 2069 2922 
L 2069 2613 
L 1375 2613 
L 1375 809 
Q 1375 556 1398 482 
Q 1422 409 1481 364 
Q 1541 319 1591 319 
Q 1794 319 1975 628 
L 2069 559 
Q 1816 -41 1247 -41 
Q 969 -41 776 114 
Q 584 269 531 459 
Q 500 566 500 1034 
L 500 2613 
L 119 2613 
L 119 2722 
Q 513 3000 789 3306 
Q 1066 3613 1272 3991 
L 1375 3991 
z
" transform="scale(0.015625)"/>
      <path id="TimesNewRomanPS-BoldMT-49" d="M 2344 116 
L 2344 0 
L 128 0 
L 128 116 
L 269 116 
Q 453 116 566 181 
Q 647 225 691 331 
Q 725 406 725 725 
L 725 3513 
Q 725 3838 690 3919 
Q 656 4000 551 4061 
Q 447 4122 269 4122 
L 128 4122 
L 128 4238 
L 2344 4238 
L 2344 4122 
L 2203 4122 
Q 2019 4122 1906 4056 
Q 1825 4013 1778 3906 
Q 1744 3831 1744 3513 
L 1744 725 
Q 1744 400 1780 319 
Q 1816 238 1920 177 
Q 2025 116 2203 116 
L 2344 116 
z
" transform="scale(0.015625)"/>
      <path id="TimesNewRomanPS-BoldMT-62" d="M 1347 4238 
L 1347 2628 
Q 1716 3009 2153 3009 
Q 2453 3009 2718 2832 
Q 2984 2656 3134 2331 
Q 3284 2006 3284 1581 
Q 3284 1103 3093 712 
Q 2903 322 2584 117 
Q 2266 -88 1856 -88 
Q 1619 -88 1434 -12 
Q 1250 63 1072 231 
L 588 -84 
L 481 -84 
L 481 3631 
Q 481 3884 459 3944 
Q 428 4031 361 4073 
Q 294 4116 134 4122 
L 134 4238 
L 1347 4238 
z
M 1347 2350 
L 1347 1050 
Q 1347 653 1366 544 
Q 1397 359 1515 245 
Q 1634 131 1819 131 
Q 1978 131 2092 222 
Q 2206 313 2282 581 
Q 2359 850 2359 1550 
Q 2359 2222 2191 2472 
Q 2069 2653 1863 2653 
Q 1594 2653 1347 2350 
z
" transform="scale(0.015625)"/>
      <path id="TimesNewRomanPS-BoldMT-79" d="M 1556 -119 
L 613 2047 
Q 400 2538 298 2650 
Q 197 2763 53 2806 
L 53 2922 
L 1606 2922 
L 1606 2806 
Q 1453 2800 1390 2747 
Q 1328 2694 1328 2619 
Q 1328 2500 1484 2150 
L 1984 1006 
L 2325 1891 
Q 2509 2363 2509 2547 
Q 2509 2663 2432 2731 
Q 2356 2800 2163 2806 
L 2163 2922 
L 3141 2922 
L 3141 2806 
Q 2997 2791 2906 2695 
Q 2816 2600 2603 2047 
L 1769 -119 
Q 1453 -931 1300 -1119 
Q 1084 -1381 759 -1381 
Q 500 -1381 339 -1232 
Q 178 -1084 178 -875 
Q 178 -694 289 -575 
Q 400 -456 563 -456 
Q 719 -456 814 -556 
Q 909 -656 913 -866 
Q 916 -984 941 -1019 
Q 966 -1053 1013 -1053 
Q 1088 -1053 1172 -963 
Q 1297 -831 1466 -363 
L 1556 -119 
z
" transform="scale(0.015625)"/>
      <path id="TimesNewRomanPS-BoldMT-43" d="M 4272 4334 
L 4272 2866 
L 4150 2866 
Q 4013 3441 3638 3747 
Q 3263 4053 2788 4053 
Q 2391 4053 2059 3825 
Q 1728 3597 1575 3228 
Q 1378 2756 1378 2178 
Q 1378 1609 1522 1142 
Q 1666 675 1972 436 
Q 2278 197 2766 197 
Q 3166 197 3498 372 
Q 3831 547 4200 975 
L 4200 609 
Q 3844 238 3458 70 
Q 3072 -97 2556 -97 
Q 1878 -97 1351 175 
Q 825 447 539 956 
Q 253 1466 253 2041 
Q 253 2647 570 3190 
Q 888 3734 1427 4034 
Q 1966 4334 2572 4334 
Q 3019 4334 3516 4141 
Q 3803 4028 3881 4028 
Q 3981 4028 4054 4101 
Q 4128 4175 4150 4334 
L 4272 4334 
z
" transform="scale(0.015625)"/>
      <path id="TimesNewRomanPS-BoldMT-75" d="M 3038 2922 
L 3038 634 
Q 3038 300 3100 217 
Q 3163 134 3353 113 
L 3353 0 
L 2163 0 
L 2163 391 
Q 1953 141 1743 26 
Q 1534 -88 1275 -88 
Q 1028 -88 836 64 
Q 644 216 578 419 
Q 513 622 513 1128 
L 513 2288 
Q 513 2619 452 2700 
Q 391 2781 197 2806 
L 197 2922 
L 1388 2922 
L 1388 925 
Q 1388 613 1417 522 
Q 1447 431 1511 384 
Q 1575 338 1659 338 
Q 1772 338 1863 397 
Q 1988 478 2163 725 
L 2163 2288 
Q 2163 2619 2102 2700 
Q 2041 2781 1847 2806 
L 1847 2922 
L 3038 2922 
z
" transform="scale(0.015625)"/>
      <path id="TimesNewRomanPS-BoldMT-28" d="M 2056 4334 
L 2056 4191 
Q 1731 3978 1578 3775 
Q 1366 3494 1247 3053 
Q 1097 2506 1097 1525 
Q 1097 600 1233 87 
Q 1369 -425 1603 -741 
Q 1766 -959 2056 -1125 
L 2056 -1281 
Q 1303 -1028 779 -248 
Q 256 531 256 1544 
Q 256 2544 778 3314 
Q 1300 4084 2056 4334 
z
" transform="scale(0.015625)"/>
      <path id="TimesNewRomanPS-BoldMT-69" d="M 919 4338 
Q 1122 4338 1262 4195 
Q 1403 4053 1403 3853 
Q 1403 3653 1261 3512 
Q 1119 3372 919 3372 
Q 719 3372 578 3512 
Q 438 3653 438 3853 
Q 438 4053 578 4195 
Q 719 4338 919 4338 
z
M 1356 2922 
L 1356 606 
Q 1356 297 1428 211 
Q 1500 125 1709 113 
L 1709 0 
L 131 0 
L 131 113 
Q 325 119 419 225 
Q 481 297 481 606 
L 481 2313 
Q 481 2622 409 2708 
Q 338 2794 131 2806 
L 131 2922 
L 1356 2922 
z
" transform="scale(0.015625)"/>
      <path id="TimesNewRomanPS-BoldMT-55" d="M 150 4238 
L 2338 4238 
L 2338 4122 
L 2228 4122 
Q 1981 4122 1889 4070 
Q 1797 4019 1758 3928 
Q 1719 3838 1719 3475 
L 1719 1400 
Q 1719 831 1805 647 
Q 1891 463 2087 341 
Q 2284 219 2584 219 
Q 2928 219 3170 373 
Q 3413 528 3533 800 
Q 3653 1072 3653 1747 
L 3653 3475 
Q 3653 3759 3593 3881 
Q 3534 4003 3444 4050 
Q 3303 4122 3047 4122 
L 3047 4238 
L 4513 4238 
L 4513 4122 
L 4425 4122 
Q 4247 4122 4128 4050 
Q 4009 3978 3956 3834 
Q 3916 3734 3916 3475 
L 3916 1866 
Q 3916 1119 3817 787 
Q 3719 456 3337 178 
Q 2956 -100 2297 -100 
Q 1747 -100 1447 47 
Q 1038 247 869 559 
Q 700 872 700 1400 
L 700 3475 
Q 700 3841 659 3930 
Q 619 4019 519 4072 
Q 419 4125 150 4122 
L 150 4238 
z
" transform="scale(0.015625)"/>
      <path id="TimesNewRomanPS-BoldMT-53" d="M 3006 4334 
L 3041 2922 
L 2913 2922 
Q 2822 3453 2467 3776 
Q 2113 4100 1700 4100 
Q 1381 4100 1195 3929 
Q 1009 3759 1009 3538 
Q 1009 3397 1075 3288 
Q 1166 3141 1366 2997 
Q 1513 2894 2044 2631 
Q 2788 2266 3047 1941 
Q 3303 1616 3303 1197 
Q 3303 666 2889 283 
Q 2475 -100 1838 -100 
Q 1638 -100 1459 -59 
Q 1281 -19 1013 94 
Q 863 156 766 156 
Q 684 156 593 93 
Q 503 31 447 -97 
L 331 -97 
L 331 1503 
L 447 1503 
Q 584 828 976 473 
Q 1369 119 1822 119 
Q 2172 119 2380 309 
Q 2588 500 2588 753 
Q 2588 903 2508 1043 
Q 2428 1184 2265 1311 
Q 2103 1438 1691 1641 
Q 1113 1925 859 2125 
Q 606 2325 470 2572 
Q 334 2819 334 3116 
Q 334 3622 706 3978 
Q 1078 4334 1644 4334 
Q 1850 4334 2044 4284 
Q 2191 4247 2402 4145 
Q 2613 4044 2697 4044 
Q 2778 4044 2825 4094 
Q 2872 4144 2913 4334 
L 3006 4334 
z
" transform="scale(0.015625)"/>
      <path id="TimesNewRomanPS-BoldMT-29" d="M 78 -1281 
L 78 -1138 
Q 403 -922 556 -719 
Q 766 -438 888 0 
Q 1038 550 1038 1531 
Q 1038 2456 902 2967 
Q 766 3478 531 3794 
Q 369 4013 78 4178 
L 78 4334 
Q 831 4081 1354 3301 
Q 1878 2522 1878 1509 
Q 1878 513 1354 -257 
Q 831 -1028 78 -1281 
z
" transform="scale(0.015625)"/>
     </defs>
     <use xlink:href="#TimesNewRomanPS-BoldMT-52"/>
     <use xlink:href="#TimesNewRomanPS-BoldMT-65" x="72.216797"/>
     <use xlink:href="#TimesNewRomanPS-BoldMT-73" x="116.601562"/>
     <use xlink:href="#TimesNewRomanPS-BoldMT-65" x="155.517578"/>
     <use xlink:href="#TimesNewRomanPS-BoldMT-61" x="199.902344"/>
     <use xlink:href="#TimesNewRomanPS-BoldMT-72" x="249.902344"/>
     <use xlink:href="#TimesNewRomanPS-BoldMT-63" x="292.537109"/>
     <use xlink:href="#TimesNewRomanPS-BoldMT-68" x="336.921875"/>
     <use xlink:href="#TimesNewRomanPS-BoldMT-20" x="392.537109"/>
     <use xlink:href="#TimesNewRomanPS-BoldMT-61" x="417.537109"/>
     <use xlink:href="#TimesNewRomanPS-BoldMT-6e" x="467.537109"/>
     <use xlink:href="#TimesNewRomanPS-BoldMT-64" x="523.152344"/>
     <use xlink:href="#TimesNewRomanPS-BoldMT-20" x="578.767578"/>
     <use xlink:href="#TimesNewRomanPS-BoldMT-44" x="603.767578"/>
     <use xlink:href="#TimesNewRomanPS-BoldMT-65" x="675.984375"/>
     <use xlink:href="#TimesNewRomanPS-BoldMT-76" x="720.369141"/>
     <use xlink:href="#TimesNewRomanPS-BoldMT-65" x="770.369141"/>
     <use xlink:href="#TimesNewRomanPS-BoldMT-6c" x="814.753906"/>
     <use xlink:href="#TimesNewRomanPS-BoldMT-6f" x="842.537109"/>
     <use xlink:href="#TimesNewRomanPS-BoldMT-70" x="892.537109"/>
     <use xlink:href="#TimesNewRomanPS-BoldMT-6d" x="948.152344"/>
     <use xlink:href="#TimesNewRomanPS-BoldMT-65" x="1031.453125"/>
     <use xlink:href="#TimesNewRomanPS-BoldMT-6e" x="1075.837891"/>
     <use xlink:href="#TimesNewRomanPS-BoldMT-74" x="1131.453125"/>
     <use xlink:href="#TimesNewRomanPS-BoldMT-20" x="1164.753906"/>
     <use xlink:href="#TimesNewRomanPS-BoldMT-49" x="1189.753906"/>
     <use xlink:href="#TimesNewRomanPS-BoldMT-6e" x="1228.669922"/>
     <use xlink:href="#TimesNewRomanPS-BoldMT-76" x="1284.285156"/>
     <use xlink:href="#TimesNewRomanPS-BoldMT-65" x="1334.285156"/>
     <use xlink:href="#TimesNewRomanPS-BoldMT-73" x="1378.669922"/>
     <use xlink:href="#TimesNewRomanPS-BoldMT-74" x="1417.585938"/>
     <use xlink:href="#TimesNewRomanPS-BoldMT-6d" x="1450.886719"/>
     <use xlink:href="#TimesNewRomanPS-BoldMT-65" x="1534.1875"/>
     <use xlink:href="#TimesNewRomanPS-BoldMT-6e" x="1578.572266"/>
     <use xlink:href="#TimesNewRomanPS-BoldMT-74" x="1634.1875"/>
     <use xlink:href="#TimesNewRomanPS-BoldMT-20" x="1667.488281"/>
     <use xlink:href="#TimesNewRomanPS-BoldMT-62" x="1692.488281"/>
     <use xlink:href="#TimesNewRomanPS-BoldMT-79" x="1748.103516"/>
     <use xlink:href="#TimesNewRomanPS-BoldMT-20" x="1798.103516"/>
     <use xlink:href="#TimesNewRomanPS-BoldMT-43" x="1823.103516"/>
     <use xlink:href="#TimesNewRomanPS-BoldMT-6f" x="1895.320312"/>
     <use xlink:href="#TimesNewRomanPS-BoldMT-75" x="1945.320312"/>
     <use xlink:href="#TimesNewRomanPS-BoldMT-6e" x="2000.935547"/>
     <use xlink:href="#TimesNewRomanPS-BoldMT-74" x="2056.550781"/>
     <use xlink:href="#TimesNewRomanPS-BoldMT-72" x="2089.851562"/>
     <use xlink:href="#TimesNewRomanPS-BoldMT-79" x="2134.236328"/>
     <use xlink:href="#TimesNewRomanPS-BoldMT-20" x="2184.236328"/>
     <use xlink:href="#TimesNewRomanPS-BoldMT-28" x="2209.236328"/>
     <use xlink:href="#TimesNewRomanPS-BoldMT-6d" x="2242.537109"/>
     <use xlink:href="#TimesNewRomanPS-BoldMT-69" x="2325.837891"/>
     <use xlink:href="#TimesNewRomanPS-BoldMT-6c" x="2353.621094"/>
     <use xlink:href="#TimesNewRomanPS-BoldMT-6c" x="2381.404297"/>
     <use xlink:href="#TimesNewRomanPS-BoldMT-69" x="2409.1875"/>
     <use xlink:href="#TimesNewRomanPS-BoldMT-6f" x="2436.970703"/>
     <use xlink:href="#TimesNewRomanPS-BoldMT-6e" x="2486.970703"/>
     <use xlink:href="#TimesNewRomanPS-BoldMT-20" x="2542.585938"/>
     <use xlink:href="#TimesNewRomanPS-BoldMT-55" x="2567.585938"/>
     <use xlink:href="#TimesNewRomanPS-BoldMT-53" x="2639.802734"/>
     <use xlink:href="#TimesNewRomanPS-BoldMT-44" x="2695.417969"/>
     <use xlink:href="#TimesNewRomanPS-BoldMT-29" x="2767.634766"/>
    </g>
   </g>
  </g>
 </g>
 <defs>
  <clipPath id="p9582582237">
   <rect x="50.915938" y="30.045" width="376.8" height="231.273486"/>
  </clipPath>
 </defs>
</svg>
