<?xml version="1.0" encoding="utf-8" standalone="no"?>
<!DOCTYPE svg PUBLIC "-//W3C//DTD SVG 1.1//EN"
  "http://www.w3.org/Graphics/SVG/1.1/DTD/svg11.dtd">
<svg xmlns:xlink="http://www.w3.org/1999/xlink" width="463.355937pt" height="319.99727pt" viewBox="0 0 463.355937 319.99727" xmlns="http://www.w3.org/2000/svg" version="1.1">
 <metadata>
  <rdf:RDF xmlns:dc="http://purl.org/dc/elements/1.1/" xmlns:cc="http://creativecommons.org/ns#" xmlns:rdf="http://www.w3.org/1999/02/22-rdf-syntax-ns#">
   <cc:Work>
    <dc:type rdf:resource="http://purl.org/dc/dcmitype/StillImage"/>
    <dc:date>2025-05-26T17:57:20.904760</dc:date>
    <dc:format>image/svg+xml</dc:format>
    <dc:creator>
     <cc:Agent>
      <dc:title>Matplotlib v3.7.2, https://matplotlib.org/</dc:title>
     </cc:Agent>
    </dc:creator>
   </cc:Work>
  </rdf:RDF>
 </metadata>
 <defs>
  <style type="text/css">*{stroke-linejoin: round; stroke-linecap: butt}</style>
 </defs>
 <g id="figure_1">
  <g id="patch_1">
   <path d="M 0 319.99727 
L 463.355937 319.99727 
L 463.355937 0 
L 0 0 
z
" style="fill: #ffffff"/>
  </g>
  <g id="axes_1">
   <g id="patch_2">
    <path d="M 55.915938 268.424909 
L 427.705938 268.424909 
L 427.705938 30.045 
L 55.915938 30.045 
z
" style="fill: #ffffff"/>
   </g>
   <g id="PolyCollection_1">
    <defs>
     <path id="m8bf35b7d9c" d="M 88.098157 -198.056094 
L 85.698718 -198.056094 
L 85.645759 -198.874889 
L 85.6084 -199.693684 
L 85.587397 -200.512479 
L 85.58266 -201.331274 
L 85.593232 -202.15007 
L 85.617304 -202.968865 
L 85.652262 -203.78766 
L 85.694757 -204.606455 
L 85.740784 -205.425251 
L 85.785766 -206.244046 
L 85.824641 -207.062841 
L 85.851951 -207.881636 
L 85.861939 -208.700431 
L 85.848656 -209.519227 
L 85.806096 -210.338022 
L 85.728352 -211.156817 
L 85.609812 -211.975612 
L 85.445387 -212.794407 
L 85.230771 -213.613203 
L 84.962718 -214.431998 
L 84.63932 -215.250793 
L 84.260252 -216.069588 
L 83.826963 -216.888384 
L 83.342758 -217.707179 
L 82.81276 -218.525974 
L 82.243714 -219.344769 
L 81.64362 -220.163564 
L 81.021229 -220.98236 
L 80.385411 -221.801155 
L 79.744468 -222.61995 
L 79.105463 -223.438745 
L 78.473642 -224.25754 
L 77.852033 -225.076336 
L 77.241285 -225.895131 
L 76.639776 -226.713926 
L 76.043997 -227.532721 
L 75.44918 -228.351517 
L 74.850081 -229.170312 
L 74.241853 -229.989107 
L 73.620886 -230.807902 
L 72.985512 -231.626697 
L 72.336512 -232.445493 
L 71.67736 -233.264288 
L 71.014183 -234.083083 
L 70.355468 -234.901878 
L 69.711545 -235.720673 
L 69.093918 -236.539469 
L 68.514496 -237.358264 
L 67.984808 -238.177059 
L 67.515233 -238.995854 
L 67.114297 -239.81465 
L 66.788074 -240.633445 
L 66.5397 -241.45224 
L 66.36905 -242.271035 
L 66.272586 -243.08983 
L 66.243438 -243.908626 
L 66.271725 -244.727421 
L 66.345163 -245.546216 
L 66.44993 -246.365011 
L 66.57177 -247.183806 
L 66.697256 -248.002602 
L 66.81508 -248.821397 
L 66.917254 -249.640192 
L 67.000053 -250.458987 
L 67.064566 -251.277783 
L 67.116769 -252.096578 
L 67.167071 -252.915373 
L 67.229368 -253.734168 
L 67.319691 -254.552963 
L 67.454615 -255.371759 
L 67.649602 -256.190554 
L 67.917476 -257.009349 
L 68.267195 -257.828144 
L 68.70305 -258.646939 
L 69.224356 -259.465735 
L 69.825626 -260.28453 
L 70.49718 -261.103325 
L 71.226087 -261.92212 
L 71.997294 -262.740916 
L 72.794828 -263.559711 
L 73.602944 -264.378506 
L 74.407112 -265.197301 
L 75.1948 -266.016096 
L 75.955997 -266.834892 
L 76.683493 -267.653687 
L 77.372921 -268.472482 
L 78.022584 -269.291277 
L 78.633128 -270.110073 
L 79.207081 -270.928868 
L 79.74831 -271.747663 
L 80.261445 -272.566458 
L 80.751305 -273.385253 
L 81.222378 -274.204049 
L 81.67838 -275.022844 
L 82.121942 -275.841639 
L 82.554426 -276.660434 
L 82.975888 -277.479229 
L 83.385189 -278.298025 
L 83.78021 -279.11682 
L 90.016665 -279.11682 
L 90.016665 -279.11682 
L 90.411686 -278.298025 
L 90.820987 -277.479229 
L 91.242449 -276.660434 
L 91.674933 -275.841639 
L 92.118495 -275.022844 
L 92.574497 -274.204049 
L 93.04557 -273.385253 
L 93.53543 -272.566458 
L 94.048565 -271.747663 
L 94.589794 -270.928868 
L 95.163747 -270.110073 
L 95.774291 -269.291277 
L 96.423954 -268.472482 
L 97.113382 -267.653687 
L 97.840878 -266.834892 
L 98.602075 -266.016096 
L 99.389763 -265.197301 
L 100.193931 -264.378506 
L 101.002047 -263.559711 
L 101.799581 -262.740916 
L 102.570788 -261.92212 
L 103.299695 -261.103325 
L 103.971249 -260.28453 
L 104.572519 -259.465735 
L 105.093825 -258.646939 
L 105.52968 -257.828144 
L 105.879399 -257.009349 
L 106.147273 -256.190554 
L 106.34226 -255.371759 
L 106.477184 -254.552963 
L 106.567507 -253.734168 
L 106.629804 -252.915373 
L 106.680106 -252.096578 
L 106.732309 -251.277783 
L 106.796822 -250.458987 
L 106.879621 -249.640192 
L 106.981795 -248.821397 
L 107.099619 -248.002602 
L 107.225105 -247.183806 
L 107.346945 -246.365011 
L 107.451712 -245.546216 
L 107.52515 -244.727421 
L 107.553438 -243.908626 
L 107.524289 -243.08983 
L 107.427825 -242.271035 
L 107.257175 -241.45224 
L 107.008801 -240.633445 
L 106.682578 -239.81465 
L 106.281642 -238.995854 
L 105.812067 -238.177059 
L 105.282379 -237.358264 
L 104.702957 -236.539469 
L 104.08533 -235.720673 
L 103.441407 -234.901878 
L 102.782692 -234.083083 
L 102.119515 -233.264288 
L 101.460363 -232.445493 
L 100.811363 -231.626697 
L 100.175989 -230.807902 
L 99.555022 -229.989107 
L 98.946794 -229.170312 
L 98.347695 -228.351517 
L 97.752878 -227.532721 
L 97.157099 -226.713926 
L 96.55559 -225.895131 
L 95.944842 -225.076336 
L 95.323233 -224.25754 
L 94.691412 -223.438745 
L 94.052407 -222.61995 
L 93.411464 -221.801155 
L 92.775646 -220.98236 
L 92.153255 -220.163564 
L 91.553161 -219.344769 
L 90.984115 -218.525974 
L 90.454117 -217.707179 
L 89.969912 -216.888384 
L 89.536623 -216.069588 
L 89.157555 -215.250793 
L 88.834157 -214.431998 
L 88.566104 -213.613203 
L 88.351488 -212.794407 
L 88.187063 -211.975612 
L 88.068523 -211.156817 
L 87.990779 -210.338022 
L 87.948219 -209.519227 
L 87.934936 -208.700431 
L 87.944924 -207.881636 
L 87.972234 -207.062841 
L 88.011109 -206.244046 
L 88.056091 -205.425251 
L 88.102118 -204.606455 
L 88.144613 -203.78766 
L 88.179571 -202.968865 
L 88.203643 -202.15007 
L 88.214215 -201.331274 
L 88.209478 -200.512479 
L 88.188475 -199.693684 
L 88.151116 -198.874889 
L 88.098157 -198.056094 
z
" style="stroke: #000000; stroke-opacity: 0.7"/>
    </defs>
    <g clip-path="url(#pf26ce85750)">
     <use xlink:href="#m8bf35b7d9c" x="0" y="319.99727" style="fill: #9467bd; fill-opacity: 0.7; stroke: #000000; stroke-opacity: 0.7"/>
    </g>
   </g>
   <g id="PolyCollection_2">
    <defs>
     <path id="m724f9c9d0d" d="M 149.734538 -182.109596 
L 147.992337 -182.109596 
L 147.897519 -183.080523 
L 147.788963 -184.051449 
L 147.663054 -185.022376 
L 147.515928 -185.993302 
L 147.343687 -186.964229 
L 147.142631 -187.935156 
L 146.909499 -188.906082 
L 146.641686 -189.877009 
L 146.337426 -190.847935 
L 145.995914 -191.818862 
L 145.617357 -192.789788 
L 145.20295 -193.760715 
L 144.754769 -194.731642 
L 144.275601 -195.702568 
L 143.768705 -196.673495 
L 143.23754 -197.644421 
L 142.685464 -198.615348 
L 142.115448 -199.586274 
L 141.529817 -200.557201 
L 140.930045 -201.528128 
L 140.316644 -202.499054 
L 139.689159 -203.469981 
L 139.046287 -204.440907 
L 138.386142 -205.411834 
L 137.706643 -206.382761 
L 137.006037 -207.353687 
L 136.283486 -208.324614 
L 135.539692 -209.29554 
L 134.777491 -210.266467 
L 134.002313 -211.237393 
L 133.222464 -212.20832 
L 132.449139 -213.179247 
L 131.696124 -214.150173 
L 130.979177 -215.1211 
L 130.31511 -216.092026 
L 129.720624 -217.062953 
L 129.211012 -218.033879 
L 128.798841 -219.004806 
L 128.492751 -219.975733 
L 128.296513 -220.946659 
L 128.208438 -221.917586 
L 128.22122 -222.888512 
L 128.322249 -223.859439 
L 128.494359 -224.830366 
L 128.716953 -225.801292 
L 128.967418 -226.772219 
L 129.222682 -227.743145 
L 129.460803 -228.714072 
L 129.662447 -229.684998 
L 129.812151 -230.655925 
L 129.899278 -231.626852 
L 129.918614 -232.597778 
L 129.870569 -233.568705 
L 129.761003 -234.539631 
L 129.600694 -235.510558 
L 129.404505 -236.481485 
L 129.190323 -237.452411 
L 128.977851 -238.423338 
L 128.787334 -239.394264 
L 128.638311 -240.365191 
L 128.548473 -241.336117 
L 128.532689 -242.307044 
L 128.602264 -243.277971 
L 128.764458 -244.248897 
L 129.022282 -245.219824 
L 129.374559 -246.19075 
L 129.816241 -247.161677 
L 130.338926 -248.132603 
L 130.931537 -249.10353 
L 131.581098 -250.074457 
L 132.273554 -251.045383 
L 132.994575 -252.01631 
L 133.730299 -252.987236 
L 134.467974 -253.958163 
L 135.196458 -254.92909 
L 135.906577 -255.900016 
L 136.591321 -256.870943 
L 137.245882 -257.841869 
L 137.867568 -258.812796 
L 138.455583 -259.783722 
L 139.010739 -260.754649 
L 139.535102 -261.725576 
L 140.031625 -262.696502 
L 140.503776 -263.667429 
L 140.955215 -264.638355 
L 141.389507 -265.609282 
L 141.809901 -266.580208 
L 142.219177 -267.551135 
L 142.619546 -268.522062 
L 143.01261 -269.492988 
L 143.399363 -270.463915 
L 143.780223 -271.434841 
L 144.155085 -272.405768 
L 144.523388 -273.376695 
L 144.884185 -274.347621 
L 145.236217 -275.318548 
L 145.57799 -276.289474 
L 145.90785 -277.260401 
L 146.224065 -278.231327 
L 151.50281 -278.231327 
L 151.50281 -278.231327 
L 151.819025 -277.260401 
L 152.148885 -276.289474 
L 152.490658 -275.318548 
L 152.84269 -274.347621 
L 153.203487 -273.376695 
L 153.57179 -272.405768 
L 153.946652 -271.434841 
L 154.327512 -270.463915 
L 154.714265 -269.492988 
L 155.107329 -268.522062 
L 155.507698 -267.551135 
L 155.916974 -266.580208 
L 156.337368 -265.609282 
L 156.77166 -264.638355 
L 157.223099 -263.667429 
L 157.69525 -262.696502 
L 158.191773 -261.725576 
L 158.716136 -260.754649 
L 159.271292 -259.783722 
L 159.859307 -258.812796 
L 160.480993 -257.841869 
L 161.135554 -256.870943 
L 161.820298 -255.900016 
L 162.530417 -254.92909 
L 163.258901 -253.958163 
L 163.996576 -252.987236 
L 164.7323 -252.01631 
L 165.453321 -251.045383 
L 166.145777 -250.074457 
L 166.795338 -249.10353 
L 167.387949 -248.132603 
L 167.910634 -247.161677 
L 168.352316 -246.19075 
L 168.704593 -245.219824 
L 168.962417 -244.248897 
L 169.124611 -243.277971 
L 169.194186 -242.307044 
L 169.178402 -241.336117 
L 169.088564 -240.365191 
L 168.939541 -239.394264 
L 168.749024 -238.423338 
L 168.536552 -237.452411 
L 168.32237 -236.481485 
L 168.126181 -235.510558 
L 167.965872 -234.539631 
L 167.856306 -233.568705 
L 167.808261 -232.597778 
L 167.827597 -231.626852 
L 167.914724 -230.655925 
L 168.064428 -229.684998 
L 168.266072 -228.714072 
L 168.504193 -227.743145 
L 168.759457 -226.772219 
L 169.009922 -225.801292 
L 169.232516 -224.830366 
L 169.404626 -223.859439 
L 169.505655 -222.888512 
L 169.518438 -221.917586 
L 169.430362 -220.946659 
L 169.234124 -219.975733 
L 168.928034 -219.004806 
L 168.515863 -218.033879 
L 168.006251 -217.062953 
L 167.411765 -216.092026 
L 166.747698 -215.1211 
L 166.030751 -214.150173 
L 165.277736 -213.179247 
L 164.504411 -212.20832 
L 163.724562 -211.237393 
L 162.949384 -210.266467 
L 162.187183 -209.29554 
L 161.443389 -208.324614 
L 160.720838 -207.353687 
L 160.020232 -206.382761 
L 159.340733 -205.411834 
L 158.680588 -204.440907 
L 158.037716 -203.469981 
L 157.410231 -202.499054 
L 156.79683 -201.528128 
L 156.197058 -200.557201 
L 155.611427 -199.586274 
L 155.041411 -198.615348 
L 154.489335 -197.644421 
L 153.95817 -196.673495 
L 153.451274 -195.702568 
L 152.972106 -194.731642 
L 152.523925 -193.760715 
L 152.109518 -192.789788 
L 151.730961 -191.818862 
L 151.389449 -190.847935 
L 151.085189 -189.877009 
L 150.817376 -188.906082 
L 150.584244 -187.935156 
L 150.383188 -186.964229 
L 150.210947 -185.993302 
L 150.063821 -185.022376 
L 149.937912 -184.051449 
L 149.829356 -183.080523 
L 149.734538 -182.109596 
z
" style="stroke: #000000; stroke-opacity: 0.7"/>
    </defs>
    <g clip-path="url(#pf26ce85750)">
     <use xlink:href="#m724f9c9d0d" x="0" y="319.99727" style="fill: #7f7f7f; fill-opacity: 0.7; stroke: #000000; stroke-opacity: 0.7"/>
    </g>
   </g>
   <g id="PolyCollection_3">
    <defs>
     <path id="m84c5452c72" d="M 212.531937 -146.552494 
L 209.124938 -146.552494 
L 208.888206 -147.482015 
L 208.627101 -148.411535 
L 208.340547 -149.341055 
L 208.027793 -150.270576 
L 207.688509 -151.200096 
L 207.322863 -152.129616 
L 206.93159 -153.059137 
L 206.516044 -153.988657 
L 206.078224 -154.918177 
L 205.620779 -155.847698 
L 205.146985 -156.777218 
L 204.660695 -157.706738 
L 204.166257 -158.636259 
L 203.668413 -159.565779 
L 203.172176 -160.495299 
L 202.682678 -161.42482 
L 202.205015 -162.35434 
L 201.744081 -163.28386 
L 201.304392 -164.21338 
L 200.889921 -165.142901 
L 200.503946 -166.072421 
L 200.1489 -167.001941 
L 199.826255 -167.931462 
L 199.53643 -168.860982 
L 199.278716 -169.790502 
L 199.051253 -170.720023 
L 198.851027 -171.649543 
L 198.673912 -172.579063 
L 198.514756 -173.508584 
L 198.367511 -174.438104 
L 198.225411 -175.367624 
L 198.081196 -176.297145 
L 197.927388 -177.226665 
L 197.756605 -178.156185 
L 197.561906 -179.085706 
L 197.337151 -180.015226 
L 197.07736 -180.944746 
L 196.779039 -181.874267 
L 196.440463 -182.803787 
L 196.061865 -183.733307 
L 195.645548 -184.662828 
L 195.195868 -185.592348 
L 194.719107 -186.521868 
L 194.223227 -187.451389 
L 193.717521 -188.380909 
L 193.212189 -189.310429 
L 192.717858 -190.23995 
L 192.245086 -191.16947 
L 191.803888 -192.09899 
L 191.403313 -193.028511 
L 191.051098 -193.958031 
L 190.753428 -194.887551 
L 190.514806 -195.817071 
L 190.338037 -196.746592 
L 190.224324 -197.676112 
L 190.173438 -198.605632 
L 190.183968 -199.535153 
L 190.2536 -200.464673 
L 190.379394 -201.394193 
L 190.55805 -202.323714 
L 190.786118 -203.253234 
L 191.060147 -204.182754 
L 191.376757 -205.112275 
L 191.732648 -206.041795 
L 192.124543 -206.971315 
L 192.549097 -207.900836 
L 193.00278 -208.830356 
L 193.48178 -209.759876 
L 193.981933 -210.689397 
L 194.498711 -211.618917 
L 195.027272 -212.548437 
L 195.562576 -213.477958 
L 196.09956 -214.407478 
L 196.633357 -215.336998 
L 197.159531 -216.266519 
L 197.674308 -217.196039 
L 198.174769 -218.125559 
L 198.658991 -219.05508 
L 199.126119 -219.9846 
L 199.576354 -220.91412 
L 200.010871 -221.843641 
L 200.431663 -222.773161 
L 200.841333 -223.702681 
L 201.242861 -224.632202 
L 201.639352 -225.561722 
L 202.033793 -226.491242 
L 202.428844 -227.420763 
L 202.826658 -228.350283 
L 203.228755 -229.279803 
L 203.635947 -230.209323 
L 204.048305 -231.138844 
L 204.465179 -232.068364 
L 204.885253 -232.997884 
L 205.306624 -233.927405 
L 205.726916 -234.856925 
L 206.143397 -235.786445 
L 206.553111 -236.715966 
L 206.953005 -237.645486 
L 207.340059 -238.575006 
L 214.316816 -238.575006 
L 214.316816 -238.575006 
L 214.70387 -237.645486 
L 215.103764 -236.715966 
L 215.513478 -235.786445 
L 215.929959 -234.856925 
L 216.350251 -233.927405 
L 216.771622 -232.997884 
L 217.191696 -232.068364 
L 217.60857 -231.138844 
L 218.020928 -230.209323 
L 218.42812 -229.279803 
L 218.830217 -228.350283 
L 219.228031 -227.420763 
L 219.623082 -226.491242 
L 220.017523 -225.561722 
L 220.414014 -224.632202 
L 220.815542 -223.702681 
L 221.225212 -222.773161 
L 221.646004 -221.843641 
L 222.080521 -220.91412 
L 222.530756 -219.9846 
L 222.997884 -219.05508 
L 223.482106 -218.125559 
L 223.982567 -217.196039 
L 224.497344 -216.266519 
L 225.023518 -215.336998 
L 225.557315 -214.407478 
L 226.094299 -213.477958 
L 226.629603 -212.548437 
L 227.158164 -211.618917 
L 227.674942 -210.689397 
L 228.175095 -209.759876 
L 228.654095 -208.830356 
L 229.107778 -207.900836 
L 229.532332 -206.971315 
L 229.924227 -206.041795 
L 230.280118 -205.112275 
L 230.596728 -204.182754 
L 230.870757 -203.253234 
L 231.098825 -202.323714 
L 231.277481 -201.394193 
L 231.403275 -200.464673 
L 231.472907 -199.535153 
L 231.483438 -198.605632 
L 231.432551 -197.676112 
L 231.318838 -196.746592 
L 231.142069 -195.817071 
L 230.903447 -194.887551 
L 230.605777 -193.958031 
L 230.253562 -193.028511 
L 229.852987 -192.09899 
L 229.411789 -191.16947 
L 228.939017 -190.23995 
L 228.444686 -189.310429 
L 227.939354 -188.380909 
L 227.433648 -187.451389 
L 226.937768 -186.521868 
L 226.461007 -185.592348 
L 226.011327 -184.662828 
L 225.59501 -183.733307 
L 225.216412 -182.803787 
L 224.877836 -181.874267 
L 224.579515 -180.944746 
L 224.319724 -180.015226 
L 224.094969 -179.085706 
L 223.90027 -178.156185 
L 223.729487 -177.226665 
L 223.575679 -176.297145 
L 223.431464 -175.367624 
L 223.289364 -174.438104 
L 223.142119 -173.508584 
L 222.982963 -172.579063 
L 222.805848 -171.649543 
L 222.605622 -170.720023 
L 222.378159 -169.790502 
L 222.120445 -168.860982 
L 221.83062 -167.931462 
L 221.507975 -167.001941 
L 221.152929 -166.072421 
L 220.766954 -165.142901 
L 220.352483 -164.21338 
L 219.912794 -163.28386 
L 219.45186 -162.35434 
L 218.974197 -161.42482 
L 218.484699 -160.495299 
L 217.988462 -159.565779 
L 217.490618 -158.636259 
L 216.99618 -157.706738 
L 216.50989 -156.777218 
L 216.036096 -155.847698 
L 215.578651 -154.918177 
L 215.140831 -153.988657 
L 214.725285 -153.059137 
L 214.334012 -152.129616 
L 213.968366 -151.200096 
L 213.629082 -150.270576 
L 213.316328 -149.341055 
L 213.029774 -148.411535 
L 212.768669 -147.482015 
L 212.531937 -146.552494 
z
" style="stroke: #000000; stroke-opacity: 0.7"/>
    </defs>
    <g clip-path="url(#pf26ce85750)">
     <use xlink:href="#m84c5452c72" x="0" y="319.99727" style="fill: #e377c2; fill-opacity: 0.7; stroke: #000000; stroke-opacity: 0.7"/>
    </g>
   </g>
   <g id="PolyCollection_4">
    <defs>
     <path id="md9492a43f7" d="M 273.962422 -138.438025 
L 271.624453 -138.438025 
L 271.511789 -139.743903 
L 271.406787 -141.04978 
L 271.313042 -142.355658 
L 271.233927 -143.661536 
L 271.172306 -144.967413 
L 271.130238 -146.273291 
L 271.108708 -147.579169 
L 271.107415 -148.885047 
L 271.124656 -150.190924 
L 271.157338 -151.496802 
L 271.201115 -152.80268 
L 271.250665 -154.108558 
L 271.300059 -155.414435 
L 271.343203 -156.720313 
L 271.374277 -158.026191 
L 271.388126 -159.332069 
L 271.380549 -160.637946 
L 271.348443 -161.943824 
L 271.289785 -163.249702 
L 271.203457 -164.55558 
L 271.088949 -165.861457 
L 270.945986 -167.167335 
L 270.774142 -168.473213 
L 270.572517 -169.779091 
L 270.339531 -171.084968 
L 270.072876 -172.390846 
L 269.769653 -173.696724 
L 269.426669 -175.002602 
L 269.040853 -176.308479 
L 268.609726 -177.614357 
L 268.131838 -178.920235 
L 267.607093 -180.226113 
L 267.036903 -181.53199 
L 266.424129 -182.837868 
L 265.772824 -184.143746 
L 265.087824 -185.449624 
L 264.374265 -186.755501 
L 263.637131 -188.061379 
L 262.880929 -189.367257 
L 262.10957 -190.673135 
L 261.326497 -191.979012 
L 260.535032 -193.28489 
L 259.738878 -194.590768 
L 258.942674 -195.896646 
L 258.152453 -197.202523 
L 257.375893 -198.508401 
L 256.62226 -199.814279 
L 255.902026 -201.120156 
L 255.226164 -202.426034 
L 254.605253 -203.731912 
L 254.048506 -205.03779 
L 253.562887 -206.343667 
L 253.15248 -207.649545 
L 252.818193 -208.955423 
L 252.557861 -210.261301 
L 252.366712 -211.567178 
L 252.238127 -212.873056 
L 252.16455 -214.178934 
L 252.138438 -215.484812 
L 252.153092 -216.790689 
L 252.203299 -218.096567 
L 252.285717 -219.402445 
L 252.398995 -220.708323 
L 252.543664 -222.0142 
L 252.721847 -223.320078 
L 252.93684 -224.625956 
L 253.192634 -225.931834 
L 253.493411 -227.237711 
L 253.843064 -228.543589 
L 254.244747 -229.849467 
L 254.70048 -231.155345 
L 255.210834 -232.461222 
L 255.774699 -233.7671 
L 256.389161 -235.072978 
L 257.0495 -236.378856 
L 257.749327 -237.684733 
L 258.480839 -238.990611 
L 259.235198 -240.296489 
L 260.002987 -241.602367 
L 260.774711 -242.908244 
L 261.541292 -244.214122 
L 262.294512 -245.52 
L 263.027365 -246.825878 
L 263.734281 -248.131755 
L 264.411225 -249.437633 
L 265.055652 -250.743511 
L 265.666365 -252.049389 
L 266.243281 -253.355266 
L 266.787163 -254.661144 
L 267.29933 -255.967022 
L 267.781404 -257.272899 
L 268.235093 -258.578777 
L 268.662026 -259.884655 
L 269.063653 -261.190533 
L 269.441189 -262.49641 
L 269.795595 -263.802288 
L 270.127589 -265.108166 
L 270.437674 -266.414044 
L 270.726176 -267.719921 
L 274.860699 -267.719921 
L 274.860699 -267.719921 
L 275.149201 -266.414044 
L 275.459286 -265.108166 
L 275.79128 -263.802288 
L 276.145686 -262.49641 
L 276.523222 -261.190533 
L 276.924849 -259.884655 
L 277.351782 -258.578777 
L 277.805471 -257.272899 
L 278.287545 -255.967022 
L 278.799712 -254.661144 
L 279.343594 -253.355266 
L 279.92051 -252.049389 
L 280.531223 -250.743511 
L 281.17565 -249.437633 
L 281.852594 -248.131755 
L 282.55951 -246.825878 
L 283.292363 -245.52 
L 284.045583 -244.214122 
L 284.812164 -242.908244 
L 285.583888 -241.602367 
L 286.351677 -240.296489 
L 287.106036 -238.990611 
L 287.837548 -237.684733 
L 288.537375 -236.378856 
L 289.197714 -235.072978 
L 289.812176 -233.7671 
L 290.376041 -232.461222 
L 290.886395 -231.155345 
L 291.342128 -229.849467 
L 291.743811 -228.543589 
L 292.093464 -227.237711 
L 292.394241 -225.931834 
L 292.650035 -224.625956 
L 292.865028 -223.320078 
L 293.043211 -222.0142 
L 293.18788 -220.708323 
L 293.301158 -219.402445 
L 293.383576 -218.096567 
L 293.433783 -216.790689 
L 293.448438 -215.484812 
L 293.422325 -214.178934 
L 293.348748 -212.873056 
L 293.220163 -211.567178 
L 293.029014 -210.261301 
L 292.768682 -208.955423 
L 292.434395 -207.649545 
L 292.023988 -206.343667 
L 291.538369 -205.03779 
L 290.981622 -203.731912 
L 290.360711 -202.426034 
L 289.684849 -201.120156 
L 288.964615 -199.814279 
L 288.210982 -198.508401 
L 287.434422 -197.202523 
L 286.644201 -195.896646 
L 285.847997 -194.590768 
L 285.051843 -193.28489 
L 284.260378 -191.979012 
L 283.477305 -190.673135 
L 282.705946 -189.367257 
L 281.949744 -188.061379 
L 281.21261 -186.755501 
L 280.499051 -185.449624 
L 279.814051 -184.143746 
L 279.162746 -182.837868 
L 278.549972 -181.53199 
L 277.979782 -180.226113 
L 277.455037 -178.920235 
L 276.977149 -177.614357 
L 276.546022 -176.308479 
L 276.160206 -175.002602 
L 275.817222 -173.696724 
L 275.513999 -172.390846 
L 275.247344 -171.084968 
L 275.014358 -169.779091 
L 274.812733 -168.473213 
L 274.640889 -167.167335 
L 274.497926 -165.861457 
L 274.383418 -164.55558 
L 274.29709 -163.249702 
L 274.238432 -161.943824 
L 274.206326 -160.637946 
L 274.198749 -159.332069 
L 274.212598 -158.026191 
L 274.243672 -156.720313 
L 274.286816 -155.414435 
L 274.33621 -154.108558 
L 274.38576 -152.80268 
L 274.429537 -151.496802 
L 274.462219 -150.190924 
L 274.47946 -148.885047 
L 274.478167 -147.579169 
L 274.456637 -146.273291 
L 274.414569 -144.967413 
L 274.352948 -143.661536 
L 274.273833 -142.355658 
L 274.180088 -141.04978 
L 274.075086 -139.743903 
L 273.962422 -138.438025 
z
" style="stroke: #000000; stroke-opacity: 0.7"/>
    </defs>
    <g clip-path="url(#pf26ce85750)">
     <use xlink:href="#md9492a43f7" x="0" y="319.99727" style="fill: #9edae5; fill-opacity: 0.7; stroke: #000000; stroke-opacity: 0.7"/>
    </g>
   </g>
   <g id="PolyCollection_5">
    <defs>
     <path id="m5ed663993f" d="M 336.63103 -84.23978 
L 332.885845 -84.23978 
L 332.756785 -85.573956 
L 332.628865 -86.908132 
L 332.501231 -88.242308 
L 332.372484 -89.576484 
L 332.24071 -90.91066 
L 332.10354 -92.244836 
L 331.958252 -93.579012 
L 331.801901 -94.913187 
L 331.631482 -96.247363 
L 331.444107 -97.581539 
L 331.237196 -98.915715 
L 331.008667 -100.249891 
L 330.757104 -101.584067 
L 330.481906 -102.918243 
L 330.18338 -104.252419 
L 329.862791 -105.586594 
L 329.522332 -106.92077 
L 329.165043 -108.254946 
L 328.794641 -109.589122 
L 328.415307 -110.923298 
L 328.031406 -112.257474 
L 327.647195 -113.59165 
L 327.266506 -114.925826 
L 326.892459 -116.260001 
L 326.52721 -117.594177 
L 326.171768 -118.928353 
L 325.825898 -120.262529 
L 325.488118 -121.596705 
L 325.155796 -122.930881 
L 324.825348 -124.265057 
L 324.492512 -125.599233 
L 324.152694 -126.933408 
L 323.801338 -128.267584 
L 323.434313 -129.60176 
L 323.048272 -130.935936 
L 322.640954 -132.270112 
L 322.211408 -133.604288 
L 321.760123 -134.938464 
L 321.289048 -136.27264 
L 320.801504 -137.606815 
L 320.301996 -138.940991 
L 319.795941 -140.275167 
L 319.289336 -141.609343 
L 318.788402 -142.943519 
L 318.299217 -144.277695 
L 317.827389 -145.611871 
L 317.377782 -146.946047 
L 316.954323 -148.280222 
L 316.559895 -149.614398 
L 316.196322 -150.948574 
L 315.864453 -152.28275 
L 315.564299 -153.616926 
L 315.295239 -154.951102 
L 315.05624 -156.285278 
L 314.846081 -157.619454 
L 314.663552 -158.953629 
L 314.507605 -160.287805 
L 314.377451 -161.621981 
L 314.27259 -162.956157 
L 314.192788 -164.290333 
L 314.137991 -165.624509 
L 314.108219 -166.958685 
L 314.103438 -168.292861 
L 314.123432 -169.627036 
L 314.167714 -170.961212 
L 314.235455 -172.295388 
L 314.325479 -173.629564 
L 314.436301 -174.96374 
L 314.566217 -176.297916 
L 314.713439 -177.632092 
L 314.876258 -178.966267 
L 315.053218 -180.300443 
L 315.243297 -181.634619 
L 315.446057 -182.968795 
L 315.661764 -184.302971 
L 315.891458 -185.637147 
L 316.136961 -186.971323 
L 316.400829 -188.305499 
L 316.686238 -189.639674 
L 316.996812 -190.97385 
L 317.336412 -192.308026 
L 317.708886 -193.642202 
L 318.117807 -194.976378 
L 318.566212 -196.310554 
L 319.056355 -197.64473 
L 319.589503 -198.978906 
L 320.165765 -200.313081 
L 320.783992 -201.647257 
L 321.441723 -202.981433 
L 322.135211 -204.315609 
L 322.859497 -205.649785 
L 323.608548 -206.983961 
L 324.37544 -208.318137 
L 325.152585 -209.652313 
L 325.931982 -210.986488 
L 326.705482 -212.320664 
L 327.46506 -213.65484 
L 328.203073 -214.989016 
L 328.912496 -216.323192 
L 340.604379 -216.323192 
L 340.604379 -216.323192 
L 341.313802 -214.989016 
L 342.051815 -213.65484 
L 342.811393 -212.320664 
L 343.584893 -210.986488 
L 344.36429 -209.652313 
L 345.141435 -208.318137 
L 345.908327 -206.983961 
L 346.657378 -205.649785 
L 347.381664 -204.315609 
L 348.075152 -202.981433 
L 348.732883 -201.647257 
L 349.35111 -200.313081 
L 349.927372 -198.978906 
L 350.46052 -197.64473 
L 350.950663 -196.310554 
L 351.399068 -194.976378 
L 351.807989 -193.642202 
L 352.180463 -192.308026 
L 352.520063 -190.97385 
L 352.830637 -189.639674 
L 353.116046 -188.305499 
L 353.379914 -186.971323 
L 353.625417 -185.637147 
L 353.855111 -184.302971 
L 354.070818 -182.968795 
L 354.273578 -181.634619 
L 354.463657 -180.300443 
L 354.640617 -178.966267 
L 354.803436 -177.632092 
L 354.950658 -176.297916 
L 355.080574 -174.96374 
L 355.191396 -173.629564 
L 355.28142 -172.295388 
L 355.349161 -170.961212 
L 355.393443 -169.627036 
L 355.413438 -168.292861 
L 355.408656 -166.958685 
L 355.378884 -165.624509 
L 355.324087 -164.290333 
L 355.244285 -162.956157 
L 355.139424 -161.621981 
L 355.00927 -160.287805 
L 354.853323 -158.953629 
L 354.670794 -157.619454 
L 354.460635 -156.285278 
L 354.221636 -154.951102 
L 353.952576 -153.616926 
L 353.652422 -152.28275 
L 353.320553 -150.948574 
L 352.95698 -149.614398 
L 352.562552 -148.280222 
L 352.139093 -146.946047 
L 351.689486 -145.611871 
L 351.217658 -144.277695 
L 350.728473 -142.943519 
L 350.227539 -141.609343 
L 349.720934 -140.275167 
L 349.214879 -138.940991 
L 348.715371 -137.606815 
L 348.227827 -136.27264 
L 347.756752 -134.938464 
L 347.305467 -133.604288 
L 346.875921 -132.270112 
L 346.468603 -130.935936 
L 346.082562 -129.60176 
L 345.715537 -128.267584 
L 345.364181 -126.933408 
L 345.024363 -125.599233 
L 344.691527 -124.265057 
L 344.361079 -122.930881 
L 344.028757 -121.596705 
L 343.690977 -120.262529 
L 343.345107 -118.928353 
L 342.989665 -117.594177 
L 342.624416 -116.260001 
L 342.250369 -114.925826 
L 341.86968 -113.59165 
L 341.485469 -112.257474 
L 341.101568 -110.923298 
L 340.722234 -109.589122 
L 340.351832 -108.254946 
L 339.994543 -106.92077 
L 339.654084 -105.586594 
L 339.333495 -104.252419 
L 339.034969 -102.918243 
L 338.759771 -101.584067 
L 338.508208 -100.249891 
L 338.279679 -98.915715 
L 338.072768 -97.581539 
L 337.885393 -96.247363 
L 337.714974 -94.913187 
L 337.558623 -93.579012 
L 337.413335 -92.244836 
L 337.276165 -90.91066 
L 337.144391 -89.576484 
L 337.015644 -88.242308 
L 336.88801 -86.908132 
L 336.76009 -85.573956 
L 336.63103 -84.23978 
z
" style="stroke: #000000; stroke-opacity: 0.7"/>
    </defs>
    <g clip-path="url(#pf26ce85750)">
     <use xlink:href="#m5ed663993f" x="0" y="319.99727" style="fill: #d62728; fill-opacity: 0.7; stroke: #000000; stroke-opacity: 0.7"/>
    </g>
   </g>
   <g id="PolyCollection_6">
    <defs>
     <path id="m20ead3b8c0" d="M 397.366661 -62.407812 
L 396.080214 -62.407812 
L 396.029016 -63.183427 
L 395.973535 -63.959043 
L 395.911796 -64.734658 
L 395.841715 -65.510274 
L 395.761281 -66.285889 
L 395.668751 -67.061505 
L 395.562814 -67.83712 
L 395.442725 -68.612736 
L 395.308359 -69.388351 
L 395.160217 -70.163967 
L 394.999336 -70.939582 
L 394.827156 -71.715198 
L 394.645325 -72.490813 
L 394.455487 -73.266429 
L 394.259069 -74.042044 
L 394.057084 -74.81766 
L 393.849983 -75.593275 
L 393.637565 -76.368891 
L 393.41895 -77.144506 
L 393.192617 -77.920122 
L 392.956517 -78.695737 
L 392.708229 -79.471353 
L 392.445166 -80.246968 
L 392.164805 -81.022584 
L 391.864925 -81.798199 
L 391.543832 -82.573815 
L 391.200554 -83.34943 
L 390.834976 -84.125046 
L 390.447912 -84.900661 
L 390.041095 -85.676277 
L 389.617077 -86.451892 
L 389.179051 -87.227508 
L 388.730598 -88.003123 
L 388.275384 -88.778739 
L 387.81684 -89.554354 
L 387.357839 -90.32997 
L 386.900419 -91.105585 
L 386.445581 -91.881201 
L 385.993183 -92.656816 
L 385.541953 -93.432432 
L 385.089632 -94.208047 
L 384.633252 -94.983663 
L 384.169515 -95.759278 
L 383.695253 -96.534894 
L 383.20792 -97.310509 
L 382.706052 -98.086125 
L 382.189651 -98.86174 
L 381.660419 -99.637356 
L 381.121819 -100.412971 
L 380.578939 -101.188587 
L 380.038174 -101.964202 
L 379.506783 -102.739818 
L 378.992364 -103.515433 
L 378.502352 -104.291049 
L 378.043599 -105.066664 
L 377.622119 -105.84228 
L 377.243 -106.617895 
L 376.910499 -107.393511 
L 376.628272 -108.169126 
L 376.399648 -108.944742 
L 376.227893 -109.720358 
L 376.116353 -110.495973 
L 376.068438 -111.271589 
L 376.087423 -112.047204 
L 376.176086 -112.82282 
L 376.336237 -113.598435 
L 376.568246 -114.374051 
L 376.870647 -115.149666 
L 377.239919 -115.925282 
L 377.670504 -116.700897 
L 378.155081 -117.476513 
L 378.685062 -118.252128 
L 379.251268 -119.027744 
L 379.844661 -119.803359 
L 380.457049 -120.578975 
L 381.081635 -121.35459 
L 381.713366 -122.130206 
L 382.349004 -122.905821 
L 382.986951 -123.681437 
L 383.626846 -124.457052 
L 384.269023 -125.232668 
L 384.913922 -126.008283 
L 385.561536 -126.783899 
L 386.210997 -127.559514 
L 386.860339 -128.33513 
L 387.506469 -129.110745 
L 388.145345 -129.886361 
L 388.772304 -130.661976 
L 389.382485 -131.437592 
L 389.971283 -132.213207 
L 390.534753 -132.988823 
L 391.069913 -133.764438 
L 391.574913 -134.540054 
L 392.049051 -135.315669 
L 392.492661 -136.091285 
L 392.906879 -136.8669 
L 393.293363 -137.642516 
L 393.653981 -138.418131 
L 393.990541 -139.193747 
L 399.456334 -139.193747 
L 399.456334 -139.193747 
L 399.792894 -138.418131 
L 400.153512 -137.642516 
L 400.539996 -136.8669 
L 400.954214 -136.091285 
L 401.397824 -135.315669 
L 401.871962 -134.540054 
L 402.376962 -133.764438 
L 402.912122 -132.988823 
L 403.475592 -132.213207 
L 404.06439 -131.437592 
L 404.674571 -130.661976 
L 405.30153 -129.886361 
L 405.940406 -129.110745 
L 406.586536 -128.33513 
L 407.235878 -127.559514 
L 407.885339 -126.783899 
L 408.532953 -126.008283 
L 409.177852 -125.232668 
L 409.820029 -124.457052 
L 410.459924 -123.681437 
L 411.097871 -122.905821 
L 411.733509 -122.130206 
L 412.36524 -121.35459 
L 412.989826 -120.578975 
L 413.602214 -119.803359 
L 414.195607 -119.027744 
L 414.761813 -118.252128 
L 415.291794 -117.476513 
L 415.776371 -116.700897 
L 416.206956 -115.925282 
L 416.576228 -115.149666 
L 416.878629 -114.374051 
L 417.110638 -113.598435 
L 417.270789 -112.82282 
L 417.359452 -112.047204 
L 417.378438 -111.271589 
L 417.330522 -110.495973 
L 417.218982 -109.720358 
L 417.047227 -108.944742 
L 416.818603 -108.169126 
L 416.536376 -107.393511 
L 416.203875 -106.617895 
L 415.824756 -105.84228 
L 415.403276 -105.066664 
L 414.944523 -104.291049 
L 414.454511 -103.515433 
L 413.940092 -102.739818 
L 413.408701 -101.964202 
L 412.867936 -101.188587 
L 412.325056 -100.412971 
L 411.786456 -99.637356 
L 411.257224 -98.86174 
L 410.740823 -98.086125 
L 410.238955 -97.310509 
L 409.751622 -96.534894 
L 409.27736 -95.759278 
L 408.813623 -94.983663 
L 408.357243 -94.208047 
L 407.904922 -93.432432 
L 407.453692 -92.656816 
L 407.001294 -91.881201 
L 406.546456 -91.105585 
L 406.089036 -90.32997 
L 405.630035 -89.554354 
L 405.171491 -88.778739 
L 404.716277 -88.003123 
L 404.267824 -87.227508 
L 403.829798 -86.451892 
L 403.40578 -85.676277 
L 402.998963 -84.900661 
L 402.611899 -84.125046 
L 402.246321 -83.34943 
L 401.903043 -82.573815 
L 401.58195 -81.798199 
L 401.28207 -81.022584 
L 401.001709 -80.246968 
L 400.738646 -79.471353 
L 400.490358 -78.695737 
L 400.254258 -77.920122 
L 400.027925 -77.144506 
L 399.80931 -76.368891 
L 399.596892 -75.593275 
L 399.389791 -74.81766 
L 399.187806 -74.042044 
L 398.991388 -73.266429 
L 398.80155 -72.490813 
L 398.619719 -71.715198 
L 398.447539 -70.939582 
L 398.286658 -70.163967 
L 398.138516 -69.388351 
L 398.00415 -68.612736 
L 397.884061 -67.83712 
L 397.778124 -67.061505 
L 397.685594 -66.285889 
L 397.60516 -65.510274 
L 397.535079 -64.734658 
L 397.47334 -63.959043 
L 397.417859 -63.183427 
L 397.366661 -62.407812 
z
" style="stroke: #000000; stroke-opacity: 0.7"/>
    </defs>
    <g clip-path="url(#pf26ce85750)">
     <use xlink:href="#m20ead3b8c0" x="0" y="319.99727" style="fill: #ff7f0e; fill-opacity: 0.7; stroke: #000000; stroke-opacity: 0.7"/>
    </g>
   </g>
   <g id="matplotlib.axis_1">
    <g id="xtick_1">
     <g id="line2d_1">
      <defs>
       <path id="m5528426104" d="M 0 0 
L 0 3.5 
" style="stroke: #000000; stroke-width: 0.8"/>
      </defs>
      <g>
       <use xlink:href="#m5528426104" x="86.898438" y="268.424909" style="stroke: #000000; stroke-width: 0.8"/>
      </g>
     </g>
     <g id="text_1">
      <!-- Vizzle -->
      <g transform="translate(63.449893 302.950366) rotate(-45) scale(0.12 -0.12)">
       <defs>
        <path id="TimesNewRomanPSMT-56" d="M 4544 4238 
L 4544 4122 
Q 4319 4081 4203 3978 
Q 4038 3825 3909 3509 
L 2431 -97 
L 2316 -97 
L 728 3556 
Q 606 3838 556 3900 
Q 478 3997 364 4051 
Q 250 4106 56 4122 
L 56 4238 
L 1788 4238 
L 1788 4122 
Q 1494 4094 1406 4022 
Q 1319 3950 1319 3838 
Q 1319 3681 1463 3350 
L 2541 866 
L 3541 3319 
Q 3688 3681 3688 3822 
Q 3688 3913 3597 3995 
Q 3506 4078 3291 4113 
Q 3275 4116 3238 4122 
L 3238 4238 
L 4544 4238 
z
" transform="scale(0.015625)"/>
        <path id="TimesNewRomanPSMT-69" d="M 928 4444 
Q 1059 4444 1151 4351 
Q 1244 4259 1244 4128 
Q 1244 3997 1151 3903 
Q 1059 3809 928 3809 
Q 797 3809 703 3903 
Q 609 3997 609 4128 
Q 609 4259 701 4351 
Q 794 4444 928 4444 
z
M 1188 2947 
L 1188 647 
Q 1188 378 1227 289 
Q 1266 200 1342 156 
Q 1419 113 1622 113 
L 1622 0 
L 231 0 
L 231 113 
Q 441 113 512 153 
Q 584 194 626 287 
Q 669 381 669 647 
L 669 1750 
Q 669 2216 641 2353 
Q 619 2453 572 2492 
Q 525 2531 444 2531 
Q 356 2531 231 2484 
L 188 2597 
L 1050 2947 
L 1188 2947 
z
" transform="scale(0.015625)"/>
        <path id="TimesNewRomanPSMT-7a" d="M 2688 878 
L 2653 0 
L 128 0 
L 128 113 
L 2028 2644 
L 1091 2644 
Q 788 2644 694 2605 
Q 600 2566 541 2456 
Q 456 2300 444 2069 
L 319 2069 
L 338 2863 
L 2738 2863 
L 2738 2747 
L 819 209 
L 1863 209 
Q 2191 209 2308 264 
Q 2425 319 2497 456 
Q 2547 556 2581 878 
L 2688 878 
z
" transform="scale(0.015625)"/>
        <path id="TimesNewRomanPSMT-6c" d="M 1184 4444 
L 1184 647 
Q 1184 378 1223 290 
Q 1263 203 1344 158 
Q 1425 113 1647 113 
L 1647 0 
L 244 0 
L 244 113 
Q 441 113 512 153 
Q 584 194 625 287 
Q 666 381 666 647 
L 666 3247 
Q 666 3731 644 3842 
Q 622 3953 573 3993 
Q 525 4034 450 4034 
Q 369 4034 244 3984 
L 191 4094 
L 1044 4444 
L 1184 4444 
z
" transform="scale(0.015625)"/>
        <path id="TimesNewRomanPSMT-65" d="M 681 1784 
Q 678 1147 991 784 
Q 1303 422 1725 422 
Q 2006 422 2214 576 
Q 2422 731 2563 1106 
L 2659 1044 
Q 2594 616 2278 264 
Q 1963 -88 1488 -88 
Q 972 -88 605 314 
Q 238 716 238 1394 
Q 238 2128 614 2539 
Q 991 2950 1559 2950 
Q 2041 2950 2350 2633 
Q 2659 2316 2659 1784 
L 681 1784 
z
M 681 1966 
L 2006 1966 
Q 1991 2241 1941 2353 
Q 1863 2528 1708 2628 
Q 1553 2728 1384 2728 
Q 1125 2728 920 2526 
Q 716 2325 681 1966 
z
" transform="scale(0.015625)"/>
       </defs>
       <use xlink:href="#TimesNewRomanPSMT-56"/>
       <use xlink:href="#TimesNewRomanPSMT-69" x="66.216797"/>
       <use xlink:href="#TimesNewRomanPSMT-7a" x="94"/>
       <use xlink:href="#TimesNewRomanPSMT-7a" x="138.384766"/>
       <use xlink:href="#TimesNewRomanPSMT-6c" x="182.769531"/>
       <use xlink:href="#TimesNewRomanPSMT-65" x="210.552734"/>
      </g>
     </g>
    </g>
    <g id="xtick_2">
     <g id="line2d_2">
      <g>
       <use xlink:href="#m5528426104" x="148.863438" y="268.424909" style="stroke: #000000; stroke-width: 0.8"/>
      </g>
     </g>
     <g id="text_2">
      <!-- Reelix -->
      <g transform="translate(124.897821 303.467438) rotate(-45) scale(0.12 -0.12)">
       <defs>
        <path id="TimesNewRomanPSMT-52" d="M 4325 0 
L 3194 0 
L 1759 1981 
Q 1600 1975 1500 1975 
Q 1459 1975 1412 1976 
Q 1366 1978 1316 1981 
L 1316 750 
Q 1316 350 1403 253 
Q 1522 116 1759 116 
L 1925 116 
L 1925 0 
L 109 0 
L 109 116 
L 269 116 
Q 538 116 653 291 
Q 719 388 719 750 
L 719 3488 
Q 719 3888 631 3984 
Q 509 4122 269 4122 
L 109 4122 
L 109 4238 
L 1653 4238 
Q 2328 4238 2648 4139 
Q 2969 4041 3192 3777 
Q 3416 3513 3416 3147 
Q 3416 2756 3161 2468 
Q 2906 2181 2372 2063 
L 3247 847 
Q 3547 428 3762 290 
Q 3978 153 4325 116 
L 4325 0 
z
M 1316 2178 
Q 1375 2178 1419 2176 
Q 1463 2175 1491 2175 
Q 2097 2175 2405 2437 
Q 2713 2700 2713 3106 
Q 2713 3503 2464 3751 
Q 2216 4000 1806 4000 
Q 1625 4000 1316 3941 
L 1316 2178 
z
" transform="scale(0.015625)"/>
        <path id="TimesNewRomanPSMT-78" d="M 84 2863 
L 1431 2863 
L 1431 2747 
Q 1303 2747 1251 2703 
Q 1200 2659 1200 2588 
Q 1200 2513 1309 2356 
Q 1344 2306 1413 2200 
L 1616 1875 
L 1850 2200 
Q 2075 2509 2075 2591 
Q 2075 2656 2022 2701 
Q 1969 2747 1850 2747 
L 1850 2863 
L 2819 2863 
L 2819 2747 
Q 2666 2738 2553 2663 
Q 2400 2556 2134 2200 
L 1744 1678 
L 2456 653 
Q 2719 275 2831 198 
Q 2944 122 3122 113 
L 3122 0 
L 1772 0 
L 1772 113 
Q 1913 113 1991 175 
Q 2050 219 2050 291 
Q 2050 363 1850 653 
L 1431 1266 
L 972 653 
Q 759 369 759 316 
Q 759 241 829 180 
Q 900 119 1041 113 
L 1041 0 
L 106 0 
L 106 113 
Q 219 128 303 191 
Q 422 281 703 653 
L 1303 1450 
L 759 2238 
Q 528 2575 401 2661 
Q 275 2747 84 2747 
L 84 2863 
z
" transform="scale(0.015625)"/>
       </defs>
       <use xlink:href="#TimesNewRomanPSMT-52"/>
       <use xlink:href="#TimesNewRomanPSMT-65" x="66.699219"/>
       <use xlink:href="#TimesNewRomanPSMT-65" x="111.083984"/>
       <use xlink:href="#TimesNewRomanPSMT-6c" x="155.46875"/>
       <use xlink:href="#TimesNewRomanPSMT-69" x="183.251953"/>
       <use xlink:href="#TimesNewRomanPSMT-78" x="211.035156"/>
      </g>
     </g>
    </g>
    <g id="xtick_3">
     <g id="line2d_3">
      <g>
       <use xlink:href="#m5528426104" x="210.828438" y="268.424909" style="stroke: #000000; stroke-width: 0.8"/>
      </g>
     </g>
     <g id="text_3">
      <!-- Streamo -->
      <g transform="translate(180.736183 309.594077) rotate(-45) scale(0.12 -0.12)">
       <defs>
        <path id="TimesNewRomanPSMT-53" d="M 2934 4334 
L 2934 2869 
L 2819 2869 
Q 2763 3291 2617 3541 
Q 2472 3791 2203 3937 
Q 1934 4084 1647 4084 
Q 1322 4084 1109 3886 
Q 897 3688 897 3434 
Q 897 3241 1031 3081 
Q 1225 2847 1953 2456 
Q 2547 2138 2764 1967 
Q 2981 1797 3098 1565 
Q 3216 1334 3216 1081 
Q 3216 600 2842 251 
Q 2469 -97 1881 -97 
Q 1697 -97 1534 -69 
Q 1438 -53 1133 45 
Q 828 144 747 144 
Q 669 144 623 97 
Q 578 50 556 -97 
L 441 -97 
L 441 1356 
L 556 1356 
Q 638 900 775 673 
Q 913 447 1195 297 
Q 1478 147 1816 147 
Q 2206 147 2432 353 
Q 2659 559 2659 841 
Q 2659 997 2573 1156 
Q 2488 1316 2306 1453 
Q 2184 1547 1640 1851 
Q 1097 2156 867 2337 
Q 638 2519 519 2737 
Q 400 2956 400 3219 
Q 400 3675 750 4004 
Q 1100 4334 1641 4334 
Q 1978 4334 2356 4169 
Q 2531 4091 2603 4091 
Q 2684 4091 2736 4139 
Q 2788 4188 2819 4334 
L 2934 4334 
z
" transform="scale(0.015625)"/>
        <path id="TimesNewRomanPSMT-74" d="M 1031 3803 
L 1031 2863 
L 1700 2863 
L 1700 2644 
L 1031 2644 
L 1031 788 
Q 1031 509 1111 412 
Q 1191 316 1316 316 
Q 1419 316 1516 380 
Q 1613 444 1666 569 
L 1788 569 
Q 1678 263 1478 108 
Q 1278 -47 1066 -47 
Q 922 -47 784 33 
Q 647 113 581 261 
Q 516 409 516 719 
L 516 2644 
L 63 2644 
L 63 2747 
Q 234 2816 414 2980 
Q 594 3144 734 3369 
Q 806 3488 934 3803 
L 1031 3803 
z
" transform="scale(0.015625)"/>
        <path id="TimesNewRomanPSMT-72" d="M 1038 2947 
L 1038 2303 
Q 1397 2947 1775 2947 
Q 1947 2947 2059 2842 
Q 2172 2738 2172 2600 
Q 2172 2478 2090 2393 
Q 2009 2309 1897 2309 
Q 1788 2309 1652 2417 
Q 1516 2525 1450 2525 
Q 1394 2525 1328 2463 
Q 1188 2334 1038 2041 
L 1038 669 
Q 1038 431 1097 309 
Q 1138 225 1241 169 
Q 1344 113 1538 113 
L 1538 0 
L 72 0 
L 72 113 
Q 291 113 397 181 
Q 475 231 506 341 
Q 522 394 522 644 
L 522 1753 
Q 522 2253 501 2348 
Q 481 2444 426 2487 
Q 372 2531 291 2531 
Q 194 2531 72 2484 
L 41 2597 
L 906 2947 
L 1038 2947 
z
" transform="scale(0.015625)"/>
        <path id="TimesNewRomanPSMT-61" d="M 1822 413 
Q 1381 72 1269 19 
Q 1100 -59 909 -59 
Q 613 -59 420 144 
Q 228 347 228 678 
Q 228 888 322 1041 
Q 450 1253 767 1440 
Q 1084 1628 1822 1897 
L 1822 2009 
Q 1822 2438 1686 2597 
Q 1550 2756 1291 2756 
Q 1094 2756 978 2650 
Q 859 2544 859 2406 
L 866 2225 
Q 866 2081 792 2003 
Q 719 1925 600 1925 
Q 484 1925 411 2006 
Q 338 2088 338 2228 
Q 338 2497 613 2722 
Q 888 2947 1384 2947 
Q 1766 2947 2009 2819 
Q 2194 2722 2281 2516 
Q 2338 2381 2338 1966 
L 2338 994 
Q 2338 584 2353 492 
Q 2369 400 2405 369 
Q 2441 338 2488 338 
Q 2538 338 2575 359 
Q 2641 400 2828 588 
L 2828 413 
Q 2478 -56 2159 -56 
Q 2006 -56 1915 50 
Q 1825 156 1822 413 
z
M 1822 616 
L 1822 1706 
Q 1350 1519 1213 1441 
Q 966 1303 859 1153 
Q 753 1003 753 825 
Q 753 600 887 451 
Q 1022 303 1197 303 
Q 1434 303 1822 616 
z
" transform="scale(0.015625)"/>
        <path id="TimesNewRomanPSMT-6d" d="M 1050 2338 
Q 1363 2650 1419 2697 
Q 1559 2816 1721 2881 
Q 1884 2947 2044 2947 
Q 2313 2947 2506 2790 
Q 2700 2634 2766 2338 
Q 3088 2713 3309 2830 
Q 3531 2947 3766 2947 
Q 3994 2947 4170 2830 
Q 4347 2713 4450 2447 
Q 4519 2266 4519 1878 
L 4519 647 
Q 4519 378 4559 278 
Q 4591 209 4675 161 
Q 4759 113 4950 113 
L 4950 0 
L 3538 0 
L 3538 113 
L 3597 113 
Q 3781 113 3884 184 
Q 3956 234 3988 344 
Q 4000 397 4000 647 
L 4000 1878 
Q 4000 2228 3916 2372 
Q 3794 2572 3525 2572 
Q 3359 2572 3192 2489 
Q 3025 2406 2788 2181 
L 2781 2147 
L 2788 2013 
L 2788 647 
Q 2788 353 2820 281 
Q 2853 209 2943 161 
Q 3034 113 3253 113 
L 3253 0 
L 1806 0 
L 1806 113 
Q 2044 113 2133 169 
Q 2222 225 2256 338 
Q 2272 391 2272 647 
L 2272 1878 
Q 2272 2228 2169 2381 
Q 2031 2581 1784 2581 
Q 1616 2581 1450 2491 
Q 1191 2353 1050 2181 
L 1050 647 
Q 1050 366 1089 281 
Q 1128 197 1204 155 
Q 1281 113 1516 113 
L 1516 0 
L 100 0 
L 100 113 
Q 297 113 375 155 
Q 453 197 493 289 
Q 534 381 534 647 
L 534 1741 
Q 534 2213 506 2350 
Q 484 2453 437 2492 
Q 391 2531 309 2531 
Q 222 2531 100 2484 
L 53 2597 
L 916 2947 
L 1050 2947 
L 1050 2338 
z
" transform="scale(0.015625)"/>
        <path id="TimesNewRomanPSMT-6f" d="M 1600 2947 
Q 2250 2947 2644 2453 
Q 2978 2031 2978 1484 
Q 2978 1100 2793 706 
Q 2609 313 2286 112 
Q 1963 -88 1566 -88 
Q 919 -88 538 428 
Q 216 863 216 1403 
Q 216 1797 411 2186 
Q 606 2575 925 2761 
Q 1244 2947 1600 2947 
z
M 1503 2744 
Q 1338 2744 1170 2645 
Q 1003 2547 900 2300 
Q 797 2053 797 1666 
Q 797 1041 1045 587 
Q 1294 134 1700 134 
Q 2003 134 2200 384 
Q 2397 634 2397 1244 
Q 2397 2006 2069 2444 
Q 1847 2744 1503 2744 
z
" transform="scale(0.015625)"/>
       </defs>
       <use xlink:href="#TimesNewRomanPSMT-53"/>
       <use xlink:href="#TimesNewRomanPSMT-74" x="55.615234"/>
       <use xlink:href="#TimesNewRomanPSMT-72" x="83.398438"/>
       <use xlink:href="#TimesNewRomanPSMT-65" x="116.699219"/>
       <use xlink:href="#TimesNewRomanPSMT-61" x="161.083984"/>
       <use xlink:href="#TimesNewRomanPSMT-6d" x="205.46875"/>
       <use xlink:href="#TimesNewRomanPSMT-6f" x="283.251953"/>
      </g>
     </g>
    </g>
    <g id="xtick_4">
     <g id="line2d_4">
      <g>
       <use xlink:href="#m5528426104" x="272.793438" y="268.424909" style="stroke: #000000; stroke-width: 0.8"/>
      </g>
     </g>
     <g id="text_4">
      <!-- Watchit -->
      <g transform="translate(244.799964 307.495295) rotate(-45) scale(0.12 -0.12)">
       <defs>
        <path id="TimesNewRomanPSMT-57" d="M 5991 4238 
L 5991 4122 
Q 5825 4122 5722 4062 
Q 5619 4003 5525 3841 
Q 5463 3731 5328 3319 
L 4147 -97 
L 4022 -97 
L 3056 2613 
L 2097 -97 
L 1984 -97 
L 725 3422 
Q 584 3816 547 3888 
Q 484 4006 376 4064 
Q 269 4122 84 4122 
L 84 4238 
L 1653 4238 
L 1653 4122 
L 1578 4122 
Q 1413 4122 1325 4047 
Q 1238 3972 1238 3866 
Q 1238 3756 1375 3363 
L 2209 984 
L 2913 3006 
L 2788 3363 
L 2688 3647 
Q 2622 3803 2541 3922 
Q 2500 3981 2441 4022 
Q 2363 4078 2284 4103 
Q 2225 4122 2097 4122 
L 2097 4238 
L 3747 4238 
L 3747 4122 
L 3634 4122 
Q 3459 4122 3378 4047 
Q 3297 3972 3297 3844 
Q 3297 3684 3438 3288 
L 4250 984 
L 5056 3319 
Q 5194 3706 5194 3856 
Q 5194 3928 5148 3990 
Q 5103 4053 5034 4078 
Q 4916 4122 4725 4122 
L 4725 4238 
L 5991 4238 
z
" transform="scale(0.015625)"/>
        <path id="TimesNewRomanPSMT-63" d="M 2631 1088 
Q 2516 522 2178 217 
Q 1841 -88 1431 -88 
Q 944 -88 581 321 
Q 219 731 219 1428 
Q 219 2103 620 2525 
Q 1022 2947 1584 2947 
Q 2006 2947 2278 2723 
Q 2550 2500 2550 2259 
Q 2550 2141 2473 2067 
Q 2397 1994 2259 1994 
Q 2075 1994 1981 2113 
Q 1928 2178 1911 2362 
Q 1894 2547 1784 2644 
Q 1675 2738 1481 2738 
Q 1169 2738 978 2506 
Q 725 2200 725 1697 
Q 725 1184 976 792 
Q 1228 400 1656 400 
Q 1963 400 2206 609 
Q 2378 753 2541 1131 
L 2631 1088 
z
" transform="scale(0.015625)"/>
        <path id="TimesNewRomanPSMT-68" d="M 1041 4444 
L 1041 2350 
Q 1388 2731 1591 2839 
Q 1794 2947 1997 2947 
Q 2241 2947 2416 2812 
Q 2591 2678 2675 2391 
Q 2734 2191 2734 1659 
L 2734 647 
Q 2734 375 2778 275 
Q 2809 200 2884 156 
Q 2959 113 3159 113 
L 3159 0 
L 1753 0 
L 1753 113 
L 1819 113 
Q 2019 113 2097 173 
Q 2175 234 2206 353 
Q 2216 403 2216 647 
L 2216 1659 
Q 2216 2128 2167 2275 
Q 2119 2422 2012 2495 
Q 1906 2569 1756 2569 
Q 1603 2569 1437 2487 
Q 1272 2406 1041 2159 
L 1041 647 
Q 1041 353 1073 281 
Q 1106 209 1195 161 
Q 1284 113 1503 113 
L 1503 0 
L 84 0 
L 84 113 
Q 275 113 384 172 
Q 447 203 484 290 
Q 522 378 522 647 
L 522 3238 
Q 522 3728 498 3840 
Q 475 3953 426 3993 
Q 378 4034 297 4034 
Q 231 4034 84 3984 
L 41 4094 
L 897 4444 
L 1041 4444 
z
" transform="scale(0.015625)"/>
       </defs>
       <use xlink:href="#TimesNewRomanPSMT-57"/>
       <use xlink:href="#TimesNewRomanPSMT-61" x="86.384766"/>
       <use xlink:href="#TimesNewRomanPSMT-74" x="130.769531"/>
       <use xlink:href="#TimesNewRomanPSMT-63" x="158.552734"/>
       <use xlink:href="#TimesNewRomanPSMT-68" x="202.9375"/>
       <use xlink:href="#TimesNewRomanPSMT-69" x="252.9375"/>
       <use xlink:href="#TimesNewRomanPSMT-74" x="280.720703"/>
      </g>
     </g>
    </g>
    <g id="xtick_5">
     <g id="line2d_5">
      <g>
       <use xlink:href="#m5528426104" x="334.758438" y="268.424909" style="stroke: #000000; stroke-width: 0.8"/>
      </g>
     </g>
     <g id="text_5">
      <!-- FlowVid -->
      <g transform="translate(303.278044 310.982216) rotate(-45) scale(0.12 -0.12)">
       <defs>
        <path id="TimesNewRomanPSMT-46" d="M 1309 4006 
L 1309 2341 
L 2081 2341 
Q 2347 2341 2470 2458 
Q 2594 2575 2634 2922 
L 2750 2922 
L 2750 1488 
L 2634 1488 
Q 2631 1734 2570 1850 
Q 2509 1966 2401 2023 
Q 2294 2081 2081 2081 
L 1309 2081 
L 1309 750 
Q 1309 428 1350 325 
Q 1381 247 1481 191 
Q 1619 116 1769 116 
L 1922 116 
L 1922 0 
L 103 0 
L 103 116 
L 253 116 
Q 516 116 634 269 
Q 709 369 709 750 
L 709 3488 
Q 709 3809 669 3913 
Q 638 3991 541 4047 
Q 406 4122 253 4122 
L 103 4122 
L 103 4238 
L 3256 4238 
L 3297 3306 
L 3188 3306 
Q 3106 3603 2998 3742 
Q 2891 3881 2733 3943 
Q 2575 4006 2244 4006 
L 1309 4006 
z
" transform="scale(0.015625)"/>
        <path id="TimesNewRomanPSMT-77" d="M 41 2863 
L 1241 2863 
L 1241 2747 
Q 1075 2734 1023 2687 
Q 972 2641 972 2553 
Q 972 2456 1025 2319 
L 1638 672 
L 2253 2013 
L 2091 2434 
Q 2016 2622 1894 2694 
Q 1825 2738 1638 2747 
L 1638 2863 
L 3000 2863 
L 3000 2747 
Q 2775 2738 2681 2666 
Q 2619 2616 2619 2506 
Q 2619 2444 2644 2378 
L 3294 734 
L 3897 2319 
Q 3959 2488 3959 2588 
Q 3959 2647 3898 2694 
Q 3838 2741 3659 2747 
L 3659 2863 
L 4563 2863 
L 4563 2747 
Q 4291 2706 4163 2378 
L 3206 -88 
L 3078 -88 
L 2363 1741 
L 1528 -88 
L 1413 -88 
L 494 2319 
Q 403 2547 315 2626 
Q 228 2706 41 2747 
L 41 2863 
z
" transform="scale(0.015625)"/>
        <path id="TimesNewRomanPSMT-64" d="M 2222 322 
Q 2013 103 1813 7 
Q 1613 -88 1381 -88 
Q 913 -88 563 304 
Q 213 697 213 1313 
Q 213 1928 600 2439 
Q 988 2950 1597 2950 
Q 1975 2950 2222 2709 
L 2222 3238 
Q 2222 3728 2198 3840 
Q 2175 3953 2125 3993 
Q 2075 4034 2000 4034 
Q 1919 4034 1784 3984 
L 1744 4094 
L 2597 4444 
L 2738 4444 
L 2738 1134 
Q 2738 631 2761 520 
Q 2784 409 2836 365 
Q 2888 322 2956 322 
Q 3041 322 3181 375 
L 3216 266 
L 2366 -88 
L 2222 -88 
L 2222 322 
z
M 2222 541 
L 2222 2016 
Q 2203 2228 2109 2403 
Q 2016 2578 1861 2667 
Q 1706 2756 1559 2756 
Q 1284 2756 1069 2509 
Q 784 2184 784 1559 
Q 784 928 1059 592 
Q 1334 256 1672 256 
Q 1956 256 2222 541 
z
" transform="scale(0.015625)"/>
       </defs>
       <use xlink:href="#TimesNewRomanPSMT-46"/>
       <use xlink:href="#TimesNewRomanPSMT-6c" x="55.615234"/>
       <use xlink:href="#TimesNewRomanPSMT-6f" x="83.398438"/>
       <use xlink:href="#TimesNewRomanPSMT-77" x="133.398438"/>
       <use xlink:href="#TimesNewRomanPSMT-56" x="205.615234"/>
       <use xlink:href="#TimesNewRomanPSMT-69" x="271.832031"/>
       <use xlink:href="#TimesNewRomanPSMT-64" x="299.615234"/>
      </g>
     </g>
    </g>
    <g id="xtick_6">
     <g id="line2d_6">
      <g>
       <use xlink:href="#m5528426104" x="396.723438" y="268.424909" style="stroke: #000000; stroke-width: 0.8"/>
      </g>
     </g>
     <g id="text_6">
      <!-- Viewly -->
      <g transform="translate(370.421717 305.787632) rotate(-45) scale(0.12 -0.12)">
       <defs>
        <path id="TimesNewRomanPSMT-79" d="M 38 2863 
L 1372 2863 
L 1372 2747 
L 1306 2747 
Q 1166 2747 1095 2686 
Q 1025 2625 1025 2534 
Q 1025 2413 1128 2197 
L 1825 753 
L 2466 2334 
Q 2519 2463 2519 2588 
Q 2519 2644 2497 2672 
Q 2472 2706 2419 2726 
Q 2366 2747 2231 2747 
L 2231 2863 
L 3163 2863 
L 3163 2747 
Q 3047 2734 2984 2696 
Q 2922 2659 2847 2556 
Q 2819 2513 2741 2316 
L 1575 -541 
Q 1406 -956 1132 -1168 
Q 859 -1381 606 -1381 
Q 422 -1381 303 -1275 
Q 184 -1169 184 -1031 
Q 184 -900 270 -820 
Q 356 -741 506 -741 
Q 609 -741 788 -809 
Q 913 -856 944 -856 
Q 1038 -856 1148 -759 
Q 1259 -663 1372 -384 
L 1575 113 
L 547 2272 
Q 500 2369 397 2513 
Q 319 2622 269 2659 
Q 197 2709 38 2747 
L 38 2863 
z
" transform="scale(0.015625)"/>
       </defs>
       <use xlink:href="#TimesNewRomanPSMT-56"/>
       <use xlink:href="#TimesNewRomanPSMT-69" x="66.216797"/>
       <use xlink:href="#TimesNewRomanPSMT-65" x="94"/>
       <use xlink:href="#TimesNewRomanPSMT-77" x="138.384766"/>
       <use xlink:href="#TimesNewRomanPSMT-6c" x="210.601562"/>
       <use xlink:href="#TimesNewRomanPSMT-79" x="238.384766"/>
      </g>
     </g>
    </g>
   </g>
   <g id="matplotlib.axis_2">
    <g id="ytick_1">
     <g id="line2d_7">
      <defs>
       <path id="m06b5e5d855" d="M 0 0 
L -3.5 0 
" style="stroke: #000000; stroke-width: 0.8"/>
      </defs>
      <g>
       <use xlink:href="#m06b5e5d855" x="55.915938" y="250.329947" style="stroke: #000000; stroke-width: 0.8"/>
      </g>
     </g>
     <g id="text_7">
      <!-- 5000 -->
      <g transform="translate(28.915938 253.801822) scale(0.1 -0.1)">
       <defs>
        <path id="TimesNewRomanPSMT-35" d="M 2778 4238 
L 2534 3706 
L 1259 3706 
L 981 3138 
Q 1809 3016 2294 2522 
Q 2709 2097 2709 1522 
Q 2709 1188 2573 903 
Q 2438 619 2231 419 
Q 2025 219 1772 97 
Q 1413 -75 1034 -75 
Q 653 -75 479 54 
Q 306 184 306 341 
Q 306 428 378 495 
Q 450 563 559 563 
Q 641 563 702 538 
Q 763 513 909 409 
Q 1144 247 1384 247 
Q 1750 247 2026 523 
Q 2303 800 2303 1197 
Q 2303 1581 2056 1914 
Q 1809 2247 1375 2428 
Q 1034 2569 447 2591 
L 1259 4238 
L 2778 4238 
z
" transform="scale(0.015625)"/>
        <path id="TimesNewRomanPSMT-30" d="M 231 2094 
Q 231 2819 450 3342 
Q 669 3866 1031 4122 
Q 1313 4325 1613 4325 
Q 2100 4325 2488 3828 
Q 2972 3213 2972 2159 
Q 2972 1422 2759 906 
Q 2547 391 2217 158 
Q 1888 -75 1581 -75 
Q 975 -75 572 641 
Q 231 1244 231 2094 
z
M 844 2016 
Q 844 1141 1059 588 
Q 1238 122 1591 122 
Q 1759 122 1940 273 
Q 2122 425 2216 781 
Q 2359 1319 2359 2297 
Q 2359 3022 2209 3506 
Q 2097 3866 1919 4016 
Q 1791 4119 1609 4119 
Q 1397 4119 1231 3928 
Q 1006 3669 925 3112 
Q 844 2556 844 2016 
z
" transform="scale(0.015625)"/>
       </defs>
       <use xlink:href="#TimesNewRomanPSMT-35"/>
       <use xlink:href="#TimesNewRomanPSMT-30" x="50"/>
       <use xlink:href="#TimesNewRomanPSMT-30" x="100"/>
       <use xlink:href="#TimesNewRomanPSMT-30" x="150"/>
      </g>
     </g>
    </g>
    <g id="ytick_2">
     <g id="line2d_8">
      <g>
       <use xlink:href="#m06b5e5d855" x="55.915938" y="212.16217" style="stroke: #000000; stroke-width: 0.8"/>
      </g>
     </g>
     <g id="text_8">
      <!-- 10000 -->
      <g transform="translate(23.915938 215.634045) scale(0.1 -0.1)">
       <defs>
        <path id="TimesNewRomanPSMT-31" d="M 750 3822 
L 1781 4325 
L 1884 4325 
L 1884 747 
Q 1884 391 1914 303 
Q 1944 216 2037 169 
Q 2131 122 2419 116 
L 2419 0 
L 825 0 
L 825 116 
Q 1125 122 1212 167 
Q 1300 213 1334 289 
Q 1369 366 1369 747 
L 1369 3034 
Q 1369 3497 1338 3628 
Q 1316 3728 1258 3775 
Q 1200 3822 1119 3822 
Q 1003 3822 797 3725 
L 750 3822 
z
" transform="scale(0.015625)"/>
       </defs>
       <use xlink:href="#TimesNewRomanPSMT-31"/>
       <use xlink:href="#TimesNewRomanPSMT-30" x="50"/>
       <use xlink:href="#TimesNewRomanPSMT-30" x="100"/>
       <use xlink:href="#TimesNewRomanPSMT-30" x="150"/>
       <use xlink:href="#TimesNewRomanPSMT-30" x="200"/>
      </g>
     </g>
    </g>
    <g id="ytick_3">
     <g id="line2d_9">
      <g>
       <use xlink:href="#m06b5e5d855" x="55.915938" y="173.994392" style="stroke: #000000; stroke-width: 0.8"/>
      </g>
     </g>
     <g id="text_9">
      <!-- 15000 -->
      <g transform="translate(23.915938 177.466267) scale(0.1 -0.1)">
       <use xlink:href="#TimesNewRomanPSMT-31"/>
       <use xlink:href="#TimesNewRomanPSMT-35" x="50"/>
       <use xlink:href="#TimesNewRomanPSMT-30" x="100"/>
       <use xlink:href="#TimesNewRomanPSMT-30" x="150"/>
       <use xlink:href="#TimesNewRomanPSMT-30" x="200"/>
      </g>
     </g>
    </g>
    <g id="ytick_4">
     <g id="line2d_10">
      <g>
       <use xlink:href="#m06b5e5d855" x="55.915938" y="135.826614" style="stroke: #000000; stroke-width: 0.8"/>
      </g>
     </g>
     <g id="text_10">
      <!-- 20000 -->
      <g transform="translate(23.915938 139.298489) scale(0.1 -0.1)">
       <defs>
        <path id="TimesNewRomanPSMT-32" d="M 2934 816 
L 2638 0 
L 138 0 
L 138 116 
Q 1241 1122 1691 1759 
Q 2141 2397 2141 2925 
Q 2141 3328 1894 3587 
Q 1647 3847 1303 3847 
Q 991 3847 742 3664 
Q 494 3481 375 3128 
L 259 3128 
Q 338 3706 661 4015 
Q 984 4325 1469 4325 
Q 1984 4325 2329 3994 
Q 2675 3663 2675 3213 
Q 2675 2891 2525 2569 
Q 2294 2063 1775 1497 
Q 997 647 803 472 
L 1909 472 
Q 2247 472 2383 497 
Q 2519 522 2628 598 
Q 2738 675 2819 816 
L 2934 816 
z
" transform="scale(0.015625)"/>
       </defs>
       <use xlink:href="#TimesNewRomanPSMT-32"/>
       <use xlink:href="#TimesNewRomanPSMT-30" x="50"/>
       <use xlink:href="#TimesNewRomanPSMT-30" x="100"/>
       <use xlink:href="#TimesNewRomanPSMT-30" x="150"/>
       <use xlink:href="#TimesNewRomanPSMT-30" x="200"/>
      </g>
     </g>
    </g>
    <g id="ytick_5">
     <g id="line2d_11">
      <g>
       <use xlink:href="#m06b5e5d855" x="55.915938" y="97.658837" style="stroke: #000000; stroke-width: 0.8"/>
      </g>
     </g>
     <g id="text_11">
      <!-- 25000 -->
      <g transform="translate(23.915938 101.130712) scale(0.1 -0.1)">
       <use xlink:href="#TimesNewRomanPSMT-32"/>
       <use xlink:href="#TimesNewRomanPSMT-35" x="50"/>
       <use xlink:href="#TimesNewRomanPSMT-30" x="100"/>
       <use xlink:href="#TimesNewRomanPSMT-30" x="150"/>
       <use xlink:href="#TimesNewRomanPSMT-30" x="200"/>
      </g>
     </g>
    </g>
    <g id="ytick_6">
     <g id="line2d_12">
      <g>
       <use xlink:href="#m06b5e5d855" x="55.915938" y="59.491059" style="stroke: #000000; stroke-width: 0.8"/>
      </g>
     </g>
     <g id="text_12">
      <!-- 30000 -->
      <g transform="translate(23.915938 62.962934) scale(0.1 -0.1)">
       <defs>
        <path id="TimesNewRomanPSMT-33" d="M 325 3431 
Q 506 3859 782 4092 
Q 1059 4325 1472 4325 
Q 1981 4325 2253 3994 
Q 2459 3747 2459 3466 
Q 2459 3003 1878 2509 
Q 2269 2356 2469 2072 
Q 2669 1788 2669 1403 
Q 2669 853 2319 450 
Q 1863 -75 997 -75 
Q 569 -75 414 31 
Q 259 138 259 259 
Q 259 350 332 419 
Q 406 488 509 488 
Q 588 488 669 463 
Q 722 447 909 348 
Q 1097 250 1169 231 
Q 1284 197 1416 197 
Q 1734 197 1970 444 
Q 2206 691 2206 1028 
Q 2206 1275 2097 1509 
Q 2016 1684 1919 1775 
Q 1784 1900 1550 2001 
Q 1316 2103 1072 2103 
L 972 2103 
L 972 2197 
Q 1219 2228 1467 2375 
Q 1716 2522 1828 2728 
Q 1941 2934 1941 3181 
Q 1941 3503 1739 3701 
Q 1538 3900 1238 3900 
Q 753 3900 428 3381 
L 325 3431 
z
" transform="scale(0.015625)"/>
       </defs>
       <use xlink:href="#TimesNewRomanPSMT-33"/>
       <use xlink:href="#TimesNewRomanPSMT-30" x="50"/>
       <use xlink:href="#TimesNewRomanPSMT-30" x="100"/>
       <use xlink:href="#TimesNewRomanPSMT-30" x="150"/>
       <use xlink:href="#TimesNewRomanPSMT-30" x="200"/>
      </g>
     </g>
    </g>
    <g id="text_13">
     <!-- viewers -->
     <g transform="translate(16.92125 171.004955) rotate(-90) scale(0.14 -0.14)">
      <defs>
       <path id="TimesNewRomanPSMT-76" d="M 53 2863 
L 1400 2863 
L 1400 2747 
L 1313 2747 
Q 1191 2747 1127 2687 
Q 1063 2628 1063 2528 
Q 1063 2419 1128 2269 
L 1794 688 
L 2463 2328 
Q 2534 2503 2534 2594 
Q 2534 2638 2509 2666 
Q 2475 2713 2422 2730 
Q 2369 2747 2206 2747 
L 2206 2863 
L 3141 2863 
L 3141 2747 
Q 2978 2734 2916 2681 
Q 2806 2588 2719 2369 
L 1703 -88 
L 1575 -88 
L 553 2328 
Q 484 2497 421 2570 
Q 359 2644 263 2694 
Q 209 2722 53 2747 
L 53 2863 
z
" transform="scale(0.015625)"/>
       <path id="TimesNewRomanPSMT-73" d="M 2050 2947 
L 2050 1972 
L 1947 1972 
Q 1828 2431 1642 2597 
Q 1456 2763 1169 2763 
Q 950 2763 815 2647 
Q 681 2531 681 2391 
Q 681 2216 781 2091 
Q 878 1963 1175 1819 
L 1631 1597 
Q 2266 1288 2266 781 
Q 2266 391 1970 151 
Q 1675 -88 1309 -88 
Q 1047 -88 709 6 
Q 606 38 541 38 
Q 469 38 428 -44 
L 325 -44 
L 325 978 
L 428 978 
Q 516 541 762 319 
Q 1009 97 1316 97 
Q 1531 97 1667 223 
Q 1803 350 1803 528 
Q 1803 744 1651 891 
Q 1500 1038 1047 1263 
Q 594 1488 453 1669 
Q 313 1847 313 2119 
Q 313 2472 555 2709 
Q 797 2947 1181 2947 
Q 1350 2947 1591 2875 
Q 1750 2828 1803 2828 
Q 1853 2828 1881 2850 
Q 1909 2872 1947 2947 
L 2050 2947 
z
" transform="scale(0.015625)"/>
      </defs>
      <use xlink:href="#TimesNewRomanPSMT-76"/>
      <use xlink:href="#TimesNewRomanPSMT-69" x="50"/>
      <use xlink:href="#TimesNewRomanPSMT-65" x="77.783203"/>
      <use xlink:href="#TimesNewRomanPSMT-77" x="122.167969"/>
      <use xlink:href="#TimesNewRomanPSMT-65" x="194.384766"/>
      <use xlink:href="#TimesNewRomanPSMT-72" x="238.769531"/>
      <use xlink:href="#TimesNewRomanPSMT-73" x="272.070312"/>
     </g>
    </g>
   </g>
   <g id="patch_3">
    <path d="M 83.800188 83.074929 
L 89.996688 83.074929 
L 89.996688 62.68761 
L 83.800188 62.68761 
L 83.800188 83.074929 
L 83.800188 83.074929 
z
" clip-path="url(#pf26ce85750)" style="fill: none; stroke: #000000; stroke-linejoin: miter"/>
   </g>
   <g id="line2d_13">
    <path d="M 86.898438 83.074929 
L 86.898438 102.017597 
" clip-path="url(#pf26ce85750)" style="fill: none; stroke: #000000; stroke-linecap: square"/>
   </g>
   <g id="line2d_14">
    <path d="M 86.898438 62.68761 
L 86.898438 40.88045 
" clip-path="url(#pf26ce85750)" style="fill: none; stroke: #000000; stroke-linecap: square"/>
   </g>
   <g id="line2d_15">
    <path d="M 85.349313 102.017597 
L 88.447563 102.017597 
" clip-path="url(#pf26ce85750)" style="fill: none; stroke: #000000; stroke-linecap: square"/>
   </g>
   <g id="line2d_16">
    <path d="M 85.349313 40.88045 
L 88.447563 40.88045 
" clip-path="url(#pf26ce85750)" style="fill: none; stroke: #000000; stroke-linecap: square"/>
   </g>
   <g id="patch_4">
    <path d="M 145.765188 100.342031 
L 151.961688 100.342031 
L 151.961688 73.307794 
L 145.765188 73.307794 
L 145.765188 100.342031 
L 145.765188 100.342031 
z
" clip-path="url(#pf26ce85750)" style="fill: none; stroke: #000000; stroke-linejoin: miter"/>
   </g>
   <g id="line2d_17">
    <path d="M 148.863438 100.342031 
L 148.863438 137.887674 
" clip-path="url(#pf26ce85750)" style="fill: none; stroke: #000000; stroke-linecap: square"/>
   </g>
   <g id="line2d_18">
    <path d="M 148.863438 73.307794 
L 148.863438 41.765943 
" clip-path="url(#pf26ce85750)" style="fill: none; stroke: #000000; stroke-linecap: square"/>
   </g>
   <g id="line2d_19">
    <path d="M 147.314313 137.887674 
L 150.412563 137.887674 
" clip-path="url(#pf26ce85750)" style="fill: none; stroke: #000000; stroke-linecap: square"/>
   </g>
   <g id="line2d_20">
    <path d="M 147.314313 41.765943 
L 150.412563 41.765943 
" clip-path="url(#pf26ce85750)" style="fill: none; stroke: #000000; stroke-linecap: square"/>
   </g>
   <g id="patch_5">
    <path d="M 207.730188 140.47545 
L 213.926688 140.47545 
L 213.926688 110.716033 
L 207.730188 110.716033 
L 207.730188 140.47545 
L 207.730188 140.47545 
z
" clip-path="url(#pf26ce85750)" style="fill: none; stroke: #000000; stroke-linejoin: miter"/>
   </g>
   <g id="line2d_21">
    <path d="M 210.828438 140.47545 
L 210.828438 173.444776 
" clip-path="url(#pf26ce85750)" style="fill: none; stroke: #000000; stroke-linecap: square"/>
   </g>
   <g id="line2d_22">
    <path d="M 210.828438 110.716033 
L 210.828438 81.422264 
" clip-path="url(#pf26ce85750)" style="fill: none; stroke: #000000; stroke-linecap: square"/>
   </g>
   <g id="line2d_23">
    <path d="M 209.279313 173.444776 
L 212.377563 173.444776 
" clip-path="url(#pf26ce85750)" style="fill: none; stroke: #000000; stroke-linecap: square"/>
   </g>
   <g id="line2d_24">
    <path d="M 209.279313 81.422264 
L 212.377563 81.422264 
" clip-path="url(#pf26ce85750)" style="fill: none; stroke: #000000; stroke-linecap: square"/>
   </g>
   <g id="patch_6">
    <path d="M 269.695188 116.410666 
L 275.891688 116.410666 
L 275.891688 88.179869 
L 269.695188 88.179869 
L 269.695188 116.410666 
L 269.695188 116.410666 
z
" clip-path="url(#pf26ce85750)" style="fill: none; stroke: #000000; stroke-linejoin: miter"/>
   </g>
   <g id="line2d_25">
    <path d="M 272.793438 116.410666 
L 272.793438 150.681513 
" clip-path="url(#pf26ce85750)" style="fill: none; stroke: #000000; stroke-linecap: square"/>
   </g>
   <g id="line2d_26">
    <path d="M 272.793438 88.179869 
L 272.793438 52.277349 
" clip-path="url(#pf26ce85750)" style="fill: none; stroke: #000000; stroke-linecap: square"/>
   </g>
   <g id="line2d_27">
    <path d="M 271.244313 150.681513 
L 274.342563 150.681513 
" clip-path="url(#pf26ce85750)" style="fill: none; stroke: #000000; stroke-linecap: square"/>
   </g>
   <g id="line2d_28">
    <path d="M 271.244313 52.277349 
L 274.342563 52.277349 
" clip-path="url(#pf26ce85750)" style="fill: none; stroke: #000000; stroke-linecap: square"/>
   </g>
   <g id="patch_7">
    <path d="M 331.660188 175.301638 
L 337.856688 175.301638 
L 337.856688 134.43349 
L 331.660188 134.43349 
L 331.660188 175.301638 
L 331.660188 175.301638 
z
" clip-path="url(#pf26ce85750)" style="fill: none; stroke: #000000; stroke-linejoin: miter"/>
   </g>
   <g id="line2d_29">
    <path d="M 334.758438 175.301638 
L 334.758438 235.75749 
" clip-path="url(#pf26ce85750)" style="fill: none; stroke: #000000; stroke-linecap: square"/>
   </g>
   <g id="line2d_30">
    <path d="M 334.758438 134.43349 
L 334.758438 103.674078 
" clip-path="url(#pf26ce85750)" style="fill: none; stroke: #000000; stroke-linecap: square"/>
   </g>
   <g id="line2d_31">
    <path d="M 333.209313 235.75749 
L 336.307563 235.75749 
" clip-path="url(#pf26ce85750)" style="fill: none; stroke: #000000; stroke-linecap: square"/>
   </g>
   <g id="line2d_32">
    <path d="M 333.209313 103.674078 
L 336.307563 103.674078 
" clip-path="url(#pf26ce85750)" style="fill: none; stroke: #000000; stroke-linecap: square"/>
   </g>
   <g id="patch_8">
    <path d="M 393.625188 221.013277 
L 399.821688 221.013277 
L 399.821688 201.76145 
L 393.625188 201.76145 
L 393.625188 221.013277 
L 393.625188 221.013277 
z
" clip-path="url(#pf26ce85750)" style="fill: none; stroke: #000000; stroke-linejoin: miter"/>
   </g>
   <g id="line2d_33">
    <path d="M 396.723438 221.013277 
L 396.723438 247.123854 
" clip-path="url(#pf26ce85750)" style="fill: none; stroke: #000000; stroke-linecap: square"/>
   </g>
   <g id="line2d_34">
    <path d="M 396.723438 201.76145 
L 396.723438 180.803524 
" clip-path="url(#pf26ce85750)" style="fill: none; stroke: #000000; stroke-linecap: square"/>
   </g>
   <g id="line2d_35">
    <path d="M 395.174313 247.123854 
L 398.272563 247.123854 
" clip-path="url(#pf26ce85750)" style="fill: none; stroke: #000000; stroke-linecap: square"/>
   </g>
   <g id="line2d_36">
    <path d="M 395.174313 180.803524 
L 398.272563 180.803524 
" clip-path="url(#pf26ce85750)" style="fill: none; stroke: #000000; stroke-linecap: square"/>
   </g>
   <g id="line2d_37">
    <path d="M 83.800188 73.326878 
L 89.996688 73.326878 
" clip-path="url(#pf26ce85750)" style="fill: none; stroke: #000000; stroke-width: 1.5; stroke-linecap: square"/>
   </g>
   <g id="line2d_38">
    <path d="M 145.765188 87.109263 
L 151.961688 87.109263 
" clip-path="url(#pf26ce85750)" style="fill: none; stroke: #000000; stroke-width: 1.5; stroke-linecap: square"/>
   </g>
   <g id="line2d_39">
    <path d="M 207.730188 122.780868 
L 213.926688 122.780868 
" clip-path="url(#pf26ce85750)" style="fill: none; stroke: #000000; stroke-width: 1.5; stroke-linecap: square"/>
   </g>
   <g id="line2d_40">
    <path d="M 269.695188 102.445076 
L 275.891688 102.445076 
" clip-path="url(#pf26ce85750)" style="fill: none; stroke: #000000; stroke-width: 1.5; stroke-linecap: square"/>
   </g>
   <g id="line2d_41">
    <path d="M 331.660188 154.815084 
L 337.856688 154.815084 
" clip-path="url(#pf26ce85750)" style="fill: none; stroke: #000000; stroke-width: 1.5; stroke-linecap: square"/>
   </g>
   <g id="line2d_42">
    <path d="M 393.625188 210.868282 
L 399.821688 210.868282 
" clip-path="url(#pf26ce85750)" style="fill: none; stroke: #000000; stroke-width: 1.5; stroke-linecap: square"/>
   </g>
   <g id="patch_9">
    <path d="M 55.915938 268.424909 
L 55.915938 30.045 
" style="fill: none; stroke: #000000; stroke-linejoin: miter; stroke-linecap: square"/>
   </g>
   <g id="patch_10">
    <path d="M 427.705938 268.424909 
L 427.705938 30.045 
" style="fill: none; stroke: #000000; stroke-linejoin: miter; stroke-linecap: square"/>
   </g>
   <g id="patch_11">
    <path d="M 55.915938 268.424909 
L 427.705938 268.424909 
" style="fill: none; stroke: #000000; stroke-linejoin: miter; stroke-linecap: square"/>
   </g>
   <g id="patch_12">
    <path d="M 55.915938 30.045 
L 427.705938 30.045 
" style="fill: none; stroke: #000000; stroke-linejoin: miter; stroke-linecap: square"/>
   </g>
   <g id="text_14">
    <!-- Number of daily viewers on different video platforms (viewers) -->
    <g transform="translate(27.465938 18.045) scale(0.16 -0.16)">
     <defs>
      <path id="TimesNewRomanPS-BoldMT-4e" d="M 1594 4238 
L 3684 1609 
L 3684 3431 
Q 3684 3813 3575 3947 
Q 3425 4128 3072 4122 
L 3072 4238 
L 4472 4238 
L 4472 4122 
Q 4203 4088 4111 4033 
Q 4019 3978 3967 3854 
Q 3916 3731 3916 3431 
L 3916 -97 
L 3809 -97 
L 944 3431 
L 944 738 
Q 944 372 1111 244 
Q 1278 116 1494 116 
L 1594 116 
L 1594 0 
L 91 0 
L 91 116 
Q 441 119 578 259 
Q 716 400 716 738 
L 716 3728 
L 625 3841 
Q 491 4009 387 4062 
Q 284 4116 91 4122 
L 91 4238 
L 1594 4238 
z
" transform="scale(0.015625)"/>
      <path id="TimesNewRomanPS-BoldMT-75" d="M 3038 2922 
L 3038 634 
Q 3038 300 3100 217 
Q 3163 134 3353 113 
L 3353 0 
L 2163 0 
L 2163 391 
Q 1953 141 1743 26 
Q 1534 -88 1275 -88 
Q 1028 -88 836 64 
Q 644 216 578 419 
Q 513 622 513 1128 
L 513 2288 
Q 513 2619 452 2700 
Q 391 2781 197 2806 
L 197 2922 
L 1388 2922 
L 1388 925 
Q 1388 613 1417 522 
Q 1447 431 1511 384 
Q 1575 338 1659 338 
Q 1772 338 1863 397 
Q 1988 478 2163 725 
L 2163 2288 
Q 2163 2619 2102 2700 
Q 2041 2781 1847 2806 
L 1847 2922 
L 3038 2922 
z
" transform="scale(0.015625)"/>
      <path id="TimesNewRomanPS-BoldMT-6d" d="M 1428 2922 
L 1428 2538 
Q 1669 2800 1873 2904 
Q 2078 3009 2322 3009 
Q 2603 3009 2793 2878 
Q 2984 2747 3088 2478 
Q 3338 2759 3567 2884 
Q 3797 3009 4047 3009 
Q 4350 3009 4529 2870 
Q 4709 2731 4779 2517 
Q 4850 2303 4850 1834 
L 4850 638 
Q 4850 300 4911 219 
Q 4972 138 5166 113 
L 5166 0 
L 3656 0 
L 3656 113 
Q 3834 128 3919 250 
Q 3975 334 3975 638 
L 3975 1894 
Q 3975 2284 3944 2390 
Q 3913 2497 3845 2548 
Q 3778 2600 3688 2600 
Q 3553 2600 3415 2501 
Q 3278 2403 3138 2206 
L 3138 638 
Q 3138 322 3191 241 
Q 3263 125 3466 113 
L 3466 0 
L 1953 0 
L 1953 113 
Q 2075 119 2145 173 
Q 2216 228 2239 304 
Q 2263 381 2263 638 
L 2263 1894 
Q 2263 2291 2231 2391 
Q 2200 2491 2126 2547 
Q 2053 2603 1969 2603 
Q 1844 2603 1741 2538 
Q 1594 2441 1428 2206 
L 1428 638 
Q 1428 328 1489 229 
Q 1550 131 1744 113 
L 1744 0 
L 238 0 
L 238 113 
Q 422 131 500 231 
Q 553 300 553 638 
L 553 2288 
Q 553 2619 492 2700 
Q 431 2781 238 2806 
L 238 2922 
L 1428 2922 
z
" transform="scale(0.015625)"/>
      <path id="TimesNewRomanPS-BoldMT-62" d="M 1347 4238 
L 1347 2628 
Q 1716 3009 2153 3009 
Q 2453 3009 2718 2832 
Q 2984 2656 3134 2331 
Q 3284 2006 3284 1581 
Q 3284 1103 3093 712 
Q 2903 322 2584 117 
Q 2266 -88 1856 -88 
Q 1619 -88 1434 -12 
Q 1250 63 1072 231 
L 588 -84 
L 481 -84 
L 481 3631 
Q 481 3884 459 3944 
Q 428 4031 361 4073 
Q 294 4116 134 4122 
L 134 4238 
L 1347 4238 
z
M 1347 2350 
L 1347 1050 
Q 1347 653 1366 544 
Q 1397 359 1515 245 
Q 1634 131 1819 131 
Q 1978 131 2092 222 
Q 2206 313 2282 581 
Q 2359 850 2359 1550 
Q 2359 2222 2191 2472 
Q 2069 2653 1863 2653 
Q 1594 2653 1347 2350 
z
" transform="scale(0.015625)"/>
      <path id="TimesNewRomanPS-BoldMT-65" d="M 2691 1566 
L 1088 1566 
Q 1116 984 1397 647 
Q 1613 388 1916 388 
Q 2103 388 2256 492 
Q 2409 597 2584 869 
L 2691 800 
Q 2453 316 2165 114 
Q 1878 -88 1500 -88 
Q 850 -88 516 413 
Q 247 816 247 1413 
Q 247 2144 642 2576 
Q 1038 3009 1569 3009 
Q 2013 3009 2339 2645 
Q 2666 2281 2691 1566 
z
M 1922 1775 
Q 1922 2278 1867 2465 
Q 1813 2653 1697 2750 
Q 1631 2806 1522 2806 
Q 1359 2806 1256 2647 
Q 1072 2369 1072 1884 
L 1072 1775 
L 1922 1775 
z
" transform="scale(0.015625)"/>
      <path id="TimesNewRomanPS-BoldMT-72" d="M 1428 2922 
L 1428 2259 
Q 1719 2713 1937 2861 
Q 2156 3009 2359 3009 
Q 2534 3009 2639 2901 
Q 2744 2794 2744 2597 
Q 2744 2388 2642 2272 
Q 2541 2156 2397 2156 
Q 2231 2156 2109 2262 
Q 1988 2369 1966 2381 
Q 1934 2400 1894 2400 
Q 1803 2400 1722 2331 
Q 1594 2225 1528 2028 
Q 1428 1725 1428 1359 
L 1428 688 
L 1431 513 
Q 1431 334 1453 284 
Q 1491 200 1564 161 
Q 1638 122 1813 113 
L 1813 0 
L 234 0 
L 234 113 
Q 425 128 492 217 
Q 559 306 559 688 
L 559 2303 
Q 559 2553 534 2622 
Q 503 2709 443 2750 
Q 384 2791 234 2806 
L 234 2922 
L 1428 2922 
z
" transform="scale(0.015625)"/>
      <path id="TimesNewRomanPS-BoldMT-20" transform="scale(0.015625)"/>
      <path id="TimesNewRomanPS-BoldMT-6f" d="M 1594 3009 
Q 1975 3009 2303 2812 
Q 2631 2616 2801 2253 
Q 2972 1891 2972 1459 
Q 2972 838 2656 419 
Q 2275 -88 1603 -88 
Q 944 -88 587 375 
Q 231 838 231 1447 
Q 231 2075 595 2542 
Q 959 3009 1594 3009 
z
M 1606 2788 
Q 1447 2788 1333 2667 
Q 1219 2547 1183 2192 
Q 1147 1838 1147 1206 
Q 1147 872 1191 581 
Q 1225 359 1337 243 
Q 1450 128 1594 128 
Q 1734 128 1828 206 
Q 1950 313 1991 503 
Q 2053 800 2053 1703 
Q 2053 2234 1993 2432 
Q 1934 2631 1819 2722 
Q 1738 2788 1606 2788 
z
" transform="scale(0.015625)"/>
      <path id="TimesNewRomanPS-BoldMT-66" d="M 1497 2616 
L 1497 588 
Q 1497 294 1559 219 
Q 1659 103 1928 113 
L 1928 0 
L 206 0 
L 206 113 
Q 403 116 486 158 
Q 569 200 600 275 
Q 631 350 631 588 
L 631 2616 
L 206 2616 
L 206 2922 
L 631 2922 
L 631 3138 
L 628 3284 
Q 628 3734 958 4034 
Q 1288 4334 1850 4334 
Q 2234 4334 2420 4190 
Q 2606 4047 2606 3872 
Q 2606 3731 2490 3628 
Q 2375 3525 2184 3525 
Q 2022 3525 1926 3609 
Q 1831 3694 1831 3797 
Q 1831 3825 1850 3913 
Q 1863 3966 1863 4013 
Q 1863 4078 1825 4109 
Q 1775 4156 1703 4156 
Q 1613 4156 1552 4081 
Q 1491 4006 1491 3841 
L 1497 3294 
L 1497 2922 
L 1928 2922 
L 1928 2616 
L 1497 2616 
z
" transform="scale(0.015625)"/>
      <path id="TimesNewRomanPS-BoldMT-64" d="M 3056 4238 
L 3056 875 
Q 3056 534 3075 472 
Q 3100 369 3170 319 
Q 3241 269 3416 256 
L 3416 153 
L 2181 -88 
L 2181 375 
Q 1959 106 1786 9 
Q 1613 -88 1394 -88 
Q 834 -88 509 413 
Q 247 819 247 1409 
Q 247 1881 409 2254 
Q 572 2628 855 2818 
Q 1138 3009 1463 3009 
Q 1672 3009 1834 2928 
Q 1997 2847 2181 2644 
L 2181 3525 
Q 2181 3859 2153 3928 
Q 2116 4019 2041 4062 
Q 1966 4106 1759 4106 
L 1759 4238 
L 3056 4238 
z
M 2181 2256 
Q 1950 2700 1616 2700 
Q 1500 2700 1425 2638 
Q 1309 2541 1236 2297 
Q 1163 2053 1163 1550 
Q 1163 997 1244 731 
Q 1325 466 1466 347 
Q 1538 288 1663 288 
Q 1938 288 2181 719 
L 2181 2256 
z
" transform="scale(0.015625)"/>
      <path id="TimesNewRomanPS-BoldMT-61" d="M 1828 431 
Q 1294 -41 869 -41 
Q 619 -41 453 123 
Q 288 288 288 534 
Q 288 869 575 1136 
Q 863 1403 1828 1847 
L 1828 2141 
Q 1828 2472 1792 2558 
Q 1756 2644 1656 2708 
Q 1556 2772 1431 2772 
Q 1228 2772 1097 2681 
Q 1016 2625 1016 2550 
Q 1016 2484 1103 2388 
Q 1222 2253 1222 2128 
Q 1222 1975 1108 1867 
Q 994 1759 809 1759 
Q 613 1759 480 1878 
Q 347 1997 347 2156 
Q 347 2381 525 2586 
Q 703 2791 1022 2900 
Q 1341 3009 1684 3009 
Q 2100 3009 2342 2832 
Q 2584 2656 2656 2450 
Q 2700 2319 2700 1847 
L 2700 713 
Q 2700 513 2715 461 
Q 2731 409 2762 384 
Q 2794 359 2834 359 
Q 2916 359 3000 475 
L 3094 400 
Q 2938 169 2770 64 
Q 2603 -41 2391 -41 
Q 2141 -41 2000 76 
Q 1859 194 1828 431 
z
M 1828 659 
L 1828 1638 
Q 1450 1416 1266 1163 
Q 1144 994 1144 822 
Q 1144 678 1247 569 
Q 1325 484 1466 484 
Q 1622 484 1828 659 
z
" transform="scale(0.015625)"/>
      <path id="TimesNewRomanPS-BoldMT-69" d="M 919 4338 
Q 1122 4338 1262 4195 
Q 1403 4053 1403 3853 
Q 1403 3653 1261 3512 
Q 1119 3372 919 3372 
Q 719 3372 578 3512 
Q 438 3653 438 3853 
Q 438 4053 578 4195 
Q 719 4338 919 4338 
z
M 1356 2922 
L 1356 606 
Q 1356 297 1428 211 
Q 1500 125 1709 113 
L 1709 0 
L 131 0 
L 131 113 
Q 325 119 419 225 
Q 481 297 481 606 
L 481 2313 
Q 481 2622 409 2708 
Q 338 2794 131 2806 
L 131 2922 
L 1356 2922 
z
" transform="scale(0.015625)"/>
      <path id="TimesNewRomanPS-BoldMT-6c" d="M 1359 4238 
L 1359 606 
Q 1359 297 1431 211 
Q 1503 125 1713 113 
L 1713 0 
L 134 0 
L 134 113 
Q 328 119 422 225 
Q 484 297 484 606 
L 484 3631 
Q 484 3938 412 4023 
Q 341 4109 134 4122 
L 134 4238 
L 1359 4238 
z
" transform="scale(0.015625)"/>
      <path id="TimesNewRomanPS-BoldMT-79" d="M 1556 -119 
L 613 2047 
Q 400 2538 298 2650 
Q 197 2763 53 2806 
L 53 2922 
L 1606 2922 
L 1606 2806 
Q 1453 2800 1390 2747 
Q 1328 2694 1328 2619 
Q 1328 2500 1484 2150 
L 1984 1006 
L 2325 1891 
Q 2509 2363 2509 2547 
Q 2509 2663 2432 2731 
Q 2356 2800 2163 2806 
L 2163 2922 
L 3141 2922 
L 3141 2806 
Q 2997 2791 2906 2695 
Q 2816 2600 2603 2047 
L 1769 -119 
Q 1453 -931 1300 -1119 
Q 1084 -1381 759 -1381 
Q 500 -1381 339 -1232 
Q 178 -1084 178 -875 
Q 178 -694 289 -575 
Q 400 -456 563 -456 
Q 719 -456 814 -556 
Q 909 -656 913 -866 
Q 916 -984 941 -1019 
Q 966 -1053 1013 -1053 
Q 1088 -1053 1172 -963 
Q 1297 -831 1466 -363 
L 1556 -119 
z
" transform="scale(0.015625)"/>
      <path id="TimesNewRomanPS-BoldMT-76" d="M 1534 -88 
L 550 2178 
Q 372 2588 272 2697 
Q 200 2778 59 2806 
L 59 2922 
L 1613 2922 
L 1613 2806 
Q 1466 2806 1413 2753 
Q 1338 2684 1338 2591 
Q 1338 2475 1475 2156 
L 1956 1059 
L 2341 2006 
Q 2506 2413 2506 2581 
Q 2506 2678 2436 2739 
Q 2366 2800 2188 2806 
L 2188 2922 
L 3144 2922 
L 3144 2806 
Q 3006 2788 2918 2703 
Q 2831 2619 2656 2206 
L 1681 -88 
L 1534 -88 
z
" transform="scale(0.015625)"/>
      <path id="TimesNewRomanPS-BoldMT-77" d="M 3113 -88 
L 2313 2056 
L 1528 -88 
L 1366 -88 
L 588 2031 
Q 413 2516 291 2663 
Q 213 2763 53 2806 
L 53 2922 
L 1528 2922 
L 1528 2806 
Q 1378 2806 1322 2762 
Q 1266 2719 1266 2663 
Q 1266 2609 1366 2344 
L 1794 1203 
L 2206 2344 
L 2175 2419 
Q 2081 2653 2011 2717 
Q 1941 2781 1794 2806 
L 1794 2922 
L 3291 2922 
L 3291 2806 
Q 3116 2797 3069 2758 
Q 3022 2719 3022 2647 
Q 3022 2578 3113 2344 
L 3525 1203 
L 3900 2253 
Q 3981 2478 3981 2559 
Q 3981 2681 3922 2737 
Q 3863 2794 3691 2806 
L 3691 2922 
L 4556 2922 
L 4556 2806 
Q 4413 2788 4328 2705 
Q 4244 2622 4109 2234 
L 3291 -88 
L 3113 -88 
z
" transform="scale(0.015625)"/>
      <path id="TimesNewRomanPS-BoldMT-73" d="M 2063 3003 
L 2109 2006 
L 2003 2006 
Q 1813 2450 1608 2612 
Q 1403 2775 1200 2775 
Q 1072 2775 981 2689 
Q 891 2603 891 2491 
Q 891 2406 953 2328 
Q 1053 2200 1512 1889 
Q 1972 1578 2117 1361 
Q 2263 1144 2263 875 
Q 2263 631 2141 397 
Q 2019 163 1797 37 
Q 1575 -88 1306 -88 
Q 1097 -88 747 44 
Q 653 78 619 78 
Q 516 78 447 -78 
L 344 -78 
L 294 972 
L 400 972 
Q 541 559 786 353 
Q 1031 147 1250 147 
Q 1400 147 1495 239 
Q 1591 331 1591 463 
Q 1591 613 1497 722 
Q 1403 831 1078 1053 
Q 600 1384 459 1559 
Q 253 1816 253 2125 
Q 253 2463 486 2736 
Q 719 3009 1159 3009 
Q 1397 3009 1619 2894 
Q 1703 2847 1756 2847 
Q 1813 2847 1847 2870 
Q 1881 2894 1956 3003 
L 2063 3003 
z
" transform="scale(0.015625)"/>
      <path id="TimesNewRomanPS-BoldMT-6e" d="M 1409 2922 
L 1409 2544 
Q 1634 2788 1840 2898 
Q 2047 3009 2284 3009 
Q 2569 3009 2756 2851 
Q 2944 2694 3006 2459 
Q 3056 2281 3056 1775 
L 3056 638 
Q 3056 300 3117 217 
Q 3178 134 3372 113 
L 3372 0 
L 1894 0 
L 1894 113 
Q 2059 134 2131 250 
Q 2181 328 2181 638 
L 2181 1938 
Q 2181 2297 2153 2390 
Q 2125 2484 2058 2536 
Q 1991 2588 1909 2588 
Q 1641 2588 1409 2203 
L 1409 638 
Q 1409 309 1470 221 
Q 1531 134 1697 113 
L 1697 0 
L 219 0 
L 219 113 
Q 403 131 481 231 
Q 534 300 534 638 
L 534 2288 
Q 534 2619 473 2700 
Q 413 2781 219 2806 
L 219 2922 
L 1409 2922 
z
" transform="scale(0.015625)"/>
      <path id="TimesNewRomanPS-BoldMT-74" d="M 1375 3991 
L 1375 2922 
L 2069 2922 
L 2069 2613 
L 1375 2613 
L 1375 809 
Q 1375 556 1398 482 
Q 1422 409 1481 364 
Q 1541 319 1591 319 
Q 1794 319 1975 628 
L 2069 559 
Q 1816 -41 1247 -41 
Q 969 -41 776 114 
Q 584 269 531 459 
Q 500 566 500 1034 
L 500 2613 
L 119 2613 
L 119 2722 
Q 513 3000 789 3306 
Q 1066 3613 1272 3991 
L 1375 3991 
z
" transform="scale(0.015625)"/>
      <path id="TimesNewRomanPS-BoldMT-70" d="M 1347 297 
L 1347 -791 
Q 1347 -1016 1383 -1097 
Q 1419 -1178 1494 -1215 
Q 1569 -1253 1788 -1253 
L 1788 -1369 
L 122 -1369 
L 122 -1253 
Q 316 -1247 409 -1144 
Q 472 -1072 472 -772 
L 472 2313 
Q 472 2622 400 2708 
Q 328 2794 122 2806 
L 122 2922 
L 1347 2922 
L 1347 2538 
Q 1500 2763 1659 2863 
Q 1888 3009 2156 3009 
Q 2478 3009 2742 2806 
Q 3006 2603 3143 2245 
Q 3281 1888 3281 1475 
Q 3281 1031 3139 664 
Q 2997 297 2726 104 
Q 2456 -88 2125 -88 
Q 1884 -88 1675 19 
Q 1519 100 1347 297 
z
M 1347 613 
Q 1616 231 1922 231 
Q 2091 231 2200 409 
Q 2363 672 2363 1409 
Q 2363 2166 2184 2444 
Q 2066 2628 1866 2628 
Q 1550 2628 1347 2172 
L 1347 613 
z
" transform="scale(0.015625)"/>
      <path id="TimesNewRomanPS-BoldMT-28" d="M 2056 4334 
L 2056 4191 
Q 1731 3978 1578 3775 
Q 1366 3494 1247 3053 
Q 1097 2506 1097 1525 
Q 1097 600 1233 87 
Q 1369 -425 1603 -741 
Q 1766 -959 2056 -1125 
L 2056 -1281 
Q 1303 -1028 779 -248 
Q 256 531 256 1544 
Q 256 2544 778 3314 
Q 1300 4084 2056 4334 
z
" transform="scale(0.015625)"/>
      <path id="TimesNewRomanPS-BoldMT-29" d="M 78 -1281 
L 78 -1138 
Q 403 -922 556 -719 
Q 766 -438 888 0 
Q 1038 550 1038 1531 
Q 1038 2456 902 2967 
Q 766 3478 531 3794 
Q 369 4013 78 4178 
L 78 4334 
Q 831 4081 1354 3301 
Q 1878 2522 1878 1509 
Q 1878 513 1354 -257 
Q 831 -1028 78 -1281 
z
" transform="scale(0.015625)"/>
     </defs>
     <use xlink:href="#TimesNewRomanPS-BoldMT-4e"/>
     <use xlink:href="#TimesNewRomanPS-BoldMT-75" x="72.216797"/>
     <use xlink:href="#TimesNewRomanPS-BoldMT-6d" x="127.832031"/>
     <use xlink:href="#TimesNewRomanPS-BoldMT-62" x="211.132812"/>
     <use xlink:href="#TimesNewRomanPS-BoldMT-65" x="266.748047"/>
     <use xlink:href="#TimesNewRomanPS-BoldMT-72" x="311.132812"/>
     <use xlink:href="#TimesNewRomanPS-BoldMT-20" x="353.767578"/>
     <use xlink:href="#TimesNewRomanPS-BoldMT-6f" x="378.767578"/>
     <use xlink:href="#TimesNewRomanPS-BoldMT-66" x="428.767578"/>
     <use xlink:href="#TimesNewRomanPS-BoldMT-20" x="462.068359"/>
     <use xlink:href="#TimesNewRomanPS-BoldMT-64" x="487.068359"/>
     <use xlink:href="#TimesNewRomanPS-BoldMT-61" x="542.683594"/>
     <use xlink:href="#TimesNewRomanPS-BoldMT-69" x="592.683594"/>
     <use xlink:href="#TimesNewRomanPS-BoldMT-6c" x="620.466797"/>
     <use xlink:href="#TimesNewRomanPS-BoldMT-79" x="648.25"/>
     <use xlink:href="#TimesNewRomanPS-BoldMT-20" x="698.25"/>
     <use xlink:href="#TimesNewRomanPS-BoldMT-76" x="723.25"/>
     <use xlink:href="#TimesNewRomanPS-BoldMT-69" x="773.25"/>
     <use xlink:href="#TimesNewRomanPS-BoldMT-65" x="801.033203"/>
     <use xlink:href="#TimesNewRomanPS-BoldMT-77" x="845.417969"/>
     <use xlink:href="#TimesNewRomanPS-BoldMT-65" x="917.634766"/>
     <use xlink:href="#TimesNewRomanPS-BoldMT-72" x="962.019531"/>
     <use xlink:href="#TimesNewRomanPS-BoldMT-73" x="1006.404297"/>
     <use xlink:href="#TimesNewRomanPS-BoldMT-20" x="1045.320312"/>
     <use xlink:href="#TimesNewRomanPS-BoldMT-6f" x="1070.320312"/>
     <use xlink:href="#TimesNewRomanPS-BoldMT-6e" x="1120.320312"/>
     <use xlink:href="#TimesNewRomanPS-BoldMT-20" x="1175.935547"/>
     <use xlink:href="#TimesNewRomanPS-BoldMT-64" x="1200.935547"/>
     <use xlink:href="#TimesNewRomanPS-BoldMT-69" x="1256.550781"/>
     <use xlink:href="#TimesNewRomanPS-BoldMT-66" x="1284.333984"/>
     <use xlink:href="#TimesNewRomanPS-BoldMT-66" x="1317.634766"/>
     <use xlink:href="#TimesNewRomanPS-BoldMT-65" x="1350.935547"/>
     <use xlink:href="#TimesNewRomanPS-BoldMT-72" x="1395.320312"/>
     <use xlink:href="#TimesNewRomanPS-BoldMT-65" x="1437.955078"/>
     <use xlink:href="#TimesNewRomanPS-BoldMT-6e" x="1482.339844"/>
     <use xlink:href="#TimesNewRomanPS-BoldMT-74" x="1537.955078"/>
     <use xlink:href="#TimesNewRomanPS-BoldMT-20" x="1571.255859"/>
     <use xlink:href="#TimesNewRomanPS-BoldMT-76" x="1596.255859"/>
     <use xlink:href="#TimesNewRomanPS-BoldMT-69" x="1646.255859"/>
     <use xlink:href="#TimesNewRomanPS-BoldMT-64" x="1674.039062"/>
     <use xlink:href="#TimesNewRomanPS-BoldMT-65" x="1729.654297"/>
     <use xlink:href="#TimesNewRomanPS-BoldMT-6f" x="1774.039062"/>
     <use xlink:href="#TimesNewRomanPS-BoldMT-20" x="1824.039062"/>
     <use xlink:href="#TimesNewRomanPS-BoldMT-70" x="1849.039062"/>
     <use xlink:href="#TimesNewRomanPS-BoldMT-6c" x="1904.654297"/>
     <use xlink:href="#TimesNewRomanPS-BoldMT-61" x="1932.4375"/>
     <use xlink:href="#TimesNewRomanPS-BoldMT-74" x="1982.4375"/>
     <use xlink:href="#TimesNewRomanPS-BoldMT-66" x="2015.738281"/>
     <use xlink:href="#TimesNewRomanPS-BoldMT-6f" x="2049.039062"/>
     <use xlink:href="#TimesNewRomanPS-BoldMT-72" x="2099.039062"/>
     <use xlink:href="#TimesNewRomanPS-BoldMT-6d" x="2143.423828"/>
     <use xlink:href="#TimesNewRomanPS-BoldMT-73" x="2226.724609"/>
     <use xlink:href="#TimesNewRomanPS-BoldMT-20" x="2265.640625"/>
     <use xlink:href="#TimesNewRomanPS-BoldMT-28" x="2290.640625"/>
     <use xlink:href="#TimesNewRomanPS-BoldMT-76" x="2323.941406"/>
     <use xlink:href="#TimesNewRomanPS-BoldMT-69" x="2373.941406"/>
     <use xlink:href="#TimesNewRomanPS-BoldMT-65" x="2401.724609"/>
     <use xlink:href="#TimesNewRomanPS-BoldMT-77" x="2446.109375"/>
     <use xlink:href="#TimesNewRomanPS-BoldMT-65" x="2518.326172"/>
     <use xlink:href="#TimesNewRomanPS-BoldMT-72" x="2562.710938"/>
     <use xlink:href="#TimesNewRomanPS-BoldMT-73" x="2607.095703"/>
     <use xlink:href="#TimesNewRomanPS-BoldMT-29" x="2646.011719"/>
    </g>
   </g>
  </g>
 </g>
 <defs>
  <clipPath id="pf26ce85750">
   <rect x="55.915938" y="30.045" width="371.79" height="238.379909"/>
  </clipPath>
 </defs>
</svg>
