<?xml version="1.0" encoding="utf-8" standalone="no"?>
<!DOCTYPE svg PUBLIC "-//W3C//DTD SVG 1.1//EN"
  "http://www.w3.org/Graphics/SVG/1.1/DTD/svg11.dtd">
<svg xmlns:xlink="http://www.w3.org/1999/xlink" width="520.5625pt" height="320.010529pt" viewBox="0 0 520.5625 320.010529" xmlns="http://www.w3.org/2000/svg" version="1.1">
 <metadata>
  <rdf:RDF xmlns:dc="http://purl.org/dc/elements/1.1/" xmlns:cc="http://creativecommons.org/ns#" xmlns:rdf="http://www.w3.org/1999/02/22-rdf-syntax-ns#">
   <cc:Work>
    <dc:type rdf:resource="http://purl.org/dc/dcmitype/StillImage"/>
    <dc:date>2025-05-26T17:17:58.706720</dc:date>
    <dc:format>image/svg+xml</dc:format>
    <dc:creator>
     <cc:Agent>
      <dc:title>Matplotlib v3.7.2, https://matplotlib.org/</dc:title>
     </cc:Agent>
    </dc:creator>
   </cc:Work>
  </rdf:RDF>
 </metadata>
 <defs>
  <style type="text/css">*{stroke-linejoin: round; stroke-linecap: butt}</style>
 </defs>
 <g id="figure_1">
  <g id="patch_1">
   <path d="M 0 320.010529 
L 520.5625 320.010529 
L 520.5625 0 
L 0 0 
z
" style="fill: #ffffff"/>
  </g>
  <g id="axes_1">
   <g id="patch_2">
    <path d="M 69.37625 241.759912 
L 451.18625 241.759912 
L 451.18625 30.045 
L 69.37625 30.045 
z
" style="fill: #ffffff"/>
   </g>
   <g id="PolyCollection_1">
    <defs>
     <path id="m6537fa30bb" d="M 101.825611 -130.392748 
L 100.561889 -130.392748 
L 100.515935 -131.649699 
L 100.462301 -132.90665 
L 100.395814 -134.163601 
L 100.310291 -135.420551 
L 100.198758 -136.677502 
L 100.053761 -137.934453 
L 99.867731 -139.191404 
L 99.633391 -140.448355 
L 99.344173 -141.705306 
L 98.994616 -142.962257 
L 98.580712 -144.219208 
L 98.100185 -145.476159 
L 97.552682 -146.73311 
L 96.93987 -147.99006 
L 96.265433 -149.247011 
L 95.534984 -150.503962 
L 94.755905 -151.760913 
L 93.937121 -153.017864 
L 93.088829 -154.274815 
L 92.222187 -155.531766 
L 91.34897 -156.788717 
L 90.481184 -158.045668 
L 89.630638 -159.302619 
L 88.808475 -160.55957 
L 88.024679 -161.81652 
L 87.287559 -163.073471 
L 86.603287 -164.330422 
L 85.975502 -165.587373 
L 85.40507 -166.844324 
L 84.890037 -168.101275 
L 84.425817 -169.358226 
L 84.005637 -170.615177 
L 83.621196 -171.872128 
L 83.26352 -173.129079 
L 82.923891 -174.38603 
L 82.594795 -175.64298 
L 82.270741 -176.899931 
L 81.948902 -178.156882 
L 81.629472 -179.413833 
L 81.315723 -180.670784 
L 81.013761 -181.927735 
L 80.732002 -183.184686 
L 80.480437 -184.441637 
L 80.269767 -185.698588 
L 80.110497 -186.955539 
L 80.012061 -188.212489 
L 79.982083 -189.46944 
L 80.025791 -190.726391 
L 80.145658 -191.983342 
L 80.341255 -193.240293 
L 80.609335 -194.497244 
L 80.944105 -195.754195 
L 81.337667 -197.011146 
L 81.780575 -198.268097 
L 82.262482 -199.525048 
L 82.772801 -200.781999 
L 83.301361 -202.038949 
L 83.839002 -203.2959 
L 84.378067 -204.552851 
L 84.912769 -205.809802 
L 85.439387 -207.066753 
L 85.956289 -208.323704 
L 86.463768 -209.580655 
L 86.963711 -210.837606 
L 87.45913 -212.094557 
L 87.953591 -213.351508 
L 88.450634 -214.608459 
L 88.95321 -215.865409 
L 89.463239 -217.12236 
L 89.981321 -218.379311 
L 90.506637 -219.636262 
L 91.037052 -220.893213 
L 91.56938 -222.150164 
L 92.099784 -223.407115 
L 92.624221 -224.664066 
L 93.138881 -225.921017 
L 93.640537 -227.177968 
L 94.126763 -228.434918 
L 94.596005 -229.691869 
L 95.047488 -230.94882 
L 95.481013 -232.205771 
L 95.896678 -233.462722 
L 96.294583 -234.719673 
L 96.67459 -235.976624 
L 97.036169 -237.233575 
L 97.378372 -238.490526 
L 97.699928 -239.747477 
L 97.999445 -241.004428 
L 98.275676 -242.261378 
L 98.527808 -243.518329 
L 98.755704 -244.77528 
L 98.960071 -246.032231 
L 99.142506 -247.289182 
L 99.305422 -248.546133 
L 99.451852 -249.803084 
L 99.585176 -251.060035 
L 99.708795 -252.316986 
L 99.825814 -253.573937 
L 99.93877 -254.830888 
L 102.44873 -254.830888 
L 102.44873 -254.830888 
L 102.561686 -253.573937 
L 102.678705 -252.316986 
L 102.802324 -251.060035 
L 102.935648 -249.803084 
L 103.082078 -248.546133 
L 103.244994 -247.289182 
L 103.427429 -246.032231 
L 103.631796 -244.77528 
L 103.859692 -243.518329 
L 104.111824 -242.261378 
L 104.388055 -241.004428 
L 104.687572 -239.747477 
L 105.009128 -238.490526 
L 105.351331 -237.233575 
L 105.71291 -235.976624 
L 106.092917 -234.719673 
L 106.490822 -233.462722 
L 106.906487 -232.205771 
L 107.340012 -230.94882 
L 107.791495 -229.691869 
L 108.260737 -228.434918 
L 108.746963 -227.177968 
L 109.248619 -225.921017 
L 109.763279 -224.664066 
L 110.287716 -223.407115 
L 110.81812 -222.150164 
L 111.350448 -220.893213 
L 111.880863 -219.636262 
L 112.406179 -218.379311 
L 112.924261 -217.12236 
L 113.43429 -215.865409 
L 113.936866 -214.608459 
L 114.433909 -213.351508 
L 114.92837 -212.094557 
L 115.423789 -210.837606 
L 115.923732 -209.580655 
L 116.431211 -208.323704 
L 116.948113 -207.066753 
L 117.474731 -205.809802 
L 118.009433 -204.552851 
L 118.548498 -203.2959 
L 119.086139 -202.038949 
L 119.614699 -200.781999 
L 120.125018 -199.525048 
L 120.606925 -198.268097 
L 121.049833 -197.011146 
L 121.443395 -195.754195 
L 121.778165 -194.497244 
L 122.046245 -193.240293 
L 122.241842 -191.983342 
L 122.361709 -190.726391 
L 122.405417 -189.46944 
L 122.375439 -188.212489 
L 122.277003 -186.955539 
L 122.117733 -185.698588 
L 121.907063 -184.441637 
L 121.655498 -183.184686 
L 121.373739 -181.927735 
L 121.071777 -180.670784 
L 120.758028 -179.413833 
L 120.438598 -178.156882 
L 120.116759 -176.899931 
L 119.792705 -175.64298 
L 119.463609 -174.38603 
L 119.12398 -173.129079 
L 118.766304 -171.872128 
L 118.381863 -170.615177 
L 117.961683 -169.358226 
L 117.497463 -168.101275 
L 116.98243 -166.844324 
L 116.411998 -165.587373 
L 115.784213 -164.330422 
L 115.099941 -163.073471 
L 114.362821 -161.81652 
L 113.579025 -160.55957 
L 112.756862 -159.302619 
L 111.906316 -158.045668 
L 111.03853 -156.788717 
L 110.165313 -155.531766 
L 109.298671 -154.274815 
L 108.450379 -153.017864 
L 107.631595 -151.760913 
L 106.852516 -150.503962 
L 106.122067 -149.247011 
L 105.44763 -147.99006 
L 104.834818 -146.73311 
L 104.287315 -145.476159 
L 103.806788 -144.219208 
L 103.392884 -142.962257 
L 103.043327 -141.705306 
L 102.754109 -140.448355 
L 102.519769 -139.191404 
L 102.333739 -137.934453 
L 102.188742 -136.677502 
L 102.077209 -135.420551 
L 101.991686 -134.163601 
L 101.925199 -132.90665 
L 101.871565 -131.649699 
L 101.825611 -130.392748 
z
" style="stroke: #000000; stroke-opacity: 0.7"/>
    </defs>
    <g clip-path="url(#pe77df8f04a)">
     <use xlink:href="#m6537fa30bb" x="0" y="320.010529" style="fill: #dbdb8d; fill-opacity: 0.7; stroke: #000000; stroke-opacity: 0.7"/>
    </g>
   </g>
   <g id="PolyCollection_2">
    <defs>
     <path id="mf2e8147765" d="M 167.240588 -100.913097 
L 162.416912 -100.913097 
L 162.13501 -102.725512 
L 161.844498 -104.537926 
L 161.547019 -106.350341 
L 161.243883 -108.162755 
L 160.936045 -109.975169 
L 160.624131 -111.787584 
L 160.30852 -113.599998 
L 159.98947 -115.412413 
L 159.667255 -117.224827 
L 159.342287 -119.037241 
L 159.015209 -120.849656 
L 158.686902 -122.66207 
L 158.358411 -124.474485 
L 158.030768 -126.286899 
L 157.70473 -128.099313 
L 157.380451 -129.911728 
L 157.057149 -131.724142 
L 156.732802 -133.536557 
L 156.403957 -135.348971 
L 156.065686 -137.161385 
L 155.711751 -138.9738 
L 155.334974 -140.786214 
L 154.927809 -142.598629 
L 154.483079 -144.411043 
L 153.994783 -146.223457 
L 153.45891 -148.035872 
L 152.874129 -149.848286 
L 152.242292 -151.660701 
L 151.568645 -153.473115 
L 150.861721 -155.28553 
L 150.132902 -157.097944 
L 149.395683 -158.910358 
L 148.664715 -160.722773 
L 147.954721 -162.535187 
L 147.279411 -164.347602 
L 146.650522 -166.160016 
L 146.077076 -167.97243 
L 145.564975 -169.784845 
L 145.116954 -171.597259 
L 144.732911 -173.409674 
L 144.410582 -175.222088 
L 144.146464 -177.034502 
L 143.936881 -178.846917 
L 143.779045 -180.659331 
L 143.671966 -182.471746 
L 143.617083 -184.28416 
L 143.618525 -186.096574 
L 143.682928 -187.908989 
L 143.81884 -189.721403 
L 144.035771 -191.533818 
L 144.34299 -193.346232 
L 144.748248 -195.158646 
L 145.256559 -196.971061 
L 145.869222 -198.783475 
L 146.583181 -200.59589 
L 147.390813 -202.408304 
L 148.280148 -204.220718 
L 149.235495 -206.033133 
L 150.238369 -207.845547 
L 151.268631 -209.657962 
L 152.305685 -211.470376 
L 153.329638 -213.28279 
L 154.3223 -215.095205 
L 155.267965 -216.907619 
L 156.153937 -218.720034 
L 156.970787 -220.532448 
L 157.712376 -222.344862 
L 158.375675 -224.157277 
L 158.960439 -225.969691 
L 159.468795 -227.782106 
L 159.904786 -229.59452 
L 160.273922 -231.406935 
L 160.582755 -233.219349 
L 160.838505 -235.031763 
L 161.048737 -236.844178 
L 161.22108 -238.656592 
L 161.362993 -240.469007 
L 161.481546 -242.281421 
L 161.583242 -244.093835 
L 161.673853 -245.90625 
L 161.75829 -247.718664 
L 161.84052 -249.531079 
L 161.923524 -251.343493 
L 162.009329 -253.155907 
L 162.099091 -254.968322 
L 162.193233 -256.780736 
L 162.291632 -258.593151 
L 162.393809 -260.405565 
L 162.499122 -262.217979 
L 162.606927 -264.030394 
L 162.716688 -265.842808 
L 162.828035 -267.655223 
L 162.940762 -269.467637 
L 163.054781 -271.280051 
L 163.170041 -273.092466 
L 163.286439 -274.90488 
L 163.403735 -276.717295 
L 163.521488 -278.529709 
L 163.639025 -280.342123 
L 166.018475 -280.342123 
L 166.018475 -280.342123 
L 166.136012 -278.529709 
L 166.253765 -276.717295 
L 166.371061 -274.90488 
L 166.487459 -273.092466 
L 166.602719 -271.280051 
L 166.716738 -269.467637 
L 166.829465 -267.655223 
L 166.940812 -265.842808 
L 167.050573 -264.030394 
L 167.158378 -262.217979 
L 167.263691 -260.405565 
L 167.365868 -258.593151 
L 167.464267 -256.780736 
L 167.558409 -254.968322 
L 167.648171 -253.155907 
L 167.733976 -251.343493 
L 167.81698 -249.531079 
L 167.89921 -247.718664 
L 167.983647 -245.90625 
L 168.074258 -244.093835 
L 168.175954 -242.281421 
L 168.294507 -240.469007 
L 168.43642 -238.656592 
L 168.608763 -236.844178 
L 168.818995 -235.031763 
L 169.074745 -233.219349 
L 169.383578 -231.406935 
L 169.752714 -229.59452 
L 170.188705 -227.782106 
L 170.697061 -225.969691 
L 171.281825 -224.157277 
L 171.945124 -222.344862 
L 172.686713 -220.532448 
L 173.503563 -218.720034 
L 174.389535 -216.907619 
L 175.3352 -215.095205 
L 176.327862 -213.28279 
L 177.351815 -211.470376 
L 178.388869 -209.657962 
L 179.419131 -207.845547 
L 180.422005 -206.033133 
L 181.377352 -204.220718 
L 182.266687 -202.408304 
L 183.074319 -200.59589 
L 183.788278 -198.783475 
L 184.400941 -196.971061 
L 184.909252 -195.158646 
L 185.31451 -193.346232 
L 185.621729 -191.533818 
L 185.83866 -189.721403 
L 185.974572 -187.908989 
L 186.038975 -186.096574 
L 186.040417 -184.28416 
L 185.985534 -182.471746 
L 185.878455 -180.659331 
L 185.720619 -178.846917 
L 185.511036 -177.034502 
L 185.246918 -175.222088 
L 184.924589 -173.409674 
L 184.540546 -171.597259 
L 184.092525 -169.784845 
L 183.580424 -167.97243 
L 183.006978 -166.160016 
L 182.378089 -164.347602 
L 181.702779 -162.535187 
L 180.992785 -160.722773 
L 180.261817 -158.910358 
L 179.524598 -157.097944 
L 178.795779 -155.28553 
L 178.088855 -153.473115 
L 177.415208 -151.660701 
L 176.783371 -149.848286 
L 176.19859 -148.035872 
L 175.662717 -146.223457 
L 175.174421 -144.411043 
L 174.729691 -142.598629 
L 174.322526 -140.786214 
L 173.945749 -138.9738 
L 173.591814 -137.161385 
L 173.253543 -135.348971 
L 172.924698 -133.536557 
L 172.600351 -131.724142 
L 172.277049 -129.911728 
L 171.95277 -128.099313 
L 171.626732 -126.286899 
L 171.299089 -124.474485 
L 170.970598 -122.66207 
L 170.642291 -120.849656 
L 170.315213 -119.037241 
L 169.990245 -117.224827 
L 169.66803 -115.412413 
L 169.34898 -113.599998 
L 169.033369 -111.787584 
L 168.721455 -109.975169 
L 168.413617 -108.162755 
L 168.110481 -106.350341 
L 167.813002 -104.537926 
L 167.52249 -102.725512 
L 167.240588 -100.913097 
z
" style="stroke: #000000; stroke-opacity: 0.7"/>
    </defs>
    <g clip-path="url(#pe77df8f04a)">
     <use xlink:href="#mf2e8147765" x="0" y="320.010529" style="fill: #f7b6d2; fill-opacity: 0.7; stroke: #000000; stroke-opacity: 0.7"/>
    </g>
   </g>
   <g id="PolyCollection_3">
    <defs>
     <path id="m3a95cde771" d="M 230.101937 -138.329577 
L 226.825563 -138.329577 
L 226.580525 -139.555032 
L 226.314218 -140.780488 
L 226.028169 -142.005943 
L 225.724686 -143.231399 
L 225.406764 -144.456855 
L 225.077906 -145.68231 
L 224.741834 -146.907766 
L 224.402124 -148.133221 
L 224.061801 -149.358677 
L 223.722912 -150.584132 
L 223.386155 -151.809588 
L 223.050601 -153.035043 
L 222.713551 -154.260499 
L 222.370567 -155.485954 
L 222.01569 -156.71141 
L 221.641828 -157.936866 
L 221.241294 -159.162321 
L 220.806442 -160.387777 
L 220.330342 -161.613232 
L 219.807426 -162.838688 
L 219.234043 -164.064143 
L 218.608877 -165.289599 
L 217.933173 -166.515054 
L 217.210789 -167.74051 
L 216.448045 -168.965966 
L 215.653425 -170.191421 
L 214.837147 -171.416877 
L 214.010675 -172.642332 
L 213.186206 -173.867788 
L 212.376176 -175.093243 
L 211.59283 -176.318699 
L 210.847862 -177.544154 
L 210.152135 -178.76961 
L 209.515467 -179.995066 
L 208.946466 -181.220521 
L 208.452401 -182.445977 
L 208.039081 -183.671432 
L 207.710738 -184.896888 
L 207.469921 -186.122343 
L 207.317395 -187.347799 
L 207.252083 -188.573254 
L 207.27106 -189.79871 
L 207.369625 -191.024166 
L 207.541469 -192.249621 
L 207.778935 -193.475077 
L 208.073383 -194.700532 
L 208.415617 -195.925988 
L 208.796369 -197.151443 
L 209.206785 -198.376899 
L 209.638893 -199.602354 
L 210.085999 -200.82781 
L 210.542975 -202.053266 
L 211.006433 -203.278721 
L 211.474739 -204.504177 
L 211.947895 -205.729632 
L 212.427269 -206.955088 
L 212.915219 -208.180543 
L 213.414641 -209.405999 
L 213.928469 -210.631454 
L 214.459196 -211.85691 
L 215.008448 -213.082365 
L 215.576649 -214.307821 
L 216.162808 -215.533277 
L 216.764442 -216.758732 
L 217.377621 -217.984188 
L 217.997138 -219.209643 
L 218.616758 -220.435099 
L 219.229532 -221.660554 
L 219.828132 -222.88601 
L 220.405196 -224.111465 
L 220.95365 -225.336921 
L 221.467016 -226.562377 
L 221.93968 -227.787832 
L 222.367143 -229.013288 
L 222.746237 -230.238743 
L 223.075306 -231.464199 
L 223.354346 -232.689654 
L 223.585084 -233.91511 
L 223.770978 -235.140565 
L 223.917121 -236.366021 
L 224.030037 -237.591477 
L 224.11737 -238.816932 
L 224.187481 -240.042388 
L 224.248964 -241.267843 
L 224.310146 -242.493299 
L 224.378584 -243.718754 
L 224.460631 -244.94421 
L 224.561101 -246.169665 
L 224.683061 -247.395121 
L 224.827772 -248.620577 
L 224.994776 -249.846032 
L 225.182099 -251.071488 
L 225.386562 -252.296943 
L 225.604137 -253.522399 
L 225.830322 -254.747854 
L 226.060497 -255.97331 
L 226.290225 -257.198765 
L 226.515483 -258.424221 
L 226.732823 -259.649677 
L 230.194677 -259.649677 
L 230.194677 -259.649677 
L 230.412017 -258.424221 
L 230.637275 -257.198765 
L 230.867003 -255.97331 
L 231.097178 -254.747854 
L 231.323363 -253.522399 
L 231.540938 -252.296943 
L 231.745401 -251.071488 
L 231.932724 -249.846032 
L 232.099728 -248.620577 
L 232.244439 -247.395121 
L 232.366399 -246.169665 
L 232.466869 -244.94421 
L 232.548916 -243.718754 
L 232.617354 -242.493299 
L 232.678536 -241.267843 
L 232.740019 -240.042388 
L 232.81013 -238.816932 
L 232.897463 -237.591477 
L 233.010379 -236.366021 
L 233.156522 -235.140565 
L 233.342416 -233.91511 
L 233.573154 -232.689654 
L 233.852194 -231.464199 
L 234.181263 -230.238743 
L 234.560357 -229.013288 
L 234.98782 -227.787832 
L 235.460484 -226.562377 
L 235.97385 -225.336921 
L 236.522304 -224.111465 
L 237.099368 -222.88601 
L 237.697968 -221.660554 
L 238.310742 -220.435099 
L 238.930362 -219.209643 
L 239.549879 -217.984188 
L 240.163058 -216.758732 
L 240.764692 -215.533277 
L 241.350851 -214.307821 
L 241.919052 -213.082365 
L 242.468304 -211.85691 
L 242.999031 -210.631454 
L 243.512859 -209.405999 
L 244.012281 -208.180543 
L 244.500231 -206.955088 
L 244.979605 -205.729632 
L 245.452761 -204.504177 
L 245.921067 -203.278721 
L 246.384525 -202.053266 
L 246.841501 -200.82781 
L 247.288607 -199.602354 
L 247.720715 -198.376899 
L 248.131131 -197.151443 
L 248.511883 -195.925988 
L 248.854117 -194.700532 
L 249.148565 -193.475077 
L 249.386031 -192.249621 
L 249.557875 -191.024166 
L 249.65644 -189.79871 
L 249.675417 -188.573254 
L 249.610105 -187.347799 
L 249.457579 -186.122343 
L 249.216762 -184.896888 
L 248.888419 -183.671432 
L 248.475099 -182.445977 
L 247.981034 -181.220521 
L 247.412033 -179.995066 
L 246.775365 -178.76961 
L 246.079638 -177.544154 
L 245.33467 -176.318699 
L 244.551324 -175.093243 
L 243.741294 -173.867788 
L 242.916825 -172.642332 
L 242.090353 -171.416877 
L 241.274075 -170.191421 
L 240.479455 -168.965966 
L 239.716711 -167.74051 
L 238.994327 -166.515054 
L 238.318623 -165.289599 
L 237.693457 -164.064143 
L 237.120074 -162.838688 
L 236.597158 -161.613232 
L 236.121058 -160.387777 
L 235.686206 -159.162321 
L 235.285672 -157.936866 
L 234.91181 -156.71141 
L 234.556933 -155.485954 
L 234.213949 -154.260499 
L 233.876899 -153.035043 
L 233.541345 -151.809588 
L 233.204588 -150.584132 
L 232.865699 -149.358677 
L 232.525376 -148.133221 
L 232.185666 -146.907766 
L 231.849594 -145.68231 
L 231.520736 -144.456855 
L 231.202814 -143.231399 
L 230.899331 -142.005943 
L 230.613282 -140.780488 
L 230.346975 -139.555032 
L 230.101937 -138.329577 
z
" style="stroke: #000000; stroke-opacity: 0.7"/>
    </defs>
    <g clip-path="url(#pe77df8f04a)">
     <use xlink:href="#m3a95cde771" x="0" y="320.010529" style="fill: #8da0cb; fill-opacity: 0.7; stroke: #000000; stroke-opacity: 0.7"/>
    </g>
   </g>
   <g id="PolyCollection_4">
    <defs>
     <path id="mb1bcb12aef" d="M 293.724216 -95.527392 
L 290.473284 -95.527392 
L 290.329862 -97.047759 
L 290.189269 -98.568125 
L 290.052793 -100.088492 
L 289.921246 -101.608858 
L 289.794844 -103.129225 
L 289.673093 -104.649592 
L 289.554709 -106.169958 
L 289.43757 -107.690325 
L 289.318721 -109.210691 
L 289.194424 -110.731058 
L 289.060273 -112.251424 
L 288.911371 -113.771791 
L 288.742551 -115.292158 
L 288.548659 -116.812524 
L 288.32485 -118.332891 
L 288.066905 -119.853257 
L 287.771535 -121.373624 
L 287.43664 -122.893991 
L 287.061511 -124.414357 
L 286.646947 -125.934724 
L 286.195273 -127.45509 
L 285.710256 -128.975457 
L 285.196919 -130.495823 
L 284.661259 -132.01619 
L 284.109908 -133.536557 
L 283.549742 -135.056923 
L 282.987491 -136.57729 
L 282.429376 -138.097656 
L 281.880795 -139.618023 
L 281.346102 -141.13839 
L 280.828474 -142.658756 
L 280.329883 -144.179123 
L 279.851165 -145.699489 
L 279.392161 -147.219856 
L 278.951925 -148.740223 
L 278.528956 -150.260589 
L 278.121434 -151.780956 
L 277.727446 -153.301322 
L 277.345165 -154.821689 
L 276.972983 -156.342055 
L 276.609599 -157.862422 
L 276.254046 -159.382789 
L 275.905671 -160.903155 
L 275.56409 -162.423522 
L 275.22911 -163.943888 
L 274.900644 -165.464255 
L 274.578636 -166.984622 
L 274.262996 -168.504988 
L 273.953577 -170.025355 
L 273.65019 -171.545721 
L 273.352671 -173.066088 
L 273.061002 -174.586454 
L 272.775473 -176.106821 
L 272.496888 -177.627188 
L 272.226778 -179.147554 
L 271.967598 -180.667921 
L 271.722884 -182.188287 
L 271.497324 -183.708654 
L 271.296727 -185.229021 
L 271.127867 -186.749387 
L 270.998192 -188.269754 
L 270.915429 -189.79012 
L 270.887083 -191.310487 
L 270.91991 -192.830854 
L 271.019383 -194.35122 
L 271.189235 -195.871587 
L 271.431121 -197.391953 
L 271.744439 -198.91232 
L 272.126339 -200.432686 
L 272.571918 -201.953053 
L 273.074583 -203.47342 
L 273.626541 -204.993786 
L 274.21935 -206.514153 
L 274.844484 -208.034519 
L 275.493835 -209.554886 
L 276.160107 -211.075253 
L 276.837069 -212.595619 
L 277.519647 -214.115986 
L 278.203871 -215.636352 
L 278.886693 -217.156719 
L 279.565732 -218.677085 
L 280.238983 -220.197452 
L 280.904545 -221.717819 
L 281.560415 -223.238185 
L 282.204364 -224.758552 
L 282.833913 -226.278918 
L 283.446417 -227.799285 
L 284.039211 -229.319652 
L 284.609809 -230.840018 
L 285.156116 -232.360385 
L 285.676601 -233.880751 
L 286.170427 -235.401118 
L 286.637496 -236.921484 
L 287.078409 -238.441851 
L 287.494355 -239.962218 
L 287.88693 -241.482584 
L 288.257929 -243.002951 
L 288.609125 -244.523317 
L 288.942074 -246.043684 
L 295.255426 -246.043684 
L 295.255426 -246.043684 
L 295.588375 -244.523317 
L 295.939571 -243.002951 
L 296.31057 -241.482584 
L 296.703145 -239.962218 
L 297.119091 -238.441851 
L 297.560004 -236.921484 
L 298.027073 -235.401118 
L 298.520899 -233.880751 
L 299.041384 -232.360385 
L 299.587691 -230.840018 
L 300.158289 -229.319652 
L 300.751083 -227.799285 
L 301.363587 -226.278918 
L 301.993136 -224.758552 
L 302.637085 -223.238185 
L 303.292955 -221.717819 
L 303.958517 -220.197452 
L 304.631768 -218.677085 
L 305.310807 -217.156719 
L 305.993629 -215.636352 
L 306.677853 -214.115986 
L 307.360431 -212.595619 
L 308.037393 -211.075253 
L 308.703665 -209.554886 
L 309.353016 -208.034519 
L 309.97815 -206.514153 
L 310.570959 -204.993786 
L 311.122917 -203.47342 
L 311.625582 -201.953053 
L 312.071161 -200.432686 
L 312.453061 -198.91232 
L 312.766379 -197.391953 
L 313.008265 -195.871587 
L 313.178117 -194.35122 
L 313.27759 -192.830854 
L 313.310417 -191.310487 
L 313.282071 -189.79012 
L 313.199308 -188.269754 
L 313.069633 -186.749387 
L 312.900773 -185.229021 
L 312.700176 -183.708654 
L 312.474616 -182.188287 
L 312.229902 -180.667921 
L 311.970722 -179.147554 
L 311.700612 -177.627188 
L 311.422027 -176.106821 
L 311.136498 -174.586454 
L 310.844829 -173.066088 
L 310.54731 -171.545721 
L 310.243923 -170.025355 
L 309.934504 -168.504988 
L 309.618864 -166.984622 
L 309.296856 -165.464255 
L 308.96839 -163.943888 
L 308.63341 -162.423522 
L 308.291829 -160.903155 
L 307.943454 -159.382789 
L 307.587901 -157.862422 
L 307.224517 -156.342055 
L 306.852335 -154.821689 
L 306.470054 -153.301322 
L 306.076066 -151.780956 
L 305.668544 -150.260589 
L 305.245575 -148.740223 
L 304.805339 -147.219856 
L 304.346335 -145.699489 
L 303.867617 -144.179123 
L 303.369026 -142.658756 
L 302.851398 -141.13839 
L 302.316705 -139.618023 
L 301.768124 -138.097656 
L 301.210009 -136.57729 
L 300.647758 -135.056923 
L 300.087592 -133.536557 
L 299.536241 -132.01619 
L 299.000581 -130.495823 
L 298.487244 -128.975457 
L 298.002227 -127.45509 
L 297.550553 -125.934724 
L 297.135989 -124.414357 
L 296.76086 -122.893991 
L 296.425965 -121.373624 
L 296.130595 -119.853257 
L 295.87265 -118.332891 
L 295.648841 -116.812524 
L 295.454949 -115.292158 
L 295.286129 -113.771791 
L 295.137227 -112.251424 
L 295.003076 -110.731058 
L 294.878779 -109.210691 
L 294.75993 -107.690325 
L 294.642791 -106.169958 
L 294.524407 -104.649592 
L 294.402656 -103.129225 
L 294.276254 -101.608858 
L 294.144707 -100.088492 
L 294.008231 -98.568125 
L 293.867638 -97.047759 
L 293.724216 -95.527392 
z
" style="stroke: #000000; stroke-opacity: 0.7"/>
    </defs>
    <g clip-path="url(#pe77df8f04a)">
     <use xlink:href="#mb1bcb12aef" x="0" y="320.010529" style="fill: #98df8a; fill-opacity: 0.7; stroke: #000000; stroke-opacity: 0.7"/>
    </g>
   </g>
   <g id="PolyCollection_5">
    <defs>
     <path id="mb721a28cc8" d="M 357.051284 -87.874021 
L 354.416216 -87.874021 
L 354.321594 -89.491737 
L 354.228003 -91.109453 
L 354.133294 -92.727169 
L 354.034805 -94.344885 
L 353.92958 -95.962601 
L 353.8146 -97.580316 
L 353.686973 -99.198032 
L 353.544067 -100.815748 
L 353.383571 -102.433464 
L 353.203489 -104.05118 
L 353.002083 -105.668896 
L 352.777786 -107.286612 
L 352.529118 -108.904327 
L 352.254637 -110.522043 
L 351.952909 -112.139759 
L 351.622528 -113.757475 
L 351.262156 -115.375191 
L 350.870579 -116.992907 
L 350.446743 -118.610623 
L 349.989788 -120.228338 
L 349.499059 -121.846054 
L 348.974103 -123.46377 
L 348.414695 -125.081486 
L 347.820887 -126.699202 
L 347.193096 -128.316918 
L 346.532261 -129.934634 
L 345.840009 -131.552349 
L 345.118852 -133.170065 
L 344.372345 -134.787781 
L 343.605182 -136.405497 
L 342.823215 -138.023213 
L 342.033364 -139.640929 
L 341.243442 -141.258645 
L 340.461913 -142.87636 
L 339.697612 -144.494076 
L 338.959459 -146.111792 
L 338.256196 -147.729508 
L 337.596157 -149.347224 
L 336.987057 -150.96494 
L 336.435807 -152.582656 
L 335.948316 -154.200371 
L 335.5293 -155.818087 
L 335.182083 -157.435803 
L 334.908434 -159.053519 
L 334.708469 -160.671235 
L 334.580676 -162.288951 
L 334.522083 -163.906667 
L 334.528602 -165.524382 
L 334.595518 -167.142098 
L 334.718077 -168.759814 
L 334.89209 -170.37753 
L 335.114454 -171.995246 
L 335.383491 -173.612962 
L 335.699043 -175.230678 
L 336.062284 -176.848393 
L 336.475277 -178.466109 
L 336.940324 -180.083825 
L 337.459236 -181.701541 
L 338.032622 -183.319257 
L 338.659318 -184.936973 
L 339.336034 -186.554689 
L 340.057276 -188.172404 
L 340.815524 -189.79012 
L 341.601632 -191.407836 
L 342.405383 -193.025552 
L 343.2161 -194.643268 
L 344.023238 -196.260984 
L 344.8169 -197.8787 
L 345.588221 -199.496415 
L 346.329623 -201.114131 
L 347.034933 -202.731847 
L 347.699397 -204.349563 
L 348.31962 -205.967279 
L 348.893456 -207.584995 
L 349.419895 -209.202711 
L 349.898948 -210.820427 
L 350.331553 -212.438142 
L 350.719508 -214.055858 
L 351.065414 -215.673574 
L 351.372624 -217.29129 
L 351.64517 -218.909006 
L 351.887656 -220.526722 
L 352.1051 -222.144438 
L 352.30272 -223.762153 
L 352.485674 -225.379869 
L 352.658767 -226.997585 
L 352.826174 -228.615301 
L 352.991196 -230.233017 
L 353.1561 -231.850733 
L 353.322065 -233.468449 
L 353.489232 -235.086164 
L 353.656871 -236.70388 
L 353.823617 -238.321596 
L 353.987749 -239.939312 
L 354.147469 -241.557028 
L 354.301134 -243.174744 
L 354.447422 -244.79246 
L 354.585411 -246.410175 
L 354.714585 -248.027891 
L 356.752915 -248.027891 
L 356.752915 -248.027891 
L 356.882089 -246.410175 
L 357.020078 -244.79246 
L 357.166366 -243.174744 
L 357.320031 -241.557028 
L 357.479751 -239.939312 
L 357.643883 -238.321596 
L 357.810629 -236.70388 
L 357.978268 -235.086164 
L 358.145435 -233.468449 
L 358.3114 -231.850733 
L 358.476304 -230.233017 
L 358.641326 -228.615301 
L 358.808733 -226.997585 
L 358.981826 -225.379869 
L 359.16478 -223.762153 
L 359.3624 -222.144438 
L 359.579844 -220.526722 
L 359.82233 -218.909006 
L 360.094876 -217.29129 
L 360.402086 -215.673574 
L 360.747992 -214.055858 
L 361.135947 -212.438142 
L 361.568552 -210.820427 
L 362.047605 -209.202711 
L 362.574044 -207.584995 
L 363.14788 -205.967279 
L 363.768103 -204.349563 
L 364.432567 -202.731847 
L 365.137877 -201.114131 
L 365.879279 -199.496415 
L 366.6506 -197.8787 
L 367.444262 -196.260984 
L 368.2514 -194.643268 
L 369.062117 -193.025552 
L 369.865868 -191.407836 
L 370.651976 -189.79012 
L 371.410224 -188.172404 
L 372.131466 -186.554689 
L 372.808182 -184.936973 
L 373.434878 -183.319257 
L 374.008264 -181.701541 
L 374.527176 -180.083825 
L 374.992223 -178.466109 
L 375.405216 -176.848393 
L 375.768457 -175.230678 
L 376.084009 -173.612962 
L 376.353046 -171.995246 
L 376.57541 -170.37753 
L 376.749423 -168.759814 
L 376.871982 -167.142098 
L 376.938898 -165.524382 
L 376.945417 -163.906667 
L 376.886824 -162.288951 
L 376.759031 -160.671235 
L 376.559066 -159.053519 
L 376.285417 -157.435803 
L 375.9382 -155.818087 
L 375.519184 -154.200371 
L 375.031693 -152.582656 
L 374.480443 -150.96494 
L 373.871343 -149.347224 
L 373.211304 -147.729508 
L 372.508041 -146.111792 
L 371.769888 -144.494076 
L 371.005587 -142.87636 
L 370.224058 -141.258645 
L 369.434136 -139.640929 
L 368.644285 -138.023213 
L 367.862318 -136.405497 
L 367.095155 -134.787781 
L 366.348648 -133.170065 
L 365.627491 -131.552349 
L 364.935239 -129.934634 
L 364.274404 -128.316918 
L 363.646613 -126.699202 
L 363.052805 -125.081486 
L 362.493397 -123.46377 
L 361.968441 -121.846054 
L 361.477712 -120.228338 
L 361.020757 -118.610623 
L 360.596921 -116.992907 
L 360.205344 -115.375191 
L 359.844972 -113.757475 
L 359.514591 -112.139759 
L 359.212863 -110.522043 
L 358.938382 -108.904327 
L 358.689714 -107.286612 
L 358.465417 -105.668896 
L 358.264011 -104.05118 
L 358.083929 -102.433464 
L 357.923433 -100.815748 
L 357.780527 -99.198032 
L 357.6529 -97.580316 
L 357.53792 -95.962601 
L 357.432695 -94.344885 
L 357.334206 -92.727169 
L 357.239497 -91.109453 
L 357.145906 -89.491737 
L 357.051284 -87.874021 
z
" style="stroke: #000000; stroke-opacity: 0.7"/>
    </defs>
    <g clip-path="url(#pe77df8f04a)">
     <use xlink:href="#mb721a28cc8" x="0" y="320.010529" style="fill: #ffbb78; fill-opacity: 0.7; stroke: #000000; stroke-opacity: 0.7"/>
    </g>
   </g>
   <g id="PolyCollection_6">
    <defs>
     <path id="mddbc95541b" d="M 420.643616 -134.077704 
L 418.093884 -134.077704 
L 417.944865 -135.240169 
L 417.785691 -136.402634 
L 417.614957 -137.565099 
L 417.430883 -138.727563 
L 417.231413 -139.890028 
L 417.01437 -141.052493 
L 416.777669 -142.214958 
L 416.519553 -143.377423 
L 416.23885 -144.539888 
L 415.93519 -145.702353 
L 415.609167 -146.864817 
L 415.262402 -148.027282 
L 414.897477 -149.189747 
L 414.517737 -150.352212 
L 414.126964 -151.514677 
L 413.728948 -152.677142 
L 413.327014 -153.839606 
L 412.923556 -155.002071 
L 412.519663 -156.164536 
L 412.114896 -157.327001 
L 411.707274 -158.489466 
L 411.293491 -159.651931 
L 410.869351 -160.814396 
L 410.430397 -161.97686 
L 409.972626 -163.139325 
L 409.493222 -164.30179 
L 408.991169 -165.464255 
L 408.46766 -166.62672 
L 407.926214 -167.789185 
L 407.372474 -168.95165 
L 406.813687 -170.114114 
L 406.25794 -171.276579 
L 405.713243 -172.439044 
L 405.186608 -173.601509 
L 404.683246 -174.763974 
L 404.206013 -175.926439 
L 403.755188 -177.088903 
L 403.328621 -178.251368 
L 402.922215 -179.413833 
L 402.530682 -180.576298 
L 402.148448 -181.738763 
L 401.77057 -182.901228 
L 401.393536 -184.063693 
L 401.015847 -185.226157 
L 400.638305 -186.388622 
L 400.264008 -187.551087 
L 399.898074 -188.713552 
L 399.547177 -189.876017 
L 399.218981 -191.038482 
L 398.92157 -192.200946 
L 398.662955 -193.363411 
L 398.450705 -194.525876 
L 398.29171 -195.688341 
L 398.192075 -196.850806 
L 398.157083 -198.013271 
L 398.1912 -199.175736 
L 398.298058 -200.3382 
L 398.4804 -201.500665 
L 398.739976 -202.66313 
L 399.077398 -203.825595 
L 399.491989 -204.98806 
L 399.981655 -206.150525 
L 400.542809 -207.312989 
L 401.170378 -208.475454 
L 401.857872 -209.637919 
L 402.597527 -210.800384 
L 403.380492 -211.962849 
L 404.197033 -213.125314 
L 405.036751 -214.287779 
L 405.88879 -215.450243 
L 406.742051 -216.612708 
L 407.585426 -217.775173 
L 408.408064 -218.937638 
L 409.199685 -220.100103 
L 409.950953 -221.262568 
L 410.653881 -222.425032 
L 411.30225 -223.587497 
L 411.891984 -224.749962 
L 412.421436 -225.912427 
L 412.891536 -227.074892 
L 413.305741 -228.237357 
L 413.669787 -229.399822 
L 413.991236 -230.562286 
L 414.278863 -231.724751 
L 414.541926 -232.887216 
L 414.789415 -234.049681 
L 415.02935 -235.212146 
L 415.26821 -236.374611 
L 415.51055 -237.537075 
L 415.758838 -238.69954 
L 416.013522 -239.862005 
L 416.273286 -241.02447 
L 416.535463 -242.186935 
L 416.796522 -243.3494 
L 417.052579 -244.511865 
L 417.299848 -245.674329 
L 417.535008 -246.836794 
L 417.755447 -247.999259 
L 417.959369 -249.161724 
L 420.778131 -249.161724 
L 420.778131 -249.161724 
L 420.982053 -247.999259 
L 421.202492 -246.836794 
L 421.437652 -245.674329 
L 421.684921 -244.511865 
L 421.940978 -243.3494 
L 422.202037 -242.186935 
L 422.464214 -241.02447 
L 422.723978 -239.862005 
L 422.978662 -238.69954 
L 423.22695 -237.537075 
L 423.46929 -236.374611 
L 423.70815 -235.212146 
L 423.948085 -234.049681 
L 424.195574 -232.887216 
L 424.458637 -231.724751 
L 424.746264 -230.562286 
L 425.067713 -229.399822 
L 425.431759 -228.237357 
L 425.845964 -227.074892 
L 426.316064 -225.912427 
L 426.845516 -224.749962 
L 427.43525 -223.587497 
L 428.083619 -222.425032 
L 428.786547 -221.262568 
L 429.537815 -220.100103 
L 430.329436 -218.937638 
L 431.152074 -217.775173 
L 431.995449 -216.612708 
L 432.84871 -215.450243 
L 433.700749 -214.287779 
L 434.540467 -213.125314 
L 435.357008 -211.962849 
L 436.139973 -210.800384 
L 436.879628 -209.637919 
L 437.567122 -208.475454 
L 438.194691 -207.312989 
L 438.755845 -206.150525 
L 439.245511 -204.98806 
L 439.660102 -203.825595 
L 439.997524 -202.66313 
L 440.2571 -201.500665 
L 440.439442 -200.3382 
L 440.5463 -199.175736 
L 440.580417 -198.013271 
L 440.545425 -196.850806 
L 440.44579 -195.688341 
L 440.286795 -194.525876 
L 440.074545 -193.363411 
L 439.81593 -192.200946 
L 439.518519 -191.038482 
L 439.190323 -189.876017 
L 438.839426 -188.713552 
L 438.473492 -187.551087 
L 438.099195 -186.388622 
L 437.721653 -185.226157 
L 437.343964 -184.063693 
L 436.96693 -182.901228 
L 436.589052 -181.738763 
L 436.206818 -180.576298 
L 435.815285 -179.413833 
L 435.408879 -178.251368 
L 434.982312 -177.088903 
L 434.531487 -175.926439 
L 434.054254 -174.763974 
L 433.550892 -173.601509 
L 433.024257 -172.439044 
L 432.47956 -171.276579 
L 431.923813 -170.114114 
L 431.365026 -168.95165 
L 430.811286 -167.789185 
L 430.26984 -166.62672 
L 429.746331 -165.464255 
L 429.244278 -164.30179 
L 428.764874 -163.139325 
L 428.307103 -161.97686 
L 427.868149 -160.814396 
L 427.444009 -159.651931 
L 427.030226 -158.489466 
L 426.622604 -157.327001 
L 426.217837 -156.164536 
L 425.813944 -155.002071 
L 425.410486 -153.839606 
L 425.008552 -152.677142 
L 424.610536 -151.514677 
L 424.219763 -150.352212 
L 423.840023 -149.189747 
L 423.475098 -148.027282 
L 423.128333 -146.864817 
L 422.80231 -145.702353 
L 422.49865 -144.539888 
L 422.217947 -143.377423 
L 421.959831 -142.214958 
L 421.72313 -141.052493 
L 421.506087 -139.890028 
L 421.306617 -138.727563 
L 421.122543 -137.565099 
L 420.951809 -136.402634 
L 420.792635 -135.240169 
L 420.643616 -134.077704 
z
" style="stroke: #000000; stroke-opacity: 0.7"/>
    </defs>
    <g clip-path="url(#pe77df8f04a)">
     <use xlink:href="#mddbc95541b" x="0" y="320.010529" style="fill: #2ca02c; fill-opacity: 0.7; stroke: #000000; stroke-opacity: 0.7"/>
    </g>
   </g>
   <g id="matplotlib.axis_1">
    <g id="xtick_1">
     <g id="line2d_1">
      <defs>
       <path id="md7045e4b3b" d="M 0 0 
L 0 3.5 
" style="stroke: #000000; stroke-width: 0.8"/>
      </defs>
      <g>
       <use xlink:href="#md7045e4b3b" x="101.19375" y="241.759912" style="stroke: #000000; stroke-width: 0.8"/>
      </g>
     </g>
     <g id="text_1">
      <!-- Dark Horizon -->
      <g transform="translate(52.489561 301.541014) rotate(-45) scale(0.12 -0.12)">
       <defs>
        <path id="TimesNewRomanPSMT-44" d="M 109 0 
L 109 116 
L 269 116 
Q 538 116 650 288 
Q 719 391 719 750 
L 719 3488 
Q 719 3884 631 3984 
Q 509 4122 269 4122 
L 109 4122 
L 109 4238 
L 1834 4238 
Q 2784 4238 3279 4022 
Q 3775 3806 4076 3303 
Q 4378 2800 4378 2141 
Q 4378 1256 3841 663 
Q 3238 0 2003 0 
L 109 0 
z
M 1319 306 
Q 1716 219 1984 219 
Q 2709 219 3187 728 
Q 3666 1238 3666 2109 
Q 3666 2988 3187 3494 
Q 2709 4000 1959 4000 
Q 1678 4000 1319 3909 
L 1319 306 
z
" transform="scale(0.015625)"/>
        <path id="TimesNewRomanPSMT-61" d="M 1822 413 
Q 1381 72 1269 19 
Q 1100 -59 909 -59 
Q 613 -59 420 144 
Q 228 347 228 678 
Q 228 888 322 1041 
Q 450 1253 767 1440 
Q 1084 1628 1822 1897 
L 1822 2009 
Q 1822 2438 1686 2597 
Q 1550 2756 1291 2756 
Q 1094 2756 978 2650 
Q 859 2544 859 2406 
L 866 2225 
Q 866 2081 792 2003 
Q 719 1925 600 1925 
Q 484 1925 411 2006 
Q 338 2088 338 2228 
Q 338 2497 613 2722 
Q 888 2947 1384 2947 
Q 1766 2947 2009 2819 
Q 2194 2722 2281 2516 
Q 2338 2381 2338 1966 
L 2338 994 
Q 2338 584 2353 492 
Q 2369 400 2405 369 
Q 2441 338 2488 338 
Q 2538 338 2575 359 
Q 2641 400 2828 588 
L 2828 413 
Q 2478 -56 2159 -56 
Q 2006 -56 1915 50 
Q 1825 156 1822 413 
z
M 1822 616 
L 1822 1706 
Q 1350 1519 1213 1441 
Q 966 1303 859 1153 
Q 753 1003 753 825 
Q 753 600 887 451 
Q 1022 303 1197 303 
Q 1434 303 1822 616 
z
" transform="scale(0.015625)"/>
        <path id="TimesNewRomanPSMT-72" d="M 1038 2947 
L 1038 2303 
Q 1397 2947 1775 2947 
Q 1947 2947 2059 2842 
Q 2172 2738 2172 2600 
Q 2172 2478 2090 2393 
Q 2009 2309 1897 2309 
Q 1788 2309 1652 2417 
Q 1516 2525 1450 2525 
Q 1394 2525 1328 2463 
Q 1188 2334 1038 2041 
L 1038 669 
Q 1038 431 1097 309 
Q 1138 225 1241 169 
Q 1344 113 1538 113 
L 1538 0 
L 72 0 
L 72 113 
Q 291 113 397 181 
Q 475 231 506 341 
Q 522 394 522 644 
L 522 1753 
Q 522 2253 501 2348 
Q 481 2444 426 2487 
Q 372 2531 291 2531 
Q 194 2531 72 2484 
L 41 2597 
L 906 2947 
L 1038 2947 
z
" transform="scale(0.015625)"/>
        <path id="TimesNewRomanPSMT-6b" d="M 1047 4444 
L 1047 1597 
L 1775 2259 
Q 2006 2472 2044 2528 
Q 2069 2566 2069 2603 
Q 2069 2666 2017 2711 
Q 1966 2756 1847 2763 
L 1847 2863 
L 3091 2863 
L 3091 2763 
Q 2834 2756 2664 2684 
Q 2494 2613 2291 2428 
L 1556 1750 
L 2291 822 
Q 2597 438 2703 334 
Q 2853 188 2966 144 
Q 3044 113 3238 113 
L 3238 0 
L 1847 0 
L 1847 113 
Q 1966 116 2008 148 
Q 2050 181 2050 241 
Q 2050 313 1925 472 
L 1047 1594 
L 1047 644 
Q 1047 366 1086 278 
Q 1125 191 1197 153 
Q 1269 116 1509 113 
L 1509 0 
L 53 0 
L 53 113 
Q 272 113 381 166 
Q 447 200 481 272 
Q 528 375 528 628 
L 528 3234 
Q 528 3731 506 3842 
Q 484 3953 434 3995 
Q 384 4038 303 4038 
Q 238 4038 106 3984 
L 53 4094 
L 903 4444 
L 1047 4444 
z
" transform="scale(0.015625)"/>
        <path id="TimesNewRomanPSMT-20" transform="scale(0.015625)"/>
        <path id="TimesNewRomanPSMT-48" d="M 1316 2272 
L 3284 2272 
L 3284 3484 
Q 3284 3809 3244 3913 
Q 3213 3991 3113 4047 
Q 2978 4122 2828 4122 
L 2678 4122 
L 2678 4238 
L 4491 4238 
L 4491 4122 
L 4341 4122 
Q 4191 4122 4056 4050 
Q 3956 4000 3920 3898 
Q 3884 3797 3884 3484 
L 3884 750 
Q 3884 428 3925 325 
Q 3956 247 4053 191 
Q 4191 116 4341 116 
L 4491 116 
L 4491 0 
L 2678 0 
L 2678 116 
L 2828 116 
Q 3088 116 3206 269 
Q 3284 369 3284 750 
L 3284 2041 
L 1316 2041 
L 1316 750 
Q 1316 428 1356 325 
Q 1388 247 1488 191 
Q 1622 116 1772 116 
L 1925 116 
L 1925 0 
L 109 0 
L 109 116 
L 259 116 
Q 522 116 641 269 
Q 716 369 716 750 
L 716 3484 
Q 716 3809 675 3913 
Q 644 3991 547 4047 
Q 409 4122 259 4122 
L 109 4122 
L 109 4238 
L 1925 4238 
L 1925 4122 
L 1772 4122 
Q 1622 4122 1488 4050 
Q 1391 4000 1353 3898 
Q 1316 3797 1316 3484 
L 1316 2272 
z
" transform="scale(0.015625)"/>
        <path id="TimesNewRomanPSMT-6f" d="M 1600 2947 
Q 2250 2947 2644 2453 
Q 2978 2031 2978 1484 
Q 2978 1100 2793 706 
Q 2609 313 2286 112 
Q 1963 -88 1566 -88 
Q 919 -88 538 428 
Q 216 863 216 1403 
Q 216 1797 411 2186 
Q 606 2575 925 2761 
Q 1244 2947 1600 2947 
z
M 1503 2744 
Q 1338 2744 1170 2645 
Q 1003 2547 900 2300 
Q 797 2053 797 1666 
Q 797 1041 1045 587 
Q 1294 134 1700 134 
Q 2003 134 2200 384 
Q 2397 634 2397 1244 
Q 2397 2006 2069 2444 
Q 1847 2744 1503 2744 
z
" transform="scale(0.015625)"/>
        <path id="TimesNewRomanPSMT-69" d="M 928 4444 
Q 1059 4444 1151 4351 
Q 1244 4259 1244 4128 
Q 1244 3997 1151 3903 
Q 1059 3809 928 3809 
Q 797 3809 703 3903 
Q 609 3997 609 4128 
Q 609 4259 701 4351 
Q 794 4444 928 4444 
z
M 1188 2947 
L 1188 647 
Q 1188 378 1227 289 
Q 1266 200 1342 156 
Q 1419 113 1622 113 
L 1622 0 
L 231 0 
L 231 113 
Q 441 113 512 153 
Q 584 194 626 287 
Q 669 381 669 647 
L 669 1750 
Q 669 2216 641 2353 
Q 619 2453 572 2492 
Q 525 2531 444 2531 
Q 356 2531 231 2484 
L 188 2597 
L 1050 2947 
L 1188 2947 
z
" transform="scale(0.015625)"/>
        <path id="TimesNewRomanPSMT-7a" d="M 2688 878 
L 2653 0 
L 128 0 
L 128 113 
L 2028 2644 
L 1091 2644 
Q 788 2644 694 2605 
Q 600 2566 541 2456 
Q 456 2300 444 2069 
L 319 2069 
L 338 2863 
L 2738 2863 
L 2738 2747 
L 819 209 
L 1863 209 
Q 2191 209 2308 264 
Q 2425 319 2497 456 
Q 2547 556 2581 878 
L 2688 878 
z
" transform="scale(0.015625)"/>
        <path id="TimesNewRomanPSMT-6e" d="M 1034 2341 
Q 1538 2947 1994 2947 
Q 2228 2947 2397 2830 
Q 2566 2713 2666 2444 
Q 2734 2256 2734 1869 
L 2734 647 
Q 2734 375 2778 278 
Q 2813 200 2889 156 
Q 2966 113 3172 113 
L 3172 0 
L 1756 0 
L 1756 113 
L 1816 113 
Q 2016 113 2095 173 
Q 2175 234 2206 353 
Q 2219 400 2219 647 
L 2219 1819 
Q 2219 2209 2117 2386 
Q 2016 2563 1775 2563 
Q 1403 2563 1034 2156 
L 1034 647 
Q 1034 356 1069 288 
Q 1113 197 1189 155 
Q 1266 113 1500 113 
L 1500 0 
L 84 0 
L 84 113 
L 147 113 
Q 366 113 442 223 
Q 519 334 519 647 
L 519 1709 
Q 519 2225 495 2337 
Q 472 2450 423 2490 
Q 375 2531 294 2531 
Q 206 2531 84 2484 
L 38 2597 
L 900 2947 
L 1034 2947 
L 1034 2341 
z
" transform="scale(0.015625)"/>
       </defs>
       <use xlink:href="#TimesNewRomanPSMT-44"/>
       <use xlink:href="#TimesNewRomanPSMT-61" x="72.216797"/>
       <use xlink:href="#TimesNewRomanPSMT-72" x="116.601562"/>
       <use xlink:href="#TimesNewRomanPSMT-6b" x="149.902344"/>
       <use xlink:href="#TimesNewRomanPSMT-20" x="199.902344"/>
       <use xlink:href="#TimesNewRomanPSMT-48" x="224.902344"/>
       <use xlink:href="#TimesNewRomanPSMT-6f" x="297.119141"/>
       <use xlink:href="#TimesNewRomanPSMT-72" x="347.119141"/>
       <use xlink:href="#TimesNewRomanPSMT-69" x="380.419922"/>
       <use xlink:href="#TimesNewRomanPSMT-7a" x="408.203125"/>
       <use xlink:href="#TimesNewRomanPSMT-6f" x="452.587891"/>
       <use xlink:href="#TimesNewRomanPSMT-6e" x="502.587891"/>
      </g>
     </g>
    </g>
    <g id="xtick_2">
     <g id="line2d_2">
      <g>
       <use xlink:href="#md7045e4b3b" x="164.82875" y="241.759912" style="stroke: #000000; stroke-width: 0.8"/>
      </g>
     </g>
     <g id="text_2">
      <!-- Nightfall -->
      <g transform="translate(132.363268 285.286397) rotate(-45) scale(0.12 -0.12)">
       <defs>
        <path id="TimesNewRomanPSMT-4e" d="M -84 4238 
L 1066 4238 
L 3656 1059 
L 3656 3503 
Q 3656 3894 3569 3991 
Q 3453 4122 3203 4122 
L 3056 4122 
L 3056 4238 
L 4531 4238 
L 4531 4122 
L 4381 4122 
Q 4113 4122 4000 3959 
Q 3931 3859 3931 3503 
L 3931 -69 
L 3819 -69 
L 1025 3344 
L 1025 734 
Q 1025 344 1109 247 
Q 1228 116 1475 116 
L 1625 116 
L 1625 0 
L 150 0 
L 150 116 
L 297 116 
Q 569 116 681 278 
Q 750 378 750 734 
L 750 3681 
Q 566 3897 470 3965 
Q 375 4034 191 4094 
Q 100 4122 -84 4122 
L -84 4238 
z
" transform="scale(0.015625)"/>
        <path id="TimesNewRomanPSMT-67" d="M 966 1044 
Q 703 1172 562 1401 
Q 422 1631 422 1909 
Q 422 2334 742 2640 
Q 1063 2947 1563 2947 
Q 1972 2947 2272 2747 
L 2878 2747 
Q 3013 2747 3034 2739 
Q 3056 2731 3066 2713 
Q 3084 2684 3084 2613 
Q 3084 2531 3069 2500 
Q 3059 2484 3036 2475 
Q 3013 2466 2878 2466 
L 2506 2466 
Q 2681 2241 2681 1891 
Q 2681 1491 2375 1206 
Q 2069 922 1553 922 
Q 1341 922 1119 984 
Q 981 866 932 777 
Q 884 688 884 625 
Q 884 572 936 522 
Q 988 472 1138 450 
Q 1225 438 1575 428 
Q 2219 413 2409 384 
Q 2700 344 2873 169 
Q 3047 -6 3047 -263 
Q 3047 -616 2716 -925 
Q 2228 -1381 1444 -1381 
Q 841 -1381 425 -1109 
Q 191 -953 191 -784 
Q 191 -709 225 -634 
Q 278 -519 444 -313 
Q 466 -284 763 25 
Q 600 122 533 198 
Q 466 275 466 372 
Q 466 481 555 628 
Q 644 775 966 1044 
z
M 1509 2797 
Q 1278 2797 1122 2612 
Q 966 2428 966 2047 
Q 966 1553 1178 1281 
Q 1341 1075 1591 1075 
Q 1828 1075 1981 1253 
Q 2134 1431 2134 1813 
Q 2134 2309 1919 2591 
Q 1759 2797 1509 2797 
z
M 934 0 
Q 788 -159 713 -296 
Q 638 -434 638 -550 
Q 638 -700 819 -813 
Q 1131 -1006 1722 -1006 
Q 2284 -1006 2551 -807 
Q 2819 -609 2819 -384 
Q 2819 -222 2659 -153 
Q 2497 -84 2016 -72 
Q 1313 -53 934 0 
z
" transform="scale(0.015625)"/>
        <path id="TimesNewRomanPSMT-68" d="M 1041 4444 
L 1041 2350 
Q 1388 2731 1591 2839 
Q 1794 2947 1997 2947 
Q 2241 2947 2416 2812 
Q 2591 2678 2675 2391 
Q 2734 2191 2734 1659 
L 2734 647 
Q 2734 375 2778 275 
Q 2809 200 2884 156 
Q 2959 113 3159 113 
L 3159 0 
L 1753 0 
L 1753 113 
L 1819 113 
Q 2019 113 2097 173 
Q 2175 234 2206 353 
Q 2216 403 2216 647 
L 2216 1659 
Q 2216 2128 2167 2275 
Q 2119 2422 2012 2495 
Q 1906 2569 1756 2569 
Q 1603 2569 1437 2487 
Q 1272 2406 1041 2159 
L 1041 647 
Q 1041 353 1073 281 
Q 1106 209 1195 161 
Q 1284 113 1503 113 
L 1503 0 
L 84 0 
L 84 113 
Q 275 113 384 172 
Q 447 203 484 290 
Q 522 378 522 647 
L 522 3238 
Q 522 3728 498 3840 
Q 475 3953 426 3993 
Q 378 4034 297 4034 
Q 231 4034 84 3984 
L 41 4094 
L 897 4444 
L 1041 4444 
z
" transform="scale(0.015625)"/>
        <path id="TimesNewRomanPSMT-74" d="M 1031 3803 
L 1031 2863 
L 1700 2863 
L 1700 2644 
L 1031 2644 
L 1031 788 
Q 1031 509 1111 412 
Q 1191 316 1316 316 
Q 1419 316 1516 380 
Q 1613 444 1666 569 
L 1788 569 
Q 1678 263 1478 108 
Q 1278 -47 1066 -47 
Q 922 -47 784 33 
Q 647 113 581 261 
Q 516 409 516 719 
L 516 2644 
L 63 2644 
L 63 2747 
Q 234 2816 414 2980 
Q 594 3144 734 3369 
Q 806 3488 934 3803 
L 1031 3803 
z
" transform="scale(0.015625)"/>
        <path id="TimesNewRomanPSMT-66" d="M 1319 2638 
L 1319 756 
Q 1319 356 1406 250 
Q 1522 113 1716 113 
L 1975 113 
L 1975 0 
L 266 0 
L 266 113 
L 394 113 
Q 519 113 622 175 
Q 725 238 764 344 
Q 803 450 803 756 
L 803 2638 
L 247 2638 
L 247 2863 
L 803 2863 
L 803 3050 
Q 803 3478 940 3775 
Q 1078 4072 1361 4255 
Q 1644 4438 1997 4438 
Q 2325 4438 2600 4225 
Q 2781 4084 2781 3909 
Q 2781 3816 2700 3733 
Q 2619 3650 2525 3650 
Q 2453 3650 2373 3701 
Q 2294 3753 2178 3923 
Q 2063 4094 1966 4153 
Q 1869 4213 1750 4213 
Q 1606 4213 1506 4136 
Q 1406 4059 1362 3898 
Q 1319 3738 1319 3069 
L 1319 2863 
L 2056 2863 
L 2056 2638 
L 1319 2638 
z
" transform="scale(0.015625)"/>
        <path id="TimesNewRomanPSMT-6c" d="M 1184 4444 
L 1184 647 
Q 1184 378 1223 290 
Q 1263 203 1344 158 
Q 1425 113 1647 113 
L 1647 0 
L 244 0 
L 244 113 
Q 441 113 512 153 
Q 584 194 625 287 
Q 666 381 666 647 
L 666 3247 
Q 666 3731 644 3842 
Q 622 3953 573 3993 
Q 525 4034 450 4034 
Q 369 4034 244 3984 
L 191 4094 
L 1044 4444 
L 1184 4444 
z
" transform="scale(0.015625)"/>
       </defs>
       <use xlink:href="#TimesNewRomanPSMT-4e"/>
       <use xlink:href="#TimesNewRomanPSMT-69" x="72.216797"/>
       <use xlink:href="#TimesNewRomanPSMT-67" x="100"/>
       <use xlink:href="#TimesNewRomanPSMT-68" x="150"/>
       <use xlink:href="#TimesNewRomanPSMT-74" x="200"/>
       <use xlink:href="#TimesNewRomanPSMT-66" x="227.783203"/>
       <use xlink:href="#TimesNewRomanPSMT-61" x="261.083984"/>
       <use xlink:href="#TimesNewRomanPSMT-6c" x="305.46875"/>
       <use xlink:href="#TimesNewRomanPSMT-6c" x="333.251953"/>
      </g>
     </g>
    </g>
    <g id="xtick_3">
     <g id="line2d_3">
      <g>
       <use xlink:href="#md7045e4b3b" x="228.46375" y="241.759912" style="stroke: #000000; stroke-width: 0.8"/>
      </g>
     </g>
     <g id="text_3">
      <!-- Shadow Line -->
      <g transform="translate(181.636929 299.663646) rotate(-45) scale(0.12 -0.12)">
       <defs>
        <path id="TimesNewRomanPSMT-53" d="M 2934 4334 
L 2934 2869 
L 2819 2869 
Q 2763 3291 2617 3541 
Q 2472 3791 2203 3937 
Q 1934 4084 1647 4084 
Q 1322 4084 1109 3886 
Q 897 3688 897 3434 
Q 897 3241 1031 3081 
Q 1225 2847 1953 2456 
Q 2547 2138 2764 1967 
Q 2981 1797 3098 1565 
Q 3216 1334 3216 1081 
Q 3216 600 2842 251 
Q 2469 -97 1881 -97 
Q 1697 -97 1534 -69 
Q 1438 -53 1133 45 
Q 828 144 747 144 
Q 669 144 623 97 
Q 578 50 556 -97 
L 441 -97 
L 441 1356 
L 556 1356 
Q 638 900 775 673 
Q 913 447 1195 297 
Q 1478 147 1816 147 
Q 2206 147 2432 353 
Q 2659 559 2659 841 
Q 2659 997 2573 1156 
Q 2488 1316 2306 1453 
Q 2184 1547 1640 1851 
Q 1097 2156 867 2337 
Q 638 2519 519 2737 
Q 400 2956 400 3219 
Q 400 3675 750 4004 
Q 1100 4334 1641 4334 
Q 1978 4334 2356 4169 
Q 2531 4091 2603 4091 
Q 2684 4091 2736 4139 
Q 2788 4188 2819 4334 
L 2934 4334 
z
" transform="scale(0.015625)"/>
        <path id="TimesNewRomanPSMT-64" d="M 2222 322 
Q 2013 103 1813 7 
Q 1613 -88 1381 -88 
Q 913 -88 563 304 
Q 213 697 213 1313 
Q 213 1928 600 2439 
Q 988 2950 1597 2950 
Q 1975 2950 2222 2709 
L 2222 3238 
Q 2222 3728 2198 3840 
Q 2175 3953 2125 3993 
Q 2075 4034 2000 4034 
Q 1919 4034 1784 3984 
L 1744 4094 
L 2597 4444 
L 2738 4444 
L 2738 1134 
Q 2738 631 2761 520 
Q 2784 409 2836 365 
Q 2888 322 2956 322 
Q 3041 322 3181 375 
L 3216 266 
L 2366 -88 
L 2222 -88 
L 2222 322 
z
M 2222 541 
L 2222 2016 
Q 2203 2228 2109 2403 
Q 2016 2578 1861 2667 
Q 1706 2756 1559 2756 
Q 1284 2756 1069 2509 
Q 784 2184 784 1559 
Q 784 928 1059 592 
Q 1334 256 1672 256 
Q 1956 256 2222 541 
z
" transform="scale(0.015625)"/>
        <path id="TimesNewRomanPSMT-77" d="M 41 2863 
L 1241 2863 
L 1241 2747 
Q 1075 2734 1023 2687 
Q 972 2641 972 2553 
Q 972 2456 1025 2319 
L 1638 672 
L 2253 2013 
L 2091 2434 
Q 2016 2622 1894 2694 
Q 1825 2738 1638 2747 
L 1638 2863 
L 3000 2863 
L 3000 2747 
Q 2775 2738 2681 2666 
Q 2619 2616 2619 2506 
Q 2619 2444 2644 2378 
L 3294 734 
L 3897 2319 
Q 3959 2488 3959 2588 
Q 3959 2647 3898 2694 
Q 3838 2741 3659 2747 
L 3659 2863 
L 4563 2863 
L 4563 2747 
Q 4291 2706 4163 2378 
L 3206 -88 
L 3078 -88 
L 2363 1741 
L 1528 -88 
L 1413 -88 
L 494 2319 
Q 403 2547 315 2626 
Q 228 2706 41 2747 
L 41 2863 
z
" transform="scale(0.015625)"/>
        <path id="TimesNewRomanPSMT-4c" d="M 3669 1172 
L 3772 1150 
L 3409 0 
L 128 0 
L 128 116 
L 288 116 
Q 556 116 672 291 
Q 738 391 738 753 
L 738 3488 
Q 738 3884 650 3984 
Q 528 4122 288 4122 
L 128 4122 
L 128 4238 
L 2047 4238 
L 2047 4122 
Q 1709 4125 1573 4059 
Q 1438 3994 1388 3894 
Q 1338 3794 1338 3416 
L 1338 753 
Q 1338 494 1388 397 
Q 1425 331 1503 300 
Q 1581 269 1991 269 
L 2300 269 
Q 2788 269 2984 341 
Q 3181 413 3343 595 
Q 3506 778 3669 1172 
z
" transform="scale(0.015625)"/>
        <path id="TimesNewRomanPSMT-65" d="M 681 1784 
Q 678 1147 991 784 
Q 1303 422 1725 422 
Q 2006 422 2214 576 
Q 2422 731 2563 1106 
L 2659 1044 
Q 2594 616 2278 264 
Q 1963 -88 1488 -88 
Q 972 -88 605 314 
Q 238 716 238 1394 
Q 238 2128 614 2539 
Q 991 2950 1559 2950 
Q 2041 2950 2350 2633 
Q 2659 2316 2659 1784 
L 681 1784 
z
M 681 1966 
L 2006 1966 
Q 1991 2241 1941 2353 
Q 1863 2528 1708 2628 
Q 1553 2728 1384 2728 
Q 1125 2728 920 2526 
Q 716 2325 681 1966 
z
" transform="scale(0.015625)"/>
       </defs>
       <use xlink:href="#TimesNewRomanPSMT-53"/>
       <use xlink:href="#TimesNewRomanPSMT-68" x="55.615234"/>
       <use xlink:href="#TimesNewRomanPSMT-61" x="105.615234"/>
       <use xlink:href="#TimesNewRomanPSMT-64" x="150"/>
       <use xlink:href="#TimesNewRomanPSMT-6f" x="200"/>
       <use xlink:href="#TimesNewRomanPSMT-77" x="250"/>
       <use xlink:href="#TimesNewRomanPSMT-20" x="322.216797"/>
       <use xlink:href="#TimesNewRomanPSMT-4c" x="347.216797"/>
       <use xlink:href="#TimesNewRomanPSMT-69" x="408.300781"/>
       <use xlink:href="#TimesNewRomanPSMT-6e" x="436.083984"/>
       <use xlink:href="#TimesNewRomanPSMT-65" x="486.083984"/>
      </g>
     </g>
    </g>
    <g id="xtick_4">
     <g id="line2d_4">
      <g>
       <use xlink:href="#md7045e4b3b" x="292.09875" y="241.759912" style="stroke: #000000; stroke-width: 0.8"/>
      </g>
     </g>
     <g id="text_4">
      <!-- Final Reckoning -->
      <g transform="translate(233.940101 310.979564) rotate(-45) scale(0.12 -0.12)">
       <defs>
        <path id="TimesNewRomanPSMT-46" d="M 1309 4006 
L 1309 2341 
L 2081 2341 
Q 2347 2341 2470 2458 
Q 2594 2575 2634 2922 
L 2750 2922 
L 2750 1488 
L 2634 1488 
Q 2631 1734 2570 1850 
Q 2509 1966 2401 2023 
Q 2294 2081 2081 2081 
L 1309 2081 
L 1309 750 
Q 1309 428 1350 325 
Q 1381 247 1481 191 
Q 1619 116 1769 116 
L 1922 116 
L 1922 0 
L 103 0 
L 103 116 
L 253 116 
Q 516 116 634 269 
Q 709 369 709 750 
L 709 3488 
Q 709 3809 669 3913 
Q 638 3991 541 4047 
Q 406 4122 253 4122 
L 103 4122 
L 103 4238 
L 3256 4238 
L 3297 3306 
L 3188 3306 
Q 3106 3603 2998 3742 
Q 2891 3881 2733 3943 
Q 2575 4006 2244 4006 
L 1309 4006 
z
" transform="scale(0.015625)"/>
        <path id="TimesNewRomanPSMT-52" d="M 4325 0 
L 3194 0 
L 1759 1981 
Q 1600 1975 1500 1975 
Q 1459 1975 1412 1976 
Q 1366 1978 1316 1981 
L 1316 750 
Q 1316 350 1403 253 
Q 1522 116 1759 116 
L 1925 116 
L 1925 0 
L 109 0 
L 109 116 
L 269 116 
Q 538 116 653 291 
Q 719 388 719 750 
L 719 3488 
Q 719 3888 631 3984 
Q 509 4122 269 4122 
L 109 4122 
L 109 4238 
L 1653 4238 
Q 2328 4238 2648 4139 
Q 2969 4041 3192 3777 
Q 3416 3513 3416 3147 
Q 3416 2756 3161 2468 
Q 2906 2181 2372 2063 
L 3247 847 
Q 3547 428 3762 290 
Q 3978 153 4325 116 
L 4325 0 
z
M 1316 2178 
Q 1375 2178 1419 2176 
Q 1463 2175 1491 2175 
Q 2097 2175 2405 2437 
Q 2713 2700 2713 3106 
Q 2713 3503 2464 3751 
Q 2216 4000 1806 4000 
Q 1625 4000 1316 3941 
L 1316 2178 
z
" transform="scale(0.015625)"/>
        <path id="TimesNewRomanPSMT-63" d="M 2631 1088 
Q 2516 522 2178 217 
Q 1841 -88 1431 -88 
Q 944 -88 581 321 
Q 219 731 219 1428 
Q 219 2103 620 2525 
Q 1022 2947 1584 2947 
Q 2006 2947 2278 2723 
Q 2550 2500 2550 2259 
Q 2550 2141 2473 2067 
Q 2397 1994 2259 1994 
Q 2075 1994 1981 2113 
Q 1928 2178 1911 2362 
Q 1894 2547 1784 2644 
Q 1675 2738 1481 2738 
Q 1169 2738 978 2506 
Q 725 2200 725 1697 
Q 725 1184 976 792 
Q 1228 400 1656 400 
Q 1963 400 2206 609 
Q 2378 753 2541 1131 
L 2631 1088 
z
" transform="scale(0.015625)"/>
       </defs>
       <use xlink:href="#TimesNewRomanPSMT-46"/>
       <use xlink:href="#TimesNewRomanPSMT-69" x="55.615234"/>
       <use xlink:href="#TimesNewRomanPSMT-6e" x="83.398438"/>
       <use xlink:href="#TimesNewRomanPSMT-61" x="133.398438"/>
       <use xlink:href="#TimesNewRomanPSMT-6c" x="177.783203"/>
       <use xlink:href="#TimesNewRomanPSMT-20" x="205.566406"/>
       <use xlink:href="#TimesNewRomanPSMT-52" x="230.566406"/>
       <use xlink:href="#TimesNewRomanPSMT-65" x="297.265625"/>
       <use xlink:href="#TimesNewRomanPSMT-63" x="341.650391"/>
       <use xlink:href="#TimesNewRomanPSMT-6b" x="386.035156"/>
       <use xlink:href="#TimesNewRomanPSMT-6f" x="436.035156"/>
       <use xlink:href="#TimesNewRomanPSMT-6e" x="486.035156"/>
       <use xlink:href="#TimesNewRomanPSMT-69" x="536.035156"/>
       <use xlink:href="#TimesNewRomanPSMT-6e" x="563.818359"/>
       <use xlink:href="#TimesNewRomanPSMT-67" x="613.818359"/>
      </g>
     </g>
    </g>
    <g id="xtick_5">
     <g id="line2d_5">
      <g>
       <use xlink:href="#md7045e4b3b" x="355.73375" y="241.759912" style="stroke: #000000; stroke-width: 0.8"/>
      </g>
     </g>
     <g id="text_5">
      <!-- Starlight -->
      <g transform="translate(324.67762 283.877045) rotate(-45) scale(0.12 -0.12)">
       <use xlink:href="#TimesNewRomanPSMT-53"/>
       <use xlink:href="#TimesNewRomanPSMT-74" x="55.615234"/>
       <use xlink:href="#TimesNewRomanPSMT-61" x="83.398438"/>
       <use xlink:href="#TimesNewRomanPSMT-72" x="127.783203"/>
       <use xlink:href="#TimesNewRomanPSMT-6c" x="161.083984"/>
       <use xlink:href="#TimesNewRomanPSMT-69" x="188.867188"/>
       <use xlink:href="#TimesNewRomanPSMT-67" x="216.650391"/>
       <use xlink:href="#TimesNewRomanPSMT-68" x="266.650391"/>
       <use xlink:href="#TimesNewRomanPSMT-74" x="316.650391"/>
      </g>
     </g>
    </g>
    <g id="xtick_6">
     <g id="line2d_6">
      <g>
       <use xlink:href="#md7045e4b3b" x="419.36875" y="241.759912" style="stroke: #000000; stroke-width: 0.8"/>
      </g>
     </g>
     <g id="text_6">
      <!-- Deep Waters -->
      <g transform="translate(374.327816 297.877759) rotate(-45) scale(0.12 -0.12)">
       <defs>
        <path id="TimesNewRomanPSMT-70" d="M -6 2578 
L 875 2934 
L 994 2934 
L 994 2266 
Q 1216 2644 1439 2795 
Q 1663 2947 1909 2947 
Q 2341 2947 2628 2609 
Q 2981 2197 2981 1534 
Q 2981 794 2556 309 
Q 2206 -88 1675 -88 
Q 1444 -88 1275 -22 
Q 1150 25 994 166 
L 994 -706 
Q 994 -1000 1030 -1079 
Q 1066 -1159 1155 -1206 
Q 1244 -1253 1478 -1253 
L 1478 -1369 
L -22 -1369 
L -22 -1253 
L 56 -1253 
Q 228 -1256 350 -1188 
Q 409 -1153 442 -1076 
Q 475 -1000 475 -688 
L 475 2019 
Q 475 2297 450 2372 
Q 425 2447 370 2484 
Q 316 2522 222 2522 
Q 147 2522 31 2478 
L -6 2578 
z
M 994 2081 
L 994 1013 
Q 994 666 1022 556 
Q 1066 375 1236 237 
Q 1406 100 1666 100 
Q 1978 100 2172 344 
Q 2425 663 2425 1241 
Q 2425 1897 2138 2250 
Q 1938 2494 1663 2494 
Q 1513 2494 1366 2419 
Q 1253 2363 994 2081 
z
" transform="scale(0.015625)"/>
        <path id="TimesNewRomanPSMT-57" d="M 5991 4238 
L 5991 4122 
Q 5825 4122 5722 4062 
Q 5619 4003 5525 3841 
Q 5463 3731 5328 3319 
L 4147 -97 
L 4022 -97 
L 3056 2613 
L 2097 -97 
L 1984 -97 
L 725 3422 
Q 584 3816 547 3888 
Q 484 4006 376 4064 
Q 269 4122 84 4122 
L 84 4238 
L 1653 4238 
L 1653 4122 
L 1578 4122 
Q 1413 4122 1325 4047 
Q 1238 3972 1238 3866 
Q 1238 3756 1375 3363 
L 2209 984 
L 2913 3006 
L 2788 3363 
L 2688 3647 
Q 2622 3803 2541 3922 
Q 2500 3981 2441 4022 
Q 2363 4078 2284 4103 
Q 2225 4122 2097 4122 
L 2097 4238 
L 3747 4238 
L 3747 4122 
L 3634 4122 
Q 3459 4122 3378 4047 
Q 3297 3972 3297 3844 
Q 3297 3684 3438 3288 
L 4250 984 
L 5056 3319 
Q 5194 3706 5194 3856 
Q 5194 3928 5148 3990 
Q 5103 4053 5034 4078 
Q 4916 4122 4725 4122 
L 4725 4238 
L 5991 4238 
z
" transform="scale(0.015625)"/>
        <path id="TimesNewRomanPSMT-73" d="M 2050 2947 
L 2050 1972 
L 1947 1972 
Q 1828 2431 1642 2597 
Q 1456 2763 1169 2763 
Q 950 2763 815 2647 
Q 681 2531 681 2391 
Q 681 2216 781 2091 
Q 878 1963 1175 1819 
L 1631 1597 
Q 2266 1288 2266 781 
Q 2266 391 1970 151 
Q 1675 -88 1309 -88 
Q 1047 -88 709 6 
Q 606 38 541 38 
Q 469 38 428 -44 
L 325 -44 
L 325 978 
L 428 978 
Q 516 541 762 319 
Q 1009 97 1316 97 
Q 1531 97 1667 223 
Q 1803 350 1803 528 
Q 1803 744 1651 891 
Q 1500 1038 1047 1263 
Q 594 1488 453 1669 
Q 313 1847 313 2119 
Q 313 2472 555 2709 
Q 797 2947 1181 2947 
Q 1350 2947 1591 2875 
Q 1750 2828 1803 2828 
Q 1853 2828 1881 2850 
Q 1909 2872 1947 2947 
L 2050 2947 
z
" transform="scale(0.015625)"/>
       </defs>
       <use xlink:href="#TimesNewRomanPSMT-44"/>
       <use xlink:href="#TimesNewRomanPSMT-65" x="72.216797"/>
       <use xlink:href="#TimesNewRomanPSMT-65" x="116.601562"/>
       <use xlink:href="#TimesNewRomanPSMT-70" x="160.986328"/>
       <use xlink:href="#TimesNewRomanPSMT-20" x="210.986328"/>
       <use xlink:href="#TimesNewRomanPSMT-57" x="234.236328"/>
       <use xlink:href="#TimesNewRomanPSMT-61" x="320.621094"/>
       <use xlink:href="#TimesNewRomanPSMT-74" x="365.005859"/>
       <use xlink:href="#TimesNewRomanPSMT-65" x="392.789062"/>
       <use xlink:href="#TimesNewRomanPSMT-72" x="437.173828"/>
       <use xlink:href="#TimesNewRomanPSMT-73" x="470.474609"/>
      </g>
     </g>
    </g>
   </g>
   <g id="matplotlib.axis_2">
    <g id="ytick_1">
     <g id="line2d_7">
      <defs>
       <path id="m69151d3065" d="M 0 0 
L -3.5 0 
" style="stroke: #000000; stroke-width: 0.8"/>
      </defs>
      <g>
       <use xlink:href="#m69151d3065" x="69.37625" y="218.247057" style="stroke: #000000; stroke-width: 0.8"/>
      </g>
     </g>
     <g id="text_7">
      <!-- 200 -->
      <g transform="translate(47.37625 221.718932) scale(0.1 -0.1)">
       <defs>
        <path id="TimesNewRomanPSMT-32" d="M 2934 816 
L 2638 0 
L 138 0 
L 138 116 
Q 1241 1122 1691 1759 
Q 2141 2397 2141 2925 
Q 2141 3328 1894 3587 
Q 1647 3847 1303 3847 
Q 991 3847 742 3664 
Q 494 3481 375 3128 
L 259 3128 
Q 338 3706 661 4015 
Q 984 4325 1469 4325 
Q 1984 4325 2329 3994 
Q 2675 3663 2675 3213 
Q 2675 2891 2525 2569 
Q 2294 2063 1775 1497 
Q 997 647 803 472 
L 1909 472 
Q 2247 472 2383 497 
Q 2519 522 2628 598 
Q 2738 675 2819 816 
L 2934 816 
z
" transform="scale(0.015625)"/>
        <path id="TimesNewRomanPSMT-30" d="M 231 2094 
Q 231 2819 450 3342 
Q 669 3866 1031 4122 
Q 1313 4325 1613 4325 
Q 2100 4325 2488 3828 
Q 2972 3213 2972 2159 
Q 2972 1422 2759 906 
Q 2547 391 2217 158 
Q 1888 -75 1581 -75 
Q 975 -75 572 641 
Q 231 1244 231 2094 
z
M 844 2016 
Q 844 1141 1059 588 
Q 1238 122 1591 122 
Q 1759 122 1940 273 
Q 2122 425 2216 781 
Q 2359 1319 2359 2297 
Q 2359 3022 2209 3506 
Q 2097 3866 1919 4016 
Q 1791 4119 1609 4119 
Q 1397 4119 1231 3928 
Q 1006 3669 925 3112 
Q 844 2556 844 2016 
z
" transform="scale(0.015625)"/>
       </defs>
       <use xlink:href="#TimesNewRomanPSMT-32"/>
       <use xlink:href="#TimesNewRomanPSMT-30" x="50"/>
       <use xlink:href="#TimesNewRomanPSMT-30" x="100"/>
      </g>
     </g>
    </g>
    <g id="ytick_2">
     <g id="line2d_8">
      <g>
       <use xlink:href="#m69151d3065" x="69.37625" y="189.901239" style="stroke: #000000; stroke-width: 0.8"/>
      </g>
     </g>
     <g id="text_8">
      <!-- 300 -->
      <g transform="translate(47.37625 193.373114) scale(0.1 -0.1)">
       <defs>
        <path id="TimesNewRomanPSMT-33" d="M 325 3431 
Q 506 3859 782 4092 
Q 1059 4325 1472 4325 
Q 1981 4325 2253 3994 
Q 2459 3747 2459 3466 
Q 2459 3003 1878 2509 
Q 2269 2356 2469 2072 
Q 2669 1788 2669 1403 
Q 2669 853 2319 450 
Q 1863 -75 997 -75 
Q 569 -75 414 31 
Q 259 138 259 259 
Q 259 350 332 419 
Q 406 488 509 488 
Q 588 488 669 463 
Q 722 447 909 348 
Q 1097 250 1169 231 
Q 1284 197 1416 197 
Q 1734 197 1970 444 
Q 2206 691 2206 1028 
Q 2206 1275 2097 1509 
Q 2016 1684 1919 1775 
Q 1784 1900 1550 2001 
Q 1316 2103 1072 2103 
L 972 2103 
L 972 2197 
Q 1219 2228 1467 2375 
Q 1716 2522 1828 2728 
Q 1941 2934 1941 3181 
Q 1941 3503 1739 3701 
Q 1538 3900 1238 3900 
Q 753 3900 428 3381 
L 325 3431 
z
" transform="scale(0.015625)"/>
       </defs>
       <use xlink:href="#TimesNewRomanPSMT-33"/>
       <use xlink:href="#TimesNewRomanPSMT-30" x="50"/>
       <use xlink:href="#TimesNewRomanPSMT-30" x="100"/>
      </g>
     </g>
    </g>
    <g id="ytick_3">
     <g id="line2d_9">
      <g>
       <use xlink:href="#m69151d3065" x="69.37625" y="161.555421" style="stroke: #000000; stroke-width: 0.8"/>
      </g>
     </g>
     <g id="text_9">
      <!-- 400 -->
      <g transform="translate(47.37625 165.027296) scale(0.1 -0.1)">
       <defs>
        <path id="TimesNewRomanPSMT-34" d="M 2978 1563 
L 2978 1119 
L 2409 1119 
L 2409 0 
L 1894 0 
L 1894 1119 
L 100 1119 
L 100 1519 
L 2066 4325 
L 2409 4325 
L 2409 1563 
L 2978 1563 
z
M 1894 1563 
L 1894 3666 
L 406 1563 
L 1894 1563 
z
" transform="scale(0.015625)"/>
       </defs>
       <use xlink:href="#TimesNewRomanPSMT-34"/>
       <use xlink:href="#TimesNewRomanPSMT-30" x="50"/>
       <use xlink:href="#TimesNewRomanPSMT-30" x="100"/>
      </g>
     </g>
    </g>
    <g id="ytick_4">
     <g id="line2d_10">
      <g>
       <use xlink:href="#m69151d3065" x="69.37625" y="133.209604" style="stroke: #000000; stroke-width: 0.8"/>
      </g>
     </g>
     <g id="text_10">
      <!-- 500 -->
      <g transform="translate(47.37625 136.681479) scale(0.1 -0.1)">
       <defs>
        <path id="TimesNewRomanPSMT-35" d="M 2778 4238 
L 2534 3706 
L 1259 3706 
L 981 3138 
Q 1809 3016 2294 2522 
Q 2709 2097 2709 1522 
Q 2709 1188 2573 903 
Q 2438 619 2231 419 
Q 2025 219 1772 97 
Q 1413 -75 1034 -75 
Q 653 -75 479 54 
Q 306 184 306 341 
Q 306 428 378 495 
Q 450 563 559 563 
Q 641 563 702 538 
Q 763 513 909 409 
Q 1144 247 1384 247 
Q 1750 247 2026 523 
Q 2303 800 2303 1197 
Q 2303 1581 2056 1914 
Q 1809 2247 1375 2428 
Q 1034 2569 447 2591 
L 1259 4238 
L 2778 4238 
z
" transform="scale(0.015625)"/>
       </defs>
       <use xlink:href="#TimesNewRomanPSMT-35"/>
       <use xlink:href="#TimesNewRomanPSMT-30" x="50"/>
       <use xlink:href="#TimesNewRomanPSMT-30" x="100"/>
      </g>
     </g>
    </g>
    <g id="ytick_5">
     <g id="line2d_11">
      <g>
       <use xlink:href="#m69151d3065" x="69.37625" y="104.863786" style="stroke: #000000; stroke-width: 0.8"/>
      </g>
     </g>
     <g id="text_11">
      <!-- 600 -->
      <g transform="translate(47.37625 108.335661) scale(0.1 -0.1)">
       <defs>
        <path id="TimesNewRomanPSMT-36" d="M 2869 4325 
L 2869 4209 
Q 2456 4169 2195 4045 
Q 1934 3922 1679 3669 
Q 1425 3416 1258 3105 
Q 1091 2794 978 2366 
Q 1428 2675 1881 2675 
Q 2316 2675 2634 2325 
Q 2953 1975 2953 1425 
Q 2953 894 2631 456 
Q 2244 -75 1606 -75 
Q 1172 -75 869 213 
Q 275 772 275 1663 
Q 275 2231 503 2743 
Q 731 3256 1154 3653 
Q 1578 4050 1965 4187 
Q 2353 4325 2688 4325 
L 2869 4325 
z
M 925 2138 
Q 869 1716 869 1456 
Q 869 1156 980 804 
Q 1091 453 1309 247 
Q 1469 100 1697 100 
Q 1969 100 2183 356 
Q 2397 613 2397 1088 
Q 2397 1622 2184 2012 
Q 1972 2403 1581 2403 
Q 1463 2403 1327 2353 
Q 1191 2303 925 2138 
z
" transform="scale(0.015625)"/>
       </defs>
       <use xlink:href="#TimesNewRomanPSMT-36"/>
       <use xlink:href="#TimesNewRomanPSMT-30" x="50"/>
       <use xlink:href="#TimesNewRomanPSMT-30" x="100"/>
      </g>
     </g>
    </g>
    <g id="ytick_6">
     <g id="line2d_12">
      <g>
       <use xlink:href="#m69151d3065" x="69.37625" y="76.517968" style="stroke: #000000; stroke-width: 0.8"/>
      </g>
     </g>
     <g id="text_12">
      <!-- 700 -->
      <g transform="translate(47.37625 79.989843) scale(0.1 -0.1)">
       <defs>
        <path id="TimesNewRomanPSMT-37" d="M 644 4238 
L 2916 4238 
L 2916 4119 
L 1503 -88 
L 1153 -88 
L 2419 3728 
L 1253 3728 
Q 900 3728 750 3644 
Q 488 3500 328 3200 
L 238 3234 
L 644 4238 
z
" transform="scale(0.015625)"/>
       </defs>
       <use xlink:href="#TimesNewRomanPSMT-37"/>
       <use xlink:href="#TimesNewRomanPSMT-30" x="50"/>
       <use xlink:href="#TimesNewRomanPSMT-30" x="100"/>
      </g>
     </g>
    </g>
    <g id="ytick_7">
     <g id="line2d_13">
      <g>
       <use xlink:href="#m69151d3065" x="69.37625" y="48.17215" style="stroke: #000000; stroke-width: 0.8"/>
      </g>
     </g>
     <g id="text_13">
      <!-- 800 -->
      <g transform="translate(47.37625 51.644025) scale(0.1 -0.1)">
       <defs>
        <path id="TimesNewRomanPSMT-38" d="M 1228 2134 
Q 725 2547 579 2797 
Q 434 3047 434 3316 
Q 434 3728 753 4026 
Q 1072 4325 1600 4325 
Q 2113 4325 2425 4047 
Q 2738 3769 2738 3413 
Q 2738 3175 2569 2928 
Q 2400 2681 1866 2347 
Q 2416 1922 2594 1678 
Q 2831 1359 2831 1006 
Q 2831 559 2490 242 
Q 2150 -75 1597 -75 
Q 994 -75 656 303 
Q 388 606 388 966 
Q 388 1247 577 1523 
Q 766 1800 1228 2134 
z
M 1719 2469 
Q 2094 2806 2194 3001 
Q 2294 3197 2294 3444 
Q 2294 3772 2109 3958 
Q 1925 4144 1606 4144 
Q 1288 4144 1088 3959 
Q 888 3775 888 3528 
Q 888 3366 970 3203 
Q 1053 3041 1206 2894 
L 1719 2469 
z
M 1375 2016 
Q 1116 1797 991 1539 
Q 866 1281 866 981 
Q 866 578 1086 336 
Q 1306 94 1647 94 
Q 1984 94 2187 284 
Q 2391 475 2391 747 
Q 2391 972 2272 1150 
Q 2050 1481 1375 2016 
z
" transform="scale(0.015625)"/>
       </defs>
       <use xlink:href="#TimesNewRomanPSMT-38"/>
       <use xlink:href="#TimesNewRomanPSMT-30" x="50"/>
       <use xlink:href="#TimesNewRomanPSMT-30" x="100"/>
      </g>
     </g>
    </g>
    <g id="text_14">
     <!-- million USD -->
     <g transform="translate(40.381563 171.879175) rotate(-90) scale(0.14 -0.14)">
      <defs>
       <path id="TimesNewRomanPSMT-6d" d="M 1050 2338 
Q 1363 2650 1419 2697 
Q 1559 2816 1721 2881 
Q 1884 2947 2044 2947 
Q 2313 2947 2506 2790 
Q 2700 2634 2766 2338 
Q 3088 2713 3309 2830 
Q 3531 2947 3766 2947 
Q 3994 2947 4170 2830 
Q 4347 2713 4450 2447 
Q 4519 2266 4519 1878 
L 4519 647 
Q 4519 378 4559 278 
Q 4591 209 4675 161 
Q 4759 113 4950 113 
L 4950 0 
L 3538 0 
L 3538 113 
L 3597 113 
Q 3781 113 3884 184 
Q 3956 234 3988 344 
Q 4000 397 4000 647 
L 4000 1878 
Q 4000 2228 3916 2372 
Q 3794 2572 3525 2572 
Q 3359 2572 3192 2489 
Q 3025 2406 2788 2181 
L 2781 2147 
L 2788 2013 
L 2788 647 
Q 2788 353 2820 281 
Q 2853 209 2943 161 
Q 3034 113 3253 113 
L 3253 0 
L 1806 0 
L 1806 113 
Q 2044 113 2133 169 
Q 2222 225 2256 338 
Q 2272 391 2272 647 
L 2272 1878 
Q 2272 2228 2169 2381 
Q 2031 2581 1784 2581 
Q 1616 2581 1450 2491 
Q 1191 2353 1050 2181 
L 1050 647 
Q 1050 366 1089 281 
Q 1128 197 1204 155 
Q 1281 113 1516 113 
L 1516 0 
L 100 0 
L 100 113 
Q 297 113 375 155 
Q 453 197 493 289 
Q 534 381 534 647 
L 534 1741 
Q 534 2213 506 2350 
Q 484 2453 437 2492 
Q 391 2531 309 2531 
Q 222 2531 100 2484 
L 53 2597 
L 916 2947 
L 1050 2947 
L 1050 2338 
z
" transform="scale(0.015625)"/>
       <path id="TimesNewRomanPSMT-55" d="M 3053 4122 
L 3053 4238 
L 4553 4238 
L 4553 4122 
L 4394 4122 
Q 4144 4122 4009 3913 
Q 3944 3816 3944 3463 
L 3944 1744 
Q 3944 1106 3817 754 
Q 3691 403 3320 151 
Q 2950 -100 2313 -100 
Q 1619 -100 1259 140 
Q 900 381 750 788 
Q 650 1066 650 1831 
L 650 3488 
Q 650 3878 542 4000 
Q 434 4122 194 4122 
L 34 4122 
L 34 4238 
L 1866 4238 
L 1866 4122 
L 1703 4122 
Q 1441 4122 1328 3956 
Q 1250 3844 1250 3488 
L 1250 1641 
Q 1250 1394 1295 1075 
Q 1341 756 1459 578 
Q 1578 400 1801 284 
Q 2025 169 2350 169 
Q 2766 169 3094 350 
Q 3422 531 3542 814 
Q 3663 1097 3663 1772 
L 3663 3488 
Q 3663 3884 3575 3984 
Q 3453 4122 3213 4122 
L 3053 4122 
z
" transform="scale(0.015625)"/>
      </defs>
      <use xlink:href="#TimesNewRomanPSMT-6d"/>
      <use xlink:href="#TimesNewRomanPSMT-69" x="77.783203"/>
      <use xlink:href="#TimesNewRomanPSMT-6c" x="105.566406"/>
      <use xlink:href="#TimesNewRomanPSMT-6c" x="133.349609"/>
      <use xlink:href="#TimesNewRomanPSMT-69" x="161.132812"/>
      <use xlink:href="#TimesNewRomanPSMT-6f" x="188.916016"/>
      <use xlink:href="#TimesNewRomanPSMT-6e" x="238.916016"/>
      <use xlink:href="#TimesNewRomanPSMT-20" x="288.916016"/>
      <use xlink:href="#TimesNewRomanPSMT-55" x="313.916016"/>
      <use xlink:href="#TimesNewRomanPSMT-53" x="386.132812"/>
      <use xlink:href="#TimesNewRomanPSMT-44" x="441.748047"/>
     </g>
    </g>
   </g>
   <g id="patch_3">
    <path d="M 98.012 147.382512 
L 104.3755 147.382512 
L 104.3755 113.934447 
L 98.012 113.934447 
L 98.012 147.382512 
L 98.012 147.382512 
z
" clip-path="url(#pe77df8f04a)" style="fill: none; stroke: #000000; stroke-linejoin: miter"/>
   </g>
   <g id="line2d_14">
    <path d="M 101.19375 147.382512 
L 101.19375 189.617781 
" clip-path="url(#pe77df8f04a)" style="fill: none; stroke: #000000; stroke-linecap: square"/>
   </g>
   <g id="line2d_15">
    <path d="M 101.19375 113.934447 
L 101.19375 65.179641 
" clip-path="url(#pe77df8f04a)" style="fill: none; stroke: #000000; stroke-linecap: square"/>
   </g>
   <g id="line2d_16">
    <path d="M 99.602875 189.617781 
L 102.784625 189.617781 
" clip-path="url(#pe77df8f04a)" style="fill: none; stroke: #000000; stroke-linecap: square"/>
   </g>
   <g id="line2d_17">
    <path d="M 99.602875 65.179641 
L 102.784625 65.179641 
" clip-path="url(#pe77df8f04a)" style="fill: none; stroke: #000000; stroke-linecap: square"/>
   </g>
   <g id="patch_4">
    <path d="M 161.647 159.287756 
L 168.0105 159.287756 
L 168.0105 120.737444 
L 161.647 120.737444 
L 161.647 159.287756 
L 161.647 159.287756 
z
" clip-path="url(#pe77df8f04a)" style="fill: none; stroke: #000000; stroke-linejoin: miter"/>
   </g>
   <g id="line2d_18">
    <path d="M 164.82875 159.287756 
L 164.82875 215.695933 
" clip-path="url(#pe77df8f04a)" style="fill: none; stroke: #000000; stroke-linecap: square"/>
   </g>
   <g id="line2d_19">
    <path d="M 164.82875 120.737444 
L 164.82875 69.148056 
" clip-path="url(#pe77df8f04a)" style="fill: none; stroke: #000000; stroke-linecap: square"/>
   </g>
   <g id="line2d_20">
    <path d="M 163.237875 215.695933 
L 166.419625 215.695933 
" clip-path="url(#pe77df8f04a)" style="fill: none; stroke: #000000; stroke-linecap: square"/>
   </g>
   <g id="line2d_21">
    <path d="M 163.237875 69.148056 
L 166.419625 69.148056 
" clip-path="url(#pe77df8f04a)" style="fill: none; stroke: #000000; stroke-linecap: square"/>
   </g>
   <g id="patch_5">
    <path d="M 225.282 141.996807 
L 231.6455 141.996807 
L 231.6455 110.249491 
L 225.282 110.249491 
L 225.282 141.996807 
L 225.282 141.996807 
z
" clip-path="url(#pe77df8f04a)" style="fill: none; stroke: #000000; stroke-linejoin: miter"/>
   </g>
   <g id="line2d_22">
    <path d="M 228.46375 141.996807 
L 228.46375 181.680952 
" clip-path="url(#pe77df8f04a)" style="fill: none; stroke: #000000; stroke-linecap: square"/>
   </g>
   <g id="line2d_23">
    <path d="M 228.46375 110.249491 
L 228.46375 66.596932 
" clip-path="url(#pe77df8f04a)" style="fill: none; stroke: #000000; stroke-linecap: square"/>
   </g>
   <g id="line2d_24">
    <path d="M 226.872875 181.680952 
L 230.054625 181.680952 
" clip-path="url(#pe77df8f04a)" style="fill: none; stroke: #000000; stroke-linecap: square"/>
   </g>
   <g id="line2d_25">
    <path d="M 226.872875 66.596932 
L 230.054625 66.596932 
" clip-path="url(#pe77df8f04a)" style="fill: none; stroke: #000000; stroke-linecap: square"/>
   </g>
   <g id="patch_6">
    <path d="M 288.917 161.838879 
L 295.2805 161.838879 
L 295.2805 119.036695 
L 288.917 119.036695 
L 288.917 161.838879 
L 288.917 161.838879 
z
" clip-path="url(#pe77df8f04a)" style="fill: none; stroke: #000000; stroke-linejoin: miter"/>
   </g>
   <g id="line2d_26">
    <path d="M 292.09875 161.838879 
L 292.09875 224.483137 
" clip-path="url(#pe77df8f04a)" style="fill: none; stroke: #000000; stroke-linecap: square"/>
   </g>
   <g id="line2d_27">
    <path d="M 292.09875 119.036695 
L 292.09875 73.966845 
" clip-path="url(#pe77df8f04a)" style="fill: none; stroke: #000000; stroke-linecap: square"/>
   </g>
   <g id="line2d_28">
    <path d="M 290.507875 224.483137 
L 293.689625 224.483137 
" clip-path="url(#pe77df8f04a)" style="fill: none; stroke: #000000; stroke-linecap: square"/>
   </g>
   <g id="line2d_29">
    <path d="M 290.507875 73.966845 
L 293.689625 73.966845 
" clip-path="url(#pe77df8f04a)" style="fill: none; stroke: #000000; stroke-linecap: square"/>
   </g>
   <g id="patch_7">
    <path d="M 352.552 172.043374 
L 358.9155 172.043374 
L 358.9155 136.044185 
L 352.552 136.044185 
L 352.552 172.043374 
L 352.552 172.043374 
z
" clip-path="url(#pe77df8f04a)" style="fill: none; stroke: #000000; stroke-linejoin: miter"/>
   </g>
   <g id="line2d_30">
    <path d="M 355.73375 172.043374 
L 355.73375 216.829766 
" clip-path="url(#pe77df8f04a)" style="fill: none; stroke: #000000; stroke-linecap: square"/>
   </g>
   <g id="line2d_31">
    <path d="M 355.73375 136.044185 
L 355.73375 87.005921 
" clip-path="url(#pe77df8f04a)" style="fill: none; stroke: #000000; stroke-linecap: square"/>
   </g>
   <g id="line2d_32">
    <path d="M 354.142875 216.829766 
L 357.324625 216.829766 
" clip-path="url(#pe77df8f04a)" style="fill: none; stroke: #000000; stroke-linecap: square"/>
   </g>
   <g id="line2d_33">
    <path d="M 354.142875 87.005921 
L 357.324625 87.005921 
" clip-path="url(#pe77df8f04a)" style="fill: none; stroke: #000000; stroke-linecap: square"/>
   </g>
   <g id="patch_8">
    <path d="M 416.187 143.981014 
L 422.5505 143.981014 
L 422.5505 112.800615 
L 416.187 112.800615 
L 416.187 143.981014 
L 416.187 143.981014 
z
" clip-path="url(#pe77df8f04a)" style="fill: none; stroke: #000000; stroke-linejoin: miter"/>
   </g>
   <g id="line2d_34">
    <path d="M 419.36875 143.981014 
L 419.36875 185.932824 
" clip-path="url(#pe77df8f04a)" style="fill: none; stroke: #000000; stroke-linecap: square"/>
   </g>
   <g id="line2d_35">
    <path d="M 419.36875 112.800615 
L 419.36875 70.848805 
" clip-path="url(#pe77df8f04a)" style="fill: none; stroke: #000000; stroke-linecap: square"/>
   </g>
   <g id="line2d_36">
    <path d="M 417.777875 185.932824 
L 420.959625 185.932824 
" clip-path="url(#pe77df8f04a)" style="fill: none; stroke: #000000; stroke-linecap: square"/>
   </g>
   <g id="line2d_37">
    <path d="M 417.777875 70.848805 
L 420.959625 70.848805 
" clip-path="url(#pe77df8f04a)" style="fill: none; stroke: #000000; stroke-linecap: square"/>
   </g>
   <g id="line2d_38">
    <path d="M 98.012 130.65848 
L 104.3755 130.65848 
" clip-path="url(#pe77df8f04a)" style="fill: none; stroke: #000000; stroke-width: 1.5; stroke-linecap: square"/>
   </g>
   <g id="line2d_39">
    <path d="M 161.647 140.296058 
L 168.0105 140.296058 
" clip-path="url(#pe77df8f04a)" style="fill: none; stroke: #000000; stroke-width: 1.5; stroke-linecap: square"/>
   </g>
   <g id="line2d_40">
    <path d="M 225.282 128.674273 
L 231.6455 128.674273 
" clip-path="url(#pe77df8f04a)" style="fill: none; stroke: #000000; stroke-width: 1.5; stroke-linecap: square"/>
   </g>
   <g id="line2d_41">
    <path d="M 288.917 136.611102 
L 295.2805 136.611102 
" clip-path="url(#pe77df8f04a)" style="fill: none; stroke: #000000; stroke-width: 1.5; stroke-linecap: square"/>
   </g>
   <g id="line2d_42">
    <path d="M 352.552 154.185509 
L 358.9155 154.185509 
" clip-path="url(#pe77df8f04a)" style="fill: none; stroke: #000000; stroke-width: 1.5; stroke-linecap: square"/>
   </g>
   <g id="line2d_43">
    <path d="M 416.187 127.256982 
L 422.5505 127.256982 
" clip-path="url(#pe77df8f04a)" style="fill: none; stroke: #000000; stroke-width: 1.5; stroke-linecap: square"/>
   </g>
   <g id="patch_9">
    <path d="M 69.37625 241.759912 
L 69.37625 30.045 
" style="fill: none; stroke: #000000; stroke-linejoin: miter; stroke-linecap: square"/>
   </g>
   <g id="patch_10">
    <path d="M 451.18625 241.759912 
L 451.18625 30.045 
" style="fill: none; stroke: #000000; stroke-linejoin: miter; stroke-linecap: square"/>
   </g>
   <g id="patch_11">
    <path d="M 69.37625 241.759912 
L 451.18625 241.759912 
" style="fill: none; stroke: #000000; stroke-linejoin: miter; stroke-linecap: square"/>
   </g>
   <g id="patch_12">
    <path d="M 69.37625 30.045 
L 451.18625 30.045 
" style="fill: none; stroke: #000000; stroke-linejoin: miter; stroke-linecap: square"/>
   </g>
   <g id="text_15">
    <!-- Data on the projected box office revenue of different movies (million USD) -->
    <g transform="translate(7.2 18.045) scale(0.16 -0.16)">
     <defs>
      <path id="TimesNewRomanPS-BoldMT-44" d="M 84 0 
L 84 116 
L 225 116 
Q 409 116 507 173 
Q 606 231 653 331 
Q 681 397 681 725 
L 681 3513 
Q 681 3838 647 3919 
Q 613 4000 508 4061 
Q 403 4122 225 4122 
L 84 4122 
L 84 4238 
L 1981 4238 
Q 2741 4238 3203 4031 
Q 3769 3778 4061 3265 
Q 4353 2753 4353 2106 
Q 4353 1659 4209 1282 
Q 4066 906 3837 661 
Q 3609 416 3311 267 
Q 3013 119 2581 38 
Q 2391 0 1981 0 
L 84 0 
z
M 1700 3997 
L 1700 691 
Q 1700 428 1725 368 
Q 1750 309 1809 278 
Q 1894 231 2053 231 
Q 2575 231 2850 588 
Q 3225 1069 3225 2081 
Q 3225 2897 2969 3384 
Q 2766 3766 2447 3903 
Q 2222 4000 1700 3997 
z
" transform="scale(0.015625)"/>
      <path id="TimesNewRomanPS-BoldMT-61" d="M 1828 431 
Q 1294 -41 869 -41 
Q 619 -41 453 123 
Q 288 288 288 534 
Q 288 869 575 1136 
Q 863 1403 1828 1847 
L 1828 2141 
Q 1828 2472 1792 2558 
Q 1756 2644 1656 2708 
Q 1556 2772 1431 2772 
Q 1228 2772 1097 2681 
Q 1016 2625 1016 2550 
Q 1016 2484 1103 2388 
Q 1222 2253 1222 2128 
Q 1222 1975 1108 1867 
Q 994 1759 809 1759 
Q 613 1759 480 1878 
Q 347 1997 347 2156 
Q 347 2381 525 2586 
Q 703 2791 1022 2900 
Q 1341 3009 1684 3009 
Q 2100 3009 2342 2832 
Q 2584 2656 2656 2450 
Q 2700 2319 2700 1847 
L 2700 713 
Q 2700 513 2715 461 
Q 2731 409 2762 384 
Q 2794 359 2834 359 
Q 2916 359 3000 475 
L 3094 400 
Q 2938 169 2770 64 
Q 2603 -41 2391 -41 
Q 2141 -41 2000 76 
Q 1859 194 1828 431 
z
M 1828 659 
L 1828 1638 
Q 1450 1416 1266 1163 
Q 1144 994 1144 822 
Q 1144 678 1247 569 
Q 1325 484 1466 484 
Q 1622 484 1828 659 
z
" transform="scale(0.015625)"/>
      <path id="TimesNewRomanPS-BoldMT-74" d="M 1375 3991 
L 1375 2922 
L 2069 2922 
L 2069 2613 
L 1375 2613 
L 1375 809 
Q 1375 556 1398 482 
Q 1422 409 1481 364 
Q 1541 319 1591 319 
Q 1794 319 1975 628 
L 2069 559 
Q 1816 -41 1247 -41 
Q 969 -41 776 114 
Q 584 269 531 459 
Q 500 566 500 1034 
L 500 2613 
L 119 2613 
L 119 2722 
Q 513 3000 789 3306 
Q 1066 3613 1272 3991 
L 1375 3991 
z
" transform="scale(0.015625)"/>
      <path id="TimesNewRomanPS-BoldMT-20" transform="scale(0.015625)"/>
      <path id="TimesNewRomanPS-BoldMT-6f" d="M 1594 3009 
Q 1975 3009 2303 2812 
Q 2631 2616 2801 2253 
Q 2972 1891 2972 1459 
Q 2972 838 2656 419 
Q 2275 -88 1603 -88 
Q 944 -88 587 375 
Q 231 838 231 1447 
Q 231 2075 595 2542 
Q 959 3009 1594 3009 
z
M 1606 2788 
Q 1447 2788 1333 2667 
Q 1219 2547 1183 2192 
Q 1147 1838 1147 1206 
Q 1147 872 1191 581 
Q 1225 359 1337 243 
Q 1450 128 1594 128 
Q 1734 128 1828 206 
Q 1950 313 1991 503 
Q 2053 800 2053 1703 
Q 2053 2234 1993 2432 
Q 1934 2631 1819 2722 
Q 1738 2788 1606 2788 
z
" transform="scale(0.015625)"/>
      <path id="TimesNewRomanPS-BoldMT-6e" d="M 1409 2922 
L 1409 2544 
Q 1634 2788 1840 2898 
Q 2047 3009 2284 3009 
Q 2569 3009 2756 2851 
Q 2944 2694 3006 2459 
Q 3056 2281 3056 1775 
L 3056 638 
Q 3056 300 3117 217 
Q 3178 134 3372 113 
L 3372 0 
L 1894 0 
L 1894 113 
Q 2059 134 2131 250 
Q 2181 328 2181 638 
L 2181 1938 
Q 2181 2297 2153 2390 
Q 2125 2484 2058 2536 
Q 1991 2588 1909 2588 
Q 1641 2588 1409 2203 
L 1409 638 
Q 1409 309 1470 221 
Q 1531 134 1697 113 
L 1697 0 
L 219 0 
L 219 113 
Q 403 131 481 231 
Q 534 300 534 638 
L 534 2288 
Q 534 2619 473 2700 
Q 413 2781 219 2806 
L 219 2922 
L 1409 2922 
z
" transform="scale(0.015625)"/>
      <path id="TimesNewRomanPS-BoldMT-68" d="M 1409 4238 
L 1409 2547 
Q 1650 2800 1850 2904 
Q 2050 3009 2266 3009 
Q 2541 3009 2736 2853 
Q 2931 2697 2995 2486 
Q 3059 2275 3059 1775 
L 3059 634 
Q 3059 300 3121 217 
Q 3184 134 3375 113 
L 3375 0 
L 1894 0 
L 1894 113 
Q 2050 134 2128 238 
Q 2184 319 2184 634 
L 2184 1938 
Q 2184 2300 2156 2392 
Q 2128 2484 2061 2536 
Q 1994 2588 1909 2588 
Q 1784 2588 1665 2502 
Q 1547 2416 1409 2200 
L 1409 634 
Q 1409 322 1456 244 
Q 1516 138 1700 113 
L 1700 0 
L 219 0 
L 219 113 
Q 403 131 481 231 
Q 534 300 534 634 
L 534 3603 
Q 534 3934 473 4015 
Q 413 4097 219 4122 
L 219 4238 
L 1409 4238 
z
" transform="scale(0.015625)"/>
      <path id="TimesNewRomanPS-BoldMT-65" d="M 2691 1566 
L 1088 1566 
Q 1116 984 1397 647 
Q 1613 388 1916 388 
Q 2103 388 2256 492 
Q 2409 597 2584 869 
L 2691 800 
Q 2453 316 2165 114 
Q 1878 -88 1500 -88 
Q 850 -88 516 413 
Q 247 816 247 1413 
Q 247 2144 642 2576 
Q 1038 3009 1569 3009 
Q 2013 3009 2339 2645 
Q 2666 2281 2691 1566 
z
M 1922 1775 
Q 1922 2278 1867 2465 
Q 1813 2653 1697 2750 
Q 1631 2806 1522 2806 
Q 1359 2806 1256 2647 
Q 1072 2369 1072 1884 
L 1072 1775 
L 1922 1775 
z
" transform="scale(0.015625)"/>
      <path id="TimesNewRomanPS-BoldMT-70" d="M 1347 297 
L 1347 -791 
Q 1347 -1016 1383 -1097 
Q 1419 -1178 1494 -1215 
Q 1569 -1253 1788 -1253 
L 1788 -1369 
L 122 -1369 
L 122 -1253 
Q 316 -1247 409 -1144 
Q 472 -1072 472 -772 
L 472 2313 
Q 472 2622 400 2708 
Q 328 2794 122 2806 
L 122 2922 
L 1347 2922 
L 1347 2538 
Q 1500 2763 1659 2863 
Q 1888 3009 2156 3009 
Q 2478 3009 2742 2806 
Q 3006 2603 3143 2245 
Q 3281 1888 3281 1475 
Q 3281 1031 3139 664 
Q 2997 297 2726 104 
Q 2456 -88 2125 -88 
Q 1884 -88 1675 19 
Q 1519 100 1347 297 
z
M 1347 613 
Q 1616 231 1922 231 
Q 2091 231 2200 409 
Q 2363 672 2363 1409 
Q 2363 2166 2184 2444 
Q 2066 2628 1866 2628 
Q 1550 2628 1347 2172 
L 1347 613 
z
" transform="scale(0.015625)"/>
      <path id="TimesNewRomanPS-BoldMT-72" d="M 1428 2922 
L 1428 2259 
Q 1719 2713 1937 2861 
Q 2156 3009 2359 3009 
Q 2534 3009 2639 2901 
Q 2744 2794 2744 2597 
Q 2744 2388 2642 2272 
Q 2541 2156 2397 2156 
Q 2231 2156 2109 2262 
Q 1988 2369 1966 2381 
Q 1934 2400 1894 2400 
Q 1803 2400 1722 2331 
Q 1594 2225 1528 2028 
Q 1428 1725 1428 1359 
L 1428 688 
L 1431 513 
Q 1431 334 1453 284 
Q 1491 200 1564 161 
Q 1638 122 1813 113 
L 1813 0 
L 234 0 
L 234 113 
Q 425 128 492 217 
Q 559 306 559 688 
L 559 2303 
Q 559 2553 534 2622 
Q 503 2709 443 2750 
Q 384 2791 234 2806 
L 234 2922 
L 1428 2922 
z
" transform="scale(0.015625)"/>
      <path id="TimesNewRomanPS-BoldMT-6a" d="M 1113 4334 
Q 1313 4334 1452 4195 
Q 1591 4056 1591 3859 
Q 1591 3659 1450 3518 
Q 1309 3378 1113 3378 
Q 916 3378 775 3518 
Q 634 3659 634 3859 
Q 634 4056 773 4195 
Q 913 4334 1113 4334 
z
M 1550 2922 
L 1550 -103 
Q 1550 -528 1497 -731 
Q 1419 -1025 1186 -1203 
Q 953 -1381 572 -1381 
Q 188 -1381 5 -1225 
Q -178 -1069 -178 -847 
Q -178 -709 -82 -607 
Q 13 -506 141 -506 
Q 259 -506 328 -576 
Q 397 -647 397 -788 
Q 397 -825 394 -875 
Q 388 -941 388 -966 
Q 388 -1075 438 -1128 
Q 488 -1181 566 -1181 
Q 638 -1181 689 -1118 
Q 741 -1056 741 -941 
Q 741 -878 722 -688 
Q 691 -341 688 -269 
L 678 472 
L 678 2278 
L 681 2441 
Q 681 2638 614 2711 
Q 547 2784 331 2806 
L 331 2922 
L 1550 2922 
z
" transform="scale(0.015625)"/>
      <path id="TimesNewRomanPS-BoldMT-63" d="M 2600 753 
L 2697 678 
Q 2491 291 2183 101 
Q 1875 -88 1528 -88 
Q 944 -88 594 353 
Q 244 794 244 1413 
Q 244 2009 563 2463 
Q 947 3009 1622 3009 
Q 2075 3009 2342 2781 
Q 2609 2553 2609 2272 
Q 2609 2094 2501 1987 
Q 2394 1881 2219 1881 
Q 2034 1881 1914 2003 
Q 1794 2125 1766 2438 
Q 1747 2634 1675 2713 
Q 1603 2791 1506 2791 
Q 1356 2791 1250 2631 
Q 1088 2391 1088 1894 
Q 1088 1481 1219 1104 
Q 1350 728 1578 544 
Q 1750 409 1984 409 
Q 2138 409 2275 481 
Q 2413 553 2600 753 
z
" transform="scale(0.015625)"/>
      <path id="TimesNewRomanPS-BoldMT-64" d="M 3056 4238 
L 3056 875 
Q 3056 534 3075 472 
Q 3100 369 3170 319 
Q 3241 269 3416 256 
L 3416 153 
L 2181 -88 
L 2181 375 
Q 1959 106 1786 9 
Q 1613 -88 1394 -88 
Q 834 -88 509 413 
Q 247 819 247 1409 
Q 247 1881 409 2254 
Q 572 2628 855 2818 
Q 1138 3009 1463 3009 
Q 1672 3009 1834 2928 
Q 1997 2847 2181 2644 
L 2181 3525 
Q 2181 3859 2153 3928 
Q 2116 4019 2041 4062 
Q 1966 4106 1759 4106 
L 1759 4238 
L 3056 4238 
z
M 2181 2256 
Q 1950 2700 1616 2700 
Q 1500 2700 1425 2638 
Q 1309 2541 1236 2297 
Q 1163 2053 1163 1550 
Q 1163 997 1244 731 
Q 1325 466 1466 347 
Q 1538 288 1663 288 
Q 1938 288 2181 719 
L 2181 2256 
z
" transform="scale(0.015625)"/>
      <path id="TimesNewRomanPS-BoldMT-62" d="M 1347 4238 
L 1347 2628 
Q 1716 3009 2153 3009 
Q 2453 3009 2718 2832 
Q 2984 2656 3134 2331 
Q 3284 2006 3284 1581 
Q 3284 1103 3093 712 
Q 2903 322 2584 117 
Q 2266 -88 1856 -88 
Q 1619 -88 1434 -12 
Q 1250 63 1072 231 
L 588 -84 
L 481 -84 
L 481 3631 
Q 481 3884 459 3944 
Q 428 4031 361 4073 
Q 294 4116 134 4122 
L 134 4238 
L 1347 4238 
z
M 1347 2350 
L 1347 1050 
Q 1347 653 1366 544 
Q 1397 359 1515 245 
Q 1634 131 1819 131 
Q 1978 131 2092 222 
Q 2206 313 2282 581 
Q 2359 850 2359 1550 
Q 2359 2222 2191 2472 
Q 2069 2653 1863 2653 
Q 1594 2653 1347 2350 
z
" transform="scale(0.015625)"/>
      <path id="TimesNewRomanPS-BoldMT-78" d="M 1944 1791 
L 2450 828 
Q 2713 325 2866 191 
Q 2950 119 3097 113 
L 3097 0 
L 1469 0 
L 1469 113 
Q 1659 128 1704 162 
Q 1750 197 1750 256 
Q 1750 344 1650 531 
L 1397 1006 
L 1181 691 
Q 1034 475 1016 434 
Q 991 375 991 328 
Q 991 256 1020 207 
Q 1050 159 1101 136 
Q 1153 113 1291 113 
L 1291 0 
L 147 0 
L 147 113 
Q 359 113 536 230 
Q 713 347 1050 844 
L 1291 1200 
L 788 2131 
Q 541 2588 419 2691 
Q 297 2794 147 2806 
L 147 2922 
L 1766 2922 
L 1766 2806 
L 1681 2803 
L 1519 2747 
Q 1494 2725 1494 2675 
Q 1494 2628 1509 2578 
Q 1519 2556 1597 2409 
L 1825 1984 
L 1944 2153 
Q 2194 2497 2194 2634 
Q 2194 2700 2139 2745 
Q 2084 2791 1944 2806 
L 1944 2922 
L 2978 2922 
L 2978 2806 
Q 2788 2800 2622 2689 
Q 2456 2578 2250 2259 
L 1944 1791 
z
" transform="scale(0.015625)"/>
      <path id="TimesNewRomanPS-BoldMT-66" d="M 1497 2616 
L 1497 588 
Q 1497 294 1559 219 
Q 1659 103 1928 113 
L 1928 0 
L 206 0 
L 206 113 
Q 403 116 486 158 
Q 569 200 600 275 
Q 631 350 631 588 
L 631 2616 
L 206 2616 
L 206 2922 
L 631 2922 
L 631 3138 
L 628 3284 
Q 628 3734 958 4034 
Q 1288 4334 1850 4334 
Q 2234 4334 2420 4190 
Q 2606 4047 2606 3872 
Q 2606 3731 2490 3628 
Q 2375 3525 2184 3525 
Q 2022 3525 1926 3609 
Q 1831 3694 1831 3797 
Q 1831 3825 1850 3913 
Q 1863 3966 1863 4013 
Q 1863 4078 1825 4109 
Q 1775 4156 1703 4156 
Q 1613 4156 1552 4081 
Q 1491 4006 1491 3841 
L 1497 3294 
L 1497 2922 
L 1928 2922 
L 1928 2616 
L 1497 2616 
z
" transform="scale(0.015625)"/>
      <path id="TimesNewRomanPS-BoldMT-69" d="M 919 4338 
Q 1122 4338 1262 4195 
Q 1403 4053 1403 3853 
Q 1403 3653 1261 3512 
Q 1119 3372 919 3372 
Q 719 3372 578 3512 
Q 438 3653 438 3853 
Q 438 4053 578 4195 
Q 719 4338 919 4338 
z
M 1356 2922 
L 1356 606 
Q 1356 297 1428 211 
Q 1500 125 1709 113 
L 1709 0 
L 131 0 
L 131 113 
Q 325 119 419 225 
Q 481 297 481 606 
L 481 2313 
Q 481 2622 409 2708 
Q 338 2794 131 2806 
L 131 2922 
L 1356 2922 
z
" transform="scale(0.015625)"/>
      <path id="TimesNewRomanPS-BoldMT-76" d="M 1534 -88 
L 550 2178 
Q 372 2588 272 2697 
Q 200 2778 59 2806 
L 59 2922 
L 1613 2922 
L 1613 2806 
Q 1466 2806 1413 2753 
Q 1338 2684 1338 2591 
Q 1338 2475 1475 2156 
L 1956 1059 
L 2341 2006 
Q 2506 2413 2506 2581 
Q 2506 2678 2436 2739 
Q 2366 2800 2188 2806 
L 2188 2922 
L 3144 2922 
L 3144 2806 
Q 3006 2788 2918 2703 
Q 2831 2619 2656 2206 
L 1681 -88 
L 1534 -88 
z
" transform="scale(0.015625)"/>
      <path id="TimesNewRomanPS-BoldMT-75" d="M 3038 2922 
L 3038 634 
Q 3038 300 3100 217 
Q 3163 134 3353 113 
L 3353 0 
L 2163 0 
L 2163 391 
Q 1953 141 1743 26 
Q 1534 -88 1275 -88 
Q 1028 -88 836 64 
Q 644 216 578 419 
Q 513 622 513 1128 
L 513 2288 
Q 513 2619 452 2700 
Q 391 2781 197 2806 
L 197 2922 
L 1388 2922 
L 1388 925 
Q 1388 613 1417 522 
Q 1447 431 1511 384 
Q 1575 338 1659 338 
Q 1772 338 1863 397 
Q 1988 478 2163 725 
L 2163 2288 
Q 2163 2619 2102 2700 
Q 2041 2781 1847 2806 
L 1847 2922 
L 3038 2922 
z
" transform="scale(0.015625)"/>
      <path id="TimesNewRomanPS-BoldMT-6d" d="M 1428 2922 
L 1428 2538 
Q 1669 2800 1873 2904 
Q 2078 3009 2322 3009 
Q 2603 3009 2793 2878 
Q 2984 2747 3088 2478 
Q 3338 2759 3567 2884 
Q 3797 3009 4047 3009 
Q 4350 3009 4529 2870 
Q 4709 2731 4779 2517 
Q 4850 2303 4850 1834 
L 4850 638 
Q 4850 300 4911 219 
Q 4972 138 5166 113 
L 5166 0 
L 3656 0 
L 3656 113 
Q 3834 128 3919 250 
Q 3975 334 3975 638 
L 3975 1894 
Q 3975 2284 3944 2390 
Q 3913 2497 3845 2548 
Q 3778 2600 3688 2600 
Q 3553 2600 3415 2501 
Q 3278 2403 3138 2206 
L 3138 638 
Q 3138 322 3191 241 
Q 3263 125 3466 113 
L 3466 0 
L 1953 0 
L 1953 113 
Q 2075 119 2145 173 
Q 2216 228 2239 304 
Q 2263 381 2263 638 
L 2263 1894 
Q 2263 2291 2231 2391 
Q 2200 2491 2126 2547 
Q 2053 2603 1969 2603 
Q 1844 2603 1741 2538 
Q 1594 2441 1428 2206 
L 1428 638 
Q 1428 328 1489 229 
Q 1550 131 1744 113 
L 1744 0 
L 238 0 
L 238 113 
Q 422 131 500 231 
Q 553 300 553 638 
L 553 2288 
Q 553 2619 492 2700 
Q 431 2781 238 2806 
L 238 2922 
L 1428 2922 
z
" transform="scale(0.015625)"/>
      <path id="TimesNewRomanPS-BoldMT-73" d="M 2063 3003 
L 2109 2006 
L 2003 2006 
Q 1813 2450 1608 2612 
Q 1403 2775 1200 2775 
Q 1072 2775 981 2689 
Q 891 2603 891 2491 
Q 891 2406 953 2328 
Q 1053 2200 1512 1889 
Q 1972 1578 2117 1361 
Q 2263 1144 2263 875 
Q 2263 631 2141 397 
Q 2019 163 1797 37 
Q 1575 -88 1306 -88 
Q 1097 -88 747 44 
Q 653 78 619 78 
Q 516 78 447 -78 
L 344 -78 
L 294 972 
L 400 972 
Q 541 559 786 353 
Q 1031 147 1250 147 
Q 1400 147 1495 239 
Q 1591 331 1591 463 
Q 1591 613 1497 722 
Q 1403 831 1078 1053 
Q 600 1384 459 1559 
Q 253 1816 253 2125 
Q 253 2463 486 2736 
Q 719 3009 1159 3009 
Q 1397 3009 1619 2894 
Q 1703 2847 1756 2847 
Q 1813 2847 1847 2870 
Q 1881 2894 1956 3003 
L 2063 3003 
z
" transform="scale(0.015625)"/>
      <path id="TimesNewRomanPS-BoldMT-28" d="M 2056 4334 
L 2056 4191 
Q 1731 3978 1578 3775 
Q 1366 3494 1247 3053 
Q 1097 2506 1097 1525 
Q 1097 600 1233 87 
Q 1369 -425 1603 -741 
Q 1766 -959 2056 -1125 
L 2056 -1281 
Q 1303 -1028 779 -248 
Q 256 531 256 1544 
Q 256 2544 778 3314 
Q 1300 4084 2056 4334 
z
" transform="scale(0.015625)"/>
      <path id="TimesNewRomanPS-BoldMT-6c" d="M 1359 4238 
L 1359 606 
Q 1359 297 1431 211 
Q 1503 125 1713 113 
L 1713 0 
L 134 0 
L 134 113 
Q 328 119 422 225 
Q 484 297 484 606 
L 484 3631 
Q 484 3938 412 4023 
Q 341 4109 134 4122 
L 134 4238 
L 1359 4238 
z
" transform="scale(0.015625)"/>
      <path id="TimesNewRomanPS-BoldMT-55" d="M 150 4238 
L 2338 4238 
L 2338 4122 
L 2228 4122 
Q 1981 4122 1889 4070 
Q 1797 4019 1758 3928 
Q 1719 3838 1719 3475 
L 1719 1400 
Q 1719 831 1805 647 
Q 1891 463 2087 341 
Q 2284 219 2584 219 
Q 2928 219 3170 373 
Q 3413 528 3533 800 
Q 3653 1072 3653 1747 
L 3653 3475 
Q 3653 3759 3593 3881 
Q 3534 4003 3444 4050 
Q 3303 4122 3047 4122 
L 3047 4238 
L 4513 4238 
L 4513 4122 
L 4425 4122 
Q 4247 4122 4128 4050 
Q 4009 3978 3956 3834 
Q 3916 3734 3916 3475 
L 3916 1866 
Q 3916 1119 3817 787 
Q 3719 456 3337 178 
Q 2956 -100 2297 -100 
Q 1747 -100 1447 47 
Q 1038 247 869 559 
Q 700 872 700 1400 
L 700 3475 
Q 700 3841 659 3930 
Q 619 4019 519 4072 
Q 419 4125 150 4122 
L 150 4238 
z
" transform="scale(0.015625)"/>
      <path id="TimesNewRomanPS-BoldMT-53" d="M 3006 4334 
L 3041 2922 
L 2913 2922 
Q 2822 3453 2467 3776 
Q 2113 4100 1700 4100 
Q 1381 4100 1195 3929 
Q 1009 3759 1009 3538 
Q 1009 3397 1075 3288 
Q 1166 3141 1366 2997 
Q 1513 2894 2044 2631 
Q 2788 2266 3047 1941 
Q 3303 1616 3303 1197 
Q 3303 666 2889 283 
Q 2475 -100 1838 -100 
Q 1638 -100 1459 -59 
Q 1281 -19 1013 94 
Q 863 156 766 156 
Q 684 156 593 93 
Q 503 31 447 -97 
L 331 -97 
L 331 1503 
L 447 1503 
Q 584 828 976 473 
Q 1369 119 1822 119 
Q 2172 119 2380 309 
Q 2588 500 2588 753 
Q 2588 903 2508 1043 
Q 2428 1184 2265 1311 
Q 2103 1438 1691 1641 
Q 1113 1925 859 2125 
Q 606 2325 470 2572 
Q 334 2819 334 3116 
Q 334 3622 706 3978 
Q 1078 4334 1644 4334 
Q 1850 4334 2044 4284 
Q 2191 4247 2402 4145 
Q 2613 4044 2697 4044 
Q 2778 4044 2825 4094 
Q 2872 4144 2913 4334 
L 3006 4334 
z
" transform="scale(0.015625)"/>
      <path id="TimesNewRomanPS-BoldMT-29" d="M 78 -1281 
L 78 -1138 
Q 403 -922 556 -719 
Q 766 -438 888 0 
Q 1038 550 1038 1531 
Q 1038 2456 902 2967 
Q 766 3478 531 3794 
Q 369 4013 78 4178 
L 78 4334 
Q 831 4081 1354 3301 
Q 1878 2522 1878 1509 
Q 1878 513 1354 -257 
Q 831 -1028 78 -1281 
z
" transform="scale(0.015625)"/>
     </defs>
     <use xlink:href="#TimesNewRomanPS-BoldMT-44"/>
     <use xlink:href="#TimesNewRomanPS-BoldMT-61" x="72.216797"/>
     <use xlink:href="#TimesNewRomanPS-BoldMT-74" x="122.216797"/>
     <use xlink:href="#TimesNewRomanPS-BoldMT-61" x="155.517578"/>
     <use xlink:href="#TimesNewRomanPS-BoldMT-20" x="205.517578"/>
     <use xlink:href="#TimesNewRomanPS-BoldMT-6f" x="230.517578"/>
     <use xlink:href="#TimesNewRomanPS-BoldMT-6e" x="280.517578"/>
     <use xlink:href="#TimesNewRomanPS-BoldMT-20" x="336.132812"/>
     <use xlink:href="#TimesNewRomanPS-BoldMT-74" x="361.132812"/>
     <use xlink:href="#TimesNewRomanPS-BoldMT-68" x="394.433594"/>
     <use xlink:href="#TimesNewRomanPS-BoldMT-65" x="450.048828"/>
     <use xlink:href="#TimesNewRomanPS-BoldMT-20" x="494.433594"/>
     <use xlink:href="#TimesNewRomanPS-BoldMT-70" x="519.433594"/>
     <use xlink:href="#TimesNewRomanPS-BoldMT-72" x="575.048828"/>
     <use xlink:href="#TimesNewRomanPS-BoldMT-6f" x="617.683594"/>
     <use xlink:href="#TimesNewRomanPS-BoldMT-6a" x="667.683594"/>
     <use xlink:href="#TimesNewRomanPS-BoldMT-65" x="700.984375"/>
     <use xlink:href="#TimesNewRomanPS-BoldMT-63" x="745.369141"/>
     <use xlink:href="#TimesNewRomanPS-BoldMT-74" x="789.753906"/>
     <use xlink:href="#TimesNewRomanPS-BoldMT-65" x="823.054688"/>
     <use xlink:href="#TimesNewRomanPS-BoldMT-64" x="867.439453"/>
     <use xlink:href="#TimesNewRomanPS-BoldMT-20" x="923.054688"/>
     <use xlink:href="#TimesNewRomanPS-BoldMT-62" x="948.054688"/>
     <use xlink:href="#TimesNewRomanPS-BoldMT-6f" x="1003.669922"/>
     <use xlink:href="#TimesNewRomanPS-BoldMT-78" x="1053.669922"/>
     <use xlink:href="#TimesNewRomanPS-BoldMT-20" x="1103.669922"/>
     <use xlink:href="#TimesNewRomanPS-BoldMT-6f" x="1128.669922"/>
     <use xlink:href="#TimesNewRomanPS-BoldMT-66" x="1178.669922"/>
     <use xlink:href="#TimesNewRomanPS-BoldMT-66" x="1211.970703"/>
     <use xlink:href="#TimesNewRomanPS-BoldMT-69" x="1245.271484"/>
     <use xlink:href="#TimesNewRomanPS-BoldMT-63" x="1273.054688"/>
     <use xlink:href="#TimesNewRomanPS-BoldMT-65" x="1317.439453"/>
     <use xlink:href="#TimesNewRomanPS-BoldMT-20" x="1361.824219"/>
     <use xlink:href="#TimesNewRomanPS-BoldMT-72" x="1386.824219"/>
     <use xlink:href="#TimesNewRomanPS-BoldMT-65" x="1429.458984"/>
     <use xlink:href="#TimesNewRomanPS-BoldMT-76" x="1473.84375"/>
     <use xlink:href="#TimesNewRomanPS-BoldMT-65" x="1523.84375"/>
     <use xlink:href="#TimesNewRomanPS-BoldMT-6e" x="1568.228516"/>
     <use xlink:href="#TimesNewRomanPS-BoldMT-75" x="1623.84375"/>
     <use xlink:href="#TimesNewRomanPS-BoldMT-65" x="1679.458984"/>
     <use xlink:href="#TimesNewRomanPS-BoldMT-20" x="1723.84375"/>
     <use xlink:href="#TimesNewRomanPS-BoldMT-6f" x="1748.84375"/>
     <use xlink:href="#TimesNewRomanPS-BoldMT-66" x="1798.84375"/>
     <use xlink:href="#TimesNewRomanPS-BoldMT-20" x="1832.144531"/>
     <use xlink:href="#TimesNewRomanPS-BoldMT-64" x="1857.144531"/>
     <use xlink:href="#TimesNewRomanPS-BoldMT-69" x="1912.759766"/>
     <use xlink:href="#TimesNewRomanPS-BoldMT-66" x="1940.542969"/>
     <use xlink:href="#TimesNewRomanPS-BoldMT-66" x="1973.84375"/>
     <use xlink:href="#TimesNewRomanPS-BoldMT-65" x="2007.144531"/>
     <use xlink:href="#TimesNewRomanPS-BoldMT-72" x="2051.529297"/>
     <use xlink:href="#TimesNewRomanPS-BoldMT-65" x="2094.164062"/>
     <use xlink:href="#TimesNewRomanPS-BoldMT-6e" x="2138.548828"/>
     <use xlink:href="#TimesNewRomanPS-BoldMT-74" x="2194.164062"/>
     <use xlink:href="#TimesNewRomanPS-BoldMT-20" x="2227.464844"/>
     <use xlink:href="#TimesNewRomanPS-BoldMT-6d" x="2252.464844"/>
     <use xlink:href="#TimesNewRomanPS-BoldMT-6f" x="2335.765625"/>
     <use xlink:href="#TimesNewRomanPS-BoldMT-76" x="2385.765625"/>
     <use xlink:href="#TimesNewRomanPS-BoldMT-69" x="2435.765625"/>
     <use xlink:href="#TimesNewRomanPS-BoldMT-65" x="2463.548828"/>
     <use xlink:href="#TimesNewRomanPS-BoldMT-73" x="2507.933594"/>
     <use xlink:href="#TimesNewRomanPS-BoldMT-20" x="2546.849609"/>
     <use xlink:href="#TimesNewRomanPS-BoldMT-28" x="2571.849609"/>
     <use xlink:href="#TimesNewRomanPS-BoldMT-6d" x="2605.150391"/>
     <use xlink:href="#TimesNewRomanPS-BoldMT-69" x="2688.451172"/>
     <use xlink:href="#TimesNewRomanPS-BoldMT-6c" x="2716.234375"/>
     <use xlink:href="#TimesNewRomanPS-BoldMT-6c" x="2744.017578"/>
     <use xlink:href="#TimesNewRomanPS-BoldMT-69" x="2771.800781"/>
     <use xlink:href="#TimesNewRomanPS-BoldMT-6f" x="2799.583984"/>
     <use xlink:href="#TimesNewRomanPS-BoldMT-6e" x="2849.583984"/>
     <use xlink:href="#TimesNewRomanPS-BoldMT-20" x="2905.199219"/>
     <use xlink:href="#TimesNewRomanPS-BoldMT-55" x="2930.199219"/>
     <use xlink:href="#TimesNewRomanPS-BoldMT-53" x="3002.416016"/>
     <use xlink:href="#TimesNewRomanPS-BoldMT-44" x="3058.03125"/>
     <use xlink:href="#TimesNewRomanPS-BoldMT-29" x="3130.248047"/>
    </g>
   </g>
  </g>
 </g>
 <defs>
  <clipPath id="pe77df8f04a">
   <rect x="69.37625" y="30.045" width="381.81" height="211.714912"/>
  </clipPath>
 </defs>
</svg>
