<?xml version="1.0" encoding="utf-8" standalone="no"?>
<!DOCTYPE svg PUBLIC "-//W3C//DTD SVG 1.1//EN"
  "http://www.w3.org/Graphics/SVG/1.1/DTD/svg11.dtd">
<svg xmlns:xlink="http://www.w3.org/1999/xlink" width="534.945pt" height="320.010529pt" viewBox="0 0 534.945 320.010529" xmlns="http://www.w3.org/2000/svg" version="1.1">
 <metadata>
  <rdf:RDF xmlns:dc="http://purl.org/dc/elements/1.1/" xmlns:cc="http://creativecommons.org/ns#" xmlns:rdf="http://www.w3.org/1999/02/22-rdf-syntax-ns#">
   <cc:Work>
    <dc:type rdf:resource="http://purl.org/dc/dcmitype/StillImage"/>
    <dc:date>2025-05-26T16:35:15.611600</dc:date>
    <dc:format>image/svg+xml</dc:format>
    <dc:creator>
     <cc:Agent>
      <dc:title>Matplotlib v3.7.2, https://matplotlib.org/</dc:title>
     </cc:Agent>
    </dc:creator>
   </cc:Work>
  </rdf:RDF>
 </metadata>
 <defs>
  <style type="text/css">*{stroke-linejoin: round; stroke-linecap: butt}</style>
 </defs>
 <g id="figure_1">
  <g id="patch_1">
   <path d="M 0 320.010529 
L 534.945 320.010529 
L 534.945 0 
L 0 0 
z
" style="fill: #ffffff"/>
  </g>
  <g id="axes_1">
   <g id="patch_2">
    <path d="M 81.5775 249.460305 
L 453.3675 249.460305 
L 453.3675 30.045 
L 81.5775 30.045 
z
" style="fill: #ffffff"/>
   </g>
   <g id="PolyCollection_1">
    <defs>
     <path id="m7798d84a5b" d="M 164.434964 -84.06842 
L 122.650036 -84.06842 
L 119.064835 -86.047447 
L 115.441324 -88.026474 
L 111.896025 -90.005502 
L 108.538356 -91.984529 
L 105.459842 -93.963556 
L 102.726384 -95.942583 
L 100.375125 -97.92161 
L 98.416465 -99.900637 
L 96.840581 -101.879664 
L 95.626696 -103.858691 
L 94.752703 -105.837719 
L 94.202684 -107.816746 
L 93.9705 -109.795773 
L 94.058678 -111.7748 
L 94.473143 -113.753827 
L 95.215403 -115.732854 
L 96.274473 -117.711881 
L 97.620865 -119.690908 
L 99.204391 -121.669936 
L 100.956597 -123.648963 
L 102.797465 -125.62799 
L 104.645053 -127.607017 
L 106.426111 -129.586044 
L 108.085559 -131.565071 
L 109.59303 -133.544098 
L 110.94534 -135.523125 
L 112.164583 -137.502153 
L 113.292325 -139.48118 
L 114.381037 -141.460207 
L 115.48427 -143.439234 
L 116.647255 -145.418261 
L 117.899424 -147.397288 
L 119.250016 -149.376315 
L 120.68738 -151.355342 
L 122.181946 -153.33437 
L 123.692188 -155.313397 
L 125.172399 -157.292424 
L 126.580769 -159.271451 
L 127.886251 -161.250478 
L 129.072998 -163.229505 
L 130.141648 -165.208532 
L 131.107411 -167.187559 
L 131.995564 -169.166587 
L 132.835426 -171.145614 
L 133.654153 -173.124641 
L 134.471627 -175.103668 
L 135.297365 -177.082695 
L 136.129889 -179.061722 
L 136.958395 -181.040749 
L 137.766091 -183.019776 
L 138.534281 -184.998804 
L 139.246205 -186.977831 
L 139.889868 -188.956858 
L 140.459411 -190.935885 
L 140.955013 -192.914912 
L 141.381633 -194.893939 
L 141.74712 -196.872966 
L 142.060276 -198.851993 
L 142.329292 -200.831021 
L 142.560831 -202.810048 
L 142.759767 -204.789075 
L 142.929449 -206.768102 
L 143.072238 -208.747129 
L 143.190103 -210.726156 
L 143.285078 -212.705183 
L 143.359508 -214.68421 
L 143.416086 -216.663238 
L 143.457723 -218.642265 
L 143.487353 -220.621292 
L 143.507725 -222.600319 
L 143.521252 -224.579346 
L 143.529922 -226.558373 
L 143.535282 -228.5374 
L 143.538471 -230.516427 
L 143.540281 -232.495455 
L 143.541227 -234.474482 
L 143.541607 -236.453509 
L 143.54155 -238.432536 
L 143.541039 -240.411563 
L 143.539905 -242.39059 
L 143.537799 -244.369617 
L 143.534154 -246.348644 
L 143.528119 -248.327672 
L 143.518505 -250.306699 
L 143.50376 -252.285726 
L 143.481984 -254.264753 
L 143.451037 -256.24378 
L 143.408759 -258.222807 
L 143.353293 -260.201834 
L 143.283524 -262.180861 
L 143.19955 -264.159889 
L 143.103106 -266.138916 
L 142.997838 -268.117943 
L 142.889293 -270.09697 
L 142.784578 -272.075997 
L 142.691659 -274.055024 
L 142.618392 -276.034051 
L 142.571437 -278.013078 
L 142.555261 -279.992106 
L 144.529739 -279.992106 
L 144.529739 -279.992106 
L 144.513563 -278.013078 
L 144.466608 -276.034051 
L 144.393341 -274.055024 
L 144.300422 -272.075997 
L 144.195707 -270.09697 
L 144.087162 -268.117943 
L 143.981894 -266.138916 
L 143.88545 -264.159889 
L 143.801476 -262.180861 
L 143.731707 -260.201834 
L 143.676241 -258.222807 
L 143.633963 -256.24378 
L 143.603016 -254.264753 
L 143.58124 -252.285726 
L 143.566495 -250.306699 
L 143.556881 -248.327672 
L 143.550846 -246.348644 
L 143.547201 -244.369617 
L 143.545095 -242.39059 
L 143.543961 -240.411563 
L 143.54345 -238.432536 
L 143.543393 -236.453509 
L 143.543773 -234.474482 
L 143.544719 -232.495455 
L 143.546529 -230.516427 
L 143.549718 -228.5374 
L 143.555078 -226.558373 
L 143.563748 -224.579346 
L 143.577275 -222.600319 
L 143.597647 -220.621292 
L 143.627277 -218.642265 
L 143.668914 -216.663238 
L 143.725492 -214.68421 
L 143.799922 -212.705183 
L 143.894897 -210.726156 
L 144.012762 -208.747129 
L 144.155551 -206.768102 
L 144.325233 -204.789075 
L 144.524169 -202.810048 
L 144.755708 -200.831021 
L 145.024724 -198.851993 
L 145.33788 -196.872966 
L 145.703367 -194.893939 
L 146.129987 -192.914912 
L 146.625589 -190.935885 
L 147.195132 -188.956858 
L 147.838795 -186.977831 
L 148.550719 -184.998804 
L 149.318909 -183.019776 
L 150.126605 -181.040749 
L 150.955111 -179.061722 
L 151.787635 -177.082695 
L 152.613373 -175.103668 
L 153.430847 -173.124641 
L 154.249574 -171.145614 
L 155.089436 -169.166587 
L 155.977589 -167.187559 
L 156.943352 -165.208532 
L 158.012002 -163.229505 
L 159.198749 -161.250478 
L 160.504231 -159.271451 
L 161.912601 -157.292424 
L 163.392812 -155.313397 
L 164.903054 -153.33437 
L 166.39762 -151.355342 
L 167.834984 -149.376315 
L 169.185576 -147.397288 
L 170.437745 -145.418261 
L 171.60073 -143.439234 
L 172.703963 -141.460207 
L 173.792675 -139.48118 
L 174.920417 -137.502153 
L 176.13966 -135.523125 
L 177.49197 -133.544098 
L 178.999441 -131.565071 
L 180.658889 -129.586044 
L 182.439947 -127.607017 
L 184.287535 -125.62799 
L 186.128403 -123.648963 
L 187.880609 -121.669936 
L 189.464135 -119.690908 
L 190.810527 -117.711881 
L 191.869597 -115.732854 
L 192.611857 -113.753827 
L 193.026322 -111.7748 
L 193.1145 -109.795773 
L 192.882316 -107.816746 
L 192.332297 -105.837719 
L 191.458304 -103.858691 
L 190.244419 -101.879664 
L 188.668535 -99.900637 
L 186.709875 -97.92161 
L 184.358616 -95.942583 
L 181.625158 -93.963556 
L 178.546644 -91.984529 
L 175.188975 -90.005502 
L 171.643676 -88.026474 
L 168.020165 -86.047447 
L 164.434964 -84.06842 
z
" style="stroke: #000000; stroke-opacity: 0.7"/>
    </defs>
    <g clip-path="url(#p798b5ac3ec)">
     <use xlink:href="#m7798d84a5b" x="0" y="320.010529" style="fill: #b3b3b3; fill-opacity: 0.7; stroke: #000000; stroke-opacity: 0.7"/>
    </g>
   </g>
   <g id="PolyCollection_2">
    <defs>
     <path id="m1be6e47945" d="M 285.701372 -83.60853 
L 249.243628 -83.60853 
L 246.422977 -85.262851 
L 243.49702 -86.917173 
L 240.522021 -88.571495 
L 237.55714 -90.225817 
L 234.661034 -91.880139 
L 231.888683 -93.53446 
L 229.288826 -95.188782 
L 226.90227 -96.843104 
L 224.761204 -98.497426 
L 222.889468 -100.151748 
L 221.303565 -101.806069 
L 220.014109 -103.460391 
L 219.027311 -105.114713 
L 218.346187 -106.769035 
L 217.971239 -108.423356 
L 217.9005 -110.077678 
L 218.12903 -111.732 
L 218.648027 -113.386322 
L 219.44385 -115.040644 
L 220.497234 -116.694965 
L 221.782945 -118.349287 
L 223.270023 -120.003609 
L 224.922633 -121.657931 
L 226.701441 -123.312252 
L 228.565342 -124.966574 
L 230.473306 -126.620896 
L 232.386168 -128.275218 
L 234.268161 -129.92954 
L 236.088132 -131.583861 
L 237.820408 -133.238183 
L 239.445346 -134.892505 
L 240.949635 -136.546827 
L 242.326399 -138.201149 
L 243.575146 -139.85547 
L 244.701528 -141.509792 
L 245.716884 -143.164114 
L 246.637491 -144.818436 
L 247.483475 -146.472757 
L 248.277378 -148.127079 
L 249.042422 -149.781401 
L 249.800601 -151.435723 
L 250.570789 -153.090045 
L 251.367053 -154.744366 
L 252.197412 -156.398688 
L 253.063178 -158.05301 
L 253.958996 -159.707332 
L 254.873577 -161.361653 
L 255.791035 -163.015975 
L 256.692668 -164.670297 
L 257.558971 -166.324619 
L 258.371642 -167.978941 
L 259.115358 -169.633262 
L 259.779162 -171.287584 
L 260.357314 -172.941906 
L 260.849576 -174.596228 
L 261.260931 -176.25055 
L 261.600811 -177.904871 
L 261.881955 -179.559193 
L 262.119027 -181.213515 
L 262.327171 -182.867837 
L 262.520636 -184.522158 
L 262.711602 -186.17648 
L 262.909312 -187.830802 
L 263.119547 -189.485124 
L 263.344484 -191.139446 
L 263.582896 -192.793767 
L 263.830649 -194.448089 
L 264.081429 -196.102411 
L 264.327603 -197.756733 
L 264.561146 -199.411055 
L 264.774531 -201.065376 
L 264.961526 -202.719698 
L 265.117825 -204.37402 
L 265.241473 -206.028342 
L 265.333039 -207.682663 
L 265.395543 -209.336985 
L 265.434128 -210.991307 
L 265.455513 -212.645629 
L 265.467298 -214.299951 
L 265.477162 -215.954272 
L 265.492088 -217.608594 
L 265.517657 -219.262916 
L 265.557534 -220.917238 
L 265.613186 -222.571559 
L 265.683863 -224.225881 
L 265.766848 -225.880203 
L 265.857936 -227.534525 
L 265.952069 -229.188847 
L 266.04404 -230.843168 
L 266.129183 -232.49749 
L 266.203946 -234.151812 
L 266.26629 -235.806134 
L 266.315862 -237.460456 
L 266.353947 -239.114777 
L 266.383202 -240.769099 
L 266.407234 -242.423421 
L 266.430086 -244.077743 
L 266.455701 -245.732064 
L 266.487443 -247.386386 
L 268.457557 -247.386386 
L 268.457557 -247.386386 
L 268.489299 -245.732064 
L 268.514914 -244.077743 
L 268.537766 -242.423421 
L 268.561798 -240.769099 
L 268.591053 -239.114777 
L 268.629138 -237.460456 
L 268.67871 -235.806134 
L 268.741054 -234.151812 
L 268.815817 -232.49749 
L 268.90096 -230.843168 
L 268.992931 -229.188847 
L 269.087064 -227.534525 
L 269.178152 -225.880203 
L 269.261137 -224.225881 
L 269.331814 -222.571559 
L 269.387466 -220.917238 
L 269.427343 -219.262916 
L 269.452912 -217.608594 
L 269.467838 -215.954272 
L 269.477702 -214.299951 
L 269.489487 -212.645629 
L 269.510872 -210.991307 
L 269.549457 -209.336985 
L 269.611961 -207.682663 
L 269.703527 -206.028342 
L 269.827175 -204.37402 
L 269.983474 -202.719698 
L 270.170469 -201.065376 
L 270.383854 -199.411055 
L 270.617397 -197.756733 
L 270.863571 -196.102411 
L 271.114351 -194.448089 
L 271.362104 -192.793767 
L 271.600516 -191.139446 
L 271.825453 -189.485124 
L 272.035688 -187.830802 
L 272.233398 -186.17648 
L 272.424364 -184.522158 
L 272.617829 -182.867837 
L 272.825973 -181.213515 
L 273.063045 -179.559193 
L 273.344189 -177.904871 
L 273.684069 -176.25055 
L 274.095424 -174.596228 
L 274.587686 -172.941906 
L 275.165838 -171.287584 
L 275.829642 -169.633262 
L 276.573358 -167.978941 
L 277.386029 -166.324619 
L 278.252332 -164.670297 
L 279.153965 -163.015975 
L 280.071423 -161.361653 
L 280.986004 -159.707332 
L 281.881822 -158.05301 
L 282.747588 -156.398688 
L 283.577947 -154.744366 
L 284.374211 -153.090045 
L 285.144399 -151.435723 
L 285.902578 -149.781401 
L 286.667622 -148.127079 
L 287.461525 -146.472757 
L 288.307509 -144.818436 
L 289.228116 -143.164114 
L 290.243472 -141.509792 
L 291.369854 -139.85547 
L 292.618601 -138.201149 
L 293.995365 -136.546827 
L 295.499654 -134.892505 
L 297.124592 -133.238183 
L 298.856868 -131.583861 
L 300.676839 -129.92954 
L 302.558832 -128.275218 
L 304.471694 -126.620896 
L 306.379658 -124.966574 
L 308.243559 -123.312252 
L 310.022367 -121.657931 
L 311.674977 -120.003609 
L 313.162055 -118.349287 
L 314.447766 -116.694965 
L 315.50115 -115.040644 
L 316.296973 -113.386322 
L 316.81597 -111.732 
L 317.0445 -110.077678 
L 316.973761 -108.423356 
L 316.598813 -106.769035 
L 315.917689 -105.114713 
L 314.930891 -103.460391 
L 313.641435 -101.806069 
L 312.055532 -100.151748 
L 310.183796 -98.497426 
L 308.04273 -96.843104 
L 305.656174 -95.188782 
L 303.056317 -93.53446 
L 300.283966 -91.880139 
L 297.38786 -90.225817 
L 294.422979 -88.571495 
L 291.44798 -86.917173 
L 288.522023 -85.262851 
L 285.701372 -83.60853 
z
" style="stroke: #000000; stroke-opacity: 0.7"/>
    </defs>
    <g clip-path="url(#p798b5ac3ec)">
     <use xlink:href="#m1be6e47945" x="0" y="320.010529" style="fill: #dbdb8d; fill-opacity: 0.7; stroke: #000000; stroke-opacity: 0.7"/>
    </g>
   </g>
   <g id="PolyCollection_3">
    <defs>
     <path id="mafaf465c57" d="M 418.951742 -80.523646 
L 363.853258 -80.523646 
L 361.073986 -81.907128 
L 358.332909 -83.29061 
L 355.679311 -84.674091 
L 353.161551 -86.057573 
L 350.825034 -87.441055 
L 348.710246 -88.824537 
L 346.850971 -90.208018 
L 345.272811 -91.5915 
L 343.992116 -92.974982 
L 343.015407 -94.358463 
L 342.339354 -95.741945 
L 341.951329 -97.125427 
L 341.8305 -98.508909 
L 341.949415 -99.89239 
L 342.275955 -101.275872 
L 342.775505 -102.659354 
L 343.413184 -104.042836 
L 344.155943 -105.426317 
L 344.974358 -106.809799 
L 345.843984 -108.193281 
L 346.746153 -109.576762 
L 347.668181 -110.960244 
L 348.602978 -112.343726 
L 349.548163 -113.727208 
L 350.504766 -115.110689 
L 351.475727 -116.494171 
L 352.464329 -117.877653 
L 353.472778 -119.261134 
L 354.501073 -120.644616 
L 355.546288 -122.028098 
L 356.602337 -123.41158 
L 357.660223 -124.795061 
L 358.708729 -126.178543 
L 359.73544 -127.562025 
L 360.727976 -128.945507 
L 361.675254 -130.328988 
L 362.56865 -131.71247 
L 363.402899 -133.095952 
L 364.17665 -134.479433 
L 364.892604 -135.862915 
L 365.557241 -137.246397 
L 366.180167 -138.629879 
L 366.773169 -140.01336 
L 367.349094 -141.396842 
L 367.92067 -142.780324 
L 368.499405 -144.163805 
L 369.094668 -145.547287 
L 369.71303 -146.930769 
L 370.357936 -148.314251 
L 371.029683 -149.697732 
L 371.725721 -151.081214 
L 372.441187 -152.464696 
L 373.169622 -153.848178 
L 373.903763 -155.231659 
L 374.636338 -156.615141 
L 375.360761 -157.998623 
L 376.071683 -159.382104 
L 376.765335 -160.765586 
L 377.439668 -162.149068 
L 378.09427 -163.53255 
L 378.730112 -164.916031 
L 379.34916 -166.299513 
L 379.953914 -167.682995 
L 380.54693 -169.066476 
L 381.130387 -170.449958 
L 381.705742 -171.83344 
L 382.273499 -173.216922 
L 382.833106 -174.600403 
L 383.382983 -175.983885 
L 383.920649 -177.367367 
L 384.442922 -178.750849 
L 384.946174 -180.13433 
L 385.426592 -181.517812 
L 385.880423 -182.901294 
L 386.3042 -184.284775 
L 386.694908 -185.668257 
L 387.050125 -187.051739 
L 387.368115 -188.435221 
L 387.647882 -189.818702 
L 387.889215 -191.202184 
L 388.092696 -192.585666 
L 388.259704 -193.969147 
L 388.392395 -195.352629 
L 388.493668 -196.736111 
L 388.567105 -198.119593 
L 388.616888 -199.503074 
L 388.647684 -200.886556 
L 388.664508 -202.270038 
L 388.67256 -203.65352 
L 388.677043 -205.037001 
L 388.682972 -206.420483 
L 388.694983 -207.803965 
L 388.717156 -209.187446 
L 388.752851 -210.570928 
L 388.804589 -211.95441 
L 388.87396 -213.337892 
L 388.961585 -214.721373 
L 389.067128 -216.104855 
L 389.189349 -217.488337 
L 393.615651 -217.488337 
L 393.615651 -217.488337 
L 393.737872 -216.104855 
L 393.843415 -214.721373 
L 393.93104 -213.337892 
L 394.000411 -211.95441 
L 394.052149 -210.570928 
L 394.087844 -209.187446 
L 394.110017 -207.803965 
L 394.122028 -206.420483 
L 394.127957 -205.037001 
L 394.13244 -203.65352 
L 394.140492 -202.270038 
L 394.157316 -200.886556 
L 394.188112 -199.503074 
L 394.237895 -198.119593 
L 394.311332 -196.736111 
L 394.412605 -195.352629 
L 394.545296 -193.969147 
L 394.712304 -192.585666 
L 394.915785 -191.202184 
L 395.157118 -189.818702 
L 395.436885 -188.435221 
L 395.754875 -187.051739 
L 396.110092 -185.668257 
L 396.5008 -184.284775 
L 396.924577 -182.901294 
L 397.378408 -181.517812 
L 397.858826 -180.13433 
L 398.362078 -178.750849 
L 398.884351 -177.367367 
L 399.422017 -175.983885 
L 399.971894 -174.600403 
L 400.531501 -173.216922 
L 401.099258 -171.83344 
L 401.674613 -170.449958 
L 402.25807 -169.066476 
L 402.851086 -167.682995 
L 403.45584 -166.299513 
L 404.074888 -164.916031 
L 404.71073 -163.53255 
L 405.365332 -162.149068 
L 406.039665 -160.765586 
L 406.733317 -159.382104 
L 407.444239 -157.998623 
L 408.168662 -156.615141 
L 408.901237 -155.231659 
L 409.635378 -153.848178 
L 410.363813 -152.464696 
L 411.079279 -151.081214 
L 411.775317 -149.697732 
L 412.447064 -148.314251 
L 413.09197 -146.930769 
L 413.710332 -145.547287 
L 414.305595 -144.163805 
L 414.88433 -142.780324 
L 415.455906 -141.396842 
L 416.031831 -140.01336 
L 416.624833 -138.629879 
L 417.247759 -137.246397 
L 417.912396 -135.862915 
L 418.62835 -134.479433 
L 419.402101 -133.095952 
L 420.23635 -131.71247 
L 421.129746 -130.328988 
L 422.077024 -128.945507 
L 423.06956 -127.562025 
L 424.096271 -126.178543 
L 425.144777 -124.795061 
L 426.202663 -123.41158 
L 427.258712 -122.028098 
L 428.303927 -120.644616 
L 429.332222 -119.261134 
L 430.340671 -117.877653 
L 431.329273 -116.494171 
L 432.300234 -115.110689 
L 433.256837 -113.727208 
L 434.202022 -112.343726 
L 435.136819 -110.960244 
L 436.058847 -109.576762 
L 436.961016 -108.193281 
L 437.830642 -106.809799 
L 438.649057 -105.426317 
L 439.391816 -104.042836 
L 440.029495 -102.659354 
L 440.529045 -101.275872 
L 440.855585 -99.89239 
L 440.9745 -98.508909 
L 440.853671 -97.125427 
L 440.465646 -95.741945 
L 439.789593 -94.358463 
L 438.812884 -92.974982 
L 437.532189 -91.5915 
L 435.954029 -90.208018 
L 434.094754 -88.824537 
L 431.979966 -87.441055 
L 429.643449 -86.057573 
L 427.125689 -84.674091 
L 424.472091 -83.29061 
L 421.731014 -81.907128 
L 418.951742 -80.523646 
z
" style="stroke: #000000; stroke-opacity: 0.7"/>
    </defs>
    <g clip-path="url(#p798b5ac3ec)">
     <use xlink:href="#mafaf465c57" x="0" y="320.010529" style="fill: #66c2a5; fill-opacity: 0.7; stroke: #000000; stroke-opacity: 0.7"/>
    </g>
   </g>
   <g id="matplotlib.axis_1">
    <g id="xtick_1">
     <g id="line2d_1">
      <defs>
       <path id="m903551f735" d="M 0 0 
L 0 3.5 
" style="stroke: #000000; stroke-width: 0.8"/>
      </defs>
      <g>
       <use xlink:href="#m903551f735" x="143.5425" y="249.460305" style="stroke: #000000; stroke-width: 0.8"/>
      </g>
     </g>
     <g id="text_1">
      <!-- Hidden Valley -->
      <g transform="translate(93.084244 310.979564) rotate(-45) scale(0.12 -0.12)">
       <defs>
        <path id="TimesNewRomanPSMT-48" d="M 1316 2272 
L 3284 2272 
L 3284 3484 
Q 3284 3809 3244 3913 
Q 3213 3991 3113 4047 
Q 2978 4122 2828 4122 
L 2678 4122 
L 2678 4238 
L 4491 4238 
L 4491 4122 
L 4341 4122 
Q 4191 4122 4056 4050 
Q 3956 4000 3920 3898 
Q 3884 3797 3884 3484 
L 3884 750 
Q 3884 428 3925 325 
Q 3956 247 4053 191 
Q 4191 116 4341 116 
L 4491 116 
L 4491 0 
L 2678 0 
L 2678 116 
L 2828 116 
Q 3088 116 3206 269 
Q 3284 369 3284 750 
L 3284 2041 
L 1316 2041 
L 1316 750 
Q 1316 428 1356 325 
Q 1388 247 1488 191 
Q 1622 116 1772 116 
L 1925 116 
L 1925 0 
L 109 0 
L 109 116 
L 259 116 
Q 522 116 641 269 
Q 716 369 716 750 
L 716 3484 
Q 716 3809 675 3913 
Q 644 3991 547 4047 
Q 409 4122 259 4122 
L 109 4122 
L 109 4238 
L 1925 4238 
L 1925 4122 
L 1772 4122 
Q 1622 4122 1488 4050 
Q 1391 4000 1353 3898 
Q 1316 3797 1316 3484 
L 1316 2272 
z
" transform="scale(0.015625)"/>
        <path id="TimesNewRomanPSMT-69" d="M 928 4444 
Q 1059 4444 1151 4351 
Q 1244 4259 1244 4128 
Q 1244 3997 1151 3903 
Q 1059 3809 928 3809 
Q 797 3809 703 3903 
Q 609 3997 609 4128 
Q 609 4259 701 4351 
Q 794 4444 928 4444 
z
M 1188 2947 
L 1188 647 
Q 1188 378 1227 289 
Q 1266 200 1342 156 
Q 1419 113 1622 113 
L 1622 0 
L 231 0 
L 231 113 
Q 441 113 512 153 
Q 584 194 626 287 
Q 669 381 669 647 
L 669 1750 
Q 669 2216 641 2353 
Q 619 2453 572 2492 
Q 525 2531 444 2531 
Q 356 2531 231 2484 
L 188 2597 
L 1050 2947 
L 1188 2947 
z
" transform="scale(0.015625)"/>
        <path id="TimesNewRomanPSMT-64" d="M 2222 322 
Q 2013 103 1813 7 
Q 1613 -88 1381 -88 
Q 913 -88 563 304 
Q 213 697 213 1313 
Q 213 1928 600 2439 
Q 988 2950 1597 2950 
Q 1975 2950 2222 2709 
L 2222 3238 
Q 2222 3728 2198 3840 
Q 2175 3953 2125 3993 
Q 2075 4034 2000 4034 
Q 1919 4034 1784 3984 
L 1744 4094 
L 2597 4444 
L 2738 4444 
L 2738 1134 
Q 2738 631 2761 520 
Q 2784 409 2836 365 
Q 2888 322 2956 322 
Q 3041 322 3181 375 
L 3216 266 
L 2366 -88 
L 2222 -88 
L 2222 322 
z
M 2222 541 
L 2222 2016 
Q 2203 2228 2109 2403 
Q 2016 2578 1861 2667 
Q 1706 2756 1559 2756 
Q 1284 2756 1069 2509 
Q 784 2184 784 1559 
Q 784 928 1059 592 
Q 1334 256 1672 256 
Q 1956 256 2222 541 
z
" transform="scale(0.015625)"/>
        <path id="TimesNewRomanPSMT-65" d="M 681 1784 
Q 678 1147 991 784 
Q 1303 422 1725 422 
Q 2006 422 2214 576 
Q 2422 731 2563 1106 
L 2659 1044 
Q 2594 616 2278 264 
Q 1963 -88 1488 -88 
Q 972 -88 605 314 
Q 238 716 238 1394 
Q 238 2128 614 2539 
Q 991 2950 1559 2950 
Q 2041 2950 2350 2633 
Q 2659 2316 2659 1784 
L 681 1784 
z
M 681 1966 
L 2006 1966 
Q 1991 2241 1941 2353 
Q 1863 2528 1708 2628 
Q 1553 2728 1384 2728 
Q 1125 2728 920 2526 
Q 716 2325 681 1966 
z
" transform="scale(0.015625)"/>
        <path id="TimesNewRomanPSMT-6e" d="M 1034 2341 
Q 1538 2947 1994 2947 
Q 2228 2947 2397 2830 
Q 2566 2713 2666 2444 
Q 2734 2256 2734 1869 
L 2734 647 
Q 2734 375 2778 278 
Q 2813 200 2889 156 
Q 2966 113 3172 113 
L 3172 0 
L 1756 0 
L 1756 113 
L 1816 113 
Q 2016 113 2095 173 
Q 2175 234 2206 353 
Q 2219 400 2219 647 
L 2219 1819 
Q 2219 2209 2117 2386 
Q 2016 2563 1775 2563 
Q 1403 2563 1034 2156 
L 1034 647 
Q 1034 356 1069 288 
Q 1113 197 1189 155 
Q 1266 113 1500 113 
L 1500 0 
L 84 0 
L 84 113 
L 147 113 
Q 366 113 442 223 
Q 519 334 519 647 
L 519 1709 
Q 519 2225 495 2337 
Q 472 2450 423 2490 
Q 375 2531 294 2531 
Q 206 2531 84 2484 
L 38 2597 
L 900 2947 
L 1034 2947 
L 1034 2341 
z
" transform="scale(0.015625)"/>
        <path id="TimesNewRomanPSMT-20" transform="scale(0.015625)"/>
        <path id="TimesNewRomanPSMT-56" d="M 4544 4238 
L 4544 4122 
Q 4319 4081 4203 3978 
Q 4038 3825 3909 3509 
L 2431 -97 
L 2316 -97 
L 728 3556 
Q 606 3838 556 3900 
Q 478 3997 364 4051 
Q 250 4106 56 4122 
L 56 4238 
L 1788 4238 
L 1788 4122 
Q 1494 4094 1406 4022 
Q 1319 3950 1319 3838 
Q 1319 3681 1463 3350 
L 2541 866 
L 3541 3319 
Q 3688 3681 3688 3822 
Q 3688 3913 3597 3995 
Q 3506 4078 3291 4113 
Q 3275 4116 3238 4122 
L 3238 4238 
L 4544 4238 
z
" transform="scale(0.015625)"/>
        <path id="TimesNewRomanPSMT-61" d="M 1822 413 
Q 1381 72 1269 19 
Q 1100 -59 909 -59 
Q 613 -59 420 144 
Q 228 347 228 678 
Q 228 888 322 1041 
Q 450 1253 767 1440 
Q 1084 1628 1822 1897 
L 1822 2009 
Q 1822 2438 1686 2597 
Q 1550 2756 1291 2756 
Q 1094 2756 978 2650 
Q 859 2544 859 2406 
L 866 2225 
Q 866 2081 792 2003 
Q 719 1925 600 1925 
Q 484 1925 411 2006 
Q 338 2088 338 2228 
Q 338 2497 613 2722 
Q 888 2947 1384 2947 
Q 1766 2947 2009 2819 
Q 2194 2722 2281 2516 
Q 2338 2381 2338 1966 
L 2338 994 
Q 2338 584 2353 492 
Q 2369 400 2405 369 
Q 2441 338 2488 338 
Q 2538 338 2575 359 
Q 2641 400 2828 588 
L 2828 413 
Q 2478 -56 2159 -56 
Q 2006 -56 1915 50 
Q 1825 156 1822 413 
z
M 1822 616 
L 1822 1706 
Q 1350 1519 1213 1441 
Q 966 1303 859 1153 
Q 753 1003 753 825 
Q 753 600 887 451 
Q 1022 303 1197 303 
Q 1434 303 1822 616 
z
" transform="scale(0.015625)"/>
        <path id="TimesNewRomanPSMT-6c" d="M 1184 4444 
L 1184 647 
Q 1184 378 1223 290 
Q 1263 203 1344 158 
Q 1425 113 1647 113 
L 1647 0 
L 244 0 
L 244 113 
Q 441 113 512 153 
Q 584 194 625 287 
Q 666 381 666 647 
L 666 3247 
Q 666 3731 644 3842 
Q 622 3953 573 3993 
Q 525 4034 450 4034 
Q 369 4034 244 3984 
L 191 4094 
L 1044 4444 
L 1184 4444 
z
" transform="scale(0.015625)"/>
        <path id="TimesNewRomanPSMT-79" d="M 38 2863 
L 1372 2863 
L 1372 2747 
L 1306 2747 
Q 1166 2747 1095 2686 
Q 1025 2625 1025 2534 
Q 1025 2413 1128 2197 
L 1825 753 
L 2466 2334 
Q 2519 2463 2519 2588 
Q 2519 2644 2497 2672 
Q 2472 2706 2419 2726 
Q 2366 2747 2231 2747 
L 2231 2863 
L 3163 2863 
L 3163 2747 
Q 3047 2734 2984 2696 
Q 2922 2659 2847 2556 
Q 2819 2513 2741 2316 
L 1575 -541 
Q 1406 -956 1132 -1168 
Q 859 -1381 606 -1381 
Q 422 -1381 303 -1275 
Q 184 -1169 184 -1031 
Q 184 -900 270 -820 
Q 356 -741 506 -741 
Q 609 -741 788 -809 
Q 913 -856 944 -856 
Q 1038 -856 1148 -759 
Q 1259 -663 1372 -384 
L 1575 113 
L 547 2272 
Q 500 2369 397 2513 
Q 319 2622 269 2659 
Q 197 2709 38 2747 
L 38 2863 
z
" transform="scale(0.015625)"/>
       </defs>
       <use xlink:href="#TimesNewRomanPSMT-48"/>
       <use xlink:href="#TimesNewRomanPSMT-69" x="72.216797"/>
       <use xlink:href="#TimesNewRomanPSMT-64" x="100"/>
       <use xlink:href="#TimesNewRomanPSMT-64" x="150"/>
       <use xlink:href="#TimesNewRomanPSMT-65" x="200"/>
       <use xlink:href="#TimesNewRomanPSMT-6e" x="244.384766"/>
       <use xlink:href="#TimesNewRomanPSMT-20" x="294.384766"/>
       <use xlink:href="#TimesNewRomanPSMT-56" x="317.634766"/>
       <use xlink:href="#TimesNewRomanPSMT-61" x="378.726562"/>
       <use xlink:href="#TimesNewRomanPSMT-6c" x="423.111328"/>
       <use xlink:href="#TimesNewRomanPSMT-6c" x="450.894531"/>
       <use xlink:href="#TimesNewRomanPSMT-65" x="478.677734"/>
       <use xlink:href="#TimesNewRomanPSMT-79" x="523.0625"/>
      </g>
     </g>
    </g>
    <g id="xtick_2">
     <g id="line2d_2">
      <g>
       <use xlink:href="#m903551f735" x="267.4725" y="249.460305" style="stroke: #000000; stroke-width: 0.8"/>
      </g>
     </g>
     <g id="text_2">
      <!-- Moon Cavern -->
      <g transform="translate(218.75903 309.250688) rotate(-45) scale(0.12 -0.12)">
       <defs>
        <path id="TimesNewRomanPSMT-4d" d="M 2619 0 
L 981 3566 
L 981 734 
Q 981 344 1066 247 
Q 1181 116 1431 116 
L 1581 116 
L 1581 0 
L 106 0 
L 106 116 
L 256 116 
Q 525 116 638 278 
Q 706 378 706 734 
L 706 3503 
Q 706 3784 644 3909 
Q 600 4000 483 4061 
Q 366 4122 106 4122 
L 106 4238 
L 1306 4238 
L 2844 922 
L 4356 4238 
L 5556 4238 
L 5556 4122 
L 5409 4122 
Q 5138 4122 5025 3959 
Q 4956 3859 4956 3503 
L 4956 734 
Q 4956 344 5044 247 
Q 5159 116 5409 116 
L 5556 116 
L 5556 0 
L 3756 0 
L 3756 116 
L 3906 116 
Q 4178 116 4288 278 
Q 4356 378 4356 734 
L 4356 3566 
L 2722 0 
L 2619 0 
z
" transform="scale(0.015625)"/>
        <path id="TimesNewRomanPSMT-6f" d="M 1600 2947 
Q 2250 2947 2644 2453 
Q 2978 2031 2978 1484 
Q 2978 1100 2793 706 
Q 2609 313 2286 112 
Q 1963 -88 1566 -88 
Q 919 -88 538 428 
Q 216 863 216 1403 
Q 216 1797 411 2186 
Q 606 2575 925 2761 
Q 1244 2947 1600 2947 
z
M 1503 2744 
Q 1338 2744 1170 2645 
Q 1003 2547 900 2300 
Q 797 2053 797 1666 
Q 797 1041 1045 587 
Q 1294 134 1700 134 
Q 2003 134 2200 384 
Q 2397 634 2397 1244 
Q 2397 2006 2069 2444 
Q 1847 2744 1503 2744 
z
" transform="scale(0.015625)"/>
        <path id="TimesNewRomanPSMT-43" d="M 3853 4334 
L 3950 2894 
L 3853 2894 
Q 3659 3541 3300 3825 
Q 2941 4109 2438 4109 
Q 2016 4109 1675 3895 
Q 1334 3681 1139 3212 
Q 944 2744 944 2047 
Q 944 1472 1128 1050 
Q 1313 628 1683 403 
Q 2053 178 2528 178 
Q 2941 178 3256 354 
Q 3572 531 3950 1056 
L 4047 994 
Q 3728 428 3303 165 
Q 2878 -97 2294 -97 
Q 1241 -97 663 684 
Q 231 1266 231 2053 
Q 231 2688 515 3219 
Q 800 3750 1298 4042 
Q 1797 4334 2388 4334 
Q 2847 4334 3294 4109 
Q 3425 4041 3481 4041 
Q 3566 4041 3628 4100 
Q 3709 4184 3744 4334 
L 3853 4334 
z
" transform="scale(0.015625)"/>
        <path id="TimesNewRomanPSMT-76" d="M 53 2863 
L 1400 2863 
L 1400 2747 
L 1313 2747 
Q 1191 2747 1127 2687 
Q 1063 2628 1063 2528 
Q 1063 2419 1128 2269 
L 1794 688 
L 2463 2328 
Q 2534 2503 2534 2594 
Q 2534 2638 2509 2666 
Q 2475 2713 2422 2730 
Q 2369 2747 2206 2747 
L 2206 2863 
L 3141 2863 
L 3141 2747 
Q 2978 2734 2916 2681 
Q 2806 2588 2719 2369 
L 1703 -88 
L 1575 -88 
L 553 2328 
Q 484 2497 421 2570 
Q 359 2644 263 2694 
Q 209 2722 53 2747 
L 53 2863 
z
" transform="scale(0.015625)"/>
        <path id="TimesNewRomanPSMT-72" d="M 1038 2947 
L 1038 2303 
Q 1397 2947 1775 2947 
Q 1947 2947 2059 2842 
Q 2172 2738 2172 2600 
Q 2172 2478 2090 2393 
Q 2009 2309 1897 2309 
Q 1788 2309 1652 2417 
Q 1516 2525 1450 2525 
Q 1394 2525 1328 2463 
Q 1188 2334 1038 2041 
L 1038 669 
Q 1038 431 1097 309 
Q 1138 225 1241 169 
Q 1344 113 1538 113 
L 1538 0 
L 72 0 
L 72 113 
Q 291 113 397 181 
Q 475 231 506 341 
Q 522 394 522 644 
L 522 1753 
Q 522 2253 501 2348 
Q 481 2444 426 2487 
Q 372 2531 291 2531 
Q 194 2531 72 2484 
L 41 2597 
L 906 2947 
L 1038 2947 
z
" transform="scale(0.015625)"/>
       </defs>
       <use xlink:href="#TimesNewRomanPSMT-4d"/>
       <use xlink:href="#TimesNewRomanPSMT-6f" x="88.916016"/>
       <use xlink:href="#TimesNewRomanPSMT-6f" x="138.916016"/>
       <use xlink:href="#TimesNewRomanPSMT-6e" x="188.916016"/>
       <use xlink:href="#TimesNewRomanPSMT-20" x="238.916016"/>
       <use xlink:href="#TimesNewRomanPSMT-43" x="263.916016"/>
       <use xlink:href="#TimesNewRomanPSMT-61" x="330.615234"/>
       <use xlink:href="#TimesNewRomanPSMT-76" x="375"/>
       <use xlink:href="#TimesNewRomanPSMT-65" x="425"/>
       <use xlink:href="#TimesNewRomanPSMT-72" x="469.384766"/>
       <use xlink:href="#TimesNewRomanPSMT-6e" x="502.685547"/>
      </g>
     </g>
    </g>
    <g id="xtick_3">
     <g id="line2d_3">
      <g>
       <use xlink:href="#m903551f735" x="391.4025" y="249.460305" style="stroke: #000000; stroke-width: 0.8"/>
      </g>
     </g>
     <g id="text_3">
      <!-- Maple Arbor -->
      <g transform="translate(345.990335 305.949383) rotate(-45) scale(0.12 -0.12)">
       <defs>
        <path id="TimesNewRomanPSMT-70" d="M -6 2578 
L 875 2934 
L 994 2934 
L 994 2266 
Q 1216 2644 1439 2795 
Q 1663 2947 1909 2947 
Q 2341 2947 2628 2609 
Q 2981 2197 2981 1534 
Q 2981 794 2556 309 
Q 2206 -88 1675 -88 
Q 1444 -88 1275 -22 
Q 1150 25 994 166 
L 994 -706 
Q 994 -1000 1030 -1079 
Q 1066 -1159 1155 -1206 
Q 1244 -1253 1478 -1253 
L 1478 -1369 
L -22 -1369 
L -22 -1253 
L 56 -1253 
Q 228 -1256 350 -1188 
Q 409 -1153 442 -1076 
Q 475 -1000 475 -688 
L 475 2019 
Q 475 2297 450 2372 
Q 425 2447 370 2484 
Q 316 2522 222 2522 
Q 147 2522 31 2478 
L -6 2578 
z
M 994 2081 
L 994 1013 
Q 994 666 1022 556 
Q 1066 375 1236 237 
Q 1406 100 1666 100 
Q 1978 100 2172 344 
Q 2425 663 2425 1241 
Q 2425 1897 2138 2250 
Q 1938 2494 1663 2494 
Q 1513 2494 1366 2419 
Q 1253 2363 994 2081 
z
" transform="scale(0.015625)"/>
        <path id="TimesNewRomanPSMT-41" d="M 2928 1419 
L 1288 1419 
L 1000 750 
Q 894 503 894 381 
Q 894 284 986 211 
Q 1078 138 1384 116 
L 1384 0 
L 50 0 
L 50 116 
Q 316 163 394 238 
Q 553 388 747 847 
L 2238 4334 
L 2347 4334 
L 3822 809 
Q 4000 384 4145 257 
Q 4291 131 4550 116 
L 4550 0 
L 2878 0 
L 2878 116 
Q 3131 128 3220 200 
Q 3309 272 3309 375 
Q 3309 513 3184 809 
L 2928 1419 
z
M 2841 1650 
L 2122 3363 
L 1384 1650 
L 2841 1650 
z
" transform="scale(0.015625)"/>
        <path id="TimesNewRomanPSMT-62" d="M 984 2369 
Q 1400 2947 1881 2947 
Q 2322 2947 2650 2570 
Q 2978 2194 2978 1541 
Q 2978 778 2472 313 
Q 2038 -88 1503 -88 
Q 1253 -88 995 3 
Q 738 94 469 275 
L 469 3241 
Q 469 3728 445 3840 
Q 422 3953 372 3993 
Q 322 4034 247 4034 
Q 159 4034 28 3984 
L -16 4094 
L 844 4444 
L 984 4444 
L 984 2369 
z
M 984 2169 
L 984 456 
Q 1144 300 1314 220 
Q 1484 141 1663 141 
Q 1947 141 2192 453 
Q 2438 766 2438 1363 
Q 2438 1913 2192 2208 
Q 1947 2503 1634 2503 
Q 1469 2503 1303 2419 
Q 1178 2356 984 2169 
z
" transform="scale(0.015625)"/>
       </defs>
       <use xlink:href="#TimesNewRomanPSMT-4d"/>
       <use xlink:href="#TimesNewRomanPSMT-61" x="88.916016"/>
       <use xlink:href="#TimesNewRomanPSMT-70" x="133.300781"/>
       <use xlink:href="#TimesNewRomanPSMT-6c" x="183.300781"/>
       <use xlink:href="#TimesNewRomanPSMT-65" x="211.083984"/>
       <use xlink:href="#TimesNewRomanPSMT-20" x="255.46875"/>
       <use xlink:href="#TimesNewRomanPSMT-41" x="274.96875"/>
       <use xlink:href="#TimesNewRomanPSMT-72" x="347.185547"/>
       <use xlink:href="#TimesNewRomanPSMT-62" x="380.486328"/>
       <use xlink:href="#TimesNewRomanPSMT-6f" x="430.486328"/>
       <use xlink:href="#TimesNewRomanPSMT-72" x="480.486328"/>
      </g>
     </g>
    </g>
   </g>
   <g id="matplotlib.axis_2">
    <g id="ytick_1">
     <g id="line2d_4">
      <defs>
       <path id="mb8b6d050a0" d="M 0 0 
L -3.5 0 
" style="stroke: #000000; stroke-width: 0.8"/>
      </defs>
      <g>
       <use xlink:href="#mb8b6d050a0" x="81.5775" y="229.818847" style="stroke: #000000; stroke-width: 0.8"/>
      </g>
     </g>
     <g id="text_4">
      <!-- 5000 -->
      <g transform="translate(54.5775 233.290722) scale(0.1 -0.1)">
       <defs>
        <path id="TimesNewRomanPSMT-35" d="M 2778 4238 
L 2534 3706 
L 1259 3706 
L 981 3138 
Q 1809 3016 2294 2522 
Q 2709 2097 2709 1522 
Q 2709 1188 2573 903 
Q 2438 619 2231 419 
Q 2025 219 1772 97 
Q 1413 -75 1034 -75 
Q 653 -75 479 54 
Q 306 184 306 341 
Q 306 428 378 495 
Q 450 563 559 563 
Q 641 563 702 538 
Q 763 513 909 409 
Q 1144 247 1384 247 
Q 1750 247 2026 523 
Q 2303 800 2303 1197 
Q 2303 1581 2056 1914 
Q 1809 2247 1375 2428 
Q 1034 2569 447 2591 
L 1259 4238 
L 2778 4238 
z
" transform="scale(0.015625)"/>
        <path id="TimesNewRomanPSMT-30" d="M 231 2094 
Q 231 2819 450 3342 
Q 669 3866 1031 4122 
Q 1313 4325 1613 4325 
Q 2100 4325 2488 3828 
Q 2972 3213 2972 2159 
Q 2972 1422 2759 906 
Q 2547 391 2217 158 
Q 1888 -75 1581 -75 
Q 975 -75 572 641 
Q 231 1244 231 2094 
z
M 844 2016 
Q 844 1141 1059 588 
Q 1238 122 1591 122 
Q 1759 122 1940 273 
Q 2122 425 2216 781 
Q 2359 1319 2359 2297 
Q 2359 3022 2209 3506 
Q 2097 3866 1919 4016 
Q 1791 4119 1609 4119 
Q 1397 4119 1231 3928 
Q 1006 3669 925 3112 
Q 844 2556 844 2016 
z
" transform="scale(0.015625)"/>
       </defs>
       <use xlink:href="#TimesNewRomanPSMT-35"/>
       <use xlink:href="#TimesNewRomanPSMT-30" x="50"/>
       <use xlink:href="#TimesNewRomanPSMT-30" x="100"/>
       <use xlink:href="#TimesNewRomanPSMT-30" x="150"/>
      </g>
     </g>
    </g>
    <g id="ytick_2">
     <g id="line2d_5">
      <g>
       <use xlink:href="#mb8b6d050a0" x="81.5775" y="203.982303" style="stroke: #000000; stroke-width: 0.8"/>
      </g>
     </g>
     <g id="text_5">
      <!-- 10000 -->
      <g transform="translate(49.5775 207.454178) scale(0.1 -0.1)">
       <defs>
        <path id="TimesNewRomanPSMT-31" d="M 750 3822 
L 1781 4325 
L 1884 4325 
L 1884 747 
Q 1884 391 1914 303 
Q 1944 216 2037 169 
Q 2131 122 2419 116 
L 2419 0 
L 825 0 
L 825 116 
Q 1125 122 1212 167 
Q 1300 213 1334 289 
Q 1369 366 1369 747 
L 1369 3034 
Q 1369 3497 1338 3628 
Q 1316 3728 1258 3775 
Q 1200 3822 1119 3822 
Q 1003 3822 797 3725 
L 750 3822 
z
" transform="scale(0.015625)"/>
       </defs>
       <use xlink:href="#TimesNewRomanPSMT-31"/>
       <use xlink:href="#TimesNewRomanPSMT-30" x="50"/>
       <use xlink:href="#TimesNewRomanPSMT-30" x="100"/>
       <use xlink:href="#TimesNewRomanPSMT-30" x="150"/>
       <use xlink:href="#TimesNewRomanPSMT-30" x="200"/>
      </g>
     </g>
    </g>
    <g id="ytick_3">
     <g id="line2d_6">
      <g>
       <use xlink:href="#mb8b6d050a0" x="81.5775" y="178.145758" style="stroke: #000000; stroke-width: 0.8"/>
      </g>
     </g>
     <g id="text_6">
      <!-- 15000 -->
      <g transform="translate(49.5775 181.617633) scale(0.1 -0.1)">
       <use xlink:href="#TimesNewRomanPSMT-31"/>
       <use xlink:href="#TimesNewRomanPSMT-35" x="50"/>
       <use xlink:href="#TimesNewRomanPSMT-30" x="100"/>
       <use xlink:href="#TimesNewRomanPSMT-30" x="150"/>
       <use xlink:href="#TimesNewRomanPSMT-30" x="200"/>
      </g>
     </g>
    </g>
    <g id="ytick_4">
     <g id="line2d_7">
      <g>
       <use xlink:href="#mb8b6d050a0" x="81.5775" y="152.309213" style="stroke: #000000; stroke-width: 0.8"/>
      </g>
     </g>
     <g id="text_7">
      <!-- 20000 -->
      <g transform="translate(49.5775 155.781088) scale(0.1 -0.1)">
       <defs>
        <path id="TimesNewRomanPSMT-32" d="M 2934 816 
L 2638 0 
L 138 0 
L 138 116 
Q 1241 1122 1691 1759 
Q 2141 2397 2141 2925 
Q 2141 3328 1894 3587 
Q 1647 3847 1303 3847 
Q 991 3847 742 3664 
Q 494 3481 375 3128 
L 259 3128 
Q 338 3706 661 4015 
Q 984 4325 1469 4325 
Q 1984 4325 2329 3994 
Q 2675 3663 2675 3213 
Q 2675 2891 2525 2569 
Q 2294 2063 1775 1497 
Q 997 647 803 472 
L 1909 472 
Q 2247 472 2383 497 
Q 2519 522 2628 598 
Q 2738 675 2819 816 
L 2934 816 
z
" transform="scale(0.015625)"/>
       </defs>
       <use xlink:href="#TimesNewRomanPSMT-32"/>
       <use xlink:href="#TimesNewRomanPSMT-30" x="50"/>
       <use xlink:href="#TimesNewRomanPSMT-30" x="100"/>
       <use xlink:href="#TimesNewRomanPSMT-30" x="150"/>
       <use xlink:href="#TimesNewRomanPSMT-30" x="200"/>
      </g>
     </g>
    </g>
    <g id="ytick_5">
     <g id="line2d_8">
      <g>
       <use xlink:href="#mb8b6d050a0" x="81.5775" y="126.472669" style="stroke: #000000; stroke-width: 0.8"/>
      </g>
     </g>
     <g id="text_8">
      <!-- 25000 -->
      <g transform="translate(49.5775 129.944544) scale(0.1 -0.1)">
       <use xlink:href="#TimesNewRomanPSMT-32"/>
       <use xlink:href="#TimesNewRomanPSMT-35" x="50"/>
       <use xlink:href="#TimesNewRomanPSMT-30" x="100"/>
       <use xlink:href="#TimesNewRomanPSMT-30" x="150"/>
       <use xlink:href="#TimesNewRomanPSMT-30" x="200"/>
      </g>
     </g>
    </g>
    <g id="ytick_6">
     <g id="line2d_9">
      <g>
       <use xlink:href="#mb8b6d050a0" x="81.5775" y="100.636124" style="stroke: #000000; stroke-width: 0.8"/>
      </g>
     </g>
     <g id="text_9">
      <!-- 30000 -->
      <g transform="translate(49.5775 104.107999) scale(0.1 -0.1)">
       <defs>
        <path id="TimesNewRomanPSMT-33" d="M 325 3431 
Q 506 3859 782 4092 
Q 1059 4325 1472 4325 
Q 1981 4325 2253 3994 
Q 2459 3747 2459 3466 
Q 2459 3003 1878 2509 
Q 2269 2356 2469 2072 
Q 2669 1788 2669 1403 
Q 2669 853 2319 450 
Q 1863 -75 997 -75 
Q 569 -75 414 31 
Q 259 138 259 259 
Q 259 350 332 419 
Q 406 488 509 488 
Q 588 488 669 463 
Q 722 447 909 348 
Q 1097 250 1169 231 
Q 1284 197 1416 197 
Q 1734 197 1970 444 
Q 2206 691 2206 1028 
Q 2206 1275 2097 1509 
Q 2016 1684 1919 1775 
Q 1784 1900 1550 2001 
Q 1316 2103 1072 2103 
L 972 2103 
L 972 2197 
Q 1219 2228 1467 2375 
Q 1716 2522 1828 2728 
Q 1941 2934 1941 3181 
Q 1941 3503 1739 3701 
Q 1538 3900 1238 3900 
Q 753 3900 428 3381 
L 325 3431 
z
" transform="scale(0.015625)"/>
       </defs>
       <use xlink:href="#TimesNewRomanPSMT-33"/>
       <use xlink:href="#TimesNewRomanPSMT-30" x="50"/>
       <use xlink:href="#TimesNewRomanPSMT-30" x="100"/>
       <use xlink:href="#TimesNewRomanPSMT-30" x="150"/>
       <use xlink:href="#TimesNewRomanPSMT-30" x="200"/>
      </g>
     </g>
    </g>
    <g id="ytick_7">
     <g id="line2d_10">
      <g>
       <use xlink:href="#mb8b6d050a0" x="81.5775" y="74.799579" style="stroke: #000000; stroke-width: 0.8"/>
      </g>
     </g>
     <g id="text_10">
      <!-- 35000 -->
      <g transform="translate(49.5775 78.271454) scale(0.1 -0.1)">
       <use xlink:href="#TimesNewRomanPSMT-33"/>
       <use xlink:href="#TimesNewRomanPSMT-35" x="50"/>
       <use xlink:href="#TimesNewRomanPSMT-30" x="100"/>
       <use xlink:href="#TimesNewRomanPSMT-30" x="150"/>
       <use xlink:href="#TimesNewRomanPSMT-30" x="200"/>
      </g>
     </g>
    </g>
    <g id="ytick_8">
     <g id="line2d_11">
      <g>
       <use xlink:href="#mb8b6d050a0" x="81.5775" y="48.963035" style="stroke: #000000; stroke-width: 0.8"/>
      </g>
     </g>
     <g id="text_11">
      <!-- 40000 -->
      <g transform="translate(49.5775 52.43491) scale(0.1 -0.1)">
       <defs>
        <path id="TimesNewRomanPSMT-34" d="M 2978 1563 
L 2978 1119 
L 2409 1119 
L 2409 0 
L 1894 0 
L 1894 1119 
L 100 1119 
L 100 1519 
L 2066 4325 
L 2409 4325 
L 2409 1563 
L 2978 1563 
z
M 1894 1563 
L 1894 3666 
L 406 1563 
L 1894 1563 
z
" transform="scale(0.015625)"/>
       </defs>
       <use xlink:href="#TimesNewRomanPSMT-34"/>
       <use xlink:href="#TimesNewRomanPSMT-30" x="50"/>
       <use xlink:href="#TimesNewRomanPSMT-30" x="100"/>
       <use xlink:href="#TimesNewRomanPSMT-30" x="150"/>
       <use xlink:href="#TimesNewRomanPSMT-30" x="200"/>
      </g>
     </g>
    </g>
    <g id="text_12">
     <!-- Visitors -->
     <g transform="translate(42.582812 161.501871) rotate(-90) scale(0.14 -0.14)">
      <defs>
       <path id="TimesNewRomanPSMT-73" d="M 2050 2947 
L 2050 1972 
L 1947 1972 
Q 1828 2431 1642 2597 
Q 1456 2763 1169 2763 
Q 950 2763 815 2647 
Q 681 2531 681 2391 
Q 681 2216 781 2091 
Q 878 1963 1175 1819 
L 1631 1597 
Q 2266 1288 2266 781 
Q 2266 391 1970 151 
Q 1675 -88 1309 -88 
Q 1047 -88 709 6 
Q 606 38 541 38 
Q 469 38 428 -44 
L 325 -44 
L 325 978 
L 428 978 
Q 516 541 762 319 
Q 1009 97 1316 97 
Q 1531 97 1667 223 
Q 1803 350 1803 528 
Q 1803 744 1651 891 
Q 1500 1038 1047 1263 
Q 594 1488 453 1669 
Q 313 1847 313 2119 
Q 313 2472 555 2709 
Q 797 2947 1181 2947 
Q 1350 2947 1591 2875 
Q 1750 2828 1803 2828 
Q 1853 2828 1881 2850 
Q 1909 2872 1947 2947 
L 2050 2947 
z
" transform="scale(0.015625)"/>
       <path id="TimesNewRomanPSMT-74" d="M 1031 3803 
L 1031 2863 
L 1700 2863 
L 1700 2644 
L 1031 2644 
L 1031 788 
Q 1031 509 1111 412 
Q 1191 316 1316 316 
Q 1419 316 1516 380 
Q 1613 444 1666 569 
L 1788 569 
Q 1678 263 1478 108 
Q 1278 -47 1066 -47 
Q 922 -47 784 33 
Q 647 113 581 261 
Q 516 409 516 719 
L 516 2644 
L 63 2644 
L 63 2747 
Q 234 2816 414 2980 
Q 594 3144 734 3369 
Q 806 3488 934 3803 
L 1031 3803 
z
" transform="scale(0.015625)"/>
      </defs>
      <use xlink:href="#TimesNewRomanPSMT-56"/>
      <use xlink:href="#TimesNewRomanPSMT-69" x="66.216797"/>
      <use xlink:href="#TimesNewRomanPSMT-73" x="94"/>
      <use xlink:href="#TimesNewRomanPSMT-69" x="132.916016"/>
      <use xlink:href="#TimesNewRomanPSMT-74" x="160.699219"/>
      <use xlink:href="#TimesNewRomanPSMT-6f" x="188.482422"/>
      <use xlink:href="#TimesNewRomanPSMT-72" x="238.482422"/>
      <use xlink:href="#TimesNewRomanPSMT-73" x="271.783203"/>
     </g>
    </g>
   </g>
   <g id="patch_3">
    <path d="M 136.1067 217.651127 
L 150.9783 217.651127 
L 150.9783 180.141631 
L 136.1067 180.141631 
L 136.1067 217.651127 
L 136.1067 217.651127 
z
" clip-path="url(#p798b5ac3ec)" style="fill: none; stroke: #000000; stroke-linejoin: miter"/>
   </g>
   <g id="line2d_12">
    <path d="M 143.5425 217.651127 
L 143.5425 235.942108 
" clip-path="url(#p798b5ac3ec)" style="fill: none; stroke: #000000; stroke-linecap: square"/>
   </g>
   <g id="line2d_13">
    <path d="M 143.5425 180.141631 
L 143.5425 125.656234 
" clip-path="url(#p798b5ac3ec)" style="fill: none; stroke: #000000; stroke-linecap: square"/>
   </g>
   <g id="line2d_14">
    <path d="M 139.8246 235.942108 
L 147.2604 235.942108 
" clip-path="url(#p798b5ac3ec)" style="fill: none; stroke: #000000; stroke-linecap: square"/>
   </g>
   <g id="line2d_15">
    <path d="M 139.8246 125.656234 
L 147.2604 125.656234 
" clip-path="url(#p798b5ac3ec)" style="fill: none; stroke: #000000; stroke-linecap: square"/>
   </g>
   <g id="patch_4">
    <path d="M 260.0367 217.094349 
L 274.9083 217.094349 
L 274.9083 183.222639 
L 260.0367 183.222639 
L 260.0367 217.094349 
L 260.0367 217.094349 
z
" clip-path="url(#p798b5ac3ec)" style="fill: none; stroke: #000000; stroke-linejoin: miter"/>
   </g>
   <g id="line2d_16">
    <path d="M 267.4725 217.094349 
L 267.4725 236.401999 
" clip-path="url(#p798b5ac3ec)" style="fill: none; stroke: #000000; stroke-linecap: square"/>
   </g>
   <g id="line2d_17">
    <path d="M 267.4725 183.222639 
L 267.4725 133.887757 
" clip-path="url(#p798b5ac3ec)" style="fill: none; stroke: #000000; stroke-linecap: square"/>
   </g>
   <g id="line2d_18">
    <path d="M 263.7546 236.401999 
L 271.1904 236.401999 
" clip-path="url(#p798b5ac3ec)" style="fill: none; stroke: #000000; stroke-linecap: square"/>
   </g>
   <g id="line2d_19">
    <path d="M 263.7546 133.887757 
L 271.1904 133.887757 
" clip-path="url(#p798b5ac3ec)" style="fill: none; stroke: #000000; stroke-linecap: square"/>
   </g>
   <g id="patch_5">
    <path d="M 383.9667 224.753593 
L 398.8383 224.753593 
L 398.8383 181.793878 
L 383.9667 181.793878 
L 383.9667 224.753593 
L 383.9667 224.753593 
z
" clip-path="url(#p798b5ac3ec)" style="fill: none; stroke: #000000; stroke-linejoin: miter"/>
   </g>
   <g id="line2d_20">
    <path d="M 391.4025 224.753593 
L 391.4025 239.486882 
" clip-path="url(#p798b5ac3ec)" style="fill: none; stroke: #000000; stroke-linecap: square"/>
   </g>
   <g id="line2d_21">
    <path d="M 391.4025 181.793878 
L 391.4025 118.142967 
" clip-path="url(#p798b5ac3ec)" style="fill: none; stroke: #000000; stroke-linecap: square"/>
   </g>
   <g id="line2d_22">
    <path d="M 387.6846 239.486882 
L 395.1204 239.486882 
" clip-path="url(#p798b5ac3ec)" style="fill: none; stroke: #000000; stroke-linecap: square"/>
   </g>
   <g id="line2d_23">
    <path d="M 387.6846 118.142967 
L 395.1204 118.142967 
" clip-path="url(#p798b5ac3ec)" style="fill: none; stroke: #000000; stroke-linecap: square"/>
   </g>
   <g id="line2d_24">
    <path d="M 136.1067 201.830118 
L 150.9783 201.830118 
" clip-path="url(#p798b5ac3ec)" style="fill: none; stroke: #000000; stroke-width: 1.5; stroke-linecap: square"/>
   </g>
   <g id="line2d_25">
    <path d="M 260.0367 204.382769 
L 274.9083 204.382769 
" clip-path="url(#p798b5ac3ec)" style="fill: none; stroke: #000000; stroke-width: 1.5; stroke-linecap: square"/>
   </g>
   <g id="line2d_26">
    <path d="M 383.9667 207.33847 
L 398.8383 207.33847 
" clip-path="url(#p798b5ac3ec)" style="fill: none; stroke: #000000; stroke-width: 1.5; stroke-linecap: square"/>
   </g>
   <g id="patch_6">
    <path d="M 81.5775 249.460305 
L 81.5775 30.045 
" style="fill: none; stroke: #000000; stroke-linejoin: miter; stroke-linecap: square"/>
   </g>
   <g id="patch_7">
    <path d="M 453.3675 249.460305 
L 453.3675 30.045 
" style="fill: none; stroke: #000000; stroke-linejoin: miter; stroke-linecap: square"/>
   </g>
   <g id="patch_8">
    <path d="M 81.5775 249.460305 
L 453.3675 249.460305 
" style="fill: none; stroke: #000000; stroke-linejoin: miter; stroke-linecap: square"/>
   </g>
   <g id="patch_9">
    <path d="M 81.5775 30.045 
L 453.3675 30.045 
" style="fill: none; stroke: #000000; stroke-linejoin: miter; stroke-linecap: square"/>
   </g>
   <g id="text_13">
    <!-- Statistics on the number of one-day visitors to different attractions (Visitors) -->
    <g transform="translate(7.2 18.045) scale(0.16 -0.16)">
     <defs>
      <path id="TimesNewRomanPS-BoldMT-53" d="M 3006 4334 
L 3041 2922 
L 2913 2922 
Q 2822 3453 2467 3776 
Q 2113 4100 1700 4100 
Q 1381 4100 1195 3929 
Q 1009 3759 1009 3538 
Q 1009 3397 1075 3288 
Q 1166 3141 1366 2997 
Q 1513 2894 2044 2631 
Q 2788 2266 3047 1941 
Q 3303 1616 3303 1197 
Q 3303 666 2889 283 
Q 2475 -100 1838 -100 
Q 1638 -100 1459 -59 
Q 1281 -19 1013 94 
Q 863 156 766 156 
Q 684 156 593 93 
Q 503 31 447 -97 
L 331 -97 
L 331 1503 
L 447 1503 
Q 584 828 976 473 
Q 1369 119 1822 119 
Q 2172 119 2380 309 
Q 2588 500 2588 753 
Q 2588 903 2508 1043 
Q 2428 1184 2265 1311 
Q 2103 1438 1691 1641 
Q 1113 1925 859 2125 
Q 606 2325 470 2572 
Q 334 2819 334 3116 
Q 334 3622 706 3978 
Q 1078 4334 1644 4334 
Q 1850 4334 2044 4284 
Q 2191 4247 2402 4145 
Q 2613 4044 2697 4044 
Q 2778 4044 2825 4094 
Q 2872 4144 2913 4334 
L 3006 4334 
z
" transform="scale(0.015625)"/>
      <path id="TimesNewRomanPS-BoldMT-74" d="M 1375 3991 
L 1375 2922 
L 2069 2922 
L 2069 2613 
L 1375 2613 
L 1375 809 
Q 1375 556 1398 482 
Q 1422 409 1481 364 
Q 1541 319 1591 319 
Q 1794 319 1975 628 
L 2069 559 
Q 1816 -41 1247 -41 
Q 969 -41 776 114 
Q 584 269 531 459 
Q 500 566 500 1034 
L 500 2613 
L 119 2613 
L 119 2722 
Q 513 3000 789 3306 
Q 1066 3613 1272 3991 
L 1375 3991 
z
" transform="scale(0.015625)"/>
      <path id="TimesNewRomanPS-BoldMT-61" d="M 1828 431 
Q 1294 -41 869 -41 
Q 619 -41 453 123 
Q 288 288 288 534 
Q 288 869 575 1136 
Q 863 1403 1828 1847 
L 1828 2141 
Q 1828 2472 1792 2558 
Q 1756 2644 1656 2708 
Q 1556 2772 1431 2772 
Q 1228 2772 1097 2681 
Q 1016 2625 1016 2550 
Q 1016 2484 1103 2388 
Q 1222 2253 1222 2128 
Q 1222 1975 1108 1867 
Q 994 1759 809 1759 
Q 613 1759 480 1878 
Q 347 1997 347 2156 
Q 347 2381 525 2586 
Q 703 2791 1022 2900 
Q 1341 3009 1684 3009 
Q 2100 3009 2342 2832 
Q 2584 2656 2656 2450 
Q 2700 2319 2700 1847 
L 2700 713 
Q 2700 513 2715 461 
Q 2731 409 2762 384 
Q 2794 359 2834 359 
Q 2916 359 3000 475 
L 3094 400 
Q 2938 169 2770 64 
Q 2603 -41 2391 -41 
Q 2141 -41 2000 76 
Q 1859 194 1828 431 
z
M 1828 659 
L 1828 1638 
Q 1450 1416 1266 1163 
Q 1144 994 1144 822 
Q 1144 678 1247 569 
Q 1325 484 1466 484 
Q 1622 484 1828 659 
z
" transform="scale(0.015625)"/>
      <path id="TimesNewRomanPS-BoldMT-69" d="M 919 4338 
Q 1122 4338 1262 4195 
Q 1403 4053 1403 3853 
Q 1403 3653 1261 3512 
Q 1119 3372 919 3372 
Q 719 3372 578 3512 
Q 438 3653 438 3853 
Q 438 4053 578 4195 
Q 719 4338 919 4338 
z
M 1356 2922 
L 1356 606 
Q 1356 297 1428 211 
Q 1500 125 1709 113 
L 1709 0 
L 131 0 
L 131 113 
Q 325 119 419 225 
Q 481 297 481 606 
L 481 2313 
Q 481 2622 409 2708 
Q 338 2794 131 2806 
L 131 2922 
L 1356 2922 
z
" transform="scale(0.015625)"/>
      <path id="TimesNewRomanPS-BoldMT-73" d="M 2063 3003 
L 2109 2006 
L 2003 2006 
Q 1813 2450 1608 2612 
Q 1403 2775 1200 2775 
Q 1072 2775 981 2689 
Q 891 2603 891 2491 
Q 891 2406 953 2328 
Q 1053 2200 1512 1889 
Q 1972 1578 2117 1361 
Q 2263 1144 2263 875 
Q 2263 631 2141 397 
Q 2019 163 1797 37 
Q 1575 -88 1306 -88 
Q 1097 -88 747 44 
Q 653 78 619 78 
Q 516 78 447 -78 
L 344 -78 
L 294 972 
L 400 972 
Q 541 559 786 353 
Q 1031 147 1250 147 
Q 1400 147 1495 239 
Q 1591 331 1591 463 
Q 1591 613 1497 722 
Q 1403 831 1078 1053 
Q 600 1384 459 1559 
Q 253 1816 253 2125 
Q 253 2463 486 2736 
Q 719 3009 1159 3009 
Q 1397 3009 1619 2894 
Q 1703 2847 1756 2847 
Q 1813 2847 1847 2870 
Q 1881 2894 1956 3003 
L 2063 3003 
z
" transform="scale(0.015625)"/>
      <path id="TimesNewRomanPS-BoldMT-63" d="M 2600 753 
L 2697 678 
Q 2491 291 2183 101 
Q 1875 -88 1528 -88 
Q 944 -88 594 353 
Q 244 794 244 1413 
Q 244 2009 563 2463 
Q 947 3009 1622 3009 
Q 2075 3009 2342 2781 
Q 2609 2553 2609 2272 
Q 2609 2094 2501 1987 
Q 2394 1881 2219 1881 
Q 2034 1881 1914 2003 
Q 1794 2125 1766 2438 
Q 1747 2634 1675 2713 
Q 1603 2791 1506 2791 
Q 1356 2791 1250 2631 
Q 1088 2391 1088 1894 
Q 1088 1481 1219 1104 
Q 1350 728 1578 544 
Q 1750 409 1984 409 
Q 2138 409 2275 481 
Q 2413 553 2600 753 
z
" transform="scale(0.015625)"/>
      <path id="TimesNewRomanPS-BoldMT-20" transform="scale(0.015625)"/>
      <path id="TimesNewRomanPS-BoldMT-6f" d="M 1594 3009 
Q 1975 3009 2303 2812 
Q 2631 2616 2801 2253 
Q 2972 1891 2972 1459 
Q 2972 838 2656 419 
Q 2275 -88 1603 -88 
Q 944 -88 587 375 
Q 231 838 231 1447 
Q 231 2075 595 2542 
Q 959 3009 1594 3009 
z
M 1606 2788 
Q 1447 2788 1333 2667 
Q 1219 2547 1183 2192 
Q 1147 1838 1147 1206 
Q 1147 872 1191 581 
Q 1225 359 1337 243 
Q 1450 128 1594 128 
Q 1734 128 1828 206 
Q 1950 313 1991 503 
Q 2053 800 2053 1703 
Q 2053 2234 1993 2432 
Q 1934 2631 1819 2722 
Q 1738 2788 1606 2788 
z
" transform="scale(0.015625)"/>
      <path id="TimesNewRomanPS-BoldMT-6e" d="M 1409 2922 
L 1409 2544 
Q 1634 2788 1840 2898 
Q 2047 3009 2284 3009 
Q 2569 3009 2756 2851 
Q 2944 2694 3006 2459 
Q 3056 2281 3056 1775 
L 3056 638 
Q 3056 300 3117 217 
Q 3178 134 3372 113 
L 3372 0 
L 1894 0 
L 1894 113 
Q 2059 134 2131 250 
Q 2181 328 2181 638 
L 2181 1938 
Q 2181 2297 2153 2390 
Q 2125 2484 2058 2536 
Q 1991 2588 1909 2588 
Q 1641 2588 1409 2203 
L 1409 638 
Q 1409 309 1470 221 
Q 1531 134 1697 113 
L 1697 0 
L 219 0 
L 219 113 
Q 403 131 481 231 
Q 534 300 534 638 
L 534 2288 
Q 534 2619 473 2700 
Q 413 2781 219 2806 
L 219 2922 
L 1409 2922 
z
" transform="scale(0.015625)"/>
      <path id="TimesNewRomanPS-BoldMT-68" d="M 1409 4238 
L 1409 2547 
Q 1650 2800 1850 2904 
Q 2050 3009 2266 3009 
Q 2541 3009 2736 2853 
Q 2931 2697 2995 2486 
Q 3059 2275 3059 1775 
L 3059 634 
Q 3059 300 3121 217 
Q 3184 134 3375 113 
L 3375 0 
L 1894 0 
L 1894 113 
Q 2050 134 2128 238 
Q 2184 319 2184 634 
L 2184 1938 
Q 2184 2300 2156 2392 
Q 2128 2484 2061 2536 
Q 1994 2588 1909 2588 
Q 1784 2588 1665 2502 
Q 1547 2416 1409 2200 
L 1409 634 
Q 1409 322 1456 244 
Q 1516 138 1700 113 
L 1700 0 
L 219 0 
L 219 113 
Q 403 131 481 231 
Q 534 300 534 634 
L 534 3603 
Q 534 3934 473 4015 
Q 413 4097 219 4122 
L 219 4238 
L 1409 4238 
z
" transform="scale(0.015625)"/>
      <path id="TimesNewRomanPS-BoldMT-65" d="M 2691 1566 
L 1088 1566 
Q 1116 984 1397 647 
Q 1613 388 1916 388 
Q 2103 388 2256 492 
Q 2409 597 2584 869 
L 2691 800 
Q 2453 316 2165 114 
Q 1878 -88 1500 -88 
Q 850 -88 516 413 
Q 247 816 247 1413 
Q 247 2144 642 2576 
Q 1038 3009 1569 3009 
Q 2013 3009 2339 2645 
Q 2666 2281 2691 1566 
z
M 1922 1775 
Q 1922 2278 1867 2465 
Q 1813 2653 1697 2750 
Q 1631 2806 1522 2806 
Q 1359 2806 1256 2647 
Q 1072 2369 1072 1884 
L 1072 1775 
L 1922 1775 
z
" transform="scale(0.015625)"/>
      <path id="TimesNewRomanPS-BoldMT-75" d="M 3038 2922 
L 3038 634 
Q 3038 300 3100 217 
Q 3163 134 3353 113 
L 3353 0 
L 2163 0 
L 2163 391 
Q 1953 141 1743 26 
Q 1534 -88 1275 -88 
Q 1028 -88 836 64 
Q 644 216 578 419 
Q 513 622 513 1128 
L 513 2288 
Q 513 2619 452 2700 
Q 391 2781 197 2806 
L 197 2922 
L 1388 2922 
L 1388 925 
Q 1388 613 1417 522 
Q 1447 431 1511 384 
Q 1575 338 1659 338 
Q 1772 338 1863 397 
Q 1988 478 2163 725 
L 2163 2288 
Q 2163 2619 2102 2700 
Q 2041 2781 1847 2806 
L 1847 2922 
L 3038 2922 
z
" transform="scale(0.015625)"/>
      <path id="TimesNewRomanPS-BoldMT-6d" d="M 1428 2922 
L 1428 2538 
Q 1669 2800 1873 2904 
Q 2078 3009 2322 3009 
Q 2603 3009 2793 2878 
Q 2984 2747 3088 2478 
Q 3338 2759 3567 2884 
Q 3797 3009 4047 3009 
Q 4350 3009 4529 2870 
Q 4709 2731 4779 2517 
Q 4850 2303 4850 1834 
L 4850 638 
Q 4850 300 4911 219 
Q 4972 138 5166 113 
L 5166 0 
L 3656 0 
L 3656 113 
Q 3834 128 3919 250 
Q 3975 334 3975 638 
L 3975 1894 
Q 3975 2284 3944 2390 
Q 3913 2497 3845 2548 
Q 3778 2600 3688 2600 
Q 3553 2600 3415 2501 
Q 3278 2403 3138 2206 
L 3138 638 
Q 3138 322 3191 241 
Q 3263 125 3466 113 
L 3466 0 
L 1953 0 
L 1953 113 
Q 2075 119 2145 173 
Q 2216 228 2239 304 
Q 2263 381 2263 638 
L 2263 1894 
Q 2263 2291 2231 2391 
Q 2200 2491 2126 2547 
Q 2053 2603 1969 2603 
Q 1844 2603 1741 2538 
Q 1594 2441 1428 2206 
L 1428 638 
Q 1428 328 1489 229 
Q 1550 131 1744 113 
L 1744 0 
L 238 0 
L 238 113 
Q 422 131 500 231 
Q 553 300 553 638 
L 553 2288 
Q 553 2619 492 2700 
Q 431 2781 238 2806 
L 238 2922 
L 1428 2922 
z
" transform="scale(0.015625)"/>
      <path id="TimesNewRomanPS-BoldMT-62" d="M 1347 4238 
L 1347 2628 
Q 1716 3009 2153 3009 
Q 2453 3009 2718 2832 
Q 2984 2656 3134 2331 
Q 3284 2006 3284 1581 
Q 3284 1103 3093 712 
Q 2903 322 2584 117 
Q 2266 -88 1856 -88 
Q 1619 -88 1434 -12 
Q 1250 63 1072 231 
L 588 -84 
L 481 -84 
L 481 3631 
Q 481 3884 459 3944 
Q 428 4031 361 4073 
Q 294 4116 134 4122 
L 134 4238 
L 1347 4238 
z
M 1347 2350 
L 1347 1050 
Q 1347 653 1366 544 
Q 1397 359 1515 245 
Q 1634 131 1819 131 
Q 1978 131 2092 222 
Q 2206 313 2282 581 
Q 2359 850 2359 1550 
Q 2359 2222 2191 2472 
Q 2069 2653 1863 2653 
Q 1594 2653 1347 2350 
z
" transform="scale(0.015625)"/>
      <path id="TimesNewRomanPS-BoldMT-72" d="M 1428 2922 
L 1428 2259 
Q 1719 2713 1937 2861 
Q 2156 3009 2359 3009 
Q 2534 3009 2639 2901 
Q 2744 2794 2744 2597 
Q 2744 2388 2642 2272 
Q 2541 2156 2397 2156 
Q 2231 2156 2109 2262 
Q 1988 2369 1966 2381 
Q 1934 2400 1894 2400 
Q 1803 2400 1722 2331 
Q 1594 2225 1528 2028 
Q 1428 1725 1428 1359 
L 1428 688 
L 1431 513 
Q 1431 334 1453 284 
Q 1491 200 1564 161 
Q 1638 122 1813 113 
L 1813 0 
L 234 0 
L 234 113 
Q 425 128 492 217 
Q 559 306 559 688 
L 559 2303 
Q 559 2553 534 2622 
Q 503 2709 443 2750 
Q 384 2791 234 2806 
L 234 2922 
L 1428 2922 
z
" transform="scale(0.015625)"/>
      <path id="TimesNewRomanPS-BoldMT-66" d="M 1497 2616 
L 1497 588 
Q 1497 294 1559 219 
Q 1659 103 1928 113 
L 1928 0 
L 206 0 
L 206 113 
Q 403 116 486 158 
Q 569 200 600 275 
Q 631 350 631 588 
L 631 2616 
L 206 2616 
L 206 2922 
L 631 2922 
L 631 3138 
L 628 3284 
Q 628 3734 958 4034 
Q 1288 4334 1850 4334 
Q 2234 4334 2420 4190 
Q 2606 4047 2606 3872 
Q 2606 3731 2490 3628 
Q 2375 3525 2184 3525 
Q 2022 3525 1926 3609 
Q 1831 3694 1831 3797 
Q 1831 3825 1850 3913 
Q 1863 3966 1863 4013 
Q 1863 4078 1825 4109 
Q 1775 4156 1703 4156 
Q 1613 4156 1552 4081 
Q 1491 4006 1491 3841 
L 1497 3294 
L 1497 2922 
L 1928 2922 
L 1928 2616 
L 1497 2616 
z
" transform="scale(0.015625)"/>
      <path id="TimesNewRomanPS-BoldMT-2d" d="M 1978 1147 
L 156 1147 
L 156 1794 
L 1978 1794 
L 1978 1147 
z
" transform="scale(0.015625)"/>
      <path id="TimesNewRomanPS-BoldMT-64" d="M 3056 4238 
L 3056 875 
Q 3056 534 3075 472 
Q 3100 369 3170 319 
Q 3241 269 3416 256 
L 3416 153 
L 2181 -88 
L 2181 375 
Q 1959 106 1786 9 
Q 1613 -88 1394 -88 
Q 834 -88 509 413 
Q 247 819 247 1409 
Q 247 1881 409 2254 
Q 572 2628 855 2818 
Q 1138 3009 1463 3009 
Q 1672 3009 1834 2928 
Q 1997 2847 2181 2644 
L 2181 3525 
Q 2181 3859 2153 3928 
Q 2116 4019 2041 4062 
Q 1966 4106 1759 4106 
L 1759 4238 
L 3056 4238 
z
M 2181 2256 
Q 1950 2700 1616 2700 
Q 1500 2700 1425 2638 
Q 1309 2541 1236 2297 
Q 1163 2053 1163 1550 
Q 1163 997 1244 731 
Q 1325 466 1466 347 
Q 1538 288 1663 288 
Q 1938 288 2181 719 
L 2181 2256 
z
" transform="scale(0.015625)"/>
      <path id="TimesNewRomanPS-BoldMT-79" d="M 1556 -119 
L 613 2047 
Q 400 2538 298 2650 
Q 197 2763 53 2806 
L 53 2922 
L 1606 2922 
L 1606 2806 
Q 1453 2800 1390 2747 
Q 1328 2694 1328 2619 
Q 1328 2500 1484 2150 
L 1984 1006 
L 2325 1891 
Q 2509 2363 2509 2547 
Q 2509 2663 2432 2731 
Q 2356 2800 2163 2806 
L 2163 2922 
L 3141 2922 
L 3141 2806 
Q 2997 2791 2906 2695 
Q 2816 2600 2603 2047 
L 1769 -119 
Q 1453 -931 1300 -1119 
Q 1084 -1381 759 -1381 
Q 500 -1381 339 -1232 
Q 178 -1084 178 -875 
Q 178 -694 289 -575 
Q 400 -456 563 -456 
Q 719 -456 814 -556 
Q 909 -656 913 -866 
Q 916 -984 941 -1019 
Q 966 -1053 1013 -1053 
Q 1088 -1053 1172 -963 
Q 1297 -831 1466 -363 
L 1556 -119 
z
" transform="scale(0.015625)"/>
      <path id="TimesNewRomanPS-BoldMT-76" d="M 1534 -88 
L 550 2178 
Q 372 2588 272 2697 
Q 200 2778 59 2806 
L 59 2922 
L 1613 2922 
L 1613 2806 
Q 1466 2806 1413 2753 
Q 1338 2684 1338 2591 
Q 1338 2475 1475 2156 
L 1956 1059 
L 2341 2006 
Q 2506 2413 2506 2581 
Q 2506 2678 2436 2739 
Q 2366 2800 2188 2806 
L 2188 2922 
L 3144 2922 
L 3144 2806 
Q 3006 2788 2918 2703 
Q 2831 2619 2656 2206 
L 1681 -88 
L 1534 -88 
z
" transform="scale(0.015625)"/>
      <path id="TimesNewRomanPS-BoldMT-28" d="M 2056 4334 
L 2056 4191 
Q 1731 3978 1578 3775 
Q 1366 3494 1247 3053 
Q 1097 2506 1097 1525 
Q 1097 600 1233 87 
Q 1369 -425 1603 -741 
Q 1766 -959 2056 -1125 
L 2056 -1281 
Q 1303 -1028 779 -248 
Q 256 531 256 1544 
Q 256 2544 778 3314 
Q 1300 4084 2056 4334 
z
" transform="scale(0.015625)"/>
      <path id="TimesNewRomanPS-BoldMT-56" d="M 4556 4238 
L 4556 4122 
Q 4325 4084 4144 3875 
Q 4013 3719 3753 3141 
L 2294 -97 
L 2191 -97 
L 738 3272 
Q 475 3881 386 3987 
Q 297 4094 50 4122 
L 50 4238 
L 2081 4238 
L 2081 4122 
L 2013 4122 
Q 1738 4122 1638 4053 
Q 1566 4006 1566 3916 
Q 1566 3859 1591 3782 
Q 1616 3706 1759 3372 
L 2663 1263 
L 3500 3141 
Q 3650 3481 3684 3597 
Q 3719 3713 3719 3794 
Q 3719 3888 3669 3959 
Q 3619 4031 3522 4069 
Q 3388 4122 3166 4122 
L 3166 4238 
L 4556 4238 
z
" transform="scale(0.015625)"/>
      <path id="TimesNewRomanPS-BoldMT-29" d="M 78 -1281 
L 78 -1138 
Q 403 -922 556 -719 
Q 766 -438 888 0 
Q 1038 550 1038 1531 
Q 1038 2456 902 2967 
Q 766 3478 531 3794 
Q 369 4013 78 4178 
L 78 4334 
Q 831 4081 1354 3301 
Q 1878 2522 1878 1509 
Q 1878 513 1354 -257 
Q 831 -1028 78 -1281 
z
" transform="scale(0.015625)"/>
     </defs>
     <use xlink:href="#TimesNewRomanPS-BoldMT-53"/>
     <use xlink:href="#TimesNewRomanPS-BoldMT-74" x="55.615234"/>
     <use xlink:href="#TimesNewRomanPS-BoldMT-61" x="88.916016"/>
     <use xlink:href="#TimesNewRomanPS-BoldMT-74" x="138.916016"/>
     <use xlink:href="#TimesNewRomanPS-BoldMT-69" x="172.216797"/>
     <use xlink:href="#TimesNewRomanPS-BoldMT-73" x="200"/>
     <use xlink:href="#TimesNewRomanPS-BoldMT-74" x="238.916016"/>
     <use xlink:href="#TimesNewRomanPS-BoldMT-69" x="272.216797"/>
     <use xlink:href="#TimesNewRomanPS-BoldMT-63" x="300"/>
     <use xlink:href="#TimesNewRomanPS-BoldMT-73" x="344.384766"/>
     <use xlink:href="#TimesNewRomanPS-BoldMT-20" x="383.300781"/>
     <use xlink:href="#TimesNewRomanPS-BoldMT-6f" x="408.300781"/>
     <use xlink:href="#TimesNewRomanPS-BoldMT-6e" x="458.300781"/>
     <use xlink:href="#TimesNewRomanPS-BoldMT-20" x="513.916016"/>
     <use xlink:href="#TimesNewRomanPS-BoldMT-74" x="538.916016"/>
     <use xlink:href="#TimesNewRomanPS-BoldMT-68" x="572.216797"/>
     <use xlink:href="#TimesNewRomanPS-BoldMT-65" x="627.832031"/>
     <use xlink:href="#TimesNewRomanPS-BoldMT-20" x="672.216797"/>
     <use xlink:href="#TimesNewRomanPS-BoldMT-6e" x="697.216797"/>
     <use xlink:href="#TimesNewRomanPS-BoldMT-75" x="752.832031"/>
     <use xlink:href="#TimesNewRomanPS-BoldMT-6d" x="808.447266"/>
     <use xlink:href="#TimesNewRomanPS-BoldMT-62" x="891.748047"/>
     <use xlink:href="#TimesNewRomanPS-BoldMT-65" x="947.363281"/>
     <use xlink:href="#TimesNewRomanPS-BoldMT-72" x="991.748047"/>
     <use xlink:href="#TimesNewRomanPS-BoldMT-20" x="1034.382812"/>
     <use xlink:href="#TimesNewRomanPS-BoldMT-6f" x="1059.382812"/>
     <use xlink:href="#TimesNewRomanPS-BoldMT-66" x="1109.382812"/>
     <use xlink:href="#TimesNewRomanPS-BoldMT-20" x="1142.683594"/>
     <use xlink:href="#TimesNewRomanPS-BoldMT-6f" x="1167.683594"/>
     <use xlink:href="#TimesNewRomanPS-BoldMT-6e" x="1217.683594"/>
     <use xlink:href="#TimesNewRomanPS-BoldMT-65" x="1273.298828"/>
     <use xlink:href="#TimesNewRomanPS-BoldMT-2d" x="1317.683594"/>
     <use xlink:href="#TimesNewRomanPS-BoldMT-64" x="1350.984375"/>
     <use xlink:href="#TimesNewRomanPS-BoldMT-61" x="1406.599609"/>
     <use xlink:href="#TimesNewRomanPS-BoldMT-79" x="1456.599609"/>
     <use xlink:href="#TimesNewRomanPS-BoldMT-20" x="1506.599609"/>
     <use xlink:href="#TimesNewRomanPS-BoldMT-76" x="1531.599609"/>
     <use xlink:href="#TimesNewRomanPS-BoldMT-69" x="1581.599609"/>
     <use xlink:href="#TimesNewRomanPS-BoldMT-73" x="1609.382812"/>
     <use xlink:href="#TimesNewRomanPS-BoldMT-69" x="1648.298828"/>
     <use xlink:href="#TimesNewRomanPS-BoldMT-74" x="1676.082031"/>
     <use xlink:href="#TimesNewRomanPS-BoldMT-6f" x="1709.382812"/>
     <use xlink:href="#TimesNewRomanPS-BoldMT-72" x="1759.382812"/>
     <use xlink:href="#TimesNewRomanPS-BoldMT-73" x="1803.767578"/>
     <use xlink:href="#TimesNewRomanPS-BoldMT-20" x="1842.683594"/>
     <use xlink:href="#TimesNewRomanPS-BoldMT-74" x="1867.683594"/>
     <use xlink:href="#TimesNewRomanPS-BoldMT-6f" x="1900.984375"/>
     <use xlink:href="#TimesNewRomanPS-BoldMT-20" x="1950.984375"/>
     <use xlink:href="#TimesNewRomanPS-BoldMT-64" x="1975.984375"/>
     <use xlink:href="#TimesNewRomanPS-BoldMT-69" x="2031.599609"/>
     <use xlink:href="#TimesNewRomanPS-BoldMT-66" x="2059.382812"/>
     <use xlink:href="#TimesNewRomanPS-BoldMT-66" x="2092.683594"/>
     <use xlink:href="#TimesNewRomanPS-BoldMT-65" x="2125.984375"/>
     <use xlink:href="#TimesNewRomanPS-BoldMT-72" x="2170.369141"/>
     <use xlink:href="#TimesNewRomanPS-BoldMT-65" x="2213.003906"/>
     <use xlink:href="#TimesNewRomanPS-BoldMT-6e" x="2257.388672"/>
     <use xlink:href="#TimesNewRomanPS-BoldMT-74" x="2313.003906"/>
     <use xlink:href="#TimesNewRomanPS-BoldMT-20" x="2346.304688"/>
     <use xlink:href="#TimesNewRomanPS-BoldMT-61" x="2371.304688"/>
     <use xlink:href="#TimesNewRomanPS-BoldMT-74" x="2421.304688"/>
     <use xlink:href="#TimesNewRomanPS-BoldMT-74" x="2454.605469"/>
     <use xlink:href="#TimesNewRomanPS-BoldMT-72" x="2487.90625"/>
     <use xlink:href="#TimesNewRomanPS-BoldMT-61" x="2532.291016"/>
     <use xlink:href="#TimesNewRomanPS-BoldMT-63" x="2582.291016"/>
     <use xlink:href="#TimesNewRomanPS-BoldMT-74" x="2626.675781"/>
     <use xlink:href="#TimesNewRomanPS-BoldMT-69" x="2659.976562"/>
     <use xlink:href="#TimesNewRomanPS-BoldMT-6f" x="2687.759766"/>
     <use xlink:href="#TimesNewRomanPS-BoldMT-6e" x="2737.759766"/>
     <use xlink:href="#TimesNewRomanPS-BoldMT-73" x="2793.375"/>
     <use xlink:href="#TimesNewRomanPS-BoldMT-20" x="2832.291016"/>
     <use xlink:href="#TimesNewRomanPS-BoldMT-28" x="2857.291016"/>
     <use xlink:href="#TimesNewRomanPS-BoldMT-56" x="2890.591797"/>
     <use xlink:href="#TimesNewRomanPS-BoldMT-69" x="2959.058594"/>
     <use xlink:href="#TimesNewRomanPS-BoldMT-73" x="2986.841797"/>
     <use xlink:href="#TimesNewRomanPS-BoldMT-69" x="3025.757812"/>
     <use xlink:href="#TimesNewRomanPS-BoldMT-74" x="3053.541016"/>
     <use xlink:href="#TimesNewRomanPS-BoldMT-6f" x="3086.841797"/>
     <use xlink:href="#TimesNewRomanPS-BoldMT-72" x="3136.841797"/>
     <use xlink:href="#TimesNewRomanPS-BoldMT-73" x="3181.226562"/>
     <use xlink:href="#TimesNewRomanPS-BoldMT-29" x="3220.142578"/>
    </g>
   </g>
  </g>
 </g>
 <defs>
  <clipPath id="p798b5ac3ec">
   <rect x="81.5775" y="30.045" width="371.79" height="219.415305"/>
  </clipPath>
 </defs>
</svg>
