<?xml version="1.0" encoding="utf-8" standalone="no"?>
<!DOCTYPE svg PUBLIC "-//W3C//DTD SVG 1.1//EN"
  "http://www.w3.org/Graphics/SVG/1.1/DTD/svg11.dtd">
<svg xmlns:xlink="http://www.w3.org/1999/xlink" width="534.945pt" height="319.953518pt" viewBox="0 0 534.945 319.953518" xmlns="http://www.w3.org/2000/svg" version="1.1">
 <metadata>
  <rdf:RDF xmlns:dc="http://purl.org/dc/elements/1.1/" xmlns:cc="http://creativecommons.org/ns#" xmlns:rdf="http://www.w3.org/1999/02/22-rdf-syntax-ns#">
   <cc:Work>
    <dc:type rdf:resource="http://purl.org/dc/dcmitype/StillImage"/>
    <dc:date>2025-05-26T16:36:04.885721</dc:date>
    <dc:format>image/svg+xml</dc:format>
    <dc:creator>
     <cc:Agent>
      <dc:title>Matplotlib v3.7.2, https://matplotlib.org/</dc:title>
     </cc:Agent>
    </dc:creator>
   </cc:Work>
  </rdf:RDF>
 </metadata>
 <defs>
  <style type="text/css">*{stroke-linejoin: round; stroke-linecap: butt}</style>
 </defs>
 <g id="figure_1">
  <g id="patch_1">
   <path d="M 0 319.953518 
L 534.945 319.953518 
L 534.945 0 
L 0 0 
z
" style="fill: #ffffff"/>
  </g>
  <g id="axes_1">
   <g id="patch_2">
    <path d="M 81.5775 245.98134 
L 453.3675 245.98134 
L 453.3675 30.045 
L 81.5775 30.045 
z
" style="fill: #ffffff"/>
   </g>
   <g id="PolyCollection_1">
    <defs>
     <path id="m13fde3eb78" d="M 132.644402 -103.157809 
L 123.458098 -103.157809 
L 123.033014 -104.612116 
L 122.600034 -106.066423 
L 122.159623 -107.52073 
L 121.711479 -108.975037 
L 121.254584 -110.429344 
L 120.787344 -111.883651 
L 120.307804 -113.337958 
L 119.813929 -114.792266 
L 119.30391 -116.246573 
L 118.776485 -117.70088 
L 118.231225 -119.155187 
L 117.668758 -120.609494 
L 117.0909 -122.063801 
L 116.500669 -123.518108 
L 115.902174 -124.972415 
L 115.300369 -126.426722 
L 114.700703 -127.881029 
L 114.108678 -129.335336 
L 113.52936 -130.789643 
L 112.966886 -132.24395 
L 112.424021 -133.698257 
L 111.901804 -135.152565 
L 111.399328 -136.606872 
L 110.913674 -138.061179 
L 110.440024 -139.515486 
L 109.971933 -140.969793 
L 109.501753 -142.4241 
L 109.02117 -143.878407 
L 108.521804 -145.332714 
L 107.995823 -146.787021 
L 107.436528 -148.241328 
L 106.838839 -149.695635 
L 106.199658 -151.149942 
L 105.51809 -152.604249 
L 104.795481 -154.058557 
L 104.035304 -155.512864 
L 103.242903 -156.967171 
L 102.425115 -158.421478 
L 101.589825 -159.875785 
L 100.745484 -161.330092 
L 99.900644 -162.784399 
L 99.063548 -164.238706 
L 98.2418 -165.693013 
L 97.442154 -167.14732 
L 96.670408 -168.601627 
L 95.93142 -170.055934 
L 95.229227 -171.510241 
L 94.567227 -172.964548 
L 93.948426 -174.418856 
L 93.375674 -175.873163 
L 92.851907 -177.32747 
L 92.380321 -178.781777 
L 91.964494 -180.236084 
L 91.608428 -181.690391 
L 91.316504 -183.144698 
L 91.093367 -184.599005 
L 90.94375 -186.053312 
L 90.87225 -187.507619 
L 90.883073 -188.961926 
L 90.979779 -190.416233 
L 91.165038 -191.87054 
L 91.440411 -193.324848 
L 91.806184 -194.779155 
L 92.261245 -196.233462 
L 92.803042 -197.687769 
L 93.427587 -199.142076 
L 94.12955 -200.596383 
L 94.902401 -202.05069 
L 95.738617 -203.504997 
L 96.629932 -204.959304 
L 97.567617 -206.413611 
L 98.542771 -207.867918 
L 99.546607 -209.322225 
L 100.570713 -210.776532 
L 101.607278 -212.23084 
L 102.649262 -213.685147 
L 103.690516 -215.139454 
L 104.725843 -216.593761 
L 105.751002 -218.048068 
L 106.762678 -219.502375 
L 107.758401 -220.956682 
L 108.736452 -222.410989 
L 109.695747 -223.865296 
L 110.635713 -225.319603 
L 111.556168 -226.77391 
L 112.457198 -228.228217 
L 113.339044 -229.682524 
L 114.201994 -231.136831 
L 115.04629 -232.591139 
L 115.872037 -234.045446 
L 116.679138 -235.499753 
L 117.467239 -236.95406 
L 118.23569 -238.408367 
L 118.983539 -239.862674 
L 119.709532 -241.316981 
L 120.412153 -242.771288 
L 121.089665 -244.225595 
L 121.740186 -245.679902 
L 122.361764 -247.134209 
L 133.740736 -247.134209 
L 133.740736 -247.134209 
L 134.362314 -245.679902 
L 135.012835 -244.225595 
L 135.690347 -242.771288 
L 136.392968 -241.316981 
L 137.118961 -239.862674 
L 137.86681 -238.408367 
L 138.635261 -236.95406 
L 139.423362 -235.499753 
L 140.230463 -234.045446 
L 141.05621 -232.591139 
L 141.900506 -231.136831 
L 142.763456 -229.682524 
L 143.645302 -228.228217 
L 144.546332 -226.77391 
L 145.466787 -225.319603 
L 146.406753 -223.865296 
L 147.366048 -222.410989 
L 148.344099 -220.956682 
L 149.339822 -219.502375 
L 150.351498 -218.048068 
L 151.376657 -216.593761 
L 152.411984 -215.139454 
L 153.453238 -213.685147 
L 154.495222 -212.23084 
L 155.531787 -210.776532 
L 156.555893 -209.322225 
L 157.559729 -207.867918 
L 158.534883 -206.413611 
L 159.472568 -204.959304 
L 160.363883 -203.504997 
L 161.200099 -202.05069 
L 161.97295 -200.596383 
L 162.674913 -199.142076 
L 163.299458 -197.687769 
L 163.841255 -196.233462 
L 164.296316 -194.779155 
L 164.662089 -193.324848 
L 164.937462 -191.87054 
L 165.122721 -190.416233 
L 165.219427 -188.961926 
L 165.23025 -187.507619 
L 165.15875 -186.053312 
L 165.009133 -184.599005 
L 164.785996 -183.144698 
L 164.494072 -181.690391 
L 164.138006 -180.236084 
L 163.722179 -178.781777 
L 163.250593 -177.32747 
L 162.726826 -175.873163 
L 162.154074 -174.418856 
L 161.535273 -172.964548 
L 160.873273 -171.510241 
L 160.17108 -170.055934 
L 159.432092 -168.601627 
L 158.660346 -167.14732 
L 157.8607 -165.693013 
L 157.038952 -164.238706 
L 156.201856 -162.784399 
L 155.357016 -161.330092 
L 154.512675 -159.875785 
L 153.677385 -158.421478 
L 152.859597 -156.967171 
L 152.067196 -155.512864 
L 151.307019 -154.058557 
L 150.58441 -152.604249 
L 149.902842 -151.149942 
L 149.263661 -149.695635 
L 148.665972 -148.241328 
L 148.106677 -146.787021 
L 147.580696 -145.332714 
L 147.08133 -143.878407 
L 146.600747 -142.4241 
L 146.130567 -140.969793 
L 145.662476 -139.515486 
L 145.188826 -138.061179 
L 144.703172 -136.606872 
L 144.200696 -135.152565 
L 143.678479 -133.698257 
L 143.135614 -132.24395 
L 142.57314 -130.789643 
L 141.993822 -129.335336 
L 141.401797 -127.881029 
L 140.802131 -126.426722 
L 140.200326 -124.972415 
L 139.601831 -123.518108 
L 139.0116 -122.063801 
L 138.433742 -120.609494 
L 137.871275 -119.155187 
L 137.326015 -117.70088 
L 136.79859 -116.246573 
L 136.288571 -114.792266 
L 135.794696 -113.337958 
L 135.315156 -111.883651 
L 134.847916 -110.429344 
L 134.391021 -108.975037 
L 133.942877 -107.52073 
L 133.502466 -106.066423 
L 133.069486 -104.612116 
L 132.644402 -103.157809 
z
" style="stroke: #000000; stroke-opacity: 0.7"/>
    </defs>
    <g clip-path="url(#pfd7778a0d2)">
     <use xlink:href="#m13fde3eb78" x="0" y="319.953518" style="fill: #fc8d62; fill-opacity: 0.7; stroke: #000000; stroke-opacity: 0.7"/>
    </g>
   </g>
   <g id="PolyCollection_2">
    <defs>
     <path id="m2902b485ee" d="M 224.668962 -86.154298 
L 217.328538 -86.154298 
L 216.85728 -87.977089 
L 216.355832 -89.799879 
L 215.826684 -91.622669 
L 215.272762 -93.445459 
L 214.697261 -95.26825 
L 214.103459 -97.09104 
L 213.494524 -98.91383 
L 212.873315 -100.73662 
L 212.242228 -102.55941 
L 211.603087 -104.382201 
L 210.957097 -106.204991 
L 210.304885 -108.027781 
L 209.646606 -109.850571 
L 208.982128 -111.673361 
L 208.311266 -113.496152 
L 207.634046 -115.318942 
L 206.950969 -117.141732 
L 206.263253 -118.964522 
L 205.573012 -120.787312 
L 204.883361 -122.610103 
L 204.198419 -124.432893 
L 203.523216 -126.255683 
L 202.863483 -128.078473 
L 202.225356 -129.901264 
L 201.614988 -131.724054 
L 201.038108 -133.546844 
L 200.499538 -135.369634 
L 200.002718 -137.192424 
L 199.549251 -139.015215 
L 199.138525 -140.838005 
L 198.767423 -142.660795 
L 198.43018 -144.483585 
L 198.118393 -146.306375 
L 197.821215 -148.129166 
L 197.525742 -149.951956 
L 197.217589 -151.774746 
L 196.88164 -153.597536 
L 196.502933 -155.420327 
L 196.067641 -157.243117 
L 195.564075 -159.065907 
L 194.983654 -160.888697 
L 194.32175 -162.711487 
L 193.578353 -164.534278 
L 192.758482 -166.357068 
L 191.872296 -168.179858 
L 190.934889 -170.002648 
L 189.965751 -171.825438 
L 188.987939 -173.648229 
L 188.02699 -175.471019 
L 187.109656 -177.293809 
L 186.262555 -179.116599 
L 185.510821 -180.939389 
L 184.876858 -182.76218 
L 184.379283 -184.58497 
L 184.032133 -186.40776 
L 183.844374 -188.23055 
L 183.81975 -190.053341 
L 183.956947 -191.876131 
L 184.250049 -193.698921 
L 184.689228 -195.521711 
L 185.261589 -197.344501 
L 185.952088 -199.167292 
L 186.744456 -200.990082 
L 187.622031 -202.812872 
L 188.568462 -204.635662 
L 189.568239 -206.458452 
L 190.607037 -208.281243 
L 191.671873 -210.104033 
L 192.751121 -211.926823 
L 193.834413 -213.749613 
L 194.91248 -215.572403 
L 195.976979 -217.395194 
L 197.020363 -219.217984 
L 198.035804 -221.040774 
L 199.017205 -222.863564 
L 199.959296 -224.686355 
L 200.857791 -226.509145 
L 201.709581 -228.331935 
L 202.512938 -230.154725 
L 203.267676 -231.977515 
L 203.97524 -233.800306 
L 204.63871 -235.623096 
L 205.262681 -237.445886 
L 205.85305 -239.268676 
L 206.416689 -241.091466 
L 206.961065 -242.914257 
L 207.493798 -244.737047 
L 208.022229 -246.559837 
L 208.553008 -248.382627 
L 209.091737 -250.205418 
L 209.642697 -252.028208 
L 210.208661 -253.850998 
L 210.790811 -255.673788 
L 211.388744 -257.496578 
L 212.000569 -259.319369 
L 212.623067 -261.142159 
L 213.251921 -262.964949 
L 213.88197 -264.787739 
L 214.507494 -266.610529 
L 227.490006 -266.610529 
L 227.490006 -266.610529 
L 228.11553 -264.787739 
L 228.745579 -262.964949 
L 229.374433 -261.142159 
L 229.996931 -259.319369 
L 230.608756 -257.496578 
L 231.206689 -255.673788 
L 231.788839 -253.850998 
L 232.354803 -252.028208 
L 232.905763 -250.205418 
L 233.444492 -248.382627 
L 233.975271 -246.559837 
L 234.503702 -244.737047 
L 235.036435 -242.914257 
L 235.580811 -241.091466 
L 236.14445 -239.268676 
L 236.734819 -237.445886 
L 237.35879 -235.623096 
L 238.02226 -233.800306 
L 238.729824 -231.977515 
L 239.484562 -230.154725 
L 240.287919 -228.331935 
L 241.139709 -226.509145 
L 242.038204 -224.686355 
L 242.980295 -222.863564 
L 243.961696 -221.040774 
L 244.977137 -219.217984 
L 246.020521 -217.395194 
L 247.08502 -215.572403 
L 248.163087 -213.749613 
L 249.246379 -211.926823 
L 250.325627 -210.104033 
L 251.390463 -208.281243 
L 252.429261 -206.458452 
L 253.429038 -204.635662 
L 254.375469 -202.812872 
L 255.253044 -200.990082 
L 256.045412 -199.167292 
L 256.735911 -197.344501 
L 257.308272 -195.521711 
L 257.747451 -193.698921 
L 258.040553 -191.876131 
L 258.17775 -190.053341 
L 258.153126 -188.23055 
L 257.965367 -186.40776 
L 257.618217 -184.58497 
L 257.120642 -182.76218 
L 256.486679 -180.939389 
L 255.734945 -179.116599 
L 254.887844 -177.293809 
L 253.97051 -175.471019 
L 253.009561 -173.648229 
L 252.031749 -171.825438 
L 251.062611 -170.002648 
L 250.125204 -168.179858 
L 249.239018 -166.357068 
L 248.419147 -164.534278 
L 247.67575 -162.711487 
L 247.013846 -160.888697 
L 246.433425 -159.065907 
L 245.929859 -157.243117 
L 245.494567 -155.420327 
L 245.11586 -153.597536 
L 244.779911 -151.774746 
L 244.471758 -149.951956 
L 244.176285 -148.129166 
L 243.879107 -146.306375 
L 243.56732 -144.483585 
L 243.230077 -142.660795 
L 242.858975 -140.838005 
L 242.448249 -139.015215 
L 241.994782 -137.192424 
L 241.497962 -135.369634 
L 240.959392 -133.546844 
L 240.382512 -131.724054 
L 239.772144 -129.901264 
L 239.134017 -128.078473 
L 238.474284 -126.255683 
L 237.799081 -124.432893 
L 237.114139 -122.610103 
L 236.424488 -120.787312 
L 235.734247 -118.964522 
L 235.046531 -117.141732 
L 234.363454 -115.318942 
L 233.686234 -113.496152 
L 233.015372 -111.673361 
L 232.350894 -109.850571 
L 231.692615 -108.027781 
L 231.040403 -106.204991 
L 230.394413 -104.382201 
L 229.755272 -102.55941 
L 229.124185 -100.73662 
L 228.502976 -98.91383 
L 227.894041 -97.09104 
L 227.300239 -95.26825 
L 226.724738 -93.445459 
L 226.170816 -91.622669 
L 225.641668 -89.799879 
L 225.14022 -87.977089 
L 224.668962 -86.154298 
z
" style="stroke: #000000; stroke-opacity: 0.7"/>
    </defs>
    <g clip-path="url(#pfd7778a0d2)">
     <use xlink:href="#m2902b485ee" x="0" y="319.953518" style="fill: #2ca02c; fill-opacity: 0.7; stroke: #000000; stroke-opacity: 0.7"/>
    </g>
   </g>
   <g id="PolyCollection_3">
    <defs>
     <path id="mb1137462e4" d="M 316.94396 -83.787466 
L 310.94854 -83.787466 
L 310.539587 -85.770353 
L 310.098759 -87.753239 
L 309.626073 -89.736126 
L 309.121779 -91.719012 
L 308.586253 -93.701899 
L 308.019813 -95.684785 
L 307.422457 -97.667672 
L 306.793537 -99.650558 
L 306.131444 -101.633445 
L 305.433348 -103.616331 
L 304.69507 -105.599218 
L 303.911155 -107.582104 
L 303.075176 -109.564991 
L 302.180277 -111.547877 
L 301.219931 -113.530764 
L 300.188819 -115.51365 
L 299.083754 -117.496537 
L 297.904498 -119.479423 
L 296.654395 -121.46231 
L 295.3407 -123.445196 
L 293.974576 -125.428083 
L 292.570734 -127.410969 
L 291.14677 -129.393856 
L 289.722265 -131.376742 
L 288.317739 -133.359629 
L 286.953563 -135.342515 
L 285.648908 -137.325402 
L 284.420804 -139.308288 
L 283.283354 -141.291175 
L 282.247142 -143.274061 
L 281.31884 -145.256948 
L 280.501058 -147.239834 
L 279.792426 -149.222721 
L 279.18794 -151.205607 
L 278.679569 -153.188494 
L 278.257086 -155.17138 
L 277.909075 -157.154267 
L 277.624025 -159.137153 
L 277.391366 -161.12004 
L 277.202328 -163.102926 
L 277.050501 -165.085813 
L 276.931985 -167.068699 
L 276.845138 -169.051586 
L 276.789961 -171.034472 
L 276.76725 -173.017359 
L 276.7777 -175.000245 
L 276.821151 -176.983132 
L 276.896172 -178.966018 
L 277.000074 -180.948905 
L 277.12939 -182.931791 
L 277.280743 -184.914678 
L 277.451927 -186.897564 
L 277.642987 -188.880451 
L 277.857065 -190.863337 
L 278.100804 -192.846224 
L 278.384214 -194.82911 
L 278.719979 -196.811997 
L 279.122296 -198.794883 
L 279.605439 -200.77777 
L 280.182265 -202.760656 
L 280.862899 -204.743543 
L 281.653774 -206.726429 
L 282.557143 -208.709316 
L 283.571073 -210.692202 
L 284.689849 -212.675089 
L 285.904662 -214.657975 
L 287.204409 -216.640862 
L 288.576452 -218.623748 
L 290.007229 -220.606635 
L 291.482647 -222.589521 
L 292.988266 -224.572408 
L 294.50933 -226.555294 
L 296.030737 -228.538181 
L 297.537036 -230.521067 
L 299.012534 -232.503954 
L 300.441564 -234.48684 
L 301.808906 -236.469727 
L 303.100354 -238.452613 
L 304.303331 -240.4355 
L 305.407505 -242.418386 
L 306.405306 -244.401273 
L 307.292292 -246.384159 
L 308.06732 -248.367046 
L 308.732498 -250.349932 
L 309.292954 -252.332819 
L 309.756428 -254.315705 
L 310.132756 -256.298592 
L 310.433279 -258.281478 
L 310.670242 -260.264365 
L 310.856208 -262.247251 
L 311.00352 -264.230138 
L 311.123838 -266.213024 
L 311.227744 -268.195911 
L 311.324435 -270.178797 
L 311.421493 -272.161684 
L 311.524742 -274.14457 
L 311.638187 -276.127457 
L 311.764041 -278.110343 
L 311.902836 -280.09323 
L 315.989664 -280.09323 
L 315.989664 -280.09323 
L 316.128459 -278.110343 
L 316.254313 -276.127457 
L 316.367758 -274.14457 
L 316.471007 -272.161684 
L 316.568065 -270.178797 
L 316.664756 -268.195911 
L 316.768662 -266.213024 
L 316.88898 -264.230138 
L 317.036292 -262.247251 
L 317.222258 -260.264365 
L 317.459221 -258.281478 
L 317.759744 -256.298592 
L 318.136072 -254.315705 
L 318.599546 -252.332819 
L 319.160002 -250.349932 
L 319.82518 -248.367046 
L 320.600208 -246.384159 
L 321.487194 -244.401273 
L 322.484995 -242.418386 
L 323.589169 -240.4355 
L 324.792146 -238.452613 
L 326.083594 -236.469727 
L 327.450936 -234.48684 
L 328.879966 -232.503954 
L 330.355464 -230.521067 
L 331.861763 -228.538181 
L 333.38317 -226.555294 
L 334.904234 -224.572408 
L 336.409853 -222.589521 
L 337.885271 -220.606635 
L 339.316048 -218.623748 
L 340.688091 -216.640862 
L 341.987838 -214.657975 
L 343.202651 -212.675089 
L 344.321427 -210.692202 
L 345.335357 -208.709316 
L 346.238726 -206.726429 
L 347.029601 -204.743543 
L 347.710235 -202.760656 
L 348.287061 -200.77777 
L 348.770204 -198.794883 
L 349.172521 -196.811997 
L 349.508286 -194.82911 
L 349.791696 -192.846224 
L 350.035435 -190.863337 
L 350.249513 -188.880451 
L 350.440573 -186.897564 
L 350.611757 -184.914678 
L 350.76311 -182.931791 
L 350.892426 -180.948905 
L 350.996328 -178.966018 
L 351.071349 -176.983132 
L 351.1148 -175.000245 
L 351.12525 -173.017359 
L 351.102539 -171.034472 
L 351.047362 -169.051586 
L 350.960515 -167.068699 
L 350.841999 -165.085813 
L 350.690172 -163.102926 
L 350.501134 -161.12004 
L 350.268475 -159.137153 
L 349.983425 -157.154267 
L 349.635414 -155.17138 
L 349.212931 -153.188494 
L 348.70456 -151.205607 
L 348.100074 -149.222721 
L 347.391442 -147.239834 
L 346.57366 -145.256948 
L 345.645358 -143.274061 
L 344.609146 -141.291175 
L 343.471696 -139.308288 
L 342.243592 -137.325402 
L 340.938937 -135.342515 
L 339.574761 -133.359629 
L 338.170235 -131.376742 
L 336.74573 -129.393856 
L 335.321766 -127.410969 
L 333.917924 -125.428083 
L 332.5518 -123.445196 
L 331.238105 -121.46231 
L 329.988002 -119.479423 
L 328.808746 -117.496537 
L 327.703681 -115.51365 
L 326.672569 -113.530764 
L 325.712223 -111.547877 
L 324.817324 -109.564991 
L 323.981345 -107.582104 
L 323.19743 -105.599218 
L 322.459152 -103.616331 
L 321.761056 -101.633445 
L 321.098963 -99.650558 
L 320.470043 -97.667672 
L 319.872687 -95.684785 
L 319.306247 -93.701899 
L 318.770721 -91.719012 
L 318.266427 -89.736126 
L 317.793741 -87.753239 
L 317.352913 -85.770353 
L 316.94396 -83.787466 
z
" style="stroke: #000000; stroke-opacity: 0.7"/>
    </defs>
    <g clip-path="url(#pfd7778a0d2)">
     <use xlink:href="#mb1137462e4" x="0" y="319.953518" style="fill: #9edae5; fill-opacity: 0.7; stroke: #000000; stroke-opacity: 0.7"/>
    </g>
   </g>
   <g id="PolyCollection_4">
    <defs>
     <path id="m08b5c6d848" d="M 412.198258 -119.113319 
L 401.589242 -119.113319 
L 400.741901 -120.653027 
L 399.816134 -122.192734 
L 398.814541 -123.732442 
L 397.741784 -125.27215 
L 396.604774 -126.811857 
L 395.412802 -128.351565 
L 394.177549 -129.891272 
L 392.91295 -131.43098 
L 391.634874 -132.970688 
L 390.360592 -134.510395 
L 389.108014 -136.050103 
L 387.894734 -137.589811 
L 386.736896 -139.129518 
L 385.647998 -140.669226 
L 384.637719 -142.208933 
L 383.710921 -143.748641 
L 382.86695 -145.288349 
L 382.099372 -146.828056 
L 381.396235 -148.367764 
L 380.740891 -149.907471 
L 380.113358 -151.447179 
L 379.492127 -152.986887 
L 378.856261 -154.526594 
L 378.187592 -156.066302 
L 377.472788 -157.60601 
L 376.705086 -159.145717 
L 375.885504 -160.685425 
L 375.023392 -162.225132 
L 374.136259 -163.76484 
L 373.248869 -165.304548 
L 372.391678 -166.844255 
L 371.598709 -168.383963 
L 370.905057 -169.923671 
L 370.344198 -171.463378 
L 369.94532 -173.003086 
L 369.730904 -174.542793 
L 369.71475 -176.082501 
L 369.900633 -177.622209 
L 370.281735 -179.161916 
L 370.840931 -180.701624 
L 371.55194 -182.241332 
L 372.381272 -183.781039 
L 373.290826 -185.320747 
L 374.240915 -186.860454 
L 375.19344 -188.400162 
L 376.114928 -189.93987 
L 376.979138 -191.479577 
L 377.768978 -193.019285 
L 378.477564 -194.558992 
L 379.10832 -196.0987 
L 379.674119 -197.638408 
L 380.195577 -199.178115 
L 380.698673 -200.717823 
L 381.211942 -202.257531 
L 381.763536 -203.797238 
L 382.378412 -205.336946 
L 383.075951 -206.876653 
L 383.868184 -208.416361 
L 384.758805 -209.956069 
L 385.743017 -211.495776 
L 386.808202 -213.035484 
L 387.935305 -214.575192 
L 389.100772 -216.114899 
L 390.278805 -217.654607 
L 391.443709 -219.194314 
L 392.572067 -220.734022 
L 393.644548 -222.27373 
L 394.647171 -223.813437 
L 395.571936 -225.353145 
L 396.416803 -226.892853 
L 397.185066 -228.43256 
L 397.88424 -229.972268 
L 398.524635 -231.511975 
L 399.117785 -233.051683 
L 399.674933 -234.591391 
L 400.205734 -236.131098 
L 400.71731 -237.670806 
L 401.213706 -239.210513 
L 401.695808 -240.750221 
L 402.161641 -242.289929 
L 402.607 -243.829636 
L 403.026297 -245.369344 
L 403.413491 -246.909052 
L 403.762993 -248.448759 
L 404.070448 -249.988467 
L 404.3333 -251.528174 
L 404.551119 -253.067882 
L 404.725678 -254.60759 
L 404.860783 -256.147297 
L 404.961931 -257.687005 
L 405.035823 -259.226713 
L 405.089818 -260.76642 
L 405.131378 -262.306128 
L 405.167547 -263.845835 
L 405.204531 -265.385543 
L 405.247371 -266.925251 
L 405.299747 -268.464958 
L 405.363902 -270.004666 
L 405.440675 -271.544374 
L 408.346825 -271.544374 
L 408.346825 -271.544374 
L 408.423598 -270.004666 
L 408.487753 -268.464958 
L 408.540129 -266.925251 
L 408.582969 -265.385543 
L 408.619953 -263.845835 
L 408.656122 -262.306128 
L 408.697682 -260.76642 
L 408.751677 -259.226713 
L 408.825569 -257.687005 
L 408.926717 -256.147297 
L 409.061822 -254.60759 
L 409.236381 -253.067882 
L 409.4542 -251.528174 
L 409.717052 -249.988467 
L 410.024507 -248.448759 
L 410.374009 -246.909052 
L 410.761203 -245.369344 
L 411.1805 -243.829636 
L 411.625859 -242.289929 
L 412.091692 -240.750221 
L 412.573794 -239.210513 
L 413.07019 -237.670806 
L 413.581766 -236.131098 
L 414.112567 -234.591391 
L 414.669715 -233.051683 
L 415.262865 -231.511975 
L 415.90326 -229.972268 
L 416.602434 -228.43256 
L 417.370697 -226.892853 
L 418.215564 -225.353145 
L 419.140329 -223.813437 
L 420.142952 -222.27373 
L 421.215433 -220.734022 
L 422.343791 -219.194314 
L 423.508695 -217.654607 
L 424.686728 -216.114899 
L 425.852195 -214.575192 
L 426.979298 -213.035484 
L 428.044483 -211.495776 
L 429.028695 -209.956069 
L 429.919316 -208.416361 
L 430.711549 -206.876653 
L 431.409088 -205.336946 
L 432.023964 -203.797238 
L 432.575558 -202.257531 
L 433.088827 -200.717823 
L 433.591923 -199.178115 
L 434.113381 -197.638408 
L 434.67918 -196.0987 
L 435.309936 -194.558992 
L 436.018522 -193.019285 
L 436.808362 -191.479577 
L 437.672572 -189.93987 
L 438.59406 -188.400162 
L 439.546585 -186.860454 
L 440.496674 -185.320747 
L 441.406228 -183.781039 
L 442.23556 -182.241332 
L 442.946569 -180.701624 
L 443.505765 -179.161916 
L 443.886867 -177.622209 
L 444.07275 -176.082501 
L 444.056596 -174.542793 
L 443.84218 -173.003086 
L 443.443302 -171.463378 
L 442.882443 -169.923671 
L 442.188791 -168.383963 
L 441.395822 -166.844255 
L 440.538631 -165.304548 
L 439.651241 -163.76484 
L 438.764108 -162.225132 
L 437.901996 -160.685425 
L 437.082414 -159.145717 
L 436.314712 -157.60601 
L 435.599908 -156.066302 
L 434.931239 -154.526594 
L 434.295373 -152.986887 
L 433.674142 -151.447179 
L 433.046609 -149.907471 
L 432.391265 -148.367764 
L 431.688128 -146.828056 
L 430.92055 -145.288349 
L 430.076579 -143.748641 
L 429.149781 -142.208933 
L 428.139502 -140.669226 
L 427.050604 -139.129518 
L 425.892766 -137.589811 
L 424.679486 -136.050103 
L 423.426908 -134.510395 
L 422.152626 -132.970688 
L 420.87455 -131.43098 
L 419.609951 -129.891272 
L 418.374698 -128.351565 
L 417.182726 -126.811857 
L 416.045716 -125.27215 
L 414.972959 -123.732442 
L 413.971366 -122.192734 
L 413.045599 -120.653027 
L 412.198258 -119.113319 
z
" style="stroke: #000000; stroke-opacity: 0.7"/>
    </defs>
    <g clip-path="url(#pfd7778a0d2)">
     <use xlink:href="#m08b5c6d848" x="0" y="319.953518" style="fill: #e377c2; fill-opacity: 0.7; stroke: #000000; stroke-opacity: 0.7"/>
    </g>
   </g>
   <g id="matplotlib.axis_1">
    <g id="xtick_1">
     <g id="line2d_1">
      <defs>
       <path id="m050c3fadac" d="M 0 0 
L 0 3.5 
" style="stroke: #000000; stroke-width: 0.8"/>
      </defs>
      <g>
       <use xlink:href="#m050c3fadac" x="128.05125" y="245.98134" style="stroke: #000000; stroke-width: 0.8"/>
      </g>
     </g>
     <g id="text_1">
      <!-- Emerald Beach -->
      <g transform="translate(74.171039 310.938463) rotate(-45) scale(0.12 -0.12)">
       <defs>
        <path id="TimesNewRomanPSMT-45" d="M 1338 4006 
L 1338 2331 
L 2269 2331 
Q 2631 2331 2753 2441 
Q 2916 2584 2934 2947 
L 3050 2947 
L 3050 1472 
L 2934 1472 
Q 2891 1781 2847 1869 
Q 2791 1978 2662 2040 
Q 2534 2103 2269 2103 
L 1338 2103 
L 1338 706 
Q 1338 425 1363 364 
Q 1388 303 1450 267 
Q 1513 231 1688 231 
L 2406 231 
Q 2766 231 2928 281 
Q 3091 331 3241 478 
Q 3434 672 3638 1063 
L 3763 1063 
L 3397 0 
L 131 0 
L 131 116 
L 281 116 
Q 431 116 566 188 
Q 666 238 702 338 
Q 738 438 738 747 
L 738 3500 
Q 738 3903 656 3997 
Q 544 4122 281 4122 
L 131 4122 
L 131 4238 
L 3397 4238 
L 3444 3309 
L 3322 3309 
Q 3256 3644 3176 3769 
Q 3097 3894 2941 3959 
Q 2816 4006 2500 4006 
L 1338 4006 
z
" transform="scale(0.015625)"/>
        <path id="TimesNewRomanPSMT-6d" d="M 1050 2338 
Q 1363 2650 1419 2697 
Q 1559 2816 1721 2881 
Q 1884 2947 2044 2947 
Q 2313 2947 2506 2790 
Q 2700 2634 2766 2338 
Q 3088 2713 3309 2830 
Q 3531 2947 3766 2947 
Q 3994 2947 4170 2830 
Q 4347 2713 4450 2447 
Q 4519 2266 4519 1878 
L 4519 647 
Q 4519 378 4559 278 
Q 4591 209 4675 161 
Q 4759 113 4950 113 
L 4950 0 
L 3538 0 
L 3538 113 
L 3597 113 
Q 3781 113 3884 184 
Q 3956 234 3988 344 
Q 4000 397 4000 647 
L 4000 1878 
Q 4000 2228 3916 2372 
Q 3794 2572 3525 2572 
Q 3359 2572 3192 2489 
Q 3025 2406 2788 2181 
L 2781 2147 
L 2788 2013 
L 2788 647 
Q 2788 353 2820 281 
Q 2853 209 2943 161 
Q 3034 113 3253 113 
L 3253 0 
L 1806 0 
L 1806 113 
Q 2044 113 2133 169 
Q 2222 225 2256 338 
Q 2272 391 2272 647 
L 2272 1878 
Q 2272 2228 2169 2381 
Q 2031 2581 1784 2581 
Q 1616 2581 1450 2491 
Q 1191 2353 1050 2181 
L 1050 647 
Q 1050 366 1089 281 
Q 1128 197 1204 155 
Q 1281 113 1516 113 
L 1516 0 
L 100 0 
L 100 113 
Q 297 113 375 155 
Q 453 197 493 289 
Q 534 381 534 647 
L 534 1741 
Q 534 2213 506 2350 
Q 484 2453 437 2492 
Q 391 2531 309 2531 
Q 222 2531 100 2484 
L 53 2597 
L 916 2947 
L 1050 2947 
L 1050 2338 
z
" transform="scale(0.015625)"/>
        <path id="TimesNewRomanPSMT-65" d="M 681 1784 
Q 678 1147 991 784 
Q 1303 422 1725 422 
Q 2006 422 2214 576 
Q 2422 731 2563 1106 
L 2659 1044 
Q 2594 616 2278 264 
Q 1963 -88 1488 -88 
Q 972 -88 605 314 
Q 238 716 238 1394 
Q 238 2128 614 2539 
Q 991 2950 1559 2950 
Q 2041 2950 2350 2633 
Q 2659 2316 2659 1784 
L 681 1784 
z
M 681 1966 
L 2006 1966 
Q 1991 2241 1941 2353 
Q 1863 2528 1708 2628 
Q 1553 2728 1384 2728 
Q 1125 2728 920 2526 
Q 716 2325 681 1966 
z
" transform="scale(0.015625)"/>
        <path id="TimesNewRomanPSMT-72" d="M 1038 2947 
L 1038 2303 
Q 1397 2947 1775 2947 
Q 1947 2947 2059 2842 
Q 2172 2738 2172 2600 
Q 2172 2478 2090 2393 
Q 2009 2309 1897 2309 
Q 1788 2309 1652 2417 
Q 1516 2525 1450 2525 
Q 1394 2525 1328 2463 
Q 1188 2334 1038 2041 
L 1038 669 
Q 1038 431 1097 309 
Q 1138 225 1241 169 
Q 1344 113 1538 113 
L 1538 0 
L 72 0 
L 72 113 
Q 291 113 397 181 
Q 475 231 506 341 
Q 522 394 522 644 
L 522 1753 
Q 522 2253 501 2348 
Q 481 2444 426 2487 
Q 372 2531 291 2531 
Q 194 2531 72 2484 
L 41 2597 
L 906 2947 
L 1038 2947 
z
" transform="scale(0.015625)"/>
        <path id="TimesNewRomanPSMT-61" d="M 1822 413 
Q 1381 72 1269 19 
Q 1100 -59 909 -59 
Q 613 -59 420 144 
Q 228 347 228 678 
Q 228 888 322 1041 
Q 450 1253 767 1440 
Q 1084 1628 1822 1897 
L 1822 2009 
Q 1822 2438 1686 2597 
Q 1550 2756 1291 2756 
Q 1094 2756 978 2650 
Q 859 2544 859 2406 
L 866 2225 
Q 866 2081 792 2003 
Q 719 1925 600 1925 
Q 484 1925 411 2006 
Q 338 2088 338 2228 
Q 338 2497 613 2722 
Q 888 2947 1384 2947 
Q 1766 2947 2009 2819 
Q 2194 2722 2281 2516 
Q 2338 2381 2338 1966 
L 2338 994 
Q 2338 584 2353 492 
Q 2369 400 2405 369 
Q 2441 338 2488 338 
Q 2538 338 2575 359 
Q 2641 400 2828 588 
L 2828 413 
Q 2478 -56 2159 -56 
Q 2006 -56 1915 50 
Q 1825 156 1822 413 
z
M 1822 616 
L 1822 1706 
Q 1350 1519 1213 1441 
Q 966 1303 859 1153 
Q 753 1003 753 825 
Q 753 600 887 451 
Q 1022 303 1197 303 
Q 1434 303 1822 616 
z
" transform="scale(0.015625)"/>
        <path id="TimesNewRomanPSMT-6c" d="M 1184 4444 
L 1184 647 
Q 1184 378 1223 290 
Q 1263 203 1344 158 
Q 1425 113 1647 113 
L 1647 0 
L 244 0 
L 244 113 
Q 441 113 512 153 
Q 584 194 625 287 
Q 666 381 666 647 
L 666 3247 
Q 666 3731 644 3842 
Q 622 3953 573 3993 
Q 525 4034 450 4034 
Q 369 4034 244 3984 
L 191 4094 
L 1044 4444 
L 1184 4444 
z
" transform="scale(0.015625)"/>
        <path id="TimesNewRomanPSMT-64" d="M 2222 322 
Q 2013 103 1813 7 
Q 1613 -88 1381 -88 
Q 913 -88 563 304 
Q 213 697 213 1313 
Q 213 1928 600 2439 
Q 988 2950 1597 2950 
Q 1975 2950 2222 2709 
L 2222 3238 
Q 2222 3728 2198 3840 
Q 2175 3953 2125 3993 
Q 2075 4034 2000 4034 
Q 1919 4034 1784 3984 
L 1744 4094 
L 2597 4444 
L 2738 4444 
L 2738 1134 
Q 2738 631 2761 520 
Q 2784 409 2836 365 
Q 2888 322 2956 322 
Q 3041 322 3181 375 
L 3216 266 
L 2366 -88 
L 2222 -88 
L 2222 322 
z
M 2222 541 
L 2222 2016 
Q 2203 2228 2109 2403 
Q 2016 2578 1861 2667 
Q 1706 2756 1559 2756 
Q 1284 2756 1069 2509 
Q 784 2184 784 1559 
Q 784 928 1059 592 
Q 1334 256 1672 256 
Q 1956 256 2222 541 
z
" transform="scale(0.015625)"/>
        <path id="TimesNewRomanPSMT-20" transform="scale(0.015625)"/>
        <path id="TimesNewRomanPSMT-42" d="M 2956 2163 
Q 3397 2069 3616 1863 
Q 3919 1575 3919 1159 
Q 3919 844 3719 555 
Q 3519 266 3170 133 
Q 2822 0 2106 0 
L 106 0 
L 106 116 
L 266 116 
Q 531 116 647 284 
Q 719 394 719 750 
L 719 3488 
Q 719 3881 628 3984 
Q 506 4122 266 4122 
L 106 4122 
L 106 4238 
L 1938 4238 
Q 2450 4238 2759 4163 
Q 3228 4050 3475 3764 
Q 3722 3478 3722 3106 
Q 3722 2788 3528 2536 
Q 3334 2284 2956 2163 
z
M 1319 2331 
Q 1434 2309 1582 2298 
Q 1731 2288 1909 2288 
Q 2366 2288 2595 2386 
Q 2825 2484 2947 2687 
Q 3069 2891 3069 3131 
Q 3069 3503 2766 3765 
Q 2463 4028 1881 4028 
Q 1569 4028 1319 3959 
L 1319 2331 
z
M 1319 306 
Q 1681 222 2034 222 
Q 2600 222 2897 476 
Q 3194 731 3194 1106 
Q 3194 1353 3059 1581 
Q 2925 1809 2622 1940 
Q 2319 2072 1872 2072 
Q 1678 2072 1540 2065 
Q 1403 2059 1319 2044 
L 1319 306 
z
" transform="scale(0.015625)"/>
        <path id="TimesNewRomanPSMT-63" d="M 2631 1088 
Q 2516 522 2178 217 
Q 1841 -88 1431 -88 
Q 944 -88 581 321 
Q 219 731 219 1428 
Q 219 2103 620 2525 
Q 1022 2947 1584 2947 
Q 2006 2947 2278 2723 
Q 2550 2500 2550 2259 
Q 2550 2141 2473 2067 
Q 2397 1994 2259 1994 
Q 2075 1994 1981 2113 
Q 1928 2178 1911 2362 
Q 1894 2547 1784 2644 
Q 1675 2738 1481 2738 
Q 1169 2738 978 2506 
Q 725 2200 725 1697 
Q 725 1184 976 792 
Q 1228 400 1656 400 
Q 1963 400 2206 609 
Q 2378 753 2541 1131 
L 2631 1088 
z
" transform="scale(0.015625)"/>
        <path id="TimesNewRomanPSMT-68" d="M 1041 4444 
L 1041 2350 
Q 1388 2731 1591 2839 
Q 1794 2947 1997 2947 
Q 2241 2947 2416 2812 
Q 2591 2678 2675 2391 
Q 2734 2191 2734 1659 
L 2734 647 
Q 2734 375 2778 275 
Q 2809 200 2884 156 
Q 2959 113 3159 113 
L 3159 0 
L 1753 0 
L 1753 113 
L 1819 113 
Q 2019 113 2097 173 
Q 2175 234 2206 353 
Q 2216 403 2216 647 
L 2216 1659 
Q 2216 2128 2167 2275 
Q 2119 2422 2012 2495 
Q 1906 2569 1756 2569 
Q 1603 2569 1437 2487 
Q 1272 2406 1041 2159 
L 1041 647 
Q 1041 353 1073 281 
Q 1106 209 1195 161 
Q 1284 113 1503 113 
L 1503 0 
L 84 0 
L 84 113 
Q 275 113 384 172 
Q 447 203 484 290 
Q 522 378 522 647 
L 522 3238 
Q 522 3728 498 3840 
Q 475 3953 426 3993 
Q 378 4034 297 4034 
Q 231 4034 84 3984 
L 41 4094 
L 897 4444 
L 1041 4444 
z
" transform="scale(0.015625)"/>
       </defs>
       <use xlink:href="#TimesNewRomanPSMT-45"/>
       <use xlink:href="#TimesNewRomanPSMT-6d" x="61.083984"/>
       <use xlink:href="#TimesNewRomanPSMT-65" x="138.867188"/>
       <use xlink:href="#TimesNewRomanPSMT-72" x="183.251953"/>
       <use xlink:href="#TimesNewRomanPSMT-61" x="216.552734"/>
       <use xlink:href="#TimesNewRomanPSMT-6c" x="260.9375"/>
       <use xlink:href="#TimesNewRomanPSMT-64" x="288.720703"/>
       <use xlink:href="#TimesNewRomanPSMT-20" x="338.720703"/>
       <use xlink:href="#TimesNewRomanPSMT-42" x="363.720703"/>
       <use xlink:href="#TimesNewRomanPSMT-65" x="430.419922"/>
       <use xlink:href="#TimesNewRomanPSMT-61" x="474.804688"/>
       <use xlink:href="#TimesNewRomanPSMT-63" x="519.189453"/>
       <use xlink:href="#TimesNewRomanPSMT-68" x="563.574219"/>
      </g>
     </g>
    </g>
    <g id="xtick_2">
     <g id="line2d_2">
      <g>
       <use xlink:href="#m050c3fadac" x="220.99875" y="245.98134" style="stroke: #000000; stroke-width: 0.8"/>
      </g>
     </g>
     <g id="text_2">
      <!-- Celestial Arch -->
      <g transform="translate(170.874602 307.182401) rotate(-45) scale(0.12 -0.12)">
       <defs>
        <path id="TimesNewRomanPSMT-43" d="M 3853 4334 
L 3950 2894 
L 3853 2894 
Q 3659 3541 3300 3825 
Q 2941 4109 2438 4109 
Q 2016 4109 1675 3895 
Q 1334 3681 1139 3212 
Q 944 2744 944 2047 
Q 944 1472 1128 1050 
Q 1313 628 1683 403 
Q 2053 178 2528 178 
Q 2941 178 3256 354 
Q 3572 531 3950 1056 
L 4047 994 
Q 3728 428 3303 165 
Q 2878 -97 2294 -97 
Q 1241 -97 663 684 
Q 231 1266 231 2053 
Q 231 2688 515 3219 
Q 800 3750 1298 4042 
Q 1797 4334 2388 4334 
Q 2847 4334 3294 4109 
Q 3425 4041 3481 4041 
Q 3566 4041 3628 4100 
Q 3709 4184 3744 4334 
L 3853 4334 
z
" transform="scale(0.015625)"/>
        <path id="TimesNewRomanPSMT-73" d="M 2050 2947 
L 2050 1972 
L 1947 1972 
Q 1828 2431 1642 2597 
Q 1456 2763 1169 2763 
Q 950 2763 815 2647 
Q 681 2531 681 2391 
Q 681 2216 781 2091 
Q 878 1963 1175 1819 
L 1631 1597 
Q 2266 1288 2266 781 
Q 2266 391 1970 151 
Q 1675 -88 1309 -88 
Q 1047 -88 709 6 
Q 606 38 541 38 
Q 469 38 428 -44 
L 325 -44 
L 325 978 
L 428 978 
Q 516 541 762 319 
Q 1009 97 1316 97 
Q 1531 97 1667 223 
Q 1803 350 1803 528 
Q 1803 744 1651 891 
Q 1500 1038 1047 1263 
Q 594 1488 453 1669 
Q 313 1847 313 2119 
Q 313 2472 555 2709 
Q 797 2947 1181 2947 
Q 1350 2947 1591 2875 
Q 1750 2828 1803 2828 
Q 1853 2828 1881 2850 
Q 1909 2872 1947 2947 
L 2050 2947 
z
" transform="scale(0.015625)"/>
        <path id="TimesNewRomanPSMT-74" d="M 1031 3803 
L 1031 2863 
L 1700 2863 
L 1700 2644 
L 1031 2644 
L 1031 788 
Q 1031 509 1111 412 
Q 1191 316 1316 316 
Q 1419 316 1516 380 
Q 1613 444 1666 569 
L 1788 569 
Q 1678 263 1478 108 
Q 1278 -47 1066 -47 
Q 922 -47 784 33 
Q 647 113 581 261 
Q 516 409 516 719 
L 516 2644 
L 63 2644 
L 63 2747 
Q 234 2816 414 2980 
Q 594 3144 734 3369 
Q 806 3488 934 3803 
L 1031 3803 
z
" transform="scale(0.015625)"/>
        <path id="TimesNewRomanPSMT-69" d="M 928 4444 
Q 1059 4444 1151 4351 
Q 1244 4259 1244 4128 
Q 1244 3997 1151 3903 
Q 1059 3809 928 3809 
Q 797 3809 703 3903 
Q 609 3997 609 4128 
Q 609 4259 701 4351 
Q 794 4444 928 4444 
z
M 1188 2947 
L 1188 647 
Q 1188 378 1227 289 
Q 1266 200 1342 156 
Q 1419 113 1622 113 
L 1622 0 
L 231 0 
L 231 113 
Q 441 113 512 153 
Q 584 194 626 287 
Q 669 381 669 647 
L 669 1750 
Q 669 2216 641 2353 
Q 619 2453 572 2492 
Q 525 2531 444 2531 
Q 356 2531 231 2484 
L 188 2597 
L 1050 2947 
L 1188 2947 
z
" transform="scale(0.015625)"/>
        <path id="TimesNewRomanPSMT-41" d="M 2928 1419 
L 1288 1419 
L 1000 750 
Q 894 503 894 381 
Q 894 284 986 211 
Q 1078 138 1384 116 
L 1384 0 
L 50 0 
L 50 116 
Q 316 163 394 238 
Q 553 388 747 847 
L 2238 4334 
L 2347 4334 
L 3822 809 
Q 4000 384 4145 257 
Q 4291 131 4550 116 
L 4550 0 
L 2878 0 
L 2878 116 
Q 3131 128 3220 200 
Q 3309 272 3309 375 
Q 3309 513 3184 809 
L 2928 1419 
z
M 2841 1650 
L 2122 3363 
L 1384 1650 
L 2841 1650 
z
" transform="scale(0.015625)"/>
       </defs>
       <use xlink:href="#TimesNewRomanPSMT-43"/>
       <use xlink:href="#TimesNewRomanPSMT-65" x="66.699219"/>
       <use xlink:href="#TimesNewRomanPSMT-6c" x="111.083984"/>
       <use xlink:href="#TimesNewRomanPSMT-65" x="138.867188"/>
       <use xlink:href="#TimesNewRomanPSMT-73" x="183.251953"/>
       <use xlink:href="#TimesNewRomanPSMT-74" x="222.167969"/>
       <use xlink:href="#TimesNewRomanPSMT-69" x="249.951172"/>
       <use xlink:href="#TimesNewRomanPSMT-61" x="277.734375"/>
       <use xlink:href="#TimesNewRomanPSMT-6c" x="322.119141"/>
       <use xlink:href="#TimesNewRomanPSMT-20" x="349.902344"/>
       <use xlink:href="#TimesNewRomanPSMT-41" x="369.402344"/>
       <use xlink:href="#TimesNewRomanPSMT-72" x="441.619141"/>
       <use xlink:href="#TimesNewRomanPSMT-63" x="474.919922"/>
       <use xlink:href="#TimesNewRomanPSMT-68" x="519.304688"/>
      </g>
     </g>
    </g>
    <g id="xtick_3">
     <g id="line2d_3">
      <g>
       <use xlink:href="#m050c3fadac" x="313.94625" y="245.98134" style="stroke: #000000; stroke-width: 0.8"/>
      </g>
     </g>
     <g id="text_3">
      <!-- Maple Arbor -->
      <g transform="translate(268.534085 302.470418) rotate(-45) scale(0.12 -0.12)">
       <defs>
        <path id="TimesNewRomanPSMT-4d" d="M 2619 0 
L 981 3566 
L 981 734 
Q 981 344 1066 247 
Q 1181 116 1431 116 
L 1581 116 
L 1581 0 
L 106 0 
L 106 116 
L 256 116 
Q 525 116 638 278 
Q 706 378 706 734 
L 706 3503 
Q 706 3784 644 3909 
Q 600 4000 483 4061 
Q 366 4122 106 4122 
L 106 4238 
L 1306 4238 
L 2844 922 
L 4356 4238 
L 5556 4238 
L 5556 4122 
L 5409 4122 
Q 5138 4122 5025 3959 
Q 4956 3859 4956 3503 
L 4956 734 
Q 4956 344 5044 247 
Q 5159 116 5409 116 
L 5556 116 
L 5556 0 
L 3756 0 
L 3756 116 
L 3906 116 
Q 4178 116 4288 278 
Q 4356 378 4356 734 
L 4356 3566 
L 2722 0 
L 2619 0 
z
" transform="scale(0.015625)"/>
        <path id="TimesNewRomanPSMT-70" d="M -6 2578 
L 875 2934 
L 994 2934 
L 994 2266 
Q 1216 2644 1439 2795 
Q 1663 2947 1909 2947 
Q 2341 2947 2628 2609 
Q 2981 2197 2981 1534 
Q 2981 794 2556 309 
Q 2206 -88 1675 -88 
Q 1444 -88 1275 -22 
Q 1150 25 994 166 
L 994 -706 
Q 994 -1000 1030 -1079 
Q 1066 -1159 1155 -1206 
Q 1244 -1253 1478 -1253 
L 1478 -1369 
L -22 -1369 
L -22 -1253 
L 56 -1253 
Q 228 -1256 350 -1188 
Q 409 -1153 442 -1076 
Q 475 -1000 475 -688 
L 475 2019 
Q 475 2297 450 2372 
Q 425 2447 370 2484 
Q 316 2522 222 2522 
Q 147 2522 31 2478 
L -6 2578 
z
M 994 2081 
L 994 1013 
Q 994 666 1022 556 
Q 1066 375 1236 237 
Q 1406 100 1666 100 
Q 1978 100 2172 344 
Q 2425 663 2425 1241 
Q 2425 1897 2138 2250 
Q 1938 2494 1663 2494 
Q 1513 2494 1366 2419 
Q 1253 2363 994 2081 
z
" transform="scale(0.015625)"/>
        <path id="TimesNewRomanPSMT-62" d="M 984 2369 
Q 1400 2947 1881 2947 
Q 2322 2947 2650 2570 
Q 2978 2194 2978 1541 
Q 2978 778 2472 313 
Q 2038 -88 1503 -88 
Q 1253 -88 995 3 
Q 738 94 469 275 
L 469 3241 
Q 469 3728 445 3840 
Q 422 3953 372 3993 
Q 322 4034 247 4034 
Q 159 4034 28 3984 
L -16 4094 
L 844 4444 
L 984 4444 
L 984 2369 
z
M 984 2169 
L 984 456 
Q 1144 300 1314 220 
Q 1484 141 1663 141 
Q 1947 141 2192 453 
Q 2438 766 2438 1363 
Q 2438 1913 2192 2208 
Q 1947 2503 1634 2503 
Q 1469 2503 1303 2419 
Q 1178 2356 984 2169 
z
" transform="scale(0.015625)"/>
        <path id="TimesNewRomanPSMT-6f" d="M 1600 2947 
Q 2250 2947 2644 2453 
Q 2978 2031 2978 1484 
Q 2978 1100 2793 706 
Q 2609 313 2286 112 
Q 1963 -88 1566 -88 
Q 919 -88 538 428 
Q 216 863 216 1403 
Q 216 1797 411 2186 
Q 606 2575 925 2761 
Q 1244 2947 1600 2947 
z
M 1503 2744 
Q 1338 2744 1170 2645 
Q 1003 2547 900 2300 
Q 797 2053 797 1666 
Q 797 1041 1045 587 
Q 1294 134 1700 134 
Q 2003 134 2200 384 
Q 2397 634 2397 1244 
Q 2397 2006 2069 2444 
Q 1847 2744 1503 2744 
z
" transform="scale(0.015625)"/>
       </defs>
       <use xlink:href="#TimesNewRomanPSMT-4d"/>
       <use xlink:href="#TimesNewRomanPSMT-61" x="88.916016"/>
       <use xlink:href="#TimesNewRomanPSMT-70" x="133.300781"/>
       <use xlink:href="#TimesNewRomanPSMT-6c" x="183.300781"/>
       <use xlink:href="#TimesNewRomanPSMT-65" x="211.083984"/>
       <use xlink:href="#TimesNewRomanPSMT-20" x="255.46875"/>
       <use xlink:href="#TimesNewRomanPSMT-41" x="274.96875"/>
       <use xlink:href="#TimesNewRomanPSMT-72" x="347.185547"/>
       <use xlink:href="#TimesNewRomanPSMT-62" x="380.486328"/>
       <use xlink:href="#TimesNewRomanPSMT-6f" x="430.486328"/>
       <use xlink:href="#TimesNewRomanPSMT-72" x="480.486328"/>
      </g>
     </g>
    </g>
    <g id="xtick_4">
     <g id="line2d_4">
      <g>
       <use xlink:href="#m050c3fadac" x="406.89375" y="245.98134" style="stroke: #000000; stroke-width: 0.8"/>
      </g>
     </g>
     <g id="text_4">
      <!-- Dragon Ruins -->
      <g transform="translate(357.688399 306.247694) rotate(-45) scale(0.12 -0.12)">
       <defs>
        <path id="TimesNewRomanPSMT-44" d="M 109 0 
L 109 116 
L 269 116 
Q 538 116 650 288 
Q 719 391 719 750 
L 719 3488 
Q 719 3884 631 3984 
Q 509 4122 269 4122 
L 109 4122 
L 109 4238 
L 1834 4238 
Q 2784 4238 3279 4022 
Q 3775 3806 4076 3303 
Q 4378 2800 4378 2141 
Q 4378 1256 3841 663 
Q 3238 0 2003 0 
L 109 0 
z
M 1319 306 
Q 1716 219 1984 219 
Q 2709 219 3187 728 
Q 3666 1238 3666 2109 
Q 3666 2988 3187 3494 
Q 2709 4000 1959 4000 
Q 1678 4000 1319 3909 
L 1319 306 
z
" transform="scale(0.015625)"/>
        <path id="TimesNewRomanPSMT-67" d="M 966 1044 
Q 703 1172 562 1401 
Q 422 1631 422 1909 
Q 422 2334 742 2640 
Q 1063 2947 1563 2947 
Q 1972 2947 2272 2747 
L 2878 2747 
Q 3013 2747 3034 2739 
Q 3056 2731 3066 2713 
Q 3084 2684 3084 2613 
Q 3084 2531 3069 2500 
Q 3059 2484 3036 2475 
Q 3013 2466 2878 2466 
L 2506 2466 
Q 2681 2241 2681 1891 
Q 2681 1491 2375 1206 
Q 2069 922 1553 922 
Q 1341 922 1119 984 
Q 981 866 932 777 
Q 884 688 884 625 
Q 884 572 936 522 
Q 988 472 1138 450 
Q 1225 438 1575 428 
Q 2219 413 2409 384 
Q 2700 344 2873 169 
Q 3047 -6 3047 -263 
Q 3047 -616 2716 -925 
Q 2228 -1381 1444 -1381 
Q 841 -1381 425 -1109 
Q 191 -953 191 -784 
Q 191 -709 225 -634 
Q 278 -519 444 -313 
Q 466 -284 763 25 
Q 600 122 533 198 
Q 466 275 466 372 
Q 466 481 555 628 
Q 644 775 966 1044 
z
M 1509 2797 
Q 1278 2797 1122 2612 
Q 966 2428 966 2047 
Q 966 1553 1178 1281 
Q 1341 1075 1591 1075 
Q 1828 1075 1981 1253 
Q 2134 1431 2134 1813 
Q 2134 2309 1919 2591 
Q 1759 2797 1509 2797 
z
M 934 0 
Q 788 -159 713 -296 
Q 638 -434 638 -550 
Q 638 -700 819 -813 
Q 1131 -1006 1722 -1006 
Q 2284 -1006 2551 -807 
Q 2819 -609 2819 -384 
Q 2819 -222 2659 -153 
Q 2497 -84 2016 -72 
Q 1313 -53 934 0 
z
" transform="scale(0.015625)"/>
        <path id="TimesNewRomanPSMT-6e" d="M 1034 2341 
Q 1538 2947 1994 2947 
Q 2228 2947 2397 2830 
Q 2566 2713 2666 2444 
Q 2734 2256 2734 1869 
L 2734 647 
Q 2734 375 2778 278 
Q 2813 200 2889 156 
Q 2966 113 3172 113 
L 3172 0 
L 1756 0 
L 1756 113 
L 1816 113 
Q 2016 113 2095 173 
Q 2175 234 2206 353 
Q 2219 400 2219 647 
L 2219 1819 
Q 2219 2209 2117 2386 
Q 2016 2563 1775 2563 
Q 1403 2563 1034 2156 
L 1034 647 
Q 1034 356 1069 288 
Q 1113 197 1189 155 
Q 1266 113 1500 113 
L 1500 0 
L 84 0 
L 84 113 
L 147 113 
Q 366 113 442 223 
Q 519 334 519 647 
L 519 1709 
Q 519 2225 495 2337 
Q 472 2450 423 2490 
Q 375 2531 294 2531 
Q 206 2531 84 2484 
L 38 2597 
L 900 2947 
L 1034 2947 
L 1034 2341 
z
" transform="scale(0.015625)"/>
        <path id="TimesNewRomanPSMT-52" d="M 4325 0 
L 3194 0 
L 1759 1981 
Q 1600 1975 1500 1975 
Q 1459 1975 1412 1976 
Q 1366 1978 1316 1981 
L 1316 750 
Q 1316 350 1403 253 
Q 1522 116 1759 116 
L 1925 116 
L 1925 0 
L 109 0 
L 109 116 
L 269 116 
Q 538 116 653 291 
Q 719 388 719 750 
L 719 3488 
Q 719 3888 631 3984 
Q 509 4122 269 4122 
L 109 4122 
L 109 4238 
L 1653 4238 
Q 2328 4238 2648 4139 
Q 2969 4041 3192 3777 
Q 3416 3513 3416 3147 
Q 3416 2756 3161 2468 
Q 2906 2181 2372 2063 
L 3247 847 
Q 3547 428 3762 290 
Q 3978 153 4325 116 
L 4325 0 
z
M 1316 2178 
Q 1375 2178 1419 2176 
Q 1463 2175 1491 2175 
Q 2097 2175 2405 2437 
Q 2713 2700 2713 3106 
Q 2713 3503 2464 3751 
Q 2216 4000 1806 4000 
Q 1625 4000 1316 3941 
L 1316 2178 
z
" transform="scale(0.015625)"/>
        <path id="TimesNewRomanPSMT-75" d="M 2709 2863 
L 2709 1128 
Q 2709 631 2732 520 
Q 2756 409 2807 365 
Q 2859 322 2928 322 
Q 3025 322 3147 375 
L 3191 266 
L 2334 -88 
L 2194 -88 
L 2194 519 
Q 1825 119 1631 15 
Q 1438 -88 1222 -88 
Q 981 -88 804 51 
Q 628 191 559 409 
Q 491 628 491 1028 
L 491 2306 
Q 491 2509 447 2587 
Q 403 2666 317 2708 
Q 231 2750 6 2747 
L 6 2863 
L 1009 2863 
L 1009 947 
Q 1009 547 1148 422 
Q 1288 297 1484 297 
Q 1619 297 1789 381 
Q 1959 466 2194 703 
L 2194 2325 
Q 2194 2569 2105 2655 
Q 2016 2741 1734 2747 
L 1734 2863 
L 2709 2863 
z
" transform="scale(0.015625)"/>
       </defs>
       <use xlink:href="#TimesNewRomanPSMT-44"/>
       <use xlink:href="#TimesNewRomanPSMT-72" x="72.216797"/>
       <use xlink:href="#TimesNewRomanPSMT-61" x="105.517578"/>
       <use xlink:href="#TimesNewRomanPSMT-67" x="149.902344"/>
       <use xlink:href="#TimesNewRomanPSMT-6f" x="199.902344"/>
       <use xlink:href="#TimesNewRomanPSMT-6e" x="249.902344"/>
       <use xlink:href="#TimesNewRomanPSMT-20" x="299.902344"/>
       <use xlink:href="#TimesNewRomanPSMT-52" x="324.902344"/>
       <use xlink:href="#TimesNewRomanPSMT-75" x="391.601562"/>
       <use xlink:href="#TimesNewRomanPSMT-69" x="441.601562"/>
       <use xlink:href="#TimesNewRomanPSMT-6e" x="469.384766"/>
       <use xlink:href="#TimesNewRomanPSMT-73" x="519.384766"/>
      </g>
     </g>
    </g>
   </g>
   <g id="matplotlib.axis_2">
    <g id="ytick_1">
     <g id="line2d_5">
      <defs>
       <path id="m6006a89948" d="M 0 0 
L -3.5 0 
" style="stroke: #000000; stroke-width: 0.8"/>
      </defs>
      <g>
       <use xlink:href="#m6006a89948" x="81.5775" y="236.236703" style="stroke: #000000; stroke-width: 0.8"/>
      </g>
     </g>
     <g id="text_5">
      <!-- 0 -->
      <g transform="translate(69.5775 239.708578) scale(0.1 -0.1)">
       <defs>
        <path id="TimesNewRomanPSMT-30" d="M 231 2094 
Q 231 2819 450 3342 
Q 669 3866 1031 4122 
Q 1313 4325 1613 4325 
Q 2100 4325 2488 3828 
Q 2972 3213 2972 2159 
Q 2972 1422 2759 906 
Q 2547 391 2217 158 
Q 1888 -75 1581 -75 
Q 975 -75 572 641 
Q 231 1244 231 2094 
z
M 844 2016 
Q 844 1141 1059 588 
Q 1238 122 1591 122 
Q 1759 122 1940 273 
Q 2122 425 2216 781 
Q 2359 1319 2359 2297 
Q 2359 3022 2209 3506 
Q 2097 3866 1919 4016 
Q 1791 4119 1609 4119 
Q 1397 4119 1231 3928 
Q 1006 3669 925 3112 
Q 844 2556 844 2016 
z
" transform="scale(0.015625)"/>
       </defs>
       <use xlink:href="#TimesNewRomanPSMT-30"/>
      </g>
     </g>
    </g>
    <g id="ytick_2">
     <g id="line2d_6">
      <g>
       <use xlink:href="#m6006a89948" x="81.5775" y="206.798493" style="stroke: #000000; stroke-width: 0.8"/>
      </g>
     </g>
     <g id="text_6">
      <!-- 2500 -->
      <g transform="translate(54.5775 210.270368) scale(0.1 -0.1)">
       <defs>
        <path id="TimesNewRomanPSMT-32" d="M 2934 816 
L 2638 0 
L 138 0 
L 138 116 
Q 1241 1122 1691 1759 
Q 2141 2397 2141 2925 
Q 2141 3328 1894 3587 
Q 1647 3847 1303 3847 
Q 991 3847 742 3664 
Q 494 3481 375 3128 
L 259 3128 
Q 338 3706 661 4015 
Q 984 4325 1469 4325 
Q 1984 4325 2329 3994 
Q 2675 3663 2675 3213 
Q 2675 2891 2525 2569 
Q 2294 2063 1775 1497 
Q 997 647 803 472 
L 1909 472 
Q 2247 472 2383 497 
Q 2519 522 2628 598 
Q 2738 675 2819 816 
L 2934 816 
z
" transform="scale(0.015625)"/>
        <path id="TimesNewRomanPSMT-35" d="M 2778 4238 
L 2534 3706 
L 1259 3706 
L 981 3138 
Q 1809 3016 2294 2522 
Q 2709 2097 2709 1522 
Q 2709 1188 2573 903 
Q 2438 619 2231 419 
Q 2025 219 1772 97 
Q 1413 -75 1034 -75 
Q 653 -75 479 54 
Q 306 184 306 341 
Q 306 428 378 495 
Q 450 563 559 563 
Q 641 563 702 538 
Q 763 513 909 409 
Q 1144 247 1384 247 
Q 1750 247 2026 523 
Q 2303 800 2303 1197 
Q 2303 1581 2056 1914 
Q 1809 2247 1375 2428 
Q 1034 2569 447 2591 
L 1259 4238 
L 2778 4238 
z
" transform="scale(0.015625)"/>
       </defs>
       <use xlink:href="#TimesNewRomanPSMT-32"/>
       <use xlink:href="#TimesNewRomanPSMT-35" x="50"/>
       <use xlink:href="#TimesNewRomanPSMT-30" x="100"/>
       <use xlink:href="#TimesNewRomanPSMT-30" x="150"/>
      </g>
     </g>
    </g>
    <g id="ytick_3">
     <g id="line2d_7">
      <g>
       <use xlink:href="#m6006a89948" x="81.5775" y="177.360282" style="stroke: #000000; stroke-width: 0.8"/>
      </g>
     </g>
     <g id="text_7">
      <!-- 5000 -->
      <g transform="translate(54.5775 180.832157) scale(0.1 -0.1)">
       <use xlink:href="#TimesNewRomanPSMT-35"/>
       <use xlink:href="#TimesNewRomanPSMT-30" x="50"/>
       <use xlink:href="#TimesNewRomanPSMT-30" x="100"/>
       <use xlink:href="#TimesNewRomanPSMT-30" x="150"/>
      </g>
     </g>
    </g>
    <g id="ytick_4">
     <g id="line2d_8">
      <g>
       <use xlink:href="#m6006a89948" x="81.5775" y="147.922072" style="stroke: #000000; stroke-width: 0.8"/>
      </g>
     </g>
     <g id="text_8">
      <!-- 7500 -->
      <g transform="translate(54.5775 151.393947) scale(0.1 -0.1)">
       <defs>
        <path id="TimesNewRomanPSMT-37" d="M 644 4238 
L 2916 4238 
L 2916 4119 
L 1503 -88 
L 1153 -88 
L 2419 3728 
L 1253 3728 
Q 900 3728 750 3644 
Q 488 3500 328 3200 
L 238 3234 
L 644 4238 
z
" transform="scale(0.015625)"/>
       </defs>
       <use xlink:href="#TimesNewRomanPSMT-37"/>
       <use xlink:href="#TimesNewRomanPSMT-35" x="50"/>
       <use xlink:href="#TimesNewRomanPSMT-30" x="100"/>
       <use xlink:href="#TimesNewRomanPSMT-30" x="150"/>
      </g>
     </g>
    </g>
    <g id="ytick_5">
     <g id="line2d_9">
      <g>
       <use xlink:href="#m6006a89948" x="81.5775" y="118.483861" style="stroke: #000000; stroke-width: 0.8"/>
      </g>
     </g>
     <g id="text_9">
      <!-- 10000 -->
      <g transform="translate(49.5775 121.955736) scale(0.1 -0.1)">
       <defs>
        <path id="TimesNewRomanPSMT-31" d="M 750 3822 
L 1781 4325 
L 1884 4325 
L 1884 747 
Q 1884 391 1914 303 
Q 1944 216 2037 169 
Q 2131 122 2419 116 
L 2419 0 
L 825 0 
L 825 116 
Q 1125 122 1212 167 
Q 1300 213 1334 289 
Q 1369 366 1369 747 
L 1369 3034 
Q 1369 3497 1338 3628 
Q 1316 3728 1258 3775 
Q 1200 3822 1119 3822 
Q 1003 3822 797 3725 
L 750 3822 
z
" transform="scale(0.015625)"/>
       </defs>
       <use xlink:href="#TimesNewRomanPSMT-31"/>
       <use xlink:href="#TimesNewRomanPSMT-30" x="50"/>
       <use xlink:href="#TimesNewRomanPSMT-30" x="100"/>
       <use xlink:href="#TimesNewRomanPSMT-30" x="150"/>
       <use xlink:href="#TimesNewRomanPSMT-30" x="200"/>
      </g>
     </g>
    </g>
    <g id="ytick_6">
     <g id="line2d_10">
      <g>
       <use xlink:href="#m6006a89948" x="81.5775" y="89.04565" style="stroke: #000000; stroke-width: 0.8"/>
      </g>
     </g>
     <g id="text_10">
      <!-- 12500 -->
      <g transform="translate(49.5775 92.517525) scale(0.1 -0.1)">
       <use xlink:href="#TimesNewRomanPSMT-31"/>
       <use xlink:href="#TimesNewRomanPSMT-32" x="50"/>
       <use xlink:href="#TimesNewRomanPSMT-35" x="100"/>
       <use xlink:href="#TimesNewRomanPSMT-30" x="150"/>
       <use xlink:href="#TimesNewRomanPSMT-30" x="200"/>
      </g>
     </g>
    </g>
    <g id="ytick_7">
     <g id="line2d_11">
      <g>
       <use xlink:href="#m6006a89948" x="81.5775" y="59.60744" style="stroke: #000000; stroke-width: 0.8"/>
      </g>
     </g>
     <g id="text_11">
      <!-- 15000 -->
      <g transform="translate(49.5775 63.079315) scale(0.1 -0.1)">
       <use xlink:href="#TimesNewRomanPSMT-31"/>
       <use xlink:href="#TimesNewRomanPSMT-35" x="50"/>
       <use xlink:href="#TimesNewRomanPSMT-30" x="100"/>
       <use xlink:href="#TimesNewRomanPSMT-30" x="150"/>
       <use xlink:href="#TimesNewRomanPSMT-30" x="200"/>
      </g>
     </g>
    </g>
    <g id="ytick_8">
     <g id="line2d_12">
      <g>
       <use xlink:href="#m6006a89948" x="81.5775" y="30.169229" style="stroke: #000000; stroke-width: 0.8"/>
      </g>
     </g>
     <g id="text_12">
      <!-- 17500 -->
      <g transform="translate(49.5775 33.641104) scale(0.1 -0.1)">
       <use xlink:href="#TimesNewRomanPSMT-31"/>
       <use xlink:href="#TimesNewRomanPSMT-37" x="50"/>
       <use xlink:href="#TimesNewRomanPSMT-35" x="100"/>
       <use xlink:href="#TimesNewRomanPSMT-30" x="150"/>
       <use xlink:href="#TimesNewRomanPSMT-30" x="200"/>
      </g>
     </g>
    </g>
    <g id="text_13">
     <!-- Visitors -->
     <g transform="translate(42.582812 159.762389) rotate(-90) scale(0.14 -0.14)">
      <defs>
       <path id="TimesNewRomanPSMT-56" d="M 4544 4238 
L 4544 4122 
Q 4319 4081 4203 3978 
Q 4038 3825 3909 3509 
L 2431 -97 
L 2316 -97 
L 728 3556 
Q 606 3838 556 3900 
Q 478 3997 364 4051 
Q 250 4106 56 4122 
L 56 4238 
L 1788 4238 
L 1788 4122 
Q 1494 4094 1406 4022 
Q 1319 3950 1319 3838 
Q 1319 3681 1463 3350 
L 2541 866 
L 3541 3319 
Q 3688 3681 3688 3822 
Q 3688 3913 3597 3995 
Q 3506 4078 3291 4113 
Q 3275 4116 3238 4122 
L 3238 4238 
L 4544 4238 
z
" transform="scale(0.015625)"/>
      </defs>
      <use xlink:href="#TimesNewRomanPSMT-56"/>
      <use xlink:href="#TimesNewRomanPSMT-69" x="66.216797"/>
      <use xlink:href="#TimesNewRomanPSMT-73" x="94"/>
      <use xlink:href="#TimesNewRomanPSMT-69" x="132.916016"/>
      <use xlink:href="#TimesNewRomanPSMT-74" x="160.699219"/>
      <use xlink:href="#TimesNewRomanPSMT-6f" x="188.482422"/>
      <use xlink:href="#TimesNewRomanPSMT-72" x="238.482422"/>
      <use xlink:href="#TimesNewRomanPSMT-73" x="271.783203"/>
     </g>
    </g>
   </g>
   <g id="patch_3">
    <path d="M 122.4744 161.022075 
L 133.6281 161.022075 
L 133.6281 117.565389 
L 122.4744 117.565389 
L 122.4744 161.022075 
L 122.4744 161.022075 
z
" clip-path="url(#pfd7778a0d2)" style="fill: none; stroke: #000000; stroke-linejoin: miter"/>
   </g>
   <g id="line2d_13">
    <path d="M 128.05125 161.022075 
L 128.05125 216.795709 
" clip-path="url(#pfd7778a0d2)" style="fill: none; stroke: #000000; stroke-linecap: square"/>
   </g>
   <g id="line2d_14">
    <path d="M 128.05125 117.565389 
L 128.05125 72.819309 
" clip-path="url(#pfd7778a0d2)" style="fill: none; stroke: #000000; stroke-linecap: square"/>
   </g>
   <g id="line2d_15">
    <path d="M 125.262825 216.795709 
L 130.839675 216.795709 
" clip-path="url(#pfd7778a0d2)" style="fill: none; stroke: #000000; stroke-linecap: square"/>
   </g>
   <g id="line2d_16">
    <path d="M 125.262825 72.819309 
L 130.839675 72.819309 
" clip-path="url(#pfd7778a0d2)" style="fill: none; stroke: #000000; stroke-linecap: square"/>
   </g>
   <g id="patch_4">
    <path d="M 215.4219 169.052819 
L 226.5756 169.052819 
L 226.5756 111.883814 
L 215.4219 111.883814 
L 215.4219 169.052819 
L 215.4219 169.052819 
z
" clip-path="url(#pfd7778a0d2)" style="fill: none; stroke: #000000; stroke-linejoin: miter"/>
   </g>
   <g id="line2d_17">
    <path d="M 220.99875 169.052819 
L 220.99875 233.79922 
" clip-path="url(#pfd7778a0d2)" style="fill: none; stroke: #000000; stroke-linecap: square"/>
   </g>
   <g id="line2d_18">
    <path d="M 220.99875 111.883814 
L 220.99875 53.342989 
" clip-path="url(#pfd7778a0d2)" style="fill: none; stroke: #000000; stroke-linecap: square"/>
   </g>
   <g id="line2d_19">
    <path d="M 218.210325 233.79922 
L 223.787175 233.79922 
" clip-path="url(#pfd7778a0d2)" style="fill: none; stroke: #000000; stroke-linecap: square"/>
   </g>
   <g id="line2d_20">
    <path d="M 218.210325 53.342989 
L 223.787175 53.342989 
" clip-path="url(#pfd7778a0d2)" style="fill: none; stroke: #000000; stroke-linecap: square"/>
   </g>
   <g id="patch_5">
    <path d="M 308.3694 171.325449 
L 319.5231 171.325449 
L 319.5231 116.835321 
L 308.3694 116.835321 
L 308.3694 171.325449 
L 308.3694 171.325449 
z
" clip-path="url(#pfd7778a0d2)" style="fill: none; stroke: #000000; stroke-linejoin: miter"/>
   </g>
   <g id="line2d_21">
    <path d="M 313.94625 171.325449 
L 313.94625 236.166052 
" clip-path="url(#pfd7778a0d2)" style="fill: none; stroke: #000000; stroke-linecap: square"/>
   </g>
   <g id="line2d_22">
    <path d="M 313.94625 116.835321 
L 313.94625 39.860288 
" clip-path="url(#pfd7778a0d2)" style="fill: none; stroke: #000000; stroke-linecap: square"/>
   </g>
   <g id="line2d_23">
    <path d="M 311.157825 236.166052 
L 316.734675 236.166052 
" clip-path="url(#pfd7778a0d2)" style="fill: none; stroke: #000000; stroke-linecap: square"/>
   </g>
   <g id="line2d_24">
    <path d="M 311.157825 39.860288 
L 316.734675 39.860288 
" clip-path="url(#pfd7778a0d2)" style="fill: none; stroke: #000000; stroke-linecap: square"/>
   </g>
   <g id="patch_6">
    <path d="M 401.3169 162.535199 
L 412.4706 162.535199 
L 412.4706 119.06085 
L 401.3169 119.06085 
L 401.3169 162.535199 
L 401.3169 162.535199 
z
" clip-path="url(#pfd7778a0d2)" style="fill: none; stroke: #000000; stroke-linejoin: miter"/>
   </g>
   <g id="line2d_25">
    <path d="M 406.89375 162.535199 
L 406.89375 200.840199 
" clip-path="url(#pfd7778a0d2)" style="fill: none; stroke: #000000; stroke-linecap: square"/>
   </g>
   <g id="line2d_26">
    <path d="M 406.89375 119.06085 
L 406.89375 58.429911 
" clip-path="url(#pfd7778a0d2)" style="fill: none; stroke: #000000; stroke-linecap: square"/>
   </g>
   <g id="line2d_27">
    <path d="M 404.105325 200.840199 
L 409.682175 200.840199 
" clip-path="url(#pfd7778a0d2)" style="fill: none; stroke: #000000; stroke-linecap: square"/>
   </g>
   <g id="line2d_28">
    <path d="M 404.105325 58.429911 
L 409.682175 58.429911 
" clip-path="url(#pfd7778a0d2)" style="fill: none; stroke: #000000; stroke-linecap: square"/>
   </g>
   <g id="line2d_29">
    <path d="M 122.4744 136.547147 
L 133.6281 136.547147 
" clip-path="url(#pfd7778a0d2)" style="fill: none; stroke: #000000; stroke-width: 1.5; stroke-linecap: square"/>
   </g>
   <g id="line2d_30">
    <path d="M 215.4219 135.063461 
L 226.5756 135.063461 
" clip-path="url(#pfd7778a0d2)" style="fill: none; stroke: #000000; stroke-width: 1.5; stroke-linecap: square"/>
   </g>
   <g id="line2d_31">
    <path d="M 308.3694 143.824273 
L 319.5231 143.824273 
" clip-path="url(#pfd7778a0d2)" style="fill: none; stroke: #000000; stroke-width: 1.5; stroke-linecap: square"/>
   </g>
   <g id="line2d_32">
    <path d="M 401.3169 142.163958 
L 412.4706 142.163958 
" clip-path="url(#pfd7778a0d2)" style="fill: none; stroke: #000000; stroke-width: 1.5; stroke-linecap: square"/>
   </g>
   <g id="patch_7">
    <path d="M 81.5775 245.98134 
L 81.5775 30.045 
" style="fill: none; stroke: #000000; stroke-linejoin: miter; stroke-linecap: square"/>
   </g>
   <g id="patch_8">
    <path d="M 453.3675 245.98134 
L 453.3675 30.045 
" style="fill: none; stroke: #000000; stroke-linejoin: miter; stroke-linecap: square"/>
   </g>
   <g id="patch_9">
    <path d="M 81.5775 245.98134 
L 453.3675 245.98134 
" style="fill: none; stroke: #000000; stroke-linejoin: miter; stroke-linecap: square"/>
   </g>
   <g id="patch_10">
    <path d="M 81.5775 30.045 
L 453.3675 30.045 
" style="fill: none; stroke: #000000; stroke-linejoin: miter; stroke-linecap: square"/>
   </g>
   <g id="text_14">
    <!-- Statistics on the number of one-day visitors to different attractions (Visitors) -->
    <g transform="translate(7.2 18.045) scale(0.16 -0.16)">
     <defs>
      <path id="TimesNewRomanPS-BoldMT-53" d="M 3006 4334 
L 3041 2922 
L 2913 2922 
Q 2822 3453 2467 3776 
Q 2113 4100 1700 4100 
Q 1381 4100 1195 3929 
Q 1009 3759 1009 3538 
Q 1009 3397 1075 3288 
Q 1166 3141 1366 2997 
Q 1513 2894 2044 2631 
Q 2788 2266 3047 1941 
Q 3303 1616 3303 1197 
Q 3303 666 2889 283 
Q 2475 -100 1838 -100 
Q 1638 -100 1459 -59 
Q 1281 -19 1013 94 
Q 863 156 766 156 
Q 684 156 593 93 
Q 503 31 447 -97 
L 331 -97 
L 331 1503 
L 447 1503 
Q 584 828 976 473 
Q 1369 119 1822 119 
Q 2172 119 2380 309 
Q 2588 500 2588 753 
Q 2588 903 2508 1043 
Q 2428 1184 2265 1311 
Q 2103 1438 1691 1641 
Q 1113 1925 859 2125 
Q 606 2325 470 2572 
Q 334 2819 334 3116 
Q 334 3622 706 3978 
Q 1078 4334 1644 4334 
Q 1850 4334 2044 4284 
Q 2191 4247 2402 4145 
Q 2613 4044 2697 4044 
Q 2778 4044 2825 4094 
Q 2872 4144 2913 4334 
L 3006 4334 
z
" transform="scale(0.015625)"/>
      <path id="TimesNewRomanPS-BoldMT-74" d="M 1375 3991 
L 1375 2922 
L 2069 2922 
L 2069 2613 
L 1375 2613 
L 1375 809 
Q 1375 556 1398 482 
Q 1422 409 1481 364 
Q 1541 319 1591 319 
Q 1794 319 1975 628 
L 2069 559 
Q 1816 -41 1247 -41 
Q 969 -41 776 114 
Q 584 269 531 459 
Q 500 566 500 1034 
L 500 2613 
L 119 2613 
L 119 2722 
Q 513 3000 789 3306 
Q 1066 3613 1272 3991 
L 1375 3991 
z
" transform="scale(0.015625)"/>
      <path id="TimesNewRomanPS-BoldMT-61" d="M 1828 431 
Q 1294 -41 869 -41 
Q 619 -41 453 123 
Q 288 288 288 534 
Q 288 869 575 1136 
Q 863 1403 1828 1847 
L 1828 2141 
Q 1828 2472 1792 2558 
Q 1756 2644 1656 2708 
Q 1556 2772 1431 2772 
Q 1228 2772 1097 2681 
Q 1016 2625 1016 2550 
Q 1016 2484 1103 2388 
Q 1222 2253 1222 2128 
Q 1222 1975 1108 1867 
Q 994 1759 809 1759 
Q 613 1759 480 1878 
Q 347 1997 347 2156 
Q 347 2381 525 2586 
Q 703 2791 1022 2900 
Q 1341 3009 1684 3009 
Q 2100 3009 2342 2832 
Q 2584 2656 2656 2450 
Q 2700 2319 2700 1847 
L 2700 713 
Q 2700 513 2715 461 
Q 2731 409 2762 384 
Q 2794 359 2834 359 
Q 2916 359 3000 475 
L 3094 400 
Q 2938 169 2770 64 
Q 2603 -41 2391 -41 
Q 2141 -41 2000 76 
Q 1859 194 1828 431 
z
M 1828 659 
L 1828 1638 
Q 1450 1416 1266 1163 
Q 1144 994 1144 822 
Q 1144 678 1247 569 
Q 1325 484 1466 484 
Q 1622 484 1828 659 
z
" transform="scale(0.015625)"/>
      <path id="TimesNewRomanPS-BoldMT-69" d="M 919 4338 
Q 1122 4338 1262 4195 
Q 1403 4053 1403 3853 
Q 1403 3653 1261 3512 
Q 1119 3372 919 3372 
Q 719 3372 578 3512 
Q 438 3653 438 3853 
Q 438 4053 578 4195 
Q 719 4338 919 4338 
z
M 1356 2922 
L 1356 606 
Q 1356 297 1428 211 
Q 1500 125 1709 113 
L 1709 0 
L 131 0 
L 131 113 
Q 325 119 419 225 
Q 481 297 481 606 
L 481 2313 
Q 481 2622 409 2708 
Q 338 2794 131 2806 
L 131 2922 
L 1356 2922 
z
" transform="scale(0.015625)"/>
      <path id="TimesNewRomanPS-BoldMT-73" d="M 2063 3003 
L 2109 2006 
L 2003 2006 
Q 1813 2450 1608 2612 
Q 1403 2775 1200 2775 
Q 1072 2775 981 2689 
Q 891 2603 891 2491 
Q 891 2406 953 2328 
Q 1053 2200 1512 1889 
Q 1972 1578 2117 1361 
Q 2263 1144 2263 875 
Q 2263 631 2141 397 
Q 2019 163 1797 37 
Q 1575 -88 1306 -88 
Q 1097 -88 747 44 
Q 653 78 619 78 
Q 516 78 447 -78 
L 344 -78 
L 294 972 
L 400 972 
Q 541 559 786 353 
Q 1031 147 1250 147 
Q 1400 147 1495 239 
Q 1591 331 1591 463 
Q 1591 613 1497 722 
Q 1403 831 1078 1053 
Q 600 1384 459 1559 
Q 253 1816 253 2125 
Q 253 2463 486 2736 
Q 719 3009 1159 3009 
Q 1397 3009 1619 2894 
Q 1703 2847 1756 2847 
Q 1813 2847 1847 2870 
Q 1881 2894 1956 3003 
L 2063 3003 
z
" transform="scale(0.015625)"/>
      <path id="TimesNewRomanPS-BoldMT-63" d="M 2600 753 
L 2697 678 
Q 2491 291 2183 101 
Q 1875 -88 1528 -88 
Q 944 -88 594 353 
Q 244 794 244 1413 
Q 244 2009 563 2463 
Q 947 3009 1622 3009 
Q 2075 3009 2342 2781 
Q 2609 2553 2609 2272 
Q 2609 2094 2501 1987 
Q 2394 1881 2219 1881 
Q 2034 1881 1914 2003 
Q 1794 2125 1766 2438 
Q 1747 2634 1675 2713 
Q 1603 2791 1506 2791 
Q 1356 2791 1250 2631 
Q 1088 2391 1088 1894 
Q 1088 1481 1219 1104 
Q 1350 728 1578 544 
Q 1750 409 1984 409 
Q 2138 409 2275 481 
Q 2413 553 2600 753 
z
" transform="scale(0.015625)"/>
      <path id="TimesNewRomanPS-BoldMT-20" transform="scale(0.015625)"/>
      <path id="TimesNewRomanPS-BoldMT-6f" d="M 1594 3009 
Q 1975 3009 2303 2812 
Q 2631 2616 2801 2253 
Q 2972 1891 2972 1459 
Q 2972 838 2656 419 
Q 2275 -88 1603 -88 
Q 944 -88 587 375 
Q 231 838 231 1447 
Q 231 2075 595 2542 
Q 959 3009 1594 3009 
z
M 1606 2788 
Q 1447 2788 1333 2667 
Q 1219 2547 1183 2192 
Q 1147 1838 1147 1206 
Q 1147 872 1191 581 
Q 1225 359 1337 243 
Q 1450 128 1594 128 
Q 1734 128 1828 206 
Q 1950 313 1991 503 
Q 2053 800 2053 1703 
Q 2053 2234 1993 2432 
Q 1934 2631 1819 2722 
Q 1738 2788 1606 2788 
z
" transform="scale(0.015625)"/>
      <path id="TimesNewRomanPS-BoldMT-6e" d="M 1409 2922 
L 1409 2544 
Q 1634 2788 1840 2898 
Q 2047 3009 2284 3009 
Q 2569 3009 2756 2851 
Q 2944 2694 3006 2459 
Q 3056 2281 3056 1775 
L 3056 638 
Q 3056 300 3117 217 
Q 3178 134 3372 113 
L 3372 0 
L 1894 0 
L 1894 113 
Q 2059 134 2131 250 
Q 2181 328 2181 638 
L 2181 1938 
Q 2181 2297 2153 2390 
Q 2125 2484 2058 2536 
Q 1991 2588 1909 2588 
Q 1641 2588 1409 2203 
L 1409 638 
Q 1409 309 1470 221 
Q 1531 134 1697 113 
L 1697 0 
L 219 0 
L 219 113 
Q 403 131 481 231 
Q 534 300 534 638 
L 534 2288 
Q 534 2619 473 2700 
Q 413 2781 219 2806 
L 219 2922 
L 1409 2922 
z
" transform="scale(0.015625)"/>
      <path id="TimesNewRomanPS-BoldMT-68" d="M 1409 4238 
L 1409 2547 
Q 1650 2800 1850 2904 
Q 2050 3009 2266 3009 
Q 2541 3009 2736 2853 
Q 2931 2697 2995 2486 
Q 3059 2275 3059 1775 
L 3059 634 
Q 3059 300 3121 217 
Q 3184 134 3375 113 
L 3375 0 
L 1894 0 
L 1894 113 
Q 2050 134 2128 238 
Q 2184 319 2184 634 
L 2184 1938 
Q 2184 2300 2156 2392 
Q 2128 2484 2061 2536 
Q 1994 2588 1909 2588 
Q 1784 2588 1665 2502 
Q 1547 2416 1409 2200 
L 1409 634 
Q 1409 322 1456 244 
Q 1516 138 1700 113 
L 1700 0 
L 219 0 
L 219 113 
Q 403 131 481 231 
Q 534 300 534 634 
L 534 3603 
Q 534 3934 473 4015 
Q 413 4097 219 4122 
L 219 4238 
L 1409 4238 
z
" transform="scale(0.015625)"/>
      <path id="TimesNewRomanPS-BoldMT-65" d="M 2691 1566 
L 1088 1566 
Q 1116 984 1397 647 
Q 1613 388 1916 388 
Q 2103 388 2256 492 
Q 2409 597 2584 869 
L 2691 800 
Q 2453 316 2165 114 
Q 1878 -88 1500 -88 
Q 850 -88 516 413 
Q 247 816 247 1413 
Q 247 2144 642 2576 
Q 1038 3009 1569 3009 
Q 2013 3009 2339 2645 
Q 2666 2281 2691 1566 
z
M 1922 1775 
Q 1922 2278 1867 2465 
Q 1813 2653 1697 2750 
Q 1631 2806 1522 2806 
Q 1359 2806 1256 2647 
Q 1072 2369 1072 1884 
L 1072 1775 
L 1922 1775 
z
" transform="scale(0.015625)"/>
      <path id="TimesNewRomanPS-BoldMT-75" d="M 3038 2922 
L 3038 634 
Q 3038 300 3100 217 
Q 3163 134 3353 113 
L 3353 0 
L 2163 0 
L 2163 391 
Q 1953 141 1743 26 
Q 1534 -88 1275 -88 
Q 1028 -88 836 64 
Q 644 216 578 419 
Q 513 622 513 1128 
L 513 2288 
Q 513 2619 452 2700 
Q 391 2781 197 2806 
L 197 2922 
L 1388 2922 
L 1388 925 
Q 1388 613 1417 522 
Q 1447 431 1511 384 
Q 1575 338 1659 338 
Q 1772 338 1863 397 
Q 1988 478 2163 725 
L 2163 2288 
Q 2163 2619 2102 2700 
Q 2041 2781 1847 2806 
L 1847 2922 
L 3038 2922 
z
" transform="scale(0.015625)"/>
      <path id="TimesNewRomanPS-BoldMT-6d" d="M 1428 2922 
L 1428 2538 
Q 1669 2800 1873 2904 
Q 2078 3009 2322 3009 
Q 2603 3009 2793 2878 
Q 2984 2747 3088 2478 
Q 3338 2759 3567 2884 
Q 3797 3009 4047 3009 
Q 4350 3009 4529 2870 
Q 4709 2731 4779 2517 
Q 4850 2303 4850 1834 
L 4850 638 
Q 4850 300 4911 219 
Q 4972 138 5166 113 
L 5166 0 
L 3656 0 
L 3656 113 
Q 3834 128 3919 250 
Q 3975 334 3975 638 
L 3975 1894 
Q 3975 2284 3944 2390 
Q 3913 2497 3845 2548 
Q 3778 2600 3688 2600 
Q 3553 2600 3415 2501 
Q 3278 2403 3138 2206 
L 3138 638 
Q 3138 322 3191 241 
Q 3263 125 3466 113 
L 3466 0 
L 1953 0 
L 1953 113 
Q 2075 119 2145 173 
Q 2216 228 2239 304 
Q 2263 381 2263 638 
L 2263 1894 
Q 2263 2291 2231 2391 
Q 2200 2491 2126 2547 
Q 2053 2603 1969 2603 
Q 1844 2603 1741 2538 
Q 1594 2441 1428 2206 
L 1428 638 
Q 1428 328 1489 229 
Q 1550 131 1744 113 
L 1744 0 
L 238 0 
L 238 113 
Q 422 131 500 231 
Q 553 300 553 638 
L 553 2288 
Q 553 2619 492 2700 
Q 431 2781 238 2806 
L 238 2922 
L 1428 2922 
z
" transform="scale(0.015625)"/>
      <path id="TimesNewRomanPS-BoldMT-62" d="M 1347 4238 
L 1347 2628 
Q 1716 3009 2153 3009 
Q 2453 3009 2718 2832 
Q 2984 2656 3134 2331 
Q 3284 2006 3284 1581 
Q 3284 1103 3093 712 
Q 2903 322 2584 117 
Q 2266 -88 1856 -88 
Q 1619 -88 1434 -12 
Q 1250 63 1072 231 
L 588 -84 
L 481 -84 
L 481 3631 
Q 481 3884 459 3944 
Q 428 4031 361 4073 
Q 294 4116 134 4122 
L 134 4238 
L 1347 4238 
z
M 1347 2350 
L 1347 1050 
Q 1347 653 1366 544 
Q 1397 359 1515 245 
Q 1634 131 1819 131 
Q 1978 131 2092 222 
Q 2206 313 2282 581 
Q 2359 850 2359 1550 
Q 2359 2222 2191 2472 
Q 2069 2653 1863 2653 
Q 1594 2653 1347 2350 
z
" transform="scale(0.015625)"/>
      <path id="TimesNewRomanPS-BoldMT-72" d="M 1428 2922 
L 1428 2259 
Q 1719 2713 1937 2861 
Q 2156 3009 2359 3009 
Q 2534 3009 2639 2901 
Q 2744 2794 2744 2597 
Q 2744 2388 2642 2272 
Q 2541 2156 2397 2156 
Q 2231 2156 2109 2262 
Q 1988 2369 1966 2381 
Q 1934 2400 1894 2400 
Q 1803 2400 1722 2331 
Q 1594 2225 1528 2028 
Q 1428 1725 1428 1359 
L 1428 688 
L 1431 513 
Q 1431 334 1453 284 
Q 1491 200 1564 161 
Q 1638 122 1813 113 
L 1813 0 
L 234 0 
L 234 113 
Q 425 128 492 217 
Q 559 306 559 688 
L 559 2303 
Q 559 2553 534 2622 
Q 503 2709 443 2750 
Q 384 2791 234 2806 
L 234 2922 
L 1428 2922 
z
" transform="scale(0.015625)"/>
      <path id="TimesNewRomanPS-BoldMT-66" d="M 1497 2616 
L 1497 588 
Q 1497 294 1559 219 
Q 1659 103 1928 113 
L 1928 0 
L 206 0 
L 206 113 
Q 403 116 486 158 
Q 569 200 600 275 
Q 631 350 631 588 
L 631 2616 
L 206 2616 
L 206 2922 
L 631 2922 
L 631 3138 
L 628 3284 
Q 628 3734 958 4034 
Q 1288 4334 1850 4334 
Q 2234 4334 2420 4190 
Q 2606 4047 2606 3872 
Q 2606 3731 2490 3628 
Q 2375 3525 2184 3525 
Q 2022 3525 1926 3609 
Q 1831 3694 1831 3797 
Q 1831 3825 1850 3913 
Q 1863 3966 1863 4013 
Q 1863 4078 1825 4109 
Q 1775 4156 1703 4156 
Q 1613 4156 1552 4081 
Q 1491 4006 1491 3841 
L 1497 3294 
L 1497 2922 
L 1928 2922 
L 1928 2616 
L 1497 2616 
z
" transform="scale(0.015625)"/>
      <path id="TimesNewRomanPS-BoldMT-2d" d="M 1978 1147 
L 156 1147 
L 156 1794 
L 1978 1794 
L 1978 1147 
z
" transform="scale(0.015625)"/>
      <path id="TimesNewRomanPS-BoldMT-64" d="M 3056 4238 
L 3056 875 
Q 3056 534 3075 472 
Q 3100 369 3170 319 
Q 3241 269 3416 256 
L 3416 153 
L 2181 -88 
L 2181 375 
Q 1959 106 1786 9 
Q 1613 -88 1394 -88 
Q 834 -88 509 413 
Q 247 819 247 1409 
Q 247 1881 409 2254 
Q 572 2628 855 2818 
Q 1138 3009 1463 3009 
Q 1672 3009 1834 2928 
Q 1997 2847 2181 2644 
L 2181 3525 
Q 2181 3859 2153 3928 
Q 2116 4019 2041 4062 
Q 1966 4106 1759 4106 
L 1759 4238 
L 3056 4238 
z
M 2181 2256 
Q 1950 2700 1616 2700 
Q 1500 2700 1425 2638 
Q 1309 2541 1236 2297 
Q 1163 2053 1163 1550 
Q 1163 997 1244 731 
Q 1325 466 1466 347 
Q 1538 288 1663 288 
Q 1938 288 2181 719 
L 2181 2256 
z
" transform="scale(0.015625)"/>
      <path id="TimesNewRomanPS-BoldMT-79" d="M 1556 -119 
L 613 2047 
Q 400 2538 298 2650 
Q 197 2763 53 2806 
L 53 2922 
L 1606 2922 
L 1606 2806 
Q 1453 2800 1390 2747 
Q 1328 2694 1328 2619 
Q 1328 2500 1484 2150 
L 1984 1006 
L 2325 1891 
Q 2509 2363 2509 2547 
Q 2509 2663 2432 2731 
Q 2356 2800 2163 2806 
L 2163 2922 
L 3141 2922 
L 3141 2806 
Q 2997 2791 2906 2695 
Q 2816 2600 2603 2047 
L 1769 -119 
Q 1453 -931 1300 -1119 
Q 1084 -1381 759 -1381 
Q 500 -1381 339 -1232 
Q 178 -1084 178 -875 
Q 178 -694 289 -575 
Q 400 -456 563 -456 
Q 719 -456 814 -556 
Q 909 -656 913 -866 
Q 916 -984 941 -1019 
Q 966 -1053 1013 -1053 
Q 1088 -1053 1172 -963 
Q 1297 -831 1466 -363 
L 1556 -119 
z
" transform="scale(0.015625)"/>
      <path id="TimesNewRomanPS-BoldMT-76" d="M 1534 -88 
L 550 2178 
Q 372 2588 272 2697 
Q 200 2778 59 2806 
L 59 2922 
L 1613 2922 
L 1613 2806 
Q 1466 2806 1413 2753 
Q 1338 2684 1338 2591 
Q 1338 2475 1475 2156 
L 1956 1059 
L 2341 2006 
Q 2506 2413 2506 2581 
Q 2506 2678 2436 2739 
Q 2366 2800 2188 2806 
L 2188 2922 
L 3144 2922 
L 3144 2806 
Q 3006 2788 2918 2703 
Q 2831 2619 2656 2206 
L 1681 -88 
L 1534 -88 
z
" transform="scale(0.015625)"/>
      <path id="TimesNewRomanPS-BoldMT-28" d="M 2056 4334 
L 2056 4191 
Q 1731 3978 1578 3775 
Q 1366 3494 1247 3053 
Q 1097 2506 1097 1525 
Q 1097 600 1233 87 
Q 1369 -425 1603 -741 
Q 1766 -959 2056 -1125 
L 2056 -1281 
Q 1303 -1028 779 -248 
Q 256 531 256 1544 
Q 256 2544 778 3314 
Q 1300 4084 2056 4334 
z
" transform="scale(0.015625)"/>
      <path id="TimesNewRomanPS-BoldMT-56" d="M 4556 4238 
L 4556 4122 
Q 4325 4084 4144 3875 
Q 4013 3719 3753 3141 
L 2294 -97 
L 2191 -97 
L 738 3272 
Q 475 3881 386 3987 
Q 297 4094 50 4122 
L 50 4238 
L 2081 4238 
L 2081 4122 
L 2013 4122 
Q 1738 4122 1638 4053 
Q 1566 4006 1566 3916 
Q 1566 3859 1591 3782 
Q 1616 3706 1759 3372 
L 2663 1263 
L 3500 3141 
Q 3650 3481 3684 3597 
Q 3719 3713 3719 3794 
Q 3719 3888 3669 3959 
Q 3619 4031 3522 4069 
Q 3388 4122 3166 4122 
L 3166 4238 
L 4556 4238 
z
" transform="scale(0.015625)"/>
      <path id="TimesNewRomanPS-BoldMT-29" d="M 78 -1281 
L 78 -1138 
Q 403 -922 556 -719 
Q 766 -438 888 0 
Q 1038 550 1038 1531 
Q 1038 2456 902 2967 
Q 766 3478 531 3794 
Q 369 4013 78 4178 
L 78 4334 
Q 831 4081 1354 3301 
Q 1878 2522 1878 1509 
Q 1878 513 1354 -257 
Q 831 -1028 78 -1281 
z
" transform="scale(0.015625)"/>
     </defs>
     <use xlink:href="#TimesNewRomanPS-BoldMT-53"/>
     <use xlink:href="#TimesNewRomanPS-BoldMT-74" x="55.615234"/>
     <use xlink:href="#TimesNewRomanPS-BoldMT-61" x="88.916016"/>
     <use xlink:href="#TimesNewRomanPS-BoldMT-74" x="138.916016"/>
     <use xlink:href="#TimesNewRomanPS-BoldMT-69" x="172.216797"/>
     <use xlink:href="#TimesNewRomanPS-BoldMT-73" x="200"/>
     <use xlink:href="#TimesNewRomanPS-BoldMT-74" x="238.916016"/>
     <use xlink:href="#TimesNewRomanPS-BoldMT-69" x="272.216797"/>
     <use xlink:href="#TimesNewRomanPS-BoldMT-63" x="300"/>
     <use xlink:href="#TimesNewRomanPS-BoldMT-73" x="344.384766"/>
     <use xlink:href="#TimesNewRomanPS-BoldMT-20" x="383.300781"/>
     <use xlink:href="#TimesNewRomanPS-BoldMT-6f" x="408.300781"/>
     <use xlink:href="#TimesNewRomanPS-BoldMT-6e" x="458.300781"/>
     <use xlink:href="#TimesNewRomanPS-BoldMT-20" x="513.916016"/>
     <use xlink:href="#TimesNewRomanPS-BoldMT-74" x="538.916016"/>
     <use xlink:href="#TimesNewRomanPS-BoldMT-68" x="572.216797"/>
     <use xlink:href="#TimesNewRomanPS-BoldMT-65" x="627.832031"/>
     <use xlink:href="#TimesNewRomanPS-BoldMT-20" x="672.216797"/>
     <use xlink:href="#TimesNewRomanPS-BoldMT-6e" x="697.216797"/>
     <use xlink:href="#TimesNewRomanPS-BoldMT-75" x="752.832031"/>
     <use xlink:href="#TimesNewRomanPS-BoldMT-6d" x="808.447266"/>
     <use xlink:href="#TimesNewRomanPS-BoldMT-62" x="891.748047"/>
     <use xlink:href="#TimesNewRomanPS-BoldMT-65" x="947.363281"/>
     <use xlink:href="#TimesNewRomanPS-BoldMT-72" x="991.748047"/>
     <use xlink:href="#TimesNewRomanPS-BoldMT-20" x="1034.382812"/>
     <use xlink:href="#TimesNewRomanPS-BoldMT-6f" x="1059.382812"/>
     <use xlink:href="#TimesNewRomanPS-BoldMT-66" x="1109.382812"/>
     <use xlink:href="#TimesNewRomanPS-BoldMT-20" x="1142.683594"/>
     <use xlink:href="#TimesNewRomanPS-BoldMT-6f" x="1167.683594"/>
     <use xlink:href="#TimesNewRomanPS-BoldMT-6e" x="1217.683594"/>
     <use xlink:href="#TimesNewRomanPS-BoldMT-65" x="1273.298828"/>
     <use xlink:href="#TimesNewRomanPS-BoldMT-2d" x="1317.683594"/>
     <use xlink:href="#TimesNewRomanPS-BoldMT-64" x="1350.984375"/>
     <use xlink:href="#TimesNewRomanPS-BoldMT-61" x="1406.599609"/>
     <use xlink:href="#TimesNewRomanPS-BoldMT-79" x="1456.599609"/>
     <use xlink:href="#TimesNewRomanPS-BoldMT-20" x="1506.599609"/>
     <use xlink:href="#TimesNewRomanPS-BoldMT-76" x="1531.599609"/>
     <use xlink:href="#TimesNewRomanPS-BoldMT-69" x="1581.599609"/>
     <use xlink:href="#TimesNewRomanPS-BoldMT-73" x="1609.382812"/>
     <use xlink:href="#TimesNewRomanPS-BoldMT-69" x="1648.298828"/>
     <use xlink:href="#TimesNewRomanPS-BoldMT-74" x="1676.082031"/>
     <use xlink:href="#TimesNewRomanPS-BoldMT-6f" x="1709.382812"/>
     <use xlink:href="#TimesNewRomanPS-BoldMT-72" x="1759.382812"/>
     <use xlink:href="#TimesNewRomanPS-BoldMT-73" x="1803.767578"/>
     <use xlink:href="#TimesNewRomanPS-BoldMT-20" x="1842.683594"/>
     <use xlink:href="#TimesNewRomanPS-BoldMT-74" x="1867.683594"/>
     <use xlink:href="#TimesNewRomanPS-BoldMT-6f" x="1900.984375"/>
     <use xlink:href="#TimesNewRomanPS-BoldMT-20" x="1950.984375"/>
     <use xlink:href="#TimesNewRomanPS-BoldMT-64" x="1975.984375"/>
     <use xlink:href="#TimesNewRomanPS-BoldMT-69" x="2031.599609"/>
     <use xlink:href="#TimesNewRomanPS-BoldMT-66" x="2059.382812"/>
     <use xlink:href="#TimesNewRomanPS-BoldMT-66" x="2092.683594"/>
     <use xlink:href="#TimesNewRomanPS-BoldMT-65" x="2125.984375"/>
     <use xlink:href="#TimesNewRomanPS-BoldMT-72" x="2170.369141"/>
     <use xlink:href="#TimesNewRomanPS-BoldMT-65" x="2213.003906"/>
     <use xlink:href="#TimesNewRomanPS-BoldMT-6e" x="2257.388672"/>
     <use xlink:href="#TimesNewRomanPS-BoldMT-74" x="2313.003906"/>
     <use xlink:href="#TimesNewRomanPS-BoldMT-20" x="2346.304688"/>
     <use xlink:href="#TimesNewRomanPS-BoldMT-61" x="2371.304688"/>
     <use xlink:href="#TimesNewRomanPS-BoldMT-74" x="2421.304688"/>
     <use xlink:href="#TimesNewRomanPS-BoldMT-74" x="2454.605469"/>
     <use xlink:href="#TimesNewRomanPS-BoldMT-72" x="2487.90625"/>
     <use xlink:href="#TimesNewRomanPS-BoldMT-61" x="2532.291016"/>
     <use xlink:href="#TimesNewRomanPS-BoldMT-63" x="2582.291016"/>
     <use xlink:href="#TimesNewRomanPS-BoldMT-74" x="2626.675781"/>
     <use xlink:href="#TimesNewRomanPS-BoldMT-69" x="2659.976562"/>
     <use xlink:href="#TimesNewRomanPS-BoldMT-6f" x="2687.759766"/>
     <use xlink:href="#TimesNewRomanPS-BoldMT-6e" x="2737.759766"/>
     <use xlink:href="#TimesNewRomanPS-BoldMT-73" x="2793.375"/>
     <use xlink:href="#TimesNewRomanPS-BoldMT-20" x="2832.291016"/>
     <use xlink:href="#TimesNewRomanPS-BoldMT-28" x="2857.291016"/>
     <use xlink:href="#TimesNewRomanPS-BoldMT-56" x="2890.591797"/>
     <use xlink:href="#TimesNewRomanPS-BoldMT-69" x="2959.058594"/>
     <use xlink:href="#TimesNewRomanPS-BoldMT-73" x="2986.841797"/>
     <use xlink:href="#TimesNewRomanPS-BoldMT-69" x="3025.757812"/>
     <use xlink:href="#TimesNewRomanPS-BoldMT-74" x="3053.541016"/>
     <use xlink:href="#TimesNewRomanPS-BoldMT-6f" x="3086.841797"/>
     <use xlink:href="#TimesNewRomanPS-BoldMT-72" x="3136.841797"/>
     <use xlink:href="#TimesNewRomanPS-BoldMT-73" x="3181.226562"/>
     <use xlink:href="#TimesNewRomanPS-BoldMT-29" x="3220.142578"/>
    </g>
   </g>
  </g>
 </g>
 <defs>
  <clipPath id="pfd7778a0d2">
   <rect x="81.5775" y="30.045" width="371.79" height="215.93634"/>
  </clipPath>
 </defs>
</svg>
