<?xml version="1.0" encoding="utf-8" standalone="no"?>
<!DOCTYPE svg PUBLIC "-//W3C//DTD SVG 1.1//EN"
  "http://www.w3.org/Graphics/SVG/1.1/DTD/svg11.dtd">
<svg xmlns:xlink="http://www.w3.org/1999/xlink" width="442.990938pt" height="320.002574pt" viewBox="0 0 442.990938 320.002574" xmlns="http://www.w3.org/2000/svg" version="1.1">
 <metadata>
  <rdf:RDF xmlns:dc="http://purl.org/dc/elements/1.1/" xmlns:cc="http://creativecommons.org/ns#" xmlns:rdf="http://www.w3.org/1999/02/22-rdf-syntax-ns#">
   <cc:Work>
    <dc:type rdf:resource="http://purl.org/dc/dcmitype/StillImage"/>
    <dc:date>2025-05-26T16:29:34.383101</dc:date>
    <dc:format>image/svg+xml</dc:format>
    <dc:creator>
     <cc:Agent>
      <dc:title>Matplotlib v3.7.2, https://matplotlib.org/</dc:title>
     </cc:Agent>
    </dc:creator>
   </cc:Work>
  </rdf:RDF>
 </metadata>
 <defs>
  <style type="text/css">*{stroke-linejoin: round; stroke-linecap: butt}</style>
 </defs>
 <g id="figure_1">
  <g id="patch_1">
   <path d="M 0 320.002574 
L 442.990938 320.002574 
L 442.990938 0 
L 0 0 
z
" style="fill: #ffffff"/>
  </g>
  <g id="axes_1">
   <g id="patch_2">
    <path d="M 55.915938 261.339699 
L 427.705938 261.339699 
L 427.705938 30.045 
L 55.915938 30.045 
z
" style="fill: #ffffff"/>
   </g>
   <g id="PolyCollection_1">
    <defs>
     <path id="m0f66d5d375" d="M 90.526569 -94.930568 
L 83.270306 -94.930568 
L 82.953729 -96.757184 
L 82.645514 -98.583801 
L 82.348749 -100.410417 
L 82.065598 -102.237033 
L 81.797136 -104.06365 
L 81.543225 -105.890266 
L 81.302449 -107.716883 
L 81.072106 -109.543499 
L 80.848252 -111.370115 
L 80.625803 -113.196732 
L 80.398703 -115.023348 
L 80.160136 -116.849965 
L 79.902806 -118.676581 
L 79.619253 -120.503198 
L 79.302217 -122.329814 
L 78.945027 -124.15643 
L 78.54199 -125.983047 
L 78.088769 -127.809663 
L 77.582714 -129.63628 
L 77.023122 -131.462896 
L 76.411407 -133.289513 
L 75.751157 -135.116129 
L 75.048079 -136.942745 
L 74.309825 -138.769362 
L 73.545724 -140.595978 
L 72.766432 -142.422595 
L 71.983547 -144.249211 
L 71.209188 -146.075827 
L 70.455603 -147.902444 
L 69.734803 -149.72906 
L 69.058235 -151.555677 
L 68.436518 -153.382293 
L 67.879208 -155.20891 
L 67.394605 -157.035526 
L 66.989578 -158.862142 
L 66.669398 -160.688759 
L 66.437582 -162.515375 
L 66.295736 -164.341992 
L 66.243438 -166.168608 
L 66.278145 -167.995225 
L 66.395182 -169.821841 
L 66.587812 -171.648457 
L 66.847423 -173.475074 
L 67.163825 -175.30169 
L 67.525674 -177.128307 
L 67.920988 -178.954923 
L 68.337733 -180.781539 
L 68.764437 -182.608156 
L 69.190783 -184.434772 
L 69.608137 -186.261389 
L 70.009959 -188.088005 
L 70.392074 -189.914622 
L 70.752776 -191.741238 
L 71.092763 -193.567854 
L 71.41491 -195.394471 
L 71.723918 -197.221087 
L 72.025846 -199.047704 
L 72.3276 -200.87432 
L 72.636388 -202.700937 
L 72.959202 -204.527553 
L 73.302341 -206.354169 
L 73.671011 -208.180786 
L 74.069017 -210.007402 
L 74.498548 -211.834019 
L 74.96007 -213.660635 
L 75.452314 -215.487251 
L 75.972365 -217.313868 
L 76.515835 -219.140484 
L 77.077111 -220.967101 
L 77.649672 -222.793717 
L 78.226442 -224.620334 
L 78.800164 -226.44695 
L 79.363779 -228.273566 
L 79.910768 -230.100183 
L 80.435446 -231.926799 
L 80.933184 -233.753416 
L 81.400538 -235.580032 
L 81.835291 -237.406649 
L 82.236406 -239.233265 
L 82.603894 -241.059881 
L 82.938638 -242.886498 
L 83.242176 -244.713114 
L 83.516484 -246.539731 
L 83.763777 -248.366347 
L 83.986349 -250.192963 
L 84.186465 -252.01958 
L 84.366297 -253.846196 
L 84.527919 -255.672813 
L 84.673328 -257.499429 
L 84.804483 -259.326046 
L 84.923351 -261.152662 
L 85.031931 -262.979278 
L 85.132255 -264.805895 
L 85.226361 -266.632511 
L 85.316224 -268.459128 
L 85.40368 -270.285744 
L 85.490326 -272.112361 
L 85.577428 -273.938977 
L 85.665849 -275.765593 
L 88.131026 -275.765593 
L 88.131026 -275.765593 
L 88.219447 -273.938977 
L 88.306549 -272.112361 
L 88.393195 -270.285744 
L 88.480651 -268.459128 
L 88.570514 -266.632511 
L 88.66462 -264.805895 
L 88.764944 -262.979278 
L 88.873524 -261.152662 
L 88.992392 -259.326046 
L 89.123547 -257.499429 
L 89.268956 -255.672813 
L 89.430578 -253.846196 
L 89.61041 -252.01958 
L 89.810526 -250.192963 
L 90.033098 -248.366347 
L 90.280391 -246.539731 
L 90.554699 -244.713114 
L 90.858237 -242.886498 
L 91.192981 -241.059881 
L 91.560469 -239.233265 
L 91.961584 -237.406649 
L 92.396337 -235.580032 
L 92.863691 -233.753416 
L 93.361429 -231.926799 
L 93.886107 -230.100183 
L 94.433096 -228.273566 
L 94.996711 -226.44695 
L 95.570433 -224.620334 
L 96.147203 -222.793717 
L 96.719764 -220.967101 
L 97.28104 -219.140484 
L 97.82451 -217.313868 
L 98.344561 -215.487251 
L 98.836805 -213.660635 
L 99.298327 -211.834019 
L 99.727858 -210.007402 
L 100.125864 -208.180786 
L 100.494534 -206.354169 
L 100.837673 -204.527553 
L 101.160487 -202.700937 
L 101.469275 -200.87432 
L 101.771029 -199.047704 
L 102.072957 -197.221087 
L 102.381965 -195.394471 
L 102.704112 -193.567854 
L 103.044099 -191.741238 
L 103.404801 -189.914622 
L 103.786916 -188.088005 
L 104.188738 -186.261389 
L 104.606092 -184.434772 
L 105.032438 -182.608156 
L 105.459142 -180.781539 
L 105.875887 -178.954923 
L 106.271201 -177.128307 
L 106.63305 -175.30169 
L 106.949452 -173.475074 
L 107.209063 -171.648457 
L 107.401693 -169.821841 
L 107.51873 -167.995225 
L 107.553438 -166.168608 
L 107.501139 -164.341992 
L 107.359293 -162.515375 
L 107.127477 -160.688759 
L 106.807297 -158.862142 
L 106.40227 -157.035526 
L 105.917667 -155.20891 
L 105.360357 -153.382293 
L 104.73864 -151.555677 
L 104.062072 -149.72906 
L 103.341272 -147.902444 
L 102.587687 -146.075827 
L 101.813328 -144.249211 
L 101.030443 -142.422595 
L 100.251151 -140.595978 
L 99.48705 -138.769362 
L 98.748796 -136.942745 
L 98.045718 -135.116129 
L 97.385468 -133.289513 
L 96.773753 -131.462896 
L 96.214161 -129.63628 
L 95.708106 -127.809663 
L 95.254885 -125.983047 
L 94.851848 -124.15643 
L 94.494658 -122.329814 
L 94.177622 -120.503198 
L 93.894069 -118.676581 
L 93.636739 -116.849965 
L 93.398172 -115.023348 
L 93.171072 -113.196732 
L 92.948623 -111.370115 
L 92.724769 -109.543499 
L 92.494426 -107.716883 
L 92.25365 -105.890266 
L 91.999739 -104.06365 
L 91.731277 -102.237033 
L 91.448126 -100.410417 
L 91.151361 -98.583801 
L 90.843146 -96.757184 
L 90.526569 -94.930568 
z
" style="stroke: #000000; stroke-opacity: 0.7"/>
    </defs>
    <g clip-path="url(#p2dd00c7a0a)">
     <use xlink:href="#m0f66d5d375" x="0" y="320.002574" style="fill: #ffbb78; fill-opacity: 0.7; stroke: #000000; stroke-opacity: 0.7"/>
    </g>
   </g>
   <g id="PolyCollection_2">
    <defs>
     <path id="m23621a4601" d="M 150.114757 -71.114359 
L 147.612118 -71.114359 
L 147.488029 -72.895409 
L 147.358768 -74.67646 
L 147.222739 -76.457511 
L 147.078123 -78.238562 
L 146.923136 -80.019613 
L 146.75633 -81.800663 
L 146.57686 -83.581714 
L 146.384697 -85.362765 
L 146.180728 -87.143816 
L 145.966718 -88.924867 
L 145.745124 -90.705917 
L 145.518772 -92.486968 
L 145.290416 -94.268019 
L 145.062248 -96.04907 
L 144.835403 -97.830121 
L 144.60955 -99.611171 
L 144.382604 -101.392222 
L 144.150642 -103.173273 
L 143.908016 -104.954324 
L 143.647693 -106.735375 
L 143.361765 -108.516425 
L 143.04209 -110.297476 
L 142.68098 -112.078527 
L 142.271856 -113.859578 
L 141.809793 -115.640629 
L 141.291899 -117.421679 
L 140.717492 -119.20273 
L 140.088078 -120.983781 
L 139.40716 -122.764832 
L 138.679933 -124.545883 
L 137.912925 -126.326933 
L 137.113663 -128.107984 
L 136.29041 -129.889035 
L 135.452013 -131.670086 
L 134.607865 -133.451137 
L 133.767962 -135.232187 
L 132.943009 -137.013238 
L 132.144513 -138.794289 
L 131.384803 -140.57534 
L 130.676913 -142.356391 
L 130.034297 -144.137442 
L 129.470356 -145.918492 
L 128.997799 -147.699543 
L 128.627888 -149.480594 
L 128.369631 -151.261645 
L 128.229026 -153.042696 
L 128.208438 -154.823746 
L 128.306196 -156.604797 
L 128.51649 -158.385848 
L 128.829569 -160.166899 
L 129.232263 -161.94795 
L 129.70877 -163.729 
L 130.241636 -165.510051 
L 130.812825 -167.291102 
L 131.404782 -169.072153 
L 132.00138 -170.853204 
L 132.588678 -172.634254 
L 133.155444 -174.415305 
L 133.693433 -176.196356 
L 134.197433 -177.977407 
L 134.665131 -179.758458 
L 135.096856 -181.539508 
L 135.495253 -183.320559 
L 135.864934 -185.10161 
L 136.212135 -186.882661 
L 136.544371 -188.663712 
L 136.87009 -190.444762 
L 137.198285 -192.225813 
L 137.53805 -194.006864 
L 137.898065 -195.787915 
L 138.286021 -197.568966 
L 138.70802 -199.350016 
L 139.167996 -201.131067 
L 139.667244 -202.912118 
L 140.204115 -204.693169 
L 140.77394 -206.47422 
L 141.369223 -208.25527 
L 141.980099 -210.036321 
L 142.595036 -211.817372 
L 143.201694 -213.598423 
L 143.787868 -215.379474 
L 144.34241 -217.160525 
L 144.856023 -218.941575 
L 145.321846 -220.722626 
L 145.735794 -222.503677 
L 146.096613 -224.284728 
L 146.405679 -226.065779 
L 146.66659 -227.846829 
L 146.88461 -229.62788 
L 147.066046 -231.408931 
L 147.217641 -233.189982 
L 147.346025 -234.971033 
L 147.457283 -236.752083 
L 147.556664 -238.533134 
L 147.648406 -240.314185 
L 147.7357 -242.095236 
L 147.820729 -243.876287 
L 147.904781 -245.657337 
L 147.988396 -247.438388 
L 149.738479 -247.438388 
L 149.738479 -247.438388 
L 149.822094 -245.657337 
L 149.906146 -243.876287 
L 149.991175 -242.095236 
L 150.078469 -240.314185 
L 150.170211 -238.533134 
L 150.269592 -236.752083 
L 150.38085 -234.971033 
L 150.509234 -233.189982 
L 150.660829 -231.408931 
L 150.842265 -229.62788 
L 151.060285 -227.846829 
L 151.321196 -226.065779 
L 151.630262 -224.284728 
L 151.991081 -222.503677 
L 152.405029 -220.722626 
L 152.870852 -218.941575 
L 153.384465 -217.160525 
L 153.939007 -215.379474 
L 154.525181 -213.598423 
L 155.131839 -211.817372 
L 155.746776 -210.036321 
L 156.357652 -208.25527 
L 156.952935 -206.47422 
L 157.52276 -204.693169 
L 158.059631 -202.912118 
L 158.558879 -201.131067 
L 159.018855 -199.350016 
L 159.440854 -197.568966 
L 159.82881 -195.787915 
L 160.188825 -194.006864 
L 160.52859 -192.225813 
L 160.856785 -190.444762 
L 161.182504 -188.663712 
L 161.51474 -186.882661 
L 161.861941 -185.10161 
L 162.231622 -183.320559 
L 162.630019 -181.539508 
L 163.061744 -179.758458 
L 163.529442 -177.977407 
L 164.033442 -176.196356 
L 164.571431 -174.415305 
L 165.138197 -172.634254 
L 165.725495 -170.853204 
L 166.322093 -169.072153 
L 166.91405 -167.291102 
L 167.485239 -165.510051 
L 168.018105 -163.729 
L 168.494612 -161.94795 
L 168.897306 -160.166899 
L 169.210385 -158.385848 
L 169.420679 -156.604797 
L 169.518438 -154.823746 
L 169.497849 -153.042696 
L 169.357244 -151.261645 
L 169.098987 -149.480594 
L 168.729076 -147.699543 
L 168.256519 -145.918492 
L 167.692578 -144.137442 
L 167.049962 -142.356391 
L 166.342072 -140.57534 
L 165.582362 -138.794289 
L 164.783866 -137.013238 
L 163.958913 -135.232187 
L 163.11901 -133.451137 
L 162.274862 -131.670086 
L 161.436465 -129.889035 
L 160.613212 -128.107984 
L 159.81395 -126.326933 
L 159.046942 -124.545883 
L 158.319715 -122.764832 
L 157.638797 -120.983781 
L 157.009383 -119.20273 
L 156.434976 -117.421679 
L 155.917082 -115.640629 
L 155.455019 -113.859578 
L 155.045895 -112.078527 
L 154.684785 -110.297476 
L 154.36511 -108.516425 
L 154.079182 -106.735375 
L 153.818859 -104.954324 
L 153.576233 -103.173273 
L 153.344271 -101.392222 
L 153.117325 -99.611171 
L 152.891472 -97.830121 
L 152.664627 -96.04907 
L 152.436459 -94.268019 
L 152.208103 -92.486968 
L 151.981751 -90.705917 
L 151.760157 -88.924867 
L 151.546147 -87.143816 
L 151.342178 -85.362765 
L 151.150015 -83.581714 
L 150.970545 -81.800663 
L 150.803739 -80.019613 
L 150.648752 -78.238562 
L 150.504136 -76.457511 
L 150.368107 -74.67646 
L 150.238846 -72.895409 
L 150.114757 -71.114359 
z
" style="stroke: #000000; stroke-opacity: 0.7"/>
    </defs>
    <g clip-path="url(#p2dd00c7a0a)">
     <use xlink:href="#m23621a4601" x="0" y="320.002574" style="fill: #d62728; fill-opacity: 0.7; stroke: #000000; stroke-opacity: 0.7"/>
    </g>
   </g>
   <g id="PolyCollection_3">
    <defs>
     <path id="m7757aa3d2f" d="M 211.576219 -90.049611 
L 210.080656 -90.049611 
L 210.038362 -91.613238 
L 209.99931 -93.176865 
L 209.962609 -94.740492 
L 209.92685 -96.304118 
L 209.890096 -97.867745 
L 209.849868 -99.431372 
L 209.803148 -100.994999 
L 209.746396 -102.558626 
L 209.675591 -104.122252 
L 209.586306 -105.685879 
L 209.473836 -107.249506 
L 209.333376 -108.813133 
L 209.160265 -110.37676 
L 208.950263 -111.940386 
L 208.69987 -113.504013 
L 208.406635 -115.06764 
L 208.069434 -116.631267 
L 207.688671 -118.194894 
L 207.266368 -119.75852 
L 206.806125 -121.322147 
L 206.312926 -122.885774 
L 205.792816 -124.449401 
L 205.25244 -126.013028 
L 204.698526 -127.576654 
L 204.137332 -129.140281 
L 203.574139 -130.703908 
L 203.012845 -132.267535 
L 202.455712 -133.831162 
L 201.903318 -135.394788 
L 201.3547 -136.958415 
L 200.807704 -138.522042 
L 200.259493 -140.085669 
L 199.707137 -141.649296 
L 199.148242 -143.212922 
L 198.581497 -144.776549 
L 198.007099 -146.340176 
L 197.426976 -147.903803 
L 196.84479 -149.46743 
L 196.265724 -151.031056 
L 195.696078 -152.594683 
L 195.142741 -154.15831 
L 194.612612 -155.721937 
L 194.112048 -157.285564 
L 193.646404 -158.84919 
L 193.219721 -160.412817 
L 192.834567 -161.976444 
L 192.49204 -163.540071 
L 192.191889 -165.103698 
L 191.932702 -166.667324 
L 191.712133 -168.230951 
L 191.527097 -169.794578 
L 191.373933 -171.358205 
L 191.248517 -172.921832 
L 191.146343 -174.485458 
L 191.062608 -176.049085 
L 190.99232 -177.612712 
L 190.930472 -179.176339 
L 190.872285 -180.739966 
L 190.813511 -182.303592 
L 190.750779 -183.867219 
L 190.681934 -185.430846 
L 190.606328 -186.994473 
L 190.525001 -188.5581 
L 190.440747 -190.121726 
L 190.358017 -191.685353 
L 190.282685 -193.24898 
L 190.221705 -194.812607 
L 190.182684 -196.376234 
L 190.173438 -197.93986 
L 190.201572 -199.503487 
L 190.27413 -201.067114 
L 190.397327 -202.630741 
L 190.576391 -204.194368 
L 190.815491 -205.757994 
L 191.117736 -207.321621 
L 191.485208 -208.885248 
L 191.919002 -210.448875 
L 192.419252 -212.012502 
L 192.985103 -213.576128 
L 193.614659 -215.139755 
L 194.304892 -216.703382 
L 195.051538 -218.267009 
L 195.849025 -219.830636 
L 196.690434 -221.394262 
L 197.567551 -222.957889 
L 198.471002 -224.521516 
L 199.390483 -226.085143 
L 200.315084 -227.64877 
L 201.233677 -229.212396 
L 202.135342 -230.776023 
L 203.009799 -232.33965 
L 203.847802 -233.903277 
L 204.641474 -235.466904 
L 205.384546 -237.03053 
L 206.072493 -238.594157 
L 206.70256 -240.157784 
L 207.273685 -241.721411 
L 207.786333 -243.285038 
L 208.242266 -244.848664 
L 213.414609 -244.848664 
L 213.414609 -244.848664 
L 213.870542 -243.285038 
L 214.38319 -241.721411 
L 214.954315 -240.157784 
L 215.584382 -238.594157 
L 216.272329 -237.03053 
L 217.015401 -235.466904 
L 217.809073 -233.903277 
L 218.647076 -232.33965 
L 219.521533 -230.776023 
L 220.423198 -229.212396 
L 221.341791 -227.64877 
L 222.266392 -226.085143 
L 223.185873 -224.521516 
L 224.089324 -222.957889 
L 224.966441 -221.394262 
L 225.80785 -219.830636 
L 226.605337 -218.267009 
L 227.351983 -216.703382 
L 228.042216 -215.139755 
L 228.671772 -213.576128 
L 229.237623 -212.012502 
L 229.737873 -210.448875 
L 230.171667 -208.885248 
L 230.539139 -207.321621 
L 230.841384 -205.757994 
L 231.080484 -204.194368 
L 231.259548 -202.630741 
L 231.382745 -201.067114 
L 231.455303 -199.503487 
L 231.483438 -197.93986 
L 231.474191 -196.376234 
L 231.43517 -194.812607 
L 231.37419 -193.24898 
L 231.298858 -191.685353 
L 231.216128 -190.121726 
L 231.131874 -188.5581 
L 231.050547 -186.994473 
L 230.974941 -185.430846 
L 230.906096 -183.867219 
L 230.843364 -182.303592 
L 230.78459 -180.739966 
L 230.726403 -179.176339 
L 230.664555 -177.612712 
L 230.594267 -176.049085 
L 230.510532 -174.485458 
L 230.408358 -172.921832 
L 230.282942 -171.358205 
L 230.129778 -169.794578 
L 229.944742 -168.230951 
L 229.724173 -166.667324 
L 229.464986 -165.103698 
L 229.164835 -163.540071 
L 228.822308 -161.976444 
L 228.437154 -160.412817 
L 228.010471 -158.84919 
L 227.544827 -157.285564 
L 227.044263 -155.721937 
L 226.514134 -154.15831 
L 225.960797 -152.594683 
L 225.391151 -151.031056 
L 224.812085 -149.46743 
L 224.229899 -147.903803 
L 223.649776 -146.340176 
L 223.075378 -144.776549 
L 222.508633 -143.212922 
L 221.949738 -141.649296 
L 221.397382 -140.085669 
L 220.849171 -138.522042 
L 220.302175 -136.958415 
L 219.753557 -135.394788 
L 219.201163 -133.831162 
L 218.64403 -132.267535 
L 218.082736 -130.703908 
L 217.519543 -129.140281 
L 216.958349 -127.576654 
L 216.404435 -126.013028 
L 215.864059 -124.449401 
L 215.343949 -122.885774 
L 214.85075 -121.322147 
L 214.390507 -119.75852 
L 213.968204 -118.194894 
L 213.587441 -116.631267 
L 213.25024 -115.06764 
L 212.957005 -113.504013 
L 212.706612 -111.940386 
L 212.49661 -110.37676 
L 212.323499 -108.813133 
L 212.183039 -107.249506 
L 212.070569 -105.685879 
L 211.981284 -104.122252 
L 211.910479 -102.558626 
L 211.853727 -100.994999 
L 211.807007 -99.431372 
L 211.766779 -97.867745 
L 211.730025 -96.304118 
L 211.694266 -94.740492 
L 211.657565 -93.176865 
L 211.618513 -91.613238 
L 211.576219 -90.049611 
z
" style="stroke: #000000; stroke-opacity: 0.7"/>
    </defs>
    <g clip-path="url(#p2dd00c7a0a)">
     <use xlink:href="#m7757aa3d2f" x="0" y="320.002574" style="fill: #e78ac3; fill-opacity: 0.7; stroke: #000000; stroke-opacity: 0.7"/>
    </g>
   </g>
   <g id="PolyCollection_4">
    <defs>
     <path id="m3af0039d9f" d="M 276.134828 -103.401823 
L 269.452047 -103.401823 
L 269.122052 -105.180029 
L 268.790648 -106.958234 
L 268.459947 -108.73644 
L 268.131188 -110.514645 
L 267.804566 -112.292851 
L 267.479145 -114.071057 
L 267.152854 -115.849262 
L 266.822564 -117.627468 
L 266.484263 -119.405673 
L 266.133307 -121.183879 
L 265.764732 -122.962085 
L 265.373604 -124.74029 
L 264.955377 -126.518496 
L 264.506233 -128.296702 
L 264.023382 -130.074907 
L 263.505284 -131.853113 
L 262.951797 -133.631318 
L 262.364241 -135.409524 
L 261.74537 -137.18773 
L 261.099276 -138.965935 
L 260.431237 -140.744141 
L 259.747514 -142.522346 
L 259.055136 -144.300552 
L 258.361666 -146.078758 
L 257.674969 -147.856963 
L 257.002985 -149.635169 
L 256.3535 -151.413374 
L 255.73393 -153.19158 
L 255.151107 -154.969786 
L 254.611077 -156.747991 
L 254.118925 -158.526197 
L 253.678629 -160.304402 
L 253.292971 -162.082608 
L 252.963531 -163.860814 
L 252.690746 -165.639019 
L 252.474078 -167.417225 
L 252.31225 -169.19543 
L 252.203548 -170.973636 
L 252.146149 -172.751842 
L 252.138438 -174.530047 
L 252.179253 -176.308253 
L 252.26805 -178.086459 
L 252.40492 -179.864664 
L 252.590473 -181.64287 
L 252.825591 -183.421075 
L 253.111067 -185.199281 
L 253.447187 -186.977487 
L 253.833314 -188.755692 
L 254.267527 -190.533898 
L 254.746375 -192.312103 
L 255.264797 -194.090309 
L 255.816217 -195.868515 
L 256.392833 -197.64672 
L 256.98606 -199.424926 
L 257.587089 -201.203131 
L 258.187502 -202.981337 
L 258.779871 -204.759543 
L 259.358266 -206.537748 
L 259.918626 -208.315954 
L 260.458933 -210.094159 
L 260.979183 -211.872365 
L 261.481148 -213.650571 
L 261.967961 -215.428776 
L 262.443571 -217.206982 
L 262.912138 -218.985188 
L 263.377422 -220.763393 
L 263.842253 -222.541599 
L 264.308119 -224.319804 
L 264.774932 -226.09801 
L 265.240967 -227.876216 
L 265.703002 -229.654421 
L 266.156605 -231.432627 
L 266.596546 -233.210832 
L 267.017284 -234.989038 
L 267.413458 -236.767244 
L 267.780355 -238.545449 
L 268.114287 -240.323655 
L 268.41287 -242.10186 
L 268.675166 -243.880066 
L 268.901709 -245.658272 
L 269.094413 -247.436477 
L 269.256383 -249.214683 
L 269.391673 -250.992888 
L 269.504989 -252.771094 
L 269.601403 -254.5493 
L 269.686061 -256.327505 
L 269.763934 -258.105711 
L 269.839603 -259.883916 
L 269.91709 -261.662122 
L 269.99974 -263.440328 
L 270.090137 -265.218533 
L 270.190072 -266.996739 
L 270.300537 -268.774945 
L 270.421757 -270.55315 
L 270.553246 -272.331356 
L 270.693891 -274.109561 
L 270.842055 -275.887767 
L 270.995693 -277.665973 
L 271.152484 -279.444178 
L 274.434391 -279.444178 
L 274.434391 -279.444178 
L 274.591182 -277.665973 
L 274.74482 -275.887767 
L 274.892984 -274.109561 
L 275.033629 -272.331356 
L 275.165118 -270.55315 
L 275.286338 -268.774945 
L 275.396803 -266.996739 
L 275.496738 -265.218533 
L 275.587135 -263.440328 
L 275.669785 -261.662122 
L 275.747272 -259.883916 
L 275.822941 -258.105711 
L 275.900814 -256.327505 
L 275.985472 -254.5493 
L 276.081886 -252.771094 
L 276.195202 -250.992888 
L 276.330492 -249.214683 
L 276.492462 -247.436477 
L 276.685166 -245.658272 
L 276.911709 -243.880066 
L 277.174005 -242.10186 
L 277.472588 -240.323655 
L 277.80652 -238.545449 
L 278.173417 -236.767244 
L 278.569591 -234.989038 
L 278.990329 -233.210832 
L 279.43027 -231.432627 
L 279.883873 -229.654421 
L 280.345908 -227.876216 
L 280.811943 -226.09801 
L 281.278756 -224.319804 
L 281.744622 -222.541599 
L 282.209453 -220.763393 
L 282.674737 -218.985188 
L 283.143304 -217.206982 
L 283.618914 -215.428776 
L 284.105727 -213.650571 
L 284.607692 -211.872365 
L 285.127942 -210.094159 
L 285.668249 -208.315954 
L 286.228609 -206.537748 
L 286.807004 -204.759543 
L 287.399373 -202.981337 
L 287.999786 -201.203131 
L 288.600815 -199.424926 
L 289.194042 -197.64672 
L 289.770658 -195.868515 
L 290.322078 -194.090309 
L 290.8405 -192.312103 
L 291.319348 -190.533898 
L 291.753561 -188.755692 
L 292.139688 -186.977487 
L 292.475808 -185.199281 
L 292.761284 -183.421075 
L 292.996402 -181.64287 
L 293.181955 -179.864664 
L 293.318825 -178.086459 
L 293.407622 -176.308253 
L 293.448438 -174.530047 
L 293.440726 -172.751842 
L 293.383327 -170.973636 
L 293.274625 -169.19543 
L 293.112797 -167.417225 
L 292.896129 -165.639019 
L 292.623344 -163.860814 
L 292.293904 -162.082608 
L 291.908246 -160.304402 
L 291.46795 -158.526197 
L 290.975798 -156.747991 
L 290.435768 -154.969786 
L 289.852945 -153.19158 
L 289.233375 -151.413374 
L 288.58389 -149.635169 
L 287.911906 -147.856963 
L 287.225209 -146.078758 
L 286.531739 -144.300552 
L 285.839361 -142.522346 
L 285.155638 -140.744141 
L 284.487599 -138.965935 
L 283.841505 -137.18773 
L 283.222634 -135.409524 
L 282.635078 -133.631318 
L 282.081591 -131.853113 
L 281.563493 -130.074907 
L 281.080642 -128.296702 
L 280.631498 -126.518496 
L 280.213271 -124.74029 
L 279.822143 -122.962085 
L 279.453568 -121.183879 
L 279.102612 -119.405673 
L 278.764311 -117.627468 
L 278.434021 -115.849262 
L 278.10773 -114.071057 
L 277.782309 -112.292851 
L 277.455687 -110.514645 
L 277.126928 -108.73644 
L 276.796227 -106.958234 
L 276.464823 -105.180029 
L 276.134828 -103.401823 
z
" style="stroke: #000000; stroke-opacity: 0.7"/>
    </defs>
    <g clip-path="url(#p2dd00c7a0a)">
     <use xlink:href="#m3af0039d9f" x="0" y="320.002574" style="fill: #ff9896; fill-opacity: 0.7; stroke: #000000; stroke-opacity: 0.7"/>
    </g>
   </g>
   <g id="PolyCollection_5">
    <defs>
     <path id="m9646257b1c" d="M 336.236373 -69.17627 
L 333.280502 -69.17627 
L 333.133547 -70.991675 
L 332.982832 -72.807081 
L 332.827885 -74.622486 
L 332.667861 -76.437892 
L 332.501644 -78.253297 
L 332.327988 -80.068703 
L 332.145696 -81.884108 
L 331.953808 -83.699514 
L 331.751784 -85.514919 
L 331.539637 -87.330325 
L 331.318024 -89.14573 
L 331.088242 -90.961136 
L 330.852143 -92.776541 
L 330.611954 -94.591947 
L 330.370009 -96.407352 
L 330.128418 -98.222758 
L 329.888695 -100.038163 
L 329.651389 -101.853569 
L 329.415751 -103.668974 
L 329.179491 -105.48438 
L 328.938653 -107.299785 
L 328.687655 -109.115191 
L 328.419495 -110.930596 
L 328.126141 -112.746002 
L 327.799084 -114.561407 
L 327.430003 -116.376813 
L 327.011509 -118.192218 
L 326.537879 -120.007624 
L 326.005712 -121.823029 
L 325.414431 -123.638435 
L 324.76657 -125.45384 
L 324.067795 -127.269246 
L 323.326668 -129.084651 
L 322.554139 -130.900057 
L 321.762852 -132.715462 
L 320.966319 -134.530868 
L 320.178058 -136.346273 
L 319.410796 -138.161679 
L 318.675825 -139.977084 
L 317.982557 -141.79249 
L 317.338322 -143.607895 
L 316.748404 -145.423301 
L 316.216254 -147.238706 
L 315.743835 -149.054112 
L 315.332015 -150.869517 
L 314.98092 -152.684923 
L 314.6902 -154.500328 
L 314.459161 -156.315734 
L 314.286768 -158.131139 
L 314.171541 -159.946545 
L 314.111385 -161.76195 
L 314.103438 -163.577356 
L 314.143971 -165.392761 
L 314.228417 -167.208167 
L 314.351528 -169.023572 
L 314.507687 -170.838978 
L 314.691328 -172.654383 
L 314.897422 -174.469789 
L 315.121962 -176.285194 
L 315.362392 -178.1006 
L 315.617896 -179.916005 
L 315.889522 -181.731411 
L 316.180112 -183.546816 
L 316.494032 -185.362222 
L 316.836737 -187.177627 
L 317.21421 -188.993033 
L 317.632326 -190.808438 
L 318.096216 -192.623844 
L 318.609685 -194.439249 
L 319.174725 -196.254655 
L 319.791183 -198.07006 
L 320.456588 -199.885466 
L 321.166148 -201.700871 
L 321.912913 -203.516277 
L 322.688074 -205.331682 
L 323.481374 -207.147088 
L 324.281597 -208.962493 
L 325.077097 -210.777899 
L 325.856334 -212.593304 
L 326.608392 -214.408709 
L 327.323445 -216.224115 
L 327.99316 -218.03952 
L 328.611001 -219.854926 
L 329.172451 -221.670331 
L 329.675121 -223.485737 
L 330.11875 -225.301142 
L 330.5051 -227.116548 
L 330.837763 -228.931953 
L 331.121867 -230.747359 
L 331.363731 -232.562764 
L 331.570461 -234.37817 
L 331.749528 -236.193575 
L 331.908352 -238.008981 
L 332.053909 -239.824386 
L 332.192389 -241.639792 
L 332.328932 -243.455197 
L 332.467435 -245.270603 
L 332.610471 -247.086008 
L 332.759286 -248.901414 
L 336.757589 -248.901414 
L 336.757589 -248.901414 
L 336.906404 -247.086008 
L 337.04944 -245.270603 
L 337.187943 -243.455197 
L 337.324486 -241.639792 
L 337.462966 -239.824386 
L 337.608523 -238.008981 
L 337.767347 -236.193575 
L 337.946414 -234.37817 
L 338.153144 -232.562764 
L 338.395008 -230.747359 
L 338.679112 -228.931953 
L 339.011775 -227.116548 
L 339.398125 -225.301142 
L 339.841754 -223.485737 
L 340.344424 -221.670331 
L 340.905874 -219.854926 
L 341.523715 -218.03952 
L 342.19343 -216.224115 
L 342.908483 -214.408709 
L 343.660541 -212.593304 
L 344.439778 -210.777899 
L 345.235278 -208.962493 
L 346.035501 -207.147088 
L 346.828801 -205.331682 
L 347.603962 -203.516277 
L 348.350727 -201.700871 
L 349.060287 -199.885466 
L 349.725692 -198.07006 
L 350.34215 -196.254655 
L 350.90719 -194.439249 
L 351.420659 -192.623844 
L 351.884549 -190.808438 
L 352.302665 -188.993033 
L 352.680138 -187.177627 
L 353.022843 -185.362222 
L 353.336763 -183.546816 
L 353.627353 -181.731411 
L 353.898979 -179.916005 
L 354.154483 -178.1006 
L 354.394913 -176.285194 
L 354.619453 -174.469789 
L 354.825547 -172.654383 
L 355.009188 -170.838978 
L 355.165347 -169.023572 
L 355.288458 -167.208167 
L 355.372904 -165.392761 
L 355.413438 -163.577356 
L 355.40549 -161.76195 
L 355.345334 -159.946545 
L 355.230107 -158.131139 
L 355.057714 -156.315734 
L 354.826675 -154.500328 
L 354.535955 -152.684923 
L 354.18486 -150.869517 
L 353.77304 -149.054112 
L 353.300621 -147.238706 
L 352.768471 -145.423301 
L 352.178553 -143.607895 
L 351.534318 -141.79249 
L 350.84105 -139.977084 
L 350.106079 -138.161679 
L 349.338817 -136.346273 
L 348.550556 -134.530868 
L 347.754023 -132.715462 
L 346.962736 -130.900057 
L 346.190207 -129.084651 
L 345.44908 -127.269246 
L 344.750305 -125.45384 
L 344.102444 -123.638435 
L 343.511163 -121.823029 
L 342.978996 -120.007624 
L 342.505366 -118.192218 
L 342.086872 -116.376813 
L 341.717791 -114.561407 
L 341.390734 -112.746002 
L 341.09738 -110.930596 
L 340.82922 -109.115191 
L 340.578222 -107.299785 
L 340.337384 -105.48438 
L 340.101124 -103.668974 
L 339.865486 -101.853569 
L 339.62818 -100.038163 
L 339.388457 -98.222758 
L 339.146866 -96.407352 
L 338.904921 -94.591947 
L 338.664732 -92.776541 
L 338.428633 -90.961136 
L 338.198851 -89.14573 
L 337.977238 -87.330325 
L 337.765091 -85.514919 
L 337.563067 -83.699514 
L 337.371179 -81.884108 
L 337.188887 -80.068703 
L 337.015231 -78.253297 
L 336.849014 -76.437892 
L 336.68899 -74.622486 
L 336.534043 -72.807081 
L 336.383328 -70.991675 
L 336.236373 -69.17627 
z
" style="stroke: #000000; stroke-opacity: 0.7"/>
    </defs>
    <g clip-path="url(#p2dd00c7a0a)">
     <use xlink:href="#m9646257b1c" x="0" y="320.002574" style="fill: #9467bd; fill-opacity: 0.7; stroke: #000000; stroke-opacity: 0.7"/>
    </g>
   </g>
   <g id="PolyCollection_6">
    <defs>
     <path id="m0bf55df391" d="M 401.459843 -106.533875 
L 391.987032 -106.533875 
L 391.503448 -107.781558 
L 391.012338 -109.02924 
L 390.518388 -110.276923 
L 390.026148 -111.524605 
L 389.539863 -112.772288 
L 389.063323 -114.01997 
L 388.599747 -115.267653 
L 388.151687 -116.515336 
L 387.720972 -117.763018 
L 387.308684 -119.010701 
L 386.915156 -120.258383 
L 386.54 -121.506066 
L 386.182147 -122.753748 
L 385.839906 -124.001431 
L 385.511033 -125.249113 
L 385.192801 -126.496796 
L 384.882096 -127.744479 
L 384.575506 -128.992161 
L 384.269448 -130.239844 
L 383.960292 -131.487526 
L 383.644518 -132.735209 
L 383.318883 -133.982891 
L 382.980597 -135.230574 
L 382.627503 -136.478256 
L 382.258241 -137.725939 
L 381.872386 -138.973621 
L 381.470551 -140.221304 
L 381.05443 -141.468987 
L 380.626787 -142.716669 
L 380.19138 -143.964352 
L 379.752824 -145.212034 
L 379.316403 -146.459717 
L 378.887839 -147.707399 
L 378.473046 -148.955082 
L 378.077872 -150.202764 
L 377.707859 -151.450447 
L 377.368025 -152.698129 
L 377.062691 -153.945812 
L 376.795351 -155.193495 
L 376.568587 -156.441177 
L 376.384035 -157.68886 
L 376.242382 -158.936542 
L 376.143408 -160.184225 
L 376.086041 -161.431907 
L 376.068438 -162.67959 
L 376.088075 -163.927272 
L 376.141853 -165.174955 
L 376.226207 -166.422637 
L 376.337225 -167.67032 
L 376.470778 -168.918003 
L 376.622659 -170.165685 
L 376.788736 -171.413368 
L 376.9651 -172.66105 
L 377.148233 -173.908733 
L 377.335158 -175.156415 
L 377.523589 -176.404098 
L 377.712062 -177.65178 
L 377.900031 -178.899463 
L 378.087938 -180.147145 
L 378.27723 -181.394828 
L 378.470333 -182.642511 
L 378.670566 -183.890193 
L 378.882004 -185.137876 
L 379.109289 -186.385558 
L 379.357389 -187.633241 
L 379.631332 -188.880923 
L 379.935913 -190.128606 
L 380.275394 -191.376288 
L 380.65323 -192.623971 
L 381.07182 -193.871653 
L 381.532315 -195.119336 
L 382.034491 -196.367019 
L 382.576702 -197.614701 
L 383.155909 -198.862384 
L 383.767788 -200.110066 
L 384.406912 -201.357749 
L 385.06698 -202.605431 
L 385.741084 -203.853114 
L 386.421997 -205.100796 
L 387.102449 -206.348479 
L 387.775394 -207.596162 
L 388.43423 -208.843844 
L 389.072992 -210.091527 
L 389.686485 -211.339209 
L 390.270383 -212.586892 
L 390.82128 -213.834574 
L 391.33671 -215.082257 
L 391.815135 -216.329939 
L 392.255908 -217.577622 
L 392.659224 -218.825304 
L 393.026041 -220.072987 
L 393.357996 -221.32067 
L 393.657302 -222.568352 
L 393.926626 -223.816035 
L 394.168959 -225.063717 
L 394.387479 -226.3114 
L 394.585402 -227.559082 
L 394.765849 -228.806765 
L 394.931712 -230.054447 
L 398.515163 -230.054447 
L 398.515163 -230.054447 
L 398.681026 -228.806765 
L 398.861473 -227.559082 
L 399.059396 -226.3114 
L 399.277916 -225.063717 
L 399.520249 -223.816035 
L 399.789573 -222.568352 
L 400.088879 -221.32067 
L 400.420834 -220.072987 
L 400.787651 -218.825304 
L 401.190967 -217.577622 
L 401.63174 -216.329939 
L 402.110165 -215.082257 
L 402.625595 -213.834574 
L 403.176492 -212.586892 
L 403.76039 -211.339209 
L 404.373883 -210.091527 
L 405.012645 -208.843844 
L 405.671481 -207.596162 
L 406.344426 -206.348479 
L 407.024878 -205.100796 
L 407.705791 -203.853114 
L 408.379895 -202.605431 
L 409.039963 -201.357749 
L 409.679087 -200.110066 
L 410.290966 -198.862384 
L 410.870173 -197.614701 
L 411.412384 -196.367019 
L 411.91456 -195.119336 
L 412.375055 -193.871653 
L 412.793645 -192.623971 
L 413.171481 -191.376288 
L 413.510962 -190.128606 
L 413.815543 -188.880923 
L 414.089486 -187.633241 
L 414.337586 -186.385558 
L 414.564871 -185.137876 
L 414.776309 -183.890193 
L 414.976542 -182.642511 
L 415.169645 -181.394828 
L 415.358937 -180.147145 
L 415.546844 -178.899463 
L 415.734813 -177.65178 
L 415.923286 -176.404098 
L 416.111717 -175.156415 
L 416.298642 -173.908733 
L 416.481775 -172.66105 
L 416.658139 -171.413368 
L 416.824216 -170.165685 
L 416.976097 -168.918003 
L 417.10965 -167.67032 
L 417.220668 -166.422637 
L 417.305022 -165.174955 
L 417.3588 -163.927272 
L 417.378438 -162.67959 
L 417.360834 -161.431907 
L 417.303467 -160.184225 
L 417.204493 -158.936542 
L 417.06284 -157.68886 
L 416.878288 -156.441177 
L 416.651524 -155.193495 
L 416.384184 -153.945812 
L 416.07885 -152.698129 
L 415.739016 -151.450447 
L 415.369003 -150.202764 
L 414.973829 -148.955082 
L 414.559036 -147.707399 
L 414.130472 -146.459717 
L 413.694051 -145.212034 
L 413.255495 -143.964352 
L 412.820088 -142.716669 
L 412.392445 -141.468987 
L 411.976324 -140.221304 
L 411.574489 -138.973621 
L 411.188634 -137.725939 
L 410.819372 -136.478256 
L 410.466278 -135.230574 
L 410.127992 -133.982891 
L 409.802357 -132.735209 
L 409.486583 -131.487526 
L 409.177427 -130.239844 
L 408.871369 -128.992161 
L 408.564779 -127.744479 
L 408.254074 -126.496796 
L 407.935842 -125.249113 
L 407.606969 -124.001431 
L 407.264728 -122.753748 
L 406.906875 -121.506066 
L 406.531719 -120.258383 
L 406.138191 -119.010701 
L 405.725903 -117.763018 
L 405.295188 -116.515336 
L 404.847128 -115.267653 
L 404.383552 -114.01997 
L 403.907012 -112.772288 
L 403.420727 -111.524605 
L 402.928487 -110.276923 
L 402.434537 -109.02924 
L 401.943427 -107.781558 
L 401.459843 -106.533875 
z
" style="stroke: #000000; stroke-opacity: 0.7"/>
    </defs>
    <g clip-path="url(#p2dd00c7a0a)">
     <use xlink:href="#m0bf55df391" x="0" y="320.002574" style="fill: #66c2a5; fill-opacity: 0.7; stroke: #000000; stroke-opacity: 0.7"/>
    </g>
   </g>
   <g id="matplotlib.axis_1">
    <g id="xtick_1">
     <g id="line2d_1">
      <defs>
       <path id="m8a83b8a5fc" d="M 0 0 
L 0 3.5 
" style="stroke: #000000; stroke-width: 0.8"/>
      </defs>
      <g>
       <use xlink:href="#m8a83b8a5fc" x="86.898438" y="261.339699" style="stroke: #000000; stroke-width: 0.8"/>
      </g>
     </g>
     <g id="text_1">
      <!-- Yorkton -->
      <g transform="translate(57.650733 301.664316) rotate(-45) scale(0.12 -0.12)">
       <defs>
        <path id="TimesNewRomanPSMT-59" d="M 3050 4238 
L 4528 4238 
L 4528 4122 
L 4447 4122 
Q 4366 4122 4209 4050 
Q 4053 3978 3925 3843 
Q 3797 3709 3609 3406 
L 2588 1797 
L 2588 734 
Q 2588 344 2675 247 
Q 2794 116 3050 116 
L 3188 116 
L 3188 0 
L 1388 0 
L 1388 116 
L 1538 116 
Q 1806 116 1919 278 
Q 1988 378 1988 734 
L 1988 1738 
L 825 3513 
Q 619 3825 545 3903 
Q 472 3981 241 4091 
Q 178 4122 59 4122 
L 59 4238 
L 1872 4238 
L 1872 4122 
L 1778 4122 
Q 1631 4122 1507 4053 
Q 1384 3984 1384 3847 
Q 1384 3734 1575 3441 
L 2459 2075 
L 3291 3381 
Q 3478 3675 3478 3819 
Q 3478 3906 3433 3975 
Q 3388 4044 3303 4083 
Q 3219 4122 3050 4122 
L 3050 4238 
z
" transform="scale(0.015625)"/>
        <path id="TimesNewRomanPSMT-6f" d="M 1600 2947 
Q 2250 2947 2644 2453 
Q 2978 2031 2978 1484 
Q 2978 1100 2793 706 
Q 2609 313 2286 112 
Q 1963 -88 1566 -88 
Q 919 -88 538 428 
Q 216 863 216 1403 
Q 216 1797 411 2186 
Q 606 2575 925 2761 
Q 1244 2947 1600 2947 
z
M 1503 2744 
Q 1338 2744 1170 2645 
Q 1003 2547 900 2300 
Q 797 2053 797 1666 
Q 797 1041 1045 587 
Q 1294 134 1700 134 
Q 2003 134 2200 384 
Q 2397 634 2397 1244 
Q 2397 2006 2069 2444 
Q 1847 2744 1503 2744 
z
" transform="scale(0.015625)"/>
        <path id="TimesNewRomanPSMT-72" d="M 1038 2947 
L 1038 2303 
Q 1397 2947 1775 2947 
Q 1947 2947 2059 2842 
Q 2172 2738 2172 2600 
Q 2172 2478 2090 2393 
Q 2009 2309 1897 2309 
Q 1788 2309 1652 2417 
Q 1516 2525 1450 2525 
Q 1394 2525 1328 2463 
Q 1188 2334 1038 2041 
L 1038 669 
Q 1038 431 1097 309 
Q 1138 225 1241 169 
Q 1344 113 1538 113 
L 1538 0 
L 72 0 
L 72 113 
Q 291 113 397 181 
Q 475 231 506 341 
Q 522 394 522 644 
L 522 1753 
Q 522 2253 501 2348 
Q 481 2444 426 2487 
Q 372 2531 291 2531 
Q 194 2531 72 2484 
L 41 2597 
L 906 2947 
L 1038 2947 
z
" transform="scale(0.015625)"/>
        <path id="TimesNewRomanPSMT-6b" d="M 1047 4444 
L 1047 1597 
L 1775 2259 
Q 2006 2472 2044 2528 
Q 2069 2566 2069 2603 
Q 2069 2666 2017 2711 
Q 1966 2756 1847 2763 
L 1847 2863 
L 3091 2863 
L 3091 2763 
Q 2834 2756 2664 2684 
Q 2494 2613 2291 2428 
L 1556 1750 
L 2291 822 
Q 2597 438 2703 334 
Q 2853 188 2966 144 
Q 3044 113 3238 113 
L 3238 0 
L 1847 0 
L 1847 113 
Q 1966 116 2008 148 
Q 2050 181 2050 241 
Q 2050 313 1925 472 
L 1047 1594 
L 1047 644 
Q 1047 366 1086 278 
Q 1125 191 1197 153 
Q 1269 116 1509 113 
L 1509 0 
L 53 0 
L 53 113 
Q 272 113 381 166 
Q 447 200 481 272 
Q 528 375 528 628 
L 528 3234 
Q 528 3731 506 3842 
Q 484 3953 434 3995 
Q 384 4038 303 4038 
Q 238 4038 106 3984 
L 53 4094 
L 903 4444 
L 1047 4444 
z
" transform="scale(0.015625)"/>
        <path id="TimesNewRomanPSMT-74" d="M 1031 3803 
L 1031 2863 
L 1700 2863 
L 1700 2644 
L 1031 2644 
L 1031 788 
Q 1031 509 1111 412 
Q 1191 316 1316 316 
Q 1419 316 1516 380 
Q 1613 444 1666 569 
L 1788 569 
Q 1678 263 1478 108 
Q 1278 -47 1066 -47 
Q 922 -47 784 33 
Q 647 113 581 261 
Q 516 409 516 719 
L 516 2644 
L 63 2644 
L 63 2747 
Q 234 2816 414 2980 
Q 594 3144 734 3369 
Q 806 3488 934 3803 
L 1031 3803 
z
" transform="scale(0.015625)"/>
        <path id="TimesNewRomanPSMT-6e" d="M 1034 2341 
Q 1538 2947 1994 2947 
Q 2228 2947 2397 2830 
Q 2566 2713 2666 2444 
Q 2734 2256 2734 1869 
L 2734 647 
Q 2734 375 2778 278 
Q 2813 200 2889 156 
Q 2966 113 3172 113 
L 3172 0 
L 1756 0 
L 1756 113 
L 1816 113 
Q 2016 113 2095 173 
Q 2175 234 2206 353 
Q 2219 400 2219 647 
L 2219 1819 
Q 2219 2209 2117 2386 
Q 2016 2563 1775 2563 
Q 1403 2563 1034 2156 
L 1034 647 
Q 1034 356 1069 288 
Q 1113 197 1189 155 
Q 1266 113 1500 113 
L 1500 0 
L 84 0 
L 84 113 
L 147 113 
Q 366 113 442 223 
Q 519 334 519 647 
L 519 1709 
Q 519 2225 495 2337 
Q 472 2450 423 2490 
Q 375 2531 294 2531 
Q 206 2531 84 2484 
L 38 2597 
L 900 2947 
L 1034 2947 
L 1034 2341 
z
" transform="scale(0.015625)"/>
       </defs>
       <use xlink:href="#TimesNewRomanPSMT-59"/>
       <use xlink:href="#TimesNewRomanPSMT-6f" x="62.216797"/>
       <use xlink:href="#TimesNewRomanPSMT-72" x="112.216797"/>
       <use xlink:href="#TimesNewRomanPSMT-6b" x="145.517578"/>
       <use xlink:href="#TimesNewRomanPSMT-74" x="195.517578"/>
       <use xlink:href="#TimesNewRomanPSMT-6f" x="223.300781"/>
       <use xlink:href="#TimesNewRomanPSMT-6e" x="273.300781"/>
      </g>
     </g>
    </g>
    <g id="xtick_2">
     <g id="line2d_2">
      <g>
       <use xlink:href="#m8a83b8a5fc" x="148.863438" y="261.339699" style="stroke: #000000; stroke-width: 0.8"/>
      </g>
     </g>
     <g id="text_2">
      <!-- Ashford -->
      <g transform="translate(119.239199 302.04085) rotate(-45) scale(0.12 -0.12)">
       <defs>
        <path id="TimesNewRomanPSMT-41" d="M 2928 1419 
L 1288 1419 
L 1000 750 
Q 894 503 894 381 
Q 894 284 986 211 
Q 1078 138 1384 116 
L 1384 0 
L 50 0 
L 50 116 
Q 316 163 394 238 
Q 553 388 747 847 
L 2238 4334 
L 2347 4334 
L 3822 809 
Q 4000 384 4145 257 
Q 4291 131 4550 116 
L 4550 0 
L 2878 0 
L 2878 116 
Q 3131 128 3220 200 
Q 3309 272 3309 375 
Q 3309 513 3184 809 
L 2928 1419 
z
M 2841 1650 
L 2122 3363 
L 1384 1650 
L 2841 1650 
z
" transform="scale(0.015625)"/>
        <path id="TimesNewRomanPSMT-73" d="M 2050 2947 
L 2050 1972 
L 1947 1972 
Q 1828 2431 1642 2597 
Q 1456 2763 1169 2763 
Q 950 2763 815 2647 
Q 681 2531 681 2391 
Q 681 2216 781 2091 
Q 878 1963 1175 1819 
L 1631 1597 
Q 2266 1288 2266 781 
Q 2266 391 1970 151 
Q 1675 -88 1309 -88 
Q 1047 -88 709 6 
Q 606 38 541 38 
Q 469 38 428 -44 
L 325 -44 
L 325 978 
L 428 978 
Q 516 541 762 319 
Q 1009 97 1316 97 
Q 1531 97 1667 223 
Q 1803 350 1803 528 
Q 1803 744 1651 891 
Q 1500 1038 1047 1263 
Q 594 1488 453 1669 
Q 313 1847 313 2119 
Q 313 2472 555 2709 
Q 797 2947 1181 2947 
Q 1350 2947 1591 2875 
Q 1750 2828 1803 2828 
Q 1853 2828 1881 2850 
Q 1909 2872 1947 2947 
L 2050 2947 
z
" transform="scale(0.015625)"/>
        <path id="TimesNewRomanPSMT-68" d="M 1041 4444 
L 1041 2350 
Q 1388 2731 1591 2839 
Q 1794 2947 1997 2947 
Q 2241 2947 2416 2812 
Q 2591 2678 2675 2391 
Q 2734 2191 2734 1659 
L 2734 647 
Q 2734 375 2778 275 
Q 2809 200 2884 156 
Q 2959 113 3159 113 
L 3159 0 
L 1753 0 
L 1753 113 
L 1819 113 
Q 2019 113 2097 173 
Q 2175 234 2206 353 
Q 2216 403 2216 647 
L 2216 1659 
Q 2216 2128 2167 2275 
Q 2119 2422 2012 2495 
Q 1906 2569 1756 2569 
Q 1603 2569 1437 2487 
Q 1272 2406 1041 2159 
L 1041 647 
Q 1041 353 1073 281 
Q 1106 209 1195 161 
Q 1284 113 1503 113 
L 1503 0 
L 84 0 
L 84 113 
Q 275 113 384 172 
Q 447 203 484 290 
Q 522 378 522 647 
L 522 3238 
Q 522 3728 498 3840 
Q 475 3953 426 3993 
Q 378 4034 297 4034 
Q 231 4034 84 3984 
L 41 4094 
L 897 4444 
L 1041 4444 
z
" transform="scale(0.015625)"/>
        <path id="TimesNewRomanPSMT-66" d="M 1319 2638 
L 1319 756 
Q 1319 356 1406 250 
Q 1522 113 1716 113 
L 1975 113 
L 1975 0 
L 266 0 
L 266 113 
L 394 113 
Q 519 113 622 175 
Q 725 238 764 344 
Q 803 450 803 756 
L 803 2638 
L 247 2638 
L 247 2863 
L 803 2863 
L 803 3050 
Q 803 3478 940 3775 
Q 1078 4072 1361 4255 
Q 1644 4438 1997 4438 
Q 2325 4438 2600 4225 
Q 2781 4084 2781 3909 
Q 2781 3816 2700 3733 
Q 2619 3650 2525 3650 
Q 2453 3650 2373 3701 
Q 2294 3753 2178 3923 
Q 2063 4094 1966 4153 
Q 1869 4213 1750 4213 
Q 1606 4213 1506 4136 
Q 1406 4059 1362 3898 
Q 1319 3738 1319 3069 
L 1319 2863 
L 2056 2863 
L 2056 2638 
L 1319 2638 
z
" transform="scale(0.015625)"/>
        <path id="TimesNewRomanPSMT-64" d="M 2222 322 
Q 2013 103 1813 7 
Q 1613 -88 1381 -88 
Q 913 -88 563 304 
Q 213 697 213 1313 
Q 213 1928 600 2439 
Q 988 2950 1597 2950 
Q 1975 2950 2222 2709 
L 2222 3238 
Q 2222 3728 2198 3840 
Q 2175 3953 2125 3993 
Q 2075 4034 2000 4034 
Q 1919 4034 1784 3984 
L 1744 4094 
L 2597 4444 
L 2738 4444 
L 2738 1134 
Q 2738 631 2761 520 
Q 2784 409 2836 365 
Q 2888 322 2956 322 
Q 3041 322 3181 375 
L 3216 266 
L 2366 -88 
L 2222 -88 
L 2222 322 
z
M 2222 541 
L 2222 2016 
Q 2203 2228 2109 2403 
Q 2016 2578 1861 2667 
Q 1706 2756 1559 2756 
Q 1284 2756 1069 2509 
Q 784 2184 784 1559 
Q 784 928 1059 592 
Q 1334 256 1672 256 
Q 1956 256 2222 541 
z
" transform="scale(0.015625)"/>
       </defs>
       <use xlink:href="#TimesNewRomanPSMT-41"/>
       <use xlink:href="#TimesNewRomanPSMT-73" x="72.216797"/>
       <use xlink:href="#TimesNewRomanPSMT-68" x="111.132812"/>
       <use xlink:href="#TimesNewRomanPSMT-66" x="161.132812"/>
       <use xlink:href="#TimesNewRomanPSMT-6f" x="194.433594"/>
       <use xlink:href="#TimesNewRomanPSMT-72" x="244.433594"/>
       <use xlink:href="#TimesNewRomanPSMT-64" x="277.734375"/>
      </g>
     </g>
    </g>
    <g id="xtick_3">
     <g id="line2d_3">
      <g>
       <use xlink:href="#m8a83b8a5fc" x="210.828438" y="261.339699" style="stroke: #000000; stroke-width: 0.8"/>
      </g>
     </g>
     <g id="text_3">
      <!-- Mapleton -->
      <g transform="translate(176.492216 306.752833) rotate(-45) scale(0.12 -0.12)">
       <defs>
        <path id="TimesNewRomanPSMT-4d" d="M 2619 0 
L 981 3566 
L 981 734 
Q 981 344 1066 247 
Q 1181 116 1431 116 
L 1581 116 
L 1581 0 
L 106 0 
L 106 116 
L 256 116 
Q 525 116 638 278 
Q 706 378 706 734 
L 706 3503 
Q 706 3784 644 3909 
Q 600 4000 483 4061 
Q 366 4122 106 4122 
L 106 4238 
L 1306 4238 
L 2844 922 
L 4356 4238 
L 5556 4238 
L 5556 4122 
L 5409 4122 
Q 5138 4122 5025 3959 
Q 4956 3859 4956 3503 
L 4956 734 
Q 4956 344 5044 247 
Q 5159 116 5409 116 
L 5556 116 
L 5556 0 
L 3756 0 
L 3756 116 
L 3906 116 
Q 4178 116 4288 278 
Q 4356 378 4356 734 
L 4356 3566 
L 2722 0 
L 2619 0 
z
" transform="scale(0.015625)"/>
        <path id="TimesNewRomanPSMT-61" d="M 1822 413 
Q 1381 72 1269 19 
Q 1100 -59 909 -59 
Q 613 -59 420 144 
Q 228 347 228 678 
Q 228 888 322 1041 
Q 450 1253 767 1440 
Q 1084 1628 1822 1897 
L 1822 2009 
Q 1822 2438 1686 2597 
Q 1550 2756 1291 2756 
Q 1094 2756 978 2650 
Q 859 2544 859 2406 
L 866 2225 
Q 866 2081 792 2003 
Q 719 1925 600 1925 
Q 484 1925 411 2006 
Q 338 2088 338 2228 
Q 338 2497 613 2722 
Q 888 2947 1384 2947 
Q 1766 2947 2009 2819 
Q 2194 2722 2281 2516 
Q 2338 2381 2338 1966 
L 2338 994 
Q 2338 584 2353 492 
Q 2369 400 2405 369 
Q 2441 338 2488 338 
Q 2538 338 2575 359 
Q 2641 400 2828 588 
L 2828 413 
Q 2478 -56 2159 -56 
Q 2006 -56 1915 50 
Q 1825 156 1822 413 
z
M 1822 616 
L 1822 1706 
Q 1350 1519 1213 1441 
Q 966 1303 859 1153 
Q 753 1003 753 825 
Q 753 600 887 451 
Q 1022 303 1197 303 
Q 1434 303 1822 616 
z
" transform="scale(0.015625)"/>
        <path id="TimesNewRomanPSMT-70" d="M -6 2578 
L 875 2934 
L 994 2934 
L 994 2266 
Q 1216 2644 1439 2795 
Q 1663 2947 1909 2947 
Q 2341 2947 2628 2609 
Q 2981 2197 2981 1534 
Q 2981 794 2556 309 
Q 2206 -88 1675 -88 
Q 1444 -88 1275 -22 
Q 1150 25 994 166 
L 994 -706 
Q 994 -1000 1030 -1079 
Q 1066 -1159 1155 -1206 
Q 1244 -1253 1478 -1253 
L 1478 -1369 
L -22 -1369 
L -22 -1253 
L 56 -1253 
Q 228 -1256 350 -1188 
Q 409 -1153 442 -1076 
Q 475 -1000 475 -688 
L 475 2019 
Q 475 2297 450 2372 
Q 425 2447 370 2484 
Q 316 2522 222 2522 
Q 147 2522 31 2478 
L -6 2578 
z
M 994 2081 
L 994 1013 
Q 994 666 1022 556 
Q 1066 375 1236 237 
Q 1406 100 1666 100 
Q 1978 100 2172 344 
Q 2425 663 2425 1241 
Q 2425 1897 2138 2250 
Q 1938 2494 1663 2494 
Q 1513 2494 1366 2419 
Q 1253 2363 994 2081 
z
" transform="scale(0.015625)"/>
        <path id="TimesNewRomanPSMT-6c" d="M 1184 4444 
L 1184 647 
Q 1184 378 1223 290 
Q 1263 203 1344 158 
Q 1425 113 1647 113 
L 1647 0 
L 244 0 
L 244 113 
Q 441 113 512 153 
Q 584 194 625 287 
Q 666 381 666 647 
L 666 3247 
Q 666 3731 644 3842 
Q 622 3953 573 3993 
Q 525 4034 450 4034 
Q 369 4034 244 3984 
L 191 4094 
L 1044 4444 
L 1184 4444 
z
" transform="scale(0.015625)"/>
        <path id="TimesNewRomanPSMT-65" d="M 681 1784 
Q 678 1147 991 784 
Q 1303 422 1725 422 
Q 2006 422 2214 576 
Q 2422 731 2563 1106 
L 2659 1044 
Q 2594 616 2278 264 
Q 1963 -88 1488 -88 
Q 972 -88 605 314 
Q 238 716 238 1394 
Q 238 2128 614 2539 
Q 991 2950 1559 2950 
Q 2041 2950 2350 2633 
Q 2659 2316 2659 1784 
L 681 1784 
z
M 681 1966 
L 2006 1966 
Q 1991 2241 1941 2353 
Q 1863 2528 1708 2628 
Q 1553 2728 1384 2728 
Q 1125 2728 920 2526 
Q 716 2325 681 1966 
z
" transform="scale(0.015625)"/>
       </defs>
       <use xlink:href="#TimesNewRomanPSMT-4d"/>
       <use xlink:href="#TimesNewRomanPSMT-61" x="88.916016"/>
       <use xlink:href="#TimesNewRomanPSMT-70" x="133.300781"/>
       <use xlink:href="#TimesNewRomanPSMT-6c" x="183.300781"/>
       <use xlink:href="#TimesNewRomanPSMT-65" x="211.083984"/>
       <use xlink:href="#TimesNewRomanPSMT-74" x="255.46875"/>
       <use xlink:href="#TimesNewRomanPSMT-6f" x="283.251953"/>
       <use xlink:href="#TimesNewRomanPSMT-6e" x="333.251953"/>
      </g>
     </g>
    </g>
    <g id="xtick_4">
     <g id="line2d_4">
      <g>
       <use xlink:href="#m8a83b8a5fc" x="272.793438" y="261.339699" style="stroke: #000000; stroke-width: 0.8"/>
      </g>
     </g>
     <g id="text_4">
      <!-- Creston -->
      <g transform="translate(244.581203 300.628846) rotate(-45) scale(0.12 -0.12)">
       <defs>
        <path id="TimesNewRomanPSMT-43" d="M 3853 4334 
L 3950 2894 
L 3853 2894 
Q 3659 3541 3300 3825 
Q 2941 4109 2438 4109 
Q 2016 4109 1675 3895 
Q 1334 3681 1139 3212 
Q 944 2744 944 2047 
Q 944 1472 1128 1050 
Q 1313 628 1683 403 
Q 2053 178 2528 178 
Q 2941 178 3256 354 
Q 3572 531 3950 1056 
L 4047 994 
Q 3728 428 3303 165 
Q 2878 -97 2294 -97 
Q 1241 -97 663 684 
Q 231 1266 231 2053 
Q 231 2688 515 3219 
Q 800 3750 1298 4042 
Q 1797 4334 2388 4334 
Q 2847 4334 3294 4109 
Q 3425 4041 3481 4041 
Q 3566 4041 3628 4100 
Q 3709 4184 3744 4334 
L 3853 4334 
z
" transform="scale(0.015625)"/>
       </defs>
       <use xlink:href="#TimesNewRomanPSMT-43"/>
       <use xlink:href="#TimesNewRomanPSMT-72" x="66.699219"/>
       <use xlink:href="#TimesNewRomanPSMT-65" x="100"/>
       <use xlink:href="#TimesNewRomanPSMT-73" x="144.384766"/>
       <use xlink:href="#TimesNewRomanPSMT-74" x="183.300781"/>
       <use xlink:href="#TimesNewRomanPSMT-6f" x="211.083984"/>
       <use xlink:href="#TimesNewRomanPSMT-6e" x="261.083984"/>
      </g>
     </g>
    </g>
    <g id="xtick_5">
     <g id="line2d_5">
      <g>
       <use xlink:href="#m8a83b8a5fc" x="334.758438" y="261.339699" style="stroke: #000000; stroke-width: 0.8"/>
      </g>
     </g>
     <g id="text_5">
      <!-- Glenhaven -->
      <g transform="translate(296.18753 310.987519) rotate(-45) scale(0.12 -0.12)">
       <defs>
        <path id="TimesNewRomanPSMT-47" d="M 3928 4334 
L 4038 2997 
L 3928 2997 
Q 3763 3497 3500 3750 
Q 3122 4116 2528 4116 
Q 1719 4116 1297 3475 
Q 944 2934 944 2188 
Q 944 1581 1178 1081 
Q 1413 581 1792 348 
Q 2172 116 2572 116 
Q 2806 116 3025 175 
Q 3244 234 3447 350 
L 3447 1575 
Q 3447 1894 3398 1992 
Q 3350 2091 3248 2142 
Q 3147 2194 2891 2194 
L 2891 2313 
L 4531 2313 
L 4531 2194 
L 4453 2194 
Q 4209 2194 4119 2031 
Q 4056 1916 4056 1575 
L 4056 278 
Q 3697 84 3347 -6 
Q 2997 -97 2569 -97 
Q 1341 -97 703 691 
Q 225 1281 225 2053 
Q 225 2613 494 3125 
Q 813 3734 1369 4063 
Q 1834 4334 2469 4334 
Q 2700 4334 2889 4296 
Q 3078 4259 3425 4131 
Q 3600 4066 3659 4066 
Q 3719 4066 3761 4120 
Q 3803 4175 3813 4334 
L 3928 4334 
z
" transform="scale(0.015625)"/>
        <path id="TimesNewRomanPSMT-76" d="M 53 2863 
L 1400 2863 
L 1400 2747 
L 1313 2747 
Q 1191 2747 1127 2687 
Q 1063 2628 1063 2528 
Q 1063 2419 1128 2269 
L 1794 688 
L 2463 2328 
Q 2534 2503 2534 2594 
Q 2534 2638 2509 2666 
Q 2475 2713 2422 2730 
Q 2369 2747 2206 2747 
L 2206 2863 
L 3141 2863 
L 3141 2747 
Q 2978 2734 2916 2681 
Q 2806 2588 2719 2369 
L 1703 -88 
L 1575 -88 
L 553 2328 
Q 484 2497 421 2570 
Q 359 2644 263 2694 
Q 209 2722 53 2747 
L 53 2863 
z
" transform="scale(0.015625)"/>
       </defs>
       <use xlink:href="#TimesNewRomanPSMT-47"/>
       <use xlink:href="#TimesNewRomanPSMT-6c" x="72.216797"/>
       <use xlink:href="#TimesNewRomanPSMT-65" x="100"/>
       <use xlink:href="#TimesNewRomanPSMT-6e" x="144.384766"/>
       <use xlink:href="#TimesNewRomanPSMT-68" x="194.384766"/>
       <use xlink:href="#TimesNewRomanPSMT-61" x="244.384766"/>
       <use xlink:href="#TimesNewRomanPSMT-76" x="288.769531"/>
       <use xlink:href="#TimesNewRomanPSMT-65" x="338.769531"/>
       <use xlink:href="#TimesNewRomanPSMT-6e" x="383.154297"/>
      </g>
     </g>
    </g>
    <g id="xtick_6">
     <g id="line2d_6">
      <g>
       <use xlink:href="#m8a83b8a5fc" x="396.723438" y="261.339699" style="stroke: #000000; stroke-width: 0.8"/>
      </g>
     </g>
     <g id="text_6">
      <!-- Rosewood -->
      <g transform="translate(359.080608 310.059441) rotate(-45) scale(0.12 -0.12)">
       <defs>
        <path id="TimesNewRomanPSMT-52" d="M 4325 0 
L 3194 0 
L 1759 1981 
Q 1600 1975 1500 1975 
Q 1459 1975 1412 1976 
Q 1366 1978 1316 1981 
L 1316 750 
Q 1316 350 1403 253 
Q 1522 116 1759 116 
L 1925 116 
L 1925 0 
L 109 0 
L 109 116 
L 269 116 
Q 538 116 653 291 
Q 719 388 719 750 
L 719 3488 
Q 719 3888 631 3984 
Q 509 4122 269 4122 
L 109 4122 
L 109 4238 
L 1653 4238 
Q 2328 4238 2648 4139 
Q 2969 4041 3192 3777 
Q 3416 3513 3416 3147 
Q 3416 2756 3161 2468 
Q 2906 2181 2372 2063 
L 3247 847 
Q 3547 428 3762 290 
Q 3978 153 4325 116 
L 4325 0 
z
M 1316 2178 
Q 1375 2178 1419 2176 
Q 1463 2175 1491 2175 
Q 2097 2175 2405 2437 
Q 2713 2700 2713 3106 
Q 2713 3503 2464 3751 
Q 2216 4000 1806 4000 
Q 1625 4000 1316 3941 
L 1316 2178 
z
" transform="scale(0.015625)"/>
        <path id="TimesNewRomanPSMT-77" d="M 41 2863 
L 1241 2863 
L 1241 2747 
Q 1075 2734 1023 2687 
Q 972 2641 972 2553 
Q 972 2456 1025 2319 
L 1638 672 
L 2253 2013 
L 2091 2434 
Q 2016 2622 1894 2694 
Q 1825 2738 1638 2747 
L 1638 2863 
L 3000 2863 
L 3000 2747 
Q 2775 2738 2681 2666 
Q 2619 2616 2619 2506 
Q 2619 2444 2644 2378 
L 3294 734 
L 3897 2319 
Q 3959 2488 3959 2588 
Q 3959 2647 3898 2694 
Q 3838 2741 3659 2747 
L 3659 2863 
L 4563 2863 
L 4563 2747 
Q 4291 2706 4163 2378 
L 3206 -88 
L 3078 -88 
L 2363 1741 
L 1528 -88 
L 1413 -88 
L 494 2319 
Q 403 2547 315 2626 
Q 228 2706 41 2747 
L 41 2863 
z
" transform="scale(0.015625)"/>
       </defs>
       <use xlink:href="#TimesNewRomanPSMT-52"/>
       <use xlink:href="#TimesNewRomanPSMT-6f" x="66.699219"/>
       <use xlink:href="#TimesNewRomanPSMT-73" x="116.699219"/>
       <use xlink:href="#TimesNewRomanPSMT-65" x="155.615234"/>
       <use xlink:href="#TimesNewRomanPSMT-77" x="200"/>
       <use xlink:href="#TimesNewRomanPSMT-6f" x="272.216797"/>
       <use xlink:href="#TimesNewRomanPSMT-6f" x="322.216797"/>
       <use xlink:href="#TimesNewRomanPSMT-64" x="372.216797"/>
      </g>
     </g>
    </g>
   </g>
   <g id="matplotlib.axis_2">
    <g id="ytick_1">
     <g id="line2d_7">
      <defs>
       <path id="mce780be8d8" d="M 0 0 
L -3.5 0 
" style="stroke: #000000; stroke-width: 0.8"/>
      </defs>
      <g>
       <use xlink:href="#mce780be8d8" x="55.915938" y="221.27991" style="stroke: #000000; stroke-width: 0.8"/>
      </g>
     </g>
     <g id="text_7">
      <!-- 30000 -->
      <g transform="translate(23.915938 224.751785) scale(0.1 -0.1)">
       <defs>
        <path id="TimesNewRomanPSMT-33" d="M 325 3431 
Q 506 3859 782 4092 
Q 1059 4325 1472 4325 
Q 1981 4325 2253 3994 
Q 2459 3747 2459 3466 
Q 2459 3003 1878 2509 
Q 2269 2356 2469 2072 
Q 2669 1788 2669 1403 
Q 2669 853 2319 450 
Q 1863 -75 997 -75 
Q 569 -75 414 31 
Q 259 138 259 259 
Q 259 350 332 419 
Q 406 488 509 488 
Q 588 488 669 463 
Q 722 447 909 348 
Q 1097 250 1169 231 
Q 1284 197 1416 197 
Q 1734 197 1970 444 
Q 2206 691 2206 1028 
Q 2206 1275 2097 1509 
Q 2016 1684 1919 1775 
Q 1784 1900 1550 2001 
Q 1316 2103 1072 2103 
L 972 2103 
L 972 2197 
Q 1219 2228 1467 2375 
Q 1716 2522 1828 2728 
Q 1941 2934 1941 3181 
Q 1941 3503 1739 3701 
Q 1538 3900 1238 3900 
Q 753 3900 428 3381 
L 325 3431 
z
" transform="scale(0.015625)"/>
        <path id="TimesNewRomanPSMT-30" d="M 231 2094 
Q 231 2819 450 3342 
Q 669 3866 1031 4122 
Q 1313 4325 1613 4325 
Q 2100 4325 2488 3828 
Q 2972 3213 2972 2159 
Q 2972 1422 2759 906 
Q 2547 391 2217 158 
Q 1888 -75 1581 -75 
Q 975 -75 572 641 
Q 231 1244 231 2094 
z
M 844 2016 
Q 844 1141 1059 588 
Q 1238 122 1591 122 
Q 1759 122 1940 273 
Q 2122 425 2216 781 
Q 2359 1319 2359 2297 
Q 2359 3022 2209 3506 
Q 2097 3866 1919 4016 
Q 1791 4119 1609 4119 
Q 1397 4119 1231 3928 
Q 1006 3669 925 3112 
Q 844 2556 844 2016 
z
" transform="scale(0.015625)"/>
       </defs>
       <use xlink:href="#TimesNewRomanPSMT-33"/>
       <use xlink:href="#TimesNewRomanPSMT-30" x="50"/>
       <use xlink:href="#TimesNewRomanPSMT-30" x="100"/>
       <use xlink:href="#TimesNewRomanPSMT-30" x="150"/>
       <use xlink:href="#TimesNewRomanPSMT-30" x="200"/>
      </g>
     </g>
    </g>
    <g id="ytick_2">
     <g id="line2d_8">
      <g>
       <use xlink:href="#mce780be8d8" x="55.915938" y="179.238941" style="stroke: #000000; stroke-width: 0.8"/>
      </g>
     </g>
     <g id="text_8">
      <!-- 40000 -->
      <g transform="translate(23.915938 182.710816) scale(0.1 -0.1)">
       <defs>
        <path id="TimesNewRomanPSMT-34" d="M 2978 1563 
L 2978 1119 
L 2409 1119 
L 2409 0 
L 1894 0 
L 1894 1119 
L 100 1119 
L 100 1519 
L 2066 4325 
L 2409 4325 
L 2409 1563 
L 2978 1563 
z
M 1894 1563 
L 1894 3666 
L 406 1563 
L 1894 1563 
z
" transform="scale(0.015625)"/>
       </defs>
       <use xlink:href="#TimesNewRomanPSMT-34"/>
       <use xlink:href="#TimesNewRomanPSMT-30" x="50"/>
       <use xlink:href="#TimesNewRomanPSMT-30" x="100"/>
       <use xlink:href="#TimesNewRomanPSMT-30" x="150"/>
       <use xlink:href="#TimesNewRomanPSMT-30" x="200"/>
      </g>
     </g>
    </g>
    <g id="ytick_3">
     <g id="line2d_9">
      <g>
       <use xlink:href="#mce780be8d8" x="55.915938" y="137.197972" style="stroke: #000000; stroke-width: 0.8"/>
      </g>
     </g>
     <g id="text_9">
      <!-- 50000 -->
      <g transform="translate(23.915938 140.669847) scale(0.1 -0.1)">
       <defs>
        <path id="TimesNewRomanPSMT-35" d="M 2778 4238 
L 2534 3706 
L 1259 3706 
L 981 3138 
Q 1809 3016 2294 2522 
Q 2709 2097 2709 1522 
Q 2709 1188 2573 903 
Q 2438 619 2231 419 
Q 2025 219 1772 97 
Q 1413 -75 1034 -75 
Q 653 -75 479 54 
Q 306 184 306 341 
Q 306 428 378 495 
Q 450 563 559 563 
Q 641 563 702 538 
Q 763 513 909 409 
Q 1144 247 1384 247 
Q 1750 247 2026 523 
Q 2303 800 2303 1197 
Q 2303 1581 2056 1914 
Q 1809 2247 1375 2428 
Q 1034 2569 447 2591 
L 1259 4238 
L 2778 4238 
z
" transform="scale(0.015625)"/>
       </defs>
       <use xlink:href="#TimesNewRomanPSMT-35"/>
       <use xlink:href="#TimesNewRomanPSMT-30" x="50"/>
       <use xlink:href="#TimesNewRomanPSMT-30" x="100"/>
       <use xlink:href="#TimesNewRomanPSMT-30" x="150"/>
       <use xlink:href="#TimesNewRomanPSMT-30" x="200"/>
      </g>
     </g>
    </g>
    <g id="ytick_4">
     <g id="line2d_10">
      <g>
       <use xlink:href="#mce780be8d8" x="55.915938" y="95.157002" style="stroke: #000000; stroke-width: 0.8"/>
      </g>
     </g>
     <g id="text_10">
      <!-- 60000 -->
      <g transform="translate(23.915938 98.628877) scale(0.1 -0.1)">
       <defs>
        <path id="TimesNewRomanPSMT-36" d="M 2869 4325 
L 2869 4209 
Q 2456 4169 2195 4045 
Q 1934 3922 1679 3669 
Q 1425 3416 1258 3105 
Q 1091 2794 978 2366 
Q 1428 2675 1881 2675 
Q 2316 2675 2634 2325 
Q 2953 1975 2953 1425 
Q 2953 894 2631 456 
Q 2244 -75 1606 -75 
Q 1172 -75 869 213 
Q 275 772 275 1663 
Q 275 2231 503 2743 
Q 731 3256 1154 3653 
Q 1578 4050 1965 4187 
Q 2353 4325 2688 4325 
L 2869 4325 
z
M 925 2138 
Q 869 1716 869 1456 
Q 869 1156 980 804 
Q 1091 453 1309 247 
Q 1469 100 1697 100 
Q 1969 100 2183 356 
Q 2397 613 2397 1088 
Q 2397 1622 2184 2012 
Q 1972 2403 1581 2403 
Q 1463 2403 1327 2353 
Q 1191 2303 925 2138 
z
" transform="scale(0.015625)"/>
       </defs>
       <use xlink:href="#TimesNewRomanPSMT-36"/>
       <use xlink:href="#TimesNewRomanPSMT-30" x="50"/>
       <use xlink:href="#TimesNewRomanPSMT-30" x="100"/>
       <use xlink:href="#TimesNewRomanPSMT-30" x="150"/>
       <use xlink:href="#TimesNewRomanPSMT-30" x="200"/>
      </g>
     </g>
    </g>
    <g id="ytick_5">
     <g id="line2d_11">
      <g>
       <use xlink:href="#mce780be8d8" x="55.915938" y="53.116033" style="stroke: #000000; stroke-width: 0.8"/>
      </g>
     </g>
     <g id="text_11">
      <!-- 70000 -->
      <g transform="translate(23.915938 56.587908) scale(0.1 -0.1)">
       <defs>
        <path id="TimesNewRomanPSMT-37" d="M 644 4238 
L 2916 4238 
L 2916 4119 
L 1503 -88 
L 1153 -88 
L 2419 3728 
L 1253 3728 
Q 900 3728 750 3644 
Q 488 3500 328 3200 
L 238 3234 
L 644 4238 
z
" transform="scale(0.015625)"/>
       </defs>
       <use xlink:href="#TimesNewRomanPSMT-37"/>
       <use xlink:href="#TimesNewRomanPSMT-30" x="50"/>
       <use xlink:href="#TimesNewRomanPSMT-30" x="100"/>
       <use xlink:href="#TimesNewRomanPSMT-30" x="150"/>
       <use xlink:href="#TimesNewRomanPSMT-30" x="200"/>
      </g>
     </g>
    </g>
    <g id="text_12">
     <!-- tons -->
     <g transform="translate(16.92125 157.361568) rotate(-90) scale(0.14 -0.14)">
      <use xlink:href="#TimesNewRomanPSMT-74"/>
      <use xlink:href="#TimesNewRomanPSMT-6f" x="27.783203"/>
      <use xlink:href="#TimesNewRomanPSMT-6e" x="77.783203"/>
      <use xlink:href="#TimesNewRomanPSMT-73" x="127.783203"/>
     </g>
    </g>
   </g>
   <g id="patch_3">
    <path d="M 83.800188 169.976265 
L 89.996688 169.976265 
L 89.996688 119.576499 
L 83.800188 119.576499 
L 83.800188 169.976265 
L 83.800188 169.976265 
z
" clip-path="url(#p2dd00c7a0a)" style="fill: none; stroke: #000000; stroke-linejoin: miter"/>
   </g>
   <g id="line2d_12">
    <path d="M 86.898438 169.976265 
L 86.898438 225.072006 
" clip-path="url(#p2dd00c7a0a)" style="fill: none; stroke: #000000; stroke-linecap: square"/>
   </g>
   <g id="line2d_13">
    <path d="M 86.898438 119.576499 
L 86.898438 44.23698 
" clip-path="url(#p2dd00c7a0a)" style="fill: none; stroke: #000000; stroke-linecap: square"/>
   </g>
   <g id="line2d_14">
    <path d="M 85.349313 225.072006 
L 88.447563 225.072006 
" clip-path="url(#p2dd00c7a0a)" style="fill: none; stroke: #000000; stroke-linecap: square"/>
   </g>
   <g id="line2d_15">
    <path d="M 85.349313 44.23698 
L 88.447563 44.23698 
" clip-path="url(#p2dd00c7a0a)" style="fill: none; stroke: #000000; stroke-linecap: square"/>
   </g>
   <g id="patch_4">
    <path d="M 145.765188 180.56113 
L 151.961688 180.56113 
L 151.961688 139.399868 
L 145.765188 139.399868 
L 145.765188 180.56113 
L 145.765188 180.56113 
z
" clip-path="url(#p2dd00c7a0a)" style="fill: none; stroke: #000000; stroke-linejoin: miter"/>
   </g>
   <g id="line2d_16">
    <path d="M 148.863438 180.56113 
L 148.863438 231.731295 
" clip-path="url(#p2dd00c7a0a)" style="fill: none; stroke: #000000; stroke-linecap: square"/>
   </g>
   <g id="line2d_17">
    <path d="M 148.863438 139.399868 
L 148.863438 86.341011 
" clip-path="url(#p2dd00c7a0a)" style="fill: none; stroke: #000000; stroke-linecap: square"/>
   </g>
   <g id="line2d_18">
    <path d="M 147.314313 231.731295 
L 150.412563 231.731295 
" clip-path="url(#p2dd00c7a0a)" style="fill: none; stroke: #000000; stroke-linecap: square"/>
   </g>
   <g id="line2d_19">
    <path d="M 147.314313 86.341011 
L 150.412563 86.341011 
" clip-path="url(#p2dd00c7a0a)" style="fill: none; stroke: #000000; stroke-linecap: square"/>
   </g>
   <g id="patch_5">
    <path d="M 207.730188 159.844391 
L 213.926688 159.844391 
L 213.926688 115.221055 
L 207.730188 115.221055 
L 207.730188 159.844391 
L 207.730188 159.844391 
z
" clip-path="url(#p2dd00c7a0a)" style="fill: none; stroke: #000000; stroke-linejoin: miter"/>
   </g>
   <g id="line2d_20">
    <path d="M 210.828438 159.844391 
L 210.828438 213.691516 
" clip-path="url(#p2dd00c7a0a)" style="fill: none; stroke: #000000; stroke-linecap: square"/>
   </g>
   <g id="line2d_21">
    <path d="M 210.828438 115.221055 
L 210.828438 75.153909 
" clip-path="url(#p2dd00c7a0a)" style="fill: none; stroke: #000000; stroke-linecap: square"/>
   </g>
   <g id="line2d_22">
    <path d="M 209.279313 213.691516 
L 212.377563 213.691516 
" clip-path="url(#p2dd00c7a0a)" style="fill: none; stroke: #000000; stroke-linecap: square"/>
   </g>
   <g id="line2d_23">
    <path d="M 209.279313 75.153909 
L 212.377563 75.153909 
" clip-path="url(#p2dd00c7a0a)" style="fill: none; stroke: #000000; stroke-linecap: square"/>
   </g>
   <g id="patch_6">
    <path d="M 269.695188 164.85147 
L 275.891688 164.85147 
L 275.891688 119.256988 
L 269.695188 119.256988 
L 269.695188 164.85147 
L 269.695188 164.85147 
z
" clip-path="url(#p2dd00c7a0a)" style="fill: none; stroke: #000000; stroke-linejoin: miter"/>
   </g>
   <g id="line2d_24">
    <path d="M 272.793438 164.85147 
L 272.793438 216.600751 
" clip-path="url(#p2dd00c7a0a)" style="fill: none; stroke: #000000; stroke-linecap: square"/>
   </g>
   <g id="line2d_25">
    <path d="M 272.793438 119.256988 
L 272.793438 52.392928 
" clip-path="url(#p2dd00c7a0a)" style="fill: none; stroke: #000000; stroke-linecap: square"/>
   </g>
   <g id="line2d_26">
    <path d="M 271.244313 216.600751 
L 274.342563 216.600751 
" clip-path="url(#p2dd00c7a0a)" style="fill: none; stroke: #000000; stroke-linecap: square"/>
   </g>
   <g id="line2d_27">
    <path d="M 271.244313 52.392928 
L 274.342563 52.392928 
" clip-path="url(#p2dd00c7a0a)" style="fill: none; stroke: #000000; stroke-linecap: square"/>
   </g>
   <g id="patch_7">
    <path d="M 331.660188 178.293019 
L 337.856688 178.293019 
L 337.856688 129.62324 
L 331.660188 129.62324 
L 331.660188 178.293019 
L 331.660188 178.293019 
z
" clip-path="url(#p2dd00c7a0a)" style="fill: none; stroke: #000000; stroke-linejoin: miter"/>
   </g>
   <g id="line2d_28">
    <path d="M 334.758438 178.293019 
L 334.758438 250.826304 
" clip-path="url(#p2dd00c7a0a)" style="fill: none; stroke: #000000; stroke-linecap: square"/>
   </g>
   <g id="line2d_29">
    <path d="M 334.758438 129.62324 
L 334.758438 71.10116 
" clip-path="url(#p2dd00c7a0a)" style="fill: none; stroke: #000000; stroke-linecap: square"/>
   </g>
   <g id="line2d_30">
    <path d="M 333.209313 250.826304 
L 336.307563 250.826304 
" clip-path="url(#p2dd00c7a0a)" style="fill: none; stroke: #000000; stroke-linecap: square"/>
   </g>
   <g id="line2d_31">
    <path d="M 333.209313 71.10116 
L 336.307563 71.10116 
" clip-path="url(#p2dd00c7a0a)" style="fill: none; stroke: #000000; stroke-linecap: square"/>
   </g>
   <g id="patch_8">
    <path d="M 393.625188 175.607652 
L 399.821688 175.607652 
L 399.821688 134.734371 
L 393.625188 134.734371 
L 393.625188 175.607652 
L 393.625188 175.607652 
z
" clip-path="url(#p2dd00c7a0a)" style="fill: none; stroke: #000000; stroke-linejoin: miter"/>
   </g>
   <g id="line2d_32">
    <path d="M 396.723438 175.607652 
L 396.723438 213.468698 
" clip-path="url(#p2dd00c7a0a)" style="fill: none; stroke: #000000; stroke-linecap: square"/>
   </g>
   <g id="line2d_33">
    <path d="M 396.723438 134.734371 
L 396.723438 89.948126 
" clip-path="url(#p2dd00c7a0a)" style="fill: none; stroke: #000000; stroke-linecap: square"/>
   </g>
   <g id="line2d_34">
    <path d="M 395.174313 213.468698 
L 398.272563 213.468698 
" clip-path="url(#p2dd00c7a0a)" style="fill: none; stroke: #000000; stroke-linecap: square"/>
   </g>
   <g id="line2d_35">
    <path d="M 395.174313 89.948126 
L 398.272563 89.948126 
" clip-path="url(#p2dd00c7a0a)" style="fill: none; stroke: #000000; stroke-linecap: square"/>
   </g>
   <g id="line2d_36">
    <path d="M 83.800188 148.847524 
L 89.996688 148.847524 
" clip-path="url(#p2dd00c7a0a)" style="fill: none; stroke: #000000; stroke-width: 1.5; stroke-linecap: square"/>
   </g>
   <g id="line2d_37">
    <path d="M 145.765188 162.054695 
L 151.961688 162.054695 
" clip-path="url(#p2dd00c7a0a)" style="fill: none; stroke: #000000; stroke-width: 1.5; stroke-linecap: square"/>
   </g>
   <g id="line2d_38">
    <path d="M 207.730188 136.167968 
L 213.926688 136.167968 
" clip-path="url(#p2dd00c7a0a)" style="fill: none; stroke: #000000; stroke-width: 1.5; stroke-linecap: square"/>
   </g>
   <g id="line2d_39">
    <path d="M 269.695188 142.537175 
L 275.891688 142.537175 
" clip-path="url(#p2dd00c7a0a)" style="fill: none; stroke: #000000; stroke-width: 1.5; stroke-linecap: square"/>
   </g>
   <g id="line2d_40">
    <path d="M 331.660188 155.899897 
L 337.856688 155.899897 
" clip-path="url(#p2dd00c7a0a)" style="fill: none; stroke: #000000; stroke-width: 1.5; stroke-linecap: square"/>
   </g>
   <g id="line2d_41">
    <path d="M 393.625188 155.075894 
L 399.821688 155.075894 
" clip-path="url(#p2dd00c7a0a)" style="fill: none; stroke: #000000; stroke-width: 1.5; stroke-linecap: square"/>
   </g>
   <g id="patch_9">
    <path d="M 55.915938 261.339699 
L 55.915938 30.045 
" style="fill: none; stroke: #000000; stroke-linejoin: miter; stroke-linecap: square"/>
   </g>
   <g id="patch_10">
    <path d="M 427.705938 261.339699 
L 427.705938 30.045 
" style="fill: none; stroke: #000000; stroke-linejoin: miter; stroke-linecap: square"/>
   </g>
   <g id="patch_11">
    <path d="M 55.915938 261.339699 
L 427.705938 261.339699 
" style="fill: none; stroke: #000000; stroke-linejoin: miter; stroke-linecap: square"/>
   </g>
   <g id="patch_12">
    <path d="M 55.915938 30.045 
L 427.705938 30.045 
" style="fill: none; stroke: #000000; stroke-linejoin: miter; stroke-linecap: square"/>
   </g>
   <g id="text_13">
    <!-- Data on the volume of fruit transportation in cities (tons) -->
    <g transform="translate(47.830938 18.045) scale(0.16 -0.16)">
     <defs>
      <path id="TimesNewRomanPS-BoldMT-44" d="M 84 0 
L 84 116 
L 225 116 
Q 409 116 507 173 
Q 606 231 653 331 
Q 681 397 681 725 
L 681 3513 
Q 681 3838 647 3919 
Q 613 4000 508 4061 
Q 403 4122 225 4122 
L 84 4122 
L 84 4238 
L 1981 4238 
Q 2741 4238 3203 4031 
Q 3769 3778 4061 3265 
Q 4353 2753 4353 2106 
Q 4353 1659 4209 1282 
Q 4066 906 3837 661 
Q 3609 416 3311 267 
Q 3013 119 2581 38 
Q 2391 0 1981 0 
L 84 0 
z
M 1700 3997 
L 1700 691 
Q 1700 428 1725 368 
Q 1750 309 1809 278 
Q 1894 231 2053 231 
Q 2575 231 2850 588 
Q 3225 1069 3225 2081 
Q 3225 2897 2969 3384 
Q 2766 3766 2447 3903 
Q 2222 4000 1700 3997 
z
" transform="scale(0.015625)"/>
      <path id="TimesNewRomanPS-BoldMT-61" d="M 1828 431 
Q 1294 -41 869 -41 
Q 619 -41 453 123 
Q 288 288 288 534 
Q 288 869 575 1136 
Q 863 1403 1828 1847 
L 1828 2141 
Q 1828 2472 1792 2558 
Q 1756 2644 1656 2708 
Q 1556 2772 1431 2772 
Q 1228 2772 1097 2681 
Q 1016 2625 1016 2550 
Q 1016 2484 1103 2388 
Q 1222 2253 1222 2128 
Q 1222 1975 1108 1867 
Q 994 1759 809 1759 
Q 613 1759 480 1878 
Q 347 1997 347 2156 
Q 347 2381 525 2586 
Q 703 2791 1022 2900 
Q 1341 3009 1684 3009 
Q 2100 3009 2342 2832 
Q 2584 2656 2656 2450 
Q 2700 2319 2700 1847 
L 2700 713 
Q 2700 513 2715 461 
Q 2731 409 2762 384 
Q 2794 359 2834 359 
Q 2916 359 3000 475 
L 3094 400 
Q 2938 169 2770 64 
Q 2603 -41 2391 -41 
Q 2141 -41 2000 76 
Q 1859 194 1828 431 
z
M 1828 659 
L 1828 1638 
Q 1450 1416 1266 1163 
Q 1144 994 1144 822 
Q 1144 678 1247 569 
Q 1325 484 1466 484 
Q 1622 484 1828 659 
z
" transform="scale(0.015625)"/>
      <path id="TimesNewRomanPS-BoldMT-74" d="M 1375 3991 
L 1375 2922 
L 2069 2922 
L 2069 2613 
L 1375 2613 
L 1375 809 
Q 1375 556 1398 482 
Q 1422 409 1481 364 
Q 1541 319 1591 319 
Q 1794 319 1975 628 
L 2069 559 
Q 1816 -41 1247 -41 
Q 969 -41 776 114 
Q 584 269 531 459 
Q 500 566 500 1034 
L 500 2613 
L 119 2613 
L 119 2722 
Q 513 3000 789 3306 
Q 1066 3613 1272 3991 
L 1375 3991 
z
" transform="scale(0.015625)"/>
      <path id="TimesNewRomanPS-BoldMT-20" transform="scale(0.015625)"/>
      <path id="TimesNewRomanPS-BoldMT-6f" d="M 1594 3009 
Q 1975 3009 2303 2812 
Q 2631 2616 2801 2253 
Q 2972 1891 2972 1459 
Q 2972 838 2656 419 
Q 2275 -88 1603 -88 
Q 944 -88 587 375 
Q 231 838 231 1447 
Q 231 2075 595 2542 
Q 959 3009 1594 3009 
z
M 1606 2788 
Q 1447 2788 1333 2667 
Q 1219 2547 1183 2192 
Q 1147 1838 1147 1206 
Q 1147 872 1191 581 
Q 1225 359 1337 243 
Q 1450 128 1594 128 
Q 1734 128 1828 206 
Q 1950 313 1991 503 
Q 2053 800 2053 1703 
Q 2053 2234 1993 2432 
Q 1934 2631 1819 2722 
Q 1738 2788 1606 2788 
z
" transform="scale(0.015625)"/>
      <path id="TimesNewRomanPS-BoldMT-6e" d="M 1409 2922 
L 1409 2544 
Q 1634 2788 1840 2898 
Q 2047 3009 2284 3009 
Q 2569 3009 2756 2851 
Q 2944 2694 3006 2459 
Q 3056 2281 3056 1775 
L 3056 638 
Q 3056 300 3117 217 
Q 3178 134 3372 113 
L 3372 0 
L 1894 0 
L 1894 113 
Q 2059 134 2131 250 
Q 2181 328 2181 638 
L 2181 1938 
Q 2181 2297 2153 2390 
Q 2125 2484 2058 2536 
Q 1991 2588 1909 2588 
Q 1641 2588 1409 2203 
L 1409 638 
Q 1409 309 1470 221 
Q 1531 134 1697 113 
L 1697 0 
L 219 0 
L 219 113 
Q 403 131 481 231 
Q 534 300 534 638 
L 534 2288 
Q 534 2619 473 2700 
Q 413 2781 219 2806 
L 219 2922 
L 1409 2922 
z
" transform="scale(0.015625)"/>
      <path id="TimesNewRomanPS-BoldMT-68" d="M 1409 4238 
L 1409 2547 
Q 1650 2800 1850 2904 
Q 2050 3009 2266 3009 
Q 2541 3009 2736 2853 
Q 2931 2697 2995 2486 
Q 3059 2275 3059 1775 
L 3059 634 
Q 3059 300 3121 217 
Q 3184 134 3375 113 
L 3375 0 
L 1894 0 
L 1894 113 
Q 2050 134 2128 238 
Q 2184 319 2184 634 
L 2184 1938 
Q 2184 2300 2156 2392 
Q 2128 2484 2061 2536 
Q 1994 2588 1909 2588 
Q 1784 2588 1665 2502 
Q 1547 2416 1409 2200 
L 1409 634 
Q 1409 322 1456 244 
Q 1516 138 1700 113 
L 1700 0 
L 219 0 
L 219 113 
Q 403 131 481 231 
Q 534 300 534 634 
L 534 3603 
Q 534 3934 473 4015 
Q 413 4097 219 4122 
L 219 4238 
L 1409 4238 
z
" transform="scale(0.015625)"/>
      <path id="TimesNewRomanPS-BoldMT-65" d="M 2691 1566 
L 1088 1566 
Q 1116 984 1397 647 
Q 1613 388 1916 388 
Q 2103 388 2256 492 
Q 2409 597 2584 869 
L 2691 800 
Q 2453 316 2165 114 
Q 1878 -88 1500 -88 
Q 850 -88 516 413 
Q 247 816 247 1413 
Q 247 2144 642 2576 
Q 1038 3009 1569 3009 
Q 2013 3009 2339 2645 
Q 2666 2281 2691 1566 
z
M 1922 1775 
Q 1922 2278 1867 2465 
Q 1813 2653 1697 2750 
Q 1631 2806 1522 2806 
Q 1359 2806 1256 2647 
Q 1072 2369 1072 1884 
L 1072 1775 
L 1922 1775 
z
" transform="scale(0.015625)"/>
      <path id="TimesNewRomanPS-BoldMT-76" d="M 1534 -88 
L 550 2178 
Q 372 2588 272 2697 
Q 200 2778 59 2806 
L 59 2922 
L 1613 2922 
L 1613 2806 
Q 1466 2806 1413 2753 
Q 1338 2684 1338 2591 
Q 1338 2475 1475 2156 
L 1956 1059 
L 2341 2006 
Q 2506 2413 2506 2581 
Q 2506 2678 2436 2739 
Q 2366 2800 2188 2806 
L 2188 2922 
L 3144 2922 
L 3144 2806 
Q 3006 2788 2918 2703 
Q 2831 2619 2656 2206 
L 1681 -88 
L 1534 -88 
z
" transform="scale(0.015625)"/>
      <path id="TimesNewRomanPS-BoldMT-6c" d="M 1359 4238 
L 1359 606 
Q 1359 297 1431 211 
Q 1503 125 1713 113 
L 1713 0 
L 134 0 
L 134 113 
Q 328 119 422 225 
Q 484 297 484 606 
L 484 3631 
Q 484 3938 412 4023 
Q 341 4109 134 4122 
L 134 4238 
L 1359 4238 
z
" transform="scale(0.015625)"/>
      <path id="TimesNewRomanPS-BoldMT-75" d="M 3038 2922 
L 3038 634 
Q 3038 300 3100 217 
Q 3163 134 3353 113 
L 3353 0 
L 2163 0 
L 2163 391 
Q 1953 141 1743 26 
Q 1534 -88 1275 -88 
Q 1028 -88 836 64 
Q 644 216 578 419 
Q 513 622 513 1128 
L 513 2288 
Q 513 2619 452 2700 
Q 391 2781 197 2806 
L 197 2922 
L 1388 2922 
L 1388 925 
Q 1388 613 1417 522 
Q 1447 431 1511 384 
Q 1575 338 1659 338 
Q 1772 338 1863 397 
Q 1988 478 2163 725 
L 2163 2288 
Q 2163 2619 2102 2700 
Q 2041 2781 1847 2806 
L 1847 2922 
L 3038 2922 
z
" transform="scale(0.015625)"/>
      <path id="TimesNewRomanPS-BoldMT-6d" d="M 1428 2922 
L 1428 2538 
Q 1669 2800 1873 2904 
Q 2078 3009 2322 3009 
Q 2603 3009 2793 2878 
Q 2984 2747 3088 2478 
Q 3338 2759 3567 2884 
Q 3797 3009 4047 3009 
Q 4350 3009 4529 2870 
Q 4709 2731 4779 2517 
Q 4850 2303 4850 1834 
L 4850 638 
Q 4850 300 4911 219 
Q 4972 138 5166 113 
L 5166 0 
L 3656 0 
L 3656 113 
Q 3834 128 3919 250 
Q 3975 334 3975 638 
L 3975 1894 
Q 3975 2284 3944 2390 
Q 3913 2497 3845 2548 
Q 3778 2600 3688 2600 
Q 3553 2600 3415 2501 
Q 3278 2403 3138 2206 
L 3138 638 
Q 3138 322 3191 241 
Q 3263 125 3466 113 
L 3466 0 
L 1953 0 
L 1953 113 
Q 2075 119 2145 173 
Q 2216 228 2239 304 
Q 2263 381 2263 638 
L 2263 1894 
Q 2263 2291 2231 2391 
Q 2200 2491 2126 2547 
Q 2053 2603 1969 2603 
Q 1844 2603 1741 2538 
Q 1594 2441 1428 2206 
L 1428 638 
Q 1428 328 1489 229 
Q 1550 131 1744 113 
L 1744 0 
L 238 0 
L 238 113 
Q 422 131 500 231 
Q 553 300 553 638 
L 553 2288 
Q 553 2619 492 2700 
Q 431 2781 238 2806 
L 238 2922 
L 1428 2922 
z
" transform="scale(0.015625)"/>
      <path id="TimesNewRomanPS-BoldMT-66" d="M 1497 2616 
L 1497 588 
Q 1497 294 1559 219 
Q 1659 103 1928 113 
L 1928 0 
L 206 0 
L 206 113 
Q 403 116 486 158 
Q 569 200 600 275 
Q 631 350 631 588 
L 631 2616 
L 206 2616 
L 206 2922 
L 631 2922 
L 631 3138 
L 628 3284 
Q 628 3734 958 4034 
Q 1288 4334 1850 4334 
Q 2234 4334 2420 4190 
Q 2606 4047 2606 3872 
Q 2606 3731 2490 3628 
Q 2375 3525 2184 3525 
Q 2022 3525 1926 3609 
Q 1831 3694 1831 3797 
Q 1831 3825 1850 3913 
Q 1863 3966 1863 4013 
Q 1863 4078 1825 4109 
Q 1775 4156 1703 4156 
Q 1613 4156 1552 4081 
Q 1491 4006 1491 3841 
L 1497 3294 
L 1497 2922 
L 1928 2922 
L 1928 2616 
L 1497 2616 
z
" transform="scale(0.015625)"/>
      <path id="TimesNewRomanPS-BoldMT-72" d="M 1428 2922 
L 1428 2259 
Q 1719 2713 1937 2861 
Q 2156 3009 2359 3009 
Q 2534 3009 2639 2901 
Q 2744 2794 2744 2597 
Q 2744 2388 2642 2272 
Q 2541 2156 2397 2156 
Q 2231 2156 2109 2262 
Q 1988 2369 1966 2381 
Q 1934 2400 1894 2400 
Q 1803 2400 1722 2331 
Q 1594 2225 1528 2028 
Q 1428 1725 1428 1359 
L 1428 688 
L 1431 513 
Q 1431 334 1453 284 
Q 1491 200 1564 161 
Q 1638 122 1813 113 
L 1813 0 
L 234 0 
L 234 113 
Q 425 128 492 217 
Q 559 306 559 688 
L 559 2303 
Q 559 2553 534 2622 
Q 503 2709 443 2750 
Q 384 2791 234 2806 
L 234 2922 
L 1428 2922 
z
" transform="scale(0.015625)"/>
      <path id="TimesNewRomanPS-BoldMT-69" d="M 919 4338 
Q 1122 4338 1262 4195 
Q 1403 4053 1403 3853 
Q 1403 3653 1261 3512 
Q 1119 3372 919 3372 
Q 719 3372 578 3512 
Q 438 3653 438 3853 
Q 438 4053 578 4195 
Q 719 4338 919 4338 
z
M 1356 2922 
L 1356 606 
Q 1356 297 1428 211 
Q 1500 125 1709 113 
L 1709 0 
L 131 0 
L 131 113 
Q 325 119 419 225 
Q 481 297 481 606 
L 481 2313 
Q 481 2622 409 2708 
Q 338 2794 131 2806 
L 131 2922 
L 1356 2922 
z
" transform="scale(0.015625)"/>
      <path id="TimesNewRomanPS-BoldMT-73" d="M 2063 3003 
L 2109 2006 
L 2003 2006 
Q 1813 2450 1608 2612 
Q 1403 2775 1200 2775 
Q 1072 2775 981 2689 
Q 891 2603 891 2491 
Q 891 2406 953 2328 
Q 1053 2200 1512 1889 
Q 1972 1578 2117 1361 
Q 2263 1144 2263 875 
Q 2263 631 2141 397 
Q 2019 163 1797 37 
Q 1575 -88 1306 -88 
Q 1097 -88 747 44 
Q 653 78 619 78 
Q 516 78 447 -78 
L 344 -78 
L 294 972 
L 400 972 
Q 541 559 786 353 
Q 1031 147 1250 147 
Q 1400 147 1495 239 
Q 1591 331 1591 463 
Q 1591 613 1497 722 
Q 1403 831 1078 1053 
Q 600 1384 459 1559 
Q 253 1816 253 2125 
Q 253 2463 486 2736 
Q 719 3009 1159 3009 
Q 1397 3009 1619 2894 
Q 1703 2847 1756 2847 
Q 1813 2847 1847 2870 
Q 1881 2894 1956 3003 
L 2063 3003 
z
" transform="scale(0.015625)"/>
      <path id="TimesNewRomanPS-BoldMT-70" d="M 1347 297 
L 1347 -791 
Q 1347 -1016 1383 -1097 
Q 1419 -1178 1494 -1215 
Q 1569 -1253 1788 -1253 
L 1788 -1369 
L 122 -1369 
L 122 -1253 
Q 316 -1247 409 -1144 
Q 472 -1072 472 -772 
L 472 2313 
Q 472 2622 400 2708 
Q 328 2794 122 2806 
L 122 2922 
L 1347 2922 
L 1347 2538 
Q 1500 2763 1659 2863 
Q 1888 3009 2156 3009 
Q 2478 3009 2742 2806 
Q 3006 2603 3143 2245 
Q 3281 1888 3281 1475 
Q 3281 1031 3139 664 
Q 2997 297 2726 104 
Q 2456 -88 2125 -88 
Q 1884 -88 1675 19 
Q 1519 100 1347 297 
z
M 1347 613 
Q 1616 231 1922 231 
Q 2091 231 2200 409 
Q 2363 672 2363 1409 
Q 2363 2166 2184 2444 
Q 2066 2628 1866 2628 
Q 1550 2628 1347 2172 
L 1347 613 
z
" transform="scale(0.015625)"/>
      <path id="TimesNewRomanPS-BoldMT-63" d="M 2600 753 
L 2697 678 
Q 2491 291 2183 101 
Q 1875 -88 1528 -88 
Q 944 -88 594 353 
Q 244 794 244 1413 
Q 244 2009 563 2463 
Q 947 3009 1622 3009 
Q 2075 3009 2342 2781 
Q 2609 2553 2609 2272 
Q 2609 2094 2501 1987 
Q 2394 1881 2219 1881 
Q 2034 1881 1914 2003 
Q 1794 2125 1766 2438 
Q 1747 2634 1675 2713 
Q 1603 2791 1506 2791 
Q 1356 2791 1250 2631 
Q 1088 2391 1088 1894 
Q 1088 1481 1219 1104 
Q 1350 728 1578 544 
Q 1750 409 1984 409 
Q 2138 409 2275 481 
Q 2413 553 2600 753 
z
" transform="scale(0.015625)"/>
      <path id="TimesNewRomanPS-BoldMT-28" d="M 2056 4334 
L 2056 4191 
Q 1731 3978 1578 3775 
Q 1366 3494 1247 3053 
Q 1097 2506 1097 1525 
Q 1097 600 1233 87 
Q 1369 -425 1603 -741 
Q 1766 -959 2056 -1125 
L 2056 -1281 
Q 1303 -1028 779 -248 
Q 256 531 256 1544 
Q 256 2544 778 3314 
Q 1300 4084 2056 4334 
z
" transform="scale(0.015625)"/>
      <path id="TimesNewRomanPS-BoldMT-29" d="M 78 -1281 
L 78 -1138 
Q 403 -922 556 -719 
Q 766 -438 888 0 
Q 1038 550 1038 1531 
Q 1038 2456 902 2967 
Q 766 3478 531 3794 
Q 369 4013 78 4178 
L 78 4334 
Q 831 4081 1354 3301 
Q 1878 2522 1878 1509 
Q 1878 513 1354 -257 
Q 831 -1028 78 -1281 
z
" transform="scale(0.015625)"/>
     </defs>
     <use xlink:href="#TimesNewRomanPS-BoldMT-44"/>
     <use xlink:href="#TimesNewRomanPS-BoldMT-61" x="72.216797"/>
     <use xlink:href="#TimesNewRomanPS-BoldMT-74" x="122.216797"/>
     <use xlink:href="#TimesNewRomanPS-BoldMT-61" x="155.517578"/>
     <use xlink:href="#TimesNewRomanPS-BoldMT-20" x="205.517578"/>
     <use xlink:href="#TimesNewRomanPS-BoldMT-6f" x="230.517578"/>
     <use xlink:href="#TimesNewRomanPS-BoldMT-6e" x="280.517578"/>
     <use xlink:href="#TimesNewRomanPS-BoldMT-20" x="336.132812"/>
     <use xlink:href="#TimesNewRomanPS-BoldMT-74" x="361.132812"/>
     <use xlink:href="#TimesNewRomanPS-BoldMT-68" x="394.433594"/>
     <use xlink:href="#TimesNewRomanPS-BoldMT-65" x="450.048828"/>
     <use xlink:href="#TimesNewRomanPS-BoldMT-20" x="494.433594"/>
     <use xlink:href="#TimesNewRomanPS-BoldMT-76" x="519.433594"/>
     <use xlink:href="#TimesNewRomanPS-BoldMT-6f" x="569.433594"/>
     <use xlink:href="#TimesNewRomanPS-BoldMT-6c" x="619.433594"/>
     <use xlink:href="#TimesNewRomanPS-BoldMT-75" x="647.216797"/>
     <use xlink:href="#TimesNewRomanPS-BoldMT-6d" x="702.832031"/>
     <use xlink:href="#TimesNewRomanPS-BoldMT-65" x="786.132812"/>
     <use xlink:href="#TimesNewRomanPS-BoldMT-20" x="830.517578"/>
     <use xlink:href="#TimesNewRomanPS-BoldMT-6f" x="855.517578"/>
     <use xlink:href="#TimesNewRomanPS-BoldMT-66" x="905.517578"/>
     <use xlink:href="#TimesNewRomanPS-BoldMT-20" x="938.818359"/>
     <use xlink:href="#TimesNewRomanPS-BoldMT-66" x="963.818359"/>
     <use xlink:href="#TimesNewRomanPS-BoldMT-72" x="997.119141"/>
     <use xlink:href="#TimesNewRomanPS-BoldMT-75" x="1041.503906"/>
     <use xlink:href="#TimesNewRomanPS-BoldMT-69" x="1097.119141"/>
     <use xlink:href="#TimesNewRomanPS-BoldMT-74" x="1124.902344"/>
     <use xlink:href="#TimesNewRomanPS-BoldMT-20" x="1158.203125"/>
     <use xlink:href="#TimesNewRomanPS-BoldMT-74" x="1183.203125"/>
     <use xlink:href="#TimesNewRomanPS-BoldMT-72" x="1216.503906"/>
     <use xlink:href="#TimesNewRomanPS-BoldMT-61" x="1260.888672"/>
     <use xlink:href="#TimesNewRomanPS-BoldMT-6e" x="1310.888672"/>
     <use xlink:href="#TimesNewRomanPS-BoldMT-73" x="1366.503906"/>
     <use xlink:href="#TimesNewRomanPS-BoldMT-70" x="1405.419922"/>
     <use xlink:href="#TimesNewRomanPS-BoldMT-6f" x="1461.035156"/>
     <use xlink:href="#TimesNewRomanPS-BoldMT-72" x="1511.035156"/>
     <use xlink:href="#TimesNewRomanPS-BoldMT-74" x="1555.419922"/>
     <use xlink:href="#TimesNewRomanPS-BoldMT-61" x="1588.720703"/>
     <use xlink:href="#TimesNewRomanPS-BoldMT-74" x="1638.720703"/>
     <use xlink:href="#TimesNewRomanPS-BoldMT-69" x="1672.021484"/>
     <use xlink:href="#TimesNewRomanPS-BoldMT-6f" x="1699.804688"/>
     <use xlink:href="#TimesNewRomanPS-BoldMT-6e" x="1749.804688"/>
     <use xlink:href="#TimesNewRomanPS-BoldMT-20" x="1805.419922"/>
     <use xlink:href="#TimesNewRomanPS-BoldMT-69" x="1830.419922"/>
     <use xlink:href="#TimesNewRomanPS-BoldMT-6e" x="1858.203125"/>
     <use xlink:href="#TimesNewRomanPS-BoldMT-20" x="1913.818359"/>
     <use xlink:href="#TimesNewRomanPS-BoldMT-63" x="1938.818359"/>
     <use xlink:href="#TimesNewRomanPS-BoldMT-69" x="1983.203125"/>
     <use xlink:href="#TimesNewRomanPS-BoldMT-74" x="2010.986328"/>
     <use xlink:href="#TimesNewRomanPS-BoldMT-69" x="2044.287109"/>
     <use xlink:href="#TimesNewRomanPS-BoldMT-65" x="2072.070312"/>
     <use xlink:href="#TimesNewRomanPS-BoldMT-73" x="2116.455078"/>
     <use xlink:href="#TimesNewRomanPS-BoldMT-20" x="2155.371094"/>
     <use xlink:href="#TimesNewRomanPS-BoldMT-28" x="2180.371094"/>
     <use xlink:href="#TimesNewRomanPS-BoldMT-74" x="2213.671875"/>
     <use xlink:href="#TimesNewRomanPS-BoldMT-6f" x="2246.972656"/>
     <use xlink:href="#TimesNewRomanPS-BoldMT-6e" x="2296.972656"/>
     <use xlink:href="#TimesNewRomanPS-BoldMT-73" x="2352.587891"/>
     <use xlink:href="#TimesNewRomanPS-BoldMT-29" x="2391.503906"/>
    </g>
   </g>
  </g>
 </g>
 <defs>
  <clipPath id="p2dd00c7a0a">
   <rect x="55.915938" y="30.045" width="371.79" height="231.294699"/>
  </clipPath>
 </defs>
</svg>
