<?xml version="1.0" encoding="utf-8" standalone="no"?>
<!DOCTYPE svg PUBLIC "-//W3C//DTD SVG 1.1//EN"
  "http://www.w3.org/Graphics/SVG/1.1/DTD/svg11.dtd">
<svg xmlns:xlink="http://www.w3.org/1999/xlink" width="452.089687pt" height="319.944237pt" viewBox="0 0 452.089687 319.944237" xmlns="http://www.w3.org/2000/svg" version="1.1">
 <metadata>
  <rdf:RDF xmlns:dc="http://purl.org/dc/elements/1.1/" xmlns:cc="http://creativecommons.org/ns#" xmlns:rdf="http://www.w3.org/1999/02/22-rdf-syntax-ns#">
   <cc:Work>
    <dc:type rdf:resource="http://purl.org/dc/dcmitype/StillImage"/>
    <dc:date>2025-05-26T16:47:43.314841</dc:date>
    <dc:format>image/svg+xml</dc:format>
    <dc:creator>
     <cc:Agent>
      <dc:title>Matplotlib v3.7.2, https://matplotlib.org/</dc:title>
     </cc:Agent>
    </dc:creator>
   </cc:Work>
  </rdf:RDF>
 </metadata>
 <defs>
  <style type="text/css">*{stroke-linejoin: round; stroke-linecap: butt}</style>
 </defs>
 <g id="figure_1">
  <g id="patch_1">
   <path d="M 0 319.944237 
L 452.089687 319.944237 
L 452.089687 0 
L 0 0 
z
" style="fill: #ffffff"/>
  </g>
  <g id="axes_1">
   <g id="patch_2">
    <path d="M 60.915938 263.630725 
L 427.695937 263.630725 
L 427.695937 30.045 
L 60.915938 30.045 
z
" style="fill: #ffffff"/>
   </g>
   <g id="PolyCollection_1">
    <defs>
     <path id="m6d8bc5a1ee" d="M 124.624116 -81.657455 
L 119.467759 -81.657455 
L 119.240464 -83.653659 
L 119.013361 -85.649864 
L 118.783536 -87.646068 
L 118.546009 -89.642273 
L 118.293742 -91.638478 
L 118.01782 -93.634682 
L 117.707797 -95.630887 
L 117.352195 -97.627091 
L 116.939124 -99.623296 
L 116.456963 -101.6195 
L 115.895067 -103.615705 
L 115.244413 -105.611909 
L 114.498155 -107.608114 
L 113.652022 -109.604318 
L 112.704553 -111.600523 
L 111.657138 -113.596728 
L 110.513896 -115.592932 
L 109.281409 -117.589137 
L 107.968347 -119.585341 
L 106.585024 -121.581546 
L 105.142907 -123.57775 
L 103.654114 -125.573955 
L 102.130901 -127.570159 
L 100.58516 -129.566364 
L 99.027925 -131.562568 
L 97.468941 -133.558773 
L 95.916298 -135.554977 
L 94.376216 -137.551182 
L 92.853014 -139.547387 
L 91.349315 -141.543591 
L 89.866501 -143.539796 
L 88.405395 -145.536 
L 86.967094 -147.532205 
L 85.553833 -149.528409 
L 84.169744 -151.524614 
L 82.82135 -153.520818 
L 81.517689 -155.517023 
L 80.270007 -157.513227 
L 79.091042 -159.509432 
L 77.994 -161.505636 
L 76.991405 -163.501841 
L 76.094018 -165.498046 
L 75.310054 -167.49425 
L 74.644833 -169.490455 
L 74.100953 -171.486659 
L 73.678968 -173.482864 
L 73.378424 -175.479068 
L 73.19906 -177.475273 
L 73.141938 -179.471477 
L 73.210236 -181.467682 
L 73.409563 -183.463886 
L 73.747652 -185.460091 
L 74.233474 -187.456295 
L 74.875872 -189.4525 
L 75.681896 -191.448705 
L 76.655082 -193.444909 
L 77.793937 -195.441114 
L 79.090823 -197.437318 
L 80.531422 -199.433523 
L 82.094871 -201.429727 
L 83.754561 -203.425932 
L 85.479539 -205.422136 
L 87.236366 -207.418341 
L 88.991257 -209.414545 
L 90.712268 -211.41075 
L 92.37133 -213.406955 
L 93.945922 -215.403159 
L 95.420217 -217.399364 
L 96.785612 -219.395568 
L 98.0406 -221.391773 
L 99.190036 -223.387977 
L 100.243897 -225.384182 
L 101.215716 -227.380386 
L 102.120875 -229.376591 
L 102.97496 -231.372795 
L 103.792356 -233.369 
L 104.585211 -235.365204 
L 105.362829 -237.361409 
L 106.131502 -239.357614 
L 106.894713 -241.353818 
L 107.65361 -243.350023 
L 108.407632 -245.346227 
L 109.155157 -247.342432 
L 109.894063 -249.338636 
L 110.622161 -251.334841 
L 111.337439 -253.331045 
L 112.038161 -255.32725 
L 112.722832 -257.323454 
L 113.390108 -259.319659 
L 114.038683 -261.315863 
L 114.667205 -263.312068 
L 115.274251 -265.308273 
L 115.858347 -267.304477 
L 116.418038 -269.300682 
L 116.951976 -271.296886 
L 117.459001 -273.293091 
L 117.938194 -275.289295 
L 118.388902 -277.2855 
L 118.81072 -279.281704 
L 125.281155 -279.281704 
L 125.281155 -279.281704 
L 125.702973 -277.2855 
L 126.153681 -275.289295 
L 126.632874 -273.293091 
L 127.139899 -271.296886 
L 127.673837 -269.300682 
L 128.233528 -267.304477 
L 128.817624 -265.308273 
L 129.42467 -263.312068 
L 130.053192 -261.315863 
L 130.701767 -259.319659 
L 131.369043 -257.323454 
L 132.053714 -255.32725 
L 132.754436 -253.331045 
L 133.469714 -251.334841 
L 134.197812 -249.338636 
L 134.936718 -247.342432 
L 135.684243 -245.346227 
L 136.438265 -243.350023 
L 137.197162 -241.353818 
L 137.960373 -239.357614 
L 138.729046 -237.361409 
L 139.506664 -235.365204 
L 140.299519 -233.369 
L 141.116915 -231.372795 
L 141.971 -229.376591 
L 142.876159 -227.380386 
L 143.847978 -225.384182 
L 144.901839 -223.387977 
L 146.051275 -221.391773 
L 147.306263 -219.395568 
L 148.671658 -217.399364 
L 150.145953 -215.403159 
L 151.720545 -213.406955 
L 153.379607 -211.41075 
L 155.100618 -209.414545 
L 156.855509 -207.418341 
L 158.612336 -205.422136 
L 160.337314 -203.425932 
L 161.997004 -201.429727 
L 163.560453 -199.433523 
L 165.001052 -197.437318 
L 166.297938 -195.441114 
L 167.436793 -193.444909 
L 168.409979 -191.448705 
L 169.216003 -189.4525 
L 169.858401 -187.456295 
L 170.344223 -185.460091 
L 170.682312 -183.463886 
L 170.881639 -181.467682 
L 170.949938 -179.471477 
L 170.892815 -177.475273 
L 170.713451 -175.479068 
L 170.412907 -173.482864 
L 169.990922 -171.486659 
L 169.447042 -169.490455 
L 168.781821 -167.49425 
L 167.997857 -165.498046 
L 167.10047 -163.501841 
L 166.097875 -161.505636 
L 165.000833 -159.509432 
L 163.821868 -157.513227 
L 162.574186 -155.517023 
L 161.270525 -153.520818 
L 159.922131 -151.524614 
L 158.538042 -149.528409 
L 157.124781 -147.532205 
L 155.68648 -145.536 
L 154.225374 -143.539796 
L 152.74256 -141.543591 
L 151.238861 -139.547387 
L 149.715659 -137.551182 
L 148.175577 -135.554977 
L 146.622934 -133.558773 
L 145.06395 -131.562568 
L 143.506715 -129.566364 
L 141.960974 -127.570159 
L 140.437761 -125.573955 
L 138.948968 -123.57775 
L 137.506851 -121.581546 
L 136.123528 -119.585341 
L 134.810466 -117.589137 
L 133.577979 -115.592932 
L 132.434737 -113.596728 
L 131.387322 -111.600523 
L 130.439853 -109.604318 
L 129.59372 -107.608114 
L 128.847462 -105.611909 
L 128.196808 -103.615705 
L 127.634912 -101.6195 
L 127.152751 -99.623296 
L 126.73968 -97.627091 
L 126.384078 -95.630887 
L 126.074055 -93.634682 
L 125.798133 -91.638478 
L 125.545866 -89.642273 
L 125.308339 -87.646068 
L 125.078514 -85.649864 
L 124.851411 -83.653659 
L 124.624116 -81.657455 
z
" style="stroke: #000000; stroke-opacity: 0.7"/>
    </defs>
    <g clip-path="url(#pa3d93854eb)">
     <use xlink:href="#m6d8bc5a1ee" x="0" y="319.944237" style="fill: #aec7e8; fill-opacity: 0.7; stroke: #000000; stroke-opacity: 0.7"/>
    </g>
   </g>
   <g id="PolyCollection_2">
    <defs>
     <path id="mb891b1e993" d="M 248.770709 -66.931045 
L 239.841166 -66.931045 
L 239.532658 -68.970344 
L 239.239933 -71.009644 
L 238.957936 -73.048943 
L 238.678628 -75.088243 
L 238.391291 -77.127542 
L 238.082948 -79.166841 
L 237.738853 -81.206141 
L 237.342962 -83.24544 
L 236.878375 -85.284739 
L 236.327721 -87.324039 
L 235.673516 -89.363338 
L 234.898556 -91.402637 
L 233.986391 -93.441937 
L 232.921935 -95.481236 
L 231.692256 -97.520536 
L 230.287521 -99.559835 
L 228.702062 -101.599134 
L 226.935465 -103.638434 
L 224.993574 -105.677733 
L 222.889273 -107.717032 
L 220.642924 -109.756332 
L 218.282361 -111.795631 
L 215.842381 -113.83493 
L 213.363711 -115.87423 
L 210.891506 -117.913529 
L 208.473442 -119.952828 
L 206.157559 -121.992128 
L 203.989977 -124.031427 
L 202.012669 -126.070727 
L 200.261437 -128.110026 
L 198.764223 -130.149325 
L 197.539869 -132.188625 
L 196.597366 -134.227924 
L 195.935635 -136.267223 
L 195.543801 -138.306523 
L 195.401938 -140.345822 
L 195.4822 -142.385121 
L 195.750295 -144.424421 
L 196.16721 -146.46372 
L 196.691139 -148.50302 
L 197.279532 -150.542319 
L 197.891204 -152.581618 
L 198.488388 -154.620918 
L 199.038645 -156.660217 
L 199.516497 -158.699516 
L 199.904654 -160.738816 
L 200.194737 -162.778115 
L 200.387415 -164.817414 
L 200.491948 -166.856714 
L 200.525178 -168.896013 
L 200.510093 -170.935313 
L 200.474118 -172.974612 
L 200.447314 -175.013911 
L 200.460671 -177.053211 
L 200.544626 -179.09251 
L 200.727865 -181.131809 
L 201.036431 -183.171109 
L 201.493062 -185.210408 
L 202.116666 -187.249707 
L 202.921834 -189.289007 
L 203.918301 -191.328306 
L 205.110337 -193.367606 
L 206.496099 -195.406905 
L 208.067052 -197.446204 
L 209.807578 -199.485504 
L 211.694946 -201.524803 
L 213.699742 -203.564102 
L 215.786861 -205.603402 
L 217.917025 -207.642701 
L 220.048774 -209.682 
L 222.140749 -211.7213 
L 224.154084 -213.760599 
L 226.054653 -215.799898 
L 227.81497 -217.839198 
L 229.415547 -219.878497 
L 230.845592 -221.917797 
L 232.102996 -223.957096 
L 233.193641 -225.996395 
L 234.130124 -228.035695 
L 234.93006 -230.074994 
L 235.614154 -232.114293 
L 236.204249 -234.153593 
L 236.721538 -236.192892 
L 237.185101 -238.232191 
L 237.610876 -240.271491 
L 238.011108 -242.31079 
L 238.394262 -244.35009 
L 238.765342 -246.389389 
L 239.1265 -248.428688 
L 239.477827 -250.467988 
L 239.818177 -252.507287 
L 240.145932 -254.546586 
L 240.459609 -256.585886 
L 240.758267 -258.625185 
L 241.041694 -260.664484 
L 241.310402 -262.703784 
L 241.565464 -264.743083 
L 241.80826 -266.782383 
L 242.040186 -268.821682 
L 246.571689 -268.821682 
L 246.571689 -268.821682 
L 246.803615 -266.782383 
L 247.046411 -264.743083 
L 247.301473 -262.703784 
L 247.570181 -260.664484 
L 247.853608 -258.625185 
L 248.152266 -256.585886 
L 248.465943 -254.546586 
L 248.793698 -252.507287 
L 249.134048 -250.467988 
L 249.485375 -248.428688 
L 249.846533 -246.389389 
L 250.217613 -244.35009 
L 250.600767 -242.31079 
L 251.000999 -240.271491 
L 251.426774 -238.232191 
L 251.890337 -236.192892 
L 252.407626 -234.153593 
L 252.997721 -232.114293 
L 253.681815 -230.074994 
L 254.481751 -228.035695 
L 255.418234 -225.996395 
L 256.508879 -223.957096 
L 257.766283 -221.917797 
L 259.196328 -219.878497 
L 260.796905 -217.839198 
L 262.557222 -215.799898 
L 264.457791 -213.760599 
L 266.471126 -211.7213 
L 268.563101 -209.682 
L 270.69485 -207.642701 
L 272.825014 -205.603402 
L 274.912133 -203.564102 
L 276.916929 -201.524803 
L 278.804297 -199.485504 
L 280.544823 -197.446204 
L 282.115776 -195.406905 
L 283.501538 -193.367606 
L 284.693574 -191.328306 
L 285.690041 -189.289007 
L 286.495209 -187.249707 
L 287.118813 -185.210408 
L 287.575444 -183.171109 
L 287.88401 -181.131809 
L 288.067249 -179.09251 
L 288.151204 -177.053211 
L 288.164561 -175.013911 
L 288.137757 -172.974612 
L 288.101782 -170.935313 
L 288.086697 -168.896013 
L 288.119927 -166.856714 
L 288.22446 -164.817414 
L 288.417138 -162.778115 
L 288.707221 -160.738816 
L 289.095378 -158.699516 
L 289.57323 -156.660217 
L 290.123487 -154.620918 
L 290.720671 -152.581618 
L 291.332343 -150.542319 
L 291.920736 -148.50302 
L 292.444665 -146.46372 
L 292.86158 -144.424421 
L 293.129675 -142.385121 
L 293.209937 -140.345822 
L 293.068074 -138.306523 
L 292.67624 -136.267223 
L 292.014509 -134.227924 
L 291.072006 -132.188625 
L 289.847652 -130.149325 
L 288.350438 -128.110026 
L 286.599206 -126.070727 
L 284.621898 -124.031427 
L 282.454316 -121.992128 
L 280.138433 -119.952828 
L 277.720369 -117.913529 
L 275.248164 -115.87423 
L 272.769494 -113.83493 
L 270.329514 -111.795631 
L 267.968951 -109.756332 
L 265.722602 -107.717032 
L 263.618301 -105.677733 
L 261.67641 -103.638434 
L 259.909813 -101.599134 
L 258.324354 -99.559835 
L 256.919619 -97.520536 
L 255.68994 -95.481236 
L 254.625484 -93.441937 
L 253.713319 -91.402637 
L 252.938359 -89.363338 
L 252.284154 -87.324039 
L 251.7335 -85.284739 
L 251.268913 -83.24544 
L 250.873022 -81.206141 
L 250.528927 -79.166841 
L 250.220584 -77.127542 
L 249.933247 -75.088243 
L 249.653939 -73.048943 
L 249.371942 -71.009644 
L 249.079217 -68.970344 
L 248.770709 -66.931045 
z
" style="stroke: #000000; stroke-opacity: 0.7"/>
    </defs>
    <g clip-path="url(#pa3d93854eb)">
     <use xlink:href="#mb891b1e993" x="0" y="319.944237" style="fill: #1f77b4; fill-opacity: 0.7; stroke: #000000; stroke-opacity: 0.7"/>
    </g>
   </g>
   <g id="PolyCollection_3">
    <defs>
     <path id="m371f0ddc2b" d="M 373.232946 -82.028666 
L 359.898929 -82.028666 
L 359.151049 -83.931439 
L 358.404868 -85.834211 
L 357.670093 -87.736984 
L 356.954482 -89.639756 
L 356.263189 -91.542529 
L 355.598287 -93.445301 
L 354.9585 -95.348074 
L 354.339149 -97.250846 
L 353.732333 -99.153619 
L 353.127306 -101.056391 
L 352.511036 -102.959164 
L 351.868925 -104.861936 
L 351.185652 -106.764709 
L 350.446123 -108.667481 
L 349.636502 -110.570254 
L 348.745268 -112.473026 
L 347.764258 -114.375799 
L 346.689615 -116.278571 
L 345.522535 -118.181344 
L 344.269732 -120.084116 
L 342.943507 -121.986889 
L 341.561348 -123.889661 
L 340.145051 -125.792434 
L 338.719371 -127.695206 
L 337.31031 -129.597979 
L 335.943195 -131.500751 
L 334.640728 -133.403524 
L 333.42124 -135.306296 
L 332.297326 -137.209069 
L 331.27502 -139.111841 
L 330.353596 -141.014614 
L 329.525995 -142.917386 
L 328.779813 -144.820159 
L 328.098708 -146.722931 
L 327.464059 -148.625704 
L 326.856683 -150.528476 
L 326.258456 -152.431249 
L 325.653692 -154.334021 
L 325.030217 -156.236794 
L 324.380096 -158.139566 
L 323.70005 -160.042339 
L 322.991607 -161.945111 
L 322.261046 -163.847884 
L 321.519214 -165.750656 
L 320.781232 -167.653429 
L 320.066128 -169.556201 
L 319.396364 -171.458974 
L 318.797232 -173.361746 
L 318.296072 -175.264519 
L 317.92127 -177.167291 
L 317.701029 -179.070064 
L 317.661937 -180.972836 
L 317.8274 -182.875609 
L 318.216057 -184.778381 
L 318.840321 -186.681154 
L 319.705211 -188.583926 
L 320.807613 -190.486699 
L 322.136087 -192.389471 
L 323.671286 -194.292244 
L 325.386953 -196.195016 
L 327.251435 -198.097789 
L 329.229555 -200.000561 
L 331.284666 -201.903334 
L 333.380685 -203.806106 
L 335.483916 -205.708879 
L 337.564507 -207.611651 
L 339.597442 -209.514424 
L 341.563028 -211.417196 
L 343.446895 -213.319969 
L 345.239592 -215.222741 
L 346.935874 -217.125514 
L 348.533834 -219.028286 
L 350.033983 -220.931059 
L 351.438411 -222.833831 
L 352.750094 -224.736604 
L 353.972397 -226.639376 
L 355.108772 -228.542149 
L 356.162628 -230.444921 
L 357.137314 -232.347694 
L 358.036166 -234.250466 
L 358.862563 -236.153239 
L 359.619947 -238.056011 
L 360.311794 -239.958784 
L 360.941552 -241.861556 
L 361.512545 -243.764329 
L 362.027901 -245.667101 
L 362.490521 -247.569874 
L 362.903108 -249.472646 
L 363.268277 -251.375419 
L 363.588709 -253.278191 
L 363.867341 -255.180964 
L 364.107535 -257.083736 
L 364.313193 -258.986509 
L 364.488787 -260.889281 
L 364.639274 -262.792054 
L 364.769916 -264.694826 
L 364.886011 -266.597599 
L 364.992574 -268.500371 
L 365.094027 -270.403144 
L 368.037848 -270.403144 
L 368.037848 -270.403144 
L 368.139301 -268.500371 
L 368.245864 -266.597599 
L 368.361959 -264.694826 
L 368.492601 -262.792054 
L 368.643088 -260.889281 
L 368.818682 -258.986509 
L 369.02434 -257.083736 
L 369.264534 -255.180964 
L 369.543166 -253.278191 
L 369.863598 -251.375419 
L 370.228767 -249.472646 
L 370.641354 -247.569874 
L 371.103974 -245.667101 
L 371.61933 -243.764329 
L 372.190323 -241.861556 
L 372.820081 -239.958784 
L 373.511928 -238.056011 
L 374.269312 -236.153239 
L 375.095709 -234.250466 
L 375.994561 -232.347694 
L 376.969247 -230.444921 
L 378.023103 -228.542149 
L 379.159478 -226.639376 
L 380.381781 -224.736604 
L 381.693464 -222.833831 
L 383.097892 -220.931059 
L 384.598041 -219.028286 
L 386.196001 -217.125514 
L 387.892283 -215.222741 
L 389.68498 -213.319969 
L 391.568847 -211.417196 
L 393.534433 -209.514424 
L 395.567368 -207.611651 
L 397.647959 -205.708879 
L 399.75119 -203.806106 
L 401.847209 -201.903334 
L 403.90232 -200.000561 
L 405.88044 -198.097789 
L 407.744922 -196.195016 
L 409.460589 -194.292244 
L 410.995788 -192.389471 
L 412.324262 -190.486699 
L 413.426664 -188.583926 
L 414.291554 -186.681154 
L 414.915818 -184.778381 
L 415.304475 -182.875609 
L 415.469937 -180.972836 
L 415.430846 -179.070064 
L 415.210605 -177.167291 
L 414.835803 -175.264519 
L 414.334643 -173.361746 
L 413.735511 -171.458974 
L 413.065747 -169.556201 
L 412.350643 -167.653429 
L 411.612661 -165.750656 
L 410.870829 -163.847884 
L 410.140268 -161.945111 
L 409.431825 -160.042339 
L 408.751779 -158.139566 
L 408.101658 -156.236794 
L 407.478183 -154.334021 
L 406.873419 -152.431249 
L 406.275192 -150.528476 
L 405.667816 -148.625704 
L 405.033167 -146.722931 
L 404.352062 -144.820159 
L 403.60588 -142.917386 
L 402.778279 -141.014614 
L 401.856855 -139.111841 
L 400.834549 -137.209069 
L 399.710635 -135.306296 
L 398.491147 -133.403524 
L 397.18868 -131.500751 
L 395.821565 -129.597979 
L 394.412504 -127.695206 
L 392.986824 -125.792434 
L 391.570527 -123.889661 
L 390.188368 -121.986889 
L 388.862143 -120.084116 
L 387.60934 -118.181344 
L 386.44226 -116.278571 
L 385.367617 -114.375799 
L 384.386607 -112.473026 
L 383.495373 -110.570254 
L 382.685752 -108.667481 
L 381.946223 -106.764709 
L 381.26295 -104.861936 
L 380.620839 -102.959164 
L 380.004569 -101.056391 
L 379.399542 -99.153619 
L 378.792726 -97.250846 
L 378.173375 -95.348074 
L 377.533588 -93.445301 
L 376.868686 -91.542529 
L 376.177393 -89.639756 
L 375.461782 -87.736984 
L 374.727007 -85.834211 
L 373.980826 -83.931439 
L 373.232946 -82.028666 
z
" style="stroke: #000000; stroke-opacity: 0.7"/>
    </defs>
    <g clip-path="url(#pa3d93854eb)">
     <use xlink:href="#m371f0ddc2b" x="0" y="319.944237" style="fill: #e78ac3; fill-opacity: 0.7; stroke: #000000; stroke-opacity: 0.7"/>
    </g>
   </g>
   <g id="matplotlib.axis_1">
    <g id="xtick_1">
     <g id="line2d_1">
      <defs>
       <path id="m8c3c2a3362" d="M 0 0 
L 0 3.5 
" style="stroke: #000000; stroke-width: 0.8"/>
      </defs>
      <g>
       <use xlink:href="#m8c3c2a3362" x="122.045938" y="263.630725" style="stroke: #000000; stroke-width: 0.8"/>
      </g>
     </g>
     <g id="text_1">
      <!-- BluePeak -->
      <g transform="translate(87.709716 309.043859) rotate(-45) scale(0.12 -0.12)">
       <defs>
        <path id="TimesNewRomanPSMT-42" d="M 2956 2163 
Q 3397 2069 3616 1863 
Q 3919 1575 3919 1159 
Q 3919 844 3719 555 
Q 3519 266 3170 133 
Q 2822 0 2106 0 
L 106 0 
L 106 116 
L 266 116 
Q 531 116 647 284 
Q 719 394 719 750 
L 719 3488 
Q 719 3881 628 3984 
Q 506 4122 266 4122 
L 106 4122 
L 106 4238 
L 1938 4238 
Q 2450 4238 2759 4163 
Q 3228 4050 3475 3764 
Q 3722 3478 3722 3106 
Q 3722 2788 3528 2536 
Q 3334 2284 2956 2163 
z
M 1319 2331 
Q 1434 2309 1582 2298 
Q 1731 2288 1909 2288 
Q 2366 2288 2595 2386 
Q 2825 2484 2947 2687 
Q 3069 2891 3069 3131 
Q 3069 3503 2766 3765 
Q 2463 4028 1881 4028 
Q 1569 4028 1319 3959 
L 1319 2331 
z
M 1319 306 
Q 1681 222 2034 222 
Q 2600 222 2897 476 
Q 3194 731 3194 1106 
Q 3194 1353 3059 1581 
Q 2925 1809 2622 1940 
Q 2319 2072 1872 2072 
Q 1678 2072 1540 2065 
Q 1403 2059 1319 2044 
L 1319 306 
z
" transform="scale(0.015625)"/>
        <path id="TimesNewRomanPSMT-6c" d="M 1184 4444 
L 1184 647 
Q 1184 378 1223 290 
Q 1263 203 1344 158 
Q 1425 113 1647 113 
L 1647 0 
L 244 0 
L 244 113 
Q 441 113 512 153 
Q 584 194 625 287 
Q 666 381 666 647 
L 666 3247 
Q 666 3731 644 3842 
Q 622 3953 573 3993 
Q 525 4034 450 4034 
Q 369 4034 244 3984 
L 191 4094 
L 1044 4444 
L 1184 4444 
z
" transform="scale(0.015625)"/>
        <path id="TimesNewRomanPSMT-75" d="M 2709 2863 
L 2709 1128 
Q 2709 631 2732 520 
Q 2756 409 2807 365 
Q 2859 322 2928 322 
Q 3025 322 3147 375 
L 3191 266 
L 2334 -88 
L 2194 -88 
L 2194 519 
Q 1825 119 1631 15 
Q 1438 -88 1222 -88 
Q 981 -88 804 51 
Q 628 191 559 409 
Q 491 628 491 1028 
L 491 2306 
Q 491 2509 447 2587 
Q 403 2666 317 2708 
Q 231 2750 6 2747 
L 6 2863 
L 1009 2863 
L 1009 947 
Q 1009 547 1148 422 
Q 1288 297 1484 297 
Q 1619 297 1789 381 
Q 1959 466 2194 703 
L 2194 2325 
Q 2194 2569 2105 2655 
Q 2016 2741 1734 2747 
L 1734 2863 
L 2709 2863 
z
" transform="scale(0.015625)"/>
        <path id="TimesNewRomanPSMT-65" d="M 681 1784 
Q 678 1147 991 784 
Q 1303 422 1725 422 
Q 2006 422 2214 576 
Q 2422 731 2563 1106 
L 2659 1044 
Q 2594 616 2278 264 
Q 1963 -88 1488 -88 
Q 972 -88 605 314 
Q 238 716 238 1394 
Q 238 2128 614 2539 
Q 991 2950 1559 2950 
Q 2041 2950 2350 2633 
Q 2659 2316 2659 1784 
L 681 1784 
z
M 681 1966 
L 2006 1966 
Q 1991 2241 1941 2353 
Q 1863 2528 1708 2628 
Q 1553 2728 1384 2728 
Q 1125 2728 920 2526 
Q 716 2325 681 1966 
z
" transform="scale(0.015625)"/>
        <path id="TimesNewRomanPSMT-50" d="M 1313 1984 
L 1313 750 
Q 1313 350 1400 253 
Q 1519 116 1759 116 
L 1922 116 
L 1922 0 
L 106 0 
L 106 116 
L 266 116 
Q 534 116 650 291 
Q 713 388 713 750 
L 713 3488 
Q 713 3888 628 3984 
Q 506 4122 266 4122 
L 106 4122 
L 106 4238 
L 1659 4238 
Q 2228 4238 2556 4120 
Q 2884 4003 3109 3725 
Q 3334 3447 3334 3066 
Q 3334 2547 2992 2222 
Q 2650 1897 2025 1897 
Q 1872 1897 1694 1919 
Q 1516 1941 1313 1984 
z
M 1313 2163 
Q 1478 2131 1606 2115 
Q 1734 2100 1825 2100 
Q 2150 2100 2386 2351 
Q 2622 2603 2622 3003 
Q 2622 3278 2509 3514 
Q 2397 3750 2190 3867 
Q 1984 3984 1722 3984 
Q 1563 3984 1313 3925 
L 1313 2163 
z
" transform="scale(0.015625)"/>
        <path id="TimesNewRomanPSMT-61" d="M 1822 413 
Q 1381 72 1269 19 
Q 1100 -59 909 -59 
Q 613 -59 420 144 
Q 228 347 228 678 
Q 228 888 322 1041 
Q 450 1253 767 1440 
Q 1084 1628 1822 1897 
L 1822 2009 
Q 1822 2438 1686 2597 
Q 1550 2756 1291 2756 
Q 1094 2756 978 2650 
Q 859 2544 859 2406 
L 866 2225 
Q 866 2081 792 2003 
Q 719 1925 600 1925 
Q 484 1925 411 2006 
Q 338 2088 338 2228 
Q 338 2497 613 2722 
Q 888 2947 1384 2947 
Q 1766 2947 2009 2819 
Q 2194 2722 2281 2516 
Q 2338 2381 2338 1966 
L 2338 994 
Q 2338 584 2353 492 
Q 2369 400 2405 369 
Q 2441 338 2488 338 
Q 2538 338 2575 359 
Q 2641 400 2828 588 
L 2828 413 
Q 2478 -56 2159 -56 
Q 2006 -56 1915 50 
Q 1825 156 1822 413 
z
M 1822 616 
L 1822 1706 
Q 1350 1519 1213 1441 
Q 966 1303 859 1153 
Q 753 1003 753 825 
Q 753 600 887 451 
Q 1022 303 1197 303 
Q 1434 303 1822 616 
z
" transform="scale(0.015625)"/>
        <path id="TimesNewRomanPSMT-6b" d="M 1047 4444 
L 1047 1597 
L 1775 2259 
Q 2006 2472 2044 2528 
Q 2069 2566 2069 2603 
Q 2069 2666 2017 2711 
Q 1966 2756 1847 2763 
L 1847 2863 
L 3091 2863 
L 3091 2763 
Q 2834 2756 2664 2684 
Q 2494 2613 2291 2428 
L 1556 1750 
L 2291 822 
Q 2597 438 2703 334 
Q 2853 188 2966 144 
Q 3044 113 3238 113 
L 3238 0 
L 1847 0 
L 1847 113 
Q 1966 116 2008 148 
Q 2050 181 2050 241 
Q 2050 313 1925 472 
L 1047 1594 
L 1047 644 
Q 1047 366 1086 278 
Q 1125 191 1197 153 
Q 1269 116 1509 113 
L 1509 0 
L 53 0 
L 53 113 
Q 272 113 381 166 
Q 447 200 481 272 
Q 528 375 528 628 
L 528 3234 
Q 528 3731 506 3842 
Q 484 3953 434 3995 
Q 384 4038 303 4038 
Q 238 4038 106 3984 
L 53 4094 
L 903 4444 
L 1047 4444 
z
" transform="scale(0.015625)"/>
       </defs>
       <use xlink:href="#TimesNewRomanPSMT-42"/>
       <use xlink:href="#TimesNewRomanPSMT-6c" x="66.699219"/>
       <use xlink:href="#TimesNewRomanPSMT-75" x="94.482422"/>
       <use xlink:href="#TimesNewRomanPSMT-65" x="144.482422"/>
       <use xlink:href="#TimesNewRomanPSMT-50" x="188.867188"/>
       <use xlink:href="#TimesNewRomanPSMT-65" x="244.482422"/>
       <use xlink:href="#TimesNewRomanPSMT-61" x="288.867188"/>
       <use xlink:href="#TimesNewRomanPSMT-6b" x="333.251953"/>
      </g>
     </g>
    </g>
    <g id="xtick_2">
     <g id="line2d_2">
      <g>
       <use xlink:href="#m8c3c2a3362" x="244.305937" y="263.630725" style="stroke: #000000; stroke-width: 0.8"/>
      </g>
     </g>
     <g id="text_2">
      <!-- NextGen -->
      <g transform="translate(211.859017 307.154558) rotate(-45) scale(0.12 -0.12)">
       <defs>
        <path id="TimesNewRomanPSMT-4e" d="M -84 4238 
L 1066 4238 
L 3656 1059 
L 3656 3503 
Q 3656 3894 3569 3991 
Q 3453 4122 3203 4122 
L 3056 4122 
L 3056 4238 
L 4531 4238 
L 4531 4122 
L 4381 4122 
Q 4113 4122 4000 3959 
Q 3931 3859 3931 3503 
L 3931 -69 
L 3819 -69 
L 1025 3344 
L 1025 734 
Q 1025 344 1109 247 
Q 1228 116 1475 116 
L 1625 116 
L 1625 0 
L 150 0 
L 150 116 
L 297 116 
Q 569 116 681 278 
Q 750 378 750 734 
L 750 3681 
Q 566 3897 470 3965 
Q 375 4034 191 4094 
Q 100 4122 -84 4122 
L -84 4238 
z
" transform="scale(0.015625)"/>
        <path id="TimesNewRomanPSMT-78" d="M 84 2863 
L 1431 2863 
L 1431 2747 
Q 1303 2747 1251 2703 
Q 1200 2659 1200 2588 
Q 1200 2513 1309 2356 
Q 1344 2306 1413 2200 
L 1616 1875 
L 1850 2200 
Q 2075 2509 2075 2591 
Q 2075 2656 2022 2701 
Q 1969 2747 1850 2747 
L 1850 2863 
L 2819 2863 
L 2819 2747 
Q 2666 2738 2553 2663 
Q 2400 2556 2134 2200 
L 1744 1678 
L 2456 653 
Q 2719 275 2831 198 
Q 2944 122 3122 113 
L 3122 0 
L 1772 0 
L 1772 113 
Q 1913 113 1991 175 
Q 2050 219 2050 291 
Q 2050 363 1850 653 
L 1431 1266 
L 972 653 
Q 759 369 759 316 
Q 759 241 829 180 
Q 900 119 1041 113 
L 1041 0 
L 106 0 
L 106 113 
Q 219 128 303 191 
Q 422 281 703 653 
L 1303 1450 
L 759 2238 
Q 528 2575 401 2661 
Q 275 2747 84 2747 
L 84 2863 
z
" transform="scale(0.015625)"/>
        <path id="TimesNewRomanPSMT-74" d="M 1031 3803 
L 1031 2863 
L 1700 2863 
L 1700 2644 
L 1031 2644 
L 1031 788 
Q 1031 509 1111 412 
Q 1191 316 1316 316 
Q 1419 316 1516 380 
Q 1613 444 1666 569 
L 1788 569 
Q 1678 263 1478 108 
Q 1278 -47 1066 -47 
Q 922 -47 784 33 
Q 647 113 581 261 
Q 516 409 516 719 
L 516 2644 
L 63 2644 
L 63 2747 
Q 234 2816 414 2980 
Q 594 3144 734 3369 
Q 806 3488 934 3803 
L 1031 3803 
z
" transform="scale(0.015625)"/>
        <path id="TimesNewRomanPSMT-47" d="M 3928 4334 
L 4038 2997 
L 3928 2997 
Q 3763 3497 3500 3750 
Q 3122 4116 2528 4116 
Q 1719 4116 1297 3475 
Q 944 2934 944 2188 
Q 944 1581 1178 1081 
Q 1413 581 1792 348 
Q 2172 116 2572 116 
Q 2806 116 3025 175 
Q 3244 234 3447 350 
L 3447 1575 
Q 3447 1894 3398 1992 
Q 3350 2091 3248 2142 
Q 3147 2194 2891 2194 
L 2891 2313 
L 4531 2313 
L 4531 2194 
L 4453 2194 
Q 4209 2194 4119 2031 
Q 4056 1916 4056 1575 
L 4056 278 
Q 3697 84 3347 -6 
Q 2997 -97 2569 -97 
Q 1341 -97 703 691 
Q 225 1281 225 2053 
Q 225 2613 494 3125 
Q 813 3734 1369 4063 
Q 1834 4334 2469 4334 
Q 2700 4334 2889 4296 
Q 3078 4259 3425 4131 
Q 3600 4066 3659 4066 
Q 3719 4066 3761 4120 
Q 3803 4175 3813 4334 
L 3928 4334 
z
" transform="scale(0.015625)"/>
        <path id="TimesNewRomanPSMT-6e" d="M 1034 2341 
Q 1538 2947 1994 2947 
Q 2228 2947 2397 2830 
Q 2566 2713 2666 2444 
Q 2734 2256 2734 1869 
L 2734 647 
Q 2734 375 2778 278 
Q 2813 200 2889 156 
Q 2966 113 3172 113 
L 3172 0 
L 1756 0 
L 1756 113 
L 1816 113 
Q 2016 113 2095 173 
Q 2175 234 2206 353 
Q 2219 400 2219 647 
L 2219 1819 
Q 2219 2209 2117 2386 
Q 2016 2563 1775 2563 
Q 1403 2563 1034 2156 
L 1034 647 
Q 1034 356 1069 288 
Q 1113 197 1189 155 
Q 1266 113 1500 113 
L 1500 0 
L 84 0 
L 84 113 
L 147 113 
Q 366 113 442 223 
Q 519 334 519 647 
L 519 1709 
Q 519 2225 495 2337 
Q 472 2450 423 2490 
Q 375 2531 294 2531 
Q 206 2531 84 2484 
L 38 2597 
L 900 2947 
L 1034 2947 
L 1034 2341 
z
" transform="scale(0.015625)"/>
       </defs>
       <use xlink:href="#TimesNewRomanPSMT-4e"/>
       <use xlink:href="#TimesNewRomanPSMT-65" x="72.216797"/>
       <use xlink:href="#TimesNewRomanPSMT-78" x="116.601562"/>
       <use xlink:href="#TimesNewRomanPSMT-74" x="166.601562"/>
       <use xlink:href="#TimesNewRomanPSMT-47" x="194.384766"/>
       <use xlink:href="#TimesNewRomanPSMT-65" x="266.601562"/>
       <use xlink:href="#TimesNewRomanPSMT-6e" x="310.986328"/>
      </g>
     </g>
    </g>
    <g id="xtick_3">
     <g id="line2d_3">
      <g>
       <use xlink:href="#m8c3c2a3362" x="366.565937" y="263.630725" style="stroke: #000000; stroke-width: 0.8"/>
      </g>
     </g>
     <g id="text_3">
      <!-- DataPulse -->
      <g transform="translate(330.344393 310.929183) rotate(-45) scale(0.12 -0.12)">
       <defs>
        <path id="TimesNewRomanPSMT-44" d="M 109 0 
L 109 116 
L 269 116 
Q 538 116 650 288 
Q 719 391 719 750 
L 719 3488 
Q 719 3884 631 3984 
Q 509 4122 269 4122 
L 109 4122 
L 109 4238 
L 1834 4238 
Q 2784 4238 3279 4022 
Q 3775 3806 4076 3303 
Q 4378 2800 4378 2141 
Q 4378 1256 3841 663 
Q 3238 0 2003 0 
L 109 0 
z
M 1319 306 
Q 1716 219 1984 219 
Q 2709 219 3187 728 
Q 3666 1238 3666 2109 
Q 3666 2988 3187 3494 
Q 2709 4000 1959 4000 
Q 1678 4000 1319 3909 
L 1319 306 
z
" transform="scale(0.015625)"/>
        <path id="TimesNewRomanPSMT-73" d="M 2050 2947 
L 2050 1972 
L 1947 1972 
Q 1828 2431 1642 2597 
Q 1456 2763 1169 2763 
Q 950 2763 815 2647 
Q 681 2531 681 2391 
Q 681 2216 781 2091 
Q 878 1963 1175 1819 
L 1631 1597 
Q 2266 1288 2266 781 
Q 2266 391 1970 151 
Q 1675 -88 1309 -88 
Q 1047 -88 709 6 
Q 606 38 541 38 
Q 469 38 428 -44 
L 325 -44 
L 325 978 
L 428 978 
Q 516 541 762 319 
Q 1009 97 1316 97 
Q 1531 97 1667 223 
Q 1803 350 1803 528 
Q 1803 744 1651 891 
Q 1500 1038 1047 1263 
Q 594 1488 453 1669 
Q 313 1847 313 2119 
Q 313 2472 555 2709 
Q 797 2947 1181 2947 
Q 1350 2947 1591 2875 
Q 1750 2828 1803 2828 
Q 1853 2828 1881 2850 
Q 1909 2872 1947 2947 
L 2050 2947 
z
" transform="scale(0.015625)"/>
       </defs>
       <use xlink:href="#TimesNewRomanPSMT-44"/>
       <use xlink:href="#TimesNewRomanPSMT-61" x="72.216797"/>
       <use xlink:href="#TimesNewRomanPSMT-74" x="116.601562"/>
       <use xlink:href="#TimesNewRomanPSMT-61" x="144.384766"/>
       <use xlink:href="#TimesNewRomanPSMT-50" x="188.769531"/>
       <use xlink:href="#TimesNewRomanPSMT-75" x="244.384766"/>
       <use xlink:href="#TimesNewRomanPSMT-6c" x="294.384766"/>
       <use xlink:href="#TimesNewRomanPSMT-73" x="322.167969"/>
       <use xlink:href="#TimesNewRomanPSMT-65" x="361.083984"/>
      </g>
     </g>
    </g>
   </g>
   <g id="matplotlib.axis_2">
    <g id="ytick_1">
     <g id="line2d_4">
      <defs>
       <path id="ma5f4b846f8" d="M 0 0 
L -3.5 0 
" style="stroke: #000000; stroke-width: 0.8"/>
      </defs>
      <g>
       <use xlink:href="#ma5f4b846f8" x="60.915938" y="233.466121" style="stroke: #000000; stroke-width: 0.8"/>
      </g>
     </g>
     <g id="text_4">
      <!-- 20000 -->
      <g transform="translate(28.915938 236.937996) scale(0.1 -0.1)">
       <defs>
        <path id="TimesNewRomanPSMT-32" d="M 2934 816 
L 2638 0 
L 138 0 
L 138 116 
Q 1241 1122 1691 1759 
Q 2141 2397 2141 2925 
Q 2141 3328 1894 3587 
Q 1647 3847 1303 3847 
Q 991 3847 742 3664 
Q 494 3481 375 3128 
L 259 3128 
Q 338 3706 661 4015 
Q 984 4325 1469 4325 
Q 1984 4325 2329 3994 
Q 2675 3663 2675 3213 
Q 2675 2891 2525 2569 
Q 2294 2063 1775 1497 
Q 997 647 803 472 
L 1909 472 
Q 2247 472 2383 497 
Q 2519 522 2628 598 
Q 2738 675 2819 816 
L 2934 816 
z
" transform="scale(0.015625)"/>
        <path id="TimesNewRomanPSMT-30" d="M 231 2094 
Q 231 2819 450 3342 
Q 669 3866 1031 4122 
Q 1313 4325 1613 4325 
Q 2100 4325 2488 3828 
Q 2972 3213 2972 2159 
Q 2972 1422 2759 906 
Q 2547 391 2217 158 
Q 1888 -75 1581 -75 
Q 975 -75 572 641 
Q 231 1244 231 2094 
z
M 844 2016 
Q 844 1141 1059 588 
Q 1238 122 1591 122 
Q 1759 122 1940 273 
Q 2122 425 2216 781 
Q 2359 1319 2359 2297 
Q 2359 3022 2209 3506 
Q 2097 3866 1919 4016 
Q 1791 4119 1609 4119 
Q 1397 4119 1231 3928 
Q 1006 3669 925 3112 
Q 844 2556 844 2016 
z
" transform="scale(0.015625)"/>
       </defs>
       <use xlink:href="#TimesNewRomanPSMT-32"/>
       <use xlink:href="#TimesNewRomanPSMT-30" x="50"/>
       <use xlink:href="#TimesNewRomanPSMT-30" x="100"/>
       <use xlink:href="#TimesNewRomanPSMT-30" x="150"/>
       <use xlink:href="#TimesNewRomanPSMT-30" x="200"/>
      </g>
     </g>
    </g>
    <g id="ytick_2">
     <g id="line2d_5">
      <g>
       <use xlink:href="#ma5f4b846f8" x="60.915938" y="182.615258" style="stroke: #000000; stroke-width: 0.8"/>
      </g>
     </g>
     <g id="text_5">
      <!-- 40000 -->
      <g transform="translate(28.915938 186.087133) scale(0.1 -0.1)">
       <defs>
        <path id="TimesNewRomanPSMT-34" d="M 2978 1563 
L 2978 1119 
L 2409 1119 
L 2409 0 
L 1894 0 
L 1894 1119 
L 100 1119 
L 100 1519 
L 2066 4325 
L 2409 4325 
L 2409 1563 
L 2978 1563 
z
M 1894 1563 
L 1894 3666 
L 406 1563 
L 1894 1563 
z
" transform="scale(0.015625)"/>
       </defs>
       <use xlink:href="#TimesNewRomanPSMT-34"/>
       <use xlink:href="#TimesNewRomanPSMT-30" x="50"/>
       <use xlink:href="#TimesNewRomanPSMT-30" x="100"/>
       <use xlink:href="#TimesNewRomanPSMT-30" x="150"/>
       <use xlink:href="#TimesNewRomanPSMT-30" x="200"/>
      </g>
     </g>
    </g>
    <g id="ytick_3">
     <g id="line2d_6">
      <g>
       <use xlink:href="#ma5f4b846f8" x="60.915938" y="131.764396" style="stroke: #000000; stroke-width: 0.8"/>
      </g>
     </g>
     <g id="text_6">
      <!-- 60000 -->
      <g transform="translate(28.915938 135.236271) scale(0.1 -0.1)">
       <defs>
        <path id="TimesNewRomanPSMT-36" d="M 2869 4325 
L 2869 4209 
Q 2456 4169 2195 4045 
Q 1934 3922 1679 3669 
Q 1425 3416 1258 3105 
Q 1091 2794 978 2366 
Q 1428 2675 1881 2675 
Q 2316 2675 2634 2325 
Q 2953 1975 2953 1425 
Q 2953 894 2631 456 
Q 2244 -75 1606 -75 
Q 1172 -75 869 213 
Q 275 772 275 1663 
Q 275 2231 503 2743 
Q 731 3256 1154 3653 
Q 1578 4050 1965 4187 
Q 2353 4325 2688 4325 
L 2869 4325 
z
M 925 2138 
Q 869 1716 869 1456 
Q 869 1156 980 804 
Q 1091 453 1309 247 
Q 1469 100 1697 100 
Q 1969 100 2183 356 
Q 2397 613 2397 1088 
Q 2397 1622 2184 2012 
Q 1972 2403 1581 2403 
Q 1463 2403 1327 2353 
Q 1191 2303 925 2138 
z
" transform="scale(0.015625)"/>
       </defs>
       <use xlink:href="#TimesNewRomanPSMT-36"/>
       <use xlink:href="#TimesNewRomanPSMT-30" x="50"/>
       <use xlink:href="#TimesNewRomanPSMT-30" x="100"/>
       <use xlink:href="#TimesNewRomanPSMT-30" x="150"/>
       <use xlink:href="#TimesNewRomanPSMT-30" x="200"/>
      </g>
     </g>
    </g>
    <g id="ytick_4">
     <g id="line2d_7">
      <g>
       <use xlink:href="#ma5f4b846f8" x="60.915938" y="80.913533" style="stroke: #000000; stroke-width: 0.8"/>
      </g>
     </g>
     <g id="text_7">
      <!-- 80000 -->
      <g transform="translate(28.915938 84.385408) scale(0.1 -0.1)">
       <defs>
        <path id="TimesNewRomanPSMT-38" d="M 1228 2134 
Q 725 2547 579 2797 
Q 434 3047 434 3316 
Q 434 3728 753 4026 
Q 1072 4325 1600 4325 
Q 2113 4325 2425 4047 
Q 2738 3769 2738 3413 
Q 2738 3175 2569 2928 
Q 2400 2681 1866 2347 
Q 2416 1922 2594 1678 
Q 2831 1359 2831 1006 
Q 2831 559 2490 242 
Q 2150 -75 1597 -75 
Q 994 -75 656 303 
Q 388 606 388 966 
Q 388 1247 577 1523 
Q 766 1800 1228 2134 
z
M 1719 2469 
Q 2094 2806 2194 3001 
Q 2294 3197 2294 3444 
Q 2294 3772 2109 3958 
Q 1925 4144 1606 4144 
Q 1288 4144 1088 3959 
Q 888 3775 888 3528 
Q 888 3366 970 3203 
Q 1053 3041 1206 2894 
L 1719 2469 
z
M 1375 2016 
Q 1116 1797 991 1539 
Q 866 1281 866 981 
Q 866 578 1086 336 
Q 1306 94 1647 94 
Q 1984 94 2187 284 
Q 2391 475 2391 747 
Q 2391 972 2272 1150 
Q 2050 1481 1375 2016 
z
" transform="scale(0.015625)"/>
       </defs>
       <use xlink:href="#TimesNewRomanPSMT-38"/>
       <use xlink:href="#TimesNewRomanPSMT-30" x="50"/>
       <use xlink:href="#TimesNewRomanPSMT-30" x="100"/>
       <use xlink:href="#TimesNewRomanPSMT-30" x="150"/>
       <use xlink:href="#TimesNewRomanPSMT-30" x="200"/>
      </g>
     </g>
    </g>
    <g id="ytick_5">
     <g id="line2d_8">
      <g>
       <use xlink:href="#ma5f4b846f8" x="60.915938" y="30.062671" style="stroke: #000000; stroke-width: 0.8"/>
      </g>
     </g>
     <g id="text_8">
      <!-- 100000 -->
      <g transform="translate(23.915938 33.534546) scale(0.1 -0.1)">
       <defs>
        <path id="TimesNewRomanPSMT-31" d="M 750 3822 
L 1781 4325 
L 1884 4325 
L 1884 747 
Q 1884 391 1914 303 
Q 1944 216 2037 169 
Q 2131 122 2419 116 
L 2419 0 
L 825 0 
L 825 116 
Q 1125 122 1212 167 
Q 1300 213 1334 289 
Q 1369 366 1369 747 
L 1369 3034 
Q 1369 3497 1338 3628 
Q 1316 3728 1258 3775 
Q 1200 3822 1119 3822 
Q 1003 3822 797 3725 
L 750 3822 
z
" transform="scale(0.015625)"/>
       </defs>
       <use xlink:href="#TimesNewRomanPSMT-31"/>
       <use xlink:href="#TimesNewRomanPSMT-30" x="50"/>
       <use xlink:href="#TimesNewRomanPSMT-30" x="100"/>
       <use xlink:href="#TimesNewRomanPSMT-30" x="150"/>
       <use xlink:href="#TimesNewRomanPSMT-30" x="200"/>
       <use xlink:href="#TimesNewRomanPSMT-30" x="250"/>
      </g>
     </g>
    </g>
    <g id="text_9">
     <!-- USD -->
     <g transform="translate(16.92125 160.841144) rotate(-90) scale(0.14 -0.14)">
      <defs>
       <path id="TimesNewRomanPSMT-55" d="M 3053 4122 
L 3053 4238 
L 4553 4238 
L 4553 4122 
L 4394 4122 
Q 4144 4122 4009 3913 
Q 3944 3816 3944 3463 
L 3944 1744 
Q 3944 1106 3817 754 
Q 3691 403 3320 151 
Q 2950 -100 2313 -100 
Q 1619 -100 1259 140 
Q 900 381 750 788 
Q 650 1066 650 1831 
L 650 3488 
Q 650 3878 542 4000 
Q 434 4122 194 4122 
L 34 4122 
L 34 4238 
L 1866 4238 
L 1866 4122 
L 1703 4122 
Q 1441 4122 1328 3956 
Q 1250 3844 1250 3488 
L 1250 1641 
Q 1250 1394 1295 1075 
Q 1341 756 1459 578 
Q 1578 400 1801 284 
Q 2025 169 2350 169 
Q 2766 169 3094 350 
Q 3422 531 3542 814 
Q 3663 1097 3663 1772 
L 3663 3488 
Q 3663 3884 3575 3984 
Q 3453 4122 3213 4122 
L 3053 4122 
z
" transform="scale(0.015625)"/>
       <path id="TimesNewRomanPSMT-53" d="M 2934 4334 
L 2934 2869 
L 2819 2869 
Q 2763 3291 2617 3541 
Q 2472 3791 2203 3937 
Q 1934 4084 1647 4084 
Q 1322 4084 1109 3886 
Q 897 3688 897 3434 
Q 897 3241 1031 3081 
Q 1225 2847 1953 2456 
Q 2547 2138 2764 1967 
Q 2981 1797 3098 1565 
Q 3216 1334 3216 1081 
Q 3216 600 2842 251 
Q 2469 -97 1881 -97 
Q 1697 -97 1534 -69 
Q 1438 -53 1133 45 
Q 828 144 747 144 
Q 669 144 623 97 
Q 578 50 556 -97 
L 441 -97 
L 441 1356 
L 556 1356 
Q 638 900 775 673 
Q 913 447 1195 297 
Q 1478 147 1816 147 
Q 2206 147 2432 353 
Q 2659 559 2659 841 
Q 2659 997 2573 1156 
Q 2488 1316 2306 1453 
Q 2184 1547 1640 1851 
Q 1097 2156 867 2337 
Q 638 2519 519 2737 
Q 400 2956 400 3219 
Q 400 3675 750 4004 
Q 1100 4334 1641 4334 
Q 1978 4334 2356 4169 
Q 2531 4091 2603 4091 
Q 2684 4091 2736 4139 
Q 2788 4188 2819 4334 
L 2934 4334 
z
" transform="scale(0.015625)"/>
      </defs>
      <use xlink:href="#TimesNewRomanPSMT-55"/>
      <use xlink:href="#TimesNewRomanPSMT-53" x="72.216797"/>
      <use xlink:href="#TimesNewRomanPSMT-44" x="127.832031"/>
     </g>
    </g>
   </g>
   <g id="patch_3">
    <path d="M 114.710338 162.98174 
L 129.381538 162.98174 
L 129.381538 116.526935 
L 114.710338 116.526935 
L 114.710338 162.98174 
L 114.710338 162.98174 
z
" clip-path="url(#pa3d93854eb)" style="fill: none; stroke: #000000; stroke-linejoin: miter"/>
   </g>
   <g id="line2d_9">
    <path d="M 122.045938 162.98174 
L 122.045938 228.701395 
" clip-path="url(#pa3d93854eb)" style="fill: none; stroke: #000000; stroke-linecap: square"/>
   </g>
   <g id="line2d_10">
    <path d="M 122.045938 116.526935 
L 122.045938 52.037871 
" clip-path="url(#pa3d93854eb)" style="fill: none; stroke: #000000; stroke-linecap: square"/>
   </g>
   <g id="line2d_11">
    <path d="M 118.378138 228.701395 
L 125.713738 228.701395 
" clip-path="url(#pa3d93854eb)" style="fill: none; stroke: #000000; stroke-linecap: square"/>
   </g>
   <g id="line2d_12">
    <path d="M 118.378138 52.037871 
L 125.713738 52.037871 
" clip-path="url(#pa3d93854eb)" style="fill: none; stroke: #000000; stroke-linecap: square"/>
   </g>
   <g id="patch_4">
    <path d="M 236.970337 186.760239 
L 251.641537 186.760239 
L 251.641537 132.551948 
L 236.970337 132.551948 
L 236.970337 186.760239 
L 236.970337 186.760239 
z
" clip-path="url(#pa3d93854eb)" style="fill: none; stroke: #000000; stroke-linejoin: miter"/>
   </g>
   <g id="line2d_13">
    <path d="M 244.305937 186.760239 
L 244.305937 253.013192 
" clip-path="url(#pa3d93854eb)" style="fill: none; stroke: #000000; stroke-linecap: square"/>
   </g>
   <g id="line2d_14">
    <path d="M 244.305937 132.551948 
L 244.305937 66.779536 
" clip-path="url(#pa3d93854eb)" style="fill: none; stroke: #000000; stroke-linecap: square"/>
   </g>
   <g id="line2d_15">
    <path d="M 240.638137 253.013192 
L 247.973737 253.013192 
" clip-path="url(#pa3d93854eb)" style="fill: none; stroke: #000000; stroke-linecap: square"/>
   </g>
   <g id="line2d_16">
    <path d="M 240.638137 66.779536 
L 247.973737 66.779536 
" clip-path="url(#pa3d93854eb)" style="fill: none; stroke: #000000; stroke-linecap: square"/>
   </g>
   <g id="patch_5">
    <path d="M 359.230337 179.630948 
L 373.901537 179.630948 
L 373.901537 129.4189 
L 359.230337 129.4189 
L 359.230337 179.630948 
L 359.230337 179.630948 
z
" clip-path="url(#pa3d93854eb)" style="fill: none; stroke: #000000; stroke-linejoin: miter"/>
   </g>
   <g id="line2d_17">
    <path d="M 366.565937 179.630948 
L 366.565937 237.915571 
" clip-path="url(#pa3d93854eb)" style="fill: none; stroke: #000000; stroke-linecap: square"/>
   </g>
   <g id="line2d_18">
    <path d="M 366.565937 129.4189 
L 366.565937 75.098737 
" clip-path="url(#pa3d93854eb)" style="fill: none; stroke: #000000; stroke-linecap: square"/>
   </g>
   <g id="line2d_19">
    <path d="M 362.898137 237.915571 
L 370.233737 237.915571 
" clip-path="url(#pa3d93854eb)" style="fill: none; stroke: #000000; stroke-linecap: square"/>
   </g>
   <g id="line2d_20">
    <path d="M 362.898137 75.098737 
L 370.233737 75.098737 
" clip-path="url(#pa3d93854eb)" style="fill: none; stroke: #000000; stroke-linecap: square"/>
   </g>
   <g id="line2d_21">
    <path d="M 114.710338 138.713166 
L 129.381538 138.713166 
" clip-path="url(#pa3d93854eb)" style="fill: none; stroke: #000000; stroke-width: 1.5; stroke-linecap: square"/>
   </g>
   <g id="line2d_22">
    <path d="M 236.970337 163.350409 
L 251.641537 163.350409 
" clip-path="url(#pa3d93854eb)" style="fill: none; stroke: #000000; stroke-width: 1.5; stroke-linecap: square"/>
   </g>
   <g id="line2d_23">
    <path d="M 359.230337 149.966462 
L 373.901537 149.966462 
" clip-path="url(#pa3d93854eb)" style="fill: none; stroke: #000000; stroke-width: 1.5; stroke-linecap: square"/>
   </g>
   <g id="patch_6">
    <path d="M 60.915938 263.630725 
L 60.915938 30.045 
" style="fill: none; stroke: #000000; stroke-linejoin: miter; stroke-linecap: square"/>
   </g>
   <g id="patch_7">
    <path d="M 427.695937 263.630725 
L 427.695937 30.045 
" style="fill: none; stroke: #000000; stroke-linejoin: miter; stroke-linecap: square"/>
   </g>
   <g id="patch_8">
    <path d="M 60.915938 263.630725 
L 427.695937 263.630725 
" style="fill: none; stroke: #000000; stroke-linejoin: miter; stroke-linecap: square"/>
   </g>
   <g id="patch_9">
    <path d="M 60.915938 30.045 
L 427.695937 30.045 
" style="fill: none; stroke: #000000; stroke-linejoin: miter; stroke-linecap: square"/>
   </g>
   <g id="text_10">
    <!-- Data on the monthly revenue of different companies (USD) -->
    <g transform="translate(43.722187 18.045) scale(0.16 -0.16)">
     <defs>
      <path id="TimesNewRomanPS-BoldMT-44" d="M 84 0 
L 84 116 
L 225 116 
Q 409 116 507 173 
Q 606 231 653 331 
Q 681 397 681 725 
L 681 3513 
Q 681 3838 647 3919 
Q 613 4000 508 4061 
Q 403 4122 225 4122 
L 84 4122 
L 84 4238 
L 1981 4238 
Q 2741 4238 3203 4031 
Q 3769 3778 4061 3265 
Q 4353 2753 4353 2106 
Q 4353 1659 4209 1282 
Q 4066 906 3837 661 
Q 3609 416 3311 267 
Q 3013 119 2581 38 
Q 2391 0 1981 0 
L 84 0 
z
M 1700 3997 
L 1700 691 
Q 1700 428 1725 368 
Q 1750 309 1809 278 
Q 1894 231 2053 231 
Q 2575 231 2850 588 
Q 3225 1069 3225 2081 
Q 3225 2897 2969 3384 
Q 2766 3766 2447 3903 
Q 2222 4000 1700 3997 
z
" transform="scale(0.015625)"/>
      <path id="TimesNewRomanPS-BoldMT-61" d="M 1828 431 
Q 1294 -41 869 -41 
Q 619 -41 453 123 
Q 288 288 288 534 
Q 288 869 575 1136 
Q 863 1403 1828 1847 
L 1828 2141 
Q 1828 2472 1792 2558 
Q 1756 2644 1656 2708 
Q 1556 2772 1431 2772 
Q 1228 2772 1097 2681 
Q 1016 2625 1016 2550 
Q 1016 2484 1103 2388 
Q 1222 2253 1222 2128 
Q 1222 1975 1108 1867 
Q 994 1759 809 1759 
Q 613 1759 480 1878 
Q 347 1997 347 2156 
Q 347 2381 525 2586 
Q 703 2791 1022 2900 
Q 1341 3009 1684 3009 
Q 2100 3009 2342 2832 
Q 2584 2656 2656 2450 
Q 2700 2319 2700 1847 
L 2700 713 
Q 2700 513 2715 461 
Q 2731 409 2762 384 
Q 2794 359 2834 359 
Q 2916 359 3000 475 
L 3094 400 
Q 2938 169 2770 64 
Q 2603 -41 2391 -41 
Q 2141 -41 2000 76 
Q 1859 194 1828 431 
z
M 1828 659 
L 1828 1638 
Q 1450 1416 1266 1163 
Q 1144 994 1144 822 
Q 1144 678 1247 569 
Q 1325 484 1466 484 
Q 1622 484 1828 659 
z
" transform="scale(0.015625)"/>
      <path id="TimesNewRomanPS-BoldMT-74" d="M 1375 3991 
L 1375 2922 
L 2069 2922 
L 2069 2613 
L 1375 2613 
L 1375 809 
Q 1375 556 1398 482 
Q 1422 409 1481 364 
Q 1541 319 1591 319 
Q 1794 319 1975 628 
L 2069 559 
Q 1816 -41 1247 -41 
Q 969 -41 776 114 
Q 584 269 531 459 
Q 500 566 500 1034 
L 500 2613 
L 119 2613 
L 119 2722 
Q 513 3000 789 3306 
Q 1066 3613 1272 3991 
L 1375 3991 
z
" transform="scale(0.015625)"/>
      <path id="TimesNewRomanPS-BoldMT-20" transform="scale(0.015625)"/>
      <path id="TimesNewRomanPS-BoldMT-6f" d="M 1594 3009 
Q 1975 3009 2303 2812 
Q 2631 2616 2801 2253 
Q 2972 1891 2972 1459 
Q 2972 838 2656 419 
Q 2275 -88 1603 -88 
Q 944 -88 587 375 
Q 231 838 231 1447 
Q 231 2075 595 2542 
Q 959 3009 1594 3009 
z
M 1606 2788 
Q 1447 2788 1333 2667 
Q 1219 2547 1183 2192 
Q 1147 1838 1147 1206 
Q 1147 872 1191 581 
Q 1225 359 1337 243 
Q 1450 128 1594 128 
Q 1734 128 1828 206 
Q 1950 313 1991 503 
Q 2053 800 2053 1703 
Q 2053 2234 1993 2432 
Q 1934 2631 1819 2722 
Q 1738 2788 1606 2788 
z
" transform="scale(0.015625)"/>
      <path id="TimesNewRomanPS-BoldMT-6e" d="M 1409 2922 
L 1409 2544 
Q 1634 2788 1840 2898 
Q 2047 3009 2284 3009 
Q 2569 3009 2756 2851 
Q 2944 2694 3006 2459 
Q 3056 2281 3056 1775 
L 3056 638 
Q 3056 300 3117 217 
Q 3178 134 3372 113 
L 3372 0 
L 1894 0 
L 1894 113 
Q 2059 134 2131 250 
Q 2181 328 2181 638 
L 2181 1938 
Q 2181 2297 2153 2390 
Q 2125 2484 2058 2536 
Q 1991 2588 1909 2588 
Q 1641 2588 1409 2203 
L 1409 638 
Q 1409 309 1470 221 
Q 1531 134 1697 113 
L 1697 0 
L 219 0 
L 219 113 
Q 403 131 481 231 
Q 534 300 534 638 
L 534 2288 
Q 534 2619 473 2700 
Q 413 2781 219 2806 
L 219 2922 
L 1409 2922 
z
" transform="scale(0.015625)"/>
      <path id="TimesNewRomanPS-BoldMT-68" d="M 1409 4238 
L 1409 2547 
Q 1650 2800 1850 2904 
Q 2050 3009 2266 3009 
Q 2541 3009 2736 2853 
Q 2931 2697 2995 2486 
Q 3059 2275 3059 1775 
L 3059 634 
Q 3059 300 3121 217 
Q 3184 134 3375 113 
L 3375 0 
L 1894 0 
L 1894 113 
Q 2050 134 2128 238 
Q 2184 319 2184 634 
L 2184 1938 
Q 2184 2300 2156 2392 
Q 2128 2484 2061 2536 
Q 1994 2588 1909 2588 
Q 1784 2588 1665 2502 
Q 1547 2416 1409 2200 
L 1409 634 
Q 1409 322 1456 244 
Q 1516 138 1700 113 
L 1700 0 
L 219 0 
L 219 113 
Q 403 131 481 231 
Q 534 300 534 634 
L 534 3603 
Q 534 3934 473 4015 
Q 413 4097 219 4122 
L 219 4238 
L 1409 4238 
z
" transform="scale(0.015625)"/>
      <path id="TimesNewRomanPS-BoldMT-65" d="M 2691 1566 
L 1088 1566 
Q 1116 984 1397 647 
Q 1613 388 1916 388 
Q 2103 388 2256 492 
Q 2409 597 2584 869 
L 2691 800 
Q 2453 316 2165 114 
Q 1878 -88 1500 -88 
Q 850 -88 516 413 
Q 247 816 247 1413 
Q 247 2144 642 2576 
Q 1038 3009 1569 3009 
Q 2013 3009 2339 2645 
Q 2666 2281 2691 1566 
z
M 1922 1775 
Q 1922 2278 1867 2465 
Q 1813 2653 1697 2750 
Q 1631 2806 1522 2806 
Q 1359 2806 1256 2647 
Q 1072 2369 1072 1884 
L 1072 1775 
L 1922 1775 
z
" transform="scale(0.015625)"/>
      <path id="TimesNewRomanPS-BoldMT-6d" d="M 1428 2922 
L 1428 2538 
Q 1669 2800 1873 2904 
Q 2078 3009 2322 3009 
Q 2603 3009 2793 2878 
Q 2984 2747 3088 2478 
Q 3338 2759 3567 2884 
Q 3797 3009 4047 3009 
Q 4350 3009 4529 2870 
Q 4709 2731 4779 2517 
Q 4850 2303 4850 1834 
L 4850 638 
Q 4850 300 4911 219 
Q 4972 138 5166 113 
L 5166 0 
L 3656 0 
L 3656 113 
Q 3834 128 3919 250 
Q 3975 334 3975 638 
L 3975 1894 
Q 3975 2284 3944 2390 
Q 3913 2497 3845 2548 
Q 3778 2600 3688 2600 
Q 3553 2600 3415 2501 
Q 3278 2403 3138 2206 
L 3138 638 
Q 3138 322 3191 241 
Q 3263 125 3466 113 
L 3466 0 
L 1953 0 
L 1953 113 
Q 2075 119 2145 173 
Q 2216 228 2239 304 
Q 2263 381 2263 638 
L 2263 1894 
Q 2263 2291 2231 2391 
Q 2200 2491 2126 2547 
Q 2053 2603 1969 2603 
Q 1844 2603 1741 2538 
Q 1594 2441 1428 2206 
L 1428 638 
Q 1428 328 1489 229 
Q 1550 131 1744 113 
L 1744 0 
L 238 0 
L 238 113 
Q 422 131 500 231 
Q 553 300 553 638 
L 553 2288 
Q 553 2619 492 2700 
Q 431 2781 238 2806 
L 238 2922 
L 1428 2922 
z
" transform="scale(0.015625)"/>
      <path id="TimesNewRomanPS-BoldMT-6c" d="M 1359 4238 
L 1359 606 
Q 1359 297 1431 211 
Q 1503 125 1713 113 
L 1713 0 
L 134 0 
L 134 113 
Q 328 119 422 225 
Q 484 297 484 606 
L 484 3631 
Q 484 3938 412 4023 
Q 341 4109 134 4122 
L 134 4238 
L 1359 4238 
z
" transform="scale(0.015625)"/>
      <path id="TimesNewRomanPS-BoldMT-79" d="M 1556 -119 
L 613 2047 
Q 400 2538 298 2650 
Q 197 2763 53 2806 
L 53 2922 
L 1606 2922 
L 1606 2806 
Q 1453 2800 1390 2747 
Q 1328 2694 1328 2619 
Q 1328 2500 1484 2150 
L 1984 1006 
L 2325 1891 
Q 2509 2363 2509 2547 
Q 2509 2663 2432 2731 
Q 2356 2800 2163 2806 
L 2163 2922 
L 3141 2922 
L 3141 2806 
Q 2997 2791 2906 2695 
Q 2816 2600 2603 2047 
L 1769 -119 
Q 1453 -931 1300 -1119 
Q 1084 -1381 759 -1381 
Q 500 -1381 339 -1232 
Q 178 -1084 178 -875 
Q 178 -694 289 -575 
Q 400 -456 563 -456 
Q 719 -456 814 -556 
Q 909 -656 913 -866 
Q 916 -984 941 -1019 
Q 966 -1053 1013 -1053 
Q 1088 -1053 1172 -963 
Q 1297 -831 1466 -363 
L 1556 -119 
z
" transform="scale(0.015625)"/>
      <path id="TimesNewRomanPS-BoldMT-72" d="M 1428 2922 
L 1428 2259 
Q 1719 2713 1937 2861 
Q 2156 3009 2359 3009 
Q 2534 3009 2639 2901 
Q 2744 2794 2744 2597 
Q 2744 2388 2642 2272 
Q 2541 2156 2397 2156 
Q 2231 2156 2109 2262 
Q 1988 2369 1966 2381 
Q 1934 2400 1894 2400 
Q 1803 2400 1722 2331 
Q 1594 2225 1528 2028 
Q 1428 1725 1428 1359 
L 1428 688 
L 1431 513 
Q 1431 334 1453 284 
Q 1491 200 1564 161 
Q 1638 122 1813 113 
L 1813 0 
L 234 0 
L 234 113 
Q 425 128 492 217 
Q 559 306 559 688 
L 559 2303 
Q 559 2553 534 2622 
Q 503 2709 443 2750 
Q 384 2791 234 2806 
L 234 2922 
L 1428 2922 
z
" transform="scale(0.015625)"/>
      <path id="TimesNewRomanPS-BoldMT-76" d="M 1534 -88 
L 550 2178 
Q 372 2588 272 2697 
Q 200 2778 59 2806 
L 59 2922 
L 1613 2922 
L 1613 2806 
Q 1466 2806 1413 2753 
Q 1338 2684 1338 2591 
Q 1338 2475 1475 2156 
L 1956 1059 
L 2341 2006 
Q 2506 2413 2506 2581 
Q 2506 2678 2436 2739 
Q 2366 2800 2188 2806 
L 2188 2922 
L 3144 2922 
L 3144 2806 
Q 3006 2788 2918 2703 
Q 2831 2619 2656 2206 
L 1681 -88 
L 1534 -88 
z
" transform="scale(0.015625)"/>
      <path id="TimesNewRomanPS-BoldMT-75" d="M 3038 2922 
L 3038 634 
Q 3038 300 3100 217 
Q 3163 134 3353 113 
L 3353 0 
L 2163 0 
L 2163 391 
Q 1953 141 1743 26 
Q 1534 -88 1275 -88 
Q 1028 -88 836 64 
Q 644 216 578 419 
Q 513 622 513 1128 
L 513 2288 
Q 513 2619 452 2700 
Q 391 2781 197 2806 
L 197 2922 
L 1388 2922 
L 1388 925 
Q 1388 613 1417 522 
Q 1447 431 1511 384 
Q 1575 338 1659 338 
Q 1772 338 1863 397 
Q 1988 478 2163 725 
L 2163 2288 
Q 2163 2619 2102 2700 
Q 2041 2781 1847 2806 
L 1847 2922 
L 3038 2922 
z
" transform="scale(0.015625)"/>
      <path id="TimesNewRomanPS-BoldMT-66" d="M 1497 2616 
L 1497 588 
Q 1497 294 1559 219 
Q 1659 103 1928 113 
L 1928 0 
L 206 0 
L 206 113 
Q 403 116 486 158 
Q 569 200 600 275 
Q 631 350 631 588 
L 631 2616 
L 206 2616 
L 206 2922 
L 631 2922 
L 631 3138 
L 628 3284 
Q 628 3734 958 4034 
Q 1288 4334 1850 4334 
Q 2234 4334 2420 4190 
Q 2606 4047 2606 3872 
Q 2606 3731 2490 3628 
Q 2375 3525 2184 3525 
Q 2022 3525 1926 3609 
Q 1831 3694 1831 3797 
Q 1831 3825 1850 3913 
Q 1863 3966 1863 4013 
Q 1863 4078 1825 4109 
Q 1775 4156 1703 4156 
Q 1613 4156 1552 4081 
Q 1491 4006 1491 3841 
L 1497 3294 
L 1497 2922 
L 1928 2922 
L 1928 2616 
L 1497 2616 
z
" transform="scale(0.015625)"/>
      <path id="TimesNewRomanPS-BoldMT-64" d="M 3056 4238 
L 3056 875 
Q 3056 534 3075 472 
Q 3100 369 3170 319 
Q 3241 269 3416 256 
L 3416 153 
L 2181 -88 
L 2181 375 
Q 1959 106 1786 9 
Q 1613 -88 1394 -88 
Q 834 -88 509 413 
Q 247 819 247 1409 
Q 247 1881 409 2254 
Q 572 2628 855 2818 
Q 1138 3009 1463 3009 
Q 1672 3009 1834 2928 
Q 1997 2847 2181 2644 
L 2181 3525 
Q 2181 3859 2153 3928 
Q 2116 4019 2041 4062 
Q 1966 4106 1759 4106 
L 1759 4238 
L 3056 4238 
z
M 2181 2256 
Q 1950 2700 1616 2700 
Q 1500 2700 1425 2638 
Q 1309 2541 1236 2297 
Q 1163 2053 1163 1550 
Q 1163 997 1244 731 
Q 1325 466 1466 347 
Q 1538 288 1663 288 
Q 1938 288 2181 719 
L 2181 2256 
z
" transform="scale(0.015625)"/>
      <path id="TimesNewRomanPS-BoldMT-69" d="M 919 4338 
Q 1122 4338 1262 4195 
Q 1403 4053 1403 3853 
Q 1403 3653 1261 3512 
Q 1119 3372 919 3372 
Q 719 3372 578 3512 
Q 438 3653 438 3853 
Q 438 4053 578 4195 
Q 719 4338 919 4338 
z
M 1356 2922 
L 1356 606 
Q 1356 297 1428 211 
Q 1500 125 1709 113 
L 1709 0 
L 131 0 
L 131 113 
Q 325 119 419 225 
Q 481 297 481 606 
L 481 2313 
Q 481 2622 409 2708 
Q 338 2794 131 2806 
L 131 2922 
L 1356 2922 
z
" transform="scale(0.015625)"/>
      <path id="TimesNewRomanPS-BoldMT-63" d="M 2600 753 
L 2697 678 
Q 2491 291 2183 101 
Q 1875 -88 1528 -88 
Q 944 -88 594 353 
Q 244 794 244 1413 
Q 244 2009 563 2463 
Q 947 3009 1622 3009 
Q 2075 3009 2342 2781 
Q 2609 2553 2609 2272 
Q 2609 2094 2501 1987 
Q 2394 1881 2219 1881 
Q 2034 1881 1914 2003 
Q 1794 2125 1766 2438 
Q 1747 2634 1675 2713 
Q 1603 2791 1506 2791 
Q 1356 2791 1250 2631 
Q 1088 2391 1088 1894 
Q 1088 1481 1219 1104 
Q 1350 728 1578 544 
Q 1750 409 1984 409 
Q 2138 409 2275 481 
Q 2413 553 2600 753 
z
" transform="scale(0.015625)"/>
      <path id="TimesNewRomanPS-BoldMT-70" d="M 1347 297 
L 1347 -791 
Q 1347 -1016 1383 -1097 
Q 1419 -1178 1494 -1215 
Q 1569 -1253 1788 -1253 
L 1788 -1369 
L 122 -1369 
L 122 -1253 
Q 316 -1247 409 -1144 
Q 472 -1072 472 -772 
L 472 2313 
Q 472 2622 400 2708 
Q 328 2794 122 2806 
L 122 2922 
L 1347 2922 
L 1347 2538 
Q 1500 2763 1659 2863 
Q 1888 3009 2156 3009 
Q 2478 3009 2742 2806 
Q 3006 2603 3143 2245 
Q 3281 1888 3281 1475 
Q 3281 1031 3139 664 
Q 2997 297 2726 104 
Q 2456 -88 2125 -88 
Q 1884 -88 1675 19 
Q 1519 100 1347 297 
z
M 1347 613 
Q 1616 231 1922 231 
Q 2091 231 2200 409 
Q 2363 672 2363 1409 
Q 2363 2166 2184 2444 
Q 2066 2628 1866 2628 
Q 1550 2628 1347 2172 
L 1347 613 
z
" transform="scale(0.015625)"/>
      <path id="TimesNewRomanPS-BoldMT-73" d="M 2063 3003 
L 2109 2006 
L 2003 2006 
Q 1813 2450 1608 2612 
Q 1403 2775 1200 2775 
Q 1072 2775 981 2689 
Q 891 2603 891 2491 
Q 891 2406 953 2328 
Q 1053 2200 1512 1889 
Q 1972 1578 2117 1361 
Q 2263 1144 2263 875 
Q 2263 631 2141 397 
Q 2019 163 1797 37 
Q 1575 -88 1306 -88 
Q 1097 -88 747 44 
Q 653 78 619 78 
Q 516 78 447 -78 
L 344 -78 
L 294 972 
L 400 972 
Q 541 559 786 353 
Q 1031 147 1250 147 
Q 1400 147 1495 239 
Q 1591 331 1591 463 
Q 1591 613 1497 722 
Q 1403 831 1078 1053 
Q 600 1384 459 1559 
Q 253 1816 253 2125 
Q 253 2463 486 2736 
Q 719 3009 1159 3009 
Q 1397 3009 1619 2894 
Q 1703 2847 1756 2847 
Q 1813 2847 1847 2870 
Q 1881 2894 1956 3003 
L 2063 3003 
z
" transform="scale(0.015625)"/>
      <path id="TimesNewRomanPS-BoldMT-28" d="M 2056 4334 
L 2056 4191 
Q 1731 3978 1578 3775 
Q 1366 3494 1247 3053 
Q 1097 2506 1097 1525 
Q 1097 600 1233 87 
Q 1369 -425 1603 -741 
Q 1766 -959 2056 -1125 
L 2056 -1281 
Q 1303 -1028 779 -248 
Q 256 531 256 1544 
Q 256 2544 778 3314 
Q 1300 4084 2056 4334 
z
" transform="scale(0.015625)"/>
      <path id="TimesNewRomanPS-BoldMT-55" d="M 150 4238 
L 2338 4238 
L 2338 4122 
L 2228 4122 
Q 1981 4122 1889 4070 
Q 1797 4019 1758 3928 
Q 1719 3838 1719 3475 
L 1719 1400 
Q 1719 831 1805 647 
Q 1891 463 2087 341 
Q 2284 219 2584 219 
Q 2928 219 3170 373 
Q 3413 528 3533 800 
Q 3653 1072 3653 1747 
L 3653 3475 
Q 3653 3759 3593 3881 
Q 3534 4003 3444 4050 
Q 3303 4122 3047 4122 
L 3047 4238 
L 4513 4238 
L 4513 4122 
L 4425 4122 
Q 4247 4122 4128 4050 
Q 4009 3978 3956 3834 
Q 3916 3734 3916 3475 
L 3916 1866 
Q 3916 1119 3817 787 
Q 3719 456 3337 178 
Q 2956 -100 2297 -100 
Q 1747 -100 1447 47 
Q 1038 247 869 559 
Q 700 872 700 1400 
L 700 3475 
Q 700 3841 659 3930 
Q 619 4019 519 4072 
Q 419 4125 150 4122 
L 150 4238 
z
" transform="scale(0.015625)"/>
      <path id="TimesNewRomanPS-BoldMT-53" d="M 3006 4334 
L 3041 2922 
L 2913 2922 
Q 2822 3453 2467 3776 
Q 2113 4100 1700 4100 
Q 1381 4100 1195 3929 
Q 1009 3759 1009 3538 
Q 1009 3397 1075 3288 
Q 1166 3141 1366 2997 
Q 1513 2894 2044 2631 
Q 2788 2266 3047 1941 
Q 3303 1616 3303 1197 
Q 3303 666 2889 283 
Q 2475 -100 1838 -100 
Q 1638 -100 1459 -59 
Q 1281 -19 1013 94 
Q 863 156 766 156 
Q 684 156 593 93 
Q 503 31 447 -97 
L 331 -97 
L 331 1503 
L 447 1503 
Q 584 828 976 473 
Q 1369 119 1822 119 
Q 2172 119 2380 309 
Q 2588 500 2588 753 
Q 2588 903 2508 1043 
Q 2428 1184 2265 1311 
Q 2103 1438 1691 1641 
Q 1113 1925 859 2125 
Q 606 2325 470 2572 
Q 334 2819 334 3116 
Q 334 3622 706 3978 
Q 1078 4334 1644 4334 
Q 1850 4334 2044 4284 
Q 2191 4247 2402 4145 
Q 2613 4044 2697 4044 
Q 2778 4044 2825 4094 
Q 2872 4144 2913 4334 
L 3006 4334 
z
" transform="scale(0.015625)"/>
      <path id="TimesNewRomanPS-BoldMT-29" d="M 78 -1281 
L 78 -1138 
Q 403 -922 556 -719 
Q 766 -438 888 0 
Q 1038 550 1038 1531 
Q 1038 2456 902 2967 
Q 766 3478 531 3794 
Q 369 4013 78 4178 
L 78 4334 
Q 831 4081 1354 3301 
Q 1878 2522 1878 1509 
Q 1878 513 1354 -257 
Q 831 -1028 78 -1281 
z
" transform="scale(0.015625)"/>
     </defs>
     <use xlink:href="#TimesNewRomanPS-BoldMT-44"/>
     <use xlink:href="#TimesNewRomanPS-BoldMT-61" x="72.216797"/>
     <use xlink:href="#TimesNewRomanPS-BoldMT-74" x="122.216797"/>
     <use xlink:href="#TimesNewRomanPS-BoldMT-61" x="155.517578"/>
     <use xlink:href="#TimesNewRomanPS-BoldMT-20" x="205.517578"/>
     <use xlink:href="#TimesNewRomanPS-BoldMT-6f" x="230.517578"/>
     <use xlink:href="#TimesNewRomanPS-BoldMT-6e" x="280.517578"/>
     <use xlink:href="#TimesNewRomanPS-BoldMT-20" x="336.132812"/>
     <use xlink:href="#TimesNewRomanPS-BoldMT-74" x="361.132812"/>
     <use xlink:href="#TimesNewRomanPS-BoldMT-68" x="394.433594"/>
     <use xlink:href="#TimesNewRomanPS-BoldMT-65" x="450.048828"/>
     <use xlink:href="#TimesNewRomanPS-BoldMT-20" x="494.433594"/>
     <use xlink:href="#TimesNewRomanPS-BoldMT-6d" x="519.433594"/>
     <use xlink:href="#TimesNewRomanPS-BoldMT-6f" x="602.734375"/>
     <use xlink:href="#TimesNewRomanPS-BoldMT-6e" x="652.734375"/>
     <use xlink:href="#TimesNewRomanPS-BoldMT-74" x="708.349609"/>
     <use xlink:href="#TimesNewRomanPS-BoldMT-68" x="741.650391"/>
     <use xlink:href="#TimesNewRomanPS-BoldMT-6c" x="797.265625"/>
     <use xlink:href="#TimesNewRomanPS-BoldMT-79" x="825.048828"/>
     <use xlink:href="#TimesNewRomanPS-BoldMT-20" x="875.048828"/>
     <use xlink:href="#TimesNewRomanPS-BoldMT-72" x="900.048828"/>
     <use xlink:href="#TimesNewRomanPS-BoldMT-65" x="942.683594"/>
     <use xlink:href="#TimesNewRomanPS-BoldMT-76" x="987.068359"/>
     <use xlink:href="#TimesNewRomanPS-BoldMT-65" x="1037.068359"/>
     <use xlink:href="#TimesNewRomanPS-BoldMT-6e" x="1081.453125"/>
     <use xlink:href="#TimesNewRomanPS-BoldMT-75" x="1137.068359"/>
     <use xlink:href="#TimesNewRomanPS-BoldMT-65" x="1192.683594"/>
     <use xlink:href="#TimesNewRomanPS-BoldMT-20" x="1237.068359"/>
     <use xlink:href="#TimesNewRomanPS-BoldMT-6f" x="1262.068359"/>
     <use xlink:href="#TimesNewRomanPS-BoldMT-66" x="1312.068359"/>
     <use xlink:href="#TimesNewRomanPS-BoldMT-20" x="1345.369141"/>
     <use xlink:href="#TimesNewRomanPS-BoldMT-64" x="1370.369141"/>
     <use xlink:href="#TimesNewRomanPS-BoldMT-69" x="1425.984375"/>
     <use xlink:href="#TimesNewRomanPS-BoldMT-66" x="1453.767578"/>
     <use xlink:href="#TimesNewRomanPS-BoldMT-66" x="1487.068359"/>
     <use xlink:href="#TimesNewRomanPS-BoldMT-65" x="1520.369141"/>
     <use xlink:href="#TimesNewRomanPS-BoldMT-72" x="1564.753906"/>
     <use xlink:href="#TimesNewRomanPS-BoldMT-65" x="1607.388672"/>
     <use xlink:href="#TimesNewRomanPS-BoldMT-6e" x="1651.773438"/>
     <use xlink:href="#TimesNewRomanPS-BoldMT-74" x="1707.388672"/>
     <use xlink:href="#TimesNewRomanPS-BoldMT-20" x="1740.689453"/>
     <use xlink:href="#TimesNewRomanPS-BoldMT-63" x="1765.689453"/>
     <use xlink:href="#TimesNewRomanPS-BoldMT-6f" x="1810.074219"/>
     <use xlink:href="#TimesNewRomanPS-BoldMT-6d" x="1860.074219"/>
     <use xlink:href="#TimesNewRomanPS-BoldMT-70" x="1943.375"/>
     <use xlink:href="#TimesNewRomanPS-BoldMT-61" x="1998.990234"/>
     <use xlink:href="#TimesNewRomanPS-BoldMT-6e" x="2048.990234"/>
     <use xlink:href="#TimesNewRomanPS-BoldMT-69" x="2104.605469"/>
     <use xlink:href="#TimesNewRomanPS-BoldMT-65" x="2132.388672"/>
     <use xlink:href="#TimesNewRomanPS-BoldMT-73" x="2176.773438"/>
     <use xlink:href="#TimesNewRomanPS-BoldMT-20" x="2215.689453"/>
     <use xlink:href="#TimesNewRomanPS-BoldMT-28" x="2240.689453"/>
     <use xlink:href="#TimesNewRomanPS-BoldMT-55" x="2273.990234"/>
     <use xlink:href="#TimesNewRomanPS-BoldMT-53" x="2346.207031"/>
     <use xlink:href="#TimesNewRomanPS-BoldMT-44" x="2401.822266"/>
     <use xlink:href="#TimesNewRomanPS-BoldMT-29" x="2474.039062"/>
    </g>
   </g>
  </g>
 </g>
 <defs>
  <clipPath id="pa3d93854eb">
   <rect x="60.915938" y="30.045" width="366.78" height="233.585725"/>
  </clipPath>
 </defs>
</svg>
