<?xml version="1.0" encoding="utf-8" standalone="no"?>
<!DOCTYPE svg PUBLIC "-//W3C//DTD SVG 1.1//EN"
  "http://www.w3.org/Graphics/SVG/1.1/DTD/svg11.dtd">
<svg xmlns:xlink="http://www.w3.org/1999/xlink" width="538.4pt" height="319.934957pt" viewBox="0 0 538.4 319.934957" xmlns="http://www.w3.org/2000/svg" version="1.1">
 <metadata>
  <rdf:RDF xmlns:dc="http://purl.org/dc/elements/1.1/" xmlns:cc="http://creativecommons.org/ns#" xmlns:rdf="http://www.w3.org/1999/02/22-rdf-syntax-ns#">
   <cc:Work>
    <dc:type rdf:resource="http://purl.org/dc/dcmitype/StillImage"/>
    <dc:date>2025-05-26T17:51:45.738525</dc:date>
    <dc:format>image/svg+xml</dc:format>
    <dc:creator>
     <cc:Agent>
      <dc:title>Matplotlib v3.7.2, https://matplotlib.org/</dc:title>
     </cc:Agent>
    </dc:creator>
   </cc:Work>
  </rdf:RDF>
 </metadata>
 <defs>
  <style type="text/css">*{stroke-linejoin: round; stroke-linecap: butt}</style>
 </defs>
 <g id="figure_1">
  <g id="patch_1">
   <path d="M 0 319.934957 
L 538.4 319.934957 
L 538.4 0 
L 0 0 
z
" style="fill: #ffffff"/>
  </g>
  <g id="axes_1">
   <g id="patch_2">
    <path d="M 80.8 258.900181 
L 457.6 258.900181 
L 457.6 30.045 
L 80.8 30.045 
z
" style="fill: #ffffff"/>
   </g>
   <g id="PolyCollection_1">
    <defs>
     <path id="mf6413009f8" d="M 128.686851 -117.503885 
L 127.113149 -117.503885 
L 127.112293 -119.140083 
L 127.123683 -120.77628 
L 127.144673 -122.412478 
L 127.171587 -124.048676 
L 127.199974 -125.684873 
L 127.22491 -127.321071 
L 127.241338 -128.957268 
L 127.244365 -130.593466 
L 127.229507 -132.229664 
L 127.192848 -133.865861 
L 127.1311 -135.502059 
L 127.041558 -137.138257 
L 126.921992 -138.774454 
L 126.770475 -140.410652 
L 126.585211 -142.046849 
L 126.364381 -143.683047 
L 126.10605 -145.319245 
L 125.808161 -146.955442 
L 125.468621 -148.59164 
L 125.085472 -150.227837 
L 124.657128 -151.864035 
L 124.182645 -153.500233 
L 123.66197 -155.13643 
L 123.09615 -156.772628 
L 122.487437 -158.408825 
L 121.839292 -160.045023 
L 121.156258 -161.681221 
L 120.443716 -163.317418 
L 119.707545 -164.953616 
L 118.953708 -166.589813 
L 118.187812 -168.226011 
L 117.414675 -169.862209 
L 116.637948 -171.498406 
L 115.859819 -173.134604 
L 115.080828 -174.770801 
L 114.299807 -176.406999 
L 113.513924 -178.043197 
L 112.71882 -179.679394 
L 111.908796 -181.315592 
L 111.077035 -182.95179 
L 110.215816 -184.587987 
L 109.316748 -186.224185 
L 108.371039 -187.860382 
L 107.369885 -189.49658 
L 106.305029 -191.132778 
L 105.169591 -192.768975 
L 103.959184 -194.405173 
L 102.673305 -196.04137 
L 101.316884 -197.677568 
L 99.901812 -199.313766 
L 98.448185 -200.949963 
L 96.984968 -202.586161 
L 95.549827 -204.222358 
L 94.18792 -205.858556 
L 92.949604 -207.494754 
L 91.887138 -209.130951 
L 91.050673 -210.767149 
L 90.483918 -212.403346 
L 90.22 -214.039544 
L 90.278014 -215.675742 
L 90.660731 -217.311939 
L 91.353767 -218.948137 
L 92.326363 -220.584334 
L 93.533706 -222.220532 
L 94.92054 -223.85673 
L 96.42567 -225.492927 
L 97.986861 -227.129125 
L 99.545615 -228.765322 
L 101.051335 -230.40152 
L 102.464487 -232.037718 
L 103.758489 -233.673915 
L 104.920219 -235.310113 
L 105.949184 -236.946311 
L 106.855548 -238.582508 
L 107.657327 -240.218706 
L 108.377146 -241.854903 
L 109.03899 -243.491101 
L 109.665324 -245.127299 
L 110.274925 -246.763496 
L 110.881595 -248.399694 
L 111.493822 -250.035891 
L 112.115287 -251.672089 
L 112.745999 -253.308287 
L 113.383758 -254.944484 
L 114.025641 -256.580682 
L 114.669235 -258.216879 
L 115.313416 -259.853077 
L 115.958604 -261.489275 
L 116.606524 -263.125472 
L 117.259597 -264.76167 
L 117.920141 -266.397867 
L 118.58958 -268.034065 
L 119.267809 -269.670263 
L 119.952837 -271.30646 
L 120.640733 -272.942658 
L 121.325862 -274.578855 
L 122.001328 -276.215053 
L 122.659546 -277.851251 
L 123.292835 -279.487448 
L 132.507165 -279.487448 
L 132.507165 -279.487448 
L 133.140454 -277.851251 
L 133.798672 -276.215053 
L 134.474138 -274.578855 
L 135.159267 -272.942658 
L 135.847163 -271.30646 
L 136.532191 -269.670263 
L 137.21042 -268.034065 
L 137.879859 -266.397867 
L 138.540403 -264.76167 
L 139.193476 -263.125472 
L 139.841396 -261.489275 
L 140.486584 -259.853077 
L 141.130765 -258.216879 
L 141.774359 -256.580682 
L 142.416242 -254.944484 
L 143.054001 -253.308287 
L 143.684713 -251.672089 
L 144.306178 -250.035891 
L 144.918405 -248.399694 
L 145.525075 -246.763496 
L 146.134676 -245.127299 
L 146.76101 -243.491101 
L 147.422854 -241.854903 
L 148.142673 -240.218706 
L 148.944452 -238.582508 
L 149.850816 -236.946311 
L 150.879781 -235.310113 
L 152.041511 -233.673915 
L 153.335513 -232.037718 
L 154.748665 -230.40152 
L 156.254385 -228.765322 
L 157.813139 -227.129125 
L 159.37433 -225.492927 
L 160.87946 -223.85673 
L 162.266294 -222.220532 
L 163.473637 -220.584334 
L 164.446233 -218.948137 
L 165.139269 -217.311939 
L 165.521986 -215.675742 
L 165.58 -214.039544 
L 165.316082 -212.403346 
L 164.749327 -210.767149 
L 163.912862 -209.130951 
L 162.850396 -207.494754 
L 161.61208 -205.858556 
L 160.250173 -204.222358 
L 158.815032 -202.586161 
L 157.351815 -200.949963 
L 155.898188 -199.313766 
L 154.483116 -197.677568 
L 153.126695 -196.04137 
L 151.840816 -194.405173 
L 150.630409 -192.768975 
L 149.494971 -191.132778 
L 148.430115 -189.49658 
L 147.428961 -187.860382 
L 146.483252 -186.224185 
L 145.584184 -184.587987 
L 144.722965 -182.95179 
L 143.891204 -181.315592 
L 143.08118 -179.679394 
L 142.286076 -178.043197 
L 141.500193 -176.406999 
L 140.719172 -174.770801 
L 139.940181 -173.134604 
L 139.162052 -171.498406 
L 138.385325 -169.862209 
L 137.612188 -168.226011 
L 136.846292 -166.589813 
L 136.092455 -164.953616 
L 135.356284 -163.317418 
L 134.643742 -161.681221 
L 133.960708 -160.045023 
L 133.312563 -158.408825 
L 132.70385 -156.772628 
L 132.13803 -155.13643 
L 131.617355 -153.500233 
L 131.142872 -151.864035 
L 130.714528 -150.227837 
L 130.331379 -148.59164 
L 129.991839 -146.955442 
L 129.69395 -145.319245 
L 129.435619 -143.683047 
L 129.214789 -142.046849 
L 129.029525 -140.410652 
L 128.878008 -138.774454 
L 128.758442 -137.138257 
L 128.6689 -135.502059 
L 128.607152 -133.865861 
L 128.570493 -132.229664 
L 128.555635 -130.593466 
L 128.558662 -128.957268 
L 128.57509 -127.321071 
L 128.600026 -125.684873 
L 128.628413 -124.048676 
L 128.655327 -122.412478 
L 128.676317 -120.77628 
L 128.687707 -119.140083 
L 128.686851 -117.503885 
z
" style="stroke: #000000; stroke-opacity: 0.7"/>
    </defs>
    <g clip-path="url(#p8b22ebdb31)">
     <use xlink:href="#mf6413009f8" x="0" y="319.934957" style="fill: #fc8d62; fill-opacity: 0.7; stroke: #000000; stroke-opacity: 0.7"/>
    </g>
   </g>
   <g id="PolyCollection_2">
    <defs>
     <path id="mf97d4bcb02" d="M 224.51728 -71.437284 
L 219.68272 -71.437284 
L 219.32798 -73.280484 
L 218.9447 -75.123685 
L 218.535791 -76.966885 
L 218.105477 -78.810086 
L 217.659051 -80.653286 
L 217.202401 -82.496487 
L 216.741345 -84.339688 
L 216.280856 -86.182888 
L 215.824291 -88.026089 
L 215.372764 -89.869289 
L 214.924788 -91.71249 
L 214.476277 -93.55569 
L 214.02094 -95.398891 
L 213.55105 -97.242091 
L 213.058462 -99.085292 
L 212.535749 -100.928492 
L 211.977257 -102.771693 
L 211.37991 -104.614893 
L 210.743622 -106.458094 
L 210.071236 -108.301294 
L 209.367975 -110.144495 
L 208.640492 -111.987695 
L 207.895638 -113.830896 
L 207.139139 -115.674096 
L 206.374375 -117.517297 
L 205.601439 -119.360497 
L 204.816644 -121.203698 
L 204.012544 -123.046898 
L 203.178526 -124.890099 
L 202.301914 -126.733299 
L 201.369489 -128.5765 
L 200.369281 -130.4197 
L 199.292432 -132.262901 
L 198.134951 -134.106101 
L 196.899162 -135.949302 
L 195.59467 -137.792502 
L 194.238715 -139.635703 
L 192.855834 -141.478903 
L 191.476782 -143.322104 
L 190.136762 -145.165304 
L 188.873041 -147.008505 
L 187.722129 -148.851705 
L 186.716739 -150.694906 
L 185.882812 -152.538106 
L 185.23692 -154.381307 
L 184.784376 -156.224507 
L 184.518319 -158.067708 
L 184.42 -159.910908 
L 184.460341 -161.754109 
L 184.602707 -163.597309 
L 184.806668 -165.44051 
L 185.032371 -167.283711 
L 185.245035 -169.126911 
L 185.41904 -170.970112 
L 185.541087 -172.813312 
L 185.612023 -174.656513 
L 185.647073 -176.499713 
L 185.674432 -178.342914 
L 185.732364 -180.186114 
L 185.865166 -182.029315 
L 186.118484 -183.872515 
L 186.534533 -185.715716 
L 187.147782 -187.558916 
L 187.981565 -189.402117 
L 189.045958 -191.245317 
L 190.337063 -193.088518 
L 191.837682 -194.931718 
L 193.51917 -196.774919 
L 195.344161 -198.618119 
L 197.269774 -200.46132 
L 199.250906 -202.30452 
L 201.243272 -204.147721 
L 203.20594 -205.990921 
L 205.103198 -207.834122 
L 206.905723 -209.677322 
L 208.591098 -211.520523 
L 210.143783 -213.363723 
L 211.554673 -215.206924 
L 212.820391 -217.050124 
L 213.942439 -218.893325 
L 214.926276 -220.736525 
L 215.780413 -222.579726 
L 216.515536 -224.422926 
L 217.143705 -226.266127 
L 217.677617 -228.109327 
L 218.129978 -229.952528 
L 218.512984 -231.795728 
L 218.837928 -233.638929 
L 219.11495 -235.482129 
L 219.35292 -237.32533 
L 219.559441 -239.16853 
L 219.740952 -241.011731 
L 219.90288 -242.854931 
L 220.04981 -244.698132 
L 220.185636 -246.541332 
L 220.313663 -248.384533 
L 220.436657 -250.227734 
L 220.556835 -252.070934 
L 220.67583 -253.914135 
L 223.52417 -253.914135 
L 223.52417 -253.914135 
L 223.643165 -252.070934 
L 223.763343 -250.227734 
L 223.886337 -248.384533 
L 224.014364 -246.541332 
L 224.15019 -244.698132 
L 224.29712 -242.854931 
L 224.459048 -241.011731 
L 224.640559 -239.16853 
L 224.84708 -237.32533 
L 225.08505 -235.482129 
L 225.362072 -233.638929 
L 225.687016 -231.795728 
L 226.070022 -229.952528 
L 226.522383 -228.109327 
L 227.056295 -226.266127 
L 227.684464 -224.422926 
L 228.419587 -222.579726 
L 229.273724 -220.736525 
L 230.257561 -218.893325 
L 231.379609 -217.050124 
L 232.645327 -215.206924 
L 234.056217 -213.363723 
L 235.608902 -211.520523 
L 237.294277 -209.677322 
L 239.096802 -207.834122 
L 240.99406 -205.990921 
L 242.956728 -204.147721 
L 244.949094 -202.30452 
L 246.930226 -200.46132 
L 248.855839 -198.618119 
L 250.68083 -196.774919 
L 252.362318 -194.931718 
L 253.862937 -193.088518 
L 255.154042 -191.245317 
L 256.218435 -189.402117 
L 257.052218 -187.558916 
L 257.665467 -185.715716 
L 258.081516 -183.872515 
L 258.334834 -182.029315 
L 258.467636 -180.186114 
L 258.525568 -178.342914 
L 258.552927 -176.499713 
L 258.587977 -174.656513 
L 258.658913 -172.813312 
L 258.78096 -170.970112 
L 258.954965 -169.126911 
L 259.167629 -167.283711 
L 259.393332 -165.44051 
L 259.597293 -163.597309 
L 259.739659 -161.754109 
L 259.78 -159.910908 
L 259.681681 -158.067708 
L 259.415624 -156.224507 
L 258.96308 -154.381307 
L 258.317188 -152.538106 
L 257.483261 -150.694906 
L 256.477871 -148.851705 
L 255.326959 -147.008505 
L 254.063238 -145.165304 
L 252.723218 -143.322104 
L 251.344166 -141.478903 
L 249.961285 -139.635703 
L 248.60533 -137.792502 
L 247.300838 -135.949302 
L 246.065049 -134.106101 
L 244.907568 -132.262901 
L 243.830719 -130.4197 
L 242.830511 -128.5765 
L 241.898086 -126.733299 
L 241.021474 -124.890099 
L 240.187456 -123.046898 
L 239.383356 -121.203698 
L 238.598561 -119.360497 
L 237.825625 -117.517297 
L 237.060861 -115.674096 
L 236.304362 -113.830896 
L 235.559508 -111.987695 
L 234.832025 -110.144495 
L 234.128764 -108.301294 
L 233.456378 -106.458094 
L 232.82009 -104.614893 
L 232.222743 -102.771693 
L 231.664251 -100.928492 
L 231.141538 -99.085292 
L 230.64895 -97.242091 
L 230.17906 -95.398891 
L 229.723723 -93.55569 
L 229.275212 -91.71249 
L 228.827236 -89.869289 
L 228.375709 -88.026089 
L 227.919144 -86.182888 
L 227.458655 -84.339688 
L 226.997599 -82.496487 
L 226.540949 -80.653286 
L 226.094523 -78.810086 
L 225.664209 -76.966885 
L 225.2553 -75.123685 
L 224.87202 -73.280484 
L 224.51728 -71.437284 
z
" style="stroke: #000000; stroke-opacity: 0.7"/>
    </defs>
    <g clip-path="url(#p8b22ebdb31)">
     <use xlink:href="#mf97d4bcb02" x="0" y="319.934957" style="fill: #7f7f7f; fill-opacity: 0.7; stroke: #000000; stroke-opacity: 0.7"/>
    </g>
   </g>
   <g id="PolyCollection_3">
    <defs>
     <path id="m969d017754" d="M 324.379884 -164.955948 
L 308.220116 -164.955948 
L 307.646476 -165.378701 
L 307.101718 -165.801453 
L 306.589803 -166.224205 
L 306.112261 -166.646958 
L 305.667962 -167.06971 
L 305.253067 -167.492463 
L 304.861153 -167.915215 
L 304.483517 -168.337968 
L 304.109634 -168.76072 
L 303.727755 -169.183472 
L 303.325584 -169.606225 
L 302.891006 -170.028977 
L 302.412802 -170.45173 
L 301.881315 -170.874482 
L 301.289014 -171.297234 
L 300.630928 -171.719987 
L 299.904933 -172.142739 
L 299.111869 -172.565492 
L 298.255495 -172.988244 
L 297.342293 -173.410996 
L 296.381145 -173.833749 
L 295.382893 -174.256501 
L 294.359829 -174.679254 
L 293.325139 -175.102006 
L 292.292324 -175.524759 
L 291.274633 -175.947511 
L 290.284532 -176.370263 
L 289.333225 -176.793016 
L 288.430248 -177.215768 
L 287.583151 -177.638521 
L 286.797275 -178.061273 
L 286.075639 -178.484025 
L 285.418927 -178.906778 
L 284.825587 -179.32953 
L 284.292044 -179.752283 
L 283.812991 -180.175035 
L 283.381773 -180.597787 
L 282.990835 -181.02054 
L 282.632198 -181.443292 
L 282.297955 -181.866045 
L 281.980751 -182.288797 
L 281.674215 -182.71155 
L 281.373324 -183.134302 
L 281.07468 -183.557054 
L 280.776679 -183.979807 
L 280.479575 -184.402559 
L 280.185434 -184.825312 
L 279.897997 -185.248064 
L 279.622463 -185.670816 
L 279.36521 -186.093569 
L 279.133492 -186.516321 
L 278.935113 -186.939074 
L 278.778122 -187.361826 
L 278.670519 -187.784578 
L 278.62 -188.207331 
L 278.633727 -188.630083 
L 278.718135 -189.052836 
L 278.878764 -189.475588 
L 279.120105 -189.898341 
L 279.445465 -190.321093 
L 279.856843 -190.743845 
L 280.354822 -191.166598 
L 280.938476 -191.58935 
L 281.605312 -192.012103 
L 282.351252 -192.434855 
L 283.170665 -192.857607 
L 284.05646 -193.28036 
L 285.000241 -193.703112 
L 285.992527 -194.125865 
L 287.023025 -194.548617 
L 288.080947 -194.971369 
L 289.155347 -195.394122 
L 290.235471 -195.816874 
L 291.311083 -196.239627 
L 292.37277 -196.662379 
L 293.412188 -197.085131 
L 294.42227 -197.507884 
L 295.397354 -197.930636 
L 296.333266 -198.353389 
L 297.227341 -198.776141 
L 298.07839 -199.198894 
L 298.886627 -199.621646 
L 299.653554 -200.044398 
L 300.381821 -200.467151 
L 301.075047 -200.889903 
L 301.737626 -201.312656 
L 302.374506 -201.735408 
L 302.990954 -202.15816 
L 303.592304 -202.580913 
L 304.183705 -203.003665 
L 304.769869 -203.426418 
L 305.354834 -203.84917 
L 305.941757 -204.271922 
L 306.532751 -204.694675 
L 307.128773 -205.117427 
L 307.729568 -205.54018 
L 308.333699 -205.962932 
L 308.938624 -206.385685 
L 309.540856 -206.808437 
L 323.059144 -206.808437 
L 323.059144 -206.808437 
L 323.661376 -206.385685 
L 324.266301 -205.962932 
L 324.870432 -205.54018 
L 325.471227 -205.117427 
L 326.067249 -204.694675 
L 326.658243 -204.271922 
L 327.245166 -203.84917 
L 327.830131 -203.426418 
L 328.416295 -203.003665 
L 329.007696 -202.580913 
L 329.609046 -202.15816 
L 330.225494 -201.735408 
L 330.862374 -201.312656 
L 331.524953 -200.889903 
L 332.218179 -200.467151 
L 332.946446 -200.044398 
L 333.713373 -199.621646 
L 334.52161 -199.198894 
L 335.372659 -198.776141 
L 336.266734 -198.353389 
L 337.202646 -197.930636 
L 338.17773 -197.507884 
L 339.187812 -197.085131 
L 340.22723 -196.662379 
L 341.288917 -196.239627 
L 342.364529 -195.816874 
L 343.444653 -195.394122 
L 344.519053 -194.971369 
L 345.576975 -194.548617 
L 346.607473 -194.125865 
L 347.599759 -193.703112 
L 348.54354 -193.28036 
L 349.429335 -192.857607 
L 350.248748 -192.434855 
L 350.994688 -192.012103 
L 351.661524 -191.58935 
L 352.245178 -191.166598 
L 352.743157 -190.743845 
L 353.154535 -190.321093 
L 353.479895 -189.898341 
L 353.721236 -189.475588 
L 353.881865 -189.052836 
L 353.966273 -188.630083 
L 353.98 -188.207331 
L 353.929481 -187.784578 
L 353.821878 -187.361826 
L 353.664887 -186.939074 
L 353.466508 -186.516321 
L 353.23479 -186.093569 
L 352.977537 -185.670816 
L 352.702003 -185.248064 
L 352.414566 -184.825312 
L 352.120425 -184.402559 
L 351.823321 -183.979807 
L 351.52532 -183.557054 
L 351.226676 -183.134302 
L 350.925785 -182.71155 
L 350.619249 -182.288797 
L 350.302045 -181.866045 
L 349.967802 -181.443292 
L 349.609165 -181.02054 
L 349.218227 -180.597787 
L 348.787009 -180.175035 
L 348.307956 -179.752283 
L 347.774413 -179.32953 
L 347.181073 -178.906778 
L 346.524361 -178.484025 
L 345.802725 -178.061273 
L 345.016849 -177.638521 
L 344.169752 -177.215768 
L 343.266775 -176.793016 
L 342.315468 -176.370263 
L 341.325367 -175.947511 
L 340.307676 -175.524759 
L 339.274861 -175.102006 
L 338.240171 -174.679254 
L 337.217107 -174.256501 
L 336.218855 -173.833749 
L 335.257707 -173.410996 
L 334.344505 -172.988244 
L 333.488131 -172.565492 
L 332.695067 -172.142739 
L 331.969072 -171.719987 
L 331.310986 -171.297234 
L 330.718685 -170.874482 
L 330.187198 -170.45173 
L 329.708994 -170.028977 
L 329.274416 -169.606225 
L 328.872245 -169.183472 
L 328.490366 -168.76072 
L 328.116483 -168.337968 
L 327.738847 -167.915215 
L 327.346933 -167.492463 
L 326.932038 -167.06971 
L 326.487739 -166.646958 
L 326.010197 -166.224205 
L 325.498282 -165.801453 
L 324.953524 -165.378701 
L 324.379884 -164.955948 
z
" style="stroke: #000000; stroke-opacity: 0.7"/>
    </defs>
    <g clip-path="url(#p8b22ebdb31)">
     <use xlink:href="#m969d017754" x="0" y="319.934957" style="fill: #1f77b4; fill-opacity: 0.7; stroke: #000000; stroke-opacity: 0.7"/>
    </g>
   </g>
   <g id="PolyCollection_4">
    <defs>
     <path id="ma6a6313c15" d="M 412.39074 -159.125464 
L 408.60926 -159.125464 
L 408.386424 -160.12899 
L 408.143983 -161.132517 
L 407.878574 -162.136044 
L 407.586629 -163.139571 
L 407.26468 -164.143097 
L 406.909692 -165.146624 
L 406.519341 -166.150151 
L 406.092215 -167.153678 
L 405.627873 -168.157204 
L 405.126757 -169.160731 
L 404.589951 -170.164258 
L 404.018828 -171.167785 
L 403.41464 -172.171311 
L 402.778137 -173.174838 
L 402.109285 -174.178365 
L 401.407172 -175.181892 
L 400.67012 -176.185419 
L 399.896012 -177.188945 
L 399.082781 -178.192472 
L 398.228976 -179.195999 
L 397.334282 -180.199526 
L 396.399881 -181.203052 
L 395.428558 -182.206579 
L 394.424503 -183.210106 
L 393.392824 -184.213633 
L 392.338852 -185.217159 
L 391.267364 -186.220686 
L 390.181897 -187.224213 
L 389.084314 -188.22774 
L 387.974743 -189.231266 
L 386.851963 -190.234793 
L 385.714214 -191.23832 
L 384.560326 -192.241847 
L 383.391007 -193.245373 
L 382.210059 -194.2489 
L 381.025322 -195.252427 
L 379.849147 -196.255954 
L 378.698286 -197.25948 
L 377.593153 -198.263007 
L 376.556537 -199.266534 
L 375.611887 -200.270061 
L 374.781397 -201.273587 
L 374.084107 -202.277114 
L 373.534278 -203.280641 
L 373.140212 -204.284168 
L 372.903678 -205.287694 
L 372.82 -206.291221 
L 372.878788 -207.294748 
L 373.065227 -208.298275 
L 373.361773 -209.301801 
L 373.750074 -210.305328 
L 374.212885 -211.308855 
L 374.735799 -212.312382 
L 375.308568 -213.315909 
L 375.92591 -214.319435 
L 376.587669 -215.322962 
L 377.298338 -216.326489 
L 378.06596 -217.330016 
L 378.900548 -218.333542 
L 379.812177 -219.337069 
L 380.808978 -220.340596 
L 381.895264 -221.344123 
L 383.070031 -222.347649 
L 384.326013 -223.351176 
L 385.649443 -224.354703 
L 387.02057 -225.35823 
L 388.414883 -226.361756 
L 389.804942 -227.365283 
L 391.16259 -228.36881 
L 392.461304 -229.372337 
L 393.678408 -230.375863 
L 394.796898 -231.37939 
L 395.806651 -232.382917 
L 396.704922 -233.386444 
L 397.496053 -234.38997 
L 398.190495 -235.393497 
L 398.803271 -236.397024 
L 399.352101 -237.400551 
L 399.855432 -238.404077 
L 400.330612 -239.407604 
L 400.792406 -240.411131 
L 401.252 -241.414658 
L 401.716535 -242.418184 
L 402.189173 -243.421711 
L 402.669595 -244.425238 
L 403.154803 -245.428765 
L 403.640075 -246.432292 
L 404.11993 -247.435818 
L 404.588967 -248.439345 
L 405.042518 -249.442872 
L 405.477045 -250.446399 
L 405.890306 -251.449925 
L 406.281313 -252.453452 
L 406.650137 -253.456979 
L 406.997612 -254.460506 
L 407.325021 -255.464032 
L 407.633782 -256.467559 
L 407.9252 -257.471086 
L 408.200287 -258.474613 
L 412.799713 -258.474613 
L 412.799713 -258.474613 
L 413.0748 -257.471086 
L 413.366218 -256.467559 
L 413.674979 -255.464032 
L 414.002388 -254.460506 
L 414.349863 -253.456979 
L 414.718687 -252.453452 
L 415.109694 -251.449925 
L 415.522955 -250.446399 
L 415.957482 -249.442872 
L 416.411033 -248.439345 
L 416.88007 -247.435818 
L 417.359925 -246.432292 
L 417.845197 -245.428765 
L 418.330405 -244.425238 
L 418.810827 -243.421711 
L 419.283465 -242.418184 
L 419.748 -241.414658 
L 420.207594 -240.411131 
L 420.669388 -239.407604 
L 421.144568 -238.404077 
L 421.647899 -237.400551 
L 422.196729 -236.397024 
L 422.809505 -235.393497 
L 423.503947 -234.38997 
L 424.295078 -233.386444 
L 425.193349 -232.382917 
L 426.203102 -231.37939 
L 427.321592 -230.375863 
L 428.538696 -229.372337 
L 429.83741 -228.36881 
L 431.195058 -227.365283 
L 432.585117 -226.361756 
L 433.97943 -225.35823 
L 435.350557 -224.354703 
L 436.673987 -223.351176 
L 437.929969 -222.347649 
L 439.104736 -221.344123 
L 440.191022 -220.340596 
L 441.187823 -219.337069 
L 442.099452 -218.333542 
L 442.93404 -217.330016 
L 443.701662 -216.326489 
L 444.412331 -215.322962 
L 445.07409 -214.319435 
L 445.691432 -213.315909 
L 446.264201 -212.312382 
L 446.787115 -211.308855 
L 447.249926 -210.305328 
L 447.638227 -209.301801 
L 447.934773 -208.298275 
L 448.121212 -207.294748 
L 448.18 -206.291221 
L 448.096322 -205.287694 
L 447.859788 -204.284168 
L 447.465722 -203.280641 
L 446.915893 -202.277114 
L 446.218603 -201.273587 
L 445.388113 -200.270061 
L 444.443463 -199.266534 
L 443.406847 -198.263007 
L 442.301714 -197.25948 
L 441.150853 -196.255954 
L 439.974678 -195.252427 
L 438.789941 -194.2489 
L 437.608993 -193.245373 
L 436.439674 -192.241847 
L 435.285786 -191.23832 
L 434.148037 -190.234793 
L 433.025257 -189.231266 
L 431.915686 -188.22774 
L 430.818103 -187.224213 
L 429.732636 -186.220686 
L 428.661148 -185.217159 
L 427.607176 -184.213633 
L 426.575497 -183.210106 
L 425.571442 -182.206579 
L 424.600119 -181.203052 
L 423.665718 -180.199526 
L 422.771024 -179.195999 
L 421.917219 -178.192472 
L 421.103988 -177.188945 
L 420.32988 -176.185419 
L 419.592828 -175.181892 
L 418.890715 -174.178365 
L 418.221863 -173.174838 
L 417.58536 -172.171311 
L 416.981172 -171.167785 
L 416.410049 -170.164258 
L 415.873243 -169.160731 
L 415.372127 -168.157204 
L 414.907785 -167.153678 
L 414.480659 -166.150151 
L 414.090308 -165.146624 
L 413.73532 -164.143097 
L 413.413371 -163.139571 
L 413.121426 -162.136044 
L 412.856017 -161.132517 
L 412.613576 -160.12899 
L 412.39074 -159.125464 
z
" style="stroke: #000000; stroke-opacity: 0.7"/>
    </defs>
    <g clip-path="url(#p8b22ebdb31)">
     <use xlink:href="#ma6a6313c15" x="0" y="319.934957" style="fill: #98df8a; fill-opacity: 0.7; stroke: #000000; stroke-opacity: 0.7"/>
    </g>
   </g>
   <g id="matplotlib.axis_1">
    <g id="xtick_1">
     <g id="line2d_1">
      <defs>
       <path id="m3d6a893e51" d="M 0 0 
L 0 3.5 
" style="stroke: #000000; stroke-width: 0.8"/>
      </defs>
      <g>
       <use xlink:href="#m3d6a893e51" x="127.9" y="258.900181" style="stroke: #000000; stroke-width: 0.8"/>
      </g>
     </g>
     <g id="text_1">
      <!-- Westport -->
      <g transform="translate(95.659908 302.217185) rotate(-45) scale(0.12 -0.12)">
       <defs>
        <path id="TimesNewRomanPSMT-57" d="M 5991 4238 
L 5991 4122 
Q 5825 4122 5722 4062 
Q 5619 4003 5525 3841 
Q 5463 3731 5328 3319 
L 4147 -97 
L 4022 -97 
L 3056 2613 
L 2097 -97 
L 1984 -97 
L 725 3422 
Q 584 3816 547 3888 
Q 484 4006 376 4064 
Q 269 4122 84 4122 
L 84 4238 
L 1653 4238 
L 1653 4122 
L 1578 4122 
Q 1413 4122 1325 4047 
Q 1238 3972 1238 3866 
Q 1238 3756 1375 3363 
L 2209 984 
L 2913 3006 
L 2788 3363 
L 2688 3647 
Q 2622 3803 2541 3922 
Q 2500 3981 2441 4022 
Q 2363 4078 2284 4103 
Q 2225 4122 2097 4122 
L 2097 4238 
L 3747 4238 
L 3747 4122 
L 3634 4122 
Q 3459 4122 3378 4047 
Q 3297 3972 3297 3844 
Q 3297 3684 3438 3288 
L 4250 984 
L 5056 3319 
Q 5194 3706 5194 3856 
Q 5194 3928 5148 3990 
Q 5103 4053 5034 4078 
Q 4916 4122 4725 4122 
L 4725 4238 
L 5991 4238 
z
" transform="scale(0.015625)"/>
        <path id="TimesNewRomanPSMT-65" d="M 681 1784 
Q 678 1147 991 784 
Q 1303 422 1725 422 
Q 2006 422 2214 576 
Q 2422 731 2563 1106 
L 2659 1044 
Q 2594 616 2278 264 
Q 1963 -88 1488 -88 
Q 972 -88 605 314 
Q 238 716 238 1394 
Q 238 2128 614 2539 
Q 991 2950 1559 2950 
Q 2041 2950 2350 2633 
Q 2659 2316 2659 1784 
L 681 1784 
z
M 681 1966 
L 2006 1966 
Q 1991 2241 1941 2353 
Q 1863 2528 1708 2628 
Q 1553 2728 1384 2728 
Q 1125 2728 920 2526 
Q 716 2325 681 1966 
z
" transform="scale(0.015625)"/>
        <path id="TimesNewRomanPSMT-73" d="M 2050 2947 
L 2050 1972 
L 1947 1972 
Q 1828 2431 1642 2597 
Q 1456 2763 1169 2763 
Q 950 2763 815 2647 
Q 681 2531 681 2391 
Q 681 2216 781 2091 
Q 878 1963 1175 1819 
L 1631 1597 
Q 2266 1288 2266 781 
Q 2266 391 1970 151 
Q 1675 -88 1309 -88 
Q 1047 -88 709 6 
Q 606 38 541 38 
Q 469 38 428 -44 
L 325 -44 
L 325 978 
L 428 978 
Q 516 541 762 319 
Q 1009 97 1316 97 
Q 1531 97 1667 223 
Q 1803 350 1803 528 
Q 1803 744 1651 891 
Q 1500 1038 1047 1263 
Q 594 1488 453 1669 
Q 313 1847 313 2119 
Q 313 2472 555 2709 
Q 797 2947 1181 2947 
Q 1350 2947 1591 2875 
Q 1750 2828 1803 2828 
Q 1853 2828 1881 2850 
Q 1909 2872 1947 2947 
L 2050 2947 
z
" transform="scale(0.015625)"/>
        <path id="TimesNewRomanPSMT-74" d="M 1031 3803 
L 1031 2863 
L 1700 2863 
L 1700 2644 
L 1031 2644 
L 1031 788 
Q 1031 509 1111 412 
Q 1191 316 1316 316 
Q 1419 316 1516 380 
Q 1613 444 1666 569 
L 1788 569 
Q 1678 263 1478 108 
Q 1278 -47 1066 -47 
Q 922 -47 784 33 
Q 647 113 581 261 
Q 516 409 516 719 
L 516 2644 
L 63 2644 
L 63 2747 
Q 234 2816 414 2980 
Q 594 3144 734 3369 
Q 806 3488 934 3803 
L 1031 3803 
z
" transform="scale(0.015625)"/>
        <path id="TimesNewRomanPSMT-70" d="M -6 2578 
L 875 2934 
L 994 2934 
L 994 2266 
Q 1216 2644 1439 2795 
Q 1663 2947 1909 2947 
Q 2341 2947 2628 2609 
Q 2981 2197 2981 1534 
Q 2981 794 2556 309 
Q 2206 -88 1675 -88 
Q 1444 -88 1275 -22 
Q 1150 25 994 166 
L 994 -706 
Q 994 -1000 1030 -1079 
Q 1066 -1159 1155 -1206 
Q 1244 -1253 1478 -1253 
L 1478 -1369 
L -22 -1369 
L -22 -1253 
L 56 -1253 
Q 228 -1256 350 -1188 
Q 409 -1153 442 -1076 
Q 475 -1000 475 -688 
L 475 2019 
Q 475 2297 450 2372 
Q 425 2447 370 2484 
Q 316 2522 222 2522 
Q 147 2522 31 2478 
L -6 2578 
z
M 994 2081 
L 994 1013 
Q 994 666 1022 556 
Q 1066 375 1236 237 
Q 1406 100 1666 100 
Q 1978 100 2172 344 
Q 2425 663 2425 1241 
Q 2425 1897 2138 2250 
Q 1938 2494 1663 2494 
Q 1513 2494 1366 2419 
Q 1253 2363 994 2081 
z
" transform="scale(0.015625)"/>
        <path id="TimesNewRomanPSMT-6f" d="M 1600 2947 
Q 2250 2947 2644 2453 
Q 2978 2031 2978 1484 
Q 2978 1100 2793 706 
Q 2609 313 2286 112 
Q 1963 -88 1566 -88 
Q 919 -88 538 428 
Q 216 863 216 1403 
Q 216 1797 411 2186 
Q 606 2575 925 2761 
Q 1244 2947 1600 2947 
z
M 1503 2744 
Q 1338 2744 1170 2645 
Q 1003 2547 900 2300 
Q 797 2053 797 1666 
Q 797 1041 1045 587 
Q 1294 134 1700 134 
Q 2003 134 2200 384 
Q 2397 634 2397 1244 
Q 2397 2006 2069 2444 
Q 1847 2744 1503 2744 
z
" transform="scale(0.015625)"/>
        <path id="TimesNewRomanPSMT-72" d="M 1038 2947 
L 1038 2303 
Q 1397 2947 1775 2947 
Q 1947 2947 2059 2842 
Q 2172 2738 2172 2600 
Q 2172 2478 2090 2393 
Q 2009 2309 1897 2309 
Q 1788 2309 1652 2417 
Q 1516 2525 1450 2525 
Q 1394 2525 1328 2463 
Q 1188 2334 1038 2041 
L 1038 669 
Q 1038 431 1097 309 
Q 1138 225 1241 169 
Q 1344 113 1538 113 
L 1538 0 
L 72 0 
L 72 113 
Q 291 113 397 181 
Q 475 231 506 341 
Q 522 394 522 644 
L 522 1753 
Q 522 2253 501 2348 
Q 481 2444 426 2487 
Q 372 2531 291 2531 
Q 194 2531 72 2484 
L 41 2597 
L 906 2947 
L 1038 2947 
z
" transform="scale(0.015625)"/>
       </defs>
       <use xlink:href="#TimesNewRomanPSMT-57"/>
       <use xlink:href="#TimesNewRomanPSMT-65" x="86.384766"/>
       <use xlink:href="#TimesNewRomanPSMT-73" x="130.769531"/>
       <use xlink:href="#TimesNewRomanPSMT-74" x="169.685547"/>
       <use xlink:href="#TimesNewRomanPSMT-70" x="197.46875"/>
       <use xlink:href="#TimesNewRomanPSMT-6f" x="247.46875"/>
       <use xlink:href="#TimesNewRomanPSMT-72" x="297.46875"/>
       <use xlink:href="#TimesNewRomanPSMT-74" x="330.769531"/>
      </g>
     </g>
    </g>
    <g id="xtick_2">
     <g id="line2d_2">
      <g>
       <use xlink:href="#m3d6a893e51" x="222.1" y="258.900181" style="stroke: #000000; stroke-width: 0.8"/>
      </g>
     </g>
     <g id="text_2">
      <!-- Ashford -->
      <g transform="translate(192.475761 299.601332) rotate(-45) scale(0.12 -0.12)">
       <defs>
        <path id="TimesNewRomanPSMT-41" d="M 2928 1419 
L 1288 1419 
L 1000 750 
Q 894 503 894 381 
Q 894 284 986 211 
Q 1078 138 1384 116 
L 1384 0 
L 50 0 
L 50 116 
Q 316 163 394 238 
Q 553 388 747 847 
L 2238 4334 
L 2347 4334 
L 3822 809 
Q 4000 384 4145 257 
Q 4291 131 4550 116 
L 4550 0 
L 2878 0 
L 2878 116 
Q 3131 128 3220 200 
Q 3309 272 3309 375 
Q 3309 513 3184 809 
L 2928 1419 
z
M 2841 1650 
L 2122 3363 
L 1384 1650 
L 2841 1650 
z
" transform="scale(0.015625)"/>
        <path id="TimesNewRomanPSMT-68" d="M 1041 4444 
L 1041 2350 
Q 1388 2731 1591 2839 
Q 1794 2947 1997 2947 
Q 2241 2947 2416 2812 
Q 2591 2678 2675 2391 
Q 2734 2191 2734 1659 
L 2734 647 
Q 2734 375 2778 275 
Q 2809 200 2884 156 
Q 2959 113 3159 113 
L 3159 0 
L 1753 0 
L 1753 113 
L 1819 113 
Q 2019 113 2097 173 
Q 2175 234 2206 353 
Q 2216 403 2216 647 
L 2216 1659 
Q 2216 2128 2167 2275 
Q 2119 2422 2012 2495 
Q 1906 2569 1756 2569 
Q 1603 2569 1437 2487 
Q 1272 2406 1041 2159 
L 1041 647 
Q 1041 353 1073 281 
Q 1106 209 1195 161 
Q 1284 113 1503 113 
L 1503 0 
L 84 0 
L 84 113 
Q 275 113 384 172 
Q 447 203 484 290 
Q 522 378 522 647 
L 522 3238 
Q 522 3728 498 3840 
Q 475 3953 426 3993 
Q 378 4034 297 4034 
Q 231 4034 84 3984 
L 41 4094 
L 897 4444 
L 1041 4444 
z
" transform="scale(0.015625)"/>
        <path id="TimesNewRomanPSMT-66" d="M 1319 2638 
L 1319 756 
Q 1319 356 1406 250 
Q 1522 113 1716 113 
L 1975 113 
L 1975 0 
L 266 0 
L 266 113 
L 394 113 
Q 519 113 622 175 
Q 725 238 764 344 
Q 803 450 803 756 
L 803 2638 
L 247 2638 
L 247 2863 
L 803 2863 
L 803 3050 
Q 803 3478 940 3775 
Q 1078 4072 1361 4255 
Q 1644 4438 1997 4438 
Q 2325 4438 2600 4225 
Q 2781 4084 2781 3909 
Q 2781 3816 2700 3733 
Q 2619 3650 2525 3650 
Q 2453 3650 2373 3701 
Q 2294 3753 2178 3923 
Q 2063 4094 1966 4153 
Q 1869 4213 1750 4213 
Q 1606 4213 1506 4136 
Q 1406 4059 1362 3898 
Q 1319 3738 1319 3069 
L 1319 2863 
L 2056 2863 
L 2056 2638 
L 1319 2638 
z
" transform="scale(0.015625)"/>
        <path id="TimesNewRomanPSMT-64" d="M 2222 322 
Q 2013 103 1813 7 
Q 1613 -88 1381 -88 
Q 913 -88 563 304 
Q 213 697 213 1313 
Q 213 1928 600 2439 
Q 988 2950 1597 2950 
Q 1975 2950 2222 2709 
L 2222 3238 
Q 2222 3728 2198 3840 
Q 2175 3953 2125 3993 
Q 2075 4034 2000 4034 
Q 1919 4034 1784 3984 
L 1744 4094 
L 2597 4444 
L 2738 4444 
L 2738 1134 
Q 2738 631 2761 520 
Q 2784 409 2836 365 
Q 2888 322 2956 322 
Q 3041 322 3181 375 
L 3216 266 
L 2366 -88 
L 2222 -88 
L 2222 322 
z
M 2222 541 
L 2222 2016 
Q 2203 2228 2109 2403 
Q 2016 2578 1861 2667 
Q 1706 2756 1559 2756 
Q 1284 2756 1069 2509 
Q 784 2184 784 1559 
Q 784 928 1059 592 
Q 1334 256 1672 256 
Q 1956 256 2222 541 
z
" transform="scale(0.015625)"/>
       </defs>
       <use xlink:href="#TimesNewRomanPSMT-41"/>
       <use xlink:href="#TimesNewRomanPSMT-73" x="72.216797"/>
       <use xlink:href="#TimesNewRomanPSMT-68" x="111.132812"/>
       <use xlink:href="#TimesNewRomanPSMT-66" x="161.132812"/>
       <use xlink:href="#TimesNewRomanPSMT-6f" x="194.433594"/>
       <use xlink:href="#TimesNewRomanPSMT-72" x="244.433594"/>
       <use xlink:href="#TimesNewRomanPSMT-64" x="277.734375"/>
      </g>
     </g>
    </g>
    <g id="xtick_3">
     <g id="line2d_3">
      <g>
       <use xlink:href="#m3d6a893e51" x="316.3" y="258.900181" style="stroke: #000000; stroke-width: 0.8"/>
      </g>
     </g>
     <g id="text_3">
      <!-- Quarryville -->
      <g transform="translate(275.357192 310.903992) rotate(-45) scale(0.12 -0.12)">
       <defs>
        <path id="TimesNewRomanPSMT-51" d="M 2819 -47 
Q 3138 -597 3508 -856 
Q 3878 -1116 4350 -1153 
L 4350 -1253 
Q 3919 -1238 3428 -1080 
Q 2938 -922 2498 -642 
Q 2059 -363 1741 -47 
Q 1291 134 1028 338 
Q 647 641 436 1083 
Q 225 1525 225 2128 
Q 225 3078 840 3706 
Q 1456 4334 2331 4334 
Q 3163 4334 3770 3704 
Q 4378 3075 4378 2116 
Q 4378 1338 3945 750 
Q 3513 163 2819 -47 
z
M 2294 4094 
Q 1725 4094 1378 3688 
Q 941 3178 941 2128 
Q 941 1100 1384 544 
Q 1728 116 2294 116 
Q 2881 116 3241 544 
Q 3663 1050 3663 2038 
Q 3663 2797 3431 3316 
Q 3253 3716 2958 3905 
Q 2663 4094 2294 4094 
z
" transform="scale(0.015625)"/>
        <path id="TimesNewRomanPSMT-75" d="M 2709 2863 
L 2709 1128 
Q 2709 631 2732 520 
Q 2756 409 2807 365 
Q 2859 322 2928 322 
Q 3025 322 3147 375 
L 3191 266 
L 2334 -88 
L 2194 -88 
L 2194 519 
Q 1825 119 1631 15 
Q 1438 -88 1222 -88 
Q 981 -88 804 51 
Q 628 191 559 409 
Q 491 628 491 1028 
L 491 2306 
Q 491 2509 447 2587 
Q 403 2666 317 2708 
Q 231 2750 6 2747 
L 6 2863 
L 1009 2863 
L 1009 947 
Q 1009 547 1148 422 
Q 1288 297 1484 297 
Q 1619 297 1789 381 
Q 1959 466 2194 703 
L 2194 2325 
Q 2194 2569 2105 2655 
Q 2016 2741 1734 2747 
L 1734 2863 
L 2709 2863 
z
" transform="scale(0.015625)"/>
        <path id="TimesNewRomanPSMT-61" d="M 1822 413 
Q 1381 72 1269 19 
Q 1100 -59 909 -59 
Q 613 -59 420 144 
Q 228 347 228 678 
Q 228 888 322 1041 
Q 450 1253 767 1440 
Q 1084 1628 1822 1897 
L 1822 2009 
Q 1822 2438 1686 2597 
Q 1550 2756 1291 2756 
Q 1094 2756 978 2650 
Q 859 2544 859 2406 
L 866 2225 
Q 866 2081 792 2003 
Q 719 1925 600 1925 
Q 484 1925 411 2006 
Q 338 2088 338 2228 
Q 338 2497 613 2722 
Q 888 2947 1384 2947 
Q 1766 2947 2009 2819 
Q 2194 2722 2281 2516 
Q 2338 2381 2338 1966 
L 2338 994 
Q 2338 584 2353 492 
Q 2369 400 2405 369 
Q 2441 338 2488 338 
Q 2538 338 2575 359 
Q 2641 400 2828 588 
L 2828 413 
Q 2478 -56 2159 -56 
Q 2006 -56 1915 50 
Q 1825 156 1822 413 
z
M 1822 616 
L 1822 1706 
Q 1350 1519 1213 1441 
Q 966 1303 859 1153 
Q 753 1003 753 825 
Q 753 600 887 451 
Q 1022 303 1197 303 
Q 1434 303 1822 616 
z
" transform="scale(0.015625)"/>
        <path id="TimesNewRomanPSMT-79" d="M 38 2863 
L 1372 2863 
L 1372 2747 
L 1306 2747 
Q 1166 2747 1095 2686 
Q 1025 2625 1025 2534 
Q 1025 2413 1128 2197 
L 1825 753 
L 2466 2334 
Q 2519 2463 2519 2588 
Q 2519 2644 2497 2672 
Q 2472 2706 2419 2726 
Q 2366 2747 2231 2747 
L 2231 2863 
L 3163 2863 
L 3163 2747 
Q 3047 2734 2984 2696 
Q 2922 2659 2847 2556 
Q 2819 2513 2741 2316 
L 1575 -541 
Q 1406 -956 1132 -1168 
Q 859 -1381 606 -1381 
Q 422 -1381 303 -1275 
Q 184 -1169 184 -1031 
Q 184 -900 270 -820 
Q 356 -741 506 -741 
Q 609 -741 788 -809 
Q 913 -856 944 -856 
Q 1038 -856 1148 -759 
Q 1259 -663 1372 -384 
L 1575 113 
L 547 2272 
Q 500 2369 397 2513 
Q 319 2622 269 2659 
Q 197 2709 38 2747 
L 38 2863 
z
" transform="scale(0.015625)"/>
        <path id="TimesNewRomanPSMT-76" d="M 53 2863 
L 1400 2863 
L 1400 2747 
L 1313 2747 
Q 1191 2747 1127 2687 
Q 1063 2628 1063 2528 
Q 1063 2419 1128 2269 
L 1794 688 
L 2463 2328 
Q 2534 2503 2534 2594 
Q 2534 2638 2509 2666 
Q 2475 2713 2422 2730 
Q 2369 2747 2206 2747 
L 2206 2863 
L 3141 2863 
L 3141 2747 
Q 2978 2734 2916 2681 
Q 2806 2588 2719 2369 
L 1703 -88 
L 1575 -88 
L 553 2328 
Q 484 2497 421 2570 
Q 359 2644 263 2694 
Q 209 2722 53 2747 
L 53 2863 
z
" transform="scale(0.015625)"/>
        <path id="TimesNewRomanPSMT-69" d="M 928 4444 
Q 1059 4444 1151 4351 
Q 1244 4259 1244 4128 
Q 1244 3997 1151 3903 
Q 1059 3809 928 3809 
Q 797 3809 703 3903 
Q 609 3997 609 4128 
Q 609 4259 701 4351 
Q 794 4444 928 4444 
z
M 1188 2947 
L 1188 647 
Q 1188 378 1227 289 
Q 1266 200 1342 156 
Q 1419 113 1622 113 
L 1622 0 
L 231 0 
L 231 113 
Q 441 113 512 153 
Q 584 194 626 287 
Q 669 381 669 647 
L 669 1750 
Q 669 2216 641 2353 
Q 619 2453 572 2492 
Q 525 2531 444 2531 
Q 356 2531 231 2484 
L 188 2597 
L 1050 2947 
L 1188 2947 
z
" transform="scale(0.015625)"/>
        <path id="TimesNewRomanPSMT-6c" d="M 1184 4444 
L 1184 647 
Q 1184 378 1223 290 
Q 1263 203 1344 158 
Q 1425 113 1647 113 
L 1647 0 
L 244 0 
L 244 113 
Q 441 113 512 153 
Q 584 194 625 287 
Q 666 381 666 647 
L 666 3247 
Q 666 3731 644 3842 
Q 622 3953 573 3993 
Q 525 4034 450 4034 
Q 369 4034 244 3984 
L 191 4094 
L 1044 4444 
L 1184 4444 
z
" transform="scale(0.015625)"/>
       </defs>
       <use xlink:href="#TimesNewRomanPSMT-51"/>
       <use xlink:href="#TimesNewRomanPSMT-75" x="72.216797"/>
       <use xlink:href="#TimesNewRomanPSMT-61" x="122.216797"/>
       <use xlink:href="#TimesNewRomanPSMT-72" x="166.601562"/>
       <use xlink:href="#TimesNewRomanPSMT-72" x="199.902344"/>
       <use xlink:href="#TimesNewRomanPSMT-79" x="233.203125"/>
       <use xlink:href="#TimesNewRomanPSMT-76" x="283.203125"/>
       <use xlink:href="#TimesNewRomanPSMT-69" x="333.203125"/>
       <use xlink:href="#TimesNewRomanPSMT-6c" x="360.986328"/>
       <use xlink:href="#TimesNewRomanPSMT-6c" x="388.769531"/>
       <use xlink:href="#TimesNewRomanPSMT-65" x="416.552734"/>
      </g>
     </g>
    </g>
    <g id="xtick_4">
     <g id="line2d_4">
      <g>
       <use xlink:href="#m3d6a893e51" x="410.5" y="258.900181" style="stroke: #000000; stroke-width: 0.8"/>
      </g>
     </g>
     <g id="text_4">
      <!-- Highvale -->
      <g transform="translate(377.565176 302.896008) rotate(-45) scale(0.12 -0.12)">
       <defs>
        <path id="TimesNewRomanPSMT-48" d="M 1316 2272 
L 3284 2272 
L 3284 3484 
Q 3284 3809 3244 3913 
Q 3213 3991 3113 4047 
Q 2978 4122 2828 4122 
L 2678 4122 
L 2678 4238 
L 4491 4238 
L 4491 4122 
L 4341 4122 
Q 4191 4122 4056 4050 
Q 3956 4000 3920 3898 
Q 3884 3797 3884 3484 
L 3884 750 
Q 3884 428 3925 325 
Q 3956 247 4053 191 
Q 4191 116 4341 116 
L 4491 116 
L 4491 0 
L 2678 0 
L 2678 116 
L 2828 116 
Q 3088 116 3206 269 
Q 3284 369 3284 750 
L 3284 2041 
L 1316 2041 
L 1316 750 
Q 1316 428 1356 325 
Q 1388 247 1488 191 
Q 1622 116 1772 116 
L 1925 116 
L 1925 0 
L 109 0 
L 109 116 
L 259 116 
Q 522 116 641 269 
Q 716 369 716 750 
L 716 3484 
Q 716 3809 675 3913 
Q 644 3991 547 4047 
Q 409 4122 259 4122 
L 109 4122 
L 109 4238 
L 1925 4238 
L 1925 4122 
L 1772 4122 
Q 1622 4122 1488 4050 
Q 1391 4000 1353 3898 
Q 1316 3797 1316 3484 
L 1316 2272 
z
" transform="scale(0.015625)"/>
        <path id="TimesNewRomanPSMT-67" d="M 966 1044 
Q 703 1172 562 1401 
Q 422 1631 422 1909 
Q 422 2334 742 2640 
Q 1063 2947 1563 2947 
Q 1972 2947 2272 2747 
L 2878 2747 
Q 3013 2747 3034 2739 
Q 3056 2731 3066 2713 
Q 3084 2684 3084 2613 
Q 3084 2531 3069 2500 
Q 3059 2484 3036 2475 
Q 3013 2466 2878 2466 
L 2506 2466 
Q 2681 2241 2681 1891 
Q 2681 1491 2375 1206 
Q 2069 922 1553 922 
Q 1341 922 1119 984 
Q 981 866 932 777 
Q 884 688 884 625 
Q 884 572 936 522 
Q 988 472 1138 450 
Q 1225 438 1575 428 
Q 2219 413 2409 384 
Q 2700 344 2873 169 
Q 3047 -6 3047 -263 
Q 3047 -616 2716 -925 
Q 2228 -1381 1444 -1381 
Q 841 -1381 425 -1109 
Q 191 -953 191 -784 
Q 191 -709 225 -634 
Q 278 -519 444 -313 
Q 466 -284 763 25 
Q 600 122 533 198 
Q 466 275 466 372 
Q 466 481 555 628 
Q 644 775 966 1044 
z
M 1509 2797 
Q 1278 2797 1122 2612 
Q 966 2428 966 2047 
Q 966 1553 1178 1281 
Q 1341 1075 1591 1075 
Q 1828 1075 1981 1253 
Q 2134 1431 2134 1813 
Q 2134 2309 1919 2591 
Q 1759 2797 1509 2797 
z
M 934 0 
Q 788 -159 713 -296 
Q 638 -434 638 -550 
Q 638 -700 819 -813 
Q 1131 -1006 1722 -1006 
Q 2284 -1006 2551 -807 
Q 2819 -609 2819 -384 
Q 2819 -222 2659 -153 
Q 2497 -84 2016 -72 
Q 1313 -53 934 0 
z
" transform="scale(0.015625)"/>
       </defs>
       <use xlink:href="#TimesNewRomanPSMT-48"/>
       <use xlink:href="#TimesNewRomanPSMT-69" x="72.216797"/>
       <use xlink:href="#TimesNewRomanPSMT-67" x="100"/>
       <use xlink:href="#TimesNewRomanPSMT-68" x="150"/>
       <use xlink:href="#TimesNewRomanPSMT-76" x="200"/>
       <use xlink:href="#TimesNewRomanPSMT-61" x="250"/>
       <use xlink:href="#TimesNewRomanPSMT-6c" x="294.384766"/>
       <use xlink:href="#TimesNewRomanPSMT-65" x="322.167969"/>
      </g>
     </g>
    </g>
   </g>
   <g id="matplotlib.axis_2">
    <g id="ytick_1">
     <g id="line2d_5">
      <defs>
       <path id="mf3a08a2a51" d="M 0 0 
L -3.5 0 
" style="stroke: #000000; stroke-width: 0.8"/>
      </defs>
      <g>
       <use xlink:href="#mf3a08a2a51" x="80.8" y="246.130842" style="stroke: #000000; stroke-width: 0.8"/>
      </g>
     </g>
     <g id="text_5">
      <!-- 500 -->
      <g transform="translate(58.8 249.602717) scale(0.1 -0.1)">
       <defs>
        <path id="TimesNewRomanPSMT-35" d="M 2778 4238 
L 2534 3706 
L 1259 3706 
L 981 3138 
Q 1809 3016 2294 2522 
Q 2709 2097 2709 1522 
Q 2709 1188 2573 903 
Q 2438 619 2231 419 
Q 2025 219 1772 97 
Q 1413 -75 1034 -75 
Q 653 -75 479 54 
Q 306 184 306 341 
Q 306 428 378 495 
Q 450 563 559 563 
Q 641 563 702 538 
Q 763 513 909 409 
Q 1144 247 1384 247 
Q 1750 247 2026 523 
Q 2303 800 2303 1197 
Q 2303 1581 2056 1914 
Q 1809 2247 1375 2428 
Q 1034 2569 447 2591 
L 1259 4238 
L 2778 4238 
z
" transform="scale(0.015625)"/>
        <path id="TimesNewRomanPSMT-30" d="M 231 2094 
Q 231 2819 450 3342 
Q 669 3866 1031 4122 
Q 1313 4325 1613 4325 
Q 2100 4325 2488 3828 
Q 2972 3213 2972 2159 
Q 2972 1422 2759 906 
Q 2547 391 2217 158 
Q 1888 -75 1581 -75 
Q 975 -75 572 641 
Q 231 1244 231 2094 
z
M 844 2016 
Q 844 1141 1059 588 
Q 1238 122 1591 122 
Q 1759 122 1940 273 
Q 2122 425 2216 781 
Q 2359 1319 2359 2297 
Q 2359 3022 2209 3506 
Q 2097 3866 1919 4016 
Q 1791 4119 1609 4119 
Q 1397 4119 1231 3928 
Q 1006 3669 925 3112 
Q 844 2556 844 2016 
z
" transform="scale(0.015625)"/>
       </defs>
       <use xlink:href="#TimesNewRomanPSMT-35"/>
       <use xlink:href="#TimesNewRomanPSMT-30" x="50"/>
       <use xlink:href="#TimesNewRomanPSMT-30" x="100"/>
      </g>
     </g>
    </g>
    <g id="ytick_2">
     <g id="line2d_6">
      <g>
       <use xlink:href="#mf3a08a2a51" x="80.8" y="217.267057" style="stroke: #000000; stroke-width: 0.8"/>
      </g>
     </g>
     <g id="text_6">
      <!-- 1000 -->
      <g transform="translate(53.8 220.738932) scale(0.1 -0.1)">
       <defs>
        <path id="TimesNewRomanPSMT-31" d="M 750 3822 
L 1781 4325 
L 1884 4325 
L 1884 747 
Q 1884 391 1914 303 
Q 1944 216 2037 169 
Q 2131 122 2419 116 
L 2419 0 
L 825 0 
L 825 116 
Q 1125 122 1212 167 
Q 1300 213 1334 289 
Q 1369 366 1369 747 
L 1369 3034 
Q 1369 3497 1338 3628 
Q 1316 3728 1258 3775 
Q 1200 3822 1119 3822 
Q 1003 3822 797 3725 
L 750 3822 
z
" transform="scale(0.015625)"/>
       </defs>
       <use xlink:href="#TimesNewRomanPSMT-31"/>
       <use xlink:href="#TimesNewRomanPSMT-30" x="50"/>
       <use xlink:href="#TimesNewRomanPSMT-30" x="100"/>
       <use xlink:href="#TimesNewRomanPSMT-30" x="150"/>
      </g>
     </g>
    </g>
    <g id="ytick_3">
     <g id="line2d_7">
      <g>
       <use xlink:href="#mf3a08a2a51" x="80.8" y="188.403272" style="stroke: #000000; stroke-width: 0.8"/>
      </g>
     </g>
     <g id="text_7">
      <!-- 1500 -->
      <g transform="translate(53.8 191.875147) scale(0.1 -0.1)">
       <use xlink:href="#TimesNewRomanPSMT-31"/>
       <use xlink:href="#TimesNewRomanPSMT-35" x="50"/>
       <use xlink:href="#TimesNewRomanPSMT-30" x="100"/>
       <use xlink:href="#TimesNewRomanPSMT-30" x="150"/>
      </g>
     </g>
    </g>
    <g id="ytick_4">
     <g id="line2d_8">
      <g>
       <use xlink:href="#mf3a08a2a51" x="80.8" y="159.539486" style="stroke: #000000; stroke-width: 0.8"/>
      </g>
     </g>
     <g id="text_8">
      <!-- 2000 -->
      <g transform="translate(53.8 163.011361) scale(0.1 -0.1)">
       <defs>
        <path id="TimesNewRomanPSMT-32" d="M 2934 816 
L 2638 0 
L 138 0 
L 138 116 
Q 1241 1122 1691 1759 
Q 2141 2397 2141 2925 
Q 2141 3328 1894 3587 
Q 1647 3847 1303 3847 
Q 991 3847 742 3664 
Q 494 3481 375 3128 
L 259 3128 
Q 338 3706 661 4015 
Q 984 4325 1469 4325 
Q 1984 4325 2329 3994 
Q 2675 3663 2675 3213 
Q 2675 2891 2525 2569 
Q 2294 2063 1775 1497 
Q 997 647 803 472 
L 1909 472 
Q 2247 472 2383 497 
Q 2519 522 2628 598 
Q 2738 675 2819 816 
L 2934 816 
z
" transform="scale(0.015625)"/>
       </defs>
       <use xlink:href="#TimesNewRomanPSMT-32"/>
       <use xlink:href="#TimesNewRomanPSMT-30" x="50"/>
       <use xlink:href="#TimesNewRomanPSMT-30" x="100"/>
       <use xlink:href="#TimesNewRomanPSMT-30" x="150"/>
      </g>
     </g>
    </g>
    <g id="ytick_5">
     <g id="line2d_9">
      <g>
       <use xlink:href="#mf3a08a2a51" x="80.8" y="130.675701" style="stroke: #000000; stroke-width: 0.8"/>
      </g>
     </g>
     <g id="text_9">
      <!-- 2500 -->
      <g transform="translate(53.8 134.147576) scale(0.1 -0.1)">
       <use xlink:href="#TimesNewRomanPSMT-32"/>
       <use xlink:href="#TimesNewRomanPSMT-35" x="50"/>
       <use xlink:href="#TimesNewRomanPSMT-30" x="100"/>
       <use xlink:href="#TimesNewRomanPSMT-30" x="150"/>
      </g>
     </g>
    </g>
    <g id="ytick_6">
     <g id="line2d_10">
      <g>
       <use xlink:href="#mf3a08a2a51" x="80.8" y="101.811916" style="stroke: #000000; stroke-width: 0.8"/>
      </g>
     </g>
     <g id="text_10">
      <!-- 3000 -->
      <g transform="translate(53.8 105.283791) scale(0.1 -0.1)">
       <defs>
        <path id="TimesNewRomanPSMT-33" d="M 325 3431 
Q 506 3859 782 4092 
Q 1059 4325 1472 4325 
Q 1981 4325 2253 3994 
Q 2459 3747 2459 3466 
Q 2459 3003 1878 2509 
Q 2269 2356 2469 2072 
Q 2669 1788 2669 1403 
Q 2669 853 2319 450 
Q 1863 -75 997 -75 
Q 569 -75 414 31 
Q 259 138 259 259 
Q 259 350 332 419 
Q 406 488 509 488 
Q 588 488 669 463 
Q 722 447 909 348 
Q 1097 250 1169 231 
Q 1284 197 1416 197 
Q 1734 197 1970 444 
Q 2206 691 2206 1028 
Q 2206 1275 2097 1509 
Q 2016 1684 1919 1775 
Q 1784 1900 1550 2001 
Q 1316 2103 1072 2103 
L 972 2103 
L 972 2197 
Q 1219 2228 1467 2375 
Q 1716 2522 1828 2728 
Q 1941 2934 1941 3181 
Q 1941 3503 1739 3701 
Q 1538 3900 1238 3900 
Q 753 3900 428 3381 
L 325 3431 
z
" transform="scale(0.015625)"/>
       </defs>
       <use xlink:href="#TimesNewRomanPSMT-33"/>
       <use xlink:href="#TimesNewRomanPSMT-30" x="50"/>
       <use xlink:href="#TimesNewRomanPSMT-30" x="100"/>
       <use xlink:href="#TimesNewRomanPSMT-30" x="150"/>
      </g>
     </g>
    </g>
    <g id="ytick_7">
     <g id="line2d_11">
      <g>
       <use xlink:href="#mf3a08a2a51" x="80.8" y="72.94813" style="stroke: #000000; stroke-width: 0.8"/>
      </g>
     </g>
     <g id="text_11">
      <!-- 3500 -->
      <g transform="translate(53.8 76.420005) scale(0.1 -0.1)">
       <use xlink:href="#TimesNewRomanPSMT-33"/>
       <use xlink:href="#TimesNewRomanPSMT-35" x="50"/>
       <use xlink:href="#TimesNewRomanPSMT-30" x="100"/>
       <use xlink:href="#TimesNewRomanPSMT-30" x="150"/>
      </g>
     </g>
    </g>
    <g id="ytick_8">
     <g id="line2d_12">
      <g>
       <use xlink:href="#mf3a08a2a51" x="80.8" y="44.084345" style="stroke: #000000; stroke-width: 0.8"/>
      </g>
     </g>
     <g id="text_12">
      <!-- 4000 -->
      <g transform="translate(53.8 47.55622) scale(0.1 -0.1)">
       <defs>
        <path id="TimesNewRomanPSMT-34" d="M 2978 1563 
L 2978 1119 
L 2409 1119 
L 2409 0 
L 1894 0 
L 1894 1119 
L 100 1119 
L 100 1519 
L 2066 4325 
L 2409 4325 
L 2409 1563 
L 2978 1563 
z
M 1894 1563 
L 1894 3666 
L 406 1563 
L 1894 1563 
z
" transform="scale(0.015625)"/>
       </defs>
       <use xlink:href="#TimesNewRomanPSMT-34"/>
       <use xlink:href="#TimesNewRomanPSMT-30" x="50"/>
       <use xlink:href="#TimesNewRomanPSMT-30" x="100"/>
       <use xlink:href="#TimesNewRomanPSMT-30" x="150"/>
      </g>
     </g>
    </g>
    <g id="text_13">
     <!-- number -->
     <g transform="translate(46.805313 165.855403) rotate(-90) scale(0.14 -0.14)">
      <defs>
       <path id="TimesNewRomanPSMT-6e" d="M 1034 2341 
Q 1538 2947 1994 2947 
Q 2228 2947 2397 2830 
Q 2566 2713 2666 2444 
Q 2734 2256 2734 1869 
L 2734 647 
Q 2734 375 2778 278 
Q 2813 200 2889 156 
Q 2966 113 3172 113 
L 3172 0 
L 1756 0 
L 1756 113 
L 1816 113 
Q 2016 113 2095 173 
Q 2175 234 2206 353 
Q 2219 400 2219 647 
L 2219 1819 
Q 2219 2209 2117 2386 
Q 2016 2563 1775 2563 
Q 1403 2563 1034 2156 
L 1034 647 
Q 1034 356 1069 288 
Q 1113 197 1189 155 
Q 1266 113 1500 113 
L 1500 0 
L 84 0 
L 84 113 
L 147 113 
Q 366 113 442 223 
Q 519 334 519 647 
L 519 1709 
Q 519 2225 495 2337 
Q 472 2450 423 2490 
Q 375 2531 294 2531 
Q 206 2531 84 2484 
L 38 2597 
L 900 2947 
L 1034 2947 
L 1034 2341 
z
" transform="scale(0.015625)"/>
       <path id="TimesNewRomanPSMT-6d" d="M 1050 2338 
Q 1363 2650 1419 2697 
Q 1559 2816 1721 2881 
Q 1884 2947 2044 2947 
Q 2313 2947 2506 2790 
Q 2700 2634 2766 2338 
Q 3088 2713 3309 2830 
Q 3531 2947 3766 2947 
Q 3994 2947 4170 2830 
Q 4347 2713 4450 2447 
Q 4519 2266 4519 1878 
L 4519 647 
Q 4519 378 4559 278 
Q 4591 209 4675 161 
Q 4759 113 4950 113 
L 4950 0 
L 3538 0 
L 3538 113 
L 3597 113 
Q 3781 113 3884 184 
Q 3956 234 3988 344 
Q 4000 397 4000 647 
L 4000 1878 
Q 4000 2228 3916 2372 
Q 3794 2572 3525 2572 
Q 3359 2572 3192 2489 
Q 3025 2406 2788 2181 
L 2781 2147 
L 2788 2013 
L 2788 647 
Q 2788 353 2820 281 
Q 2853 209 2943 161 
Q 3034 113 3253 113 
L 3253 0 
L 1806 0 
L 1806 113 
Q 2044 113 2133 169 
Q 2222 225 2256 338 
Q 2272 391 2272 647 
L 2272 1878 
Q 2272 2228 2169 2381 
Q 2031 2581 1784 2581 
Q 1616 2581 1450 2491 
Q 1191 2353 1050 2181 
L 1050 647 
Q 1050 366 1089 281 
Q 1128 197 1204 155 
Q 1281 113 1516 113 
L 1516 0 
L 100 0 
L 100 113 
Q 297 113 375 155 
Q 453 197 493 289 
Q 534 381 534 647 
L 534 1741 
Q 534 2213 506 2350 
Q 484 2453 437 2492 
Q 391 2531 309 2531 
Q 222 2531 100 2484 
L 53 2597 
L 916 2947 
L 1050 2947 
L 1050 2338 
z
" transform="scale(0.015625)"/>
       <path id="TimesNewRomanPSMT-62" d="M 984 2369 
Q 1400 2947 1881 2947 
Q 2322 2947 2650 2570 
Q 2978 2194 2978 1541 
Q 2978 778 2472 313 
Q 2038 -88 1503 -88 
Q 1253 -88 995 3 
Q 738 94 469 275 
L 469 3241 
Q 469 3728 445 3840 
Q 422 3953 372 3993 
Q 322 4034 247 4034 
Q 159 4034 28 3984 
L -16 4094 
L 844 4444 
L 984 4444 
L 984 2369 
z
M 984 2169 
L 984 456 
Q 1144 300 1314 220 
Q 1484 141 1663 141 
Q 1947 141 2192 453 
Q 2438 766 2438 1363 
Q 2438 1913 2192 2208 
Q 1947 2503 1634 2503 
Q 1469 2503 1303 2419 
Q 1178 2356 984 2169 
z
" transform="scale(0.015625)"/>
      </defs>
      <use xlink:href="#TimesNewRomanPSMT-6e"/>
      <use xlink:href="#TimesNewRomanPSMT-75" x="50"/>
      <use xlink:href="#TimesNewRomanPSMT-6d" x="100"/>
      <use xlink:href="#TimesNewRomanPSMT-62" x="177.783203"/>
      <use xlink:href="#TimesNewRomanPSMT-65" x="227.783203"/>
      <use xlink:href="#TimesNewRomanPSMT-72" x="272.167969"/>
     </g>
    </g>
   </g>
   <g id="patch_3">
    <path d="M 122.248 121.727928 
L 133.552 121.727928 
L 133.552 86.918203 
L 122.248 86.918203 
L 122.248 121.727928 
L 122.248 121.727928 
z
" clip-path="url(#p8b22ebdb31)" style="fill: none; stroke: #000000; stroke-linejoin: miter"/>
   </g>
   <g id="line2d_13">
    <path d="M 127.9 121.727928 
L 127.9 171.777731 
" clip-path="url(#p8b22ebdb31)" style="fill: none; stroke: #000000; stroke-linecap: square"/>
   </g>
   <g id="line2d_14">
    <path d="M 127.9 86.918203 
L 127.9 40.447508 
" clip-path="url(#p8b22ebdb31)" style="fill: none; stroke: #000000; stroke-linecap: square"/>
   </g>
   <g id="line2d_15">
    <path d="M 125.074 171.777731 
L 130.726 171.777731 
" clip-path="url(#p8b22ebdb31)" style="fill: none; stroke: #000000; stroke-linecap: square"/>
   </g>
   <g id="line2d_16">
    <path d="M 125.074 40.447508 
L 130.726 40.447508 
" clip-path="url(#p8b22ebdb31)" style="fill: none; stroke: #000000; stroke-linecap: square"/>
   </g>
   <g id="patch_4">
    <path d="M 216.448 177.550488 
L 227.752 177.550488 
L 227.752 132.638438 
L 216.448 132.638438 
L 216.448 177.550488 
L 216.448 177.550488 
z
" clip-path="url(#p8b22ebdb31)" style="fill: none; stroke: #000000; stroke-linejoin: miter"/>
   </g>
   <g id="line2d_17">
    <path d="M 222.1 177.550488 
L 222.1 230.948491 
" clip-path="url(#p8b22ebdb31)" style="fill: none; stroke: #000000; stroke-linecap: square"/>
   </g>
   <g id="line2d_18">
    <path d="M 222.1 132.638438 
L 222.1 66.020822 
" clip-path="url(#p8b22ebdb31)" style="fill: none; stroke: #000000; stroke-linecap: square"/>
   </g>
   <g id="line2d_19">
    <path d="M 219.274 230.948491 
L 224.926 230.948491 
" clip-path="url(#p8b22ebdb31)" style="fill: none; stroke: #000000; stroke-linecap: square"/>
   </g>
   <g id="line2d_20">
    <path d="M 219.274 66.020822 
L 224.926 66.020822 
" clip-path="url(#p8b22ebdb31)" style="fill: none; stroke: #000000; stroke-linecap: square"/>
   </g>
   <g id="patch_5">
    <path d="M 310.648 141.008936 
L 321.952 141.008936 
L 321.952 127.38523 
L 310.648 127.38523 
L 310.648 141.008936 
L 310.648 141.008936 
z
" clip-path="url(#p8b22ebdb31)" style="fill: none; stroke: #000000; stroke-linejoin: miter"/>
   </g>
   <g id="line2d_21">
    <path d="M 316.3 141.008936 
L 316.3 154.979008 
" clip-path="url(#p8b22ebdb31)" style="fill: none; stroke: #000000; stroke-linecap: square"/>
   </g>
   <g id="line2d_22">
    <path d="M 316.3 127.38523 
L 316.3 113.12652 
" clip-path="url(#p8b22ebdb31)" style="fill: none; stroke: #000000; stroke-linecap: square"/>
   </g>
   <g id="line2d_23">
    <path d="M 313.474 154.979008 
L 319.126 154.979008 
" clip-path="url(#p8b22ebdb31)" style="fill: none; stroke: #000000; stroke-linecap: square"/>
   </g>
   <g id="line2d_24">
    <path d="M 313.474 113.12652 
L 319.126 113.12652 
" clip-path="url(#p8b22ebdb31)" style="fill: none; stroke: #000000; stroke-linecap: square"/>
   </g>
   <g id="patch_6">
    <path d="M 404.848 123.286572 
L 416.152 123.286572 
L 416.152 99.09872 
L 404.848 99.09872 
L 404.848 123.286572 
L 404.848 123.286572 
z
" clip-path="url(#p8b22ebdb31)" style="fill: none; stroke: #000000; stroke-linejoin: miter"/>
   </g>
   <g id="line2d_25">
    <path d="M 410.5 123.286572 
L 410.5 154.170822 
" clip-path="url(#p8b22ebdb31)" style="fill: none; stroke: #000000; stroke-linecap: square"/>
   </g>
   <g id="line2d_26">
    <path d="M 410.5 99.09872 
L 410.5 67.290829 
" clip-path="url(#p8b22ebdb31)" style="fill: none; stroke: #000000; stroke-linecap: square"/>
   </g>
   <g id="line2d_27">
    <path d="M 407.674 154.170822 
L 413.326 154.170822 
" clip-path="url(#p8b22ebdb31)" style="fill: none; stroke: #000000; stroke-linecap: square"/>
   </g>
   <g id="line2d_28">
    <path d="M 407.674 67.290829 
L 413.326 67.290829 
" clip-path="url(#p8b22ebdb31)" style="fill: none; stroke: #000000; stroke-linecap: square"/>
   </g>
   <g id="line2d_29">
    <path d="M 122.248 104.294201 
L 133.552 104.294201 
" clip-path="url(#p8b22ebdb31)" style="fill: none; stroke: #000000; stroke-width: 1.5; stroke-linecap: square"/>
   </g>
   <g id="line2d_30">
    <path d="M 216.448 159.539486 
L 227.752 159.539486 
" clip-path="url(#p8b22ebdb31)" style="fill: none; stroke: #000000; stroke-width: 1.5; stroke-linecap: square"/>
   </g>
   <g id="line2d_31">
    <path d="M 310.648 133.273442 
L 321.952 133.273442 
" clip-path="url(#p8b22ebdb31)" style="fill: none; stroke: #000000; stroke-width: 1.5; stroke-linecap: square"/>
   </g>
   <g id="line2d_32">
    <path d="M 404.848 112.664699 
L 416.152 112.664699 
" clip-path="url(#p8b22ebdb31)" style="fill: none; stroke: #000000; stroke-width: 1.5; stroke-linecap: square"/>
   </g>
   <g id="patch_7">
    <path d="M 80.8 258.900181 
L 80.8 30.045 
" style="fill: none; stroke: #000000; stroke-linejoin: miter; stroke-linecap: square"/>
   </g>
   <g id="patch_8">
    <path d="M 457.6 258.900181 
L 457.6 30.045 
" style="fill: none; stroke: #000000; stroke-linejoin: miter; stroke-linecap: square"/>
   </g>
   <g id="patch_9">
    <path d="M 80.8 258.900181 
L 457.6 258.900181 
" style="fill: none; stroke: #000000; stroke-linejoin: miter; stroke-linecap: square"/>
   </g>
   <g id="patch_10">
    <path d="M 80.8 30.045 
L 457.6 30.045 
" style="fill: none; stroke: #000000; stroke-linejoin: miter; stroke-linecap: square"/>
   </g>
   <g id="text_14">
    <!-- Number of people participating in cultural activities across regions (number) -->
    <g transform="translate(7.2 18.045) scale(0.16 -0.16)">
     <defs>
      <path id="TimesNewRomanPS-BoldMT-4e" d="M 1594 4238 
L 3684 1609 
L 3684 3431 
Q 3684 3813 3575 3947 
Q 3425 4128 3072 4122 
L 3072 4238 
L 4472 4238 
L 4472 4122 
Q 4203 4088 4111 4033 
Q 4019 3978 3967 3854 
Q 3916 3731 3916 3431 
L 3916 -97 
L 3809 -97 
L 944 3431 
L 944 738 
Q 944 372 1111 244 
Q 1278 116 1494 116 
L 1594 116 
L 1594 0 
L 91 0 
L 91 116 
Q 441 119 578 259 
Q 716 400 716 738 
L 716 3728 
L 625 3841 
Q 491 4009 387 4062 
Q 284 4116 91 4122 
L 91 4238 
L 1594 4238 
z
" transform="scale(0.015625)"/>
      <path id="TimesNewRomanPS-BoldMT-75" d="M 3038 2922 
L 3038 634 
Q 3038 300 3100 217 
Q 3163 134 3353 113 
L 3353 0 
L 2163 0 
L 2163 391 
Q 1953 141 1743 26 
Q 1534 -88 1275 -88 
Q 1028 -88 836 64 
Q 644 216 578 419 
Q 513 622 513 1128 
L 513 2288 
Q 513 2619 452 2700 
Q 391 2781 197 2806 
L 197 2922 
L 1388 2922 
L 1388 925 
Q 1388 613 1417 522 
Q 1447 431 1511 384 
Q 1575 338 1659 338 
Q 1772 338 1863 397 
Q 1988 478 2163 725 
L 2163 2288 
Q 2163 2619 2102 2700 
Q 2041 2781 1847 2806 
L 1847 2922 
L 3038 2922 
z
" transform="scale(0.015625)"/>
      <path id="TimesNewRomanPS-BoldMT-6d" d="M 1428 2922 
L 1428 2538 
Q 1669 2800 1873 2904 
Q 2078 3009 2322 3009 
Q 2603 3009 2793 2878 
Q 2984 2747 3088 2478 
Q 3338 2759 3567 2884 
Q 3797 3009 4047 3009 
Q 4350 3009 4529 2870 
Q 4709 2731 4779 2517 
Q 4850 2303 4850 1834 
L 4850 638 
Q 4850 300 4911 219 
Q 4972 138 5166 113 
L 5166 0 
L 3656 0 
L 3656 113 
Q 3834 128 3919 250 
Q 3975 334 3975 638 
L 3975 1894 
Q 3975 2284 3944 2390 
Q 3913 2497 3845 2548 
Q 3778 2600 3688 2600 
Q 3553 2600 3415 2501 
Q 3278 2403 3138 2206 
L 3138 638 
Q 3138 322 3191 241 
Q 3263 125 3466 113 
L 3466 0 
L 1953 0 
L 1953 113 
Q 2075 119 2145 173 
Q 2216 228 2239 304 
Q 2263 381 2263 638 
L 2263 1894 
Q 2263 2291 2231 2391 
Q 2200 2491 2126 2547 
Q 2053 2603 1969 2603 
Q 1844 2603 1741 2538 
Q 1594 2441 1428 2206 
L 1428 638 
Q 1428 328 1489 229 
Q 1550 131 1744 113 
L 1744 0 
L 238 0 
L 238 113 
Q 422 131 500 231 
Q 553 300 553 638 
L 553 2288 
Q 553 2619 492 2700 
Q 431 2781 238 2806 
L 238 2922 
L 1428 2922 
z
" transform="scale(0.015625)"/>
      <path id="TimesNewRomanPS-BoldMT-62" d="M 1347 4238 
L 1347 2628 
Q 1716 3009 2153 3009 
Q 2453 3009 2718 2832 
Q 2984 2656 3134 2331 
Q 3284 2006 3284 1581 
Q 3284 1103 3093 712 
Q 2903 322 2584 117 
Q 2266 -88 1856 -88 
Q 1619 -88 1434 -12 
Q 1250 63 1072 231 
L 588 -84 
L 481 -84 
L 481 3631 
Q 481 3884 459 3944 
Q 428 4031 361 4073 
Q 294 4116 134 4122 
L 134 4238 
L 1347 4238 
z
M 1347 2350 
L 1347 1050 
Q 1347 653 1366 544 
Q 1397 359 1515 245 
Q 1634 131 1819 131 
Q 1978 131 2092 222 
Q 2206 313 2282 581 
Q 2359 850 2359 1550 
Q 2359 2222 2191 2472 
Q 2069 2653 1863 2653 
Q 1594 2653 1347 2350 
z
" transform="scale(0.015625)"/>
      <path id="TimesNewRomanPS-BoldMT-65" d="M 2691 1566 
L 1088 1566 
Q 1116 984 1397 647 
Q 1613 388 1916 388 
Q 2103 388 2256 492 
Q 2409 597 2584 869 
L 2691 800 
Q 2453 316 2165 114 
Q 1878 -88 1500 -88 
Q 850 -88 516 413 
Q 247 816 247 1413 
Q 247 2144 642 2576 
Q 1038 3009 1569 3009 
Q 2013 3009 2339 2645 
Q 2666 2281 2691 1566 
z
M 1922 1775 
Q 1922 2278 1867 2465 
Q 1813 2653 1697 2750 
Q 1631 2806 1522 2806 
Q 1359 2806 1256 2647 
Q 1072 2369 1072 1884 
L 1072 1775 
L 1922 1775 
z
" transform="scale(0.015625)"/>
      <path id="TimesNewRomanPS-BoldMT-72" d="M 1428 2922 
L 1428 2259 
Q 1719 2713 1937 2861 
Q 2156 3009 2359 3009 
Q 2534 3009 2639 2901 
Q 2744 2794 2744 2597 
Q 2744 2388 2642 2272 
Q 2541 2156 2397 2156 
Q 2231 2156 2109 2262 
Q 1988 2369 1966 2381 
Q 1934 2400 1894 2400 
Q 1803 2400 1722 2331 
Q 1594 2225 1528 2028 
Q 1428 1725 1428 1359 
L 1428 688 
L 1431 513 
Q 1431 334 1453 284 
Q 1491 200 1564 161 
Q 1638 122 1813 113 
L 1813 0 
L 234 0 
L 234 113 
Q 425 128 492 217 
Q 559 306 559 688 
L 559 2303 
Q 559 2553 534 2622 
Q 503 2709 443 2750 
Q 384 2791 234 2806 
L 234 2922 
L 1428 2922 
z
" transform="scale(0.015625)"/>
      <path id="TimesNewRomanPS-BoldMT-20" transform="scale(0.015625)"/>
      <path id="TimesNewRomanPS-BoldMT-6f" d="M 1594 3009 
Q 1975 3009 2303 2812 
Q 2631 2616 2801 2253 
Q 2972 1891 2972 1459 
Q 2972 838 2656 419 
Q 2275 -88 1603 -88 
Q 944 -88 587 375 
Q 231 838 231 1447 
Q 231 2075 595 2542 
Q 959 3009 1594 3009 
z
M 1606 2788 
Q 1447 2788 1333 2667 
Q 1219 2547 1183 2192 
Q 1147 1838 1147 1206 
Q 1147 872 1191 581 
Q 1225 359 1337 243 
Q 1450 128 1594 128 
Q 1734 128 1828 206 
Q 1950 313 1991 503 
Q 2053 800 2053 1703 
Q 2053 2234 1993 2432 
Q 1934 2631 1819 2722 
Q 1738 2788 1606 2788 
z
" transform="scale(0.015625)"/>
      <path id="TimesNewRomanPS-BoldMT-66" d="M 1497 2616 
L 1497 588 
Q 1497 294 1559 219 
Q 1659 103 1928 113 
L 1928 0 
L 206 0 
L 206 113 
Q 403 116 486 158 
Q 569 200 600 275 
Q 631 350 631 588 
L 631 2616 
L 206 2616 
L 206 2922 
L 631 2922 
L 631 3138 
L 628 3284 
Q 628 3734 958 4034 
Q 1288 4334 1850 4334 
Q 2234 4334 2420 4190 
Q 2606 4047 2606 3872 
Q 2606 3731 2490 3628 
Q 2375 3525 2184 3525 
Q 2022 3525 1926 3609 
Q 1831 3694 1831 3797 
Q 1831 3825 1850 3913 
Q 1863 3966 1863 4013 
Q 1863 4078 1825 4109 
Q 1775 4156 1703 4156 
Q 1613 4156 1552 4081 
Q 1491 4006 1491 3841 
L 1497 3294 
L 1497 2922 
L 1928 2922 
L 1928 2616 
L 1497 2616 
z
" transform="scale(0.015625)"/>
      <path id="TimesNewRomanPS-BoldMT-70" d="M 1347 297 
L 1347 -791 
Q 1347 -1016 1383 -1097 
Q 1419 -1178 1494 -1215 
Q 1569 -1253 1788 -1253 
L 1788 -1369 
L 122 -1369 
L 122 -1253 
Q 316 -1247 409 -1144 
Q 472 -1072 472 -772 
L 472 2313 
Q 472 2622 400 2708 
Q 328 2794 122 2806 
L 122 2922 
L 1347 2922 
L 1347 2538 
Q 1500 2763 1659 2863 
Q 1888 3009 2156 3009 
Q 2478 3009 2742 2806 
Q 3006 2603 3143 2245 
Q 3281 1888 3281 1475 
Q 3281 1031 3139 664 
Q 2997 297 2726 104 
Q 2456 -88 2125 -88 
Q 1884 -88 1675 19 
Q 1519 100 1347 297 
z
M 1347 613 
Q 1616 231 1922 231 
Q 2091 231 2200 409 
Q 2363 672 2363 1409 
Q 2363 2166 2184 2444 
Q 2066 2628 1866 2628 
Q 1550 2628 1347 2172 
L 1347 613 
z
" transform="scale(0.015625)"/>
      <path id="TimesNewRomanPS-BoldMT-6c" d="M 1359 4238 
L 1359 606 
Q 1359 297 1431 211 
Q 1503 125 1713 113 
L 1713 0 
L 134 0 
L 134 113 
Q 328 119 422 225 
Q 484 297 484 606 
L 484 3631 
Q 484 3938 412 4023 
Q 341 4109 134 4122 
L 134 4238 
L 1359 4238 
z
" transform="scale(0.015625)"/>
      <path id="TimesNewRomanPS-BoldMT-61" d="M 1828 431 
Q 1294 -41 869 -41 
Q 619 -41 453 123 
Q 288 288 288 534 
Q 288 869 575 1136 
Q 863 1403 1828 1847 
L 1828 2141 
Q 1828 2472 1792 2558 
Q 1756 2644 1656 2708 
Q 1556 2772 1431 2772 
Q 1228 2772 1097 2681 
Q 1016 2625 1016 2550 
Q 1016 2484 1103 2388 
Q 1222 2253 1222 2128 
Q 1222 1975 1108 1867 
Q 994 1759 809 1759 
Q 613 1759 480 1878 
Q 347 1997 347 2156 
Q 347 2381 525 2586 
Q 703 2791 1022 2900 
Q 1341 3009 1684 3009 
Q 2100 3009 2342 2832 
Q 2584 2656 2656 2450 
Q 2700 2319 2700 1847 
L 2700 713 
Q 2700 513 2715 461 
Q 2731 409 2762 384 
Q 2794 359 2834 359 
Q 2916 359 3000 475 
L 3094 400 
Q 2938 169 2770 64 
Q 2603 -41 2391 -41 
Q 2141 -41 2000 76 
Q 1859 194 1828 431 
z
M 1828 659 
L 1828 1638 
Q 1450 1416 1266 1163 
Q 1144 994 1144 822 
Q 1144 678 1247 569 
Q 1325 484 1466 484 
Q 1622 484 1828 659 
z
" transform="scale(0.015625)"/>
      <path id="TimesNewRomanPS-BoldMT-74" d="M 1375 3991 
L 1375 2922 
L 2069 2922 
L 2069 2613 
L 1375 2613 
L 1375 809 
Q 1375 556 1398 482 
Q 1422 409 1481 364 
Q 1541 319 1591 319 
Q 1794 319 1975 628 
L 2069 559 
Q 1816 -41 1247 -41 
Q 969 -41 776 114 
Q 584 269 531 459 
Q 500 566 500 1034 
L 500 2613 
L 119 2613 
L 119 2722 
Q 513 3000 789 3306 
Q 1066 3613 1272 3991 
L 1375 3991 
z
" transform="scale(0.015625)"/>
      <path id="TimesNewRomanPS-BoldMT-69" d="M 919 4338 
Q 1122 4338 1262 4195 
Q 1403 4053 1403 3853 
Q 1403 3653 1261 3512 
Q 1119 3372 919 3372 
Q 719 3372 578 3512 
Q 438 3653 438 3853 
Q 438 4053 578 4195 
Q 719 4338 919 4338 
z
M 1356 2922 
L 1356 606 
Q 1356 297 1428 211 
Q 1500 125 1709 113 
L 1709 0 
L 131 0 
L 131 113 
Q 325 119 419 225 
Q 481 297 481 606 
L 481 2313 
Q 481 2622 409 2708 
Q 338 2794 131 2806 
L 131 2922 
L 1356 2922 
z
" transform="scale(0.015625)"/>
      <path id="TimesNewRomanPS-BoldMT-63" d="M 2600 753 
L 2697 678 
Q 2491 291 2183 101 
Q 1875 -88 1528 -88 
Q 944 -88 594 353 
Q 244 794 244 1413 
Q 244 2009 563 2463 
Q 947 3009 1622 3009 
Q 2075 3009 2342 2781 
Q 2609 2553 2609 2272 
Q 2609 2094 2501 1987 
Q 2394 1881 2219 1881 
Q 2034 1881 1914 2003 
Q 1794 2125 1766 2438 
Q 1747 2634 1675 2713 
Q 1603 2791 1506 2791 
Q 1356 2791 1250 2631 
Q 1088 2391 1088 1894 
Q 1088 1481 1219 1104 
Q 1350 728 1578 544 
Q 1750 409 1984 409 
Q 2138 409 2275 481 
Q 2413 553 2600 753 
z
" transform="scale(0.015625)"/>
      <path id="TimesNewRomanPS-BoldMT-6e" d="M 1409 2922 
L 1409 2544 
Q 1634 2788 1840 2898 
Q 2047 3009 2284 3009 
Q 2569 3009 2756 2851 
Q 2944 2694 3006 2459 
Q 3056 2281 3056 1775 
L 3056 638 
Q 3056 300 3117 217 
Q 3178 134 3372 113 
L 3372 0 
L 1894 0 
L 1894 113 
Q 2059 134 2131 250 
Q 2181 328 2181 638 
L 2181 1938 
Q 2181 2297 2153 2390 
Q 2125 2484 2058 2536 
Q 1991 2588 1909 2588 
Q 1641 2588 1409 2203 
L 1409 638 
Q 1409 309 1470 221 
Q 1531 134 1697 113 
L 1697 0 
L 219 0 
L 219 113 
Q 403 131 481 231 
Q 534 300 534 638 
L 534 2288 
Q 534 2619 473 2700 
Q 413 2781 219 2806 
L 219 2922 
L 1409 2922 
z
" transform="scale(0.015625)"/>
      <path id="TimesNewRomanPS-BoldMT-67" d="M 2091 2888 
L 3075 2888 
L 3075 2544 
L 2516 2544 
Q 2669 2391 2728 2266 
Q 2803 2097 2803 1913 
Q 2803 1600 2629 1370 
Q 2456 1141 2157 1011 
Q 1859 881 1628 881 
Q 1609 881 1253 897 
Q 1113 897 1017 805 
Q 922 713 922 584 
Q 922 472 1008 400 
Q 1094 328 1288 328 
L 1828 334 
Q 2484 334 2731 191 
Q 3084 -9 3084 -425 
Q 3084 -691 2921 -908 
Q 2759 -1125 2494 -1228 
Q 2091 -1381 1566 -1381 
Q 1172 -1381 847 -1304 
Q 522 -1228 381 -1092 
Q 241 -956 241 -806 
Q 241 -663 348 -548 
Q 456 -434 750 -356 
Q 344 -156 344 200 
Q 344 416 509 619 
Q 675 822 1034 972 
Q 616 1125 428 1375 
Q 241 1625 241 1953 
Q 241 2381 591 2695 
Q 941 3009 1491 3009 
Q 1781 3009 2091 2888 
z
M 1550 2816 
Q 1369 2816 1244 2633 
Q 1119 2450 1119 1875 
Q 1119 1409 1242 1236 
Q 1366 1063 1534 1063 
Q 1722 1063 1847 1234 
Q 1972 1406 1972 1903 
Q 1972 2463 1831 2666 
Q 1731 2816 1550 2816 
z
M 1366 -431 
Q 1047 -431 944 -484 
Q 766 -581 766 -747 
Q 766 -906 950 -1036 
Q 1134 -1166 1644 -1166 
Q 2078 -1166 2326 -1050 
Q 2575 -934 2575 -725 
Q 2575 -647 2528 -594 
Q 2444 -500 2273 -465 
Q 2103 -431 1366 -431 
z
" transform="scale(0.015625)"/>
      <path id="TimesNewRomanPS-BoldMT-76" d="M 1534 -88 
L 550 2178 
Q 372 2588 272 2697 
Q 200 2778 59 2806 
L 59 2922 
L 1613 2922 
L 1613 2806 
Q 1466 2806 1413 2753 
Q 1338 2684 1338 2591 
Q 1338 2475 1475 2156 
L 1956 1059 
L 2341 2006 
Q 2506 2413 2506 2581 
Q 2506 2678 2436 2739 
Q 2366 2800 2188 2806 
L 2188 2922 
L 3144 2922 
L 3144 2806 
Q 3006 2788 2918 2703 
Q 2831 2619 2656 2206 
L 1681 -88 
L 1534 -88 
z
" transform="scale(0.015625)"/>
      <path id="TimesNewRomanPS-BoldMT-73" d="M 2063 3003 
L 2109 2006 
L 2003 2006 
Q 1813 2450 1608 2612 
Q 1403 2775 1200 2775 
Q 1072 2775 981 2689 
Q 891 2603 891 2491 
Q 891 2406 953 2328 
Q 1053 2200 1512 1889 
Q 1972 1578 2117 1361 
Q 2263 1144 2263 875 
Q 2263 631 2141 397 
Q 2019 163 1797 37 
Q 1575 -88 1306 -88 
Q 1097 -88 747 44 
Q 653 78 619 78 
Q 516 78 447 -78 
L 344 -78 
L 294 972 
L 400 972 
Q 541 559 786 353 
Q 1031 147 1250 147 
Q 1400 147 1495 239 
Q 1591 331 1591 463 
Q 1591 613 1497 722 
Q 1403 831 1078 1053 
Q 600 1384 459 1559 
Q 253 1816 253 2125 
Q 253 2463 486 2736 
Q 719 3009 1159 3009 
Q 1397 3009 1619 2894 
Q 1703 2847 1756 2847 
Q 1813 2847 1847 2870 
Q 1881 2894 1956 3003 
L 2063 3003 
z
" transform="scale(0.015625)"/>
      <path id="TimesNewRomanPS-BoldMT-28" d="M 2056 4334 
L 2056 4191 
Q 1731 3978 1578 3775 
Q 1366 3494 1247 3053 
Q 1097 2506 1097 1525 
Q 1097 600 1233 87 
Q 1369 -425 1603 -741 
Q 1766 -959 2056 -1125 
L 2056 -1281 
Q 1303 -1028 779 -248 
Q 256 531 256 1544 
Q 256 2544 778 3314 
Q 1300 4084 2056 4334 
z
" transform="scale(0.015625)"/>
      <path id="TimesNewRomanPS-BoldMT-29" d="M 78 -1281 
L 78 -1138 
Q 403 -922 556 -719 
Q 766 -438 888 0 
Q 1038 550 1038 1531 
Q 1038 2456 902 2967 
Q 766 3478 531 3794 
Q 369 4013 78 4178 
L 78 4334 
Q 831 4081 1354 3301 
Q 1878 2522 1878 1509 
Q 1878 513 1354 -257 
Q 831 -1028 78 -1281 
z
" transform="scale(0.015625)"/>
     </defs>
     <use xlink:href="#TimesNewRomanPS-BoldMT-4e"/>
     <use xlink:href="#TimesNewRomanPS-BoldMT-75" x="72.216797"/>
     <use xlink:href="#TimesNewRomanPS-BoldMT-6d" x="127.832031"/>
     <use xlink:href="#TimesNewRomanPS-BoldMT-62" x="211.132812"/>
     <use xlink:href="#TimesNewRomanPS-BoldMT-65" x="266.748047"/>
     <use xlink:href="#TimesNewRomanPS-BoldMT-72" x="311.132812"/>
     <use xlink:href="#TimesNewRomanPS-BoldMT-20" x="353.767578"/>
     <use xlink:href="#TimesNewRomanPS-BoldMT-6f" x="378.767578"/>
     <use xlink:href="#TimesNewRomanPS-BoldMT-66" x="428.767578"/>
     <use xlink:href="#TimesNewRomanPS-BoldMT-20" x="462.068359"/>
     <use xlink:href="#TimesNewRomanPS-BoldMT-70" x="487.068359"/>
     <use xlink:href="#TimesNewRomanPS-BoldMT-65" x="542.683594"/>
     <use xlink:href="#TimesNewRomanPS-BoldMT-6f" x="587.068359"/>
     <use xlink:href="#TimesNewRomanPS-BoldMT-70" x="637.068359"/>
     <use xlink:href="#TimesNewRomanPS-BoldMT-6c" x="692.683594"/>
     <use xlink:href="#TimesNewRomanPS-BoldMT-65" x="720.466797"/>
     <use xlink:href="#TimesNewRomanPS-BoldMT-20" x="764.851562"/>
     <use xlink:href="#TimesNewRomanPS-BoldMT-70" x="789.851562"/>
     <use xlink:href="#TimesNewRomanPS-BoldMT-61" x="845.466797"/>
     <use xlink:href="#TimesNewRomanPS-BoldMT-72" x="895.466797"/>
     <use xlink:href="#TimesNewRomanPS-BoldMT-74" x="939.851562"/>
     <use xlink:href="#TimesNewRomanPS-BoldMT-69" x="973.152344"/>
     <use xlink:href="#TimesNewRomanPS-BoldMT-63" x="1000.935547"/>
     <use xlink:href="#TimesNewRomanPS-BoldMT-69" x="1045.320312"/>
     <use xlink:href="#TimesNewRomanPS-BoldMT-70" x="1073.103516"/>
     <use xlink:href="#TimesNewRomanPS-BoldMT-61" x="1128.71875"/>
     <use xlink:href="#TimesNewRomanPS-BoldMT-74" x="1178.71875"/>
     <use xlink:href="#TimesNewRomanPS-BoldMT-69" x="1212.019531"/>
     <use xlink:href="#TimesNewRomanPS-BoldMT-6e" x="1239.802734"/>
     <use xlink:href="#TimesNewRomanPS-BoldMT-67" x="1295.417969"/>
     <use xlink:href="#TimesNewRomanPS-BoldMT-20" x="1345.417969"/>
     <use xlink:href="#TimesNewRomanPS-BoldMT-69" x="1370.417969"/>
     <use xlink:href="#TimesNewRomanPS-BoldMT-6e" x="1398.201172"/>
     <use xlink:href="#TimesNewRomanPS-BoldMT-20" x="1453.816406"/>
     <use xlink:href="#TimesNewRomanPS-BoldMT-63" x="1478.816406"/>
     <use xlink:href="#TimesNewRomanPS-BoldMT-75" x="1523.201172"/>
     <use xlink:href="#TimesNewRomanPS-BoldMT-6c" x="1578.816406"/>
     <use xlink:href="#TimesNewRomanPS-BoldMT-74" x="1606.599609"/>
     <use xlink:href="#TimesNewRomanPS-BoldMT-75" x="1639.900391"/>
     <use xlink:href="#TimesNewRomanPS-BoldMT-72" x="1695.515625"/>
     <use xlink:href="#TimesNewRomanPS-BoldMT-61" x="1739.900391"/>
     <use xlink:href="#TimesNewRomanPS-BoldMT-6c" x="1789.900391"/>
     <use xlink:href="#TimesNewRomanPS-BoldMT-20" x="1817.683594"/>
     <use xlink:href="#TimesNewRomanPS-BoldMT-61" x="1842.683594"/>
     <use xlink:href="#TimesNewRomanPS-BoldMT-63" x="1892.683594"/>
     <use xlink:href="#TimesNewRomanPS-BoldMT-74" x="1937.068359"/>
     <use xlink:href="#TimesNewRomanPS-BoldMT-69" x="1970.369141"/>
     <use xlink:href="#TimesNewRomanPS-BoldMT-76" x="1998.152344"/>
     <use xlink:href="#TimesNewRomanPS-BoldMT-69" x="2048.152344"/>
     <use xlink:href="#TimesNewRomanPS-BoldMT-74" x="2075.935547"/>
     <use xlink:href="#TimesNewRomanPS-BoldMT-69" x="2109.236328"/>
     <use xlink:href="#TimesNewRomanPS-BoldMT-65" x="2137.019531"/>
     <use xlink:href="#TimesNewRomanPS-BoldMT-73" x="2181.404297"/>
     <use xlink:href="#TimesNewRomanPS-BoldMT-20" x="2220.320312"/>
     <use xlink:href="#TimesNewRomanPS-BoldMT-61" x="2245.320312"/>
     <use xlink:href="#TimesNewRomanPS-BoldMT-63" x="2295.320312"/>
     <use xlink:href="#TimesNewRomanPS-BoldMT-72" x="2339.705078"/>
     <use xlink:href="#TimesNewRomanPS-BoldMT-6f" x="2382.339844"/>
     <use xlink:href="#TimesNewRomanPS-BoldMT-73" x="2432.339844"/>
     <use xlink:href="#TimesNewRomanPS-BoldMT-73" x="2471.255859"/>
     <use xlink:href="#TimesNewRomanPS-BoldMT-20" x="2510.171875"/>
     <use xlink:href="#TimesNewRomanPS-BoldMT-72" x="2535.171875"/>
     <use xlink:href="#TimesNewRomanPS-BoldMT-65" x="2577.806641"/>
     <use xlink:href="#TimesNewRomanPS-BoldMT-67" x="2622.191406"/>
     <use xlink:href="#TimesNewRomanPS-BoldMT-69" x="2672.191406"/>
     <use xlink:href="#TimesNewRomanPS-BoldMT-6f" x="2699.974609"/>
     <use xlink:href="#TimesNewRomanPS-BoldMT-6e" x="2749.974609"/>
     <use xlink:href="#TimesNewRomanPS-BoldMT-73" x="2805.589844"/>
     <use xlink:href="#TimesNewRomanPS-BoldMT-20" x="2844.505859"/>
     <use xlink:href="#TimesNewRomanPS-BoldMT-28" x="2869.505859"/>
     <use xlink:href="#TimesNewRomanPS-BoldMT-6e" x="2902.806641"/>
     <use xlink:href="#TimesNewRomanPS-BoldMT-75" x="2958.421875"/>
     <use xlink:href="#TimesNewRomanPS-BoldMT-6d" x="3014.037109"/>
     <use xlink:href="#TimesNewRomanPS-BoldMT-62" x="3097.337891"/>
     <use xlink:href="#TimesNewRomanPS-BoldMT-65" x="3152.953125"/>
     <use xlink:href="#TimesNewRomanPS-BoldMT-72" x="3197.337891"/>
     <use xlink:href="#TimesNewRomanPS-BoldMT-29" x="3241.722656"/>
    </g>
   </g>
  </g>
 </g>
 <defs>
  <clipPath id="p8b22ebdb31">
   <rect x="80.8" y="30.045" width="376.8" height="228.855181"/>
  </clipPath>
 </defs>
</svg>
