<?xml version="1.0" encoding="utf-8" standalone="no"?>
<!DOCTYPE svg PUBLIC "-//W3C//DTD SVG 1.1//EN"
  "http://www.w3.org/Graphics/SVG/1.1/DTD/svg11.dtd">
<svg xmlns:xlink="http://www.w3.org/1999/xlink" width="538.4pt" height="319.934957pt" viewBox="0 0 538.4 319.934957" xmlns="http://www.w3.org/2000/svg" version="1.1">
 <metadata>
  <rdf:RDF xmlns:dc="http://purl.org/dc/elements/1.1/" xmlns:cc="http://creativecommons.org/ns#" xmlns:rdf="http://www.w3.org/1999/02/22-rdf-syntax-ns#">
   <cc:Work>
    <dc:type rdf:resource="http://purl.org/dc/dcmitype/StillImage"/>
    <dc:date>2025-05-26T17:51:22.481284</dc:date>
    <dc:format>image/svg+xml</dc:format>
    <dc:creator>
     <cc:Agent>
      <dc:title>Matplotlib v3.7.2, https://matplotlib.org/</dc:title>
     </cc:Agent>
    </dc:creator>
   </cc:Work>
  </rdf:RDF>
 </metadata>
 <defs>
  <style type="text/css">*{stroke-linejoin: round; stroke-linecap: butt}</style>
 </defs>
 <g id="figure_1">
  <g id="patch_1">
   <path d="M 0 319.934957 
L 538.4 319.934957 
L 538.4 0 
L 0 0 
z
" style="fill: #ffffff"/>
  </g>
  <g id="axes_1">
   <g id="patch_2">
    <path d="M 80.8 258.900181 
L 457.6 258.900181 
L 457.6 30.045 
L 80.8 30.045 
z
" style="fill: #ffffff"/>
   </g>
   <g id="PolyCollection_1">
    <defs>
     <path id="m232c4aafe3" d="M 113.884734 -195.43764 
L 110.515266 -195.43764 
L 110.394901 -196.286628 
L 110.290554 -197.135616 
L 110.20202 -197.984604 
L 110.126989 -198.833592 
L 110.060991 -199.68258 
L 109.997544 -200.531568 
L 109.928484 -201.380556 
L 109.844455 -202.229544 
L 109.735506 -203.078532 
L 109.591738 -203.92752 
L 109.40395 -204.776508 
L 109.164232 -205.625496 
L 108.866472 -206.474484 
L 108.506739 -207.323472 
L 108.083553 -208.17246 
L 107.598022 -209.021448 
L 107.053848 -209.870436 
L 106.457215 -210.719424 
L 105.816552 -211.568412 
L 105.142164 -212.4174 
L 104.445756 -213.266388 
L 103.73984 -214.115375 
L 103.03705 -214.964363 
L 102.349415 -215.813351 
L 101.687601 -216.662339 
L 101.060221 -217.511327 
L 100.473232 -218.360315 
L 99.929515 -219.209303 
L 99.428676 -220.058291 
L 98.967099 -220.907279 
L 98.538294 -221.756267 
L 98.133498 -222.605255 
L 97.742514 -223.454243 
L 97.354701 -224.303231 
L 96.960029 -225.152219 
L 96.550097 -226.001207 
L 96.119009 -226.850195 
L 95.664019 -227.699183 
L 95.1859 -228.548171 
L 94.689007 -229.397159 
L 94.181059 -230.246147 
L 93.672687 -231.095135 
L 93.176807 -231.944123 
L 92.707887 -232.793111 
L 92.281165 -233.642099 
L 91.91184 -234.491086 
L 91.614269 -235.340074 
L 91.40118 -236.189062 
L 91.282902 -237.03805 
L 91.266667 -237.887038 
L 91.356017 -238.736026 
L 91.550409 -239.585014 
L 91.845095 -240.434002 
L 92.231337 -241.28299 
L 92.69702 -242.131978 
L 93.22761 -242.980966 
L 93.807413 -243.829954 
L 94.420976 -244.678942 
L 95.054459 -245.52793 
L 95.696806 -246.376918 
L 96.340534 -247.225906 
L 96.982049 -248.074894 
L 97.621435 -248.923882 
L 98.261785 -249.77287 
L 98.908169 -250.621858 
L 99.566411 -251.470846 
L 100.241867 -252.319834 
L 100.938359 -253.168822 
L 101.657395 -254.01781 
L 102.397748 -254.866797 
L 103.155405 -255.715785 
L 103.923827 -256.564773 
L 104.694461 -257.413761 
L 105.457394 -258.262749 
L 106.202057 -259.111737 
L 106.917917 -259.960725 
L 107.595086 -260.809713 
L 108.224834 -261.658701 
L 108.799988 -262.507689 
L 109.315208 -263.356677 
L 109.767162 -264.205665 
L 110.154592 -265.054653 
L 110.478271 -265.903641 
L 110.740873 -266.752629 
L 110.94675 -267.601617 
L 111.101629 -268.450605 
L 111.212258 -269.299593 
L 111.286025 -270.148581 
L 111.33056 -270.997569 
L 111.353373 -271.846557 
L 111.361536 -272.695545 
L 111.361421 -273.544533 
L 111.358517 -274.393521 
L 111.357318 -275.242508 
L 111.361269 -276.091496 
L 111.372777 -276.940484 
L 111.39326 -277.789472 
L 111.423236 -278.63846 
L 111.462432 -279.487448 
L 112.937568 -279.487448 
L 112.937568 -279.487448 
L 112.976764 -278.63846 
L 113.00674 -277.789472 
L 113.027223 -276.940484 
L 113.038731 -276.091496 
L 113.042682 -275.242508 
L 113.041483 -274.393521 
L 113.038579 -273.544533 
L 113.038464 -272.695545 
L 113.046627 -271.846557 
L 113.06944 -270.997569 
L 113.113975 -270.148581 
L 113.187742 -269.299593 
L 113.298371 -268.450605 
L 113.45325 -267.601617 
L 113.659127 -266.752629 
L 113.921729 -265.903641 
L 114.245408 -265.054653 
L 114.632838 -264.205665 
L 115.084792 -263.356677 
L 115.600012 -262.507689 
L 116.175166 -261.658701 
L 116.804914 -260.809713 
L 117.482083 -259.960725 
L 118.197943 -259.111737 
L 118.942606 -258.262749 
L 119.705539 -257.413761 
L 120.476173 -256.564773 
L 121.244595 -255.715785 
L 122.002252 -254.866797 
L 122.742605 -254.01781 
L 123.461641 -253.168822 
L 124.158133 -252.319834 
L 124.833589 -251.470846 
L 125.491831 -250.621858 
L 126.138215 -249.77287 
L 126.778565 -248.923882 
L 127.417951 -248.074894 
L 128.059466 -247.225906 
L 128.703194 -246.376918 
L 129.345541 -245.52793 
L 129.979024 -244.678942 
L 130.592587 -243.829954 
L 131.17239 -242.980966 
L 131.70298 -242.131978 
L 132.168663 -241.28299 
L 132.554905 -240.434002 
L 132.849591 -239.585014 
L 133.043983 -238.736026 
L 133.133333 -237.887038 
L 133.117098 -237.03805 
L 132.99882 -236.189062 
L 132.785731 -235.340074 
L 132.48816 -234.491086 
L 132.118835 -233.642099 
L 131.692113 -232.793111 
L 131.223193 -231.944123 
L 130.727313 -231.095135 
L 130.218941 -230.246147 
L 129.710993 -229.397159 
L 129.2141 -228.548171 
L 128.735981 -227.699183 
L 128.280991 -226.850195 
L 127.849903 -226.001207 
L 127.439971 -225.152219 
L 127.045299 -224.303231 
L 126.657486 -223.454243 
L 126.266502 -222.605255 
L 125.861706 -221.756267 
L 125.432901 -220.907279 
L 124.971324 -220.058291 
L 124.470485 -219.209303 
L 123.926768 -218.360315 
L 123.339779 -217.511327 
L 122.712399 -216.662339 
L 122.050585 -215.813351 
L 121.36295 -214.964363 
L 120.66016 -214.115375 
L 119.954244 -213.266388 
L 119.257836 -212.4174 
L 118.583448 -211.568412 
L 117.942785 -210.719424 
L 117.346152 -209.870436 
L 116.801978 -209.021448 
L 116.316447 -208.17246 
L 115.893261 -207.323472 
L 115.533528 -206.474484 
L 115.235768 -205.625496 
L 114.99605 -204.776508 
L 114.808262 -203.92752 
L 114.664494 -203.078532 
L 114.555545 -202.229544 
L 114.471516 -201.380556 
L 114.402456 -200.531568 
L 114.339009 -199.68258 
L 114.273011 -198.833592 
L 114.19798 -197.984604 
L 114.109446 -197.135616 
L 114.005099 -196.286628 
L 113.884734 -195.43764 
z
" style="stroke: #000000; stroke-opacity: 0.7"/>
    </defs>
    <g clip-path="url(#pd96b2b3154)">
     <use xlink:href="#m232c4aafe3" x="0" y="319.934957" style="fill: #aec7e8; fill-opacity: 0.7; stroke: #000000; stroke-opacity: 0.7"/>
    </g>
   </g>
   <g id="PolyCollection_2">
    <defs>
     <path id="mb9e87728b7" d="M 176.372673 -227.244423 
L 173.627327 -227.244423 
L 173.525968 -227.634771 
L 173.42818 -228.02512 
L 173.33249 -228.415468 
L 173.236358 -228.805816 
L 173.136216 -229.196164 
L 173.027592 -229.586513 
L 172.905319 -229.976861 
L 172.763806 -230.367209 
L 172.597354 -230.757557 
L 172.400495 -231.147905 
L 172.168327 -231.538254 
L 171.896801 -231.928602 
L 171.582963 -232.31895 
L 171.225103 -232.709298 
L 170.822824 -233.099646 
L 170.37701 -233.489995 
L 169.88971 -233.880343 
L 169.363952 -234.270691 
L 168.803502 -234.661039 
L 168.2126 -235.051387 
L 167.595695 -235.441736 
L 166.957204 -235.832084 
L 166.301322 -236.222432 
L 165.631877 -236.61278 
L 164.952258 -237.003129 
L 164.265399 -237.393477 
L 163.573823 -237.783825 
L 162.879729 -238.174173 
L 162.185119 -238.564521 
L 161.491955 -238.95487 
L 160.802334 -239.345218 
L 160.118675 -239.735566 
L 159.443908 -240.125914 
L 158.781651 -240.516262 
L 158.136357 -240.906611 
L 157.513405 -241.296959 
L 156.919114 -241.687307 
L 156.36066 -242.077655 
L 155.845863 -242.468004 
L 155.382866 -242.858352 
L 154.979688 -243.2487 
L 154.643707 -243.639048 
L 154.381098 -244.029396 
L 154.196301 -244.419745 
L 154.091571 -244.810093 
L 154.066667 -245.200441 
L 154.118734 -245.590789 
L 154.242399 -245.981137 
L 154.430069 -246.371486 
L 154.672421 -246.761834 
L 154.959031 -247.152182 
L 155.279068 -247.54253 
L 155.622006 -247.932878 
L 155.978266 -248.323227 
L 156.33975 -248.713575 
L 156.700221 -249.103923 
L 157.055512 -249.494271 
L 157.403569 -249.88462 
L 157.744341 -250.274968 
L 158.079552 -250.665316 
L 158.412383 -251.055664 
L 158.747095 -251.446012 
L 159.088634 -251.836361 
L 159.442236 -252.226709 
L 159.813043 -252.617057 
L 160.20576 -253.007405 
L 160.624346 -253.397753 
L 161.071761 -253.788102 
L 161.549767 -254.17845 
L 162.0588 -254.568798 
L 162.597917 -254.959146 
L 163.164819 -255.349494 
L 163.755941 -255.739843 
L 164.366617 -256.130191 
L 164.991288 -256.520539 
L 165.623736 -256.910887 
L 166.257334 -257.301236 
L 166.885276 -257.691584 
L 167.500788 -258.081932 
L 168.097305 -258.47228 
L 168.668626 -258.862628 
L 169.209046 -259.252977 
L 169.713495 -259.643325 
L 170.177677 -260.033673 
L 170.598226 -260.424021 
L 170.972881 -260.814369 
L 171.30065 -261.204718 
L 171.58196 -261.595066 
L 171.818747 -261.985414 
L 172.014467 -262.375762 
L 172.174004 -262.76611 
L 172.303453 -263.156459 
L 172.409797 -263.546807 
L 172.500482 -263.937155 
L 172.582935 -264.327503 
L 172.66407 -264.717852 
L 172.749828 -265.1082 
L 172.844808 -265.498548 
L 172.952014 -265.888896 
L 177.047986 -265.888896 
L 177.047986 -265.888896 
L 177.155192 -265.498548 
L 177.250172 -265.1082 
L 177.33593 -264.717852 
L 177.417065 -264.327503 
L 177.499518 -263.937155 
L 177.590203 -263.546807 
L 177.696547 -263.156459 
L 177.825996 -262.76611 
L 177.985533 -262.375762 
L 178.181253 -261.985414 
L 178.41804 -261.595066 
L 178.69935 -261.204718 
L 179.027119 -260.814369 
L 179.401774 -260.424021 
L 179.822323 -260.033673 
L 180.286505 -259.643325 
L 180.790954 -259.252977 
L 181.331374 -258.862628 
L 181.902695 -258.47228 
L 182.499212 -258.081932 
L 183.114724 -257.691584 
L 183.742666 -257.301236 
L 184.376264 -256.910887 
L 185.008712 -256.520539 
L 185.633383 -256.130191 
L 186.244059 -255.739843 
L 186.835181 -255.349494 
L 187.402083 -254.959146 
L 187.9412 -254.568798 
L 188.450233 -254.17845 
L 188.928239 -253.788102 
L 189.375654 -253.397753 
L 189.79424 -253.007405 
L 190.186957 -252.617057 
L 190.557764 -252.226709 
L 190.911366 -251.836361 
L 191.252905 -251.446012 
L 191.587617 -251.055664 
L 191.920448 -250.665316 
L 192.255659 -250.274968 
L 192.596431 -249.88462 
L 192.944488 -249.494271 
L 193.299779 -249.103923 
L 193.66025 -248.713575 
L 194.021734 -248.323227 
L 194.377994 -247.932878 
L 194.720932 -247.54253 
L 195.040969 -247.152182 
L 195.327579 -246.761834 
L 195.569931 -246.371486 
L 195.757601 -245.981137 
L 195.881266 -245.590789 
L 195.933333 -245.200441 
L 195.908429 -244.810093 
L 195.803699 -244.419745 
L 195.618902 -244.029396 
L 195.356293 -243.639048 
L 195.020312 -243.2487 
L 194.617134 -242.858352 
L 194.154137 -242.468004 
L 193.63934 -242.077655 
L 193.080886 -241.687307 
L 192.486595 -241.296959 
L 191.863643 -240.906611 
L 191.218349 -240.516262 
L 190.556092 -240.125914 
L 189.881325 -239.735566 
L 189.197666 -239.345218 
L 188.508045 -238.95487 
L 187.814881 -238.564521 
L 187.120271 -238.174173 
L 186.426177 -237.783825 
L 185.734601 -237.393477 
L 185.047742 -237.003129 
L 184.368123 -236.61278 
L 183.698678 -236.222432 
L 183.042796 -235.832084 
L 182.404305 -235.441736 
L 181.7874 -235.051387 
L 181.196498 -234.661039 
L 180.636048 -234.270691 
L 180.11029 -233.880343 
L 179.62299 -233.489995 
L 179.177176 -233.099646 
L 178.774897 -232.709298 
L 178.417037 -232.31895 
L 178.103199 -231.928602 
L 177.831673 -231.538254 
L 177.599505 -231.147905 
L 177.402646 -230.757557 
L 177.236194 -230.367209 
L 177.094681 -229.976861 
L 176.972408 -229.586513 
L 176.863784 -229.196164 
L 176.763642 -228.805816 
L 176.66751 -228.415468 
L 176.57182 -228.02512 
L 176.474032 -227.634771 
L 176.372673 -227.244423 
z
" style="stroke: #000000; stroke-opacity: 0.7"/>
    </defs>
    <g clip-path="url(#pd96b2b3154)">
     <use xlink:href="#mb9e87728b7" x="0" y="319.934957" style="fill: #1f77b4; fill-opacity: 0.7; stroke: #000000; stroke-opacity: 0.7"/>
    </g>
   </g>
   <g id="PolyCollection_3">
    <defs>
     <path id="m0898f746af" d="M 238.673666 -194.669361 
L 236.926334 -194.669361 
L 236.852219 -195.409703 
L 236.778389 -196.150045 
L 236.704689 -196.890388 
L 236.630668 -197.63073 
L 236.55556 -198.371072 
L 236.478264 -199.111415 
L 236.397327 -199.851757 
L 236.310917 -200.592099 
L 236.216809 -201.332442 
L 236.112366 -202.072784 
L 235.994544 -202.813126 
L 235.859909 -203.553469 
L 235.704685 -204.293811 
L 235.524834 -205.034153 
L 235.316174 -205.774496 
L 235.074541 -206.514838 
L 234.795984 -207.25518 
L 234.477006 -207.995523 
L 234.114829 -208.735865 
L 233.707682 -209.476207 
L 233.255092 -210.21655 
L 232.758152 -210.956892 
L 232.219752 -211.697234 
L 231.644723 -212.437577 
L 231.03988 -213.177919 
L 230.413925 -213.918261 
L 229.777197 -214.658604 
L 229.141252 -215.398946 
L 228.518295 -216.139288 
L 227.920479 -216.879631 
L 227.35913 -217.619973 
L 226.843962 -218.360315 
L 226.382341 -219.100658 
L 225.978686 -219.841 
L 225.634069 -220.581342 
L 225.346053 -221.321685 
L 225.108793 -222.062027 
L 224.913406 -222.802369 
L 224.748563 -223.542712 
L 224.601253 -224.283054 
L 224.457662 -225.023396 
L 224.304081 -225.763739 
L 224.127778 -226.504081 
L 223.917775 -227.244423 
L 223.665481 -227.984766 
L 223.365156 -228.725108 
L 223.014186 -229.46545 
L 222.613169 -230.205793 
L 222.165824 -230.946135 
L 221.678728 -231.686477 
L 221.160926 -232.42682 
L 220.623416 -233.167162 
L 220.078578 -233.907504 
L 219.539558 -234.647847 
L 219.019671 -235.388189 
L 218.531865 -236.128531 
L 218.088262 -236.868874 
L 217.699821 -237.609216 
L 217.376119 -238.349558 
L 217.125234 -239.089901 
L 216.953729 -239.830243 
L 216.866667 -240.570585 
L 216.867659 -241.310928 
L 216.958883 -242.05127 
L 217.141066 -242.791612 
L 217.41343 -243.531955 
L 217.773605 -244.272297 
L 218.217538 -245.012639 
L 218.739446 -245.752982 
L 219.331835 -246.493324 
L 219.985624 -247.233666 
L 220.690393 -247.974009 
L 221.434752 -248.714351 
L 222.206812 -249.454693 
L 222.994714 -250.195036 
L 223.787186 -250.935378 
L 224.574049 -251.67572 
L 225.346628 -252.416063 
L 226.098042 -253.156405 
L 226.82331 -253.896747 
L 227.519316 -254.63709 
L 228.1846 -255.377432 
L 228.819053 -256.117774 
L 229.423528 -256.858117 
L 229.999445 -257.598459 
L 230.548427 -258.338801 
L 231.072009 -259.079144 
L 231.57145 -259.819486 
L 232.047645 -260.559828 
L 232.501142 -261.300171 
L 232.932226 -262.040513 
L 233.341047 -262.780855 
L 233.727751 -263.521198 
L 234.092593 -264.26154 
L 234.436009 -265.001882 
L 234.758627 -265.742225 
L 235.061238 -266.482567 
L 235.344723 -267.222909 
L 235.609963 -267.963252 
L 239.990037 -267.963252 
L 239.990037 -267.963252 
L 240.255277 -267.222909 
L 240.538762 -266.482567 
L 240.841373 -265.742225 
L 241.163991 -265.001882 
L 241.507407 -264.26154 
L 241.872249 -263.521198 
L 242.258953 -262.780855 
L 242.667774 -262.040513 
L 243.098858 -261.300171 
L 243.552355 -260.559828 
L 244.02855 -259.819486 
L 244.527991 -259.079144 
L 245.051573 -258.338801 
L 245.600555 -257.598459 
L 246.176472 -256.858117 
L 246.780947 -256.117774 
L 247.4154 -255.377432 
L 248.080684 -254.63709 
L 248.77669 -253.896747 
L 249.501958 -253.156405 
L 250.253372 -252.416063 
L 251.025951 -251.67572 
L 251.812814 -250.935378 
L 252.605286 -250.195036 
L 253.393188 -249.454693 
L 254.165248 -248.714351 
L 254.909607 -247.974009 
L 255.614376 -247.233666 
L 256.268165 -246.493324 
L 256.860554 -245.752982 
L 257.382462 -245.012639 
L 257.826395 -244.272297 
L 258.18657 -243.531955 
L 258.458934 -242.791612 
L 258.641117 -242.05127 
L 258.732341 -241.310928 
L 258.733333 -240.570585 
L 258.646271 -239.830243 
L 258.474766 -239.089901 
L 258.223881 -238.349558 
L 257.900179 -237.609216 
L 257.511738 -236.868874 
L 257.068135 -236.128531 
L 256.580329 -235.388189 
L 256.060442 -234.647847 
L 255.521422 -233.907504 
L 254.976584 -233.167162 
L 254.439074 -232.42682 
L 253.921272 -231.686477 
L 253.434176 -230.946135 
L 252.986831 -230.205793 
L 252.585814 -229.46545 
L 252.234844 -228.725108 
L 251.934519 -227.984766 
L 251.682225 -227.244423 
L 251.472222 -226.504081 
L 251.295919 -225.763739 
L 251.142338 -225.023396 
L 250.998747 -224.283054 
L 250.851437 -223.542712 
L 250.686594 -222.802369 
L 250.491207 -222.062027 
L 250.253947 -221.321685 
L 249.965931 -220.581342 
L 249.621314 -219.841 
L 249.217659 -219.100658 
L 248.756038 -218.360315 
L 248.24087 -217.619973 
L 247.679521 -216.879631 
L 247.081705 -216.139288 
L 246.458748 -215.398946 
L 245.822803 -214.658604 
L 245.186075 -213.918261 
L 244.56012 -213.177919 
L 243.955277 -212.437577 
L 243.380248 -211.697234 
L 242.841848 -210.956892 
L 242.344908 -210.21655 
L 241.892318 -209.476207 
L 241.485171 -208.735865 
L 241.122994 -207.995523 
L 240.804016 -207.25518 
L 240.525459 -206.514838 
L 240.283826 -205.774496 
L 240.075166 -205.034153 
L 239.895315 -204.293811 
L 239.740091 -203.553469 
L 239.605456 -202.813126 
L 239.487634 -202.072784 
L 239.383191 -201.332442 
L 239.289083 -200.592099 
L 239.202673 -199.851757 
L 239.121736 -199.111415 
L 239.04444 -198.371072 
L 238.969332 -197.63073 
L 238.895311 -196.890388 
L 238.821611 -196.150045 
L 238.747781 -195.409703 
L 238.673666 -194.669361 
z
" style="stroke: #000000; stroke-opacity: 0.7"/>
    </defs>
    <g clip-path="url(#pd96b2b3154)">
     <use xlink:href="#m0898f746af" x="0" y="319.934957" style="fill: #7f7f7f; fill-opacity: 0.7; stroke: #000000; stroke-opacity: 0.7"/>
    </g>
   </g>
   <g id="PolyCollection_4">
    <defs>
     <path id="mf342fe6e42" d="M 303.644356 -71.437284 
L 297.555644 -71.437284 
L 297.314694 -71.650695 
L 297.085855 -71.864106 
L 296.871137 -72.077517 
L 296.671278 -72.290928 
L 296.485554 -72.504339 
L 296.311638 -72.71775 
L 296.145557 -72.931161 
L 295.981736 -73.144572 
L 295.813142 -73.357983 
L 295.631536 -73.571394 
L 295.427832 -73.784805 
L 295.192548 -73.998217 
L 294.916334 -74.211628 
L 294.590558 -74.425039 
L 294.207898 -74.63845 
L 293.762921 -74.851861 
L 293.25258 -75.065272 
L 292.676598 -75.278683 
L 292.037689 -75.492094 
L 291.34159 -75.705505 
L 290.596876 -75.918916 
L 289.814569 -76.132327 
L 289.007561 -76.345738 
L 288.189876 -76.559149 
L 287.375851 -76.77256 
L 286.579281 -76.985971 
L 285.812624 -77.199382 
L 285.086317 -77.412793 
L 284.408283 -77.626204 
L 283.78366 -77.839615 
L 283.214789 -78.053026 
L 282.701431 -78.266438 
L 282.241218 -78.479849 
L 281.830253 -78.69326 
L 281.463807 -78.906671 
L 281.137028 -79.120082 
L 280.845587 -79.333493 
L 280.586184 -79.546904 
L 280.356875 -79.760315 
L 280.157193 -79.973726 
L 279.988062 -80.187137 
L 279.851535 -80.400548 
L 279.750414 -80.613959 
L 279.687801 -80.82737 
L 279.666667 -81.040781 
L 279.689477 -81.254192 
L 279.757941 -81.467603 
L 279.872888 -81.681014 
L 280.034293 -81.894425 
L 280.241411 -82.107836 
L 280.492995 -82.321247 
L 280.787542 -82.534659 
L 281.123521 -82.74807 
L 281.499537 -82.961481 
L 281.91441 -83.174892 
L 282.367146 -83.388303 
L 282.856807 -83.601714 
L 283.38231 -83.815125 
L 283.942188 -84.028536 
L 284.534335 -84.241947 
L 285.155803 -84.455358 
L 285.802661 -84.668769 
L 286.469949 -84.88218 
L 287.151738 -85.095591 
L 287.841289 -85.309002 
L 288.531296 -85.522413 
L 289.214189 -85.735824 
L 289.882471 -85.949235 
L 290.529056 -86.162646 
L 291.147572 -86.376057 
L 291.732628 -86.589468 
L 292.280002 -86.80288 
L 292.786766 -87.016291 
L 293.251334 -87.229702 
L 293.673439 -87.443113 
L 294.054051 -87.656524 
L 294.395243 -87.869935 
L 294.700021 -88.083346 
L 294.972129 -88.296757 
L 295.215834 -88.510168 
L 295.435715 -88.723579 
L 295.636456 -88.93699 
L 295.822658 -89.150401 
L 295.998673 -89.363812 
L 296.168467 -89.577223 
L 296.335516 -89.790634 
L 296.502735 -90.004045 
L 296.672436 -90.217456 
L 296.846315 -90.430867 
L 297.02546 -90.644278 
L 297.21038 -90.857689 
L 297.401047 -91.071101 
L 297.596945 -91.284512 
L 297.797129 -91.497923 
L 298.000298 -91.711334 
L 298.204861 -91.924745 
L 298.409018 -92.138156 
L 298.610842 -92.351567 
L 298.808359 -92.564978 
L 302.391641 -92.564978 
L 302.391641 -92.564978 
L 302.589158 -92.351567 
L 302.790982 -92.138156 
L 302.995139 -91.924745 
L 303.199702 -91.711334 
L 303.402871 -91.497923 
L 303.603055 -91.284512 
L 303.798953 -91.071101 
L 303.98962 -90.857689 
L 304.17454 -90.644278 
L 304.353685 -90.430867 
L 304.527564 -90.217456 
L 304.697265 -90.004045 
L 304.864484 -89.790634 
L 305.031533 -89.577223 
L 305.201327 -89.363812 
L 305.377342 -89.150401 
L 305.563544 -88.93699 
L 305.764285 -88.723579 
L 305.984166 -88.510168 
L 306.227871 -88.296757 
L 306.499979 -88.083346 
L 306.804757 -87.869935 
L 307.145949 -87.656524 
L 307.526561 -87.443113 
L 307.948666 -87.229702 
L 308.413234 -87.016291 
L 308.919998 -86.80288 
L 309.467372 -86.589468 
L 310.052428 -86.376057 
L 310.670944 -86.162646 
L 311.317529 -85.949235 
L 311.985811 -85.735824 
L 312.668704 -85.522413 
L 313.358711 -85.309002 
L 314.048262 -85.095591 
L 314.730051 -84.88218 
L 315.397339 -84.668769 
L 316.044197 -84.455358 
L 316.665665 -84.241947 
L 317.257812 -84.028536 
L 317.81769 -83.815125 
L 318.343193 -83.601714 
L 318.832854 -83.388303 
L 319.28559 -83.174892 
L 319.700463 -82.961481 
L 320.076479 -82.74807 
L 320.412458 -82.534659 
L 320.707005 -82.321247 
L 320.958589 -82.107836 
L 321.165707 -81.894425 
L 321.327112 -81.681014 
L 321.442059 -81.467603 
L 321.510523 -81.254192 
L 321.533333 -81.040781 
L 321.512199 -80.82737 
L 321.449586 -80.613959 
L 321.348465 -80.400548 
L 321.211938 -80.187137 
L 321.042807 -79.973726 
L 320.843125 -79.760315 
L 320.613816 -79.546904 
L 320.354413 -79.333493 
L 320.062972 -79.120082 
L 319.736193 -78.906671 
L 319.369747 -78.69326 
L 318.958782 -78.479849 
L 318.498569 -78.266438 
L 317.985211 -78.053026 
L 317.41634 -77.839615 
L 316.791717 -77.626204 
L 316.113683 -77.412793 
L 315.387376 -77.199382 
L 314.620719 -76.985971 
L 313.824149 -76.77256 
L 313.010124 -76.559149 
L 312.192439 -76.345738 
L 311.385431 -76.132327 
L 310.603124 -75.918916 
L 309.85841 -75.705505 
L 309.162311 -75.492094 
L 308.523402 -75.278683 
L 307.94742 -75.065272 
L 307.437079 -74.851861 
L 306.992102 -74.63845 
L 306.609442 -74.425039 
L 306.283666 -74.211628 
L 306.007452 -73.998217 
L 305.772168 -73.784805 
L 305.568464 -73.571394 
L 305.386858 -73.357983 
L 305.218264 -73.144572 
L 305.054443 -72.931161 
L 304.888362 -72.71775 
L 304.714446 -72.504339 
L 304.528722 -72.290928 
L 304.328863 -72.077517 
L 304.114145 -71.864106 
L 303.885306 -71.650695 
L 303.644356 -71.437284 
z
" style="stroke: #000000; stroke-opacity: 0.7"/>
    </defs>
    <g clip-path="url(#pd96b2b3154)">
     <use xlink:href="#mf342fe6e42" x="0" y="319.934957" style="fill: #bcbd22; fill-opacity: 0.7; stroke: #000000; stroke-opacity: 0.7"/>
    </g>
   </g>
   <g id="PolyCollection_5">
    <defs>
     <path id="mb226ed73eb" d="M 364.214512 -191.673069 
L 362.585488 -191.673069 
L 362.504932 -192.071954 
L 362.417748 -192.470839 
L 362.321331 -192.869723 
L 362.212517 -193.268608 
L 362.087726 -193.667493 
L 361.943155 -194.066377 
L 361.77503 -194.465262 
L 361.579889 -194.864147 
L 361.354875 -195.263031 
L 361.098012 -195.661916 
L 360.808439 -196.060801 
L 360.486563 -196.459685 
L 360.134113 -196.85857 
L 359.754086 -197.257455 
L 359.350568 -197.656339 
L 358.928462 -198.055224 
L 358.493133 -198.454109 
L 358.050018 -198.852993 
L 357.604241 -199.251878 
L 357.160265 -199.650763 
L 356.721616 -200.049647 
L 356.290696 -200.448532 
L 355.868679 -200.847416 
L 355.455477 -201.246301 
L 355.049767 -201.645186 
L 354.649039 -202.04407 
L 354.24968 -202.442955 
L 353.847073 -202.84184 
L 353.435738 -203.240724 
L 353.009554 -203.639609 
L 352.562057 -204.038494 
L 352.086875 -204.437378 
L 351.578264 -204.836263 
L 351.031738 -205.235148 
L 350.444728 -205.634032 
L 349.817201 -206.032917 
L 349.152136 -206.431802 
L 348.455792 -206.830686 
L 347.737694 -207.229571 
L 347.010312 -207.628456 
L 346.288453 -208.02734 
L 345.588409 -208.426225 
L 344.926966 -208.82511 
L 344.320362 -209.223994 
L 343.78331 -209.622879 
L 343.328184 -210.021764 
L 342.964425 -210.420648 
L 342.698212 -210.819533 
L 342.532396 -211.218417 
L 342.466667 -211.617302 
L 342.497903 -212.016187 
L 342.620655 -212.415071 
L 342.827686 -212.813956 
L 343.110516 -213.212841 
L 343.45993 -213.611725 
L 343.866406 -214.01061 
L 344.32045 -214.409495 
L 344.81284 -214.808379 
L 345.334781 -215.207264 
L 345.878005 -215.606149 
L 346.434839 -216.005033 
L 346.998278 -216.403918 
L 347.562081 -216.802803 
L 348.120914 -217.201687 
L 348.670529 -217.600572 
L 349.207962 -217.999457 
L 349.73171 -218.398341 
L 350.24184 -218.797226 
L 350.739994 -219.196111 
L 351.229228 -219.594995 
L 351.713695 -219.99388 
L 352.198174 -220.392765 
L 352.687472 -220.791649 
L 353.185791 -221.190534 
L 353.696102 -221.589418 
L 354.219652 -221.988303 
L 354.755638 -222.387188 
L 355.301123 -222.786072 
L 355.851192 -223.184957 
L 356.399355 -223.583842 
L 356.93812 -223.982726 
L 357.459689 -224.381611 
L 357.956677 -224.780496 
L 358.422764 -225.17938 
L 358.853225 -225.578265 
L 359.24526 -225.97715 
L 359.598113 -226.376034 
L 359.912984 -226.774919 
L 360.192749 -227.173804 
L 360.441553 -227.572688 
L 360.664318 -227.971573 
L 360.866242 -228.370458 
L 361.052339 -228.769342 
L 361.227056 -229.168227 
L 361.394004 -229.567112 
L 361.555813 -229.965996 
L 361.714096 -230.364881 
L 361.869515 -230.763765 
L 362.021921 -231.16265 
L 364.778079 -231.16265 
L 364.778079 -231.16265 
L 364.930485 -230.763765 
L 365.085904 -230.364881 
L 365.244187 -229.965996 
L 365.405996 -229.567112 
L 365.572944 -229.168227 
L 365.747661 -228.769342 
L 365.933758 -228.370458 
L 366.135682 -227.971573 
L 366.358447 -227.572688 
L 366.607251 -227.173804 
L 366.887016 -226.774919 
L 367.201887 -226.376034 
L 367.55474 -225.97715 
L 367.946775 -225.578265 
L 368.377236 -225.17938 
L 368.843323 -224.780496 
L 369.340311 -224.381611 
L 369.86188 -223.982726 
L 370.400645 -223.583842 
L 370.948808 -223.184957 
L 371.498877 -222.786072 
L 372.044362 -222.387188 
L 372.580348 -221.988303 
L 373.103898 -221.589418 
L 373.614209 -221.190534 
L 374.112528 -220.791649 
L 374.601826 -220.392765 
L 375.086305 -219.99388 
L 375.570772 -219.594995 
L 376.060006 -219.196111 
L 376.55816 -218.797226 
L 377.06829 -218.398341 
L 377.592038 -217.999457 
L 378.129471 -217.600572 
L 378.679086 -217.201687 
L 379.237919 -216.802803 
L 379.801722 -216.403918 
L 380.365161 -216.005033 
L 380.921995 -215.606149 
L 381.465219 -215.207264 
L 381.98716 -214.808379 
L 382.47955 -214.409495 
L 382.933594 -214.01061 
L 383.34007 -213.611725 
L 383.689484 -213.212841 
L 383.972314 -212.813956 
L 384.179345 -212.415071 
L 384.302097 -212.016187 
L 384.333333 -211.617302 
L 384.267604 -211.218417 
L 384.101788 -210.819533 
L 383.835575 -210.420648 
L 383.471816 -210.021764 
L 383.01669 -209.622879 
L 382.479638 -209.223994 
L 381.873034 -208.82511 
L 381.211591 -208.426225 
L 380.511547 -208.02734 
L 379.789688 -207.628456 
L 379.062306 -207.229571 
L 378.344208 -206.830686 
L 377.647864 -206.431802 
L 376.982799 -206.032917 
L 376.355272 -205.634032 
L 375.768262 -205.235148 
L 375.221736 -204.836263 
L 374.713125 -204.437378 
L 374.237943 -204.038494 
L 373.790446 -203.639609 
L 373.364262 -203.240724 
L 372.952927 -202.84184 
L 372.55032 -202.442955 
L 372.150961 -202.04407 
L 371.750233 -201.645186 
L 371.344523 -201.246301 
L 370.931321 -200.847416 
L 370.509304 -200.448532 
L 370.078384 -200.049647 
L 369.639735 -199.650763 
L 369.195759 -199.251878 
L 368.749982 -198.852993 
L 368.306867 -198.454109 
L 367.871538 -198.055224 
L 367.449432 -197.656339 
L 367.045914 -197.257455 
L 366.665887 -196.85857 
L 366.313437 -196.459685 
L 365.991561 -196.060801 
L 365.701988 -195.661916 
L 365.445125 -195.263031 
L 365.220111 -194.864147 
L 365.02497 -194.465262 
L 364.856845 -194.066377 
L 364.712274 -193.667493 
L 364.587483 -193.268608 
L 364.478669 -192.869723 
L 364.382252 -192.470839 
L 364.295068 -192.071954 
L 364.214512 -191.673069 
z
" style="stroke: #000000; stroke-opacity: 0.7"/>
    </defs>
    <g clip-path="url(#pd96b2b3154)">
     <use xlink:href="#mb226ed73eb" x="0" y="319.934957" style="fill: #98df8a; fill-opacity: 0.7; stroke: #000000; stroke-opacity: 0.7"/>
    </g>
   </g>
   <g id="PolyCollection_6">
    <defs>
     <path id="m8631eabea6" d="M 427.156914 -74.971371 
L 425.243086 -74.971371 
L 425.145683 -75.396641 
L 425.044736 -75.821911 
L 424.940817 -76.247181 
L 424.834692 -76.672451 
L 424.727311 -77.097721 
L 424.619775 -77.522991 
L 424.513248 -77.948261 
L 424.40883 -78.373531 
L 424.307385 -78.798801 
L 424.20935 -79.224071 
L 424.114541 -79.649341 
L 424.021978 -80.074611 
L 423.929772 -80.499881 
L 423.835077 -80.925151 
L 423.734138 -81.350421 
L 423.622451 -81.775691 
L 423.495005 -82.200961 
L 423.346616 -82.626231 
L 423.17231 -83.051501 
L 422.967714 -83.476771 
L 422.729421 -83.902041 
L 422.45527 -84.327311 
L 422.144519 -84.752581 
L 421.797864 -85.177851 
L 421.417303 -85.603121 
L 421.00585 -86.028391 
L 420.567113 -86.453661 
L 420.104798 -86.878931 
L 419.622168 -87.304201 
L 419.121554 -87.729472 
L 418.603969 -88.154742 
L 418.068876 -88.580012 
L 417.514188 -89.005282 
L 416.936486 -89.430552 
L 416.331487 -89.855822 
L 415.6947 -90.281092 
L 415.022238 -90.706362 
L 414.311677 -91.131632 
L 413.562893 -91.556902 
L 412.778742 -91.982172 
L 411.965528 -92.407442 
L 411.133156 -92.832712 
L 410.294947 -93.257982 
L 409.46711 -93.683252 
L 408.667895 -94.108522 
L 407.91651 -94.533792 
L 407.231897 -94.959062 
L 406.63147 -95.384332 
L 406.129955 -95.809602 
L 405.738406 -96.234872 
L 405.46351 -96.660142 
L 405.307208 -97.085412 
L 405.266667 -97.510682 
L 405.334571 -97.935952 
L 405.499706 -98.361222 
L 405.747755 -98.786492 
L 406.062244 -99.211762 
L 406.42555 -99.637032 
L 406.819905 -100.062302 
L 407.228336 -100.487572 
L 407.635489 -100.912842 
L 408.028302 -101.338112 
L 408.396523 -101.763382 
L 408.733033 -102.188652 
L 409.034005 -102.613922 
L 409.29888 -103.039192 
L 409.53018 -103.464462 
L 409.73317 -103.889732 
L 409.915386 -104.315002 
L 410.086052 -104.740272 
L 410.255419 -105.165542 
L 410.43406 -105.590812 
L 410.632157 -106.016082 
L 410.858829 -106.441352 
L 411.121544 -106.866622 
L 411.425648 -107.291892 
L 411.774049 -107.717162 
L 412.167088 -108.142432 
L 412.602583 -108.567702 
L 413.076064 -108.992972 
L 413.581174 -109.418242 
L 414.110191 -109.843513 
L 414.65464 -110.268783 
L 415.205939 -110.694053 
L 415.756025 -111.119323 
L 416.2979 -111.544593 
L 416.826064 -111.969863 
L 417.336785 -112.395133 
L 417.828203 -112.820403 
L 418.300247 -113.245673 
L 418.754391 -113.670943 
L 419.193279 -114.096213 
L 419.620249 -114.521483 
L 420.038829 -114.946753 
L 420.452239 -115.372023 
L 420.862962 -115.797293 
L 421.272422 -116.222563 
L 421.680795 -116.647833 
L 422.086971 -117.073103 
L 430.313029 -117.073103 
L 430.313029 -117.073103 
L 430.719205 -116.647833 
L 431.127578 -116.222563 
L 431.537038 -115.797293 
L 431.947761 -115.372023 
L 432.361171 -114.946753 
L 432.779751 -114.521483 
L 433.206721 -114.096213 
L 433.645609 -113.670943 
L 434.099753 -113.245673 
L 434.571797 -112.820403 
L 435.063215 -112.395133 
L 435.573936 -111.969863 
L 436.1021 -111.544593 
L 436.643975 -111.119323 
L 437.194061 -110.694053 
L 437.74536 -110.268783 
L 438.289809 -109.843513 
L 438.818826 -109.418242 
L 439.323936 -108.992972 
L 439.797417 -108.567702 
L 440.232912 -108.142432 
L 440.625951 -107.717162 
L 440.974352 -107.291892 
L 441.278456 -106.866622 
L 441.541171 -106.441352 
L 441.767843 -106.016082 
L 441.96594 -105.590812 
L 442.144581 -105.165542 
L 442.313948 -104.740272 
L 442.484614 -104.315002 
L 442.66683 -103.889732 
L 442.86982 -103.464462 
L 443.10112 -103.039192 
L 443.365995 -102.613922 
L 443.666967 -102.188652 
L 444.003477 -101.763382 
L 444.371698 -101.338112 
L 444.764511 -100.912842 
L 445.171664 -100.487572 
L 445.580095 -100.062302 
L 445.97445 -99.637032 
L 446.337756 -99.211762 
L 446.652245 -98.786492 
L 446.900294 -98.361222 
L 447.065429 -97.935952 
L 447.133333 -97.510682 
L 447.092792 -97.085412 
L 446.93649 -96.660142 
L 446.661594 -96.234872 
L 446.270045 -95.809602 
L 445.76853 -95.384332 
L 445.168103 -94.959062 
L 444.48349 -94.533792 
L 443.732105 -94.108522 
L 442.93289 -93.683252 
L 442.105053 -93.257982 
L 441.266844 -92.832712 
L 440.434472 -92.407442 
L 439.621258 -91.982172 
L 438.837107 -91.556902 
L 438.088323 -91.131632 
L 437.377762 -90.706362 
L 436.7053 -90.281092 
L 436.068513 -89.855822 
L 435.463514 -89.430552 
L 434.885812 -89.005282 
L 434.331124 -88.580012 
L 433.796031 -88.154742 
L 433.278446 -87.729472 
L 432.777832 -87.304201 
L 432.295202 -86.878931 
L 431.832887 -86.453661 
L 431.39415 -86.028391 
L 430.982697 -85.603121 
L 430.602136 -85.177851 
L 430.255481 -84.752581 
L 429.94473 -84.327311 
L 429.670579 -83.902041 
L 429.432286 -83.476771 
L 429.22769 -83.051501 
L 429.053384 -82.626231 
L 428.904995 -82.200961 
L 428.777549 -81.775691 
L 428.665862 -81.350421 
L 428.564923 -80.925151 
L 428.470228 -80.499881 
L 428.378022 -80.074611 
L 428.285459 -79.649341 
L 428.19065 -79.224071 
L 428.092615 -78.798801 
L 427.99117 -78.373531 
L 427.886752 -77.948261 
L 427.780225 -77.522991 
L 427.672689 -77.097721 
L 427.565308 -76.672451 
L 427.459183 -76.247181 
L 427.355264 -75.821911 
L 427.254317 -75.396641 
L 427.156914 -74.971371 
z
" style="stroke: #000000; stroke-opacity: 0.7"/>
    </defs>
    <g clip-path="url(#pd96b2b3154)">
     <use xlink:href="#m8631eabea6" x="0" y="319.934957" style="fill: #66c2a5; fill-opacity: 0.7; stroke: #000000; stroke-opacity: 0.7"/>
    </g>
   </g>
   <g id="matplotlib.axis_1">
    <g id="xtick_1">
     <g id="line2d_1">
      <defs>
       <path id="m9164f528df" d="M 0 0 
L 0 3.5 
" style="stroke: #000000; stroke-width: 0.8"/>
      </defs>
      <g>
       <use xlink:href="#m9164f528df" x="112.2" y="258.900181" style="stroke: #000000; stroke-width: 0.8"/>
      </g>
     </g>
     <g id="text_1">
      <!-- Glenhaven -->
      <g transform="translate(73.629093 308.548) rotate(-45) scale(0.12 -0.12)">
       <defs>
        <path id="TimesNewRomanPSMT-47" d="M 3928 4334 
L 4038 2997 
L 3928 2997 
Q 3763 3497 3500 3750 
Q 3122 4116 2528 4116 
Q 1719 4116 1297 3475 
Q 944 2934 944 2188 
Q 944 1581 1178 1081 
Q 1413 581 1792 348 
Q 2172 116 2572 116 
Q 2806 116 3025 175 
Q 3244 234 3447 350 
L 3447 1575 
Q 3447 1894 3398 1992 
Q 3350 2091 3248 2142 
Q 3147 2194 2891 2194 
L 2891 2313 
L 4531 2313 
L 4531 2194 
L 4453 2194 
Q 4209 2194 4119 2031 
Q 4056 1916 4056 1575 
L 4056 278 
Q 3697 84 3347 -6 
Q 2997 -97 2569 -97 
Q 1341 -97 703 691 
Q 225 1281 225 2053 
Q 225 2613 494 3125 
Q 813 3734 1369 4063 
Q 1834 4334 2469 4334 
Q 2700 4334 2889 4296 
Q 3078 4259 3425 4131 
Q 3600 4066 3659 4066 
Q 3719 4066 3761 4120 
Q 3803 4175 3813 4334 
L 3928 4334 
z
" transform="scale(0.015625)"/>
        <path id="TimesNewRomanPSMT-6c" d="M 1184 4444 
L 1184 647 
Q 1184 378 1223 290 
Q 1263 203 1344 158 
Q 1425 113 1647 113 
L 1647 0 
L 244 0 
L 244 113 
Q 441 113 512 153 
Q 584 194 625 287 
Q 666 381 666 647 
L 666 3247 
Q 666 3731 644 3842 
Q 622 3953 573 3993 
Q 525 4034 450 4034 
Q 369 4034 244 3984 
L 191 4094 
L 1044 4444 
L 1184 4444 
z
" transform="scale(0.015625)"/>
        <path id="TimesNewRomanPSMT-65" d="M 681 1784 
Q 678 1147 991 784 
Q 1303 422 1725 422 
Q 2006 422 2214 576 
Q 2422 731 2563 1106 
L 2659 1044 
Q 2594 616 2278 264 
Q 1963 -88 1488 -88 
Q 972 -88 605 314 
Q 238 716 238 1394 
Q 238 2128 614 2539 
Q 991 2950 1559 2950 
Q 2041 2950 2350 2633 
Q 2659 2316 2659 1784 
L 681 1784 
z
M 681 1966 
L 2006 1966 
Q 1991 2241 1941 2353 
Q 1863 2528 1708 2628 
Q 1553 2728 1384 2728 
Q 1125 2728 920 2526 
Q 716 2325 681 1966 
z
" transform="scale(0.015625)"/>
        <path id="TimesNewRomanPSMT-6e" d="M 1034 2341 
Q 1538 2947 1994 2947 
Q 2228 2947 2397 2830 
Q 2566 2713 2666 2444 
Q 2734 2256 2734 1869 
L 2734 647 
Q 2734 375 2778 278 
Q 2813 200 2889 156 
Q 2966 113 3172 113 
L 3172 0 
L 1756 0 
L 1756 113 
L 1816 113 
Q 2016 113 2095 173 
Q 2175 234 2206 353 
Q 2219 400 2219 647 
L 2219 1819 
Q 2219 2209 2117 2386 
Q 2016 2563 1775 2563 
Q 1403 2563 1034 2156 
L 1034 647 
Q 1034 356 1069 288 
Q 1113 197 1189 155 
Q 1266 113 1500 113 
L 1500 0 
L 84 0 
L 84 113 
L 147 113 
Q 366 113 442 223 
Q 519 334 519 647 
L 519 1709 
Q 519 2225 495 2337 
Q 472 2450 423 2490 
Q 375 2531 294 2531 
Q 206 2531 84 2484 
L 38 2597 
L 900 2947 
L 1034 2947 
L 1034 2341 
z
" transform="scale(0.015625)"/>
        <path id="TimesNewRomanPSMT-68" d="M 1041 4444 
L 1041 2350 
Q 1388 2731 1591 2839 
Q 1794 2947 1997 2947 
Q 2241 2947 2416 2812 
Q 2591 2678 2675 2391 
Q 2734 2191 2734 1659 
L 2734 647 
Q 2734 375 2778 275 
Q 2809 200 2884 156 
Q 2959 113 3159 113 
L 3159 0 
L 1753 0 
L 1753 113 
L 1819 113 
Q 2019 113 2097 173 
Q 2175 234 2206 353 
Q 2216 403 2216 647 
L 2216 1659 
Q 2216 2128 2167 2275 
Q 2119 2422 2012 2495 
Q 1906 2569 1756 2569 
Q 1603 2569 1437 2487 
Q 1272 2406 1041 2159 
L 1041 647 
Q 1041 353 1073 281 
Q 1106 209 1195 161 
Q 1284 113 1503 113 
L 1503 0 
L 84 0 
L 84 113 
Q 275 113 384 172 
Q 447 203 484 290 
Q 522 378 522 647 
L 522 3238 
Q 522 3728 498 3840 
Q 475 3953 426 3993 
Q 378 4034 297 4034 
Q 231 4034 84 3984 
L 41 4094 
L 897 4444 
L 1041 4444 
z
" transform="scale(0.015625)"/>
        <path id="TimesNewRomanPSMT-61" d="M 1822 413 
Q 1381 72 1269 19 
Q 1100 -59 909 -59 
Q 613 -59 420 144 
Q 228 347 228 678 
Q 228 888 322 1041 
Q 450 1253 767 1440 
Q 1084 1628 1822 1897 
L 1822 2009 
Q 1822 2438 1686 2597 
Q 1550 2756 1291 2756 
Q 1094 2756 978 2650 
Q 859 2544 859 2406 
L 866 2225 
Q 866 2081 792 2003 
Q 719 1925 600 1925 
Q 484 1925 411 2006 
Q 338 2088 338 2228 
Q 338 2497 613 2722 
Q 888 2947 1384 2947 
Q 1766 2947 2009 2819 
Q 2194 2722 2281 2516 
Q 2338 2381 2338 1966 
L 2338 994 
Q 2338 584 2353 492 
Q 2369 400 2405 369 
Q 2441 338 2488 338 
Q 2538 338 2575 359 
Q 2641 400 2828 588 
L 2828 413 
Q 2478 -56 2159 -56 
Q 2006 -56 1915 50 
Q 1825 156 1822 413 
z
M 1822 616 
L 1822 1706 
Q 1350 1519 1213 1441 
Q 966 1303 859 1153 
Q 753 1003 753 825 
Q 753 600 887 451 
Q 1022 303 1197 303 
Q 1434 303 1822 616 
z
" transform="scale(0.015625)"/>
        <path id="TimesNewRomanPSMT-76" d="M 53 2863 
L 1400 2863 
L 1400 2747 
L 1313 2747 
Q 1191 2747 1127 2687 
Q 1063 2628 1063 2528 
Q 1063 2419 1128 2269 
L 1794 688 
L 2463 2328 
Q 2534 2503 2534 2594 
Q 2534 2638 2509 2666 
Q 2475 2713 2422 2730 
Q 2369 2747 2206 2747 
L 2206 2863 
L 3141 2863 
L 3141 2747 
Q 2978 2734 2916 2681 
Q 2806 2588 2719 2369 
L 1703 -88 
L 1575 -88 
L 553 2328 
Q 484 2497 421 2570 
Q 359 2644 263 2694 
Q 209 2722 53 2747 
L 53 2863 
z
" transform="scale(0.015625)"/>
       </defs>
       <use xlink:href="#TimesNewRomanPSMT-47"/>
       <use xlink:href="#TimesNewRomanPSMT-6c" x="72.216797"/>
       <use xlink:href="#TimesNewRomanPSMT-65" x="100"/>
       <use xlink:href="#TimesNewRomanPSMT-6e" x="144.384766"/>
       <use xlink:href="#TimesNewRomanPSMT-68" x="194.384766"/>
       <use xlink:href="#TimesNewRomanPSMT-61" x="244.384766"/>
       <use xlink:href="#TimesNewRomanPSMT-76" x="288.769531"/>
       <use xlink:href="#TimesNewRomanPSMT-65" x="338.769531"/>
       <use xlink:href="#TimesNewRomanPSMT-6e" x="383.154297"/>
      </g>
     </g>
    </g>
    <g id="xtick_2">
     <g id="line2d_2">
      <g>
       <use xlink:href="#m9164f528df" x="175" y="258.900181" style="stroke: #000000; stroke-width: 0.8"/>
      </g>
     </g>
     <g id="text_2">
      <!-- Pinehaven -->
      <g transform="translate(137.838445 307.138648) rotate(-45) scale(0.12 -0.12)">
       <defs>
        <path id="TimesNewRomanPSMT-50" d="M 1313 1984 
L 1313 750 
Q 1313 350 1400 253 
Q 1519 116 1759 116 
L 1922 116 
L 1922 0 
L 106 0 
L 106 116 
L 266 116 
Q 534 116 650 291 
Q 713 388 713 750 
L 713 3488 
Q 713 3888 628 3984 
Q 506 4122 266 4122 
L 106 4122 
L 106 4238 
L 1659 4238 
Q 2228 4238 2556 4120 
Q 2884 4003 3109 3725 
Q 3334 3447 3334 3066 
Q 3334 2547 2992 2222 
Q 2650 1897 2025 1897 
Q 1872 1897 1694 1919 
Q 1516 1941 1313 1984 
z
M 1313 2163 
Q 1478 2131 1606 2115 
Q 1734 2100 1825 2100 
Q 2150 2100 2386 2351 
Q 2622 2603 2622 3003 
Q 2622 3278 2509 3514 
Q 2397 3750 2190 3867 
Q 1984 3984 1722 3984 
Q 1563 3984 1313 3925 
L 1313 2163 
z
" transform="scale(0.015625)"/>
        <path id="TimesNewRomanPSMT-69" d="M 928 4444 
Q 1059 4444 1151 4351 
Q 1244 4259 1244 4128 
Q 1244 3997 1151 3903 
Q 1059 3809 928 3809 
Q 797 3809 703 3903 
Q 609 3997 609 4128 
Q 609 4259 701 4351 
Q 794 4444 928 4444 
z
M 1188 2947 
L 1188 647 
Q 1188 378 1227 289 
Q 1266 200 1342 156 
Q 1419 113 1622 113 
L 1622 0 
L 231 0 
L 231 113 
Q 441 113 512 153 
Q 584 194 626 287 
Q 669 381 669 647 
L 669 1750 
Q 669 2216 641 2353 
Q 619 2453 572 2492 
Q 525 2531 444 2531 
Q 356 2531 231 2484 
L 188 2597 
L 1050 2947 
L 1188 2947 
z
" transform="scale(0.015625)"/>
       </defs>
       <use xlink:href="#TimesNewRomanPSMT-50"/>
       <use xlink:href="#TimesNewRomanPSMT-69" x="55.615234"/>
       <use xlink:href="#TimesNewRomanPSMT-6e" x="83.398438"/>
       <use xlink:href="#TimesNewRomanPSMT-65" x="133.398438"/>
       <use xlink:href="#TimesNewRomanPSMT-68" x="177.783203"/>
       <use xlink:href="#TimesNewRomanPSMT-61" x="227.783203"/>
       <use xlink:href="#TimesNewRomanPSMT-76" x="272.167969"/>
       <use xlink:href="#TimesNewRomanPSMT-65" x="322.167969"/>
       <use xlink:href="#TimesNewRomanPSMT-6e" x="366.552734"/>
      </g>
     </g>
    </g>
    <g id="xtick_3">
     <g id="line2d_3">
      <g>
       <use xlink:href="#m9164f528df" x="237.8" y="258.900181" style="stroke: #000000; stroke-width: 0.8"/>
      </g>
     </g>
     <g id="text_3">
      <!-- Highvale -->
      <g transform="translate(204.865176 302.896008) rotate(-45) scale(0.12 -0.12)">
       <defs>
        <path id="TimesNewRomanPSMT-48" d="M 1316 2272 
L 3284 2272 
L 3284 3484 
Q 3284 3809 3244 3913 
Q 3213 3991 3113 4047 
Q 2978 4122 2828 4122 
L 2678 4122 
L 2678 4238 
L 4491 4238 
L 4491 4122 
L 4341 4122 
Q 4191 4122 4056 4050 
Q 3956 4000 3920 3898 
Q 3884 3797 3884 3484 
L 3884 750 
Q 3884 428 3925 325 
Q 3956 247 4053 191 
Q 4191 116 4341 116 
L 4491 116 
L 4491 0 
L 2678 0 
L 2678 116 
L 2828 116 
Q 3088 116 3206 269 
Q 3284 369 3284 750 
L 3284 2041 
L 1316 2041 
L 1316 750 
Q 1316 428 1356 325 
Q 1388 247 1488 191 
Q 1622 116 1772 116 
L 1925 116 
L 1925 0 
L 109 0 
L 109 116 
L 259 116 
Q 522 116 641 269 
Q 716 369 716 750 
L 716 3484 
Q 716 3809 675 3913 
Q 644 3991 547 4047 
Q 409 4122 259 4122 
L 109 4122 
L 109 4238 
L 1925 4238 
L 1925 4122 
L 1772 4122 
Q 1622 4122 1488 4050 
Q 1391 4000 1353 3898 
Q 1316 3797 1316 3484 
L 1316 2272 
z
" transform="scale(0.015625)"/>
        <path id="TimesNewRomanPSMT-67" d="M 966 1044 
Q 703 1172 562 1401 
Q 422 1631 422 1909 
Q 422 2334 742 2640 
Q 1063 2947 1563 2947 
Q 1972 2947 2272 2747 
L 2878 2747 
Q 3013 2747 3034 2739 
Q 3056 2731 3066 2713 
Q 3084 2684 3084 2613 
Q 3084 2531 3069 2500 
Q 3059 2484 3036 2475 
Q 3013 2466 2878 2466 
L 2506 2466 
Q 2681 2241 2681 1891 
Q 2681 1491 2375 1206 
Q 2069 922 1553 922 
Q 1341 922 1119 984 
Q 981 866 932 777 
Q 884 688 884 625 
Q 884 572 936 522 
Q 988 472 1138 450 
Q 1225 438 1575 428 
Q 2219 413 2409 384 
Q 2700 344 2873 169 
Q 3047 -6 3047 -263 
Q 3047 -616 2716 -925 
Q 2228 -1381 1444 -1381 
Q 841 -1381 425 -1109 
Q 191 -953 191 -784 
Q 191 -709 225 -634 
Q 278 -519 444 -313 
Q 466 -284 763 25 
Q 600 122 533 198 
Q 466 275 466 372 
Q 466 481 555 628 
Q 644 775 966 1044 
z
M 1509 2797 
Q 1278 2797 1122 2612 
Q 966 2428 966 2047 
Q 966 1553 1178 1281 
Q 1341 1075 1591 1075 
Q 1828 1075 1981 1253 
Q 2134 1431 2134 1813 
Q 2134 2309 1919 2591 
Q 1759 2797 1509 2797 
z
M 934 0 
Q 788 -159 713 -296 
Q 638 -434 638 -550 
Q 638 -700 819 -813 
Q 1131 -1006 1722 -1006 
Q 2284 -1006 2551 -807 
Q 2819 -609 2819 -384 
Q 2819 -222 2659 -153 
Q 2497 -84 2016 -72 
Q 1313 -53 934 0 
z
" transform="scale(0.015625)"/>
       </defs>
       <use xlink:href="#TimesNewRomanPSMT-48"/>
       <use xlink:href="#TimesNewRomanPSMT-69" x="72.216797"/>
       <use xlink:href="#TimesNewRomanPSMT-67" x="100"/>
       <use xlink:href="#TimesNewRomanPSMT-68" x="150"/>
       <use xlink:href="#TimesNewRomanPSMT-76" x="200"/>
       <use xlink:href="#TimesNewRomanPSMT-61" x="250"/>
       <use xlink:href="#TimesNewRomanPSMT-6c" x="294.384766"/>
       <use xlink:href="#TimesNewRomanPSMT-65" x="322.167969"/>
      </g>
     </g>
    </g>
    <g id="xtick_4">
     <g id="line2d_4">
      <g>
       <use xlink:href="#m9164f528df" x="300.6" y="258.900181" style="stroke: #000000; stroke-width: 0.8"/>
      </g>
     </g>
     <g id="text_4">
      <!-- Quarryville -->
      <g transform="translate(259.657192 310.903992) rotate(-45) scale(0.12 -0.12)">
       <defs>
        <path id="TimesNewRomanPSMT-51" d="M 2819 -47 
Q 3138 -597 3508 -856 
Q 3878 -1116 4350 -1153 
L 4350 -1253 
Q 3919 -1238 3428 -1080 
Q 2938 -922 2498 -642 
Q 2059 -363 1741 -47 
Q 1291 134 1028 338 
Q 647 641 436 1083 
Q 225 1525 225 2128 
Q 225 3078 840 3706 
Q 1456 4334 2331 4334 
Q 3163 4334 3770 3704 
Q 4378 3075 4378 2116 
Q 4378 1338 3945 750 
Q 3513 163 2819 -47 
z
M 2294 4094 
Q 1725 4094 1378 3688 
Q 941 3178 941 2128 
Q 941 1100 1384 544 
Q 1728 116 2294 116 
Q 2881 116 3241 544 
Q 3663 1050 3663 2038 
Q 3663 2797 3431 3316 
Q 3253 3716 2958 3905 
Q 2663 4094 2294 4094 
z
" transform="scale(0.015625)"/>
        <path id="TimesNewRomanPSMT-75" d="M 2709 2863 
L 2709 1128 
Q 2709 631 2732 520 
Q 2756 409 2807 365 
Q 2859 322 2928 322 
Q 3025 322 3147 375 
L 3191 266 
L 2334 -88 
L 2194 -88 
L 2194 519 
Q 1825 119 1631 15 
Q 1438 -88 1222 -88 
Q 981 -88 804 51 
Q 628 191 559 409 
Q 491 628 491 1028 
L 491 2306 
Q 491 2509 447 2587 
Q 403 2666 317 2708 
Q 231 2750 6 2747 
L 6 2863 
L 1009 2863 
L 1009 947 
Q 1009 547 1148 422 
Q 1288 297 1484 297 
Q 1619 297 1789 381 
Q 1959 466 2194 703 
L 2194 2325 
Q 2194 2569 2105 2655 
Q 2016 2741 1734 2747 
L 1734 2863 
L 2709 2863 
z
" transform="scale(0.015625)"/>
        <path id="TimesNewRomanPSMT-72" d="M 1038 2947 
L 1038 2303 
Q 1397 2947 1775 2947 
Q 1947 2947 2059 2842 
Q 2172 2738 2172 2600 
Q 2172 2478 2090 2393 
Q 2009 2309 1897 2309 
Q 1788 2309 1652 2417 
Q 1516 2525 1450 2525 
Q 1394 2525 1328 2463 
Q 1188 2334 1038 2041 
L 1038 669 
Q 1038 431 1097 309 
Q 1138 225 1241 169 
Q 1344 113 1538 113 
L 1538 0 
L 72 0 
L 72 113 
Q 291 113 397 181 
Q 475 231 506 341 
Q 522 394 522 644 
L 522 1753 
Q 522 2253 501 2348 
Q 481 2444 426 2487 
Q 372 2531 291 2531 
Q 194 2531 72 2484 
L 41 2597 
L 906 2947 
L 1038 2947 
z
" transform="scale(0.015625)"/>
        <path id="TimesNewRomanPSMT-79" d="M 38 2863 
L 1372 2863 
L 1372 2747 
L 1306 2747 
Q 1166 2747 1095 2686 
Q 1025 2625 1025 2534 
Q 1025 2413 1128 2197 
L 1825 753 
L 2466 2334 
Q 2519 2463 2519 2588 
Q 2519 2644 2497 2672 
Q 2472 2706 2419 2726 
Q 2366 2747 2231 2747 
L 2231 2863 
L 3163 2863 
L 3163 2747 
Q 3047 2734 2984 2696 
Q 2922 2659 2847 2556 
Q 2819 2513 2741 2316 
L 1575 -541 
Q 1406 -956 1132 -1168 
Q 859 -1381 606 -1381 
Q 422 -1381 303 -1275 
Q 184 -1169 184 -1031 
Q 184 -900 270 -820 
Q 356 -741 506 -741 
Q 609 -741 788 -809 
Q 913 -856 944 -856 
Q 1038 -856 1148 -759 
Q 1259 -663 1372 -384 
L 1575 113 
L 547 2272 
Q 500 2369 397 2513 
Q 319 2622 269 2659 
Q 197 2709 38 2747 
L 38 2863 
z
" transform="scale(0.015625)"/>
       </defs>
       <use xlink:href="#TimesNewRomanPSMT-51"/>
       <use xlink:href="#TimesNewRomanPSMT-75" x="72.216797"/>
       <use xlink:href="#TimesNewRomanPSMT-61" x="122.216797"/>
       <use xlink:href="#TimesNewRomanPSMT-72" x="166.601562"/>
       <use xlink:href="#TimesNewRomanPSMT-72" x="199.902344"/>
       <use xlink:href="#TimesNewRomanPSMT-79" x="233.203125"/>
       <use xlink:href="#TimesNewRomanPSMT-76" x="283.203125"/>
       <use xlink:href="#TimesNewRomanPSMT-69" x="333.203125"/>
       <use xlink:href="#TimesNewRomanPSMT-6c" x="360.986328"/>
       <use xlink:href="#TimesNewRomanPSMT-6c" x="388.769531"/>
       <use xlink:href="#TimesNewRomanPSMT-65" x="416.552734"/>
      </g>
     </g>
    </g>
    <g id="xtick_5">
     <g id="line2d_5">
      <g>
       <use xlink:href="#m9164f528df" x="363.4" y="258.900181" style="stroke: #000000; stroke-width: 0.8"/>
      </g>
     </g>
     <g id="text_5">
      <!-- Zephyr -->
      <g transform="translate(337.06646 296.294724) rotate(-45) scale(0.12 -0.12)">
       <defs>
        <path id="TimesNewRomanPSMT-5a" d="M 3681 4238 
L 897 256 
L 2634 256 
Q 3034 256 3248 431 
Q 3463 606 3628 1141 
L 3731 1122 
L 3531 0 
L 81 0 
L 81 116 
L 2800 3984 
L 1444 3984 
Q 1106 3984 954 3911 
Q 803 3838 723 3698 
Q 644 3559 578 3178 
L 459 3178 
L 547 4238 
L 3681 4238 
z
" transform="scale(0.015625)"/>
        <path id="TimesNewRomanPSMT-70" d="M -6 2578 
L 875 2934 
L 994 2934 
L 994 2266 
Q 1216 2644 1439 2795 
Q 1663 2947 1909 2947 
Q 2341 2947 2628 2609 
Q 2981 2197 2981 1534 
Q 2981 794 2556 309 
Q 2206 -88 1675 -88 
Q 1444 -88 1275 -22 
Q 1150 25 994 166 
L 994 -706 
Q 994 -1000 1030 -1079 
Q 1066 -1159 1155 -1206 
Q 1244 -1253 1478 -1253 
L 1478 -1369 
L -22 -1369 
L -22 -1253 
L 56 -1253 
Q 228 -1256 350 -1188 
Q 409 -1153 442 -1076 
Q 475 -1000 475 -688 
L 475 2019 
Q 475 2297 450 2372 
Q 425 2447 370 2484 
Q 316 2522 222 2522 
Q 147 2522 31 2478 
L -6 2578 
z
M 994 2081 
L 994 1013 
Q 994 666 1022 556 
Q 1066 375 1236 237 
Q 1406 100 1666 100 
Q 1978 100 2172 344 
Q 2425 663 2425 1241 
Q 2425 1897 2138 2250 
Q 1938 2494 1663 2494 
Q 1513 2494 1366 2419 
Q 1253 2363 994 2081 
z
" transform="scale(0.015625)"/>
       </defs>
       <use xlink:href="#TimesNewRomanPSMT-5a"/>
       <use xlink:href="#TimesNewRomanPSMT-65" x="61.083984"/>
       <use xlink:href="#TimesNewRomanPSMT-70" x="105.46875"/>
       <use xlink:href="#TimesNewRomanPSMT-68" x="155.46875"/>
       <use xlink:href="#TimesNewRomanPSMT-79" x="205.46875"/>
       <use xlink:href="#TimesNewRomanPSMT-72" x="255.46875"/>
      </g>
     </g>
    </g>
    <g id="xtick_6">
     <g id="line2d_6">
      <g>
       <use xlink:href="#m9164f528df" x="426.2" y="258.900181" style="stroke: #000000; stroke-width: 0.8"/>
      </g>
     </g>
     <g id="text_6">
      <!-- Oakridge -->
      <g transform="translate(392.79716 303.364024) rotate(-45) scale(0.12 -0.12)">
       <defs>
        <path id="TimesNewRomanPSMT-4f" d="M 2341 4334 
Q 3166 4334 3770 3707 
Q 4375 3081 4375 2144 
Q 4375 1178 3765 540 
Q 3156 -97 2291 -97 
Q 1416 -97 820 525 
Q 225 1147 225 2134 
Q 225 3144 913 3781 
Q 1509 4334 2341 4334 
z
M 2281 4106 
Q 1713 4106 1369 3684 
Q 941 3159 941 2147 
Q 941 1109 1384 550 
Q 1725 125 2284 125 
Q 2881 125 3270 590 
Q 3659 1056 3659 2059 
Q 3659 3147 3231 3681 
Q 2888 4106 2281 4106 
z
" transform="scale(0.015625)"/>
        <path id="TimesNewRomanPSMT-6b" d="M 1047 4444 
L 1047 1597 
L 1775 2259 
Q 2006 2472 2044 2528 
Q 2069 2566 2069 2603 
Q 2069 2666 2017 2711 
Q 1966 2756 1847 2763 
L 1847 2863 
L 3091 2863 
L 3091 2763 
Q 2834 2756 2664 2684 
Q 2494 2613 2291 2428 
L 1556 1750 
L 2291 822 
Q 2597 438 2703 334 
Q 2853 188 2966 144 
Q 3044 113 3238 113 
L 3238 0 
L 1847 0 
L 1847 113 
Q 1966 116 2008 148 
Q 2050 181 2050 241 
Q 2050 313 1925 472 
L 1047 1594 
L 1047 644 
Q 1047 366 1086 278 
Q 1125 191 1197 153 
Q 1269 116 1509 113 
L 1509 0 
L 53 0 
L 53 113 
Q 272 113 381 166 
Q 447 200 481 272 
Q 528 375 528 628 
L 528 3234 
Q 528 3731 506 3842 
Q 484 3953 434 3995 
Q 384 4038 303 4038 
Q 238 4038 106 3984 
L 53 4094 
L 903 4444 
L 1047 4444 
z
" transform="scale(0.015625)"/>
        <path id="TimesNewRomanPSMT-64" d="M 2222 322 
Q 2013 103 1813 7 
Q 1613 -88 1381 -88 
Q 913 -88 563 304 
Q 213 697 213 1313 
Q 213 1928 600 2439 
Q 988 2950 1597 2950 
Q 1975 2950 2222 2709 
L 2222 3238 
Q 2222 3728 2198 3840 
Q 2175 3953 2125 3993 
Q 2075 4034 2000 4034 
Q 1919 4034 1784 3984 
L 1744 4094 
L 2597 4444 
L 2738 4444 
L 2738 1134 
Q 2738 631 2761 520 
Q 2784 409 2836 365 
Q 2888 322 2956 322 
Q 3041 322 3181 375 
L 3216 266 
L 2366 -88 
L 2222 -88 
L 2222 322 
z
M 2222 541 
L 2222 2016 
Q 2203 2228 2109 2403 
Q 2016 2578 1861 2667 
Q 1706 2756 1559 2756 
Q 1284 2756 1069 2509 
Q 784 2184 784 1559 
Q 784 928 1059 592 
Q 1334 256 1672 256 
Q 1956 256 2222 541 
z
" transform="scale(0.015625)"/>
       </defs>
       <use xlink:href="#TimesNewRomanPSMT-4f"/>
       <use xlink:href="#TimesNewRomanPSMT-61" x="72.216797"/>
       <use xlink:href="#TimesNewRomanPSMT-6b" x="116.601562"/>
       <use xlink:href="#TimesNewRomanPSMT-72" x="166.601562"/>
       <use xlink:href="#TimesNewRomanPSMT-69" x="199.902344"/>
       <use xlink:href="#TimesNewRomanPSMT-64" x="227.685547"/>
       <use xlink:href="#TimesNewRomanPSMT-67" x="277.685547"/>
       <use xlink:href="#TimesNewRomanPSMT-65" x="327.685547"/>
      </g>
     </g>
    </g>
   </g>
   <g id="matplotlib.axis_2">
    <g id="ytick_1">
     <g id="line2d_7">
      <defs>
       <path id="md3658f49c9" d="M 0 0 
L -3.5 0 
" style="stroke: #000000; stroke-width: 0.8"/>
      </defs>
      <g>
       <use xlink:href="#md3658f49c9" x="80.8" y="248.804984" style="stroke: #000000; stroke-width: 0.8"/>
      </g>
     </g>
     <g id="text_7">
      <!-- 500 -->
      <g transform="translate(58.8 252.276859) scale(0.1 -0.1)">
       <defs>
        <path id="TimesNewRomanPSMT-35" d="M 2778 4238 
L 2534 3706 
L 1259 3706 
L 981 3138 
Q 1809 3016 2294 2522 
Q 2709 2097 2709 1522 
Q 2709 1188 2573 903 
Q 2438 619 2231 419 
Q 2025 219 1772 97 
Q 1413 -75 1034 -75 
Q 653 -75 479 54 
Q 306 184 306 341 
Q 306 428 378 495 
Q 450 563 559 563 
Q 641 563 702 538 
Q 763 513 909 409 
Q 1144 247 1384 247 
Q 1750 247 2026 523 
Q 2303 800 2303 1197 
Q 2303 1581 2056 1914 
Q 1809 2247 1375 2428 
Q 1034 2569 447 2591 
L 1259 4238 
L 2778 4238 
z
" transform="scale(0.015625)"/>
        <path id="TimesNewRomanPSMT-30" d="M 231 2094 
Q 231 2819 450 3342 
Q 669 3866 1031 4122 
Q 1313 4325 1613 4325 
Q 2100 4325 2488 3828 
Q 2972 3213 2972 2159 
Q 2972 1422 2759 906 
Q 2547 391 2217 158 
Q 1888 -75 1581 -75 
Q 975 -75 572 641 
Q 231 1244 231 2094 
z
M 844 2016 
Q 844 1141 1059 588 
Q 1238 122 1591 122 
Q 1759 122 1940 273 
Q 2122 425 2216 781 
Q 2359 1319 2359 2297 
Q 2359 3022 2209 3506 
Q 2097 3866 1919 4016 
Q 1791 4119 1609 4119 
Q 1397 4119 1231 3928 
Q 1006 3669 925 3112 
Q 844 2556 844 2016 
z
" transform="scale(0.015625)"/>
       </defs>
       <use xlink:href="#TimesNewRomanPSMT-35"/>
       <use xlink:href="#TimesNewRomanPSMT-30" x="50"/>
       <use xlink:href="#TimesNewRomanPSMT-30" x="100"/>
      </g>
     </g>
    </g>
    <g id="ytick_2">
     <g id="line2d_8">
      <g>
       <use xlink:href="#md3658f49c9" x="80.8" y="210.390996" style="stroke: #000000; stroke-width: 0.8"/>
      </g>
     </g>
     <g id="text_8">
      <!-- 1000 -->
      <g transform="translate(53.8 213.862871) scale(0.1 -0.1)">
       <defs>
        <path id="TimesNewRomanPSMT-31" d="M 750 3822 
L 1781 4325 
L 1884 4325 
L 1884 747 
Q 1884 391 1914 303 
Q 1944 216 2037 169 
Q 2131 122 2419 116 
L 2419 0 
L 825 0 
L 825 116 
Q 1125 122 1212 167 
Q 1300 213 1334 289 
Q 1369 366 1369 747 
L 1369 3034 
Q 1369 3497 1338 3628 
Q 1316 3728 1258 3775 
Q 1200 3822 1119 3822 
Q 1003 3822 797 3725 
L 750 3822 
z
" transform="scale(0.015625)"/>
       </defs>
       <use xlink:href="#TimesNewRomanPSMT-31"/>
       <use xlink:href="#TimesNewRomanPSMT-30" x="50"/>
       <use xlink:href="#TimesNewRomanPSMT-30" x="100"/>
       <use xlink:href="#TimesNewRomanPSMT-30" x="150"/>
      </g>
     </g>
    </g>
    <g id="ytick_3">
     <g id="line2d_9">
      <g>
       <use xlink:href="#md3658f49c9" x="80.8" y="171.977007" style="stroke: #000000; stroke-width: 0.8"/>
      </g>
     </g>
     <g id="text_9">
      <!-- 1500 -->
      <g transform="translate(53.8 175.448882) scale(0.1 -0.1)">
       <use xlink:href="#TimesNewRomanPSMT-31"/>
       <use xlink:href="#TimesNewRomanPSMT-35" x="50"/>
       <use xlink:href="#TimesNewRomanPSMT-30" x="100"/>
       <use xlink:href="#TimesNewRomanPSMT-30" x="150"/>
      </g>
     </g>
    </g>
    <g id="ytick_4">
     <g id="line2d_10">
      <g>
       <use xlink:href="#md3658f49c9" x="80.8" y="133.563018" style="stroke: #000000; stroke-width: 0.8"/>
      </g>
     </g>
     <g id="text_10">
      <!-- 2000 -->
      <g transform="translate(53.8 137.034893) scale(0.1 -0.1)">
       <defs>
        <path id="TimesNewRomanPSMT-32" d="M 2934 816 
L 2638 0 
L 138 0 
L 138 116 
Q 1241 1122 1691 1759 
Q 2141 2397 2141 2925 
Q 2141 3328 1894 3587 
Q 1647 3847 1303 3847 
Q 991 3847 742 3664 
Q 494 3481 375 3128 
L 259 3128 
Q 338 3706 661 4015 
Q 984 4325 1469 4325 
Q 1984 4325 2329 3994 
Q 2675 3663 2675 3213 
Q 2675 2891 2525 2569 
Q 2294 2063 1775 1497 
Q 997 647 803 472 
L 1909 472 
Q 2247 472 2383 497 
Q 2519 522 2628 598 
Q 2738 675 2819 816 
L 2934 816 
z
" transform="scale(0.015625)"/>
       </defs>
       <use xlink:href="#TimesNewRomanPSMT-32"/>
       <use xlink:href="#TimesNewRomanPSMT-30" x="50"/>
       <use xlink:href="#TimesNewRomanPSMT-30" x="100"/>
       <use xlink:href="#TimesNewRomanPSMT-30" x="150"/>
      </g>
     </g>
    </g>
    <g id="ytick_5">
     <g id="line2d_11">
      <g>
       <use xlink:href="#md3658f49c9" x="80.8" y="95.149029" style="stroke: #000000; stroke-width: 0.8"/>
      </g>
     </g>
     <g id="text_11">
      <!-- 2500 -->
      <g transform="translate(53.8 98.620904) scale(0.1 -0.1)">
       <use xlink:href="#TimesNewRomanPSMT-32"/>
       <use xlink:href="#TimesNewRomanPSMT-35" x="50"/>
       <use xlink:href="#TimesNewRomanPSMT-30" x="100"/>
       <use xlink:href="#TimesNewRomanPSMT-30" x="150"/>
      </g>
     </g>
    </g>
    <g id="ytick_6">
     <g id="line2d_12">
      <g>
       <use xlink:href="#md3658f49c9" x="80.8" y="56.73504" style="stroke: #000000; stroke-width: 0.8"/>
      </g>
     </g>
     <g id="text_12">
      <!-- 3000 -->
      <g transform="translate(53.8 60.206915) scale(0.1 -0.1)">
       <defs>
        <path id="TimesNewRomanPSMT-33" d="M 325 3431 
Q 506 3859 782 4092 
Q 1059 4325 1472 4325 
Q 1981 4325 2253 3994 
Q 2459 3747 2459 3466 
Q 2459 3003 1878 2509 
Q 2269 2356 2469 2072 
Q 2669 1788 2669 1403 
Q 2669 853 2319 450 
Q 1863 -75 997 -75 
Q 569 -75 414 31 
Q 259 138 259 259 
Q 259 350 332 419 
Q 406 488 509 488 
Q 588 488 669 463 
Q 722 447 909 348 
Q 1097 250 1169 231 
Q 1284 197 1416 197 
Q 1734 197 1970 444 
Q 2206 691 2206 1028 
Q 2206 1275 2097 1509 
Q 2016 1684 1919 1775 
Q 1784 1900 1550 2001 
Q 1316 2103 1072 2103 
L 972 2103 
L 972 2197 
Q 1219 2228 1467 2375 
Q 1716 2522 1828 2728 
Q 1941 2934 1941 3181 
Q 1941 3503 1739 3701 
Q 1538 3900 1238 3900 
Q 753 3900 428 3381 
L 325 3431 
z
" transform="scale(0.015625)"/>
       </defs>
       <use xlink:href="#TimesNewRomanPSMT-33"/>
       <use xlink:href="#TimesNewRomanPSMT-30" x="50"/>
       <use xlink:href="#TimesNewRomanPSMT-30" x="100"/>
       <use xlink:href="#TimesNewRomanPSMT-30" x="150"/>
      </g>
     </g>
    </g>
    <g id="text_13">
     <!-- number -->
     <g transform="translate(46.805313 165.855403) rotate(-90) scale(0.14 -0.14)">
      <defs>
       <path id="TimesNewRomanPSMT-6d" d="M 1050 2338 
Q 1363 2650 1419 2697 
Q 1559 2816 1721 2881 
Q 1884 2947 2044 2947 
Q 2313 2947 2506 2790 
Q 2700 2634 2766 2338 
Q 3088 2713 3309 2830 
Q 3531 2947 3766 2947 
Q 3994 2947 4170 2830 
Q 4347 2713 4450 2447 
Q 4519 2266 4519 1878 
L 4519 647 
Q 4519 378 4559 278 
Q 4591 209 4675 161 
Q 4759 113 4950 113 
L 4950 0 
L 3538 0 
L 3538 113 
L 3597 113 
Q 3781 113 3884 184 
Q 3956 234 3988 344 
Q 4000 397 4000 647 
L 4000 1878 
Q 4000 2228 3916 2372 
Q 3794 2572 3525 2572 
Q 3359 2572 3192 2489 
Q 3025 2406 2788 2181 
L 2781 2147 
L 2788 2013 
L 2788 647 
Q 2788 353 2820 281 
Q 2853 209 2943 161 
Q 3034 113 3253 113 
L 3253 0 
L 1806 0 
L 1806 113 
Q 2044 113 2133 169 
Q 2222 225 2256 338 
Q 2272 391 2272 647 
L 2272 1878 
Q 2272 2228 2169 2381 
Q 2031 2581 1784 2581 
Q 1616 2581 1450 2491 
Q 1191 2353 1050 2181 
L 1050 647 
Q 1050 366 1089 281 
Q 1128 197 1204 155 
Q 1281 113 1516 113 
L 1516 0 
L 100 0 
L 100 113 
Q 297 113 375 155 
Q 453 197 493 289 
Q 534 381 534 647 
L 534 1741 
Q 534 2213 506 2350 
Q 484 2453 437 2492 
Q 391 2531 309 2531 
Q 222 2531 100 2484 
L 53 2597 
L 916 2947 
L 1050 2947 
L 1050 2338 
z
" transform="scale(0.015625)"/>
       <path id="TimesNewRomanPSMT-62" d="M 984 2369 
Q 1400 2947 1881 2947 
Q 2322 2947 2650 2570 
Q 2978 2194 2978 1541 
Q 2978 778 2472 313 
Q 2038 -88 1503 -88 
Q 1253 -88 995 3 
Q 738 94 469 275 
L 469 3241 
Q 469 3728 445 3840 
Q 422 3953 372 3993 
Q 322 4034 247 4034 
Q 159 4034 28 3984 
L -16 4094 
L 844 4444 
L 984 4444 
L 984 2369 
z
M 984 2169 
L 984 456 
Q 1144 300 1314 220 
Q 1484 141 1663 141 
Q 1947 141 2192 453 
Q 2438 766 2438 1363 
Q 2438 1913 2192 2208 
Q 1947 2503 1634 2503 
Q 1469 2503 1303 2419 
Q 1178 2356 984 2169 
z
" transform="scale(0.015625)"/>
      </defs>
      <use xlink:href="#TimesNewRomanPSMT-6e"/>
      <use xlink:href="#TimesNewRomanPSMT-75" x="50"/>
      <use xlink:href="#TimesNewRomanPSMT-6d" x="100"/>
      <use xlink:href="#TimesNewRomanPSMT-62" x="177.783203"/>
      <use xlink:href="#TimesNewRomanPSMT-65" x="227.783203"/>
      <use xlink:href="#TimesNewRomanPSMT-72" x="272.167969"/>
     </g>
    </g>
   </g>
   <g id="patch_3">
    <path d="M 109.06 95.84048 
L 115.34 95.84048 
L 115.34 75.596308 
L 109.06 75.596308 
L 109.06 95.84048 
L 109.06 95.84048 
z
" clip-path="url(#pd96b2b3154)" style="fill: none; stroke: #000000; stroke-linejoin: miter"/>
   </g>
   <g id="line2d_13">
    <path d="M 112.2 95.84048 
L 112.2 124.497316 
" clip-path="url(#pd96b2b3154)" style="fill: none; stroke: #000000; stroke-linecap: square"/>
   </g>
   <g id="line2d_14">
    <path d="M 112.2 75.596308 
L 112.2 46.593746 
" clip-path="url(#pd96b2b3154)" style="fill: none; stroke: #000000; stroke-linecap: square"/>
   </g>
   <g id="line2d_15">
    <path d="M 110.63 124.497316 
L 113.77 124.497316 
" clip-path="url(#pd96b2b3154)" style="fill: none; stroke: #000000; stroke-linecap: square"/>
   </g>
   <g id="line2d_16">
    <path d="M 110.63 46.593746 
L 113.77 46.593746 
" clip-path="url(#pd96b2b3154)" style="fill: none; stroke: #000000; stroke-linecap: square"/>
   </g>
   <g id="patch_4">
    <path d="M 171.86 78.26608 
L 178.14 78.26608 
L 178.14 67.894303 
L 171.86 67.894303 
L 171.86 78.26608 
L 171.86 78.26608 
z
" clip-path="url(#pd96b2b3154)" style="fill: none; stroke: #000000; stroke-linejoin: miter"/>
   </g>
   <g id="line2d_17">
    <path d="M 175 78.26608 
L 175 92.690533 
" clip-path="url(#pd96b2b3154)" style="fill: none; stroke: #000000; stroke-linecap: square"/>
   </g>
   <g id="line2d_18">
    <path d="M 175 67.894303 
L 175 54.04606 
" clip-path="url(#pd96b2b3154)" style="fill: none; stroke: #000000; stroke-linecap: square"/>
   </g>
   <g id="line2d_19">
    <path d="M 173.43 92.690533 
L 176.57 92.690533 
" clip-path="url(#pd96b2b3154)" style="fill: none; stroke: #000000; stroke-linecap: square"/>
   </g>
   <g id="line2d_20">
    <path d="M 173.43 54.04606 
L 176.57 54.04606 
" clip-path="url(#pd96b2b3154)" style="fill: none; stroke: #000000; stroke-linecap: square"/>
   </g>
   <g id="patch_5">
    <path d="M 234.66 93.228329 
L 240.94 93.228329 
L 240.94 74.136577 
L 234.66 74.136577 
L 234.66 93.228329 
L 234.66 93.228329 
z
" clip-path="url(#pd96b2b3154)" style="fill: none; stroke: #000000; stroke-linejoin: miter"/>
   </g>
   <g id="line2d_21">
    <path d="M 237.8 93.228329 
L 237.8 119.349842 
" clip-path="url(#pd96b2b3154)" style="fill: none; stroke: #000000; stroke-linecap: square"/>
   </g>
   <g id="line2d_22">
    <path d="M 237.8 74.136577 
L 237.8 51.971705 
" clip-path="url(#pd96b2b3154)" style="fill: none; stroke: #000000; stroke-linecap: square"/>
   </g>
   <g id="line2d_23">
    <path d="M 236.23 119.349842 
L 239.37 119.349842 
" clip-path="url(#pd96b2b3154)" style="fill: none; stroke: #000000; stroke-linecap: square"/>
   </g>
   <g id="line2d_24">
    <path d="M 236.23 51.971705 
L 239.37 51.971705 
" clip-path="url(#pd96b2b3154)" style="fill: none; stroke: #000000; stroke-linecap: square"/>
   </g>
   <g id="patch_6">
    <path d="M 297.46 241.736811 
L 303.74 241.736811 
L 303.74 235.840263 
L 297.46 235.840263 
L 297.46 241.736811 
L 297.46 241.736811 
z
" clip-path="url(#pd96b2b3154)" style="fill: none; stroke: #000000; stroke-linejoin: miter"/>
   </g>
   <g id="line2d_25">
    <path d="M 300.6 241.736811 
L 300.6 248.497673 
" clip-path="url(#pd96b2b3154)" style="fill: none; stroke: #000000; stroke-linecap: square"/>
   </g>
   <g id="line2d_26">
    <path d="M 300.6 235.840263 
L 300.6 227.369979 
" clip-path="url(#pd96b2b3154)" style="fill: none; stroke: #000000; stroke-linecap: square"/>
   </g>
   <g id="line2d_27">
    <path d="M 299.03 248.497673 
L 302.17 248.497673 
" clip-path="url(#pd96b2b3154)" style="fill: none; stroke: #000000; stroke-linecap: square"/>
   </g>
   <g id="line2d_28">
    <path d="M 299.03 227.369979 
L 302.17 227.369979 
" clip-path="url(#pd96b2b3154)" style="fill: none; stroke: #000000; stroke-linecap: square"/>
   </g>
   <g id="patch_7">
    <path d="M 360.26 112.108805 
L 366.54 112.108805 
L 366.54 103.177552 
L 360.26 103.177552 
L 360.26 112.108805 
L 360.26 112.108805 
z
" clip-path="url(#pd96b2b3154)" style="fill: none; stroke: #000000; stroke-linejoin: miter"/>
   </g>
   <g id="line2d_29">
    <path d="M 363.4 112.108805 
L 363.4 124.958284 
" clip-path="url(#pd96b2b3154)" style="fill: none; stroke: #000000; stroke-linecap: square"/>
   </g>
   <g id="line2d_30">
    <path d="M 363.4 103.177552 
L 363.4 90.92349 
" clip-path="url(#pd96b2b3154)" style="fill: none; stroke: #000000; stroke-linecap: square"/>
   </g>
   <g id="line2d_31">
    <path d="M 361.83 124.958284 
L 364.97 124.958284 
" clip-path="url(#pd96b2b3154)" style="fill: none; stroke: #000000; stroke-linecap: square"/>
   </g>
   <g id="line2d_32">
    <path d="M 361.83 90.92349 
L 364.97 90.92349 
" clip-path="url(#pd96b2b3154)" style="fill: none; stroke: #000000; stroke-linecap: square"/>
   </g>
   <g id="patch_8">
    <path d="M 423.06 224.815448 
L 429.34 224.815448 
L 429.34 213.656185 
L 423.06 213.656185 
L 423.06 224.815448 
L 423.06 224.815448 
z
" clip-path="url(#pd96b2b3154)" style="fill: none; stroke: #000000; stroke-linejoin: miter"/>
   </g>
   <g id="line2d_33">
    <path d="M 426.2 224.815448 
L 426.2 240.891703 
" clip-path="url(#pd96b2b3154)" style="fill: none; stroke: #000000; stroke-linecap: square"/>
   </g>
   <g id="line2d_34">
    <path d="M 426.2 213.656185 
L 426.2 202.861854 
" clip-path="url(#pd96b2b3154)" style="fill: none; stroke: #000000; stroke-linecap: square"/>
   </g>
   <g id="line2d_35">
    <path d="M 424.63 240.891703 
L 427.77 240.891703 
" clip-path="url(#pd96b2b3154)" style="fill: none; stroke: #000000; stroke-linecap: square"/>
   </g>
   <g id="line2d_36">
    <path d="M 424.63 202.861854 
L 427.77 202.861854 
" clip-path="url(#pd96b2b3154)" style="fill: none; stroke: #000000; stroke-linecap: square"/>
   </g>
   <g id="line2d_37">
    <path d="M 109.06 84.27787 
L 115.34 84.27787 
" clip-path="url(#pd96b2b3154)" style="fill: none; stroke: #000000; stroke-width: 1.5; stroke-linecap: square"/>
   </g>
   <g id="line2d_38">
    <path d="M 171.86 73.637195 
L 178.14 73.637195 
" clip-path="url(#pd96b2b3154)" style="fill: none; stroke: #000000; stroke-width: 1.5; stroke-linecap: square"/>
   </g>
   <g id="line2d_39">
    <path d="M 234.66 82.472412 
L 240.94 82.472412 
" clip-path="url(#pd96b2b3154)" style="fill: none; stroke: #000000; stroke-width: 1.5; stroke-linecap: square"/>
   </g>
   <g id="line2d_40">
    <path d="M 297.46 238.855761 
L 303.74 238.855761 
" clip-path="url(#pd96b2b3154)" style="fill: none; stroke: #000000; stroke-width: 1.5; stroke-linecap: square"/>
   </g>
   <g id="line2d_41">
    <path d="M 360.26 108.094543 
L 366.54 108.094543 
" clip-path="url(#pd96b2b3154)" style="fill: none; stroke: #000000; stroke-width: 1.5; stroke-linecap: square"/>
   </g>
   <g id="line2d_42">
    <path d="M 423.06 220.455461 
L 429.34 220.455461 
" clip-path="url(#pd96b2b3154)" style="fill: none; stroke: #000000; stroke-width: 1.5; stroke-linecap: square"/>
   </g>
   <g id="patch_9">
    <path d="M 80.8 258.900181 
L 80.8 30.045 
" style="fill: none; stroke: #000000; stroke-linejoin: miter; stroke-linecap: square"/>
   </g>
   <g id="patch_10">
    <path d="M 457.6 258.900181 
L 457.6 30.045 
" style="fill: none; stroke: #000000; stroke-linejoin: miter; stroke-linecap: square"/>
   </g>
   <g id="patch_11">
    <path d="M 80.8 258.900181 
L 457.6 258.900181 
" style="fill: none; stroke: #000000; stroke-linejoin: miter; stroke-linecap: square"/>
   </g>
   <g id="patch_12">
    <path d="M 80.8 30.045 
L 457.6 30.045 
" style="fill: none; stroke: #000000; stroke-linejoin: miter; stroke-linecap: square"/>
   </g>
   <g id="text_14">
    <!-- Number of people participating in cultural activities across regions (number) -->
    <g transform="translate(7.2 18.045) scale(0.16 -0.16)">
     <defs>
      <path id="TimesNewRomanPS-BoldMT-4e" d="M 1594 4238 
L 3684 1609 
L 3684 3431 
Q 3684 3813 3575 3947 
Q 3425 4128 3072 4122 
L 3072 4238 
L 4472 4238 
L 4472 4122 
Q 4203 4088 4111 4033 
Q 4019 3978 3967 3854 
Q 3916 3731 3916 3431 
L 3916 -97 
L 3809 -97 
L 944 3431 
L 944 738 
Q 944 372 1111 244 
Q 1278 116 1494 116 
L 1594 116 
L 1594 0 
L 91 0 
L 91 116 
Q 441 119 578 259 
Q 716 400 716 738 
L 716 3728 
L 625 3841 
Q 491 4009 387 4062 
Q 284 4116 91 4122 
L 91 4238 
L 1594 4238 
z
" transform="scale(0.015625)"/>
      <path id="TimesNewRomanPS-BoldMT-75" d="M 3038 2922 
L 3038 634 
Q 3038 300 3100 217 
Q 3163 134 3353 113 
L 3353 0 
L 2163 0 
L 2163 391 
Q 1953 141 1743 26 
Q 1534 -88 1275 -88 
Q 1028 -88 836 64 
Q 644 216 578 419 
Q 513 622 513 1128 
L 513 2288 
Q 513 2619 452 2700 
Q 391 2781 197 2806 
L 197 2922 
L 1388 2922 
L 1388 925 
Q 1388 613 1417 522 
Q 1447 431 1511 384 
Q 1575 338 1659 338 
Q 1772 338 1863 397 
Q 1988 478 2163 725 
L 2163 2288 
Q 2163 2619 2102 2700 
Q 2041 2781 1847 2806 
L 1847 2922 
L 3038 2922 
z
" transform="scale(0.015625)"/>
      <path id="TimesNewRomanPS-BoldMT-6d" d="M 1428 2922 
L 1428 2538 
Q 1669 2800 1873 2904 
Q 2078 3009 2322 3009 
Q 2603 3009 2793 2878 
Q 2984 2747 3088 2478 
Q 3338 2759 3567 2884 
Q 3797 3009 4047 3009 
Q 4350 3009 4529 2870 
Q 4709 2731 4779 2517 
Q 4850 2303 4850 1834 
L 4850 638 
Q 4850 300 4911 219 
Q 4972 138 5166 113 
L 5166 0 
L 3656 0 
L 3656 113 
Q 3834 128 3919 250 
Q 3975 334 3975 638 
L 3975 1894 
Q 3975 2284 3944 2390 
Q 3913 2497 3845 2548 
Q 3778 2600 3688 2600 
Q 3553 2600 3415 2501 
Q 3278 2403 3138 2206 
L 3138 638 
Q 3138 322 3191 241 
Q 3263 125 3466 113 
L 3466 0 
L 1953 0 
L 1953 113 
Q 2075 119 2145 173 
Q 2216 228 2239 304 
Q 2263 381 2263 638 
L 2263 1894 
Q 2263 2291 2231 2391 
Q 2200 2491 2126 2547 
Q 2053 2603 1969 2603 
Q 1844 2603 1741 2538 
Q 1594 2441 1428 2206 
L 1428 638 
Q 1428 328 1489 229 
Q 1550 131 1744 113 
L 1744 0 
L 238 0 
L 238 113 
Q 422 131 500 231 
Q 553 300 553 638 
L 553 2288 
Q 553 2619 492 2700 
Q 431 2781 238 2806 
L 238 2922 
L 1428 2922 
z
" transform="scale(0.015625)"/>
      <path id="TimesNewRomanPS-BoldMT-62" d="M 1347 4238 
L 1347 2628 
Q 1716 3009 2153 3009 
Q 2453 3009 2718 2832 
Q 2984 2656 3134 2331 
Q 3284 2006 3284 1581 
Q 3284 1103 3093 712 
Q 2903 322 2584 117 
Q 2266 -88 1856 -88 
Q 1619 -88 1434 -12 
Q 1250 63 1072 231 
L 588 -84 
L 481 -84 
L 481 3631 
Q 481 3884 459 3944 
Q 428 4031 361 4073 
Q 294 4116 134 4122 
L 134 4238 
L 1347 4238 
z
M 1347 2350 
L 1347 1050 
Q 1347 653 1366 544 
Q 1397 359 1515 245 
Q 1634 131 1819 131 
Q 1978 131 2092 222 
Q 2206 313 2282 581 
Q 2359 850 2359 1550 
Q 2359 2222 2191 2472 
Q 2069 2653 1863 2653 
Q 1594 2653 1347 2350 
z
" transform="scale(0.015625)"/>
      <path id="TimesNewRomanPS-BoldMT-65" d="M 2691 1566 
L 1088 1566 
Q 1116 984 1397 647 
Q 1613 388 1916 388 
Q 2103 388 2256 492 
Q 2409 597 2584 869 
L 2691 800 
Q 2453 316 2165 114 
Q 1878 -88 1500 -88 
Q 850 -88 516 413 
Q 247 816 247 1413 
Q 247 2144 642 2576 
Q 1038 3009 1569 3009 
Q 2013 3009 2339 2645 
Q 2666 2281 2691 1566 
z
M 1922 1775 
Q 1922 2278 1867 2465 
Q 1813 2653 1697 2750 
Q 1631 2806 1522 2806 
Q 1359 2806 1256 2647 
Q 1072 2369 1072 1884 
L 1072 1775 
L 1922 1775 
z
" transform="scale(0.015625)"/>
      <path id="TimesNewRomanPS-BoldMT-72" d="M 1428 2922 
L 1428 2259 
Q 1719 2713 1937 2861 
Q 2156 3009 2359 3009 
Q 2534 3009 2639 2901 
Q 2744 2794 2744 2597 
Q 2744 2388 2642 2272 
Q 2541 2156 2397 2156 
Q 2231 2156 2109 2262 
Q 1988 2369 1966 2381 
Q 1934 2400 1894 2400 
Q 1803 2400 1722 2331 
Q 1594 2225 1528 2028 
Q 1428 1725 1428 1359 
L 1428 688 
L 1431 513 
Q 1431 334 1453 284 
Q 1491 200 1564 161 
Q 1638 122 1813 113 
L 1813 0 
L 234 0 
L 234 113 
Q 425 128 492 217 
Q 559 306 559 688 
L 559 2303 
Q 559 2553 534 2622 
Q 503 2709 443 2750 
Q 384 2791 234 2806 
L 234 2922 
L 1428 2922 
z
" transform="scale(0.015625)"/>
      <path id="TimesNewRomanPS-BoldMT-20" transform="scale(0.015625)"/>
      <path id="TimesNewRomanPS-BoldMT-6f" d="M 1594 3009 
Q 1975 3009 2303 2812 
Q 2631 2616 2801 2253 
Q 2972 1891 2972 1459 
Q 2972 838 2656 419 
Q 2275 -88 1603 -88 
Q 944 -88 587 375 
Q 231 838 231 1447 
Q 231 2075 595 2542 
Q 959 3009 1594 3009 
z
M 1606 2788 
Q 1447 2788 1333 2667 
Q 1219 2547 1183 2192 
Q 1147 1838 1147 1206 
Q 1147 872 1191 581 
Q 1225 359 1337 243 
Q 1450 128 1594 128 
Q 1734 128 1828 206 
Q 1950 313 1991 503 
Q 2053 800 2053 1703 
Q 2053 2234 1993 2432 
Q 1934 2631 1819 2722 
Q 1738 2788 1606 2788 
z
" transform="scale(0.015625)"/>
      <path id="TimesNewRomanPS-BoldMT-66" d="M 1497 2616 
L 1497 588 
Q 1497 294 1559 219 
Q 1659 103 1928 113 
L 1928 0 
L 206 0 
L 206 113 
Q 403 116 486 158 
Q 569 200 600 275 
Q 631 350 631 588 
L 631 2616 
L 206 2616 
L 206 2922 
L 631 2922 
L 631 3138 
L 628 3284 
Q 628 3734 958 4034 
Q 1288 4334 1850 4334 
Q 2234 4334 2420 4190 
Q 2606 4047 2606 3872 
Q 2606 3731 2490 3628 
Q 2375 3525 2184 3525 
Q 2022 3525 1926 3609 
Q 1831 3694 1831 3797 
Q 1831 3825 1850 3913 
Q 1863 3966 1863 4013 
Q 1863 4078 1825 4109 
Q 1775 4156 1703 4156 
Q 1613 4156 1552 4081 
Q 1491 4006 1491 3841 
L 1497 3294 
L 1497 2922 
L 1928 2922 
L 1928 2616 
L 1497 2616 
z
" transform="scale(0.015625)"/>
      <path id="TimesNewRomanPS-BoldMT-70" d="M 1347 297 
L 1347 -791 
Q 1347 -1016 1383 -1097 
Q 1419 -1178 1494 -1215 
Q 1569 -1253 1788 -1253 
L 1788 -1369 
L 122 -1369 
L 122 -1253 
Q 316 -1247 409 -1144 
Q 472 -1072 472 -772 
L 472 2313 
Q 472 2622 400 2708 
Q 328 2794 122 2806 
L 122 2922 
L 1347 2922 
L 1347 2538 
Q 1500 2763 1659 2863 
Q 1888 3009 2156 3009 
Q 2478 3009 2742 2806 
Q 3006 2603 3143 2245 
Q 3281 1888 3281 1475 
Q 3281 1031 3139 664 
Q 2997 297 2726 104 
Q 2456 -88 2125 -88 
Q 1884 -88 1675 19 
Q 1519 100 1347 297 
z
M 1347 613 
Q 1616 231 1922 231 
Q 2091 231 2200 409 
Q 2363 672 2363 1409 
Q 2363 2166 2184 2444 
Q 2066 2628 1866 2628 
Q 1550 2628 1347 2172 
L 1347 613 
z
" transform="scale(0.015625)"/>
      <path id="TimesNewRomanPS-BoldMT-6c" d="M 1359 4238 
L 1359 606 
Q 1359 297 1431 211 
Q 1503 125 1713 113 
L 1713 0 
L 134 0 
L 134 113 
Q 328 119 422 225 
Q 484 297 484 606 
L 484 3631 
Q 484 3938 412 4023 
Q 341 4109 134 4122 
L 134 4238 
L 1359 4238 
z
" transform="scale(0.015625)"/>
      <path id="TimesNewRomanPS-BoldMT-61" d="M 1828 431 
Q 1294 -41 869 -41 
Q 619 -41 453 123 
Q 288 288 288 534 
Q 288 869 575 1136 
Q 863 1403 1828 1847 
L 1828 2141 
Q 1828 2472 1792 2558 
Q 1756 2644 1656 2708 
Q 1556 2772 1431 2772 
Q 1228 2772 1097 2681 
Q 1016 2625 1016 2550 
Q 1016 2484 1103 2388 
Q 1222 2253 1222 2128 
Q 1222 1975 1108 1867 
Q 994 1759 809 1759 
Q 613 1759 480 1878 
Q 347 1997 347 2156 
Q 347 2381 525 2586 
Q 703 2791 1022 2900 
Q 1341 3009 1684 3009 
Q 2100 3009 2342 2832 
Q 2584 2656 2656 2450 
Q 2700 2319 2700 1847 
L 2700 713 
Q 2700 513 2715 461 
Q 2731 409 2762 384 
Q 2794 359 2834 359 
Q 2916 359 3000 475 
L 3094 400 
Q 2938 169 2770 64 
Q 2603 -41 2391 -41 
Q 2141 -41 2000 76 
Q 1859 194 1828 431 
z
M 1828 659 
L 1828 1638 
Q 1450 1416 1266 1163 
Q 1144 994 1144 822 
Q 1144 678 1247 569 
Q 1325 484 1466 484 
Q 1622 484 1828 659 
z
" transform="scale(0.015625)"/>
      <path id="TimesNewRomanPS-BoldMT-74" d="M 1375 3991 
L 1375 2922 
L 2069 2922 
L 2069 2613 
L 1375 2613 
L 1375 809 
Q 1375 556 1398 482 
Q 1422 409 1481 364 
Q 1541 319 1591 319 
Q 1794 319 1975 628 
L 2069 559 
Q 1816 -41 1247 -41 
Q 969 -41 776 114 
Q 584 269 531 459 
Q 500 566 500 1034 
L 500 2613 
L 119 2613 
L 119 2722 
Q 513 3000 789 3306 
Q 1066 3613 1272 3991 
L 1375 3991 
z
" transform="scale(0.015625)"/>
      <path id="TimesNewRomanPS-BoldMT-69" d="M 919 4338 
Q 1122 4338 1262 4195 
Q 1403 4053 1403 3853 
Q 1403 3653 1261 3512 
Q 1119 3372 919 3372 
Q 719 3372 578 3512 
Q 438 3653 438 3853 
Q 438 4053 578 4195 
Q 719 4338 919 4338 
z
M 1356 2922 
L 1356 606 
Q 1356 297 1428 211 
Q 1500 125 1709 113 
L 1709 0 
L 131 0 
L 131 113 
Q 325 119 419 225 
Q 481 297 481 606 
L 481 2313 
Q 481 2622 409 2708 
Q 338 2794 131 2806 
L 131 2922 
L 1356 2922 
z
" transform="scale(0.015625)"/>
      <path id="TimesNewRomanPS-BoldMT-63" d="M 2600 753 
L 2697 678 
Q 2491 291 2183 101 
Q 1875 -88 1528 -88 
Q 944 -88 594 353 
Q 244 794 244 1413 
Q 244 2009 563 2463 
Q 947 3009 1622 3009 
Q 2075 3009 2342 2781 
Q 2609 2553 2609 2272 
Q 2609 2094 2501 1987 
Q 2394 1881 2219 1881 
Q 2034 1881 1914 2003 
Q 1794 2125 1766 2438 
Q 1747 2634 1675 2713 
Q 1603 2791 1506 2791 
Q 1356 2791 1250 2631 
Q 1088 2391 1088 1894 
Q 1088 1481 1219 1104 
Q 1350 728 1578 544 
Q 1750 409 1984 409 
Q 2138 409 2275 481 
Q 2413 553 2600 753 
z
" transform="scale(0.015625)"/>
      <path id="TimesNewRomanPS-BoldMT-6e" d="M 1409 2922 
L 1409 2544 
Q 1634 2788 1840 2898 
Q 2047 3009 2284 3009 
Q 2569 3009 2756 2851 
Q 2944 2694 3006 2459 
Q 3056 2281 3056 1775 
L 3056 638 
Q 3056 300 3117 217 
Q 3178 134 3372 113 
L 3372 0 
L 1894 0 
L 1894 113 
Q 2059 134 2131 250 
Q 2181 328 2181 638 
L 2181 1938 
Q 2181 2297 2153 2390 
Q 2125 2484 2058 2536 
Q 1991 2588 1909 2588 
Q 1641 2588 1409 2203 
L 1409 638 
Q 1409 309 1470 221 
Q 1531 134 1697 113 
L 1697 0 
L 219 0 
L 219 113 
Q 403 131 481 231 
Q 534 300 534 638 
L 534 2288 
Q 534 2619 473 2700 
Q 413 2781 219 2806 
L 219 2922 
L 1409 2922 
z
" transform="scale(0.015625)"/>
      <path id="TimesNewRomanPS-BoldMT-67" d="M 2091 2888 
L 3075 2888 
L 3075 2544 
L 2516 2544 
Q 2669 2391 2728 2266 
Q 2803 2097 2803 1913 
Q 2803 1600 2629 1370 
Q 2456 1141 2157 1011 
Q 1859 881 1628 881 
Q 1609 881 1253 897 
Q 1113 897 1017 805 
Q 922 713 922 584 
Q 922 472 1008 400 
Q 1094 328 1288 328 
L 1828 334 
Q 2484 334 2731 191 
Q 3084 -9 3084 -425 
Q 3084 -691 2921 -908 
Q 2759 -1125 2494 -1228 
Q 2091 -1381 1566 -1381 
Q 1172 -1381 847 -1304 
Q 522 -1228 381 -1092 
Q 241 -956 241 -806 
Q 241 -663 348 -548 
Q 456 -434 750 -356 
Q 344 -156 344 200 
Q 344 416 509 619 
Q 675 822 1034 972 
Q 616 1125 428 1375 
Q 241 1625 241 1953 
Q 241 2381 591 2695 
Q 941 3009 1491 3009 
Q 1781 3009 2091 2888 
z
M 1550 2816 
Q 1369 2816 1244 2633 
Q 1119 2450 1119 1875 
Q 1119 1409 1242 1236 
Q 1366 1063 1534 1063 
Q 1722 1063 1847 1234 
Q 1972 1406 1972 1903 
Q 1972 2463 1831 2666 
Q 1731 2816 1550 2816 
z
M 1366 -431 
Q 1047 -431 944 -484 
Q 766 -581 766 -747 
Q 766 -906 950 -1036 
Q 1134 -1166 1644 -1166 
Q 2078 -1166 2326 -1050 
Q 2575 -934 2575 -725 
Q 2575 -647 2528 -594 
Q 2444 -500 2273 -465 
Q 2103 -431 1366 -431 
z
" transform="scale(0.015625)"/>
      <path id="TimesNewRomanPS-BoldMT-76" d="M 1534 -88 
L 550 2178 
Q 372 2588 272 2697 
Q 200 2778 59 2806 
L 59 2922 
L 1613 2922 
L 1613 2806 
Q 1466 2806 1413 2753 
Q 1338 2684 1338 2591 
Q 1338 2475 1475 2156 
L 1956 1059 
L 2341 2006 
Q 2506 2413 2506 2581 
Q 2506 2678 2436 2739 
Q 2366 2800 2188 2806 
L 2188 2922 
L 3144 2922 
L 3144 2806 
Q 3006 2788 2918 2703 
Q 2831 2619 2656 2206 
L 1681 -88 
L 1534 -88 
z
" transform="scale(0.015625)"/>
      <path id="TimesNewRomanPS-BoldMT-73" d="M 2063 3003 
L 2109 2006 
L 2003 2006 
Q 1813 2450 1608 2612 
Q 1403 2775 1200 2775 
Q 1072 2775 981 2689 
Q 891 2603 891 2491 
Q 891 2406 953 2328 
Q 1053 2200 1512 1889 
Q 1972 1578 2117 1361 
Q 2263 1144 2263 875 
Q 2263 631 2141 397 
Q 2019 163 1797 37 
Q 1575 -88 1306 -88 
Q 1097 -88 747 44 
Q 653 78 619 78 
Q 516 78 447 -78 
L 344 -78 
L 294 972 
L 400 972 
Q 541 559 786 353 
Q 1031 147 1250 147 
Q 1400 147 1495 239 
Q 1591 331 1591 463 
Q 1591 613 1497 722 
Q 1403 831 1078 1053 
Q 600 1384 459 1559 
Q 253 1816 253 2125 
Q 253 2463 486 2736 
Q 719 3009 1159 3009 
Q 1397 3009 1619 2894 
Q 1703 2847 1756 2847 
Q 1813 2847 1847 2870 
Q 1881 2894 1956 3003 
L 2063 3003 
z
" transform="scale(0.015625)"/>
      <path id="TimesNewRomanPS-BoldMT-28" d="M 2056 4334 
L 2056 4191 
Q 1731 3978 1578 3775 
Q 1366 3494 1247 3053 
Q 1097 2506 1097 1525 
Q 1097 600 1233 87 
Q 1369 -425 1603 -741 
Q 1766 -959 2056 -1125 
L 2056 -1281 
Q 1303 -1028 779 -248 
Q 256 531 256 1544 
Q 256 2544 778 3314 
Q 1300 4084 2056 4334 
z
" transform="scale(0.015625)"/>
      <path id="TimesNewRomanPS-BoldMT-29" d="M 78 -1281 
L 78 -1138 
Q 403 -922 556 -719 
Q 766 -438 888 0 
Q 1038 550 1038 1531 
Q 1038 2456 902 2967 
Q 766 3478 531 3794 
Q 369 4013 78 4178 
L 78 4334 
Q 831 4081 1354 3301 
Q 1878 2522 1878 1509 
Q 1878 513 1354 -257 
Q 831 -1028 78 -1281 
z
" transform="scale(0.015625)"/>
     </defs>
     <use xlink:href="#TimesNewRomanPS-BoldMT-4e"/>
     <use xlink:href="#TimesNewRomanPS-BoldMT-75" x="72.216797"/>
     <use xlink:href="#TimesNewRomanPS-BoldMT-6d" x="127.832031"/>
     <use xlink:href="#TimesNewRomanPS-BoldMT-62" x="211.132812"/>
     <use xlink:href="#TimesNewRomanPS-BoldMT-65" x="266.748047"/>
     <use xlink:href="#TimesNewRomanPS-BoldMT-72" x="311.132812"/>
     <use xlink:href="#TimesNewRomanPS-BoldMT-20" x="353.767578"/>
     <use xlink:href="#TimesNewRomanPS-BoldMT-6f" x="378.767578"/>
     <use xlink:href="#TimesNewRomanPS-BoldMT-66" x="428.767578"/>
     <use xlink:href="#TimesNewRomanPS-BoldMT-20" x="462.068359"/>
     <use xlink:href="#TimesNewRomanPS-BoldMT-70" x="487.068359"/>
     <use xlink:href="#TimesNewRomanPS-BoldMT-65" x="542.683594"/>
     <use xlink:href="#TimesNewRomanPS-BoldMT-6f" x="587.068359"/>
     <use xlink:href="#TimesNewRomanPS-BoldMT-70" x="637.068359"/>
     <use xlink:href="#TimesNewRomanPS-BoldMT-6c" x="692.683594"/>
     <use xlink:href="#TimesNewRomanPS-BoldMT-65" x="720.466797"/>
     <use xlink:href="#TimesNewRomanPS-BoldMT-20" x="764.851562"/>
     <use xlink:href="#TimesNewRomanPS-BoldMT-70" x="789.851562"/>
     <use xlink:href="#TimesNewRomanPS-BoldMT-61" x="845.466797"/>
     <use xlink:href="#TimesNewRomanPS-BoldMT-72" x="895.466797"/>
     <use xlink:href="#TimesNewRomanPS-BoldMT-74" x="939.851562"/>
     <use xlink:href="#TimesNewRomanPS-BoldMT-69" x="973.152344"/>
     <use xlink:href="#TimesNewRomanPS-BoldMT-63" x="1000.935547"/>
     <use xlink:href="#TimesNewRomanPS-BoldMT-69" x="1045.320312"/>
     <use xlink:href="#TimesNewRomanPS-BoldMT-70" x="1073.103516"/>
     <use xlink:href="#TimesNewRomanPS-BoldMT-61" x="1128.71875"/>
     <use xlink:href="#TimesNewRomanPS-BoldMT-74" x="1178.71875"/>
     <use xlink:href="#TimesNewRomanPS-BoldMT-69" x="1212.019531"/>
     <use xlink:href="#TimesNewRomanPS-BoldMT-6e" x="1239.802734"/>
     <use xlink:href="#TimesNewRomanPS-BoldMT-67" x="1295.417969"/>
     <use xlink:href="#TimesNewRomanPS-BoldMT-20" x="1345.417969"/>
     <use xlink:href="#TimesNewRomanPS-BoldMT-69" x="1370.417969"/>
     <use xlink:href="#TimesNewRomanPS-BoldMT-6e" x="1398.201172"/>
     <use xlink:href="#TimesNewRomanPS-BoldMT-20" x="1453.816406"/>
     <use xlink:href="#TimesNewRomanPS-BoldMT-63" x="1478.816406"/>
     <use xlink:href="#TimesNewRomanPS-BoldMT-75" x="1523.201172"/>
     <use xlink:href="#TimesNewRomanPS-BoldMT-6c" x="1578.816406"/>
     <use xlink:href="#TimesNewRomanPS-BoldMT-74" x="1606.599609"/>
     <use xlink:href="#TimesNewRomanPS-BoldMT-75" x="1639.900391"/>
     <use xlink:href="#TimesNewRomanPS-BoldMT-72" x="1695.515625"/>
     <use xlink:href="#TimesNewRomanPS-BoldMT-61" x="1739.900391"/>
     <use xlink:href="#TimesNewRomanPS-BoldMT-6c" x="1789.900391"/>
     <use xlink:href="#TimesNewRomanPS-BoldMT-20" x="1817.683594"/>
     <use xlink:href="#TimesNewRomanPS-BoldMT-61" x="1842.683594"/>
     <use xlink:href="#TimesNewRomanPS-BoldMT-63" x="1892.683594"/>
     <use xlink:href="#TimesNewRomanPS-BoldMT-74" x="1937.068359"/>
     <use xlink:href="#TimesNewRomanPS-BoldMT-69" x="1970.369141"/>
     <use xlink:href="#TimesNewRomanPS-BoldMT-76" x="1998.152344"/>
     <use xlink:href="#TimesNewRomanPS-BoldMT-69" x="2048.152344"/>
     <use xlink:href="#TimesNewRomanPS-BoldMT-74" x="2075.935547"/>
     <use xlink:href="#TimesNewRomanPS-BoldMT-69" x="2109.236328"/>
     <use xlink:href="#TimesNewRomanPS-BoldMT-65" x="2137.019531"/>
     <use xlink:href="#TimesNewRomanPS-BoldMT-73" x="2181.404297"/>
     <use xlink:href="#TimesNewRomanPS-BoldMT-20" x="2220.320312"/>
     <use xlink:href="#TimesNewRomanPS-BoldMT-61" x="2245.320312"/>
     <use xlink:href="#TimesNewRomanPS-BoldMT-63" x="2295.320312"/>
     <use xlink:href="#TimesNewRomanPS-BoldMT-72" x="2339.705078"/>
     <use xlink:href="#TimesNewRomanPS-BoldMT-6f" x="2382.339844"/>
     <use xlink:href="#TimesNewRomanPS-BoldMT-73" x="2432.339844"/>
     <use xlink:href="#TimesNewRomanPS-BoldMT-73" x="2471.255859"/>
     <use xlink:href="#TimesNewRomanPS-BoldMT-20" x="2510.171875"/>
     <use xlink:href="#TimesNewRomanPS-BoldMT-72" x="2535.171875"/>
     <use xlink:href="#TimesNewRomanPS-BoldMT-65" x="2577.806641"/>
     <use xlink:href="#TimesNewRomanPS-BoldMT-67" x="2622.191406"/>
     <use xlink:href="#TimesNewRomanPS-BoldMT-69" x="2672.191406"/>
     <use xlink:href="#TimesNewRomanPS-BoldMT-6f" x="2699.974609"/>
     <use xlink:href="#TimesNewRomanPS-BoldMT-6e" x="2749.974609"/>
     <use xlink:href="#TimesNewRomanPS-BoldMT-73" x="2805.589844"/>
     <use xlink:href="#TimesNewRomanPS-BoldMT-20" x="2844.505859"/>
     <use xlink:href="#TimesNewRomanPS-BoldMT-28" x="2869.505859"/>
     <use xlink:href="#TimesNewRomanPS-BoldMT-6e" x="2902.806641"/>
     <use xlink:href="#TimesNewRomanPS-BoldMT-75" x="2958.421875"/>
     <use xlink:href="#TimesNewRomanPS-BoldMT-6d" x="3014.037109"/>
     <use xlink:href="#TimesNewRomanPS-BoldMT-62" x="3097.337891"/>
     <use xlink:href="#TimesNewRomanPS-BoldMT-65" x="3152.953125"/>
     <use xlink:href="#TimesNewRomanPS-BoldMT-72" x="3197.337891"/>
     <use xlink:href="#TimesNewRomanPS-BoldMT-29" x="3241.722656"/>
    </g>
   </g>
  </g>
 </g>
 <defs>
  <clipPath id="pd96b2b3154">
   <rect x="80.8" y="30.045" width="376.8" height="228.855181"/>
  </clipPath>
 </defs>
</svg>
