<?xml version="1.0" encoding="utf-8" standalone="no"?>
<!DOCTYPE svg PUBLIC "-//W3C//DTD SVG 1.1//EN"
  "http://www.w3.org/Graphics/SVG/1.1/DTD/svg11.dtd">
<svg xmlns:xlink="http://www.w3.org/1999/xlink" width="436.805937pt" height="320.007877pt" viewBox="0 0 436.805937 320.007877" xmlns="http://www.w3.org/2000/svg" version="1.1">
 <metadata>
  <rdf:RDF xmlns:dc="http://purl.org/dc/elements/1.1/" xmlns:cc="http://creativecommons.org/ns#" xmlns:rdf="http://www.w3.org/1999/02/22-rdf-syntax-ns#">
   <cc:Work>
    <dc:type rdf:resource="http://purl.org/dc/dcmitype/StillImage"/>
    <dc:date>2025-05-26T17:46:56.245835</dc:date>
    <dc:format>image/svg+xml</dc:format>
    <dc:creator>
     <cc:Agent>
      <dc:title>Matplotlib v3.7.2, https://matplotlib.org/</dc:title>
     </cc:Agent>
    </dc:creator>
   </cc:Work>
  </rdf:RDF>
 </metadata>
 <defs>
  <style type="text/css">*{stroke-linejoin: round; stroke-linecap: butt}</style>
 </defs>
 <g id="figure_1">
  <g id="patch_1">
   <path d="M 0 320.007877 
L 436.805937 320.007877 
L 436.805937 0 
L 0 0 
z
" style="fill: #ffffff"/>
  </g>
  <g id="axes_1">
   <g id="patch_2">
    <path d="M 50.915938 262.27308 
L 427.715937 262.27308 
L 427.715937 30.045 
L 50.915938 30.045 
z
" style="fill: #ffffff"/>
   </g>
   <g id="PolyCollection_1">
    <defs>
     <path id="mc5bb2b962d" d="M 84.938603 -168.922418 
L 79.693272 -168.922418 
L 79.373684 -169.613864 
L 79.040129 -170.305311 
L 78.695719 -170.996758 
L 78.343863 -171.688205 
L 77.988116 -172.379652 
L 77.631997 -173.071099 
L 77.278787 -173.762546 
L 76.931334 -174.453993 
L 76.591863 -175.145439 
L 76.261834 -175.836886 
L 75.941834 -176.528333 
L 75.631547 -177.21978 
L 75.329788 -177.911227 
L 75.034618 -178.602674 
L 74.743517 -179.294121 
L 74.453626 -179.985568 
L 74.162014 -180.677014 
L 73.865964 -181.368461 
L 73.563248 -182.059908 
L 73.252366 -182.751355 
L 72.932725 -183.442802 
L 72.604749 -184.134249 
L 72.269907 -184.825696 
L 71.930655 -185.517143 
L 71.590305 -186.208589 
L 71.252814 -186.900036 
L 70.922535 -187.591483 
L 70.603914 -188.28293 
L 70.301184 -188.974377 
L 70.018051 -189.665824 
L 69.757396 -190.357271 
L 69.521025 -191.048718 
L 69.309451 -191.740164 
L 69.121754 -192.431611 
L 68.955506 -193.123058 
L 68.806785 -193.814505 
L 68.67027 -194.505952 
L 68.539439 -195.197399 
L 68.40684 -195.888846 
L 68.264453 -196.580293 
L 68.104108 -197.271739 
L 67.917957 -197.963186 
L 67.698953 -198.654633 
L 67.441341 -199.34608 
L 67.141092 -200.037527 
L 66.796286 -200.728974 
L 66.407392 -201.420421 
L 65.977442 -202.111868 
L 65.512067 -202.803314 
L 65.019397 -203.494761 
L 64.509827 -204.186208 
L 63.995643 -204.877655 
L 63.49055 -205.569102 
L 63.009099 -206.260549 
L 62.566071 -206.951996 
L 62.175831 -207.643443 
L 61.851712 -208.33489 
L 61.605443 -209.026336 
L 61.446671 -209.717783 
L 61.382604 -210.40923 
L 61.417778 -211.100677 
L 61.553976 -211.792124 
L 61.790282 -212.483571 
L 62.123267 -213.175018 
L 62.547274 -213.866465 
L 63.054781 -214.557911 
L 63.636813 -215.249358 
L 64.283359 -215.940805 
L 64.98378 -216.632252 
L 65.727168 -217.323699 
L 66.502666 -218.015146 
L 67.299715 -218.706593 
L 68.10825 -219.39804 
L 68.91884 -220.089486 
L 69.722786 -220.780933 
L 70.512202 -221.47238 
L 71.280065 -222.163827 
L 72.020266 -222.855274 
L 72.727663 -223.546721 
L 73.398126 -224.238168 
L 74.028577 -224.929615 
L 74.617027 -225.621061 
L 75.162582 -226.312508 
L 75.665429 -227.003955 
L 76.126784 -227.695402 
L 76.548801 -228.386849 
L 76.934438 -229.078296 
L 77.287292 -229.769743 
L 77.611403 -230.46119 
L 77.911034 -231.152636 
L 78.19046 -231.844083 
L 78.453748 -232.53553 
L 78.704573 -233.226977 
L 78.946063 -233.918424 
L 79.180685 -234.609871 
L 79.410182 -235.301318 
L 79.635564 -235.992765 
L 79.857138 -236.684211 
L 80.074589 -237.375658 
L 84.557286 -237.375658 
L 84.557286 -237.375658 
L 84.774737 -236.684211 
L 84.996311 -235.992765 
L 85.221693 -235.301318 
L 85.45119 -234.609871 
L 85.685812 -233.918424 
L 85.927302 -233.226977 
L 86.178127 -232.53553 
L 86.441415 -231.844083 
L 86.720841 -231.152636 
L 87.020472 -230.46119 
L 87.344583 -229.769743 
L 87.697437 -229.078296 
L 88.083074 -228.386849 
L 88.505091 -227.695402 
L 88.966446 -227.003955 
L 89.469293 -226.312508 
L 90.014848 -225.621061 
L 90.603298 -224.929615 
L 91.233749 -224.238168 
L 91.904212 -223.546721 
L 92.611609 -222.855274 
L 93.35181 -222.163827 
L 94.119673 -221.47238 
L 94.909089 -220.780933 
L 95.713035 -220.089486 
L 96.523625 -219.39804 
L 97.33216 -218.706593 
L 98.129209 -218.015146 
L 98.904707 -217.323699 
L 99.648095 -216.632252 
L 100.348516 -215.940805 
L 100.995062 -215.249358 
L 101.577094 -214.557911 
L 102.084601 -213.866465 
L 102.508608 -213.175018 
L 102.841593 -212.483571 
L 103.077899 -211.792124 
L 103.214097 -211.100677 
L 103.249271 -210.40923 
L 103.185204 -209.717783 
L 103.026432 -209.026336 
L 102.780163 -208.33489 
L 102.456044 -207.643443 
L 102.065804 -206.951996 
L 101.622776 -206.260549 
L 101.141325 -205.569102 
L 100.636232 -204.877655 
L 100.122048 -204.186208 
L 99.612478 -203.494761 
L 99.119808 -202.803314 
L 98.654433 -202.111868 
L 98.224483 -201.420421 
L 97.835589 -200.728974 
L 97.490783 -200.037527 
L 97.190534 -199.34608 
L 96.932922 -198.654633 
L 96.713918 -197.963186 
L 96.527767 -197.271739 
L 96.367422 -196.580293 
L 96.225035 -195.888846 
L 96.092436 -195.197399 
L 95.961605 -194.505952 
L 95.82509 -193.814505 
L 95.676369 -193.123058 
L 95.510121 -192.431611 
L 95.322424 -191.740164 
L 95.11085 -191.048718 
L 94.874479 -190.357271 
L 94.613824 -189.665824 
L 94.330691 -188.974377 
L 94.027961 -188.28293 
L 93.70934 -187.591483 
L 93.379061 -186.900036 
L 93.04157 -186.208589 
L 92.70122 -185.517143 
L 92.361968 -184.825696 
L 92.027126 -184.134249 
L 91.69915 -183.442802 
L 91.379509 -182.751355 
L 91.068627 -182.059908 
L 90.765911 -181.368461 
L 90.469861 -180.677014 
L 90.178249 -179.985568 
L 89.888358 -179.294121 
L 89.597257 -178.602674 
L 89.302087 -177.911227 
L 89.000328 -177.21978 
L 88.690041 -176.528333 
L 88.370041 -175.836886 
L 88.040012 -175.145439 
L 87.700541 -174.453993 
L 87.353088 -173.762546 
L 86.999878 -173.071099 
L 86.643759 -172.379652 
L 86.288012 -171.688205 
L 85.936156 -170.996758 
L 85.591746 -170.305311 
L 85.258191 -169.613864 
L 84.938603 -168.922418 
z
" style="stroke: #000000; stroke-opacity: 0.7"/>
    </defs>
    <g clip-path="url(#p8a9e200d3b)">
     <use xlink:href="#mc5bb2b962d" x="0" y="320.007877" style="fill: #e377c2; fill-opacity: 0.7; stroke: #000000; stroke-opacity: 0.7"/>
    </g>
   </g>
   <g id="PolyCollection_2">
    <defs>
     <path id="m67b3eada3c" d="M 146.037042 -215.160644 
L 144.194833 -215.160644 
L 144.116068 -215.547184 
L 144.033749 -215.933723 
L 143.946452 -216.320262 
L 143.852385 -216.706802 
L 143.749448 -217.093341 
L 143.635327 -217.47988 
L 143.507607 -217.866419 
L 143.363894 -218.252959 
L 143.201943 -218.639498 
L 143.019763 -219.026037 
L 142.815708 -219.412577 
L 142.588532 -219.799116 
L 142.33741 -220.185655 
L 142.061916 -220.572195 
L 141.761977 -220.958734 
L 141.437797 -221.345273 
L 141.089769 -221.731812 
L 140.718403 -222.118352 
L 140.324251 -222.504891 
L 139.907885 -222.89143 
L 139.469893 -223.27797 
L 139.01093 -223.664509 
L 138.531797 -224.051048 
L 138.033553 -224.437588 
L 137.517634 -224.824127 
L 136.985971 -225.210666 
L 136.441081 -225.597206 
L 135.886109 -225.983745 
L 135.324811 -226.370284 
L 134.761464 -226.756823 
L 134.200694 -227.143363 
L 133.647237 -227.529902 
L 133.105634 -227.916441 
L 132.579903 -228.302981 
L 132.073194 -228.68952 
L 131.587493 -229.076059 
L 131.123394 -229.462599 
L 130.679984 -229.849138 
L 130.254871 -230.235677 
L 129.844369 -230.622216 
L 129.443843 -231.008756 
L 129.048187 -231.395295 
L 128.652413 -231.781834 
L 128.25229 -232.168374 
L 127.844964 -232.554913 
L 127.429515 -232.941452 
L 127.007365 -233.327992 
L 126.582495 -233.714531 
L 126.161444 -234.10107 
L 125.753057 -234.48761 
L 125.36801 -234.874149 
L 125.018128 -235.260688 
L 124.715559 -235.647227 
L 124.471871 -236.033767 
L 124.29714 -236.420306 
L 124.199127 -236.806845 
L 124.182604 -237.193385 
L 124.248914 -237.579924 
L 124.395794 -237.966463 
L 124.6175 -238.353003 
L 124.905223 -238.739542 
L 125.247767 -239.126081 
L 125.632425 -239.51262 
L 126.04598 -239.89916 
L 126.475726 -240.285699 
L 126.910418 -240.672238 
L 127.341056 -241.058778 
L 127.761419 -241.445317 
L 128.168318 -241.831856 
L 128.561532 -242.218396 
L 128.943462 -242.604935 
L 129.318536 -242.991474 
L 129.692449 -243.378014 
L 130.071329 -243.764553 
L 130.460912 -244.151092 
L 130.865826 -244.537631 
L 131.289052 -244.924171 
L 131.731605 -245.31071 
L 132.192467 -245.697249 
L 132.668747 -246.083789 
L 133.156057 -246.470328 
L 133.649027 -246.856867 
L 134.141908 -247.243407 
L 134.629187 -247.629946 
L 135.106144 -248.016485 
L 135.569295 -248.403024 
L 136.016677 -248.789564 
L 136.447957 -249.176103 
L 136.864351 -249.562642 
L 137.268384 -249.949182 
L 137.663517 -250.335721 
L 138.053682 -250.72226 
L 138.442787 -251.1088 
L 138.834245 -251.495339 
L 139.230563 -251.881878 
L 139.633038 -252.268418 
L 140.041598 -252.654957 
L 140.454768 -253.041496 
L 140.869786 -253.428035 
L 149.362089 -253.428035 
L 149.362089 -253.428035 
L 149.777107 -253.041496 
L 150.190277 -252.654957 
L 150.598837 -252.268418 
L 151.001312 -251.881878 
L 151.39763 -251.495339 
L 151.789088 -251.1088 
L 152.178193 -250.72226 
L 152.568358 -250.335721 
L 152.963491 -249.949182 
L 153.367524 -249.562642 
L 153.783918 -249.176103 
L 154.215198 -248.789564 
L 154.66258 -248.403024 
L 155.125731 -248.016485 
L 155.602688 -247.629946 
L 156.089967 -247.243407 
L 156.582848 -246.856867 
L 157.075818 -246.470328 
L 157.563128 -246.083789 
L 158.039408 -245.697249 
L 158.50027 -245.31071 
L 158.942823 -244.924171 
L 159.366049 -244.537631 
L 159.770963 -244.151092 
L 160.160546 -243.764553 
L 160.539426 -243.378014 
L 160.913339 -242.991474 
L 161.288413 -242.604935 
L 161.670343 -242.218396 
L 162.063557 -241.831856 
L 162.470456 -241.445317 
L 162.890819 -241.058778 
L 163.321457 -240.672238 
L 163.756149 -240.285699 
L 164.185895 -239.89916 
L 164.59945 -239.51262 
L 164.984108 -239.126081 
L 165.326652 -238.739542 
L 165.614375 -238.353003 
L 165.836081 -237.966463 
L 165.982961 -237.579924 
L 166.049271 -237.193385 
L 166.032748 -236.806845 
L 165.934735 -236.420306 
L 165.760004 -236.033767 
L 165.516316 -235.647227 
L 165.213747 -235.260688 
L 164.863865 -234.874149 
L 164.478818 -234.48761 
L 164.070431 -234.10107 
L 163.64938 -233.714531 
L 163.22451 -233.327992 
L 162.80236 -232.941452 
L 162.386911 -232.554913 
L 161.979585 -232.168374 
L 161.579462 -231.781834 
L 161.183688 -231.395295 
L 160.788032 -231.008756 
L 160.387506 -230.622216 
L 159.977004 -230.235677 
L 159.551891 -229.849138 
L 159.108481 -229.462599 
L 158.644382 -229.076059 
L 158.158681 -228.68952 
L 157.651972 -228.302981 
L 157.126241 -227.916441 
L 156.584638 -227.529902 
L 156.031181 -227.143363 
L 155.470411 -226.756823 
L 154.907064 -226.370284 
L 154.345766 -225.983745 
L 153.790794 -225.597206 
L 153.245904 -225.210666 
L 152.714241 -224.824127 
L 152.198322 -224.437588 
L 151.700078 -224.051048 
L 151.220945 -223.664509 
L 150.761982 -223.27797 
L 150.32399 -222.89143 
L 149.907624 -222.504891 
L 149.513472 -222.118352 
L 149.142106 -221.731812 
L 148.794078 -221.345273 
L 148.469898 -220.958734 
L 148.169959 -220.572195 
L 147.894465 -220.185655 
L 147.643343 -219.799116 
L 147.416167 -219.412577 
L 147.212112 -219.026037 
L 147.029932 -218.639498 
L 146.867981 -218.252959 
L 146.724268 -217.866419 
L 146.596548 -217.47988 
L 146.482427 -217.093341 
L 146.37949 -216.706802 
L 146.285423 -216.320262 
L 146.198126 -215.933723 
L 146.115807 -215.547184 
L 146.037042 -215.160644 
z
" style="stroke: #000000; stroke-opacity: 0.7"/>
    </defs>
    <g clip-path="url(#p8a9e200d3b)">
     <use xlink:href="#m67b3eada3c" x="0" y="320.007877" style="fill: #7f7f7f; fill-opacity: 0.7; stroke: #000000; stroke-opacity: 0.7"/>
    </g>
   </g>
   <g id="PolyCollection_3">
    <defs>
     <path id="m68402bb2ea" d="M 210.486447 -68.290619 
L 205.345428 -68.290619 
L 205.096609 -68.958955 
L 204.846228 -69.627292 
L 204.597398 -70.295628 
L 204.353219 -70.963965 
L 204.116629 -71.632301 
L 203.890239 -72.300638 
L 203.676178 -72.968974 
L 203.475938 -73.637311 
L 203.29026 -74.305647 
L 203.119038 -74.973984 
L 202.961284 -75.64232 
L 202.815135 -76.310657 
L 202.677924 -76.978993 
L 202.546301 -77.64733 
L 202.416401 -78.315666 
L 202.284049 -78.984003 
L 202.14499 -79.652339 
L 201.995116 -80.320676 
L 201.830686 -80.989012 
L 201.648511 -81.657349 
L 201.446094 -82.325686 
L 201.221717 -82.994022 
L 200.974469 -83.662359 
L 200.704214 -84.330695 
L 200.411507 -84.999032 
L 200.097475 -85.667368 
L 199.763663 -86.335705 
L 199.41188 -87.004041 
L 199.044042 -87.672378 
L 198.662041 -88.340714 
L 198.267631 -89.009051 
L 197.862363 -89.677387 
L 197.447542 -90.345724 
L 197.024226 -91.01406 
L 196.593244 -91.682397 
L 196.155241 -92.350733 
L 195.710727 -93.01907 
L 195.260139 -93.687406 
L 194.803888 -94.355743 
L 194.34242 -95.024079 
L 193.876267 -95.692416 
L 193.40609 -96.360752 
L 192.932739 -97.029089 
L 192.457305 -97.697426 
L 191.98119 -98.365762 
L 191.506169 -99.034099 
L 191.034464 -99.702435 
L 190.568798 -100.370772 
L 190.112443 -101.039108 
L 189.669224 -101.707445 
L 189.243494 -102.375781 
L 188.840049 -103.044118 
L 188.464001 -103.712454 
L 188.120588 -104.380791 
L 187.814943 -105.049127 
L 187.551833 -105.717464 
L 187.335389 -106.3858 
L 187.16883 -107.054137 
L 187.054241 -107.722473 
L 186.992385 -108.39081 
L 186.982604 -109.059146 
L 187.022794 -109.727483 
L 187.109479 -110.395819 
L 187.237971 -111.064156 
L 187.402618 -111.732492 
L 187.597108 -112.400829 
L 187.81483 -113.069166 
L 188.049243 -113.737502 
L 188.294253 -114.405839 
L 188.544548 -115.074175 
L 188.795887 -115.742512 
L 189.045321 -116.410848 
L 189.291317 -117.079185 
L 189.533803 -117.747521 
L 189.774115 -118.415858 
L 190.014854 -119.084194 
L 190.259672 -119.752531 
L 190.512994 -120.420867 
L 190.779703 -121.089204 
L 191.064806 -121.75754 
L 191.373102 -122.425877 
L 191.708887 -123.094213 
L 192.075691 -123.76255 
L 192.476084 -124.430886 
L 192.911552 -125.099223 
L 193.382437 -125.767559 
L 193.887956 -126.435896 
L 194.426278 -127.104232 
L 194.99464 -127.772569 
L 195.589513 -128.440905 
L 196.206767 -129.109242 
L 196.841853 -129.777579 
L 197.489957 -130.445915 
L 198.146152 -131.114252 
L 198.805507 -131.782588 
L 199.463182 -132.450925 
L 200.114493 -133.119261 
L 200.754962 -133.787598 
L 201.380353 -134.455934 
L 214.451522 -134.455934 
L 214.451522 -134.455934 
L 215.076913 -133.787598 
L 215.717382 -133.119261 
L 216.368693 -132.450925 
L 217.026368 -131.782588 
L 217.685723 -131.114252 
L 218.341918 -130.445915 
L 218.990022 -129.777579 
L 219.625108 -129.109242 
L 220.242362 -128.440905 
L 220.837235 -127.772569 
L 221.405597 -127.104232 
L 221.943919 -126.435896 
L 222.449438 -125.767559 
L 222.920323 -125.099223 
L 223.355791 -124.430886 
L 223.756184 -123.76255 
L 224.122988 -123.094213 
L 224.458773 -122.425877 
L 224.767069 -121.75754 
L 225.052172 -121.089204 
L 225.318881 -120.420867 
L 225.572203 -119.752531 
L 225.817021 -119.084194 
L 226.05776 -118.415858 
L 226.298072 -117.747521 
L 226.540558 -117.079185 
L 226.786554 -116.410848 
L 227.035988 -115.742512 
L 227.287327 -115.074175 
L 227.537622 -114.405839 
L 227.782632 -113.737502 
L 228.017045 -113.069166 
L 228.234767 -112.400829 
L 228.429257 -111.732492 
L 228.593904 -111.064156 
L 228.722396 -110.395819 
L 228.809081 -109.727483 
L 228.849271 -109.059146 
L 228.83949 -108.39081 
L 228.777634 -107.722473 
L 228.663045 -107.054137 
L 228.496486 -106.3858 
L 228.280042 -105.717464 
L 228.016932 -105.049127 
L 227.711287 -104.380791 
L 227.367874 -103.712454 
L 226.991826 -103.044118 
L 226.588381 -102.375781 
L 226.162651 -101.707445 
L 225.719432 -101.039108 
L 225.263077 -100.370772 
L 224.797411 -99.702435 
L 224.325706 -99.034099 
L 223.850685 -98.365762 
L 223.37457 -97.697426 
L 222.899136 -97.029089 
L 222.425785 -96.360752 
L 221.955608 -95.692416 
L 221.489455 -95.024079 
L 221.027987 -94.355743 
L 220.571736 -93.687406 
L 220.121148 -93.01907 
L 219.676634 -92.350733 
L 219.238631 -91.682397 
L 218.807649 -91.01406 
L 218.384333 -90.345724 
L 217.969512 -89.677387 
L 217.564244 -89.009051 
L 217.169834 -88.340714 
L 216.787833 -87.672378 
L 216.419995 -87.004041 
L 216.068212 -86.335705 
L 215.7344 -85.667368 
L 215.420368 -84.999032 
L 215.127661 -84.330695 
L 214.857406 -83.662359 
L 214.610158 -82.994022 
L 214.385781 -82.325686 
L 214.183364 -81.657349 
L 214.001189 -80.989012 
L 213.836759 -80.320676 
L 213.686885 -79.652339 
L 213.547826 -78.984003 
L 213.415474 -78.315666 
L 213.285574 -77.64733 
L 213.153951 -76.978993 
L 213.01674 -76.310657 
L 212.870591 -75.64232 
L 212.712837 -74.973984 
L 212.541615 -74.305647 
L 212.355937 -73.637311 
L 212.155697 -72.968974 
L 211.941636 -72.300638 
L 211.715246 -71.632301 
L 211.478656 -70.963965 
L 211.234477 -70.295628 
L 210.985647 -69.627292 
L 210.735266 -68.958955 
L 210.486447 -68.290619 
z
" style="stroke: #000000; stroke-opacity: 0.7"/>
    </defs>
    <g clip-path="url(#p8a9e200d3b)">
     <use xlink:href="#m68402bb2ea" x="0" y="320.007877" style="fill: #fc8d62; fill-opacity: 0.7; stroke: #000000; stroke-opacity: 0.7"/>
    </g>
   </g>
   <g id="PolyCollection_4">
    <defs>
     <path id="m223880c7ad" d="M 272.265962 -201.322388 
L 269.165913 -201.322388 
L 269.010524 -202.111122 
L 268.852437 -202.899856 
L 268.692712 -203.68859 
L 268.532142 -204.477324 
L 268.371128 -205.266058 
L 268.209568 -206.054792 
L 268.046759 -206.843526 
L 267.881322 -207.63226 
L 267.711183 -208.420994 
L 267.53358 -209.209728 
L 267.345143 -209.998462 
L 267.142019 -210.787196 
L 266.920038 -211.57593 
L 266.674932 -212.364664 
L 266.402563 -213.153398 
L 266.09916 -213.942132 
L 265.76154 -214.730866 
L 265.3873 -215.5196 
L 264.974946 -216.308334 
L 264.523981 -217.097068 
L 264.034919 -217.885802 
L 263.50924 -218.674536 
L 262.949298 -219.46327 
L 262.358191 -220.252004 
L 261.739612 -221.040738 
L 261.097694 -221.829472 
L 260.436873 -222.618206 
L 259.761767 -223.40694 
L 259.077094 -224.195674 
L 258.387612 -224.984408 
L 257.698087 -225.773142 
L 257.013281 -226.561876 
L 256.337935 -227.35061 
L 255.676758 -228.139344 
L 255.034388 -228.928078 
L 254.415343 -229.716812 
L 253.823941 -230.505546 
L 253.264212 -231.29428 
L 252.739795 -232.083014 
L 252.253843 -232.871749 
L 251.808939 -233.660483 
L 251.407051 -234.449217 
L 251.049507 -235.237951 
L 250.737026 -236.026685 
L 250.469778 -236.815419 
L 250.247475 -237.604153 
L 250.069493 -238.392887 
L 249.934983 -239.181621 
L 249.842985 -239.970355 
L 249.792513 -240.759089 
L 249.782604 -241.547823 
L 249.812322 -242.336557 
L 249.880719 -243.125291 
L 249.98676 -243.914025 
L 250.129208 -244.702759 
L 250.306499 -245.491493 
L 250.516611 -246.280227 
L 250.756955 -247.068961 
L 251.024294 -247.857695 
L 251.314713 -248.646429 
L 251.623651 -249.435163 
L 251.945993 -250.223897 
L 252.276235 -251.012631 
L 252.608714 -251.801365 
L 252.937877 -252.590099 
L 253.258603 -253.378833 
L 253.566524 -254.167567 
L 253.858339 -254.956301 
L 254.132092 -255.745035 
L 254.387384 -256.533769 
L 254.625491 -257.322503 
L 254.84938 -258.111237 
L 255.063605 -258.899971 
L 255.274084 -259.688705 
L 255.487756 -260.477439 
L 255.71215 -261.266173 
L 255.95489 -262.054907 
L 256.223167 -262.843641 
L 256.523217 -263.632375 
L 256.859865 -264.421109 
L 257.236158 -265.209843 
L 257.653121 -265.998577 
L 258.109677 -266.787311 
L 258.602719 -267.576045 
L 259.12734 -268.364779 
L 259.677207 -269.153513 
L 260.245024 -269.942247 
L 260.823058 -270.730981 
L 261.403676 -271.519715 
L 261.979831 -272.308449 
L 262.545456 -273.097183 
L 263.095751 -273.885917 
L 263.627309 -274.674651 
L 264.138109 -275.463385 
L 264.627377 -276.252119 
L 265.095338 -277.040853 
L 265.542907 -277.829587 
L 265.97135 -278.618321 
L 266.381967 -279.407055 
L 275.049908 -279.407055 
L 275.049908 -279.407055 
L 275.460525 -278.618321 
L 275.888968 -277.829587 
L 276.336537 -277.040853 
L 276.804498 -276.252119 
L 277.293766 -275.463385 
L 277.804566 -274.674651 
L 278.336124 -273.885917 
L 278.886419 -273.097183 
L 279.452044 -272.308449 
L 280.028199 -271.519715 
L 280.608817 -270.730981 
L 281.186851 -269.942247 
L 281.754668 -269.153513 
L 282.304535 -268.364779 
L 282.829156 -267.576045 
L 283.322198 -266.787311 
L 283.778754 -265.998577 
L 284.195717 -265.209843 
L 284.57201 -264.421109 
L 284.908658 -263.632375 
L 285.208708 -262.843641 
L 285.476985 -262.054907 
L 285.719725 -261.266173 
L 285.944119 -260.477439 
L 286.157791 -259.688705 
L 286.36827 -258.899971 
L 286.582495 -258.111237 
L 286.806384 -257.322503 
L 287.044491 -256.533769 
L 287.299783 -255.745035 
L 287.573536 -254.956301 
L 287.865351 -254.167567 
L 288.173272 -253.378833 
L 288.493998 -252.590099 
L 288.823161 -251.801365 
L 289.15564 -251.012631 
L 289.485882 -250.223897 
L 289.808224 -249.435163 
L 290.117162 -248.646429 
L 290.407581 -247.857695 
L 290.67492 -247.068961 
L 290.915264 -246.280227 
L 291.125376 -245.491493 
L 291.302667 -244.702759 
L 291.445115 -243.914025 
L 291.551156 -243.125291 
L 291.619553 -242.336557 
L 291.649271 -241.547823 
L 291.639362 -240.759089 
L 291.58889 -239.970355 
L 291.496892 -239.181621 
L 291.362382 -238.392887 
L 291.1844 -237.604153 
L 290.962097 -236.815419 
L 290.694849 -236.026685 
L 290.382368 -235.237951 
L 290.024824 -234.449217 
L 289.622936 -233.660483 
L 289.178032 -232.871749 
L 288.69208 -232.083014 
L 288.167663 -231.29428 
L 287.607934 -230.505546 
L 287.016532 -229.716812 
L 286.397487 -228.928078 
L 285.755117 -228.139344 
L 285.09394 -227.35061 
L 284.418594 -226.561876 
L 283.733788 -225.773142 
L 283.044263 -224.984408 
L 282.354781 -224.195674 
L 281.670108 -223.40694 
L 280.995002 -222.618206 
L 280.334181 -221.829472 
L 279.692263 -221.040738 
L 279.073684 -220.252004 
L 278.482577 -219.46327 
L 277.922635 -218.674536 
L 277.396956 -217.885802 
L 276.907894 -217.097068 
L 276.456929 -216.308334 
L 276.044575 -215.5196 
L 275.670335 -214.730866 
L 275.332715 -213.942132 
L 275.029312 -213.153398 
L 274.756943 -212.364664 
L 274.511837 -211.57593 
L 274.289856 -210.787196 
L 274.086732 -209.998462 
L 273.898295 -209.209728 
L 273.720692 -208.420994 
L 273.550553 -207.63226 
L 273.385116 -206.843526 
L 273.222307 -206.054792 
L 273.060747 -205.266058 
L 272.899733 -204.477324 
L 272.739163 -203.68859 
L 272.579438 -202.899856 
L 272.421351 -202.111122 
L 272.265962 -201.322388 
z
" style="stroke: #000000; stroke-opacity: 0.7"/>
    </defs>
    <g clip-path="url(#p8a9e200d3b)">
     <use xlink:href="#m223880c7ad" x="0" y="320.007877" style="fill: #d62728; fill-opacity: 0.7; stroke: #000000; stroke-opacity: 0.7"/>
    </g>
   </g>
   <g id="PolyCollection_5">
    <defs>
     <path id="m8ea2275fff" d="M 335.808191 -78.660085 
L 331.223684 -78.660085 
L 331.016628 -79.046252 
L 330.800113 -79.432418 
L 330.57277 -79.818585 
L 330.332898 -80.204751 
L 330.078519 -80.590918 
L 329.807469 -80.977085 
L 329.517486 -81.363251 
L 329.206304 -81.749418 
L 328.871751 -82.135584 
L 328.511821 -82.521751 
L 328.124745 -82.907917 
L 327.70904 -83.294084 
L 327.263546 -83.68025 
L 326.787457 -84.066417 
L 326.280348 -84.452584 
L 325.7422 -84.83875 
L 325.173443 -85.224917 
L 324.575002 -85.611083 
L 323.948354 -85.99725 
L 323.295594 -86.383416 
L 322.619495 -86.769583 
L 321.923568 -87.155749 
L 321.212083 -87.541916 
L 320.490074 -87.928083 
L 319.763299 -88.314249 
L 319.038148 -88.700416 
L 318.321515 -89.086582 
L 317.620624 -89.472749 
L 316.942825 -89.858915 
L 316.29537 -90.245082 
L 315.685186 -90.631248 
L 315.118655 -91.017415 
L 314.601417 -91.403582 
L 314.138218 -91.789748 
L 313.732783 -92.175915 
L 313.387743 -92.562081 
L 313.104602 -92.948248 
L 312.883739 -93.334414 
L 312.724442 -93.720581 
L 312.624966 -94.106747 
L 312.582604 -94.492914 
L 312.593771 -94.879081 
L 312.654095 -95.265247 
L 312.75851 -95.651414 
L 312.901366 -96.03758 
L 313.076538 -96.423747 
L 313.277558 -96.809913 
L 313.497757 -97.19608 
L 313.730429 -97.582246 
L 313.969006 -97.968413 
L 314.207261 -98.35458 
L 314.439504 -98.740746 
L 314.66079 -99.126913 
L 314.867114 -99.513079 
L 315.055585 -99.899246 
L 315.224566 -100.285412 
L 315.373769 -100.671579 
L 315.504296 -101.057746 
L 315.61861 -101.443912 
L 315.720448 -101.830079 
L 315.814654 -102.216245 
L 315.906958 -102.602412 
L 316.003696 -102.988578 
L 316.111489 -103.374745 
L 316.236901 -103.760911 
L 316.386099 -104.147078 
L 316.564524 -104.533245 
L 316.776613 -104.919411 
L 317.025569 -105.305578 
L 317.313211 -105.691744 
L 317.639905 -106.077911 
L 318.004579 -106.464077 
L 318.404818 -106.850244 
L 318.837031 -107.23641 
L 319.296675 -107.622577 
L 319.778526 -108.008744 
L 320.276956 -108.39491 
L 320.786233 -108.781077 
L 321.300782 -109.167243 
L 321.815438 -109.55341 
L 322.325646 -109.939576 
L 322.827611 -110.325743 
L 323.3184 -110.711909 
L 323.795989 -111.098076 
L 324.259255 -111.484243 
L 324.70792 -111.870409 
L 325.142457 -112.256576 
L 325.56395 -112.642742 
L 325.973942 -113.028909 
L 326.374248 -113.415075 
L 326.766776 -113.801242 
L 327.153342 -114.187408 
L 327.535502 -114.573575 
L 327.91441 -114.959742 
L 328.290709 -115.345908 
L 328.66446 -115.732075 
L 329.035117 -116.118241 
L 329.401553 -116.504408 
L 329.762118 -116.890574 
L 337.269757 -116.890574 
L 337.269757 -116.890574 
L 337.630322 -116.504408 
L 337.996758 -116.118241 
L 338.367415 -115.732075 
L 338.741166 -115.345908 
L 339.117465 -114.959742 
L 339.496373 -114.573575 
L 339.878533 -114.187408 
L 340.265099 -113.801242 
L 340.657627 -113.415075 
L 341.057933 -113.028909 
L 341.467925 -112.642742 
L 341.889418 -112.256576 
L 342.323955 -111.870409 
L 342.77262 -111.484243 
L 343.235886 -111.098076 
L 343.713475 -110.711909 
L 344.204264 -110.325743 
L 344.706229 -109.939576 
L 345.216437 -109.55341 
L 345.731093 -109.167243 
L 346.245642 -108.781077 
L 346.754919 -108.39491 
L 347.253349 -108.008744 
L 347.7352 -107.622577 
L 348.194844 -107.23641 
L 348.627057 -106.850244 
L 349.027296 -106.464077 
L 349.39197 -106.077911 
L 349.718664 -105.691744 
L 350.006306 -105.305578 
L 350.255262 -104.919411 
L 350.467351 -104.533245 
L 350.645776 -104.147078 
L 350.794974 -103.760911 
L 350.920386 -103.374745 
L 351.028179 -102.988578 
L 351.124917 -102.602412 
L 351.217221 -102.216245 
L 351.311427 -101.830079 
L 351.413265 -101.443912 
L 351.527579 -101.057746 
L 351.658106 -100.671579 
L 351.807309 -100.285412 
L 351.97629 -99.899246 
L 352.164761 -99.513079 
L 352.371085 -99.126913 
L 352.592371 -98.740746 
L 352.824614 -98.35458 
L 353.062869 -97.968413 
L 353.301446 -97.582246 
L 353.534118 -97.19608 
L 353.754317 -96.809913 
L 353.955337 -96.423747 
L 354.130509 -96.03758 
L 354.273365 -95.651414 
L 354.37778 -95.265247 
L 354.438104 -94.879081 
L 354.449271 -94.492914 
L 354.406909 -94.106747 
L 354.307433 -93.720581 
L 354.148136 -93.334414 
L 353.927273 -92.948248 
L 353.644132 -92.562081 
L 353.299092 -92.175915 
L 352.893657 -91.789748 
L 352.430458 -91.403582 
L 351.91322 -91.017415 
L 351.346689 -90.631248 
L 350.736505 -90.245082 
L 350.08905 -89.858915 
L 349.411251 -89.472749 
L 348.71036 -89.086582 
L 347.993727 -88.700416 
L 347.268576 -88.314249 
L 346.541801 -87.928083 
L 345.819792 -87.541916 
L 345.108307 -87.155749 
L 344.41238 -86.769583 
L 343.736281 -86.383416 
L 343.083521 -85.99725 
L 342.456873 -85.611083 
L 341.858432 -85.224917 
L 341.289675 -84.83875 
L 340.751527 -84.452584 
L 340.244418 -84.066417 
L 339.768329 -83.68025 
L 339.322835 -83.294084 
L 338.90713 -82.907917 
L 338.520054 -82.521751 
L 338.160124 -82.135584 
L 337.825571 -81.749418 
L 337.514389 -81.363251 
L 337.224406 -80.977085 
L 336.953356 -80.590918 
L 336.698977 -80.204751 
L 336.459105 -79.818585 
L 336.231762 -79.432418 
L 336.015247 -79.046252 
L 335.808191 -78.660085 
z
" style="stroke: #000000; stroke-opacity: 0.7"/>
    </defs>
    <g clip-path="url(#p8a9e200d3b)">
     <use xlink:href="#m8ea2275fff" x="0" y="320.007877" style="fill: #8c564b; fill-opacity: 0.7; stroke: #000000; stroke-opacity: 0.7"/>
    </g>
   </g>
   <g id="PolyCollection_6">
    <defs>
     <path id="mf1a2e5d309" d="M 398.10489 -189.735155 
L 394.526985 -189.735155 
L 394.358333 -190.607757 
L 394.193431 -191.480359 
L 394.033055 -192.352962 
L 393.8771 -193.225564 
L 393.724557 -194.098166 
L 393.573581 -194.970768 
L 393.421632 -195.843371 
L 393.265697 -196.715973 
L 393.102545 -197.588575 
L 392.929018 -198.461177 
L 392.742302 -199.333779 
L 392.54016 -200.206382 
L 392.321111 -201.078984 
L 392.084502 -201.951586 
L 391.830491 -202.824188 
L 391.559914 -203.696791 
L 391.274045 -204.569393 
L 390.974279 -205.441995 
L 390.661744 -206.314597 
L 390.336906 -207.1872 
L 389.999204 -208.059802 
L 389.646759 -208.932404 
L 389.276226 -209.805006 
L 388.882808 -210.677608 
L 388.460474 -211.550211 
L 388.002371 -212.422813 
L 387.501424 -213.295415 
L 386.951078 -214.168017 
L 386.346119 -215.04062 
L 385.683488 -215.913222 
L 384.963021 -216.785824 
L 384.187998 -217.658426 
L 383.365459 -218.531028 
L 382.506207 -219.403631 
L 381.624493 -220.276233 
L 380.737391 -221.148835 
L 379.86391 -222.021437 
L 379.023926 -222.89404 
L 378.237041 -223.766642 
L 377.521476 -224.639244 
L 376.893109 -225.511846 
L 376.364744 -226.384449 
L 375.945659 -227.257051 
L 375.641456 -228.129653 
L 375.454171 -229.002255 
L 375.382604 -229.874857 
L 375.422779 -230.74746 
L 375.568457 -231.620062 
L 375.81163 -232.492664 
L 376.14295 -233.365266 
L 376.552078 -234.237869 
L 377.027945 -235.110471 
L 377.558981 -235.983073 
L 378.133326 -236.855675 
L 378.739072 -237.728278 
L 379.364559 -238.60088 
L 379.998721 -239.473482 
L 380.631475 -240.346084 
L 381.254109 -241.218686 
L 381.859626 -242.091289 
L 382.443011 -242.963891 
L 383.001372 -243.836493 
L 383.533948 -244.709095 
L 384.041971 -245.581698 
L 384.528392 -246.4543 
L 384.997514 -247.326902 
L 385.454532 -248.199504 
L 385.905035 -249.072107 
L 386.354505 -249.944709 
L 386.807819 -250.817311 
L 387.268813 -251.689913 
L 387.739911 -252.562515 
L 388.22187 -253.435118 
L 388.713635 -254.30772 
L 389.212348 -255.180322 
L 389.71351 -256.052924 
L 390.21129 -256.925527 
L 390.698963 -257.798129 
L 391.169448 -258.670731 
L 391.615893 -259.543333 
L 392.032244 -260.415935 
L 392.413748 -261.288538 
L 392.757324 -262.16114 
L 393.061783 -263.033742 
L 393.327844 -263.906344 
L 393.557985 -264.778947 
L 393.756131 -265.651549 
L 393.927221 -266.524151 
L 394.07673 -267.396753 
L 394.210182 -268.269356 
L 394.332717 -269.141958 
L 394.448752 -270.01456 
L 394.561759 -270.887162 
L 394.674174 -271.759764 
L 394.787405 -272.632367 
L 394.901947 -273.504969 
L 395.017543 -274.377571 
L 395.133389 -275.250173 
L 395.248325 -276.122776 
L 397.38355 -276.122776 
L 397.38355 -276.122776 
L 397.498486 -275.250173 
L 397.614332 -274.377571 
L 397.729928 -273.504969 
L 397.84447 -272.632367 
L 397.957701 -271.759764 
L 398.070116 -270.887162 
L 398.183123 -270.01456 
L 398.299158 -269.141958 
L 398.421693 -268.269356 
L 398.555145 -267.396753 
L 398.704654 -266.524151 
L 398.875744 -265.651549 
L 399.07389 -264.778947 
L 399.304031 -263.906344 
L 399.570092 -263.033742 
L 399.874551 -262.16114 
L 400.218127 -261.288538 
L 400.599631 -260.415935 
L 401.015982 -259.543333 
L 401.462427 -258.670731 
L 401.932912 -257.798129 
L 402.420585 -256.925527 
L 402.918365 -256.052924 
L 403.419527 -255.180322 
L 403.91824 -254.30772 
L 404.410005 -253.435118 
L 404.891964 -252.562515 
L 405.363062 -251.689913 
L 405.824056 -250.817311 
L 406.27737 -249.944709 
L 406.72684 -249.072107 
L 407.177343 -248.199504 
L 407.634361 -247.326902 
L 408.103483 -246.4543 
L 408.589904 -245.581698 
L 409.097927 -244.709095 
L 409.630503 -243.836493 
L 410.188864 -242.963891 
L 410.772249 -242.091289 
L 411.377766 -241.218686 
L 412.0004 -240.346084 
L 412.633154 -239.473482 
L 413.267316 -238.60088 
L 413.892803 -237.728278 
L 414.498549 -236.855675 
L 415.072894 -235.983073 
L 415.60393 -235.110471 
L 416.079797 -234.237869 
L 416.488925 -233.365266 
L 416.820245 -232.492664 
L 417.063418 -231.620062 
L 417.209096 -230.74746 
L 417.249271 -229.874857 
L 417.177704 -229.002255 
L 416.990419 -228.129653 
L 416.686216 -227.257051 
L 416.267131 -226.384449 
L 415.738766 -225.511846 
L 415.110399 -224.639244 
L 414.394834 -223.766642 
L 413.607949 -222.89404 
L 412.767965 -222.021437 
L 411.894484 -221.148835 
L 411.007382 -220.276233 
L 410.125668 -219.403631 
L 409.266416 -218.531028 
L 408.443877 -217.658426 
L 407.668854 -216.785824 
L 406.948387 -215.913222 
L 406.285756 -215.04062 
L 405.680797 -214.168017 
L 405.130451 -213.295415 
L 404.629504 -212.422813 
L 404.171401 -211.550211 
L 403.749067 -210.677608 
L 403.355649 -209.805006 
L 402.985116 -208.932404 
L 402.632671 -208.059802 
L 402.294969 -207.1872 
L 401.970131 -206.314597 
L 401.657596 -205.441995 
L 401.35783 -204.569393 
L 401.071961 -203.696791 
L 400.801384 -202.824188 
L 400.547373 -201.951586 
L 400.310764 -201.078984 
L 400.091715 -200.206382 
L 399.889573 -199.333779 
L 399.702857 -198.461177 
L 399.52933 -197.588575 
L 399.366178 -196.715973 
L 399.210243 -195.843371 
L 399.058294 -194.970768 
L 398.907318 -194.098166 
L 398.754775 -193.225564 
L 398.59882 -192.352962 
L 398.438444 -191.480359 
L 398.273542 -190.607757 
L 398.10489 -189.735155 
z
" style="stroke: #000000; stroke-opacity: 0.7"/>
    </defs>
    <g clip-path="url(#p8a9e200d3b)">
     <use xlink:href="#mf1a2e5d309" x="0" y="320.007877" style="fill: #ffd92f; fill-opacity: 0.7; stroke: #000000; stroke-opacity: 0.7"/>
    </g>
   </g>
   <g id="matplotlib.axis_1">
    <g id="xtick_1">
     <g id="line2d_1">
      <defs>
       <path id="mb5524e8dc2" d="M 0 0 
L 0 3.5 
" style="stroke: #000000; stroke-width: 0.8"/>
      </defs>
      <g>
       <use xlink:href="#mb5524e8dc2" x="82.315938" y="262.27308" style="stroke: #000000; stroke-width: 0.8"/>
      </g>
     </g>
     <g id="text_1">
      <!-- Dunvale -->
      <g transform="translate(51.75434 303.91159) rotate(-45) scale(0.12 -0.12)">
       <defs>
        <path id="TimesNewRomanPSMT-44" d="M 109 0 
L 109 116 
L 269 116 
Q 538 116 650 288 
Q 719 391 719 750 
L 719 3488 
Q 719 3884 631 3984 
Q 509 4122 269 4122 
L 109 4122 
L 109 4238 
L 1834 4238 
Q 2784 4238 3279 4022 
Q 3775 3806 4076 3303 
Q 4378 2800 4378 2141 
Q 4378 1256 3841 663 
Q 3238 0 2003 0 
L 109 0 
z
M 1319 306 
Q 1716 219 1984 219 
Q 2709 219 3187 728 
Q 3666 1238 3666 2109 
Q 3666 2988 3187 3494 
Q 2709 4000 1959 4000 
Q 1678 4000 1319 3909 
L 1319 306 
z
" transform="scale(0.015625)"/>
        <path id="TimesNewRomanPSMT-75" d="M 2709 2863 
L 2709 1128 
Q 2709 631 2732 520 
Q 2756 409 2807 365 
Q 2859 322 2928 322 
Q 3025 322 3147 375 
L 3191 266 
L 2334 -88 
L 2194 -88 
L 2194 519 
Q 1825 119 1631 15 
Q 1438 -88 1222 -88 
Q 981 -88 804 51 
Q 628 191 559 409 
Q 491 628 491 1028 
L 491 2306 
Q 491 2509 447 2587 
Q 403 2666 317 2708 
Q 231 2750 6 2747 
L 6 2863 
L 1009 2863 
L 1009 947 
Q 1009 547 1148 422 
Q 1288 297 1484 297 
Q 1619 297 1789 381 
Q 1959 466 2194 703 
L 2194 2325 
Q 2194 2569 2105 2655 
Q 2016 2741 1734 2747 
L 1734 2863 
L 2709 2863 
z
" transform="scale(0.015625)"/>
        <path id="TimesNewRomanPSMT-6e" d="M 1034 2341 
Q 1538 2947 1994 2947 
Q 2228 2947 2397 2830 
Q 2566 2713 2666 2444 
Q 2734 2256 2734 1869 
L 2734 647 
Q 2734 375 2778 278 
Q 2813 200 2889 156 
Q 2966 113 3172 113 
L 3172 0 
L 1756 0 
L 1756 113 
L 1816 113 
Q 2016 113 2095 173 
Q 2175 234 2206 353 
Q 2219 400 2219 647 
L 2219 1819 
Q 2219 2209 2117 2386 
Q 2016 2563 1775 2563 
Q 1403 2563 1034 2156 
L 1034 647 
Q 1034 356 1069 288 
Q 1113 197 1189 155 
Q 1266 113 1500 113 
L 1500 0 
L 84 0 
L 84 113 
L 147 113 
Q 366 113 442 223 
Q 519 334 519 647 
L 519 1709 
Q 519 2225 495 2337 
Q 472 2450 423 2490 
Q 375 2531 294 2531 
Q 206 2531 84 2484 
L 38 2597 
L 900 2947 
L 1034 2947 
L 1034 2341 
z
" transform="scale(0.015625)"/>
        <path id="TimesNewRomanPSMT-76" d="M 53 2863 
L 1400 2863 
L 1400 2747 
L 1313 2747 
Q 1191 2747 1127 2687 
Q 1063 2628 1063 2528 
Q 1063 2419 1128 2269 
L 1794 688 
L 2463 2328 
Q 2534 2503 2534 2594 
Q 2534 2638 2509 2666 
Q 2475 2713 2422 2730 
Q 2369 2747 2206 2747 
L 2206 2863 
L 3141 2863 
L 3141 2747 
Q 2978 2734 2916 2681 
Q 2806 2588 2719 2369 
L 1703 -88 
L 1575 -88 
L 553 2328 
Q 484 2497 421 2570 
Q 359 2644 263 2694 
Q 209 2722 53 2747 
L 53 2863 
z
" transform="scale(0.015625)"/>
        <path id="TimesNewRomanPSMT-61" d="M 1822 413 
Q 1381 72 1269 19 
Q 1100 -59 909 -59 
Q 613 -59 420 144 
Q 228 347 228 678 
Q 228 888 322 1041 
Q 450 1253 767 1440 
Q 1084 1628 1822 1897 
L 1822 2009 
Q 1822 2438 1686 2597 
Q 1550 2756 1291 2756 
Q 1094 2756 978 2650 
Q 859 2544 859 2406 
L 866 2225 
Q 866 2081 792 2003 
Q 719 1925 600 1925 
Q 484 1925 411 2006 
Q 338 2088 338 2228 
Q 338 2497 613 2722 
Q 888 2947 1384 2947 
Q 1766 2947 2009 2819 
Q 2194 2722 2281 2516 
Q 2338 2381 2338 1966 
L 2338 994 
Q 2338 584 2353 492 
Q 2369 400 2405 369 
Q 2441 338 2488 338 
Q 2538 338 2575 359 
Q 2641 400 2828 588 
L 2828 413 
Q 2478 -56 2159 -56 
Q 2006 -56 1915 50 
Q 1825 156 1822 413 
z
M 1822 616 
L 1822 1706 
Q 1350 1519 1213 1441 
Q 966 1303 859 1153 
Q 753 1003 753 825 
Q 753 600 887 451 
Q 1022 303 1197 303 
Q 1434 303 1822 616 
z
" transform="scale(0.015625)"/>
        <path id="TimesNewRomanPSMT-6c" d="M 1184 4444 
L 1184 647 
Q 1184 378 1223 290 
Q 1263 203 1344 158 
Q 1425 113 1647 113 
L 1647 0 
L 244 0 
L 244 113 
Q 441 113 512 153 
Q 584 194 625 287 
Q 666 381 666 647 
L 666 3247 
Q 666 3731 644 3842 
Q 622 3953 573 3993 
Q 525 4034 450 4034 
Q 369 4034 244 3984 
L 191 4094 
L 1044 4444 
L 1184 4444 
z
" transform="scale(0.015625)"/>
        <path id="TimesNewRomanPSMT-65" d="M 681 1784 
Q 678 1147 991 784 
Q 1303 422 1725 422 
Q 2006 422 2214 576 
Q 2422 731 2563 1106 
L 2659 1044 
Q 2594 616 2278 264 
Q 1963 -88 1488 -88 
Q 972 -88 605 314 
Q 238 716 238 1394 
Q 238 2128 614 2539 
Q 991 2950 1559 2950 
Q 2041 2950 2350 2633 
Q 2659 2316 2659 1784 
L 681 1784 
z
M 681 1966 
L 2006 1966 
Q 1991 2241 1941 2353 
Q 1863 2528 1708 2628 
Q 1553 2728 1384 2728 
Q 1125 2728 920 2526 
Q 716 2325 681 1966 
z
" transform="scale(0.015625)"/>
       </defs>
       <use xlink:href="#TimesNewRomanPSMT-44"/>
       <use xlink:href="#TimesNewRomanPSMT-75" x="72.216797"/>
       <use xlink:href="#TimesNewRomanPSMT-6e" x="122.216797"/>
       <use xlink:href="#TimesNewRomanPSMT-76" x="172.216797"/>
       <use xlink:href="#TimesNewRomanPSMT-61" x="222.216797"/>
       <use xlink:href="#TimesNewRomanPSMT-6c" x="266.601562"/>
       <use xlink:href="#TimesNewRomanPSMT-65" x="294.384766"/>
      </g>
     </g>
    </g>
    <g id="xtick_2">
     <g id="line2d_2">
      <g>
       <use xlink:href="#mb5524e8dc2" x="145.115938" y="262.27308" style="stroke: #000000; stroke-width: 0.8"/>
      </g>
     </g>
     <g id="text_2">
      <!-- Elmhurst -->
      <g transform="translate(112.190394 306.275536) rotate(-45) scale(0.12 -0.12)">
       <defs>
        <path id="TimesNewRomanPSMT-45" d="M 1338 4006 
L 1338 2331 
L 2269 2331 
Q 2631 2331 2753 2441 
Q 2916 2584 2934 2947 
L 3050 2947 
L 3050 1472 
L 2934 1472 
Q 2891 1781 2847 1869 
Q 2791 1978 2662 2040 
Q 2534 2103 2269 2103 
L 1338 2103 
L 1338 706 
Q 1338 425 1363 364 
Q 1388 303 1450 267 
Q 1513 231 1688 231 
L 2406 231 
Q 2766 231 2928 281 
Q 3091 331 3241 478 
Q 3434 672 3638 1063 
L 3763 1063 
L 3397 0 
L 131 0 
L 131 116 
L 281 116 
Q 431 116 566 188 
Q 666 238 702 338 
Q 738 438 738 747 
L 738 3500 
Q 738 3903 656 3997 
Q 544 4122 281 4122 
L 131 4122 
L 131 4238 
L 3397 4238 
L 3444 3309 
L 3322 3309 
Q 3256 3644 3176 3769 
Q 3097 3894 2941 3959 
Q 2816 4006 2500 4006 
L 1338 4006 
z
" transform="scale(0.015625)"/>
        <path id="TimesNewRomanPSMT-6d" d="M 1050 2338 
Q 1363 2650 1419 2697 
Q 1559 2816 1721 2881 
Q 1884 2947 2044 2947 
Q 2313 2947 2506 2790 
Q 2700 2634 2766 2338 
Q 3088 2713 3309 2830 
Q 3531 2947 3766 2947 
Q 3994 2947 4170 2830 
Q 4347 2713 4450 2447 
Q 4519 2266 4519 1878 
L 4519 647 
Q 4519 378 4559 278 
Q 4591 209 4675 161 
Q 4759 113 4950 113 
L 4950 0 
L 3538 0 
L 3538 113 
L 3597 113 
Q 3781 113 3884 184 
Q 3956 234 3988 344 
Q 4000 397 4000 647 
L 4000 1878 
Q 4000 2228 3916 2372 
Q 3794 2572 3525 2572 
Q 3359 2572 3192 2489 
Q 3025 2406 2788 2181 
L 2781 2147 
L 2788 2013 
L 2788 647 
Q 2788 353 2820 281 
Q 2853 209 2943 161 
Q 3034 113 3253 113 
L 3253 0 
L 1806 0 
L 1806 113 
Q 2044 113 2133 169 
Q 2222 225 2256 338 
Q 2272 391 2272 647 
L 2272 1878 
Q 2272 2228 2169 2381 
Q 2031 2581 1784 2581 
Q 1616 2581 1450 2491 
Q 1191 2353 1050 2181 
L 1050 647 
Q 1050 366 1089 281 
Q 1128 197 1204 155 
Q 1281 113 1516 113 
L 1516 0 
L 100 0 
L 100 113 
Q 297 113 375 155 
Q 453 197 493 289 
Q 534 381 534 647 
L 534 1741 
Q 534 2213 506 2350 
Q 484 2453 437 2492 
Q 391 2531 309 2531 
Q 222 2531 100 2484 
L 53 2597 
L 916 2947 
L 1050 2947 
L 1050 2338 
z
" transform="scale(0.015625)"/>
        <path id="TimesNewRomanPSMT-68" d="M 1041 4444 
L 1041 2350 
Q 1388 2731 1591 2839 
Q 1794 2947 1997 2947 
Q 2241 2947 2416 2812 
Q 2591 2678 2675 2391 
Q 2734 2191 2734 1659 
L 2734 647 
Q 2734 375 2778 275 
Q 2809 200 2884 156 
Q 2959 113 3159 113 
L 3159 0 
L 1753 0 
L 1753 113 
L 1819 113 
Q 2019 113 2097 173 
Q 2175 234 2206 353 
Q 2216 403 2216 647 
L 2216 1659 
Q 2216 2128 2167 2275 
Q 2119 2422 2012 2495 
Q 1906 2569 1756 2569 
Q 1603 2569 1437 2487 
Q 1272 2406 1041 2159 
L 1041 647 
Q 1041 353 1073 281 
Q 1106 209 1195 161 
Q 1284 113 1503 113 
L 1503 0 
L 84 0 
L 84 113 
Q 275 113 384 172 
Q 447 203 484 290 
Q 522 378 522 647 
L 522 3238 
Q 522 3728 498 3840 
Q 475 3953 426 3993 
Q 378 4034 297 4034 
Q 231 4034 84 3984 
L 41 4094 
L 897 4444 
L 1041 4444 
z
" transform="scale(0.015625)"/>
        <path id="TimesNewRomanPSMT-72" d="M 1038 2947 
L 1038 2303 
Q 1397 2947 1775 2947 
Q 1947 2947 2059 2842 
Q 2172 2738 2172 2600 
Q 2172 2478 2090 2393 
Q 2009 2309 1897 2309 
Q 1788 2309 1652 2417 
Q 1516 2525 1450 2525 
Q 1394 2525 1328 2463 
Q 1188 2334 1038 2041 
L 1038 669 
Q 1038 431 1097 309 
Q 1138 225 1241 169 
Q 1344 113 1538 113 
L 1538 0 
L 72 0 
L 72 113 
Q 291 113 397 181 
Q 475 231 506 341 
Q 522 394 522 644 
L 522 1753 
Q 522 2253 501 2348 
Q 481 2444 426 2487 
Q 372 2531 291 2531 
Q 194 2531 72 2484 
L 41 2597 
L 906 2947 
L 1038 2947 
z
" transform="scale(0.015625)"/>
        <path id="TimesNewRomanPSMT-73" d="M 2050 2947 
L 2050 1972 
L 1947 1972 
Q 1828 2431 1642 2597 
Q 1456 2763 1169 2763 
Q 950 2763 815 2647 
Q 681 2531 681 2391 
Q 681 2216 781 2091 
Q 878 1963 1175 1819 
L 1631 1597 
Q 2266 1288 2266 781 
Q 2266 391 1970 151 
Q 1675 -88 1309 -88 
Q 1047 -88 709 6 
Q 606 38 541 38 
Q 469 38 428 -44 
L 325 -44 
L 325 978 
L 428 978 
Q 516 541 762 319 
Q 1009 97 1316 97 
Q 1531 97 1667 223 
Q 1803 350 1803 528 
Q 1803 744 1651 891 
Q 1500 1038 1047 1263 
Q 594 1488 453 1669 
Q 313 1847 313 2119 
Q 313 2472 555 2709 
Q 797 2947 1181 2947 
Q 1350 2947 1591 2875 
Q 1750 2828 1803 2828 
Q 1853 2828 1881 2850 
Q 1909 2872 1947 2947 
L 2050 2947 
z
" transform="scale(0.015625)"/>
        <path id="TimesNewRomanPSMT-74" d="M 1031 3803 
L 1031 2863 
L 1700 2863 
L 1700 2644 
L 1031 2644 
L 1031 788 
Q 1031 509 1111 412 
Q 1191 316 1316 316 
Q 1419 316 1516 380 
Q 1613 444 1666 569 
L 1788 569 
Q 1678 263 1478 108 
Q 1278 -47 1066 -47 
Q 922 -47 784 33 
Q 647 113 581 261 
Q 516 409 516 719 
L 516 2644 
L 63 2644 
L 63 2747 
Q 234 2816 414 2980 
Q 594 3144 734 3369 
Q 806 3488 934 3803 
L 1031 3803 
z
" transform="scale(0.015625)"/>
       </defs>
       <use xlink:href="#TimesNewRomanPSMT-45"/>
       <use xlink:href="#TimesNewRomanPSMT-6c" x="61.083984"/>
       <use xlink:href="#TimesNewRomanPSMT-6d" x="88.867188"/>
       <use xlink:href="#TimesNewRomanPSMT-68" x="166.650391"/>
       <use xlink:href="#TimesNewRomanPSMT-75" x="216.650391"/>
       <use xlink:href="#TimesNewRomanPSMT-72" x="266.650391"/>
       <use xlink:href="#TimesNewRomanPSMT-73" x="299.951172"/>
       <use xlink:href="#TimesNewRomanPSMT-74" x="338.867188"/>
      </g>
     </g>
    </g>
    <g id="xtick_3">
     <g id="line2d_3">
      <g>
       <use xlink:href="#mb5524e8dc2" x="207.915937" y="262.27308" style="stroke: #000000; stroke-width: 0.8"/>
      </g>
     </g>
     <g id="text_3">
      <!-- Fairmont -->
      <g transform="translate(174.990394 306.275536) rotate(-45) scale(0.12 -0.12)">
       <defs>
        <path id="TimesNewRomanPSMT-46" d="M 1309 4006 
L 1309 2341 
L 2081 2341 
Q 2347 2341 2470 2458 
Q 2594 2575 2634 2922 
L 2750 2922 
L 2750 1488 
L 2634 1488 
Q 2631 1734 2570 1850 
Q 2509 1966 2401 2023 
Q 2294 2081 2081 2081 
L 1309 2081 
L 1309 750 
Q 1309 428 1350 325 
Q 1381 247 1481 191 
Q 1619 116 1769 116 
L 1922 116 
L 1922 0 
L 103 0 
L 103 116 
L 253 116 
Q 516 116 634 269 
Q 709 369 709 750 
L 709 3488 
Q 709 3809 669 3913 
Q 638 3991 541 4047 
Q 406 4122 253 4122 
L 103 4122 
L 103 4238 
L 3256 4238 
L 3297 3306 
L 3188 3306 
Q 3106 3603 2998 3742 
Q 2891 3881 2733 3943 
Q 2575 4006 2244 4006 
L 1309 4006 
z
" transform="scale(0.015625)"/>
        <path id="TimesNewRomanPSMT-69" d="M 928 4444 
Q 1059 4444 1151 4351 
Q 1244 4259 1244 4128 
Q 1244 3997 1151 3903 
Q 1059 3809 928 3809 
Q 797 3809 703 3903 
Q 609 3997 609 4128 
Q 609 4259 701 4351 
Q 794 4444 928 4444 
z
M 1188 2947 
L 1188 647 
Q 1188 378 1227 289 
Q 1266 200 1342 156 
Q 1419 113 1622 113 
L 1622 0 
L 231 0 
L 231 113 
Q 441 113 512 153 
Q 584 194 626 287 
Q 669 381 669 647 
L 669 1750 
Q 669 2216 641 2353 
Q 619 2453 572 2492 
Q 525 2531 444 2531 
Q 356 2531 231 2484 
L 188 2597 
L 1050 2947 
L 1188 2947 
z
" transform="scale(0.015625)"/>
        <path id="TimesNewRomanPSMT-6f" d="M 1600 2947 
Q 2250 2947 2644 2453 
Q 2978 2031 2978 1484 
Q 2978 1100 2793 706 
Q 2609 313 2286 112 
Q 1963 -88 1566 -88 
Q 919 -88 538 428 
Q 216 863 216 1403 
Q 216 1797 411 2186 
Q 606 2575 925 2761 
Q 1244 2947 1600 2947 
z
M 1503 2744 
Q 1338 2744 1170 2645 
Q 1003 2547 900 2300 
Q 797 2053 797 1666 
Q 797 1041 1045 587 
Q 1294 134 1700 134 
Q 2003 134 2200 384 
Q 2397 634 2397 1244 
Q 2397 2006 2069 2444 
Q 1847 2744 1503 2744 
z
" transform="scale(0.015625)"/>
       </defs>
       <use xlink:href="#TimesNewRomanPSMT-46"/>
       <use xlink:href="#TimesNewRomanPSMT-61" x="55.615234"/>
       <use xlink:href="#TimesNewRomanPSMT-69" x="100"/>
       <use xlink:href="#TimesNewRomanPSMT-72" x="127.783203"/>
       <use xlink:href="#TimesNewRomanPSMT-6d" x="161.083984"/>
       <use xlink:href="#TimesNewRomanPSMT-6f" x="238.867188"/>
       <use xlink:href="#TimesNewRomanPSMT-6e" x="288.867188"/>
       <use xlink:href="#TimesNewRomanPSMT-74" x="338.867188"/>
      </g>
     </g>
    </g>
    <g id="xtick_4">
     <g id="line2d_4">
      <g>
       <use xlink:href="#mb5524e8dc2" x="270.715937" y="262.27308" style="stroke: #000000; stroke-width: 0.8"/>
      </g>
     </g>
     <g id="text_4">
      <!-- Pinehaven -->
      <g transform="translate(233.554383 310.511548) rotate(-45) scale(0.12 -0.12)">
       <defs>
        <path id="TimesNewRomanPSMT-50" d="M 1313 1984 
L 1313 750 
Q 1313 350 1400 253 
Q 1519 116 1759 116 
L 1922 116 
L 1922 0 
L 106 0 
L 106 116 
L 266 116 
Q 534 116 650 291 
Q 713 388 713 750 
L 713 3488 
Q 713 3888 628 3984 
Q 506 4122 266 4122 
L 106 4122 
L 106 4238 
L 1659 4238 
Q 2228 4238 2556 4120 
Q 2884 4003 3109 3725 
Q 3334 3447 3334 3066 
Q 3334 2547 2992 2222 
Q 2650 1897 2025 1897 
Q 1872 1897 1694 1919 
Q 1516 1941 1313 1984 
z
M 1313 2163 
Q 1478 2131 1606 2115 
Q 1734 2100 1825 2100 
Q 2150 2100 2386 2351 
Q 2622 2603 2622 3003 
Q 2622 3278 2509 3514 
Q 2397 3750 2190 3867 
Q 1984 3984 1722 3984 
Q 1563 3984 1313 3925 
L 1313 2163 
z
" transform="scale(0.015625)"/>
       </defs>
       <use xlink:href="#TimesNewRomanPSMT-50"/>
       <use xlink:href="#TimesNewRomanPSMT-69" x="55.615234"/>
       <use xlink:href="#TimesNewRomanPSMT-6e" x="83.398438"/>
       <use xlink:href="#TimesNewRomanPSMT-65" x="133.398438"/>
       <use xlink:href="#TimesNewRomanPSMT-68" x="177.783203"/>
       <use xlink:href="#TimesNewRomanPSMT-61" x="227.783203"/>
       <use xlink:href="#TimesNewRomanPSMT-76" x="272.167969"/>
       <use xlink:href="#TimesNewRomanPSMT-65" x="322.167969"/>
       <use xlink:href="#TimesNewRomanPSMT-6e" x="366.552734"/>
      </g>
     </g>
    </g>
    <g id="xtick_5">
     <g id="line2d_5">
      <g>
       <use xlink:href="#mb5524e8dc2" x="333.515937" y="262.27308" style="stroke: #000000; stroke-width: 0.8"/>
      </g>
     </g>
     <g id="text_5">
      <!-- Rosewood -->
      <g transform="translate(295.873108 310.992822) rotate(-45) scale(0.12 -0.12)">
       <defs>
        <path id="TimesNewRomanPSMT-52" d="M 4325 0 
L 3194 0 
L 1759 1981 
Q 1600 1975 1500 1975 
Q 1459 1975 1412 1976 
Q 1366 1978 1316 1981 
L 1316 750 
Q 1316 350 1403 253 
Q 1522 116 1759 116 
L 1925 116 
L 1925 0 
L 109 0 
L 109 116 
L 269 116 
Q 538 116 653 291 
Q 719 388 719 750 
L 719 3488 
Q 719 3888 631 3984 
Q 509 4122 269 4122 
L 109 4122 
L 109 4238 
L 1653 4238 
Q 2328 4238 2648 4139 
Q 2969 4041 3192 3777 
Q 3416 3513 3416 3147 
Q 3416 2756 3161 2468 
Q 2906 2181 2372 2063 
L 3247 847 
Q 3547 428 3762 290 
Q 3978 153 4325 116 
L 4325 0 
z
M 1316 2178 
Q 1375 2178 1419 2176 
Q 1463 2175 1491 2175 
Q 2097 2175 2405 2437 
Q 2713 2700 2713 3106 
Q 2713 3503 2464 3751 
Q 2216 4000 1806 4000 
Q 1625 4000 1316 3941 
L 1316 2178 
z
" transform="scale(0.015625)"/>
        <path id="TimesNewRomanPSMT-77" d="M 41 2863 
L 1241 2863 
L 1241 2747 
Q 1075 2734 1023 2687 
Q 972 2641 972 2553 
Q 972 2456 1025 2319 
L 1638 672 
L 2253 2013 
L 2091 2434 
Q 2016 2622 1894 2694 
Q 1825 2738 1638 2747 
L 1638 2863 
L 3000 2863 
L 3000 2747 
Q 2775 2738 2681 2666 
Q 2619 2616 2619 2506 
Q 2619 2444 2644 2378 
L 3294 734 
L 3897 2319 
Q 3959 2488 3959 2588 
Q 3959 2647 3898 2694 
Q 3838 2741 3659 2747 
L 3659 2863 
L 4563 2863 
L 4563 2747 
Q 4291 2706 4163 2378 
L 3206 -88 
L 3078 -88 
L 2363 1741 
L 1528 -88 
L 1413 -88 
L 494 2319 
Q 403 2547 315 2626 
Q 228 2706 41 2747 
L 41 2863 
z
" transform="scale(0.015625)"/>
        <path id="TimesNewRomanPSMT-64" d="M 2222 322 
Q 2013 103 1813 7 
Q 1613 -88 1381 -88 
Q 913 -88 563 304 
Q 213 697 213 1313 
Q 213 1928 600 2439 
Q 988 2950 1597 2950 
Q 1975 2950 2222 2709 
L 2222 3238 
Q 2222 3728 2198 3840 
Q 2175 3953 2125 3993 
Q 2075 4034 2000 4034 
Q 1919 4034 1784 3984 
L 1744 4094 
L 2597 4444 
L 2738 4444 
L 2738 1134 
Q 2738 631 2761 520 
Q 2784 409 2836 365 
Q 2888 322 2956 322 
Q 3041 322 3181 375 
L 3216 266 
L 2366 -88 
L 2222 -88 
L 2222 322 
z
M 2222 541 
L 2222 2016 
Q 2203 2228 2109 2403 
Q 2016 2578 1861 2667 
Q 1706 2756 1559 2756 
Q 1284 2756 1069 2509 
Q 784 2184 784 1559 
Q 784 928 1059 592 
Q 1334 256 1672 256 
Q 1956 256 2222 541 
z
" transform="scale(0.015625)"/>
       </defs>
       <use xlink:href="#TimesNewRomanPSMT-52"/>
       <use xlink:href="#TimesNewRomanPSMT-6f" x="66.699219"/>
       <use xlink:href="#TimesNewRomanPSMT-73" x="116.699219"/>
       <use xlink:href="#TimesNewRomanPSMT-65" x="155.615234"/>
       <use xlink:href="#TimesNewRomanPSMT-77" x="200"/>
       <use xlink:href="#TimesNewRomanPSMT-6f" x="272.216797"/>
       <use xlink:href="#TimesNewRomanPSMT-6f" x="322.216797"/>
       <use xlink:href="#TimesNewRomanPSMT-64" x="372.216797"/>
      </g>
     </g>
    </g>
    <g id="xtick_6">
     <g id="line2d_6">
      <g>
       <use xlink:href="#mb5524e8dc2" x="396.315937" y="262.27308" style="stroke: #000000; stroke-width: 0.8"/>
      </g>
     </g>
     <g id="text_6">
      <!-- Northgate -->
      <g transform="translate(360.55578 309.09424) rotate(-45) scale(0.12 -0.12)">
       <defs>
        <path id="TimesNewRomanPSMT-4e" d="M -84 4238 
L 1066 4238 
L 3656 1059 
L 3656 3503 
Q 3656 3894 3569 3991 
Q 3453 4122 3203 4122 
L 3056 4122 
L 3056 4238 
L 4531 4238 
L 4531 4122 
L 4381 4122 
Q 4113 4122 4000 3959 
Q 3931 3859 3931 3503 
L 3931 -69 
L 3819 -69 
L 1025 3344 
L 1025 734 
Q 1025 344 1109 247 
Q 1228 116 1475 116 
L 1625 116 
L 1625 0 
L 150 0 
L 150 116 
L 297 116 
Q 569 116 681 278 
Q 750 378 750 734 
L 750 3681 
Q 566 3897 470 3965 
Q 375 4034 191 4094 
Q 100 4122 -84 4122 
L -84 4238 
z
" transform="scale(0.015625)"/>
        <path id="TimesNewRomanPSMT-67" d="M 966 1044 
Q 703 1172 562 1401 
Q 422 1631 422 1909 
Q 422 2334 742 2640 
Q 1063 2947 1563 2947 
Q 1972 2947 2272 2747 
L 2878 2747 
Q 3013 2747 3034 2739 
Q 3056 2731 3066 2713 
Q 3084 2684 3084 2613 
Q 3084 2531 3069 2500 
Q 3059 2484 3036 2475 
Q 3013 2466 2878 2466 
L 2506 2466 
Q 2681 2241 2681 1891 
Q 2681 1491 2375 1206 
Q 2069 922 1553 922 
Q 1341 922 1119 984 
Q 981 866 932 777 
Q 884 688 884 625 
Q 884 572 936 522 
Q 988 472 1138 450 
Q 1225 438 1575 428 
Q 2219 413 2409 384 
Q 2700 344 2873 169 
Q 3047 -6 3047 -263 
Q 3047 -616 2716 -925 
Q 2228 -1381 1444 -1381 
Q 841 -1381 425 -1109 
Q 191 -953 191 -784 
Q 191 -709 225 -634 
Q 278 -519 444 -313 
Q 466 -284 763 25 
Q 600 122 533 198 
Q 466 275 466 372 
Q 466 481 555 628 
Q 644 775 966 1044 
z
M 1509 2797 
Q 1278 2797 1122 2612 
Q 966 2428 966 2047 
Q 966 1553 1178 1281 
Q 1341 1075 1591 1075 
Q 1828 1075 1981 1253 
Q 2134 1431 2134 1813 
Q 2134 2309 1919 2591 
Q 1759 2797 1509 2797 
z
M 934 0 
Q 788 -159 713 -296 
Q 638 -434 638 -550 
Q 638 -700 819 -813 
Q 1131 -1006 1722 -1006 
Q 2284 -1006 2551 -807 
Q 2819 -609 2819 -384 
Q 2819 -222 2659 -153 
Q 2497 -84 2016 -72 
Q 1313 -53 934 0 
z
" transform="scale(0.015625)"/>
       </defs>
       <use xlink:href="#TimesNewRomanPSMT-4e"/>
       <use xlink:href="#TimesNewRomanPSMT-6f" x="72.216797"/>
       <use xlink:href="#TimesNewRomanPSMT-72" x="122.216797"/>
       <use xlink:href="#TimesNewRomanPSMT-74" x="155.517578"/>
       <use xlink:href="#TimesNewRomanPSMT-68" x="183.300781"/>
       <use xlink:href="#TimesNewRomanPSMT-67" x="233.300781"/>
       <use xlink:href="#TimesNewRomanPSMT-61" x="283.300781"/>
       <use xlink:href="#TimesNewRomanPSMT-74" x="327.685547"/>
       <use xlink:href="#TimesNewRomanPSMT-65" x="355.46875"/>
      </g>
     </g>
    </g>
   </g>
   <g id="matplotlib.axis_2">
    <g id="ytick_1">
     <g id="line2d_7">
      <defs>
       <path id="m86830c370b" d="M 0 0 
L -3.5 0 
" style="stroke: #000000; stroke-width: 0.8"/>
      </defs>
      <g>
       <use xlink:href="#m86830c370b" x="50.915938" y="259.7988" style="stroke: #000000; stroke-width: 0.8"/>
      </g>
     </g>
     <g id="text_7">
      <!-- 1000 -->
      <g transform="translate(23.915938 263.270675) scale(0.1 -0.1)">
       <defs>
        <path id="TimesNewRomanPSMT-31" d="M 750 3822 
L 1781 4325 
L 1884 4325 
L 1884 747 
Q 1884 391 1914 303 
Q 1944 216 2037 169 
Q 2131 122 2419 116 
L 2419 0 
L 825 0 
L 825 116 
Q 1125 122 1212 167 
Q 1300 213 1334 289 
Q 1369 366 1369 747 
L 1369 3034 
Q 1369 3497 1338 3628 
Q 1316 3728 1258 3775 
Q 1200 3822 1119 3822 
Q 1003 3822 797 3725 
L 750 3822 
z
" transform="scale(0.015625)"/>
        <path id="TimesNewRomanPSMT-30" d="M 231 2094 
Q 231 2819 450 3342 
Q 669 3866 1031 4122 
Q 1313 4325 1613 4325 
Q 2100 4325 2488 3828 
Q 2972 3213 2972 2159 
Q 2972 1422 2759 906 
Q 2547 391 2217 158 
Q 1888 -75 1581 -75 
Q 975 -75 572 641 
Q 231 1244 231 2094 
z
M 844 2016 
Q 844 1141 1059 588 
Q 1238 122 1591 122 
Q 1759 122 1940 273 
Q 2122 425 2216 781 
Q 2359 1319 2359 2297 
Q 2359 3022 2209 3506 
Q 2097 3866 1919 4016 
Q 1791 4119 1609 4119 
Q 1397 4119 1231 3928 
Q 1006 3669 925 3112 
Q 844 2556 844 2016 
z
" transform="scale(0.015625)"/>
       </defs>
       <use xlink:href="#TimesNewRomanPSMT-31"/>
       <use xlink:href="#TimesNewRomanPSMT-30" x="50"/>
       <use xlink:href="#TimesNewRomanPSMT-30" x="100"/>
       <use xlink:href="#TimesNewRomanPSMT-30" x="150"/>
      </g>
     </g>
    </g>
    <g id="ytick_2">
     <g id="line2d_8">
      <g>
       <use xlink:href="#m86830c370b" x="50.915938" y="222.896783" style="stroke: #000000; stroke-width: 0.8"/>
      </g>
     </g>
     <g id="text_8">
      <!-- 2000 -->
      <g transform="translate(23.915938 226.368658) scale(0.1 -0.1)">
       <defs>
        <path id="TimesNewRomanPSMT-32" d="M 2934 816 
L 2638 0 
L 138 0 
L 138 116 
Q 1241 1122 1691 1759 
Q 2141 2397 2141 2925 
Q 2141 3328 1894 3587 
Q 1647 3847 1303 3847 
Q 991 3847 742 3664 
Q 494 3481 375 3128 
L 259 3128 
Q 338 3706 661 4015 
Q 984 4325 1469 4325 
Q 1984 4325 2329 3994 
Q 2675 3663 2675 3213 
Q 2675 2891 2525 2569 
Q 2294 2063 1775 1497 
Q 997 647 803 472 
L 1909 472 
Q 2247 472 2383 497 
Q 2519 522 2628 598 
Q 2738 675 2819 816 
L 2934 816 
z
" transform="scale(0.015625)"/>
       </defs>
       <use xlink:href="#TimesNewRomanPSMT-32"/>
       <use xlink:href="#TimesNewRomanPSMT-30" x="50"/>
       <use xlink:href="#TimesNewRomanPSMT-30" x="100"/>
       <use xlink:href="#TimesNewRomanPSMT-30" x="150"/>
      </g>
     </g>
    </g>
    <g id="ytick_3">
     <g id="line2d_9">
      <g>
       <use xlink:href="#m86830c370b" x="50.915938" y="185.994767" style="stroke: #000000; stroke-width: 0.8"/>
      </g>
     </g>
     <g id="text_9">
      <!-- 3000 -->
      <g transform="translate(23.915938 189.466642) scale(0.1 -0.1)">
       <defs>
        <path id="TimesNewRomanPSMT-33" d="M 325 3431 
Q 506 3859 782 4092 
Q 1059 4325 1472 4325 
Q 1981 4325 2253 3994 
Q 2459 3747 2459 3466 
Q 2459 3003 1878 2509 
Q 2269 2356 2469 2072 
Q 2669 1788 2669 1403 
Q 2669 853 2319 450 
Q 1863 -75 997 -75 
Q 569 -75 414 31 
Q 259 138 259 259 
Q 259 350 332 419 
Q 406 488 509 488 
Q 588 488 669 463 
Q 722 447 909 348 
Q 1097 250 1169 231 
Q 1284 197 1416 197 
Q 1734 197 1970 444 
Q 2206 691 2206 1028 
Q 2206 1275 2097 1509 
Q 2016 1684 1919 1775 
Q 1784 1900 1550 2001 
Q 1316 2103 1072 2103 
L 972 2103 
L 972 2197 
Q 1219 2228 1467 2375 
Q 1716 2522 1828 2728 
Q 1941 2934 1941 3181 
Q 1941 3503 1739 3701 
Q 1538 3900 1238 3900 
Q 753 3900 428 3381 
L 325 3431 
z
" transform="scale(0.015625)"/>
       </defs>
       <use xlink:href="#TimesNewRomanPSMT-33"/>
       <use xlink:href="#TimesNewRomanPSMT-30" x="50"/>
       <use xlink:href="#TimesNewRomanPSMT-30" x="100"/>
       <use xlink:href="#TimesNewRomanPSMT-30" x="150"/>
      </g>
     </g>
    </g>
    <g id="ytick_4">
     <g id="line2d_10">
      <g>
       <use xlink:href="#m86830c370b" x="50.915938" y="149.09275" style="stroke: #000000; stroke-width: 0.8"/>
      </g>
     </g>
     <g id="text_10">
      <!-- 4000 -->
      <g transform="translate(23.915938 152.564625) scale(0.1 -0.1)">
       <defs>
        <path id="TimesNewRomanPSMT-34" d="M 2978 1563 
L 2978 1119 
L 2409 1119 
L 2409 0 
L 1894 0 
L 1894 1119 
L 100 1119 
L 100 1519 
L 2066 4325 
L 2409 4325 
L 2409 1563 
L 2978 1563 
z
M 1894 1563 
L 1894 3666 
L 406 1563 
L 1894 1563 
z
" transform="scale(0.015625)"/>
       </defs>
       <use xlink:href="#TimesNewRomanPSMT-34"/>
       <use xlink:href="#TimesNewRomanPSMT-30" x="50"/>
       <use xlink:href="#TimesNewRomanPSMT-30" x="100"/>
       <use xlink:href="#TimesNewRomanPSMT-30" x="150"/>
      </g>
     </g>
    </g>
    <g id="ytick_5">
     <g id="line2d_11">
      <g>
       <use xlink:href="#m86830c370b" x="50.915938" y="112.190734" style="stroke: #000000; stroke-width: 0.8"/>
      </g>
     </g>
     <g id="text_11">
      <!-- 5000 -->
      <g transform="translate(23.915938 115.662609) scale(0.1 -0.1)">
       <defs>
        <path id="TimesNewRomanPSMT-35" d="M 2778 4238 
L 2534 3706 
L 1259 3706 
L 981 3138 
Q 1809 3016 2294 2522 
Q 2709 2097 2709 1522 
Q 2709 1188 2573 903 
Q 2438 619 2231 419 
Q 2025 219 1772 97 
Q 1413 -75 1034 -75 
Q 653 -75 479 54 
Q 306 184 306 341 
Q 306 428 378 495 
Q 450 563 559 563 
Q 641 563 702 538 
Q 763 513 909 409 
Q 1144 247 1384 247 
Q 1750 247 2026 523 
Q 2303 800 2303 1197 
Q 2303 1581 2056 1914 
Q 1809 2247 1375 2428 
Q 1034 2569 447 2591 
L 1259 4238 
L 2778 4238 
z
" transform="scale(0.015625)"/>
       </defs>
       <use xlink:href="#TimesNewRomanPSMT-35"/>
       <use xlink:href="#TimesNewRomanPSMT-30" x="50"/>
       <use xlink:href="#TimesNewRomanPSMT-30" x="100"/>
       <use xlink:href="#TimesNewRomanPSMT-30" x="150"/>
      </g>
     </g>
    </g>
    <g id="ytick_6">
     <g id="line2d_12">
      <g>
       <use xlink:href="#m86830c370b" x="50.915938" y="75.288717" style="stroke: #000000; stroke-width: 0.8"/>
      </g>
     </g>
     <g id="text_12">
      <!-- 6000 -->
      <g transform="translate(23.915938 78.760592) scale(0.1 -0.1)">
       <defs>
        <path id="TimesNewRomanPSMT-36" d="M 2869 4325 
L 2869 4209 
Q 2456 4169 2195 4045 
Q 1934 3922 1679 3669 
Q 1425 3416 1258 3105 
Q 1091 2794 978 2366 
Q 1428 2675 1881 2675 
Q 2316 2675 2634 2325 
Q 2953 1975 2953 1425 
Q 2953 894 2631 456 
Q 2244 -75 1606 -75 
Q 1172 -75 869 213 
Q 275 772 275 1663 
Q 275 2231 503 2743 
Q 731 3256 1154 3653 
Q 1578 4050 1965 4187 
Q 2353 4325 2688 4325 
L 2869 4325 
z
M 925 2138 
Q 869 1716 869 1456 
Q 869 1156 980 804 
Q 1091 453 1309 247 
Q 1469 100 1697 100 
Q 1969 100 2183 356 
Q 2397 613 2397 1088 
Q 2397 1622 2184 2012 
Q 1972 2403 1581 2403 
Q 1463 2403 1327 2353 
Q 1191 2303 925 2138 
z
" transform="scale(0.015625)"/>
       </defs>
       <use xlink:href="#TimesNewRomanPSMT-36"/>
       <use xlink:href="#TimesNewRomanPSMT-30" x="50"/>
       <use xlink:href="#TimesNewRomanPSMT-30" x="100"/>
       <use xlink:href="#TimesNewRomanPSMT-30" x="150"/>
      </g>
     </g>
    </g>
    <g id="ytick_7">
     <g id="line2d_13">
      <g>
       <use xlink:href="#m86830c370b" x="50.915938" y="38.386701" style="stroke: #000000; stroke-width: 0.8"/>
      </g>
     </g>
     <g id="text_13">
      <!-- 7000 -->
      <g transform="translate(23.915938 41.858576) scale(0.1 -0.1)">
       <defs>
        <path id="TimesNewRomanPSMT-37" d="M 644 4238 
L 2916 4238 
L 2916 4119 
L 1503 -88 
L 1153 -88 
L 2419 3728 
L 1253 3728 
Q 900 3728 750 3644 
Q 488 3500 328 3200 
L 238 3234 
L 644 4238 
z
" transform="scale(0.015625)"/>
       </defs>
       <use xlink:href="#TimesNewRomanPSMT-37"/>
       <use xlink:href="#TimesNewRomanPSMT-30" x="50"/>
       <use xlink:href="#TimesNewRomanPSMT-30" x="100"/>
       <use xlink:href="#TimesNewRomanPSMT-30" x="150"/>
      </g>
     </g>
    </g>
    <g id="text_14">
     <!-- MWh -->
     <g transform="translate(16.92125 162.490915) rotate(-90) scale(0.14 -0.14)">
      <defs>
       <path id="TimesNewRomanPSMT-4d" d="M 2619 0 
L 981 3566 
L 981 734 
Q 981 344 1066 247 
Q 1181 116 1431 116 
L 1581 116 
L 1581 0 
L 106 0 
L 106 116 
L 256 116 
Q 525 116 638 278 
Q 706 378 706 734 
L 706 3503 
Q 706 3784 644 3909 
Q 600 4000 483 4061 
Q 366 4122 106 4122 
L 106 4238 
L 1306 4238 
L 2844 922 
L 4356 4238 
L 5556 4238 
L 5556 4122 
L 5409 4122 
Q 5138 4122 5025 3959 
Q 4956 3859 4956 3503 
L 4956 734 
Q 4956 344 5044 247 
Q 5159 116 5409 116 
L 5556 116 
L 5556 0 
L 3756 0 
L 3756 116 
L 3906 116 
Q 4178 116 4288 278 
Q 4356 378 4356 734 
L 4356 3566 
L 2722 0 
L 2619 0 
z
" transform="scale(0.015625)"/>
       <path id="TimesNewRomanPSMT-57" d="M 5991 4238 
L 5991 4122 
Q 5825 4122 5722 4062 
Q 5619 4003 5525 3841 
Q 5463 3731 5328 3319 
L 4147 -97 
L 4022 -97 
L 3056 2613 
L 2097 -97 
L 1984 -97 
L 725 3422 
Q 584 3816 547 3888 
Q 484 4006 376 4064 
Q 269 4122 84 4122 
L 84 4238 
L 1653 4238 
L 1653 4122 
L 1578 4122 
Q 1413 4122 1325 4047 
Q 1238 3972 1238 3866 
Q 1238 3756 1375 3363 
L 2209 984 
L 2913 3006 
L 2788 3363 
L 2688 3647 
Q 2622 3803 2541 3922 
Q 2500 3981 2441 4022 
Q 2363 4078 2284 4103 
Q 2225 4122 2097 4122 
L 2097 4238 
L 3747 4238 
L 3747 4122 
L 3634 4122 
Q 3459 4122 3378 4047 
Q 3297 3972 3297 3844 
Q 3297 3684 3438 3288 
L 4250 984 
L 5056 3319 
Q 5194 3706 5194 3856 
Q 5194 3928 5148 3990 
Q 5103 4053 5034 4078 
Q 4916 4122 4725 4122 
L 4725 4238 
L 5991 4238 
z
" transform="scale(0.015625)"/>
      </defs>
      <use xlink:href="#TimesNewRomanPSMT-4d"/>
      <use xlink:href="#TimesNewRomanPSMT-57" x="88.916016"/>
      <use xlink:href="#TimesNewRomanPSMT-68" x="183.300781"/>
     </g>
    </g>
   </g>
   <g id="patch_3">
    <path d="M 79.175938 127.099149 
L 85.455938 127.099149 
L 85.455938 106.249509 
L 79.175938 106.249509 
L 79.175938 127.099149 
L 79.175938 127.099149 
z
" clip-path="url(#p8a9e200d3b)" style="fill: none; stroke: #000000; stroke-linejoin: miter"/>
   </g>
   <g id="line2d_14">
    <path d="M 82.315938 127.099149 
L 82.315938 151.085459 
" clip-path="url(#p8a9e200d3b)" style="fill: none; stroke: #000000; stroke-linecap: square"/>
   </g>
   <g id="line2d_15">
    <path d="M 82.315938 106.249509 
L 82.315938 82.632219 
" clip-path="url(#p8a9e200d3b)" style="fill: none; stroke: #000000; stroke-linecap: square"/>
   </g>
   <g id="line2d_16">
    <path d="M 80.745937 151.085459 
L 83.885937 151.085459 
" clip-path="url(#p8a9e200d3b)" style="fill: none; stroke: #000000; stroke-linecap: square"/>
   </g>
   <g id="line2d_17">
    <path d="M 80.745937 82.632219 
L 83.885937 82.632219 
" clip-path="url(#p8a9e200d3b)" style="fill: none; stroke: #000000; stroke-linecap: square"/>
   </g>
   <g id="patch_4">
    <path d="M 141.975937 88.794855 
L 148.255937 88.794855 
L 148.255937 76.644866 
L 141.975937 76.644866 
L 141.975937 88.794855 
L 141.975937 88.794855 
z
" clip-path="url(#p8a9e200d3b)" style="fill: none; stroke: #000000; stroke-linejoin: miter"/>
   </g>
   <g id="line2d_18">
    <path d="M 145.115938 88.794855 
L 145.115938 104.847233 
" clip-path="url(#p8a9e200d3b)" style="fill: none; stroke: #000000; stroke-linecap: square"/>
   </g>
   <g id="line2d_19">
    <path d="M 145.115938 76.644866 
L 145.115938 66.579841 
" clip-path="url(#p8a9e200d3b)" style="fill: none; stroke: #000000; stroke-linecap: square"/>
   </g>
   <g id="line2d_20">
    <path d="M 143.545938 104.847233 
L 146.685937 104.847233 
" clip-path="url(#p8a9e200d3b)" style="fill: none; stroke: #000000; stroke-linecap: square"/>
   </g>
   <g id="line2d_21">
    <path d="M 143.545938 66.579841 
L 146.685937 66.579841 
" clip-path="url(#p8a9e200d3b)" style="fill: none; stroke: #000000; stroke-linecap: square"/>
   </g>
   <g id="patch_5">
    <path d="M 204.775937 222.84143 
L 211.055937 222.84143 
L 211.055937 200.995437 
L 204.775937 200.995437 
L 204.775937 222.84143 
L 204.775937 222.84143 
z
" clip-path="url(#p8a9e200d3b)" style="fill: none; stroke: #000000; stroke-linejoin: miter"/>
   </g>
   <g id="line2d_22">
    <path d="M 207.915937 222.84143 
L 207.915937 251.717258 
" clip-path="url(#p8a9e200d3b)" style="fill: none; stroke: #000000; stroke-linecap: square"/>
   </g>
   <g id="line2d_23">
    <path d="M 207.915937 200.995437 
L 207.915937 185.551943 
" clip-path="url(#p8a9e200d3b)" style="fill: none; stroke: #000000; stroke-linecap: square"/>
   </g>
   <g id="line2d_24">
    <path d="M 206.345937 251.717258 
L 209.485937 251.717258 
" clip-path="url(#p8a9e200d3b)" style="fill: none; stroke: #000000; stroke-linecap: square"/>
   </g>
   <g id="line2d_25">
    <path d="M 206.345937 185.551943 
L 209.485937 185.551943 
" clip-path="url(#p8a9e200d3b)" style="fill: none; stroke: #000000; stroke-linecap: square"/>
   </g>
   <g id="patch_6">
    <path d="M 267.575938 86.663764 
L 273.855937 86.663764 
L 273.855937 60.924607 
L 267.575938 60.924607 
L 267.575938 86.663764 
L 267.575938 86.663764 
z
" clip-path="url(#p8a9e200d3b)" style="fill: none; stroke: #000000; stroke-linejoin: miter"/>
   </g>
   <g id="line2d_26">
    <path d="M 270.715937 86.663764 
L 270.715937 118.685489 
" clip-path="url(#p8a9e200d3b)" style="fill: none; stroke: #000000; stroke-linecap: square"/>
   </g>
   <g id="line2d_27">
    <path d="M 270.715937 60.924607 
L 270.715937 40.600822 
" clip-path="url(#p8a9e200d3b)" style="fill: none; stroke: #000000; stroke-linecap: square"/>
   </g>
   <g id="line2d_28">
    <path d="M 269.145938 118.685489 
L 272.285937 118.685489 
" clip-path="url(#p8a9e200d3b)" style="fill: none; stroke: #000000; stroke-linecap: square"/>
   </g>
   <g id="line2d_29">
    <path d="M 269.145938 40.600822 
L 272.285937 40.600822 
" clip-path="url(#p8a9e200d3b)" style="fill: none; stroke: #000000; stroke-linecap: square"/>
   </g>
   <g id="patch_7">
    <path d="M 330.375937 228.035389 
L 336.655937 228.035389 
L 336.655937 215.341096 
L 330.375937 215.341096 
L 330.375937 228.035389 
L 330.375937 228.035389 
z
" clip-path="url(#p8a9e200d3b)" style="fill: none; stroke: #000000; stroke-linejoin: miter"/>
   </g>
   <g id="line2d_30">
    <path d="M 333.515937 228.035389 
L 333.515937 241.347792 
" clip-path="url(#p8a9e200d3b)" style="fill: none; stroke: #000000; stroke-linecap: square"/>
   </g>
   <g id="line2d_31">
    <path d="M 333.515937 215.341096 
L 333.515937 203.117303 
" clip-path="url(#p8a9e200d3b)" style="fill: none; stroke: #000000; stroke-linecap: square"/>
   </g>
   <g id="line2d_32">
    <path d="M 331.945937 241.347792 
L 335.085938 241.347792 
" clip-path="url(#p8a9e200d3b)" style="fill: none; stroke: #000000; stroke-linecap: square"/>
   </g>
   <g id="line2d_33">
    <path d="M 331.945937 203.117303 
L 335.085938 203.117303 
" clip-path="url(#p8a9e200d3b)" style="fill: none; stroke: #000000; stroke-linecap: square"/>
   </g>
   <g id="patch_8">
    <path d="M 393.175937 96.876397 
L 399.455937 96.876397 
L 399.455937 78.517644 
L 393.175937 78.517644 
L 393.175937 96.876397 
L 393.175937 96.876397 
z
" clip-path="url(#p8a9e200d3b)" style="fill: none; stroke: #000000; stroke-linejoin: miter"/>
   </g>
   <g id="line2d_34">
    <path d="M 396.315937 96.876397 
L 396.315937 120.124667 
" clip-path="url(#p8a9e200d3b)" style="fill: none; stroke: #000000; stroke-linecap: square"/>
   </g>
   <g id="line2d_35">
    <path d="M 396.315937 78.517644 
L 396.315937 51.191701 
" clip-path="url(#p8a9e200d3b)" style="fill: none; stroke: #000000; stroke-linecap: square"/>
   </g>
   <g id="line2d_36">
    <path d="M 394.745937 120.124667 
L 397.885937 120.124667 
" clip-path="url(#p8a9e200d3b)" style="fill: none; stroke: #000000; stroke-linecap: square"/>
   </g>
   <g id="line2d_37">
    <path d="M 394.745937 51.191701 
L 397.885937 51.191701 
" clip-path="url(#p8a9e200d3b)" style="fill: none; stroke: #000000; stroke-linecap: square"/>
   </g>
   <g id="line2d_38">
    <path d="M 79.175938 113.519206 
L 85.455938 113.519206 
" clip-path="url(#p8a9e200d3b)" style="fill: none; stroke: #000000; stroke-width: 1.5; stroke-linecap: square"/>
   </g>
   <g id="line2d_39">
    <path d="M 141.975937 82.447709 
L 148.255937 82.447709 
" clip-path="url(#p8a9e200d3b)" style="fill: none; stroke: #000000; stroke-width: 1.5; stroke-linecap: square"/>
   </g>
   <g id="line2d_40">
    <path d="M 204.775937 211.586315 
L 211.055937 211.586315 
" clip-path="url(#p8a9e200d3b)" style="fill: none; stroke: #000000; stroke-width: 1.5; stroke-linecap: square"/>
   </g>
   <g id="line2d_41">
    <path d="M 267.575938 74.993501 
L 273.855937 74.993501 
" clip-path="url(#p8a9e200d3b)" style="fill: none; stroke: #000000; stroke-width: 1.5; stroke-linecap: square"/>
   </g>
   <g id="line2d_42">
    <path d="M 330.375937 222.417057 
L 336.655937 222.417057 
" clip-path="url(#p8a9e200d3b)" style="fill: none; stroke: #000000; stroke-width: 1.5; stroke-linecap: square"/>
   </g>
   <g id="line2d_43">
    <path d="M 393.175937 88.997816 
L 399.455937 88.997816 
" clip-path="url(#p8a9e200d3b)" style="fill: none; stroke: #000000; stroke-width: 1.5; stroke-linecap: square"/>
   </g>
   <g id="patch_9">
    <path d="M 50.915938 262.27308 
L 50.915938 30.045 
" style="fill: none; stroke: #000000; stroke-linejoin: miter; stroke-linecap: square"/>
   </g>
   <g id="patch_10">
    <path d="M 427.715937 262.27308 
L 427.715937 30.045 
" style="fill: none; stroke: #000000; stroke-linejoin: miter; stroke-linecap: square"/>
   </g>
   <g id="patch_11">
    <path d="M 50.915938 262.27308 
L 427.715937 262.27308 
" style="fill: none; stroke: #000000; stroke-linejoin: miter; stroke-linecap: square"/>
   </g>
   <g id="patch_12">
    <path d="M 50.915938 30.045 
L 427.715937 30.045 
" style="fill: none; stroke: #000000; stroke-linejoin: miter; stroke-linecap: square"/>
   </g>
   <g id="text_15">
    <!-- Data on daily energy consumption accross cities (MWh) -->
    <g transform="translate(49.025937 18.045) scale(0.16 -0.16)">
     <defs>
      <path id="TimesNewRomanPS-BoldMT-44" d="M 84 0 
L 84 116 
L 225 116 
Q 409 116 507 173 
Q 606 231 653 331 
Q 681 397 681 725 
L 681 3513 
Q 681 3838 647 3919 
Q 613 4000 508 4061 
Q 403 4122 225 4122 
L 84 4122 
L 84 4238 
L 1981 4238 
Q 2741 4238 3203 4031 
Q 3769 3778 4061 3265 
Q 4353 2753 4353 2106 
Q 4353 1659 4209 1282 
Q 4066 906 3837 661 
Q 3609 416 3311 267 
Q 3013 119 2581 38 
Q 2391 0 1981 0 
L 84 0 
z
M 1700 3997 
L 1700 691 
Q 1700 428 1725 368 
Q 1750 309 1809 278 
Q 1894 231 2053 231 
Q 2575 231 2850 588 
Q 3225 1069 3225 2081 
Q 3225 2897 2969 3384 
Q 2766 3766 2447 3903 
Q 2222 4000 1700 3997 
z
" transform="scale(0.015625)"/>
      <path id="TimesNewRomanPS-BoldMT-61" d="M 1828 431 
Q 1294 -41 869 -41 
Q 619 -41 453 123 
Q 288 288 288 534 
Q 288 869 575 1136 
Q 863 1403 1828 1847 
L 1828 2141 
Q 1828 2472 1792 2558 
Q 1756 2644 1656 2708 
Q 1556 2772 1431 2772 
Q 1228 2772 1097 2681 
Q 1016 2625 1016 2550 
Q 1016 2484 1103 2388 
Q 1222 2253 1222 2128 
Q 1222 1975 1108 1867 
Q 994 1759 809 1759 
Q 613 1759 480 1878 
Q 347 1997 347 2156 
Q 347 2381 525 2586 
Q 703 2791 1022 2900 
Q 1341 3009 1684 3009 
Q 2100 3009 2342 2832 
Q 2584 2656 2656 2450 
Q 2700 2319 2700 1847 
L 2700 713 
Q 2700 513 2715 461 
Q 2731 409 2762 384 
Q 2794 359 2834 359 
Q 2916 359 3000 475 
L 3094 400 
Q 2938 169 2770 64 
Q 2603 -41 2391 -41 
Q 2141 -41 2000 76 
Q 1859 194 1828 431 
z
M 1828 659 
L 1828 1638 
Q 1450 1416 1266 1163 
Q 1144 994 1144 822 
Q 1144 678 1247 569 
Q 1325 484 1466 484 
Q 1622 484 1828 659 
z
" transform="scale(0.015625)"/>
      <path id="TimesNewRomanPS-BoldMT-74" d="M 1375 3991 
L 1375 2922 
L 2069 2922 
L 2069 2613 
L 1375 2613 
L 1375 809 
Q 1375 556 1398 482 
Q 1422 409 1481 364 
Q 1541 319 1591 319 
Q 1794 319 1975 628 
L 2069 559 
Q 1816 -41 1247 -41 
Q 969 -41 776 114 
Q 584 269 531 459 
Q 500 566 500 1034 
L 500 2613 
L 119 2613 
L 119 2722 
Q 513 3000 789 3306 
Q 1066 3613 1272 3991 
L 1375 3991 
z
" transform="scale(0.015625)"/>
      <path id="TimesNewRomanPS-BoldMT-20" transform="scale(0.015625)"/>
      <path id="TimesNewRomanPS-BoldMT-6f" d="M 1594 3009 
Q 1975 3009 2303 2812 
Q 2631 2616 2801 2253 
Q 2972 1891 2972 1459 
Q 2972 838 2656 419 
Q 2275 -88 1603 -88 
Q 944 -88 587 375 
Q 231 838 231 1447 
Q 231 2075 595 2542 
Q 959 3009 1594 3009 
z
M 1606 2788 
Q 1447 2788 1333 2667 
Q 1219 2547 1183 2192 
Q 1147 1838 1147 1206 
Q 1147 872 1191 581 
Q 1225 359 1337 243 
Q 1450 128 1594 128 
Q 1734 128 1828 206 
Q 1950 313 1991 503 
Q 2053 800 2053 1703 
Q 2053 2234 1993 2432 
Q 1934 2631 1819 2722 
Q 1738 2788 1606 2788 
z
" transform="scale(0.015625)"/>
      <path id="TimesNewRomanPS-BoldMT-6e" d="M 1409 2922 
L 1409 2544 
Q 1634 2788 1840 2898 
Q 2047 3009 2284 3009 
Q 2569 3009 2756 2851 
Q 2944 2694 3006 2459 
Q 3056 2281 3056 1775 
L 3056 638 
Q 3056 300 3117 217 
Q 3178 134 3372 113 
L 3372 0 
L 1894 0 
L 1894 113 
Q 2059 134 2131 250 
Q 2181 328 2181 638 
L 2181 1938 
Q 2181 2297 2153 2390 
Q 2125 2484 2058 2536 
Q 1991 2588 1909 2588 
Q 1641 2588 1409 2203 
L 1409 638 
Q 1409 309 1470 221 
Q 1531 134 1697 113 
L 1697 0 
L 219 0 
L 219 113 
Q 403 131 481 231 
Q 534 300 534 638 
L 534 2288 
Q 534 2619 473 2700 
Q 413 2781 219 2806 
L 219 2922 
L 1409 2922 
z
" transform="scale(0.015625)"/>
      <path id="TimesNewRomanPS-BoldMT-64" d="M 3056 4238 
L 3056 875 
Q 3056 534 3075 472 
Q 3100 369 3170 319 
Q 3241 269 3416 256 
L 3416 153 
L 2181 -88 
L 2181 375 
Q 1959 106 1786 9 
Q 1613 -88 1394 -88 
Q 834 -88 509 413 
Q 247 819 247 1409 
Q 247 1881 409 2254 
Q 572 2628 855 2818 
Q 1138 3009 1463 3009 
Q 1672 3009 1834 2928 
Q 1997 2847 2181 2644 
L 2181 3525 
Q 2181 3859 2153 3928 
Q 2116 4019 2041 4062 
Q 1966 4106 1759 4106 
L 1759 4238 
L 3056 4238 
z
M 2181 2256 
Q 1950 2700 1616 2700 
Q 1500 2700 1425 2638 
Q 1309 2541 1236 2297 
Q 1163 2053 1163 1550 
Q 1163 997 1244 731 
Q 1325 466 1466 347 
Q 1538 288 1663 288 
Q 1938 288 2181 719 
L 2181 2256 
z
" transform="scale(0.015625)"/>
      <path id="TimesNewRomanPS-BoldMT-69" d="M 919 4338 
Q 1122 4338 1262 4195 
Q 1403 4053 1403 3853 
Q 1403 3653 1261 3512 
Q 1119 3372 919 3372 
Q 719 3372 578 3512 
Q 438 3653 438 3853 
Q 438 4053 578 4195 
Q 719 4338 919 4338 
z
M 1356 2922 
L 1356 606 
Q 1356 297 1428 211 
Q 1500 125 1709 113 
L 1709 0 
L 131 0 
L 131 113 
Q 325 119 419 225 
Q 481 297 481 606 
L 481 2313 
Q 481 2622 409 2708 
Q 338 2794 131 2806 
L 131 2922 
L 1356 2922 
z
" transform="scale(0.015625)"/>
      <path id="TimesNewRomanPS-BoldMT-6c" d="M 1359 4238 
L 1359 606 
Q 1359 297 1431 211 
Q 1503 125 1713 113 
L 1713 0 
L 134 0 
L 134 113 
Q 328 119 422 225 
Q 484 297 484 606 
L 484 3631 
Q 484 3938 412 4023 
Q 341 4109 134 4122 
L 134 4238 
L 1359 4238 
z
" transform="scale(0.015625)"/>
      <path id="TimesNewRomanPS-BoldMT-79" d="M 1556 -119 
L 613 2047 
Q 400 2538 298 2650 
Q 197 2763 53 2806 
L 53 2922 
L 1606 2922 
L 1606 2806 
Q 1453 2800 1390 2747 
Q 1328 2694 1328 2619 
Q 1328 2500 1484 2150 
L 1984 1006 
L 2325 1891 
Q 2509 2363 2509 2547 
Q 2509 2663 2432 2731 
Q 2356 2800 2163 2806 
L 2163 2922 
L 3141 2922 
L 3141 2806 
Q 2997 2791 2906 2695 
Q 2816 2600 2603 2047 
L 1769 -119 
Q 1453 -931 1300 -1119 
Q 1084 -1381 759 -1381 
Q 500 -1381 339 -1232 
Q 178 -1084 178 -875 
Q 178 -694 289 -575 
Q 400 -456 563 -456 
Q 719 -456 814 -556 
Q 909 -656 913 -866 
Q 916 -984 941 -1019 
Q 966 -1053 1013 -1053 
Q 1088 -1053 1172 -963 
Q 1297 -831 1466 -363 
L 1556 -119 
z
" transform="scale(0.015625)"/>
      <path id="TimesNewRomanPS-BoldMT-65" d="M 2691 1566 
L 1088 1566 
Q 1116 984 1397 647 
Q 1613 388 1916 388 
Q 2103 388 2256 492 
Q 2409 597 2584 869 
L 2691 800 
Q 2453 316 2165 114 
Q 1878 -88 1500 -88 
Q 850 -88 516 413 
Q 247 816 247 1413 
Q 247 2144 642 2576 
Q 1038 3009 1569 3009 
Q 2013 3009 2339 2645 
Q 2666 2281 2691 1566 
z
M 1922 1775 
Q 1922 2278 1867 2465 
Q 1813 2653 1697 2750 
Q 1631 2806 1522 2806 
Q 1359 2806 1256 2647 
Q 1072 2369 1072 1884 
L 1072 1775 
L 1922 1775 
z
" transform="scale(0.015625)"/>
      <path id="TimesNewRomanPS-BoldMT-72" d="M 1428 2922 
L 1428 2259 
Q 1719 2713 1937 2861 
Q 2156 3009 2359 3009 
Q 2534 3009 2639 2901 
Q 2744 2794 2744 2597 
Q 2744 2388 2642 2272 
Q 2541 2156 2397 2156 
Q 2231 2156 2109 2262 
Q 1988 2369 1966 2381 
Q 1934 2400 1894 2400 
Q 1803 2400 1722 2331 
Q 1594 2225 1528 2028 
Q 1428 1725 1428 1359 
L 1428 688 
L 1431 513 
Q 1431 334 1453 284 
Q 1491 200 1564 161 
Q 1638 122 1813 113 
L 1813 0 
L 234 0 
L 234 113 
Q 425 128 492 217 
Q 559 306 559 688 
L 559 2303 
Q 559 2553 534 2622 
Q 503 2709 443 2750 
Q 384 2791 234 2806 
L 234 2922 
L 1428 2922 
z
" transform="scale(0.015625)"/>
      <path id="TimesNewRomanPS-BoldMT-67" d="M 2091 2888 
L 3075 2888 
L 3075 2544 
L 2516 2544 
Q 2669 2391 2728 2266 
Q 2803 2097 2803 1913 
Q 2803 1600 2629 1370 
Q 2456 1141 2157 1011 
Q 1859 881 1628 881 
Q 1609 881 1253 897 
Q 1113 897 1017 805 
Q 922 713 922 584 
Q 922 472 1008 400 
Q 1094 328 1288 328 
L 1828 334 
Q 2484 334 2731 191 
Q 3084 -9 3084 -425 
Q 3084 -691 2921 -908 
Q 2759 -1125 2494 -1228 
Q 2091 -1381 1566 -1381 
Q 1172 -1381 847 -1304 
Q 522 -1228 381 -1092 
Q 241 -956 241 -806 
Q 241 -663 348 -548 
Q 456 -434 750 -356 
Q 344 -156 344 200 
Q 344 416 509 619 
Q 675 822 1034 972 
Q 616 1125 428 1375 
Q 241 1625 241 1953 
Q 241 2381 591 2695 
Q 941 3009 1491 3009 
Q 1781 3009 2091 2888 
z
M 1550 2816 
Q 1369 2816 1244 2633 
Q 1119 2450 1119 1875 
Q 1119 1409 1242 1236 
Q 1366 1063 1534 1063 
Q 1722 1063 1847 1234 
Q 1972 1406 1972 1903 
Q 1972 2463 1831 2666 
Q 1731 2816 1550 2816 
z
M 1366 -431 
Q 1047 -431 944 -484 
Q 766 -581 766 -747 
Q 766 -906 950 -1036 
Q 1134 -1166 1644 -1166 
Q 2078 -1166 2326 -1050 
Q 2575 -934 2575 -725 
Q 2575 -647 2528 -594 
Q 2444 -500 2273 -465 
Q 2103 -431 1366 -431 
z
" transform="scale(0.015625)"/>
      <path id="TimesNewRomanPS-BoldMT-63" d="M 2600 753 
L 2697 678 
Q 2491 291 2183 101 
Q 1875 -88 1528 -88 
Q 944 -88 594 353 
Q 244 794 244 1413 
Q 244 2009 563 2463 
Q 947 3009 1622 3009 
Q 2075 3009 2342 2781 
Q 2609 2553 2609 2272 
Q 2609 2094 2501 1987 
Q 2394 1881 2219 1881 
Q 2034 1881 1914 2003 
Q 1794 2125 1766 2438 
Q 1747 2634 1675 2713 
Q 1603 2791 1506 2791 
Q 1356 2791 1250 2631 
Q 1088 2391 1088 1894 
Q 1088 1481 1219 1104 
Q 1350 728 1578 544 
Q 1750 409 1984 409 
Q 2138 409 2275 481 
Q 2413 553 2600 753 
z
" transform="scale(0.015625)"/>
      <path id="TimesNewRomanPS-BoldMT-73" d="M 2063 3003 
L 2109 2006 
L 2003 2006 
Q 1813 2450 1608 2612 
Q 1403 2775 1200 2775 
Q 1072 2775 981 2689 
Q 891 2603 891 2491 
Q 891 2406 953 2328 
Q 1053 2200 1512 1889 
Q 1972 1578 2117 1361 
Q 2263 1144 2263 875 
Q 2263 631 2141 397 
Q 2019 163 1797 37 
Q 1575 -88 1306 -88 
Q 1097 -88 747 44 
Q 653 78 619 78 
Q 516 78 447 -78 
L 344 -78 
L 294 972 
L 400 972 
Q 541 559 786 353 
Q 1031 147 1250 147 
Q 1400 147 1495 239 
Q 1591 331 1591 463 
Q 1591 613 1497 722 
Q 1403 831 1078 1053 
Q 600 1384 459 1559 
Q 253 1816 253 2125 
Q 253 2463 486 2736 
Q 719 3009 1159 3009 
Q 1397 3009 1619 2894 
Q 1703 2847 1756 2847 
Q 1813 2847 1847 2870 
Q 1881 2894 1956 3003 
L 2063 3003 
z
" transform="scale(0.015625)"/>
      <path id="TimesNewRomanPS-BoldMT-75" d="M 3038 2922 
L 3038 634 
Q 3038 300 3100 217 
Q 3163 134 3353 113 
L 3353 0 
L 2163 0 
L 2163 391 
Q 1953 141 1743 26 
Q 1534 -88 1275 -88 
Q 1028 -88 836 64 
Q 644 216 578 419 
Q 513 622 513 1128 
L 513 2288 
Q 513 2619 452 2700 
Q 391 2781 197 2806 
L 197 2922 
L 1388 2922 
L 1388 925 
Q 1388 613 1417 522 
Q 1447 431 1511 384 
Q 1575 338 1659 338 
Q 1772 338 1863 397 
Q 1988 478 2163 725 
L 2163 2288 
Q 2163 2619 2102 2700 
Q 2041 2781 1847 2806 
L 1847 2922 
L 3038 2922 
z
" transform="scale(0.015625)"/>
      <path id="TimesNewRomanPS-BoldMT-6d" d="M 1428 2922 
L 1428 2538 
Q 1669 2800 1873 2904 
Q 2078 3009 2322 3009 
Q 2603 3009 2793 2878 
Q 2984 2747 3088 2478 
Q 3338 2759 3567 2884 
Q 3797 3009 4047 3009 
Q 4350 3009 4529 2870 
Q 4709 2731 4779 2517 
Q 4850 2303 4850 1834 
L 4850 638 
Q 4850 300 4911 219 
Q 4972 138 5166 113 
L 5166 0 
L 3656 0 
L 3656 113 
Q 3834 128 3919 250 
Q 3975 334 3975 638 
L 3975 1894 
Q 3975 2284 3944 2390 
Q 3913 2497 3845 2548 
Q 3778 2600 3688 2600 
Q 3553 2600 3415 2501 
Q 3278 2403 3138 2206 
L 3138 638 
Q 3138 322 3191 241 
Q 3263 125 3466 113 
L 3466 0 
L 1953 0 
L 1953 113 
Q 2075 119 2145 173 
Q 2216 228 2239 304 
Q 2263 381 2263 638 
L 2263 1894 
Q 2263 2291 2231 2391 
Q 2200 2491 2126 2547 
Q 2053 2603 1969 2603 
Q 1844 2603 1741 2538 
Q 1594 2441 1428 2206 
L 1428 638 
Q 1428 328 1489 229 
Q 1550 131 1744 113 
L 1744 0 
L 238 0 
L 238 113 
Q 422 131 500 231 
Q 553 300 553 638 
L 553 2288 
Q 553 2619 492 2700 
Q 431 2781 238 2806 
L 238 2922 
L 1428 2922 
z
" transform="scale(0.015625)"/>
      <path id="TimesNewRomanPS-BoldMT-70" d="M 1347 297 
L 1347 -791 
Q 1347 -1016 1383 -1097 
Q 1419 -1178 1494 -1215 
Q 1569 -1253 1788 -1253 
L 1788 -1369 
L 122 -1369 
L 122 -1253 
Q 316 -1247 409 -1144 
Q 472 -1072 472 -772 
L 472 2313 
Q 472 2622 400 2708 
Q 328 2794 122 2806 
L 122 2922 
L 1347 2922 
L 1347 2538 
Q 1500 2763 1659 2863 
Q 1888 3009 2156 3009 
Q 2478 3009 2742 2806 
Q 3006 2603 3143 2245 
Q 3281 1888 3281 1475 
Q 3281 1031 3139 664 
Q 2997 297 2726 104 
Q 2456 -88 2125 -88 
Q 1884 -88 1675 19 
Q 1519 100 1347 297 
z
M 1347 613 
Q 1616 231 1922 231 
Q 2091 231 2200 409 
Q 2363 672 2363 1409 
Q 2363 2166 2184 2444 
Q 2066 2628 1866 2628 
Q 1550 2628 1347 2172 
L 1347 613 
z
" transform="scale(0.015625)"/>
      <path id="TimesNewRomanPS-BoldMT-28" d="M 2056 4334 
L 2056 4191 
Q 1731 3978 1578 3775 
Q 1366 3494 1247 3053 
Q 1097 2506 1097 1525 
Q 1097 600 1233 87 
Q 1369 -425 1603 -741 
Q 1766 -959 2056 -1125 
L 2056 -1281 
Q 1303 -1028 779 -248 
Q 256 531 256 1544 
Q 256 2544 778 3314 
Q 1300 4084 2056 4334 
z
" transform="scale(0.015625)"/>
      <path id="TimesNewRomanPS-BoldMT-4d" d="M 3050 1444 
L 4200 4238 
L 5925 4238 
L 5925 4122 
L 5788 4122 
Q 5600 4122 5488 4056 
Q 5409 4013 5363 3909 
Q 5328 3834 5328 3519 
L 5328 725 
Q 5328 400 5362 319 
Q 5397 238 5503 177 
Q 5609 116 5788 116 
L 5925 116 
L 5925 0 
L 3713 0 
L 3713 116 
L 3850 116 
Q 4038 116 4150 181 
Q 4228 225 4275 331 
Q 4309 406 4309 725 
L 4309 3866 
L 2684 0 
L 2609 0 
L 959 3838 
L 959 853 
Q 959 541 975 469 
Q 1016 313 1152 214 
Q 1288 116 1578 116 
L 1578 0 
L 128 0 
L 128 116 
L 172 116 
Q 313 113 434 161 
Q 556 209 618 290 
Q 681 372 716 519 
Q 722 553 722 838 
L 722 3519 
Q 722 3841 687 3920 
Q 653 4000 547 4061 
Q 441 4122 263 4122 
L 128 4122 
L 128 4238 
L 1859 4238 
L 3050 1444 
z
" transform="scale(0.015625)"/>
      <path id="TimesNewRomanPS-BoldMT-57" d="M 6344 4238 
L 6344 4122 
Q 6225 4113 6144 4056 
Q 6063 4000 6000 3884 
Q 5981 3847 5803 3400 
L 4475 -97 
L 4353 -97 
L 3303 2634 
L 2147 -97 
L 2031 -97 
L 638 3363 
Q 425 3884 340 3993 
Q 256 4103 56 4122 
L 56 4238 
L 1894 4238 
L 1894 4122 
Q 1672 4116 1598 4055 
Q 1525 3994 1525 3903 
Q 1525 3784 1678 3400 
L 2509 1344 
L 3175 2950 
L 3000 3400 
Q 2856 3769 2778 3892 
Q 2700 4016 2598 4069 
Q 2497 4122 2300 4122 
L 2300 4238 
L 4353 4238 
L 4353 4122 
Q 4138 4119 4044 4088 
Q 3978 4066 3940 4014 
Q 3903 3963 3903 3897 
Q 3903 3825 4044 3456 
L 4816 1450 
L 5506 3266 
Q 5616 3547 5641 3650 
Q 5666 3753 5666 3841 
Q 5666 3969 5578 4042 
Q 5491 4116 5244 4122 
L 5244 4238 
L 6344 4238 
z
" transform="scale(0.015625)"/>
      <path id="TimesNewRomanPS-BoldMT-68" d="M 1409 4238 
L 1409 2547 
Q 1650 2800 1850 2904 
Q 2050 3009 2266 3009 
Q 2541 3009 2736 2853 
Q 2931 2697 2995 2486 
Q 3059 2275 3059 1775 
L 3059 634 
Q 3059 300 3121 217 
Q 3184 134 3375 113 
L 3375 0 
L 1894 0 
L 1894 113 
Q 2050 134 2128 238 
Q 2184 319 2184 634 
L 2184 1938 
Q 2184 2300 2156 2392 
Q 2128 2484 2061 2536 
Q 1994 2588 1909 2588 
Q 1784 2588 1665 2502 
Q 1547 2416 1409 2200 
L 1409 634 
Q 1409 322 1456 244 
Q 1516 138 1700 113 
L 1700 0 
L 219 0 
L 219 113 
Q 403 131 481 231 
Q 534 300 534 634 
L 534 3603 
Q 534 3934 473 4015 
Q 413 4097 219 4122 
L 219 4238 
L 1409 4238 
z
" transform="scale(0.015625)"/>
      <path id="TimesNewRomanPS-BoldMT-29" d="M 78 -1281 
L 78 -1138 
Q 403 -922 556 -719 
Q 766 -438 888 0 
Q 1038 550 1038 1531 
Q 1038 2456 902 2967 
Q 766 3478 531 3794 
Q 369 4013 78 4178 
L 78 4334 
Q 831 4081 1354 3301 
Q 1878 2522 1878 1509 
Q 1878 513 1354 -257 
Q 831 -1028 78 -1281 
z
" transform="scale(0.015625)"/>
     </defs>
     <use xlink:href="#TimesNewRomanPS-BoldMT-44"/>
     <use xlink:href="#TimesNewRomanPS-BoldMT-61" x="72.216797"/>
     <use xlink:href="#TimesNewRomanPS-BoldMT-74" x="122.216797"/>
     <use xlink:href="#TimesNewRomanPS-BoldMT-61" x="155.517578"/>
     <use xlink:href="#TimesNewRomanPS-BoldMT-20" x="205.517578"/>
     <use xlink:href="#TimesNewRomanPS-BoldMT-6f" x="230.517578"/>
     <use xlink:href="#TimesNewRomanPS-BoldMT-6e" x="280.517578"/>
     <use xlink:href="#TimesNewRomanPS-BoldMT-20" x="336.132812"/>
     <use xlink:href="#TimesNewRomanPS-BoldMT-64" x="361.132812"/>
     <use xlink:href="#TimesNewRomanPS-BoldMT-61" x="416.748047"/>
     <use xlink:href="#TimesNewRomanPS-BoldMT-69" x="466.748047"/>
     <use xlink:href="#TimesNewRomanPS-BoldMT-6c" x="494.53125"/>
     <use xlink:href="#TimesNewRomanPS-BoldMT-79" x="522.314453"/>
     <use xlink:href="#TimesNewRomanPS-BoldMT-20" x="572.314453"/>
     <use xlink:href="#TimesNewRomanPS-BoldMT-65" x="597.314453"/>
     <use xlink:href="#TimesNewRomanPS-BoldMT-6e" x="641.699219"/>
     <use xlink:href="#TimesNewRomanPS-BoldMT-65" x="697.314453"/>
     <use xlink:href="#TimesNewRomanPS-BoldMT-72" x="741.699219"/>
     <use xlink:href="#TimesNewRomanPS-BoldMT-67" x="786.083984"/>
     <use xlink:href="#TimesNewRomanPS-BoldMT-79" x="836.083984"/>
     <use xlink:href="#TimesNewRomanPS-BoldMT-20" x="886.083984"/>
     <use xlink:href="#TimesNewRomanPS-BoldMT-63" x="911.083984"/>
     <use xlink:href="#TimesNewRomanPS-BoldMT-6f" x="955.46875"/>
     <use xlink:href="#TimesNewRomanPS-BoldMT-6e" x="1005.46875"/>
     <use xlink:href="#TimesNewRomanPS-BoldMT-73" x="1061.083984"/>
     <use xlink:href="#TimesNewRomanPS-BoldMT-75" x="1100"/>
     <use xlink:href="#TimesNewRomanPS-BoldMT-6d" x="1155.615234"/>
     <use xlink:href="#TimesNewRomanPS-BoldMT-70" x="1238.916016"/>
     <use xlink:href="#TimesNewRomanPS-BoldMT-74" x="1294.53125"/>
     <use xlink:href="#TimesNewRomanPS-BoldMT-69" x="1327.832031"/>
     <use xlink:href="#TimesNewRomanPS-BoldMT-6f" x="1355.615234"/>
     <use xlink:href="#TimesNewRomanPS-BoldMT-6e" x="1405.615234"/>
     <use xlink:href="#TimesNewRomanPS-BoldMT-20" x="1461.230469"/>
     <use xlink:href="#TimesNewRomanPS-BoldMT-61" x="1486.230469"/>
     <use xlink:href="#TimesNewRomanPS-BoldMT-63" x="1536.230469"/>
     <use xlink:href="#TimesNewRomanPS-BoldMT-63" x="1580.615234"/>
     <use xlink:href="#TimesNewRomanPS-BoldMT-72" x="1625"/>
     <use xlink:href="#TimesNewRomanPS-BoldMT-6f" x="1667.634766"/>
     <use xlink:href="#TimesNewRomanPS-BoldMT-73" x="1717.634766"/>
     <use xlink:href="#TimesNewRomanPS-BoldMT-73" x="1756.550781"/>
     <use xlink:href="#TimesNewRomanPS-BoldMT-20" x="1795.466797"/>
     <use xlink:href="#TimesNewRomanPS-BoldMT-63" x="1820.466797"/>
     <use xlink:href="#TimesNewRomanPS-BoldMT-69" x="1864.851562"/>
     <use xlink:href="#TimesNewRomanPS-BoldMT-74" x="1892.634766"/>
     <use xlink:href="#TimesNewRomanPS-BoldMT-69" x="1925.935547"/>
     <use xlink:href="#TimesNewRomanPS-BoldMT-65" x="1953.71875"/>
     <use xlink:href="#TimesNewRomanPS-BoldMT-73" x="1998.103516"/>
     <use xlink:href="#TimesNewRomanPS-BoldMT-20" x="2037.019531"/>
     <use xlink:href="#TimesNewRomanPS-BoldMT-28" x="2062.019531"/>
     <use xlink:href="#TimesNewRomanPS-BoldMT-4d" x="2095.320312"/>
     <use xlink:href="#TimesNewRomanPS-BoldMT-57" x="2189.705078"/>
     <use xlink:href="#TimesNewRomanPS-BoldMT-68" x="2289.705078"/>
     <use xlink:href="#TimesNewRomanPS-BoldMT-29" x="2345.320312"/>
    </g>
   </g>
  </g>
 </g>
 <defs>
  <clipPath id="p8a9e200d3b">
   <rect x="50.915938" y="30.045" width="376.8" height="232.22808"/>
  </clipPath>
 </defs>
</svg>
