<?xml version="1.0" encoding="utf-8" standalone="no"?>
<!DOCTYPE svg PUBLIC "-//W3C//DTD SVG 1.1//EN"
  "http://www.w3.org/Graphics/SVG/1.1/DTD/svg11.dtd">
<svg xmlns:xlink="http://www.w3.org/1999/xlink" width="436.805937pt" height="319.97208pt" viewBox="0 0 436.805937 319.97208" xmlns="http://www.w3.org/2000/svg" version="1.1">
 <metadata>
  <rdf:RDF xmlns:dc="http://purl.org/dc/elements/1.1/" xmlns:cc="http://creativecommons.org/ns#" xmlns:rdf="http://www.w3.org/1999/02/22-rdf-syntax-ns#">
   <cc:Work>
    <dc:type rdf:resource="http://purl.org/dc/dcmitype/StillImage"/>
    <dc:date>2025-05-26T17:49:33.616117</dc:date>
    <dc:format>image/svg+xml</dc:format>
    <dc:creator>
     <cc:Agent>
      <dc:title>Matplotlib v3.7.2, https://matplotlib.org/</dc:title>
     </cc:Agent>
    </dc:creator>
   </cc:Work>
  </rdf:RDF>
 </metadata>
 <defs>
  <style type="text/css">*{stroke-linejoin: round; stroke-linecap: butt}</style>
 </defs>
 <g id="figure_1">
  <g id="patch_1">
   <path d="M 0 319.97208 
L 436.805937 319.97208 
L 436.805937 0 
L 0 0 
z
" style="fill: #ffffff"/>
  </g>
  <g id="axes_1">
   <g id="patch_2">
    <path d="M 50.915938 262.718557 
L 427.715937 262.718557 
L 427.715937 30.045 
L 50.915938 30.045 
z
" style="fill: #ffffff"/>
   </g>
   <g id="PolyCollection_1">
    <defs>
     <path id="mbaf74b57a6" d="M 78.411897 -111.81454 
L 77.248549 -111.81454 
L 77.214634 -113.506828 
L 77.186721 -115.199115 
L 77.162771 -116.891403 
L 77.139297 -118.58369 
L 77.111435 -120.275978 
L 77.073195 -121.968266 
L 77.017863 -123.660553 
L 76.938546 -125.352841 
L 76.828809 -127.045128 
L 76.683337 -128.737416 
L 76.498565 -130.429703 
L 76.27317 -132.121991 
L 76.008371 -133.814279 
L 75.707961 -135.506566 
L 75.378036 -137.198854 
L 75.026434 -138.891141 
L 74.66191 -140.583429 
L 74.293161 -142.275716 
L 73.927805 -143.968004 
L 73.571459 -145.660291 
L 73.227057 -147.352579 
L 72.894503 -149.044867 
L 72.570704 -150.737154 
L 72.249978 -152.429442 
L 71.92475 -154.121729 
L 71.586429 -155.814017 
L 71.226335 -157.506304 
L 70.836544 -159.198592 
L 70.410596 -160.89088 
L 69.944024 -162.583167 
L 69.434727 -164.275455 
L 68.883226 -165.967742 
L 68.292852 -167.66003 
L 67.669864 -169.352317 
L 67.023475 -171.044605 
L 66.365727 -172.736892 
L 65.711134 -174.42918 
L 65.076041 -176.121468 
L 64.477698 -177.813755 
L 63.933121 -179.506043 
L 63.45787 -181.19833 
L 63.064939 -182.890618 
L 62.763903 -184.582905 
L 62.560488 -186.275193 
L 62.456577 -187.967481 
L 62.450631 -189.659768 
L 62.538402 -191.352056 
L 62.713763 -193.044343 
L 62.969512 -194.736631 
L 63.298033 -196.428918 
L 63.691739 -198.121206 
L 64.143337 -199.813493 
L 64.645925 -201.505781 
L 65.19301 -203.198069 
L 65.778479 -204.890356 
L 66.396527 -206.582644 
L 67.041563 -208.274931 
L 67.708041 -209.967219 
L 68.390235 -211.659506 
L 69.081975 -213.351794 
L 69.776385 -215.044081 
L 70.46573 -216.736369 
L 71.14142 -218.428657 
L 71.794247 -220.120944 
L 72.41485 -221.813232 
L 72.994367 -223.505519 
L 73.525176 -225.197807 
L 74.001599 -226.890094 
L 74.420457 -228.582382 
L 74.781362 -230.27467 
L 75.086707 -231.966957 
L 75.341335 -233.659245 
L 75.551952 -235.351532 
L 75.726366 -237.04382 
L 75.872657 -238.736107 
L 75.998395 -240.428395 
L 76.110005 -242.120682 
L 76.212348 -243.81297 
L 76.308552 -245.505258 
L 76.400102 -247.197545 
L 76.487128 -248.889833 
L 76.568849 -250.58212 
L 76.644068 -252.274408 
L 76.711646 -253.966695 
L 76.770873 -255.658983 
L 76.821696 -257.351271 
L 76.864774 -259.043558 
L 76.901394 -260.735846 
L 76.933277 -262.428133 
L 76.962335 -264.120421 
L 76.990426 -265.812708 
L 77.019169 -267.504996 
L 77.049823 -269.197283 
L 77.083247 -270.889571 
L 77.119917 -272.581859 
L 77.15998 -274.274146 
L 77.203315 -275.966434 
L 77.249593 -277.658721 
L 77.298303 -279.351009 
L 78.362143 -279.351009 
L 78.362143 -279.351009 
L 78.410854 -277.658721 
L 78.457131 -275.966434 
L 78.500467 -274.274146 
L 78.540529 -272.581859 
L 78.577199 -270.889571 
L 78.610623 -269.197283 
L 78.641278 -267.504996 
L 78.670021 -265.812708 
L 78.698112 -264.120421 
L 78.727169 -262.428133 
L 78.759053 -260.735846 
L 78.795673 -259.043558 
L 78.83875 -257.351271 
L 78.889573 -255.658983 
L 78.948801 -253.966695 
L 79.016379 -252.274408 
L 79.091598 -250.58212 
L 79.173318 -248.889833 
L 79.260345 -247.197545 
L 79.351894 -245.505258 
L 79.448099 -243.81297 
L 79.550441 -242.120682 
L 79.662051 -240.428395 
L 79.787789 -238.736107 
L 79.93408 -237.04382 
L 80.108495 -235.351532 
L 80.319112 -233.659245 
L 80.573739 -231.966957 
L 80.879084 -230.27467 
L 81.23999 -228.582382 
L 81.658847 -226.890094 
L 82.13527 -225.197807 
L 82.666079 -223.505519 
L 83.245597 -221.813232 
L 83.8662 -220.120944 
L 84.519026 -218.428657 
L 85.194716 -216.736369 
L 85.884061 -215.044081 
L 86.578472 -213.351794 
L 87.270211 -211.659506 
L 87.952406 -209.967219 
L 88.618883 -208.274931 
L 89.263919 -206.582644 
L 89.881968 -204.890356 
L 90.467436 -203.198069 
L 91.014522 -201.505781 
L 91.517109 -199.813493 
L 91.968707 -198.121206 
L 92.362414 -196.428918 
L 92.690934 -194.736631 
L 92.946684 -193.044343 
L 93.122044 -191.352056 
L 93.209815 -189.659768 
L 93.20387 -187.967481 
L 93.099958 -186.275193 
L 92.896543 -184.582905 
L 92.595508 -182.890618 
L 92.202576 -181.19833 
L 91.727326 -179.506043 
L 91.182748 -177.813755 
L 90.584405 -176.121468 
L 89.949313 -174.42918 
L 89.29472 -172.736892 
L 88.636972 -171.044605 
L 87.990582 -169.352317 
L 87.367594 -167.66003 
L 86.777221 -165.967742 
L 86.22572 -164.275455 
L 85.716422 -162.583167 
L 85.24985 -160.89088 
L 84.823902 -159.198592 
L 84.434111 -157.506304 
L 84.074017 -155.814017 
L 83.735697 -154.121729 
L 83.410468 -152.429442 
L 83.089742 -150.737154 
L 82.765943 -149.044867 
L 82.433389 -147.352579 
L 82.088987 -145.660291 
L 81.732641 -143.968004 
L 81.367285 -142.275716 
L 80.998537 -140.583429 
L 80.634013 -138.891141 
L 80.28241 -137.198854 
L 79.952485 -135.506566 
L 79.652075 -133.814279 
L 79.387277 -132.121991 
L 79.161882 -130.429703 
L 78.977109 -128.737416 
L 78.831638 -127.045128 
L 78.7219 -125.352841 
L 78.642583 -123.660553 
L 78.587252 -121.968266 
L 78.549012 -120.275978 
L 78.52115 -118.58369 
L 78.497675 -116.891403 
L 78.473726 -115.199115 
L 78.445812 -113.506828 
L 78.411897 -111.81454 
z
" style="stroke: #000000; stroke-opacity: 0.7"/>
    </defs>
    <g clip-path="url(#p2c27eef0e6)">
     <use xlink:href="#mbaf74b57a6" x="0" y="319.97208" style="fill: #c5b0d5; fill-opacity: 0.7; stroke: #000000; stroke-opacity: 0.7"/>
    </g>
   </g>
   <g id="PolyCollection_2">
    <defs>
     <path id="m065b4a817f" d="M 131.969881 -138.992847 
L 131.347708 -138.992847 
L 131.348505 -139.766726 
L 131.354984 -140.540605 
L 131.365819 -141.314485 
L 131.379137 -142.088364 
L 131.392651 -142.862243 
L 131.403837 -143.636123 
L 131.410134 -144.410002 
L 131.409144 -145.183882 
L 131.39883 -145.957761 
L 131.377686 -146.73164 
L 131.344878 -147.50552 
L 131.300341 -148.279399 
L 131.244836 -149.053278 
L 131.179936 -149.827158 
L 131.107954 -150.601037 
L 131.031794 -151.374916 
L 130.954729 -152.148796 
L 130.880124 -152.922675 
L 130.811106 -153.696554 
L 130.750246 -154.470434 
L 130.699257 -155.244313 
L 130.658777 -156.018193 
L 130.628267 -156.792072 
L 130.606036 -157.565951 
L 130.589418 -158.339831 
L 130.575069 -159.11371 
L 130.559352 -159.887589 
L 130.538766 -160.661469 
L 130.510335 -161.435348 
L 130.471921 -162.209227 
L 130.422394 -162.983107 
L 130.361638 -163.756986 
L 130.290371 -164.530865 
L 130.20982 -165.304745 
L 130.121262 -166.078624 
L 130.025524 -166.852503 
L 129.922484 -167.626383 
L 129.810655 -168.400262 
L 129.686924 -169.174142 
L 129.546457 -169.948021 
L 129.38282 -170.7219 
L 129.188281 -171.49578 
L 128.95427 -172.269659 
L 128.671957 -173.043538 
L 128.332876 -173.817418 
L 127.929578 -174.591297 
L 127.456242 -175.365176 
L 126.909252 -176.139056 
L 126.287702 -176.912935 
L 125.593835 -177.686814 
L 124.833373 -178.460694 
L 124.015724 -179.234573 
L 123.154006 -180.008453 
L 122.264841 -180.782332 
L 121.367871 -181.556211 
L 120.484964 -182.330091 
L 119.639131 -183.10397 
L 118.853193 -183.877849 
L 118.148316 -184.651729 
L 117.54254 -185.425608 
L 117.049465 -186.199487 
L 116.67727 -186.973367 
L 116.428184 -187.747246 
L 116.298507 -188.521125 
L 116.279203 -189.295005 
L 116.357024 -190.068884 
L 116.516026 -190.842763 
L 116.739303 -191.616643 
L 117.010724 -192.390522 
L 117.316435 -193.164402 
L 117.645936 -193.938281 
L 117.992598 -194.71216 
L 118.353554 -195.48604 
L 118.729031 -196.259919 
L 119.121235 -197.033798 
L 119.533015 -197.807678 
L 119.966528 -198.581557 
L 120.422164 -199.355436 
L 120.897877 -200.129316 
L 121.389056 -200.903195 
L 121.888915 -201.677074 
L 122.389307 -202.450954 
L 122.881805 -203.224833 
L 123.358835 -203.998713 
L 123.814657 -204.772592 
L 124.246039 -205.546471 
L 124.65253 -206.320351 
L 125.036314 -207.09423 
L 125.401697 -207.868109 
L 125.754348 -208.641989 
L 126.100411 -209.415868 
L 126.445639 -210.189747 
L 126.794648 -210.963627 
L 127.150378 -211.737506 
L 127.513795 -212.511385 
L 127.883843 -213.285265 
L 128.257618 -214.059144 
L 128.630714 -214.833023 
L 128.997706 -215.606903 
L 134.319883 -215.606903 
L 134.319883 -215.606903 
L 134.686875 -214.833023 
L 135.059972 -214.059144 
L 135.433746 -213.285265 
L 135.803795 -212.511385 
L 136.167212 -211.737506 
L 136.522941 -210.963627 
L 136.87195 -210.189747 
L 137.217178 -209.415868 
L 137.563241 -208.641989 
L 137.915892 -207.868109 
L 138.281275 -207.09423 
L 138.665059 -206.320351 
L 139.07155 -205.546471 
L 139.502932 -204.772592 
L 139.958754 -203.998713 
L 140.435784 -203.224833 
L 140.928283 -202.450954 
L 141.428674 -201.677074 
L 141.928533 -200.903195 
L 142.419713 -200.129316 
L 142.895426 -199.355436 
L 143.351061 -198.581557 
L 143.784575 -197.807678 
L 144.196354 -197.033798 
L 144.588558 -196.259919 
L 144.964035 -195.48604 
L 145.324992 -194.71216 
L 145.671653 -193.938281 
L 146.001154 -193.164402 
L 146.306865 -192.390522 
L 146.578286 -191.616643 
L 146.801563 -190.842763 
L 146.960565 -190.068884 
L 147.038386 -189.295005 
L 147.019083 -188.521125 
L 146.889405 -187.747246 
L 146.640319 -186.973367 
L 146.268125 -186.199487 
L 145.77505 -185.425608 
L 145.169273 -184.651729 
L 144.464396 -183.877849 
L 143.678459 -183.10397 
L 142.832625 -182.330091 
L 141.949719 -181.556211 
L 141.052748 -180.782332 
L 140.163584 -180.008453 
L 139.301865 -179.234573 
L 138.484216 -178.460694 
L 137.723754 -177.686814 
L 137.029887 -176.912935 
L 136.408338 -176.139056 
L 135.861347 -175.365176 
L 135.388011 -174.591297 
L 134.984713 -173.817418 
L 134.645633 -173.043538 
L 134.363319 -172.269659 
L 134.129308 -171.49578 
L 133.934769 -170.7219 
L 133.771132 -169.948021 
L 133.630665 -169.174142 
L 133.506934 -168.400262 
L 133.395106 -167.626383 
L 133.292065 -166.852503 
L 133.196327 -166.078624 
L 133.10777 -165.304745 
L 133.027218 -164.530865 
L 132.955951 -163.756986 
L 132.895195 -162.983107 
L 132.845668 -162.209227 
L 132.807254 -161.435348 
L 132.778823 -160.661469 
L 132.758237 -159.887589 
L 132.742521 -159.11371 
L 132.728171 -158.339831 
L 132.711553 -157.565951 
L 132.689322 -156.792072 
L 132.658812 -156.018193 
L 132.618333 -155.244313 
L 132.567343 -154.470434 
L 132.506483 -153.696554 
L 132.437466 -152.922675 
L 132.36286 -152.148796 
L 132.285796 -151.374916 
L 132.209636 -150.601037 
L 132.137654 -149.827158 
L 132.072754 -149.053278 
L 132.017248 -148.279399 
L 131.972712 -147.50552 
L 131.939903 -146.73164 
L 131.918759 -145.957761 
L 131.908445 -145.183882 
L 131.907455 -144.410002 
L 131.913752 -143.636123 
L 131.924938 -142.862243 
L 131.938452 -142.088364 
L 131.95177 -141.314485 
L 131.962605 -140.540605 
L 131.969084 -139.766726 
L 131.969881 -138.992847 
z
" style="stroke: #000000; stroke-opacity: 0.7"/>
    </defs>
    <g clip-path="url(#p2c27eef0e6)">
     <use xlink:href="#m065b4a817f" x="0" y="319.97208" style="fill: #e78ac3; fill-opacity: 0.7; stroke: #000000; stroke-opacity: 0.7"/>
    </g>
   </g>
   <g id="PolyCollection_3">
    <defs>
     <path id="mae5b13ee60" d="M 186.234221 -67.829593 
L 184.740511 -67.829593 
L 184.688551 -69.39341 
L 184.646125 -70.957228 
L 184.614427 -72.521045 
L 184.593864 -74.084863 
L 184.583948 -75.64868 
L 184.583253 -77.212498 
L 184.58947 -78.776315 
L 184.599546 -80.340133 
L 184.609915 -81.90395 
L 184.616785 -83.467768 
L 184.616454 -85.031585 
L 184.605622 -86.595403 
L 184.58166 -88.15922 
L 184.5428 -89.723038 
L 184.48822 -91.286855 
L 184.418027 -92.850673 
L 184.333127 -94.41449 
L 184.235014 -95.978307 
L 184.125508 -97.542125 
L 184.006478 -99.105942 
L 183.879585 -100.66976 
L 183.746084 -102.233577 
L 183.606694 -103.797395 
L 183.461555 -105.361212 
L 183.310251 -106.92503 
L 183.151881 -108.488847 
L 182.985164 -110.052665 
L 182.80853 -111.616482 
L 182.620196 -113.1803 
L 182.418206 -114.744117 
L 182.200438 -116.307935 
L 181.964591 -117.871752 
L 181.708189 -119.43557 
L 181.428607 -120.999387 
L 181.123168 -122.563204 
L 180.789304 -124.127022 
L 180.424806 -125.690839 
L 180.028111 -127.254657 
L 179.598633 -128.818474 
L 179.137039 -130.382292 
L 178.645465 -131.946109 
L 178.127573 -133.509927 
L 177.58846 -135.073744 
L 177.034372 -136.637562 
L 176.472276 -138.201379 
L 175.90932 -139.765197 
L 175.352272 -141.329014 
L 174.80703 -142.892832 
L 174.278275 -144.456649 
L 173.769344 -146.020467 
L 173.28235 -147.584284 
L 172.818537 -149.148101 
L 172.378811 -150.711919 
L 171.964366 -152.275736 
L 171.577289 -153.839554 
L 171.22104 -155.403371 
L 170.900715 -156.967189 
L 170.623044 -158.531006 
L 170.396092 -160.094824 
L 170.228725 -161.658641 
L 170.129885 -163.222459 
L 170.107774 -164.786276 
L 170.169061 -166.350094 
L 170.318185 -167.913911 
L 170.556848 -169.477729 
L 170.883731 -171.041546 
L 171.29445 -172.605364 
L 171.781753 -174.169181 
L 172.335901 -175.732998 
L 172.945209 -177.296816 
L 173.596679 -178.860633 
L 174.276675 -180.424451 
L 174.971589 -181.988268 
L 175.668457 -183.552086 
L 176.355486 -185.115903 
L 177.022471 -186.679721 
L 177.661078 -188.243538 
L 178.264997 -189.807356 
L 178.829951 -191.371173 
L 179.353593 -192.934991 
L 179.835303 -194.498808 
L 180.275912 -196.062626 
L 180.67739 -197.626443 
L 181.042524 -199.190261 
L 181.374618 -200.754078 
L 181.677227 -202.317895 
L 181.953952 -203.881713 
L 182.208279 -205.44553 
L 182.443482 -207.009348 
L 182.662556 -208.573165 
L 182.868187 -210.136983 
L 183.062733 -211.7008 
L 183.248207 -213.264618 
L 183.426267 -214.828435 
L 183.598189 -216.392253 
L 183.764849 -217.95607 
L 183.926704 -219.519888 
L 184.083798 -221.083705 
L 184.235783 -222.647523 
L 186.73895 -222.647523 
L 186.73895 -222.647523 
L 186.890934 -221.083705 
L 187.048028 -219.519888 
L 187.209883 -217.95607 
L 187.376543 -216.392253 
L 187.548465 -214.828435 
L 187.726525 -213.264618 
L 187.911999 -211.7008 
L 188.106545 -210.136983 
L 188.312176 -208.573165 
L 188.53125 -207.009348 
L 188.766453 -205.44553 
L 189.020781 -203.881713 
L 189.297505 -202.317895 
L 189.600114 -200.754078 
L 189.932208 -199.190261 
L 190.297342 -197.626443 
L 190.69882 -196.062626 
L 191.139429 -194.498808 
L 191.621139 -192.934991 
L 192.144781 -191.371173 
L 192.709735 -189.807356 
L 193.313654 -188.243538 
L 193.952262 -186.679721 
L 194.619246 -185.115903 
L 195.306275 -183.552086 
L 196.003143 -181.988268 
L 196.698057 -180.424451 
L 197.378053 -178.860633 
L 198.029524 -177.296816 
L 198.638832 -175.732998 
L 199.192979 -174.169181 
L 199.680282 -172.605364 
L 200.091002 -171.041546 
L 200.417884 -169.477729 
L 200.656547 -167.913911 
L 200.805671 -166.350094 
L 200.866958 -164.786276 
L 200.844847 -163.222459 
L 200.746007 -161.658641 
L 200.57864 -160.094824 
L 200.351688 -158.531006 
L 200.074017 -156.967189 
L 199.753693 -155.403371 
L 199.397443 -153.839554 
L 199.010366 -152.275736 
L 198.595921 -150.711919 
L 198.156195 -149.148101 
L 197.692382 -147.584284 
L 197.205389 -146.020467 
L 196.696457 -144.456649 
L 196.167702 -142.892832 
L 195.62246 -141.329014 
L 195.065413 -139.765197 
L 194.502456 -138.201379 
L 193.94036 -136.637562 
L 193.386272 -135.073744 
L 192.847159 -133.509927 
L 192.329267 -131.946109 
L 191.837693 -130.382292 
L 191.376099 -128.818474 
L 190.946621 -127.254657 
L 190.549927 -125.690839 
L 190.185428 -124.127022 
L 189.851565 -122.563204 
L 189.546125 -120.999387 
L 189.266544 -119.43557 
L 189.010141 -117.871752 
L 188.774295 -116.307935 
L 188.556526 -114.744117 
L 188.354536 -113.1803 
L 188.166203 -111.616482 
L 187.989568 -110.052665 
L 187.822851 -108.488847 
L 187.664481 -106.92503 
L 187.513177 -105.361212 
L 187.368038 -103.797395 
L 187.228648 -102.233577 
L 187.095147 -100.66976 
L 186.968254 -99.105942 
L 186.849224 -97.542125 
L 186.739719 -95.978307 
L 186.641605 -94.41449 
L 186.556705 -92.850673 
L 186.486512 -91.286855 
L 186.431932 -89.723038 
L 186.393072 -88.15922 
L 186.36911 -86.595403 
L 186.358278 -85.031585 
L 186.357947 -83.467768 
L 186.364817 -81.90395 
L 186.375186 -80.340133 
L 186.385263 -78.776315 
L 186.391479 -77.212498 
L 186.390784 -75.64868 
L 186.380868 -74.084863 
L 186.360305 -72.521045 
L 186.328607 -70.957228 
L 186.286181 -69.39341 
L 186.234221 -67.829593 
z
" style="stroke: #000000; stroke-opacity: 0.7"/>
    </defs>
    <g clip-path="url(#p2c27eef0e6)">
     <use xlink:href="#mae5b13ee60" x="0" y="319.97208" style="fill: #d62728; fill-opacity: 0.7; stroke: #000000; stroke-opacity: 0.7"/>
    </g>
   </g>
   <g id="PolyCollection_4">
    <defs>
     <path id="ma5e94607e7" d="M 239.857911 -155.042432 
L 238.773964 -155.042432 
L 238.713616 -156.149721 
L 238.647546 -157.257011 
L 238.575012 -158.364301 
L 238.495493 -159.471591 
L 238.40881 -160.578881 
L 238.315227 -161.686171 
L 238.21549 -162.79346 
L 238.110818 -163.90075 
L 238.002814 -165.00804 
L 237.893319 -166.11533 
L 237.784221 -167.22262 
L 237.677238 -168.32991 
L 237.573697 -169.437199 
L 237.47436 -170.544489 
L 237.379291 -171.651779 
L 237.287803 -172.759069 
L 237.198485 -173.866359 
L 237.109299 -174.973648 
L 237.017742 -176.080938 
L 236.921048 -177.188228 
L 236.816401 -178.295518 
L 236.701151 -179.402808 
L 236.572985 -180.510098 
L 236.430069 -181.617387 
L 236.271118 -182.724677 
L 236.095426 -183.831967 
L 235.90283 -184.939257 
L 235.693632 -186.046547 
L 235.468492 -187.153837 
L 235.228292 -188.261126 
L 234.973996 -189.368416 
L 234.706513 -190.475706 
L 234.42658 -191.582996 
L 234.134665 -192.690286 
L 233.830913 -193.797576 
L 233.515122 -194.904865 
L 233.186768 -196.012155 
L 232.845059 -197.119445 
L 232.489019 -198.226735 
L 232.117601 -199.334025 
L 231.729793 -200.441315 
L 231.324744 -201.548604 
L 230.901869 -202.655894 
L 230.460968 -203.763184 
L 230.002331 -204.870474 
L 229.526864 -205.977764 
L 229.036227 -207.085053 
L 228.532983 -208.192343 
L 228.020763 -209.299633 
L 227.504413 -210.406923 
L 226.990097 -211.514213 
L 226.485324 -212.621503 
L 225.998862 -213.728792 
L 225.540504 -214.836082 
L 225.120692 -215.943372 
L 224.750008 -217.050662 
L 224.438559 -218.157952 
L 224.195338 -219.265242 
L 224.027617 -220.372531 
L 223.94045 -221.479821 
L 223.936346 -222.587111 
L 224.015159 -223.694401 
L 224.174198 -224.801691 
L 224.40853 -225.908981 
L 224.711447 -227.01627 
L 225.075014 -228.12356 
L 225.490624 -229.23085 
L 225.949509 -230.33814 
L 226.443136 -231.44543 
L 226.963471 -232.55272 
L 227.503113 -233.660009 
L 228.055299 -234.767299 
L 228.613842 -235.874589 
L 229.173028 -236.981879 
L 229.727525 -238.089169 
L 230.272334 -239.196459 
L 230.802808 -240.303748 
L 231.314727 -241.411038 
L 231.804438 -242.518328 
L 232.269017 -243.625618 
L 232.706425 -244.732908 
L 233.115637 -245.840197 
L 233.496705 -246.947487 
L 233.850745 -248.054777 
L 234.17984 -249.162067 
L 234.486863 -250.269357 
L 234.775237 -251.376647 
L 235.048654 -252.483936 
L 235.310777 -253.591226 
L 235.564964 -254.698516 
L 235.814022 -255.805806 
L 236.060029 -256.913096 
L 236.304222 -258.020386 
L 236.546972 -259.127675 
L 236.787828 -260.234965 
L 237.02563 -261.342255 
L 237.258672 -262.449545 
L 237.484891 -263.556835 
L 237.702077 -264.664125 
L 240.929798 -264.664125 
L 240.929798 -264.664125 
L 241.146984 -263.556835 
L 241.373203 -262.449545 
L 241.606245 -261.342255 
L 241.844047 -260.234965 
L 242.084903 -259.127675 
L 242.327653 -258.020386 
L 242.571846 -256.913096 
L 242.817853 -255.805806 
L 243.066911 -254.698516 
L 243.321098 -253.591226 
L 243.583221 -252.483936 
L 243.856638 -251.376647 
L 244.145012 -250.269357 
L 244.452035 -249.162067 
L 244.78113 -248.054777 
L 245.13517 -246.947487 
L 245.516238 -245.840197 
L 245.92545 -244.732908 
L 246.362858 -243.625618 
L 246.827437 -242.518328 
L 247.317148 -241.411038 
L 247.829067 -240.303748 
L 248.359541 -239.196459 
L 248.90435 -238.089169 
L 249.458847 -236.981879 
L 250.018033 -235.874589 
L 250.576576 -234.767299 
L 251.128762 -233.660009 
L 251.668404 -232.55272 
L 252.188739 -231.44543 
L 252.682366 -230.33814 
L 253.141251 -229.23085 
L 253.556861 -228.12356 
L 253.920428 -227.01627 
L 254.223345 -225.908981 
L 254.457677 -224.801691 
L 254.616716 -223.694401 
L 254.695529 -222.587111 
L 254.691425 -221.479821 
L 254.604258 -220.372531 
L 254.436537 -219.265242 
L 254.193316 -218.157952 
L 253.881867 -217.050662 
L 253.511183 -215.943372 
L 253.091371 -214.836082 
L 252.633013 -213.728792 
L 252.146551 -212.621503 
L 251.641778 -211.514213 
L 251.127462 -210.406923 
L 250.611112 -209.299633 
L 250.098892 -208.192343 
L 249.595648 -207.085053 
L 249.105011 -205.977764 
L 248.629544 -204.870474 
L 248.170907 -203.763184 
L 247.730006 -202.655894 
L 247.307131 -201.548604 
L 246.902082 -200.441315 
L 246.514274 -199.334025 
L 246.142856 -198.226735 
L 245.786816 -197.119445 
L 245.445107 -196.012155 
L 245.116753 -194.904865 
L 244.800962 -193.797576 
L 244.49721 -192.690286 
L 244.205295 -191.582996 
L 243.925362 -190.475706 
L 243.657879 -189.368416 
L 243.403583 -188.261126 
L 243.163383 -187.153837 
L 242.938243 -186.046547 
L 242.729045 -184.939257 
L 242.536449 -183.831967 
L 242.360757 -182.724677 
L 242.201806 -181.617387 
L 242.05889 -180.510098 
L 241.930724 -179.402808 
L 241.815474 -178.295518 
L 241.710827 -177.188228 
L 241.614133 -176.080938 
L 241.522576 -174.973648 
L 241.43339 -173.866359 
L 241.344072 -172.759069 
L 241.252584 -171.651779 
L 241.157515 -170.544489 
L 241.058178 -169.437199 
L 240.954637 -168.32991 
L 240.847654 -167.22262 
L 240.738556 -166.11533 
L 240.629061 -165.00804 
L 240.521057 -163.90075 
L 240.416385 -162.79346 
L 240.316648 -161.686171 
L 240.223065 -160.578881 
L 240.136382 -159.471591 
L 240.056863 -158.364301 
L 239.984329 -157.257011 
L 239.918259 -156.149721 
L 239.857911 -155.042432 
z
" style="stroke: #000000; stroke-opacity: 0.7"/>
    </defs>
    <g clip-path="url(#p2c27eef0e6)">
     <use xlink:href="#ma5e94607e7" x="0" y="319.97208" style="fill: #8c564b; fill-opacity: 0.7; stroke: #000000; stroke-opacity: 0.7"/>
    </g>
   </g>
   <g id="PolyCollection_5">
    <defs>
     <path id="mbb4d323aac" d="M 294.232949 -136.721679 
L 292.056068 -136.721679 
L 291.969403 -138.067556 
L 291.885007 -139.413433 
L 291.802466 -140.75931 
L 291.720934 -142.105188 
L 291.639215 -143.451065 
L 291.555891 -144.796942 
L 291.469458 -146.142819 
L 291.378482 -147.488696 
L 291.28174 -148.834573 
L 291.178351 -150.18045 
L 291.067869 -151.526328 
L 290.950347 -152.872205 
L 290.826359 -154.218082 
L 290.696984 -155.563959 
L 290.563752 -156.909836 
L 290.42854 -158.255713 
L 290.293441 -159.60159 
L 290.160591 -160.947468 
L 290.031966 -162.293345 
L 289.909149 -163.639222 
L 289.793096 -164.985099 
L 289.6839 -166.330976 
L 289.580587 -167.676853 
L 289.480965 -169.02273 
L 289.381543 -170.368608 
L 289.277564 -171.714485 
L 289.163136 -173.060362 
L 289.031496 -174.406239 
L 288.875374 -175.752116 
L 288.687456 -177.097993 
L 288.460889 -178.44387 
L 288.189804 -179.789747 
L 287.869787 -181.135625 
L 287.498264 -182.481502 
L 287.074746 -183.827379 
L 286.60092 -185.173256 
L 286.080576 -186.519133 
L 285.519375 -187.86501 
L 284.924512 -189.210887 
L 284.30431 -190.556765 
L 283.667796 -191.902642 
L 283.024319 -193.248519 
L 282.383239 -194.594396 
L 281.753713 -195.940273 
L 281.144563 -197.28615 
L 280.564223 -198.632027 
L 280.020706 -199.977905 
L 279.521583 -201.323782 
L 279.073919 -202.669659 
L 278.684161 -204.015536 
L 278.357979 -205.361413 
L 278.100077 -206.70729 
L 277.914002 -208.053167 
L 277.801995 -209.399045 
L 277.764917 -210.744922 
L 277.802254 -212.090799 
L 277.912222 -213.436676 
L 278.091951 -214.782553 
L 278.337708 -216.12843 
L 278.645135 -217.474307 
L 279.009461 -218.820185 
L 279.425649 -220.166062 
L 279.888483 -221.511939 
L 280.392575 -222.857816 
L 280.932319 -224.203693 
L 281.501818 -225.54957 
L 282.094812 -226.895447 
L 282.704639 -228.241324 
L 283.324257 -229.587202 
L 283.946328 -230.933079 
L 284.563392 -232.278956 
L 285.168088 -233.624833 
L 285.753432 -234.97071 
L 286.313111 -236.316587 
L 286.841763 -237.662464 
L 287.335226 -239.008342 
L 287.790705 -240.354219 
L 288.206868 -241.700096 
L 288.583837 -243.045973 
L 288.923074 -244.39185 
L 289.227185 -245.737727 
L 289.499651 -247.083604 
L 289.744512 -248.429482 
L 289.966037 -249.775359 
L 290.168414 -251.121236 
L 290.35549 -252.467113 
L 290.530576 -253.81299 
L 290.696335 -255.158867 
L 290.854751 -256.504744 
L 291.007175 -257.850622 
L 291.15442 -259.196499 
L 291.296893 -260.542376 
L 291.434732 -261.888253 
L 291.567928 -263.23413 
L 291.696422 -264.580007 
L 291.820162 -265.925884 
L 291.939119 -267.271762 
L 292.05328 -268.617639 
L 292.162613 -269.963516 
L 294.126405 -269.963516 
L 294.126405 -269.963516 
L 294.235738 -268.617639 
L 294.349898 -267.271762 
L 294.468856 -265.925884 
L 294.592596 -264.580007 
L 294.72109 -263.23413 
L 294.854286 -261.888253 
L 294.992124 -260.542376 
L 295.134597 -259.196499 
L 295.281842 -257.850622 
L 295.434266 -256.504744 
L 295.592683 -255.158867 
L 295.758442 -253.81299 
L 295.933528 -252.467113 
L 296.120604 -251.121236 
L 296.322981 -249.775359 
L 296.544506 -248.429482 
L 296.789367 -247.083604 
L 297.061833 -245.737727 
L 297.365944 -244.39185 
L 297.705181 -243.045973 
L 298.082149 -241.700096 
L 298.498313 -240.354219 
L 298.953792 -239.008342 
L 299.447255 -237.662464 
L 299.975907 -236.316587 
L 300.535586 -234.97071 
L 301.12093 -233.624833 
L 301.725626 -232.278956 
L 302.34269 -230.933079 
L 302.964761 -229.587202 
L 303.584379 -228.241324 
L 304.194206 -226.895447 
L 304.7872 -225.54957 
L 305.356699 -224.203693 
L 305.896443 -222.857816 
L 306.400534 -221.511939 
L 306.863369 -220.166062 
L 307.279557 -218.820185 
L 307.643883 -217.474307 
L 307.95131 -216.12843 
L 308.197067 -214.782553 
L 308.376796 -213.436676 
L 308.486764 -212.090799 
L 308.524101 -210.744922 
L 308.487023 -209.399045 
L 308.375016 -208.053167 
L 308.188941 -206.70729 
L 307.931038 -205.361413 
L 307.604857 -204.015536 
L 307.215099 -202.669659 
L 306.767435 -201.323782 
L 306.268312 -199.977905 
L 305.724795 -198.632027 
L 305.144455 -197.28615 
L 304.535305 -195.940273 
L 303.905779 -194.594396 
L 303.264699 -193.248519 
L 302.621222 -191.902642 
L 301.984708 -190.556765 
L 301.364506 -189.210887 
L 300.769643 -187.86501 
L 300.208442 -186.519133 
L 299.688097 -185.173256 
L 299.214272 -183.827379 
L 298.790754 -182.481502 
L 298.419231 -181.135625 
L 298.099214 -179.789747 
L 297.828129 -178.44387 
L 297.601562 -177.097993 
L 297.413644 -175.752116 
L 297.257522 -174.406239 
L 297.125882 -173.060362 
L 297.011454 -171.714485 
L 296.907475 -170.368608 
L 296.808053 -169.02273 
L 296.70843 -167.676853 
L 296.605118 -166.330976 
L 296.495922 -164.985099 
L 296.379869 -163.639222 
L 296.257052 -162.293345 
L 296.128426 -160.947468 
L 295.995577 -159.60159 
L 295.860478 -158.255713 
L 295.725266 -156.909836 
L 295.592033 -155.563959 
L 295.462659 -154.218082 
L 295.338671 -152.872205 
L 295.221149 -151.526328 
L 295.110667 -150.18045 
L 295.007278 -148.834573 
L 294.910536 -147.488696 
L 294.81956 -146.142819 
L 294.733127 -144.796942 
L 294.649802 -143.451065 
L 294.568084 -142.105188 
L 294.486551 -140.75931 
L 294.40401 -139.413433 
L 294.319615 -138.067556 
L 294.232949 -136.721679 
z
" style="stroke: #000000; stroke-opacity: 0.7"/>
    </defs>
    <g clip-path="url(#p2c27eef0e6)">
     <use xlink:href="#mbb4d323aac" x="0" y="319.97208" style="fill: #b3b3b3; fill-opacity: 0.7; stroke: #000000; stroke-opacity: 0.7"/>
    </g>
   </g>
   <g id="PolyCollection_6">
    <defs>
     <path id="m2b747379ff" d="M 347.30899 -107.34791 
L 346.637171 -107.34791 
L 346.641516 -108.613494 
L 346.654238 -109.879077 
L 346.674344 -111.14466 
L 346.700316 -112.410244 
L 346.730277 -113.675827 
L 346.762183 -114.94141 
L 346.794004 -116.206994 
L 346.823863 -117.472577 
L 346.85011 -118.73816 
L 346.871329 -120.003744 
L 346.886281 -121.269327 
L 346.893803 -122.53491 
L 346.892675 -123.800494 
L 346.8815 -125.066077 
L 346.858609 -126.33166 
L 346.822024 -127.597244 
L 346.769477 -128.862827 
L 346.698505 -130.12841 
L 346.606603 -131.393994 
L 346.491422 -132.659577 
L 346.350978 -133.92516 
L 346.183864 -135.190744 
L 345.98941 -136.456327 
L 345.767799 -137.72191 
L 345.520114 -138.987494 
L 345.248329 -140.253077 
L 344.955249 -141.51866 
L 344.644425 -142.784244 
L 344.320044 -144.049827 
L 343.986811 -145.31541 
L 343.649808 -146.580994 
L 343.314314 -147.846577 
L 342.985579 -149.11216 
L 342.668515 -150.377744 
L 342.367335 -151.643327 
L 342.08513 -152.90891 
L 341.823436 -154.174494 
L 341.581829 -155.440077 
L 341.357616 -156.70566 
L 341.145672 -157.971244 
L 340.938473 -159.236827 
L 340.726382 -160.50241 
L 340.498181 -161.767994 
L 340.241877 -163.033577 
L 339.945722 -164.29916 
L 339.599398 -165.564744 
L 339.195246 -166.830327 
L 338.729397 -168.09591 
L 338.202663 -169.361494 
L 337.621006 -170.627077 
L 336.995485 -171.89266 
L 336.341599 -173.158244 
L 335.678063 -174.423827 
L 335.025124 -175.68941 
L 334.402633 -176.954994 
L 333.828135 -178.220577 
L 333.315264 -179.48616 
L 332.872697 -180.751744 
L 332.503831 -182.017327 
L 332.207237 -183.28291 
L 331.977792 -184.548494 
L 331.808299 -185.814077 
L 331.691305 -187.07966 
L 331.620794 -188.345244 
L 331.593489 -189.610827 
L 331.609562 -190.87641 
L 331.67267 -192.141994 
L 331.789342 -193.407577 
L 331.96787 -194.67316 
L 332.21689 -195.938744 
L 332.543881 -197.204327 
L 332.953794 -198.46991 
L 333.447979 -199.735494 
L 334.023531 -201.001077 
L 334.673093 -202.26666 
L 335.385134 -203.532244 
L 336.144645 -204.797827 
L 336.934164 -206.06341 
L 337.735019 -207.328994 
L 338.528655 -208.594577 
L 339.29791 -209.86016 
L 340.028109 -211.125744 
L 340.707875 -212.391327 
L 341.329602 -213.65691 
L 341.889552 -214.922494 
L 342.387624 -216.188077 
L 342.82683 -217.45366 
L 343.212592 -218.719244 
L 343.551927 -219.984827 
L 343.852627 -221.25041 
L 344.122515 -222.515994 
L 344.36881 -223.781577 
L 344.597667 -225.04716 
L 344.813887 -226.312744 
L 345.020798 -227.578327 
L 345.220293 -228.84391 
L 345.412995 -230.109494 
L 345.598507 -231.375077 
L 345.775715 -232.64066 
L 348.170446 -232.64066 
L 348.170446 -232.64066 
L 348.347654 -231.375077 
L 348.533166 -230.109494 
L 348.725868 -228.84391 
L 348.925363 -227.578327 
L 349.132273 -226.312744 
L 349.348493 -225.04716 
L 349.577351 -223.781577 
L 349.823646 -222.515994 
L 350.093533 -221.25041 
L 350.394234 -219.984827 
L 350.733569 -218.719244 
L 351.119331 -217.45366 
L 351.558537 -216.188077 
L 352.056608 -214.922494 
L 352.616559 -213.65691 
L 353.238286 -212.391327 
L 353.918052 -211.125744 
L 354.64825 -209.86016 
L 355.417505 -208.594577 
L 356.211142 -207.328994 
L 357.011997 -206.06341 
L 357.801516 -204.797827 
L 358.561027 -203.532244 
L 359.273068 -202.26666 
L 359.922629 -201.001077 
L 360.498181 -199.735494 
L 360.992367 -198.46991 
L 361.40228 -197.204327 
L 361.729271 -195.938744 
L 361.978291 -194.67316 
L 362.156819 -193.407577 
L 362.27349 -192.141994 
L 362.336598 -190.87641 
L 362.352672 -189.610827 
L 362.325367 -188.345244 
L 362.254856 -187.07966 
L 362.137862 -185.814077 
L 361.968369 -184.548494 
L 361.738923 -183.28291 
L 361.442329 -182.017327 
L 361.073464 -180.751744 
L 360.630897 -179.48616 
L 360.118026 -178.220577 
L 359.543527 -176.954994 
L 358.921036 -175.68941 
L 358.268098 -174.423827 
L 357.604562 -173.158244 
L 356.950676 -171.89266 
L 356.325155 -170.627077 
L 355.743498 -169.361494 
L 355.216764 -168.09591 
L 354.750915 -166.830327 
L 354.346763 -165.564744 
L 354.000439 -164.29916 
L 353.704284 -163.033577 
L 353.44798 -161.767994 
L 353.219779 -160.50241 
L 353.007687 -159.236827 
L 352.800489 -157.971244 
L 352.588544 -156.70566 
L 352.364332 -155.440077 
L 352.122725 -154.174494 
L 351.86103 -152.90891 
L 351.578826 -151.643327 
L 351.277646 -150.377744 
L 350.960582 -149.11216 
L 350.631846 -147.846577 
L 350.296353 -146.580994 
L 349.95935 -145.31541 
L 349.626117 -144.049827 
L 349.301736 -142.784244 
L 348.990912 -141.51866 
L 348.697832 -140.253077 
L 348.426047 -138.987494 
L 348.178362 -137.72191 
L 347.956751 -136.456327 
L 347.762296 -135.190744 
L 347.595182 -133.92516 
L 347.454739 -132.659577 
L 347.339557 -131.393994 
L 347.247656 -130.12841 
L 347.176684 -128.862827 
L 347.124137 -127.597244 
L 347.087551 -126.33166 
L 347.064661 -125.066077 
L 347.053485 -123.800494 
L 347.052357 -122.53491 
L 347.059879 -121.269327 
L 347.074832 -120.003744 
L 347.096051 -118.73816 
L 347.122298 -117.472577 
L 347.152157 -116.206994 
L 347.183978 -114.94141 
L 347.215884 -113.675827 
L 347.245844 -112.410244 
L 347.271816 -111.14466 
L 347.291923 -109.879077 
L 347.304645 -108.613494 
L 347.30899 -107.34791 
z
" style="stroke: #000000; stroke-opacity: 0.7"/>
    </defs>
    <g clip-path="url(#p2c27eef0e6)">
     <use xlink:href="#m2b747379ff" x="0" y="319.97208" style="fill: #9467bd; fill-opacity: 0.7; stroke: #000000; stroke-opacity: 0.7"/>
    </g>
   </g>
   <g id="PolyCollection_7">
    <defs>
     <path id="mf25b7bc7cb" d="M 401.753863 -81.456599 
L 399.84944 -81.456599 
L 399.784969 -82.527183 
L 399.729151 -83.597767 
L 399.68289 -84.668351 
L 399.646541 -85.738935 
L 399.619886 -86.809519 
L 399.602142 -87.880104 
L 399.592016 -88.950688 
L 399.587779 -90.021272 
L 399.587364 -91.091856 
L 399.588488 -92.16244 
L 399.588757 -93.233024 
L 399.585782 -94.303608 
L 399.577255 -95.374192 
L 399.561017 -96.444776 
L 399.535073 -97.51536 
L 399.497582 -98.585944 
L 399.446804 -99.656529 
L 399.381024 -100.727113 
L 399.298455 -101.797697 
L 399.197143 -102.868281 
L 399.07488 -103.938865 
L 398.929156 -105.009449 
L 398.757149 -106.080033 
L 398.555783 -107.150617 
L 398.321842 -108.221201 
L 398.052156 -109.291785 
L 397.743837 -110.362369 
L 397.394565 -111.432953 
L 397.002885 -112.503538 
L 396.568506 -113.574122 
L 396.092545 -114.644706 
L 395.577705 -115.71529 
L 395.028342 -116.785874 
L 394.450407 -117.856458 
L 393.851252 -118.927042 
L 393.239305 -119.997626 
L 392.623635 -121.06821 
L 392.013441 -122.138794 
L 391.417514 -123.209378 
L 390.843713 -124.279963 
L 390.298513 -125.350547 
L 389.786664 -126.421131 
L 389.310994 -127.491715 
L 388.872375 -128.562299 
L 388.469865 -129.632883 
L 388.100999 -130.703467 
L 387.762228 -131.774051 
L 387.449449 -132.844635 
L 387.158585 -133.915219 
L 386.886177 -134.985803 
L 386.629897 -136.056387 
L 386.388966 -137.126972 
L 386.164405 -138.197556 
L 385.959096 -139.26814 
L 385.777656 -140.338724 
L 385.626116 -141.409308 
L 385.511457 -142.479892 
L 385.44105 -143.550476 
L 385.42206 -144.62106 
L 385.460882 -145.691644 
L 385.562656 -146.762228 
L 385.730909 -147.832812 
L 385.967326 -148.903397 
L 386.271661 -149.973981 
L 386.641766 -151.044565 
L 387.073703 -152.115149 
L 387.561923 -153.185733 
L 388.099482 -154.256317 
L 388.678291 -155.326901 
L 389.289377 -156.397485 
L 389.923179 -157.468069 
L 390.569865 -158.538653 
L 391.219674 -159.609237 
L 391.863263 -160.679822 
L 392.49205 -161.750406 
L 393.098514 -162.82099 
L 393.676422 -163.891574 
L 394.22097 -164.962158 
L 394.728809 -166.032742 
L 395.197977 -167.103326 
L 395.627736 -168.17391 
L 396.018363 -169.244494 
L 396.370927 -170.315078 
L 396.687083 -171.385662 
L 396.96892 -172.456246 
L 397.218873 -173.526831 
L 397.439693 -174.597415 
L 397.634457 -175.667999 
L 397.806592 -176.738583 
L 397.959875 -177.809167 
L 398.098387 -178.879751 
L 398.226395 -179.950335 
L 398.348173 -181.020919 
L 398.467769 -182.091503 
L 398.588739 -183.162087 
L 398.713908 -184.232671 
L 398.845159 -185.303256 
L 398.983318 -186.37384 
L 399.128127 -187.444424 
L 402.475177 -187.444424 
L 402.475177 -187.444424 
L 402.619985 -186.37384 
L 402.758144 -185.303256 
L 402.889396 -184.232671 
L 403.014564 -183.162087 
L 403.135535 -182.091503 
L 403.25513 -181.020919 
L 403.376909 -179.950335 
L 403.504917 -178.879751 
L 403.643428 -177.809167 
L 403.796712 -176.738583 
L 403.968847 -175.667999 
L 404.163611 -174.597415 
L 404.384431 -173.526831 
L 404.634384 -172.456246 
L 404.916221 -171.385662 
L 405.232376 -170.315078 
L 405.58494 -169.244494 
L 405.975568 -168.17391 
L 406.405326 -167.103326 
L 406.874494 -166.032742 
L 407.382334 -164.962158 
L 407.926882 -163.891574 
L 408.50479 -162.82099 
L 409.111254 -161.750406 
L 409.740041 -160.679822 
L 410.38363 -159.609237 
L 411.033438 -158.538653 
L 411.680125 -157.468069 
L 412.313927 -156.397485 
L 412.925013 -155.326901 
L 413.503821 -154.256317 
L 414.041381 -153.185733 
L 414.5296 -152.115149 
L 414.961537 -151.044565 
L 415.331642 -149.973981 
L 415.635978 -148.903397 
L 415.872395 -147.832812 
L 416.040647 -146.762228 
L 416.142422 -145.691644 
L 416.181244 -144.62106 
L 416.162254 -143.550476 
L 416.091847 -142.479892 
L 415.977187 -141.409308 
L 415.825647 -140.338724 
L 415.644207 -139.26814 
L 415.438899 -138.197556 
L 415.214338 -137.126972 
L 414.973407 -136.056387 
L 414.717127 -134.985803 
L 414.444718 -133.915219 
L 414.153855 -132.844635 
L 413.841075 -131.774051 
L 413.502305 -130.703467 
L 413.133439 -129.632883 
L 412.730928 -128.562299 
L 412.29231 -127.491715 
L 411.816639 -126.421131 
L 411.30479 -125.350547 
L 410.759591 -124.279963 
L 410.18579 -123.209378 
L 409.589863 -122.138794 
L 408.979669 -121.06821 
L 408.363998 -119.997626 
L 407.752051 -118.927042 
L 407.152896 -117.856458 
L 406.574961 -116.785874 
L 406.025599 -115.71529 
L 405.510759 -114.644706 
L 405.034798 -113.574122 
L 404.600419 -112.503538 
L 404.208739 -111.432953 
L 403.859466 -110.362369 
L 403.551147 -109.291785 
L 403.281461 -108.221201 
L 403.047521 -107.150617 
L 402.846155 -106.080033 
L 402.674148 -105.009449 
L 402.528423 -103.938865 
L 402.40616 -102.868281 
L 402.304848 -101.797697 
L 402.22228 -100.727113 
L 402.1565 -99.656529 
L 402.105721 -98.585944 
L 402.06823 -97.51536 
L 402.042286 -96.444776 
L 402.026048 -95.374192 
L 402.017522 -94.303608 
L 402.014546 -93.233024 
L 402.014816 -92.16244 
L 402.015939 -91.091856 
L 402.015525 -90.021272 
L 402.011287 -88.950688 
L 402.001161 -87.880104 
L 401.983418 -86.809519 
L 401.956762 -85.738935 
L 401.920413 -84.668351 
L 401.874152 -83.597767 
L 401.818335 -82.527183 
L 401.753863 -81.456599 
z
" style="stroke: #000000; stroke-opacity: 0.7"/>
    </defs>
    <g clip-path="url(#p2c27eef0e6)">
     <use xlink:href="#mf25b7bc7cb" x="0" y="319.97208" style="fill: #dbdb8d; fill-opacity: 0.7; stroke: #000000; stroke-opacity: 0.7"/>
    </g>
   </g>
   <g id="matplotlib.axis_1">
    <g id="xtick_1">
     <g id="line2d_1">
      <defs>
       <path id="m10f0782965" d="M 0 0 
L 0 3.5 
" style="stroke: #000000; stroke-width: 0.8"/>
      </defs>
      <g>
       <use xlink:href="#m10f0782965" x="77.830223" y="262.718557" style="stroke: #000000; stroke-width: 0.8"/>
      </g>
     </g>
     <g id="text_1">
      <!-- Yorkton -->
      <g transform="translate(48.582519 303.043174) rotate(-45) scale(0.12 -0.12)">
       <defs>
        <path id="TimesNewRomanPSMT-59" d="M 3050 4238 
L 4528 4238 
L 4528 4122 
L 4447 4122 
Q 4366 4122 4209 4050 
Q 4053 3978 3925 3843 
Q 3797 3709 3609 3406 
L 2588 1797 
L 2588 734 
Q 2588 344 2675 247 
Q 2794 116 3050 116 
L 3188 116 
L 3188 0 
L 1388 0 
L 1388 116 
L 1538 116 
Q 1806 116 1919 278 
Q 1988 378 1988 734 
L 1988 1738 
L 825 3513 
Q 619 3825 545 3903 
Q 472 3981 241 4091 
Q 178 4122 59 4122 
L 59 4238 
L 1872 4238 
L 1872 4122 
L 1778 4122 
Q 1631 4122 1507 4053 
Q 1384 3984 1384 3847 
Q 1384 3734 1575 3441 
L 2459 2075 
L 3291 3381 
Q 3478 3675 3478 3819 
Q 3478 3906 3433 3975 
Q 3388 4044 3303 4083 
Q 3219 4122 3050 4122 
L 3050 4238 
z
" transform="scale(0.015625)"/>
        <path id="TimesNewRomanPSMT-6f" d="M 1600 2947 
Q 2250 2947 2644 2453 
Q 2978 2031 2978 1484 
Q 2978 1100 2793 706 
Q 2609 313 2286 112 
Q 1963 -88 1566 -88 
Q 919 -88 538 428 
Q 216 863 216 1403 
Q 216 1797 411 2186 
Q 606 2575 925 2761 
Q 1244 2947 1600 2947 
z
M 1503 2744 
Q 1338 2744 1170 2645 
Q 1003 2547 900 2300 
Q 797 2053 797 1666 
Q 797 1041 1045 587 
Q 1294 134 1700 134 
Q 2003 134 2200 384 
Q 2397 634 2397 1244 
Q 2397 2006 2069 2444 
Q 1847 2744 1503 2744 
z
" transform="scale(0.015625)"/>
        <path id="TimesNewRomanPSMT-72" d="M 1038 2947 
L 1038 2303 
Q 1397 2947 1775 2947 
Q 1947 2947 2059 2842 
Q 2172 2738 2172 2600 
Q 2172 2478 2090 2393 
Q 2009 2309 1897 2309 
Q 1788 2309 1652 2417 
Q 1516 2525 1450 2525 
Q 1394 2525 1328 2463 
Q 1188 2334 1038 2041 
L 1038 669 
Q 1038 431 1097 309 
Q 1138 225 1241 169 
Q 1344 113 1538 113 
L 1538 0 
L 72 0 
L 72 113 
Q 291 113 397 181 
Q 475 231 506 341 
Q 522 394 522 644 
L 522 1753 
Q 522 2253 501 2348 
Q 481 2444 426 2487 
Q 372 2531 291 2531 
Q 194 2531 72 2484 
L 41 2597 
L 906 2947 
L 1038 2947 
z
" transform="scale(0.015625)"/>
        <path id="TimesNewRomanPSMT-6b" d="M 1047 4444 
L 1047 1597 
L 1775 2259 
Q 2006 2472 2044 2528 
Q 2069 2566 2069 2603 
Q 2069 2666 2017 2711 
Q 1966 2756 1847 2763 
L 1847 2863 
L 3091 2863 
L 3091 2763 
Q 2834 2756 2664 2684 
Q 2494 2613 2291 2428 
L 1556 1750 
L 2291 822 
Q 2597 438 2703 334 
Q 2853 188 2966 144 
Q 3044 113 3238 113 
L 3238 0 
L 1847 0 
L 1847 113 
Q 1966 116 2008 148 
Q 2050 181 2050 241 
Q 2050 313 1925 472 
L 1047 1594 
L 1047 644 
Q 1047 366 1086 278 
Q 1125 191 1197 153 
Q 1269 116 1509 113 
L 1509 0 
L 53 0 
L 53 113 
Q 272 113 381 166 
Q 447 200 481 272 
Q 528 375 528 628 
L 528 3234 
Q 528 3731 506 3842 
Q 484 3953 434 3995 
Q 384 4038 303 4038 
Q 238 4038 106 3984 
L 53 4094 
L 903 4444 
L 1047 4444 
z
" transform="scale(0.015625)"/>
        <path id="TimesNewRomanPSMT-74" d="M 1031 3803 
L 1031 2863 
L 1700 2863 
L 1700 2644 
L 1031 2644 
L 1031 788 
Q 1031 509 1111 412 
Q 1191 316 1316 316 
Q 1419 316 1516 380 
Q 1613 444 1666 569 
L 1788 569 
Q 1678 263 1478 108 
Q 1278 -47 1066 -47 
Q 922 -47 784 33 
Q 647 113 581 261 
Q 516 409 516 719 
L 516 2644 
L 63 2644 
L 63 2747 
Q 234 2816 414 2980 
Q 594 3144 734 3369 
Q 806 3488 934 3803 
L 1031 3803 
z
" transform="scale(0.015625)"/>
        <path id="TimesNewRomanPSMT-6e" d="M 1034 2341 
Q 1538 2947 1994 2947 
Q 2228 2947 2397 2830 
Q 2566 2713 2666 2444 
Q 2734 2256 2734 1869 
L 2734 647 
Q 2734 375 2778 278 
Q 2813 200 2889 156 
Q 2966 113 3172 113 
L 3172 0 
L 1756 0 
L 1756 113 
L 1816 113 
Q 2016 113 2095 173 
Q 2175 234 2206 353 
Q 2219 400 2219 647 
L 2219 1819 
Q 2219 2209 2117 2386 
Q 2016 2563 1775 2563 
Q 1403 2563 1034 2156 
L 1034 647 
Q 1034 356 1069 288 
Q 1113 197 1189 155 
Q 1266 113 1500 113 
L 1500 0 
L 84 0 
L 84 113 
L 147 113 
Q 366 113 442 223 
Q 519 334 519 647 
L 519 1709 
Q 519 2225 495 2337 
Q 472 2450 423 2490 
Q 375 2531 294 2531 
Q 206 2531 84 2484 
L 38 2597 
L 900 2947 
L 1034 2947 
L 1034 2341 
z
" transform="scale(0.015625)"/>
       </defs>
       <use xlink:href="#TimesNewRomanPSMT-59"/>
       <use xlink:href="#TimesNewRomanPSMT-6f" x="62.216797"/>
       <use xlink:href="#TimesNewRomanPSMT-72" x="112.216797"/>
       <use xlink:href="#TimesNewRomanPSMT-6b" x="145.517578"/>
       <use xlink:href="#TimesNewRomanPSMT-74" x="195.517578"/>
       <use xlink:href="#TimesNewRomanPSMT-6f" x="223.300781"/>
       <use xlink:href="#TimesNewRomanPSMT-6e" x="273.300781"/>
      </g>
     </g>
    </g>
    <g id="xtick_2">
     <g id="line2d_2">
      <g>
       <use xlink:href="#m10f0782965" x="131.658795" y="262.718557" style="stroke: #000000; stroke-width: 0.8"/>
      </g>
     </g>
     <g id="text_2">
      <!-- Northgate -->
      <g transform="translate(95.898637 309.539718) rotate(-45) scale(0.12 -0.12)">
       <defs>
        <path id="TimesNewRomanPSMT-4e" d="M -84 4238 
L 1066 4238 
L 3656 1059 
L 3656 3503 
Q 3656 3894 3569 3991 
Q 3453 4122 3203 4122 
L 3056 4122 
L 3056 4238 
L 4531 4238 
L 4531 4122 
L 4381 4122 
Q 4113 4122 4000 3959 
Q 3931 3859 3931 3503 
L 3931 -69 
L 3819 -69 
L 1025 3344 
L 1025 734 
Q 1025 344 1109 247 
Q 1228 116 1475 116 
L 1625 116 
L 1625 0 
L 150 0 
L 150 116 
L 297 116 
Q 569 116 681 278 
Q 750 378 750 734 
L 750 3681 
Q 566 3897 470 3965 
Q 375 4034 191 4094 
Q 100 4122 -84 4122 
L -84 4238 
z
" transform="scale(0.015625)"/>
        <path id="TimesNewRomanPSMT-68" d="M 1041 4444 
L 1041 2350 
Q 1388 2731 1591 2839 
Q 1794 2947 1997 2947 
Q 2241 2947 2416 2812 
Q 2591 2678 2675 2391 
Q 2734 2191 2734 1659 
L 2734 647 
Q 2734 375 2778 275 
Q 2809 200 2884 156 
Q 2959 113 3159 113 
L 3159 0 
L 1753 0 
L 1753 113 
L 1819 113 
Q 2019 113 2097 173 
Q 2175 234 2206 353 
Q 2216 403 2216 647 
L 2216 1659 
Q 2216 2128 2167 2275 
Q 2119 2422 2012 2495 
Q 1906 2569 1756 2569 
Q 1603 2569 1437 2487 
Q 1272 2406 1041 2159 
L 1041 647 
Q 1041 353 1073 281 
Q 1106 209 1195 161 
Q 1284 113 1503 113 
L 1503 0 
L 84 0 
L 84 113 
Q 275 113 384 172 
Q 447 203 484 290 
Q 522 378 522 647 
L 522 3238 
Q 522 3728 498 3840 
Q 475 3953 426 3993 
Q 378 4034 297 4034 
Q 231 4034 84 3984 
L 41 4094 
L 897 4444 
L 1041 4444 
z
" transform="scale(0.015625)"/>
        <path id="TimesNewRomanPSMT-67" d="M 966 1044 
Q 703 1172 562 1401 
Q 422 1631 422 1909 
Q 422 2334 742 2640 
Q 1063 2947 1563 2947 
Q 1972 2947 2272 2747 
L 2878 2747 
Q 3013 2747 3034 2739 
Q 3056 2731 3066 2713 
Q 3084 2684 3084 2613 
Q 3084 2531 3069 2500 
Q 3059 2484 3036 2475 
Q 3013 2466 2878 2466 
L 2506 2466 
Q 2681 2241 2681 1891 
Q 2681 1491 2375 1206 
Q 2069 922 1553 922 
Q 1341 922 1119 984 
Q 981 866 932 777 
Q 884 688 884 625 
Q 884 572 936 522 
Q 988 472 1138 450 
Q 1225 438 1575 428 
Q 2219 413 2409 384 
Q 2700 344 2873 169 
Q 3047 -6 3047 -263 
Q 3047 -616 2716 -925 
Q 2228 -1381 1444 -1381 
Q 841 -1381 425 -1109 
Q 191 -953 191 -784 
Q 191 -709 225 -634 
Q 278 -519 444 -313 
Q 466 -284 763 25 
Q 600 122 533 198 
Q 466 275 466 372 
Q 466 481 555 628 
Q 644 775 966 1044 
z
M 1509 2797 
Q 1278 2797 1122 2612 
Q 966 2428 966 2047 
Q 966 1553 1178 1281 
Q 1341 1075 1591 1075 
Q 1828 1075 1981 1253 
Q 2134 1431 2134 1813 
Q 2134 2309 1919 2591 
Q 1759 2797 1509 2797 
z
M 934 0 
Q 788 -159 713 -296 
Q 638 -434 638 -550 
Q 638 -700 819 -813 
Q 1131 -1006 1722 -1006 
Q 2284 -1006 2551 -807 
Q 2819 -609 2819 -384 
Q 2819 -222 2659 -153 
Q 2497 -84 2016 -72 
Q 1313 -53 934 0 
z
" transform="scale(0.015625)"/>
        <path id="TimesNewRomanPSMT-61" d="M 1822 413 
Q 1381 72 1269 19 
Q 1100 -59 909 -59 
Q 613 -59 420 144 
Q 228 347 228 678 
Q 228 888 322 1041 
Q 450 1253 767 1440 
Q 1084 1628 1822 1897 
L 1822 2009 
Q 1822 2438 1686 2597 
Q 1550 2756 1291 2756 
Q 1094 2756 978 2650 
Q 859 2544 859 2406 
L 866 2225 
Q 866 2081 792 2003 
Q 719 1925 600 1925 
Q 484 1925 411 2006 
Q 338 2088 338 2228 
Q 338 2497 613 2722 
Q 888 2947 1384 2947 
Q 1766 2947 2009 2819 
Q 2194 2722 2281 2516 
Q 2338 2381 2338 1966 
L 2338 994 
Q 2338 584 2353 492 
Q 2369 400 2405 369 
Q 2441 338 2488 338 
Q 2538 338 2575 359 
Q 2641 400 2828 588 
L 2828 413 
Q 2478 -56 2159 -56 
Q 2006 -56 1915 50 
Q 1825 156 1822 413 
z
M 1822 616 
L 1822 1706 
Q 1350 1519 1213 1441 
Q 966 1303 859 1153 
Q 753 1003 753 825 
Q 753 600 887 451 
Q 1022 303 1197 303 
Q 1434 303 1822 616 
z
" transform="scale(0.015625)"/>
        <path id="TimesNewRomanPSMT-65" d="M 681 1784 
Q 678 1147 991 784 
Q 1303 422 1725 422 
Q 2006 422 2214 576 
Q 2422 731 2563 1106 
L 2659 1044 
Q 2594 616 2278 264 
Q 1963 -88 1488 -88 
Q 972 -88 605 314 
Q 238 716 238 1394 
Q 238 2128 614 2539 
Q 991 2950 1559 2950 
Q 2041 2950 2350 2633 
Q 2659 2316 2659 1784 
L 681 1784 
z
M 681 1966 
L 2006 1966 
Q 1991 2241 1941 2353 
Q 1863 2528 1708 2628 
Q 1553 2728 1384 2728 
Q 1125 2728 920 2526 
Q 716 2325 681 1966 
z
" transform="scale(0.015625)"/>
       </defs>
       <use xlink:href="#TimesNewRomanPSMT-4e"/>
       <use xlink:href="#TimesNewRomanPSMT-6f" x="72.216797"/>
       <use xlink:href="#TimesNewRomanPSMT-72" x="122.216797"/>
       <use xlink:href="#TimesNewRomanPSMT-74" x="155.517578"/>
       <use xlink:href="#TimesNewRomanPSMT-68" x="183.300781"/>
       <use xlink:href="#TimesNewRomanPSMT-67" x="233.300781"/>
       <use xlink:href="#TimesNewRomanPSMT-61" x="283.300781"/>
       <use xlink:href="#TimesNewRomanPSMT-74" x="327.685547"/>
       <use xlink:href="#TimesNewRomanPSMT-65" x="355.46875"/>
      </g>
     </g>
    </g>
    <g id="xtick_3">
     <g id="line2d_3">
      <g>
       <use xlink:href="#m10f0782965" x="185.487366" y="262.718557" style="stroke: #000000; stroke-width: 0.8"/>
      </g>
     </g>
     <g id="text_3">
      <!-- Westport -->
      <g transform="translate(153.247274 306.035562) rotate(-45) scale(0.12 -0.12)">
       <defs>
        <path id="TimesNewRomanPSMT-57" d="M 5991 4238 
L 5991 4122 
Q 5825 4122 5722 4062 
Q 5619 4003 5525 3841 
Q 5463 3731 5328 3319 
L 4147 -97 
L 4022 -97 
L 3056 2613 
L 2097 -97 
L 1984 -97 
L 725 3422 
Q 584 3816 547 3888 
Q 484 4006 376 4064 
Q 269 4122 84 4122 
L 84 4238 
L 1653 4238 
L 1653 4122 
L 1578 4122 
Q 1413 4122 1325 4047 
Q 1238 3972 1238 3866 
Q 1238 3756 1375 3363 
L 2209 984 
L 2913 3006 
L 2788 3363 
L 2688 3647 
Q 2622 3803 2541 3922 
Q 2500 3981 2441 4022 
Q 2363 4078 2284 4103 
Q 2225 4122 2097 4122 
L 2097 4238 
L 3747 4238 
L 3747 4122 
L 3634 4122 
Q 3459 4122 3378 4047 
Q 3297 3972 3297 3844 
Q 3297 3684 3438 3288 
L 4250 984 
L 5056 3319 
Q 5194 3706 5194 3856 
Q 5194 3928 5148 3990 
Q 5103 4053 5034 4078 
Q 4916 4122 4725 4122 
L 4725 4238 
L 5991 4238 
z
" transform="scale(0.015625)"/>
        <path id="TimesNewRomanPSMT-73" d="M 2050 2947 
L 2050 1972 
L 1947 1972 
Q 1828 2431 1642 2597 
Q 1456 2763 1169 2763 
Q 950 2763 815 2647 
Q 681 2531 681 2391 
Q 681 2216 781 2091 
Q 878 1963 1175 1819 
L 1631 1597 
Q 2266 1288 2266 781 
Q 2266 391 1970 151 
Q 1675 -88 1309 -88 
Q 1047 -88 709 6 
Q 606 38 541 38 
Q 469 38 428 -44 
L 325 -44 
L 325 978 
L 428 978 
Q 516 541 762 319 
Q 1009 97 1316 97 
Q 1531 97 1667 223 
Q 1803 350 1803 528 
Q 1803 744 1651 891 
Q 1500 1038 1047 1263 
Q 594 1488 453 1669 
Q 313 1847 313 2119 
Q 313 2472 555 2709 
Q 797 2947 1181 2947 
Q 1350 2947 1591 2875 
Q 1750 2828 1803 2828 
Q 1853 2828 1881 2850 
Q 1909 2872 1947 2947 
L 2050 2947 
z
" transform="scale(0.015625)"/>
        <path id="TimesNewRomanPSMT-70" d="M -6 2578 
L 875 2934 
L 994 2934 
L 994 2266 
Q 1216 2644 1439 2795 
Q 1663 2947 1909 2947 
Q 2341 2947 2628 2609 
Q 2981 2197 2981 1534 
Q 2981 794 2556 309 
Q 2206 -88 1675 -88 
Q 1444 -88 1275 -22 
Q 1150 25 994 166 
L 994 -706 
Q 994 -1000 1030 -1079 
Q 1066 -1159 1155 -1206 
Q 1244 -1253 1478 -1253 
L 1478 -1369 
L -22 -1369 
L -22 -1253 
L 56 -1253 
Q 228 -1256 350 -1188 
Q 409 -1153 442 -1076 
Q 475 -1000 475 -688 
L 475 2019 
Q 475 2297 450 2372 
Q 425 2447 370 2484 
Q 316 2522 222 2522 
Q 147 2522 31 2478 
L -6 2578 
z
M 994 2081 
L 994 1013 
Q 994 666 1022 556 
Q 1066 375 1236 237 
Q 1406 100 1666 100 
Q 1978 100 2172 344 
Q 2425 663 2425 1241 
Q 2425 1897 2138 2250 
Q 1938 2494 1663 2494 
Q 1513 2494 1366 2419 
Q 1253 2363 994 2081 
z
" transform="scale(0.015625)"/>
       </defs>
       <use xlink:href="#TimesNewRomanPSMT-57"/>
       <use xlink:href="#TimesNewRomanPSMT-65" x="86.384766"/>
       <use xlink:href="#TimesNewRomanPSMT-73" x="130.769531"/>
       <use xlink:href="#TimesNewRomanPSMT-74" x="169.685547"/>
       <use xlink:href="#TimesNewRomanPSMT-70" x="197.46875"/>
       <use xlink:href="#TimesNewRomanPSMT-6f" x="247.46875"/>
       <use xlink:href="#TimesNewRomanPSMT-72" x="297.46875"/>
       <use xlink:href="#TimesNewRomanPSMT-74" x="330.769531"/>
      </g>
     </g>
    </g>
    <g id="xtick_4">
     <g id="line2d_4">
      <g>
       <use xlink:href="#m10f0782965" x="239.315937" y="262.718557" style="stroke: #000000; stroke-width: 0.8"/>
      </g>
     </g>
     <g id="text_4">
      <!-- Ironwood -->
      <g transform="translate(204.509048 308.602359) rotate(-45) scale(0.12 -0.12)">
       <defs>
        <path id="TimesNewRomanPSMT-49" d="M 1975 116 
L 1975 0 
L 159 0 
L 159 116 
L 309 116 
Q 572 116 691 269 
Q 766 369 766 750 
L 766 3488 
Q 766 3809 725 3913 
Q 694 3991 597 4047 
Q 459 4122 309 4122 
L 159 4122 
L 159 4238 
L 1975 4238 
L 1975 4122 
L 1822 4122 
Q 1563 4122 1444 3969 
Q 1366 3869 1366 3488 
L 1366 750 
Q 1366 428 1406 325 
Q 1438 247 1538 191 
Q 1672 116 1822 116 
L 1975 116 
z
" transform="scale(0.015625)"/>
        <path id="TimesNewRomanPSMT-77" d="M 41 2863 
L 1241 2863 
L 1241 2747 
Q 1075 2734 1023 2687 
Q 972 2641 972 2553 
Q 972 2456 1025 2319 
L 1638 672 
L 2253 2013 
L 2091 2434 
Q 2016 2622 1894 2694 
Q 1825 2738 1638 2747 
L 1638 2863 
L 3000 2863 
L 3000 2747 
Q 2775 2738 2681 2666 
Q 2619 2616 2619 2506 
Q 2619 2444 2644 2378 
L 3294 734 
L 3897 2319 
Q 3959 2488 3959 2588 
Q 3959 2647 3898 2694 
Q 3838 2741 3659 2747 
L 3659 2863 
L 4563 2863 
L 4563 2747 
Q 4291 2706 4163 2378 
L 3206 -88 
L 3078 -88 
L 2363 1741 
L 1528 -88 
L 1413 -88 
L 494 2319 
Q 403 2547 315 2626 
Q 228 2706 41 2747 
L 41 2863 
z
" transform="scale(0.015625)"/>
        <path id="TimesNewRomanPSMT-64" d="M 2222 322 
Q 2013 103 1813 7 
Q 1613 -88 1381 -88 
Q 913 -88 563 304 
Q 213 697 213 1313 
Q 213 1928 600 2439 
Q 988 2950 1597 2950 
Q 1975 2950 2222 2709 
L 2222 3238 
Q 2222 3728 2198 3840 
Q 2175 3953 2125 3993 
Q 2075 4034 2000 4034 
Q 1919 4034 1784 3984 
L 1744 4094 
L 2597 4444 
L 2738 4444 
L 2738 1134 
Q 2738 631 2761 520 
Q 2784 409 2836 365 
Q 2888 322 2956 322 
Q 3041 322 3181 375 
L 3216 266 
L 2366 -88 
L 2222 -88 
L 2222 322 
z
M 2222 541 
L 2222 2016 
Q 2203 2228 2109 2403 
Q 2016 2578 1861 2667 
Q 1706 2756 1559 2756 
Q 1284 2756 1069 2509 
Q 784 2184 784 1559 
Q 784 928 1059 592 
Q 1334 256 1672 256 
Q 1956 256 2222 541 
z
" transform="scale(0.015625)"/>
       </defs>
       <use xlink:href="#TimesNewRomanPSMT-49"/>
       <use xlink:href="#TimesNewRomanPSMT-72" x="33.300781"/>
       <use xlink:href="#TimesNewRomanPSMT-6f" x="66.601562"/>
       <use xlink:href="#TimesNewRomanPSMT-6e" x="116.601562"/>
       <use xlink:href="#TimesNewRomanPSMT-77" x="166.601562"/>
       <use xlink:href="#TimesNewRomanPSMT-6f" x="238.818359"/>
       <use xlink:href="#TimesNewRomanPSMT-6f" x="288.818359"/>
       <use xlink:href="#TimesNewRomanPSMT-64" x="338.818359"/>
      </g>
     </g>
    </g>
    <g id="xtick_5">
     <g id="line2d_5">
      <g>
       <use xlink:href="#m10f0782965" x="293.144509" y="262.718557" style="stroke: #000000; stroke-width: 0.8"/>
      </g>
     </g>
     <g id="text_5">
      <!-- Pinehaven -->
      <g transform="translate(255.982954 310.957025) rotate(-45) scale(0.12 -0.12)">
       <defs>
        <path id="TimesNewRomanPSMT-50" d="M 1313 1984 
L 1313 750 
Q 1313 350 1400 253 
Q 1519 116 1759 116 
L 1922 116 
L 1922 0 
L 106 0 
L 106 116 
L 266 116 
Q 534 116 650 291 
Q 713 388 713 750 
L 713 3488 
Q 713 3888 628 3984 
Q 506 4122 266 4122 
L 106 4122 
L 106 4238 
L 1659 4238 
Q 2228 4238 2556 4120 
Q 2884 4003 3109 3725 
Q 3334 3447 3334 3066 
Q 3334 2547 2992 2222 
Q 2650 1897 2025 1897 
Q 1872 1897 1694 1919 
Q 1516 1941 1313 1984 
z
M 1313 2163 
Q 1478 2131 1606 2115 
Q 1734 2100 1825 2100 
Q 2150 2100 2386 2351 
Q 2622 2603 2622 3003 
Q 2622 3278 2509 3514 
Q 2397 3750 2190 3867 
Q 1984 3984 1722 3984 
Q 1563 3984 1313 3925 
L 1313 2163 
z
" transform="scale(0.015625)"/>
        <path id="TimesNewRomanPSMT-69" d="M 928 4444 
Q 1059 4444 1151 4351 
Q 1244 4259 1244 4128 
Q 1244 3997 1151 3903 
Q 1059 3809 928 3809 
Q 797 3809 703 3903 
Q 609 3997 609 4128 
Q 609 4259 701 4351 
Q 794 4444 928 4444 
z
M 1188 2947 
L 1188 647 
Q 1188 378 1227 289 
Q 1266 200 1342 156 
Q 1419 113 1622 113 
L 1622 0 
L 231 0 
L 231 113 
Q 441 113 512 153 
Q 584 194 626 287 
Q 669 381 669 647 
L 669 1750 
Q 669 2216 641 2353 
Q 619 2453 572 2492 
Q 525 2531 444 2531 
Q 356 2531 231 2484 
L 188 2597 
L 1050 2947 
L 1188 2947 
z
" transform="scale(0.015625)"/>
        <path id="TimesNewRomanPSMT-76" d="M 53 2863 
L 1400 2863 
L 1400 2747 
L 1313 2747 
Q 1191 2747 1127 2687 
Q 1063 2628 1063 2528 
Q 1063 2419 1128 2269 
L 1794 688 
L 2463 2328 
Q 2534 2503 2534 2594 
Q 2534 2638 2509 2666 
Q 2475 2713 2422 2730 
Q 2369 2747 2206 2747 
L 2206 2863 
L 3141 2863 
L 3141 2747 
Q 2978 2734 2916 2681 
Q 2806 2588 2719 2369 
L 1703 -88 
L 1575 -88 
L 553 2328 
Q 484 2497 421 2570 
Q 359 2644 263 2694 
Q 209 2722 53 2747 
L 53 2863 
z
" transform="scale(0.015625)"/>
       </defs>
       <use xlink:href="#TimesNewRomanPSMT-50"/>
       <use xlink:href="#TimesNewRomanPSMT-69" x="55.615234"/>
       <use xlink:href="#TimesNewRomanPSMT-6e" x="83.398438"/>
       <use xlink:href="#TimesNewRomanPSMT-65" x="133.398438"/>
       <use xlink:href="#TimesNewRomanPSMT-68" x="177.783203"/>
       <use xlink:href="#TimesNewRomanPSMT-61" x="227.783203"/>
       <use xlink:href="#TimesNewRomanPSMT-76" x="272.167969"/>
       <use xlink:href="#TimesNewRomanPSMT-65" x="322.167969"/>
       <use xlink:href="#TimesNewRomanPSMT-6e" x="366.552734"/>
      </g>
     </g>
    </g>
    <g id="xtick_6">
     <g id="line2d_6">
      <g>
       <use xlink:href="#m10f0782965" x="346.97308" y="262.718557" style="stroke: #000000; stroke-width: 0.8"/>
      </g>
     </g>
     <g id="text_6">
      <!-- Mapleton -->
      <g transform="translate(312.636859 308.131691) rotate(-45) scale(0.12 -0.12)">
       <defs>
        <path id="TimesNewRomanPSMT-4d" d="M 2619 0 
L 981 3566 
L 981 734 
Q 981 344 1066 247 
Q 1181 116 1431 116 
L 1581 116 
L 1581 0 
L 106 0 
L 106 116 
L 256 116 
Q 525 116 638 278 
Q 706 378 706 734 
L 706 3503 
Q 706 3784 644 3909 
Q 600 4000 483 4061 
Q 366 4122 106 4122 
L 106 4238 
L 1306 4238 
L 2844 922 
L 4356 4238 
L 5556 4238 
L 5556 4122 
L 5409 4122 
Q 5138 4122 5025 3959 
Q 4956 3859 4956 3503 
L 4956 734 
Q 4956 344 5044 247 
Q 5159 116 5409 116 
L 5556 116 
L 5556 0 
L 3756 0 
L 3756 116 
L 3906 116 
Q 4178 116 4288 278 
Q 4356 378 4356 734 
L 4356 3566 
L 2722 0 
L 2619 0 
z
" transform="scale(0.015625)"/>
        <path id="TimesNewRomanPSMT-6c" d="M 1184 4444 
L 1184 647 
Q 1184 378 1223 290 
Q 1263 203 1344 158 
Q 1425 113 1647 113 
L 1647 0 
L 244 0 
L 244 113 
Q 441 113 512 153 
Q 584 194 625 287 
Q 666 381 666 647 
L 666 3247 
Q 666 3731 644 3842 
Q 622 3953 573 3993 
Q 525 4034 450 4034 
Q 369 4034 244 3984 
L 191 4094 
L 1044 4444 
L 1184 4444 
z
" transform="scale(0.015625)"/>
       </defs>
       <use xlink:href="#TimesNewRomanPSMT-4d"/>
       <use xlink:href="#TimesNewRomanPSMT-61" x="88.916016"/>
       <use xlink:href="#TimesNewRomanPSMT-70" x="133.300781"/>
       <use xlink:href="#TimesNewRomanPSMT-6c" x="183.300781"/>
       <use xlink:href="#TimesNewRomanPSMT-65" x="211.083984"/>
       <use xlink:href="#TimesNewRomanPSMT-74" x="255.46875"/>
       <use xlink:href="#TimesNewRomanPSMT-6f" x="283.251953"/>
       <use xlink:href="#TimesNewRomanPSMT-6e" x="333.251953"/>
      </g>
     </g>
    </g>
    <g id="xtick_7">
     <g id="line2d_7">
      <g>
       <use xlink:href="#m10f0782965" x="400.801652" y="262.718557" style="stroke: #000000; stroke-width: 0.8"/>
      </g>
     </g>
     <g id="text_7">
      <!-- Ashford -->
      <g transform="translate(371.177413 303.419709) rotate(-45) scale(0.12 -0.12)">
       <defs>
        <path id="TimesNewRomanPSMT-41" d="M 2928 1419 
L 1288 1419 
L 1000 750 
Q 894 503 894 381 
Q 894 284 986 211 
Q 1078 138 1384 116 
L 1384 0 
L 50 0 
L 50 116 
Q 316 163 394 238 
Q 553 388 747 847 
L 2238 4334 
L 2347 4334 
L 3822 809 
Q 4000 384 4145 257 
Q 4291 131 4550 116 
L 4550 0 
L 2878 0 
L 2878 116 
Q 3131 128 3220 200 
Q 3309 272 3309 375 
Q 3309 513 3184 809 
L 2928 1419 
z
M 2841 1650 
L 2122 3363 
L 1384 1650 
L 2841 1650 
z
" transform="scale(0.015625)"/>
        <path id="TimesNewRomanPSMT-66" d="M 1319 2638 
L 1319 756 
Q 1319 356 1406 250 
Q 1522 113 1716 113 
L 1975 113 
L 1975 0 
L 266 0 
L 266 113 
L 394 113 
Q 519 113 622 175 
Q 725 238 764 344 
Q 803 450 803 756 
L 803 2638 
L 247 2638 
L 247 2863 
L 803 2863 
L 803 3050 
Q 803 3478 940 3775 
Q 1078 4072 1361 4255 
Q 1644 4438 1997 4438 
Q 2325 4438 2600 4225 
Q 2781 4084 2781 3909 
Q 2781 3816 2700 3733 
Q 2619 3650 2525 3650 
Q 2453 3650 2373 3701 
Q 2294 3753 2178 3923 
Q 2063 4094 1966 4153 
Q 1869 4213 1750 4213 
Q 1606 4213 1506 4136 
Q 1406 4059 1362 3898 
Q 1319 3738 1319 3069 
L 1319 2863 
L 2056 2863 
L 2056 2638 
L 1319 2638 
z
" transform="scale(0.015625)"/>
       </defs>
       <use xlink:href="#TimesNewRomanPSMT-41"/>
       <use xlink:href="#TimesNewRomanPSMT-73" x="72.216797"/>
       <use xlink:href="#TimesNewRomanPSMT-68" x="111.132812"/>
       <use xlink:href="#TimesNewRomanPSMT-66" x="161.132812"/>
       <use xlink:href="#TimesNewRomanPSMT-6f" x="194.433594"/>
       <use xlink:href="#TimesNewRomanPSMT-72" x="244.433594"/>
       <use xlink:href="#TimesNewRomanPSMT-64" x="277.734375"/>
      </g>
     </g>
    </g>
   </g>
   <g id="matplotlib.axis_2">
    <g id="ytick_1">
     <g id="line2d_8">
      <defs>
       <path id="m59d77d0c93" d="M 0 0 
L -3.5 0 
" style="stroke: #000000; stroke-width: 0.8"/>
      </defs>
      <g>
       <use xlink:href="#m59d77d0c93" x="50.915938" y="244.269105" style="stroke: #000000; stroke-width: 0.8"/>
      </g>
     </g>
     <g id="text_8">
      <!-- 2500 -->
      <g transform="translate(23.915938 247.74098) scale(0.1 -0.1)">
       <defs>
        <path id="TimesNewRomanPSMT-32" d="M 2934 816 
L 2638 0 
L 138 0 
L 138 116 
Q 1241 1122 1691 1759 
Q 2141 2397 2141 2925 
Q 2141 3328 1894 3587 
Q 1647 3847 1303 3847 
Q 991 3847 742 3664 
Q 494 3481 375 3128 
L 259 3128 
Q 338 3706 661 4015 
Q 984 4325 1469 4325 
Q 1984 4325 2329 3994 
Q 2675 3663 2675 3213 
Q 2675 2891 2525 2569 
Q 2294 2063 1775 1497 
Q 997 647 803 472 
L 1909 472 
Q 2247 472 2383 497 
Q 2519 522 2628 598 
Q 2738 675 2819 816 
L 2934 816 
z
" transform="scale(0.015625)"/>
        <path id="TimesNewRomanPSMT-35" d="M 2778 4238 
L 2534 3706 
L 1259 3706 
L 981 3138 
Q 1809 3016 2294 2522 
Q 2709 2097 2709 1522 
Q 2709 1188 2573 903 
Q 2438 619 2231 419 
Q 2025 219 1772 97 
Q 1413 -75 1034 -75 
Q 653 -75 479 54 
Q 306 184 306 341 
Q 306 428 378 495 
Q 450 563 559 563 
Q 641 563 702 538 
Q 763 513 909 409 
Q 1144 247 1384 247 
Q 1750 247 2026 523 
Q 2303 800 2303 1197 
Q 2303 1581 2056 1914 
Q 1809 2247 1375 2428 
Q 1034 2569 447 2591 
L 1259 4238 
L 2778 4238 
z
" transform="scale(0.015625)"/>
        <path id="TimesNewRomanPSMT-30" d="M 231 2094 
Q 231 2819 450 3342 
Q 669 3866 1031 4122 
Q 1313 4325 1613 4325 
Q 2100 4325 2488 3828 
Q 2972 3213 2972 2159 
Q 2972 1422 2759 906 
Q 2547 391 2217 158 
Q 1888 -75 1581 -75 
Q 975 -75 572 641 
Q 231 1244 231 2094 
z
M 844 2016 
Q 844 1141 1059 588 
Q 1238 122 1591 122 
Q 1759 122 1940 273 
Q 2122 425 2216 781 
Q 2359 1319 2359 2297 
Q 2359 3022 2209 3506 
Q 2097 3866 1919 4016 
Q 1791 4119 1609 4119 
Q 1397 4119 1231 3928 
Q 1006 3669 925 3112 
Q 844 2556 844 2016 
z
" transform="scale(0.015625)"/>
       </defs>
       <use xlink:href="#TimesNewRomanPSMT-32"/>
       <use xlink:href="#TimesNewRomanPSMT-35" x="50"/>
       <use xlink:href="#TimesNewRomanPSMT-30" x="100"/>
       <use xlink:href="#TimesNewRomanPSMT-30" x="150"/>
      </g>
     </g>
    </g>
    <g id="ytick_2">
     <g id="line2d_9">
      <g>
       <use xlink:href="#m59d77d0c93" x="50.915938" y="206.416311" style="stroke: #000000; stroke-width: 0.8"/>
      </g>
     </g>
     <g id="text_9">
      <!-- 3000 -->
      <g transform="translate(23.915938 209.888186) scale(0.1 -0.1)">
       <defs>
        <path id="TimesNewRomanPSMT-33" d="M 325 3431 
Q 506 3859 782 4092 
Q 1059 4325 1472 4325 
Q 1981 4325 2253 3994 
Q 2459 3747 2459 3466 
Q 2459 3003 1878 2509 
Q 2269 2356 2469 2072 
Q 2669 1788 2669 1403 
Q 2669 853 2319 450 
Q 1863 -75 997 -75 
Q 569 -75 414 31 
Q 259 138 259 259 
Q 259 350 332 419 
Q 406 488 509 488 
Q 588 488 669 463 
Q 722 447 909 348 
Q 1097 250 1169 231 
Q 1284 197 1416 197 
Q 1734 197 1970 444 
Q 2206 691 2206 1028 
Q 2206 1275 2097 1509 
Q 2016 1684 1919 1775 
Q 1784 1900 1550 2001 
Q 1316 2103 1072 2103 
L 972 2103 
L 972 2197 
Q 1219 2228 1467 2375 
Q 1716 2522 1828 2728 
Q 1941 2934 1941 3181 
Q 1941 3503 1739 3701 
Q 1538 3900 1238 3900 
Q 753 3900 428 3381 
L 325 3431 
z
" transform="scale(0.015625)"/>
       </defs>
       <use xlink:href="#TimesNewRomanPSMT-33"/>
       <use xlink:href="#TimesNewRomanPSMT-30" x="50"/>
       <use xlink:href="#TimesNewRomanPSMT-30" x="100"/>
       <use xlink:href="#TimesNewRomanPSMT-30" x="150"/>
      </g>
     </g>
    </g>
    <g id="ytick_3">
     <g id="line2d_10">
      <g>
       <use xlink:href="#m59d77d0c93" x="50.915938" y="168.563516" style="stroke: #000000; stroke-width: 0.8"/>
      </g>
     </g>
     <g id="text_10">
      <!-- 3500 -->
      <g transform="translate(23.915938 172.035391) scale(0.1 -0.1)">
       <use xlink:href="#TimesNewRomanPSMT-33"/>
       <use xlink:href="#TimesNewRomanPSMT-35" x="50"/>
       <use xlink:href="#TimesNewRomanPSMT-30" x="100"/>
       <use xlink:href="#TimesNewRomanPSMT-30" x="150"/>
      </g>
     </g>
    </g>
    <g id="ytick_4">
     <g id="line2d_11">
      <g>
       <use xlink:href="#m59d77d0c93" x="50.915938" y="130.710722" style="stroke: #000000; stroke-width: 0.8"/>
      </g>
     </g>
     <g id="text_11">
      <!-- 4000 -->
      <g transform="translate(23.915938 134.182597) scale(0.1 -0.1)">
       <defs>
        <path id="TimesNewRomanPSMT-34" d="M 2978 1563 
L 2978 1119 
L 2409 1119 
L 2409 0 
L 1894 0 
L 1894 1119 
L 100 1119 
L 100 1519 
L 2066 4325 
L 2409 4325 
L 2409 1563 
L 2978 1563 
z
M 1894 1563 
L 1894 3666 
L 406 1563 
L 1894 1563 
z
" transform="scale(0.015625)"/>
       </defs>
       <use xlink:href="#TimesNewRomanPSMT-34"/>
       <use xlink:href="#TimesNewRomanPSMT-30" x="50"/>
       <use xlink:href="#TimesNewRomanPSMT-30" x="100"/>
       <use xlink:href="#TimesNewRomanPSMT-30" x="150"/>
      </g>
     </g>
    </g>
    <g id="ytick_5">
     <g id="line2d_12">
      <g>
       <use xlink:href="#m59d77d0c93" x="50.915938" y="92.857927" style="stroke: #000000; stroke-width: 0.8"/>
      </g>
     </g>
     <g id="text_12">
      <!-- 4500 -->
      <g transform="translate(23.915938 96.329802) scale(0.1 -0.1)">
       <use xlink:href="#TimesNewRomanPSMT-34"/>
       <use xlink:href="#TimesNewRomanPSMT-35" x="50"/>
       <use xlink:href="#TimesNewRomanPSMT-30" x="100"/>
       <use xlink:href="#TimesNewRomanPSMT-30" x="150"/>
      </g>
     </g>
    </g>
    <g id="ytick_6">
     <g id="line2d_13">
      <g>
       <use xlink:href="#m59d77d0c93" x="50.915938" y="55.005133" style="stroke: #000000; stroke-width: 0.8"/>
      </g>
     </g>
     <g id="text_13">
      <!-- 5000 -->
      <g transform="translate(23.915938 58.477008) scale(0.1 -0.1)">
       <use xlink:href="#TimesNewRomanPSMT-35"/>
       <use xlink:href="#TimesNewRomanPSMT-30" x="50"/>
       <use xlink:href="#TimesNewRomanPSMT-30" x="100"/>
       <use xlink:href="#TimesNewRomanPSMT-30" x="150"/>
      </g>
     </g>
    </g>
    <g id="text_14">
     <!-- MWh -->
     <g transform="translate(16.92125 162.713654) rotate(-90) scale(0.14 -0.14)">
      <use xlink:href="#TimesNewRomanPSMT-4d"/>
      <use xlink:href="#TimesNewRomanPSMT-57" x="88.916016"/>
      <use xlink:href="#TimesNewRomanPSMT-68" x="183.300781"/>
     </g>
    </g>
   </g>
   <g id="patch_3">
    <path d="M 75.523284 147.498436 
L 80.137162 147.498436 
L 80.137162 117.064789 
L 75.523284 117.064789 
L 75.523284 147.498436 
L 75.523284 147.498436 
z
" clip-path="url(#p2c27eef0e6)" style="fill: none; stroke: #000000; stroke-linejoin: miter"/>
   </g>
   <g id="line2d_14">
    <path d="M 77.830223 147.498436 
L 77.830223 180.146471 
" clip-path="url(#p2c27eef0e6)" style="fill: none; stroke: #000000; stroke-linecap: square"/>
   </g>
   <g id="line2d_15">
    <path d="M 77.830223 117.064789 
L 77.830223 73.855824 
" clip-path="url(#p2c27eef0e6)" style="fill: none; stroke: #000000; stroke-linecap: square"/>
   </g>
   <g id="line2d_16">
    <path d="M 76.676754 180.146471 
L 78.983693 180.146471 
" clip-path="url(#p2c27eef0e6)" style="fill: none; stroke: #000000; stroke-linecap: square"/>
   </g>
   <g id="line2d_17">
    <path d="M 76.676754 73.855824 
L 78.983693 73.855824 
" clip-path="url(#p2c27eef0e6)" style="fill: none; stroke: #000000; stroke-linecap: square"/>
   </g>
   <g id="patch_4">
    <path d="M 129.351856 134.950235 
L 133.965733 134.950235 
L 133.965733 121.115038 
L 129.351856 121.115038 
L 129.351856 134.950235 
L 129.351856 134.950235 
z
" clip-path="url(#p2c27eef0e6)" style="fill: none; stroke: #000000; stroke-linejoin: miter"/>
   </g>
   <g id="line2d_18">
    <path d="M 131.658795 134.950235 
L 131.658795 152.286815 
" clip-path="url(#p2c27eef0e6)" style="fill: none; stroke: #000000; stroke-linecap: square"/>
   </g>
   <g id="line2d_19">
    <path d="M 131.658795 121.115038 
L 131.658795 104.365177 
" clip-path="url(#p2c27eef0e6)" style="fill: none; stroke: #000000; stroke-linecap: square"/>
   </g>
   <g id="line2d_20">
    <path d="M 130.505325 152.286815 
L 132.812264 152.286815 
" clip-path="url(#p2c27eef0e6)" style="fill: none; stroke: #000000; stroke-linecap: square"/>
   </g>
   <g id="line2d_21">
    <path d="M 130.505325 104.365177 
L 132.812264 104.365177 
" clip-path="url(#p2c27eef0e6)" style="fill: none; stroke: #000000; stroke-linecap: square"/>
   </g>
   <g id="patch_5">
    <path d="M 183.180427 175.11205 
L 187.794305 175.11205 
L 187.794305 144.243096 
L 183.180427 144.243096 
L 183.180427 175.11205 
L 183.180427 175.11205 
z
" clip-path="url(#p2c27eef0e6)" style="fill: none; stroke: #000000; stroke-linejoin: miter"/>
   </g>
   <g id="line2d_22">
    <path d="M 185.487366 175.11205 
L 185.487366 221.103195 
" clip-path="url(#p2c27eef0e6)" style="fill: none; stroke: #000000; stroke-linecap: square"/>
   </g>
   <g id="line2d_23">
    <path d="M 185.487366 144.243096 
L 185.487366 102.472537 
" clip-path="url(#p2c27eef0e6)" style="fill: none; stroke: #000000; stroke-linecap: square"/>
   </g>
   <g id="line2d_24">
    <path d="M 184.333897 221.103195 
L 186.640835 221.103195 
" clip-path="url(#p2c27eef0e6)" style="fill: none; stroke: #000000; stroke-linecap: square"/>
   </g>
   <g id="line2d_25">
    <path d="M 184.333897 102.472537 
L 186.640835 102.472537 
" clip-path="url(#p2c27eef0e6)" style="fill: none; stroke: #000000; stroke-linecap: square"/>
   </g>
   <g id="patch_6">
    <path d="M 237.008999 112.389969 
L 241.622876 112.389969 
L 241.622876 87.691021 
L 237.008999 87.691021 
L 237.008999 112.389969 
L 237.008999 112.389969 
z
" clip-path="url(#p2c27eef0e6)" style="fill: none; stroke: #000000; stroke-linejoin: miter"/>
   </g>
   <g id="line2d_26">
    <path d="M 239.315937 112.389969 
L 239.315937 147.820185 
" clip-path="url(#p2c27eef0e6)" style="fill: none; stroke: #000000; stroke-linecap: square"/>
   </g>
   <g id="line2d_27">
    <path d="M 239.315937 87.691021 
L 239.315937 55.307955 
" clip-path="url(#p2c27eef0e6)" style="fill: none; stroke: #000000; stroke-linecap: square"/>
   </g>
   <g id="line2d_28">
    <path d="M 238.162468 147.820185 
L 240.469407 147.820185 
" clip-path="url(#p2c27eef0e6)" style="fill: none; stroke: #000000; stroke-linecap: square"/>
   </g>
   <g id="line2d_29">
    <path d="M 238.162468 55.307955 
L 240.469407 55.307955 
" clip-path="url(#p2c27eef0e6)" style="fill: none; stroke: #000000; stroke-linecap: square"/>
   </g>
   <g id="patch_7">
    <path d="M 290.83757 125.487036 
L 295.451448 125.487036 
L 295.451448 97.646306 
L 290.83757 97.646306 
L 290.83757 125.487036 
L 290.83757 125.487036 
z
" clip-path="url(#p2c27eef0e6)" style="fill: none; stroke: #000000; stroke-linejoin: miter"/>
   </g>
   <g id="line2d_30">
    <path d="M 293.144509 125.487036 
L 293.144509 167.200816 
" clip-path="url(#p2c27eef0e6)" style="fill: none; stroke: #000000; stroke-linecap: square"/>
   </g>
   <g id="line2d_31">
    <path d="M 293.144509 97.646306 
L 293.144509 64.014098 
" clip-path="url(#p2c27eef0e6)" style="fill: none; stroke: #000000; stroke-linecap: square"/>
   </g>
   <g id="line2d_32">
    <path d="M 291.99104 167.200816 
L 294.297978 167.200816 
" clip-path="url(#p2c27eef0e6)" style="fill: none; stroke: #000000; stroke-linecap: square"/>
   </g>
   <g id="line2d_33">
    <path d="M 291.99104 64.014098 
L 294.297978 64.014098 
" clip-path="url(#p2c27eef0e6)" style="fill: none; stroke: #000000; stroke-linecap: square"/>
   </g>
   <g id="patch_8">
    <path d="M 344.666142 145.189416 
L 349.280019 145.189416 
L 349.280019 121.304302 
L 344.666142 121.304302 
L 344.666142 145.189416 
L 344.666142 145.189416 
z
" clip-path="url(#p2c27eef0e6)" style="fill: none; stroke: #000000; stroke-linejoin: miter"/>
   </g>
   <g id="line2d_34">
    <path d="M 346.97308 145.189416 
L 346.97308 177.42107 
" clip-path="url(#p2c27eef0e6)" style="fill: none; stroke: #000000; stroke-linecap: square"/>
   </g>
   <g id="line2d_35">
    <path d="M 346.97308 121.304302 
L 346.97308 87.331419 
" clip-path="url(#p2c27eef0e6)" style="fill: none; stroke: #000000; stroke-linecap: square"/>
   </g>
   <g id="line2d_36">
    <path d="M 345.819611 177.42107 
L 348.12655 177.42107 
" clip-path="url(#p2c27eef0e6)" style="fill: none; stroke: #000000; stroke-linecap: square"/>
   </g>
   <g id="line2d_37">
    <path d="M 345.819611 87.331419 
L 348.12655 87.331419 
" clip-path="url(#p2c27eef0e6)" style="fill: none; stroke: #000000; stroke-linecap: square"/>
   </g>
   <g id="patch_9">
    <path d="M 398.494713 190.328873 
L 403.108591 190.328873 
L 403.108591 165.800262 
L 398.494713 165.800262 
L 398.494713 190.328873 
L 398.494713 190.328873 
z
" clip-path="url(#p2c27eef0e6)" style="fill: none; stroke: #000000; stroke-linejoin: miter"/>
   </g>
   <g id="line2d_38">
    <path d="M 400.801652 190.328873 
L 400.801652 227.008231 
" clip-path="url(#p2c27eef0e6)" style="fill: none; stroke: #000000; stroke-linecap: square"/>
   </g>
   <g id="line2d_39">
    <path d="M 400.801652 165.800262 
L 400.801652 132.527656 
" clip-path="url(#p2c27eef0e6)" style="fill: none; stroke: #000000; stroke-linecap: square"/>
   </g>
   <g id="line2d_40">
    <path d="M 399.648182 227.008231 
L 401.955121 227.008231 
" clip-path="url(#p2c27eef0e6)" style="fill: none; stroke: #000000; stroke-linecap: square"/>
   </g>
   <g id="line2d_41">
    <path d="M 399.648182 132.527656 
L 401.955121 132.527656 
" clip-path="url(#p2c27eef0e6)" style="fill: none; stroke: #000000; stroke-linecap: square"/>
   </g>
   <g id="line2d_42">
    <path d="M 75.523284 132.71692 
L 80.137162 132.71692 
" clip-path="url(#p2c27eef0e6)" style="fill: none; stroke: #000000; stroke-width: 1.5; stroke-linecap: square"/>
   </g>
   <g id="line2d_43">
    <path d="M 129.351856 129.158757 
L 133.965733 129.158757 
" clip-path="url(#p2c27eef0e6)" style="fill: none; stroke: #000000; stroke-width: 1.5; stroke-linecap: square"/>
   </g>
   <g id="line2d_44">
    <path d="M 183.180427 158.305409 
L 187.794305 158.305409 
" clip-path="url(#p2c27eef0e6)" style="fill: none; stroke: #000000; stroke-width: 1.5; stroke-linecap: square"/>
   </g>
   <g id="line2d_45">
    <path d="M 237.008999 98.72511 
L 241.622876 98.72511 
" clip-path="url(#p2c27eef0e6)" style="fill: none; stroke: #000000; stroke-width: 1.5; stroke-linecap: square"/>
   </g>
   <g id="line2d_46">
    <path d="M 290.83757 110.838005 
L 295.451448 110.838005 
" clip-path="url(#p2c27eef0e6)" style="fill: none; stroke: #000000; stroke-width: 1.5; stroke-linecap: square"/>
   </g>
   <g id="line2d_47">
    <path d="M 344.666142 133.473976 
L 349.280019 133.473976 
" clip-path="url(#p2c27eef0e6)" style="fill: none; stroke: #000000; stroke-width: 1.5; stroke-linecap: square"/>
   </g>
   <g id="line2d_48">
    <path d="M 398.494713 177.458923 
L 403.108591 177.458923 
" clip-path="url(#p2c27eef0e6)" style="fill: none; stroke: #000000; stroke-width: 1.5; stroke-linecap: square"/>
   </g>
   <g id="patch_10">
    <path d="M 50.915938 262.718557 
L 50.915938 30.045 
" style="fill: none; stroke: #000000; stroke-linejoin: miter; stroke-linecap: square"/>
   </g>
   <g id="patch_11">
    <path d="M 427.715937 262.718557 
L 427.715937 30.045 
" style="fill: none; stroke: #000000; stroke-linejoin: miter; stroke-linecap: square"/>
   </g>
   <g id="patch_12">
    <path d="M 50.915938 262.718557 
L 427.715937 262.718557 
" style="fill: none; stroke: #000000; stroke-linejoin: miter; stroke-linecap: square"/>
   </g>
   <g id="patch_13">
    <path d="M 50.915938 30.045 
L 427.715937 30.045 
" style="fill: none; stroke: #000000; stroke-linejoin: miter; stroke-linecap: square"/>
   </g>
   <g id="text_15">
    <!-- Data on daily energy consumption accross cities (MWh) -->
    <g transform="translate(49.025937 18.045) scale(0.16 -0.16)">
     <defs>
      <path id="TimesNewRomanPS-BoldMT-44" d="M 84 0 
L 84 116 
L 225 116 
Q 409 116 507 173 
Q 606 231 653 331 
Q 681 397 681 725 
L 681 3513 
Q 681 3838 647 3919 
Q 613 4000 508 4061 
Q 403 4122 225 4122 
L 84 4122 
L 84 4238 
L 1981 4238 
Q 2741 4238 3203 4031 
Q 3769 3778 4061 3265 
Q 4353 2753 4353 2106 
Q 4353 1659 4209 1282 
Q 4066 906 3837 661 
Q 3609 416 3311 267 
Q 3013 119 2581 38 
Q 2391 0 1981 0 
L 84 0 
z
M 1700 3997 
L 1700 691 
Q 1700 428 1725 368 
Q 1750 309 1809 278 
Q 1894 231 2053 231 
Q 2575 231 2850 588 
Q 3225 1069 3225 2081 
Q 3225 2897 2969 3384 
Q 2766 3766 2447 3903 
Q 2222 4000 1700 3997 
z
" transform="scale(0.015625)"/>
      <path id="TimesNewRomanPS-BoldMT-61" d="M 1828 431 
Q 1294 -41 869 -41 
Q 619 -41 453 123 
Q 288 288 288 534 
Q 288 869 575 1136 
Q 863 1403 1828 1847 
L 1828 2141 
Q 1828 2472 1792 2558 
Q 1756 2644 1656 2708 
Q 1556 2772 1431 2772 
Q 1228 2772 1097 2681 
Q 1016 2625 1016 2550 
Q 1016 2484 1103 2388 
Q 1222 2253 1222 2128 
Q 1222 1975 1108 1867 
Q 994 1759 809 1759 
Q 613 1759 480 1878 
Q 347 1997 347 2156 
Q 347 2381 525 2586 
Q 703 2791 1022 2900 
Q 1341 3009 1684 3009 
Q 2100 3009 2342 2832 
Q 2584 2656 2656 2450 
Q 2700 2319 2700 1847 
L 2700 713 
Q 2700 513 2715 461 
Q 2731 409 2762 384 
Q 2794 359 2834 359 
Q 2916 359 3000 475 
L 3094 400 
Q 2938 169 2770 64 
Q 2603 -41 2391 -41 
Q 2141 -41 2000 76 
Q 1859 194 1828 431 
z
M 1828 659 
L 1828 1638 
Q 1450 1416 1266 1163 
Q 1144 994 1144 822 
Q 1144 678 1247 569 
Q 1325 484 1466 484 
Q 1622 484 1828 659 
z
" transform="scale(0.015625)"/>
      <path id="TimesNewRomanPS-BoldMT-74" d="M 1375 3991 
L 1375 2922 
L 2069 2922 
L 2069 2613 
L 1375 2613 
L 1375 809 
Q 1375 556 1398 482 
Q 1422 409 1481 364 
Q 1541 319 1591 319 
Q 1794 319 1975 628 
L 2069 559 
Q 1816 -41 1247 -41 
Q 969 -41 776 114 
Q 584 269 531 459 
Q 500 566 500 1034 
L 500 2613 
L 119 2613 
L 119 2722 
Q 513 3000 789 3306 
Q 1066 3613 1272 3991 
L 1375 3991 
z
" transform="scale(0.015625)"/>
      <path id="TimesNewRomanPS-BoldMT-20" transform="scale(0.015625)"/>
      <path id="TimesNewRomanPS-BoldMT-6f" d="M 1594 3009 
Q 1975 3009 2303 2812 
Q 2631 2616 2801 2253 
Q 2972 1891 2972 1459 
Q 2972 838 2656 419 
Q 2275 -88 1603 -88 
Q 944 -88 587 375 
Q 231 838 231 1447 
Q 231 2075 595 2542 
Q 959 3009 1594 3009 
z
M 1606 2788 
Q 1447 2788 1333 2667 
Q 1219 2547 1183 2192 
Q 1147 1838 1147 1206 
Q 1147 872 1191 581 
Q 1225 359 1337 243 
Q 1450 128 1594 128 
Q 1734 128 1828 206 
Q 1950 313 1991 503 
Q 2053 800 2053 1703 
Q 2053 2234 1993 2432 
Q 1934 2631 1819 2722 
Q 1738 2788 1606 2788 
z
" transform="scale(0.015625)"/>
      <path id="TimesNewRomanPS-BoldMT-6e" d="M 1409 2922 
L 1409 2544 
Q 1634 2788 1840 2898 
Q 2047 3009 2284 3009 
Q 2569 3009 2756 2851 
Q 2944 2694 3006 2459 
Q 3056 2281 3056 1775 
L 3056 638 
Q 3056 300 3117 217 
Q 3178 134 3372 113 
L 3372 0 
L 1894 0 
L 1894 113 
Q 2059 134 2131 250 
Q 2181 328 2181 638 
L 2181 1938 
Q 2181 2297 2153 2390 
Q 2125 2484 2058 2536 
Q 1991 2588 1909 2588 
Q 1641 2588 1409 2203 
L 1409 638 
Q 1409 309 1470 221 
Q 1531 134 1697 113 
L 1697 0 
L 219 0 
L 219 113 
Q 403 131 481 231 
Q 534 300 534 638 
L 534 2288 
Q 534 2619 473 2700 
Q 413 2781 219 2806 
L 219 2922 
L 1409 2922 
z
" transform="scale(0.015625)"/>
      <path id="TimesNewRomanPS-BoldMT-64" d="M 3056 4238 
L 3056 875 
Q 3056 534 3075 472 
Q 3100 369 3170 319 
Q 3241 269 3416 256 
L 3416 153 
L 2181 -88 
L 2181 375 
Q 1959 106 1786 9 
Q 1613 -88 1394 -88 
Q 834 -88 509 413 
Q 247 819 247 1409 
Q 247 1881 409 2254 
Q 572 2628 855 2818 
Q 1138 3009 1463 3009 
Q 1672 3009 1834 2928 
Q 1997 2847 2181 2644 
L 2181 3525 
Q 2181 3859 2153 3928 
Q 2116 4019 2041 4062 
Q 1966 4106 1759 4106 
L 1759 4238 
L 3056 4238 
z
M 2181 2256 
Q 1950 2700 1616 2700 
Q 1500 2700 1425 2638 
Q 1309 2541 1236 2297 
Q 1163 2053 1163 1550 
Q 1163 997 1244 731 
Q 1325 466 1466 347 
Q 1538 288 1663 288 
Q 1938 288 2181 719 
L 2181 2256 
z
" transform="scale(0.015625)"/>
      <path id="TimesNewRomanPS-BoldMT-69" d="M 919 4338 
Q 1122 4338 1262 4195 
Q 1403 4053 1403 3853 
Q 1403 3653 1261 3512 
Q 1119 3372 919 3372 
Q 719 3372 578 3512 
Q 438 3653 438 3853 
Q 438 4053 578 4195 
Q 719 4338 919 4338 
z
M 1356 2922 
L 1356 606 
Q 1356 297 1428 211 
Q 1500 125 1709 113 
L 1709 0 
L 131 0 
L 131 113 
Q 325 119 419 225 
Q 481 297 481 606 
L 481 2313 
Q 481 2622 409 2708 
Q 338 2794 131 2806 
L 131 2922 
L 1356 2922 
z
" transform="scale(0.015625)"/>
      <path id="TimesNewRomanPS-BoldMT-6c" d="M 1359 4238 
L 1359 606 
Q 1359 297 1431 211 
Q 1503 125 1713 113 
L 1713 0 
L 134 0 
L 134 113 
Q 328 119 422 225 
Q 484 297 484 606 
L 484 3631 
Q 484 3938 412 4023 
Q 341 4109 134 4122 
L 134 4238 
L 1359 4238 
z
" transform="scale(0.015625)"/>
      <path id="TimesNewRomanPS-BoldMT-79" d="M 1556 -119 
L 613 2047 
Q 400 2538 298 2650 
Q 197 2763 53 2806 
L 53 2922 
L 1606 2922 
L 1606 2806 
Q 1453 2800 1390 2747 
Q 1328 2694 1328 2619 
Q 1328 2500 1484 2150 
L 1984 1006 
L 2325 1891 
Q 2509 2363 2509 2547 
Q 2509 2663 2432 2731 
Q 2356 2800 2163 2806 
L 2163 2922 
L 3141 2922 
L 3141 2806 
Q 2997 2791 2906 2695 
Q 2816 2600 2603 2047 
L 1769 -119 
Q 1453 -931 1300 -1119 
Q 1084 -1381 759 -1381 
Q 500 -1381 339 -1232 
Q 178 -1084 178 -875 
Q 178 -694 289 -575 
Q 400 -456 563 -456 
Q 719 -456 814 -556 
Q 909 -656 913 -866 
Q 916 -984 941 -1019 
Q 966 -1053 1013 -1053 
Q 1088 -1053 1172 -963 
Q 1297 -831 1466 -363 
L 1556 -119 
z
" transform="scale(0.015625)"/>
      <path id="TimesNewRomanPS-BoldMT-65" d="M 2691 1566 
L 1088 1566 
Q 1116 984 1397 647 
Q 1613 388 1916 388 
Q 2103 388 2256 492 
Q 2409 597 2584 869 
L 2691 800 
Q 2453 316 2165 114 
Q 1878 -88 1500 -88 
Q 850 -88 516 413 
Q 247 816 247 1413 
Q 247 2144 642 2576 
Q 1038 3009 1569 3009 
Q 2013 3009 2339 2645 
Q 2666 2281 2691 1566 
z
M 1922 1775 
Q 1922 2278 1867 2465 
Q 1813 2653 1697 2750 
Q 1631 2806 1522 2806 
Q 1359 2806 1256 2647 
Q 1072 2369 1072 1884 
L 1072 1775 
L 1922 1775 
z
" transform="scale(0.015625)"/>
      <path id="TimesNewRomanPS-BoldMT-72" d="M 1428 2922 
L 1428 2259 
Q 1719 2713 1937 2861 
Q 2156 3009 2359 3009 
Q 2534 3009 2639 2901 
Q 2744 2794 2744 2597 
Q 2744 2388 2642 2272 
Q 2541 2156 2397 2156 
Q 2231 2156 2109 2262 
Q 1988 2369 1966 2381 
Q 1934 2400 1894 2400 
Q 1803 2400 1722 2331 
Q 1594 2225 1528 2028 
Q 1428 1725 1428 1359 
L 1428 688 
L 1431 513 
Q 1431 334 1453 284 
Q 1491 200 1564 161 
Q 1638 122 1813 113 
L 1813 0 
L 234 0 
L 234 113 
Q 425 128 492 217 
Q 559 306 559 688 
L 559 2303 
Q 559 2553 534 2622 
Q 503 2709 443 2750 
Q 384 2791 234 2806 
L 234 2922 
L 1428 2922 
z
" transform="scale(0.015625)"/>
      <path id="TimesNewRomanPS-BoldMT-67" d="M 2091 2888 
L 3075 2888 
L 3075 2544 
L 2516 2544 
Q 2669 2391 2728 2266 
Q 2803 2097 2803 1913 
Q 2803 1600 2629 1370 
Q 2456 1141 2157 1011 
Q 1859 881 1628 881 
Q 1609 881 1253 897 
Q 1113 897 1017 805 
Q 922 713 922 584 
Q 922 472 1008 400 
Q 1094 328 1288 328 
L 1828 334 
Q 2484 334 2731 191 
Q 3084 -9 3084 -425 
Q 3084 -691 2921 -908 
Q 2759 -1125 2494 -1228 
Q 2091 -1381 1566 -1381 
Q 1172 -1381 847 -1304 
Q 522 -1228 381 -1092 
Q 241 -956 241 -806 
Q 241 -663 348 -548 
Q 456 -434 750 -356 
Q 344 -156 344 200 
Q 344 416 509 619 
Q 675 822 1034 972 
Q 616 1125 428 1375 
Q 241 1625 241 1953 
Q 241 2381 591 2695 
Q 941 3009 1491 3009 
Q 1781 3009 2091 2888 
z
M 1550 2816 
Q 1369 2816 1244 2633 
Q 1119 2450 1119 1875 
Q 1119 1409 1242 1236 
Q 1366 1063 1534 1063 
Q 1722 1063 1847 1234 
Q 1972 1406 1972 1903 
Q 1972 2463 1831 2666 
Q 1731 2816 1550 2816 
z
M 1366 -431 
Q 1047 -431 944 -484 
Q 766 -581 766 -747 
Q 766 -906 950 -1036 
Q 1134 -1166 1644 -1166 
Q 2078 -1166 2326 -1050 
Q 2575 -934 2575 -725 
Q 2575 -647 2528 -594 
Q 2444 -500 2273 -465 
Q 2103 -431 1366 -431 
z
" transform="scale(0.015625)"/>
      <path id="TimesNewRomanPS-BoldMT-63" d="M 2600 753 
L 2697 678 
Q 2491 291 2183 101 
Q 1875 -88 1528 -88 
Q 944 -88 594 353 
Q 244 794 244 1413 
Q 244 2009 563 2463 
Q 947 3009 1622 3009 
Q 2075 3009 2342 2781 
Q 2609 2553 2609 2272 
Q 2609 2094 2501 1987 
Q 2394 1881 2219 1881 
Q 2034 1881 1914 2003 
Q 1794 2125 1766 2438 
Q 1747 2634 1675 2713 
Q 1603 2791 1506 2791 
Q 1356 2791 1250 2631 
Q 1088 2391 1088 1894 
Q 1088 1481 1219 1104 
Q 1350 728 1578 544 
Q 1750 409 1984 409 
Q 2138 409 2275 481 
Q 2413 553 2600 753 
z
" transform="scale(0.015625)"/>
      <path id="TimesNewRomanPS-BoldMT-73" d="M 2063 3003 
L 2109 2006 
L 2003 2006 
Q 1813 2450 1608 2612 
Q 1403 2775 1200 2775 
Q 1072 2775 981 2689 
Q 891 2603 891 2491 
Q 891 2406 953 2328 
Q 1053 2200 1512 1889 
Q 1972 1578 2117 1361 
Q 2263 1144 2263 875 
Q 2263 631 2141 397 
Q 2019 163 1797 37 
Q 1575 -88 1306 -88 
Q 1097 -88 747 44 
Q 653 78 619 78 
Q 516 78 447 -78 
L 344 -78 
L 294 972 
L 400 972 
Q 541 559 786 353 
Q 1031 147 1250 147 
Q 1400 147 1495 239 
Q 1591 331 1591 463 
Q 1591 613 1497 722 
Q 1403 831 1078 1053 
Q 600 1384 459 1559 
Q 253 1816 253 2125 
Q 253 2463 486 2736 
Q 719 3009 1159 3009 
Q 1397 3009 1619 2894 
Q 1703 2847 1756 2847 
Q 1813 2847 1847 2870 
Q 1881 2894 1956 3003 
L 2063 3003 
z
" transform="scale(0.015625)"/>
      <path id="TimesNewRomanPS-BoldMT-75" d="M 3038 2922 
L 3038 634 
Q 3038 300 3100 217 
Q 3163 134 3353 113 
L 3353 0 
L 2163 0 
L 2163 391 
Q 1953 141 1743 26 
Q 1534 -88 1275 -88 
Q 1028 -88 836 64 
Q 644 216 578 419 
Q 513 622 513 1128 
L 513 2288 
Q 513 2619 452 2700 
Q 391 2781 197 2806 
L 197 2922 
L 1388 2922 
L 1388 925 
Q 1388 613 1417 522 
Q 1447 431 1511 384 
Q 1575 338 1659 338 
Q 1772 338 1863 397 
Q 1988 478 2163 725 
L 2163 2288 
Q 2163 2619 2102 2700 
Q 2041 2781 1847 2806 
L 1847 2922 
L 3038 2922 
z
" transform="scale(0.015625)"/>
      <path id="TimesNewRomanPS-BoldMT-6d" d="M 1428 2922 
L 1428 2538 
Q 1669 2800 1873 2904 
Q 2078 3009 2322 3009 
Q 2603 3009 2793 2878 
Q 2984 2747 3088 2478 
Q 3338 2759 3567 2884 
Q 3797 3009 4047 3009 
Q 4350 3009 4529 2870 
Q 4709 2731 4779 2517 
Q 4850 2303 4850 1834 
L 4850 638 
Q 4850 300 4911 219 
Q 4972 138 5166 113 
L 5166 0 
L 3656 0 
L 3656 113 
Q 3834 128 3919 250 
Q 3975 334 3975 638 
L 3975 1894 
Q 3975 2284 3944 2390 
Q 3913 2497 3845 2548 
Q 3778 2600 3688 2600 
Q 3553 2600 3415 2501 
Q 3278 2403 3138 2206 
L 3138 638 
Q 3138 322 3191 241 
Q 3263 125 3466 113 
L 3466 0 
L 1953 0 
L 1953 113 
Q 2075 119 2145 173 
Q 2216 228 2239 304 
Q 2263 381 2263 638 
L 2263 1894 
Q 2263 2291 2231 2391 
Q 2200 2491 2126 2547 
Q 2053 2603 1969 2603 
Q 1844 2603 1741 2538 
Q 1594 2441 1428 2206 
L 1428 638 
Q 1428 328 1489 229 
Q 1550 131 1744 113 
L 1744 0 
L 238 0 
L 238 113 
Q 422 131 500 231 
Q 553 300 553 638 
L 553 2288 
Q 553 2619 492 2700 
Q 431 2781 238 2806 
L 238 2922 
L 1428 2922 
z
" transform="scale(0.015625)"/>
      <path id="TimesNewRomanPS-BoldMT-70" d="M 1347 297 
L 1347 -791 
Q 1347 -1016 1383 -1097 
Q 1419 -1178 1494 -1215 
Q 1569 -1253 1788 -1253 
L 1788 -1369 
L 122 -1369 
L 122 -1253 
Q 316 -1247 409 -1144 
Q 472 -1072 472 -772 
L 472 2313 
Q 472 2622 400 2708 
Q 328 2794 122 2806 
L 122 2922 
L 1347 2922 
L 1347 2538 
Q 1500 2763 1659 2863 
Q 1888 3009 2156 3009 
Q 2478 3009 2742 2806 
Q 3006 2603 3143 2245 
Q 3281 1888 3281 1475 
Q 3281 1031 3139 664 
Q 2997 297 2726 104 
Q 2456 -88 2125 -88 
Q 1884 -88 1675 19 
Q 1519 100 1347 297 
z
M 1347 613 
Q 1616 231 1922 231 
Q 2091 231 2200 409 
Q 2363 672 2363 1409 
Q 2363 2166 2184 2444 
Q 2066 2628 1866 2628 
Q 1550 2628 1347 2172 
L 1347 613 
z
" transform="scale(0.015625)"/>
      <path id="TimesNewRomanPS-BoldMT-28" d="M 2056 4334 
L 2056 4191 
Q 1731 3978 1578 3775 
Q 1366 3494 1247 3053 
Q 1097 2506 1097 1525 
Q 1097 600 1233 87 
Q 1369 -425 1603 -741 
Q 1766 -959 2056 -1125 
L 2056 -1281 
Q 1303 -1028 779 -248 
Q 256 531 256 1544 
Q 256 2544 778 3314 
Q 1300 4084 2056 4334 
z
" transform="scale(0.015625)"/>
      <path id="TimesNewRomanPS-BoldMT-4d" d="M 3050 1444 
L 4200 4238 
L 5925 4238 
L 5925 4122 
L 5788 4122 
Q 5600 4122 5488 4056 
Q 5409 4013 5363 3909 
Q 5328 3834 5328 3519 
L 5328 725 
Q 5328 400 5362 319 
Q 5397 238 5503 177 
Q 5609 116 5788 116 
L 5925 116 
L 5925 0 
L 3713 0 
L 3713 116 
L 3850 116 
Q 4038 116 4150 181 
Q 4228 225 4275 331 
Q 4309 406 4309 725 
L 4309 3866 
L 2684 0 
L 2609 0 
L 959 3838 
L 959 853 
Q 959 541 975 469 
Q 1016 313 1152 214 
Q 1288 116 1578 116 
L 1578 0 
L 128 0 
L 128 116 
L 172 116 
Q 313 113 434 161 
Q 556 209 618 290 
Q 681 372 716 519 
Q 722 553 722 838 
L 722 3519 
Q 722 3841 687 3920 
Q 653 4000 547 4061 
Q 441 4122 263 4122 
L 128 4122 
L 128 4238 
L 1859 4238 
L 3050 1444 
z
" transform="scale(0.015625)"/>
      <path id="TimesNewRomanPS-BoldMT-57" d="M 6344 4238 
L 6344 4122 
Q 6225 4113 6144 4056 
Q 6063 4000 6000 3884 
Q 5981 3847 5803 3400 
L 4475 -97 
L 4353 -97 
L 3303 2634 
L 2147 -97 
L 2031 -97 
L 638 3363 
Q 425 3884 340 3993 
Q 256 4103 56 4122 
L 56 4238 
L 1894 4238 
L 1894 4122 
Q 1672 4116 1598 4055 
Q 1525 3994 1525 3903 
Q 1525 3784 1678 3400 
L 2509 1344 
L 3175 2950 
L 3000 3400 
Q 2856 3769 2778 3892 
Q 2700 4016 2598 4069 
Q 2497 4122 2300 4122 
L 2300 4238 
L 4353 4238 
L 4353 4122 
Q 4138 4119 4044 4088 
Q 3978 4066 3940 4014 
Q 3903 3963 3903 3897 
Q 3903 3825 4044 3456 
L 4816 1450 
L 5506 3266 
Q 5616 3547 5641 3650 
Q 5666 3753 5666 3841 
Q 5666 3969 5578 4042 
Q 5491 4116 5244 4122 
L 5244 4238 
L 6344 4238 
z
" transform="scale(0.015625)"/>
      <path id="TimesNewRomanPS-BoldMT-68" d="M 1409 4238 
L 1409 2547 
Q 1650 2800 1850 2904 
Q 2050 3009 2266 3009 
Q 2541 3009 2736 2853 
Q 2931 2697 2995 2486 
Q 3059 2275 3059 1775 
L 3059 634 
Q 3059 300 3121 217 
Q 3184 134 3375 113 
L 3375 0 
L 1894 0 
L 1894 113 
Q 2050 134 2128 238 
Q 2184 319 2184 634 
L 2184 1938 
Q 2184 2300 2156 2392 
Q 2128 2484 2061 2536 
Q 1994 2588 1909 2588 
Q 1784 2588 1665 2502 
Q 1547 2416 1409 2200 
L 1409 634 
Q 1409 322 1456 244 
Q 1516 138 1700 113 
L 1700 0 
L 219 0 
L 219 113 
Q 403 131 481 231 
Q 534 300 534 634 
L 534 3603 
Q 534 3934 473 4015 
Q 413 4097 219 4122 
L 219 4238 
L 1409 4238 
z
" transform="scale(0.015625)"/>
      <path id="TimesNewRomanPS-BoldMT-29" d="M 78 -1281 
L 78 -1138 
Q 403 -922 556 -719 
Q 766 -438 888 0 
Q 1038 550 1038 1531 
Q 1038 2456 902 2967 
Q 766 3478 531 3794 
Q 369 4013 78 4178 
L 78 4334 
Q 831 4081 1354 3301 
Q 1878 2522 1878 1509 
Q 1878 513 1354 -257 
Q 831 -1028 78 -1281 
z
" transform="scale(0.015625)"/>
     </defs>
     <use xlink:href="#TimesNewRomanPS-BoldMT-44"/>
     <use xlink:href="#TimesNewRomanPS-BoldMT-61" x="72.216797"/>
     <use xlink:href="#TimesNewRomanPS-BoldMT-74" x="122.216797"/>
     <use xlink:href="#TimesNewRomanPS-BoldMT-61" x="155.517578"/>
     <use xlink:href="#TimesNewRomanPS-BoldMT-20" x="205.517578"/>
     <use xlink:href="#TimesNewRomanPS-BoldMT-6f" x="230.517578"/>
     <use xlink:href="#TimesNewRomanPS-BoldMT-6e" x="280.517578"/>
     <use xlink:href="#TimesNewRomanPS-BoldMT-20" x="336.132812"/>
     <use xlink:href="#TimesNewRomanPS-BoldMT-64" x="361.132812"/>
     <use xlink:href="#TimesNewRomanPS-BoldMT-61" x="416.748047"/>
     <use xlink:href="#TimesNewRomanPS-BoldMT-69" x="466.748047"/>
     <use xlink:href="#TimesNewRomanPS-BoldMT-6c" x="494.53125"/>
     <use xlink:href="#TimesNewRomanPS-BoldMT-79" x="522.314453"/>
     <use xlink:href="#TimesNewRomanPS-BoldMT-20" x="572.314453"/>
     <use xlink:href="#TimesNewRomanPS-BoldMT-65" x="597.314453"/>
     <use xlink:href="#TimesNewRomanPS-BoldMT-6e" x="641.699219"/>
     <use xlink:href="#TimesNewRomanPS-BoldMT-65" x="697.314453"/>
     <use xlink:href="#TimesNewRomanPS-BoldMT-72" x="741.699219"/>
     <use xlink:href="#TimesNewRomanPS-BoldMT-67" x="786.083984"/>
     <use xlink:href="#TimesNewRomanPS-BoldMT-79" x="836.083984"/>
     <use xlink:href="#TimesNewRomanPS-BoldMT-20" x="886.083984"/>
     <use xlink:href="#TimesNewRomanPS-BoldMT-63" x="911.083984"/>
     <use xlink:href="#TimesNewRomanPS-BoldMT-6f" x="955.46875"/>
     <use xlink:href="#TimesNewRomanPS-BoldMT-6e" x="1005.46875"/>
     <use xlink:href="#TimesNewRomanPS-BoldMT-73" x="1061.083984"/>
     <use xlink:href="#TimesNewRomanPS-BoldMT-75" x="1100"/>
     <use xlink:href="#TimesNewRomanPS-BoldMT-6d" x="1155.615234"/>
     <use xlink:href="#TimesNewRomanPS-BoldMT-70" x="1238.916016"/>
     <use xlink:href="#TimesNewRomanPS-BoldMT-74" x="1294.53125"/>
     <use xlink:href="#TimesNewRomanPS-BoldMT-69" x="1327.832031"/>
     <use xlink:href="#TimesNewRomanPS-BoldMT-6f" x="1355.615234"/>
     <use xlink:href="#TimesNewRomanPS-BoldMT-6e" x="1405.615234"/>
     <use xlink:href="#TimesNewRomanPS-BoldMT-20" x="1461.230469"/>
     <use xlink:href="#TimesNewRomanPS-BoldMT-61" x="1486.230469"/>
     <use xlink:href="#TimesNewRomanPS-BoldMT-63" x="1536.230469"/>
     <use xlink:href="#TimesNewRomanPS-BoldMT-63" x="1580.615234"/>
     <use xlink:href="#TimesNewRomanPS-BoldMT-72" x="1625"/>
     <use xlink:href="#TimesNewRomanPS-BoldMT-6f" x="1667.634766"/>
     <use xlink:href="#TimesNewRomanPS-BoldMT-73" x="1717.634766"/>
     <use xlink:href="#TimesNewRomanPS-BoldMT-73" x="1756.550781"/>
     <use xlink:href="#TimesNewRomanPS-BoldMT-20" x="1795.466797"/>
     <use xlink:href="#TimesNewRomanPS-BoldMT-63" x="1820.466797"/>
     <use xlink:href="#TimesNewRomanPS-BoldMT-69" x="1864.851562"/>
     <use xlink:href="#TimesNewRomanPS-BoldMT-74" x="1892.634766"/>
     <use xlink:href="#TimesNewRomanPS-BoldMT-69" x="1925.935547"/>
     <use xlink:href="#TimesNewRomanPS-BoldMT-65" x="1953.71875"/>
     <use xlink:href="#TimesNewRomanPS-BoldMT-73" x="1998.103516"/>
     <use xlink:href="#TimesNewRomanPS-BoldMT-20" x="2037.019531"/>
     <use xlink:href="#TimesNewRomanPS-BoldMT-28" x="2062.019531"/>
     <use xlink:href="#TimesNewRomanPS-BoldMT-4d" x="2095.320312"/>
     <use xlink:href="#TimesNewRomanPS-BoldMT-57" x="2189.705078"/>
     <use xlink:href="#TimesNewRomanPS-BoldMT-68" x="2289.705078"/>
     <use xlink:href="#TimesNewRomanPS-BoldMT-29" x="2345.320312"/>
    </g>
   </g>
  </g>
 </g>
 <defs>
  <clipPath id="p2c27eef0e6">
   <rect x="50.915938" y="30.045" width="376.8" height="232.673557"/>
  </clipPath>
 </defs>
</svg>
