<?xml version="1.0" encoding="utf-8" standalone="no"?>
<!DOCTYPE svg PUBLIC "-//W3C//DTD SVG 1.1//EN"
  "http://www.w3.org/Graphics/SVG/1.1/DTD/svg11.dtd">
<svg xmlns:xlink="http://www.w3.org/1999/xlink" width="454.062187pt" height="319.990641pt" viewBox="0 0 454.062187 319.990641" xmlns="http://www.w3.org/2000/svg" version="1.1">
 <metadata>
  <rdf:RDF xmlns:dc="http://purl.org/dc/elements/1.1/" xmlns:cc="http://creativecommons.org/ns#" xmlns:rdf="http://www.w3.org/1999/02/22-rdf-syntax-ns#">
   <cc:Work>
    <dc:type rdf:resource="http://purl.org/dc/dcmitype/StillImage"/>
    <dc:date>2025-05-26T17:28:25.849852</dc:date>
    <dc:format>image/svg+xml</dc:format>
    <dc:creator>
     <cc:Agent>
      <dc:title>Matplotlib v3.7.2, https://matplotlib.org/</dc:title>
     </cc:Agent>
    </dc:creator>
   </cc:Work>
  </rdf:RDF>
 </metadata>
 <defs>
  <style type="text/css">*{stroke-linejoin: round; stroke-linecap: butt}</style>
 </defs>
 <g id="figure_1">
  <g id="patch_1">
   <path d="M 0 319.990641 
L 454.062187 319.990641 
L 454.062187 0 
L 0 0 
z
" style="fill: #ffffff"/>
  </g>
  <g id="axes_1">
   <g id="patch_2">
    <path d="M 50.915938 220.080019 
L 427.715937 220.080019 
L 427.715937 30.045 
L 50.915938 30.045 
z
" style="fill: #ffffff"/>
   </g>
   <g id="PolyCollection_1">
    <defs>
     <path id="mad714d19db" d="M 92.877455 -140.340446 
L 84.31442 -140.340446 
L 84.061454 -141.476752 
L 83.823539 -142.613058 
L 83.600522 -143.749364 
L 83.390891 -144.885671 
L 83.19173 -146.021977 
L 82.99875 -147.158283 
L 82.806391 -148.294589 
L 82.607991 -149.430895 
L 82.396019 -150.567201 
L 82.162357 -151.703507 
L 81.898621 -152.839813 
L 81.5965 -153.976119 
L 81.24811 -155.112425 
L 80.84633 -156.248731 
L 80.385124 -157.385038 
L 79.85982 -158.521344 
L 79.267342 -159.65765 
L 78.606386 -160.793956 
L 77.877531 -161.930262 
L 77.083279 -163.066568 
L 76.228032 -164.202874 
L 75.317993 -165.33918 
L 74.361009 -166.475486 
L 73.36635 -167.611792 
L 72.344445 -168.748098 
L 71.306573 -169.884404 
L 70.264524 -171.020711 
L 69.230247 -172.157017 
L 68.215484 -173.293323 
L 67.231421 -174.429629 
L 66.288342 -175.565935 
L 65.395327 -176.702241 
L 64.559976 -177.838547 
L 63.788193 -178.974853 
L 63.084023 -180.111159 
L 62.449565 -181.247465 
L 61.884957 -182.383771 
L 61.388442 -183.520078 
L 60.956523 -184.656384 
L 60.584201 -185.79269 
L 60.265286 -186.928996 
L 59.992777 -188.065302 
L 59.759291 -189.201608 
L 59.557512 -190.337914 
L 59.380649 -191.47422 
L 59.222855 -192.610526 
L 59.079588 -193.746832 
L 58.947896 -194.883138 
L 58.826578 -196.019445 
L 58.716238 -197.155751 
L 58.6192 -198.292057 
L 58.539303 -199.428363 
L 58.481597 -200.564669 
L 58.451938 -201.700975 
L 58.456539 -202.837281 
L 58.501502 -203.973587 
L 58.592358 -205.109893 
L 58.73366 -206.246199 
L 58.928653 -207.382505 
L 59.179041 -208.518811 
L 59.484866 -209.655118 
L 59.8445 -210.791424 
L 60.254747 -211.92773 
L 60.711044 -213.064036 
L 61.207728 -214.200342 
L 61.738365 -215.336648 
L 62.296102 -216.472954 
L 62.874014 -217.60926 
L 63.465429 -218.745566 
L 64.06421 -219.881872 
L 64.664971 -221.018178 
L 65.263227 -222.154485 
L 65.855465 -223.290791 
L 66.439154 -224.427097 
L 67.01268 -225.563403 
L 67.575242 -226.699709 
L 68.126713 -227.836015 
L 68.667481 -228.972321 
L 69.198301 -230.108627 
L 69.720162 -231.244933 
L 70.234182 -232.381239 
L 70.741546 -233.517545 
L 71.243483 -234.653852 
L 71.741276 -235.790158 
L 72.2363 -236.926464 
L 72.730078 -238.06277 
L 73.224328 -239.199076 
L 73.720995 -240.335382 
L 74.22225 -241.471688 
L 74.730446 -242.607994 
L 75.248025 -243.7443 
L 75.777377 -244.880606 
L 76.32067 -246.016912 
L 76.879639 -247.153218 
L 77.455388 -248.289525 
L 78.048195 -249.425831 
L 78.657359 -250.562137 
L 79.281105 -251.698443 
L 79.916551 -252.834749 
L 97.275324 -252.834749 
L 97.275324 -252.834749 
L 97.91077 -251.698443 
L 98.534516 -250.562137 
L 99.14368 -249.425831 
L 99.736487 -248.289525 
L 100.312236 -247.153218 
L 100.871205 -246.016912 
L 101.414498 -244.880606 
L 101.94385 -243.7443 
L 102.461429 -242.607994 
L 102.969625 -241.471688 
L 103.47088 -240.335382 
L 103.967547 -239.199076 
L 104.461797 -238.06277 
L 104.955575 -236.926464 
L 105.450599 -235.790158 
L 105.948392 -234.653852 
L 106.450329 -233.517545 
L 106.957693 -232.381239 
L 107.471713 -231.244933 
L 107.993574 -230.108627 
L 108.524394 -228.972321 
L 109.065162 -227.836015 
L 109.616633 -226.699709 
L 110.179195 -225.563403 
L 110.752721 -224.427097 
L 111.33641 -223.290791 
L 111.928648 -222.154485 
L 112.526904 -221.018178 
L 113.127665 -219.881872 
L 113.726446 -218.745566 
L 114.317861 -217.60926 
L 114.895773 -216.472954 
L 115.45351 -215.336648 
L 115.984147 -214.200342 
L 116.480831 -213.064036 
L 116.937128 -211.92773 
L 117.347375 -210.791424 
L 117.707009 -209.655118 
L 118.012834 -208.518811 
L 118.263222 -207.382505 
L 118.458215 -206.246199 
L 118.599517 -205.109893 
L 118.690373 -203.973587 
L 118.735336 -202.837281 
L 118.739937 -201.700975 
L 118.710278 -200.564669 
L 118.652572 -199.428363 
L 118.572675 -198.292057 
L 118.475637 -197.155751 
L 118.365297 -196.019445 
L 118.243979 -194.883138 
L 118.112287 -193.746832 
L 117.96902 -192.610526 
L 117.811226 -191.47422 
L 117.634363 -190.337914 
L 117.432584 -189.201608 
L 117.199098 -188.065302 
L 116.926589 -186.928996 
L 116.607674 -185.79269 
L 116.235352 -184.656384 
L 115.803433 -183.520078 
L 115.306918 -182.383771 
L 114.74231 -181.247465 
L 114.107852 -180.111159 
L 113.403682 -178.974853 
L 112.631899 -177.838547 
L 111.796548 -176.702241 
L 110.903533 -175.565935 
L 109.960454 -174.429629 
L 108.976391 -173.293323 
L 107.961628 -172.157017 
L 106.927351 -171.020711 
L 105.885302 -169.884404 
L 104.84743 -168.748098 
L 103.825525 -167.611792 
L 102.830866 -166.475486 
L 101.873882 -165.33918 
L 100.963843 -164.202874 
L 100.108596 -163.066568 
L 99.314344 -161.930262 
L 98.585489 -160.793956 
L 97.924533 -159.65765 
L 97.332055 -158.521344 
L 96.806751 -157.385038 
L 96.345545 -156.248731 
L 95.943765 -155.112425 
L 95.595375 -153.976119 
L 95.293254 -152.839813 
L 95.029518 -151.703507 
L 94.795856 -150.567201 
L 94.583884 -149.430895 
L 94.385484 -148.294589 
L 94.193125 -147.158283 
L 94.000145 -146.021977 
L 93.800984 -144.885671 
L 93.591353 -143.749364 
L 93.368336 -142.613058 
L 93.130421 -141.476752 
L 92.877455 -140.340446 
z
" style="stroke: #000000; stroke-opacity: 0.7"/>
    </defs>
    <g clip-path="url(#pd2f43f3230)">
     <use xlink:href="#mad714d19db" x="0" y="319.990641" style="fill: #c49c94; fill-opacity: 0.7; stroke: #000000; stroke-opacity: 0.7"/>
    </g>
   </g>
   <g id="PolyCollection_2">
    <defs>
     <path id="m5135b0ed0a" d="M 167.667525 -135.274709 
L 160.24435 -135.274709 
L 159.859491 -136.504531 
L 159.473629 -137.734353 
L 159.09052 -138.964175 
L 158.713172 -140.193997 
L 158.343673 -141.423819 
L 157.983114 -142.653641 
L 157.631596 -143.883463 
L 157.288335 -145.113285 
L 156.951839 -146.343107 
L 156.620149 -147.572929 
L 156.291096 -148.802751 
L 155.96256 -150.032573 
L 155.632679 -151.262394 
L 155.300003 -152.492216 
L 154.963544 -153.722038 
L 154.622741 -154.95186 
L 154.277318 -156.181682 
L 153.927064 -157.411504 
L 153.571543 -158.641326 
L 153.209778 -159.871148 
L 152.839941 -161.10097 
L 152.459082 -162.330792 
L 152.062946 -163.560614 
L 151.645905 -164.790436 
L 151.201032 -166.020258 
L 150.720339 -167.25008 
L 150.195173 -168.479902 
L 149.616767 -169.709724 
L 148.976914 -170.939546 
L 148.268724 -172.169368 
L 147.487409 -173.39919 
L 146.631042 -174.629012 
L 145.701204 -175.858834 
L 144.703476 -177.088656 
L 143.647697 -178.318478 
L 142.547964 -179.5483 
L 141.42234 -180.778122 
L 140.292273 -182.007944 
L 139.181749 -183.237765 
L 138.116232 -184.467587 
L 137.121464 -185.697409 
L 136.222194 -186.927231 
L 135.440945 -188.157053 
L 134.796892 -189.386875 
L 134.304941 -190.616697 
L 133.975067 -191.846519 
L 133.811937 -193.076341 
L 133.814865 -194.306163 
L 133.978044 -195.535985 
L 134.291065 -196.765807 
L 134.739646 -197.995629 
L 135.306524 -199.225451 
L 135.972436 -200.455273 
L 136.717134 -201.685095 
L 137.520358 -202.914917 
L 138.36274 -204.144739 
L 139.226561 -205.374561 
L 140.096369 -206.604383 
L 140.9594 -207.834205 
L 141.805817 -209.064027 
L 142.628751 -210.293849 
L 143.42415 -211.523671 
L 144.190475 -212.753493 
L 144.92824 -213.983315 
L 145.639476 -215.213136 
L 146.32713 -216.442958 
L 146.994478 -217.67278 
L 147.644601 -218.902602 
L 148.27996 -220.132424 
L 148.902125 -221.362246 
L 149.511666 -222.592068 
L 150.108211 -223.82189 
L 150.690657 -225.051712 
L 151.257486 -226.281534 
L 151.807141 -227.511356 
L 152.338402 -228.741178 
L 152.850709 -229.971 
L 153.344377 -231.200822 
L 153.820675 -232.430644 
L 154.281773 -233.660466 
L 154.730536 -234.890288 
L 155.170226 -236.12011 
L 155.604143 -237.349932 
L 156.035246 -238.579754 
L 156.465828 -239.809576 
L 156.897262 -241.039398 
L 157.329864 -242.26922 
L 157.762874 -243.499042 
L 158.194562 -244.728864 
L 158.622421 -245.958686 
L 159.043429 -247.188507 
L 159.454339 -248.418329 
L 159.85196 -249.648151 
L 160.233399 -250.877973 
L 160.596239 -252.107795 
L 160.938649 -253.337617 
L 161.259416 -254.567439 
L 161.557923 -255.797261 
L 161.834067 -257.027083 
L 166.077808 -257.027083 
L 166.077808 -257.027083 
L 166.353952 -255.797261 
L 166.652459 -254.567439 
L 166.973226 -253.337617 
L 167.315636 -252.107795 
L 167.678476 -250.877973 
L 168.059915 -249.648151 
L 168.457536 -248.418329 
L 168.868446 -247.188507 
L 169.289454 -245.958686 
L 169.717313 -244.728864 
L 170.149001 -243.499042 
L 170.582011 -242.26922 
L 171.014613 -241.039398 
L 171.446047 -239.809576 
L 171.876629 -238.579754 
L 172.307732 -237.349932 
L 172.741649 -236.12011 
L 173.181339 -234.890288 
L 173.630102 -233.660466 
L 174.0912 -232.430644 
L 174.567498 -231.200822 
L 175.061166 -229.971 
L 175.573473 -228.741178 
L 176.104734 -227.511356 
L 176.654389 -226.281534 
L 177.221218 -225.051712 
L 177.803664 -223.82189 
L 178.400209 -222.592068 
L 179.00975 -221.362246 
L 179.631915 -220.132424 
L 180.267274 -218.902602 
L 180.917397 -217.67278 
L 181.584745 -216.442958 
L 182.272399 -215.213136 
L 182.983635 -213.983315 
L 183.7214 -212.753493 
L 184.487725 -211.523671 
L 185.283124 -210.293849 
L 186.106058 -209.064027 
L 186.952475 -207.834205 
L 187.815506 -206.604383 
L 188.685314 -205.374561 
L 189.549135 -204.144739 
L 190.391517 -202.914917 
L 191.194741 -201.685095 
L 191.939439 -200.455273 
L 192.605351 -199.225451 
L 193.172229 -197.995629 
L 193.62081 -196.765807 
L 193.933831 -195.535985 
L 194.09701 -194.306163 
L 194.099938 -193.076341 
L 193.936808 -191.846519 
L 193.606934 -190.616697 
L 193.114983 -189.386875 
L 192.47093 -188.157053 
L 191.689681 -186.927231 
L 190.790411 -185.697409 
L 189.795643 -184.467587 
L 188.730126 -183.237765 
L 187.619602 -182.007944 
L 186.489535 -180.778122 
L 185.363911 -179.5483 
L 184.264178 -178.318478 
L 183.208399 -177.088656 
L 182.210671 -175.858834 
L 181.280833 -174.629012 
L 180.424466 -173.39919 
L 179.643151 -172.169368 
L 178.934961 -170.939546 
L 178.295108 -169.709724 
L 177.716702 -168.479902 
L 177.191536 -167.25008 
L 176.710843 -166.020258 
L 176.26597 -164.790436 
L 175.848929 -163.560614 
L 175.452793 -162.330792 
L 175.071934 -161.10097 
L 174.702097 -159.871148 
L 174.340332 -158.641326 
L 173.984811 -157.411504 
L 173.634557 -156.181682 
L 173.289134 -154.95186 
L 172.948331 -153.722038 
L 172.611872 -152.492216 
L 172.279196 -151.262394 
L 171.949315 -150.032573 
L 171.620779 -148.802751 
L 171.291726 -147.572929 
L 170.960036 -146.343107 
L 170.62354 -145.113285 
L 170.280279 -143.883463 
L 169.928761 -142.653641 
L 169.568202 -141.423819 
L 169.198703 -140.193997 
L 168.821355 -138.964175 
L 168.438246 -137.734353 
L 168.052384 -136.504531 
L 167.667525 -135.274709 
z
" style="stroke: #000000; stroke-opacity: 0.7"/>
    </defs>
    <g clip-path="url(#pd2f43f3230)">
     <use xlink:href="#m5135b0ed0a" x="0" y="319.990641" style="fill: #ffd92f; fill-opacity: 0.7; stroke: #000000; stroke-opacity: 0.7"/>
    </g>
   </g>
   <g id="PolyCollection_3">
    <defs>
     <path id="mcf0678beb6" d="M 240.631778 -116.933247 
L 238.000097 -116.933247 
L 237.888401 -118.411856 
L 237.775838 -119.890466 
L 237.662149 -121.369075 
L 237.546637 -122.847684 
L 237.428056 -124.326294 
L 237.304477 -125.804903 
L 237.173149 -127.283513 
L 237.030362 -128.762122 
L 236.87135 -130.240732 
L 236.690243 -131.719341 
L 236.480122 -133.197951 
L 236.233168 -134.67656 
L 235.940937 -136.15517 
L 235.594754 -137.633779 
L 235.186197 -139.112389 
L 234.707642 -140.590998 
L 234.152831 -142.069608 
L 233.517395 -143.548217 
L 232.799299 -145.026827 
L 231.999153 -146.505436 
L 231.120365 -147.984046 
L 230.169127 -149.462655 
L 229.154222 -150.941264 
L 228.086698 -152.419874 
L 226.979422 -153.898483 
L 225.846556 -155.377093 
L 224.703012 -156.855702 
L 223.563905 -158.334312 
L 222.444037 -159.812921 
L 221.357436 -161.291531 
L 220.316951 -162.77014 
L 219.333904 -164.24875 
L 218.417789 -165.727359 
L 217.576021 -167.205969 
L 216.813725 -168.684578 
L 216.133568 -170.163188 
L 215.535645 -171.641797 
L 215.017436 -173.120407 
L 214.57385 -174.599016 
L 214.197375 -176.077626 
L 213.878353 -177.556235 
L 213.605387 -179.034845 
L 213.365864 -180.513454 
L 213.146611 -181.992063 
L 212.934621 -183.470673 
L 212.717841 -184.949282 
L 212.48597 -186.427892 
L 212.231206 -187.906501 
L 211.948907 -189.385111 
L 211.638095 -190.86372 
L 211.301767 -192.34233 
L 210.946968 -193.820939 
L 210.584588 -195.299549 
L 210.228886 -196.778158 
L 209.89673 -198.256768 
L 209.606603 -199.735377 
L 209.377418 -201.213987 
L 209.227229 -202.692596 
L 209.171938 -204.171206 
L 209.224106 -205.649815 
L 209.391987 -207.128425 
L 209.678869 -208.607034 
L 210.082798 -210.085643 
L 210.596734 -211.564253 
L 211.209095 -213.042862 
L 211.904676 -214.521472 
L 212.665821 -216.000081 
L 213.473741 -217.478691 
L 214.309851 -218.9573 
L 215.15699 -220.43591 
L 216.000422 -221.914519 
L 216.828538 -223.393129 
L 217.633229 -224.871738 
L 218.409921 -226.350348 
L 219.157316 -227.828957 
L 219.876892 -229.307567 
L 220.572254 -230.786176 
L 221.248403 -232.264786 
L 221.911003 -233.743395 
L 222.565717 -235.222005 
L 223.217653 -236.700614 
L 223.870945 -238.179223 
L 224.528494 -239.657833 
L 225.19186 -241.136442 
L 225.86128 -242.615052 
L 226.535815 -244.093661 
L 227.213564 -245.572271 
L 227.891942 -247.05088 
L 228.567968 -248.52949 
L 229.238535 -250.008099 
L 229.900647 -251.486709 
L 230.551583 -252.965318 
L 231.188997 -254.443928 
L 231.810937 -255.922537 
L 232.415796 -257.401147 
L 233.00222 -258.879756 
L 233.568984 -260.358366 
L 234.114869 -261.836975 
L 234.63856 -263.315585 
L 243.993315 -263.315585 
L 243.993315 -263.315585 
L 244.517006 -261.836975 
L 245.062891 -260.358366 
L 245.629655 -258.879756 
L 246.216079 -257.401147 
L 246.820938 -255.922537 
L 247.442878 -254.443928 
L 248.080292 -252.965318 
L 248.731228 -251.486709 
L 249.39334 -250.008099 
L 250.063907 -248.52949 
L 250.739933 -247.05088 
L 251.418311 -245.572271 
L 252.09606 -244.093661 
L 252.770595 -242.615052 
L 253.440015 -241.136442 
L 254.103381 -239.657833 
L 254.76093 -238.179223 
L 255.414222 -236.700614 
L 256.066158 -235.222005 
L 256.720872 -233.743395 
L 257.383472 -232.264786 
L 258.059621 -230.786176 
L 258.754983 -229.307567 
L 259.474559 -227.828957 
L 260.221954 -226.350348 
L 260.998646 -224.871738 
L 261.803337 -223.393129 
L 262.631453 -221.914519 
L 263.474885 -220.43591 
L 264.322024 -218.9573 
L 265.158134 -217.478691 
L 265.966054 -216.000081 
L 266.727199 -214.521472 
L 267.42278 -213.042862 
L 268.035141 -211.564253 
L 268.549077 -210.085643 
L 268.953006 -208.607034 
L 269.239888 -207.128425 
L 269.407769 -205.649815 
L 269.459938 -204.171206 
L 269.404646 -202.692596 
L 269.254457 -201.213987 
L 269.025272 -199.735377 
L 268.735145 -198.256768 
L 268.402989 -196.778158 
L 268.047287 -195.299549 
L 267.684907 -193.820939 
L 267.330108 -192.34233 
L 266.99378 -190.86372 
L 266.682968 -189.385111 
L 266.400669 -187.906501 
L 266.145905 -186.427892 
L 265.914034 -184.949282 
L 265.697254 -183.470673 
L 265.485264 -181.992063 
L 265.266011 -180.513454 
L 265.026488 -179.034845 
L 264.753522 -177.556235 
L 264.4345 -176.077626 
L 264.058025 -174.599016 
L 263.614439 -173.120407 
L 263.09623 -171.641797 
L 262.498307 -170.163188 
L 261.81815 -168.684578 
L 261.055854 -167.205969 
L 260.214086 -165.727359 
L 259.297971 -164.24875 
L 258.314924 -162.77014 
L 257.274439 -161.291531 
L 256.187838 -159.812921 
L 255.06797 -158.334312 
L 253.928863 -156.855702 
L 252.785319 -155.377093 
L 251.652453 -153.898483 
L 250.545177 -152.419874 
L 249.477653 -150.941264 
L 248.462748 -149.462655 
L 247.51151 -147.984046 
L 246.632722 -146.505436 
L 245.832576 -145.026827 
L 245.11448 -143.548217 
L 244.479044 -142.069608 
L 243.924233 -140.590998 
L 243.445678 -139.112389 
L 243.037121 -137.633779 
L 242.690938 -136.15517 
L 242.398707 -134.67656 
L 242.151753 -133.197951 
L 241.941632 -131.719341 
L 241.760525 -130.240732 
L 241.601513 -128.762122 
L 241.458726 -127.283513 
L 241.327398 -125.804903 
L 241.203819 -124.326294 
L 241.085238 -122.847684 
L 240.969726 -121.369075 
L 240.856037 -119.890466 
L 240.743474 -118.411856 
L 240.631778 -116.933247 
z
" style="stroke: #000000; stroke-opacity: 0.7"/>
    </defs>
    <g clip-path="url(#pd2f43f3230)">
     <use xlink:href="#mcf0678beb6" x="0" y="319.990641" style="fill: #dbdb8d; fill-opacity: 0.7; stroke: #000000; stroke-opacity: 0.7"/>
    </g>
   </g>
   <g id="PolyCollection_4">
    <defs>
     <path id="m7c9fbab5ae" d="M 316.226276 -116.758566 
L 313.125599 -116.758566 
L 312.983188 -118.081904 
L 312.842142 -119.405242 
L 312.703146 -120.728579 
L 312.56634 -122.051917 
L 312.431252 -123.375255 
L 312.29677 -124.698593 
L 312.161154 -126.021931 
L 312.022093 -127.345269 
L 311.876796 -128.668606 
L 311.722104 -129.991944 
L 311.554613 -131.315282 
L 311.370771 -132.63862 
L 311.166967 -133.961958 
L 310.939572 -135.285296 
L 310.684957 -136.608634 
L 310.399501 -137.931971 
L 310.079596 -139.255309 
L 309.721704 -140.578647 
L 309.322474 -141.901985 
L 308.878938 -143.225323 
L 308.388797 -144.548661 
L 307.850771 -145.871998 
L 307.264969 -147.195336 
L 306.633228 -148.518674 
L 305.959346 -149.842012 
L 305.249154 -151.16535 
L 304.510375 -152.488688 
L 303.752241 -153.812025 
L 302.984898 -155.135363 
L 302.218635 -156.458701 
L 301.463024 -157.782039 
L 300.726073 -159.105377 
L 300.0135 -160.428715 
L 299.328218 -161.752052 
L 298.67012 -163.07539 
L 298.03617 -164.398728 
L 297.420808 -165.722066 
L 296.816615 -167.045404 
L 296.215152 -168.368742 
L 295.60787 -169.692079 
L 294.986992 -171.015417 
L 294.346279 -172.338755 
L 293.681606 -173.662093 
L 292.991322 -174.985431 
L 292.276396 -176.308769 
L 291.540361 -177.632106 
L 290.789122 -178.955444 
L 290.030663 -180.278782 
L 289.274707 -181.60212 
L 288.532372 -182.925458 
L 287.815823 -184.248796 
L 287.13794 -185.572133 
L 286.511973 -186.895471 
L 285.951179 -188.218809 
L 285.468393 -189.542147 
L 285.075568 -190.865485 
L 284.783244 -192.188823 
L 284.600002 -193.51216 
L 284.531938 -194.835498 
L 284.582197 -196.158836 
L 284.750649 -197.482174 
L 285.033741 -198.805512 
L 285.42457 -200.12885 
L 285.91321 -201.452187 
L 286.487263 -202.775525 
L 287.132624 -204.098863 
L 287.83438 -205.422201 
L 288.577789 -206.745539 
L 289.349234 -208.068877 
L 290.137067 -209.392214 
L 290.932273 -210.715552 
L 291.728865 -212.03889 
L 292.52399 -213.362228 
L 293.317731 -214.685566 
L 294.11261 -216.008904 
L 294.912857 -217.332241 
L 295.723519 -218.655579 
L 296.549491 -219.978917 
L 297.394589 -221.302255 
L 298.260758 -222.625593 
L 299.147505 -223.948931 
L 300.051619 -225.272268 
L 300.967214 -226.595606 
L 301.886076 -227.918944 
L 302.798288 -229.242282 
L 303.693045 -230.56562 
L 304.559562 -231.888958 
L 305.387983 -233.212295 
L 306.170168 -234.535633 
L 306.900284 -235.858971 
L 307.575142 -237.182309 
L 308.194253 -238.505647 
L 308.759611 -239.828985 
L 309.27525 -241.152323 
L 309.746639 -242.47566 
L 310.180002 -243.798998 
L 310.581633 -245.122336 
L 310.957296 -246.445674 
L 311.311765 -247.769012 
L 318.04011 -247.769012 
L 318.04011 -247.769012 
L 318.394579 -246.445674 
L 318.770242 -245.122336 
L 319.171873 -243.798998 
L 319.605236 -242.47566 
L 320.076625 -241.152323 
L 320.592264 -239.828985 
L 321.157622 -238.505647 
L 321.776733 -237.182309 
L 322.451591 -235.858971 
L 323.181707 -234.535633 
L 323.963892 -233.212295 
L 324.792313 -231.888958 
L 325.65883 -230.56562 
L 326.553587 -229.242282 
L 327.465799 -227.918944 
L 328.384661 -226.595606 
L 329.300256 -225.272268 
L 330.20437 -223.948931 
L 331.091117 -222.625593 
L 331.957286 -221.302255 
L 332.802384 -219.978917 
L 333.628356 -218.655579 
L 334.439018 -217.332241 
L 335.239265 -216.008904 
L 336.034144 -214.685566 
L 336.827885 -213.362228 
L 337.62301 -212.03889 
L 338.419602 -210.715552 
L 339.214808 -209.392214 
L 340.002641 -208.068877 
L 340.774086 -206.745539 
L 341.517495 -205.422201 
L 342.219251 -204.098863 
L 342.864612 -202.775525 
L 343.438665 -201.452187 
L 343.927305 -200.12885 
L 344.318134 -198.805512 
L 344.601226 -197.482174 
L 344.769678 -196.158836 
L 344.819938 -194.835498 
L 344.751873 -193.51216 
L 344.568631 -192.188823 
L 344.276307 -190.865485 
L 343.883482 -189.542147 
L 343.400696 -188.218809 
L 342.839902 -186.895471 
L 342.213935 -185.572133 
L 341.536052 -184.248796 
L 340.819503 -182.925458 
L 340.077168 -181.60212 
L 339.321212 -180.278782 
L 338.562753 -178.955444 
L 337.811514 -177.632106 
L 337.075479 -176.308769 
L 336.360553 -174.985431 
L 335.670269 -173.662093 
L 335.005596 -172.338755 
L 334.364883 -171.015417 
L 333.744005 -169.692079 
L 333.136723 -168.368742 
L 332.53526 -167.045404 
L 331.931067 -165.722066 
L 331.315705 -164.398728 
L 330.681755 -163.07539 
L 330.023657 -161.752052 
L 329.338375 -160.428715 
L 328.625802 -159.105377 
L 327.888851 -157.782039 
L 327.13324 -156.458701 
L 326.366977 -155.135363 
L 325.599634 -153.812025 
L 324.8415 -152.488688 
L 324.102721 -151.16535 
L 323.392529 -149.842012 
L 322.718647 -148.518674 
L 322.086906 -147.195336 
L 321.501104 -145.871998 
L 320.963078 -144.548661 
L 320.472937 -143.225323 
L 320.029401 -141.901985 
L 319.630171 -140.578647 
L 319.272279 -139.255309 
L 318.952374 -137.931971 
L 318.666918 -136.608634 
L 318.412303 -135.285296 
L 318.184908 -133.961958 
L 317.981104 -132.63862 
L 317.797262 -131.315282 
L 317.629771 -129.991944 
L 317.475079 -128.668606 
L 317.329782 -127.345269 
L 317.190721 -126.021931 
L 317.055105 -124.698593 
L 316.920623 -123.375255 
L 316.785535 -122.051917 
L 316.648729 -120.728579 
L 316.509733 -119.405242 
L 316.368687 -118.081904 
L 316.226276 -116.758566 
z
" style="stroke: #000000; stroke-opacity: 0.7"/>
    </defs>
    <g clip-path="url(#pd2f43f3230)">
     <use xlink:href="#m7c9fbab5ae" x="0" y="319.990641" style="fill: #e5c494; fill-opacity: 0.7; stroke: #000000; stroke-opacity: 0.7"/>
    </g>
   </g>
   <g id="PolyCollection_5">
    <defs>
     <path id="m522b8dd4c8" d="M 391.693507 -108.548578 
L 388.378368 -108.548578 
L 388.184968 -110.29362 
L 387.975579 -112.038661 
L 387.748279 -113.783703 
L 387.500913 -115.528744 
L 387.231112 -117.273786 
L 386.93629 -119.018827 
L 386.613627 -120.763868 
L 386.260037 -122.50891 
L 385.872141 -124.253951 
L 385.446275 -125.998993 
L 384.978541 -127.744034 
L 384.464937 -129.489076 
L 383.90157 -131.234117 
L 383.284953 -132.979159 
L 382.612364 -134.7242 
L 381.882235 -136.469242 
L 381.094519 -138.214283 
L 380.250979 -139.959325 
L 379.355341 -141.704366 
L 378.413274 -143.449408 
L 377.432153 -145.194449 
L 376.420643 -146.939491 
L 375.388105 -148.684532 
L 374.343926 -150.429574 
L 373.296842 -152.174615 
L 372.254373 -153.919657 
L 371.222465 -155.664698 
L 370.205414 -157.40974 
L 369.206104 -159.154781 
L 368.22655 -160.899823 
L 367.268664 -162.644864 
L 366.335124 -164.389906 
L 365.430196 -166.134947 
L 364.560329 -167.879989 
L 363.734395 -169.62503 
L 362.96345 -171.370072 
L 362.260015 -173.115113 
L 361.636888 -174.860155 
L 361.105666 -176.605196 
L 360.675126 -178.350238 
L 360.349736 -180.095279 
L 360.128522 -181.840321 
L 360.004491 -183.585362 
L 359.964752 -185.330404 
L 359.991367 -187.075445 
L 360.062874 -188.820487 
L 360.156315 -190.565528 
L 360.24952 -192.31057 
L 360.323376 -194.055611 
L 360.363789 -195.800653 
L 360.363084 -197.545694 
L 360.320702 -199.290736 
L 360.243096 -201.035777 
L 360.142879 -202.780819 
L 360.037371 -204.52586 
L 359.946729 -206.270902 
L 359.891937 -208.015943 
L 359.892898 -209.760985 
L 359.966837 -211.506026 
L 360.127188 -213.251068 
L 360.383012 -214.996109 
L 360.738957 -216.741151 
L 361.195653 -218.486192 
L 361.750417 -220.231234 
L 362.398107 -221.976275 
L 363.13196 -223.721317 
L 363.94429 -225.466358 
L 364.826975 -227.2114 
L 365.771688 -228.956441 
L 366.769921 -230.701483 
L 367.812855 -232.446524 
L 368.891161 -234.191565 
L 369.994842 -235.936607 
L 371.113173 -237.681648 
L 372.234803 -239.42669 
L 373.34802 -241.171731 
L 374.441167 -242.916773 
L 375.503146 -244.661814 
L 376.523957 -246.406856 
L 377.495178 -248.151897 
L 378.41035 -249.896939 
L 379.265199 -251.64198 
L 380.057688 -253.387022 
L 380.787903 -255.132063 
L 381.457805 -256.877105 
L 382.070878 -258.622146 
L 382.631737 -260.367188 
L 383.145728 -262.112229 
L 383.618561 -263.857271 
L 384.055994 -265.602312 
L 384.463585 -267.347354 
L 384.846494 -269.092395 
L 385.209345 -270.837437 
L 385.556118 -272.582478 
L 385.89007 -274.32752 
L 386.213686 -276.072561 
L 386.528641 -277.817603 
L 386.835801 -279.562644 
L 387.135248 -281.307686 
L 392.936627 -281.307686 
L 392.936627 -281.307686 
L 393.236074 -279.562644 
L 393.543234 -277.817603 
L 393.858189 -276.072561 
L 394.181805 -274.32752 
L 394.515757 -272.582478 
L 394.86253 -270.837437 
L 395.225381 -269.092395 
L 395.60829 -267.347354 
L 396.015881 -265.602312 
L 396.453314 -263.857271 
L 396.926147 -262.112229 
L 397.440138 -260.367188 
L 398.000997 -258.622146 
L 398.61407 -256.877105 
L 399.283972 -255.132063 
L 400.014187 -253.387022 
L 400.806676 -251.64198 
L 401.661525 -249.896939 
L 402.576697 -248.151897 
L 403.547918 -246.406856 
L 404.568729 -244.661814 
L 405.630708 -242.916773 
L 406.723855 -241.171731 
L 407.837072 -239.42669 
L 408.958702 -237.681648 
L 410.077033 -235.936607 
L 411.180714 -234.191565 
L 412.25902 -232.446524 
L 413.301954 -230.701483 
L 414.300187 -228.956441 
L 415.2449 -227.2114 
L 416.127585 -225.466358 
L 416.939915 -223.721317 
L 417.673768 -221.976275 
L 418.321458 -220.231234 
L 418.876222 -218.486192 
L 419.332918 -216.741151 
L 419.688863 -214.996109 
L 419.944687 -213.251068 
L 420.105038 -211.506026 
L 420.178977 -209.760985 
L 420.179938 -208.015943 
L 420.125146 -206.270902 
L 420.034504 -204.52586 
L 419.928996 -202.780819 
L 419.828779 -201.035777 
L 419.751173 -199.290736 
L 419.708791 -197.545694 
L 419.708086 -195.800653 
L 419.748499 -194.055611 
L 419.822355 -192.31057 
L 419.91556 -190.565528 
L 420.009001 -188.820487 
L 420.080508 -187.075445 
L 420.107123 -185.330404 
L 420.067384 -183.585362 
L 419.943353 -181.840321 
L 419.722139 -180.095279 
L 419.396749 -178.350238 
L 418.966209 -176.605196 
L 418.434987 -174.860155 
L 417.81186 -173.115113 
L 417.108425 -171.370072 
L 416.33748 -169.62503 
L 415.511546 -167.879989 
L 414.641679 -166.134947 
L 413.736751 -164.389906 
L 412.803211 -162.644864 
L 411.845325 -160.899823 
L 410.865771 -159.154781 
L 409.866461 -157.40974 
L 408.84941 -155.664698 
L 407.817502 -153.919657 
L 406.775033 -152.174615 
L 405.727949 -150.429574 
L 404.68377 -148.684532 
L 403.651232 -146.939491 
L 402.639722 -145.194449 
L 401.658601 -143.449408 
L 400.716534 -141.704366 
L 399.820896 -139.959325 
L 398.977356 -138.214283 
L 398.18964 -136.469242 
L 397.459511 -134.7242 
L 396.786922 -132.979159 
L 396.170305 -131.234117 
L 395.606938 -129.489076 
L 395.093334 -127.744034 
L 394.6256 -125.998993 
L 394.199734 -124.253951 
L 393.811838 -122.50891 
L 393.458248 -120.763868 
L 393.135585 -119.018827 
L 392.840763 -117.273786 
L 392.570962 -115.528744 
L 392.323596 -113.783703 
L 392.096296 -112.038661 
L 391.886907 -110.29362 
L 391.693507 -108.548578 
z
" style="stroke: #000000; stroke-opacity: 0.7"/>
    </defs>
    <g clip-path="url(#pd2f43f3230)">
     <use xlink:href="#m522b8dd4c8" x="0" y="319.990641" style="fill: #ff7f0e; fill-opacity: 0.7; stroke: #000000; stroke-opacity: 0.7"/>
    </g>
   </g>
   <g id="matplotlib.axis_1">
    <g id="xtick_1">
     <g id="line2d_1">
      <defs>
       <path id="m95cf3a3108" d="M 0 0 
L 0 3.5 
" style="stroke: #000000; stroke-width: 0.8"/>
      </defs>
      <g>
       <use xlink:href="#m95cf3a3108" x="88.595938" y="220.080019" style="stroke: #000000; stroke-width: 0.8"/>
      </g>
     </g>
     <g id="text_1">
      <!-- Fine Dining -->
      <g transform="translate(45.987893 273.749066) rotate(-45) scale(0.12 -0.12)">
       <defs>
        <path id="TimesNewRomanPSMT-46" d="M 1309 4006 
L 1309 2341 
L 2081 2341 
Q 2347 2341 2470 2458 
Q 2594 2575 2634 2922 
L 2750 2922 
L 2750 1488 
L 2634 1488 
Q 2631 1734 2570 1850 
Q 2509 1966 2401 2023 
Q 2294 2081 2081 2081 
L 1309 2081 
L 1309 750 
Q 1309 428 1350 325 
Q 1381 247 1481 191 
Q 1619 116 1769 116 
L 1922 116 
L 1922 0 
L 103 0 
L 103 116 
L 253 116 
Q 516 116 634 269 
Q 709 369 709 750 
L 709 3488 
Q 709 3809 669 3913 
Q 638 3991 541 4047 
Q 406 4122 253 4122 
L 103 4122 
L 103 4238 
L 3256 4238 
L 3297 3306 
L 3188 3306 
Q 3106 3603 2998 3742 
Q 2891 3881 2733 3943 
Q 2575 4006 2244 4006 
L 1309 4006 
z
" transform="scale(0.015625)"/>
        <path id="TimesNewRomanPSMT-69" d="M 928 4444 
Q 1059 4444 1151 4351 
Q 1244 4259 1244 4128 
Q 1244 3997 1151 3903 
Q 1059 3809 928 3809 
Q 797 3809 703 3903 
Q 609 3997 609 4128 
Q 609 4259 701 4351 
Q 794 4444 928 4444 
z
M 1188 2947 
L 1188 647 
Q 1188 378 1227 289 
Q 1266 200 1342 156 
Q 1419 113 1622 113 
L 1622 0 
L 231 0 
L 231 113 
Q 441 113 512 153 
Q 584 194 626 287 
Q 669 381 669 647 
L 669 1750 
Q 669 2216 641 2353 
Q 619 2453 572 2492 
Q 525 2531 444 2531 
Q 356 2531 231 2484 
L 188 2597 
L 1050 2947 
L 1188 2947 
z
" transform="scale(0.015625)"/>
        <path id="TimesNewRomanPSMT-6e" d="M 1034 2341 
Q 1538 2947 1994 2947 
Q 2228 2947 2397 2830 
Q 2566 2713 2666 2444 
Q 2734 2256 2734 1869 
L 2734 647 
Q 2734 375 2778 278 
Q 2813 200 2889 156 
Q 2966 113 3172 113 
L 3172 0 
L 1756 0 
L 1756 113 
L 1816 113 
Q 2016 113 2095 173 
Q 2175 234 2206 353 
Q 2219 400 2219 647 
L 2219 1819 
Q 2219 2209 2117 2386 
Q 2016 2563 1775 2563 
Q 1403 2563 1034 2156 
L 1034 647 
Q 1034 356 1069 288 
Q 1113 197 1189 155 
Q 1266 113 1500 113 
L 1500 0 
L 84 0 
L 84 113 
L 147 113 
Q 366 113 442 223 
Q 519 334 519 647 
L 519 1709 
Q 519 2225 495 2337 
Q 472 2450 423 2490 
Q 375 2531 294 2531 
Q 206 2531 84 2484 
L 38 2597 
L 900 2947 
L 1034 2947 
L 1034 2341 
z
" transform="scale(0.015625)"/>
        <path id="TimesNewRomanPSMT-65" d="M 681 1784 
Q 678 1147 991 784 
Q 1303 422 1725 422 
Q 2006 422 2214 576 
Q 2422 731 2563 1106 
L 2659 1044 
Q 2594 616 2278 264 
Q 1963 -88 1488 -88 
Q 972 -88 605 314 
Q 238 716 238 1394 
Q 238 2128 614 2539 
Q 991 2950 1559 2950 
Q 2041 2950 2350 2633 
Q 2659 2316 2659 1784 
L 681 1784 
z
M 681 1966 
L 2006 1966 
Q 1991 2241 1941 2353 
Q 1863 2528 1708 2628 
Q 1553 2728 1384 2728 
Q 1125 2728 920 2526 
Q 716 2325 681 1966 
z
" transform="scale(0.015625)"/>
        <path id="TimesNewRomanPSMT-20" transform="scale(0.015625)"/>
        <path id="TimesNewRomanPSMT-44" d="M 109 0 
L 109 116 
L 269 116 
Q 538 116 650 288 
Q 719 391 719 750 
L 719 3488 
Q 719 3884 631 3984 
Q 509 4122 269 4122 
L 109 4122 
L 109 4238 
L 1834 4238 
Q 2784 4238 3279 4022 
Q 3775 3806 4076 3303 
Q 4378 2800 4378 2141 
Q 4378 1256 3841 663 
Q 3238 0 2003 0 
L 109 0 
z
M 1319 306 
Q 1716 219 1984 219 
Q 2709 219 3187 728 
Q 3666 1238 3666 2109 
Q 3666 2988 3187 3494 
Q 2709 4000 1959 4000 
Q 1678 4000 1319 3909 
L 1319 306 
z
" transform="scale(0.015625)"/>
        <path id="TimesNewRomanPSMT-67" d="M 966 1044 
Q 703 1172 562 1401 
Q 422 1631 422 1909 
Q 422 2334 742 2640 
Q 1063 2947 1563 2947 
Q 1972 2947 2272 2747 
L 2878 2747 
Q 3013 2747 3034 2739 
Q 3056 2731 3066 2713 
Q 3084 2684 3084 2613 
Q 3084 2531 3069 2500 
Q 3059 2484 3036 2475 
Q 3013 2466 2878 2466 
L 2506 2466 
Q 2681 2241 2681 1891 
Q 2681 1491 2375 1206 
Q 2069 922 1553 922 
Q 1341 922 1119 984 
Q 981 866 932 777 
Q 884 688 884 625 
Q 884 572 936 522 
Q 988 472 1138 450 
Q 1225 438 1575 428 
Q 2219 413 2409 384 
Q 2700 344 2873 169 
Q 3047 -6 3047 -263 
Q 3047 -616 2716 -925 
Q 2228 -1381 1444 -1381 
Q 841 -1381 425 -1109 
Q 191 -953 191 -784 
Q 191 -709 225 -634 
Q 278 -519 444 -313 
Q 466 -284 763 25 
Q 600 122 533 198 
Q 466 275 466 372 
Q 466 481 555 628 
Q 644 775 966 1044 
z
M 1509 2797 
Q 1278 2797 1122 2612 
Q 966 2428 966 2047 
Q 966 1553 1178 1281 
Q 1341 1075 1591 1075 
Q 1828 1075 1981 1253 
Q 2134 1431 2134 1813 
Q 2134 2309 1919 2591 
Q 1759 2797 1509 2797 
z
M 934 0 
Q 788 -159 713 -296 
Q 638 -434 638 -550 
Q 638 -700 819 -813 
Q 1131 -1006 1722 -1006 
Q 2284 -1006 2551 -807 
Q 2819 -609 2819 -384 
Q 2819 -222 2659 -153 
Q 2497 -84 2016 -72 
Q 1313 -53 934 0 
z
" transform="scale(0.015625)"/>
       </defs>
       <use xlink:href="#TimesNewRomanPSMT-46"/>
       <use xlink:href="#TimesNewRomanPSMT-69" x="55.615234"/>
       <use xlink:href="#TimesNewRomanPSMT-6e" x="83.398438"/>
       <use xlink:href="#TimesNewRomanPSMT-65" x="133.398438"/>
       <use xlink:href="#TimesNewRomanPSMT-20" x="177.783203"/>
       <use xlink:href="#TimesNewRomanPSMT-44" x="202.783203"/>
       <use xlink:href="#TimesNewRomanPSMT-69" x="275"/>
       <use xlink:href="#TimesNewRomanPSMT-6e" x="302.783203"/>
       <use xlink:href="#TimesNewRomanPSMT-69" x="352.783203"/>
       <use xlink:href="#TimesNewRomanPSMT-6e" x="380.566406"/>
       <use xlink:href="#TimesNewRomanPSMT-67" x="430.566406"/>
      </g>
     </g>
    </g>
    <g id="xtick_2">
     <g id="line2d_2">
      <g>
       <use xlink:href="#m95cf3a3108" x="163.955938" y="220.080019" style="stroke: #000000; stroke-width: 0.8"/>
      </g>
     </g>
     <g id="text_2">
      <!-- Pizza Restaurants -->
      <g transform="translate(102.053158 293.05971) rotate(-45) scale(0.12 -0.12)">
       <defs>
        <path id="TimesNewRomanPSMT-50" d="M 1313 1984 
L 1313 750 
Q 1313 350 1400 253 
Q 1519 116 1759 116 
L 1922 116 
L 1922 0 
L 106 0 
L 106 116 
L 266 116 
Q 534 116 650 291 
Q 713 388 713 750 
L 713 3488 
Q 713 3888 628 3984 
Q 506 4122 266 4122 
L 106 4122 
L 106 4238 
L 1659 4238 
Q 2228 4238 2556 4120 
Q 2884 4003 3109 3725 
Q 3334 3447 3334 3066 
Q 3334 2547 2992 2222 
Q 2650 1897 2025 1897 
Q 1872 1897 1694 1919 
Q 1516 1941 1313 1984 
z
M 1313 2163 
Q 1478 2131 1606 2115 
Q 1734 2100 1825 2100 
Q 2150 2100 2386 2351 
Q 2622 2603 2622 3003 
Q 2622 3278 2509 3514 
Q 2397 3750 2190 3867 
Q 1984 3984 1722 3984 
Q 1563 3984 1313 3925 
L 1313 2163 
z
" transform="scale(0.015625)"/>
        <path id="TimesNewRomanPSMT-7a" d="M 2688 878 
L 2653 0 
L 128 0 
L 128 113 
L 2028 2644 
L 1091 2644 
Q 788 2644 694 2605 
Q 600 2566 541 2456 
Q 456 2300 444 2069 
L 319 2069 
L 338 2863 
L 2738 2863 
L 2738 2747 
L 819 209 
L 1863 209 
Q 2191 209 2308 264 
Q 2425 319 2497 456 
Q 2547 556 2581 878 
L 2688 878 
z
" transform="scale(0.015625)"/>
        <path id="TimesNewRomanPSMT-61" d="M 1822 413 
Q 1381 72 1269 19 
Q 1100 -59 909 -59 
Q 613 -59 420 144 
Q 228 347 228 678 
Q 228 888 322 1041 
Q 450 1253 767 1440 
Q 1084 1628 1822 1897 
L 1822 2009 
Q 1822 2438 1686 2597 
Q 1550 2756 1291 2756 
Q 1094 2756 978 2650 
Q 859 2544 859 2406 
L 866 2225 
Q 866 2081 792 2003 
Q 719 1925 600 1925 
Q 484 1925 411 2006 
Q 338 2088 338 2228 
Q 338 2497 613 2722 
Q 888 2947 1384 2947 
Q 1766 2947 2009 2819 
Q 2194 2722 2281 2516 
Q 2338 2381 2338 1966 
L 2338 994 
Q 2338 584 2353 492 
Q 2369 400 2405 369 
Q 2441 338 2488 338 
Q 2538 338 2575 359 
Q 2641 400 2828 588 
L 2828 413 
Q 2478 -56 2159 -56 
Q 2006 -56 1915 50 
Q 1825 156 1822 413 
z
M 1822 616 
L 1822 1706 
Q 1350 1519 1213 1441 
Q 966 1303 859 1153 
Q 753 1003 753 825 
Q 753 600 887 451 
Q 1022 303 1197 303 
Q 1434 303 1822 616 
z
" transform="scale(0.015625)"/>
        <path id="TimesNewRomanPSMT-52" d="M 4325 0 
L 3194 0 
L 1759 1981 
Q 1600 1975 1500 1975 
Q 1459 1975 1412 1976 
Q 1366 1978 1316 1981 
L 1316 750 
Q 1316 350 1403 253 
Q 1522 116 1759 116 
L 1925 116 
L 1925 0 
L 109 0 
L 109 116 
L 269 116 
Q 538 116 653 291 
Q 719 388 719 750 
L 719 3488 
Q 719 3888 631 3984 
Q 509 4122 269 4122 
L 109 4122 
L 109 4238 
L 1653 4238 
Q 2328 4238 2648 4139 
Q 2969 4041 3192 3777 
Q 3416 3513 3416 3147 
Q 3416 2756 3161 2468 
Q 2906 2181 2372 2063 
L 3247 847 
Q 3547 428 3762 290 
Q 3978 153 4325 116 
L 4325 0 
z
M 1316 2178 
Q 1375 2178 1419 2176 
Q 1463 2175 1491 2175 
Q 2097 2175 2405 2437 
Q 2713 2700 2713 3106 
Q 2713 3503 2464 3751 
Q 2216 4000 1806 4000 
Q 1625 4000 1316 3941 
L 1316 2178 
z
" transform="scale(0.015625)"/>
        <path id="TimesNewRomanPSMT-73" d="M 2050 2947 
L 2050 1972 
L 1947 1972 
Q 1828 2431 1642 2597 
Q 1456 2763 1169 2763 
Q 950 2763 815 2647 
Q 681 2531 681 2391 
Q 681 2216 781 2091 
Q 878 1963 1175 1819 
L 1631 1597 
Q 2266 1288 2266 781 
Q 2266 391 1970 151 
Q 1675 -88 1309 -88 
Q 1047 -88 709 6 
Q 606 38 541 38 
Q 469 38 428 -44 
L 325 -44 
L 325 978 
L 428 978 
Q 516 541 762 319 
Q 1009 97 1316 97 
Q 1531 97 1667 223 
Q 1803 350 1803 528 
Q 1803 744 1651 891 
Q 1500 1038 1047 1263 
Q 594 1488 453 1669 
Q 313 1847 313 2119 
Q 313 2472 555 2709 
Q 797 2947 1181 2947 
Q 1350 2947 1591 2875 
Q 1750 2828 1803 2828 
Q 1853 2828 1881 2850 
Q 1909 2872 1947 2947 
L 2050 2947 
z
" transform="scale(0.015625)"/>
        <path id="TimesNewRomanPSMT-74" d="M 1031 3803 
L 1031 2863 
L 1700 2863 
L 1700 2644 
L 1031 2644 
L 1031 788 
Q 1031 509 1111 412 
Q 1191 316 1316 316 
Q 1419 316 1516 380 
Q 1613 444 1666 569 
L 1788 569 
Q 1678 263 1478 108 
Q 1278 -47 1066 -47 
Q 922 -47 784 33 
Q 647 113 581 261 
Q 516 409 516 719 
L 516 2644 
L 63 2644 
L 63 2747 
Q 234 2816 414 2980 
Q 594 3144 734 3369 
Q 806 3488 934 3803 
L 1031 3803 
z
" transform="scale(0.015625)"/>
        <path id="TimesNewRomanPSMT-75" d="M 2709 2863 
L 2709 1128 
Q 2709 631 2732 520 
Q 2756 409 2807 365 
Q 2859 322 2928 322 
Q 3025 322 3147 375 
L 3191 266 
L 2334 -88 
L 2194 -88 
L 2194 519 
Q 1825 119 1631 15 
Q 1438 -88 1222 -88 
Q 981 -88 804 51 
Q 628 191 559 409 
Q 491 628 491 1028 
L 491 2306 
Q 491 2509 447 2587 
Q 403 2666 317 2708 
Q 231 2750 6 2747 
L 6 2863 
L 1009 2863 
L 1009 947 
Q 1009 547 1148 422 
Q 1288 297 1484 297 
Q 1619 297 1789 381 
Q 1959 466 2194 703 
L 2194 2325 
Q 2194 2569 2105 2655 
Q 2016 2741 1734 2747 
L 1734 2863 
L 2709 2863 
z
" transform="scale(0.015625)"/>
        <path id="TimesNewRomanPSMT-72" d="M 1038 2947 
L 1038 2303 
Q 1397 2947 1775 2947 
Q 1947 2947 2059 2842 
Q 2172 2738 2172 2600 
Q 2172 2478 2090 2393 
Q 2009 2309 1897 2309 
Q 1788 2309 1652 2417 
Q 1516 2525 1450 2525 
Q 1394 2525 1328 2463 
Q 1188 2334 1038 2041 
L 1038 669 
Q 1038 431 1097 309 
Q 1138 225 1241 169 
Q 1344 113 1538 113 
L 1538 0 
L 72 0 
L 72 113 
Q 291 113 397 181 
Q 475 231 506 341 
Q 522 394 522 644 
L 522 1753 
Q 522 2253 501 2348 
Q 481 2444 426 2487 
Q 372 2531 291 2531 
Q 194 2531 72 2484 
L 41 2597 
L 906 2947 
L 1038 2947 
z
" transform="scale(0.015625)"/>
       </defs>
       <use xlink:href="#TimesNewRomanPSMT-50"/>
       <use xlink:href="#TimesNewRomanPSMT-69" x="55.615234"/>
       <use xlink:href="#TimesNewRomanPSMT-7a" x="83.398438"/>
       <use xlink:href="#TimesNewRomanPSMT-7a" x="127.783203"/>
       <use xlink:href="#TimesNewRomanPSMT-61" x="172.167969"/>
       <use xlink:href="#TimesNewRomanPSMT-20" x="216.552734"/>
       <use xlink:href="#TimesNewRomanPSMT-52" x="241.552734"/>
       <use xlink:href="#TimesNewRomanPSMT-65" x="308.251953"/>
       <use xlink:href="#TimesNewRomanPSMT-73" x="352.636719"/>
       <use xlink:href="#TimesNewRomanPSMT-74" x="391.552734"/>
       <use xlink:href="#TimesNewRomanPSMT-61" x="419.335938"/>
       <use xlink:href="#TimesNewRomanPSMT-75" x="463.720703"/>
       <use xlink:href="#TimesNewRomanPSMT-72" x="513.720703"/>
       <use xlink:href="#TimesNewRomanPSMT-61" x="547.021484"/>
       <use xlink:href="#TimesNewRomanPSMT-6e" x="591.40625"/>
       <use xlink:href="#TimesNewRomanPSMT-74" x="641.40625"/>
       <use xlink:href="#TimesNewRomanPSMT-73" x="669.189453"/>
      </g>
     </g>
    </g>
    <g id="xtick_3">
     <g id="line2d_3">
      <g>
       <use xlink:href="#m95cf3a3108" x="239.315937" y="220.080019" style="stroke: #000000; stroke-width: 0.8"/>
      </g>
     </g>
     <g id="text_3">
      <!-- Bakeries -->
      <g transform="translate(207.813005 262.659864) rotate(-45) scale(0.12 -0.12)">
       <defs>
        <path id="TimesNewRomanPSMT-42" d="M 2956 2163 
Q 3397 2069 3616 1863 
Q 3919 1575 3919 1159 
Q 3919 844 3719 555 
Q 3519 266 3170 133 
Q 2822 0 2106 0 
L 106 0 
L 106 116 
L 266 116 
Q 531 116 647 284 
Q 719 394 719 750 
L 719 3488 
Q 719 3881 628 3984 
Q 506 4122 266 4122 
L 106 4122 
L 106 4238 
L 1938 4238 
Q 2450 4238 2759 4163 
Q 3228 4050 3475 3764 
Q 3722 3478 3722 3106 
Q 3722 2788 3528 2536 
Q 3334 2284 2956 2163 
z
M 1319 2331 
Q 1434 2309 1582 2298 
Q 1731 2288 1909 2288 
Q 2366 2288 2595 2386 
Q 2825 2484 2947 2687 
Q 3069 2891 3069 3131 
Q 3069 3503 2766 3765 
Q 2463 4028 1881 4028 
Q 1569 4028 1319 3959 
L 1319 2331 
z
M 1319 306 
Q 1681 222 2034 222 
Q 2600 222 2897 476 
Q 3194 731 3194 1106 
Q 3194 1353 3059 1581 
Q 2925 1809 2622 1940 
Q 2319 2072 1872 2072 
Q 1678 2072 1540 2065 
Q 1403 2059 1319 2044 
L 1319 306 
z
" transform="scale(0.015625)"/>
        <path id="TimesNewRomanPSMT-6b" d="M 1047 4444 
L 1047 1597 
L 1775 2259 
Q 2006 2472 2044 2528 
Q 2069 2566 2069 2603 
Q 2069 2666 2017 2711 
Q 1966 2756 1847 2763 
L 1847 2863 
L 3091 2863 
L 3091 2763 
Q 2834 2756 2664 2684 
Q 2494 2613 2291 2428 
L 1556 1750 
L 2291 822 
Q 2597 438 2703 334 
Q 2853 188 2966 144 
Q 3044 113 3238 113 
L 3238 0 
L 1847 0 
L 1847 113 
Q 1966 116 2008 148 
Q 2050 181 2050 241 
Q 2050 313 1925 472 
L 1047 1594 
L 1047 644 
Q 1047 366 1086 278 
Q 1125 191 1197 153 
Q 1269 116 1509 113 
L 1509 0 
L 53 0 
L 53 113 
Q 272 113 381 166 
Q 447 200 481 272 
Q 528 375 528 628 
L 528 3234 
Q 528 3731 506 3842 
Q 484 3953 434 3995 
Q 384 4038 303 4038 
Q 238 4038 106 3984 
L 53 4094 
L 903 4444 
L 1047 4444 
z
" transform="scale(0.015625)"/>
       </defs>
       <use xlink:href="#TimesNewRomanPSMT-42"/>
       <use xlink:href="#TimesNewRomanPSMT-61" x="66.699219"/>
       <use xlink:href="#TimesNewRomanPSMT-6b" x="111.083984"/>
       <use xlink:href="#TimesNewRomanPSMT-65" x="161.083984"/>
       <use xlink:href="#TimesNewRomanPSMT-72" x="205.46875"/>
       <use xlink:href="#TimesNewRomanPSMT-69" x="238.769531"/>
       <use xlink:href="#TimesNewRomanPSMT-65" x="266.552734"/>
       <use xlink:href="#TimesNewRomanPSMT-73" x="310.9375"/>
      </g>
     </g>
    </g>
    <g id="xtick_4">
     <g id="line2d_4">
      <g>
       <use xlink:href="#m95cf3a3108" x="314.675938" y="220.080019" style="stroke: #000000; stroke-width: 0.8"/>
      </g>
     </g>
     <g id="text_4">
      <!-- Buffet Restaurants -->
      <g transform="translate(249.620346 296.212523) rotate(-45) scale(0.12 -0.12)">
       <defs>
        <path id="TimesNewRomanPSMT-66" d="M 1319 2638 
L 1319 756 
Q 1319 356 1406 250 
Q 1522 113 1716 113 
L 1975 113 
L 1975 0 
L 266 0 
L 266 113 
L 394 113 
Q 519 113 622 175 
Q 725 238 764 344 
Q 803 450 803 756 
L 803 2638 
L 247 2638 
L 247 2863 
L 803 2863 
L 803 3050 
Q 803 3478 940 3775 
Q 1078 4072 1361 4255 
Q 1644 4438 1997 4438 
Q 2325 4438 2600 4225 
Q 2781 4084 2781 3909 
Q 2781 3816 2700 3733 
Q 2619 3650 2525 3650 
Q 2453 3650 2373 3701 
Q 2294 3753 2178 3923 
Q 2063 4094 1966 4153 
Q 1869 4213 1750 4213 
Q 1606 4213 1506 4136 
Q 1406 4059 1362 3898 
Q 1319 3738 1319 3069 
L 1319 2863 
L 2056 2863 
L 2056 2638 
L 1319 2638 
z
" transform="scale(0.015625)"/>
       </defs>
       <use xlink:href="#TimesNewRomanPSMT-42"/>
       <use xlink:href="#TimesNewRomanPSMT-75" x="66.699219"/>
       <use xlink:href="#TimesNewRomanPSMT-66" x="116.699219"/>
       <use xlink:href="#TimesNewRomanPSMT-66" x="148.25"/>
       <use xlink:href="#TimesNewRomanPSMT-65" x="181.550781"/>
       <use xlink:href="#TimesNewRomanPSMT-74" x="225.935547"/>
       <use xlink:href="#TimesNewRomanPSMT-20" x="253.71875"/>
       <use xlink:href="#TimesNewRomanPSMT-52" x="278.71875"/>
       <use xlink:href="#TimesNewRomanPSMT-65" x="345.417969"/>
       <use xlink:href="#TimesNewRomanPSMT-73" x="389.802734"/>
       <use xlink:href="#TimesNewRomanPSMT-74" x="428.71875"/>
       <use xlink:href="#TimesNewRomanPSMT-61" x="456.501953"/>
       <use xlink:href="#TimesNewRomanPSMT-75" x="500.886719"/>
       <use xlink:href="#TimesNewRomanPSMT-72" x="550.886719"/>
       <use xlink:href="#TimesNewRomanPSMT-61" x="584.1875"/>
       <use xlink:href="#TimesNewRomanPSMT-6e" x="628.572266"/>
       <use xlink:href="#TimesNewRomanPSMT-74" x="678.572266"/>
       <use xlink:href="#TimesNewRomanPSMT-73" x="706.355469"/>
      </g>
     </g>
    </g>
    <g id="xtick_5">
     <g id="line2d_5">
      <g>
       <use xlink:href="#m95cf3a3108" x="390.035938" y="220.080019" style="stroke: #000000; stroke-width: 0.8"/>
      </g>
     </g>
     <g id="text_5">
      <!-- Vegetarian Restaurants -->
      <g transform="translate(310.217282 310.959677) rotate(-45) scale(0.12 -0.12)">
       <defs>
        <path id="TimesNewRomanPSMT-56" d="M 4544 4238 
L 4544 4122 
Q 4319 4081 4203 3978 
Q 4038 3825 3909 3509 
L 2431 -97 
L 2316 -97 
L 728 3556 
Q 606 3838 556 3900 
Q 478 3997 364 4051 
Q 250 4106 56 4122 
L 56 4238 
L 1788 4238 
L 1788 4122 
Q 1494 4094 1406 4022 
Q 1319 3950 1319 3838 
Q 1319 3681 1463 3350 
L 2541 866 
L 3541 3319 
Q 3688 3681 3688 3822 
Q 3688 3913 3597 3995 
Q 3506 4078 3291 4113 
Q 3275 4116 3238 4122 
L 3238 4238 
L 4544 4238 
z
" transform="scale(0.015625)"/>
       </defs>
       <use xlink:href="#TimesNewRomanPSMT-56"/>
       <use xlink:href="#TimesNewRomanPSMT-65" x="61.091797"/>
       <use xlink:href="#TimesNewRomanPSMT-67" x="105.476562"/>
       <use xlink:href="#TimesNewRomanPSMT-65" x="155.476562"/>
       <use xlink:href="#TimesNewRomanPSMT-74" x="199.861328"/>
       <use xlink:href="#TimesNewRomanPSMT-61" x="227.644531"/>
       <use xlink:href="#TimesNewRomanPSMT-72" x="272.029297"/>
       <use xlink:href="#TimesNewRomanPSMT-69" x="305.330078"/>
       <use xlink:href="#TimesNewRomanPSMT-61" x="333.113281"/>
       <use xlink:href="#TimesNewRomanPSMT-6e" x="377.498047"/>
       <use xlink:href="#TimesNewRomanPSMT-20" x="427.498047"/>
       <use xlink:href="#TimesNewRomanPSMT-52" x="452.498047"/>
       <use xlink:href="#TimesNewRomanPSMT-65" x="519.197266"/>
       <use xlink:href="#TimesNewRomanPSMT-73" x="563.582031"/>
       <use xlink:href="#TimesNewRomanPSMT-74" x="602.498047"/>
       <use xlink:href="#TimesNewRomanPSMT-61" x="630.28125"/>
       <use xlink:href="#TimesNewRomanPSMT-75" x="674.666016"/>
       <use xlink:href="#TimesNewRomanPSMT-72" x="724.666016"/>
       <use xlink:href="#TimesNewRomanPSMT-61" x="757.966797"/>
       <use xlink:href="#TimesNewRomanPSMT-6e" x="802.351562"/>
       <use xlink:href="#TimesNewRomanPSMT-74" x="852.351562"/>
       <use xlink:href="#TimesNewRomanPSMT-73" x="880.134766"/>
      </g>
     </g>
    </g>
   </g>
   <g id="matplotlib.axis_2">
    <g id="ytick_1">
     <g id="line2d_6">
      <defs>
       <path id="m505c0759d1" d="M 0 0 
L -3.5 0 
" style="stroke: #000000; stroke-width: 0.8"/>
      </defs>
      <g>
       <use xlink:href="#m505c0759d1" x="50.915938" y="193.275281" style="stroke: #000000; stroke-width: 0.8"/>
      </g>
     </g>
     <g id="text_6">
      <!-- 200 -->
      <g transform="translate(28.915938 196.747156) scale(0.1 -0.1)">
       <defs>
        <path id="TimesNewRomanPSMT-32" d="M 2934 816 
L 2638 0 
L 138 0 
L 138 116 
Q 1241 1122 1691 1759 
Q 2141 2397 2141 2925 
Q 2141 3328 1894 3587 
Q 1647 3847 1303 3847 
Q 991 3847 742 3664 
Q 494 3481 375 3128 
L 259 3128 
Q 338 3706 661 4015 
Q 984 4325 1469 4325 
Q 1984 4325 2329 3994 
Q 2675 3663 2675 3213 
Q 2675 2891 2525 2569 
Q 2294 2063 1775 1497 
Q 997 647 803 472 
L 1909 472 
Q 2247 472 2383 497 
Q 2519 522 2628 598 
Q 2738 675 2819 816 
L 2934 816 
z
" transform="scale(0.015625)"/>
        <path id="TimesNewRomanPSMT-30" d="M 231 2094 
Q 231 2819 450 3342 
Q 669 3866 1031 4122 
Q 1313 4325 1613 4325 
Q 2100 4325 2488 3828 
Q 2972 3213 2972 2159 
Q 2972 1422 2759 906 
Q 2547 391 2217 158 
Q 1888 -75 1581 -75 
Q 975 -75 572 641 
Q 231 1244 231 2094 
z
M 844 2016 
Q 844 1141 1059 588 
Q 1238 122 1591 122 
Q 1759 122 1940 273 
Q 2122 425 2216 781 
Q 2359 1319 2359 2297 
Q 2359 3022 2209 3506 
Q 2097 3866 1919 4016 
Q 1791 4119 1609 4119 
Q 1397 4119 1231 3928 
Q 1006 3669 925 3112 
Q 844 2556 844 2016 
z
" transform="scale(0.015625)"/>
       </defs>
       <use xlink:href="#TimesNewRomanPSMT-32"/>
       <use xlink:href="#TimesNewRomanPSMT-30" x="50"/>
       <use xlink:href="#TimesNewRomanPSMT-30" x="100"/>
      </g>
     </g>
    </g>
    <g id="ytick_2">
     <g id="line2d_7">
      <g>
       <use xlink:href="#m505c0759d1" x="50.915938" y="158.339162" style="stroke: #000000; stroke-width: 0.8"/>
      </g>
     </g>
     <g id="text_7">
      <!-- 400 -->
      <g transform="translate(28.915938 161.811037) scale(0.1 -0.1)">
       <defs>
        <path id="TimesNewRomanPSMT-34" d="M 2978 1563 
L 2978 1119 
L 2409 1119 
L 2409 0 
L 1894 0 
L 1894 1119 
L 100 1119 
L 100 1519 
L 2066 4325 
L 2409 4325 
L 2409 1563 
L 2978 1563 
z
M 1894 1563 
L 1894 3666 
L 406 1563 
L 1894 1563 
z
" transform="scale(0.015625)"/>
       </defs>
       <use xlink:href="#TimesNewRomanPSMT-34"/>
       <use xlink:href="#TimesNewRomanPSMT-30" x="50"/>
       <use xlink:href="#TimesNewRomanPSMT-30" x="100"/>
      </g>
     </g>
    </g>
    <g id="ytick_3">
     <g id="line2d_8">
      <g>
       <use xlink:href="#m505c0759d1" x="50.915938" y="123.403044" style="stroke: #000000; stroke-width: 0.8"/>
      </g>
     </g>
     <g id="text_8">
      <!-- 600 -->
      <g transform="translate(28.915938 126.874919) scale(0.1 -0.1)">
       <defs>
        <path id="TimesNewRomanPSMT-36" d="M 2869 4325 
L 2869 4209 
Q 2456 4169 2195 4045 
Q 1934 3922 1679 3669 
Q 1425 3416 1258 3105 
Q 1091 2794 978 2366 
Q 1428 2675 1881 2675 
Q 2316 2675 2634 2325 
Q 2953 1975 2953 1425 
Q 2953 894 2631 456 
Q 2244 -75 1606 -75 
Q 1172 -75 869 213 
Q 275 772 275 1663 
Q 275 2231 503 2743 
Q 731 3256 1154 3653 
Q 1578 4050 1965 4187 
Q 2353 4325 2688 4325 
L 2869 4325 
z
M 925 2138 
Q 869 1716 869 1456 
Q 869 1156 980 804 
Q 1091 453 1309 247 
Q 1469 100 1697 100 
Q 1969 100 2183 356 
Q 2397 613 2397 1088 
Q 2397 1622 2184 2012 
Q 1972 2403 1581 2403 
Q 1463 2403 1327 2353 
Q 1191 2303 925 2138 
z
" transform="scale(0.015625)"/>
       </defs>
       <use xlink:href="#TimesNewRomanPSMT-36"/>
       <use xlink:href="#TimesNewRomanPSMT-30" x="50"/>
       <use xlink:href="#TimesNewRomanPSMT-30" x="100"/>
      </g>
     </g>
    </g>
    <g id="ytick_4">
     <g id="line2d_9">
      <g>
       <use xlink:href="#m505c0759d1" x="50.915938" y="88.466925" style="stroke: #000000; stroke-width: 0.8"/>
      </g>
     </g>
     <g id="text_9">
      <!-- 800 -->
      <g transform="translate(28.915938 91.9388) scale(0.1 -0.1)">
       <defs>
        <path id="TimesNewRomanPSMT-38" d="M 1228 2134 
Q 725 2547 579 2797 
Q 434 3047 434 3316 
Q 434 3728 753 4026 
Q 1072 4325 1600 4325 
Q 2113 4325 2425 4047 
Q 2738 3769 2738 3413 
Q 2738 3175 2569 2928 
Q 2400 2681 1866 2347 
Q 2416 1922 2594 1678 
Q 2831 1359 2831 1006 
Q 2831 559 2490 242 
Q 2150 -75 1597 -75 
Q 994 -75 656 303 
Q 388 606 388 966 
Q 388 1247 577 1523 
Q 766 1800 1228 2134 
z
M 1719 2469 
Q 2094 2806 2194 3001 
Q 2294 3197 2294 3444 
Q 2294 3772 2109 3958 
Q 1925 4144 1606 4144 
Q 1288 4144 1088 3959 
Q 888 3775 888 3528 
Q 888 3366 970 3203 
Q 1053 3041 1206 2894 
L 1719 2469 
z
M 1375 2016 
Q 1116 1797 991 1539 
Q 866 1281 866 981 
Q 866 578 1086 336 
Q 1306 94 1647 94 
Q 1984 94 2187 284 
Q 2391 475 2391 747 
Q 2391 972 2272 1150 
Q 2050 1481 1375 2016 
z
" transform="scale(0.015625)"/>
       </defs>
       <use xlink:href="#TimesNewRomanPSMT-38"/>
       <use xlink:href="#TimesNewRomanPSMT-30" x="50"/>
       <use xlink:href="#TimesNewRomanPSMT-30" x="100"/>
      </g>
     </g>
    </g>
    <g id="ytick_5">
     <g id="line2d_10">
      <g>
       <use xlink:href="#m505c0759d1" x="50.915938" y="53.530806" style="stroke: #000000; stroke-width: 0.8"/>
      </g>
     </g>
     <g id="text_10">
      <!-- 1000 -->
      <g transform="translate(23.915938 57.002681) scale(0.1 -0.1)">
       <defs>
        <path id="TimesNewRomanPSMT-31" d="M 750 3822 
L 1781 4325 
L 1884 4325 
L 1884 747 
Q 1884 391 1914 303 
Q 1944 216 2037 169 
Q 2131 122 2419 116 
L 2419 0 
L 825 0 
L 825 116 
Q 1125 122 1212 167 
Q 1300 213 1334 289 
Q 1369 366 1369 747 
L 1369 3034 
Q 1369 3497 1338 3628 
Q 1316 3728 1258 3775 
Q 1200 3822 1119 3822 
Q 1003 3822 797 3725 
L 750 3822 
z
" transform="scale(0.015625)"/>
       </defs>
       <use xlink:href="#TimesNewRomanPSMT-31"/>
       <use xlink:href="#TimesNewRomanPSMT-30" x="50"/>
       <use xlink:href="#TimesNewRomanPSMT-30" x="100"/>
       <use xlink:href="#TimesNewRomanPSMT-30" x="150"/>
      </g>
     </g>
    </g>
    <g id="text_11">
     <!-- million USD -->
     <g transform="translate(16.92125 161.039228) rotate(-90) scale(0.14 -0.14)">
      <defs>
       <path id="TimesNewRomanPSMT-6d" d="M 1050 2338 
Q 1363 2650 1419 2697 
Q 1559 2816 1721 2881 
Q 1884 2947 2044 2947 
Q 2313 2947 2506 2790 
Q 2700 2634 2766 2338 
Q 3088 2713 3309 2830 
Q 3531 2947 3766 2947 
Q 3994 2947 4170 2830 
Q 4347 2713 4450 2447 
Q 4519 2266 4519 1878 
L 4519 647 
Q 4519 378 4559 278 
Q 4591 209 4675 161 
Q 4759 113 4950 113 
L 4950 0 
L 3538 0 
L 3538 113 
L 3597 113 
Q 3781 113 3884 184 
Q 3956 234 3988 344 
Q 4000 397 4000 647 
L 4000 1878 
Q 4000 2228 3916 2372 
Q 3794 2572 3525 2572 
Q 3359 2572 3192 2489 
Q 3025 2406 2788 2181 
L 2781 2147 
L 2788 2013 
L 2788 647 
Q 2788 353 2820 281 
Q 2853 209 2943 161 
Q 3034 113 3253 113 
L 3253 0 
L 1806 0 
L 1806 113 
Q 2044 113 2133 169 
Q 2222 225 2256 338 
Q 2272 391 2272 647 
L 2272 1878 
Q 2272 2228 2169 2381 
Q 2031 2581 1784 2581 
Q 1616 2581 1450 2491 
Q 1191 2353 1050 2181 
L 1050 647 
Q 1050 366 1089 281 
Q 1128 197 1204 155 
Q 1281 113 1516 113 
L 1516 0 
L 100 0 
L 100 113 
Q 297 113 375 155 
Q 453 197 493 289 
Q 534 381 534 647 
L 534 1741 
Q 534 2213 506 2350 
Q 484 2453 437 2492 
Q 391 2531 309 2531 
Q 222 2531 100 2484 
L 53 2597 
L 916 2947 
L 1050 2947 
L 1050 2338 
z
" transform="scale(0.015625)"/>
       <path id="TimesNewRomanPSMT-6c" d="M 1184 4444 
L 1184 647 
Q 1184 378 1223 290 
Q 1263 203 1344 158 
Q 1425 113 1647 113 
L 1647 0 
L 244 0 
L 244 113 
Q 441 113 512 153 
Q 584 194 625 287 
Q 666 381 666 647 
L 666 3247 
Q 666 3731 644 3842 
Q 622 3953 573 3993 
Q 525 4034 450 4034 
Q 369 4034 244 3984 
L 191 4094 
L 1044 4444 
L 1184 4444 
z
" transform="scale(0.015625)"/>
       <path id="TimesNewRomanPSMT-6f" d="M 1600 2947 
Q 2250 2947 2644 2453 
Q 2978 2031 2978 1484 
Q 2978 1100 2793 706 
Q 2609 313 2286 112 
Q 1963 -88 1566 -88 
Q 919 -88 538 428 
Q 216 863 216 1403 
Q 216 1797 411 2186 
Q 606 2575 925 2761 
Q 1244 2947 1600 2947 
z
M 1503 2744 
Q 1338 2744 1170 2645 
Q 1003 2547 900 2300 
Q 797 2053 797 1666 
Q 797 1041 1045 587 
Q 1294 134 1700 134 
Q 2003 134 2200 384 
Q 2397 634 2397 1244 
Q 2397 2006 2069 2444 
Q 1847 2744 1503 2744 
z
" transform="scale(0.015625)"/>
       <path id="TimesNewRomanPSMT-55" d="M 3053 4122 
L 3053 4238 
L 4553 4238 
L 4553 4122 
L 4394 4122 
Q 4144 4122 4009 3913 
Q 3944 3816 3944 3463 
L 3944 1744 
Q 3944 1106 3817 754 
Q 3691 403 3320 151 
Q 2950 -100 2313 -100 
Q 1619 -100 1259 140 
Q 900 381 750 788 
Q 650 1066 650 1831 
L 650 3488 
Q 650 3878 542 4000 
Q 434 4122 194 4122 
L 34 4122 
L 34 4238 
L 1866 4238 
L 1866 4122 
L 1703 4122 
Q 1441 4122 1328 3956 
Q 1250 3844 1250 3488 
L 1250 1641 
Q 1250 1394 1295 1075 
Q 1341 756 1459 578 
Q 1578 400 1801 284 
Q 2025 169 2350 169 
Q 2766 169 3094 350 
Q 3422 531 3542 814 
Q 3663 1097 3663 1772 
L 3663 3488 
Q 3663 3884 3575 3984 
Q 3453 4122 3213 4122 
L 3053 4122 
z
" transform="scale(0.015625)"/>
       <path id="TimesNewRomanPSMT-53" d="M 2934 4334 
L 2934 2869 
L 2819 2869 
Q 2763 3291 2617 3541 
Q 2472 3791 2203 3937 
Q 1934 4084 1647 4084 
Q 1322 4084 1109 3886 
Q 897 3688 897 3434 
Q 897 3241 1031 3081 
Q 1225 2847 1953 2456 
Q 2547 2138 2764 1967 
Q 2981 1797 3098 1565 
Q 3216 1334 3216 1081 
Q 3216 600 2842 251 
Q 2469 -97 1881 -97 
Q 1697 -97 1534 -69 
Q 1438 -53 1133 45 
Q 828 144 747 144 
Q 669 144 623 97 
Q 578 50 556 -97 
L 441 -97 
L 441 1356 
L 556 1356 
Q 638 900 775 673 
Q 913 447 1195 297 
Q 1478 147 1816 147 
Q 2206 147 2432 353 
Q 2659 559 2659 841 
Q 2659 997 2573 1156 
Q 2488 1316 2306 1453 
Q 2184 1547 1640 1851 
Q 1097 2156 867 2337 
Q 638 2519 519 2737 
Q 400 2956 400 3219 
Q 400 3675 750 4004 
Q 1100 4334 1641 4334 
Q 1978 4334 2356 4169 
Q 2531 4091 2603 4091 
Q 2684 4091 2736 4139 
Q 2788 4188 2819 4334 
L 2934 4334 
z
" transform="scale(0.015625)"/>
      </defs>
      <use xlink:href="#TimesNewRomanPSMT-6d"/>
      <use xlink:href="#TimesNewRomanPSMT-69" x="77.783203"/>
      <use xlink:href="#TimesNewRomanPSMT-6c" x="105.566406"/>
      <use xlink:href="#TimesNewRomanPSMT-6c" x="133.349609"/>
      <use xlink:href="#TimesNewRomanPSMT-69" x="161.132812"/>
      <use xlink:href="#TimesNewRomanPSMT-6f" x="188.916016"/>
      <use xlink:href="#TimesNewRomanPSMT-6e" x="238.916016"/>
      <use xlink:href="#TimesNewRomanPSMT-20" x="288.916016"/>
      <use xlink:href="#TimesNewRomanPSMT-55" x="313.916016"/>
      <use xlink:href="#TimesNewRomanPSMT-53" x="386.132812"/>
      <use xlink:href="#TimesNewRomanPSMT-44" x="441.748047"/>
     </g>
    </g>
   </g>
   <g id="patch_3">
    <path d="M 84.074337 137.464831 
L 93.117538 137.464831 
L 93.117538 99.340792 
L 84.074337 99.340792 
L 84.074337 137.464831 
L 84.074337 137.464831 
z
" clip-path="url(#pd2f43f3230)" style="fill: none; stroke: #000000; stroke-linejoin: miter"/>
   </g>
   <g id="line2d_11">
    <path d="M 88.595938 137.464831 
L 88.595938 179.650195 
" clip-path="url(#pd2f43f3230)" style="fill: none; stroke: #000000; stroke-linecap: square"/>
   </g>
   <g id="line2d_12">
    <path d="M 88.595938 99.340792 
L 88.595938 67.155892 
" clip-path="url(#pd2f43f3230)" style="fill: none; stroke: #000000; stroke-linecap: square"/>
   </g>
   <g id="line2d_13">
    <path d="M 86.335138 179.650195 
L 90.856738 179.650195 
" clip-path="url(#pd2f43f3230)" style="fill: none; stroke: #000000; stroke-linecap: square"/>
   </g>
   <g id="line2d_14">
    <path d="M 86.335138 67.155892 
L 90.856738 67.155892 
" clip-path="url(#pd2f43f3230)" style="fill: none; stroke: #000000; stroke-linecap: square"/>
   </g>
   <g id="patch_4">
    <path d="M 159.434337 138.774936 
L 168.477538 138.774936 
L 168.477538 109.690617 
L 159.434337 109.690617 
L 159.434337 138.774936 
L 159.434337 138.774936 
z
" clip-path="url(#pd2f43f3230)" style="fill: none; stroke: #000000; stroke-linejoin: miter"/>
   </g>
   <g id="line2d_15">
    <path d="M 163.955938 138.774936 
L 163.955938 179.475514 
" clip-path="url(#pd2f43f3230)" style="fill: none; stroke: #000000; stroke-linecap: square"/>
   </g>
   <g id="line2d_16">
    <path d="M 163.955938 109.690617 
L 163.955938 70.125462 
" clip-path="url(#pd2f43f3230)" style="fill: none; stroke: #000000; stroke-linecap: square"/>
   </g>
   <g id="line2d_17">
    <path d="M 161.695138 179.475514 
L 166.216737 179.475514 
" clip-path="url(#pd2f43f3230)" style="fill: none; stroke: #000000; stroke-linecap: square"/>
   </g>
   <g id="line2d_18">
    <path d="M 161.695138 70.125462 
L 166.216737 70.125462 
" clip-path="url(#pd2f43f3230)" style="fill: none; stroke: #000000; stroke-linecap: square"/>
   </g>
   <g id="patch_5">
    <path d="M 234.794338 143.971684 
L 243.837537 143.971684 
L 243.837537 100.301535 
L 234.794338 100.301535 
L 234.794338 143.971684 
L 234.794338 143.971684 
z
" clip-path="url(#pd2f43f3230)" style="fill: none; stroke: #000000; stroke-linejoin: miter"/>
   </g>
   <g id="line2d_19">
    <path d="M 239.315937 143.971684 
L 239.315937 203.057395 
" clip-path="url(#pd2f43f3230)" style="fill: none; stroke: #000000; stroke-linecap: square"/>
   </g>
   <g id="line2d_20">
    <path d="M 239.315937 100.301535 
L 239.315937 56.675057 
" clip-path="url(#pd2f43f3230)" style="fill: none; stroke: #000000; stroke-linecap: square"/>
   </g>
   <g id="line2d_21">
    <path d="M 237.055138 203.057395 
L 241.576737 203.057395 
" clip-path="url(#pd2f43f3230)" style="fill: none; stroke: #000000; stroke-linecap: square"/>
   </g>
   <g id="line2d_22">
    <path d="M 237.055138 56.675057 
L 241.576737 56.675057 
" clip-path="url(#pd2f43f3230)" style="fill: none; stroke: #000000; stroke-linecap: square"/>
   </g>
   <g id="patch_6">
    <path d="M 310.154337 144.277375 
L 319.197537 144.277375 
L 319.197537 111.175402 
L 310.154337 111.175402 
L 310.154337 144.277375 
L 310.154337 144.277375 
z
" clip-path="url(#pd2f43f3230)" style="fill: none; stroke: #000000; stroke-linejoin: miter"/>
   </g>
   <g id="line2d_23">
    <path d="M 314.675938 144.277375 
L 314.675938 192.92592 
" clip-path="url(#pd2f43f3230)" style="fill: none; stroke: #000000; stroke-linecap: square"/>
   </g>
   <g id="line2d_24">
    <path d="M 314.675938 111.175402 
L 314.675938 72.221629 
" clip-path="url(#pd2f43f3230)" style="fill: none; stroke: #000000; stroke-linecap: square"/>
   </g>
   <g id="line2d_25">
    <path d="M 312.415138 192.92592 
L 316.936738 192.92592 
" clip-path="url(#pd2f43f3230)" style="fill: none; stroke: #000000; stroke-linecap: square"/>
   </g>
   <g id="line2d_26">
    <path d="M 312.415138 72.221629 
L 316.936738 72.221629 
" clip-path="url(#pd2f43f3230)" style="fill: none; stroke: #000000; stroke-linecap: square"/>
   </g>
   <g id="patch_7">
    <path d="M 385.514338 144.801416 
L 394.557537 144.801416 
L 394.557537 98.68574 
L 385.514338 98.68574 
L 385.514338 144.801416 
L 385.514338 144.801416 
z
" clip-path="url(#pd2f43f3230)" style="fill: none; stroke: #000000; stroke-linejoin: miter"/>
   </g>
   <g id="line2d_27">
    <path d="M 390.035938 144.801416 
L 390.035938 211.442063 
" clip-path="url(#pd2f43f3230)" style="fill: none; stroke: #000000; stroke-linecap: square"/>
   </g>
   <g id="line2d_28">
    <path d="M 390.035938 98.68574 
L 390.035938 38.682955 
" clip-path="url(#pd2f43f3230)" style="fill: none; stroke: #000000; stroke-linecap: square"/>
   </g>
   <g id="line2d_29">
    <path d="M 387.775138 211.442063 
L 392.296738 211.442063 
" clip-path="url(#pd2f43f3230)" style="fill: none; stroke: #000000; stroke-linecap: square"/>
   </g>
   <g id="line2d_30">
    <path d="M 387.775138 38.682955 
L 392.296738 38.682955 
" clip-path="url(#pd2f43f3230)" style="fill: none; stroke: #000000; stroke-linecap: square"/>
   </g>
   <g id="line2d_31">
    <path d="M 84.074337 117.900605 
L 93.117538 117.900605 
" clip-path="url(#pd2f43f3230)" style="fill: none; stroke: #000000; stroke-width: 1.5; stroke-linecap: square"/>
   </g>
   <g id="line2d_32">
    <path d="M 159.434337 126.110593 
L 168.477538 126.110593 
" clip-path="url(#pd2f43f3230)" style="fill: none; stroke: #000000; stroke-width: 1.5; stroke-linecap: square"/>
   </g>
   <g id="line2d_33">
    <path d="M 234.794338 119.996772 
L 243.837537 119.996772 
" clip-path="url(#pd2f43f3230)" style="fill: none; stroke: #000000; stroke-width: 1.5; stroke-linecap: square"/>
   </g>
   <g id="line2d_34">
    <path d="M 310.154337 126.809315 
L 319.197537 126.809315 
" clip-path="url(#pd2f43f3230)" style="fill: none; stroke: #000000; stroke-width: 1.5; stroke-linecap: square"/>
   </g>
   <g id="line2d_35">
    <path d="M 385.514338 120.346133 
L 394.557537 120.346133 
" clip-path="url(#pd2f43f3230)" style="fill: none; stroke: #000000; stroke-width: 1.5; stroke-linecap: square"/>
   </g>
   <g id="patch_8">
    <path d="M 50.915938 220.080019 
L 50.915938 30.045 
" style="fill: none; stroke: #000000; stroke-linejoin: miter; stroke-linecap: square"/>
   </g>
   <g id="patch_9">
    <path d="M 427.715937 220.080019 
L 427.715937 30.045 
" style="fill: none; stroke: #000000; stroke-linejoin: miter; stroke-linecap: square"/>
   </g>
   <g id="patch_10">
    <path d="M 50.915938 220.080019 
L 427.715937 220.080019 
" style="fill: none; stroke: #000000; stroke-linejoin: miter; stroke-linecap: square"/>
   </g>
   <g id="patch_11">
    <path d="M 50.915938 30.045 
L 427.715937 30.045 
" style="fill: none; stroke: #000000; stroke-linejoin: miter; stroke-linecap: square"/>
   </g>
   <g id="text_12">
    <!-- Data on the sales by food and beverage sectors (million USD) -->
    <g transform="translate(31.769687 18.045) scale(0.16 -0.16)">
     <defs>
      <path id="TimesNewRomanPS-BoldMT-44" d="M 84 0 
L 84 116 
L 225 116 
Q 409 116 507 173 
Q 606 231 653 331 
Q 681 397 681 725 
L 681 3513 
Q 681 3838 647 3919 
Q 613 4000 508 4061 
Q 403 4122 225 4122 
L 84 4122 
L 84 4238 
L 1981 4238 
Q 2741 4238 3203 4031 
Q 3769 3778 4061 3265 
Q 4353 2753 4353 2106 
Q 4353 1659 4209 1282 
Q 4066 906 3837 661 
Q 3609 416 3311 267 
Q 3013 119 2581 38 
Q 2391 0 1981 0 
L 84 0 
z
M 1700 3997 
L 1700 691 
Q 1700 428 1725 368 
Q 1750 309 1809 278 
Q 1894 231 2053 231 
Q 2575 231 2850 588 
Q 3225 1069 3225 2081 
Q 3225 2897 2969 3384 
Q 2766 3766 2447 3903 
Q 2222 4000 1700 3997 
z
" transform="scale(0.015625)"/>
      <path id="TimesNewRomanPS-BoldMT-61" d="M 1828 431 
Q 1294 -41 869 -41 
Q 619 -41 453 123 
Q 288 288 288 534 
Q 288 869 575 1136 
Q 863 1403 1828 1847 
L 1828 2141 
Q 1828 2472 1792 2558 
Q 1756 2644 1656 2708 
Q 1556 2772 1431 2772 
Q 1228 2772 1097 2681 
Q 1016 2625 1016 2550 
Q 1016 2484 1103 2388 
Q 1222 2253 1222 2128 
Q 1222 1975 1108 1867 
Q 994 1759 809 1759 
Q 613 1759 480 1878 
Q 347 1997 347 2156 
Q 347 2381 525 2586 
Q 703 2791 1022 2900 
Q 1341 3009 1684 3009 
Q 2100 3009 2342 2832 
Q 2584 2656 2656 2450 
Q 2700 2319 2700 1847 
L 2700 713 
Q 2700 513 2715 461 
Q 2731 409 2762 384 
Q 2794 359 2834 359 
Q 2916 359 3000 475 
L 3094 400 
Q 2938 169 2770 64 
Q 2603 -41 2391 -41 
Q 2141 -41 2000 76 
Q 1859 194 1828 431 
z
M 1828 659 
L 1828 1638 
Q 1450 1416 1266 1163 
Q 1144 994 1144 822 
Q 1144 678 1247 569 
Q 1325 484 1466 484 
Q 1622 484 1828 659 
z
" transform="scale(0.015625)"/>
      <path id="TimesNewRomanPS-BoldMT-74" d="M 1375 3991 
L 1375 2922 
L 2069 2922 
L 2069 2613 
L 1375 2613 
L 1375 809 
Q 1375 556 1398 482 
Q 1422 409 1481 364 
Q 1541 319 1591 319 
Q 1794 319 1975 628 
L 2069 559 
Q 1816 -41 1247 -41 
Q 969 -41 776 114 
Q 584 269 531 459 
Q 500 566 500 1034 
L 500 2613 
L 119 2613 
L 119 2722 
Q 513 3000 789 3306 
Q 1066 3613 1272 3991 
L 1375 3991 
z
" transform="scale(0.015625)"/>
      <path id="TimesNewRomanPS-BoldMT-20" transform="scale(0.015625)"/>
      <path id="TimesNewRomanPS-BoldMT-6f" d="M 1594 3009 
Q 1975 3009 2303 2812 
Q 2631 2616 2801 2253 
Q 2972 1891 2972 1459 
Q 2972 838 2656 419 
Q 2275 -88 1603 -88 
Q 944 -88 587 375 
Q 231 838 231 1447 
Q 231 2075 595 2542 
Q 959 3009 1594 3009 
z
M 1606 2788 
Q 1447 2788 1333 2667 
Q 1219 2547 1183 2192 
Q 1147 1838 1147 1206 
Q 1147 872 1191 581 
Q 1225 359 1337 243 
Q 1450 128 1594 128 
Q 1734 128 1828 206 
Q 1950 313 1991 503 
Q 2053 800 2053 1703 
Q 2053 2234 1993 2432 
Q 1934 2631 1819 2722 
Q 1738 2788 1606 2788 
z
" transform="scale(0.015625)"/>
      <path id="TimesNewRomanPS-BoldMT-6e" d="M 1409 2922 
L 1409 2544 
Q 1634 2788 1840 2898 
Q 2047 3009 2284 3009 
Q 2569 3009 2756 2851 
Q 2944 2694 3006 2459 
Q 3056 2281 3056 1775 
L 3056 638 
Q 3056 300 3117 217 
Q 3178 134 3372 113 
L 3372 0 
L 1894 0 
L 1894 113 
Q 2059 134 2131 250 
Q 2181 328 2181 638 
L 2181 1938 
Q 2181 2297 2153 2390 
Q 2125 2484 2058 2536 
Q 1991 2588 1909 2588 
Q 1641 2588 1409 2203 
L 1409 638 
Q 1409 309 1470 221 
Q 1531 134 1697 113 
L 1697 0 
L 219 0 
L 219 113 
Q 403 131 481 231 
Q 534 300 534 638 
L 534 2288 
Q 534 2619 473 2700 
Q 413 2781 219 2806 
L 219 2922 
L 1409 2922 
z
" transform="scale(0.015625)"/>
      <path id="TimesNewRomanPS-BoldMT-68" d="M 1409 4238 
L 1409 2547 
Q 1650 2800 1850 2904 
Q 2050 3009 2266 3009 
Q 2541 3009 2736 2853 
Q 2931 2697 2995 2486 
Q 3059 2275 3059 1775 
L 3059 634 
Q 3059 300 3121 217 
Q 3184 134 3375 113 
L 3375 0 
L 1894 0 
L 1894 113 
Q 2050 134 2128 238 
Q 2184 319 2184 634 
L 2184 1938 
Q 2184 2300 2156 2392 
Q 2128 2484 2061 2536 
Q 1994 2588 1909 2588 
Q 1784 2588 1665 2502 
Q 1547 2416 1409 2200 
L 1409 634 
Q 1409 322 1456 244 
Q 1516 138 1700 113 
L 1700 0 
L 219 0 
L 219 113 
Q 403 131 481 231 
Q 534 300 534 634 
L 534 3603 
Q 534 3934 473 4015 
Q 413 4097 219 4122 
L 219 4238 
L 1409 4238 
z
" transform="scale(0.015625)"/>
      <path id="TimesNewRomanPS-BoldMT-65" d="M 2691 1566 
L 1088 1566 
Q 1116 984 1397 647 
Q 1613 388 1916 388 
Q 2103 388 2256 492 
Q 2409 597 2584 869 
L 2691 800 
Q 2453 316 2165 114 
Q 1878 -88 1500 -88 
Q 850 -88 516 413 
Q 247 816 247 1413 
Q 247 2144 642 2576 
Q 1038 3009 1569 3009 
Q 2013 3009 2339 2645 
Q 2666 2281 2691 1566 
z
M 1922 1775 
Q 1922 2278 1867 2465 
Q 1813 2653 1697 2750 
Q 1631 2806 1522 2806 
Q 1359 2806 1256 2647 
Q 1072 2369 1072 1884 
L 1072 1775 
L 1922 1775 
z
" transform="scale(0.015625)"/>
      <path id="TimesNewRomanPS-BoldMT-73" d="M 2063 3003 
L 2109 2006 
L 2003 2006 
Q 1813 2450 1608 2612 
Q 1403 2775 1200 2775 
Q 1072 2775 981 2689 
Q 891 2603 891 2491 
Q 891 2406 953 2328 
Q 1053 2200 1512 1889 
Q 1972 1578 2117 1361 
Q 2263 1144 2263 875 
Q 2263 631 2141 397 
Q 2019 163 1797 37 
Q 1575 -88 1306 -88 
Q 1097 -88 747 44 
Q 653 78 619 78 
Q 516 78 447 -78 
L 344 -78 
L 294 972 
L 400 972 
Q 541 559 786 353 
Q 1031 147 1250 147 
Q 1400 147 1495 239 
Q 1591 331 1591 463 
Q 1591 613 1497 722 
Q 1403 831 1078 1053 
Q 600 1384 459 1559 
Q 253 1816 253 2125 
Q 253 2463 486 2736 
Q 719 3009 1159 3009 
Q 1397 3009 1619 2894 
Q 1703 2847 1756 2847 
Q 1813 2847 1847 2870 
Q 1881 2894 1956 3003 
L 2063 3003 
z
" transform="scale(0.015625)"/>
      <path id="TimesNewRomanPS-BoldMT-6c" d="M 1359 4238 
L 1359 606 
Q 1359 297 1431 211 
Q 1503 125 1713 113 
L 1713 0 
L 134 0 
L 134 113 
Q 328 119 422 225 
Q 484 297 484 606 
L 484 3631 
Q 484 3938 412 4023 
Q 341 4109 134 4122 
L 134 4238 
L 1359 4238 
z
" transform="scale(0.015625)"/>
      <path id="TimesNewRomanPS-BoldMT-62" d="M 1347 4238 
L 1347 2628 
Q 1716 3009 2153 3009 
Q 2453 3009 2718 2832 
Q 2984 2656 3134 2331 
Q 3284 2006 3284 1581 
Q 3284 1103 3093 712 
Q 2903 322 2584 117 
Q 2266 -88 1856 -88 
Q 1619 -88 1434 -12 
Q 1250 63 1072 231 
L 588 -84 
L 481 -84 
L 481 3631 
Q 481 3884 459 3944 
Q 428 4031 361 4073 
Q 294 4116 134 4122 
L 134 4238 
L 1347 4238 
z
M 1347 2350 
L 1347 1050 
Q 1347 653 1366 544 
Q 1397 359 1515 245 
Q 1634 131 1819 131 
Q 1978 131 2092 222 
Q 2206 313 2282 581 
Q 2359 850 2359 1550 
Q 2359 2222 2191 2472 
Q 2069 2653 1863 2653 
Q 1594 2653 1347 2350 
z
" transform="scale(0.015625)"/>
      <path id="TimesNewRomanPS-BoldMT-79" d="M 1556 -119 
L 613 2047 
Q 400 2538 298 2650 
Q 197 2763 53 2806 
L 53 2922 
L 1606 2922 
L 1606 2806 
Q 1453 2800 1390 2747 
Q 1328 2694 1328 2619 
Q 1328 2500 1484 2150 
L 1984 1006 
L 2325 1891 
Q 2509 2363 2509 2547 
Q 2509 2663 2432 2731 
Q 2356 2800 2163 2806 
L 2163 2922 
L 3141 2922 
L 3141 2806 
Q 2997 2791 2906 2695 
Q 2816 2600 2603 2047 
L 1769 -119 
Q 1453 -931 1300 -1119 
Q 1084 -1381 759 -1381 
Q 500 -1381 339 -1232 
Q 178 -1084 178 -875 
Q 178 -694 289 -575 
Q 400 -456 563 -456 
Q 719 -456 814 -556 
Q 909 -656 913 -866 
Q 916 -984 941 -1019 
Q 966 -1053 1013 -1053 
Q 1088 -1053 1172 -963 
Q 1297 -831 1466 -363 
L 1556 -119 
z
" transform="scale(0.015625)"/>
      <path id="TimesNewRomanPS-BoldMT-66" d="M 1497 2616 
L 1497 588 
Q 1497 294 1559 219 
Q 1659 103 1928 113 
L 1928 0 
L 206 0 
L 206 113 
Q 403 116 486 158 
Q 569 200 600 275 
Q 631 350 631 588 
L 631 2616 
L 206 2616 
L 206 2922 
L 631 2922 
L 631 3138 
L 628 3284 
Q 628 3734 958 4034 
Q 1288 4334 1850 4334 
Q 2234 4334 2420 4190 
Q 2606 4047 2606 3872 
Q 2606 3731 2490 3628 
Q 2375 3525 2184 3525 
Q 2022 3525 1926 3609 
Q 1831 3694 1831 3797 
Q 1831 3825 1850 3913 
Q 1863 3966 1863 4013 
Q 1863 4078 1825 4109 
Q 1775 4156 1703 4156 
Q 1613 4156 1552 4081 
Q 1491 4006 1491 3841 
L 1497 3294 
L 1497 2922 
L 1928 2922 
L 1928 2616 
L 1497 2616 
z
" transform="scale(0.015625)"/>
      <path id="TimesNewRomanPS-BoldMT-64" d="M 3056 4238 
L 3056 875 
Q 3056 534 3075 472 
Q 3100 369 3170 319 
Q 3241 269 3416 256 
L 3416 153 
L 2181 -88 
L 2181 375 
Q 1959 106 1786 9 
Q 1613 -88 1394 -88 
Q 834 -88 509 413 
Q 247 819 247 1409 
Q 247 1881 409 2254 
Q 572 2628 855 2818 
Q 1138 3009 1463 3009 
Q 1672 3009 1834 2928 
Q 1997 2847 2181 2644 
L 2181 3525 
Q 2181 3859 2153 3928 
Q 2116 4019 2041 4062 
Q 1966 4106 1759 4106 
L 1759 4238 
L 3056 4238 
z
M 2181 2256 
Q 1950 2700 1616 2700 
Q 1500 2700 1425 2638 
Q 1309 2541 1236 2297 
Q 1163 2053 1163 1550 
Q 1163 997 1244 731 
Q 1325 466 1466 347 
Q 1538 288 1663 288 
Q 1938 288 2181 719 
L 2181 2256 
z
" transform="scale(0.015625)"/>
      <path id="TimesNewRomanPS-BoldMT-76" d="M 1534 -88 
L 550 2178 
Q 372 2588 272 2697 
Q 200 2778 59 2806 
L 59 2922 
L 1613 2922 
L 1613 2806 
Q 1466 2806 1413 2753 
Q 1338 2684 1338 2591 
Q 1338 2475 1475 2156 
L 1956 1059 
L 2341 2006 
Q 2506 2413 2506 2581 
Q 2506 2678 2436 2739 
Q 2366 2800 2188 2806 
L 2188 2922 
L 3144 2922 
L 3144 2806 
Q 3006 2788 2918 2703 
Q 2831 2619 2656 2206 
L 1681 -88 
L 1534 -88 
z
" transform="scale(0.015625)"/>
      <path id="TimesNewRomanPS-BoldMT-72" d="M 1428 2922 
L 1428 2259 
Q 1719 2713 1937 2861 
Q 2156 3009 2359 3009 
Q 2534 3009 2639 2901 
Q 2744 2794 2744 2597 
Q 2744 2388 2642 2272 
Q 2541 2156 2397 2156 
Q 2231 2156 2109 2262 
Q 1988 2369 1966 2381 
Q 1934 2400 1894 2400 
Q 1803 2400 1722 2331 
Q 1594 2225 1528 2028 
Q 1428 1725 1428 1359 
L 1428 688 
L 1431 513 
Q 1431 334 1453 284 
Q 1491 200 1564 161 
Q 1638 122 1813 113 
L 1813 0 
L 234 0 
L 234 113 
Q 425 128 492 217 
Q 559 306 559 688 
L 559 2303 
Q 559 2553 534 2622 
Q 503 2709 443 2750 
Q 384 2791 234 2806 
L 234 2922 
L 1428 2922 
z
" transform="scale(0.015625)"/>
      <path id="TimesNewRomanPS-BoldMT-67" d="M 2091 2888 
L 3075 2888 
L 3075 2544 
L 2516 2544 
Q 2669 2391 2728 2266 
Q 2803 2097 2803 1913 
Q 2803 1600 2629 1370 
Q 2456 1141 2157 1011 
Q 1859 881 1628 881 
Q 1609 881 1253 897 
Q 1113 897 1017 805 
Q 922 713 922 584 
Q 922 472 1008 400 
Q 1094 328 1288 328 
L 1828 334 
Q 2484 334 2731 191 
Q 3084 -9 3084 -425 
Q 3084 -691 2921 -908 
Q 2759 -1125 2494 -1228 
Q 2091 -1381 1566 -1381 
Q 1172 -1381 847 -1304 
Q 522 -1228 381 -1092 
Q 241 -956 241 -806 
Q 241 -663 348 -548 
Q 456 -434 750 -356 
Q 344 -156 344 200 
Q 344 416 509 619 
Q 675 822 1034 972 
Q 616 1125 428 1375 
Q 241 1625 241 1953 
Q 241 2381 591 2695 
Q 941 3009 1491 3009 
Q 1781 3009 2091 2888 
z
M 1550 2816 
Q 1369 2816 1244 2633 
Q 1119 2450 1119 1875 
Q 1119 1409 1242 1236 
Q 1366 1063 1534 1063 
Q 1722 1063 1847 1234 
Q 1972 1406 1972 1903 
Q 1972 2463 1831 2666 
Q 1731 2816 1550 2816 
z
M 1366 -431 
Q 1047 -431 944 -484 
Q 766 -581 766 -747 
Q 766 -906 950 -1036 
Q 1134 -1166 1644 -1166 
Q 2078 -1166 2326 -1050 
Q 2575 -934 2575 -725 
Q 2575 -647 2528 -594 
Q 2444 -500 2273 -465 
Q 2103 -431 1366 -431 
z
" transform="scale(0.015625)"/>
      <path id="TimesNewRomanPS-BoldMT-63" d="M 2600 753 
L 2697 678 
Q 2491 291 2183 101 
Q 1875 -88 1528 -88 
Q 944 -88 594 353 
Q 244 794 244 1413 
Q 244 2009 563 2463 
Q 947 3009 1622 3009 
Q 2075 3009 2342 2781 
Q 2609 2553 2609 2272 
Q 2609 2094 2501 1987 
Q 2394 1881 2219 1881 
Q 2034 1881 1914 2003 
Q 1794 2125 1766 2438 
Q 1747 2634 1675 2713 
Q 1603 2791 1506 2791 
Q 1356 2791 1250 2631 
Q 1088 2391 1088 1894 
Q 1088 1481 1219 1104 
Q 1350 728 1578 544 
Q 1750 409 1984 409 
Q 2138 409 2275 481 
Q 2413 553 2600 753 
z
" transform="scale(0.015625)"/>
      <path id="TimesNewRomanPS-BoldMT-28" d="M 2056 4334 
L 2056 4191 
Q 1731 3978 1578 3775 
Q 1366 3494 1247 3053 
Q 1097 2506 1097 1525 
Q 1097 600 1233 87 
Q 1369 -425 1603 -741 
Q 1766 -959 2056 -1125 
L 2056 -1281 
Q 1303 -1028 779 -248 
Q 256 531 256 1544 
Q 256 2544 778 3314 
Q 1300 4084 2056 4334 
z
" transform="scale(0.015625)"/>
      <path id="TimesNewRomanPS-BoldMT-6d" d="M 1428 2922 
L 1428 2538 
Q 1669 2800 1873 2904 
Q 2078 3009 2322 3009 
Q 2603 3009 2793 2878 
Q 2984 2747 3088 2478 
Q 3338 2759 3567 2884 
Q 3797 3009 4047 3009 
Q 4350 3009 4529 2870 
Q 4709 2731 4779 2517 
Q 4850 2303 4850 1834 
L 4850 638 
Q 4850 300 4911 219 
Q 4972 138 5166 113 
L 5166 0 
L 3656 0 
L 3656 113 
Q 3834 128 3919 250 
Q 3975 334 3975 638 
L 3975 1894 
Q 3975 2284 3944 2390 
Q 3913 2497 3845 2548 
Q 3778 2600 3688 2600 
Q 3553 2600 3415 2501 
Q 3278 2403 3138 2206 
L 3138 638 
Q 3138 322 3191 241 
Q 3263 125 3466 113 
L 3466 0 
L 1953 0 
L 1953 113 
Q 2075 119 2145 173 
Q 2216 228 2239 304 
Q 2263 381 2263 638 
L 2263 1894 
Q 2263 2291 2231 2391 
Q 2200 2491 2126 2547 
Q 2053 2603 1969 2603 
Q 1844 2603 1741 2538 
Q 1594 2441 1428 2206 
L 1428 638 
Q 1428 328 1489 229 
Q 1550 131 1744 113 
L 1744 0 
L 238 0 
L 238 113 
Q 422 131 500 231 
Q 553 300 553 638 
L 553 2288 
Q 553 2619 492 2700 
Q 431 2781 238 2806 
L 238 2922 
L 1428 2922 
z
" transform="scale(0.015625)"/>
      <path id="TimesNewRomanPS-BoldMT-69" d="M 919 4338 
Q 1122 4338 1262 4195 
Q 1403 4053 1403 3853 
Q 1403 3653 1261 3512 
Q 1119 3372 919 3372 
Q 719 3372 578 3512 
Q 438 3653 438 3853 
Q 438 4053 578 4195 
Q 719 4338 919 4338 
z
M 1356 2922 
L 1356 606 
Q 1356 297 1428 211 
Q 1500 125 1709 113 
L 1709 0 
L 131 0 
L 131 113 
Q 325 119 419 225 
Q 481 297 481 606 
L 481 2313 
Q 481 2622 409 2708 
Q 338 2794 131 2806 
L 131 2922 
L 1356 2922 
z
" transform="scale(0.015625)"/>
      <path id="TimesNewRomanPS-BoldMT-55" d="M 150 4238 
L 2338 4238 
L 2338 4122 
L 2228 4122 
Q 1981 4122 1889 4070 
Q 1797 4019 1758 3928 
Q 1719 3838 1719 3475 
L 1719 1400 
Q 1719 831 1805 647 
Q 1891 463 2087 341 
Q 2284 219 2584 219 
Q 2928 219 3170 373 
Q 3413 528 3533 800 
Q 3653 1072 3653 1747 
L 3653 3475 
Q 3653 3759 3593 3881 
Q 3534 4003 3444 4050 
Q 3303 4122 3047 4122 
L 3047 4238 
L 4513 4238 
L 4513 4122 
L 4425 4122 
Q 4247 4122 4128 4050 
Q 4009 3978 3956 3834 
Q 3916 3734 3916 3475 
L 3916 1866 
Q 3916 1119 3817 787 
Q 3719 456 3337 178 
Q 2956 -100 2297 -100 
Q 1747 -100 1447 47 
Q 1038 247 869 559 
Q 700 872 700 1400 
L 700 3475 
Q 700 3841 659 3930 
Q 619 4019 519 4072 
Q 419 4125 150 4122 
L 150 4238 
z
" transform="scale(0.015625)"/>
      <path id="TimesNewRomanPS-BoldMT-53" d="M 3006 4334 
L 3041 2922 
L 2913 2922 
Q 2822 3453 2467 3776 
Q 2113 4100 1700 4100 
Q 1381 4100 1195 3929 
Q 1009 3759 1009 3538 
Q 1009 3397 1075 3288 
Q 1166 3141 1366 2997 
Q 1513 2894 2044 2631 
Q 2788 2266 3047 1941 
Q 3303 1616 3303 1197 
Q 3303 666 2889 283 
Q 2475 -100 1838 -100 
Q 1638 -100 1459 -59 
Q 1281 -19 1013 94 
Q 863 156 766 156 
Q 684 156 593 93 
Q 503 31 447 -97 
L 331 -97 
L 331 1503 
L 447 1503 
Q 584 828 976 473 
Q 1369 119 1822 119 
Q 2172 119 2380 309 
Q 2588 500 2588 753 
Q 2588 903 2508 1043 
Q 2428 1184 2265 1311 
Q 2103 1438 1691 1641 
Q 1113 1925 859 2125 
Q 606 2325 470 2572 
Q 334 2819 334 3116 
Q 334 3622 706 3978 
Q 1078 4334 1644 4334 
Q 1850 4334 2044 4284 
Q 2191 4247 2402 4145 
Q 2613 4044 2697 4044 
Q 2778 4044 2825 4094 
Q 2872 4144 2913 4334 
L 3006 4334 
z
" transform="scale(0.015625)"/>
      <path id="TimesNewRomanPS-BoldMT-29" d="M 78 -1281 
L 78 -1138 
Q 403 -922 556 -719 
Q 766 -438 888 0 
Q 1038 550 1038 1531 
Q 1038 2456 902 2967 
Q 766 3478 531 3794 
Q 369 4013 78 4178 
L 78 4334 
Q 831 4081 1354 3301 
Q 1878 2522 1878 1509 
Q 1878 513 1354 -257 
Q 831 -1028 78 -1281 
z
" transform="scale(0.015625)"/>
     </defs>
     <use xlink:href="#TimesNewRomanPS-BoldMT-44"/>
     <use xlink:href="#TimesNewRomanPS-BoldMT-61" x="72.216797"/>
     <use xlink:href="#TimesNewRomanPS-BoldMT-74" x="122.216797"/>
     <use xlink:href="#TimesNewRomanPS-BoldMT-61" x="155.517578"/>
     <use xlink:href="#TimesNewRomanPS-BoldMT-20" x="205.517578"/>
     <use xlink:href="#TimesNewRomanPS-BoldMT-6f" x="230.517578"/>
     <use xlink:href="#TimesNewRomanPS-BoldMT-6e" x="280.517578"/>
     <use xlink:href="#TimesNewRomanPS-BoldMT-20" x="336.132812"/>
     <use xlink:href="#TimesNewRomanPS-BoldMT-74" x="361.132812"/>
     <use xlink:href="#TimesNewRomanPS-BoldMT-68" x="394.433594"/>
     <use xlink:href="#TimesNewRomanPS-BoldMT-65" x="450.048828"/>
     <use xlink:href="#TimesNewRomanPS-BoldMT-20" x="494.433594"/>
     <use xlink:href="#TimesNewRomanPS-BoldMT-73" x="519.433594"/>
     <use xlink:href="#TimesNewRomanPS-BoldMT-61" x="558.349609"/>
     <use xlink:href="#TimesNewRomanPS-BoldMT-6c" x="608.349609"/>
     <use xlink:href="#TimesNewRomanPS-BoldMT-65" x="636.132812"/>
     <use xlink:href="#TimesNewRomanPS-BoldMT-73" x="680.517578"/>
     <use xlink:href="#TimesNewRomanPS-BoldMT-20" x="719.433594"/>
     <use xlink:href="#TimesNewRomanPS-BoldMT-62" x="744.433594"/>
     <use xlink:href="#TimesNewRomanPS-BoldMT-79" x="800.048828"/>
     <use xlink:href="#TimesNewRomanPS-BoldMT-20" x="850.048828"/>
     <use xlink:href="#TimesNewRomanPS-BoldMT-66" x="875.048828"/>
     <use xlink:href="#TimesNewRomanPS-BoldMT-6f" x="908.349609"/>
     <use xlink:href="#TimesNewRomanPS-BoldMT-6f" x="958.349609"/>
     <use xlink:href="#TimesNewRomanPS-BoldMT-64" x="1008.349609"/>
     <use xlink:href="#TimesNewRomanPS-BoldMT-20" x="1063.964844"/>
     <use xlink:href="#TimesNewRomanPS-BoldMT-61" x="1088.964844"/>
     <use xlink:href="#TimesNewRomanPS-BoldMT-6e" x="1138.964844"/>
     <use xlink:href="#TimesNewRomanPS-BoldMT-64" x="1194.580078"/>
     <use xlink:href="#TimesNewRomanPS-BoldMT-20" x="1250.195312"/>
     <use xlink:href="#TimesNewRomanPS-BoldMT-62" x="1275.195312"/>
     <use xlink:href="#TimesNewRomanPS-BoldMT-65" x="1330.810547"/>
     <use xlink:href="#TimesNewRomanPS-BoldMT-76" x="1375.195312"/>
     <use xlink:href="#TimesNewRomanPS-BoldMT-65" x="1425.195312"/>
     <use xlink:href="#TimesNewRomanPS-BoldMT-72" x="1469.580078"/>
     <use xlink:href="#TimesNewRomanPS-BoldMT-61" x="1513.964844"/>
     <use xlink:href="#TimesNewRomanPS-BoldMT-67" x="1563.964844"/>
     <use xlink:href="#TimesNewRomanPS-BoldMT-65" x="1613.964844"/>
     <use xlink:href="#TimesNewRomanPS-BoldMT-20" x="1658.349609"/>
     <use xlink:href="#TimesNewRomanPS-BoldMT-73" x="1683.349609"/>
     <use xlink:href="#TimesNewRomanPS-BoldMT-65" x="1722.265625"/>
     <use xlink:href="#TimesNewRomanPS-BoldMT-63" x="1766.650391"/>
     <use xlink:href="#TimesNewRomanPS-BoldMT-74" x="1811.035156"/>
     <use xlink:href="#TimesNewRomanPS-BoldMT-6f" x="1844.335938"/>
     <use xlink:href="#TimesNewRomanPS-BoldMT-72" x="1894.335938"/>
     <use xlink:href="#TimesNewRomanPS-BoldMT-73" x="1938.720703"/>
     <use xlink:href="#TimesNewRomanPS-BoldMT-20" x="1977.636719"/>
     <use xlink:href="#TimesNewRomanPS-BoldMT-28" x="2002.636719"/>
     <use xlink:href="#TimesNewRomanPS-BoldMT-6d" x="2035.9375"/>
     <use xlink:href="#TimesNewRomanPS-BoldMT-69" x="2119.238281"/>
     <use xlink:href="#TimesNewRomanPS-BoldMT-6c" x="2147.021484"/>
     <use xlink:href="#TimesNewRomanPS-BoldMT-6c" x="2174.804688"/>
     <use xlink:href="#TimesNewRomanPS-BoldMT-69" x="2202.587891"/>
     <use xlink:href="#TimesNewRomanPS-BoldMT-6f" x="2230.371094"/>
     <use xlink:href="#TimesNewRomanPS-BoldMT-6e" x="2280.371094"/>
     <use xlink:href="#TimesNewRomanPS-BoldMT-20" x="2335.986328"/>
     <use xlink:href="#TimesNewRomanPS-BoldMT-55" x="2360.986328"/>
     <use xlink:href="#TimesNewRomanPS-BoldMT-53" x="2433.203125"/>
     <use xlink:href="#TimesNewRomanPS-BoldMT-44" x="2488.818359"/>
     <use xlink:href="#TimesNewRomanPS-BoldMT-29" x="2561.035156"/>
    </g>
   </g>
  </g>
 </g>
 <defs>
  <clipPath id="pd2f43f3230">
   <rect x="50.915938" y="30.045" width="376.8" height="190.035019"/>
  </clipPath>
 </defs>
</svg>
