<?xml version="1.0" encoding="utf-8" standalone="no"?>
<!DOCTYPE svg PUBLIC "-//W3C//DTD SVG 1.1//EN"
  "http://www.w3.org/Graphics/SVG/1.1/DTD/svg11.dtd">
<svg xmlns:xlink="http://www.w3.org/1999/xlink" width="454.062187pt" height="319.919047pt" viewBox="0 0 454.062187 319.919047" xmlns="http://www.w3.org/2000/svg" version="1.1">
 <metadata>
  <rdf:RDF xmlns:dc="http://purl.org/dc/elements/1.1/" xmlns:cc="http://creativecommons.org/ns#" xmlns:rdf="http://www.w3.org/1999/02/22-rdf-syntax-ns#">
   <cc:Work>
    <dc:type rdf:resource="http://purl.org/dc/dcmitype/StillImage"/>
    <dc:date>2025-05-26T17:30:32.274099</dc:date>
    <dc:format>image/svg+xml</dc:format>
    <dc:creator>
     <cc:Agent>
      <dc:title>Matplotlib v3.7.2, https://matplotlib.org/</dc:title>
     </cc:Agent>
    </dc:creator>
   </cc:Work>
  </rdf:RDF>
 </metadata>
 <defs>
  <style type="text/css">*{stroke-linejoin: round; stroke-linecap: butt}</style>
 </defs>
 <g id="figure_1">
  <g id="patch_1">
   <path d="M 0 319.919047 
L 454.062187 319.919047 
L 454.062187 -0 
L 0 -0 
z
" style="fill: #ffffff"/>
  </g>
  <g id="axes_1">
   <g id="patch_2">
    <path d="M 50.915938 236.753596 
L 427.715937 236.753596 
L 427.715937 30.045 
L 50.915938 30.045 
z
" style="fill: #ffffff"/>
   </g>
   <g id="PolyCollection_1">
    <defs>
     <path id="m5df296745a" d="M 99.537406 -96.007648 
L 96.494469 -96.007648 
L 96.347405 -97.061158 
L 96.189939 -98.114668 
L 96.019355 -99.168179 
L 95.83273 -100.221689 
L 95.627123 -101.275199 
L 95.399729 -102.328709 
L 95.147994 -103.382219 
L 94.86966 -104.43573 
L 94.562755 -105.48924 
L 94.225531 -106.54275 
L 93.856387 -107.59626 
L 93.453787 -108.64977 
L 93.016207 -109.703281 
L 92.542122 -110.756791 
L 92.030039 -111.810301 
L 91.478561 -112.863811 
L 90.886478 -113.917322 
L 90.252846 -114.970832 
L 89.577051 -116.024342 
L 88.858825 -117.077852 
L 88.09821 -118.131362 
L 87.295484 -119.184873 
L 86.45104 -120.238383 
L 85.565248 -121.291893 
L 84.638339 -122.345403 
L 83.670322 -123.398913 
L 82.660979 -124.452424 
L 81.609972 -125.505934 
L 80.517076 -126.559444 
L 79.382548 -127.612954 
L 78.207621 -128.666464 
L 76.995089 -129.719975 
L 75.749898 -130.773485 
L 74.479672 -131.826995 
L 73.195055 -132.880505 
L 71.909767 -133.934015 
L 70.64029 -134.987526 
L 69.405151 -136.041036 
L 68.223818 -137.094546 
L 67.115293 -138.148056 
L 66.096561 -139.201566 
L 65.181083 -140.255077 
L 64.377533 -141.308587 
L 63.688978 -142.362097 
L 63.112614 -143.415607 
L 62.640136 -144.469118 
L 62.258681 -145.522628 
L 61.95225 -146.576138 
L 61.703423 -147.629648 
L 61.49515 -148.683158 
L 61.312427 -149.736669 
L 61.143677 -150.790179 
L 60.98171 -151.843689 
L 60.824218 -152.897199 
L 60.673803 -153.950709 
L 60.537578 -155.00422 
L 60.42644 -156.05773 
L 60.354095 -157.11124 
L 60.335938 -158.16475 
L 60.387871 -159.21826 
L 60.525144 -160.271771 
L 60.761275 -161.325281 
L 61.107117 -162.378791 
L 61.570128 -163.432301 
L 62.153871 -164.485811 
L 62.85779 -165.539322 
L 63.677272 -166.592832 
L 64.603982 -167.646342 
L 65.626443 -168.699852 
L 66.73081 -169.753362 
L 67.901757 -170.806873 
L 69.123415 -171.860383 
L 70.380256 -172.913893 
L 71.657876 -173.967403 
L 72.943598 -175.020914 
L 74.226871 -176.074424 
L 75.499449 -177.127934 
L 76.75534 -178.181444 
L 77.990562 -179.234954 
L 79.202743 -180.288465 
L 80.390599 -181.341975 
L 81.553371 -182.395485 
L 82.690273 -183.448995 
L 83.800016 -184.502505 
L 84.880476 -185.556016 
L 85.928534 -186.609526 
L 86.940119 -187.663036 
L 87.910449 -188.716546 
L 88.834431 -189.770056 
L 89.70716 -190.823567 
L 90.524448 -191.877077 
L 91.283298 -192.930587 
L 91.982245 -193.984097 
L 92.621524 -195.037607 
L 93.203037 -196.091118 
L 93.730121 -197.144628 
L 94.207176 -198.198138 
L 94.639194 -199.251648 
L 95.031276 -200.305158 
L 101.000599 -200.305158 
L 101.000599 -200.305158 
L 101.392681 -199.251648 
L 101.824699 -198.198138 
L 102.301754 -197.144628 
L 102.828838 -196.091118 
L 103.410351 -195.037607 
L 104.04963 -193.984097 
L 104.748577 -192.930587 
L 105.507427 -191.877077 
L 106.324715 -190.823567 
L 107.197444 -189.770056 
L 108.121426 -188.716546 
L 109.091756 -187.663036 
L 110.103341 -186.609526 
L 111.151399 -185.556016 
L 112.231859 -184.502505 
L 113.341602 -183.448995 
L 114.478504 -182.395485 
L 115.641276 -181.341975 
L 116.829132 -180.288465 
L 118.041313 -179.234954 
L 119.276535 -178.181444 
L 120.532426 -177.127934 
L 121.805004 -176.074424 
L 123.088277 -175.020914 
L 124.373999 -173.967403 
L 125.651619 -172.913893 
L 126.90846 -171.860383 
L 128.130118 -170.806873 
L 129.301065 -169.753362 
L 130.405432 -168.699852 
L 131.427893 -167.646342 
L 132.354603 -166.592832 
L 133.174085 -165.539322 
L 133.878004 -164.485811 
L 134.461747 -163.432301 
L 134.924758 -162.378791 
L 135.2706 -161.325281 
L 135.506731 -160.271771 
L 135.644004 -159.21826 
L 135.695937 -158.16475 
L 135.67778 -157.11124 
L 135.605435 -156.05773 
L 135.494297 -155.00422 
L 135.358072 -153.950709 
L 135.207657 -152.897199 
L 135.050165 -151.843689 
L 134.888198 -150.790179 
L 134.719448 -149.736669 
L 134.536725 -148.683158 
L 134.328452 -147.629648 
L 134.079625 -146.576138 
L 133.773194 -145.522628 
L 133.391739 -144.469118 
L 132.919261 -143.415607 
L 132.342897 -142.362097 
L 131.654342 -141.308587 
L 130.850792 -140.255077 
L 129.935314 -139.201566 
L 128.916582 -138.148056 
L 127.808057 -137.094546 
L 126.626724 -136.041036 
L 125.391585 -134.987526 
L 124.122108 -133.934015 
L 122.83682 -132.880505 
L 121.552203 -131.826995 
L 120.281977 -130.773485 
L 119.036786 -129.719975 
L 117.824254 -128.666464 
L 116.649327 -127.612954 
L 115.514799 -126.559444 
L 114.421903 -125.505934 
L 113.370896 -124.452424 
L 112.361553 -123.398913 
L 111.393536 -122.345403 
L 110.466627 -121.291893 
L 109.580835 -120.238383 
L 108.736391 -119.184873 
L 107.933665 -118.131362 
L 107.17305 -117.077852 
L 106.454824 -116.024342 
L 105.779029 -114.970832 
L 105.145397 -113.917322 
L 104.553314 -112.863811 
L 104.001836 -111.810301 
L 103.489753 -110.756791 
L 103.015668 -109.703281 
L 102.578088 -108.64977 
L 102.175488 -107.59626 
L 101.806344 -106.54275 
L 101.46912 -105.48924 
L 101.162215 -104.43573 
L 100.883881 -103.382219 
L 100.632146 -102.328709 
L 100.404752 -101.275199 
L 100.199145 -100.221689 
L 100.01252 -99.168179 
L 99.841936 -98.114668 
L 99.68447 -97.061158 
L 99.537406 -96.007648 
z
" style="stroke: #000000; stroke-opacity: 0.7"/>
    </defs>
    <g clip-path="url(#p4c9c9b667f)">
     <use xlink:href="#m5df296745a" x="0" y="319.919047" style="fill: #f7b6d2; fill-opacity: 0.7; stroke: #000000; stroke-opacity: 0.7"/>
    </g>
   </g>
   <g id="PolyCollection_2">
    <defs>
     <path id="m2a491046f1" d="M 193.647845 -98.365679 
L 190.78403 -98.365679 
L 190.628768 -100.205199 
L 190.473091 -102.04472 
L 190.318355 -103.88424 
L 190.165856 -105.72376 
L 190.016726 -107.563281 
L 189.871713 -109.402801 
L 189.730825 -111.242322 
L 189.592873 -113.081842 
L 189.454935 -114.921363 
L 189.311817 -116.760883 
L 189.155572 -118.600403 
L 188.975158 -120.439924 
L 188.756308 -122.279444 
L 188.481696 -124.118965 
L 188.131457 -125.958485 
L 187.684123 -127.798006 
L 187.117962 -129.637526 
L 186.412673 -131.477046 
L 185.551299 -133.316567 
L 184.52214 -135.156087 
L 183.320419 -136.995608 
L 181.949407 -138.835128 
L 180.420796 -140.674649 
L 178.75419 -142.514169 
L 176.975729 -144.353689 
L 175.116028 -146.19321 
L 173.207739 -148.03273 
L 171.283132 -149.872251 
L 169.372073 -151.711771 
L 167.500733 -153.551292 
L 165.691192 -155.390812 
L 163.961905 -157.230332 
L 162.328847 -159.069853 
L 160.806964 -160.909373 
L 159.411521 -162.748894 
L 158.158923 -164.588414 
L 157.066729 -166.427935 
L 156.15274 -168.267455 
L 155.433257 -170.106975 
L 154.920859 -171.946496 
L 154.622135 -173.786016 
L 154.535938 -175.625537 
L 154.652587 -177.465057 
L 154.954354 -179.304578 
L 155.417248 -181.144098 
L 156.013886 -182.983618 
L 156.716953 -184.823139 
L 157.502633 -186.662659 
L 158.353338 -188.50218 
L 159.25922 -190.3417 
L 160.218168 -192.181221 
L 161.234301 -194.020741 
L 162.315325 -195.860262 
L 163.46928 -197.699782 
L 164.701392 -199.539302 
L 166.011624 -201.378823 
L 167.393397 -203.218343 
L 168.833622 -205.057864 
L 170.313925 -206.897384 
L 171.812696 -208.736905 
L 173.307452 -210.576425 
L 174.777029 -212.415945 
L 176.20319 -214.255466 
L 177.571488 -216.094986 
L 178.87138 -217.934507 
L 180.095791 -219.774027 
L 181.240405 -221.613548 
L 182.302946 -223.453068 
L 183.282674 -225.292588 
L 184.180148 -227.132109 
L 184.997233 -228.971629 
L 185.737216 -230.81115 
L 186.404862 -232.65067 
L 187.006284 -234.490191 
L 187.548553 -236.329711 
L 188.039065 -238.169231 
L 188.484759 -240.008752 
L 188.891328 -241.848272 
L 189.262591 -243.687793 
L 189.600128 -245.527313 
L 189.903274 -247.366834 
L 190.169469 -249.206354 
L 190.394911 -251.045874 
L 190.575408 -252.885395 
L 190.707318 -254.724915 
L 190.788438 -256.564436 
L 190.81874 -258.403956 
L 190.800873 -260.243477 
L 190.740367 -262.082997 
L 190.645535 -263.922517 
L 190.527058 -265.762038 
L 190.397309 -267.601558 
L 190.269456 -269.441079 
L 190.15645 -271.280599 
L 190.069968 -273.12012 
L 190.019457 -274.95964 
L 190.011358 -276.79916 
L 190.048628 -278.638681 
L 190.130603 -280.478201 
L 194.301272 -280.478201 
L 194.301272 -280.478201 
L 194.383247 -278.638681 
L 194.420517 -276.79916 
L 194.412418 -274.95964 
L 194.361907 -273.12012 
L 194.275425 -271.280599 
L 194.162419 -269.441079 
L 194.034566 -267.601558 
L 193.904817 -265.762038 
L 193.78634 -263.922517 
L 193.691508 -262.082997 
L 193.631002 -260.243477 
L 193.613135 -258.403956 
L 193.643437 -256.564436 
L 193.724557 -254.724915 
L 193.856467 -252.885395 
L 194.036964 -251.045874 
L 194.262406 -249.206354 
L 194.528601 -247.366834 
L 194.831747 -245.527313 
L 195.169284 -243.687793 
L 195.540547 -241.848272 
L 195.947116 -240.008752 
L 196.39281 -238.169231 
L 196.883322 -236.329711 
L 197.425591 -234.490191 
L 198.027013 -232.65067 
L 198.694659 -230.81115 
L 199.434642 -228.971629 
L 200.251727 -227.132109 
L 201.149201 -225.292588 
L 202.128929 -223.453068 
L 203.19147 -221.613548 
L 204.336084 -219.774027 
L 205.560495 -217.934507 
L 206.860387 -216.094986 
L 208.228685 -214.255466 
L 209.654846 -212.415945 
L 211.124423 -210.576425 
L 212.619179 -208.736905 
L 214.11795 -206.897384 
L 215.598253 -205.057864 
L 217.038478 -203.218343 
L 218.420251 -201.378823 
L 219.730483 -199.539302 
L 220.962595 -197.699782 
L 222.11655 -195.860262 
L 223.197574 -194.020741 
L 224.213707 -192.181221 
L 225.172655 -190.3417 
L 226.078537 -188.50218 
L 226.929242 -186.662659 
L 227.714922 -184.823139 
L 228.417989 -182.983618 
L 229.014627 -181.144098 
L 229.477521 -179.304578 
L 229.779288 -177.465057 
L 229.895937 -175.625537 
L 229.80974 -173.786016 
L 229.511016 -171.946496 
L 228.998618 -170.106975 
L 228.279135 -168.267455 
L 227.365146 -166.427935 
L 226.272952 -164.588414 
L 225.020354 -162.748894 
L 223.624911 -160.909373 
L 222.103028 -159.069853 
L 220.46997 -157.230332 
L 218.740683 -155.390812 
L 216.931142 -153.551292 
L 215.059802 -151.711771 
L 213.148743 -149.872251 
L 211.224136 -148.03273 
L 209.315847 -146.19321 
L 207.456146 -144.353689 
L 205.677685 -142.514169 
L 204.011079 -140.674649 
L 202.482468 -138.835128 
L 201.111456 -136.995608 
L 199.909735 -135.156087 
L 198.880576 -133.316567 
L 198.019202 -131.477046 
L 197.313913 -129.637526 
L 196.747752 -127.798006 
L 196.300418 -125.958485 
L 195.950179 -124.118965 
L 195.675567 -122.279444 
L 195.456717 -120.439924 
L 195.276303 -118.600403 
L 195.120058 -116.760883 
L 194.97694 -114.921363 
L 194.839002 -113.081842 
L 194.70105 -111.242322 
L 194.560162 -109.402801 
L 194.415149 -107.563281 
L 194.266019 -105.72376 
L 194.11352 -103.88424 
L 193.958784 -102.04472 
L 193.803107 -100.205199 
L 193.647845 -98.365679 
z
" style="stroke: #000000; stroke-opacity: 0.7"/>
    </defs>
    <g clip-path="url(#p4c9c9b667f)">
     <use xlink:href="#m2a491046f1" x="0" y="319.919047" style="fill: #98df8a; fill-opacity: 0.7; stroke: #000000; stroke-opacity: 0.7"/>
    </g>
   </g>
   <g id="PolyCollection_3">
    <defs>
     <path id="m35a155be83" d="M 287.308879 -100.179548 
L 285.522996 -100.179548 
L 285.49011 -101.449257 
L 285.463913 -102.718966 
L 285.44102 -103.988675 
L 285.417483 -105.258384 
L 285.389372 -106.528093 
L 285.353391 -107.797801 
L 285.307413 -109.06751 
L 285.250857 -110.337219 
L 285.184824 -111.606928 
L 285.111965 -112.876637 
L 285.036073 -114.146345 
L 284.961462 -115.416054 
L 284.892191 -116.685763 
L 284.83125 -117.955472 
L 284.779803 -119.225181 
L 284.736597 -120.49489 
L 284.697613 -121.764598 
L 284.656017 -123.034307 
L 284.60244 -124.304016 
L 284.525563 -125.573725 
L 284.412985 -126.843434 
L 284.25228 -128.113143 
L 284.032174 -129.382851 
L 283.743708 -130.65256 
L 283.381285 -131.922269 
L 282.943469 -133.191978 
L 282.43343 -134.461687 
L 281.858928 -135.731395 
L 281.231802 -137.001104 
L 280.566939 -138.270813 
L 279.880794 -139.540522 
L 279.189579 -140.810231 
L 278.50731 -142.07994 
L 277.843944 -143.349648 
L 277.203857 -144.619357 
L 276.584879 -145.889066 
L 275.978072 -147.158775 
L 275.368298 -148.428484 
L 274.735563 -149.698193 
L 274.056978 -150.967901 
L 273.309088 -152.23761 
L 272.470292 -153.507319 
L 271.523043 -154.777028 
L 270.455569 -156.046737 
L 269.262967 -157.316445 
L 267.9476 -158.586154 
L 266.518864 -159.855863 
L 264.992485 -161.125572 
L 263.389531 -162.395281 
L 261.73535 -163.66499 
L 260.058576 -164.934698 
L 258.390262 -166.204407 
L 256.763084 -167.474116 
L 255.210529 -168.743825 
L 253.765882 -170.013534 
L 252.460929 -171.283243 
L 251.324342 -172.552951 
L 250.379848 -173.82266 
L 249.644425 -175.092369 
L 249.126859 -176.362078 
L 248.826989 -177.631787 
L 248.735938 -178.901495 
L 248.837436 -180.171204 
L 249.110162 -181.440913 
L 249.530796 -182.710622 
L 250.07732 -183.980331 
L 250.732011 -185.25004 
L 251.483585 -186.519748 
L 252.328091 -187.789457 
L 253.26837 -189.059166 
L 254.312112 -190.328875 
L 255.468854 -191.598584 
L 256.746391 -192.868293 
L 258.147242 -194.138001 
L 259.665776 -195.40771 
L 261.286526 -196.677419 
L 262.984008 -197.947128 
L 264.724136 -199.216837 
L 266.467044 -200.486545 
L 268.170886 -201.756254 
L 269.796054 -203.025963 
L 271.309143 -204.295672 
L 272.686099 -205.565381 
L 273.914075 -206.83509 
L 274.991814 -208.104798 
L 275.928565 -209.374507 
L 276.741823 -210.644216 
L 277.454306 -211.913925 
L 278.090708 -213.183634 
L 278.674693 -214.453343 
L 279.226526 -215.723051 
L 279.761566 -216.99276 
L 280.289667 -218.262469 
L 280.815388 -219.532178 
L 281.3388 -220.801887 
L 281.856647 -222.071595 
L 282.363592 -223.341304 
L 282.85338 -224.611013 
L 283.319769 -225.880722 
L 289.512106 -225.880722 
L 289.512106 -225.880722 
L 289.978495 -224.611013 
L 290.468283 -223.341304 
L 290.975228 -222.071595 
L 291.493075 -220.801887 
L 292.016487 -219.532178 
L 292.542208 -218.262469 
L 293.070309 -216.99276 
L 293.605349 -215.723051 
L 294.157182 -214.453343 
L 294.741167 -213.183634 
L 295.377569 -211.913925 
L 296.090052 -210.644216 
L 296.90331 -209.374507 
L 297.840061 -208.104798 
L 298.9178 -206.83509 
L 300.145776 -205.565381 
L 301.522732 -204.295672 
L 303.035821 -203.025963 
L 304.660989 -201.756254 
L 306.364831 -200.486545 
L 308.107739 -199.216837 
L 309.847867 -197.947128 
L 311.545349 -196.677419 
L 313.166099 -195.40771 
L 314.684633 -194.138001 
L 316.085484 -192.868293 
L 317.363021 -191.598584 
L 318.519763 -190.328875 
L 319.563505 -189.059166 
L 320.503784 -187.789457 
L 321.34829 -186.519748 
L 322.099864 -185.25004 
L 322.754555 -183.980331 
L 323.301079 -182.710622 
L 323.721713 -181.440913 
L 323.994439 -180.171204 
L 324.095937 -178.901495 
L 324.004886 -177.631787 
L 323.705016 -176.362078 
L 323.18745 -175.092369 
L 322.452027 -173.82266 
L 321.507533 -172.552951 
L 320.370946 -171.283243 
L 319.065993 -170.013534 
L 317.621346 -168.743825 
L 316.068791 -167.474116 
L 314.441613 -166.204407 
L 312.773299 -164.934698 
L 311.096525 -163.66499 
L 309.442344 -162.395281 
L 307.83939 -161.125572 
L 306.313011 -159.855863 
L 304.884275 -158.586154 
L 303.568908 -157.316445 
L 302.376306 -156.046737 
L 301.308832 -154.777028 
L 300.361583 -153.507319 
L 299.522787 -152.23761 
L 298.774897 -150.967901 
L 298.096312 -149.698193 
L 297.463577 -148.428484 
L 296.853803 -147.158775 
L 296.246996 -145.889066 
L 295.628018 -144.619357 
L 294.987931 -143.349648 
L 294.324565 -142.07994 
L 293.642296 -140.810231 
L 292.951081 -139.540522 
L 292.264936 -138.270813 
L 291.600073 -137.001104 
L 290.972947 -135.731395 
L 290.398445 -134.461687 
L 289.888406 -133.191978 
L 289.45059 -131.922269 
L 289.088167 -130.65256 
L 288.799701 -129.382851 
L 288.579595 -128.113143 
L 288.41889 -126.843434 
L 288.306312 -125.573725 
L 288.229435 -124.304016 
L 288.175858 -123.034307 
L 288.134262 -121.764598 
L 288.095278 -120.49489 
L 288.052072 -119.225181 
L 288.000625 -117.955472 
L 287.939684 -116.685763 
L 287.870413 -115.416054 
L 287.795802 -114.146345 
L 287.71991 -112.876637 
L 287.647051 -111.606928 
L 287.581018 -110.337219 
L 287.524462 -109.06751 
L 287.478484 -107.797801 
L 287.442503 -106.528093 
L 287.414392 -105.258384 
L 287.390855 -103.988675 
L 287.367962 -102.718966 
L 287.341765 -101.449257 
L 287.308879 -100.179548 
z
" style="stroke: #000000; stroke-opacity: 0.7"/>
    </defs>
    <g clip-path="url(#p4c9c9b667f)">
     <use xlink:href="#m35a155be83" x="0" y="319.919047" style="fill: #aec7e8; fill-opacity: 0.7; stroke: #000000; stroke-opacity: 0.7"/>
    </g>
   </g>
   <g id="PolyCollection_4">
    <defs>
     <path id="mfe515b9b90" d="M 381.432642 -92.561295 
L 379.799233 -92.561295 
L 379.801208 -93.713744 
L 379.819959 -94.866193 
L 379.851468 -96.018641 
L 379.890145 -97.17109 
L 379.92939 -98.323538 
L 379.962253 -99.475987 
L 379.982107 -100.628435 
L 379.983221 -101.780884 
L 379.961179 -102.933332 
L 379.913064 -104.085781 
L 379.837431 -105.23823 
L 379.734075 -106.390678 
L 379.603664 -107.543127 
L 379.447318 -108.695575 
L 379.266224 -109.848024 
L 379.06138 -111.000472 
L 378.833505 -112.152921 
L 378.583144 -113.30537 
L 378.310912 -114.457818 
L 378.017797 -115.610267 
L 377.705389 -116.762715 
L 377.375928 -117.915164 
L 377.032061 -119.067612 
L 376.676293 -120.220061 
L 376.310167 -121.372509 
L 375.933305 -122.524958 
L 375.542471 -123.677407 
L 375.130863 -124.829855 
L 374.687792 -125.982304 
L 374.198861 -127.134752 
L 373.646684 -128.287201 
L 373.012094 -129.439649 
L 372.275728 -130.592098 
L 371.419856 -131.744546 
L 370.430274 -132.896995 
L 369.298089 -134.049444 
L 368.021231 -135.201892 
L 366.605512 -136.354341 
L 365.065057 -137.506789 
L 363.421975 -138.659238 
L 361.705177 -139.811686 
L 359.948355 -140.964135 
L 358.187284 -142.116583 
L 356.456764 -143.269032 
L 354.787629 -144.421481 
L 353.204323 -145.573929 
L 351.723474 -146.726378 
L 350.353756 -147.878826 
L 349.097062 -149.031275 
L 347.950781 -150.183723 
L 346.910713 -151.336172 
L 345.974042 -152.48862 
L 345.141786 -153.641069 
L 344.420278 -154.793518 
L 343.821408 -155.945966 
L 343.361657 -157.098415 
L 343.060124 -158.250863 
L 342.935937 -159.403312 
L 343.005498 -160.55576 
L 343.279988 -161.708209 
L 343.763509 -162.860657 
L 344.452075 -164.013106 
L 345.333568 -165.165555 
L 346.388606 -166.318003 
L 347.59217 -167.470452 
L 348.915738 -168.6229 
L 350.32964 -169.775349 
L 351.805311 -170.927797 
L 353.317191 -172.080246 
L 354.844058 -173.232694 
L 356.369679 -174.385143 
L 357.882757 -175.537592 
L 359.376235 -176.69004 
L 360.846105 -177.842489 
L 362.289923 -178.994937 
L 363.705269 -180.147386 
L 365.088415 -181.299834 
L 366.433419 -182.452283 
L 367.731802 -183.604731 
L 368.972885 -184.75718 
L 370.144699 -185.909629 
L 371.235316 -187.062077 
L 372.234313 -188.214526 
L 373.13411 -189.366974 
L 373.930917 -190.519423 
L 374.62515 -191.671871 
L 375.221275 -192.82432 
L 375.727198 -193.976768 
L 376.153344 -195.129217 
L 376.511655 -196.281666 
L 376.814659 -197.434114 
L 377.074722 -198.586563 
L 377.303507 -199.739011 
L 377.511598 -200.89146 
L 377.708224 -202.043908 
L 377.901014 -203.196357 
L 378.095754 -204.348805 
L 378.296187 -205.501254 
L 378.503876 -206.653703 
L 382.727999 -206.653703 
L 382.727999 -206.653703 
L 382.935688 -205.501254 
L 383.136121 -204.348805 
L 383.330861 -203.196357 
L 383.523651 -202.043908 
L 383.720277 -200.89146 
L 383.928368 -199.739011 
L 384.157153 -198.586563 
L 384.417216 -197.434114 
L 384.72022 -196.281666 
L 385.078531 -195.129217 
L 385.504677 -193.976768 
L 386.0106 -192.82432 
L 386.606725 -191.671871 
L 387.300958 -190.519423 
L 388.097765 -189.366974 
L 388.997562 -188.214526 
L 389.996559 -187.062077 
L 391.087176 -185.909629 
L 392.25899 -184.75718 
L 393.500073 -183.604731 
L 394.798456 -182.452283 
L 396.14346 -181.299834 
L 397.526606 -180.147386 
L 398.941952 -178.994937 
L 400.38577 -177.842489 
L 401.85564 -176.69004 
L 403.349118 -175.537592 
L 404.862196 -174.385143 
L 406.387817 -173.232694 
L 407.914684 -172.080246 
L 409.426564 -170.927797 
L 410.902235 -169.775349 
L 412.316137 -168.6229 
L 413.639705 -167.470452 
L 414.843269 -166.318003 
L 415.898307 -165.165555 
L 416.7798 -164.013106 
L 417.468366 -162.860657 
L 417.951887 -161.708209 
L 418.226377 -160.55576 
L 418.295937 -159.403312 
L 418.171751 -158.250863 
L 417.870218 -157.098415 
L 417.410467 -155.945966 
L 416.811597 -154.793518 
L 416.090089 -153.641069 
L 415.257833 -152.48862 
L 414.321162 -151.336172 
L 413.281094 -150.183723 
L 412.134813 -149.031275 
L 410.878119 -147.878826 
L 409.508401 -146.726378 
L 408.027552 -145.573929 
L 406.444246 -144.421481 
L 404.775111 -143.269032 
L 403.044591 -142.116583 
L 401.28352 -140.964135 
L 399.526698 -139.811686 
L 397.8099 -138.659238 
L 396.166818 -137.506789 
L 394.626363 -136.354341 
L 393.210644 -135.201892 
L 391.933786 -134.049444 
L 390.801601 -132.896995 
L 389.812019 -131.744546 
L 388.956147 -130.592098 
L 388.219781 -129.439649 
L 387.585191 -128.287201 
L 387.033014 -127.134752 
L 386.544083 -125.982304 
L 386.101012 -124.829855 
L 385.689404 -123.677407 
L 385.29857 -122.524958 
L 384.921708 -121.372509 
L 384.555582 -120.220061 
L 384.199814 -119.067612 
L 383.855947 -117.915164 
L 383.526486 -116.762715 
L 383.214078 -115.610267 
L 382.920963 -114.457818 
L 382.648731 -113.30537 
L 382.39837 -112.152921 
L 382.170495 -111.000472 
L 381.965651 -109.848024 
L 381.784557 -108.695575 
L 381.628211 -107.543127 
L 381.4978 -106.390678 
L 381.394444 -105.23823 
L 381.318811 -104.085781 
L 381.270696 -102.933332 
L 381.248654 -101.780884 
L 381.249768 -100.628435 
L 381.269622 -99.475987 
L 381.302485 -98.323538 
L 381.34173 -97.17109 
L 381.380407 -96.018641 
L 381.411916 -94.866193 
L 381.430667 -93.713744 
L 381.432642 -92.561295 
z
" style="stroke: #000000; stroke-opacity: 0.7"/>
    </defs>
    <g clip-path="url(#p4c9c9b667f)">
     <use xlink:href="#mfe515b9b90" x="0" y="319.919047" style="fill: #9edae5; fill-opacity: 0.7; stroke: #000000; stroke-opacity: 0.7"/>
    </g>
   </g>
   <g id="matplotlib.axis_1">
    <g id="xtick_1">
     <g id="line2d_1">
      <defs>
       <path id="m2bc7ab46d6" d="M 0 0 
L 0 3.5 
" style="stroke: #000000; stroke-width: 0.8"/>
      </defs>
      <g>
       <use xlink:href="#m2bc7ab46d6" x="98.015938" y="236.753596" style="stroke: #000000; stroke-width: 0.8"/>
      </g>
     </g>
     <g id="text_1">
      <!-- Fast Food Chains -->
      <g transform="translate(36.794632 309.051814) rotate(-45) scale(0.12 -0.12)">
       <defs>
        <path id="TimesNewRomanPSMT-46" d="M 1309 4006 
L 1309 2341 
L 2081 2341 
Q 2347 2341 2470 2458 
Q 2594 2575 2634 2922 
L 2750 2922 
L 2750 1488 
L 2634 1488 
Q 2631 1734 2570 1850 
Q 2509 1966 2401 2023 
Q 2294 2081 2081 2081 
L 1309 2081 
L 1309 750 
Q 1309 428 1350 325 
Q 1381 247 1481 191 
Q 1619 116 1769 116 
L 1922 116 
L 1922 0 
L 103 0 
L 103 116 
L 253 116 
Q 516 116 634 269 
Q 709 369 709 750 
L 709 3488 
Q 709 3809 669 3913 
Q 638 3991 541 4047 
Q 406 4122 253 4122 
L 103 4122 
L 103 4238 
L 3256 4238 
L 3297 3306 
L 3188 3306 
Q 3106 3603 2998 3742 
Q 2891 3881 2733 3943 
Q 2575 4006 2244 4006 
L 1309 4006 
z
" transform="scale(0.015625)"/>
        <path id="TimesNewRomanPSMT-61" d="M 1822 413 
Q 1381 72 1269 19 
Q 1100 -59 909 -59 
Q 613 -59 420 144 
Q 228 347 228 678 
Q 228 888 322 1041 
Q 450 1253 767 1440 
Q 1084 1628 1822 1897 
L 1822 2009 
Q 1822 2438 1686 2597 
Q 1550 2756 1291 2756 
Q 1094 2756 978 2650 
Q 859 2544 859 2406 
L 866 2225 
Q 866 2081 792 2003 
Q 719 1925 600 1925 
Q 484 1925 411 2006 
Q 338 2088 338 2228 
Q 338 2497 613 2722 
Q 888 2947 1384 2947 
Q 1766 2947 2009 2819 
Q 2194 2722 2281 2516 
Q 2338 2381 2338 1966 
L 2338 994 
Q 2338 584 2353 492 
Q 2369 400 2405 369 
Q 2441 338 2488 338 
Q 2538 338 2575 359 
Q 2641 400 2828 588 
L 2828 413 
Q 2478 -56 2159 -56 
Q 2006 -56 1915 50 
Q 1825 156 1822 413 
z
M 1822 616 
L 1822 1706 
Q 1350 1519 1213 1441 
Q 966 1303 859 1153 
Q 753 1003 753 825 
Q 753 600 887 451 
Q 1022 303 1197 303 
Q 1434 303 1822 616 
z
" transform="scale(0.015625)"/>
        <path id="TimesNewRomanPSMT-73" d="M 2050 2947 
L 2050 1972 
L 1947 1972 
Q 1828 2431 1642 2597 
Q 1456 2763 1169 2763 
Q 950 2763 815 2647 
Q 681 2531 681 2391 
Q 681 2216 781 2091 
Q 878 1963 1175 1819 
L 1631 1597 
Q 2266 1288 2266 781 
Q 2266 391 1970 151 
Q 1675 -88 1309 -88 
Q 1047 -88 709 6 
Q 606 38 541 38 
Q 469 38 428 -44 
L 325 -44 
L 325 978 
L 428 978 
Q 516 541 762 319 
Q 1009 97 1316 97 
Q 1531 97 1667 223 
Q 1803 350 1803 528 
Q 1803 744 1651 891 
Q 1500 1038 1047 1263 
Q 594 1488 453 1669 
Q 313 1847 313 2119 
Q 313 2472 555 2709 
Q 797 2947 1181 2947 
Q 1350 2947 1591 2875 
Q 1750 2828 1803 2828 
Q 1853 2828 1881 2850 
Q 1909 2872 1947 2947 
L 2050 2947 
z
" transform="scale(0.015625)"/>
        <path id="TimesNewRomanPSMT-74" d="M 1031 3803 
L 1031 2863 
L 1700 2863 
L 1700 2644 
L 1031 2644 
L 1031 788 
Q 1031 509 1111 412 
Q 1191 316 1316 316 
Q 1419 316 1516 380 
Q 1613 444 1666 569 
L 1788 569 
Q 1678 263 1478 108 
Q 1278 -47 1066 -47 
Q 922 -47 784 33 
Q 647 113 581 261 
Q 516 409 516 719 
L 516 2644 
L 63 2644 
L 63 2747 
Q 234 2816 414 2980 
Q 594 3144 734 3369 
Q 806 3488 934 3803 
L 1031 3803 
z
" transform="scale(0.015625)"/>
        <path id="TimesNewRomanPSMT-20" transform="scale(0.015625)"/>
        <path id="TimesNewRomanPSMT-6f" d="M 1600 2947 
Q 2250 2947 2644 2453 
Q 2978 2031 2978 1484 
Q 2978 1100 2793 706 
Q 2609 313 2286 112 
Q 1963 -88 1566 -88 
Q 919 -88 538 428 
Q 216 863 216 1403 
Q 216 1797 411 2186 
Q 606 2575 925 2761 
Q 1244 2947 1600 2947 
z
M 1503 2744 
Q 1338 2744 1170 2645 
Q 1003 2547 900 2300 
Q 797 2053 797 1666 
Q 797 1041 1045 587 
Q 1294 134 1700 134 
Q 2003 134 2200 384 
Q 2397 634 2397 1244 
Q 2397 2006 2069 2444 
Q 1847 2744 1503 2744 
z
" transform="scale(0.015625)"/>
        <path id="TimesNewRomanPSMT-64" d="M 2222 322 
Q 2013 103 1813 7 
Q 1613 -88 1381 -88 
Q 913 -88 563 304 
Q 213 697 213 1313 
Q 213 1928 600 2439 
Q 988 2950 1597 2950 
Q 1975 2950 2222 2709 
L 2222 3238 
Q 2222 3728 2198 3840 
Q 2175 3953 2125 3993 
Q 2075 4034 2000 4034 
Q 1919 4034 1784 3984 
L 1744 4094 
L 2597 4444 
L 2738 4444 
L 2738 1134 
Q 2738 631 2761 520 
Q 2784 409 2836 365 
Q 2888 322 2956 322 
Q 3041 322 3181 375 
L 3216 266 
L 2366 -88 
L 2222 -88 
L 2222 322 
z
M 2222 541 
L 2222 2016 
Q 2203 2228 2109 2403 
Q 2016 2578 1861 2667 
Q 1706 2756 1559 2756 
Q 1284 2756 1069 2509 
Q 784 2184 784 1559 
Q 784 928 1059 592 
Q 1334 256 1672 256 
Q 1956 256 2222 541 
z
" transform="scale(0.015625)"/>
        <path id="TimesNewRomanPSMT-43" d="M 3853 4334 
L 3950 2894 
L 3853 2894 
Q 3659 3541 3300 3825 
Q 2941 4109 2438 4109 
Q 2016 4109 1675 3895 
Q 1334 3681 1139 3212 
Q 944 2744 944 2047 
Q 944 1472 1128 1050 
Q 1313 628 1683 403 
Q 2053 178 2528 178 
Q 2941 178 3256 354 
Q 3572 531 3950 1056 
L 4047 994 
Q 3728 428 3303 165 
Q 2878 -97 2294 -97 
Q 1241 -97 663 684 
Q 231 1266 231 2053 
Q 231 2688 515 3219 
Q 800 3750 1298 4042 
Q 1797 4334 2388 4334 
Q 2847 4334 3294 4109 
Q 3425 4041 3481 4041 
Q 3566 4041 3628 4100 
Q 3709 4184 3744 4334 
L 3853 4334 
z
" transform="scale(0.015625)"/>
        <path id="TimesNewRomanPSMT-68" d="M 1041 4444 
L 1041 2350 
Q 1388 2731 1591 2839 
Q 1794 2947 1997 2947 
Q 2241 2947 2416 2812 
Q 2591 2678 2675 2391 
Q 2734 2191 2734 1659 
L 2734 647 
Q 2734 375 2778 275 
Q 2809 200 2884 156 
Q 2959 113 3159 113 
L 3159 0 
L 1753 0 
L 1753 113 
L 1819 113 
Q 2019 113 2097 173 
Q 2175 234 2206 353 
Q 2216 403 2216 647 
L 2216 1659 
Q 2216 2128 2167 2275 
Q 2119 2422 2012 2495 
Q 1906 2569 1756 2569 
Q 1603 2569 1437 2487 
Q 1272 2406 1041 2159 
L 1041 647 
Q 1041 353 1073 281 
Q 1106 209 1195 161 
Q 1284 113 1503 113 
L 1503 0 
L 84 0 
L 84 113 
Q 275 113 384 172 
Q 447 203 484 290 
Q 522 378 522 647 
L 522 3238 
Q 522 3728 498 3840 
Q 475 3953 426 3993 
Q 378 4034 297 4034 
Q 231 4034 84 3984 
L 41 4094 
L 897 4444 
L 1041 4444 
z
" transform="scale(0.015625)"/>
        <path id="TimesNewRomanPSMT-69" d="M 928 4444 
Q 1059 4444 1151 4351 
Q 1244 4259 1244 4128 
Q 1244 3997 1151 3903 
Q 1059 3809 928 3809 
Q 797 3809 703 3903 
Q 609 3997 609 4128 
Q 609 4259 701 4351 
Q 794 4444 928 4444 
z
M 1188 2947 
L 1188 647 
Q 1188 378 1227 289 
Q 1266 200 1342 156 
Q 1419 113 1622 113 
L 1622 0 
L 231 0 
L 231 113 
Q 441 113 512 153 
Q 584 194 626 287 
Q 669 381 669 647 
L 669 1750 
Q 669 2216 641 2353 
Q 619 2453 572 2492 
Q 525 2531 444 2531 
Q 356 2531 231 2484 
L 188 2597 
L 1050 2947 
L 1188 2947 
z
" transform="scale(0.015625)"/>
        <path id="TimesNewRomanPSMT-6e" d="M 1034 2341 
Q 1538 2947 1994 2947 
Q 2228 2947 2397 2830 
Q 2566 2713 2666 2444 
Q 2734 2256 2734 1869 
L 2734 647 
Q 2734 375 2778 278 
Q 2813 200 2889 156 
Q 2966 113 3172 113 
L 3172 0 
L 1756 0 
L 1756 113 
L 1816 113 
Q 2016 113 2095 173 
Q 2175 234 2206 353 
Q 2219 400 2219 647 
L 2219 1819 
Q 2219 2209 2117 2386 
Q 2016 2563 1775 2563 
Q 1403 2563 1034 2156 
L 1034 647 
Q 1034 356 1069 288 
Q 1113 197 1189 155 
Q 1266 113 1500 113 
L 1500 0 
L 84 0 
L 84 113 
L 147 113 
Q 366 113 442 223 
Q 519 334 519 647 
L 519 1709 
Q 519 2225 495 2337 
Q 472 2450 423 2490 
Q 375 2531 294 2531 
Q 206 2531 84 2484 
L 38 2597 
L 900 2947 
L 1034 2947 
L 1034 2341 
z
" transform="scale(0.015625)"/>
       </defs>
       <use xlink:href="#TimesNewRomanPSMT-46"/>
       <use xlink:href="#TimesNewRomanPSMT-61" x="55.615234"/>
       <use xlink:href="#TimesNewRomanPSMT-73" x="100"/>
       <use xlink:href="#TimesNewRomanPSMT-74" x="138.916016"/>
       <use xlink:href="#TimesNewRomanPSMT-20" x="166.699219"/>
       <use xlink:href="#TimesNewRomanPSMT-46" x="191.699219"/>
       <use xlink:href="#TimesNewRomanPSMT-6f" x="247.314453"/>
       <use xlink:href="#TimesNewRomanPSMT-6f" x="297.314453"/>
       <use xlink:href="#TimesNewRomanPSMT-64" x="347.314453"/>
       <use xlink:href="#TimesNewRomanPSMT-20" x="397.314453"/>
       <use xlink:href="#TimesNewRomanPSMT-43" x="422.314453"/>
       <use xlink:href="#TimesNewRomanPSMT-68" x="489.013672"/>
       <use xlink:href="#TimesNewRomanPSMT-61" x="539.013672"/>
       <use xlink:href="#TimesNewRomanPSMT-69" x="583.398438"/>
       <use xlink:href="#TimesNewRomanPSMT-6e" x="611.181641"/>
       <use xlink:href="#TimesNewRomanPSMT-73" x="661.181641"/>
      </g>
     </g>
    </g>
    <g id="xtick_2">
     <g id="line2d_2">
      <g>
       <use xlink:href="#m2bc7ab46d6" x="192.215937" y="236.753596" style="stroke: #000000; stroke-width: 0.8"/>
      </g>
     </g>
     <g id="text_2">
      <!-- Ice Cream Parlors -->
      <g transform="translate(129.142455 310.903992) rotate(-45) scale(0.12 -0.12)">
       <defs>
        <path id="TimesNewRomanPSMT-49" d="M 1975 116 
L 1975 0 
L 159 0 
L 159 116 
L 309 116 
Q 572 116 691 269 
Q 766 369 766 750 
L 766 3488 
Q 766 3809 725 3913 
Q 694 3991 597 4047 
Q 459 4122 309 4122 
L 159 4122 
L 159 4238 
L 1975 4238 
L 1975 4122 
L 1822 4122 
Q 1563 4122 1444 3969 
Q 1366 3869 1366 3488 
L 1366 750 
Q 1366 428 1406 325 
Q 1438 247 1538 191 
Q 1672 116 1822 116 
L 1975 116 
z
" transform="scale(0.015625)"/>
        <path id="TimesNewRomanPSMT-63" d="M 2631 1088 
Q 2516 522 2178 217 
Q 1841 -88 1431 -88 
Q 944 -88 581 321 
Q 219 731 219 1428 
Q 219 2103 620 2525 
Q 1022 2947 1584 2947 
Q 2006 2947 2278 2723 
Q 2550 2500 2550 2259 
Q 2550 2141 2473 2067 
Q 2397 1994 2259 1994 
Q 2075 1994 1981 2113 
Q 1928 2178 1911 2362 
Q 1894 2547 1784 2644 
Q 1675 2738 1481 2738 
Q 1169 2738 978 2506 
Q 725 2200 725 1697 
Q 725 1184 976 792 
Q 1228 400 1656 400 
Q 1963 400 2206 609 
Q 2378 753 2541 1131 
L 2631 1088 
z
" transform="scale(0.015625)"/>
        <path id="TimesNewRomanPSMT-65" d="M 681 1784 
Q 678 1147 991 784 
Q 1303 422 1725 422 
Q 2006 422 2214 576 
Q 2422 731 2563 1106 
L 2659 1044 
Q 2594 616 2278 264 
Q 1963 -88 1488 -88 
Q 972 -88 605 314 
Q 238 716 238 1394 
Q 238 2128 614 2539 
Q 991 2950 1559 2950 
Q 2041 2950 2350 2633 
Q 2659 2316 2659 1784 
L 681 1784 
z
M 681 1966 
L 2006 1966 
Q 1991 2241 1941 2353 
Q 1863 2528 1708 2628 
Q 1553 2728 1384 2728 
Q 1125 2728 920 2526 
Q 716 2325 681 1966 
z
" transform="scale(0.015625)"/>
        <path id="TimesNewRomanPSMT-72" d="M 1038 2947 
L 1038 2303 
Q 1397 2947 1775 2947 
Q 1947 2947 2059 2842 
Q 2172 2738 2172 2600 
Q 2172 2478 2090 2393 
Q 2009 2309 1897 2309 
Q 1788 2309 1652 2417 
Q 1516 2525 1450 2525 
Q 1394 2525 1328 2463 
Q 1188 2334 1038 2041 
L 1038 669 
Q 1038 431 1097 309 
Q 1138 225 1241 169 
Q 1344 113 1538 113 
L 1538 0 
L 72 0 
L 72 113 
Q 291 113 397 181 
Q 475 231 506 341 
Q 522 394 522 644 
L 522 1753 
Q 522 2253 501 2348 
Q 481 2444 426 2487 
Q 372 2531 291 2531 
Q 194 2531 72 2484 
L 41 2597 
L 906 2947 
L 1038 2947 
z
" transform="scale(0.015625)"/>
        <path id="TimesNewRomanPSMT-6d" d="M 1050 2338 
Q 1363 2650 1419 2697 
Q 1559 2816 1721 2881 
Q 1884 2947 2044 2947 
Q 2313 2947 2506 2790 
Q 2700 2634 2766 2338 
Q 3088 2713 3309 2830 
Q 3531 2947 3766 2947 
Q 3994 2947 4170 2830 
Q 4347 2713 4450 2447 
Q 4519 2266 4519 1878 
L 4519 647 
Q 4519 378 4559 278 
Q 4591 209 4675 161 
Q 4759 113 4950 113 
L 4950 0 
L 3538 0 
L 3538 113 
L 3597 113 
Q 3781 113 3884 184 
Q 3956 234 3988 344 
Q 4000 397 4000 647 
L 4000 1878 
Q 4000 2228 3916 2372 
Q 3794 2572 3525 2572 
Q 3359 2572 3192 2489 
Q 3025 2406 2788 2181 
L 2781 2147 
L 2788 2013 
L 2788 647 
Q 2788 353 2820 281 
Q 2853 209 2943 161 
Q 3034 113 3253 113 
L 3253 0 
L 1806 0 
L 1806 113 
Q 2044 113 2133 169 
Q 2222 225 2256 338 
Q 2272 391 2272 647 
L 2272 1878 
Q 2272 2228 2169 2381 
Q 2031 2581 1784 2581 
Q 1616 2581 1450 2491 
Q 1191 2353 1050 2181 
L 1050 647 
Q 1050 366 1089 281 
Q 1128 197 1204 155 
Q 1281 113 1516 113 
L 1516 0 
L 100 0 
L 100 113 
Q 297 113 375 155 
Q 453 197 493 289 
Q 534 381 534 647 
L 534 1741 
Q 534 2213 506 2350 
Q 484 2453 437 2492 
Q 391 2531 309 2531 
Q 222 2531 100 2484 
L 53 2597 
L 916 2947 
L 1050 2947 
L 1050 2338 
z
" transform="scale(0.015625)"/>
        <path id="TimesNewRomanPSMT-50" d="M 1313 1984 
L 1313 750 
Q 1313 350 1400 253 
Q 1519 116 1759 116 
L 1922 116 
L 1922 0 
L 106 0 
L 106 116 
L 266 116 
Q 534 116 650 291 
Q 713 388 713 750 
L 713 3488 
Q 713 3888 628 3984 
Q 506 4122 266 4122 
L 106 4122 
L 106 4238 
L 1659 4238 
Q 2228 4238 2556 4120 
Q 2884 4003 3109 3725 
Q 3334 3447 3334 3066 
Q 3334 2547 2992 2222 
Q 2650 1897 2025 1897 
Q 1872 1897 1694 1919 
Q 1516 1941 1313 1984 
z
M 1313 2163 
Q 1478 2131 1606 2115 
Q 1734 2100 1825 2100 
Q 2150 2100 2386 2351 
Q 2622 2603 2622 3003 
Q 2622 3278 2509 3514 
Q 2397 3750 2190 3867 
Q 1984 3984 1722 3984 
Q 1563 3984 1313 3925 
L 1313 2163 
z
" transform="scale(0.015625)"/>
        <path id="TimesNewRomanPSMT-6c" d="M 1184 4444 
L 1184 647 
Q 1184 378 1223 290 
Q 1263 203 1344 158 
Q 1425 113 1647 113 
L 1647 0 
L 244 0 
L 244 113 
Q 441 113 512 153 
Q 584 194 625 287 
Q 666 381 666 647 
L 666 3247 
Q 666 3731 644 3842 
Q 622 3953 573 3993 
Q 525 4034 450 4034 
Q 369 4034 244 3984 
L 191 4094 
L 1044 4444 
L 1184 4444 
z
" transform="scale(0.015625)"/>
       </defs>
       <use xlink:href="#TimesNewRomanPSMT-49"/>
       <use xlink:href="#TimesNewRomanPSMT-63" x="33.300781"/>
       <use xlink:href="#TimesNewRomanPSMT-65" x="77.685547"/>
       <use xlink:href="#TimesNewRomanPSMT-20" x="122.070312"/>
       <use xlink:href="#TimesNewRomanPSMT-43" x="147.070312"/>
       <use xlink:href="#TimesNewRomanPSMT-72" x="213.769531"/>
       <use xlink:href="#TimesNewRomanPSMT-65" x="247.070312"/>
       <use xlink:href="#TimesNewRomanPSMT-61" x="291.455078"/>
       <use xlink:href="#TimesNewRomanPSMT-6d" x="335.839844"/>
       <use xlink:href="#TimesNewRomanPSMT-20" x="413.623047"/>
       <use xlink:href="#TimesNewRomanPSMT-50" x="438.623047"/>
       <use xlink:href="#TimesNewRomanPSMT-61" x="494.238281"/>
       <use xlink:href="#TimesNewRomanPSMT-72" x="538.623047"/>
       <use xlink:href="#TimesNewRomanPSMT-6c" x="571.923828"/>
       <use xlink:href="#TimesNewRomanPSMT-6f" x="599.707031"/>
       <use xlink:href="#TimesNewRomanPSMT-72" x="649.707031"/>
       <use xlink:href="#TimesNewRomanPSMT-73" x="683.007812"/>
      </g>
     </g>
    </g>
    <g id="xtick_3">
     <g id="line2d_3">
      <g>
       <use xlink:href="#m2bc7ab46d6" x="286.415937" y="236.753596" style="stroke: #000000; stroke-width: 0.8"/>
      </g>
     </g>
     <g id="text_3">
      <!-- Sushi Restaurants -->
      <g transform="translate(224.025255 310.221192) rotate(-45) scale(0.12 -0.12)">
       <defs>
        <path id="TimesNewRomanPSMT-53" d="M 2934 4334 
L 2934 2869 
L 2819 2869 
Q 2763 3291 2617 3541 
Q 2472 3791 2203 3937 
Q 1934 4084 1647 4084 
Q 1322 4084 1109 3886 
Q 897 3688 897 3434 
Q 897 3241 1031 3081 
Q 1225 2847 1953 2456 
Q 2547 2138 2764 1967 
Q 2981 1797 3098 1565 
Q 3216 1334 3216 1081 
Q 3216 600 2842 251 
Q 2469 -97 1881 -97 
Q 1697 -97 1534 -69 
Q 1438 -53 1133 45 
Q 828 144 747 144 
Q 669 144 623 97 
Q 578 50 556 -97 
L 441 -97 
L 441 1356 
L 556 1356 
Q 638 900 775 673 
Q 913 447 1195 297 
Q 1478 147 1816 147 
Q 2206 147 2432 353 
Q 2659 559 2659 841 
Q 2659 997 2573 1156 
Q 2488 1316 2306 1453 
Q 2184 1547 1640 1851 
Q 1097 2156 867 2337 
Q 638 2519 519 2737 
Q 400 2956 400 3219 
Q 400 3675 750 4004 
Q 1100 4334 1641 4334 
Q 1978 4334 2356 4169 
Q 2531 4091 2603 4091 
Q 2684 4091 2736 4139 
Q 2788 4188 2819 4334 
L 2934 4334 
z
" transform="scale(0.015625)"/>
        <path id="TimesNewRomanPSMT-75" d="M 2709 2863 
L 2709 1128 
Q 2709 631 2732 520 
Q 2756 409 2807 365 
Q 2859 322 2928 322 
Q 3025 322 3147 375 
L 3191 266 
L 2334 -88 
L 2194 -88 
L 2194 519 
Q 1825 119 1631 15 
Q 1438 -88 1222 -88 
Q 981 -88 804 51 
Q 628 191 559 409 
Q 491 628 491 1028 
L 491 2306 
Q 491 2509 447 2587 
Q 403 2666 317 2708 
Q 231 2750 6 2747 
L 6 2863 
L 1009 2863 
L 1009 947 
Q 1009 547 1148 422 
Q 1288 297 1484 297 
Q 1619 297 1789 381 
Q 1959 466 2194 703 
L 2194 2325 
Q 2194 2569 2105 2655 
Q 2016 2741 1734 2747 
L 1734 2863 
L 2709 2863 
z
" transform="scale(0.015625)"/>
        <path id="TimesNewRomanPSMT-52" d="M 4325 0 
L 3194 0 
L 1759 1981 
Q 1600 1975 1500 1975 
Q 1459 1975 1412 1976 
Q 1366 1978 1316 1981 
L 1316 750 
Q 1316 350 1403 253 
Q 1522 116 1759 116 
L 1925 116 
L 1925 0 
L 109 0 
L 109 116 
L 269 116 
Q 538 116 653 291 
Q 719 388 719 750 
L 719 3488 
Q 719 3888 631 3984 
Q 509 4122 269 4122 
L 109 4122 
L 109 4238 
L 1653 4238 
Q 2328 4238 2648 4139 
Q 2969 4041 3192 3777 
Q 3416 3513 3416 3147 
Q 3416 2756 3161 2468 
Q 2906 2181 2372 2063 
L 3247 847 
Q 3547 428 3762 290 
Q 3978 153 4325 116 
L 4325 0 
z
M 1316 2178 
Q 1375 2178 1419 2176 
Q 1463 2175 1491 2175 
Q 2097 2175 2405 2437 
Q 2713 2700 2713 3106 
Q 2713 3503 2464 3751 
Q 2216 4000 1806 4000 
Q 1625 4000 1316 3941 
L 1316 2178 
z
" transform="scale(0.015625)"/>
       </defs>
       <use xlink:href="#TimesNewRomanPSMT-53"/>
       <use xlink:href="#TimesNewRomanPSMT-75" x="55.615234"/>
       <use xlink:href="#TimesNewRomanPSMT-73" x="105.615234"/>
       <use xlink:href="#TimesNewRomanPSMT-68" x="144.53125"/>
       <use xlink:href="#TimesNewRomanPSMT-69" x="194.53125"/>
       <use xlink:href="#TimesNewRomanPSMT-20" x="222.314453"/>
       <use xlink:href="#TimesNewRomanPSMT-52" x="247.314453"/>
       <use xlink:href="#TimesNewRomanPSMT-65" x="314.013672"/>
       <use xlink:href="#TimesNewRomanPSMT-73" x="358.398438"/>
       <use xlink:href="#TimesNewRomanPSMT-74" x="397.314453"/>
       <use xlink:href="#TimesNewRomanPSMT-61" x="425.097656"/>
       <use xlink:href="#TimesNewRomanPSMT-75" x="469.482422"/>
       <use xlink:href="#TimesNewRomanPSMT-72" x="519.482422"/>
       <use xlink:href="#TimesNewRomanPSMT-61" x="552.783203"/>
       <use xlink:href="#TimesNewRomanPSMT-6e" x="597.167969"/>
       <use xlink:href="#TimesNewRomanPSMT-74" x="647.167969"/>
       <use xlink:href="#TimesNewRomanPSMT-73" x="674.951172"/>
      </g>
     </g>
    </g>
    <g id="xtick_4">
     <g id="line2d_4">
      <g>
       <use xlink:href="#m2bc7ab46d6" x="380.615937" y="236.753596" style="stroke: #000000; stroke-width: 0.8"/>
      </g>
     </g>
     <g id="text_4">
      <!-- Bakeries -->
      <g transform="translate(349.113005 279.333442) rotate(-45) scale(0.12 -0.12)">
       <defs>
        <path id="TimesNewRomanPSMT-42" d="M 2956 2163 
Q 3397 2069 3616 1863 
Q 3919 1575 3919 1159 
Q 3919 844 3719 555 
Q 3519 266 3170 133 
Q 2822 0 2106 0 
L 106 0 
L 106 116 
L 266 116 
Q 531 116 647 284 
Q 719 394 719 750 
L 719 3488 
Q 719 3881 628 3984 
Q 506 4122 266 4122 
L 106 4122 
L 106 4238 
L 1938 4238 
Q 2450 4238 2759 4163 
Q 3228 4050 3475 3764 
Q 3722 3478 3722 3106 
Q 3722 2788 3528 2536 
Q 3334 2284 2956 2163 
z
M 1319 2331 
Q 1434 2309 1582 2298 
Q 1731 2288 1909 2288 
Q 2366 2288 2595 2386 
Q 2825 2484 2947 2687 
Q 3069 2891 3069 3131 
Q 3069 3503 2766 3765 
Q 2463 4028 1881 4028 
Q 1569 4028 1319 3959 
L 1319 2331 
z
M 1319 306 
Q 1681 222 2034 222 
Q 2600 222 2897 476 
Q 3194 731 3194 1106 
Q 3194 1353 3059 1581 
Q 2925 1809 2622 1940 
Q 2319 2072 1872 2072 
Q 1678 2072 1540 2065 
Q 1403 2059 1319 2044 
L 1319 306 
z
" transform="scale(0.015625)"/>
        <path id="TimesNewRomanPSMT-6b" d="M 1047 4444 
L 1047 1597 
L 1775 2259 
Q 2006 2472 2044 2528 
Q 2069 2566 2069 2603 
Q 2069 2666 2017 2711 
Q 1966 2756 1847 2763 
L 1847 2863 
L 3091 2863 
L 3091 2763 
Q 2834 2756 2664 2684 
Q 2494 2613 2291 2428 
L 1556 1750 
L 2291 822 
Q 2597 438 2703 334 
Q 2853 188 2966 144 
Q 3044 113 3238 113 
L 3238 0 
L 1847 0 
L 1847 113 
Q 1966 116 2008 148 
Q 2050 181 2050 241 
Q 2050 313 1925 472 
L 1047 1594 
L 1047 644 
Q 1047 366 1086 278 
Q 1125 191 1197 153 
Q 1269 116 1509 113 
L 1509 0 
L 53 0 
L 53 113 
Q 272 113 381 166 
Q 447 200 481 272 
Q 528 375 528 628 
L 528 3234 
Q 528 3731 506 3842 
Q 484 3953 434 3995 
Q 384 4038 303 4038 
Q 238 4038 106 3984 
L 53 4094 
L 903 4444 
L 1047 4444 
z
" transform="scale(0.015625)"/>
       </defs>
       <use xlink:href="#TimesNewRomanPSMT-42"/>
       <use xlink:href="#TimesNewRomanPSMT-61" x="66.699219"/>
       <use xlink:href="#TimesNewRomanPSMT-6b" x="111.083984"/>
       <use xlink:href="#TimesNewRomanPSMT-65" x="161.083984"/>
       <use xlink:href="#TimesNewRomanPSMT-72" x="205.46875"/>
       <use xlink:href="#TimesNewRomanPSMT-69" x="238.769531"/>
       <use xlink:href="#TimesNewRomanPSMT-65" x="266.552734"/>
       <use xlink:href="#TimesNewRomanPSMT-73" x="310.9375"/>
      </g>
     </g>
    </g>
   </g>
   <g id="matplotlib.axis_2">
    <g id="ytick_1">
     <g id="line2d_5">
      <defs>
       <path id="m0c146d4235" d="M 0 0 
L -3.5 0 
" style="stroke: #000000; stroke-width: 0.8"/>
      </defs>
      <g>
       <use xlink:href="#m0c146d4235" x="50.915938" y="216.111759" style="stroke: #000000; stroke-width: 0.8"/>
      </g>
     </g>
     <g id="text_5">
      <!-- 200 -->
      <g transform="translate(28.915938 219.583634) scale(0.1 -0.1)">
       <defs>
        <path id="TimesNewRomanPSMT-32" d="M 2934 816 
L 2638 0 
L 138 0 
L 138 116 
Q 1241 1122 1691 1759 
Q 2141 2397 2141 2925 
Q 2141 3328 1894 3587 
Q 1647 3847 1303 3847 
Q 991 3847 742 3664 
Q 494 3481 375 3128 
L 259 3128 
Q 338 3706 661 4015 
Q 984 4325 1469 4325 
Q 1984 4325 2329 3994 
Q 2675 3663 2675 3213 
Q 2675 2891 2525 2569 
Q 2294 2063 1775 1497 
Q 997 647 803 472 
L 1909 472 
Q 2247 472 2383 497 
Q 2519 522 2628 598 
Q 2738 675 2819 816 
L 2934 816 
z
" transform="scale(0.015625)"/>
        <path id="TimesNewRomanPSMT-30" d="M 231 2094 
Q 231 2819 450 3342 
Q 669 3866 1031 4122 
Q 1313 4325 1613 4325 
Q 2100 4325 2488 3828 
Q 2972 3213 2972 2159 
Q 2972 1422 2759 906 
Q 2547 391 2217 158 
Q 1888 -75 1581 -75 
Q 975 -75 572 641 
Q 231 1244 231 2094 
z
M 844 2016 
Q 844 1141 1059 588 
Q 1238 122 1591 122 
Q 1759 122 1940 273 
Q 2122 425 2216 781 
Q 2359 1319 2359 2297 
Q 2359 3022 2209 3506 
Q 2097 3866 1919 4016 
Q 1791 4119 1609 4119 
Q 1397 4119 1231 3928 
Q 1006 3669 925 3112 
Q 844 2556 844 2016 
z
" transform="scale(0.015625)"/>
       </defs>
       <use xlink:href="#TimesNewRomanPSMT-32"/>
       <use xlink:href="#TimesNewRomanPSMT-30" x="50"/>
       <use xlink:href="#TimesNewRomanPSMT-30" x="100"/>
      </g>
     </g>
    </g>
    <g id="ytick_2">
     <g id="line2d_6">
      <g>
       <use xlink:href="#m0c146d4235" x="50.915938" y="179.834364" style="stroke: #000000; stroke-width: 0.8"/>
      </g>
     </g>
     <g id="text_6">
      <!-- 400 -->
      <g transform="translate(28.915938 183.306239) scale(0.1 -0.1)">
       <defs>
        <path id="TimesNewRomanPSMT-34" d="M 2978 1563 
L 2978 1119 
L 2409 1119 
L 2409 0 
L 1894 0 
L 1894 1119 
L 100 1119 
L 100 1519 
L 2066 4325 
L 2409 4325 
L 2409 1563 
L 2978 1563 
z
M 1894 1563 
L 1894 3666 
L 406 1563 
L 1894 1563 
z
" transform="scale(0.015625)"/>
       </defs>
       <use xlink:href="#TimesNewRomanPSMT-34"/>
       <use xlink:href="#TimesNewRomanPSMT-30" x="50"/>
       <use xlink:href="#TimesNewRomanPSMT-30" x="100"/>
      </g>
     </g>
    </g>
    <g id="ytick_3">
     <g id="line2d_7">
      <g>
       <use xlink:href="#m0c146d4235" x="50.915938" y="143.556969" style="stroke: #000000; stroke-width: 0.8"/>
      </g>
     </g>
     <g id="text_7">
      <!-- 600 -->
      <g transform="translate(28.915938 147.028844) scale(0.1 -0.1)">
       <defs>
        <path id="TimesNewRomanPSMT-36" d="M 2869 4325 
L 2869 4209 
Q 2456 4169 2195 4045 
Q 1934 3922 1679 3669 
Q 1425 3416 1258 3105 
Q 1091 2794 978 2366 
Q 1428 2675 1881 2675 
Q 2316 2675 2634 2325 
Q 2953 1975 2953 1425 
Q 2953 894 2631 456 
Q 2244 -75 1606 -75 
Q 1172 -75 869 213 
Q 275 772 275 1663 
Q 275 2231 503 2743 
Q 731 3256 1154 3653 
Q 1578 4050 1965 4187 
Q 2353 4325 2688 4325 
L 2869 4325 
z
M 925 2138 
Q 869 1716 869 1456 
Q 869 1156 980 804 
Q 1091 453 1309 247 
Q 1469 100 1697 100 
Q 1969 100 2183 356 
Q 2397 613 2397 1088 
Q 2397 1622 2184 2012 
Q 1972 2403 1581 2403 
Q 1463 2403 1327 2353 
Q 1191 2303 925 2138 
z
" transform="scale(0.015625)"/>
       </defs>
       <use xlink:href="#TimesNewRomanPSMT-36"/>
       <use xlink:href="#TimesNewRomanPSMT-30" x="50"/>
       <use xlink:href="#TimesNewRomanPSMT-30" x="100"/>
      </g>
     </g>
    </g>
    <g id="ytick_4">
     <g id="line2d_8">
      <g>
       <use xlink:href="#m0c146d4235" x="50.915938" y="107.279574" style="stroke: #000000; stroke-width: 0.8"/>
      </g>
     </g>
     <g id="text_8">
      <!-- 800 -->
      <g transform="translate(28.915938 110.751449) scale(0.1 -0.1)">
       <defs>
        <path id="TimesNewRomanPSMT-38" d="M 1228 2134 
Q 725 2547 579 2797 
Q 434 3047 434 3316 
Q 434 3728 753 4026 
Q 1072 4325 1600 4325 
Q 2113 4325 2425 4047 
Q 2738 3769 2738 3413 
Q 2738 3175 2569 2928 
Q 2400 2681 1866 2347 
Q 2416 1922 2594 1678 
Q 2831 1359 2831 1006 
Q 2831 559 2490 242 
Q 2150 -75 1597 -75 
Q 994 -75 656 303 
Q 388 606 388 966 
Q 388 1247 577 1523 
Q 766 1800 1228 2134 
z
M 1719 2469 
Q 2094 2806 2194 3001 
Q 2294 3197 2294 3444 
Q 2294 3772 2109 3958 
Q 1925 4144 1606 4144 
Q 1288 4144 1088 3959 
Q 888 3775 888 3528 
Q 888 3366 970 3203 
Q 1053 3041 1206 2894 
L 1719 2469 
z
M 1375 2016 
Q 1116 1797 991 1539 
Q 866 1281 866 981 
Q 866 578 1086 336 
Q 1306 94 1647 94 
Q 1984 94 2187 284 
Q 2391 475 2391 747 
Q 2391 972 2272 1150 
Q 2050 1481 1375 2016 
z
" transform="scale(0.015625)"/>
       </defs>
       <use xlink:href="#TimesNewRomanPSMT-38"/>
       <use xlink:href="#TimesNewRomanPSMT-30" x="50"/>
       <use xlink:href="#TimesNewRomanPSMT-30" x="100"/>
      </g>
     </g>
    </g>
    <g id="ytick_5">
     <g id="line2d_9">
      <g>
       <use xlink:href="#m0c146d4235" x="50.915938" y="71.002179" style="stroke: #000000; stroke-width: 0.8"/>
      </g>
     </g>
     <g id="text_9">
      <!-- 1000 -->
      <g transform="translate(23.915938 74.474054) scale(0.1 -0.1)">
       <defs>
        <path id="TimesNewRomanPSMT-31" d="M 750 3822 
L 1781 4325 
L 1884 4325 
L 1884 747 
Q 1884 391 1914 303 
Q 1944 216 2037 169 
Q 2131 122 2419 116 
L 2419 0 
L 825 0 
L 825 116 
Q 1125 122 1212 167 
Q 1300 213 1334 289 
Q 1369 366 1369 747 
L 1369 3034 
Q 1369 3497 1338 3628 
Q 1316 3728 1258 3775 
Q 1200 3822 1119 3822 
Q 1003 3822 797 3725 
L 750 3822 
z
" transform="scale(0.015625)"/>
       </defs>
       <use xlink:href="#TimesNewRomanPSMT-31"/>
       <use xlink:href="#TimesNewRomanPSMT-30" x="50"/>
       <use xlink:href="#TimesNewRomanPSMT-30" x="100"/>
       <use xlink:href="#TimesNewRomanPSMT-30" x="150"/>
      </g>
     </g>
    </g>
    <g id="ytick_6">
     <g id="line2d_10">
      <g>
       <use xlink:href="#m0c146d4235" x="50.915938" y="34.724784" style="stroke: #000000; stroke-width: 0.8"/>
      </g>
     </g>
     <g id="text_10">
      <!-- 1200 -->
      <g transform="translate(23.915938 38.196659) scale(0.1 -0.1)">
       <use xlink:href="#TimesNewRomanPSMT-31"/>
       <use xlink:href="#TimesNewRomanPSMT-32" x="50"/>
       <use xlink:href="#TimesNewRomanPSMT-30" x="100"/>
       <use xlink:href="#TimesNewRomanPSMT-30" x="150"/>
      </g>
     </g>
    </g>
    <g id="text_11">
     <!-- million USD -->
     <g transform="translate(16.92125 169.376017) rotate(-90) scale(0.14 -0.14)">
      <defs>
       <path id="TimesNewRomanPSMT-55" d="M 3053 4122 
L 3053 4238 
L 4553 4238 
L 4553 4122 
L 4394 4122 
Q 4144 4122 4009 3913 
Q 3944 3816 3944 3463 
L 3944 1744 
Q 3944 1106 3817 754 
Q 3691 403 3320 151 
Q 2950 -100 2313 -100 
Q 1619 -100 1259 140 
Q 900 381 750 788 
Q 650 1066 650 1831 
L 650 3488 
Q 650 3878 542 4000 
Q 434 4122 194 4122 
L 34 4122 
L 34 4238 
L 1866 4238 
L 1866 4122 
L 1703 4122 
Q 1441 4122 1328 3956 
Q 1250 3844 1250 3488 
L 1250 1641 
Q 1250 1394 1295 1075 
Q 1341 756 1459 578 
Q 1578 400 1801 284 
Q 2025 169 2350 169 
Q 2766 169 3094 350 
Q 3422 531 3542 814 
Q 3663 1097 3663 1772 
L 3663 3488 
Q 3663 3884 3575 3984 
Q 3453 4122 3213 4122 
L 3053 4122 
z
" transform="scale(0.015625)"/>
       <path id="TimesNewRomanPSMT-44" d="M 109 0 
L 109 116 
L 269 116 
Q 538 116 650 288 
Q 719 391 719 750 
L 719 3488 
Q 719 3884 631 3984 
Q 509 4122 269 4122 
L 109 4122 
L 109 4238 
L 1834 4238 
Q 2784 4238 3279 4022 
Q 3775 3806 4076 3303 
Q 4378 2800 4378 2141 
Q 4378 1256 3841 663 
Q 3238 0 2003 0 
L 109 0 
z
M 1319 306 
Q 1716 219 1984 219 
Q 2709 219 3187 728 
Q 3666 1238 3666 2109 
Q 3666 2988 3187 3494 
Q 2709 4000 1959 4000 
Q 1678 4000 1319 3909 
L 1319 306 
z
" transform="scale(0.015625)"/>
      </defs>
      <use xlink:href="#TimesNewRomanPSMT-6d"/>
      <use xlink:href="#TimesNewRomanPSMT-69" x="77.783203"/>
      <use xlink:href="#TimesNewRomanPSMT-6c" x="105.566406"/>
      <use xlink:href="#TimesNewRomanPSMT-6c" x="133.349609"/>
      <use xlink:href="#TimesNewRomanPSMT-69" x="161.132812"/>
      <use xlink:href="#TimesNewRomanPSMT-6f" x="188.916016"/>
      <use xlink:href="#TimesNewRomanPSMT-6e" x="238.916016"/>
      <use xlink:href="#TimesNewRomanPSMT-20" x="288.916016"/>
      <use xlink:href="#TimesNewRomanPSMT-55" x="313.916016"/>
      <use xlink:href="#TimesNewRomanPSMT-53" x="386.132812"/>
      <use xlink:href="#TimesNewRomanPSMT-44" x="441.748047"/>
     </g>
    </g>
   </g>
   <g id="patch_3">
    <path d="M 92.363937 179.290203 
L 103.667937 179.290203 
L 103.667937 152.989091 
L 92.363937 152.989091 
L 92.363937 179.290203 
L 92.363937 179.290203 
z
" clip-path="url(#p4c9c9b667f)" style="fill: none; stroke: #000000; stroke-linejoin: miter"/>
   </g>
   <g id="line2d_11">
    <path d="M 98.015938 179.290203 
L 98.015938 211.577084 
" clip-path="url(#p4c9c9b667f)" style="fill: none; stroke: #000000; stroke-linecap: square"/>
   </g>
   <g id="line2d_12">
    <path d="M 98.015938 152.989091 
L 98.015938 119.613888 
" clip-path="url(#p4c9c9b667f)" style="fill: none; stroke: #000000; stroke-linecap: square"/>
   </g>
   <g id="line2d_13">
    <path d="M 95.189937 211.577084 
L 100.841938 211.577084 
" clip-path="url(#p4c9c9b667f)" style="fill: none; stroke: #000000; stroke-linecap: square"/>
   </g>
   <g id="line2d_14">
    <path d="M 95.189937 119.613888 
L 100.841938 119.613888 
" clip-path="url(#p4c9c9b667f)" style="fill: none; stroke: #000000; stroke-linecap: square"/>
   </g>
   <g id="patch_4">
    <path d="M 186.563937 157.523766 
L 197.867938 157.523766 
L 197.867938 122.153306 
L 186.563937 122.153306 
L 186.563937 157.523766 
L 186.563937 157.523766 
z
" clip-path="url(#p4c9c9b667f)" style="fill: none; stroke: #000000; stroke-linejoin: miter"/>
   </g>
   <g id="line2d_15">
    <path d="M 192.215937 157.523766 
L 192.215937 206.135475 
" clip-path="url(#p4c9c9b667f)" style="fill: none; stroke: #000000; stroke-linecap: square"/>
   </g>
   <g id="line2d_16">
    <path d="M 192.215937 122.153306 
L 192.215937 76.081014 
" clip-path="url(#p4c9c9b667f)" style="fill: none; stroke: #000000; stroke-linecap: square"/>
   </g>
   <g id="line2d_17">
    <path d="M 189.389938 206.135475 
L 195.041937 206.135475 
" clip-path="url(#p4c9c9b667f)" style="fill: none; stroke: #000000; stroke-linecap: square"/>
   </g>
   <g id="line2d_18">
    <path d="M 189.389938 76.081014 
L 195.041937 76.081014 
" clip-path="url(#p4c9c9b667f)" style="fill: none; stroke: #000000; stroke-linecap: square"/>
   </g>
   <g id="patch_5">
    <path d="M 280.763937 153.351865 
L 292.067937 153.351865 
L 292.067937 128.683237 
L 280.763937 128.683237 
L 280.763937 153.351865 
L 280.763937 153.351865 
z
" clip-path="url(#p4c9c9b667f)" style="fill: none; stroke: #000000; stroke-linejoin: miter"/>
   </g>
   <g id="line2d_19">
    <path d="M 286.415937 153.351865 
L 286.415937 183.280716 
" clip-path="url(#p4c9c9b667f)" style="fill: none; stroke: #000000; stroke-linecap: square"/>
   </g>
   <g id="line2d_20">
    <path d="M 286.415937 128.683237 
L 286.415937 94.038325 
" clip-path="url(#p4c9c9b667f)" style="fill: none; stroke: #000000; stroke-linecap: square"/>
   </g>
   <g id="line2d_21">
    <path d="M 283.589938 183.280716 
L 289.241937 183.280716 
" clip-path="url(#p4c9c9b667f)" style="fill: none; stroke: #000000; stroke-linecap: square"/>
   </g>
   <g id="line2d_22">
    <path d="M 283.589938 94.038325 
L 289.241937 94.038325 
" clip-path="url(#p4c9c9b667f)" style="fill: none; stroke: #000000; stroke-linecap: square"/>
   </g>
   <g id="patch_6">
    <path d="M 374.963937 172.216111 
L 386.267937 172.216111 
L 386.267937 150.449674 
L 374.963937 150.449674 
L 374.963937 172.216111 
L 374.963937 172.216111 
z
" clip-path="url(#p4c9c9b667f)" style="fill: none; stroke: #000000; stroke-linejoin: miter"/>
   </g>
   <g id="line2d_23">
    <path d="M 380.615937 172.216111 
L 380.615937 199.968318 
" clip-path="url(#p4c9c9b667f)" style="fill: none; stroke: #000000; stroke-linecap: square"/>
   </g>
   <g id="line2d_24">
    <path d="M 380.615937 150.449674 
L 380.615937 122.697467 
" clip-path="url(#p4c9c9b667f)" style="fill: none; stroke: #000000; stroke-linecap: square"/>
   </g>
   <g id="line2d_25">
    <path d="M 377.789938 199.968318 
L 383.441937 199.968318 
" clip-path="url(#p4c9c9b667f)" style="fill: none; stroke: #000000; stroke-linecap: square"/>
   </g>
   <g id="line2d_26">
    <path d="M 377.789938 122.697467 
L 383.441937 122.697467 
" clip-path="url(#p4c9c9b667f)" style="fill: none; stroke: #000000; stroke-linecap: square"/>
   </g>
   <g id="line2d_27">
    <path d="M 92.363937 165.867567 
L 103.667937 165.867567 
" clip-path="url(#p4c9c9b667f)" style="fill: none; stroke: #000000; stroke-width: 1.5; stroke-linecap: square"/>
   </g>
   <g id="line2d_28">
    <path d="M 186.563937 141.198938 
L 197.867938 141.198938 
" clip-path="url(#p4c9c9b667f)" style="fill: none; stroke: #000000; stroke-width: 1.5; stroke-linecap: square"/>
   </g>
   <g id="line2d_29">
    <path d="M 280.763937 141.380325 
L 292.067937 141.380325 
" clip-path="url(#p4c9c9b667f)" style="fill: none; stroke: #000000; stroke-width: 1.5; stroke-linecap: square"/>
   </g>
   <g id="line2d_30">
    <path d="M 374.963937 160.970118 
L 386.267937 160.970118 
" clip-path="url(#p4c9c9b667f)" style="fill: none; stroke: #000000; stroke-width: 1.5; stroke-linecap: square"/>
   </g>
   <g id="patch_7">
    <path d="M 50.915938 236.753596 
L 50.915938 30.045 
" style="fill: none; stroke: #000000; stroke-linejoin: miter; stroke-linecap: square"/>
   </g>
   <g id="patch_8">
    <path d="M 427.715937 236.753596 
L 427.715937 30.045 
" style="fill: none; stroke: #000000; stroke-linejoin: miter; stroke-linecap: square"/>
   </g>
   <g id="patch_9">
    <path d="M 50.915938 236.753596 
L 427.715937 236.753596 
" style="fill: none; stroke: #000000; stroke-linejoin: miter; stroke-linecap: square"/>
   </g>
   <g id="patch_10">
    <path d="M 50.915938 30.045 
L 427.715937 30.045 
" style="fill: none; stroke: #000000; stroke-linejoin: miter; stroke-linecap: square"/>
   </g>
   <g id="text_12">
    <!-- Data on the sales by food and beverage sectors (million USD) -->
    <g transform="translate(31.769687 18.045) scale(0.16 -0.16)">
     <defs>
      <path id="TimesNewRomanPS-BoldMT-44" d="M 84 0 
L 84 116 
L 225 116 
Q 409 116 507 173 
Q 606 231 653 331 
Q 681 397 681 725 
L 681 3513 
Q 681 3838 647 3919 
Q 613 4000 508 4061 
Q 403 4122 225 4122 
L 84 4122 
L 84 4238 
L 1981 4238 
Q 2741 4238 3203 4031 
Q 3769 3778 4061 3265 
Q 4353 2753 4353 2106 
Q 4353 1659 4209 1282 
Q 4066 906 3837 661 
Q 3609 416 3311 267 
Q 3013 119 2581 38 
Q 2391 0 1981 0 
L 84 0 
z
M 1700 3997 
L 1700 691 
Q 1700 428 1725 368 
Q 1750 309 1809 278 
Q 1894 231 2053 231 
Q 2575 231 2850 588 
Q 3225 1069 3225 2081 
Q 3225 2897 2969 3384 
Q 2766 3766 2447 3903 
Q 2222 4000 1700 3997 
z
" transform="scale(0.015625)"/>
      <path id="TimesNewRomanPS-BoldMT-61" d="M 1828 431 
Q 1294 -41 869 -41 
Q 619 -41 453 123 
Q 288 288 288 534 
Q 288 869 575 1136 
Q 863 1403 1828 1847 
L 1828 2141 
Q 1828 2472 1792 2558 
Q 1756 2644 1656 2708 
Q 1556 2772 1431 2772 
Q 1228 2772 1097 2681 
Q 1016 2625 1016 2550 
Q 1016 2484 1103 2388 
Q 1222 2253 1222 2128 
Q 1222 1975 1108 1867 
Q 994 1759 809 1759 
Q 613 1759 480 1878 
Q 347 1997 347 2156 
Q 347 2381 525 2586 
Q 703 2791 1022 2900 
Q 1341 3009 1684 3009 
Q 2100 3009 2342 2832 
Q 2584 2656 2656 2450 
Q 2700 2319 2700 1847 
L 2700 713 
Q 2700 513 2715 461 
Q 2731 409 2762 384 
Q 2794 359 2834 359 
Q 2916 359 3000 475 
L 3094 400 
Q 2938 169 2770 64 
Q 2603 -41 2391 -41 
Q 2141 -41 2000 76 
Q 1859 194 1828 431 
z
M 1828 659 
L 1828 1638 
Q 1450 1416 1266 1163 
Q 1144 994 1144 822 
Q 1144 678 1247 569 
Q 1325 484 1466 484 
Q 1622 484 1828 659 
z
" transform="scale(0.015625)"/>
      <path id="TimesNewRomanPS-BoldMT-74" d="M 1375 3991 
L 1375 2922 
L 2069 2922 
L 2069 2613 
L 1375 2613 
L 1375 809 
Q 1375 556 1398 482 
Q 1422 409 1481 364 
Q 1541 319 1591 319 
Q 1794 319 1975 628 
L 2069 559 
Q 1816 -41 1247 -41 
Q 969 -41 776 114 
Q 584 269 531 459 
Q 500 566 500 1034 
L 500 2613 
L 119 2613 
L 119 2722 
Q 513 3000 789 3306 
Q 1066 3613 1272 3991 
L 1375 3991 
z
" transform="scale(0.015625)"/>
      <path id="TimesNewRomanPS-BoldMT-20" transform="scale(0.015625)"/>
      <path id="TimesNewRomanPS-BoldMT-6f" d="M 1594 3009 
Q 1975 3009 2303 2812 
Q 2631 2616 2801 2253 
Q 2972 1891 2972 1459 
Q 2972 838 2656 419 
Q 2275 -88 1603 -88 
Q 944 -88 587 375 
Q 231 838 231 1447 
Q 231 2075 595 2542 
Q 959 3009 1594 3009 
z
M 1606 2788 
Q 1447 2788 1333 2667 
Q 1219 2547 1183 2192 
Q 1147 1838 1147 1206 
Q 1147 872 1191 581 
Q 1225 359 1337 243 
Q 1450 128 1594 128 
Q 1734 128 1828 206 
Q 1950 313 1991 503 
Q 2053 800 2053 1703 
Q 2053 2234 1993 2432 
Q 1934 2631 1819 2722 
Q 1738 2788 1606 2788 
z
" transform="scale(0.015625)"/>
      <path id="TimesNewRomanPS-BoldMT-6e" d="M 1409 2922 
L 1409 2544 
Q 1634 2788 1840 2898 
Q 2047 3009 2284 3009 
Q 2569 3009 2756 2851 
Q 2944 2694 3006 2459 
Q 3056 2281 3056 1775 
L 3056 638 
Q 3056 300 3117 217 
Q 3178 134 3372 113 
L 3372 0 
L 1894 0 
L 1894 113 
Q 2059 134 2131 250 
Q 2181 328 2181 638 
L 2181 1938 
Q 2181 2297 2153 2390 
Q 2125 2484 2058 2536 
Q 1991 2588 1909 2588 
Q 1641 2588 1409 2203 
L 1409 638 
Q 1409 309 1470 221 
Q 1531 134 1697 113 
L 1697 0 
L 219 0 
L 219 113 
Q 403 131 481 231 
Q 534 300 534 638 
L 534 2288 
Q 534 2619 473 2700 
Q 413 2781 219 2806 
L 219 2922 
L 1409 2922 
z
" transform="scale(0.015625)"/>
      <path id="TimesNewRomanPS-BoldMT-68" d="M 1409 4238 
L 1409 2547 
Q 1650 2800 1850 2904 
Q 2050 3009 2266 3009 
Q 2541 3009 2736 2853 
Q 2931 2697 2995 2486 
Q 3059 2275 3059 1775 
L 3059 634 
Q 3059 300 3121 217 
Q 3184 134 3375 113 
L 3375 0 
L 1894 0 
L 1894 113 
Q 2050 134 2128 238 
Q 2184 319 2184 634 
L 2184 1938 
Q 2184 2300 2156 2392 
Q 2128 2484 2061 2536 
Q 1994 2588 1909 2588 
Q 1784 2588 1665 2502 
Q 1547 2416 1409 2200 
L 1409 634 
Q 1409 322 1456 244 
Q 1516 138 1700 113 
L 1700 0 
L 219 0 
L 219 113 
Q 403 131 481 231 
Q 534 300 534 634 
L 534 3603 
Q 534 3934 473 4015 
Q 413 4097 219 4122 
L 219 4238 
L 1409 4238 
z
" transform="scale(0.015625)"/>
      <path id="TimesNewRomanPS-BoldMT-65" d="M 2691 1566 
L 1088 1566 
Q 1116 984 1397 647 
Q 1613 388 1916 388 
Q 2103 388 2256 492 
Q 2409 597 2584 869 
L 2691 800 
Q 2453 316 2165 114 
Q 1878 -88 1500 -88 
Q 850 -88 516 413 
Q 247 816 247 1413 
Q 247 2144 642 2576 
Q 1038 3009 1569 3009 
Q 2013 3009 2339 2645 
Q 2666 2281 2691 1566 
z
M 1922 1775 
Q 1922 2278 1867 2465 
Q 1813 2653 1697 2750 
Q 1631 2806 1522 2806 
Q 1359 2806 1256 2647 
Q 1072 2369 1072 1884 
L 1072 1775 
L 1922 1775 
z
" transform="scale(0.015625)"/>
      <path id="TimesNewRomanPS-BoldMT-73" d="M 2063 3003 
L 2109 2006 
L 2003 2006 
Q 1813 2450 1608 2612 
Q 1403 2775 1200 2775 
Q 1072 2775 981 2689 
Q 891 2603 891 2491 
Q 891 2406 953 2328 
Q 1053 2200 1512 1889 
Q 1972 1578 2117 1361 
Q 2263 1144 2263 875 
Q 2263 631 2141 397 
Q 2019 163 1797 37 
Q 1575 -88 1306 -88 
Q 1097 -88 747 44 
Q 653 78 619 78 
Q 516 78 447 -78 
L 344 -78 
L 294 972 
L 400 972 
Q 541 559 786 353 
Q 1031 147 1250 147 
Q 1400 147 1495 239 
Q 1591 331 1591 463 
Q 1591 613 1497 722 
Q 1403 831 1078 1053 
Q 600 1384 459 1559 
Q 253 1816 253 2125 
Q 253 2463 486 2736 
Q 719 3009 1159 3009 
Q 1397 3009 1619 2894 
Q 1703 2847 1756 2847 
Q 1813 2847 1847 2870 
Q 1881 2894 1956 3003 
L 2063 3003 
z
" transform="scale(0.015625)"/>
      <path id="TimesNewRomanPS-BoldMT-6c" d="M 1359 4238 
L 1359 606 
Q 1359 297 1431 211 
Q 1503 125 1713 113 
L 1713 0 
L 134 0 
L 134 113 
Q 328 119 422 225 
Q 484 297 484 606 
L 484 3631 
Q 484 3938 412 4023 
Q 341 4109 134 4122 
L 134 4238 
L 1359 4238 
z
" transform="scale(0.015625)"/>
      <path id="TimesNewRomanPS-BoldMT-62" d="M 1347 4238 
L 1347 2628 
Q 1716 3009 2153 3009 
Q 2453 3009 2718 2832 
Q 2984 2656 3134 2331 
Q 3284 2006 3284 1581 
Q 3284 1103 3093 712 
Q 2903 322 2584 117 
Q 2266 -88 1856 -88 
Q 1619 -88 1434 -12 
Q 1250 63 1072 231 
L 588 -84 
L 481 -84 
L 481 3631 
Q 481 3884 459 3944 
Q 428 4031 361 4073 
Q 294 4116 134 4122 
L 134 4238 
L 1347 4238 
z
M 1347 2350 
L 1347 1050 
Q 1347 653 1366 544 
Q 1397 359 1515 245 
Q 1634 131 1819 131 
Q 1978 131 2092 222 
Q 2206 313 2282 581 
Q 2359 850 2359 1550 
Q 2359 2222 2191 2472 
Q 2069 2653 1863 2653 
Q 1594 2653 1347 2350 
z
" transform="scale(0.015625)"/>
      <path id="TimesNewRomanPS-BoldMT-79" d="M 1556 -119 
L 613 2047 
Q 400 2538 298 2650 
Q 197 2763 53 2806 
L 53 2922 
L 1606 2922 
L 1606 2806 
Q 1453 2800 1390 2747 
Q 1328 2694 1328 2619 
Q 1328 2500 1484 2150 
L 1984 1006 
L 2325 1891 
Q 2509 2363 2509 2547 
Q 2509 2663 2432 2731 
Q 2356 2800 2163 2806 
L 2163 2922 
L 3141 2922 
L 3141 2806 
Q 2997 2791 2906 2695 
Q 2816 2600 2603 2047 
L 1769 -119 
Q 1453 -931 1300 -1119 
Q 1084 -1381 759 -1381 
Q 500 -1381 339 -1232 
Q 178 -1084 178 -875 
Q 178 -694 289 -575 
Q 400 -456 563 -456 
Q 719 -456 814 -556 
Q 909 -656 913 -866 
Q 916 -984 941 -1019 
Q 966 -1053 1013 -1053 
Q 1088 -1053 1172 -963 
Q 1297 -831 1466 -363 
L 1556 -119 
z
" transform="scale(0.015625)"/>
      <path id="TimesNewRomanPS-BoldMT-66" d="M 1497 2616 
L 1497 588 
Q 1497 294 1559 219 
Q 1659 103 1928 113 
L 1928 0 
L 206 0 
L 206 113 
Q 403 116 486 158 
Q 569 200 600 275 
Q 631 350 631 588 
L 631 2616 
L 206 2616 
L 206 2922 
L 631 2922 
L 631 3138 
L 628 3284 
Q 628 3734 958 4034 
Q 1288 4334 1850 4334 
Q 2234 4334 2420 4190 
Q 2606 4047 2606 3872 
Q 2606 3731 2490 3628 
Q 2375 3525 2184 3525 
Q 2022 3525 1926 3609 
Q 1831 3694 1831 3797 
Q 1831 3825 1850 3913 
Q 1863 3966 1863 4013 
Q 1863 4078 1825 4109 
Q 1775 4156 1703 4156 
Q 1613 4156 1552 4081 
Q 1491 4006 1491 3841 
L 1497 3294 
L 1497 2922 
L 1928 2922 
L 1928 2616 
L 1497 2616 
z
" transform="scale(0.015625)"/>
      <path id="TimesNewRomanPS-BoldMT-64" d="M 3056 4238 
L 3056 875 
Q 3056 534 3075 472 
Q 3100 369 3170 319 
Q 3241 269 3416 256 
L 3416 153 
L 2181 -88 
L 2181 375 
Q 1959 106 1786 9 
Q 1613 -88 1394 -88 
Q 834 -88 509 413 
Q 247 819 247 1409 
Q 247 1881 409 2254 
Q 572 2628 855 2818 
Q 1138 3009 1463 3009 
Q 1672 3009 1834 2928 
Q 1997 2847 2181 2644 
L 2181 3525 
Q 2181 3859 2153 3928 
Q 2116 4019 2041 4062 
Q 1966 4106 1759 4106 
L 1759 4238 
L 3056 4238 
z
M 2181 2256 
Q 1950 2700 1616 2700 
Q 1500 2700 1425 2638 
Q 1309 2541 1236 2297 
Q 1163 2053 1163 1550 
Q 1163 997 1244 731 
Q 1325 466 1466 347 
Q 1538 288 1663 288 
Q 1938 288 2181 719 
L 2181 2256 
z
" transform="scale(0.015625)"/>
      <path id="TimesNewRomanPS-BoldMT-76" d="M 1534 -88 
L 550 2178 
Q 372 2588 272 2697 
Q 200 2778 59 2806 
L 59 2922 
L 1613 2922 
L 1613 2806 
Q 1466 2806 1413 2753 
Q 1338 2684 1338 2591 
Q 1338 2475 1475 2156 
L 1956 1059 
L 2341 2006 
Q 2506 2413 2506 2581 
Q 2506 2678 2436 2739 
Q 2366 2800 2188 2806 
L 2188 2922 
L 3144 2922 
L 3144 2806 
Q 3006 2788 2918 2703 
Q 2831 2619 2656 2206 
L 1681 -88 
L 1534 -88 
z
" transform="scale(0.015625)"/>
      <path id="TimesNewRomanPS-BoldMT-72" d="M 1428 2922 
L 1428 2259 
Q 1719 2713 1937 2861 
Q 2156 3009 2359 3009 
Q 2534 3009 2639 2901 
Q 2744 2794 2744 2597 
Q 2744 2388 2642 2272 
Q 2541 2156 2397 2156 
Q 2231 2156 2109 2262 
Q 1988 2369 1966 2381 
Q 1934 2400 1894 2400 
Q 1803 2400 1722 2331 
Q 1594 2225 1528 2028 
Q 1428 1725 1428 1359 
L 1428 688 
L 1431 513 
Q 1431 334 1453 284 
Q 1491 200 1564 161 
Q 1638 122 1813 113 
L 1813 0 
L 234 0 
L 234 113 
Q 425 128 492 217 
Q 559 306 559 688 
L 559 2303 
Q 559 2553 534 2622 
Q 503 2709 443 2750 
Q 384 2791 234 2806 
L 234 2922 
L 1428 2922 
z
" transform="scale(0.015625)"/>
      <path id="TimesNewRomanPS-BoldMT-67" d="M 2091 2888 
L 3075 2888 
L 3075 2544 
L 2516 2544 
Q 2669 2391 2728 2266 
Q 2803 2097 2803 1913 
Q 2803 1600 2629 1370 
Q 2456 1141 2157 1011 
Q 1859 881 1628 881 
Q 1609 881 1253 897 
Q 1113 897 1017 805 
Q 922 713 922 584 
Q 922 472 1008 400 
Q 1094 328 1288 328 
L 1828 334 
Q 2484 334 2731 191 
Q 3084 -9 3084 -425 
Q 3084 -691 2921 -908 
Q 2759 -1125 2494 -1228 
Q 2091 -1381 1566 -1381 
Q 1172 -1381 847 -1304 
Q 522 -1228 381 -1092 
Q 241 -956 241 -806 
Q 241 -663 348 -548 
Q 456 -434 750 -356 
Q 344 -156 344 200 
Q 344 416 509 619 
Q 675 822 1034 972 
Q 616 1125 428 1375 
Q 241 1625 241 1953 
Q 241 2381 591 2695 
Q 941 3009 1491 3009 
Q 1781 3009 2091 2888 
z
M 1550 2816 
Q 1369 2816 1244 2633 
Q 1119 2450 1119 1875 
Q 1119 1409 1242 1236 
Q 1366 1063 1534 1063 
Q 1722 1063 1847 1234 
Q 1972 1406 1972 1903 
Q 1972 2463 1831 2666 
Q 1731 2816 1550 2816 
z
M 1366 -431 
Q 1047 -431 944 -484 
Q 766 -581 766 -747 
Q 766 -906 950 -1036 
Q 1134 -1166 1644 -1166 
Q 2078 -1166 2326 -1050 
Q 2575 -934 2575 -725 
Q 2575 -647 2528 -594 
Q 2444 -500 2273 -465 
Q 2103 -431 1366 -431 
z
" transform="scale(0.015625)"/>
      <path id="TimesNewRomanPS-BoldMT-63" d="M 2600 753 
L 2697 678 
Q 2491 291 2183 101 
Q 1875 -88 1528 -88 
Q 944 -88 594 353 
Q 244 794 244 1413 
Q 244 2009 563 2463 
Q 947 3009 1622 3009 
Q 2075 3009 2342 2781 
Q 2609 2553 2609 2272 
Q 2609 2094 2501 1987 
Q 2394 1881 2219 1881 
Q 2034 1881 1914 2003 
Q 1794 2125 1766 2438 
Q 1747 2634 1675 2713 
Q 1603 2791 1506 2791 
Q 1356 2791 1250 2631 
Q 1088 2391 1088 1894 
Q 1088 1481 1219 1104 
Q 1350 728 1578 544 
Q 1750 409 1984 409 
Q 2138 409 2275 481 
Q 2413 553 2600 753 
z
" transform="scale(0.015625)"/>
      <path id="TimesNewRomanPS-BoldMT-28" d="M 2056 4334 
L 2056 4191 
Q 1731 3978 1578 3775 
Q 1366 3494 1247 3053 
Q 1097 2506 1097 1525 
Q 1097 600 1233 87 
Q 1369 -425 1603 -741 
Q 1766 -959 2056 -1125 
L 2056 -1281 
Q 1303 -1028 779 -248 
Q 256 531 256 1544 
Q 256 2544 778 3314 
Q 1300 4084 2056 4334 
z
" transform="scale(0.015625)"/>
      <path id="TimesNewRomanPS-BoldMT-6d" d="M 1428 2922 
L 1428 2538 
Q 1669 2800 1873 2904 
Q 2078 3009 2322 3009 
Q 2603 3009 2793 2878 
Q 2984 2747 3088 2478 
Q 3338 2759 3567 2884 
Q 3797 3009 4047 3009 
Q 4350 3009 4529 2870 
Q 4709 2731 4779 2517 
Q 4850 2303 4850 1834 
L 4850 638 
Q 4850 300 4911 219 
Q 4972 138 5166 113 
L 5166 0 
L 3656 0 
L 3656 113 
Q 3834 128 3919 250 
Q 3975 334 3975 638 
L 3975 1894 
Q 3975 2284 3944 2390 
Q 3913 2497 3845 2548 
Q 3778 2600 3688 2600 
Q 3553 2600 3415 2501 
Q 3278 2403 3138 2206 
L 3138 638 
Q 3138 322 3191 241 
Q 3263 125 3466 113 
L 3466 0 
L 1953 0 
L 1953 113 
Q 2075 119 2145 173 
Q 2216 228 2239 304 
Q 2263 381 2263 638 
L 2263 1894 
Q 2263 2291 2231 2391 
Q 2200 2491 2126 2547 
Q 2053 2603 1969 2603 
Q 1844 2603 1741 2538 
Q 1594 2441 1428 2206 
L 1428 638 
Q 1428 328 1489 229 
Q 1550 131 1744 113 
L 1744 0 
L 238 0 
L 238 113 
Q 422 131 500 231 
Q 553 300 553 638 
L 553 2288 
Q 553 2619 492 2700 
Q 431 2781 238 2806 
L 238 2922 
L 1428 2922 
z
" transform="scale(0.015625)"/>
      <path id="TimesNewRomanPS-BoldMT-69" d="M 919 4338 
Q 1122 4338 1262 4195 
Q 1403 4053 1403 3853 
Q 1403 3653 1261 3512 
Q 1119 3372 919 3372 
Q 719 3372 578 3512 
Q 438 3653 438 3853 
Q 438 4053 578 4195 
Q 719 4338 919 4338 
z
M 1356 2922 
L 1356 606 
Q 1356 297 1428 211 
Q 1500 125 1709 113 
L 1709 0 
L 131 0 
L 131 113 
Q 325 119 419 225 
Q 481 297 481 606 
L 481 2313 
Q 481 2622 409 2708 
Q 338 2794 131 2806 
L 131 2922 
L 1356 2922 
z
" transform="scale(0.015625)"/>
      <path id="TimesNewRomanPS-BoldMT-55" d="M 150 4238 
L 2338 4238 
L 2338 4122 
L 2228 4122 
Q 1981 4122 1889 4070 
Q 1797 4019 1758 3928 
Q 1719 3838 1719 3475 
L 1719 1400 
Q 1719 831 1805 647 
Q 1891 463 2087 341 
Q 2284 219 2584 219 
Q 2928 219 3170 373 
Q 3413 528 3533 800 
Q 3653 1072 3653 1747 
L 3653 3475 
Q 3653 3759 3593 3881 
Q 3534 4003 3444 4050 
Q 3303 4122 3047 4122 
L 3047 4238 
L 4513 4238 
L 4513 4122 
L 4425 4122 
Q 4247 4122 4128 4050 
Q 4009 3978 3956 3834 
Q 3916 3734 3916 3475 
L 3916 1866 
Q 3916 1119 3817 787 
Q 3719 456 3337 178 
Q 2956 -100 2297 -100 
Q 1747 -100 1447 47 
Q 1038 247 869 559 
Q 700 872 700 1400 
L 700 3475 
Q 700 3841 659 3930 
Q 619 4019 519 4072 
Q 419 4125 150 4122 
L 150 4238 
z
" transform="scale(0.015625)"/>
      <path id="TimesNewRomanPS-BoldMT-53" d="M 3006 4334 
L 3041 2922 
L 2913 2922 
Q 2822 3453 2467 3776 
Q 2113 4100 1700 4100 
Q 1381 4100 1195 3929 
Q 1009 3759 1009 3538 
Q 1009 3397 1075 3288 
Q 1166 3141 1366 2997 
Q 1513 2894 2044 2631 
Q 2788 2266 3047 1941 
Q 3303 1616 3303 1197 
Q 3303 666 2889 283 
Q 2475 -100 1838 -100 
Q 1638 -100 1459 -59 
Q 1281 -19 1013 94 
Q 863 156 766 156 
Q 684 156 593 93 
Q 503 31 447 -97 
L 331 -97 
L 331 1503 
L 447 1503 
Q 584 828 976 473 
Q 1369 119 1822 119 
Q 2172 119 2380 309 
Q 2588 500 2588 753 
Q 2588 903 2508 1043 
Q 2428 1184 2265 1311 
Q 2103 1438 1691 1641 
Q 1113 1925 859 2125 
Q 606 2325 470 2572 
Q 334 2819 334 3116 
Q 334 3622 706 3978 
Q 1078 4334 1644 4334 
Q 1850 4334 2044 4284 
Q 2191 4247 2402 4145 
Q 2613 4044 2697 4044 
Q 2778 4044 2825 4094 
Q 2872 4144 2913 4334 
L 3006 4334 
z
" transform="scale(0.015625)"/>
      <path id="TimesNewRomanPS-BoldMT-29" d="M 78 -1281 
L 78 -1138 
Q 403 -922 556 -719 
Q 766 -438 888 0 
Q 1038 550 1038 1531 
Q 1038 2456 902 2967 
Q 766 3478 531 3794 
Q 369 4013 78 4178 
L 78 4334 
Q 831 4081 1354 3301 
Q 1878 2522 1878 1509 
Q 1878 513 1354 -257 
Q 831 -1028 78 -1281 
z
" transform="scale(0.015625)"/>
     </defs>
     <use xlink:href="#TimesNewRomanPS-BoldMT-44"/>
     <use xlink:href="#TimesNewRomanPS-BoldMT-61" x="72.216797"/>
     <use xlink:href="#TimesNewRomanPS-BoldMT-74" x="122.216797"/>
     <use xlink:href="#TimesNewRomanPS-BoldMT-61" x="155.517578"/>
     <use xlink:href="#TimesNewRomanPS-BoldMT-20" x="205.517578"/>
     <use xlink:href="#TimesNewRomanPS-BoldMT-6f" x="230.517578"/>
     <use xlink:href="#TimesNewRomanPS-BoldMT-6e" x="280.517578"/>
     <use xlink:href="#TimesNewRomanPS-BoldMT-20" x="336.132812"/>
     <use xlink:href="#TimesNewRomanPS-BoldMT-74" x="361.132812"/>
     <use xlink:href="#TimesNewRomanPS-BoldMT-68" x="394.433594"/>
     <use xlink:href="#TimesNewRomanPS-BoldMT-65" x="450.048828"/>
     <use xlink:href="#TimesNewRomanPS-BoldMT-20" x="494.433594"/>
     <use xlink:href="#TimesNewRomanPS-BoldMT-73" x="519.433594"/>
     <use xlink:href="#TimesNewRomanPS-BoldMT-61" x="558.349609"/>
     <use xlink:href="#TimesNewRomanPS-BoldMT-6c" x="608.349609"/>
     <use xlink:href="#TimesNewRomanPS-BoldMT-65" x="636.132812"/>
     <use xlink:href="#TimesNewRomanPS-BoldMT-73" x="680.517578"/>
     <use xlink:href="#TimesNewRomanPS-BoldMT-20" x="719.433594"/>
     <use xlink:href="#TimesNewRomanPS-BoldMT-62" x="744.433594"/>
     <use xlink:href="#TimesNewRomanPS-BoldMT-79" x="800.048828"/>
     <use xlink:href="#TimesNewRomanPS-BoldMT-20" x="850.048828"/>
     <use xlink:href="#TimesNewRomanPS-BoldMT-66" x="875.048828"/>
     <use xlink:href="#TimesNewRomanPS-BoldMT-6f" x="908.349609"/>
     <use xlink:href="#TimesNewRomanPS-BoldMT-6f" x="958.349609"/>
     <use xlink:href="#TimesNewRomanPS-BoldMT-64" x="1008.349609"/>
     <use xlink:href="#TimesNewRomanPS-BoldMT-20" x="1063.964844"/>
     <use xlink:href="#TimesNewRomanPS-BoldMT-61" x="1088.964844"/>
     <use xlink:href="#TimesNewRomanPS-BoldMT-6e" x="1138.964844"/>
     <use xlink:href="#TimesNewRomanPS-BoldMT-64" x="1194.580078"/>
     <use xlink:href="#TimesNewRomanPS-BoldMT-20" x="1250.195312"/>
     <use xlink:href="#TimesNewRomanPS-BoldMT-62" x="1275.195312"/>
     <use xlink:href="#TimesNewRomanPS-BoldMT-65" x="1330.810547"/>
     <use xlink:href="#TimesNewRomanPS-BoldMT-76" x="1375.195312"/>
     <use xlink:href="#TimesNewRomanPS-BoldMT-65" x="1425.195312"/>
     <use xlink:href="#TimesNewRomanPS-BoldMT-72" x="1469.580078"/>
     <use xlink:href="#TimesNewRomanPS-BoldMT-61" x="1513.964844"/>
     <use xlink:href="#TimesNewRomanPS-BoldMT-67" x="1563.964844"/>
     <use xlink:href="#TimesNewRomanPS-BoldMT-65" x="1613.964844"/>
     <use xlink:href="#TimesNewRomanPS-BoldMT-20" x="1658.349609"/>
     <use xlink:href="#TimesNewRomanPS-BoldMT-73" x="1683.349609"/>
     <use xlink:href="#TimesNewRomanPS-BoldMT-65" x="1722.265625"/>
     <use xlink:href="#TimesNewRomanPS-BoldMT-63" x="1766.650391"/>
     <use xlink:href="#TimesNewRomanPS-BoldMT-74" x="1811.035156"/>
     <use xlink:href="#TimesNewRomanPS-BoldMT-6f" x="1844.335938"/>
     <use xlink:href="#TimesNewRomanPS-BoldMT-72" x="1894.335938"/>
     <use xlink:href="#TimesNewRomanPS-BoldMT-73" x="1938.720703"/>
     <use xlink:href="#TimesNewRomanPS-BoldMT-20" x="1977.636719"/>
     <use xlink:href="#TimesNewRomanPS-BoldMT-28" x="2002.636719"/>
     <use xlink:href="#TimesNewRomanPS-BoldMT-6d" x="2035.9375"/>
     <use xlink:href="#TimesNewRomanPS-BoldMT-69" x="2119.238281"/>
     <use xlink:href="#TimesNewRomanPS-BoldMT-6c" x="2147.021484"/>
     <use xlink:href="#TimesNewRomanPS-BoldMT-6c" x="2174.804688"/>
     <use xlink:href="#TimesNewRomanPS-BoldMT-69" x="2202.587891"/>
     <use xlink:href="#TimesNewRomanPS-BoldMT-6f" x="2230.371094"/>
     <use xlink:href="#TimesNewRomanPS-BoldMT-6e" x="2280.371094"/>
     <use xlink:href="#TimesNewRomanPS-BoldMT-20" x="2335.986328"/>
     <use xlink:href="#TimesNewRomanPS-BoldMT-55" x="2360.986328"/>
     <use xlink:href="#TimesNewRomanPS-BoldMT-53" x="2433.203125"/>
     <use xlink:href="#TimesNewRomanPS-BoldMT-44" x="2488.818359"/>
     <use xlink:href="#TimesNewRomanPS-BoldMT-29" x="2561.035156"/>
    </g>
   </g>
  </g>
 </g>
 <defs>
  <clipPath id="p4c9c9b667f">
   <rect x="50.915938" y="30.045" width="376.8" height="206.708596"/>
  </clipPath>
 </defs>
</svg>
