<?xml version="1.0" encoding="utf-8" standalone="no"?>
<!DOCTYPE svg PUBLIC "-//W3C//DTD SVG 1.1//EN"
  "http://www.w3.org/Graphics/SVG/1.1/DTD/svg11.dtd">
<svg xmlns:xlink="http://www.w3.org/1999/xlink" width="454.062187pt" height="319.928327pt" viewBox="0 0 454.062187 319.928327" xmlns="http://www.w3.org/2000/svg" version="1.1">
 <metadata>
  <rdf:RDF xmlns:dc="http://purl.org/dc/elements/1.1/" xmlns:cc="http://creativecommons.org/ns#" xmlns:rdf="http://www.w3.org/1999/02/22-rdf-syntax-ns#">
   <cc:Work>
    <dc:type rdf:resource="http://purl.org/dc/dcmitype/StillImage"/>
    <dc:date>2025-05-26T17:31:12.612924</dc:date>
    <dc:format>image/svg+xml</dc:format>
    <dc:creator>
     <cc:Agent>
      <dc:title>Matplotlib v3.7.2, https://matplotlib.org/</dc:title>
     </cc:Agent>
    </dc:creator>
   </cc:Work>
  </rdf:RDF>
 </metadata>
 <defs>
  <style type="text/css">*{stroke-linejoin: round; stroke-linecap: butt}</style>
 </defs>
 <g id="figure_1">
  <g id="patch_1">
   <path d="M 0 319.928327 
L 454.062187 319.928327 
L 454.062187 0 
L 0 0 
z
" style="fill: #ffffff"/>
  </g>
  <g id="axes_1">
   <g id="patch_2">
    <path d="M 50.915938 234.780768 
L 427.715937 234.780768 
L 427.715937 30.045 
L 50.915938 30.045 
z
" style="fill: #ffffff"/>
   </g>
   <g id="PolyCollection_1">
    <defs>
     <path id="m1d3d949c26" d="M 100.74 -106.118141 
L 95.291875 -106.118141 
L 94.911485 -107.61568 
L 94.487815 -109.113219 
L 94.017352 -110.610758 
L 93.496932 -112.108297 
L 92.923884 -113.605836 
L 92.296119 -115.103375 
L 91.612148 -116.600913 
L 90.871035 -118.098452 
L 90.072292 -119.595991 
L 89.215739 -121.09353 
L 88.30136 -122.591069 
L 87.329206 -124.088608 
L 86.29938 -125.586147 
L 85.212135 -127.083686 
L 84.068115 -128.581225 
L 82.868733 -130.078764 
L 81.616646 -131.576303 
L 80.316309 -133.073842 
L 78.974505 -134.571381 
L 77.600791 -136.068919 
L 76.207785 -137.566458 
L 74.811197 -139.063997 
L 73.429588 -140.561536 
L 72.083818 -142.059075 
L 70.796209 -143.556614 
L 69.589479 -145.054153 
L 68.48551 -146.551692 
L 67.504084 -148.049231 
L 66.661669 -149.54677 
L 65.970381 -151.044309 
L 65.437198 -152.541848 
L 65.063513 -154.039386 
L 64.845028 -155.536925 
L 64.772021 -157.034464 
L 64.829922 -158.532003 
L 65.000162 -160.029542 
L 65.261197 -161.527081 
L 65.589637 -163.02462 
L 65.961382 -164.522159 
L 66.352685 -166.019698 
L 66.741091 -167.517237 
L 67.106195 -169.014776 
L 67.430204 -170.512315 
L 67.698286 -172.009853 
L 67.898741 -173.507392 
L 68.022989 -175.004931 
L 68.065436 -176.50247 
L 68.023233 -178.000009 
L 67.895986 -179.497548 
L 67.685437 -180.995087 
L 67.395161 -182.492626 
L 67.030299 -183.990165 
L 66.597359 -185.487704 
L 66.1041 -186.985243 
L 65.559507 -188.482782 
L 64.973855 -189.98032 
L 64.358856 -191.477859 
L 63.727865 -192.975398 
L 63.096087 -194.472937 
L 62.480759 -195.970476 
L 61.901227 -197.468015 
L 61.378862 -198.965554 
L 60.936769 -200.463093 
L 60.599243 -201.960632 
L 60.390961 -203.458171 
L 60.335938 -204.95571 
L 60.456289 -206.453249 
L 60.770892 -207.950787 
L 61.294049 -209.448326 
L 62.034283 -210.945865 
L 62.99337 -212.443404 
L 64.165739 -213.940943 
L 65.5383 -215.438482 
L 67.090744 -216.936021 
L 68.796323 -218.43356 
L 70.623042 -219.931099 
L 72.535205 -221.428638 
L 74.495163 -222.926177 
L 76.465158 -224.423716 
L 78.409106 -225.921255 
L 80.294198 -227.418793 
L 82.092209 -228.916332 
L 83.780436 -230.413871 
L 85.342231 -231.91141 
L 86.767124 -233.408949 
L 88.050562 -234.906488 
L 89.193339 -236.404027 
L 90.200778 -237.901566 
L 91.081763 -239.399105 
L 91.847716 -240.896644 
L 92.511589 -242.394183 
L 93.086943 -243.891722 
L 93.587164 -245.38926 
L 94.024842 -246.886799 
L 94.411324 -248.384338 
L 94.756435 -249.881877 
L 95.068353 -251.379416 
L 95.353599 -252.876955 
L 95.617141 -254.374494 
L 100.414734 -254.374494 
L 100.414734 -254.374494 
L 100.678276 -252.876955 
L 100.963522 -251.379416 
L 101.27544 -249.881877 
L 101.620551 -248.384338 
L 102.007033 -246.886799 
L 102.444711 -245.38926 
L 102.944932 -243.891722 
L 103.520286 -242.394183 
L 104.184159 -240.896644 
L 104.950112 -239.399105 
L 105.831097 -237.901566 
L 106.838536 -236.404027 
L 107.981313 -234.906488 
L 109.264751 -233.408949 
L 110.689644 -231.91141 
L 112.251439 -230.413871 
L 113.939666 -228.916332 
L 115.737677 -227.418793 
L 117.622769 -225.921255 
L 119.566717 -224.423716 
L 121.536712 -222.926177 
L 123.49667 -221.428638 
L 125.408833 -219.931099 
L 127.235552 -218.43356 
L 128.941131 -216.936021 
L 130.493575 -215.438482 
L 131.866136 -213.940943 
L 133.038505 -212.443404 
L 133.997592 -210.945865 
L 134.737826 -209.448326 
L 135.260983 -207.950787 
L 135.575586 -206.453249 
L 135.695937 -204.95571 
L 135.640914 -203.458171 
L 135.432632 -201.960632 
L 135.095106 -200.463093 
L 134.653013 -198.965554 
L 134.130648 -197.468015 
L 133.551116 -195.970476 
L 132.935788 -194.472937 
L 132.30401 -192.975398 
L 131.673019 -191.477859 
L 131.05802 -189.98032 
L 130.472368 -188.482782 
L 129.927775 -186.985243 
L 129.434516 -185.487704 
L 129.001576 -183.990165 
L 128.636714 -182.492626 
L 128.346438 -180.995087 
L 128.135889 -179.497548 
L 128.008642 -178.000009 
L 127.966439 -176.50247 
L 128.008886 -175.004931 
L 128.133134 -173.507392 
L 128.333589 -172.009853 
L 128.601671 -170.512315 
L 128.92568 -169.014776 
L 129.290784 -167.517237 
L 129.67919 -166.019698 
L 130.070493 -164.522159 
L 130.442238 -163.02462 
L 130.770678 -161.527081 
L 131.031713 -160.029542 
L 131.201953 -158.532003 
L 131.259854 -157.034464 
L 131.186847 -155.536925 
L 130.968362 -154.039386 
L 130.594677 -152.541848 
L 130.061494 -151.044309 
L 129.370206 -149.54677 
L 128.527791 -148.049231 
L 127.546365 -146.551692 
L 126.442396 -145.054153 
L 125.235666 -143.556614 
L 123.948057 -142.059075 
L 122.602287 -140.561536 
L 121.220678 -139.063997 
L 119.82409 -137.566458 
L 118.431084 -136.068919 
L 117.05737 -134.571381 
L 115.715566 -133.073842 
L 114.415229 -131.576303 
L 113.163142 -130.078764 
L 111.96376 -128.581225 
L 110.81974 -127.083686 
L 109.732495 -125.586147 
L 108.702669 -124.088608 
L 107.730515 -122.591069 
L 106.816136 -121.09353 
L 105.959583 -119.595991 
L 105.16084 -118.098452 
L 104.419727 -116.600913 
L 103.735756 -115.103375 
L 103.107991 -113.605836 
L 102.534943 -112.108297 
L 102.014523 -110.610758 
L 101.54406 -109.113219 
L 101.12039 -107.61568 
L 100.74 -106.118141 
z
" style="stroke: #000000; stroke-opacity: 0.7"/>
    </defs>
    <g clip-path="url(#p689ea017c5)">
     <use xlink:href="#m1d3d949c26" x="0" y="319.928327" style="fill: #ff7f0e; fill-opacity: 0.7; stroke: #000000; stroke-opacity: 0.7"/>
    </g>
   </g>
   <g id="PolyCollection_2">
    <defs>
     <path id="m371822f240" d="M 196.907121 -94.45373 
L 187.524754 -94.45373 
L 187.114121 -95.830032 
L 186.69045 -97.206333 
L 186.254041 -98.582635 
L 185.805057 -99.958936 
L 185.343558 -101.335237 
L 184.869521 -102.711539 
L 184.382843 -104.08784 
L 183.883323 -105.464142 
L 183.370612 -106.840443 
L 182.844133 -108.216745 
L 182.302989 -109.593046 
L 181.745842 -110.969348 
L 181.17082 -112.345649 
L 180.57543 -113.72195 
L 179.956523 -115.098252 
L 179.310325 -116.474553 
L 178.632531 -117.850855 
L 177.918491 -119.227156 
L 177.163465 -120.603458 
L 176.36295 -121.979759 
L 175.513047 -123.356061 
L 174.610857 -124.732362 
L 173.654848 -126.108663 
L 172.645195 -127.484965 
L 171.58403 -128.861266 
L 170.475597 -130.237568 
L 169.326292 -131.613869 
L 168.14458 -132.990171 
L 166.940789 -134.366472 
L 165.726807 -135.742774 
L 164.515693 -137.119075 
L 163.321241 -138.495376 
L 162.157518 -139.871678 
L 161.038411 -141.247979 
L 159.977216 -142.624281 
L 158.98627 -144.000582 
L 158.076668 -145.376884 
L 157.25804 -146.753185 
L 156.538408 -148.129487 
L 155.924107 -149.505788 
L 155.419758 -150.882089 
L 155.028285 -152.258391 
L 154.750958 -153.634692 
L 154.587456 -155.010994 
L 154.535938 -156.387295 
L 154.593123 -157.763597 
L 154.754375 -159.139898 
L 155.013794 -160.5162 
L 155.364318 -161.892501 
L 155.797842 -163.268802 
L 156.305347 -164.645104 
L 156.877054 -166.021405 
L 157.502595 -167.397707 
L 158.171196 -168.774008 
L 158.871873 -170.15031 
L 159.593637 -171.526611 
L 160.325692 -172.902913 
L 161.057634 -174.279214 
L 161.779633 -175.655515 
L 162.482601 -177.031817 
L 163.158339 -178.408118 
L 163.799665 -179.78442 
L 164.400508 -181.160721 
L 164.955994 -182.537023 
L 165.462487 -183.913324 
L 165.917627 -185.289626 
L 166.320327 -186.665927 
L 166.670762 -188.042228 
L 166.970333 -189.41853 
L 167.221621 -190.794831 
L 167.428322 -192.171133 
L 167.595175 -193.547434 
L 167.727884 -194.923736 
L 167.833035 -196.300037 
L 167.917998 -197.676339 
L 167.990833 -199.05264 
L 168.060179 -200.428942 
L 168.135131 -201.805243 
L 168.225092 -203.181544 
L 168.339619 -204.557846 
L 168.488218 -205.934147 
L 168.680136 -207.310449 
L 168.924113 -208.68675 
L 169.228118 -210.063052 
L 169.599075 -211.439353 
L 170.042592 -212.815655 
L 170.5627 -214.191956 
L 171.161629 -215.568257 
L 171.839633 -216.944559 
L 172.594876 -218.32086 
L 173.423395 -219.697162 
L 174.319151 -221.073463 
L 175.274161 -222.449765 
L 176.278721 -223.826066 
L 177.321705 -225.202368 
L 178.390927 -226.578669 
L 179.473547 -227.95497 
L 180.556506 -229.331272 
L 181.62696 -230.707573 
L 202.804915 -230.707573 
L 202.804915 -230.707573 
L 203.875369 -229.331272 
L 204.958328 -227.95497 
L 206.040948 -226.578669 
L 207.11017 -225.202368 
L 208.153154 -223.826066 
L 209.157714 -222.449765 
L 210.112724 -221.073463 
L 211.00848 -219.697162 
L 211.836999 -218.32086 
L 212.592242 -216.944559 
L 213.270246 -215.568257 
L 213.869175 -214.191956 
L 214.389283 -212.815655 
L 214.8328 -211.439353 
L 215.203757 -210.063052 
L 215.507762 -208.68675 
L 215.751739 -207.310449 
L 215.943657 -205.934147 
L 216.092256 -204.557846 
L 216.206783 -203.181544 
L 216.296744 -201.805243 
L 216.371696 -200.428942 
L 216.441042 -199.05264 
L 216.513877 -197.676339 
L 216.59884 -196.300037 
L 216.703991 -194.923736 
L 216.8367 -193.547434 
L 217.003553 -192.171133 
L 217.210254 -190.794831 
L 217.461542 -189.41853 
L 217.761113 -188.042228 
L 218.111548 -186.665927 
L 218.514248 -185.289626 
L 218.969388 -183.913324 
L 219.475881 -182.537023 
L 220.031367 -181.160721 
L 220.63221 -179.78442 
L 221.273536 -178.408118 
L 221.949274 -177.031817 
L 222.652242 -175.655515 
L 223.374241 -174.279214 
L 224.106183 -172.902913 
L 224.838238 -171.526611 
L 225.560002 -170.15031 
L 226.260679 -168.774008 
L 226.92928 -167.397707 
L 227.554821 -166.021405 
L 228.126528 -164.645104 
L 228.634033 -163.268802 
L 229.067557 -161.892501 
L 229.418081 -160.5162 
L 229.6775 -159.139898 
L 229.838752 -157.763597 
L 229.895937 -156.387295 
L 229.844419 -155.010994 
L 229.680917 -153.634692 
L 229.40359 -152.258391 
L 229.012117 -150.882089 
L 228.507768 -149.505788 
L 227.893467 -148.129487 
L 227.173835 -146.753185 
L 226.355207 -145.376884 
L 225.445605 -144.000582 
L 224.454659 -142.624281 
L 223.393464 -141.247979 
L 222.274357 -139.871678 
L 221.110634 -138.495376 
L 219.916182 -137.119075 
L 218.705068 -135.742774 
L 217.491086 -134.366472 
L 216.287295 -132.990171 
L 215.105583 -131.613869 
L 213.956278 -130.237568 
L 212.847845 -128.861266 
L 211.78668 -127.484965 
L 210.777027 -126.108663 
L 209.821018 -124.732362 
L 208.918828 -123.356061 
L 208.068925 -121.979759 
L 207.26841 -120.603458 
L 206.513384 -119.227156 
L 205.799344 -117.850855 
L 205.12155 -116.474553 
L 204.475352 -115.098252 
L 203.856445 -113.72195 
L 203.261055 -112.345649 
L 202.686033 -110.969348 
L 202.128886 -109.593046 
L 201.587742 -108.216745 
L 201.061263 -106.840443 
L 200.548552 -105.464142 
L 200.049032 -104.08784 
L 199.562354 -102.711539 
L 199.088317 -101.335237 
L 198.626818 -99.958936 
L 198.177834 -98.582635 
L 197.741425 -97.206333 
L 197.317754 -95.830032 
L 196.907121 -94.45373 
z
" style="stroke: #000000; stroke-opacity: 0.7"/>
    </defs>
    <g clip-path="url(#p689ea017c5)">
     <use xlink:href="#m371822f240" x="0" y="319.928327" style="fill: #f7b6d2; fill-opacity: 0.7; stroke: #000000; stroke-opacity: 0.7"/>
    </g>
   </g>
   <g id="PolyCollection_3">
    <defs>
     <path id="m72f61dc82c" d="M 290.604404 -114.401563 
L 282.227471 -114.401563 
L 281.828644 -115.820554 
L 281.416912 -117.239545 
L 280.992733 -118.658535 
L 280.55615 -120.077526 
L 280.106736 -121.496517 
L 279.643566 -122.915507 
L 279.165181 -124.334498 
L 278.669584 -125.753489 
L 278.154238 -127.17248 
L 277.616089 -128.59147 
L 277.051624 -130.010461 
L 276.456952 -131.429452 
L 275.827943 -132.848442 
L 275.160409 -134.267433 
L 274.45033 -135.686424 
L 273.694133 -137.105414 
L 272.888996 -138.524405 
L 272.033172 -139.943396 
L 271.126295 -141.362387 
L 270.169652 -142.781377 
L 269.166392 -144.200368 
L 268.121637 -145.619359 
L 267.042481 -147.038349 
L 265.937867 -148.45734 
L 264.818329 -149.876331 
L 263.695618 -151.295321 
L 262.582229 -152.714312 
L 261.490853 -154.133303 
L 260.433789 -155.552293 
L 259.422365 -156.971284 
L 258.4664 -158.390275 
L 257.573741 -159.809266 
L 256.749923 -161.228256 
L 255.997954 -162.647247 
L 255.318264 -164.066238 
L 254.708794 -165.485228 
L 254.165237 -166.904219 
L 253.681411 -168.32321 
L 253.249719 -169.7422 
L 252.861682 -171.161191 
L 252.508505 -172.580182 
L 252.181626 -173.999173 
L 251.873218 -175.418163 
L 251.576629 -176.837154 
L 251.286712 -178.256145 
L 251.000055 -179.675135 
L 250.715094 -181.094126 
L 250.432122 -182.513117 
L 250.153201 -183.932107 
L 249.882009 -185.351098 
L 249.623619 -186.770089 
L 249.384247 -188.18908 
L 249.170986 -189.60807 
L 248.991525 -191.027061 
L 248.853871 -192.446052 
L 248.766069 -193.865042 
L 248.735938 -195.284033 
L 248.770792 -196.703024 
L 248.877184 -198.122014 
L 249.060647 -199.541005 
L 249.325453 -200.959996 
L 249.674401 -202.378986 
L 250.108642 -203.797977 
L 250.627551 -205.216968 
L 251.228666 -206.635959 
L 251.907688 -208.054949 
L 252.658553 -209.47394 
L 253.473568 -210.892931 
L 254.343603 -212.311921 
L 255.258331 -213.730912 
L 256.206501 -215.149903 
L 257.176244 -216.568893 
L 258.15539 -217.987884 
L 259.131802 -219.406875 
L 260.093737 -220.825866 
L 261.030202 -222.244856 
L 261.931342 -223.663847 
L 262.788817 -225.082838 
L 263.596187 -226.501828 
L 264.349256 -227.920819 
L 265.046364 -229.33981 
L 265.688595 -230.7588 
L 266.279851 -232.177791 
L 266.826788 -233.596782 
L 267.338566 -235.015772 
L 267.826434 -236.434763 
L 268.303138 -237.853754 
L 268.782194 -239.272745 
L 269.277069 -240.691735 
L 269.800329 -242.110726 
L 270.362809 -243.529717 
L 270.972896 -244.948707 
L 271.63596 -246.367698 
L 272.353991 -247.786689 
L 273.125473 -249.205679 
L 273.945498 -250.62467 
L 274.806102 -252.043661 
L 275.696802 -253.462652 
L 276.605269 -254.881642 
L 296.226606 -254.881642 
L 296.226606 -254.881642 
L 297.135073 -253.462652 
L 298.025773 -252.043661 
L 298.886377 -250.62467 
L 299.706402 -249.205679 
L 300.477884 -247.786689 
L 301.195915 -246.367698 
L 301.858979 -244.948707 
L 302.469066 -243.529717 
L 303.031546 -242.110726 
L 303.554806 -240.691735 
L 304.049681 -239.272745 
L 304.528737 -237.853754 
L 305.005441 -236.434763 
L 305.493309 -235.015772 
L 306.005087 -233.596782 
L 306.552024 -232.177791 
L 307.14328 -230.7588 
L 307.785511 -229.33981 
L 308.482619 -227.920819 
L 309.235688 -226.501828 
L 310.043058 -225.082838 
L 310.900533 -223.663847 
L 311.801673 -222.244856 
L 312.738138 -220.825866 
L 313.700073 -219.406875 
L 314.676485 -217.987884 
L 315.655631 -216.568893 
L 316.625374 -215.149903 
L 317.573544 -213.730912 
L 318.488272 -212.311921 
L 319.358307 -210.892931 
L 320.173322 -209.47394 
L 320.924187 -208.054949 
L 321.603209 -206.635959 
L 322.204324 -205.216968 
L 322.723233 -203.797977 
L 323.157474 -202.378986 
L 323.506422 -200.959996 
L 323.771228 -199.541005 
L 323.954691 -198.122014 
L 324.061083 -196.703024 
L 324.095937 -195.284033 
L 324.065806 -193.865042 
L 323.978004 -192.446052 
L 323.84035 -191.027061 
L 323.660889 -189.60807 
L 323.447628 -188.18908 
L 323.208256 -186.770089 
L 322.949866 -185.351098 
L 322.678674 -183.932107 
L 322.399753 -182.513117 
L 322.116781 -181.094126 
L 321.83182 -179.675135 
L 321.545163 -178.256145 
L 321.255246 -176.837154 
L 320.958657 -175.418163 
L 320.650249 -173.999173 
L 320.32337 -172.580182 
L 319.970193 -171.161191 
L 319.582156 -169.7422 
L 319.150464 -168.32321 
L 318.666638 -166.904219 
L 318.123081 -165.485228 
L 317.513611 -164.066238 
L 316.833921 -162.647247 
L 316.081952 -161.228256 
L 315.258134 -159.809266 
L 314.365475 -158.390275 
L 313.40951 -156.971284 
L 312.398086 -155.552293 
L 311.341022 -154.133303 
L 310.249646 -152.714312 
L 309.136257 -151.295321 
L 308.013546 -149.876331 
L 306.894008 -148.45734 
L 305.789394 -147.038349 
L 304.710238 -145.619359 
L 303.665483 -144.200368 
L 302.662223 -142.781377 
L 301.70558 -141.362387 
L 300.798703 -139.943396 
L 299.942879 -138.524405 
L 299.137742 -137.105414 
L 298.381545 -135.686424 
L 297.671466 -134.267433 
L 297.003932 -132.848442 
L 296.374923 -131.429452 
L 295.780251 -130.010461 
L 295.215786 -128.59147 
L 294.677637 -127.17248 
L 294.162291 -125.753489 
L 293.666694 -124.334498 
L 293.188309 -122.915507 
L 292.725139 -121.496517 
L 292.275725 -120.077526 
L 291.839142 -118.658535 
L 291.414963 -117.239545 
L 291.003231 -115.820554 
L 290.604404 -114.401563 
z
" style="stroke: #000000; stroke-opacity: 0.7"/>
    </defs>
    <g clip-path="url(#p689ea017c5)">
     <use xlink:href="#m72f61dc82c" x="0" y="319.928327" style="fill: #ff9896; fill-opacity: 0.7; stroke: #000000; stroke-opacity: 0.7"/>
    </g>
   </g>
   <g id="PolyCollection_4">
    <defs>
     <path id="mcf86cfe4a5" d="M 387.258409 -95.129928 
L 373.973466 -95.129928 
L 373.30807 -97.003132 
L 372.629504 -98.876337 
L 371.942243 -100.749541 
L 371.25013 -102.622745 
L 370.556096 -104.49595 
L 369.861924 -106.369154 
L 369.168058 -108.242358 
L 368.473497 -110.115563 
L 367.775769 -111.988767 
L 367.07103 -113.861971 
L 366.354273 -115.735175 
L 365.619657 -117.60838 
L 364.860942 -119.481584 
L 364.072008 -121.354788 
L 363.247412 -123.227993 
L 362.382958 -125.101197 
L 361.4762 -126.974401 
L 360.526863 -128.847606 
L 359.537099 -130.72081 
L 358.511579 -132.594014 
L 357.457386 -134.467219 
L 356.383712 -136.340423 
L 355.301391 -138.213627 
L 354.222304 -140.086832 
L 353.158712 -141.960036 
L 352.122577 -143.83324 
L 351.12494 -145.706445 
L 350.175399 -147.579649 
L 349.281733 -149.452853 
L 348.449699 -151.326058 
L 347.682988 -153.199262 
L 346.98334 -155.072466 
L 346.350777 -156.945671 
L 345.783912 -158.818875 
L 345.280299 -160.692079 
L 344.836766 -162.565284 
L 344.44973 -164.438488 
L 344.115437 -166.311692 
L 343.830149 -168.184897 
L 343.590272 -170.058101 
L 343.392432 -171.931305 
L 343.23352 -173.80451 
L 343.110728 -175.677714 
L 343.021568 -177.550918 
L 342.963899 -179.424123 
L 342.935937 -181.297327 
L 342.936268 -183.170531 
L 342.963814 -185.043736 
L 343.017775 -186.91694 
L 343.097526 -188.790144 
L 343.202471 -190.663348 
L 343.331873 -192.536553 
L 343.484673 -194.409757 
L 343.65933 -196.282961 
L 343.853724 -198.156166 
L 344.065126 -200.02937 
L 344.290278 -201.902574 
L 344.525587 -203.775779 
L 344.767423 -205.648983 
L 345.012501 -207.522187 
L 345.258326 -209.395392 
L 345.503633 -211.268596 
L 345.748803 -213.1418 
L 345.996175 -215.015005 
L 346.250245 -216.888209 
L 346.517693 -218.761413 
L 346.807244 -220.634618 
L 347.129358 -222.507822 
L 347.495755 -224.381026 
L 347.918821 -226.254231 
L 348.410924 -228.127435 
L 348.983684 -230.000639 
L 349.647248 -231.873844 
L 350.409611 -233.747048 
L 351.276028 -235.620252 
L 352.248543 -237.493457 
L 353.325674 -239.366661 
L 354.502268 -241.239865 
L 355.769528 -243.11307 
L 357.115237 -244.986274 
L 358.524151 -246.859478 
L 359.978562 -248.732683 
L 361.458992 -250.605887 
L 362.944997 -252.479091 
L 364.416028 -254.352296 
L 365.8523 -256.2255 
L 367.235629 -258.098704 
L 368.550162 -259.971909 
L 369.782979 -261.845113 
L 370.924506 -263.718317 
L 371.968729 -265.591521 
L 372.913194 -267.464726 
L 373.758802 -269.33793 
L 374.509416 -271.211134 
L 375.171336 -273.084339 
L 375.752663 -274.957543 
L 376.262631 -276.830747 
L 376.710944 -278.703952 
L 377.107169 -280.577156 
L 384.124706 -280.577156 
L 384.124706 -280.577156 
L 384.520931 -278.703952 
L 384.969244 -276.830747 
L 385.479212 -274.957543 
L 386.060539 -273.084339 
L 386.722459 -271.211134 
L 387.473073 -269.33793 
L 388.318681 -267.464726 
L 389.263146 -265.591521 
L 390.307369 -263.718317 
L 391.448896 -261.845113 
L 392.681713 -259.971909 
L 393.996246 -258.098704 
L 395.379575 -256.2255 
L 396.815847 -254.352296 
L 398.286878 -252.479091 
L 399.772883 -250.605887 
L 401.253313 -248.732683 
L 402.707724 -246.859478 
L 404.116638 -244.986274 
L 405.462347 -243.11307 
L 406.729607 -241.239865 
L 407.906201 -239.366661 
L 408.983332 -237.493457 
L 409.955847 -235.620252 
L 410.822264 -233.747048 
L 411.584627 -231.873844 
L 412.248191 -230.000639 
L 412.820951 -228.127435 
L 413.313054 -226.254231 
L 413.73612 -224.381026 
L 414.102517 -222.507822 
L 414.424631 -220.634618 
L 414.714182 -218.761413 
L 414.98163 -216.888209 
L 415.2357 -215.015005 
L 415.483072 -213.1418 
L 415.728242 -211.268596 
L 415.973549 -209.395392 
L 416.219374 -207.522187 
L 416.464452 -205.648983 
L 416.706288 -203.775779 
L 416.941597 -201.902574 
L 417.166749 -200.02937 
L 417.378151 -198.156166 
L 417.572545 -196.282961 
L 417.747202 -194.409757 
L 417.900002 -192.536553 
L 418.029404 -190.663348 
L 418.134349 -188.790144 
L 418.2141 -186.91694 
L 418.268061 -185.043736 
L 418.295607 -183.170531 
L 418.295937 -181.297327 
L 418.267976 -179.424123 
L 418.210307 -177.550918 
L 418.121147 -175.677714 
L 417.998355 -173.80451 
L 417.839443 -171.931305 
L 417.641603 -170.058101 
L 417.401726 -168.184897 
L 417.116438 -166.311692 
L 416.782145 -164.438488 
L 416.395109 -162.565284 
L 415.951576 -160.692079 
L 415.447963 -158.818875 
L 414.881098 -156.945671 
L 414.248535 -155.072466 
L 413.548887 -153.199262 
L 412.782176 -151.326058 
L 411.950142 -149.452853 
L 411.056476 -147.579649 
L 410.106935 -145.706445 
L 409.109298 -143.83324 
L 408.073163 -141.960036 
L 407.009571 -140.086832 
L 405.930484 -138.213627 
L 404.848163 -136.340423 
L 403.774489 -134.467219 
L 402.720296 -132.594014 
L 401.694776 -130.72081 
L 400.705012 -128.847606 
L 399.755675 -126.974401 
L 398.848917 -125.101197 
L 397.984463 -123.227993 
L 397.159867 -121.354788 
L 396.370933 -119.481584 
L 395.612218 -117.60838 
L 394.877602 -115.735175 
L 394.160845 -113.861971 
L 393.456106 -111.988767 
L 392.758378 -110.115563 
L 392.063817 -108.242358 
L 391.369951 -106.369154 
L 390.675779 -104.49595 
L 389.981745 -102.622745 
L 389.289632 -100.749541 
L 388.602371 -98.876337 
L 387.923805 -97.003132 
L 387.258409 -95.129928 
z
" style="stroke: #000000; stroke-opacity: 0.7"/>
    </defs>
    <g clip-path="url(#p689ea017c5)">
     <use xlink:href="#mcf86cfe4a5" x="0" y="319.928327" style="fill: #aec7e8; fill-opacity: 0.7; stroke: #000000; stroke-opacity: 0.7"/>
    </g>
   </g>
   <g id="matplotlib.axis_1">
    <g id="xtick_1">
     <g id="line2d_1">
      <defs>
       <path id="md51decccc1" d="M 0 0 
L 0 3.5 
" style="stroke: #000000; stroke-width: 0.8"/>
      </defs>
      <g>
       <use xlink:href="#md51decccc1" x="98.015938" y="234.780768" style="stroke: #000000; stroke-width: 0.8"/>
      </g>
     </g>
     <g id="text_1">
      <!-- Bars &amp; Pubs -->
      <g transform="translate(53.297179 290.57644) rotate(-45) scale(0.12 -0.12)">
       <defs>
        <path id="TimesNewRomanPSMT-42" d="M 2956 2163 
Q 3397 2069 3616 1863 
Q 3919 1575 3919 1159 
Q 3919 844 3719 555 
Q 3519 266 3170 133 
Q 2822 0 2106 0 
L 106 0 
L 106 116 
L 266 116 
Q 531 116 647 284 
Q 719 394 719 750 
L 719 3488 
Q 719 3881 628 3984 
Q 506 4122 266 4122 
L 106 4122 
L 106 4238 
L 1938 4238 
Q 2450 4238 2759 4163 
Q 3228 4050 3475 3764 
Q 3722 3478 3722 3106 
Q 3722 2788 3528 2536 
Q 3334 2284 2956 2163 
z
M 1319 2331 
Q 1434 2309 1582 2298 
Q 1731 2288 1909 2288 
Q 2366 2288 2595 2386 
Q 2825 2484 2947 2687 
Q 3069 2891 3069 3131 
Q 3069 3503 2766 3765 
Q 2463 4028 1881 4028 
Q 1569 4028 1319 3959 
L 1319 2331 
z
M 1319 306 
Q 1681 222 2034 222 
Q 2600 222 2897 476 
Q 3194 731 3194 1106 
Q 3194 1353 3059 1581 
Q 2925 1809 2622 1940 
Q 2319 2072 1872 2072 
Q 1678 2072 1540 2065 
Q 1403 2059 1319 2044 
L 1319 306 
z
" transform="scale(0.015625)"/>
        <path id="TimesNewRomanPSMT-61" d="M 1822 413 
Q 1381 72 1269 19 
Q 1100 -59 909 -59 
Q 613 -59 420 144 
Q 228 347 228 678 
Q 228 888 322 1041 
Q 450 1253 767 1440 
Q 1084 1628 1822 1897 
L 1822 2009 
Q 1822 2438 1686 2597 
Q 1550 2756 1291 2756 
Q 1094 2756 978 2650 
Q 859 2544 859 2406 
L 866 2225 
Q 866 2081 792 2003 
Q 719 1925 600 1925 
Q 484 1925 411 2006 
Q 338 2088 338 2228 
Q 338 2497 613 2722 
Q 888 2947 1384 2947 
Q 1766 2947 2009 2819 
Q 2194 2722 2281 2516 
Q 2338 2381 2338 1966 
L 2338 994 
Q 2338 584 2353 492 
Q 2369 400 2405 369 
Q 2441 338 2488 338 
Q 2538 338 2575 359 
Q 2641 400 2828 588 
L 2828 413 
Q 2478 -56 2159 -56 
Q 2006 -56 1915 50 
Q 1825 156 1822 413 
z
M 1822 616 
L 1822 1706 
Q 1350 1519 1213 1441 
Q 966 1303 859 1153 
Q 753 1003 753 825 
Q 753 600 887 451 
Q 1022 303 1197 303 
Q 1434 303 1822 616 
z
" transform="scale(0.015625)"/>
        <path id="TimesNewRomanPSMT-72" d="M 1038 2947 
L 1038 2303 
Q 1397 2947 1775 2947 
Q 1947 2947 2059 2842 
Q 2172 2738 2172 2600 
Q 2172 2478 2090 2393 
Q 2009 2309 1897 2309 
Q 1788 2309 1652 2417 
Q 1516 2525 1450 2525 
Q 1394 2525 1328 2463 
Q 1188 2334 1038 2041 
L 1038 669 
Q 1038 431 1097 309 
Q 1138 225 1241 169 
Q 1344 113 1538 113 
L 1538 0 
L 72 0 
L 72 113 
Q 291 113 397 181 
Q 475 231 506 341 
Q 522 394 522 644 
L 522 1753 
Q 522 2253 501 2348 
Q 481 2444 426 2487 
Q 372 2531 291 2531 
Q 194 2531 72 2484 
L 41 2597 
L 906 2947 
L 1038 2947 
z
" transform="scale(0.015625)"/>
        <path id="TimesNewRomanPSMT-73" d="M 2050 2947 
L 2050 1972 
L 1947 1972 
Q 1828 2431 1642 2597 
Q 1456 2763 1169 2763 
Q 950 2763 815 2647 
Q 681 2531 681 2391 
Q 681 2216 781 2091 
Q 878 1963 1175 1819 
L 1631 1597 
Q 2266 1288 2266 781 
Q 2266 391 1970 151 
Q 1675 -88 1309 -88 
Q 1047 -88 709 6 
Q 606 38 541 38 
Q 469 38 428 -44 
L 325 -44 
L 325 978 
L 428 978 
Q 516 541 762 319 
Q 1009 97 1316 97 
Q 1531 97 1667 223 
Q 1803 350 1803 528 
Q 1803 744 1651 891 
Q 1500 1038 1047 1263 
Q 594 1488 453 1669 
Q 313 1847 313 2119 
Q 313 2472 555 2709 
Q 797 2947 1181 2947 
Q 1350 2947 1591 2875 
Q 1750 2828 1803 2828 
Q 1853 2828 1881 2850 
Q 1909 2872 1947 2947 
L 2050 2947 
z
" transform="scale(0.015625)"/>
        <path id="TimesNewRomanPSMT-20" transform="scale(0.015625)"/>
        <path id="TimesNewRomanPSMT-26" d="M 3266 2728 
L 4578 2728 
L 4578 2613 
Q 4306 2591 4176 2492 
Q 4047 2394 3772 1897 
Q 3497 1400 3153 969 
Q 3431 644 3650 514 
Q 3869 384 4091 384 
Q 4306 384 4456 501 
Q 4606 619 4669 847 
L 4784 763 
Q 4669 322 4412 112 
Q 4156 -97 3816 -97 
Q 3559 -97 3295 42 
Q 3031 181 2719 513 
Q 2331 169 2020 36 
Q 1709 -97 1356 -97 
Q 841 -97 537 178 
Q 234 453 234 834 
Q 234 1213 506 1589 
Q 778 1966 1528 2369 
Q 1381 2694 1328 2901 
Q 1275 3109 1275 3300 
Q 1275 3834 1669 4116 
Q 1975 4334 2366 4334 
Q 2738 4334 2972 4114 
Q 3206 3894 3206 3572 
Q 3206 3241 2979 2991 
Q 2753 2741 2178 2444 
Q 2575 1738 3006 1150 
Q 3556 1806 3556 2256 
Q 3556 2400 3463 2513 
Q 3394 2597 3266 2613 
L 3266 2728 
z
M 2072 2647 
Q 2459 2831 2651 3065 
Q 2844 3300 2844 3588 
Q 2844 3813 2705 3959 
Q 2566 4106 2359 4106 
Q 2088 4106 1948 3917 
Q 1809 3728 1809 3547 
Q 1809 3394 1862 3205 
Q 1916 3016 2072 2647 
z
M 2556 694 
Q 2144 1256 1984 1515 
Q 1825 1775 1634 2159 
Q 1259 1944 1070 1684 
Q 881 1425 881 1122 
Q 881 788 1097 534 
Q 1313 281 1678 281 
Q 1875 281 2058 359 
Q 2241 438 2556 694 
z
" transform="scale(0.015625)"/>
        <path id="TimesNewRomanPSMT-50" d="M 1313 1984 
L 1313 750 
Q 1313 350 1400 253 
Q 1519 116 1759 116 
L 1922 116 
L 1922 0 
L 106 0 
L 106 116 
L 266 116 
Q 534 116 650 291 
Q 713 388 713 750 
L 713 3488 
Q 713 3888 628 3984 
Q 506 4122 266 4122 
L 106 4122 
L 106 4238 
L 1659 4238 
Q 2228 4238 2556 4120 
Q 2884 4003 3109 3725 
Q 3334 3447 3334 3066 
Q 3334 2547 2992 2222 
Q 2650 1897 2025 1897 
Q 1872 1897 1694 1919 
Q 1516 1941 1313 1984 
z
M 1313 2163 
Q 1478 2131 1606 2115 
Q 1734 2100 1825 2100 
Q 2150 2100 2386 2351 
Q 2622 2603 2622 3003 
Q 2622 3278 2509 3514 
Q 2397 3750 2190 3867 
Q 1984 3984 1722 3984 
Q 1563 3984 1313 3925 
L 1313 2163 
z
" transform="scale(0.015625)"/>
        <path id="TimesNewRomanPSMT-75" d="M 2709 2863 
L 2709 1128 
Q 2709 631 2732 520 
Q 2756 409 2807 365 
Q 2859 322 2928 322 
Q 3025 322 3147 375 
L 3191 266 
L 2334 -88 
L 2194 -88 
L 2194 519 
Q 1825 119 1631 15 
Q 1438 -88 1222 -88 
Q 981 -88 804 51 
Q 628 191 559 409 
Q 491 628 491 1028 
L 491 2306 
Q 491 2509 447 2587 
Q 403 2666 317 2708 
Q 231 2750 6 2747 
L 6 2863 
L 1009 2863 
L 1009 947 
Q 1009 547 1148 422 
Q 1288 297 1484 297 
Q 1619 297 1789 381 
Q 1959 466 2194 703 
L 2194 2325 
Q 2194 2569 2105 2655 
Q 2016 2741 1734 2747 
L 1734 2863 
L 2709 2863 
z
" transform="scale(0.015625)"/>
        <path id="TimesNewRomanPSMT-62" d="M 984 2369 
Q 1400 2947 1881 2947 
Q 2322 2947 2650 2570 
Q 2978 2194 2978 1541 
Q 2978 778 2472 313 
Q 2038 -88 1503 -88 
Q 1253 -88 995 3 
Q 738 94 469 275 
L 469 3241 
Q 469 3728 445 3840 
Q 422 3953 372 3993 
Q 322 4034 247 4034 
Q 159 4034 28 3984 
L -16 4094 
L 844 4444 
L 984 4444 
L 984 2369 
z
M 984 2169 
L 984 456 
Q 1144 300 1314 220 
Q 1484 141 1663 141 
Q 1947 141 2192 453 
Q 2438 766 2438 1363 
Q 2438 1913 2192 2208 
Q 1947 2503 1634 2503 
Q 1469 2503 1303 2419 
Q 1178 2356 984 2169 
z
" transform="scale(0.015625)"/>
       </defs>
       <use xlink:href="#TimesNewRomanPSMT-42"/>
       <use xlink:href="#TimesNewRomanPSMT-61" x="66.699219"/>
       <use xlink:href="#TimesNewRomanPSMT-72" x="111.083984"/>
       <use xlink:href="#TimesNewRomanPSMT-73" x="144.384766"/>
       <use xlink:href="#TimesNewRomanPSMT-20" x="183.300781"/>
       <use xlink:href="#TimesNewRomanPSMT-26" x="208.300781"/>
       <use xlink:href="#TimesNewRomanPSMT-20" x="286.083984"/>
       <use xlink:href="#TimesNewRomanPSMT-50" x="311.083984"/>
       <use xlink:href="#TimesNewRomanPSMT-75" x="366.699219"/>
       <use xlink:href="#TimesNewRomanPSMT-62" x="416.699219"/>
       <use xlink:href="#TimesNewRomanPSMT-73" x="466.699219"/>
      </g>
     </g>
    </g>
    <g id="xtick_2">
     <g id="line2d_2">
      <g>
       <use xlink:href="#md51decccc1" x="192.215937" y="234.780768" style="stroke: #000000; stroke-width: 0.8"/>
      </g>
     </g>
     <g id="text_2">
      <!-- Buffet Restaurants -->
      <g transform="translate(127.160346 310.913273) rotate(-45) scale(0.12 -0.12)">
       <defs>
        <path id="TimesNewRomanPSMT-66" d="M 1319 2638 
L 1319 756 
Q 1319 356 1406 250 
Q 1522 113 1716 113 
L 1975 113 
L 1975 0 
L 266 0 
L 266 113 
L 394 113 
Q 519 113 622 175 
Q 725 238 764 344 
Q 803 450 803 756 
L 803 2638 
L 247 2638 
L 247 2863 
L 803 2863 
L 803 3050 
Q 803 3478 940 3775 
Q 1078 4072 1361 4255 
Q 1644 4438 1997 4438 
Q 2325 4438 2600 4225 
Q 2781 4084 2781 3909 
Q 2781 3816 2700 3733 
Q 2619 3650 2525 3650 
Q 2453 3650 2373 3701 
Q 2294 3753 2178 3923 
Q 2063 4094 1966 4153 
Q 1869 4213 1750 4213 
Q 1606 4213 1506 4136 
Q 1406 4059 1362 3898 
Q 1319 3738 1319 3069 
L 1319 2863 
L 2056 2863 
L 2056 2638 
L 1319 2638 
z
" transform="scale(0.015625)"/>
        <path id="TimesNewRomanPSMT-65" d="M 681 1784 
Q 678 1147 991 784 
Q 1303 422 1725 422 
Q 2006 422 2214 576 
Q 2422 731 2563 1106 
L 2659 1044 
Q 2594 616 2278 264 
Q 1963 -88 1488 -88 
Q 972 -88 605 314 
Q 238 716 238 1394 
Q 238 2128 614 2539 
Q 991 2950 1559 2950 
Q 2041 2950 2350 2633 
Q 2659 2316 2659 1784 
L 681 1784 
z
M 681 1966 
L 2006 1966 
Q 1991 2241 1941 2353 
Q 1863 2528 1708 2628 
Q 1553 2728 1384 2728 
Q 1125 2728 920 2526 
Q 716 2325 681 1966 
z
" transform="scale(0.015625)"/>
        <path id="TimesNewRomanPSMT-74" d="M 1031 3803 
L 1031 2863 
L 1700 2863 
L 1700 2644 
L 1031 2644 
L 1031 788 
Q 1031 509 1111 412 
Q 1191 316 1316 316 
Q 1419 316 1516 380 
Q 1613 444 1666 569 
L 1788 569 
Q 1678 263 1478 108 
Q 1278 -47 1066 -47 
Q 922 -47 784 33 
Q 647 113 581 261 
Q 516 409 516 719 
L 516 2644 
L 63 2644 
L 63 2747 
Q 234 2816 414 2980 
Q 594 3144 734 3369 
Q 806 3488 934 3803 
L 1031 3803 
z
" transform="scale(0.015625)"/>
        <path id="TimesNewRomanPSMT-52" d="M 4325 0 
L 3194 0 
L 1759 1981 
Q 1600 1975 1500 1975 
Q 1459 1975 1412 1976 
Q 1366 1978 1316 1981 
L 1316 750 
Q 1316 350 1403 253 
Q 1522 116 1759 116 
L 1925 116 
L 1925 0 
L 109 0 
L 109 116 
L 269 116 
Q 538 116 653 291 
Q 719 388 719 750 
L 719 3488 
Q 719 3888 631 3984 
Q 509 4122 269 4122 
L 109 4122 
L 109 4238 
L 1653 4238 
Q 2328 4238 2648 4139 
Q 2969 4041 3192 3777 
Q 3416 3513 3416 3147 
Q 3416 2756 3161 2468 
Q 2906 2181 2372 2063 
L 3247 847 
Q 3547 428 3762 290 
Q 3978 153 4325 116 
L 4325 0 
z
M 1316 2178 
Q 1375 2178 1419 2176 
Q 1463 2175 1491 2175 
Q 2097 2175 2405 2437 
Q 2713 2700 2713 3106 
Q 2713 3503 2464 3751 
Q 2216 4000 1806 4000 
Q 1625 4000 1316 3941 
L 1316 2178 
z
" transform="scale(0.015625)"/>
        <path id="TimesNewRomanPSMT-6e" d="M 1034 2341 
Q 1538 2947 1994 2947 
Q 2228 2947 2397 2830 
Q 2566 2713 2666 2444 
Q 2734 2256 2734 1869 
L 2734 647 
Q 2734 375 2778 278 
Q 2813 200 2889 156 
Q 2966 113 3172 113 
L 3172 0 
L 1756 0 
L 1756 113 
L 1816 113 
Q 2016 113 2095 173 
Q 2175 234 2206 353 
Q 2219 400 2219 647 
L 2219 1819 
Q 2219 2209 2117 2386 
Q 2016 2563 1775 2563 
Q 1403 2563 1034 2156 
L 1034 647 
Q 1034 356 1069 288 
Q 1113 197 1189 155 
Q 1266 113 1500 113 
L 1500 0 
L 84 0 
L 84 113 
L 147 113 
Q 366 113 442 223 
Q 519 334 519 647 
L 519 1709 
Q 519 2225 495 2337 
Q 472 2450 423 2490 
Q 375 2531 294 2531 
Q 206 2531 84 2484 
L 38 2597 
L 900 2947 
L 1034 2947 
L 1034 2341 
z
" transform="scale(0.015625)"/>
       </defs>
       <use xlink:href="#TimesNewRomanPSMT-42"/>
       <use xlink:href="#TimesNewRomanPSMT-75" x="66.699219"/>
       <use xlink:href="#TimesNewRomanPSMT-66" x="116.699219"/>
       <use xlink:href="#TimesNewRomanPSMT-66" x="148.25"/>
       <use xlink:href="#TimesNewRomanPSMT-65" x="181.550781"/>
       <use xlink:href="#TimesNewRomanPSMT-74" x="225.935547"/>
       <use xlink:href="#TimesNewRomanPSMT-20" x="253.71875"/>
       <use xlink:href="#TimesNewRomanPSMT-52" x="278.71875"/>
       <use xlink:href="#TimesNewRomanPSMT-65" x="345.417969"/>
       <use xlink:href="#TimesNewRomanPSMT-73" x="389.802734"/>
       <use xlink:href="#TimesNewRomanPSMT-74" x="428.71875"/>
       <use xlink:href="#TimesNewRomanPSMT-61" x="456.501953"/>
       <use xlink:href="#TimesNewRomanPSMT-75" x="500.886719"/>
       <use xlink:href="#TimesNewRomanPSMT-72" x="550.886719"/>
       <use xlink:href="#TimesNewRomanPSMT-61" x="584.1875"/>
       <use xlink:href="#TimesNewRomanPSMT-6e" x="628.572266"/>
       <use xlink:href="#TimesNewRomanPSMT-74" x="678.572266"/>
       <use xlink:href="#TimesNewRomanPSMT-73" x="706.355469"/>
      </g>
     </g>
    </g>
    <g id="xtick_3">
     <g id="line2d_3">
      <g>
       <use xlink:href="#md51decccc1" x="286.415937" y="234.780768" style="stroke: #000000; stroke-width: 0.8"/>
      </g>
     </g>
     <g id="text_3">
      <!-- Food Trucks -->
      <g transform="translate(241.91594 290.357679) rotate(-45) scale(0.12 -0.12)">
       <defs>
        <path id="TimesNewRomanPSMT-46" d="M 1309 4006 
L 1309 2341 
L 2081 2341 
Q 2347 2341 2470 2458 
Q 2594 2575 2634 2922 
L 2750 2922 
L 2750 1488 
L 2634 1488 
Q 2631 1734 2570 1850 
Q 2509 1966 2401 2023 
Q 2294 2081 2081 2081 
L 1309 2081 
L 1309 750 
Q 1309 428 1350 325 
Q 1381 247 1481 191 
Q 1619 116 1769 116 
L 1922 116 
L 1922 0 
L 103 0 
L 103 116 
L 253 116 
Q 516 116 634 269 
Q 709 369 709 750 
L 709 3488 
Q 709 3809 669 3913 
Q 638 3991 541 4047 
Q 406 4122 253 4122 
L 103 4122 
L 103 4238 
L 3256 4238 
L 3297 3306 
L 3188 3306 
Q 3106 3603 2998 3742 
Q 2891 3881 2733 3943 
Q 2575 4006 2244 4006 
L 1309 4006 
z
" transform="scale(0.015625)"/>
        <path id="TimesNewRomanPSMT-6f" d="M 1600 2947 
Q 2250 2947 2644 2453 
Q 2978 2031 2978 1484 
Q 2978 1100 2793 706 
Q 2609 313 2286 112 
Q 1963 -88 1566 -88 
Q 919 -88 538 428 
Q 216 863 216 1403 
Q 216 1797 411 2186 
Q 606 2575 925 2761 
Q 1244 2947 1600 2947 
z
M 1503 2744 
Q 1338 2744 1170 2645 
Q 1003 2547 900 2300 
Q 797 2053 797 1666 
Q 797 1041 1045 587 
Q 1294 134 1700 134 
Q 2003 134 2200 384 
Q 2397 634 2397 1244 
Q 2397 2006 2069 2444 
Q 1847 2744 1503 2744 
z
" transform="scale(0.015625)"/>
        <path id="TimesNewRomanPSMT-64" d="M 2222 322 
Q 2013 103 1813 7 
Q 1613 -88 1381 -88 
Q 913 -88 563 304 
Q 213 697 213 1313 
Q 213 1928 600 2439 
Q 988 2950 1597 2950 
Q 1975 2950 2222 2709 
L 2222 3238 
Q 2222 3728 2198 3840 
Q 2175 3953 2125 3993 
Q 2075 4034 2000 4034 
Q 1919 4034 1784 3984 
L 1744 4094 
L 2597 4444 
L 2738 4444 
L 2738 1134 
Q 2738 631 2761 520 
Q 2784 409 2836 365 
Q 2888 322 2956 322 
Q 3041 322 3181 375 
L 3216 266 
L 2366 -88 
L 2222 -88 
L 2222 322 
z
M 2222 541 
L 2222 2016 
Q 2203 2228 2109 2403 
Q 2016 2578 1861 2667 
Q 1706 2756 1559 2756 
Q 1284 2756 1069 2509 
Q 784 2184 784 1559 
Q 784 928 1059 592 
Q 1334 256 1672 256 
Q 1956 256 2222 541 
z
" transform="scale(0.015625)"/>
        <path id="TimesNewRomanPSMT-54" d="M 3703 4238 
L 3750 3244 
L 3631 3244 
Q 3597 3506 3538 3619 
Q 3441 3800 3280 3886 
Q 3119 3972 2856 3972 
L 2259 3972 
L 2259 734 
Q 2259 344 2344 247 
Q 2463 116 2709 116 
L 2856 116 
L 2856 0 
L 1059 0 
L 1059 116 
L 1209 116 
Q 1478 116 1591 278 
Q 1659 378 1659 734 
L 1659 3972 
L 1150 3972 
Q 853 3972 728 3928 
Q 566 3869 450 3700 
Q 334 3531 313 3244 
L 194 3244 
L 244 4238 
L 3703 4238 
z
" transform="scale(0.015625)"/>
        <path id="TimesNewRomanPSMT-63" d="M 2631 1088 
Q 2516 522 2178 217 
Q 1841 -88 1431 -88 
Q 944 -88 581 321 
Q 219 731 219 1428 
Q 219 2103 620 2525 
Q 1022 2947 1584 2947 
Q 2006 2947 2278 2723 
Q 2550 2500 2550 2259 
Q 2550 2141 2473 2067 
Q 2397 1994 2259 1994 
Q 2075 1994 1981 2113 
Q 1928 2178 1911 2362 
Q 1894 2547 1784 2644 
Q 1675 2738 1481 2738 
Q 1169 2738 978 2506 
Q 725 2200 725 1697 
Q 725 1184 976 792 
Q 1228 400 1656 400 
Q 1963 400 2206 609 
Q 2378 753 2541 1131 
L 2631 1088 
z
" transform="scale(0.015625)"/>
        <path id="TimesNewRomanPSMT-6b" d="M 1047 4444 
L 1047 1597 
L 1775 2259 
Q 2006 2472 2044 2528 
Q 2069 2566 2069 2603 
Q 2069 2666 2017 2711 
Q 1966 2756 1847 2763 
L 1847 2863 
L 3091 2863 
L 3091 2763 
Q 2834 2756 2664 2684 
Q 2494 2613 2291 2428 
L 1556 1750 
L 2291 822 
Q 2597 438 2703 334 
Q 2853 188 2966 144 
Q 3044 113 3238 113 
L 3238 0 
L 1847 0 
L 1847 113 
Q 1966 116 2008 148 
Q 2050 181 2050 241 
Q 2050 313 1925 472 
L 1047 1594 
L 1047 644 
Q 1047 366 1086 278 
Q 1125 191 1197 153 
Q 1269 116 1509 113 
L 1509 0 
L 53 0 
L 53 113 
Q 272 113 381 166 
Q 447 200 481 272 
Q 528 375 528 628 
L 528 3234 
Q 528 3731 506 3842 
Q 484 3953 434 3995 
Q 384 4038 303 4038 
Q 238 4038 106 3984 
L 53 4094 
L 903 4444 
L 1047 4444 
z
" transform="scale(0.015625)"/>
       </defs>
       <use xlink:href="#TimesNewRomanPSMT-46"/>
       <use xlink:href="#TimesNewRomanPSMT-6f" x="55.615234"/>
       <use xlink:href="#TimesNewRomanPSMT-6f" x="105.615234"/>
       <use xlink:href="#TimesNewRomanPSMT-64" x="155.615234"/>
       <use xlink:href="#TimesNewRomanPSMT-20" x="205.615234"/>
       <use xlink:href="#TimesNewRomanPSMT-54" x="228.865234"/>
       <use xlink:href="#TimesNewRomanPSMT-72" x="286.449219"/>
       <use xlink:href="#TimesNewRomanPSMT-75" x="319.75"/>
       <use xlink:href="#TimesNewRomanPSMT-63" x="369.75"/>
       <use xlink:href="#TimesNewRomanPSMT-6b" x="414.134766"/>
       <use xlink:href="#TimesNewRomanPSMT-73" x="464.134766"/>
      </g>
     </g>
    </g>
    <g id="xtick_4">
     <g id="line2d_4">
      <g>
       <use xlink:href="#md51decccc1" x="380.615937" y="234.780768" style="stroke: #000000; stroke-width: 0.8"/>
      </g>
     </g>
     <g id="text_4">
      <!-- Cafeterias -->
      <g transform="translate(344.406325 282.067293) rotate(-45) scale(0.12 -0.12)">
       <defs>
        <path id="TimesNewRomanPSMT-43" d="M 3853 4334 
L 3950 2894 
L 3853 2894 
Q 3659 3541 3300 3825 
Q 2941 4109 2438 4109 
Q 2016 4109 1675 3895 
Q 1334 3681 1139 3212 
Q 944 2744 944 2047 
Q 944 1472 1128 1050 
Q 1313 628 1683 403 
Q 2053 178 2528 178 
Q 2941 178 3256 354 
Q 3572 531 3950 1056 
L 4047 994 
Q 3728 428 3303 165 
Q 2878 -97 2294 -97 
Q 1241 -97 663 684 
Q 231 1266 231 2053 
Q 231 2688 515 3219 
Q 800 3750 1298 4042 
Q 1797 4334 2388 4334 
Q 2847 4334 3294 4109 
Q 3425 4041 3481 4041 
Q 3566 4041 3628 4100 
Q 3709 4184 3744 4334 
L 3853 4334 
z
" transform="scale(0.015625)"/>
        <path id="TimesNewRomanPSMT-69" d="M 928 4444 
Q 1059 4444 1151 4351 
Q 1244 4259 1244 4128 
Q 1244 3997 1151 3903 
Q 1059 3809 928 3809 
Q 797 3809 703 3903 
Q 609 3997 609 4128 
Q 609 4259 701 4351 
Q 794 4444 928 4444 
z
M 1188 2947 
L 1188 647 
Q 1188 378 1227 289 
Q 1266 200 1342 156 
Q 1419 113 1622 113 
L 1622 0 
L 231 0 
L 231 113 
Q 441 113 512 153 
Q 584 194 626 287 
Q 669 381 669 647 
L 669 1750 
Q 669 2216 641 2353 
Q 619 2453 572 2492 
Q 525 2531 444 2531 
Q 356 2531 231 2484 
L 188 2597 
L 1050 2947 
L 1188 2947 
z
" transform="scale(0.015625)"/>
       </defs>
       <use xlink:href="#TimesNewRomanPSMT-43"/>
       <use xlink:href="#TimesNewRomanPSMT-61" x="66.699219"/>
       <use xlink:href="#TimesNewRomanPSMT-66" x="111.083984"/>
       <use xlink:href="#TimesNewRomanPSMT-65" x="144.384766"/>
       <use xlink:href="#TimesNewRomanPSMT-74" x="188.769531"/>
       <use xlink:href="#TimesNewRomanPSMT-65" x="216.552734"/>
       <use xlink:href="#TimesNewRomanPSMT-72" x="260.9375"/>
       <use xlink:href="#TimesNewRomanPSMT-69" x="294.238281"/>
       <use xlink:href="#TimesNewRomanPSMT-61" x="322.021484"/>
       <use xlink:href="#TimesNewRomanPSMT-73" x="366.40625"/>
      </g>
     </g>
    </g>
   </g>
   <g id="matplotlib.axis_2">
    <g id="ytick_1">
     <g id="line2d_5">
      <defs>
       <path id="mc8080e197e" d="M 0 0 
L -3.5 0 
" style="stroke: #000000; stroke-width: 0.8"/>
      </defs>
      <g>
       <use xlink:href="#mc8080e197e" x="50.915938" y="228.686536" style="stroke: #000000; stroke-width: 0.8"/>
      </g>
     </g>
     <g id="text_5">
      <!-- 0 -->
      <g transform="translate(38.915938 232.158411) scale(0.1 -0.1)">
       <defs>
        <path id="TimesNewRomanPSMT-30" d="M 231 2094 
Q 231 2819 450 3342 
Q 669 3866 1031 4122 
Q 1313 4325 1613 4325 
Q 2100 4325 2488 3828 
Q 2972 3213 2972 2159 
Q 2972 1422 2759 906 
Q 2547 391 2217 158 
Q 1888 -75 1581 -75 
Q 975 -75 572 641 
Q 231 1244 231 2094 
z
M 844 2016 
Q 844 1141 1059 588 
Q 1238 122 1591 122 
Q 1759 122 1940 273 
Q 2122 425 2216 781 
Q 2359 1319 2359 2297 
Q 2359 3022 2209 3506 
Q 2097 3866 1919 4016 
Q 1791 4119 1609 4119 
Q 1397 4119 1231 3928 
Q 1006 3669 925 3112 
Q 844 2556 844 2016 
z
" transform="scale(0.015625)"/>
       </defs>
       <use xlink:href="#TimesNewRomanPSMT-30"/>
      </g>
     </g>
    </g>
    <g id="ytick_2">
     <g id="line2d_6">
      <g>
       <use xlink:href="#mc8080e197e" x="50.915938" y="194.87665" style="stroke: #000000; stroke-width: 0.8"/>
      </g>
     </g>
     <g id="text_6">
      <!-- 200 -->
      <g transform="translate(28.915938 198.348525) scale(0.1 -0.1)">
       <defs>
        <path id="TimesNewRomanPSMT-32" d="M 2934 816 
L 2638 0 
L 138 0 
L 138 116 
Q 1241 1122 1691 1759 
Q 2141 2397 2141 2925 
Q 2141 3328 1894 3587 
Q 1647 3847 1303 3847 
Q 991 3847 742 3664 
Q 494 3481 375 3128 
L 259 3128 
Q 338 3706 661 4015 
Q 984 4325 1469 4325 
Q 1984 4325 2329 3994 
Q 2675 3663 2675 3213 
Q 2675 2891 2525 2569 
Q 2294 2063 1775 1497 
Q 997 647 803 472 
L 1909 472 
Q 2247 472 2383 497 
Q 2519 522 2628 598 
Q 2738 675 2819 816 
L 2934 816 
z
" transform="scale(0.015625)"/>
       </defs>
       <use xlink:href="#TimesNewRomanPSMT-32"/>
       <use xlink:href="#TimesNewRomanPSMT-30" x="50"/>
       <use xlink:href="#TimesNewRomanPSMT-30" x="100"/>
      </g>
     </g>
    </g>
    <g id="ytick_3">
     <g id="line2d_7">
      <g>
       <use xlink:href="#mc8080e197e" x="50.915938" y="161.066763" style="stroke: #000000; stroke-width: 0.8"/>
      </g>
     </g>
     <g id="text_7">
      <!-- 400 -->
      <g transform="translate(28.915938 164.538638) scale(0.1 -0.1)">
       <defs>
        <path id="TimesNewRomanPSMT-34" d="M 2978 1563 
L 2978 1119 
L 2409 1119 
L 2409 0 
L 1894 0 
L 1894 1119 
L 100 1119 
L 100 1519 
L 2066 4325 
L 2409 4325 
L 2409 1563 
L 2978 1563 
z
M 1894 1563 
L 1894 3666 
L 406 1563 
L 1894 1563 
z
" transform="scale(0.015625)"/>
       </defs>
       <use xlink:href="#TimesNewRomanPSMT-34"/>
       <use xlink:href="#TimesNewRomanPSMT-30" x="50"/>
       <use xlink:href="#TimesNewRomanPSMT-30" x="100"/>
      </g>
     </g>
    </g>
    <g id="ytick_4">
     <g id="line2d_8">
      <g>
       <use xlink:href="#mc8080e197e" x="50.915938" y="127.256877" style="stroke: #000000; stroke-width: 0.8"/>
      </g>
     </g>
     <g id="text_8">
      <!-- 600 -->
      <g transform="translate(28.915938 130.728752) scale(0.1 -0.1)">
       <defs>
        <path id="TimesNewRomanPSMT-36" d="M 2869 4325 
L 2869 4209 
Q 2456 4169 2195 4045 
Q 1934 3922 1679 3669 
Q 1425 3416 1258 3105 
Q 1091 2794 978 2366 
Q 1428 2675 1881 2675 
Q 2316 2675 2634 2325 
Q 2953 1975 2953 1425 
Q 2953 894 2631 456 
Q 2244 -75 1606 -75 
Q 1172 -75 869 213 
Q 275 772 275 1663 
Q 275 2231 503 2743 
Q 731 3256 1154 3653 
Q 1578 4050 1965 4187 
Q 2353 4325 2688 4325 
L 2869 4325 
z
M 925 2138 
Q 869 1716 869 1456 
Q 869 1156 980 804 
Q 1091 453 1309 247 
Q 1469 100 1697 100 
Q 1969 100 2183 356 
Q 2397 613 2397 1088 
Q 2397 1622 2184 2012 
Q 1972 2403 1581 2403 
Q 1463 2403 1327 2353 
Q 1191 2303 925 2138 
z
" transform="scale(0.015625)"/>
       </defs>
       <use xlink:href="#TimesNewRomanPSMT-36"/>
       <use xlink:href="#TimesNewRomanPSMT-30" x="50"/>
       <use xlink:href="#TimesNewRomanPSMT-30" x="100"/>
      </g>
     </g>
    </g>
    <g id="ytick_5">
     <g id="line2d_9">
      <g>
       <use xlink:href="#mc8080e197e" x="50.915938" y="93.44699" style="stroke: #000000; stroke-width: 0.8"/>
      </g>
     </g>
     <g id="text_9">
      <!-- 800 -->
      <g transform="translate(28.915938 96.918865) scale(0.1 -0.1)">
       <defs>
        <path id="TimesNewRomanPSMT-38" d="M 1228 2134 
Q 725 2547 579 2797 
Q 434 3047 434 3316 
Q 434 3728 753 4026 
Q 1072 4325 1600 4325 
Q 2113 4325 2425 4047 
Q 2738 3769 2738 3413 
Q 2738 3175 2569 2928 
Q 2400 2681 1866 2347 
Q 2416 1922 2594 1678 
Q 2831 1359 2831 1006 
Q 2831 559 2490 242 
Q 2150 -75 1597 -75 
Q 994 -75 656 303 
Q 388 606 388 966 
Q 388 1247 577 1523 
Q 766 1800 1228 2134 
z
M 1719 2469 
Q 2094 2806 2194 3001 
Q 2294 3197 2294 3444 
Q 2294 3772 2109 3958 
Q 1925 4144 1606 4144 
Q 1288 4144 1088 3959 
Q 888 3775 888 3528 
Q 888 3366 970 3203 
Q 1053 3041 1206 2894 
L 1719 2469 
z
M 1375 2016 
Q 1116 1797 991 1539 
Q 866 1281 866 981 
Q 866 578 1086 336 
Q 1306 94 1647 94 
Q 1984 94 2187 284 
Q 2391 475 2391 747 
Q 2391 972 2272 1150 
Q 2050 1481 1375 2016 
z
" transform="scale(0.015625)"/>
       </defs>
       <use xlink:href="#TimesNewRomanPSMT-38"/>
       <use xlink:href="#TimesNewRomanPSMT-30" x="50"/>
       <use xlink:href="#TimesNewRomanPSMT-30" x="100"/>
      </g>
     </g>
    </g>
    <g id="ytick_6">
     <g id="line2d_10">
      <g>
       <use xlink:href="#mc8080e197e" x="50.915938" y="59.637103" style="stroke: #000000; stroke-width: 0.8"/>
      </g>
     </g>
     <g id="text_10">
      <!-- 1000 -->
      <g transform="translate(23.915938 63.108978) scale(0.1 -0.1)">
       <defs>
        <path id="TimesNewRomanPSMT-31" d="M 750 3822 
L 1781 4325 
L 1884 4325 
L 1884 747 
Q 1884 391 1914 303 
Q 1944 216 2037 169 
Q 2131 122 2419 116 
L 2419 0 
L 825 0 
L 825 116 
Q 1125 122 1212 167 
Q 1300 213 1334 289 
Q 1369 366 1369 747 
L 1369 3034 
Q 1369 3497 1338 3628 
Q 1316 3728 1258 3775 
Q 1200 3822 1119 3822 
Q 1003 3822 797 3725 
L 750 3822 
z
" transform="scale(0.015625)"/>
       </defs>
       <use xlink:href="#TimesNewRomanPSMT-31"/>
       <use xlink:href="#TimesNewRomanPSMT-30" x="50"/>
       <use xlink:href="#TimesNewRomanPSMT-30" x="100"/>
       <use xlink:href="#TimesNewRomanPSMT-30" x="150"/>
      </g>
     </g>
    </g>
    <g id="text_11">
     <!-- million USD -->
     <g transform="translate(16.92125 168.389603) rotate(-90) scale(0.14 -0.14)">
      <defs>
       <path id="TimesNewRomanPSMT-6d" d="M 1050 2338 
Q 1363 2650 1419 2697 
Q 1559 2816 1721 2881 
Q 1884 2947 2044 2947 
Q 2313 2947 2506 2790 
Q 2700 2634 2766 2338 
Q 3088 2713 3309 2830 
Q 3531 2947 3766 2947 
Q 3994 2947 4170 2830 
Q 4347 2713 4450 2447 
Q 4519 2266 4519 1878 
L 4519 647 
Q 4519 378 4559 278 
Q 4591 209 4675 161 
Q 4759 113 4950 113 
L 4950 0 
L 3538 0 
L 3538 113 
L 3597 113 
Q 3781 113 3884 184 
Q 3956 234 3988 344 
Q 4000 397 4000 647 
L 4000 1878 
Q 4000 2228 3916 2372 
Q 3794 2572 3525 2572 
Q 3359 2572 3192 2489 
Q 3025 2406 2788 2181 
L 2781 2147 
L 2788 2013 
L 2788 647 
Q 2788 353 2820 281 
Q 2853 209 2943 161 
Q 3034 113 3253 113 
L 3253 0 
L 1806 0 
L 1806 113 
Q 2044 113 2133 169 
Q 2222 225 2256 338 
Q 2272 391 2272 647 
L 2272 1878 
Q 2272 2228 2169 2381 
Q 2031 2581 1784 2581 
Q 1616 2581 1450 2491 
Q 1191 2353 1050 2181 
L 1050 647 
Q 1050 366 1089 281 
Q 1128 197 1204 155 
Q 1281 113 1516 113 
L 1516 0 
L 100 0 
L 100 113 
Q 297 113 375 155 
Q 453 197 493 289 
Q 534 381 534 647 
L 534 1741 
Q 534 2213 506 2350 
Q 484 2453 437 2492 
Q 391 2531 309 2531 
Q 222 2531 100 2484 
L 53 2597 
L 916 2947 
L 1050 2947 
L 1050 2338 
z
" transform="scale(0.015625)"/>
       <path id="TimesNewRomanPSMT-6c" d="M 1184 4444 
L 1184 647 
Q 1184 378 1223 290 
Q 1263 203 1344 158 
Q 1425 113 1647 113 
L 1647 0 
L 244 0 
L 244 113 
Q 441 113 512 153 
Q 584 194 625 287 
Q 666 381 666 647 
L 666 3247 
Q 666 3731 644 3842 
Q 622 3953 573 3993 
Q 525 4034 450 4034 
Q 369 4034 244 3984 
L 191 4094 
L 1044 4444 
L 1184 4444 
z
" transform="scale(0.015625)"/>
       <path id="TimesNewRomanPSMT-55" d="M 3053 4122 
L 3053 4238 
L 4553 4238 
L 4553 4122 
L 4394 4122 
Q 4144 4122 4009 3913 
Q 3944 3816 3944 3463 
L 3944 1744 
Q 3944 1106 3817 754 
Q 3691 403 3320 151 
Q 2950 -100 2313 -100 
Q 1619 -100 1259 140 
Q 900 381 750 788 
Q 650 1066 650 1831 
L 650 3488 
Q 650 3878 542 4000 
Q 434 4122 194 4122 
L 34 4122 
L 34 4238 
L 1866 4238 
L 1866 4122 
L 1703 4122 
Q 1441 4122 1328 3956 
Q 1250 3844 1250 3488 
L 1250 1641 
Q 1250 1394 1295 1075 
Q 1341 756 1459 578 
Q 1578 400 1801 284 
Q 2025 169 2350 169 
Q 2766 169 3094 350 
Q 3422 531 3542 814 
Q 3663 1097 3663 1772 
L 3663 3488 
Q 3663 3884 3575 3984 
Q 3453 4122 3213 4122 
L 3053 4122 
z
" transform="scale(0.015625)"/>
       <path id="TimesNewRomanPSMT-53" d="M 2934 4334 
L 2934 2869 
L 2819 2869 
Q 2763 3291 2617 3541 
Q 2472 3791 2203 3937 
Q 1934 4084 1647 4084 
Q 1322 4084 1109 3886 
Q 897 3688 897 3434 
Q 897 3241 1031 3081 
Q 1225 2847 1953 2456 
Q 2547 2138 2764 1967 
Q 2981 1797 3098 1565 
Q 3216 1334 3216 1081 
Q 3216 600 2842 251 
Q 2469 -97 1881 -97 
Q 1697 -97 1534 -69 
Q 1438 -53 1133 45 
Q 828 144 747 144 
Q 669 144 623 97 
Q 578 50 556 -97 
L 441 -97 
L 441 1356 
L 556 1356 
Q 638 900 775 673 
Q 913 447 1195 297 
Q 1478 147 1816 147 
Q 2206 147 2432 353 
Q 2659 559 2659 841 
Q 2659 997 2573 1156 
Q 2488 1316 2306 1453 
Q 2184 1547 1640 1851 
Q 1097 2156 867 2337 
Q 638 2519 519 2737 
Q 400 2956 400 3219 
Q 400 3675 750 4004 
Q 1100 4334 1641 4334 
Q 1978 4334 2356 4169 
Q 2531 4091 2603 4091 
Q 2684 4091 2736 4139 
Q 2788 4188 2819 4334 
L 2934 4334 
z
" transform="scale(0.015625)"/>
       <path id="TimesNewRomanPSMT-44" d="M 109 0 
L 109 116 
L 269 116 
Q 538 116 650 288 
Q 719 391 719 750 
L 719 3488 
Q 719 3884 631 3984 
Q 509 4122 269 4122 
L 109 4122 
L 109 4238 
L 1834 4238 
Q 2784 4238 3279 4022 
Q 3775 3806 4076 3303 
Q 4378 2800 4378 2141 
Q 4378 1256 3841 663 
Q 3238 0 2003 0 
L 109 0 
z
M 1319 306 
Q 1716 219 1984 219 
Q 2709 219 3187 728 
Q 3666 1238 3666 2109 
Q 3666 2988 3187 3494 
Q 2709 4000 1959 4000 
Q 1678 4000 1319 3909 
L 1319 306 
z
" transform="scale(0.015625)"/>
      </defs>
      <use xlink:href="#TimesNewRomanPSMT-6d"/>
      <use xlink:href="#TimesNewRomanPSMT-69" x="77.783203"/>
      <use xlink:href="#TimesNewRomanPSMT-6c" x="105.566406"/>
      <use xlink:href="#TimesNewRomanPSMT-6c" x="133.349609"/>
      <use xlink:href="#TimesNewRomanPSMT-69" x="161.132812"/>
      <use xlink:href="#TimesNewRomanPSMT-6f" x="188.916016"/>
      <use xlink:href="#TimesNewRomanPSMT-6e" x="238.916016"/>
      <use xlink:href="#TimesNewRomanPSMT-20" x="288.916016"/>
      <use xlink:href="#TimesNewRomanPSMT-55" x="313.916016"/>
      <use xlink:href="#TimesNewRomanPSMT-53" x="386.132812"/>
      <use xlink:href="#TimesNewRomanPSMT-44" x="441.748047"/>
     </g>
    </g>
   </g>
   <g id="patch_3">
    <path d="M 92.363937 165.757885 
L 103.667937 165.757885 
L 103.667937 113.141249 
L 92.363937 113.141249 
L 92.363937 165.757885 
L 92.363937 165.757885 
z
" clip-path="url(#p689ea017c5)" style="fill: none; stroke: #000000; stroke-linejoin: miter"/>
   </g>
   <g id="line2d_11">
    <path d="M 98.015938 165.757885 
L 98.015938 213.810186 
" clip-path="url(#p689ea017c5)" style="fill: none; stroke: #000000; stroke-linecap: square"/>
   </g>
   <g id="line2d_12">
    <path d="M 98.015938 113.141249 
L 98.015938 65.553833 
" clip-path="url(#p689ea017c5)" style="fill: none; stroke: #000000; stroke-linecap: square"/>
   </g>
   <g id="line2d_13">
    <path d="M 95.189937 213.810186 
L 100.841938 213.810186 
" clip-path="url(#p689ea017c5)" style="fill: none; stroke: #000000; stroke-linecap: square"/>
   </g>
   <g id="line2d_14">
    <path d="M 95.189937 65.553833 
L 100.841938 65.553833 
" clip-path="url(#p689ea017c5)" style="fill: none; stroke: #000000; stroke-linecap: square"/>
   </g>
   <g id="patch_4">
    <path d="M 186.563937 175.478227 
L 197.867938 175.478227 
L 197.867938 123.749101 
L 186.563937 123.749101 
L 186.563937 175.478227 
L 186.563937 175.478227 
z
" clip-path="url(#p689ea017c5)" style="fill: none; stroke: #000000; stroke-linejoin: miter"/>
   </g>
   <g id="line2d_15">
    <path d="M 192.215937 175.478227 
L 192.215937 225.474597 
" clip-path="url(#p689ea017c5)" style="fill: none; stroke: #000000; stroke-linecap: square"/>
   </g>
   <g id="line2d_16">
    <path d="M 192.215937 123.749101 
L 192.215937 89.220754 
" clip-path="url(#p689ea017c5)" style="fill: none; stroke: #000000; stroke-linecap: square"/>
   </g>
   <g id="line2d_17">
    <path d="M 189.389938 225.474597 
L 195.041937 225.474597 
" clip-path="url(#p689ea017c5)" style="fill: none; stroke: #000000; stroke-linecap: square"/>
   </g>
   <g id="line2d_18">
    <path d="M 189.389938 89.220754 
L 195.041937 89.220754 
" clip-path="url(#p689ea017c5)" style="fill: none; stroke: #000000; stroke-linecap: square"/>
   </g>
   <g id="patch_5">
    <path d="M 280.763937 153.501801 
L 292.067937 153.501801 
L 292.067937 109.675735 
L 280.763937 109.675735 
L 280.763937 153.501801 
L 280.763937 153.501801 
z
" clip-path="url(#p689ea017c5)" style="fill: none; stroke: #000000; stroke-linejoin: miter"/>
   </g>
   <g id="line2d_19">
    <path d="M 286.415937 153.501801 
L 286.415937 205.526764 
" clip-path="url(#p689ea017c5)" style="fill: none; stroke: #000000; stroke-linecap: square"/>
   </g>
   <g id="line2d_20">
    <path d="M 286.415937 109.675735 
L 286.415937 65.046685 
" clip-path="url(#p689ea017c5)" style="fill: none; stroke: #000000; stroke-linecap: square"/>
   </g>
   <g id="line2d_21">
    <path d="M 283.589938 205.526764 
L 289.241937 205.526764 
" clip-path="url(#p689ea017c5)" style="fill: none; stroke: #000000; stroke-linecap: square"/>
   </g>
   <g id="line2d_22">
    <path d="M 283.589938 65.046685 
L 289.241937 65.046685 
" clip-path="url(#p689ea017c5)" style="fill: none; stroke: #000000; stroke-linecap: square"/>
   </g>
   <g id="patch_6">
    <path d="M 374.963937 165.377524 
L 386.267937 165.377524 
L 386.267937 97.800013 
L 374.963937 97.800013 
L 374.963937 165.377524 
L 374.963937 165.377524 
z
" clip-path="url(#p689ea017c5)" style="fill: none; stroke: #000000; stroke-linejoin: miter"/>
   </g>
   <g id="line2d_23">
    <path d="M 380.615937 165.377524 
L 380.615937 224.798399 
" clip-path="url(#p689ea017c5)" style="fill: none; stroke: #000000; stroke-linecap: square"/>
   </g>
   <g id="line2d_24">
    <path d="M 380.615937 97.800013 
L 380.615937 39.351171 
" clip-path="url(#p689ea017c5)" style="fill: none; stroke: #000000; stroke-linecap: square"/>
   </g>
   <g id="line2d_25">
    <path d="M 377.789938 224.798399 
L 383.441937 224.798399 
" clip-path="url(#p689ea017c5)" style="fill: none; stroke: #000000; stroke-linecap: square"/>
   </g>
   <g id="line2d_26">
    <path d="M 377.789938 39.351171 
L 383.441937 39.351171 
" clip-path="url(#p689ea017c5)" style="fill: none; stroke: #000000; stroke-linecap: square"/>
   </g>
   <g id="line2d_27">
    <path d="M 92.363937 137.146268 
L 103.667937 137.146268 
" clip-path="url(#p689ea017c5)" style="fill: none; stroke: #000000; stroke-width: 1.5; stroke-linecap: square"/>
   </g>
   <g id="line2d_28">
    <path d="M 186.563937 155.150033 
L 197.867938 155.150033 
" clip-path="url(#p689ea017c5)" style="fill: none; stroke: #000000; stroke-width: 1.5; stroke-linecap: square"/>
   </g>
   <g id="line2d_29">
    <path d="M 280.763937 128.778321 
L 292.067937 128.778321 
" clip-path="url(#p689ea017c5)" style="fill: none; stroke: #000000; stroke-width: 1.5; stroke-linecap: square"/>
   </g>
   <g id="line2d_30">
    <path d="M 374.963937 131.483112 
L 386.267937 131.483112 
" clip-path="url(#p689ea017c5)" style="fill: none; stroke: #000000; stroke-width: 1.5; stroke-linecap: square"/>
   </g>
   <g id="patch_7">
    <path d="M 50.915938 234.780768 
L 50.915938 30.045 
" style="fill: none; stroke: #000000; stroke-linejoin: miter; stroke-linecap: square"/>
   </g>
   <g id="patch_8">
    <path d="M 427.715937 234.780768 
L 427.715937 30.045 
" style="fill: none; stroke: #000000; stroke-linejoin: miter; stroke-linecap: square"/>
   </g>
   <g id="patch_9">
    <path d="M 50.915938 234.780768 
L 427.715937 234.780768 
" style="fill: none; stroke: #000000; stroke-linejoin: miter; stroke-linecap: square"/>
   </g>
   <g id="patch_10">
    <path d="M 50.915938 30.045 
L 427.715937 30.045 
" style="fill: none; stroke: #000000; stroke-linejoin: miter; stroke-linecap: square"/>
   </g>
   <g id="text_12">
    <!-- Data on the sales by food and beverage sectors (million USD) -->
    <g transform="translate(31.769687 18.045) scale(0.16 -0.16)">
     <defs>
      <path id="TimesNewRomanPS-BoldMT-44" d="M 84 0 
L 84 116 
L 225 116 
Q 409 116 507 173 
Q 606 231 653 331 
Q 681 397 681 725 
L 681 3513 
Q 681 3838 647 3919 
Q 613 4000 508 4061 
Q 403 4122 225 4122 
L 84 4122 
L 84 4238 
L 1981 4238 
Q 2741 4238 3203 4031 
Q 3769 3778 4061 3265 
Q 4353 2753 4353 2106 
Q 4353 1659 4209 1282 
Q 4066 906 3837 661 
Q 3609 416 3311 267 
Q 3013 119 2581 38 
Q 2391 0 1981 0 
L 84 0 
z
M 1700 3997 
L 1700 691 
Q 1700 428 1725 368 
Q 1750 309 1809 278 
Q 1894 231 2053 231 
Q 2575 231 2850 588 
Q 3225 1069 3225 2081 
Q 3225 2897 2969 3384 
Q 2766 3766 2447 3903 
Q 2222 4000 1700 3997 
z
" transform="scale(0.015625)"/>
      <path id="TimesNewRomanPS-BoldMT-61" d="M 1828 431 
Q 1294 -41 869 -41 
Q 619 -41 453 123 
Q 288 288 288 534 
Q 288 869 575 1136 
Q 863 1403 1828 1847 
L 1828 2141 
Q 1828 2472 1792 2558 
Q 1756 2644 1656 2708 
Q 1556 2772 1431 2772 
Q 1228 2772 1097 2681 
Q 1016 2625 1016 2550 
Q 1016 2484 1103 2388 
Q 1222 2253 1222 2128 
Q 1222 1975 1108 1867 
Q 994 1759 809 1759 
Q 613 1759 480 1878 
Q 347 1997 347 2156 
Q 347 2381 525 2586 
Q 703 2791 1022 2900 
Q 1341 3009 1684 3009 
Q 2100 3009 2342 2832 
Q 2584 2656 2656 2450 
Q 2700 2319 2700 1847 
L 2700 713 
Q 2700 513 2715 461 
Q 2731 409 2762 384 
Q 2794 359 2834 359 
Q 2916 359 3000 475 
L 3094 400 
Q 2938 169 2770 64 
Q 2603 -41 2391 -41 
Q 2141 -41 2000 76 
Q 1859 194 1828 431 
z
M 1828 659 
L 1828 1638 
Q 1450 1416 1266 1163 
Q 1144 994 1144 822 
Q 1144 678 1247 569 
Q 1325 484 1466 484 
Q 1622 484 1828 659 
z
" transform="scale(0.015625)"/>
      <path id="TimesNewRomanPS-BoldMT-74" d="M 1375 3991 
L 1375 2922 
L 2069 2922 
L 2069 2613 
L 1375 2613 
L 1375 809 
Q 1375 556 1398 482 
Q 1422 409 1481 364 
Q 1541 319 1591 319 
Q 1794 319 1975 628 
L 2069 559 
Q 1816 -41 1247 -41 
Q 969 -41 776 114 
Q 584 269 531 459 
Q 500 566 500 1034 
L 500 2613 
L 119 2613 
L 119 2722 
Q 513 3000 789 3306 
Q 1066 3613 1272 3991 
L 1375 3991 
z
" transform="scale(0.015625)"/>
      <path id="TimesNewRomanPS-BoldMT-20" transform="scale(0.015625)"/>
      <path id="TimesNewRomanPS-BoldMT-6f" d="M 1594 3009 
Q 1975 3009 2303 2812 
Q 2631 2616 2801 2253 
Q 2972 1891 2972 1459 
Q 2972 838 2656 419 
Q 2275 -88 1603 -88 
Q 944 -88 587 375 
Q 231 838 231 1447 
Q 231 2075 595 2542 
Q 959 3009 1594 3009 
z
M 1606 2788 
Q 1447 2788 1333 2667 
Q 1219 2547 1183 2192 
Q 1147 1838 1147 1206 
Q 1147 872 1191 581 
Q 1225 359 1337 243 
Q 1450 128 1594 128 
Q 1734 128 1828 206 
Q 1950 313 1991 503 
Q 2053 800 2053 1703 
Q 2053 2234 1993 2432 
Q 1934 2631 1819 2722 
Q 1738 2788 1606 2788 
z
" transform="scale(0.015625)"/>
      <path id="TimesNewRomanPS-BoldMT-6e" d="M 1409 2922 
L 1409 2544 
Q 1634 2788 1840 2898 
Q 2047 3009 2284 3009 
Q 2569 3009 2756 2851 
Q 2944 2694 3006 2459 
Q 3056 2281 3056 1775 
L 3056 638 
Q 3056 300 3117 217 
Q 3178 134 3372 113 
L 3372 0 
L 1894 0 
L 1894 113 
Q 2059 134 2131 250 
Q 2181 328 2181 638 
L 2181 1938 
Q 2181 2297 2153 2390 
Q 2125 2484 2058 2536 
Q 1991 2588 1909 2588 
Q 1641 2588 1409 2203 
L 1409 638 
Q 1409 309 1470 221 
Q 1531 134 1697 113 
L 1697 0 
L 219 0 
L 219 113 
Q 403 131 481 231 
Q 534 300 534 638 
L 534 2288 
Q 534 2619 473 2700 
Q 413 2781 219 2806 
L 219 2922 
L 1409 2922 
z
" transform="scale(0.015625)"/>
      <path id="TimesNewRomanPS-BoldMT-68" d="M 1409 4238 
L 1409 2547 
Q 1650 2800 1850 2904 
Q 2050 3009 2266 3009 
Q 2541 3009 2736 2853 
Q 2931 2697 2995 2486 
Q 3059 2275 3059 1775 
L 3059 634 
Q 3059 300 3121 217 
Q 3184 134 3375 113 
L 3375 0 
L 1894 0 
L 1894 113 
Q 2050 134 2128 238 
Q 2184 319 2184 634 
L 2184 1938 
Q 2184 2300 2156 2392 
Q 2128 2484 2061 2536 
Q 1994 2588 1909 2588 
Q 1784 2588 1665 2502 
Q 1547 2416 1409 2200 
L 1409 634 
Q 1409 322 1456 244 
Q 1516 138 1700 113 
L 1700 0 
L 219 0 
L 219 113 
Q 403 131 481 231 
Q 534 300 534 634 
L 534 3603 
Q 534 3934 473 4015 
Q 413 4097 219 4122 
L 219 4238 
L 1409 4238 
z
" transform="scale(0.015625)"/>
      <path id="TimesNewRomanPS-BoldMT-65" d="M 2691 1566 
L 1088 1566 
Q 1116 984 1397 647 
Q 1613 388 1916 388 
Q 2103 388 2256 492 
Q 2409 597 2584 869 
L 2691 800 
Q 2453 316 2165 114 
Q 1878 -88 1500 -88 
Q 850 -88 516 413 
Q 247 816 247 1413 
Q 247 2144 642 2576 
Q 1038 3009 1569 3009 
Q 2013 3009 2339 2645 
Q 2666 2281 2691 1566 
z
M 1922 1775 
Q 1922 2278 1867 2465 
Q 1813 2653 1697 2750 
Q 1631 2806 1522 2806 
Q 1359 2806 1256 2647 
Q 1072 2369 1072 1884 
L 1072 1775 
L 1922 1775 
z
" transform="scale(0.015625)"/>
      <path id="TimesNewRomanPS-BoldMT-73" d="M 2063 3003 
L 2109 2006 
L 2003 2006 
Q 1813 2450 1608 2612 
Q 1403 2775 1200 2775 
Q 1072 2775 981 2689 
Q 891 2603 891 2491 
Q 891 2406 953 2328 
Q 1053 2200 1512 1889 
Q 1972 1578 2117 1361 
Q 2263 1144 2263 875 
Q 2263 631 2141 397 
Q 2019 163 1797 37 
Q 1575 -88 1306 -88 
Q 1097 -88 747 44 
Q 653 78 619 78 
Q 516 78 447 -78 
L 344 -78 
L 294 972 
L 400 972 
Q 541 559 786 353 
Q 1031 147 1250 147 
Q 1400 147 1495 239 
Q 1591 331 1591 463 
Q 1591 613 1497 722 
Q 1403 831 1078 1053 
Q 600 1384 459 1559 
Q 253 1816 253 2125 
Q 253 2463 486 2736 
Q 719 3009 1159 3009 
Q 1397 3009 1619 2894 
Q 1703 2847 1756 2847 
Q 1813 2847 1847 2870 
Q 1881 2894 1956 3003 
L 2063 3003 
z
" transform="scale(0.015625)"/>
      <path id="TimesNewRomanPS-BoldMT-6c" d="M 1359 4238 
L 1359 606 
Q 1359 297 1431 211 
Q 1503 125 1713 113 
L 1713 0 
L 134 0 
L 134 113 
Q 328 119 422 225 
Q 484 297 484 606 
L 484 3631 
Q 484 3938 412 4023 
Q 341 4109 134 4122 
L 134 4238 
L 1359 4238 
z
" transform="scale(0.015625)"/>
      <path id="TimesNewRomanPS-BoldMT-62" d="M 1347 4238 
L 1347 2628 
Q 1716 3009 2153 3009 
Q 2453 3009 2718 2832 
Q 2984 2656 3134 2331 
Q 3284 2006 3284 1581 
Q 3284 1103 3093 712 
Q 2903 322 2584 117 
Q 2266 -88 1856 -88 
Q 1619 -88 1434 -12 
Q 1250 63 1072 231 
L 588 -84 
L 481 -84 
L 481 3631 
Q 481 3884 459 3944 
Q 428 4031 361 4073 
Q 294 4116 134 4122 
L 134 4238 
L 1347 4238 
z
M 1347 2350 
L 1347 1050 
Q 1347 653 1366 544 
Q 1397 359 1515 245 
Q 1634 131 1819 131 
Q 1978 131 2092 222 
Q 2206 313 2282 581 
Q 2359 850 2359 1550 
Q 2359 2222 2191 2472 
Q 2069 2653 1863 2653 
Q 1594 2653 1347 2350 
z
" transform="scale(0.015625)"/>
      <path id="TimesNewRomanPS-BoldMT-79" d="M 1556 -119 
L 613 2047 
Q 400 2538 298 2650 
Q 197 2763 53 2806 
L 53 2922 
L 1606 2922 
L 1606 2806 
Q 1453 2800 1390 2747 
Q 1328 2694 1328 2619 
Q 1328 2500 1484 2150 
L 1984 1006 
L 2325 1891 
Q 2509 2363 2509 2547 
Q 2509 2663 2432 2731 
Q 2356 2800 2163 2806 
L 2163 2922 
L 3141 2922 
L 3141 2806 
Q 2997 2791 2906 2695 
Q 2816 2600 2603 2047 
L 1769 -119 
Q 1453 -931 1300 -1119 
Q 1084 -1381 759 -1381 
Q 500 -1381 339 -1232 
Q 178 -1084 178 -875 
Q 178 -694 289 -575 
Q 400 -456 563 -456 
Q 719 -456 814 -556 
Q 909 -656 913 -866 
Q 916 -984 941 -1019 
Q 966 -1053 1013 -1053 
Q 1088 -1053 1172 -963 
Q 1297 -831 1466 -363 
L 1556 -119 
z
" transform="scale(0.015625)"/>
      <path id="TimesNewRomanPS-BoldMT-66" d="M 1497 2616 
L 1497 588 
Q 1497 294 1559 219 
Q 1659 103 1928 113 
L 1928 0 
L 206 0 
L 206 113 
Q 403 116 486 158 
Q 569 200 600 275 
Q 631 350 631 588 
L 631 2616 
L 206 2616 
L 206 2922 
L 631 2922 
L 631 3138 
L 628 3284 
Q 628 3734 958 4034 
Q 1288 4334 1850 4334 
Q 2234 4334 2420 4190 
Q 2606 4047 2606 3872 
Q 2606 3731 2490 3628 
Q 2375 3525 2184 3525 
Q 2022 3525 1926 3609 
Q 1831 3694 1831 3797 
Q 1831 3825 1850 3913 
Q 1863 3966 1863 4013 
Q 1863 4078 1825 4109 
Q 1775 4156 1703 4156 
Q 1613 4156 1552 4081 
Q 1491 4006 1491 3841 
L 1497 3294 
L 1497 2922 
L 1928 2922 
L 1928 2616 
L 1497 2616 
z
" transform="scale(0.015625)"/>
      <path id="TimesNewRomanPS-BoldMT-64" d="M 3056 4238 
L 3056 875 
Q 3056 534 3075 472 
Q 3100 369 3170 319 
Q 3241 269 3416 256 
L 3416 153 
L 2181 -88 
L 2181 375 
Q 1959 106 1786 9 
Q 1613 -88 1394 -88 
Q 834 -88 509 413 
Q 247 819 247 1409 
Q 247 1881 409 2254 
Q 572 2628 855 2818 
Q 1138 3009 1463 3009 
Q 1672 3009 1834 2928 
Q 1997 2847 2181 2644 
L 2181 3525 
Q 2181 3859 2153 3928 
Q 2116 4019 2041 4062 
Q 1966 4106 1759 4106 
L 1759 4238 
L 3056 4238 
z
M 2181 2256 
Q 1950 2700 1616 2700 
Q 1500 2700 1425 2638 
Q 1309 2541 1236 2297 
Q 1163 2053 1163 1550 
Q 1163 997 1244 731 
Q 1325 466 1466 347 
Q 1538 288 1663 288 
Q 1938 288 2181 719 
L 2181 2256 
z
" transform="scale(0.015625)"/>
      <path id="TimesNewRomanPS-BoldMT-76" d="M 1534 -88 
L 550 2178 
Q 372 2588 272 2697 
Q 200 2778 59 2806 
L 59 2922 
L 1613 2922 
L 1613 2806 
Q 1466 2806 1413 2753 
Q 1338 2684 1338 2591 
Q 1338 2475 1475 2156 
L 1956 1059 
L 2341 2006 
Q 2506 2413 2506 2581 
Q 2506 2678 2436 2739 
Q 2366 2800 2188 2806 
L 2188 2922 
L 3144 2922 
L 3144 2806 
Q 3006 2788 2918 2703 
Q 2831 2619 2656 2206 
L 1681 -88 
L 1534 -88 
z
" transform="scale(0.015625)"/>
      <path id="TimesNewRomanPS-BoldMT-72" d="M 1428 2922 
L 1428 2259 
Q 1719 2713 1937 2861 
Q 2156 3009 2359 3009 
Q 2534 3009 2639 2901 
Q 2744 2794 2744 2597 
Q 2744 2388 2642 2272 
Q 2541 2156 2397 2156 
Q 2231 2156 2109 2262 
Q 1988 2369 1966 2381 
Q 1934 2400 1894 2400 
Q 1803 2400 1722 2331 
Q 1594 2225 1528 2028 
Q 1428 1725 1428 1359 
L 1428 688 
L 1431 513 
Q 1431 334 1453 284 
Q 1491 200 1564 161 
Q 1638 122 1813 113 
L 1813 0 
L 234 0 
L 234 113 
Q 425 128 492 217 
Q 559 306 559 688 
L 559 2303 
Q 559 2553 534 2622 
Q 503 2709 443 2750 
Q 384 2791 234 2806 
L 234 2922 
L 1428 2922 
z
" transform="scale(0.015625)"/>
      <path id="TimesNewRomanPS-BoldMT-67" d="M 2091 2888 
L 3075 2888 
L 3075 2544 
L 2516 2544 
Q 2669 2391 2728 2266 
Q 2803 2097 2803 1913 
Q 2803 1600 2629 1370 
Q 2456 1141 2157 1011 
Q 1859 881 1628 881 
Q 1609 881 1253 897 
Q 1113 897 1017 805 
Q 922 713 922 584 
Q 922 472 1008 400 
Q 1094 328 1288 328 
L 1828 334 
Q 2484 334 2731 191 
Q 3084 -9 3084 -425 
Q 3084 -691 2921 -908 
Q 2759 -1125 2494 -1228 
Q 2091 -1381 1566 -1381 
Q 1172 -1381 847 -1304 
Q 522 -1228 381 -1092 
Q 241 -956 241 -806 
Q 241 -663 348 -548 
Q 456 -434 750 -356 
Q 344 -156 344 200 
Q 344 416 509 619 
Q 675 822 1034 972 
Q 616 1125 428 1375 
Q 241 1625 241 1953 
Q 241 2381 591 2695 
Q 941 3009 1491 3009 
Q 1781 3009 2091 2888 
z
M 1550 2816 
Q 1369 2816 1244 2633 
Q 1119 2450 1119 1875 
Q 1119 1409 1242 1236 
Q 1366 1063 1534 1063 
Q 1722 1063 1847 1234 
Q 1972 1406 1972 1903 
Q 1972 2463 1831 2666 
Q 1731 2816 1550 2816 
z
M 1366 -431 
Q 1047 -431 944 -484 
Q 766 -581 766 -747 
Q 766 -906 950 -1036 
Q 1134 -1166 1644 -1166 
Q 2078 -1166 2326 -1050 
Q 2575 -934 2575 -725 
Q 2575 -647 2528 -594 
Q 2444 -500 2273 -465 
Q 2103 -431 1366 -431 
z
" transform="scale(0.015625)"/>
      <path id="TimesNewRomanPS-BoldMT-63" d="M 2600 753 
L 2697 678 
Q 2491 291 2183 101 
Q 1875 -88 1528 -88 
Q 944 -88 594 353 
Q 244 794 244 1413 
Q 244 2009 563 2463 
Q 947 3009 1622 3009 
Q 2075 3009 2342 2781 
Q 2609 2553 2609 2272 
Q 2609 2094 2501 1987 
Q 2394 1881 2219 1881 
Q 2034 1881 1914 2003 
Q 1794 2125 1766 2438 
Q 1747 2634 1675 2713 
Q 1603 2791 1506 2791 
Q 1356 2791 1250 2631 
Q 1088 2391 1088 1894 
Q 1088 1481 1219 1104 
Q 1350 728 1578 544 
Q 1750 409 1984 409 
Q 2138 409 2275 481 
Q 2413 553 2600 753 
z
" transform="scale(0.015625)"/>
      <path id="TimesNewRomanPS-BoldMT-28" d="M 2056 4334 
L 2056 4191 
Q 1731 3978 1578 3775 
Q 1366 3494 1247 3053 
Q 1097 2506 1097 1525 
Q 1097 600 1233 87 
Q 1369 -425 1603 -741 
Q 1766 -959 2056 -1125 
L 2056 -1281 
Q 1303 -1028 779 -248 
Q 256 531 256 1544 
Q 256 2544 778 3314 
Q 1300 4084 2056 4334 
z
" transform="scale(0.015625)"/>
      <path id="TimesNewRomanPS-BoldMT-6d" d="M 1428 2922 
L 1428 2538 
Q 1669 2800 1873 2904 
Q 2078 3009 2322 3009 
Q 2603 3009 2793 2878 
Q 2984 2747 3088 2478 
Q 3338 2759 3567 2884 
Q 3797 3009 4047 3009 
Q 4350 3009 4529 2870 
Q 4709 2731 4779 2517 
Q 4850 2303 4850 1834 
L 4850 638 
Q 4850 300 4911 219 
Q 4972 138 5166 113 
L 5166 0 
L 3656 0 
L 3656 113 
Q 3834 128 3919 250 
Q 3975 334 3975 638 
L 3975 1894 
Q 3975 2284 3944 2390 
Q 3913 2497 3845 2548 
Q 3778 2600 3688 2600 
Q 3553 2600 3415 2501 
Q 3278 2403 3138 2206 
L 3138 638 
Q 3138 322 3191 241 
Q 3263 125 3466 113 
L 3466 0 
L 1953 0 
L 1953 113 
Q 2075 119 2145 173 
Q 2216 228 2239 304 
Q 2263 381 2263 638 
L 2263 1894 
Q 2263 2291 2231 2391 
Q 2200 2491 2126 2547 
Q 2053 2603 1969 2603 
Q 1844 2603 1741 2538 
Q 1594 2441 1428 2206 
L 1428 638 
Q 1428 328 1489 229 
Q 1550 131 1744 113 
L 1744 0 
L 238 0 
L 238 113 
Q 422 131 500 231 
Q 553 300 553 638 
L 553 2288 
Q 553 2619 492 2700 
Q 431 2781 238 2806 
L 238 2922 
L 1428 2922 
z
" transform="scale(0.015625)"/>
      <path id="TimesNewRomanPS-BoldMT-69" d="M 919 4338 
Q 1122 4338 1262 4195 
Q 1403 4053 1403 3853 
Q 1403 3653 1261 3512 
Q 1119 3372 919 3372 
Q 719 3372 578 3512 
Q 438 3653 438 3853 
Q 438 4053 578 4195 
Q 719 4338 919 4338 
z
M 1356 2922 
L 1356 606 
Q 1356 297 1428 211 
Q 1500 125 1709 113 
L 1709 0 
L 131 0 
L 131 113 
Q 325 119 419 225 
Q 481 297 481 606 
L 481 2313 
Q 481 2622 409 2708 
Q 338 2794 131 2806 
L 131 2922 
L 1356 2922 
z
" transform="scale(0.015625)"/>
      <path id="TimesNewRomanPS-BoldMT-55" d="M 150 4238 
L 2338 4238 
L 2338 4122 
L 2228 4122 
Q 1981 4122 1889 4070 
Q 1797 4019 1758 3928 
Q 1719 3838 1719 3475 
L 1719 1400 
Q 1719 831 1805 647 
Q 1891 463 2087 341 
Q 2284 219 2584 219 
Q 2928 219 3170 373 
Q 3413 528 3533 800 
Q 3653 1072 3653 1747 
L 3653 3475 
Q 3653 3759 3593 3881 
Q 3534 4003 3444 4050 
Q 3303 4122 3047 4122 
L 3047 4238 
L 4513 4238 
L 4513 4122 
L 4425 4122 
Q 4247 4122 4128 4050 
Q 4009 3978 3956 3834 
Q 3916 3734 3916 3475 
L 3916 1866 
Q 3916 1119 3817 787 
Q 3719 456 3337 178 
Q 2956 -100 2297 -100 
Q 1747 -100 1447 47 
Q 1038 247 869 559 
Q 700 872 700 1400 
L 700 3475 
Q 700 3841 659 3930 
Q 619 4019 519 4072 
Q 419 4125 150 4122 
L 150 4238 
z
" transform="scale(0.015625)"/>
      <path id="TimesNewRomanPS-BoldMT-53" d="M 3006 4334 
L 3041 2922 
L 2913 2922 
Q 2822 3453 2467 3776 
Q 2113 4100 1700 4100 
Q 1381 4100 1195 3929 
Q 1009 3759 1009 3538 
Q 1009 3397 1075 3288 
Q 1166 3141 1366 2997 
Q 1513 2894 2044 2631 
Q 2788 2266 3047 1941 
Q 3303 1616 3303 1197 
Q 3303 666 2889 283 
Q 2475 -100 1838 -100 
Q 1638 -100 1459 -59 
Q 1281 -19 1013 94 
Q 863 156 766 156 
Q 684 156 593 93 
Q 503 31 447 -97 
L 331 -97 
L 331 1503 
L 447 1503 
Q 584 828 976 473 
Q 1369 119 1822 119 
Q 2172 119 2380 309 
Q 2588 500 2588 753 
Q 2588 903 2508 1043 
Q 2428 1184 2265 1311 
Q 2103 1438 1691 1641 
Q 1113 1925 859 2125 
Q 606 2325 470 2572 
Q 334 2819 334 3116 
Q 334 3622 706 3978 
Q 1078 4334 1644 4334 
Q 1850 4334 2044 4284 
Q 2191 4247 2402 4145 
Q 2613 4044 2697 4044 
Q 2778 4044 2825 4094 
Q 2872 4144 2913 4334 
L 3006 4334 
z
" transform="scale(0.015625)"/>
      <path id="TimesNewRomanPS-BoldMT-29" d="M 78 -1281 
L 78 -1138 
Q 403 -922 556 -719 
Q 766 -438 888 0 
Q 1038 550 1038 1531 
Q 1038 2456 902 2967 
Q 766 3478 531 3794 
Q 369 4013 78 4178 
L 78 4334 
Q 831 4081 1354 3301 
Q 1878 2522 1878 1509 
Q 1878 513 1354 -257 
Q 831 -1028 78 -1281 
z
" transform="scale(0.015625)"/>
     </defs>
     <use xlink:href="#TimesNewRomanPS-BoldMT-44"/>
     <use xlink:href="#TimesNewRomanPS-BoldMT-61" x="72.216797"/>
     <use xlink:href="#TimesNewRomanPS-BoldMT-74" x="122.216797"/>
     <use xlink:href="#TimesNewRomanPS-BoldMT-61" x="155.517578"/>
     <use xlink:href="#TimesNewRomanPS-BoldMT-20" x="205.517578"/>
     <use xlink:href="#TimesNewRomanPS-BoldMT-6f" x="230.517578"/>
     <use xlink:href="#TimesNewRomanPS-BoldMT-6e" x="280.517578"/>
     <use xlink:href="#TimesNewRomanPS-BoldMT-20" x="336.132812"/>
     <use xlink:href="#TimesNewRomanPS-BoldMT-74" x="361.132812"/>
     <use xlink:href="#TimesNewRomanPS-BoldMT-68" x="394.433594"/>
     <use xlink:href="#TimesNewRomanPS-BoldMT-65" x="450.048828"/>
     <use xlink:href="#TimesNewRomanPS-BoldMT-20" x="494.433594"/>
     <use xlink:href="#TimesNewRomanPS-BoldMT-73" x="519.433594"/>
     <use xlink:href="#TimesNewRomanPS-BoldMT-61" x="558.349609"/>
     <use xlink:href="#TimesNewRomanPS-BoldMT-6c" x="608.349609"/>
     <use xlink:href="#TimesNewRomanPS-BoldMT-65" x="636.132812"/>
     <use xlink:href="#TimesNewRomanPS-BoldMT-73" x="680.517578"/>
     <use xlink:href="#TimesNewRomanPS-BoldMT-20" x="719.433594"/>
     <use xlink:href="#TimesNewRomanPS-BoldMT-62" x="744.433594"/>
     <use xlink:href="#TimesNewRomanPS-BoldMT-79" x="800.048828"/>
     <use xlink:href="#TimesNewRomanPS-BoldMT-20" x="850.048828"/>
     <use xlink:href="#TimesNewRomanPS-BoldMT-66" x="875.048828"/>
     <use xlink:href="#TimesNewRomanPS-BoldMT-6f" x="908.349609"/>
     <use xlink:href="#TimesNewRomanPS-BoldMT-6f" x="958.349609"/>
     <use xlink:href="#TimesNewRomanPS-BoldMT-64" x="1008.349609"/>
     <use xlink:href="#TimesNewRomanPS-BoldMT-20" x="1063.964844"/>
     <use xlink:href="#TimesNewRomanPS-BoldMT-61" x="1088.964844"/>
     <use xlink:href="#TimesNewRomanPS-BoldMT-6e" x="1138.964844"/>
     <use xlink:href="#TimesNewRomanPS-BoldMT-64" x="1194.580078"/>
     <use xlink:href="#TimesNewRomanPS-BoldMT-20" x="1250.195312"/>
     <use xlink:href="#TimesNewRomanPS-BoldMT-62" x="1275.195312"/>
     <use xlink:href="#TimesNewRomanPS-BoldMT-65" x="1330.810547"/>
     <use xlink:href="#TimesNewRomanPS-BoldMT-76" x="1375.195312"/>
     <use xlink:href="#TimesNewRomanPS-BoldMT-65" x="1425.195312"/>
     <use xlink:href="#TimesNewRomanPS-BoldMT-72" x="1469.580078"/>
     <use xlink:href="#TimesNewRomanPS-BoldMT-61" x="1513.964844"/>
     <use xlink:href="#TimesNewRomanPS-BoldMT-67" x="1563.964844"/>
     <use xlink:href="#TimesNewRomanPS-BoldMT-65" x="1613.964844"/>
     <use xlink:href="#TimesNewRomanPS-BoldMT-20" x="1658.349609"/>
     <use xlink:href="#TimesNewRomanPS-BoldMT-73" x="1683.349609"/>
     <use xlink:href="#TimesNewRomanPS-BoldMT-65" x="1722.265625"/>
     <use xlink:href="#TimesNewRomanPS-BoldMT-63" x="1766.650391"/>
     <use xlink:href="#TimesNewRomanPS-BoldMT-74" x="1811.035156"/>
     <use xlink:href="#TimesNewRomanPS-BoldMT-6f" x="1844.335938"/>
     <use xlink:href="#TimesNewRomanPS-BoldMT-72" x="1894.335938"/>
     <use xlink:href="#TimesNewRomanPS-BoldMT-73" x="1938.720703"/>
     <use xlink:href="#TimesNewRomanPS-BoldMT-20" x="1977.636719"/>
     <use xlink:href="#TimesNewRomanPS-BoldMT-28" x="2002.636719"/>
     <use xlink:href="#TimesNewRomanPS-BoldMT-6d" x="2035.9375"/>
     <use xlink:href="#TimesNewRomanPS-BoldMT-69" x="2119.238281"/>
     <use xlink:href="#TimesNewRomanPS-BoldMT-6c" x="2147.021484"/>
     <use xlink:href="#TimesNewRomanPS-BoldMT-6c" x="2174.804688"/>
     <use xlink:href="#TimesNewRomanPS-BoldMT-69" x="2202.587891"/>
     <use xlink:href="#TimesNewRomanPS-BoldMT-6f" x="2230.371094"/>
     <use xlink:href="#TimesNewRomanPS-BoldMT-6e" x="2280.371094"/>
     <use xlink:href="#TimesNewRomanPS-BoldMT-20" x="2335.986328"/>
     <use xlink:href="#TimesNewRomanPS-BoldMT-55" x="2360.986328"/>
     <use xlink:href="#TimesNewRomanPS-BoldMT-53" x="2433.203125"/>
     <use xlink:href="#TimesNewRomanPS-BoldMT-44" x="2488.818359"/>
     <use xlink:href="#TimesNewRomanPS-BoldMT-29" x="2561.035156"/>
    </g>
   </g>
  </g>
 </g>
 <defs>
  <clipPath id="p689ea017c5">
   <rect x="50.915938" y="30.045" width="376.8" height="204.735768"/>
  </clipPath>
 </defs>
</svg>
