<?xml version="1.0" encoding="utf-8" standalone="no"?>
<!DOCTYPE svg PUBLIC "-//W3C//DTD SVG 1.1//EN"
  "http://www.w3.org/Graphics/SVG/1.1/DTD/svg11.dtd">
<svg xmlns:xlink="http://www.w3.org/1999/xlink" width="458.359687pt" height="319.934957pt" viewBox="0 0 458.359687 319.934957" xmlns="http://www.w3.org/2000/svg" version="1.1">
 <metadata>
  <rdf:RDF xmlns:dc="http://purl.org/dc/elements/1.1/" xmlns:cc="http://creativecommons.org/ns#" xmlns:rdf="http://www.w3.org/1999/02/22-rdf-syntax-ns#">
   <cc:Work>
    <dc:type rdf:resource="http://purl.org/dc/dcmitype/StillImage"/>
    <dc:date>2025-05-26T16:56:39.626944</dc:date>
    <dc:format>image/svg+xml</dc:format>
    <dc:creator>
     <cc:Agent>
      <dc:title>Matplotlib v3.7.2, https://matplotlib.org/</dc:title>
     </cc:Agent>
    </dc:creator>
   </cc:Work>
  </rdf:RDF>
 </metadata>
 <defs>
  <style type="text/css">*{stroke-linejoin: round; stroke-linecap: butt}</style>
 </defs>
 <g id="figure_1">
  <g id="patch_1">
   <path d="M 0 319.934957 
L 458.359687 319.934957 
L 458.359687 0 
L 0 0 
z
" style="fill: #ffffff"/>
  </g>
  <g id="axes_1">
   <g id="patch_2">
    <path d="M 50.915938 258.900181 
L 427.715937 258.900181 
L 427.715937 30.045 
L 50.915938 30.045 
z
" style="fill: #ffffff"/>
   </g>
   <g id="PolyCollection_1">
    <defs>
     <path id="mb903781661" d="M 100.523425 -98.631939 
L 95.50845 -98.631939 
L 95.29479 -100.035555 
L 95.066564 -101.439172 
L 94.819423 -102.842789 
L 94.548662 -104.246406 
L 94.249591 -105.650022 
L 93.917943 -107.053639 
L 93.550286 -108.457256 
L 93.144382 -109.860872 
L 92.699463 -111.264489 
L 92.216385 -112.668106 
L 91.697639 -114.071722 
L 91.147213 -115.475339 
L 90.570313 -116.878956 
L 89.972975 -118.282573 
L 89.361595 -119.686189 
L 88.742439 -121.089806 
L 88.121169 -122.493423 
L 87.502438 -123.897039 
L 86.889587 -125.300656 
L 86.28447 -126.704273 
L 85.687414 -128.10789 
L 85.097307 -129.511506 
L 84.511789 -130.915123 
L 83.92753 -132.31874 
L 83.340545 -133.722356 
L 82.746518 -135.125973 
L 82.141112 -136.52959 
L 81.520238 -137.933206 
L 80.880273 -139.336823 
L 80.218226 -140.74044 
L 79.531865 -142.144057 
L 78.819795 -143.547673 
L 78.081528 -144.95129 
L 77.317512 -146.354907 
L 76.529165 -147.758523 
L 75.718864 -149.16214 
L 74.889925 -150.565757 
L 74.046518 -151.969373 
L 73.193547 -153.37299 
L 72.336456 -154.776607 
L 71.480987 -156.180224 
L 70.632885 -157.58384 
L 69.797595 -158.987457 
L 68.979961 -160.391074 
L 68.18399 -161.79469 
L 67.412703 -163.198307 
L 66.668116 -164.601924 
L 65.951369 -166.00554 
L 65.263006 -167.409157 
L 64.603384 -168.812774 
L 63.973166 -170.216391 
L 63.373848 -171.620007 
L 62.80823 -173.023624 
L 62.280763 -174.427241 
L 61.797709 -175.830857 
L 61.367047 -177.234474 
L 60.998123 -178.638091 
L 60.701044 -180.041707 
L 60.485884 -181.445324 
L 60.361763 -182.848941 
L 60.335938 -184.252558 
L 60.412979 -185.656174 
L 60.594188 -187.059791 
L 60.877302 -188.463408 
L 61.25656 -189.867024 
L 61.723126 -191.270641 
L 62.265827 -192.674258 
L 62.872125 -194.077874 
L 63.529206 -195.481491 
L 64.225056 -196.885108 
L 64.949396 -198.288725 
L 65.694374 -199.692341 
L 66.454936 -201.095958 
L 67.228857 -202.499575 
L 68.016443 -203.903191 
L 68.819965 -205.306808 
L 69.642921 -206.710425 
L 70.489227 -208.114042 
L 71.362441 -209.517658 
L 72.26513 -210.921275 
L 73.198423 -212.324892 
L 74.161794 -213.728508 
L 75.153081 -215.132125 
L 76.168692 -216.535742 
L 77.203951 -217.939358 
L 78.253515 -219.342975 
L 79.311791 -220.746592 
L 80.3733 -222.150209 
L 81.432933 -223.553825 
L 82.486088 -224.957442 
L 83.52869 -226.361059 
L 84.557107 -227.764675 
L 85.567995 -229.168292 
L 86.558124 -230.571909 
L 87.524205 -231.975525 
L 88.462767 -233.379142 
L 89.370104 -234.782759 
L 90.242293 -236.186376 
L 91.07529 -237.589992 
L 104.956585 -237.589992 
L 104.956585 -237.589992 
L 105.789582 -236.186376 
L 106.661771 -234.782759 
L 107.569108 -233.379142 
L 108.50767 -231.975525 
L 109.473751 -230.571909 
L 110.46388 -229.168292 
L 111.474768 -227.764675 
L 112.503185 -226.361059 
L 113.545787 -224.957442 
L 114.598942 -223.553825 
L 115.658575 -222.150209 
L 116.720084 -220.746592 
L 117.77836 -219.342975 
L 118.827924 -217.939358 
L 119.863183 -216.535742 
L 120.878794 -215.132125 
L 121.870081 -213.728508 
L 122.833452 -212.324892 
L 123.766745 -210.921275 
L 124.669434 -209.517658 
L 125.542648 -208.114042 
L 126.388954 -206.710425 
L 127.21191 -205.306808 
L 128.015432 -203.903191 
L 128.803018 -202.499575 
L 129.576939 -201.095958 
L 130.337501 -199.692341 
L 131.082479 -198.288725 
L 131.806819 -196.885108 
L 132.502669 -195.481491 
L 133.15975 -194.077874 
L 133.766048 -192.674258 
L 134.308749 -191.270641 
L 134.775315 -189.867024 
L 135.154573 -188.463408 
L 135.437687 -187.059791 
L 135.618896 -185.656174 
L 135.695937 -184.252558 
L 135.670112 -182.848941 
L 135.545991 -181.445324 
L 135.330831 -180.041707 
L 135.033752 -178.638091 
L 134.664828 -177.234474 
L 134.234166 -175.830857 
L 133.751112 -174.427241 
L 133.223645 -173.023624 
L 132.658027 -171.620007 
L 132.058709 -170.216391 
L 131.428491 -168.812774 
L 130.768869 -167.409157 
L 130.080506 -166.00554 
L 129.363759 -164.601924 
L 128.619172 -163.198307 
L 127.847885 -161.79469 
L 127.051914 -160.391074 
L 126.23428 -158.987457 
L 125.39899 -157.58384 
L 124.550888 -156.180224 
L 123.695419 -154.776607 
L 122.838328 -153.37299 
L 121.985357 -151.969373 
L 121.14195 -150.565757 
L 120.313011 -149.16214 
L 119.50271 -147.758523 
L 118.714363 -146.354907 
L 117.950347 -144.95129 
L 117.21208 -143.547673 
L 116.50001 -142.144057 
L 115.813649 -140.74044 
L 115.151602 -139.336823 
L 114.511637 -137.933206 
L 113.890763 -136.52959 
L 113.285357 -135.125973 
L 112.69133 -133.722356 
L 112.104345 -132.31874 
L 111.520086 -130.915123 
L 110.934568 -129.511506 
L 110.344461 -128.10789 
L 109.747405 -126.704273 
L 109.142288 -125.300656 
L 108.529437 -123.897039 
L 107.910706 -122.493423 
L 107.289436 -121.089806 
L 106.67028 -119.686189 
L 106.0589 -118.282573 
L 105.461562 -116.878956 
L 104.884662 -115.475339 
L 104.334236 -114.071722 
L 103.81549 -112.668106 
L 103.332412 -111.264489 
L 102.887493 -109.860872 
L 102.481589 -108.457256 
L 102.113932 -107.053639 
L 101.782284 -105.650022 
L 101.483213 -104.246406 
L 101.212452 -102.842789 
L 100.965311 -101.439172 
L 100.737085 -100.035555 
L 100.523425 -98.631939 
z
" style="stroke: #000000; stroke-opacity: 0.7"/>
    </defs>
    <g clip-path="url(#p075e03f9a3)">
     <use xlink:href="#mb903781661" x="0" y="319.934957" style="fill: #9467bd; fill-opacity: 0.7; stroke: #000000; stroke-opacity: 0.7"/>
    </g>
   </g>
   <g id="PolyCollection_2">
    <defs>
     <path id="mda5e36cdd8" d="M 194.526093 -74.200968 
L 189.905782 -74.200968 
L 189.641858 -75.81563 
L 189.356325 -77.430292 
L 189.047381 -79.044953 
L 188.713119 -80.659615 
L 188.351526 -82.274277 
L 187.960474 -83.888939 
L 187.537677 -85.5036 
L 187.080645 -87.118262 
L 186.586634 -88.732924 
L 186.052613 -90.347585 
L 185.475269 -91.962247 
L 184.851046 -93.576909 
L 184.176263 -95.19157 
L 183.447269 -96.806232 
L 182.660664 -98.420894 
L 181.813552 -100.035555 
L 180.903807 -101.650217 
L 179.930334 -103.264879 
L 178.893295 -104.879541 
L 177.794279 -106.494202 
L 176.636413 -108.108864 
L 175.424397 -109.723526 
L 174.164471 -111.338187 
L 172.864322 -112.952849 
L 171.532949 -114.567511 
L 170.180487 -116.182172 
L 168.818018 -117.796834 
L 167.457364 -119.411496 
L 166.110877 -121.026158 
L 164.791215 -122.640819 
L 163.511107 -124.255481 
L 162.2831 -125.870143 
L 161.119278 -127.484804 
L 160.03095 -129.099466 
L 159.028319 -130.714128 
L 158.120126 -132.328789 
L 157.313292 -133.943451 
L 156.612585 -135.558113 
L 156.020323 -137.172774 
L 155.536161 -138.787436 
L 155.156978 -140.402098 
L 154.876904 -142.01676 
L 154.68748 -143.631421 
L 154.577992 -145.246083 
L 154.535938 -146.860745 
L 154.547622 -148.475406 
L 154.598845 -150.090068 
L 154.675628 -151.70473 
L 154.764933 -153.319391 
L 154.855319 -154.934053 
L 154.937493 -156.548715 
L 155.004712 -158.163376 
L 155.053019 -159.778038 
L 155.0813 -161.3927 
L 155.091178 -163.007362 
L 155.086744 -164.622023 
L 155.074182 -166.236685 
L 155.061295 -167.851347 
L 155.056986 -169.466008 
L 155.070729 -171.08067 
L 155.112051 -172.695332 
L 155.190065 -174.309993 
L 155.313071 -175.924655 
L 155.488232 -177.539317 
L 155.721351 -179.153979 
L 156.016734 -180.76864 
L 156.377145 -182.383302 
L 156.803839 -183.997964 
L 157.296658 -185.612625 
L 157.854182 -187.227287 
L 158.473905 -188.841949 
L 159.152422 -190.45661 
L 159.885622 -192.071272 
L 160.668867 -193.685934 
L 161.497153 -195.300595 
L 162.36526 -196.915257 
L 163.267886 -198.529919 
L 164.199779 -200.144581 
L 165.155862 -201.759242 
L 166.131362 -203.373904 
L 167.121935 -204.988566 
L 168.123779 -206.603227 
L 169.13373 -208.217889 
L 170.149315 -209.832551 
L 171.168755 -211.447212 
L 172.190902 -213.061874 
L 173.215109 -214.676536 
L 174.241036 -216.291198 
L 175.268394 -217.905859 
L 176.296669 -219.520521 
L 177.324836 -221.135183 
L 178.351112 -222.749844 
L 179.37277 -224.364506 
L 180.386038 -225.979168 
L 181.386108 -227.593829 
L 182.367256 -229.208491 
L 183.323061 -230.823153 
L 184.246708 -232.437814 
L 185.131339 -234.052476 
L 199.300536 -234.052476 
L 199.300536 -234.052476 
L 200.185167 -232.437814 
L 201.108814 -230.823153 
L 202.064619 -229.208491 
L 203.045767 -227.593829 
L 204.045837 -225.979168 
L 205.059105 -224.364506 
L 206.080763 -222.749844 
L 207.107039 -221.135183 
L 208.135206 -219.520521 
L 209.163481 -217.905859 
L 210.190839 -216.291198 
L 211.216766 -214.676536 
L 212.240973 -213.061874 
L 213.26312 -211.447212 
L 214.28256 -209.832551 
L 215.298145 -208.217889 
L 216.308096 -206.603227 
L 217.30994 -204.988566 
L 218.300513 -203.373904 
L 219.276013 -201.759242 
L 220.232096 -200.144581 
L 221.163989 -198.529919 
L 222.066615 -196.915257 
L 222.934722 -195.300595 
L 223.763008 -193.685934 
L 224.546253 -192.071272 
L 225.279453 -190.45661 
L 225.95797 -188.841949 
L 226.577693 -187.227287 
L 227.135217 -185.612625 
L 227.628036 -183.997964 
L 228.05473 -182.383302 
L 228.415141 -180.76864 
L 228.710524 -179.153979 
L 228.943643 -177.539317 
L 229.118804 -175.924655 
L 229.24181 -174.309993 
L 229.319824 -172.695332 
L 229.361146 -171.08067 
L 229.374889 -169.466008 
L 229.37058 -167.851347 
L 229.357693 -166.236685 
L 229.345131 -164.622023 
L 229.340697 -163.007362 
L 229.350575 -161.3927 
L 229.378856 -159.778038 
L 229.427163 -158.163376 
L 229.494382 -156.548715 
L 229.576556 -154.934053 
L 229.666942 -153.319391 
L 229.756247 -151.70473 
L 229.83303 -150.090068 
L 229.884253 -148.475406 
L 229.895937 -146.860745 
L 229.853883 -145.246083 
L 229.744395 -143.631421 
L 229.554971 -142.01676 
L 229.274897 -140.402098 
L 228.895714 -138.787436 
L 228.411552 -137.172774 
L 227.81929 -135.558113 
L 227.118583 -133.943451 
L 226.311749 -132.328789 
L 225.403556 -130.714128 
L 224.400925 -129.099466 
L 223.312597 -127.484804 
L 222.148775 -125.870143 
L 220.920768 -124.255481 
L 219.64066 -122.640819 
L 218.320998 -121.026158 
L 216.974511 -119.411496 
L 215.613857 -117.796834 
L 214.251388 -116.182172 
L 212.898926 -114.567511 
L 211.567553 -112.952849 
L 210.267404 -111.338187 
L 209.007478 -109.723526 
L 207.795462 -108.108864 
L 206.637596 -106.494202 
L 205.53858 -104.879541 
L 204.501541 -103.264879 
L 203.528068 -101.650217 
L 202.618323 -100.035555 
L 201.771211 -98.420894 
L 200.984606 -96.806232 
L 200.255612 -95.19157 
L 199.580829 -93.576909 
L 198.956606 -91.962247 
L 198.379262 -90.347585 
L 197.845241 -88.732924 
L 197.35123 -87.118262 
L 196.894198 -85.5036 
L 196.471401 -83.888939 
L 196.080349 -82.274277 
L 195.718756 -80.659615 
L 195.384494 -79.044953 
L 195.07555 -77.430292 
L 194.790017 -75.81563 
L 194.526093 -74.200968 
z
" style="stroke: #000000; stroke-opacity: 0.7"/>
    </defs>
    <g clip-path="url(#p075e03f9a3)">
     <use xlink:href="#mda5e36cdd8" x="0" y="319.934957" style="fill: #98df8a; fill-opacity: 0.7; stroke: #000000; stroke-opacity: 0.7"/>
    </g>
   </g>
   <g id="PolyCollection_3">
    <defs>
     <path id="mf65eed351b" d="M 291.846318 -71.437284 
L 280.985557 -71.437284 
L 280.546369 -73.538801 
L 280.135036 -75.640318 
L 279.756691 -77.741834 
L 279.413934 -79.843351 
L 279.106462 -81.944868 
L 278.830917 -84.046385 
L 278.580938 -86.147902 
L 278.347447 -88.249418 
L 278.119143 -90.350935 
L 277.883175 -92.452452 
L 277.625946 -94.553969 
L 277.333985 -96.655486 
L 276.994809 -98.757002 
L 276.597717 -100.858519 
L 276.134435 -102.960036 
L 275.599566 -105.061553 
L 274.990806 -107.16307 
L 274.308913 -109.264587 
L 273.557447 -111.366103 
L 272.742309 -113.46762 
L 271.871152 -115.569137 
L 270.952732 -117.670654 
L 269.996272 -119.772171 
L 269.010923 -121.873687 
L 268.005366 -123.975204 
L 266.987588 -126.076721 
L 265.96484 -128.178238 
L 264.943735 -130.279755 
L 263.930446 -132.381271 
L 262.930931 -134.482788 
L 261.951121 -136.584305 
L 260.997005 -138.685822 
L 260.074589 -140.787339 
L 259.189696 -142.888856 
L 258.347658 -144.990372 
L 257.552919 -147.091889 
L 256.80863 -149.193406 
L 256.116302 -151.294923 
L 255.475582 -153.39644 
L 254.8842 -155.497956 
L 254.338101 -157.599473 
L 253.831773 -159.70099 
L 253.358718 -161.802507 
L 252.912029 -163.904024 
L 252.485016 -166.00554 
L 252.071818 -168.107057 
L 251.667951 -170.208574 
L 251.27077 -172.310091 
L 250.879822 -174.411608 
L 250.497086 -176.513125 
L 250.127105 -178.614641 
L 249.777014 -180.716158 
L 249.456458 -182.817675 
L 249.177405 -184.919192 
L 248.953819 -187.020709 
L 248.801197 -189.122225 
L 248.735938 -191.223742 
L 248.774572 -193.325259 
L 248.93285 -195.426776 
L 249.224754 -197.528293 
L 249.661494 -199.629809 
L 250.250577 -201.731326 
L 250.995044 -203.832843 
L 251.892957 -205.93436 
L 252.937199 -208.035877 
L 254.115633 -210.137394 
L 255.411608 -212.23891 
L 256.804783 -214.340427 
L 258.272184 -216.441944 
L 259.789422 -218.543461 
L 261.331935 -220.644978 
L 262.876177 -222.746494 
L 264.400647 -224.848011 
L 265.886696 -226.949528 
L 267.319068 -229.051045 
L 268.686177 -231.152562 
L 269.980109 -233.254078 
L 271.196415 -235.355595 
L 272.33372 -237.457112 
L 273.393207 -239.558629 
L 274.378038 -241.660146 
L 275.29276 -243.761662 
L 276.142733 -245.863179 
L 276.93362 -247.964696 
L 277.670973 -250.066213 
L 278.35991 -252.16773 
L 279.004908 -254.269247 
L 279.609702 -256.370763 
L 280.177276 -258.47228 
L 280.709936 -260.573797 
L 281.209434 -262.675314 
L 281.677128 -264.776831 
L 282.114143 -266.878347 
L 282.521515 -268.979864 
L 282.90031 -271.081381 
L 283.251688 -273.182898 
L 283.576935 -275.284415 
L 283.877446 -277.385931 
L 284.154674 -279.487448 
L 288.677201 -279.487448 
L 288.677201 -279.487448 
L 288.954429 -277.385931 
L 289.25494 -275.284415 
L 289.580187 -273.182898 
L 289.931565 -271.081381 
L 290.31036 -268.979864 
L 290.717732 -266.878347 
L 291.154747 -264.776831 
L 291.622441 -262.675314 
L 292.121939 -260.573797 
L 292.654599 -258.47228 
L 293.222173 -256.370763 
L 293.826967 -254.269247 
L 294.471965 -252.16773 
L 295.160902 -250.066213 
L 295.898255 -247.964696 
L 296.689142 -245.863179 
L 297.539115 -243.761662 
L 298.453837 -241.660146 
L 299.438668 -239.558629 
L 300.498155 -237.457112 
L 301.63546 -235.355595 
L 302.851766 -233.254078 
L 304.145698 -231.152562 
L 305.512807 -229.051045 
L 306.945179 -226.949528 
L 308.431228 -224.848011 
L 309.955698 -222.746494 
L 311.49994 -220.644978 
L 313.042453 -218.543461 
L 314.559691 -216.441944 
L 316.027092 -214.340427 
L 317.420267 -212.23891 
L 318.716242 -210.137394 
L 319.894676 -208.035877 
L 320.938918 -205.93436 
L 321.836831 -203.832843 
L 322.581298 -201.731326 
L 323.170381 -199.629809 
L 323.607121 -197.528293 
L 323.899025 -195.426776 
L 324.057303 -193.325259 
L 324.095937 -191.223742 
L 324.030678 -189.122225 
L 323.878056 -187.020709 
L 323.65447 -184.919192 
L 323.375417 -182.817675 
L 323.054861 -180.716158 
L 322.70477 -178.614641 
L 322.334789 -176.513125 
L 321.952053 -174.411608 
L 321.561105 -172.310091 
L 321.163924 -170.208574 
L 320.760057 -168.107057 
L 320.346859 -166.00554 
L 319.919846 -163.904024 
L 319.473157 -161.802507 
L 319.000102 -159.70099 
L 318.493774 -157.599473 
L 317.947675 -155.497956 
L 317.356293 -153.39644 
L 316.715573 -151.294923 
L 316.023245 -149.193406 
L 315.278956 -147.091889 
L 314.484217 -144.990372 
L 313.642179 -142.888856 
L 312.757286 -140.787339 
L 311.83487 -138.685822 
L 310.880754 -136.584305 
L 309.900944 -134.482788 
L 308.901429 -132.381271 
L 307.88814 -130.279755 
L 306.867035 -128.178238 
L 305.844287 -126.076721 
L 304.826509 -123.975204 
L 303.820952 -121.873687 
L 302.835603 -119.772171 
L 301.879143 -117.670654 
L 300.960723 -115.569137 
L 300.089566 -113.46762 
L 299.274428 -111.366103 
L 298.522962 -109.264587 
L 297.841069 -107.16307 
L 297.232309 -105.061553 
L 296.69744 -102.960036 
L 296.234158 -100.858519 
L 295.837066 -98.757002 
L 295.49789 -96.655486 
L 295.205929 -94.553969 
L 294.9487 -92.452452 
L 294.712732 -90.350935 
L 294.484428 -88.249418 
L 294.250937 -86.147902 
L 294.000958 -84.046385 
L 293.725413 -81.944868 
L 293.417941 -79.843351 
L 293.075184 -77.741834 
L 292.696839 -75.640318 
L 292.285506 -73.538801 
L 291.846318 -71.437284 
z
" style="stroke: #000000; stroke-opacity: 0.7"/>
    </defs>
    <g clip-path="url(#p075e03f9a3)">
     <use xlink:href="#mf65eed351b" x="0" y="319.934957" style="fill: #1f77b4; fill-opacity: 0.7; stroke: #000000; stroke-opacity: 0.7"/>
    </g>
   </g>
   <g id="PolyCollection_4">
    <defs>
     <path id="mee6db68bb9" d="M 383.073555 -88.46158 
L 378.15832 -88.46158 
L 377.983741 -90.344235 
L 377.821874 -92.226891 
L 377.672598 -94.109546 
L 377.534508 -95.992201 
L 377.40505 -97.874857 
L 377.280772 -99.757512 
L 377.157669 -101.640167 
L 377.031553 -103.522823 
L 376.898432 -105.405478 
L 376.754817 -107.288133 
L 376.597939 -109.170789 
L 376.425845 -111.053444 
L 376.237364 -112.936099 
L 376.031962 -114.818755 
L 375.809528 -116.70141 
L 375.570118 -118.584065 
L 375.313717 -120.466721 
L 375.040071 -122.349376 
L 374.748593 -124.232031 
L 374.438388 -126.114687 
L 374.108351 -127.997342 
L 373.757339 -129.879997 
L 373.384345 -131.762653 
L 372.988633 -133.645308 
L 372.569791 -135.527963 
L 372.127642 -137.410619 
L 371.66203 -139.293274 
L 371.172465 -141.175929 
L 370.657687 -143.058585 
L 370.115202 -144.94124 
L 369.540868 -146.823896 
L 368.928631 -148.706551 
L 368.270466 -150.589206 
L 367.556603 -152.471862 
L 366.776048 -154.354517 
L 365.917417 -156.237172 
L 364.970003 -158.119828 
L 363.925025 -160.002483 
L 362.776926 -161.885138 
L 361.524588 -163.767794 
L 360.172325 -165.650449 
L 358.730526 -167.533104 
L 357.215836 -169.41576 
L 355.650809 -171.298415 
L 354.063033 -173.18107 
L 352.483755 -175.063726 
L 350.946109 -176.946381 
L 349.483109 -178.829036 
L 348.125582 -180.711692 
L 346.900245 -182.594347 
L 345.828122 -184.477002 
L 344.923479 -186.359658 
L 344.193367 -188.242313 
L 343.63784 -190.124968 
L 343.250814 -192.007624 
L 343.021456 -193.890279 
L 342.935937 -195.772934 
L 342.979342 -197.65559 
L 343.137492 -199.538245 
L 343.398477 -201.4209 
L 343.753701 -203.303556 
L 344.198341 -205.186211 
L 344.731172 -207.068866 
L 345.353811 -208.951522 
L 346.069508 -210.834177 
L 346.881655 -212.716832 
L 347.792235 -214.599488 
L 348.800423 -216.482143 
L 349.901522 -218.364798 
L 351.086394 -220.247454 
L 352.34142 -222.130109 
L 353.649031 -224.012764 
L 354.988699 -225.89542 
L 356.338294 -227.778075 
L 357.675629 -229.66073 
L 358.980015 -231.543386 
L 360.23367 -233.426041 
L 361.422823 -235.308696 
L 362.538424 -237.191352 
L 363.576402 -239.074007 
L 364.537474 -240.956662 
L 365.42655 -242.839318 
L 366.25182 -244.721973 
L 367.023643 -246.604628 
L 367.753359 -248.487284 
L 368.452151 -250.369939 
L 369.130066 -252.252594 
L 369.795282 -254.13525 
L 370.453648 -256.017905 
L 371.10853 -257.90056 
L 371.76092 -259.783216 
L 372.409756 -261.665871 
L 373.052383 -263.548526 
L 373.685075 -265.431182 
L 374.30355 -267.313837 
L 374.903418 -269.196492 
L 375.480527 -271.079148 
L 376.031196 -272.961803 
L 376.552344 -274.844458 
L 384.679531 -274.844458 
L 384.679531 -274.844458 
L 385.200679 -272.961803 
L 385.751348 -271.079148 
L 386.328457 -269.196492 
L 386.928325 -267.313837 
L 387.5468 -265.431182 
L 388.179492 -263.548526 
L 388.822119 -261.665871 
L 389.470955 -259.783216 
L 390.123345 -257.90056 
L 390.778227 -256.017905 
L 391.436593 -254.13525 
L 392.101809 -252.252594 
L 392.779724 -250.369939 
L 393.478516 -248.487284 
L 394.208232 -246.604628 
L 394.980055 -244.721973 
L 395.805325 -242.839318 
L 396.694401 -240.956662 
L 397.655473 -239.074007 
L 398.693451 -237.191352 
L 399.809052 -235.308696 
L 400.998205 -233.426041 
L 402.25186 -231.543386 
L 403.556246 -229.66073 
L 404.893581 -227.778075 
L 406.243176 -225.89542 
L 407.582844 -224.012764 
L 408.890455 -222.130109 
L 410.145481 -220.247454 
L 411.330353 -218.364798 
L 412.431452 -216.482143 
L 413.43964 -214.599488 
L 414.35022 -212.716832 
L 415.162367 -210.834177 
L 415.878064 -208.951522 
L 416.500703 -207.068866 
L 417.033534 -205.186211 
L 417.478174 -203.303556 
L 417.833398 -201.4209 
L 418.094383 -199.538245 
L 418.252533 -197.65559 
L 418.295937 -195.772934 
L 418.210419 -193.890279 
L 417.981061 -192.007624 
L 417.594035 -190.124968 
L 417.038508 -188.242313 
L 416.308396 -186.359658 
L 415.403753 -184.477002 
L 414.33163 -182.594347 
L 413.106293 -180.711692 
L 411.748766 -178.829036 
L 410.285766 -176.946381 
L 408.74812 -175.063726 
L 407.168842 -173.18107 
L 405.581066 -171.298415 
L 404.016039 -169.41576 
L 402.501349 -167.533104 
L 401.05955 -165.650449 
L 399.707287 -163.767794 
L 398.454949 -161.885138 
L 397.30685 -160.002483 
L 396.261872 -158.119828 
L 395.314458 -156.237172 
L 394.455827 -154.354517 
L 393.675272 -152.471862 
L 392.961409 -150.589206 
L 392.303244 -148.706551 
L 391.691007 -146.823896 
L 391.116673 -144.94124 
L 390.574188 -143.058585 
L 390.05941 -141.175929 
L 389.569845 -139.293274 
L 389.104233 -137.410619 
L 388.662084 -135.527963 
L 388.243242 -133.645308 
L 387.84753 -131.762653 
L 387.474536 -129.879997 
L 387.123524 -127.997342 
L 386.793487 -126.114687 
L 386.483282 -124.232031 
L 386.191804 -122.349376 
L 385.918158 -120.466721 
L 385.661757 -118.584065 
L 385.422347 -116.70141 
L 385.199913 -114.818755 
L 384.994511 -112.936099 
L 384.80603 -111.053444 
L 384.633936 -109.170789 
L 384.477058 -107.288133 
L 384.333443 -105.405478 
L 384.200322 -103.522823 
L 384.074206 -101.640167 
L 383.951103 -99.757512 
L 383.826825 -97.874857 
L 383.697367 -95.992201 
L 383.559277 -94.109546 
L 383.410001 -92.226891 
L 383.248134 -90.344235 
L 383.073555 -88.46158 
z
" style="stroke: #000000; stroke-opacity: 0.7"/>
    </defs>
    <g clip-path="url(#p075e03f9a3)">
     <use xlink:href="#mee6db68bb9" x="0" y="319.934957" style="fill: #c7c7c7; fill-opacity: 0.7; stroke: #000000; stroke-opacity: 0.7"/>
    </g>
   </g>
   <g id="matplotlib.axis_1">
    <g id="xtick_1">
     <g id="line2d_1">
      <defs>
       <path id="m5454869ea4" d="M 0 0 
L 0 3.5 
" style="stroke: #000000; stroke-width: 0.8"/>
      </defs>
      <g>
       <use xlink:href="#m5454869ea4" x="98.015938" y="258.900181" style="stroke: #000000; stroke-width: 0.8"/>
      </g>
     </g>
     <g id="text_1">
      <!-- Quarryville -->
      <g transform="translate(57.073129 310.903992) rotate(-45) scale(0.12 -0.12)">
       <defs>
        <path id="TimesNewRomanPSMT-51" d="M 2819 -47 
Q 3138 -597 3508 -856 
Q 3878 -1116 4350 -1153 
L 4350 -1253 
Q 3919 -1238 3428 -1080 
Q 2938 -922 2498 -642 
Q 2059 -363 1741 -47 
Q 1291 134 1028 338 
Q 647 641 436 1083 
Q 225 1525 225 2128 
Q 225 3078 840 3706 
Q 1456 4334 2331 4334 
Q 3163 4334 3770 3704 
Q 4378 3075 4378 2116 
Q 4378 1338 3945 750 
Q 3513 163 2819 -47 
z
M 2294 4094 
Q 1725 4094 1378 3688 
Q 941 3178 941 2128 
Q 941 1100 1384 544 
Q 1728 116 2294 116 
Q 2881 116 3241 544 
Q 3663 1050 3663 2038 
Q 3663 2797 3431 3316 
Q 3253 3716 2958 3905 
Q 2663 4094 2294 4094 
z
" transform="scale(0.015625)"/>
        <path id="TimesNewRomanPSMT-75" d="M 2709 2863 
L 2709 1128 
Q 2709 631 2732 520 
Q 2756 409 2807 365 
Q 2859 322 2928 322 
Q 3025 322 3147 375 
L 3191 266 
L 2334 -88 
L 2194 -88 
L 2194 519 
Q 1825 119 1631 15 
Q 1438 -88 1222 -88 
Q 981 -88 804 51 
Q 628 191 559 409 
Q 491 628 491 1028 
L 491 2306 
Q 491 2509 447 2587 
Q 403 2666 317 2708 
Q 231 2750 6 2747 
L 6 2863 
L 1009 2863 
L 1009 947 
Q 1009 547 1148 422 
Q 1288 297 1484 297 
Q 1619 297 1789 381 
Q 1959 466 2194 703 
L 2194 2325 
Q 2194 2569 2105 2655 
Q 2016 2741 1734 2747 
L 1734 2863 
L 2709 2863 
z
" transform="scale(0.015625)"/>
        <path id="TimesNewRomanPSMT-61" d="M 1822 413 
Q 1381 72 1269 19 
Q 1100 -59 909 -59 
Q 613 -59 420 144 
Q 228 347 228 678 
Q 228 888 322 1041 
Q 450 1253 767 1440 
Q 1084 1628 1822 1897 
L 1822 2009 
Q 1822 2438 1686 2597 
Q 1550 2756 1291 2756 
Q 1094 2756 978 2650 
Q 859 2544 859 2406 
L 866 2225 
Q 866 2081 792 2003 
Q 719 1925 600 1925 
Q 484 1925 411 2006 
Q 338 2088 338 2228 
Q 338 2497 613 2722 
Q 888 2947 1384 2947 
Q 1766 2947 2009 2819 
Q 2194 2722 2281 2516 
Q 2338 2381 2338 1966 
L 2338 994 
Q 2338 584 2353 492 
Q 2369 400 2405 369 
Q 2441 338 2488 338 
Q 2538 338 2575 359 
Q 2641 400 2828 588 
L 2828 413 
Q 2478 -56 2159 -56 
Q 2006 -56 1915 50 
Q 1825 156 1822 413 
z
M 1822 616 
L 1822 1706 
Q 1350 1519 1213 1441 
Q 966 1303 859 1153 
Q 753 1003 753 825 
Q 753 600 887 451 
Q 1022 303 1197 303 
Q 1434 303 1822 616 
z
" transform="scale(0.015625)"/>
        <path id="TimesNewRomanPSMT-72" d="M 1038 2947 
L 1038 2303 
Q 1397 2947 1775 2947 
Q 1947 2947 2059 2842 
Q 2172 2738 2172 2600 
Q 2172 2478 2090 2393 
Q 2009 2309 1897 2309 
Q 1788 2309 1652 2417 
Q 1516 2525 1450 2525 
Q 1394 2525 1328 2463 
Q 1188 2334 1038 2041 
L 1038 669 
Q 1038 431 1097 309 
Q 1138 225 1241 169 
Q 1344 113 1538 113 
L 1538 0 
L 72 0 
L 72 113 
Q 291 113 397 181 
Q 475 231 506 341 
Q 522 394 522 644 
L 522 1753 
Q 522 2253 501 2348 
Q 481 2444 426 2487 
Q 372 2531 291 2531 
Q 194 2531 72 2484 
L 41 2597 
L 906 2947 
L 1038 2947 
z
" transform="scale(0.015625)"/>
        <path id="TimesNewRomanPSMT-79" d="M 38 2863 
L 1372 2863 
L 1372 2747 
L 1306 2747 
Q 1166 2747 1095 2686 
Q 1025 2625 1025 2534 
Q 1025 2413 1128 2197 
L 1825 753 
L 2466 2334 
Q 2519 2463 2519 2588 
Q 2519 2644 2497 2672 
Q 2472 2706 2419 2726 
Q 2366 2747 2231 2747 
L 2231 2863 
L 3163 2863 
L 3163 2747 
Q 3047 2734 2984 2696 
Q 2922 2659 2847 2556 
Q 2819 2513 2741 2316 
L 1575 -541 
Q 1406 -956 1132 -1168 
Q 859 -1381 606 -1381 
Q 422 -1381 303 -1275 
Q 184 -1169 184 -1031 
Q 184 -900 270 -820 
Q 356 -741 506 -741 
Q 609 -741 788 -809 
Q 913 -856 944 -856 
Q 1038 -856 1148 -759 
Q 1259 -663 1372 -384 
L 1575 113 
L 547 2272 
Q 500 2369 397 2513 
Q 319 2622 269 2659 
Q 197 2709 38 2747 
L 38 2863 
z
" transform="scale(0.015625)"/>
        <path id="TimesNewRomanPSMT-76" d="M 53 2863 
L 1400 2863 
L 1400 2747 
L 1313 2747 
Q 1191 2747 1127 2687 
Q 1063 2628 1063 2528 
Q 1063 2419 1128 2269 
L 1794 688 
L 2463 2328 
Q 2534 2503 2534 2594 
Q 2534 2638 2509 2666 
Q 2475 2713 2422 2730 
Q 2369 2747 2206 2747 
L 2206 2863 
L 3141 2863 
L 3141 2747 
Q 2978 2734 2916 2681 
Q 2806 2588 2719 2369 
L 1703 -88 
L 1575 -88 
L 553 2328 
Q 484 2497 421 2570 
Q 359 2644 263 2694 
Q 209 2722 53 2747 
L 53 2863 
z
" transform="scale(0.015625)"/>
        <path id="TimesNewRomanPSMT-69" d="M 928 4444 
Q 1059 4444 1151 4351 
Q 1244 4259 1244 4128 
Q 1244 3997 1151 3903 
Q 1059 3809 928 3809 
Q 797 3809 703 3903 
Q 609 3997 609 4128 
Q 609 4259 701 4351 
Q 794 4444 928 4444 
z
M 1188 2947 
L 1188 647 
Q 1188 378 1227 289 
Q 1266 200 1342 156 
Q 1419 113 1622 113 
L 1622 0 
L 231 0 
L 231 113 
Q 441 113 512 153 
Q 584 194 626 287 
Q 669 381 669 647 
L 669 1750 
Q 669 2216 641 2353 
Q 619 2453 572 2492 
Q 525 2531 444 2531 
Q 356 2531 231 2484 
L 188 2597 
L 1050 2947 
L 1188 2947 
z
" transform="scale(0.015625)"/>
        <path id="TimesNewRomanPSMT-6c" d="M 1184 4444 
L 1184 647 
Q 1184 378 1223 290 
Q 1263 203 1344 158 
Q 1425 113 1647 113 
L 1647 0 
L 244 0 
L 244 113 
Q 441 113 512 153 
Q 584 194 625 287 
Q 666 381 666 647 
L 666 3247 
Q 666 3731 644 3842 
Q 622 3953 573 3993 
Q 525 4034 450 4034 
Q 369 4034 244 3984 
L 191 4094 
L 1044 4444 
L 1184 4444 
z
" transform="scale(0.015625)"/>
        <path id="TimesNewRomanPSMT-65" d="M 681 1784 
Q 678 1147 991 784 
Q 1303 422 1725 422 
Q 2006 422 2214 576 
Q 2422 731 2563 1106 
L 2659 1044 
Q 2594 616 2278 264 
Q 1963 -88 1488 -88 
Q 972 -88 605 314 
Q 238 716 238 1394 
Q 238 2128 614 2539 
Q 991 2950 1559 2950 
Q 2041 2950 2350 2633 
Q 2659 2316 2659 1784 
L 681 1784 
z
M 681 1966 
L 2006 1966 
Q 1991 2241 1941 2353 
Q 1863 2528 1708 2628 
Q 1553 2728 1384 2728 
Q 1125 2728 920 2526 
Q 716 2325 681 1966 
z
" transform="scale(0.015625)"/>
       </defs>
       <use xlink:href="#TimesNewRomanPSMT-51"/>
       <use xlink:href="#TimesNewRomanPSMT-75" x="72.216797"/>
       <use xlink:href="#TimesNewRomanPSMT-61" x="122.216797"/>
       <use xlink:href="#TimesNewRomanPSMT-72" x="166.601562"/>
       <use xlink:href="#TimesNewRomanPSMT-72" x="199.902344"/>
       <use xlink:href="#TimesNewRomanPSMT-79" x="233.203125"/>
       <use xlink:href="#TimesNewRomanPSMT-76" x="283.203125"/>
       <use xlink:href="#TimesNewRomanPSMT-69" x="333.203125"/>
       <use xlink:href="#TimesNewRomanPSMT-6c" x="360.986328"/>
       <use xlink:href="#TimesNewRomanPSMT-6c" x="388.769531"/>
       <use xlink:href="#TimesNewRomanPSMT-65" x="416.552734"/>
      </g>
     </g>
    </g>
    <g id="xtick_2">
     <g id="line2d_2">
      <g>
       <use xlink:href="#m5454869ea4" x="192.215937" y="258.900181" style="stroke: #000000; stroke-width: 0.8"/>
      </g>
     </g>
     <g id="text_2">
      <!-- Oakridge -->
      <g transform="translate(158.813097 303.364024) rotate(-45) scale(0.12 -0.12)">
       <defs>
        <path id="TimesNewRomanPSMT-4f" d="M 2341 4334 
Q 3166 4334 3770 3707 
Q 4375 3081 4375 2144 
Q 4375 1178 3765 540 
Q 3156 -97 2291 -97 
Q 1416 -97 820 525 
Q 225 1147 225 2134 
Q 225 3144 913 3781 
Q 1509 4334 2341 4334 
z
M 2281 4106 
Q 1713 4106 1369 3684 
Q 941 3159 941 2147 
Q 941 1109 1384 550 
Q 1725 125 2284 125 
Q 2881 125 3270 590 
Q 3659 1056 3659 2059 
Q 3659 3147 3231 3681 
Q 2888 4106 2281 4106 
z
" transform="scale(0.015625)"/>
        <path id="TimesNewRomanPSMT-6b" d="M 1047 4444 
L 1047 1597 
L 1775 2259 
Q 2006 2472 2044 2528 
Q 2069 2566 2069 2603 
Q 2069 2666 2017 2711 
Q 1966 2756 1847 2763 
L 1847 2863 
L 3091 2863 
L 3091 2763 
Q 2834 2756 2664 2684 
Q 2494 2613 2291 2428 
L 1556 1750 
L 2291 822 
Q 2597 438 2703 334 
Q 2853 188 2966 144 
Q 3044 113 3238 113 
L 3238 0 
L 1847 0 
L 1847 113 
Q 1966 116 2008 148 
Q 2050 181 2050 241 
Q 2050 313 1925 472 
L 1047 1594 
L 1047 644 
Q 1047 366 1086 278 
Q 1125 191 1197 153 
Q 1269 116 1509 113 
L 1509 0 
L 53 0 
L 53 113 
Q 272 113 381 166 
Q 447 200 481 272 
Q 528 375 528 628 
L 528 3234 
Q 528 3731 506 3842 
Q 484 3953 434 3995 
Q 384 4038 303 4038 
Q 238 4038 106 3984 
L 53 4094 
L 903 4444 
L 1047 4444 
z
" transform="scale(0.015625)"/>
        <path id="TimesNewRomanPSMT-64" d="M 2222 322 
Q 2013 103 1813 7 
Q 1613 -88 1381 -88 
Q 913 -88 563 304 
Q 213 697 213 1313 
Q 213 1928 600 2439 
Q 988 2950 1597 2950 
Q 1975 2950 2222 2709 
L 2222 3238 
Q 2222 3728 2198 3840 
Q 2175 3953 2125 3993 
Q 2075 4034 2000 4034 
Q 1919 4034 1784 3984 
L 1744 4094 
L 2597 4444 
L 2738 4444 
L 2738 1134 
Q 2738 631 2761 520 
Q 2784 409 2836 365 
Q 2888 322 2956 322 
Q 3041 322 3181 375 
L 3216 266 
L 2366 -88 
L 2222 -88 
L 2222 322 
z
M 2222 541 
L 2222 2016 
Q 2203 2228 2109 2403 
Q 2016 2578 1861 2667 
Q 1706 2756 1559 2756 
Q 1284 2756 1069 2509 
Q 784 2184 784 1559 
Q 784 928 1059 592 
Q 1334 256 1672 256 
Q 1956 256 2222 541 
z
" transform="scale(0.015625)"/>
        <path id="TimesNewRomanPSMT-67" d="M 966 1044 
Q 703 1172 562 1401 
Q 422 1631 422 1909 
Q 422 2334 742 2640 
Q 1063 2947 1563 2947 
Q 1972 2947 2272 2747 
L 2878 2747 
Q 3013 2747 3034 2739 
Q 3056 2731 3066 2713 
Q 3084 2684 3084 2613 
Q 3084 2531 3069 2500 
Q 3059 2484 3036 2475 
Q 3013 2466 2878 2466 
L 2506 2466 
Q 2681 2241 2681 1891 
Q 2681 1491 2375 1206 
Q 2069 922 1553 922 
Q 1341 922 1119 984 
Q 981 866 932 777 
Q 884 688 884 625 
Q 884 572 936 522 
Q 988 472 1138 450 
Q 1225 438 1575 428 
Q 2219 413 2409 384 
Q 2700 344 2873 169 
Q 3047 -6 3047 -263 
Q 3047 -616 2716 -925 
Q 2228 -1381 1444 -1381 
Q 841 -1381 425 -1109 
Q 191 -953 191 -784 
Q 191 -709 225 -634 
Q 278 -519 444 -313 
Q 466 -284 763 25 
Q 600 122 533 198 
Q 466 275 466 372 
Q 466 481 555 628 
Q 644 775 966 1044 
z
M 1509 2797 
Q 1278 2797 1122 2612 
Q 966 2428 966 2047 
Q 966 1553 1178 1281 
Q 1341 1075 1591 1075 
Q 1828 1075 1981 1253 
Q 2134 1431 2134 1813 
Q 2134 2309 1919 2591 
Q 1759 2797 1509 2797 
z
M 934 0 
Q 788 -159 713 -296 
Q 638 -434 638 -550 
Q 638 -700 819 -813 
Q 1131 -1006 1722 -1006 
Q 2284 -1006 2551 -807 
Q 2819 -609 2819 -384 
Q 2819 -222 2659 -153 
Q 2497 -84 2016 -72 
Q 1313 -53 934 0 
z
" transform="scale(0.015625)"/>
       </defs>
       <use xlink:href="#TimesNewRomanPSMT-4f"/>
       <use xlink:href="#TimesNewRomanPSMT-61" x="72.216797"/>
       <use xlink:href="#TimesNewRomanPSMT-6b" x="116.601562"/>
       <use xlink:href="#TimesNewRomanPSMT-72" x="166.601562"/>
       <use xlink:href="#TimesNewRomanPSMT-69" x="199.902344"/>
       <use xlink:href="#TimesNewRomanPSMT-64" x="227.685547"/>
       <use xlink:href="#TimesNewRomanPSMT-67" x="277.685547"/>
       <use xlink:href="#TimesNewRomanPSMT-65" x="327.685547"/>
      </g>
     </g>
    </g>
    <g id="xtick_3">
     <g id="line2d_3">
      <g>
       <use xlink:href="#m5454869ea4" x="286.415937" y="258.900181" style="stroke: #000000; stroke-width: 0.8"/>
      </g>
     </g>
     <g id="text_3">
      <!-- Brookfield -->
      <g transform="translate(247.838401 308.55463) rotate(-45) scale(0.12 -0.12)">
       <defs>
        <path id="TimesNewRomanPSMT-42" d="M 2956 2163 
Q 3397 2069 3616 1863 
Q 3919 1575 3919 1159 
Q 3919 844 3719 555 
Q 3519 266 3170 133 
Q 2822 0 2106 0 
L 106 0 
L 106 116 
L 266 116 
Q 531 116 647 284 
Q 719 394 719 750 
L 719 3488 
Q 719 3881 628 3984 
Q 506 4122 266 4122 
L 106 4122 
L 106 4238 
L 1938 4238 
Q 2450 4238 2759 4163 
Q 3228 4050 3475 3764 
Q 3722 3478 3722 3106 
Q 3722 2788 3528 2536 
Q 3334 2284 2956 2163 
z
M 1319 2331 
Q 1434 2309 1582 2298 
Q 1731 2288 1909 2288 
Q 2366 2288 2595 2386 
Q 2825 2484 2947 2687 
Q 3069 2891 3069 3131 
Q 3069 3503 2766 3765 
Q 2463 4028 1881 4028 
Q 1569 4028 1319 3959 
L 1319 2331 
z
M 1319 306 
Q 1681 222 2034 222 
Q 2600 222 2897 476 
Q 3194 731 3194 1106 
Q 3194 1353 3059 1581 
Q 2925 1809 2622 1940 
Q 2319 2072 1872 2072 
Q 1678 2072 1540 2065 
Q 1403 2059 1319 2044 
L 1319 306 
z
" transform="scale(0.015625)"/>
        <path id="TimesNewRomanPSMT-6f" d="M 1600 2947 
Q 2250 2947 2644 2453 
Q 2978 2031 2978 1484 
Q 2978 1100 2793 706 
Q 2609 313 2286 112 
Q 1963 -88 1566 -88 
Q 919 -88 538 428 
Q 216 863 216 1403 
Q 216 1797 411 2186 
Q 606 2575 925 2761 
Q 1244 2947 1600 2947 
z
M 1503 2744 
Q 1338 2744 1170 2645 
Q 1003 2547 900 2300 
Q 797 2053 797 1666 
Q 797 1041 1045 587 
Q 1294 134 1700 134 
Q 2003 134 2200 384 
Q 2397 634 2397 1244 
Q 2397 2006 2069 2444 
Q 1847 2744 1503 2744 
z
" transform="scale(0.015625)"/>
        <path id="TimesNewRomanPSMT-66" d="M 1319 2638 
L 1319 756 
Q 1319 356 1406 250 
Q 1522 113 1716 113 
L 1975 113 
L 1975 0 
L 266 0 
L 266 113 
L 394 113 
Q 519 113 622 175 
Q 725 238 764 344 
Q 803 450 803 756 
L 803 2638 
L 247 2638 
L 247 2863 
L 803 2863 
L 803 3050 
Q 803 3478 940 3775 
Q 1078 4072 1361 4255 
Q 1644 4438 1997 4438 
Q 2325 4438 2600 4225 
Q 2781 4084 2781 3909 
Q 2781 3816 2700 3733 
Q 2619 3650 2525 3650 
Q 2453 3650 2373 3701 
Q 2294 3753 2178 3923 
Q 2063 4094 1966 4153 
Q 1869 4213 1750 4213 
Q 1606 4213 1506 4136 
Q 1406 4059 1362 3898 
Q 1319 3738 1319 3069 
L 1319 2863 
L 2056 2863 
L 2056 2638 
L 1319 2638 
z
" transform="scale(0.015625)"/>
       </defs>
       <use xlink:href="#TimesNewRomanPSMT-42"/>
       <use xlink:href="#TimesNewRomanPSMT-72" x="66.699219"/>
       <use xlink:href="#TimesNewRomanPSMT-6f" x="100"/>
       <use xlink:href="#TimesNewRomanPSMT-6f" x="150"/>
       <use xlink:href="#TimesNewRomanPSMT-6b" x="200"/>
       <use xlink:href="#TimesNewRomanPSMT-66" x="250"/>
       <use xlink:href="#TimesNewRomanPSMT-69" x="283.300781"/>
       <use xlink:href="#TimesNewRomanPSMT-65" x="311.083984"/>
       <use xlink:href="#TimesNewRomanPSMT-6c" x="355.46875"/>
       <use xlink:href="#TimesNewRomanPSMT-64" x="383.251953"/>
      </g>
     </g>
    </g>
    <g id="xtick_4">
     <g id="line2d_4">
      <g>
       <use xlink:href="#m5454869ea4" x="380.615937" y="258.900181" style="stroke: #000000; stroke-width: 0.8"/>
      </g>
     </g>
     <g id="text_4">
      <!-- Springfield -->
      <g transform="translate(340.60651 309.970611) rotate(-45) scale(0.12 -0.12)">
       <defs>
        <path id="TimesNewRomanPSMT-53" d="M 2934 4334 
L 2934 2869 
L 2819 2869 
Q 2763 3291 2617 3541 
Q 2472 3791 2203 3937 
Q 1934 4084 1647 4084 
Q 1322 4084 1109 3886 
Q 897 3688 897 3434 
Q 897 3241 1031 3081 
Q 1225 2847 1953 2456 
Q 2547 2138 2764 1967 
Q 2981 1797 3098 1565 
Q 3216 1334 3216 1081 
Q 3216 600 2842 251 
Q 2469 -97 1881 -97 
Q 1697 -97 1534 -69 
Q 1438 -53 1133 45 
Q 828 144 747 144 
Q 669 144 623 97 
Q 578 50 556 -97 
L 441 -97 
L 441 1356 
L 556 1356 
Q 638 900 775 673 
Q 913 447 1195 297 
Q 1478 147 1816 147 
Q 2206 147 2432 353 
Q 2659 559 2659 841 
Q 2659 997 2573 1156 
Q 2488 1316 2306 1453 
Q 2184 1547 1640 1851 
Q 1097 2156 867 2337 
Q 638 2519 519 2737 
Q 400 2956 400 3219 
Q 400 3675 750 4004 
Q 1100 4334 1641 4334 
Q 1978 4334 2356 4169 
Q 2531 4091 2603 4091 
Q 2684 4091 2736 4139 
Q 2788 4188 2819 4334 
L 2934 4334 
z
" transform="scale(0.015625)"/>
        <path id="TimesNewRomanPSMT-70" d="M -6 2578 
L 875 2934 
L 994 2934 
L 994 2266 
Q 1216 2644 1439 2795 
Q 1663 2947 1909 2947 
Q 2341 2947 2628 2609 
Q 2981 2197 2981 1534 
Q 2981 794 2556 309 
Q 2206 -88 1675 -88 
Q 1444 -88 1275 -22 
Q 1150 25 994 166 
L 994 -706 
Q 994 -1000 1030 -1079 
Q 1066 -1159 1155 -1206 
Q 1244 -1253 1478 -1253 
L 1478 -1369 
L -22 -1369 
L -22 -1253 
L 56 -1253 
Q 228 -1256 350 -1188 
Q 409 -1153 442 -1076 
Q 475 -1000 475 -688 
L 475 2019 
Q 475 2297 450 2372 
Q 425 2447 370 2484 
Q 316 2522 222 2522 
Q 147 2522 31 2478 
L -6 2578 
z
M 994 2081 
L 994 1013 
Q 994 666 1022 556 
Q 1066 375 1236 237 
Q 1406 100 1666 100 
Q 1978 100 2172 344 
Q 2425 663 2425 1241 
Q 2425 1897 2138 2250 
Q 1938 2494 1663 2494 
Q 1513 2494 1366 2419 
Q 1253 2363 994 2081 
z
" transform="scale(0.015625)"/>
        <path id="TimesNewRomanPSMT-6e" d="M 1034 2341 
Q 1538 2947 1994 2947 
Q 2228 2947 2397 2830 
Q 2566 2713 2666 2444 
Q 2734 2256 2734 1869 
L 2734 647 
Q 2734 375 2778 278 
Q 2813 200 2889 156 
Q 2966 113 3172 113 
L 3172 0 
L 1756 0 
L 1756 113 
L 1816 113 
Q 2016 113 2095 173 
Q 2175 234 2206 353 
Q 2219 400 2219 647 
L 2219 1819 
Q 2219 2209 2117 2386 
Q 2016 2563 1775 2563 
Q 1403 2563 1034 2156 
L 1034 647 
Q 1034 356 1069 288 
Q 1113 197 1189 155 
Q 1266 113 1500 113 
L 1500 0 
L 84 0 
L 84 113 
L 147 113 
Q 366 113 442 223 
Q 519 334 519 647 
L 519 1709 
Q 519 2225 495 2337 
Q 472 2450 423 2490 
Q 375 2531 294 2531 
Q 206 2531 84 2484 
L 38 2597 
L 900 2947 
L 1034 2947 
L 1034 2341 
z
" transform="scale(0.015625)"/>
       </defs>
       <use xlink:href="#TimesNewRomanPSMT-53"/>
       <use xlink:href="#TimesNewRomanPSMT-70" x="55.615234"/>
       <use xlink:href="#TimesNewRomanPSMT-72" x="105.615234"/>
       <use xlink:href="#TimesNewRomanPSMT-69" x="138.916016"/>
       <use xlink:href="#TimesNewRomanPSMT-6e" x="166.699219"/>
       <use xlink:href="#TimesNewRomanPSMT-67" x="216.699219"/>
       <use xlink:href="#TimesNewRomanPSMT-66" x="266.699219"/>
       <use xlink:href="#TimesNewRomanPSMT-69" x="300"/>
       <use xlink:href="#TimesNewRomanPSMT-65" x="327.783203"/>
       <use xlink:href="#TimesNewRomanPSMT-6c" x="372.167969"/>
       <use xlink:href="#TimesNewRomanPSMT-64" x="399.951172"/>
      </g>
     </g>
    </g>
   </g>
   <g id="matplotlib.axis_2">
    <g id="ytick_1">
     <g id="line2d_5">
      <defs>
       <path id="me3211de3fe" d="M 0 0 
L -3.5 0 
" style="stroke: #000000; stroke-width: 0.8"/>
      </defs>
      <g>
       <use xlink:href="#me3211de3fe" x="50.915938" y="250.598073" style="stroke: #000000; stroke-width: 0.8"/>
      </g>
     </g>
     <g id="text_5">
      <!-- 0 -->
      <g transform="translate(38.915938 254.069948) scale(0.1 -0.1)">
       <defs>
        <path id="TimesNewRomanPSMT-30" d="M 231 2094 
Q 231 2819 450 3342 
Q 669 3866 1031 4122 
Q 1313 4325 1613 4325 
Q 2100 4325 2488 3828 
Q 2972 3213 2972 2159 
Q 2972 1422 2759 906 
Q 2547 391 2217 158 
Q 1888 -75 1581 -75 
Q 975 -75 572 641 
Q 231 1244 231 2094 
z
M 844 2016 
Q 844 1141 1059 588 
Q 1238 122 1591 122 
Q 1759 122 1940 273 
Q 2122 425 2216 781 
Q 2359 1319 2359 2297 
Q 2359 3022 2209 3506 
Q 2097 3866 1919 4016 
Q 1791 4119 1609 4119 
Q 1397 4119 1231 3928 
Q 1006 3669 925 3112 
Q 844 2556 844 2016 
z
" transform="scale(0.015625)"/>
       </defs>
       <use xlink:href="#TimesNewRomanPSMT-30"/>
      </g>
     </g>
    </g>
    <g id="ytick_2">
     <g id="line2d_6">
      <g>
       <use xlink:href="#me3211de3fe" x="50.915938" y="222.961228" style="stroke: #000000; stroke-width: 0.8"/>
      </g>
     </g>
     <g id="text_6">
      <!-- 250 -->
      <g transform="translate(28.915938 226.433103) scale(0.1 -0.1)">
       <defs>
        <path id="TimesNewRomanPSMT-32" d="M 2934 816 
L 2638 0 
L 138 0 
L 138 116 
Q 1241 1122 1691 1759 
Q 2141 2397 2141 2925 
Q 2141 3328 1894 3587 
Q 1647 3847 1303 3847 
Q 991 3847 742 3664 
Q 494 3481 375 3128 
L 259 3128 
Q 338 3706 661 4015 
Q 984 4325 1469 4325 
Q 1984 4325 2329 3994 
Q 2675 3663 2675 3213 
Q 2675 2891 2525 2569 
Q 2294 2063 1775 1497 
Q 997 647 803 472 
L 1909 472 
Q 2247 472 2383 497 
Q 2519 522 2628 598 
Q 2738 675 2819 816 
L 2934 816 
z
" transform="scale(0.015625)"/>
        <path id="TimesNewRomanPSMT-35" d="M 2778 4238 
L 2534 3706 
L 1259 3706 
L 981 3138 
Q 1809 3016 2294 2522 
Q 2709 2097 2709 1522 
Q 2709 1188 2573 903 
Q 2438 619 2231 419 
Q 2025 219 1772 97 
Q 1413 -75 1034 -75 
Q 653 -75 479 54 
Q 306 184 306 341 
Q 306 428 378 495 
Q 450 563 559 563 
Q 641 563 702 538 
Q 763 513 909 409 
Q 1144 247 1384 247 
Q 1750 247 2026 523 
Q 2303 800 2303 1197 
Q 2303 1581 2056 1914 
Q 1809 2247 1375 2428 
Q 1034 2569 447 2591 
L 1259 4238 
L 2778 4238 
z
" transform="scale(0.015625)"/>
       </defs>
       <use xlink:href="#TimesNewRomanPSMT-32"/>
       <use xlink:href="#TimesNewRomanPSMT-35" x="50"/>
       <use xlink:href="#TimesNewRomanPSMT-30" x="100"/>
      </g>
     </g>
    </g>
    <g id="ytick_3">
     <g id="line2d_7">
      <g>
       <use xlink:href="#me3211de3fe" x="50.915938" y="195.324384" style="stroke: #000000; stroke-width: 0.8"/>
      </g>
     </g>
     <g id="text_7">
      <!-- 500 -->
      <g transform="translate(28.915938 198.796259) scale(0.1 -0.1)">
       <use xlink:href="#TimesNewRomanPSMT-35"/>
       <use xlink:href="#TimesNewRomanPSMT-30" x="50"/>
       <use xlink:href="#TimesNewRomanPSMT-30" x="100"/>
      </g>
     </g>
    </g>
    <g id="ytick_4">
     <g id="line2d_8">
      <g>
       <use xlink:href="#me3211de3fe" x="50.915938" y="167.68754" style="stroke: #000000; stroke-width: 0.8"/>
      </g>
     </g>
     <g id="text_8">
      <!-- 750 -->
      <g transform="translate(28.915938 171.159415) scale(0.1 -0.1)">
       <defs>
        <path id="TimesNewRomanPSMT-37" d="M 644 4238 
L 2916 4238 
L 2916 4119 
L 1503 -88 
L 1153 -88 
L 2419 3728 
L 1253 3728 
Q 900 3728 750 3644 
Q 488 3500 328 3200 
L 238 3234 
L 644 4238 
z
" transform="scale(0.015625)"/>
       </defs>
       <use xlink:href="#TimesNewRomanPSMT-37"/>
       <use xlink:href="#TimesNewRomanPSMT-35" x="50"/>
       <use xlink:href="#TimesNewRomanPSMT-30" x="100"/>
      </g>
     </g>
    </g>
    <g id="ytick_5">
     <g id="line2d_9">
      <g>
       <use xlink:href="#me3211de3fe" x="50.915938" y="140.050695" style="stroke: #000000; stroke-width: 0.8"/>
      </g>
     </g>
     <g id="text_9">
      <!-- 1000 -->
      <g transform="translate(23.915938 143.52257) scale(0.1 -0.1)">
       <defs>
        <path id="TimesNewRomanPSMT-31" d="M 750 3822 
L 1781 4325 
L 1884 4325 
L 1884 747 
Q 1884 391 1914 303 
Q 1944 216 2037 169 
Q 2131 122 2419 116 
L 2419 0 
L 825 0 
L 825 116 
Q 1125 122 1212 167 
Q 1300 213 1334 289 
Q 1369 366 1369 747 
L 1369 3034 
Q 1369 3497 1338 3628 
Q 1316 3728 1258 3775 
Q 1200 3822 1119 3822 
Q 1003 3822 797 3725 
L 750 3822 
z
" transform="scale(0.015625)"/>
       </defs>
       <use xlink:href="#TimesNewRomanPSMT-31"/>
       <use xlink:href="#TimesNewRomanPSMT-30" x="50"/>
       <use xlink:href="#TimesNewRomanPSMT-30" x="100"/>
       <use xlink:href="#TimesNewRomanPSMT-30" x="150"/>
      </g>
     </g>
    </g>
    <g id="ytick_6">
     <g id="line2d_10">
      <g>
       <use xlink:href="#me3211de3fe" x="50.915938" y="112.413851" style="stroke: #000000; stroke-width: 0.8"/>
      </g>
     </g>
     <g id="text_10">
      <!-- 1250 -->
      <g transform="translate(23.915938 115.885726) scale(0.1 -0.1)">
       <use xlink:href="#TimesNewRomanPSMT-31"/>
       <use xlink:href="#TimesNewRomanPSMT-32" x="50"/>
       <use xlink:href="#TimesNewRomanPSMT-35" x="100"/>
       <use xlink:href="#TimesNewRomanPSMT-30" x="150"/>
      </g>
     </g>
    </g>
    <g id="ytick_7">
     <g id="line2d_11">
      <g>
       <use xlink:href="#me3211de3fe" x="50.915938" y="84.777007" style="stroke: #000000; stroke-width: 0.8"/>
      </g>
     </g>
     <g id="text_11">
      <!-- 1500 -->
      <g transform="translate(23.915938 88.248882) scale(0.1 -0.1)">
       <use xlink:href="#TimesNewRomanPSMT-31"/>
       <use xlink:href="#TimesNewRomanPSMT-35" x="50"/>
       <use xlink:href="#TimesNewRomanPSMT-30" x="100"/>
       <use xlink:href="#TimesNewRomanPSMT-30" x="150"/>
      </g>
     </g>
    </g>
    <g id="ytick_8">
     <g id="line2d_12">
      <g>
       <use xlink:href="#me3211de3fe" x="50.915938" y="57.140162" style="stroke: #000000; stroke-width: 0.8"/>
      </g>
     </g>
     <g id="text_12">
      <!-- 1750 -->
      <g transform="translate(23.915938 60.612037) scale(0.1 -0.1)">
       <use xlink:href="#TimesNewRomanPSMT-31"/>
       <use xlink:href="#TimesNewRomanPSMT-37" x="50"/>
       <use xlink:href="#TimesNewRomanPSMT-35" x="100"/>
       <use xlink:href="#TimesNewRomanPSMT-30" x="150"/>
      </g>
     </g>
    </g>
    <g id="text_13">
     <!-- Number -->
     <g transform="translate(16.92125 167.410715) rotate(-90) scale(0.14 -0.14)">
      <defs>
       <path id="TimesNewRomanPSMT-4e" d="M -84 4238 
L 1066 4238 
L 3656 1059 
L 3656 3503 
Q 3656 3894 3569 3991 
Q 3453 4122 3203 4122 
L 3056 4122 
L 3056 4238 
L 4531 4238 
L 4531 4122 
L 4381 4122 
Q 4113 4122 4000 3959 
Q 3931 3859 3931 3503 
L 3931 -69 
L 3819 -69 
L 1025 3344 
L 1025 734 
Q 1025 344 1109 247 
Q 1228 116 1475 116 
L 1625 116 
L 1625 0 
L 150 0 
L 150 116 
L 297 116 
Q 569 116 681 278 
Q 750 378 750 734 
L 750 3681 
Q 566 3897 470 3965 
Q 375 4034 191 4094 
Q 100 4122 -84 4122 
L -84 4238 
z
" transform="scale(0.015625)"/>
       <path id="TimesNewRomanPSMT-6d" d="M 1050 2338 
Q 1363 2650 1419 2697 
Q 1559 2816 1721 2881 
Q 1884 2947 2044 2947 
Q 2313 2947 2506 2790 
Q 2700 2634 2766 2338 
Q 3088 2713 3309 2830 
Q 3531 2947 3766 2947 
Q 3994 2947 4170 2830 
Q 4347 2713 4450 2447 
Q 4519 2266 4519 1878 
L 4519 647 
Q 4519 378 4559 278 
Q 4591 209 4675 161 
Q 4759 113 4950 113 
L 4950 0 
L 3538 0 
L 3538 113 
L 3597 113 
Q 3781 113 3884 184 
Q 3956 234 3988 344 
Q 4000 397 4000 647 
L 4000 1878 
Q 4000 2228 3916 2372 
Q 3794 2572 3525 2572 
Q 3359 2572 3192 2489 
Q 3025 2406 2788 2181 
L 2781 2147 
L 2788 2013 
L 2788 647 
Q 2788 353 2820 281 
Q 2853 209 2943 161 
Q 3034 113 3253 113 
L 3253 0 
L 1806 0 
L 1806 113 
Q 2044 113 2133 169 
Q 2222 225 2256 338 
Q 2272 391 2272 647 
L 2272 1878 
Q 2272 2228 2169 2381 
Q 2031 2581 1784 2581 
Q 1616 2581 1450 2491 
Q 1191 2353 1050 2181 
L 1050 647 
Q 1050 366 1089 281 
Q 1128 197 1204 155 
Q 1281 113 1516 113 
L 1516 0 
L 100 0 
L 100 113 
Q 297 113 375 155 
Q 453 197 493 289 
Q 534 381 534 647 
L 534 1741 
Q 534 2213 506 2350 
Q 484 2453 437 2492 
Q 391 2531 309 2531 
Q 222 2531 100 2484 
L 53 2597 
L 916 2947 
L 1050 2947 
L 1050 2338 
z
" transform="scale(0.015625)"/>
       <path id="TimesNewRomanPSMT-62" d="M 984 2369 
Q 1400 2947 1881 2947 
Q 2322 2947 2650 2570 
Q 2978 2194 2978 1541 
Q 2978 778 2472 313 
Q 2038 -88 1503 -88 
Q 1253 -88 995 3 
Q 738 94 469 275 
L 469 3241 
Q 469 3728 445 3840 
Q 422 3953 372 3993 
Q 322 4034 247 4034 
Q 159 4034 28 3984 
L -16 4094 
L 844 4444 
L 984 4444 
L 984 2369 
z
M 984 2169 
L 984 456 
Q 1144 300 1314 220 
Q 1484 141 1663 141 
Q 1947 141 2192 453 
Q 2438 766 2438 1363 
Q 2438 1913 2192 2208 
Q 1947 2503 1634 2503 
Q 1469 2503 1303 2419 
Q 1178 2356 984 2169 
z
" transform="scale(0.015625)"/>
      </defs>
      <use xlink:href="#TimesNewRomanPSMT-4e"/>
      <use xlink:href="#TimesNewRomanPSMT-75" x="72.216797"/>
      <use xlink:href="#TimesNewRomanPSMT-6d" x="122.216797"/>
      <use xlink:href="#TimesNewRomanPSMT-62" x="200"/>
      <use xlink:href="#TimesNewRomanPSMT-65" x="250"/>
      <use xlink:href="#TimesNewRomanPSMT-72" x="294.384766"/>
     </g>
    </g>
   </g>
   <g id="patch_3">
    <path d="M 92.363937 160.833602 
L 103.667937 160.833602 
L 103.667937 118.493957 
L 92.363937 118.493957 
L 92.363937 160.833602 
L 92.363937 160.833602 
z
" clip-path="url(#p075e03f9a3)" style="fill: none; stroke: #000000; stroke-linejoin: miter"/>
   </g>
   <g id="line2d_13">
    <path d="M 98.015938 160.833602 
L 98.015938 221.303018 
" clip-path="url(#p075e03f9a3)" style="fill: none; stroke: #000000; stroke-linecap: square"/>
   </g>
   <g id="line2d_14">
    <path d="M 98.015938 118.493957 
L 98.015938 82.344964 
" clip-path="url(#p075e03f9a3)" style="fill: none; stroke: #000000; stroke-linecap: square"/>
   </g>
   <g id="line2d_15">
    <path d="M 95.189937 221.303018 
L 100.841938 221.303018 
" clip-path="url(#p075e03f9a3)" style="fill: none; stroke: #000000; stroke-linecap: square"/>
   </g>
   <g id="line2d_16">
    <path d="M 95.189937 82.344964 
L 100.841938 82.344964 
" clip-path="url(#p075e03f9a3)" style="fill: none; stroke: #000000; stroke-linecap: square"/>
   </g>
   <g id="patch_4">
    <path d="M 186.563937 183.053625 
L 197.867938 183.053625 
L 197.867938 130.433073 
L 186.563937 130.433073 
L 186.563937 183.053625 
L 186.563937 183.053625 
z
" clip-path="url(#p075e03f9a3)" style="fill: none; stroke: #000000; stroke-linejoin: miter"/>
   </g>
   <g id="line2d_17">
    <path d="M 192.215937 183.053625 
L 192.215937 245.733988 
" clip-path="url(#p075e03f9a3)" style="fill: none; stroke: #000000; stroke-linecap: square"/>
   </g>
   <g id="line2d_18">
    <path d="M 192.215937 130.433073 
L 192.215937 85.88248 
" clip-path="url(#p075e03f9a3)" style="fill: none; stroke: #000000; stroke-linecap: square"/>
   </g>
   <g id="line2d_19">
    <path d="M 189.389938 245.733988 
L 195.041937 245.733988 
" clip-path="url(#p075e03f9a3)" style="fill: none; stroke: #000000; stroke-linecap: square"/>
   </g>
   <g id="line2d_20">
    <path d="M 189.389938 85.88248 
L 195.041937 85.88248 
" clip-path="url(#p075e03f9a3)" style="fill: none; stroke: #000000; stroke-linecap: square"/>
   </g>
   <g id="patch_5">
    <path d="M 280.763937 171.335603 
L 292.067937 171.335603 
L 292.067937 115.39863 
L 280.763937 115.39863 
L 280.763937 171.335603 
L 280.763937 171.335603 
z
" clip-path="url(#p075e03f9a3)" style="fill: none; stroke: #000000; stroke-linejoin: miter"/>
   </g>
   <g id="line2d_21">
    <path d="M 286.415937 171.335603 
L 286.415937 248.497673 
" clip-path="url(#p075e03f9a3)" style="fill: none; stroke: #000000; stroke-linecap: square"/>
   </g>
   <g id="line2d_22">
    <path d="M 286.415937 115.39863 
L 286.415937 40.447508 
" clip-path="url(#p075e03f9a3)" style="fill: none; stroke: #000000; stroke-linecap: square"/>
   </g>
   <g id="line2d_23">
    <path d="M 283.589938 248.497673 
L 289.241937 248.497673 
" clip-path="url(#p075e03f9a3)" style="fill: none; stroke: #000000; stroke-linecap: square"/>
   </g>
   <g id="line2d_24">
    <path d="M 283.589938 40.447508 
L 289.241937 40.447508 
" clip-path="url(#p075e03f9a3)" style="fill: none; stroke: #000000; stroke-linecap: square"/>
   </g>
   <g id="patch_6">
    <path d="M 374.963937 140.492885 
L 386.267937 140.492885 
L 386.267937 101.91185 
L 374.963937 101.91185 
L 374.963937 140.492885 
L 374.963937 140.492885 
z
" clip-path="url(#p075e03f9a3)" style="fill: none; stroke: #000000; stroke-linejoin: miter"/>
   </g>
   <g id="line2d_25">
    <path d="M 380.615937 140.492885 
L 380.615937 198.309163 
" clip-path="url(#p075e03f9a3)" style="fill: none; stroke: #000000; stroke-linecap: square"/>
   </g>
   <g id="line2d_26">
    <path d="M 380.615937 101.91185 
L 380.615937 45.090498 
" clip-path="url(#p075e03f9a3)" style="fill: none; stroke: #000000; stroke-linecap: square"/>
   </g>
   <g id="line2d_27">
    <path d="M 377.789938 198.309163 
L 383.441937 198.309163 
" clip-path="url(#p075e03f9a3)" style="fill: none; stroke: #000000; stroke-linecap: square"/>
   </g>
   <g id="line2d_28">
    <path d="M 377.789938 45.090498 
L 383.441937 45.090498 
" clip-path="url(#p075e03f9a3)" style="fill: none; stroke: #000000; stroke-linecap: square"/>
   </g>
   <g id="line2d_29">
    <path d="M 92.363937 138.392485 
L 103.667937 138.392485 
" clip-path="url(#p075e03f9a3)" style="fill: none; stroke: #000000; stroke-width: 1.5; stroke-linecap: square"/>
   </g>
   <g id="line2d_30">
    <path d="M 186.563937 157.296086 
L 197.867938 157.296086 
" clip-path="url(#p075e03f9a3)" style="fill: none; stroke: #000000; stroke-width: 1.5; stroke-linecap: square"/>
   </g>
   <g id="line2d_31">
    <path d="M 280.763937 142.81438 
L 292.067937 142.81438 
" clip-path="url(#p075e03f9a3)" style="fill: none; stroke: #000000; stroke-width: 1.5; stroke-linecap: square"/>
   </g>
   <g id="line2d_32">
    <path d="M 374.963937 124.131873 
L 386.267937 124.131873 
" clip-path="url(#p075e03f9a3)" style="fill: none; stroke: #000000; stroke-width: 1.5; stroke-linecap: square"/>
   </g>
   <g id="patch_7">
    <path d="M 50.915938 258.900181 
L 50.915938 30.045 
" style="fill: none; stroke: #000000; stroke-linejoin: miter; stroke-linecap: square"/>
   </g>
   <g id="patch_8">
    <path d="M 427.715937 258.900181 
L 427.715937 30.045 
" style="fill: none; stroke: #000000; stroke-linejoin: miter; stroke-linecap: square"/>
   </g>
   <g id="patch_9">
    <path d="M 50.915938 258.900181 
L 427.715937 258.900181 
" style="fill: none; stroke: #000000; stroke-linejoin: miter; stroke-linecap: square"/>
   </g>
   <g id="patch_10">
    <path d="M 50.915938 30.045 
L 427.715937 30.045 
" style="fill: none; stroke: #000000; stroke-linejoin: miter; stroke-linecap: square"/>
   </g>
   <g id="text_14">
    <!-- Statistics on daily outpatient visits in different cities (Number) -->
    <g transform="translate(27.472187 18.045) scale(0.16 -0.16)">
     <defs>
      <path id="TimesNewRomanPS-BoldMT-53" d="M 3006 4334 
L 3041 2922 
L 2913 2922 
Q 2822 3453 2467 3776 
Q 2113 4100 1700 4100 
Q 1381 4100 1195 3929 
Q 1009 3759 1009 3538 
Q 1009 3397 1075 3288 
Q 1166 3141 1366 2997 
Q 1513 2894 2044 2631 
Q 2788 2266 3047 1941 
Q 3303 1616 3303 1197 
Q 3303 666 2889 283 
Q 2475 -100 1838 -100 
Q 1638 -100 1459 -59 
Q 1281 -19 1013 94 
Q 863 156 766 156 
Q 684 156 593 93 
Q 503 31 447 -97 
L 331 -97 
L 331 1503 
L 447 1503 
Q 584 828 976 473 
Q 1369 119 1822 119 
Q 2172 119 2380 309 
Q 2588 500 2588 753 
Q 2588 903 2508 1043 
Q 2428 1184 2265 1311 
Q 2103 1438 1691 1641 
Q 1113 1925 859 2125 
Q 606 2325 470 2572 
Q 334 2819 334 3116 
Q 334 3622 706 3978 
Q 1078 4334 1644 4334 
Q 1850 4334 2044 4284 
Q 2191 4247 2402 4145 
Q 2613 4044 2697 4044 
Q 2778 4044 2825 4094 
Q 2872 4144 2913 4334 
L 3006 4334 
z
" transform="scale(0.015625)"/>
      <path id="TimesNewRomanPS-BoldMT-74" d="M 1375 3991 
L 1375 2922 
L 2069 2922 
L 2069 2613 
L 1375 2613 
L 1375 809 
Q 1375 556 1398 482 
Q 1422 409 1481 364 
Q 1541 319 1591 319 
Q 1794 319 1975 628 
L 2069 559 
Q 1816 -41 1247 -41 
Q 969 -41 776 114 
Q 584 269 531 459 
Q 500 566 500 1034 
L 500 2613 
L 119 2613 
L 119 2722 
Q 513 3000 789 3306 
Q 1066 3613 1272 3991 
L 1375 3991 
z
" transform="scale(0.015625)"/>
      <path id="TimesNewRomanPS-BoldMT-61" d="M 1828 431 
Q 1294 -41 869 -41 
Q 619 -41 453 123 
Q 288 288 288 534 
Q 288 869 575 1136 
Q 863 1403 1828 1847 
L 1828 2141 
Q 1828 2472 1792 2558 
Q 1756 2644 1656 2708 
Q 1556 2772 1431 2772 
Q 1228 2772 1097 2681 
Q 1016 2625 1016 2550 
Q 1016 2484 1103 2388 
Q 1222 2253 1222 2128 
Q 1222 1975 1108 1867 
Q 994 1759 809 1759 
Q 613 1759 480 1878 
Q 347 1997 347 2156 
Q 347 2381 525 2586 
Q 703 2791 1022 2900 
Q 1341 3009 1684 3009 
Q 2100 3009 2342 2832 
Q 2584 2656 2656 2450 
Q 2700 2319 2700 1847 
L 2700 713 
Q 2700 513 2715 461 
Q 2731 409 2762 384 
Q 2794 359 2834 359 
Q 2916 359 3000 475 
L 3094 400 
Q 2938 169 2770 64 
Q 2603 -41 2391 -41 
Q 2141 -41 2000 76 
Q 1859 194 1828 431 
z
M 1828 659 
L 1828 1638 
Q 1450 1416 1266 1163 
Q 1144 994 1144 822 
Q 1144 678 1247 569 
Q 1325 484 1466 484 
Q 1622 484 1828 659 
z
" transform="scale(0.015625)"/>
      <path id="TimesNewRomanPS-BoldMT-69" d="M 919 4338 
Q 1122 4338 1262 4195 
Q 1403 4053 1403 3853 
Q 1403 3653 1261 3512 
Q 1119 3372 919 3372 
Q 719 3372 578 3512 
Q 438 3653 438 3853 
Q 438 4053 578 4195 
Q 719 4338 919 4338 
z
M 1356 2922 
L 1356 606 
Q 1356 297 1428 211 
Q 1500 125 1709 113 
L 1709 0 
L 131 0 
L 131 113 
Q 325 119 419 225 
Q 481 297 481 606 
L 481 2313 
Q 481 2622 409 2708 
Q 338 2794 131 2806 
L 131 2922 
L 1356 2922 
z
" transform="scale(0.015625)"/>
      <path id="TimesNewRomanPS-BoldMT-73" d="M 2063 3003 
L 2109 2006 
L 2003 2006 
Q 1813 2450 1608 2612 
Q 1403 2775 1200 2775 
Q 1072 2775 981 2689 
Q 891 2603 891 2491 
Q 891 2406 953 2328 
Q 1053 2200 1512 1889 
Q 1972 1578 2117 1361 
Q 2263 1144 2263 875 
Q 2263 631 2141 397 
Q 2019 163 1797 37 
Q 1575 -88 1306 -88 
Q 1097 -88 747 44 
Q 653 78 619 78 
Q 516 78 447 -78 
L 344 -78 
L 294 972 
L 400 972 
Q 541 559 786 353 
Q 1031 147 1250 147 
Q 1400 147 1495 239 
Q 1591 331 1591 463 
Q 1591 613 1497 722 
Q 1403 831 1078 1053 
Q 600 1384 459 1559 
Q 253 1816 253 2125 
Q 253 2463 486 2736 
Q 719 3009 1159 3009 
Q 1397 3009 1619 2894 
Q 1703 2847 1756 2847 
Q 1813 2847 1847 2870 
Q 1881 2894 1956 3003 
L 2063 3003 
z
" transform="scale(0.015625)"/>
      <path id="TimesNewRomanPS-BoldMT-63" d="M 2600 753 
L 2697 678 
Q 2491 291 2183 101 
Q 1875 -88 1528 -88 
Q 944 -88 594 353 
Q 244 794 244 1413 
Q 244 2009 563 2463 
Q 947 3009 1622 3009 
Q 2075 3009 2342 2781 
Q 2609 2553 2609 2272 
Q 2609 2094 2501 1987 
Q 2394 1881 2219 1881 
Q 2034 1881 1914 2003 
Q 1794 2125 1766 2438 
Q 1747 2634 1675 2713 
Q 1603 2791 1506 2791 
Q 1356 2791 1250 2631 
Q 1088 2391 1088 1894 
Q 1088 1481 1219 1104 
Q 1350 728 1578 544 
Q 1750 409 1984 409 
Q 2138 409 2275 481 
Q 2413 553 2600 753 
z
" transform="scale(0.015625)"/>
      <path id="TimesNewRomanPS-BoldMT-20" transform="scale(0.015625)"/>
      <path id="TimesNewRomanPS-BoldMT-6f" d="M 1594 3009 
Q 1975 3009 2303 2812 
Q 2631 2616 2801 2253 
Q 2972 1891 2972 1459 
Q 2972 838 2656 419 
Q 2275 -88 1603 -88 
Q 944 -88 587 375 
Q 231 838 231 1447 
Q 231 2075 595 2542 
Q 959 3009 1594 3009 
z
M 1606 2788 
Q 1447 2788 1333 2667 
Q 1219 2547 1183 2192 
Q 1147 1838 1147 1206 
Q 1147 872 1191 581 
Q 1225 359 1337 243 
Q 1450 128 1594 128 
Q 1734 128 1828 206 
Q 1950 313 1991 503 
Q 2053 800 2053 1703 
Q 2053 2234 1993 2432 
Q 1934 2631 1819 2722 
Q 1738 2788 1606 2788 
z
" transform="scale(0.015625)"/>
      <path id="TimesNewRomanPS-BoldMT-6e" d="M 1409 2922 
L 1409 2544 
Q 1634 2788 1840 2898 
Q 2047 3009 2284 3009 
Q 2569 3009 2756 2851 
Q 2944 2694 3006 2459 
Q 3056 2281 3056 1775 
L 3056 638 
Q 3056 300 3117 217 
Q 3178 134 3372 113 
L 3372 0 
L 1894 0 
L 1894 113 
Q 2059 134 2131 250 
Q 2181 328 2181 638 
L 2181 1938 
Q 2181 2297 2153 2390 
Q 2125 2484 2058 2536 
Q 1991 2588 1909 2588 
Q 1641 2588 1409 2203 
L 1409 638 
Q 1409 309 1470 221 
Q 1531 134 1697 113 
L 1697 0 
L 219 0 
L 219 113 
Q 403 131 481 231 
Q 534 300 534 638 
L 534 2288 
Q 534 2619 473 2700 
Q 413 2781 219 2806 
L 219 2922 
L 1409 2922 
z
" transform="scale(0.015625)"/>
      <path id="TimesNewRomanPS-BoldMT-64" d="M 3056 4238 
L 3056 875 
Q 3056 534 3075 472 
Q 3100 369 3170 319 
Q 3241 269 3416 256 
L 3416 153 
L 2181 -88 
L 2181 375 
Q 1959 106 1786 9 
Q 1613 -88 1394 -88 
Q 834 -88 509 413 
Q 247 819 247 1409 
Q 247 1881 409 2254 
Q 572 2628 855 2818 
Q 1138 3009 1463 3009 
Q 1672 3009 1834 2928 
Q 1997 2847 2181 2644 
L 2181 3525 
Q 2181 3859 2153 3928 
Q 2116 4019 2041 4062 
Q 1966 4106 1759 4106 
L 1759 4238 
L 3056 4238 
z
M 2181 2256 
Q 1950 2700 1616 2700 
Q 1500 2700 1425 2638 
Q 1309 2541 1236 2297 
Q 1163 2053 1163 1550 
Q 1163 997 1244 731 
Q 1325 466 1466 347 
Q 1538 288 1663 288 
Q 1938 288 2181 719 
L 2181 2256 
z
" transform="scale(0.015625)"/>
      <path id="TimesNewRomanPS-BoldMT-6c" d="M 1359 4238 
L 1359 606 
Q 1359 297 1431 211 
Q 1503 125 1713 113 
L 1713 0 
L 134 0 
L 134 113 
Q 328 119 422 225 
Q 484 297 484 606 
L 484 3631 
Q 484 3938 412 4023 
Q 341 4109 134 4122 
L 134 4238 
L 1359 4238 
z
" transform="scale(0.015625)"/>
      <path id="TimesNewRomanPS-BoldMT-79" d="M 1556 -119 
L 613 2047 
Q 400 2538 298 2650 
Q 197 2763 53 2806 
L 53 2922 
L 1606 2922 
L 1606 2806 
Q 1453 2800 1390 2747 
Q 1328 2694 1328 2619 
Q 1328 2500 1484 2150 
L 1984 1006 
L 2325 1891 
Q 2509 2363 2509 2547 
Q 2509 2663 2432 2731 
Q 2356 2800 2163 2806 
L 2163 2922 
L 3141 2922 
L 3141 2806 
Q 2997 2791 2906 2695 
Q 2816 2600 2603 2047 
L 1769 -119 
Q 1453 -931 1300 -1119 
Q 1084 -1381 759 -1381 
Q 500 -1381 339 -1232 
Q 178 -1084 178 -875 
Q 178 -694 289 -575 
Q 400 -456 563 -456 
Q 719 -456 814 -556 
Q 909 -656 913 -866 
Q 916 -984 941 -1019 
Q 966 -1053 1013 -1053 
Q 1088 -1053 1172 -963 
Q 1297 -831 1466 -363 
L 1556 -119 
z
" transform="scale(0.015625)"/>
      <path id="TimesNewRomanPS-BoldMT-75" d="M 3038 2922 
L 3038 634 
Q 3038 300 3100 217 
Q 3163 134 3353 113 
L 3353 0 
L 2163 0 
L 2163 391 
Q 1953 141 1743 26 
Q 1534 -88 1275 -88 
Q 1028 -88 836 64 
Q 644 216 578 419 
Q 513 622 513 1128 
L 513 2288 
Q 513 2619 452 2700 
Q 391 2781 197 2806 
L 197 2922 
L 1388 2922 
L 1388 925 
Q 1388 613 1417 522 
Q 1447 431 1511 384 
Q 1575 338 1659 338 
Q 1772 338 1863 397 
Q 1988 478 2163 725 
L 2163 2288 
Q 2163 2619 2102 2700 
Q 2041 2781 1847 2806 
L 1847 2922 
L 3038 2922 
z
" transform="scale(0.015625)"/>
      <path id="TimesNewRomanPS-BoldMT-70" d="M 1347 297 
L 1347 -791 
Q 1347 -1016 1383 -1097 
Q 1419 -1178 1494 -1215 
Q 1569 -1253 1788 -1253 
L 1788 -1369 
L 122 -1369 
L 122 -1253 
Q 316 -1247 409 -1144 
Q 472 -1072 472 -772 
L 472 2313 
Q 472 2622 400 2708 
Q 328 2794 122 2806 
L 122 2922 
L 1347 2922 
L 1347 2538 
Q 1500 2763 1659 2863 
Q 1888 3009 2156 3009 
Q 2478 3009 2742 2806 
Q 3006 2603 3143 2245 
Q 3281 1888 3281 1475 
Q 3281 1031 3139 664 
Q 2997 297 2726 104 
Q 2456 -88 2125 -88 
Q 1884 -88 1675 19 
Q 1519 100 1347 297 
z
M 1347 613 
Q 1616 231 1922 231 
Q 2091 231 2200 409 
Q 2363 672 2363 1409 
Q 2363 2166 2184 2444 
Q 2066 2628 1866 2628 
Q 1550 2628 1347 2172 
L 1347 613 
z
" transform="scale(0.015625)"/>
      <path id="TimesNewRomanPS-BoldMT-65" d="M 2691 1566 
L 1088 1566 
Q 1116 984 1397 647 
Q 1613 388 1916 388 
Q 2103 388 2256 492 
Q 2409 597 2584 869 
L 2691 800 
Q 2453 316 2165 114 
Q 1878 -88 1500 -88 
Q 850 -88 516 413 
Q 247 816 247 1413 
Q 247 2144 642 2576 
Q 1038 3009 1569 3009 
Q 2013 3009 2339 2645 
Q 2666 2281 2691 1566 
z
M 1922 1775 
Q 1922 2278 1867 2465 
Q 1813 2653 1697 2750 
Q 1631 2806 1522 2806 
Q 1359 2806 1256 2647 
Q 1072 2369 1072 1884 
L 1072 1775 
L 1922 1775 
z
" transform="scale(0.015625)"/>
      <path id="TimesNewRomanPS-BoldMT-76" d="M 1534 -88 
L 550 2178 
Q 372 2588 272 2697 
Q 200 2778 59 2806 
L 59 2922 
L 1613 2922 
L 1613 2806 
Q 1466 2806 1413 2753 
Q 1338 2684 1338 2591 
Q 1338 2475 1475 2156 
L 1956 1059 
L 2341 2006 
Q 2506 2413 2506 2581 
Q 2506 2678 2436 2739 
Q 2366 2800 2188 2806 
L 2188 2922 
L 3144 2922 
L 3144 2806 
Q 3006 2788 2918 2703 
Q 2831 2619 2656 2206 
L 1681 -88 
L 1534 -88 
z
" transform="scale(0.015625)"/>
      <path id="TimesNewRomanPS-BoldMT-66" d="M 1497 2616 
L 1497 588 
Q 1497 294 1559 219 
Q 1659 103 1928 113 
L 1928 0 
L 206 0 
L 206 113 
Q 403 116 486 158 
Q 569 200 600 275 
Q 631 350 631 588 
L 631 2616 
L 206 2616 
L 206 2922 
L 631 2922 
L 631 3138 
L 628 3284 
Q 628 3734 958 4034 
Q 1288 4334 1850 4334 
Q 2234 4334 2420 4190 
Q 2606 4047 2606 3872 
Q 2606 3731 2490 3628 
Q 2375 3525 2184 3525 
Q 2022 3525 1926 3609 
Q 1831 3694 1831 3797 
Q 1831 3825 1850 3913 
Q 1863 3966 1863 4013 
Q 1863 4078 1825 4109 
Q 1775 4156 1703 4156 
Q 1613 4156 1552 4081 
Q 1491 4006 1491 3841 
L 1497 3294 
L 1497 2922 
L 1928 2922 
L 1928 2616 
L 1497 2616 
z
" transform="scale(0.015625)"/>
      <path id="TimesNewRomanPS-BoldMT-72" d="M 1428 2922 
L 1428 2259 
Q 1719 2713 1937 2861 
Q 2156 3009 2359 3009 
Q 2534 3009 2639 2901 
Q 2744 2794 2744 2597 
Q 2744 2388 2642 2272 
Q 2541 2156 2397 2156 
Q 2231 2156 2109 2262 
Q 1988 2369 1966 2381 
Q 1934 2400 1894 2400 
Q 1803 2400 1722 2331 
Q 1594 2225 1528 2028 
Q 1428 1725 1428 1359 
L 1428 688 
L 1431 513 
Q 1431 334 1453 284 
Q 1491 200 1564 161 
Q 1638 122 1813 113 
L 1813 0 
L 234 0 
L 234 113 
Q 425 128 492 217 
Q 559 306 559 688 
L 559 2303 
Q 559 2553 534 2622 
Q 503 2709 443 2750 
Q 384 2791 234 2806 
L 234 2922 
L 1428 2922 
z
" transform="scale(0.015625)"/>
      <path id="TimesNewRomanPS-BoldMT-28" d="M 2056 4334 
L 2056 4191 
Q 1731 3978 1578 3775 
Q 1366 3494 1247 3053 
Q 1097 2506 1097 1525 
Q 1097 600 1233 87 
Q 1369 -425 1603 -741 
Q 1766 -959 2056 -1125 
L 2056 -1281 
Q 1303 -1028 779 -248 
Q 256 531 256 1544 
Q 256 2544 778 3314 
Q 1300 4084 2056 4334 
z
" transform="scale(0.015625)"/>
      <path id="TimesNewRomanPS-BoldMT-4e" d="M 1594 4238 
L 3684 1609 
L 3684 3431 
Q 3684 3813 3575 3947 
Q 3425 4128 3072 4122 
L 3072 4238 
L 4472 4238 
L 4472 4122 
Q 4203 4088 4111 4033 
Q 4019 3978 3967 3854 
Q 3916 3731 3916 3431 
L 3916 -97 
L 3809 -97 
L 944 3431 
L 944 738 
Q 944 372 1111 244 
Q 1278 116 1494 116 
L 1594 116 
L 1594 0 
L 91 0 
L 91 116 
Q 441 119 578 259 
Q 716 400 716 738 
L 716 3728 
L 625 3841 
Q 491 4009 387 4062 
Q 284 4116 91 4122 
L 91 4238 
L 1594 4238 
z
" transform="scale(0.015625)"/>
      <path id="TimesNewRomanPS-BoldMT-6d" d="M 1428 2922 
L 1428 2538 
Q 1669 2800 1873 2904 
Q 2078 3009 2322 3009 
Q 2603 3009 2793 2878 
Q 2984 2747 3088 2478 
Q 3338 2759 3567 2884 
Q 3797 3009 4047 3009 
Q 4350 3009 4529 2870 
Q 4709 2731 4779 2517 
Q 4850 2303 4850 1834 
L 4850 638 
Q 4850 300 4911 219 
Q 4972 138 5166 113 
L 5166 0 
L 3656 0 
L 3656 113 
Q 3834 128 3919 250 
Q 3975 334 3975 638 
L 3975 1894 
Q 3975 2284 3944 2390 
Q 3913 2497 3845 2548 
Q 3778 2600 3688 2600 
Q 3553 2600 3415 2501 
Q 3278 2403 3138 2206 
L 3138 638 
Q 3138 322 3191 241 
Q 3263 125 3466 113 
L 3466 0 
L 1953 0 
L 1953 113 
Q 2075 119 2145 173 
Q 2216 228 2239 304 
Q 2263 381 2263 638 
L 2263 1894 
Q 2263 2291 2231 2391 
Q 2200 2491 2126 2547 
Q 2053 2603 1969 2603 
Q 1844 2603 1741 2538 
Q 1594 2441 1428 2206 
L 1428 638 
Q 1428 328 1489 229 
Q 1550 131 1744 113 
L 1744 0 
L 238 0 
L 238 113 
Q 422 131 500 231 
Q 553 300 553 638 
L 553 2288 
Q 553 2619 492 2700 
Q 431 2781 238 2806 
L 238 2922 
L 1428 2922 
z
" transform="scale(0.015625)"/>
      <path id="TimesNewRomanPS-BoldMT-62" d="M 1347 4238 
L 1347 2628 
Q 1716 3009 2153 3009 
Q 2453 3009 2718 2832 
Q 2984 2656 3134 2331 
Q 3284 2006 3284 1581 
Q 3284 1103 3093 712 
Q 2903 322 2584 117 
Q 2266 -88 1856 -88 
Q 1619 -88 1434 -12 
Q 1250 63 1072 231 
L 588 -84 
L 481 -84 
L 481 3631 
Q 481 3884 459 3944 
Q 428 4031 361 4073 
Q 294 4116 134 4122 
L 134 4238 
L 1347 4238 
z
M 1347 2350 
L 1347 1050 
Q 1347 653 1366 544 
Q 1397 359 1515 245 
Q 1634 131 1819 131 
Q 1978 131 2092 222 
Q 2206 313 2282 581 
Q 2359 850 2359 1550 
Q 2359 2222 2191 2472 
Q 2069 2653 1863 2653 
Q 1594 2653 1347 2350 
z
" transform="scale(0.015625)"/>
      <path id="TimesNewRomanPS-BoldMT-29" d="M 78 -1281 
L 78 -1138 
Q 403 -922 556 -719 
Q 766 -438 888 0 
Q 1038 550 1038 1531 
Q 1038 2456 902 2967 
Q 766 3478 531 3794 
Q 369 4013 78 4178 
L 78 4334 
Q 831 4081 1354 3301 
Q 1878 2522 1878 1509 
Q 1878 513 1354 -257 
Q 831 -1028 78 -1281 
z
" transform="scale(0.015625)"/>
     </defs>
     <use xlink:href="#TimesNewRomanPS-BoldMT-53"/>
     <use xlink:href="#TimesNewRomanPS-BoldMT-74" x="55.615234"/>
     <use xlink:href="#TimesNewRomanPS-BoldMT-61" x="88.916016"/>
     <use xlink:href="#TimesNewRomanPS-BoldMT-74" x="138.916016"/>
     <use xlink:href="#TimesNewRomanPS-BoldMT-69" x="172.216797"/>
     <use xlink:href="#TimesNewRomanPS-BoldMT-73" x="200"/>
     <use xlink:href="#TimesNewRomanPS-BoldMT-74" x="238.916016"/>
     <use xlink:href="#TimesNewRomanPS-BoldMT-69" x="272.216797"/>
     <use xlink:href="#TimesNewRomanPS-BoldMT-63" x="300"/>
     <use xlink:href="#TimesNewRomanPS-BoldMT-73" x="344.384766"/>
     <use xlink:href="#TimesNewRomanPS-BoldMT-20" x="383.300781"/>
     <use xlink:href="#TimesNewRomanPS-BoldMT-6f" x="408.300781"/>
     <use xlink:href="#TimesNewRomanPS-BoldMT-6e" x="458.300781"/>
     <use xlink:href="#TimesNewRomanPS-BoldMT-20" x="513.916016"/>
     <use xlink:href="#TimesNewRomanPS-BoldMT-64" x="538.916016"/>
     <use xlink:href="#TimesNewRomanPS-BoldMT-61" x="594.53125"/>
     <use xlink:href="#TimesNewRomanPS-BoldMT-69" x="644.53125"/>
     <use xlink:href="#TimesNewRomanPS-BoldMT-6c" x="672.314453"/>
     <use xlink:href="#TimesNewRomanPS-BoldMT-79" x="700.097656"/>
     <use xlink:href="#TimesNewRomanPS-BoldMT-20" x="750.097656"/>
     <use xlink:href="#TimesNewRomanPS-BoldMT-6f" x="775.097656"/>
     <use xlink:href="#TimesNewRomanPS-BoldMT-75" x="825.097656"/>
     <use xlink:href="#TimesNewRomanPS-BoldMT-74" x="880.712891"/>
     <use xlink:href="#TimesNewRomanPS-BoldMT-70" x="914.013672"/>
     <use xlink:href="#TimesNewRomanPS-BoldMT-61" x="969.628906"/>
     <use xlink:href="#TimesNewRomanPS-BoldMT-74" x="1019.628906"/>
     <use xlink:href="#TimesNewRomanPS-BoldMT-69" x="1052.929688"/>
     <use xlink:href="#TimesNewRomanPS-BoldMT-65" x="1080.712891"/>
     <use xlink:href="#TimesNewRomanPS-BoldMT-6e" x="1125.097656"/>
     <use xlink:href="#TimesNewRomanPS-BoldMT-74" x="1180.712891"/>
     <use xlink:href="#TimesNewRomanPS-BoldMT-20" x="1214.013672"/>
     <use xlink:href="#TimesNewRomanPS-BoldMT-76" x="1239.013672"/>
     <use xlink:href="#TimesNewRomanPS-BoldMT-69" x="1289.013672"/>
     <use xlink:href="#TimesNewRomanPS-BoldMT-73" x="1316.796875"/>
     <use xlink:href="#TimesNewRomanPS-BoldMT-69" x="1355.712891"/>
     <use xlink:href="#TimesNewRomanPS-BoldMT-74" x="1383.496094"/>
     <use xlink:href="#TimesNewRomanPS-BoldMT-73" x="1416.796875"/>
     <use xlink:href="#TimesNewRomanPS-BoldMT-20" x="1455.712891"/>
     <use xlink:href="#TimesNewRomanPS-BoldMT-69" x="1480.712891"/>
     <use xlink:href="#TimesNewRomanPS-BoldMT-6e" x="1508.496094"/>
     <use xlink:href="#TimesNewRomanPS-BoldMT-20" x="1564.111328"/>
     <use xlink:href="#TimesNewRomanPS-BoldMT-64" x="1589.111328"/>
     <use xlink:href="#TimesNewRomanPS-BoldMT-69" x="1644.726562"/>
     <use xlink:href="#TimesNewRomanPS-BoldMT-66" x="1672.509766"/>
     <use xlink:href="#TimesNewRomanPS-BoldMT-66" x="1705.810547"/>
     <use xlink:href="#TimesNewRomanPS-BoldMT-65" x="1739.111328"/>
     <use xlink:href="#TimesNewRomanPS-BoldMT-72" x="1783.496094"/>
     <use xlink:href="#TimesNewRomanPS-BoldMT-65" x="1826.130859"/>
     <use xlink:href="#TimesNewRomanPS-BoldMT-6e" x="1870.515625"/>
     <use xlink:href="#TimesNewRomanPS-BoldMT-74" x="1926.130859"/>
     <use xlink:href="#TimesNewRomanPS-BoldMT-20" x="1959.431641"/>
     <use xlink:href="#TimesNewRomanPS-BoldMT-63" x="1984.431641"/>
     <use xlink:href="#TimesNewRomanPS-BoldMT-69" x="2028.816406"/>
     <use xlink:href="#TimesNewRomanPS-BoldMT-74" x="2056.599609"/>
     <use xlink:href="#TimesNewRomanPS-BoldMT-69" x="2089.900391"/>
     <use xlink:href="#TimesNewRomanPS-BoldMT-65" x="2117.683594"/>
     <use xlink:href="#TimesNewRomanPS-BoldMT-73" x="2162.068359"/>
     <use xlink:href="#TimesNewRomanPS-BoldMT-20" x="2200.984375"/>
     <use xlink:href="#TimesNewRomanPS-BoldMT-28" x="2225.984375"/>
     <use xlink:href="#TimesNewRomanPS-BoldMT-4e" x="2259.285156"/>
     <use xlink:href="#TimesNewRomanPS-BoldMT-75" x="2331.501953"/>
     <use xlink:href="#TimesNewRomanPS-BoldMT-6d" x="2387.117188"/>
     <use xlink:href="#TimesNewRomanPS-BoldMT-62" x="2470.417969"/>
     <use xlink:href="#TimesNewRomanPS-BoldMT-65" x="2526.033203"/>
     <use xlink:href="#TimesNewRomanPS-BoldMT-72" x="2570.417969"/>
     <use xlink:href="#TimesNewRomanPS-BoldMT-29" x="2614.802734"/>
    </g>
   </g>
  </g>
 </g>
 <defs>
  <clipPath id="p075e03f9a3">
   <rect x="50.915938" y="30.045" width="376.8" height="228.855181"/>
  </clipPath>
 </defs>
</svg>
