<?xml version="1.0" encoding="utf-8" standalone="no"?>
<!DOCTYPE svg PUBLIC "-//W3C//DTD SVG 1.1//EN"
  "http://www.w3.org/Graphics/SVG/1.1/DTD/svg11.dtd">
<svg xmlns:xlink="http://www.w3.org/1999/xlink" width="458.359687pt" height="319.97208pt" viewBox="0 0 458.359687 319.97208" xmlns="http://www.w3.org/2000/svg" version="1.1">
 <metadata>
  <rdf:RDF xmlns:dc="http://purl.org/dc/elements/1.1/" xmlns:cc="http://creativecommons.org/ns#" xmlns:rdf="http://www.w3.org/1999/02/22-rdf-syntax-ns#">
   <cc:Work>
    <dc:type rdf:resource="http://purl.org/dc/dcmitype/StillImage"/>
    <dc:date>2025-05-26T16:59:17.078350</dc:date>
    <dc:format>image/svg+xml</dc:format>
    <dc:creator>
     <cc:Agent>
      <dc:title>Matplotlib v3.7.2, https://matplotlib.org/</dc:title>
     </cc:Agent>
    </dc:creator>
   </cc:Work>
  </rdf:RDF>
 </metadata>
 <defs>
  <style type="text/css">*{stroke-linejoin: round; stroke-linecap: butt}</style>
 </defs>
 <g id="figure_1">
  <g id="patch_1">
   <path d="M 0 319.97208 
L 458.359687 319.97208 
L 458.359687 0 
L 0 0 
z
" style="fill: #ffffff"/>
  </g>
  <g id="axes_1">
   <g id="patch_2">
    <path d="M 50.915938 262.718557 
L 427.715937 262.718557 
L 427.715937 30.045 
L 50.915938 30.045 
z
" style="fill: #ffffff"/>
   </g>
   <g id="PolyCollection_1">
    <defs>
     <path id="m1cafc1caa3" d="M 134.185947 -71.801826 
L 93.245928 -71.801826 
L 91.242716 -73.898283 
L 89.213803 -75.994739 
L 87.177313 -78.091195 
L 85.150783 -80.187652 
L 83.150703 -82.284108 
L 81.192185 -84.380564 
L 79.288765 -86.477021 
L 77.452363 -88.573477 
L 75.69338 -90.669934 
L 74.020912 -92.76639 
L 72.443059 -94.862846 
L 70.967276 -96.959303 
L 69.600724 -99.055759 
L 68.350586 -101.152216 
L 67.22429 -103.248672 
L 66.229625 -105.345128 
L 65.374727 -107.441585 
L 64.667915 -109.538041 
L 64.117414 -111.634498 
L 63.730965 -113.730954 
L 63.515357 -115.82741 
L 63.475938 -117.923867 
L 63.616131 -120.020323 
L 63.937011 -122.11678 
L 64.43697 -124.213236 
L 65.111517 -126.309692 
L 65.953213 -128.406149 
L 66.951766 -130.502605 
L 68.094266 -132.599061 
L 69.36556 -134.695518 
L 70.74872 -136.791974 
L 72.225592 -138.888431 
L 73.777377 -140.984887 
L 75.385212 -143.081343 
L 77.030719 -145.1778 
L 78.696483 -147.274256 
L 80.366451 -149.370713 
L 82.026226 -151.467169 
L 83.663248 -153.563625 
L 85.266877 -155.660082 
L 86.828365 -157.756538 
L 88.340747 -159.852995 
L 89.798664 -161.949451 
L 91.198135 -164.045907 
L 92.536308 -166.142364 
L 93.811205 -168.23882 
L 95.021486 -170.335277 
L 96.166247 -172.431733 
L 97.244865 -174.528189 
L 98.256896 -176.624646 
L 99.202033 -178.721102 
L 100.080105 -180.817558 
L 100.891131 -182.914015 
L 101.635393 -185.010471 
L 102.313525 -187.106928 
L 102.9266 -189.203384 
L 103.476193 -191.29984 
L 103.964416 -193.396297 
L 104.393908 -195.492753 
L 104.767788 -197.58921 
L 105.089564 -199.685666 
L 105.363008 -201.782122 
L 105.592024 -203.878579 
L 105.780498 -205.975035 
L 105.932172 -208.071492 
L 106.050544 -210.167948 
L 106.138803 -212.264404 
L 106.199821 -214.360861 
L 106.236185 -216.457317 
L 106.250271 -218.553773 
L 106.244363 -220.65023 
L 106.220778 -222.746686 
L 106.182002 -224.843143 
L 106.130803 -226.939599 
L 106.07032 -229.036055 
L 106.004096 -231.132512 
L 105.936075 -233.228968 
L 105.870526 -235.325425 
L 105.811931 -237.421881 
L 105.764826 -239.518337 
L 105.733617 -241.614794 
L 105.722393 -243.71125 
L 105.734742 -245.807707 
L 105.773599 -247.904163 
L 105.841133 -250.000619 
L 105.93868 -252.097076 
L 106.066738 -254.193532 
L 106.224999 -256.289989 
L 106.412431 -258.386445 
L 106.627392 -260.482901 
L 106.867749 -262.579358 
L 107.131016 -264.675814 
L 107.414464 -266.77227 
L 107.715228 -268.868727 
L 108.030374 -270.965183 
L 108.35695 -273.06164 
L 108.692011 -275.158096 
L 109.032626 -277.254552 
L 109.375877 -279.351009 
L 118.055998 -279.351009 
L 118.055998 -279.351009 
L 118.399249 -277.254552 
L 118.739864 -275.158096 
L 119.074925 -273.06164 
L 119.401501 -270.965183 
L 119.716647 -268.868727 
L 120.017411 -266.77227 
L 120.300859 -264.675814 
L 120.564126 -262.579358 
L 120.804483 -260.482901 
L 121.019444 -258.386445 
L 121.206876 -256.289989 
L 121.365137 -254.193532 
L 121.493195 -252.097076 
L 121.590742 -250.000619 
L 121.658276 -247.904163 
L 121.697133 -245.807707 
L 121.709482 -243.71125 
L 121.698258 -241.614794 
L 121.667049 -239.518337 
L 121.619944 -237.421881 
L 121.561349 -235.325425 
L 121.4958 -233.228968 
L 121.427779 -231.132512 
L 121.361555 -229.036055 
L 121.301072 -226.939599 
L 121.249873 -224.843143 
L 121.211097 -222.746686 
L 121.187512 -220.65023 
L 121.181604 -218.553773 
L 121.19569 -216.457317 
L 121.232054 -214.360861 
L 121.293072 -212.264404 
L 121.381331 -210.167948 
L 121.499703 -208.071492 
L 121.651377 -205.975035 
L 121.839851 -203.878579 
L 122.068867 -201.782122 
L 122.342311 -199.685666 
L 122.664087 -197.58921 
L 123.037967 -195.492753 
L 123.467459 -193.396297 
L 123.955682 -191.29984 
L 124.505275 -189.203384 
L 125.11835 -187.106928 
L 125.796482 -185.010471 
L 126.540744 -182.914015 
L 127.35177 -180.817558 
L 128.229842 -178.721102 
L 129.174979 -176.624646 
L 130.18701 -174.528189 
L 131.265628 -172.431733 
L 132.410389 -170.335277 
L 133.62067 -168.23882 
L 134.895567 -166.142364 
L 136.23374 -164.045907 
L 137.633211 -161.949451 
L 139.091128 -159.852995 
L 140.60351 -157.756538 
L 142.164998 -155.660082 
L 143.768627 -153.563625 
L 145.405649 -151.467169 
L 147.065424 -149.370713 
L 148.735392 -147.274256 
L 150.401156 -145.1778 
L 152.046663 -143.081343 
L 153.654498 -140.984887 
L 155.206283 -138.888431 
L 156.683155 -136.791974 
L 158.066315 -134.695518 
L 159.337609 -132.599061 
L 160.480109 -130.502605 
L 161.478662 -128.406149 
L 162.320358 -126.309692 
L 162.994905 -124.213236 
L 163.494864 -122.11678 
L 163.815744 -120.020323 
L 163.955938 -117.923867 
L 163.916518 -115.82741 
L 163.70091 -113.730954 
L 163.314461 -111.634498 
L 162.76396 -109.538041 
L 162.057148 -107.441585 
L 161.20225 -105.345128 
L 160.207585 -103.248672 
L 159.081289 -101.152216 
L 157.831151 -99.055759 
L 156.464599 -96.959303 
L 154.988816 -94.862846 
L 153.410963 -92.76639 
L 151.738495 -90.669934 
L 149.979512 -88.573477 
L 148.14311 -86.477021 
L 146.23969 -84.380564 
L 144.281172 -82.284108 
L 142.281092 -80.187652 
L 140.254562 -78.091195 
L 138.218072 -75.994739 
L 136.189159 -73.898283 
L 134.185947 -71.801826 
z
" style="stroke: #000000; stroke-opacity: 0.7"/>
    </defs>
    <g clip-path="url(#pcc3d1e02bf)">
     <use xlink:href="#m1cafc1caa3" x="0" y="319.97208" style="fill: #7f7f7f; fill-opacity: 0.7; stroke: #000000; stroke-opacity: 0.7"/>
    </g>
   </g>
   <g id="PolyCollection_2">
    <defs>
     <path id="me27be9fc7b" d="M 268.451942 -67.829593 
L 210.179933 -67.829593 
L 207.914659 -69.223887 
L 205.685626 -70.618181 
L 203.517706 -72.012475 
L 201.435069 -73.406769 
L 199.460649 -74.801063 
L 197.615675 -76.195357 
L 195.919252 -77.589651 
L 194.388017 -78.983945 
L 193.03586 -80.378239 
L 191.873718 -81.772533 
L 190.909432 -83.166827 
L 190.147659 -84.561121 
L 189.589844 -85.955415 
L 189.234235 -87.349708 
L 189.075938 -88.744002 
L 189.107009 -90.138296 
L 189.31659 -91.53259 
L 189.691069 -92.926884 
L 190.214286 -94.321178 
L 190.867775 -95.715472 
L 191.631056 -97.109766 
L 192.48197 -98.50406 
L 193.39707 -99.898354 
L 194.352059 -101.292648 
L 195.322284 -102.686942 
L 196.283266 -104.081236 
L 197.211269 -105.47553 
L 198.083886 -106.869824 
L 198.880623 -108.264118 
L 199.583472 -109.658412 
L 200.17743 -111.052706 
L 200.650963 -112.447 
L 200.996378 -113.841294 
L 201.210089 -115.235588 
L 201.292765 -116.629882 
L 201.249339 -118.024176 
L 201.088895 -119.41847 
L 200.824407 -120.812764 
L 200.472368 -122.207058 
L 200.052295 -123.601352 
L 199.586155 -124.995645 
L 199.097701 -126.389939 
L 198.611782 -127.784233 
L 198.153604 -129.178527 
L 197.748008 -130.572821 
L 197.418752 -131.967115 
L 197.187842 -133.361409 
L 197.07491 -134.755703 
L 197.096667 -136.149997 
L 197.266428 -137.544291 
L 197.593738 -138.938585 
L 198.084091 -140.332879 
L 198.738759 -141.727173 
L 199.554732 -143.121467 
L 200.524775 -144.515761 
L 201.637607 -145.910055 
L 202.878201 -147.304349 
L 204.228199 -148.698643 
L 205.666439 -150.092937 
L 207.169582 -151.487231 
L 208.712826 -152.881525 
L 210.270676 -154.275819 
L 211.817759 -155.670113 
L 213.329636 -157.064407 
L 214.783598 -158.458701 
L 216.159402 -159.852995 
L 217.439907 -161.247289 
L 218.6116 -162.641582 
L 219.664972 -164.035876 
L 220.594726 -165.43017 
L 221.399819 -166.824464 
L 222.083321 -168.218758 
L 222.652112 -169.613052 
L 223.116427 -171.007346 
L 223.489279 -172.40164 
L 223.785789 -173.795934 
L 224.022452 -175.190228 
L 224.2164 -176.584522 
L 224.38467 -177.978816 
L 224.543534 -179.37311 
L 224.707911 -180.767404 
L 224.890891 -182.161698 
L 225.103373 -183.555992 
L 225.353847 -184.950286 
L 225.648292 -186.34458 
L 225.990203 -187.738874 
L 226.380723 -189.133168 
L 226.818856 -190.527462 
L 227.301757 -191.921756 
L 227.825049 -193.31605 
L 228.38317 -194.710344 
L 228.969715 -196.104638 
L 229.577761 -197.498932 
L 230.200164 -198.893226 
L 230.829819 -200.287519 
L 231.459869 -201.681813 
L 232.083879 -203.076107 
L 232.695962 -204.470401 
L 233.290869 -205.864695 
L 245.341006 -205.864695 
L 245.341006 -205.864695 
L 245.935913 -204.470401 
L 246.547996 -203.076107 
L 247.172006 -201.681813 
L 247.802056 -200.287519 
L 248.431711 -198.893226 
L 249.054114 -197.498932 
L 249.66216 -196.104638 
L 250.248705 -194.710344 
L 250.806826 -193.31605 
L 251.330118 -191.921756 
L 251.813019 -190.527462 
L 252.251152 -189.133168 
L 252.641672 -187.738874 
L 252.983583 -186.34458 
L 253.278028 -184.950286 
L 253.528502 -183.555992 
L 253.740984 -182.161698 
L 253.923964 -180.767404 
L 254.088341 -179.37311 
L 254.247205 -177.978816 
L 254.415475 -176.584522 
L 254.609423 -175.190228 
L 254.846086 -173.795934 
L 255.142596 -172.40164 
L 255.515448 -171.007346 
L 255.979763 -169.613052 
L 256.548554 -168.218758 
L 257.232056 -166.824464 
L 258.037149 -165.43017 
L 258.966903 -164.035876 
L 260.020275 -162.641582 
L 261.191968 -161.247289 
L 262.472473 -159.852995 
L 263.848277 -158.458701 
L 265.302239 -157.064407 
L 266.814116 -155.670113 
L 268.361199 -154.275819 
L 269.919049 -152.881525 
L 271.462293 -151.487231 
L 272.965436 -150.092937 
L 274.403676 -148.698643 
L 275.753674 -147.304349 
L 276.994268 -145.910055 
L 278.1071 -144.515761 
L 279.077143 -143.121467 
L 279.893116 -141.727173 
L 280.547784 -140.332879 
L 281.038137 -138.938585 
L 281.365447 -137.544291 
L 281.535208 -136.149997 
L 281.556965 -134.755703 
L 281.444033 -133.361409 
L 281.213123 -131.967115 
L 280.883867 -130.572821 
L 280.478271 -129.178527 
L 280.020093 -127.784233 
L 279.534174 -126.389939 
L 279.04572 -124.995645 
L 278.57958 -123.601352 
L 278.159507 -122.207058 
L 277.807468 -120.812764 
L 277.54298 -119.41847 
L 277.382536 -118.024176 
L 277.33911 -116.629882 
L 277.421786 -115.235588 
L 277.635497 -113.841294 
L 277.980912 -112.447 
L 278.454445 -111.052706 
L 279.048403 -109.658412 
L 279.751252 -108.264118 
L 280.547989 -106.869824 
L 281.420606 -105.47553 
L 282.348609 -104.081236 
L 283.309591 -102.686942 
L 284.279816 -101.292648 
L 285.234805 -99.898354 
L 286.149905 -98.50406 
L 287.000819 -97.109766 
L 287.7641 -95.715472 
L 288.417589 -94.321178 
L 288.940806 -92.926884 
L 289.315285 -91.53259 
L 289.524866 -90.138296 
L 289.555937 -88.744002 
L 289.39764 -87.349708 
L 289.042031 -85.955415 
L 288.484216 -84.561121 
L 287.722443 -83.166827 
L 286.758157 -81.772533 
L 285.596015 -80.378239 
L 284.243858 -78.983945 
L 282.712623 -77.589651 
L 281.0162 -76.195357 
L 279.171226 -74.801063 
L 277.196806 -73.406769 
L 275.114169 -72.012475 
L 272.946249 -70.618181 
L 270.717216 -69.223887 
L 268.451942 -67.829593 
z
" style="stroke: #000000; stroke-opacity: 0.7"/>
    </defs>
    <g clip-path="url(#pcc3d1e02bf)">
     <use xlink:href="#me27be9fc7b" x="0" y="319.97208" style="fill: #ff7f0e; fill-opacity: 0.7; stroke: #000000; stroke-opacity: 0.7"/>
    </g>
   </g>
   <g id="PolyCollection_3">
    <defs>
     <path id="m844abfc262" d="M 390.454478 -73.504212 
L 339.377397 -73.504212 
L 336.697482 -74.961557 
L 334.023224 -76.418902 
L 331.398387 -77.876248 
L 328.86633 -79.333593 
L 326.468164 -80.790938 
L 324.241004 -82.248283 
L 322.216422 -83.705629 
L 320.419219 -85.162974 
L 318.866573 -86.620319 
L 317.567636 -88.077665 
L 316.523571 -89.53501 
L 315.72802 -90.992355 
L 315.167955 -92.4497 
L 314.824828 -93.907046 
L 314.675937 -95.364391 
L 314.695903 -96.821736 
L 314.858167 -98.279082 
L 315.136411 -99.736427 
L 315.50583 -101.193772 
L 315.944194 -102.651117 
L 316.432651 -104.108463 
L 316.956259 -105.565808 
L 317.504226 -107.023153 
L 318.069883 -108.480499 
L 318.650394 -109.937844 
L 319.246251 -111.395189 
L 319.860594 -112.852534 
L 320.498415 -114.30988 
L 321.165688 -115.767225 
L 321.86851 -117.22457 
L 322.612291 -118.681916 
L 323.401064 -120.139261 
L 324.236955 -121.596606 
L 325.119852 -123.053951 
L 326.047283 -124.511297 
L 327.014514 -125.968642 
L 328.01485 -127.425987 
L 329.040094 -128.883333 
L 330.081136 -130.340678 
L 331.1286 -131.798023 
L 332.173495 -133.255368 
L 333.207817 -134.712714 
L 334.225039 -136.170059 
L 335.220464 -137.627404 
L 336.191402 -139.08475 
L 337.137169 -140.542095 
L 338.058924 -141.99944 
L 338.959342 -143.456785 
L 339.842189 -144.914131 
L 340.711812 -146.371476 
L 341.572607 -147.828821 
L 342.4285 -149.286167 
L 343.282495 -150.743512 
L 344.136297 -152.200857 
L 344.990066 -153.658202 
L 345.842291 -155.115548 
L 346.689795 -156.572893 
L 347.527878 -158.030238 
L 348.350557 -159.487583 
L 349.150912 -160.944929 
L 349.92149 -162.402274 
L 350.654753 -163.859619 
L 351.343527 -165.316965 
L 351.981445 -166.77431 
L 352.563338 -168.231655 
L 353.085554 -169.689 
L 353.546204 -171.146346 
L 353.945301 -172.603691 
L 354.2848 -174.061036 
L 354.56853 -175.518382 
L 354.80203 -176.975727 
L 354.992295 -178.433072 
L 355.147449 -179.890417 
L 355.276377 -181.347763 
L 355.388312 -182.805108 
L 355.492432 -184.262453 
L 355.597468 -185.719799 
L 355.711353 -187.177144 
L 355.840934 -188.634489 
L 355.991748 -190.091834 
L 356.167882 -191.54918 
L 356.371913 -193.006525 
L 356.604934 -194.46387 
L 356.86664 -195.921216 
L 357.155485 -197.378561 
L 357.468883 -198.835906 
L 357.803435 -200.293251 
L 358.155171 -201.750597 
L 358.519793 -203.207942 
L 358.892903 -204.665287 
L 359.270195 -206.122633 
L 359.647621 -207.579978 
L 360.021513 -209.037323 
L 360.388662 -210.494668 
L 360.746361 -211.952014 
L 361.092403 -213.409359 
L 361.425059 -214.866704 
L 361.743028 -216.32405 
L 362.045376 -217.781395 
L 367.786499 -217.781395 
L 367.786499 -217.781395 
L 368.088847 -216.32405 
L 368.406816 -214.866704 
L 368.739472 -213.409359 
L 369.085514 -211.952014 
L 369.443213 -210.494668 
L 369.810362 -209.037323 
L 370.184254 -207.579978 
L 370.56168 -206.122633 
L 370.938972 -204.665287 
L 371.312082 -203.207942 
L 371.676704 -201.750597 
L 372.02844 -200.293251 
L 372.362992 -198.835906 
L 372.67639 -197.378561 
L 372.965235 -195.921216 
L 373.226941 -194.46387 
L 373.459962 -193.006525 
L 373.663993 -191.54918 
L 373.840127 -190.091834 
L 373.990941 -188.634489 
L 374.120522 -187.177144 
L 374.234407 -185.719799 
L 374.339443 -184.262453 
L 374.443563 -182.805108 
L 374.555498 -181.347763 
L 374.684426 -179.890417 
L 374.83958 -178.433072 
L 375.029845 -176.975727 
L 375.263345 -175.518382 
L 375.547075 -174.061036 
L 375.886574 -172.603691 
L 376.285671 -171.146346 
L 376.746321 -169.689 
L 377.268537 -168.231655 
L 377.85043 -166.77431 
L 378.488348 -165.316965 
L 379.177122 -163.859619 
L 379.910385 -162.402274 
L 380.680963 -160.944929 
L 381.481318 -159.487583 
L 382.303997 -158.030238 
L 383.14208 -156.572893 
L 383.989584 -155.115548 
L 384.841809 -153.658202 
L 385.695578 -152.200857 
L 386.54938 -150.743512 
L 387.403375 -149.286167 
L 388.259268 -147.828821 
L 389.120063 -146.371476 
L 389.989686 -144.914131 
L 390.872533 -143.456785 
L 391.772951 -141.99944 
L 392.694706 -140.542095 
L 393.640473 -139.08475 
L 394.611411 -137.627404 
L 395.606836 -136.170059 
L 396.624058 -134.712714 
L 397.65838 -133.255368 
L 398.703275 -131.798023 
L 399.750739 -130.340678 
L 400.791781 -128.883333 
L 401.817025 -127.425987 
L 402.817361 -125.968642 
L 403.784592 -124.511297 
L 404.712023 -123.053951 
L 405.59492 -121.596606 
L 406.430811 -120.139261 
L 407.219584 -118.681916 
L 407.963365 -117.22457 
L 408.666187 -115.767225 
L 409.33346 -114.30988 
L 409.971281 -112.852534 
L 410.585624 -111.395189 
L 411.181481 -109.937844 
L 411.761992 -108.480499 
L 412.327649 -107.023153 
L 412.875616 -105.565808 
L 413.399224 -104.108463 
L 413.887681 -102.651117 
L 414.326045 -101.193772 
L 414.695464 -99.736427 
L 414.973708 -98.279082 
L 415.135972 -96.821736 
L 415.155937 -95.364391 
L 415.007047 -93.907046 
L 414.66392 -92.4497 
L 414.103855 -90.992355 
L 413.308304 -89.53501 
L 412.264239 -88.077665 
L 410.965302 -86.620319 
L 409.412656 -85.162974 
L 407.615453 -83.705629 
L 405.590871 -82.248283 
L 403.363711 -80.790938 
L 400.965545 -79.333593 
L 398.433488 -77.876248 
L 395.808651 -76.418902 
L 393.134393 -74.961557 
L 390.454478 -73.504212 
z
" style="stroke: #000000; stroke-opacity: 0.7"/>
    </defs>
    <g clip-path="url(#pcc3d1e02bf)">
     <use xlink:href="#m844abfc262" x="0" y="319.97208" style="fill: #fc8d62; fill-opacity: 0.7; stroke: #000000; stroke-opacity: 0.7"/>
    </g>
   </g>
   <g id="matplotlib.axis_1">
    <g id="xtick_1">
     <g id="line2d_1">
      <defs>
       <path id="mb4582dcce5" d="M 0 0 
L 0 3.5 
" style="stroke: #000000; stroke-width: 0.8"/>
      </defs>
      <g>
       <use xlink:href="#mb4582dcce5" x="113.715937" y="262.718557" style="stroke: #000000; stroke-width: 0.8"/>
      </g>
     </g>
     <g id="text_1">
      <!-- Dunvale -->
      <g transform="translate(83.15434 304.357067) rotate(-45) scale(0.12 -0.12)">
       <defs>
        <path id="TimesNewRomanPSMT-44" d="M 109 0 
L 109 116 
L 269 116 
Q 538 116 650 288 
Q 719 391 719 750 
L 719 3488 
Q 719 3884 631 3984 
Q 509 4122 269 4122 
L 109 4122 
L 109 4238 
L 1834 4238 
Q 2784 4238 3279 4022 
Q 3775 3806 4076 3303 
Q 4378 2800 4378 2141 
Q 4378 1256 3841 663 
Q 3238 0 2003 0 
L 109 0 
z
M 1319 306 
Q 1716 219 1984 219 
Q 2709 219 3187 728 
Q 3666 1238 3666 2109 
Q 3666 2988 3187 3494 
Q 2709 4000 1959 4000 
Q 1678 4000 1319 3909 
L 1319 306 
z
" transform="scale(0.015625)"/>
        <path id="TimesNewRomanPSMT-75" d="M 2709 2863 
L 2709 1128 
Q 2709 631 2732 520 
Q 2756 409 2807 365 
Q 2859 322 2928 322 
Q 3025 322 3147 375 
L 3191 266 
L 2334 -88 
L 2194 -88 
L 2194 519 
Q 1825 119 1631 15 
Q 1438 -88 1222 -88 
Q 981 -88 804 51 
Q 628 191 559 409 
Q 491 628 491 1028 
L 491 2306 
Q 491 2509 447 2587 
Q 403 2666 317 2708 
Q 231 2750 6 2747 
L 6 2863 
L 1009 2863 
L 1009 947 
Q 1009 547 1148 422 
Q 1288 297 1484 297 
Q 1619 297 1789 381 
Q 1959 466 2194 703 
L 2194 2325 
Q 2194 2569 2105 2655 
Q 2016 2741 1734 2747 
L 1734 2863 
L 2709 2863 
z
" transform="scale(0.015625)"/>
        <path id="TimesNewRomanPSMT-6e" d="M 1034 2341 
Q 1538 2947 1994 2947 
Q 2228 2947 2397 2830 
Q 2566 2713 2666 2444 
Q 2734 2256 2734 1869 
L 2734 647 
Q 2734 375 2778 278 
Q 2813 200 2889 156 
Q 2966 113 3172 113 
L 3172 0 
L 1756 0 
L 1756 113 
L 1816 113 
Q 2016 113 2095 173 
Q 2175 234 2206 353 
Q 2219 400 2219 647 
L 2219 1819 
Q 2219 2209 2117 2386 
Q 2016 2563 1775 2563 
Q 1403 2563 1034 2156 
L 1034 647 
Q 1034 356 1069 288 
Q 1113 197 1189 155 
Q 1266 113 1500 113 
L 1500 0 
L 84 0 
L 84 113 
L 147 113 
Q 366 113 442 223 
Q 519 334 519 647 
L 519 1709 
Q 519 2225 495 2337 
Q 472 2450 423 2490 
Q 375 2531 294 2531 
Q 206 2531 84 2484 
L 38 2597 
L 900 2947 
L 1034 2947 
L 1034 2341 
z
" transform="scale(0.015625)"/>
        <path id="TimesNewRomanPSMT-76" d="M 53 2863 
L 1400 2863 
L 1400 2747 
L 1313 2747 
Q 1191 2747 1127 2687 
Q 1063 2628 1063 2528 
Q 1063 2419 1128 2269 
L 1794 688 
L 2463 2328 
Q 2534 2503 2534 2594 
Q 2534 2638 2509 2666 
Q 2475 2713 2422 2730 
Q 2369 2747 2206 2747 
L 2206 2863 
L 3141 2863 
L 3141 2747 
Q 2978 2734 2916 2681 
Q 2806 2588 2719 2369 
L 1703 -88 
L 1575 -88 
L 553 2328 
Q 484 2497 421 2570 
Q 359 2644 263 2694 
Q 209 2722 53 2747 
L 53 2863 
z
" transform="scale(0.015625)"/>
        <path id="TimesNewRomanPSMT-61" d="M 1822 413 
Q 1381 72 1269 19 
Q 1100 -59 909 -59 
Q 613 -59 420 144 
Q 228 347 228 678 
Q 228 888 322 1041 
Q 450 1253 767 1440 
Q 1084 1628 1822 1897 
L 1822 2009 
Q 1822 2438 1686 2597 
Q 1550 2756 1291 2756 
Q 1094 2756 978 2650 
Q 859 2544 859 2406 
L 866 2225 
Q 866 2081 792 2003 
Q 719 1925 600 1925 
Q 484 1925 411 2006 
Q 338 2088 338 2228 
Q 338 2497 613 2722 
Q 888 2947 1384 2947 
Q 1766 2947 2009 2819 
Q 2194 2722 2281 2516 
Q 2338 2381 2338 1966 
L 2338 994 
Q 2338 584 2353 492 
Q 2369 400 2405 369 
Q 2441 338 2488 338 
Q 2538 338 2575 359 
Q 2641 400 2828 588 
L 2828 413 
Q 2478 -56 2159 -56 
Q 2006 -56 1915 50 
Q 1825 156 1822 413 
z
M 1822 616 
L 1822 1706 
Q 1350 1519 1213 1441 
Q 966 1303 859 1153 
Q 753 1003 753 825 
Q 753 600 887 451 
Q 1022 303 1197 303 
Q 1434 303 1822 616 
z
" transform="scale(0.015625)"/>
        <path id="TimesNewRomanPSMT-6c" d="M 1184 4444 
L 1184 647 
Q 1184 378 1223 290 
Q 1263 203 1344 158 
Q 1425 113 1647 113 
L 1647 0 
L 244 0 
L 244 113 
Q 441 113 512 153 
Q 584 194 625 287 
Q 666 381 666 647 
L 666 3247 
Q 666 3731 644 3842 
Q 622 3953 573 3993 
Q 525 4034 450 4034 
Q 369 4034 244 3984 
L 191 4094 
L 1044 4444 
L 1184 4444 
z
" transform="scale(0.015625)"/>
        <path id="TimesNewRomanPSMT-65" d="M 681 1784 
Q 678 1147 991 784 
Q 1303 422 1725 422 
Q 2006 422 2214 576 
Q 2422 731 2563 1106 
L 2659 1044 
Q 2594 616 2278 264 
Q 1963 -88 1488 -88 
Q 972 -88 605 314 
Q 238 716 238 1394 
Q 238 2128 614 2539 
Q 991 2950 1559 2950 
Q 2041 2950 2350 2633 
Q 2659 2316 2659 1784 
L 681 1784 
z
M 681 1966 
L 2006 1966 
Q 1991 2241 1941 2353 
Q 1863 2528 1708 2628 
Q 1553 2728 1384 2728 
Q 1125 2728 920 2526 
Q 716 2325 681 1966 
z
" transform="scale(0.015625)"/>
       </defs>
       <use xlink:href="#TimesNewRomanPSMT-44"/>
       <use xlink:href="#TimesNewRomanPSMT-75" x="72.216797"/>
       <use xlink:href="#TimesNewRomanPSMT-6e" x="122.216797"/>
       <use xlink:href="#TimesNewRomanPSMT-76" x="172.216797"/>
       <use xlink:href="#TimesNewRomanPSMT-61" x="222.216797"/>
       <use xlink:href="#TimesNewRomanPSMT-6c" x="266.601562"/>
       <use xlink:href="#TimesNewRomanPSMT-65" x="294.384766"/>
      </g>
     </g>
    </g>
    <g id="xtick_2">
     <g id="line2d_2">
      <g>
       <use xlink:href="#mb4582dcce5" x="239.315937" y="262.718557" style="stroke: #000000; stroke-width: 0.8"/>
      </g>
     </g>
     <g id="text_2">
      <!-- Pinehaven -->
      <g transform="translate(202.154383 310.957025) rotate(-45) scale(0.12 -0.12)">
       <defs>
        <path id="TimesNewRomanPSMT-50" d="M 1313 1984 
L 1313 750 
Q 1313 350 1400 253 
Q 1519 116 1759 116 
L 1922 116 
L 1922 0 
L 106 0 
L 106 116 
L 266 116 
Q 534 116 650 291 
Q 713 388 713 750 
L 713 3488 
Q 713 3888 628 3984 
Q 506 4122 266 4122 
L 106 4122 
L 106 4238 
L 1659 4238 
Q 2228 4238 2556 4120 
Q 2884 4003 3109 3725 
Q 3334 3447 3334 3066 
Q 3334 2547 2992 2222 
Q 2650 1897 2025 1897 
Q 1872 1897 1694 1919 
Q 1516 1941 1313 1984 
z
M 1313 2163 
Q 1478 2131 1606 2115 
Q 1734 2100 1825 2100 
Q 2150 2100 2386 2351 
Q 2622 2603 2622 3003 
Q 2622 3278 2509 3514 
Q 2397 3750 2190 3867 
Q 1984 3984 1722 3984 
Q 1563 3984 1313 3925 
L 1313 2163 
z
" transform="scale(0.015625)"/>
        <path id="TimesNewRomanPSMT-69" d="M 928 4444 
Q 1059 4444 1151 4351 
Q 1244 4259 1244 4128 
Q 1244 3997 1151 3903 
Q 1059 3809 928 3809 
Q 797 3809 703 3903 
Q 609 3997 609 4128 
Q 609 4259 701 4351 
Q 794 4444 928 4444 
z
M 1188 2947 
L 1188 647 
Q 1188 378 1227 289 
Q 1266 200 1342 156 
Q 1419 113 1622 113 
L 1622 0 
L 231 0 
L 231 113 
Q 441 113 512 153 
Q 584 194 626 287 
Q 669 381 669 647 
L 669 1750 
Q 669 2216 641 2353 
Q 619 2453 572 2492 
Q 525 2531 444 2531 
Q 356 2531 231 2484 
L 188 2597 
L 1050 2947 
L 1188 2947 
z
" transform="scale(0.015625)"/>
        <path id="TimesNewRomanPSMT-68" d="M 1041 4444 
L 1041 2350 
Q 1388 2731 1591 2839 
Q 1794 2947 1997 2947 
Q 2241 2947 2416 2812 
Q 2591 2678 2675 2391 
Q 2734 2191 2734 1659 
L 2734 647 
Q 2734 375 2778 275 
Q 2809 200 2884 156 
Q 2959 113 3159 113 
L 3159 0 
L 1753 0 
L 1753 113 
L 1819 113 
Q 2019 113 2097 173 
Q 2175 234 2206 353 
Q 2216 403 2216 647 
L 2216 1659 
Q 2216 2128 2167 2275 
Q 2119 2422 2012 2495 
Q 1906 2569 1756 2569 
Q 1603 2569 1437 2487 
Q 1272 2406 1041 2159 
L 1041 647 
Q 1041 353 1073 281 
Q 1106 209 1195 161 
Q 1284 113 1503 113 
L 1503 0 
L 84 0 
L 84 113 
Q 275 113 384 172 
Q 447 203 484 290 
Q 522 378 522 647 
L 522 3238 
Q 522 3728 498 3840 
Q 475 3953 426 3993 
Q 378 4034 297 4034 
Q 231 4034 84 3984 
L 41 4094 
L 897 4444 
L 1041 4444 
z
" transform="scale(0.015625)"/>
       </defs>
       <use xlink:href="#TimesNewRomanPSMT-50"/>
       <use xlink:href="#TimesNewRomanPSMT-69" x="55.615234"/>
       <use xlink:href="#TimesNewRomanPSMT-6e" x="83.398438"/>
       <use xlink:href="#TimesNewRomanPSMT-65" x="133.398438"/>
       <use xlink:href="#TimesNewRomanPSMT-68" x="177.783203"/>
       <use xlink:href="#TimesNewRomanPSMT-61" x="227.783203"/>
       <use xlink:href="#TimesNewRomanPSMT-76" x="272.167969"/>
       <use xlink:href="#TimesNewRomanPSMT-65" x="322.167969"/>
       <use xlink:href="#TimesNewRomanPSMT-6e" x="366.552734"/>
      </g>
     </g>
    </g>
    <g id="xtick_3">
     <g id="line2d_3">
      <g>
       <use xlink:href="#mb4582dcce5" x="364.915937" y="262.718557" style="stroke: #000000; stroke-width: 0.8"/>
      </g>
     </g>
     <g id="text_3">
      <!-- Zephyr -->
      <g transform="translate(338.582397 300.1131) rotate(-45) scale(0.12 -0.12)">
       <defs>
        <path id="TimesNewRomanPSMT-5a" d="M 3681 4238 
L 897 256 
L 2634 256 
Q 3034 256 3248 431 
Q 3463 606 3628 1141 
L 3731 1122 
L 3531 0 
L 81 0 
L 81 116 
L 2800 3984 
L 1444 3984 
Q 1106 3984 954 3911 
Q 803 3838 723 3698 
Q 644 3559 578 3178 
L 459 3178 
L 547 4238 
L 3681 4238 
z
" transform="scale(0.015625)"/>
        <path id="TimesNewRomanPSMT-70" d="M -6 2578 
L 875 2934 
L 994 2934 
L 994 2266 
Q 1216 2644 1439 2795 
Q 1663 2947 1909 2947 
Q 2341 2947 2628 2609 
Q 2981 2197 2981 1534 
Q 2981 794 2556 309 
Q 2206 -88 1675 -88 
Q 1444 -88 1275 -22 
Q 1150 25 994 166 
L 994 -706 
Q 994 -1000 1030 -1079 
Q 1066 -1159 1155 -1206 
Q 1244 -1253 1478 -1253 
L 1478 -1369 
L -22 -1369 
L -22 -1253 
L 56 -1253 
Q 228 -1256 350 -1188 
Q 409 -1153 442 -1076 
Q 475 -1000 475 -688 
L 475 2019 
Q 475 2297 450 2372 
Q 425 2447 370 2484 
Q 316 2522 222 2522 
Q 147 2522 31 2478 
L -6 2578 
z
M 994 2081 
L 994 1013 
Q 994 666 1022 556 
Q 1066 375 1236 237 
Q 1406 100 1666 100 
Q 1978 100 2172 344 
Q 2425 663 2425 1241 
Q 2425 1897 2138 2250 
Q 1938 2494 1663 2494 
Q 1513 2494 1366 2419 
Q 1253 2363 994 2081 
z
" transform="scale(0.015625)"/>
        <path id="TimesNewRomanPSMT-79" d="M 38 2863 
L 1372 2863 
L 1372 2747 
L 1306 2747 
Q 1166 2747 1095 2686 
Q 1025 2625 1025 2534 
Q 1025 2413 1128 2197 
L 1825 753 
L 2466 2334 
Q 2519 2463 2519 2588 
Q 2519 2644 2497 2672 
Q 2472 2706 2419 2726 
Q 2366 2747 2231 2747 
L 2231 2863 
L 3163 2863 
L 3163 2747 
Q 3047 2734 2984 2696 
Q 2922 2659 2847 2556 
Q 2819 2513 2741 2316 
L 1575 -541 
Q 1406 -956 1132 -1168 
Q 859 -1381 606 -1381 
Q 422 -1381 303 -1275 
Q 184 -1169 184 -1031 
Q 184 -900 270 -820 
Q 356 -741 506 -741 
Q 609 -741 788 -809 
Q 913 -856 944 -856 
Q 1038 -856 1148 -759 
Q 1259 -663 1372 -384 
L 1575 113 
L 547 2272 
Q 500 2369 397 2513 
Q 319 2622 269 2659 
Q 197 2709 38 2747 
L 38 2863 
z
" transform="scale(0.015625)"/>
        <path id="TimesNewRomanPSMT-72" d="M 1038 2947 
L 1038 2303 
Q 1397 2947 1775 2947 
Q 1947 2947 2059 2842 
Q 2172 2738 2172 2600 
Q 2172 2478 2090 2393 
Q 2009 2309 1897 2309 
Q 1788 2309 1652 2417 
Q 1516 2525 1450 2525 
Q 1394 2525 1328 2463 
Q 1188 2334 1038 2041 
L 1038 669 
Q 1038 431 1097 309 
Q 1138 225 1241 169 
Q 1344 113 1538 113 
L 1538 0 
L 72 0 
L 72 113 
Q 291 113 397 181 
Q 475 231 506 341 
Q 522 394 522 644 
L 522 1753 
Q 522 2253 501 2348 
Q 481 2444 426 2487 
Q 372 2531 291 2531 
Q 194 2531 72 2484 
L 41 2597 
L 906 2947 
L 1038 2947 
z
" transform="scale(0.015625)"/>
       </defs>
       <use xlink:href="#TimesNewRomanPSMT-5a"/>
       <use xlink:href="#TimesNewRomanPSMT-65" x="61.083984"/>
       <use xlink:href="#TimesNewRomanPSMT-70" x="105.46875"/>
       <use xlink:href="#TimesNewRomanPSMT-68" x="155.46875"/>
       <use xlink:href="#TimesNewRomanPSMT-79" x="205.46875"/>
       <use xlink:href="#TimesNewRomanPSMT-72" x="255.46875"/>
      </g>
     </g>
    </g>
   </g>
   <g id="matplotlib.axis_2">
    <g id="ytick_1">
     <g id="line2d_4">
      <defs>
       <path id="medf94a19f6" d="M 0 0 
L -3.5 0 
" style="stroke: #000000; stroke-width: 0.8"/>
      </defs>
      <g>
       <use xlink:href="#medf94a19f6" x="50.915938" y="260.654415" style="stroke: #000000; stroke-width: 0.8"/>
      </g>
     </g>
     <g id="text_4">
      <!-- 800 -->
      <g transform="translate(28.915938 264.12629) scale(0.1 -0.1)">
       <defs>
        <path id="TimesNewRomanPSMT-38" d="M 1228 2134 
Q 725 2547 579 2797 
Q 434 3047 434 3316 
Q 434 3728 753 4026 
Q 1072 4325 1600 4325 
Q 2113 4325 2425 4047 
Q 2738 3769 2738 3413 
Q 2738 3175 2569 2928 
Q 2400 2681 1866 2347 
Q 2416 1922 2594 1678 
Q 2831 1359 2831 1006 
Q 2831 559 2490 242 
Q 2150 -75 1597 -75 
Q 994 -75 656 303 
Q 388 606 388 966 
Q 388 1247 577 1523 
Q 766 1800 1228 2134 
z
M 1719 2469 
Q 2094 2806 2194 3001 
Q 2294 3197 2294 3444 
Q 2294 3772 2109 3958 
Q 1925 4144 1606 4144 
Q 1288 4144 1088 3959 
Q 888 3775 888 3528 
Q 888 3366 970 3203 
Q 1053 3041 1206 2894 
L 1719 2469 
z
M 1375 2016 
Q 1116 1797 991 1539 
Q 866 1281 866 981 
Q 866 578 1086 336 
Q 1306 94 1647 94 
Q 1984 94 2187 284 
Q 2391 475 2391 747 
Q 2391 972 2272 1150 
Q 2050 1481 1375 2016 
z
" transform="scale(0.015625)"/>
        <path id="TimesNewRomanPSMT-30" d="M 231 2094 
Q 231 2819 450 3342 
Q 669 3866 1031 4122 
Q 1313 4325 1613 4325 
Q 2100 4325 2488 3828 
Q 2972 3213 2972 2159 
Q 2972 1422 2759 906 
Q 2547 391 2217 158 
Q 1888 -75 1581 -75 
Q 975 -75 572 641 
Q 231 1244 231 2094 
z
M 844 2016 
Q 844 1141 1059 588 
Q 1238 122 1591 122 
Q 1759 122 1940 273 
Q 2122 425 2216 781 
Q 2359 1319 2359 2297 
Q 2359 3022 2209 3506 
Q 2097 3866 1919 4016 
Q 1791 4119 1609 4119 
Q 1397 4119 1231 3928 
Q 1006 3669 925 3112 
Q 844 2556 844 2016 
z
" transform="scale(0.015625)"/>
       </defs>
       <use xlink:href="#TimesNewRomanPSMT-38"/>
       <use xlink:href="#TimesNewRomanPSMT-30" x="50"/>
       <use xlink:href="#TimesNewRomanPSMT-30" x="100"/>
      </g>
     </g>
    </g>
    <g id="ytick_2">
     <g id="line2d_5">
      <g>
       <use xlink:href="#medf94a19f6" x="50.915938" y="232.281321" style="stroke: #000000; stroke-width: 0.8"/>
      </g>
     </g>
     <g id="text_5">
      <!-- 1000 -->
      <g transform="translate(23.915938 235.753196) scale(0.1 -0.1)">
       <defs>
        <path id="TimesNewRomanPSMT-31" d="M 750 3822 
L 1781 4325 
L 1884 4325 
L 1884 747 
Q 1884 391 1914 303 
Q 1944 216 2037 169 
Q 2131 122 2419 116 
L 2419 0 
L 825 0 
L 825 116 
Q 1125 122 1212 167 
Q 1300 213 1334 289 
Q 1369 366 1369 747 
L 1369 3034 
Q 1369 3497 1338 3628 
Q 1316 3728 1258 3775 
Q 1200 3822 1119 3822 
Q 1003 3822 797 3725 
L 750 3822 
z
" transform="scale(0.015625)"/>
       </defs>
       <use xlink:href="#TimesNewRomanPSMT-31"/>
       <use xlink:href="#TimesNewRomanPSMT-30" x="50"/>
       <use xlink:href="#TimesNewRomanPSMT-30" x="100"/>
       <use xlink:href="#TimesNewRomanPSMT-30" x="150"/>
      </g>
     </g>
    </g>
    <g id="ytick_3">
     <g id="line2d_6">
      <g>
       <use xlink:href="#medf94a19f6" x="50.915938" y="203.908227" style="stroke: #000000; stroke-width: 0.8"/>
      </g>
     </g>
     <g id="text_6">
      <!-- 1200 -->
      <g transform="translate(23.915938 207.380102) scale(0.1 -0.1)">
       <defs>
        <path id="TimesNewRomanPSMT-32" d="M 2934 816 
L 2638 0 
L 138 0 
L 138 116 
Q 1241 1122 1691 1759 
Q 2141 2397 2141 2925 
Q 2141 3328 1894 3587 
Q 1647 3847 1303 3847 
Q 991 3847 742 3664 
Q 494 3481 375 3128 
L 259 3128 
Q 338 3706 661 4015 
Q 984 4325 1469 4325 
Q 1984 4325 2329 3994 
Q 2675 3663 2675 3213 
Q 2675 2891 2525 2569 
Q 2294 2063 1775 1497 
Q 997 647 803 472 
L 1909 472 
Q 2247 472 2383 497 
Q 2519 522 2628 598 
Q 2738 675 2819 816 
L 2934 816 
z
" transform="scale(0.015625)"/>
       </defs>
       <use xlink:href="#TimesNewRomanPSMT-31"/>
       <use xlink:href="#TimesNewRomanPSMT-32" x="50"/>
       <use xlink:href="#TimesNewRomanPSMT-30" x="100"/>
       <use xlink:href="#TimesNewRomanPSMT-30" x="150"/>
      </g>
     </g>
    </g>
    <g id="ytick_4">
     <g id="line2d_7">
      <g>
       <use xlink:href="#medf94a19f6" x="50.915938" y="175.535133" style="stroke: #000000; stroke-width: 0.8"/>
      </g>
     </g>
     <g id="text_7">
      <!-- 1400 -->
      <g transform="translate(23.915938 179.007008) scale(0.1 -0.1)">
       <defs>
        <path id="TimesNewRomanPSMT-34" d="M 2978 1563 
L 2978 1119 
L 2409 1119 
L 2409 0 
L 1894 0 
L 1894 1119 
L 100 1119 
L 100 1519 
L 2066 4325 
L 2409 4325 
L 2409 1563 
L 2978 1563 
z
M 1894 1563 
L 1894 3666 
L 406 1563 
L 1894 1563 
z
" transform="scale(0.015625)"/>
       </defs>
       <use xlink:href="#TimesNewRomanPSMT-31"/>
       <use xlink:href="#TimesNewRomanPSMT-34" x="50"/>
       <use xlink:href="#TimesNewRomanPSMT-30" x="100"/>
       <use xlink:href="#TimesNewRomanPSMT-30" x="150"/>
      </g>
     </g>
    </g>
    <g id="ytick_5">
     <g id="line2d_8">
      <g>
       <use xlink:href="#medf94a19f6" x="50.915938" y="147.162039" style="stroke: #000000; stroke-width: 0.8"/>
      </g>
     </g>
     <g id="text_8">
      <!-- 1600 -->
      <g transform="translate(23.915938 150.633914) scale(0.1 -0.1)">
       <defs>
        <path id="TimesNewRomanPSMT-36" d="M 2869 4325 
L 2869 4209 
Q 2456 4169 2195 4045 
Q 1934 3922 1679 3669 
Q 1425 3416 1258 3105 
Q 1091 2794 978 2366 
Q 1428 2675 1881 2675 
Q 2316 2675 2634 2325 
Q 2953 1975 2953 1425 
Q 2953 894 2631 456 
Q 2244 -75 1606 -75 
Q 1172 -75 869 213 
Q 275 772 275 1663 
Q 275 2231 503 2743 
Q 731 3256 1154 3653 
Q 1578 4050 1965 4187 
Q 2353 4325 2688 4325 
L 2869 4325 
z
M 925 2138 
Q 869 1716 869 1456 
Q 869 1156 980 804 
Q 1091 453 1309 247 
Q 1469 100 1697 100 
Q 1969 100 2183 356 
Q 2397 613 2397 1088 
Q 2397 1622 2184 2012 
Q 1972 2403 1581 2403 
Q 1463 2403 1327 2353 
Q 1191 2303 925 2138 
z
" transform="scale(0.015625)"/>
       </defs>
       <use xlink:href="#TimesNewRomanPSMT-31"/>
       <use xlink:href="#TimesNewRomanPSMT-36" x="50"/>
       <use xlink:href="#TimesNewRomanPSMT-30" x="100"/>
       <use xlink:href="#TimesNewRomanPSMT-30" x="150"/>
      </g>
     </g>
    </g>
    <g id="ytick_6">
     <g id="line2d_9">
      <g>
       <use xlink:href="#medf94a19f6" x="50.915938" y="118.788945" style="stroke: #000000; stroke-width: 0.8"/>
      </g>
     </g>
     <g id="text_9">
      <!-- 1800 -->
      <g transform="translate(23.915938 122.26082) scale(0.1 -0.1)">
       <use xlink:href="#TimesNewRomanPSMT-31"/>
       <use xlink:href="#TimesNewRomanPSMT-38" x="50"/>
       <use xlink:href="#TimesNewRomanPSMT-30" x="100"/>
       <use xlink:href="#TimesNewRomanPSMT-30" x="150"/>
      </g>
     </g>
    </g>
    <g id="ytick_7">
     <g id="line2d_10">
      <g>
       <use xlink:href="#medf94a19f6" x="50.915938" y="90.415851" style="stroke: #000000; stroke-width: 0.8"/>
      </g>
     </g>
     <g id="text_10">
      <!-- 2000 -->
      <g transform="translate(23.915938 93.887726) scale(0.1 -0.1)">
       <use xlink:href="#TimesNewRomanPSMT-32"/>
       <use xlink:href="#TimesNewRomanPSMT-30" x="50"/>
       <use xlink:href="#TimesNewRomanPSMT-30" x="100"/>
       <use xlink:href="#TimesNewRomanPSMT-30" x="150"/>
      </g>
     </g>
    </g>
    <g id="ytick_8">
     <g id="line2d_11">
      <g>
       <use xlink:href="#medf94a19f6" x="50.915938" y="62.042757" style="stroke: #000000; stroke-width: 0.8"/>
      </g>
     </g>
     <g id="text_11">
      <!-- 2200 -->
      <g transform="translate(23.915938 65.514632) scale(0.1 -0.1)">
       <use xlink:href="#TimesNewRomanPSMT-32"/>
       <use xlink:href="#TimesNewRomanPSMT-32" x="50"/>
       <use xlink:href="#TimesNewRomanPSMT-30" x="100"/>
       <use xlink:href="#TimesNewRomanPSMT-30" x="150"/>
      </g>
     </g>
    </g>
    <g id="ytick_9">
     <g id="line2d_12">
      <g>
       <use xlink:href="#medf94a19f6" x="50.915938" y="33.669663" style="stroke: #000000; stroke-width: 0.8"/>
      </g>
     </g>
     <g id="text_12">
      <!-- 2400 -->
      <g transform="translate(23.915938 37.141538) scale(0.1 -0.1)">
       <use xlink:href="#TimesNewRomanPSMT-32"/>
       <use xlink:href="#TimesNewRomanPSMT-34" x="50"/>
       <use xlink:href="#TimesNewRomanPSMT-30" x="100"/>
       <use xlink:href="#TimesNewRomanPSMT-30" x="150"/>
      </g>
     </g>
    </g>
    <g id="text_13">
     <!-- Number -->
     <g transform="translate(16.92125 169.319904) rotate(-90) scale(0.14 -0.14)">
      <defs>
       <path id="TimesNewRomanPSMT-4e" d="M -84 4238 
L 1066 4238 
L 3656 1059 
L 3656 3503 
Q 3656 3894 3569 3991 
Q 3453 4122 3203 4122 
L 3056 4122 
L 3056 4238 
L 4531 4238 
L 4531 4122 
L 4381 4122 
Q 4113 4122 4000 3959 
Q 3931 3859 3931 3503 
L 3931 -69 
L 3819 -69 
L 1025 3344 
L 1025 734 
Q 1025 344 1109 247 
Q 1228 116 1475 116 
L 1625 116 
L 1625 0 
L 150 0 
L 150 116 
L 297 116 
Q 569 116 681 278 
Q 750 378 750 734 
L 750 3681 
Q 566 3897 470 3965 
Q 375 4034 191 4094 
Q 100 4122 -84 4122 
L -84 4238 
z
" transform="scale(0.015625)"/>
       <path id="TimesNewRomanPSMT-6d" d="M 1050 2338 
Q 1363 2650 1419 2697 
Q 1559 2816 1721 2881 
Q 1884 2947 2044 2947 
Q 2313 2947 2506 2790 
Q 2700 2634 2766 2338 
Q 3088 2713 3309 2830 
Q 3531 2947 3766 2947 
Q 3994 2947 4170 2830 
Q 4347 2713 4450 2447 
Q 4519 2266 4519 1878 
L 4519 647 
Q 4519 378 4559 278 
Q 4591 209 4675 161 
Q 4759 113 4950 113 
L 4950 0 
L 3538 0 
L 3538 113 
L 3597 113 
Q 3781 113 3884 184 
Q 3956 234 3988 344 
Q 4000 397 4000 647 
L 4000 1878 
Q 4000 2228 3916 2372 
Q 3794 2572 3525 2572 
Q 3359 2572 3192 2489 
Q 3025 2406 2788 2181 
L 2781 2147 
L 2788 2013 
L 2788 647 
Q 2788 353 2820 281 
Q 2853 209 2943 161 
Q 3034 113 3253 113 
L 3253 0 
L 1806 0 
L 1806 113 
Q 2044 113 2133 169 
Q 2222 225 2256 338 
Q 2272 391 2272 647 
L 2272 1878 
Q 2272 2228 2169 2381 
Q 2031 2581 1784 2581 
Q 1616 2581 1450 2491 
Q 1191 2353 1050 2181 
L 1050 647 
Q 1050 366 1089 281 
Q 1128 197 1204 155 
Q 1281 113 1516 113 
L 1516 0 
L 100 0 
L 100 113 
Q 297 113 375 155 
Q 453 197 493 289 
Q 534 381 534 647 
L 534 1741 
Q 534 2213 506 2350 
Q 484 2453 437 2492 
Q 391 2531 309 2531 
Q 222 2531 100 2484 
L 53 2597 
L 916 2947 
L 1050 2947 
L 1050 2338 
z
" transform="scale(0.015625)"/>
       <path id="TimesNewRomanPSMT-62" d="M 984 2369 
Q 1400 2947 1881 2947 
Q 2322 2947 2650 2570 
Q 2978 2194 2978 1541 
Q 2978 778 2472 313 
Q 2038 -88 1503 -88 
Q 1253 -88 995 3 
Q 738 94 469 275 
L 469 3241 
Q 469 3728 445 3840 
Q 422 3953 372 3993 
Q 322 4034 247 4034 
Q 159 4034 28 3984 
L -16 4094 
L 844 4444 
L 984 4444 
L 984 2369 
z
M 984 2169 
L 984 456 
Q 1144 300 1314 220 
Q 1484 141 1663 141 
Q 1947 141 2192 453 
Q 2438 766 2438 1363 
Q 2438 1913 2192 2208 
Q 1947 2503 1634 2503 
Q 1469 2503 1303 2419 
Q 1178 2356 984 2169 
z
" transform="scale(0.015625)"/>
      </defs>
      <use xlink:href="#TimesNewRomanPSMT-4e"/>
      <use xlink:href="#TimesNewRomanPSMT-75" x="72.216797"/>
      <use xlink:href="#TimesNewRomanPSMT-6d" x="122.216797"/>
      <use xlink:href="#TimesNewRomanPSMT-62" x="200"/>
      <use xlink:href="#TimesNewRomanPSMT-65" x="250"/>
      <use xlink:href="#TimesNewRomanPSMT-72" x="294.384766"/>
     </g>
    </g>
   </g>
   <g id="patch_3">
    <path d="M 106.179937 216.073191 
L 121.251938 216.073191 
L 121.251938 167.767998 
L 106.179937 167.767998 
L 106.179937 216.073191 
L 106.179937 216.073191 
z
" clip-path="url(#pcc3d1e02bf)" style="fill: none; stroke: #000000; stroke-linejoin: miter"/>
   </g>
   <g id="line2d_13">
    <path d="M 113.715937 216.073191 
L 113.715937 248.170253 
" clip-path="url(#pcc3d1e02bf)" style="fill: none; stroke: #000000; stroke-linecap: square"/>
   </g>
   <g id="line2d_14">
    <path d="M 113.715937 167.767998 
L 113.715937 98.502183 
" clip-path="url(#pcc3d1e02bf)" style="fill: none; stroke: #000000; stroke-linecap: square"/>
   </g>
   <g id="line2d_15">
    <path d="M 109.947937 248.170253 
L 117.483938 248.170253 
" clip-path="url(#pcc3d1e02bf)" style="fill: none; stroke: #000000; stroke-linecap: square"/>
   </g>
   <g id="line2d_16">
    <path d="M 109.947937 98.502183 
L 117.483938 98.502183 
" clip-path="url(#pcc3d1e02bf)" style="fill: none; stroke: #000000; stroke-linecap: square"/>
   </g>
   <g id="patch_4">
    <path d="M 231.779937 232.742384 
L 246.851938 232.742384 
L 246.851938 176.670057 
L 231.779937 176.670057 
L 231.779937 232.742384 
L 231.779937 232.742384 
z
" clip-path="url(#pcc3d1e02bf)" style="fill: none; stroke: #000000; stroke-linejoin: miter"/>
   </g>
   <g id="line2d_17">
    <path d="M 239.315937 232.742384 
L 239.315937 252.142487 
" clip-path="url(#pcc3d1e02bf)" style="fill: none; stroke: #000000; stroke-linecap: square"/>
   </g>
   <g id="line2d_18">
    <path d="M 239.315937 176.670057 
L 239.315937 114.107384 
" clip-path="url(#pcc3d1e02bf)" style="fill: none; stroke: #000000; stroke-linecap: square"/>
   </g>
   <g id="line2d_19">
    <path d="M 235.547937 252.142487 
L 243.083937 252.142487 
" clip-path="url(#pcc3d1e02bf)" style="fill: none; stroke: #000000; stroke-linecap: square"/>
   </g>
   <g id="line2d_20">
    <path d="M 235.547937 114.107384 
L 243.083937 114.107384 
" clip-path="url(#pcc3d1e02bf)" style="fill: none; stroke: #000000; stroke-linecap: square"/>
   </g>
   <g id="patch_5">
    <path d="M 357.379937 228.947482 
L 372.451937 228.947482 
L 372.451937 182.380142 
L 357.379937 182.380142 
L 357.379937 228.947482 
L 357.379937 228.947482 
z
" clip-path="url(#pcc3d1e02bf)" style="fill: none; stroke: #000000; stroke-linejoin: miter"/>
   </g>
   <g id="line2d_21">
    <path d="M 364.915937 228.947482 
L 364.915937 246.467868 
" clip-path="url(#pcc3d1e02bf)" style="fill: none; stroke: #000000; stroke-linecap: square"/>
   </g>
   <g id="line2d_22">
    <path d="M 364.915937 182.380142 
L 364.915937 114.532981 
" clip-path="url(#pcc3d1e02bf)" style="fill: none; stroke: #000000; stroke-linecap: square"/>
   </g>
   <g id="line2d_23">
    <path d="M 361.147938 246.467868 
L 368.683937 246.467868 
" clip-path="url(#pcc3d1e02bf)" style="fill: none; stroke: #000000; stroke-linecap: square"/>
   </g>
   <g id="line2d_24">
    <path d="M 361.147938 114.532981 
L 368.683937 114.532981 
" clip-path="url(#pcc3d1e02bf)" style="fill: none; stroke: #000000; stroke-linecap: square"/>
   </g>
   <g id="line2d_25">
    <path d="M 106.179937 194.474173 
L 121.251938 194.474173 
" clip-path="url(#pcc3d1e02bf)" style="fill: none; stroke: #000000; stroke-width: 1.5; stroke-linecap: square"/>
   </g>
   <g id="line2d_26">
    <path d="M 231.779937 204.475689 
L 246.851938 204.475689 
" clip-path="url(#pcc3d1e02bf)" style="fill: none; stroke: #000000; stroke-width: 1.5; stroke-linecap: square"/>
   </g>
   <g id="line2d_27">
    <path d="M 357.379937 206.887402 
L 372.451937 206.887402 
" clip-path="url(#pcc3d1e02bf)" style="fill: none; stroke: #000000; stroke-width: 1.5; stroke-linecap: square"/>
   </g>
   <g id="patch_6">
    <path d="M 50.915938 262.718557 
L 50.915938 30.045 
" style="fill: none; stroke: #000000; stroke-linejoin: miter; stroke-linecap: square"/>
   </g>
   <g id="patch_7">
    <path d="M 427.715937 262.718557 
L 427.715937 30.045 
" style="fill: none; stroke: #000000; stroke-linejoin: miter; stroke-linecap: square"/>
   </g>
   <g id="patch_8">
    <path d="M 50.915938 262.718557 
L 427.715937 262.718557 
" style="fill: none; stroke: #000000; stroke-linejoin: miter; stroke-linecap: square"/>
   </g>
   <g id="patch_9">
    <path d="M 50.915938 30.045 
L 427.715937 30.045 
" style="fill: none; stroke: #000000; stroke-linejoin: miter; stroke-linecap: square"/>
   </g>
   <g id="text_14">
    <!-- Statistics on daily outpatient visits in different cities (Number) -->
    <g transform="translate(27.472187 18.045) scale(0.16 -0.16)">
     <defs>
      <path id="TimesNewRomanPS-BoldMT-53" d="M 3006 4334 
L 3041 2922 
L 2913 2922 
Q 2822 3453 2467 3776 
Q 2113 4100 1700 4100 
Q 1381 4100 1195 3929 
Q 1009 3759 1009 3538 
Q 1009 3397 1075 3288 
Q 1166 3141 1366 2997 
Q 1513 2894 2044 2631 
Q 2788 2266 3047 1941 
Q 3303 1616 3303 1197 
Q 3303 666 2889 283 
Q 2475 -100 1838 -100 
Q 1638 -100 1459 -59 
Q 1281 -19 1013 94 
Q 863 156 766 156 
Q 684 156 593 93 
Q 503 31 447 -97 
L 331 -97 
L 331 1503 
L 447 1503 
Q 584 828 976 473 
Q 1369 119 1822 119 
Q 2172 119 2380 309 
Q 2588 500 2588 753 
Q 2588 903 2508 1043 
Q 2428 1184 2265 1311 
Q 2103 1438 1691 1641 
Q 1113 1925 859 2125 
Q 606 2325 470 2572 
Q 334 2819 334 3116 
Q 334 3622 706 3978 
Q 1078 4334 1644 4334 
Q 1850 4334 2044 4284 
Q 2191 4247 2402 4145 
Q 2613 4044 2697 4044 
Q 2778 4044 2825 4094 
Q 2872 4144 2913 4334 
L 3006 4334 
z
" transform="scale(0.015625)"/>
      <path id="TimesNewRomanPS-BoldMT-74" d="M 1375 3991 
L 1375 2922 
L 2069 2922 
L 2069 2613 
L 1375 2613 
L 1375 809 
Q 1375 556 1398 482 
Q 1422 409 1481 364 
Q 1541 319 1591 319 
Q 1794 319 1975 628 
L 2069 559 
Q 1816 -41 1247 -41 
Q 969 -41 776 114 
Q 584 269 531 459 
Q 500 566 500 1034 
L 500 2613 
L 119 2613 
L 119 2722 
Q 513 3000 789 3306 
Q 1066 3613 1272 3991 
L 1375 3991 
z
" transform="scale(0.015625)"/>
      <path id="TimesNewRomanPS-BoldMT-61" d="M 1828 431 
Q 1294 -41 869 -41 
Q 619 -41 453 123 
Q 288 288 288 534 
Q 288 869 575 1136 
Q 863 1403 1828 1847 
L 1828 2141 
Q 1828 2472 1792 2558 
Q 1756 2644 1656 2708 
Q 1556 2772 1431 2772 
Q 1228 2772 1097 2681 
Q 1016 2625 1016 2550 
Q 1016 2484 1103 2388 
Q 1222 2253 1222 2128 
Q 1222 1975 1108 1867 
Q 994 1759 809 1759 
Q 613 1759 480 1878 
Q 347 1997 347 2156 
Q 347 2381 525 2586 
Q 703 2791 1022 2900 
Q 1341 3009 1684 3009 
Q 2100 3009 2342 2832 
Q 2584 2656 2656 2450 
Q 2700 2319 2700 1847 
L 2700 713 
Q 2700 513 2715 461 
Q 2731 409 2762 384 
Q 2794 359 2834 359 
Q 2916 359 3000 475 
L 3094 400 
Q 2938 169 2770 64 
Q 2603 -41 2391 -41 
Q 2141 -41 2000 76 
Q 1859 194 1828 431 
z
M 1828 659 
L 1828 1638 
Q 1450 1416 1266 1163 
Q 1144 994 1144 822 
Q 1144 678 1247 569 
Q 1325 484 1466 484 
Q 1622 484 1828 659 
z
" transform="scale(0.015625)"/>
      <path id="TimesNewRomanPS-BoldMT-69" d="M 919 4338 
Q 1122 4338 1262 4195 
Q 1403 4053 1403 3853 
Q 1403 3653 1261 3512 
Q 1119 3372 919 3372 
Q 719 3372 578 3512 
Q 438 3653 438 3853 
Q 438 4053 578 4195 
Q 719 4338 919 4338 
z
M 1356 2922 
L 1356 606 
Q 1356 297 1428 211 
Q 1500 125 1709 113 
L 1709 0 
L 131 0 
L 131 113 
Q 325 119 419 225 
Q 481 297 481 606 
L 481 2313 
Q 481 2622 409 2708 
Q 338 2794 131 2806 
L 131 2922 
L 1356 2922 
z
" transform="scale(0.015625)"/>
      <path id="TimesNewRomanPS-BoldMT-73" d="M 2063 3003 
L 2109 2006 
L 2003 2006 
Q 1813 2450 1608 2612 
Q 1403 2775 1200 2775 
Q 1072 2775 981 2689 
Q 891 2603 891 2491 
Q 891 2406 953 2328 
Q 1053 2200 1512 1889 
Q 1972 1578 2117 1361 
Q 2263 1144 2263 875 
Q 2263 631 2141 397 
Q 2019 163 1797 37 
Q 1575 -88 1306 -88 
Q 1097 -88 747 44 
Q 653 78 619 78 
Q 516 78 447 -78 
L 344 -78 
L 294 972 
L 400 972 
Q 541 559 786 353 
Q 1031 147 1250 147 
Q 1400 147 1495 239 
Q 1591 331 1591 463 
Q 1591 613 1497 722 
Q 1403 831 1078 1053 
Q 600 1384 459 1559 
Q 253 1816 253 2125 
Q 253 2463 486 2736 
Q 719 3009 1159 3009 
Q 1397 3009 1619 2894 
Q 1703 2847 1756 2847 
Q 1813 2847 1847 2870 
Q 1881 2894 1956 3003 
L 2063 3003 
z
" transform="scale(0.015625)"/>
      <path id="TimesNewRomanPS-BoldMT-63" d="M 2600 753 
L 2697 678 
Q 2491 291 2183 101 
Q 1875 -88 1528 -88 
Q 944 -88 594 353 
Q 244 794 244 1413 
Q 244 2009 563 2463 
Q 947 3009 1622 3009 
Q 2075 3009 2342 2781 
Q 2609 2553 2609 2272 
Q 2609 2094 2501 1987 
Q 2394 1881 2219 1881 
Q 2034 1881 1914 2003 
Q 1794 2125 1766 2438 
Q 1747 2634 1675 2713 
Q 1603 2791 1506 2791 
Q 1356 2791 1250 2631 
Q 1088 2391 1088 1894 
Q 1088 1481 1219 1104 
Q 1350 728 1578 544 
Q 1750 409 1984 409 
Q 2138 409 2275 481 
Q 2413 553 2600 753 
z
" transform="scale(0.015625)"/>
      <path id="TimesNewRomanPS-BoldMT-20" transform="scale(0.015625)"/>
      <path id="TimesNewRomanPS-BoldMT-6f" d="M 1594 3009 
Q 1975 3009 2303 2812 
Q 2631 2616 2801 2253 
Q 2972 1891 2972 1459 
Q 2972 838 2656 419 
Q 2275 -88 1603 -88 
Q 944 -88 587 375 
Q 231 838 231 1447 
Q 231 2075 595 2542 
Q 959 3009 1594 3009 
z
M 1606 2788 
Q 1447 2788 1333 2667 
Q 1219 2547 1183 2192 
Q 1147 1838 1147 1206 
Q 1147 872 1191 581 
Q 1225 359 1337 243 
Q 1450 128 1594 128 
Q 1734 128 1828 206 
Q 1950 313 1991 503 
Q 2053 800 2053 1703 
Q 2053 2234 1993 2432 
Q 1934 2631 1819 2722 
Q 1738 2788 1606 2788 
z
" transform="scale(0.015625)"/>
      <path id="TimesNewRomanPS-BoldMT-6e" d="M 1409 2922 
L 1409 2544 
Q 1634 2788 1840 2898 
Q 2047 3009 2284 3009 
Q 2569 3009 2756 2851 
Q 2944 2694 3006 2459 
Q 3056 2281 3056 1775 
L 3056 638 
Q 3056 300 3117 217 
Q 3178 134 3372 113 
L 3372 0 
L 1894 0 
L 1894 113 
Q 2059 134 2131 250 
Q 2181 328 2181 638 
L 2181 1938 
Q 2181 2297 2153 2390 
Q 2125 2484 2058 2536 
Q 1991 2588 1909 2588 
Q 1641 2588 1409 2203 
L 1409 638 
Q 1409 309 1470 221 
Q 1531 134 1697 113 
L 1697 0 
L 219 0 
L 219 113 
Q 403 131 481 231 
Q 534 300 534 638 
L 534 2288 
Q 534 2619 473 2700 
Q 413 2781 219 2806 
L 219 2922 
L 1409 2922 
z
" transform="scale(0.015625)"/>
      <path id="TimesNewRomanPS-BoldMT-64" d="M 3056 4238 
L 3056 875 
Q 3056 534 3075 472 
Q 3100 369 3170 319 
Q 3241 269 3416 256 
L 3416 153 
L 2181 -88 
L 2181 375 
Q 1959 106 1786 9 
Q 1613 -88 1394 -88 
Q 834 -88 509 413 
Q 247 819 247 1409 
Q 247 1881 409 2254 
Q 572 2628 855 2818 
Q 1138 3009 1463 3009 
Q 1672 3009 1834 2928 
Q 1997 2847 2181 2644 
L 2181 3525 
Q 2181 3859 2153 3928 
Q 2116 4019 2041 4062 
Q 1966 4106 1759 4106 
L 1759 4238 
L 3056 4238 
z
M 2181 2256 
Q 1950 2700 1616 2700 
Q 1500 2700 1425 2638 
Q 1309 2541 1236 2297 
Q 1163 2053 1163 1550 
Q 1163 997 1244 731 
Q 1325 466 1466 347 
Q 1538 288 1663 288 
Q 1938 288 2181 719 
L 2181 2256 
z
" transform="scale(0.015625)"/>
      <path id="TimesNewRomanPS-BoldMT-6c" d="M 1359 4238 
L 1359 606 
Q 1359 297 1431 211 
Q 1503 125 1713 113 
L 1713 0 
L 134 0 
L 134 113 
Q 328 119 422 225 
Q 484 297 484 606 
L 484 3631 
Q 484 3938 412 4023 
Q 341 4109 134 4122 
L 134 4238 
L 1359 4238 
z
" transform="scale(0.015625)"/>
      <path id="TimesNewRomanPS-BoldMT-79" d="M 1556 -119 
L 613 2047 
Q 400 2538 298 2650 
Q 197 2763 53 2806 
L 53 2922 
L 1606 2922 
L 1606 2806 
Q 1453 2800 1390 2747 
Q 1328 2694 1328 2619 
Q 1328 2500 1484 2150 
L 1984 1006 
L 2325 1891 
Q 2509 2363 2509 2547 
Q 2509 2663 2432 2731 
Q 2356 2800 2163 2806 
L 2163 2922 
L 3141 2922 
L 3141 2806 
Q 2997 2791 2906 2695 
Q 2816 2600 2603 2047 
L 1769 -119 
Q 1453 -931 1300 -1119 
Q 1084 -1381 759 -1381 
Q 500 -1381 339 -1232 
Q 178 -1084 178 -875 
Q 178 -694 289 -575 
Q 400 -456 563 -456 
Q 719 -456 814 -556 
Q 909 -656 913 -866 
Q 916 -984 941 -1019 
Q 966 -1053 1013 -1053 
Q 1088 -1053 1172 -963 
Q 1297 -831 1466 -363 
L 1556 -119 
z
" transform="scale(0.015625)"/>
      <path id="TimesNewRomanPS-BoldMT-75" d="M 3038 2922 
L 3038 634 
Q 3038 300 3100 217 
Q 3163 134 3353 113 
L 3353 0 
L 2163 0 
L 2163 391 
Q 1953 141 1743 26 
Q 1534 -88 1275 -88 
Q 1028 -88 836 64 
Q 644 216 578 419 
Q 513 622 513 1128 
L 513 2288 
Q 513 2619 452 2700 
Q 391 2781 197 2806 
L 197 2922 
L 1388 2922 
L 1388 925 
Q 1388 613 1417 522 
Q 1447 431 1511 384 
Q 1575 338 1659 338 
Q 1772 338 1863 397 
Q 1988 478 2163 725 
L 2163 2288 
Q 2163 2619 2102 2700 
Q 2041 2781 1847 2806 
L 1847 2922 
L 3038 2922 
z
" transform="scale(0.015625)"/>
      <path id="TimesNewRomanPS-BoldMT-70" d="M 1347 297 
L 1347 -791 
Q 1347 -1016 1383 -1097 
Q 1419 -1178 1494 -1215 
Q 1569 -1253 1788 -1253 
L 1788 -1369 
L 122 -1369 
L 122 -1253 
Q 316 -1247 409 -1144 
Q 472 -1072 472 -772 
L 472 2313 
Q 472 2622 400 2708 
Q 328 2794 122 2806 
L 122 2922 
L 1347 2922 
L 1347 2538 
Q 1500 2763 1659 2863 
Q 1888 3009 2156 3009 
Q 2478 3009 2742 2806 
Q 3006 2603 3143 2245 
Q 3281 1888 3281 1475 
Q 3281 1031 3139 664 
Q 2997 297 2726 104 
Q 2456 -88 2125 -88 
Q 1884 -88 1675 19 
Q 1519 100 1347 297 
z
M 1347 613 
Q 1616 231 1922 231 
Q 2091 231 2200 409 
Q 2363 672 2363 1409 
Q 2363 2166 2184 2444 
Q 2066 2628 1866 2628 
Q 1550 2628 1347 2172 
L 1347 613 
z
" transform="scale(0.015625)"/>
      <path id="TimesNewRomanPS-BoldMT-65" d="M 2691 1566 
L 1088 1566 
Q 1116 984 1397 647 
Q 1613 388 1916 388 
Q 2103 388 2256 492 
Q 2409 597 2584 869 
L 2691 800 
Q 2453 316 2165 114 
Q 1878 -88 1500 -88 
Q 850 -88 516 413 
Q 247 816 247 1413 
Q 247 2144 642 2576 
Q 1038 3009 1569 3009 
Q 2013 3009 2339 2645 
Q 2666 2281 2691 1566 
z
M 1922 1775 
Q 1922 2278 1867 2465 
Q 1813 2653 1697 2750 
Q 1631 2806 1522 2806 
Q 1359 2806 1256 2647 
Q 1072 2369 1072 1884 
L 1072 1775 
L 1922 1775 
z
" transform="scale(0.015625)"/>
      <path id="TimesNewRomanPS-BoldMT-76" d="M 1534 -88 
L 550 2178 
Q 372 2588 272 2697 
Q 200 2778 59 2806 
L 59 2922 
L 1613 2922 
L 1613 2806 
Q 1466 2806 1413 2753 
Q 1338 2684 1338 2591 
Q 1338 2475 1475 2156 
L 1956 1059 
L 2341 2006 
Q 2506 2413 2506 2581 
Q 2506 2678 2436 2739 
Q 2366 2800 2188 2806 
L 2188 2922 
L 3144 2922 
L 3144 2806 
Q 3006 2788 2918 2703 
Q 2831 2619 2656 2206 
L 1681 -88 
L 1534 -88 
z
" transform="scale(0.015625)"/>
      <path id="TimesNewRomanPS-BoldMT-66" d="M 1497 2616 
L 1497 588 
Q 1497 294 1559 219 
Q 1659 103 1928 113 
L 1928 0 
L 206 0 
L 206 113 
Q 403 116 486 158 
Q 569 200 600 275 
Q 631 350 631 588 
L 631 2616 
L 206 2616 
L 206 2922 
L 631 2922 
L 631 3138 
L 628 3284 
Q 628 3734 958 4034 
Q 1288 4334 1850 4334 
Q 2234 4334 2420 4190 
Q 2606 4047 2606 3872 
Q 2606 3731 2490 3628 
Q 2375 3525 2184 3525 
Q 2022 3525 1926 3609 
Q 1831 3694 1831 3797 
Q 1831 3825 1850 3913 
Q 1863 3966 1863 4013 
Q 1863 4078 1825 4109 
Q 1775 4156 1703 4156 
Q 1613 4156 1552 4081 
Q 1491 4006 1491 3841 
L 1497 3294 
L 1497 2922 
L 1928 2922 
L 1928 2616 
L 1497 2616 
z
" transform="scale(0.015625)"/>
      <path id="TimesNewRomanPS-BoldMT-72" d="M 1428 2922 
L 1428 2259 
Q 1719 2713 1937 2861 
Q 2156 3009 2359 3009 
Q 2534 3009 2639 2901 
Q 2744 2794 2744 2597 
Q 2744 2388 2642 2272 
Q 2541 2156 2397 2156 
Q 2231 2156 2109 2262 
Q 1988 2369 1966 2381 
Q 1934 2400 1894 2400 
Q 1803 2400 1722 2331 
Q 1594 2225 1528 2028 
Q 1428 1725 1428 1359 
L 1428 688 
L 1431 513 
Q 1431 334 1453 284 
Q 1491 200 1564 161 
Q 1638 122 1813 113 
L 1813 0 
L 234 0 
L 234 113 
Q 425 128 492 217 
Q 559 306 559 688 
L 559 2303 
Q 559 2553 534 2622 
Q 503 2709 443 2750 
Q 384 2791 234 2806 
L 234 2922 
L 1428 2922 
z
" transform="scale(0.015625)"/>
      <path id="TimesNewRomanPS-BoldMT-28" d="M 2056 4334 
L 2056 4191 
Q 1731 3978 1578 3775 
Q 1366 3494 1247 3053 
Q 1097 2506 1097 1525 
Q 1097 600 1233 87 
Q 1369 -425 1603 -741 
Q 1766 -959 2056 -1125 
L 2056 -1281 
Q 1303 -1028 779 -248 
Q 256 531 256 1544 
Q 256 2544 778 3314 
Q 1300 4084 2056 4334 
z
" transform="scale(0.015625)"/>
      <path id="TimesNewRomanPS-BoldMT-4e" d="M 1594 4238 
L 3684 1609 
L 3684 3431 
Q 3684 3813 3575 3947 
Q 3425 4128 3072 4122 
L 3072 4238 
L 4472 4238 
L 4472 4122 
Q 4203 4088 4111 4033 
Q 4019 3978 3967 3854 
Q 3916 3731 3916 3431 
L 3916 -97 
L 3809 -97 
L 944 3431 
L 944 738 
Q 944 372 1111 244 
Q 1278 116 1494 116 
L 1594 116 
L 1594 0 
L 91 0 
L 91 116 
Q 441 119 578 259 
Q 716 400 716 738 
L 716 3728 
L 625 3841 
Q 491 4009 387 4062 
Q 284 4116 91 4122 
L 91 4238 
L 1594 4238 
z
" transform="scale(0.015625)"/>
      <path id="TimesNewRomanPS-BoldMT-6d" d="M 1428 2922 
L 1428 2538 
Q 1669 2800 1873 2904 
Q 2078 3009 2322 3009 
Q 2603 3009 2793 2878 
Q 2984 2747 3088 2478 
Q 3338 2759 3567 2884 
Q 3797 3009 4047 3009 
Q 4350 3009 4529 2870 
Q 4709 2731 4779 2517 
Q 4850 2303 4850 1834 
L 4850 638 
Q 4850 300 4911 219 
Q 4972 138 5166 113 
L 5166 0 
L 3656 0 
L 3656 113 
Q 3834 128 3919 250 
Q 3975 334 3975 638 
L 3975 1894 
Q 3975 2284 3944 2390 
Q 3913 2497 3845 2548 
Q 3778 2600 3688 2600 
Q 3553 2600 3415 2501 
Q 3278 2403 3138 2206 
L 3138 638 
Q 3138 322 3191 241 
Q 3263 125 3466 113 
L 3466 0 
L 1953 0 
L 1953 113 
Q 2075 119 2145 173 
Q 2216 228 2239 304 
Q 2263 381 2263 638 
L 2263 1894 
Q 2263 2291 2231 2391 
Q 2200 2491 2126 2547 
Q 2053 2603 1969 2603 
Q 1844 2603 1741 2538 
Q 1594 2441 1428 2206 
L 1428 638 
Q 1428 328 1489 229 
Q 1550 131 1744 113 
L 1744 0 
L 238 0 
L 238 113 
Q 422 131 500 231 
Q 553 300 553 638 
L 553 2288 
Q 553 2619 492 2700 
Q 431 2781 238 2806 
L 238 2922 
L 1428 2922 
z
" transform="scale(0.015625)"/>
      <path id="TimesNewRomanPS-BoldMT-62" d="M 1347 4238 
L 1347 2628 
Q 1716 3009 2153 3009 
Q 2453 3009 2718 2832 
Q 2984 2656 3134 2331 
Q 3284 2006 3284 1581 
Q 3284 1103 3093 712 
Q 2903 322 2584 117 
Q 2266 -88 1856 -88 
Q 1619 -88 1434 -12 
Q 1250 63 1072 231 
L 588 -84 
L 481 -84 
L 481 3631 
Q 481 3884 459 3944 
Q 428 4031 361 4073 
Q 294 4116 134 4122 
L 134 4238 
L 1347 4238 
z
M 1347 2350 
L 1347 1050 
Q 1347 653 1366 544 
Q 1397 359 1515 245 
Q 1634 131 1819 131 
Q 1978 131 2092 222 
Q 2206 313 2282 581 
Q 2359 850 2359 1550 
Q 2359 2222 2191 2472 
Q 2069 2653 1863 2653 
Q 1594 2653 1347 2350 
z
" transform="scale(0.015625)"/>
      <path id="TimesNewRomanPS-BoldMT-29" d="M 78 -1281 
L 78 -1138 
Q 403 -922 556 -719 
Q 766 -438 888 0 
Q 1038 550 1038 1531 
Q 1038 2456 902 2967 
Q 766 3478 531 3794 
Q 369 4013 78 4178 
L 78 4334 
Q 831 4081 1354 3301 
Q 1878 2522 1878 1509 
Q 1878 513 1354 -257 
Q 831 -1028 78 -1281 
z
" transform="scale(0.015625)"/>
     </defs>
     <use xlink:href="#TimesNewRomanPS-BoldMT-53"/>
     <use xlink:href="#TimesNewRomanPS-BoldMT-74" x="55.615234"/>
     <use xlink:href="#TimesNewRomanPS-BoldMT-61" x="88.916016"/>
     <use xlink:href="#TimesNewRomanPS-BoldMT-74" x="138.916016"/>
     <use xlink:href="#TimesNewRomanPS-BoldMT-69" x="172.216797"/>
     <use xlink:href="#TimesNewRomanPS-BoldMT-73" x="200"/>
     <use xlink:href="#TimesNewRomanPS-BoldMT-74" x="238.916016"/>
     <use xlink:href="#TimesNewRomanPS-BoldMT-69" x="272.216797"/>
     <use xlink:href="#TimesNewRomanPS-BoldMT-63" x="300"/>
     <use xlink:href="#TimesNewRomanPS-BoldMT-73" x="344.384766"/>
     <use xlink:href="#TimesNewRomanPS-BoldMT-20" x="383.300781"/>
     <use xlink:href="#TimesNewRomanPS-BoldMT-6f" x="408.300781"/>
     <use xlink:href="#TimesNewRomanPS-BoldMT-6e" x="458.300781"/>
     <use xlink:href="#TimesNewRomanPS-BoldMT-20" x="513.916016"/>
     <use xlink:href="#TimesNewRomanPS-BoldMT-64" x="538.916016"/>
     <use xlink:href="#TimesNewRomanPS-BoldMT-61" x="594.53125"/>
     <use xlink:href="#TimesNewRomanPS-BoldMT-69" x="644.53125"/>
     <use xlink:href="#TimesNewRomanPS-BoldMT-6c" x="672.314453"/>
     <use xlink:href="#TimesNewRomanPS-BoldMT-79" x="700.097656"/>
     <use xlink:href="#TimesNewRomanPS-BoldMT-20" x="750.097656"/>
     <use xlink:href="#TimesNewRomanPS-BoldMT-6f" x="775.097656"/>
     <use xlink:href="#TimesNewRomanPS-BoldMT-75" x="825.097656"/>
     <use xlink:href="#TimesNewRomanPS-BoldMT-74" x="880.712891"/>
     <use xlink:href="#TimesNewRomanPS-BoldMT-70" x="914.013672"/>
     <use xlink:href="#TimesNewRomanPS-BoldMT-61" x="969.628906"/>
     <use xlink:href="#TimesNewRomanPS-BoldMT-74" x="1019.628906"/>
     <use xlink:href="#TimesNewRomanPS-BoldMT-69" x="1052.929688"/>
     <use xlink:href="#TimesNewRomanPS-BoldMT-65" x="1080.712891"/>
     <use xlink:href="#TimesNewRomanPS-BoldMT-6e" x="1125.097656"/>
     <use xlink:href="#TimesNewRomanPS-BoldMT-74" x="1180.712891"/>
     <use xlink:href="#TimesNewRomanPS-BoldMT-20" x="1214.013672"/>
     <use xlink:href="#TimesNewRomanPS-BoldMT-76" x="1239.013672"/>
     <use xlink:href="#TimesNewRomanPS-BoldMT-69" x="1289.013672"/>
     <use xlink:href="#TimesNewRomanPS-BoldMT-73" x="1316.796875"/>
     <use xlink:href="#TimesNewRomanPS-BoldMT-69" x="1355.712891"/>
     <use xlink:href="#TimesNewRomanPS-BoldMT-74" x="1383.496094"/>
     <use xlink:href="#TimesNewRomanPS-BoldMT-73" x="1416.796875"/>
     <use xlink:href="#TimesNewRomanPS-BoldMT-20" x="1455.712891"/>
     <use xlink:href="#TimesNewRomanPS-BoldMT-69" x="1480.712891"/>
     <use xlink:href="#TimesNewRomanPS-BoldMT-6e" x="1508.496094"/>
     <use xlink:href="#TimesNewRomanPS-BoldMT-20" x="1564.111328"/>
     <use xlink:href="#TimesNewRomanPS-BoldMT-64" x="1589.111328"/>
     <use xlink:href="#TimesNewRomanPS-BoldMT-69" x="1644.726562"/>
     <use xlink:href="#TimesNewRomanPS-BoldMT-66" x="1672.509766"/>
     <use xlink:href="#TimesNewRomanPS-BoldMT-66" x="1705.810547"/>
     <use xlink:href="#TimesNewRomanPS-BoldMT-65" x="1739.111328"/>
     <use xlink:href="#TimesNewRomanPS-BoldMT-72" x="1783.496094"/>
     <use xlink:href="#TimesNewRomanPS-BoldMT-65" x="1826.130859"/>
     <use xlink:href="#TimesNewRomanPS-BoldMT-6e" x="1870.515625"/>
     <use xlink:href="#TimesNewRomanPS-BoldMT-74" x="1926.130859"/>
     <use xlink:href="#TimesNewRomanPS-BoldMT-20" x="1959.431641"/>
     <use xlink:href="#TimesNewRomanPS-BoldMT-63" x="1984.431641"/>
     <use xlink:href="#TimesNewRomanPS-BoldMT-69" x="2028.816406"/>
     <use xlink:href="#TimesNewRomanPS-BoldMT-74" x="2056.599609"/>
     <use xlink:href="#TimesNewRomanPS-BoldMT-69" x="2089.900391"/>
     <use xlink:href="#TimesNewRomanPS-BoldMT-65" x="2117.683594"/>
     <use xlink:href="#TimesNewRomanPS-BoldMT-73" x="2162.068359"/>
     <use xlink:href="#TimesNewRomanPS-BoldMT-20" x="2200.984375"/>
     <use xlink:href="#TimesNewRomanPS-BoldMT-28" x="2225.984375"/>
     <use xlink:href="#TimesNewRomanPS-BoldMT-4e" x="2259.285156"/>
     <use xlink:href="#TimesNewRomanPS-BoldMT-75" x="2331.501953"/>
     <use xlink:href="#TimesNewRomanPS-BoldMT-6d" x="2387.117188"/>
     <use xlink:href="#TimesNewRomanPS-BoldMT-62" x="2470.417969"/>
     <use xlink:href="#TimesNewRomanPS-BoldMT-65" x="2526.033203"/>
     <use xlink:href="#TimesNewRomanPS-BoldMT-72" x="2570.417969"/>
     <use xlink:href="#TimesNewRomanPS-BoldMT-29" x="2614.802734"/>
    </g>
   </g>
  </g>
 </g>
 <defs>
  <clipPath id="pcc3d1e02bf">
   <rect x="50.915938" y="30.045" width="376.8" height="232.673557"/>
  </clipPath>
 </defs>
</svg>
