<?xml version="1.0" encoding="utf-8" standalone="no"?>
<!DOCTYPE svg PUBLIC "-//W3C//DTD SVG 1.1//EN"
  "http://www.w3.org/Graphics/SVG/1.1/DTD/svg11.dtd">
<svg xmlns:xlink="http://www.w3.org/1999/xlink" width="458.359687pt" height="319.978709pt" viewBox="0 0 458.359687 319.978709" xmlns="http://www.w3.org/2000/svg" version="1.1">
 <metadata>
  <rdf:RDF xmlns:dc="http://purl.org/dc/elements/1.1/" xmlns:cc="http://creativecommons.org/ns#" xmlns:rdf="http://www.w3.org/1999/02/22-rdf-syntax-ns#">
   <cc:Work>
    <dc:type rdf:resource="http://purl.org/dc/dcmitype/StillImage"/>
    <dc:date>2025-05-26T16:59:25.663717</dc:date>
    <dc:format>image/svg+xml</dc:format>
    <dc:creator>
     <cc:Agent>
      <dc:title>Matplotlib v3.7.2, https://matplotlib.org/</dc:title>
     </cc:Agent>
    </dc:creator>
   </cc:Work>
  </rdf:RDF>
 </metadata>
 <defs>
  <style type="text/css">*{stroke-linejoin: round; stroke-linecap: butt}</style>
 </defs>
 <g id="figure_1">
  <g id="patch_1">
   <path d="M 0 319.978709 
L 458.359687 319.978709 
L 458.359687 0 
L 0 0 
z
" style="fill: #ffffff"/>
  </g>
  <g id="axes_1">
   <g id="patch_2">
    <path d="M 50.915938 266.961198 
L 427.715937 266.961198 
L 427.715937 30.045 
L 50.915938 30.045 
z
" style="fill: #ffffff"/>
   </g>
   <g id="PolyCollection_1">
    <defs>
     <path id="mbe874ab1d1" d="M 116.244106 -63.786429 
L 111.187769 -63.786429 
L 110.901889 -65.961968 
L 110.587999 -68.137507 
L 110.243372 -70.313046 
L 109.865698 -72.488585 
L 109.453319 -74.664124 
L 109.005425 -76.839663 
L 108.522178 -79.015202 
L 108.004758 -81.190741 
L 107.455309 -83.36628 
L 106.876777 -85.541819 
L 106.272676 -87.717358 
L 105.646773 -89.892897 
L 105.002752 -92.068436 
L 104.343877 -94.243975 
L 103.672695 -96.419514 
L 102.99081 -98.595053 
L 102.29876 -100.770592 
L 101.595991 -102.946131 
L 100.88094 -105.12167 
L 100.151201 -107.297209 
L 99.403751 -109.472748 
L 98.635197 -111.648287 
L 97.842012 -113.823826 
L 97.020731 -115.999365 
L 96.16808 -118.174904 
L 95.281033 -120.350443 
L 94.3568 -122.525982 
L 93.392774 -124.701521 
L 92.386462 -126.87706 
L 91.335434 -129.052599 
L 90.237341 -131.228138 
L 89.09002 -133.403677 
L 87.891707 -135.579216 
L 86.641364 -137.754755 
L 85.339088 -139.930294 
L 83.986577 -142.105833 
L 82.587593 -144.281372 
L 81.148353 -146.456911 
L 79.677794 -148.63245 
L 78.187647 -150.807989 
L 76.692281 -152.983528 
L 75.2083 -155.159067 
L 73.753903 -157.334606 
L 72.348041 -159.510145 
L 71.009445 -161.685684 
L 69.755601 -163.861223 
L 68.601771 -166.036762 
L 67.560163 -168.212301 
L 66.639324 -170.38784 
L 65.843828 -172.563379 
L 65.174288 -174.738918 
L 64.627698 -176.914457 
L 64.198067 -179.089996 
L 63.877277 -181.265535 
L 63.656081 -183.441074 
L 63.525131 -185.616613 
L 63.475938 -187.792152 
L 63.501645 -189.967691 
L 63.597563 -192.14323 
L 63.76138 -194.318769 
L 63.993053 -196.494308 
L 64.294369 -198.669847 
L 64.668239 -200.845386 
L 65.117788 -203.020925 
L 65.645343 -205.196464 
L 66.251423 -207.372003 
L 66.933851 -209.547542 
L 67.687088 -211.723081 
L 68.501886 -213.89862 
L 69.365311 -216.074159 
L 70.261175 -218.249698 
L 71.170856 -220.425237 
L 72.074462 -222.600776 
L 72.952251 -224.776315 
L 73.786183 -226.951854 
L 74.561474 -229.127393 
L 75.267998 -231.302932 
L 75.901401 -233.478471 
L 76.463817 -235.65401 
L 76.964092 -237.829549 
L 77.417478 -240.005088 
L 77.844825 -242.180627 
L 78.271293 -244.356166 
L 78.724724 -246.531706 
L 79.233774 -248.707245 
L 79.825976 -250.882784 
L 80.525874 -253.058323 
L 81.353392 -255.233862 
L 82.322528 -257.409401 
L 83.44049 -259.58494 
L 84.707292 -261.760479 
L 86.115833 -263.936018 
L 87.65241 -266.111557 
L 89.297614 -268.287096 
L 91.027512 -270.462635 
L 92.81501 -272.638174 
L 94.631305 -274.813713 
L 96.447312 -276.989252 
L 98.23499 -279.164791 
L 129.196885 -279.164791 
L 129.196885 -279.164791 
L 130.984563 -276.989252 
L 132.80057 -274.813713 
L 134.616865 -272.638174 
L 136.404363 -270.462635 
L 138.134261 -268.287096 
L 139.779465 -266.111557 
L 141.316042 -263.936018 
L 142.724583 -261.760479 
L 143.991385 -259.58494 
L 145.109347 -257.409401 
L 146.078483 -255.233862 
L 146.906001 -253.058323 
L 147.605899 -250.882784 
L 148.198101 -248.707245 
L 148.707151 -246.531706 
L 149.160582 -244.356166 
L 149.58705 -242.180627 
L 150.014397 -240.005088 
L 150.467783 -237.829549 
L 150.968058 -235.65401 
L 151.530474 -233.478471 
L 152.163877 -231.302932 
L 152.870401 -229.127393 
L 153.645692 -226.951854 
L 154.479624 -224.776315 
L 155.357413 -222.600776 
L 156.261019 -220.425237 
L 157.1707 -218.249698 
L 158.066564 -216.074159 
L 158.929989 -213.89862 
L 159.744787 -211.723081 
L 160.498024 -209.547542 
L 161.180452 -207.372003 
L 161.786532 -205.196464 
L 162.314087 -203.020925 
L 162.763636 -200.845386 
L 163.137506 -198.669847 
L 163.438822 -196.494308 
L 163.670495 -194.318769 
L 163.834312 -192.14323 
L 163.93023 -189.967691 
L 163.955938 -187.792152 
L 163.906744 -185.616613 
L 163.775794 -183.441074 
L 163.554598 -181.265535 
L 163.233808 -179.089996 
L 162.804177 -176.914457 
L 162.257587 -174.738918 
L 161.588047 -172.563379 
L 160.792551 -170.38784 
L 159.871712 -168.212301 
L 158.830104 -166.036762 
L 157.676274 -163.861223 
L 156.42243 -161.685684 
L 155.083834 -159.510145 
L 153.677972 -157.334606 
L 152.223575 -155.159067 
L 150.739594 -152.983528 
L 149.244228 -150.807989 
L 147.754081 -148.63245 
L 146.283522 -146.456911 
L 144.844282 -144.281372 
L 143.445298 -142.105833 
L 142.092787 -139.930294 
L 140.790511 -137.754755 
L 139.540168 -135.579216 
L 138.341855 -133.403677 
L 137.194534 -131.228138 
L 136.096441 -129.052599 
L 135.045413 -126.87706 
L 134.039101 -124.701521 
L 133.075075 -122.525982 
L 132.150842 -120.350443 
L 131.263795 -118.174904 
L 130.411144 -115.999365 
L 129.589863 -113.823826 
L 128.796678 -111.648287 
L 128.028124 -109.472748 
L 127.280674 -107.297209 
L 126.550935 -105.12167 
L 125.835884 -102.946131 
L 125.133115 -100.770592 
L 124.441065 -98.595053 
L 123.75918 -96.419514 
L 123.087998 -94.243975 
L 122.429123 -92.068436 
L 121.785102 -89.892897 
L 121.159199 -87.717358 
L 120.555098 -85.541819 
L 119.976566 -83.36628 
L 119.427117 -81.190741 
L 118.909697 -79.015202 
L 118.42645 -76.839663 
L 117.978556 -74.664124 
L 117.566177 -72.488585 
L 117.188503 -70.313046 
L 116.843876 -68.137507 
L 116.529986 -65.961968 
L 116.244106 -63.786429 
z
" style="stroke: #000000; stroke-opacity: 0.7"/>
    </defs>
    <g clip-path="url(#p5e78d1b5a7)">
     <use xlink:href="#mbe874ab1d1" x="0" y="319.978709" style="fill: #a6d854; fill-opacity: 0.7; stroke: #000000; stroke-opacity: 0.7"/>
    </g>
   </g>
   <g id="PolyCollection_2">
    <defs>
     <path id="mf2a76a6fa2" d="M 248.622264 -93.342619 
L 230.009611 -93.342619 
L 229.090429 -94.92392 
L 228.136163 -96.505221 
L 227.150097 -98.086522 
L 226.135685 -99.667824 
L 225.096577 -101.249125 
L 224.036643 -102.830426 
L 222.960019 -104.411727 
L 221.871144 -105.993028 
L 220.774783 -107.574329 
L 219.676042 -109.155631 
L 218.580338 -110.736932 
L 217.493356 -112.318233 
L 216.420954 -113.899534 
L 215.369051 -115.480835 
L 214.343481 -117.062136 
L 213.349829 -118.643438 
L 212.393259 -120.224739 
L 211.478348 -121.80604 
L 210.608929 -123.387341 
L 209.787961 -124.968642 
L 209.017424 -126.549943 
L 208.298252 -128.131245 
L 207.630307 -129.712546 
L 207.012382 -131.293847 
L 206.442242 -132.875148 
L 205.916689 -134.456449 
L 205.431653 -136.037751 
L 204.982296 -137.619052 
L 204.56313 -139.200353 
L 204.168139 -140.781654 
L 203.790912 -142.362955 
L 203.424776 -143.944256 
L 203.062941 -145.525558 
L 202.698644 -147.106859 
L 202.325317 -148.68816 
L 201.936752 -150.269461 
L 201.527285 -151.850762 
L 201.09198 -153.432063 
L 200.626825 -155.013365 
L 200.128904 -156.594666 
L 199.596562 -158.175967 
L 199.029535 -159.757268 
L 198.429034 -161.338569 
L 197.797771 -162.91987 
L 197.139928 -164.501172 
L 196.461051 -166.082473 
L 195.767882 -167.663774 
L 195.068131 -169.245075 
L 194.370208 -170.826376 
L 193.682922 -172.407677 
L 193.015189 -173.988979 
L 192.375754 -175.57028 
L 191.772962 -177.151581 
L 191.21459 -178.732882 
L 190.707759 -180.314183 
L 190.258917 -181.895484 
L 189.873913 -183.476786 
L 189.558112 -185.058087 
L 189.31657 -186.639388 
L 189.1542 -188.220689 
L 189.075938 -189.80199 
L 189.086842 -191.383292 
L 189.192136 -192.964593 
L 189.397145 -194.545894 
L 189.707138 -196.127195 
L 190.127072 -197.708496 
L 190.661254 -199.289797 
L 191.312946 -200.871099 
L 192.083945 -202.4524 
L 192.974177 -204.033701 
L 193.98135 -205.615002 
L 195.100696 -207.196303 
L 196.324836 -208.777604 
L 197.643792 -210.358906 
L 199.04515 -211.940207 
L 200.514386 -213.521508 
L 202.035317 -215.102809 
L 203.590676 -216.68411 
L 205.162765 -218.265411 
L 206.734146 -219.846713 
L 208.288325 -221.428014 
L 209.810399 -223.009315 
L 211.28761 -224.590616 
L 212.709786 -226.171917 
L 214.069633 -227.753218 
L 215.362874 -229.33452 
L 216.588217 -230.915821 
L 217.747171 -232.497122 
L 218.843709 -234.078423 
L 219.883817 -235.659724 
L 220.874946 -237.241025 
L 221.825417 -238.822327 
L 222.7438 -240.403628 
L 223.638328 -241.984929 
L 224.516356 -243.56623 
L 225.383924 -245.147531 
L 226.245418 -246.728832 
L 227.103375 -248.310134 
L 227.958412 -249.891435 
L 250.673463 -249.891435 
L 250.673463 -249.891435 
L 251.5285 -248.310134 
L 252.386457 -246.728832 
L 253.247951 -245.147531 
L 254.115519 -243.56623 
L 254.993547 -241.984929 
L 255.888075 -240.403628 
L 256.806458 -238.822327 
L 257.756929 -237.241025 
L 258.748058 -235.659724 
L 259.788166 -234.078423 
L 260.884704 -232.497122 
L 262.043658 -230.915821 
L 263.269001 -229.33452 
L 264.562242 -227.753218 
L 265.922089 -226.171917 
L 267.344265 -224.590616 
L 268.821476 -223.009315 
L 270.34355 -221.428014 
L 271.897729 -219.846713 
L 273.46911 -218.265411 
L 275.041199 -216.68411 
L 276.596558 -215.102809 
L 278.117489 -213.521508 
L 279.586725 -211.940207 
L 280.988083 -210.358906 
L 282.307039 -208.777604 
L 283.531179 -207.196303 
L 284.650525 -205.615002 
L 285.657698 -204.033701 
L 286.54793 -202.4524 
L 287.318929 -200.871099 
L 287.970621 -199.289797 
L 288.504803 -197.708496 
L 288.924737 -196.127195 
L 289.23473 -194.545894 
L 289.439739 -192.964593 
L 289.545033 -191.383292 
L 289.555937 -189.80199 
L 289.477675 -188.220689 
L 289.315305 -186.639388 
L 289.073763 -185.058087 
L 288.757962 -183.476786 
L 288.372958 -181.895484 
L 287.924116 -180.314183 
L 287.417285 -178.732882 
L 286.858913 -177.151581 
L 286.256121 -175.57028 
L 285.616686 -173.988979 
L 284.948953 -172.407677 
L 284.261667 -170.826376 
L 283.563744 -169.245075 
L 282.863993 -167.663774 
L 282.170824 -166.082473 
L 281.491947 -164.501172 
L 280.834104 -162.91987 
L 280.202841 -161.338569 
L 279.60234 -159.757268 
L 279.035313 -158.175967 
L 278.502971 -156.594666 
L 278.00505 -155.013365 
L 277.539895 -153.432063 
L 277.10459 -151.850762 
L 276.695123 -150.269461 
L 276.306558 -148.68816 
L 275.933231 -147.106859 
L 275.568934 -145.525558 
L 275.207099 -143.944256 
L 274.840963 -142.362955 
L 274.463736 -140.781654 
L 274.068745 -139.200353 
L 273.649579 -137.619052 
L 273.200222 -136.037751 
L 272.715186 -134.456449 
L 272.189633 -132.875148 
L 271.619493 -131.293847 
L 271.001568 -129.712546 
L 270.333623 -128.131245 
L 269.614451 -126.549943 
L 268.843914 -124.968642 
L 268.022946 -123.387341 
L 267.153527 -121.80604 
L 266.238616 -120.224739 
L 265.282046 -118.643438 
L 264.288394 -117.062136 
L 263.262824 -115.480835 
L 262.210921 -113.899534 
L 261.138519 -112.318233 
L 260.051537 -110.736932 
L 258.955833 -109.155631 
L 257.857092 -107.574329 
L 256.760731 -105.993028 
L 255.671856 -104.411727 
L 254.595232 -102.830426 
L 253.535298 -101.249125 
L 252.49619 -99.667824 
L 251.481778 -98.086522 
L 250.495712 -96.505221 
L 249.541446 -94.92392 
L 248.622264 -93.342619 
z
" style="stroke: #000000; stroke-opacity: 0.7"/>
    </defs>
    <g clip-path="url(#p5e78d1b5a7)">
     <use xlink:href="#mf2a76a6fa2" x="0" y="319.978709" style="fill: #98df8a; fill-opacity: 0.7; stroke: #000000; stroke-opacity: 0.7"/>
    </g>
   </g>
   <g id="PolyCollection_3">
    <defs>
     <path id="mc26996ed67" d="M 370.206568 -69.018864 
L 359.625307 -69.018864 
L 359.037266 -71.104411 
L 358.417611 -73.189957 
L 357.767972 -75.275503 
L 357.090207 -77.361049 
L 356.386415 -79.446596 
L 355.658938 -81.532142 
L 354.910389 -83.617688 
L 354.143675 -85.703234 
L 353.362028 -87.788781 
L 352.56902 -89.874327 
L 351.76857 -91.959873 
L 350.964921 -94.045419 
L 350.162589 -96.130966 
L 349.36627 -98.216512 
L 348.58071 -100.302058 
L 347.810532 -102.387604 
L 347.060032 -104.473151 
L 346.332947 -106.558697 
L 345.632222 -108.644243 
L 344.959768 -110.72979 
L 344.316265 -112.815336 
L 343.700998 -114.900882 
L 343.111754 -116.986428 
L 342.544804 -119.071975 
L 341.994958 -121.157521 
L 341.455707 -123.243067 
L 340.919454 -125.328613 
L 340.377798 -127.41416 
L 339.821884 -129.499706 
L 339.242778 -131.585252 
L 338.631853 -133.670798 
L 337.981162 -135.756345 
L 337.283773 -137.841891 
L 336.534066 -139.927437 
L 335.727959 -142.012983 
L 334.863073 -144.09853 
L 333.938832 -146.184076 
L 332.956505 -148.269622 
L 331.919188 -150.355168 
L 330.831754 -152.440715 
L 329.700757 -154.526261 
L 328.534325 -156.611807 
L 327.342015 -158.697353 
L 326.134664 -160.7829 
L 324.924209 -162.868446 
L 323.723488 -164.953992 
L 322.546008 -167.039539 
L 321.40568 -169.125085 
L 320.316518 -171.210631 
L 319.292301 -173.296177 
L 318.346202 -175.381724 
L 317.490401 -177.46727 
L 316.735691 -179.552816 
L 316.0911 -181.638362 
L 315.563554 -183.723909 
L 315.157603 -185.809455 
L 314.87523 -187.895001 
L 314.715769 -189.980547 
L 314.675937 -192.066094 
L 314.749995 -194.15164 
L 314.930011 -196.237186 
L 315.206246 -198.322732 
L 315.567602 -200.408279 
L 316.00213 -202.493825 
L 316.497554 -204.579371 
L 317.041779 -206.664917 
L 317.623347 -208.750464 
L 318.231828 -210.83601 
L 318.85812 -212.921556 
L 319.494655 -215.007102 
L 320.13551 -217.092649 
L 320.776443 -219.178195 
L 321.414858 -221.263741 
L 322.049734 -223.349288 
L 322.681524 -225.434834 
L 323.312046 -227.52038 
L 323.94438 -229.605926 
L 324.582762 -231.691473 
L 325.232484 -233.777019 
L 325.899784 -235.862565 
L 326.591708 -237.948111 
L 327.315938 -240.033658 
L 328.080567 -242.119204 
L 328.893814 -244.20475 
L 329.763688 -246.290296 
L 330.697594 -248.375843 
L 331.701914 -250.461389 
L 332.781572 -252.546935 
L 333.939631 -254.632481 
L 335.176932 -256.718028 
L 336.491826 -258.803574 
L 337.880013 -260.88912 
L 339.334504 -262.974666 
L 340.845736 -265.060213 
L 342.401812 -267.145759 
L 343.988872 -269.231305 
L 345.591576 -271.316851 
L 347.193656 -273.402398 
L 348.778523 -275.487944 
L 381.053352 -275.487944 
L 381.053352 -275.487944 
L 382.638219 -273.402398 
L 384.240299 -271.316851 
L 385.843003 -269.231305 
L 387.430063 -267.145759 
L 388.986139 -265.060213 
L 390.497371 -262.974666 
L 391.951862 -260.88912 
L 393.340049 -258.803574 
L 394.654943 -256.718028 
L 395.892244 -254.632481 
L 397.050303 -252.546935 
L 398.129961 -250.461389 
L 399.134281 -248.375843 
L 400.068187 -246.290296 
L 400.938061 -244.20475 
L 401.751308 -242.119204 
L 402.515937 -240.033658 
L 403.240167 -237.948111 
L 403.932091 -235.862565 
L 404.599391 -233.777019 
L 405.249113 -231.691473 
L 405.887495 -229.605926 
L 406.519829 -227.52038 
L 407.150351 -225.434834 
L 407.782141 -223.349288 
L 408.417017 -221.263741 
L 409.055432 -219.178195 
L 409.696365 -217.092649 
L 410.33722 -215.007102 
L 410.973755 -212.921556 
L 411.600047 -210.83601 
L 412.208528 -208.750464 
L 412.790096 -206.664917 
L 413.334321 -204.579371 
L 413.829745 -202.493825 
L 414.264273 -200.408279 
L 414.625629 -198.322732 
L 414.901864 -196.237186 
L 415.08188 -194.15164 
L 415.155937 -192.066094 
L 415.116106 -189.980547 
L 414.956645 -187.895001 
L 414.674272 -185.809455 
L 414.268321 -183.723909 
L 413.740775 -181.638362 
L 413.096184 -179.552816 
L 412.341474 -177.46727 
L 411.485673 -175.381724 
L 410.539574 -173.296177 
L 409.515357 -171.210631 
L 408.426195 -169.125085 
L 407.285867 -167.039539 
L 406.108387 -164.953992 
L 404.907666 -162.868446 
L 403.697211 -160.7829 
L 402.48986 -158.697353 
L 401.29755 -156.611807 
L 400.131118 -154.526261 
L 399.000121 -152.440715 
L 397.912687 -150.355168 
L 396.87537 -148.269622 
L 395.893043 -146.184076 
L 394.968802 -144.09853 
L 394.103916 -142.012983 
L 393.297809 -139.927437 
L 392.548102 -137.841891 
L 391.850713 -135.756345 
L 391.200022 -133.670798 
L 390.589097 -131.585252 
L 390.009991 -129.499706 
L 389.454077 -127.41416 
L 388.912421 -125.328613 
L 388.376168 -123.243067 
L 387.836917 -121.157521 
L 387.287071 -119.071975 
L 386.720121 -116.986428 
L 386.130877 -114.900882 
L 385.51561 -112.815336 
L 384.872107 -110.72979 
L 384.199653 -108.644243 
L 383.498928 -106.558697 
L 382.771843 -104.473151 
L 382.021343 -102.387604 
L 381.251165 -100.302058 
L 380.465605 -98.216512 
L 379.669286 -96.130966 
L 378.866954 -94.045419 
L 378.063305 -91.959873 
L 377.262855 -89.874327 
L 376.469847 -87.788781 
L 375.6882 -85.703234 
L 374.921486 -83.617688 
L 374.172937 -81.532142 
L 373.44546 -79.446596 
L 372.741668 -77.361049 
L 372.063903 -75.275503 
L 371.414264 -73.189957 
L 370.794609 -71.104411 
L 370.206568 -69.018864 
z
" style="stroke: #000000; stroke-opacity: 0.7"/>
    </defs>
    <g clip-path="url(#p5e78d1b5a7)">
     <use xlink:href="#mc26996ed67" x="0" y="319.978709" style="fill: #8da0cb; fill-opacity: 0.7; stroke: #000000; stroke-opacity: 0.7"/>
    </g>
   </g>
   <g id="matplotlib.axis_1">
    <g id="xtick_1">
     <g id="line2d_1">
      <defs>
       <path id="m4241b7e2b7" d="M 0 0 
L 0 3.5 
" style="stroke: #000000; stroke-width: 0.8"/>
      </defs>
      <g>
       <use xlink:href="#m4241b7e2b7" x="113.715937" y="266.961198" style="stroke: #000000; stroke-width: 0.8"/>
      </g>
     </g>
     <g id="text_1">
      <!-- Creston -->
      <g transform="translate(85.503703 306.250345) rotate(-45) scale(0.12 -0.12)">
       <defs>
        <path id="TimesNewRomanPSMT-43" d="M 3853 4334 
L 3950 2894 
L 3853 2894 
Q 3659 3541 3300 3825 
Q 2941 4109 2438 4109 
Q 2016 4109 1675 3895 
Q 1334 3681 1139 3212 
Q 944 2744 944 2047 
Q 944 1472 1128 1050 
Q 1313 628 1683 403 
Q 2053 178 2528 178 
Q 2941 178 3256 354 
Q 3572 531 3950 1056 
L 4047 994 
Q 3728 428 3303 165 
Q 2878 -97 2294 -97 
Q 1241 -97 663 684 
Q 231 1266 231 2053 
Q 231 2688 515 3219 
Q 800 3750 1298 4042 
Q 1797 4334 2388 4334 
Q 2847 4334 3294 4109 
Q 3425 4041 3481 4041 
Q 3566 4041 3628 4100 
Q 3709 4184 3744 4334 
L 3853 4334 
z
" transform="scale(0.015625)"/>
        <path id="TimesNewRomanPSMT-72" d="M 1038 2947 
L 1038 2303 
Q 1397 2947 1775 2947 
Q 1947 2947 2059 2842 
Q 2172 2738 2172 2600 
Q 2172 2478 2090 2393 
Q 2009 2309 1897 2309 
Q 1788 2309 1652 2417 
Q 1516 2525 1450 2525 
Q 1394 2525 1328 2463 
Q 1188 2334 1038 2041 
L 1038 669 
Q 1038 431 1097 309 
Q 1138 225 1241 169 
Q 1344 113 1538 113 
L 1538 0 
L 72 0 
L 72 113 
Q 291 113 397 181 
Q 475 231 506 341 
Q 522 394 522 644 
L 522 1753 
Q 522 2253 501 2348 
Q 481 2444 426 2487 
Q 372 2531 291 2531 
Q 194 2531 72 2484 
L 41 2597 
L 906 2947 
L 1038 2947 
z
" transform="scale(0.015625)"/>
        <path id="TimesNewRomanPSMT-65" d="M 681 1784 
Q 678 1147 991 784 
Q 1303 422 1725 422 
Q 2006 422 2214 576 
Q 2422 731 2563 1106 
L 2659 1044 
Q 2594 616 2278 264 
Q 1963 -88 1488 -88 
Q 972 -88 605 314 
Q 238 716 238 1394 
Q 238 2128 614 2539 
Q 991 2950 1559 2950 
Q 2041 2950 2350 2633 
Q 2659 2316 2659 1784 
L 681 1784 
z
M 681 1966 
L 2006 1966 
Q 1991 2241 1941 2353 
Q 1863 2528 1708 2628 
Q 1553 2728 1384 2728 
Q 1125 2728 920 2526 
Q 716 2325 681 1966 
z
" transform="scale(0.015625)"/>
        <path id="TimesNewRomanPSMT-73" d="M 2050 2947 
L 2050 1972 
L 1947 1972 
Q 1828 2431 1642 2597 
Q 1456 2763 1169 2763 
Q 950 2763 815 2647 
Q 681 2531 681 2391 
Q 681 2216 781 2091 
Q 878 1963 1175 1819 
L 1631 1597 
Q 2266 1288 2266 781 
Q 2266 391 1970 151 
Q 1675 -88 1309 -88 
Q 1047 -88 709 6 
Q 606 38 541 38 
Q 469 38 428 -44 
L 325 -44 
L 325 978 
L 428 978 
Q 516 541 762 319 
Q 1009 97 1316 97 
Q 1531 97 1667 223 
Q 1803 350 1803 528 
Q 1803 744 1651 891 
Q 1500 1038 1047 1263 
Q 594 1488 453 1669 
Q 313 1847 313 2119 
Q 313 2472 555 2709 
Q 797 2947 1181 2947 
Q 1350 2947 1591 2875 
Q 1750 2828 1803 2828 
Q 1853 2828 1881 2850 
Q 1909 2872 1947 2947 
L 2050 2947 
z
" transform="scale(0.015625)"/>
        <path id="TimesNewRomanPSMT-74" d="M 1031 3803 
L 1031 2863 
L 1700 2863 
L 1700 2644 
L 1031 2644 
L 1031 788 
Q 1031 509 1111 412 
Q 1191 316 1316 316 
Q 1419 316 1516 380 
Q 1613 444 1666 569 
L 1788 569 
Q 1678 263 1478 108 
Q 1278 -47 1066 -47 
Q 922 -47 784 33 
Q 647 113 581 261 
Q 516 409 516 719 
L 516 2644 
L 63 2644 
L 63 2747 
Q 234 2816 414 2980 
Q 594 3144 734 3369 
Q 806 3488 934 3803 
L 1031 3803 
z
" transform="scale(0.015625)"/>
        <path id="TimesNewRomanPSMT-6f" d="M 1600 2947 
Q 2250 2947 2644 2453 
Q 2978 2031 2978 1484 
Q 2978 1100 2793 706 
Q 2609 313 2286 112 
Q 1963 -88 1566 -88 
Q 919 -88 538 428 
Q 216 863 216 1403 
Q 216 1797 411 2186 
Q 606 2575 925 2761 
Q 1244 2947 1600 2947 
z
M 1503 2744 
Q 1338 2744 1170 2645 
Q 1003 2547 900 2300 
Q 797 2053 797 1666 
Q 797 1041 1045 587 
Q 1294 134 1700 134 
Q 2003 134 2200 384 
Q 2397 634 2397 1244 
Q 2397 2006 2069 2444 
Q 1847 2744 1503 2744 
z
" transform="scale(0.015625)"/>
        <path id="TimesNewRomanPSMT-6e" d="M 1034 2341 
Q 1538 2947 1994 2947 
Q 2228 2947 2397 2830 
Q 2566 2713 2666 2444 
Q 2734 2256 2734 1869 
L 2734 647 
Q 2734 375 2778 278 
Q 2813 200 2889 156 
Q 2966 113 3172 113 
L 3172 0 
L 1756 0 
L 1756 113 
L 1816 113 
Q 2016 113 2095 173 
Q 2175 234 2206 353 
Q 2219 400 2219 647 
L 2219 1819 
Q 2219 2209 2117 2386 
Q 2016 2563 1775 2563 
Q 1403 2563 1034 2156 
L 1034 647 
Q 1034 356 1069 288 
Q 1113 197 1189 155 
Q 1266 113 1500 113 
L 1500 0 
L 84 0 
L 84 113 
L 147 113 
Q 366 113 442 223 
Q 519 334 519 647 
L 519 1709 
Q 519 2225 495 2337 
Q 472 2450 423 2490 
Q 375 2531 294 2531 
Q 206 2531 84 2484 
L 38 2597 
L 900 2947 
L 1034 2947 
L 1034 2341 
z
" transform="scale(0.015625)"/>
       </defs>
       <use xlink:href="#TimesNewRomanPSMT-43"/>
       <use xlink:href="#TimesNewRomanPSMT-72" x="66.699219"/>
       <use xlink:href="#TimesNewRomanPSMT-65" x="100"/>
       <use xlink:href="#TimesNewRomanPSMT-73" x="144.384766"/>
       <use xlink:href="#TimesNewRomanPSMT-74" x="183.300781"/>
       <use xlink:href="#TimesNewRomanPSMT-6f" x="211.083984"/>
       <use xlink:href="#TimesNewRomanPSMT-6e" x="261.083984"/>
      </g>
     </g>
    </g>
    <g id="xtick_2">
     <g id="line2d_2">
      <g>
       <use xlink:href="#m4241b7e2b7" x="239.315937" y="266.961198" style="stroke: #000000; stroke-width: 0.8"/>
      </g>
     </g>
     <g id="text_2">
      <!-- Zephyr -->
      <g transform="translate(212.982397 304.355741) rotate(-45) scale(0.12 -0.12)">
       <defs>
        <path id="TimesNewRomanPSMT-5a" d="M 3681 4238 
L 897 256 
L 2634 256 
Q 3034 256 3248 431 
Q 3463 606 3628 1141 
L 3731 1122 
L 3531 0 
L 81 0 
L 81 116 
L 2800 3984 
L 1444 3984 
Q 1106 3984 954 3911 
Q 803 3838 723 3698 
Q 644 3559 578 3178 
L 459 3178 
L 547 4238 
L 3681 4238 
z
" transform="scale(0.015625)"/>
        <path id="TimesNewRomanPSMT-70" d="M -6 2578 
L 875 2934 
L 994 2934 
L 994 2266 
Q 1216 2644 1439 2795 
Q 1663 2947 1909 2947 
Q 2341 2947 2628 2609 
Q 2981 2197 2981 1534 
Q 2981 794 2556 309 
Q 2206 -88 1675 -88 
Q 1444 -88 1275 -22 
Q 1150 25 994 166 
L 994 -706 
Q 994 -1000 1030 -1079 
Q 1066 -1159 1155 -1206 
Q 1244 -1253 1478 -1253 
L 1478 -1369 
L -22 -1369 
L -22 -1253 
L 56 -1253 
Q 228 -1256 350 -1188 
Q 409 -1153 442 -1076 
Q 475 -1000 475 -688 
L 475 2019 
Q 475 2297 450 2372 
Q 425 2447 370 2484 
Q 316 2522 222 2522 
Q 147 2522 31 2478 
L -6 2578 
z
M 994 2081 
L 994 1013 
Q 994 666 1022 556 
Q 1066 375 1236 237 
Q 1406 100 1666 100 
Q 1978 100 2172 344 
Q 2425 663 2425 1241 
Q 2425 1897 2138 2250 
Q 1938 2494 1663 2494 
Q 1513 2494 1366 2419 
Q 1253 2363 994 2081 
z
" transform="scale(0.015625)"/>
        <path id="TimesNewRomanPSMT-68" d="M 1041 4444 
L 1041 2350 
Q 1388 2731 1591 2839 
Q 1794 2947 1997 2947 
Q 2241 2947 2416 2812 
Q 2591 2678 2675 2391 
Q 2734 2191 2734 1659 
L 2734 647 
Q 2734 375 2778 275 
Q 2809 200 2884 156 
Q 2959 113 3159 113 
L 3159 0 
L 1753 0 
L 1753 113 
L 1819 113 
Q 2019 113 2097 173 
Q 2175 234 2206 353 
Q 2216 403 2216 647 
L 2216 1659 
Q 2216 2128 2167 2275 
Q 2119 2422 2012 2495 
Q 1906 2569 1756 2569 
Q 1603 2569 1437 2487 
Q 1272 2406 1041 2159 
L 1041 647 
Q 1041 353 1073 281 
Q 1106 209 1195 161 
Q 1284 113 1503 113 
L 1503 0 
L 84 0 
L 84 113 
Q 275 113 384 172 
Q 447 203 484 290 
Q 522 378 522 647 
L 522 3238 
Q 522 3728 498 3840 
Q 475 3953 426 3993 
Q 378 4034 297 4034 
Q 231 4034 84 3984 
L 41 4094 
L 897 4444 
L 1041 4444 
z
" transform="scale(0.015625)"/>
        <path id="TimesNewRomanPSMT-79" d="M 38 2863 
L 1372 2863 
L 1372 2747 
L 1306 2747 
Q 1166 2747 1095 2686 
Q 1025 2625 1025 2534 
Q 1025 2413 1128 2197 
L 1825 753 
L 2466 2334 
Q 2519 2463 2519 2588 
Q 2519 2644 2497 2672 
Q 2472 2706 2419 2726 
Q 2366 2747 2231 2747 
L 2231 2863 
L 3163 2863 
L 3163 2747 
Q 3047 2734 2984 2696 
Q 2922 2659 2847 2556 
Q 2819 2513 2741 2316 
L 1575 -541 
Q 1406 -956 1132 -1168 
Q 859 -1381 606 -1381 
Q 422 -1381 303 -1275 
Q 184 -1169 184 -1031 
Q 184 -900 270 -820 
Q 356 -741 506 -741 
Q 609 -741 788 -809 
Q 913 -856 944 -856 
Q 1038 -856 1148 -759 
Q 1259 -663 1372 -384 
L 1575 113 
L 547 2272 
Q 500 2369 397 2513 
Q 319 2622 269 2659 
Q 197 2709 38 2747 
L 38 2863 
z
" transform="scale(0.015625)"/>
       </defs>
       <use xlink:href="#TimesNewRomanPSMT-5a"/>
       <use xlink:href="#TimesNewRomanPSMT-65" x="61.083984"/>
       <use xlink:href="#TimesNewRomanPSMT-70" x="105.46875"/>
       <use xlink:href="#TimesNewRomanPSMT-68" x="155.46875"/>
       <use xlink:href="#TimesNewRomanPSMT-79" x="205.46875"/>
       <use xlink:href="#TimesNewRomanPSMT-72" x="255.46875"/>
      </g>
     </g>
    </g>
    <g id="xtick_3">
     <g id="line2d_3">
      <g>
       <use xlink:href="#m4241b7e2b7" x="364.915937" y="266.961198" style="stroke: #000000; stroke-width: 0.8"/>
      </g>
     </g>
     <g id="text_3">
      <!-- Fairmont -->
      <g transform="translate(331.990394 310.963654) rotate(-45) scale(0.12 -0.12)">
       <defs>
        <path id="TimesNewRomanPSMT-46" d="M 1309 4006 
L 1309 2341 
L 2081 2341 
Q 2347 2341 2470 2458 
Q 2594 2575 2634 2922 
L 2750 2922 
L 2750 1488 
L 2634 1488 
Q 2631 1734 2570 1850 
Q 2509 1966 2401 2023 
Q 2294 2081 2081 2081 
L 1309 2081 
L 1309 750 
Q 1309 428 1350 325 
Q 1381 247 1481 191 
Q 1619 116 1769 116 
L 1922 116 
L 1922 0 
L 103 0 
L 103 116 
L 253 116 
Q 516 116 634 269 
Q 709 369 709 750 
L 709 3488 
Q 709 3809 669 3913 
Q 638 3991 541 4047 
Q 406 4122 253 4122 
L 103 4122 
L 103 4238 
L 3256 4238 
L 3297 3306 
L 3188 3306 
Q 3106 3603 2998 3742 
Q 2891 3881 2733 3943 
Q 2575 4006 2244 4006 
L 1309 4006 
z
" transform="scale(0.015625)"/>
        <path id="TimesNewRomanPSMT-61" d="M 1822 413 
Q 1381 72 1269 19 
Q 1100 -59 909 -59 
Q 613 -59 420 144 
Q 228 347 228 678 
Q 228 888 322 1041 
Q 450 1253 767 1440 
Q 1084 1628 1822 1897 
L 1822 2009 
Q 1822 2438 1686 2597 
Q 1550 2756 1291 2756 
Q 1094 2756 978 2650 
Q 859 2544 859 2406 
L 866 2225 
Q 866 2081 792 2003 
Q 719 1925 600 1925 
Q 484 1925 411 2006 
Q 338 2088 338 2228 
Q 338 2497 613 2722 
Q 888 2947 1384 2947 
Q 1766 2947 2009 2819 
Q 2194 2722 2281 2516 
Q 2338 2381 2338 1966 
L 2338 994 
Q 2338 584 2353 492 
Q 2369 400 2405 369 
Q 2441 338 2488 338 
Q 2538 338 2575 359 
Q 2641 400 2828 588 
L 2828 413 
Q 2478 -56 2159 -56 
Q 2006 -56 1915 50 
Q 1825 156 1822 413 
z
M 1822 616 
L 1822 1706 
Q 1350 1519 1213 1441 
Q 966 1303 859 1153 
Q 753 1003 753 825 
Q 753 600 887 451 
Q 1022 303 1197 303 
Q 1434 303 1822 616 
z
" transform="scale(0.015625)"/>
        <path id="TimesNewRomanPSMT-69" d="M 928 4444 
Q 1059 4444 1151 4351 
Q 1244 4259 1244 4128 
Q 1244 3997 1151 3903 
Q 1059 3809 928 3809 
Q 797 3809 703 3903 
Q 609 3997 609 4128 
Q 609 4259 701 4351 
Q 794 4444 928 4444 
z
M 1188 2947 
L 1188 647 
Q 1188 378 1227 289 
Q 1266 200 1342 156 
Q 1419 113 1622 113 
L 1622 0 
L 231 0 
L 231 113 
Q 441 113 512 153 
Q 584 194 626 287 
Q 669 381 669 647 
L 669 1750 
Q 669 2216 641 2353 
Q 619 2453 572 2492 
Q 525 2531 444 2531 
Q 356 2531 231 2484 
L 188 2597 
L 1050 2947 
L 1188 2947 
z
" transform="scale(0.015625)"/>
        <path id="TimesNewRomanPSMT-6d" d="M 1050 2338 
Q 1363 2650 1419 2697 
Q 1559 2816 1721 2881 
Q 1884 2947 2044 2947 
Q 2313 2947 2506 2790 
Q 2700 2634 2766 2338 
Q 3088 2713 3309 2830 
Q 3531 2947 3766 2947 
Q 3994 2947 4170 2830 
Q 4347 2713 4450 2447 
Q 4519 2266 4519 1878 
L 4519 647 
Q 4519 378 4559 278 
Q 4591 209 4675 161 
Q 4759 113 4950 113 
L 4950 0 
L 3538 0 
L 3538 113 
L 3597 113 
Q 3781 113 3884 184 
Q 3956 234 3988 344 
Q 4000 397 4000 647 
L 4000 1878 
Q 4000 2228 3916 2372 
Q 3794 2572 3525 2572 
Q 3359 2572 3192 2489 
Q 3025 2406 2788 2181 
L 2781 2147 
L 2788 2013 
L 2788 647 
Q 2788 353 2820 281 
Q 2853 209 2943 161 
Q 3034 113 3253 113 
L 3253 0 
L 1806 0 
L 1806 113 
Q 2044 113 2133 169 
Q 2222 225 2256 338 
Q 2272 391 2272 647 
L 2272 1878 
Q 2272 2228 2169 2381 
Q 2031 2581 1784 2581 
Q 1616 2581 1450 2491 
Q 1191 2353 1050 2181 
L 1050 647 
Q 1050 366 1089 281 
Q 1128 197 1204 155 
Q 1281 113 1516 113 
L 1516 0 
L 100 0 
L 100 113 
Q 297 113 375 155 
Q 453 197 493 289 
Q 534 381 534 647 
L 534 1741 
Q 534 2213 506 2350 
Q 484 2453 437 2492 
Q 391 2531 309 2531 
Q 222 2531 100 2484 
L 53 2597 
L 916 2947 
L 1050 2947 
L 1050 2338 
z
" transform="scale(0.015625)"/>
       </defs>
       <use xlink:href="#TimesNewRomanPSMT-46"/>
       <use xlink:href="#TimesNewRomanPSMT-61" x="55.615234"/>
       <use xlink:href="#TimesNewRomanPSMT-69" x="100"/>
       <use xlink:href="#TimesNewRomanPSMT-72" x="127.783203"/>
       <use xlink:href="#TimesNewRomanPSMT-6d" x="161.083984"/>
       <use xlink:href="#TimesNewRomanPSMT-6f" x="238.867188"/>
       <use xlink:href="#TimesNewRomanPSMT-6e" x="288.867188"/>
       <use xlink:href="#TimesNewRomanPSMT-74" x="338.867188"/>
      </g>
     </g>
    </g>
   </g>
   <g id="matplotlib.axis_2">
    <g id="ytick_1">
     <g id="line2d_4">
      <defs>
       <path id="m969beee3d2" d="M 0 0 
L -3.5 0 
" style="stroke: #000000; stroke-width: 0.8"/>
      </defs>
      <g>
       <use xlink:href="#m969beee3d2" x="50.915938" y="248.131501" style="stroke: #000000; stroke-width: 0.8"/>
      </g>
     </g>
     <g id="text_4">
      <!-- 200 -->
      <g transform="translate(28.915938 251.603376) scale(0.1 -0.1)">
       <defs>
        <path id="TimesNewRomanPSMT-32" d="M 2934 816 
L 2638 0 
L 138 0 
L 138 116 
Q 1241 1122 1691 1759 
Q 2141 2397 2141 2925 
Q 2141 3328 1894 3587 
Q 1647 3847 1303 3847 
Q 991 3847 742 3664 
Q 494 3481 375 3128 
L 259 3128 
Q 338 3706 661 4015 
Q 984 4325 1469 4325 
Q 1984 4325 2329 3994 
Q 2675 3663 2675 3213 
Q 2675 2891 2525 2569 
Q 2294 2063 1775 1497 
Q 997 647 803 472 
L 1909 472 
Q 2247 472 2383 497 
Q 2519 522 2628 598 
Q 2738 675 2819 816 
L 2934 816 
z
" transform="scale(0.015625)"/>
        <path id="TimesNewRomanPSMT-30" d="M 231 2094 
Q 231 2819 450 3342 
Q 669 3866 1031 4122 
Q 1313 4325 1613 4325 
Q 2100 4325 2488 3828 
Q 2972 3213 2972 2159 
Q 2972 1422 2759 906 
Q 2547 391 2217 158 
Q 1888 -75 1581 -75 
Q 975 -75 572 641 
Q 231 1244 231 2094 
z
M 844 2016 
Q 844 1141 1059 588 
Q 1238 122 1591 122 
Q 1759 122 1940 273 
Q 2122 425 2216 781 
Q 2359 1319 2359 2297 
Q 2359 3022 2209 3506 
Q 2097 3866 1919 4016 
Q 1791 4119 1609 4119 
Q 1397 4119 1231 3928 
Q 1006 3669 925 3112 
Q 844 2556 844 2016 
z
" transform="scale(0.015625)"/>
       </defs>
       <use xlink:href="#TimesNewRomanPSMT-32"/>
       <use xlink:href="#TimesNewRomanPSMT-30" x="50"/>
       <use xlink:href="#TimesNewRomanPSMT-30" x="100"/>
      </g>
     </g>
    </g>
    <g id="ytick_2">
     <g id="line2d_5">
      <g>
       <use xlink:href="#m969beee3d2" x="50.915938" y="219.848065" style="stroke: #000000; stroke-width: 0.8"/>
      </g>
     </g>
     <g id="text_5">
      <!-- 400 -->
      <g transform="translate(28.915938 223.31994) scale(0.1 -0.1)">
       <defs>
        <path id="TimesNewRomanPSMT-34" d="M 2978 1563 
L 2978 1119 
L 2409 1119 
L 2409 0 
L 1894 0 
L 1894 1119 
L 100 1119 
L 100 1519 
L 2066 4325 
L 2409 4325 
L 2409 1563 
L 2978 1563 
z
M 1894 1563 
L 1894 3666 
L 406 1563 
L 1894 1563 
z
" transform="scale(0.015625)"/>
       </defs>
       <use xlink:href="#TimesNewRomanPSMT-34"/>
       <use xlink:href="#TimesNewRomanPSMT-30" x="50"/>
       <use xlink:href="#TimesNewRomanPSMT-30" x="100"/>
      </g>
     </g>
    </g>
    <g id="ytick_3">
     <g id="line2d_6">
      <g>
       <use xlink:href="#m969beee3d2" x="50.915938" y="191.56463" style="stroke: #000000; stroke-width: 0.8"/>
      </g>
     </g>
     <g id="text_6">
      <!-- 600 -->
      <g transform="translate(28.915938 195.036505) scale(0.1 -0.1)">
       <defs>
        <path id="TimesNewRomanPSMT-36" d="M 2869 4325 
L 2869 4209 
Q 2456 4169 2195 4045 
Q 1934 3922 1679 3669 
Q 1425 3416 1258 3105 
Q 1091 2794 978 2366 
Q 1428 2675 1881 2675 
Q 2316 2675 2634 2325 
Q 2953 1975 2953 1425 
Q 2953 894 2631 456 
Q 2244 -75 1606 -75 
Q 1172 -75 869 213 
Q 275 772 275 1663 
Q 275 2231 503 2743 
Q 731 3256 1154 3653 
Q 1578 4050 1965 4187 
Q 2353 4325 2688 4325 
L 2869 4325 
z
M 925 2138 
Q 869 1716 869 1456 
Q 869 1156 980 804 
Q 1091 453 1309 247 
Q 1469 100 1697 100 
Q 1969 100 2183 356 
Q 2397 613 2397 1088 
Q 2397 1622 2184 2012 
Q 1972 2403 1581 2403 
Q 1463 2403 1327 2353 
Q 1191 2303 925 2138 
z
" transform="scale(0.015625)"/>
       </defs>
       <use xlink:href="#TimesNewRomanPSMT-36"/>
       <use xlink:href="#TimesNewRomanPSMT-30" x="50"/>
       <use xlink:href="#TimesNewRomanPSMT-30" x="100"/>
      </g>
     </g>
    </g>
    <g id="ytick_4">
     <g id="line2d_7">
      <g>
       <use xlink:href="#m969beee3d2" x="50.915938" y="163.281194" style="stroke: #000000; stroke-width: 0.8"/>
      </g>
     </g>
     <g id="text_7">
      <!-- 800 -->
      <g transform="translate(28.915938 166.753069) scale(0.1 -0.1)">
       <defs>
        <path id="TimesNewRomanPSMT-38" d="M 1228 2134 
Q 725 2547 579 2797 
Q 434 3047 434 3316 
Q 434 3728 753 4026 
Q 1072 4325 1600 4325 
Q 2113 4325 2425 4047 
Q 2738 3769 2738 3413 
Q 2738 3175 2569 2928 
Q 2400 2681 1866 2347 
Q 2416 1922 2594 1678 
Q 2831 1359 2831 1006 
Q 2831 559 2490 242 
Q 2150 -75 1597 -75 
Q 994 -75 656 303 
Q 388 606 388 966 
Q 388 1247 577 1523 
Q 766 1800 1228 2134 
z
M 1719 2469 
Q 2094 2806 2194 3001 
Q 2294 3197 2294 3444 
Q 2294 3772 2109 3958 
Q 1925 4144 1606 4144 
Q 1288 4144 1088 3959 
Q 888 3775 888 3528 
Q 888 3366 970 3203 
Q 1053 3041 1206 2894 
L 1719 2469 
z
M 1375 2016 
Q 1116 1797 991 1539 
Q 866 1281 866 981 
Q 866 578 1086 336 
Q 1306 94 1647 94 
Q 1984 94 2187 284 
Q 2391 475 2391 747 
Q 2391 972 2272 1150 
Q 2050 1481 1375 2016 
z
" transform="scale(0.015625)"/>
       </defs>
       <use xlink:href="#TimesNewRomanPSMT-38"/>
       <use xlink:href="#TimesNewRomanPSMT-30" x="50"/>
       <use xlink:href="#TimesNewRomanPSMT-30" x="100"/>
      </g>
     </g>
    </g>
    <g id="ytick_5">
     <g id="line2d_8">
      <g>
       <use xlink:href="#m969beee3d2" x="50.915938" y="134.997759" style="stroke: #000000; stroke-width: 0.8"/>
      </g>
     </g>
     <g id="text_8">
      <!-- 1000 -->
      <g transform="translate(23.915938 138.469634) scale(0.1 -0.1)">
       <defs>
        <path id="TimesNewRomanPSMT-31" d="M 750 3822 
L 1781 4325 
L 1884 4325 
L 1884 747 
Q 1884 391 1914 303 
Q 1944 216 2037 169 
Q 2131 122 2419 116 
L 2419 0 
L 825 0 
L 825 116 
Q 1125 122 1212 167 
Q 1300 213 1334 289 
Q 1369 366 1369 747 
L 1369 3034 
Q 1369 3497 1338 3628 
Q 1316 3728 1258 3775 
Q 1200 3822 1119 3822 
Q 1003 3822 797 3725 
L 750 3822 
z
" transform="scale(0.015625)"/>
       </defs>
       <use xlink:href="#TimesNewRomanPSMT-31"/>
       <use xlink:href="#TimesNewRomanPSMT-30" x="50"/>
       <use xlink:href="#TimesNewRomanPSMT-30" x="100"/>
       <use xlink:href="#TimesNewRomanPSMT-30" x="150"/>
      </g>
     </g>
    </g>
    <g id="ytick_6">
     <g id="line2d_9">
      <g>
       <use xlink:href="#m969beee3d2" x="50.915938" y="106.714323" style="stroke: #000000; stroke-width: 0.8"/>
      </g>
     </g>
     <g id="text_9">
      <!-- 1200 -->
      <g transform="translate(23.915938 110.186198) scale(0.1 -0.1)">
       <use xlink:href="#TimesNewRomanPSMT-31"/>
       <use xlink:href="#TimesNewRomanPSMT-32" x="50"/>
       <use xlink:href="#TimesNewRomanPSMT-30" x="100"/>
       <use xlink:href="#TimesNewRomanPSMT-30" x="150"/>
      </g>
     </g>
    </g>
    <g id="ytick_7">
     <g id="line2d_10">
      <g>
       <use xlink:href="#m969beee3d2" x="50.915938" y="78.430887" style="stroke: #000000; stroke-width: 0.8"/>
      </g>
     </g>
     <g id="text_10">
      <!-- 1400 -->
      <g transform="translate(23.915938 81.902762) scale(0.1 -0.1)">
       <use xlink:href="#TimesNewRomanPSMT-31"/>
       <use xlink:href="#TimesNewRomanPSMT-34" x="50"/>
       <use xlink:href="#TimesNewRomanPSMT-30" x="100"/>
       <use xlink:href="#TimesNewRomanPSMT-30" x="150"/>
      </g>
     </g>
    </g>
    <g id="ytick_8">
     <g id="line2d_11">
      <g>
       <use xlink:href="#m969beee3d2" x="50.915938" y="50.147452" style="stroke: #000000; stroke-width: 0.8"/>
      </g>
     </g>
     <g id="text_11">
      <!-- 1600 -->
      <g transform="translate(23.915938 53.619327) scale(0.1 -0.1)">
       <use xlink:href="#TimesNewRomanPSMT-31"/>
       <use xlink:href="#TimesNewRomanPSMT-36" x="50"/>
       <use xlink:href="#TimesNewRomanPSMT-30" x="100"/>
       <use xlink:href="#TimesNewRomanPSMT-30" x="150"/>
      </g>
     </g>
    </g>
    <g id="text_12">
     <!-- Number -->
     <g transform="translate(16.92125 171.441224) rotate(-90) scale(0.14 -0.14)">
      <defs>
       <path id="TimesNewRomanPSMT-4e" d="M -84 4238 
L 1066 4238 
L 3656 1059 
L 3656 3503 
Q 3656 3894 3569 3991 
Q 3453 4122 3203 4122 
L 3056 4122 
L 3056 4238 
L 4531 4238 
L 4531 4122 
L 4381 4122 
Q 4113 4122 4000 3959 
Q 3931 3859 3931 3503 
L 3931 -69 
L 3819 -69 
L 1025 3344 
L 1025 734 
Q 1025 344 1109 247 
Q 1228 116 1475 116 
L 1625 116 
L 1625 0 
L 150 0 
L 150 116 
L 297 116 
Q 569 116 681 278 
Q 750 378 750 734 
L 750 3681 
Q 566 3897 470 3965 
Q 375 4034 191 4094 
Q 100 4122 -84 4122 
L -84 4238 
z
" transform="scale(0.015625)"/>
       <path id="TimesNewRomanPSMT-75" d="M 2709 2863 
L 2709 1128 
Q 2709 631 2732 520 
Q 2756 409 2807 365 
Q 2859 322 2928 322 
Q 3025 322 3147 375 
L 3191 266 
L 2334 -88 
L 2194 -88 
L 2194 519 
Q 1825 119 1631 15 
Q 1438 -88 1222 -88 
Q 981 -88 804 51 
Q 628 191 559 409 
Q 491 628 491 1028 
L 491 2306 
Q 491 2509 447 2587 
Q 403 2666 317 2708 
Q 231 2750 6 2747 
L 6 2863 
L 1009 2863 
L 1009 947 
Q 1009 547 1148 422 
Q 1288 297 1484 297 
Q 1619 297 1789 381 
Q 1959 466 2194 703 
L 2194 2325 
Q 2194 2569 2105 2655 
Q 2016 2741 1734 2747 
L 1734 2863 
L 2709 2863 
z
" transform="scale(0.015625)"/>
       <path id="TimesNewRomanPSMT-62" d="M 984 2369 
Q 1400 2947 1881 2947 
Q 2322 2947 2650 2570 
Q 2978 2194 2978 1541 
Q 2978 778 2472 313 
Q 2038 -88 1503 -88 
Q 1253 -88 995 3 
Q 738 94 469 275 
L 469 3241 
Q 469 3728 445 3840 
Q 422 3953 372 3993 
Q 322 4034 247 4034 
Q 159 4034 28 3984 
L -16 4094 
L 844 4444 
L 984 4444 
L 984 2369 
z
M 984 2169 
L 984 456 
Q 1144 300 1314 220 
Q 1484 141 1663 141 
Q 1947 141 2192 453 
Q 2438 766 2438 1363 
Q 2438 1913 2192 2208 
Q 1947 2503 1634 2503 
Q 1469 2503 1303 2419 
Q 1178 2356 984 2169 
z
" transform="scale(0.015625)"/>
      </defs>
      <use xlink:href="#TimesNewRomanPSMT-4e"/>
      <use xlink:href="#TimesNewRomanPSMT-75" x="72.216797"/>
      <use xlink:href="#TimesNewRomanPSMT-6d" x="122.216797"/>
      <use xlink:href="#TimesNewRomanPSMT-62" x="200"/>
      <use xlink:href="#TimesNewRomanPSMT-65" x="250"/>
      <use xlink:href="#TimesNewRomanPSMT-72" x="294.384766"/>
     </g>
    </g>
   </g>
   <g id="patch_3">
    <path d="M 106.179937 155.326478 
L 121.251938 155.326478 
L 121.251938 94.658509 
L 106.179937 94.658509 
L 106.179937 155.326478 
L 106.179937 155.326478 
z
" clip-path="url(#p5e78d1b5a7)" style="fill: none; stroke: #000000; stroke-linejoin: miter"/>
   </g>
   <g id="line2d_12">
    <path d="M 113.715937 155.326478 
L 113.715937 231.16144 
" clip-path="url(#p5e78d1b5a7)" style="fill: none; stroke: #000000; stroke-linecap: square"/>
   </g>
   <g id="line2d_13">
    <path d="M 113.715937 94.658509 
L 113.715937 40.813918 
" clip-path="url(#p5e78d1b5a7)" style="fill: none; stroke: #000000; stroke-linecap: square"/>
   </g>
   <g id="line2d_14">
    <path d="M 109.947937 231.16144 
L 117.483938 231.16144 
" clip-path="url(#p5e78d1b5a7)" style="fill: none; stroke: #000000; stroke-linecap: square"/>
   </g>
   <g id="line2d_15">
    <path d="M 109.947937 40.813918 
L 117.483938 40.813918 
" clip-path="url(#p5e78d1b5a7)" style="fill: none; stroke: #000000; stroke-linecap: square"/>
   </g>
   <g id="patch_4">
    <path d="M 231.779937 174.417797 
L 246.851938 174.417797 
L 246.851938 116.613525 
L 231.779937 116.613525 
L 231.779937 174.417797 
L 231.779937 174.417797 
z
" clip-path="url(#p5e78d1b5a7)" style="fill: none; stroke: #000000; stroke-linejoin: miter"/>
   </g>
   <g id="line2d_16">
    <path d="M 239.315937 174.417797 
L 239.315937 226.63609 
" clip-path="url(#p5e78d1b5a7)" style="fill: none; stroke: #000000; stroke-linecap: square"/>
   </g>
   <g id="line2d_17">
    <path d="M 239.315937 116.613525 
L 239.315937 70.087274 
" clip-path="url(#p5e78d1b5a7)" style="fill: none; stroke: #000000; stroke-linecap: square"/>
   </g>
   <g id="line2d_18">
    <path d="M 235.547937 226.63609 
L 243.083937 226.63609 
" clip-path="url(#p5e78d1b5a7)" style="fill: none; stroke: #000000; stroke-linecap: square"/>
   </g>
   <g id="line2d_19">
    <path d="M 235.547937 70.087274 
L 243.083937 70.087274 
" clip-path="url(#p5e78d1b5a7)" style="fill: none; stroke: #000000; stroke-linecap: square"/>
   </g>
   <g id="patch_5">
    <path d="M 357.379937 164.660012 
L 372.451937 164.660012 
L 372.451937 94.446383 
L 357.379937 94.446383 
L 357.379937 164.660012 
L 357.379937 164.660012 
z
" clip-path="url(#p5e78d1b5a7)" style="fill: none; stroke: #000000; stroke-linejoin: miter"/>
   </g>
   <g id="line2d_20">
    <path d="M 364.915937 164.660012 
L 364.915937 250.959844 
" clip-path="url(#p5e78d1b5a7)" style="fill: none; stroke: #000000; stroke-linecap: square"/>
   </g>
   <g id="line2d_21">
    <path d="M 364.915937 94.446383 
L 364.915937 44.490765 
" clip-path="url(#p5e78d1b5a7)" style="fill: none; stroke: #000000; stroke-linecap: square"/>
   </g>
   <g id="line2d_22">
    <path d="M 361.147938 250.959844 
L 368.683937 250.959844 
" clip-path="url(#p5e78d1b5a7)" style="fill: none; stroke: #000000; stroke-linecap: square"/>
   </g>
   <g id="line2d_23">
    <path d="M 361.147938 44.490765 
L 368.683937 44.490765 
" clip-path="url(#p5e78d1b5a7)" style="fill: none; stroke: #000000; stroke-linecap: square"/>
   </g>
   <g id="line2d_24">
    <path d="M 106.179937 126.159185 
L 121.251938 126.159185 
" clip-path="url(#p5e78d1b5a7)" style="fill: none; stroke: #000000; stroke-width: 1.5; stroke-linecap: square"/>
   </g>
   <g id="line2d_25">
    <path d="M 231.779937 141.856492 
L 246.851938 141.856492 
" clip-path="url(#p5e78d1b5a7)" style="fill: none; stroke: #000000; stroke-width: 1.5; stroke-linecap: square"/>
   </g>
   <g id="line2d_26">
    <path d="M 357.379937 127.361231 
L 372.451937 127.361231 
" clip-path="url(#p5e78d1b5a7)" style="fill: none; stroke: #000000; stroke-width: 1.5; stroke-linecap: square"/>
   </g>
   <g id="patch_6">
    <path d="M 50.915938 266.961198 
L 50.915938 30.045 
" style="fill: none; stroke: #000000; stroke-linejoin: miter; stroke-linecap: square"/>
   </g>
   <g id="patch_7">
    <path d="M 427.715937 266.961198 
L 427.715937 30.045 
" style="fill: none; stroke: #000000; stroke-linejoin: miter; stroke-linecap: square"/>
   </g>
   <g id="patch_8">
    <path d="M 50.915938 266.961198 
L 427.715937 266.961198 
" style="fill: none; stroke: #000000; stroke-linejoin: miter; stroke-linecap: square"/>
   </g>
   <g id="patch_9">
    <path d="M 50.915938 30.045 
L 427.715937 30.045 
" style="fill: none; stroke: #000000; stroke-linejoin: miter; stroke-linecap: square"/>
   </g>
   <g id="text_13">
    <!-- Statistics on daily outpatient visits in different cities (Number) -->
    <g transform="translate(27.472187 18.045) scale(0.16 -0.16)">
     <defs>
      <path id="TimesNewRomanPS-BoldMT-53" d="M 3006 4334 
L 3041 2922 
L 2913 2922 
Q 2822 3453 2467 3776 
Q 2113 4100 1700 4100 
Q 1381 4100 1195 3929 
Q 1009 3759 1009 3538 
Q 1009 3397 1075 3288 
Q 1166 3141 1366 2997 
Q 1513 2894 2044 2631 
Q 2788 2266 3047 1941 
Q 3303 1616 3303 1197 
Q 3303 666 2889 283 
Q 2475 -100 1838 -100 
Q 1638 -100 1459 -59 
Q 1281 -19 1013 94 
Q 863 156 766 156 
Q 684 156 593 93 
Q 503 31 447 -97 
L 331 -97 
L 331 1503 
L 447 1503 
Q 584 828 976 473 
Q 1369 119 1822 119 
Q 2172 119 2380 309 
Q 2588 500 2588 753 
Q 2588 903 2508 1043 
Q 2428 1184 2265 1311 
Q 2103 1438 1691 1641 
Q 1113 1925 859 2125 
Q 606 2325 470 2572 
Q 334 2819 334 3116 
Q 334 3622 706 3978 
Q 1078 4334 1644 4334 
Q 1850 4334 2044 4284 
Q 2191 4247 2402 4145 
Q 2613 4044 2697 4044 
Q 2778 4044 2825 4094 
Q 2872 4144 2913 4334 
L 3006 4334 
z
" transform="scale(0.015625)"/>
      <path id="TimesNewRomanPS-BoldMT-74" d="M 1375 3991 
L 1375 2922 
L 2069 2922 
L 2069 2613 
L 1375 2613 
L 1375 809 
Q 1375 556 1398 482 
Q 1422 409 1481 364 
Q 1541 319 1591 319 
Q 1794 319 1975 628 
L 2069 559 
Q 1816 -41 1247 -41 
Q 969 -41 776 114 
Q 584 269 531 459 
Q 500 566 500 1034 
L 500 2613 
L 119 2613 
L 119 2722 
Q 513 3000 789 3306 
Q 1066 3613 1272 3991 
L 1375 3991 
z
" transform="scale(0.015625)"/>
      <path id="TimesNewRomanPS-BoldMT-61" d="M 1828 431 
Q 1294 -41 869 -41 
Q 619 -41 453 123 
Q 288 288 288 534 
Q 288 869 575 1136 
Q 863 1403 1828 1847 
L 1828 2141 
Q 1828 2472 1792 2558 
Q 1756 2644 1656 2708 
Q 1556 2772 1431 2772 
Q 1228 2772 1097 2681 
Q 1016 2625 1016 2550 
Q 1016 2484 1103 2388 
Q 1222 2253 1222 2128 
Q 1222 1975 1108 1867 
Q 994 1759 809 1759 
Q 613 1759 480 1878 
Q 347 1997 347 2156 
Q 347 2381 525 2586 
Q 703 2791 1022 2900 
Q 1341 3009 1684 3009 
Q 2100 3009 2342 2832 
Q 2584 2656 2656 2450 
Q 2700 2319 2700 1847 
L 2700 713 
Q 2700 513 2715 461 
Q 2731 409 2762 384 
Q 2794 359 2834 359 
Q 2916 359 3000 475 
L 3094 400 
Q 2938 169 2770 64 
Q 2603 -41 2391 -41 
Q 2141 -41 2000 76 
Q 1859 194 1828 431 
z
M 1828 659 
L 1828 1638 
Q 1450 1416 1266 1163 
Q 1144 994 1144 822 
Q 1144 678 1247 569 
Q 1325 484 1466 484 
Q 1622 484 1828 659 
z
" transform="scale(0.015625)"/>
      <path id="TimesNewRomanPS-BoldMT-69" d="M 919 4338 
Q 1122 4338 1262 4195 
Q 1403 4053 1403 3853 
Q 1403 3653 1261 3512 
Q 1119 3372 919 3372 
Q 719 3372 578 3512 
Q 438 3653 438 3853 
Q 438 4053 578 4195 
Q 719 4338 919 4338 
z
M 1356 2922 
L 1356 606 
Q 1356 297 1428 211 
Q 1500 125 1709 113 
L 1709 0 
L 131 0 
L 131 113 
Q 325 119 419 225 
Q 481 297 481 606 
L 481 2313 
Q 481 2622 409 2708 
Q 338 2794 131 2806 
L 131 2922 
L 1356 2922 
z
" transform="scale(0.015625)"/>
      <path id="TimesNewRomanPS-BoldMT-73" d="M 2063 3003 
L 2109 2006 
L 2003 2006 
Q 1813 2450 1608 2612 
Q 1403 2775 1200 2775 
Q 1072 2775 981 2689 
Q 891 2603 891 2491 
Q 891 2406 953 2328 
Q 1053 2200 1512 1889 
Q 1972 1578 2117 1361 
Q 2263 1144 2263 875 
Q 2263 631 2141 397 
Q 2019 163 1797 37 
Q 1575 -88 1306 -88 
Q 1097 -88 747 44 
Q 653 78 619 78 
Q 516 78 447 -78 
L 344 -78 
L 294 972 
L 400 972 
Q 541 559 786 353 
Q 1031 147 1250 147 
Q 1400 147 1495 239 
Q 1591 331 1591 463 
Q 1591 613 1497 722 
Q 1403 831 1078 1053 
Q 600 1384 459 1559 
Q 253 1816 253 2125 
Q 253 2463 486 2736 
Q 719 3009 1159 3009 
Q 1397 3009 1619 2894 
Q 1703 2847 1756 2847 
Q 1813 2847 1847 2870 
Q 1881 2894 1956 3003 
L 2063 3003 
z
" transform="scale(0.015625)"/>
      <path id="TimesNewRomanPS-BoldMT-63" d="M 2600 753 
L 2697 678 
Q 2491 291 2183 101 
Q 1875 -88 1528 -88 
Q 944 -88 594 353 
Q 244 794 244 1413 
Q 244 2009 563 2463 
Q 947 3009 1622 3009 
Q 2075 3009 2342 2781 
Q 2609 2553 2609 2272 
Q 2609 2094 2501 1987 
Q 2394 1881 2219 1881 
Q 2034 1881 1914 2003 
Q 1794 2125 1766 2438 
Q 1747 2634 1675 2713 
Q 1603 2791 1506 2791 
Q 1356 2791 1250 2631 
Q 1088 2391 1088 1894 
Q 1088 1481 1219 1104 
Q 1350 728 1578 544 
Q 1750 409 1984 409 
Q 2138 409 2275 481 
Q 2413 553 2600 753 
z
" transform="scale(0.015625)"/>
      <path id="TimesNewRomanPS-BoldMT-20" transform="scale(0.015625)"/>
      <path id="TimesNewRomanPS-BoldMT-6f" d="M 1594 3009 
Q 1975 3009 2303 2812 
Q 2631 2616 2801 2253 
Q 2972 1891 2972 1459 
Q 2972 838 2656 419 
Q 2275 -88 1603 -88 
Q 944 -88 587 375 
Q 231 838 231 1447 
Q 231 2075 595 2542 
Q 959 3009 1594 3009 
z
M 1606 2788 
Q 1447 2788 1333 2667 
Q 1219 2547 1183 2192 
Q 1147 1838 1147 1206 
Q 1147 872 1191 581 
Q 1225 359 1337 243 
Q 1450 128 1594 128 
Q 1734 128 1828 206 
Q 1950 313 1991 503 
Q 2053 800 2053 1703 
Q 2053 2234 1993 2432 
Q 1934 2631 1819 2722 
Q 1738 2788 1606 2788 
z
" transform="scale(0.015625)"/>
      <path id="TimesNewRomanPS-BoldMT-6e" d="M 1409 2922 
L 1409 2544 
Q 1634 2788 1840 2898 
Q 2047 3009 2284 3009 
Q 2569 3009 2756 2851 
Q 2944 2694 3006 2459 
Q 3056 2281 3056 1775 
L 3056 638 
Q 3056 300 3117 217 
Q 3178 134 3372 113 
L 3372 0 
L 1894 0 
L 1894 113 
Q 2059 134 2131 250 
Q 2181 328 2181 638 
L 2181 1938 
Q 2181 2297 2153 2390 
Q 2125 2484 2058 2536 
Q 1991 2588 1909 2588 
Q 1641 2588 1409 2203 
L 1409 638 
Q 1409 309 1470 221 
Q 1531 134 1697 113 
L 1697 0 
L 219 0 
L 219 113 
Q 403 131 481 231 
Q 534 300 534 638 
L 534 2288 
Q 534 2619 473 2700 
Q 413 2781 219 2806 
L 219 2922 
L 1409 2922 
z
" transform="scale(0.015625)"/>
      <path id="TimesNewRomanPS-BoldMT-64" d="M 3056 4238 
L 3056 875 
Q 3056 534 3075 472 
Q 3100 369 3170 319 
Q 3241 269 3416 256 
L 3416 153 
L 2181 -88 
L 2181 375 
Q 1959 106 1786 9 
Q 1613 -88 1394 -88 
Q 834 -88 509 413 
Q 247 819 247 1409 
Q 247 1881 409 2254 
Q 572 2628 855 2818 
Q 1138 3009 1463 3009 
Q 1672 3009 1834 2928 
Q 1997 2847 2181 2644 
L 2181 3525 
Q 2181 3859 2153 3928 
Q 2116 4019 2041 4062 
Q 1966 4106 1759 4106 
L 1759 4238 
L 3056 4238 
z
M 2181 2256 
Q 1950 2700 1616 2700 
Q 1500 2700 1425 2638 
Q 1309 2541 1236 2297 
Q 1163 2053 1163 1550 
Q 1163 997 1244 731 
Q 1325 466 1466 347 
Q 1538 288 1663 288 
Q 1938 288 2181 719 
L 2181 2256 
z
" transform="scale(0.015625)"/>
      <path id="TimesNewRomanPS-BoldMT-6c" d="M 1359 4238 
L 1359 606 
Q 1359 297 1431 211 
Q 1503 125 1713 113 
L 1713 0 
L 134 0 
L 134 113 
Q 328 119 422 225 
Q 484 297 484 606 
L 484 3631 
Q 484 3938 412 4023 
Q 341 4109 134 4122 
L 134 4238 
L 1359 4238 
z
" transform="scale(0.015625)"/>
      <path id="TimesNewRomanPS-BoldMT-79" d="M 1556 -119 
L 613 2047 
Q 400 2538 298 2650 
Q 197 2763 53 2806 
L 53 2922 
L 1606 2922 
L 1606 2806 
Q 1453 2800 1390 2747 
Q 1328 2694 1328 2619 
Q 1328 2500 1484 2150 
L 1984 1006 
L 2325 1891 
Q 2509 2363 2509 2547 
Q 2509 2663 2432 2731 
Q 2356 2800 2163 2806 
L 2163 2922 
L 3141 2922 
L 3141 2806 
Q 2997 2791 2906 2695 
Q 2816 2600 2603 2047 
L 1769 -119 
Q 1453 -931 1300 -1119 
Q 1084 -1381 759 -1381 
Q 500 -1381 339 -1232 
Q 178 -1084 178 -875 
Q 178 -694 289 -575 
Q 400 -456 563 -456 
Q 719 -456 814 -556 
Q 909 -656 913 -866 
Q 916 -984 941 -1019 
Q 966 -1053 1013 -1053 
Q 1088 -1053 1172 -963 
Q 1297 -831 1466 -363 
L 1556 -119 
z
" transform="scale(0.015625)"/>
      <path id="TimesNewRomanPS-BoldMT-75" d="M 3038 2922 
L 3038 634 
Q 3038 300 3100 217 
Q 3163 134 3353 113 
L 3353 0 
L 2163 0 
L 2163 391 
Q 1953 141 1743 26 
Q 1534 -88 1275 -88 
Q 1028 -88 836 64 
Q 644 216 578 419 
Q 513 622 513 1128 
L 513 2288 
Q 513 2619 452 2700 
Q 391 2781 197 2806 
L 197 2922 
L 1388 2922 
L 1388 925 
Q 1388 613 1417 522 
Q 1447 431 1511 384 
Q 1575 338 1659 338 
Q 1772 338 1863 397 
Q 1988 478 2163 725 
L 2163 2288 
Q 2163 2619 2102 2700 
Q 2041 2781 1847 2806 
L 1847 2922 
L 3038 2922 
z
" transform="scale(0.015625)"/>
      <path id="TimesNewRomanPS-BoldMT-70" d="M 1347 297 
L 1347 -791 
Q 1347 -1016 1383 -1097 
Q 1419 -1178 1494 -1215 
Q 1569 -1253 1788 -1253 
L 1788 -1369 
L 122 -1369 
L 122 -1253 
Q 316 -1247 409 -1144 
Q 472 -1072 472 -772 
L 472 2313 
Q 472 2622 400 2708 
Q 328 2794 122 2806 
L 122 2922 
L 1347 2922 
L 1347 2538 
Q 1500 2763 1659 2863 
Q 1888 3009 2156 3009 
Q 2478 3009 2742 2806 
Q 3006 2603 3143 2245 
Q 3281 1888 3281 1475 
Q 3281 1031 3139 664 
Q 2997 297 2726 104 
Q 2456 -88 2125 -88 
Q 1884 -88 1675 19 
Q 1519 100 1347 297 
z
M 1347 613 
Q 1616 231 1922 231 
Q 2091 231 2200 409 
Q 2363 672 2363 1409 
Q 2363 2166 2184 2444 
Q 2066 2628 1866 2628 
Q 1550 2628 1347 2172 
L 1347 613 
z
" transform="scale(0.015625)"/>
      <path id="TimesNewRomanPS-BoldMT-65" d="M 2691 1566 
L 1088 1566 
Q 1116 984 1397 647 
Q 1613 388 1916 388 
Q 2103 388 2256 492 
Q 2409 597 2584 869 
L 2691 800 
Q 2453 316 2165 114 
Q 1878 -88 1500 -88 
Q 850 -88 516 413 
Q 247 816 247 1413 
Q 247 2144 642 2576 
Q 1038 3009 1569 3009 
Q 2013 3009 2339 2645 
Q 2666 2281 2691 1566 
z
M 1922 1775 
Q 1922 2278 1867 2465 
Q 1813 2653 1697 2750 
Q 1631 2806 1522 2806 
Q 1359 2806 1256 2647 
Q 1072 2369 1072 1884 
L 1072 1775 
L 1922 1775 
z
" transform="scale(0.015625)"/>
      <path id="TimesNewRomanPS-BoldMT-76" d="M 1534 -88 
L 550 2178 
Q 372 2588 272 2697 
Q 200 2778 59 2806 
L 59 2922 
L 1613 2922 
L 1613 2806 
Q 1466 2806 1413 2753 
Q 1338 2684 1338 2591 
Q 1338 2475 1475 2156 
L 1956 1059 
L 2341 2006 
Q 2506 2413 2506 2581 
Q 2506 2678 2436 2739 
Q 2366 2800 2188 2806 
L 2188 2922 
L 3144 2922 
L 3144 2806 
Q 3006 2788 2918 2703 
Q 2831 2619 2656 2206 
L 1681 -88 
L 1534 -88 
z
" transform="scale(0.015625)"/>
      <path id="TimesNewRomanPS-BoldMT-66" d="M 1497 2616 
L 1497 588 
Q 1497 294 1559 219 
Q 1659 103 1928 113 
L 1928 0 
L 206 0 
L 206 113 
Q 403 116 486 158 
Q 569 200 600 275 
Q 631 350 631 588 
L 631 2616 
L 206 2616 
L 206 2922 
L 631 2922 
L 631 3138 
L 628 3284 
Q 628 3734 958 4034 
Q 1288 4334 1850 4334 
Q 2234 4334 2420 4190 
Q 2606 4047 2606 3872 
Q 2606 3731 2490 3628 
Q 2375 3525 2184 3525 
Q 2022 3525 1926 3609 
Q 1831 3694 1831 3797 
Q 1831 3825 1850 3913 
Q 1863 3966 1863 4013 
Q 1863 4078 1825 4109 
Q 1775 4156 1703 4156 
Q 1613 4156 1552 4081 
Q 1491 4006 1491 3841 
L 1497 3294 
L 1497 2922 
L 1928 2922 
L 1928 2616 
L 1497 2616 
z
" transform="scale(0.015625)"/>
      <path id="TimesNewRomanPS-BoldMT-72" d="M 1428 2922 
L 1428 2259 
Q 1719 2713 1937 2861 
Q 2156 3009 2359 3009 
Q 2534 3009 2639 2901 
Q 2744 2794 2744 2597 
Q 2744 2388 2642 2272 
Q 2541 2156 2397 2156 
Q 2231 2156 2109 2262 
Q 1988 2369 1966 2381 
Q 1934 2400 1894 2400 
Q 1803 2400 1722 2331 
Q 1594 2225 1528 2028 
Q 1428 1725 1428 1359 
L 1428 688 
L 1431 513 
Q 1431 334 1453 284 
Q 1491 200 1564 161 
Q 1638 122 1813 113 
L 1813 0 
L 234 0 
L 234 113 
Q 425 128 492 217 
Q 559 306 559 688 
L 559 2303 
Q 559 2553 534 2622 
Q 503 2709 443 2750 
Q 384 2791 234 2806 
L 234 2922 
L 1428 2922 
z
" transform="scale(0.015625)"/>
      <path id="TimesNewRomanPS-BoldMT-28" d="M 2056 4334 
L 2056 4191 
Q 1731 3978 1578 3775 
Q 1366 3494 1247 3053 
Q 1097 2506 1097 1525 
Q 1097 600 1233 87 
Q 1369 -425 1603 -741 
Q 1766 -959 2056 -1125 
L 2056 -1281 
Q 1303 -1028 779 -248 
Q 256 531 256 1544 
Q 256 2544 778 3314 
Q 1300 4084 2056 4334 
z
" transform="scale(0.015625)"/>
      <path id="TimesNewRomanPS-BoldMT-4e" d="M 1594 4238 
L 3684 1609 
L 3684 3431 
Q 3684 3813 3575 3947 
Q 3425 4128 3072 4122 
L 3072 4238 
L 4472 4238 
L 4472 4122 
Q 4203 4088 4111 4033 
Q 4019 3978 3967 3854 
Q 3916 3731 3916 3431 
L 3916 -97 
L 3809 -97 
L 944 3431 
L 944 738 
Q 944 372 1111 244 
Q 1278 116 1494 116 
L 1594 116 
L 1594 0 
L 91 0 
L 91 116 
Q 441 119 578 259 
Q 716 400 716 738 
L 716 3728 
L 625 3841 
Q 491 4009 387 4062 
Q 284 4116 91 4122 
L 91 4238 
L 1594 4238 
z
" transform="scale(0.015625)"/>
      <path id="TimesNewRomanPS-BoldMT-6d" d="M 1428 2922 
L 1428 2538 
Q 1669 2800 1873 2904 
Q 2078 3009 2322 3009 
Q 2603 3009 2793 2878 
Q 2984 2747 3088 2478 
Q 3338 2759 3567 2884 
Q 3797 3009 4047 3009 
Q 4350 3009 4529 2870 
Q 4709 2731 4779 2517 
Q 4850 2303 4850 1834 
L 4850 638 
Q 4850 300 4911 219 
Q 4972 138 5166 113 
L 5166 0 
L 3656 0 
L 3656 113 
Q 3834 128 3919 250 
Q 3975 334 3975 638 
L 3975 1894 
Q 3975 2284 3944 2390 
Q 3913 2497 3845 2548 
Q 3778 2600 3688 2600 
Q 3553 2600 3415 2501 
Q 3278 2403 3138 2206 
L 3138 638 
Q 3138 322 3191 241 
Q 3263 125 3466 113 
L 3466 0 
L 1953 0 
L 1953 113 
Q 2075 119 2145 173 
Q 2216 228 2239 304 
Q 2263 381 2263 638 
L 2263 1894 
Q 2263 2291 2231 2391 
Q 2200 2491 2126 2547 
Q 2053 2603 1969 2603 
Q 1844 2603 1741 2538 
Q 1594 2441 1428 2206 
L 1428 638 
Q 1428 328 1489 229 
Q 1550 131 1744 113 
L 1744 0 
L 238 0 
L 238 113 
Q 422 131 500 231 
Q 553 300 553 638 
L 553 2288 
Q 553 2619 492 2700 
Q 431 2781 238 2806 
L 238 2922 
L 1428 2922 
z
" transform="scale(0.015625)"/>
      <path id="TimesNewRomanPS-BoldMT-62" d="M 1347 4238 
L 1347 2628 
Q 1716 3009 2153 3009 
Q 2453 3009 2718 2832 
Q 2984 2656 3134 2331 
Q 3284 2006 3284 1581 
Q 3284 1103 3093 712 
Q 2903 322 2584 117 
Q 2266 -88 1856 -88 
Q 1619 -88 1434 -12 
Q 1250 63 1072 231 
L 588 -84 
L 481 -84 
L 481 3631 
Q 481 3884 459 3944 
Q 428 4031 361 4073 
Q 294 4116 134 4122 
L 134 4238 
L 1347 4238 
z
M 1347 2350 
L 1347 1050 
Q 1347 653 1366 544 
Q 1397 359 1515 245 
Q 1634 131 1819 131 
Q 1978 131 2092 222 
Q 2206 313 2282 581 
Q 2359 850 2359 1550 
Q 2359 2222 2191 2472 
Q 2069 2653 1863 2653 
Q 1594 2653 1347 2350 
z
" transform="scale(0.015625)"/>
      <path id="TimesNewRomanPS-BoldMT-29" d="M 78 -1281 
L 78 -1138 
Q 403 -922 556 -719 
Q 766 -438 888 0 
Q 1038 550 1038 1531 
Q 1038 2456 902 2967 
Q 766 3478 531 3794 
Q 369 4013 78 4178 
L 78 4334 
Q 831 4081 1354 3301 
Q 1878 2522 1878 1509 
Q 1878 513 1354 -257 
Q 831 -1028 78 -1281 
z
" transform="scale(0.015625)"/>
     </defs>
     <use xlink:href="#TimesNewRomanPS-BoldMT-53"/>
     <use xlink:href="#TimesNewRomanPS-BoldMT-74" x="55.615234"/>
     <use xlink:href="#TimesNewRomanPS-BoldMT-61" x="88.916016"/>
     <use xlink:href="#TimesNewRomanPS-BoldMT-74" x="138.916016"/>
     <use xlink:href="#TimesNewRomanPS-BoldMT-69" x="172.216797"/>
     <use xlink:href="#TimesNewRomanPS-BoldMT-73" x="200"/>
     <use xlink:href="#TimesNewRomanPS-BoldMT-74" x="238.916016"/>
     <use xlink:href="#TimesNewRomanPS-BoldMT-69" x="272.216797"/>
     <use xlink:href="#TimesNewRomanPS-BoldMT-63" x="300"/>
     <use xlink:href="#TimesNewRomanPS-BoldMT-73" x="344.384766"/>
     <use xlink:href="#TimesNewRomanPS-BoldMT-20" x="383.300781"/>
     <use xlink:href="#TimesNewRomanPS-BoldMT-6f" x="408.300781"/>
     <use xlink:href="#TimesNewRomanPS-BoldMT-6e" x="458.300781"/>
     <use xlink:href="#TimesNewRomanPS-BoldMT-20" x="513.916016"/>
     <use xlink:href="#TimesNewRomanPS-BoldMT-64" x="538.916016"/>
     <use xlink:href="#TimesNewRomanPS-BoldMT-61" x="594.53125"/>
     <use xlink:href="#TimesNewRomanPS-BoldMT-69" x="644.53125"/>
     <use xlink:href="#TimesNewRomanPS-BoldMT-6c" x="672.314453"/>
     <use xlink:href="#TimesNewRomanPS-BoldMT-79" x="700.097656"/>
     <use xlink:href="#TimesNewRomanPS-BoldMT-20" x="750.097656"/>
     <use xlink:href="#TimesNewRomanPS-BoldMT-6f" x="775.097656"/>
     <use xlink:href="#TimesNewRomanPS-BoldMT-75" x="825.097656"/>
     <use xlink:href="#TimesNewRomanPS-BoldMT-74" x="880.712891"/>
     <use xlink:href="#TimesNewRomanPS-BoldMT-70" x="914.013672"/>
     <use xlink:href="#TimesNewRomanPS-BoldMT-61" x="969.628906"/>
     <use xlink:href="#TimesNewRomanPS-BoldMT-74" x="1019.628906"/>
     <use xlink:href="#TimesNewRomanPS-BoldMT-69" x="1052.929688"/>
     <use xlink:href="#TimesNewRomanPS-BoldMT-65" x="1080.712891"/>
     <use xlink:href="#TimesNewRomanPS-BoldMT-6e" x="1125.097656"/>
     <use xlink:href="#TimesNewRomanPS-BoldMT-74" x="1180.712891"/>
     <use xlink:href="#TimesNewRomanPS-BoldMT-20" x="1214.013672"/>
     <use xlink:href="#TimesNewRomanPS-BoldMT-76" x="1239.013672"/>
     <use xlink:href="#TimesNewRomanPS-BoldMT-69" x="1289.013672"/>
     <use xlink:href="#TimesNewRomanPS-BoldMT-73" x="1316.796875"/>
     <use xlink:href="#TimesNewRomanPS-BoldMT-69" x="1355.712891"/>
     <use xlink:href="#TimesNewRomanPS-BoldMT-74" x="1383.496094"/>
     <use xlink:href="#TimesNewRomanPS-BoldMT-73" x="1416.796875"/>
     <use xlink:href="#TimesNewRomanPS-BoldMT-20" x="1455.712891"/>
     <use xlink:href="#TimesNewRomanPS-BoldMT-69" x="1480.712891"/>
     <use xlink:href="#TimesNewRomanPS-BoldMT-6e" x="1508.496094"/>
     <use xlink:href="#TimesNewRomanPS-BoldMT-20" x="1564.111328"/>
     <use xlink:href="#TimesNewRomanPS-BoldMT-64" x="1589.111328"/>
     <use xlink:href="#TimesNewRomanPS-BoldMT-69" x="1644.726562"/>
     <use xlink:href="#TimesNewRomanPS-BoldMT-66" x="1672.509766"/>
     <use xlink:href="#TimesNewRomanPS-BoldMT-66" x="1705.810547"/>
     <use xlink:href="#TimesNewRomanPS-BoldMT-65" x="1739.111328"/>
     <use xlink:href="#TimesNewRomanPS-BoldMT-72" x="1783.496094"/>
     <use xlink:href="#TimesNewRomanPS-BoldMT-65" x="1826.130859"/>
     <use xlink:href="#TimesNewRomanPS-BoldMT-6e" x="1870.515625"/>
     <use xlink:href="#TimesNewRomanPS-BoldMT-74" x="1926.130859"/>
     <use xlink:href="#TimesNewRomanPS-BoldMT-20" x="1959.431641"/>
     <use xlink:href="#TimesNewRomanPS-BoldMT-63" x="1984.431641"/>
     <use xlink:href="#TimesNewRomanPS-BoldMT-69" x="2028.816406"/>
     <use xlink:href="#TimesNewRomanPS-BoldMT-74" x="2056.599609"/>
     <use xlink:href="#TimesNewRomanPS-BoldMT-69" x="2089.900391"/>
     <use xlink:href="#TimesNewRomanPS-BoldMT-65" x="2117.683594"/>
     <use xlink:href="#TimesNewRomanPS-BoldMT-73" x="2162.068359"/>
     <use xlink:href="#TimesNewRomanPS-BoldMT-20" x="2200.984375"/>
     <use xlink:href="#TimesNewRomanPS-BoldMT-28" x="2225.984375"/>
     <use xlink:href="#TimesNewRomanPS-BoldMT-4e" x="2259.285156"/>
     <use xlink:href="#TimesNewRomanPS-BoldMT-75" x="2331.501953"/>
     <use xlink:href="#TimesNewRomanPS-BoldMT-6d" x="2387.117188"/>
     <use xlink:href="#TimesNewRomanPS-BoldMT-62" x="2470.417969"/>
     <use xlink:href="#TimesNewRomanPS-BoldMT-65" x="2526.033203"/>
     <use xlink:href="#TimesNewRomanPS-BoldMT-72" x="2570.417969"/>
     <use xlink:href="#TimesNewRomanPS-BoldMT-29" x="2614.802734"/>
    </g>
   </g>
  </g>
 </g>
 <defs>
  <clipPath id="p5e78d1b5a7">
   <rect x="50.915938" y="30.045" width="376.8" height="236.916198"/>
  </clipPath>
 </defs>
</svg>
