<?xml version="1.0" encoding="utf-8" standalone="no"?>
<!DOCTYPE svg PUBLIC "-//W3C//DTD SVG 1.1//EN"
  "http://www.w3.org/Graphics/SVG/1.1/DTD/svg11.dtd">
<svg xmlns:xlink="http://www.w3.org/1999/xlink" width="458.359687pt" height="320.002574pt" viewBox="0 0 458.359687 320.002574" xmlns="http://www.w3.org/2000/svg" version="1.1">
 <metadata>
  <rdf:RDF xmlns:dc="http://purl.org/dc/elements/1.1/" xmlns:cc="http://creativecommons.org/ns#" xmlns:rdf="http://www.w3.org/1999/02/22-rdf-syntax-ns#">
   <cc:Work>
    <dc:type rdf:resource="http://purl.org/dc/dcmitype/StillImage"/>
    <dc:date>2025-05-26T17:00:32.924061</dc:date>
    <dc:format>image/svg+xml</dc:format>
    <dc:creator>
     <cc:Agent>
      <dc:title>Matplotlib v3.7.2, https://matplotlib.org/</dc:title>
     </cc:Agent>
    </dc:creator>
   </cc:Work>
  </rdf:RDF>
 </metadata>
 <defs>
  <style type="text/css">*{stroke-linejoin: round; stroke-linecap: butt}</style>
 </defs>
 <g id="figure_1">
  <g id="patch_1">
   <path d="M 0 320.002574 
L 458.359687 320.002574 
L 458.359687 0 
L 0 0 
z
" style="fill: #ffffff"/>
  </g>
  <g id="axes_1">
   <g id="patch_2">
    <path d="M 50.915938 261.339699 
L 427.715937 261.339699 
L 427.715937 30.045 
L 50.915938 30.045 
z
" style="fill: #ffffff"/>
   </g>
   <g id="PolyCollection_1">
    <defs>
     <path id="m248e21166b" d="M 78.786424 -76.161232 
L 76.874022 -76.161232 
L 76.76708 -77.752874 
L 76.65856 -79.344516 
L 76.549809 -80.936157 
L 76.442078 -82.527799 
L 76.336395 -84.119441 
L 76.233422 -85.711082 
L 76.133307 -87.302724 
L 76.035556 -88.894366 
L 75.938925 -90.486008 
L 75.841369 -92.077649 
L 75.740036 -93.669291 
L 75.631343 -95.260933 
L 75.511103 -96.852575 
L 75.374723 -98.444216 
L 75.217443 -100.035858 
L 75.034598 -101.6275 
L 74.821878 -103.219141 
L 74.575567 -104.810783 
L 74.292734 -106.402425 
L 73.97136 -107.994067 
L 73.610408 -109.585708 
L 73.209822 -111.17735 
L 72.770488 -112.768992 
L 72.294154 -114.360634 
L 71.783348 -115.952275 
L 71.241306 -117.543917 
L 70.671919 -119.135559 
L 70.079702 -120.727201 
L 69.469783 -122.318842 
L 68.847898 -123.910484 
L 68.220361 -125.502126 
L 67.594007 -127.093767 
L 66.976075 -128.685409 
L 66.374039 -130.277051 
L 65.795385 -131.868693 
L 65.247356 -133.460334 
L 64.736682 -135.051976 
L 64.269326 -136.643618 
L 63.850282 -138.23526 
L 63.483427 -139.826901 
L 63.17145 -141.418543 
L 62.915853 -143.010185 
L 62.71702 -144.601826 
L 62.574321 -146.193468 
L 62.486261 -147.78511 
L 62.450631 -149.376752 
L 62.464677 -150.968393 
L 62.52526 -152.560035 
L 62.629034 -154.151677 
L 62.772614 -155.743319 
L 62.952759 -157.33496 
L 63.166545 -158.926602 
L 63.411525 -160.518244 
L 63.685851 -162.109885 
L 63.988342 -163.701527 
L 64.318469 -165.293169 
L 64.676258 -166.884811 
L 65.062092 -168.476452 
L 65.476437 -170.068094 
L 65.919516 -171.659736 
L 66.390955 -173.251378 
L 66.88945 -174.843019 
L 67.412497 -176.434661 
L 67.956225 -178.026303 
L 68.515339 -179.617945 
L 69.083221 -181.209586 
L 69.652155 -182.801228 
L 70.213684 -184.39287 
L 70.759061 -185.984511 
L 71.279758 -187.576153 
L 71.767988 -189.167795 
L 72.217199 -190.759437 
L 72.622478 -192.351078 
L 72.980852 -193.94272 
L 73.291435 -195.534362 
L 73.55542 -197.126004 
L 73.775912 -198.717645 
L 73.957624 -200.309287 
L 74.10646 -201.900929 
L 74.229042 -203.49257 
L 74.332212 -205.084212 
L 74.422567 -206.675854 
L 74.506074 -208.267496 
L 74.587781 -209.859137 
L 74.671652 -211.450779 
L 74.760526 -213.042421 
L 74.85618 -214.634063 
L 74.959471 -216.225704 
L 75.070531 -217.817346 
L 75.188978 -219.408988 
L 75.314108 -221.000629 
L 75.445051 -222.592271 
L 75.580881 -224.183913 
L 75.720669 -225.775555 
L 75.863492 -227.367196 
L 76.008414 -228.958838 
L 76.15444 -230.55048 
L 76.300486 -232.142122 
L 76.445354 -233.733763 
L 79.215092 -233.733763 
L 79.215092 -233.733763 
L 79.35996 -232.142122 
L 79.506007 -230.55048 
L 79.652033 -228.958838 
L 79.796954 -227.367196 
L 79.939778 -225.775555 
L 80.079565 -224.183913 
L 80.215395 -222.592271 
L 80.346338 -221.000629 
L 80.471468 -219.408988 
L 80.589915 -217.817346 
L 80.700976 -216.225704 
L 80.804267 -214.634063 
L 80.89992 -213.042421 
L 80.988795 -211.450779 
L 81.072666 -209.859137 
L 81.154372 -208.267496 
L 81.237879 -206.675854 
L 81.328234 -205.084212 
L 81.431404 -203.49257 
L 81.553986 -201.900929 
L 81.702823 -200.309287 
L 81.884534 -198.717645 
L 82.105026 -197.126004 
L 82.369012 -195.534362 
L 82.679595 -193.94272 
L 83.037969 -192.351078 
L 83.443248 -190.759437 
L 83.892458 -189.167795 
L 84.380689 -187.576153 
L 84.901386 -185.984511 
L 85.446763 -184.39287 
L 86.008292 -182.801228 
L 86.577225 -181.209586 
L 87.145107 -179.617945 
L 87.704222 -178.026303 
L 88.247949 -176.434661 
L 88.770997 -174.843019 
L 89.269491 -173.251378 
L 89.74093 -171.659736 
L 90.18401 -170.068094 
L 90.598355 -168.476452 
L 90.984188 -166.884811 
L 91.341977 -165.293169 
L 91.672105 -163.701527 
L 91.974595 -162.109885 
L 92.248921 -160.518244 
L 92.493901 -158.926602 
L 92.707687 -157.33496 
L 92.887832 -155.743319 
L 93.031413 -154.151677 
L 93.135187 -152.560035 
L 93.19577 -150.968393 
L 93.209815 -149.376752 
L 93.174185 -147.78511 
L 93.086125 -146.193468 
L 92.943427 -144.601826 
L 92.744593 -143.010185 
L 92.488997 -141.418543 
L 92.177019 -139.826901 
L 91.810164 -138.23526 
L 91.39112 -136.643618 
L 90.923765 -135.051976 
L 90.41309 -133.460334 
L 89.865061 -131.868693 
L 89.286408 -130.277051 
L 88.684371 -128.685409 
L 88.066439 -127.093767 
L 87.440085 -125.502126 
L 86.812548 -123.910484 
L 86.190663 -122.318842 
L 85.580744 -120.727201 
L 84.988527 -119.135559 
L 84.41914 -117.543917 
L 83.877099 -115.952275 
L 83.366293 -114.360634 
L 82.889958 -112.768992 
L 82.450624 -111.17735 
L 82.050039 -109.585708 
L 81.689087 -107.994067 
L 81.367713 -106.402425 
L 81.084879 -104.810783 
L 80.838568 -103.219141 
L 80.625848 -101.6275 
L 80.443003 -100.035858 
L 80.285723 -98.444216 
L 80.149344 -96.852575 
L 80.029103 -95.260933 
L 79.92041 -93.669291 
L 79.819078 -92.077649 
L 79.721521 -90.486008 
L 79.624891 -88.894366 
L 79.527139 -87.302724 
L 79.427025 -85.711082 
L 79.324051 -84.119441 
L 79.218368 -82.527799 
L 79.110637 -80.936157 
L 79.001886 -79.344516 
L 78.893367 -77.752874 
L 78.786424 -76.161232 
z
" style="stroke: #000000; stroke-opacity: 0.7"/>
    </defs>
    <g clip-path="url(#ped1a900aff)">
     <use xlink:href="#m248e21166b" x="0" y="320.002574" style="fill: #c49c94; fill-opacity: 0.7; stroke: #000000; stroke-opacity: 0.7"/>
    </g>
   </g>
   <g id="PolyCollection_2">
    <defs>
     <path id="m1d31854118" d="M 132.626261 -74.312271 
L 130.691329 -74.312271 
L 130.63776 -75.506522 
L 130.59305 -76.700772 
L 130.556611 -77.895022 
L 130.526894 -79.089272 
L 130.501402 -80.283522 
L 130.476788 -81.477772 
L 130.449009 -82.672022 
L 130.413542 -83.866272 
L 130.365622 -85.060522 
L 130.300495 -86.254772 
L 130.213654 -87.449022 
L 130.101031 -88.643273 
L 129.959152 -89.837523 
L 129.785227 -91.031773 
L 129.577186 -92.226023 
L 129.333682 -93.420273 
L 129.054063 -94.614523 
L 128.738351 -95.808773 
L 128.387223 -97.003023 
L 128.002029 -98.197273 
L 127.584838 -99.391523 
L 127.138495 -100.585773 
L 126.66669 -101.780023 
L 126.173995 -102.974274 
L 125.665836 -104.168524 
L 125.148397 -105.362774 
L 124.628407 -106.557024 
L 124.112837 -107.751274 
L 123.608502 -108.945524 
L 123.121601 -110.139774 
L 122.657256 -111.334024 
L 122.219089 -112.528274 
L 121.808899 -113.722524 
L 121.42649 -114.916774 
L 121.069689 -116.111024 
L 120.734562 -117.305275 
L 120.415836 -118.499525 
L 120.107472 -119.693775 
L 119.803368 -120.888025 
L 119.498085 -122.082275 
L 119.187557 -123.276525 
L 118.869667 -124.470775 
L 118.544647 -125.665025 
L 118.215242 -126.859275 
L 117.886613 -128.053525 
L 117.565984 -129.247775 
L 117.262074 -130.442025 
L 116.984374 -131.636276 
L 116.74235 -132.830526 
L 116.544663 -134.024776 
L 116.398494 -135.219026 
L 116.309036 -136.413276 
L 116.279203 -137.607526 
L 116.309566 -138.801776 
L 116.39851 -139.996026 
L 116.542558 -141.190276 
L 116.736826 -142.384526 
L 116.975541 -143.578776 
L 117.25256 -144.773027 
L 117.56186 -145.967277 
L 117.897952 -147.161527 
L 118.256206 -148.355777 
L 118.633079 -149.550027 
L 119.02623 -150.744277 
L 119.434534 -151.938527 
L 119.857987 -153.132777 
L 120.297502 -154.327027 
L 120.754613 -155.521277 
L 121.231098 -156.715527 
L 121.728535 -157.909777 
L 122.247859 -159.104028 
L 122.788927 -160.298278 
L 123.350175 -161.492528 
L 123.928385 -162.686778 
L 124.518608 -163.881028 
L 125.114264 -165.075278 
L 125.707404 -166.269528 
L 126.289126 -167.463778 
L 126.850095 -168.658028 
L 127.381127 -169.852278 
L 127.873769 -171.046528 
L 128.320841 -172.240778 
L 128.716882 -173.435029 
L 129.058468 -174.629279 
L 129.344393 -175.823529 
L 129.575697 -177.017779 
L 129.755551 -178.212029 
L 129.889011 -179.406279 
L 129.982668 -180.600529 
L 130.044216 -181.794779 
L 130.081963 -182.989029 
L 130.104334 -184.183279 
L 130.119381 -185.377529 
L 130.134339 -186.571779 
L 130.155264 -187.76603 
L 130.186763 -188.96028 
L 130.231851 -190.15453 
L 130.291925 -191.34878 
L 130.366857 -192.54303 
L 132.950732 -192.54303 
L 132.950732 -192.54303 
L 133.025664 -191.34878 
L 133.085738 -190.15453 
L 133.130826 -188.96028 
L 133.162326 -187.76603 
L 133.18325 -186.571779 
L 133.198208 -185.377529 
L 133.213255 -184.183279 
L 133.235627 -182.989029 
L 133.273374 -181.794779 
L 133.334921 -180.600529 
L 133.428578 -179.406279 
L 133.562039 -178.212029 
L 133.741892 -177.017779 
L 133.973196 -175.823529 
L 134.259122 -174.629279 
L 134.600708 -173.435029 
L 134.996748 -172.240778 
L 135.443821 -171.046528 
L 135.936463 -169.852278 
L 136.467494 -168.658028 
L 137.028464 -167.463778 
L 137.610186 -166.269528 
L 138.203326 -165.075278 
L 138.798981 -163.881028 
L 139.389204 -162.686778 
L 139.967414 -161.492528 
L 140.528662 -160.298278 
L 141.06973 -159.104028 
L 141.589054 -157.909777 
L 142.086491 -156.715527 
L 142.562976 -155.521277 
L 143.020088 -154.327027 
L 143.459603 -153.132777 
L 143.883055 -151.938527 
L 144.291359 -150.744277 
L 144.68451 -149.550027 
L 145.061383 -148.355777 
L 145.419638 -147.161527 
L 145.755729 -145.967277 
L 146.065029 -144.773027 
L 146.342048 -143.578776 
L 146.580763 -142.384526 
L 146.775032 -141.190276 
L 146.919079 -139.996026 
L 147.008023 -138.801776 
L 147.038386 -137.607526 
L 147.008553 -136.413276 
L 146.919096 -135.219026 
L 146.772927 -134.024776 
L 146.57524 -132.830526 
L 146.333215 -131.636276 
L 146.055515 -130.442025 
L 145.751605 -129.247775 
L 145.430976 -128.053525 
L 145.102347 -126.859275 
L 144.772942 -125.665025 
L 144.447922 -124.470775 
L 144.130032 -123.276525 
L 143.819504 -122.082275 
L 143.514222 -120.888025 
L 143.210117 -119.693775 
L 142.901753 -118.499525 
L 142.583027 -117.305275 
L 142.247901 -116.111024 
L 141.891099 -114.916774 
L 141.50869 -113.722524 
L 141.0985 -112.528274 
L 140.660333 -111.334024 
L 140.195989 -110.139774 
L 139.709087 -108.945524 
L 139.204752 -107.751274 
L 138.689183 -106.557024 
L 138.169193 -105.362774 
L 137.651753 -104.168524 
L 137.143594 -102.974274 
L 136.650899 -101.780023 
L 136.179095 -100.585773 
L 135.732752 -99.391523 
L 135.31556 -98.197273 
L 134.930366 -97.003023 
L 134.579238 -95.808773 
L 134.263526 -94.614523 
L 133.983908 -93.420273 
L 133.740403 -92.226023 
L 133.532362 -91.031773 
L 133.358437 -89.837523 
L 133.216559 -88.643273 
L 133.103936 -87.449022 
L 133.017094 -86.254772 
L 132.951967 -85.060522 
L 132.904047 -83.866272 
L 132.86858 -82.672022 
L 132.840801 -81.477772 
L 132.816187 -80.283522 
L 132.790696 -79.089272 
L 132.760978 -77.895022 
L 132.72454 -76.700772 
L 132.67983 -75.506522 
L 132.626261 -74.312271 
z
" style="stroke: #000000; stroke-opacity: 0.7"/>
    </defs>
    <g clip-path="url(#ped1a900aff)">
     <use xlink:href="#m1d31854118" x="0" y="320.002574" style="fill: #ff9896; fill-opacity: 0.7; stroke: #000000; stroke-opacity: 0.7"/>
    </g>
   </g>
   <g id="PolyCollection_3">
    <defs>
     <path id="m6136a9c68e" d="M 188.179867 -72.566031 
L 182.794865 -72.566031 
L 182.55884 -74.285295 
L 182.315691 -76.004558 
L 182.063845 -77.723822 
L 181.801164 -79.443085 
L 181.525085 -81.162349 
L 181.232814 -82.881612 
L 180.921556 -84.600876 
L 180.588771 -86.32014 
L 180.232439 -88.039403 
L 179.851293 -89.758667 
L 179.44502 -91.47793 
L 179.014395 -93.197194 
L 178.561354 -94.916458 
L 178.088968 -96.635721 
L 177.601357 -98.354985 
L 177.103515 -100.074248 
L 176.601088 -101.793512 
L 176.100097 -103.512776 
L 175.606659 -105.232039 
L 175.126696 -106.951303 
L 174.665682 -108.670566 
L 174.228422 -110.38983 
L 173.818898 -112.109093 
L 173.440164 -113.828357 
L 173.094302 -115.547621 
L 172.782433 -117.266884 
L 172.504763 -118.986148 
L 172.260652 -120.705411 
L 172.048694 -122.424675 
L 171.866802 -124.143939 
L 171.712284 -125.863202 
L 171.581915 -127.582466 
L 171.47201 -129.301729 
L 171.378513 -131.020993 
L 171.297102 -132.740257 
L 171.223338 -134.45952 
L 171.152849 -136.178784 
L 171.081561 -137.898047 
L 171.005965 -139.617311 
L 170.923403 -141.336574 
L 170.832347 -143.055838 
L 170.732656 -144.775102 
L 170.625755 -146.494365 
L 170.514729 -148.213629 
L 170.404299 -149.932892 
L 170.300661 -151.652156 
L 170.211202 -153.37142 
L 170.144089 -155.090683 
L 170.107774 -156.809947 
L 170.110437 -158.52921 
L 170.159425 -160.248474 
L 170.260738 -161.967738 
L 170.418592 -163.687001 
L 170.635124 -165.406265 
L 170.910241 -167.125528 
L 171.241644 -168.844792 
L 171.625008 -170.564056 
L 172.054311 -172.283319 
L 172.522254 -174.002583 
L 173.02076 -175.721846 
L 173.541472 -177.44111 
L 174.076222 -179.160373 
L 174.617424 -180.879637 
L 175.158368 -182.598901 
L 175.693387 -184.318164 
L 176.217911 -186.037428 
L 176.728413 -187.756691 
L 177.222272 -189.475955 
L 177.697575 -191.195219 
L 178.152913 -192.914482 
L 178.587177 -194.633746 
L 178.999398 -196.353009 
L 179.38864 -198.072273 
L 179.753963 -199.791537 
L 180.094447 -201.5108 
L 180.409269 -203.230064 
L 180.69782 -204.949327 
L 180.959844 -206.668591 
L 181.195563 -208.387854 
L 181.405783 -210.107118 
L 181.59196 -211.826382 
L 181.756209 -213.545645 
L 181.901255 -215.264909 
L 182.030337 -216.984172 
L 182.147051 -218.703436 
L 182.255177 -220.4227 
L 182.358474 -222.141963 
L 182.460481 -223.861227 
L 182.564338 -225.58049 
L 182.672632 -227.299754 
L 182.78729 -229.019018 
L 182.909517 -230.738281 
L 183.039788 -232.457545 
L 183.177879 -234.176808 
L 183.322945 -235.896072 
L 183.473628 -237.615335 
L 183.628181 -239.334599 
L 183.784604 -241.053863 
L 183.940778 -242.773126 
L 187.033954 -242.773126 
L 187.033954 -242.773126 
L 187.190129 -241.053863 
L 187.346551 -239.334599 
L 187.501104 -237.615335 
L 187.651787 -235.896072 
L 187.796854 -234.176808 
L 187.934944 -232.457545 
L 188.065215 -230.738281 
L 188.187443 -229.019018 
L 188.302101 -227.299754 
L 188.410395 -225.58049 
L 188.514251 -223.861227 
L 188.616259 -222.141963 
L 188.719555 -220.4227 
L 188.827681 -218.703436 
L 188.944396 -216.984172 
L 189.073477 -215.264909 
L 189.218523 -213.545645 
L 189.382772 -211.826382 
L 189.568949 -210.107118 
L 189.779169 -208.387854 
L 190.014888 -206.668591 
L 190.276912 -204.949327 
L 190.565463 -203.230064 
L 190.880285 -201.5108 
L 191.220769 -199.791537 
L 191.586093 -198.072273 
L 191.975335 -196.353009 
L 192.387555 -194.633746 
L 192.821819 -192.914482 
L 193.277157 -191.195219 
L 193.75246 -189.475955 
L 194.246319 -187.756691 
L 194.756822 -186.037428 
L 195.281346 -184.318164 
L 195.816364 -182.598901 
L 196.357308 -180.879637 
L 196.89851 -179.160373 
L 197.43326 -177.44111 
L 197.953972 -175.721846 
L 198.452478 -174.002583 
L 198.920422 -172.283319 
L 199.349724 -170.564056 
L 199.733088 -168.844792 
L 200.064491 -167.125528 
L 200.339608 -165.406265 
L 200.55614 -163.687001 
L 200.713994 -161.967738 
L 200.815307 -160.248474 
L 200.864295 -158.52921 
L 200.866958 -156.809947 
L 200.830643 -155.090683 
L 200.76353 -153.37142 
L 200.674071 -151.652156 
L 200.570433 -149.932892 
L 200.460003 -148.213629 
L 200.348977 -146.494365 
L 200.242076 -144.775102 
L 200.142385 -143.055838 
L 200.05133 -141.336574 
L 199.968767 -139.617311 
L 199.893171 -137.898047 
L 199.821883 -136.178784 
L 199.751394 -134.45952 
L 199.677631 -132.740257 
L 199.59622 -131.020993 
L 199.502722 -129.301729 
L 199.392817 -127.582466 
L 199.262448 -125.863202 
L 199.10793 -124.143939 
L 198.926038 -122.424675 
L 198.71408 -120.705411 
L 198.469969 -118.986148 
L 198.192299 -117.266884 
L 197.88043 -115.547621 
L 197.534568 -113.828357 
L 197.155834 -112.109093 
L 196.74631 -110.38983 
L 196.30905 -108.670566 
L 195.848036 -106.951303 
L 195.368073 -105.232039 
L 194.874635 -103.512776 
L 194.373644 -101.793512 
L 193.871217 -100.074248 
L 193.373376 -98.354985 
L 192.885764 -96.635721 
L 192.413379 -94.916458 
L 191.960337 -93.197194 
L 191.529713 -91.47793 
L 191.123439 -89.758667 
L 190.742293 -88.039403 
L 190.385961 -86.32014 
L 190.053177 -84.600876 
L 189.741918 -82.881612 
L 189.449647 -81.162349 
L 189.173569 -79.443085 
L 188.910887 -77.723822 
L 188.659041 -76.004558 
L 188.415892 -74.285295 
L 188.179867 -72.566031 
z
" style="stroke: #000000; stroke-opacity: 0.7"/>
    </defs>
    <g clip-path="url(#ped1a900aff)">
     <use xlink:href="#m6136a9c68e" x="0" y="320.002574" style="fill: #e377c2; fill-opacity: 0.7; stroke: #000000; stroke-opacity: 0.7"/>
    </g>
   </g>
   <g id="PolyCollection_4">
    <defs>
     <path id="meae752a549" d="M 242.012723 -69.17627 
L 236.619152 -69.17627 
L 236.307958 -71.128988 
L 235.988008 -73.081706 
L 235.662344 -75.034424 
L 235.333931 -76.987143 
L 235.005493 -78.939861 
L 234.679358 -80.892579 
L 234.357316 -82.845297 
L 234.040496 -84.798016 
L 233.72929 -86.750734 
L 233.423302 -88.703452 
L 233.121361 -90.65617 
L 232.82157 -92.608888 
L 232.521419 -94.561607 
L 232.217936 -96.514325 
L 231.907885 -98.467043 
L 231.58799 -100.419761 
L 231.255181 -102.372479 
L 230.906837 -104.325198 
L 230.541014 -106.277916 
L 230.156645 -108.230634 
L 229.753692 -110.183352 
L 229.333239 -112.13607 
L 228.897523 -114.088789 
L 228.449899 -116.041507 
L 227.994734 -117.994225 
L 227.537253 -119.946943 
L 227.08333 -121.899662 
L 226.639253 -123.85238 
L 226.211468 -125.805098 
L 225.806324 -127.757816 
L 225.429833 -129.710534 
L 225.08746 -131.663253 
L 224.783951 -133.615971 
L 224.523219 -135.568689 
L 224.308277 -137.521407 
L 224.141232 -139.474125 
L 224.023339 -141.426844 
L 223.955089 -143.379562 
L 223.936346 -145.33228 
L 223.966483 -147.284998 
L 224.044536 -149.237716 
L 224.169322 -151.190435 
L 224.339523 -153.143153 
L 224.55372 -155.095871 
L 224.810368 -157.048589 
L 225.10771 -159.001308 
L 225.443646 -160.954026 
L 225.81558 -162.906744 
L 226.220257 -164.859462 
L 226.653631 -166.81218 
L 227.110789 -168.764899 
L 227.585945 -170.717617 
L 228.072533 -172.670335 
L 228.563388 -174.623053 
L 229.051026 -176.575771 
L 229.527978 -178.52849 
L 229.987169 -180.481208 
L 230.422303 -182.433926 
L 230.828213 -184.386644 
L 231.201139 -186.339362 
L 231.53892 -188.292081 
L 231.841071 -190.244799 
L 232.10874 -192.197517 
L 232.344563 -194.150235 
L 232.552414 -196.102954 
L 232.737096 -198.055672 
L 232.903984 -200.00839 
L 233.05867 -201.961108 
L 233.206615 -203.913826 
L 233.35286 -205.866545 
L 233.501787 -207.819263 
L 233.656959 -209.771981 
L 233.821022 -211.724699 
L 233.995686 -213.677417 
L 234.181749 -215.630136 
L 234.379178 -217.582854 
L 234.587209 -219.535572 
L 234.80448 -221.48829 
L 235.029154 -223.441008 
L 235.259061 -225.393727 
L 235.491824 -227.346445 
L 235.724976 -229.299163 
L 235.956076 -231.251881 
L 236.182807 -233.2046 
L 236.403062 -235.157318 
L 236.615022 -237.110036 
L 236.817205 -239.062754 
L 237.008515 -241.015472 
L 237.188256 -242.968191 
L 237.356131 -244.920909 
L 237.512215 -246.873627 
L 237.65692 -248.826345 
L 237.790926 -250.779063 
L 237.915112 -252.731782 
L 238.030472 -254.6845 
L 238.138042 -256.637218 
L 238.238815 -258.589936 
L 238.333683 -260.542654 
L 238.423387 -262.495373 
L 240.208488 -262.495373 
L 240.208488 -262.495373 
L 240.298192 -260.542654 
L 240.39306 -258.589936 
L 240.493833 -256.637218 
L 240.601403 -254.6845 
L 240.716763 -252.731782 
L 240.840949 -250.779063 
L 240.974955 -248.826345 
L 241.11966 -246.873627 
L 241.275744 -244.920909 
L 241.443619 -242.968191 
L 241.62336 -241.015472 
L 241.81467 -239.062754 
L 242.016853 -237.110036 
L 242.228813 -235.157318 
L 242.449068 -233.2046 
L 242.675799 -231.251881 
L 242.906899 -229.299163 
L 243.140051 -227.346445 
L 243.372814 -225.393727 
L 243.602721 -223.441008 
L 243.827395 -221.48829 
L 244.044666 -219.535572 
L 244.252697 -217.582854 
L 244.450126 -215.630136 
L 244.636189 -213.677417 
L 244.810853 -211.724699 
L 244.974916 -209.771981 
L 245.130088 -207.819263 
L 245.279015 -205.866545 
L 245.42526 -203.913826 
L 245.573205 -201.961108 
L 245.727891 -200.00839 
L 245.894779 -198.055672 
L 246.079461 -196.102954 
L 246.287312 -194.150235 
L 246.523135 -192.197517 
L 246.790804 -190.244799 
L 247.092955 -188.292081 
L 247.430736 -186.339362 
L 247.803662 -184.386644 
L 248.209572 -182.433926 
L 248.644706 -180.481208 
L 249.103897 -178.52849 
L 249.580849 -176.575771 
L 250.068487 -174.623053 
L 250.559342 -172.670335 
L 251.04593 -170.717617 
L 251.521086 -168.764899 
L 251.978244 -166.81218 
L 252.411618 -164.859462 
L 252.816295 -162.906744 
L 253.188229 -160.954026 
L 253.524165 -159.001308 
L 253.821507 -157.048589 
L 254.078155 -155.095871 
L 254.292352 -153.143153 
L 254.462553 -151.190435 
L 254.587339 -149.237716 
L 254.665392 -147.284998 
L 254.695529 -145.33228 
L 254.676786 -143.379562 
L 254.608536 -141.426844 
L 254.490643 -139.474125 
L 254.323598 -137.521407 
L 254.108656 -135.568689 
L 253.847924 -133.615971 
L 253.544415 -131.663253 
L 253.202042 -129.710534 
L 252.825551 -127.757816 
L 252.420407 -125.805098 
L 251.992622 -123.85238 
L 251.548545 -121.899662 
L 251.094622 -119.946943 
L 250.637141 -117.994225 
L 250.181976 -116.041507 
L 249.734352 -114.088789 
L 249.298636 -112.13607 
L 248.878183 -110.183352 
L 248.47523 -108.230634 
L 248.090861 -106.277916 
L 247.725038 -104.325198 
L 247.376694 -102.372479 
L 247.043885 -100.419761 
L 246.72399 -98.467043 
L 246.413939 -96.514325 
L 246.110456 -94.561607 
L 245.810305 -92.608888 
L 245.510514 -90.65617 
L 245.208573 -88.703452 
L 244.902585 -86.750734 
L 244.591379 -84.798016 
L 244.274559 -82.845297 
L 243.952517 -80.892579 
L 243.626382 -78.939861 
L 243.297944 -76.987143 
L 242.969531 -75.034424 
L 242.643867 -73.081706 
L 242.323917 -71.128988 
L 242.012723 -69.17627 
z
" style="stroke: #000000; stroke-opacity: 0.7"/>
    </defs>
    <g clip-path="url(#ped1a900aff)">
     <use xlink:href="#meae752a549" x="0" y="320.002574" style="fill: #f7b6d2; fill-opacity: 0.7; stroke: #000000; stroke-opacity: 0.7"/>
    </g>
   </g>
   <g id="PolyCollection_5">
    <defs>
     <path id="mfe965524c5" d="M 294.306065 -81.297234 
L 291.982953 -81.297234 
L 291.871743 -82.879537 
L 291.76035 -84.461841 
L 291.649669 -86.044144 
L 291.540383 -87.626448 
L 291.432908 -89.208751 
L 291.327346 -90.791055 
L 291.22345 -92.373359 
L 291.120618 -93.955662 
L 291.017888 -95.537966 
L 290.913977 -97.120269 
L 290.807319 -98.702573 
L 290.696133 -100.284876 
L 290.578494 -101.86718 
L 290.45242 -103.449483 
L 290.315943 -105.031787 
L 290.167181 -106.61409 
L 290.004388 -108.196394 
L 289.825986 -109.778698 
L 289.630566 -111.361001 
L 289.41687 -112.943305 
L 289.183755 -114.525608 
L 288.930146 -116.107912 
L 288.654983 -117.690215 
L 288.357193 -119.272519 
L 288.035677 -120.854822 
L 287.689339 -122.437126 
L 287.317152 -124.019429 
L 286.918273 -125.601733 
L 286.492185 -127.184037 
L 286.038877 -128.76634 
L 285.559022 -130.348644 
L 285.054148 -131.930947 
L 284.52678 -133.513251 
L 283.980526 -135.095554 
L 283.420097 -136.677858 
L 282.85125 -138.260161 
L 282.280656 -139.842465 
L 281.715692 -141.424768 
L 281.164172 -143.007072 
L 280.63404 -144.589376 
L 280.133038 -146.171679 
L 279.668386 -147.753983 
L 279.246479 -149.336286 
L 278.872635 -150.91859 
L 278.550902 -152.500893 
L 278.283936 -154.083197 
L 278.072944 -155.6655 
L 277.917707 -157.247804 
L 277.816658 -158.830107 
L 277.767008 -160.412411 
L 277.764917 -161.994715 
L 277.805682 -163.577018 
L 277.883939 -165.159322 
L 277.993868 -166.741625 
L 278.129392 -168.323929 
L 278.284371 -169.906232 
L 278.45279 -171.488536 
L 278.628944 -173.070839 
L 278.807627 -174.653143 
L 278.984318 -176.235446 
L 279.15537 -177.81775 
L 279.318193 -179.400054 
L 279.471412 -180.982357 
L 279.614993 -182.564661 
L 279.750312 -184.146964 
L 279.880143 -185.729268 
L 280.008558 -187.311571 
L 280.140722 -188.893875 
L 280.282584 -190.476178 
L 280.440487 -192.058482 
L 280.620705 -193.640785 
L 280.828957 -195.223089 
L 281.069936 -196.805393 
L 281.346897 -198.387696 
L 281.661348 -199.97 
L 282.01288 -201.552303 
L 282.399151 -203.134607 
L 282.816039 -204.71691 
L 283.257936 -206.299214 
L 283.718169 -207.881517 
L 284.189495 -209.463821 
L 284.664633 -211.046124 
L 285.136759 -212.628428 
L 285.599945 -214.210732 
L 286.049481 -215.793035 
L 286.482065 -217.375339 
L 286.895853 -218.957642 
L 287.290368 -220.539946 
L 287.666299 -222.122249 
L 288.025212 -223.704553 
L 288.369212 -225.286856 
L 288.700593 -226.86916 
L 289.021526 -228.451463 
L 289.33379 -230.033767 
L 289.638583 -231.616071 
L 289.936426 -233.198374 
L 290.227143 -234.780678 
L 290.509925 -236.362981 
L 290.783451 -237.945285 
L 295.505567 -237.945285 
L 295.505567 -237.945285 
L 295.779093 -236.362981 
L 296.061874 -234.780678 
L 296.352592 -233.198374 
L 296.650435 -231.616071 
L 296.955228 -230.033767 
L 297.267492 -228.451463 
L 297.588425 -226.86916 
L 297.919806 -225.286856 
L 298.263805 -223.704553 
L 298.622719 -222.122249 
L 298.99865 -220.539946 
L 299.393165 -218.957642 
L 299.806952 -217.375339 
L 300.239537 -215.793035 
L 300.689073 -214.210732 
L 301.152259 -212.628428 
L 301.624385 -211.046124 
L 302.099523 -209.463821 
L 302.570849 -207.881517 
L 303.031082 -206.299214 
L 303.472978 -204.71691 
L 303.889866 -203.134607 
L 304.276138 -201.552303 
L 304.62767 -199.97 
L 304.942121 -198.387696 
L 305.219082 -196.805393 
L 305.460061 -195.223089 
L 305.668313 -193.640785 
L 305.84853 -192.058482 
L 306.006434 -190.476178 
L 306.148296 -188.893875 
L 306.28046 -187.311571 
L 306.408875 -185.729268 
L 306.538706 -184.146964 
L 306.674025 -182.564661 
L 306.817606 -180.982357 
L 306.970825 -179.400054 
L 307.133647 -177.81775 
L 307.3047 -176.235446 
L 307.481391 -174.653143 
L 307.660074 -173.070839 
L 307.836228 -171.488536 
L 308.004647 -169.906232 
L 308.159626 -168.323929 
L 308.29515 -166.741625 
L 308.405079 -165.159322 
L 308.483336 -163.577018 
L 308.524101 -161.994715 
L 308.52201 -160.412411 
L 308.47236 -158.830107 
L 308.371311 -157.247804 
L 308.216074 -155.6655 
L 308.005082 -154.083197 
L 307.738116 -152.500893 
L 307.416383 -150.91859 
L 307.042539 -149.336286 
L 306.620632 -147.753983 
L 306.15598 -146.171679 
L 305.654978 -144.589376 
L 305.124846 -143.007072 
L 304.573326 -141.424768 
L 304.008362 -139.842465 
L 303.437768 -138.260161 
L 302.868921 -136.677858 
L 302.308492 -135.095554 
L 301.762238 -133.513251 
L 301.23487 -131.930947 
L 300.729996 -130.348644 
L 300.250141 -128.76634 
L 299.796833 -127.184037 
L 299.370745 -125.601733 
L 298.971866 -124.019429 
L 298.599679 -122.437126 
L 298.253341 -120.854822 
L 297.931825 -119.272519 
L 297.634035 -117.690215 
L 297.358872 -116.107912 
L 297.105262 -114.525608 
L 296.872148 -112.943305 
L 296.658452 -111.361001 
L 296.463032 -109.778698 
L 296.28463 -108.196394 
L 296.121837 -106.61409 
L 295.973075 -105.031787 
L 295.836598 -103.449483 
L 295.710524 -101.86718 
L 295.592885 -100.284876 
L 295.481699 -98.702573 
L 295.375041 -97.120269 
L 295.27113 -95.537966 
L 295.1684 -93.955662 
L 295.065567 -92.373359 
L 294.961672 -90.791055 
L 294.85611 -89.208751 
L 294.748634 -87.626448 
L 294.639348 -86.044144 
L 294.528667 -84.461841 
L 294.417275 -82.879537 
L 294.306065 -81.297234 
z
" style="stroke: #000000; stroke-opacity: 0.7"/>
    </defs>
    <g clip-path="url(#ped1a900aff)">
     <use xlink:href="#mfe965524c5" x="0" y="320.002574" style="fill: #17becf; fill-opacity: 0.7; stroke: #000000; stroke-opacity: 0.7"/>
    </g>
   </g>
   <g id="PolyCollection_6">
    <defs>
     <path id="me2414b07a2" d="M 349.718334 -75.544912 
L 344.227826 -75.544912 
L 343.980863 -77.6045 
L 343.737528 -79.664089 
L 343.500193 -81.723678 
L 343.270697 -83.783266 
L 343.050224 -85.842855 
L 342.839202 -87.902443 
L 342.63724 -89.962032 
L 342.443097 -92.02162 
L 342.254686 -94.081209 
L 342.069124 -96.140797 
L 341.882824 -98.200386 
L 341.691622 -100.259974 
L 341.490951 -102.319563 
L 341.276042 -104.379152 
L 341.04216 -106.43874 
L 340.784847 -108.498329 
L 340.500182 -110.557917 
L 340.185016 -112.617506 
L 339.837191 -114.677094 
L 339.455709 -116.736683 
L 339.040848 -118.796271 
L 338.594216 -120.85586 
L 338.118731 -122.915449 
L 337.618539 -124.975037 
L 337.098872 -127.034626 
L 336.565866 -129.094214 
L 336.026341 -131.153803 
L 335.487589 -133.213391 
L 334.957148 -135.27298 
L 334.442613 -137.332568 
L 333.95146 -139.392157 
L 333.490905 -141.451745 
L 333.067777 -143.511334 
L 332.688407 -145.570923 
L 332.358521 -147.630511 
L 332.08312 -149.6901 
L 331.866351 -151.749688 
L 331.711365 -153.809277 
L 331.620168 -155.868865 
L 331.593489 -157.928454 
L 331.630672 -159.988042 
L 331.729626 -162.047631 
L 331.886842 -164.107219 
L 332.097495 -166.166808 
L 332.35565 -168.226397 
L 332.654538 -170.285985 
L 332.986922 -172.345574 
L 333.34549 -174.405162 
L 333.723275 -176.464751 
L 334.114031 -178.524339 
L 334.512558 -180.583928 
L 334.914914 -182.643516 
L 335.318518 -184.703105 
L 335.722115 -186.762693 
L 336.125615 -188.822282 
L 336.529824 -190.881871 
L 336.93609 -192.941459 
L 337.345919 -195.001048 
L 337.760578 -197.060636 
L 338.180756 -199.120225 
L 338.606295 -201.179813 
L 339.036035 -203.239402 
L 339.467775 -205.29899 
L 339.898362 -207.358579 
L 340.323892 -209.418168 
L 340.739986 -211.477756 
L 341.142135 -213.537345 
L 341.526049 -215.596933 
L 341.887992 -217.656522 
L 342.225053 -219.71611 
L 342.535343 -221.775699 
L 342.818085 -223.835287 
L 343.073606 -225.894876 
L 343.303228 -227.954464 
L 343.509075 -230.014053 
L 343.693834 -232.073642 
L 343.860481 -234.13323 
L 344.012012 -236.192819 
L 344.151209 -238.252407 
L 344.280459 -240.311996 
L 344.401642 -242.371584 
L 344.516089 -244.431173 
L 344.624613 -246.490761 
L 344.727596 -248.55035 
L 344.825119 -250.609938 
L 344.917108 -252.669527 
L 345.003485 -254.729116 
L 345.084291 -256.788704 
L 345.159788 -258.848293 
L 345.230506 -260.907881 
L 345.297253 -262.96747 
L 345.361079 -265.027058 
L 345.423206 -267.086647 
L 345.48493 -269.146235 
L 345.547515 -271.205824 
L 345.612087 -273.265413 
L 345.679534 -275.325001 
L 345.750432 -277.38459 
L 345.825004 -279.444178 
L 348.121156 -279.444178 
L 348.121156 -279.444178 
L 348.195728 -277.38459 
L 348.266627 -275.325001 
L 348.334074 -273.265413 
L 348.398645 -271.205824 
L 348.461231 -269.146235 
L 348.522955 -267.086647 
L 348.585081 -265.027058 
L 348.648908 -262.96747 
L 348.715655 -260.907881 
L 348.786373 -258.848293 
L 348.86187 -256.788704 
L 348.942676 -254.729116 
L 349.029052 -252.669527 
L 349.121042 -250.609938 
L 349.218564 -248.55035 
L 349.321548 -246.490761 
L 349.430071 -244.431173 
L 349.544518 -242.371584 
L 349.665702 -240.311996 
L 349.794952 -238.252407 
L 349.934149 -236.192819 
L 350.085679 -234.13323 
L 350.252326 -232.073642 
L 350.437086 -230.014053 
L 350.642933 -227.954464 
L 350.872554 -225.894876 
L 351.128076 -223.835287 
L 351.410818 -221.775699 
L 351.721108 -219.71611 
L 352.058169 -217.656522 
L 352.420112 -215.596933 
L 352.804026 -213.537345 
L 353.206175 -211.477756 
L 353.622269 -209.418168 
L 354.047798 -207.358579 
L 354.478386 -205.29899 
L 354.910126 -203.239402 
L 355.339866 -201.179813 
L 355.765405 -199.120225 
L 356.185583 -197.060636 
L 356.600242 -195.001048 
L 357.01007 -192.941459 
L 357.416337 -190.881871 
L 357.820545 -188.822282 
L 358.224046 -186.762693 
L 358.627643 -184.703105 
L 359.031247 -182.643516 
L 359.433603 -180.583928 
L 359.832129 -178.524339 
L 360.222886 -176.464751 
L 360.600671 -174.405162 
L 360.959239 -172.345574 
L 361.291623 -170.285985 
L 361.590511 -168.226397 
L 361.848665 -166.166808 
L 362.059319 -164.107219 
L 362.216534 -162.047631 
L 362.315489 -159.988042 
L 362.352672 -157.928454 
L 362.325993 -155.868865 
L 362.234796 -153.809277 
L 362.079809 -151.749688 
L 361.863041 -149.6901 
L 361.58764 -147.630511 
L 361.257754 -145.570923 
L 360.878384 -143.511334 
L 360.455256 -141.451745 
L 359.994701 -139.392157 
L 359.503548 -137.332568 
L 358.989013 -135.27298 
L 358.458572 -133.213391 
L 357.919819 -131.153803 
L 357.380295 -129.094214 
L 356.847288 -127.034626 
L 356.327622 -124.975037 
L 355.82743 -122.915449 
L 355.351945 -120.85586 
L 354.905313 -118.796271 
L 354.490452 -116.736683 
L 354.108969 -114.677094 
L 353.761144 -112.617506 
L 353.445979 -110.557917 
L 353.161314 -108.498329 
L 352.904001 -106.43874 
L 352.670118 -104.379152 
L 352.45521 -102.319563 
L 352.254538 -100.259974 
L 352.063337 -98.200386 
L 351.877036 -96.140797 
L 351.691475 -94.081209 
L 351.503064 -92.02162 
L 351.308921 -89.962032 
L 351.106959 -87.902443 
L 350.895937 -85.842855 
L 350.675463 -83.783266 
L 350.445967 -81.723678 
L 350.208632 -79.664089 
L 349.965298 -77.6045 
L 349.718334 -75.544912 
z
" style="stroke: #000000; stroke-opacity: 0.7"/>
    </defs>
    <g clip-path="url(#ped1a900aff)">
     <use xlink:href="#me2414b07a2" x="0" y="320.002574" style="fill: #ff7f0e; fill-opacity: 0.7; stroke: #000000; stroke-opacity: 0.7"/>
    </g>
   </g>
   <g id="PolyCollection_7">
    <defs>
     <path id="mfc21442044" d="M 401.586522 -81.399954 
L 400.016781 -81.399954 
L 399.989779 -83.000934 
L 399.972754 -84.601914 
L 399.964984 -86.202894 
L 399.965075 -87.803873 
L 399.971074 -89.404853 
L 399.980622 -91.005833 
L 399.991106 -92.606813 
L 399.999816 -94.207793 
L 400.004058 -95.808773 
L 400.001242 -97.409753 
L 399.988922 -99.010733 
L 399.96482 -100.611713 
L 399.92682 -102.212693 
L 399.872969 -103.813673 
L 399.801477 -105.414653 
L 399.710735 -107.015632 
L 399.599335 -108.616612 
L 399.466099 -110.217592 
L 399.3101 -111.818572 
L 399.130667 -113.419552 
L 398.927368 -115.020532 
L 398.699979 -116.621512 
L 398.448427 -118.222492 
L 398.172736 -119.823472 
L 397.872973 -121.424452 
L 397.549215 -123.025432 
L 397.201542 -124.626411 
L 396.830069 -126.227391 
L 396.435012 -127.828371 
L 396.016798 -129.429351 
L 395.576205 -131.030331 
L 395.114514 -132.631311 
L 394.633678 -134.232291 
L 394.136453 -135.833271 
L 393.626484 -137.434251 
L 393.108311 -139.035231 
L 392.587258 -140.636211 
L 392.069204 -142.237191 
L 391.56023 -143.83817 
L 391.066156 -145.43915 
L 390.592045 -147.04013 
L 390.141705 -148.64111 
L 389.717301 -150.24209 
L 389.319141 -151.84307 
L 388.945694 -153.44405 
L 388.593875 -155.04503 
L 388.25958 -156.64601 
L 387.938402 -158.24699 
L 387.62645 -159.84797 
L 387.321124 -161.44895 
L 387.021752 -163.049929 
L 386.729962 -164.650909 
L 386.449751 -166.251889 
L 386.187224 -167.852869 
L 385.950063 -169.453849 
L 385.746803 -171.054829 
L 385.586028 -172.655809 
L 385.475607 -174.256789 
L 385.42206 -175.857769 
L 385.43011 -177.458749 
L 385.502444 -179.059729 
L 385.639653 -180.660708 
L 385.840315 -182.261688 
L 386.101156 -183.862668 
L 386.417248 -185.463648 
L 386.782225 -187.064628 
L 387.188513 -188.665608 
L 387.627605 -190.266588 
L 388.090399 -191.867568 
L 388.567646 -193.468548 
L 389.050475 -195.069528 
L 389.531 -196.670508 
L 390.002911 -198.271488 
L 390.461989 -199.872467 
L 390.906435 -201.473447 
L 391.336948 -203.074427 
L 391.756502 -204.675407 
L 392.169828 -206.276387 
L 392.582652 -207.877367 
L 393.000793 -209.478347 
L 393.429232 -211.079327 
L 393.871296 -212.680307 
L 394.328066 -214.281287 
L 394.798091 -215.882267 
L 395.277434 -217.483247 
L 395.760049 -219.084226 
L 396.238414 -220.685206 
L 396.704322 -222.286186 
L 397.149728 -223.887166 
L 397.567526 -225.488146 
L 397.952173 -227.089126 
L 398.30009 -228.690106 
L 398.609805 -230.291086 
L 398.881864 -231.892066 
L 399.118526 -233.493046 
L 399.323325 -235.094026 
L 399.500555 -236.695005 
L 399.654764 -238.295985 
L 399.790302 -239.896965 
L 401.813001 -239.896965 
L 401.813001 -239.896965 
L 401.94854 -238.295985 
L 402.102748 -236.695005 
L 402.279978 -235.094026 
L 402.484777 -233.493046 
L 402.72144 -231.892066 
L 402.993499 -230.291086 
L 403.303214 -228.690106 
L 403.65113 -227.089126 
L 404.035778 -225.488146 
L 404.453576 -223.887166 
L 404.898982 -222.286186 
L 405.36489 -220.685206 
L 405.843255 -219.084226 
L 406.32587 -217.483247 
L 406.805213 -215.882267 
L 407.275237 -214.281287 
L 407.732008 -212.680307 
L 408.174072 -211.079327 
L 408.60251 -209.478347 
L 409.020651 -207.877367 
L 409.433476 -206.276387 
L 409.846801 -204.675407 
L 410.266356 -203.074427 
L 410.696869 -201.473447 
L 411.141315 -199.872467 
L 411.600393 -198.271488 
L 412.072304 -196.670508 
L 412.552828 -195.069528 
L 413.035658 -193.468548 
L 413.512904 -191.867568 
L 413.975699 -190.266588 
L 414.41479 -188.665608 
L 414.821079 -187.064628 
L 415.186056 -185.463648 
L 415.502147 -183.862668 
L 415.762988 -182.261688 
L 415.963651 -180.660708 
L 416.10086 -179.059729 
L 416.173193 -177.458749 
L 416.181244 -175.857769 
L 416.127697 -174.256789 
L 416.017276 -172.655809 
L 415.856501 -171.054829 
L 415.65324 -169.453849 
L 415.41608 -167.852869 
L 415.153553 -166.251889 
L 414.873342 -164.650909 
L 414.581552 -163.049929 
L 414.28218 -161.44895 
L 413.976854 -159.84797 
L 413.664902 -158.24699 
L 413.343724 -156.64601 
L 413.009428 -155.04503 
L 412.65761 -153.44405 
L 412.284163 -151.84307 
L 411.886003 -150.24209 
L 411.461599 -148.64111 
L 411.011259 -147.04013 
L 410.537147 -145.43915 
L 410.043074 -143.83817 
L 409.534099 -142.237191 
L 409.016046 -140.636211 
L 408.494993 -139.035231 
L 407.976819 -137.434251 
L 407.466851 -135.833271 
L 406.969625 -134.232291 
L 406.488789 -132.631311 
L 406.027099 -131.030331 
L 405.586505 -129.429351 
L 405.168292 -127.828371 
L 404.773235 -126.227391 
L 404.401762 -124.626411 
L 404.054089 -123.025432 
L 403.730331 -121.424452 
L 403.430567 -119.823472 
L 403.154876 -118.222492 
L 402.903324 -116.621512 
L 402.675935 -115.020532 
L 402.472637 -113.419552 
L 402.293204 -111.818572 
L 402.137205 -110.217592 
L 402.003969 -108.616612 
L 401.892568 -107.015632 
L 401.801826 -105.414653 
L 401.730335 -103.813673 
L 401.676484 -102.212693 
L 401.638484 -100.611713 
L 401.614382 -99.010733 
L 401.602062 -97.409753 
L 401.599245 -95.808773 
L 401.603487 -94.207793 
L 401.612197 -92.606813 
L 401.622682 -91.005833 
L 401.632229 -89.404853 
L 401.638229 -87.803873 
L 401.63832 -86.202894 
L 401.63055 -84.601914 
L 401.613525 -83.000934 
L 401.586522 -81.399954 
z
" style="stroke: #000000; stroke-opacity: 0.7"/>
    </defs>
    <g clip-path="url(#ped1a900aff)">
     <use xlink:href="#mfc21442044" x="0" y="320.002574" style="fill: #2ca02c; fill-opacity: 0.7; stroke: #000000; stroke-opacity: 0.7"/>
    </g>
   </g>
   <g id="matplotlib.axis_1">
    <g id="xtick_1">
     <g id="line2d_1">
      <defs>
       <path id="m5404b2241a" d="M 0 0 
L 0 3.5 
" style="stroke: #000000; stroke-width: 0.8"/>
      </defs>
      <g>
       <use xlink:href="#m5404b2241a" x="77.830223" y="261.339699" style="stroke: #000000; stroke-width: 0.8"/>
      </g>
     </g>
     <g id="text_1">
      <!-- Mapleton -->
      <g transform="translate(43.494002 306.752833) rotate(-45) scale(0.12 -0.12)">
       <defs>
        <path id="TimesNewRomanPSMT-4d" d="M 2619 0 
L 981 3566 
L 981 734 
Q 981 344 1066 247 
Q 1181 116 1431 116 
L 1581 116 
L 1581 0 
L 106 0 
L 106 116 
L 256 116 
Q 525 116 638 278 
Q 706 378 706 734 
L 706 3503 
Q 706 3784 644 3909 
Q 600 4000 483 4061 
Q 366 4122 106 4122 
L 106 4238 
L 1306 4238 
L 2844 922 
L 4356 4238 
L 5556 4238 
L 5556 4122 
L 5409 4122 
Q 5138 4122 5025 3959 
Q 4956 3859 4956 3503 
L 4956 734 
Q 4956 344 5044 247 
Q 5159 116 5409 116 
L 5556 116 
L 5556 0 
L 3756 0 
L 3756 116 
L 3906 116 
Q 4178 116 4288 278 
Q 4356 378 4356 734 
L 4356 3566 
L 2722 0 
L 2619 0 
z
" transform="scale(0.015625)"/>
        <path id="TimesNewRomanPSMT-61" d="M 1822 413 
Q 1381 72 1269 19 
Q 1100 -59 909 -59 
Q 613 -59 420 144 
Q 228 347 228 678 
Q 228 888 322 1041 
Q 450 1253 767 1440 
Q 1084 1628 1822 1897 
L 1822 2009 
Q 1822 2438 1686 2597 
Q 1550 2756 1291 2756 
Q 1094 2756 978 2650 
Q 859 2544 859 2406 
L 866 2225 
Q 866 2081 792 2003 
Q 719 1925 600 1925 
Q 484 1925 411 2006 
Q 338 2088 338 2228 
Q 338 2497 613 2722 
Q 888 2947 1384 2947 
Q 1766 2947 2009 2819 
Q 2194 2722 2281 2516 
Q 2338 2381 2338 1966 
L 2338 994 
Q 2338 584 2353 492 
Q 2369 400 2405 369 
Q 2441 338 2488 338 
Q 2538 338 2575 359 
Q 2641 400 2828 588 
L 2828 413 
Q 2478 -56 2159 -56 
Q 2006 -56 1915 50 
Q 1825 156 1822 413 
z
M 1822 616 
L 1822 1706 
Q 1350 1519 1213 1441 
Q 966 1303 859 1153 
Q 753 1003 753 825 
Q 753 600 887 451 
Q 1022 303 1197 303 
Q 1434 303 1822 616 
z
" transform="scale(0.015625)"/>
        <path id="TimesNewRomanPSMT-70" d="M -6 2578 
L 875 2934 
L 994 2934 
L 994 2266 
Q 1216 2644 1439 2795 
Q 1663 2947 1909 2947 
Q 2341 2947 2628 2609 
Q 2981 2197 2981 1534 
Q 2981 794 2556 309 
Q 2206 -88 1675 -88 
Q 1444 -88 1275 -22 
Q 1150 25 994 166 
L 994 -706 
Q 994 -1000 1030 -1079 
Q 1066 -1159 1155 -1206 
Q 1244 -1253 1478 -1253 
L 1478 -1369 
L -22 -1369 
L -22 -1253 
L 56 -1253 
Q 228 -1256 350 -1188 
Q 409 -1153 442 -1076 
Q 475 -1000 475 -688 
L 475 2019 
Q 475 2297 450 2372 
Q 425 2447 370 2484 
Q 316 2522 222 2522 
Q 147 2522 31 2478 
L -6 2578 
z
M 994 2081 
L 994 1013 
Q 994 666 1022 556 
Q 1066 375 1236 237 
Q 1406 100 1666 100 
Q 1978 100 2172 344 
Q 2425 663 2425 1241 
Q 2425 1897 2138 2250 
Q 1938 2494 1663 2494 
Q 1513 2494 1366 2419 
Q 1253 2363 994 2081 
z
" transform="scale(0.015625)"/>
        <path id="TimesNewRomanPSMT-6c" d="M 1184 4444 
L 1184 647 
Q 1184 378 1223 290 
Q 1263 203 1344 158 
Q 1425 113 1647 113 
L 1647 0 
L 244 0 
L 244 113 
Q 441 113 512 153 
Q 584 194 625 287 
Q 666 381 666 647 
L 666 3247 
Q 666 3731 644 3842 
Q 622 3953 573 3993 
Q 525 4034 450 4034 
Q 369 4034 244 3984 
L 191 4094 
L 1044 4444 
L 1184 4444 
z
" transform="scale(0.015625)"/>
        <path id="TimesNewRomanPSMT-65" d="M 681 1784 
Q 678 1147 991 784 
Q 1303 422 1725 422 
Q 2006 422 2214 576 
Q 2422 731 2563 1106 
L 2659 1044 
Q 2594 616 2278 264 
Q 1963 -88 1488 -88 
Q 972 -88 605 314 
Q 238 716 238 1394 
Q 238 2128 614 2539 
Q 991 2950 1559 2950 
Q 2041 2950 2350 2633 
Q 2659 2316 2659 1784 
L 681 1784 
z
M 681 1966 
L 2006 1966 
Q 1991 2241 1941 2353 
Q 1863 2528 1708 2628 
Q 1553 2728 1384 2728 
Q 1125 2728 920 2526 
Q 716 2325 681 1966 
z
" transform="scale(0.015625)"/>
        <path id="TimesNewRomanPSMT-74" d="M 1031 3803 
L 1031 2863 
L 1700 2863 
L 1700 2644 
L 1031 2644 
L 1031 788 
Q 1031 509 1111 412 
Q 1191 316 1316 316 
Q 1419 316 1516 380 
Q 1613 444 1666 569 
L 1788 569 
Q 1678 263 1478 108 
Q 1278 -47 1066 -47 
Q 922 -47 784 33 
Q 647 113 581 261 
Q 516 409 516 719 
L 516 2644 
L 63 2644 
L 63 2747 
Q 234 2816 414 2980 
Q 594 3144 734 3369 
Q 806 3488 934 3803 
L 1031 3803 
z
" transform="scale(0.015625)"/>
        <path id="TimesNewRomanPSMT-6f" d="M 1600 2947 
Q 2250 2947 2644 2453 
Q 2978 2031 2978 1484 
Q 2978 1100 2793 706 
Q 2609 313 2286 112 
Q 1963 -88 1566 -88 
Q 919 -88 538 428 
Q 216 863 216 1403 
Q 216 1797 411 2186 
Q 606 2575 925 2761 
Q 1244 2947 1600 2947 
z
M 1503 2744 
Q 1338 2744 1170 2645 
Q 1003 2547 900 2300 
Q 797 2053 797 1666 
Q 797 1041 1045 587 
Q 1294 134 1700 134 
Q 2003 134 2200 384 
Q 2397 634 2397 1244 
Q 2397 2006 2069 2444 
Q 1847 2744 1503 2744 
z
" transform="scale(0.015625)"/>
        <path id="TimesNewRomanPSMT-6e" d="M 1034 2341 
Q 1538 2947 1994 2947 
Q 2228 2947 2397 2830 
Q 2566 2713 2666 2444 
Q 2734 2256 2734 1869 
L 2734 647 
Q 2734 375 2778 278 
Q 2813 200 2889 156 
Q 2966 113 3172 113 
L 3172 0 
L 1756 0 
L 1756 113 
L 1816 113 
Q 2016 113 2095 173 
Q 2175 234 2206 353 
Q 2219 400 2219 647 
L 2219 1819 
Q 2219 2209 2117 2386 
Q 2016 2563 1775 2563 
Q 1403 2563 1034 2156 
L 1034 647 
Q 1034 356 1069 288 
Q 1113 197 1189 155 
Q 1266 113 1500 113 
L 1500 0 
L 84 0 
L 84 113 
L 147 113 
Q 366 113 442 223 
Q 519 334 519 647 
L 519 1709 
Q 519 2225 495 2337 
Q 472 2450 423 2490 
Q 375 2531 294 2531 
Q 206 2531 84 2484 
L 38 2597 
L 900 2947 
L 1034 2947 
L 1034 2341 
z
" transform="scale(0.015625)"/>
       </defs>
       <use xlink:href="#TimesNewRomanPSMT-4d"/>
       <use xlink:href="#TimesNewRomanPSMT-61" x="88.916016"/>
       <use xlink:href="#TimesNewRomanPSMT-70" x="133.300781"/>
       <use xlink:href="#TimesNewRomanPSMT-6c" x="183.300781"/>
       <use xlink:href="#TimesNewRomanPSMT-65" x="211.083984"/>
       <use xlink:href="#TimesNewRomanPSMT-74" x="255.46875"/>
       <use xlink:href="#TimesNewRomanPSMT-6f" x="283.251953"/>
       <use xlink:href="#TimesNewRomanPSMT-6e" x="333.251953"/>
      </g>
     </g>
    </g>
    <g id="xtick_2">
     <g id="line2d_2">
      <g>
       <use xlink:href="#m5404b2241a" x="131.658795" y="261.339699" style="stroke: #000000; stroke-width: 0.8"/>
      </g>
     </g>
     <g id="text_2">
      <!-- Glenhaven -->
      <g transform="translate(93.087887 310.987519) rotate(-45) scale(0.12 -0.12)">
       <defs>
        <path id="TimesNewRomanPSMT-47" d="M 3928 4334 
L 4038 2997 
L 3928 2997 
Q 3763 3497 3500 3750 
Q 3122 4116 2528 4116 
Q 1719 4116 1297 3475 
Q 944 2934 944 2188 
Q 944 1581 1178 1081 
Q 1413 581 1792 348 
Q 2172 116 2572 116 
Q 2806 116 3025 175 
Q 3244 234 3447 350 
L 3447 1575 
Q 3447 1894 3398 1992 
Q 3350 2091 3248 2142 
Q 3147 2194 2891 2194 
L 2891 2313 
L 4531 2313 
L 4531 2194 
L 4453 2194 
Q 4209 2194 4119 2031 
Q 4056 1916 4056 1575 
L 4056 278 
Q 3697 84 3347 -6 
Q 2997 -97 2569 -97 
Q 1341 -97 703 691 
Q 225 1281 225 2053 
Q 225 2613 494 3125 
Q 813 3734 1369 4063 
Q 1834 4334 2469 4334 
Q 2700 4334 2889 4296 
Q 3078 4259 3425 4131 
Q 3600 4066 3659 4066 
Q 3719 4066 3761 4120 
Q 3803 4175 3813 4334 
L 3928 4334 
z
" transform="scale(0.015625)"/>
        <path id="TimesNewRomanPSMT-68" d="M 1041 4444 
L 1041 2350 
Q 1388 2731 1591 2839 
Q 1794 2947 1997 2947 
Q 2241 2947 2416 2812 
Q 2591 2678 2675 2391 
Q 2734 2191 2734 1659 
L 2734 647 
Q 2734 375 2778 275 
Q 2809 200 2884 156 
Q 2959 113 3159 113 
L 3159 0 
L 1753 0 
L 1753 113 
L 1819 113 
Q 2019 113 2097 173 
Q 2175 234 2206 353 
Q 2216 403 2216 647 
L 2216 1659 
Q 2216 2128 2167 2275 
Q 2119 2422 2012 2495 
Q 1906 2569 1756 2569 
Q 1603 2569 1437 2487 
Q 1272 2406 1041 2159 
L 1041 647 
Q 1041 353 1073 281 
Q 1106 209 1195 161 
Q 1284 113 1503 113 
L 1503 0 
L 84 0 
L 84 113 
Q 275 113 384 172 
Q 447 203 484 290 
Q 522 378 522 647 
L 522 3238 
Q 522 3728 498 3840 
Q 475 3953 426 3993 
Q 378 4034 297 4034 
Q 231 4034 84 3984 
L 41 4094 
L 897 4444 
L 1041 4444 
z
" transform="scale(0.015625)"/>
        <path id="TimesNewRomanPSMT-76" d="M 53 2863 
L 1400 2863 
L 1400 2747 
L 1313 2747 
Q 1191 2747 1127 2687 
Q 1063 2628 1063 2528 
Q 1063 2419 1128 2269 
L 1794 688 
L 2463 2328 
Q 2534 2503 2534 2594 
Q 2534 2638 2509 2666 
Q 2475 2713 2422 2730 
Q 2369 2747 2206 2747 
L 2206 2863 
L 3141 2863 
L 3141 2747 
Q 2978 2734 2916 2681 
Q 2806 2588 2719 2369 
L 1703 -88 
L 1575 -88 
L 553 2328 
Q 484 2497 421 2570 
Q 359 2644 263 2694 
Q 209 2722 53 2747 
L 53 2863 
z
" transform="scale(0.015625)"/>
       </defs>
       <use xlink:href="#TimesNewRomanPSMT-47"/>
       <use xlink:href="#TimesNewRomanPSMT-6c" x="72.216797"/>
       <use xlink:href="#TimesNewRomanPSMT-65" x="100"/>
       <use xlink:href="#TimesNewRomanPSMT-6e" x="144.384766"/>
       <use xlink:href="#TimesNewRomanPSMT-68" x="194.384766"/>
       <use xlink:href="#TimesNewRomanPSMT-61" x="244.384766"/>
       <use xlink:href="#TimesNewRomanPSMT-76" x="288.769531"/>
       <use xlink:href="#TimesNewRomanPSMT-65" x="338.769531"/>
       <use xlink:href="#TimesNewRomanPSMT-6e" x="383.154297"/>
      </g>
     </g>
    </g>
    <g id="xtick_3">
     <g id="line2d_3">
      <g>
       <use xlink:href="#m5404b2241a" x="185.487366" y="261.339699" style="stroke: #000000; stroke-width: 0.8"/>
      </g>
     </g>
     <g id="text_3">
      <!-- Ashford -->
      <g transform="translate(155.863127 302.04085) rotate(-45) scale(0.12 -0.12)">
       <defs>
        <path id="TimesNewRomanPSMT-41" d="M 2928 1419 
L 1288 1419 
L 1000 750 
Q 894 503 894 381 
Q 894 284 986 211 
Q 1078 138 1384 116 
L 1384 0 
L 50 0 
L 50 116 
Q 316 163 394 238 
Q 553 388 747 847 
L 2238 4334 
L 2347 4334 
L 3822 809 
Q 4000 384 4145 257 
Q 4291 131 4550 116 
L 4550 0 
L 2878 0 
L 2878 116 
Q 3131 128 3220 200 
Q 3309 272 3309 375 
Q 3309 513 3184 809 
L 2928 1419 
z
M 2841 1650 
L 2122 3363 
L 1384 1650 
L 2841 1650 
z
" transform="scale(0.015625)"/>
        <path id="TimesNewRomanPSMT-73" d="M 2050 2947 
L 2050 1972 
L 1947 1972 
Q 1828 2431 1642 2597 
Q 1456 2763 1169 2763 
Q 950 2763 815 2647 
Q 681 2531 681 2391 
Q 681 2216 781 2091 
Q 878 1963 1175 1819 
L 1631 1597 
Q 2266 1288 2266 781 
Q 2266 391 1970 151 
Q 1675 -88 1309 -88 
Q 1047 -88 709 6 
Q 606 38 541 38 
Q 469 38 428 -44 
L 325 -44 
L 325 978 
L 428 978 
Q 516 541 762 319 
Q 1009 97 1316 97 
Q 1531 97 1667 223 
Q 1803 350 1803 528 
Q 1803 744 1651 891 
Q 1500 1038 1047 1263 
Q 594 1488 453 1669 
Q 313 1847 313 2119 
Q 313 2472 555 2709 
Q 797 2947 1181 2947 
Q 1350 2947 1591 2875 
Q 1750 2828 1803 2828 
Q 1853 2828 1881 2850 
Q 1909 2872 1947 2947 
L 2050 2947 
z
" transform="scale(0.015625)"/>
        <path id="TimesNewRomanPSMT-66" d="M 1319 2638 
L 1319 756 
Q 1319 356 1406 250 
Q 1522 113 1716 113 
L 1975 113 
L 1975 0 
L 266 0 
L 266 113 
L 394 113 
Q 519 113 622 175 
Q 725 238 764 344 
Q 803 450 803 756 
L 803 2638 
L 247 2638 
L 247 2863 
L 803 2863 
L 803 3050 
Q 803 3478 940 3775 
Q 1078 4072 1361 4255 
Q 1644 4438 1997 4438 
Q 2325 4438 2600 4225 
Q 2781 4084 2781 3909 
Q 2781 3816 2700 3733 
Q 2619 3650 2525 3650 
Q 2453 3650 2373 3701 
Q 2294 3753 2178 3923 
Q 2063 4094 1966 4153 
Q 1869 4213 1750 4213 
Q 1606 4213 1506 4136 
Q 1406 4059 1362 3898 
Q 1319 3738 1319 3069 
L 1319 2863 
L 2056 2863 
L 2056 2638 
L 1319 2638 
z
" transform="scale(0.015625)"/>
        <path id="TimesNewRomanPSMT-72" d="M 1038 2947 
L 1038 2303 
Q 1397 2947 1775 2947 
Q 1947 2947 2059 2842 
Q 2172 2738 2172 2600 
Q 2172 2478 2090 2393 
Q 2009 2309 1897 2309 
Q 1788 2309 1652 2417 
Q 1516 2525 1450 2525 
Q 1394 2525 1328 2463 
Q 1188 2334 1038 2041 
L 1038 669 
Q 1038 431 1097 309 
Q 1138 225 1241 169 
Q 1344 113 1538 113 
L 1538 0 
L 72 0 
L 72 113 
Q 291 113 397 181 
Q 475 231 506 341 
Q 522 394 522 644 
L 522 1753 
Q 522 2253 501 2348 
Q 481 2444 426 2487 
Q 372 2531 291 2531 
Q 194 2531 72 2484 
L 41 2597 
L 906 2947 
L 1038 2947 
z
" transform="scale(0.015625)"/>
        <path id="TimesNewRomanPSMT-64" d="M 2222 322 
Q 2013 103 1813 7 
Q 1613 -88 1381 -88 
Q 913 -88 563 304 
Q 213 697 213 1313 
Q 213 1928 600 2439 
Q 988 2950 1597 2950 
Q 1975 2950 2222 2709 
L 2222 3238 
Q 2222 3728 2198 3840 
Q 2175 3953 2125 3993 
Q 2075 4034 2000 4034 
Q 1919 4034 1784 3984 
L 1744 4094 
L 2597 4444 
L 2738 4444 
L 2738 1134 
Q 2738 631 2761 520 
Q 2784 409 2836 365 
Q 2888 322 2956 322 
Q 3041 322 3181 375 
L 3216 266 
L 2366 -88 
L 2222 -88 
L 2222 322 
z
M 2222 541 
L 2222 2016 
Q 2203 2228 2109 2403 
Q 2016 2578 1861 2667 
Q 1706 2756 1559 2756 
Q 1284 2756 1069 2509 
Q 784 2184 784 1559 
Q 784 928 1059 592 
Q 1334 256 1672 256 
Q 1956 256 2222 541 
z
" transform="scale(0.015625)"/>
       </defs>
       <use xlink:href="#TimesNewRomanPSMT-41"/>
       <use xlink:href="#TimesNewRomanPSMT-73" x="72.216797"/>
       <use xlink:href="#TimesNewRomanPSMT-68" x="111.132812"/>
       <use xlink:href="#TimesNewRomanPSMT-66" x="161.132812"/>
       <use xlink:href="#TimesNewRomanPSMT-6f" x="194.433594"/>
       <use xlink:href="#TimesNewRomanPSMT-72" x="244.433594"/>
       <use xlink:href="#TimesNewRomanPSMT-64" x="277.734375"/>
      </g>
     </g>
    </g>
    <g id="xtick_4">
     <g id="line2d_4">
      <g>
       <use xlink:href="#m5404b2241a" x="239.315937" y="261.339699" style="stroke: #000000; stroke-width: 0.8"/>
      </g>
     </g>
     <g id="text_4">
      <!-- Yorkton -->
      <g transform="translate(210.068233 301.664316) rotate(-45) scale(0.12 -0.12)">
       <defs>
        <path id="TimesNewRomanPSMT-59" d="M 3050 4238 
L 4528 4238 
L 4528 4122 
L 4447 4122 
Q 4366 4122 4209 4050 
Q 4053 3978 3925 3843 
Q 3797 3709 3609 3406 
L 2588 1797 
L 2588 734 
Q 2588 344 2675 247 
Q 2794 116 3050 116 
L 3188 116 
L 3188 0 
L 1388 0 
L 1388 116 
L 1538 116 
Q 1806 116 1919 278 
Q 1988 378 1988 734 
L 1988 1738 
L 825 3513 
Q 619 3825 545 3903 
Q 472 3981 241 4091 
Q 178 4122 59 4122 
L 59 4238 
L 1872 4238 
L 1872 4122 
L 1778 4122 
Q 1631 4122 1507 4053 
Q 1384 3984 1384 3847 
Q 1384 3734 1575 3441 
L 2459 2075 
L 3291 3381 
Q 3478 3675 3478 3819 
Q 3478 3906 3433 3975 
Q 3388 4044 3303 4083 
Q 3219 4122 3050 4122 
L 3050 4238 
z
" transform="scale(0.015625)"/>
        <path id="TimesNewRomanPSMT-6b" d="M 1047 4444 
L 1047 1597 
L 1775 2259 
Q 2006 2472 2044 2528 
Q 2069 2566 2069 2603 
Q 2069 2666 2017 2711 
Q 1966 2756 1847 2763 
L 1847 2863 
L 3091 2863 
L 3091 2763 
Q 2834 2756 2664 2684 
Q 2494 2613 2291 2428 
L 1556 1750 
L 2291 822 
Q 2597 438 2703 334 
Q 2853 188 2966 144 
Q 3044 113 3238 113 
L 3238 0 
L 1847 0 
L 1847 113 
Q 1966 116 2008 148 
Q 2050 181 2050 241 
Q 2050 313 1925 472 
L 1047 1594 
L 1047 644 
Q 1047 366 1086 278 
Q 1125 191 1197 153 
Q 1269 116 1509 113 
L 1509 0 
L 53 0 
L 53 113 
Q 272 113 381 166 
Q 447 200 481 272 
Q 528 375 528 628 
L 528 3234 
Q 528 3731 506 3842 
Q 484 3953 434 3995 
Q 384 4038 303 4038 
Q 238 4038 106 3984 
L 53 4094 
L 903 4444 
L 1047 4444 
z
" transform="scale(0.015625)"/>
       </defs>
       <use xlink:href="#TimesNewRomanPSMT-59"/>
       <use xlink:href="#TimesNewRomanPSMT-6f" x="62.216797"/>
       <use xlink:href="#TimesNewRomanPSMT-72" x="112.216797"/>
       <use xlink:href="#TimesNewRomanPSMT-6b" x="145.517578"/>
       <use xlink:href="#TimesNewRomanPSMT-74" x="195.517578"/>
       <use xlink:href="#TimesNewRomanPSMT-6f" x="223.300781"/>
       <use xlink:href="#TimesNewRomanPSMT-6e" x="273.300781"/>
      </g>
     </g>
    </g>
    <g id="xtick_5">
     <g id="line2d_5">
      <g>
       <use xlink:href="#m5404b2241a" x="293.144509" y="261.339699" style="stroke: #000000; stroke-width: 0.8"/>
      </g>
     </g>
     <g id="text_5">
      <!-- Rosewood -->
      <g transform="translate(255.501679 310.059441) rotate(-45) scale(0.12 -0.12)">
       <defs>
        <path id="TimesNewRomanPSMT-52" d="M 4325 0 
L 3194 0 
L 1759 1981 
Q 1600 1975 1500 1975 
Q 1459 1975 1412 1976 
Q 1366 1978 1316 1981 
L 1316 750 
Q 1316 350 1403 253 
Q 1522 116 1759 116 
L 1925 116 
L 1925 0 
L 109 0 
L 109 116 
L 269 116 
Q 538 116 653 291 
Q 719 388 719 750 
L 719 3488 
Q 719 3888 631 3984 
Q 509 4122 269 4122 
L 109 4122 
L 109 4238 
L 1653 4238 
Q 2328 4238 2648 4139 
Q 2969 4041 3192 3777 
Q 3416 3513 3416 3147 
Q 3416 2756 3161 2468 
Q 2906 2181 2372 2063 
L 3247 847 
Q 3547 428 3762 290 
Q 3978 153 4325 116 
L 4325 0 
z
M 1316 2178 
Q 1375 2178 1419 2176 
Q 1463 2175 1491 2175 
Q 2097 2175 2405 2437 
Q 2713 2700 2713 3106 
Q 2713 3503 2464 3751 
Q 2216 4000 1806 4000 
Q 1625 4000 1316 3941 
L 1316 2178 
z
" transform="scale(0.015625)"/>
        <path id="TimesNewRomanPSMT-77" d="M 41 2863 
L 1241 2863 
L 1241 2747 
Q 1075 2734 1023 2687 
Q 972 2641 972 2553 
Q 972 2456 1025 2319 
L 1638 672 
L 2253 2013 
L 2091 2434 
Q 2016 2622 1894 2694 
Q 1825 2738 1638 2747 
L 1638 2863 
L 3000 2863 
L 3000 2747 
Q 2775 2738 2681 2666 
Q 2619 2616 2619 2506 
Q 2619 2444 2644 2378 
L 3294 734 
L 3897 2319 
Q 3959 2488 3959 2588 
Q 3959 2647 3898 2694 
Q 3838 2741 3659 2747 
L 3659 2863 
L 4563 2863 
L 4563 2747 
Q 4291 2706 4163 2378 
L 3206 -88 
L 3078 -88 
L 2363 1741 
L 1528 -88 
L 1413 -88 
L 494 2319 
Q 403 2547 315 2626 
Q 228 2706 41 2747 
L 41 2863 
z
" transform="scale(0.015625)"/>
       </defs>
       <use xlink:href="#TimesNewRomanPSMT-52"/>
       <use xlink:href="#TimesNewRomanPSMT-6f" x="66.699219"/>
       <use xlink:href="#TimesNewRomanPSMT-73" x="116.699219"/>
       <use xlink:href="#TimesNewRomanPSMT-65" x="155.615234"/>
       <use xlink:href="#TimesNewRomanPSMT-77" x="200"/>
       <use xlink:href="#TimesNewRomanPSMT-6f" x="272.216797"/>
       <use xlink:href="#TimesNewRomanPSMT-6f" x="322.216797"/>
       <use xlink:href="#TimesNewRomanPSMT-64" x="372.216797"/>
      </g>
     </g>
    </g>
    <g id="xtick_6">
     <g id="line2d_6">
      <g>
       <use xlink:href="#m5404b2241a" x="346.97308" y="261.339699" style="stroke: #000000; stroke-width: 0.8"/>
      </g>
     </g>
     <g id="text_6">
      <!-- Zephyr -->
      <g transform="translate(320.63954 298.734242) rotate(-45) scale(0.12 -0.12)">
       <defs>
        <path id="TimesNewRomanPSMT-5a" d="M 3681 4238 
L 897 256 
L 2634 256 
Q 3034 256 3248 431 
Q 3463 606 3628 1141 
L 3731 1122 
L 3531 0 
L 81 0 
L 81 116 
L 2800 3984 
L 1444 3984 
Q 1106 3984 954 3911 
Q 803 3838 723 3698 
Q 644 3559 578 3178 
L 459 3178 
L 547 4238 
L 3681 4238 
z
" transform="scale(0.015625)"/>
        <path id="TimesNewRomanPSMT-79" d="M 38 2863 
L 1372 2863 
L 1372 2747 
L 1306 2747 
Q 1166 2747 1095 2686 
Q 1025 2625 1025 2534 
Q 1025 2413 1128 2197 
L 1825 753 
L 2466 2334 
Q 2519 2463 2519 2588 
Q 2519 2644 2497 2672 
Q 2472 2706 2419 2726 
Q 2366 2747 2231 2747 
L 2231 2863 
L 3163 2863 
L 3163 2747 
Q 3047 2734 2984 2696 
Q 2922 2659 2847 2556 
Q 2819 2513 2741 2316 
L 1575 -541 
Q 1406 -956 1132 -1168 
Q 859 -1381 606 -1381 
Q 422 -1381 303 -1275 
Q 184 -1169 184 -1031 
Q 184 -900 270 -820 
Q 356 -741 506 -741 
Q 609 -741 788 -809 
Q 913 -856 944 -856 
Q 1038 -856 1148 -759 
Q 1259 -663 1372 -384 
L 1575 113 
L 547 2272 
Q 500 2369 397 2513 
Q 319 2622 269 2659 
Q 197 2709 38 2747 
L 38 2863 
z
" transform="scale(0.015625)"/>
       </defs>
       <use xlink:href="#TimesNewRomanPSMT-5a"/>
       <use xlink:href="#TimesNewRomanPSMT-65" x="61.083984"/>
       <use xlink:href="#TimesNewRomanPSMT-70" x="105.46875"/>
       <use xlink:href="#TimesNewRomanPSMT-68" x="155.46875"/>
       <use xlink:href="#TimesNewRomanPSMT-79" x="205.46875"/>
       <use xlink:href="#TimesNewRomanPSMT-72" x="255.46875"/>
      </g>
     </g>
    </g>
    <g id="xtick_7">
     <g id="line2d_7">
      <g>
       <use xlink:href="#m5404b2241a" x="400.801652" y="261.339699" style="stroke: #000000; stroke-width: 0.8"/>
      </g>
     </g>
     <g id="text_7">
      <!-- Oakridge -->
      <g transform="translate(367.398811 305.803542) rotate(-45) scale(0.12 -0.12)">
       <defs>
        <path id="TimesNewRomanPSMT-4f" d="M 2341 4334 
Q 3166 4334 3770 3707 
Q 4375 3081 4375 2144 
Q 4375 1178 3765 540 
Q 3156 -97 2291 -97 
Q 1416 -97 820 525 
Q 225 1147 225 2134 
Q 225 3144 913 3781 
Q 1509 4334 2341 4334 
z
M 2281 4106 
Q 1713 4106 1369 3684 
Q 941 3159 941 2147 
Q 941 1109 1384 550 
Q 1725 125 2284 125 
Q 2881 125 3270 590 
Q 3659 1056 3659 2059 
Q 3659 3147 3231 3681 
Q 2888 4106 2281 4106 
z
" transform="scale(0.015625)"/>
        <path id="TimesNewRomanPSMT-69" d="M 928 4444 
Q 1059 4444 1151 4351 
Q 1244 4259 1244 4128 
Q 1244 3997 1151 3903 
Q 1059 3809 928 3809 
Q 797 3809 703 3903 
Q 609 3997 609 4128 
Q 609 4259 701 4351 
Q 794 4444 928 4444 
z
M 1188 2947 
L 1188 647 
Q 1188 378 1227 289 
Q 1266 200 1342 156 
Q 1419 113 1622 113 
L 1622 0 
L 231 0 
L 231 113 
Q 441 113 512 153 
Q 584 194 626 287 
Q 669 381 669 647 
L 669 1750 
Q 669 2216 641 2353 
Q 619 2453 572 2492 
Q 525 2531 444 2531 
Q 356 2531 231 2484 
L 188 2597 
L 1050 2947 
L 1188 2947 
z
" transform="scale(0.015625)"/>
        <path id="TimesNewRomanPSMT-67" d="M 966 1044 
Q 703 1172 562 1401 
Q 422 1631 422 1909 
Q 422 2334 742 2640 
Q 1063 2947 1563 2947 
Q 1972 2947 2272 2747 
L 2878 2747 
Q 3013 2747 3034 2739 
Q 3056 2731 3066 2713 
Q 3084 2684 3084 2613 
Q 3084 2531 3069 2500 
Q 3059 2484 3036 2475 
Q 3013 2466 2878 2466 
L 2506 2466 
Q 2681 2241 2681 1891 
Q 2681 1491 2375 1206 
Q 2069 922 1553 922 
Q 1341 922 1119 984 
Q 981 866 932 777 
Q 884 688 884 625 
Q 884 572 936 522 
Q 988 472 1138 450 
Q 1225 438 1575 428 
Q 2219 413 2409 384 
Q 2700 344 2873 169 
Q 3047 -6 3047 -263 
Q 3047 -616 2716 -925 
Q 2228 -1381 1444 -1381 
Q 841 -1381 425 -1109 
Q 191 -953 191 -784 
Q 191 -709 225 -634 
Q 278 -519 444 -313 
Q 466 -284 763 25 
Q 600 122 533 198 
Q 466 275 466 372 
Q 466 481 555 628 
Q 644 775 966 1044 
z
M 1509 2797 
Q 1278 2797 1122 2612 
Q 966 2428 966 2047 
Q 966 1553 1178 1281 
Q 1341 1075 1591 1075 
Q 1828 1075 1981 1253 
Q 2134 1431 2134 1813 
Q 2134 2309 1919 2591 
Q 1759 2797 1509 2797 
z
M 934 0 
Q 788 -159 713 -296 
Q 638 -434 638 -550 
Q 638 -700 819 -813 
Q 1131 -1006 1722 -1006 
Q 2284 -1006 2551 -807 
Q 2819 -609 2819 -384 
Q 2819 -222 2659 -153 
Q 2497 -84 2016 -72 
Q 1313 -53 934 0 
z
" transform="scale(0.015625)"/>
       </defs>
       <use xlink:href="#TimesNewRomanPSMT-4f"/>
       <use xlink:href="#TimesNewRomanPSMT-61" x="72.216797"/>
       <use xlink:href="#TimesNewRomanPSMT-6b" x="116.601562"/>
       <use xlink:href="#TimesNewRomanPSMT-72" x="166.601562"/>
       <use xlink:href="#TimesNewRomanPSMT-69" x="199.902344"/>
       <use xlink:href="#TimesNewRomanPSMT-64" x="227.685547"/>
       <use xlink:href="#TimesNewRomanPSMT-67" x="277.685547"/>
       <use xlink:href="#TimesNewRomanPSMT-65" x="327.685547"/>
      </g>
     </g>
    </g>
   </g>
   <g id="matplotlib.axis_2">
    <g id="ytick_1">
     <g id="line2d_8">
      <defs>
       <path id="m7057380db9" d="M 0 0 
L -3.5 0 
" style="stroke: #000000; stroke-width: 0.8"/>
      </defs>
      <g>
       <use xlink:href="#m7057380db9" x="50.915938" y="254.216065" style="stroke: #000000; stroke-width: 0.8"/>
      </g>
     </g>
     <g id="text_8">
      <!-- 0 -->
      <g transform="translate(38.915938 257.68794) scale(0.1 -0.1)">
       <defs>
        <path id="TimesNewRomanPSMT-30" d="M 231 2094 
Q 231 2819 450 3342 
Q 669 3866 1031 4122 
Q 1313 4325 1613 4325 
Q 2100 4325 2488 3828 
Q 2972 3213 2972 2159 
Q 2972 1422 2759 906 
Q 2547 391 2217 158 
Q 1888 -75 1581 -75 
Q 975 -75 572 641 
Q 231 1244 231 2094 
z
M 844 2016 
Q 844 1141 1059 588 
Q 1238 122 1591 122 
Q 1759 122 1940 273 
Q 2122 425 2216 781 
Q 2359 1319 2359 2297 
Q 2359 3022 2209 3506 
Q 2097 3866 1919 4016 
Q 1791 4119 1609 4119 
Q 1397 4119 1231 3928 
Q 1006 3669 925 3112 
Q 844 2556 844 2016 
z
" transform="scale(0.015625)"/>
       </defs>
       <use xlink:href="#TimesNewRomanPSMT-30"/>
      </g>
     </g>
    </g>
    <g id="ytick_2">
     <g id="line2d_9">
      <g>
       <use xlink:href="#m7057380db9" x="50.915938" y="202.856048" style="stroke: #000000; stroke-width: 0.8"/>
      </g>
     </g>
     <g id="text_9">
      <!-- 500 -->
      <g transform="translate(28.915938 206.327923) scale(0.1 -0.1)">
       <defs>
        <path id="TimesNewRomanPSMT-35" d="M 2778 4238 
L 2534 3706 
L 1259 3706 
L 981 3138 
Q 1809 3016 2294 2522 
Q 2709 2097 2709 1522 
Q 2709 1188 2573 903 
Q 2438 619 2231 419 
Q 2025 219 1772 97 
Q 1413 -75 1034 -75 
Q 653 -75 479 54 
Q 306 184 306 341 
Q 306 428 378 495 
Q 450 563 559 563 
Q 641 563 702 538 
Q 763 513 909 409 
Q 1144 247 1384 247 
Q 1750 247 2026 523 
Q 2303 800 2303 1197 
Q 2303 1581 2056 1914 
Q 1809 2247 1375 2428 
Q 1034 2569 447 2591 
L 1259 4238 
L 2778 4238 
z
" transform="scale(0.015625)"/>
       </defs>
       <use xlink:href="#TimesNewRomanPSMT-35"/>
       <use xlink:href="#TimesNewRomanPSMT-30" x="50"/>
       <use xlink:href="#TimesNewRomanPSMT-30" x="100"/>
      </g>
     </g>
    </g>
    <g id="ytick_3">
     <g id="line2d_10">
      <g>
       <use xlink:href="#m7057380db9" x="50.915938" y="151.496031" style="stroke: #000000; stroke-width: 0.8"/>
      </g>
     </g>
     <g id="text_10">
      <!-- 1000 -->
      <g transform="translate(23.915938 154.967906) scale(0.1 -0.1)">
       <defs>
        <path id="TimesNewRomanPSMT-31" d="M 750 3822 
L 1781 4325 
L 1884 4325 
L 1884 747 
Q 1884 391 1914 303 
Q 1944 216 2037 169 
Q 2131 122 2419 116 
L 2419 0 
L 825 0 
L 825 116 
Q 1125 122 1212 167 
Q 1300 213 1334 289 
Q 1369 366 1369 747 
L 1369 3034 
Q 1369 3497 1338 3628 
Q 1316 3728 1258 3775 
Q 1200 3822 1119 3822 
Q 1003 3822 797 3725 
L 750 3822 
z
" transform="scale(0.015625)"/>
       </defs>
       <use xlink:href="#TimesNewRomanPSMT-31"/>
       <use xlink:href="#TimesNewRomanPSMT-30" x="50"/>
       <use xlink:href="#TimesNewRomanPSMT-30" x="100"/>
       <use xlink:href="#TimesNewRomanPSMT-30" x="150"/>
      </g>
     </g>
    </g>
    <g id="ytick_4">
     <g id="line2d_11">
      <g>
       <use xlink:href="#m7057380db9" x="50.915938" y="100.136015" style="stroke: #000000; stroke-width: 0.8"/>
      </g>
     </g>
     <g id="text_11">
      <!-- 1500 -->
      <g transform="translate(23.915938 103.60789) scale(0.1 -0.1)">
       <use xlink:href="#TimesNewRomanPSMT-31"/>
       <use xlink:href="#TimesNewRomanPSMT-35" x="50"/>
       <use xlink:href="#TimesNewRomanPSMT-30" x="100"/>
       <use xlink:href="#TimesNewRomanPSMT-30" x="150"/>
      </g>
     </g>
    </g>
    <g id="ytick_5">
     <g id="line2d_12">
      <g>
       <use xlink:href="#m7057380db9" x="50.915938" y="48.775998" style="stroke: #000000; stroke-width: 0.8"/>
      </g>
     </g>
     <g id="text_12">
      <!-- 2000 -->
      <g transform="translate(23.915938 52.247873) scale(0.1 -0.1)">
       <defs>
        <path id="TimesNewRomanPSMT-32" d="M 2934 816 
L 2638 0 
L 138 0 
L 138 116 
Q 1241 1122 1691 1759 
Q 2141 2397 2141 2925 
Q 2141 3328 1894 3587 
Q 1647 3847 1303 3847 
Q 991 3847 742 3664 
Q 494 3481 375 3128 
L 259 3128 
Q 338 3706 661 4015 
Q 984 4325 1469 4325 
Q 1984 4325 2329 3994 
Q 2675 3663 2675 3213 
Q 2675 2891 2525 2569 
Q 2294 2063 1775 1497 
Q 997 647 803 472 
L 1909 472 
Q 2247 472 2383 497 
Q 2519 522 2628 598 
Q 2738 675 2819 816 
L 2934 816 
z
" transform="scale(0.015625)"/>
       </defs>
       <use xlink:href="#TimesNewRomanPSMT-32"/>
       <use xlink:href="#TimesNewRomanPSMT-30" x="50"/>
       <use xlink:href="#TimesNewRomanPSMT-30" x="100"/>
       <use xlink:href="#TimesNewRomanPSMT-30" x="150"/>
      </g>
     </g>
    </g>
    <g id="text_13">
     <!-- Number -->
     <g transform="translate(16.92125 168.630475) rotate(-90) scale(0.14 -0.14)">
      <defs>
       <path id="TimesNewRomanPSMT-4e" d="M -84 4238 
L 1066 4238 
L 3656 1059 
L 3656 3503 
Q 3656 3894 3569 3991 
Q 3453 4122 3203 4122 
L 3056 4122 
L 3056 4238 
L 4531 4238 
L 4531 4122 
L 4381 4122 
Q 4113 4122 4000 3959 
Q 3931 3859 3931 3503 
L 3931 -69 
L 3819 -69 
L 1025 3344 
L 1025 734 
Q 1025 344 1109 247 
Q 1228 116 1475 116 
L 1625 116 
L 1625 0 
L 150 0 
L 150 116 
L 297 116 
Q 569 116 681 278 
Q 750 378 750 734 
L 750 3681 
Q 566 3897 470 3965 
Q 375 4034 191 4094 
Q 100 4122 -84 4122 
L -84 4238 
z
" transform="scale(0.015625)"/>
       <path id="TimesNewRomanPSMT-75" d="M 2709 2863 
L 2709 1128 
Q 2709 631 2732 520 
Q 2756 409 2807 365 
Q 2859 322 2928 322 
Q 3025 322 3147 375 
L 3191 266 
L 2334 -88 
L 2194 -88 
L 2194 519 
Q 1825 119 1631 15 
Q 1438 -88 1222 -88 
Q 981 -88 804 51 
Q 628 191 559 409 
Q 491 628 491 1028 
L 491 2306 
Q 491 2509 447 2587 
Q 403 2666 317 2708 
Q 231 2750 6 2747 
L 6 2863 
L 1009 2863 
L 1009 947 
Q 1009 547 1148 422 
Q 1288 297 1484 297 
Q 1619 297 1789 381 
Q 1959 466 2194 703 
L 2194 2325 
Q 2194 2569 2105 2655 
Q 2016 2741 1734 2747 
L 1734 2863 
L 2709 2863 
z
" transform="scale(0.015625)"/>
       <path id="TimesNewRomanPSMT-6d" d="M 1050 2338 
Q 1363 2650 1419 2697 
Q 1559 2816 1721 2881 
Q 1884 2947 2044 2947 
Q 2313 2947 2506 2790 
Q 2700 2634 2766 2338 
Q 3088 2713 3309 2830 
Q 3531 2947 3766 2947 
Q 3994 2947 4170 2830 
Q 4347 2713 4450 2447 
Q 4519 2266 4519 1878 
L 4519 647 
Q 4519 378 4559 278 
Q 4591 209 4675 161 
Q 4759 113 4950 113 
L 4950 0 
L 3538 0 
L 3538 113 
L 3597 113 
Q 3781 113 3884 184 
Q 3956 234 3988 344 
Q 4000 397 4000 647 
L 4000 1878 
Q 4000 2228 3916 2372 
Q 3794 2572 3525 2572 
Q 3359 2572 3192 2489 
Q 3025 2406 2788 2181 
L 2781 2147 
L 2788 2013 
L 2788 647 
Q 2788 353 2820 281 
Q 2853 209 2943 161 
Q 3034 113 3253 113 
L 3253 0 
L 1806 0 
L 1806 113 
Q 2044 113 2133 169 
Q 2222 225 2256 338 
Q 2272 391 2272 647 
L 2272 1878 
Q 2272 2228 2169 2381 
Q 2031 2581 1784 2581 
Q 1616 2581 1450 2491 
Q 1191 2353 1050 2181 
L 1050 647 
Q 1050 366 1089 281 
Q 1128 197 1204 155 
Q 1281 113 1516 113 
L 1516 0 
L 100 0 
L 100 113 
Q 297 113 375 155 
Q 453 197 493 289 
Q 534 381 534 647 
L 534 1741 
Q 534 2213 506 2350 
Q 484 2453 437 2492 
Q 391 2531 309 2531 
Q 222 2531 100 2484 
L 53 2597 
L 916 2947 
L 1050 2947 
L 1050 2338 
z
" transform="scale(0.015625)"/>
       <path id="TimesNewRomanPSMT-62" d="M 984 2369 
Q 1400 2947 1881 2947 
Q 2322 2947 2650 2570 
Q 2978 2194 2978 1541 
Q 2978 778 2472 313 
Q 2038 -88 1503 -88 
Q 1253 -88 995 3 
Q 738 94 469 275 
L 469 3241 
Q 469 3728 445 3840 
Q 422 3953 372 3993 
Q 322 4034 247 4034 
Q 159 4034 28 3984 
L -16 4094 
L 844 4444 
L 984 4444 
L 984 2369 
z
M 984 2169 
L 984 456 
Q 1144 300 1314 220 
Q 1484 141 1663 141 
Q 1947 141 2192 453 
Q 2438 766 2438 1363 
Q 2438 1913 2192 2208 
Q 1947 2503 1634 2503 
Q 1469 2503 1303 2419 
Q 1178 2356 984 2169 
z
" transform="scale(0.015625)"/>
      </defs>
      <use xlink:href="#TimesNewRomanPSMT-4e"/>
      <use xlink:href="#TimesNewRomanPSMT-75" x="72.216797"/>
      <use xlink:href="#TimesNewRomanPSMT-6d" x="122.216797"/>
      <use xlink:href="#TimesNewRomanPSMT-62" x="200"/>
      <use xlink:href="#TimesNewRomanPSMT-65" x="250"/>
      <use xlink:href="#TimesNewRomanPSMT-72" x="294.384766"/>
     </g>
    </g>
   </g>
   <g id="patch_3">
    <path d="M 75.523284 183.364922 
L 80.137162 183.364922 
L 80.137162 148.902351 
L 75.523284 148.902351 
L 75.523284 183.364922 
L 75.523284 183.364922 
z
" clip-path="url(#ped1a900aff)" style="fill: none; stroke: #000000; stroke-linejoin: miter"/>
   </g>
   <g id="line2d_13">
    <path d="M 77.830223 183.364922 
L 77.830223 231.823098 
" clip-path="url(#ped1a900aff)" style="fill: none; stroke: #000000; stroke-linecap: square"/>
   </g>
   <g id="line2d_14">
    <path d="M 77.830223 148.902351 
L 77.830223 99.108814 
" clip-path="url(#ped1a900aff)" style="fill: none; stroke: #000000; stroke-linecap: square"/>
   </g>
   <g id="line2d_15">
    <path d="M 76.676754 231.823098 
L 78.983693 231.823098 
" clip-path="url(#ped1a900aff)" style="fill: none; stroke: #000000; stroke-linecap: square"/>
   </g>
   <g id="line2d_16">
    <path d="M 76.676754 99.108814 
L 78.983693 99.108814 
" clip-path="url(#ped1a900aff)" style="fill: none; stroke: #000000; stroke-linecap: square"/>
   </g>
   <g id="patch_4">
    <path d="M 129.351856 200.647567 
L 133.965733 200.647567 
L 133.965733 171.243958 
L 129.351856 171.243958 
L 129.351856 200.647567 
L 129.351856 200.647567 
z
" clip-path="url(#ped1a900aff)" style="fill: none; stroke: #000000; stroke-linejoin: miter"/>
   </g>
   <g id="line2d_17">
    <path d="M 131.658795 200.647567 
L 131.658795 243.122301 
" clip-path="url(#ped1a900aff)" style="fill: none; stroke: #000000; stroke-linecap: square"/>
   </g>
   <g id="line2d_18">
    <path d="M 131.658795 171.243958 
L 131.658795 127.459544 
" clip-path="url(#ped1a900aff)" style="fill: none; stroke: #000000; stroke-linecap: square"/>
   </g>
   <g id="line2d_19">
    <path d="M 130.505325 243.122301 
L 132.812264 243.122301 
" clip-path="url(#ped1a900aff)" style="fill: none; stroke: #000000; stroke-linecap: square"/>
   </g>
   <g id="line2d_20">
    <path d="M 130.505325 127.459544 
L 132.812264 127.459544 
" clip-path="url(#ped1a900aff)" style="fill: none; stroke: #000000; stroke-linecap: square"/>
   </g>
   <g id="patch_5">
    <path d="M 183.180427 198.978367 
L 187.794305 198.978367 
L 187.794305 150.391791 
L 183.180427 150.391791 
L 183.180427 198.978367 
L 183.180427 198.978367 
z
" clip-path="url(#ped1a900aff)" style="fill: none; stroke: #000000; stroke-linejoin: miter"/>
   </g>
   <g id="line2d_21">
    <path d="M 185.487366 198.978367 
L 185.487366 247.436543 
" clip-path="url(#ped1a900aff)" style="fill: none; stroke: #000000; stroke-linecap: square"/>
   </g>
   <g id="line2d_22">
    <path d="M 185.487366 150.391791 
L 185.487366 87.501451 
" clip-path="url(#ped1a900aff)" style="fill: none; stroke: #000000; stroke-linecap: square"/>
   </g>
   <g id="line2d_23">
    <path d="M 184.333897 247.436543 
L 186.640835 247.436543 
" clip-path="url(#ped1a900aff)" style="fill: none; stroke: #000000; stroke-linecap: square"/>
   </g>
   <g id="line2d_24">
    <path d="M 184.333897 87.501451 
L 186.640835 87.501451 
" clip-path="url(#ped1a900aff)" style="fill: none; stroke: #000000; stroke-linecap: square"/>
   </g>
   <g id="patch_6">
    <path d="M 237.008999 195.768366 
L 241.622876 195.768366 
L 241.622876 147.77243 
L 237.008999 147.77243 
L 237.008999 195.768366 
L 237.008999 195.768366 
z
" clip-path="url(#ped1a900aff)" style="fill: none; stroke: #000000; stroke-linejoin: miter"/>
   </g>
   <g id="line2d_25">
    <path d="M 239.315937 195.768366 
L 239.315937 250.826304 
" clip-path="url(#ped1a900aff)" style="fill: none; stroke: #000000; stroke-linecap: square"/>
   </g>
   <g id="line2d_26">
    <path d="M 239.315937 147.77243 
L 239.315937 82.160009 
" clip-path="url(#ped1a900aff)" style="fill: none; stroke: #000000; stroke-linecap: square"/>
   </g>
   <g id="line2d_27">
    <path d="M 238.162468 250.826304 
L 240.469407 250.826304 
" clip-path="url(#ped1a900aff)" style="fill: none; stroke: #000000; stroke-linecap: square"/>
   </g>
   <g id="line2d_28">
    <path d="M 238.162468 82.160009 
L 240.469407 82.160009 
" clip-path="url(#ped1a900aff)" style="fill: none; stroke: #000000; stroke-linecap: square"/>
   </g>
   <g id="patch_7">
    <path d="M 290.83757 171.731878 
L 295.451448 171.731878 
L 295.451448 124.994263 
L 290.83757 124.994263 
L 290.83757 171.731878 
L 290.83757 171.731878 
z
" clip-path="url(#ped1a900aff)" style="fill: none; stroke: #000000; stroke-linejoin: miter"/>
   </g>
   <g id="line2d_29">
    <path d="M 293.144509 171.731878 
L 293.144509 238.70534 
" clip-path="url(#ped1a900aff)" style="fill: none; stroke: #000000; stroke-linecap: square"/>
   </g>
   <g id="line2d_30">
    <path d="M 293.144509 124.994263 
L 293.144509 82.057289 
" clip-path="url(#ped1a900aff)" style="fill: none; stroke: #000000; stroke-linecap: square"/>
   </g>
   <g id="line2d_31">
    <path d="M 291.99104 238.70534 
L 294.297978 238.70534 
" clip-path="url(#ped1a900aff)" style="fill: none; stroke: #000000; stroke-linecap: square"/>
   </g>
   <g id="line2d_32">
    <path d="M 291.99104 82.057289 
L 294.297978 82.057289 
" clip-path="url(#ped1a900aff)" style="fill: none; stroke: #000000; stroke-linecap: square"/>
   </g>
   <g id="patch_8">
    <path d="M 344.666142 183.596042 
L 349.280019 183.596042 
L 349.280019 130.926345 
L 344.666142 130.926345 
L 344.666142 183.596042 
L 344.666142 183.596042 
z
" clip-path="url(#ped1a900aff)" style="fill: none; stroke: #000000; stroke-linejoin: miter"/>
   </g>
   <g id="line2d_33">
    <path d="M 346.97308 183.596042 
L 346.97308 244.457662 
" clip-path="url(#ped1a900aff)" style="fill: none; stroke: #000000; stroke-linecap: square"/>
   </g>
   <g id="line2d_34">
    <path d="M 346.97308 130.926345 
L 346.97308 55.24736 
" clip-path="url(#ped1a900aff)" style="fill: none; stroke: #000000; stroke-linecap: square"/>
   </g>
   <g id="line2d_35">
    <path d="M 345.819611 244.457662 
L 348.12655 244.457662 
" clip-path="url(#ped1a900aff)" style="fill: none; stroke: #000000; stroke-linecap: square"/>
   </g>
   <g id="line2d_36">
    <path d="M 345.819611 55.24736 
L 348.12655 55.24736 
" clip-path="url(#ped1a900aff)" style="fill: none; stroke: #000000; stroke-linecap: square"/>
   </g>
   <g id="patch_9">
    <path d="M 398.494713 166.339076 
L 403.108591 166.339076 
L 403.108591 128.871944 
L 398.494713 128.871944 
L 398.494713 166.339076 
L 398.494713 166.339076 
z
" clip-path="url(#ped1a900aff)" style="fill: none; stroke: #000000; stroke-linejoin: miter"/>
   </g>
   <g id="line2d_37">
    <path d="M 400.801652 166.339076 
L 400.801652 218.366773 
" clip-path="url(#ped1a900aff)" style="fill: none; stroke: #000000; stroke-linecap: square"/>
   </g>
   <g id="line2d_38">
    <path d="M 400.801652 128.871944 
L 400.801652 80.105608 
" clip-path="url(#ped1a900aff)" style="fill: none; stroke: #000000; stroke-linecap: square"/>
   </g>
   <g id="line2d_39">
    <path d="M 399.648182 218.366773 
L 401.955121 218.366773 
" clip-path="url(#ped1a900aff)" style="fill: none; stroke: #000000; stroke-linecap: square"/>
   </g>
   <g id="line2d_40">
    <path d="M 399.648182 80.105608 
L 401.955121 80.105608 
" clip-path="url(#ped1a900aff)" style="fill: none; stroke: #000000; stroke-linecap: square"/>
   </g>
   <g id="line2d_41">
    <path d="M 75.523284 167.058117 
L 80.137162 167.058117 
" clip-path="url(#ped1a900aff)" style="fill: none; stroke: #000000; stroke-width: 1.5; stroke-linecap: square"/>
   </g>
   <g id="line2d_42">
    <path d="M 129.351856 184.058282 
L 133.965733 184.058282 
" clip-path="url(#ped1a900aff)" style="fill: none; stroke: #000000; stroke-width: 1.5; stroke-linecap: square"/>
   </g>
   <g id="line2d_43">
    <path d="M 183.180427 170.088358 
L 187.794305 170.088358 
" clip-path="url(#ped1a900aff)" style="fill: none; stroke: #000000; stroke-width: 1.5; stroke-linecap: square"/>
   </g>
   <g id="line2d_44">
    <path d="M 237.008999 171.526438 
L 241.622876 171.526438 
" clip-path="url(#ped1a900aff)" style="fill: none; stroke: #000000; stroke-width: 1.5; stroke-linecap: square"/>
   </g>
   <g id="line2d_45">
    <path d="M 290.83757 149.955231 
L 295.451448 149.955231 
" clip-path="url(#ped1a900aff)" style="fill: none; stroke: #000000; stroke-width: 1.5; stroke-linecap: square"/>
   </g>
   <g id="line2d_46">
    <path d="M 344.666142 159.867714 
L 349.280019 159.867714 
" clip-path="url(#ped1a900aff)" style="fill: none; stroke: #000000; stroke-width: 1.5; stroke-linecap: square"/>
   </g>
   <g id="line2d_47">
    <path d="M 398.494713 146.25731 
L 403.108591 146.25731 
" clip-path="url(#ped1a900aff)" style="fill: none; stroke: #000000; stroke-width: 1.5; stroke-linecap: square"/>
   </g>
   <g id="patch_10">
    <path d="M 50.915938 261.339699 
L 50.915938 30.045 
" style="fill: none; stroke: #000000; stroke-linejoin: miter; stroke-linecap: square"/>
   </g>
   <g id="patch_11">
    <path d="M 427.715937 261.339699 
L 427.715937 30.045 
" style="fill: none; stroke: #000000; stroke-linejoin: miter; stroke-linecap: square"/>
   </g>
   <g id="patch_12">
    <path d="M 50.915938 261.339699 
L 427.715937 261.339699 
" style="fill: none; stroke: #000000; stroke-linejoin: miter; stroke-linecap: square"/>
   </g>
   <g id="patch_13">
    <path d="M 50.915938 30.045 
L 427.715937 30.045 
" style="fill: none; stroke: #000000; stroke-linejoin: miter; stroke-linecap: square"/>
   </g>
   <g id="text_14">
    <!-- Statistics on daily outpatient visits in different cities (Number) -->
    <g transform="translate(27.472187 18.045) scale(0.16 -0.16)">
     <defs>
      <path id="TimesNewRomanPS-BoldMT-53" d="M 3006 4334 
L 3041 2922 
L 2913 2922 
Q 2822 3453 2467 3776 
Q 2113 4100 1700 4100 
Q 1381 4100 1195 3929 
Q 1009 3759 1009 3538 
Q 1009 3397 1075 3288 
Q 1166 3141 1366 2997 
Q 1513 2894 2044 2631 
Q 2788 2266 3047 1941 
Q 3303 1616 3303 1197 
Q 3303 666 2889 283 
Q 2475 -100 1838 -100 
Q 1638 -100 1459 -59 
Q 1281 -19 1013 94 
Q 863 156 766 156 
Q 684 156 593 93 
Q 503 31 447 -97 
L 331 -97 
L 331 1503 
L 447 1503 
Q 584 828 976 473 
Q 1369 119 1822 119 
Q 2172 119 2380 309 
Q 2588 500 2588 753 
Q 2588 903 2508 1043 
Q 2428 1184 2265 1311 
Q 2103 1438 1691 1641 
Q 1113 1925 859 2125 
Q 606 2325 470 2572 
Q 334 2819 334 3116 
Q 334 3622 706 3978 
Q 1078 4334 1644 4334 
Q 1850 4334 2044 4284 
Q 2191 4247 2402 4145 
Q 2613 4044 2697 4044 
Q 2778 4044 2825 4094 
Q 2872 4144 2913 4334 
L 3006 4334 
z
" transform="scale(0.015625)"/>
      <path id="TimesNewRomanPS-BoldMT-74" d="M 1375 3991 
L 1375 2922 
L 2069 2922 
L 2069 2613 
L 1375 2613 
L 1375 809 
Q 1375 556 1398 482 
Q 1422 409 1481 364 
Q 1541 319 1591 319 
Q 1794 319 1975 628 
L 2069 559 
Q 1816 -41 1247 -41 
Q 969 -41 776 114 
Q 584 269 531 459 
Q 500 566 500 1034 
L 500 2613 
L 119 2613 
L 119 2722 
Q 513 3000 789 3306 
Q 1066 3613 1272 3991 
L 1375 3991 
z
" transform="scale(0.015625)"/>
      <path id="TimesNewRomanPS-BoldMT-61" d="M 1828 431 
Q 1294 -41 869 -41 
Q 619 -41 453 123 
Q 288 288 288 534 
Q 288 869 575 1136 
Q 863 1403 1828 1847 
L 1828 2141 
Q 1828 2472 1792 2558 
Q 1756 2644 1656 2708 
Q 1556 2772 1431 2772 
Q 1228 2772 1097 2681 
Q 1016 2625 1016 2550 
Q 1016 2484 1103 2388 
Q 1222 2253 1222 2128 
Q 1222 1975 1108 1867 
Q 994 1759 809 1759 
Q 613 1759 480 1878 
Q 347 1997 347 2156 
Q 347 2381 525 2586 
Q 703 2791 1022 2900 
Q 1341 3009 1684 3009 
Q 2100 3009 2342 2832 
Q 2584 2656 2656 2450 
Q 2700 2319 2700 1847 
L 2700 713 
Q 2700 513 2715 461 
Q 2731 409 2762 384 
Q 2794 359 2834 359 
Q 2916 359 3000 475 
L 3094 400 
Q 2938 169 2770 64 
Q 2603 -41 2391 -41 
Q 2141 -41 2000 76 
Q 1859 194 1828 431 
z
M 1828 659 
L 1828 1638 
Q 1450 1416 1266 1163 
Q 1144 994 1144 822 
Q 1144 678 1247 569 
Q 1325 484 1466 484 
Q 1622 484 1828 659 
z
" transform="scale(0.015625)"/>
      <path id="TimesNewRomanPS-BoldMT-69" d="M 919 4338 
Q 1122 4338 1262 4195 
Q 1403 4053 1403 3853 
Q 1403 3653 1261 3512 
Q 1119 3372 919 3372 
Q 719 3372 578 3512 
Q 438 3653 438 3853 
Q 438 4053 578 4195 
Q 719 4338 919 4338 
z
M 1356 2922 
L 1356 606 
Q 1356 297 1428 211 
Q 1500 125 1709 113 
L 1709 0 
L 131 0 
L 131 113 
Q 325 119 419 225 
Q 481 297 481 606 
L 481 2313 
Q 481 2622 409 2708 
Q 338 2794 131 2806 
L 131 2922 
L 1356 2922 
z
" transform="scale(0.015625)"/>
      <path id="TimesNewRomanPS-BoldMT-73" d="M 2063 3003 
L 2109 2006 
L 2003 2006 
Q 1813 2450 1608 2612 
Q 1403 2775 1200 2775 
Q 1072 2775 981 2689 
Q 891 2603 891 2491 
Q 891 2406 953 2328 
Q 1053 2200 1512 1889 
Q 1972 1578 2117 1361 
Q 2263 1144 2263 875 
Q 2263 631 2141 397 
Q 2019 163 1797 37 
Q 1575 -88 1306 -88 
Q 1097 -88 747 44 
Q 653 78 619 78 
Q 516 78 447 -78 
L 344 -78 
L 294 972 
L 400 972 
Q 541 559 786 353 
Q 1031 147 1250 147 
Q 1400 147 1495 239 
Q 1591 331 1591 463 
Q 1591 613 1497 722 
Q 1403 831 1078 1053 
Q 600 1384 459 1559 
Q 253 1816 253 2125 
Q 253 2463 486 2736 
Q 719 3009 1159 3009 
Q 1397 3009 1619 2894 
Q 1703 2847 1756 2847 
Q 1813 2847 1847 2870 
Q 1881 2894 1956 3003 
L 2063 3003 
z
" transform="scale(0.015625)"/>
      <path id="TimesNewRomanPS-BoldMT-63" d="M 2600 753 
L 2697 678 
Q 2491 291 2183 101 
Q 1875 -88 1528 -88 
Q 944 -88 594 353 
Q 244 794 244 1413 
Q 244 2009 563 2463 
Q 947 3009 1622 3009 
Q 2075 3009 2342 2781 
Q 2609 2553 2609 2272 
Q 2609 2094 2501 1987 
Q 2394 1881 2219 1881 
Q 2034 1881 1914 2003 
Q 1794 2125 1766 2438 
Q 1747 2634 1675 2713 
Q 1603 2791 1506 2791 
Q 1356 2791 1250 2631 
Q 1088 2391 1088 1894 
Q 1088 1481 1219 1104 
Q 1350 728 1578 544 
Q 1750 409 1984 409 
Q 2138 409 2275 481 
Q 2413 553 2600 753 
z
" transform="scale(0.015625)"/>
      <path id="TimesNewRomanPS-BoldMT-20" transform="scale(0.015625)"/>
      <path id="TimesNewRomanPS-BoldMT-6f" d="M 1594 3009 
Q 1975 3009 2303 2812 
Q 2631 2616 2801 2253 
Q 2972 1891 2972 1459 
Q 2972 838 2656 419 
Q 2275 -88 1603 -88 
Q 944 -88 587 375 
Q 231 838 231 1447 
Q 231 2075 595 2542 
Q 959 3009 1594 3009 
z
M 1606 2788 
Q 1447 2788 1333 2667 
Q 1219 2547 1183 2192 
Q 1147 1838 1147 1206 
Q 1147 872 1191 581 
Q 1225 359 1337 243 
Q 1450 128 1594 128 
Q 1734 128 1828 206 
Q 1950 313 1991 503 
Q 2053 800 2053 1703 
Q 2053 2234 1993 2432 
Q 1934 2631 1819 2722 
Q 1738 2788 1606 2788 
z
" transform="scale(0.015625)"/>
      <path id="TimesNewRomanPS-BoldMT-6e" d="M 1409 2922 
L 1409 2544 
Q 1634 2788 1840 2898 
Q 2047 3009 2284 3009 
Q 2569 3009 2756 2851 
Q 2944 2694 3006 2459 
Q 3056 2281 3056 1775 
L 3056 638 
Q 3056 300 3117 217 
Q 3178 134 3372 113 
L 3372 0 
L 1894 0 
L 1894 113 
Q 2059 134 2131 250 
Q 2181 328 2181 638 
L 2181 1938 
Q 2181 2297 2153 2390 
Q 2125 2484 2058 2536 
Q 1991 2588 1909 2588 
Q 1641 2588 1409 2203 
L 1409 638 
Q 1409 309 1470 221 
Q 1531 134 1697 113 
L 1697 0 
L 219 0 
L 219 113 
Q 403 131 481 231 
Q 534 300 534 638 
L 534 2288 
Q 534 2619 473 2700 
Q 413 2781 219 2806 
L 219 2922 
L 1409 2922 
z
" transform="scale(0.015625)"/>
      <path id="TimesNewRomanPS-BoldMT-64" d="M 3056 4238 
L 3056 875 
Q 3056 534 3075 472 
Q 3100 369 3170 319 
Q 3241 269 3416 256 
L 3416 153 
L 2181 -88 
L 2181 375 
Q 1959 106 1786 9 
Q 1613 -88 1394 -88 
Q 834 -88 509 413 
Q 247 819 247 1409 
Q 247 1881 409 2254 
Q 572 2628 855 2818 
Q 1138 3009 1463 3009 
Q 1672 3009 1834 2928 
Q 1997 2847 2181 2644 
L 2181 3525 
Q 2181 3859 2153 3928 
Q 2116 4019 2041 4062 
Q 1966 4106 1759 4106 
L 1759 4238 
L 3056 4238 
z
M 2181 2256 
Q 1950 2700 1616 2700 
Q 1500 2700 1425 2638 
Q 1309 2541 1236 2297 
Q 1163 2053 1163 1550 
Q 1163 997 1244 731 
Q 1325 466 1466 347 
Q 1538 288 1663 288 
Q 1938 288 2181 719 
L 2181 2256 
z
" transform="scale(0.015625)"/>
      <path id="TimesNewRomanPS-BoldMT-6c" d="M 1359 4238 
L 1359 606 
Q 1359 297 1431 211 
Q 1503 125 1713 113 
L 1713 0 
L 134 0 
L 134 113 
Q 328 119 422 225 
Q 484 297 484 606 
L 484 3631 
Q 484 3938 412 4023 
Q 341 4109 134 4122 
L 134 4238 
L 1359 4238 
z
" transform="scale(0.015625)"/>
      <path id="TimesNewRomanPS-BoldMT-79" d="M 1556 -119 
L 613 2047 
Q 400 2538 298 2650 
Q 197 2763 53 2806 
L 53 2922 
L 1606 2922 
L 1606 2806 
Q 1453 2800 1390 2747 
Q 1328 2694 1328 2619 
Q 1328 2500 1484 2150 
L 1984 1006 
L 2325 1891 
Q 2509 2363 2509 2547 
Q 2509 2663 2432 2731 
Q 2356 2800 2163 2806 
L 2163 2922 
L 3141 2922 
L 3141 2806 
Q 2997 2791 2906 2695 
Q 2816 2600 2603 2047 
L 1769 -119 
Q 1453 -931 1300 -1119 
Q 1084 -1381 759 -1381 
Q 500 -1381 339 -1232 
Q 178 -1084 178 -875 
Q 178 -694 289 -575 
Q 400 -456 563 -456 
Q 719 -456 814 -556 
Q 909 -656 913 -866 
Q 916 -984 941 -1019 
Q 966 -1053 1013 -1053 
Q 1088 -1053 1172 -963 
Q 1297 -831 1466 -363 
L 1556 -119 
z
" transform="scale(0.015625)"/>
      <path id="TimesNewRomanPS-BoldMT-75" d="M 3038 2922 
L 3038 634 
Q 3038 300 3100 217 
Q 3163 134 3353 113 
L 3353 0 
L 2163 0 
L 2163 391 
Q 1953 141 1743 26 
Q 1534 -88 1275 -88 
Q 1028 -88 836 64 
Q 644 216 578 419 
Q 513 622 513 1128 
L 513 2288 
Q 513 2619 452 2700 
Q 391 2781 197 2806 
L 197 2922 
L 1388 2922 
L 1388 925 
Q 1388 613 1417 522 
Q 1447 431 1511 384 
Q 1575 338 1659 338 
Q 1772 338 1863 397 
Q 1988 478 2163 725 
L 2163 2288 
Q 2163 2619 2102 2700 
Q 2041 2781 1847 2806 
L 1847 2922 
L 3038 2922 
z
" transform="scale(0.015625)"/>
      <path id="TimesNewRomanPS-BoldMT-70" d="M 1347 297 
L 1347 -791 
Q 1347 -1016 1383 -1097 
Q 1419 -1178 1494 -1215 
Q 1569 -1253 1788 -1253 
L 1788 -1369 
L 122 -1369 
L 122 -1253 
Q 316 -1247 409 -1144 
Q 472 -1072 472 -772 
L 472 2313 
Q 472 2622 400 2708 
Q 328 2794 122 2806 
L 122 2922 
L 1347 2922 
L 1347 2538 
Q 1500 2763 1659 2863 
Q 1888 3009 2156 3009 
Q 2478 3009 2742 2806 
Q 3006 2603 3143 2245 
Q 3281 1888 3281 1475 
Q 3281 1031 3139 664 
Q 2997 297 2726 104 
Q 2456 -88 2125 -88 
Q 1884 -88 1675 19 
Q 1519 100 1347 297 
z
M 1347 613 
Q 1616 231 1922 231 
Q 2091 231 2200 409 
Q 2363 672 2363 1409 
Q 2363 2166 2184 2444 
Q 2066 2628 1866 2628 
Q 1550 2628 1347 2172 
L 1347 613 
z
" transform="scale(0.015625)"/>
      <path id="TimesNewRomanPS-BoldMT-65" d="M 2691 1566 
L 1088 1566 
Q 1116 984 1397 647 
Q 1613 388 1916 388 
Q 2103 388 2256 492 
Q 2409 597 2584 869 
L 2691 800 
Q 2453 316 2165 114 
Q 1878 -88 1500 -88 
Q 850 -88 516 413 
Q 247 816 247 1413 
Q 247 2144 642 2576 
Q 1038 3009 1569 3009 
Q 2013 3009 2339 2645 
Q 2666 2281 2691 1566 
z
M 1922 1775 
Q 1922 2278 1867 2465 
Q 1813 2653 1697 2750 
Q 1631 2806 1522 2806 
Q 1359 2806 1256 2647 
Q 1072 2369 1072 1884 
L 1072 1775 
L 1922 1775 
z
" transform="scale(0.015625)"/>
      <path id="TimesNewRomanPS-BoldMT-76" d="M 1534 -88 
L 550 2178 
Q 372 2588 272 2697 
Q 200 2778 59 2806 
L 59 2922 
L 1613 2922 
L 1613 2806 
Q 1466 2806 1413 2753 
Q 1338 2684 1338 2591 
Q 1338 2475 1475 2156 
L 1956 1059 
L 2341 2006 
Q 2506 2413 2506 2581 
Q 2506 2678 2436 2739 
Q 2366 2800 2188 2806 
L 2188 2922 
L 3144 2922 
L 3144 2806 
Q 3006 2788 2918 2703 
Q 2831 2619 2656 2206 
L 1681 -88 
L 1534 -88 
z
" transform="scale(0.015625)"/>
      <path id="TimesNewRomanPS-BoldMT-66" d="M 1497 2616 
L 1497 588 
Q 1497 294 1559 219 
Q 1659 103 1928 113 
L 1928 0 
L 206 0 
L 206 113 
Q 403 116 486 158 
Q 569 200 600 275 
Q 631 350 631 588 
L 631 2616 
L 206 2616 
L 206 2922 
L 631 2922 
L 631 3138 
L 628 3284 
Q 628 3734 958 4034 
Q 1288 4334 1850 4334 
Q 2234 4334 2420 4190 
Q 2606 4047 2606 3872 
Q 2606 3731 2490 3628 
Q 2375 3525 2184 3525 
Q 2022 3525 1926 3609 
Q 1831 3694 1831 3797 
Q 1831 3825 1850 3913 
Q 1863 3966 1863 4013 
Q 1863 4078 1825 4109 
Q 1775 4156 1703 4156 
Q 1613 4156 1552 4081 
Q 1491 4006 1491 3841 
L 1497 3294 
L 1497 2922 
L 1928 2922 
L 1928 2616 
L 1497 2616 
z
" transform="scale(0.015625)"/>
      <path id="TimesNewRomanPS-BoldMT-72" d="M 1428 2922 
L 1428 2259 
Q 1719 2713 1937 2861 
Q 2156 3009 2359 3009 
Q 2534 3009 2639 2901 
Q 2744 2794 2744 2597 
Q 2744 2388 2642 2272 
Q 2541 2156 2397 2156 
Q 2231 2156 2109 2262 
Q 1988 2369 1966 2381 
Q 1934 2400 1894 2400 
Q 1803 2400 1722 2331 
Q 1594 2225 1528 2028 
Q 1428 1725 1428 1359 
L 1428 688 
L 1431 513 
Q 1431 334 1453 284 
Q 1491 200 1564 161 
Q 1638 122 1813 113 
L 1813 0 
L 234 0 
L 234 113 
Q 425 128 492 217 
Q 559 306 559 688 
L 559 2303 
Q 559 2553 534 2622 
Q 503 2709 443 2750 
Q 384 2791 234 2806 
L 234 2922 
L 1428 2922 
z
" transform="scale(0.015625)"/>
      <path id="TimesNewRomanPS-BoldMT-28" d="M 2056 4334 
L 2056 4191 
Q 1731 3978 1578 3775 
Q 1366 3494 1247 3053 
Q 1097 2506 1097 1525 
Q 1097 600 1233 87 
Q 1369 -425 1603 -741 
Q 1766 -959 2056 -1125 
L 2056 -1281 
Q 1303 -1028 779 -248 
Q 256 531 256 1544 
Q 256 2544 778 3314 
Q 1300 4084 2056 4334 
z
" transform="scale(0.015625)"/>
      <path id="TimesNewRomanPS-BoldMT-4e" d="M 1594 4238 
L 3684 1609 
L 3684 3431 
Q 3684 3813 3575 3947 
Q 3425 4128 3072 4122 
L 3072 4238 
L 4472 4238 
L 4472 4122 
Q 4203 4088 4111 4033 
Q 4019 3978 3967 3854 
Q 3916 3731 3916 3431 
L 3916 -97 
L 3809 -97 
L 944 3431 
L 944 738 
Q 944 372 1111 244 
Q 1278 116 1494 116 
L 1594 116 
L 1594 0 
L 91 0 
L 91 116 
Q 441 119 578 259 
Q 716 400 716 738 
L 716 3728 
L 625 3841 
Q 491 4009 387 4062 
Q 284 4116 91 4122 
L 91 4238 
L 1594 4238 
z
" transform="scale(0.015625)"/>
      <path id="TimesNewRomanPS-BoldMT-6d" d="M 1428 2922 
L 1428 2538 
Q 1669 2800 1873 2904 
Q 2078 3009 2322 3009 
Q 2603 3009 2793 2878 
Q 2984 2747 3088 2478 
Q 3338 2759 3567 2884 
Q 3797 3009 4047 3009 
Q 4350 3009 4529 2870 
Q 4709 2731 4779 2517 
Q 4850 2303 4850 1834 
L 4850 638 
Q 4850 300 4911 219 
Q 4972 138 5166 113 
L 5166 0 
L 3656 0 
L 3656 113 
Q 3834 128 3919 250 
Q 3975 334 3975 638 
L 3975 1894 
Q 3975 2284 3944 2390 
Q 3913 2497 3845 2548 
Q 3778 2600 3688 2600 
Q 3553 2600 3415 2501 
Q 3278 2403 3138 2206 
L 3138 638 
Q 3138 322 3191 241 
Q 3263 125 3466 113 
L 3466 0 
L 1953 0 
L 1953 113 
Q 2075 119 2145 173 
Q 2216 228 2239 304 
Q 2263 381 2263 638 
L 2263 1894 
Q 2263 2291 2231 2391 
Q 2200 2491 2126 2547 
Q 2053 2603 1969 2603 
Q 1844 2603 1741 2538 
Q 1594 2441 1428 2206 
L 1428 638 
Q 1428 328 1489 229 
Q 1550 131 1744 113 
L 1744 0 
L 238 0 
L 238 113 
Q 422 131 500 231 
Q 553 300 553 638 
L 553 2288 
Q 553 2619 492 2700 
Q 431 2781 238 2806 
L 238 2922 
L 1428 2922 
z
" transform="scale(0.015625)"/>
      <path id="TimesNewRomanPS-BoldMT-62" d="M 1347 4238 
L 1347 2628 
Q 1716 3009 2153 3009 
Q 2453 3009 2718 2832 
Q 2984 2656 3134 2331 
Q 3284 2006 3284 1581 
Q 3284 1103 3093 712 
Q 2903 322 2584 117 
Q 2266 -88 1856 -88 
Q 1619 -88 1434 -12 
Q 1250 63 1072 231 
L 588 -84 
L 481 -84 
L 481 3631 
Q 481 3884 459 3944 
Q 428 4031 361 4073 
Q 294 4116 134 4122 
L 134 4238 
L 1347 4238 
z
M 1347 2350 
L 1347 1050 
Q 1347 653 1366 544 
Q 1397 359 1515 245 
Q 1634 131 1819 131 
Q 1978 131 2092 222 
Q 2206 313 2282 581 
Q 2359 850 2359 1550 
Q 2359 2222 2191 2472 
Q 2069 2653 1863 2653 
Q 1594 2653 1347 2350 
z
" transform="scale(0.015625)"/>
      <path id="TimesNewRomanPS-BoldMT-29" d="M 78 -1281 
L 78 -1138 
Q 403 -922 556 -719 
Q 766 -438 888 0 
Q 1038 550 1038 1531 
Q 1038 2456 902 2967 
Q 766 3478 531 3794 
Q 369 4013 78 4178 
L 78 4334 
Q 831 4081 1354 3301 
Q 1878 2522 1878 1509 
Q 1878 513 1354 -257 
Q 831 -1028 78 -1281 
z
" transform="scale(0.015625)"/>
     </defs>
     <use xlink:href="#TimesNewRomanPS-BoldMT-53"/>
     <use xlink:href="#TimesNewRomanPS-BoldMT-74" x="55.615234"/>
     <use xlink:href="#TimesNewRomanPS-BoldMT-61" x="88.916016"/>
     <use xlink:href="#TimesNewRomanPS-BoldMT-74" x="138.916016"/>
     <use xlink:href="#TimesNewRomanPS-BoldMT-69" x="172.216797"/>
     <use xlink:href="#TimesNewRomanPS-BoldMT-73" x="200"/>
     <use xlink:href="#TimesNewRomanPS-BoldMT-74" x="238.916016"/>
     <use xlink:href="#TimesNewRomanPS-BoldMT-69" x="272.216797"/>
     <use xlink:href="#TimesNewRomanPS-BoldMT-63" x="300"/>
     <use xlink:href="#TimesNewRomanPS-BoldMT-73" x="344.384766"/>
     <use xlink:href="#TimesNewRomanPS-BoldMT-20" x="383.300781"/>
     <use xlink:href="#TimesNewRomanPS-BoldMT-6f" x="408.300781"/>
     <use xlink:href="#TimesNewRomanPS-BoldMT-6e" x="458.300781"/>
     <use xlink:href="#TimesNewRomanPS-BoldMT-20" x="513.916016"/>
     <use xlink:href="#TimesNewRomanPS-BoldMT-64" x="538.916016"/>
     <use xlink:href="#TimesNewRomanPS-BoldMT-61" x="594.53125"/>
     <use xlink:href="#TimesNewRomanPS-BoldMT-69" x="644.53125"/>
     <use xlink:href="#TimesNewRomanPS-BoldMT-6c" x="672.314453"/>
     <use xlink:href="#TimesNewRomanPS-BoldMT-79" x="700.097656"/>
     <use xlink:href="#TimesNewRomanPS-BoldMT-20" x="750.097656"/>
     <use xlink:href="#TimesNewRomanPS-BoldMT-6f" x="775.097656"/>
     <use xlink:href="#TimesNewRomanPS-BoldMT-75" x="825.097656"/>
     <use xlink:href="#TimesNewRomanPS-BoldMT-74" x="880.712891"/>
     <use xlink:href="#TimesNewRomanPS-BoldMT-70" x="914.013672"/>
     <use xlink:href="#TimesNewRomanPS-BoldMT-61" x="969.628906"/>
     <use xlink:href="#TimesNewRomanPS-BoldMT-74" x="1019.628906"/>
     <use xlink:href="#TimesNewRomanPS-BoldMT-69" x="1052.929688"/>
     <use xlink:href="#TimesNewRomanPS-BoldMT-65" x="1080.712891"/>
     <use xlink:href="#TimesNewRomanPS-BoldMT-6e" x="1125.097656"/>
     <use xlink:href="#TimesNewRomanPS-BoldMT-74" x="1180.712891"/>
     <use xlink:href="#TimesNewRomanPS-BoldMT-20" x="1214.013672"/>
     <use xlink:href="#TimesNewRomanPS-BoldMT-76" x="1239.013672"/>
     <use xlink:href="#TimesNewRomanPS-BoldMT-69" x="1289.013672"/>
     <use xlink:href="#TimesNewRomanPS-BoldMT-73" x="1316.796875"/>
     <use xlink:href="#TimesNewRomanPS-BoldMT-69" x="1355.712891"/>
     <use xlink:href="#TimesNewRomanPS-BoldMT-74" x="1383.496094"/>
     <use xlink:href="#TimesNewRomanPS-BoldMT-73" x="1416.796875"/>
     <use xlink:href="#TimesNewRomanPS-BoldMT-20" x="1455.712891"/>
     <use xlink:href="#TimesNewRomanPS-BoldMT-69" x="1480.712891"/>
     <use xlink:href="#TimesNewRomanPS-BoldMT-6e" x="1508.496094"/>
     <use xlink:href="#TimesNewRomanPS-BoldMT-20" x="1564.111328"/>
     <use xlink:href="#TimesNewRomanPS-BoldMT-64" x="1589.111328"/>
     <use xlink:href="#TimesNewRomanPS-BoldMT-69" x="1644.726562"/>
     <use xlink:href="#TimesNewRomanPS-BoldMT-66" x="1672.509766"/>
     <use xlink:href="#TimesNewRomanPS-BoldMT-66" x="1705.810547"/>
     <use xlink:href="#TimesNewRomanPS-BoldMT-65" x="1739.111328"/>
     <use xlink:href="#TimesNewRomanPS-BoldMT-72" x="1783.496094"/>
     <use xlink:href="#TimesNewRomanPS-BoldMT-65" x="1826.130859"/>
     <use xlink:href="#TimesNewRomanPS-BoldMT-6e" x="1870.515625"/>
     <use xlink:href="#TimesNewRomanPS-BoldMT-74" x="1926.130859"/>
     <use xlink:href="#TimesNewRomanPS-BoldMT-20" x="1959.431641"/>
     <use xlink:href="#TimesNewRomanPS-BoldMT-63" x="1984.431641"/>
     <use xlink:href="#TimesNewRomanPS-BoldMT-69" x="2028.816406"/>
     <use xlink:href="#TimesNewRomanPS-BoldMT-74" x="2056.599609"/>
     <use xlink:href="#TimesNewRomanPS-BoldMT-69" x="2089.900391"/>
     <use xlink:href="#TimesNewRomanPS-BoldMT-65" x="2117.683594"/>
     <use xlink:href="#TimesNewRomanPS-BoldMT-73" x="2162.068359"/>
     <use xlink:href="#TimesNewRomanPS-BoldMT-20" x="2200.984375"/>
     <use xlink:href="#TimesNewRomanPS-BoldMT-28" x="2225.984375"/>
     <use xlink:href="#TimesNewRomanPS-BoldMT-4e" x="2259.285156"/>
     <use xlink:href="#TimesNewRomanPS-BoldMT-75" x="2331.501953"/>
     <use xlink:href="#TimesNewRomanPS-BoldMT-6d" x="2387.117188"/>
     <use xlink:href="#TimesNewRomanPS-BoldMT-62" x="2470.417969"/>
     <use xlink:href="#TimesNewRomanPS-BoldMT-65" x="2526.033203"/>
     <use xlink:href="#TimesNewRomanPS-BoldMT-72" x="2570.417969"/>
     <use xlink:href="#TimesNewRomanPS-BoldMT-29" x="2614.802734"/>
    </g>
   </g>
  </g>
 </g>
 <defs>
  <clipPath id="ped1a900aff">
   <rect x="50.915938" y="30.045" width="376.8" height="231.294699"/>
  </clipPath>
 </defs>
</svg>
