<?xml version="1.0" encoding="utf-8" standalone="no"?>
<!DOCTYPE svg PUBLIC "-//W3C//DTD SVG 1.1//EN"
  "http://www.w3.org/Graphics/SVG/1.1/DTD/svg11.dtd">
<svg xmlns:xlink="http://www.w3.org/1999/xlink" width="442.905937pt" height="319.952192pt" viewBox="0 0 442.905937 319.952192" xmlns="http://www.w3.org/2000/svg" version="1.1">
 <metadata>
  <rdf:RDF xmlns:dc="http://purl.org/dc/elements/1.1/" xmlns:cc="http://creativecommons.org/ns#" xmlns:rdf="http://www.w3.org/1999/02/22-rdf-syntax-ns#">
   <cc:Work>
    <dc:type rdf:resource="http://purl.org/dc/dcmitype/StillImage"/>
    <dc:date>2025-05-26T16:49:46.806783</dc:date>
    <dc:format>image/svg+xml</dc:format>
    <dc:creator>
     <cc:Agent>
      <dc:title>Matplotlib v3.7.2, https://matplotlib.org/</dc:title>
     </cc:Agent>
    </dc:creator>
   </cc:Work>
  </rdf:RDF>
 </metadata>
 <defs>
  <style type="text/css">*{stroke-linejoin: round; stroke-linecap: butt}</style>
 </defs>
 <g id="figure_1">
  <g id="patch_1">
   <path d="M 0 319.952192 
L 442.905937 319.952192 
L 442.905937 0 
L 0 0 
z
" style="fill: #ffffff"/>
  </g>
  <g id="axes_1">
   <g id="patch_2">
    <path d="M 50.915938 258.49713 
L 427.715937 258.49713 
L 427.715937 30.045 
L 50.915938 30.045 
z
" style="fill: #ffffff"/>
   </g>
   <g id="PolyCollection_1">
    <defs>
     <path id="m0784cfe5b2" d="M 101.831692 -75.386643 
L 75.360183 -75.386643 
L 73.721682 -77.056101 
L 72.056895 -78.725558 
L 70.394979 -80.395015 
L 68.766044 -82.064473 
L 67.199699 -83.73393 
L 65.723574 -85.403388 
L 64.361894 -87.072845 
L 63.134244 -88.742302 
L 62.054604 -90.41176 
L 61.130743 -92.081217 
L 60.364027 -93.750674 
L 59.749655 -95.420132 
L 59.277325 -97.089589 
L 58.932267 -98.759047 
L 58.696578 -100.428504 
L 58.550738 -102.097961 
L 58.475206 -103.767419 
L 58.451938 -105.436876 
L 58.465717 -107.106333 
L 58.505176 -108.775791 
L 58.56342 -110.445248 
L 58.638191 -112.114706 
L 58.731575 -113.784163 
L 58.849269 -115.45362 
L 58.999488 -117.123078 
L 59.191623 -118.792535 
L 59.434789 -120.461992 
L 59.736418 -122.13145 
L 60.101043 -123.800907 
L 60.529409 -125.470364 
L 61.018016 -127.139822 
L 61.559127 -128.809279 
L 62.141274 -130.478737 
L 62.750191 -132.148194 
L 63.370077 -133.817651 
L 63.985061 -135.487109 
L 64.580715 -137.156566 
L 65.145438 -138.826023 
L 65.671575 -140.495481 
L 66.156156 -142.164938 
L 66.60117 -143.834396 
L 67.01336 -145.503853 
L 67.40357 -147.17331 
L 67.78571 -148.842768 
L 68.175458 -150.512225 
L 68.58884 -152.181682 
L 69.04081 -153.85114 
L 69.543984 -155.520597 
L 70.107606 -157.190055 
L 70.736854 -158.859512 
L 71.432491 -160.528969 
L 72.190883 -162.198427 
L 73.004339 -163.867884 
L 73.861729 -165.537341 
L 74.749288 -167.206799 
L 75.65155 -168.876256 
L 76.552311 -170.545714 
L 77.435575 -172.215171 
L 78.2864 -173.884628 
L 79.091627 -175.554086 
L 79.84044 -177.223543 
L 80.524754 -178.893 
L 81.139429 -180.562458 
L 81.682299 -182.231915 
L 82.154056 -183.901372 
L 82.55798 -185.57083 
L 82.899564 -187.240287 
L 83.186042 -188.909745 
L 83.425871 -190.579202 
L 83.628179 -192.248659 
L 83.802223 -193.918117 
L 83.95688 -195.587574 
L 84.100207 -197.257031 
L 84.239077 -198.926489 
L 84.378925 -200.595946 
L 84.5236 -202.265404 
L 84.675329 -203.934861 
L 84.834793 -205.604318 
L 85.001297 -207.273776 
L 85.173017 -208.943233 
L 85.347307 -210.61269 
L 85.521028 -212.282148 
L 85.690886 -213.951605 
L 85.853754 -215.621063 
L 86.006937 -217.29052 
L 86.148396 -218.959977 
L 86.276886 -220.629435 
L 86.392026 -222.298892 
L 86.494292 -223.968349 
L 86.584934 -225.637807 
L 86.665847 -227.307264 
L 86.739386 -228.976722 
L 86.808162 -230.646179 
L 86.874828 -232.315636 
L 86.941872 -233.985094 
L 87.011441 -235.654551 
L 87.085192 -237.324008 
L 87.164203 -238.993466 
L 87.248926 -240.662923 
L 89.942949 -240.662923 
L 89.942949 -240.662923 
L 90.027672 -238.993466 
L 90.106683 -237.324008 
L 90.180434 -235.654551 
L 90.250003 -233.985094 
L 90.317047 -232.315636 
L 90.383713 -230.646179 
L 90.452489 -228.976722 
L 90.526028 -227.307264 
L 90.606941 -225.637807 
L 90.697583 -223.968349 
L 90.799849 -222.298892 
L 90.914989 -220.629435 
L 91.043479 -218.959977 
L 91.184938 -217.29052 
L 91.338121 -215.621063 
L 91.500989 -213.951605 
L 91.670847 -212.282148 
L 91.844568 -210.61269 
L 92.018858 -208.943233 
L 92.190578 -207.273776 
L 92.357082 -205.604318 
L 92.516546 -203.934861 
L 92.668275 -202.265404 
L 92.81295 -200.595946 
L 92.952798 -198.926489 
L 93.091668 -197.257031 
L 93.234995 -195.587574 
L 93.389652 -193.918117 
L 93.563696 -192.248659 
L 93.766004 -190.579202 
L 94.005833 -188.909745 
L 94.292311 -187.240287 
L 94.633895 -185.57083 
L 95.037819 -183.901372 
L 95.509576 -182.231915 
L 96.052446 -180.562458 
L 96.667121 -178.893 
L 97.351435 -177.223543 
L 98.100248 -175.554086 
L 98.905475 -173.884628 
L 99.7563 -172.215171 
L 100.639564 -170.545714 
L 101.540325 -168.876256 
L 102.442587 -167.206799 
L 103.330146 -165.537341 
L 104.187536 -163.867884 
L 105.000992 -162.198427 
L 105.759384 -160.528969 
L 106.455021 -158.859512 
L 107.084269 -157.190055 
L 107.647891 -155.520597 
L 108.151065 -153.85114 
L 108.603035 -152.181682 
L 109.016417 -150.512225 
L 109.406165 -148.842768 
L 109.788305 -147.17331 
L 110.178515 -145.503853 
L 110.590705 -143.834396 
L 111.035719 -142.164938 
L 111.5203 -140.495481 
L 112.046437 -138.826023 
L 112.61116 -137.156566 
L 113.206814 -135.487109 
L 113.821798 -133.817651 
L 114.441684 -132.148194 
L 115.050601 -130.478737 
L 115.632748 -128.809279 
L 116.173859 -127.139822 
L 116.662466 -125.470364 
L 117.090832 -123.800907 
L 117.455457 -122.13145 
L 117.757086 -120.461992 
L 118.000252 -118.792535 
L 118.192387 -117.123078 
L 118.342606 -115.45362 
L 118.4603 -113.784163 
L 118.553684 -112.114706 
L 118.628455 -110.445248 
L 118.686699 -108.775791 
L 118.726158 -107.106333 
L 118.739937 -105.436876 
L 118.716669 -103.767419 
L 118.641137 -102.097961 
L 118.495297 -100.428504 
L 118.259608 -98.759047 
L 117.91455 -97.089589 
L 117.44222 -95.420132 
L 116.827848 -93.750674 
L 116.061132 -92.081217 
L 115.137271 -90.41176 
L 114.057631 -88.742302 
L 112.829981 -87.072845 
L 111.468301 -85.403388 
L 109.992176 -83.73393 
L 108.425831 -82.064473 
L 106.796896 -80.395015 
L 105.13498 -78.725558 
L 103.470193 -77.056101 
L 101.831692 -75.386643 
z
" style="stroke: #000000; stroke-opacity: 0.7"/>
    </defs>
    <g clip-path="url(#pcd4a2d7e22)">
     <use xlink:href="#m0784cfe5b2" x="0" y="319.952192" style="fill: #9edae5; fill-opacity: 0.7; stroke: #000000; stroke-opacity: 0.7"/>
    </g>
   </g>
   <g id="PolyCollection_2">
    <defs>
     <path id="mc06b9fc9b3" d="M 171.862078 -72.16174 
L 156.049797 -72.16174 
L 154.929481 -74.139029 
L 153.743205 -76.116318 
L 152.50206 -78.093607 
L 151.219075 -80.070896 
L 149.908857 -82.048185 
L 148.587126 -84.025474 
L 147.270157 -86.002763 
L 145.974158 -87.980053 
L 144.714622 -89.957342 
L 143.505698 -91.934631 
L 142.359621 -93.91192 
L 141.286262 -95.889209 
L 140.292812 -97.866498 
L 139.383656 -99.843787 
L 138.560421 -101.821076 
L 137.822205 -103.798365 
L 137.165962 -105.775654 
L 136.587 -107.752943 
L 136.079547 -109.730232 
L 135.637324 -111.707521 
L 135.254089 -113.68481 
L 134.924085 -115.662099 
L 134.642379 -117.639388 
L 134.405055 -119.616677 
L 134.209272 -121.593966 
L 134.05318 -123.571255 
L 133.935746 -125.548544 
L 133.8565 -127.525833 
L 133.81527 -129.503122 
L 133.811937 -131.480411 
L 133.846254 -133.4577 
L 133.917765 -135.434989 
L 134.025844 -137.412278 
L 134.169839 -139.389567 
L 134.349309 -141.366856 
L 134.564322 -143.344145 
L 134.815744 -145.321434 
L 135.105479 -147.298723 
L 135.4366 -149.276012 
L 135.813326 -151.253301 
L 136.240811 -153.23059 
L 136.724764 -155.207879 
L 137.270892 -157.185168 
L 137.884238 -159.162457 
L 138.568451 -161.139746 
L 139.325082 -163.117035 
L 140.152974 -165.094324 
L 141.047809 -167.071613 
L 142.001897 -169.048902 
L 143.004209 -171.026191 
L 144.040708 -173.003481 
L 145.094942 -174.98077 
L 146.148883 -176.958059 
L 147.183942 -178.935348 
L 148.18209 -180.912637 
L 149.127001 -182.889926 
L 150.005104 -184.867215 
L 150.806473 -186.844504 
L 151.525452 -188.821793 
L 152.160968 -190.799082 
L 152.716499 -192.776371 
L 153.199682 -194.75366 
L 153.621612 -196.730949 
L 153.995886 -198.708238 
L 154.337483 -200.685527 
L 154.661582 -202.662816 
L 154.982431 -204.640105 
L 155.312354 -206.617394 
L 155.660985 -208.594683 
L 156.034778 -210.571972 
L 156.436808 -212.549261 
L 156.866866 -214.52655 
L 157.321793 -216.503839 
L 157.796006 -218.481128 
L 158.282152 -220.458417 
L 158.771791 -222.435706 
L 159.256074 -224.412995 
L 159.726333 -226.390284 
L 160.174566 -228.367573 
L 160.593789 -230.344862 
L 160.978262 -232.322151 
L 161.323601 -234.29944 
L 161.626802 -236.276729 
L 161.886205 -238.254018 
L 162.101433 -240.231307 
L 162.273306 -242.208596 
L 162.403773 -244.185885 
L 162.495824 -246.163174 
L 162.553416 -248.140463 
L 162.58137 -250.117752 
L 162.585234 -252.095041 
L 162.571108 -254.07233 
L 162.545422 -256.049619 
L 162.514659 -258.026909 
L 162.485054 -260.004198 
L 162.462285 -261.981487 
L 162.451173 -263.958776 
L 162.455431 -265.936065 
L 162.477495 -267.913354 
L 165.43438 -267.913354 
L 165.43438 -267.913354 
L 165.456444 -265.936065 
L 165.460702 -263.958776 
L 165.44959 -261.981487 
L 165.426821 -260.004198 
L 165.397216 -258.026909 
L 165.366453 -256.049619 
L 165.340767 -254.07233 
L 165.326641 -252.095041 
L 165.330505 -250.117752 
L 165.358459 -248.140463 
L 165.416051 -246.163174 
L 165.508102 -244.185885 
L 165.638569 -242.208596 
L 165.810442 -240.231307 
L 166.02567 -238.254018 
L 166.285073 -236.276729 
L 166.588274 -234.29944 
L 166.933613 -232.322151 
L 167.318086 -230.344862 
L 167.737309 -228.367573 
L 168.185542 -226.390284 
L 168.655801 -224.412995 
L 169.140084 -222.435706 
L 169.629723 -220.458417 
L 170.115869 -218.481128 
L 170.590082 -216.503839 
L 171.045009 -214.52655 
L 171.475067 -212.549261 
L 171.877097 -210.571972 
L 172.25089 -208.594683 
L 172.599521 -206.617394 
L 172.929444 -204.640105 
L 173.250293 -202.662816 
L 173.574392 -200.685527 
L 173.915989 -198.708238 
L 174.290263 -196.730949 
L 174.712193 -194.75366 
L 175.195376 -192.776371 
L 175.750907 -190.799082 
L 176.386423 -188.821793 
L 177.105402 -186.844504 
L 177.906771 -184.867215 
L 178.784874 -182.889926 
L 179.729785 -180.912637 
L 180.727933 -178.935348 
L 181.762992 -176.958059 
L 182.816933 -174.98077 
L 183.871167 -173.003481 
L 184.907666 -171.026191 
L 185.909978 -169.048902 
L 186.864066 -167.071613 
L 187.758901 -165.094324 
L 188.586793 -163.117035 
L 189.343424 -161.139746 
L 190.027637 -159.162457 
L 190.640983 -157.185168 
L 191.187111 -155.207879 
L 191.671064 -153.23059 
L 192.098549 -151.253301 
L 192.475275 -149.276012 
L 192.806396 -147.298723 
L 193.096131 -145.321434 
L 193.347553 -143.344145 
L 193.562566 -141.366856 
L 193.742036 -139.389567 
L 193.886031 -137.412278 
L 193.99411 -135.434989 
L 194.065621 -133.4577 
L 194.099938 -131.480411 
L 194.096605 -129.503122 
L 194.055375 -127.525833 
L 193.976129 -125.548544 
L 193.858695 -123.571255 
L 193.702603 -121.593966 
L 193.50682 -119.616677 
L 193.269496 -117.639388 
L 192.98779 -115.662099 
L 192.657786 -113.68481 
L 192.274551 -111.707521 
L 191.832328 -109.730232 
L 191.324875 -107.752943 
L 190.745913 -105.775654 
L 190.08967 -103.798365 
L 189.351454 -101.821076 
L 188.528219 -99.843787 
L 187.619063 -97.866498 
L 186.625613 -95.889209 
L 185.552254 -93.91192 
L 184.406177 -91.934631 
L 183.197253 -89.957342 
L 181.937717 -87.980053 
L 180.641718 -86.002763 
L 179.324749 -84.025474 
L 178.003018 -82.048185 
L 176.6928 -80.070896 
L 175.409815 -78.093607 
L 174.16867 -76.116318 
L 172.982394 -74.139029 
L 171.862078 -72.16174 
z
" style="stroke: #000000; stroke-opacity: 0.7"/>
    </defs>
    <g clip-path="url(#pcd4a2d7e22)">
     <use xlink:href="#mc06b9fc9b3" x="0" y="319.952192" style="fill: #aec7e8; fill-opacity: 0.7; stroke: #000000; stroke-opacity: 0.7"/>
    </g>
   </g>
   <g id="PolyCollection_3">
    <defs>
     <path id="m9bee4ccd5f" d="M 249.458457 -71.83925 
L 229.173418 -71.83925 
L 228.00619 -73.238337 
L 226.801777 -74.637423 
L 225.573301 -76.03651 
L 224.334743 -77.435597 
L 223.100432 -78.834684 
L 221.884488 -80.23377 
L 220.700267 -81.632857 
L 219.559846 -83.031944 
L 218.473574 -84.43103 
L 217.449733 -85.830117 
L 216.49432 -87.229204 
L 215.610977 -88.628291 
L 214.80105 -90.027377 
L 214.063794 -91.426464 
L 213.396682 -92.825551 
L 212.795803 -94.224637 
L 212.256313 -95.623724 
L 211.772899 -97.022811 
L 211.340226 -98.421898 
L 210.95334 -99.820984 
L 210.607992 -101.220071 
L 210.300882 -102.619158 
L 210.029803 -104.018244 
L 209.793699 -105.417331 
L 209.59263 -106.816418 
L 209.427674 -108.215505 
L 209.300766 -109.614591 
L 209.214506 -111.013678 
L 209.171938 -112.412765 
L 209.176328 -113.811851 
L 209.230946 -115.210938 
L 209.33885 -116.610025 
L 209.502704 -118.009112 
L 209.724605 -119.408198 
L 210.005943 -120.807285 
L 210.347273 -122.206372 
L 210.748229 -123.605458 
L 211.207448 -125.004545 
L 211.722542 -126.403632 
L 212.290081 -127.802719 
L 212.905631 -129.201805 
L 213.56381 -130.600892 
L 214.258395 -131.999979 
L 214.982458 -133.399065 
L 215.728538 -134.798152 
L 216.488844 -136.197239 
L 217.255482 -137.596326 
L 218.020688 -138.995412 
L 218.777075 -140.394499 
L 219.517864 -141.793586 
L 220.237097 -143.192672 
L 220.929816 -144.591759 
L 221.592198 -145.990846 
L 222.221648 -147.389933 
L 222.816819 -148.789019 
L 223.377592 -150.188106 
L 223.90498 -151.587193 
L 224.400996 -152.986279 
L 224.868465 -154.385366 
L 225.310806 -155.784453 
L 225.731791 -157.18354 
L 226.1353 -158.582626 
L 226.52508 -159.981713 
L 226.904522 -161.3808 
L 227.276473 -162.779886 
L 227.643091 -164.178973 
L 228.005738 -165.57806 
L 228.36494 -166.977147 
L 228.720381 -168.376233 
L 229.070963 -169.77532 
L 229.414905 -171.174407 
L 229.749883 -172.573493 
L 230.073197 -173.97258 
L 230.38197 -175.371667 
L 230.67335 -176.770754 
L 230.944718 -178.16984 
L 231.193888 -179.568927 
L 231.419286 -180.968014 
L 231.620101 -182.3671 
L 231.796399 -183.766187 
L 231.949196 -185.165274 
L 232.080473 -186.564361 
L 232.193145 -187.963447 
L 232.290976 -189.362534 
L 232.378442 -190.761621 
L 232.460547 -192.160707 
L 232.542613 -193.559794 
L 232.630033 -194.958881 
L 232.728022 -196.357968 
L 232.841366 -197.757054 
L 232.974199 -199.156141 
L 233.129794 -200.555228 
L 233.310417 -201.954314 
L 233.517223 -203.353401 
L 233.750209 -204.752488 
L 234.008236 -206.151575 
L 234.289099 -207.550661 
L 234.589652 -208.949748 
L 234.905984 -210.348835 
L 243.725891 -210.348835 
L 243.725891 -210.348835 
L 244.042223 -208.949748 
L 244.342776 -207.550661 
L 244.623639 -206.151575 
L 244.881666 -204.752488 
L 245.114652 -203.353401 
L 245.321458 -201.954314 
L 245.502081 -200.555228 
L 245.657676 -199.156141 
L 245.790509 -197.757054 
L 245.903853 -196.357968 
L 246.001842 -194.958881 
L 246.089262 -193.559794 
L 246.171328 -192.160707 
L 246.253433 -190.761621 
L 246.340899 -189.362534 
L 246.43873 -187.963447 
L 246.551402 -186.564361 
L 246.682679 -185.165274 
L 246.835476 -183.766187 
L 247.011774 -182.3671 
L 247.212589 -180.968014 
L 247.437987 -179.568927 
L 247.687157 -178.16984 
L 247.958525 -176.770754 
L 248.249905 -175.371667 
L 248.558678 -173.97258 
L 248.881992 -172.573493 
L 249.21697 -171.174407 
L 249.560912 -169.77532 
L 249.911494 -168.376233 
L 250.266935 -166.977147 
L 250.626137 -165.57806 
L 250.988784 -164.178973 
L 251.355402 -162.779886 
L 251.727353 -161.3808 
L 252.106795 -159.981713 
L 252.496575 -158.582626 
L 252.900084 -157.18354 
L 253.321069 -155.784453 
L 253.76341 -154.385366 
L 254.230879 -152.986279 
L 254.726895 -151.587193 
L 255.254283 -150.188106 
L 255.815056 -148.789019 
L 256.410227 -147.389933 
L 257.039677 -145.990846 
L 257.702059 -144.591759 
L 258.394778 -143.192672 
L 259.114011 -141.793586 
L 259.8548 -140.394499 
L 260.611187 -138.995412 
L 261.376393 -137.596326 
L 262.143031 -136.197239 
L 262.903337 -134.798152 
L 263.649417 -133.399065 
L 264.37348 -131.999979 
L 265.068065 -130.600892 
L 265.726244 -129.201805 
L 266.341794 -127.802719 
L 266.909333 -126.403632 
L 267.424427 -125.004545 
L 267.883646 -123.605458 
L 268.284602 -122.206372 
L 268.625932 -120.807285 
L 268.90727 -119.408198 
L 269.129171 -118.009112 
L 269.293025 -116.610025 
L 269.400929 -115.210938 
L 269.455547 -113.811851 
L 269.459938 -112.412765 
L 269.417369 -111.013678 
L 269.331109 -109.614591 
L 269.204201 -108.215505 
L 269.039245 -106.816418 
L 268.838176 -105.417331 
L 268.602072 -104.018244 
L 268.330993 -102.619158 
L 268.023883 -101.220071 
L 267.678535 -99.820984 
L 267.291649 -98.421898 
L 266.858976 -97.022811 
L 266.375562 -95.623724 
L 265.836072 -94.224637 
L 265.235193 -92.825551 
L 264.568081 -91.426464 
L 263.830825 -90.027377 
L 263.020898 -88.628291 
L 262.137555 -87.229204 
L 261.182142 -85.830117 
L 260.158301 -84.43103 
L 259.072029 -83.031944 
L 257.931608 -81.632857 
L 256.747387 -80.23377 
L 255.531443 -78.834684 
L 254.297132 -77.435597 
L 253.058574 -76.03651 
L 251.830098 -74.637423 
L 250.625685 -73.238337 
L 249.458457 -71.83925 
z
" style="stroke: #000000; stroke-opacity: 0.7"/>
    </defs>
    <g clip-path="url(#pcd4a2d7e22)">
     <use xlink:href="#m9bee4ccd5f" x="0" y="319.952192" style="fill: #ffbb78; fill-opacity: 0.7; stroke: #000000; stroke-opacity: 0.7"/>
    </g>
   </g>
   <g id="PolyCollection_4">
    <defs>
     <path id="mbaf131f14a" d="M 329.45435 -74.257927 
L 299.897525 -74.257927 
L 298.531354 -76.209156 
L 297.164997 -78.160386 
L 295.813994 -80.111615 
L 294.493611 -82.062844 
L 293.218415 -84.014073 
L 292.001878 -85.965302 
L 290.856047 -87.916532 
L 289.791277 -89.867761 
L 288.816048 -91.81899 
L 287.936862 -93.770219 
L 287.158223 -95.721449 
L 286.482696 -97.672678 
L 285.911035 -99.623907 
L 285.442379 -101.575136 
L 285.074478 -103.526365 
L 284.803966 -105.477595 
L 284.626628 -107.428824 
L 284.537665 -109.380053 
L 284.531938 -111.331282 
L 284.60416 -113.282511 
L 284.749047 -115.233741 
L 284.961404 -117.18497 
L 285.236159 -119.136199 
L 285.568344 -121.087428 
L 285.953042 -123.038657 
L 286.385314 -124.989887 
L 286.86012 -126.941116 
L 287.37227 -128.892345 
L 287.916398 -130.843574 
L 288.486989 -132.794803 
L 289.078458 -134.746033 
L 289.685272 -136.697262 
L 290.302121 -138.648491 
L 290.924095 -140.59972 
L 291.54688 -142.550949 
L 292.166919 -144.502179 
L 292.78154 -146.453408 
L 293.389023 -148.404637 
L 293.988594 -150.355866 
L 294.580352 -152.307095 
L 295.165125 -154.258325 
L 295.744275 -156.209554 
L 296.319461 -158.160783 
L 296.892392 -160.112012 
L 297.464588 -162.063241 
L 298.03717 -164.014471 
L 298.610696 -165.9657 
L 299.185066 -167.916929 
L 299.759485 -169.868158 
L 300.332497 -171.819387 
L 300.902068 -173.770617 
L 301.465729 -175.721846 
L 302.020731 -177.673075 
L 302.564225 -179.624304 
L 303.093429 -181.575533 
L 303.605779 -183.526763 
L 304.099044 -185.477992 
L 304.57141 -187.429221 
L 305.021514 -189.38045 
L 305.448444 -191.331679 
L 305.851707 -193.282909 
L 306.231165 -195.234138 
L 306.586966 -197.185367 
L 306.919455 -199.136596 
L 307.229102 -201.087825 
L 307.516435 -203.039055 
L 307.781994 -204.990284 
L 308.0263 -206.941513 
L 308.249855 -208.892742 
L 308.453155 -210.843971 
L 308.636723 -212.795201 
L 308.80115 -214.74643 
L 308.947153 -216.697659 
L 309.075616 -218.648888 
L 309.18764 -220.600117 
L 309.284576 -222.551347 
L 309.368041 -224.502576 
L 309.439924 -226.453805 
L 309.502364 -228.405034 
L 309.557721 -230.356263 
L 309.608522 -232.307493 
L 309.657398 -234.258722 
L 309.707014 -236.209951 
L 309.759988 -238.16118 
L 309.818818 -240.112409 
L 309.885801 -242.063639 
L 309.962971 -244.014868 
L 310.052036 -245.966097 
L 310.154332 -247.917326 
L 310.270789 -249.868555 
L 310.401906 -251.819785 
L 310.547745 -253.771014 
L 310.707932 -255.722243 
L 310.881672 -257.673472 
L 311.067776 -259.624701 
L 311.2647 -261.575931 
L 311.470585 -263.52716 
L 311.683323 -265.478389 
L 311.900611 -267.429618 
L 317.451264 -267.429618 
L 317.451264 -267.429618 
L 317.668552 -265.478389 
L 317.88129 -263.52716 
L 318.087175 -261.575931 
L 318.284099 -259.624701 
L 318.470203 -257.673472 
L 318.643943 -255.722243 
L 318.80413 -253.771014 
L 318.949969 -251.819785 
L 319.081086 -249.868555 
L 319.197543 -247.917326 
L 319.299839 -245.966097 
L 319.388904 -244.014868 
L 319.466074 -242.063639 
L 319.533057 -240.112409 
L 319.591887 -238.16118 
L 319.644861 -236.209951 
L 319.694477 -234.258722 
L 319.743353 -232.307493 
L 319.794154 -230.356263 
L 319.849511 -228.405034 
L 319.911951 -226.453805 
L 319.983834 -224.502576 
L 320.067299 -222.551347 
L 320.164235 -220.600117 
L 320.276259 -218.648888 
L 320.404722 -216.697659 
L 320.550725 -214.74643 
L 320.715152 -212.795201 
L 320.89872 -210.843971 
L 321.10202 -208.892742 
L 321.325575 -206.941513 
L 321.569881 -204.990284 
L 321.83544 -203.039055 
L 322.122773 -201.087825 
L 322.43242 -199.136596 
L 322.764909 -197.185367 
L 323.12071 -195.234138 
L 323.500168 -193.282909 
L 323.903431 -191.331679 
L 324.330361 -189.38045 
L 324.780465 -187.429221 
L 325.252831 -185.477992 
L 325.746096 -183.526763 
L 326.258446 -181.575533 
L 326.78765 -179.624304 
L 327.331144 -177.673075 
L 327.886146 -175.721846 
L 328.449807 -173.770617 
L 329.019378 -171.819387 
L 329.59239 -169.868158 
L 330.166809 -167.916929 
L 330.741179 -165.9657 
L 331.314705 -164.014471 
L 331.887287 -162.063241 
L 332.459483 -160.112012 
L 333.032414 -158.160783 
L 333.6076 -156.209554 
L 334.18675 -154.258325 
L 334.771523 -152.307095 
L 335.363281 -150.355866 
L 335.962852 -148.404637 
L 336.570335 -146.453408 
L 337.184956 -144.502179 
L 337.804995 -142.550949 
L 338.42778 -140.59972 
L 339.049754 -138.648491 
L 339.666603 -136.697262 
L 340.273417 -134.746033 
L 340.864886 -132.794803 
L 341.435477 -130.843574 
L 341.979605 -128.892345 
L 342.491755 -126.941116 
L 342.966561 -124.989887 
L 343.398833 -123.038657 
L 343.783531 -121.087428 
L 344.115716 -119.136199 
L 344.390471 -117.18497 
L 344.602828 -115.233741 
L 344.747715 -113.282511 
L 344.819938 -111.331282 
L 344.81421 -109.380053 
L 344.725247 -107.428824 
L 344.547909 -105.477595 
L 344.277397 -103.526365 
L 343.909496 -101.575136 
L 343.44084 -99.623907 
L 342.869179 -97.672678 
L 342.193652 -95.721449 
L 341.415013 -93.770219 
L 340.535827 -91.81899 
L 339.560598 -89.867761 
L 338.495828 -87.916532 
L 337.349997 -85.965302 
L 336.13346 -84.014073 
L 334.858264 -82.062844 
L 333.537881 -80.111615 
L 332.186878 -78.160386 
L 330.820521 -76.209156 
L 329.45435 -74.257927 
z
" style="stroke: #000000; stroke-opacity: 0.7"/>
    </defs>
    <g clip-path="url(#pcd4a2d7e22)">
     <use xlink:href="#mbaf131f14a" x="0" y="319.952192" style="fill: #c49c94; fill-opacity: 0.7; stroke: #000000; stroke-opacity: 0.7"/>
    </g>
   </g>
   <g id="PolyCollection_5">
    <defs>
     <path id="m4319004348" d="M 400.727185 -74.419172 
L 379.34469 -74.419172 
L 377.780886 -76.490928 
L 376.141317 -78.562684 
L 374.45007 -80.63444 
L 372.734481 -82.706196 
L 371.024106 -84.777952 
L 369.349543 -86.849708 
L 367.741179 -88.921464 
L 366.227977 -90.993219 
L 364.836385 -93.064975 
L 363.589448 -95.136731 
L 362.506153 -97.208487 
L 361.601031 -99.280243 
L 360.883986 -101.351999 
L 360.3603 -103.423755 
L 360.030776 -105.495511 
L 359.891937 -107.567267 
L 359.936277 -109.639022 
L 360.152515 -111.710778 
L 360.525889 -113.782534 
L 361.038518 -115.85429 
L 361.669864 -117.926046 
L 362.397342 -119.997802 
L 363.197098 -122.069558 
L 364.044948 -124.141314 
L 364.917431 -126.213069 
L 365.792907 -128.284825 
L 366.652608 -130.356581 
L 367.481527 -132.428337 
L 368.269051 -134.500093 
L 369.009263 -136.571849 
L 369.700876 -138.643605 
L 370.346797 -140.715361 
L 370.953371 -142.787116 
L 371.529391 -144.858872 
L 372.084981 -146.930628 
L 372.630475 -149.002384 
L 373.17539 -151.07414 
L 373.727612 -153.145896 
L 374.29282 -155.217652 
L 374.874207 -157.289408 
L 375.47246 -159.361164 
L 376.085976 -161.432919 
L 376.711251 -163.504675 
L 377.343372 -165.576431 
L 377.976549 -167.648187 
L 378.604642 -169.719943 
L 379.221622 -171.791699 
L 379.82197 -173.863455 
L 380.400981 -175.935211 
L 380.954987 -178.006966 
L 381.481499 -180.078722 
L 381.97928 -182.150478 
L 382.448337 -184.222234 
L 382.889855 -186.29399 
L 383.306061 -188.365746 
L 383.700018 -190.437502 
L 384.075368 -192.509258 
L 384.436029 -194.581013 
L 384.785867 -196.652769 
L 385.128373 -198.724525 
L 385.466372 -200.796281 
L 385.801793 -202.868037 
L 386.135525 -204.939793 
L 386.467369 -207.011549 
L 386.79609 -209.083305 
L 387.119566 -211.15506 
L 387.435002 -213.226816 
L 387.739188 -215.298572 
L 388.02878 -217.370328 
L 388.300557 -219.442084 
L 388.551635 -221.51384 
L 388.779628 -223.585596 
L 388.98274 -225.657352 
L 389.159784 -227.729108 
L 389.31015 -229.800863 
L 389.433723 -231.872619 
L 389.530776 -233.944375 
L 389.601863 -236.016131 
L 389.647721 -238.087887 
L 389.669205 -240.159643 
L 389.667263 -242.231399 
L 389.642957 -244.303155 
L 389.597528 -246.37491 
L 389.532493 -248.446666 
L 389.449757 -250.518422 
L 389.351732 -252.590178 
L 389.241415 -254.661934 
L 389.122434 -256.73369 
L 388.99902 -258.805446 
L 388.875909 -260.877202 
L 388.758163 -262.948957 
L 388.650926 -265.020713 
L 388.559128 -267.092469 
L 388.487174 -269.164225 
L 388.438631 -271.235981 
L 388.415977 -273.307737 
L 388.420408 -275.379493 
L 388.451751 -277.451249 
L 388.50849 -279.523005 
L 391.563385 -279.523005 
L 391.563385 -279.523005 
L 391.620124 -277.451249 
L 391.651467 -275.379493 
L 391.655898 -273.307737 
L 391.633244 -271.235981 
L 391.584701 -269.164225 
L 391.512747 -267.092469 
L 391.420949 -265.020713 
L 391.313712 -262.948957 
L 391.195966 -260.877202 
L 391.072855 -258.805446 
L 390.949441 -256.73369 
L 390.83046 -254.661934 
L 390.720143 -252.590178 
L 390.622118 -250.518422 
L 390.539382 -248.446666 
L 390.474347 -246.37491 
L 390.428918 -244.303155 
L 390.404612 -242.231399 
L 390.40267 -240.159643 
L 390.424154 -238.087887 
L 390.470012 -236.016131 
L 390.541099 -233.944375 
L 390.638152 -231.872619 
L 390.761725 -229.800863 
L 390.912091 -227.729108 
L 391.089135 -225.657352 
L 391.292247 -223.585596 
L 391.52024 -221.51384 
L 391.771318 -219.442084 
L 392.043095 -217.370328 
L 392.332687 -215.298572 
L 392.636873 -213.226816 
L 392.952309 -211.15506 
L 393.275785 -209.083305 
L 393.604506 -207.011549 
L 393.93635 -204.939793 
L 394.270082 -202.868037 
L 394.605503 -200.796281 
L 394.943502 -198.724525 
L 395.286008 -196.652769 
L 395.635846 -194.581013 
L 395.996507 -192.509258 
L 396.371857 -190.437502 
L 396.765814 -188.365746 
L 397.18202 -186.29399 
L 397.623538 -184.222234 
L 398.092595 -182.150478 
L 398.590376 -180.078722 
L 399.116888 -178.006966 
L 399.670894 -175.935211 
L 400.249905 -173.863455 
L 400.850253 -171.791699 
L 401.467233 -169.719943 
L 402.095326 -167.648187 
L 402.728503 -165.576431 
L 403.360624 -163.504675 
L 403.985899 -161.432919 
L 404.599415 -159.361164 
L 405.197668 -157.289408 
L 405.779055 -155.217652 
L 406.344263 -153.145896 
L 406.896485 -151.07414 
L 407.4414 -149.002384 
L 407.986894 -146.930628 
L 408.542484 -144.858872 
L 409.118504 -142.787116 
L 409.725078 -140.715361 
L 410.370999 -138.643605 
L 411.062612 -136.571849 
L 411.802824 -134.500093 
L 412.590348 -132.428337 
L 413.419267 -130.356581 
L 414.278968 -128.284825 
L 415.154444 -126.213069 
L 416.026927 -124.141314 
L 416.874777 -122.069558 
L 417.674533 -119.997802 
L 418.402011 -117.926046 
L 419.033357 -115.85429 
L 419.545986 -113.782534 
L 419.91936 -111.710778 
L 420.135598 -109.639022 
L 420.179938 -107.567267 
L 420.041099 -105.495511 
L 419.711575 -103.423755 
L 419.187889 -101.351999 
L 418.470844 -99.280243 
L 417.565722 -97.208487 
L 416.482427 -95.136731 
L 415.23549 -93.064975 
L 413.843898 -90.993219 
L 412.330696 -88.921464 
L 410.722332 -86.849708 
L 409.047769 -84.777952 
L 407.337394 -82.706196 
L 405.621805 -80.63444 
L 403.930558 -78.562684 
L 402.290989 -76.490928 
L 400.727185 -74.419172 
z
" style="stroke: #000000; stroke-opacity: 0.7"/>
    </defs>
    <g clip-path="url(#pcd4a2d7e22)">
     <use xlink:href="#m4319004348" x="0" y="319.952192" style="fill: #ffd92f; fill-opacity: 0.7; stroke: #000000; stroke-opacity: 0.7"/>
    </g>
   </g>
   <g id="matplotlib.axis_1">
    <g id="xtick_1">
     <g id="line2d_1">
      <defs>
       <path id="m7b3058a1ea" d="M 0 0 
L 0 3.5 
" style="stroke: #000000; stroke-width: 0.8"/>
      </defs>
      <g>
       <use xlink:href="#m7b3058a1ea" x="88.595938" y="258.49713" style="stroke: #000000; stroke-width: 0.8"/>
      </g>
     </g>
     <g id="text_1">
      <!-- Urban Loft -->
      <g transform="translate(48.846372 309.323608) rotate(-45) scale(0.12 -0.12)">
       <defs>
        <path id="TimesNewRomanPSMT-55" d="M 3053 4122 
L 3053 4238 
L 4553 4238 
L 4553 4122 
L 4394 4122 
Q 4144 4122 4009 3913 
Q 3944 3816 3944 3463 
L 3944 1744 
Q 3944 1106 3817 754 
Q 3691 403 3320 151 
Q 2950 -100 2313 -100 
Q 1619 -100 1259 140 
Q 900 381 750 788 
Q 650 1066 650 1831 
L 650 3488 
Q 650 3878 542 4000 
Q 434 4122 194 4122 
L 34 4122 
L 34 4238 
L 1866 4238 
L 1866 4122 
L 1703 4122 
Q 1441 4122 1328 3956 
Q 1250 3844 1250 3488 
L 1250 1641 
Q 1250 1394 1295 1075 
Q 1341 756 1459 578 
Q 1578 400 1801 284 
Q 2025 169 2350 169 
Q 2766 169 3094 350 
Q 3422 531 3542 814 
Q 3663 1097 3663 1772 
L 3663 3488 
Q 3663 3884 3575 3984 
Q 3453 4122 3213 4122 
L 3053 4122 
z
" transform="scale(0.015625)"/>
        <path id="TimesNewRomanPSMT-72" d="M 1038 2947 
L 1038 2303 
Q 1397 2947 1775 2947 
Q 1947 2947 2059 2842 
Q 2172 2738 2172 2600 
Q 2172 2478 2090 2393 
Q 2009 2309 1897 2309 
Q 1788 2309 1652 2417 
Q 1516 2525 1450 2525 
Q 1394 2525 1328 2463 
Q 1188 2334 1038 2041 
L 1038 669 
Q 1038 431 1097 309 
Q 1138 225 1241 169 
Q 1344 113 1538 113 
L 1538 0 
L 72 0 
L 72 113 
Q 291 113 397 181 
Q 475 231 506 341 
Q 522 394 522 644 
L 522 1753 
Q 522 2253 501 2348 
Q 481 2444 426 2487 
Q 372 2531 291 2531 
Q 194 2531 72 2484 
L 41 2597 
L 906 2947 
L 1038 2947 
z
" transform="scale(0.015625)"/>
        <path id="TimesNewRomanPSMT-62" d="M 984 2369 
Q 1400 2947 1881 2947 
Q 2322 2947 2650 2570 
Q 2978 2194 2978 1541 
Q 2978 778 2472 313 
Q 2038 -88 1503 -88 
Q 1253 -88 995 3 
Q 738 94 469 275 
L 469 3241 
Q 469 3728 445 3840 
Q 422 3953 372 3993 
Q 322 4034 247 4034 
Q 159 4034 28 3984 
L -16 4094 
L 844 4444 
L 984 4444 
L 984 2369 
z
M 984 2169 
L 984 456 
Q 1144 300 1314 220 
Q 1484 141 1663 141 
Q 1947 141 2192 453 
Q 2438 766 2438 1363 
Q 2438 1913 2192 2208 
Q 1947 2503 1634 2503 
Q 1469 2503 1303 2419 
Q 1178 2356 984 2169 
z
" transform="scale(0.015625)"/>
        <path id="TimesNewRomanPSMT-61" d="M 1822 413 
Q 1381 72 1269 19 
Q 1100 -59 909 -59 
Q 613 -59 420 144 
Q 228 347 228 678 
Q 228 888 322 1041 
Q 450 1253 767 1440 
Q 1084 1628 1822 1897 
L 1822 2009 
Q 1822 2438 1686 2597 
Q 1550 2756 1291 2756 
Q 1094 2756 978 2650 
Q 859 2544 859 2406 
L 866 2225 
Q 866 2081 792 2003 
Q 719 1925 600 1925 
Q 484 1925 411 2006 
Q 338 2088 338 2228 
Q 338 2497 613 2722 
Q 888 2947 1384 2947 
Q 1766 2947 2009 2819 
Q 2194 2722 2281 2516 
Q 2338 2381 2338 1966 
L 2338 994 
Q 2338 584 2353 492 
Q 2369 400 2405 369 
Q 2441 338 2488 338 
Q 2538 338 2575 359 
Q 2641 400 2828 588 
L 2828 413 
Q 2478 -56 2159 -56 
Q 2006 -56 1915 50 
Q 1825 156 1822 413 
z
M 1822 616 
L 1822 1706 
Q 1350 1519 1213 1441 
Q 966 1303 859 1153 
Q 753 1003 753 825 
Q 753 600 887 451 
Q 1022 303 1197 303 
Q 1434 303 1822 616 
z
" transform="scale(0.015625)"/>
        <path id="TimesNewRomanPSMT-6e" d="M 1034 2341 
Q 1538 2947 1994 2947 
Q 2228 2947 2397 2830 
Q 2566 2713 2666 2444 
Q 2734 2256 2734 1869 
L 2734 647 
Q 2734 375 2778 278 
Q 2813 200 2889 156 
Q 2966 113 3172 113 
L 3172 0 
L 1756 0 
L 1756 113 
L 1816 113 
Q 2016 113 2095 173 
Q 2175 234 2206 353 
Q 2219 400 2219 647 
L 2219 1819 
Q 2219 2209 2117 2386 
Q 2016 2563 1775 2563 
Q 1403 2563 1034 2156 
L 1034 647 
Q 1034 356 1069 288 
Q 1113 197 1189 155 
Q 1266 113 1500 113 
L 1500 0 
L 84 0 
L 84 113 
L 147 113 
Q 366 113 442 223 
Q 519 334 519 647 
L 519 1709 
Q 519 2225 495 2337 
Q 472 2450 423 2490 
Q 375 2531 294 2531 
Q 206 2531 84 2484 
L 38 2597 
L 900 2947 
L 1034 2947 
L 1034 2341 
z
" transform="scale(0.015625)"/>
        <path id="TimesNewRomanPSMT-20" transform="scale(0.015625)"/>
        <path id="TimesNewRomanPSMT-4c" d="M 3669 1172 
L 3772 1150 
L 3409 0 
L 128 0 
L 128 116 
L 288 116 
Q 556 116 672 291 
Q 738 391 738 753 
L 738 3488 
Q 738 3884 650 3984 
Q 528 4122 288 4122 
L 128 4122 
L 128 4238 
L 2047 4238 
L 2047 4122 
Q 1709 4125 1573 4059 
Q 1438 3994 1388 3894 
Q 1338 3794 1338 3416 
L 1338 753 
Q 1338 494 1388 397 
Q 1425 331 1503 300 
Q 1581 269 1991 269 
L 2300 269 
Q 2788 269 2984 341 
Q 3181 413 3343 595 
Q 3506 778 3669 1172 
z
" transform="scale(0.015625)"/>
        <path id="TimesNewRomanPSMT-6f" d="M 1600 2947 
Q 2250 2947 2644 2453 
Q 2978 2031 2978 1484 
Q 2978 1100 2793 706 
Q 2609 313 2286 112 
Q 1963 -88 1566 -88 
Q 919 -88 538 428 
Q 216 863 216 1403 
Q 216 1797 411 2186 
Q 606 2575 925 2761 
Q 1244 2947 1600 2947 
z
M 1503 2744 
Q 1338 2744 1170 2645 
Q 1003 2547 900 2300 
Q 797 2053 797 1666 
Q 797 1041 1045 587 
Q 1294 134 1700 134 
Q 2003 134 2200 384 
Q 2397 634 2397 1244 
Q 2397 2006 2069 2444 
Q 1847 2744 1503 2744 
z
" transform="scale(0.015625)"/>
        <path id="TimesNewRomanPSMT-66" d="M 1319 2638 
L 1319 756 
Q 1319 356 1406 250 
Q 1522 113 1716 113 
L 1975 113 
L 1975 0 
L 266 0 
L 266 113 
L 394 113 
Q 519 113 622 175 
Q 725 238 764 344 
Q 803 450 803 756 
L 803 2638 
L 247 2638 
L 247 2863 
L 803 2863 
L 803 3050 
Q 803 3478 940 3775 
Q 1078 4072 1361 4255 
Q 1644 4438 1997 4438 
Q 2325 4438 2600 4225 
Q 2781 4084 2781 3909 
Q 2781 3816 2700 3733 
Q 2619 3650 2525 3650 
Q 2453 3650 2373 3701 
Q 2294 3753 2178 3923 
Q 2063 4094 1966 4153 
Q 1869 4213 1750 4213 
Q 1606 4213 1506 4136 
Q 1406 4059 1362 3898 
Q 1319 3738 1319 3069 
L 1319 2863 
L 2056 2863 
L 2056 2638 
L 1319 2638 
z
" transform="scale(0.015625)"/>
        <path id="TimesNewRomanPSMT-74" d="M 1031 3803 
L 1031 2863 
L 1700 2863 
L 1700 2644 
L 1031 2644 
L 1031 788 
Q 1031 509 1111 412 
Q 1191 316 1316 316 
Q 1419 316 1516 380 
Q 1613 444 1666 569 
L 1788 569 
Q 1678 263 1478 108 
Q 1278 -47 1066 -47 
Q 922 -47 784 33 
Q 647 113 581 261 
Q 516 409 516 719 
L 516 2644 
L 63 2644 
L 63 2747 
Q 234 2816 414 2980 
Q 594 3144 734 3369 
Q 806 3488 934 3803 
L 1031 3803 
z
" transform="scale(0.015625)"/>
       </defs>
       <use xlink:href="#TimesNewRomanPSMT-55"/>
       <use xlink:href="#TimesNewRomanPSMT-72" x="72.216797"/>
       <use xlink:href="#TimesNewRomanPSMT-62" x="105.517578"/>
       <use xlink:href="#TimesNewRomanPSMT-61" x="155.517578"/>
       <use xlink:href="#TimesNewRomanPSMT-6e" x="199.902344"/>
       <use xlink:href="#TimesNewRomanPSMT-20" x="249.902344"/>
       <use xlink:href="#TimesNewRomanPSMT-4c" x="274.902344"/>
       <use xlink:href="#TimesNewRomanPSMT-6f" x="335.986328"/>
       <use xlink:href="#TimesNewRomanPSMT-66" x="385.986328"/>
       <use xlink:href="#TimesNewRomanPSMT-74" x="419.287109"/>
      </g>
     </g>
    </g>
    <g id="xtick_2">
     <g id="line2d_2">
      <g>
       <use xlink:href="#m7b3058a1ea" x="163.955938" y="258.49713" style="stroke: #000000; stroke-width: 0.8"/>
      </g>
     </g>
     <g id="text_2">
      <!-- Tiny House -->
      <g transform="translate(122.592842 310.921228) rotate(-45) scale(0.12 -0.12)">
       <defs>
        <path id="TimesNewRomanPSMT-54" d="M 3703 4238 
L 3750 3244 
L 3631 3244 
Q 3597 3506 3538 3619 
Q 3441 3800 3280 3886 
Q 3119 3972 2856 3972 
L 2259 3972 
L 2259 734 
Q 2259 344 2344 247 
Q 2463 116 2709 116 
L 2856 116 
L 2856 0 
L 1059 0 
L 1059 116 
L 1209 116 
Q 1478 116 1591 278 
Q 1659 378 1659 734 
L 1659 3972 
L 1150 3972 
Q 853 3972 728 3928 
Q 566 3869 450 3700 
Q 334 3531 313 3244 
L 194 3244 
L 244 4238 
L 3703 4238 
z
" transform="scale(0.015625)"/>
        <path id="TimesNewRomanPSMT-69" d="M 928 4444 
Q 1059 4444 1151 4351 
Q 1244 4259 1244 4128 
Q 1244 3997 1151 3903 
Q 1059 3809 928 3809 
Q 797 3809 703 3903 
Q 609 3997 609 4128 
Q 609 4259 701 4351 
Q 794 4444 928 4444 
z
M 1188 2947 
L 1188 647 
Q 1188 378 1227 289 
Q 1266 200 1342 156 
Q 1419 113 1622 113 
L 1622 0 
L 231 0 
L 231 113 
Q 441 113 512 153 
Q 584 194 626 287 
Q 669 381 669 647 
L 669 1750 
Q 669 2216 641 2353 
Q 619 2453 572 2492 
Q 525 2531 444 2531 
Q 356 2531 231 2484 
L 188 2597 
L 1050 2947 
L 1188 2947 
z
" transform="scale(0.015625)"/>
        <path id="TimesNewRomanPSMT-79" d="M 38 2863 
L 1372 2863 
L 1372 2747 
L 1306 2747 
Q 1166 2747 1095 2686 
Q 1025 2625 1025 2534 
Q 1025 2413 1128 2197 
L 1825 753 
L 2466 2334 
Q 2519 2463 2519 2588 
Q 2519 2644 2497 2672 
Q 2472 2706 2419 2726 
Q 2366 2747 2231 2747 
L 2231 2863 
L 3163 2863 
L 3163 2747 
Q 3047 2734 2984 2696 
Q 2922 2659 2847 2556 
Q 2819 2513 2741 2316 
L 1575 -541 
Q 1406 -956 1132 -1168 
Q 859 -1381 606 -1381 
Q 422 -1381 303 -1275 
Q 184 -1169 184 -1031 
Q 184 -900 270 -820 
Q 356 -741 506 -741 
Q 609 -741 788 -809 
Q 913 -856 944 -856 
Q 1038 -856 1148 -759 
Q 1259 -663 1372 -384 
L 1575 113 
L 547 2272 
Q 500 2369 397 2513 
Q 319 2622 269 2659 
Q 197 2709 38 2747 
L 38 2863 
z
" transform="scale(0.015625)"/>
        <path id="TimesNewRomanPSMT-48" d="M 1316 2272 
L 3284 2272 
L 3284 3484 
Q 3284 3809 3244 3913 
Q 3213 3991 3113 4047 
Q 2978 4122 2828 4122 
L 2678 4122 
L 2678 4238 
L 4491 4238 
L 4491 4122 
L 4341 4122 
Q 4191 4122 4056 4050 
Q 3956 4000 3920 3898 
Q 3884 3797 3884 3484 
L 3884 750 
Q 3884 428 3925 325 
Q 3956 247 4053 191 
Q 4191 116 4341 116 
L 4491 116 
L 4491 0 
L 2678 0 
L 2678 116 
L 2828 116 
Q 3088 116 3206 269 
Q 3284 369 3284 750 
L 3284 2041 
L 1316 2041 
L 1316 750 
Q 1316 428 1356 325 
Q 1388 247 1488 191 
Q 1622 116 1772 116 
L 1925 116 
L 1925 0 
L 109 0 
L 109 116 
L 259 116 
Q 522 116 641 269 
Q 716 369 716 750 
L 716 3484 
Q 716 3809 675 3913 
Q 644 3991 547 4047 
Q 409 4122 259 4122 
L 109 4122 
L 109 4238 
L 1925 4238 
L 1925 4122 
L 1772 4122 
Q 1622 4122 1488 4050 
Q 1391 4000 1353 3898 
Q 1316 3797 1316 3484 
L 1316 2272 
z
" transform="scale(0.015625)"/>
        <path id="TimesNewRomanPSMT-75" d="M 2709 2863 
L 2709 1128 
Q 2709 631 2732 520 
Q 2756 409 2807 365 
Q 2859 322 2928 322 
Q 3025 322 3147 375 
L 3191 266 
L 2334 -88 
L 2194 -88 
L 2194 519 
Q 1825 119 1631 15 
Q 1438 -88 1222 -88 
Q 981 -88 804 51 
Q 628 191 559 409 
Q 491 628 491 1028 
L 491 2306 
Q 491 2509 447 2587 
Q 403 2666 317 2708 
Q 231 2750 6 2747 
L 6 2863 
L 1009 2863 
L 1009 947 
Q 1009 547 1148 422 
Q 1288 297 1484 297 
Q 1619 297 1789 381 
Q 1959 466 2194 703 
L 2194 2325 
Q 2194 2569 2105 2655 
Q 2016 2741 1734 2747 
L 1734 2863 
L 2709 2863 
z
" transform="scale(0.015625)"/>
        <path id="TimesNewRomanPSMT-73" d="M 2050 2947 
L 2050 1972 
L 1947 1972 
Q 1828 2431 1642 2597 
Q 1456 2763 1169 2763 
Q 950 2763 815 2647 
Q 681 2531 681 2391 
Q 681 2216 781 2091 
Q 878 1963 1175 1819 
L 1631 1597 
Q 2266 1288 2266 781 
Q 2266 391 1970 151 
Q 1675 -88 1309 -88 
Q 1047 -88 709 6 
Q 606 38 541 38 
Q 469 38 428 -44 
L 325 -44 
L 325 978 
L 428 978 
Q 516 541 762 319 
Q 1009 97 1316 97 
Q 1531 97 1667 223 
Q 1803 350 1803 528 
Q 1803 744 1651 891 
Q 1500 1038 1047 1263 
Q 594 1488 453 1669 
Q 313 1847 313 2119 
Q 313 2472 555 2709 
Q 797 2947 1181 2947 
Q 1350 2947 1591 2875 
Q 1750 2828 1803 2828 
Q 1853 2828 1881 2850 
Q 1909 2872 1947 2947 
L 2050 2947 
z
" transform="scale(0.015625)"/>
        <path id="TimesNewRomanPSMT-65" d="M 681 1784 
Q 678 1147 991 784 
Q 1303 422 1725 422 
Q 2006 422 2214 576 
Q 2422 731 2563 1106 
L 2659 1044 
Q 2594 616 2278 264 
Q 1963 -88 1488 -88 
Q 972 -88 605 314 
Q 238 716 238 1394 
Q 238 2128 614 2539 
Q 991 2950 1559 2950 
Q 2041 2950 2350 2633 
Q 2659 2316 2659 1784 
L 681 1784 
z
M 681 1966 
L 2006 1966 
Q 1991 2241 1941 2353 
Q 1863 2528 1708 2628 
Q 1553 2728 1384 2728 
Q 1125 2728 920 2526 
Q 716 2325 681 1966 
z
" transform="scale(0.015625)"/>
       </defs>
       <use xlink:href="#TimesNewRomanPSMT-54"/>
       <use xlink:href="#TimesNewRomanPSMT-69" x="57.583984"/>
       <use xlink:href="#TimesNewRomanPSMT-6e" x="85.367188"/>
       <use xlink:href="#TimesNewRomanPSMT-79" x="135.367188"/>
       <use xlink:href="#TimesNewRomanPSMT-20" x="185.367188"/>
       <use xlink:href="#TimesNewRomanPSMT-48" x="210.367188"/>
       <use xlink:href="#TimesNewRomanPSMT-6f" x="282.583984"/>
       <use xlink:href="#TimesNewRomanPSMT-75" x="332.583984"/>
       <use xlink:href="#TimesNewRomanPSMT-73" x="382.583984"/>
       <use xlink:href="#TimesNewRomanPSMT-65" x="421.5"/>
      </g>
     </g>
    </g>
    <g id="xtick_3">
     <g id="line2d_3">
      <g>
       <use xlink:href="#m7b3058a1ea" x="239.315937" y="258.49713" style="stroke: #000000; stroke-width: 0.8"/>
      </g>
     </g>
     <g id="text_3">
      <!-- Bungalow -->
      <g transform="translate(202.602511 306.271559) rotate(-45) scale(0.12 -0.12)">
       <defs>
        <path id="TimesNewRomanPSMT-42" d="M 2956 2163 
Q 3397 2069 3616 1863 
Q 3919 1575 3919 1159 
Q 3919 844 3719 555 
Q 3519 266 3170 133 
Q 2822 0 2106 0 
L 106 0 
L 106 116 
L 266 116 
Q 531 116 647 284 
Q 719 394 719 750 
L 719 3488 
Q 719 3881 628 3984 
Q 506 4122 266 4122 
L 106 4122 
L 106 4238 
L 1938 4238 
Q 2450 4238 2759 4163 
Q 3228 4050 3475 3764 
Q 3722 3478 3722 3106 
Q 3722 2788 3528 2536 
Q 3334 2284 2956 2163 
z
M 1319 2331 
Q 1434 2309 1582 2298 
Q 1731 2288 1909 2288 
Q 2366 2288 2595 2386 
Q 2825 2484 2947 2687 
Q 3069 2891 3069 3131 
Q 3069 3503 2766 3765 
Q 2463 4028 1881 4028 
Q 1569 4028 1319 3959 
L 1319 2331 
z
M 1319 306 
Q 1681 222 2034 222 
Q 2600 222 2897 476 
Q 3194 731 3194 1106 
Q 3194 1353 3059 1581 
Q 2925 1809 2622 1940 
Q 2319 2072 1872 2072 
Q 1678 2072 1540 2065 
Q 1403 2059 1319 2044 
L 1319 306 
z
" transform="scale(0.015625)"/>
        <path id="TimesNewRomanPSMT-67" d="M 966 1044 
Q 703 1172 562 1401 
Q 422 1631 422 1909 
Q 422 2334 742 2640 
Q 1063 2947 1563 2947 
Q 1972 2947 2272 2747 
L 2878 2747 
Q 3013 2747 3034 2739 
Q 3056 2731 3066 2713 
Q 3084 2684 3084 2613 
Q 3084 2531 3069 2500 
Q 3059 2484 3036 2475 
Q 3013 2466 2878 2466 
L 2506 2466 
Q 2681 2241 2681 1891 
Q 2681 1491 2375 1206 
Q 2069 922 1553 922 
Q 1341 922 1119 984 
Q 981 866 932 777 
Q 884 688 884 625 
Q 884 572 936 522 
Q 988 472 1138 450 
Q 1225 438 1575 428 
Q 2219 413 2409 384 
Q 2700 344 2873 169 
Q 3047 -6 3047 -263 
Q 3047 -616 2716 -925 
Q 2228 -1381 1444 -1381 
Q 841 -1381 425 -1109 
Q 191 -953 191 -784 
Q 191 -709 225 -634 
Q 278 -519 444 -313 
Q 466 -284 763 25 
Q 600 122 533 198 
Q 466 275 466 372 
Q 466 481 555 628 
Q 644 775 966 1044 
z
M 1509 2797 
Q 1278 2797 1122 2612 
Q 966 2428 966 2047 
Q 966 1553 1178 1281 
Q 1341 1075 1591 1075 
Q 1828 1075 1981 1253 
Q 2134 1431 2134 1813 
Q 2134 2309 1919 2591 
Q 1759 2797 1509 2797 
z
M 934 0 
Q 788 -159 713 -296 
Q 638 -434 638 -550 
Q 638 -700 819 -813 
Q 1131 -1006 1722 -1006 
Q 2284 -1006 2551 -807 
Q 2819 -609 2819 -384 
Q 2819 -222 2659 -153 
Q 2497 -84 2016 -72 
Q 1313 -53 934 0 
z
" transform="scale(0.015625)"/>
        <path id="TimesNewRomanPSMT-6c" d="M 1184 4444 
L 1184 647 
Q 1184 378 1223 290 
Q 1263 203 1344 158 
Q 1425 113 1647 113 
L 1647 0 
L 244 0 
L 244 113 
Q 441 113 512 153 
Q 584 194 625 287 
Q 666 381 666 647 
L 666 3247 
Q 666 3731 644 3842 
Q 622 3953 573 3993 
Q 525 4034 450 4034 
Q 369 4034 244 3984 
L 191 4094 
L 1044 4444 
L 1184 4444 
z
" transform="scale(0.015625)"/>
        <path id="TimesNewRomanPSMT-77" d="M 41 2863 
L 1241 2863 
L 1241 2747 
Q 1075 2734 1023 2687 
Q 972 2641 972 2553 
Q 972 2456 1025 2319 
L 1638 672 
L 2253 2013 
L 2091 2434 
Q 2016 2622 1894 2694 
Q 1825 2738 1638 2747 
L 1638 2863 
L 3000 2863 
L 3000 2747 
Q 2775 2738 2681 2666 
Q 2619 2616 2619 2506 
Q 2619 2444 2644 2378 
L 3294 734 
L 3897 2319 
Q 3959 2488 3959 2588 
Q 3959 2647 3898 2694 
Q 3838 2741 3659 2747 
L 3659 2863 
L 4563 2863 
L 4563 2747 
Q 4291 2706 4163 2378 
L 3206 -88 
L 3078 -88 
L 2363 1741 
L 1528 -88 
L 1413 -88 
L 494 2319 
Q 403 2547 315 2626 
Q 228 2706 41 2747 
L 41 2863 
z
" transform="scale(0.015625)"/>
       </defs>
       <use xlink:href="#TimesNewRomanPSMT-42"/>
       <use xlink:href="#TimesNewRomanPSMT-75" x="66.699219"/>
       <use xlink:href="#TimesNewRomanPSMT-6e" x="116.699219"/>
       <use xlink:href="#TimesNewRomanPSMT-67" x="166.699219"/>
       <use xlink:href="#TimesNewRomanPSMT-61" x="216.699219"/>
       <use xlink:href="#TimesNewRomanPSMT-6c" x="261.083984"/>
       <use xlink:href="#TimesNewRomanPSMT-6f" x="288.867188"/>
       <use xlink:href="#TimesNewRomanPSMT-77" x="338.867188"/>
      </g>
     </g>
    </g>
    <g id="xtick_4">
     <g id="line2d_4">
      <g>
       <use xlink:href="#m7b3058a1ea" x="314.675938" y="258.49713" style="stroke: #000000; stroke-width: 0.8"/>
      </g>
     </g>
     <g id="text_4">
      <!-- Townhouse -->
      <g transform="translate(273.861734 310.388246) rotate(-45) scale(0.12 -0.12)">
       <defs>
        <path id="TimesNewRomanPSMT-68" d="M 1041 4444 
L 1041 2350 
Q 1388 2731 1591 2839 
Q 1794 2947 1997 2947 
Q 2241 2947 2416 2812 
Q 2591 2678 2675 2391 
Q 2734 2191 2734 1659 
L 2734 647 
Q 2734 375 2778 275 
Q 2809 200 2884 156 
Q 2959 113 3159 113 
L 3159 0 
L 1753 0 
L 1753 113 
L 1819 113 
Q 2019 113 2097 173 
Q 2175 234 2206 353 
Q 2216 403 2216 647 
L 2216 1659 
Q 2216 2128 2167 2275 
Q 2119 2422 2012 2495 
Q 1906 2569 1756 2569 
Q 1603 2569 1437 2487 
Q 1272 2406 1041 2159 
L 1041 647 
Q 1041 353 1073 281 
Q 1106 209 1195 161 
Q 1284 113 1503 113 
L 1503 0 
L 84 0 
L 84 113 
Q 275 113 384 172 
Q 447 203 484 290 
Q 522 378 522 647 
L 522 3238 
Q 522 3728 498 3840 
Q 475 3953 426 3993 
Q 378 4034 297 4034 
Q 231 4034 84 3984 
L 41 4094 
L 897 4444 
L 1041 4444 
z
" transform="scale(0.015625)"/>
       </defs>
       <use xlink:href="#TimesNewRomanPSMT-54"/>
       <use xlink:href="#TimesNewRomanPSMT-6f" x="54.083984"/>
       <use xlink:href="#TimesNewRomanPSMT-77" x="104.083984"/>
       <use xlink:href="#TimesNewRomanPSMT-6e" x="176.300781"/>
       <use xlink:href="#TimesNewRomanPSMT-68" x="226.300781"/>
       <use xlink:href="#TimesNewRomanPSMT-6f" x="276.300781"/>
       <use xlink:href="#TimesNewRomanPSMT-75" x="326.300781"/>
       <use xlink:href="#TimesNewRomanPSMT-73" x="376.300781"/>
       <use xlink:href="#TimesNewRomanPSMT-65" x="415.216797"/>
      </g>
     </g>
    </g>
    <g id="xtick_5">
     <g id="line2d_5">
      <g>
       <use xlink:href="#m7b3058a1ea" x="390.035938" y="258.49713" style="stroke: #000000; stroke-width: 0.8"/>
      </g>
     </g>
     <g id="text_5">
      <!-- Duplex -->
      <g transform="translate(363.24101 296.36897) rotate(-45) scale(0.12 -0.12)">
       <defs>
        <path id="TimesNewRomanPSMT-44" d="M 109 0 
L 109 116 
L 269 116 
Q 538 116 650 288 
Q 719 391 719 750 
L 719 3488 
Q 719 3884 631 3984 
Q 509 4122 269 4122 
L 109 4122 
L 109 4238 
L 1834 4238 
Q 2784 4238 3279 4022 
Q 3775 3806 4076 3303 
Q 4378 2800 4378 2141 
Q 4378 1256 3841 663 
Q 3238 0 2003 0 
L 109 0 
z
M 1319 306 
Q 1716 219 1984 219 
Q 2709 219 3187 728 
Q 3666 1238 3666 2109 
Q 3666 2988 3187 3494 
Q 2709 4000 1959 4000 
Q 1678 4000 1319 3909 
L 1319 306 
z
" transform="scale(0.015625)"/>
        <path id="TimesNewRomanPSMT-70" d="M -6 2578 
L 875 2934 
L 994 2934 
L 994 2266 
Q 1216 2644 1439 2795 
Q 1663 2947 1909 2947 
Q 2341 2947 2628 2609 
Q 2981 2197 2981 1534 
Q 2981 794 2556 309 
Q 2206 -88 1675 -88 
Q 1444 -88 1275 -22 
Q 1150 25 994 166 
L 994 -706 
Q 994 -1000 1030 -1079 
Q 1066 -1159 1155 -1206 
Q 1244 -1253 1478 -1253 
L 1478 -1369 
L -22 -1369 
L -22 -1253 
L 56 -1253 
Q 228 -1256 350 -1188 
Q 409 -1153 442 -1076 
Q 475 -1000 475 -688 
L 475 2019 
Q 475 2297 450 2372 
Q 425 2447 370 2484 
Q 316 2522 222 2522 
Q 147 2522 31 2478 
L -6 2578 
z
M 994 2081 
L 994 1013 
Q 994 666 1022 556 
Q 1066 375 1236 237 
Q 1406 100 1666 100 
Q 1978 100 2172 344 
Q 2425 663 2425 1241 
Q 2425 1897 2138 2250 
Q 1938 2494 1663 2494 
Q 1513 2494 1366 2419 
Q 1253 2363 994 2081 
z
" transform="scale(0.015625)"/>
        <path id="TimesNewRomanPSMT-78" d="M 84 2863 
L 1431 2863 
L 1431 2747 
Q 1303 2747 1251 2703 
Q 1200 2659 1200 2588 
Q 1200 2513 1309 2356 
Q 1344 2306 1413 2200 
L 1616 1875 
L 1850 2200 
Q 2075 2509 2075 2591 
Q 2075 2656 2022 2701 
Q 1969 2747 1850 2747 
L 1850 2863 
L 2819 2863 
L 2819 2747 
Q 2666 2738 2553 2663 
Q 2400 2556 2134 2200 
L 1744 1678 
L 2456 653 
Q 2719 275 2831 198 
Q 2944 122 3122 113 
L 3122 0 
L 1772 0 
L 1772 113 
Q 1913 113 1991 175 
Q 2050 219 2050 291 
Q 2050 363 1850 653 
L 1431 1266 
L 972 653 
Q 759 369 759 316 
Q 759 241 829 180 
Q 900 119 1041 113 
L 1041 0 
L 106 0 
L 106 113 
Q 219 128 303 191 
Q 422 281 703 653 
L 1303 1450 
L 759 2238 
Q 528 2575 401 2661 
Q 275 2747 84 2747 
L 84 2863 
z
" transform="scale(0.015625)"/>
       </defs>
       <use xlink:href="#TimesNewRomanPSMT-44"/>
       <use xlink:href="#TimesNewRomanPSMT-75" x="72.216797"/>
       <use xlink:href="#TimesNewRomanPSMT-70" x="122.216797"/>
       <use xlink:href="#TimesNewRomanPSMT-6c" x="172.216797"/>
       <use xlink:href="#TimesNewRomanPSMT-65" x="200"/>
       <use xlink:href="#TimesNewRomanPSMT-78" x="244.384766"/>
      </g>
     </g>
    </g>
   </g>
   <g id="matplotlib.axis_2">
    <g id="ytick_1">
     <g id="line2d_6">
      <defs>
       <path id="mdbaa56bf80" d="M 0 0 
L -3.5 0 
" style="stroke: #000000; stroke-width: 0.8"/>
      </defs>
      <g>
       <use xlink:href="#mdbaa56bf80" x="50.915938" y="231.665937" style="stroke: #000000; stroke-width: 0.8"/>
      </g>
     </g>
     <g id="text_6">
      <!-- 400 -->
      <g transform="translate(28.915938 235.137812) scale(0.1 -0.1)">
       <defs>
        <path id="TimesNewRomanPSMT-34" d="M 2978 1563 
L 2978 1119 
L 2409 1119 
L 2409 0 
L 1894 0 
L 1894 1119 
L 100 1119 
L 100 1519 
L 2066 4325 
L 2409 4325 
L 2409 1563 
L 2978 1563 
z
M 1894 1563 
L 1894 3666 
L 406 1563 
L 1894 1563 
z
" transform="scale(0.015625)"/>
        <path id="TimesNewRomanPSMT-30" d="M 231 2094 
Q 231 2819 450 3342 
Q 669 3866 1031 4122 
Q 1313 4325 1613 4325 
Q 2100 4325 2488 3828 
Q 2972 3213 2972 2159 
Q 2972 1422 2759 906 
Q 2547 391 2217 158 
Q 1888 -75 1581 -75 
Q 975 -75 572 641 
Q 231 1244 231 2094 
z
M 844 2016 
Q 844 1141 1059 588 
Q 1238 122 1591 122 
Q 1759 122 1940 273 
Q 2122 425 2216 781 
Q 2359 1319 2359 2297 
Q 2359 3022 2209 3506 
Q 2097 3866 1919 4016 
Q 1791 4119 1609 4119 
Q 1397 4119 1231 3928 
Q 1006 3669 925 3112 
Q 844 2556 844 2016 
z
" transform="scale(0.015625)"/>
       </defs>
       <use xlink:href="#TimesNewRomanPSMT-34"/>
       <use xlink:href="#TimesNewRomanPSMT-30" x="50"/>
       <use xlink:href="#TimesNewRomanPSMT-30" x="100"/>
      </g>
     </g>
    </g>
    <g id="ytick_2">
     <g id="line2d_7">
      <g>
       <use xlink:href="#mdbaa56bf80" x="50.915938" y="199.416907" style="stroke: #000000; stroke-width: 0.8"/>
      </g>
     </g>
     <g id="text_7">
      <!-- 600 -->
      <g transform="translate(28.915938 202.888782) scale(0.1 -0.1)">
       <defs>
        <path id="TimesNewRomanPSMT-36" d="M 2869 4325 
L 2869 4209 
Q 2456 4169 2195 4045 
Q 1934 3922 1679 3669 
Q 1425 3416 1258 3105 
Q 1091 2794 978 2366 
Q 1428 2675 1881 2675 
Q 2316 2675 2634 2325 
Q 2953 1975 2953 1425 
Q 2953 894 2631 456 
Q 2244 -75 1606 -75 
Q 1172 -75 869 213 
Q 275 772 275 1663 
Q 275 2231 503 2743 
Q 731 3256 1154 3653 
Q 1578 4050 1965 4187 
Q 2353 4325 2688 4325 
L 2869 4325 
z
M 925 2138 
Q 869 1716 869 1456 
Q 869 1156 980 804 
Q 1091 453 1309 247 
Q 1469 100 1697 100 
Q 1969 100 2183 356 
Q 2397 613 2397 1088 
Q 2397 1622 2184 2012 
Q 1972 2403 1581 2403 
Q 1463 2403 1327 2353 
Q 1191 2303 925 2138 
z
" transform="scale(0.015625)"/>
       </defs>
       <use xlink:href="#TimesNewRomanPSMT-36"/>
       <use xlink:href="#TimesNewRomanPSMT-30" x="50"/>
       <use xlink:href="#TimesNewRomanPSMT-30" x="100"/>
      </g>
     </g>
    </g>
    <g id="ytick_3">
     <g id="line2d_8">
      <g>
       <use xlink:href="#mdbaa56bf80" x="50.915938" y="167.167876" style="stroke: #000000; stroke-width: 0.8"/>
      </g>
     </g>
     <g id="text_8">
      <!-- 800 -->
      <g transform="translate(28.915938 170.639751) scale(0.1 -0.1)">
       <defs>
        <path id="TimesNewRomanPSMT-38" d="M 1228 2134 
Q 725 2547 579 2797 
Q 434 3047 434 3316 
Q 434 3728 753 4026 
Q 1072 4325 1600 4325 
Q 2113 4325 2425 4047 
Q 2738 3769 2738 3413 
Q 2738 3175 2569 2928 
Q 2400 2681 1866 2347 
Q 2416 1922 2594 1678 
Q 2831 1359 2831 1006 
Q 2831 559 2490 242 
Q 2150 -75 1597 -75 
Q 994 -75 656 303 
Q 388 606 388 966 
Q 388 1247 577 1523 
Q 766 1800 1228 2134 
z
M 1719 2469 
Q 2094 2806 2194 3001 
Q 2294 3197 2294 3444 
Q 2294 3772 2109 3958 
Q 1925 4144 1606 4144 
Q 1288 4144 1088 3959 
Q 888 3775 888 3528 
Q 888 3366 970 3203 
Q 1053 3041 1206 2894 
L 1719 2469 
z
M 1375 2016 
Q 1116 1797 991 1539 
Q 866 1281 866 981 
Q 866 578 1086 336 
Q 1306 94 1647 94 
Q 1984 94 2187 284 
Q 2391 475 2391 747 
Q 2391 972 2272 1150 
Q 2050 1481 1375 2016 
z
" transform="scale(0.015625)"/>
       </defs>
       <use xlink:href="#TimesNewRomanPSMT-38"/>
       <use xlink:href="#TimesNewRomanPSMT-30" x="50"/>
       <use xlink:href="#TimesNewRomanPSMT-30" x="100"/>
      </g>
     </g>
    </g>
    <g id="ytick_4">
     <g id="line2d_9">
      <g>
       <use xlink:href="#mdbaa56bf80" x="50.915938" y="134.918846" style="stroke: #000000; stroke-width: 0.8"/>
      </g>
     </g>
     <g id="text_9">
      <!-- 1000 -->
      <g transform="translate(23.915938 138.390721) scale(0.1 -0.1)">
       <defs>
        <path id="TimesNewRomanPSMT-31" d="M 750 3822 
L 1781 4325 
L 1884 4325 
L 1884 747 
Q 1884 391 1914 303 
Q 1944 216 2037 169 
Q 2131 122 2419 116 
L 2419 0 
L 825 0 
L 825 116 
Q 1125 122 1212 167 
Q 1300 213 1334 289 
Q 1369 366 1369 747 
L 1369 3034 
Q 1369 3497 1338 3628 
Q 1316 3728 1258 3775 
Q 1200 3822 1119 3822 
Q 1003 3822 797 3725 
L 750 3822 
z
" transform="scale(0.015625)"/>
       </defs>
       <use xlink:href="#TimesNewRomanPSMT-31"/>
       <use xlink:href="#TimesNewRomanPSMT-30" x="50"/>
       <use xlink:href="#TimesNewRomanPSMT-30" x="100"/>
       <use xlink:href="#TimesNewRomanPSMT-30" x="150"/>
      </g>
     </g>
    </g>
    <g id="ytick_5">
     <g id="line2d_10">
      <g>
       <use xlink:href="#mdbaa56bf80" x="50.915938" y="102.669816" style="stroke: #000000; stroke-width: 0.8"/>
      </g>
     </g>
     <g id="text_10">
      <!-- 1200 -->
      <g transform="translate(23.915938 106.141691) scale(0.1 -0.1)">
       <defs>
        <path id="TimesNewRomanPSMT-32" d="M 2934 816 
L 2638 0 
L 138 0 
L 138 116 
Q 1241 1122 1691 1759 
Q 2141 2397 2141 2925 
Q 2141 3328 1894 3587 
Q 1647 3847 1303 3847 
Q 991 3847 742 3664 
Q 494 3481 375 3128 
L 259 3128 
Q 338 3706 661 4015 
Q 984 4325 1469 4325 
Q 1984 4325 2329 3994 
Q 2675 3663 2675 3213 
Q 2675 2891 2525 2569 
Q 2294 2063 1775 1497 
Q 997 647 803 472 
L 1909 472 
Q 2247 472 2383 497 
Q 2519 522 2628 598 
Q 2738 675 2819 816 
L 2934 816 
z
" transform="scale(0.015625)"/>
       </defs>
       <use xlink:href="#TimesNewRomanPSMT-31"/>
       <use xlink:href="#TimesNewRomanPSMT-32" x="50"/>
       <use xlink:href="#TimesNewRomanPSMT-30" x="100"/>
       <use xlink:href="#TimesNewRomanPSMT-30" x="150"/>
      </g>
     </g>
    </g>
    <g id="ytick_6">
     <g id="line2d_11">
      <g>
       <use xlink:href="#mdbaa56bf80" x="50.915938" y="70.420786" style="stroke: #000000; stroke-width: 0.8"/>
      </g>
     </g>
     <g id="text_11">
      <!-- 1400 -->
      <g transform="translate(23.915938 73.892661) scale(0.1 -0.1)">
       <use xlink:href="#TimesNewRomanPSMT-31"/>
       <use xlink:href="#TimesNewRomanPSMT-34" x="50"/>
       <use xlink:href="#TimesNewRomanPSMT-30" x="100"/>
       <use xlink:href="#TimesNewRomanPSMT-30" x="150"/>
      </g>
     </g>
    </g>
    <g id="ytick_7">
     <g id="line2d_12">
      <g>
       <use xlink:href="#mdbaa56bf80" x="50.915938" y="38.171756" style="stroke: #000000; stroke-width: 0.8"/>
      </g>
     </g>
     <g id="text_12">
      <!-- 1600 -->
      <g transform="translate(23.915938 41.643631) scale(0.1 -0.1)">
       <use xlink:href="#TimesNewRomanPSMT-31"/>
       <use xlink:href="#TimesNewRomanPSMT-36" x="50"/>
       <use xlink:href="#TimesNewRomanPSMT-30" x="100"/>
       <use xlink:href="#TimesNewRomanPSMT-30" x="150"/>
      </g>
     </g>
    </g>
    <g id="text_13">
     <!-- thousand USD -->
     <g transform="translate(16.92125 185.300909) rotate(-90) scale(0.14 -0.14)">
      <defs>
       <path id="TimesNewRomanPSMT-64" d="M 2222 322 
Q 2013 103 1813 7 
Q 1613 -88 1381 -88 
Q 913 -88 563 304 
Q 213 697 213 1313 
Q 213 1928 600 2439 
Q 988 2950 1597 2950 
Q 1975 2950 2222 2709 
L 2222 3238 
Q 2222 3728 2198 3840 
Q 2175 3953 2125 3993 
Q 2075 4034 2000 4034 
Q 1919 4034 1784 3984 
L 1744 4094 
L 2597 4444 
L 2738 4444 
L 2738 1134 
Q 2738 631 2761 520 
Q 2784 409 2836 365 
Q 2888 322 2956 322 
Q 3041 322 3181 375 
L 3216 266 
L 2366 -88 
L 2222 -88 
L 2222 322 
z
M 2222 541 
L 2222 2016 
Q 2203 2228 2109 2403 
Q 2016 2578 1861 2667 
Q 1706 2756 1559 2756 
Q 1284 2756 1069 2509 
Q 784 2184 784 1559 
Q 784 928 1059 592 
Q 1334 256 1672 256 
Q 1956 256 2222 541 
z
" transform="scale(0.015625)"/>
       <path id="TimesNewRomanPSMT-53" d="M 2934 4334 
L 2934 2869 
L 2819 2869 
Q 2763 3291 2617 3541 
Q 2472 3791 2203 3937 
Q 1934 4084 1647 4084 
Q 1322 4084 1109 3886 
Q 897 3688 897 3434 
Q 897 3241 1031 3081 
Q 1225 2847 1953 2456 
Q 2547 2138 2764 1967 
Q 2981 1797 3098 1565 
Q 3216 1334 3216 1081 
Q 3216 600 2842 251 
Q 2469 -97 1881 -97 
Q 1697 -97 1534 -69 
Q 1438 -53 1133 45 
Q 828 144 747 144 
Q 669 144 623 97 
Q 578 50 556 -97 
L 441 -97 
L 441 1356 
L 556 1356 
Q 638 900 775 673 
Q 913 447 1195 297 
Q 1478 147 1816 147 
Q 2206 147 2432 353 
Q 2659 559 2659 841 
Q 2659 997 2573 1156 
Q 2488 1316 2306 1453 
Q 2184 1547 1640 1851 
Q 1097 2156 867 2337 
Q 638 2519 519 2737 
Q 400 2956 400 3219 
Q 400 3675 750 4004 
Q 1100 4334 1641 4334 
Q 1978 4334 2356 4169 
Q 2531 4091 2603 4091 
Q 2684 4091 2736 4139 
Q 2788 4188 2819 4334 
L 2934 4334 
z
" transform="scale(0.015625)"/>
      </defs>
      <use xlink:href="#TimesNewRomanPSMT-74"/>
      <use xlink:href="#TimesNewRomanPSMT-68" x="27.783203"/>
      <use xlink:href="#TimesNewRomanPSMT-6f" x="77.783203"/>
      <use xlink:href="#TimesNewRomanPSMT-75" x="127.783203"/>
      <use xlink:href="#TimesNewRomanPSMT-73" x="177.783203"/>
      <use xlink:href="#TimesNewRomanPSMT-61" x="216.699219"/>
      <use xlink:href="#TimesNewRomanPSMT-6e" x="261.083984"/>
      <use xlink:href="#TimesNewRomanPSMT-64" x="311.083984"/>
      <use xlink:href="#TimesNewRomanPSMT-20" x="361.083984"/>
      <use xlink:href="#TimesNewRomanPSMT-55" x="386.083984"/>
      <use xlink:href="#TimesNewRomanPSMT-53" x="458.300781"/>
      <use xlink:href="#TimesNewRomanPSMT-44" x="513.916016"/>
     </g>
    </g>
   </g>
   <g id="patch_3">
    <path d="M 84.074337 221.829983 
L 93.117538 221.829983 
L 93.117538 169.304375 
L 84.074337 169.304375 
L 84.074337 221.829983 
L 84.074337 221.829983 
z
" clip-path="url(#pcd4a2d7e22)" style="fill: none; stroke: #000000; stroke-linejoin: miter"/>
   </g>
   <g id="line2d_13">
    <path d="M 88.595938 221.829983 
L 88.595938 244.565549 
" clip-path="url(#pcd4a2d7e22)" style="fill: none; stroke: #000000; stroke-linecap: square"/>
   </g>
   <g id="line2d_14">
    <path d="M 88.595938 169.304375 
L 88.595938 105.088493 
" clip-path="url(#pcd4a2d7e22)" style="fill: none; stroke: #000000; stroke-linecap: square"/>
   </g>
   <g id="line2d_15">
    <path d="M 86.335138 244.565549 
L 90.856738 244.565549 
" clip-path="url(#pcd4a2d7e22)" style="fill: none; stroke: #000000; stroke-linecap: square"/>
   </g>
   <g id="line2d_16">
    <path d="M 86.335138 105.088493 
L 90.856738 105.088493 
" clip-path="url(#pcd4a2d7e22)" style="fill: none; stroke: #000000; stroke-linecap: square"/>
   </g>
   <g id="patch_4">
    <path d="M 159.434337 209.252861 
L 168.477538 209.252861 
L 168.477538 156.404763 
L 159.434337 156.404763 
L 159.434337 209.252861 
L 159.434337 209.252861 
z
" clip-path="url(#pcd4a2d7e22)" style="fill: none; stroke: #000000; stroke-linejoin: miter"/>
   </g>
   <g id="line2d_17">
    <path d="M 163.955938 209.252861 
L 163.955938 247.790452 
" clip-path="url(#pcd4a2d7e22)" style="fill: none; stroke: #000000; stroke-linecap: square"/>
   </g>
   <g id="line2d_18">
    <path d="M 163.955938 156.404763 
L 163.955938 87.996507 
" clip-path="url(#pcd4a2d7e22)" style="fill: none; stroke: #000000; stroke-linecap: square"/>
   </g>
   <g id="line2d_19">
    <path d="M 161.695138 247.790452 
L 166.216737 247.790452 
" clip-path="url(#pcd4a2d7e22)" style="fill: none; stroke: #000000; stroke-linecap: square"/>
   </g>
   <g id="line2d_20">
    <path d="M 161.695138 87.996507 
L 166.216737 87.996507 
" clip-path="url(#pcd4a2d7e22)" style="fill: none; stroke: #000000; stroke-linecap: square"/>
   </g>
   <g id="patch_5">
    <path d="M 234.794338 220.741578 
L 243.837537 220.741578 
L 243.837537 176.03636 
L 234.794338 176.03636 
L 234.794338 220.741578 
L 234.794338 220.741578 
z
" clip-path="url(#pcd4a2d7e22)" style="fill: none; stroke: #000000; stroke-linejoin: miter"/>
   </g>
   <g id="line2d_21">
    <path d="M 239.315937 220.741578 
L 239.315937 248.112942 
" clip-path="url(#pcd4a2d7e22)" style="fill: none; stroke: #000000; stroke-linecap: square"/>
   </g>
   <g id="line2d_22">
    <path d="M 239.315937 176.03636 
L 239.315937 109.603358 
" clip-path="url(#pcd4a2d7e22)" style="fill: none; stroke: #000000; stroke-linecap: square"/>
   </g>
   <g id="line2d_23">
    <path d="M 237.055138 248.112942 
L 241.576737 248.112942 
" clip-path="url(#pcd4a2d7e22)" style="fill: none; stroke: #000000; stroke-linecap: square"/>
   </g>
   <g id="line2d_24">
    <path d="M 237.055138 109.603358 
L 241.576737 109.603358 
" clip-path="url(#pcd4a2d7e22)" style="fill: none; stroke: #000000; stroke-linecap: square"/>
   </g>
   <g id="patch_6">
    <path d="M 310.154337 217.919788 
L 319.197537 217.919788 
L 319.197537 158.380016 
L 310.154337 158.380016 
L 310.154337 217.919788 
L 310.154337 217.919788 
z
" clip-path="url(#pcd4a2d7e22)" style="fill: none; stroke: #000000; stroke-linejoin: miter"/>
   </g>
   <g id="line2d_25">
    <path d="M 314.675938 217.919788 
L 314.675938 245.694265 
" clip-path="url(#pcd4a2d7e22)" style="fill: none; stroke: #000000; stroke-linecap: square"/>
   </g>
   <g id="line2d_26">
    <path d="M 314.675938 158.380016 
L 314.675938 77.354327 
" clip-path="url(#pcd4a2d7e22)" style="fill: none; stroke: #000000; stroke-linecap: square"/>
   </g>
   <g id="line2d_27">
    <path d="M 312.415138 245.694265 
L 316.936738 245.694265 
" clip-path="url(#pcd4a2d7e22)" style="fill: none; stroke: #000000; stroke-linecap: square"/>
   </g>
   <g id="line2d_28">
    <path d="M 312.415138 77.354327 
L 316.936738 77.354327 
" clip-path="url(#pcd4a2d7e22)" style="fill: none; stroke: #000000; stroke-linecap: square"/>
   </g>
   <g id="patch_7">
    <path d="M 385.514338 219.25006 
L 394.557537 219.25006 
L 394.557537 170.634647 
L 385.514338 170.634647 
L 385.514338 219.25006 
L 385.514338 219.25006 
z
" clip-path="url(#pcd4a2d7e22)" style="fill: none; stroke: #000000; stroke-linejoin: miter"/>
   </g>
   <g id="line2d_29">
    <path d="M 390.035938 219.25006 
L 390.035938 245.53302 
" clip-path="url(#pcd4a2d7e22)" style="fill: none; stroke: #000000; stroke-linecap: square"/>
   </g>
   <g id="line2d_30">
    <path d="M 390.035938 170.634647 
L 390.035938 106.5397 
" clip-path="url(#pcd4a2d7e22)" style="fill: none; stroke: #000000; stroke-linecap: square"/>
   </g>
   <g id="line2d_31">
    <path d="M 387.775138 245.53302 
L 392.296738 245.53302 
" clip-path="url(#pcd4a2d7e22)" style="fill: none; stroke: #000000; stroke-linecap: square"/>
   </g>
   <g id="line2d_32">
    <path d="M 387.775138 106.5397 
L 392.296738 106.5397 
" clip-path="url(#pcd4a2d7e22)" style="fill: none; stroke: #000000; stroke-linecap: square"/>
   </g>
   <g id="line2d_33">
    <path d="M 84.074337 198.126945 
L 93.117538 198.126945 
" clip-path="url(#pcd4a2d7e22)" style="fill: none; stroke: #000000; stroke-width: 1.5; stroke-linecap: square"/>
   </g>
   <g id="line2d_34">
    <path d="M 159.434337 183.534259 
L 168.477538 183.534259 
" clip-path="url(#pcd4a2d7e22)" style="fill: none; stroke: #000000; stroke-width: 1.5; stroke-linecap: square"/>
   </g>
   <g id="line2d_35">
    <path d="M 234.794338 199.497529 
L 243.837537 199.497529 
" clip-path="url(#pcd4a2d7e22)" style="fill: none; stroke: #000000; stroke-width: 1.5; stroke-linecap: square"/>
   </g>
   <g id="line2d_36">
    <path d="M 310.154337 192.32212 
L 319.197537 192.32212 
" clip-path="url(#pcd4a2d7e22)" style="fill: none; stroke: #000000; stroke-width: 1.5; stroke-linecap: square"/>
   </g>
   <g id="line2d_37">
    <path d="M 385.514338 202.158074 
L 394.557537 202.158074 
" clip-path="url(#pcd4a2d7e22)" style="fill: none; stroke: #000000; stroke-width: 1.5; stroke-linecap: square"/>
   </g>
   <g id="patch_8">
    <path d="M 50.915938 258.49713 
L 50.915938 30.045 
" style="fill: none; stroke: #000000; stroke-linejoin: miter; stroke-linecap: square"/>
   </g>
   <g id="patch_9">
    <path d="M 427.715937 258.49713 
L 427.715937 30.045 
" style="fill: none; stroke: #000000; stroke-linejoin: miter; stroke-linecap: square"/>
   </g>
   <g id="patch_10">
    <path d="M 50.915938 258.49713 
L 427.715937 258.49713 
" style="fill: none; stroke: #000000; stroke-linejoin: miter; stroke-linecap: square"/>
   </g>
   <g id="patch_11">
    <path d="M 50.915938 30.045 
L 427.715937 30.045 
" style="fill: none; stroke: #000000; stroke-linejoin: miter; stroke-linecap: square"/>
   </g>
   <g id="text_14">
    <!-- Virtual Housing Prices by Property Type (thousand USD) -->
    <g transform="translate(42.925937 18.045) scale(0.16 -0.16)">
     <defs>
      <path id="TimesNewRomanPS-BoldMT-56" d="M 4556 4238 
L 4556 4122 
Q 4325 4084 4144 3875 
Q 4013 3719 3753 3141 
L 2294 -97 
L 2191 -97 
L 738 3272 
Q 475 3881 386 3987 
Q 297 4094 50 4122 
L 50 4238 
L 2081 4238 
L 2081 4122 
L 2013 4122 
Q 1738 4122 1638 4053 
Q 1566 4006 1566 3916 
Q 1566 3859 1591 3782 
Q 1616 3706 1759 3372 
L 2663 1263 
L 3500 3141 
Q 3650 3481 3684 3597 
Q 3719 3713 3719 3794 
Q 3719 3888 3669 3959 
Q 3619 4031 3522 4069 
Q 3388 4122 3166 4122 
L 3166 4238 
L 4556 4238 
z
" transform="scale(0.015625)"/>
      <path id="TimesNewRomanPS-BoldMT-69" d="M 919 4338 
Q 1122 4338 1262 4195 
Q 1403 4053 1403 3853 
Q 1403 3653 1261 3512 
Q 1119 3372 919 3372 
Q 719 3372 578 3512 
Q 438 3653 438 3853 
Q 438 4053 578 4195 
Q 719 4338 919 4338 
z
M 1356 2922 
L 1356 606 
Q 1356 297 1428 211 
Q 1500 125 1709 113 
L 1709 0 
L 131 0 
L 131 113 
Q 325 119 419 225 
Q 481 297 481 606 
L 481 2313 
Q 481 2622 409 2708 
Q 338 2794 131 2806 
L 131 2922 
L 1356 2922 
z
" transform="scale(0.015625)"/>
      <path id="TimesNewRomanPS-BoldMT-72" d="M 1428 2922 
L 1428 2259 
Q 1719 2713 1937 2861 
Q 2156 3009 2359 3009 
Q 2534 3009 2639 2901 
Q 2744 2794 2744 2597 
Q 2744 2388 2642 2272 
Q 2541 2156 2397 2156 
Q 2231 2156 2109 2262 
Q 1988 2369 1966 2381 
Q 1934 2400 1894 2400 
Q 1803 2400 1722 2331 
Q 1594 2225 1528 2028 
Q 1428 1725 1428 1359 
L 1428 688 
L 1431 513 
Q 1431 334 1453 284 
Q 1491 200 1564 161 
Q 1638 122 1813 113 
L 1813 0 
L 234 0 
L 234 113 
Q 425 128 492 217 
Q 559 306 559 688 
L 559 2303 
Q 559 2553 534 2622 
Q 503 2709 443 2750 
Q 384 2791 234 2806 
L 234 2922 
L 1428 2922 
z
" transform="scale(0.015625)"/>
      <path id="TimesNewRomanPS-BoldMT-74" d="M 1375 3991 
L 1375 2922 
L 2069 2922 
L 2069 2613 
L 1375 2613 
L 1375 809 
Q 1375 556 1398 482 
Q 1422 409 1481 364 
Q 1541 319 1591 319 
Q 1794 319 1975 628 
L 2069 559 
Q 1816 -41 1247 -41 
Q 969 -41 776 114 
Q 584 269 531 459 
Q 500 566 500 1034 
L 500 2613 
L 119 2613 
L 119 2722 
Q 513 3000 789 3306 
Q 1066 3613 1272 3991 
L 1375 3991 
z
" transform="scale(0.015625)"/>
      <path id="TimesNewRomanPS-BoldMT-75" d="M 3038 2922 
L 3038 634 
Q 3038 300 3100 217 
Q 3163 134 3353 113 
L 3353 0 
L 2163 0 
L 2163 391 
Q 1953 141 1743 26 
Q 1534 -88 1275 -88 
Q 1028 -88 836 64 
Q 644 216 578 419 
Q 513 622 513 1128 
L 513 2288 
Q 513 2619 452 2700 
Q 391 2781 197 2806 
L 197 2922 
L 1388 2922 
L 1388 925 
Q 1388 613 1417 522 
Q 1447 431 1511 384 
Q 1575 338 1659 338 
Q 1772 338 1863 397 
Q 1988 478 2163 725 
L 2163 2288 
Q 2163 2619 2102 2700 
Q 2041 2781 1847 2806 
L 1847 2922 
L 3038 2922 
z
" transform="scale(0.015625)"/>
      <path id="TimesNewRomanPS-BoldMT-61" d="M 1828 431 
Q 1294 -41 869 -41 
Q 619 -41 453 123 
Q 288 288 288 534 
Q 288 869 575 1136 
Q 863 1403 1828 1847 
L 1828 2141 
Q 1828 2472 1792 2558 
Q 1756 2644 1656 2708 
Q 1556 2772 1431 2772 
Q 1228 2772 1097 2681 
Q 1016 2625 1016 2550 
Q 1016 2484 1103 2388 
Q 1222 2253 1222 2128 
Q 1222 1975 1108 1867 
Q 994 1759 809 1759 
Q 613 1759 480 1878 
Q 347 1997 347 2156 
Q 347 2381 525 2586 
Q 703 2791 1022 2900 
Q 1341 3009 1684 3009 
Q 2100 3009 2342 2832 
Q 2584 2656 2656 2450 
Q 2700 2319 2700 1847 
L 2700 713 
Q 2700 513 2715 461 
Q 2731 409 2762 384 
Q 2794 359 2834 359 
Q 2916 359 3000 475 
L 3094 400 
Q 2938 169 2770 64 
Q 2603 -41 2391 -41 
Q 2141 -41 2000 76 
Q 1859 194 1828 431 
z
M 1828 659 
L 1828 1638 
Q 1450 1416 1266 1163 
Q 1144 994 1144 822 
Q 1144 678 1247 569 
Q 1325 484 1466 484 
Q 1622 484 1828 659 
z
" transform="scale(0.015625)"/>
      <path id="TimesNewRomanPS-BoldMT-6c" d="M 1359 4238 
L 1359 606 
Q 1359 297 1431 211 
Q 1503 125 1713 113 
L 1713 0 
L 134 0 
L 134 113 
Q 328 119 422 225 
Q 484 297 484 606 
L 484 3631 
Q 484 3938 412 4023 
Q 341 4109 134 4122 
L 134 4238 
L 1359 4238 
z
" transform="scale(0.015625)"/>
      <path id="TimesNewRomanPS-BoldMT-20" transform="scale(0.015625)"/>
      <path id="TimesNewRomanPS-BoldMT-48" d="M 1750 2038 
L 1750 725 
Q 1750 400 1786 319 
Q 1822 238 1926 177 
Q 2031 116 2209 116 
L 2350 116 
L 2350 0 
L 134 0 
L 134 116 
L 275 116 
Q 459 116 572 181 
Q 653 225 697 331 
Q 731 406 731 725 
L 731 3513 
Q 731 3838 697 3919 
Q 663 4000 558 4061 
Q 453 4122 275 4122 
L 134 4122 
L 134 4238 
L 2350 4238 
L 2350 4122 
L 2209 4122 
Q 2025 4122 1913 4056 
Q 1831 4013 1784 3906 
Q 1750 3831 1750 3513 
L 1750 2313 
L 3247 2313 
L 3247 3513 
Q 3247 3838 3212 3919 
Q 3178 4000 3072 4061 
Q 2966 4122 2788 4122 
L 2650 4122 
L 2650 4238 
L 4863 4238 
L 4863 4122 
L 4725 4122 
Q 4538 4122 4428 4056 
Q 4347 4013 4300 3906 
Q 4266 3831 4266 3513 
L 4266 725 
Q 4266 400 4300 319 
Q 4334 238 4440 177 
Q 4547 116 4725 116 
L 4863 116 
L 4863 0 
L 2650 0 
L 2650 116 
L 2788 116 
Q 2975 116 3084 181 
Q 3166 225 3213 331 
Q 3247 406 3247 725 
L 3247 2038 
L 1750 2038 
z
" transform="scale(0.015625)"/>
      <path id="TimesNewRomanPS-BoldMT-6f" d="M 1594 3009 
Q 1975 3009 2303 2812 
Q 2631 2616 2801 2253 
Q 2972 1891 2972 1459 
Q 2972 838 2656 419 
Q 2275 -88 1603 -88 
Q 944 -88 587 375 
Q 231 838 231 1447 
Q 231 2075 595 2542 
Q 959 3009 1594 3009 
z
M 1606 2788 
Q 1447 2788 1333 2667 
Q 1219 2547 1183 2192 
Q 1147 1838 1147 1206 
Q 1147 872 1191 581 
Q 1225 359 1337 243 
Q 1450 128 1594 128 
Q 1734 128 1828 206 
Q 1950 313 1991 503 
Q 2053 800 2053 1703 
Q 2053 2234 1993 2432 
Q 1934 2631 1819 2722 
Q 1738 2788 1606 2788 
z
" transform="scale(0.015625)"/>
      <path id="TimesNewRomanPS-BoldMT-73" d="M 2063 3003 
L 2109 2006 
L 2003 2006 
Q 1813 2450 1608 2612 
Q 1403 2775 1200 2775 
Q 1072 2775 981 2689 
Q 891 2603 891 2491 
Q 891 2406 953 2328 
Q 1053 2200 1512 1889 
Q 1972 1578 2117 1361 
Q 2263 1144 2263 875 
Q 2263 631 2141 397 
Q 2019 163 1797 37 
Q 1575 -88 1306 -88 
Q 1097 -88 747 44 
Q 653 78 619 78 
Q 516 78 447 -78 
L 344 -78 
L 294 972 
L 400 972 
Q 541 559 786 353 
Q 1031 147 1250 147 
Q 1400 147 1495 239 
Q 1591 331 1591 463 
Q 1591 613 1497 722 
Q 1403 831 1078 1053 
Q 600 1384 459 1559 
Q 253 1816 253 2125 
Q 253 2463 486 2736 
Q 719 3009 1159 3009 
Q 1397 3009 1619 2894 
Q 1703 2847 1756 2847 
Q 1813 2847 1847 2870 
Q 1881 2894 1956 3003 
L 2063 3003 
z
" transform="scale(0.015625)"/>
      <path id="TimesNewRomanPS-BoldMT-6e" d="M 1409 2922 
L 1409 2544 
Q 1634 2788 1840 2898 
Q 2047 3009 2284 3009 
Q 2569 3009 2756 2851 
Q 2944 2694 3006 2459 
Q 3056 2281 3056 1775 
L 3056 638 
Q 3056 300 3117 217 
Q 3178 134 3372 113 
L 3372 0 
L 1894 0 
L 1894 113 
Q 2059 134 2131 250 
Q 2181 328 2181 638 
L 2181 1938 
Q 2181 2297 2153 2390 
Q 2125 2484 2058 2536 
Q 1991 2588 1909 2588 
Q 1641 2588 1409 2203 
L 1409 638 
Q 1409 309 1470 221 
Q 1531 134 1697 113 
L 1697 0 
L 219 0 
L 219 113 
Q 403 131 481 231 
Q 534 300 534 638 
L 534 2288 
Q 534 2619 473 2700 
Q 413 2781 219 2806 
L 219 2922 
L 1409 2922 
z
" transform="scale(0.015625)"/>
      <path id="TimesNewRomanPS-BoldMT-67" d="M 2091 2888 
L 3075 2888 
L 3075 2544 
L 2516 2544 
Q 2669 2391 2728 2266 
Q 2803 2097 2803 1913 
Q 2803 1600 2629 1370 
Q 2456 1141 2157 1011 
Q 1859 881 1628 881 
Q 1609 881 1253 897 
Q 1113 897 1017 805 
Q 922 713 922 584 
Q 922 472 1008 400 
Q 1094 328 1288 328 
L 1828 334 
Q 2484 334 2731 191 
Q 3084 -9 3084 -425 
Q 3084 -691 2921 -908 
Q 2759 -1125 2494 -1228 
Q 2091 -1381 1566 -1381 
Q 1172 -1381 847 -1304 
Q 522 -1228 381 -1092 
Q 241 -956 241 -806 
Q 241 -663 348 -548 
Q 456 -434 750 -356 
Q 344 -156 344 200 
Q 344 416 509 619 
Q 675 822 1034 972 
Q 616 1125 428 1375 
Q 241 1625 241 1953 
Q 241 2381 591 2695 
Q 941 3009 1491 3009 
Q 1781 3009 2091 2888 
z
M 1550 2816 
Q 1369 2816 1244 2633 
Q 1119 2450 1119 1875 
Q 1119 1409 1242 1236 
Q 1366 1063 1534 1063 
Q 1722 1063 1847 1234 
Q 1972 1406 1972 1903 
Q 1972 2463 1831 2666 
Q 1731 2816 1550 2816 
z
M 1366 -431 
Q 1047 -431 944 -484 
Q 766 -581 766 -747 
Q 766 -906 950 -1036 
Q 1134 -1166 1644 -1166 
Q 2078 -1166 2326 -1050 
Q 2575 -934 2575 -725 
Q 2575 -647 2528 -594 
Q 2444 -500 2273 -465 
Q 2103 -431 1366 -431 
z
" transform="scale(0.015625)"/>
      <path id="TimesNewRomanPS-BoldMT-50" d="M 1728 1919 
L 1728 744 
Q 1728 400 1770 311 
Q 1813 222 1920 169 
Q 2028 116 2316 116 
L 2316 0 
L 163 0 
L 163 116 
Q 456 116 561 170 
Q 666 225 708 312 
Q 750 400 750 744 
L 750 3494 
Q 750 3838 708 3927 
Q 666 4016 559 4069 
Q 453 4122 163 4122 
L 163 4238 
L 2009 4238 
Q 2922 4238 3319 3913 
Q 3716 3588 3716 3100 
Q 3716 2688 3459 2394 
Q 3203 2100 2753 1994 
Q 2450 1919 1728 1919 
z
M 1728 3994 
L 1728 2163 
Q 1831 2156 1884 2156 
Q 2266 2156 2472 2382 
Q 2678 2609 2678 3084 
Q 2678 3556 2472 3775 
Q 2266 3994 1856 3994 
L 1728 3994 
z
" transform="scale(0.015625)"/>
      <path id="TimesNewRomanPS-BoldMT-63" d="M 2600 753 
L 2697 678 
Q 2491 291 2183 101 
Q 1875 -88 1528 -88 
Q 944 -88 594 353 
Q 244 794 244 1413 
Q 244 2009 563 2463 
Q 947 3009 1622 3009 
Q 2075 3009 2342 2781 
Q 2609 2553 2609 2272 
Q 2609 2094 2501 1987 
Q 2394 1881 2219 1881 
Q 2034 1881 1914 2003 
Q 1794 2125 1766 2438 
Q 1747 2634 1675 2713 
Q 1603 2791 1506 2791 
Q 1356 2791 1250 2631 
Q 1088 2391 1088 1894 
Q 1088 1481 1219 1104 
Q 1350 728 1578 544 
Q 1750 409 1984 409 
Q 2138 409 2275 481 
Q 2413 553 2600 753 
z
" transform="scale(0.015625)"/>
      <path id="TimesNewRomanPS-BoldMT-65" d="M 2691 1566 
L 1088 1566 
Q 1116 984 1397 647 
Q 1613 388 1916 388 
Q 2103 388 2256 492 
Q 2409 597 2584 869 
L 2691 800 
Q 2453 316 2165 114 
Q 1878 -88 1500 -88 
Q 850 -88 516 413 
Q 247 816 247 1413 
Q 247 2144 642 2576 
Q 1038 3009 1569 3009 
Q 2013 3009 2339 2645 
Q 2666 2281 2691 1566 
z
M 1922 1775 
Q 1922 2278 1867 2465 
Q 1813 2653 1697 2750 
Q 1631 2806 1522 2806 
Q 1359 2806 1256 2647 
Q 1072 2369 1072 1884 
L 1072 1775 
L 1922 1775 
z
" transform="scale(0.015625)"/>
      <path id="TimesNewRomanPS-BoldMT-62" d="M 1347 4238 
L 1347 2628 
Q 1716 3009 2153 3009 
Q 2453 3009 2718 2832 
Q 2984 2656 3134 2331 
Q 3284 2006 3284 1581 
Q 3284 1103 3093 712 
Q 2903 322 2584 117 
Q 2266 -88 1856 -88 
Q 1619 -88 1434 -12 
Q 1250 63 1072 231 
L 588 -84 
L 481 -84 
L 481 3631 
Q 481 3884 459 3944 
Q 428 4031 361 4073 
Q 294 4116 134 4122 
L 134 4238 
L 1347 4238 
z
M 1347 2350 
L 1347 1050 
Q 1347 653 1366 544 
Q 1397 359 1515 245 
Q 1634 131 1819 131 
Q 1978 131 2092 222 
Q 2206 313 2282 581 
Q 2359 850 2359 1550 
Q 2359 2222 2191 2472 
Q 2069 2653 1863 2653 
Q 1594 2653 1347 2350 
z
" transform="scale(0.015625)"/>
      <path id="TimesNewRomanPS-BoldMT-79" d="M 1556 -119 
L 613 2047 
Q 400 2538 298 2650 
Q 197 2763 53 2806 
L 53 2922 
L 1606 2922 
L 1606 2806 
Q 1453 2800 1390 2747 
Q 1328 2694 1328 2619 
Q 1328 2500 1484 2150 
L 1984 1006 
L 2325 1891 
Q 2509 2363 2509 2547 
Q 2509 2663 2432 2731 
Q 2356 2800 2163 2806 
L 2163 2922 
L 3141 2922 
L 3141 2806 
Q 2997 2791 2906 2695 
Q 2816 2600 2603 2047 
L 1769 -119 
Q 1453 -931 1300 -1119 
Q 1084 -1381 759 -1381 
Q 500 -1381 339 -1232 
Q 178 -1084 178 -875 
Q 178 -694 289 -575 
Q 400 -456 563 -456 
Q 719 -456 814 -556 
Q 909 -656 913 -866 
Q 916 -984 941 -1019 
Q 966 -1053 1013 -1053 
Q 1088 -1053 1172 -963 
Q 1297 -831 1466 -363 
L 1556 -119 
z
" transform="scale(0.015625)"/>
      <path id="TimesNewRomanPS-BoldMT-70" d="M 1347 297 
L 1347 -791 
Q 1347 -1016 1383 -1097 
Q 1419 -1178 1494 -1215 
Q 1569 -1253 1788 -1253 
L 1788 -1369 
L 122 -1369 
L 122 -1253 
Q 316 -1247 409 -1144 
Q 472 -1072 472 -772 
L 472 2313 
Q 472 2622 400 2708 
Q 328 2794 122 2806 
L 122 2922 
L 1347 2922 
L 1347 2538 
Q 1500 2763 1659 2863 
Q 1888 3009 2156 3009 
Q 2478 3009 2742 2806 
Q 3006 2603 3143 2245 
Q 3281 1888 3281 1475 
Q 3281 1031 3139 664 
Q 2997 297 2726 104 
Q 2456 -88 2125 -88 
Q 1884 -88 1675 19 
Q 1519 100 1347 297 
z
M 1347 613 
Q 1616 231 1922 231 
Q 2091 231 2200 409 
Q 2363 672 2363 1409 
Q 2363 2166 2184 2444 
Q 2066 2628 1866 2628 
Q 1550 2628 1347 2172 
L 1347 613 
z
" transform="scale(0.015625)"/>
      <path id="TimesNewRomanPS-BoldMT-54" d="M 4038 4238 
L 4038 3091 
L 3925 3091 
Q 3825 3488 3703 3661 
Q 3581 3834 3369 3938 
Q 3250 3994 2953 3994 
L 2638 3994 
L 2638 725 
Q 2638 400 2673 319 
Q 2709 238 2814 177 
Q 2919 116 3100 116 
L 3241 116 
L 3241 0 
L 1022 0 
L 1022 116 
L 1163 116 
Q 1347 116 1459 181 
Q 1541 225 1588 331 
Q 1622 406 1622 725 
L 1622 3994 
L 1316 3994 
Q 888 3994 694 3813 
Q 422 3559 350 3091 
L 231 3091 
L 231 4238 
L 4038 4238 
z
" transform="scale(0.015625)"/>
      <path id="TimesNewRomanPS-BoldMT-28" d="M 2056 4334 
L 2056 4191 
Q 1731 3978 1578 3775 
Q 1366 3494 1247 3053 
Q 1097 2506 1097 1525 
Q 1097 600 1233 87 
Q 1369 -425 1603 -741 
Q 1766 -959 2056 -1125 
L 2056 -1281 
Q 1303 -1028 779 -248 
Q 256 531 256 1544 
Q 256 2544 778 3314 
Q 1300 4084 2056 4334 
z
" transform="scale(0.015625)"/>
      <path id="TimesNewRomanPS-BoldMT-68" d="M 1409 4238 
L 1409 2547 
Q 1650 2800 1850 2904 
Q 2050 3009 2266 3009 
Q 2541 3009 2736 2853 
Q 2931 2697 2995 2486 
Q 3059 2275 3059 1775 
L 3059 634 
Q 3059 300 3121 217 
Q 3184 134 3375 113 
L 3375 0 
L 1894 0 
L 1894 113 
Q 2050 134 2128 238 
Q 2184 319 2184 634 
L 2184 1938 
Q 2184 2300 2156 2392 
Q 2128 2484 2061 2536 
Q 1994 2588 1909 2588 
Q 1784 2588 1665 2502 
Q 1547 2416 1409 2200 
L 1409 634 
Q 1409 322 1456 244 
Q 1516 138 1700 113 
L 1700 0 
L 219 0 
L 219 113 
Q 403 131 481 231 
Q 534 300 534 634 
L 534 3603 
Q 534 3934 473 4015 
Q 413 4097 219 4122 
L 219 4238 
L 1409 4238 
z
" transform="scale(0.015625)"/>
      <path id="TimesNewRomanPS-BoldMT-64" d="M 3056 4238 
L 3056 875 
Q 3056 534 3075 472 
Q 3100 369 3170 319 
Q 3241 269 3416 256 
L 3416 153 
L 2181 -88 
L 2181 375 
Q 1959 106 1786 9 
Q 1613 -88 1394 -88 
Q 834 -88 509 413 
Q 247 819 247 1409 
Q 247 1881 409 2254 
Q 572 2628 855 2818 
Q 1138 3009 1463 3009 
Q 1672 3009 1834 2928 
Q 1997 2847 2181 2644 
L 2181 3525 
Q 2181 3859 2153 3928 
Q 2116 4019 2041 4062 
Q 1966 4106 1759 4106 
L 1759 4238 
L 3056 4238 
z
M 2181 2256 
Q 1950 2700 1616 2700 
Q 1500 2700 1425 2638 
Q 1309 2541 1236 2297 
Q 1163 2053 1163 1550 
Q 1163 997 1244 731 
Q 1325 466 1466 347 
Q 1538 288 1663 288 
Q 1938 288 2181 719 
L 2181 2256 
z
" transform="scale(0.015625)"/>
      <path id="TimesNewRomanPS-BoldMT-55" d="M 150 4238 
L 2338 4238 
L 2338 4122 
L 2228 4122 
Q 1981 4122 1889 4070 
Q 1797 4019 1758 3928 
Q 1719 3838 1719 3475 
L 1719 1400 
Q 1719 831 1805 647 
Q 1891 463 2087 341 
Q 2284 219 2584 219 
Q 2928 219 3170 373 
Q 3413 528 3533 800 
Q 3653 1072 3653 1747 
L 3653 3475 
Q 3653 3759 3593 3881 
Q 3534 4003 3444 4050 
Q 3303 4122 3047 4122 
L 3047 4238 
L 4513 4238 
L 4513 4122 
L 4425 4122 
Q 4247 4122 4128 4050 
Q 4009 3978 3956 3834 
Q 3916 3734 3916 3475 
L 3916 1866 
Q 3916 1119 3817 787 
Q 3719 456 3337 178 
Q 2956 -100 2297 -100 
Q 1747 -100 1447 47 
Q 1038 247 869 559 
Q 700 872 700 1400 
L 700 3475 
Q 700 3841 659 3930 
Q 619 4019 519 4072 
Q 419 4125 150 4122 
L 150 4238 
z
" transform="scale(0.015625)"/>
      <path id="TimesNewRomanPS-BoldMT-53" d="M 3006 4334 
L 3041 2922 
L 2913 2922 
Q 2822 3453 2467 3776 
Q 2113 4100 1700 4100 
Q 1381 4100 1195 3929 
Q 1009 3759 1009 3538 
Q 1009 3397 1075 3288 
Q 1166 3141 1366 2997 
Q 1513 2894 2044 2631 
Q 2788 2266 3047 1941 
Q 3303 1616 3303 1197 
Q 3303 666 2889 283 
Q 2475 -100 1838 -100 
Q 1638 -100 1459 -59 
Q 1281 -19 1013 94 
Q 863 156 766 156 
Q 684 156 593 93 
Q 503 31 447 -97 
L 331 -97 
L 331 1503 
L 447 1503 
Q 584 828 976 473 
Q 1369 119 1822 119 
Q 2172 119 2380 309 
Q 2588 500 2588 753 
Q 2588 903 2508 1043 
Q 2428 1184 2265 1311 
Q 2103 1438 1691 1641 
Q 1113 1925 859 2125 
Q 606 2325 470 2572 
Q 334 2819 334 3116 
Q 334 3622 706 3978 
Q 1078 4334 1644 4334 
Q 1850 4334 2044 4284 
Q 2191 4247 2402 4145 
Q 2613 4044 2697 4044 
Q 2778 4044 2825 4094 
Q 2872 4144 2913 4334 
L 3006 4334 
z
" transform="scale(0.015625)"/>
      <path id="TimesNewRomanPS-BoldMT-44" d="M 84 0 
L 84 116 
L 225 116 
Q 409 116 507 173 
Q 606 231 653 331 
Q 681 397 681 725 
L 681 3513 
Q 681 3838 647 3919 
Q 613 4000 508 4061 
Q 403 4122 225 4122 
L 84 4122 
L 84 4238 
L 1981 4238 
Q 2741 4238 3203 4031 
Q 3769 3778 4061 3265 
Q 4353 2753 4353 2106 
Q 4353 1659 4209 1282 
Q 4066 906 3837 661 
Q 3609 416 3311 267 
Q 3013 119 2581 38 
Q 2391 0 1981 0 
L 84 0 
z
M 1700 3997 
L 1700 691 
Q 1700 428 1725 368 
Q 1750 309 1809 278 
Q 1894 231 2053 231 
Q 2575 231 2850 588 
Q 3225 1069 3225 2081 
Q 3225 2897 2969 3384 
Q 2766 3766 2447 3903 
Q 2222 4000 1700 3997 
z
" transform="scale(0.015625)"/>
      <path id="TimesNewRomanPS-BoldMT-29" d="M 78 -1281 
L 78 -1138 
Q 403 -922 556 -719 
Q 766 -438 888 0 
Q 1038 550 1038 1531 
Q 1038 2456 902 2967 
Q 766 3478 531 3794 
Q 369 4013 78 4178 
L 78 4334 
Q 831 4081 1354 3301 
Q 1878 2522 1878 1509 
Q 1878 513 1354 -257 
Q 831 -1028 78 -1281 
z
" transform="scale(0.015625)"/>
     </defs>
     <use xlink:href="#TimesNewRomanPS-BoldMT-56"/>
     <use xlink:href="#TimesNewRomanPS-BoldMT-69" x="68.466797"/>
     <use xlink:href="#TimesNewRomanPS-BoldMT-72" x="96.25"/>
     <use xlink:href="#TimesNewRomanPS-BoldMT-74" x="140.634766"/>
     <use xlink:href="#TimesNewRomanPS-BoldMT-75" x="173.935547"/>
     <use xlink:href="#TimesNewRomanPS-BoldMT-61" x="229.550781"/>
     <use xlink:href="#TimesNewRomanPS-BoldMT-6c" x="279.550781"/>
     <use xlink:href="#TimesNewRomanPS-BoldMT-20" x="307.333984"/>
     <use xlink:href="#TimesNewRomanPS-BoldMT-48" x="332.333984"/>
     <use xlink:href="#TimesNewRomanPS-BoldMT-6f" x="410.117188"/>
     <use xlink:href="#TimesNewRomanPS-BoldMT-75" x="460.117188"/>
     <use xlink:href="#TimesNewRomanPS-BoldMT-73" x="515.732422"/>
     <use xlink:href="#TimesNewRomanPS-BoldMT-69" x="554.648438"/>
     <use xlink:href="#TimesNewRomanPS-BoldMT-6e" x="582.431641"/>
     <use xlink:href="#TimesNewRomanPS-BoldMT-67" x="638.046875"/>
     <use xlink:href="#TimesNewRomanPS-BoldMT-20" x="688.046875"/>
     <use xlink:href="#TimesNewRomanPS-BoldMT-50" x="713.046875"/>
     <use xlink:href="#TimesNewRomanPS-BoldMT-72" x="774.130859"/>
     <use xlink:href="#TimesNewRomanPS-BoldMT-69" x="818.515625"/>
     <use xlink:href="#TimesNewRomanPS-BoldMT-63" x="846.298828"/>
     <use xlink:href="#TimesNewRomanPS-BoldMT-65" x="890.683594"/>
     <use xlink:href="#TimesNewRomanPS-BoldMT-73" x="935.068359"/>
     <use xlink:href="#TimesNewRomanPS-BoldMT-20" x="973.984375"/>
     <use xlink:href="#TimesNewRomanPS-BoldMT-62" x="998.984375"/>
     <use xlink:href="#TimesNewRomanPS-BoldMT-79" x="1054.599609"/>
     <use xlink:href="#TimesNewRomanPS-BoldMT-20" x="1104.599609"/>
     <use xlink:href="#TimesNewRomanPS-BoldMT-50" x="1129.599609"/>
     <use xlink:href="#TimesNewRomanPS-BoldMT-72" x="1190.683594"/>
     <use xlink:href="#TimesNewRomanPS-BoldMT-6f" x="1233.318359"/>
     <use xlink:href="#TimesNewRomanPS-BoldMT-70" x="1283.318359"/>
     <use xlink:href="#TimesNewRomanPS-BoldMT-65" x="1338.933594"/>
     <use xlink:href="#TimesNewRomanPS-BoldMT-72" x="1383.318359"/>
     <use xlink:href="#TimesNewRomanPS-BoldMT-74" x="1427.703125"/>
     <use xlink:href="#TimesNewRomanPS-BoldMT-79" x="1461.003906"/>
     <use xlink:href="#TimesNewRomanPS-BoldMT-20" x="1511.003906"/>
     <use xlink:href="#TimesNewRomanPS-BoldMT-54" x="1534.253906"/>
     <use xlink:href="#TimesNewRomanPS-BoldMT-79" x="1593.578125"/>
     <use xlink:href="#TimesNewRomanPS-BoldMT-70" x="1643.578125"/>
     <use xlink:href="#TimesNewRomanPS-BoldMT-65" x="1699.193359"/>
     <use xlink:href="#TimesNewRomanPS-BoldMT-20" x="1743.578125"/>
     <use xlink:href="#TimesNewRomanPS-BoldMT-28" x="1768.578125"/>
     <use xlink:href="#TimesNewRomanPS-BoldMT-74" x="1801.878906"/>
     <use xlink:href="#TimesNewRomanPS-BoldMT-68" x="1835.179688"/>
     <use xlink:href="#TimesNewRomanPS-BoldMT-6f" x="1890.794922"/>
     <use xlink:href="#TimesNewRomanPS-BoldMT-75" x="1940.794922"/>
     <use xlink:href="#TimesNewRomanPS-BoldMT-73" x="1996.410156"/>
     <use xlink:href="#TimesNewRomanPS-BoldMT-61" x="2035.326172"/>
     <use xlink:href="#TimesNewRomanPS-BoldMT-6e" x="2085.326172"/>
     <use xlink:href="#TimesNewRomanPS-BoldMT-64" x="2140.941406"/>
     <use xlink:href="#TimesNewRomanPS-BoldMT-20" x="2196.556641"/>
     <use xlink:href="#TimesNewRomanPS-BoldMT-55" x="2221.556641"/>
     <use xlink:href="#TimesNewRomanPS-BoldMT-53" x="2293.773438"/>
     <use xlink:href="#TimesNewRomanPS-BoldMT-44" x="2349.388672"/>
     <use xlink:href="#TimesNewRomanPS-BoldMT-29" x="2421.605469"/>
    </g>
   </g>
  </g>
 </g>
 <defs>
  <clipPath id="pcd4a2d7e22">
   <rect x="50.915938" y="30.045" width="376.8" height="228.45213"/>
  </clipPath>
 </defs>
</svg>
