<?xml version="1.0" encoding="utf-8" standalone="no"?>
<!DOCTYPE svg PUBLIC "-//W3C//DTD SVG 1.1//EN"
  "http://www.w3.org/Graphics/SVG/1.1/DTD/svg11.dtd">
<svg xmlns:xlink="http://www.w3.org/1999/xlink" width="442.905937pt" height="319.950866pt" viewBox="0 0 442.905937 319.950866" xmlns="http://www.w3.org/2000/svg" version="1.1">
 <metadata>
  <rdf:RDF xmlns:dc="http://purl.org/dc/elements/1.1/" xmlns:cc="http://creativecommons.org/ns#" xmlns:rdf="http://www.w3.org/1999/02/22-rdf-syntax-ns#">
   <cc:Work>
    <dc:type rdf:resource="http://purl.org/dc/dcmitype/StillImage"/>
    <dc:date>2025-05-26T16:54:19.377436</dc:date>
    <dc:format>image/svg+xml</dc:format>
    <dc:creator>
     <cc:Agent>
      <dc:title>Matplotlib v3.7.2, https://matplotlib.org/</dc:title>
     </cc:Agent>
    </dc:creator>
   </cc:Work>
  </rdf:RDF>
 </metadata>
 <defs>
  <style type="text/css">*{stroke-linejoin: round; stroke-linecap: butt}</style>
 </defs>
 <g id="figure_1">
  <g id="patch_1">
   <path d="M 0 319.950866 
L 442.905937 319.950866 
L 442.905937 0 
L 0 0 
z
" style="fill: #ffffff"/>
  </g>
  <g id="axes_1">
   <g id="patch_2">
    <path d="M 50.915938 260.109333 
L 427.715937 260.109333 
L 427.715937 30.045 
L 50.915938 30.045 
z
" style="fill: #ffffff"/>
   </g>
   <g id="PolyCollection_1">
    <defs>
     <path id="m3ae17ec797" d="M 118.123573 -84.874485 
L 109.308302 -84.874485 
L 108.917207 -86.557841 
L 108.529308 -88.241196 
L 108.145608 -89.924552 
L 107.76591 -91.607908 
L 107.38878 -93.291263 
L 107.011541 -94.974619 
L 106.630272 -96.657974 
L 106.239803 -98.34133 
L 105.833703 -100.024686 
L 105.404276 -101.708041 
L 104.942586 -103.391397 
L 104.438534 -105.074752 
L 103.881034 -106.758108 
L 103.258282 -108.441464 
L 102.55815 -110.124819 
L 101.768668 -111.808175 
L 100.878582 -113.49153 
L 99.877932 -115.174886 
L 98.758608 -116.858242 
L 97.514847 -118.541597 
L 96.143635 -120.224953 
L 94.645007 -121.908308 
L 93.02226 -123.591664 
L 91.282083 -125.27502 
L 89.434643 -126.958375 
L 87.493624 -128.641731 
L 85.476229 -130.325086 
L 83.403117 -132.008442 
L 81.298232 -133.691798 
L 79.188473 -135.375153 
L 77.103168 -137.058509 
L 75.073302 -138.741864 
L 73.130507 -140.42522 
L 71.305853 -142.108575 
L 69.62851 -143.791931 
L 68.124375 -145.475287 
L 66.814806 -147.158642 
L 65.715566 -148.841998 
L 64.83609 -150.525353 
L 64.179149 -152.208709 
L 63.740935 -153.892065 
L 63.511563 -155.57542 
L 63.475938 -157.258776 
L 63.6149 -158.942131 
L 63.906551 -160.625487 
L 64.327647 -162.308843 
L 64.854952 -163.992198 
L 65.46646 -165.675554 
L 66.142396 -167.358909 
L 66.865934 -169.042265 
L 67.623602 -170.725621 
L 68.405358 -172.408976 
L 69.204337 -174.092332 
L 70.016332 -175.775687 
L 70.839047 -177.459043 
L 71.671237 -179.142399 
L 72.511817 -180.825754 
L 73.359068 -182.50911 
L 74.210029 -184.192465 
L 75.060183 -185.875821 
L 75.903472 -187.559177 
L 76.732674 -189.242532 
L 77.540118 -190.925888 
L 78.318648 -192.609243 
L 79.062743 -194.292599 
L 79.769647 -195.975955 
L 80.440365 -197.65931 
L 81.080374 -199.342666 
L 81.699929 -201.026021 
L 82.313889 -202.709377 
L 82.941022 -204.392733 
L 83.602814 -206.076088 
L 84.321876 -207.759444 
L 85.120068 -209.442799 
L 86.016528 -211.126155 
L 87.025788 -212.809511 
L 88.156189 -214.492866 
L 89.408754 -216.176222 
L 90.776649 -217.859577 
L 92.245323 -219.542933 
L 93.793299 -221.226288 
L 95.393572 -222.909644 
L 97.015463 -224.593 
L 98.626751 -226.276355 
L 100.195878 -227.959711 
L 101.694012 -229.643066 
L 103.096782 -231.326422 
L 104.385552 -233.009778 
L 105.548137 -234.693133 
L 106.578947 -236.376489 
L 107.478611 -238.059844 
L 108.253154 -239.7432 
L 108.912867 -241.426556 
L 109.471004 -243.109911 
L 109.942445 -244.793267 
L 110.342451 -246.476622 
L 110.685604 -248.159978 
L 110.984989 -249.843334 
L 111.251653 -251.526689 
L 116.180222 -251.526689 
L 116.180222 -251.526689 
L 116.446886 -249.843334 
L 116.746271 -248.159978 
L 117.089424 -246.476622 
L 117.48943 -244.793267 
L 117.960871 -243.109911 
L 118.519008 -241.426556 
L 119.178721 -239.7432 
L 119.953264 -238.059844 
L 120.852928 -236.376489 
L 121.883738 -234.693133 
L 123.046323 -233.009778 
L 124.335093 -231.326422 
L 125.737863 -229.643066 
L 127.235997 -227.959711 
L 128.805124 -226.276355 
L 130.416412 -224.593 
L 132.038303 -222.909644 
L 133.638576 -221.226288 
L 135.186552 -219.542933 
L 136.655226 -217.859577 
L 138.023121 -216.176222 
L 139.275686 -214.492866 
L 140.406087 -212.809511 
L 141.415347 -211.126155 
L 142.311807 -209.442799 
L 143.109999 -207.759444 
L 143.829061 -206.076088 
L 144.490853 -204.392733 
L 145.117986 -202.709377 
L 145.731946 -201.026021 
L 146.351501 -199.342666 
L 146.99151 -197.65931 
L 147.662228 -195.975955 
L 148.369132 -194.292599 
L 149.113227 -192.609243 
L 149.891757 -190.925888 
L 150.699201 -189.242532 
L 151.528403 -187.559177 
L 152.371692 -185.875821 
L 153.221846 -184.192465 
L 154.072807 -182.50911 
L 154.920058 -180.825754 
L 155.760638 -179.142399 
L 156.592828 -177.459043 
L 157.415543 -175.775687 
L 158.227538 -174.092332 
L 159.026517 -172.408976 
L 159.808273 -170.725621 
L 160.565941 -169.042265 
L 161.289479 -167.358909 
L 161.965415 -165.675554 
L 162.576923 -163.992198 
L 163.104228 -162.308843 
L 163.525324 -160.625487 
L 163.816975 -158.942131 
L 163.955938 -157.258776 
L 163.920312 -155.57542 
L 163.69094 -153.892065 
L 163.252726 -152.208709 
L 162.595785 -150.525353 
L 161.716309 -148.841998 
L 160.617069 -147.158642 
L 159.3075 -145.475287 
L 157.803365 -143.791931 
L 156.126022 -142.108575 
L 154.301368 -140.42522 
L 152.358573 -138.741864 
L 150.328707 -137.058509 
L 148.243402 -135.375153 
L 146.133643 -133.691798 
L 144.028758 -132.008442 
L 141.955646 -130.325086 
L 139.938251 -128.641731 
L 137.997232 -126.958375 
L 136.149792 -125.27502 
L 134.409615 -123.591664 
L 132.786868 -121.908308 
L 131.28824 -120.224953 
L 129.917028 -118.541597 
L 128.673267 -116.858242 
L 127.553943 -115.174886 
L 126.553293 -113.49153 
L 125.663207 -111.808175 
L 124.873725 -110.124819 
L 124.173593 -108.441464 
L 123.550841 -106.758108 
L 122.993341 -105.074752 
L 122.489289 -103.391397 
L 122.027599 -101.708041 
L 121.598172 -100.024686 
L 121.192072 -98.34133 
L 120.801603 -96.657974 
L 120.420334 -94.974619 
L 120.043095 -93.291263 
L 119.665965 -91.607908 
L 119.286267 -89.924552 
L 118.902567 -88.241196 
L 118.514668 -86.557841 
L 118.123573 -84.874485 
z
" style="stroke: #000000; stroke-opacity: 0.7"/>
    </defs>
    <g clip-path="url(#p41689d22e2)">
     <use xlink:href="#m3ae17ec797" x="0" y="319.950866" style="fill: #dbdb8d; fill-opacity: 0.7; stroke: #000000; stroke-opacity: 0.7"/>
    </g>
   </g>
   <g id="PolyCollection_2">
    <defs>
     <path id="m40eb458ada" d="M 241.211285 -73.459951 
L 237.42059 -73.459951 
L 237.330568 -75.540642 
L 237.267807 -77.621333 
L 237.227586 -79.702025 
L 237.201631 -81.782716 
L 237.178755 -83.863408 
L 237.145829 -85.944099 
L 237.08892 -88.02479 
L 236.994405 -90.105482 
L 236.849905 -92.186173 
L 236.644911 -94.266864 
L 236.37107 -96.347556 
L 236.022164 -98.428247 
L 235.593888 -100.508939 
L 235.083527 -102.58963 
L 234.48964 -104.670321 
L 233.811811 -106.751013 
L 233.050441 -108.831704 
L 232.206539 -110.912395 
L 231.281415 -112.993087 
L 230.27623 -115.073778 
L 229.191389 -117.15447 
L 228.025856 -119.235161 
L 226.776539 -121.315852 
L 225.437925 -123.396544 
L 224.002135 -125.477235 
L 222.459526 -127.557926 
L 220.799827 -129.638618 
L 219.013753 -131.719309 
L 217.094886 -133.800001 
L 215.041628 -135.880692 
L 212.858976 -137.961383 
L 210.559955 -140.042075 
L 208.166552 -142.122766 
L 205.710098 -144.203457 
L 203.231048 -146.284149 
L 200.778153 -148.36484 
L 198.407022 -150.445532 
L 196.178106 -152.526223 
L 194.154151 -154.606914 
L 192.397222 -156.687606 
L 190.965462 -158.768297 
L 189.909791 -160.848988 
L 189.270778 -162.92968 
L 189.075938 -165.010371 
L 189.337638 -167.091063 
L 190.051822 -169.171754 
L 191.197634 -171.252445 
L 192.73804 -173.333137 
L 194.621449 -175.413828 
L 196.784309 -177.494519 
L 199.154563 -179.575211 
L 201.655777 -181.655902 
L 204.211656 -183.736594 
L 206.750591 -185.817285 
L 209.209815 -187.897976 
L 211.538759 -189.978668 
L 213.701279 -192.059359 
L 215.676499 -194.14005 
L 217.458246 -196.220742 
L 219.053168 -198.301433 
L 220.477819 -200.382125 
L 221.755116 -202.462816 
L 222.910621 -204.543507 
L 223.969097 -206.624199 
L 224.951755 -208.70489 
L 225.874445 -210.785581 
L 226.746954 -212.866273 
L 227.57337 -214.946964 
L 228.353369 -217.027656 
L 229.084102 -219.108347 
L 229.762349 -221.189038 
L 230.386505 -223.26973 
L 230.958073 -225.350421 
L 231.482378 -227.431112 
L 231.968389 -229.511804 
L 232.427689 -231.592495 
L 232.872799 -233.673186 
L 233.315169 -235.753878 
L 233.763238 -237.834569 
L 234.220927 -239.915261 
L 234.686845 -241.995952 
L 235.154366 -244.076643 
L 235.612541 -246.157335 
L 236.047689 -248.238026 
L 236.445381 -250.318717 
L 236.792491 -252.399409 
L 237.078998 -254.4801 
L 237.299312 -256.560792 
L 237.452961 -258.641483 
L 237.544612 -260.722174 
L 237.583478 -262.802866 
L 237.58225 -264.883557 
L 237.555699 -266.964248 
L 237.519167 -269.04494 
L 237.487087 -271.125631 
L 237.471724 -273.206323 
L 237.482219 -275.287014 
L 237.524043 -277.367705 
L 237.598867 -279.448397 
L 241.033008 -279.448397 
L 241.033008 -279.448397 
L 241.107832 -277.367705 
L 241.149656 -275.287014 
L 241.160151 -273.206323 
L 241.144788 -271.125631 
L 241.112708 -269.04494 
L 241.076176 -266.964248 
L 241.049625 -264.883557 
L 241.048397 -262.802866 
L 241.087263 -260.722174 
L 241.178914 -258.641483 
L 241.332563 -256.560792 
L 241.552877 -254.4801 
L 241.839384 -252.399409 
L 242.186494 -250.318717 
L 242.584186 -248.238026 
L 243.019334 -246.157335 
L 243.477509 -244.076643 
L 243.94503 -241.995952 
L 244.410948 -239.915261 
L 244.868637 -237.834569 
L 245.316706 -235.753878 
L 245.759076 -233.673186 
L 246.204186 -231.592495 
L 246.663486 -229.511804 
L 247.149497 -227.431112 
L 247.673802 -225.350421 
L 248.24537 -223.26973 
L 248.869526 -221.189038 
L 249.547773 -219.108347 
L 250.278506 -217.027656 
L 251.058505 -214.946964 
L 251.884921 -212.866273 
L 252.75743 -210.785581 
L 253.68012 -208.70489 
L 254.662778 -206.624199 
L 255.721254 -204.543507 
L 256.876759 -202.462816 
L 258.154056 -200.382125 
L 259.578707 -198.301433 
L 261.173629 -196.220742 
L 262.955376 -194.14005 
L 264.930596 -192.059359 
L 267.093116 -189.978668 
L 269.42206 -187.897976 
L 271.881284 -185.817285 
L 274.420219 -183.736594 
L 276.976098 -181.655902 
L 279.477312 -179.575211 
L 281.847566 -177.494519 
L 284.010426 -175.413828 
L 285.893835 -173.333137 
L 287.434241 -171.252445 
L 288.580053 -169.171754 
L 289.294237 -167.091063 
L 289.555937 -165.010371 
L 289.361097 -162.92968 
L 288.722084 -160.848988 
L 287.666413 -158.768297 
L 286.234653 -156.687606 
L 284.477724 -154.606914 
L 282.453769 -152.526223 
L 280.224853 -150.445532 
L 277.853722 -148.36484 
L 275.400827 -146.284149 
L 272.921777 -144.203457 
L 270.465323 -142.122766 
L 268.07192 -140.042075 
L 265.772899 -137.961383 
L 263.590247 -135.880692 
L 261.536989 -133.800001 
L 259.618122 -131.719309 
L 257.832048 -129.638618 
L 256.172349 -127.557926 
L 254.62974 -125.477235 
L 253.19395 -123.396544 
L 251.855336 -121.315852 
L 250.606019 -119.235161 
L 249.440486 -117.15447 
L 248.355645 -115.073778 
L 247.35046 -112.993087 
L 246.425336 -110.912395 
L 245.581434 -108.831704 
L 244.820064 -106.751013 
L 244.142235 -104.670321 
L 243.548348 -102.58963 
L 243.037987 -100.508939 
L 242.609711 -98.428247 
L 242.260805 -96.347556 
L 241.986964 -94.266864 
L 241.78197 -92.186173 
L 241.63747 -90.105482 
L 241.542955 -88.02479 
L 241.486046 -85.944099 
L 241.45312 -83.863408 
L 241.430244 -81.782716 
L 241.404289 -79.702025 
L 241.364068 -77.621333 
L 241.301307 -75.540642 
L 241.211285 -73.459951 
z
" style="stroke: #000000; stroke-opacity: 0.7"/>
    </defs>
    <g clip-path="url(#p41689d22e2)">
     <use xlink:href="#m40eb458ada" x="0" y="319.950866" style="fill: #ff9896; fill-opacity: 0.7; stroke: #000000; stroke-opacity: 0.7"/>
    </g>
   </g>
   <g id="PolyCollection_3">
    <defs>
     <path id="m2493d21a22" d="M 367.183873 -70.299003 
L 362.648002 -70.299003 
L 362.506983 -72.202312 
L 362.397614 -74.105621 
L 362.321453 -76.008931 
L 362.277427 -77.91224 
L 362.261782 -79.815549 
L 362.26824 -81.718859 
L 362.288352 -83.622168 
L 362.312021 -85.525477 
L 362.328175 -87.428787 
L 362.325534 -89.332096 
L 362.293444 -91.235405 
L 362.222698 -93.138715 
L 362.106275 -95.042024 
L 361.939894 -96.945333 
L 361.722311 -98.848643 
L 361.455282 -100.751952 
L 361.143172 -102.655261 
L 360.792228 -104.558571 
L 360.409611 -106.46188 
L 360.002291 -108.365189 
L 359.575949 -110.268499 
L 359.134033 -112.171808 
L 358.677066 -114.075117 
L 358.202256 -115.978427 
L 357.703442 -117.881736 
L 357.171318 -119.785045 
L 356.593905 -121.688355 
L 355.957189 -123.591664 
L 355.245879 -125.494973 
L 354.444224 -127.398283 
L 353.536836 -129.301592 
L 352.509483 -131.204901 
L 351.349782 -133.108211 
L 350.04776 -135.01152 
L 348.596247 -136.914829 
L 346.991109 -138.818139 
L 345.231382 -140.721448 
L 343.319421 -142.624757 
L 341.261183 -144.528067 
L 339.066795 -146.431376 
L 336.75148 -148.334685 
L 334.33679 -150.237995 
L 331.851993 -152.141304 
L 329.335281 -154.044613 
L 326.834396 -155.947923 
L 324.406212 -157.851232 
L 322.114928 -159.754541 
L 320.028709 -161.657851 
L 318.21488 -163.56116 
L 316.734131 -165.464469 
L 315.634458 -167.367779 
L 314.945747 -169.271088 
L 314.675937 -171.174397 
L 314.80954 -173.077707 
L 315.308939 -174.981016 
L 316.118454 -176.884325 
L 317.170688 -178.787635 
L 318.39424 -180.690944 
L 319.721651 -182.594253 
L 321.096393 -184.497562 
L 322.477871 -186.400872 
L 323.843819 -188.304181 
L 325.189858 -190.20749 
L 326.526531 -192.1108 
L 327.874479 -194.014109 
L 329.25868 -195.917418 
L 330.702754 -197.820728 
L 332.22419 -199.724037 
L 333.831117 -201.627346 
L 335.520905 -203.530656 
L 337.280542 -205.433965 
L 339.088466 -207.337274 
L 340.917339 -209.240584 
L 342.737214 -211.143893 
L 344.518577 -213.047202 
L 346.234883 -214.950512 
L 347.864354 -216.853821 
L 349.390991 -218.75713 
L 350.804852 -220.66044 
L 352.101755 -222.563749 
L 353.282562 -224.467058 
L 354.352223 -226.370368 
L 355.318705 -228.273677 
L 356.191893 -230.176986 
L 356.982552 -232.080296 
L 357.701379 -233.983605 
L 358.358219 -235.886914 
L 358.961473 -237.790224 
L 359.517768 -239.693533 
L 360.031885 -241.596842 
L 360.506958 -243.500152 
L 360.944892 -245.403461 
L 361.3469 -247.30677 
L 361.714068 -249.21008 
L 362.047829 -251.113389 
L 362.350254 -253.016698 
L 362.624122 -254.920008 
L 362.872767 -256.823317 
L 363.09977 -258.726626 
L 366.732105 -258.726626 
L 366.732105 -258.726626 
L 366.959108 -256.823317 
L 367.207753 -254.920008 
L 367.481621 -253.016698 
L 367.784046 -251.113389 
L 368.117807 -249.21008 
L 368.484975 -247.30677 
L 368.886983 -245.403461 
L 369.324917 -243.500152 
L 369.79999 -241.596842 
L 370.314107 -239.693533 
L 370.870402 -237.790224 
L 371.473656 -235.886914 
L 372.130496 -233.983605 
L 372.849323 -232.080296 
L 373.639982 -230.176986 
L 374.51317 -228.273677 
L 375.479652 -226.370368 
L 376.549313 -224.467058 
L 377.73012 -222.563749 
L 379.027023 -220.66044 
L 380.440884 -218.75713 
L 381.967521 -216.853821 
L 383.596992 -214.950512 
L 385.313298 -213.047202 
L 387.094661 -211.143893 
L 388.914536 -209.240584 
L 390.743409 -207.337274 
L 392.551333 -205.433965 
L 394.31097 -203.530656 
L 396.000758 -201.627346 
L 397.607685 -199.724037 
L 399.129121 -197.820728 
L 400.573195 -195.917418 
L 401.957396 -194.014109 
L 403.305344 -192.1108 
L 404.642017 -190.20749 
L 405.988056 -188.304181 
L 407.354004 -186.400872 
L 408.735482 -184.497562 
L 410.110224 -182.594253 
L 411.437635 -180.690944 
L 412.661187 -178.787635 
L 413.713421 -176.884325 
L 414.522936 -174.981016 
L 415.022335 -173.077707 
L 415.155937 -171.174397 
L 414.886128 -169.271088 
L 414.197417 -167.367779 
L 413.097744 -165.464469 
L 411.616995 -163.56116 
L 409.803166 -161.657851 
L 407.716947 -159.754541 
L 405.425663 -157.851232 
L 402.997479 -155.947923 
L 400.496594 -154.044613 
L 397.979882 -152.141304 
L 395.495085 -150.237995 
L 393.080395 -148.334685 
L 390.76508 -146.431376 
L 388.570692 -144.528067 
L 386.512454 -142.624757 
L 384.600493 -140.721448 
L 382.840766 -138.818139 
L 381.235628 -136.914829 
L 379.784115 -135.01152 
L 378.482093 -133.108211 
L 377.322392 -131.204901 
L 376.295039 -129.301592 
L 375.387651 -127.398283 
L 374.585996 -125.494973 
L 373.874686 -123.591664 
L 373.23797 -121.688355 
L 372.660557 -119.785045 
L 372.128433 -117.881736 
L 371.629619 -115.978427 
L 371.154809 -114.075117 
L 370.697842 -112.171808 
L 370.255926 -110.268499 
L 369.829584 -108.365189 
L 369.422264 -106.46188 
L 369.039647 -104.558571 
L 368.688703 -102.655261 
L 368.376593 -100.751952 
L 368.109564 -98.848643 
L 367.891981 -96.945333 
L 367.7256 -95.042024 
L 367.609177 -93.138715 
L 367.538431 -91.235405 
L 367.506341 -89.332096 
L 367.5037 -87.428787 
L 367.519854 -85.525477 
L 367.543523 -83.622168 
L 367.563635 -81.718859 
L 367.570093 -79.815549 
L 367.554448 -77.91224 
L 367.510422 -76.008931 
L 367.434261 -74.105621 
L 367.324892 -72.202312 
L 367.183873 -70.299003 
z
" style="stroke: #000000; stroke-opacity: 0.7"/>
    </defs>
    <g clip-path="url(#p41689d22e2)">
     <use xlink:href="#m2493d21a22" x="0" y="319.950866" style="fill: #8c564b; fill-opacity: 0.7; stroke: #000000; stroke-opacity: 0.7"/>
    </g>
   </g>
   <g id="matplotlib.axis_1">
    <g id="xtick_1">
     <g id="line2d_1">
      <defs>
       <path id="m3356deb2bb" d="M 0 0 
L 0 3.5 
" style="stroke: #000000; stroke-width: 0.8"/>
      </defs>
      <g>
       <use xlink:href="#m3356deb2bb" x="113.715937" y="260.109333" style="stroke: #000000; stroke-width: 0.8"/>
      </g>
     </g>
     <g id="text_1">
      <!-- Mansion -->
      <g transform="translate(82.201072 302.701111) rotate(-45) scale(0.12 -0.12)">
       <defs>
        <path id="TimesNewRomanPSMT-4d" d="M 2619 0 
L 981 3566 
L 981 734 
Q 981 344 1066 247 
Q 1181 116 1431 116 
L 1581 116 
L 1581 0 
L 106 0 
L 106 116 
L 256 116 
Q 525 116 638 278 
Q 706 378 706 734 
L 706 3503 
Q 706 3784 644 3909 
Q 600 4000 483 4061 
Q 366 4122 106 4122 
L 106 4238 
L 1306 4238 
L 2844 922 
L 4356 4238 
L 5556 4238 
L 5556 4122 
L 5409 4122 
Q 5138 4122 5025 3959 
Q 4956 3859 4956 3503 
L 4956 734 
Q 4956 344 5044 247 
Q 5159 116 5409 116 
L 5556 116 
L 5556 0 
L 3756 0 
L 3756 116 
L 3906 116 
Q 4178 116 4288 278 
Q 4356 378 4356 734 
L 4356 3566 
L 2722 0 
L 2619 0 
z
" transform="scale(0.015625)"/>
        <path id="TimesNewRomanPSMT-61" d="M 1822 413 
Q 1381 72 1269 19 
Q 1100 -59 909 -59 
Q 613 -59 420 144 
Q 228 347 228 678 
Q 228 888 322 1041 
Q 450 1253 767 1440 
Q 1084 1628 1822 1897 
L 1822 2009 
Q 1822 2438 1686 2597 
Q 1550 2756 1291 2756 
Q 1094 2756 978 2650 
Q 859 2544 859 2406 
L 866 2225 
Q 866 2081 792 2003 
Q 719 1925 600 1925 
Q 484 1925 411 2006 
Q 338 2088 338 2228 
Q 338 2497 613 2722 
Q 888 2947 1384 2947 
Q 1766 2947 2009 2819 
Q 2194 2722 2281 2516 
Q 2338 2381 2338 1966 
L 2338 994 
Q 2338 584 2353 492 
Q 2369 400 2405 369 
Q 2441 338 2488 338 
Q 2538 338 2575 359 
Q 2641 400 2828 588 
L 2828 413 
Q 2478 -56 2159 -56 
Q 2006 -56 1915 50 
Q 1825 156 1822 413 
z
M 1822 616 
L 1822 1706 
Q 1350 1519 1213 1441 
Q 966 1303 859 1153 
Q 753 1003 753 825 
Q 753 600 887 451 
Q 1022 303 1197 303 
Q 1434 303 1822 616 
z
" transform="scale(0.015625)"/>
        <path id="TimesNewRomanPSMT-6e" d="M 1034 2341 
Q 1538 2947 1994 2947 
Q 2228 2947 2397 2830 
Q 2566 2713 2666 2444 
Q 2734 2256 2734 1869 
L 2734 647 
Q 2734 375 2778 278 
Q 2813 200 2889 156 
Q 2966 113 3172 113 
L 3172 0 
L 1756 0 
L 1756 113 
L 1816 113 
Q 2016 113 2095 173 
Q 2175 234 2206 353 
Q 2219 400 2219 647 
L 2219 1819 
Q 2219 2209 2117 2386 
Q 2016 2563 1775 2563 
Q 1403 2563 1034 2156 
L 1034 647 
Q 1034 356 1069 288 
Q 1113 197 1189 155 
Q 1266 113 1500 113 
L 1500 0 
L 84 0 
L 84 113 
L 147 113 
Q 366 113 442 223 
Q 519 334 519 647 
L 519 1709 
Q 519 2225 495 2337 
Q 472 2450 423 2490 
Q 375 2531 294 2531 
Q 206 2531 84 2484 
L 38 2597 
L 900 2947 
L 1034 2947 
L 1034 2341 
z
" transform="scale(0.015625)"/>
        <path id="TimesNewRomanPSMT-73" d="M 2050 2947 
L 2050 1972 
L 1947 1972 
Q 1828 2431 1642 2597 
Q 1456 2763 1169 2763 
Q 950 2763 815 2647 
Q 681 2531 681 2391 
Q 681 2216 781 2091 
Q 878 1963 1175 1819 
L 1631 1597 
Q 2266 1288 2266 781 
Q 2266 391 1970 151 
Q 1675 -88 1309 -88 
Q 1047 -88 709 6 
Q 606 38 541 38 
Q 469 38 428 -44 
L 325 -44 
L 325 978 
L 428 978 
Q 516 541 762 319 
Q 1009 97 1316 97 
Q 1531 97 1667 223 
Q 1803 350 1803 528 
Q 1803 744 1651 891 
Q 1500 1038 1047 1263 
Q 594 1488 453 1669 
Q 313 1847 313 2119 
Q 313 2472 555 2709 
Q 797 2947 1181 2947 
Q 1350 2947 1591 2875 
Q 1750 2828 1803 2828 
Q 1853 2828 1881 2850 
Q 1909 2872 1947 2947 
L 2050 2947 
z
" transform="scale(0.015625)"/>
        <path id="TimesNewRomanPSMT-69" d="M 928 4444 
Q 1059 4444 1151 4351 
Q 1244 4259 1244 4128 
Q 1244 3997 1151 3903 
Q 1059 3809 928 3809 
Q 797 3809 703 3903 
Q 609 3997 609 4128 
Q 609 4259 701 4351 
Q 794 4444 928 4444 
z
M 1188 2947 
L 1188 647 
Q 1188 378 1227 289 
Q 1266 200 1342 156 
Q 1419 113 1622 113 
L 1622 0 
L 231 0 
L 231 113 
Q 441 113 512 153 
Q 584 194 626 287 
Q 669 381 669 647 
L 669 1750 
Q 669 2216 641 2353 
Q 619 2453 572 2492 
Q 525 2531 444 2531 
Q 356 2531 231 2484 
L 188 2597 
L 1050 2947 
L 1188 2947 
z
" transform="scale(0.015625)"/>
        <path id="TimesNewRomanPSMT-6f" d="M 1600 2947 
Q 2250 2947 2644 2453 
Q 2978 2031 2978 1484 
Q 2978 1100 2793 706 
Q 2609 313 2286 112 
Q 1963 -88 1566 -88 
Q 919 -88 538 428 
Q 216 863 216 1403 
Q 216 1797 411 2186 
Q 606 2575 925 2761 
Q 1244 2947 1600 2947 
z
M 1503 2744 
Q 1338 2744 1170 2645 
Q 1003 2547 900 2300 
Q 797 2053 797 1666 
Q 797 1041 1045 587 
Q 1294 134 1700 134 
Q 2003 134 2200 384 
Q 2397 634 2397 1244 
Q 2397 2006 2069 2444 
Q 1847 2744 1503 2744 
z
" transform="scale(0.015625)"/>
       </defs>
       <use xlink:href="#TimesNewRomanPSMT-4d"/>
       <use xlink:href="#TimesNewRomanPSMT-61" x="88.916016"/>
       <use xlink:href="#TimesNewRomanPSMT-6e" x="133.300781"/>
       <use xlink:href="#TimesNewRomanPSMT-73" x="183.300781"/>
       <use xlink:href="#TimesNewRomanPSMT-69" x="222.216797"/>
       <use xlink:href="#TimesNewRomanPSMT-6f" x="250"/>
       <use xlink:href="#TimesNewRomanPSMT-6e" x="300"/>
      </g>
     </g>
    </g>
    <g id="xtick_2">
     <g id="line2d_2">
      <g>
       <use xlink:href="#m3356deb2bb" x="239.315937" y="260.109333" style="stroke: #000000; stroke-width: 0.8"/>
      </g>
     </g>
     <g id="text_2">
      <!-- Urban Loft -->
      <g transform="translate(199.566372 310.935812) rotate(-45) scale(0.12 -0.12)">
       <defs>
        <path id="TimesNewRomanPSMT-55" d="M 3053 4122 
L 3053 4238 
L 4553 4238 
L 4553 4122 
L 4394 4122 
Q 4144 4122 4009 3913 
Q 3944 3816 3944 3463 
L 3944 1744 
Q 3944 1106 3817 754 
Q 3691 403 3320 151 
Q 2950 -100 2313 -100 
Q 1619 -100 1259 140 
Q 900 381 750 788 
Q 650 1066 650 1831 
L 650 3488 
Q 650 3878 542 4000 
Q 434 4122 194 4122 
L 34 4122 
L 34 4238 
L 1866 4238 
L 1866 4122 
L 1703 4122 
Q 1441 4122 1328 3956 
Q 1250 3844 1250 3488 
L 1250 1641 
Q 1250 1394 1295 1075 
Q 1341 756 1459 578 
Q 1578 400 1801 284 
Q 2025 169 2350 169 
Q 2766 169 3094 350 
Q 3422 531 3542 814 
Q 3663 1097 3663 1772 
L 3663 3488 
Q 3663 3884 3575 3984 
Q 3453 4122 3213 4122 
L 3053 4122 
z
" transform="scale(0.015625)"/>
        <path id="TimesNewRomanPSMT-72" d="M 1038 2947 
L 1038 2303 
Q 1397 2947 1775 2947 
Q 1947 2947 2059 2842 
Q 2172 2738 2172 2600 
Q 2172 2478 2090 2393 
Q 2009 2309 1897 2309 
Q 1788 2309 1652 2417 
Q 1516 2525 1450 2525 
Q 1394 2525 1328 2463 
Q 1188 2334 1038 2041 
L 1038 669 
Q 1038 431 1097 309 
Q 1138 225 1241 169 
Q 1344 113 1538 113 
L 1538 0 
L 72 0 
L 72 113 
Q 291 113 397 181 
Q 475 231 506 341 
Q 522 394 522 644 
L 522 1753 
Q 522 2253 501 2348 
Q 481 2444 426 2487 
Q 372 2531 291 2531 
Q 194 2531 72 2484 
L 41 2597 
L 906 2947 
L 1038 2947 
z
" transform="scale(0.015625)"/>
        <path id="TimesNewRomanPSMT-62" d="M 984 2369 
Q 1400 2947 1881 2947 
Q 2322 2947 2650 2570 
Q 2978 2194 2978 1541 
Q 2978 778 2472 313 
Q 2038 -88 1503 -88 
Q 1253 -88 995 3 
Q 738 94 469 275 
L 469 3241 
Q 469 3728 445 3840 
Q 422 3953 372 3993 
Q 322 4034 247 4034 
Q 159 4034 28 3984 
L -16 4094 
L 844 4444 
L 984 4444 
L 984 2369 
z
M 984 2169 
L 984 456 
Q 1144 300 1314 220 
Q 1484 141 1663 141 
Q 1947 141 2192 453 
Q 2438 766 2438 1363 
Q 2438 1913 2192 2208 
Q 1947 2503 1634 2503 
Q 1469 2503 1303 2419 
Q 1178 2356 984 2169 
z
" transform="scale(0.015625)"/>
        <path id="TimesNewRomanPSMT-20" transform="scale(0.015625)"/>
        <path id="TimesNewRomanPSMT-4c" d="M 3669 1172 
L 3772 1150 
L 3409 0 
L 128 0 
L 128 116 
L 288 116 
Q 556 116 672 291 
Q 738 391 738 753 
L 738 3488 
Q 738 3884 650 3984 
Q 528 4122 288 4122 
L 128 4122 
L 128 4238 
L 2047 4238 
L 2047 4122 
Q 1709 4125 1573 4059 
Q 1438 3994 1388 3894 
Q 1338 3794 1338 3416 
L 1338 753 
Q 1338 494 1388 397 
Q 1425 331 1503 300 
Q 1581 269 1991 269 
L 2300 269 
Q 2788 269 2984 341 
Q 3181 413 3343 595 
Q 3506 778 3669 1172 
z
" transform="scale(0.015625)"/>
        <path id="TimesNewRomanPSMT-66" d="M 1319 2638 
L 1319 756 
Q 1319 356 1406 250 
Q 1522 113 1716 113 
L 1975 113 
L 1975 0 
L 266 0 
L 266 113 
L 394 113 
Q 519 113 622 175 
Q 725 238 764 344 
Q 803 450 803 756 
L 803 2638 
L 247 2638 
L 247 2863 
L 803 2863 
L 803 3050 
Q 803 3478 940 3775 
Q 1078 4072 1361 4255 
Q 1644 4438 1997 4438 
Q 2325 4438 2600 4225 
Q 2781 4084 2781 3909 
Q 2781 3816 2700 3733 
Q 2619 3650 2525 3650 
Q 2453 3650 2373 3701 
Q 2294 3753 2178 3923 
Q 2063 4094 1966 4153 
Q 1869 4213 1750 4213 
Q 1606 4213 1506 4136 
Q 1406 4059 1362 3898 
Q 1319 3738 1319 3069 
L 1319 2863 
L 2056 2863 
L 2056 2638 
L 1319 2638 
z
" transform="scale(0.015625)"/>
        <path id="TimesNewRomanPSMT-74" d="M 1031 3803 
L 1031 2863 
L 1700 2863 
L 1700 2644 
L 1031 2644 
L 1031 788 
Q 1031 509 1111 412 
Q 1191 316 1316 316 
Q 1419 316 1516 380 
Q 1613 444 1666 569 
L 1788 569 
Q 1678 263 1478 108 
Q 1278 -47 1066 -47 
Q 922 -47 784 33 
Q 647 113 581 261 
Q 516 409 516 719 
L 516 2644 
L 63 2644 
L 63 2747 
Q 234 2816 414 2980 
Q 594 3144 734 3369 
Q 806 3488 934 3803 
L 1031 3803 
z
" transform="scale(0.015625)"/>
       </defs>
       <use xlink:href="#TimesNewRomanPSMT-55"/>
       <use xlink:href="#TimesNewRomanPSMT-72" x="72.216797"/>
       <use xlink:href="#TimesNewRomanPSMT-62" x="105.517578"/>
       <use xlink:href="#TimesNewRomanPSMT-61" x="155.517578"/>
       <use xlink:href="#TimesNewRomanPSMT-6e" x="199.902344"/>
       <use xlink:href="#TimesNewRomanPSMT-20" x="249.902344"/>
       <use xlink:href="#TimesNewRomanPSMT-4c" x="274.902344"/>
       <use xlink:href="#TimesNewRomanPSMT-6f" x="335.986328"/>
       <use xlink:href="#TimesNewRomanPSMT-66" x="385.986328"/>
       <use xlink:href="#TimesNewRomanPSMT-74" x="419.287109"/>
      </g>
     </g>
    </g>
    <g id="xtick_3">
     <g id="line2d_3">
      <g>
       <use xlink:href="#m3356deb2bb" x="364.915937" y="260.109333" style="stroke: #000000; stroke-width: 0.8"/>
      </g>
     </g>
     <g id="text_3">
      <!-- Bungalow -->
      <g transform="translate(328.202511 307.883762) rotate(-45) scale(0.12 -0.12)">
       <defs>
        <path id="TimesNewRomanPSMT-42" d="M 2956 2163 
Q 3397 2069 3616 1863 
Q 3919 1575 3919 1159 
Q 3919 844 3719 555 
Q 3519 266 3170 133 
Q 2822 0 2106 0 
L 106 0 
L 106 116 
L 266 116 
Q 531 116 647 284 
Q 719 394 719 750 
L 719 3488 
Q 719 3881 628 3984 
Q 506 4122 266 4122 
L 106 4122 
L 106 4238 
L 1938 4238 
Q 2450 4238 2759 4163 
Q 3228 4050 3475 3764 
Q 3722 3478 3722 3106 
Q 3722 2788 3528 2536 
Q 3334 2284 2956 2163 
z
M 1319 2331 
Q 1434 2309 1582 2298 
Q 1731 2288 1909 2288 
Q 2366 2288 2595 2386 
Q 2825 2484 2947 2687 
Q 3069 2891 3069 3131 
Q 3069 3503 2766 3765 
Q 2463 4028 1881 4028 
Q 1569 4028 1319 3959 
L 1319 2331 
z
M 1319 306 
Q 1681 222 2034 222 
Q 2600 222 2897 476 
Q 3194 731 3194 1106 
Q 3194 1353 3059 1581 
Q 2925 1809 2622 1940 
Q 2319 2072 1872 2072 
Q 1678 2072 1540 2065 
Q 1403 2059 1319 2044 
L 1319 306 
z
" transform="scale(0.015625)"/>
        <path id="TimesNewRomanPSMT-75" d="M 2709 2863 
L 2709 1128 
Q 2709 631 2732 520 
Q 2756 409 2807 365 
Q 2859 322 2928 322 
Q 3025 322 3147 375 
L 3191 266 
L 2334 -88 
L 2194 -88 
L 2194 519 
Q 1825 119 1631 15 
Q 1438 -88 1222 -88 
Q 981 -88 804 51 
Q 628 191 559 409 
Q 491 628 491 1028 
L 491 2306 
Q 491 2509 447 2587 
Q 403 2666 317 2708 
Q 231 2750 6 2747 
L 6 2863 
L 1009 2863 
L 1009 947 
Q 1009 547 1148 422 
Q 1288 297 1484 297 
Q 1619 297 1789 381 
Q 1959 466 2194 703 
L 2194 2325 
Q 2194 2569 2105 2655 
Q 2016 2741 1734 2747 
L 1734 2863 
L 2709 2863 
z
" transform="scale(0.015625)"/>
        <path id="TimesNewRomanPSMT-67" d="M 966 1044 
Q 703 1172 562 1401 
Q 422 1631 422 1909 
Q 422 2334 742 2640 
Q 1063 2947 1563 2947 
Q 1972 2947 2272 2747 
L 2878 2747 
Q 3013 2747 3034 2739 
Q 3056 2731 3066 2713 
Q 3084 2684 3084 2613 
Q 3084 2531 3069 2500 
Q 3059 2484 3036 2475 
Q 3013 2466 2878 2466 
L 2506 2466 
Q 2681 2241 2681 1891 
Q 2681 1491 2375 1206 
Q 2069 922 1553 922 
Q 1341 922 1119 984 
Q 981 866 932 777 
Q 884 688 884 625 
Q 884 572 936 522 
Q 988 472 1138 450 
Q 1225 438 1575 428 
Q 2219 413 2409 384 
Q 2700 344 2873 169 
Q 3047 -6 3047 -263 
Q 3047 -616 2716 -925 
Q 2228 -1381 1444 -1381 
Q 841 -1381 425 -1109 
Q 191 -953 191 -784 
Q 191 -709 225 -634 
Q 278 -519 444 -313 
Q 466 -284 763 25 
Q 600 122 533 198 
Q 466 275 466 372 
Q 466 481 555 628 
Q 644 775 966 1044 
z
M 1509 2797 
Q 1278 2797 1122 2612 
Q 966 2428 966 2047 
Q 966 1553 1178 1281 
Q 1341 1075 1591 1075 
Q 1828 1075 1981 1253 
Q 2134 1431 2134 1813 
Q 2134 2309 1919 2591 
Q 1759 2797 1509 2797 
z
M 934 0 
Q 788 -159 713 -296 
Q 638 -434 638 -550 
Q 638 -700 819 -813 
Q 1131 -1006 1722 -1006 
Q 2284 -1006 2551 -807 
Q 2819 -609 2819 -384 
Q 2819 -222 2659 -153 
Q 2497 -84 2016 -72 
Q 1313 -53 934 0 
z
" transform="scale(0.015625)"/>
        <path id="TimesNewRomanPSMT-6c" d="M 1184 4444 
L 1184 647 
Q 1184 378 1223 290 
Q 1263 203 1344 158 
Q 1425 113 1647 113 
L 1647 0 
L 244 0 
L 244 113 
Q 441 113 512 153 
Q 584 194 625 287 
Q 666 381 666 647 
L 666 3247 
Q 666 3731 644 3842 
Q 622 3953 573 3993 
Q 525 4034 450 4034 
Q 369 4034 244 3984 
L 191 4094 
L 1044 4444 
L 1184 4444 
z
" transform="scale(0.015625)"/>
        <path id="TimesNewRomanPSMT-77" d="M 41 2863 
L 1241 2863 
L 1241 2747 
Q 1075 2734 1023 2687 
Q 972 2641 972 2553 
Q 972 2456 1025 2319 
L 1638 672 
L 2253 2013 
L 2091 2434 
Q 2016 2622 1894 2694 
Q 1825 2738 1638 2747 
L 1638 2863 
L 3000 2863 
L 3000 2747 
Q 2775 2738 2681 2666 
Q 2619 2616 2619 2506 
Q 2619 2444 2644 2378 
L 3294 734 
L 3897 2319 
Q 3959 2488 3959 2588 
Q 3959 2647 3898 2694 
Q 3838 2741 3659 2747 
L 3659 2863 
L 4563 2863 
L 4563 2747 
Q 4291 2706 4163 2378 
L 3206 -88 
L 3078 -88 
L 2363 1741 
L 1528 -88 
L 1413 -88 
L 494 2319 
Q 403 2547 315 2626 
Q 228 2706 41 2747 
L 41 2863 
z
" transform="scale(0.015625)"/>
       </defs>
       <use xlink:href="#TimesNewRomanPSMT-42"/>
       <use xlink:href="#TimesNewRomanPSMT-75" x="66.699219"/>
       <use xlink:href="#TimesNewRomanPSMT-6e" x="116.699219"/>
       <use xlink:href="#TimesNewRomanPSMT-67" x="166.699219"/>
       <use xlink:href="#TimesNewRomanPSMT-61" x="216.699219"/>
       <use xlink:href="#TimesNewRomanPSMT-6c" x="261.083984"/>
       <use xlink:href="#TimesNewRomanPSMT-6f" x="288.867188"/>
       <use xlink:href="#TimesNewRomanPSMT-77" x="338.867188"/>
      </g>
     </g>
    </g>
   </g>
   <g id="matplotlib.axis_2">
    <g id="ytick_1">
     <g id="line2d_4">
      <defs>
       <path id="m1fa9a407c9" d="M 0 0 
L -3.5 0 
" style="stroke: #000000; stroke-width: 0.8"/>
      </defs>
      <g>
       <use xlink:href="#m1fa9a407c9" x="50.915938" y="253.164028" style="stroke: #000000; stroke-width: 0.8"/>
      </g>
     </g>
     <g id="text_4">
      <!-- 0 -->
      <g transform="translate(38.915938 256.635903) scale(0.1 -0.1)">
       <defs>
        <path id="TimesNewRomanPSMT-30" d="M 231 2094 
Q 231 2819 450 3342 
Q 669 3866 1031 4122 
Q 1313 4325 1613 4325 
Q 2100 4325 2488 3828 
Q 2972 3213 2972 2159 
Q 2972 1422 2759 906 
Q 2547 391 2217 158 
Q 1888 -75 1581 -75 
Q 975 -75 572 641 
Q 231 1244 231 2094 
z
M 844 2016 
Q 844 1141 1059 588 
Q 1238 122 1591 122 
Q 1759 122 1940 273 
Q 2122 425 2216 781 
Q 2359 1319 2359 2297 
Q 2359 3022 2209 3506 
Q 2097 3866 1919 4016 
Q 1791 4119 1609 4119 
Q 1397 4119 1231 3928 
Q 1006 3669 925 3112 
Q 844 2556 844 2016 
z
" transform="scale(0.015625)"/>
       </defs>
       <use xlink:href="#TimesNewRomanPSMT-30"/>
      </g>
     </g>
    </g>
    <g id="ytick_2">
     <g id="line2d_5">
      <g>
       <use xlink:href="#m1fa9a407c9" x="50.915938" y="218.042383" style="stroke: #000000; stroke-width: 0.8"/>
      </g>
     </g>
     <g id="text_5">
      <!-- 200 -->
      <g transform="translate(28.915938 221.514258) scale(0.1 -0.1)">
       <defs>
        <path id="TimesNewRomanPSMT-32" d="M 2934 816 
L 2638 0 
L 138 0 
L 138 116 
Q 1241 1122 1691 1759 
Q 2141 2397 2141 2925 
Q 2141 3328 1894 3587 
Q 1647 3847 1303 3847 
Q 991 3847 742 3664 
Q 494 3481 375 3128 
L 259 3128 
Q 338 3706 661 4015 
Q 984 4325 1469 4325 
Q 1984 4325 2329 3994 
Q 2675 3663 2675 3213 
Q 2675 2891 2525 2569 
Q 2294 2063 1775 1497 
Q 997 647 803 472 
L 1909 472 
Q 2247 472 2383 497 
Q 2519 522 2628 598 
Q 2738 675 2819 816 
L 2934 816 
z
" transform="scale(0.015625)"/>
       </defs>
       <use xlink:href="#TimesNewRomanPSMT-32"/>
       <use xlink:href="#TimesNewRomanPSMT-30" x="50"/>
       <use xlink:href="#TimesNewRomanPSMT-30" x="100"/>
      </g>
     </g>
    </g>
    <g id="ytick_3">
     <g id="line2d_6">
      <g>
       <use xlink:href="#m1fa9a407c9" x="50.915938" y="182.920739" style="stroke: #000000; stroke-width: 0.8"/>
      </g>
     </g>
     <g id="text_6">
      <!-- 400 -->
      <g transform="translate(28.915938 186.392614) scale(0.1 -0.1)">
       <defs>
        <path id="TimesNewRomanPSMT-34" d="M 2978 1563 
L 2978 1119 
L 2409 1119 
L 2409 0 
L 1894 0 
L 1894 1119 
L 100 1119 
L 100 1519 
L 2066 4325 
L 2409 4325 
L 2409 1563 
L 2978 1563 
z
M 1894 1563 
L 1894 3666 
L 406 1563 
L 1894 1563 
z
" transform="scale(0.015625)"/>
       </defs>
       <use xlink:href="#TimesNewRomanPSMT-34"/>
       <use xlink:href="#TimesNewRomanPSMT-30" x="50"/>
       <use xlink:href="#TimesNewRomanPSMT-30" x="100"/>
      </g>
     </g>
    </g>
    <g id="ytick_4">
     <g id="line2d_7">
      <g>
       <use xlink:href="#m1fa9a407c9" x="50.915938" y="147.799094" style="stroke: #000000; stroke-width: 0.8"/>
      </g>
     </g>
     <g id="text_7">
      <!-- 600 -->
      <g transform="translate(28.915938 151.270969) scale(0.1 -0.1)">
       <defs>
        <path id="TimesNewRomanPSMT-36" d="M 2869 4325 
L 2869 4209 
Q 2456 4169 2195 4045 
Q 1934 3922 1679 3669 
Q 1425 3416 1258 3105 
Q 1091 2794 978 2366 
Q 1428 2675 1881 2675 
Q 2316 2675 2634 2325 
Q 2953 1975 2953 1425 
Q 2953 894 2631 456 
Q 2244 -75 1606 -75 
Q 1172 -75 869 213 
Q 275 772 275 1663 
Q 275 2231 503 2743 
Q 731 3256 1154 3653 
Q 1578 4050 1965 4187 
Q 2353 4325 2688 4325 
L 2869 4325 
z
M 925 2138 
Q 869 1716 869 1456 
Q 869 1156 980 804 
Q 1091 453 1309 247 
Q 1469 100 1697 100 
Q 1969 100 2183 356 
Q 2397 613 2397 1088 
Q 2397 1622 2184 2012 
Q 1972 2403 1581 2403 
Q 1463 2403 1327 2353 
Q 1191 2303 925 2138 
z
" transform="scale(0.015625)"/>
       </defs>
       <use xlink:href="#TimesNewRomanPSMT-36"/>
       <use xlink:href="#TimesNewRomanPSMT-30" x="50"/>
       <use xlink:href="#TimesNewRomanPSMT-30" x="100"/>
      </g>
     </g>
    </g>
    <g id="ytick_5">
     <g id="line2d_8">
      <g>
       <use xlink:href="#m1fa9a407c9" x="50.915938" y="112.677449" style="stroke: #000000; stroke-width: 0.8"/>
      </g>
     </g>
     <g id="text_8">
      <!-- 800 -->
      <g transform="translate(28.915938 116.149324) scale(0.1 -0.1)">
       <defs>
        <path id="TimesNewRomanPSMT-38" d="M 1228 2134 
Q 725 2547 579 2797 
Q 434 3047 434 3316 
Q 434 3728 753 4026 
Q 1072 4325 1600 4325 
Q 2113 4325 2425 4047 
Q 2738 3769 2738 3413 
Q 2738 3175 2569 2928 
Q 2400 2681 1866 2347 
Q 2416 1922 2594 1678 
Q 2831 1359 2831 1006 
Q 2831 559 2490 242 
Q 2150 -75 1597 -75 
Q 994 -75 656 303 
Q 388 606 388 966 
Q 388 1247 577 1523 
Q 766 1800 1228 2134 
z
M 1719 2469 
Q 2094 2806 2194 3001 
Q 2294 3197 2294 3444 
Q 2294 3772 2109 3958 
Q 1925 4144 1606 4144 
Q 1288 4144 1088 3959 
Q 888 3775 888 3528 
Q 888 3366 970 3203 
Q 1053 3041 1206 2894 
L 1719 2469 
z
M 1375 2016 
Q 1116 1797 991 1539 
Q 866 1281 866 981 
Q 866 578 1086 336 
Q 1306 94 1647 94 
Q 1984 94 2187 284 
Q 2391 475 2391 747 
Q 2391 972 2272 1150 
Q 2050 1481 1375 2016 
z
" transform="scale(0.015625)"/>
       </defs>
       <use xlink:href="#TimesNewRomanPSMT-38"/>
       <use xlink:href="#TimesNewRomanPSMT-30" x="50"/>
       <use xlink:href="#TimesNewRomanPSMT-30" x="100"/>
      </g>
     </g>
    </g>
    <g id="ytick_6">
     <g id="line2d_9">
      <g>
       <use xlink:href="#m1fa9a407c9" x="50.915938" y="77.555805" style="stroke: #000000; stroke-width: 0.8"/>
      </g>
     </g>
     <g id="text_9">
      <!-- 1000 -->
      <g transform="translate(23.915938 81.02768) scale(0.1 -0.1)">
       <defs>
        <path id="TimesNewRomanPSMT-31" d="M 750 3822 
L 1781 4325 
L 1884 4325 
L 1884 747 
Q 1884 391 1914 303 
Q 1944 216 2037 169 
Q 2131 122 2419 116 
L 2419 0 
L 825 0 
L 825 116 
Q 1125 122 1212 167 
Q 1300 213 1334 289 
Q 1369 366 1369 747 
L 1369 3034 
Q 1369 3497 1338 3628 
Q 1316 3728 1258 3775 
Q 1200 3822 1119 3822 
Q 1003 3822 797 3725 
L 750 3822 
z
" transform="scale(0.015625)"/>
       </defs>
       <use xlink:href="#TimesNewRomanPSMT-31"/>
       <use xlink:href="#TimesNewRomanPSMT-30" x="50"/>
       <use xlink:href="#TimesNewRomanPSMT-30" x="100"/>
       <use xlink:href="#TimesNewRomanPSMT-30" x="150"/>
      </g>
     </g>
    </g>
    <g id="ytick_7">
     <g id="line2d_10">
      <g>
       <use xlink:href="#m1fa9a407c9" x="50.915938" y="42.43416" style="stroke: #000000; stroke-width: 0.8"/>
      </g>
     </g>
     <g id="text_10">
      <!-- 1200 -->
      <g transform="translate(23.915938 45.906035) scale(0.1 -0.1)">
       <use xlink:href="#TimesNewRomanPSMT-31"/>
       <use xlink:href="#TimesNewRomanPSMT-32" x="50"/>
       <use xlink:href="#TimesNewRomanPSMT-30" x="100"/>
       <use xlink:href="#TimesNewRomanPSMT-30" x="150"/>
      </g>
     </g>
    </g>
    <g id="text_11">
     <!-- thousand USD -->
     <g transform="translate(16.92125 186.10701) rotate(-90) scale(0.14 -0.14)">
      <defs>
       <path id="TimesNewRomanPSMT-68" d="M 1041 4444 
L 1041 2350 
Q 1388 2731 1591 2839 
Q 1794 2947 1997 2947 
Q 2241 2947 2416 2812 
Q 2591 2678 2675 2391 
Q 2734 2191 2734 1659 
L 2734 647 
Q 2734 375 2778 275 
Q 2809 200 2884 156 
Q 2959 113 3159 113 
L 3159 0 
L 1753 0 
L 1753 113 
L 1819 113 
Q 2019 113 2097 173 
Q 2175 234 2206 353 
Q 2216 403 2216 647 
L 2216 1659 
Q 2216 2128 2167 2275 
Q 2119 2422 2012 2495 
Q 1906 2569 1756 2569 
Q 1603 2569 1437 2487 
Q 1272 2406 1041 2159 
L 1041 647 
Q 1041 353 1073 281 
Q 1106 209 1195 161 
Q 1284 113 1503 113 
L 1503 0 
L 84 0 
L 84 113 
Q 275 113 384 172 
Q 447 203 484 290 
Q 522 378 522 647 
L 522 3238 
Q 522 3728 498 3840 
Q 475 3953 426 3993 
Q 378 4034 297 4034 
Q 231 4034 84 3984 
L 41 4094 
L 897 4444 
L 1041 4444 
z
" transform="scale(0.015625)"/>
       <path id="TimesNewRomanPSMT-64" d="M 2222 322 
Q 2013 103 1813 7 
Q 1613 -88 1381 -88 
Q 913 -88 563 304 
Q 213 697 213 1313 
Q 213 1928 600 2439 
Q 988 2950 1597 2950 
Q 1975 2950 2222 2709 
L 2222 3238 
Q 2222 3728 2198 3840 
Q 2175 3953 2125 3993 
Q 2075 4034 2000 4034 
Q 1919 4034 1784 3984 
L 1744 4094 
L 2597 4444 
L 2738 4444 
L 2738 1134 
Q 2738 631 2761 520 
Q 2784 409 2836 365 
Q 2888 322 2956 322 
Q 3041 322 3181 375 
L 3216 266 
L 2366 -88 
L 2222 -88 
L 2222 322 
z
M 2222 541 
L 2222 2016 
Q 2203 2228 2109 2403 
Q 2016 2578 1861 2667 
Q 1706 2756 1559 2756 
Q 1284 2756 1069 2509 
Q 784 2184 784 1559 
Q 784 928 1059 592 
Q 1334 256 1672 256 
Q 1956 256 2222 541 
z
" transform="scale(0.015625)"/>
       <path id="TimesNewRomanPSMT-53" d="M 2934 4334 
L 2934 2869 
L 2819 2869 
Q 2763 3291 2617 3541 
Q 2472 3791 2203 3937 
Q 1934 4084 1647 4084 
Q 1322 4084 1109 3886 
Q 897 3688 897 3434 
Q 897 3241 1031 3081 
Q 1225 2847 1953 2456 
Q 2547 2138 2764 1967 
Q 2981 1797 3098 1565 
Q 3216 1334 3216 1081 
Q 3216 600 2842 251 
Q 2469 -97 1881 -97 
Q 1697 -97 1534 -69 
Q 1438 -53 1133 45 
Q 828 144 747 144 
Q 669 144 623 97 
Q 578 50 556 -97 
L 441 -97 
L 441 1356 
L 556 1356 
Q 638 900 775 673 
Q 913 447 1195 297 
Q 1478 147 1816 147 
Q 2206 147 2432 353 
Q 2659 559 2659 841 
Q 2659 997 2573 1156 
Q 2488 1316 2306 1453 
Q 2184 1547 1640 1851 
Q 1097 2156 867 2337 
Q 638 2519 519 2737 
Q 400 2956 400 3219 
Q 400 3675 750 4004 
Q 1100 4334 1641 4334 
Q 1978 4334 2356 4169 
Q 2531 4091 2603 4091 
Q 2684 4091 2736 4139 
Q 2788 4188 2819 4334 
L 2934 4334 
z
" transform="scale(0.015625)"/>
       <path id="TimesNewRomanPSMT-44" d="M 109 0 
L 109 116 
L 269 116 
Q 538 116 650 288 
Q 719 391 719 750 
L 719 3488 
Q 719 3884 631 3984 
Q 509 4122 269 4122 
L 109 4122 
L 109 4238 
L 1834 4238 
Q 2784 4238 3279 4022 
Q 3775 3806 4076 3303 
Q 4378 2800 4378 2141 
Q 4378 1256 3841 663 
Q 3238 0 2003 0 
L 109 0 
z
M 1319 306 
Q 1716 219 1984 219 
Q 2709 219 3187 728 
Q 3666 1238 3666 2109 
Q 3666 2988 3187 3494 
Q 2709 4000 1959 4000 
Q 1678 4000 1319 3909 
L 1319 306 
z
" transform="scale(0.015625)"/>
      </defs>
      <use xlink:href="#TimesNewRomanPSMT-74"/>
      <use xlink:href="#TimesNewRomanPSMT-68" x="27.783203"/>
      <use xlink:href="#TimesNewRomanPSMT-6f" x="77.783203"/>
      <use xlink:href="#TimesNewRomanPSMT-75" x="127.783203"/>
      <use xlink:href="#TimesNewRomanPSMT-73" x="177.783203"/>
      <use xlink:href="#TimesNewRomanPSMT-61" x="216.699219"/>
      <use xlink:href="#TimesNewRomanPSMT-6e" x="261.083984"/>
      <use xlink:href="#TimesNewRomanPSMT-64" x="311.083984"/>
      <use xlink:href="#TimesNewRomanPSMT-20" x="361.083984"/>
      <use xlink:href="#TimesNewRomanPSMT-55" x="386.083984"/>
      <use xlink:href="#TimesNewRomanPSMT-53" x="458.300781"/>
      <use xlink:href="#TimesNewRomanPSMT-44" x="513.916016"/>
     </g>
    </g>
   </g>
   <g id="patch_3">
    <path d="M 106.179937 173.701307 
L 121.251938 173.701307 
L 121.251938 128.745602 
L 106.179937 128.745602 
L 106.179937 173.701307 
L 106.179937 173.701307 
z
" clip-path="url(#p41689d22e2)" style="fill: none; stroke: #000000; stroke-linejoin: miter"/>
   </g>
   <g id="line2d_11">
    <path d="M 113.715937 173.701307 
L 113.715937 235.076381 
" clip-path="url(#p41689d22e2)" style="fill: none; stroke: #000000; stroke-linecap: square"/>
   </g>
   <g id="line2d_12">
    <path d="M 113.715937 128.745602 
L 113.715937 68.424177 
" clip-path="url(#p41689d22e2)" style="fill: none; stroke: #000000; stroke-linecap: square"/>
   </g>
   <g id="line2d_13">
    <path d="M 109.947937 235.076381 
L 117.483938 235.076381 
" clip-path="url(#p41689d22e2)" style="fill: none; stroke: #000000; stroke-linecap: square"/>
   </g>
   <g id="line2d_14">
    <path d="M 109.947937 68.424177 
L 117.483938 68.424177 
" clip-path="url(#p41689d22e2)" style="fill: none; stroke: #000000; stroke-linecap: square"/>
   </g>
   <g id="patch_4">
    <path d="M 231.779937 168.696473 
L 246.851938 168.696473 
L 246.851938 138.843075 
L 231.779937 138.843075 
L 231.779937 168.696473 
L 231.779937 168.696473 
z
" clip-path="url(#p41689d22e2)" style="fill: none; stroke: #000000; stroke-linejoin: miter"/>
   </g>
   <g id="line2d_15">
    <path d="M 239.315937 168.696473 
L 239.315937 212.42292 
" clip-path="url(#p41689d22e2)" style="fill: none; stroke: #000000; stroke-linecap: square"/>
   </g>
   <g id="line2d_16">
    <path d="M 239.315937 138.843075 
L 239.315937 94.589802 
" clip-path="url(#p41689d22e2)" style="fill: none; stroke: #000000; stroke-linecap: square"/>
   </g>
   <g id="line2d_17">
    <path d="M 235.547937 212.42292 
L 243.083937 212.42292 
" clip-path="url(#p41689d22e2)" style="fill: none; stroke: #000000; stroke-linecap: square"/>
   </g>
   <g id="line2d_18">
    <path d="M 235.547937 94.589802 
L 243.083937 94.589802 
" clip-path="url(#p41689d22e2)" style="fill: none; stroke: #000000; stroke-linecap: square"/>
   </g>
   <g id="patch_5">
    <path d="M 357.379937 162.111164 
L 372.451937 162.111164 
L 372.451937 124.179788 
L 357.379937 124.179788 
L 357.379937 162.111164 
L 357.379937 162.111164 
z
" clip-path="url(#p41689d22e2)" style="fill: none; stroke: #000000; stroke-linejoin: miter"/>
   </g>
   <g id="line2d_19">
    <path d="M 364.915937 162.111164 
L 364.915937 210.140013 
" clip-path="url(#p41689d22e2)" style="fill: none; stroke: #000000; stroke-linecap: square"/>
   </g>
   <g id="line2d_20">
    <path d="M 364.915937 124.179788 
L 364.915937 78.785062 
" clip-path="url(#p41689d22e2)" style="fill: none; stroke: #000000; stroke-linecap: square"/>
   </g>
   <g id="line2d_21">
    <path d="M 361.147938 210.140013 
L 368.683937 210.140013 
" clip-path="url(#p41689d22e2)" style="fill: none; stroke: #000000; stroke-linecap: square"/>
   </g>
   <g id="line2d_22">
    <path d="M 361.147938 78.785062 
L 368.683937 78.785062 
" clip-path="url(#p41689d22e2)" style="fill: none; stroke: #000000; stroke-linecap: square"/>
   </g>
   <g id="line2d_23">
    <path d="M 106.179937 153.945382 
L 121.251938 153.945382 
" clip-path="url(#p41689d22e2)" style="fill: none; stroke: #000000; stroke-width: 1.5; stroke-linecap: square"/>
   </g>
   <g id="line2d_24">
    <path d="M 231.779937 153.945382 
L 246.851938 153.945382 
" clip-path="url(#p41689d22e2)" style="fill: none; stroke: #000000; stroke-width: 1.5; stroke-linecap: square"/>
   </g>
   <g id="line2d_25">
    <path d="M 357.379937 147.799094 
L 372.451937 147.799094 
" clip-path="url(#p41689d22e2)" style="fill: none; stroke: #000000; stroke-width: 1.5; stroke-linecap: square"/>
   </g>
   <g id="patch_6">
    <path d="M 50.915938 260.109333 
L 50.915938 30.045 
" style="fill: none; stroke: #000000; stroke-linejoin: miter; stroke-linecap: square"/>
   </g>
   <g id="patch_7">
    <path d="M 427.715937 260.109333 
L 427.715937 30.045 
" style="fill: none; stroke: #000000; stroke-linejoin: miter; stroke-linecap: square"/>
   </g>
   <g id="patch_8">
    <path d="M 50.915938 260.109333 
L 427.715937 260.109333 
" style="fill: none; stroke: #000000; stroke-linejoin: miter; stroke-linecap: square"/>
   </g>
   <g id="patch_9">
    <path d="M 50.915938 30.045 
L 427.715937 30.045 
" style="fill: none; stroke: #000000; stroke-linejoin: miter; stroke-linecap: square"/>
   </g>
   <g id="text_12">
    <!-- Virtual Housing Prices by Property Type (thousand USD) -->
    <g transform="translate(42.925937 18.045) scale(0.16 -0.16)">
     <defs>
      <path id="TimesNewRomanPS-BoldMT-56" d="M 4556 4238 
L 4556 4122 
Q 4325 4084 4144 3875 
Q 4013 3719 3753 3141 
L 2294 -97 
L 2191 -97 
L 738 3272 
Q 475 3881 386 3987 
Q 297 4094 50 4122 
L 50 4238 
L 2081 4238 
L 2081 4122 
L 2013 4122 
Q 1738 4122 1638 4053 
Q 1566 4006 1566 3916 
Q 1566 3859 1591 3782 
Q 1616 3706 1759 3372 
L 2663 1263 
L 3500 3141 
Q 3650 3481 3684 3597 
Q 3719 3713 3719 3794 
Q 3719 3888 3669 3959 
Q 3619 4031 3522 4069 
Q 3388 4122 3166 4122 
L 3166 4238 
L 4556 4238 
z
" transform="scale(0.015625)"/>
      <path id="TimesNewRomanPS-BoldMT-69" d="M 919 4338 
Q 1122 4338 1262 4195 
Q 1403 4053 1403 3853 
Q 1403 3653 1261 3512 
Q 1119 3372 919 3372 
Q 719 3372 578 3512 
Q 438 3653 438 3853 
Q 438 4053 578 4195 
Q 719 4338 919 4338 
z
M 1356 2922 
L 1356 606 
Q 1356 297 1428 211 
Q 1500 125 1709 113 
L 1709 0 
L 131 0 
L 131 113 
Q 325 119 419 225 
Q 481 297 481 606 
L 481 2313 
Q 481 2622 409 2708 
Q 338 2794 131 2806 
L 131 2922 
L 1356 2922 
z
" transform="scale(0.015625)"/>
      <path id="TimesNewRomanPS-BoldMT-72" d="M 1428 2922 
L 1428 2259 
Q 1719 2713 1937 2861 
Q 2156 3009 2359 3009 
Q 2534 3009 2639 2901 
Q 2744 2794 2744 2597 
Q 2744 2388 2642 2272 
Q 2541 2156 2397 2156 
Q 2231 2156 2109 2262 
Q 1988 2369 1966 2381 
Q 1934 2400 1894 2400 
Q 1803 2400 1722 2331 
Q 1594 2225 1528 2028 
Q 1428 1725 1428 1359 
L 1428 688 
L 1431 513 
Q 1431 334 1453 284 
Q 1491 200 1564 161 
Q 1638 122 1813 113 
L 1813 0 
L 234 0 
L 234 113 
Q 425 128 492 217 
Q 559 306 559 688 
L 559 2303 
Q 559 2553 534 2622 
Q 503 2709 443 2750 
Q 384 2791 234 2806 
L 234 2922 
L 1428 2922 
z
" transform="scale(0.015625)"/>
      <path id="TimesNewRomanPS-BoldMT-74" d="M 1375 3991 
L 1375 2922 
L 2069 2922 
L 2069 2613 
L 1375 2613 
L 1375 809 
Q 1375 556 1398 482 
Q 1422 409 1481 364 
Q 1541 319 1591 319 
Q 1794 319 1975 628 
L 2069 559 
Q 1816 -41 1247 -41 
Q 969 -41 776 114 
Q 584 269 531 459 
Q 500 566 500 1034 
L 500 2613 
L 119 2613 
L 119 2722 
Q 513 3000 789 3306 
Q 1066 3613 1272 3991 
L 1375 3991 
z
" transform="scale(0.015625)"/>
      <path id="TimesNewRomanPS-BoldMT-75" d="M 3038 2922 
L 3038 634 
Q 3038 300 3100 217 
Q 3163 134 3353 113 
L 3353 0 
L 2163 0 
L 2163 391 
Q 1953 141 1743 26 
Q 1534 -88 1275 -88 
Q 1028 -88 836 64 
Q 644 216 578 419 
Q 513 622 513 1128 
L 513 2288 
Q 513 2619 452 2700 
Q 391 2781 197 2806 
L 197 2922 
L 1388 2922 
L 1388 925 
Q 1388 613 1417 522 
Q 1447 431 1511 384 
Q 1575 338 1659 338 
Q 1772 338 1863 397 
Q 1988 478 2163 725 
L 2163 2288 
Q 2163 2619 2102 2700 
Q 2041 2781 1847 2806 
L 1847 2922 
L 3038 2922 
z
" transform="scale(0.015625)"/>
      <path id="TimesNewRomanPS-BoldMT-61" d="M 1828 431 
Q 1294 -41 869 -41 
Q 619 -41 453 123 
Q 288 288 288 534 
Q 288 869 575 1136 
Q 863 1403 1828 1847 
L 1828 2141 
Q 1828 2472 1792 2558 
Q 1756 2644 1656 2708 
Q 1556 2772 1431 2772 
Q 1228 2772 1097 2681 
Q 1016 2625 1016 2550 
Q 1016 2484 1103 2388 
Q 1222 2253 1222 2128 
Q 1222 1975 1108 1867 
Q 994 1759 809 1759 
Q 613 1759 480 1878 
Q 347 1997 347 2156 
Q 347 2381 525 2586 
Q 703 2791 1022 2900 
Q 1341 3009 1684 3009 
Q 2100 3009 2342 2832 
Q 2584 2656 2656 2450 
Q 2700 2319 2700 1847 
L 2700 713 
Q 2700 513 2715 461 
Q 2731 409 2762 384 
Q 2794 359 2834 359 
Q 2916 359 3000 475 
L 3094 400 
Q 2938 169 2770 64 
Q 2603 -41 2391 -41 
Q 2141 -41 2000 76 
Q 1859 194 1828 431 
z
M 1828 659 
L 1828 1638 
Q 1450 1416 1266 1163 
Q 1144 994 1144 822 
Q 1144 678 1247 569 
Q 1325 484 1466 484 
Q 1622 484 1828 659 
z
" transform="scale(0.015625)"/>
      <path id="TimesNewRomanPS-BoldMT-6c" d="M 1359 4238 
L 1359 606 
Q 1359 297 1431 211 
Q 1503 125 1713 113 
L 1713 0 
L 134 0 
L 134 113 
Q 328 119 422 225 
Q 484 297 484 606 
L 484 3631 
Q 484 3938 412 4023 
Q 341 4109 134 4122 
L 134 4238 
L 1359 4238 
z
" transform="scale(0.015625)"/>
      <path id="TimesNewRomanPS-BoldMT-20" transform="scale(0.015625)"/>
      <path id="TimesNewRomanPS-BoldMT-48" d="M 1750 2038 
L 1750 725 
Q 1750 400 1786 319 
Q 1822 238 1926 177 
Q 2031 116 2209 116 
L 2350 116 
L 2350 0 
L 134 0 
L 134 116 
L 275 116 
Q 459 116 572 181 
Q 653 225 697 331 
Q 731 406 731 725 
L 731 3513 
Q 731 3838 697 3919 
Q 663 4000 558 4061 
Q 453 4122 275 4122 
L 134 4122 
L 134 4238 
L 2350 4238 
L 2350 4122 
L 2209 4122 
Q 2025 4122 1913 4056 
Q 1831 4013 1784 3906 
Q 1750 3831 1750 3513 
L 1750 2313 
L 3247 2313 
L 3247 3513 
Q 3247 3838 3212 3919 
Q 3178 4000 3072 4061 
Q 2966 4122 2788 4122 
L 2650 4122 
L 2650 4238 
L 4863 4238 
L 4863 4122 
L 4725 4122 
Q 4538 4122 4428 4056 
Q 4347 4013 4300 3906 
Q 4266 3831 4266 3513 
L 4266 725 
Q 4266 400 4300 319 
Q 4334 238 4440 177 
Q 4547 116 4725 116 
L 4863 116 
L 4863 0 
L 2650 0 
L 2650 116 
L 2788 116 
Q 2975 116 3084 181 
Q 3166 225 3213 331 
Q 3247 406 3247 725 
L 3247 2038 
L 1750 2038 
z
" transform="scale(0.015625)"/>
      <path id="TimesNewRomanPS-BoldMT-6f" d="M 1594 3009 
Q 1975 3009 2303 2812 
Q 2631 2616 2801 2253 
Q 2972 1891 2972 1459 
Q 2972 838 2656 419 
Q 2275 -88 1603 -88 
Q 944 -88 587 375 
Q 231 838 231 1447 
Q 231 2075 595 2542 
Q 959 3009 1594 3009 
z
M 1606 2788 
Q 1447 2788 1333 2667 
Q 1219 2547 1183 2192 
Q 1147 1838 1147 1206 
Q 1147 872 1191 581 
Q 1225 359 1337 243 
Q 1450 128 1594 128 
Q 1734 128 1828 206 
Q 1950 313 1991 503 
Q 2053 800 2053 1703 
Q 2053 2234 1993 2432 
Q 1934 2631 1819 2722 
Q 1738 2788 1606 2788 
z
" transform="scale(0.015625)"/>
      <path id="TimesNewRomanPS-BoldMT-73" d="M 2063 3003 
L 2109 2006 
L 2003 2006 
Q 1813 2450 1608 2612 
Q 1403 2775 1200 2775 
Q 1072 2775 981 2689 
Q 891 2603 891 2491 
Q 891 2406 953 2328 
Q 1053 2200 1512 1889 
Q 1972 1578 2117 1361 
Q 2263 1144 2263 875 
Q 2263 631 2141 397 
Q 2019 163 1797 37 
Q 1575 -88 1306 -88 
Q 1097 -88 747 44 
Q 653 78 619 78 
Q 516 78 447 -78 
L 344 -78 
L 294 972 
L 400 972 
Q 541 559 786 353 
Q 1031 147 1250 147 
Q 1400 147 1495 239 
Q 1591 331 1591 463 
Q 1591 613 1497 722 
Q 1403 831 1078 1053 
Q 600 1384 459 1559 
Q 253 1816 253 2125 
Q 253 2463 486 2736 
Q 719 3009 1159 3009 
Q 1397 3009 1619 2894 
Q 1703 2847 1756 2847 
Q 1813 2847 1847 2870 
Q 1881 2894 1956 3003 
L 2063 3003 
z
" transform="scale(0.015625)"/>
      <path id="TimesNewRomanPS-BoldMT-6e" d="M 1409 2922 
L 1409 2544 
Q 1634 2788 1840 2898 
Q 2047 3009 2284 3009 
Q 2569 3009 2756 2851 
Q 2944 2694 3006 2459 
Q 3056 2281 3056 1775 
L 3056 638 
Q 3056 300 3117 217 
Q 3178 134 3372 113 
L 3372 0 
L 1894 0 
L 1894 113 
Q 2059 134 2131 250 
Q 2181 328 2181 638 
L 2181 1938 
Q 2181 2297 2153 2390 
Q 2125 2484 2058 2536 
Q 1991 2588 1909 2588 
Q 1641 2588 1409 2203 
L 1409 638 
Q 1409 309 1470 221 
Q 1531 134 1697 113 
L 1697 0 
L 219 0 
L 219 113 
Q 403 131 481 231 
Q 534 300 534 638 
L 534 2288 
Q 534 2619 473 2700 
Q 413 2781 219 2806 
L 219 2922 
L 1409 2922 
z
" transform="scale(0.015625)"/>
      <path id="TimesNewRomanPS-BoldMT-67" d="M 2091 2888 
L 3075 2888 
L 3075 2544 
L 2516 2544 
Q 2669 2391 2728 2266 
Q 2803 2097 2803 1913 
Q 2803 1600 2629 1370 
Q 2456 1141 2157 1011 
Q 1859 881 1628 881 
Q 1609 881 1253 897 
Q 1113 897 1017 805 
Q 922 713 922 584 
Q 922 472 1008 400 
Q 1094 328 1288 328 
L 1828 334 
Q 2484 334 2731 191 
Q 3084 -9 3084 -425 
Q 3084 -691 2921 -908 
Q 2759 -1125 2494 -1228 
Q 2091 -1381 1566 -1381 
Q 1172 -1381 847 -1304 
Q 522 -1228 381 -1092 
Q 241 -956 241 -806 
Q 241 -663 348 -548 
Q 456 -434 750 -356 
Q 344 -156 344 200 
Q 344 416 509 619 
Q 675 822 1034 972 
Q 616 1125 428 1375 
Q 241 1625 241 1953 
Q 241 2381 591 2695 
Q 941 3009 1491 3009 
Q 1781 3009 2091 2888 
z
M 1550 2816 
Q 1369 2816 1244 2633 
Q 1119 2450 1119 1875 
Q 1119 1409 1242 1236 
Q 1366 1063 1534 1063 
Q 1722 1063 1847 1234 
Q 1972 1406 1972 1903 
Q 1972 2463 1831 2666 
Q 1731 2816 1550 2816 
z
M 1366 -431 
Q 1047 -431 944 -484 
Q 766 -581 766 -747 
Q 766 -906 950 -1036 
Q 1134 -1166 1644 -1166 
Q 2078 -1166 2326 -1050 
Q 2575 -934 2575 -725 
Q 2575 -647 2528 -594 
Q 2444 -500 2273 -465 
Q 2103 -431 1366 -431 
z
" transform="scale(0.015625)"/>
      <path id="TimesNewRomanPS-BoldMT-50" d="M 1728 1919 
L 1728 744 
Q 1728 400 1770 311 
Q 1813 222 1920 169 
Q 2028 116 2316 116 
L 2316 0 
L 163 0 
L 163 116 
Q 456 116 561 170 
Q 666 225 708 312 
Q 750 400 750 744 
L 750 3494 
Q 750 3838 708 3927 
Q 666 4016 559 4069 
Q 453 4122 163 4122 
L 163 4238 
L 2009 4238 
Q 2922 4238 3319 3913 
Q 3716 3588 3716 3100 
Q 3716 2688 3459 2394 
Q 3203 2100 2753 1994 
Q 2450 1919 1728 1919 
z
M 1728 3994 
L 1728 2163 
Q 1831 2156 1884 2156 
Q 2266 2156 2472 2382 
Q 2678 2609 2678 3084 
Q 2678 3556 2472 3775 
Q 2266 3994 1856 3994 
L 1728 3994 
z
" transform="scale(0.015625)"/>
      <path id="TimesNewRomanPS-BoldMT-63" d="M 2600 753 
L 2697 678 
Q 2491 291 2183 101 
Q 1875 -88 1528 -88 
Q 944 -88 594 353 
Q 244 794 244 1413 
Q 244 2009 563 2463 
Q 947 3009 1622 3009 
Q 2075 3009 2342 2781 
Q 2609 2553 2609 2272 
Q 2609 2094 2501 1987 
Q 2394 1881 2219 1881 
Q 2034 1881 1914 2003 
Q 1794 2125 1766 2438 
Q 1747 2634 1675 2713 
Q 1603 2791 1506 2791 
Q 1356 2791 1250 2631 
Q 1088 2391 1088 1894 
Q 1088 1481 1219 1104 
Q 1350 728 1578 544 
Q 1750 409 1984 409 
Q 2138 409 2275 481 
Q 2413 553 2600 753 
z
" transform="scale(0.015625)"/>
      <path id="TimesNewRomanPS-BoldMT-65" d="M 2691 1566 
L 1088 1566 
Q 1116 984 1397 647 
Q 1613 388 1916 388 
Q 2103 388 2256 492 
Q 2409 597 2584 869 
L 2691 800 
Q 2453 316 2165 114 
Q 1878 -88 1500 -88 
Q 850 -88 516 413 
Q 247 816 247 1413 
Q 247 2144 642 2576 
Q 1038 3009 1569 3009 
Q 2013 3009 2339 2645 
Q 2666 2281 2691 1566 
z
M 1922 1775 
Q 1922 2278 1867 2465 
Q 1813 2653 1697 2750 
Q 1631 2806 1522 2806 
Q 1359 2806 1256 2647 
Q 1072 2369 1072 1884 
L 1072 1775 
L 1922 1775 
z
" transform="scale(0.015625)"/>
      <path id="TimesNewRomanPS-BoldMT-62" d="M 1347 4238 
L 1347 2628 
Q 1716 3009 2153 3009 
Q 2453 3009 2718 2832 
Q 2984 2656 3134 2331 
Q 3284 2006 3284 1581 
Q 3284 1103 3093 712 
Q 2903 322 2584 117 
Q 2266 -88 1856 -88 
Q 1619 -88 1434 -12 
Q 1250 63 1072 231 
L 588 -84 
L 481 -84 
L 481 3631 
Q 481 3884 459 3944 
Q 428 4031 361 4073 
Q 294 4116 134 4122 
L 134 4238 
L 1347 4238 
z
M 1347 2350 
L 1347 1050 
Q 1347 653 1366 544 
Q 1397 359 1515 245 
Q 1634 131 1819 131 
Q 1978 131 2092 222 
Q 2206 313 2282 581 
Q 2359 850 2359 1550 
Q 2359 2222 2191 2472 
Q 2069 2653 1863 2653 
Q 1594 2653 1347 2350 
z
" transform="scale(0.015625)"/>
      <path id="TimesNewRomanPS-BoldMT-79" d="M 1556 -119 
L 613 2047 
Q 400 2538 298 2650 
Q 197 2763 53 2806 
L 53 2922 
L 1606 2922 
L 1606 2806 
Q 1453 2800 1390 2747 
Q 1328 2694 1328 2619 
Q 1328 2500 1484 2150 
L 1984 1006 
L 2325 1891 
Q 2509 2363 2509 2547 
Q 2509 2663 2432 2731 
Q 2356 2800 2163 2806 
L 2163 2922 
L 3141 2922 
L 3141 2806 
Q 2997 2791 2906 2695 
Q 2816 2600 2603 2047 
L 1769 -119 
Q 1453 -931 1300 -1119 
Q 1084 -1381 759 -1381 
Q 500 -1381 339 -1232 
Q 178 -1084 178 -875 
Q 178 -694 289 -575 
Q 400 -456 563 -456 
Q 719 -456 814 -556 
Q 909 -656 913 -866 
Q 916 -984 941 -1019 
Q 966 -1053 1013 -1053 
Q 1088 -1053 1172 -963 
Q 1297 -831 1466 -363 
L 1556 -119 
z
" transform="scale(0.015625)"/>
      <path id="TimesNewRomanPS-BoldMT-70" d="M 1347 297 
L 1347 -791 
Q 1347 -1016 1383 -1097 
Q 1419 -1178 1494 -1215 
Q 1569 -1253 1788 -1253 
L 1788 -1369 
L 122 -1369 
L 122 -1253 
Q 316 -1247 409 -1144 
Q 472 -1072 472 -772 
L 472 2313 
Q 472 2622 400 2708 
Q 328 2794 122 2806 
L 122 2922 
L 1347 2922 
L 1347 2538 
Q 1500 2763 1659 2863 
Q 1888 3009 2156 3009 
Q 2478 3009 2742 2806 
Q 3006 2603 3143 2245 
Q 3281 1888 3281 1475 
Q 3281 1031 3139 664 
Q 2997 297 2726 104 
Q 2456 -88 2125 -88 
Q 1884 -88 1675 19 
Q 1519 100 1347 297 
z
M 1347 613 
Q 1616 231 1922 231 
Q 2091 231 2200 409 
Q 2363 672 2363 1409 
Q 2363 2166 2184 2444 
Q 2066 2628 1866 2628 
Q 1550 2628 1347 2172 
L 1347 613 
z
" transform="scale(0.015625)"/>
      <path id="TimesNewRomanPS-BoldMT-54" d="M 4038 4238 
L 4038 3091 
L 3925 3091 
Q 3825 3488 3703 3661 
Q 3581 3834 3369 3938 
Q 3250 3994 2953 3994 
L 2638 3994 
L 2638 725 
Q 2638 400 2673 319 
Q 2709 238 2814 177 
Q 2919 116 3100 116 
L 3241 116 
L 3241 0 
L 1022 0 
L 1022 116 
L 1163 116 
Q 1347 116 1459 181 
Q 1541 225 1588 331 
Q 1622 406 1622 725 
L 1622 3994 
L 1316 3994 
Q 888 3994 694 3813 
Q 422 3559 350 3091 
L 231 3091 
L 231 4238 
L 4038 4238 
z
" transform="scale(0.015625)"/>
      <path id="TimesNewRomanPS-BoldMT-28" d="M 2056 4334 
L 2056 4191 
Q 1731 3978 1578 3775 
Q 1366 3494 1247 3053 
Q 1097 2506 1097 1525 
Q 1097 600 1233 87 
Q 1369 -425 1603 -741 
Q 1766 -959 2056 -1125 
L 2056 -1281 
Q 1303 -1028 779 -248 
Q 256 531 256 1544 
Q 256 2544 778 3314 
Q 1300 4084 2056 4334 
z
" transform="scale(0.015625)"/>
      <path id="TimesNewRomanPS-BoldMT-68" d="M 1409 4238 
L 1409 2547 
Q 1650 2800 1850 2904 
Q 2050 3009 2266 3009 
Q 2541 3009 2736 2853 
Q 2931 2697 2995 2486 
Q 3059 2275 3059 1775 
L 3059 634 
Q 3059 300 3121 217 
Q 3184 134 3375 113 
L 3375 0 
L 1894 0 
L 1894 113 
Q 2050 134 2128 238 
Q 2184 319 2184 634 
L 2184 1938 
Q 2184 2300 2156 2392 
Q 2128 2484 2061 2536 
Q 1994 2588 1909 2588 
Q 1784 2588 1665 2502 
Q 1547 2416 1409 2200 
L 1409 634 
Q 1409 322 1456 244 
Q 1516 138 1700 113 
L 1700 0 
L 219 0 
L 219 113 
Q 403 131 481 231 
Q 534 300 534 634 
L 534 3603 
Q 534 3934 473 4015 
Q 413 4097 219 4122 
L 219 4238 
L 1409 4238 
z
" transform="scale(0.015625)"/>
      <path id="TimesNewRomanPS-BoldMT-64" d="M 3056 4238 
L 3056 875 
Q 3056 534 3075 472 
Q 3100 369 3170 319 
Q 3241 269 3416 256 
L 3416 153 
L 2181 -88 
L 2181 375 
Q 1959 106 1786 9 
Q 1613 -88 1394 -88 
Q 834 -88 509 413 
Q 247 819 247 1409 
Q 247 1881 409 2254 
Q 572 2628 855 2818 
Q 1138 3009 1463 3009 
Q 1672 3009 1834 2928 
Q 1997 2847 2181 2644 
L 2181 3525 
Q 2181 3859 2153 3928 
Q 2116 4019 2041 4062 
Q 1966 4106 1759 4106 
L 1759 4238 
L 3056 4238 
z
M 2181 2256 
Q 1950 2700 1616 2700 
Q 1500 2700 1425 2638 
Q 1309 2541 1236 2297 
Q 1163 2053 1163 1550 
Q 1163 997 1244 731 
Q 1325 466 1466 347 
Q 1538 288 1663 288 
Q 1938 288 2181 719 
L 2181 2256 
z
" transform="scale(0.015625)"/>
      <path id="TimesNewRomanPS-BoldMT-55" d="M 150 4238 
L 2338 4238 
L 2338 4122 
L 2228 4122 
Q 1981 4122 1889 4070 
Q 1797 4019 1758 3928 
Q 1719 3838 1719 3475 
L 1719 1400 
Q 1719 831 1805 647 
Q 1891 463 2087 341 
Q 2284 219 2584 219 
Q 2928 219 3170 373 
Q 3413 528 3533 800 
Q 3653 1072 3653 1747 
L 3653 3475 
Q 3653 3759 3593 3881 
Q 3534 4003 3444 4050 
Q 3303 4122 3047 4122 
L 3047 4238 
L 4513 4238 
L 4513 4122 
L 4425 4122 
Q 4247 4122 4128 4050 
Q 4009 3978 3956 3834 
Q 3916 3734 3916 3475 
L 3916 1866 
Q 3916 1119 3817 787 
Q 3719 456 3337 178 
Q 2956 -100 2297 -100 
Q 1747 -100 1447 47 
Q 1038 247 869 559 
Q 700 872 700 1400 
L 700 3475 
Q 700 3841 659 3930 
Q 619 4019 519 4072 
Q 419 4125 150 4122 
L 150 4238 
z
" transform="scale(0.015625)"/>
      <path id="TimesNewRomanPS-BoldMT-53" d="M 3006 4334 
L 3041 2922 
L 2913 2922 
Q 2822 3453 2467 3776 
Q 2113 4100 1700 4100 
Q 1381 4100 1195 3929 
Q 1009 3759 1009 3538 
Q 1009 3397 1075 3288 
Q 1166 3141 1366 2997 
Q 1513 2894 2044 2631 
Q 2788 2266 3047 1941 
Q 3303 1616 3303 1197 
Q 3303 666 2889 283 
Q 2475 -100 1838 -100 
Q 1638 -100 1459 -59 
Q 1281 -19 1013 94 
Q 863 156 766 156 
Q 684 156 593 93 
Q 503 31 447 -97 
L 331 -97 
L 331 1503 
L 447 1503 
Q 584 828 976 473 
Q 1369 119 1822 119 
Q 2172 119 2380 309 
Q 2588 500 2588 753 
Q 2588 903 2508 1043 
Q 2428 1184 2265 1311 
Q 2103 1438 1691 1641 
Q 1113 1925 859 2125 
Q 606 2325 470 2572 
Q 334 2819 334 3116 
Q 334 3622 706 3978 
Q 1078 4334 1644 4334 
Q 1850 4334 2044 4284 
Q 2191 4247 2402 4145 
Q 2613 4044 2697 4044 
Q 2778 4044 2825 4094 
Q 2872 4144 2913 4334 
L 3006 4334 
z
" transform="scale(0.015625)"/>
      <path id="TimesNewRomanPS-BoldMT-44" d="M 84 0 
L 84 116 
L 225 116 
Q 409 116 507 173 
Q 606 231 653 331 
Q 681 397 681 725 
L 681 3513 
Q 681 3838 647 3919 
Q 613 4000 508 4061 
Q 403 4122 225 4122 
L 84 4122 
L 84 4238 
L 1981 4238 
Q 2741 4238 3203 4031 
Q 3769 3778 4061 3265 
Q 4353 2753 4353 2106 
Q 4353 1659 4209 1282 
Q 4066 906 3837 661 
Q 3609 416 3311 267 
Q 3013 119 2581 38 
Q 2391 0 1981 0 
L 84 0 
z
M 1700 3997 
L 1700 691 
Q 1700 428 1725 368 
Q 1750 309 1809 278 
Q 1894 231 2053 231 
Q 2575 231 2850 588 
Q 3225 1069 3225 2081 
Q 3225 2897 2969 3384 
Q 2766 3766 2447 3903 
Q 2222 4000 1700 3997 
z
" transform="scale(0.015625)"/>
      <path id="TimesNewRomanPS-BoldMT-29" d="M 78 -1281 
L 78 -1138 
Q 403 -922 556 -719 
Q 766 -438 888 0 
Q 1038 550 1038 1531 
Q 1038 2456 902 2967 
Q 766 3478 531 3794 
Q 369 4013 78 4178 
L 78 4334 
Q 831 4081 1354 3301 
Q 1878 2522 1878 1509 
Q 1878 513 1354 -257 
Q 831 -1028 78 -1281 
z
" transform="scale(0.015625)"/>
     </defs>
     <use xlink:href="#TimesNewRomanPS-BoldMT-56"/>
     <use xlink:href="#TimesNewRomanPS-BoldMT-69" x="68.466797"/>
     <use xlink:href="#TimesNewRomanPS-BoldMT-72" x="96.25"/>
     <use xlink:href="#TimesNewRomanPS-BoldMT-74" x="140.634766"/>
     <use xlink:href="#TimesNewRomanPS-BoldMT-75" x="173.935547"/>
     <use xlink:href="#TimesNewRomanPS-BoldMT-61" x="229.550781"/>
     <use xlink:href="#TimesNewRomanPS-BoldMT-6c" x="279.550781"/>
     <use xlink:href="#TimesNewRomanPS-BoldMT-20" x="307.333984"/>
     <use xlink:href="#TimesNewRomanPS-BoldMT-48" x="332.333984"/>
     <use xlink:href="#TimesNewRomanPS-BoldMT-6f" x="410.117188"/>
     <use xlink:href="#TimesNewRomanPS-BoldMT-75" x="460.117188"/>
     <use xlink:href="#TimesNewRomanPS-BoldMT-73" x="515.732422"/>
     <use xlink:href="#TimesNewRomanPS-BoldMT-69" x="554.648438"/>
     <use xlink:href="#TimesNewRomanPS-BoldMT-6e" x="582.431641"/>
     <use xlink:href="#TimesNewRomanPS-BoldMT-67" x="638.046875"/>
     <use xlink:href="#TimesNewRomanPS-BoldMT-20" x="688.046875"/>
     <use xlink:href="#TimesNewRomanPS-BoldMT-50" x="713.046875"/>
     <use xlink:href="#TimesNewRomanPS-BoldMT-72" x="774.130859"/>
     <use xlink:href="#TimesNewRomanPS-BoldMT-69" x="818.515625"/>
     <use xlink:href="#TimesNewRomanPS-BoldMT-63" x="846.298828"/>
     <use xlink:href="#TimesNewRomanPS-BoldMT-65" x="890.683594"/>
     <use xlink:href="#TimesNewRomanPS-BoldMT-73" x="935.068359"/>
     <use xlink:href="#TimesNewRomanPS-BoldMT-20" x="973.984375"/>
     <use xlink:href="#TimesNewRomanPS-BoldMT-62" x="998.984375"/>
     <use xlink:href="#TimesNewRomanPS-BoldMT-79" x="1054.599609"/>
     <use xlink:href="#TimesNewRomanPS-BoldMT-20" x="1104.599609"/>
     <use xlink:href="#TimesNewRomanPS-BoldMT-50" x="1129.599609"/>
     <use xlink:href="#TimesNewRomanPS-BoldMT-72" x="1190.683594"/>
     <use xlink:href="#TimesNewRomanPS-BoldMT-6f" x="1233.318359"/>
     <use xlink:href="#TimesNewRomanPS-BoldMT-70" x="1283.318359"/>
     <use xlink:href="#TimesNewRomanPS-BoldMT-65" x="1338.933594"/>
     <use xlink:href="#TimesNewRomanPS-BoldMT-72" x="1383.318359"/>
     <use xlink:href="#TimesNewRomanPS-BoldMT-74" x="1427.703125"/>
     <use xlink:href="#TimesNewRomanPS-BoldMT-79" x="1461.003906"/>
     <use xlink:href="#TimesNewRomanPS-BoldMT-20" x="1511.003906"/>
     <use xlink:href="#TimesNewRomanPS-BoldMT-54" x="1534.253906"/>
     <use xlink:href="#TimesNewRomanPS-BoldMT-79" x="1593.578125"/>
     <use xlink:href="#TimesNewRomanPS-BoldMT-70" x="1643.578125"/>
     <use xlink:href="#TimesNewRomanPS-BoldMT-65" x="1699.193359"/>
     <use xlink:href="#TimesNewRomanPS-BoldMT-20" x="1743.578125"/>
     <use xlink:href="#TimesNewRomanPS-BoldMT-28" x="1768.578125"/>
     <use xlink:href="#TimesNewRomanPS-BoldMT-74" x="1801.878906"/>
     <use xlink:href="#TimesNewRomanPS-BoldMT-68" x="1835.179688"/>
     <use xlink:href="#TimesNewRomanPS-BoldMT-6f" x="1890.794922"/>
     <use xlink:href="#TimesNewRomanPS-BoldMT-75" x="1940.794922"/>
     <use xlink:href="#TimesNewRomanPS-BoldMT-73" x="1996.410156"/>
     <use xlink:href="#TimesNewRomanPS-BoldMT-61" x="2035.326172"/>
     <use xlink:href="#TimesNewRomanPS-BoldMT-6e" x="2085.326172"/>
     <use xlink:href="#TimesNewRomanPS-BoldMT-64" x="2140.941406"/>
     <use xlink:href="#TimesNewRomanPS-BoldMT-20" x="2196.556641"/>
     <use xlink:href="#TimesNewRomanPS-BoldMT-55" x="2221.556641"/>
     <use xlink:href="#TimesNewRomanPS-BoldMT-53" x="2293.773438"/>
     <use xlink:href="#TimesNewRomanPS-BoldMT-44" x="2349.388672"/>
     <use xlink:href="#TimesNewRomanPS-BoldMT-29" x="2421.605469"/>
    </g>
   </g>
  </g>
 </g>
 <defs>
  <clipPath id="p41689d22e2">
   <rect x="50.915938" y="30.045" width="376.8" height="230.064333"/>
  </clipPath>
 </defs>
</svg>
