<?xml version="1.0" encoding="utf-8" standalone="no"?>
<!DOCTYPE svg PUBLIC "-//W3C//DTD SVG 1.1//EN"
  "http://www.w3.org/Graphics/SVG/1.1/DTD/svg11.dtd">
<svg xmlns:xlink="http://www.w3.org/1999/xlink" width="442.905937pt" height="319.954844pt" viewBox="0 0 442.905937 319.954844" xmlns="http://www.w3.org/2000/svg" version="1.1">
 <metadata>
  <rdf:RDF xmlns:dc="http://purl.org/dc/elements/1.1/" xmlns:cc="http://creativecommons.org/ns#" xmlns:rdf="http://www.w3.org/1999/02/22-rdf-syntax-ns#">
   <cc:Work>
    <dc:type rdf:resource="http://purl.org/dc/dcmitype/StillImage"/>
    <dc:date>2025-05-26T16:50:06.025682</dc:date>
    <dc:format>image/svg+xml</dc:format>
    <dc:creator>
     <cc:Agent>
      <dc:title>Matplotlib v3.7.2, https://matplotlib.org/</dc:title>
     </cc:Agent>
    </dc:creator>
   </cc:Work>
  </rdf:RDF>
 </metadata>
 <defs>
  <style type="text/css">*{stroke-linejoin: round; stroke-linecap: butt}</style>
 </defs>
 <g id="figure_1">
  <g id="patch_1">
   <path d="M 0 319.954844 
L 442.905937 319.954844 
L 442.905937 0 
L 0 0 
z
" style="fill: #ffffff"/>
  </g>
  <g id="axes_1">
   <g id="patch_2">
    <path d="M 50.915938 259.048673 
L 427.715937 259.048673 
L 427.715937 30.045 
L 50.915938 30.045 
z
" style="fill: #ffffff"/>
   </g>
   <g id="PolyCollection_1">
    <defs>
     <path id="mb99198469d" d="M 117.163036 -86.077254 
L 110.268839 -86.077254 
L 109.975726 -87.726228 
L 109.682607 -89.375202 
L 109.388666 -91.024176 
L 109.092116 -92.67315 
L 108.790324 -94.322124 
L 108.480024 -95.971098 
L 108.157574 -97.620072 
L 107.819256 -99.269046 
L 107.461565 -100.91802 
L 107.081474 -102.566994 
L 106.67664 -104.215968 
L 106.245507 -105.864942 
L 105.787301 -107.513916 
L 105.30189 -109.16289 
L 104.789498 -110.811864 
L 104.250303 -112.460838 
L 103.683926 -114.109812 
L 103.088873 -115.758786 
L 102.461986 -117.40776 
L 101.797974 -119.056734 
L 101.089103 -120.705708 
L 100.325106 -122.354682 
L 99.493371 -124.003656 
L 98.579415 -125.65263 
L 97.567662 -127.301604 
L 96.442461 -128.950578 
L 95.189297 -130.599551 
L 93.796113 -132.248525 
L 92.254631 -133.897499 
L 90.561599 -135.546473 
L 88.719861 -137.195447 
L 86.739179 -138.844421 
L 84.636742 -140.493395 
L 82.437313 -142.142369 
L 80.172969 -143.791343 
L 77.882426 -145.440317 
L 75.609905 -147.089291 
L 73.403579 -148.738265 
L 71.313621 -150.387239 
L 69.389921 -152.036213 
L 67.679586 -153.685187 
L 66.224374 -155.334161 
L 65.058247 -156.983135 
L 64.20523 -158.632109 
L 63.677797 -160.281083 
L 63.475938 -161.930057 
L 63.587034 -163.579031 
L 63.9866 -165.228005 
L 64.63985 -166.876979 
L 65.503978 -168.525953 
L 66.530963 -170.174927 
L 67.670663 -171.823901 
L 68.873908 -173.472875 
L 70.09536 -175.121849 
L 71.295876 -176.770823 
L 72.444222 -178.419797 
L 73.518042 -180.068771 
L 74.504053 -181.717745 
L 75.397546 -183.366719 
L 76.201312 -185.015693 
L 76.924171 -186.664667 
L 77.579296 -188.313641 
L 78.182517 -189.962615 
L 78.750773 -191.611589 
L 79.300818 -193.260563 
L 79.848256 -194.909537 
L 80.406921 -196.558511 
L 80.988553 -198.207485 
L 81.602727 -199.856459 
L 82.256936 -201.505433 
L 82.956761 -203.154407 
L 83.706055 -204.80338 
L 84.507092 -206.452354 
L 85.360666 -208.101328 
L 86.266148 -209.750302 
L 87.221516 -211.399276 
L 88.223381 -213.04825 
L 89.267057 -214.697224 
L 90.346675 -216.346198 
L 91.455362 -217.995172 
L 92.585474 -219.644146 
L 93.728863 -221.29312 
L 94.877162 -222.942094 
L 96.022061 -224.591068 
L 97.155556 -226.240042 
L 98.270151 -227.889016 
L 99.359024 -229.53799 
L 100.416142 -231.186964 
L 101.436349 -232.835938 
L 102.415419 -234.484912 
L 103.350084 -236.133886 
L 104.238039 -237.78286 
L 105.077921 -239.431834 
L 105.86925 -241.080808 
L 106.612334 -242.729782 
L 107.308144 -244.378756 
L 107.95814 -246.02773 
L 108.564098 -247.676704 
L 109.127918 -249.325678 
L 118.303957 -249.325678 
L 118.303957 -249.325678 
L 118.867777 -247.676704 
L 119.473735 -246.02773 
L 120.123731 -244.378756 
L 120.819541 -242.729782 
L 121.562625 -241.080808 
L 122.353954 -239.431834 
L 123.193836 -237.78286 
L 124.081791 -236.133886 
L 125.016456 -234.484912 
L 125.995526 -232.835938 
L 127.015733 -231.186964 
L 128.072851 -229.53799 
L 129.161724 -227.889016 
L 130.276319 -226.240042 
L 131.409814 -224.591068 
L 132.554713 -222.942094 
L 133.703012 -221.29312 
L 134.846401 -219.644146 
L 135.976513 -217.995172 
L 137.0852 -216.346198 
L 138.164818 -214.697224 
L 139.208494 -213.04825 
L 140.210359 -211.399276 
L 141.165727 -209.750302 
L 142.071209 -208.101328 
L 142.924783 -206.452354 
L 143.72582 -204.80338 
L 144.475114 -203.154407 
L 145.174939 -201.505433 
L 145.829148 -199.856459 
L 146.443322 -198.207485 
L 147.024954 -196.558511 
L 147.583619 -194.909537 
L 148.131057 -193.260563 
L 148.681102 -191.611589 
L 149.249358 -189.962615 
L 149.852579 -188.313641 
L 150.507704 -186.664667 
L 151.230563 -185.015693 
L 152.034329 -183.366719 
L 152.927822 -181.717745 
L 153.913833 -180.068771 
L 154.987653 -178.419797 
L 156.135999 -176.770823 
L 157.336515 -175.121849 
L 158.557967 -173.472875 
L 159.761212 -171.823901 
L 160.900912 -170.174927 
L 161.927897 -168.525953 
L 162.792025 -166.876979 
L 163.445275 -165.228005 
L 163.844841 -163.579031 
L 163.955938 -161.930057 
L 163.754078 -160.281083 
L 163.226645 -158.632109 
L 162.373628 -156.983135 
L 161.207501 -155.334161 
L 159.752289 -153.685187 
L 158.041954 -152.036213 
L 156.118254 -150.387239 
L 154.028296 -148.738265 
L 151.82197 -147.089291 
L 149.549449 -145.440317 
L 147.258906 -143.791343 
L 144.994562 -142.142369 
L 142.795133 -140.493395 
L 140.692696 -138.844421 
L 138.712014 -137.195447 
L 136.870276 -135.546473 
L 135.177244 -133.897499 
L 133.635762 -132.248525 
L 132.242578 -130.599551 
L 130.989414 -128.950578 
L 129.864213 -127.301604 
L 128.85246 -125.65263 
L 127.938504 -124.003656 
L 127.106769 -122.354682 
L 126.342772 -120.705708 
L 125.633901 -119.056734 
L 124.969889 -117.40776 
L 124.343002 -115.758786 
L 123.747949 -114.109812 
L 123.181572 -112.460838 
L 122.642377 -110.811864 
L 122.129985 -109.16289 
L 121.644574 -107.513916 
L 121.186368 -105.864942 
L 120.755235 -104.215968 
L 120.350401 -102.566994 
L 119.97031 -100.91802 
L 119.612619 -99.269046 
L 119.274301 -97.620072 
L 118.951851 -95.971098 
L 118.641551 -94.322124 
L 118.339759 -92.67315 
L 118.043209 -91.024176 
L 117.749268 -89.375202 
L 117.456149 -87.726228 
L 117.163036 -86.077254 
z
" style="stroke: #000000; stroke-opacity: 0.7"/>
    </defs>
    <g clip-path="url(#p8ba8743481)">
     <use xlink:href="#mb99198469d" x="0" y="319.954844" style="fill: #ffd92f; fill-opacity: 0.7; stroke: #000000; stroke-opacity: 0.7"/>
    </g>
   </g>
   <g id="PolyCollection_2">
    <defs>
     <path id="m88c75a9079" d="M 240.643108 -79.564684 
L 237.988767 -79.564684 
L 237.911083 -81.584239 
L 237.828224 -83.603793 
L 237.730392 -85.623348 
L 237.606251 -87.642902 
L 237.443997 -89.662457 
L 237.232583 -91.682011 
L 236.962952 -93.701566 
L 236.629084 -95.721121 
L 236.228703 -97.740675 
L 235.763504 -99.76023 
L 235.238841 -101.779784 
L 234.662867 -103.799339 
L 234.045211 -105.818893 
L 233.395355 -107.838448 
L 232.720913 -109.858002 
L 232.026072 -111.877557 
L 231.310456 -113.897112 
L 230.568629 -115.916666 
L 229.790399 -117.936221 
L 228.961953 -119.955775 
L 228.06777 -121.97533 
L 227.093054 -123.994884 
L 226.026386 -126.014439 
L 224.862149 -128.033994 
L 223.602313 -130.053548 
L 222.257195 -132.073103 
L 220.844977 -134.092657 
L 219.389937 -136.112212 
L 217.919576 -138.131766 
L 216.461053 -140.151321 
L 215.037446 -142.170876 
L 213.664451 -144.19043 
L 212.348046 -146.209985 
L 211.083539 -148.229539 
L 209.856143 -150.249094 
L 208.643066 -152.268648 
L 207.416804 -154.288203 
L 206.149237 -156.307757 
L 204.81599 -158.327312 
L 203.400545 -160.346867 
L 201.897618 -162.366421 
L 200.315407 -164.385976 
L 198.676438 -166.40553 
L 197.016855 -168.425085 
L 195.384151 -170.444639 
L 193.833506 -172.464194 
L 192.423061 -174.483749 
L 191.208614 -176.503303 
L 190.238377 -178.522858 
L 189.548444 -180.542412 
L 189.159602 -182.561967 
L 189.075938 -184.581521 
L 189.285436 -186.601076 
L 189.762456 -188.620631 
L 190.471664 -190.640185 
L 191.372779 -192.65974 
L 192.425377 -194.679294 
L 193.593035 -196.698849 
L 194.846283 -198.718403 
L 196.164081 -200.737958 
L 197.533826 -202.757513 
L 198.950162 -204.777067 
L 200.413023 -206.796622 
L 201.925372 -208.816176 
L 203.491081 -210.835731 
L 205.113244 -212.855285 
L 206.793033 -214.87484 
L 208.529102 -216.894394 
L 210.317387 -218.913949 
L 212.15114 -220.933504 
L 214.021043 -222.953058 
L 215.91532 -224.972613 
L 217.819828 -226.992167 
L 219.718182 -229.011722 
L 221.592009 -231.031276 
L 223.421396 -233.050831 
L 225.185595 -235.070386 
L 226.863952 -237.08994 
L 228.437014 -239.109495 
L 229.887678 -241.129049 
L 231.202271 -243.148604 
L 232.371421 -245.168158 
L 233.390614 -247.187713 
L 234.260389 -249.207268 
L 234.986135 -251.226822 
L 235.577542 -253.246377 
L 236.047759 -255.265931 
L 236.41237 -257.285486 
L 236.688312 -259.30504 
L 236.892823 -261.324595 
L 237.042553 -263.344149 
L 237.152865 -265.363704 
L 237.23737 -267.383259 
L 237.307671 -269.402813 
L 237.373273 -271.422368 
L 237.441601 -273.441922 
L 237.518076 -275.461477 
L 237.606206 -277.481031 
L 237.707697 -279.500586 
L 240.924178 -279.500586 
L 240.924178 -279.500586 
L 241.025669 -277.481031 
L 241.113799 -275.461477 
L 241.190274 -273.441922 
L 241.258602 -271.422368 
L 241.324204 -269.402813 
L 241.394505 -267.383259 
L 241.47901 -265.363704 
L 241.589322 -263.344149 
L 241.739052 -261.324595 
L 241.943563 -259.30504 
L 242.219505 -257.285486 
L 242.584116 -255.265931 
L 243.054333 -253.246377 
L 243.64574 -251.226822 
L 244.371486 -249.207268 
L 245.241261 -247.187713 
L 246.260454 -245.168158 
L 247.429604 -243.148604 
L 248.744197 -241.129049 
L 250.194861 -239.109495 
L 251.767923 -237.08994 
L 253.44628 -235.070386 
L 255.210479 -233.050831 
L 257.039866 -231.031276 
L 258.913693 -229.011722 
L 260.812047 -226.992167 
L 262.716555 -224.972613 
L 264.610832 -222.953058 
L 266.480735 -220.933504 
L 268.314488 -218.913949 
L 270.102773 -216.894394 
L 271.838842 -214.87484 
L 273.518631 -212.855285 
L 275.140794 -210.835731 
L 276.706503 -208.816176 
L 278.218852 -206.796622 
L 279.681713 -204.777067 
L 281.098049 -202.757513 
L 282.467794 -200.737958 
L 283.785592 -198.718403 
L 285.03884 -196.698849 
L 286.206498 -194.679294 
L 287.259096 -192.65974 
L 288.160211 -190.640185 
L 288.869419 -188.620631 
L 289.346439 -186.601076 
L 289.555937 -184.581521 
L 289.472273 -182.561967 
L 289.083431 -180.542412 
L 288.393498 -178.522858 
L 287.423261 -176.503303 
L 286.208814 -174.483749 
L 284.798369 -172.464194 
L 283.247724 -170.444639 
L 281.61502 -168.425085 
L 279.955437 -166.40553 
L 278.316468 -164.385976 
L 276.734257 -162.366421 
L 275.23133 -160.346867 
L 273.815885 -158.327312 
L 272.482638 -156.307757 
L 271.215071 -154.288203 
L 269.988809 -152.268648 
L 268.775732 -150.249094 
L 267.548336 -148.229539 
L 266.283829 -146.209985 
L 264.967424 -144.19043 
L 263.594429 -142.170876 
L 262.170822 -140.151321 
L 260.712299 -138.131766 
L 259.241938 -136.112212 
L 257.786898 -134.092657 
L 256.37468 -132.073103 
L 255.029562 -130.053548 
L 253.769726 -128.033994 
L 252.605489 -126.014439 
L 251.538821 -123.994884 
L 250.564105 -121.97533 
L 249.669922 -119.955775 
L 248.841476 -117.936221 
L 248.063246 -115.916666 
L 247.321419 -113.897112 
L 246.605803 -111.877557 
L 245.910962 -109.858002 
L 245.23652 -107.838448 
L 244.586664 -105.818893 
L 243.969008 -103.799339 
L 243.393034 -101.779784 
L 242.868371 -99.76023 
L 242.403172 -97.740675 
L 242.002791 -95.721121 
L 241.668923 -93.701566 
L 241.399292 -91.682011 
L 241.187878 -89.662457 
L 241.025624 -87.642902 
L 240.901483 -85.623348 
L 240.803651 -83.603793 
L 240.720792 -81.584239 
L 240.643108 -79.564684 
z
" style="stroke: #000000; stroke-opacity: 0.7"/>
    </defs>
    <g clip-path="url(#p8ba8743481)">
     <use xlink:href="#m88c75a9079" x="0" y="319.954844" style="fill: #c7c7c7; fill-opacity: 0.7; stroke: #000000; stroke-opacity: 0.7"/>
    </g>
   </g>
   <g id="PolyCollection_3">
    <defs>
     <path id="m42f55d15de" d="M 368.563406 -71.315429 
L 361.268469 -71.315429 
L 361.045948 -73.019222 
L 360.847858 -74.723016 
L 360.67317 -76.426809 
L 360.51852 -78.130603 
L 360.378308 -79.834396 
L 360.24496 -81.53819 
L 360.109324 -83.241984 
L 359.961161 -84.945777 
L 359.789682 -86.649571 
L 359.584114 -88.353364 
L 359.334232 -90.057158 
L 359.03085 -91.760952 
L 358.666241 -93.464745 
L 358.234473 -95.168539 
L 357.731653 -96.872332 
L 357.15606 -98.576126 
L 356.508168 -100.27992 
L 355.790535 -101.983713 
L 355.007562 -103.687507 
L 354.165121 -105.3913 
L 353.270059 -107.095094 
L 352.329598 -108.798888 
L 351.350691 -110.502681 
L 350.339374 -112.206475 
L 349.300184 -113.910268 
L 348.235716 -115.614062 
L 347.146381 -117.317856 
L 346.030399 -119.021649 
L 344.884067 -120.725443 
L 343.70227 -122.429236 
L 342.479196 -124.13303 
L 341.209181 -125.836823 
L 339.887593 -127.540617 
L 338.511633 -129.244411 
L 337.080976 -130.948204 
L 335.598167 -132.651998 
L 334.068733 -134.355791 
L 332.501033 -136.059585 
L 330.905874 -137.763379 
L 329.296006 -139.467172 
L 327.685579 -141.170966 
L 326.0897 -142.874759 
L 324.52415 -144.578553 
L 323.00533 -146.282347 
L 321.550408 -147.98614 
L 320.177616 -149.689934 
L 318.906574 -151.393727 
L 317.758485 -153.097521 
L 316.756092 -154.801315 
L 315.923236 -156.505108 
L 315.283999 -158.208902 
L 314.861427 -159.912695 
L 314.675937 -161.616489 
L 314.743581 -163.320282 
L 315.074362 -165.024076 
L 315.670845 -166.72787 
L 316.527248 -168.431663 
L 317.629153 -170.135457 
L 318.953903 -171.83925 
L 320.47165 -173.543044 
L 322.146953 -175.246838 
L 323.940737 -176.950631 
L 325.812428 -178.654425 
L 327.72204 -180.358218 
L 329.632039 -182.062012 
L 331.508851 -183.765806 
L 333.323941 -185.469599 
L 335.054443 -187.173393 
L 336.683383 -188.877186 
L 338.199553 -190.58098 
L 339.597133 -192.284774 
L 340.875146 -193.988567 
L 342.036808 -195.692361 
L 343.088859 -197.396154 
L 344.040885 -199.099948 
L 344.90467 -200.803741 
L 345.693573 -202.507535 
L 346.421937 -204.211329 
L 347.104514 -205.915122 
L 347.75591 -207.618916 
L 348.390047 -209.322709 
L 349.019646 -211.026503 
L 349.655747 -212.730297 
L 350.307287 -214.43409 
L 350.980761 -216.137884 
L 351.679995 -217.841677 
L 352.406048 -219.545471 
L 353.157277 -221.249265 
L 353.929557 -222.953058 
L 354.716651 -224.656852 
L 355.510714 -226.360645 
L 356.302879 -228.064439 
L 357.083882 -229.768233 
L 357.844668 -231.472026 
L 358.576927 -233.17582 
L 359.273521 -234.879613 
L 359.928763 -236.583407 
L 360.538555 -238.2872 
L 361.10038 -239.990994 
L 368.731495 -239.990994 
L 368.731495 -239.990994 
L 369.29332 -238.2872 
L 369.903112 -236.583407 
L 370.558354 -234.879613 
L 371.254948 -233.17582 
L 371.987207 -231.472026 
L 372.747993 -229.768233 
L 373.528996 -228.064439 
L 374.321161 -226.360645 
L 375.115224 -224.656852 
L 375.902318 -222.953058 
L 376.674598 -221.249265 
L 377.425827 -219.545471 
L 378.15188 -217.841677 
L 378.851114 -216.137884 
L 379.524588 -214.43409 
L 380.176128 -212.730297 
L 380.812229 -211.026503 
L 381.441828 -209.322709 
L 382.075965 -207.618916 
L 382.727361 -205.915122 
L 383.409938 -204.211329 
L 384.138302 -202.507535 
L 384.927205 -200.803741 
L 385.79099 -199.099948 
L 386.743016 -197.396154 
L 387.795067 -195.692361 
L 388.956729 -193.988567 
L 390.234742 -192.284774 
L 391.632322 -190.58098 
L 393.148492 -188.877186 
L 394.777432 -187.173393 
L 396.507934 -185.469599 
L 398.323024 -183.765806 
L 400.199836 -182.062012 
L 402.109835 -180.358218 
L 404.019447 -178.654425 
L 405.891138 -176.950631 
L 407.684922 -175.246838 
L 409.360225 -173.543044 
L 410.877972 -171.83925 
L 412.202722 -170.135457 
L 413.304627 -168.431663 
L 414.16103 -166.72787 
L 414.757513 -165.024076 
L 415.088294 -163.320282 
L 415.155937 -161.616489 
L 414.970448 -159.912695 
L 414.547876 -158.208902 
L 413.908639 -156.505108 
L 413.075783 -154.801315 
L 412.07339 -153.097521 
L 410.925301 -151.393727 
L 409.654259 -149.689934 
L 408.281467 -147.98614 
L 406.826545 -146.282347 
L 405.307725 -144.578553 
L 403.742175 -142.874759 
L 402.146296 -141.170966 
L 400.535869 -139.467172 
L 398.926001 -137.763379 
L 397.330842 -136.059585 
L 395.763142 -134.355791 
L 394.233708 -132.651998 
L 392.750899 -130.948204 
L 391.320242 -129.244411 
L 389.944282 -127.540617 
L 388.622694 -125.836823 
L 387.352679 -124.13303 
L 386.129605 -122.429236 
L 384.947808 -120.725443 
L 383.801476 -119.021649 
L 382.685494 -117.317856 
L 381.596159 -115.614062 
L 380.531691 -113.910268 
L 379.492501 -112.206475 
L 378.481184 -110.502681 
L 377.502277 -108.798888 
L 376.561816 -107.095094 
L 375.666754 -105.3913 
L 374.824313 -103.687507 
L 374.04134 -101.983713 
L 373.323707 -100.27992 
L 372.675815 -98.576126 
L 372.100222 -96.872332 
L 371.597402 -95.168539 
L 371.165634 -93.464745 
L 370.801025 -91.760952 
L 370.497643 -90.057158 
L 370.247761 -88.353364 
L 370.042193 -86.649571 
L 369.870714 -84.945777 
L 369.722551 -83.241984 
L 369.586915 -81.53819 
L 369.453567 -79.834396 
L 369.313355 -78.130603 
L 369.158705 -76.426809 
L 368.984017 -74.723016 
L 368.785927 -73.019222 
L 368.563406 -71.315429 
z
" style="stroke: #000000; stroke-opacity: 0.7"/>
    </defs>
    <g clip-path="url(#p8ba8743481)">
     <use xlink:href="#m42f55d15de" x="0" y="319.954844" style="fill: #66c2a5; fill-opacity: 0.7; stroke: #000000; stroke-opacity: 0.7"/>
    </g>
   </g>
   <g id="matplotlib.axis_1">
    <g id="xtick_1">
     <g id="line2d_1">
      <defs>
       <path id="m2903aa85ea" d="M 0 0 
L 0 3.5 
" style="stroke: #000000; stroke-width: 0.8"/>
      </defs>
      <g>
       <use xlink:href="#m2903aa85ea" x="113.715937" y="259.048673" style="stroke: #000000; stroke-width: 0.8"/>
      </g>
     </g>
     <g id="text_1">
      <!-- Farmhouse -->
      <g transform="translate(74.193088 309.648435) rotate(-45) scale(0.12 -0.12)">
       <defs>
        <path id="TimesNewRomanPSMT-46" d="M 1309 4006 
L 1309 2341 
L 2081 2341 
Q 2347 2341 2470 2458 
Q 2594 2575 2634 2922 
L 2750 2922 
L 2750 1488 
L 2634 1488 
Q 2631 1734 2570 1850 
Q 2509 1966 2401 2023 
Q 2294 2081 2081 2081 
L 1309 2081 
L 1309 750 
Q 1309 428 1350 325 
Q 1381 247 1481 191 
Q 1619 116 1769 116 
L 1922 116 
L 1922 0 
L 103 0 
L 103 116 
L 253 116 
Q 516 116 634 269 
Q 709 369 709 750 
L 709 3488 
Q 709 3809 669 3913 
Q 638 3991 541 4047 
Q 406 4122 253 4122 
L 103 4122 
L 103 4238 
L 3256 4238 
L 3297 3306 
L 3188 3306 
Q 3106 3603 2998 3742 
Q 2891 3881 2733 3943 
Q 2575 4006 2244 4006 
L 1309 4006 
z
" transform="scale(0.015625)"/>
        <path id="TimesNewRomanPSMT-61" d="M 1822 413 
Q 1381 72 1269 19 
Q 1100 -59 909 -59 
Q 613 -59 420 144 
Q 228 347 228 678 
Q 228 888 322 1041 
Q 450 1253 767 1440 
Q 1084 1628 1822 1897 
L 1822 2009 
Q 1822 2438 1686 2597 
Q 1550 2756 1291 2756 
Q 1094 2756 978 2650 
Q 859 2544 859 2406 
L 866 2225 
Q 866 2081 792 2003 
Q 719 1925 600 1925 
Q 484 1925 411 2006 
Q 338 2088 338 2228 
Q 338 2497 613 2722 
Q 888 2947 1384 2947 
Q 1766 2947 2009 2819 
Q 2194 2722 2281 2516 
Q 2338 2381 2338 1966 
L 2338 994 
Q 2338 584 2353 492 
Q 2369 400 2405 369 
Q 2441 338 2488 338 
Q 2538 338 2575 359 
Q 2641 400 2828 588 
L 2828 413 
Q 2478 -56 2159 -56 
Q 2006 -56 1915 50 
Q 1825 156 1822 413 
z
M 1822 616 
L 1822 1706 
Q 1350 1519 1213 1441 
Q 966 1303 859 1153 
Q 753 1003 753 825 
Q 753 600 887 451 
Q 1022 303 1197 303 
Q 1434 303 1822 616 
z
" transform="scale(0.015625)"/>
        <path id="TimesNewRomanPSMT-72" d="M 1038 2947 
L 1038 2303 
Q 1397 2947 1775 2947 
Q 1947 2947 2059 2842 
Q 2172 2738 2172 2600 
Q 2172 2478 2090 2393 
Q 2009 2309 1897 2309 
Q 1788 2309 1652 2417 
Q 1516 2525 1450 2525 
Q 1394 2525 1328 2463 
Q 1188 2334 1038 2041 
L 1038 669 
Q 1038 431 1097 309 
Q 1138 225 1241 169 
Q 1344 113 1538 113 
L 1538 0 
L 72 0 
L 72 113 
Q 291 113 397 181 
Q 475 231 506 341 
Q 522 394 522 644 
L 522 1753 
Q 522 2253 501 2348 
Q 481 2444 426 2487 
Q 372 2531 291 2531 
Q 194 2531 72 2484 
L 41 2597 
L 906 2947 
L 1038 2947 
z
" transform="scale(0.015625)"/>
        <path id="TimesNewRomanPSMT-6d" d="M 1050 2338 
Q 1363 2650 1419 2697 
Q 1559 2816 1721 2881 
Q 1884 2947 2044 2947 
Q 2313 2947 2506 2790 
Q 2700 2634 2766 2338 
Q 3088 2713 3309 2830 
Q 3531 2947 3766 2947 
Q 3994 2947 4170 2830 
Q 4347 2713 4450 2447 
Q 4519 2266 4519 1878 
L 4519 647 
Q 4519 378 4559 278 
Q 4591 209 4675 161 
Q 4759 113 4950 113 
L 4950 0 
L 3538 0 
L 3538 113 
L 3597 113 
Q 3781 113 3884 184 
Q 3956 234 3988 344 
Q 4000 397 4000 647 
L 4000 1878 
Q 4000 2228 3916 2372 
Q 3794 2572 3525 2572 
Q 3359 2572 3192 2489 
Q 3025 2406 2788 2181 
L 2781 2147 
L 2788 2013 
L 2788 647 
Q 2788 353 2820 281 
Q 2853 209 2943 161 
Q 3034 113 3253 113 
L 3253 0 
L 1806 0 
L 1806 113 
Q 2044 113 2133 169 
Q 2222 225 2256 338 
Q 2272 391 2272 647 
L 2272 1878 
Q 2272 2228 2169 2381 
Q 2031 2581 1784 2581 
Q 1616 2581 1450 2491 
Q 1191 2353 1050 2181 
L 1050 647 
Q 1050 366 1089 281 
Q 1128 197 1204 155 
Q 1281 113 1516 113 
L 1516 0 
L 100 0 
L 100 113 
Q 297 113 375 155 
Q 453 197 493 289 
Q 534 381 534 647 
L 534 1741 
Q 534 2213 506 2350 
Q 484 2453 437 2492 
Q 391 2531 309 2531 
Q 222 2531 100 2484 
L 53 2597 
L 916 2947 
L 1050 2947 
L 1050 2338 
z
" transform="scale(0.015625)"/>
        <path id="TimesNewRomanPSMT-68" d="M 1041 4444 
L 1041 2350 
Q 1388 2731 1591 2839 
Q 1794 2947 1997 2947 
Q 2241 2947 2416 2812 
Q 2591 2678 2675 2391 
Q 2734 2191 2734 1659 
L 2734 647 
Q 2734 375 2778 275 
Q 2809 200 2884 156 
Q 2959 113 3159 113 
L 3159 0 
L 1753 0 
L 1753 113 
L 1819 113 
Q 2019 113 2097 173 
Q 2175 234 2206 353 
Q 2216 403 2216 647 
L 2216 1659 
Q 2216 2128 2167 2275 
Q 2119 2422 2012 2495 
Q 1906 2569 1756 2569 
Q 1603 2569 1437 2487 
Q 1272 2406 1041 2159 
L 1041 647 
Q 1041 353 1073 281 
Q 1106 209 1195 161 
Q 1284 113 1503 113 
L 1503 0 
L 84 0 
L 84 113 
Q 275 113 384 172 
Q 447 203 484 290 
Q 522 378 522 647 
L 522 3238 
Q 522 3728 498 3840 
Q 475 3953 426 3993 
Q 378 4034 297 4034 
Q 231 4034 84 3984 
L 41 4094 
L 897 4444 
L 1041 4444 
z
" transform="scale(0.015625)"/>
        <path id="TimesNewRomanPSMT-6f" d="M 1600 2947 
Q 2250 2947 2644 2453 
Q 2978 2031 2978 1484 
Q 2978 1100 2793 706 
Q 2609 313 2286 112 
Q 1963 -88 1566 -88 
Q 919 -88 538 428 
Q 216 863 216 1403 
Q 216 1797 411 2186 
Q 606 2575 925 2761 
Q 1244 2947 1600 2947 
z
M 1503 2744 
Q 1338 2744 1170 2645 
Q 1003 2547 900 2300 
Q 797 2053 797 1666 
Q 797 1041 1045 587 
Q 1294 134 1700 134 
Q 2003 134 2200 384 
Q 2397 634 2397 1244 
Q 2397 2006 2069 2444 
Q 1847 2744 1503 2744 
z
" transform="scale(0.015625)"/>
        <path id="TimesNewRomanPSMT-75" d="M 2709 2863 
L 2709 1128 
Q 2709 631 2732 520 
Q 2756 409 2807 365 
Q 2859 322 2928 322 
Q 3025 322 3147 375 
L 3191 266 
L 2334 -88 
L 2194 -88 
L 2194 519 
Q 1825 119 1631 15 
Q 1438 -88 1222 -88 
Q 981 -88 804 51 
Q 628 191 559 409 
Q 491 628 491 1028 
L 491 2306 
Q 491 2509 447 2587 
Q 403 2666 317 2708 
Q 231 2750 6 2747 
L 6 2863 
L 1009 2863 
L 1009 947 
Q 1009 547 1148 422 
Q 1288 297 1484 297 
Q 1619 297 1789 381 
Q 1959 466 2194 703 
L 2194 2325 
Q 2194 2569 2105 2655 
Q 2016 2741 1734 2747 
L 1734 2863 
L 2709 2863 
z
" transform="scale(0.015625)"/>
        <path id="TimesNewRomanPSMT-73" d="M 2050 2947 
L 2050 1972 
L 1947 1972 
Q 1828 2431 1642 2597 
Q 1456 2763 1169 2763 
Q 950 2763 815 2647 
Q 681 2531 681 2391 
Q 681 2216 781 2091 
Q 878 1963 1175 1819 
L 1631 1597 
Q 2266 1288 2266 781 
Q 2266 391 1970 151 
Q 1675 -88 1309 -88 
Q 1047 -88 709 6 
Q 606 38 541 38 
Q 469 38 428 -44 
L 325 -44 
L 325 978 
L 428 978 
Q 516 541 762 319 
Q 1009 97 1316 97 
Q 1531 97 1667 223 
Q 1803 350 1803 528 
Q 1803 744 1651 891 
Q 1500 1038 1047 1263 
Q 594 1488 453 1669 
Q 313 1847 313 2119 
Q 313 2472 555 2709 
Q 797 2947 1181 2947 
Q 1350 2947 1591 2875 
Q 1750 2828 1803 2828 
Q 1853 2828 1881 2850 
Q 1909 2872 1947 2947 
L 2050 2947 
z
" transform="scale(0.015625)"/>
        <path id="TimesNewRomanPSMT-65" d="M 681 1784 
Q 678 1147 991 784 
Q 1303 422 1725 422 
Q 2006 422 2214 576 
Q 2422 731 2563 1106 
L 2659 1044 
Q 2594 616 2278 264 
Q 1963 -88 1488 -88 
Q 972 -88 605 314 
Q 238 716 238 1394 
Q 238 2128 614 2539 
Q 991 2950 1559 2950 
Q 2041 2950 2350 2633 
Q 2659 2316 2659 1784 
L 681 1784 
z
M 681 1966 
L 2006 1966 
Q 1991 2241 1941 2353 
Q 1863 2528 1708 2628 
Q 1553 2728 1384 2728 
Q 1125 2728 920 2526 
Q 716 2325 681 1966 
z
" transform="scale(0.015625)"/>
       </defs>
       <use xlink:href="#TimesNewRomanPSMT-46"/>
       <use xlink:href="#TimesNewRomanPSMT-61" x="55.615234"/>
       <use xlink:href="#TimesNewRomanPSMT-72" x="100"/>
       <use xlink:href="#TimesNewRomanPSMT-6d" x="133.300781"/>
       <use xlink:href="#TimesNewRomanPSMT-68" x="211.083984"/>
       <use xlink:href="#TimesNewRomanPSMT-6f" x="261.083984"/>
       <use xlink:href="#TimesNewRomanPSMT-75" x="311.083984"/>
       <use xlink:href="#TimesNewRomanPSMT-73" x="361.083984"/>
       <use xlink:href="#TimesNewRomanPSMT-65" x="400"/>
      </g>
     </g>
    </g>
    <g id="xtick_2">
     <g id="line2d_2">
      <g>
       <use xlink:href="#m2903aa85ea" x="239.315937" y="259.048673" style="stroke: #000000; stroke-width: 0.8"/>
      </g>
     </g>
     <g id="text_2">
      <!-- Cottage -->
      <g transform="translate(211.09177 298.317933) rotate(-45) scale(0.12 -0.12)">
       <defs>
        <path id="TimesNewRomanPSMT-43" d="M 3853 4334 
L 3950 2894 
L 3853 2894 
Q 3659 3541 3300 3825 
Q 2941 4109 2438 4109 
Q 2016 4109 1675 3895 
Q 1334 3681 1139 3212 
Q 944 2744 944 2047 
Q 944 1472 1128 1050 
Q 1313 628 1683 403 
Q 2053 178 2528 178 
Q 2941 178 3256 354 
Q 3572 531 3950 1056 
L 4047 994 
Q 3728 428 3303 165 
Q 2878 -97 2294 -97 
Q 1241 -97 663 684 
Q 231 1266 231 2053 
Q 231 2688 515 3219 
Q 800 3750 1298 4042 
Q 1797 4334 2388 4334 
Q 2847 4334 3294 4109 
Q 3425 4041 3481 4041 
Q 3566 4041 3628 4100 
Q 3709 4184 3744 4334 
L 3853 4334 
z
" transform="scale(0.015625)"/>
        <path id="TimesNewRomanPSMT-74" d="M 1031 3803 
L 1031 2863 
L 1700 2863 
L 1700 2644 
L 1031 2644 
L 1031 788 
Q 1031 509 1111 412 
Q 1191 316 1316 316 
Q 1419 316 1516 380 
Q 1613 444 1666 569 
L 1788 569 
Q 1678 263 1478 108 
Q 1278 -47 1066 -47 
Q 922 -47 784 33 
Q 647 113 581 261 
Q 516 409 516 719 
L 516 2644 
L 63 2644 
L 63 2747 
Q 234 2816 414 2980 
Q 594 3144 734 3369 
Q 806 3488 934 3803 
L 1031 3803 
z
" transform="scale(0.015625)"/>
        <path id="TimesNewRomanPSMT-67" d="M 966 1044 
Q 703 1172 562 1401 
Q 422 1631 422 1909 
Q 422 2334 742 2640 
Q 1063 2947 1563 2947 
Q 1972 2947 2272 2747 
L 2878 2747 
Q 3013 2747 3034 2739 
Q 3056 2731 3066 2713 
Q 3084 2684 3084 2613 
Q 3084 2531 3069 2500 
Q 3059 2484 3036 2475 
Q 3013 2466 2878 2466 
L 2506 2466 
Q 2681 2241 2681 1891 
Q 2681 1491 2375 1206 
Q 2069 922 1553 922 
Q 1341 922 1119 984 
Q 981 866 932 777 
Q 884 688 884 625 
Q 884 572 936 522 
Q 988 472 1138 450 
Q 1225 438 1575 428 
Q 2219 413 2409 384 
Q 2700 344 2873 169 
Q 3047 -6 3047 -263 
Q 3047 -616 2716 -925 
Q 2228 -1381 1444 -1381 
Q 841 -1381 425 -1109 
Q 191 -953 191 -784 
Q 191 -709 225 -634 
Q 278 -519 444 -313 
Q 466 -284 763 25 
Q 600 122 533 198 
Q 466 275 466 372 
Q 466 481 555 628 
Q 644 775 966 1044 
z
M 1509 2797 
Q 1278 2797 1122 2612 
Q 966 2428 966 2047 
Q 966 1553 1178 1281 
Q 1341 1075 1591 1075 
Q 1828 1075 1981 1253 
Q 2134 1431 2134 1813 
Q 2134 2309 1919 2591 
Q 1759 2797 1509 2797 
z
M 934 0 
Q 788 -159 713 -296 
Q 638 -434 638 -550 
Q 638 -700 819 -813 
Q 1131 -1006 1722 -1006 
Q 2284 -1006 2551 -807 
Q 2819 -609 2819 -384 
Q 2819 -222 2659 -153 
Q 2497 -84 2016 -72 
Q 1313 -53 934 0 
z
" transform="scale(0.015625)"/>
       </defs>
       <use xlink:href="#TimesNewRomanPSMT-43"/>
       <use xlink:href="#TimesNewRomanPSMT-6f" x="66.699219"/>
       <use xlink:href="#TimesNewRomanPSMT-74" x="116.699219"/>
       <use xlink:href="#TimesNewRomanPSMT-74" x="144.482422"/>
       <use xlink:href="#TimesNewRomanPSMT-61" x="172.265625"/>
       <use xlink:href="#TimesNewRomanPSMT-67" x="216.650391"/>
       <use xlink:href="#TimesNewRomanPSMT-65" x="266.650391"/>
      </g>
     </g>
    </g>
    <g id="xtick_3">
     <g id="line2d_3">
      <g>
       <use xlink:href="#m2903aa85ea" x="364.915937" y="259.048673" style="stroke: #000000; stroke-width: 0.8"/>
      </g>
     </g>
     <g id="text_3">
      <!-- Townhouse -->
      <g transform="translate(324.101734 310.939789) rotate(-45) scale(0.12 -0.12)">
       <defs>
        <path id="TimesNewRomanPSMT-54" d="M 3703 4238 
L 3750 3244 
L 3631 3244 
Q 3597 3506 3538 3619 
Q 3441 3800 3280 3886 
Q 3119 3972 2856 3972 
L 2259 3972 
L 2259 734 
Q 2259 344 2344 247 
Q 2463 116 2709 116 
L 2856 116 
L 2856 0 
L 1059 0 
L 1059 116 
L 1209 116 
Q 1478 116 1591 278 
Q 1659 378 1659 734 
L 1659 3972 
L 1150 3972 
Q 853 3972 728 3928 
Q 566 3869 450 3700 
Q 334 3531 313 3244 
L 194 3244 
L 244 4238 
L 3703 4238 
z
" transform="scale(0.015625)"/>
        <path id="TimesNewRomanPSMT-77" d="M 41 2863 
L 1241 2863 
L 1241 2747 
Q 1075 2734 1023 2687 
Q 972 2641 972 2553 
Q 972 2456 1025 2319 
L 1638 672 
L 2253 2013 
L 2091 2434 
Q 2016 2622 1894 2694 
Q 1825 2738 1638 2747 
L 1638 2863 
L 3000 2863 
L 3000 2747 
Q 2775 2738 2681 2666 
Q 2619 2616 2619 2506 
Q 2619 2444 2644 2378 
L 3294 734 
L 3897 2319 
Q 3959 2488 3959 2588 
Q 3959 2647 3898 2694 
Q 3838 2741 3659 2747 
L 3659 2863 
L 4563 2863 
L 4563 2747 
Q 4291 2706 4163 2378 
L 3206 -88 
L 3078 -88 
L 2363 1741 
L 1528 -88 
L 1413 -88 
L 494 2319 
Q 403 2547 315 2626 
Q 228 2706 41 2747 
L 41 2863 
z
" transform="scale(0.015625)"/>
        <path id="TimesNewRomanPSMT-6e" d="M 1034 2341 
Q 1538 2947 1994 2947 
Q 2228 2947 2397 2830 
Q 2566 2713 2666 2444 
Q 2734 2256 2734 1869 
L 2734 647 
Q 2734 375 2778 278 
Q 2813 200 2889 156 
Q 2966 113 3172 113 
L 3172 0 
L 1756 0 
L 1756 113 
L 1816 113 
Q 2016 113 2095 173 
Q 2175 234 2206 353 
Q 2219 400 2219 647 
L 2219 1819 
Q 2219 2209 2117 2386 
Q 2016 2563 1775 2563 
Q 1403 2563 1034 2156 
L 1034 647 
Q 1034 356 1069 288 
Q 1113 197 1189 155 
Q 1266 113 1500 113 
L 1500 0 
L 84 0 
L 84 113 
L 147 113 
Q 366 113 442 223 
Q 519 334 519 647 
L 519 1709 
Q 519 2225 495 2337 
Q 472 2450 423 2490 
Q 375 2531 294 2531 
Q 206 2531 84 2484 
L 38 2597 
L 900 2947 
L 1034 2947 
L 1034 2341 
z
" transform="scale(0.015625)"/>
       </defs>
       <use xlink:href="#TimesNewRomanPSMT-54"/>
       <use xlink:href="#TimesNewRomanPSMT-6f" x="54.083984"/>
       <use xlink:href="#TimesNewRomanPSMT-77" x="104.083984"/>
       <use xlink:href="#TimesNewRomanPSMT-6e" x="176.300781"/>
       <use xlink:href="#TimesNewRomanPSMT-68" x="226.300781"/>
       <use xlink:href="#TimesNewRomanPSMT-6f" x="276.300781"/>
       <use xlink:href="#TimesNewRomanPSMT-75" x="326.300781"/>
       <use xlink:href="#TimesNewRomanPSMT-73" x="376.300781"/>
       <use xlink:href="#TimesNewRomanPSMT-65" x="415.216797"/>
      </g>
     </g>
    </g>
   </g>
   <g id="matplotlib.axis_2">
    <g id="ytick_1">
     <g id="line2d_4">
      <defs>
       <path id="m4bbebb06b4" d="M 0 0 
L -3.5 0 
" style="stroke: #000000; stroke-width: 0.8"/>
      </defs>
      <g>
       <use xlink:href="#m4bbebb06b4" x="50.915938" y="223.023306" style="stroke: #000000; stroke-width: 0.8"/>
      </g>
     </g>
     <g id="text_4">
      <!-- 200 -->
      <g transform="translate(28.915938 226.495181) scale(0.1 -0.1)">
       <defs>
        <path id="TimesNewRomanPSMT-32" d="M 2934 816 
L 2638 0 
L 138 0 
L 138 116 
Q 1241 1122 1691 1759 
Q 2141 2397 2141 2925 
Q 2141 3328 1894 3587 
Q 1647 3847 1303 3847 
Q 991 3847 742 3664 
Q 494 3481 375 3128 
L 259 3128 
Q 338 3706 661 4015 
Q 984 4325 1469 4325 
Q 1984 4325 2329 3994 
Q 2675 3663 2675 3213 
Q 2675 2891 2525 2569 
Q 2294 2063 1775 1497 
Q 997 647 803 472 
L 1909 472 
Q 2247 472 2383 497 
Q 2519 522 2628 598 
Q 2738 675 2819 816 
L 2934 816 
z
" transform="scale(0.015625)"/>
        <path id="TimesNewRomanPSMT-30" d="M 231 2094 
Q 231 2819 450 3342 
Q 669 3866 1031 4122 
Q 1313 4325 1613 4325 
Q 2100 4325 2488 3828 
Q 2972 3213 2972 2159 
Q 2972 1422 2759 906 
Q 2547 391 2217 158 
Q 1888 -75 1581 -75 
Q 975 -75 572 641 
Q 231 1244 231 2094 
z
M 844 2016 
Q 844 1141 1059 588 
Q 1238 122 1591 122 
Q 1759 122 1940 273 
Q 2122 425 2216 781 
Q 2359 1319 2359 2297 
Q 2359 3022 2209 3506 
Q 2097 3866 1919 4016 
Q 1791 4119 1609 4119 
Q 1397 4119 1231 3928 
Q 1006 3669 925 3112 
Q 844 2556 844 2016 
z
" transform="scale(0.015625)"/>
       </defs>
       <use xlink:href="#TimesNewRomanPSMT-32"/>
       <use xlink:href="#TimesNewRomanPSMT-30" x="50"/>
       <use xlink:href="#TimesNewRomanPSMT-30" x="100"/>
      </g>
     </g>
    </g>
    <g id="ytick_2">
     <g id="line2d_5">
      <g>
       <use xlink:href="#m4bbebb06b4" x="50.915938" y="179.606172" style="stroke: #000000; stroke-width: 0.8"/>
      </g>
     </g>
     <g id="text_5">
      <!-- 400 -->
      <g transform="translate(28.915938 183.078047) scale(0.1 -0.1)">
       <defs>
        <path id="TimesNewRomanPSMT-34" d="M 2978 1563 
L 2978 1119 
L 2409 1119 
L 2409 0 
L 1894 0 
L 1894 1119 
L 100 1119 
L 100 1519 
L 2066 4325 
L 2409 4325 
L 2409 1563 
L 2978 1563 
z
M 1894 1563 
L 1894 3666 
L 406 1563 
L 1894 1563 
z
" transform="scale(0.015625)"/>
       </defs>
       <use xlink:href="#TimesNewRomanPSMT-34"/>
       <use xlink:href="#TimesNewRomanPSMT-30" x="50"/>
       <use xlink:href="#TimesNewRomanPSMT-30" x="100"/>
      </g>
     </g>
    </g>
    <g id="ytick_3">
     <g id="line2d_6">
      <g>
       <use xlink:href="#m4bbebb06b4" x="50.915938" y="136.189038" style="stroke: #000000; stroke-width: 0.8"/>
      </g>
     </g>
     <g id="text_6">
      <!-- 600 -->
      <g transform="translate(28.915938 139.660913) scale(0.1 -0.1)">
       <defs>
        <path id="TimesNewRomanPSMT-36" d="M 2869 4325 
L 2869 4209 
Q 2456 4169 2195 4045 
Q 1934 3922 1679 3669 
Q 1425 3416 1258 3105 
Q 1091 2794 978 2366 
Q 1428 2675 1881 2675 
Q 2316 2675 2634 2325 
Q 2953 1975 2953 1425 
Q 2953 894 2631 456 
Q 2244 -75 1606 -75 
Q 1172 -75 869 213 
Q 275 772 275 1663 
Q 275 2231 503 2743 
Q 731 3256 1154 3653 
Q 1578 4050 1965 4187 
Q 2353 4325 2688 4325 
L 2869 4325 
z
M 925 2138 
Q 869 1716 869 1456 
Q 869 1156 980 804 
Q 1091 453 1309 247 
Q 1469 100 1697 100 
Q 1969 100 2183 356 
Q 2397 613 2397 1088 
Q 2397 1622 2184 2012 
Q 1972 2403 1581 2403 
Q 1463 2403 1327 2353 
Q 1191 2303 925 2138 
z
" transform="scale(0.015625)"/>
       </defs>
       <use xlink:href="#TimesNewRomanPSMT-36"/>
       <use xlink:href="#TimesNewRomanPSMT-30" x="50"/>
       <use xlink:href="#TimesNewRomanPSMT-30" x="100"/>
      </g>
     </g>
    </g>
    <g id="ytick_4">
     <g id="line2d_7">
      <g>
       <use xlink:href="#m4bbebb06b4" x="50.915938" y="92.771904" style="stroke: #000000; stroke-width: 0.8"/>
      </g>
     </g>
     <g id="text_7">
      <!-- 800 -->
      <g transform="translate(28.915938 96.243779) scale(0.1 -0.1)">
       <defs>
        <path id="TimesNewRomanPSMT-38" d="M 1228 2134 
Q 725 2547 579 2797 
Q 434 3047 434 3316 
Q 434 3728 753 4026 
Q 1072 4325 1600 4325 
Q 2113 4325 2425 4047 
Q 2738 3769 2738 3413 
Q 2738 3175 2569 2928 
Q 2400 2681 1866 2347 
Q 2416 1922 2594 1678 
Q 2831 1359 2831 1006 
Q 2831 559 2490 242 
Q 2150 -75 1597 -75 
Q 994 -75 656 303 
Q 388 606 388 966 
Q 388 1247 577 1523 
Q 766 1800 1228 2134 
z
M 1719 2469 
Q 2094 2806 2194 3001 
Q 2294 3197 2294 3444 
Q 2294 3772 2109 3958 
Q 1925 4144 1606 4144 
Q 1288 4144 1088 3959 
Q 888 3775 888 3528 
Q 888 3366 970 3203 
Q 1053 3041 1206 2894 
L 1719 2469 
z
M 1375 2016 
Q 1116 1797 991 1539 
Q 866 1281 866 981 
Q 866 578 1086 336 
Q 1306 94 1647 94 
Q 1984 94 2187 284 
Q 2391 475 2391 747 
Q 2391 972 2272 1150 
Q 2050 1481 1375 2016 
z
" transform="scale(0.015625)"/>
       </defs>
       <use xlink:href="#TimesNewRomanPSMT-38"/>
       <use xlink:href="#TimesNewRomanPSMT-30" x="50"/>
       <use xlink:href="#TimesNewRomanPSMT-30" x="100"/>
      </g>
     </g>
    </g>
    <g id="ytick_5">
     <g id="line2d_8">
      <g>
       <use xlink:href="#m4bbebb06b4" x="50.915938" y="49.35477" style="stroke: #000000; stroke-width: 0.8"/>
      </g>
     </g>
     <g id="text_8">
      <!-- 1000 -->
      <g transform="translate(23.915938 52.826645) scale(0.1 -0.1)">
       <defs>
        <path id="TimesNewRomanPSMT-31" d="M 750 3822 
L 1781 4325 
L 1884 4325 
L 1884 747 
Q 1884 391 1914 303 
Q 1944 216 2037 169 
Q 2131 122 2419 116 
L 2419 0 
L 825 0 
L 825 116 
Q 1125 122 1212 167 
Q 1300 213 1334 289 
Q 1369 366 1369 747 
L 1369 3034 
Q 1369 3497 1338 3628 
Q 1316 3728 1258 3775 
Q 1200 3822 1119 3822 
Q 1003 3822 797 3725 
L 750 3822 
z
" transform="scale(0.015625)"/>
       </defs>
       <use xlink:href="#TimesNewRomanPSMT-31"/>
       <use xlink:href="#TimesNewRomanPSMT-30" x="50"/>
       <use xlink:href="#TimesNewRomanPSMT-30" x="100"/>
       <use xlink:href="#TimesNewRomanPSMT-30" x="150"/>
      </g>
     </g>
    </g>
    <g id="text_9">
     <!-- thousand USD -->
     <g transform="translate(16.92125 185.57668) rotate(-90) scale(0.14 -0.14)">
      <defs>
       <path id="TimesNewRomanPSMT-64" d="M 2222 322 
Q 2013 103 1813 7 
Q 1613 -88 1381 -88 
Q 913 -88 563 304 
Q 213 697 213 1313 
Q 213 1928 600 2439 
Q 988 2950 1597 2950 
Q 1975 2950 2222 2709 
L 2222 3238 
Q 2222 3728 2198 3840 
Q 2175 3953 2125 3993 
Q 2075 4034 2000 4034 
Q 1919 4034 1784 3984 
L 1744 4094 
L 2597 4444 
L 2738 4444 
L 2738 1134 
Q 2738 631 2761 520 
Q 2784 409 2836 365 
Q 2888 322 2956 322 
Q 3041 322 3181 375 
L 3216 266 
L 2366 -88 
L 2222 -88 
L 2222 322 
z
M 2222 541 
L 2222 2016 
Q 2203 2228 2109 2403 
Q 2016 2578 1861 2667 
Q 1706 2756 1559 2756 
Q 1284 2756 1069 2509 
Q 784 2184 784 1559 
Q 784 928 1059 592 
Q 1334 256 1672 256 
Q 1956 256 2222 541 
z
" transform="scale(0.015625)"/>
       <path id="TimesNewRomanPSMT-20" transform="scale(0.015625)"/>
       <path id="TimesNewRomanPSMT-55" d="M 3053 4122 
L 3053 4238 
L 4553 4238 
L 4553 4122 
L 4394 4122 
Q 4144 4122 4009 3913 
Q 3944 3816 3944 3463 
L 3944 1744 
Q 3944 1106 3817 754 
Q 3691 403 3320 151 
Q 2950 -100 2313 -100 
Q 1619 -100 1259 140 
Q 900 381 750 788 
Q 650 1066 650 1831 
L 650 3488 
Q 650 3878 542 4000 
Q 434 4122 194 4122 
L 34 4122 
L 34 4238 
L 1866 4238 
L 1866 4122 
L 1703 4122 
Q 1441 4122 1328 3956 
Q 1250 3844 1250 3488 
L 1250 1641 
Q 1250 1394 1295 1075 
Q 1341 756 1459 578 
Q 1578 400 1801 284 
Q 2025 169 2350 169 
Q 2766 169 3094 350 
Q 3422 531 3542 814 
Q 3663 1097 3663 1772 
L 3663 3488 
Q 3663 3884 3575 3984 
Q 3453 4122 3213 4122 
L 3053 4122 
z
" transform="scale(0.015625)"/>
       <path id="TimesNewRomanPSMT-53" d="M 2934 4334 
L 2934 2869 
L 2819 2869 
Q 2763 3291 2617 3541 
Q 2472 3791 2203 3937 
Q 1934 4084 1647 4084 
Q 1322 4084 1109 3886 
Q 897 3688 897 3434 
Q 897 3241 1031 3081 
Q 1225 2847 1953 2456 
Q 2547 2138 2764 1967 
Q 2981 1797 3098 1565 
Q 3216 1334 3216 1081 
Q 3216 600 2842 251 
Q 2469 -97 1881 -97 
Q 1697 -97 1534 -69 
Q 1438 -53 1133 45 
Q 828 144 747 144 
Q 669 144 623 97 
Q 578 50 556 -97 
L 441 -97 
L 441 1356 
L 556 1356 
Q 638 900 775 673 
Q 913 447 1195 297 
Q 1478 147 1816 147 
Q 2206 147 2432 353 
Q 2659 559 2659 841 
Q 2659 997 2573 1156 
Q 2488 1316 2306 1453 
Q 2184 1547 1640 1851 
Q 1097 2156 867 2337 
Q 638 2519 519 2737 
Q 400 2956 400 3219 
Q 400 3675 750 4004 
Q 1100 4334 1641 4334 
Q 1978 4334 2356 4169 
Q 2531 4091 2603 4091 
Q 2684 4091 2736 4139 
Q 2788 4188 2819 4334 
L 2934 4334 
z
" transform="scale(0.015625)"/>
       <path id="TimesNewRomanPSMT-44" d="M 109 0 
L 109 116 
L 269 116 
Q 538 116 650 288 
Q 719 391 719 750 
L 719 3488 
Q 719 3884 631 3984 
Q 509 4122 269 4122 
L 109 4122 
L 109 4238 
L 1834 4238 
Q 2784 4238 3279 4022 
Q 3775 3806 4076 3303 
Q 4378 2800 4378 2141 
Q 4378 1256 3841 663 
Q 3238 0 2003 0 
L 109 0 
z
M 1319 306 
Q 1716 219 1984 219 
Q 2709 219 3187 728 
Q 3666 1238 3666 2109 
Q 3666 2988 3187 3494 
Q 2709 4000 1959 4000 
Q 1678 4000 1319 3909 
L 1319 306 
z
" transform="scale(0.015625)"/>
      </defs>
      <use xlink:href="#TimesNewRomanPSMT-74"/>
      <use xlink:href="#TimesNewRomanPSMT-68" x="27.783203"/>
      <use xlink:href="#TimesNewRomanPSMT-6f" x="77.783203"/>
      <use xlink:href="#TimesNewRomanPSMT-75" x="127.783203"/>
      <use xlink:href="#TimesNewRomanPSMT-73" x="177.783203"/>
      <use xlink:href="#TimesNewRomanPSMT-61" x="216.699219"/>
      <use xlink:href="#TimesNewRomanPSMT-6e" x="261.083984"/>
      <use xlink:href="#TimesNewRomanPSMT-64" x="311.083984"/>
      <use xlink:href="#TimesNewRomanPSMT-20" x="361.083984"/>
      <use xlink:href="#TimesNewRomanPSMT-55" x="386.083984"/>
      <use xlink:href="#TimesNewRomanPSMT-53" x="458.300781"/>
      <use xlink:href="#TimesNewRomanPSMT-44" x="513.916016"/>
     </g>
    </g>
   </g>
   <g id="patch_3">
    <path d="M 106.179937 164.518718 
L 121.251938 164.518718 
L 121.251938 124.900583 
L 106.179937 124.900583 
L 106.179937 164.518718 
L 106.179937 164.518718 
z
" clip-path="url(#p8ba8743481)" style="fill: none; stroke: #000000; stroke-linejoin: miter"/>
   </g>
   <g id="line2d_9">
    <path d="M 113.715937 164.518718 
L 113.715937 219.549936 
" clip-path="url(#p8ba8743481)" style="fill: none; stroke: #000000; stroke-linecap: square"/>
   </g>
   <g id="line2d_10">
    <path d="M 113.715937 124.900583 
L 113.715937 70.629166 
" clip-path="url(#p8ba8743481)" style="fill: none; stroke: #000000; stroke-linecap: square"/>
   </g>
   <g id="line2d_11">
    <path d="M 109.947937 219.549936 
L 117.483938 219.549936 
" clip-path="url(#p8ba8743481)" style="fill: none; stroke: #000000; stroke-linecap: square"/>
   </g>
   <g id="line2d_12">
    <path d="M 109.947937 70.629166 
L 117.483938 70.629166 
" clip-path="url(#p8ba8743481)" style="fill: none; stroke: #000000; stroke-linecap: square"/>
   </g>
   <g id="patch_4">
    <path d="M 231.779937 158.820219 
L 246.851938 158.820219 
L 246.851938 116.651328 
L 231.779937 116.651328 
L 231.779937 158.820219 
L 231.779937 158.820219 
z
" clip-path="url(#p8ba8743481)" style="fill: none; stroke: #000000; stroke-linejoin: miter"/>
   </g>
   <g id="line2d_13">
    <path d="M 239.315937 158.820219 
L 239.315937 211.951937 
" clip-path="url(#p8ba8743481)" style="fill: none; stroke: #000000; stroke-linecap: square"/>
   </g>
   <g id="line2d_14">
    <path d="M 239.315937 116.651328 
L 239.315937 57.604026 
" clip-path="url(#p8ba8743481)" style="fill: none; stroke: #000000; stroke-linecap: square"/>
   </g>
   <g id="line2d_15">
    <path d="M 235.547937 211.951937 
L 243.083937 211.951937 
" clip-path="url(#p8ba8743481)" style="fill: none; stroke: #000000; stroke-linecap: square"/>
   </g>
   <g id="line2d_16">
    <path d="M 235.547937 57.604026 
L 243.083937 57.604026 
" clip-path="url(#p8ba8743481)" style="fill: none; stroke: #000000; stroke-linecap: square"/>
   </g>
   <g id="patch_5">
    <path d="M 357.379937 177.652401 
L 372.451937 177.652401 
L 372.451937 141.23628 
L 357.379937 141.23628 
L 357.379937 177.652401 
L 357.379937 177.652401 
z
" clip-path="url(#p8ba8743481)" style="fill: none; stroke: #000000; stroke-linejoin: miter"/>
   </g>
   <g id="line2d_17">
    <path d="M 364.915937 177.652401 
L 364.915937 231.923819 
" clip-path="url(#p8ba8743481)" style="fill: none; stroke: #000000; stroke-linecap: square"/>
   </g>
   <g id="line2d_18">
    <path d="M 364.915937 141.23628 
L 364.915937 91.035219 
" clip-path="url(#p8ba8743481)" style="fill: none; stroke: #000000; stroke-linecap: square"/>
   </g>
   <g id="line2d_19">
    <path d="M 361.147938 231.923819 
L 368.683937 231.923819 
" clip-path="url(#p8ba8743481)" style="fill: none; stroke: #000000; stroke-linecap: square"/>
   </g>
   <g id="line2d_20">
    <path d="M 361.147938 91.035219 
L 368.683937 91.035219 
" clip-path="url(#p8ba8743481)" style="fill: none; stroke: #000000; stroke-linecap: square"/>
   </g>
   <g id="line2d_21">
    <path d="M 106.179937 151.602121 
L 121.251938 151.602121 
" clip-path="url(#p8ba8743481)" style="fill: none; stroke: #000000; stroke-width: 1.5; stroke-linecap: square"/>
   </g>
   <g id="line2d_22">
    <path d="M 231.779937 137.491552 
L 246.851938 137.491552 
" clip-path="url(#p8ba8743481)" style="fill: none; stroke: #000000; stroke-width: 1.5; stroke-linecap: square"/>
   </g>
   <g id="line2d_23">
    <path d="M 357.379937 157.354891 
L 372.451937 157.354891 
" clip-path="url(#p8ba8743481)" style="fill: none; stroke: #000000; stroke-width: 1.5; stroke-linecap: square"/>
   </g>
   <g id="patch_6">
    <path d="M 50.915938 259.048673 
L 50.915938 30.045 
" style="fill: none; stroke: #000000; stroke-linejoin: miter; stroke-linecap: square"/>
   </g>
   <g id="patch_7">
    <path d="M 427.715937 259.048673 
L 427.715937 30.045 
" style="fill: none; stroke: #000000; stroke-linejoin: miter; stroke-linecap: square"/>
   </g>
   <g id="patch_8">
    <path d="M 50.915938 259.048673 
L 427.715937 259.048673 
" style="fill: none; stroke: #000000; stroke-linejoin: miter; stroke-linecap: square"/>
   </g>
   <g id="patch_9">
    <path d="M 50.915938 30.045 
L 427.715937 30.045 
" style="fill: none; stroke: #000000; stroke-linejoin: miter; stroke-linecap: square"/>
   </g>
   <g id="text_10">
    <!-- Virtual Housing Prices by Property Type (thousand USD) -->
    <g transform="translate(42.925937 18.045) scale(0.16 -0.16)">
     <defs>
      <path id="TimesNewRomanPS-BoldMT-56" d="M 4556 4238 
L 4556 4122 
Q 4325 4084 4144 3875 
Q 4013 3719 3753 3141 
L 2294 -97 
L 2191 -97 
L 738 3272 
Q 475 3881 386 3987 
Q 297 4094 50 4122 
L 50 4238 
L 2081 4238 
L 2081 4122 
L 2013 4122 
Q 1738 4122 1638 4053 
Q 1566 4006 1566 3916 
Q 1566 3859 1591 3782 
Q 1616 3706 1759 3372 
L 2663 1263 
L 3500 3141 
Q 3650 3481 3684 3597 
Q 3719 3713 3719 3794 
Q 3719 3888 3669 3959 
Q 3619 4031 3522 4069 
Q 3388 4122 3166 4122 
L 3166 4238 
L 4556 4238 
z
" transform="scale(0.015625)"/>
      <path id="TimesNewRomanPS-BoldMT-69" d="M 919 4338 
Q 1122 4338 1262 4195 
Q 1403 4053 1403 3853 
Q 1403 3653 1261 3512 
Q 1119 3372 919 3372 
Q 719 3372 578 3512 
Q 438 3653 438 3853 
Q 438 4053 578 4195 
Q 719 4338 919 4338 
z
M 1356 2922 
L 1356 606 
Q 1356 297 1428 211 
Q 1500 125 1709 113 
L 1709 0 
L 131 0 
L 131 113 
Q 325 119 419 225 
Q 481 297 481 606 
L 481 2313 
Q 481 2622 409 2708 
Q 338 2794 131 2806 
L 131 2922 
L 1356 2922 
z
" transform="scale(0.015625)"/>
      <path id="TimesNewRomanPS-BoldMT-72" d="M 1428 2922 
L 1428 2259 
Q 1719 2713 1937 2861 
Q 2156 3009 2359 3009 
Q 2534 3009 2639 2901 
Q 2744 2794 2744 2597 
Q 2744 2388 2642 2272 
Q 2541 2156 2397 2156 
Q 2231 2156 2109 2262 
Q 1988 2369 1966 2381 
Q 1934 2400 1894 2400 
Q 1803 2400 1722 2331 
Q 1594 2225 1528 2028 
Q 1428 1725 1428 1359 
L 1428 688 
L 1431 513 
Q 1431 334 1453 284 
Q 1491 200 1564 161 
Q 1638 122 1813 113 
L 1813 0 
L 234 0 
L 234 113 
Q 425 128 492 217 
Q 559 306 559 688 
L 559 2303 
Q 559 2553 534 2622 
Q 503 2709 443 2750 
Q 384 2791 234 2806 
L 234 2922 
L 1428 2922 
z
" transform="scale(0.015625)"/>
      <path id="TimesNewRomanPS-BoldMT-74" d="M 1375 3991 
L 1375 2922 
L 2069 2922 
L 2069 2613 
L 1375 2613 
L 1375 809 
Q 1375 556 1398 482 
Q 1422 409 1481 364 
Q 1541 319 1591 319 
Q 1794 319 1975 628 
L 2069 559 
Q 1816 -41 1247 -41 
Q 969 -41 776 114 
Q 584 269 531 459 
Q 500 566 500 1034 
L 500 2613 
L 119 2613 
L 119 2722 
Q 513 3000 789 3306 
Q 1066 3613 1272 3991 
L 1375 3991 
z
" transform="scale(0.015625)"/>
      <path id="TimesNewRomanPS-BoldMT-75" d="M 3038 2922 
L 3038 634 
Q 3038 300 3100 217 
Q 3163 134 3353 113 
L 3353 0 
L 2163 0 
L 2163 391 
Q 1953 141 1743 26 
Q 1534 -88 1275 -88 
Q 1028 -88 836 64 
Q 644 216 578 419 
Q 513 622 513 1128 
L 513 2288 
Q 513 2619 452 2700 
Q 391 2781 197 2806 
L 197 2922 
L 1388 2922 
L 1388 925 
Q 1388 613 1417 522 
Q 1447 431 1511 384 
Q 1575 338 1659 338 
Q 1772 338 1863 397 
Q 1988 478 2163 725 
L 2163 2288 
Q 2163 2619 2102 2700 
Q 2041 2781 1847 2806 
L 1847 2922 
L 3038 2922 
z
" transform="scale(0.015625)"/>
      <path id="TimesNewRomanPS-BoldMT-61" d="M 1828 431 
Q 1294 -41 869 -41 
Q 619 -41 453 123 
Q 288 288 288 534 
Q 288 869 575 1136 
Q 863 1403 1828 1847 
L 1828 2141 
Q 1828 2472 1792 2558 
Q 1756 2644 1656 2708 
Q 1556 2772 1431 2772 
Q 1228 2772 1097 2681 
Q 1016 2625 1016 2550 
Q 1016 2484 1103 2388 
Q 1222 2253 1222 2128 
Q 1222 1975 1108 1867 
Q 994 1759 809 1759 
Q 613 1759 480 1878 
Q 347 1997 347 2156 
Q 347 2381 525 2586 
Q 703 2791 1022 2900 
Q 1341 3009 1684 3009 
Q 2100 3009 2342 2832 
Q 2584 2656 2656 2450 
Q 2700 2319 2700 1847 
L 2700 713 
Q 2700 513 2715 461 
Q 2731 409 2762 384 
Q 2794 359 2834 359 
Q 2916 359 3000 475 
L 3094 400 
Q 2938 169 2770 64 
Q 2603 -41 2391 -41 
Q 2141 -41 2000 76 
Q 1859 194 1828 431 
z
M 1828 659 
L 1828 1638 
Q 1450 1416 1266 1163 
Q 1144 994 1144 822 
Q 1144 678 1247 569 
Q 1325 484 1466 484 
Q 1622 484 1828 659 
z
" transform="scale(0.015625)"/>
      <path id="TimesNewRomanPS-BoldMT-6c" d="M 1359 4238 
L 1359 606 
Q 1359 297 1431 211 
Q 1503 125 1713 113 
L 1713 0 
L 134 0 
L 134 113 
Q 328 119 422 225 
Q 484 297 484 606 
L 484 3631 
Q 484 3938 412 4023 
Q 341 4109 134 4122 
L 134 4238 
L 1359 4238 
z
" transform="scale(0.015625)"/>
      <path id="TimesNewRomanPS-BoldMT-20" transform="scale(0.015625)"/>
      <path id="TimesNewRomanPS-BoldMT-48" d="M 1750 2038 
L 1750 725 
Q 1750 400 1786 319 
Q 1822 238 1926 177 
Q 2031 116 2209 116 
L 2350 116 
L 2350 0 
L 134 0 
L 134 116 
L 275 116 
Q 459 116 572 181 
Q 653 225 697 331 
Q 731 406 731 725 
L 731 3513 
Q 731 3838 697 3919 
Q 663 4000 558 4061 
Q 453 4122 275 4122 
L 134 4122 
L 134 4238 
L 2350 4238 
L 2350 4122 
L 2209 4122 
Q 2025 4122 1913 4056 
Q 1831 4013 1784 3906 
Q 1750 3831 1750 3513 
L 1750 2313 
L 3247 2313 
L 3247 3513 
Q 3247 3838 3212 3919 
Q 3178 4000 3072 4061 
Q 2966 4122 2788 4122 
L 2650 4122 
L 2650 4238 
L 4863 4238 
L 4863 4122 
L 4725 4122 
Q 4538 4122 4428 4056 
Q 4347 4013 4300 3906 
Q 4266 3831 4266 3513 
L 4266 725 
Q 4266 400 4300 319 
Q 4334 238 4440 177 
Q 4547 116 4725 116 
L 4863 116 
L 4863 0 
L 2650 0 
L 2650 116 
L 2788 116 
Q 2975 116 3084 181 
Q 3166 225 3213 331 
Q 3247 406 3247 725 
L 3247 2038 
L 1750 2038 
z
" transform="scale(0.015625)"/>
      <path id="TimesNewRomanPS-BoldMT-6f" d="M 1594 3009 
Q 1975 3009 2303 2812 
Q 2631 2616 2801 2253 
Q 2972 1891 2972 1459 
Q 2972 838 2656 419 
Q 2275 -88 1603 -88 
Q 944 -88 587 375 
Q 231 838 231 1447 
Q 231 2075 595 2542 
Q 959 3009 1594 3009 
z
M 1606 2788 
Q 1447 2788 1333 2667 
Q 1219 2547 1183 2192 
Q 1147 1838 1147 1206 
Q 1147 872 1191 581 
Q 1225 359 1337 243 
Q 1450 128 1594 128 
Q 1734 128 1828 206 
Q 1950 313 1991 503 
Q 2053 800 2053 1703 
Q 2053 2234 1993 2432 
Q 1934 2631 1819 2722 
Q 1738 2788 1606 2788 
z
" transform="scale(0.015625)"/>
      <path id="TimesNewRomanPS-BoldMT-73" d="M 2063 3003 
L 2109 2006 
L 2003 2006 
Q 1813 2450 1608 2612 
Q 1403 2775 1200 2775 
Q 1072 2775 981 2689 
Q 891 2603 891 2491 
Q 891 2406 953 2328 
Q 1053 2200 1512 1889 
Q 1972 1578 2117 1361 
Q 2263 1144 2263 875 
Q 2263 631 2141 397 
Q 2019 163 1797 37 
Q 1575 -88 1306 -88 
Q 1097 -88 747 44 
Q 653 78 619 78 
Q 516 78 447 -78 
L 344 -78 
L 294 972 
L 400 972 
Q 541 559 786 353 
Q 1031 147 1250 147 
Q 1400 147 1495 239 
Q 1591 331 1591 463 
Q 1591 613 1497 722 
Q 1403 831 1078 1053 
Q 600 1384 459 1559 
Q 253 1816 253 2125 
Q 253 2463 486 2736 
Q 719 3009 1159 3009 
Q 1397 3009 1619 2894 
Q 1703 2847 1756 2847 
Q 1813 2847 1847 2870 
Q 1881 2894 1956 3003 
L 2063 3003 
z
" transform="scale(0.015625)"/>
      <path id="TimesNewRomanPS-BoldMT-6e" d="M 1409 2922 
L 1409 2544 
Q 1634 2788 1840 2898 
Q 2047 3009 2284 3009 
Q 2569 3009 2756 2851 
Q 2944 2694 3006 2459 
Q 3056 2281 3056 1775 
L 3056 638 
Q 3056 300 3117 217 
Q 3178 134 3372 113 
L 3372 0 
L 1894 0 
L 1894 113 
Q 2059 134 2131 250 
Q 2181 328 2181 638 
L 2181 1938 
Q 2181 2297 2153 2390 
Q 2125 2484 2058 2536 
Q 1991 2588 1909 2588 
Q 1641 2588 1409 2203 
L 1409 638 
Q 1409 309 1470 221 
Q 1531 134 1697 113 
L 1697 0 
L 219 0 
L 219 113 
Q 403 131 481 231 
Q 534 300 534 638 
L 534 2288 
Q 534 2619 473 2700 
Q 413 2781 219 2806 
L 219 2922 
L 1409 2922 
z
" transform="scale(0.015625)"/>
      <path id="TimesNewRomanPS-BoldMT-67" d="M 2091 2888 
L 3075 2888 
L 3075 2544 
L 2516 2544 
Q 2669 2391 2728 2266 
Q 2803 2097 2803 1913 
Q 2803 1600 2629 1370 
Q 2456 1141 2157 1011 
Q 1859 881 1628 881 
Q 1609 881 1253 897 
Q 1113 897 1017 805 
Q 922 713 922 584 
Q 922 472 1008 400 
Q 1094 328 1288 328 
L 1828 334 
Q 2484 334 2731 191 
Q 3084 -9 3084 -425 
Q 3084 -691 2921 -908 
Q 2759 -1125 2494 -1228 
Q 2091 -1381 1566 -1381 
Q 1172 -1381 847 -1304 
Q 522 -1228 381 -1092 
Q 241 -956 241 -806 
Q 241 -663 348 -548 
Q 456 -434 750 -356 
Q 344 -156 344 200 
Q 344 416 509 619 
Q 675 822 1034 972 
Q 616 1125 428 1375 
Q 241 1625 241 1953 
Q 241 2381 591 2695 
Q 941 3009 1491 3009 
Q 1781 3009 2091 2888 
z
M 1550 2816 
Q 1369 2816 1244 2633 
Q 1119 2450 1119 1875 
Q 1119 1409 1242 1236 
Q 1366 1063 1534 1063 
Q 1722 1063 1847 1234 
Q 1972 1406 1972 1903 
Q 1972 2463 1831 2666 
Q 1731 2816 1550 2816 
z
M 1366 -431 
Q 1047 -431 944 -484 
Q 766 -581 766 -747 
Q 766 -906 950 -1036 
Q 1134 -1166 1644 -1166 
Q 2078 -1166 2326 -1050 
Q 2575 -934 2575 -725 
Q 2575 -647 2528 -594 
Q 2444 -500 2273 -465 
Q 2103 -431 1366 -431 
z
" transform="scale(0.015625)"/>
      <path id="TimesNewRomanPS-BoldMT-50" d="M 1728 1919 
L 1728 744 
Q 1728 400 1770 311 
Q 1813 222 1920 169 
Q 2028 116 2316 116 
L 2316 0 
L 163 0 
L 163 116 
Q 456 116 561 170 
Q 666 225 708 312 
Q 750 400 750 744 
L 750 3494 
Q 750 3838 708 3927 
Q 666 4016 559 4069 
Q 453 4122 163 4122 
L 163 4238 
L 2009 4238 
Q 2922 4238 3319 3913 
Q 3716 3588 3716 3100 
Q 3716 2688 3459 2394 
Q 3203 2100 2753 1994 
Q 2450 1919 1728 1919 
z
M 1728 3994 
L 1728 2163 
Q 1831 2156 1884 2156 
Q 2266 2156 2472 2382 
Q 2678 2609 2678 3084 
Q 2678 3556 2472 3775 
Q 2266 3994 1856 3994 
L 1728 3994 
z
" transform="scale(0.015625)"/>
      <path id="TimesNewRomanPS-BoldMT-63" d="M 2600 753 
L 2697 678 
Q 2491 291 2183 101 
Q 1875 -88 1528 -88 
Q 944 -88 594 353 
Q 244 794 244 1413 
Q 244 2009 563 2463 
Q 947 3009 1622 3009 
Q 2075 3009 2342 2781 
Q 2609 2553 2609 2272 
Q 2609 2094 2501 1987 
Q 2394 1881 2219 1881 
Q 2034 1881 1914 2003 
Q 1794 2125 1766 2438 
Q 1747 2634 1675 2713 
Q 1603 2791 1506 2791 
Q 1356 2791 1250 2631 
Q 1088 2391 1088 1894 
Q 1088 1481 1219 1104 
Q 1350 728 1578 544 
Q 1750 409 1984 409 
Q 2138 409 2275 481 
Q 2413 553 2600 753 
z
" transform="scale(0.015625)"/>
      <path id="TimesNewRomanPS-BoldMT-65" d="M 2691 1566 
L 1088 1566 
Q 1116 984 1397 647 
Q 1613 388 1916 388 
Q 2103 388 2256 492 
Q 2409 597 2584 869 
L 2691 800 
Q 2453 316 2165 114 
Q 1878 -88 1500 -88 
Q 850 -88 516 413 
Q 247 816 247 1413 
Q 247 2144 642 2576 
Q 1038 3009 1569 3009 
Q 2013 3009 2339 2645 
Q 2666 2281 2691 1566 
z
M 1922 1775 
Q 1922 2278 1867 2465 
Q 1813 2653 1697 2750 
Q 1631 2806 1522 2806 
Q 1359 2806 1256 2647 
Q 1072 2369 1072 1884 
L 1072 1775 
L 1922 1775 
z
" transform="scale(0.015625)"/>
      <path id="TimesNewRomanPS-BoldMT-62" d="M 1347 4238 
L 1347 2628 
Q 1716 3009 2153 3009 
Q 2453 3009 2718 2832 
Q 2984 2656 3134 2331 
Q 3284 2006 3284 1581 
Q 3284 1103 3093 712 
Q 2903 322 2584 117 
Q 2266 -88 1856 -88 
Q 1619 -88 1434 -12 
Q 1250 63 1072 231 
L 588 -84 
L 481 -84 
L 481 3631 
Q 481 3884 459 3944 
Q 428 4031 361 4073 
Q 294 4116 134 4122 
L 134 4238 
L 1347 4238 
z
M 1347 2350 
L 1347 1050 
Q 1347 653 1366 544 
Q 1397 359 1515 245 
Q 1634 131 1819 131 
Q 1978 131 2092 222 
Q 2206 313 2282 581 
Q 2359 850 2359 1550 
Q 2359 2222 2191 2472 
Q 2069 2653 1863 2653 
Q 1594 2653 1347 2350 
z
" transform="scale(0.015625)"/>
      <path id="TimesNewRomanPS-BoldMT-79" d="M 1556 -119 
L 613 2047 
Q 400 2538 298 2650 
Q 197 2763 53 2806 
L 53 2922 
L 1606 2922 
L 1606 2806 
Q 1453 2800 1390 2747 
Q 1328 2694 1328 2619 
Q 1328 2500 1484 2150 
L 1984 1006 
L 2325 1891 
Q 2509 2363 2509 2547 
Q 2509 2663 2432 2731 
Q 2356 2800 2163 2806 
L 2163 2922 
L 3141 2922 
L 3141 2806 
Q 2997 2791 2906 2695 
Q 2816 2600 2603 2047 
L 1769 -119 
Q 1453 -931 1300 -1119 
Q 1084 -1381 759 -1381 
Q 500 -1381 339 -1232 
Q 178 -1084 178 -875 
Q 178 -694 289 -575 
Q 400 -456 563 -456 
Q 719 -456 814 -556 
Q 909 -656 913 -866 
Q 916 -984 941 -1019 
Q 966 -1053 1013 -1053 
Q 1088 -1053 1172 -963 
Q 1297 -831 1466 -363 
L 1556 -119 
z
" transform="scale(0.015625)"/>
      <path id="TimesNewRomanPS-BoldMT-70" d="M 1347 297 
L 1347 -791 
Q 1347 -1016 1383 -1097 
Q 1419 -1178 1494 -1215 
Q 1569 -1253 1788 -1253 
L 1788 -1369 
L 122 -1369 
L 122 -1253 
Q 316 -1247 409 -1144 
Q 472 -1072 472 -772 
L 472 2313 
Q 472 2622 400 2708 
Q 328 2794 122 2806 
L 122 2922 
L 1347 2922 
L 1347 2538 
Q 1500 2763 1659 2863 
Q 1888 3009 2156 3009 
Q 2478 3009 2742 2806 
Q 3006 2603 3143 2245 
Q 3281 1888 3281 1475 
Q 3281 1031 3139 664 
Q 2997 297 2726 104 
Q 2456 -88 2125 -88 
Q 1884 -88 1675 19 
Q 1519 100 1347 297 
z
M 1347 613 
Q 1616 231 1922 231 
Q 2091 231 2200 409 
Q 2363 672 2363 1409 
Q 2363 2166 2184 2444 
Q 2066 2628 1866 2628 
Q 1550 2628 1347 2172 
L 1347 613 
z
" transform="scale(0.015625)"/>
      <path id="TimesNewRomanPS-BoldMT-54" d="M 4038 4238 
L 4038 3091 
L 3925 3091 
Q 3825 3488 3703 3661 
Q 3581 3834 3369 3938 
Q 3250 3994 2953 3994 
L 2638 3994 
L 2638 725 
Q 2638 400 2673 319 
Q 2709 238 2814 177 
Q 2919 116 3100 116 
L 3241 116 
L 3241 0 
L 1022 0 
L 1022 116 
L 1163 116 
Q 1347 116 1459 181 
Q 1541 225 1588 331 
Q 1622 406 1622 725 
L 1622 3994 
L 1316 3994 
Q 888 3994 694 3813 
Q 422 3559 350 3091 
L 231 3091 
L 231 4238 
L 4038 4238 
z
" transform="scale(0.015625)"/>
      <path id="TimesNewRomanPS-BoldMT-28" d="M 2056 4334 
L 2056 4191 
Q 1731 3978 1578 3775 
Q 1366 3494 1247 3053 
Q 1097 2506 1097 1525 
Q 1097 600 1233 87 
Q 1369 -425 1603 -741 
Q 1766 -959 2056 -1125 
L 2056 -1281 
Q 1303 -1028 779 -248 
Q 256 531 256 1544 
Q 256 2544 778 3314 
Q 1300 4084 2056 4334 
z
" transform="scale(0.015625)"/>
      <path id="TimesNewRomanPS-BoldMT-68" d="M 1409 4238 
L 1409 2547 
Q 1650 2800 1850 2904 
Q 2050 3009 2266 3009 
Q 2541 3009 2736 2853 
Q 2931 2697 2995 2486 
Q 3059 2275 3059 1775 
L 3059 634 
Q 3059 300 3121 217 
Q 3184 134 3375 113 
L 3375 0 
L 1894 0 
L 1894 113 
Q 2050 134 2128 238 
Q 2184 319 2184 634 
L 2184 1938 
Q 2184 2300 2156 2392 
Q 2128 2484 2061 2536 
Q 1994 2588 1909 2588 
Q 1784 2588 1665 2502 
Q 1547 2416 1409 2200 
L 1409 634 
Q 1409 322 1456 244 
Q 1516 138 1700 113 
L 1700 0 
L 219 0 
L 219 113 
Q 403 131 481 231 
Q 534 300 534 634 
L 534 3603 
Q 534 3934 473 4015 
Q 413 4097 219 4122 
L 219 4238 
L 1409 4238 
z
" transform="scale(0.015625)"/>
      <path id="TimesNewRomanPS-BoldMT-64" d="M 3056 4238 
L 3056 875 
Q 3056 534 3075 472 
Q 3100 369 3170 319 
Q 3241 269 3416 256 
L 3416 153 
L 2181 -88 
L 2181 375 
Q 1959 106 1786 9 
Q 1613 -88 1394 -88 
Q 834 -88 509 413 
Q 247 819 247 1409 
Q 247 1881 409 2254 
Q 572 2628 855 2818 
Q 1138 3009 1463 3009 
Q 1672 3009 1834 2928 
Q 1997 2847 2181 2644 
L 2181 3525 
Q 2181 3859 2153 3928 
Q 2116 4019 2041 4062 
Q 1966 4106 1759 4106 
L 1759 4238 
L 3056 4238 
z
M 2181 2256 
Q 1950 2700 1616 2700 
Q 1500 2700 1425 2638 
Q 1309 2541 1236 2297 
Q 1163 2053 1163 1550 
Q 1163 997 1244 731 
Q 1325 466 1466 347 
Q 1538 288 1663 288 
Q 1938 288 2181 719 
L 2181 2256 
z
" transform="scale(0.015625)"/>
      <path id="TimesNewRomanPS-BoldMT-55" d="M 150 4238 
L 2338 4238 
L 2338 4122 
L 2228 4122 
Q 1981 4122 1889 4070 
Q 1797 4019 1758 3928 
Q 1719 3838 1719 3475 
L 1719 1400 
Q 1719 831 1805 647 
Q 1891 463 2087 341 
Q 2284 219 2584 219 
Q 2928 219 3170 373 
Q 3413 528 3533 800 
Q 3653 1072 3653 1747 
L 3653 3475 
Q 3653 3759 3593 3881 
Q 3534 4003 3444 4050 
Q 3303 4122 3047 4122 
L 3047 4238 
L 4513 4238 
L 4513 4122 
L 4425 4122 
Q 4247 4122 4128 4050 
Q 4009 3978 3956 3834 
Q 3916 3734 3916 3475 
L 3916 1866 
Q 3916 1119 3817 787 
Q 3719 456 3337 178 
Q 2956 -100 2297 -100 
Q 1747 -100 1447 47 
Q 1038 247 869 559 
Q 700 872 700 1400 
L 700 3475 
Q 700 3841 659 3930 
Q 619 4019 519 4072 
Q 419 4125 150 4122 
L 150 4238 
z
" transform="scale(0.015625)"/>
      <path id="TimesNewRomanPS-BoldMT-53" d="M 3006 4334 
L 3041 2922 
L 2913 2922 
Q 2822 3453 2467 3776 
Q 2113 4100 1700 4100 
Q 1381 4100 1195 3929 
Q 1009 3759 1009 3538 
Q 1009 3397 1075 3288 
Q 1166 3141 1366 2997 
Q 1513 2894 2044 2631 
Q 2788 2266 3047 1941 
Q 3303 1616 3303 1197 
Q 3303 666 2889 283 
Q 2475 -100 1838 -100 
Q 1638 -100 1459 -59 
Q 1281 -19 1013 94 
Q 863 156 766 156 
Q 684 156 593 93 
Q 503 31 447 -97 
L 331 -97 
L 331 1503 
L 447 1503 
Q 584 828 976 473 
Q 1369 119 1822 119 
Q 2172 119 2380 309 
Q 2588 500 2588 753 
Q 2588 903 2508 1043 
Q 2428 1184 2265 1311 
Q 2103 1438 1691 1641 
Q 1113 1925 859 2125 
Q 606 2325 470 2572 
Q 334 2819 334 3116 
Q 334 3622 706 3978 
Q 1078 4334 1644 4334 
Q 1850 4334 2044 4284 
Q 2191 4247 2402 4145 
Q 2613 4044 2697 4044 
Q 2778 4044 2825 4094 
Q 2872 4144 2913 4334 
L 3006 4334 
z
" transform="scale(0.015625)"/>
      <path id="TimesNewRomanPS-BoldMT-44" d="M 84 0 
L 84 116 
L 225 116 
Q 409 116 507 173 
Q 606 231 653 331 
Q 681 397 681 725 
L 681 3513 
Q 681 3838 647 3919 
Q 613 4000 508 4061 
Q 403 4122 225 4122 
L 84 4122 
L 84 4238 
L 1981 4238 
Q 2741 4238 3203 4031 
Q 3769 3778 4061 3265 
Q 4353 2753 4353 2106 
Q 4353 1659 4209 1282 
Q 4066 906 3837 661 
Q 3609 416 3311 267 
Q 3013 119 2581 38 
Q 2391 0 1981 0 
L 84 0 
z
M 1700 3997 
L 1700 691 
Q 1700 428 1725 368 
Q 1750 309 1809 278 
Q 1894 231 2053 231 
Q 2575 231 2850 588 
Q 3225 1069 3225 2081 
Q 3225 2897 2969 3384 
Q 2766 3766 2447 3903 
Q 2222 4000 1700 3997 
z
" transform="scale(0.015625)"/>
      <path id="TimesNewRomanPS-BoldMT-29" d="M 78 -1281 
L 78 -1138 
Q 403 -922 556 -719 
Q 766 -438 888 0 
Q 1038 550 1038 1531 
Q 1038 2456 902 2967 
Q 766 3478 531 3794 
Q 369 4013 78 4178 
L 78 4334 
Q 831 4081 1354 3301 
Q 1878 2522 1878 1509 
Q 1878 513 1354 -257 
Q 831 -1028 78 -1281 
z
" transform="scale(0.015625)"/>
     </defs>
     <use xlink:href="#TimesNewRomanPS-BoldMT-56"/>
     <use xlink:href="#TimesNewRomanPS-BoldMT-69" x="68.466797"/>
     <use xlink:href="#TimesNewRomanPS-BoldMT-72" x="96.25"/>
     <use xlink:href="#TimesNewRomanPS-BoldMT-74" x="140.634766"/>
     <use xlink:href="#TimesNewRomanPS-BoldMT-75" x="173.935547"/>
     <use xlink:href="#TimesNewRomanPS-BoldMT-61" x="229.550781"/>
     <use xlink:href="#TimesNewRomanPS-BoldMT-6c" x="279.550781"/>
     <use xlink:href="#TimesNewRomanPS-BoldMT-20" x="307.333984"/>
     <use xlink:href="#TimesNewRomanPS-BoldMT-48" x="332.333984"/>
     <use xlink:href="#TimesNewRomanPS-BoldMT-6f" x="410.117188"/>
     <use xlink:href="#TimesNewRomanPS-BoldMT-75" x="460.117188"/>
     <use xlink:href="#TimesNewRomanPS-BoldMT-73" x="515.732422"/>
     <use xlink:href="#TimesNewRomanPS-BoldMT-69" x="554.648438"/>
     <use xlink:href="#TimesNewRomanPS-BoldMT-6e" x="582.431641"/>
     <use xlink:href="#TimesNewRomanPS-BoldMT-67" x="638.046875"/>
     <use xlink:href="#TimesNewRomanPS-BoldMT-20" x="688.046875"/>
     <use xlink:href="#TimesNewRomanPS-BoldMT-50" x="713.046875"/>
     <use xlink:href="#TimesNewRomanPS-BoldMT-72" x="774.130859"/>
     <use xlink:href="#TimesNewRomanPS-BoldMT-69" x="818.515625"/>
     <use xlink:href="#TimesNewRomanPS-BoldMT-63" x="846.298828"/>
     <use xlink:href="#TimesNewRomanPS-BoldMT-65" x="890.683594"/>
     <use xlink:href="#TimesNewRomanPS-BoldMT-73" x="935.068359"/>
     <use xlink:href="#TimesNewRomanPS-BoldMT-20" x="973.984375"/>
     <use xlink:href="#TimesNewRomanPS-BoldMT-62" x="998.984375"/>
     <use xlink:href="#TimesNewRomanPS-BoldMT-79" x="1054.599609"/>
     <use xlink:href="#TimesNewRomanPS-BoldMT-20" x="1104.599609"/>
     <use xlink:href="#TimesNewRomanPS-BoldMT-50" x="1129.599609"/>
     <use xlink:href="#TimesNewRomanPS-BoldMT-72" x="1190.683594"/>
     <use xlink:href="#TimesNewRomanPS-BoldMT-6f" x="1233.318359"/>
     <use xlink:href="#TimesNewRomanPS-BoldMT-70" x="1283.318359"/>
     <use xlink:href="#TimesNewRomanPS-BoldMT-65" x="1338.933594"/>
     <use xlink:href="#TimesNewRomanPS-BoldMT-72" x="1383.318359"/>
     <use xlink:href="#TimesNewRomanPS-BoldMT-74" x="1427.703125"/>
     <use xlink:href="#TimesNewRomanPS-BoldMT-79" x="1461.003906"/>
     <use xlink:href="#TimesNewRomanPS-BoldMT-20" x="1511.003906"/>
     <use xlink:href="#TimesNewRomanPS-BoldMT-54" x="1534.253906"/>
     <use xlink:href="#TimesNewRomanPS-BoldMT-79" x="1593.578125"/>
     <use xlink:href="#TimesNewRomanPS-BoldMT-70" x="1643.578125"/>
     <use xlink:href="#TimesNewRomanPS-BoldMT-65" x="1699.193359"/>
     <use xlink:href="#TimesNewRomanPS-BoldMT-20" x="1743.578125"/>
     <use xlink:href="#TimesNewRomanPS-BoldMT-28" x="1768.578125"/>
     <use xlink:href="#TimesNewRomanPS-BoldMT-74" x="1801.878906"/>
     <use xlink:href="#TimesNewRomanPS-BoldMT-68" x="1835.179688"/>
     <use xlink:href="#TimesNewRomanPS-BoldMT-6f" x="1890.794922"/>
     <use xlink:href="#TimesNewRomanPS-BoldMT-75" x="1940.794922"/>
     <use xlink:href="#TimesNewRomanPS-BoldMT-73" x="1996.410156"/>
     <use xlink:href="#TimesNewRomanPS-BoldMT-61" x="2035.326172"/>
     <use xlink:href="#TimesNewRomanPS-BoldMT-6e" x="2085.326172"/>
     <use xlink:href="#TimesNewRomanPS-BoldMT-64" x="2140.941406"/>
     <use xlink:href="#TimesNewRomanPS-BoldMT-20" x="2196.556641"/>
     <use xlink:href="#TimesNewRomanPS-BoldMT-55" x="2221.556641"/>
     <use xlink:href="#TimesNewRomanPS-BoldMT-53" x="2293.773438"/>
     <use xlink:href="#TimesNewRomanPS-BoldMT-44" x="2349.388672"/>
     <use xlink:href="#TimesNewRomanPS-BoldMT-29" x="2421.605469"/>
    </g>
   </g>
  </g>
 </g>
 <defs>
  <clipPath id="p8ba8743481">
   <rect x="50.915938" y="30.045" width="376.8" height="229.003673"/>
  </clipPath>
 </defs>
</svg>
