<?xml version="1.0" encoding="utf-8" standalone="no"?>
<!DOCTYPE svg PUBLIC "-//W3C//DTD SVG 1.1//EN"
  "http://www.w3.org/Graphics/SVG/1.1/DTD/svg11.dtd">
<svg xmlns:xlink="http://www.w3.org/1999/xlink" width="439.215937pt" height="319.904463pt" viewBox="0 0 439.215937 319.904463" xmlns="http://www.w3.org/2000/svg" version="1.1">
 <metadata>
  <rdf:RDF xmlns:dc="http://purl.org/dc/elements/1.1/" xmlns:cc="http://creativecommons.org/ns#" xmlns:rdf="http://www.w3.org/1999/02/22-rdf-syntax-ns#">
   <cc:Work>
    <dc:type rdf:resource="http://purl.org/dc/dcmitype/StillImage"/>
    <dc:date>2025-05-26T17:04:44.449024</dc:date>
    <dc:format>image/svg+xml</dc:format>
    <dc:creator>
     <cc:Agent>
      <dc:title>Matplotlib v3.7.2, https://matplotlib.org/</dc:title>
     </cc:Agent>
    </dc:creator>
   </cc:Work>
  </rdf:RDF>
 </metadata>
 <defs>
  <style type="text/css">*{stroke-linejoin: round; stroke-linecap: butt}</style>
 </defs>
 <g id="figure_1">
  <g id="patch_1">
   <path d="M 0 319.904463 
L 439.215937 319.904463 
L 439.215937 0 
L 0 0 
z
" style="fill: #ffffff"/>
  </g>
  <g id="axes_1">
   <g id="patch_2">
    <path d="M 45.915937 255.803053 
L 427.725937 255.803053 
L 427.725937 30.045 
L 45.915937 30.045 
z
" style="fill: #ffffff"/>
   </g>
   <g id="PolyCollection_1">
    <defs>
     <path id="m8a515f6cad" d="M 87.353733 -106.119993 
L 80.840142 -106.119993 
L 80.537354 -107.872294 
L 80.245337 -109.624594 
L 79.968617 -111.376894 
L 79.710654 -113.129195 
L 79.473537 -114.881495 
L 79.257784 -116.633796 
L 79.062247 -118.386096 
L 78.884152 -120.138396 
L 78.719263 -121.890697 
L 78.562174 -123.642997 
L 78.406685 -125.395298 
L 78.246239 -127.147598 
L 78.07438 -128.899898 
L 77.885164 -130.652199 
L 77.673517 -132.404499 
L 77.435458 -134.1568 
L 77.16821 -135.9091 
L 76.870151 -137.6614 
L 76.540641 -139.413701 
L 76.179738 -141.166001 
L 75.787842 -142.918302 
L 75.365323 -144.670602 
L 74.91218 -146.422902 
L 74.427783 -148.175203 
L 73.910747 -149.927503 
L 73.358944 -151.679804 
L 72.769685 -153.432104 
L 72.140024 -155.184404 
L 71.46718 -156.936705 
L 70.748996 -158.689005 
L 69.9844 -160.441306 
L 69.17378 -162.193606 
L 68.319252 -163.945906 
L 67.424755 -165.698207 
L 66.49598 -167.450507 
L 65.540137 -169.202808 
L 64.565596 -170.955108 
L 63.581444 -172.707408 
L 62.597042 -174.459709 
L 61.621625 -176.212009 
L 60.66402 -177.96431 
L 59.732502 -179.71661 
L 58.83483 -181.46891 
L 57.978424 -183.221211 
L 57.170675 -184.973511 
L 56.419298 -186.725812 
L 55.732688 -188.478112 
L 55.120167 -190.230412 
L 54.592071 -191.982713 
L 54.159625 -193.735013 
L 53.834559 -195.487314 
L 53.628495 -197.239614 
L 53.552138 -198.991914 
L 53.614345 -200.744215 
L 53.821182 -202.496515 
L 54.175072 -204.248816 
L 54.674153 -206.001116 
L 55.311944 -207.753416 
L 56.077358 -209.505717 
L 56.95512 -211.258017 
L 57.926532 -213.010318 
L 58.970528 -214.762618 
L 60.064918 -216.514918 
L 61.187687 -218.267219 
L 62.318217 -220.019519 
L 63.438314 -221.77182 
L 64.532939 -223.52412 
L 65.590596 -225.27642 
L 66.603368 -227.028721 
L 67.566626 -228.781021 
L 68.47849 -230.533322 
L 69.339144 -232.285622 
L 70.150088 -234.037922 
L 70.913458 -235.790223 
L 71.631473 -237.542523 
L 72.306069 -239.294824 
L 72.938742 -241.047124 
L 73.530591 -242.799424 
L 74.082499 -244.551725 
L 74.595426 -246.304025 
L 75.070716 -248.056326 
L 75.510372 -249.808626 
L 75.917241 -251.560926 
L 76.29507 -253.313227 
L 76.648435 -255.065527 
L 76.982536 -256.817828 
L 77.302901 -258.570128 
L 77.615026 -260.322428 
L 77.923999 -262.074729 
L 78.234164 -263.827029 
L 78.548837 -265.57933 
L 78.870126 -267.33163 
L 79.198853 -269.08393 
L 79.534575 -270.836231 
L 79.875709 -272.588531 
L 80.219725 -274.340832 
L 80.563392 -276.093132 
L 80.903047 -277.845432 
L 81.234866 -279.597733 
L 86.959009 -279.597733 
L 86.959009 -279.597733 
L 87.290828 -277.845432 
L 87.630483 -276.093132 
L 87.97415 -274.340832 
L 88.318166 -272.588531 
L 88.6593 -270.836231 
L 88.995022 -269.08393 
L 89.323749 -267.33163 
L 89.645038 -265.57933 
L 89.959711 -263.827029 
L 90.269876 -262.074729 
L 90.578849 -260.322428 
L 90.890974 -258.570128 
L 91.211339 -256.817828 
L 91.54544 -255.065527 
L 91.898805 -253.313227 
L 92.276634 -251.560926 
L 92.683503 -249.808626 
L 93.123159 -248.056326 
L 93.598449 -246.304025 
L 94.111376 -244.551725 
L 94.663284 -242.799424 
L 95.255133 -241.047124 
L 95.887806 -239.294824 
L 96.562402 -237.542523 
L 97.280417 -235.790223 
L 98.043787 -234.037922 
L 98.854731 -232.285622 
L 99.715385 -230.533322 
L 100.627249 -228.781021 
L 101.590507 -227.028721 
L 102.603279 -225.27642 
L 103.660936 -223.52412 
L 104.755561 -221.77182 
L 105.875658 -220.019519 
L 107.006188 -218.267219 
L 108.128957 -216.514918 
L 109.223347 -214.762618 
L 110.267343 -213.010318 
L 111.238755 -211.258017 
L 112.116517 -209.505717 
L 112.881931 -207.753416 
L 113.519722 -206.001116 
L 114.018803 -204.248816 
L 114.372693 -202.496515 
L 114.57953 -200.744215 
L 114.641738 -198.991914 
L 114.56538 -197.239614 
L 114.359316 -195.487314 
L 114.03425 -193.735013 
L 113.601804 -191.982713 
L 113.073708 -190.230412 
L 112.461187 -188.478112 
L 111.774577 -186.725812 
L 111.0232 -184.973511 
L 110.215451 -183.221211 
L 109.359045 -181.46891 
L 108.461373 -179.71661 
L 107.529855 -177.96431 
L 106.57225 -176.212009 
L 105.596833 -174.459709 
L 104.612431 -172.707408 
L 103.628279 -170.955108 
L 102.653738 -169.202808 
L 101.697895 -167.450507 
L 100.76912 -165.698207 
L 99.874623 -163.945906 
L 99.020095 -162.193606 
L 98.209475 -160.441306 
L 97.444879 -158.689005 
L 96.726695 -156.936705 
L 96.053851 -155.184404 
L 95.42419 -153.432104 
L 94.834931 -151.679804 
L 94.283128 -149.927503 
L 93.766092 -148.175203 
L 93.281695 -146.422902 
L 92.828552 -144.670602 
L 92.406033 -142.918302 
L 92.014137 -141.166001 
L 91.653234 -139.413701 
L 91.323724 -137.6614 
L 91.025665 -135.9091 
L 90.758417 -134.1568 
L 90.520358 -132.404499 
L 90.308711 -130.652199 
L 90.119495 -128.899898 
L 89.947636 -127.147598 
L 89.78719 -125.395298 
L 89.631701 -123.642997 
L 89.474612 -121.890697 
L 89.309723 -120.138396 
L 89.131628 -118.386096 
L 88.936091 -116.633796 
L 88.720338 -114.881495 
L 88.483221 -113.129195 
L 88.225258 -111.376894 
L 87.948538 -109.624594 
L 87.656521 -107.872294 
L 87.353733 -106.119993 
z
" style="stroke: #000000; stroke-opacity: 0.7"/>
    </defs>
    <g clip-path="url(#pff2d55f3a0)">
     <use xlink:href="#m8a515f6cad" x="0" y="319.904463" style="fill: #2ca02c; fill-opacity: 0.7; stroke: #000000; stroke-opacity: 0.7"/>
    </g>
   </g>
   <g id="PolyCollection_2">
    <defs>
     <path id="m8a8fa9b1d4" d="M 161.690365 -74.363139 
L 159.22751 -74.363139 
L 159.141618 -76.23992 
L 159.064115 -78.116701 
L 158.995358 -79.993481 
L 158.935021 -81.870262 
L 158.882106 -83.747043 
L 158.834994 -85.623824 
L 158.79152 -87.500604 
L 158.749071 -89.377385 
L 158.704679 -91.254166 
L 158.655108 -93.130947 
L 158.596938 -95.007727 
L 158.526617 -96.884508 
L 158.440512 -98.761289 
L 158.334944 -100.63807 
L 158.206221 -102.51485 
L 158.050676 -104.391631 
L 157.864704 -106.268412 
L 157.644817 -108.145193 
L 157.387707 -110.021974 
L 157.090317 -111.898754 
L 156.749926 -113.775535 
L 156.364245 -115.652316 
L 155.931529 -117.529097 
L 155.450688 -119.405877 
L 154.921412 -121.282658 
L 154.344286 -123.159439 
L 153.720866 -125.03622 
L 153.053715 -126.913 
L 152.346333 -128.789781 
L 151.602983 -130.666562 
L 150.828383 -132.543343 
L 150.027276 -134.420123 
L 149.203906 -136.296904 
L 148.36148 -138.173685 
L 147.501697 -140.050466 
L 146.624445 -141.927246 
L 145.727775 -143.804027 
L 144.80822 -145.680808 
L 143.861458 -147.557589 
L 142.883311 -149.434369 
L 141.870939 -151.31115 
L 140.824083 -153.187931 
L 139.746163 -155.064712 
L 138.645032 -156.941492 
L 137.533236 -158.818273 
L 136.427689 -160.695054 
L 135.348761 -162.571835 
L 134.318875 -164.448615 
L 133.360773 -166.325396 
L 132.495675 -168.202177 
L 131.741571 -170.078958 
L 131.111861 -171.955739 
L 130.614513 -173.832519 
L 130.251825 -175.7093 
L 130.020812 -177.586081 
L 129.914138 -179.462862 
L 129.921444 -181.339642 
L 130.030914 -183.216423 
L 130.230836 -185.093204 
L 130.510979 -186.969985 
L 130.863588 -188.846765 
L 131.283888 -190.723546 
L 131.77003 -192.600327 
L 132.322485 -194.477108 
L 132.942996 -196.353888 
L 133.63325 -198.230669 
L 134.39347 -200.10745 
L 135.221172 -201.984231 
L 136.110306 -203.861011 
L 137.050936 -205.737792 
L 138.029547 -207.614573 
L 139.029963 -209.491354 
L 140.034749 -211.368134 
L 141.026896 -213.244915 
L 141.991521 -215.121696 
L 142.917325 -216.998477 
L 143.797581 -218.875257 
L 144.630491 -220.752038 
L 145.418893 -222.628819 
L 146.169354 -224.5056 
L 146.890836 -226.38238 
L 147.593137 -228.259161 
L 148.285364 -230.135942 
L 148.97465 -232.012723 
L 149.665291 -233.889504 
L 150.358376 -235.766284 
L 151.051918 -237.643065 
L 151.7414 -239.519846 
L 152.420614 -241.396627 
L 153.082625 -243.273407 
L 153.720708 -245.150188 
L 154.329122 -247.026969 
L 154.903645 -248.90375 
L 155.441814 -250.78053 
L 155.942901 -252.657311 
L 156.407658 -254.534092 
L 156.83791 -256.410873 
L 157.236087 -258.287653 
L 157.604769 -260.164434 
L 163.313106 -260.164434 
L 163.313106 -260.164434 
L 163.681788 -258.287653 
L 164.079965 -256.410873 
L 164.510217 -254.534092 
L 164.974974 -252.657311 
L 165.476061 -250.78053 
L 166.01423 -248.90375 
L 166.588753 -247.026969 
L 167.197167 -245.150188 
L 167.83525 -243.273407 
L 168.497261 -241.396627 
L 169.176475 -239.519846 
L 169.865957 -237.643065 
L 170.559499 -235.766284 
L 171.252584 -233.889504 
L 171.943225 -232.012723 
L 172.632511 -230.135942 
L 173.324738 -228.259161 
L 174.027039 -226.38238 
L 174.748521 -224.5056 
L 175.498982 -222.628819 
L 176.287384 -220.752038 
L 177.120294 -218.875257 
L 178.00055 -216.998477 
L 178.926354 -215.121696 
L 179.890979 -213.244915 
L 180.883126 -211.368134 
L 181.887912 -209.491354 
L 182.888328 -207.614573 
L 183.866939 -205.737792 
L 184.807569 -203.861011 
L 185.696703 -201.984231 
L 186.524405 -200.10745 
L 187.284625 -198.230669 
L 187.974879 -196.353888 
L 188.59539 -194.477108 
L 189.147845 -192.600327 
L 189.633987 -190.723546 
L 190.054287 -188.846765 
L 190.406896 -186.969985 
L 190.687039 -185.093204 
L 190.886961 -183.216423 
L 190.996431 -181.339642 
L 191.003738 -179.462862 
L 190.897063 -177.586081 
L 190.66605 -175.7093 
L 190.303362 -173.832519 
L 189.806014 -171.955739 
L 189.176304 -170.078958 
L 188.4222 -168.202177 
L 187.557102 -166.325396 
L 186.599 -164.448615 
L 185.569114 -162.571835 
L 184.490186 -160.695054 
L 183.384639 -158.818273 
L 182.272843 -156.941492 
L 181.171712 -155.064712 
L 180.093792 -153.187931 
L 179.046936 -151.31115 
L 178.034564 -149.434369 
L 177.056417 -147.557589 
L 176.109655 -145.680808 
L 175.1901 -143.804027 
L 174.29343 -141.927246 
L 173.416178 -140.050466 
L 172.556395 -138.173685 
L 171.713969 -136.296904 
L 170.890599 -134.420123 
L 170.089492 -132.543343 
L 169.314892 -130.666562 
L 168.571542 -128.789781 
L 167.86416 -126.913 
L 167.197009 -125.03622 
L 166.573589 -123.159439 
L 165.996463 -121.282658 
L 165.467187 -119.405877 
L 164.986346 -117.529097 
L 164.55363 -115.652316 
L 164.167949 -113.775535 
L 163.827558 -111.898754 
L 163.530168 -110.021974 
L 163.273058 -108.145193 
L 163.053171 -106.268412 
L 162.867199 -104.391631 
L 162.711654 -102.51485 
L 162.582931 -100.63807 
L 162.477363 -98.761289 
L 162.391258 -96.884508 
L 162.320937 -95.007727 
L 162.262767 -93.130947 
L 162.213196 -91.254166 
L 162.168804 -89.377385 
L 162.126355 -87.500604 
L 162.082881 -85.623824 
L 162.035769 -83.747043 
L 161.982854 -81.870262 
L 161.922517 -79.993481 
L 161.85376 -78.116701 
L 161.776257 -76.23992 
L 161.690365 -74.363139 
z
" style="stroke: #000000; stroke-opacity: 0.7"/>
    </defs>
    <g clip-path="url(#pff2d55f3a0)">
     <use xlink:href="#m8a8fa9b1d4" x="0" y="319.904463" style="fill: #f7b6d2; fill-opacity: 0.7; stroke: #000000; stroke-opacity: 0.7"/>
    </g>
   </g>
   <g id="PolyCollection_3">
    <defs>
     <path id="m266fcc7432" d="M 238.318104 -109.437873 
L 235.323771 -109.437873 
L 235.337578 -110.950788 
L 235.381267 -112.463704 
L 235.451384 -113.976619 
L 235.542697 -115.489534 
L 235.648635 -117.002449 
L 235.761837 -118.515364 
L 235.874714 -120.028279 
L 235.979973 -121.541194 
L 236.07104 -123.054109 
L 236.142345 -124.567024 
L 236.189449 -126.079939 
L 236.209024 -127.592855 
L 236.198686 -129.10577 
L 236.156734 -130.618685 
L 236.081796 -132.1316 
L 235.972443 -133.644515 
L 235.826793 -135.15743 
L 235.642146 -136.670345 
L 235.414692 -138.18326 
L 235.139338 -139.696175 
L 234.809683 -141.20909 
L 234.418178 -142.722006 
L 233.956493 -144.234921 
L 233.416079 -145.747836 
L 232.788907 -147.260751 
L 232.068316 -148.773666 
L 231.249915 -150.286581 
L 230.332412 -151.799496 
L 229.318298 -153.312411 
L 228.214259 -154.825326 
L 227.031249 -156.338241 
L 225.784179 -157.851157 
L 224.491207 -159.364072 
L 223.172679 -160.876987 
L 221.849828 -162.389902 
L 220.543358 -163.902817 
L 219.272096 -165.415732 
L 218.051881 -166.928647 
L 216.894829 -168.441562 
L 215.809082 -169.954477 
L 214.799039 -171.467393 
L 213.866004 -172.980308 
L 213.009101 -174.493223 
L 212.226242 -176.006138 
L 211.514945 -177.519053 
L 210.872816 -179.031968 
L 210.297613 -180.544883 
L 209.786905 -182.057798 
L 209.337468 -183.570713 
L 208.944623 -185.083628 
L 208.601779 -186.596544 
L 208.300403 -188.109459 
L 208.030549 -189.622374 
L 207.781935 -191.135289 
L 207.545428 -192.648204 
L 207.31467 -194.161119 
L 207.087502 -195.674034 
L 206.866886 -197.186949 
L 206.661081 -198.699864 
L 206.482997 -200.212779 
L 206.348821 -201.725695 
L 206.276138 -203.23861 
L 206.281897 -204.751525 
L 206.38059 -206.26444 
L 206.582926 -207.777355 
L 206.895205 -209.29027 
L 207.319402 -210.803185 
L 207.853824 -212.3161 
L 208.494116 -213.829015 
L 209.234301 -215.34193 
L 210.067602 -216.854846 
L 210.986864 -218.367761 
L 211.984535 -219.880676 
L 213.052272 -221.393591 
L 214.180375 -222.906506 
L 215.357261 -224.419421 
L 216.569209 -225.932336 
L 217.800513 -227.445251 
L 219.0341 -228.958166 
L 220.252529 -230.471081 
L 221.439223 -231.983997 
L 222.579715 -233.496912 
L 223.662691 -235.009827 
L 224.680668 -236.522742 
L 225.630189 -238.035657 
L 226.511561 -239.548572 
L 227.328182 -241.061487 
L 228.085617 -242.574402 
L 228.790585 -244.087317 
L 229.449999 -245.600232 
L 230.070201 -247.113148 
L 230.656448 -248.626063 
L 231.212663 -250.138978 
L 231.741425 -251.651893 
L 232.244131 -253.164808 
L 232.721244 -254.677723 
L 233.172584 -256.190638 
L 233.59758 -257.703553 
L 233.995484 -259.216468 
L 239.646391 -259.216468 
L 239.646391 -259.216468 
L 240.044295 -257.703553 
L 240.469291 -256.190638 
L 240.920631 -254.677723 
L 241.397744 -253.164808 
L 241.90045 -251.651893 
L 242.429212 -250.138978 
L 242.985427 -248.626063 
L 243.571674 -247.113148 
L 244.191876 -245.600232 
L 244.85129 -244.087317 
L 245.556258 -242.574402 
L 246.313693 -241.061487 
L 247.130314 -239.548572 
L 248.011686 -238.035657 
L 248.961207 -236.522742 
L 249.979184 -235.009827 
L 251.06216 -233.496912 
L 252.202652 -231.983997 
L 253.389346 -230.471081 
L 254.607775 -228.958166 
L 255.841362 -227.445251 
L 257.072666 -225.932336 
L 258.284614 -224.419421 
L 259.4615 -222.906506 
L 260.589603 -221.393591 
L 261.65734 -219.880676 
L 262.655011 -218.367761 
L 263.574273 -216.854846 
L 264.407574 -215.34193 
L 265.147759 -213.829015 
L 265.788051 -212.3161 
L 266.322473 -210.803185 
L 266.74667 -209.29027 
L 267.058949 -207.777355 
L 267.261285 -206.26444 
L 267.359978 -204.751525 
L 267.365738 -203.23861 
L 267.293054 -201.725695 
L 267.158878 -200.212779 
L 266.980794 -198.699864 
L 266.774989 -197.186949 
L 266.554373 -195.674034 
L 266.327205 -194.161119 
L 266.096447 -192.648204 
L 265.85994 -191.135289 
L 265.611326 -189.622374 
L 265.341472 -188.109459 
L 265.040096 -186.596544 
L 264.697252 -185.083628 
L 264.304407 -183.570713 
L 263.85497 -182.057798 
L 263.344262 -180.544883 
L 262.769059 -179.031968 
L 262.12693 -177.519053 
L 261.415633 -176.006138 
L 260.632774 -174.493223 
L 259.775871 -172.980308 
L 258.842836 -171.467393 
L 257.832793 -169.954477 
L 256.747046 -168.441562 
L 255.589994 -166.928647 
L 254.369779 -165.415732 
L 253.098517 -163.902817 
L 251.792047 -162.389902 
L 250.469196 -160.876987 
L 249.150668 -159.364072 
L 247.857696 -157.851157 
L 246.610626 -156.338241 
L 245.427616 -154.825326 
L 244.323577 -153.312411 
L 243.309463 -151.799496 
L 242.39196 -150.286581 
L 241.573559 -148.773666 
L 240.852968 -147.260751 
L 240.225796 -145.747836 
L 239.685382 -144.234921 
L 239.223697 -142.722006 
L 238.832192 -141.20909 
L 238.502537 -139.696175 
L 238.227183 -138.18326 
L 237.999729 -136.670345 
L 237.815082 -135.15743 
L 237.669432 -133.644515 
L 237.560079 -132.1316 
L 237.485141 -130.618685 
L 237.443189 -129.10577 
L 237.432851 -127.592855 
L 237.452426 -126.079939 
L 237.49953 -124.567024 
L 237.570835 -123.054109 
L 237.661902 -121.541194 
L 237.767161 -120.028279 
L 237.880038 -118.515364 
L 237.99324 -117.002449 
L 238.099178 -115.489534 
L 238.190491 -113.976619 
L 238.260608 -112.463704 
L 238.304297 -110.950788 
L 238.318104 -109.437873 
z
" style="stroke: #000000; stroke-opacity: 0.7"/>
    </defs>
    <g clip-path="url(#pff2d55f3a0)">
     <use xlink:href="#m266fcc7432" x="0" y="319.904463" style="fill: #a6d854; fill-opacity: 0.7; stroke: #000000; stroke-opacity: 0.7"/>
    </g>
   </g>
   <g id="PolyCollection_4">
    <defs>
     <path id="ma6b0e59d32" d="M 314.325954 -86.686694 
L 312.039921 -86.686694 
L 311.906976 -88.190034 
L 311.757454 -89.693374 
L 311.588057 -91.196713 
L 311.395331 -92.700053 
L 311.175848 -94.203393 
L 310.926406 -95.706733 
L 310.644229 -97.210072 
L 310.327167 -98.713412 
L 309.973878 -100.216752 
L 309.583996 -101.720091 
L 309.158274 -103.223431 
L 308.698707 -104.726771 
L 308.208619 -106.23011 
L 307.692699 -107.73345 
L 307.156984 -109.23679 
L 306.608746 -110.740129 
L 306.056276 -112.243469 
L 305.508532 -113.746809 
L 304.974653 -115.250148 
L 304.463327 -116.753488 
L 303.982047 -118.256828 
L 303.536298 -119.760168 
L 303.128734 -121.263507 
L 302.758436 -122.766847 
L 302.420332 -124.270187 
L 302.104892 -125.773526 
L 301.798149 -127.276866 
L 301.482127 -128.780206 
L 301.135693 -130.283545 
L 300.735803 -131.786885 
L 300.259096 -133.290225 
L 299.683734 -134.793564 
L 298.991332 -136.296904 
L 298.168836 -137.800244 
L 297.210168 -139.303583 
L 296.117473 -140.806923 
L 294.90183 -142.310263 
L 293.583324 -143.813603 
L 292.190432 -145.316942 
L 290.758742 -146.820282 
L 289.329064 -148.323622 
L 287.94509 -149.826961 
L 286.650765 -151.330301 
L 285.487596 -152.833641 
L 284.492109 -154.33698 
L 283.693685 -155.84032 
L 283.112937 -157.34366 
L 282.760762 -158.846999 
L 282.638138 -160.350339 
L 282.736636 -161.853679 
L 283.039605 -163.357019 
L 283.523853 -164.860358 
L 284.161675 -166.363698 
L 284.923008 -167.867038 
L 285.777518 -169.370377 
L 286.696428 -170.873717 
L 287.653954 -172.377057 
L 288.628253 -173.880396 
L 289.601866 -175.383736 
L 290.561665 -176.887076 
L 291.498405 -178.390415 
L 292.405987 -179.893755 
L 293.280564 -181.397095 
L 294.119637 -182.900434 
L 294.921257 -184.403774 
L 295.683434 -185.907114 
L 296.403799 -187.410454 
L 297.079551 -188.913793 
L 297.70765 -190.417133 
L 298.285216 -191.920473 
L 298.810043 -193.423812 
L 299.281148 -194.927152 
L 299.699251 -196.430492 
L 300.067128 -197.933831 
L 300.389759 -199.437171 
L 300.674249 -200.940511 
L 300.929525 -202.44385 
L 301.16583 -203.94719 
L 301.394072 -205.45053 
L 301.625097 -206.953869 
L 301.868961 -208.457209 
L 302.134287 -209.960549 
L 302.427756 -211.463889 
L 302.753787 -212.967228 
L 303.11443 -214.470568 
L 303.509447 -215.973908 
L 303.936579 -217.477247 
L 304.391935 -218.980587 
L 304.870448 -220.483927 
L 305.366357 -221.987266 
L 305.873641 -223.490606 
L 306.38639 -224.993946 
L 306.899067 -226.497285 
L 307.406676 -228.000625 
L 307.904828 -229.503965 
L 308.389738 -231.007305 
L 308.858164 -232.510644 
L 309.307332 -234.013984 
L 309.734858 -235.517324 
L 316.631017 -235.517324 
L 316.631017 -235.517324 
L 317.058543 -234.013984 
L 317.507711 -232.510644 
L 317.976137 -231.007305 
L 318.461047 -229.503965 
L 318.959199 -228.000625 
L 319.466808 -226.497285 
L 319.979485 -224.993946 
L 320.492234 -223.490606 
L 320.999518 -221.987266 
L 321.495427 -220.483927 
L 321.97394 -218.980587 
L 322.429296 -217.477247 
L 322.856428 -215.973908 
L 323.251445 -214.470568 
L 323.612088 -212.967228 
L 323.938119 -211.463889 
L 324.231588 -209.960549 
L 324.496914 -208.457209 
L 324.740778 -206.953869 
L 324.971803 -205.45053 
L 325.200045 -203.94719 
L 325.43635 -202.44385 
L 325.691626 -200.940511 
L 325.976116 -199.437171 
L 326.298747 -197.933831 
L 326.666624 -196.430492 
L 327.084727 -194.927152 
L 327.555832 -193.423812 
L 328.080659 -191.920473 
L 328.658225 -190.417133 
L 329.286324 -188.913793 
L 329.962076 -187.410454 
L 330.682441 -185.907114 
L 331.444618 -184.403774 
L 332.246238 -182.900434 
L 333.085311 -181.397095 
L 333.959888 -179.893755 
L 334.86747 -178.390415 
L 335.80421 -176.887076 
L 336.764009 -175.383736 
L 337.737622 -173.880396 
L 338.711921 -172.377057 
L 339.669447 -170.873717 
L 340.588357 -169.370377 
L 341.442867 -167.867038 
L 342.2042 -166.363698 
L 342.842022 -164.860358 
L 343.32627 -163.357019 
L 343.629239 -161.853679 
L 343.727738 -160.350339 
L 343.605113 -158.846999 
L 343.252938 -157.34366 
L 342.67219 -155.84032 
L 341.873766 -154.33698 
L 340.878279 -152.833641 
L 339.71511 -151.330301 
L 338.420785 -149.826961 
L 337.036811 -148.323622 
L 335.607133 -146.820282 
L 334.175443 -145.316942 
L 332.782551 -143.813603 
L 331.464045 -142.310263 
L 330.248402 -140.806923 
L 329.155707 -139.303583 
L 328.197039 -137.800244 
L 327.374543 -136.296904 
L 326.682141 -134.793564 
L 326.106779 -133.290225 
L 325.630072 -131.786885 
L 325.230182 -130.283545 
L 324.883748 -128.780206 
L 324.567726 -127.276866 
L 324.260983 -125.773526 
L 323.945543 -124.270187 
L 323.607439 -122.766847 
L 323.237141 -121.263507 
L 322.829577 -119.760168 
L 322.383828 -118.256828 
L 321.902548 -116.753488 
L 321.391222 -115.250148 
L 320.857343 -113.746809 
L 320.309599 -112.243469 
L 319.757129 -110.740129 
L 319.208891 -109.23679 
L 318.673176 -107.73345 
L 318.157256 -106.23011 
L 317.667168 -104.726771 
L 317.207601 -103.223431 
L 316.781879 -101.720091 
L 316.391997 -100.216752 
L 316.038708 -98.713412 
L 315.721646 -97.210072 
L 315.439469 -95.706733 
L 315.190027 -94.203393 
L 314.970544 -92.700053 
L 314.777818 -91.196713 
L 314.608421 -89.693374 
L 314.458899 -88.190034 
L 314.325954 -86.686694 
z
" style="stroke: #000000; stroke-opacity: 0.7"/>
    </defs>
    <g clip-path="url(#pff2d55f3a0)">
     <use xlink:href="#ma6b0e59d32" x="0" y="319.904463" style="fill: #e377c2; fill-opacity: 0.7; stroke: #000000; stroke-opacity: 0.7"/>
    </g>
   </g>
   <g id="PolyCollection_5">
    <defs>
     <path id="mb37ba5aaad" d="M 390.610404 -114.651685 
L 388.479471 -114.651685 
L 388.432562 -116.241204 
L 388.401969 -117.830722 
L 388.388138 -119.42024 
L 388.39023 -121.009759 
L 388.406021 -122.599277 
L 388.431889 -124.188796 
L 388.46288 -125.778314 
L 388.492887 -127.367832 
L 388.514903 -128.957351 
L 388.521374 -130.546869 
L 388.504627 -132.136388 
L 388.457358 -133.725906 
L 388.373156 -135.315424 
L 388.247037 -136.904943 
L 388.07593 -138.494461 
L 387.859075 -140.08398 
L 387.598265 -141.673498 
L 387.297888 -143.263016 
L 386.964724 -144.852535 
L 386.607463 -146.442053 
L 386.235984 -148.031572 
L 385.860411 -149.62109 
L 385.490056 -151.210608 
L 385.132335 -152.800127 
L 384.791812 -154.389645 
L 384.469468 -155.979164 
L 384.162317 -157.568682 
L 383.863414 -159.1582 
L 383.562283 -160.747719 
L 383.2457 -162.337237 
L 382.89876 -163.926756 
L 382.506086 -165.516274 
L 382.053042 -167.105792 
L 381.526817 -168.695311 
L 380.917282 -170.284829 
L 380.217542 -171.874348 
L 379.424171 -173.463866 
L 378.537175 -175.053384 
L 377.559732 -176.642903 
L 376.497804 -178.232421 
L 375.359717 -179.821939 
L 374.155782 -181.411458 
L 372.898 -183.000976 
L 371.599884 -184.590495 
L 370.276372 -186.180013 
L 368.943792 -187.769531 
L 367.619819 -189.35905 
L 366.323373 -190.948568 
L 365.07438 -192.538087 
L 363.89338 -194.127605 
L 362.80095 -195.717123 
L 361.816962 -197.306642 
L 360.959731 -198.89616 
L 360.245104 -200.485679 
L 359.6856 -202.075197 
L 359.289707 -203.664715 
L 359.061422 -205.254234 
L 359.000137 -206.843752 
L 359.100897 -208.433271 
L 359.355034 -210.022789 
L 359.751115 -211.612307 
L 360.27608 -213.201826 
L 360.916427 -214.791344 
L 361.65926 -216.380863 
L 362.493055 -217.970381 
L 363.408028 -219.559899 
L 364.396051 -221.149418 
L 365.450152 -222.738936 
L 366.563698 -224.328455 
L 367.729416 -225.917973 
L 368.938439 -227.507491 
L 370.179567 -229.09701 
L 371.438865 -230.686528 
L 372.699717 -232.276047 
L 373.943321 -233.865565 
L 375.149586 -235.455083 
L 376.298326 -237.044602 
L 377.370589 -238.63412 
L 378.349989 -240.223639 
L 379.223879 -241.813157 
L 379.984262 -243.402675 
L 380.628351 -244.992194 
L 381.15875 -246.581712 
L 381.583248 -248.171231 
L 381.914247 -249.760749 
L 382.167889 -251.350267 
L 382.36294 -252.939786 
L 382.519526 -254.529304 
L 382.657802 -256.118823 
L 382.796667 -257.708341 
L 382.952613 -259.297859 
L 383.138799 -260.887378 
L 383.364415 -262.476896 
L 383.634384 -264.066415 
L 383.949406 -265.655933 
L 384.306323 -267.245451 
L 384.698741 -268.83497 
L 385.117843 -270.424488 
L 385.553292 -272.014007 
L 393.536583 -272.014007 
L 393.536583 -272.014007 
L 393.972032 -270.424488 
L 394.391134 -268.83497 
L 394.783552 -267.245451 
L 395.140469 -265.655933 
L 395.455491 -264.066415 
L 395.72546 -262.476896 
L 395.951076 -260.887378 
L 396.137262 -259.297859 
L 396.293208 -257.708341 
L 396.432073 -256.118823 
L 396.570349 -254.529304 
L 396.726935 -252.939786 
L 396.921986 -251.350267 
L 397.175628 -249.760749 
L 397.506627 -248.171231 
L 397.931125 -246.581712 
L 398.461524 -244.992194 
L 399.105613 -243.402675 
L 399.865996 -241.813157 
L 400.739886 -240.223639 
L 401.719286 -238.63412 
L 402.791549 -237.044602 
L 403.940289 -235.455083 
L 405.146554 -233.865565 
L 406.390158 -232.276047 
L 407.65101 -230.686528 
L 408.910308 -229.09701 
L 410.151436 -227.507491 
L 411.360459 -225.917973 
L 412.526177 -224.328455 
L 413.639723 -222.738936 
L 414.693824 -221.149418 
L 415.681847 -219.559899 
L 416.59682 -217.970381 
L 417.430615 -216.380863 
L 418.173448 -214.791344 
L 418.813795 -213.201826 
L 419.33876 -211.612307 
L 419.734841 -210.022789 
L 419.988978 -208.433271 
L 420.089738 -206.843752 
L 420.028453 -205.254234 
L 419.800168 -203.664715 
L 419.404275 -202.075197 
L 418.844771 -200.485679 
L 418.130144 -198.89616 
L 417.272913 -197.306642 
L 416.288925 -195.717123 
L 415.196495 -194.127605 
L 414.015495 -192.538087 
L 412.766502 -190.948568 
L 411.470056 -189.35905 
L 410.146083 -187.769531 
L 408.813503 -186.180013 
L 407.489991 -184.590495 
L 406.191875 -183.000976 
L 404.934093 -181.411458 
L 403.730158 -179.821939 
L 402.592071 -178.232421 
L 401.530143 -176.642903 
L 400.5527 -175.053384 
L 399.665704 -173.463866 
L 398.872333 -171.874348 
L 398.172593 -170.284829 
L 397.563058 -168.695311 
L 397.036833 -167.105792 
L 396.583789 -165.516274 
L 396.191115 -163.926756 
L 395.844175 -162.337237 
L 395.527592 -160.747719 
L 395.226461 -159.1582 
L 394.927558 -157.568682 
L 394.620407 -155.979164 
L 394.298063 -154.389645 
L 393.95754 -152.800127 
L 393.599819 -151.210608 
L 393.229464 -149.62109 
L 392.853891 -148.031572 
L 392.482412 -146.442053 
L 392.125151 -144.852535 
L 391.791987 -143.263016 
L 391.49161 -141.673498 
L 391.2308 -140.08398 
L 391.013945 -138.494461 
L 390.842838 -136.904943 
L 390.716719 -135.315424 
L 390.632517 -133.725906 
L 390.585248 -132.136388 
L 390.568501 -130.546869 
L 390.574972 -128.957351 
L 390.596988 -127.367832 
L 390.626995 -125.778314 
L 390.657986 -124.188796 
L 390.683854 -122.599277 
L 390.699645 -121.009759 
L 390.701737 -119.42024 
L 390.687906 -117.830722 
L 390.657313 -116.241204 
L 390.610404 -114.651685 
z
" style="stroke: #000000; stroke-opacity: 0.7"/>
    </defs>
    <g clip-path="url(#pff2d55f3a0)">
     <use xlink:href="#mb37ba5aaad" x="0" y="319.904463" style="fill: #c5b0d5; fill-opacity: 0.7; stroke: #000000; stroke-opacity: 0.7"/>
    </g>
   </g>
   <g id="matplotlib.axis_1">
    <g id="xtick_1">
     <g id="line2d_1">
      <defs>
       <path id="m0518a70fa7" d="M 0 0 
L 0 3.5 
" style="stroke: #000000; stroke-width: 0.8"/>
      </defs>
      <g>
       <use xlink:href="#m0518a70fa7" x="84.096937" y="255.803053" style="stroke: #000000; stroke-width: 0.8"/>
      </g>
     </g>
     <g id="text_1">
      <!-- Jewelry -->
      <g transform="translate(55.876748 295.084245) rotate(-45) scale(0.12 -0.12)">
       <defs>
        <path id="TimesNewRomanPSMT-4a" d="M 638 4122 
L 638 4238 
L 2453 4238 
L 2453 4122 
L 2300 4122 
Q 2041 4122 1922 3969 
Q 1847 3869 1847 3488 
L 1847 1416 
Q 1847 938 1742 641 
Q 1638 344 1381 123 
Q 1125 -97 763 -97 
Q 469 -97 300 48 
Q 131 194 131 381 
Q 131 534 209 613 
Q 313 709 450 709 
Q 550 709 629 643 
Q 709 578 831 294 
Q 903 125 1016 125 
Q 1100 125 1173 228 
Q 1247 331 1247 594 
L 1247 3488 
Q 1247 3809 1206 3913 
Q 1175 3991 1075 4047 
Q 941 4122 791 4122 
L 638 4122 
z
" transform="scale(0.015625)"/>
        <path id="TimesNewRomanPSMT-65" d="M 681 1784 
Q 678 1147 991 784 
Q 1303 422 1725 422 
Q 2006 422 2214 576 
Q 2422 731 2563 1106 
L 2659 1044 
Q 2594 616 2278 264 
Q 1963 -88 1488 -88 
Q 972 -88 605 314 
Q 238 716 238 1394 
Q 238 2128 614 2539 
Q 991 2950 1559 2950 
Q 2041 2950 2350 2633 
Q 2659 2316 2659 1784 
L 681 1784 
z
M 681 1966 
L 2006 1966 
Q 1991 2241 1941 2353 
Q 1863 2528 1708 2628 
Q 1553 2728 1384 2728 
Q 1125 2728 920 2526 
Q 716 2325 681 1966 
z
" transform="scale(0.015625)"/>
        <path id="TimesNewRomanPSMT-77" d="M 41 2863 
L 1241 2863 
L 1241 2747 
Q 1075 2734 1023 2687 
Q 972 2641 972 2553 
Q 972 2456 1025 2319 
L 1638 672 
L 2253 2013 
L 2091 2434 
Q 2016 2622 1894 2694 
Q 1825 2738 1638 2747 
L 1638 2863 
L 3000 2863 
L 3000 2747 
Q 2775 2738 2681 2666 
Q 2619 2616 2619 2506 
Q 2619 2444 2644 2378 
L 3294 734 
L 3897 2319 
Q 3959 2488 3959 2588 
Q 3959 2647 3898 2694 
Q 3838 2741 3659 2747 
L 3659 2863 
L 4563 2863 
L 4563 2747 
Q 4291 2706 4163 2378 
L 3206 -88 
L 3078 -88 
L 2363 1741 
L 1528 -88 
L 1413 -88 
L 494 2319 
Q 403 2547 315 2626 
Q 228 2706 41 2747 
L 41 2863 
z
" transform="scale(0.015625)"/>
        <path id="TimesNewRomanPSMT-6c" d="M 1184 4444 
L 1184 647 
Q 1184 378 1223 290 
Q 1263 203 1344 158 
Q 1425 113 1647 113 
L 1647 0 
L 244 0 
L 244 113 
Q 441 113 512 153 
Q 584 194 625 287 
Q 666 381 666 647 
L 666 3247 
Q 666 3731 644 3842 
Q 622 3953 573 3993 
Q 525 4034 450 4034 
Q 369 4034 244 3984 
L 191 4094 
L 1044 4444 
L 1184 4444 
z
" transform="scale(0.015625)"/>
        <path id="TimesNewRomanPSMT-72" d="M 1038 2947 
L 1038 2303 
Q 1397 2947 1775 2947 
Q 1947 2947 2059 2842 
Q 2172 2738 2172 2600 
Q 2172 2478 2090 2393 
Q 2009 2309 1897 2309 
Q 1788 2309 1652 2417 
Q 1516 2525 1450 2525 
Q 1394 2525 1328 2463 
Q 1188 2334 1038 2041 
L 1038 669 
Q 1038 431 1097 309 
Q 1138 225 1241 169 
Q 1344 113 1538 113 
L 1538 0 
L 72 0 
L 72 113 
Q 291 113 397 181 
Q 475 231 506 341 
Q 522 394 522 644 
L 522 1753 
Q 522 2253 501 2348 
Q 481 2444 426 2487 
Q 372 2531 291 2531 
Q 194 2531 72 2484 
L 41 2597 
L 906 2947 
L 1038 2947 
z
" transform="scale(0.015625)"/>
        <path id="TimesNewRomanPSMT-79" d="M 38 2863 
L 1372 2863 
L 1372 2747 
L 1306 2747 
Q 1166 2747 1095 2686 
Q 1025 2625 1025 2534 
Q 1025 2413 1128 2197 
L 1825 753 
L 2466 2334 
Q 2519 2463 2519 2588 
Q 2519 2644 2497 2672 
Q 2472 2706 2419 2726 
Q 2366 2747 2231 2747 
L 2231 2863 
L 3163 2863 
L 3163 2747 
Q 3047 2734 2984 2696 
Q 2922 2659 2847 2556 
Q 2819 2513 2741 2316 
L 1575 -541 
Q 1406 -956 1132 -1168 
Q 859 -1381 606 -1381 
Q 422 -1381 303 -1275 
Q 184 -1169 184 -1031 
Q 184 -900 270 -820 
Q 356 -741 506 -741 
Q 609 -741 788 -809 
Q 913 -856 944 -856 
Q 1038 -856 1148 -759 
Q 1259 -663 1372 -384 
L 1575 113 
L 547 2272 
Q 500 2369 397 2513 
Q 319 2622 269 2659 
Q 197 2709 38 2747 
L 38 2863 
z
" transform="scale(0.015625)"/>
       </defs>
       <use xlink:href="#TimesNewRomanPSMT-4a"/>
       <use xlink:href="#TimesNewRomanPSMT-65" x="38.916016"/>
       <use xlink:href="#TimesNewRomanPSMT-77" x="83.300781"/>
       <use xlink:href="#TimesNewRomanPSMT-65" x="155.517578"/>
       <use xlink:href="#TimesNewRomanPSMT-6c" x="199.902344"/>
       <use xlink:href="#TimesNewRomanPSMT-72" x="227.685547"/>
       <use xlink:href="#TimesNewRomanPSMT-79" x="260.986328"/>
      </g>
     </g>
    </g>
    <g id="xtick_2">
     <g id="line2d_2">
      <g>
       <use xlink:href="#m0518a70fa7" x="160.458938" y="255.803053" style="stroke: #000000; stroke-width: 0.8"/>
      </g>
     </g>
     <g id="text_2">
      <!-- Art -->
      <g transform="translate(147.333268 280.005635) rotate(-45) scale(0.12 -0.12)">
       <defs>
        <path id="TimesNewRomanPSMT-41" d="M 2928 1419 
L 1288 1419 
L 1000 750 
Q 894 503 894 381 
Q 894 284 986 211 
Q 1078 138 1384 116 
L 1384 0 
L 50 0 
L 50 116 
Q 316 163 394 238 
Q 553 388 747 847 
L 2238 4334 
L 2347 4334 
L 3822 809 
Q 4000 384 4145 257 
Q 4291 131 4550 116 
L 4550 0 
L 2878 0 
L 2878 116 
Q 3131 128 3220 200 
Q 3309 272 3309 375 
Q 3309 513 3184 809 
L 2928 1419 
z
M 2841 1650 
L 2122 3363 
L 1384 1650 
L 2841 1650 
z
" transform="scale(0.015625)"/>
        <path id="TimesNewRomanPSMT-74" d="M 1031 3803 
L 1031 2863 
L 1700 2863 
L 1700 2644 
L 1031 2644 
L 1031 788 
Q 1031 509 1111 412 
Q 1191 316 1316 316 
Q 1419 316 1516 380 
Q 1613 444 1666 569 
L 1788 569 
Q 1678 263 1478 108 
Q 1278 -47 1066 -47 
Q 922 -47 784 33 
Q 647 113 581 261 
Q 516 409 516 719 
L 516 2644 
L 63 2644 
L 63 2747 
Q 234 2816 414 2980 
Q 594 3144 734 3369 
Q 806 3488 934 3803 
L 1031 3803 
z
" transform="scale(0.015625)"/>
       </defs>
       <use xlink:href="#TimesNewRomanPSMT-41"/>
       <use xlink:href="#TimesNewRomanPSMT-72" x="72.216797"/>
       <use xlink:href="#TimesNewRomanPSMT-74" x="105.517578"/>
      </g>
     </g>
    </g>
    <g id="xtick_3">
     <g id="line2d_3">
      <g>
       <use xlink:href="#m0518a70fa7" x="236.820938" y="255.803053" style="stroke: #000000; stroke-width: 0.8"/>
      </g>
     </g>
     <g id="text_3">
      <!-- Tools -->
      <g transform="translate(216.271972 287.428931) rotate(-45) scale(0.12 -0.12)">
       <defs>
        <path id="TimesNewRomanPSMT-54" d="M 3703 4238 
L 3750 3244 
L 3631 3244 
Q 3597 3506 3538 3619 
Q 3441 3800 3280 3886 
Q 3119 3972 2856 3972 
L 2259 3972 
L 2259 734 
Q 2259 344 2344 247 
Q 2463 116 2709 116 
L 2856 116 
L 2856 0 
L 1059 0 
L 1059 116 
L 1209 116 
Q 1478 116 1591 278 
Q 1659 378 1659 734 
L 1659 3972 
L 1150 3972 
Q 853 3972 728 3928 
Q 566 3869 450 3700 
Q 334 3531 313 3244 
L 194 3244 
L 244 4238 
L 3703 4238 
z
" transform="scale(0.015625)"/>
        <path id="TimesNewRomanPSMT-6f" d="M 1600 2947 
Q 2250 2947 2644 2453 
Q 2978 2031 2978 1484 
Q 2978 1100 2793 706 
Q 2609 313 2286 112 
Q 1963 -88 1566 -88 
Q 919 -88 538 428 
Q 216 863 216 1403 
Q 216 1797 411 2186 
Q 606 2575 925 2761 
Q 1244 2947 1600 2947 
z
M 1503 2744 
Q 1338 2744 1170 2645 
Q 1003 2547 900 2300 
Q 797 2053 797 1666 
Q 797 1041 1045 587 
Q 1294 134 1700 134 
Q 2003 134 2200 384 
Q 2397 634 2397 1244 
Q 2397 2006 2069 2444 
Q 1847 2744 1503 2744 
z
" transform="scale(0.015625)"/>
        <path id="TimesNewRomanPSMT-73" d="M 2050 2947 
L 2050 1972 
L 1947 1972 
Q 1828 2431 1642 2597 
Q 1456 2763 1169 2763 
Q 950 2763 815 2647 
Q 681 2531 681 2391 
Q 681 2216 781 2091 
Q 878 1963 1175 1819 
L 1631 1597 
Q 2266 1288 2266 781 
Q 2266 391 1970 151 
Q 1675 -88 1309 -88 
Q 1047 -88 709 6 
Q 606 38 541 38 
Q 469 38 428 -44 
L 325 -44 
L 325 978 
L 428 978 
Q 516 541 762 319 
Q 1009 97 1316 97 
Q 1531 97 1667 223 
Q 1803 350 1803 528 
Q 1803 744 1651 891 
Q 1500 1038 1047 1263 
Q 594 1488 453 1669 
Q 313 1847 313 2119 
Q 313 2472 555 2709 
Q 797 2947 1181 2947 
Q 1350 2947 1591 2875 
Q 1750 2828 1803 2828 
Q 1853 2828 1881 2850 
Q 1909 2872 1947 2947 
L 2050 2947 
z
" transform="scale(0.015625)"/>
       </defs>
       <use xlink:href="#TimesNewRomanPSMT-54"/>
       <use xlink:href="#TimesNewRomanPSMT-6f" x="54.083984"/>
       <use xlink:href="#TimesNewRomanPSMT-6f" x="104.083984"/>
       <use xlink:href="#TimesNewRomanPSMT-6c" x="154.083984"/>
       <use xlink:href="#TimesNewRomanPSMT-73" x="181.867188"/>
      </g>
     </g>
    </g>
    <g id="xtick_4">
     <g id="line2d_4">
      <g>
       <use xlink:href="#m0518a70fa7" x="313.182938" y="255.803053" style="stroke: #000000; stroke-width: 0.8"/>
      </g>
     </g>
     <g id="text_4">
      <!-- Movies -->
      <g transform="translate(285.910713 294.15219) rotate(-45) scale(0.12 -0.12)">
       <defs>
        <path id="TimesNewRomanPSMT-4d" d="M 2619 0 
L 981 3566 
L 981 734 
Q 981 344 1066 247 
Q 1181 116 1431 116 
L 1581 116 
L 1581 0 
L 106 0 
L 106 116 
L 256 116 
Q 525 116 638 278 
Q 706 378 706 734 
L 706 3503 
Q 706 3784 644 3909 
Q 600 4000 483 4061 
Q 366 4122 106 4122 
L 106 4238 
L 1306 4238 
L 2844 922 
L 4356 4238 
L 5556 4238 
L 5556 4122 
L 5409 4122 
Q 5138 4122 5025 3959 
Q 4956 3859 4956 3503 
L 4956 734 
Q 4956 344 5044 247 
Q 5159 116 5409 116 
L 5556 116 
L 5556 0 
L 3756 0 
L 3756 116 
L 3906 116 
Q 4178 116 4288 278 
Q 4356 378 4356 734 
L 4356 3566 
L 2722 0 
L 2619 0 
z
" transform="scale(0.015625)"/>
        <path id="TimesNewRomanPSMT-76" d="M 53 2863 
L 1400 2863 
L 1400 2747 
L 1313 2747 
Q 1191 2747 1127 2687 
Q 1063 2628 1063 2528 
Q 1063 2419 1128 2269 
L 1794 688 
L 2463 2328 
Q 2534 2503 2534 2594 
Q 2534 2638 2509 2666 
Q 2475 2713 2422 2730 
Q 2369 2747 2206 2747 
L 2206 2863 
L 3141 2863 
L 3141 2747 
Q 2978 2734 2916 2681 
Q 2806 2588 2719 2369 
L 1703 -88 
L 1575 -88 
L 553 2328 
Q 484 2497 421 2570 
Q 359 2644 263 2694 
Q 209 2722 53 2747 
L 53 2863 
z
" transform="scale(0.015625)"/>
        <path id="TimesNewRomanPSMT-69" d="M 928 4444 
Q 1059 4444 1151 4351 
Q 1244 4259 1244 4128 
Q 1244 3997 1151 3903 
Q 1059 3809 928 3809 
Q 797 3809 703 3903 
Q 609 3997 609 4128 
Q 609 4259 701 4351 
Q 794 4444 928 4444 
z
M 1188 2947 
L 1188 647 
Q 1188 378 1227 289 
Q 1266 200 1342 156 
Q 1419 113 1622 113 
L 1622 0 
L 231 0 
L 231 113 
Q 441 113 512 153 
Q 584 194 626 287 
Q 669 381 669 647 
L 669 1750 
Q 669 2216 641 2353 
Q 619 2453 572 2492 
Q 525 2531 444 2531 
Q 356 2531 231 2484 
L 188 2597 
L 1050 2947 
L 1188 2947 
z
" transform="scale(0.015625)"/>
       </defs>
       <use xlink:href="#TimesNewRomanPSMT-4d"/>
       <use xlink:href="#TimesNewRomanPSMT-6f" x="88.916016"/>
       <use xlink:href="#TimesNewRomanPSMT-76" x="138.916016"/>
       <use xlink:href="#TimesNewRomanPSMT-69" x="188.916016"/>
       <use xlink:href="#TimesNewRomanPSMT-65" x="216.699219"/>
       <use xlink:href="#TimesNewRomanPSMT-73" x="261.083984"/>
      </g>
     </g>
    </g>
    <g id="xtick_5">
     <g id="line2d_5">
      <g>
       <use xlink:href="#m0518a70fa7" x="389.544938" y="255.803053" style="stroke: #000000; stroke-width: 0.8"/>
      </g>
     </g>
     <g id="text_5">
      <!-- Pet Supplies -->
      <g transform="translate(345.535495 310.889408) rotate(-45) scale(0.12 -0.12)">
       <defs>
        <path id="TimesNewRomanPSMT-50" d="M 1313 1984 
L 1313 750 
Q 1313 350 1400 253 
Q 1519 116 1759 116 
L 1922 116 
L 1922 0 
L 106 0 
L 106 116 
L 266 116 
Q 534 116 650 291 
Q 713 388 713 750 
L 713 3488 
Q 713 3888 628 3984 
Q 506 4122 266 4122 
L 106 4122 
L 106 4238 
L 1659 4238 
Q 2228 4238 2556 4120 
Q 2884 4003 3109 3725 
Q 3334 3447 3334 3066 
Q 3334 2547 2992 2222 
Q 2650 1897 2025 1897 
Q 1872 1897 1694 1919 
Q 1516 1941 1313 1984 
z
M 1313 2163 
Q 1478 2131 1606 2115 
Q 1734 2100 1825 2100 
Q 2150 2100 2386 2351 
Q 2622 2603 2622 3003 
Q 2622 3278 2509 3514 
Q 2397 3750 2190 3867 
Q 1984 3984 1722 3984 
Q 1563 3984 1313 3925 
L 1313 2163 
z
" transform="scale(0.015625)"/>
        <path id="TimesNewRomanPSMT-20" transform="scale(0.015625)"/>
        <path id="TimesNewRomanPSMT-53" d="M 2934 4334 
L 2934 2869 
L 2819 2869 
Q 2763 3291 2617 3541 
Q 2472 3791 2203 3937 
Q 1934 4084 1647 4084 
Q 1322 4084 1109 3886 
Q 897 3688 897 3434 
Q 897 3241 1031 3081 
Q 1225 2847 1953 2456 
Q 2547 2138 2764 1967 
Q 2981 1797 3098 1565 
Q 3216 1334 3216 1081 
Q 3216 600 2842 251 
Q 2469 -97 1881 -97 
Q 1697 -97 1534 -69 
Q 1438 -53 1133 45 
Q 828 144 747 144 
Q 669 144 623 97 
Q 578 50 556 -97 
L 441 -97 
L 441 1356 
L 556 1356 
Q 638 900 775 673 
Q 913 447 1195 297 
Q 1478 147 1816 147 
Q 2206 147 2432 353 
Q 2659 559 2659 841 
Q 2659 997 2573 1156 
Q 2488 1316 2306 1453 
Q 2184 1547 1640 1851 
Q 1097 2156 867 2337 
Q 638 2519 519 2737 
Q 400 2956 400 3219 
Q 400 3675 750 4004 
Q 1100 4334 1641 4334 
Q 1978 4334 2356 4169 
Q 2531 4091 2603 4091 
Q 2684 4091 2736 4139 
Q 2788 4188 2819 4334 
L 2934 4334 
z
" transform="scale(0.015625)"/>
        <path id="TimesNewRomanPSMT-75" d="M 2709 2863 
L 2709 1128 
Q 2709 631 2732 520 
Q 2756 409 2807 365 
Q 2859 322 2928 322 
Q 3025 322 3147 375 
L 3191 266 
L 2334 -88 
L 2194 -88 
L 2194 519 
Q 1825 119 1631 15 
Q 1438 -88 1222 -88 
Q 981 -88 804 51 
Q 628 191 559 409 
Q 491 628 491 1028 
L 491 2306 
Q 491 2509 447 2587 
Q 403 2666 317 2708 
Q 231 2750 6 2747 
L 6 2863 
L 1009 2863 
L 1009 947 
Q 1009 547 1148 422 
Q 1288 297 1484 297 
Q 1619 297 1789 381 
Q 1959 466 2194 703 
L 2194 2325 
Q 2194 2569 2105 2655 
Q 2016 2741 1734 2747 
L 1734 2863 
L 2709 2863 
z
" transform="scale(0.015625)"/>
        <path id="TimesNewRomanPSMT-70" d="M -6 2578 
L 875 2934 
L 994 2934 
L 994 2266 
Q 1216 2644 1439 2795 
Q 1663 2947 1909 2947 
Q 2341 2947 2628 2609 
Q 2981 2197 2981 1534 
Q 2981 794 2556 309 
Q 2206 -88 1675 -88 
Q 1444 -88 1275 -22 
Q 1150 25 994 166 
L 994 -706 
Q 994 -1000 1030 -1079 
Q 1066 -1159 1155 -1206 
Q 1244 -1253 1478 -1253 
L 1478 -1369 
L -22 -1369 
L -22 -1253 
L 56 -1253 
Q 228 -1256 350 -1188 
Q 409 -1153 442 -1076 
Q 475 -1000 475 -688 
L 475 2019 
Q 475 2297 450 2372 
Q 425 2447 370 2484 
Q 316 2522 222 2522 
Q 147 2522 31 2478 
L -6 2578 
z
M 994 2081 
L 994 1013 
Q 994 666 1022 556 
Q 1066 375 1236 237 
Q 1406 100 1666 100 
Q 1978 100 2172 344 
Q 2425 663 2425 1241 
Q 2425 1897 2138 2250 
Q 1938 2494 1663 2494 
Q 1513 2494 1366 2419 
Q 1253 2363 994 2081 
z
" transform="scale(0.015625)"/>
       </defs>
       <use xlink:href="#TimesNewRomanPSMT-50"/>
       <use xlink:href="#TimesNewRomanPSMT-65" x="55.615234"/>
       <use xlink:href="#TimesNewRomanPSMT-74" x="100"/>
       <use xlink:href="#TimesNewRomanPSMT-20" x="127.783203"/>
       <use xlink:href="#TimesNewRomanPSMT-53" x="152.783203"/>
       <use xlink:href="#TimesNewRomanPSMT-75" x="208.398438"/>
       <use xlink:href="#TimesNewRomanPSMT-70" x="258.398438"/>
       <use xlink:href="#TimesNewRomanPSMT-70" x="308.398438"/>
       <use xlink:href="#TimesNewRomanPSMT-6c" x="358.398438"/>
       <use xlink:href="#TimesNewRomanPSMT-69" x="386.181641"/>
       <use xlink:href="#TimesNewRomanPSMT-65" x="413.964844"/>
       <use xlink:href="#TimesNewRomanPSMT-73" x="458.349609"/>
      </g>
     </g>
    </g>
   </g>
   <g id="matplotlib.axis_2">
    <g id="ytick_1">
     <g id="line2d_6">
      <defs>
       <path id="medc3ea5561" d="M 0 0 
L -3.5 0 
" style="stroke: #000000; stroke-width: 0.8"/>
      </defs>
      <g>
       <use xlink:href="#medc3ea5561" x="45.915937" y="208.570658" style="stroke: #000000; stroke-width: 0.8"/>
      </g>
     </g>
     <g id="text_6">
      <!-- 100 -->
      <g transform="translate(23.915937 212.042533) scale(0.1 -0.1)">
       <defs>
        <path id="TimesNewRomanPSMT-31" d="M 750 3822 
L 1781 4325 
L 1884 4325 
L 1884 747 
Q 1884 391 1914 303 
Q 1944 216 2037 169 
Q 2131 122 2419 116 
L 2419 0 
L 825 0 
L 825 116 
Q 1125 122 1212 167 
Q 1300 213 1334 289 
Q 1369 366 1369 747 
L 1369 3034 
Q 1369 3497 1338 3628 
Q 1316 3728 1258 3775 
Q 1200 3822 1119 3822 
Q 1003 3822 797 3725 
L 750 3822 
z
" transform="scale(0.015625)"/>
        <path id="TimesNewRomanPSMT-30" d="M 231 2094 
Q 231 2819 450 3342 
Q 669 3866 1031 4122 
Q 1313 4325 1613 4325 
Q 2100 4325 2488 3828 
Q 2972 3213 2972 2159 
Q 2972 1422 2759 906 
Q 2547 391 2217 158 
Q 1888 -75 1581 -75 
Q 975 -75 572 641 
Q 231 1244 231 2094 
z
M 844 2016 
Q 844 1141 1059 588 
Q 1238 122 1591 122 
Q 1759 122 1940 273 
Q 2122 425 2216 781 
Q 2359 1319 2359 2297 
Q 2359 3022 2209 3506 
Q 2097 3866 1919 4016 
Q 1791 4119 1609 4119 
Q 1397 4119 1231 3928 
Q 1006 3669 925 3112 
Q 844 2556 844 2016 
z
" transform="scale(0.015625)"/>
       </defs>
       <use xlink:href="#TimesNewRomanPSMT-31"/>
       <use xlink:href="#TimesNewRomanPSMT-30" x="50"/>
       <use xlink:href="#TimesNewRomanPSMT-30" x="100"/>
      </g>
     </g>
    </g>
    <g id="ytick_2">
     <g id="line2d_7">
      <g>
       <use xlink:href="#medc3ea5561" x="45.915937" y="161.172368" style="stroke: #000000; stroke-width: 0.8"/>
      </g>
     </g>
     <g id="text_7">
      <!-- 200 -->
      <g transform="translate(23.915937 164.644243) scale(0.1 -0.1)">
       <defs>
        <path id="TimesNewRomanPSMT-32" d="M 2934 816 
L 2638 0 
L 138 0 
L 138 116 
Q 1241 1122 1691 1759 
Q 2141 2397 2141 2925 
Q 2141 3328 1894 3587 
Q 1647 3847 1303 3847 
Q 991 3847 742 3664 
Q 494 3481 375 3128 
L 259 3128 
Q 338 3706 661 4015 
Q 984 4325 1469 4325 
Q 1984 4325 2329 3994 
Q 2675 3663 2675 3213 
Q 2675 2891 2525 2569 
Q 2294 2063 1775 1497 
Q 997 647 803 472 
L 1909 472 
Q 2247 472 2383 497 
Q 2519 522 2628 598 
Q 2738 675 2819 816 
L 2934 816 
z
" transform="scale(0.015625)"/>
       </defs>
       <use xlink:href="#TimesNewRomanPSMT-32"/>
       <use xlink:href="#TimesNewRomanPSMT-30" x="50"/>
       <use xlink:href="#TimesNewRomanPSMT-30" x="100"/>
      </g>
     </g>
    </g>
    <g id="ytick_3">
     <g id="line2d_8">
      <g>
       <use xlink:href="#medc3ea5561" x="45.915937" y="113.774078" style="stroke: #000000; stroke-width: 0.8"/>
      </g>
     </g>
     <g id="text_8">
      <!-- 300 -->
      <g transform="translate(23.915937 117.245953) scale(0.1 -0.1)">
       <defs>
        <path id="TimesNewRomanPSMT-33" d="M 325 3431 
Q 506 3859 782 4092 
Q 1059 4325 1472 4325 
Q 1981 4325 2253 3994 
Q 2459 3747 2459 3466 
Q 2459 3003 1878 2509 
Q 2269 2356 2469 2072 
Q 2669 1788 2669 1403 
Q 2669 853 2319 450 
Q 1863 -75 997 -75 
Q 569 -75 414 31 
Q 259 138 259 259 
Q 259 350 332 419 
Q 406 488 509 488 
Q 588 488 669 463 
Q 722 447 909 348 
Q 1097 250 1169 231 
Q 1284 197 1416 197 
Q 1734 197 1970 444 
Q 2206 691 2206 1028 
Q 2206 1275 2097 1509 
Q 2016 1684 1919 1775 
Q 1784 1900 1550 2001 
Q 1316 2103 1072 2103 
L 972 2103 
L 972 2197 
Q 1219 2228 1467 2375 
Q 1716 2522 1828 2728 
Q 1941 2934 1941 3181 
Q 1941 3503 1739 3701 
Q 1538 3900 1238 3900 
Q 753 3900 428 3381 
L 325 3431 
z
" transform="scale(0.015625)"/>
       </defs>
       <use xlink:href="#TimesNewRomanPSMT-33"/>
       <use xlink:href="#TimesNewRomanPSMT-30" x="50"/>
       <use xlink:href="#TimesNewRomanPSMT-30" x="100"/>
      </g>
     </g>
    </g>
    <g id="ytick_4">
     <g id="line2d_9">
      <g>
       <use xlink:href="#medc3ea5561" x="45.915937" y="66.375789" style="stroke: #000000; stroke-width: 0.8"/>
      </g>
     </g>
     <g id="text_9">
      <!-- 400 -->
      <g transform="translate(23.915937 69.847664) scale(0.1 -0.1)">
       <defs>
        <path id="TimesNewRomanPSMT-34" d="M 2978 1563 
L 2978 1119 
L 2409 1119 
L 2409 0 
L 1894 0 
L 1894 1119 
L 100 1119 
L 100 1519 
L 2066 4325 
L 2409 4325 
L 2409 1563 
L 2978 1563 
z
M 1894 1563 
L 1894 3666 
L 406 1563 
L 1894 1563 
z
" transform="scale(0.015625)"/>
       </defs>
       <use xlink:href="#TimesNewRomanPSMT-34"/>
       <use xlink:href="#TimesNewRomanPSMT-30" x="50"/>
       <use xlink:href="#TimesNewRomanPSMT-30" x="100"/>
      </g>
     </g>
    </g>
    <g id="text_10">
     <!-- thousand USD -->
     <g transform="translate(16.92125 183.95387) rotate(-90) scale(0.14 -0.14)">
      <defs>
       <path id="TimesNewRomanPSMT-68" d="M 1041 4444 
L 1041 2350 
Q 1388 2731 1591 2839 
Q 1794 2947 1997 2947 
Q 2241 2947 2416 2812 
Q 2591 2678 2675 2391 
Q 2734 2191 2734 1659 
L 2734 647 
Q 2734 375 2778 275 
Q 2809 200 2884 156 
Q 2959 113 3159 113 
L 3159 0 
L 1753 0 
L 1753 113 
L 1819 113 
Q 2019 113 2097 173 
Q 2175 234 2206 353 
Q 2216 403 2216 647 
L 2216 1659 
Q 2216 2128 2167 2275 
Q 2119 2422 2012 2495 
Q 1906 2569 1756 2569 
Q 1603 2569 1437 2487 
Q 1272 2406 1041 2159 
L 1041 647 
Q 1041 353 1073 281 
Q 1106 209 1195 161 
Q 1284 113 1503 113 
L 1503 0 
L 84 0 
L 84 113 
Q 275 113 384 172 
Q 447 203 484 290 
Q 522 378 522 647 
L 522 3238 
Q 522 3728 498 3840 
Q 475 3953 426 3993 
Q 378 4034 297 4034 
Q 231 4034 84 3984 
L 41 4094 
L 897 4444 
L 1041 4444 
z
" transform="scale(0.015625)"/>
       <path id="TimesNewRomanPSMT-61" d="M 1822 413 
Q 1381 72 1269 19 
Q 1100 -59 909 -59 
Q 613 -59 420 144 
Q 228 347 228 678 
Q 228 888 322 1041 
Q 450 1253 767 1440 
Q 1084 1628 1822 1897 
L 1822 2009 
Q 1822 2438 1686 2597 
Q 1550 2756 1291 2756 
Q 1094 2756 978 2650 
Q 859 2544 859 2406 
L 866 2225 
Q 866 2081 792 2003 
Q 719 1925 600 1925 
Q 484 1925 411 2006 
Q 338 2088 338 2228 
Q 338 2497 613 2722 
Q 888 2947 1384 2947 
Q 1766 2947 2009 2819 
Q 2194 2722 2281 2516 
Q 2338 2381 2338 1966 
L 2338 994 
Q 2338 584 2353 492 
Q 2369 400 2405 369 
Q 2441 338 2488 338 
Q 2538 338 2575 359 
Q 2641 400 2828 588 
L 2828 413 
Q 2478 -56 2159 -56 
Q 2006 -56 1915 50 
Q 1825 156 1822 413 
z
M 1822 616 
L 1822 1706 
Q 1350 1519 1213 1441 
Q 966 1303 859 1153 
Q 753 1003 753 825 
Q 753 600 887 451 
Q 1022 303 1197 303 
Q 1434 303 1822 616 
z
" transform="scale(0.015625)"/>
       <path id="TimesNewRomanPSMT-6e" d="M 1034 2341 
Q 1538 2947 1994 2947 
Q 2228 2947 2397 2830 
Q 2566 2713 2666 2444 
Q 2734 2256 2734 1869 
L 2734 647 
Q 2734 375 2778 278 
Q 2813 200 2889 156 
Q 2966 113 3172 113 
L 3172 0 
L 1756 0 
L 1756 113 
L 1816 113 
Q 2016 113 2095 173 
Q 2175 234 2206 353 
Q 2219 400 2219 647 
L 2219 1819 
Q 2219 2209 2117 2386 
Q 2016 2563 1775 2563 
Q 1403 2563 1034 2156 
L 1034 647 
Q 1034 356 1069 288 
Q 1113 197 1189 155 
Q 1266 113 1500 113 
L 1500 0 
L 84 0 
L 84 113 
L 147 113 
Q 366 113 442 223 
Q 519 334 519 647 
L 519 1709 
Q 519 2225 495 2337 
Q 472 2450 423 2490 
Q 375 2531 294 2531 
Q 206 2531 84 2484 
L 38 2597 
L 900 2947 
L 1034 2947 
L 1034 2341 
z
" transform="scale(0.015625)"/>
       <path id="TimesNewRomanPSMT-64" d="M 2222 322 
Q 2013 103 1813 7 
Q 1613 -88 1381 -88 
Q 913 -88 563 304 
Q 213 697 213 1313 
Q 213 1928 600 2439 
Q 988 2950 1597 2950 
Q 1975 2950 2222 2709 
L 2222 3238 
Q 2222 3728 2198 3840 
Q 2175 3953 2125 3993 
Q 2075 4034 2000 4034 
Q 1919 4034 1784 3984 
L 1744 4094 
L 2597 4444 
L 2738 4444 
L 2738 1134 
Q 2738 631 2761 520 
Q 2784 409 2836 365 
Q 2888 322 2956 322 
Q 3041 322 3181 375 
L 3216 266 
L 2366 -88 
L 2222 -88 
L 2222 322 
z
M 2222 541 
L 2222 2016 
Q 2203 2228 2109 2403 
Q 2016 2578 1861 2667 
Q 1706 2756 1559 2756 
Q 1284 2756 1069 2509 
Q 784 2184 784 1559 
Q 784 928 1059 592 
Q 1334 256 1672 256 
Q 1956 256 2222 541 
z
" transform="scale(0.015625)"/>
       <path id="TimesNewRomanPSMT-55" d="M 3053 4122 
L 3053 4238 
L 4553 4238 
L 4553 4122 
L 4394 4122 
Q 4144 4122 4009 3913 
Q 3944 3816 3944 3463 
L 3944 1744 
Q 3944 1106 3817 754 
Q 3691 403 3320 151 
Q 2950 -100 2313 -100 
Q 1619 -100 1259 140 
Q 900 381 750 788 
Q 650 1066 650 1831 
L 650 3488 
Q 650 3878 542 4000 
Q 434 4122 194 4122 
L 34 4122 
L 34 4238 
L 1866 4238 
L 1866 4122 
L 1703 4122 
Q 1441 4122 1328 3956 
Q 1250 3844 1250 3488 
L 1250 1641 
Q 1250 1394 1295 1075 
Q 1341 756 1459 578 
Q 1578 400 1801 284 
Q 2025 169 2350 169 
Q 2766 169 3094 350 
Q 3422 531 3542 814 
Q 3663 1097 3663 1772 
L 3663 3488 
Q 3663 3884 3575 3984 
Q 3453 4122 3213 4122 
L 3053 4122 
z
" transform="scale(0.015625)"/>
       <path id="TimesNewRomanPSMT-44" d="M 109 0 
L 109 116 
L 269 116 
Q 538 116 650 288 
Q 719 391 719 750 
L 719 3488 
Q 719 3884 631 3984 
Q 509 4122 269 4122 
L 109 4122 
L 109 4238 
L 1834 4238 
Q 2784 4238 3279 4022 
Q 3775 3806 4076 3303 
Q 4378 2800 4378 2141 
Q 4378 1256 3841 663 
Q 3238 0 2003 0 
L 109 0 
z
M 1319 306 
Q 1716 219 1984 219 
Q 2709 219 3187 728 
Q 3666 1238 3666 2109 
Q 3666 2988 3187 3494 
Q 2709 4000 1959 4000 
Q 1678 4000 1319 3909 
L 1319 306 
z
" transform="scale(0.015625)"/>
      </defs>
      <use xlink:href="#TimesNewRomanPSMT-74"/>
      <use xlink:href="#TimesNewRomanPSMT-68" x="27.783203"/>
      <use xlink:href="#TimesNewRomanPSMT-6f" x="77.783203"/>
      <use xlink:href="#TimesNewRomanPSMT-75" x="127.783203"/>
      <use xlink:href="#TimesNewRomanPSMT-73" x="177.783203"/>
      <use xlink:href="#TimesNewRomanPSMT-61" x="216.699219"/>
      <use xlink:href="#TimesNewRomanPSMT-6e" x="261.083984"/>
      <use xlink:href="#TimesNewRomanPSMT-64" x="311.083984"/>
      <use xlink:href="#TimesNewRomanPSMT-20" x="361.083984"/>
      <use xlink:href="#TimesNewRomanPSMT-55" x="386.083984"/>
      <use xlink:href="#TimesNewRomanPSMT-53" x="458.300781"/>
      <use xlink:href="#TimesNewRomanPSMT-44" x="513.916016"/>
     </g>
    </g>
   </g>
   <g id="patch_3">
    <path d="M 79.515218 145.05695 
L 88.678658 145.05695 
L 88.678658 106.664335 
L 79.515218 106.664335 
L 79.515218 145.05695 
L 79.515218 145.05695 
z
" clip-path="url(#pff2d55f3a0)" style="fill: none; stroke: #000000; stroke-linejoin: miter"/>
   </g>
   <g id="line2d_10">
    <path d="M 84.096937 145.05695 
L 84.096937 201.934897 
" clip-path="url(#pff2d55f3a0)" style="fill: none; stroke: #000000; stroke-linecap: square"/>
   </g>
   <g id="line2d_11">
    <path d="M 84.096937 106.664335 
L 84.096937 49.786388 
" clip-path="url(#pff2d55f3a0)" style="fill: none; stroke: #000000; stroke-linecap: square"/>
   </g>
   <g id="line2d_12">
    <path d="M 81.806077 201.934897 
L 86.387798 201.934897 
" clip-path="url(#pff2d55f3a0)" style="fill: none; stroke: #000000; stroke-linecap: square"/>
   </g>
   <g id="line2d_13">
    <path d="M 81.806077 49.786388 
L 86.387798 49.786388 
" clip-path="url(#pff2d55f3a0)" style="fill: none; stroke: #000000; stroke-linecap: square"/>
   </g>
   <g id="patch_4">
    <path d="M 155.877218 155.721565 
L 165.040658 155.721565 
L 165.040658 114.722044 
L 155.877218 114.722044 
L 155.877218 155.721565 
L 155.877218 155.721565 
z
" clip-path="url(#pff2d55f3a0)" style="fill: none; stroke: #000000; stroke-linejoin: miter"/>
   </g>
   <g id="line2d_14">
    <path d="M 160.458938 155.721565 
L 160.458938 207.148709 
" clip-path="url(#pff2d55f3a0)" style="fill: none; stroke: #000000; stroke-linecap: square"/>
   </g>
   <g id="line2d_15">
    <path d="M 160.458938 114.722044 
L 160.458938 59.740028 
" clip-path="url(#pff2d55f3a0)" style="fill: none; stroke: #000000; stroke-linecap: square"/>
   </g>
   <g id="line2d_16">
    <path d="M 158.168078 207.148709 
L 162.749797 207.148709 
" clip-path="url(#pff2d55f3a0)" style="fill: none; stroke: #000000; stroke-linecap: square"/>
   </g>
   <g id="line2d_17">
    <path d="M 158.168078 59.740028 
L 162.749797 59.740028 
" clip-path="url(#pff2d55f3a0)" style="fill: none; stroke: #000000; stroke-linecap: square"/>
   </g>
   <g id="patch_5">
    <path d="M 232.239218 138.184198 
L 241.402658 138.184198 
L 241.402658 103.109463 
L 232.239218 103.109463 
L 232.239218 138.184198 
L 232.239218 138.184198 
z
" clip-path="url(#pff2d55f3a0)" style="fill: none; stroke: #000000; stroke-linejoin: miter"/>
   </g>
   <g id="line2d_18">
    <path d="M 236.820938 138.184198 
L 236.820938 176.813804 
" clip-path="url(#pff2d55f3a0)" style="fill: none; stroke: #000000; stroke-linecap: square"/>
   </g>
   <g id="line2d_19">
    <path d="M 236.820938 103.109463 
L 236.820938 60.687994 
" clip-path="url(#pff2d55f3a0)" style="fill: none; stroke: #000000; stroke-linecap: square"/>
   </g>
   <g id="line2d_20">
    <path d="M 234.530078 176.813804 
L 239.111798 176.813804 
" clip-path="url(#pff2d55f3a0)" style="fill: none; stroke: #000000; stroke-linecap: square"/>
   </g>
   <g id="line2d_21">
    <path d="M 234.530078 60.687994 
L 239.111798 60.687994 
" clip-path="url(#pff2d55f3a0)" style="fill: none; stroke: #000000; stroke-linecap: square"/>
   </g>
   <g id="patch_6">
    <path d="M 308.601218 167.808129 
L 317.764657 167.808129 
L 317.764657 136.525257 
L 308.601218 136.525257 
L 308.601218 167.808129 
L 308.601218 167.808129 
z
" clip-path="url(#pff2d55f3a0)" style="fill: none; stroke: #000000; stroke-linejoin: miter"/>
   </g>
   <g id="line2d_22">
    <path d="M 313.182938 167.808129 
L 313.182938 211.888538 
" clip-path="url(#pff2d55f3a0)" style="fill: none; stroke: #000000; stroke-linecap: square"/>
   </g>
   <g id="line2d_23">
    <path d="M 313.182938 136.525257 
L 313.182938 89.600951 
" clip-path="url(#pff2d55f3a0)" style="fill: none; stroke: #000000; stroke-linecap: square"/>
   </g>
   <g id="line2d_24">
    <path d="M 310.892078 211.888538 
L 315.473798 211.888538 
" clip-path="url(#pff2d55f3a0)" style="fill: none; stroke: #000000; stroke-linecap: square"/>
   </g>
   <g id="line2d_25">
    <path d="M 310.892078 89.600951 
L 315.473798 89.600951 
" clip-path="url(#pff2d55f3a0)" style="fill: none; stroke: #000000; stroke-linecap: square"/>
   </g>
   <g id="patch_7">
    <path d="M 384.963218 126.334625 
L 394.126658 126.334625 
L 394.126658 95.762728 
L 384.963218 95.762728 
L 384.963218 126.334625 
L 384.963218 126.334625 
z
" clip-path="url(#pff2d55f3a0)" style="fill: none; stroke: #000000; stroke-linejoin: miter"/>
   </g>
   <g id="line2d_26">
    <path d="M 389.544938 126.334625 
L 389.544938 167.334146 
" clip-path="url(#pff2d55f3a0)" style="fill: none; stroke: #000000; stroke-linecap: square"/>
   </g>
   <g id="line2d_27">
    <path d="M 389.544938 95.762728 
L 389.544938 57.370114 
" clip-path="url(#pff2d55f3a0)" style="fill: none; stroke: #000000; stroke-linecap: square"/>
   </g>
   <g id="line2d_28">
    <path d="M 387.254078 167.334146 
L 391.835798 167.334146 
" clip-path="url(#pff2d55f3a0)" style="fill: none; stroke: #000000; stroke-linecap: square"/>
   </g>
   <g id="line2d_29">
    <path d="M 387.254078 57.370114 
L 391.835798 57.370114 
" clip-path="url(#pff2d55f3a0)" style="fill: none; stroke: #000000; stroke-linecap: square"/>
   </g>
   <g id="line2d_30">
    <path d="M 79.515218 121.831788 
L 88.678658 121.831788 
" clip-path="url(#pff2d55f3a0)" style="fill: none; stroke: #000000; stroke-width: 1.5; stroke-linecap: square"/>
   </g>
   <g id="line2d_31">
    <path d="M 155.877218 137.947206 
L 165.040658 137.947206 
" clip-path="url(#pff2d55f3a0)" style="fill: none; stroke: #000000; stroke-width: 1.5; stroke-linecap: square"/>
   </g>
   <g id="line2d_32">
    <path d="M 232.239218 119.461873 
L 241.402658 119.461873 
" clip-path="url(#pff2d55f3a0)" style="fill: none; stroke: #000000; stroke-width: 1.5; stroke-linecap: square"/>
   </g>
   <g id="line2d_33">
    <path d="M 308.601218 156.432539 
L 317.764657 156.432539 
" clip-path="url(#pff2d55f3a0)" style="fill: none; stroke: #000000; stroke-width: 1.5; stroke-linecap: square"/>
   </g>
   <g id="line2d_34">
    <path d="M 384.963218 112.826113 
L 394.126658 112.826113 
" clip-path="url(#pff2d55f3a0)" style="fill: none; stroke: #000000; stroke-width: 1.5; stroke-linecap: square"/>
   </g>
   <g id="patch_8">
    <path d="M 45.915937 255.803053 
L 45.915937 30.045 
" style="fill: none; stroke: #000000; stroke-linejoin: miter; stroke-linecap: square"/>
   </g>
   <g id="patch_9">
    <path d="M 427.725937 255.803053 
L 427.725937 30.045 
" style="fill: none; stroke: #000000; stroke-linejoin: miter; stroke-linecap: square"/>
   </g>
   <g id="patch_10">
    <path d="M 45.915937 255.803053 
L 427.725938 255.803053 
" style="fill: none; stroke: #000000; stroke-linejoin: miter; stroke-linecap: square"/>
   </g>
   <g id="patch_11">
    <path d="M 45.915937 30.045 
L 427.725938 30.045 
" style="fill: none; stroke: #000000; stroke-linejoin: miter; stroke-linecap: square"/>
   </g>
   <g id="text_11">
    <!-- Daily sales statistics by product category (thousand USD) -->
    <g transform="translate(41.625938 18.045) scale(0.16 -0.16)">
     <defs>
      <path id="TimesNewRomanPS-BoldMT-44" d="M 84 0 
L 84 116 
L 225 116 
Q 409 116 507 173 
Q 606 231 653 331 
Q 681 397 681 725 
L 681 3513 
Q 681 3838 647 3919 
Q 613 4000 508 4061 
Q 403 4122 225 4122 
L 84 4122 
L 84 4238 
L 1981 4238 
Q 2741 4238 3203 4031 
Q 3769 3778 4061 3265 
Q 4353 2753 4353 2106 
Q 4353 1659 4209 1282 
Q 4066 906 3837 661 
Q 3609 416 3311 267 
Q 3013 119 2581 38 
Q 2391 0 1981 0 
L 84 0 
z
M 1700 3997 
L 1700 691 
Q 1700 428 1725 368 
Q 1750 309 1809 278 
Q 1894 231 2053 231 
Q 2575 231 2850 588 
Q 3225 1069 3225 2081 
Q 3225 2897 2969 3384 
Q 2766 3766 2447 3903 
Q 2222 4000 1700 3997 
z
" transform="scale(0.015625)"/>
      <path id="TimesNewRomanPS-BoldMT-61" d="M 1828 431 
Q 1294 -41 869 -41 
Q 619 -41 453 123 
Q 288 288 288 534 
Q 288 869 575 1136 
Q 863 1403 1828 1847 
L 1828 2141 
Q 1828 2472 1792 2558 
Q 1756 2644 1656 2708 
Q 1556 2772 1431 2772 
Q 1228 2772 1097 2681 
Q 1016 2625 1016 2550 
Q 1016 2484 1103 2388 
Q 1222 2253 1222 2128 
Q 1222 1975 1108 1867 
Q 994 1759 809 1759 
Q 613 1759 480 1878 
Q 347 1997 347 2156 
Q 347 2381 525 2586 
Q 703 2791 1022 2900 
Q 1341 3009 1684 3009 
Q 2100 3009 2342 2832 
Q 2584 2656 2656 2450 
Q 2700 2319 2700 1847 
L 2700 713 
Q 2700 513 2715 461 
Q 2731 409 2762 384 
Q 2794 359 2834 359 
Q 2916 359 3000 475 
L 3094 400 
Q 2938 169 2770 64 
Q 2603 -41 2391 -41 
Q 2141 -41 2000 76 
Q 1859 194 1828 431 
z
M 1828 659 
L 1828 1638 
Q 1450 1416 1266 1163 
Q 1144 994 1144 822 
Q 1144 678 1247 569 
Q 1325 484 1466 484 
Q 1622 484 1828 659 
z
" transform="scale(0.015625)"/>
      <path id="TimesNewRomanPS-BoldMT-69" d="M 919 4338 
Q 1122 4338 1262 4195 
Q 1403 4053 1403 3853 
Q 1403 3653 1261 3512 
Q 1119 3372 919 3372 
Q 719 3372 578 3512 
Q 438 3653 438 3853 
Q 438 4053 578 4195 
Q 719 4338 919 4338 
z
M 1356 2922 
L 1356 606 
Q 1356 297 1428 211 
Q 1500 125 1709 113 
L 1709 0 
L 131 0 
L 131 113 
Q 325 119 419 225 
Q 481 297 481 606 
L 481 2313 
Q 481 2622 409 2708 
Q 338 2794 131 2806 
L 131 2922 
L 1356 2922 
z
" transform="scale(0.015625)"/>
      <path id="TimesNewRomanPS-BoldMT-6c" d="M 1359 4238 
L 1359 606 
Q 1359 297 1431 211 
Q 1503 125 1713 113 
L 1713 0 
L 134 0 
L 134 113 
Q 328 119 422 225 
Q 484 297 484 606 
L 484 3631 
Q 484 3938 412 4023 
Q 341 4109 134 4122 
L 134 4238 
L 1359 4238 
z
" transform="scale(0.015625)"/>
      <path id="TimesNewRomanPS-BoldMT-79" d="M 1556 -119 
L 613 2047 
Q 400 2538 298 2650 
Q 197 2763 53 2806 
L 53 2922 
L 1606 2922 
L 1606 2806 
Q 1453 2800 1390 2747 
Q 1328 2694 1328 2619 
Q 1328 2500 1484 2150 
L 1984 1006 
L 2325 1891 
Q 2509 2363 2509 2547 
Q 2509 2663 2432 2731 
Q 2356 2800 2163 2806 
L 2163 2922 
L 3141 2922 
L 3141 2806 
Q 2997 2791 2906 2695 
Q 2816 2600 2603 2047 
L 1769 -119 
Q 1453 -931 1300 -1119 
Q 1084 -1381 759 -1381 
Q 500 -1381 339 -1232 
Q 178 -1084 178 -875 
Q 178 -694 289 -575 
Q 400 -456 563 -456 
Q 719 -456 814 -556 
Q 909 -656 913 -866 
Q 916 -984 941 -1019 
Q 966 -1053 1013 -1053 
Q 1088 -1053 1172 -963 
Q 1297 -831 1466 -363 
L 1556 -119 
z
" transform="scale(0.015625)"/>
      <path id="TimesNewRomanPS-BoldMT-20" transform="scale(0.015625)"/>
      <path id="TimesNewRomanPS-BoldMT-73" d="M 2063 3003 
L 2109 2006 
L 2003 2006 
Q 1813 2450 1608 2612 
Q 1403 2775 1200 2775 
Q 1072 2775 981 2689 
Q 891 2603 891 2491 
Q 891 2406 953 2328 
Q 1053 2200 1512 1889 
Q 1972 1578 2117 1361 
Q 2263 1144 2263 875 
Q 2263 631 2141 397 
Q 2019 163 1797 37 
Q 1575 -88 1306 -88 
Q 1097 -88 747 44 
Q 653 78 619 78 
Q 516 78 447 -78 
L 344 -78 
L 294 972 
L 400 972 
Q 541 559 786 353 
Q 1031 147 1250 147 
Q 1400 147 1495 239 
Q 1591 331 1591 463 
Q 1591 613 1497 722 
Q 1403 831 1078 1053 
Q 600 1384 459 1559 
Q 253 1816 253 2125 
Q 253 2463 486 2736 
Q 719 3009 1159 3009 
Q 1397 3009 1619 2894 
Q 1703 2847 1756 2847 
Q 1813 2847 1847 2870 
Q 1881 2894 1956 3003 
L 2063 3003 
z
" transform="scale(0.015625)"/>
      <path id="TimesNewRomanPS-BoldMT-65" d="M 2691 1566 
L 1088 1566 
Q 1116 984 1397 647 
Q 1613 388 1916 388 
Q 2103 388 2256 492 
Q 2409 597 2584 869 
L 2691 800 
Q 2453 316 2165 114 
Q 1878 -88 1500 -88 
Q 850 -88 516 413 
Q 247 816 247 1413 
Q 247 2144 642 2576 
Q 1038 3009 1569 3009 
Q 2013 3009 2339 2645 
Q 2666 2281 2691 1566 
z
M 1922 1775 
Q 1922 2278 1867 2465 
Q 1813 2653 1697 2750 
Q 1631 2806 1522 2806 
Q 1359 2806 1256 2647 
Q 1072 2369 1072 1884 
L 1072 1775 
L 1922 1775 
z
" transform="scale(0.015625)"/>
      <path id="TimesNewRomanPS-BoldMT-74" d="M 1375 3991 
L 1375 2922 
L 2069 2922 
L 2069 2613 
L 1375 2613 
L 1375 809 
Q 1375 556 1398 482 
Q 1422 409 1481 364 
Q 1541 319 1591 319 
Q 1794 319 1975 628 
L 2069 559 
Q 1816 -41 1247 -41 
Q 969 -41 776 114 
Q 584 269 531 459 
Q 500 566 500 1034 
L 500 2613 
L 119 2613 
L 119 2722 
Q 513 3000 789 3306 
Q 1066 3613 1272 3991 
L 1375 3991 
z
" transform="scale(0.015625)"/>
      <path id="TimesNewRomanPS-BoldMT-63" d="M 2600 753 
L 2697 678 
Q 2491 291 2183 101 
Q 1875 -88 1528 -88 
Q 944 -88 594 353 
Q 244 794 244 1413 
Q 244 2009 563 2463 
Q 947 3009 1622 3009 
Q 2075 3009 2342 2781 
Q 2609 2553 2609 2272 
Q 2609 2094 2501 1987 
Q 2394 1881 2219 1881 
Q 2034 1881 1914 2003 
Q 1794 2125 1766 2438 
Q 1747 2634 1675 2713 
Q 1603 2791 1506 2791 
Q 1356 2791 1250 2631 
Q 1088 2391 1088 1894 
Q 1088 1481 1219 1104 
Q 1350 728 1578 544 
Q 1750 409 1984 409 
Q 2138 409 2275 481 
Q 2413 553 2600 753 
z
" transform="scale(0.015625)"/>
      <path id="TimesNewRomanPS-BoldMT-62" d="M 1347 4238 
L 1347 2628 
Q 1716 3009 2153 3009 
Q 2453 3009 2718 2832 
Q 2984 2656 3134 2331 
Q 3284 2006 3284 1581 
Q 3284 1103 3093 712 
Q 2903 322 2584 117 
Q 2266 -88 1856 -88 
Q 1619 -88 1434 -12 
Q 1250 63 1072 231 
L 588 -84 
L 481 -84 
L 481 3631 
Q 481 3884 459 3944 
Q 428 4031 361 4073 
Q 294 4116 134 4122 
L 134 4238 
L 1347 4238 
z
M 1347 2350 
L 1347 1050 
Q 1347 653 1366 544 
Q 1397 359 1515 245 
Q 1634 131 1819 131 
Q 1978 131 2092 222 
Q 2206 313 2282 581 
Q 2359 850 2359 1550 
Q 2359 2222 2191 2472 
Q 2069 2653 1863 2653 
Q 1594 2653 1347 2350 
z
" transform="scale(0.015625)"/>
      <path id="TimesNewRomanPS-BoldMT-70" d="M 1347 297 
L 1347 -791 
Q 1347 -1016 1383 -1097 
Q 1419 -1178 1494 -1215 
Q 1569 -1253 1788 -1253 
L 1788 -1369 
L 122 -1369 
L 122 -1253 
Q 316 -1247 409 -1144 
Q 472 -1072 472 -772 
L 472 2313 
Q 472 2622 400 2708 
Q 328 2794 122 2806 
L 122 2922 
L 1347 2922 
L 1347 2538 
Q 1500 2763 1659 2863 
Q 1888 3009 2156 3009 
Q 2478 3009 2742 2806 
Q 3006 2603 3143 2245 
Q 3281 1888 3281 1475 
Q 3281 1031 3139 664 
Q 2997 297 2726 104 
Q 2456 -88 2125 -88 
Q 1884 -88 1675 19 
Q 1519 100 1347 297 
z
M 1347 613 
Q 1616 231 1922 231 
Q 2091 231 2200 409 
Q 2363 672 2363 1409 
Q 2363 2166 2184 2444 
Q 2066 2628 1866 2628 
Q 1550 2628 1347 2172 
L 1347 613 
z
" transform="scale(0.015625)"/>
      <path id="TimesNewRomanPS-BoldMT-72" d="M 1428 2922 
L 1428 2259 
Q 1719 2713 1937 2861 
Q 2156 3009 2359 3009 
Q 2534 3009 2639 2901 
Q 2744 2794 2744 2597 
Q 2744 2388 2642 2272 
Q 2541 2156 2397 2156 
Q 2231 2156 2109 2262 
Q 1988 2369 1966 2381 
Q 1934 2400 1894 2400 
Q 1803 2400 1722 2331 
Q 1594 2225 1528 2028 
Q 1428 1725 1428 1359 
L 1428 688 
L 1431 513 
Q 1431 334 1453 284 
Q 1491 200 1564 161 
Q 1638 122 1813 113 
L 1813 0 
L 234 0 
L 234 113 
Q 425 128 492 217 
Q 559 306 559 688 
L 559 2303 
Q 559 2553 534 2622 
Q 503 2709 443 2750 
Q 384 2791 234 2806 
L 234 2922 
L 1428 2922 
z
" transform="scale(0.015625)"/>
      <path id="TimesNewRomanPS-BoldMT-6f" d="M 1594 3009 
Q 1975 3009 2303 2812 
Q 2631 2616 2801 2253 
Q 2972 1891 2972 1459 
Q 2972 838 2656 419 
Q 2275 -88 1603 -88 
Q 944 -88 587 375 
Q 231 838 231 1447 
Q 231 2075 595 2542 
Q 959 3009 1594 3009 
z
M 1606 2788 
Q 1447 2788 1333 2667 
Q 1219 2547 1183 2192 
Q 1147 1838 1147 1206 
Q 1147 872 1191 581 
Q 1225 359 1337 243 
Q 1450 128 1594 128 
Q 1734 128 1828 206 
Q 1950 313 1991 503 
Q 2053 800 2053 1703 
Q 2053 2234 1993 2432 
Q 1934 2631 1819 2722 
Q 1738 2788 1606 2788 
z
" transform="scale(0.015625)"/>
      <path id="TimesNewRomanPS-BoldMT-64" d="M 3056 4238 
L 3056 875 
Q 3056 534 3075 472 
Q 3100 369 3170 319 
Q 3241 269 3416 256 
L 3416 153 
L 2181 -88 
L 2181 375 
Q 1959 106 1786 9 
Q 1613 -88 1394 -88 
Q 834 -88 509 413 
Q 247 819 247 1409 
Q 247 1881 409 2254 
Q 572 2628 855 2818 
Q 1138 3009 1463 3009 
Q 1672 3009 1834 2928 
Q 1997 2847 2181 2644 
L 2181 3525 
Q 2181 3859 2153 3928 
Q 2116 4019 2041 4062 
Q 1966 4106 1759 4106 
L 1759 4238 
L 3056 4238 
z
M 2181 2256 
Q 1950 2700 1616 2700 
Q 1500 2700 1425 2638 
Q 1309 2541 1236 2297 
Q 1163 2053 1163 1550 
Q 1163 997 1244 731 
Q 1325 466 1466 347 
Q 1538 288 1663 288 
Q 1938 288 2181 719 
L 2181 2256 
z
" transform="scale(0.015625)"/>
      <path id="TimesNewRomanPS-BoldMT-75" d="M 3038 2922 
L 3038 634 
Q 3038 300 3100 217 
Q 3163 134 3353 113 
L 3353 0 
L 2163 0 
L 2163 391 
Q 1953 141 1743 26 
Q 1534 -88 1275 -88 
Q 1028 -88 836 64 
Q 644 216 578 419 
Q 513 622 513 1128 
L 513 2288 
Q 513 2619 452 2700 
Q 391 2781 197 2806 
L 197 2922 
L 1388 2922 
L 1388 925 
Q 1388 613 1417 522 
Q 1447 431 1511 384 
Q 1575 338 1659 338 
Q 1772 338 1863 397 
Q 1988 478 2163 725 
L 2163 2288 
Q 2163 2619 2102 2700 
Q 2041 2781 1847 2806 
L 1847 2922 
L 3038 2922 
z
" transform="scale(0.015625)"/>
      <path id="TimesNewRomanPS-BoldMT-67" d="M 2091 2888 
L 3075 2888 
L 3075 2544 
L 2516 2544 
Q 2669 2391 2728 2266 
Q 2803 2097 2803 1913 
Q 2803 1600 2629 1370 
Q 2456 1141 2157 1011 
Q 1859 881 1628 881 
Q 1609 881 1253 897 
Q 1113 897 1017 805 
Q 922 713 922 584 
Q 922 472 1008 400 
Q 1094 328 1288 328 
L 1828 334 
Q 2484 334 2731 191 
Q 3084 -9 3084 -425 
Q 3084 -691 2921 -908 
Q 2759 -1125 2494 -1228 
Q 2091 -1381 1566 -1381 
Q 1172 -1381 847 -1304 
Q 522 -1228 381 -1092 
Q 241 -956 241 -806 
Q 241 -663 348 -548 
Q 456 -434 750 -356 
Q 344 -156 344 200 
Q 344 416 509 619 
Q 675 822 1034 972 
Q 616 1125 428 1375 
Q 241 1625 241 1953 
Q 241 2381 591 2695 
Q 941 3009 1491 3009 
Q 1781 3009 2091 2888 
z
M 1550 2816 
Q 1369 2816 1244 2633 
Q 1119 2450 1119 1875 
Q 1119 1409 1242 1236 
Q 1366 1063 1534 1063 
Q 1722 1063 1847 1234 
Q 1972 1406 1972 1903 
Q 1972 2463 1831 2666 
Q 1731 2816 1550 2816 
z
M 1366 -431 
Q 1047 -431 944 -484 
Q 766 -581 766 -747 
Q 766 -906 950 -1036 
Q 1134 -1166 1644 -1166 
Q 2078 -1166 2326 -1050 
Q 2575 -934 2575 -725 
Q 2575 -647 2528 -594 
Q 2444 -500 2273 -465 
Q 2103 -431 1366 -431 
z
" transform="scale(0.015625)"/>
      <path id="TimesNewRomanPS-BoldMT-28" d="M 2056 4334 
L 2056 4191 
Q 1731 3978 1578 3775 
Q 1366 3494 1247 3053 
Q 1097 2506 1097 1525 
Q 1097 600 1233 87 
Q 1369 -425 1603 -741 
Q 1766 -959 2056 -1125 
L 2056 -1281 
Q 1303 -1028 779 -248 
Q 256 531 256 1544 
Q 256 2544 778 3314 
Q 1300 4084 2056 4334 
z
" transform="scale(0.015625)"/>
      <path id="TimesNewRomanPS-BoldMT-68" d="M 1409 4238 
L 1409 2547 
Q 1650 2800 1850 2904 
Q 2050 3009 2266 3009 
Q 2541 3009 2736 2853 
Q 2931 2697 2995 2486 
Q 3059 2275 3059 1775 
L 3059 634 
Q 3059 300 3121 217 
Q 3184 134 3375 113 
L 3375 0 
L 1894 0 
L 1894 113 
Q 2050 134 2128 238 
Q 2184 319 2184 634 
L 2184 1938 
Q 2184 2300 2156 2392 
Q 2128 2484 2061 2536 
Q 1994 2588 1909 2588 
Q 1784 2588 1665 2502 
Q 1547 2416 1409 2200 
L 1409 634 
Q 1409 322 1456 244 
Q 1516 138 1700 113 
L 1700 0 
L 219 0 
L 219 113 
Q 403 131 481 231 
Q 534 300 534 634 
L 534 3603 
Q 534 3934 473 4015 
Q 413 4097 219 4122 
L 219 4238 
L 1409 4238 
z
" transform="scale(0.015625)"/>
      <path id="TimesNewRomanPS-BoldMT-6e" d="M 1409 2922 
L 1409 2544 
Q 1634 2788 1840 2898 
Q 2047 3009 2284 3009 
Q 2569 3009 2756 2851 
Q 2944 2694 3006 2459 
Q 3056 2281 3056 1775 
L 3056 638 
Q 3056 300 3117 217 
Q 3178 134 3372 113 
L 3372 0 
L 1894 0 
L 1894 113 
Q 2059 134 2131 250 
Q 2181 328 2181 638 
L 2181 1938 
Q 2181 2297 2153 2390 
Q 2125 2484 2058 2536 
Q 1991 2588 1909 2588 
Q 1641 2588 1409 2203 
L 1409 638 
Q 1409 309 1470 221 
Q 1531 134 1697 113 
L 1697 0 
L 219 0 
L 219 113 
Q 403 131 481 231 
Q 534 300 534 638 
L 534 2288 
Q 534 2619 473 2700 
Q 413 2781 219 2806 
L 219 2922 
L 1409 2922 
z
" transform="scale(0.015625)"/>
      <path id="TimesNewRomanPS-BoldMT-55" d="M 150 4238 
L 2338 4238 
L 2338 4122 
L 2228 4122 
Q 1981 4122 1889 4070 
Q 1797 4019 1758 3928 
Q 1719 3838 1719 3475 
L 1719 1400 
Q 1719 831 1805 647 
Q 1891 463 2087 341 
Q 2284 219 2584 219 
Q 2928 219 3170 373 
Q 3413 528 3533 800 
Q 3653 1072 3653 1747 
L 3653 3475 
Q 3653 3759 3593 3881 
Q 3534 4003 3444 4050 
Q 3303 4122 3047 4122 
L 3047 4238 
L 4513 4238 
L 4513 4122 
L 4425 4122 
Q 4247 4122 4128 4050 
Q 4009 3978 3956 3834 
Q 3916 3734 3916 3475 
L 3916 1866 
Q 3916 1119 3817 787 
Q 3719 456 3337 178 
Q 2956 -100 2297 -100 
Q 1747 -100 1447 47 
Q 1038 247 869 559 
Q 700 872 700 1400 
L 700 3475 
Q 700 3841 659 3930 
Q 619 4019 519 4072 
Q 419 4125 150 4122 
L 150 4238 
z
" transform="scale(0.015625)"/>
      <path id="TimesNewRomanPS-BoldMT-53" d="M 3006 4334 
L 3041 2922 
L 2913 2922 
Q 2822 3453 2467 3776 
Q 2113 4100 1700 4100 
Q 1381 4100 1195 3929 
Q 1009 3759 1009 3538 
Q 1009 3397 1075 3288 
Q 1166 3141 1366 2997 
Q 1513 2894 2044 2631 
Q 2788 2266 3047 1941 
Q 3303 1616 3303 1197 
Q 3303 666 2889 283 
Q 2475 -100 1838 -100 
Q 1638 -100 1459 -59 
Q 1281 -19 1013 94 
Q 863 156 766 156 
Q 684 156 593 93 
Q 503 31 447 -97 
L 331 -97 
L 331 1503 
L 447 1503 
Q 584 828 976 473 
Q 1369 119 1822 119 
Q 2172 119 2380 309 
Q 2588 500 2588 753 
Q 2588 903 2508 1043 
Q 2428 1184 2265 1311 
Q 2103 1438 1691 1641 
Q 1113 1925 859 2125 
Q 606 2325 470 2572 
Q 334 2819 334 3116 
Q 334 3622 706 3978 
Q 1078 4334 1644 4334 
Q 1850 4334 2044 4284 
Q 2191 4247 2402 4145 
Q 2613 4044 2697 4044 
Q 2778 4044 2825 4094 
Q 2872 4144 2913 4334 
L 3006 4334 
z
" transform="scale(0.015625)"/>
      <path id="TimesNewRomanPS-BoldMT-29" d="M 78 -1281 
L 78 -1138 
Q 403 -922 556 -719 
Q 766 -438 888 0 
Q 1038 550 1038 1531 
Q 1038 2456 902 2967 
Q 766 3478 531 3794 
Q 369 4013 78 4178 
L 78 4334 
Q 831 4081 1354 3301 
Q 1878 2522 1878 1509 
Q 1878 513 1354 -257 
Q 831 -1028 78 -1281 
z
" transform="scale(0.015625)"/>
     </defs>
     <use xlink:href="#TimesNewRomanPS-BoldMT-44"/>
     <use xlink:href="#TimesNewRomanPS-BoldMT-61" x="72.216797"/>
     <use xlink:href="#TimesNewRomanPS-BoldMT-69" x="122.216797"/>
     <use xlink:href="#TimesNewRomanPS-BoldMT-6c" x="150"/>
     <use xlink:href="#TimesNewRomanPS-BoldMT-79" x="177.783203"/>
     <use xlink:href="#TimesNewRomanPS-BoldMT-20" x="227.783203"/>
     <use xlink:href="#TimesNewRomanPS-BoldMT-73" x="252.783203"/>
     <use xlink:href="#TimesNewRomanPS-BoldMT-61" x="291.699219"/>
     <use xlink:href="#TimesNewRomanPS-BoldMT-6c" x="341.699219"/>
     <use xlink:href="#TimesNewRomanPS-BoldMT-65" x="369.482422"/>
     <use xlink:href="#TimesNewRomanPS-BoldMT-73" x="413.867188"/>
     <use xlink:href="#TimesNewRomanPS-BoldMT-20" x="452.783203"/>
     <use xlink:href="#TimesNewRomanPS-BoldMT-73" x="477.783203"/>
     <use xlink:href="#TimesNewRomanPS-BoldMT-74" x="516.699219"/>
     <use xlink:href="#TimesNewRomanPS-BoldMT-61" x="550"/>
     <use xlink:href="#TimesNewRomanPS-BoldMT-74" x="600"/>
     <use xlink:href="#TimesNewRomanPS-BoldMT-69" x="633.300781"/>
     <use xlink:href="#TimesNewRomanPS-BoldMT-73" x="661.083984"/>
     <use xlink:href="#TimesNewRomanPS-BoldMT-74" x="700"/>
     <use xlink:href="#TimesNewRomanPS-BoldMT-69" x="733.300781"/>
     <use xlink:href="#TimesNewRomanPS-BoldMT-63" x="761.083984"/>
     <use xlink:href="#TimesNewRomanPS-BoldMT-73" x="805.46875"/>
     <use xlink:href="#TimesNewRomanPS-BoldMT-20" x="844.384766"/>
     <use xlink:href="#TimesNewRomanPS-BoldMT-62" x="869.384766"/>
     <use xlink:href="#TimesNewRomanPS-BoldMT-79" x="925"/>
     <use xlink:href="#TimesNewRomanPS-BoldMT-20" x="975"/>
     <use xlink:href="#TimesNewRomanPS-BoldMT-70" x="1000"/>
     <use xlink:href="#TimesNewRomanPS-BoldMT-72" x="1055.615234"/>
     <use xlink:href="#TimesNewRomanPS-BoldMT-6f" x="1098.25"/>
     <use xlink:href="#TimesNewRomanPS-BoldMT-64" x="1148.25"/>
     <use xlink:href="#TimesNewRomanPS-BoldMT-75" x="1203.865234"/>
     <use xlink:href="#TimesNewRomanPS-BoldMT-63" x="1259.480469"/>
     <use xlink:href="#TimesNewRomanPS-BoldMT-74" x="1303.865234"/>
     <use xlink:href="#TimesNewRomanPS-BoldMT-20" x="1337.166016"/>
     <use xlink:href="#TimesNewRomanPS-BoldMT-63" x="1362.166016"/>
     <use xlink:href="#TimesNewRomanPS-BoldMT-61" x="1406.550781"/>
     <use xlink:href="#TimesNewRomanPS-BoldMT-74" x="1456.550781"/>
     <use xlink:href="#TimesNewRomanPS-BoldMT-65" x="1489.851562"/>
     <use xlink:href="#TimesNewRomanPS-BoldMT-67" x="1534.236328"/>
     <use xlink:href="#TimesNewRomanPS-BoldMT-6f" x="1584.236328"/>
     <use xlink:href="#TimesNewRomanPS-BoldMT-72" x="1634.236328"/>
     <use xlink:href="#TimesNewRomanPS-BoldMT-79" x="1678.621094"/>
     <use xlink:href="#TimesNewRomanPS-BoldMT-20" x="1728.621094"/>
     <use xlink:href="#TimesNewRomanPS-BoldMT-28" x="1753.621094"/>
     <use xlink:href="#TimesNewRomanPS-BoldMT-74" x="1786.921875"/>
     <use xlink:href="#TimesNewRomanPS-BoldMT-68" x="1820.222656"/>
     <use xlink:href="#TimesNewRomanPS-BoldMT-6f" x="1875.837891"/>
     <use xlink:href="#TimesNewRomanPS-BoldMT-75" x="1925.837891"/>
     <use xlink:href="#TimesNewRomanPS-BoldMT-73" x="1981.453125"/>
     <use xlink:href="#TimesNewRomanPS-BoldMT-61" x="2020.369141"/>
     <use xlink:href="#TimesNewRomanPS-BoldMT-6e" x="2070.369141"/>
     <use xlink:href="#TimesNewRomanPS-BoldMT-64" x="2125.984375"/>
     <use xlink:href="#TimesNewRomanPS-BoldMT-20" x="2181.599609"/>
     <use xlink:href="#TimesNewRomanPS-BoldMT-55" x="2206.599609"/>
     <use xlink:href="#TimesNewRomanPS-BoldMT-53" x="2278.816406"/>
     <use xlink:href="#TimesNewRomanPS-BoldMT-44" x="2334.431641"/>
     <use xlink:href="#TimesNewRomanPS-BoldMT-29" x="2406.648438"/>
    </g>
   </g>
  </g>
 </g>
 <defs>
  <clipPath id="pff2d55f3a0">
   <rect x="45.915937" y="30.045" width="381.81" height="225.758053"/>
  </clipPath>
 </defs>
</svg>
