<svg xmlns="http://www.w3.org/2000/svg" id="SVGChart" width="1920" height="1440" style="font-family: &quot;Times New Roman&quot;; color: rgb(0, 0, 0);"><rect x="0" y="0" width="1920" height="1440" fill="#ffffff"/><g transform="translate(960,770)"><text x="0" y="-660" text-anchor="middle" style="font-size: 48px;">Digital Platform User Migration (Million Users)</text><g><g class="group"><path fill="#E3EAE1" stroke="#000000" stroke-width="3" d="M0,-522.72A522.72,522.72,0,0,1,253.838,456.949L230.761,415.408A475.2,475.2,0,0,0,0,-475.2Z"/><path id="groupArc0" d="M302.398,544.367A622.72,622.72,0,0,0,0,-622.72A622.72,622.72,0,0,1,302.398,544.367Z" style="visibility: hidden;"/><text><textPath xmlns:ns1="http://www.w3.org/1999/xlink" ns1:href="#groupArc0" startOffset="75%" style="font-size: 36px; text-anchor: middle;">GameCast</textPath></text></g><g class="group"><path fill="#C2CDBC" stroke="#000000" stroke-width="3" d="M230.682,469.065A522.72,522.72,0,0,1,-464.486,239.769L-422.26,217.972A475.2,475.2,0,0,0,209.711,426.423Z"/><path id="groupArc1" d="M279.227,567.774A632.72,632.72,0,0,1,-562.231,290.225A632.72,632.72,0,0,0,279.227,567.774Z" style="visibility: hidden;"/><text><textPath xmlns:ns2="http://www.w3.org/1999/xlink" ns2:href="#groupArc1" startOffset="75%" style="font-size: 36px; text-anchor: middle;">ChirpNet</textPath></text></g><g class="group"><path fill="#FBC7BC" stroke="#000000" stroke-width="3" d="M-475.889,216.255A522.72,522.72,0,0,1,-414.007,-319.114L-376.37,-290.104A475.2,475.2,0,0,0,-432.626,196.595Z"/><path id="groupArc2" d="M-493.21,-380.163A622.72,622.72,0,0,0,-566.93,257.626A622.72,622.72,0,0,1,-493.21,-380.163Z" style="visibility: hidden;"/><text><textPath xmlns:ns3="http://www.w3.org/1999/xlink" ns3:href="#groupArc2" startOffset="75%" style="font-size: 36px; text-anchor: middle;">PictoGram</textPath></text></g><g class="group"><path fill="#DC8B76" stroke="#000000" stroke-width="3" d="M-397.541,-339.407A522.72,522.72,0,0,1,-172.946,-493.281L-157.224,-448.437A475.2,475.2,0,0,0,-361.401,-308.552Z"/><path id="groupArc3" d="M-206.032,-587.649A622.72,622.72,0,0,0,-473.593,-404.338A622.72,622.72,0,0,1,-206.032,-587.649Z" style="visibility: hidden;"/><text><textPath xmlns:ns4="http://www.w3.org/1999/xlink" ns4:href="#groupArc3" startOffset="75%" style="font-size: 36px; text-anchor: middle;">VidVault</textPath></text></g><g class="group"><path fill="#D2736C" stroke="#000000" stroke-width="3" d="M-148.076,-501.308A522.72,522.72,0,0,1,-26.125,-522.067L-23.75,-474.606A475.2,475.2,0,0,0,-134.615,-455.734Z"/><path id="groupArc4" d="M-31.123,-621.942A622.72,622.72,0,0,0,-176.404,-597.212A622.72,622.72,0,0,1,-31.123,-621.942Z" style="visibility: hidden;"/><text><textPath xmlns:ns5="http://www.w3.org/1999/xlink" ns5:href="#groupArc4" startOffset="75%" style="font-size: 36px; text-anchor: middle;">StreamS…</textPath></text></g></g><g class="group-ticks"><g transform="&#10;                    rotate(-90)&#10;                    translate(522.7200000000001,0)&#10;                "><line stroke="#000000" stroke-width="3" x2="15"/><text x="20" dy="0.35em" style="text-anchor: start; font-size: 32px; fill: rgb(0, 0, 0);">0</text></g><g transform="&#10;                    rotate(-83.14421185040412)&#10;                    translate(522.7200000000001,0)&#10;                "><line stroke="#000000" stroke-width="1" x2="10"/></g><g transform="&#10;                    rotate(-76.28842370080822)&#10;                    translate(522.7200000000001,0)&#10;                "><line stroke="#000000" stroke-width="1" x2="10"/></g><g transform="&#10;                    rotate(-69.43263555121234)&#10;                    translate(522.7200000000001,0)&#10;                "><line stroke="#000000" stroke-width="1" x2="10"/></g><g transform="&#10;                    rotate(-62.57684740161646)&#10;                    translate(522.7200000000001,0)&#10;                "><line stroke="#000000" stroke-width="1" x2="10"/></g><g transform="&#10;                    rotate(-55.721059252020574)&#10;                    translate(522.7200000000001,0)&#10;                "><line stroke="#000000" stroke-width="3" x2="15"/><text x="20" dy="0.35em" style="text-anchor: start; font-size: 32px; fill: rgb(0, 0, 0);">285</text></g><g transform="&#10;                    rotate(-48.86527110242468)&#10;                    translate(522.7200000000001,0)&#10;                "><line stroke="#000000" stroke-width="1" x2="10"/></g><g transform="&#10;                    rotate(-42.0094829528288)&#10;                    translate(522.7200000000001,0)&#10;                "><line stroke="#000000" stroke-width="1" x2="10"/></g><g transform="&#10;                    rotate(-35.153694803232916)&#10;                    translate(522.7200000000001,0)&#10;                "><line stroke="#000000" stroke-width="1" x2="10"/></g><g transform="&#10;                    rotate(-28.29790665363702)&#10;                    translate(522.7200000000001,0)&#10;                "><line stroke="#000000" stroke-width="1" x2="10"/></g><g transform="&#10;                    rotate(-21.442118504041147)&#10;                    translate(522.7200000000001,0)&#10;                "><line stroke="#000000" stroke-width="3" x2="15"/><text x="20" dy="0.35em" style="text-anchor: start; font-size: 32px; fill: rgb(0, 0, 0);">570</text></g><g transform="&#10;                    rotate(-14.586330354445252)&#10;                    translate(522.7200000000001,0)&#10;                "><line stroke="#000000" stroke-width="1" x2="10"/></g><g transform="&#10;                    rotate(-7.730542204849357)&#10;                    translate(522.7200000000001,0)&#10;                "><line stroke="#000000" stroke-width="1" x2="10"/></g><g transform="&#10;                    rotate(-0.8747540552534758)&#10;                    translate(522.7200000000001,0)&#10;                "><line stroke="#000000" stroke-width="1" x2="10"/></g><g transform="&#10;                    rotate(5.981034094342405)&#10;                    translate(522.7200000000001,0)&#10;                "><line stroke="#000000" stroke-width="1" x2="10"/></g><g transform="&#10;                    rotate(12.836822243938286)&#10;                    translate(522.7200000000001,0)&#10;                "><line stroke="#000000" stroke-width="3" x2="15"/><text x="20" dy="0.35em" style="text-anchor: start; font-size: 32px; fill: rgb(0, 0, 0);">855</text></g><g transform="&#10;                    rotate(19.692610393534167)&#10;                    translate(522.7200000000001,0)&#10;                "><line stroke="#000000" stroke-width="1" x2="10"/></g><g transform="&#10;                    rotate(26.548398543130048)&#10;                    translate(522.7200000000001,0)&#10;                "><line stroke="#000000" stroke-width="1" x2="10"/></g><g transform="&#10;                    rotate(33.40418669272596)&#10;                    translate(522.7200000000001,0)&#10;                "><line stroke="#000000" stroke-width="1" x2="10"/></g><g transform="&#10;                    rotate(40.25997484232184)&#10;                    translate(522.7200000000001,0)&#10;                "><line stroke="#000000" stroke-width="1" x2="10"/></g><g transform="&#10;                    rotate(47.115762991917705)&#10;                    translate(522.7200000000001,0)&#10;                "><line stroke="#000000" stroke-width="3" x2="15"/><text x="20" dy="0.35em" style="text-anchor: start; font-size: 32px; fill: rgb(0, 0, 0);">1140</text></g><g transform="&#10;                    rotate(53.9715511415136)&#10;                    translate(522.7200000000001,0)&#10;                "><line stroke="#000000" stroke-width="1" x2="10"/></g><g transform="&#10;                    rotate(60.827339291109496)&#10;                    translate(522.7200000000001,0)&#10;                "><line stroke="#000000" stroke-width="1" x2="10"/></g><g transform="&#10;                    rotate(63.81240525184424)&#10;                    translate(522.7200000000001,0)&#10;                "><line stroke="#000000" stroke-width="3" x2="15"/><text x="20" dy="0.35em" style="text-anchor: start; font-size: 32px; fill: rgb(0, 0, 0);">0</text></g><g transform="&#10;                    rotate(70.6681934014401)&#10;                    translate(522.7200000000001,0)&#10;                "><line stroke="#000000" stroke-width="1" x2="10"/></g><g transform="&#10;                    rotate(77.523981551036)&#10;                    translate(522.7200000000001,0)&#10;                "><line stroke="#000000" stroke-width="1" x2="10"/></g><g transform="&#10;                    rotate(84.37976970063187)&#10;                    translate(522.7200000000001,0)&#10;                "><line stroke="#000000" stroke-width="1" x2="10"/></g><g transform="&#10;                    rotate(91.23555785022776)&#10;                    translate(522.7200000000001,0)&#10;                "><line stroke="#000000" stroke-width="1" x2="10"/></g><g transform="&#10;                    rotate(98.09134599982366)&#10;                    translate(522.7200000000001,0)&#10;                "><line stroke="#000000" stroke-width="3" x2="15"/><text x="20" dy="0.35em" transform="rotate(180) translate(-40)" style="text-anchor: end; font-size: 32px; fill: rgb(0, 0, 0);">285</text></g><g transform="&#10;                    rotate(104.94713414941955)&#10;                    translate(522.7200000000001,0)&#10;                "><line stroke="#000000" stroke-width="1" x2="10"/></g><g transform="&#10;                    rotate(111.80292229901542)&#10;                    translate(522.7200000000001,0)&#10;                "><line stroke="#000000" stroke-width="1" x2="10"/></g><g transform="&#10;                    rotate(118.65871044861129)&#10;                    translate(522.7200000000001,0)&#10;                "><line stroke="#000000" stroke-width="1" x2="10"/></g><g transform="&#10;                    rotate(125.51449859820718)&#10;                    translate(522.7200000000001,0)&#10;                "><line stroke="#000000" stroke-width="1" x2="10"/></g><g transform="&#10;                    rotate(132.37028674780305)&#10;                    translate(522.7200000000001,0)&#10;                "><line stroke="#000000" stroke-width="3" x2="15"/><text x="20" dy="0.35em" transform="rotate(180) translate(-40)" style="text-anchor: end; font-size: 32px; fill: rgb(0, 0, 0);">570</text></g><g transform="&#10;                    rotate(139.22607489739892)&#10;                    translate(522.7200000000001,0)&#10;                "><line stroke="#000000" stroke-width="1" x2="10"/></g><g transform="&#10;                    rotate(146.08186304699484)&#10;                    translate(522.7200000000001,0)&#10;                "><line stroke="#000000" stroke-width="1" x2="10"/></g><g transform="&#10;                    rotate(155.56188620208357)&#10;                    translate(522.7200000000001,0)&#10;                "><line stroke="#000000" stroke-width="3" x2="15"/><text x="20" dy="0.35em" transform="rotate(180) translate(-40)" style="text-anchor: end; font-size: 32px; fill: rgb(0, 0, 0);">0</text></g><g transform="&#10;                    rotate(162.4176743516795)&#10;                    translate(522.7200000000001,0)&#10;                "><line stroke="#000000" stroke-width="1" x2="10"/></g><g transform="&#10;                    rotate(169.27346250127533)&#10;                    translate(522.7200000000001,0)&#10;                "><line stroke="#000000" stroke-width="1" x2="10"/></g><g transform="&#10;                    rotate(176.12925065087126)&#10;                    translate(522.7200000000001,0)&#10;                "><line stroke="#000000" stroke-width="1" x2="10"/></g><g transform="&#10;                    rotate(182.98503880046707)&#10;                    translate(522.7200000000001,0)&#10;                "><line stroke="#000000" stroke-width="1" x2="10"/></g><g transform="&#10;                    rotate(189.840826950063)&#10;                    translate(522.7200000000001,0)&#10;                "><line stroke="#000000" stroke-width="3" x2="15"/><text x="20" dy="0.35em" transform="rotate(180) translate(-40)" style="text-anchor: end; font-size: 32px; fill: rgb(0, 0, 0);">285</text></g><g transform="&#10;                    rotate(196.6966150996588)&#10;                    translate(522.7200000000001,0)&#10;                "><line stroke="#000000" stroke-width="1" x2="10"/></g><g transform="&#10;                    rotate(203.55240324925472)&#10;                    translate(522.7200000000001,0)&#10;                "><line stroke="#000000" stroke-width="1" x2="10"/></g><g transform="&#10;                    rotate(210.4081913988506)&#10;                    translate(522.7200000000001,0)&#10;                "><line stroke="#000000" stroke-width="1" x2="10"/></g><g transform="&#10;                    rotate(217.26397954844657)&#10;                    translate(522.7200000000001,0)&#10;                "><line stroke="#000000" stroke-width="1" x2="10"/></g><g transform="&#10;                    rotate(220.48959947934253)&#10;                    translate(522.7200000000001,0)&#10;                "><line stroke="#000000" stroke-width="3" x2="15"/><text x="20" dy="0.35em" transform="rotate(180) translate(-40)" style="text-anchor: end; font-size: 32px; fill: rgb(0, 0, 0);">0</text></g><g transform="&#10;                    rotate(227.3453876289384)&#10;                    translate(522.7200000000001,0)&#10;                "><line stroke="#000000" stroke-width="1" x2="10"/></g><g transform="&#10;                    rotate(234.20117577853426)&#10;                    translate(522.7200000000001,0)&#10;                "><line stroke="#000000" stroke-width="1" x2="10"/></g><g transform="&#10;                    rotate(241.0569639281302)&#10;                    translate(522.7200000000001,0)&#10;                "><line stroke="#000000" stroke-width="1" x2="10"/></g><g transform="&#10;                    rotate(247.91275207772605)&#10;                    translate(522.7200000000001,0)&#10;                "><line stroke="#000000" stroke-width="1" x2="10"/></g><g transform="&#10;                    rotate(253.54391171023468)&#10;                    translate(522.7200000000001,0)&#10;                "><line stroke="#000000" stroke-width="3" x2="15"/><text x="20" dy="0.35em" transform="rotate(180) translate(-40)" style="text-anchor: end; font-size: 32px; fill: rgb(0, 0, 0);">0</text></g><g transform="&#10;                    rotate(260.3996998598305)&#10;                    translate(522.7200000000001,0)&#10;                "><line stroke="#000000" stroke-width="1" x2="10"/></g></g><g class="chord"><path d="M2.909760794774111e-14,-475.20000000000005A475.20000000000005,475.20000000000005,0,0,1,446.39014487011184,162.94440328787178Q0,0,209.71126034581084,426.42259237072744A475.20000000000005,475.20000000000005,0,0,1,-246.05665791049915,406.5355594507271Q0,0,2.909760794774111e-14,-475.20000000000005Z" fill="#E3EAE1" stroke="#000000" stroke-width="1" opacity="0.3"/><path d="M-432.6261940986416,196.5950563460958A475.20000000000005,475.20000000000005,0,0,1,-466.0138251131299,-92.98470198602156Q0,0,446.39014487011184,162.94440328787178A475.20000000000005,475.20000000000005,0,0,1,313.01147309334084,357.54560228303296Q0,0,-432.6261940986416,196.5950563460958Z" fill="#FBC7BC" stroke="#000000" stroke-width="1" opacity="0.3"/><path d="M313.01147309334084,357.54560228303296A475.20000000000005,475.20000000000005,0,0,1,230.76142280307312,415.40848058977Q0,0,-237.78334171718097,-411.429365021276A475.20000000000005,475.20000000000005,0,0,1,-157.22384997189965,-448.43695320525677Q0,0,313.01147309334084,357.54560228303296Z" fill="#E3EAE1" stroke="#000000" stroke-width="1" opacity="0.3"/><path d="M-420.96313303559,-220.46559964053398A475.20000000000005,475.20000000000005,0,0,1,-376.37045154037565,-290.10398688624355Q0,0,-382.2690933374593,282.2859902279191A475.20000000000005,475.20000000000005,0,0,1,-422.2598664108014,217.9716615038115Q0,0,-420.96313303559,-220.46559964053398Z" fill="#FBC7BC" stroke="#000000" stroke-width="1" opacity="0.3"/><path d="M-246.05665791049915,406.5355594507271A475.20000000000005,475.20000000000005,0,0,1,-382.2690933374593,282.2859902279191Q0,0,-361.4009302142351,-308.55211495027163A475.20000000000005,475.20000000000005,0,0,1,-237.78334171718097,-411.429365021276Q0,0,-246.05665791049915,406.5355594507271Z" fill="#C2CDBC" stroke="#000000" stroke-width="1" opacity="0.3"/><path d="M-466.0138251131299,-92.98470198602156A475.20000000000005,475.20000000000005,0,0,1,-420.96313303559,-220.46559964053398Q0,0,-134.61485470826116,-455.7344411956087A475.20000000000005,475.20000000000005,0,0,1,-23.750101237427188,-474.606123739688Q0,0,-466.0138251131299,-92.98470198602156Z" fill="#FBC7BC" stroke="#000000" stroke-width="1" opacity="0.3"/></g><g transform="translate(522.7200000000001, 0)"><g class="legend-item" transform="translate(0, -620)"><circle cx="20" cy="20" r="20" fill="#E3EAE1"/><text x="50" y="20" dy="0.35em" style="font-size: 28px; fill: rgb(0, 0, 0);">GameCast</text></g><g class="legend-item" transform="translate(0, -575)"><circle cx="20" cy="20" r="20" fill="#C2CDBC"/><text x="50" y="20" dy="0.35em" style="font-size: 28px; fill: rgb(0, 0, 0);">ChirpNet</text></g><g class="legend-item" transform="translate(0, -530)"><circle cx="20" cy="20" r="20" fill="#FBC7BC"/><text x="50" y="20" dy="0.35em" style="font-size: 28px; fill: rgb(0, 0, 0);">PictoGram</text></g><g class="legend-item" transform="translate(0, -485)"><circle cx="20" cy="20" r="20" fill="#DC8B76"/><text x="50" y="20" dy="0.35em" style="font-size: 28px; fill: rgb(0, 0, 0);">VidVault</text></g><g class="legend-item" transform="translate(0, -440)"><circle cx="20" cy="20" r="20" fill="#D2736C"/><text x="50" y="20" dy="0.35em" style="font-size: 28px; fill: rgb(0, 0, 0);">StreamSphere</text></g></g></g></svg>