<svg xmlns="http://www.w3.org/2000/svg" id="SVGChart" width="1920" height="1440" style="font-family: &quot;Times New Roman&quot;; color: rgb(0, 0, 0);"><rect x="0" y="0" width="1920" height="1440" fill="#ffffff"/><g transform="translate(960,770)"><text x="0" y="-660" text-anchor="middle" style="font-size: 48px;">Basketball Team Fans Migration (Thousand Fans)</text><g><g class="group"><path fill="#F0E6E4" stroke="#000000" stroke-width="3" d="M0,-522.72A522.72,522.72,0,0,1,413.995,-319.13L376.359,-290.119A475.2,475.2,0,0,0,0,-475.2Z"/><path id="groupArc0" d="M493.195,-380.182A622.72,622.72,0,0,0,0,-622.72A622.72,622.72,0,0,1,493.195,-380.182Z" style="visibility: hidden;"/><text><textPath xmlns:ns1="http://www.w3.org/1999/xlink" ns1:href="#groupArc0" startOffset="75%" style="font-size: 36px; text-anchor: middle;">Rebeccaview Dolphins</textPath></text></g><g class="group"><path fill="#F7D8DF" stroke="#000000" stroke-width="3" d="M429.428,-298.04A522.72,522.72,0,0,1,420.099,311.051L381.908,282.774A475.2,475.2,0,0,0,390.389,-270.946Z"/><path id="groupArc1" d="M519.795,-360.759A632.72,632.72,0,0,1,508.504,376.508A632.72,632.72,0,0,0,519.795,-360.759Z" style="visibility: hidden;"/><text><textPath xmlns:ns2="http://www.w3.org/1999/xlink" ns2:href="#groupArc1" startOffset="75%" style="font-size: 36px; text-anchor: middle;">East Rovers</textPath></text></g><g class="group"><path fill="#F47D85" stroke="#000000" stroke-width="3" d="M404.028,331.659A522.72,522.72,0,0,1,-274.457,444.87L-249.506,404.428A475.2,475.2,0,0,0,367.298,301.508Z"/><path id="groupArc2" d="M489.051,401.452A632.72,632.72,0,0,1,-332.213,538.488A632.72,632.72,0,0,0,489.051,401.452Z" style="visibility: hidden;"/><text><textPath xmlns:ns3="http://www.w3.org/1999/xlink" ns3:href="#groupArc2" startOffset="75%" style="font-size: 36px; text-anchor: middle;">Fosterborough Stars</textPath></text></g><g class="group"><path fill="#DF4C5B" stroke="#000000" stroke-width="3" d="M-296.348,430.597A522.72,522.72,0,0,1,-495.508,-166.457L-450.462,-151.324A475.2,475.2,0,0,0,-269.407,391.452Z"/><path id="groupArc3" d="M-358.711,521.211A632.72,632.72,0,0,1,-599.782,-201.485A632.72,632.72,0,0,0,-358.711,521.211Z" style="visibility: hidden;"/><text><textPath xmlns:ns4="http://www.w3.org/1999/xlink" ns4:href="#groupArc3" startOffset="75%" style="font-size: 36px; text-anchor: middle;">Poolechester Dynasty</textPath></text></g><g class="group"><path fill="#989E6A" stroke="#000000" stroke-width="3" d="M-486.57,-191.014A522.72,522.72,0,0,1,-26.125,-522.067L-23.75,-474.606A475.2,475.2,0,0,0,-442.336,-173.649Z"/><path id="groupArc4" d="M-31.123,-621.942A622.72,622.72,0,0,0,-579.654,-227.556A622.72,622.72,0,0,1,-31.123,-621.942Z" style="visibility: hidden;"/><text><textPath xmlns:ns5="http://www.w3.org/1999/xlink" ns5:href="#groupArc4" startOffset="75%" style="font-size: 36px; text-anchor: middle;">Cherylberg Sharks</textPath></text></g></g><g class="group-ticks"><g transform="&#10;                    rotate(-90)&#10;                    translate(522.7200000000001,0)&#10;                "><line stroke="#000000" stroke-width="3" x2="15"/><text x="20" dy="0.35em" style="text-anchor: start; font-size: 32px; fill: rgb(0, 0, 0);">0</text></g><g transform="&#10;                    rotate(-83.11835179451712)&#10;                    translate(522.7200000000001,0)&#10;                "><line stroke="#000000" stroke-width="1" x2="10"/></g><g transform="&#10;                    rotate(-76.23670358903425)&#10;                    translate(522.7200000000001,0)&#10;                "><line stroke="#000000" stroke-width="1" x2="10"/></g><g transform="&#10;                    rotate(-69.35505538355136)&#10;                    translate(522.7200000000001,0)&#10;                "><line stroke="#000000" stroke-width="1" x2="10"/></g><g transform="&#10;                    rotate(-62.473407178068484)&#10;                    translate(522.7200000000001,0)&#10;                "><line stroke="#000000" stroke-width="1" x2="10"/></g><g transform="&#10;                    rotate(-55.59175897258561)&#10;                    translate(522.7200000000001,0)&#10;                "><line stroke="#000000" stroke-width="3" x2="15"/><text x="20" dy="0.35em" style="text-anchor: start; font-size: 32px; fill: rgb(0, 0, 0);">475</text></g><g transform="&#10;                    rotate(-48.710110767102734)&#10;                    translate(522.7200000000001,0)&#10;                "><line stroke="#000000" stroke-width="1" x2="10"/></g><g transform="&#10;                    rotate(-41.82846256161986)&#10;                    translate(522.7200000000001,0)&#10;                "><line stroke="#000000" stroke-width="1" x2="10"/></g><g transform="&#10;                    rotate(-34.76224626051303)&#10;                    translate(522.7200000000001,0)&#10;                "><line stroke="#000000" stroke-width="3" x2="15"/><text x="20" dy="0.35em" style="text-anchor: start; font-size: 32px; fill: rgb(0, 0, 0);">0</text></g><g transform="&#10;                    rotate(-27.880598055030156)&#10;                    translate(522.7200000000001,0)&#10;                "><line stroke="#000000" stroke-width="1" x2="10"/></g><g transform="&#10;                    rotate(-20.998949849547287)&#10;                    translate(522.7200000000001,0)&#10;                "><line stroke="#000000" stroke-width="1" x2="10"/></g><g transform="&#10;                    rotate(-14.117301644064398)&#10;                    translate(522.7200000000001,0)&#10;                "><line stroke="#000000" stroke-width="1" x2="10"/></g><g transform="&#10;                    rotate(-7.2356534385815365)&#10;                    translate(522.7200000000001,0)&#10;                "><line stroke="#000000" stroke-width="1" x2="10"/></g><g transform="&#10;                    rotate(-0.35400523309864695)&#10;                    translate(522.7200000000001,0)&#10;                "><line stroke="#000000" stroke-width="3" x2="15"/><text x="20" dy="0.35em" style="text-anchor: start; font-size: 32px; fill: rgb(0, 0, 0);">475</text></g><g transform="&#10;                    rotate(6.527642972384228)&#10;                    translate(522.7200000000001,0)&#10;                "><line stroke="#000000" stroke-width="1" x2="10"/></g><g transform="&#10;                    rotate(13.409291177867104)&#10;                    translate(522.7200000000001,0)&#10;                "><line stroke="#000000" stroke-width="1" x2="10"/></g><g transform="&#10;                    rotate(20.290939383349993)&#10;                    translate(522.7200000000001,0)&#10;                "><line stroke="#000000" stroke-width="1" x2="10"/></g><g transform="&#10;                    rotate(27.17258758883287)&#10;                    translate(522.7200000000001,0)&#10;                "><line stroke="#000000" stroke-width="1" x2="10"/></g><g transform="&#10;                    rotate(34.05423579431573)&#10;                    translate(522.7200000000001,0)&#10;                "><line stroke="#000000" stroke-width="3" x2="15"/><text x="20" dy="0.35em" style="text-anchor: start; font-size: 32px; fill: rgb(0, 0, 0);">950</text></g><g transform="&#10;                    rotate(39.381930443511095)&#10;                    translate(522.7200000000001,0)&#10;                "><line stroke="#000000" stroke-width="3" x2="15"/><text x="20" dy="0.35em" style="text-anchor: start; font-size: 32px; fill: rgb(0, 0, 0);">0</text></g><g transform="&#10;                    rotate(46.263578648993985)&#10;                    translate(522.7200000000001,0)&#10;                "><line stroke="#000000" stroke-width="1" x2="10"/></g><g transform="&#10;                    rotate(53.145226854476846)&#10;                    translate(522.7200000000001,0)&#10;                "><line stroke="#000000" stroke-width="1" x2="10"/></g><g transform="&#10;                    rotate(60.026875059959735)&#10;                    translate(522.7200000000001,0)&#10;                "><line stroke="#000000" stroke-width="1" x2="10"/></g><g transform="&#10;                    rotate(66.9085232654426)&#10;                    translate(522.7200000000001,0)&#10;                "><line stroke="#000000" stroke-width="1" x2="10"/></g><g transform="&#10;                    rotate(73.79017147092549)&#10;                    translate(522.7200000000001,0)&#10;                "><line stroke="#000000" stroke-width="3" x2="15"/><text x="20" dy="0.35em" style="text-anchor: start; font-size: 32px; fill: rgb(0, 0, 0);">475</text></g><g transform="&#10;                    rotate(80.67181967640838)&#10;                    translate(522.7200000000001,0)&#10;                "><line stroke="#000000" stroke-width="1" x2="10"/></g><g transform="&#10;                    rotate(87.55346788189124)&#10;                    translate(522.7200000000001,0)&#10;                "><line stroke="#000000" stroke-width="1" x2="10"/></g><g transform="&#10;                    rotate(94.43511608737413)&#10;                    translate(522.7200000000001,0)&#10;                "><line stroke="#000000" stroke-width="1" x2="10"/></g><g transform="&#10;                    rotate(101.31676429285702)&#10;                    translate(522.7200000000001,0)&#10;                "><line stroke="#000000" stroke-width="1" x2="10"/></g><g transform="&#10;                    rotate(108.19841249833985)&#10;                    translate(522.7200000000001,0)&#10;                "><line stroke="#000000" stroke-width="3" x2="15"/><text x="20" dy="0.35em" transform="rotate(180) translate(-40)" style="text-anchor: end; font-size: 32px; fill: rgb(0, 0, 0);">950</text></g><g transform="&#10;                    rotate(115.08006070382274)&#10;                    translate(522.7200000000001,0)&#10;                "><line stroke="#000000" stroke-width="1" x2="10"/></g><g transform="&#10;                    rotate(124.53674427630781)&#10;                    translate(522.7200000000001,0)&#10;                "><line stroke="#000000" stroke-width="3" x2="15"/><text x="20" dy="0.35em" transform="rotate(180) translate(-40)" style="text-anchor: end; font-size: 32px; fill: rgb(0, 0, 0);">0</text></g><g transform="&#10;                    rotate(131.4183924817907)&#10;                    translate(522.7200000000001,0)&#10;                "><line stroke="#000000" stroke-width="1" x2="10"/></g><g transform="&#10;                    rotate(138.30004068727357)&#10;                    translate(522.7200000000001,0)&#10;                "><line stroke="#000000" stroke-width="1" x2="10"/></g><g transform="&#10;                    rotate(145.18168889275645)&#10;                    translate(522.7200000000001,0)&#10;                "><line stroke="#000000" stroke-width="1" x2="10"/></g><g transform="&#10;                    rotate(152.06333709823934)&#10;                    translate(522.7200000000001,0)&#10;                "><line stroke="#000000" stroke-width="1" x2="10"/></g><g transform="&#10;                    rotate(158.94498530372223)&#10;                    translate(522.7200000000001,0)&#10;                "><line stroke="#000000" stroke-width="3" x2="15"/><text x="20" dy="0.35em" transform="rotate(180) translate(-40)" style="text-anchor: end; font-size: 32px; fill: rgb(0, 0, 0);">475</text></g><g transform="&#10;                    rotate(165.82663350920507)&#10;                    translate(522.7200000000001,0)&#10;                "><line stroke="#000000" stroke-width="1" x2="10"/></g><g transform="&#10;                    rotate(172.70828171468798)&#10;                    translate(522.7200000000001,0)&#10;                "><line stroke="#000000" stroke-width="1" x2="10"/></g><g transform="&#10;                    rotate(179.5899299201709)&#10;                    translate(522.7200000000001,0)&#10;                "><line stroke="#000000" stroke-width="1" x2="10"/></g><g transform="&#10;                    rotate(186.4715781256537)&#10;                    translate(522.7200000000001,0)&#10;                "><line stroke="#000000" stroke-width="1" x2="10"/></g><g transform="&#10;                    rotate(193.35322633113663)&#10;                    translate(522.7200000000001,0)&#10;                "><line stroke="#000000" stroke-width="3" x2="15"/><text x="20" dy="0.35em" transform="rotate(180) translate(-40)" style="text-anchor: end; font-size: 32px; fill: rgb(0, 0, 0);">950</text></g><g transform="&#10;                    rotate(201.43358026252508)&#10;                    translate(522.7200000000001,0)&#10;                "><line stroke="#000000" stroke-width="3" x2="15"/><text x="20" dy="0.35em" transform="rotate(180) translate(-40)" style="text-anchor: end; font-size: 32px; fill: rgb(0, 0, 0);">0</text></g><g transform="&#10;                    rotate(208.31522846800806)&#10;                    translate(522.7200000000001,0)&#10;                "><line stroke="#000000" stroke-width="1" x2="10"/></g><g transform="&#10;                    rotate(215.19687667349086)&#10;                    translate(522.7200000000001,0)&#10;                "><line stroke="#000000" stroke-width="1" x2="10"/></g><g transform="&#10;                    rotate(222.07852487897378)&#10;                    translate(522.7200000000001,0)&#10;                "><line stroke="#000000" stroke-width="1" x2="10"/></g><g transform="&#10;                    rotate(228.96017308445664)&#10;                    translate(522.7200000000001,0)&#10;                "><line stroke="#000000" stroke-width="1" x2="10"/></g><g transform="&#10;                    rotate(235.8418212899395)&#10;                    translate(522.7200000000001,0)&#10;                "><line stroke="#000000" stroke-width="3" x2="15"/><text x="20" dy="0.35em" transform="rotate(180) translate(-40)" style="text-anchor: end; font-size: 32px; fill: rgb(0, 0, 0);">475</text></g><g transform="&#10;                    rotate(242.72346949542242)&#10;                    translate(522.7200000000001,0)&#10;                "><line stroke="#000000" stroke-width="1" x2="10"/></g><g transform="&#10;                    rotate(249.60511770090528)&#10;                    translate(522.7200000000001,0)&#10;                "><line stroke="#000000" stroke-width="1" x2="10"/></g><g transform="&#10;                    rotate(256.4867659063882)&#10;                    translate(522.7200000000001,0)&#10;                "><line stroke="#000000" stroke-width="1" x2="10"/></g><g transform="&#10;                    rotate(263.36841411187106)&#10;                    translate(522.7200000000001,0)&#10;                "><line stroke="#000000" stroke-width="1" x2="10"/></g></g><g class="chord"><path d="M432.68857092796765,196.45773231999084A475.20000000000005,475.20000000000005,0,0,1,381.90819831423704,282.77405832284796Q0,0,339.30702415221225,-332.6947299867705A475.20000000000005,475.20000000000005,0,0,1,376.35918683600573,-290.11860072070624Q0,0,432.68857092796765,196.45773231999084Z" fill="#F7D8DF" stroke="#000000" stroke-width="1" opacity="0.3"/><path d="M-442.3360265626152,-173.64872474279048A475.20000000000005,475.20000000000005,0,0,1,-185.14260885070883,-437.6496936911455Q0,0,2.909760794774111e-14,-475.20000000000005A475.20000000000005,475.20000000000005,0,0,1,339.30702415221225,-332.6947299867705Q0,0,-442.3360265626152,-173.64872474279048Z" fill="#989E6A" stroke="#000000" stroke-width="1" opacity="0.3"/><path d="M87.67512425958343,467.04187455309255A475.20000000000005,475.20000000000005,0,0,1,-157.5098812939349,448.33656698374557Q0,0,473.3870648852187,41.469588849635095A475.20000000000005,475.20000000000005,0,0,1,432.68857092796765,196.45773231999084Q0,0,87.67512425958343,467.04187455309255Z" fill="#F47D85" stroke="#000000" stroke-width="1" opacity="0.3"/><path d="M-269.40734075138823,391.4520720972945A475.20000000000005,475.20000000000005,0,0,1,-466.9432618165869,88.19881089950364Q0,0,390.388722508491,-270.94590850977704A475.20000000000005,475.20000000000005,0,0,1,473.3870648852187,41.469588849635095Q0,0,-269.40734075138823,391.4520720972945Z" fill="#DF4C5B" stroke="#000000" stroke-width="1" opacity="0.3"/><path d="M367.29809998704246,301.50811887229275A475.20000000000005,475.20000000000005,0,0,1,87.67512425958343,467.04187455309255Q0,0,-466.9432618165869,88.19881089950364A475.20000000000005,475.20000000000005,0,0,1,-450.46204071904396,-151.3241219080237Q0,0,367.29809998704246,301.50811887229275Z" fill="#F47D85" stroke="#000000" stroke-width="1" opacity="0.3"/><path d="M-185.14260885070883,-437.6496936911455A475.20000000000005,475.20000000000005,0,0,1,-23.75010123742635,-474.60612373968803Q0,0,-157.5098812939349,448.33656698374557A475.20000000000005,475.20000000000005,0,0,1,-249.50620235505605,404.4276140254988Q0,0,-185.14260885070883,-437.6496936911455Z" fill="#989E6A" stroke="#000000" stroke-width="1" opacity="0.3"/></g><g transform="translate(522.7200000000001, 0)"><g class="legend-item" transform="translate(0, -620)"><circle cx="20" cy="20" r="20" fill="#F0E6E4"/><text x="50" y="20" dy="0.35em" style="font-size: 28px; fill: rgb(0, 0, 0);">Rebeccaview Dolphins</text></g><g class="legend-item" transform="translate(0, -575)"><circle cx="20" cy="20" r="20" fill="#F7D8DF"/><text x="50" y="20" dy="0.35em" style="font-size: 28px; fill: rgb(0, 0, 0);">East Rovers</text></g><g class="legend-item" transform="translate(0, -530)"><circle cx="20" cy="20" r="20" fill="#F47D85"/><text x="50" y="20" dy="0.35em" style="font-size: 28px; fill: rgb(0, 0, 0);">Fosterborough Stars</text></g><g class="legend-item" transform="translate(0, -485)"><circle cx="20" cy="20" r="20" fill="#DF4C5B"/><text x="50" y="20" dy="0.35em" style="font-size: 28px; fill: rgb(0, 0, 0);">Poolechester Dynasty</text></g><g class="legend-item" transform="translate(0, -440)"><circle cx="20" cy="20" r="20" fill="#989E6A"/><text x="50" y="20" dy="0.35em" style="font-size: 28px; fill: rgb(0, 0, 0);">Cherylberg Sharks</text></g></g></g></svg>