<svg xmlns="http://www.w3.org/2000/svg" id="SVGChart" width="1920" height="1440" style="font-family: &quot;Times New Roman&quot;; color: rgb(0, 0, 0);"><rect x="0" y="0" width="1920" height="1440" fill="#ffffff"/><g transform="translate(960,770)"><text x="0" y="-660" text-anchor="middle" style="font-size: 48px;">Tourism Transit in Global Hubs (Million Tourists)</text><g><g class="group"><path fill="#E9B9AA" stroke="#000000" stroke-width="3" d="M0,-522.72A522.72,522.72,0,0,1,519.827,54.916L472.57,49.923A475.2,475.2,0,0,0,0,-475.2Z"/><path id="groupArc0" d="M619.274,65.421A622.72,622.72,0,0,0,0,-622.72A622.72,622.72,0,0,1,619.274,65.421Z" style="visibility: hidden;"/><text><textPath xmlns:ns1="http://www.w3.org/1999/xlink" ns1:href="#groupArc0" startOffset="75%" style="font-size: 36px; text-anchor: middle;">Hunterfort</textPath></text></g><g class="group"><path fill="#D98481" stroke="#000000" stroke-width="3" d="M516.433,80.828A522.72,522.72,0,0,1,-513.227,99.169L-466.57,90.153A475.2,475.2,0,0,0,469.485,73.48Z"/><path id="groupArc1" d="M625.11,97.837A632.72,632.72,0,0,1,-621.229,120.038A632.72,632.72,0,0,0,625.11,97.837Z" style="visibility: hidden;"/><text><textPath xmlns:ns2="http://www.w3.org/1999/xlink" ns2:href="#groupArc1" startOffset="75%" style="font-size: 36px; text-anchor: middle;">Vincentshire</textPath></text></g><g class="group"><path fill="#7892B5" stroke="#000000" stroke-width="3" d="M-517.542,73.394A522.72,522.72,0,0,1,-26.125,-522.067L-23.75,-474.606A475.2,475.2,0,0,0,-470.493,66.722Z"/><path id="groupArc2" d="M-31.123,-621.942A622.72,622.72,0,0,0,-616.551,87.435A622.72,622.72,0,0,1,-31.123,-621.942Z" style="visibility: hidden;"/><text><textPath xmlns:ns3="http://www.w3.org/1999/xlink" ns3:href="#groupArc2" startOffset="75%" style="font-size: 36px; text-anchor: middle;">Parkerside</textPath></text></g></g><g class="group-ticks"><g transform="&#10;                    rotate(-90)&#10;                    translate(522.7200000000001,0)&#10;                "><line stroke="#000000" stroke-width="3" x2="15"/><text x="20" dy="0.35em" style="text-anchor: start; font-size: 32px; fill: rgb(0, 0, 0);">0</text></g><g transform="&#10;                    rotate(-83.05662011007729)&#10;                    translate(522.7200000000001,0)&#10;                "><line stroke="#000000" stroke-width="1" x2="10"/></g><g transform="&#10;                    rotate(-76.11324022015458)&#10;                    translate(522.7200000000001,0)&#10;                "><line stroke="#000000" stroke-width="1" x2="10"/></g><g transform="&#10;                    rotate(-69.16986033023186)&#10;                    translate(522.7200000000001,0)&#10;                "><line stroke="#000000" stroke-width="1" x2="10"/></g><g transform="&#10;                    rotate(-62.226480440309146)&#10;                    translate(522.7200000000001,0)&#10;                "><line stroke="#000000" stroke-width="1" x2="10"/></g><g transform="&#10;                    rotate(-55.283100550386436)&#10;                    translate(522.7200000000001,0)&#10;                "><line stroke="#000000" stroke-width="3" x2="15"/><text x="20" dy="0.35em" style="text-anchor: start; font-size: 32px; fill: rgb(0, 0, 0);">295</text></g><g transform="&#10;                    rotate(-48.33972066046372)&#10;                    translate(522.7200000000001,0)&#10;                "><line stroke="#000000" stroke-width="1" x2="10"/></g><g transform="&#10;                    rotate(-41.39634077054101)&#10;                    translate(522.7200000000001,0)&#10;                "><line stroke="#000000" stroke-width="1" x2="10"/></g><g transform="&#10;                    rotate(-34.45296088061829)&#10;                    translate(522.7200000000001,0)&#10;                "><line stroke="#000000" stroke-width="1" x2="10"/></g><g transform="&#10;                    rotate(-27.509580990695582)&#10;                    translate(522.7200000000001,0)&#10;                "><line stroke="#000000" stroke-width="1" x2="10"/></g><g transform="&#10;                    rotate(-20.566201100772872)&#10;                    translate(522.7200000000001,0)&#10;                "><line stroke="#000000" stroke-width="3" x2="15"/><text x="20" dy="0.35em" style="text-anchor: start; font-size: 32px; fill: rgb(0, 0, 0);">590</text></g><g transform="&#10;                    rotate(-13.622821210850162)&#10;                    translate(522.7200000000001,0)&#10;                "><line stroke="#000000" stroke-width="1" x2="10"/></g><g transform="&#10;                    rotate(-6.679441320927438)&#10;                    translate(522.7200000000001,0)&#10;                "><line stroke="#000000" stroke-width="1" x2="10"/></g><g transform="&#10;                    rotate(0.263938568995286)&#10;                    translate(522.7200000000001,0)&#10;                "><line stroke="#000000" stroke-width="1" x2="10"/></g><g transform="&#10;                    rotate(8.89526338543267)&#10;                    translate(522.7200000000001,0)&#10;                "><line stroke="#000000" stroke-width="3" x2="15"/><text x="20" dy="0.35em" style="text-anchor: start; font-size: 32px; fill: rgb(0, 0, 0);">0</text></g><g transform="&#10;                    rotate(15.83864327535538)&#10;                    translate(522.7200000000001,0)&#10;                "><line stroke="#000000" stroke-width="1" x2="10"/></g><g transform="&#10;                    rotate(22.78202316527809)&#10;                    translate(522.7200000000001,0)&#10;                "><line stroke="#000000" stroke-width="1" x2="10"/></g><g transform="&#10;                    rotate(29.725403055200786)&#10;                    translate(522.7200000000001,0)&#10;                "><line stroke="#000000" stroke-width="1" x2="10"/></g><g transform="&#10;                    rotate(36.66878294512351)&#10;                    translate(522.7200000000001,0)&#10;                "><line stroke="#000000" stroke-width="1" x2="10"/></g><g transform="&#10;                    rotate(43.612162835046206)&#10;                    translate(522.7200000000001,0)&#10;                "><line stroke="#000000" stroke-width="3" x2="15"/><text x="20" dy="0.35em" style="text-anchor: start; font-size: 32px; fill: rgb(0, 0, 0);">295</text></g><g transform="&#10;                    rotate(50.555542724968944)&#10;                    translate(522.7200000000001,0)&#10;                "><line stroke="#000000" stroke-width="1" x2="10"/></g><g transform="&#10;                    rotate(57.498922614891654)&#10;                    translate(522.7200000000001,0)&#10;                "><line stroke="#000000" stroke-width="1" x2="10"/></g><g transform="&#10;                    rotate(64.44230250481439)&#10;                    translate(522.7200000000001,0)&#10;                "><line stroke="#000000" stroke-width="1" x2="10"/></g><g transform="&#10;                    rotate(71.38568239473707)&#10;                    translate(522.7200000000001,0)&#10;                "><line stroke="#000000" stroke-width="1" x2="10"/></g><g transform="&#10;                    rotate(78.32906228465981)&#10;                    translate(522.7200000000001,0)&#10;                "><line stroke="#000000" stroke-width="3" x2="15"/><text x="20" dy="0.35em" style="text-anchor: start; font-size: 32px; fill: rgb(0, 0, 0);">590</text></g><g transform="&#10;                    rotate(85.27244217458252)&#10;                    translate(522.7200000000001,0)&#10;                "><line stroke="#000000" stroke-width="1" x2="10"/></g><g transform="&#10;                    rotate(92.21582206450523)&#10;                    translate(522.7200000000001,0)&#10;                "><line stroke="#000000" stroke-width="1" x2="10"/></g><g transform="&#10;                    rotate(99.15920195442791)&#10;                    translate(522.7200000000001,0)&#10;                "><line stroke="#000000" stroke-width="1" x2="10"/></g><g transform="&#10;                    rotate(106.10258184435065)&#10;                    translate(522.7200000000001,0)&#10;                "><line stroke="#000000" stroke-width="1" x2="10"/></g><g transform="&#10;                    rotate(113.04596173427336)&#10;                    translate(522.7200000000001,0)&#10;                "><line stroke="#000000" stroke-width="3" x2="15"/><text x="20" dy="0.35em" transform="rotate(180) translate(-40)" style="text-anchor: end; font-size: 32px; fill: rgb(0, 0, 0);">885</text></g><g transform="&#10;                    rotate(119.9893416241961)&#10;                    translate(522.7200000000001,0)&#10;                "><line stroke="#000000" stroke-width="1" x2="10"/></g><g transform="&#10;                    rotate(126.93272151411878)&#10;                    translate(522.7200000000001,0)&#10;                "><line stroke="#000000" stroke-width="1" x2="10"/></g><g transform="&#10;                    rotate(133.87610140404152)&#10;                    translate(522.7200000000001,0)&#10;                "><line stroke="#000000" stroke-width="1" x2="10"/></g><g transform="&#10;                    rotate(140.8194812939642)&#10;                    translate(522.7200000000001,0)&#10;                "><line stroke="#000000" stroke-width="1" x2="10"/></g><g transform="&#10;                    rotate(147.7628611838869)&#10;                    translate(522.7200000000001,0)&#10;                "><line stroke="#000000" stroke-width="3" x2="15"/><text x="20" dy="0.35em" transform="rotate(180) translate(-40)" style="text-anchor: end; font-size: 32px; fill: rgb(0, 0, 0);">1180</text></g><g transform="&#10;                    rotate(154.70624107380965)&#10;                    translate(522.7200000000001,0)&#10;                "><line stroke="#000000" stroke-width="1" x2="10"/></g><g transform="&#10;                    rotate(161.64962096373236)&#10;                    translate(522.7200000000001,0)&#10;                "><line stroke="#000000" stroke-width="1" x2="10"/></g><g transform="&#10;                    rotate(168.59300085365504)&#10;                    translate(522.7200000000001,0)&#10;                "><line stroke="#000000" stroke-width="1" x2="10"/></g><g transform="&#10;                    rotate(171.92852744896493)&#10;                    translate(522.7200000000001,0)&#10;                "><line stroke="#000000" stroke-width="3" x2="15"/><text x="20" dy="0.35em" transform="rotate(180) translate(-40)" style="text-anchor: end; font-size: 32px; fill: rgb(0, 0, 0);">0</text></g><g transform="&#10;                    rotate(178.8719073388877)&#10;                    translate(522.7200000000001,0)&#10;                "><line stroke="#000000" stroke-width="1" x2="10"/></g><g transform="&#10;                    rotate(185.81528722881035)&#10;                    translate(522.7200000000001,0)&#10;                "><line stroke="#000000" stroke-width="1" x2="10"/></g><g transform="&#10;                    rotate(192.75866711873306)&#10;                    translate(522.7200000000001,0)&#10;                "><line stroke="#000000" stroke-width="1" x2="10"/></g><g transform="&#10;                    rotate(199.70204700865582)&#10;                    translate(522.7200000000001,0)&#10;                "><line stroke="#000000" stroke-width="1" x2="10"/></g><g transform="&#10;                    rotate(206.6454268985786)&#10;                    translate(522.7200000000001,0)&#10;                "><line stroke="#000000" stroke-width="3" x2="15"/><text x="20" dy="0.35em" transform="rotate(180) translate(-40)" style="text-anchor: end; font-size: 32px; fill: rgb(0, 0, 0);">295</text></g><g transform="&#10;                    rotate(213.58880678850124)&#10;                    translate(522.7200000000001,0)&#10;                "><line stroke="#000000" stroke-width="1" x2="10"/></g><g transform="&#10;                    rotate(220.5321866784239)&#10;                    translate(522.7200000000001,0)&#10;                "><line stroke="#000000" stroke-width="1" x2="10"/></g><g transform="&#10;                    rotate(227.47556656834666)&#10;                    translate(522.7200000000001,0)&#10;                "><line stroke="#000000" stroke-width="1" x2="10"/></g><g transform="&#10;                    rotate(234.41894645826937)&#10;                    translate(522.7200000000001,0)&#10;                "><line stroke="#000000" stroke-width="1" x2="10"/></g><g transform="&#10;                    rotate(241.36232634819214)&#10;                    translate(522.7200000000001,0)&#10;                "><line stroke="#000000" stroke-width="3" x2="15"/><text x="20" dy="0.35em" transform="rotate(180) translate(-40)" style="text-anchor: end; font-size: 32px; fill: rgb(0, 0, 0);">590</text></g><g transform="&#10;                    rotate(248.3057062381148)&#10;                    translate(522.7200000000001,0)&#10;                "><line stroke="#000000" stroke-width="1" x2="10"/></g><g transform="&#10;                    rotate(255.2490861280375)&#10;                    translate(522.7200000000001,0)&#10;                "><line stroke="#000000" stroke-width="1" x2="10"/></g><g transform="&#10;                    rotate(262.1924660179602)&#10;                    translate(522.7200000000001,0)&#10;                "><line stroke="#000000" stroke-width="1" x2="10"/></g></g><g class="chord"><path d="M469.48460433813005,73.479563753941A475.20000000000005,475.20000000000005,0,0,1,-348.5064601793373,323.0453330622005Q0,0,452.89575002021587,-143.87661246229771A475.20000000000005,475.20000000000005,0,0,1,472.57031838892897,49.92328292276422Q0,0,469.48460433813005,73.479563753941Z" fill="#D98481" stroke="#000000" stroke-width="1" opacity="0.3"/><path d="M2.909760794774111e-14,-475.20000000000005A475.20000000000005,475.20000000000005,0,0,1,452.89575002021587,-143.87661246229771Q0,0,-338.7420665067601,-333.26993920653837A475.20000000000005,475.20000000000005,0,0,1,-23.75010123742635,-474.60612373968803Q0,0,2.909760794774111e-14,-475.20000000000005Z" fill="#E9B9AA" stroke="#000000" stroke-width="1" opacity="0.3"/><path d="M-470.4925212162825,66.72201645293707A475.20000000000005,475.20000000000005,0,0,1,-338.7420665067601,-333.26993920653837Q0,0,-348.5064601793373,323.0453330622005A475.20000000000005,475.20000000000005,0,0,1,-466.56981712426403,90.15345666490484Q0,0,-470.4925212162825,66.72201645293707Z" fill="#7892B5" stroke="#000000" stroke-width="1" opacity="0.3"/></g><g transform="translate(522.7200000000001, 0)"><g class="legend-item" transform="translate(0, -620)"><circle cx="20" cy="20" r="20" fill="#E9B9AA"/><text x="50" y="20" dy="0.35em" style="font-size: 28px; fill: rgb(0, 0, 0);">Hunterfort</text></g><g class="legend-item" transform="translate(0, -575)"><circle cx="20" cy="20" r="20" fill="#D98481"/><text x="50" y="20" dy="0.35em" style="font-size: 28px; fill: rgb(0, 0, 0);">Vincentshire</text></g><g class="legend-item" transform="translate(0, -530)"><circle cx="20" cy="20" r="20" fill="#7892B5"/><text x="50" y="20" dy="0.35em" style="font-size: 28px; fill: rgb(0, 0, 0);">Parkerside</text></g></g></g></svg>