<svg xmlns="http://www.w3.org/2000/svg" id="SVGChart" width="1920" height="1440" style="font-family: &quot;Times New Roman&quot;; color: rgb(0, 0, 0);"><rect x="0" y="0" width="1920" height="1440" fill="#ffffff"/><g transform="translate(960,770)"><text x="0" y="-660" text-anchor="middle" style="font-size: 48px;">Tourism Transit in Global Hubs (Million Tourists)</text><g><g class="group"><path fill="#E3EAE1" stroke="#000000" stroke-width="3" d="M0,-522.72A522.72,522.72,0,1,1,-0.006,522.72L-0.006,475.2A475.2,475.2,0,1,0,0,-475.2Z"/><path id="groupArc0" d="M0,-632.72A632.72,632.72,0,1,1,-0.008,632.72A632.72,632.72,0,1,0,0,-632.72Z" style="visibility: hidden;"/><text><textPath xmlns:ns1="http://www.w3.org/1999/xlink" ns1:href="#groupArc0" startOffset="75%" style="font-size: 36px; text-anchor: middle;">Angelaview</textPath></text></g><g class="group"><path fill="#C2CDBC" stroke="#000000" stroke-width="3" d="M-26.131,522.066A522.72,522.72,0,0,1,-483.852,197.797L-439.865,179.816A475.2,475.2,0,0,0,-23.756,474.606Z"/><path id="groupArc1" d="M-31.63,631.929A632.72,632.72,0,0,1,-585.672,239.421A632.72,632.72,0,0,0,-31.63,631.929Z" style="visibility: hidden;"/><text><textPath xmlns:ns2="http://www.w3.org/1999/xlink" ns2:href="#groupArc1" startOffset="75%" style="font-size: 36px; text-anchor: middle;">Ryanmouth</textPath></text></g><g class="group"><path fill="#FBC7BC" stroke="#000000" stroke-width="3" d="M-493.133,173.368A522.72,522.72,0,0,1,-411.594,-322.221L-374.177,-292.928A475.2,475.2,0,0,0,-448.302,157.607Z"/><path id="groupArc2" d="M-490.335,-383.864A622.72,622.72,0,0,0,-587.472,206.534A622.72,622.72,0,0,1,-490.335,-383.864Z" style="visibility: hidden;"/><text><textPath xmlns:ns3="http://www.w3.org/1999/xlink" ns3:href="#groupArc2" startOffset="75%" style="font-size: 36px; text-anchor: middle;">Hunterfort</textPath></text></g><g class="group"><path fill="#DC8B76" stroke="#000000" stroke-width="3" d="M-394.976,-342.389A522.72,522.72,0,0,1,-171.758,-493.696L-156.144,-448.814A475.2,475.2,0,0,0,-359.069,-311.263Z"/><path id="groupArc3" d="M-204.616,-588.143A622.72,622.72,0,0,0,-470.537,-407.891A622.72,622.72,0,0,1,-204.616,-588.143Z" style="visibility: hidden;"/><text><textPath xmlns:ns4="http://www.w3.org/1999/xlink" ns4:href="#groupArc3" startOffset="75%" style="font-size: 36px; text-anchor: middle;">Vincentshire</textPath></text></g><g class="group"><path fill="#D2736C" stroke="#000000" stroke-width="3" d="M-146.869,-501.663A522.72,522.72,0,0,1,-26.125,-522.067L-23.75,-474.606A475.2,475.2,0,0,0,-133.517,-456.057Z"/><path id="groupArc4" d="M-31.123,-621.942A622.72,622.72,0,0,0,-174.966,-597.635A622.72,622.72,0,0,1,-31.123,-621.942Z" style="visibility: hidden;"/><text><textPath xmlns:ns5="http://www.w3.org/1999/xlink" ns5:href="#groupArc4" startOffset="75%" style="font-size: 36px; text-anchor: middle;">Brandon…</textPath></text></g></g><g class="group-ticks"><g transform="&#10;                    rotate(-90)&#10;                    translate(522.7200000000001,0)&#10;                "><line stroke="#000000" stroke-width="3" x2="15"/><text x="20" dy="0.35em" style="text-anchor: start; font-size: 32px; fill: rgb(0, 0, 0);">0</text></g><g transform="&#10;                    rotate(-83.14876287146122)&#10;                    translate(522.7200000000001,0)&#10;                "><line stroke="#000000" stroke-width="1" x2="10"/></g><g transform="&#10;                    rotate(-76.29752574292243)&#10;                    translate(522.7200000000001,0)&#10;                "><line stroke="#000000" stroke-width="1" x2="10"/></g><g transform="&#10;                    rotate(-69.44628861438366)&#10;                    translate(522.7200000000001,0)&#10;                "><line stroke="#000000" stroke-width="1" x2="10"/></g><g transform="&#10;                    rotate(-62.59505148584488)&#10;                    translate(522.7200000000001,0)&#10;                "><line stroke="#000000" stroke-width="1" x2="10"/></g><g transform="&#10;                    rotate(-55.74381435730609)&#10;                    translate(522.7200000000001,0)&#10;                "><line stroke="#000000" stroke-width="3" x2="15"/><text x="20" dy="0.35em" style="text-anchor: start; font-size: 32px; fill: rgb(0, 0, 0);">275</text></g><g transform="&#10;                    rotate(-48.89257722876731)&#10;                    translate(522.7200000000001,0)&#10;                "><line stroke="#000000" stroke-width="1" x2="10"/></g><g transform="&#10;                    rotate(-42.04134010022854)&#10;                    translate(522.7200000000001,0)&#10;                "><line stroke="#000000" stroke-width="1" x2="10"/></g><g transform="&#10;                    rotate(-35.19010297168975)&#10;                    translate(522.7200000000001,0)&#10;                "><line stroke="#000000" stroke-width="1" x2="10"/></g><g transform="&#10;                    rotate(-28.33886584315097)&#10;                    translate(522.7200000000001,0)&#10;                "><line stroke="#000000" stroke-width="1" x2="10"/></g><g transform="&#10;                    rotate(-21.487628714612185)&#10;                    translate(522.7200000000001,0)&#10;                "><line stroke="#000000" stroke-width="3" x2="15"/><text x="20" dy="0.35em" style="text-anchor: start; font-size: 32px; fill: rgb(0, 0, 0);">550</text></g><g transform="&#10;                    rotate(-14.636391586073415)&#10;                    translate(522.7200000000001,0)&#10;                "><line stroke="#000000" stroke-width="1" x2="10"/></g><g transform="&#10;                    rotate(-7.785154457534617)&#10;                    translate(522.7200000000001,0)&#10;                "><line stroke="#000000" stroke-width="1" x2="10"/></g><g transform="&#10;                    rotate(-0.9339173289958609)&#10;                    translate(522.7200000000001,0)&#10;                "><line stroke="#000000" stroke-width="1" x2="10"/></g><g transform="&#10;                    rotate(5.917319799542923)&#10;                    translate(522.7200000000001,0)&#10;                "><line stroke="#000000" stroke-width="1" x2="10"/></g><g transform="&#10;                    rotate(12.768556928081708)&#10;                    translate(522.7200000000001,0)&#10;                "><line stroke="#000000" stroke-width="3" x2="15"/><text x="20" dy="0.35em" style="text-anchor: start; font-size: 32px; fill: rgb(0, 0, 0);">825</text></g><g transform="&#10;                    rotate(19.619794056620506)&#10;                    translate(522.7200000000001,0)&#10;                "><line stroke="#000000" stroke-width="1" x2="10"/></g><g transform="&#10;                    rotate(26.47103118515929)&#10;                    translate(522.7200000000001,0)&#10;                "><line stroke="#000000" stroke-width="1" x2="10"/></g><g transform="&#10;                    rotate(33.32226831369806)&#10;                    translate(522.7200000000001,0)&#10;                "><line stroke="#000000" stroke-width="1" x2="10"/></g><g transform="&#10;                    rotate(40.17350544223683)&#10;                    translate(522.7200000000001,0)&#10;                "><line stroke="#000000" stroke-width="1" x2="10"/></g><g transform="&#10;                    rotate(47.02474257077563)&#10;                    translate(522.7200000000001,0)&#10;                "><line stroke="#000000" stroke-width="3" x2="15"/><text x="20" dy="0.35em" style="text-anchor: start; font-size: 32px; fill: rgb(0, 0, 0);">1100</text></g><g transform="&#10;                    rotate(53.87597969931443)&#10;                    translate(522.7200000000001,0)&#10;                "><line stroke="#000000" stroke-width="1" x2="10"/></g><g transform="&#10;                    rotate(60.72721682785317)&#10;                    translate(522.7200000000001,0)&#10;                "><line stroke="#000000" stroke-width="1" x2="10"/></g><g transform="&#10;                    rotate(67.57845395639197)&#10;                    translate(522.7200000000001,0)&#10;                "><line stroke="#000000" stroke-width="1" x2="10"/></g><g transform="&#10;                    rotate(74.42969108493077)&#10;                    translate(522.7200000000001,0)&#10;                "><line stroke="#000000" stroke-width="1" x2="10"/></g><g transform="&#10;                    rotate(81.28092821346954)&#10;                    translate(522.7200000000001,0)&#10;                "><line stroke="#000000" stroke-width="3" x2="15"/><text x="20" dy="0.35em" style="text-anchor: start; font-size: 32px; fill: rgb(0, 0, 0);">1375</text></g><g transform="&#10;                    rotate(88.13216534200828)&#10;                    translate(522.7200000000001,0)&#10;                "><line stroke="#000000" stroke-width="1" x2="10"/></g><g transform="&#10;                    rotate(92.86547353453662)&#10;                    translate(522.7200000000001,0)&#10;                "><line stroke="#000000" stroke-width="3" x2="15"/><text x="20" dy="0.35em" transform="rotate(180) translate(-40)" style="text-anchor: end; font-size: 32px; fill: rgb(0, 0, 0);">0</text></g><g transform="&#10;                    rotate(99.71671066307542)&#10;                    translate(522.7200000000001,0)&#10;                "><line stroke="#000000" stroke-width="1" x2="10"/></g><g transform="&#10;                    rotate(106.56794779161422)&#10;                    translate(522.7200000000001,0)&#10;                "><line stroke="#000000" stroke-width="1" x2="10"/></g><g transform="&#10;                    rotate(113.41918492015301)&#10;                    translate(522.7200000000001,0)&#10;                "><line stroke="#000000" stroke-width="1" x2="10"/></g><g transform="&#10;                    rotate(120.27042204869178)&#10;                    translate(522.7200000000001,0)&#10;                "><line stroke="#000000" stroke-width="1" x2="10"/></g><g transform="&#10;                    rotate(127.12165917723053)&#10;                    translate(522.7200000000001,0)&#10;                "><line stroke="#000000" stroke-width="3" x2="15"/><text x="20" dy="0.35em" transform="rotate(180) translate(-40)" style="text-anchor: end; font-size: 32px; fill: rgb(0, 0, 0);">275</text></g><g transform="&#10;                    rotate(133.97289630576935)&#10;                    translate(522.7200000000001,0)&#10;                "><line stroke="#000000" stroke-width="1" x2="10"/></g><g transform="&#10;                    rotate(140.82413343430807)&#10;                    translate(522.7200000000001,0)&#10;                "><line stroke="#000000" stroke-width="1" x2="10"/></g><g transform="&#10;                    rotate(147.67537056284687)&#10;                    translate(522.7200000000001,0)&#10;                "><line stroke="#000000" stroke-width="1" x2="10"/></g><g transform="&#10;                    rotate(154.52660769138566)&#10;                    translate(522.7200000000001,0)&#10;                "><line stroke="#000000" stroke-width="1" x2="10"/></g><g transform="&#10;                    rotate(160.63016330962176)&#10;                    translate(522.7200000000001,0)&#10;                "><line stroke="#000000" stroke-width="3" x2="15"/><text x="20" dy="0.35em" transform="rotate(180) translate(-40)" style="text-anchor: end; font-size: 32px; fill: rgb(0, 0, 0);">0</text></g><g transform="&#10;                    rotate(167.48140043816056)&#10;                    translate(522.7200000000001,0)&#10;                "><line stroke="#000000" stroke-width="1" x2="10"/></g><g transform="&#10;                    rotate(174.33263756669936)&#10;                    translate(522.7200000000001,0)&#10;                "><line stroke="#000000" stroke-width="1" x2="10"/></g><g transform="&#10;                    rotate(181.1838746952381)&#10;                    translate(522.7200000000001,0)&#10;                "><line stroke="#000000" stroke-width="1" x2="10"/></g><g transform="&#10;                    rotate(188.03511182377696)&#10;                    translate(522.7200000000001,0)&#10;                "><line stroke="#000000" stroke-width="1" x2="10"/></g><g transform="&#10;                    rotate(194.8863489523157)&#10;                    translate(522.7200000000001,0)&#10;                "><line stroke="#000000" stroke-width="3" x2="15"/><text x="20" dy="0.35em" transform="rotate(180) translate(-40)" style="text-anchor: end; font-size: 32px; fill: rgb(0, 0, 0);">275</text></g><g transform="&#10;                    rotate(201.73758608085438)&#10;                    translate(522.7200000000001,0)&#10;                "><line stroke="#000000" stroke-width="1" x2="10"/></g><g transform="&#10;                    rotate(208.58882320939324)&#10;                    translate(522.7200000000001,0)&#10;                "><line stroke="#000000" stroke-width="1" x2="10"/></g><g transform="&#10;                    rotate(215.44006033793204)&#10;                    translate(522.7200000000001,0)&#10;                "><line stroke="#000000" stroke-width="1" x2="10"/></g><g transform="&#10;                    rotate(220.92077621721)&#10;                    translate(522.7200000000001,0)&#10;                "><line stroke="#000000" stroke-width="3" x2="15"/><text x="20" dy="0.35em" transform="rotate(180) translate(-40)" style="text-anchor: end; font-size: 32px; fill: rgb(0, 0, 0);">0</text></g><g transform="&#10;                    rotate(227.7720133457488)&#10;                    translate(522.7200000000001,0)&#10;                "><line stroke="#000000" stroke-width="1" x2="10"/></g><g transform="&#10;                    rotate(234.6232504742876)&#10;                    translate(522.7200000000001,0)&#10;                "><line stroke="#000000" stroke-width="1" x2="10"/></g><g transform="&#10;                    rotate(241.4744876028264)&#10;                    translate(522.7200000000001,0)&#10;                "><line stroke="#000000" stroke-width="1" x2="10"/></g><g transform="&#10;                    rotate(248.3257247313652)&#10;                    translate(522.7200000000001,0)&#10;                "><line stroke="#000000" stroke-width="1" x2="10"/></g><g transform="&#10;                    rotate(253.6818726628515)&#10;                    translate(522.7200000000001,0)&#10;                "><line stroke="#000000" stroke-width="3" x2="15"/><text x="20" dy="0.35em" transform="rotate(180) translate(-40)" style="text-anchor: end; font-size: 32px; fill: rgb(0, 0, 0);">0</text></g><g transform="&#10;                    rotate(260.53310979139025)&#10;                    translate(522.7200000000001,0)&#10;                "><line stroke="#000000" stroke-width="1" x2="10"/></g></g><g class="chord"><path d="M2.909760794774111e-14,-475.20000000000005A475.20000000000005,475.20000000000005,0,0,1,429.8842479938979,202.5205503812414Q0,0,-23.75577173782491,474.60583994420085A475.20000000000005,475.20000000000005,0,0,1,-404.2976392114175,249.7167574034121Q0,0,2.909760794774111e-14,-475.20000000000005Z" fill="#E3EAE1" stroke="#000000" stroke-width="1" opacity="0.3"/><path d="M-448.3024412252628,157.60698332075853A475.20000000000005,475.20000000000005,0,0,1,-456.20037859551763,-133.0272700212494Q0,0,429.8842479938979,202.5205503812414A475.20000000000005,475.20000000000005,0,0,1,291.69867113292264,375.13587572943095Q0,0,-448.3024412252628,157.60698332075853Z" fill="#FBC7BC" stroke="#000000" stroke-width="1" opacity="0.3"/><path d="M291.69867113292264,375.13587572943095A475.20000000000005,475.20000000000005,0,0,1,125.56184577397008,458.3113165587708Q0,0,-359.06872400289484,-311.2630582689391A475.20000000000005,475.20000000000005,0,0,1,-237.74599221335868,-411.45094870043215Q0,0,291.69867113292264,375.13587572943095Z" fill="#E3EAE1" stroke="#000000" stroke-width="1" opacity="0.3"/><path d="M125.56184577397008,458.3113165587708A475.20000000000005,475.20000000000005,0,0,1,-0.005677597612412869,475.19999996608266Q0,0,-133.51711493695075,-456.05725519819674A475.20000000000005,475.20000000000005,0,0,1,-23.75010123742677,-474.606123739688Q0,0,125.56184577397008,458.3113165587708Z" fill="#E3EAE1" stroke="#000000" stroke-width="1" opacity="0.3"/><path d="M-419.7090725177232,-222.84374446304886A475.20000000000005,475.20000000000005,0,0,1,-374.17665067451173,-292.9281039606894Q0,0,-404.2976392114175,249.7167574034121A475.20000000000005,475.20000000000005,0,0,1,-439.8651138118011,179.81579922612835Q0,0,-419.7090725177232,-222.84374446304886Z" fill="#FBC7BC" stroke="#000000" stroke-width="1" opacity="0.3"/><path d="M-456.20037859551763,-133.0272700212494A475.20000000000005,475.20000000000005,0,0,1,-419.7090725177232,-222.84374446304886Q0,0,-237.74599221335868,-411.45094870043215A475.20000000000005,475.20000000000005,0,0,1,-156.14361606513575,-448.8142278962461Q0,0,-456.20037859551763,-133.0272700212494Z" fill="#FBC7BC" stroke="#000000" stroke-width="1" opacity="0.3"/></g><g transform="translate(522.7200000000001, 0)"><g class="legend-item" transform="translate(0, -620)"><circle cx="20" cy="20" r="20" fill="#E3EAE1"/><text x="50" y="20" dy="0.35em" style="font-size: 28px; fill: rgb(0, 0, 0);">Angelaview</text></g><g class="legend-item" transform="translate(0, -575)"><circle cx="20" cy="20" r="20" fill="#C2CDBC"/><text x="50" y="20" dy="0.35em" style="font-size: 28px; fill: rgb(0, 0, 0);">Ryanmouth</text></g><g class="legend-item" transform="translate(0, -530)"><circle cx="20" cy="20" r="20" fill="#FBC7BC"/><text x="50" y="20" dy="0.35em" style="font-size: 28px; fill: rgb(0, 0, 0);">Hunterfort</text></g><g class="legend-item" transform="translate(0, -485)"><circle cx="20" cy="20" r="20" fill="#DC8B76"/><text x="50" y="20" dy="0.35em" style="font-size: 28px; fill: rgb(0, 0, 0);">Vincentshire</text></g><g class="legend-item" transform="translate(0, -440)"><circle cx="20" cy="20" r="20" fill="#D2736C"/><text x="50" y="20" dy="0.35em" style="font-size: 28px; fill: rgb(0, 0, 0);">Brandonburgh</text></g></g></g></svg>