<svg xmlns="http://www.w3.org/2000/svg" id="SVGChart" width="1920" height="1440" style="font-family: &quot;Times New Roman&quot;; color: rgb(0, 0, 0);"><rect x="0" y="0" width="1920" height="1440" fill="#ffffff"/><g transform="translate(960,770)"><text x="0" y="-660" text-anchor="middle" style="font-size: 48px;">Passenger Station Transfer Flow (Thousand Passengers)</text><g><g class="group"><path fill="#E3EAE1" stroke="#000000" stroke-width="3" d="M0,-522.72A522.72,522.72,0,0,1,521.987,27.671L474.534,25.156A475.2,475.2,0,0,0,0,-475.2Z"/><path id="groupArc0" d="M621.847,32.965A622.72,622.72,0,0,0,0,-622.72A622.72,622.72,0,0,1,621.847,32.965Z" style="visibility: hidden;"/><text><textPath xmlns:ns1="http://www.w3.org/1999/xlink" ns1:href="#groupArc0" startOffset="75%" style="font-size: 36px; text-anchor: middle;">Central Station</textPath></text></g><g class="group"><path fill="#C2CDBC" stroke="#000000" stroke-width="3" d="M519.952,53.725A522.72,522.72,0,0,1,469.999,228.773L427.272,207.976A475.2,475.2,0,0,0,472.683,48.841Z"/><path id="groupArc1" d="M629.369,65.031A632.72,632.72,0,0,1,568.904,276.916A632.72,632.72,0,0,0,629.369,65.031Z" style="visibility: hidden;"/><text><textPath xmlns:ns2="http://www.w3.org/1999/xlink" ns2:href="#groupArc1" startOffset="75%" style="font-size: 36px; text-anchor: middle;">Metro Center</textPath></text></g><g class="group"><path fill="#FBC7BC" stroke="#000000" stroke-width="3" d="M457.978,251.977A522.72,522.72,0,0,1,-379.901,359.043L-345.364,326.402A475.2,475.2,0,0,0,416.343,229.07Z"/><path id="groupArc2" d="M554.353,305.003A632.72,632.72,0,0,1,-459.846,434.599A632.72,632.72,0,0,0,554.353,305.003Z" style="visibility: hidden;"/><text><textPath xmlns:ns3="http://www.w3.org/1999/xlink" ns3:href="#groupArc2" startOffset="75%" style="font-size: 36px; text-anchor: middle;">Grand Terminal</textPath></text></g><g class="group"><path fill="#DC8B76" stroke="#000000" stroke-width="3" d="M-397.371,339.607A522.72,522.72,0,0,1,-413.292,-320.041L-375.72,-290.946A475.2,475.2,0,0,0,-361.246,308.733Z"/><path id="groupArc3" d="M-480.992,411.073A632.72,632.72,0,0,1,-500.264,-387.39A632.72,632.72,0,0,0,-480.992,411.073Z" style="visibility: hidden;"/><text><textPath xmlns:ns4="http://www.w3.org/1999/xlink" ns4:href="#groupArc3" startOffset="75%" style="font-size: 36px; text-anchor: middle;">East Junction</textPath></text></g><g class="group"><path fill="#D2736C" stroke="#000000" stroke-width="3" d="M-396.78,-340.297A522.72,522.72,0,0,1,-26.125,-522.067L-23.75,-474.606A475.2,475.2,0,0,0,-360.709,-309.361Z"/><path id="groupArc4" d="M-31.123,-621.942A622.72,622.72,0,0,0,-472.686,-405.398A622.72,622.72,0,0,1,-31.123,-621.942Z" style="visibility: hidden;"/><text><textPath xmlns:ns5="http://www.w3.org/1999/xlink" ns5:href="#groupArc4" startOffset="75%" style="font-size: 36px; text-anchor: middle;">Harbor Point</textPath></text></g></g><g class="group-ticks"><g transform="&#10;                    rotate(-90)&#10;                    translate(522.7200000000001,0)&#10;                "><line stroke="#000000" stroke-width="3" x2="15"/><text x="20" dy="0.35em" style="text-anchor: start; font-size: 32px; fill: rgb(0, 0, 0);">0</text></g><g transform="&#10;                    rotate(-83.3148869275411)&#10;                    translate(522.7200000000001,0)&#10;                "><line stroke="#000000" stroke-width="1" x2="10"/></g><g transform="&#10;                    rotate(-76.62977385508218)&#10;                    translate(522.7200000000001,0)&#10;                "><line stroke="#000000" stroke-width="1" x2="10"/></g><g transform="&#10;                    rotate(-69.94466078262327)&#10;                    translate(522.7200000000001,0)&#10;                "><line stroke="#000000" stroke-width="1" x2="10"/></g><g transform="&#10;                    rotate(-63.25954771016436)&#10;                    translate(522.7200000000001,0)&#10;                "><line stroke="#000000" stroke-width="1" x2="10"/></g><g transform="&#10;                    rotate(-56.57443463770545)&#10;                    translate(522.7200000000001,0)&#10;                "><line stroke="#000000" stroke-width="3" x2="15"/><text x="20" dy="0.35em" style="text-anchor: start; font-size: 32px; fill: rgb(0, 0, 0);">120</text></g><g transform="&#10;                    rotate(-49.88932156524654)&#10;                    translate(522.7200000000001,0)&#10;                "><line stroke="#000000" stroke-width="1" x2="10"/></g><g transform="&#10;                    rotate(-43.204208492787636)&#10;                    translate(522.7200000000001,0)&#10;                "><line stroke="#000000" stroke-width="1" x2="10"/></g><g transform="&#10;                    rotate(-36.519095420328725)&#10;                    translate(522.7200000000001,0)&#10;                "><line stroke="#000000" stroke-width="1" x2="10"/></g><g transform="&#10;                    rotate(-29.83398234786982)&#10;                    translate(522.7200000000001,0)&#10;                "><line stroke="#000000" stroke-width="1" x2="10"/></g><g transform="&#10;                    rotate(-23.148869275410902)&#10;                    translate(522.7200000000001,0)&#10;                "><line stroke="#000000" stroke-width="3" x2="15"/><text x="20" dy="0.35em" style="text-anchor: start; font-size: 32px; fill: rgb(0, 0, 0);">240</text></g><g transform="&#10;                    rotate(-16.463756202951984)&#10;                    translate(522.7200000000001,0)&#10;                "><line stroke="#000000" stroke-width="1" x2="10"/></g><g transform="&#10;                    rotate(-9.77864313049308)&#10;                    translate(522.7200000000001,0)&#10;                "><line stroke="#000000" stroke-width="1" x2="10"/></g><g transform="&#10;                    rotate(-3.093530058034162)&#10;                    translate(522.7200000000001,0)&#10;                "><line stroke="#000000" stroke-width="1" x2="10"/></g><g transform="&#10;                    rotate(5.8992792340406055)&#10;                    translate(522.7200000000001,0)&#10;                "><line stroke="#000000" stroke-width="3" x2="15"/><text x="20" dy="0.35em" style="text-anchor: start; font-size: 32px; fill: rgb(0, 0, 0);">0</text></g><g transform="&#10;                    rotate(12.58439230649951)&#10;                    translate(522.7200000000001,0)&#10;                "><line stroke="#000000" stroke-width="1" x2="10"/></g><g transform="&#10;                    rotate(19.269505378958428)&#10;                    translate(522.7200000000001,0)&#10;                "><line stroke="#000000" stroke-width="1" x2="10"/></g><g transform="&#10;                    rotate(25.954618451417318)&#10;                    translate(522.7200000000001,0)&#10;                "><line stroke="#000000" stroke-width="1" x2="10"/></g><g transform="&#10;                    rotate(28.81940742707144)&#10;                    translate(522.7200000000001,0)&#10;                "><line stroke="#000000" stroke-width="3" x2="15"/><text x="20" dy="0.35em" style="text-anchor: start; font-size: 32px; fill: rgb(0, 0, 0);">0</text></g><g transform="&#10;                    rotate(35.50452049953036)&#10;                    translate(522.7200000000001,0)&#10;                "><line stroke="#000000" stroke-width="1" x2="10"/></g><g transform="&#10;                    rotate(42.18963357198925)&#10;                    translate(522.7200000000001,0)&#10;                "><line stroke="#000000" stroke-width="1" x2="10"/></g><g transform="&#10;                    rotate(48.87474664444815)&#10;                    translate(522.7200000000001,0)&#10;                "><line stroke="#000000" stroke-width="1" x2="10"/></g><g transform="&#10;                    rotate(55.559859716907084)&#10;                    translate(522.7200000000001,0)&#10;                "><line stroke="#000000" stroke-width="1" x2="10"/></g><g transform="&#10;                    rotate(62.24497278936596)&#10;                    translate(522.7200000000001,0)&#10;                "><line stroke="#000000" stroke-width="3" x2="15"/><text x="20" dy="0.35em" style="text-anchor: start; font-size: 32px; fill: rgb(0, 0, 0);">120</text></g><g transform="&#10;                    rotate(68.93008586182489)&#10;                    translate(522.7200000000001,0)&#10;                "><line stroke="#000000" stroke-width="1" x2="10"/></g><g transform="&#10;                    rotate(75.6151989342838)&#10;                    translate(522.7200000000001,0)&#10;                "><line stroke="#000000" stroke-width="1" x2="10"/></g><g transform="&#10;                    rotate(82.3003120067427)&#10;                    translate(522.7200000000001,0)&#10;                "><line stroke="#000000" stroke-width="1" x2="10"/></g><g transform="&#10;                    rotate(88.98542507920158)&#10;                    translate(522.7200000000001,0)&#10;                "><line stroke="#000000" stroke-width="1" x2="10"/></g><g transform="&#10;                    rotate(95.67053815166054)&#10;                    translate(522.7200000000001,0)&#10;                "><line stroke="#000000" stroke-width="3" x2="15"/><text x="20" dy="0.35em" transform="rotate(180) translate(-40)" style="text-anchor: end; font-size: 32px; fill: rgb(0, 0, 0);">240</text></g><g transform="&#10;                    rotate(102.35565122411941)&#10;                    translate(522.7200000000001,0)&#10;                "><line stroke="#000000" stroke-width="1" x2="10"/></g><g transform="&#10;                    rotate(109.04076429657837)&#10;                    translate(522.7200000000001,0)&#10;                "><line stroke="#000000" stroke-width="1" x2="10"/></g><g transform="&#10;                    rotate(115.72587736903725)&#10;                    translate(522.7200000000001,0)&#10;                "><line stroke="#000000" stroke-width="1" x2="10"/></g><g transform="&#10;                    rotate(122.41099044149615)&#10;                    translate(522.7200000000001,0)&#10;                "><line stroke="#000000" stroke-width="1" x2="10"/></g><g transform="&#10;                    rotate(129.09610351395506)&#10;                    translate(522.7200000000001,0)&#10;                "><line stroke="#000000" stroke-width="3" x2="15"/><text x="20" dy="0.35em" transform="rotate(180) translate(-40)" style="text-anchor: end; font-size: 32px; fill: rgb(0, 0, 0);">360</text></g><g transform="&#10;                    rotate(135.781216586414)&#10;                    translate(522.7200000000001,0)&#10;                "><line stroke="#000000" stroke-width="1" x2="10"/></g><g transform="&#10;                    rotate(139.48164469612547)&#10;                    translate(522.7200000000001,0)&#10;                "><line stroke="#000000" stroke-width="3" x2="15"/><text x="20" dy="0.35em" transform="rotate(180) translate(-40)" style="text-anchor: end; font-size: 32px; fill: rgb(0, 0, 0);">0</text></g><g transform="&#10;                    rotate(146.1667577685844)&#10;                    translate(522.7200000000001,0)&#10;                "><line stroke="#000000" stroke-width="1" x2="10"/></g><g transform="&#10;                    rotate(152.8518708410433)&#10;                    translate(522.7200000000001,0)&#10;                "><line stroke="#000000" stroke-width="1" x2="10"/></g><g transform="&#10;                    rotate(159.53698391350218)&#10;                    translate(522.7200000000001,0)&#10;                "><line stroke="#000000" stroke-width="1" x2="10"/></g><g transform="&#10;                    rotate(166.22209698596112)&#10;                    translate(522.7200000000001,0)&#10;                "><line stroke="#000000" stroke-width="1" x2="10"/></g><g transform="&#10;                    rotate(172.90721005842)&#10;                    translate(522.7200000000001,0)&#10;                "><line stroke="#000000" stroke-width="3" x2="15"/><text x="20" dy="0.35em" transform="rotate(180) translate(-40)" style="text-anchor: end; font-size: 32px; fill: rgb(0, 0, 0);">120</text></g><g transform="&#10;                    rotate(179.59232313087892)&#10;                    translate(522.7200000000001,0)&#10;                "><line stroke="#000000" stroke-width="1" x2="10"/></g><g transform="&#10;                    rotate(186.27743620333786)&#10;                    translate(522.7200000000001,0)&#10;                "><line stroke="#000000" stroke-width="1" x2="10"/></g><g transform="&#10;                    rotate(192.9625492757968)&#10;                    translate(522.7200000000001,0)&#10;                "><line stroke="#000000" stroke-width="1" x2="10"/></g><g transform="&#10;                    rotate(199.6476623482556)&#10;                    translate(522.7200000000001,0)&#10;                "><line stroke="#000000" stroke-width="1" x2="10"/></g><g transform="&#10;                    rotate(206.3327754207146)&#10;                    translate(522.7200000000001,0)&#10;                "><line stroke="#000000" stroke-width="3" x2="15"/><text x="20" dy="0.35em" transform="rotate(180) translate(-40)" style="text-anchor: end; font-size: 32px; fill: rgb(0, 0, 0);">240</text></g><g transform="&#10;                    rotate(213.01788849317347)&#10;                    translate(522.7200000000001,0)&#10;                "><line stroke="#000000" stroke-width="1" x2="10"/></g><g transform="&#10;                    rotate(220.61796589515262)&#10;                    translate(522.7200000000001,0)&#10;                "><line stroke="#000000" stroke-width="3" x2="15"/><text x="20" dy="0.35em" transform="rotate(180) translate(-40)" style="text-anchor: end; font-size: 32px; fill: rgb(0, 0, 0);">0</text></g><g transform="&#10;                    rotate(227.30307896761155)&#10;                    translate(522.7200000000001,0)&#10;                "><line stroke="#000000" stroke-width="1" x2="10"/></g><g transform="&#10;                    rotate(233.98819204007043)&#10;                    translate(522.7200000000001,0)&#10;                "><line stroke="#000000" stroke-width="1" x2="10"/></g><g transform="&#10;                    rotate(240.67330511252936)&#10;                    translate(522.7200000000001,0)&#10;                "><line stroke="#000000" stroke-width="1" x2="10"/></g><g transform="&#10;                    rotate(247.35841818498824)&#10;                    translate(522.7200000000001,0)&#10;                "><line stroke="#000000" stroke-width="1" x2="10"/></g><g transform="&#10;                    rotate(254.04353125744723)&#10;                    translate(522.7200000000001,0)&#10;                "><line stroke="#000000" stroke-width="3" x2="15"/><text x="20" dy="0.35em" transform="rotate(180) translate(-40)" style="text-anchor: end; font-size: 32px; fill: rgb(0, 0, 0);">120</text></g><g transform="&#10;                    rotate(260.7286443299061)&#10;                    translate(522.7200000000001,0)&#10;                "><line stroke="#000000" stroke-width="1" x2="10"/></g></g><g class="chord"><path d="M357.25030246702363,-313.348466387216A475.20000000000005,475.20000000000005,0,0,1,475.1931310801656,-2.5550292030849926Q0,0,472.68339313936696,48.84106725138871A475.20000000000005,475.20000000000005,0,0,1,427.2717934397572,207.9756104228895Q0,0,357.25030246702363,-313.348466387216Z" fill="#E3EAE1" stroke="#000000" stroke-width="1" opacity="0.3"/><path d="M416.3433667198835,229.0703843545748A475.20000000000005,475.20000000000005,0,0,1,81.92994935621002,468.0838850019181Q0,0,2.909760794774111e-14,-475.20000000000005A475.20000000000005,475.20000000000005,0,0,1,357.25030246702363,-313.348466387216Q0,0,416.3433667198835,229.0703843545748Z" fill="#FBC7BC" stroke="#000000" stroke-width="1" opacity="0.3"/><path d="M-472.8503590260837,47.197224165238595A475.20000000000005,475.20000000000005,0,0,1,-432.81527063768635,-196.178443012545Q0,0,475.1931310801656,-2.5550292030849926A475.20000000000005,475.20000000000005,0,0,1,474.5336979498367,25.155705318141496Q0,0,-472.8503590260837,47.197224165238595Z" fill="#DC8B76" stroke="#000000" stroke-width="1" opacity="0.3"/><path d="M-361.24602739131353,308.7334573608672A475.20000000000005,475.20000000000005,0,0,1,-472.8503590260837,47.197224165238595Q0,0,-285.10563389150377,380.1707741572514A475.20000000000005,475.20000000000005,0,0,1,-345.3643221987609,326.402397283155Q0,0,-361.24602739131353,308.7334573608672Z" fill="#DC8B76" stroke="#000000" stroke-width="1" opacity="0.3"/><path d="M81.92994935621002,468.0838850019181A475.20000000000005,475.20000000000005,0,0,1,-285.10563389150377,380.1707741572514Q0,0,-195.64882765983376,-433.0549344313406A475.20000000000005,475.20000000000005,0,0,1,-23.75010123742635,-474.60612373968803Q0,0,81.92994935621002,468.0838850019181Z" fill="#FBC7BC" stroke="#000000" stroke-width="1" opacity="0.3"/><path d="M-360.70873849118294,-309.361028534784A475.20000000000005,475.20000000000005,0,0,1,-195.64882765983376,-433.0549344313406Q0,0,-432.81527063768635,-196.178443012545A475.20000000000005,475.20000000000005,0,0,1,-375.7195537056998,-290.9464847067065Q0,0,-360.70873849118294,-309.361028534784Z" fill="#D2736C" stroke="#000000" stroke-width="1" opacity="0.3"/></g><g transform="translate(522.7200000000001, 0)"><g class="legend-item" transform="translate(0, -620)"><circle cx="20" cy="20" r="20" fill="#E3EAE1"/><text x="50" y="20" dy="0.35em" style="font-size: 28px; fill: rgb(0, 0, 0);">Central Station</text></g><g class="legend-item" transform="translate(0, -575)"><circle cx="20" cy="20" r="20" fill="#C2CDBC"/><text x="50" y="20" dy="0.35em" style="font-size: 28px; fill: rgb(0, 0, 0);">Metro Center</text></g><g class="legend-item" transform="translate(0, -530)"><circle cx="20" cy="20" r="20" fill="#FBC7BC"/><text x="50" y="20" dy="0.35em" style="font-size: 28px; fill: rgb(0, 0, 0);">Grand Terminal</text></g><g class="legend-item" transform="translate(0, -485)"><circle cx="20" cy="20" r="20" fill="#DC8B76"/><text x="50" y="20" dy="0.35em" style="font-size: 28px; fill: rgb(0, 0, 0);">East Junction</text></g><g class="legend-item" transform="translate(0, -440)"><circle cx="20" cy="20" r="20" fill="#D2736C"/><text x="50" y="20" dy="0.35em" style="font-size: 28px; fill: rgb(0, 0, 0);">Harbor Point</text></g></g></g></svg>