<svg xmlns="http://www.w3.org/2000/svg" id="SVGChart" width="1920" height="1440" style="font-family: &quot;Times New Roman&quot;; color: rgb(0, 0, 0);"><rect x="0" y="0" width="1920" height="1440" fill="#ffffff"/><g transform="translate(960,770)"><text x="0" y="-660" text-anchor="middle" style="font-size: 48px;">Restaurant Customer Flow (Customers)</text><g><g class="group"><path fill="#91AEB0" stroke="#000000" stroke-width="3" d="M0,-522.72A522.72,522.72,0,1,1,-11.276,522.598L-10.251,475.089A475.2,475.2,0,1,0,0,-475.2Z"/><path id="groupArc0" d="M0,-632.72A632.72,632.72,0,1,1,-13.649,632.573A632.72,632.72,0,1,0,0,-632.72Z" style="visibility: hidden;"/><text><textPath xmlns:ns1="http://www.w3.org/1999/xlink" ns1:href="#groupArc0" startOffset="75%" style="font-size: 36px; text-anchor: middle;">Danielle's Chicken</textPath></text></g><g class="group"><path fill="#364A62" stroke="#000000" stroke-width="3" d="M-37.381,521.382A522.72,522.72,0,0,1,-493.475,172.389L-448.614,156.718A475.2,475.2,0,0,0,-33.983,473.983Z"/><path id="groupArc1" d="M-45.248,631.1A632.72,632.72,0,0,1,-597.321,208.667A632.72,632.72,0,0,0,-45.248,631.1Z" style="visibility: hidden;"/><text><textPath xmlns:ns2="http://www.w3.org/1999/xlink" ns2:href="#groupArc1" startOffset="75%" style="font-size: 36px; text-anchor: middle;">Cisnerosfurt Sandwich</textPath></text></g><g class="group"><path fill="#E3B386" stroke="#000000" stroke-width="3" d="M-501.475,147.511A522.72,522.72,0,0,1,-485.317,-194.175L-441.197,-176.523A475.2,475.2,0,0,0,-455.886,134.1Z"/><path id="groupArc2" d="M-578.161,-231.322A622.72,622.72,0,0,0,-597.41,175.73A622.72,622.72,0,0,1,-578.161,-231.322Z" style="visibility: hidden;"/><text><textPath xmlns:ns3="http://www.w3.org/1999/xlink" ns3:href="#groupArc2" startOffset="75%" style="font-size: 36px; text-anchor: middle;">Christopher's Tacos</textPath></text></g><g class="group"><path fill="#DC8E75" stroke="#000000" stroke-width="3" d="M-475.006,-218.188A522.72,522.72,0,0,1,-272.853,-445.856L-248.048,-405.323A475.2,475.2,0,0,0,-431.823,-198.353Z"/><path id="groupArc3" d="M-325.052,-531.151A622.72,622.72,0,0,0,-565.877,-259.929A622.72,622.72,0,0,1,-325.052,-531.151Z" style="visibility: hidden;"/><text><textPath xmlns:ns4="http://www.w3.org/1999/xlink" ns4:href="#groupArc3" startOffset="75%" style="font-size: 36px; text-anchor: middle;">Crystalbury Coffee</textPath></text></g><g class="group"><path fill="#B5594B" stroke="#000000" stroke-width="3" d="M-250.229,-458.936A522.72,522.72,0,0,1,-26.125,-522.067L-23.75,-474.606A475.2,475.2,0,0,0,-227.481,-417.214Z"/><path id="groupArc4" d="M-31.123,-621.942A622.72,622.72,0,0,0,-298.099,-546.733A622.72,622.72,0,0,1,-31.123,-621.942Z" style="visibility: hidden;"/><text><textPath xmlns:ns5="http://www.w3.org/1999/xlink" ns5:href="#groupArc4" startOffset="75%" style="font-size: 36px; text-anchor: middle;">Kyle's Salads</textPath></text></g></g><g class="group-ticks"><g transform="&#10;                    rotate(-90)&#10;                    translate(522.7200000000001,0)&#10;                "><line stroke="#000000" stroke-width="3" x2="15"/><text x="20" dy="0.35em" style="text-anchor: start; font-size: 32px; fill: rgb(0, 0, 0);">0</text></g><g transform="&#10;                    rotate(-83.2273500172075)&#10;                    translate(522.7200000000001,0)&#10;                "><line stroke="#000000" stroke-width="1" x2="10"/></g><g transform="&#10;                    rotate(-76.454700034415)&#10;                    translate(522.7200000000001,0)&#10;                "><line stroke="#000000" stroke-width="1" x2="10"/></g><g transform="&#10;                    rotate(-69.68205005162248)&#10;                    translate(522.7200000000001,0)&#10;                "><line stroke="#000000" stroke-width="1" x2="10"/></g><g transform="&#10;                    rotate(-62.90940006882998)&#10;                    translate(522.7200000000001,0)&#10;                "><line stroke="#000000" stroke-width="1" x2="10"/></g><g transform="&#10;                    rotate(-56.13675008603748)&#10;                    translate(522.7200000000001,0)&#10;                "><line stroke="#000000" stroke-width="3" x2="15"/><text x="20" dy="0.35em" style="text-anchor: start; font-size: 32px; fill: rgb(0, 0, 0);">125</text></g><g transform="&#10;                    rotate(-49.36410010324497)&#10;                    translate(522.7200000000001,0)&#10;                "><line stroke="#000000" stroke-width="1" x2="10"/></g><g transform="&#10;                    rotate(-42.59145012045247)&#10;                    translate(522.7200000000001,0)&#10;                "><line stroke="#000000" stroke-width="1" x2="10"/></g><g transform="&#10;                    rotate(-35.81880013765997)&#10;                    translate(522.7200000000001,0)&#10;                "><line stroke="#000000" stroke-width="1" x2="10"/></g><g transform="&#10;                    rotate(-29.046150154867462)&#10;                    translate(522.7200000000001,0)&#10;                "><line stroke="#000000" stroke-width="1" x2="10"/></g><g transform="&#10;                    rotate(-22.27350017207496)&#10;                    translate(522.7200000000001,0)&#10;                "><line stroke="#000000" stroke-width="3" x2="15"/><text x="20" dy="0.35em" style="text-anchor: start; font-size: 32px; fill: rgb(0, 0, 0);">250</text></g><g transform="&#10;                    rotate(-15.500850189282446)&#10;                    translate(522.7200000000001,0)&#10;                "><line stroke="#000000" stroke-width="1" x2="10"/></g><g transform="&#10;                    rotate(-8.728200206489944)&#10;                    translate(522.7200000000001,0)&#10;                "><line stroke="#000000" stroke-width="1" x2="10"/></g><g transform="&#10;                    rotate(-1.9555502236974576)&#10;                    translate(522.7200000000001,0)&#10;                "><line stroke="#000000" stroke-width="1" x2="10"/></g><g transform="&#10;                    rotate(4.817099759095058)&#10;                    translate(522.7200000000001,0)&#10;                "><line stroke="#000000" stroke-width="1" x2="10"/></g><g transform="&#10;                    rotate(11.589749741887545)&#10;                    translate(522.7200000000001,0)&#10;                "><line stroke="#000000" stroke-width="3" x2="15"/><text x="20" dy="0.35em" style="text-anchor: start; font-size: 32px; fill: rgb(0, 0, 0);">375</text></g><g transform="&#10;                    rotate(18.36239972468006)&#10;                    translate(522.7200000000001,0)&#10;                "><line stroke="#000000" stroke-width="1" x2="10"/></g><g transform="&#10;                    rotate(25.13504970747256)&#10;                    translate(522.7200000000001,0)&#10;                "><line stroke="#000000" stroke-width="1" x2="10"/></g><g transform="&#10;                    rotate(31.907699690265076)&#10;                    translate(522.7200000000001,0)&#10;                "><line stroke="#000000" stroke-width="1" x2="10"/></g><g transform="&#10;                    rotate(38.68034967305758)&#10;                    translate(522.7200000000001,0)&#10;                "><line stroke="#000000" stroke-width="1" x2="10"/></g><g transform="&#10;                    rotate(45.45299965585008)&#10;                    translate(522.7200000000001,0)&#10;                "><line stroke="#000000" stroke-width="3" x2="15"/><text x="20" dy="0.35em" style="text-anchor: start; font-size: 32px; fill: rgb(0, 0, 0);">500</text></g><g transform="&#10;                    rotate(52.22564963864258)&#10;                    translate(522.7200000000001,0)&#10;                "><line stroke="#000000" stroke-width="1" x2="10"/></g><g transform="&#10;                    rotate(58.99829962143511)&#10;                    translate(522.7200000000001,0)&#10;                "><line stroke="#000000" stroke-width="1" x2="10"/></g><g transform="&#10;                    rotate(65.77094960422761)&#10;                    translate(522.7200000000001,0)&#10;                "><line stroke="#000000" stroke-width="1" x2="10"/></g><g transform="&#10;                    rotate(72.54359958702011)&#10;                    translate(522.7200000000001,0)&#10;                "><line stroke="#000000" stroke-width="1" x2="10"/></g><g transform="&#10;                    rotate(79.31624956981261)&#10;                    translate(522.7200000000001,0)&#10;                "><line stroke="#000000" stroke-width="3" x2="15"/><text x="20" dy="0.35em" style="text-anchor: start; font-size: 32px; fill: rgb(0, 0, 0);">625</text></g><g transform="&#10;                    rotate(86.08889955260508)&#10;                    translate(522.7200000000001,0)&#10;                "><line stroke="#000000" stroke-width="1" x2="10"/></g><g transform="&#10;                    rotate(94.10090251518153)&#10;                    translate(522.7200000000001,0)&#10;                "><line stroke="#000000" stroke-width="3" x2="15"/><text x="20" dy="0.35em" transform="rotate(180) translate(-40)" style="text-anchor: end; font-size: 32px; fill: rgb(0, 0, 0);">0</text></g><g transform="&#10;                    rotate(100.87355249797403)&#10;                    translate(522.7200000000001,0)&#10;                "><line stroke="#000000" stroke-width="1" x2="10"/></g><g transform="&#10;                    rotate(107.6462024807665)&#10;                    translate(522.7200000000001,0)&#10;                "><line stroke="#000000" stroke-width="1" x2="10"/></g><g transform="&#10;                    rotate(114.41885246355903)&#10;                    translate(522.7200000000001,0)&#10;                "><line stroke="#000000" stroke-width="1" x2="10"/></g><g transform="&#10;                    rotate(121.1915024463515)&#10;                    translate(522.7200000000001,0)&#10;                "><line stroke="#000000" stroke-width="1" x2="10"/></g><g transform="&#10;                    rotate(127.96415242914404)&#10;                    translate(522.7200000000001,0)&#10;                "><line stroke="#000000" stroke-width="3" x2="15"/><text x="20" dy="0.35em" transform="rotate(180) translate(-40)" style="text-anchor: end; font-size: 32px; fill: rgb(0, 0, 0);">125</text></g><g transform="&#10;                    rotate(134.73680241193654)&#10;                    translate(522.7200000000001,0)&#10;                "><line stroke="#000000" stroke-width="1" x2="10"/></g><g transform="&#10;                    rotate(141.50945239472904)&#10;                    translate(522.7200000000001,0)&#10;                "><line stroke="#000000" stroke-width="1" x2="10"/></g><g transform="&#10;                    rotate(148.2821023775215)&#10;                    translate(522.7200000000001,0)&#10;                "><line stroke="#000000" stroke-width="1" x2="10"/></g><g transform="&#10;                    rotate(155.05475236031404)&#10;                    translate(522.7200000000001,0)&#10;                "><line stroke="#000000" stroke-width="1" x2="10"/></g><g transform="&#10;                    rotate(163.60856732151382)&#10;                    translate(522.7200000000001,0)&#10;                "><line stroke="#000000" stroke-width="3" x2="15"/><text x="20" dy="0.35em" transform="rotate(180) translate(-40)" style="text-anchor: end; font-size: 32px; fill: rgb(0, 0, 0);">0</text></g><g transform="&#10;                    rotate(170.38121730430635)&#10;                    translate(522.7200000000001,0)&#10;                "><line stroke="#000000" stroke-width="1" x2="10"/></g><g transform="&#10;                    rotate(177.15386728709882)&#10;                    translate(522.7200000000001,0)&#10;                "><line stroke="#000000" stroke-width="1" x2="10"/></g><g transform="&#10;                    rotate(183.92651726989135)&#10;                    translate(522.7200000000001,0)&#10;                "><line stroke="#000000" stroke-width="1" x2="10"/></g><g transform="&#10;                    rotate(190.69916725268388)&#10;                    translate(522.7200000000001,0)&#10;                "><line stroke="#000000" stroke-width="1" x2="10"/></g><g transform="&#10;                    rotate(197.4718172354764)&#10;                    translate(522.7200000000001,0)&#10;                "><line stroke="#000000" stroke-width="3" x2="15"/><text x="20" dy="0.35em" transform="rotate(180) translate(-40)" style="text-anchor: end; font-size: 32px; fill: rgb(0, 0, 0);">125</text></g><g transform="&#10;                    rotate(204.67110220011767)&#10;                    translate(522.7200000000001,0)&#10;                "><line stroke="#000000" stroke-width="3" x2="15"/><text x="20" dy="0.35em" transform="rotate(180) translate(-40)" style="text-anchor: end; font-size: 32px; fill: rgb(0, 0, 0);">0</text></g><g transform="&#10;                    rotate(211.4437521829102)&#10;                    translate(522.7200000000001,0)&#10;                "><line stroke="#000000" stroke-width="1" x2="10"/></g><g transform="&#10;                    rotate(218.21640216570268)&#10;                    translate(522.7200000000001,0)&#10;                "><line stroke="#000000" stroke-width="1" x2="10"/></g><g transform="&#10;                    rotate(224.9890521484952)&#10;                    translate(522.7200000000001,0)&#10;                "><line stroke="#000000" stroke-width="1" x2="10"/></g><g transform="&#10;                    rotate(231.76170213128768)&#10;                    translate(522.7200000000001,0)&#10;                "><line stroke="#000000" stroke-width="1" x2="10"/></g><g transform="&#10;                    rotate(238.5343521140802)&#10;                    translate(522.7200000000001,0)&#10;                "><line stroke="#000000" stroke-width="3" x2="15"/><text x="20" dy="0.35em" transform="rotate(180) translate(-40)" style="text-anchor: end; font-size: 32px; fill: rgb(0, 0, 0);">125</text></g><g transform="&#10;                    rotate(241.39914108973431)&#10;                    translate(522.7200000000001,0)&#10;                "><line stroke="#000000" stroke-width="3" x2="15"/><text x="20" dy="0.35em" transform="rotate(180) translate(-40)" style="text-anchor: end; font-size: 32px; fill: rgb(0, 0, 0);">0</text></g><g transform="&#10;                    rotate(248.1717910725268)&#10;                    translate(522.7200000000001,0)&#10;                "><line stroke="#000000" stroke-width="1" x2="10"/></g><g transform="&#10;                    rotate(254.94444105531932)&#10;                    translate(522.7200000000001,0)&#10;                "><line stroke="#000000" stroke-width="1" x2="10"/></g><g transform="&#10;                    rotate(261.7170910381118)&#10;                    translate(522.7200000000001,0)&#10;                "><line stroke="#000000" stroke-width="1" x2="10"/></g></g><g class="chord"><path d="M2.909760794774111e-14,-475.20000000000005A475.20000000000005,475.20000000000005,0,0,1,427.2966576286423,207.92452087089413Q0,0,-33.98305167077794,473.98332481126516A475.20000000000005,475.20000000000005,0,0,1,-405.4041445197036,247.9163560684275Q0,0,2.909760794774111e-14,-475.20000000000005Z" fill="#91AEB0" stroke="#000000" stroke-width="1" opacity="0.3"/><path d="M427.2966576286423,207.92452087089413A475.20000000000005,475.20000000000005,0,0,1,215.27880575313756,423.63908671592486Q0,0,-455.8860575723037,134.1004940750863A475.20000000000005,475.20000000000005,0,0,1,-466.08375541245147,-92.63354112105483Q0,0,427.2966576286423,207.92452087089413Z" fill="#91AEB0" stroke="#000000" stroke-width="1" opacity="0.3"/><path d="M-431.82318237764844,-198.3526636101472A475.20000000000005,475.20000000000005,0,0,1,-331.28233157551614,-340.68615584712245Q0,0,215.27880575313756,423.63908671592486A475.20000000000005,475.20000000000005,0,0,1,65.92718141562614,470.60455453659944Q0,0,-431.82318237764844,-198.3526636101472Z" fill="#DC8E75" stroke="#000000" stroke-width="1" opacity="0.3"/><path d="M-108.18299621069477,-462.72181635500704A475.20000000000005,475.20000000000005,0,0,1,-23.750101237427188,-474.606123739688Q0,0,65.92718141562614,470.60455453659944A475.20000000000005,475.20000000000005,0,0,1,-10.251288882984014,475.08941376991095Q0,0,-108.18299621069477,-462.72181635500704Z" fill="#B5594B" stroke="#000000" stroke-width="1" opacity="0.3"/><path d="M-405.4041445197036,247.9163560684275A475.20000000000005,475.20000000000005,0,0,1,-448.61408741811255,156.71770981613435Q0,0,-466.08375541245147,-92.63354112105483A475.20000000000005,475.20000000000005,0,0,1,-441.1970171941208,-176.52261050361426Q0,0,-405.4041445197036,247.9163560684275Z" fill="#364A62" stroke="#000000" stroke-width="1" opacity="0.3"/><path d="M-227.48062529711947,-417.21409985094175A475.20000000000005,475.20000000000005,0,0,1,-108.18299621069477,-462.72181635500704Q0,0,-331.28233157551614,-340.68615584712245A475.20000000000005,475.20000000000005,0,0,1,-248.04834786887167,-405.323398189055Q0,0,-227.48062529711947,-417.21409985094175Z" fill="#B5594B" stroke="#000000" stroke-width="1" opacity="0.3"/></g><g transform="translate(522.7200000000001, 0)"><g class="legend-item" transform="translate(0, -620)"><circle cx="20" cy="20" r="20" fill="#91AEB0"/><text x="50" y="20" dy="0.35em" style="font-size: 28px; fill: rgb(0, 0, 0);">Danielle's Chicken</text></g><g class="legend-item" transform="translate(0, -575)"><circle cx="20" cy="20" r="20" fill="#364A62"/><text x="50" y="20" dy="0.35em" style="font-size: 28px; fill: rgb(0, 0, 0);">Cisnerosfurt Sandwich</text></g><g class="legend-item" transform="translate(0, -530)"><circle cx="20" cy="20" r="20" fill="#E3B386"/><text x="50" y="20" dy="0.35em" style="font-size: 28px; fill: rgb(0, 0, 0);">Christopher's Tacos</text></g><g class="legend-item" transform="translate(0, -485)"><circle cx="20" cy="20" r="20" fill="#DC8E75"/><text x="50" y="20" dy="0.35em" style="font-size: 28px; fill: rgb(0, 0, 0);">Crystalbury Coffee</text></g><g class="legend-item" transform="translate(0, -440)"><circle cx="20" cy="20" r="20" fill="#B5594B"/><text x="50" y="20" dy="0.35em" style="font-size: 28px; fill: rgb(0, 0, 0);">Kyle's Salads</text></g></g></g></svg>