<svg xmlns="http://www.w3.org/2000/svg" id="SVGChart" width="1920" height="1440" style="font-family: &quot;Times New Roman&quot;; color: rgb(0, 0, 0);"><rect x="0" y="0" width="1920" height="1440" fill="#ffffff"/><g transform="translate(960,770)"><text x="0" y="-660" text-anchor="middle" style="font-size: 48px;">Real Estate Investment Flow (Million $)</text><g><g class="group"><path fill="#E9B9AA" stroke="#000000" stroke-width="3" d="M0,-522.72A522.72,522.72,0,0,1,522.662,-7.754L475.148,-7.049A475.2,475.2,0,0,0,0,-475.2Z"/><path id="groupArc0" d="M622.651,-9.237A622.72,622.72,0,0,0,0,-622.72A622.72,622.72,0,0,1,622.651,-9.237Z" style="visibility: hidden;"/><text><textPath xmlns:ns1="http://www.w3.org/1999/xlink" ns1:href="#groupArc0" startOffset="75%" style="font-size: 36px; text-anchor: middle;">Paulview</textPath></text></g><g class="group"><path fill="#D98481" stroke="#000000" stroke-width="3" d="M522.397,18.378A522.72,522.72,0,0,1,59.652,519.305L54.23,472.096A475.2,475.2,0,0,0,474.906,16.707Z"/><path id="groupArc1" d="M632.329,22.246A632.72,632.72,0,0,1,72.206,628.586A632.72,632.72,0,0,0,632.329,22.246Z" style="visibility: hidden;"/><text><textPath xmlns:ns2="http://www.w3.org/1999/xlink" ns2:href="#groupArc1" startOffset="75%" style="font-size: 36px; text-anchor: middle;">Elizabethstad</textPath></text></g><g class="group"><path fill="#7892B5" stroke="#000000" stroke-width="3" d="M33.623,521.637A522.72,522.72,0,1,1,-26.125,-522.067L-23.75,-474.606A475.2,475.2,0,1,0,30.567,474.216Z"/><path id="groupArc2" d="M40.699,631.41A632.72,632.72,0,1,1,-31.623,-631.929A632.72,632.72,0,1,0,40.699,631.41Z" style="visibility: hidden;"/><text><textPath xmlns:ns3="http://www.w3.org/1999/xlink" ns3:href="#groupArc2" startOffset="75%" style="font-size: 36px; text-anchor: middle;">Briannaville</textPath></text></g></g><g class="group-ticks"><g transform="&#10;                    rotate(-90)&#10;                    translate(522.7200000000001,0)&#10;                "><line stroke="#000000" stroke-width="3" x2="15"/><text x="20" dy="0.35em" style="text-anchor: start; font-size: 32px; fill: rgb(0, 0, 0);">0</text></g><g transform="&#10;                    rotate(-82.97485570936628)&#10;                    translate(522.7200000000001,0)&#10;                "><line stroke="#000000" stroke-width="1" x2="10"/></g><g transform="&#10;                    rotate(-75.94971141873255)&#10;                    translate(522.7200000000001,0)&#10;                "><line stroke="#000000" stroke-width="1" x2="10"/></g><g transform="&#10;                    rotate(-68.92456712809883)&#10;                    translate(522.7200000000001,0)&#10;                "><line stroke="#000000" stroke-width="1" x2="10"/></g><g transform="&#10;                    rotate(-61.89942283746511)&#10;                    translate(522.7200000000001,0)&#10;                "><line stroke="#000000" stroke-width="1" x2="10"/></g><g transform="&#10;                    rotate(-54.87427854683138)&#10;                    translate(522.7200000000001,0)&#10;                "><line stroke="#000000" stroke-width="3" x2="15"/><text x="20" dy="0.35em" style="text-anchor: start; font-size: 32px; fill: rgb(0, 0, 0);">710</text></g><g transform="&#10;                    rotate(-47.849134256197644)&#10;                    translate(522.7200000000001,0)&#10;                "><line stroke="#000000" stroke-width="1" x2="10"/></g><g transform="&#10;                    rotate(-40.823989965563925)&#10;                    translate(522.7200000000001,0)&#10;                "><line stroke="#000000" stroke-width="1" x2="10"/></g><g transform="&#10;                    rotate(-33.79884567493021)&#10;                    translate(522.7200000000001,0)&#10;                "><line stroke="#000000" stroke-width="1" x2="10"/></g><g transform="&#10;                    rotate(-26.77370138429648)&#10;                    translate(522.7200000000001,0)&#10;                "><line stroke="#000000" stroke-width="1" x2="10"/></g><g transform="&#10;                    rotate(-19.748557093662754)&#10;                    translate(522.7200000000001,0)&#10;                "><line stroke="#000000" stroke-width="3" x2="15"/><text x="20" dy="0.35em" style="text-anchor: start; font-size: 32px; fill: rgb(0, 0, 0);">1420</text></g><g transform="&#10;                    rotate(-12.723412803029035)&#10;                    translate(522.7200000000001,0)&#10;                "><line stroke="#000000" stroke-width="1" x2="10"/></g><g transform="&#10;                    rotate(-5.698268512395288)&#10;                    translate(522.7200000000001,0)&#10;                "><line stroke="#000000" stroke-width="1" x2="10"/></g><g transform="&#10;                    rotate(2.014859480738423)&#10;                    translate(522.7200000000001,0)&#10;                "><line stroke="#000000" stroke-width="3" x2="15"/><text x="20" dy="0.35em" style="text-anchor: start; font-size: 32px; fill: rgb(0, 0, 0);">0</text></g><g transform="&#10;                    rotate(9.040003771372156)&#10;                    translate(522.7200000000001,0)&#10;                "><line stroke="#000000" stroke-width="1" x2="10"/></g><g transform="&#10;                    rotate(16.065148062005875)&#10;                    translate(522.7200000000001,0)&#10;                "><line stroke="#000000" stroke-width="1" x2="10"/></g><g transform="&#10;                    rotate(23.090292352639608)&#10;                    translate(522.7200000000001,0)&#10;                "><line stroke="#000000" stroke-width="1" x2="10"/></g><g transform="&#10;                    rotate(30.115436643273313)&#10;                    translate(522.7200000000001,0)&#10;                "><line stroke="#000000" stroke-width="1" x2="10"/></g><g transform="&#10;                    rotate(37.140580933907046)&#10;                    translate(522.7200000000001,0)&#10;                "><line stroke="#000000" stroke-width="3" x2="15"/><text x="20" dy="0.35em" style="text-anchor: start; font-size: 32px; fill: rgb(0, 0, 0);">710</text></g><g transform="&#10;                    rotate(44.16572522454078)&#10;                    translate(522.7200000000001,0)&#10;                "><line stroke="#000000" stroke-width="1" x2="10"/></g><g transform="&#10;                    rotate(51.190869515174484)&#10;                    translate(522.7200000000001,0)&#10;                "><line stroke="#000000" stroke-width="1" x2="10"/></g><g transform="&#10;                    rotate(58.21601380580822)&#10;                    translate(522.7200000000001,0)&#10;                "><line stroke="#000000" stroke-width="1" x2="10"/></g><g transform="&#10;                    rotate(65.24115809644192)&#10;                    translate(522.7200000000001,0)&#10;                "><line stroke="#000000" stroke-width="1" x2="10"/></g><g transform="&#10;                    rotate(72.26630238707565)&#10;                    translate(522.7200000000001,0)&#10;                "><line stroke="#000000" stroke-width="3" x2="15"/><text x="20" dy="0.35em" style="text-anchor: start; font-size: 32px; fill: rgb(0, 0, 0);">1420</text></g><g transform="&#10;                    rotate(79.29144667770939)&#10;                    translate(522.7200000000001,0)&#10;                "><line stroke="#000000" stroke-width="1" x2="10"/></g><g transform="&#10;                    rotate(86.31195481120315)&#10;                    translate(522.7200000000001,0)&#10;                "><line stroke="#000000" stroke-width="3" x2="15"/><text x="20" dy="0.35em" style="text-anchor: start; font-size: 32px; fill: rgb(0, 0, 0);">0</text></g><g transform="&#10;                    rotate(93.33709910183688)&#10;                    translate(522.7200000000001,0)&#10;                "><line stroke="#000000" stroke-width="1" x2="10"/></g><g transform="&#10;                    rotate(100.36224339247056)&#10;                    translate(522.7200000000001,0)&#10;                "><line stroke="#000000" stroke-width="1" x2="10"/></g><g transform="&#10;                    rotate(107.38738768310435)&#10;                    translate(522.7200000000001,0)&#10;                "><line stroke="#000000" stroke-width="1" x2="10"/></g><g transform="&#10;                    rotate(114.41253197373803)&#10;                    translate(522.7200000000001,0)&#10;                "><line stroke="#000000" stroke-width="1" x2="10"/></g><g transform="&#10;                    rotate(121.43767626437176)&#10;                    translate(522.7200000000001,0)&#10;                "><line stroke="#000000" stroke-width="3" x2="15"/><text x="20" dy="0.35em" transform="rotate(180) translate(-40)" style="text-anchor: end; font-size: 32px; fill: rgb(0, 0, 0);">710</text></g><g transform="&#10;                    rotate(128.46282055500552)&#10;                    translate(522.7200000000001,0)&#10;                "><line stroke="#000000" stroke-width="1" x2="10"/></g><g transform="&#10;                    rotate(135.48796484563923)&#10;                    translate(522.7200000000001,0)&#10;                "><line stroke="#000000" stroke-width="1" x2="10"/></g><g transform="&#10;                    rotate(142.51310913627296)&#10;                    translate(522.7200000000001,0)&#10;                "><line stroke="#000000" stroke-width="1" x2="10"/></g><g transform="&#10;                    rotate(149.53825342690666)&#10;                    translate(522.7200000000001,0)&#10;                "><line stroke="#000000" stroke-width="1" x2="10"/></g><g transform="&#10;                    rotate(156.5633977175404)&#10;                    translate(522.7200000000001,0)&#10;                "><line stroke="#000000" stroke-width="3" x2="15"/><text x="20" dy="0.35em" transform="rotate(180) translate(-40)" style="text-anchor: end; font-size: 32px; fill: rgb(0, 0, 0);">1420</text></g><g transform="&#10;                    rotate(163.5885420081741)&#10;                    translate(522.7200000000001,0)&#10;                "><line stroke="#000000" stroke-width="1" x2="10"/></g><g transform="&#10;                    rotate(170.61368629880786)&#10;                    translate(522.7200000000001,0)&#10;                "><line stroke="#000000" stroke-width="1" x2="10"/></g><g transform="&#10;                    rotate(177.63883058944157)&#10;                    translate(522.7200000000001,0)&#10;                "><line stroke="#000000" stroke-width="1" x2="10"/></g><g transform="&#10;                    rotate(184.66397488007533)&#10;                    translate(522.7200000000001,0)&#10;                "><line stroke="#000000" stroke-width="1" x2="10"/></g><g transform="&#10;                    rotate(191.68911917070898)&#10;                    translate(522.7200000000001,0)&#10;                "><line stroke="#000000" stroke-width="3" x2="15"/><text x="20" dy="0.35em" transform="rotate(180) translate(-40)" style="text-anchor: end; font-size: 32px; fill: rgb(0, 0, 0);">2130</text></g><g transform="&#10;                    rotate(198.71426346134274)&#10;                    translate(522.7200000000001,0)&#10;                "><line stroke="#000000" stroke-width="1" x2="10"/></g><g transform="&#10;                    rotate(205.73940775197644)&#10;                    translate(522.7200000000001,0)&#10;                "><line stroke="#000000" stroke-width="1" x2="10"/></g><g transform="&#10;                    rotate(212.7645520426102)&#10;                    translate(522.7200000000001,0)&#10;                "><line stroke="#000000" stroke-width="1" x2="10"/></g><g transform="&#10;                    rotate(219.7896963332439)&#10;                    translate(522.7200000000001,0)&#10;                "><line stroke="#000000" stroke-width="1" x2="10"/></g><g transform="&#10;                    rotate(226.81484062387761)&#10;                    translate(522.7200000000001,0)&#10;                "><line stroke="#000000" stroke-width="3" x2="15"/><text x="20" dy="0.35em" transform="rotate(180) translate(-40)" style="text-anchor: end; font-size: 32px; fill: rgb(0, 0, 0);">2840</text></g><g transform="&#10;                    rotate(233.83998491451132)&#10;                    translate(522.7200000000001,0)&#10;                "><line stroke="#000000" stroke-width="1" x2="10"/></g><g transform="&#10;                    rotate(240.86512920514514)&#10;                    translate(522.7200000000001,0)&#10;                "><line stroke="#000000" stroke-width="1" x2="10"/></g><g transform="&#10;                    rotate(247.89027349577879)&#10;                    translate(522.7200000000001,0)&#10;                "><line stroke="#000000" stroke-width="1" x2="10"/></g><g transform="&#10;                    rotate(254.91541778641255)&#10;                    translate(522.7200000000001,0)&#10;                "><line stroke="#000000" stroke-width="1" x2="10"/></g><g transform="&#10;                    rotate(261.94056207704625)&#10;                    translate(522.7200000000001,0)&#10;                "><line stroke="#000000" stroke-width="3" x2="15"/><text x="20" dy="0.35em" transform="rotate(180) translate(-40)" style="text-anchor: end; font-size: 32px; fill: rgb(0, 0, 0);">3550</text></g></g><g class="chord"><path d="M341.44530006194606,330.4998442747102A475.20000000000005,475.20000000000005,0,0,1,54.22952369737364,472.09553986407883Q0,0,460.3613017329107,-117.82407167798947A475.20000000000005,475.20000000000005,0,0,1,475.14771717942097,-7.04889063505937Q0,0,341.44530006194606,330.4998442747102Z" fill="#D98481" stroke="#000000" stroke-width="1" opacity="0.3"/><path d="M30.566808015047933,474.21588991489017A475.20000000000005,475.20000000000005,0,0,1,-469.3266613634592,-74.48170871716724Q0,0,2.909760794774111e-14,-475.20000000000005A475.20000000000005,475.20000000000005,0,0,1,460.3613017329107,-117.82407167798947Q0,0,30.566808015047933,474.21588991489017Z" fill="#7892B5" stroke="#000000" stroke-width="1" opacity="0.3"/><path d="M-469.3266613634592,-74.48170871716724A475.20000000000005,475.20000000000005,0,0,1,-23.75010123742677,-474.606123739688Q0,0,474.9062039572406,16.707406828225512A475.20000000000005,475.20000000000005,0,0,1,341.44530006194606,330.4998442747102Q0,0,-469.3266613634592,-74.48170871716724Z" fill="#7892B5" stroke="#000000" stroke-width="1" opacity="0.3"/></g><g transform="translate(522.7200000000001, 0)"><g class="legend-item" transform="translate(0, -620)"><circle cx="20" cy="20" r="20" fill="#E9B9AA"/><text x="50" y="20" dy="0.35em" style="font-size: 28px; fill: rgb(0, 0, 0);">Paulview</text></g><g class="legend-item" transform="translate(0, -575)"><circle cx="20" cy="20" r="20" fill="#D98481"/><text x="50" y="20" dy="0.35em" style="font-size: 28px; fill: rgb(0, 0, 0);">Elizabethstad</text></g><g class="legend-item" transform="translate(0, -530)"><circle cx="20" cy="20" r="20" fill="#7892B5"/><text x="50" y="20" dy="0.35em" style="font-size: 28px; fill: rgb(0, 0, 0);">Briannaville</text></g></g></g></svg>