<svg xmlns="http://www.w3.org/2000/svg" id="SVGChart" width="1920" height="1440" style="font-family: &quot;Times New Roman&quot;; color: rgb(0, 0, 0);"><rect x="0" y="0" width="1920" height="1440" fill="#ffffff"/><g transform="translate(960,770)"><text x="0" y="-660" text-anchor="middle" style="font-size: 48px;">Crops Production Transfer Flow (Thousand Tons)</text><g><g class="group"><path fill="#91AEB0" stroke="#000000" stroke-width="3" d="M0,-522.72A522.72,522.72,0,0,1,489.297,183.915L444.815,167.195A475.2,475.2,0,0,0,0,-475.2Z"/><path id="groupArc0" d="M582.903,219.099A622.72,622.72,0,0,0,0,-622.72A622.72,622.72,0,0,1,582.903,219.099Z" style="visibility: hidden;"/><text><textPath xmlns:ns1="http://www.w3.org/1999/xlink" ns1:href="#groupArc0" startOffset="75%" style="font-size: 36px; text-anchor: middle;">Barley</textPath></text></g><g class="group"><path fill="#364A62" stroke="#000000" stroke-width="3" d="M479.494,208.14A522.72,522.72,0,0,1,155.347,499.103L141.225,453.73A475.2,475.2,0,0,0,435.903,189.218Z"/><path id="groupArc1" d="M580.397,251.94A632.72,632.72,0,0,1,188.038,604.133A632.72,632.72,0,0,0,580.397,251.94Z" style="visibility: hidden;"/><text><textPath xmlns:ns2="http://www.w3.org/1999/xlink" ns2:href="#groupArc1" startOffset="75%" style="font-size: 36px; text-anchor: middle;">Rice</textPath></text></g><g class="group"><path fill="#E3B386" stroke="#000000" stroke-width="3" d="M130.209,506.243A522.72,522.72,0,0,1,-499.281,154.772L-453.892,140.702A475.2,475.2,0,0,0,118.371,460.221Z"/><path id="groupArc2" d="M157.609,612.776A632.72,632.72,0,0,1,-604.349,187.342A632.72,632.72,0,0,0,157.609,612.776Z" style="visibility: hidden;"/><text><textPath xmlns:ns3="http://www.w3.org/1999/xlink" ns3:href="#groupArc2" startOffset="75%" style="font-size: 36px; text-anchor: middle;">Potatoes</textPath></text></g><g class="group"><path fill="#DC8E75" stroke="#000000" stroke-width="3" d="M-506.393,129.625A522.72,522.72,0,0,1,-461.165,-246.096L-419.241,-223.724A475.2,475.2,0,0,0,-460.357,117.841Z"/><path id="groupArc3" d="M-549.389,-293.176A622.72,622.72,0,0,0,-603.269,154.423A622.72,622.72,0,0,1,-549.389,-293.176Z" style="visibility: hidden;"/><text><textPath xmlns:ns4="http://www.w3.org/1999/xlink" ns4:href="#groupArc3" startOffset="75%" style="font-size: 36px; text-anchor: middle;">Oats</textPath></text></g><g class="group"><path fill="#B5594B" stroke="#000000" stroke-width="3" d="M-448.289,-268.837A522.72,522.72,0,0,1,-26.125,-522.067L-23.75,-474.606A475.2,475.2,0,0,0,-407.535,-244.397Z"/><path id="groupArc4" d="M-31.123,-621.942A622.72,622.72,0,0,0,-534.05,-320.267A622.72,622.72,0,0,1,-31.123,-621.942Z" style="visibility: hidden;"/><text><textPath xmlns:ns5="http://www.w3.org/1999/xlink" ns5:href="#groupArc4" startOffset="75%" style="font-size: 36px; text-anchor: middle;">Soybeans</textPath></text></g></g><g class="group-ticks"><g transform="&#10;                    rotate(-90)&#10;                    translate(522.7200000000001,0)&#10;                "><line stroke="#000000" stroke-width="3" x2="15"/><text x="20" dy="0.35em" style="text-anchor: start; font-size: 32px; fill: rgb(0, 0, 0);">0</text></g><g transform="&#10;                    rotate(-83.19803118611316)&#10;                    translate(522.7200000000001,0)&#10;                "><line stroke="#000000" stroke-width="1" x2="10"/></g><g transform="&#10;                    rotate(-76.39606237222631)&#10;                    translate(522.7200000000001,0)&#10;                "><line stroke="#000000" stroke-width="1" x2="10"/></g><g transform="&#10;                    rotate(-69.59409355833947)&#10;                    translate(522.7200000000001,0)&#10;                "><line stroke="#000000" stroke-width="1" x2="10"/></g><g transform="&#10;                    rotate(-62.79212474445262)&#10;                    translate(522.7200000000001,0)&#10;                "><line stroke="#000000" stroke-width="1" x2="10"/></g><g transform="&#10;                    rotate(-55.990155930565784)&#10;                    translate(522.7200000000001,0)&#10;                "><line stroke="#000000" stroke-width="3" x2="15"/><text x="20" dy="0.35em" style="text-anchor: start; font-size: 32px; fill: rgb(0, 0, 0);">250</text></g><g transform="&#10;                    rotate(-49.18818711667895)&#10;                    translate(522.7200000000001,0)&#10;                "><line stroke="#000000" stroke-width="1" x2="10"/></g><g transform="&#10;                    rotate(-42.386218302792095)&#10;                    translate(522.7200000000001,0)&#10;                "><line stroke="#000000" stroke-width="1" x2="10"/></g><g transform="&#10;                    rotate(-35.58424948890524)&#10;                    translate(522.7200000000001,0)&#10;                "><line stroke="#000000" stroke-width="1" x2="10"/></g><g transform="&#10;                    rotate(-28.782280675018406)&#10;                    translate(522.7200000000001,0)&#10;                "><line stroke="#000000" stroke-width="1" x2="10"/></g><g transform="&#10;                    rotate(-21.980311861131568)&#10;                    translate(522.7200000000001,0)&#10;                "><line stroke="#000000" stroke-width="3" x2="15"/><text x="20" dy="0.35em" style="text-anchor: start; font-size: 32px; fill: rgb(0, 0, 0);">500</text></g><g transform="&#10;                    rotate(-15.178343047244724)&#10;                    translate(522.7200000000001,0)&#10;                "><line stroke="#000000" stroke-width="1" x2="10"/></g><g transform="&#10;                    rotate(-8.376374233357893)&#10;                    translate(522.7200000000001,0)&#10;                "><line stroke="#000000" stroke-width="1" x2="10"/></g><g transform="&#10;                    rotate(-1.5744054194710344)&#10;                    translate(522.7200000000001,0)&#10;                "><line stroke="#000000" stroke-width="1" x2="10"/></g><g transform="&#10;                    rotate(5.22756339441581)&#10;                    translate(522.7200000000001,0)&#10;                "><line stroke="#000000" stroke-width="1" x2="10"/></g><g transform="&#10;                    rotate(12.029532208302669)&#10;                    translate(522.7200000000001,0)&#10;                "><line stroke="#000000" stroke-width="3" x2="15"/><text x="20" dy="0.35em" style="text-anchor: start; font-size: 32px; fill: rgb(0, 0, 0);">750</text></g><g transform="&#10;                    rotate(18.831501022189514)&#10;                    translate(522.7200000000001,0)&#10;                "><line stroke="#000000" stroke-width="1" x2="10"/></g><g transform="&#10;                    rotate(23.464801889454193)&#10;                    translate(522.7200000000001,0)&#10;                "><line stroke="#000000" stroke-width="3" x2="15"/><text x="20" dy="0.35em" style="text-anchor: start; font-size: 32px; fill: rgb(0, 0, 0);">0</text></g><g transform="&#10;                    rotate(30.266770703341038)&#10;                    translate(522.7200000000001,0)&#10;                "><line stroke="#000000" stroke-width="1" x2="10"/></g><g transform="&#10;                    rotate(37.0687395172279)&#10;                    translate(522.7200000000001,0)&#10;                "><line stroke="#000000" stroke-width="1" x2="10"/></g><g transform="&#10;                    rotate(43.87070833111474)&#10;                    translate(522.7200000000001,0)&#10;                "><line stroke="#000000" stroke-width="1" x2="10"/></g><g transform="&#10;                    rotate(50.672677145001586)&#10;                    translate(522.7200000000001,0)&#10;                "><line stroke="#000000" stroke-width="1" x2="10"/></g><g transform="&#10;                    rotate(57.47464595888843)&#10;                    translate(522.7200000000001,0)&#10;                "><line stroke="#000000" stroke-width="3" x2="15"/><text x="20" dy="0.35em" style="text-anchor: start; font-size: 32px; fill: rgb(0, 0, 0);">250</text></g><g transform="&#10;                    rotate(64.27661477277525)&#10;                    translate(522.7200000000001,0)&#10;                "><line stroke="#000000" stroke-width="1" x2="10"/></g><g transform="&#10;                    rotate(71.07858358666209)&#10;                    translate(522.7200000000001,0)&#10;                "><line stroke="#000000" stroke-width="1" x2="10"/></g><g transform="&#10;                    rotate(75.57584507764906)&#10;                    translate(522.7200000000001,0)&#10;                "><line stroke="#000000" stroke-width="3" x2="15"/><text x="20" dy="0.35em" style="text-anchor: start; font-size: 32px; fill: rgb(0, 0, 0);">0</text></g><g transform="&#10;                    rotate(82.37781389153591)&#10;                    translate(522.7200000000001,0)&#10;                "><line stroke="#000000" stroke-width="1" x2="10"/></g><g transform="&#10;                    rotate(89.17978270542275)&#10;                    translate(522.7200000000001,0)&#10;                "><line stroke="#000000" stroke-width="1" x2="10"/></g><g transform="&#10;                    rotate(95.98175151930957)&#10;                    translate(522.7200000000001,0)&#10;                "><line stroke="#000000" stroke-width="1" x2="10"/></g><g transform="&#10;                    rotate(102.78372033319644)&#10;                    translate(522.7200000000001,0)&#10;                "><line stroke="#000000" stroke-width="1" x2="10"/></g><g transform="&#10;                    rotate(109.58568914708326)&#10;                    translate(522.7200000000001,0)&#10;                "><line stroke="#000000" stroke-width="3" x2="15"/><text x="20" dy="0.35em" transform="rotate(180) translate(-40)" style="text-anchor: end; font-size: 32px; fill: rgb(0, 0, 0);">250</text></g><g transform="&#10;                    rotate(116.38765796097013)&#10;                    translate(522.7200000000001,0)&#10;                "><line stroke="#000000" stroke-width="1" x2="10"/></g><g transform="&#10;                    rotate(123.18962677485698)&#10;                    translate(522.7200000000001,0)&#10;                "><line stroke="#000000" stroke-width="1" x2="10"/></g><g transform="&#10;                    rotate(129.9915955887438)&#10;                    translate(522.7200000000001,0)&#10;                "><line stroke="#000000" stroke-width="1" x2="10"/></g><g transform="&#10;                    rotate(136.79356440263066)&#10;                    translate(522.7200000000001,0)&#10;                "><line stroke="#000000" stroke-width="1" x2="10"/></g><g transform="&#10;                    rotate(143.59553321651748)&#10;                    translate(522.7200000000001,0)&#10;                "><line stroke="#000000" stroke-width="3" x2="15"/><text x="20" dy="0.35em" transform="rotate(180) translate(-40)" style="text-anchor: end; font-size: 32px; fill: rgb(0, 0, 0);">500</text></g><g transform="&#10;                    rotate(150.39750203040438)&#10;                    translate(522.7200000000001,0)&#10;                "><line stroke="#000000" stroke-width="1" x2="10"/></g><g transform="&#10;                    rotate(157.19947084429117)&#10;                    translate(522.7200000000001,0)&#10;                "><line stroke="#000000" stroke-width="1" x2="10"/></g><g transform="&#10;                    rotate(165.6418742473325)&#10;                    translate(522.7200000000001,0)&#10;                "><line stroke="#000000" stroke-width="3" x2="15"/><text x="20" dy="0.35em" transform="rotate(180) translate(-40)" style="text-anchor: end; font-size: 32px; fill: rgb(0, 0, 0);">0</text></g><g transform="&#10;                    rotate(172.44384306121935)&#10;                    translate(522.7200000000001,0)&#10;                "><line stroke="#000000" stroke-width="1" x2="10"/></g><g transform="&#10;                    rotate(179.2458118751062)&#10;                    translate(522.7200000000001,0)&#10;                "><line stroke="#000000" stroke-width="1" x2="10"/></g><g transform="&#10;                    rotate(186.04778068899304)&#10;                    translate(522.7200000000001,0)&#10;                "><line stroke="#000000" stroke-width="1" x2="10"/></g><g transform="&#10;                    rotate(192.84974950287994)&#10;                    translate(522.7200000000001,0)&#10;                "><line stroke="#000000" stroke-width="1" x2="10"/></g><g transform="&#10;                    rotate(199.65171831676673)&#10;                    translate(522.7200000000001,0)&#10;                "><line stroke="#000000" stroke-width="3" x2="15"/><text x="20" dy="0.35em" transform="rotate(180) translate(-40)" style="text-anchor: end; font-size: 32px; fill: rgb(0, 0, 0);">250</text></g><g transform="&#10;                    rotate(206.45368713065358)&#10;                    translate(522.7200000000001,0)&#10;                "><line stroke="#000000" stroke-width="1" x2="10"/></g><g transform="&#10;                    rotate(210.95094862164052)&#10;                    translate(522.7200000000001,0)&#10;                "><line stroke="#000000" stroke-width="3" x2="15"/><text x="20" dy="0.35em" transform="rotate(180) translate(-40)" style="text-anchor: end; font-size: 32px; fill: rgb(0, 0, 0);">0</text></g><g transform="&#10;                    rotate(217.75291743552737)&#10;                    translate(522.7200000000001,0)&#10;                "><line stroke="#000000" stroke-width="1" x2="10"/></g><g transform="&#10;                    rotate(224.5548862494142)&#10;                    translate(522.7200000000001,0)&#10;                "><line stroke="#000000" stroke-width="1" x2="10"/></g><g transform="&#10;                    rotate(231.35685506330105)&#10;                    translate(522.7200000000001,0)&#10;                "><line stroke="#000000" stroke-width="1" x2="10"/></g><g transform="&#10;                    rotate(238.1588238771879)&#10;                    translate(522.7200000000001,0)&#10;                "><line stroke="#000000" stroke-width="1" x2="10"/></g><g transform="&#10;                    rotate(244.9607926910748)&#10;                    translate(522.7200000000001,0)&#10;                "><line stroke="#000000" stroke-width="3" x2="15"/><text x="20" dy="0.35em" transform="rotate(180) translate(-40)" style="text-anchor: end; font-size: 32px; fill: rgb(0, 0, 0);">250</text></g><g transform="&#10;                    rotate(251.76276150496165)&#10;                    translate(522.7200000000001,0)&#10;                "><line stroke="#000000" stroke-width="1" x2="10"/></g><g transform="&#10;                    rotate(258.5647303188485)&#10;                    translate(522.7200000000001,0)&#10;                "><line stroke="#000000" stroke-width="1" x2="10"/></g><g transform="&#10;                    rotate(265.3666991327353)&#10;                    translate(522.7200000000001,0)&#10;                "><line stroke="#000000" stroke-width="1" x2="10"/></g></g><g class="chord"><path d="M2.909760794774111e-14,-475.20000000000005A475.20000000000005,475.20000000000005,0,0,1,374.29435748499566,-292.77768691431106Q0,0,435.90327043001673,189.21780790511173A475.20000000000005,475.20000000000005,0,0,1,141.22498868746933,453.7295919049409Q0,0,2.909760794774111e-14,-475.20000000000005Z" fill="#91AEB0" stroke="#000000" stroke-width="1" opacity="0.3"/><path d="M-225.2298226948854,418.4334677924682A475.20000000000005,475.20000000000005,0,0,1,-397.9048350363556,259.7821823272156Q0,0,473.7795245706581,-36.71514806726504A475.20000000000005,475.20000000000005,0,0,1,444.81545369931285,167.19525157813095Q0,0,-225.2298226948854,418.4334677924682Z" fill="#E3B386" stroke="#000000" stroke-width="1" opacity="0.3"/><path d="M-407.5352811010239,-244.39728856497058A475.20000000000005,475.20000000000005,0,0,1,-190.84467356149506,-435.1934633852012Q0,0,374.29435748499566,-292.77768691431106A475.20000000000005,475.20000000000005,0,0,1,473.7795245706581,-36.71514806726504Q0,0,-407.5352811010239,-244.39728856497058Z" fill="#B5594B" stroke="#000000" stroke-width="1" opacity="0.3"/><path d="M118.3714661489534,460.22085567882215A475.20000000000005,475.20000000000005,0,0,1,-225.2298226948854,418.4334677924682Q0,0,-460.3569644462516,117.84101699252567A475.20000000000005,475.20000000000005,0,0,1,-419.2407415742668,-223.72358079616657Q0,0,118.3714661489534,460.22085567882215Z" fill="#E3B386" stroke="#000000" stroke-width="1" opacity="0.3"/><path d="M-190.84467356149506,-435.1934633852012A475.20000000000005,475.20000000000005,0,0,1,-23.75010123742635,-474.60612373968803Q0,0,-397.9048350363556,259.7821823272156A475.20000000000005,475.20000000000005,0,0,1,-453.89204198003165,140.7020050574874Q0,0,-190.84467356149506,-435.1934633852012Z" fill="#B5594B" stroke="#000000" stroke-width="1" opacity="0.3"/></g><g transform="translate(522.7200000000001, 0)"><g class="legend-item" transform="translate(0, -620)"><circle cx="20" cy="20" r="20" fill="#91AEB0"/><text x="50" y="20" dy="0.35em" style="font-size: 28px; fill: rgb(0, 0, 0);">Barley</text></g><g class="legend-item" transform="translate(0, -575)"><circle cx="20" cy="20" r="20" fill="#364A62"/><text x="50" y="20" dy="0.35em" style="font-size: 28px; fill: rgb(0, 0, 0);">Rice</text></g><g class="legend-item" transform="translate(0, -530)"><circle cx="20" cy="20" r="20" fill="#E3B386"/><text x="50" y="20" dy="0.35em" style="font-size: 28px; fill: rgb(0, 0, 0);">Potatoes</text></g><g class="legend-item" transform="translate(0, -485)"><circle cx="20" cy="20" r="20" fill="#DC8E75"/><text x="50" y="20" dy="0.35em" style="font-size: 28px; fill: rgb(0, 0, 0);">Oats</text></g><g class="legend-item" transform="translate(0, -440)"><circle cx="20" cy="20" r="20" fill="#B5594B"/><text x="50" y="20" dy="0.35em" style="font-size: 28px; fill: rgb(0, 0, 0);">Soybeans</text></g></g></g></svg>