<?xml version="1.0" encoding="utf-8" standalone="no"?>
<!DOCTYPE svg PUBLIC "-//W3C//DTD SVG 1.1//EN"
  "http://www.w3.org/Graphics/SVG/1.1/DTD/svg11.dtd">
<svg xmlns:xlink="http://www.w3.org/1999/xlink" width="720pt" height="540pt" viewBox="0 0 720 540" xmlns="http://www.w3.org/2000/svg" version="1.1">
 <metadata>
  <rdf:RDF xmlns:dc="http://purl.org/dc/elements/1.1/" xmlns:cc="http://creativecommons.org/ns#" xmlns:rdf="http://www.w3.org/1999/02/22-rdf-syntax-ns#">
   <cc:Work>
    <dc:type rdf:resource="http://purl.org/dc/dcmitype/StillImage"/>
    <dc:date>2025-05-25T10:09:33.931017</dc:date>
    <dc:format>image/svg+xml</dc:format>
    <dc:creator>
     <cc:Agent>
      <dc:title>Matplotlib v3.10.0, https://matplotlib.org/</dc:title>
     </cc:Agent>
    </dc:creator>
   </cc:Work>
  </rdf:RDF>
 </metadata>
 <defs>
  <style type="text/css">*{stroke-linejoin: round; stroke-linecap: butt}</style>
 </defs>
 <g id="figure_1">
  <g id="patch_1">
   <path d="M 0 540 
L 720 540 
L 720 0 
L 0 0 
z
" style="fill: #ffffff"/>
  </g>
  <g id="axes_1">
   <g id="patch_2">
    <path d="M 46.94375 493.59625 
L 548.1 493.59625 
L 548.1 41.6 
L 46.94375 41.6 
z
" style="fill: #ffffff"/>
   </g>
   <g id="PathCollection_1">
    <path d="M 244.856758 122.882318 
C 249.55736 122.882318 254.066071 121.014749 257.389899 117.690921 
C 260.713727 114.367093 262.581296 109.858382 262.581296 105.15778 
C 262.581296 100.457177 260.713727 95.948466 257.389899 92.624639 
C 254.066071 89.300811 249.55736 87.433241 244.856758 87.433241 
C 240.156155 87.433241 235.647444 89.300811 232.323616 92.624639 
C 228.999788 95.948466 227.132219 100.457177 227.132219 105.15778 
C 227.132219 109.858382 228.999788 114.367093 232.323616 117.690921 
C 235.647444 121.014749 240.156155 122.882318 244.856758 122.882318 
z
" clip-path="url(#p2109accc53)" style="fill: #9467bd; fill-opacity: 0.7; stroke: #000000; stroke-opacity: 0.7; stroke-width: 0.5"/>
    <path d="M 276.340292 161.216323 
C 281.040895 161.216323 285.549606 159.348754 288.873434 156.024926 
C 292.197261 152.701098 294.064831 148.192387 294.064831 143.491785 
C 294.064831 138.791182 292.197261 134.282471 288.873434 130.958643 
C 285.549606 127.634815 281.040895 125.767246 276.340292 125.767246 
C 271.63969 125.767246 267.130979 127.634815 263.807151 130.958643 
C 260.483323 134.282471 258.615754 138.791182 258.615754 143.491785 
C 258.615754 148.192387 260.483323 152.701098 263.807151 156.024926 
C 267.130979 159.348754 271.63969 161.216323 276.340292 161.216323 
z
" clip-path="url(#p2109accc53)" style="fill: #9467bd; fill-opacity: 0.7; stroke: #000000; stroke-opacity: 0.7; stroke-width: 0.5"/>
    <path d="M 391.972478 226.502577 
C 396.615538 226.502577 401.069055 224.65787 404.352194 221.374731 
C 407.635333 218.091592 409.48004 213.638075 409.48004 208.995015 
C 409.48004 204.351956 407.635333 199.898438 404.352194 196.6153 
C 401.069055 193.332161 396.615538 191.487453 391.972478 191.487453 
C 387.329419 191.487453 382.875902 193.332161 379.592763 196.6153 
C 376.309624 199.898438 374.464917 204.351956 374.464917 208.995015 
C 374.464917 213.638075 376.309624 218.091592 379.592763 221.374731 
C 382.875902 224.65787 387.329419 226.502577 391.972478 226.502577 
z
" clip-path="url(#p2109accc53)" style="fill: #9467bd; fill-opacity: 0.7; stroke: #000000; stroke-opacity: 0.7; stroke-width: 0.5"/>
    <path d="M 295.596277 380.152867 
C 300.030401 380.152867 304.283512 378.391171 307.418911 375.255772 
C 310.554311 372.120372 312.316007 367.867261 312.316007 363.433137 
C 312.316007 358.999013 310.554311 354.745901 307.418911 351.610502 
C 304.283512 348.475103 300.030401 346.713406 295.596277 346.713406 
C 291.162152 346.713406 286.909041 348.475103 283.773642 351.610502 
C 280.638242 354.745901 278.876546 358.999013 278.876546 363.433137 
C 278.876546 367.867261 280.638242 372.120372 283.773642 375.255772 
C 286.909041 378.391171 291.162152 380.152867 295.596277 380.152867 
z
" clip-path="url(#p2109accc53)" style="fill: #9467bd; fill-opacity: 0.7; stroke: #000000; stroke-opacity: 0.7; stroke-width: 0.5"/>
    <path d="M 202.493592 268.322839 
C 206.815847 268.322839 210.961655 266.605589 214.01795 263.549294 
C 217.074246 260.492998 218.791495 256.34719 218.791495 252.024936 
C 218.791495 247.702681 217.074246 243.556873 214.01795 240.500577 
C 210.961655 237.444282 206.815847 235.727032 202.493592 235.727032 
C 198.171337 235.727032 194.025529 237.444282 190.969234 240.500577 
C 187.912938 243.556873 186.195688 247.702681 186.195688 252.024936 
C 186.195688 256.34719 187.912938 260.492998 190.969234 263.549294 
C 194.025529 266.605589 198.171337 268.322839 202.493592 268.322839 
z
" clip-path="url(#p2109accc53)" style="fill: #9467bd; fill-opacity: 0.7; stroke: #000000; stroke-opacity: 0.7; stroke-width: 0.5"/>
    <path d="M 311.097344 312.662917 
C 315.360404 312.662917 319.449435 310.969185 322.463874 307.954746 
C 325.478313 304.940307 327.172044 300.851276 327.172044 296.588216 
C 327.172044 292.325156 325.478313 288.236125 322.463874 285.221686 
C 319.449435 282.207247 315.360404 280.513516 311.097344 280.513516 
C 306.834284 280.513516 302.745253 282.207247 299.730814 285.221686 
C 296.716375 288.236125 295.022644 292.325156 295.022644 296.588216 
C 295.022644 300.851276 296.716375 304.940307 299.730814 307.954746 
C 302.745253 310.969185 306.834284 312.662917 311.097344 312.662917 
z
" clip-path="url(#p2109accc53)" style="fill: #9467bd; fill-opacity: 0.7; stroke: #000000; stroke-opacity: 0.7; stroke-width: 0.5"/>
    <path d="M 477.180209 196.796758 
C 481.442838 196.796758 485.531454 195.103198 488.545587 192.089065 
C 491.559721 189.074931 493.253281 184.986315 493.253281 180.723687 
C 493.253281 176.461058 491.559721 172.372442 488.545587 169.358309 
C 485.531454 166.344175 481.442838 164.650615 477.180209 164.650615 
C 472.917581 164.650615 468.828965 166.344175 465.814831 169.358309 
C 462.800698 172.372442 461.107138 176.461058 461.107138 180.723687 
C 461.107138 184.986315 462.800698 189.074931 465.814831 192.089065 
C 468.828965 195.103198 472.917581 196.796758 477.180209 196.796758 
z
" clip-path="url(#p2109accc53)" style="fill: #9467bd; fill-opacity: 0.7; stroke: #000000; stroke-opacity: 0.7; stroke-width: 0.5"/>
    <path d="M 177.364532 430.936563 
C 181.567565 430.936563 185.599018 429.26668 188.571011 426.294687 
C 191.543004 423.322694 193.212887 419.291241 193.212887 415.088208 
C 193.212887 410.885176 191.543004 406.853722 188.571011 403.88173 
C 185.599018 400.909737 181.567565 399.239854 177.364532 399.239854 
C 173.1615 399.239854 169.130046 400.909737 166.158054 403.88173 
C 163.186061 406.853722 161.516178 410.885176 161.516178 415.088208 
C 161.516178 419.291241 163.186061 423.322694 166.158054 426.294687 
C 169.130046 429.26668 173.1615 430.936563 177.364532 430.936563 
z
" clip-path="url(#p2109accc53)" style="fill: #9467bd; fill-opacity: 0.7; stroke: #000000; stroke-opacity: 0.7; stroke-width: 0.5"/>
    <path d="M 436.453802 109.094784 
C 440.522381 109.094784 444.42487 107.47832 447.30179 104.601401 
C 450.178709 101.724481 451.795173 97.821992 451.795173 93.753413 
C 451.795173 89.684834 450.178709 85.782346 447.30179 82.905426 
C 444.42487 80.028507 440.522381 78.412043 436.453802 78.412043 
C 432.385223 78.412043 428.482735 80.028507 425.605815 82.905426 
C 422.728895 85.782346 421.112432 89.684834 421.112432 93.753413 
C 421.112432 97.821992 422.728895 101.724481 425.605815 104.601401 
C 428.482735 107.47832 432.385223 109.094784 436.453802 109.094784 
z
" clip-path="url(#p2109accc53)" style="fill: #9467bd; fill-opacity: 0.7; stroke: #000000; stroke-opacity: 0.7; stroke-width: 0.5"/>
    <path d="M 108.331828 356.645684 
C 112.28844 356.645684 116.083532 355.073705 118.881279 352.275958 
C 121.679027 349.478211 123.251005 345.683119 123.251005 341.726507 
C 123.251005 337.769895 121.679027 333.974803 118.881279 331.177056 
C 116.083532 328.379308 112.28844 326.80733 108.331828 326.80733 
C 104.375216 326.80733 100.580124 328.379308 97.782377 331.177056 
C 94.98463 333.974803 93.412651 337.769895 93.412651 341.726507 
C 93.412651 345.683119 94.98463 349.478211 97.782377 352.275958 
C 100.580124 355.073705 104.375216 356.645684 108.331828 356.645684 
z
" clip-path="url(#p2109accc53)" style="fill: #9467bd; fill-opacity: 0.7; stroke: #000000; stroke-opacity: 0.7; stroke-width: 0.5"/>
    <path d="M 104.769471 260.527472 
C 108.701809 260.527472 112.473618 258.965138 115.254201 256.184555 
C 118.034784 253.403972 119.597119 249.632163 119.597119 245.699825 
C 119.597119 241.767487 118.034784 237.995678 115.254201 235.215095 
C 112.473618 232.434512 108.701809 230.872177 104.769471 230.872177 
C 100.837133 230.872177 97.065324 232.434512 94.284741 235.215095 
C 91.504158 237.995678 89.941824 241.767487 89.941824 245.699825 
C 89.941824 249.632163 91.504158 253.403972 94.284741 256.184555 
C 97.065324 258.965138 100.837133 260.527472 104.769471 260.527472 
z
" clip-path="url(#p2109accc53)" style="fill: #9467bd; fill-opacity: 0.7; stroke: #000000; stroke-opacity: 0.7; stroke-width: 0.5"/>
    <path d="M 457.250266 329.442401 
C 460.689531 329.442401 463.988396 328.075967 466.420324 325.644039 
C 468.852251 323.212111 470.218686 319.913246 470.218686 316.473981 
C 470.218686 313.034716 468.852251 309.735851 466.420324 307.303923 
C 463.988396 304.871995 460.689531 303.505561 457.250266 303.505561 
C 453.811 303.505561 450.512135 304.871995 448.080208 307.303923 
C 445.64828 309.735851 444.281845 313.034716 444.281845 316.473981 
C 444.281845 319.913246 445.64828 323.212111 448.080208 325.644039 
C 450.512135 328.075967 453.811 329.442401 457.250266 329.442401 
z
" clip-path="url(#p2109accc53)" style="fill: #9467bd; fill-opacity: 0.7; stroke: #000000; stroke-opacity: 0.7; stroke-width: 0.5"/>
    <path d="M 216.165341 255.322451 
C 219.047696 255.322451 221.812385 254.177279 223.850518 252.139146 
C 225.88865 250.101014 227.033822 247.336325 227.033822 244.45397 
C 227.033822 241.571615 225.88865 238.806926 223.850518 236.768793 
C 221.812385 234.73066 219.047696 233.585488 216.165341 233.585488 
C 213.282986 233.585488 210.518297 234.73066 208.480164 236.768793 
C 206.442031 238.806926 205.29686 241.571615 205.29686 244.45397 
C 205.29686 247.336325 206.442031 250.101014 208.480164 252.139146 
C 210.518297 254.177279 213.282986 255.322451 216.165341 255.322451 
z
" clip-path="url(#p2109accc53)" style="fill: #9467bd; fill-opacity: 0.7; stroke: #000000; stroke-opacity: 0.7; stroke-width: 0.5"/>
    <path d="M 490.274279 450.305106 
C 492.62458 450.305106 494.878936 449.371321 496.54085 447.709407 
C 498.202764 446.047493 499.136548 443.793138 499.136548 441.442837 
C 499.136548 439.092535 498.202764 436.83818 496.54085 435.176266 
C 494.878936 433.514352 492.62458 432.580567 490.274279 432.580567 
C 487.923978 432.580567 485.669622 433.514352 484.007708 435.176266 
C 482.345794 436.83818 481.41201 439.092535 481.41201 441.442837 
C 481.41201 443.793138 482.345794 446.047493 484.007708 447.709407 
C 485.669622 449.371321 487.923978 450.305106 490.274279 450.305106 
z
" clip-path="url(#p2109accc53)" style="fill: #9467bd; fill-opacity: 0.7; stroke: #000000; stroke-opacity: 0.7; stroke-width: 0.5"/>
   </g>
   <g id="PathCollection_2"/>
   <g id="PathCollection_3"/>
   <g id="matplotlib.axis_1">
    <g id="xtick_1">
     <g id="line2d_1">
      <defs>
       <path id="m854497ec26" d="M 0 0 
L 0 3.5 
" style="stroke: #000000"/>
      </defs>
      <g>
       <use xlink:href="#m854497ec26" x="92.830761" y="493.59625" style="stroke: #000000"/>
      </g>
     </g>
     <g id="text_1">
      <!-- 0 -->
      <g transform="translate(89.830761 508.92875) scale(0.12 -0.12)">
       <defs>
        <path id="TimesNewRomanPSMT-30" d="M 231 2094 
Q 231 2819 450 3342 
Q 669 3866 1031 4122 
Q 1313 4325 1613 4325 
Q 2100 4325 2488 3828 
Q 2972 3213 2972 2159 
Q 2972 1422 2759 906 
Q 2547 391 2217 158 
Q 1888 -75 1581 -75 
Q 975 -75 572 641 
Q 231 1244 231 2094 
z
M 844 2016 
Q 844 1141 1059 588 
Q 1238 122 1591 122 
Q 1759 122 1940 273 
Q 2122 425 2216 781 
Q 2359 1319 2359 2297 
Q 2359 3022 2209 3506 
Q 2097 3866 1919 4016 
Q 1791 4119 1609 4119 
Q 1397 4119 1231 3928 
Q 1006 3669 925 3112 
Q 844 2556 844 2016 
z
" transform="scale(0.015625)"/>
       </defs>
       <use xlink:href="#TimesNewRomanPSMT-30"/>
      </g>
     </g>
    </g>
    <g id="xtick_2">
     <g id="line2d_2">
      <g>
       <use xlink:href="#m854497ec26" x="189.110683" y="493.59625" style="stroke: #000000"/>
      </g>
     </g>
     <g id="text_2">
      <!-- 10 -->
      <g transform="translate(183.110683 508.92875) scale(0.12 -0.12)">
       <defs>
        <path id="TimesNewRomanPSMT-31" d="M 750 3822 
L 1781 4325 
L 1884 4325 
L 1884 747 
Q 1884 391 1914 303 
Q 1944 216 2037 169 
Q 2131 122 2419 116 
L 2419 0 
L 825 0 
L 825 116 
Q 1125 122 1212 167 
Q 1300 213 1334 289 
Q 1369 366 1369 747 
L 1369 3034 
Q 1369 3497 1338 3628 
Q 1316 3728 1258 3775 
Q 1200 3822 1119 3822 
Q 1003 3822 797 3725 
L 750 3822 
z
" transform="scale(0.015625)"/>
       </defs>
       <use xlink:href="#TimesNewRomanPSMT-31"/>
       <use xlink:href="#TimesNewRomanPSMT-30" transform="translate(50 0)"/>
      </g>
     </g>
    </g>
    <g id="xtick_3">
     <g id="line2d_3">
      <g>
       <use xlink:href="#m854497ec26" x="285.390605" y="493.59625" style="stroke: #000000"/>
      </g>
     </g>
     <g id="text_3">
      <!-- 20 -->
      <g transform="translate(279.390605 508.92875) scale(0.12 -0.12)">
       <defs>
        <path id="TimesNewRomanPSMT-32" d="M 2934 816 
L 2638 0 
L 138 0 
L 138 116 
Q 1241 1122 1691 1759 
Q 2141 2397 2141 2925 
Q 2141 3328 1894 3587 
Q 1647 3847 1303 3847 
Q 991 3847 742 3664 
Q 494 3481 375 3128 
L 259 3128 
Q 338 3706 661 4015 
Q 984 4325 1469 4325 
Q 1984 4325 2329 3994 
Q 2675 3663 2675 3213 
Q 2675 2891 2525 2569 
Q 2294 2063 1775 1497 
Q 997 647 803 472 
L 1909 472 
Q 2247 472 2383 497 
Q 2519 522 2628 598 
Q 2738 675 2819 816 
L 2934 816 
z
" transform="scale(0.015625)"/>
       </defs>
       <use xlink:href="#TimesNewRomanPSMT-32"/>
       <use xlink:href="#TimesNewRomanPSMT-30" transform="translate(50 0)"/>
      </g>
     </g>
    </g>
    <g id="xtick_4">
     <g id="line2d_4">
      <g>
       <use xlink:href="#m854497ec26" x="381.670527" y="493.59625" style="stroke: #000000"/>
      </g>
     </g>
     <g id="text_4">
      <!-- 30 -->
      <g transform="translate(375.670527 508.92875) scale(0.12 -0.12)">
       <defs>
        <path id="TimesNewRomanPSMT-33" d="M 325 3431 
Q 506 3859 782 4092 
Q 1059 4325 1472 4325 
Q 1981 4325 2253 3994 
Q 2459 3747 2459 3466 
Q 2459 3003 1878 2509 
Q 2269 2356 2469 2072 
Q 2669 1788 2669 1403 
Q 2669 853 2319 450 
Q 1863 -75 997 -75 
Q 569 -75 414 31 
Q 259 138 259 259 
Q 259 350 332 419 
Q 406 488 509 488 
Q 588 488 669 463 
Q 722 447 909 348 
Q 1097 250 1169 231 
Q 1284 197 1416 197 
Q 1734 197 1970 444 
Q 2206 691 2206 1028 
Q 2206 1275 2097 1509 
Q 2016 1684 1919 1775 
Q 1784 1900 1550 2001 
Q 1316 2103 1072 2103 
L 972 2103 
L 972 2197 
Q 1219 2228 1467 2375 
Q 1716 2522 1828 2728 
Q 1941 2934 1941 3181 
Q 1941 3503 1739 3701 
Q 1538 3900 1238 3900 
Q 753 3900 428 3381 
L 325 3431 
z
" transform="scale(0.015625)"/>
       </defs>
       <use xlink:href="#TimesNewRomanPSMT-33"/>
       <use xlink:href="#TimesNewRomanPSMT-30" transform="translate(50 0)"/>
      </g>
     </g>
    </g>
    <g id="xtick_5">
     <g id="line2d_5">
      <g>
       <use xlink:href="#m854497ec26" x="477.950449" y="493.59625" style="stroke: #000000"/>
      </g>
     </g>
     <g id="text_5">
      <!-- 40 -->
      <g transform="translate(471.950449 508.92875) scale(0.12 -0.12)">
       <defs>
        <path id="TimesNewRomanPSMT-34" d="M 2978 1563 
L 2978 1119 
L 2409 1119 
L 2409 0 
L 1894 0 
L 1894 1119 
L 100 1119 
L 100 1519 
L 2066 4325 
L 2409 4325 
L 2409 1563 
L 2978 1563 
z
M 1894 1563 
L 1894 3666 
L 406 1563 
L 1894 1563 
z
" transform="scale(0.015625)"/>
       </defs>
       <use xlink:href="#TimesNewRomanPSMT-34"/>
       <use xlink:href="#TimesNewRomanPSMT-30" transform="translate(50 0)"/>
      </g>
     </g>
    </g>
    <g id="text_6">
     <!-- Study hours (hours/week) -->
     <g transform="translate(225.197656 525.216875) scale(0.14 -0.14)">
      <defs>
       <path id="TimesNewRomanPSMT-53" d="M 2934 4334 
L 2934 2869 
L 2819 2869 
Q 2763 3291 2617 3541 
Q 2472 3791 2203 3937 
Q 1934 4084 1647 4084 
Q 1322 4084 1109 3886 
Q 897 3688 897 3434 
Q 897 3241 1031 3081 
Q 1225 2847 1953 2456 
Q 2547 2138 2764 1967 
Q 2981 1797 3098 1565 
Q 3216 1334 3216 1081 
Q 3216 600 2842 251 
Q 2469 -97 1881 -97 
Q 1697 -97 1534 -69 
Q 1438 -53 1133 45 
Q 828 144 747 144 
Q 669 144 623 97 
Q 578 50 556 -97 
L 441 -97 
L 441 1356 
L 556 1356 
Q 638 900 775 673 
Q 913 447 1195 297 
Q 1478 147 1816 147 
Q 2206 147 2432 353 
Q 2659 559 2659 841 
Q 2659 997 2573 1156 
Q 2488 1316 2306 1453 
Q 2184 1547 1640 1851 
Q 1097 2156 867 2337 
Q 638 2519 519 2737 
Q 400 2956 400 3219 
Q 400 3675 750 4004 
Q 1100 4334 1641 4334 
Q 1978 4334 2356 4169 
Q 2531 4091 2603 4091 
Q 2684 4091 2736 4139 
Q 2788 4188 2819 4334 
L 2934 4334 
z
" transform="scale(0.015625)"/>
       <path id="TimesNewRomanPSMT-74" d="M 1031 3803 
L 1031 2863 
L 1700 2863 
L 1700 2644 
L 1031 2644 
L 1031 788 
Q 1031 509 1111 412 
Q 1191 316 1316 316 
Q 1419 316 1516 380 
Q 1613 444 1666 569 
L 1788 569 
Q 1678 263 1478 108 
Q 1278 -47 1066 -47 
Q 922 -47 784 33 
Q 647 113 581 261 
Q 516 409 516 719 
L 516 2644 
L 63 2644 
L 63 2747 
Q 234 2816 414 2980 
Q 594 3144 734 3369 
Q 806 3488 934 3803 
L 1031 3803 
z
" transform="scale(0.015625)"/>
       <path id="TimesNewRomanPSMT-75" d="M 2709 2863 
L 2709 1128 
Q 2709 631 2732 520 
Q 2756 409 2807 365 
Q 2859 322 2928 322 
Q 3025 322 3147 375 
L 3191 266 
L 2334 -88 
L 2194 -88 
L 2194 519 
Q 1825 119 1631 15 
Q 1438 -88 1222 -88 
Q 981 -88 804 51 
Q 628 191 559 409 
Q 491 628 491 1028 
L 491 2306 
Q 491 2509 447 2587 
Q 403 2666 317 2708 
Q 231 2750 6 2747 
L 6 2863 
L 1009 2863 
L 1009 947 
Q 1009 547 1148 422 
Q 1288 297 1484 297 
Q 1619 297 1789 381 
Q 1959 466 2194 703 
L 2194 2325 
Q 2194 2569 2105 2655 
Q 2016 2741 1734 2747 
L 1734 2863 
L 2709 2863 
z
" transform="scale(0.015625)"/>
       <path id="TimesNewRomanPSMT-64" d="M 2222 322 
Q 2013 103 1813 7 
Q 1613 -88 1381 -88 
Q 913 -88 563 304 
Q 213 697 213 1313 
Q 213 1928 600 2439 
Q 988 2950 1597 2950 
Q 1975 2950 2222 2709 
L 2222 3238 
Q 2222 3728 2198 3840 
Q 2175 3953 2125 3993 
Q 2075 4034 2000 4034 
Q 1919 4034 1784 3984 
L 1744 4094 
L 2597 4444 
L 2738 4444 
L 2738 1134 
Q 2738 631 2761 520 
Q 2784 409 2836 365 
Q 2888 322 2956 322 
Q 3041 322 3181 375 
L 3216 266 
L 2366 -88 
L 2222 -88 
L 2222 322 
z
M 2222 541 
L 2222 2016 
Q 2203 2228 2109 2403 
Q 2016 2578 1861 2667 
Q 1706 2756 1559 2756 
Q 1284 2756 1069 2509 
Q 784 2184 784 1559 
Q 784 928 1059 592 
Q 1334 256 1672 256 
Q 1956 256 2222 541 
z
" transform="scale(0.015625)"/>
       <path id="TimesNewRomanPSMT-79" d="M 38 2863 
L 1372 2863 
L 1372 2747 
L 1306 2747 
Q 1166 2747 1095 2686 
Q 1025 2625 1025 2534 
Q 1025 2413 1128 2197 
L 1825 753 
L 2466 2334 
Q 2519 2463 2519 2588 
Q 2519 2644 2497 2672 
Q 2472 2706 2419 2726 
Q 2366 2747 2231 2747 
L 2231 2863 
L 3163 2863 
L 3163 2747 
Q 3047 2734 2984 2696 
Q 2922 2659 2847 2556 
Q 2819 2513 2741 2316 
L 1575 -541 
Q 1406 -956 1132 -1168 
Q 859 -1381 606 -1381 
Q 422 -1381 303 -1275 
Q 184 -1169 184 -1031 
Q 184 -900 270 -820 
Q 356 -741 506 -741 
Q 609 -741 788 -809 
Q 913 -856 944 -856 
Q 1038 -856 1148 -759 
Q 1259 -663 1372 -384 
L 1575 113 
L 547 2272 
Q 500 2369 397 2513 
Q 319 2622 269 2659 
Q 197 2709 38 2747 
L 38 2863 
z
" transform="scale(0.015625)"/>
       <path id="TimesNewRomanPSMT-20" transform="scale(0.015625)"/>
       <path id="TimesNewRomanPSMT-68" d="M 1041 4444 
L 1041 2350 
Q 1388 2731 1591 2839 
Q 1794 2947 1997 2947 
Q 2241 2947 2416 2812 
Q 2591 2678 2675 2391 
Q 2734 2191 2734 1659 
L 2734 647 
Q 2734 375 2778 275 
Q 2809 200 2884 156 
Q 2959 113 3159 113 
L 3159 0 
L 1753 0 
L 1753 113 
L 1819 113 
Q 2019 113 2097 173 
Q 2175 234 2206 353 
Q 2216 403 2216 647 
L 2216 1659 
Q 2216 2128 2167 2275 
Q 2119 2422 2012 2495 
Q 1906 2569 1756 2569 
Q 1603 2569 1437 2487 
Q 1272 2406 1041 2159 
L 1041 647 
Q 1041 353 1073 281 
Q 1106 209 1195 161 
Q 1284 113 1503 113 
L 1503 0 
L 84 0 
L 84 113 
Q 275 113 384 172 
Q 447 203 484 290 
Q 522 378 522 647 
L 522 3238 
Q 522 3728 498 3840 
Q 475 3953 426 3993 
Q 378 4034 297 4034 
Q 231 4034 84 3984 
L 41 4094 
L 897 4444 
L 1041 4444 
z
" transform="scale(0.015625)"/>
       <path id="TimesNewRomanPSMT-6f" d="M 1600 2947 
Q 2250 2947 2644 2453 
Q 2978 2031 2978 1484 
Q 2978 1100 2793 706 
Q 2609 313 2286 112 
Q 1963 -88 1566 -88 
Q 919 -88 538 428 
Q 216 863 216 1403 
Q 216 1797 411 2186 
Q 606 2575 925 2761 
Q 1244 2947 1600 2947 
z
M 1503 2744 
Q 1338 2744 1170 2645 
Q 1003 2547 900 2300 
Q 797 2053 797 1666 
Q 797 1041 1045 587 
Q 1294 134 1700 134 
Q 2003 134 2200 384 
Q 2397 634 2397 1244 
Q 2397 2006 2069 2444 
Q 1847 2744 1503 2744 
z
" transform="scale(0.015625)"/>
       <path id="TimesNewRomanPSMT-72" d="M 1038 2947 
L 1038 2303 
Q 1397 2947 1775 2947 
Q 1947 2947 2059 2842 
Q 2172 2738 2172 2600 
Q 2172 2478 2090 2393 
Q 2009 2309 1897 2309 
Q 1788 2309 1652 2417 
Q 1516 2525 1450 2525 
Q 1394 2525 1328 2463 
Q 1188 2334 1038 2041 
L 1038 669 
Q 1038 431 1097 309 
Q 1138 225 1241 169 
Q 1344 113 1538 113 
L 1538 0 
L 72 0 
L 72 113 
Q 291 113 397 181 
Q 475 231 506 341 
Q 522 394 522 644 
L 522 1753 
Q 522 2253 501 2348 
Q 481 2444 426 2487 
Q 372 2531 291 2531 
Q 194 2531 72 2484 
L 41 2597 
L 906 2947 
L 1038 2947 
z
" transform="scale(0.015625)"/>
       <path id="TimesNewRomanPSMT-73" d="M 2050 2947 
L 2050 1972 
L 1947 1972 
Q 1828 2431 1642 2597 
Q 1456 2763 1169 2763 
Q 950 2763 815 2647 
Q 681 2531 681 2391 
Q 681 2216 781 2091 
Q 878 1963 1175 1819 
L 1631 1597 
Q 2266 1288 2266 781 
Q 2266 391 1970 151 
Q 1675 -88 1309 -88 
Q 1047 -88 709 6 
Q 606 38 541 38 
Q 469 38 428 -44 
L 325 -44 
L 325 978 
L 428 978 
Q 516 541 762 319 
Q 1009 97 1316 97 
Q 1531 97 1667 223 
Q 1803 350 1803 528 
Q 1803 744 1651 891 
Q 1500 1038 1047 1263 
Q 594 1488 453 1669 
Q 313 1847 313 2119 
Q 313 2472 555 2709 
Q 797 2947 1181 2947 
Q 1350 2947 1591 2875 
Q 1750 2828 1803 2828 
Q 1853 2828 1881 2850 
Q 1909 2872 1947 2947 
L 2050 2947 
z
" transform="scale(0.015625)"/>
       <path id="TimesNewRomanPSMT-28" d="M 1988 -1253 
L 1988 -1369 
Q 1516 -1131 1200 -813 
Q 750 -359 506 256 
Q 263 872 263 1534 
Q 263 2503 741 3301 
Q 1219 4100 1988 4444 
L 1988 4313 
Q 1603 4100 1356 3731 
Q 1109 3363 987 2797 
Q 866 2231 866 1616 
Q 866 947 969 400 
Q 1050 -31 1165 -292 
Q 1281 -553 1476 -793 
Q 1672 -1034 1988 -1253 
z
" transform="scale(0.015625)"/>
       <path id="TimesNewRomanPSMT-2f" d="M 1794 4444 
L 259 -88 
L 9 -88 
L 1544 4444 
L 1794 4444 
z
" transform="scale(0.015625)"/>
       <path id="TimesNewRomanPSMT-77" d="M 41 2863 
L 1241 2863 
L 1241 2747 
Q 1075 2734 1023 2687 
Q 972 2641 972 2553 
Q 972 2456 1025 2319 
L 1638 672 
L 2253 2013 
L 2091 2434 
Q 2016 2622 1894 2694 
Q 1825 2738 1638 2747 
L 1638 2863 
L 3000 2863 
L 3000 2747 
Q 2775 2738 2681 2666 
Q 2619 2616 2619 2506 
Q 2619 2444 2644 2378 
L 3294 734 
L 3897 2319 
Q 3959 2488 3959 2588 
Q 3959 2647 3898 2694 
Q 3838 2741 3659 2747 
L 3659 2863 
L 4563 2863 
L 4563 2747 
Q 4291 2706 4163 2378 
L 3206 -88 
L 3078 -88 
L 2363 1741 
L 1528 -88 
L 1413 -88 
L 494 2319 
Q 403 2547 315 2626 
Q 228 2706 41 2747 
L 41 2863 
z
" transform="scale(0.015625)"/>
       <path id="TimesNewRomanPSMT-65" d="M 681 1784 
Q 678 1147 991 784 
Q 1303 422 1725 422 
Q 2006 422 2214 576 
Q 2422 731 2563 1106 
L 2659 1044 
Q 2594 616 2278 264 
Q 1963 -88 1488 -88 
Q 972 -88 605 314 
Q 238 716 238 1394 
Q 238 2128 614 2539 
Q 991 2950 1559 2950 
Q 2041 2950 2350 2633 
Q 2659 2316 2659 1784 
L 681 1784 
z
M 681 1966 
L 2006 1966 
Q 1991 2241 1941 2353 
Q 1863 2528 1708 2628 
Q 1553 2728 1384 2728 
Q 1125 2728 920 2526 
Q 716 2325 681 1966 
z
" transform="scale(0.015625)"/>
       <path id="TimesNewRomanPSMT-6b" d="M 1047 4444 
L 1047 1597 
L 1775 2259 
Q 2006 2472 2044 2528 
Q 2069 2566 2069 2603 
Q 2069 2666 2017 2711 
Q 1966 2756 1847 2763 
L 1847 2863 
L 3091 2863 
L 3091 2763 
Q 2834 2756 2664 2684 
Q 2494 2613 2291 2428 
L 1556 1750 
L 2291 822 
Q 2597 438 2703 334 
Q 2853 188 2966 144 
Q 3044 113 3238 113 
L 3238 0 
L 1847 0 
L 1847 113 
Q 1966 116 2008 148 
Q 2050 181 2050 241 
Q 2050 313 1925 472 
L 1047 1594 
L 1047 644 
Q 1047 366 1086 278 
Q 1125 191 1197 153 
Q 1269 116 1509 113 
L 1509 0 
L 53 0 
L 53 113 
Q 272 113 381 166 
Q 447 200 481 272 
Q 528 375 528 628 
L 528 3234 
Q 528 3731 506 3842 
Q 484 3953 434 3995 
Q 384 4038 303 4038 
Q 238 4038 106 3984 
L 53 4094 
L 903 4444 
L 1047 4444 
z
" transform="scale(0.015625)"/>
       <path id="TimesNewRomanPSMT-29" d="M 144 4313 
L 144 4444 
Q 619 4209 934 3891 
Q 1381 3434 1625 2820 
Q 1869 2206 1869 1541 
Q 1869 572 1392 -226 
Q 916 -1025 144 -1369 
L 144 -1253 
Q 528 -1038 776 -670 
Q 1025 -303 1145 264 
Q 1266 831 1266 1447 
Q 1266 2113 1163 2663 
Q 1084 3094 967 3353 
Q 850 3613 656 3853 
Q 463 4094 144 4313 
z
" transform="scale(0.015625)"/>
      </defs>
      <use xlink:href="#TimesNewRomanPSMT-53"/>
      <use xlink:href="#TimesNewRomanPSMT-74" transform="translate(55.615234 0)"/>
      <use xlink:href="#TimesNewRomanPSMT-75" transform="translate(83.398438 0)"/>
      <use xlink:href="#TimesNewRomanPSMT-64" transform="translate(133.398438 0)"/>
      <use xlink:href="#TimesNewRomanPSMT-79" transform="translate(183.398438 0)"/>
      <use xlink:href="#TimesNewRomanPSMT-20" transform="translate(233.398438 0)"/>
      <use xlink:href="#TimesNewRomanPSMT-68" transform="translate(258.398438 0)"/>
      <use xlink:href="#TimesNewRomanPSMT-6f" transform="translate(308.398438 0)"/>
      <use xlink:href="#TimesNewRomanPSMT-75" transform="translate(358.398438 0)"/>
      <use xlink:href="#TimesNewRomanPSMT-72" transform="translate(408.398438 0)"/>
      <use xlink:href="#TimesNewRomanPSMT-73" transform="translate(441.699219 0)"/>
      <use xlink:href="#TimesNewRomanPSMT-20" transform="translate(480.615234 0)"/>
      <use xlink:href="#TimesNewRomanPSMT-28" transform="translate(505.615234 0)"/>
      <use xlink:href="#TimesNewRomanPSMT-68" transform="translate(538.916016 0)"/>
      <use xlink:href="#TimesNewRomanPSMT-6f" transform="translate(588.916016 0)"/>
      <use xlink:href="#TimesNewRomanPSMT-75" transform="translate(638.916016 0)"/>
      <use xlink:href="#TimesNewRomanPSMT-72" transform="translate(688.916016 0)"/>
      <use xlink:href="#TimesNewRomanPSMT-73" transform="translate(722.216797 0)"/>
      <use xlink:href="#TimesNewRomanPSMT-2f" transform="translate(761.132812 0)"/>
      <use xlink:href="#TimesNewRomanPSMT-77" transform="translate(788.916016 0)"/>
      <use xlink:href="#TimesNewRomanPSMT-65" transform="translate(861.132812 0)"/>
      <use xlink:href="#TimesNewRomanPSMT-65" transform="translate(905.517578 0)"/>
      <use xlink:href="#TimesNewRomanPSMT-6b" transform="translate(949.902344 0)"/>
      <use xlink:href="#TimesNewRomanPSMT-29" transform="translate(999.902344 0)"/>
     </g>
    </g>
   </g>
   <g id="matplotlib.axis_2">
    <g id="ytick_1">
     <g id="line2d_6">
      <defs>
       <path id="m560611e797" d="M 0 0 
L -3.5 0 
" style="stroke: #000000"/>
      </defs>
      <g>
       <use xlink:href="#m560611e797" x="46.94375" y="409.433943" style="stroke: #000000"/>
      </g>
     </g>
     <g id="text_7">
      <!-- 20 -->
      <g transform="translate(27.94375 413.600193) scale(0.12 -0.12)">
       <use xlink:href="#TimesNewRomanPSMT-32"/>
       <use xlink:href="#TimesNewRomanPSMT-30" transform="translate(50 0)"/>
      </g>
     </g>
    </g>
    <g id="ytick_2">
     <g id="line2d_7">
      <g>
       <use xlink:href="#m560611e797" x="46.94375" y="313.598931" style="stroke: #000000"/>
      </g>
     </g>
     <g id="text_8">
      <!-- 40 -->
      <g transform="translate(27.94375 317.765181) scale(0.12 -0.12)">
       <use xlink:href="#TimesNewRomanPSMT-34"/>
       <use xlink:href="#TimesNewRomanPSMT-30" transform="translate(50 0)"/>
      </g>
     </g>
    </g>
    <g id="ytick_3">
     <g id="line2d_8">
      <g>
       <use xlink:href="#m560611e797" x="46.94375" y="217.763919" style="stroke: #000000"/>
      </g>
     </g>
     <g id="text_9">
      <!-- 60 -->
      <g transform="translate(27.94375 221.930169) scale(0.12 -0.12)">
       <defs>
        <path id="TimesNewRomanPSMT-36" d="M 2869 4325 
L 2869 4209 
Q 2456 4169 2195 4045 
Q 1934 3922 1679 3669 
Q 1425 3416 1258 3105 
Q 1091 2794 978 2366 
Q 1428 2675 1881 2675 
Q 2316 2675 2634 2325 
Q 2953 1975 2953 1425 
Q 2953 894 2631 456 
Q 2244 -75 1606 -75 
Q 1172 -75 869 213 
Q 275 772 275 1663 
Q 275 2231 503 2743 
Q 731 3256 1154 3653 
Q 1578 4050 1965 4187 
Q 2353 4325 2688 4325 
L 2869 4325 
z
M 925 2138 
Q 869 1716 869 1456 
Q 869 1156 980 804 
Q 1091 453 1309 247 
Q 1469 100 1697 100 
Q 1969 100 2183 356 
Q 2397 613 2397 1088 
Q 2397 1622 2184 2012 
Q 1972 2403 1581 2403 
Q 1463 2403 1327 2353 
Q 1191 2303 925 2138 
z
" transform="scale(0.015625)"/>
       </defs>
       <use xlink:href="#TimesNewRomanPSMT-36"/>
       <use xlink:href="#TimesNewRomanPSMT-30" transform="translate(50 0)"/>
      </g>
     </g>
    </g>
    <g id="ytick_4">
     <g id="line2d_9">
      <g>
       <use xlink:href="#m560611e797" x="46.94375" y="121.928907" style="stroke: #000000"/>
      </g>
     </g>
     <g id="text_10">
      <!-- 80 -->
      <g transform="translate(27.94375 126.095157) scale(0.12 -0.12)">
       <defs>
        <path id="TimesNewRomanPSMT-38" d="M 1228 2134 
Q 725 2547 579 2797 
Q 434 3047 434 3316 
Q 434 3728 753 4026 
Q 1072 4325 1600 4325 
Q 2113 4325 2425 4047 
Q 2738 3769 2738 3413 
Q 2738 3175 2569 2928 
Q 2400 2681 1866 2347 
Q 2416 1922 2594 1678 
Q 2831 1359 2831 1006 
Q 2831 559 2490 242 
Q 2150 -75 1597 -75 
Q 994 -75 656 303 
Q 388 606 388 966 
Q 388 1247 577 1523 
Q 766 1800 1228 2134 
z
M 1719 2469 
Q 2094 2806 2194 3001 
Q 2294 3197 2294 3444 
Q 2294 3772 2109 3958 
Q 1925 4144 1606 4144 
Q 1288 4144 1088 3959 
Q 888 3775 888 3528 
Q 888 3366 970 3203 
Q 1053 3041 1206 2894 
L 1719 2469 
z
M 1375 2016 
Q 1116 1797 991 1539 
Q 866 1281 866 981 
Q 866 578 1086 336 
Q 1306 94 1647 94 
Q 1984 94 2187 284 
Q 2391 475 2391 747 
Q 2391 972 2272 1150 
Q 2050 1481 1375 2016 
z
" transform="scale(0.015625)"/>
       </defs>
       <use xlink:href="#TimesNewRomanPSMT-38"/>
       <use xlink:href="#TimesNewRomanPSMT-30" transform="translate(50 0)"/>
      </g>
     </g>
    </g>
    <g id="text_11">
     <!-- Academic performance (score) -->
     <g transform="translate(20.949063 354.270156) rotate(-90) scale(0.14 -0.14)">
      <defs>
       <path id="TimesNewRomanPSMT-41" d="M 2928 1419 
L 1288 1419 
L 1000 750 
Q 894 503 894 381 
Q 894 284 986 211 
Q 1078 138 1384 116 
L 1384 0 
L 50 0 
L 50 116 
Q 316 163 394 238 
Q 553 388 747 847 
L 2238 4334 
L 2347 4334 
L 3822 809 
Q 4000 384 4145 257 
Q 4291 131 4550 116 
L 4550 0 
L 2878 0 
L 2878 116 
Q 3131 128 3220 200 
Q 3309 272 3309 375 
Q 3309 513 3184 809 
L 2928 1419 
z
M 2841 1650 
L 2122 3363 
L 1384 1650 
L 2841 1650 
z
" transform="scale(0.015625)"/>
       <path id="TimesNewRomanPSMT-63" d="M 2631 1088 
Q 2516 522 2178 217 
Q 1841 -88 1431 -88 
Q 944 -88 581 321 
Q 219 731 219 1428 
Q 219 2103 620 2525 
Q 1022 2947 1584 2947 
Q 2006 2947 2278 2723 
Q 2550 2500 2550 2259 
Q 2550 2141 2473 2067 
Q 2397 1994 2259 1994 
Q 2075 1994 1981 2113 
Q 1928 2178 1911 2362 
Q 1894 2547 1784 2644 
Q 1675 2738 1481 2738 
Q 1169 2738 978 2506 
Q 725 2200 725 1697 
Q 725 1184 976 792 
Q 1228 400 1656 400 
Q 1963 400 2206 609 
Q 2378 753 2541 1131 
L 2631 1088 
z
" transform="scale(0.015625)"/>
       <path id="TimesNewRomanPSMT-61" d="M 1822 413 
Q 1381 72 1269 19 
Q 1100 -59 909 -59 
Q 613 -59 420 144 
Q 228 347 228 678 
Q 228 888 322 1041 
Q 450 1253 767 1440 
Q 1084 1628 1822 1897 
L 1822 2009 
Q 1822 2438 1686 2597 
Q 1550 2756 1291 2756 
Q 1094 2756 978 2650 
Q 859 2544 859 2406 
L 866 2225 
Q 866 2081 792 2003 
Q 719 1925 600 1925 
Q 484 1925 411 2006 
Q 338 2088 338 2228 
Q 338 2497 613 2722 
Q 888 2947 1384 2947 
Q 1766 2947 2009 2819 
Q 2194 2722 2281 2516 
Q 2338 2381 2338 1966 
L 2338 994 
Q 2338 584 2353 492 
Q 2369 400 2405 369 
Q 2441 338 2488 338 
Q 2538 338 2575 359 
Q 2641 400 2828 588 
L 2828 413 
Q 2478 -56 2159 -56 
Q 2006 -56 1915 50 
Q 1825 156 1822 413 
z
M 1822 616 
L 1822 1706 
Q 1350 1519 1213 1441 
Q 966 1303 859 1153 
Q 753 1003 753 825 
Q 753 600 887 451 
Q 1022 303 1197 303 
Q 1434 303 1822 616 
z
" transform="scale(0.015625)"/>
       <path id="TimesNewRomanPSMT-6d" d="M 1050 2338 
Q 1363 2650 1419 2697 
Q 1559 2816 1721 2881 
Q 1884 2947 2044 2947 
Q 2313 2947 2506 2790 
Q 2700 2634 2766 2338 
Q 3088 2713 3309 2830 
Q 3531 2947 3766 2947 
Q 3994 2947 4170 2830 
Q 4347 2713 4450 2447 
Q 4519 2266 4519 1878 
L 4519 647 
Q 4519 378 4559 278 
Q 4591 209 4675 161 
Q 4759 113 4950 113 
L 4950 0 
L 3538 0 
L 3538 113 
L 3597 113 
Q 3781 113 3884 184 
Q 3956 234 3988 344 
Q 4000 397 4000 647 
L 4000 1878 
Q 4000 2228 3916 2372 
Q 3794 2572 3525 2572 
Q 3359 2572 3192 2489 
Q 3025 2406 2788 2181 
L 2781 2147 
L 2788 2013 
L 2788 647 
Q 2788 353 2820 281 
Q 2853 209 2943 161 
Q 3034 113 3253 113 
L 3253 0 
L 1806 0 
L 1806 113 
Q 2044 113 2133 169 
Q 2222 225 2256 338 
Q 2272 391 2272 647 
L 2272 1878 
Q 2272 2228 2169 2381 
Q 2031 2581 1784 2581 
Q 1616 2581 1450 2491 
Q 1191 2353 1050 2181 
L 1050 647 
Q 1050 366 1089 281 
Q 1128 197 1204 155 
Q 1281 113 1516 113 
L 1516 0 
L 100 0 
L 100 113 
Q 297 113 375 155 
Q 453 197 493 289 
Q 534 381 534 647 
L 534 1741 
Q 534 2213 506 2350 
Q 484 2453 437 2492 
Q 391 2531 309 2531 
Q 222 2531 100 2484 
L 53 2597 
L 916 2947 
L 1050 2947 
L 1050 2338 
z
" transform="scale(0.015625)"/>
       <path id="TimesNewRomanPSMT-69" d="M 928 4444 
Q 1059 4444 1151 4351 
Q 1244 4259 1244 4128 
Q 1244 3997 1151 3903 
Q 1059 3809 928 3809 
Q 797 3809 703 3903 
Q 609 3997 609 4128 
Q 609 4259 701 4351 
Q 794 4444 928 4444 
z
M 1188 2947 
L 1188 647 
Q 1188 378 1227 289 
Q 1266 200 1342 156 
Q 1419 113 1622 113 
L 1622 0 
L 231 0 
L 231 113 
Q 441 113 512 153 
Q 584 194 626 287 
Q 669 381 669 647 
L 669 1750 
Q 669 2216 641 2353 
Q 619 2453 572 2492 
Q 525 2531 444 2531 
Q 356 2531 231 2484 
L 188 2597 
L 1050 2947 
L 1188 2947 
z
" transform="scale(0.015625)"/>
       <path id="TimesNewRomanPSMT-70" d="M -6 2578 
L 875 2934 
L 994 2934 
L 994 2266 
Q 1216 2644 1439 2795 
Q 1663 2947 1909 2947 
Q 2341 2947 2628 2609 
Q 2981 2197 2981 1534 
Q 2981 794 2556 309 
Q 2206 -88 1675 -88 
Q 1444 -88 1275 -22 
Q 1150 25 994 166 
L 994 -706 
Q 994 -1000 1030 -1079 
Q 1066 -1159 1155 -1206 
Q 1244 -1253 1478 -1253 
L 1478 -1369 
L -22 -1369 
L -22 -1253 
L 56 -1253 
Q 228 -1256 350 -1188 
Q 409 -1153 442 -1076 
Q 475 -1000 475 -688 
L 475 2019 
Q 475 2297 450 2372 
Q 425 2447 370 2484 
Q 316 2522 222 2522 
Q 147 2522 31 2478 
L -6 2578 
z
M 994 2081 
L 994 1013 
Q 994 666 1022 556 
Q 1066 375 1236 237 
Q 1406 100 1666 100 
Q 1978 100 2172 344 
Q 2425 663 2425 1241 
Q 2425 1897 2138 2250 
Q 1938 2494 1663 2494 
Q 1513 2494 1366 2419 
Q 1253 2363 994 2081 
z
" transform="scale(0.015625)"/>
       <path id="TimesNewRomanPSMT-66" d="M 1319 2638 
L 1319 756 
Q 1319 356 1406 250 
Q 1522 113 1716 113 
L 1975 113 
L 1975 0 
L 266 0 
L 266 113 
L 394 113 
Q 519 113 622 175 
Q 725 238 764 344 
Q 803 450 803 756 
L 803 2638 
L 247 2638 
L 247 2863 
L 803 2863 
L 803 3050 
Q 803 3478 940 3775 
Q 1078 4072 1361 4255 
Q 1644 4438 1997 4438 
Q 2325 4438 2600 4225 
Q 2781 4084 2781 3909 
Q 2781 3816 2700 3733 
Q 2619 3650 2525 3650 
Q 2453 3650 2373 3701 
Q 2294 3753 2178 3923 
Q 2063 4094 1966 4153 
Q 1869 4213 1750 4213 
Q 1606 4213 1506 4136 
Q 1406 4059 1362 3898 
Q 1319 3738 1319 3069 
L 1319 2863 
L 2056 2863 
L 2056 2638 
L 1319 2638 
z
" transform="scale(0.015625)"/>
       <path id="TimesNewRomanPSMT-6e" d="M 1034 2341 
Q 1538 2947 1994 2947 
Q 2228 2947 2397 2830 
Q 2566 2713 2666 2444 
Q 2734 2256 2734 1869 
L 2734 647 
Q 2734 375 2778 278 
Q 2813 200 2889 156 
Q 2966 113 3172 113 
L 3172 0 
L 1756 0 
L 1756 113 
L 1816 113 
Q 2016 113 2095 173 
Q 2175 234 2206 353 
Q 2219 400 2219 647 
L 2219 1819 
Q 2219 2209 2117 2386 
Q 2016 2563 1775 2563 
Q 1403 2563 1034 2156 
L 1034 647 
Q 1034 356 1069 288 
Q 1113 197 1189 155 
Q 1266 113 1500 113 
L 1500 0 
L 84 0 
L 84 113 
L 147 113 
Q 366 113 442 223 
Q 519 334 519 647 
L 519 1709 
Q 519 2225 495 2337 
Q 472 2450 423 2490 
Q 375 2531 294 2531 
Q 206 2531 84 2484 
L 38 2597 
L 900 2947 
L 1034 2947 
L 1034 2341 
z
" transform="scale(0.015625)"/>
      </defs>
      <use xlink:href="#TimesNewRomanPSMT-41"/>
      <use xlink:href="#TimesNewRomanPSMT-63" transform="translate(72.216797 0)"/>
      <use xlink:href="#TimesNewRomanPSMT-61" transform="translate(116.601562 0)"/>
      <use xlink:href="#TimesNewRomanPSMT-64" transform="translate(160.986328 0)"/>
      <use xlink:href="#TimesNewRomanPSMT-65" transform="translate(210.986328 0)"/>
      <use xlink:href="#TimesNewRomanPSMT-6d" transform="translate(255.371094 0)"/>
      <use xlink:href="#TimesNewRomanPSMT-69" transform="translate(333.154297 0)"/>
      <use xlink:href="#TimesNewRomanPSMT-63" transform="translate(360.9375 0)"/>
      <use xlink:href="#TimesNewRomanPSMT-20" transform="translate(405.322266 0)"/>
      <use xlink:href="#TimesNewRomanPSMT-70" transform="translate(430.322266 0)"/>
      <use xlink:href="#TimesNewRomanPSMT-65" transform="translate(480.322266 0)"/>
      <use xlink:href="#TimesNewRomanPSMT-72" transform="translate(524.707031 0)"/>
      <use xlink:href="#TimesNewRomanPSMT-66" transform="translate(558.007812 0)"/>
      <use xlink:href="#TimesNewRomanPSMT-6f" transform="translate(591.308594 0)"/>
      <use xlink:href="#TimesNewRomanPSMT-72" transform="translate(641.308594 0)"/>
      <use xlink:href="#TimesNewRomanPSMT-6d" transform="translate(674.609375 0)"/>
      <use xlink:href="#TimesNewRomanPSMT-61" transform="translate(752.392578 0)"/>
      <use xlink:href="#TimesNewRomanPSMT-6e" transform="translate(796.777344 0)"/>
      <use xlink:href="#TimesNewRomanPSMT-63" transform="translate(846.777344 0)"/>
      <use xlink:href="#TimesNewRomanPSMT-65" transform="translate(891.162109 0)"/>
      <use xlink:href="#TimesNewRomanPSMT-20" transform="translate(935.546875 0)"/>
      <use xlink:href="#TimesNewRomanPSMT-28" transform="translate(960.546875 0)"/>
      <use xlink:href="#TimesNewRomanPSMT-73" transform="translate(993.847656 0)"/>
      <use xlink:href="#TimesNewRomanPSMT-63" transform="translate(1032.763672 0)"/>
      <use xlink:href="#TimesNewRomanPSMT-6f" transform="translate(1077.148438 0)"/>
      <use xlink:href="#TimesNewRomanPSMT-72" transform="translate(1127.148438 0)"/>
      <use xlink:href="#TimesNewRomanPSMT-65" transform="translate(1160.449219 0)"/>
      <use xlink:href="#TimesNewRomanPSMT-29" transform="translate(1204.833984 0)"/>
     </g>
    </g>
   </g>
   <g id="patch_3">
    <path d="M 46.94375 493.59625 
L 46.94375 41.6 
" style="fill: none; stroke: #000000; stroke-linejoin: miter; stroke-linecap: square"/>
   </g>
   <g id="patch_4">
    <path d="M 46.94375 493.59625 
L 548.1 493.59625 
" style="fill: none; stroke: #000000; stroke-linejoin: miter; stroke-linecap: square"/>
   </g>
   <g id="text_12">
    <!-- 50 -->
    <g transform="translate(240.856758 106.950905) scale(0.08 -0.08)">
     <defs>
      <path id="TimesNewRomanPS-BoldMT-35" d="M 975 4238 
L 2959 4238 
L 2644 3431 
L 975 3431 
L 816 3009 
Q 1894 2969 2475 2472 
Q 2953 2063 2953 1453 
Q 2953 1063 2731 689 
Q 2509 316 2106 114 
Q 1703 -88 1222 -88 
Q 703 -88 425 106 
Q 231 244 231 419 
Q 231 553 332 656 
Q 434 759 569 759 
Q 691 759 816 709 
Q 941 659 1244 447 
Q 1434 316 1572 266 
Q 1669 228 1791 228 
Q 2047 228 2226 415 
Q 2406 603 2406 866 
Q 2406 1416 1856 1759 
Q 1306 2103 469 2103 
Q 384 2103 216 2100 
L 975 4238 
z
" transform="scale(0.015625)"/>
      <path id="TimesNewRomanPS-BoldMT-30" d="M 2966 2119 
Q 2966 1484 2788 934 
Q 2681 597 2501 381 
Q 2322 166 2094 39 
Q 1866 -88 1597 -88 
Q 1291 -88 1044 68 
Q 797 225 606 516 
Q 469 728 366 1081 
Q 231 1559 231 2069 
Q 231 2759 425 3338 
Q 584 3816 909 4070 
Q 1234 4325 1597 4325 
Q 1966 4325 2286 4073 
Q 2606 3822 2756 3397 
Q 2966 2813 2966 2119 
z
M 2003 2125 
Q 2003 3238 1991 3422 
Q 1959 3856 1841 4009 
Q 1763 4109 1588 4109 
Q 1453 4109 1375 4034 
Q 1259 3925 1218 3648 
Q 1178 3372 1178 1719 
Q 1178 819 1241 513 
Q 1288 291 1375 216 
Q 1463 141 1606 141 
Q 1763 141 1841 241 
Q 1972 416 1991 781 
L 2003 2125 
z
" transform="scale(0.015625)"/>
     </defs>
     <use xlink:href="#TimesNewRomanPS-BoldMT-35"/>
     <use xlink:href="#TimesNewRomanPS-BoldMT-30" transform="translate(50 0)"/>
    </g>
   </g>
   <g id="text_13">
    <!-- 50 -->
    <g transform="translate(272.340292 145.28491) scale(0.08 -0.08)">
     <use xlink:href="#TimesNewRomanPS-BoldMT-35"/>
     <use xlink:href="#TimesNewRomanPS-BoldMT-30" transform="translate(50 0)"/>
    </g>
   </g>
   <g id="text_14">
    <!-- 48.54 -->
    <g transform="translate(383.519647 210.78814) scale(0.08 -0.08)">
     <defs>
      <path id="TimesNewRomanPS-BoldMT-34" d="M 159 1597 
L 2172 4325 
L 2553 4325 
L 2553 1597 
L 2941 1597 
L 2941 950 
L 2553 950 
L 2553 0 
L 1694 0 
L 1694 950 
L 159 950 
L 159 1597 
z
M 463 1597 
L 1694 1597 
L 1694 3269 
L 463 1597 
z
" transform="scale(0.015625)"/>
      <path id="TimesNewRomanPS-BoldMT-38" d="M 2181 2394 
Q 2628 2066 2801 1783 
Q 2975 1500 2975 1134 
Q 2975 622 2589 267 
Q 2203 -88 1541 -88 
Q 913 -88 569 221 
Q 225 531 225 978 
Q 225 1319 423 1575 
Q 622 1831 1084 2044 
Q 581 2428 439 2672 
Q 297 2916 297 3238 
Q 297 3663 658 3986 
Q 1019 4309 1647 4309 
Q 2253 4309 2579 4023 
Q 2906 3738 2906 3338 
Q 2906 3038 2729 2808 
Q 2553 2578 2181 2394 
z
M 1944 2553 
Q 2059 2709 2115 2903 
Q 2172 3097 2172 3328 
Q 2172 3734 1997 3950 
Q 1866 4116 1634 4116 
Q 1425 4116 1278 3964 
Q 1131 3813 1131 3588 
Q 1131 3359 1295 3114 
Q 1459 2869 1944 2553 
z
M 1319 1894 
Q 1222 1806 1181 1734 
Q 1119 1625 1069 1415 
Q 1019 1206 1019 978 
Q 1019 684 1094 486 
Q 1169 288 1308 200 
Q 1447 113 1594 113 
Q 1822 113 1978 280 
Q 2134 447 2134 738 
Q 2134 1344 1319 1894 
z
" transform="scale(0.015625)"/>
      <path id="TimesNewRomanPS-BoldMT-2e" d="M 800 963 
Q 1019 963 1170 809 
Q 1322 656 1322 441 
Q 1322 225 1169 73 
Q 1016 -78 800 -78 
Q 584 -78 432 73 
Q 281 225 281 441 
Q 281 656 432 809 
Q 584 963 800 963 
z
" transform="scale(0.015625)"/>
     </defs>
     <use xlink:href="#TimesNewRomanPS-BoldMT-34"/>
     <use xlink:href="#TimesNewRomanPS-BoldMT-38" transform="translate(50 0)"/>
     <use xlink:href="#TimesNewRomanPS-BoldMT-2e" transform="translate(100 0)"/>
     <use xlink:href="#TimesNewRomanPS-BoldMT-35" transform="translate(125 0)"/>
     <use xlink:href="#TimesNewRomanPS-BoldMT-34" transform="translate(175 0)"/>
    </g>
   </g>
   <g id="text_15">
    <!-- 43.39 -->
    <g transform="translate(287.143445 365.226262) scale(0.08 -0.08)">
     <defs>
      <path id="TimesNewRomanPS-BoldMT-33" d="M 947 2125 
L 947 2234 
Q 1303 2338 1440 2427 
Q 1578 2516 1678 2698 
Q 1778 2881 1778 3069 
Q 1778 3328 1589 3514 
Q 1400 3700 1119 3700 
Q 681 3700 375 3238 
L 259 3278 
Q 484 3800 836 4062 
Q 1188 4325 1619 4325 
Q 2059 4325 2345 4056 
Q 2631 3788 2631 3428 
Q 2631 3194 2498 2976 
Q 2366 2759 2081 2594 
Q 2447 2416 2639 2155 
Q 2831 1894 2831 1500 
Q 2831 838 2351 373 
Q 1872 -91 1066 -91 
Q 528 -91 281 88 
Q 103 213 103 409 
Q 103 553 206 654 
Q 309 756 444 756 
Q 547 756 638 713 
Q 688 688 992 439 
Q 1297 191 1563 191 
Q 1794 191 1959 373 
Q 2125 556 2125 838 
Q 2125 1266 1825 1627 
Q 1525 1988 947 2125 
z
" transform="scale(0.015625)"/>
      <path id="TimesNewRomanPS-BoldMT-39" d="M 197 -88 
L 197 0 
Q 716 119 1077 350 
Q 1438 581 1648 922 
Q 1859 1263 1944 1706 
Q 1750 1606 1614 1567 
Q 1478 1528 1328 1528 
Q 847 1528 526 1875 
Q 206 2222 206 2825 
Q 206 3244 379 3592 
Q 553 3941 875 4133 
Q 1197 4325 1544 4325 
Q 1916 4325 2247 4112 
Q 2578 3900 2775 3497 
Q 2972 3094 2972 2578 
Q 2972 1909 2651 1296 
Q 2331 684 1697 314 
Q 1063 -56 197 -88 
z
M 1991 1969 
Q 2022 2319 2022 2584 
Q 2022 3153 1891 3644 
Q 1816 3916 1669 4044 
Q 1591 4113 1466 4113 
Q 1309 4113 1222 3978 
Q 1100 3794 1100 3275 
Q 1100 2409 1306 2081 
Q 1441 1869 1669 1869 
Q 1791 1869 1991 1969 
z
" transform="scale(0.015625)"/>
     </defs>
     <use xlink:href="#TimesNewRomanPS-BoldMT-34"/>
     <use xlink:href="#TimesNewRomanPS-BoldMT-33" transform="translate(50 0)"/>
     <use xlink:href="#TimesNewRomanPS-BoldMT-2e" transform="translate(100 0)"/>
     <use xlink:href="#TimesNewRomanPS-BoldMT-33" transform="translate(125 0)"/>
     <use xlink:href="#TimesNewRomanPS-BoldMT-39" transform="translate(175 0)"/>
    </g>
   </g>
   <g id="text_16">
    <!-- 40.73 -->
    <g transform="translate(194.04076 253.818061) scale(0.08 -0.08)">
     <defs>
      <path id="TimesNewRomanPS-BoldMT-37" d="M 1134 -88 
L 2288 3409 
L 1409 3409 
Q 894 3409 634 3275 
Q 453 3181 334 2922 
L 216 2922 
L 522 4238 
L 3047 4238 
L 1625 -88 
L 1134 -88 
z
" transform="scale(0.015625)"/>
     </defs>
     <use xlink:href="#TimesNewRomanPS-BoldMT-34"/>
     <use xlink:href="#TimesNewRomanPS-BoldMT-30" transform="translate(50 0)"/>
     <use xlink:href="#TimesNewRomanPS-BoldMT-2e" transform="translate(100 0)"/>
     <use xlink:href="#TimesNewRomanPS-BoldMT-37" transform="translate(125 0)"/>
     <use xlink:href="#TimesNewRomanPS-BoldMT-33" transform="translate(175 0)"/>
    </g>
   </g>
   <g id="text_17">
    <!-- 39.35 -->
    <g transform="translate(302.644512 298.381341) scale(0.08 -0.08)">
     <use xlink:href="#TimesNewRomanPS-BoldMT-33"/>
     <use xlink:href="#TimesNewRomanPS-BoldMT-39" transform="translate(50 0)"/>
     <use xlink:href="#TimesNewRomanPS-BoldMT-2e" transform="translate(100 0)"/>
     <use xlink:href="#TimesNewRomanPS-BoldMT-33" transform="translate(125 0)"/>
     <use xlink:href="#TimesNewRomanPS-BoldMT-35" transform="translate(175 0)"/>
    </g>
   </g>
   <g id="text_18">
    <!-- 39.34 -->
    <g transform="translate(468.727378 182.516812) scale(0.08 -0.08)">
     <use xlink:href="#TimesNewRomanPS-BoldMT-33"/>
     <use xlink:href="#TimesNewRomanPS-BoldMT-39" transform="translate(50 0)"/>
     <use xlink:href="#TimesNewRomanPS-BoldMT-2e" transform="translate(100 0)"/>
     <use xlink:href="#TimesNewRomanPS-BoldMT-33" transform="translate(125 0)"/>
     <use xlink:href="#TimesNewRomanPS-BoldMT-34" transform="translate(175 0)"/>
    </g>
   </g>
   <g id="text_19">
    <!-- 37.97 -->
    <g transform="translate(168.9117 416.881333) scale(0.08 -0.08)">
     <use xlink:href="#TimesNewRomanPS-BoldMT-33"/>
     <use xlink:href="#TimesNewRomanPS-BoldMT-37" transform="translate(50 0)"/>
     <use xlink:href="#TimesNewRomanPS-BoldMT-2e" transform="translate(100 0)"/>
     <use xlink:href="#TimesNewRomanPS-BoldMT-39" transform="translate(125 0)"/>
     <use xlink:href="#TimesNewRomanPS-BoldMT-37" transform="translate(175 0)"/>
    </g>
   </g>
   <g id="text_20">
    <!-- 34.95 -->
    <g transform="translate(428.000971 95.546538) scale(0.08 -0.08)">
     <use xlink:href="#TimesNewRomanPS-BoldMT-33"/>
     <use xlink:href="#TimesNewRomanPS-BoldMT-34" transform="translate(50 0)"/>
     <use xlink:href="#TimesNewRomanPS-BoldMT-2e" transform="translate(100 0)"/>
     <use xlink:href="#TimesNewRomanPS-BoldMT-39" transform="translate(125 0)"/>
     <use xlink:href="#TimesNewRomanPS-BoldMT-35" transform="translate(175 0)"/>
    </g>
   </g>
   <g id="text_21">
    <!-- 32.51 -->
    <g transform="translate(99.878996 343.519632) scale(0.08 -0.08)">
     <defs>
      <path id="TimesNewRomanPS-BoldMT-32" d="M 2650 0 
L 156 0 
L 156 69 
Q 1303 1434 1548 1906 
Q 1794 2378 1794 2828 
Q 1794 3156 1591 3373 
Q 1388 3591 1094 3591 
Q 613 3591 347 3109 
L 231 3150 
Q 400 3750 744 4037 
Q 1088 4325 1538 4325 
Q 1859 4325 2125 4175 
Q 2391 4025 2541 3764 
Q 2691 3503 2691 3275 
Q 2691 2859 2459 2431 
Q 2144 1853 1081 819 
L 1997 819 
Q 2334 819 2436 847 
Q 2538 875 2603 942 
Q 2669 1009 2775 1225 
L 2888 1225 
L 2650 0 
z
" transform="scale(0.015625)"/>
      <path id="TimesNewRomanPS-BoldMT-31" d="M 2084 4325 
L 2084 859 
Q 2084 469 2118 361 
Q 2153 253 2262 184 
Q 2372 116 2613 116 
L 2709 116 
L 2709 0 
L 478 0 
L 478 116 
L 591 116 
Q 863 116 978 178 
Q 1094 241 1134 350 
Q 1175 459 1175 859 
L 1175 3056 
Q 1175 3350 1147 3423 
Q 1119 3497 1042 3548 
Q 966 3600 866 3600 
Q 706 3600 478 3500 
L 422 3613 
L 1981 4325 
L 2084 4325 
z
" transform="scale(0.015625)"/>
     </defs>
     <use xlink:href="#TimesNewRomanPS-BoldMT-33"/>
     <use xlink:href="#TimesNewRomanPS-BoldMT-32" transform="translate(50 0)"/>
     <use xlink:href="#TimesNewRomanPS-BoldMT-2e" transform="translate(100 0)"/>
     <use xlink:href="#TimesNewRomanPS-BoldMT-35" transform="translate(125 0)"/>
     <use xlink:href="#TimesNewRomanPS-BoldMT-31" transform="translate(175 0)"/>
    </g>
   </g>
   <g id="text_22">
    <!-- 31.99 -->
    <g transform="translate(96.316639 247.49295) scale(0.08 -0.08)">
     <use xlink:href="#TimesNewRomanPS-BoldMT-33"/>
     <use xlink:href="#TimesNewRomanPS-BoldMT-31" transform="translate(50 0)"/>
     <use xlink:href="#TimesNewRomanPS-BoldMT-2e" transform="translate(100 0)"/>
     <use xlink:href="#TimesNewRomanPS-BoldMT-39" transform="translate(125 0)"/>
     <use xlink:href="#TimesNewRomanPS-BoldMT-39" transform="translate(175 0)"/>
    </g>
   </g>
   <g id="text_23">
    <!-- 22.12 -->
    <g transform="translate(448.797434 318.267106) scale(0.08 -0.08)">
     <use xlink:href="#TimesNewRomanPS-BoldMT-32"/>
     <use xlink:href="#TimesNewRomanPS-BoldMT-32" transform="translate(50 0)"/>
     <use xlink:href="#TimesNewRomanPS-BoldMT-2e" transform="translate(100 0)"/>
     <use xlink:href="#TimesNewRomanPS-BoldMT-31" transform="translate(125 0)"/>
     <use xlink:href="#TimesNewRomanPS-BoldMT-32" transform="translate(175 0)"/>
    </g>
   </g>
   <g id="text_24">
    <!-- 12.56 -->
    <g transform="translate(207.712509 246.247095) scale(0.08 -0.08)">
     <defs>
      <path id="TimesNewRomanPS-BoldMT-36" d="M 3006 4325 
L 3006 4238 
Q 2441 4094 2098 3867 
Q 1756 3641 1557 3317 
Q 1359 2994 1250 2516 
Q 1388 2609 1478 2638 
Q 1681 2700 1888 2700 
Q 2363 2700 2680 2354 
Q 2997 2009 2997 1413 
Q 2997 994 2825 644 
Q 2653 294 2337 103 
Q 2022 -88 1663 -88 
Q 1272 -88 940 126 
Q 609 341 423 753 
Q 238 1166 238 1650 
Q 238 2363 580 2977 
Q 922 3591 1551 3955 
Q 2181 4319 3006 4325 
z
M 1209 2263 
Q 1184 1831 1184 1631 
Q 1184 1200 1267 797 
Q 1350 394 1494 231 
Q 1597 116 1738 116 
Q 1881 116 1993 283 
Q 2106 450 2106 963 
Q 2106 1825 1897 2153 
Q 1763 2366 1534 2366 
Q 1409 2366 1209 2263 
z
" transform="scale(0.015625)"/>
     </defs>
     <use xlink:href="#TimesNewRomanPS-BoldMT-31"/>
     <use xlink:href="#TimesNewRomanPS-BoldMT-32" transform="translate(50 0)"/>
     <use xlink:href="#TimesNewRomanPS-BoldMT-2e" transform="translate(100 0)"/>
     <use xlink:href="#TimesNewRomanPS-BoldMT-35" transform="translate(125 0)"/>
     <use xlink:href="#TimesNewRomanPS-BoldMT-36" transform="translate(175 0)"/>
    </g>
   </g>
   <g id="text_25">
    <!-- 5 -->
    <g transform="translate(488.274279 443.235962) scale(0.08 -0.08)">
     <use xlink:href="#TimesNewRomanPS-BoldMT-35"/>
    </g>
   </g>
   <g id="text_26">
    <!-- the Distribution of Education and Academics -->
    <g transform="translate(153.330625 21.6) scale(0.16 -0.16)">
     <defs>
      <path id="TimesNewRomanPSMT-44" d="M 109 0 
L 109 116 
L 269 116 
Q 538 116 650 288 
Q 719 391 719 750 
L 719 3488 
Q 719 3884 631 3984 
Q 509 4122 269 4122 
L 109 4122 
L 109 4238 
L 1834 4238 
Q 2784 4238 3279 4022 
Q 3775 3806 4076 3303 
Q 4378 2800 4378 2141 
Q 4378 1256 3841 663 
Q 3238 0 2003 0 
L 109 0 
z
M 1319 306 
Q 1716 219 1984 219 
Q 2709 219 3187 728 
Q 3666 1238 3666 2109 
Q 3666 2988 3187 3494 
Q 2709 4000 1959 4000 
Q 1678 4000 1319 3909 
L 1319 306 
z
" transform="scale(0.015625)"/>
      <path id="TimesNewRomanPSMT-62" d="M 984 2369 
Q 1400 2947 1881 2947 
Q 2322 2947 2650 2570 
Q 2978 2194 2978 1541 
Q 2978 778 2472 313 
Q 2038 -88 1503 -88 
Q 1253 -88 995 3 
Q 738 94 469 275 
L 469 3241 
Q 469 3728 445 3840 
Q 422 3953 372 3993 
Q 322 4034 247 4034 
Q 159 4034 28 3984 
L -16 4094 
L 844 4444 
L 984 4444 
L 984 2369 
z
M 984 2169 
L 984 456 
Q 1144 300 1314 220 
Q 1484 141 1663 141 
Q 1947 141 2192 453 
Q 2438 766 2438 1363 
Q 2438 1913 2192 2208 
Q 1947 2503 1634 2503 
Q 1469 2503 1303 2419 
Q 1178 2356 984 2169 
z
" transform="scale(0.015625)"/>
      <path id="TimesNewRomanPSMT-45" d="M 1338 4006 
L 1338 2331 
L 2269 2331 
Q 2631 2331 2753 2441 
Q 2916 2584 2934 2947 
L 3050 2947 
L 3050 1472 
L 2934 1472 
Q 2891 1781 2847 1869 
Q 2791 1978 2662 2040 
Q 2534 2103 2269 2103 
L 1338 2103 
L 1338 706 
Q 1338 425 1363 364 
Q 1388 303 1450 267 
Q 1513 231 1688 231 
L 2406 231 
Q 2766 231 2928 281 
Q 3091 331 3241 478 
Q 3434 672 3638 1063 
L 3763 1063 
L 3397 0 
L 131 0 
L 131 116 
L 281 116 
Q 431 116 566 188 
Q 666 238 702 338 
Q 738 438 738 747 
L 738 3500 
Q 738 3903 656 3997 
Q 544 4122 281 4122 
L 131 4122 
L 131 4238 
L 3397 4238 
L 3444 3309 
L 3322 3309 
Q 3256 3644 3176 3769 
Q 3097 3894 2941 3959 
Q 2816 4006 2500 4006 
L 1338 4006 
z
" transform="scale(0.015625)"/>
     </defs>
     <use xlink:href="#TimesNewRomanPSMT-74"/>
     <use xlink:href="#TimesNewRomanPSMT-68" transform="translate(27.783203 0)"/>
     <use xlink:href="#TimesNewRomanPSMT-65" transform="translate(77.783203 0)"/>
     <use xlink:href="#TimesNewRomanPSMT-20" transform="translate(122.167969 0)"/>
     <use xlink:href="#TimesNewRomanPSMT-44" transform="translate(147.167969 0)"/>
     <use xlink:href="#TimesNewRomanPSMT-69" transform="translate(219.384766 0)"/>
     <use xlink:href="#TimesNewRomanPSMT-73" transform="translate(247.167969 0)"/>
     <use xlink:href="#TimesNewRomanPSMT-74" transform="translate(286.083984 0)"/>
     <use xlink:href="#TimesNewRomanPSMT-72" transform="translate(313.867188 0)"/>
     <use xlink:href="#TimesNewRomanPSMT-69" transform="translate(347.167969 0)"/>
     <use xlink:href="#TimesNewRomanPSMT-62" transform="translate(374.951172 0)"/>
     <use xlink:href="#TimesNewRomanPSMT-75" transform="translate(424.951172 0)"/>
     <use xlink:href="#TimesNewRomanPSMT-74" transform="translate(474.951172 0)"/>
     <use xlink:href="#TimesNewRomanPSMT-69" transform="translate(502.734375 0)"/>
     <use xlink:href="#TimesNewRomanPSMT-6f" transform="translate(530.517578 0)"/>
     <use xlink:href="#TimesNewRomanPSMT-6e" transform="translate(580.517578 0)"/>
     <use xlink:href="#TimesNewRomanPSMT-20" transform="translate(630.517578 0)"/>
     <use xlink:href="#TimesNewRomanPSMT-6f" transform="translate(655.517578 0)"/>
     <use xlink:href="#TimesNewRomanPSMT-66" transform="translate(705.517578 0)"/>
     <use xlink:href="#TimesNewRomanPSMT-20" transform="translate(738.818359 0)"/>
     <use xlink:href="#TimesNewRomanPSMT-45" transform="translate(763.818359 0)"/>
     <use xlink:href="#TimesNewRomanPSMT-64" transform="translate(824.902344 0)"/>
     <use xlink:href="#TimesNewRomanPSMT-75" transform="translate(874.902344 0)"/>
     <use xlink:href="#TimesNewRomanPSMT-63" transform="translate(924.902344 0)"/>
     <use xlink:href="#TimesNewRomanPSMT-61" transform="translate(969.287109 0)"/>
     <use xlink:href="#TimesNewRomanPSMT-74" transform="translate(1013.671875 0)"/>
     <use xlink:href="#TimesNewRomanPSMT-69" transform="translate(1041.455078 0)"/>
     <use xlink:href="#TimesNewRomanPSMT-6f" transform="translate(1069.238281 0)"/>
     <use xlink:href="#TimesNewRomanPSMT-6e" transform="translate(1119.238281 0)"/>
     <use xlink:href="#TimesNewRomanPSMT-20" transform="translate(1169.238281 0)"/>
     <use xlink:href="#TimesNewRomanPSMT-61" transform="translate(1194.238281 0)"/>
     <use xlink:href="#TimesNewRomanPSMT-6e" transform="translate(1238.623047 0)"/>
     <use xlink:href="#TimesNewRomanPSMT-64" transform="translate(1288.623047 0)"/>
     <use xlink:href="#TimesNewRomanPSMT-20" transform="translate(1338.623047 0)"/>
     <use xlink:href="#TimesNewRomanPSMT-41" transform="translate(1358.123047 0)"/>
     <use xlink:href="#TimesNewRomanPSMT-63" transform="translate(1430.339844 0)"/>
     <use xlink:href="#TimesNewRomanPSMT-61" transform="translate(1474.724609 0)"/>
     <use xlink:href="#TimesNewRomanPSMT-64" transform="translate(1519.109375 0)"/>
     <use xlink:href="#TimesNewRomanPSMT-65" transform="translate(1569.109375 0)"/>
     <use xlink:href="#TimesNewRomanPSMT-6d" transform="translate(1613.494141 0)"/>
     <use xlink:href="#TimesNewRomanPSMT-69" transform="translate(1691.277344 0)"/>
     <use xlink:href="#TimesNewRomanPSMT-63" transform="translate(1719.060547 0)"/>
     <use xlink:href="#TimesNewRomanPSMT-73" transform="translate(1763.445312 0)"/>
    </g>
   </g>
   <g id="legend_1">
    <g id="patch_5">
     <path d="M 537.317188 167.906656 
L 671.389063 167.906656 
Q 673.389063 167.906656 673.389063 165.906656 
L 673.389063 43.6 
Q 673.389063 41.6 671.389063 41.6 
L 537.317188 41.6 
Q 535.317188 41.6 535.317188 43.6 
L 535.317188 165.906656 
Q 535.317188 167.906656 537.317188 167.906656 
z
" style="fill: #ffffff; opacity: 0.8; stroke: #cccccc; stroke-linejoin: miter"/>
    </g>
    <g id="text_27">
     <!-- Number of students in -->
     <g transform="translate(555.317188 69.238125) scale(0.11 -0.11)">
      <defs>
       <path id="TimesNewRomanPSMT-4e" d="M -84 4238 
L 1066 4238 
L 3656 1059 
L 3656 3503 
Q 3656 3894 3569 3991 
Q 3453 4122 3203 4122 
L 3056 4122 
L 3056 4238 
L 4531 4238 
L 4531 4122 
L 4381 4122 
Q 4113 4122 4000 3959 
Q 3931 3859 3931 3503 
L 3931 -69 
L 3819 -69 
L 1025 3344 
L 1025 734 
Q 1025 344 1109 247 
Q 1228 116 1475 116 
L 1625 116 
L 1625 0 
L 150 0 
L 150 116 
L 297 116 
Q 569 116 681 278 
Q 750 378 750 734 
L 750 3681 
Q 566 3897 470 3965 
Q 375 4034 191 4094 
Q 100 4122 -84 4122 
L -84 4238 
z
" transform="scale(0.015625)"/>
      </defs>
      <use xlink:href="#TimesNewRomanPSMT-4e"/>
      <use xlink:href="#TimesNewRomanPSMT-75" transform="translate(72.216797 0)"/>
      <use xlink:href="#TimesNewRomanPSMT-6d" transform="translate(122.216797 0)"/>
      <use xlink:href="#TimesNewRomanPSMT-62" transform="translate(200 0)"/>
      <use xlink:href="#TimesNewRomanPSMT-65" transform="translate(250 0)"/>
      <use xlink:href="#TimesNewRomanPSMT-72" transform="translate(294.384766 0)"/>
      <use xlink:href="#TimesNewRomanPSMT-20" transform="translate(327.685547 0)"/>
      <use xlink:href="#TimesNewRomanPSMT-6f" transform="translate(352.685547 0)"/>
      <use xlink:href="#TimesNewRomanPSMT-66" transform="translate(402.685547 0)"/>
      <use xlink:href="#TimesNewRomanPSMT-20" transform="translate(435.986328 0)"/>
      <use xlink:href="#TimesNewRomanPSMT-73" transform="translate(460.986328 0)"/>
      <use xlink:href="#TimesNewRomanPSMT-74" transform="translate(499.902344 0)"/>
      <use xlink:href="#TimesNewRomanPSMT-75" transform="translate(527.685547 0)"/>
      <use xlink:href="#TimesNewRomanPSMT-64" transform="translate(577.685547 0)"/>
      <use xlink:href="#TimesNewRomanPSMT-65" transform="translate(627.685547 0)"/>
      <use xlink:href="#TimesNewRomanPSMT-6e" transform="translate(672.070312 0)"/>
      <use xlink:href="#TimesNewRomanPSMT-74" transform="translate(722.070312 0)"/>
      <use xlink:href="#TimesNewRomanPSMT-73" transform="translate(749.853516 0)"/>
      <use xlink:href="#TimesNewRomanPSMT-20" transform="translate(788.769531 0)"/>
      <use xlink:href="#TimesNewRomanPSMT-69" transform="translate(813.769531 0)"/>
      <use xlink:href="#TimesNewRomanPSMT-6e" transform="translate(841.552734 0)"/>
     </g>
     <!-- class -->
     <g transform="translate(555.317188 80.756844) scale(0.11 -0.11)">
      <defs>
       <path id="TimesNewRomanPSMT-6c" d="M 1184 4444 
L 1184 647 
Q 1184 378 1223 290 
Q 1263 203 1344 158 
Q 1425 113 1647 113 
L 1647 0 
L 244 0 
L 244 113 
Q 441 113 512 153 
Q 584 194 625 287 
Q 666 381 666 647 
L 666 3247 
Q 666 3731 644 3842 
Q 622 3953 573 3993 
Q 525 4034 450 4034 
Q 369 4034 244 3984 
L 191 4094 
L 1044 4444 
L 1184 4444 
z
" transform="scale(0.015625)"/>
      </defs>
      <use xlink:href="#TimesNewRomanPSMT-63"/>
      <use xlink:href="#TimesNewRomanPSMT-6c" transform="translate(44.384766 0)"/>
      <use xlink:href="#TimesNewRomanPSMT-61" transform="translate(72.167969 0)"/>
      <use xlink:href="#TimesNewRomanPSMT-73" transform="translate(116.552734 0)"/>
      <use xlink:href="#TimesNewRomanPSMT-73" transform="translate(155.46875 0)"/>
     </g>
     <!-- (students) -->
     <g transform="translate(555.317188 92.275563) scale(0.11 -0.11)">
      <use xlink:href="#TimesNewRomanPSMT-28"/>
      <use xlink:href="#TimesNewRomanPSMT-73" transform="translate(33.300781 0)"/>
      <use xlink:href="#TimesNewRomanPSMT-74" transform="translate(72.216797 0)"/>
      <use xlink:href="#TimesNewRomanPSMT-75" transform="translate(100 0)"/>
      <use xlink:href="#TimesNewRomanPSMT-64" transform="translate(150 0)"/>
      <use xlink:href="#TimesNewRomanPSMT-65" transform="translate(200 0)"/>
      <use xlink:href="#TimesNewRomanPSMT-6e" transform="translate(244.384766 0)"/>
      <use xlink:href="#TimesNewRomanPSMT-74" transform="translate(294.384766 0)"/>
      <use xlink:href="#TimesNewRomanPSMT-73" transform="translate(322.167969 0)"/>
      <use xlink:href="#TimesNewRomanPSMT-29" transform="translate(361.083984 0)"/>
     </g>
    </g>
    <g id="PathCollection_4">
     <defs>
      <path id="m995af81ad1" d="M 0 7.926655 
C 2.102173 7.926655 4.11853 7.091452 5.604991 5.604991 
C 7.091452 4.11853 7.926655 2.102173 7.926655 0 
C 7.926655 -2.102173 7.091452 -4.11853 5.604991 -5.604991 
C 4.11853 -7.091452 2.102173 -7.926655 0 -7.926655 
C -2.102173 -7.926655 -4.11853 -7.091452 -5.604991 -5.604991 
C -7.091452 -4.11853 -7.926655 -2.102173 -7.926655 0 
C -7.926655 2.102173 -7.091452 4.11853 -5.604991 5.604991 
C -4.11853 7.091452 -2.102173 7.926655 0 7.926655 
z
" style="stroke: #000000; stroke-opacity: 0.7; stroke-width: 0.5"/>
     </defs>
     <g>
      <use xlink:href="#m995af81ad1" x="589.353125" y="116.503531" style="fill: #9467bd; fill-opacity: 0.7; stroke: #000000; stroke-opacity: 0.7; stroke-width: 0.5"/>
     </g>
    </g>
    <g id="text_28">
     <!-- 5 -->
     <g transform="translate(616.853125 119.128531) scale(0.1 -0.1)">
      <defs>
       <path id="TimesNewRomanPSMT-35" d="M 2778 4238 
L 2534 3706 
L 1259 3706 
L 981 3138 
Q 1809 3016 2294 2522 
Q 2709 2097 2709 1522 
Q 2709 1188 2573 903 
Q 2438 619 2231 419 
Q 2025 219 1772 97 
Q 1413 -75 1034 -75 
Q 653 -75 479 54 
Q 306 184 306 341 
Q 306 428 378 495 
Q 450 563 559 563 
Q 641 563 702 538 
Q 763 513 909 409 
Q 1144 247 1384 247 
Q 1750 247 2026 523 
Q 2303 800 2303 1197 
Q 2303 1581 2056 1914 
Q 1809 2247 1375 2428 
Q 1034 2569 447 2591 
L 1259 4238 
L 2778 4238 
z
" transform="scale(0.015625)"/>
      </defs>
      <use xlink:href="#TimesNewRomanPSMT-35"/>
     </g>
    </g>
    <g id="PathCollection_5">
     <defs>
      <path id="m3329500479" d="M 0 15.853309 
C 4.204347 15.853309 8.23706 14.182905 11.209982 11.209982 
C 14.182905 8.23706 15.853309 4.204347 15.853309 0 
C 15.853309 -4.204347 14.182905 -8.23706 11.209982 -11.209982 
C 8.23706 -14.182905 4.204347 -15.853309 0 -15.853309 
C -4.204347 -15.853309 -8.23706 -14.182905 -11.209982 -11.209982 
C -14.182905 -8.23706 -15.853309 -4.204347 -15.853309 0 
C -15.853309 4.204347 -14.182905 8.23706 -11.209982 11.209982 
C -8.23706 14.182905 -4.204347 15.853309 0 15.853309 
z
" style="stroke: #000000; stroke-opacity: 0.7; stroke-width: 0.5"/>
     </defs>
     <g>
      <use xlink:href="#m3329500479" x="589.353125" y="143.142594" style="fill: #9467bd; fill-opacity: 0.7; stroke: #000000; stroke-opacity: 0.7; stroke-width: 0.5"/>
     </g>
    </g>
    <g id="text_29">
     <!-- 50 -->
     <g transform="translate(616.853125 145.767594) scale(0.1 -0.1)">
      <use xlink:href="#TimesNewRomanPSMT-35"/>
      <use xlink:href="#TimesNewRomanPSMT-30" transform="translate(50 0)"/>
     </g>
    </g>
   </g>
  </g>
 </g>
 <defs>
  <clipPath id="p2109accc53">
   <rect x="46.94375" y="41.6" width="501.15625" height="451.99625"/>
  </clipPath>
 </defs>
</svg>
