<?xml version="1.0" encoding="utf-8" standalone="no"?>
<!DOCTYPE svg PUBLIC "-//W3C//DTD SVG 1.1//EN"
  "http://www.w3.org/Graphics/SVG/1.1/DTD/svg11.dtd">
<svg xmlns:xlink="http://www.w3.org/1999/xlink" width="720pt" height="540pt" viewBox="0 0 720 540" xmlns="http://www.w3.org/2000/svg" version="1.1">
 <metadata>
  <rdf:RDF xmlns:dc="http://purl.org/dc/elements/1.1/" xmlns:cc="http://creativecommons.org/ns#" xmlns:rdf="http://www.w3.org/1999/02/22-rdf-syntax-ns#">
   <cc:Work>
    <dc:type rdf:resource="http://purl.org/dc/dcmitype/StillImage"/>
    <dc:date>2025-05-25T11:58:59.661738</dc:date>
    <dc:format>image/svg+xml</dc:format>
    <dc:creator>
     <cc:Agent>
      <dc:title>Matplotlib v3.10.0, https://matplotlib.org/</dc:title>
     </cc:Agent>
    </dc:creator>
   </cc:Work>
  </rdf:RDF>
 </metadata>
 <defs>
  <style type="text/css">*{stroke-linejoin: round; stroke-linecap: butt}</style>
 </defs>
 <g id="figure_1">
  <g id="patch_1">
   <path d="M 0 540 
L 720 540 
L 720 0 
L 0 0 
z
" style="fill: #ffffff"/>
  </g>
  <g id="axes_1">
   <g id="patch_2">
    <path d="M 58.91375 493.59625 
L 548.1 493.59625 
L 548.1 41.6 
L 58.91375 41.6 
z
" style="fill: #ffffff"/>
   </g>
   <g id="PathCollection_1">
    <path d="M 115.358317 304.173488 
C 120.05892 304.173488 124.567631 302.305919 127.891459 298.982091 
C 131.215287 295.658263 133.082856 291.149552 133.082856 286.448949 
C 133.082856 281.748347 131.215287 277.239636 127.891459 273.915808 
C 124.567631 270.59198 120.05892 268.724411 115.358317 268.724411 
C 110.657715 268.724411 106.149004 270.59198 102.825176 273.915808 
C 99.501348 277.239636 97.633779 281.748347 97.633779 286.448949 
C 97.633779 291.149552 99.501348 295.658263 102.825176 298.982091 
C 106.149004 302.305919 110.657715 304.173488 115.358317 304.173488 
z
" clip-path="url(#pdab9edc346)" style="fill: #ff7f0e; fill-opacity: 0.7; stroke: #000000; stroke-opacity: 0.7; stroke-width: 0.5"/>
    <path d="M 317.504637 140.99679 
C 322.035277 140.99679 326.380963 139.196748 329.584609 135.993102 
C 332.788254 132.789457 334.588297 128.44377 334.588297 123.913131 
C 334.588297 119.382492 332.788254 115.036806 329.584609 111.83316 
C 326.380963 108.629514 322.035277 106.829472 317.504637 106.829472 
C 312.973998 106.829472 308.628312 108.629514 305.424666 111.83316 
C 302.22102 115.036806 300.420978 119.382492 300.420978 123.913131 
C 300.420978 128.44377 302.22102 132.789457 305.424666 135.993102 
C 308.628312 139.196748 312.973998 140.99679 317.504637 140.99679 
z
" clip-path="url(#pdab9edc346)" style="fill: #ff7f0e; fill-opacity: 0.7; stroke: #000000; stroke-opacity: 0.7; stroke-width: 0.5"/>
    <path d="M 491.655433 379.50484 
C 496.089591 379.50484 500.342735 377.74313 503.478159 374.607706 
C 506.613583 371.472283 508.375293 367.219139 508.375293 362.78498 
C 508.375293 358.350821 506.613583 354.097677 503.478159 350.962254 
C 500.342735 347.82683 496.089591 346.06512 491.655433 346.06512 
C 487.221274 346.06512 482.96813 347.82683 479.832706 350.962254 
C 476.697283 354.097677 474.935573 358.350821 474.935573 362.78498 
C 474.935573 367.219139 476.697283 371.472283 479.832706 374.607706 
C 482.96813 377.74313 487.221274 379.50484 491.655433 379.50484 
z
" clip-path="url(#pdab9edc346)" style="fill: #ff7f0e; fill-opacity: 0.7; stroke: #000000; stroke-opacity: 0.7; stroke-width: 0.5"/>
    <path d="M 394.234929 171.388165 
C 398.339708 171.388165 402.276919 169.757319 405.179437 166.854801 
C 408.081954 163.952284 409.7128 160.015073 409.7128 155.910294 
C 409.7128 151.805514 408.081954 147.868303 405.179437 144.965786 
C 402.276919 142.063268 398.339708 140.432422 394.234929 140.432422 
C 390.130149 140.432422 386.192938 142.063268 383.290421 144.965786 
C 380.387903 147.868303 378.757057 151.805514 378.757057 155.910294 
C 378.757057 160.015073 380.387903 163.952284 383.290421 166.854801 
C 386.192938 169.757319 390.130149 171.388165 394.234929 171.388165 
z
" clip-path="url(#pdab9edc346)" style="fill: #ff7f0e; fill-opacity: 0.7; stroke: #000000; stroke-opacity: 0.7; stroke-width: 0.5"/>
    <path d="M 292.941138 202.657554 
C 296.831677 202.657554 300.563393 201.111827 303.31442 198.3608 
C 306.065446 195.609774 307.611173 191.878058 307.611173 187.987519 
C 307.611173 184.09698 306.065446 180.365264 303.31442 177.614238 
C 300.563393 174.863212 296.831677 173.317484 292.941138 173.317484 
C 289.0506 173.317484 285.318884 174.863212 282.567857 177.614238 
C 279.816831 180.365264 278.271103 184.09698 278.271103 187.987519 
C 278.271103 191.878058 279.816831 195.609774 282.567857 198.3608 
C 285.318884 201.111827 289.0506 202.657554 292.941138 202.657554 
z
" clip-path="url(#pdab9edc346)" style="fill: #ff7f0e; fill-opacity: 0.7; stroke: #000000; stroke-opacity: 0.7; stroke-width: 0.5"/>
    <path d="M 192.873072 454.376358 
C 196.636439 454.376358 200.246175 452.881156 202.907277 450.220054 
C 205.56838 447.558951 207.063581 443.949215 207.063581 440.185848 
C 207.063581 436.422481 205.56838 432.812745 202.907277 430.151642 
C 200.246175 427.49054 196.636439 425.995338 192.873072 425.995338 
C 189.109704 425.995338 185.499968 427.49054 182.838866 430.151642 
C 180.177763 432.812745 178.682562 436.422481 178.682562 440.185848 
C 178.682562 443.949215 180.177763 447.558951 182.838866 450.220054 
C 185.499968 452.881156 189.109704 454.376358 192.873072 454.376358 
z
" clip-path="url(#pdab9edc346)" style="fill: #ff7f0e; fill-opacity: 0.7; stroke: #000000; stroke-opacity: 0.7; stroke-width: 0.5"/>
    <path d="M 198.5114 308.152843 
C 202.252333 308.152843 205.840551 306.666554 208.48579 304.021315 
C 211.13103 301.376076 212.617318 297.787858 212.617318 294.046924 
C 212.617318 290.305991 211.13103 286.717773 208.48579 284.072534 
C 205.840551 281.427294 202.252333 279.941006 198.5114 279.941006 
C 194.770466 279.941006 191.182248 281.427294 188.537009 284.072534 
C 185.89177 286.717773 184.405481 290.305991 184.405481 294.046924 
C 184.405481 297.787858 185.89177 301.376076 188.537009 304.021315 
C 191.182248 306.666554 194.770466 308.152843 198.5114 308.152843 
z
" clip-path="url(#pdab9edc346)" style="fill: #ff7f0e; fill-opacity: 0.7; stroke: #000000; stroke-opacity: 0.7; stroke-width: 0.5"/>
    <path d="M 481.6045 340.0368 
C 485.169965 340.0368 488.589878 338.620225 491.111042 336.099061 
C 493.632207 333.577896 495.048781 330.157983 495.048781 326.592518 
C 495.048781 323.027053 493.632207 319.60714 491.111042 317.085976 
C 488.589878 314.564811 485.169965 313.148237 481.6045 313.148237 
C 478.039035 313.148237 474.619122 314.564811 472.097957 317.085976 
C 469.576793 319.60714 468.160219 323.027053 468.160219 326.592518 
C 468.160219 330.157983 469.576793 333.577896 472.097957 336.099061 
C 474.619122 338.620225 478.039035 340.0368 481.6045 340.0368 
z
" clip-path="url(#pdab9edc346)" style="fill: #ff7f0e; fill-opacity: 0.7; stroke: #000000; stroke-opacity: 0.7; stroke-width: 0.5"/>
    <path d="M 394.921334 277.055126 
C 398.169328 277.055126 401.28473 275.764684 403.581409 273.468006 
C 405.878087 271.171327 407.168529 268.055925 407.168529 264.807931 
C 407.168529 261.559937 405.878087 258.444535 403.581409 256.147856 
C 401.28473 253.851177 398.169328 252.560735 394.921334 252.560735 
C 391.67334 252.560735 388.557938 253.851177 386.261259 256.147856 
C 383.96458 258.444535 382.674138 261.559937 382.674138 264.807931 
C 382.674138 268.055925 383.96458 271.171327 386.261259 273.468006 
C 388.557938 275.764684 391.67334 277.055126 394.921334 277.055126 
z
" clip-path="url(#pdab9edc346)" style="fill: #ff7f0e; fill-opacity: 0.7; stroke: #000000; stroke-opacity: 0.7; stroke-width: 0.5"/>
    <path d="M 310.101267 171.623575 
C 313.234434 171.623575 316.239696 170.378755 318.455179 168.163271 
C 320.670662 165.947788 321.915483 162.942526 321.915483 159.80936 
C 321.915483 156.676193 320.670662 153.670932 318.455179 151.455448 
C 316.239696 149.239965 313.234434 147.995145 310.101267 147.995145 
C 306.968101 147.995145 303.962839 149.239965 301.747356 151.455448 
C 299.531873 153.670932 298.287052 156.676193 298.287052 159.80936 
C 298.287052 162.942526 299.531873 165.947788 301.747356 168.163271 
C 303.962839 170.378755 306.968101 171.623575 310.101267 171.623575 
z
" clip-path="url(#pdab9edc346)" style="fill: #ff7f0e; fill-opacity: 0.7; stroke: #000000; stroke-opacity: 0.7; stroke-width: 0.5"/>
    <path d="M 408.551379 453.220781 
C 411.674927 453.220781 414.670962 451.979782 416.879644 449.771101 
C 419.088325 447.562419 420.329324 444.566384 420.329324 441.442837 
C 420.329324 438.319289 419.088325 435.323254 416.879644 433.114572 
C 414.670962 430.905891 411.674927 429.664892 408.551379 429.664892 
C 405.427832 429.664892 402.431796 430.905891 400.223115 433.114572 
C 398.014433 435.323254 396.773435 438.319289 396.773435 441.442837 
C 396.773435 444.566384 398.014433 447.562419 400.223115 449.771101 
C 402.431796 451.979782 405.427832 453.220781 408.551379 453.220781 
z
" clip-path="url(#pdab9edc346)" style="fill: #ff7f0e; fill-opacity: 0.7; stroke: #000000; stroke-opacity: 0.7; stroke-width: 0.5"/>
    <path d="M 409.4339 104.65268 
C 412.324419 104.65268 415.09694 103.504265 417.140846 101.460359 
C 419.184751 99.416453 420.333167 96.643933 420.333167 93.753413 
C 420.333167 90.862894 419.184751 88.090374 417.140846 86.046468 
C 415.09694 84.002562 412.324419 82.854147 409.4339 82.854147 
C 406.543381 82.854147 403.77086 84.002562 401.726955 86.046468 
C 399.683049 88.090374 398.534633 90.862894 398.534633 93.753413 
C 398.534633 96.643933 399.683049 99.416453 401.726955 101.460359 
C 403.77086 103.504265 406.543381 104.65268 409.4339 104.65268 
z
" clip-path="url(#pdab9edc346)" style="fill: #ff7f0e; fill-opacity: 0.7; stroke: #000000; stroke-opacity: 0.7; stroke-width: 0.5"/>
    <path d="M 425.123161 108.986157 
C 427.712722 108.986157 430.196569 107.957314 432.027665 106.126218 
C 433.858761 104.295122 434.887605 101.811274 434.887605 99.221714 
C 434.887605 96.632153 433.858761 94.148305 432.027665 92.317209 
C 430.196569 90.486113 427.712722 89.45727 425.123161 89.45727 
C 422.5336 89.45727 420.049753 90.486113 418.218657 92.317209 
C 416.387561 94.148305 415.358717 96.632153 415.358717 99.221714 
C 415.358717 101.811274 416.387561 104.295122 418.218657 106.126218 
C 420.049753 107.957314 422.5336 108.986157 425.123161 108.986157 
z
" clip-path="url(#pdab9edc346)" style="fill: #ff7f0e; fill-opacity: 0.7; stroke: #000000; stroke-opacity: 0.7; stroke-width: 0.5"/>
    <path d="M 273.231504 408.063887 
C 275.581806 408.063887 277.836161 407.130103 279.498075 405.468189 
C 281.159989 403.806275 282.093774 401.551919 282.093774 399.201618 
C 282.093774 396.851317 281.159989 394.596961 279.498075 392.935047 
C 277.836161 391.273133 275.581806 390.339349 273.231504 390.339349 
C 270.881203 390.339349 268.626848 391.273133 266.964934 392.935047 
C 265.30302 394.596961 264.369235 396.851317 264.369235 399.201618 
C 264.369235 401.551919 265.30302 403.806275 266.964934 405.468189 
C 268.626848 407.130103 270.881203 408.063887 273.231504 408.063887 
z
" clip-path="url(#pdab9edc346)" style="fill: #ff7f0e; fill-opacity: 0.7; stroke: #000000; stroke-opacity: 0.7; stroke-width: 0.5"/>
   </g>
   <g id="PathCollection_2"/>
   <g id="PathCollection_3"/>
   <g id="matplotlib.axis_1">
    <g id="xtick_1">
     <g id="line2d_1">
      <defs>
       <path id="m613b1ec0ce" d="M 0 0 
L 0 3.5 
" style="stroke: #000000"/>
      </defs>
      <g>
       <use xlink:href="#m613b1ec0ce" x="150.708183" y="493.59625" style="stroke: #000000"/>
      </g>
     </g>
     <g id="text_1">
      <!-- 20 -->
      <g transform="translate(144.708183 508.92875) scale(0.12 -0.12)">
       <defs>
        <path id="TimesNewRomanPSMT-32" d="M 2934 816 
L 2638 0 
L 138 0 
L 138 116 
Q 1241 1122 1691 1759 
Q 2141 2397 2141 2925 
Q 2141 3328 1894 3587 
Q 1647 3847 1303 3847 
Q 991 3847 742 3664 
Q 494 3481 375 3128 
L 259 3128 
Q 338 3706 661 4015 
Q 984 4325 1469 4325 
Q 1984 4325 2329 3994 
Q 2675 3663 2675 3213 
Q 2675 2891 2525 2569 
Q 2294 2063 1775 1497 
Q 997 647 803 472 
L 1909 472 
Q 2247 472 2383 497 
Q 2519 522 2628 598 
Q 2738 675 2819 816 
L 2934 816 
z
" transform="scale(0.015625)"/>
        <path id="TimesNewRomanPSMT-30" d="M 231 2094 
Q 231 2819 450 3342 
Q 669 3866 1031 4122 
Q 1313 4325 1613 4325 
Q 2100 4325 2488 3828 
Q 2972 3213 2972 2159 
Q 2972 1422 2759 906 
Q 2547 391 2217 158 
Q 1888 -75 1581 -75 
Q 975 -75 572 641 
Q 231 1244 231 2094 
z
M 844 2016 
Q 844 1141 1059 588 
Q 1238 122 1591 122 
Q 1759 122 1940 273 
Q 2122 425 2216 781 
Q 2359 1319 2359 2297 
Q 2359 3022 2209 3506 
Q 2097 3866 1919 4016 
Q 1791 4119 1609 4119 
Q 1397 4119 1231 3928 
Q 1006 3669 925 3112 
Q 844 2556 844 2016 
z
" transform="scale(0.015625)"/>
       </defs>
       <use xlink:href="#TimesNewRomanPSMT-32"/>
       <use xlink:href="#TimesNewRomanPSMT-30" transform="translate(50 0)"/>
      </g>
     </g>
    </g>
    <g id="xtick_2">
     <g id="line2d_2">
      <g>
       <use xlink:href="#m613b1ec0ce" x="248.766063" y="493.59625" style="stroke: #000000"/>
      </g>
     </g>
     <g id="text_2">
      <!-- 40 -->
      <g transform="translate(242.766063 508.92875) scale(0.12 -0.12)">
       <defs>
        <path id="TimesNewRomanPSMT-34" d="M 2978 1563 
L 2978 1119 
L 2409 1119 
L 2409 0 
L 1894 0 
L 1894 1119 
L 100 1119 
L 100 1519 
L 2066 4325 
L 2409 4325 
L 2409 1563 
L 2978 1563 
z
M 1894 1563 
L 1894 3666 
L 406 1563 
L 1894 1563 
z
" transform="scale(0.015625)"/>
       </defs>
       <use xlink:href="#TimesNewRomanPSMT-34"/>
       <use xlink:href="#TimesNewRomanPSMT-30" transform="translate(50 0)"/>
      </g>
     </g>
    </g>
    <g id="xtick_3">
     <g id="line2d_3">
      <g>
       <use xlink:href="#m613b1ec0ce" x="346.823944" y="493.59625" style="stroke: #000000"/>
      </g>
     </g>
     <g id="text_3">
      <!-- 60 -->
      <g transform="translate(340.823944 508.92875) scale(0.12 -0.12)">
       <defs>
        <path id="TimesNewRomanPSMT-36" d="M 2869 4325 
L 2869 4209 
Q 2456 4169 2195 4045 
Q 1934 3922 1679 3669 
Q 1425 3416 1258 3105 
Q 1091 2794 978 2366 
Q 1428 2675 1881 2675 
Q 2316 2675 2634 2325 
Q 2953 1975 2953 1425 
Q 2953 894 2631 456 
Q 2244 -75 1606 -75 
Q 1172 -75 869 213 
Q 275 772 275 1663 
Q 275 2231 503 2743 
Q 731 3256 1154 3653 
Q 1578 4050 1965 4187 
Q 2353 4325 2688 4325 
L 2869 4325 
z
M 925 2138 
Q 869 1716 869 1456 
Q 869 1156 980 804 
Q 1091 453 1309 247 
Q 1469 100 1697 100 
Q 1969 100 2183 356 
Q 2397 613 2397 1088 
Q 2397 1622 2184 2012 
Q 1972 2403 1581 2403 
Q 1463 2403 1327 2353 
Q 1191 2303 925 2138 
z
" transform="scale(0.015625)"/>
       </defs>
       <use xlink:href="#TimesNewRomanPSMT-36"/>
       <use xlink:href="#TimesNewRomanPSMT-30" transform="translate(50 0)"/>
      </g>
     </g>
    </g>
    <g id="xtick_4">
     <g id="line2d_4">
      <g>
       <use xlink:href="#m613b1ec0ce" x="444.881824" y="493.59625" style="stroke: #000000"/>
      </g>
     </g>
     <g id="text_4">
      <!-- 80 -->
      <g transform="translate(438.881824 508.92875) scale(0.12 -0.12)">
       <defs>
        <path id="TimesNewRomanPSMT-38" d="M 1228 2134 
Q 725 2547 579 2797 
Q 434 3047 434 3316 
Q 434 3728 753 4026 
Q 1072 4325 1600 4325 
Q 2113 4325 2425 4047 
Q 2738 3769 2738 3413 
Q 2738 3175 2569 2928 
Q 2400 2681 1866 2347 
Q 2416 1922 2594 1678 
Q 2831 1359 2831 1006 
Q 2831 559 2490 242 
Q 2150 -75 1597 -75 
Q 994 -75 656 303 
Q 388 606 388 966 
Q 388 1247 577 1523 
Q 766 1800 1228 2134 
z
M 1719 2469 
Q 2094 2806 2194 3001 
Q 2294 3197 2294 3444 
Q 2294 3772 2109 3958 
Q 1925 4144 1606 4144 
Q 1288 4144 1088 3959 
Q 888 3775 888 3528 
Q 888 3366 970 3203 
Q 1053 3041 1206 2894 
L 1719 2469 
z
M 1375 2016 
Q 1116 1797 991 1539 
Q 866 1281 866 981 
Q 866 578 1086 336 
Q 1306 94 1647 94 
Q 1984 94 2187 284 
Q 2391 475 2391 747 
Q 2391 972 2272 1150 
Q 2050 1481 1375 2016 
z
" transform="scale(0.015625)"/>
       </defs>
       <use xlink:href="#TimesNewRomanPSMT-38"/>
       <use xlink:href="#TimesNewRomanPSMT-30" transform="translate(50 0)"/>
      </g>
     </g>
    </g>
    <g id="xtick_5">
     <g id="line2d_5">
      <g>
       <use xlink:href="#m613b1ec0ce" x="542.939704" y="493.59625" style="stroke: #000000"/>
      </g>
     </g>
     <g id="text_5">
      <!-- 100 -->
      <g transform="translate(533.939704 508.92875) scale(0.12 -0.12)">
       <defs>
        <path id="TimesNewRomanPSMT-31" d="M 750 3822 
L 1781 4325 
L 1884 4325 
L 1884 747 
Q 1884 391 1914 303 
Q 1944 216 2037 169 
Q 2131 122 2419 116 
L 2419 0 
L 825 0 
L 825 116 
Q 1125 122 1212 167 
Q 1300 213 1334 289 
Q 1369 366 1369 747 
L 1369 3034 
Q 1369 3497 1338 3628 
Q 1316 3728 1258 3775 
Q 1200 3822 1119 3822 
Q 1003 3822 797 3725 
L 750 3822 
z
" transform="scale(0.015625)"/>
       </defs>
       <use xlink:href="#TimesNewRomanPSMT-31"/>
       <use xlink:href="#TimesNewRomanPSMT-30" transform="translate(50 0)"/>
       <use xlink:href="#TimesNewRomanPSMT-30" transform="translate(100 0)"/>
      </g>
     </g>
    </g>
    <g id="text_6">
     <!-- Fertilizer use (kg/acre) -->
     <g transform="translate(239.760938 525.216875) scale(0.14 -0.14)">
      <defs>
       <path id="TimesNewRomanPSMT-46" d="M 1309 4006 
L 1309 2341 
L 2081 2341 
Q 2347 2341 2470 2458 
Q 2594 2575 2634 2922 
L 2750 2922 
L 2750 1488 
L 2634 1488 
Q 2631 1734 2570 1850 
Q 2509 1966 2401 2023 
Q 2294 2081 2081 2081 
L 1309 2081 
L 1309 750 
Q 1309 428 1350 325 
Q 1381 247 1481 191 
Q 1619 116 1769 116 
L 1922 116 
L 1922 0 
L 103 0 
L 103 116 
L 253 116 
Q 516 116 634 269 
Q 709 369 709 750 
L 709 3488 
Q 709 3809 669 3913 
Q 638 3991 541 4047 
Q 406 4122 253 4122 
L 103 4122 
L 103 4238 
L 3256 4238 
L 3297 3306 
L 3188 3306 
Q 3106 3603 2998 3742 
Q 2891 3881 2733 3943 
Q 2575 4006 2244 4006 
L 1309 4006 
z
" transform="scale(0.015625)"/>
       <path id="TimesNewRomanPSMT-65" d="M 681 1784 
Q 678 1147 991 784 
Q 1303 422 1725 422 
Q 2006 422 2214 576 
Q 2422 731 2563 1106 
L 2659 1044 
Q 2594 616 2278 264 
Q 1963 -88 1488 -88 
Q 972 -88 605 314 
Q 238 716 238 1394 
Q 238 2128 614 2539 
Q 991 2950 1559 2950 
Q 2041 2950 2350 2633 
Q 2659 2316 2659 1784 
L 681 1784 
z
M 681 1966 
L 2006 1966 
Q 1991 2241 1941 2353 
Q 1863 2528 1708 2628 
Q 1553 2728 1384 2728 
Q 1125 2728 920 2526 
Q 716 2325 681 1966 
z
" transform="scale(0.015625)"/>
       <path id="TimesNewRomanPSMT-72" d="M 1038 2947 
L 1038 2303 
Q 1397 2947 1775 2947 
Q 1947 2947 2059 2842 
Q 2172 2738 2172 2600 
Q 2172 2478 2090 2393 
Q 2009 2309 1897 2309 
Q 1788 2309 1652 2417 
Q 1516 2525 1450 2525 
Q 1394 2525 1328 2463 
Q 1188 2334 1038 2041 
L 1038 669 
Q 1038 431 1097 309 
Q 1138 225 1241 169 
Q 1344 113 1538 113 
L 1538 0 
L 72 0 
L 72 113 
Q 291 113 397 181 
Q 475 231 506 341 
Q 522 394 522 644 
L 522 1753 
Q 522 2253 501 2348 
Q 481 2444 426 2487 
Q 372 2531 291 2531 
Q 194 2531 72 2484 
L 41 2597 
L 906 2947 
L 1038 2947 
z
" transform="scale(0.015625)"/>
       <path id="TimesNewRomanPSMT-74" d="M 1031 3803 
L 1031 2863 
L 1700 2863 
L 1700 2644 
L 1031 2644 
L 1031 788 
Q 1031 509 1111 412 
Q 1191 316 1316 316 
Q 1419 316 1516 380 
Q 1613 444 1666 569 
L 1788 569 
Q 1678 263 1478 108 
Q 1278 -47 1066 -47 
Q 922 -47 784 33 
Q 647 113 581 261 
Q 516 409 516 719 
L 516 2644 
L 63 2644 
L 63 2747 
Q 234 2816 414 2980 
Q 594 3144 734 3369 
Q 806 3488 934 3803 
L 1031 3803 
z
" transform="scale(0.015625)"/>
       <path id="TimesNewRomanPSMT-69" d="M 928 4444 
Q 1059 4444 1151 4351 
Q 1244 4259 1244 4128 
Q 1244 3997 1151 3903 
Q 1059 3809 928 3809 
Q 797 3809 703 3903 
Q 609 3997 609 4128 
Q 609 4259 701 4351 
Q 794 4444 928 4444 
z
M 1188 2947 
L 1188 647 
Q 1188 378 1227 289 
Q 1266 200 1342 156 
Q 1419 113 1622 113 
L 1622 0 
L 231 0 
L 231 113 
Q 441 113 512 153 
Q 584 194 626 287 
Q 669 381 669 647 
L 669 1750 
Q 669 2216 641 2353 
Q 619 2453 572 2492 
Q 525 2531 444 2531 
Q 356 2531 231 2484 
L 188 2597 
L 1050 2947 
L 1188 2947 
z
" transform="scale(0.015625)"/>
       <path id="TimesNewRomanPSMT-6c" d="M 1184 4444 
L 1184 647 
Q 1184 378 1223 290 
Q 1263 203 1344 158 
Q 1425 113 1647 113 
L 1647 0 
L 244 0 
L 244 113 
Q 441 113 512 153 
Q 584 194 625 287 
Q 666 381 666 647 
L 666 3247 
Q 666 3731 644 3842 
Q 622 3953 573 3993 
Q 525 4034 450 4034 
Q 369 4034 244 3984 
L 191 4094 
L 1044 4444 
L 1184 4444 
z
" transform="scale(0.015625)"/>
       <path id="TimesNewRomanPSMT-7a" d="M 2688 878 
L 2653 0 
L 128 0 
L 128 113 
L 2028 2644 
L 1091 2644 
Q 788 2644 694 2605 
Q 600 2566 541 2456 
Q 456 2300 444 2069 
L 319 2069 
L 338 2863 
L 2738 2863 
L 2738 2747 
L 819 209 
L 1863 209 
Q 2191 209 2308 264 
Q 2425 319 2497 456 
Q 2547 556 2581 878 
L 2688 878 
z
" transform="scale(0.015625)"/>
       <path id="TimesNewRomanPSMT-20" transform="scale(0.015625)"/>
       <path id="TimesNewRomanPSMT-75" d="M 2709 2863 
L 2709 1128 
Q 2709 631 2732 520 
Q 2756 409 2807 365 
Q 2859 322 2928 322 
Q 3025 322 3147 375 
L 3191 266 
L 2334 -88 
L 2194 -88 
L 2194 519 
Q 1825 119 1631 15 
Q 1438 -88 1222 -88 
Q 981 -88 804 51 
Q 628 191 559 409 
Q 491 628 491 1028 
L 491 2306 
Q 491 2509 447 2587 
Q 403 2666 317 2708 
Q 231 2750 6 2747 
L 6 2863 
L 1009 2863 
L 1009 947 
Q 1009 547 1148 422 
Q 1288 297 1484 297 
Q 1619 297 1789 381 
Q 1959 466 2194 703 
L 2194 2325 
Q 2194 2569 2105 2655 
Q 2016 2741 1734 2747 
L 1734 2863 
L 2709 2863 
z
" transform="scale(0.015625)"/>
       <path id="TimesNewRomanPSMT-73" d="M 2050 2947 
L 2050 1972 
L 1947 1972 
Q 1828 2431 1642 2597 
Q 1456 2763 1169 2763 
Q 950 2763 815 2647 
Q 681 2531 681 2391 
Q 681 2216 781 2091 
Q 878 1963 1175 1819 
L 1631 1597 
Q 2266 1288 2266 781 
Q 2266 391 1970 151 
Q 1675 -88 1309 -88 
Q 1047 -88 709 6 
Q 606 38 541 38 
Q 469 38 428 -44 
L 325 -44 
L 325 978 
L 428 978 
Q 516 541 762 319 
Q 1009 97 1316 97 
Q 1531 97 1667 223 
Q 1803 350 1803 528 
Q 1803 744 1651 891 
Q 1500 1038 1047 1263 
Q 594 1488 453 1669 
Q 313 1847 313 2119 
Q 313 2472 555 2709 
Q 797 2947 1181 2947 
Q 1350 2947 1591 2875 
Q 1750 2828 1803 2828 
Q 1853 2828 1881 2850 
Q 1909 2872 1947 2947 
L 2050 2947 
z
" transform="scale(0.015625)"/>
       <path id="TimesNewRomanPSMT-28" d="M 1988 -1253 
L 1988 -1369 
Q 1516 -1131 1200 -813 
Q 750 -359 506 256 
Q 263 872 263 1534 
Q 263 2503 741 3301 
Q 1219 4100 1988 4444 
L 1988 4313 
Q 1603 4100 1356 3731 
Q 1109 3363 987 2797 
Q 866 2231 866 1616 
Q 866 947 969 400 
Q 1050 -31 1165 -292 
Q 1281 -553 1476 -793 
Q 1672 -1034 1988 -1253 
z
" transform="scale(0.015625)"/>
       <path id="TimesNewRomanPSMT-6b" d="M 1047 4444 
L 1047 1597 
L 1775 2259 
Q 2006 2472 2044 2528 
Q 2069 2566 2069 2603 
Q 2069 2666 2017 2711 
Q 1966 2756 1847 2763 
L 1847 2863 
L 3091 2863 
L 3091 2763 
Q 2834 2756 2664 2684 
Q 2494 2613 2291 2428 
L 1556 1750 
L 2291 822 
Q 2597 438 2703 334 
Q 2853 188 2966 144 
Q 3044 113 3238 113 
L 3238 0 
L 1847 0 
L 1847 113 
Q 1966 116 2008 148 
Q 2050 181 2050 241 
Q 2050 313 1925 472 
L 1047 1594 
L 1047 644 
Q 1047 366 1086 278 
Q 1125 191 1197 153 
Q 1269 116 1509 113 
L 1509 0 
L 53 0 
L 53 113 
Q 272 113 381 166 
Q 447 200 481 272 
Q 528 375 528 628 
L 528 3234 
Q 528 3731 506 3842 
Q 484 3953 434 3995 
Q 384 4038 303 4038 
Q 238 4038 106 3984 
L 53 4094 
L 903 4444 
L 1047 4444 
z
" transform="scale(0.015625)"/>
       <path id="TimesNewRomanPSMT-67" d="M 966 1044 
Q 703 1172 562 1401 
Q 422 1631 422 1909 
Q 422 2334 742 2640 
Q 1063 2947 1563 2947 
Q 1972 2947 2272 2747 
L 2878 2747 
Q 3013 2747 3034 2739 
Q 3056 2731 3066 2713 
Q 3084 2684 3084 2613 
Q 3084 2531 3069 2500 
Q 3059 2484 3036 2475 
Q 3013 2466 2878 2466 
L 2506 2466 
Q 2681 2241 2681 1891 
Q 2681 1491 2375 1206 
Q 2069 922 1553 922 
Q 1341 922 1119 984 
Q 981 866 932 777 
Q 884 688 884 625 
Q 884 572 936 522 
Q 988 472 1138 450 
Q 1225 438 1575 428 
Q 2219 413 2409 384 
Q 2700 344 2873 169 
Q 3047 -6 3047 -263 
Q 3047 -616 2716 -925 
Q 2228 -1381 1444 -1381 
Q 841 -1381 425 -1109 
Q 191 -953 191 -784 
Q 191 -709 225 -634 
Q 278 -519 444 -313 
Q 466 -284 763 25 
Q 600 122 533 198 
Q 466 275 466 372 
Q 466 481 555 628 
Q 644 775 966 1044 
z
M 1509 2797 
Q 1278 2797 1122 2612 
Q 966 2428 966 2047 
Q 966 1553 1178 1281 
Q 1341 1075 1591 1075 
Q 1828 1075 1981 1253 
Q 2134 1431 2134 1813 
Q 2134 2309 1919 2591 
Q 1759 2797 1509 2797 
z
M 934 0 
Q 788 -159 713 -296 
Q 638 -434 638 -550 
Q 638 -700 819 -813 
Q 1131 -1006 1722 -1006 
Q 2284 -1006 2551 -807 
Q 2819 -609 2819 -384 
Q 2819 -222 2659 -153 
Q 2497 -84 2016 -72 
Q 1313 -53 934 0 
z
" transform="scale(0.015625)"/>
       <path id="TimesNewRomanPSMT-2f" d="M 1794 4444 
L 259 -88 
L 9 -88 
L 1544 4444 
L 1794 4444 
z
" transform="scale(0.015625)"/>
       <path id="TimesNewRomanPSMT-61" d="M 1822 413 
Q 1381 72 1269 19 
Q 1100 -59 909 -59 
Q 613 -59 420 144 
Q 228 347 228 678 
Q 228 888 322 1041 
Q 450 1253 767 1440 
Q 1084 1628 1822 1897 
L 1822 2009 
Q 1822 2438 1686 2597 
Q 1550 2756 1291 2756 
Q 1094 2756 978 2650 
Q 859 2544 859 2406 
L 866 2225 
Q 866 2081 792 2003 
Q 719 1925 600 1925 
Q 484 1925 411 2006 
Q 338 2088 338 2228 
Q 338 2497 613 2722 
Q 888 2947 1384 2947 
Q 1766 2947 2009 2819 
Q 2194 2722 2281 2516 
Q 2338 2381 2338 1966 
L 2338 994 
Q 2338 584 2353 492 
Q 2369 400 2405 369 
Q 2441 338 2488 338 
Q 2538 338 2575 359 
Q 2641 400 2828 588 
L 2828 413 
Q 2478 -56 2159 -56 
Q 2006 -56 1915 50 
Q 1825 156 1822 413 
z
M 1822 616 
L 1822 1706 
Q 1350 1519 1213 1441 
Q 966 1303 859 1153 
Q 753 1003 753 825 
Q 753 600 887 451 
Q 1022 303 1197 303 
Q 1434 303 1822 616 
z
" transform="scale(0.015625)"/>
       <path id="TimesNewRomanPSMT-63" d="M 2631 1088 
Q 2516 522 2178 217 
Q 1841 -88 1431 -88 
Q 944 -88 581 321 
Q 219 731 219 1428 
Q 219 2103 620 2525 
Q 1022 2947 1584 2947 
Q 2006 2947 2278 2723 
Q 2550 2500 2550 2259 
Q 2550 2141 2473 2067 
Q 2397 1994 2259 1994 
Q 2075 1994 1981 2113 
Q 1928 2178 1911 2362 
Q 1894 2547 1784 2644 
Q 1675 2738 1481 2738 
Q 1169 2738 978 2506 
Q 725 2200 725 1697 
Q 725 1184 976 792 
Q 1228 400 1656 400 
Q 1963 400 2206 609 
Q 2378 753 2541 1131 
L 2631 1088 
z
" transform="scale(0.015625)"/>
       <path id="TimesNewRomanPSMT-29" d="M 144 4313 
L 144 4444 
Q 619 4209 934 3891 
Q 1381 3434 1625 2820 
Q 1869 2206 1869 1541 
Q 1869 572 1392 -226 
Q 916 -1025 144 -1369 
L 144 -1253 
Q 528 -1038 776 -670 
Q 1025 -303 1145 264 
Q 1266 831 1266 1447 
Q 1266 2113 1163 2663 
Q 1084 3094 967 3353 
Q 850 3613 656 3853 
Q 463 4094 144 4313 
z
" transform="scale(0.015625)"/>
      </defs>
      <use xlink:href="#TimesNewRomanPSMT-46"/>
      <use xlink:href="#TimesNewRomanPSMT-65" transform="translate(55.615234 0)"/>
      <use xlink:href="#TimesNewRomanPSMT-72" transform="translate(100 0)"/>
      <use xlink:href="#TimesNewRomanPSMT-74" transform="translate(133.300781 0)"/>
      <use xlink:href="#TimesNewRomanPSMT-69" transform="translate(161.083984 0)"/>
      <use xlink:href="#TimesNewRomanPSMT-6c" transform="translate(188.867188 0)"/>
      <use xlink:href="#TimesNewRomanPSMT-69" transform="translate(216.650391 0)"/>
      <use xlink:href="#TimesNewRomanPSMT-7a" transform="translate(244.433594 0)"/>
      <use xlink:href="#TimesNewRomanPSMT-65" transform="translate(288.818359 0)"/>
      <use xlink:href="#TimesNewRomanPSMT-72" transform="translate(333.203125 0)"/>
      <use xlink:href="#TimesNewRomanPSMT-20" transform="translate(366.503906 0)"/>
      <use xlink:href="#TimesNewRomanPSMT-75" transform="translate(391.503906 0)"/>
      <use xlink:href="#TimesNewRomanPSMT-73" transform="translate(441.503906 0)"/>
      <use xlink:href="#TimesNewRomanPSMT-65" transform="translate(480.419922 0)"/>
      <use xlink:href="#TimesNewRomanPSMT-20" transform="translate(524.804688 0)"/>
      <use xlink:href="#TimesNewRomanPSMT-28" transform="translate(549.804688 0)"/>
      <use xlink:href="#TimesNewRomanPSMT-6b" transform="translate(583.105469 0)"/>
      <use xlink:href="#TimesNewRomanPSMT-67" transform="translate(633.105469 0)"/>
      <use xlink:href="#TimesNewRomanPSMT-2f" transform="translate(683.105469 0)"/>
      <use xlink:href="#TimesNewRomanPSMT-61" transform="translate(710.888672 0)"/>
      <use xlink:href="#TimesNewRomanPSMT-63" transform="translate(755.273438 0)"/>
      <use xlink:href="#TimesNewRomanPSMT-72" transform="translate(799.658203 0)"/>
      <use xlink:href="#TimesNewRomanPSMT-65" transform="translate(832.958984 0)"/>
      <use xlink:href="#TimesNewRomanPSMT-29" transform="translate(877.34375 0)"/>
     </g>
    </g>
   </g>
   <g id="matplotlib.axis_2">
    <g id="ytick_1">
     <g id="line2d_6">
      <defs>
       <path id="m57a3a9f77c" d="M 0 0 
L -3.5 0 
" style="stroke: #000000"/>
      </defs>
      <g>
       <use xlink:href="#m57a3a9f77c" x="58.91375" y="491.938546" style="stroke: #000000"/>
      </g>
     </g>
     <g id="text_7">
      <!-- 0 -->
      <g transform="translate(45.91375 496.104796) scale(0.12 -0.12)">
       <use xlink:href="#TimesNewRomanPSMT-30"/>
      </g>
     </g>
    </g>
    <g id="ytick_2">
     <g id="line2d_7">
      <g>
       <use xlink:href="#m57a3a9f77c" x="58.91375" y="411.875585" style="stroke: #000000"/>
      </g>
     </g>
     <g id="text_8">
      <!-- 200 -->
      <g transform="translate(33.91375 416.041835) scale(0.12 -0.12)">
       <use xlink:href="#TimesNewRomanPSMT-32"/>
       <use xlink:href="#TimesNewRomanPSMT-30" transform="translate(50 0)"/>
       <use xlink:href="#TimesNewRomanPSMT-30" transform="translate(100 0)"/>
      </g>
     </g>
    </g>
    <g id="ytick_3">
     <g id="line2d_8">
      <g>
       <use xlink:href="#m57a3a9f77c" x="58.91375" y="331.812623" style="stroke: #000000"/>
      </g>
     </g>
     <g id="text_9">
      <!-- 400 -->
      <g transform="translate(33.91375 335.978873) scale(0.12 -0.12)">
       <use xlink:href="#TimesNewRomanPSMT-34"/>
       <use xlink:href="#TimesNewRomanPSMT-30" transform="translate(50 0)"/>
       <use xlink:href="#TimesNewRomanPSMT-30" transform="translate(100 0)"/>
      </g>
     </g>
    </g>
    <g id="ytick_4">
     <g id="line2d_9">
      <g>
       <use xlink:href="#m57a3a9f77c" x="58.91375" y="251.749662" style="stroke: #000000"/>
      </g>
     </g>
     <g id="text_10">
      <!-- 600 -->
      <g transform="translate(33.91375 255.915912) scale(0.12 -0.12)">
       <use xlink:href="#TimesNewRomanPSMT-36"/>
       <use xlink:href="#TimesNewRomanPSMT-30" transform="translate(50 0)"/>
       <use xlink:href="#TimesNewRomanPSMT-30" transform="translate(100 0)"/>
      </g>
     </g>
    </g>
    <g id="ytick_5">
     <g id="line2d_10">
      <g>
       <use xlink:href="#m57a3a9f77c" x="58.91375" y="171.6867" style="stroke: #000000"/>
      </g>
     </g>
     <g id="text_11">
      <!-- 800 -->
      <g transform="translate(33.91375 175.85295) scale(0.12 -0.12)">
       <use xlink:href="#TimesNewRomanPSMT-38"/>
       <use xlink:href="#TimesNewRomanPSMT-30" transform="translate(50 0)"/>
       <use xlink:href="#TimesNewRomanPSMT-30" transform="translate(100 0)"/>
      </g>
     </g>
    </g>
    <g id="ytick_6">
     <g id="line2d_11">
      <g>
       <use xlink:href="#m57a3a9f77c" x="58.91375" y="91.623739" style="stroke: #000000"/>
      </g>
     </g>
     <g id="text_12">
      <!-- 1000 -->
      <g transform="translate(27.91375 95.789989) scale(0.12 -0.12)">
       <use xlink:href="#TimesNewRomanPSMT-31"/>
       <use xlink:href="#TimesNewRomanPSMT-30" transform="translate(50 0)"/>
       <use xlink:href="#TimesNewRomanPSMT-30" transform="translate(100 0)"/>
       <use xlink:href="#TimesNewRomanPSMT-30" transform="translate(150 0)"/>
      </g>
     </g>
    </g>
    <g id="text_13">
     <!-- Profit per acre ($) -->
     <g transform="translate(20.919063 317.544219) rotate(-90) scale(0.14 -0.14)">
      <defs>
       <path id="TimesNewRomanPSMT-50" d="M 1313 1984 
L 1313 750 
Q 1313 350 1400 253 
Q 1519 116 1759 116 
L 1922 116 
L 1922 0 
L 106 0 
L 106 116 
L 266 116 
Q 534 116 650 291 
Q 713 388 713 750 
L 713 3488 
Q 713 3888 628 3984 
Q 506 4122 266 4122 
L 106 4122 
L 106 4238 
L 1659 4238 
Q 2228 4238 2556 4120 
Q 2884 4003 3109 3725 
Q 3334 3447 3334 3066 
Q 3334 2547 2992 2222 
Q 2650 1897 2025 1897 
Q 1872 1897 1694 1919 
Q 1516 1941 1313 1984 
z
M 1313 2163 
Q 1478 2131 1606 2115 
Q 1734 2100 1825 2100 
Q 2150 2100 2386 2351 
Q 2622 2603 2622 3003 
Q 2622 3278 2509 3514 
Q 2397 3750 2190 3867 
Q 1984 3984 1722 3984 
Q 1563 3984 1313 3925 
L 1313 2163 
z
" transform="scale(0.015625)"/>
       <path id="TimesNewRomanPSMT-6f" d="M 1600 2947 
Q 2250 2947 2644 2453 
Q 2978 2031 2978 1484 
Q 2978 1100 2793 706 
Q 2609 313 2286 112 
Q 1963 -88 1566 -88 
Q 919 -88 538 428 
Q 216 863 216 1403 
Q 216 1797 411 2186 
Q 606 2575 925 2761 
Q 1244 2947 1600 2947 
z
M 1503 2744 
Q 1338 2744 1170 2645 
Q 1003 2547 900 2300 
Q 797 2053 797 1666 
Q 797 1041 1045 587 
Q 1294 134 1700 134 
Q 2003 134 2200 384 
Q 2397 634 2397 1244 
Q 2397 2006 2069 2444 
Q 1847 2744 1503 2744 
z
" transform="scale(0.015625)"/>
       <path id="TimesNewRomanPSMT-66" d="M 1319 2638 
L 1319 756 
Q 1319 356 1406 250 
Q 1522 113 1716 113 
L 1975 113 
L 1975 0 
L 266 0 
L 266 113 
L 394 113 
Q 519 113 622 175 
Q 725 238 764 344 
Q 803 450 803 756 
L 803 2638 
L 247 2638 
L 247 2863 
L 803 2863 
L 803 3050 
Q 803 3478 940 3775 
Q 1078 4072 1361 4255 
Q 1644 4438 1997 4438 
Q 2325 4438 2600 4225 
Q 2781 4084 2781 3909 
Q 2781 3816 2700 3733 
Q 2619 3650 2525 3650 
Q 2453 3650 2373 3701 
Q 2294 3753 2178 3923 
Q 2063 4094 1966 4153 
Q 1869 4213 1750 4213 
Q 1606 4213 1506 4136 
Q 1406 4059 1362 3898 
Q 1319 3738 1319 3069 
L 1319 2863 
L 2056 2863 
L 2056 2638 
L 1319 2638 
z
" transform="scale(0.015625)"/>
       <path id="TimesNewRomanPSMT-70" d="M -6 2578 
L 875 2934 
L 994 2934 
L 994 2266 
Q 1216 2644 1439 2795 
Q 1663 2947 1909 2947 
Q 2341 2947 2628 2609 
Q 2981 2197 2981 1534 
Q 2981 794 2556 309 
Q 2206 -88 1675 -88 
Q 1444 -88 1275 -22 
Q 1150 25 994 166 
L 994 -706 
Q 994 -1000 1030 -1079 
Q 1066 -1159 1155 -1206 
Q 1244 -1253 1478 -1253 
L 1478 -1369 
L -22 -1369 
L -22 -1253 
L 56 -1253 
Q 228 -1256 350 -1188 
Q 409 -1153 442 -1076 
Q 475 -1000 475 -688 
L 475 2019 
Q 475 2297 450 2372 
Q 425 2447 370 2484 
Q 316 2522 222 2522 
Q 147 2522 31 2478 
L -6 2578 
z
M 994 2081 
L 994 1013 
Q 994 666 1022 556 
Q 1066 375 1236 237 
Q 1406 100 1666 100 
Q 1978 100 2172 344 
Q 2425 663 2425 1241 
Q 2425 1897 2138 2250 
Q 1938 2494 1663 2494 
Q 1513 2494 1366 2419 
Q 1253 2363 994 2081 
z
" transform="scale(0.015625)"/>
       <path id="TimesNewRomanPSMT-24" d="M 338 1044 
L 475 1044 
Q 509 616 743 387 
Q 978 159 1444 116 
L 1444 1941 
Q 741 2375 506 2709 
Q 341 2947 341 3288 
Q 341 3672 627 3959 
Q 913 4247 1444 4306 
L 1444 4594 
L 1644 4594 
L 1644 4306 
Q 1900 4291 2075 4247 
Q 2166 4225 2675 4031 
L 2675 3097 
L 2553 3097 
Q 2513 3594 2295 3823 
Q 2078 4053 1644 4097 
L 1644 2509 
Q 2431 1959 2654 1698 
Q 2878 1438 2878 1050 
Q 2878 619 2551 290 
Q 2225 -38 1644 -88 
L 1644 -488 
L 1444 -488 
L 1444 -88 
Q 1150 -75 897 -20 
Q 644 34 338 159 
L 338 1044 
z
M 1444 2641 
L 1444 4094 
Q 1131 4056 979 3895 
Q 828 3734 828 3491 
Q 828 3263 965 3064 
Q 1103 2866 1444 2641 
z
M 1644 116 
Q 1878 156 2003 231 
Q 2178 341 2279 517 
Q 2381 694 2381 894 
Q 2381 1100 2257 1284 
Q 2134 1469 1644 1806 
L 1644 116 
z
" transform="scale(0.015625)"/>
      </defs>
      <use xlink:href="#TimesNewRomanPSMT-50"/>
      <use xlink:href="#TimesNewRomanPSMT-72" transform="translate(55.615234 0)"/>
      <use xlink:href="#TimesNewRomanPSMT-6f" transform="translate(88.916016 0)"/>
      <use xlink:href="#TimesNewRomanPSMT-66" transform="translate(138.916016 0)"/>
      <use xlink:href="#TimesNewRomanPSMT-69" transform="translate(172.216797 0)"/>
      <use xlink:href="#TimesNewRomanPSMT-74" transform="translate(200 0)"/>
      <use xlink:href="#TimesNewRomanPSMT-20" transform="translate(227.783203 0)"/>
      <use xlink:href="#TimesNewRomanPSMT-70" transform="translate(252.783203 0)"/>
      <use xlink:href="#TimesNewRomanPSMT-65" transform="translate(302.783203 0)"/>
      <use xlink:href="#TimesNewRomanPSMT-72" transform="translate(347.167969 0)"/>
      <use xlink:href="#TimesNewRomanPSMT-20" transform="translate(380.46875 0)"/>
      <use xlink:href="#TimesNewRomanPSMT-61" transform="translate(405.46875 0)"/>
      <use xlink:href="#TimesNewRomanPSMT-63" transform="translate(449.853516 0)"/>
      <use xlink:href="#TimesNewRomanPSMT-72" transform="translate(494.238281 0)"/>
      <use xlink:href="#TimesNewRomanPSMT-65" transform="translate(527.539062 0)"/>
      <use xlink:href="#TimesNewRomanPSMT-20" transform="translate(571.923828 0)"/>
      <use xlink:href="#TimesNewRomanPSMT-28" transform="translate(596.923828 0)"/>
      <use xlink:href="#TimesNewRomanPSMT-24" transform="translate(630.224609 0)"/>
      <use xlink:href="#TimesNewRomanPSMT-29" transform="translate(680.224609 0)"/>
     </g>
    </g>
   </g>
   <g id="patch_3">
    <path d="M 58.91375 493.59625 
L 58.91375 41.6 
" style="fill: none; stroke: #000000; stroke-linejoin: miter; stroke-linecap: square"/>
   </g>
   <g id="patch_4">
    <path d="M 58.91375 493.59625 
L 548.1 493.59625 
" style="fill: none; stroke: #000000; stroke-linejoin: miter; stroke-linecap: square"/>
   </g>
   <g id="text_14">
    <!-- 100.0k -->
    <g transform="translate(104.668041 288.242074) scale(0.08 -0.08)">
     <defs>
      <path id="TimesNewRomanPS-BoldMT-31" d="M 2084 4325 
L 2084 859 
Q 2084 469 2118 361 
Q 2153 253 2262 184 
Q 2372 116 2613 116 
L 2709 116 
L 2709 0 
L 478 0 
L 478 116 
L 591 116 
Q 863 116 978 178 
Q 1094 241 1134 350 
Q 1175 459 1175 859 
L 1175 3056 
Q 1175 3350 1147 3423 
Q 1119 3497 1042 3548 
Q 966 3600 866 3600 
Q 706 3600 478 3500 
L 422 3613 
L 1981 4325 
L 2084 4325 
z
" transform="scale(0.015625)"/>
      <path id="TimesNewRomanPS-BoldMT-30" d="M 2966 2119 
Q 2966 1484 2788 934 
Q 2681 597 2501 381 
Q 2322 166 2094 39 
Q 1866 -88 1597 -88 
Q 1291 -88 1044 68 
Q 797 225 606 516 
Q 469 728 366 1081 
Q 231 1559 231 2069 
Q 231 2759 425 3338 
Q 584 3816 909 4070 
Q 1234 4325 1597 4325 
Q 1966 4325 2286 4073 
Q 2606 3822 2756 3397 
Q 2966 2813 2966 2119 
z
M 2003 2125 
Q 2003 3238 1991 3422 
Q 1959 3856 1841 4009 
Q 1763 4109 1588 4109 
Q 1453 4109 1375 4034 
Q 1259 3925 1218 3648 
Q 1178 3372 1178 1719 
Q 1178 819 1241 513 
Q 1288 291 1375 216 
Q 1463 141 1606 141 
Q 1763 141 1841 241 
Q 1972 416 1991 781 
L 2003 2125 
z
" transform="scale(0.015625)"/>
      <path id="TimesNewRomanPS-BoldMT-2e" d="M 800 963 
Q 1019 963 1170 809 
Q 1322 656 1322 441 
Q 1322 225 1169 73 
Q 1016 -78 800 -78 
Q 584 -78 432 73 
Q 281 225 281 441 
Q 281 656 432 809 
Q 584 963 800 963 
z
" transform="scale(0.015625)"/>
      <path id="TimesNewRomanPS-BoldMT-6b" d="M 1403 4238 
L 1403 1450 
L 2081 2116 
Q 2291 2319 2342 2409 
Q 2394 2500 2394 2584 
Q 2394 2669 2325 2725 
Q 2256 2781 2056 2806 
L 2056 2922 
L 3366 2922 
L 3366 2806 
Q 3178 2797 3037 2717 
Q 2897 2638 2488 2238 
L 2169 1925 
L 2856 919 
Q 3272 306 3350 231 
Q 3456 125 3619 113 
L 3619 0 
L 2109 0 
L 2109 113 
Q 2209 113 2254 150 
Q 2300 188 2300 231 
Q 2300 303 2169 497 
L 1591 1344 
L 1403 1159 
L 1403 634 
Q 1403 300 1465 217 
Q 1528 134 1722 113 
L 1722 0 
L 213 0 
L 213 113 
Q 397 131 475 231 
Q 528 300 528 634 
L 528 3603 
Q 528 3934 467 4015 
Q 406 4097 213 4122 
L 213 4238 
L 1403 4238 
z
" transform="scale(0.015625)"/>
     </defs>
     <use xlink:href="#TimesNewRomanPS-BoldMT-31"/>
     <use xlink:href="#TimesNewRomanPS-BoldMT-30" transform="translate(50 0)"/>
     <use xlink:href="#TimesNewRomanPS-BoldMT-30" transform="translate(100 0)"/>
     <use xlink:href="#TimesNewRomanPS-BoldMT-2e" transform="translate(150 0)"/>
     <use xlink:href="#TimesNewRomanPS-BoldMT-30" transform="translate(175 0)"/>
     <use xlink:href="#TimesNewRomanPS-BoldMT-6b" transform="translate(225 0)"/>
    </g>
   </g>
   <g id="text_15">
    <!-- 90.6k -->
    <g transform="translate(308.814362 125.706256) scale(0.08 -0.08)">
     <defs>
      <path id="TimesNewRomanPS-BoldMT-39" d="M 197 -88 
L 197 0 
Q 716 119 1077 350 
Q 1438 581 1648 922 
Q 1859 1263 1944 1706 
Q 1750 1606 1614 1567 
Q 1478 1528 1328 1528 
Q 847 1528 526 1875 
Q 206 2222 206 2825 
Q 206 3244 379 3592 
Q 553 3941 875 4133 
Q 1197 4325 1544 4325 
Q 1916 4325 2247 4112 
Q 2578 3900 2775 3497 
Q 2972 3094 2972 2578 
Q 2972 1909 2651 1296 
Q 2331 684 1697 314 
Q 1063 -56 197 -88 
z
M 1991 1969 
Q 2022 2319 2022 2584 
Q 2022 3153 1891 3644 
Q 1816 3916 1669 4044 
Q 1591 4113 1466 4113 
Q 1309 4113 1222 3978 
Q 1100 3794 1100 3275 
Q 1100 2409 1306 2081 
Q 1441 1869 1669 1869 
Q 1791 1869 1991 1969 
z
" transform="scale(0.015625)"/>
      <path id="TimesNewRomanPS-BoldMT-36" d="M 3006 4325 
L 3006 4238 
Q 2441 4094 2098 3867 
Q 1756 3641 1557 3317 
Q 1359 2994 1250 2516 
Q 1388 2609 1478 2638 
Q 1681 2700 1888 2700 
Q 2363 2700 2680 2354 
Q 2997 2009 2997 1413 
Q 2997 994 2825 644 
Q 2653 294 2337 103 
Q 2022 -88 1663 -88 
Q 1272 -88 940 126 
Q 609 341 423 753 
Q 238 1166 238 1650 
Q 238 2363 580 2977 
Q 922 3591 1551 3955 
Q 2181 4319 3006 4325 
z
M 1209 2263 
Q 1184 1831 1184 1631 
Q 1184 1200 1267 797 
Q 1350 394 1494 231 
Q 1597 116 1738 116 
Q 1881 116 1993 283 
Q 2106 450 2106 963 
Q 2106 1825 1897 2153 
Q 1763 2366 1534 2366 
Q 1409 2366 1209 2263 
z
" transform="scale(0.015625)"/>
     </defs>
     <use xlink:href="#TimesNewRomanPS-BoldMT-39"/>
     <use xlink:href="#TimesNewRomanPS-BoldMT-30" transform="translate(50 0)"/>
     <use xlink:href="#TimesNewRomanPS-BoldMT-2e" transform="translate(100 0)"/>
     <use xlink:href="#TimesNewRomanPS-BoldMT-36" transform="translate(125 0)"/>
     <use xlink:href="#TimesNewRomanPS-BoldMT-6b" transform="translate(175 0)"/>
    </g>
   </g>
   <g id="text_16">
    <!-- 85.5k -->
    <g transform="translate(482.965157 364.578105) scale(0.08 -0.08)">
     <defs>
      <path id="TimesNewRomanPS-BoldMT-38" d="M 2181 2394 
Q 2628 2066 2801 1783 
Q 2975 1500 2975 1134 
Q 2975 622 2589 267 
Q 2203 -88 1541 -88 
Q 913 -88 569 221 
Q 225 531 225 978 
Q 225 1319 423 1575 
Q 622 1831 1084 2044 
Q 581 2428 439 2672 
Q 297 2916 297 3238 
Q 297 3663 658 3986 
Q 1019 4309 1647 4309 
Q 2253 4309 2579 4023 
Q 2906 3738 2906 3338 
Q 2906 3038 2729 2808 
Q 2553 2578 2181 2394 
z
M 1944 2553 
Q 2059 2709 2115 2903 
Q 2172 3097 2172 3328 
Q 2172 3734 1997 3950 
Q 1866 4116 1634 4116 
Q 1425 4116 1278 3964 
Q 1131 3813 1131 3588 
Q 1131 3359 1295 3114 
Q 1459 2869 1944 2553 
z
M 1319 1894 
Q 1222 1806 1181 1734 
Q 1119 1625 1069 1415 
Q 1019 1206 1019 978 
Q 1019 684 1094 486 
Q 1169 288 1308 200 
Q 1447 113 1594 113 
Q 1822 113 1978 280 
Q 2134 447 2134 738 
Q 2134 1344 1319 1894 
z
" transform="scale(0.015625)"/>
      <path id="TimesNewRomanPS-BoldMT-35" d="M 975 4238 
L 2959 4238 
L 2644 3431 
L 975 3431 
L 816 3009 
Q 1894 2969 2475 2472 
Q 2953 2063 2953 1453 
Q 2953 1063 2731 689 
Q 2509 316 2106 114 
Q 1703 -88 1222 -88 
Q 703 -88 425 106 
Q 231 244 231 419 
Q 231 553 332 656 
Q 434 759 569 759 
Q 691 759 816 709 
Q 941 659 1244 447 
Q 1434 316 1572 266 
Q 1669 228 1791 228 
Q 2047 228 2226 415 
Q 2406 603 2406 866 
Q 2406 1416 1856 1759 
Q 1306 2103 469 2103 
Q 384 2103 216 2100 
L 975 4238 
z
" transform="scale(0.015625)"/>
     </defs>
     <use xlink:href="#TimesNewRomanPS-BoldMT-38"/>
     <use xlink:href="#TimesNewRomanPS-BoldMT-35" transform="translate(50 0)"/>
     <use xlink:href="#TimesNewRomanPS-BoldMT-2e" transform="translate(100 0)"/>
     <use xlink:href="#TimesNewRomanPS-BoldMT-35" transform="translate(125 0)"/>
     <use xlink:href="#TimesNewRomanPS-BoldMT-6b" transform="translate(175 0)"/>
    </g>
   </g>
   <g id="text_17">
    <!-- 68.7k -->
    <g transform="translate(385.544653 157.703419) scale(0.08 -0.08)">
     <defs>
      <path id="TimesNewRomanPS-BoldMT-37" d="M 1134 -88 
L 2288 3409 
L 1409 3409 
Q 894 3409 634 3275 
Q 453 3181 334 2922 
L 216 2922 
L 522 4238 
L 3047 4238 
L 1625 -88 
L 1134 -88 
z
" transform="scale(0.015625)"/>
     </defs>
     <use xlink:href="#TimesNewRomanPS-BoldMT-36"/>
     <use xlink:href="#TimesNewRomanPS-BoldMT-38" transform="translate(50 0)"/>
     <use xlink:href="#TimesNewRomanPS-BoldMT-2e" transform="translate(100 0)"/>
     <use xlink:href="#TimesNewRomanPS-BoldMT-37" transform="translate(125 0)"/>
     <use xlink:href="#TimesNewRomanPS-BoldMT-6b" transform="translate(175 0)"/>
    </g>
   </g>
   <g id="text_18">
    <!-- 58.4k -->
    <g transform="translate(284.250863 189.780644) scale(0.08 -0.08)">
     <defs>
      <path id="TimesNewRomanPS-BoldMT-34" d="M 159 1597 
L 2172 4325 
L 2553 4325 
L 2553 1597 
L 2941 1597 
L 2941 950 
L 2553 950 
L 2553 0 
L 1694 0 
L 1694 950 
L 159 950 
L 159 1597 
z
M 463 1597 
L 1694 1597 
L 1694 3269 
L 463 1597 
z
" transform="scale(0.015625)"/>
     </defs>
     <use xlink:href="#TimesNewRomanPS-BoldMT-35"/>
     <use xlink:href="#TimesNewRomanPS-BoldMT-38" transform="translate(50 0)"/>
     <use xlink:href="#TimesNewRomanPS-BoldMT-2e" transform="translate(100 0)"/>
     <use xlink:href="#TimesNewRomanPS-BoldMT-34" transform="translate(125 0)"/>
     <use xlink:href="#TimesNewRomanPS-BoldMT-6b" transform="translate(175 0)"/>
    </g>
   </g>
   <g id="text_19">
    <!-- 52.6k -->
    <g transform="translate(184.182796 441.978973) scale(0.08 -0.08)">
     <defs>
      <path id="TimesNewRomanPS-BoldMT-32" d="M 2650 0 
L 156 0 
L 156 69 
Q 1303 1434 1548 1906 
Q 1794 2378 1794 2828 
Q 1794 3156 1591 3373 
Q 1388 3591 1094 3591 
Q 613 3591 347 3109 
L 231 3150 
Q 400 3750 744 4037 
Q 1088 4325 1538 4325 
Q 1859 4325 2125 4175 
Q 2391 4025 2541 3764 
Q 2691 3503 2691 3275 
Q 2691 2859 2459 2431 
Q 2144 1853 1081 819 
L 1997 819 
Q 2334 819 2436 847 
Q 2538 875 2603 942 
Q 2669 1009 2775 1225 
L 2888 1225 
L 2650 0 
z
" transform="scale(0.015625)"/>
     </defs>
     <use xlink:href="#TimesNewRomanPS-BoldMT-35"/>
     <use xlink:href="#TimesNewRomanPS-BoldMT-32" transform="translate(50 0)"/>
     <use xlink:href="#TimesNewRomanPS-BoldMT-2e" transform="translate(100 0)"/>
     <use xlink:href="#TimesNewRomanPS-BoldMT-36" transform="translate(125 0)"/>
     <use xlink:href="#TimesNewRomanPS-BoldMT-6b" transform="translate(175 0)"/>
    </g>
   </g>
   <g id="text_20">
    <!-- 51.6k -->
    <g transform="translate(189.821124 295.840049) scale(0.08 -0.08)">
     <use xlink:href="#TimesNewRomanPS-BoldMT-35"/>
     <use xlink:href="#TimesNewRomanPS-BoldMT-31" transform="translate(50 0)"/>
     <use xlink:href="#TimesNewRomanPS-BoldMT-2e" transform="translate(100 0)"/>
     <use xlink:href="#TimesNewRomanPS-BoldMT-36" transform="translate(125 0)"/>
     <use xlink:href="#TimesNewRomanPS-BoldMT-6b" transform="translate(175 0)"/>
    </g>
   </g>
   <g id="text_21">
    <!-- 43.9k -->
    <g transform="translate(472.914224 328.385643) scale(0.08 -0.08)">
     <defs>
      <path id="TimesNewRomanPS-BoldMT-33" d="M 947 2125 
L 947 2234 
Q 1303 2338 1440 2427 
Q 1578 2516 1678 2698 
Q 1778 2881 1778 3069 
Q 1778 3328 1589 3514 
Q 1400 3700 1119 3700 
Q 681 3700 375 3238 
L 259 3278 
Q 484 3800 836 4062 
Q 1188 4325 1619 4325 
Q 2059 4325 2345 4056 
Q 2631 3788 2631 3428 
Q 2631 3194 2498 2976 
Q 2366 2759 2081 2594 
Q 2447 2416 2639 2155 
Q 2831 1894 2831 1500 
Q 2831 838 2351 373 
Q 1872 -91 1066 -91 
Q 528 -91 281 88 
Q 103 213 103 409 
Q 103 553 206 654 
Q 309 756 444 756 
Q 547 756 638 713 
Q 688 688 992 439 
Q 1297 191 1563 191 
Q 1794 191 1959 373 
Q 2125 556 2125 838 
Q 2125 1266 1825 1627 
Q 1525 1988 947 2125 
z
" transform="scale(0.015625)"/>
     </defs>
     <use xlink:href="#TimesNewRomanPS-BoldMT-34"/>
     <use xlink:href="#TimesNewRomanPS-BoldMT-33" transform="translate(50 0)"/>
     <use xlink:href="#TimesNewRomanPS-BoldMT-2e" transform="translate(100 0)"/>
     <use xlink:href="#TimesNewRomanPS-BoldMT-39" transform="translate(125 0)"/>
     <use xlink:href="#TimesNewRomanPS-BoldMT-6b" transform="translate(175 0)"/>
    </g>
   </g>
   <g id="text_22">
    <!-- 31.0k -->
    <g transform="translate(386.231058 266.601056) scale(0.08 -0.08)">
     <use xlink:href="#TimesNewRomanPS-BoldMT-33"/>
     <use xlink:href="#TimesNewRomanPS-BoldMT-31" transform="translate(50 0)"/>
     <use xlink:href="#TimesNewRomanPS-BoldMT-2e" transform="translate(100 0)"/>
     <use xlink:href="#TimesNewRomanPS-BoldMT-30" transform="translate(125 0)"/>
     <use xlink:href="#TimesNewRomanPS-BoldMT-6b" transform="translate(175 0)"/>
    </g>
   </g>
   <g id="text_23">
    <!-- 26.6k -->
    <g transform="translate(301.410992 161.602485) scale(0.08 -0.08)">
     <use xlink:href="#TimesNewRomanPS-BoldMT-32"/>
     <use xlink:href="#TimesNewRomanPS-BoldMT-36" transform="translate(50 0)"/>
     <use xlink:href="#TimesNewRomanPS-BoldMT-2e" transform="translate(100 0)"/>
     <use xlink:href="#TimesNewRomanPS-BoldMT-36" transform="translate(125 0)"/>
     <use xlink:href="#TimesNewRomanPS-BoldMT-6b" transform="translate(175 0)"/>
    </g>
   </g>
   <g id="text_24">
    <!-- 26.3k -->
    <g transform="translate(399.861103 443.235962) scale(0.08 -0.08)">
     <use xlink:href="#TimesNewRomanPS-BoldMT-32"/>
     <use xlink:href="#TimesNewRomanPS-BoldMT-36" transform="translate(50 0)"/>
     <use xlink:href="#TimesNewRomanPS-BoldMT-2e" transform="translate(100 0)"/>
     <use xlink:href="#TimesNewRomanPS-BoldMT-33" transform="translate(125 0)"/>
     <use xlink:href="#TimesNewRomanPS-BoldMT-6b" transform="translate(175 0)"/>
    </g>
   </g>
   <g id="text_25">
    <!-- 17.9k -->
    <g transform="translate(400.743624 95.546538) scale(0.08 -0.08)">
     <use xlink:href="#TimesNewRomanPS-BoldMT-31"/>
     <use xlink:href="#TimesNewRomanPS-BoldMT-37" transform="translate(50 0)"/>
     <use xlink:href="#TimesNewRomanPS-BoldMT-2e" transform="translate(100 0)"/>
     <use xlink:href="#TimesNewRomanPS-BoldMT-39" transform="translate(125 0)"/>
     <use xlink:href="#TimesNewRomanPS-BoldMT-6b" transform="translate(175 0)"/>
    </g>
   </g>
   <g id="text_26">
    <!-- 8.1k -->
    <g transform="translate(418.432885 101.014839) scale(0.08 -0.08)">
     <use xlink:href="#TimesNewRomanPS-BoldMT-38"/>
     <use xlink:href="#TimesNewRomanPS-BoldMT-2e" transform="translate(50 0)"/>
     <use xlink:href="#TimesNewRomanPS-BoldMT-31" transform="translate(75 0)"/>
     <use xlink:href="#TimesNewRomanPS-BoldMT-6b" transform="translate(125 0)"/>
    </g>
   </g>
   <g id="text_27">
    <!-- 1.0k -->
    <g transform="translate(266.541229 400.994743) scale(0.08 -0.08)">
     <use xlink:href="#TimesNewRomanPS-BoldMT-31"/>
     <use xlink:href="#TimesNewRomanPS-BoldMT-2e" transform="translate(50 0)"/>
     <use xlink:href="#TimesNewRomanPS-BoldMT-30" transform="translate(75 0)"/>
     <use xlink:href="#TimesNewRomanPS-BoldMT-6b" transform="translate(125 0)"/>
    </g>
   </g>
   <g id="text_28">
    <!-- the Interaction of Agriculture and Food Production -->
    <g transform="translate(140.876875 21.6) scale(0.16 -0.16)">
     <defs>
      <path id="TimesNewRomanPSMT-68" d="M 1041 4444 
L 1041 2350 
Q 1388 2731 1591 2839 
Q 1794 2947 1997 2947 
Q 2241 2947 2416 2812 
Q 2591 2678 2675 2391 
Q 2734 2191 2734 1659 
L 2734 647 
Q 2734 375 2778 275 
Q 2809 200 2884 156 
Q 2959 113 3159 113 
L 3159 0 
L 1753 0 
L 1753 113 
L 1819 113 
Q 2019 113 2097 173 
Q 2175 234 2206 353 
Q 2216 403 2216 647 
L 2216 1659 
Q 2216 2128 2167 2275 
Q 2119 2422 2012 2495 
Q 1906 2569 1756 2569 
Q 1603 2569 1437 2487 
Q 1272 2406 1041 2159 
L 1041 647 
Q 1041 353 1073 281 
Q 1106 209 1195 161 
Q 1284 113 1503 113 
L 1503 0 
L 84 0 
L 84 113 
Q 275 113 384 172 
Q 447 203 484 290 
Q 522 378 522 647 
L 522 3238 
Q 522 3728 498 3840 
Q 475 3953 426 3993 
Q 378 4034 297 4034 
Q 231 4034 84 3984 
L 41 4094 
L 897 4444 
L 1041 4444 
z
" transform="scale(0.015625)"/>
      <path id="TimesNewRomanPSMT-49" d="M 1975 116 
L 1975 0 
L 159 0 
L 159 116 
L 309 116 
Q 572 116 691 269 
Q 766 369 766 750 
L 766 3488 
Q 766 3809 725 3913 
Q 694 3991 597 4047 
Q 459 4122 309 4122 
L 159 4122 
L 159 4238 
L 1975 4238 
L 1975 4122 
L 1822 4122 
Q 1563 4122 1444 3969 
Q 1366 3869 1366 3488 
L 1366 750 
Q 1366 428 1406 325 
Q 1438 247 1538 191 
Q 1672 116 1822 116 
L 1975 116 
z
" transform="scale(0.015625)"/>
      <path id="TimesNewRomanPSMT-6e" d="M 1034 2341 
Q 1538 2947 1994 2947 
Q 2228 2947 2397 2830 
Q 2566 2713 2666 2444 
Q 2734 2256 2734 1869 
L 2734 647 
Q 2734 375 2778 278 
Q 2813 200 2889 156 
Q 2966 113 3172 113 
L 3172 0 
L 1756 0 
L 1756 113 
L 1816 113 
Q 2016 113 2095 173 
Q 2175 234 2206 353 
Q 2219 400 2219 647 
L 2219 1819 
Q 2219 2209 2117 2386 
Q 2016 2563 1775 2563 
Q 1403 2563 1034 2156 
L 1034 647 
Q 1034 356 1069 288 
Q 1113 197 1189 155 
Q 1266 113 1500 113 
L 1500 0 
L 84 0 
L 84 113 
L 147 113 
Q 366 113 442 223 
Q 519 334 519 647 
L 519 1709 
Q 519 2225 495 2337 
Q 472 2450 423 2490 
Q 375 2531 294 2531 
Q 206 2531 84 2484 
L 38 2597 
L 900 2947 
L 1034 2947 
L 1034 2341 
z
" transform="scale(0.015625)"/>
      <path id="TimesNewRomanPSMT-41" d="M 2928 1419 
L 1288 1419 
L 1000 750 
Q 894 503 894 381 
Q 894 284 986 211 
Q 1078 138 1384 116 
L 1384 0 
L 50 0 
L 50 116 
Q 316 163 394 238 
Q 553 388 747 847 
L 2238 4334 
L 2347 4334 
L 3822 809 
Q 4000 384 4145 257 
Q 4291 131 4550 116 
L 4550 0 
L 2878 0 
L 2878 116 
Q 3131 128 3220 200 
Q 3309 272 3309 375 
Q 3309 513 3184 809 
L 2928 1419 
z
M 2841 1650 
L 2122 3363 
L 1384 1650 
L 2841 1650 
z
" transform="scale(0.015625)"/>
      <path id="TimesNewRomanPSMT-64" d="M 2222 322 
Q 2013 103 1813 7 
Q 1613 -88 1381 -88 
Q 913 -88 563 304 
Q 213 697 213 1313 
Q 213 1928 600 2439 
Q 988 2950 1597 2950 
Q 1975 2950 2222 2709 
L 2222 3238 
Q 2222 3728 2198 3840 
Q 2175 3953 2125 3993 
Q 2075 4034 2000 4034 
Q 1919 4034 1784 3984 
L 1744 4094 
L 2597 4444 
L 2738 4444 
L 2738 1134 
Q 2738 631 2761 520 
Q 2784 409 2836 365 
Q 2888 322 2956 322 
Q 3041 322 3181 375 
L 3216 266 
L 2366 -88 
L 2222 -88 
L 2222 322 
z
M 2222 541 
L 2222 2016 
Q 2203 2228 2109 2403 
Q 2016 2578 1861 2667 
Q 1706 2756 1559 2756 
Q 1284 2756 1069 2509 
Q 784 2184 784 1559 
Q 784 928 1059 592 
Q 1334 256 1672 256 
Q 1956 256 2222 541 
z
" transform="scale(0.015625)"/>
     </defs>
     <use xlink:href="#TimesNewRomanPSMT-74"/>
     <use xlink:href="#TimesNewRomanPSMT-68" transform="translate(27.783203 0)"/>
     <use xlink:href="#TimesNewRomanPSMT-65" transform="translate(77.783203 0)"/>
     <use xlink:href="#TimesNewRomanPSMT-20" transform="translate(122.167969 0)"/>
     <use xlink:href="#TimesNewRomanPSMT-49" transform="translate(147.167969 0)"/>
     <use xlink:href="#TimesNewRomanPSMT-6e" transform="translate(180.46875 0)"/>
     <use xlink:href="#TimesNewRomanPSMT-74" transform="translate(230.46875 0)"/>
     <use xlink:href="#TimesNewRomanPSMT-65" transform="translate(258.251953 0)"/>
     <use xlink:href="#TimesNewRomanPSMT-72" transform="translate(302.636719 0)"/>
     <use xlink:href="#TimesNewRomanPSMT-61" transform="translate(335.9375 0)"/>
     <use xlink:href="#TimesNewRomanPSMT-63" transform="translate(380.322266 0)"/>
     <use xlink:href="#TimesNewRomanPSMT-74" transform="translate(424.707031 0)"/>
     <use xlink:href="#TimesNewRomanPSMT-69" transform="translate(452.490234 0)"/>
     <use xlink:href="#TimesNewRomanPSMT-6f" transform="translate(480.273438 0)"/>
     <use xlink:href="#TimesNewRomanPSMT-6e" transform="translate(530.273438 0)"/>
     <use xlink:href="#TimesNewRomanPSMT-20" transform="translate(580.273438 0)"/>
     <use xlink:href="#TimesNewRomanPSMT-6f" transform="translate(605.273438 0)"/>
     <use xlink:href="#TimesNewRomanPSMT-66" transform="translate(655.273438 0)"/>
     <use xlink:href="#TimesNewRomanPSMT-20" transform="translate(688.574219 0)"/>
     <use xlink:href="#TimesNewRomanPSMT-41" transform="translate(708.074219 0)"/>
     <use xlink:href="#TimesNewRomanPSMT-67" transform="translate(780.291016 0)"/>
     <use xlink:href="#TimesNewRomanPSMT-72" transform="translate(830.291016 0)"/>
     <use xlink:href="#TimesNewRomanPSMT-69" transform="translate(863.591797 0)"/>
     <use xlink:href="#TimesNewRomanPSMT-63" transform="translate(891.375 0)"/>
     <use xlink:href="#TimesNewRomanPSMT-75" transform="translate(935.759766 0)"/>
     <use xlink:href="#TimesNewRomanPSMT-6c" transform="translate(985.759766 0)"/>
     <use xlink:href="#TimesNewRomanPSMT-74" transform="translate(1013.542969 0)"/>
     <use xlink:href="#TimesNewRomanPSMT-75" transform="translate(1041.326172 0)"/>
     <use xlink:href="#TimesNewRomanPSMT-72" transform="translate(1091.326172 0)"/>
     <use xlink:href="#TimesNewRomanPSMT-65" transform="translate(1124.626953 0)"/>
     <use xlink:href="#TimesNewRomanPSMT-20" transform="translate(1169.011719 0)"/>
     <use xlink:href="#TimesNewRomanPSMT-61" transform="translate(1194.011719 0)"/>
     <use xlink:href="#TimesNewRomanPSMT-6e" transform="translate(1238.396484 0)"/>
     <use xlink:href="#TimesNewRomanPSMT-64" transform="translate(1288.396484 0)"/>
     <use xlink:href="#TimesNewRomanPSMT-20" transform="translate(1338.396484 0)"/>
     <use xlink:href="#TimesNewRomanPSMT-46" transform="translate(1363.396484 0)"/>
     <use xlink:href="#TimesNewRomanPSMT-6f" transform="translate(1419.011719 0)"/>
     <use xlink:href="#TimesNewRomanPSMT-6f" transform="translate(1469.011719 0)"/>
     <use xlink:href="#TimesNewRomanPSMT-64" transform="translate(1519.011719 0)"/>
     <use xlink:href="#TimesNewRomanPSMT-20" transform="translate(1569.011719 0)"/>
     <use xlink:href="#TimesNewRomanPSMT-50" transform="translate(1594.011719 0)"/>
     <use xlink:href="#TimesNewRomanPSMT-72" transform="translate(1649.626953 0)"/>
     <use xlink:href="#TimesNewRomanPSMT-6f" transform="translate(1682.927734 0)"/>
     <use xlink:href="#TimesNewRomanPSMT-64" transform="translate(1732.927734 0)"/>
     <use xlink:href="#TimesNewRomanPSMT-75" transform="translate(1782.927734 0)"/>
     <use xlink:href="#TimesNewRomanPSMT-63" transform="translate(1832.927734 0)"/>
     <use xlink:href="#TimesNewRomanPSMT-74" transform="translate(1877.3125 0)"/>
     <use xlink:href="#TimesNewRomanPSMT-69" transform="translate(1905.095703 0)"/>
     <use xlink:href="#TimesNewRomanPSMT-6f" transform="translate(1932.878906 0)"/>
     <use xlink:href="#TimesNewRomanPSMT-6e" transform="translate(1982.878906 0)"/>
    </g>
   </g>
   <g id="legend_1">
    <g id="patch_5">
     <path d="M 530.529688 156.387938 
L 668.396563 156.387938 
Q 670.396563 156.387938 670.396563 154.387938 
L 670.396563 43.6 
Q 670.396563 41.6 668.396563 41.6 
L 530.529688 41.6 
Q 528.529688 41.6 528.529688 43.6 
L 528.529688 154.387938 
Q 528.529688 156.387938 530.529688 156.387938 
z
" style="fill: #ffffff; opacity: 0.8; stroke: #cccccc; stroke-linejoin: miter"/>
    </g>
    <g id="text_29">
     <!-- Total volume produced -->
     <g transform="translate(548.529688 69.238125) scale(0.11 -0.11)">
      <defs>
       <path id="TimesNewRomanPSMT-54" d="M 3703 4238 
L 3750 3244 
L 3631 3244 
Q 3597 3506 3538 3619 
Q 3441 3800 3280 3886 
Q 3119 3972 2856 3972 
L 2259 3972 
L 2259 734 
Q 2259 344 2344 247 
Q 2463 116 2709 116 
L 2856 116 
L 2856 0 
L 1059 0 
L 1059 116 
L 1209 116 
Q 1478 116 1591 278 
Q 1659 378 1659 734 
L 1659 3972 
L 1150 3972 
Q 853 3972 728 3928 
Q 566 3869 450 3700 
Q 334 3531 313 3244 
L 194 3244 
L 244 4238 
L 3703 4238 
z
" transform="scale(0.015625)"/>
       <path id="TimesNewRomanPSMT-76" d="M 53 2863 
L 1400 2863 
L 1400 2747 
L 1313 2747 
Q 1191 2747 1127 2687 
Q 1063 2628 1063 2528 
Q 1063 2419 1128 2269 
L 1794 688 
L 2463 2328 
Q 2534 2503 2534 2594 
Q 2534 2638 2509 2666 
Q 2475 2713 2422 2730 
Q 2369 2747 2206 2747 
L 2206 2863 
L 3141 2863 
L 3141 2747 
Q 2978 2734 2916 2681 
Q 2806 2588 2719 2369 
L 1703 -88 
L 1575 -88 
L 553 2328 
Q 484 2497 421 2570 
Q 359 2644 263 2694 
Q 209 2722 53 2747 
L 53 2863 
z
" transform="scale(0.015625)"/>
       <path id="TimesNewRomanPSMT-6d" d="M 1050 2338 
Q 1363 2650 1419 2697 
Q 1559 2816 1721 2881 
Q 1884 2947 2044 2947 
Q 2313 2947 2506 2790 
Q 2700 2634 2766 2338 
Q 3088 2713 3309 2830 
Q 3531 2947 3766 2947 
Q 3994 2947 4170 2830 
Q 4347 2713 4450 2447 
Q 4519 2266 4519 1878 
L 4519 647 
Q 4519 378 4559 278 
Q 4591 209 4675 161 
Q 4759 113 4950 113 
L 4950 0 
L 3538 0 
L 3538 113 
L 3597 113 
Q 3781 113 3884 184 
Q 3956 234 3988 344 
Q 4000 397 4000 647 
L 4000 1878 
Q 4000 2228 3916 2372 
Q 3794 2572 3525 2572 
Q 3359 2572 3192 2489 
Q 3025 2406 2788 2181 
L 2781 2147 
L 2788 2013 
L 2788 647 
Q 2788 353 2820 281 
Q 2853 209 2943 161 
Q 3034 113 3253 113 
L 3253 0 
L 1806 0 
L 1806 113 
Q 2044 113 2133 169 
Q 2222 225 2256 338 
Q 2272 391 2272 647 
L 2272 1878 
Q 2272 2228 2169 2381 
Q 2031 2581 1784 2581 
Q 1616 2581 1450 2491 
Q 1191 2353 1050 2181 
L 1050 647 
Q 1050 366 1089 281 
Q 1128 197 1204 155 
Q 1281 113 1516 113 
L 1516 0 
L 100 0 
L 100 113 
Q 297 113 375 155 
Q 453 197 493 289 
Q 534 381 534 647 
L 534 1741 
Q 534 2213 506 2350 
Q 484 2453 437 2492 
Q 391 2531 309 2531 
Q 222 2531 100 2484 
L 53 2597 
L 916 2947 
L 1050 2947 
L 1050 2338 
z
" transform="scale(0.015625)"/>
      </defs>
      <use xlink:href="#TimesNewRomanPSMT-54"/>
      <use xlink:href="#TimesNewRomanPSMT-6f" transform="translate(54.083984 0)"/>
      <use xlink:href="#TimesNewRomanPSMT-74" transform="translate(104.083984 0)"/>
      <use xlink:href="#TimesNewRomanPSMT-61" transform="translate(131.867188 0)"/>
      <use xlink:href="#TimesNewRomanPSMT-6c" transform="translate(176.251953 0)"/>
      <use xlink:href="#TimesNewRomanPSMT-20" transform="translate(204.035156 0)"/>
      <use xlink:href="#TimesNewRomanPSMT-76" transform="translate(229.035156 0)"/>
      <use xlink:href="#TimesNewRomanPSMT-6f" transform="translate(279.035156 0)"/>
      <use xlink:href="#TimesNewRomanPSMT-6c" transform="translate(329.035156 0)"/>
      <use xlink:href="#TimesNewRomanPSMT-75" transform="translate(356.818359 0)"/>
      <use xlink:href="#TimesNewRomanPSMT-6d" transform="translate(406.818359 0)"/>
      <use xlink:href="#TimesNewRomanPSMT-65" transform="translate(484.601562 0)"/>
      <use xlink:href="#TimesNewRomanPSMT-20" transform="translate(528.986328 0)"/>
      <use xlink:href="#TimesNewRomanPSMT-70" transform="translate(553.986328 0)"/>
      <use xlink:href="#TimesNewRomanPSMT-72" transform="translate(603.986328 0)"/>
      <use xlink:href="#TimesNewRomanPSMT-6f" transform="translate(637.287109 0)"/>
      <use xlink:href="#TimesNewRomanPSMT-64" transform="translate(687.287109 0)"/>
      <use xlink:href="#TimesNewRomanPSMT-75" transform="translate(737.287109 0)"/>
      <use xlink:href="#TimesNewRomanPSMT-63" transform="translate(787.287109 0)"/>
      <use xlink:href="#TimesNewRomanPSMT-65" transform="translate(831.671875 0)"/>
      <use xlink:href="#TimesNewRomanPSMT-64" transform="translate(876.056641 0)"/>
     </g>
     <!-- (units/season) -->
     <g transform="translate(548.529688 80.756844) scale(0.11 -0.11)">
      <use xlink:href="#TimesNewRomanPSMT-28"/>
      <use xlink:href="#TimesNewRomanPSMT-75" transform="translate(33.300781 0)"/>
      <use xlink:href="#TimesNewRomanPSMT-6e" transform="translate(83.300781 0)"/>
      <use xlink:href="#TimesNewRomanPSMT-69" transform="translate(133.300781 0)"/>
      <use xlink:href="#TimesNewRomanPSMT-74" transform="translate(161.083984 0)"/>
      <use xlink:href="#TimesNewRomanPSMT-73" transform="translate(188.867188 0)"/>
      <use xlink:href="#TimesNewRomanPSMT-2f" transform="translate(227.783203 0)"/>
      <use xlink:href="#TimesNewRomanPSMT-73" transform="translate(255.566406 0)"/>
      <use xlink:href="#TimesNewRomanPSMT-65" transform="translate(294.482422 0)"/>
      <use xlink:href="#TimesNewRomanPSMT-61" transform="translate(338.867188 0)"/>
      <use xlink:href="#TimesNewRomanPSMT-73" transform="translate(383.251953 0)"/>
      <use xlink:href="#TimesNewRomanPSMT-6f" transform="translate(422.167969 0)"/>
      <use xlink:href="#TimesNewRomanPSMT-6e" transform="translate(472.167969 0)"/>
      <use xlink:href="#TimesNewRomanPSMT-29" transform="translate(522.167969 0)"/>
     </g>
    </g>
    <g id="PathCollection_4">
     <defs>
      <path id="mf281038583" d="M 0 7.926655 
C 2.102173 7.926655 4.11853 7.091452 5.604991 5.604991 
C 7.091452 4.11853 7.926655 2.102173 7.926655 0 
C 7.926655 -2.102173 7.091452 -4.11853 5.604991 -5.604991 
C 4.11853 -7.091452 2.102173 -7.926655 0 -7.926655 
C -2.102173 -7.926655 -4.11853 -7.091452 -5.604991 -5.604991 
C -7.091452 -4.11853 -7.926655 -2.102173 -7.926655 0 
C -7.926655 2.102173 -7.091452 4.11853 -5.604991 5.604991 
C -4.11853 7.091452 -2.102173 7.926655 0 7.926655 
z
" style="stroke: #000000; stroke-opacity: 0.7; stroke-width: 0.5"/>
     </defs>
     <g>
      <use xlink:href="#mf281038583" x="575.713125" y="104.984813" style="fill: #ff7f0e; fill-opacity: 0.7; stroke: #000000; stroke-opacity: 0.7; stroke-width: 0.5"/>
     </g>
    </g>
    <g id="text_30">
     <!-- 1.0k -->
     <g transform="translate(603.213125 107.609813) scale(0.1 -0.1)">
      <defs>
       <path id="TimesNewRomanPSMT-2e" d="M 800 606 
Q 947 606 1047 504 
Q 1147 403 1147 259 
Q 1147 116 1045 14 
Q 944 -88 800 -88 
Q 656 -88 554 14 
Q 453 116 453 259 
Q 453 406 554 506 
Q 656 606 800 606 
z
" transform="scale(0.015625)"/>
      </defs>
      <use xlink:href="#TimesNewRomanPSMT-31"/>
      <use xlink:href="#TimesNewRomanPSMT-2e" transform="translate(50 0)"/>
      <use xlink:href="#TimesNewRomanPSMT-30" transform="translate(75 0)"/>
      <use xlink:href="#TimesNewRomanPSMT-6b" transform="translate(125 0)"/>
     </g>
    </g>
    <g id="PathCollection_5">
     <defs>
      <path id="m44388d477a" d="M 0 15.853309 
C 4.204347 15.853309 8.23706 14.182905 11.209982 11.209982 
C 14.182905 8.23706 15.853309 4.204347 15.853309 0 
C 15.853309 -4.204347 14.182905 -8.23706 11.209982 -11.209982 
C 8.23706 -14.182905 4.204347 -15.853309 0 -15.853309 
C -4.204347 -15.853309 -8.23706 -14.182905 -11.209982 -11.209982 
C -14.182905 -8.23706 -15.853309 -4.204347 -15.853309 0 
C -15.853309 4.204347 -14.182905 8.23706 -11.209982 11.209982 
C -8.23706 14.182905 -4.204347 15.853309 0 15.853309 
z
" style="stroke: #000000; stroke-opacity: 0.7; stroke-width: 0.5"/>
     </defs>
     <g>
      <use xlink:href="#m44388d477a" x="575.713125" y="131.623875" style="fill: #ff7f0e; fill-opacity: 0.7; stroke: #000000; stroke-opacity: 0.7; stroke-width: 0.5"/>
     </g>
    </g>
    <g id="text_31">
     <!-- 100.0k -->
     <g transform="translate(603.213125 134.248875) scale(0.1 -0.1)">
      <use xlink:href="#TimesNewRomanPSMT-31"/>
      <use xlink:href="#TimesNewRomanPSMT-30" transform="translate(50 0)"/>
      <use xlink:href="#TimesNewRomanPSMT-30" transform="translate(100 0)"/>
      <use xlink:href="#TimesNewRomanPSMT-2e" transform="translate(150 0)"/>
      <use xlink:href="#TimesNewRomanPSMT-30" transform="translate(175 0)"/>
      <use xlink:href="#TimesNewRomanPSMT-6b" transform="translate(225 0)"/>
     </g>
    </g>
   </g>
  </g>
 </g>
 <defs>
  <clipPath id="pdab9edc346">
   <rect x="58.91375" y="41.6" width="489.18625" height="451.99625"/>
  </clipPath>
 </defs>
</svg>
