<svg class="main-svg" xmlns="http://www.w3.org/2000/svg" xmlns:xlink="http://www.w3.org/1999/xlink" width="640" height="480" style="" viewBox="0 0 640 480"><rect x="0" y="0" width="640" height="480" style="fill: rgb(255, 255, 255); fill-opacity: 1;"/><defs id="defs-95fab0"><g class="clips"><clipPath id="clip95fab0xyplot" class="plotclip"><rect width="410" height="300"/></clipPath><clipPath class="axesclip" id="clip95fab0x"><rect x="80" y="0" width="410" height="480"/></clipPath><clipPath class="axesclip" id="clip95fab0y"><rect x="0" y="100" width="640" height="300"/></clipPath><clipPath class="axesclip" id="clip95fab0xy"><rect x="80" y="100" width="410" height="300"/></clipPath></g><g class="gradients"/><g class="patterns"/></defs><g class="bglayer"/><g class="layer-below"><g class="imagelayer"/><g class="shapelayer"/></g><g class="cartesianlayer"><g class="subplot xy"><g class="layer-subplot"><g class="shapelayer"/><g class="imagelayer"/></g><g class="minor-gridlayer"><g class="x"/><g class="y"/></g><g class="gridlayer"><g class="x"/><g class="y"/></g><g class="zerolinelayer"/><g class="layer-between"><g class="shapelayer"/><g class="imagelayer"/></g><path class="xlines-below"/><path class="ylines-below"/><g class="overlines-below"/><g class="xaxislayer-below"/><g class="yaxislayer-below"/><g class="overaxes-below"/><g class="overplot"><g class="xy" transform="translate(80,100)" clip-path="url(#clip95fab0xyplot)"><g class="scatterlayer mlayer"><g class="trace scatter trace30580a" style="stroke-miterlimit: 2; opacity: 1;"><g class="fills"/><g class="errorbars"/><g class="lines"/><g class="points"><path class="point plotly-customdata" transform="translate(337.26,263.84)" d="M20,0A20,20 0 1,1 0,-20A20,20 0 0,1 20,0Z" style="opacity: 0.7; stroke-width: 0.5px; fill: rgb(252, 28, 191); fill-opacity: 1; stroke: rgb(0, 0, 0); stroke-opacity: 1;"/><path class="point plotly-customdata" transform="translate(153.84,50.04)" d="M18.89,0A18.89,18.89 0 1,1 0,-18.89A18.89,18.89 0 0,1 18.89,0Z" style="opacity: 0.7; stroke-width: 0.5px; fill: rgb(252, 28, 191); fill-opacity: 1; stroke: rgb(0, 0, 0); stroke-opacity: 1;"/><path class="point plotly-customdata" transform="translate(146.87,169.82)" d="M17.78,0A17.78,17.78 0 1,1 0,-17.78A17.78,17.78 0 0,1 17.78,0Z" style="opacity: 0.7; stroke-width: 0.5px; fill: rgb(252, 28, 191); fill-opacity: 1; stroke: rgb(0, 0, 0); stroke-opacity: 1;"/><path class="point plotly-customdata" transform="translate(357.69,40.99)" d="M16.67,0A16.67,16.67 0 1,1 0,-16.67A16.67,16.67 0 0,1 16.67,0Z" style="opacity: 0.7; stroke-width: 0.5px; fill: rgb(252, 28, 191); fill-opacity: 1; stroke: rgb(0, 0, 0); stroke-opacity: 1;"/><path class="point plotly-customdata" transform="translate(264.58,60.66)" d="M15.56,0A15.56,15.56 0 1,1 0,-15.56A15.56,15.56 0 0,1 15.56,0Z" style="opacity: 0.7; stroke-width: 0.5px; fill: rgb(252, 28, 191); fill-opacity: 1; stroke: rgb(0, 0, 0); stroke-opacity: 1;"/><path class="point plotly-customdata" transform="translate(245.49,256.22)" d="M14.44,0A14.44,14.44 0 1,1 0,-14.44A14.44,14.44 0 0,1 14.44,0Z" style="opacity: 0.7; stroke-width: 0.5px; fill: rgb(252, 28, 191); fill-opacity: 1; stroke: rgb(0, 0, 0); stroke-opacity: 1;"/><path class="point plotly-customdata" transform="translate(257.22,265.38)" d="M13.33,0A13.33,13.33 0 1,1 0,-13.33A13.33,13.33 0 0,1 13.33,0Z" style="opacity: 0.7; stroke-width: 0.5px; fill: rgb(252, 28, 191); fill-opacity: 1; stroke: rgb(0, 0, 0); stroke-opacity: 1;"/><path class="point plotly-customdata" transform="translate(47.31,34.62)" d="M12.22,0A12.22,12.22 0 1,1 0,-12.22A12.22,12.22 0 0,1 12.22,0Z" style="opacity: 0.7; stroke-width: 0.5px; fill: rgb(252, 28, 191); fill-opacity: 1; stroke: rgb(0, 0, 0); stroke-opacity: 1;"/><path class="point plotly-customdata" transform="translate(362.69,79.34)" d="M11.11,0A11.11,11.11 0 1,1 0,-11.11A11.11,11.11 0 0,1 11.11,0Z" style="opacity: 0.7; stroke-width: 0.5px; fill: rgb(252, 28, 191); fill-opacity: 1; stroke: rgb(0, 0, 0); stroke-opacity: 1;"/><path class="point plotly-customdata" transform="translate(67.31,262.59)" d="M10,0A10,10 0 1,1 0,-10A10,10 0 0,1 10,0Z" style="opacity: 0.7; stroke-width: 0.5px; fill: rgb(252, 28, 191); fill-opacity: 1; stroke: rgb(0, 0, 0); stroke-opacity: 1;"/></g><g class="text"/></g><g class="trace scatter trace4a9855" style="stroke-miterlimit: 2; opacity: 1;"><g class="fills"/><g class="errorbars"/><g class="lines"/><g class="points"/><g class="text"><g class="textpoint" transform="translate(0,2)"><text x="337.26" y="263.84" text-anchor="middle" style="font-family: 'Times New Roman'; font-size: 8px; fill: rgb(0, 0, 0); fill-opacity: 1; white-space: pre;">10.0k</text></g><g class="textpoint" transform="translate(0,2)"><text x="153.84" y="50.04" text-anchor="middle" style="font-family: 'Times New Roman'; font-size: 8px; fill: rgb(0, 0, 0); fill-opacity: 1; white-space: pre;">8.9k</text></g><g class="textpoint" transform="translate(0,2)"><text x="146.87" y="169.82" text-anchor="middle" style="font-family: 'Times New Roman'; font-size: 8px; fill: rgb(0, 0, 0); fill-opacity: 1; white-space: pre;">7.8k</text></g><g class="textpoint" transform="translate(0,2)"><text x="357.69" y="40.99" text-anchor="middle" style="font-family: 'Times New Roman'; font-size: 8px; fill: rgb(0, 0, 0); fill-opacity: 1; white-space: pre;">6.7k</text></g><g class="textpoint" transform="translate(0,2)"><text x="264.58" y="60.66" text-anchor="middle" style="font-family: 'Times New Roman'; font-size: 8px; fill: rgb(0, 0, 0); fill-opacity: 1; white-space: pre;">5.6k</text></g><g class="textpoint" transform="translate(0,2)"><text x="245.49" y="256.22" text-anchor="middle" style="font-family: 'Times New Roman'; font-size: 8px; fill: rgb(0, 0, 0); fill-opacity: 1; white-space: pre;">4.5k</text></g><g class="textpoint" transform="translate(0,2)"><text x="257.22" y="265.38" text-anchor="middle" style="font-family: 'Times New Roman'; font-size: 8px; fill: rgb(0, 0, 0); fill-opacity: 1; white-space: pre;">3.3k</text></g><g class="textpoint" transform="translate(0,2)"><text x="47.31" y="34.62" text-anchor="middle" style="font-family: 'Times New Roman'; font-size: 8px; fill: rgb(0, 0, 0); fill-opacity: 1; white-space: pre;">2.2k</text></g><g class="textpoint" transform="translate(0,2)"><text x="362.69" y="79.34" text-anchor="middle" style="font-family: 'Times New Roman'; font-size: 8px; fill: rgb(0, 0, 0); fill-opacity: 1; white-space: pre;">1.1k</text></g><g class="textpoint" transform="translate(0,2)"><text x="67.31" y="262.59" text-anchor="middle" style="font-family: 'Times New Roman'; font-size: 8px; fill: rgb(0, 0, 0); fill-opacity: 1; white-space: pre;">10</text></g></g></g><g class="trace scatter trace219672" style="stroke-miterlimit: 2; opacity: 1;"><g class="fills"/><g class="errorbars"/><g class="lines"/><g class="points"/><g class="text"/></g></g></g></g><path class="xlines-above crisp" d="M79,400.5H490" style="fill: none; stroke-width: 1px; stroke: rgb(0, 0, 0); stroke-opacity: 1;"/><path class="ylines-above crisp" d="M79.5,100V400" style="fill: none; stroke-width: 1px; stroke: rgb(0, 0, 0); stroke-opacity: 1;"/><g class="overlines-above"/><g class="xaxislayer-above"><path class="xtick ticks crisp" d="M0,401v5" transform="translate(157.23000000000002,0)" style="stroke: rgb(0, 0, 0); stroke-opacity: 1; stroke-width: 1px;"/><path class="xtick ticks crisp" d="M0,401v5" transform="translate(235.97,0)" style="stroke: rgb(0, 0, 0); stroke-opacity: 1; stroke-width: 1px;"/><path class="xtick ticks crisp" d="M0,401v5" transform="translate(314.7,0)" style="stroke: rgb(0, 0, 0); stroke-opacity: 1; stroke-width: 1px;"/><path class="xtick ticks crisp" d="M0,401v5" transform="translate(393.44,0)" style="stroke: rgb(0, 0, 0); stroke-opacity: 1; stroke-width: 1px;"/><path class="xtick ticks crisp" d="M0,401v5" transform="translate(472.18,0)" style="stroke: rgb(0, 0, 0); stroke-opacity: 1; stroke-width: 1px;"/><g class="xtick"><text text-anchor="middle" x="0" y="420.4" transform="translate(157.23000000000002,0)" style="font-family: 'Times New Roman'; font-size: 12px; fill: rgb(0, 0, 0); fill-opacity: 1; white-space: pre; opacity: 1;">20.0</text></g><g class="xtick"><text text-anchor="middle" x="0" y="420.4" style="font-family: 'Times New Roman'; font-size: 12px; fill: rgb(0, 0, 0); fill-opacity: 1; white-space: pre; opacity: 1;" transform="translate(235.97,0)">40.0</text></g><g class="xtick"><text text-anchor="middle" x="0" y="420.4" style="font-family: 'Times New Roman'; font-size: 12px; fill: rgb(0, 0, 0); fill-opacity: 1; white-space: pre; opacity: 1;" transform="translate(314.7,0)">60.0</text></g><g class="xtick"><text text-anchor="middle" x="0" y="420.4" style="font-family: 'Times New Roman'; font-size: 12px; fill: rgb(0, 0, 0); fill-opacity: 1; white-space: pre; opacity: 1;" transform="translate(393.44,0)">80.0</text></g><g class="xtick"><text text-anchor="middle" x="0" y="420.4" style="font-family: 'Times New Roman'; font-size: 12px; fill: rgb(0, 0, 0); fill-opacity: 1; white-space: pre; opacity: 1;" transform="translate(472.18,0)">100.0</text></g></g><g class="yaxislayer-above"><path class="ytick ticks crisp" d="M79,0h-5" transform="translate(0,360.68)" style="stroke: rgb(0, 0, 0); stroke-opacity: 1; stroke-width: 1px;"/><path class="ytick ticks crisp" d="M79,0h-5" transform="translate(0,319)" style="stroke: rgb(0, 0, 0); stroke-opacity: 1; stroke-width: 1px;"/><path class="ytick ticks crisp" d="M79,0h-5" transform="translate(0,277.32)" style="stroke: rgb(0, 0, 0); stroke-opacity: 1; stroke-width: 1px;"/><path class="ytick ticks crisp" d="M79,0h-5" transform="translate(0,235.64)" style="stroke: rgb(0, 0, 0); stroke-opacity: 1; stroke-width: 1px;"/><path class="ytick ticks crisp" d="M79,0h-5" transform="translate(0,193.95999999999998)" style="stroke: rgb(0, 0, 0); stroke-opacity: 1; stroke-width: 1px;"/><path class="ytick ticks crisp" d="M79,0h-5" transform="translate(0,152.29)" style="stroke: rgb(0, 0, 0); stroke-opacity: 1; stroke-width: 1px;"/><path class="ytick ticks crisp" d="M79,0h-5" transform="translate(0,110.61)" style="stroke: rgb(0, 0, 0); stroke-opacity: 1; stroke-width: 1px;"/><g class="ytick"><text text-anchor="end" x="71.6" y="4.199999999999999" transform="translate(0,360.68)" style="font-family: 'Times New Roman'; font-size: 12px; fill: rgb(0, 0, 0); fill-opacity: 1; white-space: pre; opacity: 1;">90</text></g><g class="ytick"><text text-anchor="end" x="71.6" y="4.199999999999999" style="font-family: 'Times New Roman'; font-size: 12px; fill: rgb(0, 0, 0); fill-opacity: 1; white-space: pre; opacity: 1;" transform="translate(0,319)">100</text></g><g class="ytick"><text text-anchor="end" x="71.6" y="4.199999999999999" style="font-family: 'Times New Roman'; font-size: 12px; fill: rgb(0, 0, 0); fill-opacity: 1; white-space: pre; opacity: 1;" transform="translate(0,277.32)">110</text></g><g class="ytick"><text text-anchor="end" x="71.6" y="4.199999999999999" style="font-family: 'Times New Roman'; font-size: 12px; fill: rgb(0, 0, 0); fill-opacity: 1; white-space: pre; opacity: 1;" transform="translate(0,235.64)">120</text></g><g class="ytick"><text text-anchor="end" x="71.6" y="4.199999999999999" style="font-family: 'Times New Roman'; font-size: 12px; fill: rgb(0, 0, 0); fill-opacity: 1; white-space: pre; opacity: 1;" transform="translate(0,193.95999999999998)">130</text></g><g class="ytick"><text text-anchor="end" x="71.6" y="4.199999999999999" style="font-family: 'Times New Roman'; font-size: 12px; fill: rgb(0, 0, 0); fill-opacity: 1; white-space: pre; opacity: 1;" transform="translate(0,152.29)">140</text></g><g class="ytick"><text text-anchor="end" x="71.6" y="4.199999999999999" style="font-family: 'Times New Roman'; font-size: 12px; fill: rgb(0, 0, 0); fill-opacity: 1; white-space: pre; opacity: 1;" transform="translate(0,110.61)">150</text></g></g><g class="overaxes-above"/></g></g><g class="polarlayer"/><g class="smithlayer"/><g class="ternarylayer"/><g class="geolayer"/><g class="funnelarealayer"/><g class="pielayer"/><g class="iciclelayer"/><g class="treemaplayer"/><g class="sunburstlayer"/><g class="glimages"/><defs id="topdefs-95fab0"><g class="clips"/><clipPath id="legend95fab0"><rect width="112" height="61" x="1" y="1"/></clipPath></defs><g class="layer-above"><g class="imagelayer"/><g class="shapelayer"/></g><g class="infolayer"><g class="legend" pointer-events="all" transform="translate(498.2,100)"><rect class="bg" shape-rendering="crispEdges" style="stroke: rgb(0, 0, 0); stroke-opacity: 1; fill: rgb(255, 255, 255); fill-opacity: 1; stroke-width: 1px;" width="113" height="62" x="0.5" y="0.5"/><g class="scrollbox" transform="" clip-path="url(#legend95fab0)"><text class="legendtitletext" text-anchor="start" x="3" y="16.6" style="font-family: 'Times New Roman'; font-size: 12px; fill: rgb(0, 0, 0); fill-opacity: 1; white-space: pre;"><tspan class="line" dy="0em" x="3" y="16.6">Number of employees</tspan><tspan class="line" dy="1.3em" x="3" y="16.6">(count)</tspan></text><g class="groups"><g class="traces" transform="translate(1,46.7)" style="opacity: 1;"><text class="legendtext" text-anchor="start" x="40" y="4.680000000000001" style="font-family: 'Times New Roman'; font-size: 12px; fill: rgb(0, 0, 0); fill-opacity: 1; white-space: pre;">10</text><g class="layers" style="opacity: 1;"><g class="legendfill"/><g class="legendlines"/><g class="legendsymbols"><g class="legendpoints"><path class="scatterpts" transform="translate(20,0)" d="M8,0A8,8 0 1,1 0,-8A8,8 0 0,1 8,0Z" style="opacity: 0.7; stroke-width: 0.5px; fill: rgb(252, 28, 191); fill-opacity: 1; stroke: rgb(0, 0, 0); stroke-opacity: 1;"/></g></g></g><rect class="legendtoggle" x="0" y="-9.5" width="52" height="19" style="fill: rgb(0, 0, 0); fill-opacity: 0;"/></g></g></g><rect class="scrollbar" rx="20" ry="3" width="0" height="0" style="fill: rgb(128, 139, 164); fill-opacity: 1;" x="0" y="0"/></g><g class="g-gtitle"><text class="gtitle" x="320" y="50" text-anchor="middle" dy="0em" style="opacity: 1; font-family: 'Times New Roman'; font-size: 16px; fill: rgb(0, 0, 0); fill-opacity: 1; white-space: pre;">the Comparison of Human Resources and Employee Management</text></g><g class="g-xtitle"><text class="xtitle" x="285" y="447.70625" text-anchor="middle" style="opacity: 1; font-family: 'Times New Roman'; font-size: 14px; fill: rgb(0, 0, 0); fill-opacity: 1; white-space: pre;">Training hours (hours/year)</text></g><g class="g-ytitle"><text class="ytitle" transform="rotate(-90,34.19375,250)" x="34.19375" y="250" text-anchor="middle" style="opacity: 1; font-family: 'Times New Roman'; font-size: 14px; fill: rgb(0, 0, 0); fill-opacity: 1; white-space: pre;">Productivity index (index)</text></g></g></svg>