<svg class="main-svg" xmlns="http://www.w3.org/2000/svg" xmlns:xlink="http://www.w3.org/1999/xlink" width="640" height="480" style="" viewBox="0 0 640 480"><rect x="0" y="0" width="640" height="480" style="fill: rgb(255, 255, 255); fill-opacity: 1;"/><defs id="defs-0a3279"><g class="clips"><clipPath id="clip0a3279xyplot" class="plotclip"><rect width="410" height="300"/></clipPath><clipPath class="axesclip" id="clip0a3279x"><rect x="80" y="0" width="410" height="480"/></clipPath><clipPath class="axesclip" id="clip0a3279y"><rect x="0" y="100" width="640" height="300"/></clipPath><clipPath class="axesclip" id="clip0a3279xy"><rect x="80" y="100" width="410" height="300"/></clipPath></g><g class="gradients"/><g class="patterns"/></defs><g class="bglayer"/><g class="layer-below"><g class="imagelayer"/><g class="shapelayer"/></g><g class="cartesianlayer"><g class="subplot xy"><g class="layer-subplot"><g class="shapelayer"/><g class="imagelayer"/></g><g class="minor-gridlayer"><g class="x"/><g class="y"/></g><g class="gridlayer"><g class="x"/><g class="y"/></g><g class="zerolinelayer"/><g class="layer-between"><g class="shapelayer"/><g class="imagelayer"/></g><path class="xlines-below"/><path class="ylines-below"/><g class="overlines-below"/><g class="xaxislayer-below"/><g class="yaxislayer-below"/><g class="overaxes-below"/><g class="overplot"><g class="xy" transform="translate(80,100)" clip-path="url(#clip0a3279xyplot)"><g class="scatterlayer mlayer"><g class="trace scatter traceee1b1d" style="stroke-miterlimit: 2; opacity: 1;"><g class="fills"/><g class="errorbars"/><g class="lines"/><g class="points"><path class="point plotly-customdata" transform="translate(362.69,215.23)" d="M20,0A20,20 0 1,1 0,-20A20,20 0 0,1 20,0Z" style="opacity: 0.7; stroke-width: 0.5px; fill: rgb(221, 68, 119); fill-opacity: 1; stroke: rgb(0, 0, 0); stroke-opacity: 1;"/><path class="point plotly-customdata" transform="translate(174.13,224.06)" d="M20,0A20,20 0 1,1 0,-20A20,20 0 0,1 20,0Z" style="opacity: 0.7; stroke-width: 0.5px; fill: rgb(221, 68, 119); fill-opacity: 1; stroke: rgb(0, 0, 0); stroke-opacity: 1;"/><path class="point plotly-customdata" transform="translate(83.29,265.38)" d="M20,0A20,20 0 1,1 0,-20A20,20 0 0,1 20,0Z" style="opacity: 0.7; stroke-width: 0.5px; fill: rgb(221, 68, 119); fill-opacity: 1; stroke: rgb(0, 0, 0); stroke-opacity: 1;"/><path class="point plotly-customdata" transform="translate(179.39,109.55)" d="M20,0A20,20 0 1,1 0,-20A20,20 0 0,1 20,0Z" style="opacity: 0.7; stroke-width: 0.5px; fill: rgb(221, 68, 119); fill-opacity: 1; stroke: rgb(0, 0, 0); stroke-opacity: 1;"/><path class="point plotly-customdata" transform="translate(196.89,101.1)" d="M20,0A20,20 0 1,1 0,-20A20,20 0 0,1 20,0Z" style="opacity: 0.7; stroke-width: 0.5px; fill: rgb(221, 68, 119); fill-opacity: 1; stroke: rgb(0, 0, 0); stroke-opacity: 1;"/><path class="point plotly-customdata" transform="translate(47.31,104.68)" d="M20,0A20,20 0 1,1 0,-20A20,20 0 0,1 20,0Z" style="opacity: 0.7; stroke-width: 0.5px; fill: rgb(221, 68, 119); fill-opacity: 1; stroke: rgb(0, 0, 0); stroke-opacity: 1;"/><path class="point plotly-customdata" transform="translate(137.79,248.78)" d="M20,0A20,20 0 1,1 0,-20A20,20 0 0,1 20,0Z" style="opacity: 0.7; stroke-width: 0.5px; fill: rgb(221, 68, 119); fill-opacity: 1; stroke: rgb(0, 0, 0); stroke-opacity: 1;"/><path class="point plotly-customdata" transform="translate(218.59,239.75)" d="M20,0A20,20 0 1,1 0,-20A20,20 0 0,1 20,0Z" style="opacity: 0.7; stroke-width: 0.5px; fill: rgb(221, 68, 119); fill-opacity: 1; stroke: rgb(0, 0, 0); stroke-opacity: 1;"/><path class="point plotly-customdata" transform="translate(324.34,208.98)" d="M20,0A20,20 0 1,1 0,-20A20,20 0 0,1 20,0Z" style="opacity: 0.7; stroke-width: 0.5px; fill: rgb(221, 68, 119); fill-opacity: 1; stroke: rgb(0, 0, 0); stroke-opacity: 1;"/><path class="point plotly-customdata" transform="translate(113.26,190.34)" d="M20,0A20,20 0 1,1 0,-20A20,20 0 0,1 20,0Z" style="opacity: 0.7; stroke-width: 0.5px; fill: rgb(221, 68, 119); fill-opacity: 1; stroke: rgb(0, 0, 0); stroke-opacity: 1;"/><path class="point plotly-customdata" transform="translate(49.93,58.79)" d="M20,0A20,20 0 1,1 0,-20A20,20 0 0,1 20,0Z" style="opacity: 0.7; stroke-width: 0.5px; fill: rgb(221, 68, 119); fill-opacity: 1; stroke: rgb(0, 0, 0); stroke-opacity: 1;"/><path class="point plotly-customdata" transform="translate(167.14,34.62)" d="M20,0A20,20 0 1,1 0,-20A20,20 0 0,1 20,0Z" style="opacity: 0.7; stroke-width: 0.5px; fill: rgb(221, 68, 119); fill-opacity: 1; stroke: rgb(0, 0, 0); stroke-opacity: 1;"/><path class="point plotly-customdata" transform="translate(154.9,263.46)" d="M20,0A20,20 0 1,1 0,-20A20,20 0 0,1 20,0Z" style="opacity: 0.7; stroke-width: 0.5px; fill: rgb(221, 68, 119); fill-opacity: 1; stroke: rgb(0, 0, 0); stroke-opacity: 1;"/><path class="point plotly-customdata" transform="translate(64.4,252.13)" d="M10,0A10,10 0 1,1 0,-10A10,10 0 0,1 10,0Z" style="opacity: 0.7; stroke-width: 0.5px; fill: rgb(221, 68, 119); fill-opacity: 1; stroke: rgb(0, 0, 0); stroke-opacity: 1;"/></g><g class="text"/></g><g class="trace scatter trace11a5ea" style="stroke-miterlimit: 2; opacity: 1;"><g class="fills"/><g class="errorbars"/><g class="lines"/><g class="points"/><g class="text"><g class="textpoint" transform="translate(0,2)"><text x="362.69" y="215.23" text-anchor="middle" style="font-family: 'Times New Roman'; font-size: 8px; fill: rgb(0, 0, 0); fill-opacity: 1; white-space: pre;">100.0k</text></g><g class="textpoint" transform="translate(0,2)"><text x="174.13" y="224.06" text-anchor="middle" style="font-family: 'Times New Roman'; font-size: 8px; fill: rgb(0, 0, 0); fill-opacity: 1; white-space: pre;">100.0k</text></g><g class="textpoint" transform="translate(0,2)"><text x="83.29" y="265.38" text-anchor="middle" style="font-family: 'Times New Roman'; font-size: 8px; fill: rgb(0, 0, 0); fill-opacity: 1; white-space: pre;">100.0k</text></g><g class="textpoint" transform="translate(0,2)"><text x="179.39" y="109.55" text-anchor="middle" style="font-family: 'Times New Roman'; font-size: 8px; fill: rgb(0, 0, 0); fill-opacity: 1; white-space: pre;">100.0k</text></g><g class="textpoint" transform="translate(0,2)"><text x="196.89" y="101.1" text-anchor="middle" style="font-family: 'Times New Roman'; font-size: 8px; fill: rgb(0, 0, 0); fill-opacity: 1; white-space: pre;">100.0k</text></g><g class="textpoint" transform="translate(0,2)"><text x="47.31" y="104.68" text-anchor="middle" style="font-family: 'Times New Roman'; font-size: 8px; fill: rgb(0, 0, 0); fill-opacity: 1; white-space: pre;">100.0k</text></g><g class="textpoint" transform="translate(0,2)"><text x="137.79" y="248.78" text-anchor="middle" style="font-family: 'Times New Roman'; font-size: 8px; fill: rgb(0, 0, 0); fill-opacity: 1; white-space: pre;">100.0k</text></g><g class="textpoint" transform="translate(0,2)"><text x="218.59" y="239.75" text-anchor="middle" style="font-family: 'Times New Roman'; font-size: 8px; fill: rgb(0, 0, 0); fill-opacity: 1; white-space: pre;">100.0k</text></g><g class="textpoint" transform="translate(0,2)"><text x="324.34" y="208.98" text-anchor="middle" style="font-family: 'Times New Roman'; font-size: 8px; fill: rgb(0, 0, 0); fill-opacity: 1; white-space: pre;">100.0k</text></g><g class="textpoint" transform="translate(0,2)"><text x="113.26" y="190.34" text-anchor="middle" style="font-family: 'Times New Roman'; font-size: 8px; fill: rgb(0, 0, 0); fill-opacity: 1; white-space: pre;">100.0k</text></g><g class="textpoint" transform="translate(0,2)"><text x="49.93" y="58.79" text-anchor="middle" style="font-family: 'Times New Roman'; font-size: 8px; fill: rgb(0, 0, 0); fill-opacity: 1; white-space: pre;">100.0k</text></g><g class="textpoint" transform="translate(0,2)"><text x="167.14" y="34.62" text-anchor="middle" style="font-family: 'Times New Roman'; font-size: 8px; fill: rgb(0, 0, 0); fill-opacity: 1; white-space: pre;">100.0k</text></g><g class="textpoint" transform="translate(0,2)"><text x="154.9" y="263.46" text-anchor="middle" style="font-family: 'Times New Roman'; font-size: 8px; fill: rgb(0, 0, 0); fill-opacity: 1; white-space: pre;">100.0k</text></g><g class="textpoint" transform="translate(0,2)"><text x="64.4" y="252.13" text-anchor="middle" style="font-family: 'Times New Roman'; font-size: 8px; fill: rgb(0, 0, 0); fill-opacity: 1; white-space: pre;">1.0k</text></g></g></g><g class="trace scatter traceeec87c" style="stroke-miterlimit: 2; opacity: 1;"><g class="fills"/><g class="errorbars"/><g class="lines"/><g class="points"/><g class="text"/></g></g></g></g><path class="xlines-above crisp" d="M79,400.5H490" style="fill: none; stroke-width: 1px; stroke: rgb(0, 0, 0); stroke-opacity: 1;"/><path class="ylines-above crisp" d="M79.5,100V400" style="fill: none; stroke-width: 1px; stroke: rgb(0, 0, 0); stroke-opacity: 1;"/><g class="overlines-above"/><g class="xaxislayer-above"><path class="xtick ticks crisp" d="M0,401v5" transform="translate(110.63,0)" style="stroke: rgb(0, 0, 0); stroke-opacity: 1; stroke-width: 1px;"/><path class="xtick ticks crisp" d="M0,401v5" transform="translate(181.34,0)" style="stroke: rgb(0, 0, 0); stroke-opacity: 1; stroke-width: 1px;"/><path class="xtick ticks crisp" d="M0,401v5" transform="translate(252.06,0)" style="stroke: rgb(0, 0, 0); stroke-opacity: 1; stroke-width: 1px;"/><path class="xtick ticks crisp" d="M0,401v5" transform="translate(322.78,0)" style="stroke: rgb(0, 0, 0); stroke-opacity: 1; stroke-width: 1px;"/><path class="xtick ticks crisp" d="M0,401v5" transform="translate(393.49,0)" style="stroke: rgb(0, 0, 0); stroke-opacity: 1; stroke-width: 1px;"/><path class="xtick ticks crisp" d="M0,401v5" transform="translate(464.21,0)" style="stroke: rgb(0, 0, 0); stroke-opacity: 1; stroke-width: 1px;"/><g class="xtick"><text text-anchor="middle" x="0" y="420.4" transform="translate(110.63,0)" style="font-family: 'Times New Roman'; font-size: 12px; fill: rgb(0, 0, 0); fill-opacity: 1; white-space: pre; opacity: 1;">0.0</text></g><g class="xtick"><text text-anchor="middle" x="0" y="420.4" style="font-family: 'Times New Roman'; font-size: 12px; fill: rgb(0, 0, 0); fill-opacity: 1; white-space: pre; opacity: 1;" transform="translate(181.34,0)">10.0</text></g><g class="xtick"><text text-anchor="middle" x="0" y="420.4" style="font-family: 'Times New Roman'; font-size: 12px; fill: rgb(0, 0, 0); fill-opacity: 1; white-space: pre; opacity: 1;" transform="translate(252.06,0)">20.0</text></g><g class="xtick"><text text-anchor="middle" x="0" y="420.4" style="font-family: 'Times New Roman'; font-size: 12px; fill: rgb(0, 0, 0); fill-opacity: 1; white-space: pre; opacity: 1;" transform="translate(322.78,0)">30.0</text></g><g class="xtick"><text text-anchor="middle" x="0" y="420.4" style="font-family: 'Times New Roman'; font-size: 12px; fill: rgb(0, 0, 0); fill-opacity: 1; white-space: pre; opacity: 1;" transform="translate(393.49,0)">40.0</text></g><g class="xtick"><text text-anchor="middle" x="0" y="420.4" style="font-family: 'Times New Roman'; font-size: 12px; fill: rgb(0, 0, 0); fill-opacity: 1; white-space: pre; opacity: 1;" transform="translate(464.21,0)">50.0</text></g></g><g class="yaxislayer-above"><path class="ytick ticks crisp" d="M79,0h-5" transform="translate(0,387.6)" style="stroke: rgb(0, 0, 0); stroke-opacity: 1; stroke-width: 1px;"/><path class="ytick ticks crisp" d="M79,0h-5" transform="translate(0,319.97)" style="stroke: rgb(0, 0, 0); stroke-opacity: 1; stroke-width: 1px;"/><path class="ytick ticks crisp" d="M79,0h-5" transform="translate(0,252.33)" style="stroke: rgb(0, 0, 0); stroke-opacity: 1; stroke-width: 1px;"/><path class="ytick ticks crisp" d="M79,0h-5" transform="translate(0,184.7)" style="stroke: rgb(0, 0, 0); stroke-opacity: 1; stroke-width: 1px;"/><path class="ytick ticks crisp" d="M79,0h-5" transform="translate(0,117.06)" style="stroke: rgb(0, 0, 0); stroke-opacity: 1; stroke-width: 1px;"/><g class="ytick"><text text-anchor="end" x="71.6" y="4.199999999999999" transform="translate(0,387.6)" style="font-family: 'Times New Roman'; font-size: 12px; fill: rgb(0, 0, 0); fill-opacity: 1; white-space: pre; opacity: 1;">20</text></g><g class="ytick"><text text-anchor="end" x="71.6" y="4.199999999999999" style="font-family: 'Times New Roman'; font-size: 12px; fill: rgb(0, 0, 0); fill-opacity: 1; white-space: pre; opacity: 1;" transform="translate(0,319.97)">40</text></g><g class="ytick"><text text-anchor="end" x="71.6" y="4.199999999999999" style="font-family: 'Times New Roman'; font-size: 12px; fill: rgb(0, 0, 0); fill-opacity: 1; white-space: pre; opacity: 1;" transform="translate(0,252.33)">60</text></g><g class="ytick"><text text-anchor="end" x="71.6" y="4.199999999999999" style="font-family: 'Times New Roman'; font-size: 12px; fill: rgb(0, 0, 0); fill-opacity: 1; white-space: pre; opacity: 1;" transform="translate(0,184.7)">80</text></g><g class="ytick"><text text-anchor="end" x="71.6" y="4.199999999999999" style="font-family: 'Times New Roman'; font-size: 12px; fill: rgb(0, 0, 0); fill-opacity: 1; white-space: pre; opacity: 1;" transform="translate(0,117.06)">100</text></g></g><g class="overaxes-above"/></g></g><g class="polarlayer"/><g class="smithlayer"/><g class="ternarylayer"/><g class="geolayer"/><g class="funnelarealayer"/><g class="pielayer"/><g class="iciclelayer"/><g class="treemaplayer"/><g class="sunburstlayer"/><g class="glimages"/><defs id="topdefs-0a3279"><g class="clips"/><clipPath id="legend0a3279"><rect width="97" height="76" x="1" y="1"/></clipPath></defs><g class="layer-above"><g class="imagelayer"/><g class="shapelayer"/></g><g class="infolayer"><g class="legend" pointer-events="all" transform="translate(498.2,100)"><rect class="bg" shape-rendering="crispEdges" style="stroke: rgb(0, 0, 0); stroke-opacity: 1; fill: rgb(255, 255, 255); fill-opacity: 1; stroke-width: 1px;" width="98" height="77" x="0.5" y="0.5"/><g class="scrollbox" transform="" clip-path="url(#legend0a3279)"><text class="legendtitletext" text-anchor="start" x="3" y="16.6" style="font-family: 'Times New Roman'; font-size: 12px; fill: rgb(0, 0, 0); fill-opacity: 1; white-space: pre;"><tspan class="line" dy="0em" x="3" y="16.6">Number of people</tspan><tspan class="line" dy="1.3em" x="3" y="16.6">attending the game</tspan><tspan class="line" dy="2.6em" x="3" y="16.6">(attendees)</tspan></text><g class="groups"><g class="traces" transform="translate(1,62.300000000000004)" style="opacity: 1;"><text class="legendtext" text-anchor="start" x="40" y="4.680000000000001" style="font-family: 'Times New Roman'; font-size: 12px; fill: rgb(0, 0, 0); fill-opacity: 1; white-space: pre;">1.0k</text><g class="layers" style="opacity: 1;"><g class="legendfill"/><g class="legendlines"/><g class="legendsymbols"><g class="legendpoints"><path class="scatterpts" transform="translate(20,0)" d="M8,0A8,8 0 1,1 0,-8A8,8 0 0,1 8,0Z" style="opacity: 0.7; stroke-width: 0.5px; fill: rgb(221, 68, 119); fill-opacity: 1; stroke: rgb(0, 0, 0); stroke-opacity: 1;"/></g></g></g><rect class="legendtoggle" x="0" y="-9.5" width="61" height="19" style="fill: rgb(0, 0, 0); fill-opacity: 0;"/></g></g></g><rect class="scrollbar" rx="20" ry="3" width="0" height="0" style="fill: rgb(128, 139, 164); fill-opacity: 1;" x="0" y="0"/></g><g class="g-gtitle"><text class="gtitle" x="320" y="50" text-anchor="middle" dy="0em" style="opacity: 1; font-family: 'Times New Roman'; font-size: 16px; fill: rgb(0, 0, 0); fill-opacity: 1; white-space: pre;">the Correlation of Sports and Entertainment</text></g><g class="g-xtitle"><text class="xtitle" x="285" y="447.70625" text-anchor="middle" style="opacity: 1; font-family: 'Times New Roman'; font-size: 14px; fill: rgb(0, 0, 0); fill-opacity: 1; white-space: pre;">Player salary (1e6 $)</text></g><g class="g-ytitle"><text class="ytitle" transform="rotate(-90,34.19375,250)" x="34.19375" y="250" text-anchor="middle" style="opacity: 1; font-family: 'Times New Roman'; font-size: 14px; fill: rgb(0, 0, 0); fill-opacity: 1; white-space: pre;">Win rate (%)</text></g></g></svg>