<svg class="main-svg" xmlns="http://www.w3.org/2000/svg" xmlns:xlink="http://www.w3.org/1999/xlink" width="640" height="480" style="" viewBox="0 0 640 480"><rect x="0" y="0" width="640" height="480" style="fill: rgb(255, 255, 255); fill-opacity: 1;"/><defs id="defs-f64fb8"><g class="clips"><clipPath id="clipf64fb8xyplot" class="plotclip"><rect width="410" height="300"/></clipPath><clipPath class="axesclip" id="clipf64fb8x"><rect x="80" y="0" width="410" height="480"/></clipPath><clipPath class="axesclip" id="clipf64fb8y"><rect x="0" y="100" width="640" height="300"/></clipPath><clipPath class="axesclip" id="clipf64fb8xy"><rect x="80" y="100" width="410" height="300"/></clipPath></g><g class="gradients"/><g class="patterns"/></defs><g class="bglayer"/><g class="layer-below"><g class="imagelayer"/><g class="shapelayer"/></g><g class="cartesianlayer"><g class="subplot xy"><g class="layer-subplot"><g class="shapelayer"/><g class="imagelayer"/></g><g class="minor-gridlayer"><g class="x"/><g class="y"/></g><g class="gridlayer"><g class="x"/><g class="y"/></g><g class="zerolinelayer"/><g class="layer-between"><g class="shapelayer"/><g class="imagelayer"/></g><path class="xlines-below"/><path class="ylines-below"/><g class="overlines-below"/><g class="xaxislayer-below"/><g class="yaxislayer-below"/><g class="overaxes-below"/><g class="overplot"><g class="xy" transform="translate(80,100)" clip-path="url(#clipf64fb8xyplot)"><g class="scatterlayer mlayer"><g class="trace scatter tracece4bdb" style="stroke-miterlimit: 2; opacity: 1;"><g class="fills"/><g class="errorbars"/><g class="lines"/><g class="points"><path class="point plotly-customdata" transform="translate(172.81,155.54)" d="M20,0A20,20 0 1,1 0,-20A20,20 0 0,1 20,0Z" style="opacity: 0.7; stroke-width: 0.5px; fill: rgb(220, 57, 18); fill-opacity: 1; stroke: rgb(0, 0, 0); stroke-opacity: 1;"/><path class="point plotly-customdata" transform="translate(362.69,222.32)" d="M13.42,0A13.42,13.42 0 1,1 0,-13.42A13.42,13.42 0 0,1 13.42,0Z" style="opacity: 0.7; stroke-width: 0.5px; fill: rgb(220, 57, 18); fill-opacity: 1; stroke: rgb(0, 0, 0); stroke-opacity: 1;"/><path class="point plotly-customdata" transform="translate(185.92,34.62)" d="M12.28,0A12.28,12.28 0 1,1 0,-12.28A12.28,12.28 0 0,1 12.28,0Z" style="opacity: 0.7; stroke-width: 0.5px; fill: rgb(220, 57, 18); fill-opacity: 1; stroke: rgb(0, 0, 0); stroke-opacity: 1;"/><path class="point plotly-customdata" transform="translate(223.04,265.38)" d="M12.05,0A12.05,12.05 0 1,1 0,-12.05A12.05,12.05 0 0,1 12.05,0Z" style="opacity: 0.7; stroke-width: 0.5px; fill: rgb(220, 57, 18); fill-opacity: 1; stroke: rgb(0, 0, 0); stroke-opacity: 1;"/><path class="point plotly-customdata" transform="translate(63.56,131.04)" d="M11.57,0A11.57,11.57 0 1,1 0,-11.57A11.57,11.57 0 0,1 11.57,0Z" style="opacity: 0.7; stroke-width: 0.5px; fill: rgb(220, 57, 18); fill-opacity: 1; stroke: rgb(0, 0, 0); stroke-opacity: 1;"/><path class="point plotly-customdata" transform="translate(211.91,151.8)" d="M10.98,0A10.98,10.98 0 1,1 0,-10.98A10.98,10.98 0 0,1 10.98,0Z" style="opacity: 0.7; stroke-width: 0.5px; fill: rgb(220, 57, 18); fill-opacity: 1; stroke: rgb(0, 0, 0); stroke-opacity: 1;"/><path class="point plotly-customdata" transform="translate(245.09,245.94)" d="M10.91,0A10.91,10.91 0 1,1 0,-10.91A10.91,10.91 0 0,1 10.91,0Z" style="opacity: 0.7; stroke-width: 0.5px; fill: rgb(220, 57, 18); fill-opacity: 1; stroke: rgb(0, 0, 0); stroke-opacity: 1;"/><path class="point plotly-customdata" transform="translate(47.31,85.99)" d="M10.81,0A10.81,10.81 0 1,1 0,-10.81A10.81,10.81 0 0,1 10.81,0Z" style="opacity: 0.7; stroke-width: 0.5px; fill: rgb(220, 57, 18); fill-opacity: 1; stroke: rgb(0, 0, 0); stroke-opacity: 1;"/><path class="point plotly-customdata" transform="translate(329.43,244.97)" d="M10.79,0A10.79,10.79 0 1,1 0,-10.79A10.79,10.79 0 0,1 10.79,0Z" style="opacity: 0.7; stroke-width: 0.5px; fill: rgb(220, 57, 18); fill-opacity: 1; stroke: rgb(0, 0, 0); stroke-opacity: 1;"/><path class="point plotly-customdata" transform="translate(51.42,131.77)" d="M10.38,0A10.38,10.38 0 1,1 0,-10.38A10.38,10.38 0 0,1 10.38,0Z" style="opacity: 0.7; stroke-width: 0.5px; fill: rgb(220, 57, 18); fill-opacity: 1; stroke: rgb(0, 0, 0); stroke-opacity: 1;"/><path class="point plotly-customdata" transform="translate(199.31,252.31)" d="M10.18,0A10.18,10.18 0 1,1 0,-10.18A10.18,10.18 0 0,1 10.18,0Z" style="opacity: 0.7; stroke-width: 0.5px; fill: rgb(220, 57, 18); fill-opacity: 1; stroke: rgb(0, 0, 0); stroke-opacity: 1;"/><path class="point plotly-customdata" transform="translate(288.31,177.12)" d="M10.02,0A10.02,10.02 0 1,1 0,-10.02A10.02,10.02 0 0,1 10.02,0Z" style="opacity: 0.7; stroke-width: 0.5px; fill: rgb(220, 57, 18); fill-opacity: 1; stroke: rgb(0, 0, 0); stroke-opacity: 1;"/><path class="point plotly-customdata" transform="translate(280.81,62.47)" d="M10,0A10,10 0 1,1 0,-10A10,10 0 0,1 10,0Z" style="opacity: 0.7; stroke-width: 0.5px; fill: rgb(220, 57, 18); fill-opacity: 1; stroke: rgb(0, 0, 0); stroke-opacity: 1;"/><path class="point plotly-customdata" transform="translate(126.53,211.14)" d="M10,0A10,10 0 1,1 0,-10A10,10 0 0,1 10,0Z" style="opacity: 0.7; stroke-width: 0.5px; fill: rgb(220, 57, 18); fill-opacity: 1; stroke: rgb(0, 0, 0); stroke-opacity: 1;"/></g><g class="text"/></g><g class="trace scatter tracefe28c4" style="stroke-miterlimit: 2; opacity: 1;"><g class="fills"/><g class="errorbars"/><g class="lines"/><g class="points"/><g class="text"><g class="textpoint" transform="translate(0,2)"><text x="172.81" y="155.54" text-anchor="middle" style="font-family: 'Times New Roman'; font-size: 8px; fill: rgb(0, 0, 0); fill-opacity: 1; white-space: pre;">30</text></g><g class="textpoint" transform="translate(0,2)"><text x="362.69" y="222.32" text-anchor="middle" style="font-family: 'Times New Roman'; font-size: 8px; fill: rgb(0, 0, 0); fill-opacity: 1; white-space: pre;">10.32</text></g><g class="textpoint" transform="translate(0,2)"><text x="185.92" y="34.62" text-anchor="middle" style="font-family: 'Times New Roman'; font-size: 8px; fill: rgb(0, 0, 0); fill-opacity: 1; white-space: pre;">6.92</text></g><g class="textpoint" transform="translate(0,2)"><text x="223.04" y="265.38" text-anchor="middle" style="font-family: 'Times New Roman'; font-size: 8px; fill: rgb(0, 0, 0); fill-opacity: 1; white-space: pre;">6.24</text></g><g class="textpoint" transform="translate(0,2)"><text x="63.56" y="131.04" text-anchor="middle" style="font-family: 'Times New Roman'; font-size: 8px; fill: rgb(0, 0, 0); fill-opacity: 1; white-space: pre;">4.8</text></g><g class="textpoint" transform="translate(0,2)"><text x="211.91" y="151.8" text-anchor="middle" style="font-family: 'Times New Roman'; font-size: 8px; fill: rgb(0, 0, 0); fill-opacity: 1; white-space: pre;">3.04</text></g><g class="textpoint" transform="translate(0,2)"><text x="245.09" y="245.94" text-anchor="middle" style="font-family: 'Times New Roman'; font-size: 8px; fill: rgb(0, 0, 0); fill-opacity: 1; white-space: pre;">2.82</text></g><g class="textpoint" transform="translate(0,2)"><text x="47.31" y="85.99" text-anchor="middle" style="font-family: 'Times New Roman'; font-size: 8px; fill: rgb(0, 0, 0); fill-opacity: 1; white-space: pre;">2.52</text></g><g class="textpoint" transform="translate(0,2)"><text x="329.43" y="244.97" text-anchor="middle" style="font-family: 'Times New Roman'; font-size: 8px; fill: rgb(0, 0, 0); fill-opacity: 1; white-space: pre;">2.46</text></g><g class="textpoint" transform="translate(0,2)"><text x="51.42" y="131.77" text-anchor="middle" style="font-family: 'Times New Roman'; font-size: 8px; fill: rgb(0, 0, 0); fill-opacity: 1; white-space: pre;">1.23</text></g><g class="textpoint" transform="translate(0,2)"><text x="199.31" y="252.31" text-anchor="middle" style="font-family: 'Times New Roman'; font-size: 8px; fill: rgb(0, 0, 0); fill-opacity: 1; white-space: pre;">0.64</text></g><g class="textpoint" transform="translate(0,2)"><text x="288.31" y="177.12" text-anchor="middle" style="font-family: 'Times New Roman'; font-size: 8px; fill: rgb(0, 0, 0); fill-opacity: 1; white-space: pre;">0.15</text></g><g class="textpoint" transform="translate(0,2)"><text x="280.81" y="62.47" text-anchor="middle" style="font-family: 'Times New Roman'; font-size: 8px; fill: rgb(0, 0, 0); fill-opacity: 1; white-space: pre;">0.1</text></g><g class="textpoint" transform="translate(0,2)"><text x="126.53" y="211.14" text-anchor="middle" style="font-family: 'Times New Roman'; font-size: 8px; fill: rgb(0, 0, 0); fill-opacity: 1; white-space: pre;">0.1</text></g></g></g><g class="trace scatter tracec48d2b" style="stroke-miterlimit: 2; opacity: 1;"><g class="fills"/><g class="errorbars"/><g class="lines"/><g class="points"/><g class="text"/></g></g></g></g><path class="xlines-above crisp" d="M79,400.5H490" style="fill: none; stroke-width: 1px; stroke: rgb(0, 0, 0); stroke-opacity: 1;"/><path class="ylines-above crisp" d="M79.5,100V400" style="fill: none; stroke-width: 1px; stroke: rgb(0, 0, 0); stroke-opacity: 1;"/><g class="overlines-above"/><g class="xaxislayer-above"><path class="xtick ticks crisp" d="M0,401v5" transform="translate(82.56,0)" style="stroke: rgb(0, 0, 0); stroke-opacity: 1; stroke-width: 1px;"/><path class="xtick ticks crisp" d="M0,401v5" transform="translate(156.8,0)" style="stroke: rgb(0, 0, 0); stroke-opacity: 1; stroke-width: 1px;"/><path class="xtick ticks crisp" d="M0,401v5" transform="translate(231.03,0)" style="stroke: rgb(0, 0, 0); stroke-opacity: 1; stroke-width: 1px;"/><path class="xtick ticks crisp" d="M0,401v5" transform="translate(305.27,0)" style="stroke: rgb(0, 0, 0); stroke-opacity: 1; stroke-width: 1px;"/><path class="xtick ticks crisp" d="M0,401v5" transform="translate(379.5,0)" style="stroke: rgb(0, 0, 0); stroke-opacity: 1; stroke-width: 1px;"/><path class="xtick ticks crisp" d="M0,401v5" transform="translate(453.73,0)" style="stroke: rgb(0, 0, 0); stroke-opacity: 1; stroke-width: 1px;"/><g class="xtick"><text text-anchor="middle" x="0" y="420.4" transform="translate(82.56,0)" style="font-family: 'Times New Roman'; font-size: 12px; fill: rgb(0, 0, 0); fill-opacity: 1; white-space: pre; opacity: 1;">0.0</text></g><g class="xtick"><text text-anchor="middle" x="0" y="420.4" style="font-family: 'Times New Roman'; font-size: 12px; fill: rgb(0, 0, 0); fill-opacity: 1; white-space: pre; opacity: 1;" transform="translate(156.8,0)">20.0</text></g><g class="xtick"><text text-anchor="middle" x="0" y="420.4" style="font-family: 'Times New Roman'; font-size: 12px; fill: rgb(0, 0, 0); fill-opacity: 1; white-space: pre; opacity: 1;" transform="translate(231.03,0)">40.0</text></g><g class="xtick"><text text-anchor="middle" x="0" y="420.4" style="font-family: 'Times New Roman'; font-size: 12px; fill: rgb(0, 0, 0); fill-opacity: 1; white-space: pre; opacity: 1;" transform="translate(305.27,0)">60.0</text></g><g class="xtick"><text text-anchor="middle" x="0" y="420.4" style="font-family: 'Times New Roman'; font-size: 12px; fill: rgb(0, 0, 0); fill-opacity: 1; white-space: pre; opacity: 1;" transform="translate(379.5,0)">80.0</text></g><g class="xtick"><text text-anchor="middle" x="0" y="420.4" style="font-family: 'Times New Roman'; font-size: 12px; fill: rgb(0, 0, 0); fill-opacity: 1; white-space: pre; opacity: 1;" transform="translate(453.73,0)">100.0</text></g></g><g class="yaxislayer-above"><path class="ytick ticks crisp" d="M79,0h-5" transform="translate(0,365.58)" style="stroke: rgb(0, 0, 0); stroke-opacity: 1; stroke-width: 1px;"/><path class="ytick ticks crisp" d="M79,0h-5" transform="translate(0,316.98)" style="stroke: rgb(0, 0, 0); stroke-opacity: 1; stroke-width: 1px;"/><path class="ytick ticks crisp" d="M79,0h-5" transform="translate(0,268.37)" style="stroke: rgb(0, 0, 0); stroke-opacity: 1; stroke-width: 1px;"/><path class="ytick ticks crisp" d="M79,0h-5" transform="translate(0,219.76999999999998)" style="stroke: rgb(0, 0, 0); stroke-opacity: 1; stroke-width: 1px;"/><path class="ytick ticks crisp" d="M79,0h-5" transform="translate(0,171.17000000000002)" style="stroke: rgb(0, 0, 0); stroke-opacity: 1; stroke-width: 1px;"/><path class="ytick ticks crisp" d="M79,0h-5" transform="translate(0,122.56)" style="stroke: rgb(0, 0, 0); stroke-opacity: 1; stroke-width: 1px;"/><g class="ytick"><text text-anchor="end" x="71.6" y="4.199999999999999" transform="translate(0,365.58)" style="font-family: 'Times New Roman'; font-size: 12px; fill: rgb(0, 0, 0); fill-opacity: 1; white-space: pre; opacity: 1;">50</text></g><g class="ytick"><text text-anchor="end" x="71.6" y="4.199999999999999" style="font-family: 'Times New Roman'; font-size: 12px; fill: rgb(0, 0, 0); fill-opacity: 1; white-space: pre; opacity: 1;" transform="translate(0,316.98)">60</text></g><g class="ytick"><text text-anchor="end" x="71.6" y="4.199999999999999" style="font-family: 'Times New Roman'; font-size: 12px; fill: rgb(0, 0, 0); fill-opacity: 1; white-space: pre; opacity: 1;" transform="translate(0,268.37)">70</text></g><g class="ytick"><text text-anchor="end" x="71.6" y="4.199999999999999" style="font-family: 'Times New Roman'; font-size: 12px; fill: rgb(0, 0, 0); fill-opacity: 1; white-space: pre; opacity: 1;" transform="translate(0,219.76999999999998)">80</text></g><g class="ytick"><text text-anchor="end" x="71.6" y="4.199999999999999" style="font-family: 'Times New Roman'; font-size: 12px; fill: rgb(0, 0, 0); fill-opacity: 1; white-space: pre; opacity: 1;" transform="translate(0,171.17000000000002)">90</text></g><g class="ytick"><text text-anchor="end" x="71.6" y="4.199999999999999" style="font-family: 'Times New Roman'; font-size: 12px; fill: rgb(0, 0, 0); fill-opacity: 1; white-space: pre; opacity: 1;" transform="translate(0,122.56)">100</text></g></g><g class="overaxes-above"/></g></g><g class="polarlayer"/><g class="smithlayer"/><g class="ternarylayer"/><g class="geolayer"/><g class="funnelarealayer"/><g class="pielayer"/><g class="iciclelayer"/><g class="treemaplayer"/><g class="sunburstlayer"/><g class="glimages"/><defs id="topdefs-f64fb8"><g class="clips"/><clipPath id="legendf64fb8"><rect width="126" height="61" x="1" y="1"/></clipPath></defs><g class="layer-above"><g class="imagelayer"/><g class="shapelayer"/></g><g class="infolayer"><g class="legend" pointer-events="all" transform="translate(498.2,100)"><rect class="bg" shape-rendering="crispEdges" style="stroke: rgb(0, 0, 0); stroke-opacity: 1; fill: rgb(255, 255, 255); fill-opacity: 1; stroke-width: 1px;" width="127" height="62" x="0.5" y="0.5"/><g class="scrollbox" transform="" clip-path="url(#legendf64fb8)"><text class="legendtitletext" text-anchor="start" x="3" y="16.6" style="font-family: 'Times New Roman'; font-size: 12px; fill: rgb(0, 0, 0); fill-opacity: 1; white-space: pre;"><tspan class="line" dy="0em" x="3" y="16.6">Number of hospital stays</tspan><tspan class="line" dy="1.3em" x="3" y="16.6">(days/year)</tspan></text><g class="groups"><g class="traces" transform="translate(1,46.7)" style="opacity: 1;"><text class="legendtext" text-anchor="start" x="40" y="4.680000000000001" style="font-family: 'Times New Roman'; font-size: 12px; fill: rgb(0, 0, 0); fill-opacity: 1; white-space: pre;">0.1</text><g class="layers" style="opacity: 1;"><g class="legendfill"/><g class="legendlines"/><g class="legendsymbols"><g class="legendpoints"><path class="scatterpts" transform="translate(20,0)" d="M8,0A8,8 0 1,1 0,-8A8,8 0 0,1 8,0Z" style="opacity: 0.7; stroke-width: 0.5px; fill: rgb(220, 57, 18); fill-opacity: 1; stroke: rgb(0, 0, 0); stroke-opacity: 1;"/></g></g></g><rect class="legendtoggle" x="0" y="-9.5" width="55" height="19" style="fill: rgb(0, 0, 0); fill-opacity: 0;"/></g></g></g><rect class="scrollbar" rx="20" ry="3" width="0" height="0" style="fill: rgb(128, 139, 164); fill-opacity: 1;" x="0" y="0"/></g><g class="g-gtitle"><text class="gtitle" x="320" y="50" text-anchor="middle" dy="0em" style="opacity: 1; font-family: 'Times New Roman'; font-size: 16px; fill: rgb(0, 0, 0); fill-opacity: 1; white-space: pre;">the Comparison of Healthcare and Health</text></g><g class="g-xtitle"><text class="xtitle" x="285" y="447.70625" text-anchor="middle" style="opacity: 1; font-family: 'Times New Roman'; font-size: 14px; fill: rgb(0, 0, 0); fill-opacity: 1; white-space: pre;">Medical costs (1e3 $)</text></g><g class="g-ytitle"><text class="ytitle" transform="rotate(-90,34.19375,250)" x="34.19375" y="250" text-anchor="middle" style="opacity: 1; font-family: 'Times New Roman'; font-size: 14px; fill: rgb(0, 0, 0); fill-opacity: 1; white-space: pre;">Recovery rate (%)</text></g></g></svg>