<svg class="main-svg" xmlns="http://www.w3.org/2000/svg" xmlns:xlink="http://www.w3.org/1999/xlink" width="640" height="480" style="" viewBox="0 0 640 480"><rect x="0" y="0" width="640" height="480" style="fill: rgb(255, 255, 255); fill-opacity: 1;"/><defs id="defs-221191"><g class="clips"><clipPath id="clip221191xyplot" class="plotclip"><rect width="410" height="300"/></clipPath><clipPath class="axesclip" id="clip221191x"><rect x="80" y="0" width="410" height="480"/></clipPath><clipPath class="axesclip" id="clip221191y"><rect x="0" y="100" width="640" height="300"/></clipPath><clipPath class="axesclip" id="clip221191xy"><rect x="80" y="100" width="410" height="300"/></clipPath></g><g class="gradients"/><g class="patterns"/></defs><g class="bglayer"/><g class="layer-below"><g class="imagelayer"/><g class="shapelayer"/></g><g class="cartesianlayer"><g class="subplot xy"><g class="layer-subplot"><g class="shapelayer"/><g class="imagelayer"/></g><g class="minor-gridlayer"><g class="x"/><g class="y"/></g><g class="gridlayer"><g class="x"/><g class="y"/></g><g class="zerolinelayer"/><g class="layer-between"><g class="shapelayer"/><g class="imagelayer"/></g><path class="xlines-below"/><path class="ylines-below"/><g class="overlines-below"/><g class="xaxislayer-below"/><g class="yaxislayer-below"/><g class="overaxes-below"/><g class="overplot"><g class="xy" transform="translate(80,100)" clip-path="url(#clip221191xyplot)"><g class="scatterlayer mlayer"><g class="trace scatter tracec78dfb" style="stroke-miterlimit: 2; opacity: 1;"><g class="fills"/><g class="errorbars"/><g class="lines"/><g class="points"><path class="point plotly-customdata" transform="translate(47.31,241.97)" d="M20,0A20,20 0 1,1 0,-20A20,20 0 0,1 20,0Z" style="opacity: 0.7; stroke-width: 0.5px; fill: rgb(221, 68, 119); fill-opacity: 1; stroke: rgb(0, 0, 0); stroke-opacity: 1;"/><path class="point plotly-customdata" transform="translate(56.46,188.39)" d="M19.29,0A19.29,19.29 0 1,1 0,-19.29A19.29,19.29 0 0,1 19.29,0Z" style="opacity: 0.7; stroke-width: 0.5px; fill: rgb(221, 68, 119); fill-opacity: 1; stroke: rgb(0, 0, 0); stroke-opacity: 1;"/><path class="point plotly-customdata" transform="translate(207.11,98.33)" d="M18.57,0A18.57,18.57 0 1,1 0,-18.57A18.57,18.57 0 0,1 18.57,0Z" style="opacity: 0.7; stroke-width: 0.5px; fill: rgb(221, 68, 119); fill-opacity: 1; stroke: rgb(0, 0, 0); stroke-opacity: 1;"/><path class="point plotly-customdata" transform="translate(272.72,34.62)" d="M17.86,0A17.86,17.86 0 1,1 0,-17.86A17.86,17.86 0 0,1 17.86,0Z" style="opacity: 0.7; stroke-width: 0.5px; fill: rgb(221, 68, 119); fill-opacity: 1; stroke: rgb(0, 0, 0); stroke-opacity: 1;"/><path class="point plotly-customdata" transform="translate(56.53,197.17)" d="M17.14,0A17.14,17.14 0 1,1 0,-17.14A17.14,17.14 0 0,1 17.14,0Z" style="opacity: 0.7; stroke-width: 0.5px; fill: rgb(221, 68, 119); fill-opacity: 1; stroke: rgb(0, 0, 0); stroke-opacity: 1;"/><path class="point plotly-customdata" transform="translate(340.02,221.26)" d="M16.43,0A16.43,16.43 0 1,1 0,-16.43A16.43,16.43 0 0,1 16.43,0Z" style="opacity: 0.7; stroke-width: 0.5px; fill: rgb(221, 68, 119); fill-opacity: 1; stroke: rgb(0, 0, 0); stroke-opacity: 1;"/><path class="point plotly-customdata" transform="translate(124.39,72.21)" d="M15.71,0A15.71,15.71 0 1,1 0,-15.71A15.71,15.71 0 0,1 15.71,0Z" style="opacity: 0.7; stroke-width: 0.5px; fill: rgb(221, 68, 119); fill-opacity: 1; stroke: rgb(0, 0, 0); stroke-opacity: 1;"/><path class="point plotly-customdata" transform="translate(56.25,219.01)" d="M15,0A15,15 0 1,1 0,-15A15,15 0 0,1 15,0Z" style="opacity: 0.7; stroke-width: 0.5px; fill: rgb(221, 68, 119); fill-opacity: 1; stroke: rgb(0, 0, 0); stroke-opacity: 1;"/><path class="point plotly-customdata" transform="translate(282.79,137.73)" d="M14.29,0A14.29,14.29 0 1,1 0,-14.29A14.29,14.29 0 0,1 14.29,0Z" style="opacity: 0.7; stroke-width: 0.5px; fill: rgb(221, 68, 119); fill-opacity: 1; stroke: rgb(0, 0, 0); stroke-opacity: 1;"/><path class="point plotly-customdata" transform="translate(64.7,218.78)" d="M13.57,0A13.57,13.57 0 1,1 0,-13.57A13.57,13.57 0 0,1 13.57,0Z" style="opacity: 0.7; stroke-width: 0.5px; fill: rgb(221, 68, 119); fill-opacity: 1; stroke: rgb(0, 0, 0); stroke-opacity: 1;"/><path class="point plotly-customdata" transform="translate(90.53,110.49)" d="M12.86,0A12.86,12.86 0 1,1 0,-12.86A12.86,12.86 0 0,1 12.86,0Z" style="opacity: 0.7; stroke-width: 0.5px; fill: rgb(221, 68, 119); fill-opacity: 1; stroke: rgb(0, 0, 0); stroke-opacity: 1;"/><path class="point plotly-customdata" transform="translate(54.56,195.37)" d="M12.14,0A12.14,12.14 0 1,1 0,-12.14A12.14,12.14 0 0,1 12.14,0Z" style="opacity: 0.7; stroke-width: 0.5px; fill: rgb(221, 68, 119); fill-opacity: 1; stroke: rgb(0, 0, 0); stroke-opacity: 1;"/><path class="point plotly-customdata" transform="translate(362.69,85.27)" d="M11.43,0A11.43,11.43 0 1,1 0,-11.43A11.43,11.43 0 0,1 11.43,0Z" style="opacity: 0.7; stroke-width: 0.5px; fill: rgb(221, 68, 119); fill-opacity: 1; stroke: rgb(0, 0, 0); stroke-opacity: 1;"/><path class="point plotly-customdata" transform="translate(66.81,265.38)" d="M10.71,0A10.71,10.71 0 1,1 0,-10.71A10.71,10.71 0 0,1 10.71,0Z" style="opacity: 0.7; stroke-width: 0.5px; fill: rgb(221, 68, 119); fill-opacity: 1; stroke: rgb(0, 0, 0); stroke-opacity: 1;"/><path class="point plotly-customdata" transform="translate(57.8,224.18)" d="M10,0A10,10 0 1,1 0,-10A10,10 0 0,1 10,0Z" style="opacity: 0.7; stroke-width: 0.5px; fill: rgb(221, 68, 119); fill-opacity: 1; stroke: rgb(0, 0, 0); stroke-opacity: 1;"/></g><g class="text"/></g><g class="trace scatter trace1bfb00" style="stroke-miterlimit: 2; opacity: 1;"><g class="fills"/><g class="errorbars"/><g class="lines"/><g class="points"/><g class="text"><g class="textpoint" transform="translate(0,2)"><text x="47.31" y="241.97" text-anchor="middle" style="font-family: 'Times New Roman'; font-size: 8px; fill: rgb(0, 0, 0); fill-opacity: 1; white-space: pre;">10.0k</text></g><g class="textpoint" transform="translate(0,2)"><text x="56.46" y="188.39" text-anchor="middle" style="font-family: 'Times New Roman'; font-size: 8px; fill: rgb(0, 0, 0); fill-opacity: 1; white-space: pre;">9.3k</text></g><g class="textpoint" transform="translate(0,2)"><text x="207.11" y="98.33" text-anchor="middle" style="font-family: 'Times New Roman'; font-size: 8px; fill: rgb(0, 0, 0); fill-opacity: 1; white-space: pre;">8.6k</text></g><g class="textpoint" transform="translate(0,2)"><text x="272.72" y="34.62" text-anchor="middle" style="font-family: 'Times New Roman'; font-size: 8px; fill: rgb(0, 0, 0); fill-opacity: 1; white-space: pre;">7.9k</text></g><g class="textpoint" transform="translate(0,2)"><text x="56.53" y="197.17" text-anchor="middle" style="font-family: 'Times New Roman'; font-size: 8px; fill: rgb(0, 0, 0); fill-opacity: 1; white-space: pre;">7.2k</text></g><g class="textpoint" transform="translate(0,2)"><text x="340.02" y="221.26" text-anchor="middle" style="font-family: 'Times New Roman'; font-size: 8px; fill: rgb(0, 0, 0); fill-opacity: 1; white-space: pre;">6.5k</text></g><g class="textpoint" transform="translate(0,2)"><text x="124.39" y="72.21" text-anchor="middle" style="font-family: 'Times New Roman'; font-size: 8px; fill: rgb(0, 0, 0); fill-opacity: 1; white-space: pre;">5.8k</text></g><g class="textpoint" transform="translate(0,2)"><text x="56.25" y="219.01" text-anchor="middle" style="font-family: 'Times New Roman'; font-size: 8px; fill: rgb(0, 0, 0); fill-opacity: 1; white-space: pre;">5.0k</text></g><g class="textpoint" transform="translate(0,2)"><text x="282.79" y="137.73" text-anchor="middle" style="font-family: 'Times New Roman'; font-size: 8px; fill: rgb(0, 0, 0); fill-opacity: 1; white-space: pre;">4.3k</text></g><g class="textpoint" transform="translate(0,2)"><text x="64.7" y="218.78" text-anchor="middle" style="font-family: 'Times New Roman'; font-size: 8px; fill: rgb(0, 0, 0); fill-opacity: 1; white-space: pre;">3.6k</text></g><g class="textpoint" transform="translate(0,2)"><text x="90.53" y="110.49" text-anchor="middle" style="font-family: 'Times New Roman'; font-size: 8px; fill: rgb(0, 0, 0); fill-opacity: 1; white-space: pre;">2.9k</text></g><g class="textpoint" transform="translate(0,2)"><text x="54.56" y="195.37" text-anchor="middle" style="font-family: 'Times New Roman'; font-size: 8px; fill: rgb(0, 0, 0); fill-opacity: 1; white-space: pre;">2.2k</text></g><g class="textpoint" transform="translate(0,2)"><text x="362.69" y="85.27" text-anchor="middle" style="font-family: 'Times New Roman'; font-size: 8px; fill: rgb(0, 0, 0); fill-opacity: 1; white-space: pre;">1.5k</text></g><g class="textpoint" transform="translate(0,2)"><text x="66.81" y="265.38" text-anchor="middle" style="font-family: 'Times New Roman'; font-size: 8px; fill: rgb(0, 0, 0); fill-opacity: 1; white-space: pre;">807.14</text></g><g class="textpoint" transform="translate(0,2)"><text x="57.8" y="224.18" text-anchor="middle" style="font-family: 'Times New Roman'; font-size: 8px; fill: rgb(0, 0, 0); fill-opacity: 1; white-space: pre;">100</text></g></g></g><g class="trace scatter tracecb8af8" style="stroke-miterlimit: 2; opacity: 1;"><g class="fills"/><g class="errorbars"/><g class="lines"/><g class="points"/><g class="text"/></g></g></g></g><path class="xlines-above crisp" d="M79,400.5H490" style="fill: none; stroke-width: 1px; stroke: rgb(0, 0, 0); stroke-opacity: 1;"/><path class="ylines-above crisp" d="M79.5,100V400" style="fill: none; stroke-width: 1px; stroke: rgb(0, 0, 0); stroke-opacity: 1;"/><g class="overlines-above"/><g class="xaxislayer-above"><path class="xtick ticks crisp" d="M0,401v5" transform="translate(95.77,0)" style="stroke: rgb(0, 0, 0); stroke-opacity: 1; stroke-width: 1px;"/><path class="xtick ticks crisp" d="M0,401v5" transform="translate(166.17000000000002,0)" style="stroke: rgb(0, 0, 0); stroke-opacity: 1; stroke-width: 1px;"/><path class="xtick ticks crisp" d="M0,401v5" transform="translate(236.57,0)" style="stroke: rgb(0, 0, 0); stroke-opacity: 1; stroke-width: 1px;"/><path class="xtick ticks crisp" d="M0,401v5" transform="translate(306.96000000000004,0)" style="stroke: rgb(0, 0, 0); stroke-opacity: 1; stroke-width: 1px;"/><path class="xtick ticks crisp" d="M0,401v5" transform="translate(377.36,0)" style="stroke: rgb(0, 0, 0); stroke-opacity: 1; stroke-width: 1px;"/><path class="xtick ticks crisp" d="M0,401v5" transform="translate(447.76,0)" style="stroke: rgb(0, 0, 0); stroke-opacity: 1; stroke-width: 1px;"/><g class="xtick"><text text-anchor="middle" x="0" y="420.4" transform="translate(95.77,0)" style="font-family: 'Times New Roman'; font-size: 12px; fill: rgb(0, 0, 0); fill-opacity: 1; white-space: pre; opacity: 1;">0.0</text></g><g class="xtick"><text text-anchor="middle" x="0" y="420.4" style="font-family: 'Times New Roman'; font-size: 12px; fill: rgb(0, 0, 0); fill-opacity: 1; white-space: pre; opacity: 1;" transform="translate(166.17000000000002,0)">10.0</text></g><g class="xtick"><text text-anchor="middle" x="0" y="420.4" style="font-family: 'Times New Roman'; font-size: 12px; fill: rgb(0, 0, 0); fill-opacity: 1; white-space: pre; opacity: 1;" transform="translate(236.57,0)">20.0</text></g><g class="xtick"><text text-anchor="middle" x="0" y="420.4" style="font-family: 'Times New Roman'; font-size: 12px; fill: rgb(0, 0, 0); fill-opacity: 1; white-space: pre; opacity: 1;" transform="translate(306.96000000000004,0)">30.0</text></g><g class="xtick"><text text-anchor="middle" x="0" y="420.4" style="font-family: 'Times New Roman'; font-size: 12px; fill: rgb(0, 0, 0); fill-opacity: 1; white-space: pre; opacity: 1;" transform="translate(377.36,0)">40.0</text></g><g class="xtick"><text text-anchor="middle" x="0" y="420.4" style="font-family: 'Times New Roman'; font-size: 12px; fill: rgb(0, 0, 0); fill-opacity: 1; white-space: pre; opacity: 1;" transform="translate(447.76,0)">50.0</text></g></g><g class="yaxislayer-above"><path class="ytick ticks crisp" d="M79,0h-5" transform="translate(0,365.38)" style="stroke: rgb(0, 0, 0); stroke-opacity: 1; stroke-width: 1px;"/><path class="ytick ticks crisp" d="M79,0h-5" transform="translate(0,320.36)" style="stroke: rgb(0, 0, 0); stroke-opacity: 1; stroke-width: 1px;"/><path class="ytick ticks crisp" d="M79,0h-5" transform="translate(0,275.33000000000004)" style="stroke: rgb(0, 0, 0); stroke-opacity: 1; stroke-width: 1px;"/><path class="ytick ticks crisp" d="M79,0h-5" transform="translate(0,230.3)" style="stroke: rgb(0, 0, 0); stroke-opacity: 1; stroke-width: 1px;"/><path class="ytick ticks crisp" d="M79,0h-5" transform="translate(0,185.26999999999998)" style="stroke: rgb(0, 0, 0); stroke-opacity: 1; stroke-width: 1px;"/><path class="ytick ticks crisp" d="M79,0h-5" transform="translate(0,140.24)" style="stroke: rgb(0, 0, 0); stroke-opacity: 1; stroke-width: 1px;"/><g class="ytick"><text text-anchor="end" x="71.6" y="4.199999999999999" transform="translate(0,365.38)" style="font-family: 'Times New Roman'; font-size: 12px; fill: rgb(0, 0, 0); fill-opacity: 1; white-space: pre; opacity: 1;">90</text></g><g class="ytick"><text text-anchor="end" x="71.6" y="4.199999999999999" style="font-family: 'Times New Roman'; font-size: 12px; fill: rgb(0, 0, 0); fill-opacity: 1; white-space: pre; opacity: 1;" transform="translate(0,320.36)">92</text></g><g class="ytick"><text text-anchor="end" x="71.6" y="4.199999999999999" style="font-family: 'Times New Roman'; font-size: 12px; fill: rgb(0, 0, 0); fill-opacity: 1; white-space: pre; opacity: 1;" transform="translate(0,275.33000000000004)">94</text></g><g class="ytick"><text text-anchor="end" x="71.6" y="4.199999999999999" style="font-family: 'Times New Roman'; font-size: 12px; fill: rgb(0, 0, 0); fill-opacity: 1; white-space: pre; opacity: 1;" transform="translate(0,230.3)">96</text></g><g class="ytick"><text text-anchor="end" x="71.6" y="4.199999999999999" style="font-family: 'Times New Roman'; font-size: 12px; fill: rgb(0, 0, 0); fill-opacity: 1; white-space: pre; opacity: 1;" transform="translate(0,185.26999999999998)">98</text></g><g class="ytick"><text text-anchor="end" x="71.6" y="4.199999999999999" style="font-family: 'Times New Roman'; font-size: 12px; fill: rgb(0, 0, 0); fill-opacity: 1; white-space: pre; opacity: 1;" transform="translate(0,140.24)">100</text></g></g><g class="overaxes-above"/></g></g><g class="polarlayer"/><g class="smithlayer"/><g class="ternarylayer"/><g class="geolayer"/><g class="funnelarealayer"/><g class="pielayer"/><g class="iciclelayer"/><g class="treemaplayer"/><g class="sunburstlayer"/><g class="glimages"/><defs id="topdefs-221191"><g class="clips"/><clipPath id="legend221191"><rect width="80" height="76" x="1" y="1"/></clipPath></defs><g class="layer-above"><g class="imagelayer"/><g class="shapelayer"/></g><g class="infolayer"><g class="legend" pointer-events="all" transform="translate(498.2,100)"><rect class="bg" shape-rendering="crispEdges" style="stroke: rgb(0, 0, 0); stroke-opacity: 1; fill: rgb(255, 255, 255); fill-opacity: 1; stroke-width: 1px;" width="81" height="77" x="0.5" y="0.5"/><g class="scrollbox" transform="" clip-path="url(#legend221191)"><text class="legendtitletext" text-anchor="start" x="3" y="16.6" style="font-family: 'Times New Roman'; font-size: 12px; fill: rgb(0, 0, 0); fill-opacity: 1; white-space: pre;"><tspan class="line" dy="0em" x="3" y="16.6">Average energy</tspan><tspan class="line" dy="1.3em" x="3" y="16.6">consumption</tspan><tspan class="line" dy="2.6em" x="3" y="16.6">(kWh/month)</tspan></text><g class="groups"><g class="traces" transform="translate(1,62.300000000000004)" style="opacity: 1;"><text class="legendtext" text-anchor="start" x="40" y="4.680000000000001" style="font-family: 'Times New Roman'; font-size: 12px; fill: rgb(0, 0, 0); fill-opacity: 1; white-space: pre;">100</text><g class="layers" style="opacity: 1;"><g class="legendfill"/><g class="legendlines"/><g class="legendsymbols"><g class="legendpoints"><path class="scatterpts" transform="translate(20,0)" d="M8,0A8,8 0 1,1 0,-8A8,8 0 0,1 8,0Z" style="opacity: 0.7; stroke-width: 0.5px; fill: rgb(221, 68, 119); fill-opacity: 1; stroke: rgb(0, 0, 0); stroke-opacity: 1;"/></g></g></g><rect class="legendtoggle" x="0" y="-9.5" width="58" height="19" style="fill: rgb(0, 0, 0); fill-opacity: 0;"/></g></g></g><rect class="scrollbar" rx="20" ry="3" width="0" height="0" x="0" y="0" style="fill: rgb(128, 139, 164); fill-opacity: 1;"/></g><g class="g-gtitle"><text class="gtitle" x="320" y="50" text-anchor="middle" dy="0em" style="opacity: 1; font-family: 'Times New Roman'; font-size: 16px; fill: rgb(0, 0, 0); fill-opacity: 1; white-space: pre;">the Pattern of Energy and Utilities</text></g><g class="g-xtitle"><text class="xtitle" x="285" y="447.70625" text-anchor="middle" style="opacity: 1; font-family: 'Times New Roman'; font-size: 14px; fill: rgb(0, 0, 0); fill-opacity: 1; white-space: pre;">Infrastructure age (years)</text></g><g class="g-ytitle"><text class="ytitle" transform="rotate(-90,34.19375,250)" x="34.19375" y="250" text-anchor="middle" style="opacity: 1; font-family: 'Times New Roman'; font-size: 14px; fill: rgb(0, 0, 0); fill-opacity: 1; white-space: pre;">Reliability rate (%)</text></g></g></svg>