<?xml version="1.0" encoding="utf-8" standalone="no"?>
<!DOCTYPE svg PUBLIC "-//W3C//DTD SVG 1.1//EN"
  "http://www.w3.org/Graphics/SVG/1.1/DTD/svg11.dtd">
<svg xmlns:xlink="http://www.w3.org/1999/xlink" width="569.280427pt" height="363.785279pt" viewBox="0 0 569.280427 363.785279" xmlns="http://www.w3.org/2000/svg" version="1.1">
 <metadata>
  <rdf:RDF xmlns:dc="http://purl.org/dc/elements/1.1/" xmlns:cc="http://creativecommons.org/ns#" xmlns:rdf="http://www.w3.org/1999/02/22-rdf-syntax-ns#">
   <cc:Work>
    <dc:type rdf:resource="http://purl.org/dc/dcmitype/StillImage"/>
    <dc:date>2025-05-30T23:33:08.232266</dc:date>
    <dc:format>image/svg+xml</dc:format>
    <dc:creator>
     <cc:Agent>
      <dc:title>Matplotlib v3.10.3, https://matplotlib.org/</dc:title>
     </cc:Agent>
    </dc:creator>
   </cc:Work>
  </rdf:RDF>
 </metadata>
 <defs>
  <style type="text/css">*{stroke-linejoin: round; stroke-linecap: butt}</style>
 </defs>
 <g id="figure_1">
  <g id="patch_1">
   <path d="M 0 363.785279 
L 569.280427 363.785279 
L 569.280427 0 
L 0 0 
z
" style="fill: #ffffff"/>
  </g>
  <g id="axes_1">
   <g id="patch_2">
    <path d="M 10.091927 314.12125 
L 398.891927 314.12125 
L 398.891927 36.92125 
L 10.091927 36.92125 
z
" style="fill: #ffffff"/>
   </g>
   <g id="FillBetweenPolyCollection_1">
    <path d="M 27.764654 176.150109 
L 27.764654 198.137668 
L 29.243543 199.060761 
L 30.722433 199.843776 
L 32.201322 200.49681 
L 33.680211 201.029962 
L 35.1591 201.45333 
L 36.63799 201.77701 
L 38.116879 202.011102 
L 39.595768 202.165703 
L 41.074658 202.25091 
L 42.553547 202.276823 
L 44.032436 202.253538 
L 45.511326 202.191153 
L 46.990215 202.099766 
L 48.469104 201.989476 
L 49.947994 201.870379 
L 51.426883 201.752575 
L 52.905772 201.64616 
L 54.384662 201.561232 
L 55.863551 201.50789 
L 57.34244 201.496232 
L 58.821329 201.536296 
L 60.300219 201.628177 
L 61.779108 201.750826 
L 63.257997 201.880492 
L 64.736887 201.993423 
L 66.215776 202.065868 
L 67.694665 202.074075 
L 69.173555 201.994293 
L 70.652444 201.802768 
L 72.131333 201.475751 
L 73.610223 200.989488 
L 75.089112 200.327483 
L 76.568001 199.52257 
L 78.046891 198.628129 
L 79.52578 197.697609 
L 81.004669 196.784455 
L 82.483558 195.942117 
L 83.962448 195.224041 
L 85.441337 194.683675 
L 86.920226 194.374467 
L 88.399116 194.349863 
L 89.878005 194.661733 
L 91.356894 195.311515 
L 92.835784 196.240855 
L 94.314673 197.387928 
L 95.793562 198.690909 
L 97.272452 200.087975 
L 98.751341 201.517301 
L 100.23023 202.917062 
L 101.70912 204.225435 
L 103.188009 205.380595 
L 104.666898 206.320719 
L 106.145787 207.004198 
L 107.624677 207.460408 
L 109.103566 207.7343 
L 110.582455 207.870824 
L 112.061345 207.914931 
L 113.540234 207.911571 
L 115.019123 207.905695 
L 116.498013 207.942254 
L 117.976902 208.066197 
L 119.455791 208.322475 
L 120.934681 208.75159 
L 122.41357 209.339503 
L 123.892459 210.035601 
L 125.371348 210.788597 
L 126.850238 211.547205 
L 128.329127 212.260138 
L 129.808016 212.876107 
L 131.286906 213.343827 
L 132.765795 213.61201 
L 134.244684 213.629368 
L 135.723574 213.344986 
L 137.202463 212.748231 
L 138.681352 211.904416 
L 140.160242 210.887267 
L 141.639131 209.770512 
L 143.11802 208.627876 
L 144.59691 207.533085 
L 146.075799 206.559866 
L 147.554688 205.781945 
L 149.033577 205.273049 
L 150.512467 205.106903 
L 151.991356 205.341815 
L 153.470245 205.944521 
L 154.949135 206.848089 
L 156.428024 207.985535 
L 157.906913 209.289875 
L 159.385803 210.694125 
L 160.864692 212.1313 
L 162.343581 213.534417 
L 163.822471 214.836491 
L 165.30136 215.970537 
L 166.780249 216.871344 
L 168.259139 217.518922 
L 169.738028 217.941146 
L 171.216917 218.168189 
L 172.695806 218.230226 
L 174.174696 218.157431 
L 175.653585 217.979977 
L 177.132474 217.728039 
L 178.611364 217.43179 
L 180.090253 217.121405 
L 181.569142 216.827054 
L 183.048032 216.574095 
L 184.526921 216.373017 
L 186.00581 216.231449 
L 187.4847 216.157021 
L 188.963589 216.157361 
L 190.442478 216.240101 
L 191.921368 216.412868 
L 193.400257 216.683293 
L 194.879146 217.059005 
L 196.358035 217.547634 
L 197.836925 218.155181 
L 199.315814 218.87059 
L 200.794703 219.672621 
L 202.273593 220.539899 
L 203.752482 221.451048 
L 205.231371 222.384692 
L 206.710261 223.319455 
L 208.18915 224.233962 
L 209.668039 225.106837 
L 211.146929 225.916705 
L 212.625818 226.642344 
L 214.104707 227.274092 
L 215.583596 227.821655 
L 217.062486 228.296583 
L 218.541375 228.71043 
L 220.020264 229.074746 
L 221.499154 229.401084 
L 222.978043 229.700996 
L 224.456932 229.986033 
L 225.935822 230.267747 
L 227.414711 230.55769 
L 228.8936 230.863481 
L 230.37249 231.172298 
L 231.851379 231.464696 
L 233.330268 231.721226 
L 234.809158 231.922442 
L 236.288047 232.048896 
L 237.766936 232.081139 
L 239.245825 231.999725 
L 240.724715 231.785204 
L 242.203604 231.418129 
L 243.682493 230.880744 
L 245.161383 230.19048 
L 246.640272 229.398019 
L 248.119161 228.555344 
L 249.598051 227.714438 
L 251.07694 226.927285 
L 252.555829 226.245869 
L 254.034719 225.722172 
L 255.513608 225.408179 
L 256.992497 225.355872 
L 258.471387 225.6172 
L 259.950276 226.220818 
L 261.429165 227.132038 
L 262.908054 228.305507 
L 264.386944 229.695868 
L 265.865833 231.257767 
L 267.344722 232.94585 
L 268.823612 234.714761 
L 270.302501 236.519147 
L 271.78139 238.313651 
L 273.26028 240.052919 
L 274.739169 241.69448 
L 276.218058 243.221884 
L 277.696948 244.632487 
L 279.175837 245.923769 
L 280.654726 247.093213 
L 282.133616 248.1383 
L 283.612505 249.056512 
L 285.091394 249.845332 
L 286.570283 250.502239 
L 288.049173 251.024718 
L 289.528062 251.410455 
L 291.006951 251.668352 
L 292.485841 251.824031 
L 293.96473 251.904478 
L 295.443619 251.936679 
L 296.922509 251.94762 
L 298.401398 251.964286 
L 299.880287 252.013664 
L 301.359177 252.122739 
L 302.838066 252.318498 
L 304.316955 252.627927 
L 305.795845 253.070457 
L 307.274734 253.631094 
L 308.753623 254.285041 
L 310.232512 255.007498 
L 311.711402 255.773666 
L 313.190291 256.558747 
L 314.66918 257.337941 
L 316.14807 258.086451 
L 317.626959 258.779477 
L 319.105848 259.392219 
L 320.584738 259.901246 
L 322.063627 260.306646 
L 323.542516 260.628352 
L 325.021406 260.886917 
L 326.500295 261.102892 
L 327.979184 261.296831 
L 329.458073 261.489285 
L 330.936963 261.700809 
L 332.415852 261.951954 
L 333.894741 262.263272 
L 335.373631 262.655291 
L 336.85252 263.140517 
L 338.331409 263.712197 
L 339.810299 264.36075 
L 341.289188 265.076592 
L 342.768077 265.85014 
L 344.246967 266.671811 
L 345.725856 267.532022 
L 347.204745 268.421191 
L 348.683635 269.329733 
L 350.162524 270.248067 
L 351.641413 271.167474 
L 353.120302 272.085998 
L 354.599192 273.004864 
L 356.078081 273.925317 
L 357.55697 274.848601 
L 359.03586 275.775959 
L 360.514749 276.708636 
L 361.993638 277.647876 
L 363.472528 278.594922 
L 364.951417 279.55102 
L 366.430306 280.517412 
L 367.909196 281.495344 
L 369.388085 282.486058 
L 370.866974 283.4908 
L 372.345864 284.510813 
L 373.824753 285.547341 
L 375.303642 286.601628 
L 376.782531 287.674918 
L 378.261421 288.768456 
L 379.74031 289.883485 
L 381.219199 291.02125 
L 381.219199 269.049238 
L 381.219199 269.049238 
L 379.74031 268.007979 
L 378.261421 266.907691 
L 376.782531 265.7574 
L 375.303642 264.566132 
L 373.824753 263.342912 
L 372.345864 262.096766 
L 370.866974 260.836719 
L 369.388085 259.571796 
L 367.909196 258.311023 
L 366.430306 257.063425 
L 364.951417 255.838028 
L 363.472528 254.643857 
L 361.993638 253.489938 
L 360.514749 252.385296 
L 359.03586 251.338956 
L 357.55697 250.359944 
L 356.078081 249.457286 
L 354.599192 248.640007 
L 353.120302 247.917132 
L 351.641413 247.297686 
L 350.162524 246.790643 
L 348.683635 246.395835 
L 347.204745 246.093675 
L 345.725856 245.862088 
L 344.246967 245.679003 
L 342.768077 245.522346 
L 341.289188 245.370044 
L 339.810299 245.200025 
L 338.331409 244.990214 
L 336.85252 244.718541 
L 335.373631 244.36293 
L 333.894741 243.904445 
L 332.415852 243.345475 
L 330.936963 242.697286 
L 329.458073 241.971178 
L 327.979184 241.178449 
L 326.500295 240.330396 
L 325.021406 239.438316 
L 323.542516 238.513509 
L 322.063627 237.567272 
L 320.584738 236.610902 
L 319.105848 235.655729 
L 317.626959 234.71407 
L 316.14807 233.799413 
L 314.66918 232.925315 
L 313.190291 232.105332 
L 311.711402 231.353023 
L 310.232512 230.681942 
L 308.753623 230.105647 
L 307.274734 229.637695 
L 305.795845 229.291642 
L 304.316955 229.081045 
L 302.838066 229.008934 
L 301.359177 229.041383 
L 299.880287 229.136356 
L 298.401398 229.251817 
L 296.922509 229.345731 
L 295.443619 229.37606 
L 293.96473 229.30077 
L 292.485841 229.077824 
L 291.006951 228.665187 
L 289.528062 228.020822 
L 288.049173 227.108057 
L 286.570283 225.955957 
L 285.091394 224.637667 
L 283.612505 223.227148 
L 282.133616 221.79836 
L 280.654726 220.425265 
L 279.175837 219.181821 
L 277.696948 218.141989 
L 276.218058 217.379729 
L 274.739169 216.969003 
L 273.26028 216.983252 
L 271.78139 217.439652 
L 270.302501 218.249299 
L 268.823612 219.311541 
L 267.344722 220.525724 
L 265.865833 221.791193 
L 264.386944 223.007295 
L 262.908054 224.073377 
L 261.429165 224.888785 
L 259.950276 225.352864 
L 258.471387 225.364961 
L 256.992497 224.84493 
L 255.513608 223.834405 
L 254.034719 222.419795 
L 252.555829 220.687582 
L 251.07694 218.724245 
L 249.598051 216.616264 
L 248.119161 214.45012 
L 246.640272 212.312294 
L 245.161383 210.289264 
L 243.682493 208.467511 
L 242.203604 206.931276 
L 240.724715 205.707622 
L 239.245825 204.763096 
L 237.766936 204.061339 
L 236.288047 203.56599 
L 234.809158 203.240691 
L 233.330268 203.049082 
L 231.851379 202.954802 
L 230.37249 202.921493 
L 228.8936 202.912794 
L 227.414711 202.89235 
L 225.935822 202.832474 
L 224.456932 202.732234 
L 222.978043 202.595849 
L 221.499154 202.427536 
L 220.020264 202.231513 
L 218.541375 202.011996 
L 217.062486 201.773203 
L 215.583596 201.519353 
L 214.104707 201.254661 
L 212.625818 200.983346 
L 211.146929 200.70926 
L 209.668039 200.432423 
L 208.18915 200.15057 
L 206.710261 199.861404 
L 205.231371 199.562629 
L 203.752482 199.251948 
L 202.273593 198.927064 
L 200.794703 198.585682 
L 199.315814 198.225504 
L 197.836925 197.844235 
L 196.358035 197.439621 
L 194.879146 197.012718 
L 193.400257 196.570119 
L 191.921368 196.118947 
L 190.442478 195.666325 
L 188.963589 195.219375 
L 187.4847 194.785221 
L 186.00581 194.370983 
L 184.526921 193.983786 
L 183.048032 193.630751 
L 181.569142 193.319001 
L 180.090253 193.054709 
L 178.611364 192.839108 
L 177.132474 192.67183 
L 175.653585 192.552509 
L 174.174696 192.480776 
L 172.695806 192.456263 
L 171.216917 192.478604 
L 169.738028 192.54743 
L 168.259139 192.662373 
L 166.780249 192.823067 
L 165.30136 193.028798 
L 163.822471 193.271691 
L 162.343581 193.537102 
L 160.864692 193.81012 
L 159.385803 194.075836 
L 157.906913 194.319339 
L 156.428024 194.52572 
L 154.949135 194.680069 
L 153.470245 194.767476 
L 151.991356 194.773031 
L 150.512467 194.681834 
L 149.033577 194.485714 
L 147.554688 194.1948 
L 146.075799 193.822299 
L 144.59691 193.381422 
L 143.11802 192.885378 
L 141.639131 192.347375 
L 140.160242 191.780623 
L 138.681352 191.198331 
L 137.202463 190.613708 
L 135.723574 190.039964 
L 134.244684 189.489167 
L 132.765795 188.9631 
L 131.286906 188.458085 
L 129.808016 187.970398 
L 128.329127 187.496312 
L 126.850238 187.0321 
L 125.371348 186.574037 
L 123.892459 186.118397 
L 122.41357 185.661453 
L 120.934681 185.199479 
L 119.455791 184.728901 
L 117.976902 184.254359 
L 116.498013 183.792741 
L 115.019123 183.361937 
L 113.540234 182.979835 
L 112.061345 182.664324 
L 110.582455 182.433293 
L 109.103566 182.30463 
L 107.624677 182.296224 
L 106.145787 182.425964 
L 104.666898 182.711738 
L 103.188009 183.162183 
L 101.70912 183.743773 
L 100.23023 184.410972 
L 98.751341 185.118244 
L 97.272452 185.820053 
L 95.793562 186.470863 
L 94.314673 187.02514 
L 92.835784 187.437346 
L 91.356894 187.661946 
L 89.878005 187.653404 
L 88.399116 187.368946 
L 86.920226 186.813384 
L 85.441337 186.031665 
L 83.962448 185.069993 
L 82.483558 183.974572 
L 81.004669 182.791606 
L 79.52578 181.567299 
L 78.046891 180.347854 
L 76.568001 179.179476 
L 75.089112 178.108367 
L 73.610223 177.180679 
L 72.131333 176.426241 
L 70.652444 175.835689 
L 69.173555 175.393897 
L 67.694665 175.085741 
L 66.215776 174.896094 
L 64.736887 174.809831 
L 63.257997 174.811826 
L 61.779108 174.886954 
L 60.300219 175.020089 
L 58.821329 175.196105 
L 57.34244 175.400632 
L 55.863551 175.625201 
L 54.384662 175.864123 
L 52.905772 176.111723 
L 51.426883 176.362327 
L 49.947994 176.610259 
L 48.469104 176.849846 
L 46.990215 177.075413 
L 45.511326 177.281286 
L 44.032436 177.46179 
L 42.553547 177.611251 
L 41.074658 177.723994 
L 39.595768 177.794345 
L 38.116879 177.81663 
L 36.63799 177.785174 
L 35.1591 177.694302 
L 33.680211 177.538341 
L 32.201322 177.311615 
L 30.722433 177.008451 
L 29.243543 176.623174 
L 27.764654 176.150109 
z
" clip-path="url(#pbded025256)" style="fill: #1f77b4"/>
   </g>
   <g id="FillBetweenPolyCollection_2">
    <path d="M 27.764654 152.904832 
L 27.764654 176.150109 
L 29.243543 176.623174 
L 30.722433 177.008451 
L 32.201322 177.311615 
L 33.680211 177.538341 
L 35.1591 177.694302 
L 36.63799 177.785174 
L 38.116879 177.81663 
L 39.595768 177.794345 
L 41.074658 177.723994 
L 42.553547 177.611251 
L 44.032436 177.46179 
L 45.511326 177.281286 
L 46.990215 177.075413 
L 48.469104 176.849846 
L 49.947994 176.610259 
L 51.426883 176.362327 
L 52.905772 176.111723 
L 54.384662 175.864123 
L 55.863551 175.625201 
L 57.34244 175.400632 
L 58.821329 175.196105 
L 60.300219 175.020089 
L 61.779108 174.886954 
L 63.257997 174.811826 
L 64.736887 174.809831 
L 66.215776 174.896094 
L 67.694665 175.085741 
L 69.173555 175.393897 
L 70.652444 175.835689 
L 72.131333 176.426241 
L 73.610223 177.180679 
L 75.089112 178.108367 
L 76.568001 179.179476 
L 78.046891 180.347854 
L 79.52578 181.567299 
L 81.004669 182.791606 
L 82.483558 183.974572 
L 83.962448 185.069993 
L 85.441337 186.031665 
L 86.920226 186.813384 
L 88.399116 187.368946 
L 89.878005 187.653404 
L 91.356894 187.661946 
L 92.835784 187.437346 
L 94.314673 187.02514 
L 95.793562 186.470863 
L 97.272452 185.820053 
L 98.751341 185.118244 
L 100.23023 184.410972 
L 101.70912 183.743773 
L 103.188009 183.162183 
L 104.666898 182.711738 
L 106.145787 182.425964 
L 107.624677 182.296224 
L 109.103566 182.30463 
L 110.582455 182.433293 
L 112.061345 182.664324 
L 113.540234 182.979835 
L 115.019123 183.361937 
L 116.498013 183.792741 
L 117.976902 184.254359 
L 119.455791 184.728901 
L 120.934681 185.199479 
L 122.41357 185.661453 
L 123.892459 186.118397 
L 125.371348 186.574037 
L 126.850238 187.0321 
L 128.329127 187.496312 
L 129.808016 187.970398 
L 131.286906 188.458085 
L 132.765795 188.9631 
L 134.244684 189.489167 
L 135.723574 190.039964 
L 137.202463 190.613708 
L 138.681352 191.198331 
L 140.160242 191.780623 
L 141.639131 192.347375 
L 143.11802 192.885378 
L 144.59691 193.381422 
L 146.075799 193.822299 
L 147.554688 194.1948 
L 149.033577 194.485714 
L 150.512467 194.681834 
L 151.991356 194.773031 
L 153.470245 194.767476 
L 154.949135 194.680069 
L 156.428024 194.52572 
L 157.906913 194.319339 
L 159.385803 194.075836 
L 160.864692 193.81012 
L 162.343581 193.537102 
L 163.822471 193.271691 
L 165.30136 193.028798 
L 166.780249 192.823067 
L 168.259139 192.662373 
L 169.738028 192.54743 
L 171.216917 192.478604 
L 172.695806 192.456263 
L 174.174696 192.480776 
L 175.653585 192.552509 
L 177.132474 192.67183 
L 178.611364 192.839108 
L 180.090253 193.054709 
L 181.569142 193.319001 
L 183.048032 193.630751 
L 184.526921 193.983786 
L 186.00581 194.370983 
L 187.4847 194.785221 
L 188.963589 195.219375 
L 190.442478 195.666325 
L 191.921368 196.118947 
L 193.400257 196.570119 
L 194.879146 197.012718 
L 196.358035 197.439621 
L 197.836925 197.844235 
L 199.315814 198.225504 
L 200.794703 198.585682 
L 202.273593 198.927064 
L 203.752482 199.251948 
L 205.231371 199.562629 
L 206.710261 199.861404 
L 208.18915 200.15057 
L 209.668039 200.432423 
L 211.146929 200.70926 
L 212.625818 200.983346 
L 214.104707 201.254661 
L 215.583596 201.519353 
L 217.062486 201.773203 
L 218.541375 202.011996 
L 220.020264 202.231513 
L 221.499154 202.427536 
L 222.978043 202.595849 
L 224.456932 202.732234 
L 225.935822 202.832474 
L 227.414711 202.89235 
L 228.8936 202.912794 
L 230.37249 202.921493 
L 231.851379 202.954802 
L 233.330268 203.049082 
L 234.809158 203.240691 
L 236.288047 203.56599 
L 237.766936 204.061339 
L 239.245825 204.763096 
L 240.724715 205.707622 
L 242.203604 206.931276 
L 243.682493 208.467511 
L 245.161383 210.289264 
L 246.640272 212.312294 
L 248.119161 214.45012 
L 249.598051 216.616264 
L 251.07694 218.724245 
L 252.555829 220.687582 
L 254.034719 222.419795 
L 255.513608 223.834405 
L 256.992497 224.84493 
L 258.471387 225.364961 
L 259.950276 225.352864 
L 261.429165 224.888785 
L 262.908054 224.073377 
L 264.386944 223.007295 
L 265.865833 221.791193 
L 267.344722 220.525724 
L 268.823612 219.311541 
L 270.302501 218.249299 
L 271.78139 217.439652 
L 273.26028 216.983252 
L 274.739169 216.969003 
L 276.218058 217.379729 
L 277.696948 218.141989 
L 279.175837 219.181821 
L 280.654726 220.425265 
L 282.133616 221.79836 
L 283.612505 223.227148 
L 285.091394 224.637667 
L 286.570283 225.955957 
L 288.049173 227.108057 
L 289.528062 228.020822 
L 291.006951 228.665187 
L 292.485841 229.077824 
L 293.96473 229.30077 
L 295.443619 229.37606 
L 296.922509 229.345731 
L 298.401398 229.251817 
L 299.880287 229.136356 
L 301.359177 229.041383 
L 302.838066 229.008934 
L 304.316955 229.081045 
L 305.795845 229.291642 
L 307.274734 229.637695 
L 308.753623 230.105647 
L 310.232512 230.681942 
L 311.711402 231.353023 
L 313.190291 232.105332 
L 314.66918 232.925315 
L 316.14807 233.799413 
L 317.626959 234.71407 
L 319.105848 235.655729 
L 320.584738 236.610902 
L 322.063627 237.567272 
L 323.542516 238.513509 
L 325.021406 239.438316 
L 326.500295 240.330396 
L 327.979184 241.178449 
L 329.458073 241.971178 
L 330.936963 242.697286 
L 332.415852 243.345475 
L 333.894741 243.904445 
L 335.373631 244.36293 
L 336.85252 244.718541 
L 338.331409 244.990214 
L 339.810299 245.200025 
L 341.289188 245.370044 
L 342.768077 245.522346 
L 344.246967 245.679003 
L 345.725856 245.862088 
L 347.204745 246.093675 
L 348.683635 246.395835 
L 350.162524 246.790643 
L 351.641413 247.297686 
L 353.120302 247.917132 
L 354.599192 248.640007 
L 356.078081 249.457286 
L 357.55697 250.359944 
L 359.03586 251.338956 
L 360.514749 252.385296 
L 361.993638 253.489938 
L 363.472528 254.643857 
L 364.951417 255.838028 
L 366.430306 257.063425 
L 367.909196 258.311023 
L 369.388085 259.571796 
L 370.866974 260.836719 
L 372.345864 262.096766 
L 373.824753 263.342912 
L 375.303642 264.566132 
L 376.782531 265.7574 
L 378.261421 266.907691 
L 379.74031 268.007979 
L 381.219199 269.049238 
L 381.219199 60.02125 
L 381.219199 60.02125 
L 379.74031 61.159015 
L 378.261421 62.274044 
L 376.782531 63.367582 
L 375.303642 64.440872 
L 373.824753 65.495159 
L 372.345864 66.531687 
L 370.866974 67.5517 
L 369.388085 68.556442 
L 367.909196 69.547156 
L 366.430306 70.525088 
L 364.951417 71.49148 
L 363.472528 72.447578 
L 361.993638 73.394624 
L 360.514749 74.333864 
L 359.03586 75.266541 
L 357.55697 76.193899 
L 356.078081 77.117183 
L 354.599192 78.037636 
L 353.120302 78.956502 
L 351.641413 79.875026 
L 350.162524 80.794433 
L 348.683635 81.712767 
L 347.204745 82.621309 
L 345.725856 83.510478 
L 344.246967 84.370689 
L 342.768077 85.19236 
L 341.289188 85.965908 
L 339.810299 86.68175 
L 338.331409 87.330303 
L 336.85252 87.901983 
L 335.373631 88.387209 
L 333.894741 88.779228 
L 332.415852 89.090546 
L 330.936963 89.341691 
L 329.458073 89.553215 
L 327.979184 89.745669 
L 326.500295 89.939608 
L 325.021406 90.155583 
L 323.542516 90.414148 
L 322.063627 90.735854 
L 320.584738 91.141254 
L 319.105848 91.650281 
L 317.626959 92.263023 
L 316.14807 92.956049 
L 314.66918 93.704559 
L 313.190291 94.483753 
L 311.711402 95.268834 
L 310.232512 96.035002 
L 308.753623 96.757459 
L 307.274734 97.411406 
L 305.795845 97.972043 
L 304.316955 98.414573 
L 302.838066 98.724002 
L 301.359177 98.919761 
L 299.880287 99.028836 
L 298.401398 99.078214 
L 296.922509 99.09488 
L 295.443619 99.105821 
L 293.96473 99.138022 
L 292.485841 99.218469 
L 291.006951 99.374148 
L 289.528062 99.632045 
L 288.049173 100.017782 
L 286.570283 100.540261 
L 285.091394 101.197168 
L 283.612505 101.985988 
L 282.133616 102.9042 
L 280.654726 103.949287 
L 279.175837 105.118731 
L 277.696948 106.410013 
L 276.218058 107.820616 
L 274.739169 109.34802 
L 273.26028 110.989581 
L 271.78139 112.728849 
L 270.302501 114.523353 
L 268.823612 116.327739 
L 267.344722 118.09665 
L 265.865833 119.784733 
L 264.386944 121.346632 
L 262.908054 122.736993 
L 261.429165 123.910462 
L 259.950276 124.821682 
L 258.471387 125.4253 
L 256.992497 125.686628 
L 255.513608 125.634321 
L 254.034719 125.320328 
L 252.555829 124.796631 
L 251.07694 124.115215 
L 249.598051 123.328062 
L 248.119161 122.487156 
L 246.640272 121.644481 
L 245.161383 120.85202 
L 243.682493 120.161756 
L 242.203604 119.624371 
L 240.724715 119.257296 
L 239.245825 119.042775 
L 237.766936 118.961361 
L 236.288047 118.993604 
L 234.809158 119.120058 
L 233.330268 119.321274 
L 231.851379 119.577804 
L 230.37249 119.870202 
L 228.8936 120.179019 
L 227.414711 120.48481 
L 225.935822 120.774753 
L 224.456932 121.056467 
L 222.978043 121.341504 
L 221.499154 121.641416 
L 220.020264 121.967754 
L 218.541375 122.33207 
L 217.062486 122.745917 
L 215.583596 123.220845 
L 214.104707 123.768408 
L 212.625818 124.400156 
L 211.146929 125.125795 
L 209.668039 125.935663 
L 208.18915 126.808538 
L 206.710261 127.723045 
L 205.231371 128.657808 
L 203.752482 129.591452 
L 202.273593 130.502601 
L 200.794703 131.369879 
L 199.315814 132.17191 
L 197.836925 132.887319 
L 196.358035 133.494866 
L 194.879146 133.983495 
L 193.400257 134.359207 
L 191.921368 134.629632 
L 190.442478 134.802399 
L 188.963589 134.885139 
L 187.4847 134.885479 
L 186.00581 134.811051 
L 184.526921 134.669483 
L 183.048032 134.468405 
L 181.569142 134.215446 
L 180.090253 133.921095 
L 178.611364 133.61071 
L 177.132474 133.314461 
L 175.653585 133.062523 
L 174.174696 132.885069 
L 172.695806 132.812274 
L 171.216917 132.874311 
L 169.738028 133.101354 
L 168.259139 133.523578 
L 166.780249 134.171156 
L 165.30136 135.071963 
L 163.822471 136.206009 
L 162.343581 137.508083 
L 160.864692 138.9112 
L 159.385803 140.348375 
L 157.906913 141.752625 
L 156.428024 143.056965 
L 154.949135 144.194411 
L 153.470245 145.097979 
L 151.991356 145.700685 
L 150.512467 145.935597 
L 149.033577 145.769451 
L 147.554688 145.260555 
L 146.075799 144.482634 
L 144.59691 143.509415 
L 143.11802 142.414624 
L 141.639131 141.271988 
L 140.160242 140.155233 
L 138.681352 139.138084 
L 137.202463 138.294269 
L 135.723574 137.697514 
L 134.244684 137.413132 
L 132.765795 137.43049 
L 131.286906 137.698673 
L 129.808016 138.166393 
L 128.329127 138.782362 
L 126.850238 139.495295 
L 125.371348 140.253903 
L 123.892459 141.006899 
L 122.41357 141.702997 
L 120.934681 142.29091 
L 119.455791 142.720025 
L 117.976902 142.976303 
L 116.498013 143.100246 
L 115.019123 143.136805 
L 113.540234 143.130929 
L 112.061345 143.127569 
L 110.582455 143.171676 
L 109.103566 143.3082 
L 107.624677 143.582092 
L 106.145787 144.038302 
L 104.666898 144.721781 
L 103.188009 145.661905 
L 101.70912 146.817065 
L 100.23023 148.125438 
L 98.751341 149.525199 
L 97.272452 150.954525 
L 95.793562 152.351591 
L 94.314673 153.654572 
L 92.835784 154.801645 
L 91.356894 155.730985 
L 89.878005 156.380767 
L 88.399116 156.692637 
L 86.920226 156.668033 
L 85.441337 156.358825 
L 83.962448 155.818459 
L 82.483558 155.100383 
L 81.004669 154.258045 
L 79.52578 153.344891 
L 78.046891 152.414371 
L 76.568001 151.51993 
L 75.089112 150.715017 
L 73.610223 150.053012 
L 72.131333 149.566749 
L 70.652444 149.239732 
L 69.173555 149.048207 
L 67.694665 148.968425 
L 66.215776 148.976632 
L 64.736887 149.049077 
L 63.257997 149.162008 
L 61.779108 149.291674 
L 60.300219 149.414323 
L 58.821329 149.506204 
L 57.34244 149.546268 
L 55.863551 149.53461 
L 54.384662 149.481268 
L 52.905772 149.39634 
L 51.426883 149.289925 
L 49.947994 149.172121 
L 48.469104 149.053024 
L 46.990215 148.942734 
L 45.511326 148.851347 
L 44.032436 148.788962 
L 42.553547 148.765677 
L 41.074658 148.79159 
L 39.595768 148.876797 
L 38.116879 149.031398 
L 36.63799 149.26549 
L 35.1591 149.58917 
L 33.680211 150.012538 
L 32.201322 150.54569 
L 30.722433 151.198724 
L 29.243543 151.981739 
L 27.764654 152.904832 
z
" clip-path="url(#pbded025256)" style="fill: #aec7e8"/>
   </g>
   <g id="matplotlib.axis_1">
    <g id="xtick_1">
     <g id="line2d_1">
      <defs>
       <path id="mbe78764e00" d="M 0 0 
L 0 3.5 
" style="stroke: #000000; stroke-width: 0.8"/>
      </defs>
      <g>
       <use xlink:href="#mbe78764e00" x="27.764654" y="314.12125" style="stroke: #000000; stroke-width: 0.8"/>
      </g>
     </g>
     <g id="text_1">
      <!-- 1979 -->
      <g transform="translate(12.109973 340.173358) rotate(-45) scale(0.1 -0.1)">
       <defs>
        <path id="TimesNewRomanPSMT-31" d="M 750 3822 
L 1781 4325 
L 1884 4325 
L 1884 747 
Q 1884 391 1914 303 
Q 1944 216 2037 169 
Q 2131 122 2419 116 
L 2419 0 
L 825 0 
L 825 116 
Q 1125 122 1212 167 
Q 1300 213 1334 289 
Q 1369 366 1369 747 
L 1369 3034 
Q 1369 3497 1338 3628 
Q 1316 3728 1258 3775 
Q 1200 3822 1119 3822 
Q 1003 3822 797 3725 
L 750 3822 
z
" transform="scale(0.015625)"/>
        <path id="TimesNewRomanPSMT-39" d="M 338 -88 
L 338 28 
Q 744 34 1094 217 
Q 1444 400 1770 856 
Q 2097 1313 2225 1859 
Q 1734 1544 1338 1544 
Q 891 1544 572 1889 
Q 253 2234 253 2806 
Q 253 3363 572 3797 
Q 956 4325 1575 4325 
Q 2097 4325 2469 3894 
Q 2925 3359 2925 2575 
Q 2925 1869 2578 1258 
Q 2231 647 1613 244 
Q 1109 -88 516 -88 
L 338 -88 
z
M 2275 2091 
Q 2331 2497 2331 2741 
Q 2331 3044 2228 3395 
Q 2125 3747 1936 3934 
Q 1747 4122 1506 4122 
Q 1228 4122 1018 3872 
Q 809 3622 809 3128 
Q 809 2469 1088 2097 
Q 1291 1828 1588 1828 
Q 1731 1828 1928 1897 
Q 2125 1966 2275 2091 
z
" transform="scale(0.015625)"/>
        <path id="TimesNewRomanPSMT-37" d="M 644 4238 
L 2916 4238 
L 2916 4119 
L 1503 -88 
L 1153 -88 
L 2419 3728 
L 1253 3728 
Q 900 3728 750 3644 
Q 488 3500 328 3200 
L 238 3234 
L 644 4238 
z
" transform="scale(0.015625)"/>
       </defs>
       <use xlink:href="#TimesNewRomanPSMT-31"/>
       <use xlink:href="#TimesNewRomanPSMT-39" transform="translate(50 0)"/>
       <use xlink:href="#TimesNewRomanPSMT-37" transform="translate(100 0)"/>
       <use xlink:href="#TimesNewRomanPSMT-39" transform="translate(150 0)"/>
      </g>
     </g>
    </g>
    <g id="xtick_2">
     <g id="line2d_2">
      <g>
       <use xlink:href="#mbe78764e00" x="58.499832" y="314.12125" style="stroke: #000000; stroke-width: 0.8"/>
      </g>
     </g>
     <g id="text_2">
      <!-- 1981 -->
      <g transform="translate(42.845151 340.173358) rotate(-45) scale(0.1 -0.1)">
       <defs>
        <path id="TimesNewRomanPSMT-38" d="M 1228 2134 
Q 725 2547 579 2797 
Q 434 3047 434 3316 
Q 434 3728 753 4026 
Q 1072 4325 1600 4325 
Q 2113 4325 2425 4047 
Q 2738 3769 2738 3413 
Q 2738 3175 2569 2928 
Q 2400 2681 1866 2347 
Q 2416 1922 2594 1678 
Q 2831 1359 2831 1006 
Q 2831 559 2490 242 
Q 2150 -75 1597 -75 
Q 994 -75 656 303 
Q 388 606 388 966 
Q 388 1247 577 1523 
Q 766 1800 1228 2134 
z
M 1719 2469 
Q 2094 2806 2194 3001 
Q 2294 3197 2294 3444 
Q 2294 3772 2109 3958 
Q 1925 4144 1606 4144 
Q 1288 4144 1088 3959 
Q 888 3775 888 3528 
Q 888 3366 970 3203 
Q 1053 3041 1206 2894 
L 1719 2469 
z
M 1375 2016 
Q 1116 1797 991 1539 
Q 866 1281 866 981 
Q 866 578 1086 336 
Q 1306 94 1647 94 
Q 1984 94 2187 284 
Q 2391 475 2391 747 
Q 2391 972 2272 1150 
Q 2050 1481 1375 2016 
z
" transform="scale(0.015625)"/>
       </defs>
       <use xlink:href="#TimesNewRomanPSMT-31"/>
       <use xlink:href="#TimesNewRomanPSMT-39" transform="translate(50 0)"/>
       <use xlink:href="#TimesNewRomanPSMT-38" transform="translate(100 0)"/>
       <use xlink:href="#TimesNewRomanPSMT-31" transform="translate(150 0)"/>
      </g>
     </g>
    </g>
    <g id="xtick_3">
     <g id="line2d_3">
      <g>
       <use xlink:href="#mbe78764e00" x="89.23501" y="314.12125" style="stroke: #000000; stroke-width: 0.8"/>
      </g>
     </g>
     <g id="text_3">
      <!-- 1983 -->
      <g transform="translate(73.580328 340.173358) rotate(-45) scale(0.1 -0.1)">
       <defs>
        <path id="TimesNewRomanPSMT-33" d="M 325 3431 
Q 506 3859 782 4092 
Q 1059 4325 1472 4325 
Q 1981 4325 2253 3994 
Q 2459 3747 2459 3466 
Q 2459 3003 1878 2509 
Q 2269 2356 2469 2072 
Q 2669 1788 2669 1403 
Q 2669 853 2319 450 
Q 1863 -75 997 -75 
Q 569 -75 414 31 
Q 259 138 259 259 
Q 259 350 332 419 
Q 406 488 509 488 
Q 588 488 669 463 
Q 722 447 909 348 
Q 1097 250 1169 231 
Q 1284 197 1416 197 
Q 1734 197 1970 444 
Q 2206 691 2206 1028 
Q 2206 1275 2097 1509 
Q 2016 1684 1919 1775 
Q 1784 1900 1550 2001 
Q 1316 2103 1072 2103 
L 972 2103 
L 972 2197 
Q 1219 2228 1467 2375 
Q 1716 2522 1828 2728 
Q 1941 2934 1941 3181 
Q 1941 3503 1739 3701 
Q 1538 3900 1238 3900 
Q 753 3900 428 3381 
L 325 3431 
z
" transform="scale(0.015625)"/>
       </defs>
       <use xlink:href="#TimesNewRomanPSMT-31"/>
       <use xlink:href="#TimesNewRomanPSMT-39" transform="translate(50 0)"/>
       <use xlink:href="#TimesNewRomanPSMT-38" transform="translate(100 0)"/>
       <use xlink:href="#TimesNewRomanPSMT-33" transform="translate(150 0)"/>
      </g>
     </g>
    </g>
    <g id="xtick_4">
     <g id="line2d_4">
      <g>
       <use xlink:href="#mbe78764e00" x="119.970188" y="314.12125" style="stroke: #000000; stroke-width: 0.8"/>
      </g>
     </g>
     <g id="text_4">
      <!-- 1985 -->
      <g transform="translate(104.315506 340.173358) rotate(-45) scale(0.1 -0.1)">
       <defs>
        <path id="TimesNewRomanPSMT-35" d="M 2778 4238 
L 2534 3706 
L 1259 3706 
L 981 3138 
Q 1809 3016 2294 2522 
Q 2709 2097 2709 1522 
Q 2709 1188 2573 903 
Q 2438 619 2231 419 
Q 2025 219 1772 97 
Q 1413 -75 1034 -75 
Q 653 -75 479 54 
Q 306 184 306 341 
Q 306 428 378 495 
Q 450 563 559 563 
Q 641 563 702 538 
Q 763 513 909 409 
Q 1144 247 1384 247 
Q 1750 247 2026 523 
Q 2303 800 2303 1197 
Q 2303 1581 2056 1914 
Q 1809 2247 1375 2428 
Q 1034 2569 447 2591 
L 1259 4238 
L 2778 4238 
z
" transform="scale(0.015625)"/>
       </defs>
       <use xlink:href="#TimesNewRomanPSMT-31"/>
       <use xlink:href="#TimesNewRomanPSMT-39" transform="translate(50 0)"/>
       <use xlink:href="#TimesNewRomanPSMT-38" transform="translate(100 0)"/>
       <use xlink:href="#TimesNewRomanPSMT-35" transform="translate(150 0)"/>
      </g>
     </g>
    </g>
    <g id="xtick_5">
     <g id="line2d_5">
      <g>
       <use xlink:href="#mbe78764e00" x="150.705365" y="314.12125" style="stroke: #000000; stroke-width: 0.8"/>
      </g>
     </g>
     <g id="text_5">
      <!-- 1987 -->
      <g transform="translate(135.050684 340.173358) rotate(-45) scale(0.1 -0.1)">
       <use xlink:href="#TimesNewRomanPSMT-31"/>
       <use xlink:href="#TimesNewRomanPSMT-39" transform="translate(50 0)"/>
       <use xlink:href="#TimesNewRomanPSMT-38" transform="translate(100 0)"/>
       <use xlink:href="#TimesNewRomanPSMT-37" transform="translate(150 0)"/>
      </g>
     </g>
    </g>
    <g id="xtick_6">
     <g id="line2d_6">
      <g>
       <use xlink:href="#mbe78764e00" x="181.440543" y="314.12125" style="stroke: #000000; stroke-width: 0.8"/>
      </g>
     </g>
     <g id="text_6">
      <!-- 1989 -->
      <g transform="translate(165.785862 340.173358) rotate(-45) scale(0.1 -0.1)">
       <use xlink:href="#TimesNewRomanPSMT-31"/>
       <use xlink:href="#TimesNewRomanPSMT-39" transform="translate(50 0)"/>
       <use xlink:href="#TimesNewRomanPSMT-38" transform="translate(100 0)"/>
       <use xlink:href="#TimesNewRomanPSMT-39" transform="translate(150 0)"/>
      </g>
     </g>
    </g>
    <g id="xtick_7">
     <g id="line2d_7">
      <g>
       <use xlink:href="#mbe78764e00" x="212.175721" y="314.12125" style="stroke: #000000; stroke-width: 0.8"/>
      </g>
     </g>
     <g id="text_7">
      <!-- 1991 -->
      <g transform="translate(196.52104 340.173358) rotate(-45) scale(0.1 -0.1)">
       <use xlink:href="#TimesNewRomanPSMT-31"/>
       <use xlink:href="#TimesNewRomanPSMT-39" transform="translate(50 0)"/>
       <use xlink:href="#TimesNewRomanPSMT-39" transform="translate(100 0)"/>
       <use xlink:href="#TimesNewRomanPSMT-31" transform="translate(150 0)"/>
      </g>
     </g>
    </g>
    <g id="xtick_8">
     <g id="line2d_8">
      <g>
       <use xlink:href="#mbe78764e00" x="242.910899" y="314.12125" style="stroke: #000000; stroke-width: 0.8"/>
      </g>
     </g>
     <g id="text_8">
      <!-- 1993 -->
      <g transform="translate(227.256218 340.173358) rotate(-45) scale(0.1 -0.1)">
       <use xlink:href="#TimesNewRomanPSMT-31"/>
       <use xlink:href="#TimesNewRomanPSMT-39" transform="translate(50 0)"/>
       <use xlink:href="#TimesNewRomanPSMT-39" transform="translate(100 0)"/>
       <use xlink:href="#TimesNewRomanPSMT-33" transform="translate(150 0)"/>
      </g>
     </g>
    </g>
    <g id="xtick_9">
     <g id="line2d_9">
      <g>
       <use xlink:href="#mbe78764e00" x="273.646077" y="314.12125" style="stroke: #000000; stroke-width: 0.8"/>
      </g>
     </g>
     <g id="text_9">
      <!-- 1995 -->
      <g transform="translate(257.991396 340.173358) rotate(-45) scale(0.1 -0.1)">
       <use xlink:href="#TimesNewRomanPSMT-31"/>
       <use xlink:href="#TimesNewRomanPSMT-39" transform="translate(50 0)"/>
       <use xlink:href="#TimesNewRomanPSMT-39" transform="translate(100 0)"/>
       <use xlink:href="#TimesNewRomanPSMT-35" transform="translate(150 0)"/>
      </g>
     </g>
    </g>
    <g id="xtick_10">
     <g id="line2d_10">
      <g>
       <use xlink:href="#mbe78764e00" x="304.381255" y="314.12125" style="stroke: #000000; stroke-width: 0.8"/>
      </g>
     </g>
     <g id="text_10">
      <!-- 1997 -->
      <g transform="translate(288.726574 340.173358) rotate(-45) scale(0.1 -0.1)">
       <use xlink:href="#TimesNewRomanPSMT-31"/>
       <use xlink:href="#TimesNewRomanPSMT-39" transform="translate(50 0)"/>
       <use xlink:href="#TimesNewRomanPSMT-39" transform="translate(100 0)"/>
       <use xlink:href="#TimesNewRomanPSMT-37" transform="translate(150 0)"/>
      </g>
     </g>
    </g>
    <g id="xtick_11">
     <g id="line2d_11">
      <g>
       <use xlink:href="#mbe78764e00" x="335.116433" y="314.12125" style="stroke: #000000; stroke-width: 0.8"/>
      </g>
     </g>
     <g id="text_11">
      <!-- 1999 -->
      <g transform="translate(319.461751 340.173358) rotate(-45) scale(0.1 -0.1)">
       <use xlink:href="#TimesNewRomanPSMT-31"/>
       <use xlink:href="#TimesNewRomanPSMT-39" transform="translate(50 0)"/>
       <use xlink:href="#TimesNewRomanPSMT-39" transform="translate(100 0)"/>
       <use xlink:href="#TimesNewRomanPSMT-39" transform="translate(150 0)"/>
      </g>
     </g>
    </g>
    <g id="xtick_12">
     <g id="line2d_12">
      <g>
       <use xlink:href="#mbe78764e00" x="365.85161" y="314.12125" style="stroke: #000000; stroke-width: 0.8"/>
      </g>
     </g>
     <g id="text_12">
      <!-- 2001 -->
      <g transform="translate(350.196929 340.173358) rotate(-45) scale(0.1 -0.1)">
       <defs>
        <path id="TimesNewRomanPSMT-32" d="M 2934 816 
L 2638 0 
L 138 0 
L 138 116 
Q 1241 1122 1691 1759 
Q 2141 2397 2141 2925 
Q 2141 3328 1894 3587 
Q 1647 3847 1303 3847 
Q 991 3847 742 3664 
Q 494 3481 375 3128 
L 259 3128 
Q 338 3706 661 4015 
Q 984 4325 1469 4325 
Q 1984 4325 2329 3994 
Q 2675 3663 2675 3213 
Q 2675 2891 2525 2569 
Q 2294 2063 1775 1497 
Q 997 647 803 472 
L 1909 472 
Q 2247 472 2383 497 
Q 2519 522 2628 598 
Q 2738 675 2819 816 
L 2934 816 
z
" transform="scale(0.015625)"/>
        <path id="TimesNewRomanPSMT-30" d="M 231 2094 
Q 231 2819 450 3342 
Q 669 3866 1031 4122 
Q 1313 4325 1613 4325 
Q 2100 4325 2488 3828 
Q 2972 3213 2972 2159 
Q 2972 1422 2759 906 
Q 2547 391 2217 158 
Q 1888 -75 1581 -75 
Q 975 -75 572 641 
Q 231 1244 231 2094 
z
M 844 2016 
Q 844 1141 1059 588 
Q 1238 122 1591 122 
Q 1759 122 1940 273 
Q 2122 425 2216 781 
Q 2359 1319 2359 2297 
Q 2359 3022 2209 3506 
Q 2097 3866 1919 4016 
Q 1791 4119 1609 4119 
Q 1397 4119 1231 3928 
Q 1006 3669 925 3112 
Q 844 2556 844 2016 
z
" transform="scale(0.015625)"/>
       </defs>
       <use xlink:href="#TimesNewRomanPSMT-32"/>
       <use xlink:href="#TimesNewRomanPSMT-30" transform="translate(50 0)"/>
       <use xlink:href="#TimesNewRomanPSMT-30" transform="translate(100 0)"/>
       <use xlink:href="#TimesNewRomanPSMT-31" transform="translate(150 0)"/>
      </g>
     </g>
    </g>
    <g id="text_13">
     <!-- Year -->
     <g transform="translate(193.434114 354.018404) scale(0.12 -0.12)">
      <defs>
       <path id="TimesNewRomanPSMT-59" d="M 3050 4238 
L 4528 4238 
L 4528 4122 
L 4447 4122 
Q 4366 4122 4209 4050 
Q 4053 3978 3925 3843 
Q 3797 3709 3609 3406 
L 2588 1797 
L 2588 734 
Q 2588 344 2675 247 
Q 2794 116 3050 116 
L 3188 116 
L 3188 0 
L 1388 0 
L 1388 116 
L 1538 116 
Q 1806 116 1919 278 
Q 1988 378 1988 734 
L 1988 1738 
L 825 3513 
Q 619 3825 545 3903 
Q 472 3981 241 4091 
Q 178 4122 59 4122 
L 59 4238 
L 1872 4238 
L 1872 4122 
L 1778 4122 
Q 1631 4122 1507 4053 
Q 1384 3984 1384 3847 
Q 1384 3734 1575 3441 
L 2459 2075 
L 3291 3381 
Q 3478 3675 3478 3819 
Q 3478 3906 3433 3975 
Q 3388 4044 3303 4083 
Q 3219 4122 3050 4122 
L 3050 4238 
z
" transform="scale(0.015625)"/>
       <path id="TimesNewRomanPSMT-65" d="M 681 1784 
Q 678 1147 991 784 
Q 1303 422 1725 422 
Q 2006 422 2214 576 
Q 2422 731 2563 1106 
L 2659 1044 
Q 2594 616 2278 264 
Q 1963 -88 1488 -88 
Q 972 -88 605 314 
Q 238 716 238 1394 
Q 238 2128 614 2539 
Q 991 2950 1559 2950 
Q 2041 2950 2350 2633 
Q 2659 2316 2659 1784 
L 681 1784 
z
M 681 1966 
L 2006 1966 
Q 1991 2241 1941 2353 
Q 1863 2528 1708 2628 
Q 1553 2728 1384 2728 
Q 1125 2728 920 2526 
Q 716 2325 681 1966 
z
" transform="scale(0.015625)"/>
       <path id="TimesNewRomanPSMT-61" d="M 1822 413 
Q 1381 72 1269 19 
Q 1100 -59 909 -59 
Q 613 -59 420 144 
Q 228 347 228 678 
Q 228 888 322 1041 
Q 450 1253 767 1440 
Q 1084 1628 1822 1897 
L 1822 2009 
Q 1822 2438 1686 2597 
Q 1550 2756 1291 2756 
Q 1094 2756 978 2650 
Q 859 2544 859 2406 
L 866 2225 
Q 866 2081 792 2003 
Q 719 1925 600 1925 
Q 484 1925 411 2006 
Q 338 2088 338 2228 
Q 338 2497 613 2722 
Q 888 2947 1384 2947 
Q 1766 2947 2009 2819 
Q 2194 2722 2281 2516 
Q 2338 2381 2338 1966 
L 2338 994 
Q 2338 584 2353 492 
Q 2369 400 2405 369 
Q 2441 338 2488 338 
Q 2538 338 2575 359 
Q 2641 400 2828 588 
L 2828 413 
Q 2478 -56 2159 -56 
Q 2006 -56 1915 50 
Q 1825 156 1822 413 
z
M 1822 616 
L 1822 1706 
Q 1350 1519 1213 1441 
Q 966 1303 859 1153 
Q 753 1003 753 825 
Q 753 600 887 451 
Q 1022 303 1197 303 
Q 1434 303 1822 616 
z
" transform="scale(0.015625)"/>
       <path id="TimesNewRomanPSMT-72" d="M 1038 2947 
L 1038 2303 
Q 1397 2947 1775 2947 
Q 1947 2947 2059 2842 
Q 2172 2738 2172 2600 
Q 2172 2478 2090 2393 
Q 2009 2309 1897 2309 
Q 1788 2309 1652 2417 
Q 1516 2525 1450 2525 
Q 1394 2525 1328 2463 
Q 1188 2334 1038 2041 
L 1038 669 
Q 1038 431 1097 309 
Q 1138 225 1241 169 
Q 1344 113 1538 113 
L 1538 0 
L 72 0 
L 72 113 
Q 291 113 397 181 
Q 475 231 506 341 
Q 522 394 522 644 
L 522 1753 
Q 522 2253 501 2348 
Q 481 2444 426 2487 
Q 372 2531 291 2531 
Q 194 2531 72 2484 
L 41 2597 
L 906 2947 
L 1038 2947 
z
" transform="scale(0.015625)"/>
      </defs>
      <use xlink:href="#TimesNewRomanPSMT-59"/>
      <use xlink:href="#TimesNewRomanPSMT-65" transform="translate(62.216797 0)"/>
      <use xlink:href="#TimesNewRomanPSMT-61" transform="translate(106.601562 0)"/>
      <use xlink:href="#TimesNewRomanPSMT-72" transform="translate(150.986328 0)"/>
     </g>
    </g>
   </g>
   <g id="patch_3">
    <path d="M 10.091927 314.12125 
L 10.091927 36.92125 
" style="fill: none; stroke: #000000; stroke-width: 0.8; stroke-linejoin: miter; stroke-linecap: square"/>
   </g>
   <g id="patch_4">
    <path d="M 398.891927 314.12125 
L 398.891927 36.92125 
" style="fill: none; stroke: #000000; stroke-width: 0.8; stroke-linejoin: miter; stroke-linecap: square"/>
   </g>
   <g id="patch_5">
    <path d="M 10.091927 314.12125 
L 398.891927 314.12125 
" style="fill: none; stroke: #000000; stroke-width: 0.8; stroke-linejoin: miter; stroke-linecap: square"/>
   </g>
   <g id="patch_6">
    <path d="M 10.091927 36.92125 
L 398.891927 36.92125 
" style="fill: none; stroke: #000000; stroke-width: 0.8; stroke-linejoin: miter; stroke-linecap: square"/>
   </g>
   <g id="text_14">
    <!-- Organic Farming Area from 1979 to 2002 (hectares)  -->
    <g transform="translate(56.491145 16.92125) scale(0.14 -0.14)">
     <defs>
      <path id="TimesNewRomanPSMT-4f" d="M 2341 4334 
Q 3166 4334 3770 3707 
Q 4375 3081 4375 2144 
Q 4375 1178 3765 540 
Q 3156 -97 2291 -97 
Q 1416 -97 820 525 
Q 225 1147 225 2134 
Q 225 3144 913 3781 
Q 1509 4334 2341 4334 
z
M 2281 4106 
Q 1713 4106 1369 3684 
Q 941 3159 941 2147 
Q 941 1109 1384 550 
Q 1725 125 2284 125 
Q 2881 125 3270 590 
Q 3659 1056 3659 2059 
Q 3659 3147 3231 3681 
Q 2888 4106 2281 4106 
z
" transform="scale(0.015625)"/>
      <path id="TimesNewRomanPSMT-67" d="M 966 1044 
Q 703 1172 562 1401 
Q 422 1631 422 1909 
Q 422 2334 742 2640 
Q 1063 2947 1563 2947 
Q 1972 2947 2272 2747 
L 2878 2747 
Q 3013 2747 3034 2739 
Q 3056 2731 3066 2713 
Q 3084 2684 3084 2613 
Q 3084 2531 3069 2500 
Q 3059 2484 3036 2475 
Q 3013 2466 2878 2466 
L 2506 2466 
Q 2681 2241 2681 1891 
Q 2681 1491 2375 1206 
Q 2069 922 1553 922 
Q 1341 922 1119 984 
Q 981 866 932 777 
Q 884 688 884 625 
Q 884 572 936 522 
Q 988 472 1138 450 
Q 1225 438 1575 428 
Q 2219 413 2409 384 
Q 2700 344 2873 169 
Q 3047 -6 3047 -263 
Q 3047 -616 2716 -925 
Q 2228 -1381 1444 -1381 
Q 841 -1381 425 -1109 
Q 191 -953 191 -784 
Q 191 -709 225 -634 
Q 278 -519 444 -313 
Q 466 -284 763 25 
Q 600 122 533 198 
Q 466 275 466 372 
Q 466 481 555 628 
Q 644 775 966 1044 
z
M 1509 2797 
Q 1278 2797 1122 2612 
Q 966 2428 966 2047 
Q 966 1553 1178 1281 
Q 1341 1075 1591 1075 
Q 1828 1075 1981 1253 
Q 2134 1431 2134 1813 
Q 2134 2309 1919 2591 
Q 1759 2797 1509 2797 
z
M 934 0 
Q 788 -159 713 -296 
Q 638 -434 638 -550 
Q 638 -700 819 -813 
Q 1131 -1006 1722 -1006 
Q 2284 -1006 2551 -807 
Q 2819 -609 2819 -384 
Q 2819 -222 2659 -153 
Q 2497 -84 2016 -72 
Q 1313 -53 934 0 
z
" transform="scale(0.015625)"/>
      <path id="TimesNewRomanPSMT-6e" d="M 1034 2341 
Q 1538 2947 1994 2947 
Q 2228 2947 2397 2830 
Q 2566 2713 2666 2444 
Q 2734 2256 2734 1869 
L 2734 647 
Q 2734 375 2778 278 
Q 2813 200 2889 156 
Q 2966 113 3172 113 
L 3172 0 
L 1756 0 
L 1756 113 
L 1816 113 
Q 2016 113 2095 173 
Q 2175 234 2206 353 
Q 2219 400 2219 647 
L 2219 1819 
Q 2219 2209 2117 2386 
Q 2016 2563 1775 2563 
Q 1403 2563 1034 2156 
L 1034 647 
Q 1034 356 1069 288 
Q 1113 197 1189 155 
Q 1266 113 1500 113 
L 1500 0 
L 84 0 
L 84 113 
L 147 113 
Q 366 113 442 223 
Q 519 334 519 647 
L 519 1709 
Q 519 2225 495 2337 
Q 472 2450 423 2490 
Q 375 2531 294 2531 
Q 206 2531 84 2484 
L 38 2597 
L 900 2947 
L 1034 2947 
L 1034 2341 
z
" transform="scale(0.015625)"/>
      <path id="TimesNewRomanPSMT-69" d="M 928 4444 
Q 1059 4444 1151 4351 
Q 1244 4259 1244 4128 
Q 1244 3997 1151 3903 
Q 1059 3809 928 3809 
Q 797 3809 703 3903 
Q 609 3997 609 4128 
Q 609 4259 701 4351 
Q 794 4444 928 4444 
z
M 1188 2947 
L 1188 647 
Q 1188 378 1227 289 
Q 1266 200 1342 156 
Q 1419 113 1622 113 
L 1622 0 
L 231 0 
L 231 113 
Q 441 113 512 153 
Q 584 194 626 287 
Q 669 381 669 647 
L 669 1750 
Q 669 2216 641 2353 
Q 619 2453 572 2492 
Q 525 2531 444 2531 
Q 356 2531 231 2484 
L 188 2597 
L 1050 2947 
L 1188 2947 
z
" transform="scale(0.015625)"/>
      <path id="TimesNewRomanPSMT-63" d="M 2631 1088 
Q 2516 522 2178 217 
Q 1841 -88 1431 -88 
Q 944 -88 581 321 
Q 219 731 219 1428 
Q 219 2103 620 2525 
Q 1022 2947 1584 2947 
Q 2006 2947 2278 2723 
Q 2550 2500 2550 2259 
Q 2550 2141 2473 2067 
Q 2397 1994 2259 1994 
Q 2075 1994 1981 2113 
Q 1928 2178 1911 2362 
Q 1894 2547 1784 2644 
Q 1675 2738 1481 2738 
Q 1169 2738 978 2506 
Q 725 2200 725 1697 
Q 725 1184 976 792 
Q 1228 400 1656 400 
Q 1963 400 2206 609 
Q 2378 753 2541 1131 
L 2631 1088 
z
" transform="scale(0.015625)"/>
      <path id="TimesNewRomanPSMT-20" transform="scale(0.015625)"/>
      <path id="TimesNewRomanPSMT-46" d="M 1309 4006 
L 1309 2341 
L 2081 2341 
Q 2347 2341 2470 2458 
Q 2594 2575 2634 2922 
L 2750 2922 
L 2750 1488 
L 2634 1488 
Q 2631 1734 2570 1850 
Q 2509 1966 2401 2023 
Q 2294 2081 2081 2081 
L 1309 2081 
L 1309 750 
Q 1309 428 1350 325 
Q 1381 247 1481 191 
Q 1619 116 1769 116 
L 1922 116 
L 1922 0 
L 103 0 
L 103 116 
L 253 116 
Q 516 116 634 269 
Q 709 369 709 750 
L 709 3488 
Q 709 3809 669 3913 
Q 638 3991 541 4047 
Q 406 4122 253 4122 
L 103 4122 
L 103 4238 
L 3256 4238 
L 3297 3306 
L 3188 3306 
Q 3106 3603 2998 3742 
Q 2891 3881 2733 3943 
Q 2575 4006 2244 4006 
L 1309 4006 
z
" transform="scale(0.015625)"/>
      <path id="TimesNewRomanPSMT-6d" d="M 1050 2338 
Q 1363 2650 1419 2697 
Q 1559 2816 1721 2881 
Q 1884 2947 2044 2947 
Q 2313 2947 2506 2790 
Q 2700 2634 2766 2338 
Q 3088 2713 3309 2830 
Q 3531 2947 3766 2947 
Q 3994 2947 4170 2830 
Q 4347 2713 4450 2447 
Q 4519 2266 4519 1878 
L 4519 647 
Q 4519 378 4559 278 
Q 4591 209 4675 161 
Q 4759 113 4950 113 
L 4950 0 
L 3538 0 
L 3538 113 
L 3597 113 
Q 3781 113 3884 184 
Q 3956 234 3988 344 
Q 4000 397 4000 647 
L 4000 1878 
Q 4000 2228 3916 2372 
Q 3794 2572 3525 2572 
Q 3359 2572 3192 2489 
Q 3025 2406 2788 2181 
L 2781 2147 
L 2788 2013 
L 2788 647 
Q 2788 353 2820 281 
Q 2853 209 2943 161 
Q 3034 113 3253 113 
L 3253 0 
L 1806 0 
L 1806 113 
Q 2044 113 2133 169 
Q 2222 225 2256 338 
Q 2272 391 2272 647 
L 2272 1878 
Q 2272 2228 2169 2381 
Q 2031 2581 1784 2581 
Q 1616 2581 1450 2491 
Q 1191 2353 1050 2181 
L 1050 647 
Q 1050 366 1089 281 
Q 1128 197 1204 155 
Q 1281 113 1516 113 
L 1516 0 
L 100 0 
L 100 113 
Q 297 113 375 155 
Q 453 197 493 289 
Q 534 381 534 647 
L 534 1741 
Q 534 2213 506 2350 
Q 484 2453 437 2492 
Q 391 2531 309 2531 
Q 222 2531 100 2484 
L 53 2597 
L 916 2947 
L 1050 2947 
L 1050 2338 
z
" transform="scale(0.015625)"/>
      <path id="TimesNewRomanPSMT-41" d="M 2928 1419 
L 1288 1419 
L 1000 750 
Q 894 503 894 381 
Q 894 284 986 211 
Q 1078 138 1384 116 
L 1384 0 
L 50 0 
L 50 116 
Q 316 163 394 238 
Q 553 388 747 847 
L 2238 4334 
L 2347 4334 
L 3822 809 
Q 4000 384 4145 257 
Q 4291 131 4550 116 
L 4550 0 
L 2878 0 
L 2878 116 
Q 3131 128 3220 200 
Q 3309 272 3309 375 
Q 3309 513 3184 809 
L 2928 1419 
z
M 2841 1650 
L 2122 3363 
L 1384 1650 
L 2841 1650 
z
" transform="scale(0.015625)"/>
      <path id="TimesNewRomanPSMT-66" d="M 1319 2638 
L 1319 756 
Q 1319 356 1406 250 
Q 1522 113 1716 113 
L 1975 113 
L 1975 0 
L 266 0 
L 266 113 
L 394 113 
Q 519 113 622 175 
Q 725 238 764 344 
Q 803 450 803 756 
L 803 2638 
L 247 2638 
L 247 2863 
L 803 2863 
L 803 3050 
Q 803 3478 940 3775 
Q 1078 4072 1361 4255 
Q 1644 4438 1997 4438 
Q 2325 4438 2600 4225 
Q 2781 4084 2781 3909 
Q 2781 3816 2700 3733 
Q 2619 3650 2525 3650 
Q 2453 3650 2373 3701 
Q 2294 3753 2178 3923 
Q 2063 4094 1966 4153 
Q 1869 4213 1750 4213 
Q 1606 4213 1506 4136 
Q 1406 4059 1362 3898 
Q 1319 3738 1319 3069 
L 1319 2863 
L 2056 2863 
L 2056 2638 
L 1319 2638 
z
" transform="scale(0.015625)"/>
      <path id="TimesNewRomanPSMT-6f" d="M 1600 2947 
Q 2250 2947 2644 2453 
Q 2978 2031 2978 1484 
Q 2978 1100 2793 706 
Q 2609 313 2286 112 
Q 1963 -88 1566 -88 
Q 919 -88 538 428 
Q 216 863 216 1403 
Q 216 1797 411 2186 
Q 606 2575 925 2761 
Q 1244 2947 1600 2947 
z
M 1503 2744 
Q 1338 2744 1170 2645 
Q 1003 2547 900 2300 
Q 797 2053 797 1666 
Q 797 1041 1045 587 
Q 1294 134 1700 134 
Q 2003 134 2200 384 
Q 2397 634 2397 1244 
Q 2397 2006 2069 2444 
Q 1847 2744 1503 2744 
z
" transform="scale(0.015625)"/>
      <path id="TimesNewRomanPSMT-74" d="M 1031 3803 
L 1031 2863 
L 1700 2863 
L 1700 2644 
L 1031 2644 
L 1031 788 
Q 1031 509 1111 412 
Q 1191 316 1316 316 
Q 1419 316 1516 380 
Q 1613 444 1666 569 
L 1788 569 
Q 1678 263 1478 108 
Q 1278 -47 1066 -47 
Q 922 -47 784 33 
Q 647 113 581 261 
Q 516 409 516 719 
L 516 2644 
L 63 2644 
L 63 2747 
Q 234 2816 414 2980 
Q 594 3144 734 3369 
Q 806 3488 934 3803 
L 1031 3803 
z
" transform="scale(0.015625)"/>
      <path id="TimesNewRomanPSMT-28" d="M 1988 -1253 
L 1988 -1369 
Q 1516 -1131 1200 -813 
Q 750 -359 506 256 
Q 263 872 263 1534 
Q 263 2503 741 3301 
Q 1219 4100 1988 4444 
L 1988 4313 
Q 1603 4100 1356 3731 
Q 1109 3363 987 2797 
Q 866 2231 866 1616 
Q 866 947 969 400 
Q 1050 -31 1165 -292 
Q 1281 -553 1476 -793 
Q 1672 -1034 1988 -1253 
z
" transform="scale(0.015625)"/>
      <path id="TimesNewRomanPSMT-68" d="M 1041 4444 
L 1041 2350 
Q 1388 2731 1591 2839 
Q 1794 2947 1997 2947 
Q 2241 2947 2416 2812 
Q 2591 2678 2675 2391 
Q 2734 2191 2734 1659 
L 2734 647 
Q 2734 375 2778 275 
Q 2809 200 2884 156 
Q 2959 113 3159 113 
L 3159 0 
L 1753 0 
L 1753 113 
L 1819 113 
Q 2019 113 2097 173 
Q 2175 234 2206 353 
Q 2216 403 2216 647 
L 2216 1659 
Q 2216 2128 2167 2275 
Q 2119 2422 2012 2495 
Q 1906 2569 1756 2569 
Q 1603 2569 1437 2487 
Q 1272 2406 1041 2159 
L 1041 647 
Q 1041 353 1073 281 
Q 1106 209 1195 161 
Q 1284 113 1503 113 
L 1503 0 
L 84 0 
L 84 113 
Q 275 113 384 172 
Q 447 203 484 290 
Q 522 378 522 647 
L 522 3238 
Q 522 3728 498 3840 
Q 475 3953 426 3993 
Q 378 4034 297 4034 
Q 231 4034 84 3984 
L 41 4094 
L 897 4444 
L 1041 4444 
z
" transform="scale(0.015625)"/>
      <path id="TimesNewRomanPSMT-73" d="M 2050 2947 
L 2050 1972 
L 1947 1972 
Q 1828 2431 1642 2597 
Q 1456 2763 1169 2763 
Q 950 2763 815 2647 
Q 681 2531 681 2391 
Q 681 2216 781 2091 
Q 878 1963 1175 1819 
L 1631 1597 
Q 2266 1288 2266 781 
Q 2266 391 1970 151 
Q 1675 -88 1309 -88 
Q 1047 -88 709 6 
Q 606 38 541 38 
Q 469 38 428 -44 
L 325 -44 
L 325 978 
L 428 978 
Q 516 541 762 319 
Q 1009 97 1316 97 
Q 1531 97 1667 223 
Q 1803 350 1803 528 
Q 1803 744 1651 891 
Q 1500 1038 1047 1263 
Q 594 1488 453 1669 
Q 313 1847 313 2119 
Q 313 2472 555 2709 
Q 797 2947 1181 2947 
Q 1350 2947 1591 2875 
Q 1750 2828 1803 2828 
Q 1853 2828 1881 2850 
Q 1909 2872 1947 2947 
L 2050 2947 
z
" transform="scale(0.015625)"/>
      <path id="TimesNewRomanPSMT-29" d="M 144 4313 
L 144 4444 
Q 619 4209 934 3891 
Q 1381 3434 1625 2820 
Q 1869 2206 1869 1541 
Q 1869 572 1392 -226 
Q 916 -1025 144 -1369 
L 144 -1253 
Q 528 -1038 776 -670 
Q 1025 -303 1145 264 
Q 1266 831 1266 1447 
Q 1266 2113 1163 2663 
Q 1084 3094 967 3353 
Q 850 3613 656 3853 
Q 463 4094 144 4313 
z
" transform="scale(0.015625)"/>
     </defs>
     <use xlink:href="#TimesNewRomanPSMT-4f"/>
     <use xlink:href="#TimesNewRomanPSMT-72" transform="translate(72.216797 0)"/>
     <use xlink:href="#TimesNewRomanPSMT-67" transform="translate(103.767578 0)"/>
     <use xlink:href="#TimesNewRomanPSMT-61" transform="translate(153.767578 0)"/>
     <use xlink:href="#TimesNewRomanPSMT-6e" transform="translate(198.152344 0)"/>
     <use xlink:href="#TimesNewRomanPSMT-69" transform="translate(248.152344 0)"/>
     <use xlink:href="#TimesNewRomanPSMT-63" transform="translate(275.935547 0)"/>
     <use xlink:href="#TimesNewRomanPSMT-20" transform="translate(320.320312 0)"/>
     <use xlink:href="#TimesNewRomanPSMT-46" transform="translate(345.320312 0)"/>
     <use xlink:href="#TimesNewRomanPSMT-61" transform="translate(400.935547 0)"/>
     <use xlink:href="#TimesNewRomanPSMT-72" transform="translate(445.320312 0)"/>
     <use xlink:href="#TimesNewRomanPSMT-6d" transform="translate(478.621094 0)"/>
     <use xlink:href="#TimesNewRomanPSMT-69" transform="translate(556.404297 0)"/>
     <use xlink:href="#TimesNewRomanPSMT-6e" transform="translate(584.1875 0)"/>
     <use xlink:href="#TimesNewRomanPSMT-67" transform="translate(634.1875 0)"/>
     <use xlink:href="#TimesNewRomanPSMT-20" transform="translate(684.1875 0)"/>
     <use xlink:href="#TimesNewRomanPSMT-41" transform="translate(703.6875 0)"/>
     <use xlink:href="#TimesNewRomanPSMT-72" transform="translate(775.904297 0)"/>
     <use xlink:href="#TimesNewRomanPSMT-65" transform="translate(809.205078 0)"/>
     <use xlink:href="#TimesNewRomanPSMT-61" transform="translate(853.589844 0)"/>
     <use xlink:href="#TimesNewRomanPSMT-20" transform="translate(897.974609 0)"/>
     <use xlink:href="#TimesNewRomanPSMT-66" transform="translate(922.974609 0)"/>
     <use xlink:href="#TimesNewRomanPSMT-72" transform="translate(956.275391 0)"/>
     <use xlink:href="#TimesNewRomanPSMT-6f" transform="translate(989.576172 0)"/>
     <use xlink:href="#TimesNewRomanPSMT-6d" transform="translate(1039.576172 0)"/>
     <use xlink:href="#TimesNewRomanPSMT-20" transform="translate(1117.359375 0)"/>
     <use xlink:href="#TimesNewRomanPSMT-31" transform="translate(1142.359375 0)"/>
     <use xlink:href="#TimesNewRomanPSMT-39" transform="translate(1192.359375 0)"/>
     <use xlink:href="#TimesNewRomanPSMT-37" transform="translate(1242.359375 0)"/>
     <use xlink:href="#TimesNewRomanPSMT-39" transform="translate(1292.359375 0)"/>
     <use xlink:href="#TimesNewRomanPSMT-20" transform="translate(1342.359375 0)"/>
     <use xlink:href="#TimesNewRomanPSMT-74" transform="translate(1367.359375 0)"/>
     <use xlink:href="#TimesNewRomanPSMT-6f" transform="translate(1395.142578 0)"/>
     <use xlink:href="#TimesNewRomanPSMT-20" transform="translate(1445.142578 0)"/>
     <use xlink:href="#TimesNewRomanPSMT-32" transform="translate(1470.142578 0)"/>
     <use xlink:href="#TimesNewRomanPSMT-30" transform="translate(1520.142578 0)"/>
     <use xlink:href="#TimesNewRomanPSMT-30" transform="translate(1570.142578 0)"/>
     <use xlink:href="#TimesNewRomanPSMT-32" transform="translate(1620.142578 0)"/>
     <use xlink:href="#TimesNewRomanPSMT-20" transform="translate(1670.142578 0)"/>
     <use xlink:href="#TimesNewRomanPSMT-28" transform="translate(1695.142578 0)"/>
     <use xlink:href="#TimesNewRomanPSMT-68" transform="translate(1728.443359 0)"/>
     <use xlink:href="#TimesNewRomanPSMT-65" transform="translate(1778.443359 0)"/>
     <use xlink:href="#TimesNewRomanPSMT-63" transform="translate(1822.828125 0)"/>
     <use xlink:href="#TimesNewRomanPSMT-74" transform="translate(1867.212891 0)"/>
     <use xlink:href="#TimesNewRomanPSMT-61" transform="translate(1894.996094 0)"/>
     <use xlink:href="#TimesNewRomanPSMT-72" transform="translate(1939.380859 0)"/>
     <use xlink:href="#TimesNewRomanPSMT-65" transform="translate(1972.681641 0)"/>
     <use xlink:href="#TimesNewRomanPSMT-73" transform="translate(2017.066406 0)"/>
     <use xlink:href="#TimesNewRomanPSMT-29" transform="translate(2055.982422 0)"/>
     <use xlink:href="#TimesNewRomanPSMT-20" transform="translate(2089.283203 0)"/>
    </g>
   </g>
   <g id="legend_1">
    <g id="patch_7">
     <path d="M 415.667927 170.882187 
L 435.667927 170.882187 
L 435.667927 163.882187 
L 415.667927 163.882187 
z
" style="fill: #1f77b4"/>
    </g>
    <g id="text_15">
     <!-- Golden Harvest Cooperative -->
     <g transform="translate(443.667927 170.882187) scale(0.1 -0.1)">
      <defs>
       <path id="TimesNewRomanPSMT-47" d="M 3928 4334 
L 4038 2997 
L 3928 2997 
Q 3763 3497 3500 3750 
Q 3122 4116 2528 4116 
Q 1719 4116 1297 3475 
Q 944 2934 944 2188 
Q 944 1581 1178 1081 
Q 1413 581 1792 348 
Q 2172 116 2572 116 
Q 2806 116 3025 175 
Q 3244 234 3447 350 
L 3447 1575 
Q 3447 1894 3398 1992 
Q 3350 2091 3248 2142 
Q 3147 2194 2891 2194 
L 2891 2313 
L 4531 2313 
L 4531 2194 
L 4453 2194 
Q 4209 2194 4119 2031 
Q 4056 1916 4056 1575 
L 4056 278 
Q 3697 84 3347 -6 
Q 2997 -97 2569 -97 
Q 1341 -97 703 691 
Q 225 1281 225 2053 
Q 225 2613 494 3125 
Q 813 3734 1369 4063 
Q 1834 4334 2469 4334 
Q 2700 4334 2889 4296 
Q 3078 4259 3425 4131 
Q 3600 4066 3659 4066 
Q 3719 4066 3761 4120 
Q 3803 4175 3813 4334 
L 3928 4334 
z
" transform="scale(0.015625)"/>
       <path id="TimesNewRomanPSMT-6c" d="M 1184 4444 
L 1184 647 
Q 1184 378 1223 290 
Q 1263 203 1344 158 
Q 1425 113 1647 113 
L 1647 0 
L 244 0 
L 244 113 
Q 441 113 512 153 
Q 584 194 625 287 
Q 666 381 666 647 
L 666 3247 
Q 666 3731 644 3842 
Q 622 3953 573 3993 
Q 525 4034 450 4034 
Q 369 4034 244 3984 
L 191 4094 
L 1044 4444 
L 1184 4444 
z
" transform="scale(0.015625)"/>
       <path id="TimesNewRomanPSMT-64" d="M 2222 322 
Q 2013 103 1813 7 
Q 1613 -88 1381 -88 
Q 913 -88 563 304 
Q 213 697 213 1313 
Q 213 1928 600 2439 
Q 988 2950 1597 2950 
Q 1975 2950 2222 2709 
L 2222 3238 
Q 2222 3728 2198 3840 
Q 2175 3953 2125 3993 
Q 2075 4034 2000 4034 
Q 1919 4034 1784 3984 
L 1744 4094 
L 2597 4444 
L 2738 4444 
L 2738 1134 
Q 2738 631 2761 520 
Q 2784 409 2836 365 
Q 2888 322 2956 322 
Q 3041 322 3181 375 
L 3216 266 
L 2366 -88 
L 2222 -88 
L 2222 322 
z
M 2222 541 
L 2222 2016 
Q 2203 2228 2109 2403 
Q 2016 2578 1861 2667 
Q 1706 2756 1559 2756 
Q 1284 2756 1069 2509 
Q 784 2184 784 1559 
Q 784 928 1059 592 
Q 1334 256 1672 256 
Q 1956 256 2222 541 
z
" transform="scale(0.015625)"/>
       <path id="TimesNewRomanPSMT-48" d="M 1316 2272 
L 3284 2272 
L 3284 3484 
Q 3284 3809 3244 3913 
Q 3213 3991 3113 4047 
Q 2978 4122 2828 4122 
L 2678 4122 
L 2678 4238 
L 4491 4238 
L 4491 4122 
L 4341 4122 
Q 4191 4122 4056 4050 
Q 3956 4000 3920 3898 
Q 3884 3797 3884 3484 
L 3884 750 
Q 3884 428 3925 325 
Q 3956 247 4053 191 
Q 4191 116 4341 116 
L 4491 116 
L 4491 0 
L 2678 0 
L 2678 116 
L 2828 116 
Q 3088 116 3206 269 
Q 3284 369 3284 750 
L 3284 2041 
L 1316 2041 
L 1316 750 
Q 1316 428 1356 325 
Q 1388 247 1488 191 
Q 1622 116 1772 116 
L 1925 116 
L 1925 0 
L 109 0 
L 109 116 
L 259 116 
Q 522 116 641 269 
Q 716 369 716 750 
L 716 3484 
Q 716 3809 675 3913 
Q 644 3991 547 4047 
Q 409 4122 259 4122 
L 109 4122 
L 109 4238 
L 1925 4238 
L 1925 4122 
L 1772 4122 
Q 1622 4122 1488 4050 
Q 1391 4000 1353 3898 
Q 1316 3797 1316 3484 
L 1316 2272 
z
" transform="scale(0.015625)"/>
       <path id="TimesNewRomanPSMT-76" d="M 53 2863 
L 1400 2863 
L 1400 2747 
L 1313 2747 
Q 1191 2747 1127 2687 
Q 1063 2628 1063 2528 
Q 1063 2419 1128 2269 
L 1794 688 
L 2463 2328 
Q 2534 2503 2534 2594 
Q 2534 2638 2509 2666 
Q 2475 2713 2422 2730 
Q 2369 2747 2206 2747 
L 2206 2863 
L 3141 2863 
L 3141 2747 
Q 2978 2734 2916 2681 
Q 2806 2588 2719 2369 
L 1703 -88 
L 1575 -88 
L 553 2328 
Q 484 2497 421 2570 
Q 359 2644 263 2694 
Q 209 2722 53 2747 
L 53 2863 
z
" transform="scale(0.015625)"/>
       <path id="TimesNewRomanPSMT-43" d="M 3853 4334 
L 3950 2894 
L 3853 2894 
Q 3659 3541 3300 3825 
Q 2941 4109 2438 4109 
Q 2016 4109 1675 3895 
Q 1334 3681 1139 3212 
Q 944 2744 944 2047 
Q 944 1472 1128 1050 
Q 1313 628 1683 403 
Q 2053 178 2528 178 
Q 2941 178 3256 354 
Q 3572 531 3950 1056 
L 4047 994 
Q 3728 428 3303 165 
Q 2878 -97 2294 -97 
Q 1241 -97 663 684 
Q 231 1266 231 2053 
Q 231 2688 515 3219 
Q 800 3750 1298 4042 
Q 1797 4334 2388 4334 
Q 2847 4334 3294 4109 
Q 3425 4041 3481 4041 
Q 3566 4041 3628 4100 
Q 3709 4184 3744 4334 
L 3853 4334 
z
" transform="scale(0.015625)"/>
       <path id="TimesNewRomanPSMT-70" d="M -6 2578 
L 875 2934 
L 994 2934 
L 994 2266 
Q 1216 2644 1439 2795 
Q 1663 2947 1909 2947 
Q 2341 2947 2628 2609 
Q 2981 2197 2981 1534 
Q 2981 794 2556 309 
Q 2206 -88 1675 -88 
Q 1444 -88 1275 -22 
Q 1150 25 994 166 
L 994 -706 
Q 994 -1000 1030 -1079 
Q 1066 -1159 1155 -1206 
Q 1244 -1253 1478 -1253 
L 1478 -1369 
L -22 -1369 
L -22 -1253 
L 56 -1253 
Q 228 -1256 350 -1188 
Q 409 -1153 442 -1076 
Q 475 -1000 475 -688 
L 475 2019 
Q 475 2297 450 2372 
Q 425 2447 370 2484 
Q 316 2522 222 2522 
Q 147 2522 31 2478 
L -6 2578 
z
M 994 2081 
L 994 1013 
Q 994 666 1022 556 
Q 1066 375 1236 237 
Q 1406 100 1666 100 
Q 1978 100 2172 344 
Q 2425 663 2425 1241 
Q 2425 1897 2138 2250 
Q 1938 2494 1663 2494 
Q 1513 2494 1366 2419 
Q 1253 2363 994 2081 
z
" transform="scale(0.015625)"/>
      </defs>
      <use xlink:href="#TimesNewRomanPSMT-47"/>
      <use xlink:href="#TimesNewRomanPSMT-6f" transform="translate(72.216797 0)"/>
      <use xlink:href="#TimesNewRomanPSMT-6c" transform="translate(122.216797 0)"/>
      <use xlink:href="#TimesNewRomanPSMT-64" transform="translate(150 0)"/>
      <use xlink:href="#TimesNewRomanPSMT-65" transform="translate(200 0)"/>
      <use xlink:href="#TimesNewRomanPSMT-6e" transform="translate(244.384766 0)"/>
      <use xlink:href="#TimesNewRomanPSMT-20" transform="translate(294.384766 0)"/>
      <use xlink:href="#TimesNewRomanPSMT-48" transform="translate(319.384766 0)"/>
      <use xlink:href="#TimesNewRomanPSMT-61" transform="translate(391.601562 0)"/>
      <use xlink:href="#TimesNewRomanPSMT-72" transform="translate(435.986328 0)"/>
      <use xlink:href="#TimesNewRomanPSMT-76" transform="translate(469.287109 0)"/>
      <use xlink:href="#TimesNewRomanPSMT-65" transform="translate(519.287109 0)"/>
      <use xlink:href="#TimesNewRomanPSMT-73" transform="translate(563.671875 0)"/>
      <use xlink:href="#TimesNewRomanPSMT-74" transform="translate(602.587891 0)"/>
      <use xlink:href="#TimesNewRomanPSMT-20" transform="translate(630.371094 0)"/>
      <use xlink:href="#TimesNewRomanPSMT-43" transform="translate(655.371094 0)"/>
      <use xlink:href="#TimesNewRomanPSMT-6f" transform="translate(722.070312 0)"/>
      <use xlink:href="#TimesNewRomanPSMT-6f" transform="translate(772.070312 0)"/>
      <use xlink:href="#TimesNewRomanPSMT-70" transform="translate(822.070312 0)"/>
      <use xlink:href="#TimesNewRomanPSMT-65" transform="translate(872.070312 0)"/>
      <use xlink:href="#TimesNewRomanPSMT-72" transform="translate(916.455078 0)"/>
      <use xlink:href="#TimesNewRomanPSMT-61" transform="translate(949.755859 0)"/>
      <use xlink:href="#TimesNewRomanPSMT-74" transform="translate(994.140625 0)"/>
      <use xlink:href="#TimesNewRomanPSMT-69" transform="translate(1021.923828 0)"/>
      <use xlink:href="#TimesNewRomanPSMT-76" transform="translate(1049.707031 0)"/>
      <use xlink:href="#TimesNewRomanPSMT-65" transform="translate(1099.707031 0)"/>
     </g>
    </g>
    <g id="patch_8">
     <path d="M 415.667927 185.02125 
L 435.667927 185.02125 
L 435.667927 178.02125 
L 415.667927 178.02125 
z
" style="fill: #aec7e8"/>
    </g>
    <g id="text_16">
     <!-- Sunstone Farms -->
     <g transform="translate(443.667927 185.02125) scale(0.1 -0.1)">
      <defs>
       <path id="TimesNewRomanPSMT-53" d="M 2934 4334 
L 2934 2869 
L 2819 2869 
Q 2763 3291 2617 3541 
Q 2472 3791 2203 3937 
Q 1934 4084 1647 4084 
Q 1322 4084 1109 3886 
Q 897 3688 897 3434 
Q 897 3241 1031 3081 
Q 1225 2847 1953 2456 
Q 2547 2138 2764 1967 
Q 2981 1797 3098 1565 
Q 3216 1334 3216 1081 
Q 3216 600 2842 251 
Q 2469 -97 1881 -97 
Q 1697 -97 1534 -69 
Q 1438 -53 1133 45 
Q 828 144 747 144 
Q 669 144 623 97 
Q 578 50 556 -97 
L 441 -97 
L 441 1356 
L 556 1356 
Q 638 900 775 673 
Q 913 447 1195 297 
Q 1478 147 1816 147 
Q 2206 147 2432 353 
Q 2659 559 2659 841 
Q 2659 997 2573 1156 
Q 2488 1316 2306 1453 
Q 2184 1547 1640 1851 
Q 1097 2156 867 2337 
Q 638 2519 519 2737 
Q 400 2956 400 3219 
Q 400 3675 750 4004 
Q 1100 4334 1641 4334 
Q 1978 4334 2356 4169 
Q 2531 4091 2603 4091 
Q 2684 4091 2736 4139 
Q 2788 4188 2819 4334 
L 2934 4334 
z
" transform="scale(0.015625)"/>
       <path id="TimesNewRomanPSMT-75" d="M 2709 2863 
L 2709 1128 
Q 2709 631 2732 520 
Q 2756 409 2807 365 
Q 2859 322 2928 322 
Q 3025 322 3147 375 
L 3191 266 
L 2334 -88 
L 2194 -88 
L 2194 519 
Q 1825 119 1631 15 
Q 1438 -88 1222 -88 
Q 981 -88 804 51 
Q 628 191 559 409 
Q 491 628 491 1028 
L 491 2306 
Q 491 2509 447 2587 
Q 403 2666 317 2708 
Q 231 2750 6 2747 
L 6 2863 
L 1009 2863 
L 1009 947 
Q 1009 547 1148 422 
Q 1288 297 1484 297 
Q 1619 297 1789 381 
Q 1959 466 2194 703 
L 2194 2325 
Q 2194 2569 2105 2655 
Q 2016 2741 1734 2747 
L 1734 2863 
L 2709 2863 
z
" transform="scale(0.015625)"/>
      </defs>
      <use xlink:href="#TimesNewRomanPSMT-53"/>
      <use xlink:href="#TimesNewRomanPSMT-75" transform="translate(55.615234 0)"/>
      <use xlink:href="#TimesNewRomanPSMT-6e" transform="translate(105.615234 0)"/>
      <use xlink:href="#TimesNewRomanPSMT-73" transform="translate(155.615234 0)"/>
      <use xlink:href="#TimesNewRomanPSMT-74" transform="translate(194.53125 0)"/>
      <use xlink:href="#TimesNewRomanPSMT-6f" transform="translate(222.314453 0)"/>
      <use xlink:href="#TimesNewRomanPSMT-6e" transform="translate(272.314453 0)"/>
      <use xlink:href="#TimesNewRomanPSMT-65" transform="translate(322.314453 0)"/>
      <use xlink:href="#TimesNewRomanPSMT-20" transform="translate(366.699219 0)"/>
      <use xlink:href="#TimesNewRomanPSMT-46" transform="translate(391.699219 0)"/>
      <use xlink:href="#TimesNewRomanPSMT-61" transform="translate(447.314453 0)"/>
      <use xlink:href="#TimesNewRomanPSMT-72" transform="translate(491.699219 0)"/>
      <use xlink:href="#TimesNewRomanPSMT-6d" transform="translate(525 0)"/>
      <use xlink:href="#TimesNewRomanPSMT-73" transform="translate(602.783203 0)"/>
     </g>
    </g>
   </g>
  </g>
 </g>
 <defs>
  <clipPath id="pbded025256">
   <rect x="10.091927" y="36.92125" width="388.8" height="277.2"/>
  </clipPath>
 </defs>
</svg>
