<?xml version="1.0" encoding="utf-8" standalone="no"?>
<!DOCTYPE svg PUBLIC "-//W3C//DTD SVG 1.1//EN"
  "http://www.w3.org/Graphics/SVG/1.1/DTD/svg11.dtd">
<svg xmlns:xlink="http://www.w3.org/1999/xlink" width="558.183552pt" height="363.785279pt" viewBox="0 0 558.183552 363.785279" xmlns="http://www.w3.org/2000/svg" version="1.1">
 <metadata>
  <rdf:RDF xmlns:dc="http://purl.org/dc/elements/1.1/" xmlns:cc="http://creativecommons.org/ns#" xmlns:rdf="http://www.w3.org/1999/02/22-rdf-syntax-ns#">
   <cc:Work>
    <dc:type rdf:resource="http://purl.org/dc/dcmitype/StillImage"/>
    <dc:date>2025-05-30T23:48:38.765172</dc:date>
    <dc:format>image/svg+xml</dc:format>
    <dc:creator>
     <cc:Agent>
      <dc:title>Matplotlib v3.10.3, https://matplotlib.org/</dc:title>
     </cc:Agent>
    </dc:creator>
   </cc:Work>
  </rdf:RDF>
 </metadata>
 <defs>
  <style type="text/css">*{stroke-linejoin: round; stroke-linecap: butt}</style>
 </defs>
 <g id="figure_1">
  <g id="patch_1">
   <path d="M 0 363.785279 
L 558.183552 363.785279 
L 558.183552 0 
L 0 0 
z
" style="fill: #ffffff"/>
  </g>
  <g id="axes_1">
   <g id="patch_2">
    <path d="M 10.091927 314.12125 
L 398.891927 314.12125 
L 398.891927 36.92125 
L 10.091927 36.92125 
z
" style="fill: #ffffff"/>
   </g>
   <g id="FillBetweenPolyCollection_1">
    <path d="M 27.764654 193.755165 
L 27.764654 222.259688 
L 29.243543 224.500962 
L 30.722433 226.317339 
L 32.201322 227.741398 
L 33.680211 228.805713 
L 35.1591 229.542864 
L 36.63799 229.985425 
L 38.116879 230.165973 
L 39.595768 230.117087 
L 41.074658 229.871341 
L 42.553547 229.461314 
L 44.032436 228.919582 
L 45.511326 228.278721 
L 46.990215 227.571308 
L 48.469104 226.829921 
L 49.947994 226.087135 
L 51.426883 225.375528 
L 52.905772 224.727677 
L 54.384662 224.176157 
L 55.863551 223.753547 
L 57.34244 223.492422 
L 58.821329 223.425291 
L 60.300219 223.572949 
L 61.779108 223.931295 
L 63.257997 224.493044 
L 64.736887 225.25091 
L 66.215776 226.197608 
L 67.694665 227.325852 
L 69.173555 228.628357 
L 70.652444 230.097837 
L 72.131333 231.727008 
L 73.610223 233.508583 
L 75.089112 235.429361 
L 76.568001 237.435897 
L 78.046891 239.457992 
L 79.52578 241.425387 
L 81.004669 243.267827 
L 82.483558 244.915055 
L 83.962448 246.296814 
L 85.441337 247.342848 
L 86.920226 247.982901 
L 88.399116 248.146716 
L 89.878005 247.766696 
L 91.356894 246.860217 
L 92.835784 245.545401 
L 94.314673 243.946217 
L 95.793562 242.186634 
L 97.272452 240.39062 
L 98.751341 238.682146 
L 100.23023 237.185178 
L 101.70912 236.023686 
L 103.188009 235.321639 
L 104.666898 235.203003 
L 106.145787 235.741863 
L 107.624677 236.83715 
L 109.103566 238.349362 
L 110.582455 240.138999 
L 112.061345 242.066559 
L 113.540234 243.992542 
L 115.019123 245.777446 
L 116.498013 247.281771 
L 117.976902 248.366016 
L 119.455791 248.89068 
L 120.934681 248.729075 
L 122.41357 247.911574 
L 123.892459 246.573873 
L 125.371348 244.85361 
L 126.850238 242.888424 
L 128.329127 240.815955 
L 129.808016 238.77384 
L 131.286906 236.89972 
L 132.765795 235.331233 
L 134.244684 234.206018 
L 135.723574 233.661001 
L 137.202463 233.755454 
L 138.681352 234.402265 
L 140.160242 235.498101 
L 141.639131 236.939631 
L 143.11802 238.623524 
L 144.59691 240.446449 
L 146.075799 242.305075 
L 147.554688 244.09607 
L 149.033577 245.716103 
L 150.512467 247.061843 
L 151.991356 248.046141 
L 153.470245 248.677947 
L 154.949135 249.001544 
L 156.428024 249.061272 
L 157.906913 248.901469 
L 159.385803 248.566473 
L 160.864692 248.100625 
L 162.343581 247.548261 
L 163.822471 246.953721 
L 165.30136 246.361344 
L 166.780249 245.814733 
L 168.259139 245.338718 
L 169.738028 244.93826 
L 171.216917 244.617367 
L 172.695806 244.380044 
L 174.174696 244.230299 
L 175.653585 244.172137 
L 177.132474 244.209566 
L 178.611364 244.346592 
L 180.090253 244.587223 
L 181.569142 244.935462 
L 183.048032 245.392636 
L 184.526921 245.951798 
L 186.00581 246.604407 
L 187.4847 247.341926 
L 188.963589 248.155815 
L 190.442478 249.037534 
L 191.921368 249.978546 
L 193.400257 250.97031 
L 194.879146 252.004289 
L 196.358035 253.071942 
L 197.836925 254.164162 
L 199.315814 255.265881 
L 200.794703 256.358473 
L 202.273593 257.423265 
L 203.752482 258.441582 
L 205.231371 259.394751 
L 206.710261 260.264098 
L 208.18915 261.03095 
L 209.668039 261.676633 
L 211.146929 262.182474 
L 212.625818 262.529857 
L 214.104707 262.704485 
L 215.583596 262.6993 
L 217.062486 262.507934 
L 218.541375 262.124019 
L 220.020264 261.541185 
L 221.499154 260.753065 
L 222.978043 259.753291 
L 224.456932 258.535494 
L 225.935822 257.093305 
L 227.414711 255.420357 
L 228.8936 253.525113 
L 230.37249 251.493145 
L 231.851379 249.434997 
L 233.330268 247.461225 
L 234.809158 245.682388 
L 236.288047 244.209043 
L 237.766936 243.151748 
L 239.245825 242.621059 
L 240.724715 242.727535 
L 242.203604 243.581733 
L 243.682493 245.287476 
L 245.161383 247.808443 
L 246.640272 250.975893 
L 248.119161 254.615899 
L 249.598051 258.554535 
L 251.07694 262.617874 
L 252.555829 266.631988 
L 254.034719 270.42295 
L 255.513608 273.816835 
L 256.992497 276.639715 
L 258.471387 278.717761 
L 259.950276 279.94157 
L 261.429165 280.376938 
L 262.908054 280.119169 
L 264.386944 279.263563 
L 265.865833 277.905424 
L 267.344722 276.140052 
L 268.823612 274.062751 
L 270.302501 271.768822 
L 271.78139 269.353567 
L 273.26028 266.912288 
L 274.739169 264.53686 
L 276.218058 262.288209 
L 277.696948 260.210847 
L 279.175837 258.349135 
L 280.654726 256.747433 
L 282.133616 255.450103 
L 283.612505 254.501505 
L 285.091394 253.946 
L 286.570283 253.827948 
L 288.049173 254.191711 
L 289.528062 255.080591 
L 291.006951 256.480551 
L 292.485841 258.292045 
L 293.96473 260.408554 
L 295.443619 262.723556 
L 296.922509 265.130532 
L 298.401398 267.522959 
L 299.880287 269.794318 
L 301.359177 271.838087 
L 302.838066 273.547747 
L 304.316955 274.816776 
L 305.795845 275.566589 
L 307.274734 275.845927 
L 308.753623 275.739787 
L 310.232512 275.333172 
L 311.711402 274.71108 
L 313.190291 273.958513 
L 314.66918 273.160471 
L 316.14807 272.401955 
L 317.626959 271.767966 
L 319.105848 271.343503 
L 320.584738 271.2089 
L 322.063627 271.364021 
L 323.542516 271.740868 
L 325.021406 272.269318 
L 326.500295 272.879247 
L 327.979184 273.500532 
L 329.458073 274.063049 
L 330.936963 274.496676 
L 332.415852 274.731288 
L 333.894741 274.696762 
L 335.373631 274.323118 
L 336.85252 273.583567 
L 338.331409 272.555043 
L 339.810299 271.329732 
L 341.289188 269.999819 
L 342.768077 268.657488 
L 344.246967 267.394925 
L 345.725856 266.304314 
L 347.204745 265.47784 
L 348.683635 265.007688 
L 350.162524 264.986043 
L 351.641413 265.491697 
L 353.120302 266.498747 
L 354.599192 267.932029 
L 356.078081 269.71609 
L 357.55697 271.775478 
L 359.03586 274.034744 
L 360.514749 276.418434 
L 361.993638 278.851097 
L 363.472528 281.257283 
L 364.951417 283.561538 
L 366.430306 285.688411 
L 367.909196 287.562452 
L 369.388085 289.108207 
L 370.866974 290.250227 
L 372.345864 290.913058 
L 373.824753 291.02125 
L 375.303642 290.499351 
L 376.782531 289.271909 
L 378.261421 287.263473 
L 379.74031 284.39859 
L 381.219199 280.601811 
L 381.219199 173.45151 
L 381.219199 173.45151 
L 379.74031 172.143073 
L 378.261421 171.094325 
L 376.782531 170.291171 
L 375.303642 169.719515 
L 373.824753 169.365265 
L 372.345864 169.214324 
L 370.866974 169.252599 
L 369.388085 169.465994 
L 367.909196 169.840414 
L 366.430306 170.361766 
L 364.951417 171.015955 
L 363.472528 171.788885 
L 361.993638 172.666463 
L 360.514749 173.634592 
L 359.03586 174.67918 
L 357.55697 175.786131 
L 356.078081 176.94135 
L 354.599192 178.130743 
L 353.120302 179.340216 
L 351.641413 180.555672 
L 350.162524 181.763 
L 348.683635 182.944911 
L 347.204745 184.077369 
L 345.725856 185.135474 
L 344.246967 186.094327 
L 342.768077 186.929028 
L 341.289188 187.614678 
L 339.810299 188.126378 
L 338.331409 188.439227 
L 336.85252 188.528327 
L 335.373631 188.368778 
L 333.894741 187.942371 
L 332.415852 187.276398 
L 330.936963 186.4171 
L 329.458073 185.410782 
L 327.979184 184.303746 
L 326.500295 183.142297 
L 325.021406 181.972738 
L 323.542516 180.841372 
L 322.063627 179.794504 
L 320.584738 178.878436 
L 319.105848 178.138625 
L 317.626959 177.593443 
L 316.14807 177.229153 
L 314.66918 177.030152 
L 313.190291 176.980839 
L 311.711402 177.065613 
L 310.232512 177.268871 
L 308.753623 177.575013 
L 307.274734 177.968437 
L 305.795845 178.433542 
L 304.316955 178.954725 
L 302.838066 179.517093 
L 301.359177 180.108235 
L 299.880287 180.716288 
L 298.401398 181.329387 
L 296.922509 181.935666 
L 295.443619 182.523261 
L 293.96473 183.080307 
L 292.485841 183.59494 
L 291.006951 184.055294 
L 289.528062 184.449505 
L 288.049173 184.766544 
L 286.570283 185.005623 
L 285.091394 185.172824 
L 283.612505 185.274356 
L 282.133616 185.316426 
L 280.654726 185.305243 
L 279.175837 185.247015 
L 277.696948 185.147949 
L 276.218058 185.014255 
L 274.739169 184.852139 
L 273.26028 184.667746 
L 271.78139 184.4601 
L 270.302501 184.214812 
L 268.823612 183.916006 
L 267.344722 183.547806 
L 265.865833 183.094334 
L 264.386944 182.539715 
L 262.908054 181.868073 
L 261.429165 181.06353 
L 259.950276 180.110211 
L 258.471387 178.99224 
L 256.992497 177.702131 
L 255.513608 176.28223 
L 254.034719 174.793203 
L 252.555829 173.295748 
L 251.07694 171.85056 
L 249.598051 170.518335 
L 248.119161 169.359769 
L 246.640272 168.435558 
L 245.161383 167.806398 
L 243.682493 167.532984 
L 242.203604 167.67379 
L 240.724715 168.230559 
L 239.245825 169.144991 
L 237.766936 170.3559 
L 236.288047 171.802103 
L 234.809158 173.422413 
L 233.330268 175.155647 
L 231.851379 176.940618 
L 230.37249 178.716143 
L 228.8936 180.421036 
L 227.414711 181.994121 
L 225.935822 183.38956 
L 224.456932 184.608878 
L 222.978043 185.662711 
L 221.499154 186.561694 
L 220.020264 187.316462 
L 218.541375 187.937651 
L 217.062486 188.435896 
L 215.583596 188.821832 
L 214.104707 189.106095 
L 212.625818 189.29932 
L 211.146929 189.412007 
L 209.668039 189.453242 
L 208.18915 189.431264 
L 206.710261 189.354302 
L 205.231371 189.230584 
L 203.752482 189.068339 
L 202.273593 188.875795 
L 200.794703 188.661181 
L 199.315814 188.432726 
L 197.836925 188.198657 
L 196.358035 187.967166 
L 194.879146 187.743566 
L 193.400257 187.528353 
L 191.921368 187.321564 
L 190.442478 187.123235 
L 188.963589 186.933403 
L 187.4847 186.752104 
L 186.00581 186.579374 
L 184.526921 186.415251 
L 183.048032 186.25977 
L 181.569142 186.112967 
L 180.090253 185.973902 
L 178.611364 185.83655 
L 177.132474 185.693241 
L 175.653585 185.536301 
L 174.174696 185.35806 
L 172.695806 185.150846 
L 171.216917 184.906988 
L 169.738028 184.618812 
L 168.259139 184.278649 
L 166.780249 183.878826 
L 165.30136 183.413037 
L 163.822471 182.903427 
L 162.343581 182.399016 
L 160.864692 181.949879 
L 159.385803 181.60609 
L 157.906913 181.417724 
L 156.428024 181.434854 
L 154.949135 181.707556 
L 153.470245 182.285904 
L 151.991356 183.219972 
L 150.512467 184.559775 
L 149.033577 186.31659 
L 147.554688 188.396347 
L 146.075799 190.687231 
L 144.59691 193.077431 
L 143.11802 195.455134 
L 141.639131 197.708528 
L 140.160242 199.7258 
L 138.681352 201.395137 
L 137.202463 202.604727 
L 135.723574 203.242758 
L 134.244684 203.212745 
L 132.765795 202.556582 
L 131.286906 201.38956 
L 129.808016 199.827648 
L 128.329127 197.986813 
L 126.850238 195.983024 
L 125.371348 193.932247 
L 123.892459 191.950451 
L 122.41357 190.153602 
L 120.934681 188.657669 
L 119.455791 187.577259 
L 117.976902 186.953217 
L 116.498013 186.716398 
L 115.019123 186.788682 
L 113.540234 187.091949 
L 112.061345 187.548081 
L 110.582455 188.078956 
L 109.103566 188.606456 
L 107.624677 189.05246 
L 106.145787 189.33885 
L 104.666898 189.387505 
L 103.188009 189.14257 
L 101.70912 188.649661 
L 100.23023 187.98329 
L 98.751341 187.217974 
L 97.272452 186.428225 
L 95.793562 185.68856 
L 94.314673 185.073492 
L 92.835784 184.657536 
L 91.356894 184.515207 
L 89.878005 184.721019 
L 88.399116 185.344457 
L 86.920226 186.368299 
L 85.441337 187.7022 
L 83.962448 189.253523 
L 82.483558 190.929633 
L 81.004669 192.637893 
L 79.52578 194.285668 
L 78.046891 195.780322 
L 76.568001 197.029218 
L 75.089112 197.939721 
L 73.610223 198.419345 
L 72.131333 198.421329 
L 70.652444 198.008707 
L 69.173555 197.260659 
L 67.694665 196.256365 
L 66.215776 195.075003 
L 64.736887 193.795752 
L 63.257997 192.497792 
L 61.779108 191.260302 
L 60.300219 190.162461 
L 58.821329 189.283447 
L 57.34244 188.693478 
L 55.863551 188.392702 
L 54.384662 188.348298 
L 52.905772 188.527255 
L 51.426883 188.896561 
L 49.947994 189.423203 
L 48.469104 190.074171 
L 46.990215 190.816452 
L 45.511326 191.617034 
L 44.032436 192.442905 
L 42.553547 193.261053 
L 41.074658 194.038467 
L 39.595768 194.742134 
L 38.116879 195.339042 
L 36.63799 195.796181 
L 35.1591 196.080537 
L 33.680211 196.159098 
L 32.201322 195.998854 
L 30.722433 195.566791 
L 29.243543 194.829899 
L 27.764654 193.755165 
z
" clip-path="url(#p65ecc39a92)" style="fill: #1f77b4"/>
   </g>
   <g id="FillBetweenPolyCollection_2">
    <path d="M 27.764654 161.336211 
L 27.764654 193.755165 
L 29.243543 194.829899 
L 30.722433 195.566791 
L 32.201322 195.998854 
L 33.680211 196.159098 
L 35.1591 196.080537 
L 36.63799 195.796181 
L 38.116879 195.339042 
L 39.595768 194.742134 
L 41.074658 194.038467 
L 42.553547 193.261053 
L 44.032436 192.442905 
L 45.511326 191.617034 
L 46.990215 190.816452 
L 48.469104 190.074171 
L 49.947994 189.423203 
L 51.426883 188.896561 
L 52.905772 188.527255 
L 54.384662 188.348298 
L 55.863551 188.392702 
L 57.34244 188.693478 
L 58.821329 189.283447 
L 60.300219 190.162461 
L 61.779108 191.260302 
L 63.257997 192.497792 
L 64.736887 193.795752 
L 66.215776 195.075003 
L 67.694665 196.256365 
L 69.173555 197.260659 
L 70.652444 198.008707 
L 72.131333 198.421329 
L 73.610223 198.419345 
L 75.089112 197.939721 
L 76.568001 197.029218 
L 78.046891 195.780322 
L 79.52578 194.285668 
L 81.004669 192.637893 
L 82.483558 190.929633 
L 83.962448 189.253523 
L 85.441337 187.7022 
L 86.920226 186.368299 
L 88.399116 185.344457 
L 89.878005 184.721019 
L 91.356894 184.515207 
L 92.835784 184.657536 
L 94.314673 185.073492 
L 95.793562 185.68856 
L 97.272452 186.428225 
L 98.751341 187.217974 
L 100.23023 187.98329 
L 101.70912 188.649661 
L 103.188009 189.14257 
L 104.666898 189.387505 
L 106.145787 189.33885 
L 107.624677 189.05246 
L 109.103566 188.606456 
L 110.582455 188.078956 
L 112.061345 187.548081 
L 113.540234 187.091949 
L 115.019123 186.788682 
L 116.498013 186.716398 
L 117.976902 186.953217 
L 119.455791 187.577259 
L 120.934681 188.657669 
L 122.41357 190.153602 
L 123.892459 191.950451 
L 125.371348 193.932247 
L 126.850238 195.983024 
L 128.329127 197.986813 
L 129.808016 199.827648 
L 131.286906 201.38956 
L 132.765795 202.556582 
L 134.244684 203.212745 
L 135.723574 203.242758 
L 137.202463 202.604727 
L 138.681352 201.395137 
L 140.160242 199.7258 
L 141.639131 197.708528 
L 143.11802 195.455134 
L 144.59691 193.077431 
L 146.075799 190.687231 
L 147.554688 188.396347 
L 149.033577 186.31659 
L 150.512467 184.559775 
L 151.991356 183.219972 
L 153.470245 182.285904 
L 154.949135 181.707556 
L 156.428024 181.434854 
L 157.906913 181.417724 
L 159.385803 181.60609 
L 160.864692 181.949879 
L 162.343581 182.399016 
L 163.822471 182.903427 
L 165.30136 183.413037 
L 166.780249 183.878826 
L 168.259139 184.278649 
L 169.738028 184.618812 
L 171.216917 184.906988 
L 172.695806 185.150846 
L 174.174696 185.35806 
L 175.653585 185.536301 
L 177.132474 185.693241 
L 178.611364 185.83655 
L 180.090253 185.973902 
L 181.569142 186.112967 
L 183.048032 186.25977 
L 184.526921 186.415251 
L 186.00581 186.579374 
L 187.4847 186.752104 
L 188.963589 186.933403 
L 190.442478 187.123235 
L 191.921368 187.321564 
L 193.400257 187.528353 
L 194.879146 187.743566 
L 196.358035 187.967166 
L 197.836925 188.198657 
L 199.315814 188.432726 
L 200.794703 188.661181 
L 202.273593 188.875795 
L 203.752482 189.068339 
L 205.231371 189.230584 
L 206.710261 189.354302 
L 208.18915 189.431264 
L 209.668039 189.453242 
L 211.146929 189.412007 
L 212.625818 189.29932 
L 214.104707 189.106095 
L 215.583596 188.821832 
L 217.062486 188.435896 
L 218.541375 187.937651 
L 220.020264 187.316462 
L 221.499154 186.561694 
L 222.978043 185.662711 
L 224.456932 184.608878 
L 225.935822 183.38956 
L 227.414711 181.994121 
L 228.8936 180.421036 
L 230.37249 178.716143 
L 231.851379 176.940618 
L 233.330268 175.155647 
L 234.809158 173.422413 
L 236.288047 171.802103 
L 237.766936 170.3559 
L 239.245825 169.144991 
L 240.724715 168.230559 
L 242.203604 167.67379 
L 243.682493 167.532984 
L 245.161383 167.806398 
L 246.640272 168.435558 
L 248.119161 169.359769 
L 249.598051 170.518335 
L 251.07694 171.85056 
L 252.555829 173.295748 
L 254.034719 174.793203 
L 255.513608 176.28223 
L 256.992497 177.702131 
L 258.471387 178.99224 
L 259.950276 180.110211 
L 261.429165 181.06353 
L 262.908054 181.868073 
L 264.386944 182.539715 
L 265.865833 183.094334 
L 267.344722 183.547806 
L 268.823612 183.916006 
L 270.302501 184.214812 
L 271.78139 184.4601 
L 273.26028 184.667746 
L 274.739169 184.852139 
L 276.218058 185.014255 
L 277.696948 185.147949 
L 279.175837 185.247015 
L 280.654726 185.305243 
L 282.133616 185.316426 
L 283.612505 185.274356 
L 285.091394 185.172824 
L 286.570283 185.005623 
L 288.049173 184.766544 
L 289.528062 184.449505 
L 291.006951 184.055294 
L 292.485841 183.59494 
L 293.96473 183.080307 
L 295.443619 182.523261 
L 296.922509 181.935666 
L 298.401398 181.329387 
L 299.880287 180.716288 
L 301.359177 180.108235 
L 302.838066 179.517093 
L 304.316955 178.954725 
L 305.795845 178.433542 
L 307.274734 177.968437 
L 308.753623 177.575013 
L 310.232512 177.268871 
L 311.711402 177.065613 
L 313.190291 176.980839 
L 314.66918 177.030152 
L 316.14807 177.229153 
L 317.626959 177.593443 
L 319.105848 178.138625 
L 320.584738 178.878436 
L 322.063627 179.794504 
L 323.542516 180.841372 
L 325.021406 181.972738 
L 326.500295 183.142297 
L 327.979184 184.303746 
L 329.458073 185.410782 
L 330.936963 186.4171 
L 332.415852 187.276398 
L 333.894741 187.942371 
L 335.373631 188.368778 
L 336.85252 188.528327 
L 338.331409 188.439227 
L 339.810299 188.126378 
L 341.289188 187.614678 
L 342.768077 186.929028 
L 344.246967 186.094327 
L 345.725856 185.135474 
L 347.204745 184.077369 
L 348.683635 182.944911 
L 350.162524 181.763 
L 351.641413 180.555672 
L 353.120302 179.340216 
L 354.599192 178.130743 
L 356.078081 176.94135 
L 357.55697 175.786131 
L 359.03586 174.67918 
L 360.514749 173.634592 
L 361.993638 172.666463 
L 363.472528 171.788885 
L 364.951417 171.015955 
L 366.430306 170.361766 
L 367.909196 169.840414 
L 369.388085 169.465994 
L 370.866974 169.252599 
L 372.345864 169.214324 
L 373.824753 169.365265 
L 375.303642 169.719515 
L 376.782531 170.291171 
L 378.261421 171.094325 
L 379.74031 172.143073 
L 381.219199 173.45151 
L 381.219199 149.040943 
L 381.219199 149.040943 
L 379.74031 145.747888 
L 378.261421 142.936705 
L 376.782531 140.580947 
L 375.303642 138.65417 
L 373.824753 137.12993 
L 372.345864 135.981781 
L 370.866974 135.183278 
L 369.388085 134.707978 
L 367.909196 134.529434 
L 366.430306 134.621203 
L 364.951417 134.956838 
L 363.472528 135.509897 
L 361.993638 136.253932 
L 360.514749 137.162501 
L 359.03586 138.209158 
L 357.55697 139.367457 
L 356.078081 140.610955 
L 354.599192 141.913207 
L 353.120302 143.247767 
L 351.641413 144.588191 
L 350.162524 145.908037 
L 348.683635 147.181445 
L 347.204745 148.383789 
L 345.725856 149.490601 
L 344.246967 150.477412 
L 342.768077 151.319755 
L 341.289188 151.993161 
L 339.810299 152.473162 
L 338.331409 152.735291 
L 336.85252 152.755078 
L 335.373631 152.508057 
L 333.894741 151.977407 
L 332.415852 151.198323 
L 330.936963 150.227662 
L 329.458073 149.122354 
L 327.979184 147.939325 
L 326.500295 146.735505 
L 325.021406 145.567821 
L 323.542516 144.493203 
L 322.063627 143.568577 
L 320.584738 142.850872 
L 319.105848 142.395693 
L 317.626959 142.21636 
L 316.14807 142.276053 
L 314.66918 142.535048 
L 313.190291 142.953616 
L 311.711402 143.492032 
L 310.232512 144.11057 
L 308.753623 144.769502 
L 307.274734 145.429101 
L 305.795845 146.049642 
L 304.316955 146.591399 
L 302.838066 147.025497 
L 301.359177 147.361172 
L 299.880287 147.616018 
L 298.401398 147.807633 
L 296.922509 147.953612 
L 295.443619 148.07155 
L 293.96473 148.179044 
L 292.485841 148.29369 
L 291.006951 148.433083 
L 289.528062 148.614819 
L 288.049173 148.854244 
L 286.570283 149.139107 
L 285.091394 149.438657 
L 283.612505 149.721798 
L 282.133616 149.957435 
L 280.654726 150.114476 
L 279.175837 150.161824 
L 277.696948 150.068385 
L 276.218058 149.803066 
L 274.739169 149.334771 
L 273.26028 148.632749 
L 271.78139 147.703685 
L 270.302501 146.624828 
L 268.823612 145.481247 
L 267.344722 144.358011 
L 265.865833 143.340188 
L 264.386944 142.512848 
L 262.908054 141.961058 
L 261.429165 141.769888 
L 259.950276 142.024406 
L 258.471387 142.809682 
L 256.992497 144.186196 
L 255.513608 146.068427 
L 254.034719 148.317169 
L 252.555829 150.793133 
L 251.07694 153.35703 
L 249.598051 155.869569 
L 248.119161 158.191462 
L 246.640272 160.183419 
L 245.161383 161.706151 
L 243.682493 162.620369 
L 242.203604 162.791846 
L 240.724715 162.215577 
L 239.245825 161.023327 
L 237.766936 159.353431 
L 236.288047 157.344224 
L 234.809158 155.13404 
L 233.330268 152.861215 
L 231.851379 150.664083 
L 230.37249 148.680979 
L 228.8936 147.050239 
L 227.414711 145.910172 
L 225.935822 145.350748 
L 224.456932 145.312694 
L 222.978043 145.708029 
L 221.499154 146.448769 
L 220.020264 147.446932 
L 218.541375 148.614536 
L 217.062486 149.863597 
L 215.583596 151.106133 
L 214.104707 152.254161 
L 212.625818 153.2197 
L 211.146929 153.921761 
L 209.668039 154.35268 
L 208.18915 154.54856 
L 206.710261 154.54609 
L 205.231371 154.381959 
L 203.752482 154.092854 
L 202.273593 153.715464 
L 200.794703 153.286479 
L 199.315814 152.842586 
L 197.836925 152.420475 
L 196.358035 152.056589 
L 194.879146 151.769164 
L 193.400257 151.545923 
L 191.921368 151.371682 
L 190.442478 151.231254 
L 188.963589 151.109453 
L 187.4847 150.991095 
L 186.00581 150.860992 
L 184.526921 150.70396 
L 183.048032 150.504813 
L 181.569142 150.248365 
L 180.090253 149.924497 
L 178.611364 149.54943 
L 177.132474 149.147917 
L 175.653585 148.744715 
L 174.174696 148.36458 
L 172.695806 148.032271 
L 171.216917 147.772542 
L 169.738028 147.610153 
L 168.259139 147.569858 
L 166.780249 147.676416 
L 165.30136 147.95376 
L 163.822471 148.408679 
L 162.343581 149.031764 
L 160.864692 149.812973 
L 159.385803 150.742263 
L 157.906913 151.80959 
L 156.428024 153.004911 
L 154.949135 154.318184 
L 153.470245 155.739365 
L 151.991356 157.258411 
L 150.512467 158.865258 
L 149.033577 160.536239 
L 147.554688 162.210686 
L 146.075799 163.821704 
L 144.59691 165.302397 
L 143.11802 166.585867 
L 141.639131 167.605219 
L 140.160242 168.293557 
L 138.681352 168.583984 
L 137.202463 168.409603 
L 135.723574 167.703519 
L 134.244684 166.411738 
L 132.765795 164.596736 
L 131.286906 162.382774 
L 129.808016 159.894678 
L 128.329127 157.257275 
L 126.850238 154.595393 
L 125.371348 152.033859 
L 123.892459 149.697498 
L 122.41357 147.71114 
L 120.934681 146.19961 
L 119.455791 145.286098 
L 117.976902 145.005048 
L 116.498013 145.258562 
L 115.019123 145.937947 
L 113.540234 146.934508 
L 112.061345 148.139551 
L 110.582455 149.444382 
L 109.103566 150.740309 
L 107.624677 151.918635 
L 106.145787 152.870669 
L 104.666898 153.487716 
L 103.188009 153.689158 
L 101.70912 153.52235 
L 100.23023 153.071088 
L 98.751341 152.419169 
L 97.272452 151.650391 
L 95.793562 150.848551 
L 94.314673 150.097448 
L 92.835784 149.480879 
L 91.356894 149.082642 
L 89.878005 148.986534 
L 88.399116 149.271892 
L 86.920226 149.941137 
L 85.441337 150.931825 
L 83.962448 152.179478 
L 82.483558 153.619622 
L 81.004669 155.187781 
L 79.52578 156.819477 
L 78.046891 158.450236 
L 76.568001 160.015581 
L 75.089112 161.451036 
L 73.610223 162.692196 
L 72.131333 163.695953 
L 70.652444 164.470347 
L 69.173555 165.030939 
L 67.694665 165.393289 
L 66.215776 165.572957 
L 64.736887 165.585502 
L 63.257997 165.446485 
L 61.779108 165.171466 
L 60.300219 164.776006 
L 58.821329 164.275663 
L 57.34244 163.686225 
L 55.863551 163.025247 
L 54.384662 162.311117 
L 52.905772 161.56223 
L 51.426883 160.796978 
L 49.947994 160.033754 
L 48.469104 159.290952 
L 46.990215 158.586965 
L 45.511326 157.940186 
L 44.032436 157.369008 
L 42.553547 156.891825 
L 41.074658 156.52703 
L 39.595768 156.293016 
L 38.116879 156.208176 
L 36.63799 156.290904 
L 35.1591 156.559592 
L 33.680211 157.032635 
L 32.201322 157.728425 
L 30.722433 158.665355 
L 29.243543 159.86182 
L 27.764654 161.336211 
z
" clip-path="url(#p65ecc39a92)" style="fill: #aec7e8"/>
   </g>
   <g id="FillBetweenPolyCollection_3">
    <path d="M 27.764654 128.782812 
L 27.764654 161.336211 
L 29.243543 159.86182 
L 30.722433 158.665355 
L 32.201322 157.728425 
L 33.680211 157.032635 
L 35.1591 156.559592 
L 36.63799 156.290904 
L 38.116879 156.208176 
L 39.595768 156.293016 
L 41.074658 156.52703 
L 42.553547 156.891825 
L 44.032436 157.369008 
L 45.511326 157.940186 
L 46.990215 158.586965 
L 48.469104 159.290952 
L 49.947994 160.033754 
L 51.426883 160.796978 
L 52.905772 161.56223 
L 54.384662 162.311117 
L 55.863551 163.025247 
L 57.34244 163.686225 
L 58.821329 164.275663 
L 60.300219 164.776006 
L 61.779108 165.171466 
L 63.257997 165.446485 
L 64.736887 165.585502 
L 66.215776 165.572957 
L 67.694665 165.393289 
L 69.173555 165.030939 
L 70.652444 164.470347 
L 72.131333 163.695953 
L 73.610223 162.692196 
L 75.089112 161.451036 
L 76.568001 160.015581 
L 78.046891 158.450236 
L 79.52578 156.819477 
L 81.004669 155.187781 
L 82.483558 153.619622 
L 83.962448 152.179478 
L 85.441337 150.931825 
L 86.920226 149.941137 
L 88.399116 149.271892 
L 89.878005 148.986534 
L 91.356894 149.082642 
L 92.835784 149.480879 
L 94.314673 150.097448 
L 95.793562 150.848551 
L 97.272452 151.650391 
L 98.751341 152.419169 
L 100.23023 153.071088 
L 101.70912 153.52235 
L 103.188009 153.689158 
L 104.666898 153.487716 
L 106.145787 152.870669 
L 107.624677 151.918635 
L 109.103566 150.740309 
L 110.582455 149.444382 
L 112.061345 148.139551 
L 113.540234 146.934508 
L 115.019123 145.937947 
L 116.498013 145.258562 
L 117.976902 145.005048 
L 119.455791 145.286098 
L 120.934681 146.19961 
L 122.41357 147.71114 
L 123.892459 149.697498 
L 125.371348 152.033859 
L 126.850238 154.595393 
L 128.329127 157.257275 
L 129.808016 159.894678 
L 131.286906 162.382774 
L 132.765795 164.596736 
L 134.244684 166.411738 
L 135.723574 167.703519 
L 137.202463 168.409603 
L 138.681352 168.583984 
L 140.160242 168.293557 
L 141.639131 167.605219 
L 143.11802 166.585867 
L 144.59691 165.302397 
L 146.075799 163.821704 
L 147.554688 162.210686 
L 149.033577 160.536239 
L 150.512467 158.865258 
L 151.991356 157.258411 
L 153.470245 155.739365 
L 154.949135 154.318184 
L 156.428024 153.004911 
L 157.906913 151.80959 
L 159.385803 150.742263 
L 160.864692 149.812973 
L 162.343581 149.031764 
L 163.822471 148.408679 
L 165.30136 147.95376 
L 166.780249 147.676416 
L 168.259139 147.569858 
L 169.738028 147.610153 
L 171.216917 147.772542 
L 172.695806 148.032271 
L 174.174696 148.36458 
L 175.653585 148.744715 
L 177.132474 149.147917 
L 178.611364 149.54943 
L 180.090253 149.924497 
L 181.569142 150.248365 
L 183.048032 150.504813 
L 184.526921 150.70396 
L 186.00581 150.860992 
L 187.4847 150.991095 
L 188.963589 151.109453 
L 190.442478 151.231254 
L 191.921368 151.371682 
L 193.400257 151.545923 
L 194.879146 151.769164 
L 196.358035 152.056589 
L 197.836925 152.420475 
L 199.315814 152.842586 
L 200.794703 153.286479 
L 202.273593 153.715464 
L 203.752482 154.092854 
L 205.231371 154.381959 
L 206.710261 154.54609 
L 208.18915 154.54856 
L 209.668039 154.35268 
L 211.146929 153.921761 
L 212.625818 153.2197 
L 214.104707 152.254161 
L 215.583596 151.106133 
L 217.062486 149.863597 
L 218.541375 148.614536 
L 220.020264 147.446932 
L 221.499154 146.448769 
L 222.978043 145.708029 
L 224.456932 145.312694 
L 225.935822 145.350748 
L 227.414711 145.910172 
L 228.8936 147.050239 
L 230.37249 148.680979 
L 231.851379 150.664083 
L 233.330268 152.861215 
L 234.809158 155.13404 
L 236.288047 157.344224 
L 237.766936 159.353431 
L 239.245825 161.023327 
L 240.724715 162.215577 
L 242.203604 162.791846 
L 243.682493 162.620369 
L 245.161383 161.706151 
L 246.640272 160.183419 
L 248.119161 158.191462 
L 249.598051 155.869569 
L 251.07694 153.35703 
L 252.555829 150.793133 
L 254.034719 148.317169 
L 255.513608 146.068427 
L 256.992497 144.186196 
L 258.471387 142.809682 
L 259.950276 142.024406 
L 261.429165 141.769888 
L 262.908054 141.961058 
L 264.386944 142.512848 
L 265.865833 143.340188 
L 267.344722 144.358011 
L 268.823612 145.481247 
L 270.302501 146.624828 
L 271.78139 147.703685 
L 273.26028 148.632749 
L 274.739169 149.334771 
L 276.218058 149.803066 
L 277.696948 150.068385 
L 279.175837 150.161824 
L 280.654726 150.114476 
L 282.133616 149.957435 
L 283.612505 149.721798 
L 285.091394 149.438657 
L 286.570283 149.139107 
L 288.049173 148.854244 
L 289.528062 148.614819 
L 291.006951 148.433083 
L 292.485841 148.29369 
L 293.96473 148.179044 
L 295.443619 148.07155 
L 296.922509 147.953612 
L 298.401398 147.807633 
L 299.880287 147.616018 
L 301.359177 147.361172 
L 302.838066 147.025497 
L 304.316955 146.591399 
L 305.795845 146.049642 
L 307.274734 145.429101 
L 308.753623 144.769502 
L 310.232512 144.11057 
L 311.711402 143.492032 
L 313.190291 142.953616 
L 314.66918 142.535048 
L 316.14807 142.276053 
L 317.626959 142.21636 
L 319.105848 142.395693 
L 320.584738 142.850872 
L 322.063627 143.568577 
L 323.542516 144.493203 
L 325.021406 145.567821 
L 326.500295 146.735505 
L 327.979184 147.939325 
L 329.458073 149.122354 
L 330.936963 150.227662 
L 332.415852 151.198323 
L 333.894741 151.977407 
L 335.373631 152.508057 
L 336.85252 152.755078 
L 338.331409 152.735291 
L 339.810299 152.473162 
L 341.289188 151.993161 
L 342.768077 151.319755 
L 344.246967 150.477412 
L 345.725856 149.490601 
L 347.204745 148.383789 
L 348.683635 147.181445 
L 350.162524 145.908037 
L 351.641413 144.588191 
L 353.120302 143.247767 
L 354.599192 141.913207 
L 356.078081 140.610955 
L 357.55697 139.367457 
L 359.03586 138.209158 
L 360.514749 137.162501 
L 361.993638 136.253932 
L 363.472528 135.509897 
L 364.951417 134.956838 
L 366.430306 134.621203 
L 367.909196 134.529434 
L 369.388085 134.707978 
L 370.866974 135.183278 
L 372.345864 135.981781 
L 373.824753 137.12993 
L 375.303642 138.65417 
L 376.782531 140.580947 
L 378.261421 142.936705 
L 379.74031 145.747888 
L 381.219199 149.040943 
L 381.219199 70.440689 
L 381.219199 70.440689 
L 379.74031 66.64391 
L 378.261421 63.779027 
L 376.782531 61.770591 
L 375.303642 60.543149 
L 373.824753 60.02125 
L 372.345864 60.129442 
L 370.866974 60.792273 
L 369.388085 61.934293 
L 367.909196 63.480048 
L 366.430306 65.354089 
L 364.951417 67.480962 
L 363.472528 69.785217 
L 361.993638 72.191403 
L 360.514749 74.624066 
L 359.03586 77.007756 
L 357.55697 79.267022 
L 356.078081 81.32641 
L 354.599192 83.110471 
L 353.120302 84.543753 
L 351.641413 85.550803 
L 350.162524 86.056457 
L 348.683635 86.034812 
L 347.204745 85.56466 
L 345.725856 84.738186 
L 344.246967 83.647575 
L 342.768077 82.385012 
L 341.289188 81.042681 
L 339.810299 79.712768 
L 338.331409 78.487457 
L 336.85252 77.458933 
L 335.373631 76.719382 
L 333.894741 76.345738 
L 332.415852 76.311212 
L 330.936963 76.545824 
L 329.458073 76.979451 
L 327.979184 77.541968 
L 326.500295 78.163253 
L 325.021406 78.773182 
L 323.542516 79.301632 
L 322.063627 79.678479 
L 320.584738 79.8336 
L 319.105848 79.698997 
L 317.626959 79.274534 
L 316.14807 78.640545 
L 314.66918 77.882029 
L 313.190291 77.083987 
L 311.711402 76.33142 
L 310.232512 75.709328 
L 308.753623 75.302713 
L 307.274734 75.196573 
L 305.795845 75.475911 
L 304.316955 76.225724 
L 302.838066 77.494753 
L 301.359177 79.204413 
L 299.880287 81.248182 
L 298.401398 83.519541 
L 296.922509 85.911968 
L 295.443619 88.318944 
L 293.96473 90.633946 
L 292.485841 92.750455 
L 291.006951 94.561949 
L 289.528062 95.961909 
L 288.049173 96.850789 
L 286.570283 97.214552 
L 285.091394 97.0965 
L 283.612505 96.540995 
L 282.133616 95.592397 
L 280.654726 94.295067 
L 279.175837 92.693365 
L 277.696948 90.831653 
L 276.218058 88.754291 
L 274.739169 86.50564 
L 273.26028 84.130212 
L 271.78139 81.688933 
L 270.302501 79.273678 
L 268.823612 76.979749 
L 267.344722 74.902448 
L 265.865833 73.137076 
L 264.386944 71.778937 
L 262.908054 70.923331 
L 261.429165 70.665562 
L 259.950276 71.10093 
L 258.471387 72.324739 
L 256.992497 74.402785 
L 255.513608 77.225665 
L 254.034719 80.61955 
L 252.555829 84.410512 
L 251.07694 88.424626 
L 249.598051 92.487965 
L 248.119161 96.426601 
L 246.640272 100.066607 
L 245.161383 103.234057 
L 243.682493 105.755024 
L 242.203604 107.460767 
L 240.724715 108.314965 
L 239.245825 108.421441 
L 237.766936 107.890752 
L 236.288047 106.833457 
L 234.809158 105.360112 
L 233.330268 103.581275 
L 231.851379 101.607503 
L 230.37249 99.549355 
L 228.8936 97.517387 
L 227.414711 95.622143 
L 225.935822 93.949195 
L 224.456932 92.507006 
L 222.978043 91.289209 
L 221.499154 90.289435 
L 220.020264 89.501315 
L 218.541375 88.918481 
L 217.062486 88.534566 
L 215.583596 88.3432 
L 214.104707 88.338015 
L 212.625818 88.512643 
L 211.146929 88.860026 
L 209.668039 89.365867 
L 208.18915 90.01155 
L 206.710261 90.778402 
L 205.231371 91.647749 
L 203.752482 92.600918 
L 202.273593 93.619235 
L 200.794703 94.684027 
L 199.315814 95.776619 
L 197.836925 96.878338 
L 196.358035 97.970558 
L 194.879146 99.038211 
L 193.400257 100.07219 
L 191.921368 101.063954 
L 190.442478 102.004966 
L 188.963589 102.886685 
L 187.4847 103.700574 
L 186.00581 104.438093 
L 184.526921 105.090702 
L 183.048032 105.649864 
L 181.569142 106.107038 
L 180.090253 106.455277 
L 178.611364 106.695908 
L 177.132474 106.832934 
L 175.653585 106.870363 
L 174.174696 106.812201 
L 172.695806 106.662456 
L 171.216917 106.425133 
L 169.738028 106.10424 
L 168.259139 105.703782 
L 166.780249 105.227767 
L 165.30136 104.681156 
L 163.822471 104.088779 
L 162.343581 103.494239 
L 160.864692 102.941875 
L 159.385803 102.476027 
L 157.906913 102.141031 
L 156.428024 101.981228 
L 154.949135 102.040956 
L 153.470245 102.364553 
L 151.991356 102.996359 
L 150.512467 103.980657 
L 149.033577 105.326397 
L 147.554688 106.94643 
L 146.075799 108.737425 
L 144.59691 110.596051 
L 143.11802 112.418976 
L 141.639131 114.102869 
L 140.160242 115.544399 
L 138.681352 116.640235 
L 137.202463 117.287046 
L 135.723574 117.381499 
L 134.244684 116.836482 
L 132.765795 115.711267 
L 131.286906 114.14278 
L 129.808016 112.26866 
L 128.329127 110.226545 
L 126.850238 108.154076 
L 125.371348 106.18889 
L 123.892459 104.468627 
L 122.41357 103.130926 
L 120.934681 102.313425 
L 119.455791 102.15182 
L 117.976902 102.676484 
L 116.498013 103.760729 
L 115.019123 105.265054 
L 113.540234 107.049958 
L 112.061345 108.975941 
L 110.582455 110.903501 
L 109.103566 112.693138 
L 107.624677 114.20535 
L 106.145787 115.300637 
L 104.666898 115.839497 
L 103.188009 115.720861 
L 101.70912 115.018814 
L 100.23023 113.857322 
L 98.751341 112.360354 
L 97.272452 110.65188 
L 95.793562 108.855866 
L 94.314673 107.096283 
L 92.835784 105.497099 
L 91.356894 104.182283 
L 89.878005 103.275804 
L 88.399116 102.895784 
L 86.920226 103.059599 
L 85.441337 103.699652 
L 83.962448 104.745686 
L 82.483558 106.127445 
L 81.004669 107.774673 
L 79.52578 109.617113 
L 78.046891 111.584508 
L 76.568001 113.606603 
L 75.089112 115.613139 
L 73.610223 117.533917 
L 72.131333 119.315492 
L 70.652444 120.944663 
L 69.173555 122.414143 
L 67.694665 123.716648 
L 66.215776 124.844892 
L 64.736887 125.79159 
L 63.257997 126.549456 
L 61.779108 127.111205 
L 60.300219 127.469551 
L 58.821329 127.617209 
L 57.34244 127.550078 
L 55.863551 127.288953 
L 54.384662 126.866343 
L 52.905772 126.314823 
L 51.426883 125.666972 
L 49.947994 124.955365 
L 48.469104 124.212579 
L 46.990215 123.471192 
L 45.511326 122.763779 
L 44.032436 122.122918 
L 42.553547 121.581186 
L 41.074658 121.171159 
L 39.595768 120.925413 
L 38.116879 120.876527 
L 36.63799 121.057075 
L 35.1591 121.499636 
L 33.680211 122.236787 
L 32.201322 123.301102 
L 30.722433 124.725161 
L 29.243543 126.541538 
L 27.764654 128.782812 
z
" clip-path="url(#p65ecc39a92)" style="fill: #ff7f0e"/>
   </g>
   <g id="matplotlib.axis_1">
    <g id="xtick_1">
     <g id="line2d_1">
      <defs>
       <path id="m3a04446fd5" d="M 0 0 
L 0 3.5 
" style="stroke: #000000; stroke-width: 0.8"/>
      </defs>
      <g>
       <use xlink:href="#m3a04446fd5" x="27.764654" y="314.12125" style="stroke: #000000; stroke-width: 0.8"/>
      </g>
     </g>
     <g id="text_1">
      <!-- 1986 -->
      <g transform="translate(12.109973 340.173358) rotate(-45) scale(0.1 -0.1)">
       <defs>
        <path id="TimesNewRomanPSMT-31" d="M 750 3822 
L 1781 4325 
L 1884 4325 
L 1884 747 
Q 1884 391 1914 303 
Q 1944 216 2037 169 
Q 2131 122 2419 116 
L 2419 0 
L 825 0 
L 825 116 
Q 1125 122 1212 167 
Q 1300 213 1334 289 
Q 1369 366 1369 747 
L 1369 3034 
Q 1369 3497 1338 3628 
Q 1316 3728 1258 3775 
Q 1200 3822 1119 3822 
Q 1003 3822 797 3725 
L 750 3822 
z
" transform="scale(0.015625)"/>
        <path id="TimesNewRomanPSMT-39" d="M 338 -88 
L 338 28 
Q 744 34 1094 217 
Q 1444 400 1770 856 
Q 2097 1313 2225 1859 
Q 1734 1544 1338 1544 
Q 891 1544 572 1889 
Q 253 2234 253 2806 
Q 253 3363 572 3797 
Q 956 4325 1575 4325 
Q 2097 4325 2469 3894 
Q 2925 3359 2925 2575 
Q 2925 1869 2578 1258 
Q 2231 647 1613 244 
Q 1109 -88 516 -88 
L 338 -88 
z
M 2275 2091 
Q 2331 2497 2331 2741 
Q 2331 3044 2228 3395 
Q 2125 3747 1936 3934 
Q 1747 4122 1506 4122 
Q 1228 4122 1018 3872 
Q 809 3622 809 3128 
Q 809 2469 1088 2097 
Q 1291 1828 1588 1828 
Q 1731 1828 1928 1897 
Q 2125 1966 2275 2091 
z
" transform="scale(0.015625)"/>
        <path id="TimesNewRomanPSMT-38" d="M 1228 2134 
Q 725 2547 579 2797 
Q 434 3047 434 3316 
Q 434 3728 753 4026 
Q 1072 4325 1600 4325 
Q 2113 4325 2425 4047 
Q 2738 3769 2738 3413 
Q 2738 3175 2569 2928 
Q 2400 2681 1866 2347 
Q 2416 1922 2594 1678 
Q 2831 1359 2831 1006 
Q 2831 559 2490 242 
Q 2150 -75 1597 -75 
Q 994 -75 656 303 
Q 388 606 388 966 
Q 388 1247 577 1523 
Q 766 1800 1228 2134 
z
M 1719 2469 
Q 2094 2806 2194 3001 
Q 2294 3197 2294 3444 
Q 2294 3772 2109 3958 
Q 1925 4144 1606 4144 
Q 1288 4144 1088 3959 
Q 888 3775 888 3528 
Q 888 3366 970 3203 
Q 1053 3041 1206 2894 
L 1719 2469 
z
M 1375 2016 
Q 1116 1797 991 1539 
Q 866 1281 866 981 
Q 866 578 1086 336 
Q 1306 94 1647 94 
Q 1984 94 2187 284 
Q 2391 475 2391 747 
Q 2391 972 2272 1150 
Q 2050 1481 1375 2016 
z
" transform="scale(0.015625)"/>
        <path id="TimesNewRomanPSMT-36" d="M 2869 4325 
L 2869 4209 
Q 2456 4169 2195 4045 
Q 1934 3922 1679 3669 
Q 1425 3416 1258 3105 
Q 1091 2794 978 2366 
Q 1428 2675 1881 2675 
Q 2316 2675 2634 2325 
Q 2953 1975 2953 1425 
Q 2953 894 2631 456 
Q 2244 -75 1606 -75 
Q 1172 -75 869 213 
Q 275 772 275 1663 
Q 275 2231 503 2743 
Q 731 3256 1154 3653 
Q 1578 4050 1965 4187 
Q 2353 4325 2688 4325 
L 2869 4325 
z
M 925 2138 
Q 869 1716 869 1456 
Q 869 1156 980 804 
Q 1091 453 1309 247 
Q 1469 100 1697 100 
Q 1969 100 2183 356 
Q 2397 613 2397 1088 
Q 2397 1622 2184 2012 
Q 1972 2403 1581 2403 
Q 1463 2403 1327 2353 
Q 1191 2303 925 2138 
z
" transform="scale(0.015625)"/>
       </defs>
       <use xlink:href="#TimesNewRomanPSMT-31"/>
       <use xlink:href="#TimesNewRomanPSMT-39" transform="translate(50 0)"/>
       <use xlink:href="#TimesNewRomanPSMT-38" transform="translate(100 0)"/>
       <use xlink:href="#TimesNewRomanPSMT-36" transform="translate(150 0)"/>
      </g>
     </g>
    </g>
    <g id="xtick_2">
     <g id="line2d_2">
      <g>
       <use xlink:href="#m3a04446fd5" x="58.499832" y="314.12125" style="stroke: #000000; stroke-width: 0.8"/>
      </g>
     </g>
     <g id="text_2">
      <!-- 1988 -->
      <g transform="translate(42.845151 340.173358) rotate(-45) scale(0.1 -0.1)">
       <use xlink:href="#TimesNewRomanPSMT-31"/>
       <use xlink:href="#TimesNewRomanPSMT-39" transform="translate(50 0)"/>
       <use xlink:href="#TimesNewRomanPSMT-38" transform="translate(100 0)"/>
       <use xlink:href="#TimesNewRomanPSMT-38" transform="translate(150 0)"/>
      </g>
     </g>
    </g>
    <g id="xtick_3">
     <g id="line2d_3">
      <g>
       <use xlink:href="#m3a04446fd5" x="89.23501" y="314.12125" style="stroke: #000000; stroke-width: 0.8"/>
      </g>
     </g>
     <g id="text_3">
      <!-- 1990 -->
      <g transform="translate(73.580328 340.173358) rotate(-45) scale(0.1 -0.1)">
       <defs>
        <path id="TimesNewRomanPSMT-30" d="M 231 2094 
Q 231 2819 450 3342 
Q 669 3866 1031 4122 
Q 1313 4325 1613 4325 
Q 2100 4325 2488 3828 
Q 2972 3213 2972 2159 
Q 2972 1422 2759 906 
Q 2547 391 2217 158 
Q 1888 -75 1581 -75 
Q 975 -75 572 641 
Q 231 1244 231 2094 
z
M 844 2016 
Q 844 1141 1059 588 
Q 1238 122 1591 122 
Q 1759 122 1940 273 
Q 2122 425 2216 781 
Q 2359 1319 2359 2297 
Q 2359 3022 2209 3506 
Q 2097 3866 1919 4016 
Q 1791 4119 1609 4119 
Q 1397 4119 1231 3928 
Q 1006 3669 925 3112 
Q 844 2556 844 2016 
z
" transform="scale(0.015625)"/>
       </defs>
       <use xlink:href="#TimesNewRomanPSMT-31"/>
       <use xlink:href="#TimesNewRomanPSMT-39" transform="translate(50 0)"/>
       <use xlink:href="#TimesNewRomanPSMT-39" transform="translate(100 0)"/>
       <use xlink:href="#TimesNewRomanPSMT-30" transform="translate(150 0)"/>
      </g>
     </g>
    </g>
    <g id="xtick_4">
     <g id="line2d_4">
      <g>
       <use xlink:href="#m3a04446fd5" x="119.970188" y="314.12125" style="stroke: #000000; stroke-width: 0.8"/>
      </g>
     </g>
     <g id="text_4">
      <!-- 1992 -->
      <g transform="translate(104.315506 340.173358) rotate(-45) scale(0.1 -0.1)">
       <defs>
        <path id="TimesNewRomanPSMT-32" d="M 2934 816 
L 2638 0 
L 138 0 
L 138 116 
Q 1241 1122 1691 1759 
Q 2141 2397 2141 2925 
Q 2141 3328 1894 3587 
Q 1647 3847 1303 3847 
Q 991 3847 742 3664 
Q 494 3481 375 3128 
L 259 3128 
Q 338 3706 661 4015 
Q 984 4325 1469 4325 
Q 1984 4325 2329 3994 
Q 2675 3663 2675 3213 
Q 2675 2891 2525 2569 
Q 2294 2063 1775 1497 
Q 997 647 803 472 
L 1909 472 
Q 2247 472 2383 497 
Q 2519 522 2628 598 
Q 2738 675 2819 816 
L 2934 816 
z
" transform="scale(0.015625)"/>
       </defs>
       <use xlink:href="#TimesNewRomanPSMT-31"/>
       <use xlink:href="#TimesNewRomanPSMT-39" transform="translate(50 0)"/>
       <use xlink:href="#TimesNewRomanPSMT-39" transform="translate(100 0)"/>
       <use xlink:href="#TimesNewRomanPSMT-32" transform="translate(150 0)"/>
      </g>
     </g>
    </g>
    <g id="xtick_5">
     <g id="line2d_5">
      <g>
       <use xlink:href="#m3a04446fd5" x="150.705365" y="314.12125" style="stroke: #000000; stroke-width: 0.8"/>
      </g>
     </g>
     <g id="text_5">
      <!-- 1994 -->
      <g transform="translate(135.050684 340.173358) rotate(-45) scale(0.1 -0.1)">
       <defs>
        <path id="TimesNewRomanPSMT-34" d="M 2978 1563 
L 2978 1119 
L 2409 1119 
L 2409 0 
L 1894 0 
L 1894 1119 
L 100 1119 
L 100 1519 
L 2066 4325 
L 2409 4325 
L 2409 1563 
L 2978 1563 
z
M 1894 1563 
L 1894 3666 
L 406 1563 
L 1894 1563 
z
" transform="scale(0.015625)"/>
       </defs>
       <use xlink:href="#TimesNewRomanPSMT-31"/>
       <use xlink:href="#TimesNewRomanPSMT-39" transform="translate(50 0)"/>
       <use xlink:href="#TimesNewRomanPSMT-39" transform="translate(100 0)"/>
       <use xlink:href="#TimesNewRomanPSMT-34" transform="translate(150 0)"/>
      </g>
     </g>
    </g>
    <g id="xtick_6">
     <g id="line2d_6">
      <g>
       <use xlink:href="#m3a04446fd5" x="181.440543" y="314.12125" style="stroke: #000000; stroke-width: 0.8"/>
      </g>
     </g>
     <g id="text_6">
      <!-- 1996 -->
      <g transform="translate(165.785862 340.173358) rotate(-45) scale(0.1 -0.1)">
       <use xlink:href="#TimesNewRomanPSMT-31"/>
       <use xlink:href="#TimesNewRomanPSMT-39" transform="translate(50 0)"/>
       <use xlink:href="#TimesNewRomanPSMT-39" transform="translate(100 0)"/>
       <use xlink:href="#TimesNewRomanPSMT-36" transform="translate(150 0)"/>
      </g>
     </g>
    </g>
    <g id="xtick_7">
     <g id="line2d_7">
      <g>
       <use xlink:href="#m3a04446fd5" x="212.175721" y="314.12125" style="stroke: #000000; stroke-width: 0.8"/>
      </g>
     </g>
     <g id="text_7">
      <!-- 1998 -->
      <g transform="translate(196.52104 340.173358) rotate(-45) scale(0.1 -0.1)">
       <use xlink:href="#TimesNewRomanPSMT-31"/>
       <use xlink:href="#TimesNewRomanPSMT-39" transform="translate(50 0)"/>
       <use xlink:href="#TimesNewRomanPSMT-39" transform="translate(100 0)"/>
       <use xlink:href="#TimesNewRomanPSMT-38" transform="translate(150 0)"/>
      </g>
     </g>
    </g>
    <g id="xtick_8">
     <g id="line2d_8">
      <g>
       <use xlink:href="#m3a04446fd5" x="242.910899" y="314.12125" style="stroke: #000000; stroke-width: 0.8"/>
      </g>
     </g>
     <g id="text_8">
      <!-- 2000 -->
      <g transform="translate(227.256218 340.173358) rotate(-45) scale(0.1 -0.1)">
       <use xlink:href="#TimesNewRomanPSMT-32"/>
       <use xlink:href="#TimesNewRomanPSMT-30" transform="translate(50 0)"/>
       <use xlink:href="#TimesNewRomanPSMT-30" transform="translate(100 0)"/>
       <use xlink:href="#TimesNewRomanPSMT-30" transform="translate(150 0)"/>
      </g>
     </g>
    </g>
    <g id="xtick_9">
     <g id="line2d_9">
      <g>
       <use xlink:href="#m3a04446fd5" x="273.646077" y="314.12125" style="stroke: #000000; stroke-width: 0.8"/>
      </g>
     </g>
     <g id="text_9">
      <!-- 2002 -->
      <g transform="translate(257.991396 340.173358) rotate(-45) scale(0.1 -0.1)">
       <use xlink:href="#TimesNewRomanPSMT-32"/>
       <use xlink:href="#TimesNewRomanPSMT-30" transform="translate(50 0)"/>
       <use xlink:href="#TimesNewRomanPSMT-30" transform="translate(100 0)"/>
       <use xlink:href="#TimesNewRomanPSMT-32" transform="translate(150 0)"/>
      </g>
     </g>
    </g>
    <g id="xtick_10">
     <g id="line2d_10">
      <g>
       <use xlink:href="#m3a04446fd5" x="304.381255" y="314.12125" style="stroke: #000000; stroke-width: 0.8"/>
      </g>
     </g>
     <g id="text_10">
      <!-- 2004 -->
      <g transform="translate(288.726574 340.173358) rotate(-45) scale(0.1 -0.1)">
       <use xlink:href="#TimesNewRomanPSMT-32"/>
       <use xlink:href="#TimesNewRomanPSMT-30" transform="translate(50 0)"/>
       <use xlink:href="#TimesNewRomanPSMT-30" transform="translate(100 0)"/>
       <use xlink:href="#TimesNewRomanPSMT-34" transform="translate(150 0)"/>
      </g>
     </g>
    </g>
    <g id="xtick_11">
     <g id="line2d_11">
      <g>
       <use xlink:href="#m3a04446fd5" x="335.116433" y="314.12125" style="stroke: #000000; stroke-width: 0.8"/>
      </g>
     </g>
     <g id="text_11">
      <!-- 2006 -->
      <g transform="translate(319.461751 340.173358) rotate(-45) scale(0.1 -0.1)">
       <use xlink:href="#TimesNewRomanPSMT-32"/>
       <use xlink:href="#TimesNewRomanPSMT-30" transform="translate(50 0)"/>
       <use xlink:href="#TimesNewRomanPSMT-30" transform="translate(100 0)"/>
       <use xlink:href="#TimesNewRomanPSMT-36" transform="translate(150 0)"/>
      </g>
     </g>
    </g>
    <g id="xtick_12">
     <g id="line2d_12">
      <g>
       <use xlink:href="#m3a04446fd5" x="365.85161" y="314.12125" style="stroke: #000000; stroke-width: 0.8"/>
      </g>
     </g>
     <g id="text_12">
      <!-- 2008 -->
      <g transform="translate(350.196929 340.173358) rotate(-45) scale(0.1 -0.1)">
       <use xlink:href="#TimesNewRomanPSMT-32"/>
       <use xlink:href="#TimesNewRomanPSMT-30" transform="translate(50 0)"/>
       <use xlink:href="#TimesNewRomanPSMT-30" transform="translate(100 0)"/>
       <use xlink:href="#TimesNewRomanPSMT-38" transform="translate(150 0)"/>
      </g>
     </g>
    </g>
    <g id="text_13">
     <!-- Year -->
     <g transform="translate(193.434114 354.018404) scale(0.12 -0.12)">
      <defs>
       <path id="TimesNewRomanPSMT-59" d="M 3050 4238 
L 4528 4238 
L 4528 4122 
L 4447 4122 
Q 4366 4122 4209 4050 
Q 4053 3978 3925 3843 
Q 3797 3709 3609 3406 
L 2588 1797 
L 2588 734 
Q 2588 344 2675 247 
Q 2794 116 3050 116 
L 3188 116 
L 3188 0 
L 1388 0 
L 1388 116 
L 1538 116 
Q 1806 116 1919 278 
Q 1988 378 1988 734 
L 1988 1738 
L 825 3513 
Q 619 3825 545 3903 
Q 472 3981 241 4091 
Q 178 4122 59 4122 
L 59 4238 
L 1872 4238 
L 1872 4122 
L 1778 4122 
Q 1631 4122 1507 4053 
Q 1384 3984 1384 3847 
Q 1384 3734 1575 3441 
L 2459 2075 
L 3291 3381 
Q 3478 3675 3478 3819 
Q 3478 3906 3433 3975 
Q 3388 4044 3303 4083 
Q 3219 4122 3050 4122 
L 3050 4238 
z
" transform="scale(0.015625)"/>
       <path id="TimesNewRomanPSMT-65" d="M 681 1784 
Q 678 1147 991 784 
Q 1303 422 1725 422 
Q 2006 422 2214 576 
Q 2422 731 2563 1106 
L 2659 1044 
Q 2594 616 2278 264 
Q 1963 -88 1488 -88 
Q 972 -88 605 314 
Q 238 716 238 1394 
Q 238 2128 614 2539 
Q 991 2950 1559 2950 
Q 2041 2950 2350 2633 
Q 2659 2316 2659 1784 
L 681 1784 
z
M 681 1966 
L 2006 1966 
Q 1991 2241 1941 2353 
Q 1863 2528 1708 2628 
Q 1553 2728 1384 2728 
Q 1125 2728 920 2526 
Q 716 2325 681 1966 
z
" transform="scale(0.015625)"/>
       <path id="TimesNewRomanPSMT-61" d="M 1822 413 
Q 1381 72 1269 19 
Q 1100 -59 909 -59 
Q 613 -59 420 144 
Q 228 347 228 678 
Q 228 888 322 1041 
Q 450 1253 767 1440 
Q 1084 1628 1822 1897 
L 1822 2009 
Q 1822 2438 1686 2597 
Q 1550 2756 1291 2756 
Q 1094 2756 978 2650 
Q 859 2544 859 2406 
L 866 2225 
Q 866 2081 792 2003 
Q 719 1925 600 1925 
Q 484 1925 411 2006 
Q 338 2088 338 2228 
Q 338 2497 613 2722 
Q 888 2947 1384 2947 
Q 1766 2947 2009 2819 
Q 2194 2722 2281 2516 
Q 2338 2381 2338 1966 
L 2338 994 
Q 2338 584 2353 492 
Q 2369 400 2405 369 
Q 2441 338 2488 338 
Q 2538 338 2575 359 
Q 2641 400 2828 588 
L 2828 413 
Q 2478 -56 2159 -56 
Q 2006 -56 1915 50 
Q 1825 156 1822 413 
z
M 1822 616 
L 1822 1706 
Q 1350 1519 1213 1441 
Q 966 1303 859 1153 
Q 753 1003 753 825 
Q 753 600 887 451 
Q 1022 303 1197 303 
Q 1434 303 1822 616 
z
" transform="scale(0.015625)"/>
       <path id="TimesNewRomanPSMT-72" d="M 1038 2947 
L 1038 2303 
Q 1397 2947 1775 2947 
Q 1947 2947 2059 2842 
Q 2172 2738 2172 2600 
Q 2172 2478 2090 2393 
Q 2009 2309 1897 2309 
Q 1788 2309 1652 2417 
Q 1516 2525 1450 2525 
Q 1394 2525 1328 2463 
Q 1188 2334 1038 2041 
L 1038 669 
Q 1038 431 1097 309 
Q 1138 225 1241 169 
Q 1344 113 1538 113 
L 1538 0 
L 72 0 
L 72 113 
Q 291 113 397 181 
Q 475 231 506 341 
Q 522 394 522 644 
L 522 1753 
Q 522 2253 501 2348 
Q 481 2444 426 2487 
Q 372 2531 291 2531 
Q 194 2531 72 2484 
L 41 2597 
L 906 2947 
L 1038 2947 
z
" transform="scale(0.015625)"/>
      </defs>
      <use xlink:href="#TimesNewRomanPSMT-59"/>
      <use xlink:href="#TimesNewRomanPSMT-65" transform="translate(62.216797 0)"/>
      <use xlink:href="#TimesNewRomanPSMT-61" transform="translate(106.601562 0)"/>
      <use xlink:href="#TimesNewRomanPSMT-72" transform="translate(150.986328 0)"/>
     </g>
    </g>
   </g>
   <g id="patch_3">
    <path d="M 10.091927 314.12125 
L 10.091927 36.92125 
" style="fill: none; stroke: #000000; stroke-width: 0.8; stroke-linejoin: miter; stroke-linecap: square"/>
   </g>
   <g id="patch_4">
    <path d="M 398.891927 314.12125 
L 398.891927 36.92125 
" style="fill: none; stroke: #000000; stroke-width: 0.8; stroke-linejoin: miter; stroke-linecap: square"/>
   </g>
   <g id="patch_5">
    <path d="M 10.091927 314.12125 
L 398.891927 314.12125 
" style="fill: none; stroke: #000000; stroke-width: 0.8; stroke-linejoin: miter; stroke-linecap: square"/>
   </g>
   <g id="patch_6">
    <path d="M 10.091927 36.92125 
L 398.891927 36.92125 
" style="fill: none; stroke: #000000; stroke-width: 0.8; stroke-linejoin: miter; stroke-linecap: square"/>
   </g>
   <g id="text_14">
    <!-- Renewable Energy Production from 1986 to 2009 (MWh)  -->
    <g transform="translate(40.537708 16.92125) scale(0.14 -0.14)">
     <defs>
      <path id="TimesNewRomanPSMT-52" d="M 4325 0 
L 3194 0 
L 1759 1981 
Q 1600 1975 1500 1975 
Q 1459 1975 1412 1976 
Q 1366 1978 1316 1981 
L 1316 750 
Q 1316 350 1403 253 
Q 1522 116 1759 116 
L 1925 116 
L 1925 0 
L 109 0 
L 109 116 
L 269 116 
Q 538 116 653 291 
Q 719 388 719 750 
L 719 3488 
Q 719 3888 631 3984 
Q 509 4122 269 4122 
L 109 4122 
L 109 4238 
L 1653 4238 
Q 2328 4238 2648 4139 
Q 2969 4041 3192 3777 
Q 3416 3513 3416 3147 
Q 3416 2756 3161 2468 
Q 2906 2181 2372 2063 
L 3247 847 
Q 3547 428 3762 290 
Q 3978 153 4325 116 
L 4325 0 
z
M 1316 2178 
Q 1375 2178 1419 2176 
Q 1463 2175 1491 2175 
Q 2097 2175 2405 2437 
Q 2713 2700 2713 3106 
Q 2713 3503 2464 3751 
Q 2216 4000 1806 4000 
Q 1625 4000 1316 3941 
L 1316 2178 
z
" transform="scale(0.015625)"/>
      <path id="TimesNewRomanPSMT-6e" d="M 1034 2341 
Q 1538 2947 1994 2947 
Q 2228 2947 2397 2830 
Q 2566 2713 2666 2444 
Q 2734 2256 2734 1869 
L 2734 647 
Q 2734 375 2778 278 
Q 2813 200 2889 156 
Q 2966 113 3172 113 
L 3172 0 
L 1756 0 
L 1756 113 
L 1816 113 
Q 2016 113 2095 173 
Q 2175 234 2206 353 
Q 2219 400 2219 647 
L 2219 1819 
Q 2219 2209 2117 2386 
Q 2016 2563 1775 2563 
Q 1403 2563 1034 2156 
L 1034 647 
Q 1034 356 1069 288 
Q 1113 197 1189 155 
Q 1266 113 1500 113 
L 1500 0 
L 84 0 
L 84 113 
L 147 113 
Q 366 113 442 223 
Q 519 334 519 647 
L 519 1709 
Q 519 2225 495 2337 
Q 472 2450 423 2490 
Q 375 2531 294 2531 
Q 206 2531 84 2484 
L 38 2597 
L 900 2947 
L 1034 2947 
L 1034 2341 
z
" transform="scale(0.015625)"/>
      <path id="TimesNewRomanPSMT-77" d="M 41 2863 
L 1241 2863 
L 1241 2747 
Q 1075 2734 1023 2687 
Q 972 2641 972 2553 
Q 972 2456 1025 2319 
L 1638 672 
L 2253 2013 
L 2091 2434 
Q 2016 2622 1894 2694 
Q 1825 2738 1638 2747 
L 1638 2863 
L 3000 2863 
L 3000 2747 
Q 2775 2738 2681 2666 
Q 2619 2616 2619 2506 
Q 2619 2444 2644 2378 
L 3294 734 
L 3897 2319 
Q 3959 2488 3959 2588 
Q 3959 2647 3898 2694 
Q 3838 2741 3659 2747 
L 3659 2863 
L 4563 2863 
L 4563 2747 
Q 4291 2706 4163 2378 
L 3206 -88 
L 3078 -88 
L 2363 1741 
L 1528 -88 
L 1413 -88 
L 494 2319 
Q 403 2547 315 2626 
Q 228 2706 41 2747 
L 41 2863 
z
" transform="scale(0.015625)"/>
      <path id="TimesNewRomanPSMT-62" d="M 984 2369 
Q 1400 2947 1881 2947 
Q 2322 2947 2650 2570 
Q 2978 2194 2978 1541 
Q 2978 778 2472 313 
Q 2038 -88 1503 -88 
Q 1253 -88 995 3 
Q 738 94 469 275 
L 469 3241 
Q 469 3728 445 3840 
Q 422 3953 372 3993 
Q 322 4034 247 4034 
Q 159 4034 28 3984 
L -16 4094 
L 844 4444 
L 984 4444 
L 984 2369 
z
M 984 2169 
L 984 456 
Q 1144 300 1314 220 
Q 1484 141 1663 141 
Q 1947 141 2192 453 
Q 2438 766 2438 1363 
Q 2438 1913 2192 2208 
Q 1947 2503 1634 2503 
Q 1469 2503 1303 2419 
Q 1178 2356 984 2169 
z
" transform="scale(0.015625)"/>
      <path id="TimesNewRomanPSMT-6c" d="M 1184 4444 
L 1184 647 
Q 1184 378 1223 290 
Q 1263 203 1344 158 
Q 1425 113 1647 113 
L 1647 0 
L 244 0 
L 244 113 
Q 441 113 512 153 
Q 584 194 625 287 
Q 666 381 666 647 
L 666 3247 
Q 666 3731 644 3842 
Q 622 3953 573 3993 
Q 525 4034 450 4034 
Q 369 4034 244 3984 
L 191 4094 
L 1044 4444 
L 1184 4444 
z
" transform="scale(0.015625)"/>
      <path id="TimesNewRomanPSMT-20" transform="scale(0.015625)"/>
      <path id="TimesNewRomanPSMT-45" d="M 1338 4006 
L 1338 2331 
L 2269 2331 
Q 2631 2331 2753 2441 
Q 2916 2584 2934 2947 
L 3050 2947 
L 3050 1472 
L 2934 1472 
Q 2891 1781 2847 1869 
Q 2791 1978 2662 2040 
Q 2534 2103 2269 2103 
L 1338 2103 
L 1338 706 
Q 1338 425 1363 364 
Q 1388 303 1450 267 
Q 1513 231 1688 231 
L 2406 231 
Q 2766 231 2928 281 
Q 3091 331 3241 478 
Q 3434 672 3638 1063 
L 3763 1063 
L 3397 0 
L 131 0 
L 131 116 
L 281 116 
Q 431 116 566 188 
Q 666 238 702 338 
Q 738 438 738 747 
L 738 3500 
Q 738 3903 656 3997 
Q 544 4122 281 4122 
L 131 4122 
L 131 4238 
L 3397 4238 
L 3444 3309 
L 3322 3309 
Q 3256 3644 3176 3769 
Q 3097 3894 2941 3959 
Q 2816 4006 2500 4006 
L 1338 4006 
z
" transform="scale(0.015625)"/>
      <path id="TimesNewRomanPSMT-67" d="M 966 1044 
Q 703 1172 562 1401 
Q 422 1631 422 1909 
Q 422 2334 742 2640 
Q 1063 2947 1563 2947 
Q 1972 2947 2272 2747 
L 2878 2747 
Q 3013 2747 3034 2739 
Q 3056 2731 3066 2713 
Q 3084 2684 3084 2613 
Q 3084 2531 3069 2500 
Q 3059 2484 3036 2475 
Q 3013 2466 2878 2466 
L 2506 2466 
Q 2681 2241 2681 1891 
Q 2681 1491 2375 1206 
Q 2069 922 1553 922 
Q 1341 922 1119 984 
Q 981 866 932 777 
Q 884 688 884 625 
Q 884 572 936 522 
Q 988 472 1138 450 
Q 1225 438 1575 428 
Q 2219 413 2409 384 
Q 2700 344 2873 169 
Q 3047 -6 3047 -263 
Q 3047 -616 2716 -925 
Q 2228 -1381 1444 -1381 
Q 841 -1381 425 -1109 
Q 191 -953 191 -784 
Q 191 -709 225 -634 
Q 278 -519 444 -313 
Q 466 -284 763 25 
Q 600 122 533 198 
Q 466 275 466 372 
Q 466 481 555 628 
Q 644 775 966 1044 
z
M 1509 2797 
Q 1278 2797 1122 2612 
Q 966 2428 966 2047 
Q 966 1553 1178 1281 
Q 1341 1075 1591 1075 
Q 1828 1075 1981 1253 
Q 2134 1431 2134 1813 
Q 2134 2309 1919 2591 
Q 1759 2797 1509 2797 
z
M 934 0 
Q 788 -159 713 -296 
Q 638 -434 638 -550 
Q 638 -700 819 -813 
Q 1131 -1006 1722 -1006 
Q 2284 -1006 2551 -807 
Q 2819 -609 2819 -384 
Q 2819 -222 2659 -153 
Q 2497 -84 2016 -72 
Q 1313 -53 934 0 
z
" transform="scale(0.015625)"/>
      <path id="TimesNewRomanPSMT-79" d="M 38 2863 
L 1372 2863 
L 1372 2747 
L 1306 2747 
Q 1166 2747 1095 2686 
Q 1025 2625 1025 2534 
Q 1025 2413 1128 2197 
L 1825 753 
L 2466 2334 
Q 2519 2463 2519 2588 
Q 2519 2644 2497 2672 
Q 2472 2706 2419 2726 
Q 2366 2747 2231 2747 
L 2231 2863 
L 3163 2863 
L 3163 2747 
Q 3047 2734 2984 2696 
Q 2922 2659 2847 2556 
Q 2819 2513 2741 2316 
L 1575 -541 
Q 1406 -956 1132 -1168 
Q 859 -1381 606 -1381 
Q 422 -1381 303 -1275 
Q 184 -1169 184 -1031 
Q 184 -900 270 -820 
Q 356 -741 506 -741 
Q 609 -741 788 -809 
Q 913 -856 944 -856 
Q 1038 -856 1148 -759 
Q 1259 -663 1372 -384 
L 1575 113 
L 547 2272 
Q 500 2369 397 2513 
Q 319 2622 269 2659 
Q 197 2709 38 2747 
L 38 2863 
z
" transform="scale(0.015625)"/>
      <path id="TimesNewRomanPSMT-50" d="M 1313 1984 
L 1313 750 
Q 1313 350 1400 253 
Q 1519 116 1759 116 
L 1922 116 
L 1922 0 
L 106 0 
L 106 116 
L 266 116 
Q 534 116 650 291 
Q 713 388 713 750 
L 713 3488 
Q 713 3888 628 3984 
Q 506 4122 266 4122 
L 106 4122 
L 106 4238 
L 1659 4238 
Q 2228 4238 2556 4120 
Q 2884 4003 3109 3725 
Q 3334 3447 3334 3066 
Q 3334 2547 2992 2222 
Q 2650 1897 2025 1897 
Q 1872 1897 1694 1919 
Q 1516 1941 1313 1984 
z
M 1313 2163 
Q 1478 2131 1606 2115 
Q 1734 2100 1825 2100 
Q 2150 2100 2386 2351 
Q 2622 2603 2622 3003 
Q 2622 3278 2509 3514 
Q 2397 3750 2190 3867 
Q 1984 3984 1722 3984 
Q 1563 3984 1313 3925 
L 1313 2163 
z
" transform="scale(0.015625)"/>
      <path id="TimesNewRomanPSMT-6f" d="M 1600 2947 
Q 2250 2947 2644 2453 
Q 2978 2031 2978 1484 
Q 2978 1100 2793 706 
Q 2609 313 2286 112 
Q 1963 -88 1566 -88 
Q 919 -88 538 428 
Q 216 863 216 1403 
Q 216 1797 411 2186 
Q 606 2575 925 2761 
Q 1244 2947 1600 2947 
z
M 1503 2744 
Q 1338 2744 1170 2645 
Q 1003 2547 900 2300 
Q 797 2053 797 1666 
Q 797 1041 1045 587 
Q 1294 134 1700 134 
Q 2003 134 2200 384 
Q 2397 634 2397 1244 
Q 2397 2006 2069 2444 
Q 1847 2744 1503 2744 
z
" transform="scale(0.015625)"/>
      <path id="TimesNewRomanPSMT-64" d="M 2222 322 
Q 2013 103 1813 7 
Q 1613 -88 1381 -88 
Q 913 -88 563 304 
Q 213 697 213 1313 
Q 213 1928 600 2439 
Q 988 2950 1597 2950 
Q 1975 2950 2222 2709 
L 2222 3238 
Q 2222 3728 2198 3840 
Q 2175 3953 2125 3993 
Q 2075 4034 2000 4034 
Q 1919 4034 1784 3984 
L 1744 4094 
L 2597 4444 
L 2738 4444 
L 2738 1134 
Q 2738 631 2761 520 
Q 2784 409 2836 365 
Q 2888 322 2956 322 
Q 3041 322 3181 375 
L 3216 266 
L 2366 -88 
L 2222 -88 
L 2222 322 
z
M 2222 541 
L 2222 2016 
Q 2203 2228 2109 2403 
Q 2016 2578 1861 2667 
Q 1706 2756 1559 2756 
Q 1284 2756 1069 2509 
Q 784 2184 784 1559 
Q 784 928 1059 592 
Q 1334 256 1672 256 
Q 1956 256 2222 541 
z
" transform="scale(0.015625)"/>
      <path id="TimesNewRomanPSMT-75" d="M 2709 2863 
L 2709 1128 
Q 2709 631 2732 520 
Q 2756 409 2807 365 
Q 2859 322 2928 322 
Q 3025 322 3147 375 
L 3191 266 
L 2334 -88 
L 2194 -88 
L 2194 519 
Q 1825 119 1631 15 
Q 1438 -88 1222 -88 
Q 981 -88 804 51 
Q 628 191 559 409 
Q 491 628 491 1028 
L 491 2306 
Q 491 2509 447 2587 
Q 403 2666 317 2708 
Q 231 2750 6 2747 
L 6 2863 
L 1009 2863 
L 1009 947 
Q 1009 547 1148 422 
Q 1288 297 1484 297 
Q 1619 297 1789 381 
Q 1959 466 2194 703 
L 2194 2325 
Q 2194 2569 2105 2655 
Q 2016 2741 1734 2747 
L 1734 2863 
L 2709 2863 
z
" transform="scale(0.015625)"/>
      <path id="TimesNewRomanPSMT-63" d="M 2631 1088 
Q 2516 522 2178 217 
Q 1841 -88 1431 -88 
Q 944 -88 581 321 
Q 219 731 219 1428 
Q 219 2103 620 2525 
Q 1022 2947 1584 2947 
Q 2006 2947 2278 2723 
Q 2550 2500 2550 2259 
Q 2550 2141 2473 2067 
Q 2397 1994 2259 1994 
Q 2075 1994 1981 2113 
Q 1928 2178 1911 2362 
Q 1894 2547 1784 2644 
Q 1675 2738 1481 2738 
Q 1169 2738 978 2506 
Q 725 2200 725 1697 
Q 725 1184 976 792 
Q 1228 400 1656 400 
Q 1963 400 2206 609 
Q 2378 753 2541 1131 
L 2631 1088 
z
" transform="scale(0.015625)"/>
      <path id="TimesNewRomanPSMT-74" d="M 1031 3803 
L 1031 2863 
L 1700 2863 
L 1700 2644 
L 1031 2644 
L 1031 788 
Q 1031 509 1111 412 
Q 1191 316 1316 316 
Q 1419 316 1516 380 
Q 1613 444 1666 569 
L 1788 569 
Q 1678 263 1478 108 
Q 1278 -47 1066 -47 
Q 922 -47 784 33 
Q 647 113 581 261 
Q 516 409 516 719 
L 516 2644 
L 63 2644 
L 63 2747 
Q 234 2816 414 2980 
Q 594 3144 734 3369 
Q 806 3488 934 3803 
L 1031 3803 
z
" transform="scale(0.015625)"/>
      <path id="TimesNewRomanPSMT-69" d="M 928 4444 
Q 1059 4444 1151 4351 
Q 1244 4259 1244 4128 
Q 1244 3997 1151 3903 
Q 1059 3809 928 3809 
Q 797 3809 703 3903 
Q 609 3997 609 4128 
Q 609 4259 701 4351 
Q 794 4444 928 4444 
z
M 1188 2947 
L 1188 647 
Q 1188 378 1227 289 
Q 1266 200 1342 156 
Q 1419 113 1622 113 
L 1622 0 
L 231 0 
L 231 113 
Q 441 113 512 153 
Q 584 194 626 287 
Q 669 381 669 647 
L 669 1750 
Q 669 2216 641 2353 
Q 619 2453 572 2492 
Q 525 2531 444 2531 
Q 356 2531 231 2484 
L 188 2597 
L 1050 2947 
L 1188 2947 
z
" transform="scale(0.015625)"/>
      <path id="TimesNewRomanPSMT-66" d="M 1319 2638 
L 1319 756 
Q 1319 356 1406 250 
Q 1522 113 1716 113 
L 1975 113 
L 1975 0 
L 266 0 
L 266 113 
L 394 113 
Q 519 113 622 175 
Q 725 238 764 344 
Q 803 450 803 756 
L 803 2638 
L 247 2638 
L 247 2863 
L 803 2863 
L 803 3050 
Q 803 3478 940 3775 
Q 1078 4072 1361 4255 
Q 1644 4438 1997 4438 
Q 2325 4438 2600 4225 
Q 2781 4084 2781 3909 
Q 2781 3816 2700 3733 
Q 2619 3650 2525 3650 
Q 2453 3650 2373 3701 
Q 2294 3753 2178 3923 
Q 2063 4094 1966 4153 
Q 1869 4213 1750 4213 
Q 1606 4213 1506 4136 
Q 1406 4059 1362 3898 
Q 1319 3738 1319 3069 
L 1319 2863 
L 2056 2863 
L 2056 2638 
L 1319 2638 
z
" transform="scale(0.015625)"/>
      <path id="TimesNewRomanPSMT-6d" d="M 1050 2338 
Q 1363 2650 1419 2697 
Q 1559 2816 1721 2881 
Q 1884 2947 2044 2947 
Q 2313 2947 2506 2790 
Q 2700 2634 2766 2338 
Q 3088 2713 3309 2830 
Q 3531 2947 3766 2947 
Q 3994 2947 4170 2830 
Q 4347 2713 4450 2447 
Q 4519 2266 4519 1878 
L 4519 647 
Q 4519 378 4559 278 
Q 4591 209 4675 161 
Q 4759 113 4950 113 
L 4950 0 
L 3538 0 
L 3538 113 
L 3597 113 
Q 3781 113 3884 184 
Q 3956 234 3988 344 
Q 4000 397 4000 647 
L 4000 1878 
Q 4000 2228 3916 2372 
Q 3794 2572 3525 2572 
Q 3359 2572 3192 2489 
Q 3025 2406 2788 2181 
L 2781 2147 
L 2788 2013 
L 2788 647 
Q 2788 353 2820 281 
Q 2853 209 2943 161 
Q 3034 113 3253 113 
L 3253 0 
L 1806 0 
L 1806 113 
Q 2044 113 2133 169 
Q 2222 225 2256 338 
Q 2272 391 2272 647 
L 2272 1878 
Q 2272 2228 2169 2381 
Q 2031 2581 1784 2581 
Q 1616 2581 1450 2491 
Q 1191 2353 1050 2181 
L 1050 647 
Q 1050 366 1089 281 
Q 1128 197 1204 155 
Q 1281 113 1516 113 
L 1516 0 
L 100 0 
L 100 113 
Q 297 113 375 155 
Q 453 197 493 289 
Q 534 381 534 647 
L 534 1741 
Q 534 2213 506 2350 
Q 484 2453 437 2492 
Q 391 2531 309 2531 
Q 222 2531 100 2484 
L 53 2597 
L 916 2947 
L 1050 2947 
L 1050 2338 
z
" transform="scale(0.015625)"/>
      <path id="TimesNewRomanPSMT-28" d="M 1988 -1253 
L 1988 -1369 
Q 1516 -1131 1200 -813 
Q 750 -359 506 256 
Q 263 872 263 1534 
Q 263 2503 741 3301 
Q 1219 4100 1988 4444 
L 1988 4313 
Q 1603 4100 1356 3731 
Q 1109 3363 987 2797 
Q 866 2231 866 1616 
Q 866 947 969 400 
Q 1050 -31 1165 -292 
Q 1281 -553 1476 -793 
Q 1672 -1034 1988 -1253 
z
" transform="scale(0.015625)"/>
      <path id="TimesNewRomanPSMT-4d" d="M 2619 0 
L 981 3566 
L 981 734 
Q 981 344 1066 247 
Q 1181 116 1431 116 
L 1581 116 
L 1581 0 
L 106 0 
L 106 116 
L 256 116 
Q 525 116 638 278 
Q 706 378 706 734 
L 706 3503 
Q 706 3784 644 3909 
Q 600 4000 483 4061 
Q 366 4122 106 4122 
L 106 4238 
L 1306 4238 
L 2844 922 
L 4356 4238 
L 5556 4238 
L 5556 4122 
L 5409 4122 
Q 5138 4122 5025 3959 
Q 4956 3859 4956 3503 
L 4956 734 
Q 4956 344 5044 247 
Q 5159 116 5409 116 
L 5556 116 
L 5556 0 
L 3756 0 
L 3756 116 
L 3906 116 
Q 4178 116 4288 278 
Q 4356 378 4356 734 
L 4356 3566 
L 2722 0 
L 2619 0 
z
" transform="scale(0.015625)"/>
      <path id="TimesNewRomanPSMT-57" d="M 5991 4238 
L 5991 4122 
Q 5825 4122 5722 4062 
Q 5619 4003 5525 3841 
Q 5463 3731 5328 3319 
L 4147 -97 
L 4022 -97 
L 3056 2613 
L 2097 -97 
L 1984 -97 
L 725 3422 
Q 584 3816 547 3888 
Q 484 4006 376 4064 
Q 269 4122 84 4122 
L 84 4238 
L 1653 4238 
L 1653 4122 
L 1578 4122 
Q 1413 4122 1325 4047 
Q 1238 3972 1238 3866 
Q 1238 3756 1375 3363 
L 2209 984 
L 2913 3006 
L 2788 3363 
L 2688 3647 
Q 2622 3803 2541 3922 
Q 2500 3981 2441 4022 
Q 2363 4078 2284 4103 
Q 2225 4122 2097 4122 
L 2097 4238 
L 3747 4238 
L 3747 4122 
L 3634 4122 
Q 3459 4122 3378 4047 
Q 3297 3972 3297 3844 
Q 3297 3684 3438 3288 
L 4250 984 
L 5056 3319 
Q 5194 3706 5194 3856 
Q 5194 3928 5148 3990 
Q 5103 4053 5034 4078 
Q 4916 4122 4725 4122 
L 4725 4238 
L 5991 4238 
z
" transform="scale(0.015625)"/>
      <path id="TimesNewRomanPSMT-68" d="M 1041 4444 
L 1041 2350 
Q 1388 2731 1591 2839 
Q 1794 2947 1997 2947 
Q 2241 2947 2416 2812 
Q 2591 2678 2675 2391 
Q 2734 2191 2734 1659 
L 2734 647 
Q 2734 375 2778 275 
Q 2809 200 2884 156 
Q 2959 113 3159 113 
L 3159 0 
L 1753 0 
L 1753 113 
L 1819 113 
Q 2019 113 2097 173 
Q 2175 234 2206 353 
Q 2216 403 2216 647 
L 2216 1659 
Q 2216 2128 2167 2275 
Q 2119 2422 2012 2495 
Q 1906 2569 1756 2569 
Q 1603 2569 1437 2487 
Q 1272 2406 1041 2159 
L 1041 647 
Q 1041 353 1073 281 
Q 1106 209 1195 161 
Q 1284 113 1503 113 
L 1503 0 
L 84 0 
L 84 113 
Q 275 113 384 172 
Q 447 203 484 290 
Q 522 378 522 647 
L 522 3238 
Q 522 3728 498 3840 
Q 475 3953 426 3993 
Q 378 4034 297 4034 
Q 231 4034 84 3984 
L 41 4094 
L 897 4444 
L 1041 4444 
z
" transform="scale(0.015625)"/>
      <path id="TimesNewRomanPSMT-29" d="M 144 4313 
L 144 4444 
Q 619 4209 934 3891 
Q 1381 3434 1625 2820 
Q 1869 2206 1869 1541 
Q 1869 572 1392 -226 
Q 916 -1025 144 -1369 
L 144 -1253 
Q 528 -1038 776 -670 
Q 1025 -303 1145 264 
Q 1266 831 1266 1447 
Q 1266 2113 1163 2663 
Q 1084 3094 967 3353 
Q 850 3613 656 3853 
Q 463 4094 144 4313 
z
" transform="scale(0.015625)"/>
     </defs>
     <use xlink:href="#TimesNewRomanPSMT-52"/>
     <use xlink:href="#TimesNewRomanPSMT-65" transform="translate(66.699219 0)"/>
     <use xlink:href="#TimesNewRomanPSMT-6e" transform="translate(111.083984 0)"/>
     <use xlink:href="#TimesNewRomanPSMT-65" transform="translate(161.083984 0)"/>
     <use xlink:href="#TimesNewRomanPSMT-77" transform="translate(205.46875 0)"/>
     <use xlink:href="#TimesNewRomanPSMT-61" transform="translate(277.685547 0)"/>
     <use xlink:href="#TimesNewRomanPSMT-62" transform="translate(322.070312 0)"/>
     <use xlink:href="#TimesNewRomanPSMT-6c" transform="translate(372.070312 0)"/>
     <use xlink:href="#TimesNewRomanPSMT-65" transform="translate(399.853516 0)"/>
     <use xlink:href="#TimesNewRomanPSMT-20" transform="translate(444.238281 0)"/>
     <use xlink:href="#TimesNewRomanPSMT-45" transform="translate(469.238281 0)"/>
     <use xlink:href="#TimesNewRomanPSMT-6e" transform="translate(530.322266 0)"/>
     <use xlink:href="#TimesNewRomanPSMT-65" transform="translate(580.322266 0)"/>
     <use xlink:href="#TimesNewRomanPSMT-72" transform="translate(624.707031 0)"/>
     <use xlink:href="#TimesNewRomanPSMT-67" transform="translate(656.257812 0)"/>
     <use xlink:href="#TimesNewRomanPSMT-79" transform="translate(706.257812 0)"/>
     <use xlink:href="#TimesNewRomanPSMT-20" transform="translate(756.257812 0)"/>
     <use xlink:href="#TimesNewRomanPSMT-50" transform="translate(781.257812 0)"/>
     <use xlink:href="#TimesNewRomanPSMT-72" transform="translate(836.873047 0)"/>
     <use xlink:href="#TimesNewRomanPSMT-6f" transform="translate(870.173828 0)"/>
     <use xlink:href="#TimesNewRomanPSMT-64" transform="translate(920.173828 0)"/>
     <use xlink:href="#TimesNewRomanPSMT-75" transform="translate(970.173828 0)"/>
     <use xlink:href="#TimesNewRomanPSMT-63" transform="translate(1020.173828 0)"/>
     <use xlink:href="#TimesNewRomanPSMT-74" transform="translate(1064.558594 0)"/>
     <use xlink:href="#TimesNewRomanPSMT-69" transform="translate(1092.341797 0)"/>
     <use xlink:href="#TimesNewRomanPSMT-6f" transform="translate(1120.125 0)"/>
     <use xlink:href="#TimesNewRomanPSMT-6e" transform="translate(1170.125 0)"/>
     <use xlink:href="#TimesNewRomanPSMT-20" transform="translate(1220.125 0)"/>
     <use xlink:href="#TimesNewRomanPSMT-66" transform="translate(1245.125 0)"/>
     <use xlink:href="#TimesNewRomanPSMT-72" transform="translate(1278.425781 0)"/>
     <use xlink:href="#TimesNewRomanPSMT-6f" transform="translate(1311.726562 0)"/>
     <use xlink:href="#TimesNewRomanPSMT-6d" transform="translate(1361.726562 0)"/>
     <use xlink:href="#TimesNewRomanPSMT-20" transform="translate(1439.509766 0)"/>
     <use xlink:href="#TimesNewRomanPSMT-31" transform="translate(1464.509766 0)"/>
     <use xlink:href="#TimesNewRomanPSMT-39" transform="translate(1514.509766 0)"/>
     <use xlink:href="#TimesNewRomanPSMT-38" transform="translate(1564.509766 0)"/>
     <use xlink:href="#TimesNewRomanPSMT-36" transform="translate(1614.509766 0)"/>
     <use xlink:href="#TimesNewRomanPSMT-20" transform="translate(1664.509766 0)"/>
     <use xlink:href="#TimesNewRomanPSMT-74" transform="translate(1689.509766 0)"/>
     <use xlink:href="#TimesNewRomanPSMT-6f" transform="translate(1717.292969 0)"/>
     <use xlink:href="#TimesNewRomanPSMT-20" transform="translate(1767.292969 0)"/>
     <use xlink:href="#TimesNewRomanPSMT-32" transform="translate(1792.292969 0)"/>
     <use xlink:href="#TimesNewRomanPSMT-30" transform="translate(1842.292969 0)"/>
     <use xlink:href="#TimesNewRomanPSMT-30" transform="translate(1892.292969 0)"/>
     <use xlink:href="#TimesNewRomanPSMT-39" transform="translate(1942.292969 0)"/>
     <use xlink:href="#TimesNewRomanPSMT-20" transform="translate(1992.292969 0)"/>
     <use xlink:href="#TimesNewRomanPSMT-28" transform="translate(2017.292969 0)"/>
     <use xlink:href="#TimesNewRomanPSMT-4d" transform="translate(2050.59375 0)"/>
     <use xlink:href="#TimesNewRomanPSMT-57" transform="translate(2139.509766 0)"/>
     <use xlink:href="#TimesNewRomanPSMT-68" transform="translate(2233.894531 0)"/>
     <use xlink:href="#TimesNewRomanPSMT-29" transform="translate(2283.894531 0)"/>
     <use xlink:href="#TimesNewRomanPSMT-20" transform="translate(2317.195312 0)"/>
    </g>
   </g>
   <g id="legend_1">
    <g id="patch_7">
     <path d="M 415.667927 163.793906 
L 435.667927 163.793906 
L 435.667927 156.793906 
L 415.667927 156.793906 
z
" style="fill: #1f77b4"/>
    </g>
    <g id="text_15">
     <!-- Azure Tide Energy -->
     <g transform="translate(443.667927 163.793906) scale(0.1 -0.1)">
      <defs>
       <path id="TimesNewRomanPSMT-41" d="M 2928 1419 
L 1288 1419 
L 1000 750 
Q 894 503 894 381 
Q 894 284 986 211 
Q 1078 138 1384 116 
L 1384 0 
L 50 0 
L 50 116 
Q 316 163 394 238 
Q 553 388 747 847 
L 2238 4334 
L 2347 4334 
L 3822 809 
Q 4000 384 4145 257 
Q 4291 131 4550 116 
L 4550 0 
L 2878 0 
L 2878 116 
Q 3131 128 3220 200 
Q 3309 272 3309 375 
Q 3309 513 3184 809 
L 2928 1419 
z
M 2841 1650 
L 2122 3363 
L 1384 1650 
L 2841 1650 
z
" transform="scale(0.015625)"/>
       <path id="TimesNewRomanPSMT-7a" d="M 2688 878 
L 2653 0 
L 128 0 
L 128 113 
L 2028 2644 
L 1091 2644 
Q 788 2644 694 2605 
Q 600 2566 541 2456 
Q 456 2300 444 2069 
L 319 2069 
L 338 2863 
L 2738 2863 
L 2738 2747 
L 819 209 
L 1863 209 
Q 2191 209 2308 264 
Q 2425 319 2497 456 
Q 2547 556 2581 878 
L 2688 878 
z
" transform="scale(0.015625)"/>
       <path id="TimesNewRomanPSMT-54" d="M 3703 4238 
L 3750 3244 
L 3631 3244 
Q 3597 3506 3538 3619 
Q 3441 3800 3280 3886 
Q 3119 3972 2856 3972 
L 2259 3972 
L 2259 734 
Q 2259 344 2344 247 
Q 2463 116 2709 116 
L 2856 116 
L 2856 0 
L 1059 0 
L 1059 116 
L 1209 116 
Q 1478 116 1591 278 
Q 1659 378 1659 734 
L 1659 3972 
L 1150 3972 
Q 853 3972 728 3928 
Q 566 3869 450 3700 
Q 334 3531 313 3244 
L 194 3244 
L 244 4238 
L 3703 4238 
z
" transform="scale(0.015625)"/>
      </defs>
      <use xlink:href="#TimesNewRomanPSMT-41"/>
      <use xlink:href="#TimesNewRomanPSMT-7a" transform="translate(72.216797 0)"/>
      <use xlink:href="#TimesNewRomanPSMT-75" transform="translate(116.601562 0)"/>
      <use xlink:href="#TimesNewRomanPSMT-72" transform="translate(166.601562 0)"/>
      <use xlink:href="#TimesNewRomanPSMT-65" transform="translate(199.902344 0)"/>
      <use xlink:href="#TimesNewRomanPSMT-20" transform="translate(244.287109 0)"/>
      <use xlink:href="#TimesNewRomanPSMT-54" transform="translate(267.537109 0)"/>
      <use xlink:href="#TimesNewRomanPSMT-69" transform="translate(325.121094 0)"/>
      <use xlink:href="#TimesNewRomanPSMT-64" transform="translate(352.904297 0)"/>
      <use xlink:href="#TimesNewRomanPSMT-65" transform="translate(402.904297 0)"/>
      <use xlink:href="#TimesNewRomanPSMT-20" transform="translate(447.289062 0)"/>
      <use xlink:href="#TimesNewRomanPSMT-45" transform="translate(472.289062 0)"/>
      <use xlink:href="#TimesNewRomanPSMT-6e" transform="translate(533.373047 0)"/>
      <use xlink:href="#TimesNewRomanPSMT-65" transform="translate(583.373047 0)"/>
      <use xlink:href="#TimesNewRomanPSMT-72" transform="translate(627.757812 0)"/>
      <use xlink:href="#TimesNewRomanPSMT-67" transform="translate(659.308594 0)"/>
      <use xlink:href="#TimesNewRomanPSMT-79" transform="translate(709.308594 0)"/>
     </g>
    </g>
    <g id="patch_8">
     <path d="M 415.667927 177.951719 
L 435.667927 177.951719 
L 435.667927 170.951719 
L 415.667927 170.951719 
z
" style="fill: #aec7e8"/>
    </g>
    <g id="text_16">
     <!-- GeoThermal Bloom Plant -->
     <g transform="translate(443.667927 177.951719) scale(0.1 -0.1)">
      <defs>
       <path id="TimesNewRomanPSMT-47" d="M 3928 4334 
L 4038 2997 
L 3928 2997 
Q 3763 3497 3500 3750 
Q 3122 4116 2528 4116 
Q 1719 4116 1297 3475 
Q 944 2934 944 2188 
Q 944 1581 1178 1081 
Q 1413 581 1792 348 
Q 2172 116 2572 116 
Q 2806 116 3025 175 
Q 3244 234 3447 350 
L 3447 1575 
Q 3447 1894 3398 1992 
Q 3350 2091 3248 2142 
Q 3147 2194 2891 2194 
L 2891 2313 
L 4531 2313 
L 4531 2194 
L 4453 2194 
Q 4209 2194 4119 2031 
Q 4056 1916 4056 1575 
L 4056 278 
Q 3697 84 3347 -6 
Q 2997 -97 2569 -97 
Q 1341 -97 703 691 
Q 225 1281 225 2053 
Q 225 2613 494 3125 
Q 813 3734 1369 4063 
Q 1834 4334 2469 4334 
Q 2700 4334 2889 4296 
Q 3078 4259 3425 4131 
Q 3600 4066 3659 4066 
Q 3719 4066 3761 4120 
Q 3803 4175 3813 4334 
L 3928 4334 
z
" transform="scale(0.015625)"/>
       <path id="TimesNewRomanPSMT-42" d="M 2956 2163 
Q 3397 2069 3616 1863 
Q 3919 1575 3919 1159 
Q 3919 844 3719 555 
Q 3519 266 3170 133 
Q 2822 0 2106 0 
L 106 0 
L 106 116 
L 266 116 
Q 531 116 647 284 
Q 719 394 719 750 
L 719 3488 
Q 719 3881 628 3984 
Q 506 4122 266 4122 
L 106 4122 
L 106 4238 
L 1938 4238 
Q 2450 4238 2759 4163 
Q 3228 4050 3475 3764 
Q 3722 3478 3722 3106 
Q 3722 2788 3528 2536 
Q 3334 2284 2956 2163 
z
M 1319 2331 
Q 1434 2309 1582 2298 
Q 1731 2288 1909 2288 
Q 2366 2288 2595 2386 
Q 2825 2484 2947 2687 
Q 3069 2891 3069 3131 
Q 3069 3503 2766 3765 
Q 2463 4028 1881 4028 
Q 1569 4028 1319 3959 
L 1319 2331 
z
M 1319 306 
Q 1681 222 2034 222 
Q 2600 222 2897 476 
Q 3194 731 3194 1106 
Q 3194 1353 3059 1581 
Q 2925 1809 2622 1940 
Q 2319 2072 1872 2072 
Q 1678 2072 1540 2065 
Q 1403 2059 1319 2044 
L 1319 306 
z
" transform="scale(0.015625)"/>
      </defs>
      <use xlink:href="#TimesNewRomanPSMT-47"/>
      <use xlink:href="#TimesNewRomanPSMT-65" transform="translate(72.216797 0)"/>
      <use xlink:href="#TimesNewRomanPSMT-6f" transform="translate(116.601562 0)"/>
      <use xlink:href="#TimesNewRomanPSMT-54" transform="translate(166.601562 0)"/>
      <use xlink:href="#TimesNewRomanPSMT-68" transform="translate(227.685547 0)"/>
      <use xlink:href="#TimesNewRomanPSMT-65" transform="translate(277.685547 0)"/>
      <use xlink:href="#TimesNewRomanPSMT-72" transform="translate(322.070312 0)"/>
      <use xlink:href="#TimesNewRomanPSMT-6d" transform="translate(355.371094 0)"/>
      <use xlink:href="#TimesNewRomanPSMT-61" transform="translate(433.154297 0)"/>
      <use xlink:href="#TimesNewRomanPSMT-6c" transform="translate(477.539062 0)"/>
      <use xlink:href="#TimesNewRomanPSMT-20" transform="translate(505.322266 0)"/>
      <use xlink:href="#TimesNewRomanPSMT-42" transform="translate(530.322266 0)"/>
      <use xlink:href="#TimesNewRomanPSMT-6c" transform="translate(597.021484 0)"/>
      <use xlink:href="#TimesNewRomanPSMT-6f" transform="translate(624.804688 0)"/>
      <use xlink:href="#TimesNewRomanPSMT-6f" transform="translate(674.804688 0)"/>
      <use xlink:href="#TimesNewRomanPSMT-6d" transform="translate(724.804688 0)"/>
      <use xlink:href="#TimesNewRomanPSMT-20" transform="translate(802.587891 0)"/>
      <use xlink:href="#TimesNewRomanPSMT-50" transform="translate(827.587891 0)"/>
      <use xlink:href="#TimesNewRomanPSMT-6c" transform="translate(883.203125 0)"/>
      <use xlink:href="#TimesNewRomanPSMT-61" transform="translate(910.986328 0)"/>
      <use xlink:href="#TimesNewRomanPSMT-6e" transform="translate(955.371094 0)"/>
      <use xlink:href="#TimesNewRomanPSMT-74" transform="translate(1005.371094 0)"/>
     </g>
    </g>
    <g id="patch_9">
     <path d="M 415.667927 192.090781 
L 435.667927 192.090781 
L 435.667927 185.090781 
L 415.667927 185.090781 
z
" style="fill: #ff7f0e"/>
    </g>
    <g id="text_17">
     <!-- Verdant Biomass Facility -->
     <g transform="translate(443.667927 192.090781) scale(0.1 -0.1)">
      <defs>
       <path id="TimesNewRomanPSMT-56" d="M 4544 4238 
L 4544 4122 
Q 4319 4081 4203 3978 
Q 4038 3825 3909 3509 
L 2431 -97 
L 2316 -97 
L 728 3556 
Q 606 3838 556 3900 
Q 478 3997 364 4051 
Q 250 4106 56 4122 
L 56 4238 
L 1788 4238 
L 1788 4122 
Q 1494 4094 1406 4022 
Q 1319 3950 1319 3838 
Q 1319 3681 1463 3350 
L 2541 866 
L 3541 3319 
Q 3688 3681 3688 3822 
Q 3688 3913 3597 3995 
Q 3506 4078 3291 4113 
Q 3275 4116 3238 4122 
L 3238 4238 
L 4544 4238 
z
" transform="scale(0.015625)"/>
       <path id="TimesNewRomanPSMT-73" d="M 2050 2947 
L 2050 1972 
L 1947 1972 
Q 1828 2431 1642 2597 
Q 1456 2763 1169 2763 
Q 950 2763 815 2647 
Q 681 2531 681 2391 
Q 681 2216 781 2091 
Q 878 1963 1175 1819 
L 1631 1597 
Q 2266 1288 2266 781 
Q 2266 391 1970 151 
Q 1675 -88 1309 -88 
Q 1047 -88 709 6 
Q 606 38 541 38 
Q 469 38 428 -44 
L 325 -44 
L 325 978 
L 428 978 
Q 516 541 762 319 
Q 1009 97 1316 97 
Q 1531 97 1667 223 
Q 1803 350 1803 528 
Q 1803 744 1651 891 
Q 1500 1038 1047 1263 
Q 594 1488 453 1669 
Q 313 1847 313 2119 
Q 313 2472 555 2709 
Q 797 2947 1181 2947 
Q 1350 2947 1591 2875 
Q 1750 2828 1803 2828 
Q 1853 2828 1881 2850 
Q 1909 2872 1947 2947 
L 2050 2947 
z
" transform="scale(0.015625)"/>
       <path id="TimesNewRomanPSMT-46" d="M 1309 4006 
L 1309 2341 
L 2081 2341 
Q 2347 2341 2470 2458 
Q 2594 2575 2634 2922 
L 2750 2922 
L 2750 1488 
L 2634 1488 
Q 2631 1734 2570 1850 
Q 2509 1966 2401 2023 
Q 2294 2081 2081 2081 
L 1309 2081 
L 1309 750 
Q 1309 428 1350 325 
Q 1381 247 1481 191 
Q 1619 116 1769 116 
L 1922 116 
L 1922 0 
L 103 0 
L 103 116 
L 253 116 
Q 516 116 634 269 
Q 709 369 709 750 
L 709 3488 
Q 709 3809 669 3913 
Q 638 3991 541 4047 
Q 406 4122 253 4122 
L 103 4122 
L 103 4238 
L 3256 4238 
L 3297 3306 
L 3188 3306 
Q 3106 3603 2998 3742 
Q 2891 3881 2733 3943 
Q 2575 4006 2244 4006 
L 1309 4006 
z
" transform="scale(0.015625)"/>
      </defs>
      <use xlink:href="#TimesNewRomanPSMT-56"/>
      <use xlink:href="#TimesNewRomanPSMT-65" transform="translate(61.091797 0)"/>
      <use xlink:href="#TimesNewRomanPSMT-72" transform="translate(105.476562 0)"/>
      <use xlink:href="#TimesNewRomanPSMT-64" transform="translate(138.777344 0)"/>
      <use xlink:href="#TimesNewRomanPSMT-61" transform="translate(188.777344 0)"/>
      <use xlink:href="#TimesNewRomanPSMT-6e" transform="translate(233.162109 0)"/>
      <use xlink:href="#TimesNewRomanPSMT-74" transform="translate(283.162109 0)"/>
      <use xlink:href="#TimesNewRomanPSMT-20" transform="translate(310.945312 0)"/>
      <use xlink:href="#TimesNewRomanPSMT-42" transform="translate(335.945312 0)"/>
      <use xlink:href="#TimesNewRomanPSMT-69" transform="translate(402.644531 0)"/>
      <use xlink:href="#TimesNewRomanPSMT-6f" transform="translate(430.427734 0)"/>
      <use xlink:href="#TimesNewRomanPSMT-6d" transform="translate(480.427734 0)"/>
      <use xlink:href="#TimesNewRomanPSMT-61" transform="translate(558.210938 0)"/>
      <use xlink:href="#TimesNewRomanPSMT-73" transform="translate(602.595703 0)"/>
      <use xlink:href="#TimesNewRomanPSMT-73" transform="translate(641.511719 0)"/>
      <use xlink:href="#TimesNewRomanPSMT-20" transform="translate(680.427734 0)"/>
      <use xlink:href="#TimesNewRomanPSMT-46" transform="translate(705.427734 0)"/>
      <use xlink:href="#TimesNewRomanPSMT-61" transform="translate(761.042969 0)"/>
      <use xlink:href="#TimesNewRomanPSMT-63" transform="translate(805.427734 0)"/>
      <use xlink:href="#TimesNewRomanPSMT-69" transform="translate(849.8125 0)"/>
      <use xlink:href="#TimesNewRomanPSMT-6c" transform="translate(877.595703 0)"/>
      <use xlink:href="#TimesNewRomanPSMT-69" transform="translate(905.378906 0)"/>
      <use xlink:href="#TimesNewRomanPSMT-74" transform="translate(933.162109 0)"/>
      <use xlink:href="#TimesNewRomanPSMT-79" transform="translate(960.945312 0)"/>
     </g>
    </g>
   </g>
  </g>
 </g>
 <defs>
  <clipPath id="p65ecc39a92">
   <rect x="10.091927" y="36.92125" width="388.8" height="277.2"/>
  </clipPath>
 </defs>
</svg>
