<?xml version="1.0" encoding="utf-8" standalone="no"?>
<!DOCTYPE svg PUBLIC "-//W3C//DTD SVG 1.1//EN"
  "http://www.w3.org/Graphics/SVG/1.1/DTD/svg11.dtd">
<svg xmlns:xlink="http://www.w3.org/1999/xlink" width="530.414802pt" height="364.113404pt" viewBox="0 0 530.414802 364.113404" xmlns="http://www.w3.org/2000/svg" version="1.1">
 <metadata>
  <rdf:RDF xmlns:dc="http://purl.org/dc/elements/1.1/" xmlns:cc="http://creativecommons.org/ns#" xmlns:rdf="http://www.w3.org/1999/02/22-rdf-syntax-ns#">
   <cc:Work>
    <dc:type rdf:resource="http://purl.org/dc/dcmitype/StillImage"/>
    <dc:date>2025-05-30T23:49:37.384683</dc:date>
    <dc:format>image/svg+xml</dc:format>
    <dc:creator>
     <cc:Agent>
      <dc:title>Matplotlib v3.10.3, https://matplotlib.org/</dc:title>
     </cc:Agent>
    </dc:creator>
   </cc:Work>
  </rdf:RDF>
 </metadata>
 <defs>
  <style type="text/css">*{stroke-linejoin: round; stroke-linecap: butt}</style>
 </defs>
 <g id="figure_1">
  <g id="patch_1">
   <path d="M 0 364.113404 
L 530.414802 364.113404 
L 530.414802 0 
L 0 0 
z
" style="fill: #ffffff"/>
  </g>
  <g id="axes_1">
   <g id="patch_2">
    <path d="M 10.091927 314.449375 
L 398.891927 314.449375 
L 398.891927 37.249375 
L 10.091927 37.249375 
z
" style="fill: #ffffff"/>
   </g>
   <g id="FillBetweenPolyCollection_1">
    <path d="M 27.764654 204.199561 
L 27.764654 266.008193 
L 31.007356 269.983479 
L 34.250058 273.178612 
L 37.492761 275.651445 
L 40.735463 277.459826 
L 43.978165 278.661607 
L 47.220867 279.314639 
L 50.46357 279.476773 
L 53.706272 279.205858 
L 56.948974 278.559745 
L 60.191676 277.596287 
L 63.434379 276.373332 
L 66.677081 274.948732 
L 69.919783 273.380337 
L 73.162485 271.725999 
L 76.405188 270.043567 
L 79.64789 268.390893 
L 82.890592 266.825827 
L 86.133294 265.40622 
L 89.375997 264.189923 
L 92.618699 263.234786 
L 95.861401 262.59866 
L 99.104103 262.339195 
L 102.346806 262.471559 
L 105.589508 262.916133 
L 108.83221 263.580473 
L 112.074912 264.372136 
L 115.317615 265.198678 
L 118.560317 265.967656 
L 121.803019 266.586626 
L 125.045721 266.963144 
L 128.288424 267.004768 
L 131.531126 266.619052 
L 134.773828 265.714556 
L 138.01653 264.277341 
L 141.259233 262.424842 
L 144.501935 260.287219 
L 147.744637 257.994634 
L 150.98734 255.677246 
L 154.230042 253.465216 
L 157.472744 251.488705 
L 160.715446 249.877873 
L 163.958149 248.762881 
L 167.200851 248.27389 
L 170.443553 248.538278 
L 173.686255 249.575318 
L 176.928958 251.263845 
L 180.17166 253.473308 
L 183.414362 256.073158 
L 186.657064 258.932844 
L 189.899767 261.921815 
L 193.142469 264.909521 
L 196.385171 267.765413 
L 199.627873 270.358939 
L 202.870576 272.55955 
L 206.113278 274.24097 
L 209.35598 275.375271 
L 212.598682 276.032868 
L 215.841385 276.288453 
L 219.084087 276.216716 
L 222.326789 275.89235 
L 225.569491 275.390046 
L 228.812194 274.784495 
L 232.054896 274.150389 
L 235.297598 273.562419 
L 238.5403 273.095277 
L 241.783003 272.820007 
L 245.025705 272.753071 
L 248.268407 272.868918 
L 251.511109 273.140914 
L 254.753812 273.542425 
L 257.996514 274.046818 
L 261.239216 274.627459 
L 264.481918 275.257716 
L 267.724621 275.910955 
L 270.967323 276.560541 
L 274.210025 277.179843 
L 277.452727 277.744646 
L 280.69543 278.255709 
L 283.938132 278.728526 
L 287.180834 279.178781 
L 290.423536 279.622157 
L 293.666239 280.074338 
L 296.908941 280.551009 
L 300.151643 281.067853 
L 303.394345 281.640553 
L 306.637048 282.284794 
L 309.87975 283.01626 
L 313.122452 283.846587 
L 316.365154 284.757509 
L 319.607857 285.717355 
L 322.850559 286.694392 
L 326.093261 287.656887 
L 329.335963 288.573105 
L 332.578666 289.411313 
L 335.821368 290.139778 
L 339.06407 290.726766 
L 342.306772 291.140542 
L 345.549475 291.349375 
L 348.792177 291.32153 
L 352.034879 291.025273 
L 355.277581 290.428871 
L 358.520284 289.50059 
L 361.762986 288.208697 
L 365.005688 286.521459 
L 368.24839 284.40714 
L 371.491093 281.834009 
L 374.733795 278.770331 
L 377.976497 275.184373 
L 381.219199 271.044401 
L 381.219199 247.544251 
L 381.219199 247.544251 
L 377.976497 249.379409 
L 374.733795 251.024231 
L 371.491093 252.489552 
L 368.24839 253.786208 
L 365.005688 254.925034 
L 361.762986 255.916864 
L 358.520284 256.772534 
L 355.277581 257.502878 
L 352.034879 258.118731 
L 348.792177 258.630929 
L 345.549475 259.050307 
L 342.306772 259.387699 
L 339.06407 259.65394 
L 335.821368 259.859866 
L 332.578666 260.016311 
L 329.335963 260.134111 
L 326.093261 260.2241 
L 322.850559 260.297113 
L 319.607857 260.363986 
L 316.365154 260.435553 
L 313.122452 260.522649 
L 309.87975 260.636049 
L 306.637048 260.773506 
L 303.394345 260.903729 
L 300.151643 260.991497 
L 296.908941 261.001587 
L 293.666239 260.898778 
L 290.423536 260.647848 
L 287.180834 260.213576 
L 283.938132 259.560739 
L 280.69543 258.654116 
L 277.452727 257.458484 
L 274.210025 255.939161 
L 270.967323 254.10305 
L 267.724621 252.027554 
L 264.481918 249.796903 
L 261.239216 247.495329 
L 257.996514 245.207061 
L 254.753812 243.01633 
L 251.511109 241.007367 
L 248.268407 239.264403 
L 245.025705 237.871668 
L 241.783003 236.913393 
L 238.5403 236.47161 
L 235.297598 236.542923 
L 232.054896 237.012957 
L 228.812194 237.759919 
L 225.569491 238.662019 
L 222.326789 239.597465 
L 219.084087 240.444464 
L 215.841385 241.081226 
L 212.598682 241.385959 
L 209.35598 241.236871 
L 206.113278 240.512171 
L 202.870576 239.095756 
L 199.627873 237.00239 
L 196.385171 234.3777 
L 193.142469 231.373005 
L 189.899767 228.139622 
L 186.657064 224.828869 
L 183.414362 221.592063 
L 180.17166 218.580522 
L 176.928958 215.945563 
L 173.686255 213.838505 
L 170.443553 212.410665 
L 167.200851 211.803031 
L 163.958149 212.00203 
L 160.715446 212.875107 
L 157.472744 214.286646 
L 154.230042 216.101032 
L 150.98734 218.182649 
L 147.744637 220.395881 
L 144.501935 222.605113 
L 141.259233 224.674729 
L 138.01653 226.469114 
L 134.773828 227.852652 
L 131.531126 228.701897 
L 128.288424 229.019036 
L 125.045721 228.880375 
L 121.803019 228.363177 
L 118.560317 227.544704 
L 115.317615 226.502219 
L 112.074912 225.312985 
L 108.83221 224.054265 
L 105.589508 222.803322 
L 102.346806 221.637419 
L 99.104103 220.633818 
L 95.861401 219.860303 
L 92.618699 219.314607 
L 89.375997 218.963063 
L 86.133294 218.771857 
L 82.890592 218.707174 
L 79.64789 218.7352 
L 76.405188 218.822121 
L 73.162485 218.934122 
L 69.919783 219.03739 
L 66.677081 219.098109 
L 63.434379 219.082466 
L 60.191676 218.956646 
L 56.948974 218.686834 
L 53.706272 218.239217 
L 50.46357 217.57998 
L 47.220867 216.675309 
L 43.978165 215.491389 
L 40.735463 213.994407 
L 37.492761 212.150547 
L 34.250058 209.925996 
L 31.007356 207.286938 
L 27.764654 204.199561 
z
" clip-path="url(#peaadca9075)" style="fill: #1f77b4"/>
   </g>
   <g id="FillBetweenPolyCollection_2">
    <path d="M 27.764654 145.769705 
L 27.764654 204.199561 
L 31.007356 207.286938 
L 34.250058 209.925996 
L 37.492761 212.150547 
L 40.735463 213.994407 
L 43.978165 215.491389 
L 47.220867 216.675309 
L 50.46357 217.57998 
L 53.706272 218.239217 
L 56.948974 218.686834 
L 60.191676 218.956646 
L 63.434379 219.082466 
L 66.677081 219.098109 
L 69.919783 219.03739 
L 73.162485 218.934122 
L 76.405188 218.822121 
L 79.64789 218.7352 
L 82.890592 218.707174 
L 86.133294 218.771857 
L 89.375997 218.963063 
L 92.618699 219.314607 
L 95.861401 219.860303 
L 99.104103 220.633818 
L 102.346806 221.637419 
L 105.589508 222.803322 
L 108.83221 224.054265 
L 112.074912 225.312985 
L 115.317615 226.502219 
L 118.560317 227.544704 
L 121.803019 228.363177 
L 125.045721 228.880375 
L 128.288424 229.019036 
L 131.531126 228.701897 
L 134.773828 227.852652 
L 138.01653 226.469114 
L 141.259233 224.674729 
L 144.501935 222.605113 
L 147.744637 220.395881 
L 150.98734 218.182649 
L 154.230042 216.101032 
L 157.472744 214.286646 
L 160.715446 212.875107 
L 163.958149 212.00203 
L 167.200851 211.803031 
L 170.443553 212.410665 
L 173.686255 213.838505 
L 176.928958 215.945563 
L 180.17166 218.580522 
L 183.414362 221.592063 
L 186.657064 224.828869 
L 189.899767 228.139622 
L 193.142469 231.373005 
L 196.385171 234.3777 
L 199.627873 237.00239 
L 202.870576 239.095756 
L 206.113278 240.512171 
L 209.35598 241.236871 
L 212.598682 241.385959 
L 215.841385 241.081226 
L 219.084087 240.444464 
L 222.326789 239.597465 
L 225.569491 238.662019 
L 228.812194 237.759919 
L 232.054896 237.012957 
L 235.297598 236.542923 
L 238.5403 236.47161 
L 241.783003 236.913393 
L 245.025705 237.871668 
L 248.268407 239.264403 
L 251.511109 241.007367 
L 254.753812 243.01633 
L 257.996514 245.207061 
L 261.239216 247.495329 
L 264.481918 249.796903 
L 267.724621 252.027554 
L 270.967323 254.10305 
L 274.210025 255.939161 
L 277.452727 257.458484 
L 280.69543 258.654116 
L 283.938132 259.560739 
L 287.180834 260.213576 
L 290.423536 260.647848 
L 293.666239 260.898778 
L 296.908941 261.001587 
L 300.151643 260.991497 
L 303.394345 260.903729 
L 306.637048 260.773506 
L 309.87975 260.636049 
L 313.122452 260.522649 
L 316.365154 260.435553 
L 319.607857 260.363986 
L 322.850559 260.297113 
L 326.093261 260.2241 
L 329.335963 260.134111 
L 332.578666 260.016311 
L 335.821368 259.859866 
L 339.06407 259.65394 
L 342.306772 259.387699 
L 345.549475 259.050307 
L 348.792177 258.630929 
L 352.034879 258.118731 
L 355.277581 257.502878 
L 358.520284 256.772534 
L 361.762986 255.916864 
L 365.005688 254.925034 
L 368.24839 253.786208 
L 371.491093 252.489552 
L 374.733795 251.024231 
L 377.976497 249.379409 
L 381.219199 247.544251 
L 381.219199 240.950083 
L 381.219199 240.950083 
L 377.976497 234.209512 
L 374.733795 228.16043 
L 371.491093 222.768025 
L 368.24839 217.997486 
L 365.005688 213.814003 
L 361.762986 210.182763 
L 358.520284 207.068957 
L 355.277581 204.437774 
L 352.034879 202.254401 
L 348.792177 200.484029 
L 345.549475 199.091847 
L 342.306772 198.043043 
L 339.06407 197.302806 
L 335.821368 196.836326 
L 332.578666 196.608791 
L 329.335963 196.585391 
L 326.093261 196.731314 
L 322.850559 197.01175 
L 319.607857 197.391888 
L 316.365154 197.836916 
L 313.122452 198.312024 
L 309.87975 198.782415 
L 306.637048 199.216356 
L 303.394345 199.588945 
L 300.151643 199.876208 
L 296.908941 200.054168 
L 293.666239 200.09885 
L 290.423536 199.986277 
L 287.180834 199.692475 
L 283.938132 199.193468 
L 280.69543 198.465279 
L 277.452727 197.483933 
L 274.210025 196.225811 
L 270.967323 194.694924 
L 267.724621 192.942117 
L 264.481918 191.022771 
L 261.239216 188.992268 
L 257.996514 186.905988 
L 254.753812 184.819313 
L 251.511109 182.787625 
L 248.268407 180.866305 
L 245.025705 179.110734 
L 241.783003 177.576293 
L 238.5403 176.31769 
L 235.297598 175.363431 
L 232.054896 174.707988 
L 228.812194 174.343558 
L 225.569491 174.262337 
L 222.326789 174.456521 
L 219.084087 174.918309 
L 215.841385 175.639895 
L 212.598682 176.613478 
L 209.35598 177.831253 
L 206.113278 179.285418 
L 202.870576 180.966598 
L 199.627873 182.829309 
L 196.385171 184.791955 
L 193.142469 186.771369 
L 189.899767 188.684385 
L 186.657064 190.447836 
L 183.414362 191.978556 
L 180.17166 193.193378 
L 176.928958 194.009136 
L 173.686255 194.342663 
L 170.443553 194.110793 
L 167.200851 193.23733 
L 163.958149 191.750387 
L 160.715446 189.758371 
L 157.472744 187.371756 
L 154.230042 184.701015 
L 150.98734 181.85662 
L 147.744637 178.949047 
L 144.501935 176.088768 
L 141.259233 173.386255 
L 138.01653 170.951984 
L 134.773828 168.896427 
L 131.531126 167.319682 
L 128.288424 166.214739 
L 125.045721 165.511398 
L 121.803019 165.138642 
L 118.560317 165.025457 
L 115.317615 165.100825 
L 112.074912 165.29373 
L 108.83221 165.533157 
L 105.589508 165.74809 
L 102.346806 165.867511 
L 99.104103 165.820405 
L 95.861401 165.544002 
L 92.618699 165.036474 
L 89.375997 164.323306 
L 86.133294 163.430114 
L 82.890592 162.382513 
L 79.64789 161.206118 
L 76.405188 159.926544 
L 73.162485 158.569406 
L 69.919783 157.160319 
L 66.677081 155.724898 
L 63.434379 154.288759 
L 60.191676 152.877516 
L 56.948974 151.516785 
L 53.706272 150.23218 
L 50.46357 149.049316 
L 47.220867 147.99381 
L 43.978165 147.091275 
L 40.735463 146.367327 
L 37.492761 145.847581 
L 34.250058 145.557652 
L 31.007356 145.523155 
L 27.764654 145.769705 
z
" clip-path="url(#peaadca9075)" style="fill: #aec7e8"/>
   </g>
   <g id="FillBetweenPolyCollection_3">
    <path d="M 27.764654 85.690557 
L 27.764654 145.769705 
L 31.007356 145.523155 
L 34.250058 145.557652 
L 37.492761 145.847581 
L 40.735463 146.367327 
L 43.978165 147.091275 
L 47.220867 147.99381 
L 50.46357 149.049316 
L 53.706272 150.23218 
L 56.948974 151.516785 
L 60.191676 152.877516 
L 63.434379 154.288759 
L 66.677081 155.724898 
L 69.919783 157.160319 
L 73.162485 158.569406 
L 76.405188 159.926544 
L 79.64789 161.206118 
L 82.890592 162.382513 
L 86.133294 163.430114 
L 89.375997 164.323306 
L 92.618699 165.036474 
L 95.861401 165.544002 
L 99.104103 165.820405 
L 102.346806 165.867511 
L 105.589508 165.74809 
L 108.83221 165.533157 
L 112.074912 165.29373 
L 115.317615 165.100825 
L 118.560317 165.025457 
L 121.803019 165.138642 
L 125.045721 165.511398 
L 128.288424 166.214739 
L 131.531126 167.319682 
L 134.773828 168.896427 
L 138.01653 170.951984 
L 141.259233 173.386255 
L 144.501935 176.088768 
L 147.744637 178.949047 
L 150.98734 181.85662 
L 154.230042 184.701015 
L 157.472744 187.371756 
L 160.715446 189.758371 
L 163.958149 191.750387 
L 167.200851 193.23733 
L 170.443553 194.110793 
L 173.686255 194.342663 
L 176.928958 194.009136 
L 180.17166 193.193378 
L 183.414362 191.978556 
L 186.657064 190.447836 
L 189.899767 188.684385 
L 193.142469 186.771369 
L 196.385171 184.791955 
L 199.627873 182.829309 
L 202.870576 180.966598 
L 206.113278 179.285418 
L 209.35598 177.831253 
L 212.598682 176.613478 
L 215.841385 175.639895 
L 219.084087 174.918309 
L 222.326789 174.456521 
L 225.569491 174.262337 
L 228.812194 174.343558 
L 232.054896 174.707988 
L 235.297598 175.363431 
L 238.5403 176.31769 
L 241.783003 177.576293 
L 245.025705 179.110734 
L 248.268407 180.866305 
L 251.511109 182.787625 
L 254.753812 184.819313 
L 257.996514 186.905988 
L 261.239216 188.992268 
L 264.481918 191.022771 
L 267.724621 192.942117 
L 270.967323 194.694924 
L 274.210025 196.225811 
L 277.452727 197.483933 
L 280.69543 198.465279 
L 283.938132 199.193468 
L 287.180834 199.692475 
L 290.423536 199.986277 
L 293.666239 200.09885 
L 296.908941 200.054168 
L 300.151643 199.876208 
L 303.394345 199.588945 
L 306.637048 199.216356 
L 309.87975 198.782415 
L 313.122452 198.312024 
L 316.365154 197.836916 
L 319.607857 197.391888 
L 322.850559 197.01175 
L 326.093261 196.731314 
L 329.335963 196.585391 
L 332.578666 196.608791 
L 335.821368 196.836326 
L 339.06407 197.302806 
L 342.306772 198.043043 
L 345.549475 199.091847 
L 348.792177 200.484029 
L 352.034879 202.254401 
L 355.277581 204.437774 
L 358.520284 207.068957 
L 361.762986 210.182763 
L 365.005688 213.814003 
L 368.24839 217.997486 
L 371.491093 222.768025 
L 374.733795 228.16043 
L 377.976497 234.209512 
L 381.219199 240.950083 
L 381.219199 80.654349 
L 381.219199 80.654349 
L 377.976497 76.514377 
L 374.733795 72.928419 
L 371.491093 69.864741 
L 368.24839 67.29161 
L 365.005688 65.177291 
L 361.762986 63.490053 
L 358.520284 62.19816 
L 355.277581 61.269879 
L 352.034879 60.673477 
L 348.792177 60.37722 
L 345.549475 60.349375 
L 342.306772 60.558208 
L 339.06407 60.971984 
L 335.821368 61.558972 
L 332.578666 62.287437 
L 329.335963 63.125645 
L 326.093261 64.041863 
L 322.850559 65.004358 
L 319.607857 65.981395 
L 316.365154 66.941241 
L 313.122452 67.852163 
L 309.87975 68.68249 
L 306.637048 69.413956 
L 303.394345 70.058197 
L 300.151643 70.630897 
L 296.908941 71.147741 
L 293.666239 71.624412 
L 290.423536 72.076593 
L 287.180834 72.519969 
L 283.938132 72.970224 
L 280.69543 73.443041 
L 277.452727 73.954104 
L 274.210025 74.518907 
L 270.967323 75.138209 
L 267.724621 75.787795 
L 264.481918 76.441034 
L 261.239216 77.071291 
L 257.996514 77.651932 
L 254.753812 78.156325 
L 251.511109 78.557836 
L 248.268407 78.829832 
L 245.025705 78.945679 
L 241.783003 78.878743 
L 238.5403 78.603473 
L 235.297598 78.136331 
L 232.054896 77.548361 
L 228.812194 76.914255 
L 225.569491 76.308704 
L 222.326789 75.8064 
L 219.084087 75.482034 
L 215.841385 75.410297 
L 212.598682 75.665882 
L 209.35598 76.323479 
L 206.113278 77.45778 
L 202.870576 79.1392 
L 199.627873 81.339811 
L 196.385171 83.933337 
L 193.142469 86.789229 
L 189.899767 89.776935 
L 186.657064 92.765906 
L 183.414362 95.625592 
L 180.17166 98.225442 
L 176.928958 100.434905 
L 173.686255 102.123432 
L 170.443553 103.160472 
L 167.200851 103.42486 
L 163.958149 102.935869 
L 160.715446 101.820877 
L 157.472744 100.210045 
L 154.230042 98.233534 
L 150.98734 96.021504 
L 147.744637 93.704116 
L 144.501935 91.411531 
L 141.259233 89.273908 
L 138.01653 87.421409 
L 134.773828 85.984194 
L 131.531126 85.079698 
L 128.288424 84.693982 
L 125.045721 84.735606 
L 121.803019 85.112124 
L 118.560317 85.731094 
L 115.317615 86.500072 
L 112.074912 87.326614 
L 108.83221 88.118277 
L 105.589508 88.782617 
L 102.346806 89.227191 
L 99.104103 89.359555 
L 95.861401 89.10009 
L 92.618699 88.463964 
L 89.375997 87.508827 
L 86.133294 86.29253 
L 82.890592 84.872923 
L 79.64789 83.307857 
L 76.405188 81.655183 
L 73.162485 79.972751 
L 69.919783 78.318413 
L 66.677081 76.750018 
L 63.434379 75.325418 
L 60.191676 74.102463 
L 56.948974 73.139005 
L 53.706272 72.492892 
L 50.46357 72.221977 
L 47.220867 72.384111 
L 43.978165 73.037143 
L 40.735463 74.238924 
L 37.492761 76.047305 
L 34.250058 78.520138 
L 31.007356 81.715271 
L 27.764654 85.690557 
z
" clip-path="url(#peaadca9075)" style="fill: #ff7f0e"/>
   </g>
   <g id="matplotlib.axis_1">
    <g id="xtick_1">
     <g id="line2d_1">
      <defs>
       <path id="ma1fa5815ab" d="M 0 0 
L 0 3.5 
" style="stroke: #000000; stroke-width: 0.8"/>
      </defs>
      <g>
       <use xlink:href="#ma1fa5815ab" x="27.764654" y="314.449375" style="stroke: #000000; stroke-width: 0.8"/>
      </g>
     </g>
     <g id="text_1">
      <!-- 1966 -->
      <g transform="translate(12.109973 340.501483) rotate(-45) scale(0.1 -0.1)">
       <defs>
        <path id="TimesNewRomanPSMT-31" d="M 750 3822 
L 1781 4325 
L 1884 4325 
L 1884 747 
Q 1884 391 1914 303 
Q 1944 216 2037 169 
Q 2131 122 2419 116 
L 2419 0 
L 825 0 
L 825 116 
Q 1125 122 1212 167 
Q 1300 213 1334 289 
Q 1369 366 1369 747 
L 1369 3034 
Q 1369 3497 1338 3628 
Q 1316 3728 1258 3775 
Q 1200 3822 1119 3822 
Q 1003 3822 797 3725 
L 750 3822 
z
" transform="scale(0.015625)"/>
        <path id="TimesNewRomanPSMT-39" d="M 338 -88 
L 338 28 
Q 744 34 1094 217 
Q 1444 400 1770 856 
Q 2097 1313 2225 1859 
Q 1734 1544 1338 1544 
Q 891 1544 572 1889 
Q 253 2234 253 2806 
Q 253 3363 572 3797 
Q 956 4325 1575 4325 
Q 2097 4325 2469 3894 
Q 2925 3359 2925 2575 
Q 2925 1869 2578 1258 
Q 2231 647 1613 244 
Q 1109 -88 516 -88 
L 338 -88 
z
M 2275 2091 
Q 2331 2497 2331 2741 
Q 2331 3044 2228 3395 
Q 2125 3747 1936 3934 
Q 1747 4122 1506 4122 
Q 1228 4122 1018 3872 
Q 809 3622 809 3128 
Q 809 2469 1088 2097 
Q 1291 1828 1588 1828 
Q 1731 1828 1928 1897 
Q 2125 1966 2275 2091 
z
" transform="scale(0.015625)"/>
        <path id="TimesNewRomanPSMT-36" d="M 2869 4325 
L 2869 4209 
Q 2456 4169 2195 4045 
Q 1934 3922 1679 3669 
Q 1425 3416 1258 3105 
Q 1091 2794 978 2366 
Q 1428 2675 1881 2675 
Q 2316 2675 2634 2325 
Q 2953 1975 2953 1425 
Q 2953 894 2631 456 
Q 2244 -75 1606 -75 
Q 1172 -75 869 213 
Q 275 772 275 1663 
Q 275 2231 503 2743 
Q 731 3256 1154 3653 
Q 1578 4050 1965 4187 
Q 2353 4325 2688 4325 
L 2869 4325 
z
M 925 2138 
Q 869 1716 869 1456 
Q 869 1156 980 804 
Q 1091 453 1309 247 
Q 1469 100 1697 100 
Q 1969 100 2183 356 
Q 2397 613 2397 1088 
Q 2397 1622 2184 2012 
Q 1972 2403 1581 2403 
Q 1463 2403 1327 2353 
Q 1191 2303 925 2138 
z
" transform="scale(0.015625)"/>
       </defs>
       <use xlink:href="#TimesNewRomanPSMT-31"/>
       <use xlink:href="#TimesNewRomanPSMT-39" transform="translate(50 0)"/>
       <use xlink:href="#TimesNewRomanPSMT-36" transform="translate(100 0)"/>
       <use xlink:href="#TimesNewRomanPSMT-36" transform="translate(150 0)"/>
      </g>
     </g>
    </g>
    <g id="xtick_2">
     <g id="line2d_2">
      <g>
       <use xlink:href="#ma1fa5815ab" x="63.110108" y="314.449375" style="stroke: #000000; stroke-width: 0.8"/>
      </g>
     </g>
     <g id="text_2">
      <!-- 1967 -->
      <g transform="translate(47.455427 340.501483) rotate(-45) scale(0.1 -0.1)">
       <defs>
        <path id="TimesNewRomanPSMT-37" d="M 644 4238 
L 2916 4238 
L 2916 4119 
L 1503 -88 
L 1153 -88 
L 2419 3728 
L 1253 3728 
Q 900 3728 750 3644 
Q 488 3500 328 3200 
L 238 3234 
L 644 4238 
z
" transform="scale(0.015625)"/>
       </defs>
       <use xlink:href="#TimesNewRomanPSMT-31"/>
       <use xlink:href="#TimesNewRomanPSMT-39" transform="translate(50 0)"/>
       <use xlink:href="#TimesNewRomanPSMT-36" transform="translate(100 0)"/>
       <use xlink:href="#TimesNewRomanPSMT-37" transform="translate(150 0)"/>
      </g>
     </g>
    </g>
    <g id="xtick_3">
     <g id="line2d_3">
      <g>
       <use xlink:href="#ma1fa5815ab" x="98.455563" y="314.449375" style="stroke: #000000; stroke-width: 0.8"/>
      </g>
     </g>
     <g id="text_3">
      <!-- 1968 -->
      <g transform="translate(82.800882 340.501483) rotate(-45) scale(0.1 -0.1)">
       <defs>
        <path id="TimesNewRomanPSMT-38" d="M 1228 2134 
Q 725 2547 579 2797 
Q 434 3047 434 3316 
Q 434 3728 753 4026 
Q 1072 4325 1600 4325 
Q 2113 4325 2425 4047 
Q 2738 3769 2738 3413 
Q 2738 3175 2569 2928 
Q 2400 2681 1866 2347 
Q 2416 1922 2594 1678 
Q 2831 1359 2831 1006 
Q 2831 559 2490 242 
Q 2150 -75 1597 -75 
Q 994 -75 656 303 
Q 388 606 388 966 
Q 388 1247 577 1523 
Q 766 1800 1228 2134 
z
M 1719 2469 
Q 2094 2806 2194 3001 
Q 2294 3197 2294 3444 
Q 2294 3772 2109 3958 
Q 1925 4144 1606 4144 
Q 1288 4144 1088 3959 
Q 888 3775 888 3528 
Q 888 3366 970 3203 
Q 1053 3041 1206 2894 
L 1719 2469 
z
M 1375 2016 
Q 1116 1797 991 1539 
Q 866 1281 866 981 
Q 866 578 1086 336 
Q 1306 94 1647 94 
Q 1984 94 2187 284 
Q 2391 475 2391 747 
Q 2391 972 2272 1150 
Q 2050 1481 1375 2016 
z
" transform="scale(0.015625)"/>
       </defs>
       <use xlink:href="#TimesNewRomanPSMT-31"/>
       <use xlink:href="#TimesNewRomanPSMT-39" transform="translate(50 0)"/>
       <use xlink:href="#TimesNewRomanPSMT-36" transform="translate(100 0)"/>
       <use xlink:href="#TimesNewRomanPSMT-38" transform="translate(150 0)"/>
      </g>
     </g>
    </g>
    <g id="xtick_4">
     <g id="line2d_4">
      <g>
       <use xlink:href="#ma1fa5815ab" x="133.801018" y="314.449375" style="stroke: #000000; stroke-width: 0.8"/>
      </g>
     </g>
     <g id="text_4">
      <!-- 1969 -->
      <g transform="translate(118.146336 340.501483) rotate(-45) scale(0.1 -0.1)">
       <use xlink:href="#TimesNewRomanPSMT-31"/>
       <use xlink:href="#TimesNewRomanPSMT-39" transform="translate(50 0)"/>
       <use xlink:href="#TimesNewRomanPSMT-36" transform="translate(100 0)"/>
       <use xlink:href="#TimesNewRomanPSMT-39" transform="translate(150 0)"/>
      </g>
     </g>
    </g>
    <g id="xtick_5">
     <g id="line2d_5">
      <g>
       <use xlink:href="#ma1fa5815ab" x="169.146472" y="314.449375" style="stroke: #000000; stroke-width: 0.8"/>
      </g>
     </g>
     <g id="text_5">
      <!-- 1970 -->
      <g transform="translate(153.491791 340.501483) rotate(-45) scale(0.1 -0.1)">
       <defs>
        <path id="TimesNewRomanPSMT-30" d="M 231 2094 
Q 231 2819 450 3342 
Q 669 3866 1031 4122 
Q 1313 4325 1613 4325 
Q 2100 4325 2488 3828 
Q 2972 3213 2972 2159 
Q 2972 1422 2759 906 
Q 2547 391 2217 158 
Q 1888 -75 1581 -75 
Q 975 -75 572 641 
Q 231 1244 231 2094 
z
M 844 2016 
Q 844 1141 1059 588 
Q 1238 122 1591 122 
Q 1759 122 1940 273 
Q 2122 425 2216 781 
Q 2359 1319 2359 2297 
Q 2359 3022 2209 3506 
Q 2097 3866 1919 4016 
Q 1791 4119 1609 4119 
Q 1397 4119 1231 3928 
Q 1006 3669 925 3112 
Q 844 2556 844 2016 
z
" transform="scale(0.015625)"/>
       </defs>
       <use xlink:href="#TimesNewRomanPSMT-31"/>
       <use xlink:href="#TimesNewRomanPSMT-39" transform="translate(50 0)"/>
       <use xlink:href="#TimesNewRomanPSMT-37" transform="translate(100 0)"/>
       <use xlink:href="#TimesNewRomanPSMT-30" transform="translate(150 0)"/>
      </g>
     </g>
    </g>
    <g id="xtick_6">
     <g id="line2d_6">
      <g>
       <use xlink:href="#ma1fa5815ab" x="204.491927" y="314.449375" style="stroke: #000000; stroke-width: 0.8"/>
      </g>
     </g>
     <g id="text_6">
      <!-- 1971 -->
      <g transform="translate(188.837245 340.501483) rotate(-45) scale(0.1 -0.1)">
       <use xlink:href="#TimesNewRomanPSMT-31"/>
       <use xlink:href="#TimesNewRomanPSMT-39" transform="translate(50 0)"/>
       <use xlink:href="#TimesNewRomanPSMT-37" transform="translate(100 0)"/>
       <use xlink:href="#TimesNewRomanPSMT-31" transform="translate(150 0)"/>
      </g>
     </g>
    </g>
    <g id="xtick_7">
     <g id="line2d_7">
      <g>
       <use xlink:href="#ma1fa5815ab" x="239.837381" y="314.449375" style="stroke: #000000; stroke-width: 0.8"/>
      </g>
     </g>
     <g id="text_7">
      <!-- 1972 -->
      <g transform="translate(224.1827 340.501483) rotate(-45) scale(0.1 -0.1)">
       <defs>
        <path id="TimesNewRomanPSMT-32" d="M 2934 816 
L 2638 0 
L 138 0 
L 138 116 
Q 1241 1122 1691 1759 
Q 2141 2397 2141 2925 
Q 2141 3328 1894 3587 
Q 1647 3847 1303 3847 
Q 991 3847 742 3664 
Q 494 3481 375 3128 
L 259 3128 
Q 338 3706 661 4015 
Q 984 4325 1469 4325 
Q 1984 4325 2329 3994 
Q 2675 3663 2675 3213 
Q 2675 2891 2525 2569 
Q 2294 2063 1775 1497 
Q 997 647 803 472 
L 1909 472 
Q 2247 472 2383 497 
Q 2519 522 2628 598 
Q 2738 675 2819 816 
L 2934 816 
z
" transform="scale(0.015625)"/>
       </defs>
       <use xlink:href="#TimesNewRomanPSMT-31"/>
       <use xlink:href="#TimesNewRomanPSMT-39" transform="translate(50 0)"/>
       <use xlink:href="#TimesNewRomanPSMT-37" transform="translate(100 0)"/>
       <use xlink:href="#TimesNewRomanPSMT-32" transform="translate(150 0)"/>
      </g>
     </g>
    </g>
    <g id="xtick_8">
     <g id="line2d_8">
      <g>
       <use xlink:href="#ma1fa5815ab" x="275.182836" y="314.449375" style="stroke: #000000; stroke-width: 0.8"/>
      </g>
     </g>
     <g id="text_8">
      <!-- 1973 -->
      <g transform="translate(259.528155 340.501483) rotate(-45) scale(0.1 -0.1)">
       <defs>
        <path id="TimesNewRomanPSMT-33" d="M 325 3431 
Q 506 3859 782 4092 
Q 1059 4325 1472 4325 
Q 1981 4325 2253 3994 
Q 2459 3747 2459 3466 
Q 2459 3003 1878 2509 
Q 2269 2356 2469 2072 
Q 2669 1788 2669 1403 
Q 2669 853 2319 450 
Q 1863 -75 997 -75 
Q 569 -75 414 31 
Q 259 138 259 259 
Q 259 350 332 419 
Q 406 488 509 488 
Q 588 488 669 463 
Q 722 447 909 348 
Q 1097 250 1169 231 
Q 1284 197 1416 197 
Q 1734 197 1970 444 
Q 2206 691 2206 1028 
Q 2206 1275 2097 1509 
Q 2016 1684 1919 1775 
Q 1784 1900 1550 2001 
Q 1316 2103 1072 2103 
L 972 2103 
L 972 2197 
Q 1219 2228 1467 2375 
Q 1716 2522 1828 2728 
Q 1941 2934 1941 3181 
Q 1941 3503 1739 3701 
Q 1538 3900 1238 3900 
Q 753 3900 428 3381 
L 325 3431 
z
" transform="scale(0.015625)"/>
       </defs>
       <use xlink:href="#TimesNewRomanPSMT-31"/>
       <use xlink:href="#TimesNewRomanPSMT-39" transform="translate(50 0)"/>
       <use xlink:href="#TimesNewRomanPSMT-37" transform="translate(100 0)"/>
       <use xlink:href="#TimesNewRomanPSMT-33" transform="translate(150 0)"/>
      </g>
     </g>
    </g>
    <g id="xtick_9">
     <g id="line2d_9">
      <g>
       <use xlink:href="#ma1fa5815ab" x="310.52829" y="314.449375" style="stroke: #000000; stroke-width: 0.8"/>
      </g>
     </g>
     <g id="text_9">
      <!-- 1974 -->
      <g transform="translate(294.873609 340.501483) rotate(-45) scale(0.1 -0.1)">
       <defs>
        <path id="TimesNewRomanPSMT-34" d="M 2978 1563 
L 2978 1119 
L 2409 1119 
L 2409 0 
L 1894 0 
L 1894 1119 
L 100 1119 
L 100 1519 
L 2066 4325 
L 2409 4325 
L 2409 1563 
L 2978 1563 
z
M 1894 1563 
L 1894 3666 
L 406 1563 
L 1894 1563 
z
" transform="scale(0.015625)"/>
       </defs>
       <use xlink:href="#TimesNewRomanPSMT-31"/>
       <use xlink:href="#TimesNewRomanPSMT-39" transform="translate(50 0)"/>
       <use xlink:href="#TimesNewRomanPSMT-37" transform="translate(100 0)"/>
       <use xlink:href="#TimesNewRomanPSMT-34" transform="translate(150 0)"/>
      </g>
     </g>
    </g>
    <g id="xtick_10">
     <g id="line2d_10">
      <g>
       <use xlink:href="#ma1fa5815ab" x="345.873745" y="314.449375" style="stroke: #000000; stroke-width: 0.8"/>
      </g>
     </g>
     <g id="text_10">
      <!-- 1975 -->
      <g transform="translate(330.219064 340.501483) rotate(-45) scale(0.1 -0.1)">
       <defs>
        <path id="TimesNewRomanPSMT-35" d="M 2778 4238 
L 2534 3706 
L 1259 3706 
L 981 3138 
Q 1809 3016 2294 2522 
Q 2709 2097 2709 1522 
Q 2709 1188 2573 903 
Q 2438 619 2231 419 
Q 2025 219 1772 97 
Q 1413 -75 1034 -75 
Q 653 -75 479 54 
Q 306 184 306 341 
Q 306 428 378 495 
Q 450 563 559 563 
Q 641 563 702 538 
Q 763 513 909 409 
Q 1144 247 1384 247 
Q 1750 247 2026 523 
Q 2303 800 2303 1197 
Q 2303 1581 2056 1914 
Q 1809 2247 1375 2428 
Q 1034 2569 447 2591 
L 1259 4238 
L 2778 4238 
z
" transform="scale(0.015625)"/>
       </defs>
       <use xlink:href="#TimesNewRomanPSMT-31"/>
       <use xlink:href="#TimesNewRomanPSMT-39" transform="translate(50 0)"/>
       <use xlink:href="#TimesNewRomanPSMT-37" transform="translate(100 0)"/>
       <use xlink:href="#TimesNewRomanPSMT-35" transform="translate(150 0)"/>
      </g>
     </g>
    </g>
    <g id="xtick_11">
     <g id="line2d_11">
      <g>
       <use xlink:href="#ma1fa5815ab" x="381.219199" y="314.449375" style="stroke: #000000; stroke-width: 0.8"/>
      </g>
     </g>
     <g id="text_11">
      <!-- 1976 -->
      <g transform="translate(365.564518 340.501483) rotate(-45) scale(0.1 -0.1)">
       <use xlink:href="#TimesNewRomanPSMT-31"/>
       <use xlink:href="#TimesNewRomanPSMT-39" transform="translate(50 0)"/>
       <use xlink:href="#TimesNewRomanPSMT-37" transform="translate(100 0)"/>
       <use xlink:href="#TimesNewRomanPSMT-36" transform="translate(150 0)"/>
      </g>
     </g>
    </g>
    <g id="text_12">
     <!-- Year -->
     <g transform="translate(193.434114 354.346529) scale(0.12 -0.12)">
      <defs>
       <path id="TimesNewRomanPSMT-59" d="M 3050 4238 
L 4528 4238 
L 4528 4122 
L 4447 4122 
Q 4366 4122 4209 4050 
Q 4053 3978 3925 3843 
Q 3797 3709 3609 3406 
L 2588 1797 
L 2588 734 
Q 2588 344 2675 247 
Q 2794 116 3050 116 
L 3188 116 
L 3188 0 
L 1388 0 
L 1388 116 
L 1538 116 
Q 1806 116 1919 278 
Q 1988 378 1988 734 
L 1988 1738 
L 825 3513 
Q 619 3825 545 3903 
Q 472 3981 241 4091 
Q 178 4122 59 4122 
L 59 4238 
L 1872 4238 
L 1872 4122 
L 1778 4122 
Q 1631 4122 1507 4053 
Q 1384 3984 1384 3847 
Q 1384 3734 1575 3441 
L 2459 2075 
L 3291 3381 
Q 3478 3675 3478 3819 
Q 3478 3906 3433 3975 
Q 3388 4044 3303 4083 
Q 3219 4122 3050 4122 
L 3050 4238 
z
" transform="scale(0.015625)"/>
       <path id="TimesNewRomanPSMT-65" d="M 681 1784 
Q 678 1147 991 784 
Q 1303 422 1725 422 
Q 2006 422 2214 576 
Q 2422 731 2563 1106 
L 2659 1044 
Q 2594 616 2278 264 
Q 1963 -88 1488 -88 
Q 972 -88 605 314 
Q 238 716 238 1394 
Q 238 2128 614 2539 
Q 991 2950 1559 2950 
Q 2041 2950 2350 2633 
Q 2659 2316 2659 1784 
L 681 1784 
z
M 681 1966 
L 2006 1966 
Q 1991 2241 1941 2353 
Q 1863 2528 1708 2628 
Q 1553 2728 1384 2728 
Q 1125 2728 920 2526 
Q 716 2325 681 1966 
z
" transform="scale(0.015625)"/>
       <path id="TimesNewRomanPSMT-61" d="M 1822 413 
Q 1381 72 1269 19 
Q 1100 -59 909 -59 
Q 613 -59 420 144 
Q 228 347 228 678 
Q 228 888 322 1041 
Q 450 1253 767 1440 
Q 1084 1628 1822 1897 
L 1822 2009 
Q 1822 2438 1686 2597 
Q 1550 2756 1291 2756 
Q 1094 2756 978 2650 
Q 859 2544 859 2406 
L 866 2225 
Q 866 2081 792 2003 
Q 719 1925 600 1925 
Q 484 1925 411 2006 
Q 338 2088 338 2228 
Q 338 2497 613 2722 
Q 888 2947 1384 2947 
Q 1766 2947 2009 2819 
Q 2194 2722 2281 2516 
Q 2338 2381 2338 1966 
L 2338 994 
Q 2338 584 2353 492 
Q 2369 400 2405 369 
Q 2441 338 2488 338 
Q 2538 338 2575 359 
Q 2641 400 2828 588 
L 2828 413 
Q 2478 -56 2159 -56 
Q 2006 -56 1915 50 
Q 1825 156 1822 413 
z
M 1822 616 
L 1822 1706 
Q 1350 1519 1213 1441 
Q 966 1303 859 1153 
Q 753 1003 753 825 
Q 753 600 887 451 
Q 1022 303 1197 303 
Q 1434 303 1822 616 
z
" transform="scale(0.015625)"/>
       <path id="TimesNewRomanPSMT-72" d="M 1038 2947 
L 1038 2303 
Q 1397 2947 1775 2947 
Q 1947 2947 2059 2842 
Q 2172 2738 2172 2600 
Q 2172 2478 2090 2393 
Q 2009 2309 1897 2309 
Q 1788 2309 1652 2417 
Q 1516 2525 1450 2525 
Q 1394 2525 1328 2463 
Q 1188 2334 1038 2041 
L 1038 669 
Q 1038 431 1097 309 
Q 1138 225 1241 169 
Q 1344 113 1538 113 
L 1538 0 
L 72 0 
L 72 113 
Q 291 113 397 181 
Q 475 231 506 341 
Q 522 394 522 644 
L 522 1753 
Q 522 2253 501 2348 
Q 481 2444 426 2487 
Q 372 2531 291 2531 
Q 194 2531 72 2484 
L 41 2597 
L 906 2947 
L 1038 2947 
z
" transform="scale(0.015625)"/>
      </defs>
      <use xlink:href="#TimesNewRomanPSMT-59"/>
      <use xlink:href="#TimesNewRomanPSMT-65" transform="translate(62.216797 0)"/>
      <use xlink:href="#TimesNewRomanPSMT-61" transform="translate(106.601562 0)"/>
      <use xlink:href="#TimesNewRomanPSMT-72" transform="translate(150.986328 0)"/>
     </g>
    </g>
   </g>
   <g id="patch_3">
    <path d="M 10.091927 314.449375 
L 10.091927 37.249375 
" style="fill: none; stroke: #000000; stroke-width: 0.8; stroke-linejoin: miter; stroke-linecap: square"/>
   </g>
   <g id="patch_4">
    <path d="M 398.891927 314.449375 
L 398.891927 37.249375 
" style="fill: none; stroke: #000000; stroke-width: 0.8; stroke-linejoin: miter; stroke-linecap: square"/>
   </g>
   <g id="patch_5">
    <path d="M 10.091927 314.449375 
L 398.891927 314.449375 
" style="fill: none; stroke: #000000; stroke-width: 0.8; stroke-linejoin: miter; stroke-linecap: square"/>
   </g>
   <g id="patch_6">
    <path d="M 10.091927 37.249375 
L 398.891927 37.249375 
" style="fill: none; stroke: #000000; stroke-width: 0.8; stroke-linejoin: miter; stroke-linecap: square"/>
   </g>
   <g id="text_13">
    <!-- Restaurant Sales from 1966 to 1976 ($)  -->
    <g transform="translate(92.316927 17.249375) scale(0.14 -0.14)">
     <defs>
      <path id="TimesNewRomanPSMT-52" d="M 4325 0 
L 3194 0 
L 1759 1981 
Q 1600 1975 1500 1975 
Q 1459 1975 1412 1976 
Q 1366 1978 1316 1981 
L 1316 750 
Q 1316 350 1403 253 
Q 1522 116 1759 116 
L 1925 116 
L 1925 0 
L 109 0 
L 109 116 
L 269 116 
Q 538 116 653 291 
Q 719 388 719 750 
L 719 3488 
Q 719 3888 631 3984 
Q 509 4122 269 4122 
L 109 4122 
L 109 4238 
L 1653 4238 
Q 2328 4238 2648 4139 
Q 2969 4041 3192 3777 
Q 3416 3513 3416 3147 
Q 3416 2756 3161 2468 
Q 2906 2181 2372 2063 
L 3247 847 
Q 3547 428 3762 290 
Q 3978 153 4325 116 
L 4325 0 
z
M 1316 2178 
Q 1375 2178 1419 2176 
Q 1463 2175 1491 2175 
Q 2097 2175 2405 2437 
Q 2713 2700 2713 3106 
Q 2713 3503 2464 3751 
Q 2216 4000 1806 4000 
Q 1625 4000 1316 3941 
L 1316 2178 
z
" transform="scale(0.015625)"/>
      <path id="TimesNewRomanPSMT-73" d="M 2050 2947 
L 2050 1972 
L 1947 1972 
Q 1828 2431 1642 2597 
Q 1456 2763 1169 2763 
Q 950 2763 815 2647 
Q 681 2531 681 2391 
Q 681 2216 781 2091 
Q 878 1963 1175 1819 
L 1631 1597 
Q 2266 1288 2266 781 
Q 2266 391 1970 151 
Q 1675 -88 1309 -88 
Q 1047 -88 709 6 
Q 606 38 541 38 
Q 469 38 428 -44 
L 325 -44 
L 325 978 
L 428 978 
Q 516 541 762 319 
Q 1009 97 1316 97 
Q 1531 97 1667 223 
Q 1803 350 1803 528 
Q 1803 744 1651 891 
Q 1500 1038 1047 1263 
Q 594 1488 453 1669 
Q 313 1847 313 2119 
Q 313 2472 555 2709 
Q 797 2947 1181 2947 
Q 1350 2947 1591 2875 
Q 1750 2828 1803 2828 
Q 1853 2828 1881 2850 
Q 1909 2872 1947 2947 
L 2050 2947 
z
" transform="scale(0.015625)"/>
      <path id="TimesNewRomanPSMT-74" d="M 1031 3803 
L 1031 2863 
L 1700 2863 
L 1700 2644 
L 1031 2644 
L 1031 788 
Q 1031 509 1111 412 
Q 1191 316 1316 316 
Q 1419 316 1516 380 
Q 1613 444 1666 569 
L 1788 569 
Q 1678 263 1478 108 
Q 1278 -47 1066 -47 
Q 922 -47 784 33 
Q 647 113 581 261 
Q 516 409 516 719 
L 516 2644 
L 63 2644 
L 63 2747 
Q 234 2816 414 2980 
Q 594 3144 734 3369 
Q 806 3488 934 3803 
L 1031 3803 
z
" transform="scale(0.015625)"/>
      <path id="TimesNewRomanPSMT-75" d="M 2709 2863 
L 2709 1128 
Q 2709 631 2732 520 
Q 2756 409 2807 365 
Q 2859 322 2928 322 
Q 3025 322 3147 375 
L 3191 266 
L 2334 -88 
L 2194 -88 
L 2194 519 
Q 1825 119 1631 15 
Q 1438 -88 1222 -88 
Q 981 -88 804 51 
Q 628 191 559 409 
Q 491 628 491 1028 
L 491 2306 
Q 491 2509 447 2587 
Q 403 2666 317 2708 
Q 231 2750 6 2747 
L 6 2863 
L 1009 2863 
L 1009 947 
Q 1009 547 1148 422 
Q 1288 297 1484 297 
Q 1619 297 1789 381 
Q 1959 466 2194 703 
L 2194 2325 
Q 2194 2569 2105 2655 
Q 2016 2741 1734 2747 
L 1734 2863 
L 2709 2863 
z
" transform="scale(0.015625)"/>
      <path id="TimesNewRomanPSMT-6e" d="M 1034 2341 
Q 1538 2947 1994 2947 
Q 2228 2947 2397 2830 
Q 2566 2713 2666 2444 
Q 2734 2256 2734 1869 
L 2734 647 
Q 2734 375 2778 278 
Q 2813 200 2889 156 
Q 2966 113 3172 113 
L 3172 0 
L 1756 0 
L 1756 113 
L 1816 113 
Q 2016 113 2095 173 
Q 2175 234 2206 353 
Q 2219 400 2219 647 
L 2219 1819 
Q 2219 2209 2117 2386 
Q 2016 2563 1775 2563 
Q 1403 2563 1034 2156 
L 1034 647 
Q 1034 356 1069 288 
Q 1113 197 1189 155 
Q 1266 113 1500 113 
L 1500 0 
L 84 0 
L 84 113 
L 147 113 
Q 366 113 442 223 
Q 519 334 519 647 
L 519 1709 
Q 519 2225 495 2337 
Q 472 2450 423 2490 
Q 375 2531 294 2531 
Q 206 2531 84 2484 
L 38 2597 
L 900 2947 
L 1034 2947 
L 1034 2341 
z
" transform="scale(0.015625)"/>
      <path id="TimesNewRomanPSMT-20" transform="scale(0.015625)"/>
      <path id="TimesNewRomanPSMT-53" d="M 2934 4334 
L 2934 2869 
L 2819 2869 
Q 2763 3291 2617 3541 
Q 2472 3791 2203 3937 
Q 1934 4084 1647 4084 
Q 1322 4084 1109 3886 
Q 897 3688 897 3434 
Q 897 3241 1031 3081 
Q 1225 2847 1953 2456 
Q 2547 2138 2764 1967 
Q 2981 1797 3098 1565 
Q 3216 1334 3216 1081 
Q 3216 600 2842 251 
Q 2469 -97 1881 -97 
Q 1697 -97 1534 -69 
Q 1438 -53 1133 45 
Q 828 144 747 144 
Q 669 144 623 97 
Q 578 50 556 -97 
L 441 -97 
L 441 1356 
L 556 1356 
Q 638 900 775 673 
Q 913 447 1195 297 
Q 1478 147 1816 147 
Q 2206 147 2432 353 
Q 2659 559 2659 841 
Q 2659 997 2573 1156 
Q 2488 1316 2306 1453 
Q 2184 1547 1640 1851 
Q 1097 2156 867 2337 
Q 638 2519 519 2737 
Q 400 2956 400 3219 
Q 400 3675 750 4004 
Q 1100 4334 1641 4334 
Q 1978 4334 2356 4169 
Q 2531 4091 2603 4091 
Q 2684 4091 2736 4139 
Q 2788 4188 2819 4334 
L 2934 4334 
z
" transform="scale(0.015625)"/>
      <path id="TimesNewRomanPSMT-6c" d="M 1184 4444 
L 1184 647 
Q 1184 378 1223 290 
Q 1263 203 1344 158 
Q 1425 113 1647 113 
L 1647 0 
L 244 0 
L 244 113 
Q 441 113 512 153 
Q 584 194 625 287 
Q 666 381 666 647 
L 666 3247 
Q 666 3731 644 3842 
Q 622 3953 573 3993 
Q 525 4034 450 4034 
Q 369 4034 244 3984 
L 191 4094 
L 1044 4444 
L 1184 4444 
z
" transform="scale(0.015625)"/>
      <path id="TimesNewRomanPSMT-66" d="M 1319 2638 
L 1319 756 
Q 1319 356 1406 250 
Q 1522 113 1716 113 
L 1975 113 
L 1975 0 
L 266 0 
L 266 113 
L 394 113 
Q 519 113 622 175 
Q 725 238 764 344 
Q 803 450 803 756 
L 803 2638 
L 247 2638 
L 247 2863 
L 803 2863 
L 803 3050 
Q 803 3478 940 3775 
Q 1078 4072 1361 4255 
Q 1644 4438 1997 4438 
Q 2325 4438 2600 4225 
Q 2781 4084 2781 3909 
Q 2781 3816 2700 3733 
Q 2619 3650 2525 3650 
Q 2453 3650 2373 3701 
Q 2294 3753 2178 3923 
Q 2063 4094 1966 4153 
Q 1869 4213 1750 4213 
Q 1606 4213 1506 4136 
Q 1406 4059 1362 3898 
Q 1319 3738 1319 3069 
L 1319 2863 
L 2056 2863 
L 2056 2638 
L 1319 2638 
z
" transform="scale(0.015625)"/>
      <path id="TimesNewRomanPSMT-6f" d="M 1600 2947 
Q 2250 2947 2644 2453 
Q 2978 2031 2978 1484 
Q 2978 1100 2793 706 
Q 2609 313 2286 112 
Q 1963 -88 1566 -88 
Q 919 -88 538 428 
Q 216 863 216 1403 
Q 216 1797 411 2186 
Q 606 2575 925 2761 
Q 1244 2947 1600 2947 
z
M 1503 2744 
Q 1338 2744 1170 2645 
Q 1003 2547 900 2300 
Q 797 2053 797 1666 
Q 797 1041 1045 587 
Q 1294 134 1700 134 
Q 2003 134 2200 384 
Q 2397 634 2397 1244 
Q 2397 2006 2069 2444 
Q 1847 2744 1503 2744 
z
" transform="scale(0.015625)"/>
      <path id="TimesNewRomanPSMT-6d" d="M 1050 2338 
Q 1363 2650 1419 2697 
Q 1559 2816 1721 2881 
Q 1884 2947 2044 2947 
Q 2313 2947 2506 2790 
Q 2700 2634 2766 2338 
Q 3088 2713 3309 2830 
Q 3531 2947 3766 2947 
Q 3994 2947 4170 2830 
Q 4347 2713 4450 2447 
Q 4519 2266 4519 1878 
L 4519 647 
Q 4519 378 4559 278 
Q 4591 209 4675 161 
Q 4759 113 4950 113 
L 4950 0 
L 3538 0 
L 3538 113 
L 3597 113 
Q 3781 113 3884 184 
Q 3956 234 3988 344 
Q 4000 397 4000 647 
L 4000 1878 
Q 4000 2228 3916 2372 
Q 3794 2572 3525 2572 
Q 3359 2572 3192 2489 
Q 3025 2406 2788 2181 
L 2781 2147 
L 2788 2013 
L 2788 647 
Q 2788 353 2820 281 
Q 2853 209 2943 161 
Q 3034 113 3253 113 
L 3253 0 
L 1806 0 
L 1806 113 
Q 2044 113 2133 169 
Q 2222 225 2256 338 
Q 2272 391 2272 647 
L 2272 1878 
Q 2272 2228 2169 2381 
Q 2031 2581 1784 2581 
Q 1616 2581 1450 2491 
Q 1191 2353 1050 2181 
L 1050 647 
Q 1050 366 1089 281 
Q 1128 197 1204 155 
Q 1281 113 1516 113 
L 1516 0 
L 100 0 
L 100 113 
Q 297 113 375 155 
Q 453 197 493 289 
Q 534 381 534 647 
L 534 1741 
Q 534 2213 506 2350 
Q 484 2453 437 2492 
Q 391 2531 309 2531 
Q 222 2531 100 2484 
L 53 2597 
L 916 2947 
L 1050 2947 
L 1050 2338 
z
" transform="scale(0.015625)"/>
      <path id="TimesNewRomanPSMT-28" d="M 1988 -1253 
L 1988 -1369 
Q 1516 -1131 1200 -813 
Q 750 -359 506 256 
Q 263 872 263 1534 
Q 263 2503 741 3301 
Q 1219 4100 1988 4444 
L 1988 4313 
Q 1603 4100 1356 3731 
Q 1109 3363 987 2797 
Q 866 2231 866 1616 
Q 866 947 969 400 
Q 1050 -31 1165 -292 
Q 1281 -553 1476 -793 
Q 1672 -1034 1988 -1253 
z
" transform="scale(0.015625)"/>
      <path id="TimesNewRomanPSMT-24" d="M 338 1044 
L 475 1044 
Q 509 616 743 387 
Q 978 159 1444 116 
L 1444 1941 
Q 741 2375 506 2709 
Q 341 2947 341 3288 
Q 341 3672 627 3959 
Q 913 4247 1444 4306 
L 1444 4594 
L 1644 4594 
L 1644 4306 
Q 1900 4291 2075 4247 
Q 2166 4225 2675 4031 
L 2675 3097 
L 2553 3097 
Q 2513 3594 2295 3823 
Q 2078 4053 1644 4097 
L 1644 2509 
Q 2431 1959 2654 1698 
Q 2878 1438 2878 1050 
Q 2878 619 2551 290 
Q 2225 -38 1644 -88 
L 1644 -488 
L 1444 -488 
L 1444 -88 
Q 1150 -75 897 -20 
Q 644 34 338 159 
L 338 1044 
z
M 1444 2641 
L 1444 4094 
Q 1131 4056 979 3895 
Q 828 3734 828 3491 
Q 828 3263 965 3064 
Q 1103 2866 1444 2641 
z
M 1644 116 
Q 1878 156 2003 231 
Q 2178 341 2279 517 
Q 2381 694 2381 894 
Q 2381 1100 2257 1284 
Q 2134 1469 1644 1806 
L 1644 116 
z
" transform="scale(0.015625)"/>
      <path id="TimesNewRomanPSMT-29" d="M 144 4313 
L 144 4444 
Q 619 4209 934 3891 
Q 1381 3434 1625 2820 
Q 1869 2206 1869 1541 
Q 1869 572 1392 -226 
Q 916 -1025 144 -1369 
L 144 -1253 
Q 528 -1038 776 -670 
Q 1025 -303 1145 264 
Q 1266 831 1266 1447 
Q 1266 2113 1163 2663 
Q 1084 3094 967 3353 
Q 850 3613 656 3853 
Q 463 4094 144 4313 
z
" transform="scale(0.015625)"/>
     </defs>
     <use xlink:href="#TimesNewRomanPSMT-52"/>
     <use xlink:href="#TimesNewRomanPSMT-65" transform="translate(66.699219 0)"/>
     <use xlink:href="#TimesNewRomanPSMT-73" transform="translate(111.083984 0)"/>
     <use xlink:href="#TimesNewRomanPSMT-74" transform="translate(150 0)"/>
     <use xlink:href="#TimesNewRomanPSMT-61" transform="translate(177.783203 0)"/>
     <use xlink:href="#TimesNewRomanPSMT-75" transform="translate(222.167969 0)"/>
     <use xlink:href="#TimesNewRomanPSMT-72" transform="translate(272.167969 0)"/>
     <use xlink:href="#TimesNewRomanPSMT-61" transform="translate(305.46875 0)"/>
     <use xlink:href="#TimesNewRomanPSMT-6e" transform="translate(349.853516 0)"/>
     <use xlink:href="#TimesNewRomanPSMT-74" transform="translate(399.853516 0)"/>
     <use xlink:href="#TimesNewRomanPSMT-20" transform="translate(427.636719 0)"/>
     <use xlink:href="#TimesNewRomanPSMT-53" transform="translate(452.636719 0)"/>
     <use xlink:href="#TimesNewRomanPSMT-61" transform="translate(508.251953 0)"/>
     <use xlink:href="#TimesNewRomanPSMT-6c" transform="translate(552.636719 0)"/>
     <use xlink:href="#TimesNewRomanPSMT-65" transform="translate(580.419922 0)"/>
     <use xlink:href="#TimesNewRomanPSMT-73" transform="translate(624.804688 0)"/>
     <use xlink:href="#TimesNewRomanPSMT-20" transform="translate(663.720703 0)"/>
     <use xlink:href="#TimesNewRomanPSMT-66" transform="translate(688.720703 0)"/>
     <use xlink:href="#TimesNewRomanPSMT-72" transform="translate(722.021484 0)"/>
     <use xlink:href="#TimesNewRomanPSMT-6f" transform="translate(755.322266 0)"/>
     <use xlink:href="#TimesNewRomanPSMT-6d" transform="translate(805.322266 0)"/>
     <use xlink:href="#TimesNewRomanPSMT-20" transform="translate(883.105469 0)"/>
     <use xlink:href="#TimesNewRomanPSMT-31" transform="translate(908.105469 0)"/>
     <use xlink:href="#TimesNewRomanPSMT-39" transform="translate(958.105469 0)"/>
     <use xlink:href="#TimesNewRomanPSMT-36" transform="translate(1008.105469 0)"/>
     <use xlink:href="#TimesNewRomanPSMT-36" transform="translate(1058.105469 0)"/>
     <use xlink:href="#TimesNewRomanPSMT-20" transform="translate(1108.105469 0)"/>
     <use xlink:href="#TimesNewRomanPSMT-74" transform="translate(1133.105469 0)"/>
     <use xlink:href="#TimesNewRomanPSMT-6f" transform="translate(1160.888672 0)"/>
     <use xlink:href="#TimesNewRomanPSMT-20" transform="translate(1210.888672 0)"/>
     <use xlink:href="#TimesNewRomanPSMT-31" transform="translate(1235.888672 0)"/>
     <use xlink:href="#TimesNewRomanPSMT-39" transform="translate(1285.888672 0)"/>
     <use xlink:href="#TimesNewRomanPSMT-37" transform="translate(1335.888672 0)"/>
     <use xlink:href="#TimesNewRomanPSMT-36" transform="translate(1385.888672 0)"/>
     <use xlink:href="#TimesNewRomanPSMT-20" transform="translate(1435.888672 0)"/>
     <use xlink:href="#TimesNewRomanPSMT-28" transform="translate(1460.888672 0)"/>
     <use xlink:href="#TimesNewRomanPSMT-24" transform="translate(1494.189453 0)"/>
     <use xlink:href="#TimesNewRomanPSMT-29" transform="translate(1544.189453 0)"/>
     <use xlink:href="#TimesNewRomanPSMT-20" transform="translate(1577.490234 0)"/>
    </g>
   </g>
   <g id="legend_1">
    <g id="patch_7">
     <path d="M 415.667927 164.122031 
L 435.667927 164.122031 
L 435.667927 157.122031 
L 415.667927 157.122031 
z
" style="fill: #1f77b4"/>
    </g>
    <g id="text_14">
     <!-- The Golden Spoon -->
     <g transform="translate(443.667927 164.122031) scale(0.1 -0.1)">
      <defs>
       <path id="TimesNewRomanPSMT-54" d="M 3703 4238 
L 3750 3244 
L 3631 3244 
Q 3597 3506 3538 3619 
Q 3441 3800 3280 3886 
Q 3119 3972 2856 3972 
L 2259 3972 
L 2259 734 
Q 2259 344 2344 247 
Q 2463 116 2709 116 
L 2856 116 
L 2856 0 
L 1059 0 
L 1059 116 
L 1209 116 
Q 1478 116 1591 278 
Q 1659 378 1659 734 
L 1659 3972 
L 1150 3972 
Q 853 3972 728 3928 
Q 566 3869 450 3700 
Q 334 3531 313 3244 
L 194 3244 
L 244 4238 
L 3703 4238 
z
" transform="scale(0.015625)"/>
       <path id="TimesNewRomanPSMT-68" d="M 1041 4444 
L 1041 2350 
Q 1388 2731 1591 2839 
Q 1794 2947 1997 2947 
Q 2241 2947 2416 2812 
Q 2591 2678 2675 2391 
Q 2734 2191 2734 1659 
L 2734 647 
Q 2734 375 2778 275 
Q 2809 200 2884 156 
Q 2959 113 3159 113 
L 3159 0 
L 1753 0 
L 1753 113 
L 1819 113 
Q 2019 113 2097 173 
Q 2175 234 2206 353 
Q 2216 403 2216 647 
L 2216 1659 
Q 2216 2128 2167 2275 
Q 2119 2422 2012 2495 
Q 1906 2569 1756 2569 
Q 1603 2569 1437 2487 
Q 1272 2406 1041 2159 
L 1041 647 
Q 1041 353 1073 281 
Q 1106 209 1195 161 
Q 1284 113 1503 113 
L 1503 0 
L 84 0 
L 84 113 
Q 275 113 384 172 
Q 447 203 484 290 
Q 522 378 522 647 
L 522 3238 
Q 522 3728 498 3840 
Q 475 3953 426 3993 
Q 378 4034 297 4034 
Q 231 4034 84 3984 
L 41 4094 
L 897 4444 
L 1041 4444 
z
" transform="scale(0.015625)"/>
       <path id="TimesNewRomanPSMT-47" d="M 3928 4334 
L 4038 2997 
L 3928 2997 
Q 3763 3497 3500 3750 
Q 3122 4116 2528 4116 
Q 1719 4116 1297 3475 
Q 944 2934 944 2188 
Q 944 1581 1178 1081 
Q 1413 581 1792 348 
Q 2172 116 2572 116 
Q 2806 116 3025 175 
Q 3244 234 3447 350 
L 3447 1575 
Q 3447 1894 3398 1992 
Q 3350 2091 3248 2142 
Q 3147 2194 2891 2194 
L 2891 2313 
L 4531 2313 
L 4531 2194 
L 4453 2194 
Q 4209 2194 4119 2031 
Q 4056 1916 4056 1575 
L 4056 278 
Q 3697 84 3347 -6 
Q 2997 -97 2569 -97 
Q 1341 -97 703 691 
Q 225 1281 225 2053 
Q 225 2613 494 3125 
Q 813 3734 1369 4063 
Q 1834 4334 2469 4334 
Q 2700 4334 2889 4296 
Q 3078 4259 3425 4131 
Q 3600 4066 3659 4066 
Q 3719 4066 3761 4120 
Q 3803 4175 3813 4334 
L 3928 4334 
z
" transform="scale(0.015625)"/>
       <path id="TimesNewRomanPSMT-64" d="M 2222 322 
Q 2013 103 1813 7 
Q 1613 -88 1381 -88 
Q 913 -88 563 304 
Q 213 697 213 1313 
Q 213 1928 600 2439 
Q 988 2950 1597 2950 
Q 1975 2950 2222 2709 
L 2222 3238 
Q 2222 3728 2198 3840 
Q 2175 3953 2125 3993 
Q 2075 4034 2000 4034 
Q 1919 4034 1784 3984 
L 1744 4094 
L 2597 4444 
L 2738 4444 
L 2738 1134 
Q 2738 631 2761 520 
Q 2784 409 2836 365 
Q 2888 322 2956 322 
Q 3041 322 3181 375 
L 3216 266 
L 2366 -88 
L 2222 -88 
L 2222 322 
z
M 2222 541 
L 2222 2016 
Q 2203 2228 2109 2403 
Q 2016 2578 1861 2667 
Q 1706 2756 1559 2756 
Q 1284 2756 1069 2509 
Q 784 2184 784 1559 
Q 784 928 1059 592 
Q 1334 256 1672 256 
Q 1956 256 2222 541 
z
" transform="scale(0.015625)"/>
       <path id="TimesNewRomanPSMT-70" d="M -6 2578 
L 875 2934 
L 994 2934 
L 994 2266 
Q 1216 2644 1439 2795 
Q 1663 2947 1909 2947 
Q 2341 2947 2628 2609 
Q 2981 2197 2981 1534 
Q 2981 794 2556 309 
Q 2206 -88 1675 -88 
Q 1444 -88 1275 -22 
Q 1150 25 994 166 
L 994 -706 
Q 994 -1000 1030 -1079 
Q 1066 -1159 1155 -1206 
Q 1244 -1253 1478 -1253 
L 1478 -1369 
L -22 -1369 
L -22 -1253 
L 56 -1253 
Q 228 -1256 350 -1188 
Q 409 -1153 442 -1076 
Q 475 -1000 475 -688 
L 475 2019 
Q 475 2297 450 2372 
Q 425 2447 370 2484 
Q 316 2522 222 2522 
Q 147 2522 31 2478 
L -6 2578 
z
M 994 2081 
L 994 1013 
Q 994 666 1022 556 
Q 1066 375 1236 237 
Q 1406 100 1666 100 
Q 1978 100 2172 344 
Q 2425 663 2425 1241 
Q 2425 1897 2138 2250 
Q 1938 2494 1663 2494 
Q 1513 2494 1366 2419 
Q 1253 2363 994 2081 
z
" transform="scale(0.015625)"/>
      </defs>
      <use xlink:href="#TimesNewRomanPSMT-54"/>
      <use xlink:href="#TimesNewRomanPSMT-68" transform="translate(61.083984 0)"/>
      <use xlink:href="#TimesNewRomanPSMT-65" transform="translate(111.083984 0)"/>
      <use xlink:href="#TimesNewRomanPSMT-20" transform="translate(155.46875 0)"/>
      <use xlink:href="#TimesNewRomanPSMT-47" transform="translate(180.46875 0)"/>
      <use xlink:href="#TimesNewRomanPSMT-6f" transform="translate(252.685547 0)"/>
      <use xlink:href="#TimesNewRomanPSMT-6c" transform="translate(302.685547 0)"/>
      <use xlink:href="#TimesNewRomanPSMT-64" transform="translate(330.46875 0)"/>
      <use xlink:href="#TimesNewRomanPSMT-65" transform="translate(380.46875 0)"/>
      <use xlink:href="#TimesNewRomanPSMT-6e" transform="translate(424.853516 0)"/>
      <use xlink:href="#TimesNewRomanPSMT-20" transform="translate(474.853516 0)"/>
      <use xlink:href="#TimesNewRomanPSMT-53" transform="translate(499.853516 0)"/>
      <use xlink:href="#TimesNewRomanPSMT-70" transform="translate(555.46875 0)"/>
      <use xlink:href="#TimesNewRomanPSMT-6f" transform="translate(605.46875 0)"/>
      <use xlink:href="#TimesNewRomanPSMT-6f" transform="translate(655.46875 0)"/>
      <use xlink:href="#TimesNewRomanPSMT-6e" transform="translate(705.46875 0)"/>
     </g>
    </g>
    <g id="patch_8">
     <path d="M 415.667927 178.261094 
L 435.667927 178.261094 
L 435.667927 171.261094 
L 415.667927 171.261094 
z
" style="fill: #aec7e8"/>
    </g>
    <g id="text_15">
     <!-- Sky High Cafe -->
     <g transform="translate(443.667927 178.261094) scale(0.1 -0.1)">
      <defs>
       <path id="TimesNewRomanPSMT-6b" d="M 1047 4444 
L 1047 1597 
L 1775 2259 
Q 2006 2472 2044 2528 
Q 2069 2566 2069 2603 
Q 2069 2666 2017 2711 
Q 1966 2756 1847 2763 
L 1847 2863 
L 3091 2863 
L 3091 2763 
Q 2834 2756 2664 2684 
Q 2494 2613 2291 2428 
L 1556 1750 
L 2291 822 
Q 2597 438 2703 334 
Q 2853 188 2966 144 
Q 3044 113 3238 113 
L 3238 0 
L 1847 0 
L 1847 113 
Q 1966 116 2008 148 
Q 2050 181 2050 241 
Q 2050 313 1925 472 
L 1047 1594 
L 1047 644 
Q 1047 366 1086 278 
Q 1125 191 1197 153 
Q 1269 116 1509 113 
L 1509 0 
L 53 0 
L 53 113 
Q 272 113 381 166 
Q 447 200 481 272 
Q 528 375 528 628 
L 528 3234 
Q 528 3731 506 3842 
Q 484 3953 434 3995 
Q 384 4038 303 4038 
Q 238 4038 106 3984 
L 53 4094 
L 903 4444 
L 1047 4444 
z
" transform="scale(0.015625)"/>
       <path id="TimesNewRomanPSMT-79" d="M 38 2863 
L 1372 2863 
L 1372 2747 
L 1306 2747 
Q 1166 2747 1095 2686 
Q 1025 2625 1025 2534 
Q 1025 2413 1128 2197 
L 1825 753 
L 2466 2334 
Q 2519 2463 2519 2588 
Q 2519 2644 2497 2672 
Q 2472 2706 2419 2726 
Q 2366 2747 2231 2747 
L 2231 2863 
L 3163 2863 
L 3163 2747 
Q 3047 2734 2984 2696 
Q 2922 2659 2847 2556 
Q 2819 2513 2741 2316 
L 1575 -541 
Q 1406 -956 1132 -1168 
Q 859 -1381 606 -1381 
Q 422 -1381 303 -1275 
Q 184 -1169 184 -1031 
Q 184 -900 270 -820 
Q 356 -741 506 -741 
Q 609 -741 788 -809 
Q 913 -856 944 -856 
Q 1038 -856 1148 -759 
Q 1259 -663 1372 -384 
L 1575 113 
L 547 2272 
Q 500 2369 397 2513 
Q 319 2622 269 2659 
Q 197 2709 38 2747 
L 38 2863 
z
" transform="scale(0.015625)"/>
       <path id="TimesNewRomanPSMT-48" d="M 1316 2272 
L 3284 2272 
L 3284 3484 
Q 3284 3809 3244 3913 
Q 3213 3991 3113 4047 
Q 2978 4122 2828 4122 
L 2678 4122 
L 2678 4238 
L 4491 4238 
L 4491 4122 
L 4341 4122 
Q 4191 4122 4056 4050 
Q 3956 4000 3920 3898 
Q 3884 3797 3884 3484 
L 3884 750 
Q 3884 428 3925 325 
Q 3956 247 4053 191 
Q 4191 116 4341 116 
L 4491 116 
L 4491 0 
L 2678 0 
L 2678 116 
L 2828 116 
Q 3088 116 3206 269 
Q 3284 369 3284 750 
L 3284 2041 
L 1316 2041 
L 1316 750 
Q 1316 428 1356 325 
Q 1388 247 1488 191 
Q 1622 116 1772 116 
L 1925 116 
L 1925 0 
L 109 0 
L 109 116 
L 259 116 
Q 522 116 641 269 
Q 716 369 716 750 
L 716 3484 
Q 716 3809 675 3913 
Q 644 3991 547 4047 
Q 409 4122 259 4122 
L 109 4122 
L 109 4238 
L 1925 4238 
L 1925 4122 
L 1772 4122 
Q 1622 4122 1488 4050 
Q 1391 4000 1353 3898 
Q 1316 3797 1316 3484 
L 1316 2272 
z
" transform="scale(0.015625)"/>
       <path id="TimesNewRomanPSMT-69" d="M 928 4444 
Q 1059 4444 1151 4351 
Q 1244 4259 1244 4128 
Q 1244 3997 1151 3903 
Q 1059 3809 928 3809 
Q 797 3809 703 3903 
Q 609 3997 609 4128 
Q 609 4259 701 4351 
Q 794 4444 928 4444 
z
M 1188 2947 
L 1188 647 
Q 1188 378 1227 289 
Q 1266 200 1342 156 
Q 1419 113 1622 113 
L 1622 0 
L 231 0 
L 231 113 
Q 441 113 512 153 
Q 584 194 626 287 
Q 669 381 669 647 
L 669 1750 
Q 669 2216 641 2353 
Q 619 2453 572 2492 
Q 525 2531 444 2531 
Q 356 2531 231 2484 
L 188 2597 
L 1050 2947 
L 1188 2947 
z
" transform="scale(0.015625)"/>
       <path id="TimesNewRomanPSMT-67" d="M 966 1044 
Q 703 1172 562 1401 
Q 422 1631 422 1909 
Q 422 2334 742 2640 
Q 1063 2947 1563 2947 
Q 1972 2947 2272 2747 
L 2878 2747 
Q 3013 2747 3034 2739 
Q 3056 2731 3066 2713 
Q 3084 2684 3084 2613 
Q 3084 2531 3069 2500 
Q 3059 2484 3036 2475 
Q 3013 2466 2878 2466 
L 2506 2466 
Q 2681 2241 2681 1891 
Q 2681 1491 2375 1206 
Q 2069 922 1553 922 
Q 1341 922 1119 984 
Q 981 866 932 777 
Q 884 688 884 625 
Q 884 572 936 522 
Q 988 472 1138 450 
Q 1225 438 1575 428 
Q 2219 413 2409 384 
Q 2700 344 2873 169 
Q 3047 -6 3047 -263 
Q 3047 -616 2716 -925 
Q 2228 -1381 1444 -1381 
Q 841 -1381 425 -1109 
Q 191 -953 191 -784 
Q 191 -709 225 -634 
Q 278 -519 444 -313 
Q 466 -284 763 25 
Q 600 122 533 198 
Q 466 275 466 372 
Q 466 481 555 628 
Q 644 775 966 1044 
z
M 1509 2797 
Q 1278 2797 1122 2612 
Q 966 2428 966 2047 
Q 966 1553 1178 1281 
Q 1341 1075 1591 1075 
Q 1828 1075 1981 1253 
Q 2134 1431 2134 1813 
Q 2134 2309 1919 2591 
Q 1759 2797 1509 2797 
z
M 934 0 
Q 788 -159 713 -296 
Q 638 -434 638 -550 
Q 638 -700 819 -813 
Q 1131 -1006 1722 -1006 
Q 2284 -1006 2551 -807 
Q 2819 -609 2819 -384 
Q 2819 -222 2659 -153 
Q 2497 -84 2016 -72 
Q 1313 -53 934 0 
z
" transform="scale(0.015625)"/>
       <path id="TimesNewRomanPSMT-43" d="M 3853 4334 
L 3950 2894 
L 3853 2894 
Q 3659 3541 3300 3825 
Q 2941 4109 2438 4109 
Q 2016 4109 1675 3895 
Q 1334 3681 1139 3212 
Q 944 2744 944 2047 
Q 944 1472 1128 1050 
Q 1313 628 1683 403 
Q 2053 178 2528 178 
Q 2941 178 3256 354 
Q 3572 531 3950 1056 
L 4047 994 
Q 3728 428 3303 165 
Q 2878 -97 2294 -97 
Q 1241 -97 663 684 
Q 231 1266 231 2053 
Q 231 2688 515 3219 
Q 800 3750 1298 4042 
Q 1797 4334 2388 4334 
Q 2847 4334 3294 4109 
Q 3425 4041 3481 4041 
Q 3566 4041 3628 4100 
Q 3709 4184 3744 4334 
L 3853 4334 
z
" transform="scale(0.015625)"/>
      </defs>
      <use xlink:href="#TimesNewRomanPSMT-53"/>
      <use xlink:href="#TimesNewRomanPSMT-6b" transform="translate(55.615234 0)"/>
      <use xlink:href="#TimesNewRomanPSMT-79" transform="translate(105.615234 0)"/>
      <use xlink:href="#TimesNewRomanPSMT-20" transform="translate(155.615234 0)"/>
      <use xlink:href="#TimesNewRomanPSMT-48" transform="translate(180.615234 0)"/>
      <use xlink:href="#TimesNewRomanPSMT-69" transform="translate(252.832031 0)"/>
      <use xlink:href="#TimesNewRomanPSMT-67" transform="translate(280.615234 0)"/>
      <use xlink:href="#TimesNewRomanPSMT-68" transform="translate(330.615234 0)"/>
      <use xlink:href="#TimesNewRomanPSMT-20" transform="translate(380.615234 0)"/>
      <use xlink:href="#TimesNewRomanPSMT-43" transform="translate(405.615234 0)"/>
      <use xlink:href="#TimesNewRomanPSMT-61" transform="translate(472.314453 0)"/>
      <use xlink:href="#TimesNewRomanPSMT-66" transform="translate(516.699219 0)"/>
      <use xlink:href="#TimesNewRomanPSMT-65" transform="translate(550 0)"/>
     </g>
    </g>
    <g id="patch_9">
     <path d="M 415.667927 192.418906 
L 435.667927 192.418906 
L 435.667927 185.418906 
L 415.667927 185.418906 
z
" style="fill: #ff7f0e"/>
    </g>
    <g id="text_16">
     <!-- The Cozy Nook -->
     <g transform="translate(443.667927 192.418906) scale(0.1 -0.1)">
      <defs>
       <path id="TimesNewRomanPSMT-7a" d="M 2688 878 
L 2653 0 
L 128 0 
L 128 113 
L 2028 2644 
L 1091 2644 
Q 788 2644 694 2605 
Q 600 2566 541 2456 
Q 456 2300 444 2069 
L 319 2069 
L 338 2863 
L 2738 2863 
L 2738 2747 
L 819 209 
L 1863 209 
Q 2191 209 2308 264 
Q 2425 319 2497 456 
Q 2547 556 2581 878 
L 2688 878 
z
" transform="scale(0.015625)"/>
       <path id="TimesNewRomanPSMT-4e" d="M -84 4238 
L 1066 4238 
L 3656 1059 
L 3656 3503 
Q 3656 3894 3569 3991 
Q 3453 4122 3203 4122 
L 3056 4122 
L 3056 4238 
L 4531 4238 
L 4531 4122 
L 4381 4122 
Q 4113 4122 4000 3959 
Q 3931 3859 3931 3503 
L 3931 -69 
L 3819 -69 
L 1025 3344 
L 1025 734 
Q 1025 344 1109 247 
Q 1228 116 1475 116 
L 1625 116 
L 1625 0 
L 150 0 
L 150 116 
L 297 116 
Q 569 116 681 278 
Q 750 378 750 734 
L 750 3681 
Q 566 3897 470 3965 
Q 375 4034 191 4094 
Q 100 4122 -84 4122 
L -84 4238 
z
" transform="scale(0.015625)"/>
      </defs>
      <use xlink:href="#TimesNewRomanPSMT-54"/>
      <use xlink:href="#TimesNewRomanPSMT-68" transform="translate(61.083984 0)"/>
      <use xlink:href="#TimesNewRomanPSMT-65" transform="translate(111.083984 0)"/>
      <use xlink:href="#TimesNewRomanPSMT-20" transform="translate(155.46875 0)"/>
      <use xlink:href="#TimesNewRomanPSMT-43" transform="translate(180.46875 0)"/>
      <use xlink:href="#TimesNewRomanPSMT-6f" transform="translate(247.167969 0)"/>
      <use xlink:href="#TimesNewRomanPSMT-7a" transform="translate(297.167969 0)"/>
      <use xlink:href="#TimesNewRomanPSMT-79" transform="translate(341.552734 0)"/>
      <use xlink:href="#TimesNewRomanPSMT-20" transform="translate(391.552734 0)"/>
      <use xlink:href="#TimesNewRomanPSMT-4e" transform="translate(416.552734 0)"/>
      <use xlink:href="#TimesNewRomanPSMT-6f" transform="translate(488.769531 0)"/>
      <use xlink:href="#TimesNewRomanPSMT-6f" transform="translate(538.769531 0)"/>
      <use xlink:href="#TimesNewRomanPSMT-6b" transform="translate(588.769531 0)"/>
     </g>
    </g>
   </g>
  </g>
 </g>
 <defs>
  <clipPath id="peaadca9075">
   <rect x="10.091927" y="37.249375" width="388.8" height="277.2"/>
  </clipPath>
 </defs>
</svg>
