<?xml version="1.0" encoding="utf-8" standalone="no"?>
<!DOCTYPE svg PUBLIC "-//W3C//DTD SVG 1.1//EN"
  "http://www.w3.org/Graphics/SVG/1.1/DTD/svg11.dtd">
<svg xmlns:xlink="http://www.w3.org/1999/xlink" width="512.366364pt" height="364.113404pt" viewBox="0 0 512.366364 364.113404" xmlns="http://www.w3.org/2000/svg" version="1.1">
 <metadata>
  <rdf:RDF xmlns:dc="http://purl.org/dc/elements/1.1/" xmlns:cc="http://creativecommons.org/ns#" xmlns:rdf="http://www.w3.org/1999/02/22-rdf-syntax-ns#">
   <cc:Work>
    <dc:type rdf:resource="http://purl.org/dc/dcmitype/StillImage"/>
    <dc:date>2025-05-30T23:34:29.597934</dc:date>
    <dc:format>image/svg+xml</dc:format>
    <dc:creator>
     <cc:Agent>
      <dc:title>Matplotlib v3.10.3, https://matplotlib.org/</dc:title>
     </cc:Agent>
    </dc:creator>
   </cc:Work>
  </rdf:RDF>
 </metadata>
 <defs>
  <style type="text/css">*{stroke-linejoin: round; stroke-linecap: butt}</style>
 </defs>
 <g id="figure_1">
  <g id="patch_1">
   <path d="M 0 364.113404 
L 512.366364 364.113404 
L 512.366364 0 
L 0 0 
z
" style="fill: #ffffff"/>
  </g>
  <g id="axes_1">
   <g id="patch_2">
    <path d="M 10.091927 314.449375 
L 398.891927 314.449375 
L 398.891927 37.249375 
L 10.091927 37.249375 
z
" style="fill: #ffffff"/>
   </g>
   <g id="FillBetweenPolyCollection_1">
    <path d="M 27.764654 224.676185 
L 27.764654 283.533492 
L 29.031516 285.925801 
L 30.298378 287.831652 
L 31.56524 289.287769 
L 32.832103 290.330876 
L 34.098965 290.997697 
L 35.365827 291.324955 
L 36.632689 291.349375 
L 37.899551 291.10768 
L 39.166413 290.636593 
L 40.433276 289.97284 
L 41.700138 289.153142 
L 42.967 288.214225 
L 44.233862 287.192813 
L 45.500724 286.125627 
L 46.767586 285.049394 
L 48.034449 284.000836 
L 49.301311 283.016677 
L 50.568173 282.133642 
L 51.835035 281.388453 
L 53.101897 280.817834 
L 54.36876 280.457921 
L 55.635622 280.30947 
L 56.902484 280.318409 
L 58.169346 280.425946 
L 59.436208 280.573291 
L 60.70307 280.701652 
L 61.969933 280.75224 
L 63.236795 280.666262 
L 64.503657 280.384928 
L 65.770519 279.849448 
L 67.037381 279.00103 
L 68.304243 277.805925 
L 69.571106 276.330546 
L 70.837968 274.666348 
L 72.10483 272.904784 
L 73.371692 271.13731 
L 74.638554 269.455379 
L 75.905416 267.950447 
L 77.172279 266.713967 
L 78.439141 265.837394 
L 79.706003 265.412182 
L 80.972865 265.52013 
L 82.239727 266.130773 
L 83.506589 267.141225 
L 84.773452 268.447389 
L 86.040314 269.945169 
L 87.307176 271.530471 
L 88.574038 273.099198 
L 89.8409 274.547255 
L 91.107762 275.770546 
L 92.374625 276.664976 
L 93.641487 277.127514 
L 94.908349 277.118996 
L 96.175211 276.699255 
L 97.442073 275.93664 
L 98.708935 274.899498 
L 99.975798 273.656177 
L 101.24266 272.275027 
L 102.509522 270.824395 
L 103.776384 269.37263 
L 105.043246 267.988079 
L 106.310108 266.739091 
L 107.576971 265.680492 
L 108.843833 264.813019 
L 110.110695 264.123885 
L 111.377557 263.600304 
L 112.644419 263.229491 
L 113.911282 262.998659 
L 115.178144 262.895023 
L 116.445006 262.905797 
L 117.711868 263.018194 
L 118.97873 263.219429 
L 120.245592 263.496247 
L 121.512455 263.829946 
L 122.779317 264.198309 
L 124.046179 264.579058 
L 125.313041 264.949919 
L 126.579903 265.288616 
L 127.846765 265.572872 
L 129.113628 265.780412 
L 130.38049 265.888959 
L 131.647352 265.876238 
L 132.914214 265.720291 
L 134.181076 265.418225 
L 135.447938 264.996703 
L 136.714801 264.484926 
L 137.981663 263.912099 
L 139.248525 263.307425 
L 140.515387 262.700107 
L 141.782249 262.119348 
L 143.049111 261.594351 
L 144.315974 261.15432 
L 145.582836 260.828458 
L 146.849698 260.633857 
L 148.11656 260.539165 
L 149.383422 260.500916 
L 150.650284 260.475647 
L 151.917147 260.419894 
L 153.184009 260.290193 
L 154.450871 260.043079 
L 155.717733 259.635088 
L 156.984595 259.022756 
L 158.251457 258.16262 
L 159.51832 257.017639 
L 160.785182 255.625471 
L 162.052044 254.071963 
L 163.318906 252.443766 
L 164.585768 250.827528 
L 165.85263 249.309901 
L 167.119493 247.977535 
L 168.386355 246.917079 
L 169.653217 246.215185 
L 170.920079 245.958502 
L 172.186941 246.232447 
L 173.453803 247.048394 
L 174.720666 248.302952 
L 175.987528 249.88286 
L 177.25439 251.674854 
L 178.521252 253.565672 
L 179.788114 255.442051 
L 181.054977 257.19073 
L 182.321839 258.698444 
L 183.588701 259.851932 
L 184.855563 260.537931 
L 186.122425 260.675509 
L 187.389287 260.313055 
L 188.65615 259.531287 
L 189.923012 258.410926 
L 191.189874 257.03269 
L 192.456736 255.477299 
L 193.723598 253.825471 
L 194.99046 252.157927 
L 196.257323 250.555385 
L 197.524185 249.098565 
L 198.791047 247.862694 
L 200.057909 246.859169 
L 201.324771 246.058201 
L 202.591633 245.429316 
L 203.858496 244.942041 
L 205.125358 244.565902 
L 206.39222 244.270425 
L 207.659082 244.025136 
L 208.925944 243.799561 
L 210.192806 243.563227 
L 211.459669 243.286041 
L 212.726531 242.960845 
L 213.993393 242.616027 
L 215.260255 242.28303 
L 216.527117 241.9933 
L 217.793979 241.778282 
L 219.060842 241.669421 
L 220.327704 241.698161 
L 221.594566 241.895948 
L 222.861428 242.294226 
L 224.12829 242.92444 
L 225.395152 243.801495 
L 226.662015 244.874134 
L 227.928877 246.074558 
L 229.195739 247.33497 
L 230.462601 248.587572 
L 231.729463 249.764568 
L 232.996325 250.798157 
L 234.263188 251.620544 
L 235.53005 252.163931 
L 236.796912 252.360519 
L 238.063774 252.149982 
L 239.330636 251.558851 
L 240.597499 250.669691 
L 241.864361 249.566003 
L 243.131223 248.331287 
L 244.398085 247.049042 
L 245.664947 245.802769 
L 246.931809 244.675967 
L 248.198672 243.752138 
L 249.465534 243.11478 
L 250.732396 242.846519 
L 251.999258 243.110038 
L 253.26612 243.805228 
L 254.532982 244.676446 
L 255.799845 245.684865 
L 257.066707 246.791658 
L 258.333569 247.957995 
L 259.600431 249.14505 
L 260.867293 250.366815 
L 262.134155 251.647065 
L 263.401018 252.808454 
L 264.66788 253.803784 
L 265.934742 254.630419 
L 267.201604 255.296868 
L 268.468466 255.811637 
L 269.735328 256.183233 
L 271.002191 256.420163 
L 272.269053 256.530934 
L 273.535915 256.524052 
L 274.802777 256.408025 
L 276.069639 256.191358 
L 277.336501 255.883267 
L 278.603364 255.501176 
L 279.870226 255.067807 
L 281.137088 254.605973 
L 282.40395 254.138486 
L 283.670812 253.688156 
L 284.937674 253.277796 
L 286.204537 252.930217 
L 287.471399 252.66823 
L 288.738261 252.514647 
L 290.005123 252.49203 
L 291.271985 252.607956 
L 292.538847 252.846775 
L 293.80571 253.190841 
L 295.072572 253.622505 
L 296.339434 254.124121 
L 297.606296 254.678041 
L 298.873158 255.266618 
L 300.140021 255.872205 
L 301.406883 256.477153 
L 302.673745 257.063817 
L 303.940607 257.614238 
L 305.207469 258.109222 
L 306.474331 258.529262 
L 307.741194 258.854854 
L 309.008056 259.066493 
L 310.274918 259.144673 
L 311.54178 259.069888 
L 312.808642 258.822634 
L 314.075504 258.383406 
L 315.342367 257.732697 
L 316.609229 256.855265 
L 317.876091 255.785412 
L 319.142953 254.625987 
L 320.409815 253.407411 
L 321.676677 252.135331 
L 322.94354 250.912454 
L 324.210402 249.879826 
L 325.477264 249.055042 
L 326.744126 248.504902 
L 328.010988 248.296205 
L 329.27785 248.494883 
L 330.544713 249.114771 
L 331.811575 250.088961 
L 333.078437 251.343594 
L 334.345299 252.804815 
L 335.612161 254.398766 
L 336.879023 256.051591 
L 338.145886 257.689434 
L 339.412748 259.238438 
L 340.67961 260.624746 
L 341.946472 261.774501 
L 343.213334 262.632716 
L 344.480196 263.219871 
L 345.747059 263.575318 
L 347.013921 263.738405 
L 348.280783 263.748484 
L 349.547645 263.644904 
L 350.814507 263.467016 
L 352.081369 263.254168 
L 353.348232 263.045712 
L 354.615094 262.880998 
L 355.881956 262.797106 
L 357.148818 262.804741 
L 358.41568 262.897592 
L 359.682542 263.069063 
L 360.949405 263.312558 
L 362.216267 263.621483 
L 363.483129 263.989241 
L 364.749991 264.409237 
L 366.016853 264.874876 
L 367.283716 265.379562 
L 368.550578 265.916699 
L 369.81744 266.479692 
L 371.084302 267.061946 
L 372.351164 267.656865 
L 373.618026 268.257853 
L 374.884889 268.858315 
L 376.151751 269.451656 
L 377.418613 270.03128 
L 378.685475 270.590591 
L 379.952337 271.122994 
L 381.219199 271.621894 
L 381.219199 270.889474 
L 381.219199 270.889474 
L 379.952337 270.390551 
L 378.685475 269.858131 
L 377.418613 269.29881 
L 376.151751 268.719182 
L 374.884889 268.125842 
L 373.618026 267.525384 
L 372.351164 266.924404 
L 371.084302 266.329496 
L 369.81744 265.747254 
L 368.550578 265.184274 
L 367.283716 264.64715 
L 366.016853 264.142477 
L 364.749991 263.67685 
L 363.483129 263.256864 
L 362.216267 262.889112 
L 360.949405 262.580191 
L 359.682542 262.336695 
L 358.41568 262.165218 
L 357.148818 262.072355 
L 355.881956 262.064701 
L 354.615094 262.148568 
L 353.348232 262.31325 
L 352.081369 262.521672 
L 350.814507 262.734485 
L 349.547645 262.912345 
L 348.280783 263.015904 
L 347.013921 263.005817 
L 345.747059 262.842738 
L 344.480196 262.487319 
L 343.213334 261.900216 
L 341.946472 261.042081 
L 340.67961 259.892433 
L 339.412748 258.50625 
L 338.145886 256.957373 
L 336.879023 255.319646 
L 335.612161 253.66691 
L 334.345299 252.073007 
L 333.078437 250.61178 
L 331.811575 249.35707 
L 330.544713 248.38272 
L 329.27785 247.762573 
L 328.010988 247.563527 
L 326.744126 247.771774 
L 325.477264 248.321437 
L 324.210402 249.14577 
L 322.94354 250.178026 
L 321.676677 251.400666 
L 320.409815 252.672696 
L 319.142953 253.891463 
L 317.876091 255.051376 
L 316.609229 256.122066 
L 315.342367 257.000737 
L 314.075504 257.653043 
L 312.808642 258.094041 
L 311.54178 258.343034 
L 310.274918 258.419326 
L 309.008056 258.342222 
L 307.741194 258.131025 
L 306.474331 257.80504 
L 305.207469 257.383571 
L 303.940607 256.885922 
L 302.673745 256.331397 
L 301.406883 255.739148 
L 300.140021 255.127726 
L 298.873158 254.515529 
L 297.606296 253.920953 
L 296.339434 253.362398 
L 295.072572 252.858262 
L 293.80571 252.426942 
L 292.538847 252.086836 
L 291.271985 251.856343 
L 290.005123 251.753861 
L 288.738261 251.795614 
L 287.471399 251.972562 
L 286.204537 252.259362 
L 284.937674 252.630401 
L 283.670812 253.060066 
L 282.40395 253.522744 
L 281.137088 253.992822 
L 279.870226 254.444685 
L 278.603364 254.852722 
L 277.336501 255.191318 
L 276.069639 255.435031 
L 274.802777 255.568625 
L 273.535915 255.592689 
L 272.269053 255.509172 
L 271.002191 255.320024 
L 269.735328 255.027193 
L 268.468466 254.63263 
L 267.201604 254.138283 
L 265.934742 253.546102 
L 264.66788 252.858036 
L 263.401018 252.076034 
L 262.134155 251.20494 
L 260.867293 250.261176 
L 259.600431 249.14505 
L 258.333569 247.957995 
L 257.066707 246.791658 
L 255.799845 245.684865 
L 254.532982 244.676446 
L 253.26612 243.805228 
L 251.999258 243.110038 
L 250.732396 242.41289 
L 249.465534 241.683247 
L 248.198672 241.059386 
L 246.931809 240.538899 
L 245.664947 240.119239 
L 244.398085 239.797863 
L 243.131223 239.572225 
L 241.864361 239.439779 
L 240.597499 239.397982 
L 239.330636 239.444287 
L 238.063774 239.576151 
L 236.796912 239.790901 
L 235.53005 240.078307 
L 234.263188 240.416421 
L 232.996325 240.782286 
L 231.729463 241.152945 
L 230.462601 241.505443 
L 229.195739 241.816821 
L 227.928877 242.064125 
L 226.662015 242.224397 
L 225.395152 242.274681 
L 224.12829 242.19202 
L 222.861428 241.959517 
L 221.594566 241.584514 
L 220.327704 241.08041 
L 219.060842 240.460606 
L 217.793979 239.738503 
L 216.527117 238.927501 
L 215.260255 238.041001 
L 213.993393 237.092402 
L 212.726531 236.095106 
L 211.459669 235.062512 
L 210.192806 234.009056 
L 208.925944 232.961202 
L 207.659082 231.953176 
L 206.39222 231.019331 
L 205.125358 230.194022 
L 203.858496 229.511604 
L 202.591633 229.00643 
L 201.324771 228.712855 
L 200.057909 228.665234 
L 198.791047 228.89792 
L 197.524185 229.444581 
L 196.257323 230.297599 
L 194.99046 231.38537 
L 193.723598 232.630784 
L 192.456736 233.956733 
L 191.189874 235.286107 
L 189.923012 236.541797 
L 188.65615 237.646693 
L 187.389287 238.523687 
L 186.122425 239.09567 
L 184.855563 239.285531 
L 183.588701 239.039866 
L 182.321839 238.400081 
L 181.054977 237.431287 
L 179.788114 236.198596 
L 178.521252 234.767117 
L 177.25439 233.201961 
L 175.987528 231.568239 
L 174.720666 229.931062 
L 173.453803 228.355541 
L 172.186941 226.906785 
L 170.920079 225.645559 
L 169.653217 224.582096 
L 168.386355 223.694025 
L 167.119493 222.958436 
L 165.85263 222.352415 
L 164.585768 221.85305 
L 163.318906 221.437429 
L 162.052044 221.08264 
L 160.785182 220.765771 
L 159.51832 220.463908 
L 158.251457 220.154306 
L 156.984595 219.824139 
L 155.717733 219.475959 
L 154.450871 219.113645 
L 153.184009 218.741071 
L 151.917147 218.362114 
L 150.650284 217.980651 
L 149.383422 217.600557 
L 148.11656 217.225709 
L 146.849698 216.859983 
L 145.582836 216.507255 
L 144.315974 216.171767 
L 143.049111 215.85922 
L 141.782249 215.57568 
L 140.515387 215.327214 
L 139.248525 215.119888 
L 137.981663 214.959769 
L 136.714801 214.852922 
L 135.447938 214.805415 
L 134.181076 214.823314 
L 132.914214 214.912685 
L 131.647352 215.077773 
L 130.38049 215.301645 
L 129.113628 215.553704 
L 127.846765 215.803128 
L 126.579903 216.019093 
L 125.313041 216.170775 
L 124.046179 216.227351 
L 122.779317 216.157996 
L 121.512455 215.931888 
L 120.245592 215.518202 
L 118.97873 214.886696 
L 117.711868 214.041947 
L 116.445006 213.042507 
L 115.178144 211.951572 
L 113.911282 210.832334 
L 112.644419 209.74799 
L 111.377557 208.761733 
L 110.110695 207.936759 
L 108.843833 207.336261 
L 107.576971 207.023434 
L 106.310108 207.061473 
L 105.043246 207.491856 
L 103.776384 208.269196 
L 102.509522 209.326392 
L 101.24266 210.59634 
L 99.975798 212.011937 
L 98.708935 213.506082 
L 97.442073 215.011671 
L 96.175211 216.461602 
L 94.908349 217.788772 
L 93.641487 218.926078 
L 92.374625 219.811002 
L 91.107762 220.434315 
L 89.8409 220.821166 
L 88.574038 220.997281 
L 87.307176 220.988382 
L 86.040314 220.820194 
L 84.773452 220.518439 
L 83.506589 220.108843 
L 82.239727 219.617128 
L 80.972865 219.069019 
L 79.706003 218.49021 
L 78.439141 217.904691 
L 77.172279 217.333803 
L 75.905416 216.798664 
L 74.638554 216.320388 
L 73.371692 215.92009 
L 72.10483 215.618887 
L 70.837968 215.437893 
L 69.571106 215.398224 
L 68.304243 215.520997 
L 67.037381 215.827325 
L 65.770519 216.325881 
L 64.503657 216.975566 
L 63.236795 217.722836 
L 61.969933 218.514147 
L 60.70307 219.295957 
L 59.436208 220.014721 
L 58.169346 220.616896 
L 56.902484 221.04894 
L 55.635622 221.257308 
L 54.36876 221.188457 
L 53.101897 220.794343 
L 51.835035 220.090836 
L 50.568173 219.135044 
L 49.301311 217.984761 
L 48.034449 216.697783 
L 46.767586 215.331905 
L 45.500724 213.944921 
L 44.233862 212.594627 
L 42.967 211.338816 
L 41.700138 210.235285 
L 40.433276 209.341827 
L 39.166413 208.716238 
L 37.899551 208.416313 
L 36.632689 208.499846 
L 35.365827 209.024633 
L 34.098965 210.048467 
L 32.832103 211.629145 
L 31.56524 213.824461 
L 30.298378 216.69221 
L 29.031516 220.290186 
L 27.764654 224.676185 
z
" clip-path="url(#p77fa410a04)" style="fill: #1f77b4"/>
   </g>
   <g id="FillBetweenPolyCollection_2">
    <path d="M 27.764654 148.702211 
L 27.764654 224.676185 
L 29.031516 220.290186 
L 30.298378 216.69221 
L 31.56524 213.824461 
L 32.832103 211.629145 
L 34.098965 210.048467 
L 35.365827 209.024633 
L 36.632689 208.499846 
L 37.899551 208.416313 
L 39.166413 208.716238 
L 40.433276 209.341827 
L 41.700138 210.235285 
L 42.967 211.338816 
L 44.233862 212.594627 
L 45.500724 213.944921 
L 46.767586 215.331905 
L 48.034449 216.697783 
L 49.301311 217.984761 
L 50.568173 219.135044 
L 51.835035 220.090836 
L 53.101897 220.794343 
L 54.36876 221.188457 
L 55.635622 221.257308 
L 56.902484 221.04894 
L 58.169346 220.616896 
L 59.436208 220.014721 
L 60.70307 219.295957 
L 61.969933 218.514147 
L 63.236795 217.722836 
L 64.503657 216.975566 
L 65.770519 216.325881 
L 67.037381 215.827325 
L 68.304243 215.520997 
L 69.571106 215.398224 
L 70.837968 215.437893 
L 72.10483 215.618887 
L 73.371692 215.92009 
L 74.638554 216.320388 
L 75.905416 216.798664 
L 77.172279 217.333803 
L 78.439141 217.904691 
L 79.706003 218.49021 
L 80.972865 219.069019 
L 82.239727 219.617128 
L 83.506589 220.108843 
L 84.773452 220.518439 
L 86.040314 220.820194 
L 87.307176 220.988382 
L 88.574038 220.997281 
L 89.8409 220.821166 
L 91.107762 220.434315 
L 92.374625 219.811002 
L 93.641487 218.926078 
L 94.908349 217.788772 
L 96.175211 216.461602 
L 97.442073 215.011671 
L 98.708935 213.506082 
L 99.975798 212.011937 
L 101.24266 210.59634 
L 102.509522 209.326392 
L 103.776384 208.269196 
L 105.043246 207.491856 
L 106.310108 207.061473 
L 107.576971 207.023434 
L 108.843833 207.336261 
L 110.110695 207.936759 
L 111.377557 208.761733 
L 112.644419 209.74799 
L 113.911282 210.832334 
L 115.178144 211.951572 
L 116.445006 213.042507 
L 117.711868 214.041947 
L 118.97873 214.886696 
L 120.245592 215.518202 
L 121.512455 215.931888 
L 122.779317 216.157996 
L 124.046179 216.227351 
L 125.313041 216.170775 
L 126.579903 216.019093 
L 127.846765 215.803128 
L 129.113628 215.553704 
L 130.38049 215.301645 
L 131.647352 215.077773 
L 132.914214 214.912685 
L 134.181076 214.823314 
L 135.447938 214.805415 
L 136.714801 214.852922 
L 137.981663 214.959769 
L 139.248525 215.119888 
L 140.515387 215.327214 
L 141.782249 215.57568 
L 143.049111 215.85922 
L 144.315974 216.171767 
L 145.582836 216.507255 
L 146.849698 216.859983 
L 148.11656 217.225709 
L 149.383422 217.600557 
L 150.650284 217.980651 
L 151.917147 218.362114 
L 153.184009 218.741071 
L 154.450871 219.113645 
L 155.717733 219.475959 
L 156.984595 219.824139 
L 158.251457 220.154306 
L 159.51832 220.463908 
L 160.785182 220.765771 
L 162.052044 221.08264 
L 163.318906 221.437429 
L 164.585768 221.85305 
L 165.85263 222.352415 
L 167.119493 222.958436 
L 168.386355 223.694025 
L 169.653217 224.582096 
L 170.920079 225.645559 
L 172.186941 226.906785 
L 173.453803 228.355541 
L 174.720666 229.931062 
L 175.987528 231.568239 
L 177.25439 233.201961 
L 178.521252 234.767117 
L 179.788114 236.198596 
L 181.054977 237.431287 
L 182.321839 238.400081 
L 183.588701 239.039866 
L 184.855563 239.285531 
L 186.122425 239.09567 
L 187.389287 238.523687 
L 188.65615 237.646693 
L 189.923012 236.541797 
L 191.189874 235.286107 
L 192.456736 233.956733 
L 193.723598 232.630784 
L 194.99046 231.38537 
L 196.257323 230.297599 
L 197.524185 229.444581 
L 198.791047 228.89792 
L 200.057909 228.665234 
L 201.324771 228.712855 
L 202.591633 229.00643 
L 203.858496 229.511604 
L 205.125358 230.194022 
L 206.39222 231.019331 
L 207.659082 231.953176 
L 208.925944 232.961202 
L 210.192806 234.009056 
L 211.459669 235.062512 
L 212.726531 236.095106 
L 213.993393 237.092402 
L 215.260255 238.041001 
L 216.527117 238.927501 
L 217.793979 239.738503 
L 219.060842 240.460606 
L 220.327704 241.08041 
L 221.594566 241.584514 
L 222.861428 241.959517 
L 224.12829 242.19202 
L 225.395152 242.274681 
L 226.662015 242.224397 
L 227.928877 242.064125 
L 229.195739 241.816821 
L 230.462601 241.505443 
L 231.729463 241.152945 
L 232.996325 240.782286 
L 234.263188 240.416421 
L 235.53005 240.078307 
L 236.796912 239.790901 
L 238.063774 239.576151 
L 239.330636 239.444287 
L 240.597499 239.397982 
L 241.864361 239.439779 
L 243.131223 239.572225 
L 244.398085 239.797863 
L 245.664947 240.119239 
L 246.931809 240.538899 
L 248.198672 241.059386 
L 249.465534 241.683247 
L 250.732396 242.41289 
L 251.999258 243.110038 
L 253.26612 243.805228 
L 254.532982 244.676446 
L 255.799845 245.684865 
L 257.066707 246.791658 
L 258.333569 247.957995 
L 259.600431 249.14505 
L 260.867293 250.261176 
L 262.134155 251.20494 
L 263.401018 252.076034 
L 264.66788 252.858036 
L 265.934742 253.546102 
L 267.201604 254.138283 
L 268.468466 254.63263 
L 269.735328 255.027193 
L 271.002191 255.320024 
L 272.269053 255.509172 
L 273.535915 255.592689 
L 274.802777 255.568625 
L 276.069639 255.435031 
L 277.336501 255.191318 
L 278.603364 254.852722 
L 279.870226 254.444685 
L 281.137088 253.992822 
L 282.40395 253.522744 
L 283.670812 253.060066 
L 284.937674 252.630401 
L 286.204537 252.259362 
L 287.471399 251.972562 
L 288.738261 251.795614 
L 290.005123 251.753861 
L 291.271985 251.856343 
L 292.538847 252.086836 
L 293.80571 252.426942 
L 295.072572 252.858262 
L 296.339434 253.362398 
L 297.606296 253.920953 
L 298.873158 254.515529 
L 300.140021 255.127726 
L 301.406883 255.739148 
L 302.673745 256.331397 
L 303.940607 256.885922 
L 305.207469 257.383571 
L 306.474331 257.80504 
L 307.741194 258.131025 
L 309.008056 258.342222 
L 310.274918 258.419326 
L 311.54178 258.343034 
L 312.808642 258.094041 
L 314.075504 257.653043 
L 315.342367 257.000737 
L 316.609229 256.122066 
L 317.876091 255.051376 
L 319.142953 253.891463 
L 320.409815 252.672696 
L 321.676677 251.400666 
L 322.94354 250.178026 
L 324.210402 249.14577 
L 325.477264 248.321437 
L 326.744126 247.771774 
L 328.010988 247.563527 
L 329.27785 247.762573 
L 330.544713 248.38272 
L 331.811575 249.35707 
L 333.078437 250.61178 
L 334.345299 252.073007 
L 335.612161 253.66691 
L 336.879023 255.319646 
L 338.145886 256.957373 
L 339.412748 258.50625 
L 340.67961 259.892433 
L 341.946472 261.042081 
L 343.213334 261.900216 
L 344.480196 262.487319 
L 345.747059 262.842738 
L 347.013921 263.005817 
L 348.280783 263.015904 
L 349.547645 262.912345 
L 350.814507 262.734485 
L 352.081369 262.521672 
L 353.348232 262.31325 
L 354.615094 262.148568 
L 355.881956 262.064701 
L 357.148818 262.072355 
L 358.41568 262.165218 
L 359.682542 262.336695 
L 360.949405 262.580191 
L 362.216267 262.889112 
L 363.483129 263.256864 
L 364.749991 263.67685 
L 366.016853 264.142477 
L 367.283716 264.64715 
L 368.550578 265.184274 
L 369.81744 265.747254 
L 371.084302 266.329496 
L 372.351164 266.924404 
L 373.618026 267.525384 
L 374.884889 268.125842 
L 376.151751 268.719182 
L 377.418613 269.29881 
L 378.685475 269.858131 
L 379.952337 270.390551 
L 381.219199 270.889474 
L 381.219199 261.958827 
L 381.219199 261.958827 
L 379.952337 262.660022 
L 378.685475 263.244108 
L 377.418613 263.716402 
L 376.151751 264.082224 
L 374.884889 264.346891 
L 373.618026 264.515721 
L 372.351164 264.594033 
L 371.084302 264.587145 
L 369.81744 264.500375 
L 368.550578 264.339042 
L 367.283716 264.108463 
L 366.016853 263.813957 
L 364.749991 263.460842 
L 363.483129 263.054437 
L 362.216267 262.600059 
L 360.949405 262.103027 
L 359.682542 261.568659 
L 358.41568 261.002273 
L 357.148818 260.409188 
L 355.881956 259.794721 
L 354.615094 259.164132 
L 353.348232 258.519137 
L 352.081369 257.855962 
L 350.814507 257.170358 
L 349.547645 256.458078 
L 348.280783 255.714874 
L 347.013921 254.936499 
L 345.747059 254.118705 
L 344.480196 253.257246 
L 343.213334 252.347872 
L 341.946472 251.386338 
L 340.67961 250.375537 
L 339.412748 249.346937 
L 338.145886 248.339145 
L 336.879023 247.390773 
L 335.612161 246.540427 
L 334.345299 245.826718 
L 333.078437 245.288254 
L 331.811575 244.963645 
L 330.544713 244.891499 
L 329.27785 245.110426 
L 328.010988 245.653745 
L 326.744126 246.493277 
L 325.477264 247.56117 
L 324.210402 248.788909 
L 322.94354 250.107981 
L 321.676677 251.400666 
L 320.409815 252.672696 
L 319.142953 253.891463 
L 317.876091 254.927302 
L 316.609229 255.67532 
L 315.342367 256.104322 
L 314.075504 256.190807 
L 312.808642 255.979904 
L 311.54178 255.522641 
L 310.274918 254.87005 
L 309.008056 254.073161 
L 307.741194 253.183005 
L 306.474331 252.250612 
L 305.207469 251.327012 
L 303.940607 250.463237 
L 302.673745 249.710316 
L 301.406883 249.105159 
L 300.140021 248.628193 
L 298.873158 248.245724 
L 297.606296 247.924058 
L 296.339434 247.629502 
L 295.072572 247.328361 
L 293.80571 246.986941 
L 292.538847 246.57155 
L 291.271985 246.048492 
L 290.005123 245.384073 
L 288.738261 244.548599 
L 287.471399 243.558857 
L 286.204537 242.461623 
L 284.937674 241.304172 
L 283.670812 240.13378 
L 282.40395 238.997723 
L 281.137088 237.943277 
L 279.870226 237.017717 
L 278.603364 236.26832 
L 277.336501 235.742361 
L 276.069639 235.486499 
L 274.802777 235.510344 
L 273.535915 235.766085 
L 272.269053 236.200968 
L 271.002191 236.762241 
L 269.735328 237.397154 
L 268.468466 238.052952 
L 267.201604 238.676884 
L 265.934742 239.216199 
L 264.66788 239.618142 
L 263.401018 239.829964 
L 262.134155 239.813984 
L 260.867293 239.59282 
L 259.600431 239.085153 
L 258.333569 238.410789 
L 257.066707 237.67975 
L 255.799845 236.949237 
L 254.532982 236.276452 
L 253.26612 235.718596 
L 251.999258 235.332871 
L 250.732396 234.959665 
L 249.465534 234.584714 
L 248.198672 234.338189 
L 246.931809 234.193838 
L 245.664947 234.125012 
L 244.398085 234.105061 
L 243.131223 234.107336 
L 241.864361 234.105188 
L 240.597499 234.071968 
L 239.330636 233.981025 
L 238.063774 233.805712 
L 236.796912 233.519713 
L 235.53005 233.116768 
L 234.263188 232.621702 
L 232.996325 232.062013 
L 231.729463 231.465201 
L 230.462601 230.858765 
L 229.195739 230.270204 
L 227.928877 229.727016 
L 226.662015 229.2567 
L 225.395152 228.886756 
L 224.12829 228.644683 
L 222.861428 228.546275 
L 221.594566 228.560515 
L 220.327704 228.64468 
L 219.060842 228.75605 
L 217.793979 228.851901 
L 216.527117 228.889514 
L 215.260255 228.826165 
L 213.993393 228.619133 
L 212.726531 228.225697 
L 211.459669 227.603134 
L 210.192806 226.714 
L 208.925944 225.5822 
L 207.659082 224.271216 
L 206.39222 222.845192 
L 205.125358 221.368271 
L 203.858496 219.904597 
L 202.591633 218.518312 
L 201.324771 217.27356 
L 200.057909 216.234485 
L 198.791047 215.465229 
L 197.524185 215.029144 
L 196.257323 214.94209 
L 194.99046 215.146316 
L 193.723598 215.577738 
L 192.456736 216.17227 
L 191.189874 216.86583 
L 189.923012 217.594333 
L 188.65615 218.293696 
L 187.389287 218.899833 
L 186.122425 219.348661 
L 184.855563 219.576097 
L 183.588701 219.533927 
L 182.321839 219.237428 
L 181.054977 218.717747 
L 179.788114 218.006033 
L 178.521252 217.133432 
L 177.25439 216.131093 
L 175.987528 215.030164 
L 174.720666 213.861793 
L 173.453803 212.657126 
L 172.186941 211.447313 
L 170.920079 210.262299 
L 169.653217 209.118066 
L 168.386355 208.021588 
L 167.119493 206.979686 
L 165.85263 205.999183 
L 164.585768 205.086901 
L 163.318906 204.249663 
L 162.052044 203.494292 
L 160.785182 202.827609 
L 159.51832 202.256438 
L 158.251457 201.787365 
L 156.984595 201.412884 
L 155.717733 201.103637 
L 154.450871 200.828391 
L 153.184009 200.555911 
L 151.917147 200.254961 
L 150.650284 199.894307 
L 149.383422 199.442714 
L 148.11656 198.868946 
L 146.849698 198.141769 
L 145.582836 197.229949 
L 144.315974 196.115991 
L 143.049111 194.837374 
L 141.782249 193.445316 
L 140.515387 191.991037 
L 139.248525 190.525756 
L 137.981663 189.100692 
L 136.714801 187.767064 
L 135.447938 186.576092 
L 134.181076 185.578995 
L 132.914214 184.826991 
L 131.647352 184.36592 
L 130.38049 184.179078 
L 129.113628 184.209407 
L 127.846765 184.399179 
L 126.579903 184.690666 
L 125.313041 185.026138 
L 124.046179 185.347868 
L 122.779317 185.598126 
L 121.512455 185.719184 
L 120.245592 185.653313 
L 118.97873 185.343299 
L 117.711868 184.762769 
L 116.445006 183.933159 
L 115.178144 182.880016 
L 113.911282 181.628886 
L 112.644419 180.205318 
L 111.377557 178.634857 
L 110.110695 176.943052 
L 108.843833 175.155449 
L 107.576971 173.297595 
L 106.310108 171.395038 
L 105.043246 169.479677 
L 103.776384 167.60882 
L 102.509522 165.846127 
L 101.24266 164.255259 
L 99.975798 162.899877 
L 98.708935 161.843639 
L 97.442073 161.150208 
L 96.175211 160.883243 
L 94.908349 161.106405 
L 93.641487 161.883354 
L 92.374625 163.266483 
L 91.107762 165.177213 
L 89.8409 167.452465 
L 88.574038 169.927749 
L 87.307176 172.43858 
L 86.040314 174.820469 
L 84.773452 176.908928 
L 83.506589 178.539469 
L 82.239727 179.547605 
L 80.972865 179.768848 
L 79.706003 179.040986 
L 78.439141 177.338346 
L 77.172279 174.846889 
L 75.905416 171.770782 
L 74.638554 168.314193 
L 73.371692 164.681289 
L 72.10483 161.076236 
L 70.837968 157.703201 
L 69.571106 154.766353 
L 68.304243 152.469857 
L 67.037381 151.01788 
L 65.770519 150.550065 
L 64.503657 150.947953 
L 63.236795 152.028557 
L 61.969933 153.608895 
L 60.70307 155.505982 
L 59.436208 157.536832 
L 58.169346 159.518461 
L 56.902484 161.267886 
L 55.635622 162.60212 
L 54.36876 163.33818 
L 53.101897 163.307588 
L 51.835035 162.510497 
L 50.568173 161.055858 
L 49.301311 159.054435 
L 48.034449 156.616992 
L 46.767586 153.854292 
L 45.500724 150.877098 
L 44.233862 147.796175 
L 42.967 144.722286 
L 41.700138 141.766194 
L 40.433276 139.038663 
L 39.166413 136.650457 
L 37.899551 134.712339 
L 36.632689 133.335073 
L 35.365827 132.629423 
L 34.098965 132.706152 
L 32.832103 133.676024 
L 31.56524 135.649802 
L 30.298378 138.73825 
L 29.031516 143.052132 
L 27.764654 148.702211 
z
" clip-path="url(#p77fa410a04)" style="fill: #aec7e8"/>
   </g>
   <g id="FillBetweenPolyCollection_3">
    <path d="M 27.764654 68.165258 
L 27.764654 148.702211 
L 29.031516 143.052132 
L 30.298378 138.73825 
L 31.56524 135.649802 
L 32.832103 133.676024 
L 34.098965 132.706152 
L 35.365827 132.629423 
L 36.632689 133.335073 
L 37.899551 134.712339 
L 39.166413 136.650457 
L 40.433276 139.038663 
L 41.700138 141.766194 
L 42.967 144.722286 
L 44.233862 147.796175 
L 45.500724 150.877098 
L 46.767586 153.854292 
L 48.034449 156.616992 
L 49.301311 159.054435 
L 50.568173 161.055858 
L 51.835035 162.510497 
L 53.101897 163.307588 
L 54.36876 163.33818 
L 55.635622 162.60212 
L 56.902484 161.267886 
L 58.169346 159.518461 
L 59.436208 157.536832 
L 60.70307 155.505982 
L 61.969933 153.608895 
L 63.236795 152.028557 
L 64.503657 150.947953 
L 65.770519 150.550065 
L 67.037381 151.01788 
L 68.304243 152.469857 
L 69.571106 154.766353 
L 70.837968 157.703201 
L 72.10483 161.076236 
L 73.371692 164.681289 
L 74.638554 168.314193 
L 75.905416 171.770782 
L 77.172279 174.846889 
L 78.439141 177.338346 
L 79.706003 179.040986 
L 80.972865 179.768848 
L 82.239727 179.547605 
L 83.506589 178.539469 
L 84.773452 176.908928 
L 86.040314 174.820469 
L 87.307176 172.43858 
L 88.574038 169.927749 
L 89.8409 167.452465 
L 91.107762 165.177213 
L 92.374625 163.266483 
L 93.641487 161.883354 
L 94.908349 161.106405 
L 96.175211 160.883243 
L 97.442073 161.150208 
L 98.708935 161.843639 
L 99.975798 162.899877 
L 101.24266 164.255259 
L 102.509522 165.846127 
L 103.776384 167.60882 
L 105.043246 169.479677 
L 106.310108 171.395038 
L 107.576971 173.297595 
L 108.843833 175.155449 
L 110.110695 176.943052 
L 111.377557 178.634857 
L 112.644419 180.205318 
L 113.911282 181.628886 
L 115.178144 182.880016 
L 116.445006 183.933159 
L 117.711868 184.762769 
L 118.97873 185.343299 
L 120.245592 185.653313 
L 121.512455 185.719184 
L 122.779317 185.598126 
L 124.046179 185.347868 
L 125.313041 185.026138 
L 126.579903 184.690666 
L 127.846765 184.399179 
L 129.113628 184.209407 
L 130.38049 184.179078 
L 131.647352 184.36592 
L 132.914214 184.826991 
L 134.181076 185.578995 
L 135.447938 186.576092 
L 136.714801 187.767064 
L 137.981663 189.100692 
L 139.248525 190.525756 
L 140.515387 191.991037 
L 141.782249 193.445316 
L 143.049111 194.837374 
L 144.315974 196.115991 
L 145.582836 197.229949 
L 146.849698 198.141769 
L 148.11656 198.868946 
L 149.383422 199.442714 
L 150.650284 199.894307 
L 151.917147 200.254961 
L 153.184009 200.555911 
L 154.450871 200.828391 
L 155.717733 201.103637 
L 156.984595 201.412884 
L 158.251457 201.787365 
L 159.51832 202.256438 
L 160.785182 202.827609 
L 162.052044 203.494292 
L 163.318906 204.249663 
L 164.585768 205.086901 
L 165.85263 205.999183 
L 167.119493 206.979686 
L 168.386355 208.021588 
L 169.653217 209.118066 
L 170.920079 210.262299 
L 172.186941 211.447313 
L 173.453803 212.657126 
L 174.720666 213.861793 
L 175.987528 215.030164 
L 177.25439 216.131093 
L 178.521252 217.133432 
L 179.788114 218.006033 
L 181.054977 218.717747 
L 182.321839 219.237428 
L 183.588701 219.533927 
L 184.855563 219.576097 
L 186.122425 219.348661 
L 187.389287 218.899833 
L 188.65615 218.293696 
L 189.923012 217.594333 
L 191.189874 216.86583 
L 192.456736 216.17227 
L 193.723598 215.577738 
L 194.99046 215.146316 
L 196.257323 214.94209 
L 197.524185 215.029144 
L 198.791047 215.465229 
L 200.057909 216.234485 
L 201.324771 217.27356 
L 202.591633 218.518312 
L 203.858496 219.904597 
L 205.125358 221.368271 
L 206.39222 222.845192 
L 207.659082 224.271216 
L 208.925944 225.5822 
L 210.192806 226.714 
L 211.459669 227.603134 
L 212.726531 228.225697 
L 213.993393 228.619133 
L 215.260255 228.826165 
L 216.527117 228.889514 
L 217.793979 228.851901 
L 219.060842 228.75605 
L 220.327704 228.64468 
L 221.594566 228.560515 
L 222.861428 228.546275 
L 224.12829 228.644683 
L 225.395152 228.886756 
L 226.662015 229.2567 
L 227.928877 229.727016 
L 229.195739 230.270204 
L 230.462601 230.858765 
L 231.729463 231.465201 
L 232.996325 232.062013 
L 234.263188 232.621702 
L 235.53005 233.116768 
L 236.796912 233.519713 
L 238.063774 233.805712 
L 239.330636 233.981025 
L 240.597499 234.071968 
L 241.864361 234.105188 
L 243.131223 234.107336 
L 244.398085 234.105061 
L 245.664947 234.125012 
L 246.931809 234.193838 
L 248.198672 234.338189 
L 249.465534 234.584714 
L 250.732396 234.959665 
L 251.999258 235.332871 
L 253.26612 235.718596 
L 254.532982 236.276452 
L 255.799845 236.949237 
L 257.066707 237.67975 
L 258.333569 238.410789 
L 259.600431 239.085153 
L 260.867293 239.59282 
L 262.134155 239.813984 
L 263.401018 239.829964 
L 264.66788 239.618142 
L 265.934742 239.216199 
L 267.201604 238.676884 
L 268.468466 238.052952 
L 269.735328 237.397154 
L 271.002191 236.762241 
L 272.269053 236.200968 
L 273.535915 235.766085 
L 274.802777 235.510344 
L 276.069639 235.486499 
L 277.336501 235.742361 
L 278.603364 236.26832 
L 279.870226 237.017717 
L 281.137088 237.943277 
L 282.40395 238.997723 
L 283.670812 240.13378 
L 284.937674 241.304172 
L 286.204537 242.461623 
L 287.471399 243.558857 
L 288.738261 244.548599 
L 290.005123 245.384073 
L 291.271985 246.048492 
L 292.538847 246.57155 
L 293.80571 246.986941 
L 295.072572 247.328361 
L 296.339434 247.629502 
L 297.606296 247.924058 
L 298.873158 248.245724 
L 300.140021 248.628193 
L 301.406883 249.105159 
L 302.673745 249.710316 
L 303.940607 250.463237 
L 305.207469 251.327012 
L 306.474331 252.250612 
L 307.741194 253.183005 
L 309.008056 254.073161 
L 310.274918 254.87005 
L 311.54178 255.522641 
L 312.808642 255.979904 
L 314.075504 256.190807 
L 315.342367 256.104322 
L 316.609229 255.67532 
L 317.876091 254.927302 
L 319.142953 253.891463 
L 320.409815 252.672696 
L 321.676677 251.400666 
L 322.94354 250.107981 
L 324.210402 248.788909 
L 325.477264 247.56117 
L 326.744126 246.493277 
L 328.010988 245.653745 
L 329.27785 245.110426 
L 330.544713 244.891499 
L 331.811575 244.963645 
L 333.078437 245.288254 
L 334.345299 245.826718 
L 335.612161 246.540427 
L 336.879023 247.390773 
L 338.145886 248.339145 
L 339.412748 249.346937 
L 340.67961 250.375537 
L 341.946472 251.386338 
L 343.213334 252.347872 
L 344.480196 253.257246 
L 345.747059 254.118705 
L 347.013921 254.936499 
L 348.280783 255.714874 
L 349.547645 256.458078 
L 350.814507 257.170358 
L 352.081369 257.855962 
L 353.348232 258.519137 
L 354.615094 259.164132 
L 355.881956 259.794721 
L 357.148818 260.409188 
L 358.41568 261.002273 
L 359.682542 261.568659 
L 360.949405 262.103027 
L 362.216267 262.600059 
L 363.483129 263.054437 
L 364.749991 263.460842 
L 366.016853 263.813957 
L 367.283716 264.108463 
L 368.550578 264.339042 
L 369.81744 264.500375 
L 371.084302 264.587145 
L 372.351164 264.594033 
L 373.618026 264.515721 
L 374.884889 264.346891 
L 376.151751 264.082224 
L 377.418613 263.716402 
L 378.685475 263.244108 
L 379.952337 262.660022 
L 381.219199 261.958827 
L 381.219199 80.076856 
L 381.219199 80.076856 
L 379.952337 80.575756 
L 378.685475 81.108159 
L 377.418613 81.66747 
L 376.151751 82.247094 
L 374.884889 82.840435 
L 373.618026 83.440897 
L 372.351164 84.041885 
L 371.084302 84.636804 
L 369.81744 85.219058 
L 368.550578 85.782051 
L 367.283716 86.319188 
L 366.016853 86.823874 
L 364.749991 87.289513 
L 363.483129 87.709509 
L 362.216267 88.077267 
L 360.949405 88.386192 
L 359.682542 88.629687 
L 358.41568 88.801158 
L 357.148818 88.894009 
L 355.881956 88.901644 
L 354.615094 88.817752 
L 353.348232 88.653038 
L 352.081369 88.444582 
L 350.814507 88.231734 
L 349.547645 88.053846 
L 348.280783 87.950266 
L 347.013921 87.960345 
L 345.747059 88.123432 
L 344.480196 88.478879 
L 343.213334 89.066034 
L 341.946472 89.924249 
L 340.67961 91.074004 
L 339.412748 92.460312 
L 338.145886 94.009316 
L 336.879023 95.647159 
L 335.612161 97.299984 
L 334.345299 98.893935 
L 333.078437 100.355156 
L 331.811575 101.609789 
L 330.544713 102.583979 
L 329.27785 103.203867 
L 328.010988 103.402545 
L 326.744126 103.193848 
L 325.477264 102.643708 
L 324.210402 101.818924 
L 322.94354 100.786296 
L 321.676677 99.563419 
L 320.409815 98.291339 
L 319.142953 97.072763 
L 317.876091 95.913338 
L 316.609229 94.843485 
L 315.342367 93.966053 
L 314.075504 93.315344 
L 312.808642 92.876116 
L 311.54178 92.628862 
L 310.274918 92.554077 
L 309.008056 92.632257 
L 307.741194 92.843896 
L 306.474331 93.169488 
L 305.207469 93.589528 
L 303.940607 94.084512 
L 302.673745 94.634933 
L 301.406883 95.221597 
L 300.140021 95.826545 
L 298.873158 96.432132 
L 297.606296 97.020709 
L 296.339434 97.574629 
L 295.072572 98.076245 
L 293.80571 98.507909 
L 292.538847 98.851975 
L 291.271985 99.090794 
L 290.005123 99.20672 
L 288.738261 99.184103 
L 287.471399 99.03052 
L 286.204537 98.768533 
L 284.937674 98.420954 
L 283.670812 98.010594 
L 282.40395 97.560264 
L 281.137088 97.092777 
L 279.870226 96.630943 
L 278.603364 96.197574 
L 277.336501 95.815483 
L 276.069639 95.507392 
L 274.802777 95.290725 
L 273.535915 95.174698 
L 272.269053 95.167816 
L 271.002191 95.278587 
L 269.735328 95.515517 
L 268.468466 95.887113 
L 267.201604 96.401882 
L 265.934742 97.068331 
L 264.66788 97.894966 
L 263.401018 98.890296 
L 262.134155 100.051685 
L 260.867293 101.331935 
L 259.600431 102.5537 
L 258.333569 103.740755 
L 257.066707 104.907092 
L 255.799845 106.013885 
L 254.532982 107.022304 
L 253.26612 107.893522 
L 251.999258 108.588712 
L 250.732396 108.852231 
L 249.465534 108.58397 
L 248.198672 107.946612 
L 246.931809 107.022783 
L 245.664947 105.895981 
L 244.398085 104.649708 
L 243.131223 103.367463 
L 241.864361 102.132747 
L 240.597499 101.029059 
L 239.330636 100.139899 
L 238.063774 99.548768 
L 236.796912 99.338231 
L 235.53005 99.534819 
L 234.263188 100.078206 
L 232.996325 100.900593 
L 231.729463 101.934182 
L 230.462601 103.111178 
L 229.195739 104.36378 
L 227.928877 105.624192 
L 226.662015 106.824616 
L 225.395152 107.897255 
L 224.12829 108.77431 
L 222.861428 109.404524 
L 221.594566 109.802802 
L 220.327704 110.000589 
L 219.060842 110.029329 
L 217.793979 109.920468 
L 216.527117 109.70545 
L 215.260255 109.41572 
L 213.993393 109.082723 
L 212.726531 108.737905 
L 211.459669 108.412709 
L 210.192806 108.135523 
L 208.925944 107.899189 
L 207.659082 107.673614 
L 206.39222 107.428325 
L 205.125358 107.132848 
L 203.858496 106.756709 
L 202.591633 106.269434 
L 201.324771 105.640549 
L 200.057909 104.839581 
L 198.791047 103.836056 
L 197.524185 102.600185 
L 196.257323 101.143365 
L 194.99046 99.540823 
L 193.723598 97.873279 
L 192.456736 96.221451 
L 191.189874 94.66606 
L 189.923012 93.287824 
L 188.65615 92.167463 
L 187.389287 91.385695 
L 186.122425 91.023241 
L 184.855563 91.160819 
L 183.588701 91.846818 
L 182.321839 93.000306 
L 181.054977 94.50802 
L 179.788114 96.256699 
L 178.521252 98.133078 
L 177.25439 100.023896 
L 175.987528 101.81589 
L 174.720666 103.395798 
L 173.453803 104.650356 
L 172.186941 105.466303 
L 170.920079 105.740248 
L 169.653217 105.483565 
L 168.386355 104.781671 
L 167.119493 103.721215 
L 165.85263 102.388849 
L 164.585768 100.871222 
L 163.318906 99.254984 
L 162.052044 97.626787 
L 160.785182 96.073279 
L 159.51832 94.681111 
L 158.251457 93.53613 
L 156.984595 92.675994 
L 155.717733 92.063662 
L 154.450871 91.655671 
L 153.184009 91.408557 
L 151.917147 91.278856 
L 150.650284 91.223103 
L 149.383422 91.197834 
L 148.11656 91.159585 
L 146.849698 91.064893 
L 145.582836 90.870292 
L 144.315974 90.54443 
L 143.049111 90.104399 
L 141.782249 89.579402 
L 140.515387 88.998643 
L 139.248525 88.391325 
L 137.981663 87.786651 
L 136.714801 87.213824 
L 135.447938 86.702047 
L 134.181076 86.280525 
L 132.914214 85.978459 
L 131.647352 85.822512 
L 130.38049 85.809791 
L 129.113628 85.918338 
L 127.846765 86.125878 
L 126.579903 86.410134 
L 125.313041 86.748831 
L 124.046179 87.119692 
L 122.779317 87.500441 
L 121.512455 87.868804 
L 120.245592 88.202503 
L 118.97873 88.479321 
L 117.711868 88.680556 
L 116.445006 88.792953 
L 115.178144 88.803727 
L 113.911282 88.700091 
L 112.644419 88.469259 
L 111.377557 88.098446 
L 110.110695 87.574865 
L 108.843833 86.885731 
L 107.576971 86.018258 
L 106.310108 84.959659 
L 105.043246 83.710671 
L 103.776384 82.32612 
L 102.509522 80.874355 
L 101.24266 79.423723 
L 99.975798 78.042573 
L 98.708935 76.799252 
L 97.442073 75.76211 
L 96.175211 74.999495 
L 94.908349 74.579754 
L 93.641487 74.571236 
L 92.374625 75.033774 
L 91.107762 75.928204 
L 89.8409 77.151495 
L 88.574038 78.599552 
L 87.307176 80.168279 
L 86.040314 81.753581 
L 84.773452 83.251361 
L 83.506589 84.557525 
L 82.239727 85.567977 
L 80.972865 86.17862 
L 79.706003 86.286568 
L 78.439141 85.861356 
L 77.172279 84.984783 
L 75.905416 83.748303 
L 74.638554 82.243371 
L 73.371692 80.56144 
L 72.10483 78.793966 
L 70.837968 77.032402 
L 69.571106 75.368204 
L 68.304243 73.892825 
L 67.037381 72.69772 
L 65.770519 71.849302 
L 64.503657 71.313822 
L 63.236795 71.032488 
L 61.969933 70.94651 
L 60.70307 70.997098 
L 59.436208 71.125459 
L 58.169346 71.272804 
L 56.902484 71.380341 
L 55.635622 71.38928 
L 54.36876 71.240829 
L 53.101897 70.880916 
L 51.835035 70.310297 
L 50.568173 69.565108 
L 49.301311 68.682073 
L 48.034449 67.697914 
L 46.767586 66.649356 
L 45.500724 65.573123 
L 44.233862 64.505937 
L 42.967 63.484525 
L 41.700138 62.545608 
L 40.433276 61.72591 
L 39.166413 61.062157 
L 37.899551 60.59107 
L 36.632689 60.349375 
L 35.365827 60.373795 
L 34.098965 60.701053 
L 32.832103 61.367874 
L 31.56524 62.410981 
L 30.298378 63.867098 
L 29.031516 65.772949 
L 27.764654 68.165258 
z
" clip-path="url(#p77fa410a04)" style="fill: #ff7f0e"/>
   </g>
   <g id="matplotlib.axis_1">
    <g id="xtick_1">
     <g id="line2d_1">
      <defs>
       <path id="mf6f1c98e12" d="M 0 0 
L 0 3.5 
" style="stroke: #000000; stroke-width: 0.8"/>
      </defs>
      <g>
       <use xlink:href="#mf6f1c98e12" x="27.764654" y="314.449375" style="stroke: #000000; stroke-width: 0.8"/>
      </g>
     </g>
     <g id="text_1">
      <!-- 1952 -->
      <g transform="translate(12.109973 340.501483) rotate(-45) scale(0.1 -0.1)">
       <defs>
        <path id="TimesNewRomanPSMT-31" d="M 750 3822 
L 1781 4325 
L 1884 4325 
L 1884 747 
Q 1884 391 1914 303 
Q 1944 216 2037 169 
Q 2131 122 2419 116 
L 2419 0 
L 825 0 
L 825 116 
Q 1125 122 1212 167 
Q 1300 213 1334 289 
Q 1369 366 1369 747 
L 1369 3034 
Q 1369 3497 1338 3628 
Q 1316 3728 1258 3775 
Q 1200 3822 1119 3822 
Q 1003 3822 797 3725 
L 750 3822 
z
" transform="scale(0.015625)"/>
        <path id="TimesNewRomanPSMT-39" d="M 338 -88 
L 338 28 
Q 744 34 1094 217 
Q 1444 400 1770 856 
Q 2097 1313 2225 1859 
Q 1734 1544 1338 1544 
Q 891 1544 572 1889 
Q 253 2234 253 2806 
Q 253 3363 572 3797 
Q 956 4325 1575 4325 
Q 2097 4325 2469 3894 
Q 2925 3359 2925 2575 
Q 2925 1869 2578 1258 
Q 2231 647 1613 244 
Q 1109 -88 516 -88 
L 338 -88 
z
M 2275 2091 
Q 2331 2497 2331 2741 
Q 2331 3044 2228 3395 
Q 2125 3747 1936 3934 
Q 1747 4122 1506 4122 
Q 1228 4122 1018 3872 
Q 809 3622 809 3128 
Q 809 2469 1088 2097 
Q 1291 1828 1588 1828 
Q 1731 1828 1928 1897 
Q 2125 1966 2275 2091 
z
" transform="scale(0.015625)"/>
        <path id="TimesNewRomanPSMT-35" d="M 2778 4238 
L 2534 3706 
L 1259 3706 
L 981 3138 
Q 1809 3016 2294 2522 
Q 2709 2097 2709 1522 
Q 2709 1188 2573 903 
Q 2438 619 2231 419 
Q 2025 219 1772 97 
Q 1413 -75 1034 -75 
Q 653 -75 479 54 
Q 306 184 306 341 
Q 306 428 378 495 
Q 450 563 559 563 
Q 641 563 702 538 
Q 763 513 909 409 
Q 1144 247 1384 247 
Q 1750 247 2026 523 
Q 2303 800 2303 1197 
Q 2303 1581 2056 1914 
Q 1809 2247 1375 2428 
Q 1034 2569 447 2591 
L 1259 4238 
L 2778 4238 
z
" transform="scale(0.015625)"/>
        <path id="TimesNewRomanPSMT-32" d="M 2934 816 
L 2638 0 
L 138 0 
L 138 116 
Q 1241 1122 1691 1759 
Q 2141 2397 2141 2925 
Q 2141 3328 1894 3587 
Q 1647 3847 1303 3847 
Q 991 3847 742 3664 
Q 494 3481 375 3128 
L 259 3128 
Q 338 3706 661 4015 
Q 984 4325 1469 4325 
Q 1984 4325 2329 3994 
Q 2675 3663 2675 3213 
Q 2675 2891 2525 2569 
Q 2294 2063 1775 1497 
Q 997 647 803 472 
L 1909 472 
Q 2247 472 2383 497 
Q 2519 522 2628 598 
Q 2738 675 2819 816 
L 2934 816 
z
" transform="scale(0.015625)"/>
       </defs>
       <use xlink:href="#TimesNewRomanPSMT-31"/>
       <use xlink:href="#TimesNewRomanPSMT-39" transform="translate(50 0)"/>
       <use xlink:href="#TimesNewRomanPSMT-35" transform="translate(100 0)"/>
       <use xlink:href="#TimesNewRomanPSMT-32" transform="translate(150 0)"/>
      </g>
     </g>
    </g>
    <g id="xtick_2">
     <g id="line2d_2">
      <g>
       <use xlink:href="#mf6f1c98e12" x="53.946472" y="314.449375" style="stroke: #000000; stroke-width: 0.8"/>
      </g>
     </g>
     <g id="text_2">
      <!-- 1954 -->
      <g transform="translate(38.291791 340.501483) rotate(-45) scale(0.1 -0.1)">
       <defs>
        <path id="TimesNewRomanPSMT-34" d="M 2978 1563 
L 2978 1119 
L 2409 1119 
L 2409 0 
L 1894 0 
L 1894 1119 
L 100 1119 
L 100 1519 
L 2066 4325 
L 2409 4325 
L 2409 1563 
L 2978 1563 
z
M 1894 1563 
L 1894 3666 
L 406 1563 
L 1894 1563 
z
" transform="scale(0.015625)"/>
       </defs>
       <use xlink:href="#TimesNewRomanPSMT-31"/>
       <use xlink:href="#TimesNewRomanPSMT-39" transform="translate(50 0)"/>
       <use xlink:href="#TimesNewRomanPSMT-35" transform="translate(100 0)"/>
       <use xlink:href="#TimesNewRomanPSMT-34" transform="translate(150 0)"/>
      </g>
     </g>
    </g>
    <g id="xtick_3">
     <g id="line2d_3">
      <g>
       <use xlink:href="#mf6f1c98e12" x="80.12829" y="314.449375" style="stroke: #000000; stroke-width: 0.8"/>
      </g>
     </g>
     <g id="text_3">
      <!-- 1956 -->
      <g transform="translate(64.473609 340.501483) rotate(-45) scale(0.1 -0.1)">
       <defs>
        <path id="TimesNewRomanPSMT-36" d="M 2869 4325 
L 2869 4209 
Q 2456 4169 2195 4045 
Q 1934 3922 1679 3669 
Q 1425 3416 1258 3105 
Q 1091 2794 978 2366 
Q 1428 2675 1881 2675 
Q 2316 2675 2634 2325 
Q 2953 1975 2953 1425 
Q 2953 894 2631 456 
Q 2244 -75 1606 -75 
Q 1172 -75 869 213 
Q 275 772 275 1663 
Q 275 2231 503 2743 
Q 731 3256 1154 3653 
Q 1578 4050 1965 4187 
Q 2353 4325 2688 4325 
L 2869 4325 
z
M 925 2138 
Q 869 1716 869 1456 
Q 869 1156 980 804 
Q 1091 453 1309 247 
Q 1469 100 1697 100 
Q 1969 100 2183 356 
Q 2397 613 2397 1088 
Q 2397 1622 2184 2012 
Q 1972 2403 1581 2403 
Q 1463 2403 1327 2353 
Q 1191 2303 925 2138 
z
" transform="scale(0.015625)"/>
       </defs>
       <use xlink:href="#TimesNewRomanPSMT-31"/>
       <use xlink:href="#TimesNewRomanPSMT-39" transform="translate(50 0)"/>
       <use xlink:href="#TimesNewRomanPSMT-35" transform="translate(100 0)"/>
       <use xlink:href="#TimesNewRomanPSMT-36" transform="translate(150 0)"/>
      </g>
     </g>
    </g>
    <g id="xtick_4">
     <g id="line2d_4">
      <g>
       <use xlink:href="#mf6f1c98e12" x="106.310108" y="314.449375" style="stroke: #000000; stroke-width: 0.8"/>
      </g>
     </g>
     <g id="text_4">
      <!-- 1958 -->
      <g transform="translate(90.655427 340.501483) rotate(-45) scale(0.1 -0.1)">
       <defs>
        <path id="TimesNewRomanPSMT-38" d="M 1228 2134 
Q 725 2547 579 2797 
Q 434 3047 434 3316 
Q 434 3728 753 4026 
Q 1072 4325 1600 4325 
Q 2113 4325 2425 4047 
Q 2738 3769 2738 3413 
Q 2738 3175 2569 2928 
Q 2400 2681 1866 2347 
Q 2416 1922 2594 1678 
Q 2831 1359 2831 1006 
Q 2831 559 2490 242 
Q 2150 -75 1597 -75 
Q 994 -75 656 303 
Q 388 606 388 966 
Q 388 1247 577 1523 
Q 766 1800 1228 2134 
z
M 1719 2469 
Q 2094 2806 2194 3001 
Q 2294 3197 2294 3444 
Q 2294 3772 2109 3958 
Q 1925 4144 1606 4144 
Q 1288 4144 1088 3959 
Q 888 3775 888 3528 
Q 888 3366 970 3203 
Q 1053 3041 1206 2894 
L 1719 2469 
z
M 1375 2016 
Q 1116 1797 991 1539 
Q 866 1281 866 981 
Q 866 578 1086 336 
Q 1306 94 1647 94 
Q 1984 94 2187 284 
Q 2391 475 2391 747 
Q 2391 972 2272 1150 
Q 2050 1481 1375 2016 
z
" transform="scale(0.015625)"/>
       </defs>
       <use xlink:href="#TimesNewRomanPSMT-31"/>
       <use xlink:href="#TimesNewRomanPSMT-39" transform="translate(50 0)"/>
       <use xlink:href="#TimesNewRomanPSMT-35" transform="translate(100 0)"/>
       <use xlink:href="#TimesNewRomanPSMT-38" transform="translate(150 0)"/>
      </g>
     </g>
    </g>
    <g id="xtick_5">
     <g id="line2d_5">
      <g>
       <use xlink:href="#mf6f1c98e12" x="132.491927" y="314.449375" style="stroke: #000000; stroke-width: 0.8"/>
      </g>
     </g>
     <g id="text_5">
      <!-- 1960 -->
      <g transform="translate(116.837245 340.501483) rotate(-45) scale(0.1 -0.1)">
       <defs>
        <path id="TimesNewRomanPSMT-30" d="M 231 2094 
Q 231 2819 450 3342 
Q 669 3866 1031 4122 
Q 1313 4325 1613 4325 
Q 2100 4325 2488 3828 
Q 2972 3213 2972 2159 
Q 2972 1422 2759 906 
Q 2547 391 2217 158 
Q 1888 -75 1581 -75 
Q 975 -75 572 641 
Q 231 1244 231 2094 
z
M 844 2016 
Q 844 1141 1059 588 
Q 1238 122 1591 122 
Q 1759 122 1940 273 
Q 2122 425 2216 781 
Q 2359 1319 2359 2297 
Q 2359 3022 2209 3506 
Q 2097 3866 1919 4016 
Q 1791 4119 1609 4119 
Q 1397 4119 1231 3928 
Q 1006 3669 925 3112 
Q 844 2556 844 2016 
z
" transform="scale(0.015625)"/>
       </defs>
       <use xlink:href="#TimesNewRomanPSMT-31"/>
       <use xlink:href="#TimesNewRomanPSMT-39" transform="translate(50 0)"/>
       <use xlink:href="#TimesNewRomanPSMT-36" transform="translate(100 0)"/>
       <use xlink:href="#TimesNewRomanPSMT-30" transform="translate(150 0)"/>
      </g>
     </g>
    </g>
    <g id="xtick_6">
     <g id="line2d_6">
      <g>
       <use xlink:href="#mf6f1c98e12" x="158.673745" y="314.449375" style="stroke: #000000; stroke-width: 0.8"/>
      </g>
     </g>
     <g id="text_6">
      <!-- 1962 -->
      <g transform="translate(143.019064 340.501483) rotate(-45) scale(0.1 -0.1)">
       <use xlink:href="#TimesNewRomanPSMT-31"/>
       <use xlink:href="#TimesNewRomanPSMT-39" transform="translate(50 0)"/>
       <use xlink:href="#TimesNewRomanPSMT-36" transform="translate(100 0)"/>
       <use xlink:href="#TimesNewRomanPSMT-32" transform="translate(150 0)"/>
      </g>
     </g>
    </g>
    <g id="xtick_7">
     <g id="line2d_7">
      <g>
       <use xlink:href="#mf6f1c98e12" x="184.855563" y="314.449375" style="stroke: #000000; stroke-width: 0.8"/>
      </g>
     </g>
     <g id="text_7">
      <!-- 1964 -->
      <g transform="translate(169.200882 340.501483) rotate(-45) scale(0.1 -0.1)">
       <use xlink:href="#TimesNewRomanPSMT-31"/>
       <use xlink:href="#TimesNewRomanPSMT-39" transform="translate(50 0)"/>
       <use xlink:href="#TimesNewRomanPSMT-36" transform="translate(100 0)"/>
       <use xlink:href="#TimesNewRomanPSMT-34" transform="translate(150 0)"/>
      </g>
     </g>
    </g>
    <g id="xtick_8">
     <g id="line2d_8">
      <g>
       <use xlink:href="#mf6f1c98e12" x="211.037381" y="314.449375" style="stroke: #000000; stroke-width: 0.8"/>
      </g>
     </g>
     <g id="text_8">
      <!-- 1966 -->
      <g transform="translate(195.3827 340.501483) rotate(-45) scale(0.1 -0.1)">
       <use xlink:href="#TimesNewRomanPSMT-31"/>
       <use xlink:href="#TimesNewRomanPSMT-39" transform="translate(50 0)"/>
       <use xlink:href="#TimesNewRomanPSMT-36" transform="translate(100 0)"/>
       <use xlink:href="#TimesNewRomanPSMT-36" transform="translate(150 0)"/>
      </g>
     </g>
    </g>
    <g id="xtick_9">
     <g id="line2d_9">
      <g>
       <use xlink:href="#mf6f1c98e12" x="237.219199" y="314.449375" style="stroke: #000000; stroke-width: 0.8"/>
      </g>
     </g>
     <g id="text_9">
      <!-- 1968 -->
      <g transform="translate(221.564518 340.501483) rotate(-45) scale(0.1 -0.1)">
       <use xlink:href="#TimesNewRomanPSMT-31"/>
       <use xlink:href="#TimesNewRomanPSMT-39" transform="translate(50 0)"/>
       <use xlink:href="#TimesNewRomanPSMT-36" transform="translate(100 0)"/>
       <use xlink:href="#TimesNewRomanPSMT-38" transform="translate(150 0)"/>
      </g>
     </g>
    </g>
    <g id="xtick_10">
     <g id="line2d_10">
      <g>
       <use xlink:href="#mf6f1c98e12" x="263.401018" y="314.449375" style="stroke: #000000; stroke-width: 0.8"/>
      </g>
     </g>
     <g id="text_10">
      <!-- 1970 -->
      <g transform="translate(247.746336 340.501483) rotate(-45) scale(0.1 -0.1)">
       <defs>
        <path id="TimesNewRomanPSMT-37" d="M 644 4238 
L 2916 4238 
L 2916 4119 
L 1503 -88 
L 1153 -88 
L 2419 3728 
L 1253 3728 
Q 900 3728 750 3644 
Q 488 3500 328 3200 
L 238 3234 
L 644 4238 
z
" transform="scale(0.015625)"/>
       </defs>
       <use xlink:href="#TimesNewRomanPSMT-31"/>
       <use xlink:href="#TimesNewRomanPSMT-39" transform="translate(50 0)"/>
       <use xlink:href="#TimesNewRomanPSMT-37" transform="translate(100 0)"/>
       <use xlink:href="#TimesNewRomanPSMT-30" transform="translate(150 0)"/>
      </g>
     </g>
    </g>
    <g id="xtick_11">
     <g id="line2d_11">
      <g>
       <use xlink:href="#mf6f1c98e12" x="289.582836" y="314.449375" style="stroke: #000000; stroke-width: 0.8"/>
      </g>
     </g>
     <g id="text_11">
      <!-- 1972 -->
      <g transform="translate(273.928155 340.501483) rotate(-45) scale(0.1 -0.1)">
       <use xlink:href="#TimesNewRomanPSMT-31"/>
       <use xlink:href="#TimesNewRomanPSMT-39" transform="translate(50 0)"/>
       <use xlink:href="#TimesNewRomanPSMT-37" transform="translate(100 0)"/>
       <use xlink:href="#TimesNewRomanPSMT-32" transform="translate(150 0)"/>
      </g>
     </g>
    </g>
    <g id="xtick_12">
     <g id="line2d_12">
      <g>
       <use xlink:href="#mf6f1c98e12" x="315.764654" y="314.449375" style="stroke: #000000; stroke-width: 0.8"/>
      </g>
     </g>
     <g id="text_12">
      <!-- 1974 -->
      <g transform="translate(300.109973 340.501483) rotate(-45) scale(0.1 -0.1)">
       <use xlink:href="#TimesNewRomanPSMT-31"/>
       <use xlink:href="#TimesNewRomanPSMT-39" transform="translate(50 0)"/>
       <use xlink:href="#TimesNewRomanPSMT-37" transform="translate(100 0)"/>
       <use xlink:href="#TimesNewRomanPSMT-34" transform="translate(150 0)"/>
      </g>
     </g>
    </g>
    <g id="xtick_13">
     <g id="line2d_13">
      <g>
       <use xlink:href="#mf6f1c98e12" x="341.946472" y="314.449375" style="stroke: #000000; stroke-width: 0.8"/>
      </g>
     </g>
     <g id="text_13">
      <!-- 1976 -->
      <g transform="translate(326.291791 340.501483) rotate(-45) scale(0.1 -0.1)">
       <use xlink:href="#TimesNewRomanPSMT-31"/>
       <use xlink:href="#TimesNewRomanPSMT-39" transform="translate(50 0)"/>
       <use xlink:href="#TimesNewRomanPSMT-37" transform="translate(100 0)"/>
       <use xlink:href="#TimesNewRomanPSMT-36" transform="translate(150 0)"/>
      </g>
     </g>
    </g>
    <g id="xtick_14">
     <g id="line2d_14">
      <g>
       <use xlink:href="#mf6f1c98e12" x="368.12829" y="314.449375" style="stroke: #000000; stroke-width: 0.8"/>
      </g>
     </g>
     <g id="text_14">
      <!-- 1978 -->
      <g transform="translate(352.473609 340.501483) rotate(-45) scale(0.1 -0.1)">
       <use xlink:href="#TimesNewRomanPSMT-31"/>
       <use xlink:href="#TimesNewRomanPSMT-39" transform="translate(50 0)"/>
       <use xlink:href="#TimesNewRomanPSMT-37" transform="translate(100 0)"/>
       <use xlink:href="#TimesNewRomanPSMT-38" transform="translate(150 0)"/>
      </g>
     </g>
    </g>
    <g id="text_15">
     <!-- Year -->
     <g transform="translate(193.434114 354.346529) scale(0.12 -0.12)">
      <defs>
       <path id="TimesNewRomanPSMT-59" d="M 3050 4238 
L 4528 4238 
L 4528 4122 
L 4447 4122 
Q 4366 4122 4209 4050 
Q 4053 3978 3925 3843 
Q 3797 3709 3609 3406 
L 2588 1797 
L 2588 734 
Q 2588 344 2675 247 
Q 2794 116 3050 116 
L 3188 116 
L 3188 0 
L 1388 0 
L 1388 116 
L 1538 116 
Q 1806 116 1919 278 
Q 1988 378 1988 734 
L 1988 1738 
L 825 3513 
Q 619 3825 545 3903 
Q 472 3981 241 4091 
Q 178 4122 59 4122 
L 59 4238 
L 1872 4238 
L 1872 4122 
L 1778 4122 
Q 1631 4122 1507 4053 
Q 1384 3984 1384 3847 
Q 1384 3734 1575 3441 
L 2459 2075 
L 3291 3381 
Q 3478 3675 3478 3819 
Q 3478 3906 3433 3975 
Q 3388 4044 3303 4083 
Q 3219 4122 3050 4122 
L 3050 4238 
z
" transform="scale(0.015625)"/>
       <path id="TimesNewRomanPSMT-65" d="M 681 1784 
Q 678 1147 991 784 
Q 1303 422 1725 422 
Q 2006 422 2214 576 
Q 2422 731 2563 1106 
L 2659 1044 
Q 2594 616 2278 264 
Q 1963 -88 1488 -88 
Q 972 -88 605 314 
Q 238 716 238 1394 
Q 238 2128 614 2539 
Q 991 2950 1559 2950 
Q 2041 2950 2350 2633 
Q 2659 2316 2659 1784 
L 681 1784 
z
M 681 1966 
L 2006 1966 
Q 1991 2241 1941 2353 
Q 1863 2528 1708 2628 
Q 1553 2728 1384 2728 
Q 1125 2728 920 2526 
Q 716 2325 681 1966 
z
" transform="scale(0.015625)"/>
       <path id="TimesNewRomanPSMT-61" d="M 1822 413 
Q 1381 72 1269 19 
Q 1100 -59 909 -59 
Q 613 -59 420 144 
Q 228 347 228 678 
Q 228 888 322 1041 
Q 450 1253 767 1440 
Q 1084 1628 1822 1897 
L 1822 2009 
Q 1822 2438 1686 2597 
Q 1550 2756 1291 2756 
Q 1094 2756 978 2650 
Q 859 2544 859 2406 
L 866 2225 
Q 866 2081 792 2003 
Q 719 1925 600 1925 
Q 484 1925 411 2006 
Q 338 2088 338 2228 
Q 338 2497 613 2722 
Q 888 2947 1384 2947 
Q 1766 2947 2009 2819 
Q 2194 2722 2281 2516 
Q 2338 2381 2338 1966 
L 2338 994 
Q 2338 584 2353 492 
Q 2369 400 2405 369 
Q 2441 338 2488 338 
Q 2538 338 2575 359 
Q 2641 400 2828 588 
L 2828 413 
Q 2478 -56 2159 -56 
Q 2006 -56 1915 50 
Q 1825 156 1822 413 
z
M 1822 616 
L 1822 1706 
Q 1350 1519 1213 1441 
Q 966 1303 859 1153 
Q 753 1003 753 825 
Q 753 600 887 451 
Q 1022 303 1197 303 
Q 1434 303 1822 616 
z
" transform="scale(0.015625)"/>
       <path id="TimesNewRomanPSMT-72" d="M 1038 2947 
L 1038 2303 
Q 1397 2947 1775 2947 
Q 1947 2947 2059 2842 
Q 2172 2738 2172 2600 
Q 2172 2478 2090 2393 
Q 2009 2309 1897 2309 
Q 1788 2309 1652 2417 
Q 1516 2525 1450 2525 
Q 1394 2525 1328 2463 
Q 1188 2334 1038 2041 
L 1038 669 
Q 1038 431 1097 309 
Q 1138 225 1241 169 
Q 1344 113 1538 113 
L 1538 0 
L 72 0 
L 72 113 
Q 291 113 397 181 
Q 475 231 506 341 
Q 522 394 522 644 
L 522 1753 
Q 522 2253 501 2348 
Q 481 2444 426 2487 
Q 372 2531 291 2531 
Q 194 2531 72 2484 
L 41 2597 
L 906 2947 
L 1038 2947 
z
" transform="scale(0.015625)"/>
      </defs>
      <use xlink:href="#TimesNewRomanPSMT-59"/>
      <use xlink:href="#TimesNewRomanPSMT-65" transform="translate(62.216797 0)"/>
      <use xlink:href="#TimesNewRomanPSMT-61" transform="translate(106.601562 0)"/>
      <use xlink:href="#TimesNewRomanPSMT-72" transform="translate(150.986328 0)"/>
     </g>
    </g>
   </g>
   <g id="patch_3">
    <path d="M 10.091927 314.449375 
L 10.091927 37.249375 
" style="fill: none; stroke: #000000; stroke-width: 0.8; stroke-linejoin: miter; stroke-linecap: square"/>
   </g>
   <g id="patch_4">
    <path d="M 398.891927 314.449375 
L 398.891927 37.249375 
" style="fill: none; stroke: #000000; stroke-width: 0.8; stroke-linejoin: miter; stroke-linecap: square"/>
   </g>
   <g id="patch_5">
    <path d="M 10.091927 314.449375 
L 398.891927 314.449375 
" style="fill: none; stroke: #000000; stroke-width: 0.8; stroke-linejoin: miter; stroke-linecap: square"/>
   </g>
   <g id="patch_6">
    <path d="M 10.091927 37.249375 
L 398.891927 37.249375 
" style="fill: none; stroke: #000000; stroke-width: 0.8; stroke-linejoin: miter; stroke-linecap: square"/>
   </g>
   <g id="text_16">
    <!-- Fertilizer Price from 1952 to 1979 ($/ton)  -->
    <g transform="translate(86.102239 17.249375) scale(0.14 -0.14)">
     <defs>
      <path id="TimesNewRomanPSMT-46" d="M 1309 4006 
L 1309 2341 
L 2081 2341 
Q 2347 2341 2470 2458 
Q 2594 2575 2634 2922 
L 2750 2922 
L 2750 1488 
L 2634 1488 
Q 2631 1734 2570 1850 
Q 2509 1966 2401 2023 
Q 2294 2081 2081 2081 
L 1309 2081 
L 1309 750 
Q 1309 428 1350 325 
Q 1381 247 1481 191 
Q 1619 116 1769 116 
L 1922 116 
L 1922 0 
L 103 0 
L 103 116 
L 253 116 
Q 516 116 634 269 
Q 709 369 709 750 
L 709 3488 
Q 709 3809 669 3913 
Q 638 3991 541 4047 
Q 406 4122 253 4122 
L 103 4122 
L 103 4238 
L 3256 4238 
L 3297 3306 
L 3188 3306 
Q 3106 3603 2998 3742 
Q 2891 3881 2733 3943 
Q 2575 4006 2244 4006 
L 1309 4006 
z
" transform="scale(0.015625)"/>
      <path id="TimesNewRomanPSMT-74" d="M 1031 3803 
L 1031 2863 
L 1700 2863 
L 1700 2644 
L 1031 2644 
L 1031 788 
Q 1031 509 1111 412 
Q 1191 316 1316 316 
Q 1419 316 1516 380 
Q 1613 444 1666 569 
L 1788 569 
Q 1678 263 1478 108 
Q 1278 -47 1066 -47 
Q 922 -47 784 33 
Q 647 113 581 261 
Q 516 409 516 719 
L 516 2644 
L 63 2644 
L 63 2747 
Q 234 2816 414 2980 
Q 594 3144 734 3369 
Q 806 3488 934 3803 
L 1031 3803 
z
" transform="scale(0.015625)"/>
      <path id="TimesNewRomanPSMT-69" d="M 928 4444 
Q 1059 4444 1151 4351 
Q 1244 4259 1244 4128 
Q 1244 3997 1151 3903 
Q 1059 3809 928 3809 
Q 797 3809 703 3903 
Q 609 3997 609 4128 
Q 609 4259 701 4351 
Q 794 4444 928 4444 
z
M 1188 2947 
L 1188 647 
Q 1188 378 1227 289 
Q 1266 200 1342 156 
Q 1419 113 1622 113 
L 1622 0 
L 231 0 
L 231 113 
Q 441 113 512 153 
Q 584 194 626 287 
Q 669 381 669 647 
L 669 1750 
Q 669 2216 641 2353 
Q 619 2453 572 2492 
Q 525 2531 444 2531 
Q 356 2531 231 2484 
L 188 2597 
L 1050 2947 
L 1188 2947 
z
" transform="scale(0.015625)"/>
      <path id="TimesNewRomanPSMT-6c" d="M 1184 4444 
L 1184 647 
Q 1184 378 1223 290 
Q 1263 203 1344 158 
Q 1425 113 1647 113 
L 1647 0 
L 244 0 
L 244 113 
Q 441 113 512 153 
Q 584 194 625 287 
Q 666 381 666 647 
L 666 3247 
Q 666 3731 644 3842 
Q 622 3953 573 3993 
Q 525 4034 450 4034 
Q 369 4034 244 3984 
L 191 4094 
L 1044 4444 
L 1184 4444 
z
" transform="scale(0.015625)"/>
      <path id="TimesNewRomanPSMT-7a" d="M 2688 878 
L 2653 0 
L 128 0 
L 128 113 
L 2028 2644 
L 1091 2644 
Q 788 2644 694 2605 
Q 600 2566 541 2456 
Q 456 2300 444 2069 
L 319 2069 
L 338 2863 
L 2738 2863 
L 2738 2747 
L 819 209 
L 1863 209 
Q 2191 209 2308 264 
Q 2425 319 2497 456 
Q 2547 556 2581 878 
L 2688 878 
z
" transform="scale(0.015625)"/>
      <path id="TimesNewRomanPSMT-20" transform="scale(0.015625)"/>
      <path id="TimesNewRomanPSMT-50" d="M 1313 1984 
L 1313 750 
Q 1313 350 1400 253 
Q 1519 116 1759 116 
L 1922 116 
L 1922 0 
L 106 0 
L 106 116 
L 266 116 
Q 534 116 650 291 
Q 713 388 713 750 
L 713 3488 
Q 713 3888 628 3984 
Q 506 4122 266 4122 
L 106 4122 
L 106 4238 
L 1659 4238 
Q 2228 4238 2556 4120 
Q 2884 4003 3109 3725 
Q 3334 3447 3334 3066 
Q 3334 2547 2992 2222 
Q 2650 1897 2025 1897 
Q 1872 1897 1694 1919 
Q 1516 1941 1313 1984 
z
M 1313 2163 
Q 1478 2131 1606 2115 
Q 1734 2100 1825 2100 
Q 2150 2100 2386 2351 
Q 2622 2603 2622 3003 
Q 2622 3278 2509 3514 
Q 2397 3750 2190 3867 
Q 1984 3984 1722 3984 
Q 1563 3984 1313 3925 
L 1313 2163 
z
" transform="scale(0.015625)"/>
      <path id="TimesNewRomanPSMT-63" d="M 2631 1088 
Q 2516 522 2178 217 
Q 1841 -88 1431 -88 
Q 944 -88 581 321 
Q 219 731 219 1428 
Q 219 2103 620 2525 
Q 1022 2947 1584 2947 
Q 2006 2947 2278 2723 
Q 2550 2500 2550 2259 
Q 2550 2141 2473 2067 
Q 2397 1994 2259 1994 
Q 2075 1994 1981 2113 
Q 1928 2178 1911 2362 
Q 1894 2547 1784 2644 
Q 1675 2738 1481 2738 
Q 1169 2738 978 2506 
Q 725 2200 725 1697 
Q 725 1184 976 792 
Q 1228 400 1656 400 
Q 1963 400 2206 609 
Q 2378 753 2541 1131 
L 2631 1088 
z
" transform="scale(0.015625)"/>
      <path id="TimesNewRomanPSMT-66" d="M 1319 2638 
L 1319 756 
Q 1319 356 1406 250 
Q 1522 113 1716 113 
L 1975 113 
L 1975 0 
L 266 0 
L 266 113 
L 394 113 
Q 519 113 622 175 
Q 725 238 764 344 
Q 803 450 803 756 
L 803 2638 
L 247 2638 
L 247 2863 
L 803 2863 
L 803 3050 
Q 803 3478 940 3775 
Q 1078 4072 1361 4255 
Q 1644 4438 1997 4438 
Q 2325 4438 2600 4225 
Q 2781 4084 2781 3909 
Q 2781 3816 2700 3733 
Q 2619 3650 2525 3650 
Q 2453 3650 2373 3701 
Q 2294 3753 2178 3923 
Q 2063 4094 1966 4153 
Q 1869 4213 1750 4213 
Q 1606 4213 1506 4136 
Q 1406 4059 1362 3898 
Q 1319 3738 1319 3069 
L 1319 2863 
L 2056 2863 
L 2056 2638 
L 1319 2638 
z
" transform="scale(0.015625)"/>
      <path id="TimesNewRomanPSMT-6f" d="M 1600 2947 
Q 2250 2947 2644 2453 
Q 2978 2031 2978 1484 
Q 2978 1100 2793 706 
Q 2609 313 2286 112 
Q 1963 -88 1566 -88 
Q 919 -88 538 428 
Q 216 863 216 1403 
Q 216 1797 411 2186 
Q 606 2575 925 2761 
Q 1244 2947 1600 2947 
z
M 1503 2744 
Q 1338 2744 1170 2645 
Q 1003 2547 900 2300 
Q 797 2053 797 1666 
Q 797 1041 1045 587 
Q 1294 134 1700 134 
Q 2003 134 2200 384 
Q 2397 634 2397 1244 
Q 2397 2006 2069 2444 
Q 1847 2744 1503 2744 
z
" transform="scale(0.015625)"/>
      <path id="TimesNewRomanPSMT-6d" d="M 1050 2338 
Q 1363 2650 1419 2697 
Q 1559 2816 1721 2881 
Q 1884 2947 2044 2947 
Q 2313 2947 2506 2790 
Q 2700 2634 2766 2338 
Q 3088 2713 3309 2830 
Q 3531 2947 3766 2947 
Q 3994 2947 4170 2830 
Q 4347 2713 4450 2447 
Q 4519 2266 4519 1878 
L 4519 647 
Q 4519 378 4559 278 
Q 4591 209 4675 161 
Q 4759 113 4950 113 
L 4950 0 
L 3538 0 
L 3538 113 
L 3597 113 
Q 3781 113 3884 184 
Q 3956 234 3988 344 
Q 4000 397 4000 647 
L 4000 1878 
Q 4000 2228 3916 2372 
Q 3794 2572 3525 2572 
Q 3359 2572 3192 2489 
Q 3025 2406 2788 2181 
L 2781 2147 
L 2788 2013 
L 2788 647 
Q 2788 353 2820 281 
Q 2853 209 2943 161 
Q 3034 113 3253 113 
L 3253 0 
L 1806 0 
L 1806 113 
Q 2044 113 2133 169 
Q 2222 225 2256 338 
Q 2272 391 2272 647 
L 2272 1878 
Q 2272 2228 2169 2381 
Q 2031 2581 1784 2581 
Q 1616 2581 1450 2491 
Q 1191 2353 1050 2181 
L 1050 647 
Q 1050 366 1089 281 
Q 1128 197 1204 155 
Q 1281 113 1516 113 
L 1516 0 
L 100 0 
L 100 113 
Q 297 113 375 155 
Q 453 197 493 289 
Q 534 381 534 647 
L 534 1741 
Q 534 2213 506 2350 
Q 484 2453 437 2492 
Q 391 2531 309 2531 
Q 222 2531 100 2484 
L 53 2597 
L 916 2947 
L 1050 2947 
L 1050 2338 
z
" transform="scale(0.015625)"/>
      <path id="TimesNewRomanPSMT-28" d="M 1988 -1253 
L 1988 -1369 
Q 1516 -1131 1200 -813 
Q 750 -359 506 256 
Q 263 872 263 1534 
Q 263 2503 741 3301 
Q 1219 4100 1988 4444 
L 1988 4313 
Q 1603 4100 1356 3731 
Q 1109 3363 987 2797 
Q 866 2231 866 1616 
Q 866 947 969 400 
Q 1050 -31 1165 -292 
Q 1281 -553 1476 -793 
Q 1672 -1034 1988 -1253 
z
" transform="scale(0.015625)"/>
      <path id="TimesNewRomanPSMT-24" d="M 338 1044 
L 475 1044 
Q 509 616 743 387 
Q 978 159 1444 116 
L 1444 1941 
Q 741 2375 506 2709 
Q 341 2947 341 3288 
Q 341 3672 627 3959 
Q 913 4247 1444 4306 
L 1444 4594 
L 1644 4594 
L 1644 4306 
Q 1900 4291 2075 4247 
Q 2166 4225 2675 4031 
L 2675 3097 
L 2553 3097 
Q 2513 3594 2295 3823 
Q 2078 4053 1644 4097 
L 1644 2509 
Q 2431 1959 2654 1698 
Q 2878 1438 2878 1050 
Q 2878 619 2551 290 
Q 2225 -38 1644 -88 
L 1644 -488 
L 1444 -488 
L 1444 -88 
Q 1150 -75 897 -20 
Q 644 34 338 159 
L 338 1044 
z
M 1444 2641 
L 1444 4094 
Q 1131 4056 979 3895 
Q 828 3734 828 3491 
Q 828 3263 965 3064 
Q 1103 2866 1444 2641 
z
M 1644 116 
Q 1878 156 2003 231 
Q 2178 341 2279 517 
Q 2381 694 2381 894 
Q 2381 1100 2257 1284 
Q 2134 1469 1644 1806 
L 1644 116 
z
" transform="scale(0.015625)"/>
      <path id="TimesNewRomanPSMT-2f" d="M 1794 4444 
L 259 -88 
L 9 -88 
L 1544 4444 
L 1794 4444 
z
" transform="scale(0.015625)"/>
      <path id="TimesNewRomanPSMT-6e" d="M 1034 2341 
Q 1538 2947 1994 2947 
Q 2228 2947 2397 2830 
Q 2566 2713 2666 2444 
Q 2734 2256 2734 1869 
L 2734 647 
Q 2734 375 2778 278 
Q 2813 200 2889 156 
Q 2966 113 3172 113 
L 3172 0 
L 1756 0 
L 1756 113 
L 1816 113 
Q 2016 113 2095 173 
Q 2175 234 2206 353 
Q 2219 400 2219 647 
L 2219 1819 
Q 2219 2209 2117 2386 
Q 2016 2563 1775 2563 
Q 1403 2563 1034 2156 
L 1034 647 
Q 1034 356 1069 288 
Q 1113 197 1189 155 
Q 1266 113 1500 113 
L 1500 0 
L 84 0 
L 84 113 
L 147 113 
Q 366 113 442 223 
Q 519 334 519 647 
L 519 1709 
Q 519 2225 495 2337 
Q 472 2450 423 2490 
Q 375 2531 294 2531 
Q 206 2531 84 2484 
L 38 2597 
L 900 2947 
L 1034 2947 
L 1034 2341 
z
" transform="scale(0.015625)"/>
      <path id="TimesNewRomanPSMT-29" d="M 144 4313 
L 144 4444 
Q 619 4209 934 3891 
Q 1381 3434 1625 2820 
Q 1869 2206 1869 1541 
Q 1869 572 1392 -226 
Q 916 -1025 144 -1369 
L 144 -1253 
Q 528 -1038 776 -670 
Q 1025 -303 1145 264 
Q 1266 831 1266 1447 
Q 1266 2113 1163 2663 
Q 1084 3094 967 3353 
Q 850 3613 656 3853 
Q 463 4094 144 4313 
z
" transform="scale(0.015625)"/>
     </defs>
     <use xlink:href="#TimesNewRomanPSMT-46"/>
     <use xlink:href="#TimesNewRomanPSMT-65" transform="translate(55.615234 0)"/>
     <use xlink:href="#TimesNewRomanPSMT-72" transform="translate(100 0)"/>
     <use xlink:href="#TimesNewRomanPSMT-74" transform="translate(133.300781 0)"/>
     <use xlink:href="#TimesNewRomanPSMT-69" transform="translate(161.083984 0)"/>
     <use xlink:href="#TimesNewRomanPSMT-6c" transform="translate(188.867188 0)"/>
     <use xlink:href="#TimesNewRomanPSMT-69" transform="translate(216.650391 0)"/>
     <use xlink:href="#TimesNewRomanPSMT-7a" transform="translate(244.433594 0)"/>
     <use xlink:href="#TimesNewRomanPSMT-65" transform="translate(288.818359 0)"/>
     <use xlink:href="#TimesNewRomanPSMT-72" transform="translate(333.203125 0)"/>
     <use xlink:href="#TimesNewRomanPSMT-20" transform="translate(366.503906 0)"/>
     <use xlink:href="#TimesNewRomanPSMT-50" transform="translate(391.503906 0)"/>
     <use xlink:href="#TimesNewRomanPSMT-72" transform="translate(447.119141 0)"/>
     <use xlink:href="#TimesNewRomanPSMT-69" transform="translate(480.419922 0)"/>
     <use xlink:href="#TimesNewRomanPSMT-63" transform="translate(508.203125 0)"/>
     <use xlink:href="#TimesNewRomanPSMT-65" transform="translate(552.587891 0)"/>
     <use xlink:href="#TimesNewRomanPSMT-20" transform="translate(596.972656 0)"/>
     <use xlink:href="#TimesNewRomanPSMT-66" transform="translate(621.972656 0)"/>
     <use xlink:href="#TimesNewRomanPSMT-72" transform="translate(655.273438 0)"/>
     <use xlink:href="#TimesNewRomanPSMT-6f" transform="translate(688.574219 0)"/>
     <use xlink:href="#TimesNewRomanPSMT-6d" transform="translate(738.574219 0)"/>
     <use xlink:href="#TimesNewRomanPSMT-20" transform="translate(816.357422 0)"/>
     <use xlink:href="#TimesNewRomanPSMT-31" transform="translate(841.357422 0)"/>
     <use xlink:href="#TimesNewRomanPSMT-39" transform="translate(891.357422 0)"/>
     <use xlink:href="#TimesNewRomanPSMT-35" transform="translate(941.357422 0)"/>
     <use xlink:href="#TimesNewRomanPSMT-32" transform="translate(991.357422 0)"/>
     <use xlink:href="#TimesNewRomanPSMT-20" transform="translate(1041.357422 0)"/>
     <use xlink:href="#TimesNewRomanPSMT-74" transform="translate(1066.357422 0)"/>
     <use xlink:href="#TimesNewRomanPSMT-6f" transform="translate(1094.140625 0)"/>
     <use xlink:href="#TimesNewRomanPSMT-20" transform="translate(1144.140625 0)"/>
     <use xlink:href="#TimesNewRomanPSMT-31" transform="translate(1169.140625 0)"/>
     <use xlink:href="#TimesNewRomanPSMT-39" transform="translate(1219.140625 0)"/>
     <use xlink:href="#TimesNewRomanPSMT-37" transform="translate(1269.140625 0)"/>
     <use xlink:href="#TimesNewRomanPSMT-39" transform="translate(1319.140625 0)"/>
     <use xlink:href="#TimesNewRomanPSMT-20" transform="translate(1369.140625 0)"/>
     <use xlink:href="#TimesNewRomanPSMT-28" transform="translate(1394.140625 0)"/>
     <use xlink:href="#TimesNewRomanPSMT-24" transform="translate(1427.441406 0)"/>
     <use xlink:href="#TimesNewRomanPSMT-2f" transform="translate(1477.441406 0)"/>
     <use xlink:href="#TimesNewRomanPSMT-74" transform="translate(1505.224609 0)"/>
     <use xlink:href="#TimesNewRomanPSMT-6f" transform="translate(1533.007812 0)"/>
     <use xlink:href="#TimesNewRomanPSMT-6e" transform="translate(1583.007812 0)"/>
     <use xlink:href="#TimesNewRomanPSMT-29" transform="translate(1633.007812 0)"/>
     <use xlink:href="#TimesNewRomanPSMT-20" transform="translate(1666.308594 0)"/>
    </g>
   </g>
   <g id="legend_1">
    <g id="patch_7">
     <path d="M 415.667927 164.131406 
L 435.667927 164.131406 
L 435.667927 157.131406 
L 415.667927 157.131406 
z
" style="fill: #1f77b4"/>
    </g>
    <g id="text_17">
     <!-- Skyberry Pulp -->
     <g transform="translate(443.667927 164.131406) scale(0.1 -0.1)">
      <defs>
       <path id="TimesNewRomanPSMT-53" d="M 2934 4334 
L 2934 2869 
L 2819 2869 
Q 2763 3291 2617 3541 
Q 2472 3791 2203 3937 
Q 1934 4084 1647 4084 
Q 1322 4084 1109 3886 
Q 897 3688 897 3434 
Q 897 3241 1031 3081 
Q 1225 2847 1953 2456 
Q 2547 2138 2764 1967 
Q 2981 1797 3098 1565 
Q 3216 1334 3216 1081 
Q 3216 600 2842 251 
Q 2469 -97 1881 -97 
Q 1697 -97 1534 -69 
Q 1438 -53 1133 45 
Q 828 144 747 144 
Q 669 144 623 97 
Q 578 50 556 -97 
L 441 -97 
L 441 1356 
L 556 1356 
Q 638 900 775 673 
Q 913 447 1195 297 
Q 1478 147 1816 147 
Q 2206 147 2432 353 
Q 2659 559 2659 841 
Q 2659 997 2573 1156 
Q 2488 1316 2306 1453 
Q 2184 1547 1640 1851 
Q 1097 2156 867 2337 
Q 638 2519 519 2737 
Q 400 2956 400 3219 
Q 400 3675 750 4004 
Q 1100 4334 1641 4334 
Q 1978 4334 2356 4169 
Q 2531 4091 2603 4091 
Q 2684 4091 2736 4139 
Q 2788 4188 2819 4334 
L 2934 4334 
z
" transform="scale(0.015625)"/>
       <path id="TimesNewRomanPSMT-6b" d="M 1047 4444 
L 1047 1597 
L 1775 2259 
Q 2006 2472 2044 2528 
Q 2069 2566 2069 2603 
Q 2069 2666 2017 2711 
Q 1966 2756 1847 2763 
L 1847 2863 
L 3091 2863 
L 3091 2763 
Q 2834 2756 2664 2684 
Q 2494 2613 2291 2428 
L 1556 1750 
L 2291 822 
Q 2597 438 2703 334 
Q 2853 188 2966 144 
Q 3044 113 3238 113 
L 3238 0 
L 1847 0 
L 1847 113 
Q 1966 116 2008 148 
Q 2050 181 2050 241 
Q 2050 313 1925 472 
L 1047 1594 
L 1047 644 
Q 1047 366 1086 278 
Q 1125 191 1197 153 
Q 1269 116 1509 113 
L 1509 0 
L 53 0 
L 53 113 
Q 272 113 381 166 
Q 447 200 481 272 
Q 528 375 528 628 
L 528 3234 
Q 528 3731 506 3842 
Q 484 3953 434 3995 
Q 384 4038 303 4038 
Q 238 4038 106 3984 
L 53 4094 
L 903 4444 
L 1047 4444 
z
" transform="scale(0.015625)"/>
       <path id="TimesNewRomanPSMT-79" d="M 38 2863 
L 1372 2863 
L 1372 2747 
L 1306 2747 
Q 1166 2747 1095 2686 
Q 1025 2625 1025 2534 
Q 1025 2413 1128 2197 
L 1825 753 
L 2466 2334 
Q 2519 2463 2519 2588 
Q 2519 2644 2497 2672 
Q 2472 2706 2419 2726 
Q 2366 2747 2231 2747 
L 2231 2863 
L 3163 2863 
L 3163 2747 
Q 3047 2734 2984 2696 
Q 2922 2659 2847 2556 
Q 2819 2513 2741 2316 
L 1575 -541 
Q 1406 -956 1132 -1168 
Q 859 -1381 606 -1381 
Q 422 -1381 303 -1275 
Q 184 -1169 184 -1031 
Q 184 -900 270 -820 
Q 356 -741 506 -741 
Q 609 -741 788 -809 
Q 913 -856 944 -856 
Q 1038 -856 1148 -759 
Q 1259 -663 1372 -384 
L 1575 113 
L 547 2272 
Q 500 2369 397 2513 
Q 319 2622 269 2659 
Q 197 2709 38 2747 
L 38 2863 
z
" transform="scale(0.015625)"/>
       <path id="TimesNewRomanPSMT-62" d="M 984 2369 
Q 1400 2947 1881 2947 
Q 2322 2947 2650 2570 
Q 2978 2194 2978 1541 
Q 2978 778 2472 313 
Q 2038 -88 1503 -88 
Q 1253 -88 995 3 
Q 738 94 469 275 
L 469 3241 
Q 469 3728 445 3840 
Q 422 3953 372 3993 
Q 322 4034 247 4034 
Q 159 4034 28 3984 
L -16 4094 
L 844 4444 
L 984 4444 
L 984 2369 
z
M 984 2169 
L 984 456 
Q 1144 300 1314 220 
Q 1484 141 1663 141 
Q 1947 141 2192 453 
Q 2438 766 2438 1363 
Q 2438 1913 2192 2208 
Q 1947 2503 1634 2503 
Q 1469 2503 1303 2419 
Q 1178 2356 984 2169 
z
" transform="scale(0.015625)"/>
       <path id="TimesNewRomanPSMT-75" d="M 2709 2863 
L 2709 1128 
Q 2709 631 2732 520 
Q 2756 409 2807 365 
Q 2859 322 2928 322 
Q 3025 322 3147 375 
L 3191 266 
L 2334 -88 
L 2194 -88 
L 2194 519 
Q 1825 119 1631 15 
Q 1438 -88 1222 -88 
Q 981 -88 804 51 
Q 628 191 559 409 
Q 491 628 491 1028 
L 491 2306 
Q 491 2509 447 2587 
Q 403 2666 317 2708 
Q 231 2750 6 2747 
L 6 2863 
L 1009 2863 
L 1009 947 
Q 1009 547 1148 422 
Q 1288 297 1484 297 
Q 1619 297 1789 381 
Q 1959 466 2194 703 
L 2194 2325 
Q 2194 2569 2105 2655 
Q 2016 2741 1734 2747 
L 1734 2863 
L 2709 2863 
z
" transform="scale(0.015625)"/>
       <path id="TimesNewRomanPSMT-70" d="M -6 2578 
L 875 2934 
L 994 2934 
L 994 2266 
Q 1216 2644 1439 2795 
Q 1663 2947 1909 2947 
Q 2341 2947 2628 2609 
Q 2981 2197 2981 1534 
Q 2981 794 2556 309 
Q 2206 -88 1675 -88 
Q 1444 -88 1275 -22 
Q 1150 25 994 166 
L 994 -706 
Q 994 -1000 1030 -1079 
Q 1066 -1159 1155 -1206 
Q 1244 -1253 1478 -1253 
L 1478 -1369 
L -22 -1369 
L -22 -1253 
L 56 -1253 
Q 228 -1256 350 -1188 
Q 409 -1153 442 -1076 
Q 475 -1000 475 -688 
L 475 2019 
Q 475 2297 450 2372 
Q 425 2447 370 2484 
Q 316 2522 222 2522 
Q 147 2522 31 2478 
L -6 2578 
z
M 994 2081 
L 994 1013 
Q 994 666 1022 556 
Q 1066 375 1236 237 
Q 1406 100 1666 100 
Q 1978 100 2172 344 
Q 2425 663 2425 1241 
Q 2425 1897 2138 2250 
Q 1938 2494 1663 2494 
Q 1513 2494 1366 2419 
Q 1253 2363 994 2081 
z
" transform="scale(0.015625)"/>
      </defs>
      <use xlink:href="#TimesNewRomanPSMT-53"/>
      <use xlink:href="#TimesNewRomanPSMT-6b" transform="translate(55.615234 0)"/>
      <use xlink:href="#TimesNewRomanPSMT-79" transform="translate(105.615234 0)"/>
      <use xlink:href="#TimesNewRomanPSMT-62" transform="translate(155.615234 0)"/>
      <use xlink:href="#TimesNewRomanPSMT-65" transform="translate(205.615234 0)"/>
      <use xlink:href="#TimesNewRomanPSMT-72" transform="translate(250 0)"/>
      <use xlink:href="#TimesNewRomanPSMT-72" transform="translate(283.300781 0)"/>
      <use xlink:href="#TimesNewRomanPSMT-79" transform="translate(316.601562 0)"/>
      <use xlink:href="#TimesNewRomanPSMT-20" transform="translate(366.601562 0)"/>
      <use xlink:href="#TimesNewRomanPSMT-50" transform="translate(391.601562 0)"/>
      <use xlink:href="#TimesNewRomanPSMT-75" transform="translate(447.216797 0)"/>
      <use xlink:href="#TimesNewRomanPSMT-6c" transform="translate(497.216797 0)"/>
      <use xlink:href="#TimesNewRomanPSMT-70" transform="translate(525 0)"/>
     </g>
    </g>
    <g id="patch_8">
     <path d="M 415.667927 178.289219 
L 435.667927 178.289219 
L 435.667927 171.289219 
L 415.667927 171.289219 
z
" style="fill: #aec7e8"/>
    </g>
    <g id="text_18">
     <!-- AquaBeans -->
     <g transform="translate(443.667927 178.289219) scale(0.1 -0.1)">
      <defs>
       <path id="TimesNewRomanPSMT-41" d="M 2928 1419 
L 1288 1419 
L 1000 750 
Q 894 503 894 381 
Q 894 284 986 211 
Q 1078 138 1384 116 
L 1384 0 
L 50 0 
L 50 116 
Q 316 163 394 238 
Q 553 388 747 847 
L 2238 4334 
L 2347 4334 
L 3822 809 
Q 4000 384 4145 257 
Q 4291 131 4550 116 
L 4550 0 
L 2878 0 
L 2878 116 
Q 3131 128 3220 200 
Q 3309 272 3309 375 
Q 3309 513 3184 809 
L 2928 1419 
z
M 2841 1650 
L 2122 3363 
L 1384 1650 
L 2841 1650 
z
" transform="scale(0.015625)"/>
       <path id="TimesNewRomanPSMT-71" d="M 2734 2947 
L 2734 -734 
Q 2734 -1009 2771 -1087 
Q 2809 -1166 2889 -1209 
Q 2969 -1253 3200 -1253 
L 3200 -1369 
L 1756 -1369 
L 1756 -1253 
L 1816 -1253 
Q 1991 -1253 2081 -1203 
Q 2144 -1169 2181 -1080 
Q 2219 -991 2219 -734 
L 2219 497 
Q 1934 159 1721 35 
Q 1509 -88 1281 -88 
Q 866 -88 539 290 
Q 213 669 213 1303 
Q 213 2031 644 2489 
Q 1075 2947 1684 2947 
Q 1863 2947 2013 2897 
Q 2163 2847 2281 2747 
Q 2463 2834 2628 2947 
L 2734 2947 
z
M 2219 694 
L 2219 2038 
Q 2219 2272 2158 2406 
Q 2097 2541 1940 2634 
Q 1784 2728 1588 2728 
Q 1238 2728 988 2431 
Q 738 2134 738 1531 
Q 738 953 992 653 
Q 1247 353 1606 353 
Q 1791 353 1934 433 
Q 2078 513 2219 694 
z
" transform="scale(0.015625)"/>
       <path id="TimesNewRomanPSMT-42" d="M 2956 2163 
Q 3397 2069 3616 1863 
Q 3919 1575 3919 1159 
Q 3919 844 3719 555 
Q 3519 266 3170 133 
Q 2822 0 2106 0 
L 106 0 
L 106 116 
L 266 116 
Q 531 116 647 284 
Q 719 394 719 750 
L 719 3488 
Q 719 3881 628 3984 
Q 506 4122 266 4122 
L 106 4122 
L 106 4238 
L 1938 4238 
Q 2450 4238 2759 4163 
Q 3228 4050 3475 3764 
Q 3722 3478 3722 3106 
Q 3722 2788 3528 2536 
Q 3334 2284 2956 2163 
z
M 1319 2331 
Q 1434 2309 1582 2298 
Q 1731 2288 1909 2288 
Q 2366 2288 2595 2386 
Q 2825 2484 2947 2687 
Q 3069 2891 3069 3131 
Q 3069 3503 2766 3765 
Q 2463 4028 1881 4028 
Q 1569 4028 1319 3959 
L 1319 2331 
z
M 1319 306 
Q 1681 222 2034 222 
Q 2600 222 2897 476 
Q 3194 731 3194 1106 
Q 3194 1353 3059 1581 
Q 2925 1809 2622 1940 
Q 2319 2072 1872 2072 
Q 1678 2072 1540 2065 
Q 1403 2059 1319 2044 
L 1319 306 
z
" transform="scale(0.015625)"/>
       <path id="TimesNewRomanPSMT-73" d="M 2050 2947 
L 2050 1972 
L 1947 1972 
Q 1828 2431 1642 2597 
Q 1456 2763 1169 2763 
Q 950 2763 815 2647 
Q 681 2531 681 2391 
Q 681 2216 781 2091 
Q 878 1963 1175 1819 
L 1631 1597 
Q 2266 1288 2266 781 
Q 2266 391 1970 151 
Q 1675 -88 1309 -88 
Q 1047 -88 709 6 
Q 606 38 541 38 
Q 469 38 428 -44 
L 325 -44 
L 325 978 
L 428 978 
Q 516 541 762 319 
Q 1009 97 1316 97 
Q 1531 97 1667 223 
Q 1803 350 1803 528 
Q 1803 744 1651 891 
Q 1500 1038 1047 1263 
Q 594 1488 453 1669 
Q 313 1847 313 2119 
Q 313 2472 555 2709 
Q 797 2947 1181 2947 
Q 1350 2947 1591 2875 
Q 1750 2828 1803 2828 
Q 1853 2828 1881 2850 
Q 1909 2872 1947 2947 
L 2050 2947 
z
" transform="scale(0.015625)"/>
      </defs>
      <use xlink:href="#TimesNewRomanPSMT-41"/>
      <use xlink:href="#TimesNewRomanPSMT-71" transform="translate(72.216797 0)"/>
      <use xlink:href="#TimesNewRomanPSMT-75" transform="translate(122.216797 0)"/>
      <use xlink:href="#TimesNewRomanPSMT-61" transform="translate(172.216797 0)"/>
      <use xlink:href="#TimesNewRomanPSMT-42" transform="translate(216.601562 0)"/>
      <use xlink:href="#TimesNewRomanPSMT-65" transform="translate(283.300781 0)"/>
      <use xlink:href="#TimesNewRomanPSMT-61" transform="translate(327.685547 0)"/>
      <use xlink:href="#TimesNewRomanPSMT-6e" transform="translate(372.070312 0)"/>
      <use xlink:href="#TimesNewRomanPSMT-73" transform="translate(422.070312 0)"/>
     </g>
    </g>
    <g id="patch_9">
     <path d="M 415.667927 192.428281 
L 435.667927 192.428281 
L 435.667927 185.428281 
L 415.667927 185.428281 
z
" style="fill: #ff7f0e"/>
    </g>
    <g id="text_19">
     <!-- Lumina Grain -->
     <g transform="translate(443.667927 192.428281) scale(0.1 -0.1)">
      <defs>
       <path id="TimesNewRomanPSMT-4c" d="M 3669 1172 
L 3772 1150 
L 3409 0 
L 128 0 
L 128 116 
L 288 116 
Q 556 116 672 291 
Q 738 391 738 753 
L 738 3488 
Q 738 3884 650 3984 
Q 528 4122 288 4122 
L 128 4122 
L 128 4238 
L 2047 4238 
L 2047 4122 
Q 1709 4125 1573 4059 
Q 1438 3994 1388 3894 
Q 1338 3794 1338 3416 
L 1338 753 
Q 1338 494 1388 397 
Q 1425 331 1503 300 
Q 1581 269 1991 269 
L 2300 269 
Q 2788 269 2984 341 
Q 3181 413 3343 595 
Q 3506 778 3669 1172 
z
" transform="scale(0.015625)"/>
       <path id="TimesNewRomanPSMT-47" d="M 3928 4334 
L 4038 2997 
L 3928 2997 
Q 3763 3497 3500 3750 
Q 3122 4116 2528 4116 
Q 1719 4116 1297 3475 
Q 944 2934 944 2188 
Q 944 1581 1178 1081 
Q 1413 581 1792 348 
Q 2172 116 2572 116 
Q 2806 116 3025 175 
Q 3244 234 3447 350 
L 3447 1575 
Q 3447 1894 3398 1992 
Q 3350 2091 3248 2142 
Q 3147 2194 2891 2194 
L 2891 2313 
L 4531 2313 
L 4531 2194 
L 4453 2194 
Q 4209 2194 4119 2031 
Q 4056 1916 4056 1575 
L 4056 278 
Q 3697 84 3347 -6 
Q 2997 -97 2569 -97 
Q 1341 -97 703 691 
Q 225 1281 225 2053 
Q 225 2613 494 3125 
Q 813 3734 1369 4063 
Q 1834 4334 2469 4334 
Q 2700 4334 2889 4296 
Q 3078 4259 3425 4131 
Q 3600 4066 3659 4066 
Q 3719 4066 3761 4120 
Q 3803 4175 3813 4334 
L 3928 4334 
z
" transform="scale(0.015625)"/>
      </defs>
      <use xlink:href="#TimesNewRomanPSMT-4c"/>
      <use xlink:href="#TimesNewRomanPSMT-75" transform="translate(61.083984 0)"/>
      <use xlink:href="#TimesNewRomanPSMT-6d" transform="translate(111.083984 0)"/>
      <use xlink:href="#TimesNewRomanPSMT-69" transform="translate(188.867188 0)"/>
      <use xlink:href="#TimesNewRomanPSMT-6e" transform="translate(216.650391 0)"/>
      <use xlink:href="#TimesNewRomanPSMT-61" transform="translate(266.650391 0)"/>
      <use xlink:href="#TimesNewRomanPSMT-20" transform="translate(311.035156 0)"/>
      <use xlink:href="#TimesNewRomanPSMT-47" transform="translate(336.035156 0)"/>
      <use xlink:href="#TimesNewRomanPSMT-72" transform="translate(408.251953 0)"/>
      <use xlink:href="#TimesNewRomanPSMT-61" transform="translate(441.552734 0)"/>
      <use xlink:href="#TimesNewRomanPSMT-69" transform="translate(485.9375 0)"/>
      <use xlink:href="#TimesNewRomanPSMT-6e" transform="translate(513.720703 0)"/>
     </g>
    </g>
   </g>
  </g>
 </g>
 <defs>
  <clipPath id="p77fa410a04">
   <rect x="10.091927" y="37.249375" width="388.8" height="277.2"/>
  </clipPath>
 </defs>
</svg>
