<?xml version="1.0" encoding="utf-8" standalone="no"?>
<!DOCTYPE svg PUBLIC "-//W3C//DTD SVG 1.1//EN"
  "http://www.w3.org/Graphics/SVG/1.1/DTD/svg11.dtd">
<svg xmlns:xlink="http://www.w3.org/1999/xlink" width="539.011677pt" height="363.785279pt" viewBox="0 0 539.011677 363.785279" xmlns="http://www.w3.org/2000/svg" version="1.1">
 <metadata>
  <rdf:RDF xmlns:dc="http://purl.org/dc/elements/1.1/" xmlns:cc="http://creativecommons.org/ns#" xmlns:rdf="http://www.w3.org/1999/02/22-rdf-syntax-ns#">
   <cc:Work>
    <dc:type rdf:resource="http://purl.org/dc/dcmitype/StillImage"/>
    <dc:date>2025-05-31T00:00:53.652687</dc:date>
    <dc:format>image/svg+xml</dc:format>
    <dc:creator>
     <cc:Agent>
      <dc:title>Matplotlib v3.10.3, https://matplotlib.org/</dc:title>
     </cc:Agent>
    </dc:creator>
   </cc:Work>
  </rdf:RDF>
 </metadata>
 <defs>
  <style type="text/css">*{stroke-linejoin: round; stroke-linecap: butt}</style>
 </defs>
 <g id="figure_1">
  <g id="patch_1">
   <path d="M 0 363.785279 
L 539.011677 363.785279 
L 539.011677 0 
L 0 0 
z
" style="fill: #ffffff"/>
  </g>
  <g id="axes_1">
   <g id="patch_2">
    <path d="M 10.091927 314.12125 
L 398.891927 314.12125 
L 398.891927 36.92125 
L 10.091927 36.92125 
z
" style="fill: #ffffff"/>
   </g>
   <g id="FillBetweenPolyCollection_1">
    <path d="M 27.764654 181.537272 
L 27.764654 277.025875 
L 29.540807 280.508349 
L 31.316961 283.290911 
L 33.093114 285.423474 
L 34.869268 286.95595 
L 36.645421 287.938254 
L 38.421575 288.420297 
L 40.197728 288.451993 
L 41.973882 288.083254 
L 43.750035 287.363995 
L 45.526189 286.344127 
L 47.302342 285.073564 
L 49.078496 283.602219 
L 50.854649 281.980005 
L 52.630803 280.256834 
L 54.406956 278.48262 
L 56.18311 276.707276 
L 57.959263 274.980714 
L 59.735417 273.352848 
L 61.51157 271.873591 
L 63.287724 270.592856 
L 65.063877 269.560553 
L 66.840031 268.808781 
L 68.616184 268.308766 
L 70.392338 268.018744 
L 72.168491 267.89695 
L 73.944645 267.901618 
L 75.720798 267.990984 
L 77.496952 268.123283 
L 79.273105 268.25675 
L 81.049259 268.34962 
L 82.825412 268.360128 
L 84.601566 268.248771 
L 86.377719 268.012882 
L 88.153873 267.679766 
L 89.930026 267.277595 
L 91.70618 266.834543 
L 93.482333 266.378784 
L 95.258487 265.93849 
L 97.03464 265.541836 
L 98.810794 265.216995 
L 100.586947 264.992139 
L 102.363101 264.89544 
L 104.139254 264.951514 
L 105.915408 265.174576 
L 107.691561 265.576951 
L 109.467715 266.170961 
L 111.243868 266.968931 
L 113.020022 267.983186 
L 114.796175 269.226047 
L 116.572329 270.70984 
L 118.348482 272.446889 
L 120.124636 274.449516 
L 121.900789 276.723999 
L 123.676943 279.196547 
L 125.453096 281.736664 
L 127.22925 284.212652 
L 129.005403 286.492814 
L 130.781557 288.445452 
L 132.55771 289.938869 
L 134.333864 290.841367 
L 136.110017 291.02125 
L 137.886171 290.346819 
L 139.662324 288.68661 
L 141.438478 285.999773 
L 143.214631 282.473209 
L 144.990785 278.329035 
L 146.766938 273.789368 
L 148.543092 269.076323 
L 150.319245 264.412017 
L 152.095399 260.018566 
L 153.871552 256.118088 
L 155.647706 252.932696 
L 157.423859 250.68451 
L 159.200013 249.573741 
L 160.976166 249.561537 
L 162.75232 250.461888 
L 164.528473 252.086628 
L 166.304627 254.247593 
L 168.08078 256.756619 
L 169.856934 259.425541 
L 171.633087 262.066195 
L 173.409241 264.490417 
L 175.185394 266.510041 
L 176.961547 267.93738 
L 178.737701 268.673263 
L 180.513854 268.810288 
L 182.290008 268.466137 
L 184.066161 267.758489 
L 185.842315 266.805026 
L 187.618468 265.723426 
L 189.394622 264.63137 
L 191.170775 263.64654 
L 192.946929 262.886615 
L 194.723082 262.469275 
L 196.499236 262.500109 
L 198.275389 262.974708 
L 200.051543 263.82995 
L 201.827696 265.002158 
L 203.60385 266.427659 
L 205.380003 268.042779 
L 207.156157 269.783842 
L 208.93231 271.587174 
L 210.708464 273.3891 
L 212.484617 275.125947 
L 214.260771 276.734274 
L 216.036924 278.175605 
L 217.813078 279.458237 
L 219.589231 280.595606 
L 221.365385 281.601151 
L 223.141538 282.488306 
L 224.917692 283.270511 
L 226.693845 283.961201 
L 228.469999 284.573814 
L 230.246152 285.121787 
L 232.022306 285.618556 
L 233.798459 286.074919 
L 235.574613 286.481479 
L 237.350766 286.819524 
L 239.12692 287.070288 
L 240.903073 287.215005 
L 242.679227 287.234913 
L 244.45538 287.111245 
L 246.231534 286.825237 
L 248.007687 286.358124 
L 249.783841 285.691142 
L 251.559994 284.805851 
L 253.336148 283.706017 
L 255.112301 282.431482 
L 256.888455 281.025393 
L 258.664608 279.530896 
L 260.440762 277.991139 
L 262.216915 276.449269 
L 263.993069 274.948431 
L 265.769222 273.531774 
L 267.545376 272.242444 
L 269.321529 271.123588 
L 271.097683 270.212352 
L 272.873836 269.507074 
L 274.64999 268.990653 
L 276.426143 268.645947 
L 278.202297 268.455815 
L 279.97845 268.403113 
L 281.754604 268.470701 
L 283.530757 268.641438 
L 285.306911 268.898181 
L 287.083064 269.223788 
L 288.859218 269.601233 
L 290.635371 270.018915 
L 292.411525 270.472895 
L 294.187678 270.959811 
L 295.963832 271.476302 
L 297.739985 272.019008 
L 299.516139 272.584567 
L 301.292292 273.169618 
L 303.068446 273.770801 
L 304.844599 274.384755 
L 306.620753 275.008118 
L 308.396906 275.638179 
L 310.17306 276.275794 
L 311.949213 276.923038 
L 313.725367 277.581989 
L 315.50152 278.254722 
L 317.277674 278.943316 
L 319.053827 279.649846 
L 320.829981 280.37639 
L 322.606134 281.125024 
L 324.382288 281.897825 
L 326.158441 282.696428 
L 327.934595 283.507264 
L 329.710748 284.298076 
L 331.486902 285.03546 
L 333.263055 285.68601 
L 335.039209 286.216323 
L 336.815362 286.592992 
L 338.591516 286.782614 
L 340.367669 286.751784 
L 342.143823 286.467097 
L 343.919976 285.895148 
L 345.696129 285.013005 
L 347.472283 283.846804 
L 349.248436 282.437037 
L 351.02459 280.824201 
L 352.800743 279.048791 
L 354.576897 277.151302 
L 356.35305 275.17223 
L 358.129204 273.15207 
L 359.905357 271.131317 
L 361.681511 269.150467 
L 363.457664 267.250016 
L 365.233818 265.470458 
L 367.009971 263.85229 
L 368.786125 262.436007 
L 370.562278 261.262103 
L 372.338432 260.371075 
L 374.114585 259.803418 
L 375.890739 259.599627 
L 377.666892 259.800199 
L 379.443046 260.445627 
L 381.219199 261.576408 
L 381.219199 190.618202 
L 381.219199 190.618202 
L 379.443046 190.481321 
L 377.666892 190.240389 
L 375.890739 189.895654 
L 374.114585 189.447362 
L 372.338432 188.895759 
L 370.562278 188.241094 
L 368.786125 187.483613 
L 367.009971 186.623562 
L 365.233818 185.661189 
L 363.457664 184.59674 
L 361.681511 183.430462 
L 359.905357 182.162603 
L 358.129204 180.793409 
L 356.35305 179.323126 
L 354.576897 177.752003 
L 352.800743 176.080285 
L 351.02459 174.308219 
L 349.248436 172.436053 
L 347.472283 170.464033 
L 345.696129 168.392407 
L 343.919976 166.221422 
L 342.143823 163.965729 
L 340.367669 161.68919 
L 338.591516 159.466173 
L 336.815362 157.371043 
L 335.039209 155.478169 
L 333.263055 153.861917 
L 331.486902 152.596652 
L 329.710748 151.756743 
L 327.934595 151.416556 
L 326.158441 151.650458 
L 324.382288 152.526906 
L 322.606134 154.018121 
L 320.829981 156.01803 
L 319.053827 158.418287 
L 317.277674 161.110544 
L 315.50152 163.986456 
L 313.725367 166.937675 
L 311.949213 169.855855 
L 310.17306 172.632649 
L 308.396906 175.159711 
L 306.620753 177.328725 
L 304.844599 179.066917 
L 303.068446 180.405515 
L 301.292292 181.394665 
L 299.516139 182.084514 
L 297.739985 182.52521 
L 295.963832 182.766899 
L 294.187678 182.85973 
L 292.411525 182.853849 
L 290.635371 182.799403 
L 288.859218 182.746539 
L 287.083064 182.742154 
L 285.306911 182.790099 
L 283.530757 182.863741 
L 281.754604 182.935799 
L 279.97845 182.978993 
L 278.202297 182.966045 
L 276.426143 182.869674 
L 274.64999 182.662601 
L 272.873836 182.317546 
L 271.097683 181.807229 
L 269.321529 181.10441 
L 267.545376 180.196563 
L 265.769222 179.108161 
L 263.993069 177.869393 
L 262.216915 176.51045 
L 260.440762 175.061522 
L 258.664608 173.5528 
L 256.888455 172.014474 
L 255.112301 170.476735 
L 253.336148 168.969774 
L 251.559994 167.52378 
L 249.783841 166.168207 
L 248.007687 164.924461 
L 246.231534 163.808995 
L 244.45538 162.838189 
L 242.679227 162.028423 
L 240.903073 161.396077 
L 239.12692 160.957532 
L 237.350766 160.729168 
L 235.574613 160.727365 
L 233.798459 160.968504 
L 232.022306 161.468886 
L 230.246152 162.23031 
L 228.469999 163.223156 
L 226.693845 164.413692 
L 224.917692 165.768188 
L 223.141538 167.252912 
L 221.365385 168.834135 
L 219.589231 170.478124 
L 217.813078 172.151151 
L 216.036924 173.819482 
L 214.260771 175.449389 
L 212.484617 177.010015 
L 210.708464 178.496663 
L 208.93231 179.918599 
L 207.156157 181.285218 
L 205.380003 182.605917 
L 203.60385 183.890092 
L 201.827696 185.14714 
L 200.051543 186.386457 
L 198.275389 187.617438 
L 196.499236 188.849482 
L 194.723082 190.091648 
L 192.946929 191.317383 
L 191.170775 192.433404 
L 189.394622 193.339095 
L 187.618468 193.93384 
L 185.842315 194.117022 
L 184.066161 193.788024 
L 182.290008 192.846229 
L 180.513854 191.191022 
L 178.737701 188.721785 
L 176.961547 185.337902 
L 175.185394 180.967345 
L 173.409241 175.756655 
L 171.633087 169.953269 
L 169.856934 163.805163 
L 168.08078 157.560313 
L 166.304627 151.466698 
L 164.528473 145.772293 
L 162.75232 140.725075 
L 160.976166 136.573022 
L 159.200013 133.564111 
L 157.423859 131.943902 
L 155.647706 131.792894 
L 153.871552 132.923428 
L 152.095399 135.123279 
L 150.319245 138.180222 
L 148.543092 141.882031 
L 146.766938 146.01648 
L 144.990785 150.371345 
L 143.214631 154.734399 
L 141.438478 158.893417 
L 139.662324 162.636174 
L 137.886171 165.77929 
L 136.110017 168.325948 
L 134.333864 170.353562 
L 132.55771 171.939732 
L 130.781557 173.162061 
L 129.005403 174.098151 
L 127.22925 174.825604 
L 125.453096 175.422021 
L 123.676943 175.965005 
L 121.900789 176.532158 
L 120.124636 177.200213 
L 118.348482 178.004894 
L 116.572329 178.924016 
L 114.796175 179.931025 
L 113.020022 180.999363 
L 111.243868 182.102475 
L 109.467715 183.213803 
L 107.691561 184.306792 
L 105.915408 185.354885 
L 104.139254 186.331526 
L 102.363101 187.210159 
L 100.586947 187.964341 
L 98.810794 188.568252 
L 97.03464 188.996288 
L 95.258487 189.222843 
L 93.482333 189.222312 
L 91.70618 188.969089 
L 89.930026 188.43757 
L 88.153873 187.602148 
L 86.377719 186.437219 
L 84.601566 184.917176 
L 82.825412 183.017831 
L 81.049259 180.763747 
L 79.273105 178.239413 
L 77.496952 175.532998 
L 75.720798 172.732671 
L 73.944645 169.926601 
L 72.168491 167.202956 
L 70.392338 164.649906 
L 68.616184 162.355618 
L 66.840031 160.408263 
L 65.063877 158.896009 
L 63.287724 157.888314 
L 61.51157 157.366976 
L 59.735417 157.288139 
L 57.959263 157.607942 
L 56.18311 158.282528 
L 54.406956 159.268037 
L 52.630803 160.52061 
L 50.854649 161.996389 
L 49.078496 163.651513 
L 47.302342 165.442123 
L 45.526189 167.324362 
L 43.750035 169.254369 
L 41.973882 171.188286 
L 40.197728 173.082253 
L 38.421575 174.892411 
L 36.645421 176.574902 
L 34.869268 178.085866 
L 33.093114 179.381444 
L 31.316961 180.417777 
L 29.540807 181.151006 
L 27.764654 181.537272 
z
" clip-path="url(#pe43754f3f0)" style="fill: #1f77b4"/>
   </g>
   <g id="FillBetweenPolyCollection_2">
    <path d="M 27.764654 74.016625 
L 27.764654 181.537272 
L 29.540807 181.151006 
L 31.316961 180.417777 
L 33.093114 179.381444 
L 34.869268 178.085866 
L 36.645421 176.574902 
L 38.421575 174.892411 
L 40.197728 173.082253 
L 41.973882 171.188286 
L 43.750035 169.254369 
L 45.526189 167.324362 
L 47.302342 165.442123 
L 49.078496 163.651513 
L 50.854649 161.996389 
L 52.630803 160.52061 
L 54.406956 159.268037 
L 56.18311 158.282528 
L 57.959263 157.607942 
L 59.735417 157.288139 
L 61.51157 157.366976 
L 63.287724 157.888314 
L 65.063877 158.896009 
L 66.840031 160.408263 
L 68.616184 162.355618 
L 70.392338 164.649906 
L 72.168491 167.202956 
L 73.944645 169.926601 
L 75.720798 172.732671 
L 77.496952 175.532998 
L 79.273105 178.239413 
L 81.049259 180.763747 
L 82.825412 183.017831 
L 84.601566 184.917176 
L 86.377719 186.437219 
L 88.153873 187.602148 
L 89.930026 188.43757 
L 91.70618 188.969089 
L 93.482333 189.222312 
L 95.258487 189.222843 
L 97.03464 188.996288 
L 98.810794 188.568252 
L 100.586947 187.964341 
L 102.363101 187.210159 
L 104.139254 186.331526 
L 105.915408 185.354885 
L 107.691561 184.306792 
L 109.467715 183.213803 
L 111.243868 182.102475 
L 113.020022 180.999363 
L 114.796175 179.931025 
L 116.572329 178.924016 
L 118.348482 178.004894 
L 120.124636 177.200213 
L 121.900789 176.532158 
L 123.676943 175.965005 
L 125.453096 175.422021 
L 127.22925 174.825604 
L 129.005403 174.098151 
L 130.781557 173.162061 
L 132.55771 171.939732 
L 134.333864 170.353562 
L 136.110017 168.325948 
L 137.886171 165.77929 
L 139.662324 162.636174 
L 141.438478 158.893417 
L 143.214631 154.734399 
L 144.990785 150.371345 
L 146.766938 146.01648 
L 148.543092 141.882031 
L 150.319245 138.180222 
L 152.095399 135.123279 
L 153.871552 132.923428 
L 155.647706 131.792894 
L 157.423859 131.943902 
L 159.200013 133.564111 
L 160.976166 136.573022 
L 162.75232 140.725075 
L 164.528473 145.772293 
L 166.304627 151.466698 
L 168.08078 157.560313 
L 169.856934 163.805163 
L 171.633087 169.953269 
L 173.409241 175.756655 
L 175.185394 180.967345 
L 176.961547 185.337902 
L 178.737701 188.721785 
L 180.513854 191.191022 
L 182.290008 192.846229 
L 184.066161 193.788024 
L 185.842315 194.117022 
L 187.618468 193.93384 
L 189.394622 193.339095 
L 191.170775 192.433404 
L 192.946929 191.317383 
L 194.723082 190.091648 
L 196.499236 188.849482 
L 198.275389 187.617438 
L 200.051543 186.386457 
L 201.827696 185.14714 
L 203.60385 183.890092 
L 205.380003 182.605917 
L 207.156157 181.285218 
L 208.93231 179.918599 
L 210.708464 178.496663 
L 212.484617 177.010015 
L 214.260771 175.449389 
L 216.036924 173.819482 
L 217.813078 172.151151 
L 219.589231 170.478124 
L 221.365385 168.834135 
L 223.141538 167.252912 
L 224.917692 165.768188 
L 226.693845 164.413692 
L 228.469999 163.223156 
L 230.246152 162.23031 
L 232.022306 161.468886 
L 233.798459 160.968504 
L 235.574613 160.727365 
L 237.350766 160.729168 
L 239.12692 160.957532 
L 240.903073 161.396077 
L 242.679227 162.028423 
L 244.45538 162.838189 
L 246.231534 163.808995 
L 248.007687 164.924461 
L 249.783841 166.168207 
L 251.559994 167.52378 
L 253.336148 168.969774 
L 255.112301 170.476735 
L 256.888455 172.014474 
L 258.664608 173.5528 
L 260.440762 175.061522 
L 262.216915 176.51045 
L 263.993069 177.869393 
L 265.769222 179.108161 
L 267.545376 180.196563 
L 269.321529 181.10441 
L 271.097683 181.807229 
L 272.873836 182.317546 
L 274.64999 182.662601 
L 276.426143 182.869674 
L 278.202297 182.966045 
L 279.97845 182.978993 
L 281.754604 182.935799 
L 283.530757 182.863741 
L 285.306911 182.790099 
L 287.083064 182.742154 
L 288.859218 182.746539 
L 290.635371 182.799403 
L 292.411525 182.853849 
L 294.187678 182.85973 
L 295.963832 182.766899 
L 297.739985 182.52521 
L 299.516139 182.084514 
L 301.292292 181.394665 
L 303.068446 180.405515 
L 304.844599 179.066917 
L 306.620753 177.328725 
L 308.396906 175.159711 
L 310.17306 172.632649 
L 311.949213 169.855855 
L 313.725367 166.937675 
L 315.50152 163.986456 
L 317.277674 161.110544 
L 319.053827 158.418287 
L 320.829981 156.01803 
L 322.606134 154.018121 
L 324.382288 152.526906 
L 326.158441 151.650458 
L 327.934595 151.416556 
L 329.710748 151.756743 
L 331.486902 152.596652 
L 333.263055 153.861917 
L 335.039209 155.478169 
L 336.815362 157.371043 
L 338.591516 159.466173 
L 340.367669 161.68919 
L 342.143823 163.965729 
L 343.919976 166.221422 
L 345.696129 168.392407 
L 347.472283 170.464033 
L 349.248436 172.436053 
L 351.02459 174.308219 
L 352.800743 176.080285 
L 354.576897 177.752003 
L 356.35305 179.323126 
L 358.129204 180.793409 
L 359.905357 182.162603 
L 361.681511 183.430462 
L 363.457664 184.59674 
L 365.233818 185.661189 
L 367.009971 186.623562 
L 368.786125 187.483613 
L 370.562278 188.241094 
L 372.338432 188.895759 
L 374.114585 189.447362 
L 375.890739 189.895654 
L 377.666892 190.240389 
L 379.443046 190.481321 
L 381.219199 190.618202 
L 381.219199 89.466092 
L 381.219199 89.466092 
L 379.443046 90.596873 
L 377.666892 91.242301 
L 375.890739 91.442873 
L 374.114585 91.239082 
L 372.338432 90.671425 
L 370.562278 89.780397 
L 368.786125 88.606493 
L 367.009971 87.19021 
L 365.233818 85.572042 
L 363.457664 83.792484 
L 361.681511 81.892033 
L 359.905357 79.911183 
L 358.129204 77.89043 
L 356.35305 75.87027 
L 354.576897 73.891198 
L 352.800743 71.993709 
L 351.02459 70.218299 
L 349.248436 68.605463 
L 347.472283 67.195696 
L 345.696129 66.029495 
L 343.919976 65.147352 
L 342.143823 64.575403 
L 340.367669 64.290716 
L 338.591516 64.259886 
L 336.815362 64.449508 
L 335.039209 64.826177 
L 333.263055 65.35649 
L 331.486902 66.00704 
L 329.710748 66.744424 
L 327.934595 67.535236 
L 326.158441 68.346072 
L 324.382288 69.144675 
L 322.606134 69.917476 
L 320.829981 70.66611 
L 319.053827 71.392654 
L 317.277674 72.099184 
L 315.50152 72.787778 
L 313.725367 73.460511 
L 311.949213 74.119462 
L 310.17306 74.766706 
L 308.396906 75.404321 
L 306.620753 76.034382 
L 304.844599 76.657745 
L 303.068446 77.271699 
L 301.292292 77.872882 
L 299.516139 78.457933 
L 297.739985 79.023492 
L 295.963832 79.566198 
L 294.187678 80.082689 
L 292.411525 80.569605 
L 290.635371 81.023585 
L 288.859218 81.441267 
L 287.083064 81.818712 
L 285.306911 82.144319 
L 283.530757 82.401062 
L 281.754604 82.571799 
L 279.97845 82.639387 
L 278.202297 82.586685 
L 276.426143 82.396553 
L 274.64999 82.051847 
L 272.873836 81.535426 
L 271.097683 80.830148 
L 269.321529 79.918912 
L 267.545376 78.800056 
L 265.769222 77.510726 
L 263.993069 76.094069 
L 262.216915 74.593231 
L 260.440762 73.051361 
L 258.664608 71.511604 
L 256.888455 70.017107 
L 255.112301 68.611018 
L 253.336148 67.336483 
L 251.559994 66.236649 
L 249.783841 65.351358 
L 248.007687 64.684376 
L 246.231534 64.217263 
L 244.45538 63.931255 
L 242.679227 63.807587 
L 240.903073 63.827495 
L 239.12692 63.972212 
L 237.350766 64.222976 
L 235.574613 64.561021 
L 233.798459 64.967581 
L 232.022306 65.423944 
L 230.246152 65.920713 
L 228.469999 66.468686 
L 226.693845 67.081299 
L 224.917692 67.771989 
L 223.141538 68.554194 
L 221.365385 69.441349 
L 219.589231 70.446894 
L 217.813078 71.584263 
L 216.036924 72.866895 
L 214.260771 74.308226 
L 212.484617 75.916553 
L 210.708464 77.6534 
L 208.93231 79.455326 
L 207.156157 81.258658 
L 205.380003 82.999721 
L 203.60385 84.614841 
L 201.827696 86.040342 
L 200.051543 87.21255 
L 198.275389 88.067792 
L 196.499236 88.542391 
L 194.723082 88.573225 
L 192.946929 88.155885 
L 191.170775 87.39596 
L 189.394622 86.41113 
L 187.618468 85.319074 
L 185.842315 84.237474 
L 184.066161 83.284011 
L 182.290008 82.576363 
L 180.513854 82.232212 
L 178.737701 82.369237 
L 176.961547 83.10512 
L 175.185394 84.532459 
L 173.409241 86.552083 
L 171.633087 88.976305 
L 169.856934 91.616959 
L 168.08078 94.285881 
L 166.304627 96.794907 
L 164.528473 98.955872 
L 162.75232 100.580612 
L 160.976166 101.480963 
L 159.200013 101.468759 
L 157.423859 100.35799 
L 155.647706 98.109804 
L 153.871552 94.924412 
L 152.095399 91.023934 
L 150.319245 86.630483 
L 148.543092 81.966177 
L 146.766938 77.253132 
L 144.990785 72.713465 
L 143.214631 68.569291 
L 141.438478 65.042727 
L 139.662324 62.35589 
L 137.886171 60.695681 
L 136.110017 60.02125 
L 134.333864 60.201133 
L 132.55771 61.103631 
L 130.781557 62.597048 
L 129.005403 64.549686 
L 127.22925 66.829848 
L 125.453096 69.305836 
L 123.676943 71.845953 
L 121.900789 74.318501 
L 120.124636 76.592984 
L 118.348482 78.595611 
L 116.572329 80.33266 
L 114.796175 81.816453 
L 113.020022 83.059314 
L 111.243868 84.073569 
L 109.467715 84.871539 
L 107.691561 85.465549 
L 105.915408 85.867924 
L 104.139254 86.090986 
L 102.363101 86.14706 
L 100.586947 86.050361 
L 98.810794 85.825505 
L 97.03464 85.500664 
L 95.258487 85.10401 
L 93.482333 84.663716 
L 91.70618 84.207957 
L 89.930026 83.764905 
L 88.153873 83.362734 
L 86.377719 83.029618 
L 84.601566 82.793729 
L 82.825412 82.682372 
L 81.049259 82.69288 
L 79.273105 82.78575 
L 77.496952 82.919217 
L 75.720798 83.051516 
L 73.944645 83.140882 
L 72.168491 83.14555 
L 70.392338 83.023756 
L 68.616184 82.733734 
L 66.840031 82.233719 
L 65.063877 81.481947 
L 63.287724 80.449644 
L 61.51157 79.168909 
L 59.735417 77.689652 
L 57.959263 76.061786 
L 56.18311 74.335224 
L 54.406956 72.55988 
L 52.630803 70.785666 
L 50.854649 69.062495 
L 49.078496 67.440281 
L 47.302342 65.968936 
L 45.526189 64.698373 
L 43.750035 63.678505 
L 41.973882 62.959246 
L 40.197728 62.590507 
L 38.421575 62.622203 
L 36.645421 63.104246 
L 34.869268 64.08655 
L 33.093114 65.619026 
L 31.316961 67.751589 
L 29.540807 70.534151 
L 27.764654 74.016625 
z
" clip-path="url(#pe43754f3f0)" style="fill: #aec7e8"/>
   </g>
   <g id="matplotlib.axis_1">
    <g id="xtick_1">
     <g id="line2d_1">
      <defs>
       <path id="m1c7a38e886" d="M 0 0 
L 0 3.5 
" style="stroke: #000000; stroke-width: 0.8"/>
      </defs>
      <g>
       <use xlink:href="#m1c7a38e886" x="27.764654" y="314.12125" style="stroke: #000000; stroke-width: 0.8"/>
      </g>
     </g>
     <g id="text_1">
      <!-- 1992 -->
      <g transform="translate(12.109973 340.173358) rotate(-45) scale(0.1 -0.1)">
       <defs>
        <path id="TimesNewRomanPSMT-31" d="M 750 3822 
L 1781 4325 
L 1884 4325 
L 1884 747 
Q 1884 391 1914 303 
Q 1944 216 2037 169 
Q 2131 122 2419 116 
L 2419 0 
L 825 0 
L 825 116 
Q 1125 122 1212 167 
Q 1300 213 1334 289 
Q 1369 366 1369 747 
L 1369 3034 
Q 1369 3497 1338 3628 
Q 1316 3728 1258 3775 
Q 1200 3822 1119 3822 
Q 1003 3822 797 3725 
L 750 3822 
z
" transform="scale(0.015625)"/>
        <path id="TimesNewRomanPSMT-39" d="M 338 -88 
L 338 28 
Q 744 34 1094 217 
Q 1444 400 1770 856 
Q 2097 1313 2225 1859 
Q 1734 1544 1338 1544 
Q 891 1544 572 1889 
Q 253 2234 253 2806 
Q 253 3363 572 3797 
Q 956 4325 1575 4325 
Q 2097 4325 2469 3894 
Q 2925 3359 2925 2575 
Q 2925 1869 2578 1258 
Q 2231 647 1613 244 
Q 1109 -88 516 -88 
L 338 -88 
z
M 2275 2091 
Q 2331 2497 2331 2741 
Q 2331 3044 2228 3395 
Q 2125 3747 1936 3934 
Q 1747 4122 1506 4122 
Q 1228 4122 1018 3872 
Q 809 3622 809 3128 
Q 809 2469 1088 2097 
Q 1291 1828 1588 1828 
Q 1731 1828 1928 1897 
Q 2125 1966 2275 2091 
z
" transform="scale(0.015625)"/>
        <path id="TimesNewRomanPSMT-32" d="M 2934 816 
L 2638 0 
L 138 0 
L 138 116 
Q 1241 1122 1691 1759 
Q 2141 2397 2141 2925 
Q 2141 3328 1894 3587 
Q 1647 3847 1303 3847 
Q 991 3847 742 3664 
Q 494 3481 375 3128 
L 259 3128 
Q 338 3706 661 4015 
Q 984 4325 1469 4325 
Q 1984 4325 2329 3994 
Q 2675 3663 2675 3213 
Q 2675 2891 2525 2569 
Q 2294 2063 1775 1497 
Q 997 647 803 472 
L 1909 472 
Q 2247 472 2383 497 
Q 2519 522 2628 598 
Q 2738 675 2819 816 
L 2934 816 
z
" transform="scale(0.015625)"/>
       </defs>
       <use xlink:href="#TimesNewRomanPSMT-31"/>
       <use xlink:href="#TimesNewRomanPSMT-39" transform="translate(50 0)"/>
       <use xlink:href="#TimesNewRomanPSMT-39" transform="translate(100 0)"/>
       <use xlink:href="#TimesNewRomanPSMT-32" transform="translate(150 0)"/>
      </g>
     </g>
    </g>
    <g id="xtick_2">
     <g id="line2d_2">
      <g>
       <use xlink:href="#m1c7a38e886" x="64.970396" y="314.12125" style="stroke: #000000; stroke-width: 0.8"/>
      </g>
     </g>
     <g id="text_2">
      <!-- 1994 -->
      <g transform="translate(49.315714 340.173358) rotate(-45) scale(0.1 -0.1)">
       <defs>
        <path id="TimesNewRomanPSMT-34" d="M 2978 1563 
L 2978 1119 
L 2409 1119 
L 2409 0 
L 1894 0 
L 1894 1119 
L 100 1119 
L 100 1519 
L 2066 4325 
L 2409 4325 
L 2409 1563 
L 2978 1563 
z
M 1894 1563 
L 1894 3666 
L 406 1563 
L 1894 1563 
z
" transform="scale(0.015625)"/>
       </defs>
       <use xlink:href="#TimesNewRomanPSMT-31"/>
       <use xlink:href="#TimesNewRomanPSMT-39" transform="translate(50 0)"/>
       <use xlink:href="#TimesNewRomanPSMT-39" transform="translate(100 0)"/>
       <use xlink:href="#TimesNewRomanPSMT-34" transform="translate(150 0)"/>
      </g>
     </g>
    </g>
    <g id="xtick_3">
     <g id="line2d_3">
      <g>
       <use xlink:href="#m1c7a38e886" x="102.176137" y="314.12125" style="stroke: #000000; stroke-width: 0.8"/>
      </g>
     </g>
     <g id="text_3">
      <!-- 1996 -->
      <g transform="translate(86.521456 340.173358) rotate(-45) scale(0.1 -0.1)">
       <defs>
        <path id="TimesNewRomanPSMT-36" d="M 2869 4325 
L 2869 4209 
Q 2456 4169 2195 4045 
Q 1934 3922 1679 3669 
Q 1425 3416 1258 3105 
Q 1091 2794 978 2366 
Q 1428 2675 1881 2675 
Q 2316 2675 2634 2325 
Q 2953 1975 2953 1425 
Q 2953 894 2631 456 
Q 2244 -75 1606 -75 
Q 1172 -75 869 213 
Q 275 772 275 1663 
Q 275 2231 503 2743 
Q 731 3256 1154 3653 
Q 1578 4050 1965 4187 
Q 2353 4325 2688 4325 
L 2869 4325 
z
M 925 2138 
Q 869 1716 869 1456 
Q 869 1156 980 804 
Q 1091 453 1309 247 
Q 1469 100 1697 100 
Q 1969 100 2183 356 
Q 2397 613 2397 1088 
Q 2397 1622 2184 2012 
Q 1972 2403 1581 2403 
Q 1463 2403 1327 2353 
Q 1191 2303 925 2138 
z
" transform="scale(0.015625)"/>
       </defs>
       <use xlink:href="#TimesNewRomanPSMT-31"/>
       <use xlink:href="#TimesNewRomanPSMT-39" transform="translate(50 0)"/>
       <use xlink:href="#TimesNewRomanPSMT-39" transform="translate(100 0)"/>
       <use xlink:href="#TimesNewRomanPSMT-36" transform="translate(150 0)"/>
      </g>
     </g>
    </g>
    <g id="xtick_4">
     <g id="line2d_4">
      <g>
       <use xlink:href="#m1c7a38e886" x="139.381879" y="314.12125" style="stroke: #000000; stroke-width: 0.8"/>
      </g>
     </g>
     <g id="text_4">
      <!-- 1998 -->
      <g transform="translate(123.727198 340.173358) rotate(-45) scale(0.1 -0.1)">
       <defs>
        <path id="TimesNewRomanPSMT-38" d="M 1228 2134 
Q 725 2547 579 2797 
Q 434 3047 434 3316 
Q 434 3728 753 4026 
Q 1072 4325 1600 4325 
Q 2113 4325 2425 4047 
Q 2738 3769 2738 3413 
Q 2738 3175 2569 2928 
Q 2400 2681 1866 2347 
Q 2416 1922 2594 1678 
Q 2831 1359 2831 1006 
Q 2831 559 2490 242 
Q 2150 -75 1597 -75 
Q 994 -75 656 303 
Q 388 606 388 966 
Q 388 1247 577 1523 
Q 766 1800 1228 2134 
z
M 1719 2469 
Q 2094 2806 2194 3001 
Q 2294 3197 2294 3444 
Q 2294 3772 2109 3958 
Q 1925 4144 1606 4144 
Q 1288 4144 1088 3959 
Q 888 3775 888 3528 
Q 888 3366 970 3203 
Q 1053 3041 1206 2894 
L 1719 2469 
z
M 1375 2016 
Q 1116 1797 991 1539 
Q 866 1281 866 981 
Q 866 578 1086 336 
Q 1306 94 1647 94 
Q 1984 94 2187 284 
Q 2391 475 2391 747 
Q 2391 972 2272 1150 
Q 2050 1481 1375 2016 
z
" transform="scale(0.015625)"/>
       </defs>
       <use xlink:href="#TimesNewRomanPSMT-31"/>
       <use xlink:href="#TimesNewRomanPSMT-39" transform="translate(50 0)"/>
       <use xlink:href="#TimesNewRomanPSMT-39" transform="translate(100 0)"/>
       <use xlink:href="#TimesNewRomanPSMT-38" transform="translate(150 0)"/>
      </g>
     </g>
    </g>
    <g id="xtick_5">
     <g id="line2d_5">
      <g>
       <use xlink:href="#m1c7a38e886" x="176.58762" y="314.12125" style="stroke: #000000; stroke-width: 0.8"/>
      </g>
     </g>
     <g id="text_5">
      <!-- 2000 -->
      <g transform="translate(160.932939 340.173358) rotate(-45) scale(0.1 -0.1)">
       <defs>
        <path id="TimesNewRomanPSMT-30" d="M 231 2094 
Q 231 2819 450 3342 
Q 669 3866 1031 4122 
Q 1313 4325 1613 4325 
Q 2100 4325 2488 3828 
Q 2972 3213 2972 2159 
Q 2972 1422 2759 906 
Q 2547 391 2217 158 
Q 1888 -75 1581 -75 
Q 975 -75 572 641 
Q 231 1244 231 2094 
z
M 844 2016 
Q 844 1141 1059 588 
Q 1238 122 1591 122 
Q 1759 122 1940 273 
Q 2122 425 2216 781 
Q 2359 1319 2359 2297 
Q 2359 3022 2209 3506 
Q 2097 3866 1919 4016 
Q 1791 4119 1609 4119 
Q 1397 4119 1231 3928 
Q 1006 3669 925 3112 
Q 844 2556 844 2016 
z
" transform="scale(0.015625)"/>
       </defs>
       <use xlink:href="#TimesNewRomanPSMT-32"/>
       <use xlink:href="#TimesNewRomanPSMT-30" transform="translate(50 0)"/>
       <use xlink:href="#TimesNewRomanPSMT-30" transform="translate(100 0)"/>
       <use xlink:href="#TimesNewRomanPSMT-30" transform="translate(150 0)"/>
      </g>
     </g>
    </g>
    <g id="xtick_6">
     <g id="line2d_6">
      <g>
       <use xlink:href="#m1c7a38e886" x="213.793362" y="314.12125" style="stroke: #000000; stroke-width: 0.8"/>
      </g>
     </g>
     <g id="text_6">
      <!-- 2002 -->
      <g transform="translate(198.138681 340.173358) rotate(-45) scale(0.1 -0.1)">
       <use xlink:href="#TimesNewRomanPSMT-32"/>
       <use xlink:href="#TimesNewRomanPSMT-30" transform="translate(50 0)"/>
       <use xlink:href="#TimesNewRomanPSMT-30" transform="translate(100 0)"/>
       <use xlink:href="#TimesNewRomanPSMT-32" transform="translate(150 0)"/>
      </g>
     </g>
    </g>
    <g id="xtick_7">
     <g id="line2d_7">
      <g>
       <use xlink:href="#m1c7a38e886" x="250.999104" y="314.12125" style="stroke: #000000; stroke-width: 0.8"/>
      </g>
     </g>
     <g id="text_7">
      <!-- 2004 -->
      <g transform="translate(235.344422 340.173358) rotate(-45) scale(0.1 -0.1)">
       <use xlink:href="#TimesNewRomanPSMT-32"/>
       <use xlink:href="#TimesNewRomanPSMT-30" transform="translate(50 0)"/>
       <use xlink:href="#TimesNewRomanPSMT-30" transform="translate(100 0)"/>
       <use xlink:href="#TimesNewRomanPSMT-34" transform="translate(150 0)"/>
      </g>
     </g>
    </g>
    <g id="xtick_8">
     <g id="line2d_8">
      <g>
       <use xlink:href="#m1c7a38e886" x="288.204845" y="314.12125" style="stroke: #000000; stroke-width: 0.8"/>
      </g>
     </g>
     <g id="text_8">
      <!-- 2006 -->
      <g transform="translate(272.550164 340.173358) rotate(-45) scale(0.1 -0.1)">
       <use xlink:href="#TimesNewRomanPSMT-32"/>
       <use xlink:href="#TimesNewRomanPSMT-30" transform="translate(50 0)"/>
       <use xlink:href="#TimesNewRomanPSMT-30" transform="translate(100 0)"/>
       <use xlink:href="#TimesNewRomanPSMT-36" transform="translate(150 0)"/>
      </g>
     </g>
    </g>
    <g id="xtick_9">
     <g id="line2d_9">
      <g>
       <use xlink:href="#m1c7a38e886" x="325.410587" y="314.12125" style="stroke: #000000; stroke-width: 0.8"/>
      </g>
     </g>
     <g id="text_9">
      <!-- 2008 -->
      <g transform="translate(309.755906 340.173358) rotate(-45) scale(0.1 -0.1)">
       <use xlink:href="#TimesNewRomanPSMT-32"/>
       <use xlink:href="#TimesNewRomanPSMT-30" transform="translate(50 0)"/>
       <use xlink:href="#TimesNewRomanPSMT-30" transform="translate(100 0)"/>
       <use xlink:href="#TimesNewRomanPSMT-38" transform="translate(150 0)"/>
      </g>
     </g>
    </g>
    <g id="xtick_10">
     <g id="line2d_10">
      <g>
       <use xlink:href="#m1c7a38e886" x="362.616329" y="314.12125" style="stroke: #000000; stroke-width: 0.8"/>
      </g>
     </g>
     <g id="text_10">
      <!-- 2010 -->
      <g transform="translate(346.961647 340.173358) rotate(-45) scale(0.1 -0.1)">
       <use xlink:href="#TimesNewRomanPSMT-32"/>
       <use xlink:href="#TimesNewRomanPSMT-30" transform="translate(50 0)"/>
       <use xlink:href="#TimesNewRomanPSMT-31" transform="translate(100 0)"/>
       <use xlink:href="#TimesNewRomanPSMT-30" transform="translate(150 0)"/>
      </g>
     </g>
    </g>
    <g id="text_11">
     <!-- Year -->
     <g transform="translate(193.434114 354.018404) scale(0.12 -0.12)">
      <defs>
       <path id="TimesNewRomanPSMT-59" d="M 3050 4238 
L 4528 4238 
L 4528 4122 
L 4447 4122 
Q 4366 4122 4209 4050 
Q 4053 3978 3925 3843 
Q 3797 3709 3609 3406 
L 2588 1797 
L 2588 734 
Q 2588 344 2675 247 
Q 2794 116 3050 116 
L 3188 116 
L 3188 0 
L 1388 0 
L 1388 116 
L 1538 116 
Q 1806 116 1919 278 
Q 1988 378 1988 734 
L 1988 1738 
L 825 3513 
Q 619 3825 545 3903 
Q 472 3981 241 4091 
Q 178 4122 59 4122 
L 59 4238 
L 1872 4238 
L 1872 4122 
L 1778 4122 
Q 1631 4122 1507 4053 
Q 1384 3984 1384 3847 
Q 1384 3734 1575 3441 
L 2459 2075 
L 3291 3381 
Q 3478 3675 3478 3819 
Q 3478 3906 3433 3975 
Q 3388 4044 3303 4083 
Q 3219 4122 3050 4122 
L 3050 4238 
z
" transform="scale(0.015625)"/>
       <path id="TimesNewRomanPSMT-65" d="M 681 1784 
Q 678 1147 991 784 
Q 1303 422 1725 422 
Q 2006 422 2214 576 
Q 2422 731 2563 1106 
L 2659 1044 
Q 2594 616 2278 264 
Q 1963 -88 1488 -88 
Q 972 -88 605 314 
Q 238 716 238 1394 
Q 238 2128 614 2539 
Q 991 2950 1559 2950 
Q 2041 2950 2350 2633 
Q 2659 2316 2659 1784 
L 681 1784 
z
M 681 1966 
L 2006 1966 
Q 1991 2241 1941 2353 
Q 1863 2528 1708 2628 
Q 1553 2728 1384 2728 
Q 1125 2728 920 2526 
Q 716 2325 681 1966 
z
" transform="scale(0.015625)"/>
       <path id="TimesNewRomanPSMT-61" d="M 1822 413 
Q 1381 72 1269 19 
Q 1100 -59 909 -59 
Q 613 -59 420 144 
Q 228 347 228 678 
Q 228 888 322 1041 
Q 450 1253 767 1440 
Q 1084 1628 1822 1897 
L 1822 2009 
Q 1822 2438 1686 2597 
Q 1550 2756 1291 2756 
Q 1094 2756 978 2650 
Q 859 2544 859 2406 
L 866 2225 
Q 866 2081 792 2003 
Q 719 1925 600 1925 
Q 484 1925 411 2006 
Q 338 2088 338 2228 
Q 338 2497 613 2722 
Q 888 2947 1384 2947 
Q 1766 2947 2009 2819 
Q 2194 2722 2281 2516 
Q 2338 2381 2338 1966 
L 2338 994 
Q 2338 584 2353 492 
Q 2369 400 2405 369 
Q 2441 338 2488 338 
Q 2538 338 2575 359 
Q 2641 400 2828 588 
L 2828 413 
Q 2478 -56 2159 -56 
Q 2006 -56 1915 50 
Q 1825 156 1822 413 
z
M 1822 616 
L 1822 1706 
Q 1350 1519 1213 1441 
Q 966 1303 859 1153 
Q 753 1003 753 825 
Q 753 600 887 451 
Q 1022 303 1197 303 
Q 1434 303 1822 616 
z
" transform="scale(0.015625)"/>
       <path id="TimesNewRomanPSMT-72" d="M 1038 2947 
L 1038 2303 
Q 1397 2947 1775 2947 
Q 1947 2947 2059 2842 
Q 2172 2738 2172 2600 
Q 2172 2478 2090 2393 
Q 2009 2309 1897 2309 
Q 1788 2309 1652 2417 
Q 1516 2525 1450 2525 
Q 1394 2525 1328 2463 
Q 1188 2334 1038 2041 
L 1038 669 
Q 1038 431 1097 309 
Q 1138 225 1241 169 
Q 1344 113 1538 113 
L 1538 0 
L 72 0 
L 72 113 
Q 291 113 397 181 
Q 475 231 506 341 
Q 522 394 522 644 
L 522 1753 
Q 522 2253 501 2348 
Q 481 2444 426 2487 
Q 372 2531 291 2531 
Q 194 2531 72 2484 
L 41 2597 
L 906 2947 
L 1038 2947 
z
" transform="scale(0.015625)"/>
      </defs>
      <use xlink:href="#TimesNewRomanPSMT-59"/>
      <use xlink:href="#TimesNewRomanPSMT-65" transform="translate(62.216797 0)"/>
      <use xlink:href="#TimesNewRomanPSMT-61" transform="translate(106.601562 0)"/>
      <use xlink:href="#TimesNewRomanPSMT-72" transform="translate(150.986328 0)"/>
     </g>
    </g>
   </g>
   <g id="patch_3">
    <path d="M 10.091927 314.12125 
L 10.091927 36.92125 
" style="fill: none; stroke: #000000; stroke-width: 0.8; stroke-linejoin: miter; stroke-linecap: square"/>
   </g>
   <g id="patch_4">
    <path d="M 398.891927 314.12125 
L 398.891927 36.92125 
" style="fill: none; stroke: #000000; stroke-width: 0.8; stroke-linejoin: miter; stroke-linecap: square"/>
   </g>
   <g id="patch_5">
    <path d="M 10.091927 314.12125 
L 398.891927 314.12125 
" style="fill: none; stroke: #000000; stroke-width: 0.8; stroke-linejoin: miter; stroke-linecap: square"/>
   </g>
   <g id="patch_6">
    <path d="M 10.091927 36.92125 
L 398.891927 36.92125 
" style="fill: none; stroke: #000000; stroke-width: 0.8; stroke-linejoin: miter; stroke-linecap: square"/>
   </g>
   <g id="text_12">
    <!-- Home Sales from 1992 to 2011 (units/month)  -->
    <g transform="translate(75.460052 16.92125) scale(0.14 -0.14)">
     <defs>
      <path id="TimesNewRomanPSMT-48" d="M 1316 2272 
L 3284 2272 
L 3284 3484 
Q 3284 3809 3244 3913 
Q 3213 3991 3113 4047 
Q 2978 4122 2828 4122 
L 2678 4122 
L 2678 4238 
L 4491 4238 
L 4491 4122 
L 4341 4122 
Q 4191 4122 4056 4050 
Q 3956 4000 3920 3898 
Q 3884 3797 3884 3484 
L 3884 750 
Q 3884 428 3925 325 
Q 3956 247 4053 191 
Q 4191 116 4341 116 
L 4491 116 
L 4491 0 
L 2678 0 
L 2678 116 
L 2828 116 
Q 3088 116 3206 269 
Q 3284 369 3284 750 
L 3284 2041 
L 1316 2041 
L 1316 750 
Q 1316 428 1356 325 
Q 1388 247 1488 191 
Q 1622 116 1772 116 
L 1925 116 
L 1925 0 
L 109 0 
L 109 116 
L 259 116 
Q 522 116 641 269 
Q 716 369 716 750 
L 716 3484 
Q 716 3809 675 3913 
Q 644 3991 547 4047 
Q 409 4122 259 4122 
L 109 4122 
L 109 4238 
L 1925 4238 
L 1925 4122 
L 1772 4122 
Q 1622 4122 1488 4050 
Q 1391 4000 1353 3898 
Q 1316 3797 1316 3484 
L 1316 2272 
z
" transform="scale(0.015625)"/>
      <path id="TimesNewRomanPSMT-6f" d="M 1600 2947 
Q 2250 2947 2644 2453 
Q 2978 2031 2978 1484 
Q 2978 1100 2793 706 
Q 2609 313 2286 112 
Q 1963 -88 1566 -88 
Q 919 -88 538 428 
Q 216 863 216 1403 
Q 216 1797 411 2186 
Q 606 2575 925 2761 
Q 1244 2947 1600 2947 
z
M 1503 2744 
Q 1338 2744 1170 2645 
Q 1003 2547 900 2300 
Q 797 2053 797 1666 
Q 797 1041 1045 587 
Q 1294 134 1700 134 
Q 2003 134 2200 384 
Q 2397 634 2397 1244 
Q 2397 2006 2069 2444 
Q 1847 2744 1503 2744 
z
" transform="scale(0.015625)"/>
      <path id="TimesNewRomanPSMT-6d" d="M 1050 2338 
Q 1363 2650 1419 2697 
Q 1559 2816 1721 2881 
Q 1884 2947 2044 2947 
Q 2313 2947 2506 2790 
Q 2700 2634 2766 2338 
Q 3088 2713 3309 2830 
Q 3531 2947 3766 2947 
Q 3994 2947 4170 2830 
Q 4347 2713 4450 2447 
Q 4519 2266 4519 1878 
L 4519 647 
Q 4519 378 4559 278 
Q 4591 209 4675 161 
Q 4759 113 4950 113 
L 4950 0 
L 3538 0 
L 3538 113 
L 3597 113 
Q 3781 113 3884 184 
Q 3956 234 3988 344 
Q 4000 397 4000 647 
L 4000 1878 
Q 4000 2228 3916 2372 
Q 3794 2572 3525 2572 
Q 3359 2572 3192 2489 
Q 3025 2406 2788 2181 
L 2781 2147 
L 2788 2013 
L 2788 647 
Q 2788 353 2820 281 
Q 2853 209 2943 161 
Q 3034 113 3253 113 
L 3253 0 
L 1806 0 
L 1806 113 
Q 2044 113 2133 169 
Q 2222 225 2256 338 
Q 2272 391 2272 647 
L 2272 1878 
Q 2272 2228 2169 2381 
Q 2031 2581 1784 2581 
Q 1616 2581 1450 2491 
Q 1191 2353 1050 2181 
L 1050 647 
Q 1050 366 1089 281 
Q 1128 197 1204 155 
Q 1281 113 1516 113 
L 1516 0 
L 100 0 
L 100 113 
Q 297 113 375 155 
Q 453 197 493 289 
Q 534 381 534 647 
L 534 1741 
Q 534 2213 506 2350 
Q 484 2453 437 2492 
Q 391 2531 309 2531 
Q 222 2531 100 2484 
L 53 2597 
L 916 2947 
L 1050 2947 
L 1050 2338 
z
" transform="scale(0.015625)"/>
      <path id="TimesNewRomanPSMT-20" transform="scale(0.015625)"/>
      <path id="TimesNewRomanPSMT-53" d="M 2934 4334 
L 2934 2869 
L 2819 2869 
Q 2763 3291 2617 3541 
Q 2472 3791 2203 3937 
Q 1934 4084 1647 4084 
Q 1322 4084 1109 3886 
Q 897 3688 897 3434 
Q 897 3241 1031 3081 
Q 1225 2847 1953 2456 
Q 2547 2138 2764 1967 
Q 2981 1797 3098 1565 
Q 3216 1334 3216 1081 
Q 3216 600 2842 251 
Q 2469 -97 1881 -97 
Q 1697 -97 1534 -69 
Q 1438 -53 1133 45 
Q 828 144 747 144 
Q 669 144 623 97 
Q 578 50 556 -97 
L 441 -97 
L 441 1356 
L 556 1356 
Q 638 900 775 673 
Q 913 447 1195 297 
Q 1478 147 1816 147 
Q 2206 147 2432 353 
Q 2659 559 2659 841 
Q 2659 997 2573 1156 
Q 2488 1316 2306 1453 
Q 2184 1547 1640 1851 
Q 1097 2156 867 2337 
Q 638 2519 519 2737 
Q 400 2956 400 3219 
Q 400 3675 750 4004 
Q 1100 4334 1641 4334 
Q 1978 4334 2356 4169 
Q 2531 4091 2603 4091 
Q 2684 4091 2736 4139 
Q 2788 4188 2819 4334 
L 2934 4334 
z
" transform="scale(0.015625)"/>
      <path id="TimesNewRomanPSMT-6c" d="M 1184 4444 
L 1184 647 
Q 1184 378 1223 290 
Q 1263 203 1344 158 
Q 1425 113 1647 113 
L 1647 0 
L 244 0 
L 244 113 
Q 441 113 512 153 
Q 584 194 625 287 
Q 666 381 666 647 
L 666 3247 
Q 666 3731 644 3842 
Q 622 3953 573 3993 
Q 525 4034 450 4034 
Q 369 4034 244 3984 
L 191 4094 
L 1044 4444 
L 1184 4444 
z
" transform="scale(0.015625)"/>
      <path id="TimesNewRomanPSMT-73" d="M 2050 2947 
L 2050 1972 
L 1947 1972 
Q 1828 2431 1642 2597 
Q 1456 2763 1169 2763 
Q 950 2763 815 2647 
Q 681 2531 681 2391 
Q 681 2216 781 2091 
Q 878 1963 1175 1819 
L 1631 1597 
Q 2266 1288 2266 781 
Q 2266 391 1970 151 
Q 1675 -88 1309 -88 
Q 1047 -88 709 6 
Q 606 38 541 38 
Q 469 38 428 -44 
L 325 -44 
L 325 978 
L 428 978 
Q 516 541 762 319 
Q 1009 97 1316 97 
Q 1531 97 1667 223 
Q 1803 350 1803 528 
Q 1803 744 1651 891 
Q 1500 1038 1047 1263 
Q 594 1488 453 1669 
Q 313 1847 313 2119 
Q 313 2472 555 2709 
Q 797 2947 1181 2947 
Q 1350 2947 1591 2875 
Q 1750 2828 1803 2828 
Q 1853 2828 1881 2850 
Q 1909 2872 1947 2947 
L 2050 2947 
z
" transform="scale(0.015625)"/>
      <path id="TimesNewRomanPSMT-66" d="M 1319 2638 
L 1319 756 
Q 1319 356 1406 250 
Q 1522 113 1716 113 
L 1975 113 
L 1975 0 
L 266 0 
L 266 113 
L 394 113 
Q 519 113 622 175 
Q 725 238 764 344 
Q 803 450 803 756 
L 803 2638 
L 247 2638 
L 247 2863 
L 803 2863 
L 803 3050 
Q 803 3478 940 3775 
Q 1078 4072 1361 4255 
Q 1644 4438 1997 4438 
Q 2325 4438 2600 4225 
Q 2781 4084 2781 3909 
Q 2781 3816 2700 3733 
Q 2619 3650 2525 3650 
Q 2453 3650 2373 3701 
Q 2294 3753 2178 3923 
Q 2063 4094 1966 4153 
Q 1869 4213 1750 4213 
Q 1606 4213 1506 4136 
Q 1406 4059 1362 3898 
Q 1319 3738 1319 3069 
L 1319 2863 
L 2056 2863 
L 2056 2638 
L 1319 2638 
z
" transform="scale(0.015625)"/>
      <path id="TimesNewRomanPSMT-74" d="M 1031 3803 
L 1031 2863 
L 1700 2863 
L 1700 2644 
L 1031 2644 
L 1031 788 
Q 1031 509 1111 412 
Q 1191 316 1316 316 
Q 1419 316 1516 380 
Q 1613 444 1666 569 
L 1788 569 
Q 1678 263 1478 108 
Q 1278 -47 1066 -47 
Q 922 -47 784 33 
Q 647 113 581 261 
Q 516 409 516 719 
L 516 2644 
L 63 2644 
L 63 2747 
Q 234 2816 414 2980 
Q 594 3144 734 3369 
Q 806 3488 934 3803 
L 1031 3803 
z
" transform="scale(0.015625)"/>
      <path id="TimesNewRomanPSMT-28" d="M 1988 -1253 
L 1988 -1369 
Q 1516 -1131 1200 -813 
Q 750 -359 506 256 
Q 263 872 263 1534 
Q 263 2503 741 3301 
Q 1219 4100 1988 4444 
L 1988 4313 
Q 1603 4100 1356 3731 
Q 1109 3363 987 2797 
Q 866 2231 866 1616 
Q 866 947 969 400 
Q 1050 -31 1165 -292 
Q 1281 -553 1476 -793 
Q 1672 -1034 1988 -1253 
z
" transform="scale(0.015625)"/>
      <path id="TimesNewRomanPSMT-75" d="M 2709 2863 
L 2709 1128 
Q 2709 631 2732 520 
Q 2756 409 2807 365 
Q 2859 322 2928 322 
Q 3025 322 3147 375 
L 3191 266 
L 2334 -88 
L 2194 -88 
L 2194 519 
Q 1825 119 1631 15 
Q 1438 -88 1222 -88 
Q 981 -88 804 51 
Q 628 191 559 409 
Q 491 628 491 1028 
L 491 2306 
Q 491 2509 447 2587 
Q 403 2666 317 2708 
Q 231 2750 6 2747 
L 6 2863 
L 1009 2863 
L 1009 947 
Q 1009 547 1148 422 
Q 1288 297 1484 297 
Q 1619 297 1789 381 
Q 1959 466 2194 703 
L 2194 2325 
Q 2194 2569 2105 2655 
Q 2016 2741 1734 2747 
L 1734 2863 
L 2709 2863 
z
" transform="scale(0.015625)"/>
      <path id="TimesNewRomanPSMT-6e" d="M 1034 2341 
Q 1538 2947 1994 2947 
Q 2228 2947 2397 2830 
Q 2566 2713 2666 2444 
Q 2734 2256 2734 1869 
L 2734 647 
Q 2734 375 2778 278 
Q 2813 200 2889 156 
Q 2966 113 3172 113 
L 3172 0 
L 1756 0 
L 1756 113 
L 1816 113 
Q 2016 113 2095 173 
Q 2175 234 2206 353 
Q 2219 400 2219 647 
L 2219 1819 
Q 2219 2209 2117 2386 
Q 2016 2563 1775 2563 
Q 1403 2563 1034 2156 
L 1034 647 
Q 1034 356 1069 288 
Q 1113 197 1189 155 
Q 1266 113 1500 113 
L 1500 0 
L 84 0 
L 84 113 
L 147 113 
Q 366 113 442 223 
Q 519 334 519 647 
L 519 1709 
Q 519 2225 495 2337 
Q 472 2450 423 2490 
Q 375 2531 294 2531 
Q 206 2531 84 2484 
L 38 2597 
L 900 2947 
L 1034 2947 
L 1034 2341 
z
" transform="scale(0.015625)"/>
      <path id="TimesNewRomanPSMT-69" d="M 928 4444 
Q 1059 4444 1151 4351 
Q 1244 4259 1244 4128 
Q 1244 3997 1151 3903 
Q 1059 3809 928 3809 
Q 797 3809 703 3903 
Q 609 3997 609 4128 
Q 609 4259 701 4351 
Q 794 4444 928 4444 
z
M 1188 2947 
L 1188 647 
Q 1188 378 1227 289 
Q 1266 200 1342 156 
Q 1419 113 1622 113 
L 1622 0 
L 231 0 
L 231 113 
Q 441 113 512 153 
Q 584 194 626 287 
Q 669 381 669 647 
L 669 1750 
Q 669 2216 641 2353 
Q 619 2453 572 2492 
Q 525 2531 444 2531 
Q 356 2531 231 2484 
L 188 2597 
L 1050 2947 
L 1188 2947 
z
" transform="scale(0.015625)"/>
      <path id="TimesNewRomanPSMT-2f" d="M 1794 4444 
L 259 -88 
L 9 -88 
L 1544 4444 
L 1794 4444 
z
" transform="scale(0.015625)"/>
      <path id="TimesNewRomanPSMT-68" d="M 1041 4444 
L 1041 2350 
Q 1388 2731 1591 2839 
Q 1794 2947 1997 2947 
Q 2241 2947 2416 2812 
Q 2591 2678 2675 2391 
Q 2734 2191 2734 1659 
L 2734 647 
Q 2734 375 2778 275 
Q 2809 200 2884 156 
Q 2959 113 3159 113 
L 3159 0 
L 1753 0 
L 1753 113 
L 1819 113 
Q 2019 113 2097 173 
Q 2175 234 2206 353 
Q 2216 403 2216 647 
L 2216 1659 
Q 2216 2128 2167 2275 
Q 2119 2422 2012 2495 
Q 1906 2569 1756 2569 
Q 1603 2569 1437 2487 
Q 1272 2406 1041 2159 
L 1041 647 
Q 1041 353 1073 281 
Q 1106 209 1195 161 
Q 1284 113 1503 113 
L 1503 0 
L 84 0 
L 84 113 
Q 275 113 384 172 
Q 447 203 484 290 
Q 522 378 522 647 
L 522 3238 
Q 522 3728 498 3840 
Q 475 3953 426 3993 
Q 378 4034 297 4034 
Q 231 4034 84 3984 
L 41 4094 
L 897 4444 
L 1041 4444 
z
" transform="scale(0.015625)"/>
      <path id="TimesNewRomanPSMT-29" d="M 144 4313 
L 144 4444 
Q 619 4209 934 3891 
Q 1381 3434 1625 2820 
Q 1869 2206 1869 1541 
Q 1869 572 1392 -226 
Q 916 -1025 144 -1369 
L 144 -1253 
Q 528 -1038 776 -670 
Q 1025 -303 1145 264 
Q 1266 831 1266 1447 
Q 1266 2113 1163 2663 
Q 1084 3094 967 3353 
Q 850 3613 656 3853 
Q 463 4094 144 4313 
z
" transform="scale(0.015625)"/>
     </defs>
     <use xlink:href="#TimesNewRomanPSMT-48"/>
     <use xlink:href="#TimesNewRomanPSMT-6f" transform="translate(72.216797 0)"/>
     <use xlink:href="#TimesNewRomanPSMT-6d" transform="translate(122.216797 0)"/>
     <use xlink:href="#TimesNewRomanPSMT-65" transform="translate(200 0)"/>
     <use xlink:href="#TimesNewRomanPSMT-20" transform="translate(244.384766 0)"/>
     <use xlink:href="#TimesNewRomanPSMT-53" transform="translate(269.384766 0)"/>
     <use xlink:href="#TimesNewRomanPSMT-61" transform="translate(325 0)"/>
     <use xlink:href="#TimesNewRomanPSMT-6c" transform="translate(369.384766 0)"/>
     <use xlink:href="#TimesNewRomanPSMT-65" transform="translate(397.167969 0)"/>
     <use xlink:href="#TimesNewRomanPSMT-73" transform="translate(441.552734 0)"/>
     <use xlink:href="#TimesNewRomanPSMT-20" transform="translate(480.46875 0)"/>
     <use xlink:href="#TimesNewRomanPSMT-66" transform="translate(505.46875 0)"/>
     <use xlink:href="#TimesNewRomanPSMT-72" transform="translate(538.769531 0)"/>
     <use xlink:href="#TimesNewRomanPSMT-6f" transform="translate(572.070312 0)"/>
     <use xlink:href="#TimesNewRomanPSMT-6d" transform="translate(622.070312 0)"/>
     <use xlink:href="#TimesNewRomanPSMT-20" transform="translate(699.853516 0)"/>
     <use xlink:href="#TimesNewRomanPSMT-31" transform="translate(724.853516 0)"/>
     <use xlink:href="#TimesNewRomanPSMT-39" transform="translate(774.853516 0)"/>
     <use xlink:href="#TimesNewRomanPSMT-39" transform="translate(824.853516 0)"/>
     <use xlink:href="#TimesNewRomanPSMT-32" transform="translate(874.853516 0)"/>
     <use xlink:href="#TimesNewRomanPSMT-20" transform="translate(924.853516 0)"/>
     <use xlink:href="#TimesNewRomanPSMT-74" transform="translate(949.853516 0)"/>
     <use xlink:href="#TimesNewRomanPSMT-6f" transform="translate(977.636719 0)"/>
     <use xlink:href="#TimesNewRomanPSMT-20" transform="translate(1027.636719 0)"/>
     <use xlink:href="#TimesNewRomanPSMT-32" transform="translate(1052.636719 0)"/>
     <use xlink:href="#TimesNewRomanPSMT-30" transform="translate(1102.636719 0)"/>
     <use xlink:href="#TimesNewRomanPSMT-31" transform="translate(1152.636719 0)"/>
     <use xlink:href="#TimesNewRomanPSMT-31" transform="translate(1198.886719 0)"/>
     <use xlink:href="#TimesNewRomanPSMT-20" transform="translate(1248.886719 0)"/>
     <use xlink:href="#TimesNewRomanPSMT-28" transform="translate(1273.886719 0)"/>
     <use xlink:href="#TimesNewRomanPSMT-75" transform="translate(1307.1875 0)"/>
     <use xlink:href="#TimesNewRomanPSMT-6e" transform="translate(1357.1875 0)"/>
     <use xlink:href="#TimesNewRomanPSMT-69" transform="translate(1407.1875 0)"/>
     <use xlink:href="#TimesNewRomanPSMT-74" transform="translate(1434.970703 0)"/>
     <use xlink:href="#TimesNewRomanPSMT-73" transform="translate(1462.753906 0)"/>
     <use xlink:href="#TimesNewRomanPSMT-2f" transform="translate(1501.669922 0)"/>
     <use xlink:href="#TimesNewRomanPSMT-6d" transform="translate(1529.453125 0)"/>
     <use xlink:href="#TimesNewRomanPSMT-6f" transform="translate(1607.236328 0)"/>
     <use xlink:href="#TimesNewRomanPSMT-6e" transform="translate(1657.236328 0)"/>
     <use xlink:href="#TimesNewRomanPSMT-74" transform="translate(1707.236328 0)"/>
     <use xlink:href="#TimesNewRomanPSMT-68" transform="translate(1735.019531 0)"/>
     <use xlink:href="#TimesNewRomanPSMT-29" transform="translate(1785.019531 0)"/>
     <use xlink:href="#TimesNewRomanPSMT-20" transform="translate(1818.320312 0)"/>
    </g>
   </g>
   <g id="legend_1">
    <g id="patch_7">
     <path d="M 415.667927 170.882187 
L 435.667927 170.882187 
L 435.667927 163.882187 
L 415.667927 163.882187 
z
" style="fill: #1f77b4"/>
    </g>
    <g id="text_13">
     <!-- Silverleaf Emporium -->
     <g transform="translate(443.667927 170.882187) scale(0.1 -0.1)">
      <defs>
       <path id="TimesNewRomanPSMT-76" d="M 53 2863 
L 1400 2863 
L 1400 2747 
L 1313 2747 
Q 1191 2747 1127 2687 
Q 1063 2628 1063 2528 
Q 1063 2419 1128 2269 
L 1794 688 
L 2463 2328 
Q 2534 2503 2534 2594 
Q 2534 2638 2509 2666 
Q 2475 2713 2422 2730 
Q 2369 2747 2206 2747 
L 2206 2863 
L 3141 2863 
L 3141 2747 
Q 2978 2734 2916 2681 
Q 2806 2588 2719 2369 
L 1703 -88 
L 1575 -88 
L 553 2328 
Q 484 2497 421 2570 
Q 359 2644 263 2694 
Q 209 2722 53 2747 
L 53 2863 
z
" transform="scale(0.015625)"/>
       <path id="TimesNewRomanPSMT-45" d="M 1338 4006 
L 1338 2331 
L 2269 2331 
Q 2631 2331 2753 2441 
Q 2916 2584 2934 2947 
L 3050 2947 
L 3050 1472 
L 2934 1472 
Q 2891 1781 2847 1869 
Q 2791 1978 2662 2040 
Q 2534 2103 2269 2103 
L 1338 2103 
L 1338 706 
Q 1338 425 1363 364 
Q 1388 303 1450 267 
Q 1513 231 1688 231 
L 2406 231 
Q 2766 231 2928 281 
Q 3091 331 3241 478 
Q 3434 672 3638 1063 
L 3763 1063 
L 3397 0 
L 131 0 
L 131 116 
L 281 116 
Q 431 116 566 188 
Q 666 238 702 338 
Q 738 438 738 747 
L 738 3500 
Q 738 3903 656 3997 
Q 544 4122 281 4122 
L 131 4122 
L 131 4238 
L 3397 4238 
L 3444 3309 
L 3322 3309 
Q 3256 3644 3176 3769 
Q 3097 3894 2941 3959 
Q 2816 4006 2500 4006 
L 1338 4006 
z
" transform="scale(0.015625)"/>
       <path id="TimesNewRomanPSMT-70" d="M -6 2578 
L 875 2934 
L 994 2934 
L 994 2266 
Q 1216 2644 1439 2795 
Q 1663 2947 1909 2947 
Q 2341 2947 2628 2609 
Q 2981 2197 2981 1534 
Q 2981 794 2556 309 
Q 2206 -88 1675 -88 
Q 1444 -88 1275 -22 
Q 1150 25 994 166 
L 994 -706 
Q 994 -1000 1030 -1079 
Q 1066 -1159 1155 -1206 
Q 1244 -1253 1478 -1253 
L 1478 -1369 
L -22 -1369 
L -22 -1253 
L 56 -1253 
Q 228 -1256 350 -1188 
Q 409 -1153 442 -1076 
Q 475 -1000 475 -688 
L 475 2019 
Q 475 2297 450 2372 
Q 425 2447 370 2484 
Q 316 2522 222 2522 
Q 147 2522 31 2478 
L -6 2578 
z
M 994 2081 
L 994 1013 
Q 994 666 1022 556 
Q 1066 375 1236 237 
Q 1406 100 1666 100 
Q 1978 100 2172 344 
Q 2425 663 2425 1241 
Q 2425 1897 2138 2250 
Q 1938 2494 1663 2494 
Q 1513 2494 1366 2419 
Q 1253 2363 994 2081 
z
" transform="scale(0.015625)"/>
      </defs>
      <use xlink:href="#TimesNewRomanPSMT-53"/>
      <use xlink:href="#TimesNewRomanPSMT-69" transform="translate(55.615234 0)"/>
      <use xlink:href="#TimesNewRomanPSMT-6c" transform="translate(83.398438 0)"/>
      <use xlink:href="#TimesNewRomanPSMT-76" transform="translate(111.181641 0)"/>
      <use xlink:href="#TimesNewRomanPSMT-65" transform="translate(161.181641 0)"/>
      <use xlink:href="#TimesNewRomanPSMT-72" transform="translate(205.566406 0)"/>
      <use xlink:href="#TimesNewRomanPSMT-6c" transform="translate(238.867188 0)"/>
      <use xlink:href="#TimesNewRomanPSMT-65" transform="translate(266.650391 0)"/>
      <use xlink:href="#TimesNewRomanPSMT-61" transform="translate(311.035156 0)"/>
      <use xlink:href="#TimesNewRomanPSMT-66" transform="translate(355.419922 0)"/>
      <use xlink:href="#TimesNewRomanPSMT-20" transform="translate(388.720703 0)"/>
      <use xlink:href="#TimesNewRomanPSMT-45" transform="translate(413.720703 0)"/>
      <use xlink:href="#TimesNewRomanPSMT-6d" transform="translate(474.804688 0)"/>
      <use xlink:href="#TimesNewRomanPSMT-70" transform="translate(552.587891 0)"/>
      <use xlink:href="#TimesNewRomanPSMT-6f" transform="translate(602.587891 0)"/>
      <use xlink:href="#TimesNewRomanPSMT-72" transform="translate(652.587891 0)"/>
      <use xlink:href="#TimesNewRomanPSMT-69" transform="translate(685.888672 0)"/>
      <use xlink:href="#TimesNewRomanPSMT-75" transform="translate(713.671875 0)"/>
      <use xlink:href="#TimesNewRomanPSMT-6d" transform="translate(763.671875 0)"/>
     </g>
    </g>
    <g id="patch_8">
     <path d="M 415.667927 185.02125 
L 435.667927 185.02125 
L 435.667927 178.02125 
L 415.667927 178.02125 
z
" style="fill: #aec7e8"/>
    </g>
    <g id="text_14">
     <!-- Starfall Mart -->
     <g transform="translate(443.667927 185.02125) scale(0.1 -0.1)">
      <defs>
       <path id="TimesNewRomanPSMT-4d" d="M 2619 0 
L 981 3566 
L 981 734 
Q 981 344 1066 247 
Q 1181 116 1431 116 
L 1581 116 
L 1581 0 
L 106 0 
L 106 116 
L 256 116 
Q 525 116 638 278 
Q 706 378 706 734 
L 706 3503 
Q 706 3784 644 3909 
Q 600 4000 483 4061 
Q 366 4122 106 4122 
L 106 4238 
L 1306 4238 
L 2844 922 
L 4356 4238 
L 5556 4238 
L 5556 4122 
L 5409 4122 
Q 5138 4122 5025 3959 
Q 4956 3859 4956 3503 
L 4956 734 
Q 4956 344 5044 247 
Q 5159 116 5409 116 
L 5556 116 
L 5556 0 
L 3756 0 
L 3756 116 
L 3906 116 
Q 4178 116 4288 278 
Q 4356 378 4356 734 
L 4356 3566 
L 2722 0 
L 2619 0 
z
" transform="scale(0.015625)"/>
      </defs>
      <use xlink:href="#TimesNewRomanPSMT-53"/>
      <use xlink:href="#TimesNewRomanPSMT-74" transform="translate(55.615234 0)"/>
      <use xlink:href="#TimesNewRomanPSMT-61" transform="translate(83.398438 0)"/>
      <use xlink:href="#TimesNewRomanPSMT-72" transform="translate(127.783203 0)"/>
      <use xlink:href="#TimesNewRomanPSMT-66" transform="translate(161.083984 0)"/>
      <use xlink:href="#TimesNewRomanPSMT-61" transform="translate(194.384766 0)"/>
      <use xlink:href="#TimesNewRomanPSMT-6c" transform="translate(238.769531 0)"/>
      <use xlink:href="#TimesNewRomanPSMT-6c" transform="translate(266.552734 0)"/>
      <use xlink:href="#TimesNewRomanPSMT-20" transform="translate(294.335938 0)"/>
      <use xlink:href="#TimesNewRomanPSMT-4d" transform="translate(319.335938 0)"/>
      <use xlink:href="#TimesNewRomanPSMT-61" transform="translate(408.251953 0)"/>
      <use xlink:href="#TimesNewRomanPSMT-72" transform="translate(452.636719 0)"/>
      <use xlink:href="#TimesNewRomanPSMT-74" transform="translate(485.9375 0)"/>
     </g>
    </g>
   </g>
  </g>
 </g>
 <defs>
  <clipPath id="pe43754f3f0">
   <rect x="10.091927" y="36.92125" width="388.8" height="277.2"/>
  </clipPath>
 </defs>
</svg>
