<?xml version="1.0" encoding="utf-8" standalone="no"?>
<!DOCTYPE svg PUBLIC "-//W3C//DTD SVG 1.1//EN"
  "http://www.w3.org/Graphics/SVG/1.1/DTD/svg11.dtd">
<svg xmlns:xlink="http://www.w3.org/1999/xlink" width="531.806989pt" height="364.113404pt" viewBox="0 0 531.806989 364.113404" xmlns="http://www.w3.org/2000/svg" version="1.1">
 <metadata>
  <rdf:RDF xmlns:dc="http://purl.org/dc/elements/1.1/" xmlns:cc="http://creativecommons.org/ns#" xmlns:rdf="http://www.w3.org/1999/02/22-rdf-syntax-ns#">
   <cc:Work>
    <dc:type rdf:resource="http://purl.org/dc/dcmitype/StillImage"/>
    <dc:date>2025-05-31T00:03:36.013242</dc:date>
    <dc:format>image/svg+xml</dc:format>
    <dc:creator>
     <cc:Agent>
      <dc:title>Matplotlib v3.10.3, https://matplotlib.org/</dc:title>
     </cc:Agent>
    </dc:creator>
   </cc:Work>
  </rdf:RDF>
 </metadata>
 <defs>
  <style type="text/css">*{stroke-linejoin: round; stroke-linecap: butt}</style>
 </defs>
 <g id="figure_1">
  <g id="patch_1">
   <path d="M 0 364.113404 
L 531.806989 364.113404 
L 531.806989 0 
L 0 0 
z
" style="fill: #ffffff"/>
  </g>
  <g id="axes_1">
   <g id="patch_2">
    <path d="M 10.091927 314.449375 
L 398.891927 314.449375 
L 398.891927 37.249375 
L 10.091927 37.249375 
z
" style="fill: #ffffff"/>
   </g>
   <g id="FillBetweenPolyCollection_1">
    <path d="M 27.764654 181.470912 
L 27.764654 277.682454 
L 30.136832 280.437285 
L 32.50901 282.862704 
L 34.881188 284.966561 
L 37.253367 286.756708 
L 39.625545 288.240996 
L 41.997723 289.427278 
L 44.369901 290.323406 
L 46.742079 290.93723 
L 49.114257 291.276602 
L 51.486436 291.349375 
L 53.858614 291.163399 
L 56.230792 290.726527 
L 58.60297 290.04661 
L 60.975148 289.1315 
L 63.347326 287.989048 
L 65.719504 286.627106 
L 68.091683 285.053527 
L 70.463861 283.27616 
L 72.836039 281.302859 
L 75.208217 279.141474 
L 77.580395 276.799858 
L 79.952573 274.288298 
L 82.324752 271.641019 
L 84.69693 268.905831 
L 87.069108 266.130698 
L 89.441286 263.363587 
L 91.813464 260.652463 
L 94.185642 258.045292 
L 96.55782 255.59004 
L 98.929999 253.334672 
L 101.302177 251.327154 
L 103.674355 249.615449 
L 106.046533 248.238636 
L 108.418711 247.20708 
L 110.790889 246.525355 
L 113.163068 246.198036 
L 115.535246 246.229698 
L 117.907424 246.624916 
L 120.279602 247.388263 
L 122.65178 248.524316 
L 125.023958 250.037649 
L 127.396137 251.932836 
L 129.768315 254.213128 
L 132.140493 256.838028 
L 134.512671 259.714316 
L 136.884849 262.745634 
L 139.257027 265.835623 
L 141.629205 268.887925 
L 144.001384 271.806181 
L 146.373562 274.494034 
L 148.74574 276.855123 
L 151.117918 278.793092 
L 153.490096 280.21158 
L 155.862274 281.028138 
L 158.234453 281.267944 
L 160.606631 281.006383 
L 162.978809 280.319122 
L 165.350987 279.281828 
L 167.723165 277.970168 
L 170.095343 276.459808 
L 172.467522 274.826416 
L 174.8397 273.145659 
L 177.211878 271.493203 
L 179.584056 269.944673 
L 181.956234 268.553991 
L 184.328412 267.318134 
L 186.70059 266.224849 
L 189.072769 265.261886 
L 191.444947 264.416994 
L 193.817125 263.677921 
L 196.189303 263.032417 
L 198.561481 262.468229 
L 200.933659 261.973107 
L 203.305838 261.5348 
L 205.678016 261.140865 
L 208.050194 260.774486 
L 210.422372 260.414468 
L 212.79455 260.039427 
L 215.166728 259.627979 
L 217.538907 259.158741 
L 219.911085 258.610326 
L 222.283263 257.961353 
L 224.655441 257.190435 
L 227.027619 256.27619 
L 229.399797 255.197233 
L 231.771975 253.937382 
L 234.144154 252.512565 
L 236.516332 250.950944 
L 238.88851 249.280707 
L 241.260688 247.53004 
L 243.632866 245.727131 
L 246.005044 243.900166 
L 248.377223 242.077333 
L 250.749401 240.286819 
L 253.121579 238.55681 
L 255.493757 236.915553 
L 257.865935 235.401664 
L 260.238113 234.075999 
L 262.610292 233.002284 
L 264.98247 232.244248 
L 267.354648 231.865617 
L 269.726826 231.930119 
L 272.099004 232.501482 
L 274.471182 233.643434 
L 276.84336 235.419701 
L 279.215539 237.894011 
L 281.587717 241.12203 
L 283.959895 245.023999 
L 286.332073 249.40779 
L 288.704251 254.077875 
L 291.076429 258.838723 
L 293.448608 263.494807 
L 295.820786 267.850596 
L 298.192964 271.710561 
L 300.565142 274.879174 
L 302.93732 277.160905 
L 305.309498 278.360225 
L 307.681677 278.332461 
L 310.053855 277.185141 
L 312.426033 275.103825 
L 314.798211 272.274095 
L 317.170389 268.881535 
L 319.542567 265.111729 
L 321.914745 261.150258 
L 324.286924 257.182706 
L 326.659102 253.394657 
L 329.03128 249.971693 
L 331.403458 247.098378 
L 333.775636 244.870505 
L 336.147814 243.227462 
L 338.519993 242.092718 
L 340.892171 241.389742 
L 343.264349 241.042002 
L 345.636527 240.972968 
L 348.008705 241.106108 
L 350.380883 241.36489 
L 352.753062 241.672783 
L 355.12524 241.953256 
L 357.497418 242.129778 
L 359.869596 242.125818 
L 362.241774 241.864843 
L 364.613952 241.270323 
L 366.98613 240.265726 
L 369.358309 238.774522 
L 371.730487 236.720178 
L 374.102665 234.026164 
L 376.474843 230.615948 
L 378.847021 226.412999 
L 381.219199 221.340785 
L 381.219199 143.068506 
L 381.219199 143.068506 
L 378.847021 143.310625 
L 376.474843 143.434237 
L 374.102665 143.448738 
L 371.730487 143.363529 
L 369.358309 143.188008 
L 366.98613 142.931573 
L 364.613952 142.603624 
L 362.241774 142.21356 
L 359.869596 141.770778 
L 357.497418 141.284679 
L 355.12524 140.76466 
L 352.753062 140.220121 
L 350.380883 139.66046 
L 348.008705 139.095077 
L 345.636527 138.53337 
L 343.264349 137.984737 
L 340.892171 137.458578 
L 338.519993 136.964292 
L 336.147814 136.511277 
L 333.775636 136.108932 
L 331.403458 135.766657 
L 329.03128 135.492741 
L 326.659102 135.284595 
L 324.286924 135.133452 
L 321.914745 135.030474 
L 319.542567 134.966825 
L 317.170389 134.933666 
L 314.798211 134.922159 
L 312.426033 134.923468 
L 310.053855 134.928755 
L 307.681677 134.929182 
L 305.309498 134.915914 
L 302.93732 134.889277 
L 300.565142 134.879202 
L 298.192964 134.921591 
L 295.820786 135.052344 
L 293.448608 135.307364 
L 291.076429 135.722551 
L 288.704251 136.333808 
L 286.332073 137.177036 
L 283.959895 138.288135 
L 281.587717 139.703007 
L 279.215539 141.456014 
L 276.84336 143.530603 
L 274.471182 145.848869 
L 272.099004 148.329251 
L 269.726826 150.890191 
L 267.354648 153.450128 
L 264.98247 155.927505 
L 262.610292 158.240759 
L 260.238113 160.308334 
L 257.865935 162.048668 
L 255.493757 163.380203 
L 253.121579 164.231891 
L 250.749401 164.614041 
L 248.377223 164.574914 
L 246.005044 164.162981 
L 243.632866 163.426716 
L 241.260688 162.41459 
L 238.88851 161.175077 
L 236.516332 159.756648 
L 234.144154 158.207777 
L 231.771975 156.576936 
L 229.399797 154.912576 
L 227.027619 153.252175 
L 224.655441 151.604421 
L 222.283263 149.973334 
L 219.911085 148.362938 
L 217.538907 146.777253 
L 215.166728 145.220301 
L 212.79455 143.696103 
L 210.422372 142.208682 
L 208.050194 140.762058 
L 205.678016 139.360254 
L 203.305838 138.007347 
L 200.933659 136.708715 
L 198.561481 135.471034 
L 196.189303 134.301037 
L 193.817125 133.205459 
L 191.444947 132.191031 
L 189.072769 131.264487 
L 186.70059 130.432559 
L 184.328412 129.701982 
L 181.956234 129.079488 
L 179.584056 128.57181 
L 177.211878 128.186698 
L 174.8397 127.938172 
L 172.467522 127.842645 
L 170.095343 127.916532 
L 167.723165 128.176249 
L 165.350987 128.638212 
L 162.978809 129.318838 
L 160.606631 130.234541 
L 158.234453 131.401739 
L 155.862274 132.836848 
L 153.490096 134.55612 
L 151.117918 136.546868 
L 148.74574 138.734361 
L 146.373562 141.035848 
L 144.001384 143.368583 
L 141.629205 145.649814 
L 139.257027 147.796795 
L 136.884849 149.726776 
L 134.512671 151.357009 
L 132.140493 152.604744 
L 129.768315 153.387233 
L 127.396137 153.627404 
L 125.023958 153.343531 
L 122.65178 152.633001 
L 120.279602 151.595601 
L 117.907424 150.331113 
L 115.535246 148.939321 
L 113.163068 147.520009 
L 110.790889 146.172961 
L 108.418711 144.997961 
L 106.046533 144.094793 
L 103.674355 143.56324 
L 101.302177 143.481533 
L 98.929999 143.821011 
L 96.55782 144.519942 
L 94.185642 145.516586 
L 91.813464 146.7492 
L 89.441286 148.156043 
L 87.069108 149.675373 
L 84.69693 151.245449 
L 82.324752 152.804528 
L 79.952573 154.290869 
L 77.580395 155.643064 
L 75.208217 156.828749 
L 72.836039 157.866736 
L 70.463861 158.781042 
L 68.091683 159.595687 
L 65.719504 160.33469 
L 63.347326 161.02207 
L 60.975148 161.681845 
L 58.60297 162.338036 
L 56.230792 163.01466 
L 53.858614 163.735737 
L 51.486436 164.525286 
L 49.114257 165.407326 
L 46.742079 166.405876 
L 44.369901 167.544955 
L 41.997723 168.848582 
L 39.625545 170.340775 
L 37.253367 172.045555 
L 34.881188 173.986939 
L 32.50901 176.188948 
L 30.136832 178.675599 
L 27.764654 181.470912 
z
" clip-path="url(#pf0ab4b9f36)" style="fill: #1f77b4"/>
   </g>
   <g id="FillBetweenPolyCollection_2">
    <path d="M 27.764654 74.016296 
L 27.764654 181.470912 
L 30.136832 178.675599 
L 32.50901 176.188948 
L 34.881188 173.986939 
L 37.253367 172.045555 
L 39.625545 170.340775 
L 41.997723 168.848582 
L 44.369901 167.544955 
L 46.742079 166.405876 
L 49.114257 165.407326 
L 51.486436 164.525286 
L 53.858614 163.735737 
L 56.230792 163.01466 
L 58.60297 162.338036 
L 60.975148 161.681845 
L 63.347326 161.02207 
L 65.719504 160.33469 
L 68.091683 159.595687 
L 70.463861 158.781042 
L 72.836039 157.866736 
L 75.208217 156.828749 
L 77.580395 155.643064 
L 79.952573 154.290869 
L 82.324752 152.804528 
L 84.69693 151.245449 
L 87.069108 149.675373 
L 89.441286 148.156043 
L 91.813464 146.7492 
L 94.185642 145.516586 
L 96.55782 144.519942 
L 98.929999 143.821011 
L 101.302177 143.481533 
L 103.674355 143.56324 
L 106.046533 144.094793 
L 108.418711 144.997961 
L 110.790889 146.172961 
L 113.163068 147.520009 
L 115.535246 148.939321 
L 117.907424 150.331113 
L 120.279602 151.595601 
L 122.65178 152.633001 
L 125.023958 153.343531 
L 127.396137 153.627404 
L 129.768315 153.387233 
L 132.140493 152.604744 
L 134.512671 151.357009 
L 136.884849 149.726776 
L 139.257027 147.796795 
L 141.629205 145.649814 
L 144.001384 143.368583 
L 146.373562 141.035848 
L 148.74574 138.734361 
L 151.117918 136.546868 
L 153.490096 134.55612 
L 155.862274 132.836848 
L 158.234453 131.401739 
L 160.606631 130.234541 
L 162.978809 129.318838 
L 165.350987 128.638212 
L 167.723165 128.176249 
L 170.095343 127.916532 
L 172.467522 127.842645 
L 174.8397 127.938172 
L 177.211878 128.186698 
L 179.584056 128.57181 
L 181.956234 129.079488 
L 184.328412 129.701982 
L 186.70059 130.432559 
L 189.072769 131.264487 
L 191.444947 132.191031 
L 193.817125 133.205459 
L 196.189303 134.301037 
L 198.561481 135.471034 
L 200.933659 136.708715 
L 203.305838 138.007347 
L 205.678016 139.360254 
L 208.050194 140.762058 
L 210.422372 142.208682 
L 212.79455 143.696103 
L 215.166728 145.220301 
L 217.538907 146.777253 
L 219.911085 148.362938 
L 222.283263 149.973334 
L 224.655441 151.604421 
L 227.027619 153.252175 
L 229.399797 154.912576 
L 231.771975 156.576936 
L 234.144154 158.207777 
L 236.516332 159.756648 
L 238.88851 161.175077 
L 241.260688 162.41459 
L 243.632866 163.426716 
L 246.005044 164.162981 
L 248.377223 164.574914 
L 250.749401 164.614041 
L 253.121579 164.231891 
L 255.493757 163.380203 
L 257.865935 162.048668 
L 260.238113 160.308334 
L 262.610292 158.240759 
L 264.98247 155.927505 
L 267.354648 153.450128 
L 269.726826 150.890191 
L 272.099004 148.329251 
L 274.471182 145.848869 
L 276.84336 143.530603 
L 279.215539 141.456014 
L 281.587717 139.703007 
L 283.959895 138.288135 
L 286.332073 137.177036 
L 288.704251 136.333808 
L 291.076429 135.722551 
L 293.448608 135.307364 
L 295.820786 135.052344 
L 298.192964 134.921591 
L 300.565142 134.879202 
L 302.93732 134.889277 
L 305.309498 134.915914 
L 307.681677 134.929182 
L 310.053855 134.928755 
L 312.426033 134.923468 
L 314.798211 134.922159 
L 317.170389 134.933666 
L 319.542567 134.966825 
L 321.914745 135.030474 
L 324.286924 135.133452 
L 326.659102 135.284595 
L 329.03128 135.492741 
L 331.403458 135.766657 
L 333.775636 136.108932 
L 336.147814 136.511277 
L 338.519993 136.964292 
L 340.892171 137.458578 
L 343.264349 137.984737 
L 345.636527 138.53337 
L 348.008705 139.095077 
L 350.380883 139.66046 
L 352.753062 140.220121 
L 355.12524 140.76466 
L 357.497418 141.284679 
L 359.869596 141.770778 
L 362.241774 142.21356 
L 364.613952 142.603624 
L 366.98613 142.931573 
L 369.358309 143.188008 
L 371.730487 143.363529 
L 374.102665 143.448738 
L 376.474843 143.434237 
L 378.847021 143.310625 
L 381.219199 143.068506 
L 381.219199 130.357965 
L 381.219199 130.357965 
L 378.847021 125.285751 
L 376.474843 121.082802 
L 374.102665 117.672586 
L 371.730487 114.978572 
L 369.358309 112.924228 
L 366.98613 111.433024 
L 364.613952 110.428427 
L 362.241774 109.833907 
L 359.869596 109.572932 
L 357.497418 109.568972 
L 355.12524 109.745494 
L 352.753062 110.025967 
L 350.380883 110.33386 
L 348.008705 110.592642 
L 345.636527 110.725782 
L 343.264349 110.656748 
L 340.892171 110.309008 
L 338.519993 109.606032 
L 336.147814 108.471288 
L 333.775636 106.828245 
L 331.403458 104.600372 
L 329.03128 101.727057 
L 326.659102 98.304093 
L 324.286924 94.516044 
L 321.914745 90.548492 
L 319.542567 86.587021 
L 317.170389 82.817215 
L 314.798211 79.424655 
L 312.426033 76.594925 
L 310.053855 74.513609 
L 307.681677 73.366289 
L 305.309498 73.338525 
L 302.93732 74.537845 
L 300.565142 76.819576 
L 298.192964 79.988189 
L 295.820786 83.848154 
L 293.448608 88.203943 
L 291.076429 92.860027 
L 288.704251 97.620875 
L 286.332073 102.29096 
L 283.959895 106.674751 
L 281.587717 110.57672 
L 279.215539 113.804739 
L 276.84336 116.279049 
L 274.471182 118.055316 
L 272.099004 119.197268 
L 269.726826 119.768631 
L 267.354648 119.833133 
L 264.98247 119.454502 
L 262.610292 118.696466 
L 260.238113 117.622751 
L 257.865935 116.297086 
L 255.493757 114.783197 
L 253.121579 113.14194 
L 250.749401 111.411931 
L 248.377223 109.621417 
L 246.005044 107.798584 
L 243.632866 105.971619 
L 241.260688 104.16871 
L 238.88851 102.418043 
L 236.516332 100.747806 
L 234.144154 99.186185 
L 231.771975 97.761368 
L 229.399797 96.501517 
L 227.027619 95.42256 
L 224.655441 94.508315 
L 222.283263 93.737397 
L 219.911085 93.088424 
L 217.538907 92.540009 
L 215.166728 92.070771 
L 212.79455 91.659323 
L 210.422372 91.284282 
L 208.050194 90.924264 
L 205.678016 90.557885 
L 203.305838 90.16395 
L 200.933659 89.725643 
L 198.561481 89.230521 
L 196.189303 88.666333 
L 193.817125 88.020829 
L 191.444947 87.281756 
L 189.072769 86.436864 
L 186.70059 85.473901 
L 184.328412 84.380616 
L 181.956234 83.144759 
L 179.584056 81.754077 
L 177.211878 80.205547 
L 174.8397 78.553091 
L 172.467522 76.872334 
L 170.095343 75.238942 
L 167.723165 73.728582 
L 165.350987 72.416922 
L 162.978809 71.379628 
L 160.606631 70.692367 
L 158.234453 70.430806 
L 155.862274 70.670612 
L 153.490096 71.48717 
L 151.117918 72.905658 
L 148.74574 74.843627 
L 146.373562 77.204716 
L 144.001384 79.892569 
L 141.629205 82.810825 
L 139.257027 85.863127 
L 136.884849 88.953116 
L 134.512671 91.984434 
L 132.140493 94.860722 
L 129.768315 97.485622 
L 127.396137 99.765914 
L 125.023958 101.661101 
L 122.65178 103.174434 
L 120.279602 104.310487 
L 117.907424 105.073834 
L 115.535246 105.469052 
L 113.163068 105.500714 
L 110.790889 105.173395 
L 108.418711 104.49167 
L 106.046533 103.460114 
L 103.674355 102.083301 
L 101.302177 100.371596 
L 98.929999 98.364078 
L 96.55782 96.10871 
L 94.185642 93.653458 
L 91.813464 91.046287 
L 89.441286 88.335163 
L 87.069108 85.568052 
L 84.69693 82.792919 
L 82.324752 80.057731 
L 79.952573 77.410452 
L 77.580395 74.898892 
L 75.208217 72.557276 
L 72.836039 70.395891 
L 70.463861 68.42259 
L 68.091683 66.645223 
L 65.719504 65.071644 
L 63.347326 63.709702 
L 60.975148 62.56725 
L 58.60297 61.65214 
L 56.230792 60.972223 
L 53.858614 60.535351 
L 51.486436 60.349375 
L 49.114257 60.422148 
L 46.742079 60.76152 
L 44.369901 61.375344 
L 41.997723 62.271472 
L 39.625545 63.457754 
L 37.253367 64.942042 
L 34.881188 66.732189 
L 32.50901 68.836046 
L 30.136832 71.261465 
L 27.764654 74.016296 
z
" clip-path="url(#pf0ab4b9f36)" style="fill: #aec7e8"/>
   </g>
   <g id="matplotlib.axis_1">
    <g id="xtick_1">
     <g id="line2d_1">
      <defs>
       <path id="mfb8521803e" d="M 0 0 
L 0 3.5 
" style="stroke: #000000; stroke-width: 0.8"/>
      </defs>
      <g>
       <use xlink:href="#mfb8521803e" x="27.764654" y="314.449375" style="stroke: #000000; stroke-width: 0.8"/>
      </g>
     </g>
     <g id="text_1">
      <!-- 1950 -->
      <g transform="translate(12.109973 340.501483) rotate(-45) scale(0.1 -0.1)">
       <defs>
        <path id="TimesNewRomanPSMT-31" d="M 750 3822 
L 1781 4325 
L 1884 4325 
L 1884 747 
Q 1884 391 1914 303 
Q 1944 216 2037 169 
Q 2131 122 2419 116 
L 2419 0 
L 825 0 
L 825 116 
Q 1125 122 1212 167 
Q 1300 213 1334 289 
Q 1369 366 1369 747 
L 1369 3034 
Q 1369 3497 1338 3628 
Q 1316 3728 1258 3775 
Q 1200 3822 1119 3822 
Q 1003 3822 797 3725 
L 750 3822 
z
" transform="scale(0.015625)"/>
        <path id="TimesNewRomanPSMT-39" d="M 338 -88 
L 338 28 
Q 744 34 1094 217 
Q 1444 400 1770 856 
Q 2097 1313 2225 1859 
Q 1734 1544 1338 1544 
Q 891 1544 572 1889 
Q 253 2234 253 2806 
Q 253 3363 572 3797 
Q 956 4325 1575 4325 
Q 2097 4325 2469 3894 
Q 2925 3359 2925 2575 
Q 2925 1869 2578 1258 
Q 2231 647 1613 244 
Q 1109 -88 516 -88 
L 338 -88 
z
M 2275 2091 
Q 2331 2497 2331 2741 
Q 2331 3044 2228 3395 
Q 2125 3747 1936 3934 
Q 1747 4122 1506 4122 
Q 1228 4122 1018 3872 
Q 809 3622 809 3128 
Q 809 2469 1088 2097 
Q 1291 1828 1588 1828 
Q 1731 1828 1928 1897 
Q 2125 1966 2275 2091 
z
" transform="scale(0.015625)"/>
        <path id="TimesNewRomanPSMT-35" d="M 2778 4238 
L 2534 3706 
L 1259 3706 
L 981 3138 
Q 1809 3016 2294 2522 
Q 2709 2097 2709 1522 
Q 2709 1188 2573 903 
Q 2438 619 2231 419 
Q 2025 219 1772 97 
Q 1413 -75 1034 -75 
Q 653 -75 479 54 
Q 306 184 306 341 
Q 306 428 378 495 
Q 450 563 559 563 
Q 641 563 702 538 
Q 763 513 909 409 
Q 1144 247 1384 247 
Q 1750 247 2026 523 
Q 2303 800 2303 1197 
Q 2303 1581 2056 1914 
Q 1809 2247 1375 2428 
Q 1034 2569 447 2591 
L 1259 4238 
L 2778 4238 
z
" transform="scale(0.015625)"/>
        <path id="TimesNewRomanPSMT-30" d="M 231 2094 
Q 231 2819 450 3342 
Q 669 3866 1031 4122 
Q 1313 4325 1613 4325 
Q 2100 4325 2488 3828 
Q 2972 3213 2972 2159 
Q 2972 1422 2759 906 
Q 2547 391 2217 158 
Q 1888 -75 1581 -75 
Q 975 -75 572 641 
Q 231 1244 231 2094 
z
M 844 2016 
Q 844 1141 1059 588 
Q 1238 122 1591 122 
Q 1759 122 1940 273 
Q 2122 425 2216 781 
Q 2359 1319 2359 2297 
Q 2359 3022 2209 3506 
Q 2097 3866 1919 4016 
Q 1791 4119 1609 4119 
Q 1397 4119 1231 3928 
Q 1006 3669 925 3112 
Q 844 2556 844 2016 
z
" transform="scale(0.015625)"/>
       </defs>
       <use xlink:href="#TimesNewRomanPSMT-31"/>
       <use xlink:href="#TimesNewRomanPSMT-39" transform="translate(50 0)"/>
       <use xlink:href="#TimesNewRomanPSMT-35" transform="translate(100 0)"/>
       <use xlink:href="#TimesNewRomanPSMT-30" transform="translate(150 0)"/>
      </g>
     </g>
    </g>
    <g id="xtick_2">
     <g id="line2d_2">
      <g>
       <use xlink:href="#mfb8521803e" x="53.011407" y="314.449375" style="stroke: #000000; stroke-width: 0.8"/>
      </g>
     </g>
     <g id="text_2">
      <!-- 1951 -->
      <g transform="translate(37.356726 340.501483) rotate(-45) scale(0.1 -0.1)">
       <use xlink:href="#TimesNewRomanPSMT-31"/>
       <use xlink:href="#TimesNewRomanPSMT-39" transform="translate(50 0)"/>
       <use xlink:href="#TimesNewRomanPSMT-35" transform="translate(100 0)"/>
       <use xlink:href="#TimesNewRomanPSMT-31" transform="translate(150 0)"/>
      </g>
     </g>
    </g>
    <g id="xtick_3">
     <g id="line2d_3">
      <g>
       <use xlink:href="#mfb8521803e" x="78.25816" y="314.449375" style="stroke: #000000; stroke-width: 0.8"/>
      </g>
     </g>
     <g id="text_3">
      <!-- 1952 -->
      <g transform="translate(62.603479 340.501483) rotate(-45) scale(0.1 -0.1)">
       <defs>
        <path id="TimesNewRomanPSMT-32" d="M 2934 816 
L 2638 0 
L 138 0 
L 138 116 
Q 1241 1122 1691 1759 
Q 2141 2397 2141 2925 
Q 2141 3328 1894 3587 
Q 1647 3847 1303 3847 
Q 991 3847 742 3664 
Q 494 3481 375 3128 
L 259 3128 
Q 338 3706 661 4015 
Q 984 4325 1469 4325 
Q 1984 4325 2329 3994 
Q 2675 3663 2675 3213 
Q 2675 2891 2525 2569 
Q 2294 2063 1775 1497 
Q 997 647 803 472 
L 1909 472 
Q 2247 472 2383 497 
Q 2519 522 2628 598 
Q 2738 675 2819 816 
L 2934 816 
z
" transform="scale(0.015625)"/>
       </defs>
       <use xlink:href="#TimesNewRomanPSMT-31"/>
       <use xlink:href="#TimesNewRomanPSMT-39" transform="translate(50 0)"/>
       <use xlink:href="#TimesNewRomanPSMT-35" transform="translate(100 0)"/>
       <use xlink:href="#TimesNewRomanPSMT-32" transform="translate(150 0)"/>
      </g>
     </g>
    </g>
    <g id="xtick_4">
     <g id="line2d_4">
      <g>
       <use xlink:href="#mfb8521803e" x="103.504914" y="314.449375" style="stroke: #000000; stroke-width: 0.8"/>
      </g>
     </g>
     <g id="text_4">
      <!-- 1953 -->
      <g transform="translate(87.850232 340.501483) rotate(-45) scale(0.1 -0.1)">
       <defs>
        <path id="TimesNewRomanPSMT-33" d="M 325 3431 
Q 506 3859 782 4092 
Q 1059 4325 1472 4325 
Q 1981 4325 2253 3994 
Q 2459 3747 2459 3466 
Q 2459 3003 1878 2509 
Q 2269 2356 2469 2072 
Q 2669 1788 2669 1403 
Q 2669 853 2319 450 
Q 1863 -75 997 -75 
Q 569 -75 414 31 
Q 259 138 259 259 
Q 259 350 332 419 
Q 406 488 509 488 
Q 588 488 669 463 
Q 722 447 909 348 
Q 1097 250 1169 231 
Q 1284 197 1416 197 
Q 1734 197 1970 444 
Q 2206 691 2206 1028 
Q 2206 1275 2097 1509 
Q 2016 1684 1919 1775 
Q 1784 1900 1550 2001 
Q 1316 2103 1072 2103 
L 972 2103 
L 972 2197 
Q 1219 2228 1467 2375 
Q 1716 2522 1828 2728 
Q 1941 2934 1941 3181 
Q 1941 3503 1739 3701 
Q 1538 3900 1238 3900 
Q 753 3900 428 3381 
L 325 3431 
z
" transform="scale(0.015625)"/>
       </defs>
       <use xlink:href="#TimesNewRomanPSMT-31"/>
       <use xlink:href="#TimesNewRomanPSMT-39" transform="translate(50 0)"/>
       <use xlink:href="#TimesNewRomanPSMT-35" transform="translate(100 0)"/>
       <use xlink:href="#TimesNewRomanPSMT-33" transform="translate(150 0)"/>
      </g>
     </g>
    </g>
    <g id="xtick_5">
     <g id="line2d_5">
      <g>
       <use xlink:href="#mfb8521803e" x="128.751667" y="314.449375" style="stroke: #000000; stroke-width: 0.8"/>
      </g>
     </g>
     <g id="text_5">
      <!-- 1954 -->
      <g transform="translate(113.096986 340.501483) rotate(-45) scale(0.1 -0.1)">
       <defs>
        <path id="TimesNewRomanPSMT-34" d="M 2978 1563 
L 2978 1119 
L 2409 1119 
L 2409 0 
L 1894 0 
L 1894 1119 
L 100 1119 
L 100 1519 
L 2066 4325 
L 2409 4325 
L 2409 1563 
L 2978 1563 
z
M 1894 1563 
L 1894 3666 
L 406 1563 
L 1894 1563 
z
" transform="scale(0.015625)"/>
       </defs>
       <use xlink:href="#TimesNewRomanPSMT-31"/>
       <use xlink:href="#TimesNewRomanPSMT-39" transform="translate(50 0)"/>
       <use xlink:href="#TimesNewRomanPSMT-35" transform="translate(100 0)"/>
       <use xlink:href="#TimesNewRomanPSMT-34" transform="translate(150 0)"/>
      </g>
     </g>
    </g>
    <g id="xtick_6">
     <g id="line2d_6">
      <g>
       <use xlink:href="#mfb8521803e" x="153.99842" y="314.449375" style="stroke: #000000; stroke-width: 0.8"/>
      </g>
     </g>
     <g id="text_6">
      <!-- 1955 -->
      <g transform="translate(138.343739 340.501483) rotate(-45) scale(0.1 -0.1)">
       <use xlink:href="#TimesNewRomanPSMT-31"/>
       <use xlink:href="#TimesNewRomanPSMT-39" transform="translate(50 0)"/>
       <use xlink:href="#TimesNewRomanPSMT-35" transform="translate(100 0)"/>
       <use xlink:href="#TimesNewRomanPSMT-35" transform="translate(150 0)"/>
      </g>
     </g>
    </g>
    <g id="xtick_7">
     <g id="line2d_7">
      <g>
       <use xlink:href="#mfb8521803e" x="179.245173" y="314.449375" style="stroke: #000000; stroke-width: 0.8"/>
      </g>
     </g>
     <g id="text_7">
      <!-- 1956 -->
      <g transform="translate(163.590492 340.501483) rotate(-45) scale(0.1 -0.1)">
       <defs>
        <path id="TimesNewRomanPSMT-36" d="M 2869 4325 
L 2869 4209 
Q 2456 4169 2195 4045 
Q 1934 3922 1679 3669 
Q 1425 3416 1258 3105 
Q 1091 2794 978 2366 
Q 1428 2675 1881 2675 
Q 2316 2675 2634 2325 
Q 2953 1975 2953 1425 
Q 2953 894 2631 456 
Q 2244 -75 1606 -75 
Q 1172 -75 869 213 
Q 275 772 275 1663 
Q 275 2231 503 2743 
Q 731 3256 1154 3653 
Q 1578 4050 1965 4187 
Q 2353 4325 2688 4325 
L 2869 4325 
z
M 925 2138 
Q 869 1716 869 1456 
Q 869 1156 980 804 
Q 1091 453 1309 247 
Q 1469 100 1697 100 
Q 1969 100 2183 356 
Q 2397 613 2397 1088 
Q 2397 1622 2184 2012 
Q 1972 2403 1581 2403 
Q 1463 2403 1327 2353 
Q 1191 2303 925 2138 
z
" transform="scale(0.015625)"/>
       </defs>
       <use xlink:href="#TimesNewRomanPSMT-31"/>
       <use xlink:href="#TimesNewRomanPSMT-39" transform="translate(50 0)"/>
       <use xlink:href="#TimesNewRomanPSMT-35" transform="translate(100 0)"/>
       <use xlink:href="#TimesNewRomanPSMT-36" transform="translate(150 0)"/>
      </g>
     </g>
    </g>
    <g id="xtick_8">
     <g id="line2d_8">
      <g>
       <use xlink:href="#mfb8521803e" x="204.491927" y="314.449375" style="stroke: #000000; stroke-width: 0.8"/>
      </g>
     </g>
     <g id="text_8">
      <!-- 1957 -->
      <g transform="translate(188.837245 340.501483) rotate(-45) scale(0.1 -0.1)">
       <defs>
        <path id="TimesNewRomanPSMT-37" d="M 644 4238 
L 2916 4238 
L 2916 4119 
L 1503 -88 
L 1153 -88 
L 2419 3728 
L 1253 3728 
Q 900 3728 750 3644 
Q 488 3500 328 3200 
L 238 3234 
L 644 4238 
z
" transform="scale(0.015625)"/>
       </defs>
       <use xlink:href="#TimesNewRomanPSMT-31"/>
       <use xlink:href="#TimesNewRomanPSMT-39" transform="translate(50 0)"/>
       <use xlink:href="#TimesNewRomanPSMT-35" transform="translate(100 0)"/>
       <use xlink:href="#TimesNewRomanPSMT-37" transform="translate(150 0)"/>
      </g>
     </g>
    </g>
    <g id="xtick_9">
     <g id="line2d_9">
      <g>
       <use xlink:href="#mfb8521803e" x="229.73868" y="314.449375" style="stroke: #000000; stroke-width: 0.8"/>
      </g>
     </g>
     <g id="text_9">
      <!-- 1958 -->
      <g transform="translate(214.083999 340.501483) rotate(-45) scale(0.1 -0.1)">
       <defs>
        <path id="TimesNewRomanPSMT-38" d="M 1228 2134 
Q 725 2547 579 2797 
Q 434 3047 434 3316 
Q 434 3728 753 4026 
Q 1072 4325 1600 4325 
Q 2113 4325 2425 4047 
Q 2738 3769 2738 3413 
Q 2738 3175 2569 2928 
Q 2400 2681 1866 2347 
Q 2416 1922 2594 1678 
Q 2831 1359 2831 1006 
Q 2831 559 2490 242 
Q 2150 -75 1597 -75 
Q 994 -75 656 303 
Q 388 606 388 966 
Q 388 1247 577 1523 
Q 766 1800 1228 2134 
z
M 1719 2469 
Q 2094 2806 2194 3001 
Q 2294 3197 2294 3444 
Q 2294 3772 2109 3958 
Q 1925 4144 1606 4144 
Q 1288 4144 1088 3959 
Q 888 3775 888 3528 
Q 888 3366 970 3203 
Q 1053 3041 1206 2894 
L 1719 2469 
z
M 1375 2016 
Q 1116 1797 991 1539 
Q 866 1281 866 981 
Q 866 578 1086 336 
Q 1306 94 1647 94 
Q 1984 94 2187 284 
Q 2391 475 2391 747 
Q 2391 972 2272 1150 
Q 2050 1481 1375 2016 
z
" transform="scale(0.015625)"/>
       </defs>
       <use xlink:href="#TimesNewRomanPSMT-31"/>
       <use xlink:href="#TimesNewRomanPSMT-39" transform="translate(50 0)"/>
       <use xlink:href="#TimesNewRomanPSMT-35" transform="translate(100 0)"/>
       <use xlink:href="#TimesNewRomanPSMT-38" transform="translate(150 0)"/>
      </g>
     </g>
    </g>
    <g id="xtick_10">
     <g id="line2d_10">
      <g>
       <use xlink:href="#mfb8521803e" x="254.985433" y="314.449375" style="stroke: #000000; stroke-width: 0.8"/>
      </g>
     </g>
     <g id="text_10">
      <!-- 1959 -->
      <g transform="translate(239.330752 340.501483) rotate(-45) scale(0.1 -0.1)">
       <use xlink:href="#TimesNewRomanPSMT-31"/>
       <use xlink:href="#TimesNewRomanPSMT-39" transform="translate(50 0)"/>
       <use xlink:href="#TimesNewRomanPSMT-35" transform="translate(100 0)"/>
       <use xlink:href="#TimesNewRomanPSMT-39" transform="translate(150 0)"/>
      </g>
     </g>
    </g>
    <g id="xtick_11">
     <g id="line2d_11">
      <g>
       <use xlink:href="#mfb8521803e" x="280.232186" y="314.449375" style="stroke: #000000; stroke-width: 0.8"/>
      </g>
     </g>
     <g id="text_11">
      <!-- 1960 -->
      <g transform="translate(264.577505 340.501483) rotate(-45) scale(0.1 -0.1)">
       <use xlink:href="#TimesNewRomanPSMT-31"/>
       <use xlink:href="#TimesNewRomanPSMT-39" transform="translate(50 0)"/>
       <use xlink:href="#TimesNewRomanPSMT-36" transform="translate(100 0)"/>
       <use xlink:href="#TimesNewRomanPSMT-30" transform="translate(150 0)"/>
      </g>
     </g>
    </g>
    <g id="xtick_12">
     <g id="line2d_12">
      <g>
       <use xlink:href="#mfb8521803e" x="305.47894" y="314.449375" style="stroke: #000000; stroke-width: 0.8"/>
      </g>
     </g>
     <g id="text_12">
      <!-- 1961 -->
      <g transform="translate(289.824258 340.501483) rotate(-45) scale(0.1 -0.1)">
       <use xlink:href="#TimesNewRomanPSMT-31"/>
       <use xlink:href="#TimesNewRomanPSMT-39" transform="translate(50 0)"/>
       <use xlink:href="#TimesNewRomanPSMT-36" transform="translate(100 0)"/>
       <use xlink:href="#TimesNewRomanPSMT-31" transform="translate(150 0)"/>
      </g>
     </g>
    </g>
    <g id="xtick_13">
     <g id="line2d_13">
      <g>
       <use xlink:href="#mfb8521803e" x="330.725693" y="314.449375" style="stroke: #000000; stroke-width: 0.8"/>
      </g>
     </g>
     <g id="text_13">
      <!-- 1962 -->
      <g transform="translate(315.071012 340.501483) rotate(-45) scale(0.1 -0.1)">
       <use xlink:href="#TimesNewRomanPSMT-31"/>
       <use xlink:href="#TimesNewRomanPSMT-39" transform="translate(50 0)"/>
       <use xlink:href="#TimesNewRomanPSMT-36" transform="translate(100 0)"/>
       <use xlink:href="#TimesNewRomanPSMT-32" transform="translate(150 0)"/>
      </g>
     </g>
    </g>
    <g id="xtick_14">
     <g id="line2d_14">
      <g>
       <use xlink:href="#mfb8521803e" x="355.972446" y="314.449375" style="stroke: #000000; stroke-width: 0.8"/>
      </g>
     </g>
     <g id="text_14">
      <!-- 1963 -->
      <g transform="translate(340.317765 340.501483) rotate(-45) scale(0.1 -0.1)">
       <use xlink:href="#TimesNewRomanPSMT-31"/>
       <use xlink:href="#TimesNewRomanPSMT-39" transform="translate(50 0)"/>
       <use xlink:href="#TimesNewRomanPSMT-36" transform="translate(100 0)"/>
       <use xlink:href="#TimesNewRomanPSMT-33" transform="translate(150 0)"/>
      </g>
     </g>
    </g>
    <g id="xtick_15">
     <g id="line2d_15">
      <g>
       <use xlink:href="#mfb8521803e" x="381.219199" y="314.449375" style="stroke: #000000; stroke-width: 0.8"/>
      </g>
     </g>
     <g id="text_15">
      <!-- 1964 -->
      <g transform="translate(365.564518 340.501483) rotate(-45) scale(0.1 -0.1)">
       <use xlink:href="#TimesNewRomanPSMT-31"/>
       <use xlink:href="#TimesNewRomanPSMT-39" transform="translate(50 0)"/>
       <use xlink:href="#TimesNewRomanPSMT-36" transform="translate(100 0)"/>
       <use xlink:href="#TimesNewRomanPSMT-34" transform="translate(150 0)"/>
      </g>
     </g>
    </g>
    <g id="text_16">
     <!-- Year -->
     <g transform="translate(193.434114 354.346529) scale(0.12 -0.12)">
      <defs>
       <path id="TimesNewRomanPSMT-59" d="M 3050 4238 
L 4528 4238 
L 4528 4122 
L 4447 4122 
Q 4366 4122 4209 4050 
Q 4053 3978 3925 3843 
Q 3797 3709 3609 3406 
L 2588 1797 
L 2588 734 
Q 2588 344 2675 247 
Q 2794 116 3050 116 
L 3188 116 
L 3188 0 
L 1388 0 
L 1388 116 
L 1538 116 
Q 1806 116 1919 278 
Q 1988 378 1988 734 
L 1988 1738 
L 825 3513 
Q 619 3825 545 3903 
Q 472 3981 241 4091 
Q 178 4122 59 4122 
L 59 4238 
L 1872 4238 
L 1872 4122 
L 1778 4122 
Q 1631 4122 1507 4053 
Q 1384 3984 1384 3847 
Q 1384 3734 1575 3441 
L 2459 2075 
L 3291 3381 
Q 3478 3675 3478 3819 
Q 3478 3906 3433 3975 
Q 3388 4044 3303 4083 
Q 3219 4122 3050 4122 
L 3050 4238 
z
" transform="scale(0.015625)"/>
       <path id="TimesNewRomanPSMT-65" d="M 681 1784 
Q 678 1147 991 784 
Q 1303 422 1725 422 
Q 2006 422 2214 576 
Q 2422 731 2563 1106 
L 2659 1044 
Q 2594 616 2278 264 
Q 1963 -88 1488 -88 
Q 972 -88 605 314 
Q 238 716 238 1394 
Q 238 2128 614 2539 
Q 991 2950 1559 2950 
Q 2041 2950 2350 2633 
Q 2659 2316 2659 1784 
L 681 1784 
z
M 681 1966 
L 2006 1966 
Q 1991 2241 1941 2353 
Q 1863 2528 1708 2628 
Q 1553 2728 1384 2728 
Q 1125 2728 920 2526 
Q 716 2325 681 1966 
z
" transform="scale(0.015625)"/>
       <path id="TimesNewRomanPSMT-61" d="M 1822 413 
Q 1381 72 1269 19 
Q 1100 -59 909 -59 
Q 613 -59 420 144 
Q 228 347 228 678 
Q 228 888 322 1041 
Q 450 1253 767 1440 
Q 1084 1628 1822 1897 
L 1822 2009 
Q 1822 2438 1686 2597 
Q 1550 2756 1291 2756 
Q 1094 2756 978 2650 
Q 859 2544 859 2406 
L 866 2225 
Q 866 2081 792 2003 
Q 719 1925 600 1925 
Q 484 1925 411 2006 
Q 338 2088 338 2228 
Q 338 2497 613 2722 
Q 888 2947 1384 2947 
Q 1766 2947 2009 2819 
Q 2194 2722 2281 2516 
Q 2338 2381 2338 1966 
L 2338 994 
Q 2338 584 2353 492 
Q 2369 400 2405 369 
Q 2441 338 2488 338 
Q 2538 338 2575 359 
Q 2641 400 2828 588 
L 2828 413 
Q 2478 -56 2159 -56 
Q 2006 -56 1915 50 
Q 1825 156 1822 413 
z
M 1822 616 
L 1822 1706 
Q 1350 1519 1213 1441 
Q 966 1303 859 1153 
Q 753 1003 753 825 
Q 753 600 887 451 
Q 1022 303 1197 303 
Q 1434 303 1822 616 
z
" transform="scale(0.015625)"/>
       <path id="TimesNewRomanPSMT-72" d="M 1038 2947 
L 1038 2303 
Q 1397 2947 1775 2947 
Q 1947 2947 2059 2842 
Q 2172 2738 2172 2600 
Q 2172 2478 2090 2393 
Q 2009 2309 1897 2309 
Q 1788 2309 1652 2417 
Q 1516 2525 1450 2525 
Q 1394 2525 1328 2463 
Q 1188 2334 1038 2041 
L 1038 669 
Q 1038 431 1097 309 
Q 1138 225 1241 169 
Q 1344 113 1538 113 
L 1538 0 
L 72 0 
L 72 113 
Q 291 113 397 181 
Q 475 231 506 341 
Q 522 394 522 644 
L 522 1753 
Q 522 2253 501 2348 
Q 481 2444 426 2487 
Q 372 2531 291 2531 
Q 194 2531 72 2484 
L 41 2597 
L 906 2947 
L 1038 2947 
z
" transform="scale(0.015625)"/>
      </defs>
      <use xlink:href="#TimesNewRomanPSMT-59"/>
      <use xlink:href="#TimesNewRomanPSMT-65" transform="translate(62.216797 0)"/>
      <use xlink:href="#TimesNewRomanPSMT-61" transform="translate(106.601562 0)"/>
      <use xlink:href="#TimesNewRomanPSMT-72" transform="translate(150.986328 0)"/>
     </g>
    </g>
   </g>
   <g id="patch_3">
    <path d="M 10.091927 314.449375 
L 10.091927 37.249375 
" style="fill: none; stroke: #000000; stroke-width: 0.8; stroke-linejoin: miter; stroke-linecap: square"/>
   </g>
   <g id="patch_4">
    <path d="M 398.891927 314.449375 
L 398.891927 37.249375 
" style="fill: none; stroke: #000000; stroke-width: 0.8; stroke-linejoin: miter; stroke-linecap: square"/>
   </g>
   <g id="patch_5">
    <path d="M 10.091927 314.449375 
L 398.891927 314.449375 
" style="fill: none; stroke: #000000; stroke-width: 0.8; stroke-linejoin: miter; stroke-linecap: square"/>
   </g>
   <g id="patch_6">
    <path d="M 10.091927 37.249375 
L 398.891927 37.249375 
" style="fill: none; stroke: #000000; stroke-width: 0.8; stroke-linejoin: miter; stroke-linecap: square"/>
   </g>
   <g id="text_17">
    <!-- Online Sales Volume from 1950 to 1964 ($)  -->
    <g transform="translate(79.922552 17.249375) scale(0.14 -0.14)">
     <defs>
      <path id="TimesNewRomanPSMT-4f" d="M 2341 4334 
Q 3166 4334 3770 3707 
Q 4375 3081 4375 2144 
Q 4375 1178 3765 540 
Q 3156 -97 2291 -97 
Q 1416 -97 820 525 
Q 225 1147 225 2134 
Q 225 3144 913 3781 
Q 1509 4334 2341 4334 
z
M 2281 4106 
Q 1713 4106 1369 3684 
Q 941 3159 941 2147 
Q 941 1109 1384 550 
Q 1725 125 2284 125 
Q 2881 125 3270 590 
Q 3659 1056 3659 2059 
Q 3659 3147 3231 3681 
Q 2888 4106 2281 4106 
z
" transform="scale(0.015625)"/>
      <path id="TimesNewRomanPSMT-6e" d="M 1034 2341 
Q 1538 2947 1994 2947 
Q 2228 2947 2397 2830 
Q 2566 2713 2666 2444 
Q 2734 2256 2734 1869 
L 2734 647 
Q 2734 375 2778 278 
Q 2813 200 2889 156 
Q 2966 113 3172 113 
L 3172 0 
L 1756 0 
L 1756 113 
L 1816 113 
Q 2016 113 2095 173 
Q 2175 234 2206 353 
Q 2219 400 2219 647 
L 2219 1819 
Q 2219 2209 2117 2386 
Q 2016 2563 1775 2563 
Q 1403 2563 1034 2156 
L 1034 647 
Q 1034 356 1069 288 
Q 1113 197 1189 155 
Q 1266 113 1500 113 
L 1500 0 
L 84 0 
L 84 113 
L 147 113 
Q 366 113 442 223 
Q 519 334 519 647 
L 519 1709 
Q 519 2225 495 2337 
Q 472 2450 423 2490 
Q 375 2531 294 2531 
Q 206 2531 84 2484 
L 38 2597 
L 900 2947 
L 1034 2947 
L 1034 2341 
z
" transform="scale(0.015625)"/>
      <path id="TimesNewRomanPSMT-6c" d="M 1184 4444 
L 1184 647 
Q 1184 378 1223 290 
Q 1263 203 1344 158 
Q 1425 113 1647 113 
L 1647 0 
L 244 0 
L 244 113 
Q 441 113 512 153 
Q 584 194 625 287 
Q 666 381 666 647 
L 666 3247 
Q 666 3731 644 3842 
Q 622 3953 573 3993 
Q 525 4034 450 4034 
Q 369 4034 244 3984 
L 191 4094 
L 1044 4444 
L 1184 4444 
z
" transform="scale(0.015625)"/>
      <path id="TimesNewRomanPSMT-69" d="M 928 4444 
Q 1059 4444 1151 4351 
Q 1244 4259 1244 4128 
Q 1244 3997 1151 3903 
Q 1059 3809 928 3809 
Q 797 3809 703 3903 
Q 609 3997 609 4128 
Q 609 4259 701 4351 
Q 794 4444 928 4444 
z
M 1188 2947 
L 1188 647 
Q 1188 378 1227 289 
Q 1266 200 1342 156 
Q 1419 113 1622 113 
L 1622 0 
L 231 0 
L 231 113 
Q 441 113 512 153 
Q 584 194 626 287 
Q 669 381 669 647 
L 669 1750 
Q 669 2216 641 2353 
Q 619 2453 572 2492 
Q 525 2531 444 2531 
Q 356 2531 231 2484 
L 188 2597 
L 1050 2947 
L 1188 2947 
z
" transform="scale(0.015625)"/>
      <path id="TimesNewRomanPSMT-20" transform="scale(0.015625)"/>
      <path id="TimesNewRomanPSMT-53" d="M 2934 4334 
L 2934 2869 
L 2819 2869 
Q 2763 3291 2617 3541 
Q 2472 3791 2203 3937 
Q 1934 4084 1647 4084 
Q 1322 4084 1109 3886 
Q 897 3688 897 3434 
Q 897 3241 1031 3081 
Q 1225 2847 1953 2456 
Q 2547 2138 2764 1967 
Q 2981 1797 3098 1565 
Q 3216 1334 3216 1081 
Q 3216 600 2842 251 
Q 2469 -97 1881 -97 
Q 1697 -97 1534 -69 
Q 1438 -53 1133 45 
Q 828 144 747 144 
Q 669 144 623 97 
Q 578 50 556 -97 
L 441 -97 
L 441 1356 
L 556 1356 
Q 638 900 775 673 
Q 913 447 1195 297 
Q 1478 147 1816 147 
Q 2206 147 2432 353 
Q 2659 559 2659 841 
Q 2659 997 2573 1156 
Q 2488 1316 2306 1453 
Q 2184 1547 1640 1851 
Q 1097 2156 867 2337 
Q 638 2519 519 2737 
Q 400 2956 400 3219 
Q 400 3675 750 4004 
Q 1100 4334 1641 4334 
Q 1978 4334 2356 4169 
Q 2531 4091 2603 4091 
Q 2684 4091 2736 4139 
Q 2788 4188 2819 4334 
L 2934 4334 
z
" transform="scale(0.015625)"/>
      <path id="TimesNewRomanPSMT-73" d="M 2050 2947 
L 2050 1972 
L 1947 1972 
Q 1828 2431 1642 2597 
Q 1456 2763 1169 2763 
Q 950 2763 815 2647 
Q 681 2531 681 2391 
Q 681 2216 781 2091 
Q 878 1963 1175 1819 
L 1631 1597 
Q 2266 1288 2266 781 
Q 2266 391 1970 151 
Q 1675 -88 1309 -88 
Q 1047 -88 709 6 
Q 606 38 541 38 
Q 469 38 428 -44 
L 325 -44 
L 325 978 
L 428 978 
Q 516 541 762 319 
Q 1009 97 1316 97 
Q 1531 97 1667 223 
Q 1803 350 1803 528 
Q 1803 744 1651 891 
Q 1500 1038 1047 1263 
Q 594 1488 453 1669 
Q 313 1847 313 2119 
Q 313 2472 555 2709 
Q 797 2947 1181 2947 
Q 1350 2947 1591 2875 
Q 1750 2828 1803 2828 
Q 1853 2828 1881 2850 
Q 1909 2872 1947 2947 
L 2050 2947 
z
" transform="scale(0.015625)"/>
      <path id="TimesNewRomanPSMT-56" d="M 4544 4238 
L 4544 4122 
Q 4319 4081 4203 3978 
Q 4038 3825 3909 3509 
L 2431 -97 
L 2316 -97 
L 728 3556 
Q 606 3838 556 3900 
Q 478 3997 364 4051 
Q 250 4106 56 4122 
L 56 4238 
L 1788 4238 
L 1788 4122 
Q 1494 4094 1406 4022 
Q 1319 3950 1319 3838 
Q 1319 3681 1463 3350 
L 2541 866 
L 3541 3319 
Q 3688 3681 3688 3822 
Q 3688 3913 3597 3995 
Q 3506 4078 3291 4113 
Q 3275 4116 3238 4122 
L 3238 4238 
L 4544 4238 
z
" transform="scale(0.015625)"/>
      <path id="TimesNewRomanPSMT-6f" d="M 1600 2947 
Q 2250 2947 2644 2453 
Q 2978 2031 2978 1484 
Q 2978 1100 2793 706 
Q 2609 313 2286 112 
Q 1963 -88 1566 -88 
Q 919 -88 538 428 
Q 216 863 216 1403 
Q 216 1797 411 2186 
Q 606 2575 925 2761 
Q 1244 2947 1600 2947 
z
M 1503 2744 
Q 1338 2744 1170 2645 
Q 1003 2547 900 2300 
Q 797 2053 797 1666 
Q 797 1041 1045 587 
Q 1294 134 1700 134 
Q 2003 134 2200 384 
Q 2397 634 2397 1244 
Q 2397 2006 2069 2444 
Q 1847 2744 1503 2744 
z
" transform="scale(0.015625)"/>
      <path id="TimesNewRomanPSMT-75" d="M 2709 2863 
L 2709 1128 
Q 2709 631 2732 520 
Q 2756 409 2807 365 
Q 2859 322 2928 322 
Q 3025 322 3147 375 
L 3191 266 
L 2334 -88 
L 2194 -88 
L 2194 519 
Q 1825 119 1631 15 
Q 1438 -88 1222 -88 
Q 981 -88 804 51 
Q 628 191 559 409 
Q 491 628 491 1028 
L 491 2306 
Q 491 2509 447 2587 
Q 403 2666 317 2708 
Q 231 2750 6 2747 
L 6 2863 
L 1009 2863 
L 1009 947 
Q 1009 547 1148 422 
Q 1288 297 1484 297 
Q 1619 297 1789 381 
Q 1959 466 2194 703 
L 2194 2325 
Q 2194 2569 2105 2655 
Q 2016 2741 1734 2747 
L 1734 2863 
L 2709 2863 
z
" transform="scale(0.015625)"/>
      <path id="TimesNewRomanPSMT-6d" d="M 1050 2338 
Q 1363 2650 1419 2697 
Q 1559 2816 1721 2881 
Q 1884 2947 2044 2947 
Q 2313 2947 2506 2790 
Q 2700 2634 2766 2338 
Q 3088 2713 3309 2830 
Q 3531 2947 3766 2947 
Q 3994 2947 4170 2830 
Q 4347 2713 4450 2447 
Q 4519 2266 4519 1878 
L 4519 647 
Q 4519 378 4559 278 
Q 4591 209 4675 161 
Q 4759 113 4950 113 
L 4950 0 
L 3538 0 
L 3538 113 
L 3597 113 
Q 3781 113 3884 184 
Q 3956 234 3988 344 
Q 4000 397 4000 647 
L 4000 1878 
Q 4000 2228 3916 2372 
Q 3794 2572 3525 2572 
Q 3359 2572 3192 2489 
Q 3025 2406 2788 2181 
L 2781 2147 
L 2788 2013 
L 2788 647 
Q 2788 353 2820 281 
Q 2853 209 2943 161 
Q 3034 113 3253 113 
L 3253 0 
L 1806 0 
L 1806 113 
Q 2044 113 2133 169 
Q 2222 225 2256 338 
Q 2272 391 2272 647 
L 2272 1878 
Q 2272 2228 2169 2381 
Q 2031 2581 1784 2581 
Q 1616 2581 1450 2491 
Q 1191 2353 1050 2181 
L 1050 647 
Q 1050 366 1089 281 
Q 1128 197 1204 155 
Q 1281 113 1516 113 
L 1516 0 
L 100 0 
L 100 113 
Q 297 113 375 155 
Q 453 197 493 289 
Q 534 381 534 647 
L 534 1741 
Q 534 2213 506 2350 
Q 484 2453 437 2492 
Q 391 2531 309 2531 
Q 222 2531 100 2484 
L 53 2597 
L 916 2947 
L 1050 2947 
L 1050 2338 
z
" transform="scale(0.015625)"/>
      <path id="TimesNewRomanPSMT-66" d="M 1319 2638 
L 1319 756 
Q 1319 356 1406 250 
Q 1522 113 1716 113 
L 1975 113 
L 1975 0 
L 266 0 
L 266 113 
L 394 113 
Q 519 113 622 175 
Q 725 238 764 344 
Q 803 450 803 756 
L 803 2638 
L 247 2638 
L 247 2863 
L 803 2863 
L 803 3050 
Q 803 3478 940 3775 
Q 1078 4072 1361 4255 
Q 1644 4438 1997 4438 
Q 2325 4438 2600 4225 
Q 2781 4084 2781 3909 
Q 2781 3816 2700 3733 
Q 2619 3650 2525 3650 
Q 2453 3650 2373 3701 
Q 2294 3753 2178 3923 
Q 2063 4094 1966 4153 
Q 1869 4213 1750 4213 
Q 1606 4213 1506 4136 
Q 1406 4059 1362 3898 
Q 1319 3738 1319 3069 
L 1319 2863 
L 2056 2863 
L 2056 2638 
L 1319 2638 
z
" transform="scale(0.015625)"/>
      <path id="TimesNewRomanPSMT-74" d="M 1031 3803 
L 1031 2863 
L 1700 2863 
L 1700 2644 
L 1031 2644 
L 1031 788 
Q 1031 509 1111 412 
Q 1191 316 1316 316 
Q 1419 316 1516 380 
Q 1613 444 1666 569 
L 1788 569 
Q 1678 263 1478 108 
Q 1278 -47 1066 -47 
Q 922 -47 784 33 
Q 647 113 581 261 
Q 516 409 516 719 
L 516 2644 
L 63 2644 
L 63 2747 
Q 234 2816 414 2980 
Q 594 3144 734 3369 
Q 806 3488 934 3803 
L 1031 3803 
z
" transform="scale(0.015625)"/>
      <path id="TimesNewRomanPSMT-28" d="M 1988 -1253 
L 1988 -1369 
Q 1516 -1131 1200 -813 
Q 750 -359 506 256 
Q 263 872 263 1534 
Q 263 2503 741 3301 
Q 1219 4100 1988 4444 
L 1988 4313 
Q 1603 4100 1356 3731 
Q 1109 3363 987 2797 
Q 866 2231 866 1616 
Q 866 947 969 400 
Q 1050 -31 1165 -292 
Q 1281 -553 1476 -793 
Q 1672 -1034 1988 -1253 
z
" transform="scale(0.015625)"/>
      <path id="TimesNewRomanPSMT-24" d="M 338 1044 
L 475 1044 
Q 509 616 743 387 
Q 978 159 1444 116 
L 1444 1941 
Q 741 2375 506 2709 
Q 341 2947 341 3288 
Q 341 3672 627 3959 
Q 913 4247 1444 4306 
L 1444 4594 
L 1644 4594 
L 1644 4306 
Q 1900 4291 2075 4247 
Q 2166 4225 2675 4031 
L 2675 3097 
L 2553 3097 
Q 2513 3594 2295 3823 
Q 2078 4053 1644 4097 
L 1644 2509 
Q 2431 1959 2654 1698 
Q 2878 1438 2878 1050 
Q 2878 619 2551 290 
Q 2225 -38 1644 -88 
L 1644 -488 
L 1444 -488 
L 1444 -88 
Q 1150 -75 897 -20 
Q 644 34 338 159 
L 338 1044 
z
M 1444 2641 
L 1444 4094 
Q 1131 4056 979 3895 
Q 828 3734 828 3491 
Q 828 3263 965 3064 
Q 1103 2866 1444 2641 
z
M 1644 116 
Q 1878 156 2003 231 
Q 2178 341 2279 517 
Q 2381 694 2381 894 
Q 2381 1100 2257 1284 
Q 2134 1469 1644 1806 
L 1644 116 
z
" transform="scale(0.015625)"/>
      <path id="TimesNewRomanPSMT-29" d="M 144 4313 
L 144 4444 
Q 619 4209 934 3891 
Q 1381 3434 1625 2820 
Q 1869 2206 1869 1541 
Q 1869 572 1392 -226 
Q 916 -1025 144 -1369 
L 144 -1253 
Q 528 -1038 776 -670 
Q 1025 -303 1145 264 
Q 1266 831 1266 1447 
Q 1266 2113 1163 2663 
Q 1084 3094 967 3353 
Q 850 3613 656 3853 
Q 463 4094 144 4313 
z
" transform="scale(0.015625)"/>
     </defs>
     <use xlink:href="#TimesNewRomanPSMT-4f"/>
     <use xlink:href="#TimesNewRomanPSMT-6e" transform="translate(72.216797 0)"/>
     <use xlink:href="#TimesNewRomanPSMT-6c" transform="translate(122.216797 0)"/>
     <use xlink:href="#TimesNewRomanPSMT-69" transform="translate(150 0)"/>
     <use xlink:href="#TimesNewRomanPSMT-6e" transform="translate(177.783203 0)"/>
     <use xlink:href="#TimesNewRomanPSMT-65" transform="translate(227.783203 0)"/>
     <use xlink:href="#TimesNewRomanPSMT-20" transform="translate(272.167969 0)"/>
     <use xlink:href="#TimesNewRomanPSMT-53" transform="translate(297.167969 0)"/>
     <use xlink:href="#TimesNewRomanPSMT-61" transform="translate(352.783203 0)"/>
     <use xlink:href="#TimesNewRomanPSMT-6c" transform="translate(397.167969 0)"/>
     <use xlink:href="#TimesNewRomanPSMT-65" transform="translate(424.951172 0)"/>
     <use xlink:href="#TimesNewRomanPSMT-73" transform="translate(469.335938 0)"/>
     <use xlink:href="#TimesNewRomanPSMT-20" transform="translate(508.251953 0)"/>
     <use xlink:href="#TimesNewRomanPSMT-56" transform="translate(531.501953 0)"/>
     <use xlink:href="#TimesNewRomanPSMT-6f" transform="translate(590.84375 0)"/>
     <use xlink:href="#TimesNewRomanPSMT-6c" transform="translate(640.84375 0)"/>
     <use xlink:href="#TimesNewRomanPSMT-75" transform="translate(668.626953 0)"/>
     <use xlink:href="#TimesNewRomanPSMT-6d" transform="translate(718.626953 0)"/>
     <use xlink:href="#TimesNewRomanPSMT-65" transform="translate(796.410156 0)"/>
     <use xlink:href="#TimesNewRomanPSMT-20" transform="translate(840.794922 0)"/>
     <use xlink:href="#TimesNewRomanPSMT-66" transform="translate(865.794922 0)"/>
     <use xlink:href="#TimesNewRomanPSMT-72" transform="translate(899.095703 0)"/>
     <use xlink:href="#TimesNewRomanPSMT-6f" transform="translate(932.396484 0)"/>
     <use xlink:href="#TimesNewRomanPSMT-6d" transform="translate(982.396484 0)"/>
     <use xlink:href="#TimesNewRomanPSMT-20" transform="translate(1060.179688 0)"/>
     <use xlink:href="#TimesNewRomanPSMT-31" transform="translate(1085.179688 0)"/>
     <use xlink:href="#TimesNewRomanPSMT-39" transform="translate(1135.179688 0)"/>
     <use xlink:href="#TimesNewRomanPSMT-35" transform="translate(1185.179688 0)"/>
     <use xlink:href="#TimesNewRomanPSMT-30" transform="translate(1235.179688 0)"/>
     <use xlink:href="#TimesNewRomanPSMT-20" transform="translate(1285.179688 0)"/>
     <use xlink:href="#TimesNewRomanPSMT-74" transform="translate(1310.179688 0)"/>
     <use xlink:href="#TimesNewRomanPSMT-6f" transform="translate(1337.962891 0)"/>
     <use xlink:href="#TimesNewRomanPSMT-20" transform="translate(1387.962891 0)"/>
     <use xlink:href="#TimesNewRomanPSMT-31" transform="translate(1412.962891 0)"/>
     <use xlink:href="#TimesNewRomanPSMT-39" transform="translate(1462.962891 0)"/>
     <use xlink:href="#TimesNewRomanPSMT-36" transform="translate(1512.962891 0)"/>
     <use xlink:href="#TimesNewRomanPSMT-34" transform="translate(1562.962891 0)"/>
     <use xlink:href="#TimesNewRomanPSMT-20" transform="translate(1612.962891 0)"/>
     <use xlink:href="#TimesNewRomanPSMT-28" transform="translate(1637.962891 0)"/>
     <use xlink:href="#TimesNewRomanPSMT-24" transform="translate(1671.263672 0)"/>
     <use xlink:href="#TimesNewRomanPSMT-29" transform="translate(1721.263672 0)"/>
     <use xlink:href="#TimesNewRomanPSMT-20" transform="translate(1754.564453 0)"/>
    </g>
   </g>
   <g id="legend_1">
    <g id="patch_7">
     <path d="M 415.667927 171.191562 
L 435.667927 171.191562 
L 435.667927 164.191562 
L 415.667927 164.191562 
z
" style="fill: #1f77b4"/>
    </g>
    <g id="text_18">
     <!-- Rural Buyers -->
     <g transform="translate(443.667927 171.191562) scale(0.1 -0.1)">
      <defs>
       <path id="TimesNewRomanPSMT-52" d="M 4325 0 
L 3194 0 
L 1759 1981 
Q 1600 1975 1500 1975 
Q 1459 1975 1412 1976 
Q 1366 1978 1316 1981 
L 1316 750 
Q 1316 350 1403 253 
Q 1522 116 1759 116 
L 1925 116 
L 1925 0 
L 109 0 
L 109 116 
L 269 116 
Q 538 116 653 291 
Q 719 388 719 750 
L 719 3488 
Q 719 3888 631 3984 
Q 509 4122 269 4122 
L 109 4122 
L 109 4238 
L 1653 4238 
Q 2328 4238 2648 4139 
Q 2969 4041 3192 3777 
Q 3416 3513 3416 3147 
Q 3416 2756 3161 2468 
Q 2906 2181 2372 2063 
L 3247 847 
Q 3547 428 3762 290 
Q 3978 153 4325 116 
L 4325 0 
z
M 1316 2178 
Q 1375 2178 1419 2176 
Q 1463 2175 1491 2175 
Q 2097 2175 2405 2437 
Q 2713 2700 2713 3106 
Q 2713 3503 2464 3751 
Q 2216 4000 1806 4000 
Q 1625 4000 1316 3941 
L 1316 2178 
z
" transform="scale(0.015625)"/>
       <path id="TimesNewRomanPSMT-42" d="M 2956 2163 
Q 3397 2069 3616 1863 
Q 3919 1575 3919 1159 
Q 3919 844 3719 555 
Q 3519 266 3170 133 
Q 2822 0 2106 0 
L 106 0 
L 106 116 
L 266 116 
Q 531 116 647 284 
Q 719 394 719 750 
L 719 3488 
Q 719 3881 628 3984 
Q 506 4122 266 4122 
L 106 4122 
L 106 4238 
L 1938 4238 
Q 2450 4238 2759 4163 
Q 3228 4050 3475 3764 
Q 3722 3478 3722 3106 
Q 3722 2788 3528 2536 
Q 3334 2284 2956 2163 
z
M 1319 2331 
Q 1434 2309 1582 2298 
Q 1731 2288 1909 2288 
Q 2366 2288 2595 2386 
Q 2825 2484 2947 2687 
Q 3069 2891 3069 3131 
Q 3069 3503 2766 3765 
Q 2463 4028 1881 4028 
Q 1569 4028 1319 3959 
L 1319 2331 
z
M 1319 306 
Q 1681 222 2034 222 
Q 2600 222 2897 476 
Q 3194 731 3194 1106 
Q 3194 1353 3059 1581 
Q 2925 1809 2622 1940 
Q 2319 2072 1872 2072 
Q 1678 2072 1540 2065 
Q 1403 2059 1319 2044 
L 1319 306 
z
" transform="scale(0.015625)"/>
       <path id="TimesNewRomanPSMT-79" d="M 38 2863 
L 1372 2863 
L 1372 2747 
L 1306 2747 
Q 1166 2747 1095 2686 
Q 1025 2625 1025 2534 
Q 1025 2413 1128 2197 
L 1825 753 
L 2466 2334 
Q 2519 2463 2519 2588 
Q 2519 2644 2497 2672 
Q 2472 2706 2419 2726 
Q 2366 2747 2231 2747 
L 2231 2863 
L 3163 2863 
L 3163 2747 
Q 3047 2734 2984 2696 
Q 2922 2659 2847 2556 
Q 2819 2513 2741 2316 
L 1575 -541 
Q 1406 -956 1132 -1168 
Q 859 -1381 606 -1381 
Q 422 -1381 303 -1275 
Q 184 -1169 184 -1031 
Q 184 -900 270 -820 
Q 356 -741 506 -741 
Q 609 -741 788 -809 
Q 913 -856 944 -856 
Q 1038 -856 1148 -759 
Q 1259 -663 1372 -384 
L 1575 113 
L 547 2272 
Q 500 2369 397 2513 
Q 319 2622 269 2659 
Q 197 2709 38 2747 
L 38 2863 
z
" transform="scale(0.015625)"/>
      </defs>
      <use xlink:href="#TimesNewRomanPSMT-52"/>
      <use xlink:href="#TimesNewRomanPSMT-75" transform="translate(66.699219 0)"/>
      <use xlink:href="#TimesNewRomanPSMT-72" transform="translate(116.699219 0)"/>
      <use xlink:href="#TimesNewRomanPSMT-61" transform="translate(150 0)"/>
      <use xlink:href="#TimesNewRomanPSMT-6c" transform="translate(194.384766 0)"/>
      <use xlink:href="#TimesNewRomanPSMT-20" transform="translate(222.167969 0)"/>
      <use xlink:href="#TimesNewRomanPSMT-42" transform="translate(247.167969 0)"/>
      <use xlink:href="#TimesNewRomanPSMT-75" transform="translate(313.867188 0)"/>
      <use xlink:href="#TimesNewRomanPSMT-79" transform="translate(363.867188 0)"/>
      <use xlink:href="#TimesNewRomanPSMT-65" transform="translate(413.867188 0)"/>
      <use xlink:href="#TimesNewRomanPSMT-72" transform="translate(458.251953 0)"/>
      <use xlink:href="#TimesNewRomanPSMT-73" transform="translate(491.552734 0)"/>
     </g>
    </g>
    <g id="patch_8">
     <path d="M 415.667927 185.349375 
L 435.667927 185.349375 
L 435.667927 178.349375 
L 415.667927 178.349375 
z
" style="fill: #aec7e8"/>
    </g>
    <g id="text_19">
     <!-- Luxury Consumers -->
     <g transform="translate(443.667927 185.349375) scale(0.1 -0.1)">
      <defs>
       <path id="TimesNewRomanPSMT-4c" d="M 3669 1172 
L 3772 1150 
L 3409 0 
L 128 0 
L 128 116 
L 288 116 
Q 556 116 672 291 
Q 738 391 738 753 
L 738 3488 
Q 738 3884 650 3984 
Q 528 4122 288 4122 
L 128 4122 
L 128 4238 
L 2047 4238 
L 2047 4122 
Q 1709 4125 1573 4059 
Q 1438 3994 1388 3894 
Q 1338 3794 1338 3416 
L 1338 753 
Q 1338 494 1388 397 
Q 1425 331 1503 300 
Q 1581 269 1991 269 
L 2300 269 
Q 2788 269 2984 341 
Q 3181 413 3343 595 
Q 3506 778 3669 1172 
z
" transform="scale(0.015625)"/>
       <path id="TimesNewRomanPSMT-78" d="M 84 2863 
L 1431 2863 
L 1431 2747 
Q 1303 2747 1251 2703 
Q 1200 2659 1200 2588 
Q 1200 2513 1309 2356 
Q 1344 2306 1413 2200 
L 1616 1875 
L 1850 2200 
Q 2075 2509 2075 2591 
Q 2075 2656 2022 2701 
Q 1969 2747 1850 2747 
L 1850 2863 
L 2819 2863 
L 2819 2747 
Q 2666 2738 2553 2663 
Q 2400 2556 2134 2200 
L 1744 1678 
L 2456 653 
Q 2719 275 2831 198 
Q 2944 122 3122 113 
L 3122 0 
L 1772 0 
L 1772 113 
Q 1913 113 1991 175 
Q 2050 219 2050 291 
Q 2050 363 1850 653 
L 1431 1266 
L 972 653 
Q 759 369 759 316 
Q 759 241 829 180 
Q 900 119 1041 113 
L 1041 0 
L 106 0 
L 106 113 
Q 219 128 303 191 
Q 422 281 703 653 
L 1303 1450 
L 759 2238 
Q 528 2575 401 2661 
Q 275 2747 84 2747 
L 84 2863 
z
" transform="scale(0.015625)"/>
       <path id="TimesNewRomanPSMT-43" d="M 3853 4334 
L 3950 2894 
L 3853 2894 
Q 3659 3541 3300 3825 
Q 2941 4109 2438 4109 
Q 2016 4109 1675 3895 
Q 1334 3681 1139 3212 
Q 944 2744 944 2047 
Q 944 1472 1128 1050 
Q 1313 628 1683 403 
Q 2053 178 2528 178 
Q 2941 178 3256 354 
Q 3572 531 3950 1056 
L 4047 994 
Q 3728 428 3303 165 
Q 2878 -97 2294 -97 
Q 1241 -97 663 684 
Q 231 1266 231 2053 
Q 231 2688 515 3219 
Q 800 3750 1298 4042 
Q 1797 4334 2388 4334 
Q 2847 4334 3294 4109 
Q 3425 4041 3481 4041 
Q 3566 4041 3628 4100 
Q 3709 4184 3744 4334 
L 3853 4334 
z
" transform="scale(0.015625)"/>
      </defs>
      <use xlink:href="#TimesNewRomanPSMT-4c"/>
      <use xlink:href="#TimesNewRomanPSMT-75" transform="translate(61.083984 0)"/>
      <use xlink:href="#TimesNewRomanPSMT-78" transform="translate(111.083984 0)"/>
      <use xlink:href="#TimesNewRomanPSMT-75" transform="translate(161.083984 0)"/>
      <use xlink:href="#TimesNewRomanPSMT-72" transform="translate(211.083984 0)"/>
      <use xlink:href="#TimesNewRomanPSMT-79" transform="translate(244.384766 0)"/>
      <use xlink:href="#TimesNewRomanPSMT-20" transform="translate(294.384766 0)"/>
      <use xlink:href="#TimesNewRomanPSMT-43" transform="translate(319.384766 0)"/>
      <use xlink:href="#TimesNewRomanPSMT-6f" transform="translate(386.083984 0)"/>
      <use xlink:href="#TimesNewRomanPSMT-6e" transform="translate(436.083984 0)"/>
      <use xlink:href="#TimesNewRomanPSMT-73" transform="translate(486.083984 0)"/>
      <use xlink:href="#TimesNewRomanPSMT-75" transform="translate(525 0)"/>
      <use xlink:href="#TimesNewRomanPSMT-6d" transform="translate(575 0)"/>
      <use xlink:href="#TimesNewRomanPSMT-65" transform="translate(652.783203 0)"/>
      <use xlink:href="#TimesNewRomanPSMT-72" transform="translate(697.167969 0)"/>
      <use xlink:href="#TimesNewRomanPSMT-73" transform="translate(730.46875 0)"/>
     </g>
    </g>
   </g>
  </g>
 </g>
 <defs>
  <clipPath id="pf0ab4b9f36">
   <rect x="10.091927" y="37.249375" width="388.8" height="277.2"/>
  </clipPath>
 </defs>
</svg>
