<?xml version="1.0" encoding="utf-8" standalone="no"?>
<!DOCTYPE svg PUBLIC "-//W3C//DTD SVG 1.1//EN"
  "http://www.w3.org/Graphics/SVG/1.1/DTD/svg11.dtd">
<svg xmlns:xlink="http://www.w3.org/1999/xlink" width="520.692927pt" height="364.113404pt" viewBox="0 0 520.692927 364.113404" xmlns="http://www.w3.org/2000/svg" version="1.1">
 <metadata>
  <rdf:RDF xmlns:dc="http://purl.org/dc/elements/1.1/" xmlns:cc="http://creativecommons.org/ns#" xmlns:rdf="http://www.w3.org/1999/02/22-rdf-syntax-ns#">
   <cc:Work>
    <dc:type rdf:resource="http://purl.org/dc/dcmitype/StillImage"/>
    <dc:date>2025-05-31T00:07:45.590187</dc:date>
    <dc:format>image/svg+xml</dc:format>
    <dc:creator>
     <cc:Agent>
      <dc:title>Matplotlib v3.10.3, https://matplotlib.org/</dc:title>
     </cc:Agent>
    </dc:creator>
   </cc:Work>
  </rdf:RDF>
 </metadata>
 <defs>
  <style type="text/css">*{stroke-linejoin: round; stroke-linecap: butt}</style>
 </defs>
 <g id="figure_1">
  <g id="patch_1">
   <path d="M 0 364.113404 
L 520.692927 364.113404 
L 520.692927 0 
L 0 0 
z
" style="fill: #ffffff"/>
  </g>
  <g id="axes_1">
   <g id="patch_2">
    <path d="M 10.091927 314.449375 
L 398.891927 314.449375 
L 398.891927 37.249375 
L 10.091927 37.249375 
z
" style="fill: #ffffff"/>
   </g>
   <g id="FillBetweenPolyCollection_1">
    <path d="M 27.764654 221.233286 
L 27.764654 283.751072 
L 31.334902 286.216243 
L 34.90515 288.149533 
L 38.475398 289.590216 
L 42.045646 290.577568 
L 45.615894 291.150863 
L 49.186142 291.349375 
L 52.756389 291.212379 
L 56.326637 290.779151 
L 59.896885 290.088963 
L 63.467133 289.181092 
L 67.037381 288.094812 
L 70.607629 286.869398 
L 74.177877 285.544123 
L 77.748125 284.158264 
L 81.318373 282.751094 
L 84.888621 281.361888 
L 88.458869 280.029921 
L 92.029117 278.794468 
L 95.599365 277.694802 
L 99.169613 276.7702 
L 102.739861 276.059935 
L 106.310108 275.603283 
L 109.880356 275.423093 
L 113.450604 275.476521 
L 117.020852 275.704297 
L 120.5911 276.047151 
L 124.161348 276.445814 
L 127.731596 276.841016 
L 131.301844 277.173487 
L 134.872092 277.383959 
L 138.44234 277.413162 
L 142.012588 277.201825 
L 145.582836 276.690681 
L 149.153084 275.843713 
L 152.723332 274.717924 
L 156.29358 273.393573 
L 159.863827 271.950918 
L 163.434075 270.470215 
L 167.004323 269.031723 
L 170.574571 267.715699 
L 174.144819 266.602401 
L 177.715067 265.772086 
L 181.285315 265.305013 
L 184.855563 265.281439 
L 188.425811 265.75574 
L 191.996059 266.678762 
L 195.566307 267.97547 
L 199.136555 269.570829 
L 202.706803 271.389804 
L 206.277051 273.35736 
L 209.847299 275.398461 
L 213.417546 277.438072 
L 216.987794 279.401158 
L 220.558042 281.212684 
L 224.12829 282.797613 
L 227.698538 284.094934 
L 231.268786 285.099717 
L 234.839034 285.821057 
L 238.409282 286.268048 
L 241.97953 286.449782 
L 245.549778 286.375355 
L 249.120026 286.053859 
L 252.690274 285.494388 
L 256.260522 284.706036 
L 259.83077 283.697897 
L 263.401018 282.479065 
L 266.971266 281.067829 
L 270.541513 279.519265 
L 274.111761 277.897643 
L 277.682009 276.267234 
L 281.252257 274.69231 
L 284.822505 273.237141 
L 288.392753 271.965999 
L 291.963001 270.943154 
L 295.533249 270.232878 
L 299.103497 269.899442 
L 302.673745 270.007116 
L 306.243993 270.595474 
L 309.814241 271.605297 
L 313.384489 272.952668 
L 316.954737 274.55367 
L 320.524985 276.324387 
L 324.095232 278.1809 
L 327.66548 280.039295 
L 331.235728 281.815653 
L 334.805976 283.426059 
L 338.376224 284.786594 
L 341.946472 285.813343 
L 345.51672 286.422388 
L 349.086968 286.529812 
L 352.657216 286.0517 
L 356.227464 284.904133 
L 359.797712 283.003195 
L 363.36796 280.26497 
L 366.938208 276.60554 
L 370.508456 271.940988 
L 374.078704 266.187398 
L 377.648951 259.260853 
L 381.219199 251.077436 
L 381.219199 238.927624 
L 381.219199 238.927624 
L 377.648951 241.531751 
L 374.078704 243.556875 
L 370.508456 245.055796 
L 366.938208 246.081313 
L 363.36796 246.686226 
L 359.797712 246.923333 
L 356.227464 246.845436 
L 352.657216 246.505332 
L 349.086968 245.955821 
L 345.51672 245.249703 
L 341.946472 244.439778 
L 338.376224 243.578844 
L 334.805976 242.7197 
L 331.235728 241.915147 
L 327.66548 241.217984 
L 324.095232 240.68101 
L 320.524985 240.357025 
L 316.954737 240.298827 
L 313.384489 240.559217 
L 309.814241 241.190994 
L 306.243993 242.246957 
L 302.673745 243.779905 
L 299.103497 245.811764 
L 295.533249 248.240956 
L 291.963001 250.935031 
L 288.392753 253.761538 
L 284.822505 256.588025 
L 281.252257 259.282041 
L 277.682009 261.711136 
L 274.111761 263.742858 
L 270.541513 265.244755 
L 266.971266 266.084378 
L 263.401018 266.129274 
L 259.83077 265.291807 
L 256.260522 263.663604 
L 252.690274 261.381104 
L 249.120026 258.580748 
L 245.549778 255.398977 
L 241.97953 251.972229 
L 238.409282 248.436948 
L 234.839034 244.929571 
L 231.268786 241.586541 
L 227.698538 238.544297 
L 224.12829 235.93928 
L 220.558042 233.877177 
L 216.987794 232.340663 
L 213.417546 231.281657 
L 209.847299 230.652081 
L 206.277051 230.403855 
L 202.706803 230.488901 
L 199.136555 230.859138 
L 195.566307 231.466489 
L 191.996059 232.262873 
L 188.425811 233.200212 
L 184.855563 234.230426 
L 181.285315 235.306584 
L 177.715067 236.38635 
L 174.144819 237.428536 
L 170.574571 238.391953 
L 167.004323 239.235414 
L 163.434075 239.91773 
L 159.863827 240.397713 
L 156.29358 240.634175 
L 152.723332 240.585928 
L 149.153084 240.211784 
L 145.582836 239.470555 
L 142.012588 238.342861 
L 138.44234 236.896562 
L 134.872092 235.221325 
L 131.301844 233.406819 
L 127.731596 231.542712 
L 124.161348 229.718671 
L 120.5911 228.024365 
L 117.020852 226.549463 
L 113.450604 225.383631 
L 109.880356 224.616538 
L 106.310108 224.337852 
L 102.739861 224.608877 
L 99.169613 225.377456 
L 95.599365 226.563068 
L 92.029117 228.085193 
L 88.458869 229.86331 
L 84.888621 231.816897 
L 81.318373 233.865434 
L 77.748125 235.928401 
L 74.177877 237.925275 
L 70.607629 239.775537 
L 67.037381 241.398665 
L 63.467133 242.714139 
L 59.896885 243.641437 
L 56.326637 244.100039 
L 52.756389 244.009424 
L 49.186142 243.289071 
L 45.615894 241.858459 
L 42.045646 239.637067 
L 38.475398 236.544375 
L 34.90515 232.499862 
L 31.334902 227.423005 
L 27.764654 221.233286 
z
" clip-path="url(#p4f8ac4d9a8)" style="fill: #1f77b4"/>
   </g>
   <g id="FillBetweenPolyCollection_2">
    <path d="M 27.764654 185.004902 
L 27.764654 221.233286 
L 31.334902 227.423005 
L 34.90515 232.499862 
L 38.475398 236.544375 
L 42.045646 239.637067 
L 45.615894 241.858459 
L 49.186142 243.289071 
L 52.756389 244.009424 
L 56.326637 244.100039 
L 59.896885 243.641437 
L 63.467133 242.714139 
L 67.037381 241.398665 
L 70.607629 239.775537 
L 74.177877 237.925275 
L 77.748125 235.928401 
L 81.318373 233.865434 
L 84.888621 231.816897 
L 88.458869 229.86331 
L 92.029117 228.085193 
L 95.599365 226.563068 
L 99.169613 225.377456 
L 102.739861 224.608877 
L 106.310108 224.337852 
L 109.880356 224.616538 
L 113.450604 225.383631 
L 117.020852 226.549463 
L 120.5911 228.024365 
L 124.161348 229.718671 
L 127.731596 231.542712 
L 131.301844 233.406819 
L 134.872092 235.221325 
L 138.44234 236.896562 
L 142.012588 238.342861 
L 145.582836 239.470555 
L 149.153084 240.211784 
L 152.723332 240.585928 
L 156.29358 240.634175 
L 159.863827 240.397713 
L 163.434075 239.91773 
L 167.004323 239.235414 
L 170.574571 238.391953 
L 174.144819 237.428536 
L 177.715067 236.38635 
L 181.285315 235.306584 
L 184.855563 234.230426 
L 188.425811 233.200212 
L 191.996059 232.262873 
L 195.566307 231.466489 
L 199.136555 230.859138 
L 202.706803 230.488901 
L 206.277051 230.403855 
L 209.847299 230.652081 
L 213.417546 231.281657 
L 216.987794 232.340663 
L 220.558042 233.877177 
L 224.12829 235.93928 
L 227.698538 238.544297 
L 231.268786 241.586541 
L 234.839034 244.929571 
L 238.409282 248.436948 
L 241.97953 251.972229 
L 245.549778 255.398977 
L 249.120026 258.580748 
L 252.690274 261.381104 
L 256.260522 263.663604 
L 259.83077 265.291807 
L 263.401018 266.129274 
L 266.971266 266.084378 
L 270.541513 265.244755 
L 274.111761 263.742858 
L 277.682009 261.711136 
L 281.252257 259.282041 
L 284.822505 256.588025 
L 288.392753 253.761538 
L 291.963001 250.935031 
L 295.533249 248.240956 
L 299.103497 245.811764 
L 302.673745 243.779905 
L 306.243993 242.246957 
L 309.814241 241.190994 
L 313.384489 240.559217 
L 316.954737 240.298827 
L 320.524985 240.357025 
L 324.095232 240.68101 
L 327.66548 241.217984 
L 331.235728 241.915147 
L 334.805976 242.7197 
L 338.376224 243.578844 
L 341.946472 244.439778 
L 345.51672 245.249703 
L 349.086968 245.955821 
L 352.657216 246.505332 
L 356.227464 246.845436 
L 359.797712 246.923333 
L 363.36796 246.686226 
L 366.938208 246.081313 
L 370.508456 245.055796 
L 374.078704 243.556875 
L 377.648951 241.531751 
L 381.219199 238.927624 
L 381.219199 223.166112 
L 381.219199 223.166112 
L 377.648951 217.208017 
L 374.078704 211.97311 
L 370.508456 207.432221 
L 366.938208 203.55618 
L 363.36796 200.315817 
L 359.797712 197.681961 
L 356.227464 195.625443 
L 352.657216 194.117092 
L 349.086968 193.127739 
L 345.51672 192.628213 
L 341.946472 192.589344 
L 338.376224 192.981962 
L 334.805976 193.776898 
L 331.235728 194.94498 
L 327.66548 196.457039 
L 324.095232 198.283905 
L 320.524985 200.396407 
L 316.954737 202.765376 
L 313.384489 205.361641 
L 309.814241 208.156033 
L 306.243993 211.11938 
L 302.673745 214.222514 
L 299.103497 217.421584 
L 295.533249 220.614016 
L 291.963001 223.682556 
L 288.392753 226.509952 
L 284.822505 228.978949 
L 281.252257 230.972293 
L 277.682009 232.372732 
L 274.111761 233.063011 
L 270.541513 232.925877 
L 266.971266 231.844076 
L 263.401018 229.700355 
L 259.83077 226.432847 
L 256.260522 222.201236 
L 252.690274 217.220594 
L 249.120026 211.705994 
L 245.549778 205.872506 
L 241.97953 199.935202 
L 238.409282 194.109155 
L 234.839034 188.609435 
L 231.268786 183.651115 
L 227.698538 179.449266 
L 224.12829 176.21896 
L 220.558042 174.116069 
L 216.987794 173.059668 
L 213.417546 172.90963 
L 209.847299 173.525831 
L 206.277051 174.768145 
L 202.706803 176.496447 
L 199.136555 178.570611 
L 195.566307 180.850512 
L 191.996059 183.196024 
L 188.425811 185.467022 
L 184.855563 187.523381 
L 181.285315 189.251108 
L 177.715067 190.64074 
L 174.144819 191.708948 
L 170.574571 192.472401 
L 167.004323 192.947771 
L 163.434075 193.151727 
L 159.863827 193.10094 
L 156.29358 192.81208 
L 152.723332 192.301817 
L 149.153084 191.586821 
L 145.582836 190.683762 
L 142.012588 189.616239 
L 138.44234 188.435561 
L 134.872092 187.199965 
L 131.301844 185.967687 
L 127.731596 184.796965 
L 124.161348 183.746035 
L 120.5911 182.873135 
L 117.020852 182.236501 
L 113.450604 181.894371 
L 109.880356 181.904981 
L 106.310108 182.326569 
L 102.739861 183.195916 
L 99.169613 184.463989 
L 95.599365 186.060298 
L 92.029117 187.914355 
L 88.458869 189.955671 
L 84.888621 192.113756 
L 81.318373 194.318123 
L 77.748125 196.498282 
L 74.177877 198.583743 
L 70.607629 200.50402 
L 67.037381 202.188621 
L 63.467133 203.56706 
L 59.896885 204.568846 
L 56.326637 205.123491 
L 52.756389 205.160505 
L 49.186142 204.609401 
L 45.615894 203.399689 
L 42.045646 201.460881 
L 38.475398 198.722487 
L 34.90515 195.114018 
L 31.334902 190.564986 
L 27.764654 185.004902 
z
" clip-path="url(#p4f8ac4d9a8)" style="fill: #aec7e8"/>
   </g>
   <g id="FillBetweenPolyCollection_3">
    <path d="M 27.764654 129.345998 
L 27.764654 185.004902 
L 31.334902 190.564986 
L 34.90515 195.114018 
L 38.475398 198.722487 
L 42.045646 201.460881 
L 45.615894 203.399689 
L 49.186142 204.609401 
L 52.756389 205.160505 
L 56.326637 205.123491 
L 59.896885 204.568846 
L 63.467133 203.56706 
L 67.037381 202.188621 
L 70.607629 200.50402 
L 74.177877 198.583743 
L 77.748125 196.498282 
L 81.318373 194.318123 
L 84.888621 192.113756 
L 88.458869 189.955671 
L 92.029117 187.914355 
L 95.599365 186.060298 
L 99.169613 184.463989 
L 102.739861 183.195916 
L 106.310108 182.326569 
L 109.880356 181.904981 
L 113.450604 181.894371 
L 117.020852 182.236501 
L 120.5911 182.873135 
L 124.161348 183.746035 
L 127.731596 184.796965 
L 131.301844 185.967687 
L 134.872092 187.199965 
L 138.44234 188.435561 
L 142.012588 189.616239 
L 145.582836 190.683762 
L 149.153084 191.586821 
L 152.723332 192.301817 
L 156.29358 192.81208 
L 159.863827 193.10094 
L 163.434075 193.151727 
L 167.004323 192.947771 
L 170.574571 192.472401 
L 174.144819 191.708948 
L 177.715067 190.64074 
L 181.285315 189.251108 
L 184.855563 187.523381 
L 188.425811 185.467022 
L 191.996059 183.196024 
L 195.566307 180.850512 
L 199.136555 178.570611 
L 202.706803 176.496447 
L 206.277051 174.768145 
L 209.847299 173.525831 
L 213.417546 172.90963 
L 216.987794 173.059668 
L 220.558042 174.116069 
L 224.12829 176.21896 
L 227.698538 179.449266 
L 231.268786 183.651115 
L 234.839034 188.609435 
L 238.409282 194.109155 
L 241.97953 199.935202 
L 245.549778 205.872506 
L 249.120026 211.705994 
L 252.690274 217.220594 
L 256.260522 222.201236 
L 259.83077 226.432847 
L 263.401018 229.700355 
L 266.971266 231.844076 
L 270.541513 232.925877 
L 274.111761 233.063011 
L 277.682009 232.372732 
L 281.252257 230.972293 
L 284.822505 228.978949 
L 288.392753 226.509952 
L 291.963001 223.682556 
L 295.533249 220.614016 
L 299.103497 217.421584 
L 302.673745 214.222514 
L 306.243993 211.11938 
L 309.814241 208.156033 
L 313.384489 205.361641 
L 316.954737 202.765376 
L 320.524985 200.396407 
L 324.095232 198.283905 
L 327.66548 196.457039 
L 331.235728 194.94498 
L 334.805976 193.776898 
L 338.376224 192.981962 
L 341.946472 192.589344 
L 345.51672 192.628213 
L 349.086968 193.127739 
L 352.657216 194.117092 
L 356.227464 195.625443 
L 359.797712 197.681961 
L 363.36796 200.315817 
L 366.938208 203.55618 
L 370.508456 207.432221 
L 374.078704 211.97311 
L 377.648951 217.208017 
L 381.219199 223.166112 
L 381.219199 148.582789 
L 381.219199 148.582789 
L 377.648951 137.698574 
L 374.078704 128.727626 
L 370.508456 121.543265 
L 366.938208 116.018813 
L 363.36796 112.027593 
L 359.797712 109.442926 
L 356.227464 108.138133 
L 352.657216 107.986538 
L 349.086968 108.861461 
L 345.51672 110.636224 
L 341.946472 113.184149 
L 338.376224 116.378558 
L 334.805976 120.092772 
L 331.235728 124.200114 
L 327.66548 128.573906 
L 324.095232 133.087468 
L 320.524985 137.614122 
L 316.954737 142.027192 
L 313.384489 146.199998 
L 309.814241 150.005861 
L 306.243993 153.318105 
L 302.673745 156.010051 
L 299.103497 157.987137 
L 295.533249 159.283274 
L 291.963001 159.964487 
L 288.392753 160.096805 
L 284.822505 159.746254 
L 281.252257 158.97886 
L 277.682009 157.860651 
L 274.111761 156.457653 
L 270.541513 154.835893 
L 266.971266 153.061399 
L 263.401018 151.200196 
L 259.83077 149.310492 
L 256.260522 147.419214 
L 252.690274 145.545469 
L 249.120026 143.708365 
L 245.549778 141.927008 
L 241.97953 140.220507 
L 238.409282 138.607968 
L 234.839034 137.108499 
L 231.268786 135.741207 
L 227.698538 134.525199 
L 224.12829 133.479583 
L 220.558042 132.61431 
L 216.987794 131.902713 
L 213.417546 131.308967 
L 209.847299 130.797249 
L 206.277051 130.331735 
L 202.706803 129.876601 
L 199.136555 129.396024 
L 195.566307 128.854179 
L 191.996059 128.215244 
L 188.425811 127.443395 
L 184.855563 126.502807 
L 181.285315 125.375339 
L 177.715067 124.113579 
L 174.144819 122.787796 
L 170.574571 121.468259 
L 167.004323 120.225239 
L 163.434075 119.129003 
L 159.863827 118.249823 
L 156.29358 117.657967 
L 152.723332 117.423704 
L 149.153084 117.617305 
L 145.582836 118.309038 
L 142.012588 119.539612 
L 138.44234 121.231489 
L 134.872092 123.27757 
L 131.301844 125.570755 
L 127.731596 128.003945 
L 124.161348 130.470041 
L 120.5911 132.861943 
L 117.020852 135.072553 
L 113.450604 136.994771 
L 109.880356 138.521498 
L 106.310108 139.545634 
L 102.739861 139.989307 
L 99.169613 139.891543 
L 95.599365 139.320598 
L 92.029117 138.344726 
L 88.458869 137.032179 
L 84.888621 135.451214 
L 81.318373 133.670083 
L 77.748125 131.75704 
L 74.177877 129.78034 
L 70.607629 127.808236 
L 67.037381 125.908984 
L 63.467133 124.150835 
L 59.896885 122.602046 
L 56.326637 121.330869 
L 52.756389 120.405559 
L 49.186142 119.89437 
L 45.615894 119.865556 
L 42.045646 120.38737 
L 38.475398 121.528068 
L 34.90515 123.355902 
L 31.334902 125.939128 
L 27.764654 129.345998 
z
" clip-path="url(#p4f8ac4d9a8)" style="fill: #ff7f0e"/>
   </g>
   <g id="FillBetweenPolyCollection_4">
    <path d="M 27.764654 67.947678 
L 27.764654 129.345998 
L 31.334902 125.939128 
L 34.90515 123.355902 
L 38.475398 121.528068 
L 42.045646 120.38737 
L 45.615894 119.865556 
L 49.186142 119.89437 
L 52.756389 120.405559 
L 56.326637 121.330869 
L 59.896885 122.602046 
L 63.467133 124.150835 
L 67.037381 125.908984 
L 70.607629 127.808236 
L 74.177877 129.78034 
L 77.748125 131.75704 
L 81.318373 133.670083 
L 84.888621 135.451214 
L 88.458869 137.032179 
L 92.029117 138.344726 
L 95.599365 139.320598 
L 99.169613 139.891543 
L 102.739861 139.989307 
L 106.310108 139.545634 
L 109.880356 138.521498 
L 113.450604 136.994771 
L 117.020852 135.072553 
L 120.5911 132.861943 
L 124.161348 130.470041 
L 127.731596 128.003945 
L 131.301844 125.570755 
L 134.872092 123.27757 
L 138.44234 121.231489 
L 142.012588 119.539612 
L 145.582836 118.309038 
L 149.153084 117.617305 
L 152.723332 117.423704 
L 156.29358 117.657967 
L 159.863827 118.249823 
L 163.434075 119.129003 
L 167.004323 120.225239 
L 170.574571 121.468259 
L 174.144819 122.787796 
L 177.715067 124.113579 
L 181.285315 125.375339 
L 184.855563 126.502807 
L 188.425811 127.443395 
L 191.996059 128.215244 
L 195.566307 128.854179 
L 199.136555 129.396024 
L 202.706803 129.876601 
L 206.277051 130.331735 
L 209.847299 130.797249 
L 213.417546 131.308967 
L 216.987794 131.902713 
L 220.558042 132.61431 
L 224.12829 133.479583 
L 227.698538 134.525199 
L 231.268786 135.741207 
L 234.839034 137.108499 
L 238.409282 138.607968 
L 241.97953 140.220507 
L 245.549778 141.927008 
L 249.120026 143.708365 
L 252.690274 145.545469 
L 256.260522 147.419214 
L 259.83077 149.310492 
L 263.401018 151.200196 
L 266.971266 153.061399 
L 270.541513 154.835893 
L 274.111761 156.457653 
L 277.682009 157.860651 
L 281.252257 158.97886 
L 284.822505 159.746254 
L 288.392753 160.096805 
L 291.963001 159.964487 
L 295.533249 159.283274 
L 299.103497 157.987137 
L 302.673745 156.010051 
L 306.243993 153.318105 
L 309.814241 150.005861 
L 313.384489 146.199998 
L 316.954737 142.027192 
L 320.524985 137.614122 
L 324.095232 133.087468 
L 327.66548 128.573906 
L 331.235728 124.200114 
L 334.805976 120.092772 
L 338.376224 116.378558 
L 341.946472 113.184149 
L 345.51672 110.636224 
L 349.086968 108.861461 
L 352.657216 107.986538 
L 356.227464 108.138133 
L 359.797712 109.442926 
L 363.36796 112.027593 
L 366.938208 116.018813 
L 370.508456 121.543265 
L 374.078704 128.727626 
L 377.648951 137.698574 
L 381.219199 148.582789 
L 381.219199 100.621314 
L 381.219199 100.621314 
L 377.648951 92.437897 
L 374.078704 85.511352 
L 370.508456 79.757762 
L 366.938208 75.09321 
L 363.36796 71.43378 
L 359.797712 68.695555 
L 356.227464 66.794617 
L 352.657216 65.64705 
L 349.086968 65.168938 
L 345.51672 65.276362 
L 341.946472 65.885407 
L 338.376224 66.912156 
L 334.805976 68.272691 
L 331.235728 69.883097 
L 327.66548 71.659455 
L 324.095232 73.51785 
L 320.524985 75.374363 
L 316.954737 77.14508 
L 313.384489 78.746082 
L 309.814241 80.093453 
L 306.243993 81.103276 
L 302.673745 81.691634 
L 299.103497 81.799308 
L 295.533249 81.465872 
L 291.963001 80.755596 
L 288.392753 79.732751 
L 284.822505 78.461609 
L 281.252257 77.00644 
L 277.682009 75.431516 
L 274.111761 73.801107 
L 270.541513 72.179485 
L 266.971266 70.630921 
L 263.401018 69.219685 
L 259.83077 68.000853 
L 256.260522 66.992714 
L 252.690274 66.204362 
L 249.120026 65.644891 
L 245.549778 65.323395 
L 241.97953 65.248968 
L 238.409282 65.430702 
L 234.839034 65.877693 
L 231.268786 66.599033 
L 227.698538 67.603816 
L 224.12829 68.901137 
L 220.558042 70.486066 
L 216.987794 72.297592 
L 213.417546 74.260678 
L 209.847299 76.300289 
L 206.277051 78.34139 
L 202.706803 80.308946 
L 199.136555 82.127921 
L 195.566307 83.72328 
L 191.996059 85.019988 
L 188.425811 85.94301 
L 184.855563 86.417311 
L 181.285315 86.393737 
L 177.715067 85.926664 
L 174.144819 85.096349 
L 170.574571 83.983051 
L 167.004323 82.667027 
L 163.434075 81.228535 
L 159.863827 79.747832 
L 156.29358 78.305177 
L 152.723332 76.980826 
L 149.153084 75.855037 
L 145.582836 75.008069 
L 142.012588 74.496925 
L 138.44234 74.285588 
L 134.872092 74.314791 
L 131.301844 74.525263 
L 127.731596 74.857734 
L 124.161348 75.252936 
L 120.5911 75.651599 
L 117.020852 75.994453 
L 113.450604 76.222229 
L 109.880356 76.275657 
L 106.310108 76.095467 
L 102.739861 75.638815 
L 99.169613 74.92855 
L 95.599365 74.003948 
L 92.029117 72.904282 
L 88.458869 71.668829 
L 84.888621 70.336862 
L 81.318373 68.947656 
L 77.748125 67.540486 
L 74.177877 66.154627 
L 70.607629 64.829352 
L 67.037381 63.603938 
L 63.467133 62.517658 
L 59.896885 61.609787 
L 56.326637 60.919599 
L 52.756389 60.486371 
L 49.186142 60.349375 
L 45.615894 60.547887 
L 42.045646 61.121182 
L 38.475398 62.108534 
L 34.90515 63.549217 
L 31.334902 65.482507 
L 27.764654 67.947678 
z
" clip-path="url(#p4f8ac4d9a8)" style="fill: #ffbb78"/>
   </g>
   <g id="matplotlib.axis_1">
    <g id="xtick_1">
     <g id="line2d_1">
      <defs>
       <path id="m4665b5d25f" d="M 0 0 
L 0 3.5 
" style="stroke: #000000; stroke-width: 0.8"/>
      </defs>
      <g>
       <use xlink:href="#m4665b5d25f" x="27.764654" y="314.449375" style="stroke: #000000; stroke-width: 0.8"/>
      </g>
     </g>
     <g id="text_1">
      <!-- 1969 -->
      <g transform="translate(12.109973 340.501483) rotate(-45) scale(0.1 -0.1)">
       <defs>
        <path id="TimesNewRomanPSMT-31" d="M 750 3822 
L 1781 4325 
L 1884 4325 
L 1884 747 
Q 1884 391 1914 303 
Q 1944 216 2037 169 
Q 2131 122 2419 116 
L 2419 0 
L 825 0 
L 825 116 
Q 1125 122 1212 167 
Q 1300 213 1334 289 
Q 1369 366 1369 747 
L 1369 3034 
Q 1369 3497 1338 3628 
Q 1316 3728 1258 3775 
Q 1200 3822 1119 3822 
Q 1003 3822 797 3725 
L 750 3822 
z
" transform="scale(0.015625)"/>
        <path id="TimesNewRomanPSMT-39" d="M 338 -88 
L 338 28 
Q 744 34 1094 217 
Q 1444 400 1770 856 
Q 2097 1313 2225 1859 
Q 1734 1544 1338 1544 
Q 891 1544 572 1889 
Q 253 2234 253 2806 
Q 253 3363 572 3797 
Q 956 4325 1575 4325 
Q 2097 4325 2469 3894 
Q 2925 3359 2925 2575 
Q 2925 1869 2578 1258 
Q 2231 647 1613 244 
Q 1109 -88 516 -88 
L 338 -88 
z
M 2275 2091 
Q 2331 2497 2331 2741 
Q 2331 3044 2228 3395 
Q 2125 3747 1936 3934 
Q 1747 4122 1506 4122 
Q 1228 4122 1018 3872 
Q 809 3622 809 3128 
Q 809 2469 1088 2097 
Q 1291 1828 1588 1828 
Q 1731 1828 1928 1897 
Q 2125 1966 2275 2091 
z
" transform="scale(0.015625)"/>
        <path id="TimesNewRomanPSMT-36" d="M 2869 4325 
L 2869 4209 
Q 2456 4169 2195 4045 
Q 1934 3922 1679 3669 
Q 1425 3416 1258 3105 
Q 1091 2794 978 2366 
Q 1428 2675 1881 2675 
Q 2316 2675 2634 2325 
Q 2953 1975 2953 1425 
Q 2953 894 2631 456 
Q 2244 -75 1606 -75 
Q 1172 -75 869 213 
Q 275 772 275 1663 
Q 275 2231 503 2743 
Q 731 3256 1154 3653 
Q 1578 4050 1965 4187 
Q 2353 4325 2688 4325 
L 2869 4325 
z
M 925 2138 
Q 869 1716 869 1456 
Q 869 1156 980 804 
Q 1091 453 1309 247 
Q 1469 100 1697 100 
Q 1969 100 2183 356 
Q 2397 613 2397 1088 
Q 2397 1622 2184 2012 
Q 1972 2403 1581 2403 
Q 1463 2403 1327 2353 
Q 1191 2303 925 2138 
z
" transform="scale(0.015625)"/>
       </defs>
       <use xlink:href="#TimesNewRomanPSMT-31"/>
       <use xlink:href="#TimesNewRomanPSMT-39" transform="translate(50 0)"/>
       <use xlink:href="#TimesNewRomanPSMT-36" transform="translate(100 0)"/>
       <use xlink:href="#TimesNewRomanPSMT-39" transform="translate(150 0)"/>
      </g>
     </g>
    </g>
    <g id="xtick_2">
     <g id="line2d_2">
      <g>
       <use xlink:href="#m4665b5d25f" x="67.037381" y="314.449375" style="stroke: #000000; stroke-width: 0.8"/>
      </g>
     </g>
     <g id="text_2">
      <!-- 1970 -->
      <g transform="translate(51.3827 340.501483) rotate(-45) scale(0.1 -0.1)">
       <defs>
        <path id="TimesNewRomanPSMT-37" d="M 644 4238 
L 2916 4238 
L 2916 4119 
L 1503 -88 
L 1153 -88 
L 2419 3728 
L 1253 3728 
Q 900 3728 750 3644 
Q 488 3500 328 3200 
L 238 3234 
L 644 4238 
z
" transform="scale(0.015625)"/>
        <path id="TimesNewRomanPSMT-30" d="M 231 2094 
Q 231 2819 450 3342 
Q 669 3866 1031 4122 
Q 1313 4325 1613 4325 
Q 2100 4325 2488 3828 
Q 2972 3213 2972 2159 
Q 2972 1422 2759 906 
Q 2547 391 2217 158 
Q 1888 -75 1581 -75 
Q 975 -75 572 641 
Q 231 1244 231 2094 
z
M 844 2016 
Q 844 1141 1059 588 
Q 1238 122 1591 122 
Q 1759 122 1940 273 
Q 2122 425 2216 781 
Q 2359 1319 2359 2297 
Q 2359 3022 2209 3506 
Q 2097 3866 1919 4016 
Q 1791 4119 1609 4119 
Q 1397 4119 1231 3928 
Q 1006 3669 925 3112 
Q 844 2556 844 2016 
z
" transform="scale(0.015625)"/>
       </defs>
       <use xlink:href="#TimesNewRomanPSMT-31"/>
       <use xlink:href="#TimesNewRomanPSMT-39" transform="translate(50 0)"/>
       <use xlink:href="#TimesNewRomanPSMT-37" transform="translate(100 0)"/>
       <use xlink:href="#TimesNewRomanPSMT-30" transform="translate(150 0)"/>
      </g>
     </g>
    </g>
    <g id="xtick_3">
     <g id="line2d_3">
      <g>
       <use xlink:href="#m4665b5d25f" x="106.310108" y="314.449375" style="stroke: #000000; stroke-width: 0.8"/>
      </g>
     </g>
     <g id="text_3">
      <!-- 1971 -->
      <g transform="translate(90.655427 340.501483) rotate(-45) scale(0.1 -0.1)">
       <use xlink:href="#TimesNewRomanPSMT-31"/>
       <use xlink:href="#TimesNewRomanPSMT-39" transform="translate(50 0)"/>
       <use xlink:href="#TimesNewRomanPSMT-37" transform="translate(100 0)"/>
       <use xlink:href="#TimesNewRomanPSMT-31" transform="translate(150 0)"/>
      </g>
     </g>
    </g>
    <g id="xtick_4">
     <g id="line2d_4">
      <g>
       <use xlink:href="#m4665b5d25f" x="145.582836" y="314.449375" style="stroke: #000000; stroke-width: 0.8"/>
      </g>
     </g>
     <g id="text_4">
      <!-- 1972 -->
      <g transform="translate(129.928155 340.501483) rotate(-45) scale(0.1 -0.1)">
       <defs>
        <path id="TimesNewRomanPSMT-32" d="M 2934 816 
L 2638 0 
L 138 0 
L 138 116 
Q 1241 1122 1691 1759 
Q 2141 2397 2141 2925 
Q 2141 3328 1894 3587 
Q 1647 3847 1303 3847 
Q 991 3847 742 3664 
Q 494 3481 375 3128 
L 259 3128 
Q 338 3706 661 4015 
Q 984 4325 1469 4325 
Q 1984 4325 2329 3994 
Q 2675 3663 2675 3213 
Q 2675 2891 2525 2569 
Q 2294 2063 1775 1497 
Q 997 647 803 472 
L 1909 472 
Q 2247 472 2383 497 
Q 2519 522 2628 598 
Q 2738 675 2819 816 
L 2934 816 
z
" transform="scale(0.015625)"/>
       </defs>
       <use xlink:href="#TimesNewRomanPSMT-31"/>
       <use xlink:href="#TimesNewRomanPSMT-39" transform="translate(50 0)"/>
       <use xlink:href="#TimesNewRomanPSMT-37" transform="translate(100 0)"/>
       <use xlink:href="#TimesNewRomanPSMT-32" transform="translate(150 0)"/>
      </g>
     </g>
    </g>
    <g id="xtick_5">
     <g id="line2d_5">
      <g>
       <use xlink:href="#m4665b5d25f" x="184.855563" y="314.449375" style="stroke: #000000; stroke-width: 0.8"/>
      </g>
     </g>
     <g id="text_5">
      <!-- 1973 -->
      <g transform="translate(169.200882 340.501483) rotate(-45) scale(0.1 -0.1)">
       <defs>
        <path id="TimesNewRomanPSMT-33" d="M 325 3431 
Q 506 3859 782 4092 
Q 1059 4325 1472 4325 
Q 1981 4325 2253 3994 
Q 2459 3747 2459 3466 
Q 2459 3003 1878 2509 
Q 2269 2356 2469 2072 
Q 2669 1788 2669 1403 
Q 2669 853 2319 450 
Q 1863 -75 997 -75 
Q 569 -75 414 31 
Q 259 138 259 259 
Q 259 350 332 419 
Q 406 488 509 488 
Q 588 488 669 463 
Q 722 447 909 348 
Q 1097 250 1169 231 
Q 1284 197 1416 197 
Q 1734 197 1970 444 
Q 2206 691 2206 1028 
Q 2206 1275 2097 1509 
Q 2016 1684 1919 1775 
Q 1784 1900 1550 2001 
Q 1316 2103 1072 2103 
L 972 2103 
L 972 2197 
Q 1219 2228 1467 2375 
Q 1716 2522 1828 2728 
Q 1941 2934 1941 3181 
Q 1941 3503 1739 3701 
Q 1538 3900 1238 3900 
Q 753 3900 428 3381 
L 325 3431 
z
" transform="scale(0.015625)"/>
       </defs>
       <use xlink:href="#TimesNewRomanPSMT-31"/>
       <use xlink:href="#TimesNewRomanPSMT-39" transform="translate(50 0)"/>
       <use xlink:href="#TimesNewRomanPSMT-37" transform="translate(100 0)"/>
       <use xlink:href="#TimesNewRomanPSMT-33" transform="translate(150 0)"/>
      </g>
     </g>
    </g>
    <g id="xtick_6">
     <g id="line2d_6">
      <g>
       <use xlink:href="#m4665b5d25f" x="224.12829" y="314.449375" style="stroke: #000000; stroke-width: 0.8"/>
      </g>
     </g>
     <g id="text_6">
      <!-- 1974 -->
      <g transform="translate(208.473609 340.501483) rotate(-45) scale(0.1 -0.1)">
       <defs>
        <path id="TimesNewRomanPSMT-34" d="M 2978 1563 
L 2978 1119 
L 2409 1119 
L 2409 0 
L 1894 0 
L 1894 1119 
L 100 1119 
L 100 1519 
L 2066 4325 
L 2409 4325 
L 2409 1563 
L 2978 1563 
z
M 1894 1563 
L 1894 3666 
L 406 1563 
L 1894 1563 
z
" transform="scale(0.015625)"/>
       </defs>
       <use xlink:href="#TimesNewRomanPSMT-31"/>
       <use xlink:href="#TimesNewRomanPSMT-39" transform="translate(50 0)"/>
       <use xlink:href="#TimesNewRomanPSMT-37" transform="translate(100 0)"/>
       <use xlink:href="#TimesNewRomanPSMT-34" transform="translate(150 0)"/>
      </g>
     </g>
    </g>
    <g id="xtick_7">
     <g id="line2d_7">
      <g>
       <use xlink:href="#m4665b5d25f" x="263.401018" y="314.449375" style="stroke: #000000; stroke-width: 0.8"/>
      </g>
     </g>
     <g id="text_7">
      <!-- 1975 -->
      <g transform="translate(247.746336 340.501483) rotate(-45) scale(0.1 -0.1)">
       <defs>
        <path id="TimesNewRomanPSMT-35" d="M 2778 4238 
L 2534 3706 
L 1259 3706 
L 981 3138 
Q 1809 3016 2294 2522 
Q 2709 2097 2709 1522 
Q 2709 1188 2573 903 
Q 2438 619 2231 419 
Q 2025 219 1772 97 
Q 1413 -75 1034 -75 
Q 653 -75 479 54 
Q 306 184 306 341 
Q 306 428 378 495 
Q 450 563 559 563 
Q 641 563 702 538 
Q 763 513 909 409 
Q 1144 247 1384 247 
Q 1750 247 2026 523 
Q 2303 800 2303 1197 
Q 2303 1581 2056 1914 
Q 1809 2247 1375 2428 
Q 1034 2569 447 2591 
L 1259 4238 
L 2778 4238 
z
" transform="scale(0.015625)"/>
       </defs>
       <use xlink:href="#TimesNewRomanPSMT-31"/>
       <use xlink:href="#TimesNewRomanPSMT-39" transform="translate(50 0)"/>
       <use xlink:href="#TimesNewRomanPSMT-37" transform="translate(100 0)"/>
       <use xlink:href="#TimesNewRomanPSMT-35" transform="translate(150 0)"/>
      </g>
     </g>
    </g>
    <g id="xtick_8">
     <g id="line2d_8">
      <g>
       <use xlink:href="#m4665b5d25f" x="302.673745" y="314.449375" style="stroke: #000000; stroke-width: 0.8"/>
      </g>
     </g>
     <g id="text_8">
      <!-- 1976 -->
      <g transform="translate(287.019064 340.501483) rotate(-45) scale(0.1 -0.1)">
       <use xlink:href="#TimesNewRomanPSMT-31"/>
       <use xlink:href="#TimesNewRomanPSMT-39" transform="translate(50 0)"/>
       <use xlink:href="#TimesNewRomanPSMT-37" transform="translate(100 0)"/>
       <use xlink:href="#TimesNewRomanPSMT-36" transform="translate(150 0)"/>
      </g>
     </g>
    </g>
    <g id="xtick_9">
     <g id="line2d_9">
      <g>
       <use xlink:href="#m4665b5d25f" x="341.946472" y="314.449375" style="stroke: #000000; stroke-width: 0.8"/>
      </g>
     </g>
     <g id="text_9">
      <!-- 1977 -->
      <g transform="translate(326.291791 340.501483) rotate(-45) scale(0.1 -0.1)">
       <use xlink:href="#TimesNewRomanPSMT-31"/>
       <use xlink:href="#TimesNewRomanPSMT-39" transform="translate(50 0)"/>
       <use xlink:href="#TimesNewRomanPSMT-37" transform="translate(100 0)"/>
       <use xlink:href="#TimesNewRomanPSMT-37" transform="translate(150 0)"/>
      </g>
     </g>
    </g>
    <g id="xtick_10">
     <g id="line2d_10">
      <g>
       <use xlink:href="#m4665b5d25f" x="381.219199" y="314.449375" style="stroke: #000000; stroke-width: 0.8"/>
      </g>
     </g>
     <g id="text_10">
      <!-- 1978 -->
      <g transform="translate(365.564518 340.501483) rotate(-45) scale(0.1 -0.1)">
       <defs>
        <path id="TimesNewRomanPSMT-38" d="M 1228 2134 
Q 725 2547 579 2797 
Q 434 3047 434 3316 
Q 434 3728 753 4026 
Q 1072 4325 1600 4325 
Q 2113 4325 2425 4047 
Q 2738 3769 2738 3413 
Q 2738 3175 2569 2928 
Q 2400 2681 1866 2347 
Q 2416 1922 2594 1678 
Q 2831 1359 2831 1006 
Q 2831 559 2490 242 
Q 2150 -75 1597 -75 
Q 994 -75 656 303 
Q 388 606 388 966 
Q 388 1247 577 1523 
Q 766 1800 1228 2134 
z
M 1719 2469 
Q 2094 2806 2194 3001 
Q 2294 3197 2294 3444 
Q 2294 3772 2109 3958 
Q 1925 4144 1606 4144 
Q 1288 4144 1088 3959 
Q 888 3775 888 3528 
Q 888 3366 970 3203 
Q 1053 3041 1206 2894 
L 1719 2469 
z
M 1375 2016 
Q 1116 1797 991 1539 
Q 866 1281 866 981 
Q 866 578 1086 336 
Q 1306 94 1647 94 
Q 1984 94 2187 284 
Q 2391 475 2391 747 
Q 2391 972 2272 1150 
Q 2050 1481 1375 2016 
z
" transform="scale(0.015625)"/>
       </defs>
       <use xlink:href="#TimesNewRomanPSMT-31"/>
       <use xlink:href="#TimesNewRomanPSMT-39" transform="translate(50 0)"/>
       <use xlink:href="#TimesNewRomanPSMT-37" transform="translate(100 0)"/>
       <use xlink:href="#TimesNewRomanPSMT-38" transform="translate(150 0)"/>
      </g>
     </g>
    </g>
    <g id="text_11">
     <!-- Year -->
     <g transform="translate(193.434114 354.346529) scale(0.12 -0.12)">
      <defs>
       <path id="TimesNewRomanPSMT-59" d="M 3050 4238 
L 4528 4238 
L 4528 4122 
L 4447 4122 
Q 4366 4122 4209 4050 
Q 4053 3978 3925 3843 
Q 3797 3709 3609 3406 
L 2588 1797 
L 2588 734 
Q 2588 344 2675 247 
Q 2794 116 3050 116 
L 3188 116 
L 3188 0 
L 1388 0 
L 1388 116 
L 1538 116 
Q 1806 116 1919 278 
Q 1988 378 1988 734 
L 1988 1738 
L 825 3513 
Q 619 3825 545 3903 
Q 472 3981 241 4091 
Q 178 4122 59 4122 
L 59 4238 
L 1872 4238 
L 1872 4122 
L 1778 4122 
Q 1631 4122 1507 4053 
Q 1384 3984 1384 3847 
Q 1384 3734 1575 3441 
L 2459 2075 
L 3291 3381 
Q 3478 3675 3478 3819 
Q 3478 3906 3433 3975 
Q 3388 4044 3303 4083 
Q 3219 4122 3050 4122 
L 3050 4238 
z
" transform="scale(0.015625)"/>
       <path id="TimesNewRomanPSMT-65" d="M 681 1784 
Q 678 1147 991 784 
Q 1303 422 1725 422 
Q 2006 422 2214 576 
Q 2422 731 2563 1106 
L 2659 1044 
Q 2594 616 2278 264 
Q 1963 -88 1488 -88 
Q 972 -88 605 314 
Q 238 716 238 1394 
Q 238 2128 614 2539 
Q 991 2950 1559 2950 
Q 2041 2950 2350 2633 
Q 2659 2316 2659 1784 
L 681 1784 
z
M 681 1966 
L 2006 1966 
Q 1991 2241 1941 2353 
Q 1863 2528 1708 2628 
Q 1553 2728 1384 2728 
Q 1125 2728 920 2526 
Q 716 2325 681 1966 
z
" transform="scale(0.015625)"/>
       <path id="TimesNewRomanPSMT-61" d="M 1822 413 
Q 1381 72 1269 19 
Q 1100 -59 909 -59 
Q 613 -59 420 144 
Q 228 347 228 678 
Q 228 888 322 1041 
Q 450 1253 767 1440 
Q 1084 1628 1822 1897 
L 1822 2009 
Q 1822 2438 1686 2597 
Q 1550 2756 1291 2756 
Q 1094 2756 978 2650 
Q 859 2544 859 2406 
L 866 2225 
Q 866 2081 792 2003 
Q 719 1925 600 1925 
Q 484 1925 411 2006 
Q 338 2088 338 2228 
Q 338 2497 613 2722 
Q 888 2947 1384 2947 
Q 1766 2947 2009 2819 
Q 2194 2722 2281 2516 
Q 2338 2381 2338 1966 
L 2338 994 
Q 2338 584 2353 492 
Q 2369 400 2405 369 
Q 2441 338 2488 338 
Q 2538 338 2575 359 
Q 2641 400 2828 588 
L 2828 413 
Q 2478 -56 2159 -56 
Q 2006 -56 1915 50 
Q 1825 156 1822 413 
z
M 1822 616 
L 1822 1706 
Q 1350 1519 1213 1441 
Q 966 1303 859 1153 
Q 753 1003 753 825 
Q 753 600 887 451 
Q 1022 303 1197 303 
Q 1434 303 1822 616 
z
" transform="scale(0.015625)"/>
       <path id="TimesNewRomanPSMT-72" d="M 1038 2947 
L 1038 2303 
Q 1397 2947 1775 2947 
Q 1947 2947 2059 2842 
Q 2172 2738 2172 2600 
Q 2172 2478 2090 2393 
Q 2009 2309 1897 2309 
Q 1788 2309 1652 2417 
Q 1516 2525 1450 2525 
Q 1394 2525 1328 2463 
Q 1188 2334 1038 2041 
L 1038 669 
Q 1038 431 1097 309 
Q 1138 225 1241 169 
Q 1344 113 1538 113 
L 1538 0 
L 72 0 
L 72 113 
Q 291 113 397 181 
Q 475 231 506 341 
Q 522 394 522 644 
L 522 1753 
Q 522 2253 501 2348 
Q 481 2444 426 2487 
Q 372 2531 291 2531 
Q 194 2531 72 2484 
L 41 2597 
L 906 2947 
L 1038 2947 
z
" transform="scale(0.015625)"/>
      </defs>
      <use xlink:href="#TimesNewRomanPSMT-59"/>
      <use xlink:href="#TimesNewRomanPSMT-65" transform="translate(62.216797 0)"/>
      <use xlink:href="#TimesNewRomanPSMT-61" transform="translate(106.601562 0)"/>
      <use xlink:href="#TimesNewRomanPSMT-72" transform="translate(150.986328 0)"/>
     </g>
    </g>
   </g>
   <g id="patch_3">
    <path d="M 10.091927 314.449375 
L 10.091927 37.249375 
" style="fill: none; stroke: #000000; stroke-width: 0.8; stroke-linejoin: miter; stroke-linecap: square"/>
   </g>
   <g id="patch_4">
    <path d="M 398.891927 314.449375 
L 398.891927 37.249375 
" style="fill: none; stroke: #000000; stroke-width: 0.8; stroke-linejoin: miter; stroke-linecap: square"/>
   </g>
   <g id="patch_5">
    <path d="M 10.091927 314.449375 
L 398.891927 314.449375 
" style="fill: none; stroke: #000000; stroke-width: 0.8; stroke-linejoin: miter; stroke-linecap: square"/>
   </g>
   <g id="patch_6">
    <path d="M 10.091927 37.249375 
L 398.891927 37.249375 
" style="fill: none; stroke: #000000; stroke-width: 0.8; stroke-linejoin: miter; stroke-linecap: square"/>
   </g>
   <g id="text_12">
    <!-- Subscription Revenue from 1969 to 1978 ($)  -->
    <g transform="translate(77.148802 17.249375) scale(0.14 -0.14)">
     <defs>
      <path id="TimesNewRomanPSMT-53" d="M 2934 4334 
L 2934 2869 
L 2819 2869 
Q 2763 3291 2617 3541 
Q 2472 3791 2203 3937 
Q 1934 4084 1647 4084 
Q 1322 4084 1109 3886 
Q 897 3688 897 3434 
Q 897 3241 1031 3081 
Q 1225 2847 1953 2456 
Q 2547 2138 2764 1967 
Q 2981 1797 3098 1565 
Q 3216 1334 3216 1081 
Q 3216 600 2842 251 
Q 2469 -97 1881 -97 
Q 1697 -97 1534 -69 
Q 1438 -53 1133 45 
Q 828 144 747 144 
Q 669 144 623 97 
Q 578 50 556 -97 
L 441 -97 
L 441 1356 
L 556 1356 
Q 638 900 775 673 
Q 913 447 1195 297 
Q 1478 147 1816 147 
Q 2206 147 2432 353 
Q 2659 559 2659 841 
Q 2659 997 2573 1156 
Q 2488 1316 2306 1453 
Q 2184 1547 1640 1851 
Q 1097 2156 867 2337 
Q 638 2519 519 2737 
Q 400 2956 400 3219 
Q 400 3675 750 4004 
Q 1100 4334 1641 4334 
Q 1978 4334 2356 4169 
Q 2531 4091 2603 4091 
Q 2684 4091 2736 4139 
Q 2788 4188 2819 4334 
L 2934 4334 
z
" transform="scale(0.015625)"/>
      <path id="TimesNewRomanPSMT-75" d="M 2709 2863 
L 2709 1128 
Q 2709 631 2732 520 
Q 2756 409 2807 365 
Q 2859 322 2928 322 
Q 3025 322 3147 375 
L 3191 266 
L 2334 -88 
L 2194 -88 
L 2194 519 
Q 1825 119 1631 15 
Q 1438 -88 1222 -88 
Q 981 -88 804 51 
Q 628 191 559 409 
Q 491 628 491 1028 
L 491 2306 
Q 491 2509 447 2587 
Q 403 2666 317 2708 
Q 231 2750 6 2747 
L 6 2863 
L 1009 2863 
L 1009 947 
Q 1009 547 1148 422 
Q 1288 297 1484 297 
Q 1619 297 1789 381 
Q 1959 466 2194 703 
L 2194 2325 
Q 2194 2569 2105 2655 
Q 2016 2741 1734 2747 
L 1734 2863 
L 2709 2863 
z
" transform="scale(0.015625)"/>
      <path id="TimesNewRomanPSMT-62" d="M 984 2369 
Q 1400 2947 1881 2947 
Q 2322 2947 2650 2570 
Q 2978 2194 2978 1541 
Q 2978 778 2472 313 
Q 2038 -88 1503 -88 
Q 1253 -88 995 3 
Q 738 94 469 275 
L 469 3241 
Q 469 3728 445 3840 
Q 422 3953 372 3993 
Q 322 4034 247 4034 
Q 159 4034 28 3984 
L -16 4094 
L 844 4444 
L 984 4444 
L 984 2369 
z
M 984 2169 
L 984 456 
Q 1144 300 1314 220 
Q 1484 141 1663 141 
Q 1947 141 2192 453 
Q 2438 766 2438 1363 
Q 2438 1913 2192 2208 
Q 1947 2503 1634 2503 
Q 1469 2503 1303 2419 
Q 1178 2356 984 2169 
z
" transform="scale(0.015625)"/>
      <path id="TimesNewRomanPSMT-73" d="M 2050 2947 
L 2050 1972 
L 1947 1972 
Q 1828 2431 1642 2597 
Q 1456 2763 1169 2763 
Q 950 2763 815 2647 
Q 681 2531 681 2391 
Q 681 2216 781 2091 
Q 878 1963 1175 1819 
L 1631 1597 
Q 2266 1288 2266 781 
Q 2266 391 1970 151 
Q 1675 -88 1309 -88 
Q 1047 -88 709 6 
Q 606 38 541 38 
Q 469 38 428 -44 
L 325 -44 
L 325 978 
L 428 978 
Q 516 541 762 319 
Q 1009 97 1316 97 
Q 1531 97 1667 223 
Q 1803 350 1803 528 
Q 1803 744 1651 891 
Q 1500 1038 1047 1263 
Q 594 1488 453 1669 
Q 313 1847 313 2119 
Q 313 2472 555 2709 
Q 797 2947 1181 2947 
Q 1350 2947 1591 2875 
Q 1750 2828 1803 2828 
Q 1853 2828 1881 2850 
Q 1909 2872 1947 2947 
L 2050 2947 
z
" transform="scale(0.015625)"/>
      <path id="TimesNewRomanPSMT-63" d="M 2631 1088 
Q 2516 522 2178 217 
Q 1841 -88 1431 -88 
Q 944 -88 581 321 
Q 219 731 219 1428 
Q 219 2103 620 2525 
Q 1022 2947 1584 2947 
Q 2006 2947 2278 2723 
Q 2550 2500 2550 2259 
Q 2550 2141 2473 2067 
Q 2397 1994 2259 1994 
Q 2075 1994 1981 2113 
Q 1928 2178 1911 2362 
Q 1894 2547 1784 2644 
Q 1675 2738 1481 2738 
Q 1169 2738 978 2506 
Q 725 2200 725 1697 
Q 725 1184 976 792 
Q 1228 400 1656 400 
Q 1963 400 2206 609 
Q 2378 753 2541 1131 
L 2631 1088 
z
" transform="scale(0.015625)"/>
      <path id="TimesNewRomanPSMT-69" d="M 928 4444 
Q 1059 4444 1151 4351 
Q 1244 4259 1244 4128 
Q 1244 3997 1151 3903 
Q 1059 3809 928 3809 
Q 797 3809 703 3903 
Q 609 3997 609 4128 
Q 609 4259 701 4351 
Q 794 4444 928 4444 
z
M 1188 2947 
L 1188 647 
Q 1188 378 1227 289 
Q 1266 200 1342 156 
Q 1419 113 1622 113 
L 1622 0 
L 231 0 
L 231 113 
Q 441 113 512 153 
Q 584 194 626 287 
Q 669 381 669 647 
L 669 1750 
Q 669 2216 641 2353 
Q 619 2453 572 2492 
Q 525 2531 444 2531 
Q 356 2531 231 2484 
L 188 2597 
L 1050 2947 
L 1188 2947 
z
" transform="scale(0.015625)"/>
      <path id="TimesNewRomanPSMT-70" d="M -6 2578 
L 875 2934 
L 994 2934 
L 994 2266 
Q 1216 2644 1439 2795 
Q 1663 2947 1909 2947 
Q 2341 2947 2628 2609 
Q 2981 2197 2981 1534 
Q 2981 794 2556 309 
Q 2206 -88 1675 -88 
Q 1444 -88 1275 -22 
Q 1150 25 994 166 
L 994 -706 
Q 994 -1000 1030 -1079 
Q 1066 -1159 1155 -1206 
Q 1244 -1253 1478 -1253 
L 1478 -1369 
L -22 -1369 
L -22 -1253 
L 56 -1253 
Q 228 -1256 350 -1188 
Q 409 -1153 442 -1076 
Q 475 -1000 475 -688 
L 475 2019 
Q 475 2297 450 2372 
Q 425 2447 370 2484 
Q 316 2522 222 2522 
Q 147 2522 31 2478 
L -6 2578 
z
M 994 2081 
L 994 1013 
Q 994 666 1022 556 
Q 1066 375 1236 237 
Q 1406 100 1666 100 
Q 1978 100 2172 344 
Q 2425 663 2425 1241 
Q 2425 1897 2138 2250 
Q 1938 2494 1663 2494 
Q 1513 2494 1366 2419 
Q 1253 2363 994 2081 
z
" transform="scale(0.015625)"/>
      <path id="TimesNewRomanPSMT-74" d="M 1031 3803 
L 1031 2863 
L 1700 2863 
L 1700 2644 
L 1031 2644 
L 1031 788 
Q 1031 509 1111 412 
Q 1191 316 1316 316 
Q 1419 316 1516 380 
Q 1613 444 1666 569 
L 1788 569 
Q 1678 263 1478 108 
Q 1278 -47 1066 -47 
Q 922 -47 784 33 
Q 647 113 581 261 
Q 516 409 516 719 
L 516 2644 
L 63 2644 
L 63 2747 
Q 234 2816 414 2980 
Q 594 3144 734 3369 
Q 806 3488 934 3803 
L 1031 3803 
z
" transform="scale(0.015625)"/>
      <path id="TimesNewRomanPSMT-6f" d="M 1600 2947 
Q 2250 2947 2644 2453 
Q 2978 2031 2978 1484 
Q 2978 1100 2793 706 
Q 2609 313 2286 112 
Q 1963 -88 1566 -88 
Q 919 -88 538 428 
Q 216 863 216 1403 
Q 216 1797 411 2186 
Q 606 2575 925 2761 
Q 1244 2947 1600 2947 
z
M 1503 2744 
Q 1338 2744 1170 2645 
Q 1003 2547 900 2300 
Q 797 2053 797 1666 
Q 797 1041 1045 587 
Q 1294 134 1700 134 
Q 2003 134 2200 384 
Q 2397 634 2397 1244 
Q 2397 2006 2069 2444 
Q 1847 2744 1503 2744 
z
" transform="scale(0.015625)"/>
      <path id="TimesNewRomanPSMT-6e" d="M 1034 2341 
Q 1538 2947 1994 2947 
Q 2228 2947 2397 2830 
Q 2566 2713 2666 2444 
Q 2734 2256 2734 1869 
L 2734 647 
Q 2734 375 2778 278 
Q 2813 200 2889 156 
Q 2966 113 3172 113 
L 3172 0 
L 1756 0 
L 1756 113 
L 1816 113 
Q 2016 113 2095 173 
Q 2175 234 2206 353 
Q 2219 400 2219 647 
L 2219 1819 
Q 2219 2209 2117 2386 
Q 2016 2563 1775 2563 
Q 1403 2563 1034 2156 
L 1034 647 
Q 1034 356 1069 288 
Q 1113 197 1189 155 
Q 1266 113 1500 113 
L 1500 0 
L 84 0 
L 84 113 
L 147 113 
Q 366 113 442 223 
Q 519 334 519 647 
L 519 1709 
Q 519 2225 495 2337 
Q 472 2450 423 2490 
Q 375 2531 294 2531 
Q 206 2531 84 2484 
L 38 2597 
L 900 2947 
L 1034 2947 
L 1034 2341 
z
" transform="scale(0.015625)"/>
      <path id="TimesNewRomanPSMT-20" transform="scale(0.015625)"/>
      <path id="TimesNewRomanPSMT-52" d="M 4325 0 
L 3194 0 
L 1759 1981 
Q 1600 1975 1500 1975 
Q 1459 1975 1412 1976 
Q 1366 1978 1316 1981 
L 1316 750 
Q 1316 350 1403 253 
Q 1522 116 1759 116 
L 1925 116 
L 1925 0 
L 109 0 
L 109 116 
L 269 116 
Q 538 116 653 291 
Q 719 388 719 750 
L 719 3488 
Q 719 3888 631 3984 
Q 509 4122 269 4122 
L 109 4122 
L 109 4238 
L 1653 4238 
Q 2328 4238 2648 4139 
Q 2969 4041 3192 3777 
Q 3416 3513 3416 3147 
Q 3416 2756 3161 2468 
Q 2906 2181 2372 2063 
L 3247 847 
Q 3547 428 3762 290 
Q 3978 153 4325 116 
L 4325 0 
z
M 1316 2178 
Q 1375 2178 1419 2176 
Q 1463 2175 1491 2175 
Q 2097 2175 2405 2437 
Q 2713 2700 2713 3106 
Q 2713 3503 2464 3751 
Q 2216 4000 1806 4000 
Q 1625 4000 1316 3941 
L 1316 2178 
z
" transform="scale(0.015625)"/>
      <path id="TimesNewRomanPSMT-76" d="M 53 2863 
L 1400 2863 
L 1400 2747 
L 1313 2747 
Q 1191 2747 1127 2687 
Q 1063 2628 1063 2528 
Q 1063 2419 1128 2269 
L 1794 688 
L 2463 2328 
Q 2534 2503 2534 2594 
Q 2534 2638 2509 2666 
Q 2475 2713 2422 2730 
Q 2369 2747 2206 2747 
L 2206 2863 
L 3141 2863 
L 3141 2747 
Q 2978 2734 2916 2681 
Q 2806 2588 2719 2369 
L 1703 -88 
L 1575 -88 
L 553 2328 
Q 484 2497 421 2570 
Q 359 2644 263 2694 
Q 209 2722 53 2747 
L 53 2863 
z
" transform="scale(0.015625)"/>
      <path id="TimesNewRomanPSMT-66" d="M 1319 2638 
L 1319 756 
Q 1319 356 1406 250 
Q 1522 113 1716 113 
L 1975 113 
L 1975 0 
L 266 0 
L 266 113 
L 394 113 
Q 519 113 622 175 
Q 725 238 764 344 
Q 803 450 803 756 
L 803 2638 
L 247 2638 
L 247 2863 
L 803 2863 
L 803 3050 
Q 803 3478 940 3775 
Q 1078 4072 1361 4255 
Q 1644 4438 1997 4438 
Q 2325 4438 2600 4225 
Q 2781 4084 2781 3909 
Q 2781 3816 2700 3733 
Q 2619 3650 2525 3650 
Q 2453 3650 2373 3701 
Q 2294 3753 2178 3923 
Q 2063 4094 1966 4153 
Q 1869 4213 1750 4213 
Q 1606 4213 1506 4136 
Q 1406 4059 1362 3898 
Q 1319 3738 1319 3069 
L 1319 2863 
L 2056 2863 
L 2056 2638 
L 1319 2638 
z
" transform="scale(0.015625)"/>
      <path id="TimesNewRomanPSMT-6d" d="M 1050 2338 
Q 1363 2650 1419 2697 
Q 1559 2816 1721 2881 
Q 1884 2947 2044 2947 
Q 2313 2947 2506 2790 
Q 2700 2634 2766 2338 
Q 3088 2713 3309 2830 
Q 3531 2947 3766 2947 
Q 3994 2947 4170 2830 
Q 4347 2713 4450 2447 
Q 4519 2266 4519 1878 
L 4519 647 
Q 4519 378 4559 278 
Q 4591 209 4675 161 
Q 4759 113 4950 113 
L 4950 0 
L 3538 0 
L 3538 113 
L 3597 113 
Q 3781 113 3884 184 
Q 3956 234 3988 344 
Q 4000 397 4000 647 
L 4000 1878 
Q 4000 2228 3916 2372 
Q 3794 2572 3525 2572 
Q 3359 2572 3192 2489 
Q 3025 2406 2788 2181 
L 2781 2147 
L 2788 2013 
L 2788 647 
Q 2788 353 2820 281 
Q 2853 209 2943 161 
Q 3034 113 3253 113 
L 3253 0 
L 1806 0 
L 1806 113 
Q 2044 113 2133 169 
Q 2222 225 2256 338 
Q 2272 391 2272 647 
L 2272 1878 
Q 2272 2228 2169 2381 
Q 2031 2581 1784 2581 
Q 1616 2581 1450 2491 
Q 1191 2353 1050 2181 
L 1050 647 
Q 1050 366 1089 281 
Q 1128 197 1204 155 
Q 1281 113 1516 113 
L 1516 0 
L 100 0 
L 100 113 
Q 297 113 375 155 
Q 453 197 493 289 
Q 534 381 534 647 
L 534 1741 
Q 534 2213 506 2350 
Q 484 2453 437 2492 
Q 391 2531 309 2531 
Q 222 2531 100 2484 
L 53 2597 
L 916 2947 
L 1050 2947 
L 1050 2338 
z
" transform="scale(0.015625)"/>
      <path id="TimesNewRomanPSMT-28" d="M 1988 -1253 
L 1988 -1369 
Q 1516 -1131 1200 -813 
Q 750 -359 506 256 
Q 263 872 263 1534 
Q 263 2503 741 3301 
Q 1219 4100 1988 4444 
L 1988 4313 
Q 1603 4100 1356 3731 
Q 1109 3363 987 2797 
Q 866 2231 866 1616 
Q 866 947 969 400 
Q 1050 -31 1165 -292 
Q 1281 -553 1476 -793 
Q 1672 -1034 1988 -1253 
z
" transform="scale(0.015625)"/>
      <path id="TimesNewRomanPSMT-24" d="M 338 1044 
L 475 1044 
Q 509 616 743 387 
Q 978 159 1444 116 
L 1444 1941 
Q 741 2375 506 2709 
Q 341 2947 341 3288 
Q 341 3672 627 3959 
Q 913 4247 1444 4306 
L 1444 4594 
L 1644 4594 
L 1644 4306 
Q 1900 4291 2075 4247 
Q 2166 4225 2675 4031 
L 2675 3097 
L 2553 3097 
Q 2513 3594 2295 3823 
Q 2078 4053 1644 4097 
L 1644 2509 
Q 2431 1959 2654 1698 
Q 2878 1438 2878 1050 
Q 2878 619 2551 290 
Q 2225 -38 1644 -88 
L 1644 -488 
L 1444 -488 
L 1444 -88 
Q 1150 -75 897 -20 
Q 644 34 338 159 
L 338 1044 
z
M 1444 2641 
L 1444 4094 
Q 1131 4056 979 3895 
Q 828 3734 828 3491 
Q 828 3263 965 3064 
Q 1103 2866 1444 2641 
z
M 1644 116 
Q 1878 156 2003 231 
Q 2178 341 2279 517 
Q 2381 694 2381 894 
Q 2381 1100 2257 1284 
Q 2134 1469 1644 1806 
L 1644 116 
z
" transform="scale(0.015625)"/>
      <path id="TimesNewRomanPSMT-29" d="M 144 4313 
L 144 4444 
Q 619 4209 934 3891 
Q 1381 3434 1625 2820 
Q 1869 2206 1869 1541 
Q 1869 572 1392 -226 
Q 916 -1025 144 -1369 
L 144 -1253 
Q 528 -1038 776 -670 
Q 1025 -303 1145 264 
Q 1266 831 1266 1447 
Q 1266 2113 1163 2663 
Q 1084 3094 967 3353 
Q 850 3613 656 3853 
Q 463 4094 144 4313 
z
" transform="scale(0.015625)"/>
     </defs>
     <use xlink:href="#TimesNewRomanPSMT-53"/>
     <use xlink:href="#TimesNewRomanPSMT-75" transform="translate(55.615234 0)"/>
     <use xlink:href="#TimesNewRomanPSMT-62" transform="translate(105.615234 0)"/>
     <use xlink:href="#TimesNewRomanPSMT-73" transform="translate(155.615234 0)"/>
     <use xlink:href="#TimesNewRomanPSMT-63" transform="translate(194.53125 0)"/>
     <use xlink:href="#TimesNewRomanPSMT-72" transform="translate(238.916016 0)"/>
     <use xlink:href="#TimesNewRomanPSMT-69" transform="translate(272.216797 0)"/>
     <use xlink:href="#TimesNewRomanPSMT-70" transform="translate(300 0)"/>
     <use xlink:href="#TimesNewRomanPSMT-74" transform="translate(350 0)"/>
     <use xlink:href="#TimesNewRomanPSMT-69" transform="translate(377.783203 0)"/>
     <use xlink:href="#TimesNewRomanPSMT-6f" transform="translate(405.566406 0)"/>
     <use xlink:href="#TimesNewRomanPSMT-6e" transform="translate(455.566406 0)"/>
     <use xlink:href="#TimesNewRomanPSMT-20" transform="translate(505.566406 0)"/>
     <use xlink:href="#TimesNewRomanPSMT-52" transform="translate(530.566406 0)"/>
     <use xlink:href="#TimesNewRomanPSMT-65" transform="translate(597.265625 0)"/>
     <use xlink:href="#TimesNewRomanPSMT-76" transform="translate(641.650391 0)"/>
     <use xlink:href="#TimesNewRomanPSMT-65" transform="translate(691.650391 0)"/>
     <use xlink:href="#TimesNewRomanPSMT-6e" transform="translate(736.035156 0)"/>
     <use xlink:href="#TimesNewRomanPSMT-75" transform="translate(786.035156 0)"/>
     <use xlink:href="#TimesNewRomanPSMT-65" transform="translate(836.035156 0)"/>
     <use xlink:href="#TimesNewRomanPSMT-20" transform="translate(880.419922 0)"/>
     <use xlink:href="#TimesNewRomanPSMT-66" transform="translate(905.419922 0)"/>
     <use xlink:href="#TimesNewRomanPSMT-72" transform="translate(938.720703 0)"/>
     <use xlink:href="#TimesNewRomanPSMT-6f" transform="translate(972.021484 0)"/>
     <use xlink:href="#TimesNewRomanPSMT-6d" transform="translate(1022.021484 0)"/>
     <use xlink:href="#TimesNewRomanPSMT-20" transform="translate(1099.804688 0)"/>
     <use xlink:href="#TimesNewRomanPSMT-31" transform="translate(1124.804688 0)"/>
     <use xlink:href="#TimesNewRomanPSMT-39" transform="translate(1174.804688 0)"/>
     <use xlink:href="#TimesNewRomanPSMT-36" transform="translate(1224.804688 0)"/>
     <use xlink:href="#TimesNewRomanPSMT-39" transform="translate(1274.804688 0)"/>
     <use xlink:href="#TimesNewRomanPSMT-20" transform="translate(1324.804688 0)"/>
     <use xlink:href="#TimesNewRomanPSMT-74" transform="translate(1349.804688 0)"/>
     <use xlink:href="#TimesNewRomanPSMT-6f" transform="translate(1377.587891 0)"/>
     <use xlink:href="#TimesNewRomanPSMT-20" transform="translate(1427.587891 0)"/>
     <use xlink:href="#TimesNewRomanPSMT-31" transform="translate(1452.587891 0)"/>
     <use xlink:href="#TimesNewRomanPSMT-39" transform="translate(1502.587891 0)"/>
     <use xlink:href="#TimesNewRomanPSMT-37" transform="translate(1552.587891 0)"/>
     <use xlink:href="#TimesNewRomanPSMT-38" transform="translate(1602.587891 0)"/>
     <use xlink:href="#TimesNewRomanPSMT-20" transform="translate(1652.587891 0)"/>
     <use xlink:href="#TimesNewRomanPSMT-28" transform="translate(1677.587891 0)"/>
     <use xlink:href="#TimesNewRomanPSMT-24" transform="translate(1710.888672 0)"/>
     <use xlink:href="#TimesNewRomanPSMT-29" transform="translate(1760.888672 0)"/>
     <use xlink:href="#TimesNewRomanPSMT-20" transform="translate(1794.189453 0)"/>
    </g>
   </g>
   <g id="legend_1">
    <g id="patch_7">
     <path d="M 415.667927 157.07125 
L 435.667927 157.07125 
L 435.667927 150.07125 
L 415.667927 150.07125 
z
" style="fill: #1f77b4"/>
    </g>
    <g id="text_13">
     <!-- CrimsonLink -->
     <g transform="translate(443.667927 157.07125) scale(0.1 -0.1)">
      <defs>
       <path id="TimesNewRomanPSMT-43" d="M 3853 4334 
L 3950 2894 
L 3853 2894 
Q 3659 3541 3300 3825 
Q 2941 4109 2438 4109 
Q 2016 4109 1675 3895 
Q 1334 3681 1139 3212 
Q 944 2744 944 2047 
Q 944 1472 1128 1050 
Q 1313 628 1683 403 
Q 2053 178 2528 178 
Q 2941 178 3256 354 
Q 3572 531 3950 1056 
L 4047 994 
Q 3728 428 3303 165 
Q 2878 -97 2294 -97 
Q 1241 -97 663 684 
Q 231 1266 231 2053 
Q 231 2688 515 3219 
Q 800 3750 1298 4042 
Q 1797 4334 2388 4334 
Q 2847 4334 3294 4109 
Q 3425 4041 3481 4041 
Q 3566 4041 3628 4100 
Q 3709 4184 3744 4334 
L 3853 4334 
z
" transform="scale(0.015625)"/>
       <path id="TimesNewRomanPSMT-4c" d="M 3669 1172 
L 3772 1150 
L 3409 0 
L 128 0 
L 128 116 
L 288 116 
Q 556 116 672 291 
Q 738 391 738 753 
L 738 3488 
Q 738 3884 650 3984 
Q 528 4122 288 4122 
L 128 4122 
L 128 4238 
L 2047 4238 
L 2047 4122 
Q 1709 4125 1573 4059 
Q 1438 3994 1388 3894 
Q 1338 3794 1338 3416 
L 1338 753 
Q 1338 494 1388 397 
Q 1425 331 1503 300 
Q 1581 269 1991 269 
L 2300 269 
Q 2788 269 2984 341 
Q 3181 413 3343 595 
Q 3506 778 3669 1172 
z
" transform="scale(0.015625)"/>
       <path id="TimesNewRomanPSMT-6b" d="M 1047 4444 
L 1047 1597 
L 1775 2259 
Q 2006 2472 2044 2528 
Q 2069 2566 2069 2603 
Q 2069 2666 2017 2711 
Q 1966 2756 1847 2763 
L 1847 2863 
L 3091 2863 
L 3091 2763 
Q 2834 2756 2664 2684 
Q 2494 2613 2291 2428 
L 1556 1750 
L 2291 822 
Q 2597 438 2703 334 
Q 2853 188 2966 144 
Q 3044 113 3238 113 
L 3238 0 
L 1847 0 
L 1847 113 
Q 1966 116 2008 148 
Q 2050 181 2050 241 
Q 2050 313 1925 472 
L 1047 1594 
L 1047 644 
Q 1047 366 1086 278 
Q 1125 191 1197 153 
Q 1269 116 1509 113 
L 1509 0 
L 53 0 
L 53 113 
Q 272 113 381 166 
Q 447 200 481 272 
Q 528 375 528 628 
L 528 3234 
Q 528 3731 506 3842 
Q 484 3953 434 3995 
Q 384 4038 303 4038 
Q 238 4038 106 3984 
L 53 4094 
L 903 4444 
L 1047 4444 
z
" transform="scale(0.015625)"/>
      </defs>
      <use xlink:href="#TimesNewRomanPSMT-43"/>
      <use xlink:href="#TimesNewRomanPSMT-72" transform="translate(66.699219 0)"/>
      <use xlink:href="#TimesNewRomanPSMT-69" transform="translate(100 0)"/>
      <use xlink:href="#TimesNewRomanPSMT-6d" transform="translate(127.783203 0)"/>
      <use xlink:href="#TimesNewRomanPSMT-73" transform="translate(205.566406 0)"/>
      <use xlink:href="#TimesNewRomanPSMT-6f" transform="translate(244.482422 0)"/>
      <use xlink:href="#TimesNewRomanPSMT-6e" transform="translate(294.482422 0)"/>
      <use xlink:href="#TimesNewRomanPSMT-4c" transform="translate(344.482422 0)"/>
      <use xlink:href="#TimesNewRomanPSMT-69" transform="translate(405.566406 0)"/>
      <use xlink:href="#TimesNewRomanPSMT-6e" transform="translate(433.349609 0)"/>
      <use xlink:href="#TimesNewRomanPSMT-6b" transform="translate(483.349609 0)"/>
     </g>
    </g>
    <g id="patch_8">
     <path d="M 415.667927 171.210312 
L 435.667927 171.210312 
L 435.667927 164.210312 
L 415.667927 164.210312 
z
" style="fill: #aec7e8"/>
    </g>
    <g id="text_14">
     <!-- AetherNet -->
     <g transform="translate(443.667927 171.210312) scale(0.1 -0.1)">
      <defs>
       <path id="TimesNewRomanPSMT-41" d="M 2928 1419 
L 1288 1419 
L 1000 750 
Q 894 503 894 381 
Q 894 284 986 211 
Q 1078 138 1384 116 
L 1384 0 
L 50 0 
L 50 116 
Q 316 163 394 238 
Q 553 388 747 847 
L 2238 4334 
L 2347 4334 
L 3822 809 
Q 4000 384 4145 257 
Q 4291 131 4550 116 
L 4550 0 
L 2878 0 
L 2878 116 
Q 3131 128 3220 200 
Q 3309 272 3309 375 
Q 3309 513 3184 809 
L 2928 1419 
z
M 2841 1650 
L 2122 3363 
L 1384 1650 
L 2841 1650 
z
" transform="scale(0.015625)"/>
       <path id="TimesNewRomanPSMT-68" d="M 1041 4444 
L 1041 2350 
Q 1388 2731 1591 2839 
Q 1794 2947 1997 2947 
Q 2241 2947 2416 2812 
Q 2591 2678 2675 2391 
Q 2734 2191 2734 1659 
L 2734 647 
Q 2734 375 2778 275 
Q 2809 200 2884 156 
Q 2959 113 3159 113 
L 3159 0 
L 1753 0 
L 1753 113 
L 1819 113 
Q 2019 113 2097 173 
Q 2175 234 2206 353 
Q 2216 403 2216 647 
L 2216 1659 
Q 2216 2128 2167 2275 
Q 2119 2422 2012 2495 
Q 1906 2569 1756 2569 
Q 1603 2569 1437 2487 
Q 1272 2406 1041 2159 
L 1041 647 
Q 1041 353 1073 281 
Q 1106 209 1195 161 
Q 1284 113 1503 113 
L 1503 0 
L 84 0 
L 84 113 
Q 275 113 384 172 
Q 447 203 484 290 
Q 522 378 522 647 
L 522 3238 
Q 522 3728 498 3840 
Q 475 3953 426 3993 
Q 378 4034 297 4034 
Q 231 4034 84 3984 
L 41 4094 
L 897 4444 
L 1041 4444 
z
" transform="scale(0.015625)"/>
       <path id="TimesNewRomanPSMT-4e" d="M -84 4238 
L 1066 4238 
L 3656 1059 
L 3656 3503 
Q 3656 3894 3569 3991 
Q 3453 4122 3203 4122 
L 3056 4122 
L 3056 4238 
L 4531 4238 
L 4531 4122 
L 4381 4122 
Q 4113 4122 4000 3959 
Q 3931 3859 3931 3503 
L 3931 -69 
L 3819 -69 
L 1025 3344 
L 1025 734 
Q 1025 344 1109 247 
Q 1228 116 1475 116 
L 1625 116 
L 1625 0 
L 150 0 
L 150 116 
L 297 116 
Q 569 116 681 278 
Q 750 378 750 734 
L 750 3681 
Q 566 3897 470 3965 
Q 375 4034 191 4094 
Q 100 4122 -84 4122 
L -84 4238 
z
" transform="scale(0.015625)"/>
      </defs>
      <use xlink:href="#TimesNewRomanPSMT-41"/>
      <use xlink:href="#TimesNewRomanPSMT-65" transform="translate(72.216797 0)"/>
      <use xlink:href="#TimesNewRomanPSMT-74" transform="translate(116.601562 0)"/>
      <use xlink:href="#TimesNewRomanPSMT-68" transform="translate(144.384766 0)"/>
      <use xlink:href="#TimesNewRomanPSMT-65" transform="translate(194.384766 0)"/>
      <use xlink:href="#TimesNewRomanPSMT-72" transform="translate(238.769531 0)"/>
      <use xlink:href="#TimesNewRomanPSMT-4e" transform="translate(272.070312 0)"/>
      <use xlink:href="#TimesNewRomanPSMT-65" transform="translate(344.287109 0)"/>
      <use xlink:href="#TimesNewRomanPSMT-74" transform="translate(388.671875 0)"/>
     </g>
    </g>
    <g id="patch_9">
     <path d="M 415.667927 185.349375 
L 435.667927 185.349375 
L 435.667927 178.349375 
L 415.667927 178.349375 
z
" style="fill: #ff7f0e"/>
    </g>
    <g id="text_15">
     <!-- Starburst Online -->
     <g transform="translate(443.667927 185.349375) scale(0.1 -0.1)">
      <defs>
       <path id="TimesNewRomanPSMT-4f" d="M 2341 4334 
Q 3166 4334 3770 3707 
Q 4375 3081 4375 2144 
Q 4375 1178 3765 540 
Q 3156 -97 2291 -97 
Q 1416 -97 820 525 
Q 225 1147 225 2134 
Q 225 3144 913 3781 
Q 1509 4334 2341 4334 
z
M 2281 4106 
Q 1713 4106 1369 3684 
Q 941 3159 941 2147 
Q 941 1109 1384 550 
Q 1725 125 2284 125 
Q 2881 125 3270 590 
Q 3659 1056 3659 2059 
Q 3659 3147 3231 3681 
Q 2888 4106 2281 4106 
z
" transform="scale(0.015625)"/>
       <path id="TimesNewRomanPSMT-6c" d="M 1184 4444 
L 1184 647 
Q 1184 378 1223 290 
Q 1263 203 1344 158 
Q 1425 113 1647 113 
L 1647 0 
L 244 0 
L 244 113 
Q 441 113 512 153 
Q 584 194 625 287 
Q 666 381 666 647 
L 666 3247 
Q 666 3731 644 3842 
Q 622 3953 573 3993 
Q 525 4034 450 4034 
Q 369 4034 244 3984 
L 191 4094 
L 1044 4444 
L 1184 4444 
z
" transform="scale(0.015625)"/>
      </defs>
      <use xlink:href="#TimesNewRomanPSMT-53"/>
      <use xlink:href="#TimesNewRomanPSMT-74" transform="translate(55.615234 0)"/>
      <use xlink:href="#TimesNewRomanPSMT-61" transform="translate(83.398438 0)"/>
      <use xlink:href="#TimesNewRomanPSMT-72" transform="translate(127.783203 0)"/>
      <use xlink:href="#TimesNewRomanPSMT-62" transform="translate(161.083984 0)"/>
      <use xlink:href="#TimesNewRomanPSMT-75" transform="translate(211.083984 0)"/>
      <use xlink:href="#TimesNewRomanPSMT-72" transform="translate(261.083984 0)"/>
      <use xlink:href="#TimesNewRomanPSMT-73" transform="translate(294.384766 0)"/>
      <use xlink:href="#TimesNewRomanPSMT-74" transform="translate(333.300781 0)"/>
      <use xlink:href="#TimesNewRomanPSMT-20" transform="translate(361.083984 0)"/>
      <use xlink:href="#TimesNewRomanPSMT-4f" transform="translate(386.083984 0)"/>
      <use xlink:href="#TimesNewRomanPSMT-6e" transform="translate(458.300781 0)"/>
      <use xlink:href="#TimesNewRomanPSMT-6c" transform="translate(508.300781 0)"/>
      <use xlink:href="#TimesNewRomanPSMT-69" transform="translate(536.083984 0)"/>
      <use xlink:href="#TimesNewRomanPSMT-6e" transform="translate(563.867188 0)"/>
      <use xlink:href="#TimesNewRomanPSMT-65" transform="translate(613.867188 0)"/>
     </g>
    </g>
    <g id="patch_10">
     <path d="M 415.667927 199.488437 
L 435.667927 199.488437 
L 435.667927 192.488437 
L 415.667927 192.488437 
z
" style="fill: #ffbb78"/>
    </g>
    <g id="text_16">
     <!-- OracleFeed -->
     <g transform="translate(443.667927 199.488437) scale(0.1 -0.1)">
      <defs>
       <path id="TimesNewRomanPSMT-46" d="M 1309 4006 
L 1309 2341 
L 2081 2341 
Q 2347 2341 2470 2458 
Q 2594 2575 2634 2922 
L 2750 2922 
L 2750 1488 
L 2634 1488 
Q 2631 1734 2570 1850 
Q 2509 1966 2401 2023 
Q 2294 2081 2081 2081 
L 1309 2081 
L 1309 750 
Q 1309 428 1350 325 
Q 1381 247 1481 191 
Q 1619 116 1769 116 
L 1922 116 
L 1922 0 
L 103 0 
L 103 116 
L 253 116 
Q 516 116 634 269 
Q 709 369 709 750 
L 709 3488 
Q 709 3809 669 3913 
Q 638 3991 541 4047 
Q 406 4122 253 4122 
L 103 4122 
L 103 4238 
L 3256 4238 
L 3297 3306 
L 3188 3306 
Q 3106 3603 2998 3742 
Q 2891 3881 2733 3943 
Q 2575 4006 2244 4006 
L 1309 4006 
z
" transform="scale(0.015625)"/>
       <path id="TimesNewRomanPSMT-64" d="M 2222 322 
Q 2013 103 1813 7 
Q 1613 -88 1381 -88 
Q 913 -88 563 304 
Q 213 697 213 1313 
Q 213 1928 600 2439 
Q 988 2950 1597 2950 
Q 1975 2950 2222 2709 
L 2222 3238 
Q 2222 3728 2198 3840 
Q 2175 3953 2125 3993 
Q 2075 4034 2000 4034 
Q 1919 4034 1784 3984 
L 1744 4094 
L 2597 4444 
L 2738 4444 
L 2738 1134 
Q 2738 631 2761 520 
Q 2784 409 2836 365 
Q 2888 322 2956 322 
Q 3041 322 3181 375 
L 3216 266 
L 2366 -88 
L 2222 -88 
L 2222 322 
z
M 2222 541 
L 2222 2016 
Q 2203 2228 2109 2403 
Q 2016 2578 1861 2667 
Q 1706 2756 1559 2756 
Q 1284 2756 1069 2509 
Q 784 2184 784 1559 
Q 784 928 1059 592 
Q 1334 256 1672 256 
Q 1956 256 2222 541 
z
" transform="scale(0.015625)"/>
      </defs>
      <use xlink:href="#TimesNewRomanPSMT-4f"/>
      <use xlink:href="#TimesNewRomanPSMT-72" transform="translate(72.216797 0)"/>
      <use xlink:href="#TimesNewRomanPSMT-61" transform="translate(105.517578 0)"/>
      <use xlink:href="#TimesNewRomanPSMT-63" transform="translate(149.902344 0)"/>
      <use xlink:href="#TimesNewRomanPSMT-6c" transform="translate(194.287109 0)"/>
      <use xlink:href="#TimesNewRomanPSMT-65" transform="translate(222.070312 0)"/>
      <use xlink:href="#TimesNewRomanPSMT-46" transform="translate(266.455078 0)"/>
      <use xlink:href="#TimesNewRomanPSMT-65" transform="translate(322.070312 0)"/>
      <use xlink:href="#TimesNewRomanPSMT-65" transform="translate(366.455078 0)"/>
      <use xlink:href="#TimesNewRomanPSMT-64" transform="translate(410.839844 0)"/>
     </g>
    </g>
   </g>
  </g>
 </g>
 <defs>
  <clipPath id="p4f8ac4d9a8">
   <rect x="10.091927" y="37.249375" width="388.8" height="277.2"/>
  </clipPath>
 </defs>
</svg>
