<?xml version="1.0" encoding="utf-8" standalone="no"?>
<!DOCTYPE svg PUBLIC "-//W3C//DTD SVG 1.1//EN"
  "http://www.w3.org/Graphics/SVG/1.1/DTD/svg11.dtd">
<svg xmlns:xlink="http://www.w3.org/1999/xlink" width="520.692927pt" height="363.785279pt" viewBox="0 0 520.692927 363.785279" xmlns="http://www.w3.org/2000/svg" version="1.1">
 <metadata>
  <rdf:RDF xmlns:dc="http://purl.org/dc/elements/1.1/" xmlns:cc="http://creativecommons.org/ns#" xmlns:rdf="http://www.w3.org/1999/02/22-rdf-syntax-ns#">
   <cc:Work>
    <dc:type rdf:resource="http://purl.org/dc/dcmitype/StillImage"/>
    <dc:date>2025-05-31T00:08:00.975835</dc:date>
    <dc:format>image/svg+xml</dc:format>
    <dc:creator>
     <cc:Agent>
      <dc:title>Matplotlib v3.10.3, https://matplotlib.org/</dc:title>
     </cc:Agent>
    </dc:creator>
   </cc:Work>
  </rdf:RDF>
 </metadata>
 <defs>
  <style type="text/css">*{stroke-linejoin: round; stroke-linecap: butt}</style>
 </defs>
 <g id="figure_1">
  <g id="patch_1">
   <path d="M 0 363.785279 
L 520.692927 363.785279 
L 520.692927 0 
L 0 0 
z
" style="fill: #ffffff"/>
  </g>
  <g id="axes_1">
   <g id="patch_2">
    <path d="M 10.091927 314.12125 
L 398.891927 314.12125 
L 398.891927 36.92125 
L 10.091927 36.92125 
z
" style="fill: #ffffff"/>
   </g>
   <g id="FillBetweenPolyCollection_1">
    <path d="M 27.764654 228.679747 
L 27.764654 240.525593 
L 31.007356 242.773182 
L 34.250058 244.865599 
L 37.492761 246.807072 
L 40.735463 248.60183 
L 43.978165 250.254102 
L 47.220867 251.768117 
L 50.46357 253.148103 
L 53.706272 254.39829 
L 56.948974 255.522907 
L 60.191676 256.526182 
L 63.434379 257.412344 
L 66.677081 258.185623 
L 69.919783 258.850246 
L 73.162485 259.410444 
L 76.405188 259.870444 
L 79.64789 260.234476 
L 82.890592 260.506769 
L 86.133294 260.691551 
L 89.375997 260.793052 
L 92.618699 260.8155 
L 95.861401 260.763124 
L 99.104103 260.640176 
L 102.346806 260.455621 
L 105.589508 260.228944 
L 108.83221 259.981056 
L 112.074912 259.732865 
L 115.317615 259.50528 
L 118.560317 259.319209 
L 121.803019 259.195562 
L 125.045721 259.155249 
L 128.288424 259.219177 
L 131.531126 259.408256 
L 134.773828 259.743161 
L 138.01653 260.226504 
L 141.259233 260.830276 
L 144.501935 261.523504 
L 147.744637 262.275212 
L 150.98734 263.054426 
L 154.230042 263.830172 
L 157.472744 264.571476 
L 160.715446 265.247363 
L 163.958149 265.826859 
L 167.200851 266.27899 
L 170.443553 266.573394 
L 173.686255 266.703592 
L 176.928958 266.694121 
L 180.17166 266.571594 
L 183.414362 266.362621 
L 186.657064 266.093814 
L 189.899767 265.791785 
L 193.142469 265.483145 
L 196.385171 265.194505 
L 199.627873 264.952478 
L 202.870576 264.783674 
L 206.113278 264.714037 
L 209.35598 264.754116 
L 212.598682 264.899072 
L 215.841385 265.143396 
L 219.084087 265.481579 
L 222.326789 265.90811 
L 225.569491 266.417482 
L 228.812194 267.004183 
L 232.054896 267.662707 
L 235.297598 268.387542 
L 238.5403 269.173179 
L 241.783003 270.013564 
L 245.025705 270.894467 
L 248.268407 271.795365 
L 251.511109 272.695575 
L 254.753812 273.574413 
L 257.996514 274.411196 
L 261.239216 275.18524 
L 264.481918 275.875861 
L 267.724621 276.462376 
L 270.967323 276.924101 
L 274.210025 277.240351 
L 277.452727 277.393526 
L 280.69543 277.397839 
L 283.938132 277.286275 
L 287.180834 277.09206 
L 290.423536 276.84842 
L 293.666239 276.588583 
L 296.908941 276.345775 
L 300.151643 276.153223 
L 303.394345 276.044152 
L 306.637048 276.051791 
L 309.87975 276.209365 
L 313.122452 276.545411 
L 316.365154 277.053807 
L 319.607857 277.712898 
L 322.850559 278.500952 
L 326.093261 279.396241 
L 329.335963 280.377035 
L 332.578666 281.421604 
L 335.821368 282.508217 
L 339.06407 283.615147 
L 342.306772 284.720662 
L 345.549475 285.803033 
L 348.792177 286.84053 
L 352.034879 287.811424 
L 355.277581 288.693984 
L 358.520284 289.466482 
L 361.762986 290.107187 
L 365.005688 290.59437 
L 368.24839 290.906301 
L 371.491093 291.02125 
L 374.733795 290.917487 
L 377.976497 290.573284 
L 381.219199 289.966909 
L 381.219199 257.226286 
L 381.219199 257.226286 
L 377.976497 257.387485 
L 374.733795 257.348208 
L 371.491093 257.12628 
L 368.24839 256.739528 
L 365.005688 256.205776 
L 361.762986 255.542849 
L 358.520284 254.768574 
L 355.277581 253.900776 
L 352.034879 252.95728 
L 348.792177 251.955911 
L 345.549475 250.914496 
L 342.306772 249.850859 
L 339.06407 248.782826 
L 335.821368 247.728223 
L 332.578666 246.704875 
L 329.335963 245.730607 
L 326.093261 244.823245 
L 322.850559 244.000615 
L 319.607857 243.280541 
L 316.365154 242.680849 
L 313.122452 242.219365 
L 309.87975 241.913856 
L 306.637048 241.769729 
L 303.394345 241.76481 
L 300.151643 241.873197 
L 296.908941 242.068986 
L 293.666239 242.326273 
L 290.423536 242.619155 
L 287.180834 242.921727 
L 283.938132 243.208087 
L 280.69543 243.452331 
L 277.452727 243.628554 
L 274.210025 243.711047 
L 270.967323 243.689094 
L 267.724621 243.57739 
L 264.481918 243.393095 
L 261.239216 243.153366 
L 257.996514 242.875363 
L 254.753812 242.576243 
L 251.511109 242.273165 
L 248.268407 241.983288 
L 245.025705 241.72377 
L 241.783003 241.51177 
L 238.5403 241.364076 
L 235.297598 241.283106 
L 232.054896 241.252611 
L 228.812194 241.255092 
L 225.569491 241.273051 
L 222.326789 241.288992 
L 219.084087 241.285415 
L 215.841385 241.244824 
L 212.598682 241.14972 
L 209.35598 240.982606 
L 206.113278 240.725984 
L 202.870576 240.362995 
L 199.627873 239.891501 
L 196.385171 239.324078 
L 193.142469 238.673945 
L 189.899767 237.95432 
L 186.657064 237.17842 
L 183.414362 236.359464 
L 180.17166 235.510669 
L 176.928958 234.645253 
L 173.686255 233.776435 
L 170.443553 232.917431 
L 167.200851 232.081474 
L 163.958149 231.282006 
L 160.715446 230.532633 
L 157.472744 229.846962 
L 154.230042 229.238603 
L 150.98734 228.721165 
L 147.744637 228.308255 
L 144.501935 228.013484 
L 141.259233 227.85046 
L 138.01653 227.832791 
L 134.773828 227.974087 
L 131.531126 228.285387 
L 128.288424 228.7512 
L 125.045721 229.340389 
L 121.803019 230.02161 
L 118.560317 230.763521 
L 115.317615 231.534781 
L 112.074912 232.304048 
L 108.83221 233.039979 
L 105.589508 233.711233 
L 102.346806 234.286467 
L 99.104103 234.73434 
L 95.861401 235.027451 
L 92.618699 235.167527 
L 89.375997 235.169352 
L 86.133294 235.04777 
L 82.890592 234.817627 
L 79.64789 234.493766 
L 76.405188 234.091033 
L 73.162485 233.624272 
L 69.919783 233.108328 
L 66.677081 232.558045 
L 63.434379 231.988269 
L 60.191676 231.413845 
L 56.948974 230.849616 
L 53.706272 230.310427 
L 50.46357 229.811124 
L 47.220867 229.366551 
L 43.978165 228.991553 
L 40.735463 228.700974 
L 37.492761 228.509659 
L 34.250058 228.432454 
L 31.007356 228.484201 
L 27.764654 228.679747 
z
" clip-path="url(#p80610f007e)" style="fill: #1f77b4"/>
   </g>
   <g id="FillBetweenPolyCollection_2">
    <path d="M 27.764654 208.108695 
L 27.764654 228.679747 
L 31.007356 228.484201 
L 34.250058 228.432454 
L 37.492761 228.509659 
L 40.735463 228.700974 
L 43.978165 228.991553 
L 47.220867 229.366551 
L 50.46357 229.811124 
L 53.706272 230.310427 
L 56.948974 230.849616 
L 60.191676 231.413845 
L 63.434379 231.988269 
L 66.677081 232.558045 
L 69.919783 233.108328 
L 73.162485 233.624272 
L 76.405188 234.091033 
L 79.64789 234.493766 
L 82.890592 234.817627 
L 86.133294 235.04777 
L 89.375997 235.169352 
L 92.618699 235.167527 
L 95.861401 235.027451 
L 99.104103 234.73434 
L 102.346806 234.286467 
L 105.589508 233.711233 
L 108.83221 233.039979 
L 112.074912 232.304048 
L 115.317615 231.534781 
L 118.560317 230.763521 
L 121.803019 230.02161 
L 125.045721 229.340389 
L 128.288424 228.7512 
L 131.531126 228.285387 
L 134.773828 227.974087 
L 138.01653 227.832791 
L 141.259233 227.85046 
L 144.501935 228.013484 
L 147.744637 228.308255 
L 150.98734 228.721165 
L 154.230042 229.238603 
L 157.472744 229.846962 
L 160.715446 230.532633 
L 163.958149 231.282006 
L 167.200851 232.081474 
L 170.443553 232.917431 
L 173.686255 233.776435 
L 176.928958 234.645253 
L 180.17166 235.510669 
L 183.414362 236.359464 
L 186.657064 237.17842 
L 189.899767 237.95432 
L 193.142469 238.673945 
L 196.385171 239.324078 
L 199.627873 239.891501 
L 202.870576 240.362995 
L 206.113278 240.725984 
L 209.35598 240.982606 
L 212.598682 241.14972 
L 215.841385 241.244824 
L 219.084087 241.285415 
L 222.326789 241.288992 
L 225.569491 241.273051 
L 228.812194 241.255092 
L 232.054896 241.252611 
L 235.297598 241.283106 
L 238.5403 241.364076 
L 241.783003 241.51177 
L 245.025705 241.72377 
L 248.268407 241.983288 
L 251.511109 242.273165 
L 254.753812 242.576243 
L 257.996514 242.875363 
L 261.239216 243.153366 
L 264.481918 243.393095 
L 267.724621 243.57739 
L 270.967323 243.689094 
L 274.210025 243.711047 
L 277.452727 243.628554 
L 280.69543 243.452331 
L 283.938132 243.208087 
L 287.180834 242.921727 
L 290.423536 242.619155 
L 293.666239 242.326273 
L 296.908941 242.068986 
L 300.151643 241.873197 
L 303.394345 241.76481 
L 306.637048 241.769729 
L 309.87975 241.913856 
L 313.122452 242.219365 
L 316.365154 242.680849 
L 319.607857 243.280541 
L 322.850559 244.000615 
L 326.093261 244.823245 
L 329.335963 245.730607 
L 332.578666 246.704875 
L 335.821368 247.728223 
L 339.06407 248.782826 
L 342.306772 249.850859 
L 345.549475 250.914496 
L 348.792177 251.955911 
L 352.034879 252.95728 
L 355.277581 253.900776 
L 358.520284 254.768574 
L 361.762986 255.542849 
L 365.005688 256.205776 
L 368.24839 256.739528 
L 371.491093 257.12628 
L 374.733795 257.348208 
L 377.976497 257.387485 
L 381.219199 257.226286 
L 381.219199 237.232916 
L 381.219199 237.232916 
L 377.976497 235.625976 
L 374.733795 234.291442 
L 371.491093 233.208146 
L 368.24839 232.35492 
L 365.005688 231.710594 
L 361.762986 231.254 
L 358.520284 230.963969 
L 355.277581 230.819332 
L 352.034879 230.79892 
L 348.792177 230.881565 
L 345.549475 231.046097 
L 342.306772 231.271348 
L 339.06407 231.536149 
L 335.821368 231.819331 
L 332.578666 232.099726 
L 329.335963 232.356164 
L 326.093261 232.567477 
L 322.850559 232.712496 
L 319.607857 232.770052 
L 316.365154 232.718976 
L 313.122452 232.538099 
L 309.87975 232.206316 
L 306.637048 231.715757 
L 303.394345 231.088089 
L 300.151643 230.348975 
L 296.908941 229.524077 
L 293.666239 228.639058 
L 290.423536 227.719582 
L 287.180834 226.791311 
L 283.938132 225.879908 
L 280.69543 225.011035 
L 277.452727 224.210356 
L 274.210025 223.503387 
L 270.967323 222.904375 
L 267.724621 222.408463 
L 264.481918 222.008943 
L 261.239216 221.699105 
L 257.996514 221.472243 
L 254.753812 221.321648 
L 251.511109 221.240612 
L 248.268407 221.222426 
L 245.025705 221.260383 
L 241.783003 221.347774 
L 238.5403 221.477734 
L 235.297598 221.637307 
L 232.054896 221.805623 
L 228.812194 221.961281 
L 225.569491 222.082882 
L 222.326789 222.149028 
L 219.084087 222.138318 
L 215.841385 222.029354 
L 212.598682 221.800735 
L 209.35598 221.431063 
L 206.113278 220.898939 
L 202.870576 220.184506 
L 199.627873 219.30341 
L 196.385171 218.306798 
L 193.142469 217.247361 
L 189.899767 216.177791 
L 186.657064 215.150777 
L 183.414362 214.21901 
L 180.17166 213.435181 
L 176.928958 212.851981 
L 173.686255 212.522101 
L 170.443553 212.498231 
L 167.200851 212.828662 
L 163.958149 213.495838 
L 160.715446 214.431516 
L 157.472744 215.566148 
L 154.230042 216.830189 
L 150.98734 218.154089 
L 147.744637 219.468303 
L 144.501935 220.703283 
L 141.259233 221.789483 
L 138.01653 222.657353 
L 134.773828 223.237349 
L 131.531126 223.466716 
L 128.288424 223.352847 
L 125.045721 222.944513 
L 121.803019 222.291021 
L 118.560317 221.441679 
L 115.317615 220.445794 
L 112.074912 219.352672 
L 108.83221 218.211621 
L 105.589508 217.071948 
L 102.346806 215.982961 
L 99.104103 214.993965 
L 95.861401 214.148821 
L 92.618699 213.451131 
L 89.375997 212.886453 
L 86.133294 212.440259 
L 82.890592 212.098023 
L 79.64789 211.845217 
L 76.405188 211.667314 
L 73.162485 211.549788 
L 69.919783 211.47811 
L 66.677081 211.437754 
L 63.434379 211.414192 
L 60.191676 211.392898 
L 56.948974 211.359345 
L 53.706272 211.299004 
L 50.46357 211.197349 
L 47.220867 211.039854 
L 43.978165 210.81199 
L 40.735463 210.49923 
L 37.492761 210.087048 
L 34.250058 209.560916 
L 31.007356 208.906307 
L 27.764654 208.108695 
z
" clip-path="url(#p80610f007e)" style="fill: #aec7e8"/>
   </g>
   <g id="FillBetweenPolyCollection_3">
    <path d="M 27.764654 185.772989 
L 27.764654 208.108695 
L 31.007356 208.906307 
L 34.250058 209.560916 
L 37.492761 210.087048 
L 40.735463 210.49923 
L 43.978165 210.81199 
L 47.220867 211.039854 
L 50.46357 211.197349 
L 53.706272 211.299004 
L 56.948974 211.359345 
L 60.191676 211.392898 
L 63.434379 211.414192 
L 66.677081 211.437754 
L 69.919783 211.47811 
L 73.162485 211.549788 
L 76.405188 211.667314 
L 79.64789 211.845217 
L 82.890592 212.098023 
L 86.133294 212.440259 
L 89.375997 212.886453 
L 92.618699 213.451131 
L 95.861401 214.148821 
L 99.104103 214.993965 
L 102.346806 215.982961 
L 105.589508 217.071948 
L 108.83221 218.211621 
L 112.074912 219.352672 
L 115.317615 220.445794 
L 118.560317 221.441679 
L 121.803019 222.291021 
L 125.045721 222.944513 
L 128.288424 223.352847 
L 131.531126 223.466716 
L 134.773828 223.237349 
L 138.01653 222.657353 
L 141.259233 221.789483 
L 144.501935 220.703283 
L 147.744637 219.468303 
L 150.98734 218.154089 
L 154.230042 216.830189 
L 157.472744 215.566148 
L 160.715446 214.431516 
L 163.958149 213.495838 
L 167.200851 212.828662 
L 170.443553 212.498231 
L 173.686255 212.522101 
L 176.928958 212.851981 
L 180.17166 213.435181 
L 183.414362 214.21901 
L 186.657064 215.150777 
L 189.899767 216.177791 
L 193.142469 217.247361 
L 196.385171 218.306798 
L 199.627873 219.30341 
L 202.870576 220.184506 
L 206.113278 220.898939 
L 209.35598 221.431063 
L 212.598682 221.800735 
L 215.841385 222.029354 
L 219.084087 222.138318 
L 222.326789 222.149028 
L 225.569491 222.082882 
L 228.812194 221.961281 
L 232.054896 221.805623 
L 235.297598 221.637307 
L 238.5403 221.477734 
L 241.783003 221.347774 
L 245.025705 221.260383 
L 248.268407 221.222426 
L 251.511109 221.240612 
L 254.753812 221.321648 
L 257.996514 221.472243 
L 261.239216 221.699105 
L 264.481918 222.008943 
L 267.724621 222.408463 
L 270.967323 222.904375 
L 274.210025 223.503387 
L 277.452727 224.210356 
L 280.69543 225.011035 
L 283.938132 225.879908 
L 287.180834 226.791311 
L 290.423536 227.719582 
L 293.666239 228.639058 
L 296.908941 229.524077 
L 300.151643 230.348975 
L 303.394345 231.088089 
L 306.637048 231.715757 
L 309.87975 232.206316 
L 313.122452 232.538099 
L 316.365154 232.718976 
L 319.607857 232.770052 
L 322.850559 232.712496 
L 326.093261 232.567477 
L 329.335963 232.356164 
L 332.578666 232.099726 
L 335.821368 231.819331 
L 339.06407 231.536149 
L 342.306772 231.271348 
L 345.549475 231.046097 
L 348.792177 230.881565 
L 352.034879 230.79892 
L 355.277581 230.819332 
L 358.520284 230.963969 
L 361.762986 231.254 
L 365.005688 231.710594 
L 368.24839 232.35492 
L 371.491093 233.208146 
L 374.733795 234.291442 
L 377.976497 235.625976 
L 381.219199 237.232916 
L 381.219199 200.605941 
L 381.219199 200.605941 
L 377.976497 198.801351 
L 374.733795 197.412407 
L 371.491093 196.405076 
L 368.24839 195.745321 
L 365.005688 195.399111 
L 361.762986 195.33241 
L 358.520284 195.511185 
L 355.277581 195.901401 
L 352.034879 196.469025 
L 348.792177 197.180022 
L 345.549475 198.000359 
L 342.306772 198.896 
L 339.06407 199.832913 
L 335.821368 200.777063 
L 332.578666 201.694416 
L 329.335963 202.550938 
L 326.093261 203.312595 
L 322.850559 203.945353 
L 319.607857 204.415177 
L 316.365154 204.688035 
L 313.122452 204.72989 
L 309.87975 204.506822 
L 306.637048 204.008372 
L 303.394345 203.276446 
L 300.151643 202.36003 
L 296.908941 201.308114 
L 293.666239 200.169685 
L 290.423536 198.99373 
L 287.180834 197.829239 
L 283.938132 196.725198 
L 280.69543 195.730597 
L 277.452727 194.894422 
L 274.210025 194.265339 
L 270.967323 193.866962 
L 267.724621 193.680448 
L 264.481918 193.682839 
L 261.239216 193.851178 
L 257.996514 194.162508 
L 254.753812 194.593872 
L 251.511109 195.122313 
L 248.268407 195.724872 
L 245.025705 196.378595 
L 241.783003 197.060522 
L 238.5403 197.747627 
L 235.297598 198.41413 
L 232.054896 199.030679 
L 228.812194 199.567682 
L 225.569491 199.995548 
L 222.326789 200.284685 
L 219.084087 200.405502 
L 215.841385 200.328408 
L 212.598682 200.02381 
L 209.35598 199.462118 
L 206.113278 198.61374 
L 202.870576 197.451355 
L 199.627873 195.999865 
L 196.385171 194.336395 
L 193.142469 192.54034 
L 189.899767 190.691095 
L 186.657064 188.868056 
L 183.414362 187.150617 
L 180.17166 185.618175 
L 176.928958 184.350123 
L 173.686255 183.425859 
L 170.443553 182.924776 
L 167.200851 182.920424 
L 163.958149 183.398871 
L 160.715446 184.278847 
L 157.472744 185.477345 
L 154.230042 186.911361 
L 150.98734 188.49789 
L 147.744637 190.153928 
L 144.501935 191.79647 
L 141.259233 193.34251 
L 138.01653 194.709044 
L 134.773828 195.813068 
L 131.531126 196.578531 
L 128.288424 197.001167 
L 125.045721 197.119065 
L 121.803019 196.970858 
L 118.560317 196.59518 
L 115.317615 196.030666 
L 112.074912 195.31595 
L 108.83221 194.489665 
L 105.589508 193.590446 
L 102.346806 192.656927 
L 99.104103 191.727742 
L 95.861401 190.838322 
L 92.618699 190.00043 
L 89.375997 189.215219 
L 86.133294 188.483793 
L 82.890592 187.807253 
L 79.64789 187.186705 
L 76.405188 186.623251 
L 73.162485 186.117994 
L 69.919783 185.672038 
L 66.677081 185.286486 
L 63.434379 184.962442 
L 60.191676 184.701008 
L 56.948974 184.503288 
L 53.706272 184.370386 
L 50.46357 184.303404 
L 47.220867 184.303446 
L 43.978165 184.371616 
L 40.735463 184.509016 
L 37.492761 184.71675 
L 34.250058 184.995921 
L 31.007356 185.347633 
L 27.764654 185.772989 
z
" clip-path="url(#p80610f007e)" style="fill: #ff7f0e"/>
   </g>
   <g id="FillBetweenPolyCollection_4">
    <path d="M 27.764654 166.892664 
L 27.764654 185.772989 
L 31.007356 185.347633 
L 34.250058 184.995921 
L 37.492761 184.71675 
L 40.735463 184.509016 
L 43.978165 184.371616 
L 47.220867 184.303446 
L 50.46357 184.303404 
L 53.706272 184.370386 
L 56.948974 184.503288 
L 60.191676 184.701008 
L 63.434379 184.962442 
L 66.677081 185.286486 
L 69.919783 185.672038 
L 73.162485 186.117994 
L 76.405188 186.623251 
L 79.64789 187.186705 
L 82.890592 187.807253 
L 86.133294 188.483793 
L 89.375997 189.215219 
L 92.618699 190.00043 
L 95.861401 190.838322 
L 99.104103 191.727742 
L 102.346806 192.656927 
L 105.589508 193.590446 
L 108.83221 194.489665 
L 112.074912 195.31595 
L 115.317615 196.030666 
L 118.560317 196.59518 
L 121.803019 196.970858 
L 125.045721 197.119065 
L 128.288424 197.001167 
L 131.531126 196.578531 
L 134.773828 195.813068 
L 138.01653 194.709044 
L 141.259233 193.34251 
L 144.501935 191.79647 
L 147.744637 190.153928 
L 150.98734 188.49789 
L 154.230042 186.911361 
L 157.472744 185.477345 
L 160.715446 184.278847 
L 163.958149 183.398871 
L 167.200851 182.920424 
L 170.443553 182.924776 
L 173.686255 183.425859 
L 176.928958 184.350123 
L 180.17166 185.618175 
L 183.414362 187.150617 
L 186.657064 188.868056 
L 189.899767 190.691095 
L 193.142469 192.54034 
L 196.385171 194.336395 
L 199.627873 195.999865 
L 202.870576 197.451355 
L 206.113278 198.61374 
L 209.35598 199.462118 
L 212.598682 200.02381 
L 215.841385 200.328408 
L 219.084087 200.405502 
L 222.326789 200.284685 
L 225.569491 199.995548 
L 228.812194 199.567682 
L 232.054896 199.030679 
L 235.297598 198.41413 
L 238.5403 197.747627 
L 241.783003 197.060522 
L 245.025705 196.378595 
L 248.268407 195.724872 
L 251.511109 195.122313 
L 254.753812 194.593872 
L 257.996514 194.162508 
L 261.239216 193.851178 
L 264.481918 193.682839 
L 267.724621 193.680448 
L 270.967323 193.866962 
L 274.210025 194.265339 
L 277.452727 194.894422 
L 280.69543 195.730597 
L 283.938132 196.725198 
L 287.180834 197.829239 
L 290.423536 198.99373 
L 293.666239 200.169685 
L 296.908941 201.308114 
L 300.151643 202.36003 
L 303.394345 203.276446 
L 306.637048 204.008372 
L 309.87975 204.506822 
L 313.122452 204.72989 
L 316.365154 204.688035 
L 319.607857 204.415177 
L 322.850559 203.945353 
L 326.093261 203.312595 
L 329.335963 202.550938 
L 332.578666 201.694416 
L 335.821368 200.777063 
L 339.06407 199.832913 
L 342.306772 198.896 
L 345.549475 198.000359 
L 348.792177 197.180022 
L 352.034879 196.469025 
L 355.277581 195.901401 
L 358.520284 195.511185 
L 361.762986 195.33241 
L 365.005688 195.399111 
L 368.24839 195.745321 
L 371.491093 196.405076 
L 374.733795 197.412407 
L 377.976497 198.801351 
L 381.219199 200.605941 
L 381.219199 161.340691 
L 381.219199 161.340691 
L 377.976497 159.606816 
L 374.733795 158.258173 
L 371.491093 157.264438 
L 368.24839 156.595286 
L 365.005688 156.220395 
L 361.762986 156.109439 
L 358.520284 156.232094 
L 355.277581 156.558038 
L 352.034879 157.056945 
L 348.792177 157.698492 
L 345.549475 158.452355 
L 342.306772 159.28821 
L 339.06407 160.175732 
L 335.821368 161.084598 
L 332.578666 161.984484 
L 329.335963 162.845066 
L 326.093261 163.636019 
L 322.850559 164.32702 
L 319.607857 164.887745 
L 316.365154 165.287869 
L 313.122452 165.49707 
L 309.87975 165.48513 
L 306.637048 165.244696 
L 303.394345 164.819424 
L 300.151643 164.259874 
L 296.908941 163.616604 
L 293.666239 162.940171 
L 290.423536 162.281135 
L 287.180834 161.690054 
L 283.938132 161.217486 
L 280.69543 160.91399 
L 277.452727 160.830125 
L 274.210025 161.015967 
L 270.967323 161.484419 
L 267.724621 162.185362 
L 264.481918 163.062576 
L 261.239216 164.059839 
L 257.996514 165.12093 
L 254.753812 166.189627 
L 251.511109 167.209709 
L 248.268407 168.124955 
L 245.025705 168.879143 
L 241.783003 169.416052 
L 238.5403 169.680452 
L 235.297598 169.655643 
L 232.054896 169.374978 
L 228.812194 168.875155 
L 225.569491 168.192873 
L 222.326789 167.36483 
L 219.084087 166.427723 
L 215.841385 165.418252 
L 212.598682 164.373114 
L 209.35598 163.329008 
L 206.113278 162.322631 
L 202.870576 161.390026 
L 199.627873 160.552143 
L 196.385171 159.81484 
L 193.142469 159.183322 
L 189.899767 158.662788 
L 186.657064 158.258444 
L 183.414362 157.97549 
L 180.17166 157.819129 
L 176.928958 157.794565 
L 173.686255 157.906999 
L 170.443553 158.161633 
L 167.200851 158.562537 
L 163.958149 159.096792 
L 160.715446 159.738409 
L 157.472744 160.461061 
L 154.230042 161.238421 
L 150.98734 162.044163 
L 147.744637 162.851959 
L 144.501935 163.635483 
L 141.259233 164.368408 
L 138.01653 165.024407 
L 134.773828 165.577154 
L 131.531126 166.002548 
L 128.288424 166.299482 
L 125.045721 166.480409 
L 121.803019 166.557961 
L 118.560317 166.544767 
L 115.317615 166.453458 
L 112.074912 166.296664 
L 108.83221 166.087014 
L 105.589508 165.837139 
L 102.346806 165.55967 
L 99.104103 165.267236 
L 95.861401 164.97179 
L 92.618699 164.680273 
L 89.375997 164.397381 
L 86.133294 164.1278 
L 82.890592 163.876214 
L 79.64789 163.64731 
L 76.405188 163.445772 
L 73.162485 163.276285 
L 69.919783 163.143536 
L 66.677081 163.052208 
L 63.434379 163.006989 
L 60.191676 163.012562 
L 56.948974 163.073613 
L 53.706272 163.194828 
L 50.46357 163.380891 
L 47.220867 163.636488 
L 43.978165 163.966305 
L 40.735463 164.375027 
L 37.492761 164.867338 
L 34.250058 165.447924 
L 31.007356 166.121471 
L 27.764654 166.892664 
z
" clip-path="url(#p80610f007e)" style="fill: #ffbb78"/>
   </g>
   <g id="FillBetweenPolyCollection_5">
    <path d="M 27.764654 151.435513 
L 27.764654 166.892664 
L 31.007356 166.121471 
L 34.250058 165.447924 
L 37.492761 164.867338 
L 40.735463 164.375027 
L 43.978165 163.966305 
L 47.220867 163.636488 
L 50.46357 163.380891 
L 53.706272 163.194828 
L 56.948974 163.073613 
L 60.191676 163.012562 
L 63.434379 163.006989 
L 66.677081 163.052208 
L 69.919783 163.143536 
L 73.162485 163.276285 
L 76.405188 163.445772 
L 79.64789 163.64731 
L 82.890592 163.876214 
L 86.133294 164.1278 
L 89.375997 164.397381 
L 92.618699 164.680273 
L 95.861401 164.97179 
L 99.104103 165.267236 
L 102.346806 165.55967 
L 105.589508 165.837139 
L 108.83221 166.087014 
L 112.074912 166.296664 
L 115.317615 166.453458 
L 118.560317 166.544767 
L 121.803019 166.557961 
L 125.045721 166.480409 
L 128.288424 166.299482 
L 131.531126 166.002548 
L 134.773828 165.577154 
L 138.01653 165.024407 
L 141.259233 164.368408 
L 144.501935 163.635483 
L 147.744637 162.851959 
L 150.98734 162.044163 
L 154.230042 161.238421 
L 157.472744 160.461061 
L 160.715446 159.738409 
L 163.958149 159.096792 
L 167.200851 158.562537 
L 170.443553 158.161633 
L 173.686255 157.906999 
L 176.928958 157.794565 
L 180.17166 157.819129 
L 183.414362 157.97549 
L 186.657064 158.258444 
L 189.899767 158.662788 
L 193.142469 159.183322 
L 196.385171 159.81484 
L 199.627873 160.552143 
L 202.870576 161.390026 
L 206.113278 162.322631 
L 209.35598 163.329008 
L 212.598682 164.373114 
L 215.841385 165.418252 
L 219.084087 166.427723 
L 222.326789 167.36483 
L 225.569491 168.192873 
L 228.812194 168.875155 
L 232.054896 169.374978 
L 235.297598 169.655643 
L 238.5403 169.680452 
L 241.783003 169.416052 
L 245.025705 168.879143 
L 248.268407 168.124955 
L 251.511109 167.209709 
L 254.753812 166.189627 
L 257.996514 165.12093 
L 261.239216 164.059839 
L 264.481918 163.062576 
L 267.724621 162.185362 
L 270.967323 161.484419 
L 274.210025 161.015967 
L 277.452727 160.830125 
L 280.69543 160.91399 
L 283.938132 161.217486 
L 287.180834 161.690054 
L 290.423536 162.281135 
L 293.666239 162.940171 
L 296.908941 163.616604 
L 300.151643 164.259874 
L 303.394345 164.819424 
L 306.637048 165.244696 
L 309.87975 165.48513 
L 313.122452 165.49707 
L 316.365154 165.287869 
L 319.607857 164.887745 
L 322.850559 164.32702 
L 326.093261 163.636019 
L 329.335963 162.845066 
L 332.578666 161.984484 
L 335.821368 161.084598 
L 339.06407 160.175732 
L 342.306772 159.28821 
L 345.549475 158.452355 
L 348.792177 157.698492 
L 352.034879 157.056945 
L 355.277581 156.558038 
L 358.520284 156.232094 
L 361.762986 156.109439 
L 365.005688 156.220395 
L 368.24839 156.595286 
L 371.491093 157.264438 
L 374.733795 158.258173 
L 377.976497 159.606816 
L 381.219199 161.340691 
L 381.219199 134.986025 
L 381.219199 134.986025 
L 377.976497 133.293858 
L 374.733795 132.040204 
L 371.491093 131.190188 
L 368.24839 130.708931 
L 365.005688 130.561559 
L 361.762986 130.713192 
L 358.520284 131.128956 
L 355.277581 131.773973 
L 352.034879 132.613366 
L 348.792177 133.612259 
L 345.549475 134.735774 
L 342.306772 135.949036 
L 339.06407 137.217166 
L 335.821368 138.505289 
L 332.578666 139.778528 
L 329.335963 141.002005 
L 326.093261 142.140845 
L 322.850559 143.160169 
L 319.607857 144.025102 
L 316.365154 144.700767 
L 313.122452 145.152287 
L 309.87975 145.344896 
L 306.637048 145.267508 
L 303.394345 144.961866 
L 300.151643 144.476861 
L 296.908941 143.861383 
L 293.666239 143.164324 
L 290.423536 142.434574 
L 287.180834 141.721024 
L 283.938132 141.072565 
L 280.69543 140.538088 
L 277.452727 140.166484 
L 274.210025 140.006256 
L 270.967323 140.075886 
L 267.724621 140.342966 
L 264.481918 140.770162 
L 261.239216 141.320138 
L 257.996514 141.955558 
L 254.753812 142.639087 
L 251.511109 143.333388 
L 248.268407 144.001127 
L 245.025705 144.604968 
L 241.783003 145.107575 
L 238.5403 145.472168 
L 235.297598 145.683582 
L 232.054896 145.75473 
L 228.812194 145.700401 
L 225.569491 145.535383 
L 222.326789 145.274466 
L 219.084087 144.932439 
L 215.841385 144.52409 
L 212.598682 144.064209 
L 209.35598 143.567585 
L 206.113278 143.049007 
L 202.870576 142.523254 
L 199.627873 142.004912 
L 196.385171 141.508366 
L 193.142469 141.047994 
L 189.899767 140.638175 
L 186.657064 140.293288 
L 183.414362 140.027709 
L 180.17166 139.855818 
L 176.928958 139.791992 
L 173.686255 139.85061 
L 170.443553 140.04605 
L 167.200851 140.391079 
L 163.958149 140.874357 
L 160.715446 141.465988 
L 157.472744 142.135598 
L 154.230042 142.852812 
L 150.98734 143.587256 
L 147.744637 144.308556 
L 144.501935 144.986338 
L 141.259233 145.590228 
L 138.01653 146.089851 
L 134.773828 146.454834 
L 131.531126 146.65767 
L 128.288424 146.700453 
L 125.045721 146.602744 
L 121.803019 146.384326 
L 118.560317 146.064984 
L 115.317615 145.664502 
L 112.074912 145.202666 
L 108.83221 144.69926 
L 105.589508 144.174067 
L 102.346806 143.646874 
L 99.104103 143.137463 
L 95.861401 142.664384 
L 92.618699 142.237037 
L 89.375997 141.860726 
L 86.133294 141.540736 
L 82.890592 141.28235 
L 79.64789 141.090852 
L 76.405188 140.971527 
L 73.162485 140.929659 
L 69.919783 140.970531 
L 66.677081 141.099427 
L 63.434379 141.321633 
L 60.191676 141.642431 
L 56.948974 142.067106 
L 53.706272 142.600942 
L 50.46357 143.249223 
L 47.220867 144.017233 
L 43.978165 144.910257 
L 40.735463 145.933577 
L 37.492761 147.092479 
L 34.250058 148.392247 
L 31.007356 149.838163 
L 27.764654 151.435513 
z
" clip-path="url(#p80610f007e)" style="fill: #2ca02c"/>
   </g>
   <g id="FillBetweenPolyCollection_6">
    <path d="M 27.764654 127.668964 
L 27.764654 151.435513 
L 31.007356 149.838163 
L 34.250058 148.392247 
L 37.492761 147.092479 
L 40.735463 145.933577 
L 43.978165 144.910257 
L 47.220867 144.017233 
L 50.46357 143.249223 
L 53.706272 142.600942 
L 56.948974 142.067106 
L 60.191676 141.642431 
L 63.434379 141.321633 
L 66.677081 141.099427 
L 69.919783 140.970531 
L 73.162485 140.929659 
L 76.405188 140.971527 
L 79.64789 141.090852 
L 82.890592 141.28235 
L 86.133294 141.540736 
L 89.375997 141.860726 
L 92.618699 142.237037 
L 95.861401 142.664384 
L 99.104103 143.137463 
L 102.346806 143.646874 
L 105.589508 144.174067 
L 108.83221 144.69926 
L 112.074912 145.202666 
L 115.317615 145.664502 
L 118.560317 146.064984 
L 121.803019 146.384326 
L 125.045721 146.602744 
L 128.288424 146.700453 
L 131.531126 146.65767 
L 134.773828 146.454834 
L 138.01653 146.089851 
L 141.259233 145.590228 
L 144.501935 144.986338 
L 147.744637 144.308556 
L 150.98734 143.587256 
L 154.230042 142.852812 
L 157.472744 142.135598 
L 160.715446 141.465988 
L 163.958149 140.874357 
L 167.200851 140.391079 
L 170.443553 140.04605 
L 173.686255 139.85061 
L 176.928958 139.791992 
L 180.17166 139.855818 
L 183.414362 140.027709 
L 186.657064 140.293288 
L 189.899767 140.638175 
L 193.142469 141.047994 
L 196.385171 141.508366 
L 199.627873 142.004912 
L 202.870576 142.523254 
L 206.113278 143.049007 
L 209.35598 143.567585 
L 212.598682 144.064209 
L 215.841385 144.52409 
L 219.084087 144.932439 
L 222.326789 145.274466 
L 225.569491 145.535383 
L 228.812194 145.700401 
L 232.054896 145.75473 
L 235.297598 145.683582 
L 238.5403 145.472168 
L 241.783003 145.107575 
L 245.025705 144.604968 
L 248.268407 144.001127 
L 251.511109 143.333388 
L 254.753812 142.639087 
L 257.996514 141.955558 
L 261.239216 141.320138 
L 264.481918 140.770162 
L 267.724621 140.342966 
L 270.967323 140.075886 
L 274.210025 140.006256 
L 277.452727 140.166484 
L 280.69543 140.538088 
L 283.938132 141.072565 
L 287.180834 141.721024 
L 290.423536 142.434574 
L 293.666239 143.164324 
L 296.908941 143.861383 
L 300.151643 144.476861 
L 303.394345 144.961866 
L 306.637048 145.267508 
L 309.87975 145.344896 
L 313.122452 145.152287 
L 316.365154 144.700767 
L 319.607857 144.025102 
L 322.850559 143.160169 
L 326.093261 142.140845 
L 329.335963 141.002005 
L 332.578666 139.778528 
L 335.821368 138.505289 
L 339.06407 137.217166 
L 342.306772 135.949036 
L 345.549475 134.735774 
L 348.792177 133.612259 
L 352.034879 132.613366 
L 355.277581 131.773973 
L 358.520284 131.128956 
L 361.762986 130.713192 
L 365.005688 130.561559 
L 368.24839 130.708931 
L 371.491093 131.190188 
L 374.733795 132.040204 
L 377.976497 133.293858 
L 381.219199 134.986025 
L 381.219199 108.796786 
L 381.219199 108.796786 
L 377.976497 108.188179 
L 374.733795 107.712724 
L 371.491093 107.362569 
L 368.24839 107.12986 
L 365.005688 107.006746 
L 361.762986 106.985376 
L 358.520284 107.057896 
L 355.277581 107.216454 
L 352.034879 107.453199 
L 348.792177 107.760279 
L 345.549475 108.12984 
L 342.306772 108.554032 
L 339.06407 109.025002 
L 335.821368 109.534898 
L 332.578666 110.075867 
L 329.335963 110.640058 
L 326.093261 111.219618 
L 322.850559 111.806696 
L 319.607857 112.393438 
L 316.365154 112.971994 
L 313.122452 113.534511 
L 309.87975 114.07315 
L 306.637048 114.582836 
L 303.394345 115.064661 
L 300.151643 115.520553 
L 296.908941 115.952438 
L 293.666239 116.362245 
L 290.423536 116.751899 
L 287.180834 117.123328 
L 283.938132 117.478459 
L 280.69543 117.819219 
L 277.452727 118.147535 
L 274.210025 118.465324 
L 270.967323 118.77372 
L 267.724621 119.072529 
L 264.481918 119.361432 
L 261.239216 119.640104 
L 257.996514 119.908227 
L 254.753812 120.165476 
L 251.511109 120.411532 
L 248.268407 120.646071 
L 245.025705 120.868774 
L 241.783003 121.079318 
L 238.5403 121.277283 
L 235.297598 121.458435 
L 232.054896 121.613587 
L 228.812194 121.733218 
L 225.569491 121.80781 
L 222.326789 121.827842 
L 219.084087 121.783794 
L 215.841385 121.666149 
L 212.598682 121.465385 
L 209.35598 121.171983 
L 206.113278 120.776424 
L 202.870576 120.269895 
L 199.627873 119.659852 
L 196.385171 118.970017 
L 193.142469 118.224822 
L 189.899767 117.448695 
L 186.657064 116.666068 
L 183.414362 115.901371 
L 180.17166 115.179033 
L 176.928958 114.523486 
L 173.686255 113.959158 
L 170.443553 113.510482 
L 167.200851 113.200522 
L 163.958149 113.031941 
L 160.715446 112.991694 
L 157.472744 113.06633 
L 154.230042 113.242401 
L 150.98734 113.506456 
L 147.744637 113.845047 
L 144.501935 114.244723 
L 141.259233 114.692035 
L 138.01653 115.173533 
L 134.773828 115.675768 
L 131.531126 116.185587 
L 128.288424 116.692901 
L 125.045721 117.189429 
L 121.803019 117.666912 
L 118.560317 118.117093 
L 115.317615 118.531714 
L 112.074912 118.902516 
L 108.83221 119.221242 
L 105.589508 119.479633 
L 102.346806 119.669433 
L 99.104103 119.782382 
L 95.861401 119.812277 
L 92.618699 119.768092 
L 89.375997 119.665606 
L 86.133294 119.520629 
L 82.890592 119.348972 
L 79.64789 119.166445 
L 76.405188 118.988858 
L 73.162485 118.832022 
L 69.919783 118.711747 
L 66.677081 118.643843 
L 63.434379 118.644122 
L 60.191676 118.728393 
L 56.948974 118.912466 
L 53.706272 119.212153 
L 50.46357 119.643263 
L 47.220867 120.221607 
L 43.978165 120.962995 
L 40.735463 121.883238 
L 37.492761 122.998146 
L 34.250058 124.32353 
L 31.007356 125.875199 
L 27.764654 127.668964 
z
" clip-path="url(#p80610f007e)" style="fill: #98df8a"/>
   </g>
   <g id="FillBetweenPolyCollection_7">
    <path d="M 27.764654 110.516907 
L 27.764654 127.668964 
L 31.007356 125.875199 
L 34.250058 124.32353 
L 37.492761 122.998146 
L 40.735463 121.883238 
L 43.978165 120.962995 
L 47.220867 120.221607 
L 50.46357 119.643263 
L 53.706272 119.212153 
L 56.948974 118.912466 
L 60.191676 118.728393 
L 63.434379 118.644122 
L 66.677081 118.643843 
L 69.919783 118.711747 
L 73.162485 118.832022 
L 76.405188 118.988858 
L 79.64789 119.166445 
L 82.890592 119.348972 
L 86.133294 119.520629 
L 89.375997 119.665606 
L 92.618699 119.768092 
L 95.861401 119.812277 
L 99.104103 119.782382 
L 102.346806 119.669433 
L 105.589508 119.479633 
L 108.83221 119.221242 
L 112.074912 118.902516 
L 115.317615 118.531714 
L 118.560317 118.117093 
L 121.803019 117.666912 
L 125.045721 117.189429 
L 128.288424 116.692901 
L 131.531126 116.185587 
L 134.773828 115.675768 
L 138.01653 115.173533 
L 141.259233 114.692035 
L 144.501935 114.244723 
L 147.744637 113.845047 
L 150.98734 113.506456 
L 154.230042 113.242401 
L 157.472744 113.06633 
L 160.715446 112.991694 
L 163.958149 113.031941 
L 167.200851 113.200522 
L 170.443553 113.510482 
L 173.686255 113.959158 
L 176.928958 114.523486 
L 180.17166 115.179033 
L 183.414362 115.901371 
L 186.657064 116.666068 
L 189.899767 117.448695 
L 193.142469 118.224822 
L 196.385171 118.970017 
L 199.627873 119.659852 
L 202.870576 120.269895 
L 206.113278 120.776424 
L 209.35598 121.171983 
L 212.598682 121.465385 
L 215.841385 121.666149 
L 219.084087 121.783794 
L 222.326789 121.827842 
L 225.569491 121.80781 
L 228.812194 121.733218 
L 232.054896 121.613587 
L 235.297598 121.458435 
L 238.5403 121.277283 
L 241.783003 121.079318 
L 245.025705 120.868774 
L 248.268407 120.646071 
L 251.511109 120.411532 
L 254.753812 120.165476 
L 257.996514 119.908227 
L 261.239216 119.640104 
L 264.481918 119.361432 
L 267.724621 119.072529 
L 270.967323 118.77372 
L 274.210025 118.465324 
L 277.452727 118.147535 
L 280.69543 117.819219 
L 283.938132 117.478459 
L 287.180834 117.123328 
L 290.423536 116.751899 
L 293.666239 116.362245 
L 296.908941 115.952438 
L 300.151643 115.520553 
L 303.394345 115.064661 
L 306.637048 114.582836 
L 309.87975 114.07315 
L 313.122452 113.534511 
L 316.365154 112.971994 
L 319.607857 112.393438 
L 322.850559 111.806696 
L 326.093261 111.219618 
L 329.335963 110.640058 
L 332.578666 110.075867 
L 335.821368 109.534898 
L 339.06407 109.025002 
L 342.306772 108.554032 
L 345.549475 108.12984 
L 348.792177 107.760279 
L 352.034879 107.453199 
L 355.277581 107.216454 
L 358.520284 107.057896 
L 361.762986 106.985376 
L 365.005688 107.006746 
L 368.24839 107.12986 
L 371.491093 107.362569 
L 374.733795 107.712724 
L 377.976497 108.188179 
L 381.219199 108.796786 
L 381.219199 61.075591 
L 381.219199 61.075591 
L 377.976497 60.469216 
L 374.733795 60.125013 
L 371.491093 60.02125 
L 368.24839 60.136199 
L 365.005688 60.44813 
L 361.762986 60.935313 
L 358.520284 61.576018 
L 355.277581 62.348516 
L 352.034879 63.231076 
L 348.792177 64.20197 
L 345.549475 65.239467 
L 342.306772 66.321838 
L 339.06407 67.427353 
L 335.821368 68.534283 
L 332.578666 69.620896 
L 329.335963 70.665465 
L 326.093261 71.646259 
L 322.850559 72.541548 
L 319.607857 73.329602 
L 316.365154 73.988693 
L 313.122452 74.497089 
L 309.87975 74.833135 
L 306.637048 74.990709 
L 303.394345 74.998348 
L 300.151643 74.889277 
L 296.908941 74.696725 
L 293.666239 74.453917 
L 290.423536 74.19408 
L 287.180834 73.95044 
L 283.938132 73.756225 
L 280.69543 73.644661 
L 277.452727 73.648974 
L 274.210025 73.802149 
L 270.967323 74.118399 
L 267.724621 74.580124 
L 264.481918 75.166639 
L 261.239216 75.85726 
L 257.996514 76.631304 
L 254.753812 77.468087 
L 251.511109 78.346925 
L 248.268407 79.247135 
L 245.025705 80.148033 
L 241.783003 81.028936 
L 238.5403 81.869321 
L 235.297598 82.654958 
L 232.054896 83.379793 
L 228.812194 84.038317 
L 225.569491 84.625018 
L 222.326789 85.13439 
L 219.084087 85.560921 
L 215.841385 85.899104 
L 212.598682 86.143428 
L 209.35598 86.288384 
L 206.113278 86.328463 
L 202.870576 86.258826 
L 199.627873 86.090022 
L 196.385171 85.847995 
L 193.142469 85.559355 
L 189.899767 85.250715 
L 186.657064 84.948686 
L 183.414362 84.679879 
L 180.17166 84.470906 
L 176.928958 84.348379 
L 173.686255 84.338908 
L 170.443553 84.469106 
L 167.200851 84.76351 
L 163.958149 85.215641 
L 160.715446 85.795137 
L 157.472744 86.471024 
L 154.230042 87.212328 
L 150.98734 87.988074 
L 147.744637 88.767288 
L 144.501935 89.518996 
L 141.259233 90.212224 
L 138.01653 90.815996 
L 134.773828 91.299339 
L 131.531126 91.634244 
L 128.288424 91.823323 
L 125.045721 91.887251 
L 121.803019 91.846938 
L 118.560317 91.723291 
L 115.317615 91.53722 
L 112.074912 91.309635 
L 108.83221 91.061444 
L 105.589508 90.813556 
L 102.346806 90.586879 
L 99.104103 90.402324 
L 95.861401 90.279376 
L 92.618699 90.227 
L 89.375997 90.249448 
L 86.133294 90.350949 
L 82.890592 90.535731 
L 79.64789 90.808024 
L 76.405188 91.172056 
L 73.162485 91.632056 
L 69.919783 92.192254 
L 66.677081 92.856877 
L 63.434379 93.630156 
L 60.191676 94.516318 
L 56.948974 95.519593 
L 53.706272 96.64421 
L 50.46357 97.894397 
L 47.220867 99.274383 
L 43.978165 100.788398 
L 40.735463 102.44067 
L 37.492761 104.235428 
L 34.250058 106.176901 
L 31.007356 108.269318 
L 27.764654 110.516907 
z
" clip-path="url(#p80610f007e)" style="fill: #d62728"/>
   </g>
   <g id="matplotlib.axis_1">
    <g id="xtick_1">
     <g id="line2d_1">
      <defs>
       <path id="mc619b9255c" d="M 0 0 
L 0 3.5 
" style="stroke: #000000; stroke-width: 0.8"/>
      </defs>
      <g>
       <use xlink:href="#mc619b9255c" x="27.764654" y="314.12125" style="stroke: #000000; stroke-width: 0.8"/>
      </g>
     </g>
     <g id="text_1">
      <!-- 2014 -->
      <g transform="translate(12.109973 340.173358) rotate(-45) scale(0.1 -0.1)">
       <defs>
        <path id="TimesNewRomanPSMT-32" d="M 2934 816 
L 2638 0 
L 138 0 
L 138 116 
Q 1241 1122 1691 1759 
Q 2141 2397 2141 2925 
Q 2141 3328 1894 3587 
Q 1647 3847 1303 3847 
Q 991 3847 742 3664 
Q 494 3481 375 3128 
L 259 3128 
Q 338 3706 661 4015 
Q 984 4325 1469 4325 
Q 1984 4325 2329 3994 
Q 2675 3663 2675 3213 
Q 2675 2891 2525 2569 
Q 2294 2063 1775 1497 
Q 997 647 803 472 
L 1909 472 
Q 2247 472 2383 497 
Q 2519 522 2628 598 
Q 2738 675 2819 816 
L 2934 816 
z
" transform="scale(0.015625)"/>
        <path id="TimesNewRomanPSMT-30" d="M 231 2094 
Q 231 2819 450 3342 
Q 669 3866 1031 4122 
Q 1313 4325 1613 4325 
Q 2100 4325 2488 3828 
Q 2972 3213 2972 2159 
Q 2972 1422 2759 906 
Q 2547 391 2217 158 
Q 1888 -75 1581 -75 
Q 975 -75 572 641 
Q 231 1244 231 2094 
z
M 844 2016 
Q 844 1141 1059 588 
Q 1238 122 1591 122 
Q 1759 122 1940 273 
Q 2122 425 2216 781 
Q 2359 1319 2359 2297 
Q 2359 3022 2209 3506 
Q 2097 3866 1919 4016 
Q 1791 4119 1609 4119 
Q 1397 4119 1231 3928 
Q 1006 3669 925 3112 
Q 844 2556 844 2016 
z
" transform="scale(0.015625)"/>
        <path id="TimesNewRomanPSMT-31" d="M 750 3822 
L 1781 4325 
L 1884 4325 
L 1884 747 
Q 1884 391 1914 303 
Q 1944 216 2037 169 
Q 2131 122 2419 116 
L 2419 0 
L 825 0 
L 825 116 
Q 1125 122 1212 167 
Q 1300 213 1334 289 
Q 1369 366 1369 747 
L 1369 3034 
Q 1369 3497 1338 3628 
Q 1316 3728 1258 3775 
Q 1200 3822 1119 3822 
Q 1003 3822 797 3725 
L 750 3822 
z
" transform="scale(0.015625)"/>
        <path id="TimesNewRomanPSMT-34" d="M 2978 1563 
L 2978 1119 
L 2409 1119 
L 2409 0 
L 1894 0 
L 1894 1119 
L 100 1119 
L 100 1519 
L 2066 4325 
L 2409 4325 
L 2409 1563 
L 2978 1563 
z
M 1894 1563 
L 1894 3666 
L 406 1563 
L 1894 1563 
z
" transform="scale(0.015625)"/>
       </defs>
       <use xlink:href="#TimesNewRomanPSMT-32"/>
       <use xlink:href="#TimesNewRomanPSMT-30" transform="translate(50 0)"/>
       <use xlink:href="#TimesNewRomanPSMT-31" transform="translate(100 0)"/>
       <use xlink:href="#TimesNewRomanPSMT-34" transform="translate(150 0)"/>
      </g>
     </g>
    </g>
    <g id="xtick_2">
     <g id="line2d_2">
      <g>
       <use xlink:href="#mc619b9255c" x="63.110108" y="314.12125" style="stroke: #000000; stroke-width: 0.8"/>
      </g>
     </g>
     <g id="text_2">
      <!-- 2015 -->
      <g transform="translate(47.455427 340.173358) rotate(-45) scale(0.1 -0.1)">
       <defs>
        <path id="TimesNewRomanPSMT-35" d="M 2778 4238 
L 2534 3706 
L 1259 3706 
L 981 3138 
Q 1809 3016 2294 2522 
Q 2709 2097 2709 1522 
Q 2709 1188 2573 903 
Q 2438 619 2231 419 
Q 2025 219 1772 97 
Q 1413 -75 1034 -75 
Q 653 -75 479 54 
Q 306 184 306 341 
Q 306 428 378 495 
Q 450 563 559 563 
Q 641 563 702 538 
Q 763 513 909 409 
Q 1144 247 1384 247 
Q 1750 247 2026 523 
Q 2303 800 2303 1197 
Q 2303 1581 2056 1914 
Q 1809 2247 1375 2428 
Q 1034 2569 447 2591 
L 1259 4238 
L 2778 4238 
z
" transform="scale(0.015625)"/>
       </defs>
       <use xlink:href="#TimesNewRomanPSMT-32"/>
       <use xlink:href="#TimesNewRomanPSMT-30" transform="translate(50 0)"/>
       <use xlink:href="#TimesNewRomanPSMT-31" transform="translate(100 0)"/>
       <use xlink:href="#TimesNewRomanPSMT-35" transform="translate(150 0)"/>
      </g>
     </g>
    </g>
    <g id="xtick_3">
     <g id="line2d_3">
      <g>
       <use xlink:href="#mc619b9255c" x="98.455563" y="314.12125" style="stroke: #000000; stroke-width: 0.8"/>
      </g>
     </g>
     <g id="text_3">
      <!-- 2016 -->
      <g transform="translate(82.800882 340.173358) rotate(-45) scale(0.1 -0.1)">
       <defs>
        <path id="TimesNewRomanPSMT-36" d="M 2869 4325 
L 2869 4209 
Q 2456 4169 2195 4045 
Q 1934 3922 1679 3669 
Q 1425 3416 1258 3105 
Q 1091 2794 978 2366 
Q 1428 2675 1881 2675 
Q 2316 2675 2634 2325 
Q 2953 1975 2953 1425 
Q 2953 894 2631 456 
Q 2244 -75 1606 -75 
Q 1172 -75 869 213 
Q 275 772 275 1663 
Q 275 2231 503 2743 
Q 731 3256 1154 3653 
Q 1578 4050 1965 4187 
Q 2353 4325 2688 4325 
L 2869 4325 
z
M 925 2138 
Q 869 1716 869 1456 
Q 869 1156 980 804 
Q 1091 453 1309 247 
Q 1469 100 1697 100 
Q 1969 100 2183 356 
Q 2397 613 2397 1088 
Q 2397 1622 2184 2012 
Q 1972 2403 1581 2403 
Q 1463 2403 1327 2353 
Q 1191 2303 925 2138 
z
" transform="scale(0.015625)"/>
       </defs>
       <use xlink:href="#TimesNewRomanPSMT-32"/>
       <use xlink:href="#TimesNewRomanPSMT-30" transform="translate(50 0)"/>
       <use xlink:href="#TimesNewRomanPSMT-31" transform="translate(100 0)"/>
       <use xlink:href="#TimesNewRomanPSMT-36" transform="translate(150 0)"/>
      </g>
     </g>
    </g>
    <g id="xtick_4">
     <g id="line2d_4">
      <g>
       <use xlink:href="#mc619b9255c" x="133.801018" y="314.12125" style="stroke: #000000; stroke-width: 0.8"/>
      </g>
     </g>
     <g id="text_4">
      <!-- 2017 -->
      <g transform="translate(118.146336 340.173358) rotate(-45) scale(0.1 -0.1)">
       <defs>
        <path id="TimesNewRomanPSMT-37" d="M 644 4238 
L 2916 4238 
L 2916 4119 
L 1503 -88 
L 1153 -88 
L 2419 3728 
L 1253 3728 
Q 900 3728 750 3644 
Q 488 3500 328 3200 
L 238 3234 
L 644 4238 
z
" transform="scale(0.015625)"/>
       </defs>
       <use xlink:href="#TimesNewRomanPSMT-32"/>
       <use xlink:href="#TimesNewRomanPSMT-30" transform="translate(50 0)"/>
       <use xlink:href="#TimesNewRomanPSMT-31" transform="translate(100 0)"/>
       <use xlink:href="#TimesNewRomanPSMT-37" transform="translate(150 0)"/>
      </g>
     </g>
    </g>
    <g id="xtick_5">
     <g id="line2d_5">
      <g>
       <use xlink:href="#mc619b9255c" x="169.146472" y="314.12125" style="stroke: #000000; stroke-width: 0.8"/>
      </g>
     </g>
     <g id="text_5">
      <!-- 2018 -->
      <g transform="translate(153.491791 340.173358) rotate(-45) scale(0.1 -0.1)">
       <defs>
        <path id="TimesNewRomanPSMT-38" d="M 1228 2134 
Q 725 2547 579 2797 
Q 434 3047 434 3316 
Q 434 3728 753 4026 
Q 1072 4325 1600 4325 
Q 2113 4325 2425 4047 
Q 2738 3769 2738 3413 
Q 2738 3175 2569 2928 
Q 2400 2681 1866 2347 
Q 2416 1922 2594 1678 
Q 2831 1359 2831 1006 
Q 2831 559 2490 242 
Q 2150 -75 1597 -75 
Q 994 -75 656 303 
Q 388 606 388 966 
Q 388 1247 577 1523 
Q 766 1800 1228 2134 
z
M 1719 2469 
Q 2094 2806 2194 3001 
Q 2294 3197 2294 3444 
Q 2294 3772 2109 3958 
Q 1925 4144 1606 4144 
Q 1288 4144 1088 3959 
Q 888 3775 888 3528 
Q 888 3366 970 3203 
Q 1053 3041 1206 2894 
L 1719 2469 
z
M 1375 2016 
Q 1116 1797 991 1539 
Q 866 1281 866 981 
Q 866 578 1086 336 
Q 1306 94 1647 94 
Q 1984 94 2187 284 
Q 2391 475 2391 747 
Q 2391 972 2272 1150 
Q 2050 1481 1375 2016 
z
" transform="scale(0.015625)"/>
       </defs>
       <use xlink:href="#TimesNewRomanPSMT-32"/>
       <use xlink:href="#TimesNewRomanPSMT-30" transform="translate(50 0)"/>
       <use xlink:href="#TimesNewRomanPSMT-31" transform="translate(100 0)"/>
       <use xlink:href="#TimesNewRomanPSMT-38" transform="translate(150 0)"/>
      </g>
     </g>
    </g>
    <g id="xtick_6">
     <g id="line2d_6">
      <g>
       <use xlink:href="#mc619b9255c" x="204.491927" y="314.12125" style="stroke: #000000; stroke-width: 0.8"/>
      </g>
     </g>
     <g id="text_6">
      <!-- 2019 -->
      <g transform="translate(188.837245 340.173358) rotate(-45) scale(0.1 -0.1)">
       <defs>
        <path id="TimesNewRomanPSMT-39" d="M 338 -88 
L 338 28 
Q 744 34 1094 217 
Q 1444 400 1770 856 
Q 2097 1313 2225 1859 
Q 1734 1544 1338 1544 
Q 891 1544 572 1889 
Q 253 2234 253 2806 
Q 253 3363 572 3797 
Q 956 4325 1575 4325 
Q 2097 4325 2469 3894 
Q 2925 3359 2925 2575 
Q 2925 1869 2578 1258 
Q 2231 647 1613 244 
Q 1109 -88 516 -88 
L 338 -88 
z
M 2275 2091 
Q 2331 2497 2331 2741 
Q 2331 3044 2228 3395 
Q 2125 3747 1936 3934 
Q 1747 4122 1506 4122 
Q 1228 4122 1018 3872 
Q 809 3622 809 3128 
Q 809 2469 1088 2097 
Q 1291 1828 1588 1828 
Q 1731 1828 1928 1897 
Q 2125 1966 2275 2091 
z
" transform="scale(0.015625)"/>
       </defs>
       <use xlink:href="#TimesNewRomanPSMT-32"/>
       <use xlink:href="#TimesNewRomanPSMT-30" transform="translate(50 0)"/>
       <use xlink:href="#TimesNewRomanPSMT-31" transform="translate(100 0)"/>
       <use xlink:href="#TimesNewRomanPSMT-39" transform="translate(150 0)"/>
      </g>
     </g>
    </g>
    <g id="xtick_7">
     <g id="line2d_7">
      <g>
       <use xlink:href="#mc619b9255c" x="239.837381" y="314.12125" style="stroke: #000000; stroke-width: 0.8"/>
      </g>
     </g>
     <g id="text_7">
      <!-- 2020 -->
      <g transform="translate(224.1827 340.173358) rotate(-45) scale(0.1 -0.1)">
       <use xlink:href="#TimesNewRomanPSMT-32"/>
       <use xlink:href="#TimesNewRomanPSMT-30" transform="translate(50 0)"/>
       <use xlink:href="#TimesNewRomanPSMT-32" transform="translate(100 0)"/>
       <use xlink:href="#TimesNewRomanPSMT-30" transform="translate(150 0)"/>
      </g>
     </g>
    </g>
    <g id="xtick_8">
     <g id="line2d_8">
      <g>
       <use xlink:href="#mc619b9255c" x="275.182836" y="314.12125" style="stroke: #000000; stroke-width: 0.8"/>
      </g>
     </g>
     <g id="text_8">
      <!-- 2021 -->
      <g transform="translate(259.528155 340.173358) rotate(-45) scale(0.1 -0.1)">
       <use xlink:href="#TimesNewRomanPSMT-32"/>
       <use xlink:href="#TimesNewRomanPSMT-30" transform="translate(50 0)"/>
       <use xlink:href="#TimesNewRomanPSMT-32" transform="translate(100 0)"/>
       <use xlink:href="#TimesNewRomanPSMT-31" transform="translate(150 0)"/>
      </g>
     </g>
    </g>
    <g id="xtick_9">
     <g id="line2d_9">
      <g>
       <use xlink:href="#mc619b9255c" x="310.52829" y="314.12125" style="stroke: #000000; stroke-width: 0.8"/>
      </g>
     </g>
     <g id="text_9">
      <!-- 2022 -->
      <g transform="translate(294.873609 340.173358) rotate(-45) scale(0.1 -0.1)">
       <use xlink:href="#TimesNewRomanPSMT-32"/>
       <use xlink:href="#TimesNewRomanPSMT-30" transform="translate(50 0)"/>
       <use xlink:href="#TimesNewRomanPSMT-32" transform="translate(100 0)"/>
       <use xlink:href="#TimesNewRomanPSMT-32" transform="translate(150 0)"/>
      </g>
     </g>
    </g>
    <g id="xtick_10">
     <g id="line2d_10">
      <g>
       <use xlink:href="#mc619b9255c" x="345.873745" y="314.12125" style="stroke: #000000; stroke-width: 0.8"/>
      </g>
     </g>
     <g id="text_10">
      <!-- 2023 -->
      <g transform="translate(330.219064 340.173358) rotate(-45) scale(0.1 -0.1)">
       <defs>
        <path id="TimesNewRomanPSMT-33" d="M 325 3431 
Q 506 3859 782 4092 
Q 1059 4325 1472 4325 
Q 1981 4325 2253 3994 
Q 2459 3747 2459 3466 
Q 2459 3003 1878 2509 
Q 2269 2356 2469 2072 
Q 2669 1788 2669 1403 
Q 2669 853 2319 450 
Q 1863 -75 997 -75 
Q 569 -75 414 31 
Q 259 138 259 259 
Q 259 350 332 419 
Q 406 488 509 488 
Q 588 488 669 463 
Q 722 447 909 348 
Q 1097 250 1169 231 
Q 1284 197 1416 197 
Q 1734 197 1970 444 
Q 2206 691 2206 1028 
Q 2206 1275 2097 1509 
Q 2016 1684 1919 1775 
Q 1784 1900 1550 2001 
Q 1316 2103 1072 2103 
L 972 2103 
L 972 2197 
Q 1219 2228 1467 2375 
Q 1716 2522 1828 2728 
Q 1941 2934 1941 3181 
Q 1941 3503 1739 3701 
Q 1538 3900 1238 3900 
Q 753 3900 428 3381 
L 325 3431 
z
" transform="scale(0.015625)"/>
       </defs>
       <use xlink:href="#TimesNewRomanPSMT-32"/>
       <use xlink:href="#TimesNewRomanPSMT-30" transform="translate(50 0)"/>
       <use xlink:href="#TimesNewRomanPSMT-32" transform="translate(100 0)"/>
       <use xlink:href="#TimesNewRomanPSMT-33" transform="translate(150 0)"/>
      </g>
     </g>
    </g>
    <g id="xtick_11">
     <g id="line2d_11">
      <g>
       <use xlink:href="#mc619b9255c" x="381.219199" y="314.12125" style="stroke: #000000; stroke-width: 0.8"/>
      </g>
     </g>
     <g id="text_11">
      <!-- 2024 -->
      <g transform="translate(365.564518 340.173358) rotate(-45) scale(0.1 -0.1)">
       <use xlink:href="#TimesNewRomanPSMT-32"/>
       <use xlink:href="#TimesNewRomanPSMT-30" transform="translate(50 0)"/>
       <use xlink:href="#TimesNewRomanPSMT-32" transform="translate(100 0)"/>
       <use xlink:href="#TimesNewRomanPSMT-34" transform="translate(150 0)"/>
      </g>
     </g>
    </g>
    <g id="text_12">
     <!-- Year -->
     <g transform="translate(193.434114 354.018404) scale(0.12 -0.12)">
      <defs>
       <path id="TimesNewRomanPSMT-59" d="M 3050 4238 
L 4528 4238 
L 4528 4122 
L 4447 4122 
Q 4366 4122 4209 4050 
Q 4053 3978 3925 3843 
Q 3797 3709 3609 3406 
L 2588 1797 
L 2588 734 
Q 2588 344 2675 247 
Q 2794 116 3050 116 
L 3188 116 
L 3188 0 
L 1388 0 
L 1388 116 
L 1538 116 
Q 1806 116 1919 278 
Q 1988 378 1988 734 
L 1988 1738 
L 825 3513 
Q 619 3825 545 3903 
Q 472 3981 241 4091 
Q 178 4122 59 4122 
L 59 4238 
L 1872 4238 
L 1872 4122 
L 1778 4122 
Q 1631 4122 1507 4053 
Q 1384 3984 1384 3847 
Q 1384 3734 1575 3441 
L 2459 2075 
L 3291 3381 
Q 3478 3675 3478 3819 
Q 3478 3906 3433 3975 
Q 3388 4044 3303 4083 
Q 3219 4122 3050 4122 
L 3050 4238 
z
" transform="scale(0.015625)"/>
       <path id="TimesNewRomanPSMT-65" d="M 681 1784 
Q 678 1147 991 784 
Q 1303 422 1725 422 
Q 2006 422 2214 576 
Q 2422 731 2563 1106 
L 2659 1044 
Q 2594 616 2278 264 
Q 1963 -88 1488 -88 
Q 972 -88 605 314 
Q 238 716 238 1394 
Q 238 2128 614 2539 
Q 991 2950 1559 2950 
Q 2041 2950 2350 2633 
Q 2659 2316 2659 1784 
L 681 1784 
z
M 681 1966 
L 2006 1966 
Q 1991 2241 1941 2353 
Q 1863 2528 1708 2628 
Q 1553 2728 1384 2728 
Q 1125 2728 920 2526 
Q 716 2325 681 1966 
z
" transform="scale(0.015625)"/>
       <path id="TimesNewRomanPSMT-61" d="M 1822 413 
Q 1381 72 1269 19 
Q 1100 -59 909 -59 
Q 613 -59 420 144 
Q 228 347 228 678 
Q 228 888 322 1041 
Q 450 1253 767 1440 
Q 1084 1628 1822 1897 
L 1822 2009 
Q 1822 2438 1686 2597 
Q 1550 2756 1291 2756 
Q 1094 2756 978 2650 
Q 859 2544 859 2406 
L 866 2225 
Q 866 2081 792 2003 
Q 719 1925 600 1925 
Q 484 1925 411 2006 
Q 338 2088 338 2228 
Q 338 2497 613 2722 
Q 888 2947 1384 2947 
Q 1766 2947 2009 2819 
Q 2194 2722 2281 2516 
Q 2338 2381 2338 1966 
L 2338 994 
Q 2338 584 2353 492 
Q 2369 400 2405 369 
Q 2441 338 2488 338 
Q 2538 338 2575 359 
Q 2641 400 2828 588 
L 2828 413 
Q 2478 -56 2159 -56 
Q 2006 -56 1915 50 
Q 1825 156 1822 413 
z
M 1822 616 
L 1822 1706 
Q 1350 1519 1213 1441 
Q 966 1303 859 1153 
Q 753 1003 753 825 
Q 753 600 887 451 
Q 1022 303 1197 303 
Q 1434 303 1822 616 
z
" transform="scale(0.015625)"/>
       <path id="TimesNewRomanPSMT-72" d="M 1038 2947 
L 1038 2303 
Q 1397 2947 1775 2947 
Q 1947 2947 2059 2842 
Q 2172 2738 2172 2600 
Q 2172 2478 2090 2393 
Q 2009 2309 1897 2309 
Q 1788 2309 1652 2417 
Q 1516 2525 1450 2525 
Q 1394 2525 1328 2463 
Q 1188 2334 1038 2041 
L 1038 669 
Q 1038 431 1097 309 
Q 1138 225 1241 169 
Q 1344 113 1538 113 
L 1538 0 
L 72 0 
L 72 113 
Q 291 113 397 181 
Q 475 231 506 341 
Q 522 394 522 644 
L 522 1753 
Q 522 2253 501 2348 
Q 481 2444 426 2487 
Q 372 2531 291 2531 
Q 194 2531 72 2484 
L 41 2597 
L 906 2947 
L 1038 2947 
z
" transform="scale(0.015625)"/>
      </defs>
      <use xlink:href="#TimesNewRomanPSMT-59"/>
      <use xlink:href="#TimesNewRomanPSMT-65" transform="translate(62.216797 0)"/>
      <use xlink:href="#TimesNewRomanPSMT-61" transform="translate(106.601562 0)"/>
      <use xlink:href="#TimesNewRomanPSMT-72" transform="translate(150.986328 0)"/>
     </g>
    </g>
   </g>
   <g id="patch_3">
    <path d="M 10.091927 314.12125 
L 10.091927 36.92125 
" style="fill: none; stroke: #000000; stroke-width: 0.8; stroke-linejoin: miter; stroke-linecap: square"/>
   </g>
   <g id="patch_4">
    <path d="M 398.891927 314.12125 
L 398.891927 36.92125 
" style="fill: none; stroke: #000000; stroke-width: 0.8; stroke-linejoin: miter; stroke-linecap: square"/>
   </g>
   <g id="patch_5">
    <path d="M 10.091927 314.12125 
L 398.891927 314.12125 
" style="fill: none; stroke: #000000; stroke-width: 0.8; stroke-linejoin: miter; stroke-linecap: square"/>
   </g>
   <g id="patch_6">
    <path d="M 10.091927 36.92125 
L 398.891927 36.92125 
" style="fill: none; stroke: #000000; stroke-width: 0.8; stroke-linejoin: miter; stroke-linecap: square"/>
   </g>
   <g id="text_13">
    <!-- Content Uploads from 2014 to 2024 (uploads/day)  -->
    <g transform="translate(61.20302 16.92125) scale(0.14 -0.14)">
     <defs>
      <path id="TimesNewRomanPSMT-43" d="M 3853 4334 
L 3950 2894 
L 3853 2894 
Q 3659 3541 3300 3825 
Q 2941 4109 2438 4109 
Q 2016 4109 1675 3895 
Q 1334 3681 1139 3212 
Q 944 2744 944 2047 
Q 944 1472 1128 1050 
Q 1313 628 1683 403 
Q 2053 178 2528 178 
Q 2941 178 3256 354 
Q 3572 531 3950 1056 
L 4047 994 
Q 3728 428 3303 165 
Q 2878 -97 2294 -97 
Q 1241 -97 663 684 
Q 231 1266 231 2053 
Q 231 2688 515 3219 
Q 800 3750 1298 4042 
Q 1797 4334 2388 4334 
Q 2847 4334 3294 4109 
Q 3425 4041 3481 4041 
Q 3566 4041 3628 4100 
Q 3709 4184 3744 4334 
L 3853 4334 
z
" transform="scale(0.015625)"/>
      <path id="TimesNewRomanPSMT-6f" d="M 1600 2947 
Q 2250 2947 2644 2453 
Q 2978 2031 2978 1484 
Q 2978 1100 2793 706 
Q 2609 313 2286 112 
Q 1963 -88 1566 -88 
Q 919 -88 538 428 
Q 216 863 216 1403 
Q 216 1797 411 2186 
Q 606 2575 925 2761 
Q 1244 2947 1600 2947 
z
M 1503 2744 
Q 1338 2744 1170 2645 
Q 1003 2547 900 2300 
Q 797 2053 797 1666 
Q 797 1041 1045 587 
Q 1294 134 1700 134 
Q 2003 134 2200 384 
Q 2397 634 2397 1244 
Q 2397 2006 2069 2444 
Q 1847 2744 1503 2744 
z
" transform="scale(0.015625)"/>
      <path id="TimesNewRomanPSMT-6e" d="M 1034 2341 
Q 1538 2947 1994 2947 
Q 2228 2947 2397 2830 
Q 2566 2713 2666 2444 
Q 2734 2256 2734 1869 
L 2734 647 
Q 2734 375 2778 278 
Q 2813 200 2889 156 
Q 2966 113 3172 113 
L 3172 0 
L 1756 0 
L 1756 113 
L 1816 113 
Q 2016 113 2095 173 
Q 2175 234 2206 353 
Q 2219 400 2219 647 
L 2219 1819 
Q 2219 2209 2117 2386 
Q 2016 2563 1775 2563 
Q 1403 2563 1034 2156 
L 1034 647 
Q 1034 356 1069 288 
Q 1113 197 1189 155 
Q 1266 113 1500 113 
L 1500 0 
L 84 0 
L 84 113 
L 147 113 
Q 366 113 442 223 
Q 519 334 519 647 
L 519 1709 
Q 519 2225 495 2337 
Q 472 2450 423 2490 
Q 375 2531 294 2531 
Q 206 2531 84 2484 
L 38 2597 
L 900 2947 
L 1034 2947 
L 1034 2341 
z
" transform="scale(0.015625)"/>
      <path id="TimesNewRomanPSMT-74" d="M 1031 3803 
L 1031 2863 
L 1700 2863 
L 1700 2644 
L 1031 2644 
L 1031 788 
Q 1031 509 1111 412 
Q 1191 316 1316 316 
Q 1419 316 1516 380 
Q 1613 444 1666 569 
L 1788 569 
Q 1678 263 1478 108 
Q 1278 -47 1066 -47 
Q 922 -47 784 33 
Q 647 113 581 261 
Q 516 409 516 719 
L 516 2644 
L 63 2644 
L 63 2747 
Q 234 2816 414 2980 
Q 594 3144 734 3369 
Q 806 3488 934 3803 
L 1031 3803 
z
" transform="scale(0.015625)"/>
      <path id="TimesNewRomanPSMT-20" transform="scale(0.015625)"/>
      <path id="TimesNewRomanPSMT-55" d="M 3053 4122 
L 3053 4238 
L 4553 4238 
L 4553 4122 
L 4394 4122 
Q 4144 4122 4009 3913 
Q 3944 3816 3944 3463 
L 3944 1744 
Q 3944 1106 3817 754 
Q 3691 403 3320 151 
Q 2950 -100 2313 -100 
Q 1619 -100 1259 140 
Q 900 381 750 788 
Q 650 1066 650 1831 
L 650 3488 
Q 650 3878 542 4000 
Q 434 4122 194 4122 
L 34 4122 
L 34 4238 
L 1866 4238 
L 1866 4122 
L 1703 4122 
Q 1441 4122 1328 3956 
Q 1250 3844 1250 3488 
L 1250 1641 
Q 1250 1394 1295 1075 
Q 1341 756 1459 578 
Q 1578 400 1801 284 
Q 2025 169 2350 169 
Q 2766 169 3094 350 
Q 3422 531 3542 814 
Q 3663 1097 3663 1772 
L 3663 3488 
Q 3663 3884 3575 3984 
Q 3453 4122 3213 4122 
L 3053 4122 
z
" transform="scale(0.015625)"/>
      <path id="TimesNewRomanPSMT-70" d="M -6 2578 
L 875 2934 
L 994 2934 
L 994 2266 
Q 1216 2644 1439 2795 
Q 1663 2947 1909 2947 
Q 2341 2947 2628 2609 
Q 2981 2197 2981 1534 
Q 2981 794 2556 309 
Q 2206 -88 1675 -88 
Q 1444 -88 1275 -22 
Q 1150 25 994 166 
L 994 -706 
Q 994 -1000 1030 -1079 
Q 1066 -1159 1155 -1206 
Q 1244 -1253 1478 -1253 
L 1478 -1369 
L -22 -1369 
L -22 -1253 
L 56 -1253 
Q 228 -1256 350 -1188 
Q 409 -1153 442 -1076 
Q 475 -1000 475 -688 
L 475 2019 
Q 475 2297 450 2372 
Q 425 2447 370 2484 
Q 316 2522 222 2522 
Q 147 2522 31 2478 
L -6 2578 
z
M 994 2081 
L 994 1013 
Q 994 666 1022 556 
Q 1066 375 1236 237 
Q 1406 100 1666 100 
Q 1978 100 2172 344 
Q 2425 663 2425 1241 
Q 2425 1897 2138 2250 
Q 1938 2494 1663 2494 
Q 1513 2494 1366 2419 
Q 1253 2363 994 2081 
z
" transform="scale(0.015625)"/>
      <path id="TimesNewRomanPSMT-6c" d="M 1184 4444 
L 1184 647 
Q 1184 378 1223 290 
Q 1263 203 1344 158 
Q 1425 113 1647 113 
L 1647 0 
L 244 0 
L 244 113 
Q 441 113 512 153 
Q 584 194 625 287 
Q 666 381 666 647 
L 666 3247 
Q 666 3731 644 3842 
Q 622 3953 573 3993 
Q 525 4034 450 4034 
Q 369 4034 244 3984 
L 191 4094 
L 1044 4444 
L 1184 4444 
z
" transform="scale(0.015625)"/>
      <path id="TimesNewRomanPSMT-64" d="M 2222 322 
Q 2013 103 1813 7 
Q 1613 -88 1381 -88 
Q 913 -88 563 304 
Q 213 697 213 1313 
Q 213 1928 600 2439 
Q 988 2950 1597 2950 
Q 1975 2950 2222 2709 
L 2222 3238 
Q 2222 3728 2198 3840 
Q 2175 3953 2125 3993 
Q 2075 4034 2000 4034 
Q 1919 4034 1784 3984 
L 1744 4094 
L 2597 4444 
L 2738 4444 
L 2738 1134 
Q 2738 631 2761 520 
Q 2784 409 2836 365 
Q 2888 322 2956 322 
Q 3041 322 3181 375 
L 3216 266 
L 2366 -88 
L 2222 -88 
L 2222 322 
z
M 2222 541 
L 2222 2016 
Q 2203 2228 2109 2403 
Q 2016 2578 1861 2667 
Q 1706 2756 1559 2756 
Q 1284 2756 1069 2509 
Q 784 2184 784 1559 
Q 784 928 1059 592 
Q 1334 256 1672 256 
Q 1956 256 2222 541 
z
" transform="scale(0.015625)"/>
      <path id="TimesNewRomanPSMT-73" d="M 2050 2947 
L 2050 1972 
L 1947 1972 
Q 1828 2431 1642 2597 
Q 1456 2763 1169 2763 
Q 950 2763 815 2647 
Q 681 2531 681 2391 
Q 681 2216 781 2091 
Q 878 1963 1175 1819 
L 1631 1597 
Q 2266 1288 2266 781 
Q 2266 391 1970 151 
Q 1675 -88 1309 -88 
Q 1047 -88 709 6 
Q 606 38 541 38 
Q 469 38 428 -44 
L 325 -44 
L 325 978 
L 428 978 
Q 516 541 762 319 
Q 1009 97 1316 97 
Q 1531 97 1667 223 
Q 1803 350 1803 528 
Q 1803 744 1651 891 
Q 1500 1038 1047 1263 
Q 594 1488 453 1669 
Q 313 1847 313 2119 
Q 313 2472 555 2709 
Q 797 2947 1181 2947 
Q 1350 2947 1591 2875 
Q 1750 2828 1803 2828 
Q 1853 2828 1881 2850 
Q 1909 2872 1947 2947 
L 2050 2947 
z
" transform="scale(0.015625)"/>
      <path id="TimesNewRomanPSMT-66" d="M 1319 2638 
L 1319 756 
Q 1319 356 1406 250 
Q 1522 113 1716 113 
L 1975 113 
L 1975 0 
L 266 0 
L 266 113 
L 394 113 
Q 519 113 622 175 
Q 725 238 764 344 
Q 803 450 803 756 
L 803 2638 
L 247 2638 
L 247 2863 
L 803 2863 
L 803 3050 
Q 803 3478 940 3775 
Q 1078 4072 1361 4255 
Q 1644 4438 1997 4438 
Q 2325 4438 2600 4225 
Q 2781 4084 2781 3909 
Q 2781 3816 2700 3733 
Q 2619 3650 2525 3650 
Q 2453 3650 2373 3701 
Q 2294 3753 2178 3923 
Q 2063 4094 1966 4153 
Q 1869 4213 1750 4213 
Q 1606 4213 1506 4136 
Q 1406 4059 1362 3898 
Q 1319 3738 1319 3069 
L 1319 2863 
L 2056 2863 
L 2056 2638 
L 1319 2638 
z
" transform="scale(0.015625)"/>
      <path id="TimesNewRomanPSMT-6d" d="M 1050 2338 
Q 1363 2650 1419 2697 
Q 1559 2816 1721 2881 
Q 1884 2947 2044 2947 
Q 2313 2947 2506 2790 
Q 2700 2634 2766 2338 
Q 3088 2713 3309 2830 
Q 3531 2947 3766 2947 
Q 3994 2947 4170 2830 
Q 4347 2713 4450 2447 
Q 4519 2266 4519 1878 
L 4519 647 
Q 4519 378 4559 278 
Q 4591 209 4675 161 
Q 4759 113 4950 113 
L 4950 0 
L 3538 0 
L 3538 113 
L 3597 113 
Q 3781 113 3884 184 
Q 3956 234 3988 344 
Q 4000 397 4000 647 
L 4000 1878 
Q 4000 2228 3916 2372 
Q 3794 2572 3525 2572 
Q 3359 2572 3192 2489 
Q 3025 2406 2788 2181 
L 2781 2147 
L 2788 2013 
L 2788 647 
Q 2788 353 2820 281 
Q 2853 209 2943 161 
Q 3034 113 3253 113 
L 3253 0 
L 1806 0 
L 1806 113 
Q 2044 113 2133 169 
Q 2222 225 2256 338 
Q 2272 391 2272 647 
L 2272 1878 
Q 2272 2228 2169 2381 
Q 2031 2581 1784 2581 
Q 1616 2581 1450 2491 
Q 1191 2353 1050 2181 
L 1050 647 
Q 1050 366 1089 281 
Q 1128 197 1204 155 
Q 1281 113 1516 113 
L 1516 0 
L 100 0 
L 100 113 
Q 297 113 375 155 
Q 453 197 493 289 
Q 534 381 534 647 
L 534 1741 
Q 534 2213 506 2350 
Q 484 2453 437 2492 
Q 391 2531 309 2531 
Q 222 2531 100 2484 
L 53 2597 
L 916 2947 
L 1050 2947 
L 1050 2338 
z
" transform="scale(0.015625)"/>
      <path id="TimesNewRomanPSMT-28" d="M 1988 -1253 
L 1988 -1369 
Q 1516 -1131 1200 -813 
Q 750 -359 506 256 
Q 263 872 263 1534 
Q 263 2503 741 3301 
Q 1219 4100 1988 4444 
L 1988 4313 
Q 1603 4100 1356 3731 
Q 1109 3363 987 2797 
Q 866 2231 866 1616 
Q 866 947 969 400 
Q 1050 -31 1165 -292 
Q 1281 -553 1476 -793 
Q 1672 -1034 1988 -1253 
z
" transform="scale(0.015625)"/>
      <path id="TimesNewRomanPSMT-75" d="M 2709 2863 
L 2709 1128 
Q 2709 631 2732 520 
Q 2756 409 2807 365 
Q 2859 322 2928 322 
Q 3025 322 3147 375 
L 3191 266 
L 2334 -88 
L 2194 -88 
L 2194 519 
Q 1825 119 1631 15 
Q 1438 -88 1222 -88 
Q 981 -88 804 51 
Q 628 191 559 409 
Q 491 628 491 1028 
L 491 2306 
Q 491 2509 447 2587 
Q 403 2666 317 2708 
Q 231 2750 6 2747 
L 6 2863 
L 1009 2863 
L 1009 947 
Q 1009 547 1148 422 
Q 1288 297 1484 297 
Q 1619 297 1789 381 
Q 1959 466 2194 703 
L 2194 2325 
Q 2194 2569 2105 2655 
Q 2016 2741 1734 2747 
L 1734 2863 
L 2709 2863 
z
" transform="scale(0.015625)"/>
      <path id="TimesNewRomanPSMT-2f" d="M 1794 4444 
L 259 -88 
L 9 -88 
L 1544 4444 
L 1794 4444 
z
" transform="scale(0.015625)"/>
      <path id="TimesNewRomanPSMT-79" d="M 38 2863 
L 1372 2863 
L 1372 2747 
L 1306 2747 
Q 1166 2747 1095 2686 
Q 1025 2625 1025 2534 
Q 1025 2413 1128 2197 
L 1825 753 
L 2466 2334 
Q 2519 2463 2519 2588 
Q 2519 2644 2497 2672 
Q 2472 2706 2419 2726 
Q 2366 2747 2231 2747 
L 2231 2863 
L 3163 2863 
L 3163 2747 
Q 3047 2734 2984 2696 
Q 2922 2659 2847 2556 
Q 2819 2513 2741 2316 
L 1575 -541 
Q 1406 -956 1132 -1168 
Q 859 -1381 606 -1381 
Q 422 -1381 303 -1275 
Q 184 -1169 184 -1031 
Q 184 -900 270 -820 
Q 356 -741 506 -741 
Q 609 -741 788 -809 
Q 913 -856 944 -856 
Q 1038 -856 1148 -759 
Q 1259 -663 1372 -384 
L 1575 113 
L 547 2272 
Q 500 2369 397 2513 
Q 319 2622 269 2659 
Q 197 2709 38 2747 
L 38 2863 
z
" transform="scale(0.015625)"/>
      <path id="TimesNewRomanPSMT-29" d="M 144 4313 
L 144 4444 
Q 619 4209 934 3891 
Q 1381 3434 1625 2820 
Q 1869 2206 1869 1541 
Q 1869 572 1392 -226 
Q 916 -1025 144 -1369 
L 144 -1253 
Q 528 -1038 776 -670 
Q 1025 -303 1145 264 
Q 1266 831 1266 1447 
Q 1266 2113 1163 2663 
Q 1084 3094 967 3353 
Q 850 3613 656 3853 
Q 463 4094 144 4313 
z
" transform="scale(0.015625)"/>
     </defs>
     <use xlink:href="#TimesNewRomanPSMT-43"/>
     <use xlink:href="#TimesNewRomanPSMT-6f" transform="translate(66.699219 0)"/>
     <use xlink:href="#TimesNewRomanPSMT-6e" transform="translate(116.699219 0)"/>
     <use xlink:href="#TimesNewRomanPSMT-74" transform="translate(166.699219 0)"/>
     <use xlink:href="#TimesNewRomanPSMT-65" transform="translate(194.482422 0)"/>
     <use xlink:href="#TimesNewRomanPSMT-6e" transform="translate(238.867188 0)"/>
     <use xlink:href="#TimesNewRomanPSMT-74" transform="translate(288.867188 0)"/>
     <use xlink:href="#TimesNewRomanPSMT-20" transform="translate(316.650391 0)"/>
     <use xlink:href="#TimesNewRomanPSMT-55" transform="translate(341.650391 0)"/>
     <use xlink:href="#TimesNewRomanPSMT-70" transform="translate(413.867188 0)"/>
     <use xlink:href="#TimesNewRomanPSMT-6c" transform="translate(463.867188 0)"/>
     <use xlink:href="#TimesNewRomanPSMT-6f" transform="translate(491.650391 0)"/>
     <use xlink:href="#TimesNewRomanPSMT-61" transform="translate(541.650391 0)"/>
     <use xlink:href="#TimesNewRomanPSMT-64" transform="translate(586.035156 0)"/>
     <use xlink:href="#TimesNewRomanPSMT-73" transform="translate(636.035156 0)"/>
     <use xlink:href="#TimesNewRomanPSMT-20" transform="translate(674.951172 0)"/>
     <use xlink:href="#TimesNewRomanPSMT-66" transform="translate(699.951172 0)"/>
     <use xlink:href="#TimesNewRomanPSMT-72" transform="translate(733.251953 0)"/>
     <use xlink:href="#TimesNewRomanPSMT-6f" transform="translate(766.552734 0)"/>
     <use xlink:href="#TimesNewRomanPSMT-6d" transform="translate(816.552734 0)"/>
     <use xlink:href="#TimesNewRomanPSMT-20" transform="translate(894.335938 0)"/>
     <use xlink:href="#TimesNewRomanPSMT-32" transform="translate(919.335938 0)"/>
     <use xlink:href="#TimesNewRomanPSMT-30" transform="translate(969.335938 0)"/>
     <use xlink:href="#TimesNewRomanPSMT-31" transform="translate(1019.335938 0)"/>
     <use xlink:href="#TimesNewRomanPSMT-34" transform="translate(1069.335938 0)"/>
     <use xlink:href="#TimesNewRomanPSMT-20" transform="translate(1119.335938 0)"/>
     <use xlink:href="#TimesNewRomanPSMT-74" transform="translate(1144.335938 0)"/>
     <use xlink:href="#TimesNewRomanPSMT-6f" transform="translate(1172.119141 0)"/>
     <use xlink:href="#TimesNewRomanPSMT-20" transform="translate(1222.119141 0)"/>
     <use xlink:href="#TimesNewRomanPSMT-32" transform="translate(1247.119141 0)"/>
     <use xlink:href="#TimesNewRomanPSMT-30" transform="translate(1297.119141 0)"/>
     <use xlink:href="#TimesNewRomanPSMT-32" transform="translate(1347.119141 0)"/>
     <use xlink:href="#TimesNewRomanPSMT-34" transform="translate(1397.119141 0)"/>
     <use xlink:href="#TimesNewRomanPSMT-20" transform="translate(1447.119141 0)"/>
     <use xlink:href="#TimesNewRomanPSMT-28" transform="translate(1472.119141 0)"/>
     <use xlink:href="#TimesNewRomanPSMT-75" transform="translate(1505.419922 0)"/>
     <use xlink:href="#TimesNewRomanPSMT-70" transform="translate(1555.419922 0)"/>
     <use xlink:href="#TimesNewRomanPSMT-6c" transform="translate(1605.419922 0)"/>
     <use xlink:href="#TimesNewRomanPSMT-6f" transform="translate(1633.203125 0)"/>
     <use xlink:href="#TimesNewRomanPSMT-61" transform="translate(1683.203125 0)"/>
     <use xlink:href="#TimesNewRomanPSMT-64" transform="translate(1727.587891 0)"/>
     <use xlink:href="#TimesNewRomanPSMT-73" transform="translate(1777.587891 0)"/>
     <use xlink:href="#TimesNewRomanPSMT-2f" transform="translate(1816.503906 0)"/>
     <use xlink:href="#TimesNewRomanPSMT-64" transform="translate(1844.287109 0)"/>
     <use xlink:href="#TimesNewRomanPSMT-61" transform="translate(1894.287109 0)"/>
     <use xlink:href="#TimesNewRomanPSMT-79" transform="translate(1938.671875 0)"/>
     <use xlink:href="#TimesNewRomanPSMT-29" transform="translate(1988.671875 0)"/>
     <use xlink:href="#TimesNewRomanPSMT-20" transform="translate(2021.972656 0)"/>
    </g>
   </g>
   <g id="legend_1">
    <g id="patch_7">
     <path d="M 415.667927 135.534531 
L 435.667927 135.534531 
L 435.667927 128.534531 
L 415.667927 128.534531 
z
" style="fill: #1f77b4"/>
    </g>
    <g id="text_14">
     <!-- Starburst Online -->
     <g transform="translate(443.667927 135.534531) scale(0.1 -0.1)">
      <defs>
       <path id="TimesNewRomanPSMT-53" d="M 2934 4334 
L 2934 2869 
L 2819 2869 
Q 2763 3291 2617 3541 
Q 2472 3791 2203 3937 
Q 1934 4084 1647 4084 
Q 1322 4084 1109 3886 
Q 897 3688 897 3434 
Q 897 3241 1031 3081 
Q 1225 2847 1953 2456 
Q 2547 2138 2764 1967 
Q 2981 1797 3098 1565 
Q 3216 1334 3216 1081 
Q 3216 600 2842 251 
Q 2469 -97 1881 -97 
Q 1697 -97 1534 -69 
Q 1438 -53 1133 45 
Q 828 144 747 144 
Q 669 144 623 97 
Q 578 50 556 -97 
L 441 -97 
L 441 1356 
L 556 1356 
Q 638 900 775 673 
Q 913 447 1195 297 
Q 1478 147 1816 147 
Q 2206 147 2432 353 
Q 2659 559 2659 841 
Q 2659 997 2573 1156 
Q 2488 1316 2306 1453 
Q 2184 1547 1640 1851 
Q 1097 2156 867 2337 
Q 638 2519 519 2737 
Q 400 2956 400 3219 
Q 400 3675 750 4004 
Q 1100 4334 1641 4334 
Q 1978 4334 2356 4169 
Q 2531 4091 2603 4091 
Q 2684 4091 2736 4139 
Q 2788 4188 2819 4334 
L 2934 4334 
z
" transform="scale(0.015625)"/>
       <path id="TimesNewRomanPSMT-62" d="M 984 2369 
Q 1400 2947 1881 2947 
Q 2322 2947 2650 2570 
Q 2978 2194 2978 1541 
Q 2978 778 2472 313 
Q 2038 -88 1503 -88 
Q 1253 -88 995 3 
Q 738 94 469 275 
L 469 3241 
Q 469 3728 445 3840 
Q 422 3953 372 3993 
Q 322 4034 247 4034 
Q 159 4034 28 3984 
L -16 4094 
L 844 4444 
L 984 4444 
L 984 2369 
z
M 984 2169 
L 984 456 
Q 1144 300 1314 220 
Q 1484 141 1663 141 
Q 1947 141 2192 453 
Q 2438 766 2438 1363 
Q 2438 1913 2192 2208 
Q 1947 2503 1634 2503 
Q 1469 2503 1303 2419 
Q 1178 2356 984 2169 
z
" transform="scale(0.015625)"/>
       <path id="TimesNewRomanPSMT-4f" d="M 2341 4334 
Q 3166 4334 3770 3707 
Q 4375 3081 4375 2144 
Q 4375 1178 3765 540 
Q 3156 -97 2291 -97 
Q 1416 -97 820 525 
Q 225 1147 225 2134 
Q 225 3144 913 3781 
Q 1509 4334 2341 4334 
z
M 2281 4106 
Q 1713 4106 1369 3684 
Q 941 3159 941 2147 
Q 941 1109 1384 550 
Q 1725 125 2284 125 
Q 2881 125 3270 590 
Q 3659 1056 3659 2059 
Q 3659 3147 3231 3681 
Q 2888 4106 2281 4106 
z
" transform="scale(0.015625)"/>
       <path id="TimesNewRomanPSMT-69" d="M 928 4444 
Q 1059 4444 1151 4351 
Q 1244 4259 1244 4128 
Q 1244 3997 1151 3903 
Q 1059 3809 928 3809 
Q 797 3809 703 3903 
Q 609 3997 609 4128 
Q 609 4259 701 4351 
Q 794 4444 928 4444 
z
M 1188 2947 
L 1188 647 
Q 1188 378 1227 289 
Q 1266 200 1342 156 
Q 1419 113 1622 113 
L 1622 0 
L 231 0 
L 231 113 
Q 441 113 512 153 
Q 584 194 626 287 
Q 669 381 669 647 
L 669 1750 
Q 669 2216 641 2353 
Q 619 2453 572 2492 
Q 525 2531 444 2531 
Q 356 2531 231 2484 
L 188 2597 
L 1050 2947 
L 1188 2947 
z
" transform="scale(0.015625)"/>
      </defs>
      <use xlink:href="#TimesNewRomanPSMT-53"/>
      <use xlink:href="#TimesNewRomanPSMT-74" transform="translate(55.615234 0)"/>
      <use xlink:href="#TimesNewRomanPSMT-61" transform="translate(83.398438 0)"/>
      <use xlink:href="#TimesNewRomanPSMT-72" transform="translate(127.783203 0)"/>
      <use xlink:href="#TimesNewRomanPSMT-62" transform="translate(161.083984 0)"/>
      <use xlink:href="#TimesNewRomanPSMT-75" transform="translate(211.083984 0)"/>
      <use xlink:href="#TimesNewRomanPSMT-72" transform="translate(261.083984 0)"/>
      <use xlink:href="#TimesNewRomanPSMT-73" transform="translate(294.384766 0)"/>
      <use xlink:href="#TimesNewRomanPSMT-74" transform="translate(333.300781 0)"/>
      <use xlink:href="#TimesNewRomanPSMT-20" transform="translate(361.083984 0)"/>
      <use xlink:href="#TimesNewRomanPSMT-4f" transform="translate(386.083984 0)"/>
      <use xlink:href="#TimesNewRomanPSMT-6e" transform="translate(458.300781 0)"/>
      <use xlink:href="#TimesNewRomanPSMT-6c" transform="translate(508.300781 0)"/>
      <use xlink:href="#TimesNewRomanPSMT-69" transform="translate(536.083984 0)"/>
      <use xlink:href="#TimesNewRomanPSMT-6e" transform="translate(563.867188 0)"/>
      <use xlink:href="#TimesNewRomanPSMT-65" transform="translate(613.867188 0)"/>
     </g>
    </g>
    <g id="patch_8">
     <path d="M 415.667927 149.673594 
L 435.667927 149.673594 
L 435.667927 142.673594 
L 415.667927 142.673594 
z
" style="fill: #aec7e8"/>
    </g>
    <g id="text_15">
     <!-- NovaStream -->
     <g transform="translate(443.667927 149.673594) scale(0.1 -0.1)">
      <defs>
       <path id="TimesNewRomanPSMT-4e" d="M -84 4238 
L 1066 4238 
L 3656 1059 
L 3656 3503 
Q 3656 3894 3569 3991 
Q 3453 4122 3203 4122 
L 3056 4122 
L 3056 4238 
L 4531 4238 
L 4531 4122 
L 4381 4122 
Q 4113 4122 4000 3959 
Q 3931 3859 3931 3503 
L 3931 -69 
L 3819 -69 
L 1025 3344 
L 1025 734 
Q 1025 344 1109 247 
Q 1228 116 1475 116 
L 1625 116 
L 1625 0 
L 150 0 
L 150 116 
L 297 116 
Q 569 116 681 278 
Q 750 378 750 734 
L 750 3681 
Q 566 3897 470 3965 
Q 375 4034 191 4094 
Q 100 4122 -84 4122 
L -84 4238 
z
" transform="scale(0.015625)"/>
       <path id="TimesNewRomanPSMT-76" d="M 53 2863 
L 1400 2863 
L 1400 2747 
L 1313 2747 
Q 1191 2747 1127 2687 
Q 1063 2628 1063 2528 
Q 1063 2419 1128 2269 
L 1794 688 
L 2463 2328 
Q 2534 2503 2534 2594 
Q 2534 2638 2509 2666 
Q 2475 2713 2422 2730 
Q 2369 2747 2206 2747 
L 2206 2863 
L 3141 2863 
L 3141 2747 
Q 2978 2734 2916 2681 
Q 2806 2588 2719 2369 
L 1703 -88 
L 1575 -88 
L 553 2328 
Q 484 2497 421 2570 
Q 359 2644 263 2694 
Q 209 2722 53 2747 
L 53 2863 
z
" transform="scale(0.015625)"/>
      </defs>
      <use xlink:href="#TimesNewRomanPSMT-4e"/>
      <use xlink:href="#TimesNewRomanPSMT-6f" transform="translate(72.216797 0)"/>
      <use xlink:href="#TimesNewRomanPSMT-76" transform="translate(122.216797 0)"/>
      <use xlink:href="#TimesNewRomanPSMT-61" transform="translate(172.216797 0)"/>
      <use xlink:href="#TimesNewRomanPSMT-53" transform="translate(216.601562 0)"/>
      <use xlink:href="#TimesNewRomanPSMT-74" transform="translate(272.216797 0)"/>
      <use xlink:href="#TimesNewRomanPSMT-72" transform="translate(300 0)"/>
      <use xlink:href="#TimesNewRomanPSMT-65" transform="translate(333.300781 0)"/>
      <use xlink:href="#TimesNewRomanPSMT-61" transform="translate(377.685547 0)"/>
      <use xlink:href="#TimesNewRomanPSMT-6d" transform="translate(422.070312 0)"/>
     </g>
    </g>
    <g id="patch_9">
     <path d="M 415.667927 163.812656 
L 435.667927 163.812656 
L 435.667927 156.812656 
L 415.667927 156.812656 
z
" style="fill: #ff7f0e"/>
    </g>
    <g id="text_16">
     <!-- CrimsonLink -->
     <g transform="translate(443.667927 163.812656) scale(0.1 -0.1)">
      <defs>
       <path id="TimesNewRomanPSMT-4c" d="M 3669 1172 
L 3772 1150 
L 3409 0 
L 128 0 
L 128 116 
L 288 116 
Q 556 116 672 291 
Q 738 391 738 753 
L 738 3488 
Q 738 3884 650 3984 
Q 528 4122 288 4122 
L 128 4122 
L 128 4238 
L 2047 4238 
L 2047 4122 
Q 1709 4125 1573 4059 
Q 1438 3994 1388 3894 
Q 1338 3794 1338 3416 
L 1338 753 
Q 1338 494 1388 397 
Q 1425 331 1503 300 
Q 1581 269 1991 269 
L 2300 269 
Q 2788 269 2984 341 
Q 3181 413 3343 595 
Q 3506 778 3669 1172 
z
" transform="scale(0.015625)"/>
       <path id="TimesNewRomanPSMT-6b" d="M 1047 4444 
L 1047 1597 
L 1775 2259 
Q 2006 2472 2044 2528 
Q 2069 2566 2069 2603 
Q 2069 2666 2017 2711 
Q 1966 2756 1847 2763 
L 1847 2863 
L 3091 2863 
L 3091 2763 
Q 2834 2756 2664 2684 
Q 2494 2613 2291 2428 
L 1556 1750 
L 2291 822 
Q 2597 438 2703 334 
Q 2853 188 2966 144 
Q 3044 113 3238 113 
L 3238 0 
L 1847 0 
L 1847 113 
Q 1966 116 2008 148 
Q 2050 181 2050 241 
Q 2050 313 1925 472 
L 1047 1594 
L 1047 644 
Q 1047 366 1086 278 
Q 1125 191 1197 153 
Q 1269 116 1509 113 
L 1509 0 
L 53 0 
L 53 113 
Q 272 113 381 166 
Q 447 200 481 272 
Q 528 375 528 628 
L 528 3234 
Q 528 3731 506 3842 
Q 484 3953 434 3995 
Q 384 4038 303 4038 
Q 238 4038 106 3984 
L 53 4094 
L 903 4444 
L 1047 4444 
z
" transform="scale(0.015625)"/>
      </defs>
      <use xlink:href="#TimesNewRomanPSMT-43"/>
      <use xlink:href="#TimesNewRomanPSMT-72" transform="translate(66.699219 0)"/>
      <use xlink:href="#TimesNewRomanPSMT-69" transform="translate(100 0)"/>
      <use xlink:href="#TimesNewRomanPSMT-6d" transform="translate(127.783203 0)"/>
      <use xlink:href="#TimesNewRomanPSMT-73" transform="translate(205.566406 0)"/>
      <use xlink:href="#TimesNewRomanPSMT-6f" transform="translate(244.482422 0)"/>
      <use xlink:href="#TimesNewRomanPSMT-6e" transform="translate(294.482422 0)"/>
      <use xlink:href="#TimesNewRomanPSMT-4c" transform="translate(344.482422 0)"/>
      <use xlink:href="#TimesNewRomanPSMT-69" transform="translate(405.566406 0)"/>
      <use xlink:href="#TimesNewRomanPSMT-6e" transform="translate(433.349609 0)"/>
      <use xlink:href="#TimesNewRomanPSMT-6b" transform="translate(483.349609 0)"/>
     </g>
    </g>
    <g id="patch_10">
     <path d="M 415.667927 177.951719 
L 435.667927 177.951719 
L 435.667927 170.951719 
L 415.667927 170.951719 
z
" style="fill: #ffbb78"/>
    </g>
    <g id="text_17">
     <!-- Luminara -->
     <g transform="translate(443.667927 177.951719) scale(0.1 -0.1)">
      <use xlink:href="#TimesNewRomanPSMT-4c"/>
      <use xlink:href="#TimesNewRomanPSMT-75" transform="translate(61.083984 0)"/>
      <use xlink:href="#TimesNewRomanPSMT-6d" transform="translate(111.083984 0)"/>
      <use xlink:href="#TimesNewRomanPSMT-69" transform="translate(188.867188 0)"/>
      <use xlink:href="#TimesNewRomanPSMT-6e" transform="translate(216.650391 0)"/>
      <use xlink:href="#TimesNewRomanPSMT-61" transform="translate(266.650391 0)"/>
      <use xlink:href="#TimesNewRomanPSMT-72" transform="translate(311.035156 0)"/>
      <use xlink:href="#TimesNewRomanPSMT-61" transform="translate(344.335938 0)"/>
     </g>
    </g>
    <g id="patch_11">
     <path d="M 415.667927 192.090781 
L 435.667927 192.090781 
L 435.667927 185.090781 
L 415.667927 185.090781 
z
" style="fill: #2ca02c"/>
    </g>
    <g id="text_18">
     <!-- AetherNet -->
     <g transform="translate(443.667927 192.090781) scale(0.1 -0.1)">
      <defs>
       <path id="TimesNewRomanPSMT-41" d="M 2928 1419 
L 1288 1419 
L 1000 750 
Q 894 503 894 381 
Q 894 284 986 211 
Q 1078 138 1384 116 
L 1384 0 
L 50 0 
L 50 116 
Q 316 163 394 238 
Q 553 388 747 847 
L 2238 4334 
L 2347 4334 
L 3822 809 
Q 4000 384 4145 257 
Q 4291 131 4550 116 
L 4550 0 
L 2878 0 
L 2878 116 
Q 3131 128 3220 200 
Q 3309 272 3309 375 
Q 3309 513 3184 809 
L 2928 1419 
z
M 2841 1650 
L 2122 3363 
L 1384 1650 
L 2841 1650 
z
" transform="scale(0.015625)"/>
       <path id="TimesNewRomanPSMT-68" d="M 1041 4444 
L 1041 2350 
Q 1388 2731 1591 2839 
Q 1794 2947 1997 2947 
Q 2241 2947 2416 2812 
Q 2591 2678 2675 2391 
Q 2734 2191 2734 1659 
L 2734 647 
Q 2734 375 2778 275 
Q 2809 200 2884 156 
Q 2959 113 3159 113 
L 3159 0 
L 1753 0 
L 1753 113 
L 1819 113 
Q 2019 113 2097 173 
Q 2175 234 2206 353 
Q 2216 403 2216 647 
L 2216 1659 
Q 2216 2128 2167 2275 
Q 2119 2422 2012 2495 
Q 1906 2569 1756 2569 
Q 1603 2569 1437 2487 
Q 1272 2406 1041 2159 
L 1041 647 
Q 1041 353 1073 281 
Q 1106 209 1195 161 
Q 1284 113 1503 113 
L 1503 0 
L 84 0 
L 84 113 
Q 275 113 384 172 
Q 447 203 484 290 
Q 522 378 522 647 
L 522 3238 
Q 522 3728 498 3840 
Q 475 3953 426 3993 
Q 378 4034 297 4034 
Q 231 4034 84 3984 
L 41 4094 
L 897 4444 
L 1041 4444 
z
" transform="scale(0.015625)"/>
      </defs>
      <use xlink:href="#TimesNewRomanPSMT-41"/>
      <use xlink:href="#TimesNewRomanPSMT-65" transform="translate(72.216797 0)"/>
      <use xlink:href="#TimesNewRomanPSMT-74" transform="translate(116.601562 0)"/>
      <use xlink:href="#TimesNewRomanPSMT-68" transform="translate(144.384766 0)"/>
      <use xlink:href="#TimesNewRomanPSMT-65" transform="translate(194.384766 0)"/>
      <use xlink:href="#TimesNewRomanPSMT-72" transform="translate(238.769531 0)"/>
      <use xlink:href="#TimesNewRomanPSMT-4e" transform="translate(272.070312 0)"/>
      <use xlink:href="#TimesNewRomanPSMT-65" transform="translate(344.287109 0)"/>
      <use xlink:href="#TimesNewRomanPSMT-74" transform="translate(388.671875 0)"/>
     </g>
    </g>
    <g id="patch_12">
     <path d="M 415.667927 206.229844 
L 435.667927 206.229844 
L 435.667927 199.229844 
L 415.667927 199.229844 
z
" style="fill: #98df8a"/>
    </g>
    <g id="text_19">
     <!-- EchoWave -->
     <g transform="translate(443.667927 206.229844) scale(0.1 -0.1)">
      <defs>
       <path id="TimesNewRomanPSMT-45" d="M 1338 4006 
L 1338 2331 
L 2269 2331 
Q 2631 2331 2753 2441 
Q 2916 2584 2934 2947 
L 3050 2947 
L 3050 1472 
L 2934 1472 
Q 2891 1781 2847 1869 
Q 2791 1978 2662 2040 
Q 2534 2103 2269 2103 
L 1338 2103 
L 1338 706 
Q 1338 425 1363 364 
Q 1388 303 1450 267 
Q 1513 231 1688 231 
L 2406 231 
Q 2766 231 2928 281 
Q 3091 331 3241 478 
Q 3434 672 3638 1063 
L 3763 1063 
L 3397 0 
L 131 0 
L 131 116 
L 281 116 
Q 431 116 566 188 
Q 666 238 702 338 
Q 738 438 738 747 
L 738 3500 
Q 738 3903 656 3997 
Q 544 4122 281 4122 
L 131 4122 
L 131 4238 
L 3397 4238 
L 3444 3309 
L 3322 3309 
Q 3256 3644 3176 3769 
Q 3097 3894 2941 3959 
Q 2816 4006 2500 4006 
L 1338 4006 
z
" transform="scale(0.015625)"/>
       <path id="TimesNewRomanPSMT-63" d="M 2631 1088 
Q 2516 522 2178 217 
Q 1841 -88 1431 -88 
Q 944 -88 581 321 
Q 219 731 219 1428 
Q 219 2103 620 2525 
Q 1022 2947 1584 2947 
Q 2006 2947 2278 2723 
Q 2550 2500 2550 2259 
Q 2550 2141 2473 2067 
Q 2397 1994 2259 1994 
Q 2075 1994 1981 2113 
Q 1928 2178 1911 2362 
Q 1894 2547 1784 2644 
Q 1675 2738 1481 2738 
Q 1169 2738 978 2506 
Q 725 2200 725 1697 
Q 725 1184 976 792 
Q 1228 400 1656 400 
Q 1963 400 2206 609 
Q 2378 753 2541 1131 
L 2631 1088 
z
" transform="scale(0.015625)"/>
       <path id="TimesNewRomanPSMT-57" d="M 5991 4238 
L 5991 4122 
Q 5825 4122 5722 4062 
Q 5619 4003 5525 3841 
Q 5463 3731 5328 3319 
L 4147 -97 
L 4022 -97 
L 3056 2613 
L 2097 -97 
L 1984 -97 
L 725 3422 
Q 584 3816 547 3888 
Q 484 4006 376 4064 
Q 269 4122 84 4122 
L 84 4238 
L 1653 4238 
L 1653 4122 
L 1578 4122 
Q 1413 4122 1325 4047 
Q 1238 3972 1238 3866 
Q 1238 3756 1375 3363 
L 2209 984 
L 2913 3006 
L 2788 3363 
L 2688 3647 
Q 2622 3803 2541 3922 
Q 2500 3981 2441 4022 
Q 2363 4078 2284 4103 
Q 2225 4122 2097 4122 
L 2097 4238 
L 3747 4238 
L 3747 4122 
L 3634 4122 
Q 3459 4122 3378 4047 
Q 3297 3972 3297 3844 
Q 3297 3684 3438 3288 
L 4250 984 
L 5056 3319 
Q 5194 3706 5194 3856 
Q 5194 3928 5148 3990 
Q 5103 4053 5034 4078 
Q 4916 4122 4725 4122 
L 4725 4238 
L 5991 4238 
z
" transform="scale(0.015625)"/>
      </defs>
      <use xlink:href="#TimesNewRomanPSMT-45"/>
      <use xlink:href="#TimesNewRomanPSMT-63" transform="translate(61.083984 0)"/>
      <use xlink:href="#TimesNewRomanPSMT-68" transform="translate(105.46875 0)"/>
      <use xlink:href="#TimesNewRomanPSMT-6f" transform="translate(155.46875 0)"/>
      <use xlink:href="#TimesNewRomanPSMT-57" transform="translate(205.46875 0)"/>
      <use xlink:href="#TimesNewRomanPSMT-61" transform="translate(291.853516 0)"/>
      <use xlink:href="#TimesNewRomanPSMT-76" transform="translate(336.238281 0)"/>
      <use xlink:href="#TimesNewRomanPSMT-65" transform="translate(386.238281 0)"/>
     </g>
    </g>
    <g id="patch_13">
     <path d="M 415.667927 220.368906 
L 435.667927 220.368906 
L 435.667927 213.368906 
L 415.667927 213.368906 
z
" style="fill: #d62728"/>
    </g>
    <g id="text_20">
     <!-- OracleFeed -->
     <g transform="translate(443.667927 220.368906) scale(0.1 -0.1)">
      <defs>
       <path id="TimesNewRomanPSMT-46" d="M 1309 4006 
L 1309 2341 
L 2081 2341 
Q 2347 2341 2470 2458 
Q 2594 2575 2634 2922 
L 2750 2922 
L 2750 1488 
L 2634 1488 
Q 2631 1734 2570 1850 
Q 2509 1966 2401 2023 
Q 2294 2081 2081 2081 
L 1309 2081 
L 1309 750 
Q 1309 428 1350 325 
Q 1381 247 1481 191 
Q 1619 116 1769 116 
L 1922 116 
L 1922 0 
L 103 0 
L 103 116 
L 253 116 
Q 516 116 634 269 
Q 709 369 709 750 
L 709 3488 
Q 709 3809 669 3913 
Q 638 3991 541 4047 
Q 406 4122 253 4122 
L 103 4122 
L 103 4238 
L 3256 4238 
L 3297 3306 
L 3188 3306 
Q 3106 3603 2998 3742 
Q 2891 3881 2733 3943 
Q 2575 4006 2244 4006 
L 1309 4006 
z
" transform="scale(0.015625)"/>
      </defs>
      <use xlink:href="#TimesNewRomanPSMT-4f"/>
      <use xlink:href="#TimesNewRomanPSMT-72" transform="translate(72.216797 0)"/>
      <use xlink:href="#TimesNewRomanPSMT-61" transform="translate(105.517578 0)"/>
      <use xlink:href="#TimesNewRomanPSMT-63" transform="translate(149.902344 0)"/>
      <use xlink:href="#TimesNewRomanPSMT-6c" transform="translate(194.287109 0)"/>
      <use xlink:href="#TimesNewRomanPSMT-65" transform="translate(222.070312 0)"/>
      <use xlink:href="#TimesNewRomanPSMT-46" transform="translate(266.455078 0)"/>
      <use xlink:href="#TimesNewRomanPSMT-65" transform="translate(322.070312 0)"/>
      <use xlink:href="#TimesNewRomanPSMT-65" transform="translate(366.455078 0)"/>
      <use xlink:href="#TimesNewRomanPSMT-64" transform="translate(410.839844 0)"/>
     </g>
    </g>
   </g>
  </g>
 </g>
 <defs>
  <clipPath id="p80610f007e">
   <rect x="10.091927" y="36.92125" width="388.8" height="277.2"/>
  </clipPath>
 </defs>
</svg>
