<?xml version="1.0" encoding="utf-8" standalone="no"?>
<!DOCTYPE svg PUBLIC "-//W3C//DTD SVG 1.1//EN"
  "http://www.w3.org/Graphics/SVG/1.1/DTD/svg11.dtd">
<svg xmlns:xlink="http://www.w3.org/1999/xlink" width="520.692927pt" height="364.113404pt" viewBox="0 0 520.692927 364.113404" xmlns="http://www.w3.org/2000/svg" version="1.1">
 <metadata>
  <rdf:RDF xmlns:dc="http://purl.org/dc/elements/1.1/" xmlns:cc="http://creativecommons.org/ns#" xmlns:rdf="http://www.w3.org/1999/02/22-rdf-syntax-ns#">
   <cc:Work>
    <dc:type rdf:resource="http://purl.org/dc/dcmitype/StillImage"/>
    <dc:date>2025-05-31T00:08:58.984465</dc:date>
    <dc:format>image/svg+xml</dc:format>
    <dc:creator>
     <cc:Agent>
      <dc:title>Matplotlib v3.10.3, https://matplotlib.org/</dc:title>
     </cc:Agent>
    </dc:creator>
   </cc:Work>
  </rdf:RDF>
 </metadata>
 <defs>
  <style type="text/css">*{stroke-linejoin: round; stroke-linecap: butt}</style>
 </defs>
 <g id="figure_1">
  <g id="patch_1">
   <path d="M 0 364.113404 
L 520.692927 364.113404 
L 520.692927 0 
L 0 0 
z
" style="fill: #ffffff"/>
  </g>
  <g id="axes_1">
   <g id="patch_2">
    <path d="M 10.091927 314.449375 
L 398.891927 314.449375 
L 398.891927 37.249375 
L 10.091927 37.249375 
z
" style="fill: #ffffff"/>
   </g>
   <g id="FillBetweenPolyCollection_1">
    <path d="M 27.764654 184.803469 
L 27.764654 201.69252 
L 29.378602 203.155376 
L 30.992549 204.576447 
L 32.606497 205.951977 
L 34.220445 207.278212 
L 35.834392 208.551395 
L 37.44834 209.767772 
L 39.062288 210.923587 
L 40.676236 212.015084 
L 42.290183 213.038509 
L 43.904131 213.990105 
L 45.518079 214.866118 
L 47.132026 215.662791 
L 48.745974 216.37637 
L 50.359922 217.003099 
L 51.973869 217.539222 
L 53.587817 217.980985 
L 55.201765 218.324632 
L 56.815712 218.566407 
L 58.42966 218.702555 
L 60.043608 218.72932 
L 61.657556 218.642953 
L 63.271503 218.442728 
L 64.885451 218.135847 
L 66.499399 217.730799 
L 68.113346 217.236074 
L 69.727294 216.660159 
L 71.341242 216.011544 
L 72.955189 215.298717 
L 74.569137 214.530168 
L 76.183085 213.714385 
L 77.797033 212.859856 
L 79.41098 211.9757 
L 81.024928 211.077213 
L 82.638876 210.183202 
L 84.252823 209.312511 
L 85.866771 208.483986 
L 87.480719 207.716471 
L 89.094666 207.028813 
L 90.708614 206.439856 
L 92.322562 205.968445 
L 93.936509 205.633427 
L 95.550457 205.453488 
L 97.164405 205.670548 
L 98.778353 206.097308 
L 100.3923 206.507329 
L 102.006248 206.900129 
L 103.620196 207.275229 
L 105.234143 207.632148 
L 106.848091 207.970405 
L 108.462039 208.28952 
L 110.075986 208.589012 
L 111.689934 208.954063 
L 113.303882 209.358705 
L 114.91783 209.71319 
L 116.531777 210.028338 
L 118.145725 210.314984 
L 119.759673 210.583962 
L 121.37362 210.846109 
L 122.987568 211.11226 
L 124.601516 211.393248 
L 126.215463 211.699911 
L 127.829411 212.043082 
L 129.443359 212.43336 
L 131.057306 212.931395 
L 132.671254 213.51212 
L 134.285202 214.08682 
L 135.89915 214.625377 
L 137.513097 215.09767 
L 139.127045 215.577227 
L 140.740993 216.16787 
L 142.35494 216.758247 
L 143.968888 217.341116 
L 145.582836 217.909234 
L 147.196783 218.457717 
L 148.810731 218.991121 
L 150.424679 219.516359 
L 152.038627 220.040345 
L 153.652574 220.569993 
L 155.266522 221.112217 
L 156.88047 221.673931 
L 158.494417 222.262048 
L 160.108365 222.883483 
L 161.722313 223.54515 
L 163.33626 224.253331 
L 164.950208 225.003697 
L 166.564156 225.783118 
L 168.178103 226.578196 
L 169.792051 227.375531 
L 171.405999 228.161727 
L 173.019947 228.923386 
L 174.633894 229.647108 
L 176.247842 230.319497 
L 177.86179 230.927154 
L 179.475737 231.45669 
L 181.089685 231.89946 
L 182.703633 232.25926 
L 184.31758 232.541907 
L 185.931528 232.753214 
L 187.545476 232.898996 
L 189.159424 232.985067 
L 190.773371 233.017243 
L 192.387319 233.001338 
L 194.001267 232.943167 
L 195.615214 232.848543 
L 197.229162 232.72346 
L 198.84311 232.575645 
L 200.457057 232.413813 
L 202.071005 232.246693 
L 203.684953 232.083009 
L 205.298901 231.93149 
L 206.912848 231.800861 
L 208.526796 231.699848 
L 210.140744 231.63718 
L 211.754691 231.621581 
L 213.368639 231.661714 
L 214.982587 231.760536 
L 216.596534 231.910956 
L 218.210482 232.104861 
L 219.82443 232.334135 
L 221.438377 232.590666 
L 223.052325 232.866341 
L 224.666273 233.153043 
L 226.280221 233.442662 
L 227.894168 233.727081 
L 229.508116 233.998188 
L 231.122064 234.248735 
L 232.736011 234.476821 
L 234.349959 234.682584 
L 235.963907 234.866163 
L 237.577854 235.027701 
L 239.191802 235.167339 
L 240.80575 235.285216 
L 242.419698 235.381474 
L 244.033645 235.456255 
L 245.647593 235.509698 
L 247.261541 235.541981 
L 248.875488 235.645698 
L 250.489436 235.72217 
L 252.103384 235.743346 
L 253.717331 235.718564 
L 255.331279 235.657163 
L 256.945227 235.56848 
L 258.559174 235.461853 
L 260.173122 235.34662 
L 261.78707 235.276099 
L 263.401018 235.23638 
L 265.014965 235.204727 
L 266.628913 235.182737 
L 268.242861 235.171762 
L 269.856808 235.173155 
L 271.470756 235.188269 
L 273.084704 235.218455 
L 274.698651 235.265066 
L 276.312599 235.329455 
L 277.926547 235.412973 
L 279.540495 235.516973 
L 281.154442 235.643363 
L 282.76839 235.803379 
L 284.382338 236.063452 
L 285.996285 236.371331 
L 287.610233 236.724545 
L 289.224181 237.161593 
L 290.838128 237.776742 
L 292.452076 238.540553 
L 294.066024 239.472236 
L 295.679971 240.591003 
L 297.293919 241.916038 
L 298.907867 243.452472 
L 300.521815 245.168559 
L 302.135762 247.026577 
L 303.74971 248.988805 
L 305.363658 251.017521 
L 306.977605 253.075005 
L 308.591553 255.123534 
L 310.205501 257.125388 
L 311.819448 259.042844 
L 313.433396 260.838182 
L 315.047344 262.47774 
L 316.661292 263.967736 
L 318.275239 265.337028 
L 319.889187 266.61473 
L 321.503135 267.829958 
L 323.117082 269.011828 
L 324.73103 270.189455 
L 326.344978 271.391955 
L 327.958925 272.648444 
L 329.572873 273.988036 
L 331.186821 275.439582 
L 332.800769 277.008831 
L 334.414716 278.660828 
L 336.028664 280.356475 
L 337.642612 282.056674 
L 339.256559 283.722327 
L 340.870507 285.314337 
L 342.484455 286.793605 
L 344.098402 288.121035 
L 345.71235 289.257528 
L 347.326298 290.163986 
L 348.940245 290.807717 
L 350.554193 291.195549 
L 352.168141 291.349375 
L 353.782089 291.291116 
L 355.396036 291.042694 
L 357.009984 290.626031 
L 358.623932 290.063047 
L 360.237879 289.375664 
L 361.851827 288.585805 
L 363.465775 287.71539 
L 365.079722 286.786342 
L 366.69367 285.820581 
L 368.307618 284.840029 
L 369.921566 283.866608 
L 371.535513 282.922239 
L 373.149461 282.028844 
L 374.763409 281.208344 
L 376.377356 280.482662 
L 377.991304 279.873718 
L 379.605252 279.403434 
L 381.219199 279.093731 
L 381.219199 235.749422 
L 381.219199 235.749422 
L 379.605252 234.807279 
L 377.991304 234.20154 
L 376.377356 233.901829 
L 374.763409 233.87777 
L 373.149461 234.098987 
L 371.535513 234.535105 
L 369.921566 235.155747 
L 368.307618 235.930537 
L 366.69367 236.8291 
L 365.079722 237.821061 
L 363.465775 238.876042 
L 361.851827 239.963668 
L 360.237879 241.053563 
L 358.623932 242.115352 
L 357.009984 243.118658 
L 355.396036 244.033105 
L 353.782089 244.828318 
L 352.168141 245.473921 
L 350.554193 245.939538 
L 348.940245 246.194793 
L 347.326298 246.209339 
L 345.71235 245.967788 
L 344.098402 245.493995 
L 342.484455 244.818177 
L 340.870507 243.970552 
L 339.256559 242.981336 
L 337.642612 241.880746 
L 336.028664 240.698997 
L 334.414716 239.466308 
L 332.800769 238.212894 
L 331.186821 236.968972 
L 329.572873 235.762457 
L 327.958925 234.59866 
L 326.344978 233.47006 
L 324.73103 232.368987 
L 323.117082 231.287774 
L 321.503135 230.218752 
L 319.889187 229.154253 
L 318.275239 228.086609 
L 316.661292 227.00815 
L 315.047344 225.911209 
L 313.433396 224.788169 
L 311.819448 223.635824 
L 310.205501 222.458749 
L 308.591553 221.262306 
L 306.977605 220.051861 
L 305.363658 218.832777 
L 303.74971 217.61042 
L 302.135762 216.390152 
L 300.521815 215.177339 
L 298.907867 213.977345 
L 297.293919 212.795533 
L 295.679971 211.636972 
L 294.066024 210.504895 
L 292.452076 209.401841 
L 290.838128 208.330343 
L 289.224181 207.292938 
L 287.610233 206.340811 
L 285.996285 205.401445 
L 284.382338 204.458083 
L 282.76839 203.534946 
L 281.154442 202.706031 
L 279.540495 201.926453 
L 277.926547 201.199868 
L 276.312599 200.53124 
L 274.698651 199.925614 
L 273.084704 199.388035 
L 271.470756 198.923545 
L 269.856808 198.537188 
L 268.242861 198.234009 
L 266.628913 198.019051 
L 265.014965 197.897358 
L 263.401018 197.873974 
L 261.78707 197.950407 
L 260.173122 198.139326 
L 258.559174 198.441286 
L 256.945227 198.789613 
L 255.331279 199.161612 
L 253.717331 199.534589 
L 252.103384 199.885849 
L 250.489436 200.192699 
L 248.875488 200.432443 
L 247.261541 200.619776 
L 245.647593 200.84051 
L 244.033645 200.997405 
L 242.419698 201.092461 
L 240.80575 201.127922 
L 239.191802 201.10603 
L 237.577854 201.029028 
L 235.963907 200.899158 
L 234.349959 200.718663 
L 232.736011 200.489785 
L 231.122064 200.214767 
L 229.508116 199.89586 
L 227.894168 199.539281 
L 226.280221 199.161652 
L 224.666273 198.781284 
L 223.052325 198.416488 
L 221.438377 198.085573 
L 219.82443 197.806849 
L 218.210482 197.598628 
L 216.596534 197.479219 
L 214.982587 197.466932 
L 213.368639 197.580077 
L 211.754691 197.833807 
L 210.140744 198.212238 
L 208.526796 198.681878 
L 206.912848 199.209027 
L 205.298901 199.759989 
L 203.684953 200.301067 
L 202.071005 200.798563 
L 200.457057 201.21878 
L 198.84311 201.528021 
L 197.229162 201.692589 
L 195.615214 201.679077 
L 194.001267 201.479423 
L 192.387319 201.130218 
L 190.773371 200.672599 
L 189.159424 200.147701 
L 187.545476 199.59666 
L 185.931528 199.060614 
L 184.31758 198.580697 
L 182.703633 198.198047 
L 181.089685 197.953798 
L 179.475737 197.889088 
L 177.86179 198.034782 
L 176.247842 198.358358 
L 174.633894 198.803139 
L 173.019947 199.312402 
L 171.405999 199.829421 
L 169.792051 200.297472 
L 168.178103 200.65983 
L 166.564156 200.859771 
L 164.950208 200.840571 
L 163.33626 200.545504 
L 161.722313 199.919452 
L 160.108365 198.960319 
L 158.494417 197.729915 
L 156.88047 196.293853 
L 155.266522 194.717747 
L 153.652574 193.06721 
L 152.038627 191.407856 
L 150.424679 189.805298 
L 148.810731 188.325149 
L 147.196783 187.033023 
L 145.582836 185.994534 
L 143.968888 185.25657 
L 142.35494 184.791123 
L 140.740993 184.551461 
L 139.127045 184.490852 
L 137.513097 184.666671 
L 135.89915 184.921123 
L 134.285202 185.126705 
L 132.671254 185.25956 
L 131.057306 185.295833 
L 129.443359 185.270264 
L 127.829411 185.156759 
L 126.215463 184.890776 
L 124.601516 184.497046 
L 122.987568 184.001251 
L 121.37362 183.429074 
L 119.759673 182.806197 
L 118.145725 182.158302 
L 116.531777 181.511071 
L 114.91783 180.890186 
L 113.303882 180.321329 
L 111.689934 179.830171 
L 110.075986 179.528889 
L 108.462039 179.428986 
L 106.848091 179.424839 
L 105.234143 179.496488 
L 103.620196 179.62397 
L 102.006248 179.787324 
L 100.3923 179.966588 
L 98.778353 180.141801 
L 97.164405 180.293001 
L 95.550457 180.626186 
L 93.936509 181.309365 
L 92.322562 182.09263 
L 90.708614 182.955728 
L 89.094666 183.878319 
L 87.480719 184.840061 
L 85.866771 185.820617 
L 84.252823 186.799645 
L 82.638876 187.756805 
L 81.024928 188.671759 
L 79.41098 189.524166 
L 77.797033 190.29377 
L 76.183085 190.967687 
L 74.569137 191.546017 
L 72.955189 192.030181 
L 71.341242 192.421602 
L 69.727294 192.721699 
L 68.113346 192.931897 
L 66.499399 193.053615 
L 64.885451 193.088276 
L 63.271503 193.037302 
L 61.657556 192.902114 
L 60.043608 192.684944 
L 58.42966 192.393026 
L 56.815712 192.035498 
L 55.201765 191.621503 
L 53.587817 191.160184 
L 51.973869 190.660684 
L 50.359922 190.132145 
L 48.745974 189.58371 
L 47.132026 189.024522 
L 45.518079 188.463723 
L 43.904131 187.910456 
L 42.290183 187.373865 
L 40.676236 186.863091 
L 39.062288 186.387278 
L 37.44834 185.955568 
L 35.834392 185.577104 
L 34.220445 185.261029 
L 32.606497 185.016485 
L 30.992549 184.852615 
L 29.378602 184.778562 
L 27.764654 184.803469 
z
" clip-path="url(#p91dbf79983)" style="fill: #1f77b4"/>
   </g>
   <g id="FillBetweenPolyCollection_2">
    <path d="M 27.764654 157.079926 
L 27.764654 184.803469 
L 29.378602 184.778562 
L 30.992549 184.852615 
L 32.606497 185.016485 
L 34.220445 185.261029 
L 35.834392 185.577104 
L 37.44834 185.955568 
L 39.062288 186.387278 
L 40.676236 186.863091 
L 42.290183 187.373865 
L 43.904131 187.910456 
L 45.518079 188.463723 
L 47.132026 189.024522 
L 48.745974 189.58371 
L 50.359922 190.132145 
L 51.973869 190.660684 
L 53.587817 191.160184 
L 55.201765 191.621503 
L 56.815712 192.035498 
L 58.42966 192.393026 
L 60.043608 192.684944 
L 61.657556 192.902114 
L 63.271503 193.037302 
L 64.885451 193.088276 
L 66.499399 193.053615 
L 68.113346 192.931897 
L 69.727294 192.721699 
L 71.341242 192.421602 
L 72.955189 192.030181 
L 74.569137 191.546017 
L 76.183085 190.967687 
L 77.797033 190.29377 
L 79.41098 189.524166 
L 81.024928 188.671759 
L 82.638876 187.756805 
L 84.252823 186.799645 
L 85.866771 185.820617 
L 87.480719 184.840061 
L 89.094666 183.878319 
L 90.708614 182.955728 
L 92.322562 182.09263 
L 93.936509 181.309365 
L 95.550457 180.626186 
L 97.164405 180.293001 
L 98.778353 180.141801 
L 100.3923 179.966588 
L 102.006248 179.787324 
L 103.620196 179.62397 
L 105.234143 179.496488 
L 106.848091 179.424839 
L 108.462039 179.428986 
L 110.075986 179.528889 
L 111.689934 179.830171 
L 113.303882 180.321329 
L 114.91783 180.890186 
L 116.531777 181.511071 
L 118.145725 182.158302 
L 119.759673 182.806197 
L 121.37362 183.429074 
L 122.987568 184.001251 
L 124.601516 184.497046 
L 126.215463 184.890776 
L 127.829411 185.156759 
L 129.443359 185.270264 
L 131.057306 185.295833 
L 132.671254 185.25956 
L 134.285202 185.126705 
L 135.89915 184.921123 
L 137.513097 184.666671 
L 139.127045 184.490852 
L 140.740993 184.551461 
L 142.35494 184.791123 
L 143.968888 185.25657 
L 145.582836 185.994534 
L 147.196783 187.033023 
L 148.810731 188.325149 
L 150.424679 189.805298 
L 152.038627 191.407856 
L 153.652574 193.06721 
L 155.266522 194.717747 
L 156.88047 196.293853 
L 158.494417 197.729915 
L 160.108365 198.960319 
L 161.722313 199.919452 
L 163.33626 200.545504 
L 164.950208 200.840571 
L 166.564156 200.859771 
L 168.178103 200.65983 
L 169.792051 200.297472 
L 171.405999 199.829421 
L 173.019947 199.312402 
L 174.633894 198.803139 
L 176.247842 198.358358 
L 177.86179 198.034782 
L 179.475737 197.889088 
L 181.089685 197.953798 
L 182.703633 198.198047 
L 184.31758 198.580697 
L 185.931528 199.060614 
L 187.545476 199.59666 
L 189.159424 200.147701 
L 190.773371 200.672599 
L 192.387319 201.130218 
L 194.001267 201.479423 
L 195.615214 201.679077 
L 197.229162 201.692589 
L 198.84311 201.528021 
L 200.457057 201.21878 
L 202.071005 200.798563 
L 203.684953 200.301067 
L 205.298901 199.759989 
L 206.912848 199.209027 
L 208.526796 198.681878 
L 210.140744 198.212238 
L 211.754691 197.833807 
L 213.368639 197.580077 
L 214.982587 197.466932 
L 216.596534 197.479219 
L 218.210482 197.598628 
L 219.82443 197.806849 
L 221.438377 198.085573 
L 223.052325 198.416488 
L 224.666273 198.781284 
L 226.280221 199.161652 
L 227.894168 199.539281 
L 229.508116 199.89586 
L 231.122064 200.214767 
L 232.736011 200.489785 
L 234.349959 200.718663 
L 235.963907 200.899158 
L 237.577854 201.029028 
L 239.191802 201.10603 
L 240.80575 201.127922 
L 242.419698 201.092461 
L 244.033645 200.997405 
L 245.647593 200.84051 
L 247.261541 200.619776 
L 248.875488 200.432443 
L 250.489436 200.192699 
L 252.103384 199.885849 
L 253.717331 199.534589 
L 255.331279 199.161612 
L 256.945227 198.789613 
L 258.559174 198.441286 
L 260.173122 198.139326 
L 261.78707 197.950407 
L 263.401018 197.873974 
L 265.014965 197.897358 
L 266.628913 198.019051 
L 268.242861 198.234009 
L 269.856808 198.537188 
L 271.470756 198.923545 
L 273.084704 199.388035 
L 274.698651 199.925614 
L 276.312599 200.53124 
L 277.926547 201.199868 
L 279.540495 201.926453 
L 281.154442 202.706031 
L 282.76839 203.534946 
L 284.382338 204.458083 
L 285.996285 205.401445 
L 287.610233 206.340811 
L 289.224181 207.292938 
L 290.838128 208.330343 
L 292.452076 209.401841 
L 294.066024 210.504895 
L 295.679971 211.636972 
L 297.293919 212.795533 
L 298.907867 213.977345 
L 300.521815 215.177339 
L 302.135762 216.390152 
L 303.74971 217.61042 
L 305.363658 218.832777 
L 306.977605 220.051861 
L 308.591553 221.262306 
L 310.205501 222.458749 
L 311.819448 223.635824 
L 313.433396 224.788169 
L 315.047344 225.911209 
L 316.661292 227.00815 
L 318.275239 228.086609 
L 319.889187 229.154253 
L 321.503135 230.218752 
L 323.117082 231.287774 
L 324.73103 232.368987 
L 326.344978 233.47006 
L 327.958925 234.59866 
L 329.572873 235.762457 
L 331.186821 236.968972 
L 332.800769 238.212894 
L 334.414716 239.466308 
L 336.028664 240.698997 
L 337.642612 241.880746 
L 339.256559 242.981336 
L 340.870507 243.970552 
L 342.484455 244.818177 
L 344.098402 245.493995 
L 345.71235 245.967788 
L 347.326298 246.209339 
L 348.940245 246.194793 
L 350.554193 245.939538 
L 352.168141 245.473921 
L 353.782089 244.828318 
L 355.396036 244.033105 
L 357.009984 243.118658 
L 358.623932 242.115352 
L 360.237879 241.053563 
L 361.851827 239.963668 
L 363.465775 238.876042 
L 365.079722 237.821061 
L 366.69367 236.8291 
L 368.307618 235.930537 
L 369.921566 235.155747 
L 371.535513 234.535105 
L 373.149461 234.098987 
L 374.763409 233.87777 
L 376.377356 233.901829 
L 377.991304 234.20154 
L 379.605252 234.807279 
L 381.219199 235.749422 
L 381.219199 230.054121 
L 381.219199 230.054121 
L 379.605252 227.84162 
L 377.991304 225.76202 
L 376.377356 223.808991 
L 374.763409 221.976203 
L 373.149461 220.257326 
L 371.535513 218.646031 
L 369.921566 217.135989 
L 368.307618 215.720868 
L 366.69367 214.394341 
L 365.079722 213.150077 
L 363.465775 211.981746 
L 361.851827 210.883018 
L 360.237879 209.847565 
L 358.623932 208.869056 
L 357.009984 207.941161 
L 355.396036 207.057551 
L 353.782089 206.211897 
L 352.168141 205.397868 
L 350.554193 204.609135 
L 348.940245 203.839368 
L 347.326298 203.082243 
L 345.71235 202.334569 
L 344.098402 201.60137 
L 342.484455 200.889003 
L 340.870507 200.203824 
L 339.256559 199.552189 
L 337.642612 198.940454 
L 336.028664 198.374977 
L 334.414716 197.862112 
L 332.800769 197.408216 
L 331.186821 197.019647 
L 329.572873 196.702884 
L 327.958925 196.465644 
L 326.344978 196.316338 
L 324.73103 196.26339 
L 323.117082 196.31522 
L 321.503135 196.48025 
L 319.889187 196.766903 
L 318.275239 197.183599 
L 316.661292 197.738761 
L 315.047344 198.44081 
L 313.433396 199.297967 
L 311.819448 200.300929 
L 310.205501 201.409522 
L 308.591553 202.580427 
L 306.977605 203.770327 
L 305.363658 204.935904 
L 303.74971 206.033841 
L 302.135762 207.020819 
L 300.521815 207.853522 
L 298.907867 208.488631 
L 297.293919 208.882829 
L 295.679971 209.001029 
L 294.066024 208.858941 
L 292.452076 208.491634 
L 290.838128 207.934214 
L 289.224181 207.221788 
L 287.610233 206.340811 
L 285.996285 205.401445 
L 284.382338 204.458083 
L 282.76839 203.524151 
L 281.154442 202.563291 
L 279.540495 201.657667 
L 277.926547 200.828841 
L 276.312599 200.082539 
L 274.698651 199.42354 
L 273.084704 198.856624 
L 271.470756 198.386573 
L 269.856808 198.018166 
L 268.242861 197.756183 
L 266.628913 197.605406 
L 265.014965 197.570615 
L 263.401018 197.65659 
L 261.78707 197.862446 
L 260.173122 198.139326 
L 258.559174 198.441286 
L 256.945227 198.789613 
L 255.331279 199.161612 
L 253.717331 199.534589 
L 252.103384 199.885849 
L 250.489436 200.192699 
L 248.875488 200.432443 
L 247.261541 200.545 
L 245.647593 200.40104 
L 244.033645 200.085737 
L 242.419698 199.611122 
L 240.80575 198.989773 
L 239.191802 198.234267 
L 237.577854 197.357182 
L 235.963907 196.371097 
L 234.349959 195.288589 
L 232.736011 194.122237 
L 231.122064 192.884617 
L 229.508116 191.588307 
L 227.894168 190.244347 
L 226.280221 188.85976 
L 224.666273 187.440916 
L 223.052325 185.994187 
L 221.438377 184.525942 
L 219.82443 183.042552 
L 218.210482 181.550387 
L 216.596534 180.055819 
L 214.982587 178.565218 
L 213.368639 177.084953 
L 211.754691 175.622717 
L 210.140744 174.199182 
L 208.526796 172.842384 
L 206.912848 171.580447 
L 205.298901 170.441494 
L 203.684953 169.453646 
L 202.071005 168.645027 
L 200.457057 168.04376 
L 198.84311 167.677966 
L 197.229162 167.575769 
L 195.615214 167.764942 
L 194.001267 168.242763 
L 192.387319 168.952791 
L 190.773371 169.833112 
L 189.159424 170.821816 
L 187.545476 171.85699 
L 185.931528 172.876722 
L 184.31758 173.819101 
L 182.703633 174.622215 
L 181.089685 175.224151 
L 179.475737 175.562999 
L 177.86179 175.589954 
L 176.247842 175.337109 
L 174.633894 174.867388 
L 173.019947 174.243773 
L 171.405999 173.529248 
L 169.792051 172.786796 
L 168.178103 172.0794 
L 166.564156 171.470042 
L 164.950208 171.021707 
L 163.33626 170.797378 
L 161.722313 170.85864 
L 160.108365 171.220924 
L 158.494417 171.844037 
L 156.88047 172.684472 
L 155.266522 173.698724 
L 153.652574 174.843287 
L 152.038627 176.074656 
L 150.424679 177.349325 
L 148.810731 178.623788 
L 147.196783 179.854541 
L 145.582836 180.998076 
L 143.968888 182.017977 
L 142.35494 182.906177 
L 140.740993 183.661697 
L 139.127045 184.283558 
L 137.513097 184.666671 
L 135.89915 184.921123 
L 134.285202 185.126705 
L 132.671254 185.25956 
L 131.057306 185.295833 
L 129.443359 185.153074 
L 127.829411 184.812896 
L 126.215463 184.34964 
L 124.601516 183.793413 
L 122.987568 183.174732 
L 121.37362 182.524118 
L 119.759673 181.872089 
L 118.145725 181.249164 
L 116.531777 180.685862 
L 114.91783 180.212702 
L 113.303882 179.860203 
L 111.689934 179.658849 
L 110.075986 179.528889 
L 108.462039 179.428986 
L 106.848091 179.424839 
L 105.234143 179.496488 
L 103.620196 179.62397 
L 102.006248 179.787324 
L 100.3923 179.966588 
L 98.778353 180.141801 
L 97.164405 180.293001 
L 95.550457 180.174267 
L 93.936509 179.581432 
L 92.322562 178.765208 
L 90.708614 177.767644 
L 89.094666 176.63111 
L 87.480719 175.39798 
L 85.866771 174.110624 
L 84.252823 172.811415 
L 82.638876 171.542725 
L 81.024928 170.346927 
L 79.41098 169.266391 
L 77.797033 168.343243 
L 76.183085 167.598105 
L 74.569137 167.01371 
L 72.955189 166.568935 
L 71.341242 166.242659 
L 69.727294 166.01376 
L 68.113346 165.861113 
L 66.499399 165.763597 
L 64.885451 165.70009 
L 63.271503 165.649469 
L 61.657556 165.590611 
L 60.043608 165.504618 
L 58.42966 165.386313 
L 56.815712 165.235746 
L 55.201765 165.052981 
L 53.587817 164.838079 
L 51.973869 164.591104 
L 50.359922 164.312117 
L 48.745974 164.00118 
L 47.132026 163.658356 
L 45.518079 163.283707 
L 43.904131 162.877295 
L 42.290183 162.439183 
L 40.676236 161.969433 
L 39.062288 161.468106 
L 37.44834 160.935266 
L 35.834392 160.370975 
L 34.220445 159.775294 
L 32.606497 159.148287 
L 30.992549 158.490015 
L 29.378602 157.800541 
L 27.764654 157.079926 
z
" clip-path="url(#p91dbf79983)" style="fill: #aec7e8"/>
   </g>
   <g id="FillBetweenPolyCollection_3">
    <path d="M 27.764654 150.00623 
L 27.764654 157.079926 
L 29.378602 157.800541 
L 30.992549 158.490015 
L 32.606497 159.148287 
L 34.220445 159.775294 
L 35.834392 160.370975 
L 37.44834 160.935266 
L 39.062288 161.468106 
L 40.676236 161.969433 
L 42.290183 162.439183 
L 43.904131 162.877295 
L 45.518079 163.283707 
L 47.132026 163.658356 
L 48.745974 164.00118 
L 50.359922 164.312117 
L 51.973869 164.591104 
L 53.587817 164.838079 
L 55.201765 165.052981 
L 56.815712 165.235746 
L 58.42966 165.386313 
L 60.043608 165.504618 
L 61.657556 165.590611 
L 63.271503 165.649469 
L 64.885451 165.70009 
L 66.499399 165.763597 
L 68.113346 165.861113 
L 69.727294 166.01376 
L 71.341242 166.242659 
L 72.955189 166.568935 
L 74.569137 167.01371 
L 76.183085 167.598105 
L 77.797033 168.343243 
L 79.41098 169.266391 
L 81.024928 170.346927 
L 82.638876 171.542725 
L 84.252823 172.811415 
L 85.866771 174.110624 
L 87.480719 175.39798 
L 89.094666 176.63111 
L 90.708614 177.767644 
L 92.322562 178.765208 
L 93.936509 179.581432 
L 95.550457 180.174267 
L 97.164405 180.293001 
L 98.778353 180.141801 
L 100.3923 179.966588 
L 102.006248 179.787324 
L 103.620196 179.62397 
L 105.234143 179.496488 
L 106.848091 179.424839 
L 108.462039 179.428986 
L 110.075986 179.528889 
L 111.689934 179.658849 
L 113.303882 179.860203 
L 114.91783 180.212702 
L 116.531777 180.685862 
L 118.145725 181.249164 
L 119.759673 181.872089 
L 121.37362 182.524118 
L 122.987568 183.174732 
L 124.601516 183.793413 
L 126.215463 184.34964 
L 127.829411 184.812896 
L 129.443359 185.153074 
L 131.057306 185.295833 
L 132.671254 185.25956 
L 134.285202 185.126705 
L 135.89915 184.921123 
L 137.513097 184.666671 
L 139.127045 184.283558 
L 140.740993 183.661697 
L 142.35494 182.906177 
L 143.968888 182.017977 
L 145.582836 180.998076 
L 147.196783 179.854541 
L 148.810731 178.623788 
L 150.424679 177.349325 
L 152.038627 176.074656 
L 153.652574 174.843287 
L 155.266522 173.698724 
L 156.88047 172.684472 
L 158.494417 171.844037 
L 160.108365 171.220924 
L 161.722313 170.85864 
L 163.33626 170.797378 
L 164.950208 171.021707 
L 166.564156 171.470042 
L 168.178103 172.0794 
L 169.792051 172.786796 
L 171.405999 173.529248 
L 173.019947 174.243773 
L 174.633894 174.867388 
L 176.247842 175.337109 
L 177.86179 175.589954 
L 179.475737 175.562999 
L 181.089685 175.224151 
L 182.703633 174.622215 
L 184.31758 173.819101 
L 185.931528 172.876722 
L 187.545476 171.85699 
L 189.159424 170.821816 
L 190.773371 169.833112 
L 192.387319 168.952791 
L 194.001267 168.242763 
L 195.615214 167.764942 
L 197.229162 167.575769 
L 198.84311 167.677966 
L 200.457057 168.04376 
L 202.071005 168.645027 
L 203.684953 169.453646 
L 205.298901 170.441494 
L 206.912848 171.580447 
L 208.526796 172.842384 
L 210.140744 174.199182 
L 211.754691 175.622717 
L 213.368639 177.084953 
L 214.982587 178.565218 
L 216.596534 180.055819 
L 218.210482 181.550387 
L 219.82443 183.042552 
L 221.438377 184.525942 
L 223.052325 185.994187 
L 224.666273 187.440916 
L 226.280221 188.85976 
L 227.894168 190.244347 
L 229.508116 191.588307 
L 231.122064 192.884617 
L 232.736011 194.122237 
L 234.349959 195.288589 
L 235.963907 196.371097 
L 237.577854 197.357182 
L 239.191802 198.234267 
L 240.80575 198.989773 
L 242.419698 199.611122 
L 244.033645 200.085737 
L 245.647593 200.40104 
L 247.261541 200.545 
L 248.875488 200.432443 
L 250.489436 200.192699 
L 252.103384 199.885849 
L 253.717331 199.534589 
L 255.331279 199.161612 
L 256.945227 198.789613 
L 258.559174 198.441286 
L 260.173122 198.139326 
L 261.78707 197.862446 
L 263.401018 197.65659 
L 265.014965 197.570615 
L 266.628913 197.605406 
L 268.242861 197.756183 
L 269.856808 198.018166 
L 271.470756 198.386573 
L 273.084704 198.856624 
L 274.698651 199.42354 
L 276.312599 200.082539 
L 277.926547 200.828841 
L 279.540495 201.657667 
L 281.154442 202.563291 
L 282.76839 203.524151 
L 284.382338 204.458083 
L 285.996285 205.401445 
L 287.610233 206.340811 
L 289.224181 207.221788 
L 290.838128 207.934214 
L 292.452076 208.491634 
L 294.066024 208.858941 
L 295.679971 209.001029 
L 297.293919 208.882829 
L 298.907867 208.488631 
L 300.521815 207.853522 
L 302.135762 207.020819 
L 303.74971 206.033841 
L 305.363658 204.935904 
L 306.977605 203.770327 
L 308.591553 202.580427 
L 310.205501 201.409522 
L 311.819448 200.300929 
L 313.433396 199.297967 
L 315.047344 198.44081 
L 316.661292 197.738761 
L 318.275239 197.183599 
L 319.889187 196.766903 
L 321.503135 196.48025 
L 323.117082 196.31522 
L 324.73103 196.26339 
L 326.344978 196.316338 
L 327.958925 196.465644 
L 329.572873 196.702884 
L 331.186821 197.019647 
L 332.800769 197.408216 
L 334.414716 197.862112 
L 336.028664 198.374977 
L 337.642612 198.940454 
L 339.256559 199.552189 
L 340.870507 200.203824 
L 342.484455 200.889003 
L 344.098402 201.60137 
L 345.71235 202.334569 
L 347.326298 203.082243 
L 348.940245 203.839368 
L 350.554193 204.609135 
L 352.168141 205.397868 
L 353.782089 206.211897 
L 355.396036 207.057551 
L 357.009984 207.941161 
L 358.623932 208.869056 
L 360.237879 209.847565 
L 361.851827 210.883018 
L 363.465775 211.981746 
L 365.079722 213.150077 
L 366.69367 214.394341 
L 368.307618 215.720868 
L 369.921566 217.135989 
L 371.535513 218.646031 
L 373.149461 220.257326 
L 374.763409 221.976203 
L 376.377356 223.808991 
L 377.991304 225.76202 
L 379.605252 227.84162 
L 381.219199 230.054121 
L 381.219199 72.605019 
L 381.219199 72.605019 
L 379.605252 72.295316 
L 377.991304 71.825032 
L 376.377356 71.216088 
L 374.763409 70.490406 
L 373.149461 69.669906 
L 371.535513 68.776511 
L 369.921566 67.832142 
L 368.307618 66.858721 
L 366.69367 65.878169 
L 365.079722 64.912408 
L 363.465775 63.98336 
L 361.851827 63.112945 
L 360.237879 62.323086 
L 358.623932 61.635703 
L 357.009984 61.072719 
L 355.396036 60.656056 
L 353.782089 60.407634 
L 352.168141 60.349375 
L 350.554193 60.503201 
L 348.940245 60.891033 
L 347.326298 61.534764 
L 345.71235 62.441222 
L 344.098402 63.577715 
L 342.484455 64.905145 
L 340.870507 66.384413 
L 339.256559 67.976423 
L 337.642612 69.642076 
L 336.028664 71.342275 
L 334.414716 73.037922 
L 332.800769 74.689919 
L 331.186821 76.259168 
L 329.572873 77.710714 
L 327.958925 79.050306 
L 326.344978 80.306795 
L 324.73103 81.509295 
L 323.117082 82.686922 
L 321.503135 83.868792 
L 319.889187 85.08402 
L 318.275239 86.361722 
L 316.661292 87.731014 
L 315.047344 89.22101 
L 313.433396 90.860568 
L 311.819448 92.655906 
L 310.205501 94.573362 
L 308.591553 96.575216 
L 306.977605 98.623745 
L 305.363658 100.681229 
L 303.74971 102.709945 
L 302.135762 104.672173 
L 300.521815 106.530191 
L 298.907867 108.246278 
L 297.293919 109.782712 
L 295.679971 111.107747 
L 294.066024 112.226514 
L 292.452076 113.158197 
L 290.838128 113.922008 
L 289.224181 114.537157 
L 287.610233 114.974205 
L 285.996285 115.327419 
L 284.382338 115.635298 
L 282.76839 115.895371 
L 281.154442 116.055387 
L 279.540495 116.181777 
L 277.926547 116.285777 
L 276.312599 116.369295 
L 274.698651 116.433684 
L 273.084704 116.480295 
L 271.470756 116.510481 
L 269.856808 116.525595 
L 268.242861 116.526988 
L 266.628913 116.516013 
L 265.014965 116.494023 
L 263.401018 116.46237 
L 261.78707 116.422651 
L 260.173122 116.35213 
L 258.559174 116.236897 
L 256.945227 116.13027 
L 255.331279 116.041587 
L 253.717331 115.980186 
L 252.103384 115.955404 
L 250.489436 115.97658 
L 248.875488 116.053052 
L 247.261541 116.156769 
L 245.647593 116.189052 
L 244.033645 116.242495 
L 242.419698 116.317276 
L 240.80575 116.413534 
L 239.191802 116.531411 
L 237.577854 116.671049 
L 235.963907 116.832587 
L 234.349959 117.016166 
L 232.736011 117.221929 
L 231.122064 117.450015 
L 229.508116 117.700562 
L 227.894168 117.971669 
L 226.280221 118.256088 
L 224.666273 118.545707 
L 223.052325 118.832409 
L 221.438377 119.108084 
L 219.82443 119.364615 
L 218.210482 119.593889 
L 216.596534 119.787794 
L 214.982587 119.938214 
L 213.368639 120.037036 
L 211.754691 120.077169 
L 210.140744 120.06157 
L 208.526796 119.998902 
L 206.912848 119.897889 
L 205.298901 119.76726 
L 203.684953 119.615741 
L 202.071005 119.452057 
L 200.457057 119.284937 
L 198.84311 119.123105 
L 197.229162 118.97529 
L 195.615214 118.850207 
L 194.001267 118.755583 
L 192.387319 118.697412 
L 190.773371 118.681507 
L 189.159424 118.713683 
L 187.545476 118.799754 
L 185.931528 118.945536 
L 184.31758 119.156843 
L 182.703633 119.43949 
L 181.089685 119.79929 
L 179.475737 120.24206 
L 177.86179 120.771596 
L 176.247842 121.379253 
L 174.633894 122.051642 
L 173.019947 122.775364 
L 171.405999 123.537023 
L 169.792051 124.323219 
L 168.178103 125.120554 
L 166.564156 125.915632 
L 164.950208 126.695053 
L 163.33626 127.445419 
L 161.722313 128.1536 
L 160.108365 128.815267 
L 158.494417 129.436702 
L 156.88047 130.024819 
L 155.266522 130.586533 
L 153.652574 131.128757 
L 152.038627 131.658405 
L 150.424679 132.182391 
L 148.810731 132.707629 
L 147.196783 133.241033 
L 145.582836 133.789516 
L 143.968888 134.357634 
L 142.35494 134.940503 
L 140.740993 135.53088 
L 139.127045 136.121523 
L 137.513097 136.60108 
L 135.89915 137.073373 
L 134.285202 137.61193 
L 132.671254 138.18663 
L 131.057306 138.767355 
L 129.443359 139.26539 
L 127.829411 139.655668 
L 126.215463 139.998839 
L 124.601516 140.305502 
L 122.987568 140.58649 
L 121.37362 140.852641 
L 119.759673 141.114788 
L 118.145725 141.383766 
L 116.531777 141.670412 
L 114.91783 141.98556 
L 113.303882 142.340045 
L 111.689934 142.744687 
L 110.075986 143.109738 
L 108.462039 143.40923 
L 106.848091 143.728345 
L 105.234143 144.066602 
L 103.620196 144.423521 
L 102.006248 144.798621 
L 100.3923 145.191421 
L 98.778353 145.601442 
L 97.164405 146.028202 
L 95.550457 146.245262 
L 93.936509 146.065323 
L 92.322562 145.730305 
L 90.708614 145.258894 
L 89.094666 144.669937 
L 87.480719 143.982279 
L 85.866771 143.214764 
L 84.252823 142.386239 
L 82.638876 141.515548 
L 81.024928 140.621537 
L 79.41098 139.72305 
L 77.797033 138.838894 
L 76.183085 137.984365 
L 74.569137 137.168582 
L 72.955189 136.400033 
L 71.341242 135.687206 
L 69.727294 135.038591 
L 68.113346 134.462676 
L 66.499399 133.967951 
L 64.885451 133.562903 
L 63.271503 133.256022 
L 61.657556 133.055797 
L 60.043608 132.96943 
L 58.42966 132.996195 
L 56.815712 133.132343 
L 55.201765 133.374118 
L 53.587817 133.717765 
L 51.973869 134.159528 
L 50.359922 134.695651 
L 48.745974 135.32238 
L 47.132026 136.035959 
L 45.518079 136.832632 
L 43.904131 137.708645 
L 42.290183 138.660241 
L 40.676236 139.683666 
L 39.062288 140.775163 
L 37.44834 141.930978 
L 35.834392 143.147355 
L 34.220445 144.420538 
L 32.606497 145.746773 
L 30.992549 147.122303 
L 29.378602 148.543374 
L 27.764654 150.00623 
z
" clip-path="url(#p91dbf79983)" style="fill: #ff7f0e"/>
   </g>
   <g id="matplotlib.axis_1">
    <g id="xtick_1">
     <g id="line2d_1">
      <defs>
       <path id="m95cbcf234f" d="M 0 0 
L 0 3.5 
" style="stroke: #000000; stroke-width: 0.8"/>
      </defs>
      <g>
       <use xlink:href="#m95cbcf234f" x="27.764654" y="314.449375" style="stroke: #000000; stroke-width: 0.8"/>
      </g>
     </g>
     <g id="text_1">
      <!-- 1981 -->
      <g transform="translate(12.109973 340.501483) rotate(-45) scale(0.1 -0.1)">
       <defs>
        <path id="TimesNewRomanPSMT-31" d="M 750 3822 
L 1781 4325 
L 1884 4325 
L 1884 747 
Q 1884 391 1914 303 
Q 1944 216 2037 169 
Q 2131 122 2419 116 
L 2419 0 
L 825 0 
L 825 116 
Q 1125 122 1212 167 
Q 1300 213 1334 289 
Q 1369 366 1369 747 
L 1369 3034 
Q 1369 3497 1338 3628 
Q 1316 3728 1258 3775 
Q 1200 3822 1119 3822 
Q 1003 3822 797 3725 
L 750 3822 
z
" transform="scale(0.015625)"/>
        <path id="TimesNewRomanPSMT-39" d="M 338 -88 
L 338 28 
Q 744 34 1094 217 
Q 1444 400 1770 856 
Q 2097 1313 2225 1859 
Q 1734 1544 1338 1544 
Q 891 1544 572 1889 
Q 253 2234 253 2806 
Q 253 3363 572 3797 
Q 956 4325 1575 4325 
Q 2097 4325 2469 3894 
Q 2925 3359 2925 2575 
Q 2925 1869 2578 1258 
Q 2231 647 1613 244 
Q 1109 -88 516 -88 
L 338 -88 
z
M 2275 2091 
Q 2331 2497 2331 2741 
Q 2331 3044 2228 3395 
Q 2125 3747 1936 3934 
Q 1747 4122 1506 4122 
Q 1228 4122 1018 3872 
Q 809 3622 809 3128 
Q 809 2469 1088 2097 
Q 1291 1828 1588 1828 
Q 1731 1828 1928 1897 
Q 2125 1966 2275 2091 
z
" transform="scale(0.015625)"/>
        <path id="TimesNewRomanPSMT-38" d="M 1228 2134 
Q 725 2547 579 2797 
Q 434 3047 434 3316 
Q 434 3728 753 4026 
Q 1072 4325 1600 4325 
Q 2113 4325 2425 4047 
Q 2738 3769 2738 3413 
Q 2738 3175 2569 2928 
Q 2400 2681 1866 2347 
Q 2416 1922 2594 1678 
Q 2831 1359 2831 1006 
Q 2831 559 2490 242 
Q 2150 -75 1597 -75 
Q 994 -75 656 303 
Q 388 606 388 966 
Q 388 1247 577 1523 
Q 766 1800 1228 2134 
z
M 1719 2469 
Q 2094 2806 2194 3001 
Q 2294 3197 2294 3444 
Q 2294 3772 2109 3958 
Q 1925 4144 1606 4144 
Q 1288 4144 1088 3959 
Q 888 3775 888 3528 
Q 888 3366 970 3203 
Q 1053 3041 1206 2894 
L 1719 2469 
z
M 1375 2016 
Q 1116 1797 991 1539 
Q 866 1281 866 981 
Q 866 578 1086 336 
Q 1306 94 1647 94 
Q 1984 94 2187 284 
Q 2391 475 2391 747 
Q 2391 972 2272 1150 
Q 2050 1481 1375 2016 
z
" transform="scale(0.015625)"/>
       </defs>
       <use xlink:href="#TimesNewRomanPSMT-31"/>
       <use xlink:href="#TimesNewRomanPSMT-39" transform="translate(50 0)"/>
       <use xlink:href="#TimesNewRomanPSMT-38" transform="translate(100 0)"/>
       <use xlink:href="#TimesNewRomanPSMT-31" transform="translate(150 0)"/>
      </g>
     </g>
    </g>
    <g id="xtick_2">
     <g id="line2d_2">
      <g>
       <use xlink:href="#m95cbcf234f" x="61.426992" y="314.449375" style="stroke: #000000; stroke-width: 0.8"/>
      </g>
     </g>
     <g id="text_2">
      <!-- 1983 -->
      <g transform="translate(45.77231 340.501483) rotate(-45) scale(0.1 -0.1)">
       <defs>
        <path id="TimesNewRomanPSMT-33" d="M 325 3431 
Q 506 3859 782 4092 
Q 1059 4325 1472 4325 
Q 1981 4325 2253 3994 
Q 2459 3747 2459 3466 
Q 2459 3003 1878 2509 
Q 2269 2356 2469 2072 
Q 2669 1788 2669 1403 
Q 2669 853 2319 450 
Q 1863 -75 997 -75 
Q 569 -75 414 31 
Q 259 138 259 259 
Q 259 350 332 419 
Q 406 488 509 488 
Q 588 488 669 463 
Q 722 447 909 348 
Q 1097 250 1169 231 
Q 1284 197 1416 197 
Q 1734 197 1970 444 
Q 2206 691 2206 1028 
Q 2206 1275 2097 1509 
Q 2016 1684 1919 1775 
Q 1784 1900 1550 2001 
Q 1316 2103 1072 2103 
L 972 2103 
L 972 2197 
Q 1219 2228 1467 2375 
Q 1716 2522 1828 2728 
Q 1941 2934 1941 3181 
Q 1941 3503 1739 3701 
Q 1538 3900 1238 3900 
Q 753 3900 428 3381 
L 325 3431 
z
" transform="scale(0.015625)"/>
       </defs>
       <use xlink:href="#TimesNewRomanPSMT-31"/>
       <use xlink:href="#TimesNewRomanPSMT-39" transform="translate(50 0)"/>
       <use xlink:href="#TimesNewRomanPSMT-38" transform="translate(100 0)"/>
       <use xlink:href="#TimesNewRomanPSMT-33" transform="translate(150 0)"/>
      </g>
     </g>
    </g>
    <g id="xtick_3">
     <g id="line2d_3">
      <g>
       <use xlink:href="#m95cbcf234f" x="95.089329" y="314.449375" style="stroke: #000000; stroke-width: 0.8"/>
      </g>
     </g>
     <g id="text_3">
      <!-- 1985 -->
      <g transform="translate(79.434648 340.501483) rotate(-45) scale(0.1 -0.1)">
       <defs>
        <path id="TimesNewRomanPSMT-35" d="M 2778 4238 
L 2534 3706 
L 1259 3706 
L 981 3138 
Q 1809 3016 2294 2522 
Q 2709 2097 2709 1522 
Q 2709 1188 2573 903 
Q 2438 619 2231 419 
Q 2025 219 1772 97 
Q 1413 -75 1034 -75 
Q 653 -75 479 54 
Q 306 184 306 341 
Q 306 428 378 495 
Q 450 563 559 563 
Q 641 563 702 538 
Q 763 513 909 409 
Q 1144 247 1384 247 
Q 1750 247 2026 523 
Q 2303 800 2303 1197 
Q 2303 1581 2056 1914 
Q 1809 2247 1375 2428 
Q 1034 2569 447 2591 
L 1259 4238 
L 2778 4238 
z
" transform="scale(0.015625)"/>
       </defs>
       <use xlink:href="#TimesNewRomanPSMT-31"/>
       <use xlink:href="#TimesNewRomanPSMT-39" transform="translate(50 0)"/>
       <use xlink:href="#TimesNewRomanPSMT-38" transform="translate(100 0)"/>
       <use xlink:href="#TimesNewRomanPSMT-35" transform="translate(150 0)"/>
      </g>
     </g>
    </g>
    <g id="xtick_4">
     <g id="line2d_4">
      <g>
       <use xlink:href="#m95cbcf234f" x="128.751667" y="314.449375" style="stroke: #000000; stroke-width: 0.8"/>
      </g>
     </g>
     <g id="text_4">
      <!-- 1987 -->
      <g transform="translate(113.096986 340.501483) rotate(-45) scale(0.1 -0.1)">
       <defs>
        <path id="TimesNewRomanPSMT-37" d="M 644 4238 
L 2916 4238 
L 2916 4119 
L 1503 -88 
L 1153 -88 
L 2419 3728 
L 1253 3728 
Q 900 3728 750 3644 
Q 488 3500 328 3200 
L 238 3234 
L 644 4238 
z
" transform="scale(0.015625)"/>
       </defs>
       <use xlink:href="#TimesNewRomanPSMT-31"/>
       <use xlink:href="#TimesNewRomanPSMT-39" transform="translate(50 0)"/>
       <use xlink:href="#TimesNewRomanPSMT-38" transform="translate(100 0)"/>
       <use xlink:href="#TimesNewRomanPSMT-37" transform="translate(150 0)"/>
      </g>
     </g>
    </g>
    <g id="xtick_5">
     <g id="line2d_5">
      <g>
       <use xlink:href="#m95cbcf234f" x="162.414005" y="314.449375" style="stroke: #000000; stroke-width: 0.8"/>
      </g>
     </g>
     <g id="text_5">
      <!-- 1989 -->
      <g transform="translate(146.759323 340.501483) rotate(-45) scale(0.1 -0.1)">
       <use xlink:href="#TimesNewRomanPSMT-31"/>
       <use xlink:href="#TimesNewRomanPSMT-39" transform="translate(50 0)"/>
       <use xlink:href="#TimesNewRomanPSMT-38" transform="translate(100 0)"/>
       <use xlink:href="#TimesNewRomanPSMT-39" transform="translate(150 0)"/>
      </g>
     </g>
    </g>
    <g id="xtick_6">
     <g id="line2d_6">
      <g>
       <use xlink:href="#m95cbcf234f" x="196.076342" y="314.449375" style="stroke: #000000; stroke-width: 0.8"/>
      </g>
     </g>
     <g id="text_6">
      <!-- 1991 -->
      <g transform="translate(180.421661 340.501483) rotate(-45) scale(0.1 -0.1)">
       <use xlink:href="#TimesNewRomanPSMT-31"/>
       <use xlink:href="#TimesNewRomanPSMT-39" transform="translate(50 0)"/>
       <use xlink:href="#TimesNewRomanPSMT-39" transform="translate(100 0)"/>
       <use xlink:href="#TimesNewRomanPSMT-31" transform="translate(150 0)"/>
      </g>
     </g>
    </g>
    <g id="xtick_7">
     <g id="line2d_7">
      <g>
       <use xlink:href="#m95cbcf234f" x="229.73868" y="314.449375" style="stroke: #000000; stroke-width: 0.8"/>
      </g>
     </g>
     <g id="text_7">
      <!-- 1993 -->
      <g transform="translate(214.083999 340.501483) rotate(-45) scale(0.1 -0.1)">
       <use xlink:href="#TimesNewRomanPSMT-31"/>
       <use xlink:href="#TimesNewRomanPSMT-39" transform="translate(50 0)"/>
       <use xlink:href="#TimesNewRomanPSMT-39" transform="translate(100 0)"/>
       <use xlink:href="#TimesNewRomanPSMT-33" transform="translate(150 0)"/>
      </g>
     </g>
    </g>
    <g id="xtick_8">
     <g id="line2d_8">
      <g>
       <use xlink:href="#m95cbcf234f" x="263.401018" y="314.449375" style="stroke: #000000; stroke-width: 0.8"/>
      </g>
     </g>
     <g id="text_8">
      <!-- 1995 -->
      <g transform="translate(247.746336 340.501483) rotate(-45) scale(0.1 -0.1)">
       <use xlink:href="#TimesNewRomanPSMT-31"/>
       <use xlink:href="#TimesNewRomanPSMT-39" transform="translate(50 0)"/>
       <use xlink:href="#TimesNewRomanPSMT-39" transform="translate(100 0)"/>
       <use xlink:href="#TimesNewRomanPSMT-35" transform="translate(150 0)"/>
      </g>
     </g>
    </g>
    <g id="xtick_9">
     <g id="line2d_9">
      <g>
       <use xlink:href="#m95cbcf234f" x="297.063355" y="314.449375" style="stroke: #000000; stroke-width: 0.8"/>
      </g>
     </g>
     <g id="text_9">
      <!-- 1997 -->
      <g transform="translate(281.408674 340.501483) rotate(-45) scale(0.1 -0.1)">
       <use xlink:href="#TimesNewRomanPSMT-31"/>
       <use xlink:href="#TimesNewRomanPSMT-39" transform="translate(50 0)"/>
       <use xlink:href="#TimesNewRomanPSMT-39" transform="translate(100 0)"/>
       <use xlink:href="#TimesNewRomanPSMT-37" transform="translate(150 0)"/>
      </g>
     </g>
    </g>
    <g id="xtick_10">
     <g id="line2d_10">
      <g>
       <use xlink:href="#m95cbcf234f" x="330.725693" y="314.449375" style="stroke: #000000; stroke-width: 0.8"/>
      </g>
     </g>
     <g id="text_10">
      <!-- 1999 -->
      <g transform="translate(315.071012 340.501483) rotate(-45) scale(0.1 -0.1)">
       <use xlink:href="#TimesNewRomanPSMT-31"/>
       <use xlink:href="#TimesNewRomanPSMT-39" transform="translate(50 0)"/>
       <use xlink:href="#TimesNewRomanPSMT-39" transform="translate(100 0)"/>
       <use xlink:href="#TimesNewRomanPSMT-39" transform="translate(150 0)"/>
      </g>
     </g>
    </g>
    <g id="xtick_11">
     <g id="line2d_11">
      <g>
       <use xlink:href="#m95cbcf234f" x="364.388031" y="314.449375" style="stroke: #000000; stroke-width: 0.8"/>
      </g>
     </g>
     <g id="text_11">
      <!-- 2001 -->
      <g transform="translate(348.733349 340.501483) rotate(-45) scale(0.1 -0.1)">
       <defs>
        <path id="TimesNewRomanPSMT-32" d="M 2934 816 
L 2638 0 
L 138 0 
L 138 116 
Q 1241 1122 1691 1759 
Q 2141 2397 2141 2925 
Q 2141 3328 1894 3587 
Q 1647 3847 1303 3847 
Q 991 3847 742 3664 
Q 494 3481 375 3128 
L 259 3128 
Q 338 3706 661 4015 
Q 984 4325 1469 4325 
Q 1984 4325 2329 3994 
Q 2675 3663 2675 3213 
Q 2675 2891 2525 2569 
Q 2294 2063 1775 1497 
Q 997 647 803 472 
L 1909 472 
Q 2247 472 2383 497 
Q 2519 522 2628 598 
Q 2738 675 2819 816 
L 2934 816 
z
" transform="scale(0.015625)"/>
        <path id="TimesNewRomanPSMT-30" d="M 231 2094 
Q 231 2819 450 3342 
Q 669 3866 1031 4122 
Q 1313 4325 1613 4325 
Q 2100 4325 2488 3828 
Q 2972 3213 2972 2159 
Q 2972 1422 2759 906 
Q 2547 391 2217 158 
Q 1888 -75 1581 -75 
Q 975 -75 572 641 
Q 231 1244 231 2094 
z
M 844 2016 
Q 844 1141 1059 588 
Q 1238 122 1591 122 
Q 1759 122 1940 273 
Q 2122 425 2216 781 
Q 2359 1319 2359 2297 
Q 2359 3022 2209 3506 
Q 2097 3866 1919 4016 
Q 1791 4119 1609 4119 
Q 1397 4119 1231 3928 
Q 1006 3669 925 3112 
Q 844 2556 844 2016 
z
" transform="scale(0.015625)"/>
       </defs>
       <use xlink:href="#TimesNewRomanPSMT-32"/>
       <use xlink:href="#TimesNewRomanPSMT-30" transform="translate(50 0)"/>
       <use xlink:href="#TimesNewRomanPSMT-30" transform="translate(100 0)"/>
       <use xlink:href="#TimesNewRomanPSMT-31" transform="translate(150 0)"/>
      </g>
     </g>
    </g>
    <g id="text_12">
     <!-- Year -->
     <g transform="translate(193.434114 354.346529) scale(0.12 -0.12)">
      <defs>
       <path id="TimesNewRomanPSMT-59" d="M 3050 4238 
L 4528 4238 
L 4528 4122 
L 4447 4122 
Q 4366 4122 4209 4050 
Q 4053 3978 3925 3843 
Q 3797 3709 3609 3406 
L 2588 1797 
L 2588 734 
Q 2588 344 2675 247 
Q 2794 116 3050 116 
L 3188 116 
L 3188 0 
L 1388 0 
L 1388 116 
L 1538 116 
Q 1806 116 1919 278 
Q 1988 378 1988 734 
L 1988 1738 
L 825 3513 
Q 619 3825 545 3903 
Q 472 3981 241 4091 
Q 178 4122 59 4122 
L 59 4238 
L 1872 4238 
L 1872 4122 
L 1778 4122 
Q 1631 4122 1507 4053 
Q 1384 3984 1384 3847 
Q 1384 3734 1575 3441 
L 2459 2075 
L 3291 3381 
Q 3478 3675 3478 3819 
Q 3478 3906 3433 3975 
Q 3388 4044 3303 4083 
Q 3219 4122 3050 4122 
L 3050 4238 
z
" transform="scale(0.015625)"/>
       <path id="TimesNewRomanPSMT-65" d="M 681 1784 
Q 678 1147 991 784 
Q 1303 422 1725 422 
Q 2006 422 2214 576 
Q 2422 731 2563 1106 
L 2659 1044 
Q 2594 616 2278 264 
Q 1963 -88 1488 -88 
Q 972 -88 605 314 
Q 238 716 238 1394 
Q 238 2128 614 2539 
Q 991 2950 1559 2950 
Q 2041 2950 2350 2633 
Q 2659 2316 2659 1784 
L 681 1784 
z
M 681 1966 
L 2006 1966 
Q 1991 2241 1941 2353 
Q 1863 2528 1708 2628 
Q 1553 2728 1384 2728 
Q 1125 2728 920 2526 
Q 716 2325 681 1966 
z
" transform="scale(0.015625)"/>
       <path id="TimesNewRomanPSMT-61" d="M 1822 413 
Q 1381 72 1269 19 
Q 1100 -59 909 -59 
Q 613 -59 420 144 
Q 228 347 228 678 
Q 228 888 322 1041 
Q 450 1253 767 1440 
Q 1084 1628 1822 1897 
L 1822 2009 
Q 1822 2438 1686 2597 
Q 1550 2756 1291 2756 
Q 1094 2756 978 2650 
Q 859 2544 859 2406 
L 866 2225 
Q 866 2081 792 2003 
Q 719 1925 600 1925 
Q 484 1925 411 2006 
Q 338 2088 338 2228 
Q 338 2497 613 2722 
Q 888 2947 1384 2947 
Q 1766 2947 2009 2819 
Q 2194 2722 2281 2516 
Q 2338 2381 2338 1966 
L 2338 994 
Q 2338 584 2353 492 
Q 2369 400 2405 369 
Q 2441 338 2488 338 
Q 2538 338 2575 359 
Q 2641 400 2828 588 
L 2828 413 
Q 2478 -56 2159 -56 
Q 2006 -56 1915 50 
Q 1825 156 1822 413 
z
M 1822 616 
L 1822 1706 
Q 1350 1519 1213 1441 
Q 966 1303 859 1153 
Q 753 1003 753 825 
Q 753 600 887 451 
Q 1022 303 1197 303 
Q 1434 303 1822 616 
z
" transform="scale(0.015625)"/>
       <path id="TimesNewRomanPSMT-72" d="M 1038 2947 
L 1038 2303 
Q 1397 2947 1775 2947 
Q 1947 2947 2059 2842 
Q 2172 2738 2172 2600 
Q 2172 2478 2090 2393 
Q 2009 2309 1897 2309 
Q 1788 2309 1652 2417 
Q 1516 2525 1450 2525 
Q 1394 2525 1328 2463 
Q 1188 2334 1038 2041 
L 1038 669 
Q 1038 431 1097 309 
Q 1138 225 1241 169 
Q 1344 113 1538 113 
L 1538 0 
L 72 0 
L 72 113 
Q 291 113 397 181 
Q 475 231 506 341 
Q 522 394 522 644 
L 522 1753 
Q 522 2253 501 2348 
Q 481 2444 426 2487 
Q 372 2531 291 2531 
Q 194 2531 72 2484 
L 41 2597 
L 906 2947 
L 1038 2947 
z
" transform="scale(0.015625)"/>
      </defs>
      <use xlink:href="#TimesNewRomanPSMT-59"/>
      <use xlink:href="#TimesNewRomanPSMT-65" transform="translate(62.216797 0)"/>
      <use xlink:href="#TimesNewRomanPSMT-61" transform="translate(106.601562 0)"/>
      <use xlink:href="#TimesNewRomanPSMT-72" transform="translate(150.986328 0)"/>
     </g>
    </g>
   </g>
   <g id="patch_3">
    <path d="M 10.091927 314.449375 
L 10.091927 37.249375 
" style="fill: none; stroke: #000000; stroke-width: 0.8; stroke-linejoin: miter; stroke-linecap: square"/>
   </g>
   <g id="patch_4">
    <path d="M 398.891927 314.449375 
L 398.891927 37.249375 
" style="fill: none; stroke: #000000; stroke-width: 0.8; stroke-linejoin: miter; stroke-linecap: square"/>
   </g>
   <g id="patch_5">
    <path d="M 10.091927 314.449375 
L 398.891927 314.449375 
" style="fill: none; stroke: #000000; stroke-width: 0.8; stroke-linejoin: miter; stroke-linecap: square"/>
   </g>
   <g id="patch_6">
    <path d="M 10.091927 37.249375 
L 398.891927 37.249375 
" style="fill: none; stroke: #000000; stroke-width: 0.8; stroke-linejoin: miter; stroke-linecap: square"/>
   </g>
   <g id="text_13">
    <!-- Subscription Revenue from 1981 to 2002 ($)  -->
    <g transform="translate(77.148802 17.249375) scale(0.14 -0.14)">
     <defs>
      <path id="TimesNewRomanPSMT-53" d="M 2934 4334 
L 2934 2869 
L 2819 2869 
Q 2763 3291 2617 3541 
Q 2472 3791 2203 3937 
Q 1934 4084 1647 4084 
Q 1322 4084 1109 3886 
Q 897 3688 897 3434 
Q 897 3241 1031 3081 
Q 1225 2847 1953 2456 
Q 2547 2138 2764 1967 
Q 2981 1797 3098 1565 
Q 3216 1334 3216 1081 
Q 3216 600 2842 251 
Q 2469 -97 1881 -97 
Q 1697 -97 1534 -69 
Q 1438 -53 1133 45 
Q 828 144 747 144 
Q 669 144 623 97 
Q 578 50 556 -97 
L 441 -97 
L 441 1356 
L 556 1356 
Q 638 900 775 673 
Q 913 447 1195 297 
Q 1478 147 1816 147 
Q 2206 147 2432 353 
Q 2659 559 2659 841 
Q 2659 997 2573 1156 
Q 2488 1316 2306 1453 
Q 2184 1547 1640 1851 
Q 1097 2156 867 2337 
Q 638 2519 519 2737 
Q 400 2956 400 3219 
Q 400 3675 750 4004 
Q 1100 4334 1641 4334 
Q 1978 4334 2356 4169 
Q 2531 4091 2603 4091 
Q 2684 4091 2736 4139 
Q 2788 4188 2819 4334 
L 2934 4334 
z
" transform="scale(0.015625)"/>
      <path id="TimesNewRomanPSMT-75" d="M 2709 2863 
L 2709 1128 
Q 2709 631 2732 520 
Q 2756 409 2807 365 
Q 2859 322 2928 322 
Q 3025 322 3147 375 
L 3191 266 
L 2334 -88 
L 2194 -88 
L 2194 519 
Q 1825 119 1631 15 
Q 1438 -88 1222 -88 
Q 981 -88 804 51 
Q 628 191 559 409 
Q 491 628 491 1028 
L 491 2306 
Q 491 2509 447 2587 
Q 403 2666 317 2708 
Q 231 2750 6 2747 
L 6 2863 
L 1009 2863 
L 1009 947 
Q 1009 547 1148 422 
Q 1288 297 1484 297 
Q 1619 297 1789 381 
Q 1959 466 2194 703 
L 2194 2325 
Q 2194 2569 2105 2655 
Q 2016 2741 1734 2747 
L 1734 2863 
L 2709 2863 
z
" transform="scale(0.015625)"/>
      <path id="TimesNewRomanPSMT-62" d="M 984 2369 
Q 1400 2947 1881 2947 
Q 2322 2947 2650 2570 
Q 2978 2194 2978 1541 
Q 2978 778 2472 313 
Q 2038 -88 1503 -88 
Q 1253 -88 995 3 
Q 738 94 469 275 
L 469 3241 
Q 469 3728 445 3840 
Q 422 3953 372 3993 
Q 322 4034 247 4034 
Q 159 4034 28 3984 
L -16 4094 
L 844 4444 
L 984 4444 
L 984 2369 
z
M 984 2169 
L 984 456 
Q 1144 300 1314 220 
Q 1484 141 1663 141 
Q 1947 141 2192 453 
Q 2438 766 2438 1363 
Q 2438 1913 2192 2208 
Q 1947 2503 1634 2503 
Q 1469 2503 1303 2419 
Q 1178 2356 984 2169 
z
" transform="scale(0.015625)"/>
      <path id="TimesNewRomanPSMT-73" d="M 2050 2947 
L 2050 1972 
L 1947 1972 
Q 1828 2431 1642 2597 
Q 1456 2763 1169 2763 
Q 950 2763 815 2647 
Q 681 2531 681 2391 
Q 681 2216 781 2091 
Q 878 1963 1175 1819 
L 1631 1597 
Q 2266 1288 2266 781 
Q 2266 391 1970 151 
Q 1675 -88 1309 -88 
Q 1047 -88 709 6 
Q 606 38 541 38 
Q 469 38 428 -44 
L 325 -44 
L 325 978 
L 428 978 
Q 516 541 762 319 
Q 1009 97 1316 97 
Q 1531 97 1667 223 
Q 1803 350 1803 528 
Q 1803 744 1651 891 
Q 1500 1038 1047 1263 
Q 594 1488 453 1669 
Q 313 1847 313 2119 
Q 313 2472 555 2709 
Q 797 2947 1181 2947 
Q 1350 2947 1591 2875 
Q 1750 2828 1803 2828 
Q 1853 2828 1881 2850 
Q 1909 2872 1947 2947 
L 2050 2947 
z
" transform="scale(0.015625)"/>
      <path id="TimesNewRomanPSMT-63" d="M 2631 1088 
Q 2516 522 2178 217 
Q 1841 -88 1431 -88 
Q 944 -88 581 321 
Q 219 731 219 1428 
Q 219 2103 620 2525 
Q 1022 2947 1584 2947 
Q 2006 2947 2278 2723 
Q 2550 2500 2550 2259 
Q 2550 2141 2473 2067 
Q 2397 1994 2259 1994 
Q 2075 1994 1981 2113 
Q 1928 2178 1911 2362 
Q 1894 2547 1784 2644 
Q 1675 2738 1481 2738 
Q 1169 2738 978 2506 
Q 725 2200 725 1697 
Q 725 1184 976 792 
Q 1228 400 1656 400 
Q 1963 400 2206 609 
Q 2378 753 2541 1131 
L 2631 1088 
z
" transform="scale(0.015625)"/>
      <path id="TimesNewRomanPSMT-69" d="M 928 4444 
Q 1059 4444 1151 4351 
Q 1244 4259 1244 4128 
Q 1244 3997 1151 3903 
Q 1059 3809 928 3809 
Q 797 3809 703 3903 
Q 609 3997 609 4128 
Q 609 4259 701 4351 
Q 794 4444 928 4444 
z
M 1188 2947 
L 1188 647 
Q 1188 378 1227 289 
Q 1266 200 1342 156 
Q 1419 113 1622 113 
L 1622 0 
L 231 0 
L 231 113 
Q 441 113 512 153 
Q 584 194 626 287 
Q 669 381 669 647 
L 669 1750 
Q 669 2216 641 2353 
Q 619 2453 572 2492 
Q 525 2531 444 2531 
Q 356 2531 231 2484 
L 188 2597 
L 1050 2947 
L 1188 2947 
z
" transform="scale(0.015625)"/>
      <path id="TimesNewRomanPSMT-70" d="M -6 2578 
L 875 2934 
L 994 2934 
L 994 2266 
Q 1216 2644 1439 2795 
Q 1663 2947 1909 2947 
Q 2341 2947 2628 2609 
Q 2981 2197 2981 1534 
Q 2981 794 2556 309 
Q 2206 -88 1675 -88 
Q 1444 -88 1275 -22 
Q 1150 25 994 166 
L 994 -706 
Q 994 -1000 1030 -1079 
Q 1066 -1159 1155 -1206 
Q 1244 -1253 1478 -1253 
L 1478 -1369 
L -22 -1369 
L -22 -1253 
L 56 -1253 
Q 228 -1256 350 -1188 
Q 409 -1153 442 -1076 
Q 475 -1000 475 -688 
L 475 2019 
Q 475 2297 450 2372 
Q 425 2447 370 2484 
Q 316 2522 222 2522 
Q 147 2522 31 2478 
L -6 2578 
z
M 994 2081 
L 994 1013 
Q 994 666 1022 556 
Q 1066 375 1236 237 
Q 1406 100 1666 100 
Q 1978 100 2172 344 
Q 2425 663 2425 1241 
Q 2425 1897 2138 2250 
Q 1938 2494 1663 2494 
Q 1513 2494 1366 2419 
Q 1253 2363 994 2081 
z
" transform="scale(0.015625)"/>
      <path id="TimesNewRomanPSMT-74" d="M 1031 3803 
L 1031 2863 
L 1700 2863 
L 1700 2644 
L 1031 2644 
L 1031 788 
Q 1031 509 1111 412 
Q 1191 316 1316 316 
Q 1419 316 1516 380 
Q 1613 444 1666 569 
L 1788 569 
Q 1678 263 1478 108 
Q 1278 -47 1066 -47 
Q 922 -47 784 33 
Q 647 113 581 261 
Q 516 409 516 719 
L 516 2644 
L 63 2644 
L 63 2747 
Q 234 2816 414 2980 
Q 594 3144 734 3369 
Q 806 3488 934 3803 
L 1031 3803 
z
" transform="scale(0.015625)"/>
      <path id="TimesNewRomanPSMT-6f" d="M 1600 2947 
Q 2250 2947 2644 2453 
Q 2978 2031 2978 1484 
Q 2978 1100 2793 706 
Q 2609 313 2286 112 
Q 1963 -88 1566 -88 
Q 919 -88 538 428 
Q 216 863 216 1403 
Q 216 1797 411 2186 
Q 606 2575 925 2761 
Q 1244 2947 1600 2947 
z
M 1503 2744 
Q 1338 2744 1170 2645 
Q 1003 2547 900 2300 
Q 797 2053 797 1666 
Q 797 1041 1045 587 
Q 1294 134 1700 134 
Q 2003 134 2200 384 
Q 2397 634 2397 1244 
Q 2397 2006 2069 2444 
Q 1847 2744 1503 2744 
z
" transform="scale(0.015625)"/>
      <path id="TimesNewRomanPSMT-6e" d="M 1034 2341 
Q 1538 2947 1994 2947 
Q 2228 2947 2397 2830 
Q 2566 2713 2666 2444 
Q 2734 2256 2734 1869 
L 2734 647 
Q 2734 375 2778 278 
Q 2813 200 2889 156 
Q 2966 113 3172 113 
L 3172 0 
L 1756 0 
L 1756 113 
L 1816 113 
Q 2016 113 2095 173 
Q 2175 234 2206 353 
Q 2219 400 2219 647 
L 2219 1819 
Q 2219 2209 2117 2386 
Q 2016 2563 1775 2563 
Q 1403 2563 1034 2156 
L 1034 647 
Q 1034 356 1069 288 
Q 1113 197 1189 155 
Q 1266 113 1500 113 
L 1500 0 
L 84 0 
L 84 113 
L 147 113 
Q 366 113 442 223 
Q 519 334 519 647 
L 519 1709 
Q 519 2225 495 2337 
Q 472 2450 423 2490 
Q 375 2531 294 2531 
Q 206 2531 84 2484 
L 38 2597 
L 900 2947 
L 1034 2947 
L 1034 2341 
z
" transform="scale(0.015625)"/>
      <path id="TimesNewRomanPSMT-20" transform="scale(0.015625)"/>
      <path id="TimesNewRomanPSMT-52" d="M 4325 0 
L 3194 0 
L 1759 1981 
Q 1600 1975 1500 1975 
Q 1459 1975 1412 1976 
Q 1366 1978 1316 1981 
L 1316 750 
Q 1316 350 1403 253 
Q 1522 116 1759 116 
L 1925 116 
L 1925 0 
L 109 0 
L 109 116 
L 269 116 
Q 538 116 653 291 
Q 719 388 719 750 
L 719 3488 
Q 719 3888 631 3984 
Q 509 4122 269 4122 
L 109 4122 
L 109 4238 
L 1653 4238 
Q 2328 4238 2648 4139 
Q 2969 4041 3192 3777 
Q 3416 3513 3416 3147 
Q 3416 2756 3161 2468 
Q 2906 2181 2372 2063 
L 3247 847 
Q 3547 428 3762 290 
Q 3978 153 4325 116 
L 4325 0 
z
M 1316 2178 
Q 1375 2178 1419 2176 
Q 1463 2175 1491 2175 
Q 2097 2175 2405 2437 
Q 2713 2700 2713 3106 
Q 2713 3503 2464 3751 
Q 2216 4000 1806 4000 
Q 1625 4000 1316 3941 
L 1316 2178 
z
" transform="scale(0.015625)"/>
      <path id="TimesNewRomanPSMT-76" d="M 53 2863 
L 1400 2863 
L 1400 2747 
L 1313 2747 
Q 1191 2747 1127 2687 
Q 1063 2628 1063 2528 
Q 1063 2419 1128 2269 
L 1794 688 
L 2463 2328 
Q 2534 2503 2534 2594 
Q 2534 2638 2509 2666 
Q 2475 2713 2422 2730 
Q 2369 2747 2206 2747 
L 2206 2863 
L 3141 2863 
L 3141 2747 
Q 2978 2734 2916 2681 
Q 2806 2588 2719 2369 
L 1703 -88 
L 1575 -88 
L 553 2328 
Q 484 2497 421 2570 
Q 359 2644 263 2694 
Q 209 2722 53 2747 
L 53 2863 
z
" transform="scale(0.015625)"/>
      <path id="TimesNewRomanPSMT-66" d="M 1319 2638 
L 1319 756 
Q 1319 356 1406 250 
Q 1522 113 1716 113 
L 1975 113 
L 1975 0 
L 266 0 
L 266 113 
L 394 113 
Q 519 113 622 175 
Q 725 238 764 344 
Q 803 450 803 756 
L 803 2638 
L 247 2638 
L 247 2863 
L 803 2863 
L 803 3050 
Q 803 3478 940 3775 
Q 1078 4072 1361 4255 
Q 1644 4438 1997 4438 
Q 2325 4438 2600 4225 
Q 2781 4084 2781 3909 
Q 2781 3816 2700 3733 
Q 2619 3650 2525 3650 
Q 2453 3650 2373 3701 
Q 2294 3753 2178 3923 
Q 2063 4094 1966 4153 
Q 1869 4213 1750 4213 
Q 1606 4213 1506 4136 
Q 1406 4059 1362 3898 
Q 1319 3738 1319 3069 
L 1319 2863 
L 2056 2863 
L 2056 2638 
L 1319 2638 
z
" transform="scale(0.015625)"/>
      <path id="TimesNewRomanPSMT-6d" d="M 1050 2338 
Q 1363 2650 1419 2697 
Q 1559 2816 1721 2881 
Q 1884 2947 2044 2947 
Q 2313 2947 2506 2790 
Q 2700 2634 2766 2338 
Q 3088 2713 3309 2830 
Q 3531 2947 3766 2947 
Q 3994 2947 4170 2830 
Q 4347 2713 4450 2447 
Q 4519 2266 4519 1878 
L 4519 647 
Q 4519 378 4559 278 
Q 4591 209 4675 161 
Q 4759 113 4950 113 
L 4950 0 
L 3538 0 
L 3538 113 
L 3597 113 
Q 3781 113 3884 184 
Q 3956 234 3988 344 
Q 4000 397 4000 647 
L 4000 1878 
Q 4000 2228 3916 2372 
Q 3794 2572 3525 2572 
Q 3359 2572 3192 2489 
Q 3025 2406 2788 2181 
L 2781 2147 
L 2788 2013 
L 2788 647 
Q 2788 353 2820 281 
Q 2853 209 2943 161 
Q 3034 113 3253 113 
L 3253 0 
L 1806 0 
L 1806 113 
Q 2044 113 2133 169 
Q 2222 225 2256 338 
Q 2272 391 2272 647 
L 2272 1878 
Q 2272 2228 2169 2381 
Q 2031 2581 1784 2581 
Q 1616 2581 1450 2491 
Q 1191 2353 1050 2181 
L 1050 647 
Q 1050 366 1089 281 
Q 1128 197 1204 155 
Q 1281 113 1516 113 
L 1516 0 
L 100 0 
L 100 113 
Q 297 113 375 155 
Q 453 197 493 289 
Q 534 381 534 647 
L 534 1741 
Q 534 2213 506 2350 
Q 484 2453 437 2492 
Q 391 2531 309 2531 
Q 222 2531 100 2484 
L 53 2597 
L 916 2947 
L 1050 2947 
L 1050 2338 
z
" transform="scale(0.015625)"/>
      <path id="TimesNewRomanPSMT-28" d="M 1988 -1253 
L 1988 -1369 
Q 1516 -1131 1200 -813 
Q 750 -359 506 256 
Q 263 872 263 1534 
Q 263 2503 741 3301 
Q 1219 4100 1988 4444 
L 1988 4313 
Q 1603 4100 1356 3731 
Q 1109 3363 987 2797 
Q 866 2231 866 1616 
Q 866 947 969 400 
Q 1050 -31 1165 -292 
Q 1281 -553 1476 -793 
Q 1672 -1034 1988 -1253 
z
" transform="scale(0.015625)"/>
      <path id="TimesNewRomanPSMT-24" d="M 338 1044 
L 475 1044 
Q 509 616 743 387 
Q 978 159 1444 116 
L 1444 1941 
Q 741 2375 506 2709 
Q 341 2947 341 3288 
Q 341 3672 627 3959 
Q 913 4247 1444 4306 
L 1444 4594 
L 1644 4594 
L 1644 4306 
Q 1900 4291 2075 4247 
Q 2166 4225 2675 4031 
L 2675 3097 
L 2553 3097 
Q 2513 3594 2295 3823 
Q 2078 4053 1644 4097 
L 1644 2509 
Q 2431 1959 2654 1698 
Q 2878 1438 2878 1050 
Q 2878 619 2551 290 
Q 2225 -38 1644 -88 
L 1644 -488 
L 1444 -488 
L 1444 -88 
Q 1150 -75 897 -20 
Q 644 34 338 159 
L 338 1044 
z
M 1444 2641 
L 1444 4094 
Q 1131 4056 979 3895 
Q 828 3734 828 3491 
Q 828 3263 965 3064 
Q 1103 2866 1444 2641 
z
M 1644 116 
Q 1878 156 2003 231 
Q 2178 341 2279 517 
Q 2381 694 2381 894 
Q 2381 1100 2257 1284 
Q 2134 1469 1644 1806 
L 1644 116 
z
" transform="scale(0.015625)"/>
      <path id="TimesNewRomanPSMT-29" d="M 144 4313 
L 144 4444 
Q 619 4209 934 3891 
Q 1381 3434 1625 2820 
Q 1869 2206 1869 1541 
Q 1869 572 1392 -226 
Q 916 -1025 144 -1369 
L 144 -1253 
Q 528 -1038 776 -670 
Q 1025 -303 1145 264 
Q 1266 831 1266 1447 
Q 1266 2113 1163 2663 
Q 1084 3094 967 3353 
Q 850 3613 656 3853 
Q 463 4094 144 4313 
z
" transform="scale(0.015625)"/>
     </defs>
     <use xlink:href="#TimesNewRomanPSMT-53"/>
     <use xlink:href="#TimesNewRomanPSMT-75" transform="translate(55.615234 0)"/>
     <use xlink:href="#TimesNewRomanPSMT-62" transform="translate(105.615234 0)"/>
     <use xlink:href="#TimesNewRomanPSMT-73" transform="translate(155.615234 0)"/>
     <use xlink:href="#TimesNewRomanPSMT-63" transform="translate(194.53125 0)"/>
     <use xlink:href="#TimesNewRomanPSMT-72" transform="translate(238.916016 0)"/>
     <use xlink:href="#TimesNewRomanPSMT-69" transform="translate(272.216797 0)"/>
     <use xlink:href="#TimesNewRomanPSMT-70" transform="translate(300 0)"/>
     <use xlink:href="#TimesNewRomanPSMT-74" transform="translate(350 0)"/>
     <use xlink:href="#TimesNewRomanPSMT-69" transform="translate(377.783203 0)"/>
     <use xlink:href="#TimesNewRomanPSMT-6f" transform="translate(405.566406 0)"/>
     <use xlink:href="#TimesNewRomanPSMT-6e" transform="translate(455.566406 0)"/>
     <use xlink:href="#TimesNewRomanPSMT-20" transform="translate(505.566406 0)"/>
     <use xlink:href="#TimesNewRomanPSMT-52" transform="translate(530.566406 0)"/>
     <use xlink:href="#TimesNewRomanPSMT-65" transform="translate(597.265625 0)"/>
     <use xlink:href="#TimesNewRomanPSMT-76" transform="translate(641.650391 0)"/>
     <use xlink:href="#TimesNewRomanPSMT-65" transform="translate(691.650391 0)"/>
     <use xlink:href="#TimesNewRomanPSMT-6e" transform="translate(736.035156 0)"/>
     <use xlink:href="#TimesNewRomanPSMT-75" transform="translate(786.035156 0)"/>
     <use xlink:href="#TimesNewRomanPSMT-65" transform="translate(836.035156 0)"/>
     <use xlink:href="#TimesNewRomanPSMT-20" transform="translate(880.419922 0)"/>
     <use xlink:href="#TimesNewRomanPSMT-66" transform="translate(905.419922 0)"/>
     <use xlink:href="#TimesNewRomanPSMT-72" transform="translate(938.720703 0)"/>
     <use xlink:href="#TimesNewRomanPSMT-6f" transform="translate(972.021484 0)"/>
     <use xlink:href="#TimesNewRomanPSMT-6d" transform="translate(1022.021484 0)"/>
     <use xlink:href="#TimesNewRomanPSMT-20" transform="translate(1099.804688 0)"/>
     <use xlink:href="#TimesNewRomanPSMT-31" transform="translate(1124.804688 0)"/>
     <use xlink:href="#TimesNewRomanPSMT-39" transform="translate(1174.804688 0)"/>
     <use xlink:href="#TimesNewRomanPSMT-38" transform="translate(1224.804688 0)"/>
     <use xlink:href="#TimesNewRomanPSMT-31" transform="translate(1274.804688 0)"/>
     <use xlink:href="#TimesNewRomanPSMT-20" transform="translate(1324.804688 0)"/>
     <use xlink:href="#TimesNewRomanPSMT-74" transform="translate(1349.804688 0)"/>
     <use xlink:href="#TimesNewRomanPSMT-6f" transform="translate(1377.587891 0)"/>
     <use xlink:href="#TimesNewRomanPSMT-20" transform="translate(1427.587891 0)"/>
     <use xlink:href="#TimesNewRomanPSMT-32" transform="translate(1452.587891 0)"/>
     <use xlink:href="#TimesNewRomanPSMT-30" transform="translate(1502.587891 0)"/>
     <use xlink:href="#TimesNewRomanPSMT-30" transform="translate(1552.587891 0)"/>
     <use xlink:href="#TimesNewRomanPSMT-32" transform="translate(1602.587891 0)"/>
     <use xlink:href="#TimesNewRomanPSMT-20" transform="translate(1652.587891 0)"/>
     <use xlink:href="#TimesNewRomanPSMT-28" transform="translate(1677.587891 0)"/>
     <use xlink:href="#TimesNewRomanPSMT-24" transform="translate(1710.888672 0)"/>
     <use xlink:href="#TimesNewRomanPSMT-29" transform="translate(1760.888672 0)"/>
     <use xlink:href="#TimesNewRomanPSMT-20" transform="translate(1794.189453 0)"/>
    </g>
   </g>
   <g id="legend_1">
    <g id="patch_7">
     <path d="M 415.667927 164.140781 
L 435.667927 164.140781 
L 435.667927 157.140781 
L 415.667927 157.140781 
z
" style="fill: #1f77b4"/>
    </g>
    <g id="text_14">
     <!-- Starburst Online -->
     <g transform="translate(443.667927 164.140781) scale(0.1 -0.1)">
      <defs>
       <path id="TimesNewRomanPSMT-4f" d="M 2341 4334 
Q 3166 4334 3770 3707 
Q 4375 3081 4375 2144 
Q 4375 1178 3765 540 
Q 3156 -97 2291 -97 
Q 1416 -97 820 525 
Q 225 1147 225 2134 
Q 225 3144 913 3781 
Q 1509 4334 2341 4334 
z
M 2281 4106 
Q 1713 4106 1369 3684 
Q 941 3159 941 2147 
Q 941 1109 1384 550 
Q 1725 125 2284 125 
Q 2881 125 3270 590 
Q 3659 1056 3659 2059 
Q 3659 3147 3231 3681 
Q 2888 4106 2281 4106 
z
" transform="scale(0.015625)"/>
       <path id="TimesNewRomanPSMT-6c" d="M 1184 4444 
L 1184 647 
Q 1184 378 1223 290 
Q 1263 203 1344 158 
Q 1425 113 1647 113 
L 1647 0 
L 244 0 
L 244 113 
Q 441 113 512 153 
Q 584 194 625 287 
Q 666 381 666 647 
L 666 3247 
Q 666 3731 644 3842 
Q 622 3953 573 3993 
Q 525 4034 450 4034 
Q 369 4034 244 3984 
L 191 4094 
L 1044 4444 
L 1184 4444 
z
" transform="scale(0.015625)"/>
      </defs>
      <use xlink:href="#TimesNewRomanPSMT-53"/>
      <use xlink:href="#TimesNewRomanPSMT-74" transform="translate(55.615234 0)"/>
      <use xlink:href="#TimesNewRomanPSMT-61" transform="translate(83.398438 0)"/>
      <use xlink:href="#TimesNewRomanPSMT-72" transform="translate(127.783203 0)"/>
      <use xlink:href="#TimesNewRomanPSMT-62" transform="translate(161.083984 0)"/>
      <use xlink:href="#TimesNewRomanPSMT-75" transform="translate(211.083984 0)"/>
      <use xlink:href="#TimesNewRomanPSMT-72" transform="translate(261.083984 0)"/>
      <use xlink:href="#TimesNewRomanPSMT-73" transform="translate(294.384766 0)"/>
      <use xlink:href="#TimesNewRomanPSMT-74" transform="translate(333.300781 0)"/>
      <use xlink:href="#TimesNewRomanPSMT-20" transform="translate(361.083984 0)"/>
      <use xlink:href="#TimesNewRomanPSMT-4f" transform="translate(386.083984 0)"/>
      <use xlink:href="#TimesNewRomanPSMT-6e" transform="translate(458.300781 0)"/>
      <use xlink:href="#TimesNewRomanPSMT-6c" transform="translate(508.300781 0)"/>
      <use xlink:href="#TimesNewRomanPSMT-69" transform="translate(536.083984 0)"/>
      <use xlink:href="#TimesNewRomanPSMT-6e" transform="translate(563.867188 0)"/>
      <use xlink:href="#TimesNewRomanPSMT-65" transform="translate(613.867188 0)"/>
     </g>
    </g>
    <g id="patch_8">
     <path d="M 415.667927 178.279844 
L 435.667927 178.279844 
L 435.667927 171.279844 
L 415.667927 171.279844 
z
" style="fill: #aec7e8"/>
    </g>
    <g id="text_15">
     <!-- AetherNet -->
     <g transform="translate(443.667927 178.279844) scale(0.1 -0.1)">
      <defs>
       <path id="TimesNewRomanPSMT-41" d="M 2928 1419 
L 1288 1419 
L 1000 750 
Q 894 503 894 381 
Q 894 284 986 211 
Q 1078 138 1384 116 
L 1384 0 
L 50 0 
L 50 116 
Q 316 163 394 238 
Q 553 388 747 847 
L 2238 4334 
L 2347 4334 
L 3822 809 
Q 4000 384 4145 257 
Q 4291 131 4550 116 
L 4550 0 
L 2878 0 
L 2878 116 
Q 3131 128 3220 200 
Q 3309 272 3309 375 
Q 3309 513 3184 809 
L 2928 1419 
z
M 2841 1650 
L 2122 3363 
L 1384 1650 
L 2841 1650 
z
" transform="scale(0.015625)"/>
       <path id="TimesNewRomanPSMT-68" d="M 1041 4444 
L 1041 2350 
Q 1388 2731 1591 2839 
Q 1794 2947 1997 2947 
Q 2241 2947 2416 2812 
Q 2591 2678 2675 2391 
Q 2734 2191 2734 1659 
L 2734 647 
Q 2734 375 2778 275 
Q 2809 200 2884 156 
Q 2959 113 3159 113 
L 3159 0 
L 1753 0 
L 1753 113 
L 1819 113 
Q 2019 113 2097 173 
Q 2175 234 2206 353 
Q 2216 403 2216 647 
L 2216 1659 
Q 2216 2128 2167 2275 
Q 2119 2422 2012 2495 
Q 1906 2569 1756 2569 
Q 1603 2569 1437 2487 
Q 1272 2406 1041 2159 
L 1041 647 
Q 1041 353 1073 281 
Q 1106 209 1195 161 
Q 1284 113 1503 113 
L 1503 0 
L 84 0 
L 84 113 
Q 275 113 384 172 
Q 447 203 484 290 
Q 522 378 522 647 
L 522 3238 
Q 522 3728 498 3840 
Q 475 3953 426 3993 
Q 378 4034 297 4034 
Q 231 4034 84 3984 
L 41 4094 
L 897 4444 
L 1041 4444 
z
" transform="scale(0.015625)"/>
       <path id="TimesNewRomanPSMT-4e" d="M -84 4238 
L 1066 4238 
L 3656 1059 
L 3656 3503 
Q 3656 3894 3569 3991 
Q 3453 4122 3203 4122 
L 3056 4122 
L 3056 4238 
L 4531 4238 
L 4531 4122 
L 4381 4122 
Q 4113 4122 4000 3959 
Q 3931 3859 3931 3503 
L 3931 -69 
L 3819 -69 
L 1025 3344 
L 1025 734 
Q 1025 344 1109 247 
Q 1228 116 1475 116 
L 1625 116 
L 1625 0 
L 150 0 
L 150 116 
L 297 116 
Q 569 116 681 278 
Q 750 378 750 734 
L 750 3681 
Q 566 3897 470 3965 
Q 375 4034 191 4094 
Q 100 4122 -84 4122 
L -84 4238 
z
" transform="scale(0.015625)"/>
      </defs>
      <use xlink:href="#TimesNewRomanPSMT-41"/>
      <use xlink:href="#TimesNewRomanPSMT-65" transform="translate(72.216797 0)"/>
      <use xlink:href="#TimesNewRomanPSMT-74" transform="translate(116.601562 0)"/>
      <use xlink:href="#TimesNewRomanPSMT-68" transform="translate(144.384766 0)"/>
      <use xlink:href="#TimesNewRomanPSMT-65" transform="translate(194.384766 0)"/>
      <use xlink:href="#TimesNewRomanPSMT-72" transform="translate(238.769531 0)"/>
      <use xlink:href="#TimesNewRomanPSMT-4e" transform="translate(272.070312 0)"/>
      <use xlink:href="#TimesNewRomanPSMT-65" transform="translate(344.287109 0)"/>
      <use xlink:href="#TimesNewRomanPSMT-74" transform="translate(388.671875 0)"/>
     </g>
    </g>
    <g id="patch_9">
     <path d="M 415.667927 192.418906 
L 435.667927 192.418906 
L 435.667927 185.418906 
L 415.667927 185.418906 
z
" style="fill: #ff7f0e"/>
    </g>
    <g id="text_16">
     <!-- EchoWave -->
     <g transform="translate(443.667927 192.418906) scale(0.1 -0.1)">
      <defs>
       <path id="TimesNewRomanPSMT-45" d="M 1338 4006 
L 1338 2331 
L 2269 2331 
Q 2631 2331 2753 2441 
Q 2916 2584 2934 2947 
L 3050 2947 
L 3050 1472 
L 2934 1472 
Q 2891 1781 2847 1869 
Q 2791 1978 2662 2040 
Q 2534 2103 2269 2103 
L 1338 2103 
L 1338 706 
Q 1338 425 1363 364 
Q 1388 303 1450 267 
Q 1513 231 1688 231 
L 2406 231 
Q 2766 231 2928 281 
Q 3091 331 3241 478 
Q 3434 672 3638 1063 
L 3763 1063 
L 3397 0 
L 131 0 
L 131 116 
L 281 116 
Q 431 116 566 188 
Q 666 238 702 338 
Q 738 438 738 747 
L 738 3500 
Q 738 3903 656 3997 
Q 544 4122 281 4122 
L 131 4122 
L 131 4238 
L 3397 4238 
L 3444 3309 
L 3322 3309 
Q 3256 3644 3176 3769 
Q 3097 3894 2941 3959 
Q 2816 4006 2500 4006 
L 1338 4006 
z
" transform="scale(0.015625)"/>
       <path id="TimesNewRomanPSMT-57" d="M 5991 4238 
L 5991 4122 
Q 5825 4122 5722 4062 
Q 5619 4003 5525 3841 
Q 5463 3731 5328 3319 
L 4147 -97 
L 4022 -97 
L 3056 2613 
L 2097 -97 
L 1984 -97 
L 725 3422 
Q 584 3816 547 3888 
Q 484 4006 376 4064 
Q 269 4122 84 4122 
L 84 4238 
L 1653 4238 
L 1653 4122 
L 1578 4122 
Q 1413 4122 1325 4047 
Q 1238 3972 1238 3866 
Q 1238 3756 1375 3363 
L 2209 984 
L 2913 3006 
L 2788 3363 
L 2688 3647 
Q 2622 3803 2541 3922 
Q 2500 3981 2441 4022 
Q 2363 4078 2284 4103 
Q 2225 4122 2097 4122 
L 2097 4238 
L 3747 4238 
L 3747 4122 
L 3634 4122 
Q 3459 4122 3378 4047 
Q 3297 3972 3297 3844 
Q 3297 3684 3438 3288 
L 4250 984 
L 5056 3319 
Q 5194 3706 5194 3856 
Q 5194 3928 5148 3990 
Q 5103 4053 5034 4078 
Q 4916 4122 4725 4122 
L 4725 4238 
L 5991 4238 
z
" transform="scale(0.015625)"/>
      </defs>
      <use xlink:href="#TimesNewRomanPSMT-45"/>
      <use xlink:href="#TimesNewRomanPSMT-63" transform="translate(61.083984 0)"/>
      <use xlink:href="#TimesNewRomanPSMT-68" transform="translate(105.46875 0)"/>
      <use xlink:href="#TimesNewRomanPSMT-6f" transform="translate(155.46875 0)"/>
      <use xlink:href="#TimesNewRomanPSMT-57" transform="translate(205.46875 0)"/>
      <use xlink:href="#TimesNewRomanPSMT-61" transform="translate(291.853516 0)"/>
      <use xlink:href="#TimesNewRomanPSMT-76" transform="translate(336.238281 0)"/>
      <use xlink:href="#TimesNewRomanPSMT-65" transform="translate(386.238281 0)"/>
     </g>
    </g>
   </g>
  </g>
 </g>
 <defs>
  <clipPath id="p91dbf79983">
   <rect x="10.091927" y="37.249375" width="388.8" height="277.2"/>
  </clipPath>
 </defs>
</svg>
