<?xml version="1.0" encoding="utf-8" standalone="no"?>
<!DOCTYPE svg PUBLIC "-//W3C//DTD SVG 1.1//EN"
  "http://www.w3.org/Graphics/SVG/1.1/DTD/svg11.dtd">
<svg xmlns:xlink="http://www.w3.org/1999/xlink" width="539.027302pt" height="363.785279pt" viewBox="0 0 539.027302 363.785279" xmlns="http://www.w3.org/2000/svg" version="1.1">
 <metadata>
  <rdf:RDF xmlns:dc="http://purl.org/dc/elements/1.1/" xmlns:cc="http://creativecommons.org/ns#" xmlns:rdf="http://www.w3.org/1999/02/22-rdf-syntax-ns#">
   <cc:Work>
    <dc:type rdf:resource="http://purl.org/dc/dcmitype/StillImage"/>
    <dc:date>2025-05-30T23:35:53.249897</dc:date>
    <dc:format>image/svg+xml</dc:format>
    <dc:creator>
     <cc:Agent>
      <dc:title>Matplotlib v3.10.3, https://matplotlib.org/</dc:title>
     </cc:Agent>
    </dc:creator>
   </cc:Work>
  </rdf:RDF>
 </metadata>
 <defs>
  <style type="text/css">*{stroke-linejoin: round; stroke-linecap: butt}</style>
 </defs>
 <g id="figure_1">
  <g id="patch_1">
   <path d="M 0 363.785279 
L 539.027302 363.785279 
L 539.027302 0 
L 0 0 
z
" style="fill: #ffffff"/>
  </g>
  <g id="axes_1">
   <g id="patch_2">
    <path d="M 10.091927 314.12125 
L 398.891927 314.12125 
L 398.891927 36.92125 
L 10.091927 36.92125 
z
" style="fill: #ffffff"/>
   </g>
   <g id="FillBetweenPolyCollection_1">
    <path d="M 27.764654 203.580268 
L 27.764654 259.778896 
L 29.634784 261.649756 
L 31.504914 263.28311 
L 33.375044 264.689262 
L 35.245173 265.878516 
L 37.115303 266.861176 
L 38.985433 267.647546 
L 40.855563 268.24793 
L 42.725693 268.672633 
L 44.595823 268.931958 
L 46.465953 269.036209 
L 48.336083 268.995691 
L 50.206212 268.820708 
L 52.076342 268.521562 
L 53.946472 268.10856 
L 55.816602 267.592004 
L 57.686732 266.982198 
L 59.556862 266.289447 
L 61.426992 265.524055 
L 63.297121 264.696326 
L 65.167251 263.816564 
L 67.037381 262.895073 
L 68.907511 261.942921 
L 70.777641 260.974239 
L 72.647771 260.003922 
L 74.517901 259.046864 
L 76.388031 258.117959 
L 78.25816 257.232103 
L 80.12829 256.40419 
L 81.99842 255.649114 
L 83.86855 254.981772 
L 85.73868 254.417056 
L 87.60881 253.969435 
L 89.47894 253.643542 
L 91.34907 253.43418 
L 93.219199 253.335722 
L 95.089329 253.342542 
L 96.959459 253.449014 
L 98.829589 253.649512 
L 100.699719 253.938411 
L 102.569849 254.310083 
L 104.439979 254.758903 
L 106.310108 255.279245 
L 108.180238 255.865345 
L 110.050368 256.510888 
L 111.920498 257.20942 
L 113.790628 257.954488 
L 115.660758 258.739639 
L 117.530888 259.55842 
L 119.401018 260.404377 
L 121.271147 261.271057 
L 123.141277 262.152007 
L 125.011407 263.040774 
L 126.881537 263.930888 
L 128.751667 264.815524 
L 130.621797 265.687499 
L 132.491927 266.539615 
L 134.362057 267.364672 
L 136.232186 268.155472 
L 138.102316 268.904817 
L 139.972446 269.605508 
L 141.842576 270.250347 
L 143.712706 270.832134 
L 145.582836 271.343671 
L 147.452966 271.77872 
L 149.323095 272.13488 
L 151.193225 272.41071 
L 153.063355 272.604769 
L 154.933485 272.715617 
L 156.803615 272.741812 
L 158.673745 272.681914 
L 160.543875 272.534483 
L 162.414005 272.298077 
L 164.284134 271.971255 
L 166.154264 271.552989 
L 168.024394 271.05172 
L 169.894524 270.485357 
L 171.764654 269.872223 
L 173.634784 269.23064 
L 175.504914 268.578931 
L 177.375044 267.935418 
L 179.245173 267.318424 
L 181.115303 266.746269 
L 182.985433 266.237278 
L 184.855563 265.809772 
L 186.725693 265.478392 
L 188.595823 265.243057 
L 190.465953 265.100005 
L 192.336083 265.045472 
L 194.206212 265.075696 
L 196.076342 265.186914 
L 197.946472 265.375364 
L 199.816602 265.637283 
L 201.686732 265.968909 
L 203.556862 266.366478 
L 205.426992 266.826243 
L 207.297121 267.344792 
L 209.167251 267.919046 
L 211.037381 268.545942 
L 212.907511 269.222418 
L 214.777641 269.945411 
L 216.647771 270.711857 
L 218.517901 271.518693 
L 220.388031 272.362857 
L 222.25816 273.241286 
L 224.12829 274.150916 
L 225.99842 275.086179 
L 227.86855 276.031483 
L 229.73868 276.968729 
L 231.60881 277.879821 
L 233.47894 278.746659 
L 235.34907 279.551146 
L 237.219199 280.275184 
L 239.089329 280.900675 
L 240.959459 281.409522 
L 242.829589 281.783626 
L 244.699719 282.005689 
L 246.569849 282.076822 
L 248.439979 282.016542 
L 250.310108 281.845167 
L 252.180238 281.583014 
L 254.050368 281.250402 
L 255.920498 280.867648 
L 257.790628 280.455069 
L 259.660758 280.032984 
L 261.530888 279.621711 
L 263.401018 279.241566 
L 265.271147 278.907702 
L 267.141277 278.614603 
L 269.011407 278.351588 
L 270.881537 278.107975 
L 272.751667 277.873082 
L 274.621797 277.636227 
L 276.491927 277.38673 
L 278.362057 277.113907 
L 280.232186 276.807079 
L 282.102316 276.455562 
L 283.972446 276.049332 
L 285.842576 275.593451 
L 287.712706 275.108071 
L 289.582836 274.614 
L 291.452966 274.132046 
L 293.323095 273.683015 
L 295.193225 273.287715 
L 297.063355 272.966955 
L 298.933485 272.741542 
L 300.803615 272.632283 
L 302.673745 272.659987 
L 304.543875 272.840483 
L 306.414005 273.169691 
L 308.284134 273.638552 
L 310.154264 274.23801 
L 312.024394 274.959006 
L 313.894524 275.792482 
L 315.764654 276.72938 
L 317.634784 277.760643 
L 319.504914 278.877212 
L 321.375044 280.070029 
L 323.245173 281.329539 
L 325.115303 282.634732 
L 326.985433 283.953147 
L 328.855563 285.251824 
L 330.725693 286.497802 
L 332.595823 287.658122 
L 334.465953 288.699824 
L 336.336083 289.589948 
L 338.206212 290.295533 
L 340.076342 290.783621 
L 341.946472 291.02125 
L 343.816602 290.987138 
L 345.686732 290.706706 
L 347.556862 290.217053 
L 349.426992 289.555276 
L 351.297121 288.758475 
L 353.167251 287.863747 
L 355.037381 286.908192 
L 356.907511 285.928906 
L 358.777641 284.962989 
L 360.647771 284.047538 
L 362.517901 283.219653 
L 364.388031 282.516431 
L 366.25816 281.974971 
L 368.12829 281.63237 
L 369.99842 281.525728 
L 371.86855 281.692143 
L 373.73868 282.168712 
L 375.60881 282.992535 
L 377.47894 284.200709 
L 379.34907 285.830333 
L 381.219199 287.918505 
L 381.219199 241.122134 
L 381.219199 241.122134 
L 379.34907 237.50393 
L 377.47894 234.323413 
L 375.60881 231.555605 
L 373.73868 229.175531 
L 371.86855 227.158214 
L 369.99842 225.478678 
L 368.12829 224.111946 
L 366.25816 223.033042 
L 364.388031 222.21699 
L 362.517901 221.638813 
L 360.647771 221.273536 
L 358.777641 221.096181 
L 356.907511 221.081773 
L 355.037381 221.205334 
L 353.167251 221.44189 
L 351.297121 221.766462 
L 349.426992 222.154076 
L 347.556862 222.579754 
L 345.686732 223.018521 
L 343.816602 223.4454 
L 341.946472 223.835414 
L 340.076342 224.170336 
L 338.206212 224.458931 
L 336.336083 224.71671 
L 334.465953 224.959187 
L 332.595823 225.201875 
L 330.725693 225.460287 
L 328.855563 225.749935 
L 326.985433 226.086333 
L 325.115303 226.484992 
L 323.245173 226.961427 
L 321.375044 227.530399 
L 319.504914 228.189374 
L 317.634784 228.918531 
L 315.764654 229.697292 
L 313.894524 230.505083 
L 312.024394 231.321327 
L 310.154264 232.125448 
L 308.284134 232.896871 
L 306.414005 233.615019 
L 304.543875 234.259318 
L 302.673745 234.80919 
L 300.803615 235.24601 
L 298.933485 235.558945 
L 297.063355 235.73911 
L 295.193225 235.777623 
L 293.323095 235.6656 
L 291.452966 235.394157 
L 289.582836 234.95441 
L 287.712706 234.337476 
L 285.842576 233.534472 
L 283.972446 232.536513 
L 282.102316 231.335778 
L 280.232186 229.948847 
L 278.362057 228.416709 
L 276.491927 226.781409 
L 274.621797 225.084997 
L 272.751667 223.369519 
L 270.881537 221.677023 
L 269.011407 220.049557 
L 267.141277 218.529169 
L 265.271147 217.157905 
L 263.401018 215.977815 
L 261.530888 215.020696 
L 259.660758 214.277351 
L 257.790628 213.728336 
L 255.920498 213.354204 
L 254.050368 213.13551 
L 252.180238 213.052807 
L 250.310108 213.086651 
L 248.439979 213.217596 
L 246.569849 213.426195 
L 244.699719 213.693003 
L 242.829589 213.999003 
L 240.959459 214.335003 
L 239.089329 214.701643 
L 237.219199 215.099987 
L 235.34907 215.531102 
L 233.47894 215.996053 
L 231.60881 216.495906 
L 229.73868 217.031727 
L 227.86855 217.60458 
L 225.99842 218.215533 
L 224.12829 218.865651 
L 222.25816 219.55241 
L 220.388031 220.258939 
L 218.517901 220.964776 
L 216.647771 221.64946 
L 214.777641 222.29253 
L 212.907511 222.873525 
L 211.037381 223.371984 
L 209.167251 223.767445 
L 207.297121 224.039448 
L 205.426992 224.167531 
L 203.556862 224.131998 
L 201.686732 223.930703 
L 199.816602 223.579057 
L 197.946472 223.093235 
L 196.076342 222.48941 
L 194.206212 221.783756 
L 192.336083 220.992447 
L 190.465953 220.131655 
L 188.595823 219.217557 
L 186.725693 218.266324 
L 184.855563 217.294131 
L 182.985433 216.315402 
L 181.115303 215.337569 
L 179.245173 214.366313 
L 177.375044 213.407314 
L 175.504914 212.466256 
L 173.634784 211.54882 
L 171.764654 210.660686 
L 169.894524 209.807538 
L 168.024394 208.995056 
L 166.154264 208.228922 
L 164.284134 207.514855 
L 162.414005 206.859428 
L 160.543875 206.270068 
L 158.673745 205.754242 
L 156.803615 205.319413 
L 154.933485 204.973047 
L 153.063355 204.722608 
L 151.193225 204.575561 
L 149.323095 204.539372 
L 147.452966 204.621505 
L 145.582836 204.829425 
L 143.712706 205.166667 
L 141.842576 205.621043 
L 139.972446 206.176435 
L 138.102316 206.816724 
L 136.232186 207.525794 
L 134.362057 208.287526 
L 132.491927 209.085801 
L 130.621797 209.904502 
L 128.751667 210.727512 
L 126.881537 211.538711 
L 125.011407 212.322068 
L 123.141277 213.063532 
L 121.271147 213.751034 
L 119.401018 214.372589 
L 117.530888 214.916214 
L 115.660758 215.369927 
L 113.790628 215.721742 
L 111.920498 215.959676 
L 110.050368 216.071747 
L 108.180238 216.045969 
L 106.310108 215.87036 
L 104.439979 215.537893 
L 102.569849 215.061368 
L 100.699719 214.458542 
L 98.829589 213.747171 
L 96.959459 212.945013 
L 95.089329 212.069824 
L 93.219199 211.139362 
L 91.34907 210.171383 
L 89.47894 209.183644 
L 87.60881 208.193902 
L 85.73868 207.21969 
L 83.86855 206.273361 
L 81.99842 205.362094 
L 80.12829 204.492843 
L 78.25816 203.672561 
L 76.388031 202.908201 
L 74.517901 202.206716 
L 72.647771 201.57506 
L 70.777641 201.020185 
L 68.907511 200.549045 
L 67.037381 200.168593 
L 65.167251 199.883421 
L 63.297121 199.688681 
L 61.426992 199.57716 
L 59.556862 199.541649 
L 57.686732 199.574937 
L 55.816602 199.669812 
L 53.946472 199.819065 
L 52.076342 200.015485 
L 50.206212 200.251861 
L 48.336083 200.520982 
L 46.465953 200.815638 
L 44.595823 201.128619 
L 42.725693 201.452712 
L 40.855563 201.780709 
L 38.985433 202.105397 
L 37.115303 202.419568 
L 35.245173 202.716009 
L 33.375044 202.98751 
L 31.504914 203.226861 
L 29.634784 203.426851 
L 27.764654 203.580268 
z
" clip-path="url(#p3c67e51ff9)" style="fill: #1f77b4"/>
   </g>
   <g id="FillBetweenPolyCollection_2">
    <path d="M 27.764654 145.232554 
L 27.764654 203.580268 
L 29.634784 203.426851 
L 31.504914 203.226861 
L 33.375044 202.98751 
L 35.245173 202.716009 
L 37.115303 202.419568 
L 38.985433 202.105397 
L 40.855563 201.780709 
L 42.725693 201.452712 
L 44.595823 201.128619 
L 46.465953 200.815638 
L 48.336083 200.520982 
L 50.206212 200.251861 
L 52.076342 200.015485 
L 53.946472 199.819065 
L 55.816602 199.669812 
L 57.686732 199.574937 
L 59.556862 199.541649 
L 61.426992 199.57716 
L 63.297121 199.688681 
L 65.167251 199.883421 
L 67.037381 200.168593 
L 68.907511 200.549045 
L 70.777641 201.020185 
L 72.647771 201.57506 
L 74.517901 202.206716 
L 76.388031 202.908201 
L 78.25816 203.672561 
L 80.12829 204.492843 
L 81.99842 205.362094 
L 83.86855 206.273361 
L 85.73868 207.21969 
L 87.60881 208.193902 
L 89.47894 209.183644 
L 91.34907 210.171383 
L 93.219199 211.139362 
L 95.089329 212.069824 
L 96.959459 212.945013 
L 98.829589 213.747171 
L 100.699719 214.458542 
L 102.569849 215.061368 
L 104.439979 215.537893 
L 106.310108 215.87036 
L 108.180238 216.045969 
L 110.050368 216.071747 
L 111.920498 215.959676 
L 113.790628 215.721742 
L 115.660758 215.369927 
L 117.530888 214.916214 
L 119.401018 214.372589 
L 121.271147 213.751034 
L 123.141277 213.063532 
L 125.011407 212.322068 
L 126.881537 211.538711 
L 128.751667 210.727512 
L 130.621797 209.904502 
L 132.491927 209.085801 
L 134.362057 208.287526 
L 136.232186 207.525794 
L 138.102316 206.816724 
L 139.972446 206.176435 
L 141.842576 205.621043 
L 143.712706 205.166667 
L 145.582836 204.829425 
L 147.452966 204.621505 
L 149.323095 204.539372 
L 151.193225 204.575561 
L 153.063355 204.722608 
L 154.933485 204.973047 
L 156.803615 205.319413 
L 158.673745 205.754242 
L 160.543875 206.270068 
L 162.414005 206.859428 
L 164.284134 207.514855 
L 166.154264 208.228922 
L 168.024394 208.995056 
L 169.894524 209.807538 
L 171.764654 210.660686 
L 173.634784 211.54882 
L 175.504914 212.466256 
L 177.375044 213.407314 
L 179.245173 214.366313 
L 181.115303 215.337569 
L 182.985433 216.315402 
L 184.855563 217.294131 
L 186.725693 218.266324 
L 188.595823 219.217557 
L 190.465953 220.131655 
L 192.336083 220.992447 
L 194.206212 221.783756 
L 196.076342 222.48941 
L 197.946472 223.093235 
L 199.816602 223.579057 
L 201.686732 223.930703 
L 203.556862 224.131998 
L 205.426992 224.167531 
L 207.297121 224.039448 
L 209.167251 223.767445 
L 211.037381 223.371984 
L 212.907511 222.873525 
L 214.777641 222.29253 
L 216.647771 221.64946 
L 218.517901 220.964776 
L 220.388031 220.258939 
L 222.25816 219.55241 
L 224.12829 218.865651 
L 225.99842 218.215533 
L 227.86855 217.60458 
L 229.73868 217.031727 
L 231.60881 216.495906 
L 233.47894 215.996053 
L 235.34907 215.531102 
L 237.219199 215.099987 
L 239.089329 214.701643 
L 240.959459 214.335003 
L 242.829589 213.999003 
L 244.699719 213.693003 
L 246.569849 213.426195 
L 248.439979 213.217596 
L 250.310108 213.086651 
L 252.180238 213.052807 
L 254.050368 213.13551 
L 255.920498 213.354204 
L 257.790628 213.728336 
L 259.660758 214.277351 
L 261.530888 215.020696 
L 263.401018 215.977815 
L 265.271147 217.157905 
L 267.141277 218.529169 
L 269.011407 220.049557 
L 270.881537 221.677023 
L 272.751667 223.369519 
L 274.621797 225.084997 
L 276.491927 226.781409 
L 278.362057 228.416709 
L 280.232186 229.948847 
L 282.102316 231.335778 
L 283.972446 232.536513 
L 285.842576 233.534472 
L 287.712706 234.337476 
L 289.582836 234.95441 
L 291.452966 235.394157 
L 293.323095 235.6656 
L 295.193225 235.777623 
L 297.063355 235.73911 
L 298.933485 235.558945 
L 300.803615 235.24601 
L 302.673745 234.80919 
L 304.543875 234.259318 
L 306.414005 233.615019 
L 308.284134 232.896871 
L 310.154264 232.125448 
L 312.024394 231.321327 
L 313.894524 230.505083 
L 315.764654 229.697292 
L 317.634784 228.918531 
L 319.504914 228.189374 
L 321.375044 227.530399 
L 323.245173 226.961427 
L 325.115303 226.484992 
L 326.985433 226.086333 
L 328.855563 225.749935 
L 330.725693 225.460287 
L 332.595823 225.201875 
L 334.465953 224.959187 
L 336.336083 224.71671 
L 338.206212 224.458931 
L 340.076342 224.170336 
L 341.946472 223.835414 
L 343.816602 223.4454 
L 345.686732 223.018521 
L 347.556862 222.579754 
L 349.426992 222.154076 
L 351.297121 221.766462 
L 353.167251 221.44189 
L 355.037381 221.205334 
L 356.907511 221.081773 
L 358.777641 221.096181 
L 360.647771 221.273536 
L 362.517901 221.638813 
L 364.388031 222.21699 
L 366.25816 223.033042 
L 368.12829 224.111946 
L 369.99842 225.478678 
L 371.86855 227.158214 
L 373.73868 229.175531 
L 375.60881 231.555605 
L 377.47894 234.323413 
L 379.34907 237.50393 
L 381.219199 241.122134 
L 381.219199 152.418564 
L 381.219199 152.418564 
L 379.34907 152.807198 
L 377.47894 152.855613 
L 375.60881 152.600071 
L 373.73868 152.076832 
L 371.86855 151.322159 
L 369.99842 150.372312 
L 368.12829 149.263553 
L 366.25816 148.032143 
L 364.388031 146.714344 
L 362.517901 145.346416 
L 360.647771 143.964623 
L 358.777641 142.605223 
L 356.907511 141.30448 
L 355.037381 140.098655 
L 353.167251 139.024008 
L 351.297121 138.116802 
L 349.426992 137.413297 
L 347.556862 136.949755 
L 345.686732 136.762438 
L 343.816602 136.887607 
L 341.946472 137.361522 
L 340.076342 138.203364 
L 338.206212 139.363986 
L 336.336083 140.777157 
L 334.465953 142.376648 
L 332.595823 144.09623 
L 330.725693 145.869673 
L 328.855563 147.630749 
L 326.985433 149.313227 
L 325.115303 150.850878 
L 323.245173 152.177472 
L 321.375044 153.228891 
L 319.504914 153.989545 
L 317.634784 154.492374 
L 315.764654 154.772428 
L 313.894524 154.86476 
L 312.024394 154.804418 
L 310.154264 154.626453 
L 308.284134 154.365917 
L 306.414005 154.057859 
L 304.543875 153.73733 
L 302.673745 153.43938 
L 300.803615 153.191971 
L 298.933485 152.994704 
L 297.063355 152.84009 
L 295.193225 152.720642 
L 293.323095 152.628872 
L 291.452966 152.557291 
L 289.582836 152.498412 
L 287.712706 152.444745 
L 285.842576 152.388804 
L 283.972446 152.323099 
L 282.102316 152.239935 
L 280.232186 152.126822 
L 278.362057 151.966479 
L 276.491927 151.741416 
L 274.621797 151.434143 
L 272.751667 151.02717 
L 270.881537 150.503008 
L 269.011407 149.844166 
L 267.141277 149.033154 
L 265.271147 148.052484 
L 263.401018 146.884664 
L 261.530888 145.526045 
L 259.660758 144.028329 
L 257.790628 142.45706 
L 255.920498 140.877782 
L 254.050368 139.356037 
L 252.180238 137.957368 
L 250.310108 136.747318 
L 248.439979 135.791431 
L 246.569849 135.155249 
L 244.699719 134.904315 
L 242.829589 135.101357 
L 240.959459 135.744312 
L 239.089329 136.766334 
L 237.219199 138.097758 
L 235.34907 139.66892 
L 233.47894 141.410155 
L 231.60881 143.251799 
L 229.73868 145.124189 
L 227.86855 146.957658 
L 225.99842 148.682544 
L 224.12829 150.229181 
L 222.25816 151.543058 
L 220.388031 152.630271 
L 218.517901 153.51207 
L 216.647771 154.209703 
L 214.777641 154.744419 
L 212.907511 155.137468 
L 211.037381 155.410097 
L 209.167251 155.583557 
L 207.297121 155.679096 
L 205.426992 155.717963 
L 203.556862 155.720761 
L 201.686732 155.693234 
L 199.816602 155.626265 
L 197.946472 155.510092 
L 196.076342 155.334953 
L 194.206212 155.091086 
L 192.336083 154.768728 
L 190.465953 154.358119 
L 188.595823 153.849495 
L 186.725693 153.233094 
L 184.855563 152.499154 
L 182.985433 151.643819 
L 181.115303 150.686848 
L 179.245173 149.65391 
L 177.375044 148.570669 
L 175.504914 147.462794 
L 173.634784 146.355949 
L 171.764654 145.275801 
L 169.894524 144.248016 
L 168.024394 143.298262 
L 166.154264 142.452204 
L 164.284134 141.734834 
L 162.414005 141.155627 
L 160.543875 140.70854 
L 158.673745 140.386856 
L 156.803615 140.183858 
L 154.933485 140.09283 
L 153.063355 140.107053 
L 151.193225 140.219812 
L 149.323095 140.424389 
L 147.452966 140.714067 
L 145.582836 141.082129 
L 143.712706 141.522285 
L 141.842576 142.029948 
L 139.972446 142.600961 
L 138.102316 143.231165 
L 136.232186 143.916401 
L 134.362057 144.65251 
L 132.491927 145.435333 
L 130.621797 146.260712 
L 128.751667 147.124488 
L 126.881537 148.022501 
L 125.011407 148.950348 
L 123.141277 149.897958 
L 121.271147 150.849594 
L 119.401018 151.789277 
L 117.530888 152.701024 
L 115.660758 153.568853 
L 113.790628 154.376782 
L 111.920498 155.108831 
L 110.050368 155.749017 
L 108.180238 156.281359 
L 106.310108 156.689874 
L 104.439979 156.961814 
L 102.569849 157.097357 
L 100.699719 157.099915 
L 98.829589 156.972898 
L 96.959459 156.719717 
L 95.089329 156.343783 
L 93.219199 155.848507 
L 91.34907 155.2373 
L 89.47894 154.513574 
L 87.60881 153.680739 
L 85.73868 152.742537 
L 83.86855 151.710337 
L 81.99842 150.603131 
L 80.12829 149.440243 
L 78.25816 148.240999 
L 76.388031 147.024721 
L 74.517901 145.810735 
L 72.647771 144.618366 
L 70.777641 143.466937 
L 68.907511 142.375772 
L 67.037381 141.364197 
L 65.167251 140.448566 
L 63.297121 139.633358 
L 61.426992 138.920083 
L 59.556862 138.310251 
L 57.686732 137.80537 
L 55.816602 137.406951 
L 53.946472 137.116502 
L 52.076342 136.935535 
L 50.206212 136.865557 
L 48.336083 136.90808 
L 46.465953 137.064611 
L 44.595823 137.336662 
L 42.725693 137.725742 
L 40.855563 138.233359 
L 38.985433 138.861024 
L 37.115303 139.610247 
L 35.245173 140.482536 
L 33.375044 141.479402 
L 31.504914 142.602353 
L 29.634784 143.852901 
L 27.764654 145.232554 
z
" clip-path="url(#p3c67e51ff9)" style="fill: #aec7e8"/>
   </g>
   <g id="FillBetweenPolyCollection_3">
    <path d="M 27.764654 91.263604 
L 27.764654 145.232554 
L 29.634784 143.852901 
L 31.504914 142.602353 
L 33.375044 141.479402 
L 35.245173 140.482536 
L 37.115303 139.610247 
L 38.985433 138.861024 
L 40.855563 138.233359 
L 42.725693 137.725742 
L 44.595823 137.336662 
L 46.465953 137.064611 
L 48.336083 136.90808 
L 50.206212 136.865557 
L 52.076342 136.935535 
L 53.946472 137.116502 
L 55.816602 137.406951 
L 57.686732 137.80537 
L 59.556862 138.310251 
L 61.426992 138.920083 
L 63.297121 139.633358 
L 65.167251 140.448566 
L 67.037381 141.364197 
L 68.907511 142.375772 
L 70.777641 143.466937 
L 72.647771 144.618366 
L 74.517901 145.810735 
L 76.388031 147.024721 
L 78.25816 148.240999 
L 80.12829 149.440243 
L 81.99842 150.603131 
L 83.86855 151.710337 
L 85.73868 152.742537 
L 87.60881 153.680739 
L 89.47894 154.513574 
L 91.34907 155.2373 
L 93.219199 155.848507 
L 95.089329 156.343783 
L 96.959459 156.719717 
L 98.829589 156.972898 
L 100.699719 157.099915 
L 102.569849 157.097357 
L 104.439979 156.961814 
L 106.310108 156.689874 
L 108.180238 156.281359 
L 110.050368 155.749017 
L 111.920498 155.108831 
L 113.790628 154.376782 
L 115.660758 153.568853 
L 117.530888 152.701024 
L 119.401018 151.789277 
L 121.271147 150.849594 
L 123.141277 149.897958 
L 125.011407 148.950348 
L 126.881537 148.022501 
L 128.751667 147.124488 
L 130.621797 146.260712 
L 132.491927 145.435333 
L 134.362057 144.65251 
L 136.232186 143.916401 
L 138.102316 143.231165 
L 139.972446 142.600961 
L 141.842576 142.029948 
L 143.712706 141.522285 
L 145.582836 141.082129 
L 147.452966 140.714067 
L 149.323095 140.424389 
L 151.193225 140.219812 
L 153.063355 140.107053 
L 154.933485 140.09283 
L 156.803615 140.183858 
L 158.673745 140.386856 
L 160.543875 140.70854 
L 162.414005 141.155627 
L 164.284134 141.734834 
L 166.154264 142.452204 
L 168.024394 143.298262 
L 169.894524 144.248016 
L 171.764654 145.275801 
L 173.634784 146.355949 
L 175.504914 147.462794 
L 177.375044 148.570669 
L 179.245173 149.65391 
L 181.115303 150.686848 
L 182.985433 151.643819 
L 184.855563 152.499154 
L 186.725693 153.233094 
L 188.595823 153.849495 
L 190.465953 154.358119 
L 192.336083 154.768728 
L 194.206212 155.091086 
L 196.076342 155.334953 
L 197.946472 155.510092 
L 199.816602 155.626265 
L 201.686732 155.693234 
L 203.556862 155.720761 
L 205.426992 155.717963 
L 207.297121 155.679096 
L 209.167251 155.583557 
L 211.037381 155.410097 
L 212.907511 155.137468 
L 214.777641 154.744419 
L 216.647771 154.209703 
L 218.517901 153.51207 
L 220.388031 152.630271 
L 222.25816 151.543058 
L 224.12829 150.229181 
L 225.99842 148.682544 
L 227.86855 146.957658 
L 229.73868 145.124189 
L 231.60881 143.251799 
L 233.47894 141.410155 
L 235.34907 139.66892 
L 237.219199 138.097758 
L 239.089329 136.766334 
L 240.959459 135.744312 
L 242.829589 135.101357 
L 244.699719 134.904315 
L 246.569849 135.155249 
L 248.439979 135.791431 
L 250.310108 136.747318 
L 252.180238 137.957368 
L 254.050368 139.356037 
L 255.920498 140.877782 
L 257.790628 142.45706 
L 259.660758 144.028329 
L 261.530888 145.526045 
L 263.401018 146.884664 
L 265.271147 148.052484 
L 267.141277 149.033154 
L 269.011407 149.844166 
L 270.881537 150.503008 
L 272.751667 151.02717 
L 274.621797 151.434143 
L 276.491927 151.741416 
L 278.362057 151.966479 
L 280.232186 152.126822 
L 282.102316 152.239935 
L 283.972446 152.323099 
L 285.842576 152.388804 
L 287.712706 152.444745 
L 289.582836 152.498412 
L 291.452966 152.557291 
L 293.323095 152.628872 
L 295.193225 152.720642 
L 297.063355 152.84009 
L 298.933485 152.994704 
L 300.803615 153.191971 
L 302.673745 153.43938 
L 304.543875 153.73733 
L 306.414005 154.057859 
L 308.284134 154.365917 
L 310.154264 154.626453 
L 312.024394 154.804418 
L 313.894524 154.86476 
L 315.764654 154.772428 
L 317.634784 154.492374 
L 319.504914 153.989545 
L 321.375044 153.228891 
L 323.245173 152.177472 
L 325.115303 150.850878 
L 326.985433 149.313227 
L 328.855563 147.630749 
L 330.725693 145.869673 
L 332.595823 144.09623 
L 334.465953 142.376648 
L 336.336083 140.777157 
L 338.206212 139.363986 
L 340.076342 138.203364 
L 341.946472 137.361522 
L 343.816602 136.887607 
L 345.686732 136.762438 
L 347.556862 136.949755 
L 349.426992 137.413297 
L 351.297121 138.116802 
L 353.167251 139.024008 
L 355.037381 140.098655 
L 356.907511 141.30448 
L 358.777641 142.605223 
L 360.647771 143.964623 
L 362.517901 145.346416 
L 364.388031 146.714344 
L 366.25816 148.032143 
L 368.12829 149.263553 
L 369.99842 150.372312 
L 371.86855 151.322159 
L 373.73868 152.076832 
L 375.60881 152.600071 
L 377.47894 152.855613 
L 379.34907 152.807198 
L 381.219199 152.418564 
L 381.219199 63.123995 
L 381.219199 63.123995 
L 379.34907 65.212167 
L 377.47894 66.841791 
L 375.60881 68.049965 
L 373.73868 68.873788 
L 371.86855 69.350357 
L 369.99842 69.516772 
L 368.12829 69.41013 
L 366.25816 69.067529 
L 364.388031 68.526069 
L 362.517901 67.822847 
L 360.647771 66.994962 
L 358.777641 66.079511 
L 356.907511 65.113594 
L 355.037381 64.134308 
L 353.167251 63.178753 
L 351.297121 62.284025 
L 349.426992 61.487224 
L 347.556862 60.825447 
L 345.686732 60.335794 
L 343.816602 60.055362 
L 341.946472 60.02125 
L 340.076342 60.258879 
L 338.206212 60.746967 
L 336.336083 61.452552 
L 334.465953 62.342676 
L 332.595823 63.384378 
L 330.725693 64.544698 
L 328.855563 65.790676 
L 326.985433 67.089353 
L 325.115303 68.407768 
L 323.245173 69.712961 
L 321.375044 70.972471 
L 319.504914 72.165288 
L 317.634784 73.281857 
L 315.764654 74.31312 
L 313.894524 75.250018 
L 312.024394 76.083494 
L 310.154264 76.80449 
L 308.284134 77.403948 
L 306.414005 77.872809 
L 304.543875 78.202017 
L 302.673745 78.382513 
L 300.803615 78.410217 
L 298.933485 78.300958 
L 297.063355 78.075545 
L 295.193225 77.754785 
L 293.323095 77.359485 
L 291.452966 76.910454 
L 289.582836 76.4285 
L 287.712706 75.934429 
L 285.842576 75.449049 
L 283.972446 74.993168 
L 282.102316 74.586938 
L 280.232186 74.235421 
L 278.362057 73.928593 
L 276.491927 73.65577 
L 274.621797 73.406273 
L 272.751667 73.169418 
L 270.881537 72.934525 
L 269.011407 72.690912 
L 267.141277 72.427897 
L 265.271147 72.134798 
L 263.401018 71.800934 
L 261.530888 71.420789 
L 259.660758 71.009516 
L 257.790628 70.587431 
L 255.920498 70.174852 
L 254.050368 69.792098 
L 252.180238 69.459486 
L 250.310108 69.197333 
L 248.439979 69.025958 
L 246.569849 68.965678 
L 244.699719 69.036811 
L 242.829589 69.258874 
L 240.959459 69.632978 
L 239.089329 70.141825 
L 237.219199 70.767316 
L 235.34907 71.491354 
L 233.47894 72.295841 
L 231.60881 73.162679 
L 229.73868 74.073771 
L 227.86855 75.011017 
L 225.99842 75.956321 
L 224.12829 76.891584 
L 222.25816 77.801214 
L 220.388031 78.679643 
L 218.517901 79.523807 
L 216.647771 80.330643 
L 214.777641 81.097089 
L 212.907511 81.820082 
L 211.037381 82.496558 
L 209.167251 83.123454 
L 207.297121 83.697708 
L 205.426992 84.216257 
L 203.556862 84.676022 
L 201.686732 85.073591 
L 199.816602 85.405217 
L 197.946472 85.667136 
L 196.076342 85.855586 
L 194.206212 85.966804 
L 192.336083 85.997028 
L 190.465953 85.942495 
L 188.595823 85.799443 
L 186.725693 85.564108 
L 184.855563 85.232728 
L 182.985433 84.805222 
L 181.115303 84.296231 
L 179.245173 83.724076 
L 177.375044 83.107082 
L 175.504914 82.463569 
L 173.634784 81.81186 
L 171.764654 81.170277 
L 169.894524 80.557143 
L 168.024394 79.99078 
L 166.154264 79.489511 
L 164.284134 79.071245 
L 162.414005 78.744423 
L 160.543875 78.508017 
L 158.673745 78.360586 
L 156.803615 78.300688 
L 154.933485 78.326883 
L 153.063355 78.437731 
L 151.193225 78.63179 
L 149.323095 78.90762 
L 147.452966 79.26378 
L 145.582836 79.698829 
L 143.712706 80.210366 
L 141.842576 80.792153 
L 139.972446 81.436992 
L 138.102316 82.137683 
L 136.232186 82.887028 
L 134.362057 83.677828 
L 132.491927 84.502885 
L 130.621797 85.355001 
L 128.751667 86.226976 
L 126.881537 87.111612 
L 125.011407 88.001726 
L 123.141277 88.890493 
L 121.271147 89.771443 
L 119.401018 90.638123 
L 117.530888 91.48408 
L 115.660758 92.302861 
L 113.790628 93.088012 
L 111.920498 93.83308 
L 110.050368 94.531612 
L 108.180238 95.177155 
L 106.310108 95.763255 
L 104.439979 96.283597 
L 102.569849 96.732417 
L 100.699719 97.104089 
L 98.829589 97.392988 
L 96.959459 97.593486 
L 95.089329 97.699958 
L 93.219199 97.706778 
L 91.34907 97.60832 
L 89.47894 97.398958 
L 87.60881 97.073065 
L 85.73868 96.625444 
L 83.86855 96.060728 
L 81.99842 95.393386 
L 80.12829 94.63831 
L 78.25816 93.810397 
L 76.388031 92.924541 
L 74.517901 91.995636 
L 72.647771 91.038578 
L 70.777641 90.068261 
L 68.907511 89.099579 
L 67.037381 88.147427 
L 65.167251 87.225936 
L 63.297121 86.346174 
L 61.426992 85.518445 
L 59.556862 84.753053 
L 57.686732 84.060302 
L 55.816602 83.450496 
L 53.946472 82.93394 
L 52.076342 82.520938 
L 50.206212 82.221792 
L 48.336083 82.046809 
L 46.465953 82.006291 
L 44.595823 82.110542 
L 42.725693 82.369867 
L 40.855563 82.79457 
L 38.985433 83.394954 
L 37.115303 84.181324 
L 35.245173 85.163984 
L 33.375044 86.353238 
L 31.504914 87.75939 
L 29.634784 89.392744 
L 27.764654 91.263604 
z
" clip-path="url(#p3c67e51ff9)" style="fill: #ff7f0e"/>
   </g>
   <g id="matplotlib.axis_1">
    <g id="xtick_1">
     <g id="line2d_1">
      <defs>
       <path id="me4d4b72a22" d="M 0 0 
L 0 3.5 
" style="stroke: #000000; stroke-width: 0.8"/>
      </defs>
      <g>
       <use xlink:href="#me4d4b72a22" x="27.764654" y="314.12125" style="stroke: #000000; stroke-width: 0.8"/>
      </g>
     </g>
     <g id="text_1">
      <!-- 1982 -->
      <g transform="translate(12.109973 340.173358) rotate(-45) scale(0.1 -0.1)">
       <defs>
        <path id="TimesNewRomanPSMT-31" d="M 750 3822 
L 1781 4325 
L 1884 4325 
L 1884 747 
Q 1884 391 1914 303 
Q 1944 216 2037 169 
Q 2131 122 2419 116 
L 2419 0 
L 825 0 
L 825 116 
Q 1125 122 1212 167 
Q 1300 213 1334 289 
Q 1369 366 1369 747 
L 1369 3034 
Q 1369 3497 1338 3628 
Q 1316 3728 1258 3775 
Q 1200 3822 1119 3822 
Q 1003 3822 797 3725 
L 750 3822 
z
" transform="scale(0.015625)"/>
        <path id="TimesNewRomanPSMT-39" d="M 338 -88 
L 338 28 
Q 744 34 1094 217 
Q 1444 400 1770 856 
Q 2097 1313 2225 1859 
Q 1734 1544 1338 1544 
Q 891 1544 572 1889 
Q 253 2234 253 2806 
Q 253 3363 572 3797 
Q 956 4325 1575 4325 
Q 2097 4325 2469 3894 
Q 2925 3359 2925 2575 
Q 2925 1869 2578 1258 
Q 2231 647 1613 244 
Q 1109 -88 516 -88 
L 338 -88 
z
M 2275 2091 
Q 2331 2497 2331 2741 
Q 2331 3044 2228 3395 
Q 2125 3747 1936 3934 
Q 1747 4122 1506 4122 
Q 1228 4122 1018 3872 
Q 809 3622 809 3128 
Q 809 2469 1088 2097 
Q 1291 1828 1588 1828 
Q 1731 1828 1928 1897 
Q 2125 1966 2275 2091 
z
" transform="scale(0.015625)"/>
        <path id="TimesNewRomanPSMT-38" d="M 1228 2134 
Q 725 2547 579 2797 
Q 434 3047 434 3316 
Q 434 3728 753 4026 
Q 1072 4325 1600 4325 
Q 2113 4325 2425 4047 
Q 2738 3769 2738 3413 
Q 2738 3175 2569 2928 
Q 2400 2681 1866 2347 
Q 2416 1922 2594 1678 
Q 2831 1359 2831 1006 
Q 2831 559 2490 242 
Q 2150 -75 1597 -75 
Q 994 -75 656 303 
Q 388 606 388 966 
Q 388 1247 577 1523 
Q 766 1800 1228 2134 
z
M 1719 2469 
Q 2094 2806 2194 3001 
Q 2294 3197 2294 3444 
Q 2294 3772 2109 3958 
Q 1925 4144 1606 4144 
Q 1288 4144 1088 3959 
Q 888 3775 888 3528 
Q 888 3366 970 3203 
Q 1053 3041 1206 2894 
L 1719 2469 
z
M 1375 2016 
Q 1116 1797 991 1539 
Q 866 1281 866 981 
Q 866 578 1086 336 
Q 1306 94 1647 94 
Q 1984 94 2187 284 
Q 2391 475 2391 747 
Q 2391 972 2272 1150 
Q 2050 1481 1375 2016 
z
" transform="scale(0.015625)"/>
        <path id="TimesNewRomanPSMT-32" d="M 2934 816 
L 2638 0 
L 138 0 
L 138 116 
Q 1241 1122 1691 1759 
Q 2141 2397 2141 2925 
Q 2141 3328 1894 3587 
Q 1647 3847 1303 3847 
Q 991 3847 742 3664 
Q 494 3481 375 3128 
L 259 3128 
Q 338 3706 661 4015 
Q 984 4325 1469 4325 
Q 1984 4325 2329 3994 
Q 2675 3663 2675 3213 
Q 2675 2891 2525 2569 
Q 2294 2063 1775 1497 
Q 997 647 803 472 
L 1909 472 
Q 2247 472 2383 497 
Q 2519 522 2628 598 
Q 2738 675 2819 816 
L 2934 816 
z
" transform="scale(0.015625)"/>
       </defs>
       <use xlink:href="#TimesNewRomanPSMT-31"/>
       <use xlink:href="#TimesNewRomanPSMT-39" transform="translate(50 0)"/>
       <use xlink:href="#TimesNewRomanPSMT-38" transform="translate(100 0)"/>
       <use xlink:href="#TimesNewRomanPSMT-32" transform="translate(150 0)"/>
      </g>
     </g>
    </g>
    <g id="xtick_2">
     <g id="line2d_2">
      <g>
       <use xlink:href="#me4d4b72a22" x="47.401018" y="314.12125" style="stroke: #000000; stroke-width: 0.8"/>
      </g>
     </g>
     <g id="text_2">
      <!-- 1983 -->
      <g transform="translate(31.746336 340.173358) rotate(-45) scale(0.1 -0.1)">
       <defs>
        <path id="TimesNewRomanPSMT-33" d="M 325 3431 
Q 506 3859 782 4092 
Q 1059 4325 1472 4325 
Q 1981 4325 2253 3994 
Q 2459 3747 2459 3466 
Q 2459 3003 1878 2509 
Q 2269 2356 2469 2072 
Q 2669 1788 2669 1403 
Q 2669 853 2319 450 
Q 1863 -75 997 -75 
Q 569 -75 414 31 
Q 259 138 259 259 
Q 259 350 332 419 
Q 406 488 509 488 
Q 588 488 669 463 
Q 722 447 909 348 
Q 1097 250 1169 231 
Q 1284 197 1416 197 
Q 1734 197 1970 444 
Q 2206 691 2206 1028 
Q 2206 1275 2097 1509 
Q 2016 1684 1919 1775 
Q 1784 1900 1550 2001 
Q 1316 2103 1072 2103 
L 972 2103 
L 972 2197 
Q 1219 2228 1467 2375 
Q 1716 2522 1828 2728 
Q 1941 2934 1941 3181 
Q 1941 3503 1739 3701 
Q 1538 3900 1238 3900 
Q 753 3900 428 3381 
L 325 3431 
z
" transform="scale(0.015625)"/>
       </defs>
       <use xlink:href="#TimesNewRomanPSMT-31"/>
       <use xlink:href="#TimesNewRomanPSMT-39" transform="translate(50 0)"/>
       <use xlink:href="#TimesNewRomanPSMT-38" transform="translate(100 0)"/>
       <use xlink:href="#TimesNewRomanPSMT-33" transform="translate(150 0)"/>
      </g>
     </g>
    </g>
    <g id="xtick_3">
     <g id="line2d_3">
      <g>
       <use xlink:href="#me4d4b72a22" x="67.037381" y="314.12125" style="stroke: #000000; stroke-width: 0.8"/>
      </g>
     </g>
     <g id="text_3">
      <!-- 1984 -->
      <g transform="translate(51.3827 340.173358) rotate(-45) scale(0.1 -0.1)">
       <defs>
        <path id="TimesNewRomanPSMT-34" d="M 2978 1563 
L 2978 1119 
L 2409 1119 
L 2409 0 
L 1894 0 
L 1894 1119 
L 100 1119 
L 100 1519 
L 2066 4325 
L 2409 4325 
L 2409 1563 
L 2978 1563 
z
M 1894 1563 
L 1894 3666 
L 406 1563 
L 1894 1563 
z
" transform="scale(0.015625)"/>
       </defs>
       <use xlink:href="#TimesNewRomanPSMT-31"/>
       <use xlink:href="#TimesNewRomanPSMT-39" transform="translate(50 0)"/>
       <use xlink:href="#TimesNewRomanPSMT-38" transform="translate(100 0)"/>
       <use xlink:href="#TimesNewRomanPSMT-34" transform="translate(150 0)"/>
      </g>
     </g>
    </g>
    <g id="xtick_4">
     <g id="line2d_4">
      <g>
       <use xlink:href="#me4d4b72a22" x="86.673745" y="314.12125" style="stroke: #000000; stroke-width: 0.8"/>
      </g>
     </g>
     <g id="text_4">
      <!-- 1985 -->
      <g transform="translate(71.019064 340.173358) rotate(-45) scale(0.1 -0.1)">
       <defs>
        <path id="TimesNewRomanPSMT-35" d="M 2778 4238 
L 2534 3706 
L 1259 3706 
L 981 3138 
Q 1809 3016 2294 2522 
Q 2709 2097 2709 1522 
Q 2709 1188 2573 903 
Q 2438 619 2231 419 
Q 2025 219 1772 97 
Q 1413 -75 1034 -75 
Q 653 -75 479 54 
Q 306 184 306 341 
Q 306 428 378 495 
Q 450 563 559 563 
Q 641 563 702 538 
Q 763 513 909 409 
Q 1144 247 1384 247 
Q 1750 247 2026 523 
Q 2303 800 2303 1197 
Q 2303 1581 2056 1914 
Q 1809 2247 1375 2428 
Q 1034 2569 447 2591 
L 1259 4238 
L 2778 4238 
z
" transform="scale(0.015625)"/>
       </defs>
       <use xlink:href="#TimesNewRomanPSMT-31"/>
       <use xlink:href="#TimesNewRomanPSMT-39" transform="translate(50 0)"/>
       <use xlink:href="#TimesNewRomanPSMT-38" transform="translate(100 0)"/>
       <use xlink:href="#TimesNewRomanPSMT-35" transform="translate(150 0)"/>
      </g>
     </g>
    </g>
    <g id="xtick_5">
     <g id="line2d_5">
      <g>
       <use xlink:href="#me4d4b72a22" x="106.310108" y="314.12125" style="stroke: #000000; stroke-width: 0.8"/>
      </g>
     </g>
     <g id="text_5">
      <!-- 1986 -->
      <g transform="translate(90.655427 340.173358) rotate(-45) scale(0.1 -0.1)">
       <defs>
        <path id="TimesNewRomanPSMT-36" d="M 2869 4325 
L 2869 4209 
Q 2456 4169 2195 4045 
Q 1934 3922 1679 3669 
Q 1425 3416 1258 3105 
Q 1091 2794 978 2366 
Q 1428 2675 1881 2675 
Q 2316 2675 2634 2325 
Q 2953 1975 2953 1425 
Q 2953 894 2631 456 
Q 2244 -75 1606 -75 
Q 1172 -75 869 213 
Q 275 772 275 1663 
Q 275 2231 503 2743 
Q 731 3256 1154 3653 
Q 1578 4050 1965 4187 
Q 2353 4325 2688 4325 
L 2869 4325 
z
M 925 2138 
Q 869 1716 869 1456 
Q 869 1156 980 804 
Q 1091 453 1309 247 
Q 1469 100 1697 100 
Q 1969 100 2183 356 
Q 2397 613 2397 1088 
Q 2397 1622 2184 2012 
Q 1972 2403 1581 2403 
Q 1463 2403 1327 2353 
Q 1191 2303 925 2138 
z
" transform="scale(0.015625)"/>
       </defs>
       <use xlink:href="#TimesNewRomanPSMT-31"/>
       <use xlink:href="#TimesNewRomanPSMT-39" transform="translate(50 0)"/>
       <use xlink:href="#TimesNewRomanPSMT-38" transform="translate(100 0)"/>
       <use xlink:href="#TimesNewRomanPSMT-36" transform="translate(150 0)"/>
      </g>
     </g>
    </g>
    <g id="xtick_6">
     <g id="line2d_6">
      <g>
       <use xlink:href="#me4d4b72a22" x="125.946472" y="314.12125" style="stroke: #000000; stroke-width: 0.8"/>
      </g>
     </g>
     <g id="text_6">
      <!-- 1987 -->
      <g transform="translate(110.291791 340.173358) rotate(-45) scale(0.1 -0.1)">
       <defs>
        <path id="TimesNewRomanPSMT-37" d="M 644 4238 
L 2916 4238 
L 2916 4119 
L 1503 -88 
L 1153 -88 
L 2419 3728 
L 1253 3728 
Q 900 3728 750 3644 
Q 488 3500 328 3200 
L 238 3234 
L 644 4238 
z
" transform="scale(0.015625)"/>
       </defs>
       <use xlink:href="#TimesNewRomanPSMT-31"/>
       <use xlink:href="#TimesNewRomanPSMT-39" transform="translate(50 0)"/>
       <use xlink:href="#TimesNewRomanPSMT-38" transform="translate(100 0)"/>
       <use xlink:href="#TimesNewRomanPSMT-37" transform="translate(150 0)"/>
      </g>
     </g>
    </g>
    <g id="xtick_7">
     <g id="line2d_7">
      <g>
       <use xlink:href="#me4d4b72a22" x="145.582836" y="314.12125" style="stroke: #000000; stroke-width: 0.8"/>
      </g>
     </g>
     <g id="text_7">
      <!-- 1988 -->
      <g transform="translate(129.928155 340.173358) rotate(-45) scale(0.1 -0.1)">
       <use xlink:href="#TimesNewRomanPSMT-31"/>
       <use xlink:href="#TimesNewRomanPSMT-39" transform="translate(50 0)"/>
       <use xlink:href="#TimesNewRomanPSMT-38" transform="translate(100 0)"/>
       <use xlink:href="#TimesNewRomanPSMT-38" transform="translate(150 0)"/>
      </g>
     </g>
    </g>
    <g id="xtick_8">
     <g id="line2d_8">
      <g>
       <use xlink:href="#me4d4b72a22" x="165.219199" y="314.12125" style="stroke: #000000; stroke-width: 0.8"/>
      </g>
     </g>
     <g id="text_8">
      <!-- 1989 -->
      <g transform="translate(149.564518 340.173358) rotate(-45) scale(0.1 -0.1)">
       <use xlink:href="#TimesNewRomanPSMT-31"/>
       <use xlink:href="#TimesNewRomanPSMT-39" transform="translate(50 0)"/>
       <use xlink:href="#TimesNewRomanPSMT-38" transform="translate(100 0)"/>
       <use xlink:href="#TimesNewRomanPSMT-39" transform="translate(150 0)"/>
      </g>
     </g>
    </g>
    <g id="xtick_9">
     <g id="line2d_9">
      <g>
       <use xlink:href="#me4d4b72a22" x="184.855563" y="314.12125" style="stroke: #000000; stroke-width: 0.8"/>
      </g>
     </g>
     <g id="text_9">
      <!-- 1990 -->
      <g transform="translate(169.200882 340.173358) rotate(-45) scale(0.1 -0.1)">
       <defs>
        <path id="TimesNewRomanPSMT-30" d="M 231 2094 
Q 231 2819 450 3342 
Q 669 3866 1031 4122 
Q 1313 4325 1613 4325 
Q 2100 4325 2488 3828 
Q 2972 3213 2972 2159 
Q 2972 1422 2759 906 
Q 2547 391 2217 158 
Q 1888 -75 1581 -75 
Q 975 -75 572 641 
Q 231 1244 231 2094 
z
M 844 2016 
Q 844 1141 1059 588 
Q 1238 122 1591 122 
Q 1759 122 1940 273 
Q 2122 425 2216 781 
Q 2359 1319 2359 2297 
Q 2359 3022 2209 3506 
Q 2097 3866 1919 4016 
Q 1791 4119 1609 4119 
Q 1397 4119 1231 3928 
Q 1006 3669 925 3112 
Q 844 2556 844 2016 
z
" transform="scale(0.015625)"/>
       </defs>
       <use xlink:href="#TimesNewRomanPSMT-31"/>
       <use xlink:href="#TimesNewRomanPSMT-39" transform="translate(50 0)"/>
       <use xlink:href="#TimesNewRomanPSMT-39" transform="translate(100 0)"/>
       <use xlink:href="#TimesNewRomanPSMT-30" transform="translate(150 0)"/>
      </g>
     </g>
    </g>
    <g id="xtick_10">
     <g id="line2d_10">
      <g>
       <use xlink:href="#me4d4b72a22" x="204.491927" y="314.12125" style="stroke: #000000; stroke-width: 0.8"/>
      </g>
     </g>
     <g id="text_10">
      <!-- 1991 -->
      <g transform="translate(188.837245 340.173358) rotate(-45) scale(0.1 -0.1)">
       <use xlink:href="#TimesNewRomanPSMT-31"/>
       <use xlink:href="#TimesNewRomanPSMT-39" transform="translate(50 0)"/>
       <use xlink:href="#TimesNewRomanPSMT-39" transform="translate(100 0)"/>
       <use xlink:href="#TimesNewRomanPSMT-31" transform="translate(150 0)"/>
      </g>
     </g>
    </g>
    <g id="xtick_11">
     <g id="line2d_11">
      <g>
       <use xlink:href="#me4d4b72a22" x="224.12829" y="314.12125" style="stroke: #000000; stroke-width: 0.8"/>
      </g>
     </g>
     <g id="text_11">
      <!-- 1992 -->
      <g transform="translate(208.473609 340.173358) rotate(-45) scale(0.1 -0.1)">
       <use xlink:href="#TimesNewRomanPSMT-31"/>
       <use xlink:href="#TimesNewRomanPSMT-39" transform="translate(50 0)"/>
       <use xlink:href="#TimesNewRomanPSMT-39" transform="translate(100 0)"/>
       <use xlink:href="#TimesNewRomanPSMT-32" transform="translate(150 0)"/>
      </g>
     </g>
    </g>
    <g id="xtick_12">
     <g id="line2d_12">
      <g>
       <use xlink:href="#me4d4b72a22" x="243.764654" y="314.12125" style="stroke: #000000; stroke-width: 0.8"/>
      </g>
     </g>
     <g id="text_12">
      <!-- 1993 -->
      <g transform="translate(228.109973 340.173358) rotate(-45) scale(0.1 -0.1)">
       <use xlink:href="#TimesNewRomanPSMT-31"/>
       <use xlink:href="#TimesNewRomanPSMT-39" transform="translate(50 0)"/>
       <use xlink:href="#TimesNewRomanPSMT-39" transform="translate(100 0)"/>
       <use xlink:href="#TimesNewRomanPSMT-33" transform="translate(150 0)"/>
      </g>
     </g>
    </g>
    <g id="xtick_13">
     <g id="line2d_13">
      <g>
       <use xlink:href="#me4d4b72a22" x="263.401018" y="314.12125" style="stroke: #000000; stroke-width: 0.8"/>
      </g>
     </g>
     <g id="text_13">
      <!-- 1994 -->
      <g transform="translate(247.746336 340.173358) rotate(-45) scale(0.1 -0.1)">
       <use xlink:href="#TimesNewRomanPSMT-31"/>
       <use xlink:href="#TimesNewRomanPSMT-39" transform="translate(50 0)"/>
       <use xlink:href="#TimesNewRomanPSMT-39" transform="translate(100 0)"/>
       <use xlink:href="#TimesNewRomanPSMT-34" transform="translate(150 0)"/>
      </g>
     </g>
    </g>
    <g id="xtick_14">
     <g id="line2d_14">
      <g>
       <use xlink:href="#me4d4b72a22" x="283.037381" y="314.12125" style="stroke: #000000; stroke-width: 0.8"/>
      </g>
     </g>
     <g id="text_14">
      <!-- 1995 -->
      <g transform="translate(267.3827 340.173358) rotate(-45) scale(0.1 -0.1)">
       <use xlink:href="#TimesNewRomanPSMT-31"/>
       <use xlink:href="#TimesNewRomanPSMT-39" transform="translate(50 0)"/>
       <use xlink:href="#TimesNewRomanPSMT-39" transform="translate(100 0)"/>
       <use xlink:href="#TimesNewRomanPSMT-35" transform="translate(150 0)"/>
      </g>
     </g>
    </g>
    <g id="xtick_15">
     <g id="line2d_15">
      <g>
       <use xlink:href="#me4d4b72a22" x="302.673745" y="314.12125" style="stroke: #000000; stroke-width: 0.8"/>
      </g>
     </g>
     <g id="text_15">
      <!-- 1996 -->
      <g transform="translate(287.019064 340.173358) rotate(-45) scale(0.1 -0.1)">
       <use xlink:href="#TimesNewRomanPSMT-31"/>
       <use xlink:href="#TimesNewRomanPSMT-39" transform="translate(50 0)"/>
       <use xlink:href="#TimesNewRomanPSMT-39" transform="translate(100 0)"/>
       <use xlink:href="#TimesNewRomanPSMT-36" transform="translate(150 0)"/>
      </g>
     </g>
    </g>
    <g id="xtick_16">
     <g id="line2d_16">
      <g>
       <use xlink:href="#me4d4b72a22" x="322.310108" y="314.12125" style="stroke: #000000; stroke-width: 0.8"/>
      </g>
     </g>
     <g id="text_16">
      <!-- 1997 -->
      <g transform="translate(306.655427 340.173358) rotate(-45) scale(0.1 -0.1)">
       <use xlink:href="#TimesNewRomanPSMT-31"/>
       <use xlink:href="#TimesNewRomanPSMT-39" transform="translate(50 0)"/>
       <use xlink:href="#TimesNewRomanPSMT-39" transform="translate(100 0)"/>
       <use xlink:href="#TimesNewRomanPSMT-37" transform="translate(150 0)"/>
      </g>
     </g>
    </g>
    <g id="xtick_17">
     <g id="line2d_17">
      <g>
       <use xlink:href="#me4d4b72a22" x="341.946472" y="314.12125" style="stroke: #000000; stroke-width: 0.8"/>
      </g>
     </g>
     <g id="text_17">
      <!-- 1998 -->
      <g transform="translate(326.291791 340.173358) rotate(-45) scale(0.1 -0.1)">
       <use xlink:href="#TimesNewRomanPSMT-31"/>
       <use xlink:href="#TimesNewRomanPSMT-39" transform="translate(50 0)"/>
       <use xlink:href="#TimesNewRomanPSMT-39" transform="translate(100 0)"/>
       <use xlink:href="#TimesNewRomanPSMT-38" transform="translate(150 0)"/>
      </g>
     </g>
    </g>
    <g id="xtick_18">
     <g id="line2d_18">
      <g>
       <use xlink:href="#me4d4b72a22" x="361.582836" y="314.12125" style="stroke: #000000; stroke-width: 0.8"/>
      </g>
     </g>
     <g id="text_18">
      <!-- 1999 -->
      <g transform="translate(345.928155 340.173358) rotate(-45) scale(0.1 -0.1)">
       <use xlink:href="#TimesNewRomanPSMT-31"/>
       <use xlink:href="#TimesNewRomanPSMT-39" transform="translate(50 0)"/>
       <use xlink:href="#TimesNewRomanPSMT-39" transform="translate(100 0)"/>
       <use xlink:href="#TimesNewRomanPSMT-39" transform="translate(150 0)"/>
      </g>
     </g>
    </g>
    <g id="xtick_19">
     <g id="line2d_19">
      <g>
       <use xlink:href="#me4d4b72a22" x="381.219199" y="314.12125" style="stroke: #000000; stroke-width: 0.8"/>
      </g>
     </g>
     <g id="text_19">
      <!-- 2000 -->
      <g transform="translate(365.564518 340.173358) rotate(-45) scale(0.1 -0.1)">
       <use xlink:href="#TimesNewRomanPSMT-32"/>
       <use xlink:href="#TimesNewRomanPSMT-30" transform="translate(50 0)"/>
       <use xlink:href="#TimesNewRomanPSMT-30" transform="translate(100 0)"/>
       <use xlink:href="#TimesNewRomanPSMT-30" transform="translate(150 0)"/>
      </g>
     </g>
    </g>
    <g id="text_20">
     <!-- Year -->
     <g transform="translate(193.434114 354.018404) scale(0.12 -0.12)">
      <defs>
       <path id="TimesNewRomanPSMT-59" d="M 3050 4238 
L 4528 4238 
L 4528 4122 
L 4447 4122 
Q 4366 4122 4209 4050 
Q 4053 3978 3925 3843 
Q 3797 3709 3609 3406 
L 2588 1797 
L 2588 734 
Q 2588 344 2675 247 
Q 2794 116 3050 116 
L 3188 116 
L 3188 0 
L 1388 0 
L 1388 116 
L 1538 116 
Q 1806 116 1919 278 
Q 1988 378 1988 734 
L 1988 1738 
L 825 3513 
Q 619 3825 545 3903 
Q 472 3981 241 4091 
Q 178 4122 59 4122 
L 59 4238 
L 1872 4238 
L 1872 4122 
L 1778 4122 
Q 1631 4122 1507 4053 
Q 1384 3984 1384 3847 
Q 1384 3734 1575 3441 
L 2459 2075 
L 3291 3381 
Q 3478 3675 3478 3819 
Q 3478 3906 3433 3975 
Q 3388 4044 3303 4083 
Q 3219 4122 3050 4122 
L 3050 4238 
z
" transform="scale(0.015625)"/>
       <path id="TimesNewRomanPSMT-65" d="M 681 1784 
Q 678 1147 991 784 
Q 1303 422 1725 422 
Q 2006 422 2214 576 
Q 2422 731 2563 1106 
L 2659 1044 
Q 2594 616 2278 264 
Q 1963 -88 1488 -88 
Q 972 -88 605 314 
Q 238 716 238 1394 
Q 238 2128 614 2539 
Q 991 2950 1559 2950 
Q 2041 2950 2350 2633 
Q 2659 2316 2659 1784 
L 681 1784 
z
M 681 1966 
L 2006 1966 
Q 1991 2241 1941 2353 
Q 1863 2528 1708 2628 
Q 1553 2728 1384 2728 
Q 1125 2728 920 2526 
Q 716 2325 681 1966 
z
" transform="scale(0.015625)"/>
       <path id="TimesNewRomanPSMT-61" d="M 1822 413 
Q 1381 72 1269 19 
Q 1100 -59 909 -59 
Q 613 -59 420 144 
Q 228 347 228 678 
Q 228 888 322 1041 
Q 450 1253 767 1440 
Q 1084 1628 1822 1897 
L 1822 2009 
Q 1822 2438 1686 2597 
Q 1550 2756 1291 2756 
Q 1094 2756 978 2650 
Q 859 2544 859 2406 
L 866 2225 
Q 866 2081 792 2003 
Q 719 1925 600 1925 
Q 484 1925 411 2006 
Q 338 2088 338 2228 
Q 338 2497 613 2722 
Q 888 2947 1384 2947 
Q 1766 2947 2009 2819 
Q 2194 2722 2281 2516 
Q 2338 2381 2338 1966 
L 2338 994 
Q 2338 584 2353 492 
Q 2369 400 2405 369 
Q 2441 338 2488 338 
Q 2538 338 2575 359 
Q 2641 400 2828 588 
L 2828 413 
Q 2478 -56 2159 -56 
Q 2006 -56 1915 50 
Q 1825 156 1822 413 
z
M 1822 616 
L 1822 1706 
Q 1350 1519 1213 1441 
Q 966 1303 859 1153 
Q 753 1003 753 825 
Q 753 600 887 451 
Q 1022 303 1197 303 
Q 1434 303 1822 616 
z
" transform="scale(0.015625)"/>
       <path id="TimesNewRomanPSMT-72" d="M 1038 2947 
L 1038 2303 
Q 1397 2947 1775 2947 
Q 1947 2947 2059 2842 
Q 2172 2738 2172 2600 
Q 2172 2478 2090 2393 
Q 2009 2309 1897 2309 
Q 1788 2309 1652 2417 
Q 1516 2525 1450 2525 
Q 1394 2525 1328 2463 
Q 1188 2334 1038 2041 
L 1038 669 
Q 1038 431 1097 309 
Q 1138 225 1241 169 
Q 1344 113 1538 113 
L 1538 0 
L 72 0 
L 72 113 
Q 291 113 397 181 
Q 475 231 506 341 
Q 522 394 522 644 
L 522 1753 
Q 522 2253 501 2348 
Q 481 2444 426 2487 
Q 372 2531 291 2531 
Q 194 2531 72 2484 
L 41 2597 
L 906 2947 
L 1038 2947 
z
" transform="scale(0.015625)"/>
      </defs>
      <use xlink:href="#TimesNewRomanPSMT-59"/>
      <use xlink:href="#TimesNewRomanPSMT-65" transform="translate(62.216797 0)"/>
      <use xlink:href="#TimesNewRomanPSMT-61" transform="translate(106.601562 0)"/>
      <use xlink:href="#TimesNewRomanPSMT-72" transform="translate(150.986328 0)"/>
     </g>
    </g>
   </g>
   <g id="patch_3">
    <path d="M 10.091927 314.12125 
L 10.091927 36.92125 
" style="fill: none; stroke: #000000; stroke-width: 0.8; stroke-linejoin: miter; stroke-linecap: square"/>
   </g>
   <g id="patch_4">
    <path d="M 398.891927 314.12125 
L 398.891927 36.92125 
" style="fill: none; stroke: #000000; stroke-width: 0.8; stroke-linejoin: miter; stroke-linecap: square"/>
   </g>
   <g id="patch_5">
    <path d="M 10.091927 314.12125 
L 398.891927 314.12125 
" style="fill: none; stroke: #000000; stroke-width: 0.8; stroke-linejoin: miter; stroke-linecap: square"/>
   </g>
   <g id="patch_6">
    <path d="M 10.091927 36.92125 
L 398.891927 36.92125 
" style="fill: none; stroke: #000000; stroke-width: 0.8; stroke-linejoin: miter; stroke-linecap: square"/>
   </g>
   <g id="text_21">
    <!-- Market Share from 1982 to 2000 (%)  -->
    <g transform="translate(98.545833 16.92125) scale(0.14 -0.14)">
     <defs>
      <path id="TimesNewRomanPSMT-4d" d="M 2619 0 
L 981 3566 
L 981 734 
Q 981 344 1066 247 
Q 1181 116 1431 116 
L 1581 116 
L 1581 0 
L 106 0 
L 106 116 
L 256 116 
Q 525 116 638 278 
Q 706 378 706 734 
L 706 3503 
Q 706 3784 644 3909 
Q 600 4000 483 4061 
Q 366 4122 106 4122 
L 106 4238 
L 1306 4238 
L 2844 922 
L 4356 4238 
L 5556 4238 
L 5556 4122 
L 5409 4122 
Q 5138 4122 5025 3959 
Q 4956 3859 4956 3503 
L 4956 734 
Q 4956 344 5044 247 
Q 5159 116 5409 116 
L 5556 116 
L 5556 0 
L 3756 0 
L 3756 116 
L 3906 116 
Q 4178 116 4288 278 
Q 4356 378 4356 734 
L 4356 3566 
L 2722 0 
L 2619 0 
z
" transform="scale(0.015625)"/>
      <path id="TimesNewRomanPSMT-6b" d="M 1047 4444 
L 1047 1597 
L 1775 2259 
Q 2006 2472 2044 2528 
Q 2069 2566 2069 2603 
Q 2069 2666 2017 2711 
Q 1966 2756 1847 2763 
L 1847 2863 
L 3091 2863 
L 3091 2763 
Q 2834 2756 2664 2684 
Q 2494 2613 2291 2428 
L 1556 1750 
L 2291 822 
Q 2597 438 2703 334 
Q 2853 188 2966 144 
Q 3044 113 3238 113 
L 3238 0 
L 1847 0 
L 1847 113 
Q 1966 116 2008 148 
Q 2050 181 2050 241 
Q 2050 313 1925 472 
L 1047 1594 
L 1047 644 
Q 1047 366 1086 278 
Q 1125 191 1197 153 
Q 1269 116 1509 113 
L 1509 0 
L 53 0 
L 53 113 
Q 272 113 381 166 
Q 447 200 481 272 
Q 528 375 528 628 
L 528 3234 
Q 528 3731 506 3842 
Q 484 3953 434 3995 
Q 384 4038 303 4038 
Q 238 4038 106 3984 
L 53 4094 
L 903 4444 
L 1047 4444 
z
" transform="scale(0.015625)"/>
      <path id="TimesNewRomanPSMT-74" d="M 1031 3803 
L 1031 2863 
L 1700 2863 
L 1700 2644 
L 1031 2644 
L 1031 788 
Q 1031 509 1111 412 
Q 1191 316 1316 316 
Q 1419 316 1516 380 
Q 1613 444 1666 569 
L 1788 569 
Q 1678 263 1478 108 
Q 1278 -47 1066 -47 
Q 922 -47 784 33 
Q 647 113 581 261 
Q 516 409 516 719 
L 516 2644 
L 63 2644 
L 63 2747 
Q 234 2816 414 2980 
Q 594 3144 734 3369 
Q 806 3488 934 3803 
L 1031 3803 
z
" transform="scale(0.015625)"/>
      <path id="TimesNewRomanPSMT-20" transform="scale(0.015625)"/>
      <path id="TimesNewRomanPSMT-53" d="M 2934 4334 
L 2934 2869 
L 2819 2869 
Q 2763 3291 2617 3541 
Q 2472 3791 2203 3937 
Q 1934 4084 1647 4084 
Q 1322 4084 1109 3886 
Q 897 3688 897 3434 
Q 897 3241 1031 3081 
Q 1225 2847 1953 2456 
Q 2547 2138 2764 1967 
Q 2981 1797 3098 1565 
Q 3216 1334 3216 1081 
Q 3216 600 2842 251 
Q 2469 -97 1881 -97 
Q 1697 -97 1534 -69 
Q 1438 -53 1133 45 
Q 828 144 747 144 
Q 669 144 623 97 
Q 578 50 556 -97 
L 441 -97 
L 441 1356 
L 556 1356 
Q 638 900 775 673 
Q 913 447 1195 297 
Q 1478 147 1816 147 
Q 2206 147 2432 353 
Q 2659 559 2659 841 
Q 2659 997 2573 1156 
Q 2488 1316 2306 1453 
Q 2184 1547 1640 1851 
Q 1097 2156 867 2337 
Q 638 2519 519 2737 
Q 400 2956 400 3219 
Q 400 3675 750 4004 
Q 1100 4334 1641 4334 
Q 1978 4334 2356 4169 
Q 2531 4091 2603 4091 
Q 2684 4091 2736 4139 
Q 2788 4188 2819 4334 
L 2934 4334 
z
" transform="scale(0.015625)"/>
      <path id="TimesNewRomanPSMT-68" d="M 1041 4444 
L 1041 2350 
Q 1388 2731 1591 2839 
Q 1794 2947 1997 2947 
Q 2241 2947 2416 2812 
Q 2591 2678 2675 2391 
Q 2734 2191 2734 1659 
L 2734 647 
Q 2734 375 2778 275 
Q 2809 200 2884 156 
Q 2959 113 3159 113 
L 3159 0 
L 1753 0 
L 1753 113 
L 1819 113 
Q 2019 113 2097 173 
Q 2175 234 2206 353 
Q 2216 403 2216 647 
L 2216 1659 
Q 2216 2128 2167 2275 
Q 2119 2422 2012 2495 
Q 1906 2569 1756 2569 
Q 1603 2569 1437 2487 
Q 1272 2406 1041 2159 
L 1041 647 
Q 1041 353 1073 281 
Q 1106 209 1195 161 
Q 1284 113 1503 113 
L 1503 0 
L 84 0 
L 84 113 
Q 275 113 384 172 
Q 447 203 484 290 
Q 522 378 522 647 
L 522 3238 
Q 522 3728 498 3840 
Q 475 3953 426 3993 
Q 378 4034 297 4034 
Q 231 4034 84 3984 
L 41 4094 
L 897 4444 
L 1041 4444 
z
" transform="scale(0.015625)"/>
      <path id="TimesNewRomanPSMT-66" d="M 1319 2638 
L 1319 756 
Q 1319 356 1406 250 
Q 1522 113 1716 113 
L 1975 113 
L 1975 0 
L 266 0 
L 266 113 
L 394 113 
Q 519 113 622 175 
Q 725 238 764 344 
Q 803 450 803 756 
L 803 2638 
L 247 2638 
L 247 2863 
L 803 2863 
L 803 3050 
Q 803 3478 940 3775 
Q 1078 4072 1361 4255 
Q 1644 4438 1997 4438 
Q 2325 4438 2600 4225 
Q 2781 4084 2781 3909 
Q 2781 3816 2700 3733 
Q 2619 3650 2525 3650 
Q 2453 3650 2373 3701 
Q 2294 3753 2178 3923 
Q 2063 4094 1966 4153 
Q 1869 4213 1750 4213 
Q 1606 4213 1506 4136 
Q 1406 4059 1362 3898 
Q 1319 3738 1319 3069 
L 1319 2863 
L 2056 2863 
L 2056 2638 
L 1319 2638 
z
" transform="scale(0.015625)"/>
      <path id="TimesNewRomanPSMT-6f" d="M 1600 2947 
Q 2250 2947 2644 2453 
Q 2978 2031 2978 1484 
Q 2978 1100 2793 706 
Q 2609 313 2286 112 
Q 1963 -88 1566 -88 
Q 919 -88 538 428 
Q 216 863 216 1403 
Q 216 1797 411 2186 
Q 606 2575 925 2761 
Q 1244 2947 1600 2947 
z
M 1503 2744 
Q 1338 2744 1170 2645 
Q 1003 2547 900 2300 
Q 797 2053 797 1666 
Q 797 1041 1045 587 
Q 1294 134 1700 134 
Q 2003 134 2200 384 
Q 2397 634 2397 1244 
Q 2397 2006 2069 2444 
Q 1847 2744 1503 2744 
z
" transform="scale(0.015625)"/>
      <path id="TimesNewRomanPSMT-6d" d="M 1050 2338 
Q 1363 2650 1419 2697 
Q 1559 2816 1721 2881 
Q 1884 2947 2044 2947 
Q 2313 2947 2506 2790 
Q 2700 2634 2766 2338 
Q 3088 2713 3309 2830 
Q 3531 2947 3766 2947 
Q 3994 2947 4170 2830 
Q 4347 2713 4450 2447 
Q 4519 2266 4519 1878 
L 4519 647 
Q 4519 378 4559 278 
Q 4591 209 4675 161 
Q 4759 113 4950 113 
L 4950 0 
L 3538 0 
L 3538 113 
L 3597 113 
Q 3781 113 3884 184 
Q 3956 234 3988 344 
Q 4000 397 4000 647 
L 4000 1878 
Q 4000 2228 3916 2372 
Q 3794 2572 3525 2572 
Q 3359 2572 3192 2489 
Q 3025 2406 2788 2181 
L 2781 2147 
L 2788 2013 
L 2788 647 
Q 2788 353 2820 281 
Q 2853 209 2943 161 
Q 3034 113 3253 113 
L 3253 0 
L 1806 0 
L 1806 113 
Q 2044 113 2133 169 
Q 2222 225 2256 338 
Q 2272 391 2272 647 
L 2272 1878 
Q 2272 2228 2169 2381 
Q 2031 2581 1784 2581 
Q 1616 2581 1450 2491 
Q 1191 2353 1050 2181 
L 1050 647 
Q 1050 366 1089 281 
Q 1128 197 1204 155 
Q 1281 113 1516 113 
L 1516 0 
L 100 0 
L 100 113 
Q 297 113 375 155 
Q 453 197 493 289 
Q 534 381 534 647 
L 534 1741 
Q 534 2213 506 2350 
Q 484 2453 437 2492 
Q 391 2531 309 2531 
Q 222 2531 100 2484 
L 53 2597 
L 916 2947 
L 1050 2947 
L 1050 2338 
z
" transform="scale(0.015625)"/>
      <path id="TimesNewRomanPSMT-28" d="M 1988 -1253 
L 1988 -1369 
Q 1516 -1131 1200 -813 
Q 750 -359 506 256 
Q 263 872 263 1534 
Q 263 2503 741 3301 
Q 1219 4100 1988 4444 
L 1988 4313 
Q 1603 4100 1356 3731 
Q 1109 3363 987 2797 
Q 866 2231 866 1616 
Q 866 947 969 400 
Q 1050 -31 1165 -292 
Q 1281 -553 1476 -793 
Q 1672 -1034 1988 -1253 
z
" transform="scale(0.015625)"/>
      <path id="TimesNewRomanPSMT-25" d="M 4350 4334 
L 1263 -175 
L 984 -175 
L 4072 4334 
L 4350 4334 
z
M 1138 4334 
Q 1559 4334 1792 3984 
Q 2025 3634 2025 3181 
Q 2025 2638 1762 2341 
Q 1500 2044 1131 2044 
Q 884 2044 678 2180 
Q 472 2316 348 2584 
Q 225 2853 225 3181 
Q 225 3509 350 3786 
Q 475 4063 692 4198 
Q 909 4334 1138 4334 
z
M 1128 4159 
Q 969 4159 845 3971 
Q 722 3784 722 3184 
Q 722 2750 791 2522 
Q 844 2350 956 2256 
Q 1022 2200 1119 2200 
Q 1269 2200 1375 2363 
Q 1531 2603 1531 3166 
Q 1531 3759 1378 4000 
Q 1278 4159 1128 4159 
z
M 4206 2103 
Q 4428 2103 4648 1962 
Q 4869 1822 4989 1553 
Q 5109 1284 5109 963 
Q 5109 409 4843 117 
Q 4578 -175 4216 -175 
Q 3988 -175 3773 -34 
Q 3559 106 3436 367 
Q 3313 628 3313 963 
Q 3313 1291 3436 1562 
Q 3559 1834 3773 1968 
Q 3988 2103 4206 2103 
z
M 4209 1938 
Q 4059 1938 3950 1769 
Q 3809 1550 3809 941 
Q 3809 381 3953 159 
Q 4059 0 4209 0 
Q 4353 0 4466 172 
Q 4616 400 4616 956 
Q 4616 1544 4466 1778 
Q 4363 1938 4209 1938 
z
" transform="scale(0.015625)"/>
      <path id="TimesNewRomanPSMT-29" d="M 144 4313 
L 144 4444 
Q 619 4209 934 3891 
Q 1381 3434 1625 2820 
Q 1869 2206 1869 1541 
Q 1869 572 1392 -226 
Q 916 -1025 144 -1369 
L 144 -1253 
Q 528 -1038 776 -670 
Q 1025 -303 1145 264 
Q 1266 831 1266 1447 
Q 1266 2113 1163 2663 
Q 1084 3094 967 3353 
Q 850 3613 656 3853 
Q 463 4094 144 4313 
z
" transform="scale(0.015625)"/>
     </defs>
     <use xlink:href="#TimesNewRomanPSMT-4d"/>
     <use xlink:href="#TimesNewRomanPSMT-61" transform="translate(88.916016 0)"/>
     <use xlink:href="#TimesNewRomanPSMT-72" transform="translate(133.300781 0)"/>
     <use xlink:href="#TimesNewRomanPSMT-6b" transform="translate(166.601562 0)"/>
     <use xlink:href="#TimesNewRomanPSMT-65" transform="translate(216.601562 0)"/>
     <use xlink:href="#TimesNewRomanPSMT-74" transform="translate(260.986328 0)"/>
     <use xlink:href="#TimesNewRomanPSMT-20" transform="translate(288.769531 0)"/>
     <use xlink:href="#TimesNewRomanPSMT-53" transform="translate(313.769531 0)"/>
     <use xlink:href="#TimesNewRomanPSMT-68" transform="translate(369.384766 0)"/>
     <use xlink:href="#TimesNewRomanPSMT-61" transform="translate(419.384766 0)"/>
     <use xlink:href="#TimesNewRomanPSMT-72" transform="translate(463.769531 0)"/>
     <use xlink:href="#TimesNewRomanPSMT-65" transform="translate(497.070312 0)"/>
     <use xlink:href="#TimesNewRomanPSMT-20" transform="translate(541.455078 0)"/>
     <use xlink:href="#TimesNewRomanPSMT-66" transform="translate(566.455078 0)"/>
     <use xlink:href="#TimesNewRomanPSMT-72" transform="translate(599.755859 0)"/>
     <use xlink:href="#TimesNewRomanPSMT-6f" transform="translate(633.056641 0)"/>
     <use xlink:href="#TimesNewRomanPSMT-6d" transform="translate(683.056641 0)"/>
     <use xlink:href="#TimesNewRomanPSMT-20" transform="translate(760.839844 0)"/>
     <use xlink:href="#TimesNewRomanPSMT-31" transform="translate(785.839844 0)"/>
     <use xlink:href="#TimesNewRomanPSMT-39" transform="translate(835.839844 0)"/>
     <use xlink:href="#TimesNewRomanPSMT-38" transform="translate(885.839844 0)"/>
     <use xlink:href="#TimesNewRomanPSMT-32" transform="translate(935.839844 0)"/>
     <use xlink:href="#TimesNewRomanPSMT-20" transform="translate(985.839844 0)"/>
     <use xlink:href="#TimesNewRomanPSMT-74" transform="translate(1010.839844 0)"/>
     <use xlink:href="#TimesNewRomanPSMT-6f" transform="translate(1038.623047 0)"/>
     <use xlink:href="#TimesNewRomanPSMT-20" transform="translate(1088.623047 0)"/>
     <use xlink:href="#TimesNewRomanPSMT-32" transform="translate(1113.623047 0)"/>
     <use xlink:href="#TimesNewRomanPSMT-30" transform="translate(1163.623047 0)"/>
     <use xlink:href="#TimesNewRomanPSMT-30" transform="translate(1213.623047 0)"/>
     <use xlink:href="#TimesNewRomanPSMT-30" transform="translate(1263.623047 0)"/>
     <use xlink:href="#TimesNewRomanPSMT-20" transform="translate(1313.623047 0)"/>
     <use xlink:href="#TimesNewRomanPSMT-28" transform="translate(1338.623047 0)"/>
     <use xlink:href="#TimesNewRomanPSMT-25" transform="translate(1371.923828 0)"/>
     <use xlink:href="#TimesNewRomanPSMT-29" transform="translate(1455.224609 0)"/>
     <use xlink:href="#TimesNewRomanPSMT-20" transform="translate(1488.525391 0)"/>
    </g>
   </g>
   <g id="legend_1">
    <g id="patch_7">
     <path d="M 415.667927 163.793906 
L 435.667927 163.793906 
L 435.667927 156.793906 
L 415.667927 156.793906 
z
" style="fill: #1f77b4"/>
    </g>
    <g id="text_22">
     <!-- Apex Systems -->
     <g transform="translate(443.667927 163.793906) scale(0.1 -0.1)">
      <defs>
       <path id="TimesNewRomanPSMT-41" d="M 2928 1419 
L 1288 1419 
L 1000 750 
Q 894 503 894 381 
Q 894 284 986 211 
Q 1078 138 1384 116 
L 1384 0 
L 50 0 
L 50 116 
Q 316 163 394 238 
Q 553 388 747 847 
L 2238 4334 
L 2347 4334 
L 3822 809 
Q 4000 384 4145 257 
Q 4291 131 4550 116 
L 4550 0 
L 2878 0 
L 2878 116 
Q 3131 128 3220 200 
Q 3309 272 3309 375 
Q 3309 513 3184 809 
L 2928 1419 
z
M 2841 1650 
L 2122 3363 
L 1384 1650 
L 2841 1650 
z
" transform="scale(0.015625)"/>
       <path id="TimesNewRomanPSMT-70" d="M -6 2578 
L 875 2934 
L 994 2934 
L 994 2266 
Q 1216 2644 1439 2795 
Q 1663 2947 1909 2947 
Q 2341 2947 2628 2609 
Q 2981 2197 2981 1534 
Q 2981 794 2556 309 
Q 2206 -88 1675 -88 
Q 1444 -88 1275 -22 
Q 1150 25 994 166 
L 994 -706 
Q 994 -1000 1030 -1079 
Q 1066 -1159 1155 -1206 
Q 1244 -1253 1478 -1253 
L 1478 -1369 
L -22 -1369 
L -22 -1253 
L 56 -1253 
Q 228 -1256 350 -1188 
Q 409 -1153 442 -1076 
Q 475 -1000 475 -688 
L 475 2019 
Q 475 2297 450 2372 
Q 425 2447 370 2484 
Q 316 2522 222 2522 
Q 147 2522 31 2478 
L -6 2578 
z
M 994 2081 
L 994 1013 
Q 994 666 1022 556 
Q 1066 375 1236 237 
Q 1406 100 1666 100 
Q 1978 100 2172 344 
Q 2425 663 2425 1241 
Q 2425 1897 2138 2250 
Q 1938 2494 1663 2494 
Q 1513 2494 1366 2419 
Q 1253 2363 994 2081 
z
" transform="scale(0.015625)"/>
       <path id="TimesNewRomanPSMT-78" d="M 84 2863 
L 1431 2863 
L 1431 2747 
Q 1303 2747 1251 2703 
Q 1200 2659 1200 2588 
Q 1200 2513 1309 2356 
Q 1344 2306 1413 2200 
L 1616 1875 
L 1850 2200 
Q 2075 2509 2075 2591 
Q 2075 2656 2022 2701 
Q 1969 2747 1850 2747 
L 1850 2863 
L 2819 2863 
L 2819 2747 
Q 2666 2738 2553 2663 
Q 2400 2556 2134 2200 
L 1744 1678 
L 2456 653 
Q 2719 275 2831 198 
Q 2944 122 3122 113 
L 3122 0 
L 1772 0 
L 1772 113 
Q 1913 113 1991 175 
Q 2050 219 2050 291 
Q 2050 363 1850 653 
L 1431 1266 
L 972 653 
Q 759 369 759 316 
Q 759 241 829 180 
Q 900 119 1041 113 
L 1041 0 
L 106 0 
L 106 113 
Q 219 128 303 191 
Q 422 281 703 653 
L 1303 1450 
L 759 2238 
Q 528 2575 401 2661 
Q 275 2747 84 2747 
L 84 2863 
z
" transform="scale(0.015625)"/>
       <path id="TimesNewRomanPSMT-79" d="M 38 2863 
L 1372 2863 
L 1372 2747 
L 1306 2747 
Q 1166 2747 1095 2686 
Q 1025 2625 1025 2534 
Q 1025 2413 1128 2197 
L 1825 753 
L 2466 2334 
Q 2519 2463 2519 2588 
Q 2519 2644 2497 2672 
Q 2472 2706 2419 2726 
Q 2366 2747 2231 2747 
L 2231 2863 
L 3163 2863 
L 3163 2747 
Q 3047 2734 2984 2696 
Q 2922 2659 2847 2556 
Q 2819 2513 2741 2316 
L 1575 -541 
Q 1406 -956 1132 -1168 
Q 859 -1381 606 -1381 
Q 422 -1381 303 -1275 
Q 184 -1169 184 -1031 
Q 184 -900 270 -820 
Q 356 -741 506 -741 
Q 609 -741 788 -809 
Q 913 -856 944 -856 
Q 1038 -856 1148 -759 
Q 1259 -663 1372 -384 
L 1575 113 
L 547 2272 
Q 500 2369 397 2513 
Q 319 2622 269 2659 
Q 197 2709 38 2747 
L 38 2863 
z
" transform="scale(0.015625)"/>
       <path id="TimesNewRomanPSMT-73" d="M 2050 2947 
L 2050 1972 
L 1947 1972 
Q 1828 2431 1642 2597 
Q 1456 2763 1169 2763 
Q 950 2763 815 2647 
Q 681 2531 681 2391 
Q 681 2216 781 2091 
Q 878 1963 1175 1819 
L 1631 1597 
Q 2266 1288 2266 781 
Q 2266 391 1970 151 
Q 1675 -88 1309 -88 
Q 1047 -88 709 6 
Q 606 38 541 38 
Q 469 38 428 -44 
L 325 -44 
L 325 978 
L 428 978 
Q 516 541 762 319 
Q 1009 97 1316 97 
Q 1531 97 1667 223 
Q 1803 350 1803 528 
Q 1803 744 1651 891 
Q 1500 1038 1047 1263 
Q 594 1488 453 1669 
Q 313 1847 313 2119 
Q 313 2472 555 2709 
Q 797 2947 1181 2947 
Q 1350 2947 1591 2875 
Q 1750 2828 1803 2828 
Q 1853 2828 1881 2850 
Q 1909 2872 1947 2947 
L 2050 2947 
z
" transform="scale(0.015625)"/>
      </defs>
      <use xlink:href="#TimesNewRomanPSMT-41"/>
      <use xlink:href="#TimesNewRomanPSMT-70" transform="translate(72.216797 0)"/>
      <use xlink:href="#TimesNewRomanPSMT-65" transform="translate(122.216797 0)"/>
      <use xlink:href="#TimesNewRomanPSMT-78" transform="translate(166.601562 0)"/>
      <use xlink:href="#TimesNewRomanPSMT-20" transform="translate(216.601562 0)"/>
      <use xlink:href="#TimesNewRomanPSMT-53" transform="translate(241.601562 0)"/>
      <use xlink:href="#TimesNewRomanPSMT-79" transform="translate(297.216797 0)"/>
      <use xlink:href="#TimesNewRomanPSMT-73" transform="translate(347.216797 0)"/>
      <use xlink:href="#TimesNewRomanPSMT-74" transform="translate(386.132812 0)"/>
      <use xlink:href="#TimesNewRomanPSMT-65" transform="translate(413.916016 0)"/>
      <use xlink:href="#TimesNewRomanPSMT-6d" transform="translate(458.300781 0)"/>
      <use xlink:href="#TimesNewRomanPSMT-73" transform="translate(536.083984 0)"/>
     </g>
    </g>
    <g id="patch_8">
     <path d="M 415.667927 177.951719 
L 435.667927 177.951719 
L 435.667927 170.951719 
L 415.667927 170.951719 
z
" style="fill: #aec7e8"/>
    </g>
    <g id="text_23">
     <!-- NovaTech Solutions -->
     <g transform="translate(443.667927 177.951719) scale(0.1 -0.1)">
      <defs>
       <path id="TimesNewRomanPSMT-4e" d="M -84 4238 
L 1066 4238 
L 3656 1059 
L 3656 3503 
Q 3656 3894 3569 3991 
Q 3453 4122 3203 4122 
L 3056 4122 
L 3056 4238 
L 4531 4238 
L 4531 4122 
L 4381 4122 
Q 4113 4122 4000 3959 
Q 3931 3859 3931 3503 
L 3931 -69 
L 3819 -69 
L 1025 3344 
L 1025 734 
Q 1025 344 1109 247 
Q 1228 116 1475 116 
L 1625 116 
L 1625 0 
L 150 0 
L 150 116 
L 297 116 
Q 569 116 681 278 
Q 750 378 750 734 
L 750 3681 
Q 566 3897 470 3965 
Q 375 4034 191 4094 
Q 100 4122 -84 4122 
L -84 4238 
z
" transform="scale(0.015625)"/>
       <path id="TimesNewRomanPSMT-76" d="M 53 2863 
L 1400 2863 
L 1400 2747 
L 1313 2747 
Q 1191 2747 1127 2687 
Q 1063 2628 1063 2528 
Q 1063 2419 1128 2269 
L 1794 688 
L 2463 2328 
Q 2534 2503 2534 2594 
Q 2534 2638 2509 2666 
Q 2475 2713 2422 2730 
Q 2369 2747 2206 2747 
L 2206 2863 
L 3141 2863 
L 3141 2747 
Q 2978 2734 2916 2681 
Q 2806 2588 2719 2369 
L 1703 -88 
L 1575 -88 
L 553 2328 
Q 484 2497 421 2570 
Q 359 2644 263 2694 
Q 209 2722 53 2747 
L 53 2863 
z
" transform="scale(0.015625)"/>
       <path id="TimesNewRomanPSMT-54" d="M 3703 4238 
L 3750 3244 
L 3631 3244 
Q 3597 3506 3538 3619 
Q 3441 3800 3280 3886 
Q 3119 3972 2856 3972 
L 2259 3972 
L 2259 734 
Q 2259 344 2344 247 
Q 2463 116 2709 116 
L 2856 116 
L 2856 0 
L 1059 0 
L 1059 116 
L 1209 116 
Q 1478 116 1591 278 
Q 1659 378 1659 734 
L 1659 3972 
L 1150 3972 
Q 853 3972 728 3928 
Q 566 3869 450 3700 
Q 334 3531 313 3244 
L 194 3244 
L 244 4238 
L 3703 4238 
z
" transform="scale(0.015625)"/>
       <path id="TimesNewRomanPSMT-63" d="M 2631 1088 
Q 2516 522 2178 217 
Q 1841 -88 1431 -88 
Q 944 -88 581 321 
Q 219 731 219 1428 
Q 219 2103 620 2525 
Q 1022 2947 1584 2947 
Q 2006 2947 2278 2723 
Q 2550 2500 2550 2259 
Q 2550 2141 2473 2067 
Q 2397 1994 2259 1994 
Q 2075 1994 1981 2113 
Q 1928 2178 1911 2362 
Q 1894 2547 1784 2644 
Q 1675 2738 1481 2738 
Q 1169 2738 978 2506 
Q 725 2200 725 1697 
Q 725 1184 976 792 
Q 1228 400 1656 400 
Q 1963 400 2206 609 
Q 2378 753 2541 1131 
L 2631 1088 
z
" transform="scale(0.015625)"/>
       <path id="TimesNewRomanPSMT-6c" d="M 1184 4444 
L 1184 647 
Q 1184 378 1223 290 
Q 1263 203 1344 158 
Q 1425 113 1647 113 
L 1647 0 
L 244 0 
L 244 113 
Q 441 113 512 153 
Q 584 194 625 287 
Q 666 381 666 647 
L 666 3247 
Q 666 3731 644 3842 
Q 622 3953 573 3993 
Q 525 4034 450 4034 
Q 369 4034 244 3984 
L 191 4094 
L 1044 4444 
L 1184 4444 
z
" transform="scale(0.015625)"/>
       <path id="TimesNewRomanPSMT-75" d="M 2709 2863 
L 2709 1128 
Q 2709 631 2732 520 
Q 2756 409 2807 365 
Q 2859 322 2928 322 
Q 3025 322 3147 375 
L 3191 266 
L 2334 -88 
L 2194 -88 
L 2194 519 
Q 1825 119 1631 15 
Q 1438 -88 1222 -88 
Q 981 -88 804 51 
Q 628 191 559 409 
Q 491 628 491 1028 
L 491 2306 
Q 491 2509 447 2587 
Q 403 2666 317 2708 
Q 231 2750 6 2747 
L 6 2863 
L 1009 2863 
L 1009 947 
Q 1009 547 1148 422 
Q 1288 297 1484 297 
Q 1619 297 1789 381 
Q 1959 466 2194 703 
L 2194 2325 
Q 2194 2569 2105 2655 
Q 2016 2741 1734 2747 
L 1734 2863 
L 2709 2863 
z
" transform="scale(0.015625)"/>
       <path id="TimesNewRomanPSMT-69" d="M 928 4444 
Q 1059 4444 1151 4351 
Q 1244 4259 1244 4128 
Q 1244 3997 1151 3903 
Q 1059 3809 928 3809 
Q 797 3809 703 3903 
Q 609 3997 609 4128 
Q 609 4259 701 4351 
Q 794 4444 928 4444 
z
M 1188 2947 
L 1188 647 
Q 1188 378 1227 289 
Q 1266 200 1342 156 
Q 1419 113 1622 113 
L 1622 0 
L 231 0 
L 231 113 
Q 441 113 512 153 
Q 584 194 626 287 
Q 669 381 669 647 
L 669 1750 
Q 669 2216 641 2353 
Q 619 2453 572 2492 
Q 525 2531 444 2531 
Q 356 2531 231 2484 
L 188 2597 
L 1050 2947 
L 1188 2947 
z
" transform="scale(0.015625)"/>
       <path id="TimesNewRomanPSMT-6e" d="M 1034 2341 
Q 1538 2947 1994 2947 
Q 2228 2947 2397 2830 
Q 2566 2713 2666 2444 
Q 2734 2256 2734 1869 
L 2734 647 
Q 2734 375 2778 278 
Q 2813 200 2889 156 
Q 2966 113 3172 113 
L 3172 0 
L 1756 0 
L 1756 113 
L 1816 113 
Q 2016 113 2095 173 
Q 2175 234 2206 353 
Q 2219 400 2219 647 
L 2219 1819 
Q 2219 2209 2117 2386 
Q 2016 2563 1775 2563 
Q 1403 2563 1034 2156 
L 1034 647 
Q 1034 356 1069 288 
Q 1113 197 1189 155 
Q 1266 113 1500 113 
L 1500 0 
L 84 0 
L 84 113 
L 147 113 
Q 366 113 442 223 
Q 519 334 519 647 
L 519 1709 
Q 519 2225 495 2337 
Q 472 2450 423 2490 
Q 375 2531 294 2531 
Q 206 2531 84 2484 
L 38 2597 
L 900 2947 
L 1034 2947 
L 1034 2341 
z
" transform="scale(0.015625)"/>
      </defs>
      <use xlink:href="#TimesNewRomanPSMT-4e"/>
      <use xlink:href="#TimesNewRomanPSMT-6f" transform="translate(72.216797 0)"/>
      <use xlink:href="#TimesNewRomanPSMT-76" transform="translate(122.216797 0)"/>
      <use xlink:href="#TimesNewRomanPSMT-61" transform="translate(172.216797 0)"/>
      <use xlink:href="#TimesNewRomanPSMT-54" transform="translate(216.601562 0)"/>
      <use xlink:href="#TimesNewRomanPSMT-65" transform="translate(270.685547 0)"/>
      <use xlink:href="#TimesNewRomanPSMT-63" transform="translate(315.070312 0)"/>
      <use xlink:href="#TimesNewRomanPSMT-68" transform="translate(359.455078 0)"/>
      <use xlink:href="#TimesNewRomanPSMT-20" transform="translate(409.455078 0)"/>
      <use xlink:href="#TimesNewRomanPSMT-53" transform="translate(434.455078 0)"/>
      <use xlink:href="#TimesNewRomanPSMT-6f" transform="translate(490.070312 0)"/>
      <use xlink:href="#TimesNewRomanPSMT-6c" transform="translate(540.070312 0)"/>
      <use xlink:href="#TimesNewRomanPSMT-75" transform="translate(567.853516 0)"/>
      <use xlink:href="#TimesNewRomanPSMT-74" transform="translate(617.853516 0)"/>
      <use xlink:href="#TimesNewRomanPSMT-69" transform="translate(645.636719 0)"/>
      <use xlink:href="#TimesNewRomanPSMT-6f" transform="translate(673.419922 0)"/>
      <use xlink:href="#TimesNewRomanPSMT-6e" transform="translate(723.419922 0)"/>
      <use xlink:href="#TimesNewRomanPSMT-73" transform="translate(773.419922 0)"/>
     </g>
    </g>
    <g id="patch_9">
     <path d="M 415.667927 192.090781 
L 435.667927 192.090781 
L 435.667927 185.090781 
L 415.667927 185.090781 
z
" style="fill: #ff7f0e"/>
    </g>
    <g id="text_24">
     <!-- Starlight Innovations -->
     <g transform="translate(443.667927 192.090781) scale(0.1 -0.1)">
      <defs>
       <path id="TimesNewRomanPSMT-67" d="M 966 1044 
Q 703 1172 562 1401 
Q 422 1631 422 1909 
Q 422 2334 742 2640 
Q 1063 2947 1563 2947 
Q 1972 2947 2272 2747 
L 2878 2747 
Q 3013 2747 3034 2739 
Q 3056 2731 3066 2713 
Q 3084 2684 3084 2613 
Q 3084 2531 3069 2500 
Q 3059 2484 3036 2475 
Q 3013 2466 2878 2466 
L 2506 2466 
Q 2681 2241 2681 1891 
Q 2681 1491 2375 1206 
Q 2069 922 1553 922 
Q 1341 922 1119 984 
Q 981 866 932 777 
Q 884 688 884 625 
Q 884 572 936 522 
Q 988 472 1138 450 
Q 1225 438 1575 428 
Q 2219 413 2409 384 
Q 2700 344 2873 169 
Q 3047 -6 3047 -263 
Q 3047 -616 2716 -925 
Q 2228 -1381 1444 -1381 
Q 841 -1381 425 -1109 
Q 191 -953 191 -784 
Q 191 -709 225 -634 
Q 278 -519 444 -313 
Q 466 -284 763 25 
Q 600 122 533 198 
Q 466 275 466 372 
Q 466 481 555 628 
Q 644 775 966 1044 
z
M 1509 2797 
Q 1278 2797 1122 2612 
Q 966 2428 966 2047 
Q 966 1553 1178 1281 
Q 1341 1075 1591 1075 
Q 1828 1075 1981 1253 
Q 2134 1431 2134 1813 
Q 2134 2309 1919 2591 
Q 1759 2797 1509 2797 
z
M 934 0 
Q 788 -159 713 -296 
Q 638 -434 638 -550 
Q 638 -700 819 -813 
Q 1131 -1006 1722 -1006 
Q 2284 -1006 2551 -807 
Q 2819 -609 2819 -384 
Q 2819 -222 2659 -153 
Q 2497 -84 2016 -72 
Q 1313 -53 934 0 
z
" transform="scale(0.015625)"/>
       <path id="TimesNewRomanPSMT-49" d="M 1975 116 
L 1975 0 
L 159 0 
L 159 116 
L 309 116 
Q 572 116 691 269 
Q 766 369 766 750 
L 766 3488 
Q 766 3809 725 3913 
Q 694 3991 597 4047 
Q 459 4122 309 4122 
L 159 4122 
L 159 4238 
L 1975 4238 
L 1975 4122 
L 1822 4122 
Q 1563 4122 1444 3969 
Q 1366 3869 1366 3488 
L 1366 750 
Q 1366 428 1406 325 
Q 1438 247 1538 191 
Q 1672 116 1822 116 
L 1975 116 
z
" transform="scale(0.015625)"/>
      </defs>
      <use xlink:href="#TimesNewRomanPSMT-53"/>
      <use xlink:href="#TimesNewRomanPSMT-74" transform="translate(55.615234 0)"/>
      <use xlink:href="#TimesNewRomanPSMT-61" transform="translate(83.398438 0)"/>
      <use xlink:href="#TimesNewRomanPSMT-72" transform="translate(127.783203 0)"/>
      <use xlink:href="#TimesNewRomanPSMT-6c" transform="translate(161.083984 0)"/>
      <use xlink:href="#TimesNewRomanPSMT-69" transform="translate(188.867188 0)"/>
      <use xlink:href="#TimesNewRomanPSMT-67" transform="translate(216.650391 0)"/>
      <use xlink:href="#TimesNewRomanPSMT-68" transform="translate(266.650391 0)"/>
      <use xlink:href="#TimesNewRomanPSMT-74" transform="translate(316.650391 0)"/>
      <use xlink:href="#TimesNewRomanPSMT-20" transform="translate(344.433594 0)"/>
      <use xlink:href="#TimesNewRomanPSMT-49" transform="translate(369.433594 0)"/>
      <use xlink:href="#TimesNewRomanPSMT-6e" transform="translate(402.734375 0)"/>
      <use xlink:href="#TimesNewRomanPSMT-6e" transform="translate(452.734375 0)"/>
      <use xlink:href="#TimesNewRomanPSMT-6f" transform="translate(502.734375 0)"/>
      <use xlink:href="#TimesNewRomanPSMT-76" transform="translate(552.734375 0)"/>
      <use xlink:href="#TimesNewRomanPSMT-61" transform="translate(602.734375 0)"/>
      <use xlink:href="#TimesNewRomanPSMT-74" transform="translate(647.119141 0)"/>
      <use xlink:href="#TimesNewRomanPSMT-69" transform="translate(674.902344 0)"/>
      <use xlink:href="#TimesNewRomanPSMT-6f" transform="translate(702.685547 0)"/>
      <use xlink:href="#TimesNewRomanPSMT-6e" transform="translate(752.685547 0)"/>
      <use xlink:href="#TimesNewRomanPSMT-73" transform="translate(802.685547 0)"/>
     </g>
    </g>
   </g>
  </g>
 </g>
 <defs>
  <clipPath id="p3c67e51ff9">
   <rect x="10.091927" y="36.92125" width="388.8" height="277.2"/>
  </clipPath>
 </defs>
</svg>
