<?xml version="1.0" encoding="utf-8" standalone="no"?>
<!DOCTYPE svg PUBLIC "-//W3C//DTD SVG 1.1//EN"
  "http://www.w3.org/Graphics/SVG/1.1/DTD/svg11.dtd">
<svg xmlns:xlink="http://www.w3.org/1999/xlink" width="543.463239pt" height="363.785279pt" viewBox="0 0 543.463239 363.785279" xmlns="http://www.w3.org/2000/svg" version="1.1">
 <metadata>
  <rdf:RDF xmlns:dc="http://purl.org/dc/elements/1.1/" xmlns:cc="http://creativecommons.org/ns#" xmlns:rdf="http://www.w3.org/1999/02/22-rdf-syntax-ns#">
   <cc:Work>
    <dc:type rdf:resource="http://purl.org/dc/dcmitype/StillImage"/>
    <dc:date>2025-05-31T00:12:03.074034</dc:date>
    <dc:format>image/svg+xml</dc:format>
    <dc:creator>
     <cc:Agent>
      <dc:title>Matplotlib v3.10.3, https://matplotlib.org/</dc:title>
     </cc:Agent>
    </dc:creator>
   </cc:Work>
  </rdf:RDF>
 </metadata>
 <defs>
  <style type="text/css">*{stroke-linejoin: round; stroke-linecap: butt}</style>
 </defs>
 <g id="figure_1">
  <g id="patch_1">
   <path d="M 0 363.785279 
L 543.463239 363.785279 
L 543.463239 0 
L 0 0 
z
" style="fill: #ffffff"/>
  </g>
  <g id="axes_1">
   <g id="patch_2">
    <path d="M 10.091927 314.12125 
L 398.891927 314.12125 
L 398.891927 36.92125 
L 10.091927 36.92125 
z
" style="fill: #ffffff"/>
   </g>
   <g id="FillBetweenPolyCollection_1">
    <path d="M 27.764654 209.135305 
L 27.764654 242.354674 
L 30.307492 244.013402 
L 32.850331 245.330451 
L 35.393169 246.330152 
L 37.936008 247.036833 
L 40.478846 247.474825 
L 43.021685 247.668455 
L 45.564523 247.642055 
L 48.107362 247.419952 
L 50.6502 247.026477 
L 53.193038 246.485959 
L 55.735877 245.822727 
L 58.278715 245.06111 
L 60.821554 244.225438 
L 63.364392 243.34004 
L 65.907231 242.429246 
L 68.450069 241.517385 
L 70.992908 240.628785 
L 73.535746 239.787778 
L 76.078585 239.018691 
L 78.621423 238.345854 
L 81.164262 237.793598 
L 83.7071 237.383765 
L 86.249938 237.103201 
L 88.792777 236.912876 
L 91.335615 236.773154 
L 93.878454 236.644399 
L 96.421292 236.486975 
L 98.964131 236.261246 
L 101.506969 235.927575 
L 104.049808 235.446327 
L 106.592646 234.777866 
L 109.135485 233.882556 
L 111.678323 233.086635 
L 114.221161 232.249195 
L 116.764 231.22972 
L 119.306838 230.096876 
L 121.849677 228.919331 
L 124.392515 227.765753 
L 126.935354 226.704808 
L 129.478192 225.805165 
L 132.021031 225.135491 
L 134.563869 224.764453 
L 137.106708 225.143698 
L 139.649546 226.617061 
L 142.192384 228.621176 
L 144.735223 231.054022 
L 147.278061 233.813576 
L 149.8209 236.797817 
L 152.363738 239.904723 
L 154.906577 243.032272 
L 157.449415 246.078443 
L 159.992254 248.941214 
L 162.535092 251.518563 
L 165.077931 253.712365 
L 167.620769 255.499772 
L 170.163607 256.926029 
L 172.706446 258.038832 
L 175.249284 258.885878 
L 177.792123 259.514864 
L 180.334961 259.973487 
L 182.8778 260.309445 
L 185.420638 260.570433 
L 187.963477 260.804148 
L 190.506315 261.058289 
L 193.049154 261.372672 
L 195.591992 261.736809 
L 198.134831 262.120419 
L 200.677669 262.49318 
L 203.220507 262.824764 
L 205.763346 263.084848 
L 208.306184 263.243105 
L 210.849023 263.269211 
L 213.391861 263.132841 
L 215.9347 262.803669 
L 218.477538 262.25142 
L 221.020377 261.466607 
L 223.563215 260.492602 
L 226.106054 259.381053 
L 228.648892 258.183607 
L 231.19173 256.951913 
L 233.734569 255.737619 
L 236.277407 254.592374 
L 238.820246 253.567824 
L 241.363084 252.715619 
L 243.905923 252.087407 
L 246.448761 251.733553 
L 248.9916 251.668831 
L 251.534438 251.868663 
L 254.077277 252.306434 
L 256.620115 252.955532 
L 259.162953 253.789342 
L 261.705792 254.781249 
L 264.24863 255.904641 
L 266.791469 257.132903 
L 269.334307 258.439421 
L 271.877146 259.79758 
L 274.419984 261.183259 
L 276.962823 262.592672 
L 279.505661 264.031966 
L 282.0485 265.507358 
L 284.591338 267.025061 
L 287.134176 268.59129 
L 289.677015 270.21226 
L 292.219853 271.894186 
L 294.762692 273.643283 
L 297.30553 275.465766 
L 299.848369 277.367844 
L 302.391207 279.342183 
L 304.934046 281.338378 
L 307.476884 283.297484 
L 310.019723 285.160555 
L 312.562561 286.868644 
L 315.1054 288.362805 
L 317.648238 289.584093 
L 320.191076 290.47356 
L 322.733915 290.972261 
L 325.276753 291.02125 
L 327.819592 290.562825 
L 330.36243 289.592385 
L 332.905269 288.17716 
L 335.448107 286.389477 
L 337.990946 284.301666 
L 340.533784 281.986056 
L 343.076623 279.514974 
L 345.619461 276.96075 
L 348.162299 274.395712 
L 350.705138 271.89219 
L 353.247976 269.52251 
L 355.790815 267.359003 
L 358.333653 265.473996 
L 360.876492 263.939819 
L 363.41933 263.679059 
L 365.962169 264.091182 
L 368.505007 264.748537 
L 371.047846 265.68248 
L 373.590684 266.924367 
L 376.133522 268.505553 
L 378.676361 270.457394 
L 381.219199 272.975697 
L 381.219199 240.085232 
L 381.219199 240.085232 
L 378.676361 239.78913 
L 376.133522 239.630959 
L 373.590684 239.447489 
L 371.047846 239.239942 
L 368.505007 239.009542 
L 365.962169 238.75751 
L 363.41933 238.485069 
L 360.876492 238.652448 
L 358.333653 239.892759 
L 355.790815 241.315992 
L 353.247976 242.882396 
L 350.705138 244.552222 
L 348.162299 246.285718 
L 345.619461 248.043134 
L 343.076623 249.784719 
L 340.533784 251.470723 
L 337.990946 253.061395 
L 335.448107 254.516985 
L 332.905269 255.797742 
L 330.36243 256.863915 
L 327.819592 257.675754 
L 325.276753 258.195667 
L 322.733915 258.416485 
L 320.191076 258.353521 
L 317.648238 258.02262 
L 315.1054 257.439625 
L 312.562561 256.620378 
L 310.019723 255.580724 
L 307.476884 254.336504 
L 304.934046 252.903563 
L 302.391207 251.297743 
L 299.848369 249.534888 
L 297.30553 247.632355 
L 294.762692 245.615134 
L 292.219853 243.510618 
L 289.677015 241.346198 
L 287.134176 239.149268 
L 284.591338 236.94722 
L 282.0485 234.767447 
L 279.505661 232.63734 
L 276.962823 230.584293 
L 274.419984 228.635697 
L 271.877146 226.818911 
L 269.334307 225.155989 
L 266.791469 223.658133 
L 264.24863 222.335215 
L 261.705792 221.197108 
L 259.162953 220.253683 
L 256.620115 219.514813 
L 254.077277 218.99037 
L 251.534438 218.690226 
L 248.9916 218.624254 
L 246.448761 218.802325 
L 243.905923 219.232932 
L 241.363084 219.897908 
L 238.820246 220.754971 
L 236.277407 221.760973 
L 233.734569 222.872762 
L 231.19173 224.04719 
L 228.648892 225.241107 
L 226.106054 226.411362 
L 223.563215 227.514807 
L 221.020377 228.50829 
L 218.477538 229.348663 
L 215.9347 229.998453 
L 213.391861 230.45644 
L 210.849023 230.735664 
L 208.306184 230.849199 
L 205.763346 230.810117 
L 203.220507 230.631494 
L 200.677669 230.326402 
L 198.134831 229.907915 
L 195.591992 229.389106 
L 193.049154 228.78305 
L 190.506315 228.102819 
L 187.963477 227.361421 
L 185.420638 226.571693 
L 182.8778 225.746445 
L 180.334961 224.89849 
L 177.792123 224.040638 
L 175.249284 223.1857 
L 172.706446 222.346488 
L 170.163607 221.535812 
L 167.620769 220.766483 
L 165.077931 220.051313 
L 162.535092 219.402579 
L 159.992254 218.817745 
L 157.449415 218.277897 
L 154.906577 217.763275 
L 152.363738 217.254118 
L 149.8209 216.730665 
L 147.278061 216.173155 
L 144.735223 215.561828 
L 142.192384 214.876922 
L 139.649546 214.098677 
L 137.106708 213.207333 
L 134.563869 212.662633 
L 132.021031 212.165453 
L 129.478192 211.381284 
L 126.935354 210.359087 
L 124.392515 209.147825 
L 121.849677 207.796459 
L 119.306838 206.35395 
L 116.764 204.869261 
L 114.221161 203.391352 
L 111.678323 201.969187 
L 109.135485 200.860897 
L 106.592646 200.290351 
L 104.049808 199.904062 
L 101.506969 199.692563 
L 98.964131 199.646386 
L 96.421292 199.756061 
L 93.878454 200.012123 
L 91.335615 200.405101 
L 88.792777 200.925529 
L 86.249938 201.563937 
L 83.7071 202.310859 
L 81.164262 203.156721 
L 78.621423 204.087511 
L 76.078585 205.083204 
L 73.535746 206.123351 
L 70.992908 207.187503 
L 68.450069 208.255211 
L 65.907231 209.306024 
L 63.364392 210.319494 
L 60.821554 211.275171 
L 58.278715 212.152606 
L 55.735877 212.931348 
L 53.193038 213.59095 
L 50.6502 214.11096 
L 48.107362 214.47093 
L 45.564523 214.650411 
L 43.021685 214.628952 
L 40.478846 214.386104 
L 37.936008 213.901419 
L 35.393169 213.154445 
L 32.850331 212.124735 
L 30.307492 210.791838 
L 27.764654 209.135305 
z
" clip-path="url(#pae7d039b29)" style="fill: #1f77b4"/>
   </g>
   <g id="FillBetweenPolyCollection_2">
    <path d="M 27.764654 177.62624 
L 27.764654 209.135305 
L 30.307492 210.791838 
L 32.850331 212.124735 
L 35.393169 213.154445 
L 37.936008 213.901419 
L 40.478846 214.386104 
L 43.021685 214.628952 
L 45.564523 214.650411 
L 48.107362 214.47093 
L 50.6502 214.11096 
L 53.193038 213.59095 
L 55.735877 212.931348 
L 58.278715 212.152606 
L 60.821554 211.275171 
L 63.364392 210.319494 
L 65.907231 209.306024 
L 68.450069 208.255211 
L 70.992908 207.187503 
L 73.535746 206.123351 
L 76.078585 205.083204 
L 78.621423 204.087511 
L 81.164262 203.156721 
L 83.7071 202.310859 
L 86.249938 201.563937 
L 88.792777 200.925529 
L 91.335615 200.405101 
L 93.878454 200.012123 
L 96.421292 199.756061 
L 98.964131 199.646386 
L 101.506969 199.692563 
L 104.049808 199.904062 
L 106.592646 200.290351 
L 109.135485 200.860897 
L 111.678323 201.969187 
L 114.221161 203.391352 
L 116.764 204.869261 
L 119.306838 206.35395 
L 121.849677 207.796459 
L 124.392515 209.147825 
L 126.935354 210.359087 
L 129.478192 211.381284 
L 132.021031 212.165453 
L 134.563869 212.662633 
L 137.106708 213.207333 
L 139.649546 214.098677 
L 142.192384 214.876922 
L 144.735223 215.561828 
L 147.278061 216.173155 
L 149.8209 216.730665 
L 152.363738 217.254118 
L 154.906577 217.763275 
L 157.449415 218.277897 
L 159.992254 218.817745 
L 162.535092 219.402579 
L 165.077931 220.051313 
L 167.620769 220.766483 
L 170.163607 221.535812 
L 172.706446 222.346488 
L 175.249284 223.1857 
L 177.792123 224.040638 
L 180.334961 224.89849 
L 182.8778 225.746445 
L 185.420638 226.571693 
L 187.963477 227.361421 
L 190.506315 228.102819 
L 193.049154 228.78305 
L 195.591992 229.389106 
L 198.134831 229.907915 
L 200.677669 230.326402 
L 203.220507 230.631494 
L 205.763346 230.810117 
L 208.306184 230.849199 
L 210.849023 230.735664 
L 213.391861 230.45644 
L 215.9347 229.998453 
L 218.477538 229.348663 
L 221.020377 228.50829 
L 223.563215 227.514807 
L 226.106054 226.411362 
L 228.648892 225.241107 
L 231.19173 224.04719 
L 233.734569 222.872762 
L 236.277407 221.760973 
L 238.820246 220.754971 
L 241.363084 219.897908 
L 243.905923 219.232932 
L 246.448761 218.802325 
L 248.9916 218.624254 
L 251.534438 218.690226 
L 254.077277 218.99037 
L 256.620115 219.514813 
L 259.162953 220.253683 
L 261.705792 221.197108 
L 264.24863 222.335215 
L 266.791469 223.658133 
L 269.334307 225.155989 
L 271.877146 226.818911 
L 274.419984 228.635697 
L 276.962823 230.584293 
L 279.505661 232.63734 
L 282.0485 234.767447 
L 284.591338 236.94722 
L 287.134176 239.149268 
L 289.677015 241.346198 
L 292.219853 243.510618 
L 294.762692 245.615134 
L 297.30553 247.632355 
L 299.848369 249.534888 
L 302.391207 251.297743 
L 304.934046 252.903563 
L 307.476884 254.336504 
L 310.019723 255.580724 
L 312.562561 256.620378 
L 315.1054 257.439625 
L 317.648238 258.02262 
L 320.191076 258.353521 
L 322.733915 258.416485 
L 325.276753 258.195667 
L 327.819592 257.675754 
L 330.36243 256.863915 
L 332.905269 255.797742 
L 335.448107 254.516985 
L 337.990946 253.061395 
L 340.533784 251.470723 
L 343.076623 249.784719 
L 345.619461 248.043134 
L 348.162299 246.285718 
L 350.705138 244.552222 
L 353.247976 242.882396 
L 355.790815 241.315992 
L 358.333653 239.892759 
L 360.876492 238.652448 
L 363.41933 238.485069 
L 365.962169 238.75751 
L 368.505007 239.009542 
L 371.047846 239.239942 
L 373.590684 239.447489 
L 376.133522 239.630959 
L 378.676361 239.78913 
L 381.219199 240.085232 
L 381.219199 195.091077 
L 381.219199 195.091077 
L 378.676361 195.314251 
L 376.133522 195.485304 
L 373.590684 195.457348 
L 371.047846 195.247951 
L 368.505007 194.874678 
L 365.962169 194.355096 
L 363.41933 193.70677 
L 360.876492 193.406272 
L 358.333653 194.103058 
L 355.790815 194.923461 
L 353.247976 195.844076 
L 350.705138 196.841494 
L 348.162299 197.892309 
L 345.619461 198.973114 
L 343.076623 200.060501 
L 340.533784 201.131064 
L 337.990946 202.161395 
L 335.448107 203.128088 
L 332.905269 204.007735 
L 330.36243 204.776929 
L 327.819592 205.412263 
L 325.276753 205.891553 
L 322.733915 206.209834 
L 320.191076 206.374873 
L 317.648238 206.394734 
L 315.1054 206.277481 
L 312.562561 206.031179 
L 310.019723 205.663891 
L 307.476884 205.183683 
L 304.934046 204.598619 
L 302.391207 203.916763 
L 299.848369 203.146179 
L 297.30553 202.293731 
L 294.762692 201.360222 
L 292.219853 200.344553 
L 289.677015 199.245622 
L 287.134176 198.062326 
L 284.591338 196.793566 
L 282.0485 195.438239 
L 279.505661 193.995245 
L 276.962823 192.46348 
L 274.419984 190.841846 
L 271.877146 189.129353 
L 269.334307 187.341823 
L 266.791469 185.5295 
L 264.24863 183.746843 
L 261.705792 182.048312 
L 259.162953 180.488365 
L 256.620115 179.121462 
L 254.077277 178.002062 
L 251.534438 177.184623 
L 248.9916 176.723605 
L 246.448761 176.673467 
L 243.905923 177.08522 
L 241.363084 177.943243 
L 238.820246 179.171649 
L 236.277407 180.692378 
L 233.734569 182.427372 
L 231.19173 184.29857 
L 228.648892 186.227913 
L 226.106054 188.137342 
L 223.563215 189.948799 
L 221.020377 191.584222 
L 218.477538 192.965553 
L 215.9347 194.025154 
L 213.391861 194.761934 
L 210.849023 195.200976 
L 208.306184 195.367425 
L 205.763346 195.286427 
L 203.220507 194.983128 
L 200.677669 194.482672 
L 198.134831 193.810206 
L 195.591992 192.990875 
L 193.049154 192.049823 
L 190.506315 191.012196 
L 187.963477 189.902347 
L 185.420638 188.742625 
L 182.8778 187.555065 
L 180.334961 186.3617 
L 177.792123 185.184566 
L 175.249284 184.045697 
L 172.706446 182.967127 
L 170.163607 181.970891 
L 167.620769 181.079023 
L 165.077931 180.313558 
L 162.535092 179.695598 
L 159.992254 179.220387 
L 157.449415 178.854582 
L 154.906577 178.563357 
L 152.363738 178.311889 
L 149.8209 178.065353 
L 147.278061 177.788925 
L 144.735223 177.447781 
L 142.192384 177.007097 
L 139.649546 176.432048 
L 137.106708 175.687811 
L 134.563869 175.221362 
L 132.021031 174.739551 
L 129.478192 173.922999 
L 126.935354 172.835858 
L 124.392515 171.542281 
L 121.849677 170.10642 
L 119.306838 168.592427 
L 116.764 167.064455 
L 114.221161 165.586656 
L 111.678323 164.223183 
L 109.135485 163.247358 
L 106.592646 162.891417 
L 104.049808 162.788567 
L 101.506969 162.911728 
L 98.964131 163.233825 
L 96.421292 163.727779 
L 93.878454 164.366512 
L 91.335615 165.122949 
L 88.792777 165.97001 
L 86.249938 166.880619 
L 83.7071 167.827698 
L 81.164262 168.78437 
L 78.621423 169.732332 
L 76.078585 170.664875 
L 73.535746 171.576113 
L 70.992908 172.460162 
L 68.450069 173.311136 
L 65.907231 174.123151 
L 63.364392 174.89032 
L 60.821554 175.606759 
L 58.278715 176.266582 
L 55.735877 176.863905 
L 53.193038 177.392841 
L 50.6502 177.847507 
L 48.107362 178.222016 
L 45.564523 178.510484 
L 43.021685 178.707025 
L 40.478846 178.805754 
L 37.936008 178.800786 
L 35.393169 178.686236 
L 32.850331 178.456219 
L 30.307492 178.104848 
L 27.764654 177.62624 
z
" clip-path="url(#pae7d039b29)" style="fill: #aec7e8"/>
   </g>
   <g id="FillBetweenPolyCollection_3">
    <path d="M 27.764654 142.170319 
L 27.764654 177.62624 
L 30.307492 178.104848 
L 32.850331 178.456219 
L 35.393169 178.686236 
L 37.936008 178.800786 
L 40.478846 178.805754 
L 43.021685 178.707025 
L 45.564523 178.510484 
L 48.107362 178.222016 
L 50.6502 177.847507 
L 53.193038 177.392841 
L 55.735877 176.863905 
L 58.278715 176.266582 
L 60.821554 175.606759 
L 63.364392 174.89032 
L 65.907231 174.123151 
L 68.450069 173.311136 
L 70.992908 172.460162 
L 73.535746 171.576113 
L 76.078585 170.664875 
L 78.621423 169.732332 
L 81.164262 168.78437 
L 83.7071 167.827698 
L 86.249938 166.880619 
L 88.792777 165.97001 
L 91.335615 165.122949 
L 93.878454 164.366512 
L 96.421292 163.727779 
L 98.964131 163.233825 
L 101.506969 162.911728 
L 104.049808 162.788567 
L 106.592646 162.891417 
L 109.135485 163.247358 
L 111.678323 164.223183 
L 114.221161 165.586656 
L 116.764 167.064455 
L 119.306838 168.592427 
L 121.849677 170.10642 
L 124.392515 171.542281 
L 126.935354 172.835858 
L 129.478192 173.922999 
L 132.021031 174.739551 
L 134.563869 175.221362 
L 137.106708 175.687811 
L 139.649546 176.432048 
L 142.192384 177.007097 
L 144.735223 177.447781 
L 147.278061 177.788925 
L 149.8209 178.065353 
L 152.363738 178.311889 
L 154.906577 178.563357 
L 157.449415 178.854582 
L 159.992254 179.220387 
L 162.535092 179.695598 
L 165.077931 180.313558 
L 167.620769 181.079023 
L 170.163607 181.970891 
L 172.706446 182.967127 
L 175.249284 184.045697 
L 177.792123 185.184566 
L 180.334961 186.3617 
L 182.8778 187.555065 
L 185.420638 188.742625 
L 187.963477 189.902347 
L 190.506315 191.012196 
L 193.049154 192.049823 
L 195.591992 192.990875 
L 198.134831 193.810206 
L 200.677669 194.482672 
L 203.220507 194.983128 
L 205.763346 195.286427 
L 208.306184 195.367425 
L 210.849023 195.200976 
L 213.391861 194.761934 
L 215.9347 194.025154 
L 218.477538 192.965553 
L 221.020377 191.584222 
L 223.563215 189.948799 
L 226.106054 188.137342 
L 228.648892 186.227913 
L 231.19173 184.29857 
L 233.734569 182.427372 
L 236.277407 180.692378 
L 238.820246 179.171649 
L 241.363084 177.943243 
L 243.905923 177.08522 
L 246.448761 176.673467 
L 248.9916 176.723605 
L 251.534438 177.184623 
L 254.077277 178.002062 
L 256.620115 179.121462 
L 259.162953 180.488365 
L 261.705792 182.048312 
L 264.24863 183.746843 
L 266.791469 185.5295 
L 269.334307 187.341823 
L 271.877146 189.129353 
L 274.419984 190.841846 
L 276.962823 192.46348 
L 279.505661 193.995245 
L 282.0485 195.438239 
L 284.591338 196.793566 
L 287.134176 198.062326 
L 289.677015 199.245622 
L 292.219853 200.344553 
L 294.762692 201.360222 
L 297.30553 202.293731 
L 299.848369 203.146179 
L 302.391207 203.916763 
L 304.934046 204.598619 
L 307.476884 205.183683 
L 310.019723 205.663891 
L 312.562561 206.031179 
L 315.1054 206.277481 
L 317.648238 206.394734 
L 320.191076 206.374873 
L 322.733915 206.209834 
L 325.276753 205.891553 
L 327.819592 205.412263 
L 330.36243 204.776929 
L 332.905269 204.007735 
L 335.448107 203.128088 
L 337.990946 202.161395 
L 340.533784 201.131064 
L 343.076623 200.060501 
L 345.619461 198.973114 
L 348.162299 197.892309 
L 350.705138 196.841494 
L 353.247976 195.844076 
L 355.790815 194.923461 
L 358.333653 194.103058 
L 360.876492 193.406272 
L 363.41933 193.70677 
L 365.962169 194.355096 
L 368.505007 194.874678 
L 371.047846 195.247951 
L 373.590684 195.457348 
L 376.133522 195.485304 
L 378.676361 195.314251 
L 381.219199 195.091077 
L 381.219199 78.395708 
L 381.219199 78.395708 
L 378.676361 80.585106 
L 376.133522 82.536947 
L 373.590684 84.118133 
L 371.047846 85.36002 
L 368.505007 86.293963 
L 365.962169 86.951318 
L 363.41933 87.363441 
L 360.876492 88.020693 
L 358.333653 89.586318 
L 355.790815 91.200441 
L 353.247976 92.853444 
L 350.705138 94.535709 
L 348.162299 96.237618 
L 345.619461 97.949555 
L 343.076623 99.661901 
L 340.533784 101.365038 
L 337.990946 103.04935 
L 335.448107 104.705219 
L 332.905269 106.323026 
L 330.36243 107.893155 
L 327.819592 109.405987 
L 325.276753 110.852059 
L 322.733915 112.224065 
L 320.191076 113.516298 
L 317.648238 114.723086 
L 315.1054 115.838759 
L 312.562561 116.857644 
L 310.019723 117.774073 
L 307.476884 118.582372 
L 304.934046 119.276872 
L 302.391207 119.851901 
L 299.848369 120.301789 
L 297.30553 120.62034 
L 294.762692 120.798714 
L 292.219853 120.827237 
L 289.677015 120.696239 
L 287.134176 120.396046 
L 284.591338 119.916985 
L 282.0485 119.249385 
L 279.505661 118.383573 
L 276.962823 117.309877 
L 274.419984 116.018623 
L 271.877146 114.500348 
L 269.334307 112.776391 
L 266.791469 110.931176 
L 264.24863 109.056849 
L 261.705792 107.245557 
L 259.162953 105.589447 
L 256.620115 104.180665 
L 254.077277 103.111357 
L 251.534438 102.473672 
L 248.9916 102.359755 
L 246.448761 102.861753 
L 243.905923 104.066029 
L 241.363084 105.947169 
L 238.820246 108.37866 
L 236.277407 111.230346 
L 233.734569 114.37207 
L 231.19173 117.673677 
L 228.648892 121.00501 
L 226.106054 124.235912 
L 223.563215 127.236229 
L 221.020377 129.875803 
L 218.477538 132.024479 
L 215.9347 133.572888 
L 213.391861 134.544428 
L 210.849023 135.014707 
L 208.306184 135.059461 
L 205.763346 134.754425 
L 203.220507 134.175334 
L 200.677669 133.397922 
L 198.134831 132.497926 
L 195.591992 131.551081 
L 193.049154 130.63312 
L 190.506315 129.819724 
L 187.963477 129.163425 
L 185.420638 128.657895 
L 182.8778 128.287591 
L 180.334961 128.036971 
L 177.792123 127.890492 
L 175.249284 127.832609 
L 172.706446 127.847781 
L 170.163607 127.920464 
L 167.620769 128.035115 
L 165.077931 128.17619 
L 162.535092 128.328117 
L 159.992254 128.474459 
L 157.449415 128.597828 
L 154.906577 128.680788 
L 152.363738 128.705899 
L 149.8209 128.655727 
L 147.278061 128.512832 
L 144.735223 128.259778 
L 142.192384 127.879127 
L 139.649546 127.353442 
L 137.106708 126.665286 
L 134.563869 126.278047 
L 132.021031 125.907009 
L 129.478192 125.237335 
L 126.935354 124.337692 
L 124.392515 123.276747 
L 121.849677 122.123169 
L 119.306838 120.945624 
L 116.764 119.81278 
L 114.221161 118.793305 
L 111.678323 117.955865 
L 109.135485 117.578297 
L 106.592646 117.892803 
L 104.049808 118.518089 
L 101.506969 119.409713 
L 98.964131 120.523232 
L 96.421292 121.8142 
L 93.878454 123.238176 
L 91.335615 124.750716 
L 88.792777 126.307376 
L 86.249938 127.863713 
L 83.7071 129.375283 
L 81.164262 130.798113 
L 78.621423 132.108287 
L 76.078585 133.309023 
L 73.535746 134.405464 
L 70.992908 135.402753 
L 68.450069 136.306033 
L 65.907231 137.120449 
L 63.364392 137.851142 
L 60.821554 138.503257 
L 58.278715 139.081937 
L 55.735877 139.592325 
L 53.193038 140.039565 
L 50.6502 140.428799 
L 48.107362 140.765171 
L 45.564523 141.053825 
L 43.021685 141.299903 
L 40.478846 141.50855 
L 37.936008 141.684907 
L 35.393169 141.83412 
L 32.850331 141.96133 
L 30.307492 142.071682 
L 27.764654 142.170319 
z
" clip-path="url(#pae7d039b29)" style="fill: #ff7f0e"/>
   </g>
   <g id="FillBetweenPolyCollection_4">
    <path d="M 27.764654 108.687826 
L 27.764654 142.170319 
L 30.307492 142.071682 
L 32.850331 141.96133 
L 35.393169 141.83412 
L 37.936008 141.684907 
L 40.478846 141.50855 
L 43.021685 141.299903 
L 45.564523 141.053825 
L 48.107362 140.765171 
L 50.6502 140.428799 
L 53.193038 140.039565 
L 55.735877 139.592325 
L 58.278715 139.081937 
L 60.821554 138.503257 
L 63.364392 137.851142 
L 65.907231 137.120449 
L 68.450069 136.306033 
L 70.992908 135.402753 
L 73.535746 134.405464 
L 76.078585 133.309023 
L 78.621423 132.108287 
L 81.164262 130.798113 
L 83.7071 129.375283 
L 86.249938 127.863713 
L 88.792777 126.307376 
L 91.335615 124.750716 
L 93.878454 123.238176 
L 96.421292 121.8142 
L 98.964131 120.523232 
L 101.506969 119.409713 
L 104.049808 118.518089 
L 106.592646 117.892803 
L 109.135485 117.578297 
L 111.678323 117.955865 
L 114.221161 118.793305 
L 116.764 119.81278 
L 119.306838 120.945624 
L 121.849677 122.123169 
L 124.392515 123.276747 
L 126.935354 124.337692 
L 129.478192 125.237335 
L 132.021031 125.907009 
L 134.563869 126.278047 
L 137.106708 126.665286 
L 139.649546 127.353442 
L 142.192384 127.879127 
L 144.735223 128.259778 
L 147.278061 128.512832 
L 149.8209 128.655727 
L 152.363738 128.705899 
L 154.906577 128.680788 
L 157.449415 128.597828 
L 159.992254 128.474459 
L 162.535092 128.328117 
L 165.077931 128.17619 
L 167.620769 128.035115 
L 170.163607 127.920464 
L 172.706446 127.847781 
L 175.249284 127.832609 
L 177.792123 127.890492 
L 180.334961 128.036971 
L 182.8778 128.287591 
L 185.420638 128.657895 
L 187.963477 129.163425 
L 190.506315 129.819724 
L 193.049154 130.63312 
L 195.591992 131.551081 
L 198.134831 132.497926 
L 200.677669 133.397922 
L 203.220507 134.175334 
L 205.763346 134.754425 
L 208.306184 135.059461 
L 210.849023 135.014707 
L 213.391861 134.544428 
L 215.9347 133.572888 
L 218.477538 132.024479 
L 221.020377 129.875803 
L 223.563215 127.236229 
L 226.106054 124.235912 
L 228.648892 121.00501 
L 231.19173 117.673677 
L 233.734569 114.37207 
L 236.277407 111.230346 
L 238.820246 108.37866 
L 241.363084 105.947169 
L 243.905923 104.066029 
L 246.448761 102.861753 
L 248.9916 102.359755 
L 251.534438 102.473672 
L 254.077277 103.111357 
L 256.620115 104.180665 
L 259.162953 105.589447 
L 261.705792 107.245557 
L 264.24863 109.056849 
L 266.791469 110.931176 
L 269.334307 112.776391 
L 271.877146 114.500348 
L 274.419984 116.018623 
L 276.962823 117.309877 
L 279.505661 118.383573 
L 282.0485 119.249385 
L 284.591338 119.916985 
L 287.134176 120.396046 
L 289.677015 120.696239 
L 292.219853 120.827237 
L 294.762692 120.798714 
L 297.30553 120.62034 
L 299.848369 120.301789 
L 302.391207 119.851901 
L 304.934046 119.276872 
L 307.476884 118.582372 
L 310.019723 117.774073 
L 312.562561 116.857644 
L 315.1054 115.838759 
L 317.648238 114.723086 
L 320.191076 113.516298 
L 322.733915 112.224065 
L 325.276753 110.852059 
L 327.819592 109.405987 
L 330.36243 107.893155 
L 332.905269 106.323026 
L 335.448107 104.705219 
L 337.990946 103.04935 
L 340.533784 101.365038 
L 343.076623 99.661901 
L 345.619461 97.949555 
L 348.162299 96.237618 
L 350.705138 94.535709 
L 353.247976 92.853444 
L 355.790815 91.200441 
L 358.333653 89.586318 
L 360.876492 88.020693 
L 363.41933 87.363441 
L 365.962169 86.951318 
L 368.505007 86.293963 
L 371.047846 85.36002 
L 373.590684 84.118133 
L 376.133522 82.536947 
L 378.676361 80.585106 
L 381.219199 78.395708 
L 381.219199 78.066803 
L 381.219199 78.066803 
L 378.676361 80.585106 
L 376.133522 82.536947 
L 373.590684 84.118133 
L 371.047846 85.36002 
L 368.505007 86.293963 
L 365.962169 86.951318 
L 363.41933 87.363441 
L 360.876492 87.102681 
L 358.333653 85.568504 
L 355.790815 83.683497 
L 353.247976 81.51999 
L 350.705138 79.15031 
L 348.162299 76.646788 
L 345.619461 74.08175 
L 343.076623 71.527526 
L 340.533784 69.056444 
L 337.990946 66.740834 
L 335.448107 64.653023 
L 332.905269 62.86534 
L 330.36243 61.450115 
L 327.819592 60.479675 
L 325.276753 60.02125 
L 322.733915 60.070239 
L 320.191076 60.56894 
L 317.648238 61.458407 
L 315.1054 62.679695 
L 312.562561 64.173856 
L 310.019723 65.881945 
L 307.476884 67.745016 
L 304.934046 69.704122 
L 302.391207 71.700317 
L 299.848369 73.674656 
L 297.30553 75.576734 
L 294.762692 77.399217 
L 292.219853 79.148314 
L 289.677015 80.83024 
L 287.134176 82.45121 
L 284.591338 84.017439 
L 282.0485 85.535142 
L 279.505661 87.010534 
L 276.962823 88.449828 
L 274.419984 89.859241 
L 271.877146 91.24492 
L 269.334307 92.603079 
L 266.791469 93.909597 
L 264.24863 95.137859 
L 261.705792 96.261251 
L 259.162953 97.253158 
L 256.620115 98.086968 
L 254.077277 98.736066 
L 251.534438 99.173837 
L 248.9916 99.373669 
L 246.448761 99.308947 
L 243.905923 98.955093 
L 241.363084 98.326881 
L 238.820246 97.474676 
L 236.277407 96.450126 
L 233.734569 95.304881 
L 231.19173 94.090587 
L 228.648892 92.858893 
L 226.106054 91.661447 
L 223.563215 90.549898 
L 221.020377 89.575893 
L 218.477538 88.79108 
L 215.9347 88.238831 
L 213.391861 87.909659 
L 210.849023 87.773289 
L 208.306184 87.799395 
L 205.763346 87.957652 
L 203.220507 88.217736 
L 200.677669 88.54932 
L 198.134831 88.922081 
L 195.591992 89.305691 
L 193.049154 89.669828 
L 190.506315 89.984211 
L 187.963477 90.238352 
L 185.420638 90.472067 
L 182.8778 90.733055 
L 180.334961 91.069013 
L 177.792123 91.527636 
L 175.249284 92.156622 
L 172.706446 93.003668 
L 170.163607 94.116471 
L 167.620769 95.542728 
L 165.077931 97.330135 
L 162.535092 99.523937 
L 159.992254 102.101286 
L 157.449415 104.964057 
L 154.906577 108.010228 
L 152.363738 111.137777 
L 149.8209 114.244683 
L 147.278061 117.228924 
L 144.735223 119.988478 
L 142.192384 122.421324 
L 139.649546 124.425439 
L 137.106708 125.898802 
L 134.563869 126.278047 
L 132.021031 125.907009 
L 129.478192 125.237335 
L 126.935354 124.337692 
L 124.392515 123.276747 
L 121.849677 122.123169 
L 119.306838 120.945624 
L 116.764 119.81278 
L 114.221161 118.793305 
L 111.678323 117.955865 
L 109.135485 117.159944 
L 106.592646 116.264634 
L 104.049808 115.596173 
L 101.506969 115.114925 
L 98.964131 114.781254 
L 96.421292 114.555525 
L 93.878454 114.398101 
L 91.335615 114.269346 
L 88.792777 114.129624 
L 86.249938 113.939299 
L 83.7071 113.658735 
L 81.164262 113.248902 
L 78.621423 112.696646 
L 76.078585 112.023809 
L 73.535746 111.254722 
L 70.992908 110.413715 
L 68.450069 109.525115 
L 65.907231 108.613254 
L 63.364392 107.70246 
L 60.821554 106.817062 
L 58.278715 105.98139 
L 55.735877 105.219773 
L 53.193038 104.556541 
L 50.6502 104.016023 
L 48.107362 103.622548 
L 45.564523 103.400445 
L 43.021685 103.374045 
L 40.478846 103.567675 
L 37.936008 104.005667 
L 35.393169 104.712348 
L 32.850331 105.712049 
L 30.307492 107.029098 
L 27.764654 108.687826 
z
" clip-path="url(#pae7d039b29)" style="fill: #ffbb78"/>
   </g>
   <g id="matplotlib.axis_1">
    <g id="xtick_1">
     <g id="line2d_1">
      <defs>
       <path id="mf4a1e69b53" d="M 0 0 
L 0 3.5 
" style="stroke: #000000; stroke-width: 0.8"/>
      </defs>
      <g>
       <use xlink:href="#mf4a1e69b53" x="27.764654" y="314.12125" style="stroke: #000000; stroke-width: 0.8"/>
      </g>
     </g>
     <g id="text_1">
      <!-- 1985 -->
      <g transform="translate(12.109973 340.173358) rotate(-45) scale(0.1 -0.1)">
       <defs>
        <path id="TimesNewRomanPSMT-31" d="M 750 3822 
L 1781 4325 
L 1884 4325 
L 1884 747 
Q 1884 391 1914 303 
Q 1944 216 2037 169 
Q 2131 122 2419 116 
L 2419 0 
L 825 0 
L 825 116 
Q 1125 122 1212 167 
Q 1300 213 1334 289 
Q 1369 366 1369 747 
L 1369 3034 
Q 1369 3497 1338 3628 
Q 1316 3728 1258 3775 
Q 1200 3822 1119 3822 
Q 1003 3822 797 3725 
L 750 3822 
z
" transform="scale(0.015625)"/>
        <path id="TimesNewRomanPSMT-39" d="M 338 -88 
L 338 28 
Q 744 34 1094 217 
Q 1444 400 1770 856 
Q 2097 1313 2225 1859 
Q 1734 1544 1338 1544 
Q 891 1544 572 1889 
Q 253 2234 253 2806 
Q 253 3363 572 3797 
Q 956 4325 1575 4325 
Q 2097 4325 2469 3894 
Q 2925 3359 2925 2575 
Q 2925 1869 2578 1258 
Q 2231 647 1613 244 
Q 1109 -88 516 -88 
L 338 -88 
z
M 2275 2091 
Q 2331 2497 2331 2741 
Q 2331 3044 2228 3395 
Q 2125 3747 1936 3934 
Q 1747 4122 1506 4122 
Q 1228 4122 1018 3872 
Q 809 3622 809 3128 
Q 809 2469 1088 2097 
Q 1291 1828 1588 1828 
Q 1731 1828 1928 1897 
Q 2125 1966 2275 2091 
z
" transform="scale(0.015625)"/>
        <path id="TimesNewRomanPSMT-38" d="M 1228 2134 
Q 725 2547 579 2797 
Q 434 3047 434 3316 
Q 434 3728 753 4026 
Q 1072 4325 1600 4325 
Q 2113 4325 2425 4047 
Q 2738 3769 2738 3413 
Q 2738 3175 2569 2928 
Q 2400 2681 1866 2347 
Q 2416 1922 2594 1678 
Q 2831 1359 2831 1006 
Q 2831 559 2490 242 
Q 2150 -75 1597 -75 
Q 994 -75 656 303 
Q 388 606 388 966 
Q 388 1247 577 1523 
Q 766 1800 1228 2134 
z
M 1719 2469 
Q 2094 2806 2194 3001 
Q 2294 3197 2294 3444 
Q 2294 3772 2109 3958 
Q 1925 4144 1606 4144 
Q 1288 4144 1088 3959 
Q 888 3775 888 3528 
Q 888 3366 970 3203 
Q 1053 3041 1206 2894 
L 1719 2469 
z
M 1375 2016 
Q 1116 1797 991 1539 
Q 866 1281 866 981 
Q 866 578 1086 336 
Q 1306 94 1647 94 
Q 1984 94 2187 284 
Q 2391 475 2391 747 
Q 2391 972 2272 1150 
Q 2050 1481 1375 2016 
z
" transform="scale(0.015625)"/>
        <path id="TimesNewRomanPSMT-35" d="M 2778 4238 
L 2534 3706 
L 1259 3706 
L 981 3138 
Q 1809 3016 2294 2522 
Q 2709 2097 2709 1522 
Q 2709 1188 2573 903 
Q 2438 619 2231 419 
Q 2025 219 1772 97 
Q 1413 -75 1034 -75 
Q 653 -75 479 54 
Q 306 184 306 341 
Q 306 428 378 495 
Q 450 563 559 563 
Q 641 563 702 538 
Q 763 513 909 409 
Q 1144 247 1384 247 
Q 1750 247 2026 523 
Q 2303 800 2303 1197 
Q 2303 1581 2056 1914 
Q 1809 2247 1375 2428 
Q 1034 2569 447 2591 
L 1259 4238 
L 2778 4238 
z
" transform="scale(0.015625)"/>
       </defs>
       <use xlink:href="#TimesNewRomanPSMT-31"/>
       <use xlink:href="#TimesNewRomanPSMT-39" transform="translate(50 0)"/>
       <use xlink:href="#TimesNewRomanPSMT-38" transform="translate(100 0)"/>
       <use xlink:href="#TimesNewRomanPSMT-35" transform="translate(150 0)"/>
      </g>
     </g>
    </g>
    <g id="xtick_2">
     <g id="line2d_2">
      <g>
       <use xlink:href="#mf4a1e69b53" x="54.953465" y="314.12125" style="stroke: #000000; stroke-width: 0.8"/>
      </g>
     </g>
     <g id="text_2">
      <!-- 1986 -->
      <g transform="translate(39.298784 340.173358) rotate(-45) scale(0.1 -0.1)">
       <defs>
        <path id="TimesNewRomanPSMT-36" d="M 2869 4325 
L 2869 4209 
Q 2456 4169 2195 4045 
Q 1934 3922 1679 3669 
Q 1425 3416 1258 3105 
Q 1091 2794 978 2366 
Q 1428 2675 1881 2675 
Q 2316 2675 2634 2325 
Q 2953 1975 2953 1425 
Q 2953 894 2631 456 
Q 2244 -75 1606 -75 
Q 1172 -75 869 213 
Q 275 772 275 1663 
Q 275 2231 503 2743 
Q 731 3256 1154 3653 
Q 1578 4050 1965 4187 
Q 2353 4325 2688 4325 
L 2869 4325 
z
M 925 2138 
Q 869 1716 869 1456 
Q 869 1156 980 804 
Q 1091 453 1309 247 
Q 1469 100 1697 100 
Q 1969 100 2183 356 
Q 2397 613 2397 1088 
Q 2397 1622 2184 2012 
Q 1972 2403 1581 2403 
Q 1463 2403 1327 2353 
Q 1191 2303 925 2138 
z
" transform="scale(0.015625)"/>
       </defs>
       <use xlink:href="#TimesNewRomanPSMT-31"/>
       <use xlink:href="#TimesNewRomanPSMT-39" transform="translate(50 0)"/>
       <use xlink:href="#TimesNewRomanPSMT-38" transform="translate(100 0)"/>
       <use xlink:href="#TimesNewRomanPSMT-36" transform="translate(150 0)"/>
      </g>
     </g>
    </g>
    <g id="xtick_3">
     <g id="line2d_3">
      <g>
       <use xlink:href="#mf4a1e69b53" x="82.142276" y="314.12125" style="stroke: #000000; stroke-width: 0.8"/>
      </g>
     </g>
     <g id="text_3">
      <!-- 1987 -->
      <g transform="translate(66.487595 340.173358) rotate(-45) scale(0.1 -0.1)">
       <defs>
        <path id="TimesNewRomanPSMT-37" d="M 644 4238 
L 2916 4238 
L 2916 4119 
L 1503 -88 
L 1153 -88 
L 2419 3728 
L 1253 3728 
Q 900 3728 750 3644 
Q 488 3500 328 3200 
L 238 3234 
L 644 4238 
z
" transform="scale(0.015625)"/>
       </defs>
       <use xlink:href="#TimesNewRomanPSMT-31"/>
       <use xlink:href="#TimesNewRomanPSMT-39" transform="translate(50 0)"/>
       <use xlink:href="#TimesNewRomanPSMT-38" transform="translate(100 0)"/>
       <use xlink:href="#TimesNewRomanPSMT-37" transform="translate(150 0)"/>
      </g>
     </g>
    </g>
    <g id="xtick_4">
     <g id="line2d_4">
      <g>
       <use xlink:href="#mf4a1e69b53" x="109.331088" y="314.12125" style="stroke: #000000; stroke-width: 0.8"/>
      </g>
     </g>
     <g id="text_4">
      <!-- 1988 -->
      <g transform="translate(93.676406 340.173358) rotate(-45) scale(0.1 -0.1)">
       <use xlink:href="#TimesNewRomanPSMT-31"/>
       <use xlink:href="#TimesNewRomanPSMT-39" transform="translate(50 0)"/>
       <use xlink:href="#TimesNewRomanPSMT-38" transform="translate(100 0)"/>
       <use xlink:href="#TimesNewRomanPSMT-38" transform="translate(150 0)"/>
      </g>
     </g>
    </g>
    <g id="xtick_5">
     <g id="line2d_5">
      <g>
       <use xlink:href="#mf4a1e69b53" x="136.519899" y="314.12125" style="stroke: #000000; stroke-width: 0.8"/>
      </g>
     </g>
     <g id="text_5">
      <!-- 1989 -->
      <g transform="translate(120.865217 340.173358) rotate(-45) scale(0.1 -0.1)">
       <use xlink:href="#TimesNewRomanPSMT-31"/>
       <use xlink:href="#TimesNewRomanPSMT-39" transform="translate(50 0)"/>
       <use xlink:href="#TimesNewRomanPSMT-38" transform="translate(100 0)"/>
       <use xlink:href="#TimesNewRomanPSMT-39" transform="translate(150 0)"/>
      </g>
     </g>
    </g>
    <g id="xtick_6">
     <g id="line2d_6">
      <g>
       <use xlink:href="#mf4a1e69b53" x="163.70871" y="314.12125" style="stroke: #000000; stroke-width: 0.8"/>
      </g>
     </g>
     <g id="text_6">
      <!-- 1990 -->
      <g transform="translate(148.054029 340.173358) rotate(-45) scale(0.1 -0.1)">
       <defs>
        <path id="TimesNewRomanPSMT-30" d="M 231 2094 
Q 231 2819 450 3342 
Q 669 3866 1031 4122 
Q 1313 4325 1613 4325 
Q 2100 4325 2488 3828 
Q 2972 3213 2972 2159 
Q 2972 1422 2759 906 
Q 2547 391 2217 158 
Q 1888 -75 1581 -75 
Q 975 -75 572 641 
Q 231 1244 231 2094 
z
M 844 2016 
Q 844 1141 1059 588 
Q 1238 122 1591 122 
Q 1759 122 1940 273 
Q 2122 425 2216 781 
Q 2359 1319 2359 2297 
Q 2359 3022 2209 3506 
Q 2097 3866 1919 4016 
Q 1791 4119 1609 4119 
Q 1397 4119 1231 3928 
Q 1006 3669 925 3112 
Q 844 2556 844 2016 
z
" transform="scale(0.015625)"/>
       </defs>
       <use xlink:href="#TimesNewRomanPSMT-31"/>
       <use xlink:href="#TimesNewRomanPSMT-39" transform="translate(50 0)"/>
       <use xlink:href="#TimesNewRomanPSMT-39" transform="translate(100 0)"/>
       <use xlink:href="#TimesNewRomanPSMT-30" transform="translate(150 0)"/>
      </g>
     </g>
    </g>
    <g id="xtick_7">
     <g id="line2d_7">
      <g>
       <use xlink:href="#mf4a1e69b53" x="190.897521" y="314.12125" style="stroke: #000000; stroke-width: 0.8"/>
      </g>
     </g>
     <g id="text_7">
      <!-- 1991 -->
      <g transform="translate(175.24284 340.173358) rotate(-45) scale(0.1 -0.1)">
       <use xlink:href="#TimesNewRomanPSMT-31"/>
       <use xlink:href="#TimesNewRomanPSMT-39" transform="translate(50 0)"/>
       <use xlink:href="#TimesNewRomanPSMT-39" transform="translate(100 0)"/>
       <use xlink:href="#TimesNewRomanPSMT-31" transform="translate(150 0)"/>
      </g>
     </g>
    </g>
    <g id="xtick_8">
     <g id="line2d_8">
      <g>
       <use xlink:href="#mf4a1e69b53" x="218.086332" y="314.12125" style="stroke: #000000; stroke-width: 0.8"/>
      </g>
     </g>
     <g id="text_8">
      <!-- 1992 -->
      <g transform="translate(202.431651 340.173358) rotate(-45) scale(0.1 -0.1)">
       <defs>
        <path id="TimesNewRomanPSMT-32" d="M 2934 816 
L 2638 0 
L 138 0 
L 138 116 
Q 1241 1122 1691 1759 
Q 2141 2397 2141 2925 
Q 2141 3328 1894 3587 
Q 1647 3847 1303 3847 
Q 991 3847 742 3664 
Q 494 3481 375 3128 
L 259 3128 
Q 338 3706 661 4015 
Q 984 4325 1469 4325 
Q 1984 4325 2329 3994 
Q 2675 3663 2675 3213 
Q 2675 2891 2525 2569 
Q 2294 2063 1775 1497 
Q 997 647 803 472 
L 1909 472 
Q 2247 472 2383 497 
Q 2519 522 2628 598 
Q 2738 675 2819 816 
L 2934 816 
z
" transform="scale(0.015625)"/>
       </defs>
       <use xlink:href="#TimesNewRomanPSMT-31"/>
       <use xlink:href="#TimesNewRomanPSMT-39" transform="translate(50 0)"/>
       <use xlink:href="#TimesNewRomanPSMT-39" transform="translate(100 0)"/>
       <use xlink:href="#TimesNewRomanPSMT-32" transform="translate(150 0)"/>
      </g>
     </g>
    </g>
    <g id="xtick_9">
     <g id="line2d_9">
      <g>
       <use xlink:href="#mf4a1e69b53" x="245.275143" y="314.12125" style="stroke: #000000; stroke-width: 0.8"/>
      </g>
     </g>
     <g id="text_9">
      <!-- 1993 -->
      <g transform="translate(229.620462 340.173358) rotate(-45) scale(0.1 -0.1)">
       <defs>
        <path id="TimesNewRomanPSMT-33" d="M 325 3431 
Q 506 3859 782 4092 
Q 1059 4325 1472 4325 
Q 1981 4325 2253 3994 
Q 2459 3747 2459 3466 
Q 2459 3003 1878 2509 
Q 2269 2356 2469 2072 
Q 2669 1788 2669 1403 
Q 2669 853 2319 450 
Q 1863 -75 997 -75 
Q 569 -75 414 31 
Q 259 138 259 259 
Q 259 350 332 419 
Q 406 488 509 488 
Q 588 488 669 463 
Q 722 447 909 348 
Q 1097 250 1169 231 
Q 1284 197 1416 197 
Q 1734 197 1970 444 
Q 2206 691 2206 1028 
Q 2206 1275 2097 1509 
Q 2016 1684 1919 1775 
Q 1784 1900 1550 2001 
Q 1316 2103 1072 2103 
L 972 2103 
L 972 2197 
Q 1219 2228 1467 2375 
Q 1716 2522 1828 2728 
Q 1941 2934 1941 3181 
Q 1941 3503 1739 3701 
Q 1538 3900 1238 3900 
Q 753 3900 428 3381 
L 325 3431 
z
" transform="scale(0.015625)"/>
       </defs>
       <use xlink:href="#TimesNewRomanPSMT-31"/>
       <use xlink:href="#TimesNewRomanPSMT-39" transform="translate(50 0)"/>
       <use xlink:href="#TimesNewRomanPSMT-39" transform="translate(100 0)"/>
       <use xlink:href="#TimesNewRomanPSMT-33" transform="translate(150 0)"/>
      </g>
     </g>
    </g>
    <g id="xtick_10">
     <g id="line2d_10">
      <g>
       <use xlink:href="#mf4a1e69b53" x="272.463955" y="314.12125" style="stroke: #000000; stroke-width: 0.8"/>
      </g>
     </g>
     <g id="text_10">
      <!-- 1994 -->
      <g transform="translate(256.809273 340.173358) rotate(-45) scale(0.1 -0.1)">
       <defs>
        <path id="TimesNewRomanPSMT-34" d="M 2978 1563 
L 2978 1119 
L 2409 1119 
L 2409 0 
L 1894 0 
L 1894 1119 
L 100 1119 
L 100 1519 
L 2066 4325 
L 2409 4325 
L 2409 1563 
L 2978 1563 
z
M 1894 1563 
L 1894 3666 
L 406 1563 
L 1894 1563 
z
" transform="scale(0.015625)"/>
       </defs>
       <use xlink:href="#TimesNewRomanPSMT-31"/>
       <use xlink:href="#TimesNewRomanPSMT-39" transform="translate(50 0)"/>
       <use xlink:href="#TimesNewRomanPSMT-39" transform="translate(100 0)"/>
       <use xlink:href="#TimesNewRomanPSMT-34" transform="translate(150 0)"/>
      </g>
     </g>
    </g>
    <g id="xtick_11">
     <g id="line2d_11">
      <g>
       <use xlink:href="#mf4a1e69b53" x="299.652766" y="314.12125" style="stroke: #000000; stroke-width: 0.8"/>
      </g>
     </g>
     <g id="text_11">
      <!-- 1995 -->
      <g transform="translate(283.998085 340.173358) rotate(-45) scale(0.1 -0.1)">
       <use xlink:href="#TimesNewRomanPSMT-31"/>
       <use xlink:href="#TimesNewRomanPSMT-39" transform="translate(50 0)"/>
       <use xlink:href="#TimesNewRomanPSMT-39" transform="translate(100 0)"/>
       <use xlink:href="#TimesNewRomanPSMT-35" transform="translate(150 0)"/>
      </g>
     </g>
    </g>
    <g id="xtick_12">
     <g id="line2d_12">
      <g>
       <use xlink:href="#mf4a1e69b53" x="326.841577" y="314.12125" style="stroke: #000000; stroke-width: 0.8"/>
      </g>
     </g>
     <g id="text_12">
      <!-- 1996 -->
      <g transform="translate(311.186896 340.173358) rotate(-45) scale(0.1 -0.1)">
       <use xlink:href="#TimesNewRomanPSMT-31"/>
       <use xlink:href="#TimesNewRomanPSMT-39" transform="translate(50 0)"/>
       <use xlink:href="#TimesNewRomanPSMT-39" transform="translate(100 0)"/>
       <use xlink:href="#TimesNewRomanPSMT-36" transform="translate(150 0)"/>
      </g>
     </g>
    </g>
    <g id="xtick_13">
     <g id="line2d_13">
      <g>
       <use xlink:href="#mf4a1e69b53" x="354.030388" y="314.12125" style="stroke: #000000; stroke-width: 0.8"/>
      </g>
     </g>
     <g id="text_13">
      <!-- 1997 -->
      <g transform="translate(338.375707 340.173358) rotate(-45) scale(0.1 -0.1)">
       <use xlink:href="#TimesNewRomanPSMT-31"/>
       <use xlink:href="#TimesNewRomanPSMT-39" transform="translate(50 0)"/>
       <use xlink:href="#TimesNewRomanPSMT-39" transform="translate(100 0)"/>
       <use xlink:href="#TimesNewRomanPSMT-37" transform="translate(150 0)"/>
      </g>
     </g>
    </g>
    <g id="xtick_14">
     <g id="line2d_14">
      <g>
       <use xlink:href="#mf4a1e69b53" x="381.219199" y="314.12125" style="stroke: #000000; stroke-width: 0.8"/>
      </g>
     </g>
     <g id="text_14">
      <!-- 1998 -->
      <g transform="translate(365.564518 340.173358) rotate(-45) scale(0.1 -0.1)">
       <use xlink:href="#TimesNewRomanPSMT-31"/>
       <use xlink:href="#TimesNewRomanPSMT-39" transform="translate(50 0)"/>
       <use xlink:href="#TimesNewRomanPSMT-39" transform="translate(100 0)"/>
       <use xlink:href="#TimesNewRomanPSMT-38" transform="translate(150 0)"/>
      </g>
     </g>
    </g>
    <g id="text_15">
     <!-- Year -->
     <g transform="translate(193.434114 354.018404) scale(0.12 -0.12)">
      <defs>
       <path id="TimesNewRomanPSMT-59" d="M 3050 4238 
L 4528 4238 
L 4528 4122 
L 4447 4122 
Q 4366 4122 4209 4050 
Q 4053 3978 3925 3843 
Q 3797 3709 3609 3406 
L 2588 1797 
L 2588 734 
Q 2588 344 2675 247 
Q 2794 116 3050 116 
L 3188 116 
L 3188 0 
L 1388 0 
L 1388 116 
L 1538 116 
Q 1806 116 1919 278 
Q 1988 378 1988 734 
L 1988 1738 
L 825 3513 
Q 619 3825 545 3903 
Q 472 3981 241 4091 
Q 178 4122 59 4122 
L 59 4238 
L 1872 4238 
L 1872 4122 
L 1778 4122 
Q 1631 4122 1507 4053 
Q 1384 3984 1384 3847 
Q 1384 3734 1575 3441 
L 2459 2075 
L 3291 3381 
Q 3478 3675 3478 3819 
Q 3478 3906 3433 3975 
Q 3388 4044 3303 4083 
Q 3219 4122 3050 4122 
L 3050 4238 
z
" transform="scale(0.015625)"/>
       <path id="TimesNewRomanPSMT-65" d="M 681 1784 
Q 678 1147 991 784 
Q 1303 422 1725 422 
Q 2006 422 2214 576 
Q 2422 731 2563 1106 
L 2659 1044 
Q 2594 616 2278 264 
Q 1963 -88 1488 -88 
Q 972 -88 605 314 
Q 238 716 238 1394 
Q 238 2128 614 2539 
Q 991 2950 1559 2950 
Q 2041 2950 2350 2633 
Q 2659 2316 2659 1784 
L 681 1784 
z
M 681 1966 
L 2006 1966 
Q 1991 2241 1941 2353 
Q 1863 2528 1708 2628 
Q 1553 2728 1384 2728 
Q 1125 2728 920 2526 
Q 716 2325 681 1966 
z
" transform="scale(0.015625)"/>
       <path id="TimesNewRomanPSMT-61" d="M 1822 413 
Q 1381 72 1269 19 
Q 1100 -59 909 -59 
Q 613 -59 420 144 
Q 228 347 228 678 
Q 228 888 322 1041 
Q 450 1253 767 1440 
Q 1084 1628 1822 1897 
L 1822 2009 
Q 1822 2438 1686 2597 
Q 1550 2756 1291 2756 
Q 1094 2756 978 2650 
Q 859 2544 859 2406 
L 866 2225 
Q 866 2081 792 2003 
Q 719 1925 600 1925 
Q 484 1925 411 2006 
Q 338 2088 338 2228 
Q 338 2497 613 2722 
Q 888 2947 1384 2947 
Q 1766 2947 2009 2819 
Q 2194 2722 2281 2516 
Q 2338 2381 2338 1966 
L 2338 994 
Q 2338 584 2353 492 
Q 2369 400 2405 369 
Q 2441 338 2488 338 
Q 2538 338 2575 359 
Q 2641 400 2828 588 
L 2828 413 
Q 2478 -56 2159 -56 
Q 2006 -56 1915 50 
Q 1825 156 1822 413 
z
M 1822 616 
L 1822 1706 
Q 1350 1519 1213 1441 
Q 966 1303 859 1153 
Q 753 1003 753 825 
Q 753 600 887 451 
Q 1022 303 1197 303 
Q 1434 303 1822 616 
z
" transform="scale(0.015625)"/>
       <path id="TimesNewRomanPSMT-72" d="M 1038 2947 
L 1038 2303 
Q 1397 2947 1775 2947 
Q 1947 2947 2059 2842 
Q 2172 2738 2172 2600 
Q 2172 2478 2090 2393 
Q 2009 2309 1897 2309 
Q 1788 2309 1652 2417 
Q 1516 2525 1450 2525 
Q 1394 2525 1328 2463 
Q 1188 2334 1038 2041 
L 1038 669 
Q 1038 431 1097 309 
Q 1138 225 1241 169 
Q 1344 113 1538 113 
L 1538 0 
L 72 0 
L 72 113 
Q 291 113 397 181 
Q 475 231 506 341 
Q 522 394 522 644 
L 522 1753 
Q 522 2253 501 2348 
Q 481 2444 426 2487 
Q 372 2531 291 2531 
Q 194 2531 72 2484 
L 41 2597 
L 906 2947 
L 1038 2947 
z
" transform="scale(0.015625)"/>
      </defs>
      <use xlink:href="#TimesNewRomanPSMT-59"/>
      <use xlink:href="#TimesNewRomanPSMT-65" transform="translate(62.216797 0)"/>
      <use xlink:href="#TimesNewRomanPSMT-61" transform="translate(106.601562 0)"/>
      <use xlink:href="#TimesNewRomanPSMT-72" transform="translate(150.986328 0)"/>
     </g>
    </g>
   </g>
   <g id="patch_3">
    <path d="M 10.091927 314.12125 
L 10.091927 36.92125 
" style="fill: none; stroke: #000000; stroke-width: 0.8; stroke-linejoin: miter; stroke-linecap: square"/>
   </g>
   <g id="patch_4">
    <path d="M 398.891927 314.12125 
L 398.891927 36.92125 
" style="fill: none; stroke: #000000; stroke-width: 0.8; stroke-linejoin: miter; stroke-linecap: square"/>
   </g>
   <g id="patch_5">
    <path d="M 10.091927 314.12125 
L 398.891927 314.12125 
" style="fill: none; stroke: #000000; stroke-width: 0.8; stroke-linejoin: miter; stroke-linecap: square"/>
   </g>
   <g id="patch_6">
    <path d="M 10.091927 36.92125 
L 398.891927 36.92125 
" style="fill: none; stroke: #000000; stroke-width: 0.8; stroke-linejoin: miter; stroke-linecap: square"/>
   </g>
   <g id="text_16">
    <!-- TV Ratings from 1985 to 1998 (million viewers)  -->
    <g transform="translate(66.187239 16.92125) scale(0.14 -0.14)">
     <defs>
      <path id="TimesNewRomanPSMT-54" d="M 3703 4238 
L 3750 3244 
L 3631 3244 
Q 3597 3506 3538 3619 
Q 3441 3800 3280 3886 
Q 3119 3972 2856 3972 
L 2259 3972 
L 2259 734 
Q 2259 344 2344 247 
Q 2463 116 2709 116 
L 2856 116 
L 2856 0 
L 1059 0 
L 1059 116 
L 1209 116 
Q 1478 116 1591 278 
Q 1659 378 1659 734 
L 1659 3972 
L 1150 3972 
Q 853 3972 728 3928 
Q 566 3869 450 3700 
Q 334 3531 313 3244 
L 194 3244 
L 244 4238 
L 3703 4238 
z
" transform="scale(0.015625)"/>
      <path id="TimesNewRomanPSMT-56" d="M 4544 4238 
L 4544 4122 
Q 4319 4081 4203 3978 
Q 4038 3825 3909 3509 
L 2431 -97 
L 2316 -97 
L 728 3556 
Q 606 3838 556 3900 
Q 478 3997 364 4051 
Q 250 4106 56 4122 
L 56 4238 
L 1788 4238 
L 1788 4122 
Q 1494 4094 1406 4022 
Q 1319 3950 1319 3838 
Q 1319 3681 1463 3350 
L 2541 866 
L 3541 3319 
Q 3688 3681 3688 3822 
Q 3688 3913 3597 3995 
Q 3506 4078 3291 4113 
Q 3275 4116 3238 4122 
L 3238 4238 
L 4544 4238 
z
" transform="scale(0.015625)"/>
      <path id="TimesNewRomanPSMT-20" transform="scale(0.015625)"/>
      <path id="TimesNewRomanPSMT-52" d="M 4325 0 
L 3194 0 
L 1759 1981 
Q 1600 1975 1500 1975 
Q 1459 1975 1412 1976 
Q 1366 1978 1316 1981 
L 1316 750 
Q 1316 350 1403 253 
Q 1522 116 1759 116 
L 1925 116 
L 1925 0 
L 109 0 
L 109 116 
L 269 116 
Q 538 116 653 291 
Q 719 388 719 750 
L 719 3488 
Q 719 3888 631 3984 
Q 509 4122 269 4122 
L 109 4122 
L 109 4238 
L 1653 4238 
Q 2328 4238 2648 4139 
Q 2969 4041 3192 3777 
Q 3416 3513 3416 3147 
Q 3416 2756 3161 2468 
Q 2906 2181 2372 2063 
L 3247 847 
Q 3547 428 3762 290 
Q 3978 153 4325 116 
L 4325 0 
z
M 1316 2178 
Q 1375 2178 1419 2176 
Q 1463 2175 1491 2175 
Q 2097 2175 2405 2437 
Q 2713 2700 2713 3106 
Q 2713 3503 2464 3751 
Q 2216 4000 1806 4000 
Q 1625 4000 1316 3941 
L 1316 2178 
z
" transform="scale(0.015625)"/>
      <path id="TimesNewRomanPSMT-74" d="M 1031 3803 
L 1031 2863 
L 1700 2863 
L 1700 2644 
L 1031 2644 
L 1031 788 
Q 1031 509 1111 412 
Q 1191 316 1316 316 
Q 1419 316 1516 380 
Q 1613 444 1666 569 
L 1788 569 
Q 1678 263 1478 108 
Q 1278 -47 1066 -47 
Q 922 -47 784 33 
Q 647 113 581 261 
Q 516 409 516 719 
L 516 2644 
L 63 2644 
L 63 2747 
Q 234 2816 414 2980 
Q 594 3144 734 3369 
Q 806 3488 934 3803 
L 1031 3803 
z
" transform="scale(0.015625)"/>
      <path id="TimesNewRomanPSMT-69" d="M 928 4444 
Q 1059 4444 1151 4351 
Q 1244 4259 1244 4128 
Q 1244 3997 1151 3903 
Q 1059 3809 928 3809 
Q 797 3809 703 3903 
Q 609 3997 609 4128 
Q 609 4259 701 4351 
Q 794 4444 928 4444 
z
M 1188 2947 
L 1188 647 
Q 1188 378 1227 289 
Q 1266 200 1342 156 
Q 1419 113 1622 113 
L 1622 0 
L 231 0 
L 231 113 
Q 441 113 512 153 
Q 584 194 626 287 
Q 669 381 669 647 
L 669 1750 
Q 669 2216 641 2353 
Q 619 2453 572 2492 
Q 525 2531 444 2531 
Q 356 2531 231 2484 
L 188 2597 
L 1050 2947 
L 1188 2947 
z
" transform="scale(0.015625)"/>
      <path id="TimesNewRomanPSMT-6e" d="M 1034 2341 
Q 1538 2947 1994 2947 
Q 2228 2947 2397 2830 
Q 2566 2713 2666 2444 
Q 2734 2256 2734 1869 
L 2734 647 
Q 2734 375 2778 278 
Q 2813 200 2889 156 
Q 2966 113 3172 113 
L 3172 0 
L 1756 0 
L 1756 113 
L 1816 113 
Q 2016 113 2095 173 
Q 2175 234 2206 353 
Q 2219 400 2219 647 
L 2219 1819 
Q 2219 2209 2117 2386 
Q 2016 2563 1775 2563 
Q 1403 2563 1034 2156 
L 1034 647 
Q 1034 356 1069 288 
Q 1113 197 1189 155 
Q 1266 113 1500 113 
L 1500 0 
L 84 0 
L 84 113 
L 147 113 
Q 366 113 442 223 
Q 519 334 519 647 
L 519 1709 
Q 519 2225 495 2337 
Q 472 2450 423 2490 
Q 375 2531 294 2531 
Q 206 2531 84 2484 
L 38 2597 
L 900 2947 
L 1034 2947 
L 1034 2341 
z
" transform="scale(0.015625)"/>
      <path id="TimesNewRomanPSMT-67" d="M 966 1044 
Q 703 1172 562 1401 
Q 422 1631 422 1909 
Q 422 2334 742 2640 
Q 1063 2947 1563 2947 
Q 1972 2947 2272 2747 
L 2878 2747 
Q 3013 2747 3034 2739 
Q 3056 2731 3066 2713 
Q 3084 2684 3084 2613 
Q 3084 2531 3069 2500 
Q 3059 2484 3036 2475 
Q 3013 2466 2878 2466 
L 2506 2466 
Q 2681 2241 2681 1891 
Q 2681 1491 2375 1206 
Q 2069 922 1553 922 
Q 1341 922 1119 984 
Q 981 866 932 777 
Q 884 688 884 625 
Q 884 572 936 522 
Q 988 472 1138 450 
Q 1225 438 1575 428 
Q 2219 413 2409 384 
Q 2700 344 2873 169 
Q 3047 -6 3047 -263 
Q 3047 -616 2716 -925 
Q 2228 -1381 1444 -1381 
Q 841 -1381 425 -1109 
Q 191 -953 191 -784 
Q 191 -709 225 -634 
Q 278 -519 444 -313 
Q 466 -284 763 25 
Q 600 122 533 198 
Q 466 275 466 372 
Q 466 481 555 628 
Q 644 775 966 1044 
z
M 1509 2797 
Q 1278 2797 1122 2612 
Q 966 2428 966 2047 
Q 966 1553 1178 1281 
Q 1341 1075 1591 1075 
Q 1828 1075 1981 1253 
Q 2134 1431 2134 1813 
Q 2134 2309 1919 2591 
Q 1759 2797 1509 2797 
z
M 934 0 
Q 788 -159 713 -296 
Q 638 -434 638 -550 
Q 638 -700 819 -813 
Q 1131 -1006 1722 -1006 
Q 2284 -1006 2551 -807 
Q 2819 -609 2819 -384 
Q 2819 -222 2659 -153 
Q 2497 -84 2016 -72 
Q 1313 -53 934 0 
z
" transform="scale(0.015625)"/>
      <path id="TimesNewRomanPSMT-73" d="M 2050 2947 
L 2050 1972 
L 1947 1972 
Q 1828 2431 1642 2597 
Q 1456 2763 1169 2763 
Q 950 2763 815 2647 
Q 681 2531 681 2391 
Q 681 2216 781 2091 
Q 878 1963 1175 1819 
L 1631 1597 
Q 2266 1288 2266 781 
Q 2266 391 1970 151 
Q 1675 -88 1309 -88 
Q 1047 -88 709 6 
Q 606 38 541 38 
Q 469 38 428 -44 
L 325 -44 
L 325 978 
L 428 978 
Q 516 541 762 319 
Q 1009 97 1316 97 
Q 1531 97 1667 223 
Q 1803 350 1803 528 
Q 1803 744 1651 891 
Q 1500 1038 1047 1263 
Q 594 1488 453 1669 
Q 313 1847 313 2119 
Q 313 2472 555 2709 
Q 797 2947 1181 2947 
Q 1350 2947 1591 2875 
Q 1750 2828 1803 2828 
Q 1853 2828 1881 2850 
Q 1909 2872 1947 2947 
L 2050 2947 
z
" transform="scale(0.015625)"/>
      <path id="TimesNewRomanPSMT-66" d="M 1319 2638 
L 1319 756 
Q 1319 356 1406 250 
Q 1522 113 1716 113 
L 1975 113 
L 1975 0 
L 266 0 
L 266 113 
L 394 113 
Q 519 113 622 175 
Q 725 238 764 344 
Q 803 450 803 756 
L 803 2638 
L 247 2638 
L 247 2863 
L 803 2863 
L 803 3050 
Q 803 3478 940 3775 
Q 1078 4072 1361 4255 
Q 1644 4438 1997 4438 
Q 2325 4438 2600 4225 
Q 2781 4084 2781 3909 
Q 2781 3816 2700 3733 
Q 2619 3650 2525 3650 
Q 2453 3650 2373 3701 
Q 2294 3753 2178 3923 
Q 2063 4094 1966 4153 
Q 1869 4213 1750 4213 
Q 1606 4213 1506 4136 
Q 1406 4059 1362 3898 
Q 1319 3738 1319 3069 
L 1319 2863 
L 2056 2863 
L 2056 2638 
L 1319 2638 
z
" transform="scale(0.015625)"/>
      <path id="TimesNewRomanPSMT-6f" d="M 1600 2947 
Q 2250 2947 2644 2453 
Q 2978 2031 2978 1484 
Q 2978 1100 2793 706 
Q 2609 313 2286 112 
Q 1963 -88 1566 -88 
Q 919 -88 538 428 
Q 216 863 216 1403 
Q 216 1797 411 2186 
Q 606 2575 925 2761 
Q 1244 2947 1600 2947 
z
M 1503 2744 
Q 1338 2744 1170 2645 
Q 1003 2547 900 2300 
Q 797 2053 797 1666 
Q 797 1041 1045 587 
Q 1294 134 1700 134 
Q 2003 134 2200 384 
Q 2397 634 2397 1244 
Q 2397 2006 2069 2444 
Q 1847 2744 1503 2744 
z
" transform="scale(0.015625)"/>
      <path id="TimesNewRomanPSMT-6d" d="M 1050 2338 
Q 1363 2650 1419 2697 
Q 1559 2816 1721 2881 
Q 1884 2947 2044 2947 
Q 2313 2947 2506 2790 
Q 2700 2634 2766 2338 
Q 3088 2713 3309 2830 
Q 3531 2947 3766 2947 
Q 3994 2947 4170 2830 
Q 4347 2713 4450 2447 
Q 4519 2266 4519 1878 
L 4519 647 
Q 4519 378 4559 278 
Q 4591 209 4675 161 
Q 4759 113 4950 113 
L 4950 0 
L 3538 0 
L 3538 113 
L 3597 113 
Q 3781 113 3884 184 
Q 3956 234 3988 344 
Q 4000 397 4000 647 
L 4000 1878 
Q 4000 2228 3916 2372 
Q 3794 2572 3525 2572 
Q 3359 2572 3192 2489 
Q 3025 2406 2788 2181 
L 2781 2147 
L 2788 2013 
L 2788 647 
Q 2788 353 2820 281 
Q 2853 209 2943 161 
Q 3034 113 3253 113 
L 3253 0 
L 1806 0 
L 1806 113 
Q 2044 113 2133 169 
Q 2222 225 2256 338 
Q 2272 391 2272 647 
L 2272 1878 
Q 2272 2228 2169 2381 
Q 2031 2581 1784 2581 
Q 1616 2581 1450 2491 
Q 1191 2353 1050 2181 
L 1050 647 
Q 1050 366 1089 281 
Q 1128 197 1204 155 
Q 1281 113 1516 113 
L 1516 0 
L 100 0 
L 100 113 
Q 297 113 375 155 
Q 453 197 493 289 
Q 534 381 534 647 
L 534 1741 
Q 534 2213 506 2350 
Q 484 2453 437 2492 
Q 391 2531 309 2531 
Q 222 2531 100 2484 
L 53 2597 
L 916 2947 
L 1050 2947 
L 1050 2338 
z
" transform="scale(0.015625)"/>
      <path id="TimesNewRomanPSMT-28" d="M 1988 -1253 
L 1988 -1369 
Q 1516 -1131 1200 -813 
Q 750 -359 506 256 
Q 263 872 263 1534 
Q 263 2503 741 3301 
Q 1219 4100 1988 4444 
L 1988 4313 
Q 1603 4100 1356 3731 
Q 1109 3363 987 2797 
Q 866 2231 866 1616 
Q 866 947 969 400 
Q 1050 -31 1165 -292 
Q 1281 -553 1476 -793 
Q 1672 -1034 1988 -1253 
z
" transform="scale(0.015625)"/>
      <path id="TimesNewRomanPSMT-6c" d="M 1184 4444 
L 1184 647 
Q 1184 378 1223 290 
Q 1263 203 1344 158 
Q 1425 113 1647 113 
L 1647 0 
L 244 0 
L 244 113 
Q 441 113 512 153 
Q 584 194 625 287 
Q 666 381 666 647 
L 666 3247 
Q 666 3731 644 3842 
Q 622 3953 573 3993 
Q 525 4034 450 4034 
Q 369 4034 244 3984 
L 191 4094 
L 1044 4444 
L 1184 4444 
z
" transform="scale(0.015625)"/>
      <path id="TimesNewRomanPSMT-76" d="M 53 2863 
L 1400 2863 
L 1400 2747 
L 1313 2747 
Q 1191 2747 1127 2687 
Q 1063 2628 1063 2528 
Q 1063 2419 1128 2269 
L 1794 688 
L 2463 2328 
Q 2534 2503 2534 2594 
Q 2534 2638 2509 2666 
Q 2475 2713 2422 2730 
Q 2369 2747 2206 2747 
L 2206 2863 
L 3141 2863 
L 3141 2747 
Q 2978 2734 2916 2681 
Q 2806 2588 2719 2369 
L 1703 -88 
L 1575 -88 
L 553 2328 
Q 484 2497 421 2570 
Q 359 2644 263 2694 
Q 209 2722 53 2747 
L 53 2863 
z
" transform="scale(0.015625)"/>
      <path id="TimesNewRomanPSMT-77" d="M 41 2863 
L 1241 2863 
L 1241 2747 
Q 1075 2734 1023 2687 
Q 972 2641 972 2553 
Q 972 2456 1025 2319 
L 1638 672 
L 2253 2013 
L 2091 2434 
Q 2016 2622 1894 2694 
Q 1825 2738 1638 2747 
L 1638 2863 
L 3000 2863 
L 3000 2747 
Q 2775 2738 2681 2666 
Q 2619 2616 2619 2506 
Q 2619 2444 2644 2378 
L 3294 734 
L 3897 2319 
Q 3959 2488 3959 2588 
Q 3959 2647 3898 2694 
Q 3838 2741 3659 2747 
L 3659 2863 
L 4563 2863 
L 4563 2747 
Q 4291 2706 4163 2378 
L 3206 -88 
L 3078 -88 
L 2363 1741 
L 1528 -88 
L 1413 -88 
L 494 2319 
Q 403 2547 315 2626 
Q 228 2706 41 2747 
L 41 2863 
z
" transform="scale(0.015625)"/>
      <path id="TimesNewRomanPSMT-29" d="M 144 4313 
L 144 4444 
Q 619 4209 934 3891 
Q 1381 3434 1625 2820 
Q 1869 2206 1869 1541 
Q 1869 572 1392 -226 
Q 916 -1025 144 -1369 
L 144 -1253 
Q 528 -1038 776 -670 
Q 1025 -303 1145 264 
Q 1266 831 1266 1447 
Q 1266 2113 1163 2663 
Q 1084 3094 967 3353 
Q 850 3613 656 3853 
Q 463 4094 144 4313 
z
" transform="scale(0.015625)"/>
     </defs>
     <use xlink:href="#TimesNewRomanPSMT-54"/>
     <use xlink:href="#TimesNewRomanPSMT-56" transform="translate(61.083984 0)"/>
     <use xlink:href="#TimesNewRomanPSMT-20" transform="translate(131.550781 0)"/>
     <use xlink:href="#TimesNewRomanPSMT-52" transform="translate(156.550781 0)"/>
     <use xlink:href="#TimesNewRomanPSMT-61" transform="translate(223.25 0)"/>
     <use xlink:href="#TimesNewRomanPSMT-74" transform="translate(267.634766 0)"/>
     <use xlink:href="#TimesNewRomanPSMT-69" transform="translate(295.417969 0)"/>
     <use xlink:href="#TimesNewRomanPSMT-6e" transform="translate(323.201172 0)"/>
     <use xlink:href="#TimesNewRomanPSMT-67" transform="translate(373.201172 0)"/>
     <use xlink:href="#TimesNewRomanPSMT-73" transform="translate(423.201172 0)"/>
     <use xlink:href="#TimesNewRomanPSMT-20" transform="translate(462.117188 0)"/>
     <use xlink:href="#TimesNewRomanPSMT-66" transform="translate(487.117188 0)"/>
     <use xlink:href="#TimesNewRomanPSMT-72" transform="translate(520.417969 0)"/>
     <use xlink:href="#TimesNewRomanPSMT-6f" transform="translate(553.71875 0)"/>
     <use xlink:href="#TimesNewRomanPSMT-6d" transform="translate(603.71875 0)"/>
     <use xlink:href="#TimesNewRomanPSMT-20" transform="translate(681.501953 0)"/>
     <use xlink:href="#TimesNewRomanPSMT-31" transform="translate(706.501953 0)"/>
     <use xlink:href="#TimesNewRomanPSMT-39" transform="translate(756.501953 0)"/>
     <use xlink:href="#TimesNewRomanPSMT-38" transform="translate(806.501953 0)"/>
     <use xlink:href="#TimesNewRomanPSMT-35" transform="translate(856.501953 0)"/>
     <use xlink:href="#TimesNewRomanPSMT-20" transform="translate(906.501953 0)"/>
     <use xlink:href="#TimesNewRomanPSMT-74" transform="translate(931.501953 0)"/>
     <use xlink:href="#TimesNewRomanPSMT-6f" transform="translate(959.285156 0)"/>
     <use xlink:href="#TimesNewRomanPSMT-20" transform="translate(1009.285156 0)"/>
     <use xlink:href="#TimesNewRomanPSMT-31" transform="translate(1034.285156 0)"/>
     <use xlink:href="#TimesNewRomanPSMT-39" transform="translate(1084.285156 0)"/>
     <use xlink:href="#TimesNewRomanPSMT-39" transform="translate(1134.285156 0)"/>
     <use xlink:href="#TimesNewRomanPSMT-38" transform="translate(1184.285156 0)"/>
     <use xlink:href="#TimesNewRomanPSMT-20" transform="translate(1234.285156 0)"/>
     <use xlink:href="#TimesNewRomanPSMT-28" transform="translate(1259.285156 0)"/>
     <use xlink:href="#TimesNewRomanPSMT-6d" transform="translate(1292.585938 0)"/>
     <use xlink:href="#TimesNewRomanPSMT-69" transform="translate(1370.369141 0)"/>
     <use xlink:href="#TimesNewRomanPSMT-6c" transform="translate(1398.152344 0)"/>
     <use xlink:href="#TimesNewRomanPSMT-6c" transform="translate(1425.935547 0)"/>
     <use xlink:href="#TimesNewRomanPSMT-69" transform="translate(1453.71875 0)"/>
     <use xlink:href="#TimesNewRomanPSMT-6f" transform="translate(1481.501953 0)"/>
     <use xlink:href="#TimesNewRomanPSMT-6e" transform="translate(1531.501953 0)"/>
     <use xlink:href="#TimesNewRomanPSMT-20" transform="translate(1581.501953 0)"/>
     <use xlink:href="#TimesNewRomanPSMT-76" transform="translate(1606.501953 0)"/>
     <use xlink:href="#TimesNewRomanPSMT-69" transform="translate(1656.501953 0)"/>
     <use xlink:href="#TimesNewRomanPSMT-65" transform="translate(1684.285156 0)"/>
     <use xlink:href="#TimesNewRomanPSMT-77" transform="translate(1728.669922 0)"/>
     <use xlink:href="#TimesNewRomanPSMT-65" transform="translate(1800.886719 0)"/>
     <use xlink:href="#TimesNewRomanPSMT-72" transform="translate(1845.271484 0)"/>
     <use xlink:href="#TimesNewRomanPSMT-73" transform="translate(1878.572266 0)"/>
     <use xlink:href="#TimesNewRomanPSMT-29" transform="translate(1917.488281 0)"/>
     <use xlink:href="#TimesNewRomanPSMT-20" transform="translate(1950.789062 0)"/>
    </g>
   </g>
   <g id="legend_1">
    <g id="patch_7">
     <path d="M 415.667927 156.743125 
L 435.667927 156.743125 
L 435.667927 149.743125 
L 415.667927 149.743125 
z
" style="fill: #1f77b4"/>
    </g>
    <g id="text_17">
     <!-- Oracle Stream -->
     <g transform="translate(443.667927 156.743125) scale(0.1 -0.1)">
      <defs>
       <path id="TimesNewRomanPSMT-4f" d="M 2341 4334 
Q 3166 4334 3770 3707 
Q 4375 3081 4375 2144 
Q 4375 1178 3765 540 
Q 3156 -97 2291 -97 
Q 1416 -97 820 525 
Q 225 1147 225 2134 
Q 225 3144 913 3781 
Q 1509 4334 2341 4334 
z
M 2281 4106 
Q 1713 4106 1369 3684 
Q 941 3159 941 2147 
Q 941 1109 1384 550 
Q 1725 125 2284 125 
Q 2881 125 3270 590 
Q 3659 1056 3659 2059 
Q 3659 3147 3231 3681 
Q 2888 4106 2281 4106 
z
" transform="scale(0.015625)"/>
       <path id="TimesNewRomanPSMT-63" d="M 2631 1088 
Q 2516 522 2178 217 
Q 1841 -88 1431 -88 
Q 944 -88 581 321 
Q 219 731 219 1428 
Q 219 2103 620 2525 
Q 1022 2947 1584 2947 
Q 2006 2947 2278 2723 
Q 2550 2500 2550 2259 
Q 2550 2141 2473 2067 
Q 2397 1994 2259 1994 
Q 2075 1994 1981 2113 
Q 1928 2178 1911 2362 
Q 1894 2547 1784 2644 
Q 1675 2738 1481 2738 
Q 1169 2738 978 2506 
Q 725 2200 725 1697 
Q 725 1184 976 792 
Q 1228 400 1656 400 
Q 1963 400 2206 609 
Q 2378 753 2541 1131 
L 2631 1088 
z
" transform="scale(0.015625)"/>
       <path id="TimesNewRomanPSMT-53" d="M 2934 4334 
L 2934 2869 
L 2819 2869 
Q 2763 3291 2617 3541 
Q 2472 3791 2203 3937 
Q 1934 4084 1647 4084 
Q 1322 4084 1109 3886 
Q 897 3688 897 3434 
Q 897 3241 1031 3081 
Q 1225 2847 1953 2456 
Q 2547 2138 2764 1967 
Q 2981 1797 3098 1565 
Q 3216 1334 3216 1081 
Q 3216 600 2842 251 
Q 2469 -97 1881 -97 
Q 1697 -97 1534 -69 
Q 1438 -53 1133 45 
Q 828 144 747 144 
Q 669 144 623 97 
Q 578 50 556 -97 
L 441 -97 
L 441 1356 
L 556 1356 
Q 638 900 775 673 
Q 913 447 1195 297 
Q 1478 147 1816 147 
Q 2206 147 2432 353 
Q 2659 559 2659 841 
Q 2659 997 2573 1156 
Q 2488 1316 2306 1453 
Q 2184 1547 1640 1851 
Q 1097 2156 867 2337 
Q 638 2519 519 2737 
Q 400 2956 400 3219 
Q 400 3675 750 4004 
Q 1100 4334 1641 4334 
Q 1978 4334 2356 4169 
Q 2531 4091 2603 4091 
Q 2684 4091 2736 4139 
Q 2788 4188 2819 4334 
L 2934 4334 
z
" transform="scale(0.015625)"/>
      </defs>
      <use xlink:href="#TimesNewRomanPSMT-4f"/>
      <use xlink:href="#TimesNewRomanPSMT-72" transform="translate(72.216797 0)"/>
      <use xlink:href="#TimesNewRomanPSMT-61" transform="translate(105.517578 0)"/>
      <use xlink:href="#TimesNewRomanPSMT-63" transform="translate(149.902344 0)"/>
      <use xlink:href="#TimesNewRomanPSMT-6c" transform="translate(194.287109 0)"/>
      <use xlink:href="#TimesNewRomanPSMT-65" transform="translate(222.070312 0)"/>
      <use xlink:href="#TimesNewRomanPSMT-20" transform="translate(266.455078 0)"/>
      <use xlink:href="#TimesNewRomanPSMT-53" transform="translate(291.455078 0)"/>
      <use xlink:href="#TimesNewRomanPSMT-74" transform="translate(347.070312 0)"/>
      <use xlink:href="#TimesNewRomanPSMT-72" transform="translate(374.853516 0)"/>
      <use xlink:href="#TimesNewRomanPSMT-65" transform="translate(408.154297 0)"/>
      <use xlink:href="#TimesNewRomanPSMT-61" transform="translate(452.539062 0)"/>
      <use xlink:href="#TimesNewRomanPSMT-6d" transform="translate(496.923828 0)"/>
     </g>
    </g>
    <g id="patch_8">
     <path d="M 415.667927 170.882187 
L 435.667927 170.882187 
L 435.667927 163.882187 
L 415.667927 163.882187 
z
" style="fill: #aec7e8"/>
    </g>
    <g id="text_18">
     <!-- Starburst Cable -->
     <g transform="translate(443.667927 170.882187) scale(0.1 -0.1)">
      <defs>
       <path id="TimesNewRomanPSMT-62" d="M 984 2369 
Q 1400 2947 1881 2947 
Q 2322 2947 2650 2570 
Q 2978 2194 2978 1541 
Q 2978 778 2472 313 
Q 2038 -88 1503 -88 
Q 1253 -88 995 3 
Q 738 94 469 275 
L 469 3241 
Q 469 3728 445 3840 
Q 422 3953 372 3993 
Q 322 4034 247 4034 
Q 159 4034 28 3984 
L -16 4094 
L 844 4444 
L 984 4444 
L 984 2369 
z
M 984 2169 
L 984 456 
Q 1144 300 1314 220 
Q 1484 141 1663 141 
Q 1947 141 2192 453 
Q 2438 766 2438 1363 
Q 2438 1913 2192 2208 
Q 1947 2503 1634 2503 
Q 1469 2503 1303 2419 
Q 1178 2356 984 2169 
z
" transform="scale(0.015625)"/>
       <path id="TimesNewRomanPSMT-75" d="M 2709 2863 
L 2709 1128 
Q 2709 631 2732 520 
Q 2756 409 2807 365 
Q 2859 322 2928 322 
Q 3025 322 3147 375 
L 3191 266 
L 2334 -88 
L 2194 -88 
L 2194 519 
Q 1825 119 1631 15 
Q 1438 -88 1222 -88 
Q 981 -88 804 51 
Q 628 191 559 409 
Q 491 628 491 1028 
L 491 2306 
Q 491 2509 447 2587 
Q 403 2666 317 2708 
Q 231 2750 6 2747 
L 6 2863 
L 1009 2863 
L 1009 947 
Q 1009 547 1148 422 
Q 1288 297 1484 297 
Q 1619 297 1789 381 
Q 1959 466 2194 703 
L 2194 2325 
Q 2194 2569 2105 2655 
Q 2016 2741 1734 2747 
L 1734 2863 
L 2709 2863 
z
" transform="scale(0.015625)"/>
       <path id="TimesNewRomanPSMT-43" d="M 3853 4334 
L 3950 2894 
L 3853 2894 
Q 3659 3541 3300 3825 
Q 2941 4109 2438 4109 
Q 2016 4109 1675 3895 
Q 1334 3681 1139 3212 
Q 944 2744 944 2047 
Q 944 1472 1128 1050 
Q 1313 628 1683 403 
Q 2053 178 2528 178 
Q 2941 178 3256 354 
Q 3572 531 3950 1056 
L 4047 994 
Q 3728 428 3303 165 
Q 2878 -97 2294 -97 
Q 1241 -97 663 684 
Q 231 1266 231 2053 
Q 231 2688 515 3219 
Q 800 3750 1298 4042 
Q 1797 4334 2388 4334 
Q 2847 4334 3294 4109 
Q 3425 4041 3481 4041 
Q 3566 4041 3628 4100 
Q 3709 4184 3744 4334 
L 3853 4334 
z
" transform="scale(0.015625)"/>
      </defs>
      <use xlink:href="#TimesNewRomanPSMT-53"/>
      <use xlink:href="#TimesNewRomanPSMT-74" transform="translate(55.615234 0)"/>
      <use xlink:href="#TimesNewRomanPSMT-61" transform="translate(83.398438 0)"/>
      <use xlink:href="#TimesNewRomanPSMT-72" transform="translate(127.783203 0)"/>
      <use xlink:href="#TimesNewRomanPSMT-62" transform="translate(161.083984 0)"/>
      <use xlink:href="#TimesNewRomanPSMT-75" transform="translate(211.083984 0)"/>
      <use xlink:href="#TimesNewRomanPSMT-72" transform="translate(261.083984 0)"/>
      <use xlink:href="#TimesNewRomanPSMT-73" transform="translate(294.384766 0)"/>
      <use xlink:href="#TimesNewRomanPSMT-74" transform="translate(333.300781 0)"/>
      <use xlink:href="#TimesNewRomanPSMT-20" transform="translate(361.083984 0)"/>
      <use xlink:href="#TimesNewRomanPSMT-43" transform="translate(386.083984 0)"/>
      <use xlink:href="#TimesNewRomanPSMT-61" transform="translate(452.783203 0)"/>
      <use xlink:href="#TimesNewRomanPSMT-62" transform="translate(497.167969 0)"/>
      <use xlink:href="#TimesNewRomanPSMT-6c" transform="translate(547.167969 0)"/>
      <use xlink:href="#TimesNewRomanPSMT-65" transform="translate(574.951172 0)"/>
     </g>
    </g>
    <g id="patch_9">
     <path d="M 415.667927 185.02125 
L 435.667927 185.02125 
L 435.667927 178.02125 
L 415.667927 178.02125 
z
" style="fill: #ff7f0e"/>
    </g>
    <g id="text_19">
     <!-- Luminara TV -->
     <g transform="translate(443.667927 185.02125) scale(0.1 -0.1)">
      <defs>
       <path id="TimesNewRomanPSMT-4c" d="M 3669 1172 
L 3772 1150 
L 3409 0 
L 128 0 
L 128 116 
L 288 116 
Q 556 116 672 291 
Q 738 391 738 753 
L 738 3488 
Q 738 3884 650 3984 
Q 528 4122 288 4122 
L 128 4122 
L 128 4238 
L 2047 4238 
L 2047 4122 
Q 1709 4125 1573 4059 
Q 1438 3994 1388 3894 
Q 1338 3794 1338 3416 
L 1338 753 
Q 1338 494 1388 397 
Q 1425 331 1503 300 
Q 1581 269 1991 269 
L 2300 269 
Q 2788 269 2984 341 
Q 3181 413 3343 595 
Q 3506 778 3669 1172 
z
" transform="scale(0.015625)"/>
      </defs>
      <use xlink:href="#TimesNewRomanPSMT-4c"/>
      <use xlink:href="#TimesNewRomanPSMT-75" transform="translate(61.083984 0)"/>
      <use xlink:href="#TimesNewRomanPSMT-6d" transform="translate(111.083984 0)"/>
      <use xlink:href="#TimesNewRomanPSMT-69" transform="translate(188.867188 0)"/>
      <use xlink:href="#TimesNewRomanPSMT-6e" transform="translate(216.650391 0)"/>
      <use xlink:href="#TimesNewRomanPSMT-61" transform="translate(266.650391 0)"/>
      <use xlink:href="#TimesNewRomanPSMT-72" transform="translate(311.035156 0)"/>
      <use xlink:href="#TimesNewRomanPSMT-61" transform="translate(344.335938 0)"/>
      <use xlink:href="#TimesNewRomanPSMT-20" transform="translate(388.720703 0)"/>
      <use xlink:href="#TimesNewRomanPSMT-54" transform="translate(411.970703 0)"/>
      <use xlink:href="#TimesNewRomanPSMT-56" transform="translate(473.054688 0)"/>
     </g>
    </g>
    <g id="patch_10">
     <path d="M 415.667927 199.160312 
L 435.667927 199.160312 
L 435.667927 192.160312 
L 415.667927 192.160312 
z
" style="fill: #ffbb78"/>
    </g>
    <g id="text_20">
     <!-- AetherSports Channel -->
     <g transform="translate(443.667927 199.160312) scale(0.1 -0.1)">
      <defs>
       <path id="TimesNewRomanPSMT-41" d="M 2928 1419 
L 1288 1419 
L 1000 750 
Q 894 503 894 381 
Q 894 284 986 211 
Q 1078 138 1384 116 
L 1384 0 
L 50 0 
L 50 116 
Q 316 163 394 238 
Q 553 388 747 847 
L 2238 4334 
L 2347 4334 
L 3822 809 
Q 4000 384 4145 257 
Q 4291 131 4550 116 
L 4550 0 
L 2878 0 
L 2878 116 
Q 3131 128 3220 200 
Q 3309 272 3309 375 
Q 3309 513 3184 809 
L 2928 1419 
z
M 2841 1650 
L 2122 3363 
L 1384 1650 
L 2841 1650 
z
" transform="scale(0.015625)"/>
       <path id="TimesNewRomanPSMT-68" d="M 1041 4444 
L 1041 2350 
Q 1388 2731 1591 2839 
Q 1794 2947 1997 2947 
Q 2241 2947 2416 2812 
Q 2591 2678 2675 2391 
Q 2734 2191 2734 1659 
L 2734 647 
Q 2734 375 2778 275 
Q 2809 200 2884 156 
Q 2959 113 3159 113 
L 3159 0 
L 1753 0 
L 1753 113 
L 1819 113 
Q 2019 113 2097 173 
Q 2175 234 2206 353 
Q 2216 403 2216 647 
L 2216 1659 
Q 2216 2128 2167 2275 
Q 2119 2422 2012 2495 
Q 1906 2569 1756 2569 
Q 1603 2569 1437 2487 
Q 1272 2406 1041 2159 
L 1041 647 
Q 1041 353 1073 281 
Q 1106 209 1195 161 
Q 1284 113 1503 113 
L 1503 0 
L 84 0 
L 84 113 
Q 275 113 384 172 
Q 447 203 484 290 
Q 522 378 522 647 
L 522 3238 
Q 522 3728 498 3840 
Q 475 3953 426 3993 
Q 378 4034 297 4034 
Q 231 4034 84 3984 
L 41 4094 
L 897 4444 
L 1041 4444 
z
" transform="scale(0.015625)"/>
       <path id="TimesNewRomanPSMT-70" d="M -6 2578 
L 875 2934 
L 994 2934 
L 994 2266 
Q 1216 2644 1439 2795 
Q 1663 2947 1909 2947 
Q 2341 2947 2628 2609 
Q 2981 2197 2981 1534 
Q 2981 794 2556 309 
Q 2206 -88 1675 -88 
Q 1444 -88 1275 -22 
Q 1150 25 994 166 
L 994 -706 
Q 994 -1000 1030 -1079 
Q 1066 -1159 1155 -1206 
Q 1244 -1253 1478 -1253 
L 1478 -1369 
L -22 -1369 
L -22 -1253 
L 56 -1253 
Q 228 -1256 350 -1188 
Q 409 -1153 442 -1076 
Q 475 -1000 475 -688 
L 475 2019 
Q 475 2297 450 2372 
Q 425 2447 370 2484 
Q 316 2522 222 2522 
Q 147 2522 31 2478 
L -6 2578 
z
M 994 2081 
L 994 1013 
Q 994 666 1022 556 
Q 1066 375 1236 237 
Q 1406 100 1666 100 
Q 1978 100 2172 344 
Q 2425 663 2425 1241 
Q 2425 1897 2138 2250 
Q 1938 2494 1663 2494 
Q 1513 2494 1366 2419 
Q 1253 2363 994 2081 
z
" transform="scale(0.015625)"/>
      </defs>
      <use xlink:href="#TimesNewRomanPSMT-41"/>
      <use xlink:href="#TimesNewRomanPSMT-65" transform="translate(72.216797 0)"/>
      <use xlink:href="#TimesNewRomanPSMT-74" transform="translate(116.601562 0)"/>
      <use xlink:href="#TimesNewRomanPSMT-68" transform="translate(144.384766 0)"/>
      <use xlink:href="#TimesNewRomanPSMT-65" transform="translate(194.384766 0)"/>
      <use xlink:href="#TimesNewRomanPSMT-72" transform="translate(238.769531 0)"/>
      <use xlink:href="#TimesNewRomanPSMT-53" transform="translate(272.070312 0)"/>
      <use xlink:href="#TimesNewRomanPSMT-70" transform="translate(327.685547 0)"/>
      <use xlink:href="#TimesNewRomanPSMT-6f" transform="translate(377.685547 0)"/>
      <use xlink:href="#TimesNewRomanPSMT-72" transform="translate(427.685547 0)"/>
      <use xlink:href="#TimesNewRomanPSMT-74" transform="translate(460.986328 0)"/>
      <use xlink:href="#TimesNewRomanPSMT-73" transform="translate(488.769531 0)"/>
      <use xlink:href="#TimesNewRomanPSMT-20" transform="translate(527.685547 0)"/>
      <use xlink:href="#TimesNewRomanPSMT-43" transform="translate(552.685547 0)"/>
      <use xlink:href="#TimesNewRomanPSMT-68" transform="translate(619.384766 0)"/>
      <use xlink:href="#TimesNewRomanPSMT-61" transform="translate(669.384766 0)"/>
      <use xlink:href="#TimesNewRomanPSMT-6e" transform="translate(713.769531 0)"/>
      <use xlink:href="#TimesNewRomanPSMT-6e" transform="translate(763.769531 0)"/>
      <use xlink:href="#TimesNewRomanPSMT-65" transform="translate(813.769531 0)"/>
      <use xlink:href="#TimesNewRomanPSMT-6c" transform="translate(858.154297 0)"/>
     </g>
    </g>
   </g>
  </g>
 </g>
 <defs>
  <clipPath id="pae7d039b29">
   <rect x="10.091927" y="36.92125" width="388.8" height="277.2"/>
  </clipPath>
 </defs>
</svg>
