<?xml version="1.0" encoding="utf-8" standalone="no"?>
<!DOCTYPE svg PUBLIC "-//W3C//DTD SVG 1.1//EN"
  "http://www.w3.org/Graphics/SVG/1.1/DTD/svg11.dtd">
<svg xmlns:xlink="http://www.w3.org/1999/xlink" width="532.171052pt" height="363.785279pt" viewBox="0 0 532.171052 363.785279" xmlns="http://www.w3.org/2000/svg" version="1.1">
 <metadata>
  <rdf:RDF xmlns:dc="http://purl.org/dc/elements/1.1/" xmlns:cc="http://creativecommons.org/ns#" xmlns:rdf="http://www.w3.org/1999/02/22-rdf-syntax-ns#">
   <cc:Work>
    <dc:type rdf:resource="http://purl.org/dc/dcmitype/StillImage"/>
    <dc:date>2025-05-31T00:12:42.422968</dc:date>
    <dc:format>image/svg+xml</dc:format>
    <dc:creator>
     <cc:Agent>
      <dc:title>Matplotlib v3.10.3, https://matplotlib.org/</dc:title>
     </cc:Agent>
    </dc:creator>
   </cc:Work>
  </rdf:RDF>
 </metadata>
 <defs>
  <style type="text/css">*{stroke-linejoin: round; stroke-linecap: butt}</style>
 </defs>
 <g id="figure_1">
  <g id="patch_1">
   <path d="M 0 363.785279 
L 532.171052 363.785279 
L 532.171052 0 
L 0 0 
z
" style="fill: #ffffff"/>
  </g>
  <g id="axes_1">
   <g id="patch_2">
    <path d="M 10.091927 314.12125 
L 398.891927 314.12125 
L 398.891927 36.92125 
L 10.091927 36.92125 
z
" style="fill: #ffffff"/>
   </g>
   <g id="FillBetweenPolyCollection_1">
    <path d="M 27.764654 188.343153 
L 27.764654 200.223854 
L 29.455824 200.803298 
L 31.146994 201.367623 
L 32.838164 201.915818 
L 34.529334 202.446869 
L 36.220504 202.959767 
L 37.911674 203.4535 
L 39.602844 203.927055 
L 41.294015 204.379422 
L 42.985185 204.809589 
L 44.676355 205.216544 
L 46.367525 205.599276 
L 48.058695 205.956774 
L 49.749865 206.288026 
L 51.441035 206.59202 
L 53.132205 206.867745 
L 54.823375 207.11419 
L 56.514545 207.330342 
L 58.205715 207.515191 
L 59.896885 207.667725 
L 61.588055 207.786932 
L 63.279225 207.871802 
L 64.970396 207.92334 
L 66.661566 207.948536 
L 68.352736 207.955485 
L 70.043906 207.952285 
L 71.735076 207.947031 
L 73.426246 207.94782 
L 75.117416 207.962748 
L 76.808586 207.999911 
L 78.499756 208.067406 
L 80.190926 208.17333 
L 81.882096 208.325049 
L 83.573266 208.520921 
L 85.264436 208.753227 
L 86.955607 209.014133 
L 88.646777 209.295808 
L 90.337947 209.590418 
L 92.029117 209.89013 
L 93.720287 210.187111 
L 95.411457 210.473528 
L 97.102627 210.741548 
L 98.793797 210.983364 
L 100.484967 211.196493 
L 102.176137 211.390334 
L 103.867307 211.575892 
L 105.558477 211.764174 
L 107.249647 211.966186 
L 108.940817 212.192935 
L 110.631988 212.455426 
L 112.323158 212.764667 
L 114.014328 213.131663 
L 115.705498 213.56742 
L 117.396668 214.080954 
L 119.087838 214.663948 
L 120.779008 215.299164 
L 122.470178 215.969286 
L 124.161348 216.657003 
L 125.852518 217.345 
L 127.543688 218.015964 
L 129.234858 218.652582 
L 130.926028 219.23754 
L 132.617199 219.753524 
L 134.308369 220.183354 
L 135.999539 220.52003 
L 137.690709 220.773815 
L 139.381879 220.956643 
L 141.073049 221.080449 
L 142.764219 221.157167 
L 144.455389 221.198731 
L 146.146559 221.217077 
L 147.837729 221.224139 
L 149.528899 221.231851 
L 151.220069 221.252147 
L 152.911239 221.295024 
L 154.602409 221.358241 
L 156.29358 221.434802 
L 157.98475 221.517696 
L 159.67592 221.599915 
L 161.36709 221.67445 
L 163.05826 221.734293 
L 164.74943 221.772433 
L 166.4406 221.781862 
L 168.13177 221.755572 
L 169.82294 221.686819 
L 171.51411 221.579231 
L 173.20528 221.449904 
L 174.89645 221.316835 
L 176.58762 221.198018 
L 178.278791 221.111452 
L 179.969961 221.075132 
L 181.661131 221.107054 
L 183.352301 221.225216 
L 185.043471 221.447613 
L 186.734641 221.792241 
L 188.425811 222.27144 
L 190.116981 222.871247 
L 191.808151 223.570065 
L 193.499321 224.346294 
L 195.190491 225.178337 
L 196.881661 226.044594 
L 198.572831 226.923467 
L 200.264001 227.793357 
L 201.955172 228.632665 
L 203.646342 229.419794 
L 205.337512 230.133924 
L 207.028682 230.772196 
L 208.719852 231.34971 
L 210.411022 231.882345 
L 212.102192 232.385979 
L 213.793362 232.876494 
L 215.484532 233.369768 
L 217.175702 233.881682 
L 218.866872 234.428114 
L 220.558042 235.024944 
L 222.249212 235.688052 
L 223.940383 236.424899 
L 225.631553 237.213958 
L 227.322723 238.027469 
L 229.013893 238.837669 
L 230.705063 239.616796 
L 232.396233 240.337087 
L 234.087403 240.97078 
L 235.778573 241.490114 
L 237.469743 241.867325 
L 239.160913 242.074652 
L 240.852083 242.086772 
L 242.543253 241.914849 
L 244.234423 241.598139 
L 245.925593 241.17662 
L 247.616764 240.690269 
L 249.307934 240.179063 
L 250.999104 239.682981 
L 252.690274 239.242 
L 254.381444 238.896097 
L 256.072614 238.68525 
L 257.763784 238.649402 
L 259.454954 238.812778 
L 261.146124 239.159201 
L 262.837294 239.666089 
L 264.528464 240.310861 
L 266.219634 241.070936 
L 267.910804 241.923734 
L 269.601975 242.846672 
L 271.293145 243.817171 
L 272.984315 244.812648 
L 274.675485 245.810523 
L 276.366655 246.78936 
L 278.057825 247.739552 
L 279.748995 248.658468 
L 281.440165 249.543568 
L 283.131335 250.392312 
L 284.822505 251.202161 
L 286.513675 251.970573 
L 288.204845 252.69501 
L 289.896015 253.37293 
L 291.587185 254.001795 
L 293.278356 254.579089 
L 294.969526 255.105467 
L 296.660696 255.587729 
L 298.351866 256.033387 
L 300.043036 256.449949 
L 301.734206 256.844924 
L 303.425376 257.225823 
L 305.116546 257.600153 
L 306.807716 257.975425 
L 308.498886 258.359149 
L 310.190056 258.758832 
L 311.881226 259.181182 
L 313.572396 259.626962 
L 315.263567 260.094277 
L 316.954737 260.581217 
L 318.645907 261.085872 
L 320.337077 261.606332 
L 322.028247 262.140689 
L 323.719417 262.687032 
L 325.410587 263.243452 
L 327.101757 263.808039 
L 328.792927 264.378913 
L 330.484097 264.955765 
L 332.175267 265.540614 
L 333.866437 266.135668 
L 335.557607 266.743134 
L 337.248777 267.365221 
L 338.939948 268.004136 
L 340.631118 268.662088 
L 342.322288 269.341283 
L 344.013458 270.04393 
L 345.704628 270.772236 
L 347.395798 271.52802 
L 349.086968 272.310991 
L 350.778138 273.120147 
L 352.469308 273.954487 
L 354.160478 274.813011 
L 355.851648 275.694716 
L 357.542818 276.598602 
L 359.233988 277.523667 
L 360.925159 278.468911 
L 362.616329 279.433331 
L 364.307499 280.415926 
L 365.998669 281.415696 
L 367.689839 282.431639 
L 369.381009 283.462753 
L 371.072179 284.508037 
L 372.763349 285.566491 
L 374.454519 286.637112 
L 376.145689 287.7189 
L 377.836859 288.810853 
L 379.528029 289.91197 
L 381.219199 291.02125 
L 381.219199 197.463392 
L 381.219199 197.463392 
L 379.528029 196.653955 
L 377.836859 195.955137 
L 376.145689 195.360528 
L 374.454519 194.863718 
L 372.763349 194.458296 
L 371.072179 194.137853 
L 369.381009 193.895979 
L 367.689839 193.726264 
L 365.998669 193.622298 
L 364.307499 193.577671 
L 362.616329 193.585973 
L 360.925159 193.640793 
L 359.233988 193.735723 
L 357.542818 193.864352 
L 355.851648 194.02027 
L 354.160478 194.197068 
L 352.469308 194.388335 
L 350.778138 194.587661 
L 349.086968 194.788636 
L 347.395798 194.984851 
L 345.704628 195.169896 
L 344.013458 195.33859 
L 342.322288 195.4894 
L 340.631118 195.621468 
L 338.939948 195.733936 
L 337.248777 195.825944 
L 335.557607 195.896634 
L 333.866437 195.945147 
L 332.175267 195.970626 
L 330.484097 195.972212 
L 328.792927 195.949046 
L 327.101757 195.900565 
L 325.410587 195.829857 
L 323.719417 195.74247 
L 322.028247 195.643999 
L 320.337077 195.54004 
L 318.645907 195.436188 
L 316.954737 195.338039 
L 315.263567 195.251186 
L 313.572396 195.181226 
L 311.881226 195.133754 
L 310.190056 195.114342 
L 308.498886 195.12384 
L 306.807716 195.152557 
L 305.116546 195.189377 
L 303.425376 195.223182 
L 301.734206 195.242857 
L 300.043036 195.237284 
L 298.351866 195.195348 
L 296.660696 195.105931 
L 294.969526 194.957917 
L 293.278356 194.740189 
L 291.587185 194.443381 
L 289.896015 194.073359 
L 288.204845 193.643829 
L 286.513675 193.168567 
L 284.822505 192.661345 
L 283.131335 192.135936 
L 281.440165 191.606113 
L 279.748995 191.085649 
L 278.057825 190.588318 
L 276.366655 190.127893 
L 274.675485 189.718111 
L 272.984315 189.369942 
L 271.293145 189.089662 
L 269.601975 188.883093 
L 267.910804 188.75606 
L 266.219634 188.714383 
L 264.528464 188.763885 
L 262.837294 188.91039 
L 261.146124 189.159719 
L 259.454954 189.517695 
L 257.763784 189.99014 
L 256.072614 190.579904 
L 254.381444 191.271074 
L 252.690274 192.040439 
L 250.999104 192.864773 
L 249.307934 193.720848 
L 247.616764 194.585437 
L 245.925593 195.435314 
L 244.234423 196.247251 
L 242.543253 196.998021 
L 240.852083 197.664398 
L 239.160913 198.223477 
L 237.469743 198.664893 
L 235.778573 198.994574 
L 234.087403 199.219533 
L 232.396233 199.346787 
L 230.705063 199.383349 
L 229.013893 199.336235 
L 227.322723 199.212459 
L 225.631553 199.019037 
L 223.940383 198.762983 
L 222.249212 198.451312 
L 220.558042 198.091167 
L 218.866872 197.690278 
L 217.175702 197.256548 
L 215.484532 196.797881 
L 213.793362 196.322179 
L 212.102192 195.837346 
L 210.411022 195.351283 
L 208.719852 194.871894 
L 207.028682 194.407082 
L 205.337512 193.964749 
L 203.646342 193.552522 
L 201.955172 193.171674 
L 200.264001 192.817122 
L 198.572831 192.483507 
L 196.881661 192.165471 
L 195.190491 191.857656 
L 193.499321 191.554703 
L 191.808151 191.251253 
L 190.116981 190.941947 
L 188.425811 190.621428 
L 186.734641 190.284337 
L 185.043471 189.929732 
L 183.352301 189.571875 
L 181.661131 189.2283 
L 179.969961 188.916544 
L 178.278791 188.654139 
L 176.58762 188.458621 
L 174.89645 188.347525 
L 173.20528 188.338384 
L 171.51411 188.448734 
L 169.82294 188.696108 
L 168.13177 189.096144 
L 166.4406 189.636075 
L 164.74943 190.281269 
L 163.05826 190.996531 
L 161.36709 191.746668 
L 159.67592 192.496486 
L 157.98475 193.210791 
L 156.29358 193.854388 
L 154.602409 194.392084 
L 152.911239 194.788684 
L 151.220069 195.009033 
L 149.528899 195.034819 
L 147.837729 194.891042 
L 146.146559 194.609562 
L 144.455389 194.22224 
L 142.764219 193.760938 
L 141.073049 193.257517 
L 139.381879 192.743839 
L 137.690709 192.251763 
L 135.999539 191.813153 
L 134.308369 191.459868 
L 132.617199 191.220878 
L 130.926028 191.095293 
L 129.234858 191.064608 
L 127.543688 191.11009 
L 125.852518 191.213005 
L 124.161348 191.354622 
L 122.470178 191.516206 
L 120.779008 191.679026 
L 119.087838 191.824348 
L 117.396668 191.93344 
L 115.705498 191.987633 
L 114.014328 191.975955 
L 112.323158 191.90239 
L 110.631988 191.77264 
L 108.940817 191.592403 
L 107.249647 191.367383 
L 105.558477 191.103278 
L 103.867307 190.805791 
L 102.176137 190.480622 
L 100.484967 190.133471 
L 98.793797 189.77004 
L 97.102627 189.396556 
L 95.411457 189.02313 
L 93.720287 188.661616 
L 92.029117 188.323878 
L 90.337947 188.021776 
L 88.646777 187.767175 
L 86.955607 187.571935 
L 85.264436 187.447919 
L 83.573266 187.406989 
L 81.882096 187.461008 
L 80.190926 187.621617 
L 78.499756 187.888652 
L 76.808586 188.244446 
L 75.117416 188.669914 
L 73.426246 189.145974 
L 71.735076 189.653543 
L 70.043906 190.173535 
L 68.352736 190.686869 
L 66.661566 191.17446 
L 64.970396 191.617225 
L 63.279225 191.996081 
L 61.588055 192.294893 
L 59.896885 192.51349 
L 58.205715 192.657068 
L 56.514545 192.73083 
L 54.823375 192.739976 
L 53.132205 192.689709 
L 51.441035 192.585229 
L 49.749865 192.431739 
L 48.058695 192.23444 
L 46.367525 191.998534 
L 44.676355 191.729223 
L 42.985185 191.431707 
L 41.294015 191.111189 
L 39.602844 190.772871 
L 37.911674 190.421953 
L 36.220504 190.063637 
L 34.529334 189.703126 
L 32.838164 189.34562 
L 31.146994 188.996321 
L 29.455824 188.660432 
L 27.764654 188.343153 
z
" clip-path="url(#p2820e8c112)" style="fill: #1f77b4"/>
   </g>
   <g id="FillBetweenPolyCollection_2">
    <path d="M 27.764654 177.454987 
L 27.764654 188.343153 
L 29.455824 188.660432 
L 31.146994 188.996321 
L 32.838164 189.34562 
L 34.529334 189.703126 
L 36.220504 190.063637 
L 37.911674 190.421953 
L 39.602844 190.772871 
L 41.294015 191.111189 
L 42.985185 191.431707 
L 44.676355 191.729223 
L 46.367525 191.998534 
L 48.058695 192.23444 
L 49.749865 192.431739 
L 51.441035 192.585229 
L 53.132205 192.689709 
L 54.823375 192.739976 
L 56.514545 192.73083 
L 58.205715 192.657068 
L 59.896885 192.51349 
L 61.588055 192.294893 
L 63.279225 191.996081 
L 64.970396 191.617225 
L 66.661566 191.17446 
L 68.352736 190.686869 
L 70.043906 190.173535 
L 71.735076 189.653543 
L 73.426246 189.145974 
L 75.117416 188.669914 
L 76.808586 188.244446 
L 78.499756 187.888652 
L 80.190926 187.621617 
L 81.882096 187.461008 
L 83.573266 187.406989 
L 85.264436 187.447919 
L 86.955607 187.571935 
L 88.646777 187.767175 
L 90.337947 188.021776 
L 92.029117 188.323878 
L 93.720287 188.661616 
L 95.411457 189.02313 
L 97.102627 189.396556 
L 98.793797 189.77004 
L 100.484967 190.133471 
L 102.176137 190.480622 
L 103.867307 190.805791 
L 105.558477 191.103278 
L 107.249647 191.367383 
L 108.940817 191.592403 
L 110.631988 191.77264 
L 112.323158 191.90239 
L 114.014328 191.975955 
L 115.705498 191.987633 
L 117.396668 191.93344 
L 119.087838 191.824348 
L 120.779008 191.679026 
L 122.470178 191.516206 
L 124.161348 191.354622 
L 125.852518 191.213005 
L 127.543688 191.11009 
L 129.234858 191.064608 
L 130.926028 191.095293 
L 132.617199 191.220878 
L 134.308369 191.459868 
L 135.999539 191.813153 
L 137.690709 192.251763 
L 139.381879 192.743839 
L 141.073049 193.257517 
L 142.764219 193.760938 
L 144.455389 194.22224 
L 146.146559 194.609562 
L 147.837729 194.891042 
L 149.528899 195.034819 
L 151.220069 195.009033 
L 152.911239 194.788684 
L 154.602409 194.392084 
L 156.29358 193.854388 
L 157.98475 193.210791 
L 159.67592 192.496486 
L 161.36709 191.746668 
L 163.05826 190.996531 
L 164.74943 190.281269 
L 166.4406 189.636075 
L 168.13177 189.096144 
L 169.82294 188.696108 
L 171.51411 188.448734 
L 173.20528 188.338384 
L 174.89645 188.347525 
L 176.58762 188.458621 
L 178.278791 188.654139 
L 179.969961 188.916544 
L 181.661131 189.2283 
L 183.352301 189.571875 
L 185.043471 189.929732 
L 186.734641 190.284337 
L 188.425811 190.621428 
L 190.116981 190.941947 
L 191.808151 191.251253 
L 193.499321 191.554703 
L 195.190491 191.857656 
L 196.881661 192.165471 
L 198.572831 192.483507 
L 200.264001 192.817122 
L 201.955172 193.171674 
L 203.646342 193.552522 
L 205.337512 193.964749 
L 207.028682 194.407082 
L 208.719852 194.871894 
L 210.411022 195.351283 
L 212.102192 195.837346 
L 213.793362 196.322179 
L 215.484532 196.797881 
L 217.175702 197.256548 
L 218.866872 197.690278 
L 220.558042 198.091167 
L 222.249212 198.451312 
L 223.940383 198.762983 
L 225.631553 199.019037 
L 227.322723 199.212459 
L 229.013893 199.336235 
L 230.705063 199.383349 
L 232.396233 199.346787 
L 234.087403 199.219533 
L 235.778573 198.994574 
L 237.469743 198.664893 
L 239.160913 198.223477 
L 240.852083 197.664398 
L 242.543253 196.998021 
L 244.234423 196.247251 
L 245.925593 195.435314 
L 247.616764 194.585437 
L 249.307934 193.720848 
L 250.999104 192.864773 
L 252.690274 192.040439 
L 254.381444 191.271074 
L 256.072614 190.579904 
L 257.763784 189.99014 
L 259.454954 189.517695 
L 261.146124 189.159719 
L 262.837294 188.91039 
L 264.528464 188.763885 
L 266.219634 188.714383 
L 267.910804 188.75606 
L 269.601975 188.883093 
L 271.293145 189.089662 
L 272.984315 189.369942 
L 274.675485 189.718111 
L 276.366655 190.127893 
L 278.057825 190.588318 
L 279.748995 191.085649 
L 281.440165 191.606113 
L 283.131335 192.135936 
L 284.822505 192.661345 
L 286.513675 193.168567 
L 288.204845 193.643829 
L 289.896015 194.073359 
L 291.587185 194.443381 
L 293.278356 194.740189 
L 294.969526 194.957917 
L 296.660696 195.105931 
L 298.351866 195.195348 
L 300.043036 195.237284 
L 301.734206 195.242857 
L 303.425376 195.223182 
L 305.116546 195.189377 
L 306.807716 195.152557 
L 308.498886 195.12384 
L 310.190056 195.114342 
L 311.881226 195.133754 
L 313.572396 195.181226 
L 315.263567 195.251186 
L 316.954737 195.338039 
L 318.645907 195.436188 
L 320.337077 195.54004 
L 322.028247 195.643999 
L 323.719417 195.74247 
L 325.410587 195.829857 
L 327.101757 195.900565 
L 328.792927 195.949046 
L 330.484097 195.972212 
L 332.175267 195.970626 
L 333.866437 195.945147 
L 335.557607 195.896634 
L 337.248777 195.825944 
L 338.939948 195.733936 
L 340.631118 195.621468 
L 342.322288 195.4894 
L 344.013458 195.33859 
L 345.704628 195.169896 
L 347.395798 194.984851 
L 349.086968 194.788636 
L 350.778138 194.587661 
L 352.469308 194.388335 
L 354.160478 194.197068 
L 355.851648 194.02027 
L 357.542818 193.864352 
L 359.233988 193.735723 
L 360.925159 193.640793 
L 362.616329 193.585973 
L 364.307499 193.577671 
L 365.998669 193.622298 
L 367.689839 193.726264 
L 369.381009 193.895979 
L 371.072179 194.137853 
L 372.763349 194.458296 
L 374.454519 194.863718 
L 376.145689 195.360528 
L 377.836859 195.955137 
L 379.528029 196.653955 
L 381.219199 197.463392 
L 381.219199 182.331842 
L 381.219199 182.331842 
L 379.528029 182.977782 
L 377.836859 183.487426 
L 376.145689 183.870625 
L 374.454519 184.137233 
L 372.763349 184.297102 
L 371.072179 184.360085 
L 369.381009 184.336034 
L 367.689839 184.234802 
L 365.998669 184.066241 
L 364.307499 183.840204 
L 362.616329 183.566543 
L 360.925159 183.255112 
L 359.233988 182.915762 
L 357.542818 182.558347 
L 355.851648 182.192718 
L 354.160478 181.828729 
L 352.469308 181.476231 
L 350.778138 181.145078 
L 349.086968 180.845122 
L 347.395798 180.586215 
L 345.704628 180.378207 
L 344.013458 180.226332 
L 342.322288 180.122112 
L 340.631118 180.054533 
L 338.939948 180.012582 
L 337.248777 179.985245 
L 335.557607 179.96151 
L 333.866437 179.930363 
L 332.175267 179.88079 
L 330.484097 179.801779 
L 328.792927 179.682315 
L 327.101757 179.512564 
L 325.410587 179.297264 
L 323.719417 179.050977 
L 322.028247 178.788452 
L 320.337077 178.524436 
L 318.645907 178.273677 
L 316.954737 178.050923 
L 315.263567 177.870922 
L 313.572396 177.748422 
L 311.881226 177.698171 
L 310.190056 177.734872 
L 308.498886 177.86398 
L 306.807716 178.07031 
L 305.116546 178.335886 
L 303.425376 178.642728 
L 301.734206 178.972861 
L 300.043036 179.308308 
L 298.351866 179.63109 
L 296.660696 179.923231 
L 294.969526 180.166753 
L 293.278356 180.34368 
L 291.587185 180.438112 
L 289.896015 180.452236 
L 288.204845 180.397554 
L 286.513675 180.285642 
L 284.822505 180.128077 
L 283.131335 179.936438 
L 281.440165 179.722302 
L 279.748995 179.497245 
L 278.057825 179.272846 
L 276.366655 179.060681 
L 274.675485 178.872278 
L 272.984315 178.715283 
L 271.293145 178.590764 
L 269.601975 178.499149 
L 267.910804 178.440871 
L 266.219634 178.416359 
L 264.528464 178.426042 
L 262.837294 178.470352 
L 261.146124 178.549719 
L 259.454954 178.664572 
L 257.763784 178.815342 
L 256.072614 179.001416 
L 254.381444 179.215594 
L 252.690274 179.448114 
L 250.999104 179.689211 
L 249.307934 179.929117 
L 247.616764 180.158065 
L 245.925593 180.366289 
L 244.234423 180.544021 
L 242.543253 180.681495 
L 240.852083 180.768944 
L 239.160913 180.796821 
L 237.469743 180.764136 
L 235.778573 180.681015 
L 234.087403 180.558327 
L 232.396233 180.40694 
L 230.705063 180.237724 
L 229.013893 180.061547 
L 227.322723 179.889278 
L 225.631553 179.731785 
L 223.940383 179.599937 
L 222.249212 179.504604 
L 220.558042 179.454123 
L 218.866872 179.445075 
L 217.175702 179.470626 
L 215.484532 179.523941 
L 213.793362 179.598184 
L 212.102192 179.686522 
L 210.411022 179.78212 
L 208.719852 179.878142 
L 207.028682 179.967755 
L 205.337512 180.044124 
L 203.646342 180.100539 
L 201.955172 180.133186 
L 200.264001 180.141145 
L 198.572831 180.12362 
L 196.881661 180.079816 
L 195.190491 180.00894 
L 193.499321 179.910195 
L 191.808151 179.782788 
L 190.116981 179.625924 
L 188.425811 179.438807 
L 186.734641 179.220643 
L 185.043471 178.973329 
L 183.352301 178.708034 
L 181.661131 178.437921 
L 179.969961 178.176151 
L 178.278791 177.935887 
L 176.58762 177.730292 
L 174.89645 177.572529 
L 173.20528 177.475761 
L 171.51411 177.453149 
L 169.82294 177.517856 
L 168.13177 177.681547 
L 166.4406 177.93345 
L 164.74943 178.245528 
L 163.05826 178.589297 
L 161.36709 178.936274 
L 159.67592 179.257976 
L 157.98475 179.525921 
L 156.29358 179.711624 
L 154.602409 179.786603 
L 152.911239 179.722375 
L 151.220069 179.490496 
L 149.528899 179.08 
L 147.837729 178.524853 
L 146.146559 177.866141 
L 144.455389 177.14495 
L 142.764219 176.402368 
L 141.073049 175.67948 
L 139.381879 175.017373 
L 137.690709 174.457134 
L 135.999539 174.039849 
L 134.308369 173.806604 
L 132.617199 173.793843 
L 130.926028 173.990074 
L 129.234858 174.355526 
L 127.543688 174.850062 
L 125.852518 175.433546 
L 124.161348 176.065842 
L 122.470178 176.706813 
L 120.779008 177.316323 
L 119.087838 177.854235 
L 117.396668 178.280413 
L 115.705498 178.554894 
L 114.014328 178.65871 
L 112.323158 178.61367 
L 110.631988 178.446267 
L 108.940817 178.182994 
L 107.249647 177.850345 
L 105.558477 177.474814 
L 103.867307 177.082893 
L 102.176137 176.701077 
L 100.484967 176.355858 
L 98.793797 176.073729 
L 97.102627 175.878026 
L 95.411457 175.768729 
L 93.720287 175.735356 
L 92.029117 175.767374 
L 90.337947 175.854249 
L 88.646777 175.985449 
L 86.955607 176.150441 
L 85.264436 176.338691 
L 83.573266 176.539667 
L 81.882096 176.742835 
L 80.190926 176.93772 
L 78.499756 177.116838 
L 76.808586 177.277149 
L 75.117416 177.41597 
L 73.426246 177.530619 
L 71.735076 177.618414 
L 70.043906 177.676672 
L 68.352736 177.702712 
L 66.661566 177.693851 
L 64.970396 177.647407 
L 63.279225 177.560698 
L 61.588055 177.4323 
L 59.896885 177.267601 
L 58.205715 177.074278 
L 56.514545 176.860012 
L 54.823375 176.632482 
L 53.132205 176.399368 
L 51.441035 176.16835 
L 49.749865 175.947108 
L 48.058695 175.743323 
L 46.367525 175.564674 
L 44.676355 175.418841 
L 42.985185 175.313504 
L 41.294015 175.256343 
L 39.602844 175.255038 
L 37.911674 175.317269 
L 36.220504 175.450715 
L 34.529334 175.663058 
L 32.838164 175.961977 
L 31.146994 176.355151 
L 29.455824 176.850262 
L 27.764654 177.454987 
z
" clip-path="url(#p2820e8c112)" style="fill: #aec7e8"/>
   </g>
   <g id="FillBetweenPolyCollection_3">
    <path d="M 27.764654 163.718081 
L 27.764654 177.454987 
L 29.455824 176.850262 
L 31.146994 176.355151 
L 32.838164 175.961977 
L 34.529334 175.663058 
L 36.220504 175.450715 
L 37.911674 175.317269 
L 39.602844 175.255038 
L 41.294015 175.256343 
L 42.985185 175.313504 
L 44.676355 175.418841 
L 46.367525 175.564674 
L 48.058695 175.743323 
L 49.749865 175.947108 
L 51.441035 176.16835 
L 53.132205 176.399368 
L 54.823375 176.632482 
L 56.514545 176.860012 
L 58.205715 177.074278 
L 59.896885 177.267601 
L 61.588055 177.4323 
L 63.279225 177.560698 
L 64.970396 177.647407 
L 66.661566 177.693851 
L 68.352736 177.702712 
L 70.043906 177.676672 
L 71.735076 177.618414 
L 73.426246 177.530619 
L 75.117416 177.41597 
L 76.808586 177.277149 
L 78.499756 177.116838 
L 80.190926 176.93772 
L 81.882096 176.742835 
L 83.573266 176.539667 
L 85.264436 176.338691 
L 86.955607 176.150441 
L 88.646777 175.985449 
L 90.337947 175.854249 
L 92.029117 175.767374 
L 93.720287 175.735356 
L 95.411457 175.768729 
L 97.102627 175.878026 
L 98.793797 176.073729 
L 100.484967 176.355858 
L 102.176137 176.701077 
L 103.867307 177.082893 
L 105.558477 177.474814 
L 107.249647 177.850345 
L 108.940817 178.182994 
L 110.631988 178.446267 
L 112.323158 178.61367 
L 114.014328 178.65871 
L 115.705498 178.554894 
L 117.396668 178.280413 
L 119.087838 177.854235 
L 120.779008 177.316323 
L 122.470178 176.706813 
L 124.161348 176.065842 
L 125.852518 175.433546 
L 127.543688 174.850062 
L 129.234858 174.355526 
L 130.926028 173.990074 
L 132.617199 173.793843 
L 134.308369 173.806604 
L 135.999539 174.039849 
L 137.690709 174.457134 
L 139.381879 175.017373 
L 141.073049 175.67948 
L 142.764219 176.402368 
L 144.455389 177.14495 
L 146.146559 177.866141 
L 147.837729 178.524853 
L 149.528899 179.08 
L 151.220069 179.490496 
L 152.911239 179.722375 
L 154.602409 179.786603 
L 156.29358 179.711624 
L 157.98475 179.525921 
L 159.67592 179.257976 
L 161.36709 178.936274 
L 163.05826 178.589297 
L 164.74943 178.245528 
L 166.4406 177.93345 
L 168.13177 177.681547 
L 169.82294 177.517856 
L 171.51411 177.453149 
L 173.20528 177.475761 
L 174.89645 177.572529 
L 176.58762 177.730292 
L 178.278791 177.935887 
L 179.969961 178.176151 
L 181.661131 178.437921 
L 183.352301 178.708034 
L 185.043471 178.973329 
L 186.734641 179.220643 
L 188.425811 179.438807 
L 190.116981 179.625924 
L 191.808151 179.782788 
L 193.499321 179.910195 
L 195.190491 180.00894 
L 196.881661 180.079816 
L 198.572831 180.12362 
L 200.264001 180.141145 
L 201.955172 180.133186 
L 203.646342 180.100539 
L 205.337512 180.044124 
L 207.028682 179.967755 
L 208.719852 179.878142 
L 210.411022 179.78212 
L 212.102192 179.686522 
L 213.793362 179.598184 
L 215.484532 179.523941 
L 217.175702 179.470626 
L 218.866872 179.445075 
L 220.558042 179.454123 
L 222.249212 179.504604 
L 223.940383 179.599937 
L 225.631553 179.731785 
L 227.322723 179.889278 
L 229.013893 180.061547 
L 230.705063 180.237724 
L 232.396233 180.40694 
L 234.087403 180.558327 
L 235.778573 180.681015 
L 237.469743 180.764136 
L 239.160913 180.796821 
L 240.852083 180.768944 
L 242.543253 180.681495 
L 244.234423 180.544021 
L 245.925593 180.366289 
L 247.616764 180.158065 
L 249.307934 179.929117 
L 250.999104 179.689211 
L 252.690274 179.448114 
L 254.381444 179.215594 
L 256.072614 179.001416 
L 257.763784 178.815342 
L 259.454954 178.664572 
L 261.146124 178.549719 
L 262.837294 178.470352 
L 264.528464 178.426042 
L 266.219634 178.416359 
L 267.910804 178.440871 
L 269.601975 178.499149 
L 271.293145 178.590764 
L 272.984315 178.715283 
L 274.675485 178.872278 
L 276.366655 179.060681 
L 278.057825 179.272846 
L 279.748995 179.497245 
L 281.440165 179.722302 
L 283.131335 179.936438 
L 284.822505 180.128077 
L 286.513675 180.285642 
L 288.204845 180.397554 
L 289.896015 180.452236 
L 291.587185 180.438112 
L 293.278356 180.34368 
L 294.969526 180.166753 
L 296.660696 179.923231 
L 298.351866 179.63109 
L 300.043036 179.308308 
L 301.734206 178.972861 
L 303.425376 178.642728 
L 305.116546 178.335886 
L 306.807716 178.07031 
L 308.498886 177.86398 
L 310.190056 177.734872 
L 311.881226 177.698171 
L 313.572396 177.748422 
L 315.263567 177.870922 
L 316.954737 178.050923 
L 318.645907 178.273677 
L 320.337077 178.524436 
L 322.028247 178.788452 
L 323.719417 179.050977 
L 325.410587 179.297264 
L 327.101757 179.512564 
L 328.792927 179.682315 
L 330.484097 179.801779 
L 332.175267 179.88079 
L 333.866437 179.930363 
L 335.557607 179.96151 
L 337.248777 179.985245 
L 338.939948 180.012582 
L 340.631118 180.054533 
L 342.322288 180.122112 
L 344.013458 180.226332 
L 345.704628 180.378207 
L 347.395798 180.586215 
L 349.086968 180.845122 
L 350.778138 181.145078 
L 352.469308 181.476231 
L 354.160478 181.828729 
L 355.851648 182.192718 
L 357.542818 182.558347 
L 359.233988 182.915762 
L 360.925159 183.255112 
L 362.616329 183.566543 
L 364.307499 183.840204 
L 365.998669 184.066241 
L 367.689839 184.234802 
L 369.381009 184.336034 
L 371.072179 184.360085 
L 372.763349 184.297102 
L 374.454519 184.137233 
L 376.145689 183.870625 
L 377.836859 183.487426 
L 379.528029 182.977782 
L 381.219199 182.331842 
L 381.219199 153.937236 
L 381.219199 153.937236 
L 379.528029 154.853331 
L 377.836859 155.620959 
L 376.145689 156.250734 
L 374.454519 156.753268 
L 372.763349 157.139175 
L 371.072179 157.419067 
L 369.381009 157.603558 
L 367.689839 157.70326 
L 365.998669 157.728787 
L 364.307499 157.690751 
L 362.616329 157.599767 
L 360.925159 157.466446 
L 359.233988 157.301402 
L 357.542818 157.115248 
L 355.851648 156.918597 
L 354.160478 156.722062 
L 352.469308 156.536256 
L 350.778138 156.371792 
L 349.086968 156.239284 
L 347.395798 156.149343 
L 345.704628 156.112581 
L 344.013458 156.134275 
L 342.322288 156.203872 
L 340.631118 156.307889 
L 338.939948 156.432844 
L 337.248777 156.565255 
L 335.557607 156.691638 
L 333.866437 156.798513 
L 332.175267 156.872397 
L 330.484097 156.899806 
L 328.792927 156.86726 
L 327.101757 156.762475 
L 325.410587 156.587989 
L 323.719417 156.356339 
L 322.028247 156.080247 
L 320.337077 155.772435 
L 318.645907 155.445626 
L 316.954737 155.112542 
L 315.263567 154.785907 
L 313.572396 154.478443 
L 311.881226 154.202873 
L 310.190056 153.971904 
L 308.498886 153.795168 
L 306.807716 153.675436 
L 305.116546 153.614545 
L 303.425376 153.614338 
L 301.734206 153.676654 
L 300.043036 153.803332 
L 298.351866 153.996214 
L 296.660696 154.257139 
L 294.969526 154.587948 
L 293.278356 154.990481 
L 291.587185 155.465085 
L 289.896015 155.99912 
L 288.204845 156.573257 
L 286.513675 157.168113 
L 284.822505 157.764303 
L 283.131335 158.342445 
L 281.440165 158.883153 
L 279.748995 159.367045 
L 278.057825 159.774736 
L 276.366655 160.086843 
L 274.675485 160.284133 
L 272.984315 160.359079 
L 271.293145 160.323996 
L 269.601975 160.193119 
L 267.910804 159.980686 
L 266.219634 159.700933 
L 264.528464 159.368095 
L 262.837294 158.99641 
L 261.146124 158.600114 
L 259.454954 158.193443 
L 257.763784 157.790634 
L 256.072614 157.404783 
L 254.381444 157.041795 
L 252.690274 156.704776 
L 250.999104 156.396829 
L 249.307934 156.121054 
L 247.616764 155.880552 
L 245.925593 155.678424 
L 244.234423 155.51777 
L 242.543253 155.401692 
L 240.852083 155.333291 
L 239.160913 155.315536 
L 237.469743 155.346307 
L 235.778573 155.416869 
L 234.087403 155.518046 
L 232.396233 155.640663 
L 230.705063 155.775543 
L 229.013893 155.913509 
L 227.322723 156.045386 
L 225.631553 156.161998 
L 223.940383 156.254168 
L 222.249212 156.312721 
L 220.558042 156.331776 
L 218.866872 156.320776 
L 217.175702 156.293611 
L 215.484532 156.264175 
L 213.793362 156.246357 
L 212.102192 156.254051 
L 210.411022 156.301147 
L 208.719852 156.401536 
L 207.028682 156.569112 
L 205.337512 156.817765 
L 203.646342 157.160512 
L 201.955172 157.590256 
L 200.264001 158.079784 
L 198.572831 158.601011 
L 196.881661 159.125849 
L 195.190491 159.626212 
L 193.499321 160.074013 
L 191.808151 160.441166 
L 190.116981 160.699584 
L 188.425811 160.82118 
L 186.734641 160.777869 
L 185.043471 160.554668 
L 183.352301 160.181722 
L 181.661131 159.698881 
L 179.969961 159.146 
L 178.278791 158.562929 
L 176.58762 157.98952 
L 174.89645 157.465627 
L 173.20528 157.0311 
L 171.51411 156.725793 
L 169.82294 156.589557 
L 168.13177 156.659202 
L 166.4406 156.925995 
L 164.74943 157.346153 
L 163.05826 157.874985 
L 161.36709 158.467804 
L 159.67592 159.079921 
L 157.98475 159.666649 
L 156.29358 160.183298 
L 154.602409 160.585182 
L 152.911239 160.827611 
L 151.220069 160.865945 
L 149.528899 160.676495 
L 147.837729 160.289439 
L 146.146559 159.743492 
L 144.455389 159.077369 
L 142.764219 158.329784 
L 141.073049 157.539452 
L 139.381879 156.745089 
L 137.690709 155.985408 
L 135.999539 155.299124 
L 134.308369 154.724952 
L 132.617199 154.29887 
L 130.926028 154.028612 
L 129.234858 153.905244 
L 127.543688 153.91962 
L 125.852518 154.062593 
L 124.161348 154.325016 
L 122.470178 154.697742 
L 120.779008 155.171623 
L 119.087838 155.737512 
L 117.396668 156.386263 
L 115.705498 157.108686 
L 114.014328 157.890453 
L 112.323158 158.707257 
L 110.631988 159.533645 
L 108.940817 160.344165 
L 107.249647 161.113362 
L 105.558477 161.815784 
L 103.867307 162.425977 
L 102.176137 162.918489 
L 100.484967 163.267866 
L 98.793797 163.448654 
L 97.102627 163.440621 
L 95.411457 163.262108 
L 93.720287 162.948746 
L 92.029117 162.536248 
L 90.337947 162.060327 
L 88.646777 161.556697 
L 86.955607 161.061069 
L 85.264436 160.609158 
L 83.573266 160.236675 
L 81.882096 159.979335 
L 80.190926 159.872367 
L 78.499756 159.925277 
L 76.808586 160.109423 
L 75.117416 160.393078 
L 73.426246 160.744516 
L 71.735076 161.132008 
L 70.043906 161.523829 
L 68.352736 161.888249 
L 66.661566 162.193543 
L 64.970396 162.407983 
L 63.279225 162.499842 
L 61.588055 162.444083 
L 59.896885 162.251863 
L 58.205715 161.946516 
L 56.514545 161.551386 
L 54.823375 161.089817 
L 53.132205 160.585155 
L 51.441035 160.060743 
L 49.749865 159.539926 
L 48.058695 159.046048 
L 46.367525 158.602453 
L 44.676355 158.232485 
L 42.985185 157.95949 
L 41.294015 157.806811 
L 39.602844 157.797792 
L 37.911674 157.955779 
L 36.220504 158.304114 
L 34.529334 158.866143 
L 32.838164 159.66521 
L 31.146994 160.724659 
L 29.455824 162.067834 
L 27.764654 163.718081 
z
" clip-path="url(#p2820e8c112)" style="fill: #ff7f0e"/>
   </g>
   <g id="FillBetweenPolyCollection_4">
    <path d="M 27.764654 150.818646 
L 27.764654 163.718081 
L 29.455824 162.067834 
L 31.146994 160.724659 
L 32.838164 159.66521 
L 34.529334 158.866143 
L 36.220504 158.304114 
L 37.911674 157.955779 
L 39.602844 157.797792 
L 41.294015 157.806811 
L 42.985185 157.95949 
L 44.676355 158.232485 
L 46.367525 158.602453 
L 48.058695 159.046048 
L 49.749865 159.539926 
L 51.441035 160.060743 
L 53.132205 160.585155 
L 54.823375 161.089817 
L 56.514545 161.551386 
L 58.205715 161.946516 
L 59.896885 162.251863 
L 61.588055 162.444083 
L 63.279225 162.499842 
L 64.970396 162.407983 
L 66.661566 162.193543 
L 68.352736 161.888249 
L 70.043906 161.523829 
L 71.735076 161.132008 
L 73.426246 160.744516 
L 75.117416 160.393078 
L 76.808586 160.109423 
L 78.499756 159.925277 
L 80.190926 159.872367 
L 81.882096 159.979335 
L 83.573266 160.236675 
L 85.264436 160.609158 
L 86.955607 161.061069 
L 88.646777 161.556697 
L 90.337947 162.060327 
L 92.029117 162.536248 
L 93.720287 162.948746 
L 95.411457 163.262108 
L 97.102627 163.440621 
L 98.793797 163.448654 
L 100.484967 163.267866 
L 102.176137 162.918489 
L 103.867307 162.425977 
L 105.558477 161.815784 
L 107.249647 161.113362 
L 108.940817 160.344165 
L 110.631988 159.533645 
L 112.323158 158.707257 
L 114.014328 157.890453 
L 115.705498 157.108686 
L 117.396668 156.386263 
L 119.087838 155.737512 
L 120.779008 155.171623 
L 122.470178 154.697742 
L 124.161348 154.325016 
L 125.852518 154.062593 
L 127.543688 153.91962 
L 129.234858 153.905244 
L 130.926028 154.028612 
L 132.617199 154.29887 
L 134.308369 154.724952 
L 135.999539 155.299124 
L 137.690709 155.985408 
L 139.381879 156.745089 
L 141.073049 157.539452 
L 142.764219 158.329784 
L 144.455389 159.077369 
L 146.146559 159.743492 
L 147.837729 160.289439 
L 149.528899 160.676495 
L 151.220069 160.865945 
L 152.911239 160.827611 
L 154.602409 160.585182 
L 156.29358 160.183298 
L 157.98475 159.666649 
L 159.67592 159.079921 
L 161.36709 158.467804 
L 163.05826 157.874985 
L 164.74943 157.346153 
L 166.4406 156.925995 
L 168.13177 156.659202 
L 169.82294 156.589557 
L 171.51411 156.725793 
L 173.20528 157.0311 
L 174.89645 157.465627 
L 176.58762 157.98952 
L 178.278791 158.562929 
L 179.969961 159.146 
L 181.661131 159.698881 
L 183.352301 160.181722 
L 185.043471 160.554668 
L 186.734641 160.777869 
L 188.425811 160.82118 
L 190.116981 160.699584 
L 191.808151 160.441166 
L 193.499321 160.074013 
L 195.190491 159.626212 
L 196.881661 159.125849 
L 198.572831 158.601011 
L 200.264001 158.079784 
L 201.955172 157.590256 
L 203.646342 157.160512 
L 205.337512 156.817765 
L 207.028682 156.569112 
L 208.719852 156.401536 
L 210.411022 156.301147 
L 212.102192 156.254051 
L 213.793362 156.246357 
L 215.484532 156.264175 
L 217.175702 156.293611 
L 218.866872 156.320776 
L 220.558042 156.331776 
L 222.249212 156.312721 
L 223.940383 156.254168 
L 225.631553 156.161998 
L 227.322723 156.045386 
L 229.013893 155.913509 
L 230.705063 155.775543 
L 232.396233 155.640663 
L 234.087403 155.518046 
L 235.778573 155.416869 
L 237.469743 155.346307 
L 239.160913 155.315536 
L 240.852083 155.333291 
L 242.543253 155.401692 
L 244.234423 155.51777 
L 245.925593 155.678424 
L 247.616764 155.880552 
L 249.307934 156.121054 
L 250.999104 156.396829 
L 252.690274 156.704776 
L 254.381444 157.041795 
L 256.072614 157.404783 
L 257.763784 157.790634 
L 259.454954 158.193443 
L 261.146124 158.600114 
L 262.837294 158.99641 
L 264.528464 159.368095 
L 266.219634 159.700933 
L 267.910804 159.980686 
L 269.601975 160.193119 
L 271.293145 160.323996 
L 272.984315 160.359079 
L 274.675485 160.284133 
L 276.366655 160.086843 
L 278.057825 159.774736 
L 279.748995 159.367045 
L 281.440165 158.883153 
L 283.131335 158.342445 
L 284.822505 157.764303 
L 286.513675 157.168113 
L 288.204845 156.573257 
L 289.896015 155.99912 
L 291.587185 155.465085 
L 293.278356 154.990481 
L 294.969526 154.587948 
L 296.660696 154.257139 
L 298.351866 153.996214 
L 300.043036 153.803332 
L 301.734206 153.676654 
L 303.425376 153.614338 
L 305.116546 153.614545 
L 306.807716 153.675436 
L 308.498886 153.795168 
L 310.190056 153.971904 
L 311.881226 154.202873 
L 313.572396 154.478443 
L 315.263567 154.785907 
L 316.954737 155.112542 
L 318.645907 155.445626 
L 320.337077 155.772435 
L 322.028247 156.080247 
L 323.719417 156.356339 
L 325.410587 156.587989 
L 327.101757 156.762475 
L 328.792927 156.86726 
L 330.484097 156.899806 
L 332.175267 156.872397 
L 333.866437 156.798513 
L 335.557607 156.691638 
L 337.248777 156.565255 
L 338.939948 156.432844 
L 340.631118 156.307889 
L 342.322288 156.203872 
L 344.013458 156.134275 
L 345.704628 156.112581 
L 347.395798 156.149343 
L 349.086968 156.239284 
L 350.778138 156.371792 
L 352.469308 156.536256 
L 354.160478 156.722062 
L 355.851648 156.918597 
L 357.542818 157.115248 
L 359.233988 157.301402 
L 360.925159 157.466446 
L 362.616329 157.599767 
L 364.307499 157.690751 
L 365.998669 157.728787 
L 367.689839 157.70326 
L 369.381009 157.603558 
L 371.072179 157.419067 
L 372.763349 157.139175 
L 374.454519 156.753268 
L 376.145689 156.250734 
L 377.836859 155.620959 
L 379.528029 154.853331 
L 381.219199 153.937236 
L 381.219199 60.02125 
L 381.219199 60.02125 
L 379.528029 61.13053 
L 377.836859 62.231647 
L 376.145689 63.3236 
L 374.454519 64.405388 
L 372.763349 65.476009 
L 371.072179 66.534463 
L 369.381009 67.579747 
L 367.689839 68.610861 
L 365.998669 69.626804 
L 364.307499 70.626574 
L 362.616329 71.609169 
L 360.925159 72.573589 
L 359.233988 73.518833 
L 357.542818 74.443898 
L 355.851648 75.347784 
L 354.160478 76.229489 
L 352.469308 77.088013 
L 350.778138 77.922353 
L 349.086968 78.731509 
L 347.395798 79.51448 
L 345.704628 80.270264 
L 344.013458 80.99857 
L 342.322288 81.701217 
L 340.631118 82.380412 
L 338.939948 83.038364 
L 337.248777 83.677279 
L 335.557607 84.299366 
L 333.866437 84.906832 
L 332.175267 85.501886 
L 330.484097 86.086735 
L 328.792927 86.663587 
L 327.101757 87.234461 
L 325.410587 87.799048 
L 323.719417 88.355468 
L 322.028247 88.901811 
L 320.337077 89.436168 
L 318.645907 89.956628 
L 316.954737 90.461283 
L 315.263567 90.948223 
L 313.572396 91.415538 
L 311.881226 91.861318 
L 310.190056 92.283668 
L 308.498886 92.683351 
L 306.807716 93.067075 
L 305.116546 93.442347 
L 303.425376 93.816677 
L 301.734206 94.197576 
L 300.043036 94.592551 
L 298.351866 95.009113 
L 296.660696 95.454771 
L 294.969526 95.937033 
L 293.278356 96.463411 
L 291.587185 97.040705 
L 289.896015 97.66957 
L 288.204845 98.34749 
L 286.513675 99.071927 
L 284.822505 99.840339 
L 283.131335 100.650188 
L 281.440165 101.498932 
L 279.748995 102.384032 
L 278.057825 103.302948 
L 276.366655 104.25314 
L 274.675485 105.231977 
L 272.984315 106.229852 
L 271.293145 107.225329 
L 269.601975 108.195828 
L 267.910804 109.118766 
L 266.219634 109.971564 
L 264.528464 110.731639 
L 262.837294 111.376411 
L 261.146124 111.883299 
L 259.454954 112.229722 
L 257.763784 112.393098 
L 256.072614 112.35725 
L 254.381444 112.146403 
L 252.690274 111.8005 
L 250.999104 111.359519 
L 249.307934 110.863437 
L 247.616764 110.352231 
L 245.925593 109.86588 
L 244.234423 109.444361 
L 242.543253 109.127651 
L 240.852083 108.955728 
L 239.160913 108.967848 
L 237.469743 109.175175 
L 235.778573 109.552386 
L 234.087403 110.07172 
L 232.396233 110.705413 
L 230.705063 111.425704 
L 229.013893 112.204831 
L 227.322723 113.015031 
L 225.631553 113.828542 
L 223.940383 114.617601 
L 222.249212 115.354448 
L 220.558042 116.017556 
L 218.866872 116.614386 
L 217.175702 117.160818 
L 215.484532 117.672732 
L 213.793362 118.166006 
L 212.102192 118.656521 
L 210.411022 119.160155 
L 208.719852 119.69279 
L 207.028682 120.270304 
L 205.337512 120.908576 
L 203.646342 121.622706 
L 201.955172 122.409835 
L 200.264001 123.249143 
L 198.572831 124.119033 
L 196.881661 124.997906 
L 195.190491 125.864163 
L 193.499321 126.696206 
L 191.808151 127.472435 
L 190.116981 128.171253 
L 188.425811 128.77106 
L 186.734641 129.250259 
L 185.043471 129.594887 
L 183.352301 129.817284 
L 181.661131 129.935446 
L 179.969961 129.967368 
L 178.278791 129.931048 
L 176.58762 129.844482 
L 174.89645 129.725665 
L 173.20528 129.592596 
L 171.51411 129.463269 
L 169.82294 129.355681 
L 168.13177 129.286928 
L 166.4406 129.260638 
L 164.74943 129.270067 
L 163.05826 129.308207 
L 161.36709 129.36805 
L 159.67592 129.442585 
L 157.98475 129.524804 
L 156.29358 129.607698 
L 154.602409 129.684259 
L 152.911239 129.747476 
L 151.220069 129.790353 
L 149.528899 129.810649 
L 147.837729 129.818361 
L 146.146559 129.825423 
L 144.455389 129.843769 
L 142.764219 129.885333 
L 141.073049 129.962051 
L 139.381879 130.085857 
L 137.690709 130.268685 
L 135.999539 130.52247 
L 134.308369 130.859146 
L 132.617199 131.288976 
L 130.926028 131.80496 
L 129.234858 132.389918 
L 127.543688 133.026536 
L 125.852518 133.6975 
L 124.161348 134.385497 
L 122.470178 135.073214 
L 120.779008 135.743336 
L 119.087838 136.378552 
L 117.396668 136.961546 
L 115.705498 137.47508 
L 114.014328 137.910837 
L 112.323158 138.277833 
L 110.631988 138.587074 
L 108.940817 138.849565 
L 107.249647 139.076314 
L 105.558477 139.278326 
L 103.867307 139.466608 
L 102.176137 139.652166 
L 100.484967 139.846007 
L 98.793797 140.059136 
L 97.102627 140.300952 
L 95.411457 140.568972 
L 93.720287 140.855389 
L 92.029117 141.15237 
L 90.337947 141.452082 
L 88.646777 141.746692 
L 86.955607 142.028367 
L 85.264436 142.289273 
L 83.573266 142.521579 
L 81.882096 142.717451 
L 80.190926 142.86917 
L 78.499756 142.975094 
L 76.808586 143.042589 
L 75.117416 143.079752 
L 73.426246 143.09468 
L 71.735076 143.095469 
L 70.043906 143.090215 
L 68.352736 143.087015 
L 66.661566 143.093964 
L 64.970396 143.11916 
L 63.279225 143.170698 
L 61.588055 143.255568 
L 59.896885 143.374775 
L 58.205715 143.527309 
L 56.514545 143.712158 
L 54.823375 143.92831 
L 53.132205 144.174755 
L 51.441035 144.45048 
L 49.749865 144.754474 
L 48.058695 145.085726 
L 46.367525 145.443224 
L 44.676355 145.825956 
L 42.985185 146.232911 
L 41.294015 146.663078 
L 39.602844 147.115445 
L 37.911674 147.589 
L 36.220504 148.082733 
L 34.529334 148.595631 
L 32.838164 149.126682 
L 31.146994 149.674877 
L 29.455824 150.239202 
L 27.764654 150.818646 
z
" clip-path="url(#p2820e8c112)" style="fill: #ffbb78"/>
   </g>
   <g id="matplotlib.axis_1">
    <g id="xtick_1">
     <g id="line2d_1">
      <defs>
       <path id="m0d86bd7545" d="M 0 0 
L 0 3.5 
" style="stroke: #000000; stroke-width: 0.8"/>
      </defs>
      <g>
       <use xlink:href="#m0d86bd7545" x="27.764654" y="314.12125" style="stroke: #000000; stroke-width: 0.8"/>
      </g>
     </g>
     <g id="text_1">
      <!-- 2004 -->
      <g transform="translate(12.109973 340.173358) rotate(-45) scale(0.1 -0.1)">
       <defs>
        <path id="TimesNewRomanPSMT-32" d="M 2934 816 
L 2638 0 
L 138 0 
L 138 116 
Q 1241 1122 1691 1759 
Q 2141 2397 2141 2925 
Q 2141 3328 1894 3587 
Q 1647 3847 1303 3847 
Q 991 3847 742 3664 
Q 494 3481 375 3128 
L 259 3128 
Q 338 3706 661 4015 
Q 984 4325 1469 4325 
Q 1984 4325 2329 3994 
Q 2675 3663 2675 3213 
Q 2675 2891 2525 2569 
Q 2294 2063 1775 1497 
Q 997 647 803 472 
L 1909 472 
Q 2247 472 2383 497 
Q 2519 522 2628 598 
Q 2738 675 2819 816 
L 2934 816 
z
" transform="scale(0.015625)"/>
        <path id="TimesNewRomanPSMT-30" d="M 231 2094 
Q 231 2819 450 3342 
Q 669 3866 1031 4122 
Q 1313 4325 1613 4325 
Q 2100 4325 2488 3828 
Q 2972 3213 2972 2159 
Q 2972 1422 2759 906 
Q 2547 391 2217 158 
Q 1888 -75 1581 -75 
Q 975 -75 572 641 
Q 231 1244 231 2094 
z
M 844 2016 
Q 844 1141 1059 588 
Q 1238 122 1591 122 
Q 1759 122 1940 273 
Q 2122 425 2216 781 
Q 2359 1319 2359 2297 
Q 2359 3022 2209 3506 
Q 2097 3866 1919 4016 
Q 1791 4119 1609 4119 
Q 1397 4119 1231 3928 
Q 1006 3669 925 3112 
Q 844 2556 844 2016 
z
" transform="scale(0.015625)"/>
        <path id="TimesNewRomanPSMT-34" d="M 2978 1563 
L 2978 1119 
L 2409 1119 
L 2409 0 
L 1894 0 
L 1894 1119 
L 100 1119 
L 100 1519 
L 2066 4325 
L 2409 4325 
L 2409 1563 
L 2978 1563 
z
M 1894 1563 
L 1894 3666 
L 406 1563 
L 1894 1563 
z
" transform="scale(0.015625)"/>
       </defs>
       <use xlink:href="#TimesNewRomanPSMT-32"/>
       <use xlink:href="#TimesNewRomanPSMT-30" transform="translate(50 0)"/>
       <use xlink:href="#TimesNewRomanPSMT-30" transform="translate(100 0)"/>
       <use xlink:href="#TimesNewRomanPSMT-34" transform="translate(150 0)"/>
      </g>
     </g>
    </g>
    <g id="xtick_2">
     <g id="line2d_2">
      <g>
       <use xlink:href="#m0d86bd7545" x="63.110108" y="314.12125" style="stroke: #000000; stroke-width: 0.8"/>
      </g>
     </g>
     <g id="text_2">
      <!-- 2006 -->
      <g transform="translate(47.455427 340.173358) rotate(-45) scale(0.1 -0.1)">
       <defs>
        <path id="TimesNewRomanPSMT-36" d="M 2869 4325 
L 2869 4209 
Q 2456 4169 2195 4045 
Q 1934 3922 1679 3669 
Q 1425 3416 1258 3105 
Q 1091 2794 978 2366 
Q 1428 2675 1881 2675 
Q 2316 2675 2634 2325 
Q 2953 1975 2953 1425 
Q 2953 894 2631 456 
Q 2244 -75 1606 -75 
Q 1172 -75 869 213 
Q 275 772 275 1663 
Q 275 2231 503 2743 
Q 731 3256 1154 3653 
Q 1578 4050 1965 4187 
Q 2353 4325 2688 4325 
L 2869 4325 
z
M 925 2138 
Q 869 1716 869 1456 
Q 869 1156 980 804 
Q 1091 453 1309 247 
Q 1469 100 1697 100 
Q 1969 100 2183 356 
Q 2397 613 2397 1088 
Q 2397 1622 2184 2012 
Q 1972 2403 1581 2403 
Q 1463 2403 1327 2353 
Q 1191 2303 925 2138 
z
" transform="scale(0.015625)"/>
       </defs>
       <use xlink:href="#TimesNewRomanPSMT-32"/>
       <use xlink:href="#TimesNewRomanPSMT-30" transform="translate(50 0)"/>
       <use xlink:href="#TimesNewRomanPSMT-30" transform="translate(100 0)"/>
       <use xlink:href="#TimesNewRomanPSMT-36" transform="translate(150 0)"/>
      </g>
     </g>
    </g>
    <g id="xtick_3">
     <g id="line2d_3">
      <g>
       <use xlink:href="#m0d86bd7545" x="98.455563" y="314.12125" style="stroke: #000000; stroke-width: 0.8"/>
      </g>
     </g>
     <g id="text_3">
      <!-- 2008 -->
      <g transform="translate(82.800882 340.173358) rotate(-45) scale(0.1 -0.1)">
       <defs>
        <path id="TimesNewRomanPSMT-38" d="M 1228 2134 
Q 725 2547 579 2797 
Q 434 3047 434 3316 
Q 434 3728 753 4026 
Q 1072 4325 1600 4325 
Q 2113 4325 2425 4047 
Q 2738 3769 2738 3413 
Q 2738 3175 2569 2928 
Q 2400 2681 1866 2347 
Q 2416 1922 2594 1678 
Q 2831 1359 2831 1006 
Q 2831 559 2490 242 
Q 2150 -75 1597 -75 
Q 994 -75 656 303 
Q 388 606 388 966 
Q 388 1247 577 1523 
Q 766 1800 1228 2134 
z
M 1719 2469 
Q 2094 2806 2194 3001 
Q 2294 3197 2294 3444 
Q 2294 3772 2109 3958 
Q 1925 4144 1606 4144 
Q 1288 4144 1088 3959 
Q 888 3775 888 3528 
Q 888 3366 970 3203 
Q 1053 3041 1206 2894 
L 1719 2469 
z
M 1375 2016 
Q 1116 1797 991 1539 
Q 866 1281 866 981 
Q 866 578 1086 336 
Q 1306 94 1647 94 
Q 1984 94 2187 284 
Q 2391 475 2391 747 
Q 2391 972 2272 1150 
Q 2050 1481 1375 2016 
z
" transform="scale(0.015625)"/>
       </defs>
       <use xlink:href="#TimesNewRomanPSMT-32"/>
       <use xlink:href="#TimesNewRomanPSMT-30" transform="translate(50 0)"/>
       <use xlink:href="#TimesNewRomanPSMT-30" transform="translate(100 0)"/>
       <use xlink:href="#TimesNewRomanPSMT-38" transform="translate(150 0)"/>
      </g>
     </g>
    </g>
    <g id="xtick_4">
     <g id="line2d_4">
      <g>
       <use xlink:href="#m0d86bd7545" x="133.801018" y="314.12125" style="stroke: #000000; stroke-width: 0.8"/>
      </g>
     </g>
     <g id="text_4">
      <!-- 2010 -->
      <g transform="translate(118.146336 340.173358) rotate(-45) scale(0.1 -0.1)">
       <defs>
        <path id="TimesNewRomanPSMT-31" d="M 750 3822 
L 1781 4325 
L 1884 4325 
L 1884 747 
Q 1884 391 1914 303 
Q 1944 216 2037 169 
Q 2131 122 2419 116 
L 2419 0 
L 825 0 
L 825 116 
Q 1125 122 1212 167 
Q 1300 213 1334 289 
Q 1369 366 1369 747 
L 1369 3034 
Q 1369 3497 1338 3628 
Q 1316 3728 1258 3775 
Q 1200 3822 1119 3822 
Q 1003 3822 797 3725 
L 750 3822 
z
" transform="scale(0.015625)"/>
       </defs>
       <use xlink:href="#TimesNewRomanPSMT-32"/>
       <use xlink:href="#TimesNewRomanPSMT-30" transform="translate(50 0)"/>
       <use xlink:href="#TimesNewRomanPSMT-31" transform="translate(100 0)"/>
       <use xlink:href="#TimesNewRomanPSMT-30" transform="translate(150 0)"/>
      </g>
     </g>
    </g>
    <g id="xtick_5">
     <g id="line2d_5">
      <g>
       <use xlink:href="#m0d86bd7545" x="169.146472" y="314.12125" style="stroke: #000000; stroke-width: 0.8"/>
      </g>
     </g>
     <g id="text_5">
      <!-- 2012 -->
      <g transform="translate(153.491791 340.173358) rotate(-45) scale(0.1 -0.1)">
       <use xlink:href="#TimesNewRomanPSMT-32"/>
       <use xlink:href="#TimesNewRomanPSMT-30" transform="translate(50 0)"/>
       <use xlink:href="#TimesNewRomanPSMT-31" transform="translate(100 0)"/>
       <use xlink:href="#TimesNewRomanPSMT-32" transform="translate(150 0)"/>
      </g>
     </g>
    </g>
    <g id="xtick_6">
     <g id="line2d_6">
      <g>
       <use xlink:href="#m0d86bd7545" x="204.491927" y="314.12125" style="stroke: #000000; stroke-width: 0.8"/>
      </g>
     </g>
     <g id="text_6">
      <!-- 2014 -->
      <g transform="translate(188.837245 340.173358) rotate(-45) scale(0.1 -0.1)">
       <use xlink:href="#TimesNewRomanPSMT-32"/>
       <use xlink:href="#TimesNewRomanPSMT-30" transform="translate(50 0)"/>
       <use xlink:href="#TimesNewRomanPSMT-31" transform="translate(100 0)"/>
       <use xlink:href="#TimesNewRomanPSMT-34" transform="translate(150 0)"/>
      </g>
     </g>
    </g>
    <g id="xtick_7">
     <g id="line2d_7">
      <g>
       <use xlink:href="#m0d86bd7545" x="239.837381" y="314.12125" style="stroke: #000000; stroke-width: 0.8"/>
      </g>
     </g>
     <g id="text_7">
      <!-- 2016 -->
      <g transform="translate(224.1827 340.173358) rotate(-45) scale(0.1 -0.1)">
       <use xlink:href="#TimesNewRomanPSMT-32"/>
       <use xlink:href="#TimesNewRomanPSMT-30" transform="translate(50 0)"/>
       <use xlink:href="#TimesNewRomanPSMT-31" transform="translate(100 0)"/>
       <use xlink:href="#TimesNewRomanPSMT-36" transform="translate(150 0)"/>
      </g>
     </g>
    </g>
    <g id="xtick_8">
     <g id="line2d_8">
      <g>
       <use xlink:href="#m0d86bd7545" x="275.182836" y="314.12125" style="stroke: #000000; stroke-width: 0.8"/>
      </g>
     </g>
     <g id="text_8">
      <!-- 2018 -->
      <g transform="translate(259.528155 340.173358) rotate(-45) scale(0.1 -0.1)">
       <use xlink:href="#TimesNewRomanPSMT-32"/>
       <use xlink:href="#TimesNewRomanPSMT-30" transform="translate(50 0)"/>
       <use xlink:href="#TimesNewRomanPSMT-31" transform="translate(100 0)"/>
       <use xlink:href="#TimesNewRomanPSMT-38" transform="translate(150 0)"/>
      </g>
     </g>
    </g>
    <g id="xtick_9">
     <g id="line2d_9">
      <g>
       <use xlink:href="#m0d86bd7545" x="310.52829" y="314.12125" style="stroke: #000000; stroke-width: 0.8"/>
      </g>
     </g>
     <g id="text_9">
      <!-- 2020 -->
      <g transform="translate(294.873609 340.173358) rotate(-45) scale(0.1 -0.1)">
       <use xlink:href="#TimesNewRomanPSMT-32"/>
       <use xlink:href="#TimesNewRomanPSMT-30" transform="translate(50 0)"/>
       <use xlink:href="#TimesNewRomanPSMT-32" transform="translate(100 0)"/>
       <use xlink:href="#TimesNewRomanPSMT-30" transform="translate(150 0)"/>
      </g>
     </g>
    </g>
    <g id="xtick_10">
     <g id="line2d_10">
      <g>
       <use xlink:href="#m0d86bd7545" x="345.873745" y="314.12125" style="stroke: #000000; stroke-width: 0.8"/>
      </g>
     </g>
     <g id="text_10">
      <!-- 2022 -->
      <g transform="translate(330.219064 340.173358) rotate(-45) scale(0.1 -0.1)">
       <use xlink:href="#TimesNewRomanPSMT-32"/>
       <use xlink:href="#TimesNewRomanPSMT-30" transform="translate(50 0)"/>
       <use xlink:href="#TimesNewRomanPSMT-32" transform="translate(100 0)"/>
       <use xlink:href="#TimesNewRomanPSMT-32" transform="translate(150 0)"/>
      </g>
     </g>
    </g>
    <g id="xtick_11">
     <g id="line2d_11">
      <g>
       <use xlink:href="#m0d86bd7545" x="381.219199" y="314.12125" style="stroke: #000000; stroke-width: 0.8"/>
      </g>
     </g>
     <g id="text_11">
      <!-- 2024 -->
      <g transform="translate(365.564518 340.173358) rotate(-45) scale(0.1 -0.1)">
       <use xlink:href="#TimesNewRomanPSMT-32"/>
       <use xlink:href="#TimesNewRomanPSMT-30" transform="translate(50 0)"/>
       <use xlink:href="#TimesNewRomanPSMT-32" transform="translate(100 0)"/>
       <use xlink:href="#TimesNewRomanPSMT-34" transform="translate(150 0)"/>
      </g>
     </g>
    </g>
    <g id="text_12">
     <!-- Year -->
     <g transform="translate(193.434114 354.018404) scale(0.12 -0.12)">
      <defs>
       <path id="TimesNewRomanPSMT-59" d="M 3050 4238 
L 4528 4238 
L 4528 4122 
L 4447 4122 
Q 4366 4122 4209 4050 
Q 4053 3978 3925 3843 
Q 3797 3709 3609 3406 
L 2588 1797 
L 2588 734 
Q 2588 344 2675 247 
Q 2794 116 3050 116 
L 3188 116 
L 3188 0 
L 1388 0 
L 1388 116 
L 1538 116 
Q 1806 116 1919 278 
Q 1988 378 1988 734 
L 1988 1738 
L 825 3513 
Q 619 3825 545 3903 
Q 472 3981 241 4091 
Q 178 4122 59 4122 
L 59 4238 
L 1872 4238 
L 1872 4122 
L 1778 4122 
Q 1631 4122 1507 4053 
Q 1384 3984 1384 3847 
Q 1384 3734 1575 3441 
L 2459 2075 
L 3291 3381 
Q 3478 3675 3478 3819 
Q 3478 3906 3433 3975 
Q 3388 4044 3303 4083 
Q 3219 4122 3050 4122 
L 3050 4238 
z
" transform="scale(0.015625)"/>
       <path id="TimesNewRomanPSMT-65" d="M 681 1784 
Q 678 1147 991 784 
Q 1303 422 1725 422 
Q 2006 422 2214 576 
Q 2422 731 2563 1106 
L 2659 1044 
Q 2594 616 2278 264 
Q 1963 -88 1488 -88 
Q 972 -88 605 314 
Q 238 716 238 1394 
Q 238 2128 614 2539 
Q 991 2950 1559 2950 
Q 2041 2950 2350 2633 
Q 2659 2316 2659 1784 
L 681 1784 
z
M 681 1966 
L 2006 1966 
Q 1991 2241 1941 2353 
Q 1863 2528 1708 2628 
Q 1553 2728 1384 2728 
Q 1125 2728 920 2526 
Q 716 2325 681 1966 
z
" transform="scale(0.015625)"/>
       <path id="TimesNewRomanPSMT-61" d="M 1822 413 
Q 1381 72 1269 19 
Q 1100 -59 909 -59 
Q 613 -59 420 144 
Q 228 347 228 678 
Q 228 888 322 1041 
Q 450 1253 767 1440 
Q 1084 1628 1822 1897 
L 1822 2009 
Q 1822 2438 1686 2597 
Q 1550 2756 1291 2756 
Q 1094 2756 978 2650 
Q 859 2544 859 2406 
L 866 2225 
Q 866 2081 792 2003 
Q 719 1925 600 1925 
Q 484 1925 411 2006 
Q 338 2088 338 2228 
Q 338 2497 613 2722 
Q 888 2947 1384 2947 
Q 1766 2947 2009 2819 
Q 2194 2722 2281 2516 
Q 2338 2381 2338 1966 
L 2338 994 
Q 2338 584 2353 492 
Q 2369 400 2405 369 
Q 2441 338 2488 338 
Q 2538 338 2575 359 
Q 2641 400 2828 588 
L 2828 413 
Q 2478 -56 2159 -56 
Q 2006 -56 1915 50 
Q 1825 156 1822 413 
z
M 1822 616 
L 1822 1706 
Q 1350 1519 1213 1441 
Q 966 1303 859 1153 
Q 753 1003 753 825 
Q 753 600 887 451 
Q 1022 303 1197 303 
Q 1434 303 1822 616 
z
" transform="scale(0.015625)"/>
       <path id="TimesNewRomanPSMT-72" d="M 1038 2947 
L 1038 2303 
Q 1397 2947 1775 2947 
Q 1947 2947 2059 2842 
Q 2172 2738 2172 2600 
Q 2172 2478 2090 2393 
Q 2009 2309 1897 2309 
Q 1788 2309 1652 2417 
Q 1516 2525 1450 2525 
Q 1394 2525 1328 2463 
Q 1188 2334 1038 2041 
L 1038 669 
Q 1038 431 1097 309 
Q 1138 225 1241 169 
Q 1344 113 1538 113 
L 1538 0 
L 72 0 
L 72 113 
Q 291 113 397 181 
Q 475 231 506 341 
Q 522 394 522 644 
L 522 1753 
Q 522 2253 501 2348 
Q 481 2444 426 2487 
Q 372 2531 291 2531 
Q 194 2531 72 2484 
L 41 2597 
L 906 2947 
L 1038 2947 
z
" transform="scale(0.015625)"/>
      </defs>
      <use xlink:href="#TimesNewRomanPSMT-59"/>
      <use xlink:href="#TimesNewRomanPSMT-65" transform="translate(62.216797 0)"/>
      <use xlink:href="#TimesNewRomanPSMT-61" transform="translate(106.601562 0)"/>
      <use xlink:href="#TimesNewRomanPSMT-72" transform="translate(150.986328 0)"/>
     </g>
    </g>
   </g>
   <g id="patch_3">
    <path d="M 10.091927 314.12125 
L 10.091927 36.92125 
" style="fill: none; stroke: #000000; stroke-width: 0.8; stroke-linejoin: miter; stroke-linecap: square"/>
   </g>
   <g id="patch_4">
    <path d="M 398.891927 314.12125 
L 398.891927 36.92125 
" style="fill: none; stroke: #000000; stroke-width: 0.8; stroke-linejoin: miter; stroke-linecap: square"/>
   </g>
   <g id="patch_5">
    <path d="M 10.091927 314.12125 
L 398.891927 314.12125 
" style="fill: none; stroke: #000000; stroke-width: 0.8; stroke-linejoin: miter; stroke-linecap: square"/>
   </g>
   <g id="patch_6">
    <path d="M 10.091927 36.92125 
L 398.891927 36.92125 
" style="fill: none; stroke: #000000; stroke-width: 0.8; stroke-linejoin: miter; stroke-linecap: square"/>
   </g>
   <g id="text_13">
    <!-- Loyalty Program Members from 2004 to 2024 (members)  -->
    <g transform="translate(40.802395 16.92125) scale(0.14 -0.14)">
     <defs>
      <path id="TimesNewRomanPSMT-4c" d="M 3669 1172 
L 3772 1150 
L 3409 0 
L 128 0 
L 128 116 
L 288 116 
Q 556 116 672 291 
Q 738 391 738 753 
L 738 3488 
Q 738 3884 650 3984 
Q 528 4122 288 4122 
L 128 4122 
L 128 4238 
L 2047 4238 
L 2047 4122 
Q 1709 4125 1573 4059 
Q 1438 3994 1388 3894 
Q 1338 3794 1338 3416 
L 1338 753 
Q 1338 494 1388 397 
Q 1425 331 1503 300 
Q 1581 269 1991 269 
L 2300 269 
Q 2788 269 2984 341 
Q 3181 413 3343 595 
Q 3506 778 3669 1172 
z
" transform="scale(0.015625)"/>
      <path id="TimesNewRomanPSMT-6f" d="M 1600 2947 
Q 2250 2947 2644 2453 
Q 2978 2031 2978 1484 
Q 2978 1100 2793 706 
Q 2609 313 2286 112 
Q 1963 -88 1566 -88 
Q 919 -88 538 428 
Q 216 863 216 1403 
Q 216 1797 411 2186 
Q 606 2575 925 2761 
Q 1244 2947 1600 2947 
z
M 1503 2744 
Q 1338 2744 1170 2645 
Q 1003 2547 900 2300 
Q 797 2053 797 1666 
Q 797 1041 1045 587 
Q 1294 134 1700 134 
Q 2003 134 2200 384 
Q 2397 634 2397 1244 
Q 2397 2006 2069 2444 
Q 1847 2744 1503 2744 
z
" transform="scale(0.015625)"/>
      <path id="TimesNewRomanPSMT-79" d="M 38 2863 
L 1372 2863 
L 1372 2747 
L 1306 2747 
Q 1166 2747 1095 2686 
Q 1025 2625 1025 2534 
Q 1025 2413 1128 2197 
L 1825 753 
L 2466 2334 
Q 2519 2463 2519 2588 
Q 2519 2644 2497 2672 
Q 2472 2706 2419 2726 
Q 2366 2747 2231 2747 
L 2231 2863 
L 3163 2863 
L 3163 2747 
Q 3047 2734 2984 2696 
Q 2922 2659 2847 2556 
Q 2819 2513 2741 2316 
L 1575 -541 
Q 1406 -956 1132 -1168 
Q 859 -1381 606 -1381 
Q 422 -1381 303 -1275 
Q 184 -1169 184 -1031 
Q 184 -900 270 -820 
Q 356 -741 506 -741 
Q 609 -741 788 -809 
Q 913 -856 944 -856 
Q 1038 -856 1148 -759 
Q 1259 -663 1372 -384 
L 1575 113 
L 547 2272 
Q 500 2369 397 2513 
Q 319 2622 269 2659 
Q 197 2709 38 2747 
L 38 2863 
z
" transform="scale(0.015625)"/>
      <path id="TimesNewRomanPSMT-6c" d="M 1184 4444 
L 1184 647 
Q 1184 378 1223 290 
Q 1263 203 1344 158 
Q 1425 113 1647 113 
L 1647 0 
L 244 0 
L 244 113 
Q 441 113 512 153 
Q 584 194 625 287 
Q 666 381 666 647 
L 666 3247 
Q 666 3731 644 3842 
Q 622 3953 573 3993 
Q 525 4034 450 4034 
Q 369 4034 244 3984 
L 191 4094 
L 1044 4444 
L 1184 4444 
z
" transform="scale(0.015625)"/>
      <path id="TimesNewRomanPSMT-74" d="M 1031 3803 
L 1031 2863 
L 1700 2863 
L 1700 2644 
L 1031 2644 
L 1031 788 
Q 1031 509 1111 412 
Q 1191 316 1316 316 
Q 1419 316 1516 380 
Q 1613 444 1666 569 
L 1788 569 
Q 1678 263 1478 108 
Q 1278 -47 1066 -47 
Q 922 -47 784 33 
Q 647 113 581 261 
Q 516 409 516 719 
L 516 2644 
L 63 2644 
L 63 2747 
Q 234 2816 414 2980 
Q 594 3144 734 3369 
Q 806 3488 934 3803 
L 1031 3803 
z
" transform="scale(0.015625)"/>
      <path id="TimesNewRomanPSMT-20" transform="scale(0.015625)"/>
      <path id="TimesNewRomanPSMT-50" d="M 1313 1984 
L 1313 750 
Q 1313 350 1400 253 
Q 1519 116 1759 116 
L 1922 116 
L 1922 0 
L 106 0 
L 106 116 
L 266 116 
Q 534 116 650 291 
Q 713 388 713 750 
L 713 3488 
Q 713 3888 628 3984 
Q 506 4122 266 4122 
L 106 4122 
L 106 4238 
L 1659 4238 
Q 2228 4238 2556 4120 
Q 2884 4003 3109 3725 
Q 3334 3447 3334 3066 
Q 3334 2547 2992 2222 
Q 2650 1897 2025 1897 
Q 1872 1897 1694 1919 
Q 1516 1941 1313 1984 
z
M 1313 2163 
Q 1478 2131 1606 2115 
Q 1734 2100 1825 2100 
Q 2150 2100 2386 2351 
Q 2622 2603 2622 3003 
Q 2622 3278 2509 3514 
Q 2397 3750 2190 3867 
Q 1984 3984 1722 3984 
Q 1563 3984 1313 3925 
L 1313 2163 
z
" transform="scale(0.015625)"/>
      <path id="TimesNewRomanPSMT-67" d="M 966 1044 
Q 703 1172 562 1401 
Q 422 1631 422 1909 
Q 422 2334 742 2640 
Q 1063 2947 1563 2947 
Q 1972 2947 2272 2747 
L 2878 2747 
Q 3013 2747 3034 2739 
Q 3056 2731 3066 2713 
Q 3084 2684 3084 2613 
Q 3084 2531 3069 2500 
Q 3059 2484 3036 2475 
Q 3013 2466 2878 2466 
L 2506 2466 
Q 2681 2241 2681 1891 
Q 2681 1491 2375 1206 
Q 2069 922 1553 922 
Q 1341 922 1119 984 
Q 981 866 932 777 
Q 884 688 884 625 
Q 884 572 936 522 
Q 988 472 1138 450 
Q 1225 438 1575 428 
Q 2219 413 2409 384 
Q 2700 344 2873 169 
Q 3047 -6 3047 -263 
Q 3047 -616 2716 -925 
Q 2228 -1381 1444 -1381 
Q 841 -1381 425 -1109 
Q 191 -953 191 -784 
Q 191 -709 225 -634 
Q 278 -519 444 -313 
Q 466 -284 763 25 
Q 600 122 533 198 
Q 466 275 466 372 
Q 466 481 555 628 
Q 644 775 966 1044 
z
M 1509 2797 
Q 1278 2797 1122 2612 
Q 966 2428 966 2047 
Q 966 1553 1178 1281 
Q 1341 1075 1591 1075 
Q 1828 1075 1981 1253 
Q 2134 1431 2134 1813 
Q 2134 2309 1919 2591 
Q 1759 2797 1509 2797 
z
M 934 0 
Q 788 -159 713 -296 
Q 638 -434 638 -550 
Q 638 -700 819 -813 
Q 1131 -1006 1722 -1006 
Q 2284 -1006 2551 -807 
Q 2819 -609 2819 -384 
Q 2819 -222 2659 -153 
Q 2497 -84 2016 -72 
Q 1313 -53 934 0 
z
" transform="scale(0.015625)"/>
      <path id="TimesNewRomanPSMT-6d" d="M 1050 2338 
Q 1363 2650 1419 2697 
Q 1559 2816 1721 2881 
Q 1884 2947 2044 2947 
Q 2313 2947 2506 2790 
Q 2700 2634 2766 2338 
Q 3088 2713 3309 2830 
Q 3531 2947 3766 2947 
Q 3994 2947 4170 2830 
Q 4347 2713 4450 2447 
Q 4519 2266 4519 1878 
L 4519 647 
Q 4519 378 4559 278 
Q 4591 209 4675 161 
Q 4759 113 4950 113 
L 4950 0 
L 3538 0 
L 3538 113 
L 3597 113 
Q 3781 113 3884 184 
Q 3956 234 3988 344 
Q 4000 397 4000 647 
L 4000 1878 
Q 4000 2228 3916 2372 
Q 3794 2572 3525 2572 
Q 3359 2572 3192 2489 
Q 3025 2406 2788 2181 
L 2781 2147 
L 2788 2013 
L 2788 647 
Q 2788 353 2820 281 
Q 2853 209 2943 161 
Q 3034 113 3253 113 
L 3253 0 
L 1806 0 
L 1806 113 
Q 2044 113 2133 169 
Q 2222 225 2256 338 
Q 2272 391 2272 647 
L 2272 1878 
Q 2272 2228 2169 2381 
Q 2031 2581 1784 2581 
Q 1616 2581 1450 2491 
Q 1191 2353 1050 2181 
L 1050 647 
Q 1050 366 1089 281 
Q 1128 197 1204 155 
Q 1281 113 1516 113 
L 1516 0 
L 100 0 
L 100 113 
Q 297 113 375 155 
Q 453 197 493 289 
Q 534 381 534 647 
L 534 1741 
Q 534 2213 506 2350 
Q 484 2453 437 2492 
Q 391 2531 309 2531 
Q 222 2531 100 2484 
L 53 2597 
L 916 2947 
L 1050 2947 
L 1050 2338 
z
" transform="scale(0.015625)"/>
      <path id="TimesNewRomanPSMT-4d" d="M 2619 0 
L 981 3566 
L 981 734 
Q 981 344 1066 247 
Q 1181 116 1431 116 
L 1581 116 
L 1581 0 
L 106 0 
L 106 116 
L 256 116 
Q 525 116 638 278 
Q 706 378 706 734 
L 706 3503 
Q 706 3784 644 3909 
Q 600 4000 483 4061 
Q 366 4122 106 4122 
L 106 4238 
L 1306 4238 
L 2844 922 
L 4356 4238 
L 5556 4238 
L 5556 4122 
L 5409 4122 
Q 5138 4122 5025 3959 
Q 4956 3859 4956 3503 
L 4956 734 
Q 4956 344 5044 247 
Q 5159 116 5409 116 
L 5556 116 
L 5556 0 
L 3756 0 
L 3756 116 
L 3906 116 
Q 4178 116 4288 278 
Q 4356 378 4356 734 
L 4356 3566 
L 2722 0 
L 2619 0 
z
" transform="scale(0.015625)"/>
      <path id="TimesNewRomanPSMT-62" d="M 984 2369 
Q 1400 2947 1881 2947 
Q 2322 2947 2650 2570 
Q 2978 2194 2978 1541 
Q 2978 778 2472 313 
Q 2038 -88 1503 -88 
Q 1253 -88 995 3 
Q 738 94 469 275 
L 469 3241 
Q 469 3728 445 3840 
Q 422 3953 372 3993 
Q 322 4034 247 4034 
Q 159 4034 28 3984 
L -16 4094 
L 844 4444 
L 984 4444 
L 984 2369 
z
M 984 2169 
L 984 456 
Q 1144 300 1314 220 
Q 1484 141 1663 141 
Q 1947 141 2192 453 
Q 2438 766 2438 1363 
Q 2438 1913 2192 2208 
Q 1947 2503 1634 2503 
Q 1469 2503 1303 2419 
Q 1178 2356 984 2169 
z
" transform="scale(0.015625)"/>
      <path id="TimesNewRomanPSMT-73" d="M 2050 2947 
L 2050 1972 
L 1947 1972 
Q 1828 2431 1642 2597 
Q 1456 2763 1169 2763 
Q 950 2763 815 2647 
Q 681 2531 681 2391 
Q 681 2216 781 2091 
Q 878 1963 1175 1819 
L 1631 1597 
Q 2266 1288 2266 781 
Q 2266 391 1970 151 
Q 1675 -88 1309 -88 
Q 1047 -88 709 6 
Q 606 38 541 38 
Q 469 38 428 -44 
L 325 -44 
L 325 978 
L 428 978 
Q 516 541 762 319 
Q 1009 97 1316 97 
Q 1531 97 1667 223 
Q 1803 350 1803 528 
Q 1803 744 1651 891 
Q 1500 1038 1047 1263 
Q 594 1488 453 1669 
Q 313 1847 313 2119 
Q 313 2472 555 2709 
Q 797 2947 1181 2947 
Q 1350 2947 1591 2875 
Q 1750 2828 1803 2828 
Q 1853 2828 1881 2850 
Q 1909 2872 1947 2947 
L 2050 2947 
z
" transform="scale(0.015625)"/>
      <path id="TimesNewRomanPSMT-66" d="M 1319 2638 
L 1319 756 
Q 1319 356 1406 250 
Q 1522 113 1716 113 
L 1975 113 
L 1975 0 
L 266 0 
L 266 113 
L 394 113 
Q 519 113 622 175 
Q 725 238 764 344 
Q 803 450 803 756 
L 803 2638 
L 247 2638 
L 247 2863 
L 803 2863 
L 803 3050 
Q 803 3478 940 3775 
Q 1078 4072 1361 4255 
Q 1644 4438 1997 4438 
Q 2325 4438 2600 4225 
Q 2781 4084 2781 3909 
Q 2781 3816 2700 3733 
Q 2619 3650 2525 3650 
Q 2453 3650 2373 3701 
Q 2294 3753 2178 3923 
Q 2063 4094 1966 4153 
Q 1869 4213 1750 4213 
Q 1606 4213 1506 4136 
Q 1406 4059 1362 3898 
Q 1319 3738 1319 3069 
L 1319 2863 
L 2056 2863 
L 2056 2638 
L 1319 2638 
z
" transform="scale(0.015625)"/>
      <path id="TimesNewRomanPSMT-28" d="M 1988 -1253 
L 1988 -1369 
Q 1516 -1131 1200 -813 
Q 750 -359 506 256 
Q 263 872 263 1534 
Q 263 2503 741 3301 
Q 1219 4100 1988 4444 
L 1988 4313 
Q 1603 4100 1356 3731 
Q 1109 3363 987 2797 
Q 866 2231 866 1616 
Q 866 947 969 400 
Q 1050 -31 1165 -292 
Q 1281 -553 1476 -793 
Q 1672 -1034 1988 -1253 
z
" transform="scale(0.015625)"/>
      <path id="TimesNewRomanPSMT-29" d="M 144 4313 
L 144 4444 
Q 619 4209 934 3891 
Q 1381 3434 1625 2820 
Q 1869 2206 1869 1541 
Q 1869 572 1392 -226 
Q 916 -1025 144 -1369 
L 144 -1253 
Q 528 -1038 776 -670 
Q 1025 -303 1145 264 
Q 1266 831 1266 1447 
Q 1266 2113 1163 2663 
Q 1084 3094 967 3353 
Q 850 3613 656 3853 
Q 463 4094 144 4313 
z
" transform="scale(0.015625)"/>
     </defs>
     <use xlink:href="#TimesNewRomanPSMT-4c"/>
     <use xlink:href="#TimesNewRomanPSMT-6f" transform="translate(61.083984 0)"/>
     <use xlink:href="#TimesNewRomanPSMT-79" transform="translate(111.083984 0)"/>
     <use xlink:href="#TimesNewRomanPSMT-61" transform="translate(161.083984 0)"/>
     <use xlink:href="#TimesNewRomanPSMT-6c" transform="translate(205.46875 0)"/>
     <use xlink:href="#TimesNewRomanPSMT-74" transform="translate(233.251953 0)"/>
     <use xlink:href="#TimesNewRomanPSMT-79" transform="translate(261.035156 0)"/>
     <use xlink:href="#TimesNewRomanPSMT-20" transform="translate(311.035156 0)"/>
     <use xlink:href="#TimesNewRomanPSMT-50" transform="translate(336.035156 0)"/>
     <use xlink:href="#TimesNewRomanPSMT-72" transform="translate(391.650391 0)"/>
     <use xlink:href="#TimesNewRomanPSMT-6f" transform="translate(424.951172 0)"/>
     <use xlink:href="#TimesNewRomanPSMT-67" transform="translate(474.951172 0)"/>
     <use xlink:href="#TimesNewRomanPSMT-72" transform="translate(524.951172 0)"/>
     <use xlink:href="#TimesNewRomanPSMT-61" transform="translate(558.251953 0)"/>
     <use xlink:href="#TimesNewRomanPSMT-6d" transform="translate(602.636719 0)"/>
     <use xlink:href="#TimesNewRomanPSMT-20" transform="translate(680.419922 0)"/>
     <use xlink:href="#TimesNewRomanPSMT-4d" transform="translate(705.419922 0)"/>
     <use xlink:href="#TimesNewRomanPSMT-65" transform="translate(794.335938 0)"/>
     <use xlink:href="#TimesNewRomanPSMT-6d" transform="translate(838.720703 0)"/>
     <use xlink:href="#TimesNewRomanPSMT-62" transform="translate(916.503906 0)"/>
     <use xlink:href="#TimesNewRomanPSMT-65" transform="translate(966.503906 0)"/>
     <use xlink:href="#TimesNewRomanPSMT-72" transform="translate(1010.888672 0)"/>
     <use xlink:href="#TimesNewRomanPSMT-73" transform="translate(1044.189453 0)"/>
     <use xlink:href="#TimesNewRomanPSMT-20" transform="translate(1083.105469 0)"/>
     <use xlink:href="#TimesNewRomanPSMT-66" transform="translate(1108.105469 0)"/>
     <use xlink:href="#TimesNewRomanPSMT-72" transform="translate(1141.40625 0)"/>
     <use xlink:href="#TimesNewRomanPSMT-6f" transform="translate(1174.707031 0)"/>
     <use xlink:href="#TimesNewRomanPSMT-6d" transform="translate(1224.707031 0)"/>
     <use xlink:href="#TimesNewRomanPSMT-20" transform="translate(1302.490234 0)"/>
     <use xlink:href="#TimesNewRomanPSMT-32" transform="translate(1327.490234 0)"/>
     <use xlink:href="#TimesNewRomanPSMT-30" transform="translate(1377.490234 0)"/>
     <use xlink:href="#TimesNewRomanPSMT-30" transform="translate(1427.490234 0)"/>
     <use xlink:href="#TimesNewRomanPSMT-34" transform="translate(1477.490234 0)"/>
     <use xlink:href="#TimesNewRomanPSMT-20" transform="translate(1527.490234 0)"/>
     <use xlink:href="#TimesNewRomanPSMT-74" transform="translate(1552.490234 0)"/>
     <use xlink:href="#TimesNewRomanPSMT-6f" transform="translate(1580.273438 0)"/>
     <use xlink:href="#TimesNewRomanPSMT-20" transform="translate(1630.273438 0)"/>
     <use xlink:href="#TimesNewRomanPSMT-32" transform="translate(1655.273438 0)"/>
     <use xlink:href="#TimesNewRomanPSMT-30" transform="translate(1705.273438 0)"/>
     <use xlink:href="#TimesNewRomanPSMT-32" transform="translate(1755.273438 0)"/>
     <use xlink:href="#TimesNewRomanPSMT-34" transform="translate(1805.273438 0)"/>
     <use xlink:href="#TimesNewRomanPSMT-20" transform="translate(1855.273438 0)"/>
     <use xlink:href="#TimesNewRomanPSMT-28" transform="translate(1880.273438 0)"/>
     <use xlink:href="#TimesNewRomanPSMT-6d" transform="translate(1913.574219 0)"/>
     <use xlink:href="#TimesNewRomanPSMT-65" transform="translate(1991.357422 0)"/>
     <use xlink:href="#TimesNewRomanPSMT-6d" transform="translate(2035.742188 0)"/>
     <use xlink:href="#TimesNewRomanPSMT-62" transform="translate(2113.525391 0)"/>
     <use xlink:href="#TimesNewRomanPSMT-65" transform="translate(2163.525391 0)"/>
     <use xlink:href="#TimesNewRomanPSMT-72" transform="translate(2207.910156 0)"/>
     <use xlink:href="#TimesNewRomanPSMT-73" transform="translate(2241.210938 0)"/>
     <use xlink:href="#TimesNewRomanPSMT-29" transform="translate(2280.126953 0)"/>
     <use xlink:href="#TimesNewRomanPSMT-20" transform="translate(2313.427734 0)"/>
    </g>
   </g>
   <g id="legend_1">
    <g id="patch_7">
     <path d="M 415.667927 156.73375 
L 435.667927 156.73375 
L 435.667927 149.73375 
L 415.667927 149.73375 
z
" style="fill: #1f77b4"/>
    </g>
    <g id="text_14">
     <!-- Hotel Rewards -->
     <g transform="translate(443.667927 156.73375) scale(0.1 -0.1)">
      <defs>
       <path id="TimesNewRomanPSMT-48" d="M 1316 2272 
L 3284 2272 
L 3284 3484 
Q 3284 3809 3244 3913 
Q 3213 3991 3113 4047 
Q 2978 4122 2828 4122 
L 2678 4122 
L 2678 4238 
L 4491 4238 
L 4491 4122 
L 4341 4122 
Q 4191 4122 4056 4050 
Q 3956 4000 3920 3898 
Q 3884 3797 3884 3484 
L 3884 750 
Q 3884 428 3925 325 
Q 3956 247 4053 191 
Q 4191 116 4341 116 
L 4491 116 
L 4491 0 
L 2678 0 
L 2678 116 
L 2828 116 
Q 3088 116 3206 269 
Q 3284 369 3284 750 
L 3284 2041 
L 1316 2041 
L 1316 750 
Q 1316 428 1356 325 
Q 1388 247 1488 191 
Q 1622 116 1772 116 
L 1925 116 
L 1925 0 
L 109 0 
L 109 116 
L 259 116 
Q 522 116 641 269 
Q 716 369 716 750 
L 716 3484 
Q 716 3809 675 3913 
Q 644 3991 547 4047 
Q 409 4122 259 4122 
L 109 4122 
L 109 4238 
L 1925 4238 
L 1925 4122 
L 1772 4122 
Q 1622 4122 1488 4050 
Q 1391 4000 1353 3898 
Q 1316 3797 1316 3484 
L 1316 2272 
z
" transform="scale(0.015625)"/>
       <path id="TimesNewRomanPSMT-52" d="M 4325 0 
L 3194 0 
L 1759 1981 
Q 1600 1975 1500 1975 
Q 1459 1975 1412 1976 
Q 1366 1978 1316 1981 
L 1316 750 
Q 1316 350 1403 253 
Q 1522 116 1759 116 
L 1925 116 
L 1925 0 
L 109 0 
L 109 116 
L 269 116 
Q 538 116 653 291 
Q 719 388 719 750 
L 719 3488 
Q 719 3888 631 3984 
Q 509 4122 269 4122 
L 109 4122 
L 109 4238 
L 1653 4238 
Q 2328 4238 2648 4139 
Q 2969 4041 3192 3777 
Q 3416 3513 3416 3147 
Q 3416 2756 3161 2468 
Q 2906 2181 2372 2063 
L 3247 847 
Q 3547 428 3762 290 
Q 3978 153 4325 116 
L 4325 0 
z
M 1316 2178 
Q 1375 2178 1419 2176 
Q 1463 2175 1491 2175 
Q 2097 2175 2405 2437 
Q 2713 2700 2713 3106 
Q 2713 3503 2464 3751 
Q 2216 4000 1806 4000 
Q 1625 4000 1316 3941 
L 1316 2178 
z
" transform="scale(0.015625)"/>
       <path id="TimesNewRomanPSMT-77" d="M 41 2863 
L 1241 2863 
L 1241 2747 
Q 1075 2734 1023 2687 
Q 972 2641 972 2553 
Q 972 2456 1025 2319 
L 1638 672 
L 2253 2013 
L 2091 2434 
Q 2016 2622 1894 2694 
Q 1825 2738 1638 2747 
L 1638 2863 
L 3000 2863 
L 3000 2747 
Q 2775 2738 2681 2666 
Q 2619 2616 2619 2506 
Q 2619 2444 2644 2378 
L 3294 734 
L 3897 2319 
Q 3959 2488 3959 2588 
Q 3959 2647 3898 2694 
Q 3838 2741 3659 2747 
L 3659 2863 
L 4563 2863 
L 4563 2747 
Q 4291 2706 4163 2378 
L 3206 -88 
L 3078 -88 
L 2363 1741 
L 1528 -88 
L 1413 -88 
L 494 2319 
Q 403 2547 315 2626 
Q 228 2706 41 2747 
L 41 2863 
z
" transform="scale(0.015625)"/>
       <path id="TimesNewRomanPSMT-64" d="M 2222 322 
Q 2013 103 1813 7 
Q 1613 -88 1381 -88 
Q 913 -88 563 304 
Q 213 697 213 1313 
Q 213 1928 600 2439 
Q 988 2950 1597 2950 
Q 1975 2950 2222 2709 
L 2222 3238 
Q 2222 3728 2198 3840 
Q 2175 3953 2125 3993 
Q 2075 4034 2000 4034 
Q 1919 4034 1784 3984 
L 1744 4094 
L 2597 4444 
L 2738 4444 
L 2738 1134 
Q 2738 631 2761 520 
Q 2784 409 2836 365 
Q 2888 322 2956 322 
Q 3041 322 3181 375 
L 3216 266 
L 2366 -88 
L 2222 -88 
L 2222 322 
z
M 2222 541 
L 2222 2016 
Q 2203 2228 2109 2403 
Q 2016 2578 1861 2667 
Q 1706 2756 1559 2756 
Q 1284 2756 1069 2509 
Q 784 2184 784 1559 
Q 784 928 1059 592 
Q 1334 256 1672 256 
Q 1956 256 2222 541 
z
" transform="scale(0.015625)"/>
      </defs>
      <use xlink:href="#TimesNewRomanPSMT-48"/>
      <use xlink:href="#TimesNewRomanPSMT-6f" transform="translate(72.216797 0)"/>
      <use xlink:href="#TimesNewRomanPSMT-74" transform="translate(122.216797 0)"/>
      <use xlink:href="#TimesNewRomanPSMT-65" transform="translate(150 0)"/>
      <use xlink:href="#TimesNewRomanPSMT-6c" transform="translate(194.384766 0)"/>
      <use xlink:href="#TimesNewRomanPSMT-20" transform="translate(222.167969 0)"/>
      <use xlink:href="#TimesNewRomanPSMT-52" transform="translate(247.167969 0)"/>
      <use xlink:href="#TimesNewRomanPSMT-65" transform="translate(313.867188 0)"/>
      <use xlink:href="#TimesNewRomanPSMT-77" transform="translate(358.251953 0)"/>
      <use xlink:href="#TimesNewRomanPSMT-61" transform="translate(430.46875 0)"/>
      <use xlink:href="#TimesNewRomanPSMT-72" transform="translate(474.853516 0)"/>
      <use xlink:href="#TimesNewRomanPSMT-64" transform="translate(508.154297 0)"/>
      <use xlink:href="#TimesNewRomanPSMT-73" transform="translate(558.154297 0)"/>
     </g>
    </g>
    <g id="patch_8">
     <path d="M 415.667927 170.872812 
L 435.667927 170.872812 
L 435.667927 163.872812 
L 415.667927 163.872812 
z
" style="fill: #aec7e8"/>
    </g>
    <g id="text_15">
     <!-- Foodie Passport -->
     <g transform="translate(443.667927 170.872812) scale(0.1 -0.1)">
      <defs>
       <path id="TimesNewRomanPSMT-46" d="M 1309 4006 
L 1309 2341 
L 2081 2341 
Q 2347 2341 2470 2458 
Q 2594 2575 2634 2922 
L 2750 2922 
L 2750 1488 
L 2634 1488 
Q 2631 1734 2570 1850 
Q 2509 1966 2401 2023 
Q 2294 2081 2081 2081 
L 1309 2081 
L 1309 750 
Q 1309 428 1350 325 
Q 1381 247 1481 191 
Q 1619 116 1769 116 
L 1922 116 
L 1922 0 
L 103 0 
L 103 116 
L 253 116 
Q 516 116 634 269 
Q 709 369 709 750 
L 709 3488 
Q 709 3809 669 3913 
Q 638 3991 541 4047 
Q 406 4122 253 4122 
L 103 4122 
L 103 4238 
L 3256 4238 
L 3297 3306 
L 3188 3306 
Q 3106 3603 2998 3742 
Q 2891 3881 2733 3943 
Q 2575 4006 2244 4006 
L 1309 4006 
z
" transform="scale(0.015625)"/>
       <path id="TimesNewRomanPSMT-69" d="M 928 4444 
Q 1059 4444 1151 4351 
Q 1244 4259 1244 4128 
Q 1244 3997 1151 3903 
Q 1059 3809 928 3809 
Q 797 3809 703 3903 
Q 609 3997 609 4128 
Q 609 4259 701 4351 
Q 794 4444 928 4444 
z
M 1188 2947 
L 1188 647 
Q 1188 378 1227 289 
Q 1266 200 1342 156 
Q 1419 113 1622 113 
L 1622 0 
L 231 0 
L 231 113 
Q 441 113 512 153 
Q 584 194 626 287 
Q 669 381 669 647 
L 669 1750 
Q 669 2216 641 2353 
Q 619 2453 572 2492 
Q 525 2531 444 2531 
Q 356 2531 231 2484 
L 188 2597 
L 1050 2947 
L 1188 2947 
z
" transform="scale(0.015625)"/>
       <path id="TimesNewRomanPSMT-70" d="M -6 2578 
L 875 2934 
L 994 2934 
L 994 2266 
Q 1216 2644 1439 2795 
Q 1663 2947 1909 2947 
Q 2341 2947 2628 2609 
Q 2981 2197 2981 1534 
Q 2981 794 2556 309 
Q 2206 -88 1675 -88 
Q 1444 -88 1275 -22 
Q 1150 25 994 166 
L 994 -706 
Q 994 -1000 1030 -1079 
Q 1066 -1159 1155 -1206 
Q 1244 -1253 1478 -1253 
L 1478 -1369 
L -22 -1369 
L -22 -1253 
L 56 -1253 
Q 228 -1256 350 -1188 
Q 409 -1153 442 -1076 
Q 475 -1000 475 -688 
L 475 2019 
Q 475 2297 450 2372 
Q 425 2447 370 2484 
Q 316 2522 222 2522 
Q 147 2522 31 2478 
L -6 2578 
z
M 994 2081 
L 994 1013 
Q 994 666 1022 556 
Q 1066 375 1236 237 
Q 1406 100 1666 100 
Q 1978 100 2172 344 
Q 2425 663 2425 1241 
Q 2425 1897 2138 2250 
Q 1938 2494 1663 2494 
Q 1513 2494 1366 2419 
Q 1253 2363 994 2081 
z
" transform="scale(0.015625)"/>
      </defs>
      <use xlink:href="#TimesNewRomanPSMT-46"/>
      <use xlink:href="#TimesNewRomanPSMT-6f" transform="translate(55.615234 0)"/>
      <use xlink:href="#TimesNewRomanPSMT-6f" transform="translate(105.615234 0)"/>
      <use xlink:href="#TimesNewRomanPSMT-64" transform="translate(155.615234 0)"/>
      <use xlink:href="#TimesNewRomanPSMT-69" transform="translate(205.615234 0)"/>
      <use xlink:href="#TimesNewRomanPSMT-65" transform="translate(233.398438 0)"/>
      <use xlink:href="#TimesNewRomanPSMT-20" transform="translate(277.783203 0)"/>
      <use xlink:href="#TimesNewRomanPSMT-50" transform="translate(302.783203 0)"/>
      <use xlink:href="#TimesNewRomanPSMT-61" transform="translate(358.398438 0)"/>
      <use xlink:href="#TimesNewRomanPSMT-73" transform="translate(402.783203 0)"/>
      <use xlink:href="#TimesNewRomanPSMT-73" transform="translate(441.699219 0)"/>
      <use xlink:href="#TimesNewRomanPSMT-70" transform="translate(480.615234 0)"/>
      <use xlink:href="#TimesNewRomanPSMT-6f" transform="translate(530.615234 0)"/>
      <use xlink:href="#TimesNewRomanPSMT-72" transform="translate(580.615234 0)"/>
      <use xlink:href="#TimesNewRomanPSMT-74" transform="translate(613.916016 0)"/>
     </g>
    </g>
    <g id="patch_9">
     <path d="M 415.667927 185.011875 
L 435.667927 185.011875 
L 435.667927 178.011875 
L 415.667927 178.011875 
z
" style="fill: #ff7f0e"/>
    </g>
    <g id="text_16">
     <!-- Business Nomads -->
     <g transform="translate(443.667927 185.011875) scale(0.1 -0.1)">
      <defs>
       <path id="TimesNewRomanPSMT-42" d="M 2956 2163 
Q 3397 2069 3616 1863 
Q 3919 1575 3919 1159 
Q 3919 844 3719 555 
Q 3519 266 3170 133 
Q 2822 0 2106 0 
L 106 0 
L 106 116 
L 266 116 
Q 531 116 647 284 
Q 719 394 719 750 
L 719 3488 
Q 719 3881 628 3984 
Q 506 4122 266 4122 
L 106 4122 
L 106 4238 
L 1938 4238 
Q 2450 4238 2759 4163 
Q 3228 4050 3475 3764 
Q 3722 3478 3722 3106 
Q 3722 2788 3528 2536 
Q 3334 2284 2956 2163 
z
M 1319 2331 
Q 1434 2309 1582 2298 
Q 1731 2288 1909 2288 
Q 2366 2288 2595 2386 
Q 2825 2484 2947 2687 
Q 3069 2891 3069 3131 
Q 3069 3503 2766 3765 
Q 2463 4028 1881 4028 
Q 1569 4028 1319 3959 
L 1319 2331 
z
M 1319 306 
Q 1681 222 2034 222 
Q 2600 222 2897 476 
Q 3194 731 3194 1106 
Q 3194 1353 3059 1581 
Q 2925 1809 2622 1940 
Q 2319 2072 1872 2072 
Q 1678 2072 1540 2065 
Q 1403 2059 1319 2044 
L 1319 306 
z
" transform="scale(0.015625)"/>
       <path id="TimesNewRomanPSMT-75" d="M 2709 2863 
L 2709 1128 
Q 2709 631 2732 520 
Q 2756 409 2807 365 
Q 2859 322 2928 322 
Q 3025 322 3147 375 
L 3191 266 
L 2334 -88 
L 2194 -88 
L 2194 519 
Q 1825 119 1631 15 
Q 1438 -88 1222 -88 
Q 981 -88 804 51 
Q 628 191 559 409 
Q 491 628 491 1028 
L 491 2306 
Q 491 2509 447 2587 
Q 403 2666 317 2708 
Q 231 2750 6 2747 
L 6 2863 
L 1009 2863 
L 1009 947 
Q 1009 547 1148 422 
Q 1288 297 1484 297 
Q 1619 297 1789 381 
Q 1959 466 2194 703 
L 2194 2325 
Q 2194 2569 2105 2655 
Q 2016 2741 1734 2747 
L 1734 2863 
L 2709 2863 
z
" transform="scale(0.015625)"/>
       <path id="TimesNewRomanPSMT-6e" d="M 1034 2341 
Q 1538 2947 1994 2947 
Q 2228 2947 2397 2830 
Q 2566 2713 2666 2444 
Q 2734 2256 2734 1869 
L 2734 647 
Q 2734 375 2778 278 
Q 2813 200 2889 156 
Q 2966 113 3172 113 
L 3172 0 
L 1756 0 
L 1756 113 
L 1816 113 
Q 2016 113 2095 173 
Q 2175 234 2206 353 
Q 2219 400 2219 647 
L 2219 1819 
Q 2219 2209 2117 2386 
Q 2016 2563 1775 2563 
Q 1403 2563 1034 2156 
L 1034 647 
Q 1034 356 1069 288 
Q 1113 197 1189 155 
Q 1266 113 1500 113 
L 1500 0 
L 84 0 
L 84 113 
L 147 113 
Q 366 113 442 223 
Q 519 334 519 647 
L 519 1709 
Q 519 2225 495 2337 
Q 472 2450 423 2490 
Q 375 2531 294 2531 
Q 206 2531 84 2484 
L 38 2597 
L 900 2947 
L 1034 2947 
L 1034 2341 
z
" transform="scale(0.015625)"/>
       <path id="TimesNewRomanPSMT-4e" d="M -84 4238 
L 1066 4238 
L 3656 1059 
L 3656 3503 
Q 3656 3894 3569 3991 
Q 3453 4122 3203 4122 
L 3056 4122 
L 3056 4238 
L 4531 4238 
L 4531 4122 
L 4381 4122 
Q 4113 4122 4000 3959 
Q 3931 3859 3931 3503 
L 3931 -69 
L 3819 -69 
L 1025 3344 
L 1025 734 
Q 1025 344 1109 247 
Q 1228 116 1475 116 
L 1625 116 
L 1625 0 
L 150 0 
L 150 116 
L 297 116 
Q 569 116 681 278 
Q 750 378 750 734 
L 750 3681 
Q 566 3897 470 3965 
Q 375 4034 191 4094 
Q 100 4122 -84 4122 
L -84 4238 
z
" transform="scale(0.015625)"/>
      </defs>
      <use xlink:href="#TimesNewRomanPSMT-42"/>
      <use xlink:href="#TimesNewRomanPSMT-75" transform="translate(66.699219 0)"/>
      <use xlink:href="#TimesNewRomanPSMT-73" transform="translate(116.699219 0)"/>
      <use xlink:href="#TimesNewRomanPSMT-69" transform="translate(155.615234 0)"/>
      <use xlink:href="#TimesNewRomanPSMT-6e" transform="translate(183.398438 0)"/>
      <use xlink:href="#TimesNewRomanPSMT-65" transform="translate(233.398438 0)"/>
      <use xlink:href="#TimesNewRomanPSMT-73" transform="translate(277.783203 0)"/>
      <use xlink:href="#TimesNewRomanPSMT-73" transform="translate(316.699219 0)"/>
      <use xlink:href="#TimesNewRomanPSMT-20" transform="translate(355.615234 0)"/>
      <use xlink:href="#TimesNewRomanPSMT-4e" transform="translate(380.615234 0)"/>
      <use xlink:href="#TimesNewRomanPSMT-6f" transform="translate(452.832031 0)"/>
      <use xlink:href="#TimesNewRomanPSMT-6d" transform="translate(502.832031 0)"/>
      <use xlink:href="#TimesNewRomanPSMT-61" transform="translate(580.615234 0)"/>
      <use xlink:href="#TimesNewRomanPSMT-64" transform="translate(625 0)"/>
      <use xlink:href="#TimesNewRomanPSMT-73" transform="translate(675 0)"/>
     </g>
    </g>
    <g id="patch_10">
     <path d="M 415.667927 199.150937 
L 435.667927 199.150937 
L 435.667927 192.150937 
L 415.667927 192.150937 
z
" style="fill: #ffbb78"/>
    </g>
    <g id="text_17">
     <!-- Family Vacationers -->
     <g transform="translate(443.667927 199.150937) scale(0.1 -0.1)">
      <defs>
       <path id="TimesNewRomanPSMT-56" d="M 4544 4238 
L 4544 4122 
Q 4319 4081 4203 3978 
Q 4038 3825 3909 3509 
L 2431 -97 
L 2316 -97 
L 728 3556 
Q 606 3838 556 3900 
Q 478 3997 364 4051 
Q 250 4106 56 4122 
L 56 4238 
L 1788 4238 
L 1788 4122 
Q 1494 4094 1406 4022 
Q 1319 3950 1319 3838 
Q 1319 3681 1463 3350 
L 2541 866 
L 3541 3319 
Q 3688 3681 3688 3822 
Q 3688 3913 3597 3995 
Q 3506 4078 3291 4113 
Q 3275 4116 3238 4122 
L 3238 4238 
L 4544 4238 
z
" transform="scale(0.015625)"/>
       <path id="TimesNewRomanPSMT-63" d="M 2631 1088 
Q 2516 522 2178 217 
Q 1841 -88 1431 -88 
Q 944 -88 581 321 
Q 219 731 219 1428 
Q 219 2103 620 2525 
Q 1022 2947 1584 2947 
Q 2006 2947 2278 2723 
Q 2550 2500 2550 2259 
Q 2550 2141 2473 2067 
Q 2397 1994 2259 1994 
Q 2075 1994 1981 2113 
Q 1928 2178 1911 2362 
Q 1894 2547 1784 2644 
Q 1675 2738 1481 2738 
Q 1169 2738 978 2506 
Q 725 2200 725 1697 
Q 725 1184 976 792 
Q 1228 400 1656 400 
Q 1963 400 2206 609 
Q 2378 753 2541 1131 
L 2631 1088 
z
" transform="scale(0.015625)"/>
      </defs>
      <use xlink:href="#TimesNewRomanPSMT-46"/>
      <use xlink:href="#TimesNewRomanPSMT-61" transform="translate(55.615234 0)"/>
      <use xlink:href="#TimesNewRomanPSMT-6d" transform="translate(100 0)"/>
      <use xlink:href="#TimesNewRomanPSMT-69" transform="translate(177.783203 0)"/>
      <use xlink:href="#TimesNewRomanPSMT-6c" transform="translate(205.566406 0)"/>
      <use xlink:href="#TimesNewRomanPSMT-79" transform="translate(233.349609 0)"/>
      <use xlink:href="#TimesNewRomanPSMT-20" transform="translate(283.349609 0)"/>
      <use xlink:href="#TimesNewRomanPSMT-56" transform="translate(306.599609 0)"/>
      <use xlink:href="#TimesNewRomanPSMT-61" transform="translate(367.691406 0)"/>
      <use xlink:href="#TimesNewRomanPSMT-63" transform="translate(412.076172 0)"/>
      <use xlink:href="#TimesNewRomanPSMT-61" transform="translate(456.460938 0)"/>
      <use xlink:href="#TimesNewRomanPSMT-74" transform="translate(500.845703 0)"/>
      <use xlink:href="#TimesNewRomanPSMT-69" transform="translate(528.628906 0)"/>
      <use xlink:href="#TimesNewRomanPSMT-6f" transform="translate(556.412109 0)"/>
      <use xlink:href="#TimesNewRomanPSMT-6e" transform="translate(606.412109 0)"/>
      <use xlink:href="#TimesNewRomanPSMT-65" transform="translate(656.412109 0)"/>
      <use xlink:href="#TimesNewRomanPSMT-72" transform="translate(700.796875 0)"/>
      <use xlink:href="#TimesNewRomanPSMT-73" transform="translate(734.097656 0)"/>
     </g>
    </g>
   </g>
  </g>
 </g>
 <defs>
  <clipPath id="p2820e8c112">
   <rect x="10.091927" y="36.92125" width="388.8" height="277.2"/>
  </clipPath>
 </defs>
</svg>
