<?xml version="1.0" encoding="utf-8" standalone="no"?>
<!DOCTYPE svg PUBLIC "-//W3C//DTD SVG 1.1//EN"
  "http://www.w3.org/Graphics/SVG/1.1/DTD/svg11.dtd">
<svg xmlns:xlink="http://www.w3.org/1999/xlink" width="531.430427pt" height="364.113404pt" viewBox="0 0 531.430427 364.113404" xmlns="http://www.w3.org/2000/svg" version="1.1">
 <metadata>
  <rdf:RDF xmlns:dc="http://purl.org/dc/elements/1.1/" xmlns:cc="http://creativecommons.org/ns#" xmlns:rdf="http://www.w3.org/1999/02/22-rdf-syntax-ns#">
   <cc:Work>
    <dc:type rdf:resource="http://purl.org/dc/dcmitype/StillImage"/>
    <dc:date>2025-05-31T00:13:50.865086</dc:date>
    <dc:format>image/svg+xml</dc:format>
    <dc:creator>
     <cc:Agent>
      <dc:title>Matplotlib v3.10.3, https://matplotlib.org/</dc:title>
     </cc:Agent>
    </dc:creator>
   </cc:Work>
  </rdf:RDF>
 </metadata>
 <defs>
  <style type="text/css">*{stroke-linejoin: round; stroke-linecap: butt}</style>
 </defs>
 <g id="figure_1">
  <g id="patch_1">
   <path d="M 0 364.113404 
L 531.430427 364.113404 
L 531.430427 0 
L 0 0 
z
" style="fill: #ffffff"/>
  </g>
  <g id="axes_1">
   <g id="patch_2">
    <path d="M 10.091927 314.449375 
L 398.891927 314.449375 
L 398.891927 37.249375 
L 10.091927 37.249375 
z
" style="fill: #ffffff"/>
   </g>
   <g id="FillBetweenPolyCollection_1">
    <path d="M 27.764654 238.693199 
L 27.764654 268.257775 
L 31.334902 267.421343 
L 34.90515 266.666277 
L 38.475398 265.989618 
L 42.045646 265.388408 
L 45.615894 264.859687 
L 49.186142 264.400497 
L 52.756389 264.00788 
L 56.326637 263.678876 
L 59.896885 263.410527 
L 63.467133 263.199875 
L 67.037381 263.043959 
L 70.607629 262.939823 
L 74.177877 262.884506 
L 77.748125 262.87505 
L 81.318373 262.908497 
L 84.888621 262.981888 
L 88.458869 263.092264 
L 92.029117 263.236666 
L 95.599365 263.412136 
L 99.169613 263.615715 
L 102.739861 263.844444 
L 106.310108 264.095364 
L 109.880356 264.366635 
L 113.450604 264.660886 
L 117.020852 264.981866 
L 120.5911 265.333321 
L 124.161348 265.718999 
L 127.731596 266.142649 
L 131.301844 266.608018 
L 134.872092 267.118853 
L 138.44234 267.678902 
L 142.012588 268.291913 
L 145.582836 268.961634 
L 149.153084 269.688663 
L 152.723332 270.461007 
L 156.29358 271.263523 
L 159.863827 272.081067 
L 163.434075 272.898497 
L 167.004323 273.700671 
L 170.574571 274.472445 
L 174.144819 275.198676 
L 177.715067 275.864222 
L 181.285315 276.453939 
L 184.855563 276.952686 
L 188.425811 277.349596 
L 191.996059 277.650916 
L 195.566307 277.867167 
L 199.136555 278.008872 
L 202.706803 278.086555 
L 206.277051 278.110737 
L 209.847299 278.091942 
L 213.417546 278.040692 
L 216.987794 277.96751 
L 220.558042 277.882919 
L 224.12829 277.797442 
L 227.698538 277.719985 
L 231.268786 277.652993 
L 234.839034 277.597296 
L 238.409282 277.553722 
L 241.97953 277.523101 
L 245.549778 277.506261 
L 249.120026 277.504031 
L 252.690274 277.517241 
L 256.260522 277.546719 
L 259.83077 277.593295 
L 263.401018 277.657797 
L 266.971266 277.741619 
L 270.541513 277.84841 
L 274.111761 277.982384 
L 277.682009 278.147754 
L 281.252257 278.348733 
L 284.822505 278.589534 
L 288.392753 278.874373 
L 291.963001 279.207461 
L 295.533249 279.593012 
L 299.103497 280.03524 
L 302.673745 280.538358 
L 306.243993 281.104259 
L 309.814241 281.725549 
L 313.384489 282.392516 
L 316.954737 283.095444 
L 320.524985 283.82462 
L 324.095232 284.570331 
L 327.66548 285.322862 
L 331.235728 286.0725 
L 334.805976 286.80953 
L 338.376224 287.524239 
L 341.946472 288.206913 
L 345.51672 288.847838 
L 349.086968 289.4373 
L 352.657216 289.965585 
L 356.227464 290.42298 
L 359.797712 290.79977 
L 363.36796 291.086242 
L 366.938208 291.272682 
L 370.508456 291.349375 
L 374.078704 291.306609 
L 377.648951 291.134668 
L 381.219199 290.82384 
L 381.219199 226.55226 
L 381.219199 226.55226 
L 377.648951 227.315235 
L 374.078704 228.071939 
L 370.508456 228.819789 
L 366.938208 229.5562 
L 363.36796 230.278591 
L 359.797712 230.984378 
L 356.227464 231.670978 
L 352.657216 232.335809 
L 349.086968 232.976286 
L 345.51672 233.589827 
L 341.946472 234.173849 
L 338.376224 234.725768 
L 334.805976 235.243003 
L 331.235728 235.722969 
L 327.66548 236.163083 
L 324.095232 236.560763 
L 320.524985 236.913425 
L 316.954737 237.218487 
L 313.384489 237.473364 
L 309.814241 237.675475 
L 306.243993 237.822236 
L 302.673745 237.911064 
L 299.103497 237.941234 
L 295.533249 237.919453 
L 291.963001 237.854286 
L 288.392753 237.7543 
L 284.822505 237.628058 
L 281.252257 237.484128 
L 277.682009 237.331073 
L 274.111761 237.177459 
L 270.541513 237.031851 
L 266.971266 236.902815 
L 263.401018 236.798917 
L 259.83077 236.72749 
L 256.260522 236.690949 
L 252.690274 236.690476 
L 249.120026 236.727254 
L 245.549778 236.802466 
L 241.97953 236.917296 
L 238.409282 237.072926 
L 234.839034 237.270539 
L 231.268786 237.511318 
L 227.698538 237.796446 
L 224.12829 238.127106 
L 220.558042 238.500919 
L 216.987794 238.901259 
L 213.417546 239.307939 
L 209.847299 239.70077 
L 206.277051 240.059565 
L 202.706803 240.364136 
L 199.136555 240.594295 
L 195.566307 240.729854 
L 191.996059 240.750626 
L 188.425811 240.636422 
L 184.855563 240.367055 
L 181.285315 239.930995 
L 177.715067 239.351344 
L 174.144819 238.659862 
L 170.574571 237.888309 
L 167.004323 237.068445 
L 163.434075 236.23203 
L 159.863827 235.410824 
L 156.29358 234.636587 
L 152.723332 233.941079 
L 149.153084 233.35606 
L 145.582836 232.91329 
L 142.012588 232.635597 
L 138.44234 232.510081 
L 134.872092 232.514908 
L 131.301844 232.628246 
L 127.731596 232.828262 
L 124.161348 233.093123 
L 120.5911 233.400998 
L 117.020852 233.730053 
L 113.450604 234.058455 
L 109.880356 234.364372 
L 106.310108 234.625972 
L 102.739861 234.826465 
L 99.169613 234.969242 
L 95.599365 235.062737 
L 92.029117 235.115384 
L 88.458869 235.135618 
L 84.888621 235.131873 
L 81.318373 235.112583 
L 77.748125 235.086183 
L 74.177877 235.061107 
L 70.607629 235.045788 
L 67.037381 235.048663 
L 63.467133 235.078164 
L 59.896885 235.142726 
L 56.326637 235.250784 
L 52.756389 235.410771 
L 49.186142 235.631123 
L 45.615894 235.920273 
L 42.045646 236.286656 
L 38.475398 236.738705 
L 34.90515 237.284856 
L 31.334902 237.933542 
L 27.764654 238.693199 
z
" clip-path="url(#p23ab2e6e73)" style="fill: #1f77b4"/>
   </g>
   <g id="FillBetweenPolyCollection_2">
    <path d="M 27.764654 215.018744 
L 27.764654 238.693199 
L 31.334902 237.933542 
L 34.90515 237.284856 
L 38.475398 236.738705 
L 42.045646 236.286656 
L 45.615894 235.920273 
L 49.186142 235.631123 
L 52.756389 235.410771 
L 56.326637 235.250784 
L 59.896885 235.142726 
L 63.467133 235.078164 
L 67.037381 235.048663 
L 70.607629 235.045788 
L 74.177877 235.061107 
L 77.748125 235.086183 
L 81.318373 235.112583 
L 84.888621 235.131873 
L 88.458869 235.135618 
L 92.029117 235.115384 
L 95.599365 235.062737 
L 99.169613 234.969242 
L 102.739861 234.826465 
L 106.310108 234.625972 
L 109.880356 234.364372 
L 113.450604 234.058455 
L 117.020852 233.730053 
L 120.5911 233.400998 
L 124.161348 233.093123 
L 127.731596 232.828262 
L 131.301844 232.628246 
L 134.872092 232.514908 
L 138.44234 232.510081 
L 142.012588 232.635597 
L 145.582836 232.91329 
L 149.153084 233.35606 
L 152.723332 233.941079 
L 156.29358 234.636587 
L 159.863827 235.410824 
L 163.434075 236.23203 
L 167.004323 237.068445 
L 170.574571 237.888309 
L 174.144819 238.659862 
L 177.715067 239.351344 
L 181.285315 239.930995 
L 184.855563 240.367055 
L 188.425811 240.636422 
L 191.996059 240.750626 
L 195.566307 240.729854 
L 199.136555 240.594295 
L 202.706803 240.364136 
L 206.277051 240.059565 
L 209.847299 239.70077 
L 213.417546 239.307939 
L 216.987794 238.901259 
L 220.558042 238.500919 
L 224.12829 238.127106 
L 227.698538 237.796446 
L 231.268786 237.511318 
L 234.839034 237.270539 
L 238.409282 237.072926 
L 241.97953 236.917296 
L 245.549778 236.802466 
L 249.120026 236.727254 
L 252.690274 236.690476 
L 256.260522 236.690949 
L 259.83077 236.72749 
L 263.401018 236.798917 
L 266.971266 236.902815 
L 270.541513 237.031851 
L 274.111761 237.177459 
L 277.682009 237.331073 
L 281.252257 237.484128 
L 284.822505 237.628058 
L 288.392753 237.7543 
L 291.963001 237.854286 
L 295.533249 237.919453 
L 299.103497 237.941234 
L 302.673745 237.911064 
L 306.243993 237.822236 
L 309.814241 237.675475 
L 313.384489 237.473364 
L 316.954737 237.218487 
L 320.524985 236.913425 
L 324.095232 236.560763 
L 327.66548 236.163083 
L 331.235728 235.722969 
L 334.805976 235.243003 
L 338.376224 234.725768 
L 341.946472 234.173849 
L 345.51672 233.589827 
L 349.086968 232.976286 
L 352.657216 232.335809 
L 356.227464 231.670978 
L 359.797712 230.984378 
L 363.36796 230.278591 
L 366.938208 229.5562 
L 370.508456 228.819789 
L 374.078704 228.071939 
L 377.648951 227.315235 
L 381.219199 226.55226 
L 381.219199 167.473204 
L 381.219199 167.473204 
L 377.648951 169.514657 
L 374.078704 171.344718 
L 370.508456 172.979233 
L 366.938208 174.434049 
L 363.36796 175.725012 
L 359.797712 176.867969 
L 356.227464 177.878766 
L 352.657216 178.773249 
L 349.086968 179.567266 
L 345.51672 180.276662 
L 341.946472 180.917284 
L 338.376224 181.504978 
L 334.805976 182.055592 
L 331.235728 182.58497 
L 327.66548 183.108961 
L 324.095232 183.643409 
L 320.524985 184.204162 
L 316.954737 184.807067 
L 313.384489 185.467969 
L 309.814241 186.202715 
L 306.243993 187.027151 
L 302.673745 187.957125 
L 299.103497 188.99958 
L 295.533249 190.125855 
L 291.963001 191.298386 
L 288.392753 192.479608 
L 284.822505 193.63196 
L 281.252257 194.717876 
L 277.682009 195.699793 
L 274.111761 196.540148 
L 270.541513 197.201375 
L 266.971266 197.645913 
L 263.401018 197.836197 
L 259.83077 197.750093 
L 256.260522 197.427186 
L 252.690274 196.922491 
L 249.120026 196.291024 
L 245.549778 195.587799 
L 241.97953 194.867831 
L 238.409282 194.186135 
L 234.839034 193.597727 
L 231.268786 193.15762 
L 227.698538 192.920831 
L 224.12829 192.942374 
L 220.558042 193.258603 
L 216.987794 193.831224 
L 213.417546 194.603284 
L 209.847299 195.517829 
L 206.277051 196.517903 
L 202.706803 197.546554 
L 199.136555 198.546826 
L 195.566307 199.461766 
L 191.996059 200.234418 
L 188.425811 200.80783 
L 184.855563 201.125046 
L 181.285315 201.147099 
L 177.715067 200.906962 
L 174.144819 200.455598 
L 170.574571 199.843967 
L 167.004323 199.12303 
L 163.434075 198.343747 
L 159.863827 197.55708 
L 156.29358 196.813989 
L 152.723332 196.165435 
L 149.153084 195.66238 
L 145.582836 195.355783 
L 142.012588 195.284106 
L 138.44234 195.435805 
L 134.872092 195.786838 
L 131.301844 196.313161 
L 127.731596 196.990732 
L 124.161348 197.795508 
L 120.5911 198.703445 
L 117.020852 199.6905 
L 113.450604 200.732631 
L 109.880356 201.805794 
L 106.310108 202.885946 
L 102.739861 203.952356 
L 99.169613 204.99754 
L 95.599365 206.017326 
L 92.029117 207.007542 
L 88.458869 207.964016 
L 84.888621 208.882576 
L 81.318373 209.759049 
L 77.748125 210.589263 
L 74.177877 211.369047 
L 70.607629 212.094228 
L 67.037381 212.760634 
L 63.467133 213.364094 
L 59.896885 213.900434 
L 56.326637 214.365483 
L 52.756389 214.755069 
L 49.186142 215.06502 
L 45.615894 215.291163 
L 42.045646 215.429327 
L 38.475398 215.475339 
L 34.90515 215.425027 
L 31.334902 215.274219 
L 27.764654 215.018744 
z
" clip-path="url(#p23ab2e6e73)" style="fill: #aec7e8"/>
   </g>
   <g id="FillBetweenPolyCollection_3">
    <path d="M 27.764654 188.823172 
L 27.764654 215.018744 
L 31.334902 215.274219 
L 34.90515 215.425027 
L 38.475398 215.475339 
L 42.045646 215.429327 
L 45.615894 215.291163 
L 49.186142 215.06502 
L 52.756389 214.755069 
L 56.326637 214.365483 
L 59.896885 213.900434 
L 63.467133 213.364094 
L 67.037381 212.760634 
L 70.607629 212.094228 
L 74.177877 211.369047 
L 77.748125 210.589263 
L 81.318373 209.759049 
L 84.888621 208.882576 
L 88.458869 207.964016 
L 92.029117 207.007542 
L 95.599365 206.017326 
L 99.169613 204.99754 
L 102.739861 203.952356 
L 106.310108 202.885946 
L 109.880356 201.805794 
L 113.450604 200.732631 
L 117.020852 199.6905 
L 120.5911 198.703445 
L 124.161348 197.795508 
L 127.731596 196.990732 
L 131.301844 196.313161 
L 134.872092 195.786838 
L 138.44234 195.435805 
L 142.012588 195.284106 
L 145.582836 195.355783 
L 149.153084 195.66238 
L 152.723332 196.165435 
L 156.29358 196.813989 
L 159.863827 197.55708 
L 163.434075 198.343747 
L 167.004323 199.12303 
L 170.574571 199.843967 
L 174.144819 200.455598 
L 177.715067 200.906962 
L 181.285315 201.147099 
L 184.855563 201.125046 
L 188.425811 200.80783 
L 191.996059 200.234418 
L 195.566307 199.461766 
L 199.136555 198.546826 
L 202.706803 197.546554 
L 206.277051 196.517903 
L 209.847299 195.517829 
L 213.417546 194.603284 
L 216.987794 193.831224 
L 220.558042 193.258603 
L 224.12829 192.942374 
L 227.698538 192.920831 
L 231.268786 193.15762 
L 234.839034 193.597727 
L 238.409282 194.186135 
L 241.97953 194.867831 
L 245.549778 195.587799 
L 249.120026 196.291024 
L 252.690274 196.922491 
L 256.260522 197.427186 
L 259.83077 197.750093 
L 263.401018 197.836197 
L 266.971266 197.645913 
L 270.541513 197.201375 
L 274.111761 196.540148 
L 277.682009 195.699793 
L 281.252257 194.717876 
L 284.822505 193.63196 
L 288.392753 192.479608 
L 291.963001 191.298386 
L 295.533249 190.125855 
L 299.103497 188.99958 
L 302.673745 187.957125 
L 306.243993 187.027151 
L 309.814241 186.202715 
L 313.384489 185.467969 
L 316.954737 184.807067 
L 320.524985 184.204162 
L 324.095232 183.643409 
L 327.66548 183.108961 
L 331.235728 182.58497 
L 334.805976 182.055592 
L 338.376224 181.504978 
L 341.946472 180.917284 
L 345.51672 180.276662 
L 349.086968 179.567266 
L 352.657216 178.773249 
L 356.227464 177.878766 
L 359.797712 176.867969 
L 363.36796 175.725012 
L 366.938208 174.434049 
L 370.508456 172.979233 
L 374.078704 171.344718 
L 377.648951 169.514657 
L 381.219199 167.473204 
L 381.219199 142.424847 
L 381.219199 142.424847 
L 377.648951 142.519989 
L 374.078704 142.919484 
L 370.508456 143.597015 
L 366.938208 144.52627 
L 363.36796 145.680934 
L 359.797712 147.034694 
L 356.227464 148.561234 
L 352.657216 150.234242 
L 349.086968 152.027403 
L 345.51672 153.914402 
L 341.946472 155.868927 
L 338.376224 157.864662 
L 334.805976 159.875294 
L 331.235728 161.874508 
L 327.66548 163.835991 
L 324.095232 165.733428 
L 320.524985 167.540506 
L 316.954737 169.23091 
L 313.384489 170.778327 
L 309.814241 172.156441 
L 306.243993 173.338939 
L 302.673745 174.299508 
L 299.103497 175.019417 
L 295.533249 175.510276 
L 291.963001 175.79128 
L 288.392753 175.881623 
L 284.822505 175.800499 
L 281.252257 175.567103 
L 277.682009 175.200629 
L 274.111761 174.720271 
L 270.541513 174.145224 
L 266.971266 173.494682 
L 263.401018 172.78784 
L 259.83077 172.044969 
L 256.260522 171.29066 
L 252.690274 170.550578 
L 249.120026 169.850391 
L 245.549778 169.215765 
L 241.97953 168.672368 
L 238.409282 168.245866 
L 234.839034 167.961926 
L 231.268786 167.846216 
L 227.698538 167.924401 
L 224.12829 168.22215 
L 220.558042 168.752167 
L 216.987794 169.475308 
L 213.417546 170.339467 
L 209.847299 171.292538 
L 206.277051 172.282416 
L 202.706803 173.256995 
L 199.136555 174.164168 
L 195.566307 174.95183 
L 191.996059 175.567874 
L 188.425811 175.960196 
L 184.855563 176.076689 
L 181.285315 175.884823 
L 177.715067 175.430376 
L 174.144819 174.7787 
L 170.574571 173.995149 
L 167.004323 173.145074 
L 163.434075 172.293831 
L 159.863827 171.506771 
L 156.29358 170.849247 
L 152.723332 170.386613 
L 149.153084 170.184222 
L 145.582836 170.307426 
L 142.012588 170.801198 
L 138.44234 171.628986 
L 134.872092 172.733857 
L 131.301844 174.058878 
L 127.731596 175.547117 
L 124.161348 177.141639 
L 120.5911 178.785514 
L 117.020852 180.421806 
L 113.450604 181.993585 
L 109.880356 183.443916 
L 106.310108 184.715867 
L 102.739861 185.765324 
L 99.169613 186.599442 
L 95.599365 187.238199 
L 92.029117 187.701569 
L 88.458869 188.009528 
L 84.888621 188.182052 
L 81.318373 188.239115 
L 77.748125 188.200694 
L 74.177877 188.086764 
L 70.607629 187.917299 
L 67.037381 187.712277 
L 63.467133 187.491672 
L 59.896885 187.275459 
L 56.326637 187.083615 
L 52.756389 186.936114 
L 49.186142 186.852933 
L 45.615894 186.854046 
L 42.045646 186.959429 
L 38.475398 187.189058 
L 34.90515 187.562907 
L 31.334902 188.100954 
L 27.764654 188.823172 
z
" clip-path="url(#p23ab2e6e73)" style="fill: #ff7f0e"/>
   </g>
   <g id="FillBetweenPolyCollection_4">
    <path d="M 27.764654 161.590598 
L 27.764654 188.823172 
L 31.334902 188.100954 
L 34.90515 187.562907 
L 38.475398 187.189058 
L 42.045646 186.959429 
L 45.615894 186.854046 
L 49.186142 186.852933 
L 52.756389 186.936114 
L 56.326637 187.083615 
L 59.896885 187.275459 
L 63.467133 187.491672 
L 67.037381 187.712277 
L 70.607629 187.917299 
L 74.177877 188.086764 
L 77.748125 188.200694 
L 81.318373 188.239115 
L 84.888621 188.182052 
L 88.458869 188.009528 
L 92.029117 187.701569 
L 95.599365 187.238199 
L 99.169613 186.599442 
L 102.739861 185.765324 
L 106.310108 184.715867 
L 109.880356 183.443916 
L 113.450604 181.993585 
L 117.020852 180.421806 
L 120.5911 178.785514 
L 124.161348 177.141639 
L 127.731596 175.547117 
L 131.301844 174.058878 
L 134.872092 172.733857 
L 138.44234 171.628986 
L 142.012588 170.801198 
L 145.582836 170.307426 
L 149.153084 170.184222 
L 152.723332 170.386613 
L 156.29358 170.849247 
L 159.863827 171.506771 
L 163.434075 172.293831 
L 167.004323 173.145074 
L 170.574571 173.995149 
L 174.144819 174.7787 
L 177.715067 175.430376 
L 181.285315 175.884823 
L 184.855563 176.076689 
L 188.425811 175.960196 
L 191.996059 175.567874 
L 195.566307 174.95183 
L 199.136555 174.164168 
L 202.706803 173.256995 
L 206.277051 172.282416 
L 209.847299 171.292538 
L 213.417546 170.339467 
L 216.987794 169.475308 
L 220.558042 168.752167 
L 224.12829 168.22215 
L 227.698538 167.924401 
L 231.268786 167.846216 
L 234.839034 167.961926 
L 238.409282 168.245866 
L 241.97953 168.672368 
L 245.549778 169.215765 
L 249.120026 169.850391 
L 252.690274 170.550578 
L 256.260522 171.29066 
L 259.83077 172.044969 
L 263.401018 172.78784 
L 266.971266 173.494682 
L 270.541513 174.145224 
L 274.111761 174.720271 
L 277.682009 175.200629 
L 281.252257 175.567103 
L 284.822505 175.800499 
L 288.392753 175.881623 
L 291.963001 175.79128 
L 295.533249 175.510276 
L 299.103497 175.019417 
L 302.673745 174.299508 
L 306.243993 173.338939 
L 309.814241 172.156441 
L 313.384489 170.778327 
L 316.954737 169.23091 
L 320.524985 167.540506 
L 324.095232 165.733428 
L 327.66548 163.835991 
L 331.235728 161.874508 
L 334.805976 159.875294 
L 338.376224 157.864662 
L 341.946472 155.868927 
L 345.51672 153.914402 
L 349.086968 152.027403 
L 352.657216 150.234242 
L 356.227464 148.561234 
L 359.797712 147.034694 
L 363.36796 145.680934 
L 366.938208 144.52627 
L 370.508456 143.597015 
L 374.078704 142.919484 
L 377.648951 142.519989 
L 381.219199 142.424847 
L 381.219199 135.033077 
L 381.219199 135.033077 
L 377.648951 136.286262 
L 374.078704 137.518069 
L 370.508456 138.727972 
L 366.938208 139.915442 
L 363.36796 141.079954 
L 359.797712 142.220979 
L 356.227464 143.337992 
L 352.657216 144.430465 
L 349.086968 145.497872 
L 345.51672 146.539684 
L 341.946472 147.555377 
L 338.376224 148.544422 
L 334.805976 149.506292 
L 331.235728 150.440461 
L 327.66548 151.346401 
L 324.095232 152.223586 
L 320.524985 153.071489 
L 316.954737 153.889583 
L 313.384489 154.677341 
L 309.814241 155.434235 
L 306.243993 156.15974 
L 302.673745 156.853327 
L 299.103497 157.512761 
L 295.533249 158.128969 
L 291.963001 158.691168 
L 288.392753 159.188576 
L 284.822505 159.610411 
L 281.252257 159.945889 
L 277.682009 160.184229 
L 274.111761 160.314648 
L 270.541513 160.326364 
L 266.971266 160.208594 
L 263.401018 159.950556 
L 259.83077 159.547846 
L 256.260522 159.021569 
L 252.690274 158.399211 
L 249.120026 157.708255 
L 245.549778 156.976185 
L 241.97953 156.230487 
L 238.409282 155.498645 
L 234.839034 154.808142 
L 231.268786 154.186463 
L 227.698538 153.661092 
L 224.12829 153.259514 
L 220.558042 153.00106 
L 216.987794 152.872451 
L 213.417546 152.852253 
L 209.847299 152.919036 
L 206.277051 153.051365 
L 202.706803 153.227809 
L 199.136555 153.426935 
L 195.566307 153.62731 
L 191.996059 153.807503 
L 188.425811 153.946081 
L 184.855563 154.02161 
L 181.285315 154.019545 
L 177.715067 153.952883 
L 174.144819 153.841506 
L 170.574571 153.705296 
L 167.004323 153.564136 
L 163.434075 153.43791 
L 159.863827 153.346499 
L 156.29358 153.309787 
L 152.723332 153.347655 
L 149.153084 153.479987 
L 145.582836 153.726666 
L 142.012588 154.100767 
L 138.44234 154.588142 
L 134.872092 155.167837 
L 131.301844 155.818897 
L 127.731596 156.520367 
L 124.161348 157.251292 
L 120.5911 157.990718 
L 117.020852 158.717691 
L 113.450604 159.411254 
L 109.880356 160.050455 
L 106.310108 160.614338 
L 102.739861 161.086647 
L 99.169613 161.469926 
L 95.599365 161.771414 
L 92.029117 161.998354 
L 88.458869 162.157987 
L 84.888621 162.257553 
L 81.318373 162.304296 
L 77.748125 162.305455 
L 74.177877 162.268272 
L 70.607629 162.199989 
L 67.037381 162.107846 
L 63.467133 161.999086 
L 59.896885 161.880949 
L 56.326637 161.760677 
L 52.756389 161.645511 
L 49.186142 161.542693 
L 45.615894 161.459464 
L 42.045646 161.403065 
L 38.475398 161.380737 
L 34.90515 161.399723 
L 31.334902 161.467262 
L 27.764654 161.590598 
z
" clip-path="url(#p23ab2e6e73)" style="fill: #ffbb78"/>
   </g>
   <g id="FillBetweenPolyCollection_5">
    <path d="M 27.764654 136.060059 
L 27.764654 161.590598 
L 31.334902 161.467262 
L 34.90515 161.399723 
L 38.475398 161.380737 
L 42.045646 161.403065 
L 45.615894 161.459464 
L 49.186142 161.542693 
L 52.756389 161.645511 
L 56.326637 161.760677 
L 59.896885 161.880949 
L 63.467133 161.999086 
L 67.037381 162.107846 
L 70.607629 162.199989 
L 74.177877 162.268272 
L 77.748125 162.305455 
L 81.318373 162.304296 
L 84.888621 162.257553 
L 88.458869 162.157987 
L 92.029117 161.998354 
L 95.599365 161.771414 
L 99.169613 161.469926 
L 102.739861 161.086647 
L 106.310108 160.614338 
L 109.880356 160.050455 
L 113.450604 159.411254 
L 117.020852 158.717691 
L 120.5911 157.990718 
L 124.161348 157.251292 
L 127.731596 156.520367 
L 131.301844 155.818897 
L 134.872092 155.167837 
L 138.44234 154.588142 
L 142.012588 154.100767 
L 145.582836 153.726666 
L 149.153084 153.479987 
L 152.723332 153.347655 
L 156.29358 153.309787 
L 159.863827 153.346499 
L 163.434075 153.43791 
L 167.004323 153.564136 
L 170.574571 153.705296 
L 174.144819 153.841506 
L 177.715067 153.952883 
L 181.285315 154.019545 
L 184.855563 154.02161 
L 188.425811 153.946081 
L 191.996059 153.807503 
L 195.566307 153.62731 
L 199.136555 153.426935 
L 202.706803 153.227809 
L 206.277051 153.051365 
L 209.847299 152.919036 
L 213.417546 152.852253 
L 216.987794 152.872451 
L 220.558042 153.00106 
L 224.12829 153.259514 
L 227.698538 153.661092 
L 231.268786 154.186463 
L 234.839034 154.808142 
L 238.409282 155.498645 
L 241.97953 156.230487 
L 245.549778 156.976185 
L 249.120026 157.708255 
L 252.690274 158.399211 
L 256.260522 159.021569 
L 259.83077 159.547846 
L 263.401018 159.950556 
L 266.971266 160.208594 
L 270.541513 160.326364 
L 274.111761 160.314648 
L 277.682009 160.184229 
L 281.252257 159.945889 
L 284.822505 159.610411 
L 288.392753 159.188576 
L 291.963001 158.691168 
L 295.533249 158.128969 
L 299.103497 157.512761 
L 302.673745 156.853327 
L 306.243993 156.15974 
L 309.814241 155.434235 
L 313.384489 154.677341 
L 316.954737 153.889583 
L 320.524985 153.071489 
L 324.095232 152.223586 
L 327.66548 151.346401 
L 331.235728 150.440461 
L 334.805976 149.506292 
L 338.376224 148.544422 
L 341.946472 147.555377 
L 345.51672 146.539684 
L 349.086968 145.497872 
L 352.657216 144.430465 
L 356.227464 143.337992 
L 359.797712 142.220979 
L 363.36796 141.079954 
L 366.938208 139.915442 
L 370.508456 138.727972 
L 374.078704 137.518069 
L 377.648951 136.286262 
L 381.219199 135.033077 
L 381.219199 122.104367 
L 381.219199 122.104367 
L 377.648951 121.581157 
L 374.078704 121.191271 
L 370.508456 120.92759 
L 366.938208 120.782992 
L 363.36796 120.750357 
L 359.797712 120.822565 
L 356.227464 120.992495 
L 352.657216 121.253025 
L 349.086968 121.597037 
L 345.51672 122.017408 
L 341.946472 122.507019 
L 338.376224 123.058749 
L 334.805976 123.665477 
L 331.235728 124.320083 
L 327.66548 125.015446 
L 324.095232 125.744446 
L 320.524985 126.499961 
L 316.954737 127.274872 
L 313.384489 128.062058 
L 309.814241 128.854398 
L 306.243993 129.644771 
L 302.673745 130.426058 
L 299.103497 131.190023 
L 295.533249 131.923981 
L 291.963001 132.61413 
L 288.392753 133.246671 
L 284.822505 133.807804 
L 281.252257 134.283727 
L 277.682009 134.660641 
L 274.111761 134.924746 
L 270.541513 135.06224 
L 266.971266 135.059325 
L 263.401018 134.902199 
L 259.83077 134.583946 
L 256.260522 134.125184 
L 252.690274 133.553414 
L 249.120026 132.896138 
L 245.549778 132.180857 
L 241.97953 131.435073 
L 238.409282 130.686288 
L 234.839034 129.962002 
L 231.268786 129.289717 
L 227.698538 128.696935 
L 224.12829 128.211157 
L 220.558042 127.853256 
L 216.987794 127.617594 
L 213.417546 127.491903 
L 209.847299 127.463916 
L 206.277051 127.521365 
L 202.706803 127.651983 
L 199.136555 127.843502 
L 195.566307 128.083657 
L 191.996059 128.360178 
L 188.425811 128.660799 
L 184.855563 128.973253 
L 181.285315 129.287281 
L 177.715067 129.60066 
L 174.144819 129.913177 
L 170.574571 130.224619 
L 167.004323 130.534772 
L 163.434075 130.843422 
L 159.863827 131.150356 
L 156.29358 131.455361 
L 152.723332 131.758222 
L 149.153084 132.058726 
L 145.582836 132.35666 
L 142.012588 132.651932 
L 138.44234 132.94494 
L 134.872092 133.236205 
L 131.301844 133.526247 
L 127.731596 133.815586 
L 124.161348 134.104741 
L 120.5911 134.394234 
L 117.020852 134.684584 
L 113.450604 134.976312 
L 109.880356 135.269937 
L 106.310108 135.565981 
L 102.739861 135.864241 
L 99.169613 136.161629 
L 95.599365 136.454338 
L 92.029117 136.738556 
L 88.458869 137.010476 
L 84.888621 137.266286 
L 81.318373 137.502179 
L 77.748125 137.714344 
L 74.177877 137.898973 
L 70.607629 138.052256 
L 67.037381 138.170383 
L 63.467133 138.249546 
L 59.896885 138.285935 
L 56.326637 138.27574 
L 52.756389 138.215153 
L 49.186142 138.100364 
L 45.615894 137.927563 
L 42.045646 137.692941 
L 38.475398 137.392689 
L 34.90515 137.022998 
L 31.334902 136.580058 
L 27.764654 136.060059 
z
" clip-path="url(#p23ab2e6e73)" style="fill: #2ca02c"/>
   </g>
   <g id="FillBetweenPolyCollection_6">
    <path d="M 27.764654 110.059864 
L 27.764654 136.060059 
L 31.334902 136.580058 
L 34.90515 137.022998 
L 38.475398 137.392689 
L 42.045646 137.692941 
L 45.615894 137.927563 
L 49.186142 138.100364 
L 52.756389 138.215153 
L 56.326637 138.27574 
L 59.896885 138.285935 
L 63.467133 138.249546 
L 67.037381 138.170383 
L 70.607629 138.052256 
L 74.177877 137.898973 
L 77.748125 137.714344 
L 81.318373 137.502179 
L 84.888621 137.266286 
L 88.458869 137.010476 
L 92.029117 136.738556 
L 95.599365 136.454338 
L 99.169613 136.161629 
L 102.739861 135.864241 
L 106.310108 135.565981 
L 109.880356 135.269937 
L 113.450604 134.976312 
L 117.020852 134.684584 
L 120.5911 134.394234 
L 124.161348 134.104741 
L 127.731596 133.815586 
L 131.301844 133.526247 
L 134.872092 133.236205 
L 138.44234 132.94494 
L 142.012588 132.651932 
L 145.582836 132.35666 
L 149.153084 132.058726 
L 152.723332 131.758222 
L 156.29358 131.455361 
L 159.863827 131.150356 
L 163.434075 130.843422 
L 167.004323 130.534772 
L 170.574571 130.224619 
L 174.144819 129.913177 
L 177.715067 129.60066 
L 181.285315 129.287281 
L 184.855563 128.973253 
L 188.425811 128.660799 
L 191.996059 128.360178 
L 195.566307 128.083657 
L 199.136555 127.843502 
L 202.706803 127.651983 
L 206.277051 127.521365 
L 209.847299 127.463916 
L 213.417546 127.491903 
L 216.987794 127.617594 
L 220.558042 127.853256 
L 224.12829 128.211157 
L 227.698538 128.696935 
L 231.268786 129.289717 
L 234.839034 129.962002 
L 238.409282 130.686288 
L 241.97953 131.435073 
L 245.549778 132.180857 
L 249.120026 132.896138 
L 252.690274 133.553414 
L 256.260522 134.125184 
L 259.83077 134.583946 
L 263.401018 134.902199 
L 266.971266 135.059325 
L 270.541513 135.06224 
L 274.111761 134.924746 
L 277.682009 134.660641 
L 281.252257 134.283727 
L 284.822505 133.807804 
L 288.392753 133.246671 
L 291.963001 132.61413 
L 295.533249 131.923981 
L 299.103497 131.190023 
L 302.673745 130.426058 
L 306.243993 129.644771 
L 309.814241 128.854398 
L 313.384489 128.062058 
L 316.954737 127.274872 
L 320.524985 126.499961 
L 324.095232 125.744446 
L 327.66548 125.015446 
L 331.235728 124.320083 
L 334.805976 123.665477 
L 338.376224 123.058749 
L 341.946472 122.507019 
L 345.51672 122.017408 
L 349.086968 121.597037 
L 352.657216 121.253025 
L 356.227464 120.992495 
L 359.797712 120.822565 
L 363.36796 120.750357 
L 366.938208 120.782992 
L 370.508456 120.92759 
L 374.078704 121.191271 
L 377.648951 121.581157 
L 381.219199 122.104367 
L 381.219199 99.230207 
L 381.219199 99.230207 
L 377.648951 98.055126 
L 374.078704 97.114546 
L 370.508456 96.39375 
L 366.938208 95.878022 
L 363.36796 95.552643 
L 359.797712 95.402898 
L 356.227464 95.41407 
L 352.657216 95.571442 
L 349.086968 95.860297 
L 345.51672 96.265918 
L 341.946472 96.773589 
L 338.376224 97.368594 
L 334.805976 98.036214 
L 331.235728 98.761733 
L 327.66548 99.530435 
L 324.095232 100.327602 
L 320.524985 101.138519 
L 316.954737 101.948467 
L 313.384489 102.742731 
L 309.814241 103.506594 
L 306.243993 104.225338 
L 302.673745 104.884248 
L 299.103497 105.47116 
L 295.533249 105.984129 
L 291.963001 106.423767 
L 288.392753 106.790681 
L 284.822505 107.085482 
L 281.252257 107.30878 
L 277.682009 107.461184 
L 274.111761 107.543304 
L 270.541513 107.555749 
L 266.971266 107.499129 
L 263.401018 107.374054 
L 259.83077 107.182267 
L 256.260522 106.930043 
L 252.690274 106.62479 
L 249.120026 106.273919 
L 245.549778 105.884836 
L 241.97953 105.464951 
L 238.409282 105.021673 
L 234.839034 104.56241 
L 231.268786 104.094571 
L 227.698538 103.625564 
L 224.12829 103.162799 
L 220.558042 102.71618 
L 216.987794 102.305593 
L 213.417546 101.953421 
L 209.847299 101.682047 
L 206.277051 101.513853 
L 202.706803 101.471222 
L 199.136555 101.576536 
L 195.566307 101.852177 
L 191.996059 102.32053 
L 188.425811 103.003975 
L 184.855563 103.924896 
L 181.285315 105.09199 
L 177.715067 106.459221 
L 174.144819 107.966865 
L 170.574571 109.555202 
L 167.004323 111.164508 
L 163.434075 112.735063 
L 159.863827 114.207143 
L 156.29358 115.521027 
L 152.723332 116.616993 
L 149.153084 117.435318 
L 145.582836 117.916282 
L 142.012588 118.020189 
L 138.44234 117.787457 
L 134.872092 117.278532 
L 131.301844 116.553859 
L 127.731596 115.673883 
L 124.161348 114.69905 
L 120.5911 113.689806 
L 117.020852 112.706596 
L 113.450604 111.809865 
L 109.880356 111.060059 
L 106.310108 110.517623 
L 102.739861 110.227664 
L 99.169613 110.173932 
L 95.599365 110.324837 
L 92.029117 110.648791 
L 88.458869 111.114205 
L 84.888621 111.68949 
L 81.318373 112.343056 
L 77.748125 113.043316 
L 74.177877 113.758679 
L 70.607629 114.457557 
L 67.037381 115.108361 
L 63.467133 115.679502 
L 59.896885 116.139391 
L 56.326637 116.456438 
L 52.756389 116.599056 
L 49.186142 116.535655 
L 45.615894 116.234645 
L 42.045646 115.664439 
L 38.475398 114.793447 
L 34.90515 113.59008 
L 31.334902 112.022749 
L 27.764654 110.059864 
z
" clip-path="url(#p23ab2e6e73)" style="fill: #98df8a"/>
   </g>
   <g id="FillBetweenPolyCollection_7">
    <path d="M 27.764654 83.440975 
L 27.764654 110.059864 
L 31.334902 112.022749 
L 34.90515 113.59008 
L 38.475398 114.793447 
L 42.045646 115.664439 
L 45.615894 116.234645 
L 49.186142 116.535655 
L 52.756389 116.599056 
L 56.326637 116.456438 
L 59.896885 116.139391 
L 63.467133 115.679502 
L 67.037381 115.108361 
L 70.607629 114.457557 
L 74.177877 113.758679 
L 77.748125 113.043316 
L 81.318373 112.343056 
L 84.888621 111.68949 
L 88.458869 111.114205 
L 92.029117 110.648791 
L 95.599365 110.324837 
L 99.169613 110.173932 
L 102.739861 110.227664 
L 106.310108 110.517623 
L 109.880356 111.060059 
L 113.450604 111.809865 
L 117.020852 112.706596 
L 120.5911 113.689806 
L 124.161348 114.69905 
L 127.731596 115.673883 
L 131.301844 116.553859 
L 134.872092 117.278532 
L 138.44234 117.787457 
L 142.012588 118.020189 
L 145.582836 117.916282 
L 149.153084 117.435318 
L 152.723332 116.616993 
L 156.29358 115.521027 
L 159.863827 114.207143 
L 163.434075 112.735063 
L 167.004323 111.164508 
L 170.574571 109.555202 
L 174.144819 107.966865 
L 177.715067 106.459221 
L 181.285315 105.09199 
L 184.855563 103.924896 
L 188.425811 103.003975 
L 191.996059 102.32053 
L 195.566307 101.852177 
L 199.136555 101.576536 
L 202.706803 101.471222 
L 206.277051 101.513853 
L 209.847299 101.682047 
L 213.417546 101.953421 
L 216.987794 102.305593 
L 220.558042 102.71618 
L 224.12829 103.162799 
L 227.698538 103.625564 
L 231.268786 104.094571 
L 234.839034 104.56241 
L 238.409282 105.021673 
L 241.97953 105.464951 
L 245.549778 105.884836 
L 249.120026 106.273919 
L 252.690274 106.62479 
L 256.260522 106.930043 
L 259.83077 107.182267 
L 263.401018 107.374054 
L 266.971266 107.499129 
L 270.541513 107.555749 
L 274.111761 107.543304 
L 277.682009 107.461184 
L 281.252257 107.30878 
L 284.822505 107.085482 
L 288.392753 106.790681 
L 291.963001 106.423767 
L 295.533249 105.984129 
L 299.103497 105.47116 
L 302.673745 104.884248 
L 306.243993 104.225338 
L 309.814241 103.506594 
L 313.384489 102.742731 
L 316.954737 101.948467 
L 320.524985 101.138519 
L 324.095232 100.327602 
L 327.66548 99.530435 
L 331.235728 98.761733 
L 334.805976 98.036214 
L 338.376224 97.368594 
L 341.946472 96.773589 
L 345.51672 96.265918 
L 349.086968 95.860297 
L 352.657216 95.571442 
L 356.227464 95.41407 
L 359.797712 95.402898 
L 363.36796 95.552643 
L 366.938208 95.878022 
L 370.508456 96.39375 
L 374.078704 97.114546 
L 377.648951 98.055126 
L 381.219199 99.230207 
L 381.219199 60.87491 
L 381.219199 60.87491 
L 377.648951 60.564082 
L 374.078704 60.392141 
L 370.508456 60.349375 
L 366.938208 60.426068 
L 363.36796 60.612508 
L 359.797712 60.89898 
L 356.227464 61.27577 
L 352.657216 61.733165 
L 349.086968 62.26145 
L 345.51672 62.850912 
L 341.946472 63.491837 
L 338.376224 64.174511 
L 334.805976 64.88922 
L 331.235728 65.62625 
L 327.66548 66.375888 
L 324.095232 67.128419 
L 320.524985 67.87413 
L 316.954737 68.603306 
L 313.384489 69.306234 
L 309.814241 69.973201 
L 306.243993 70.594491 
L 302.673745 71.160392 
L 299.103497 71.66351 
L 295.533249 72.105738 
L 291.963001 72.491289 
L 288.392753 72.824377 
L 284.822505 73.109216 
L 281.252257 73.350017 
L 277.682009 73.550996 
L 274.111761 73.716366 
L 270.541513 73.85034 
L 266.971266 73.957131 
L 263.401018 74.040953 
L 259.83077 74.105455 
L 256.260522 74.152031 
L 252.690274 74.181509 
L 249.120026 74.194719 
L 245.549778 74.192489 
L 241.97953 74.175649 
L 238.409282 74.145028 
L 234.839034 74.101454 
L 231.268786 74.045757 
L 227.698538 73.978765 
L 224.12829 73.901308 
L 220.558042 73.815831 
L 216.987794 73.73124 
L 213.417546 73.658058 
L 209.847299 73.606808 
L 206.277051 73.588013 
L 202.706803 73.612195 
L 199.136555 73.689878 
L 195.566307 73.831583 
L 191.996059 74.047834 
L 188.425811 74.349154 
L 184.855563 74.746064 
L 181.285315 75.244811 
L 177.715067 75.834528 
L 174.144819 76.500074 
L 170.574571 77.226305 
L 167.004323 77.998079 
L 163.434075 78.800253 
L 159.863827 79.617683 
L 156.29358 80.435227 
L 152.723332 81.237743 
L 149.153084 82.010087 
L 145.582836 82.737116 
L 142.012588 83.406837 
L 138.44234 84.019848 
L 134.872092 84.579897 
L 131.301844 85.090732 
L 127.731596 85.556101 
L 124.161348 85.979751 
L 120.5911 86.365429 
L 117.020852 86.716884 
L 113.450604 87.037864 
L 109.880356 87.332115 
L 106.310108 87.603386 
L 102.739861 87.854306 
L 99.169613 88.083035 
L 95.599365 88.286614 
L 92.029117 88.462084 
L 88.458869 88.606486 
L 84.888621 88.716862 
L 81.318373 88.790253 
L 77.748125 88.8237 
L 74.177877 88.814244 
L 70.607629 88.758927 
L 67.037381 88.654791 
L 63.467133 88.498875 
L 59.896885 88.288223 
L 56.326637 88.019874 
L 52.756389 87.69087 
L 49.186142 87.298253 
L 45.615894 86.839063 
L 42.045646 86.310342 
L 38.475398 85.709132 
L 34.90515 85.032473 
L 31.334902 84.277407 
L 27.764654 83.440975 
z
" clip-path="url(#p23ab2e6e73)" style="fill: #d62728"/>
   </g>
   <g id="matplotlib.axis_1">
    <g id="xtick_1">
     <g id="line2d_1">
      <defs>
       <path id="m42f8352c56" d="M 0 0 
L 0 3.5 
" style="stroke: #000000; stroke-width: 0.8"/>
      </defs>
      <g>
       <use xlink:href="#m42f8352c56" x="27.764654" y="314.449375" style="stroke: #000000; stroke-width: 0.8"/>
      </g>
     </g>
     <g id="text_1">
      <!-- 1965 -->
      <g transform="translate(12.109973 340.501483) rotate(-45) scale(0.1 -0.1)">
       <defs>
        <path id="TimesNewRomanPSMT-31" d="M 750 3822 
L 1781 4325 
L 1884 4325 
L 1884 747 
Q 1884 391 1914 303 
Q 1944 216 2037 169 
Q 2131 122 2419 116 
L 2419 0 
L 825 0 
L 825 116 
Q 1125 122 1212 167 
Q 1300 213 1334 289 
Q 1369 366 1369 747 
L 1369 3034 
Q 1369 3497 1338 3628 
Q 1316 3728 1258 3775 
Q 1200 3822 1119 3822 
Q 1003 3822 797 3725 
L 750 3822 
z
" transform="scale(0.015625)"/>
        <path id="TimesNewRomanPSMT-39" d="M 338 -88 
L 338 28 
Q 744 34 1094 217 
Q 1444 400 1770 856 
Q 2097 1313 2225 1859 
Q 1734 1544 1338 1544 
Q 891 1544 572 1889 
Q 253 2234 253 2806 
Q 253 3363 572 3797 
Q 956 4325 1575 4325 
Q 2097 4325 2469 3894 
Q 2925 3359 2925 2575 
Q 2925 1869 2578 1258 
Q 2231 647 1613 244 
Q 1109 -88 516 -88 
L 338 -88 
z
M 2275 2091 
Q 2331 2497 2331 2741 
Q 2331 3044 2228 3395 
Q 2125 3747 1936 3934 
Q 1747 4122 1506 4122 
Q 1228 4122 1018 3872 
Q 809 3622 809 3128 
Q 809 2469 1088 2097 
Q 1291 1828 1588 1828 
Q 1731 1828 1928 1897 
Q 2125 1966 2275 2091 
z
" transform="scale(0.015625)"/>
        <path id="TimesNewRomanPSMT-36" d="M 2869 4325 
L 2869 4209 
Q 2456 4169 2195 4045 
Q 1934 3922 1679 3669 
Q 1425 3416 1258 3105 
Q 1091 2794 978 2366 
Q 1428 2675 1881 2675 
Q 2316 2675 2634 2325 
Q 2953 1975 2953 1425 
Q 2953 894 2631 456 
Q 2244 -75 1606 -75 
Q 1172 -75 869 213 
Q 275 772 275 1663 
Q 275 2231 503 2743 
Q 731 3256 1154 3653 
Q 1578 4050 1965 4187 
Q 2353 4325 2688 4325 
L 2869 4325 
z
M 925 2138 
Q 869 1716 869 1456 
Q 869 1156 980 804 
Q 1091 453 1309 247 
Q 1469 100 1697 100 
Q 1969 100 2183 356 
Q 2397 613 2397 1088 
Q 2397 1622 2184 2012 
Q 1972 2403 1581 2403 
Q 1463 2403 1327 2353 
Q 1191 2303 925 2138 
z
" transform="scale(0.015625)"/>
        <path id="TimesNewRomanPSMT-35" d="M 2778 4238 
L 2534 3706 
L 1259 3706 
L 981 3138 
Q 1809 3016 2294 2522 
Q 2709 2097 2709 1522 
Q 2709 1188 2573 903 
Q 2438 619 2231 419 
Q 2025 219 1772 97 
Q 1413 -75 1034 -75 
Q 653 -75 479 54 
Q 306 184 306 341 
Q 306 428 378 495 
Q 450 563 559 563 
Q 641 563 702 538 
Q 763 513 909 409 
Q 1144 247 1384 247 
Q 1750 247 2026 523 
Q 2303 800 2303 1197 
Q 2303 1581 2056 1914 
Q 1809 2247 1375 2428 
Q 1034 2569 447 2591 
L 1259 4238 
L 2778 4238 
z
" transform="scale(0.015625)"/>
       </defs>
       <use xlink:href="#TimesNewRomanPSMT-31"/>
       <use xlink:href="#TimesNewRomanPSMT-39" transform="translate(50 0)"/>
       <use xlink:href="#TimesNewRomanPSMT-36" transform="translate(100 0)"/>
       <use xlink:href="#TimesNewRomanPSMT-35" transform="translate(150 0)"/>
      </g>
     </g>
    </g>
    <g id="xtick_2">
     <g id="line2d_2">
      <g>
       <use xlink:href="#m42f8352c56" x="67.037381" y="314.449375" style="stroke: #000000; stroke-width: 0.8"/>
      </g>
     </g>
     <g id="text_2">
      <!-- 1966 -->
      <g transform="translate(51.3827 340.501483) rotate(-45) scale(0.1 -0.1)">
       <use xlink:href="#TimesNewRomanPSMT-31"/>
       <use xlink:href="#TimesNewRomanPSMT-39" transform="translate(50 0)"/>
       <use xlink:href="#TimesNewRomanPSMT-36" transform="translate(100 0)"/>
       <use xlink:href="#TimesNewRomanPSMT-36" transform="translate(150 0)"/>
      </g>
     </g>
    </g>
    <g id="xtick_3">
     <g id="line2d_3">
      <g>
       <use xlink:href="#m42f8352c56" x="106.310108" y="314.449375" style="stroke: #000000; stroke-width: 0.8"/>
      </g>
     </g>
     <g id="text_3">
      <!-- 1967 -->
      <g transform="translate(90.655427 340.501483) rotate(-45) scale(0.1 -0.1)">
       <defs>
        <path id="TimesNewRomanPSMT-37" d="M 644 4238 
L 2916 4238 
L 2916 4119 
L 1503 -88 
L 1153 -88 
L 2419 3728 
L 1253 3728 
Q 900 3728 750 3644 
Q 488 3500 328 3200 
L 238 3234 
L 644 4238 
z
" transform="scale(0.015625)"/>
       </defs>
       <use xlink:href="#TimesNewRomanPSMT-31"/>
       <use xlink:href="#TimesNewRomanPSMT-39" transform="translate(50 0)"/>
       <use xlink:href="#TimesNewRomanPSMT-36" transform="translate(100 0)"/>
       <use xlink:href="#TimesNewRomanPSMT-37" transform="translate(150 0)"/>
      </g>
     </g>
    </g>
    <g id="xtick_4">
     <g id="line2d_4">
      <g>
       <use xlink:href="#m42f8352c56" x="145.582836" y="314.449375" style="stroke: #000000; stroke-width: 0.8"/>
      </g>
     </g>
     <g id="text_4">
      <!-- 1968 -->
      <g transform="translate(129.928155 340.501483) rotate(-45) scale(0.1 -0.1)">
       <defs>
        <path id="TimesNewRomanPSMT-38" d="M 1228 2134 
Q 725 2547 579 2797 
Q 434 3047 434 3316 
Q 434 3728 753 4026 
Q 1072 4325 1600 4325 
Q 2113 4325 2425 4047 
Q 2738 3769 2738 3413 
Q 2738 3175 2569 2928 
Q 2400 2681 1866 2347 
Q 2416 1922 2594 1678 
Q 2831 1359 2831 1006 
Q 2831 559 2490 242 
Q 2150 -75 1597 -75 
Q 994 -75 656 303 
Q 388 606 388 966 
Q 388 1247 577 1523 
Q 766 1800 1228 2134 
z
M 1719 2469 
Q 2094 2806 2194 3001 
Q 2294 3197 2294 3444 
Q 2294 3772 2109 3958 
Q 1925 4144 1606 4144 
Q 1288 4144 1088 3959 
Q 888 3775 888 3528 
Q 888 3366 970 3203 
Q 1053 3041 1206 2894 
L 1719 2469 
z
M 1375 2016 
Q 1116 1797 991 1539 
Q 866 1281 866 981 
Q 866 578 1086 336 
Q 1306 94 1647 94 
Q 1984 94 2187 284 
Q 2391 475 2391 747 
Q 2391 972 2272 1150 
Q 2050 1481 1375 2016 
z
" transform="scale(0.015625)"/>
       </defs>
       <use xlink:href="#TimesNewRomanPSMT-31"/>
       <use xlink:href="#TimesNewRomanPSMT-39" transform="translate(50 0)"/>
       <use xlink:href="#TimesNewRomanPSMT-36" transform="translate(100 0)"/>
       <use xlink:href="#TimesNewRomanPSMT-38" transform="translate(150 0)"/>
      </g>
     </g>
    </g>
    <g id="xtick_5">
     <g id="line2d_5">
      <g>
       <use xlink:href="#m42f8352c56" x="184.855563" y="314.449375" style="stroke: #000000; stroke-width: 0.8"/>
      </g>
     </g>
     <g id="text_5">
      <!-- 1969 -->
      <g transform="translate(169.200882 340.501483) rotate(-45) scale(0.1 -0.1)">
       <use xlink:href="#TimesNewRomanPSMT-31"/>
       <use xlink:href="#TimesNewRomanPSMT-39" transform="translate(50 0)"/>
       <use xlink:href="#TimesNewRomanPSMT-36" transform="translate(100 0)"/>
       <use xlink:href="#TimesNewRomanPSMT-39" transform="translate(150 0)"/>
      </g>
     </g>
    </g>
    <g id="xtick_6">
     <g id="line2d_6">
      <g>
       <use xlink:href="#m42f8352c56" x="224.12829" y="314.449375" style="stroke: #000000; stroke-width: 0.8"/>
      </g>
     </g>
     <g id="text_6">
      <!-- 1970 -->
      <g transform="translate(208.473609 340.501483) rotate(-45) scale(0.1 -0.1)">
       <defs>
        <path id="TimesNewRomanPSMT-30" d="M 231 2094 
Q 231 2819 450 3342 
Q 669 3866 1031 4122 
Q 1313 4325 1613 4325 
Q 2100 4325 2488 3828 
Q 2972 3213 2972 2159 
Q 2972 1422 2759 906 
Q 2547 391 2217 158 
Q 1888 -75 1581 -75 
Q 975 -75 572 641 
Q 231 1244 231 2094 
z
M 844 2016 
Q 844 1141 1059 588 
Q 1238 122 1591 122 
Q 1759 122 1940 273 
Q 2122 425 2216 781 
Q 2359 1319 2359 2297 
Q 2359 3022 2209 3506 
Q 2097 3866 1919 4016 
Q 1791 4119 1609 4119 
Q 1397 4119 1231 3928 
Q 1006 3669 925 3112 
Q 844 2556 844 2016 
z
" transform="scale(0.015625)"/>
       </defs>
       <use xlink:href="#TimesNewRomanPSMT-31"/>
       <use xlink:href="#TimesNewRomanPSMT-39" transform="translate(50 0)"/>
       <use xlink:href="#TimesNewRomanPSMT-37" transform="translate(100 0)"/>
       <use xlink:href="#TimesNewRomanPSMT-30" transform="translate(150 0)"/>
      </g>
     </g>
    </g>
    <g id="xtick_7">
     <g id="line2d_7">
      <g>
       <use xlink:href="#m42f8352c56" x="263.401018" y="314.449375" style="stroke: #000000; stroke-width: 0.8"/>
      </g>
     </g>
     <g id="text_7">
      <!-- 1971 -->
      <g transform="translate(247.746336 340.501483) rotate(-45) scale(0.1 -0.1)">
       <use xlink:href="#TimesNewRomanPSMT-31"/>
       <use xlink:href="#TimesNewRomanPSMT-39" transform="translate(50 0)"/>
       <use xlink:href="#TimesNewRomanPSMT-37" transform="translate(100 0)"/>
       <use xlink:href="#TimesNewRomanPSMT-31" transform="translate(150 0)"/>
      </g>
     </g>
    </g>
    <g id="xtick_8">
     <g id="line2d_8">
      <g>
       <use xlink:href="#m42f8352c56" x="302.673745" y="314.449375" style="stroke: #000000; stroke-width: 0.8"/>
      </g>
     </g>
     <g id="text_8">
      <!-- 1972 -->
      <g transform="translate(287.019064 340.501483) rotate(-45) scale(0.1 -0.1)">
       <defs>
        <path id="TimesNewRomanPSMT-32" d="M 2934 816 
L 2638 0 
L 138 0 
L 138 116 
Q 1241 1122 1691 1759 
Q 2141 2397 2141 2925 
Q 2141 3328 1894 3587 
Q 1647 3847 1303 3847 
Q 991 3847 742 3664 
Q 494 3481 375 3128 
L 259 3128 
Q 338 3706 661 4015 
Q 984 4325 1469 4325 
Q 1984 4325 2329 3994 
Q 2675 3663 2675 3213 
Q 2675 2891 2525 2569 
Q 2294 2063 1775 1497 
Q 997 647 803 472 
L 1909 472 
Q 2247 472 2383 497 
Q 2519 522 2628 598 
Q 2738 675 2819 816 
L 2934 816 
z
" transform="scale(0.015625)"/>
       </defs>
       <use xlink:href="#TimesNewRomanPSMT-31"/>
       <use xlink:href="#TimesNewRomanPSMT-39" transform="translate(50 0)"/>
       <use xlink:href="#TimesNewRomanPSMT-37" transform="translate(100 0)"/>
       <use xlink:href="#TimesNewRomanPSMT-32" transform="translate(150 0)"/>
      </g>
     </g>
    </g>
    <g id="xtick_9">
     <g id="line2d_9">
      <g>
       <use xlink:href="#m42f8352c56" x="341.946472" y="314.449375" style="stroke: #000000; stroke-width: 0.8"/>
      </g>
     </g>
     <g id="text_9">
      <!-- 1973 -->
      <g transform="translate(326.291791 340.501483) rotate(-45) scale(0.1 -0.1)">
       <defs>
        <path id="TimesNewRomanPSMT-33" d="M 325 3431 
Q 506 3859 782 4092 
Q 1059 4325 1472 4325 
Q 1981 4325 2253 3994 
Q 2459 3747 2459 3466 
Q 2459 3003 1878 2509 
Q 2269 2356 2469 2072 
Q 2669 1788 2669 1403 
Q 2669 853 2319 450 
Q 1863 -75 997 -75 
Q 569 -75 414 31 
Q 259 138 259 259 
Q 259 350 332 419 
Q 406 488 509 488 
Q 588 488 669 463 
Q 722 447 909 348 
Q 1097 250 1169 231 
Q 1284 197 1416 197 
Q 1734 197 1970 444 
Q 2206 691 2206 1028 
Q 2206 1275 2097 1509 
Q 2016 1684 1919 1775 
Q 1784 1900 1550 2001 
Q 1316 2103 1072 2103 
L 972 2103 
L 972 2197 
Q 1219 2228 1467 2375 
Q 1716 2522 1828 2728 
Q 1941 2934 1941 3181 
Q 1941 3503 1739 3701 
Q 1538 3900 1238 3900 
Q 753 3900 428 3381 
L 325 3431 
z
" transform="scale(0.015625)"/>
       </defs>
       <use xlink:href="#TimesNewRomanPSMT-31"/>
       <use xlink:href="#TimesNewRomanPSMT-39" transform="translate(50 0)"/>
       <use xlink:href="#TimesNewRomanPSMT-37" transform="translate(100 0)"/>
       <use xlink:href="#TimesNewRomanPSMT-33" transform="translate(150 0)"/>
      </g>
     </g>
    </g>
    <g id="xtick_10">
     <g id="line2d_10">
      <g>
       <use xlink:href="#m42f8352c56" x="381.219199" y="314.449375" style="stroke: #000000; stroke-width: 0.8"/>
      </g>
     </g>
     <g id="text_10">
      <!-- 1974 -->
      <g transform="translate(365.564518 340.501483) rotate(-45) scale(0.1 -0.1)">
       <defs>
        <path id="TimesNewRomanPSMT-34" d="M 2978 1563 
L 2978 1119 
L 2409 1119 
L 2409 0 
L 1894 0 
L 1894 1119 
L 100 1119 
L 100 1519 
L 2066 4325 
L 2409 4325 
L 2409 1563 
L 2978 1563 
z
M 1894 1563 
L 1894 3666 
L 406 1563 
L 1894 1563 
z
" transform="scale(0.015625)"/>
       </defs>
       <use xlink:href="#TimesNewRomanPSMT-31"/>
       <use xlink:href="#TimesNewRomanPSMT-39" transform="translate(50 0)"/>
       <use xlink:href="#TimesNewRomanPSMT-37" transform="translate(100 0)"/>
       <use xlink:href="#TimesNewRomanPSMT-34" transform="translate(150 0)"/>
      </g>
     </g>
    </g>
    <g id="text_11">
     <!-- Year -->
     <g transform="translate(193.434114 354.346529) scale(0.12 -0.12)">
      <defs>
       <path id="TimesNewRomanPSMT-59" d="M 3050 4238 
L 4528 4238 
L 4528 4122 
L 4447 4122 
Q 4366 4122 4209 4050 
Q 4053 3978 3925 3843 
Q 3797 3709 3609 3406 
L 2588 1797 
L 2588 734 
Q 2588 344 2675 247 
Q 2794 116 3050 116 
L 3188 116 
L 3188 0 
L 1388 0 
L 1388 116 
L 1538 116 
Q 1806 116 1919 278 
Q 1988 378 1988 734 
L 1988 1738 
L 825 3513 
Q 619 3825 545 3903 
Q 472 3981 241 4091 
Q 178 4122 59 4122 
L 59 4238 
L 1872 4238 
L 1872 4122 
L 1778 4122 
Q 1631 4122 1507 4053 
Q 1384 3984 1384 3847 
Q 1384 3734 1575 3441 
L 2459 2075 
L 3291 3381 
Q 3478 3675 3478 3819 
Q 3478 3906 3433 3975 
Q 3388 4044 3303 4083 
Q 3219 4122 3050 4122 
L 3050 4238 
z
" transform="scale(0.015625)"/>
       <path id="TimesNewRomanPSMT-65" d="M 681 1784 
Q 678 1147 991 784 
Q 1303 422 1725 422 
Q 2006 422 2214 576 
Q 2422 731 2563 1106 
L 2659 1044 
Q 2594 616 2278 264 
Q 1963 -88 1488 -88 
Q 972 -88 605 314 
Q 238 716 238 1394 
Q 238 2128 614 2539 
Q 991 2950 1559 2950 
Q 2041 2950 2350 2633 
Q 2659 2316 2659 1784 
L 681 1784 
z
M 681 1966 
L 2006 1966 
Q 1991 2241 1941 2353 
Q 1863 2528 1708 2628 
Q 1553 2728 1384 2728 
Q 1125 2728 920 2526 
Q 716 2325 681 1966 
z
" transform="scale(0.015625)"/>
       <path id="TimesNewRomanPSMT-61" d="M 1822 413 
Q 1381 72 1269 19 
Q 1100 -59 909 -59 
Q 613 -59 420 144 
Q 228 347 228 678 
Q 228 888 322 1041 
Q 450 1253 767 1440 
Q 1084 1628 1822 1897 
L 1822 2009 
Q 1822 2438 1686 2597 
Q 1550 2756 1291 2756 
Q 1094 2756 978 2650 
Q 859 2544 859 2406 
L 866 2225 
Q 866 2081 792 2003 
Q 719 1925 600 1925 
Q 484 1925 411 2006 
Q 338 2088 338 2228 
Q 338 2497 613 2722 
Q 888 2947 1384 2947 
Q 1766 2947 2009 2819 
Q 2194 2722 2281 2516 
Q 2338 2381 2338 1966 
L 2338 994 
Q 2338 584 2353 492 
Q 2369 400 2405 369 
Q 2441 338 2488 338 
Q 2538 338 2575 359 
Q 2641 400 2828 588 
L 2828 413 
Q 2478 -56 2159 -56 
Q 2006 -56 1915 50 
Q 1825 156 1822 413 
z
M 1822 616 
L 1822 1706 
Q 1350 1519 1213 1441 
Q 966 1303 859 1153 
Q 753 1003 753 825 
Q 753 600 887 451 
Q 1022 303 1197 303 
Q 1434 303 1822 616 
z
" transform="scale(0.015625)"/>
       <path id="TimesNewRomanPSMT-72" d="M 1038 2947 
L 1038 2303 
Q 1397 2947 1775 2947 
Q 1947 2947 2059 2842 
Q 2172 2738 2172 2600 
Q 2172 2478 2090 2393 
Q 2009 2309 1897 2309 
Q 1788 2309 1652 2417 
Q 1516 2525 1450 2525 
Q 1394 2525 1328 2463 
Q 1188 2334 1038 2041 
L 1038 669 
Q 1038 431 1097 309 
Q 1138 225 1241 169 
Q 1344 113 1538 113 
L 1538 0 
L 72 0 
L 72 113 
Q 291 113 397 181 
Q 475 231 506 341 
Q 522 394 522 644 
L 522 1753 
Q 522 2253 501 2348 
Q 481 2444 426 2487 
Q 372 2531 291 2531 
Q 194 2531 72 2484 
L 41 2597 
L 906 2947 
L 1038 2947 
z
" transform="scale(0.015625)"/>
      </defs>
      <use xlink:href="#TimesNewRomanPSMT-59"/>
      <use xlink:href="#TimesNewRomanPSMT-65" transform="translate(62.216797 0)"/>
      <use xlink:href="#TimesNewRomanPSMT-61" transform="translate(106.601562 0)"/>
      <use xlink:href="#TimesNewRomanPSMT-72" transform="translate(150.986328 0)"/>
     </g>
    </g>
   </g>
   <g id="patch_3">
    <path d="M 10.091927 314.449375 
L 10.091927 37.249375 
" style="fill: none; stroke: #000000; stroke-width: 0.8; stroke-linejoin: miter; stroke-linecap: square"/>
   </g>
   <g id="patch_4">
    <path d="M 398.891927 314.449375 
L 398.891927 37.249375 
" style="fill: none; stroke: #000000; stroke-width: 0.8; stroke-linejoin: miter; stroke-linecap: square"/>
   </g>
   <g id="patch_5">
    <path d="M 10.091927 314.449375 
L 398.891927 314.449375 
" style="fill: none; stroke: #000000; stroke-width: 0.8; stroke-linejoin: miter; stroke-linecap: square"/>
   </g>
   <g id="patch_6">
    <path d="M 10.091927 37.249375 
L 398.891927 37.249375 
" style="fill: none; stroke: #000000; stroke-width: 0.8; stroke-linejoin: miter; stroke-linecap: square"/>
   </g>
   <g id="text_12">
    <!-- Average Room Price from 1965 to 1974 ($)  -->
    <g transform="translate(80.590833 17.249375) scale(0.14 -0.14)">
     <defs>
      <path id="TimesNewRomanPSMT-41" d="M 2928 1419 
L 1288 1419 
L 1000 750 
Q 894 503 894 381 
Q 894 284 986 211 
Q 1078 138 1384 116 
L 1384 0 
L 50 0 
L 50 116 
Q 316 163 394 238 
Q 553 388 747 847 
L 2238 4334 
L 2347 4334 
L 3822 809 
Q 4000 384 4145 257 
Q 4291 131 4550 116 
L 4550 0 
L 2878 0 
L 2878 116 
Q 3131 128 3220 200 
Q 3309 272 3309 375 
Q 3309 513 3184 809 
L 2928 1419 
z
M 2841 1650 
L 2122 3363 
L 1384 1650 
L 2841 1650 
z
" transform="scale(0.015625)"/>
      <path id="TimesNewRomanPSMT-76" d="M 53 2863 
L 1400 2863 
L 1400 2747 
L 1313 2747 
Q 1191 2747 1127 2687 
Q 1063 2628 1063 2528 
Q 1063 2419 1128 2269 
L 1794 688 
L 2463 2328 
Q 2534 2503 2534 2594 
Q 2534 2638 2509 2666 
Q 2475 2713 2422 2730 
Q 2369 2747 2206 2747 
L 2206 2863 
L 3141 2863 
L 3141 2747 
Q 2978 2734 2916 2681 
Q 2806 2588 2719 2369 
L 1703 -88 
L 1575 -88 
L 553 2328 
Q 484 2497 421 2570 
Q 359 2644 263 2694 
Q 209 2722 53 2747 
L 53 2863 
z
" transform="scale(0.015625)"/>
      <path id="TimesNewRomanPSMT-67" d="M 966 1044 
Q 703 1172 562 1401 
Q 422 1631 422 1909 
Q 422 2334 742 2640 
Q 1063 2947 1563 2947 
Q 1972 2947 2272 2747 
L 2878 2747 
Q 3013 2747 3034 2739 
Q 3056 2731 3066 2713 
Q 3084 2684 3084 2613 
Q 3084 2531 3069 2500 
Q 3059 2484 3036 2475 
Q 3013 2466 2878 2466 
L 2506 2466 
Q 2681 2241 2681 1891 
Q 2681 1491 2375 1206 
Q 2069 922 1553 922 
Q 1341 922 1119 984 
Q 981 866 932 777 
Q 884 688 884 625 
Q 884 572 936 522 
Q 988 472 1138 450 
Q 1225 438 1575 428 
Q 2219 413 2409 384 
Q 2700 344 2873 169 
Q 3047 -6 3047 -263 
Q 3047 -616 2716 -925 
Q 2228 -1381 1444 -1381 
Q 841 -1381 425 -1109 
Q 191 -953 191 -784 
Q 191 -709 225 -634 
Q 278 -519 444 -313 
Q 466 -284 763 25 
Q 600 122 533 198 
Q 466 275 466 372 
Q 466 481 555 628 
Q 644 775 966 1044 
z
M 1509 2797 
Q 1278 2797 1122 2612 
Q 966 2428 966 2047 
Q 966 1553 1178 1281 
Q 1341 1075 1591 1075 
Q 1828 1075 1981 1253 
Q 2134 1431 2134 1813 
Q 2134 2309 1919 2591 
Q 1759 2797 1509 2797 
z
M 934 0 
Q 788 -159 713 -296 
Q 638 -434 638 -550 
Q 638 -700 819 -813 
Q 1131 -1006 1722 -1006 
Q 2284 -1006 2551 -807 
Q 2819 -609 2819 -384 
Q 2819 -222 2659 -153 
Q 2497 -84 2016 -72 
Q 1313 -53 934 0 
z
" transform="scale(0.015625)"/>
      <path id="TimesNewRomanPSMT-20" transform="scale(0.015625)"/>
      <path id="TimesNewRomanPSMT-52" d="M 4325 0 
L 3194 0 
L 1759 1981 
Q 1600 1975 1500 1975 
Q 1459 1975 1412 1976 
Q 1366 1978 1316 1981 
L 1316 750 
Q 1316 350 1403 253 
Q 1522 116 1759 116 
L 1925 116 
L 1925 0 
L 109 0 
L 109 116 
L 269 116 
Q 538 116 653 291 
Q 719 388 719 750 
L 719 3488 
Q 719 3888 631 3984 
Q 509 4122 269 4122 
L 109 4122 
L 109 4238 
L 1653 4238 
Q 2328 4238 2648 4139 
Q 2969 4041 3192 3777 
Q 3416 3513 3416 3147 
Q 3416 2756 3161 2468 
Q 2906 2181 2372 2063 
L 3247 847 
Q 3547 428 3762 290 
Q 3978 153 4325 116 
L 4325 0 
z
M 1316 2178 
Q 1375 2178 1419 2176 
Q 1463 2175 1491 2175 
Q 2097 2175 2405 2437 
Q 2713 2700 2713 3106 
Q 2713 3503 2464 3751 
Q 2216 4000 1806 4000 
Q 1625 4000 1316 3941 
L 1316 2178 
z
" transform="scale(0.015625)"/>
      <path id="TimesNewRomanPSMT-6f" d="M 1600 2947 
Q 2250 2947 2644 2453 
Q 2978 2031 2978 1484 
Q 2978 1100 2793 706 
Q 2609 313 2286 112 
Q 1963 -88 1566 -88 
Q 919 -88 538 428 
Q 216 863 216 1403 
Q 216 1797 411 2186 
Q 606 2575 925 2761 
Q 1244 2947 1600 2947 
z
M 1503 2744 
Q 1338 2744 1170 2645 
Q 1003 2547 900 2300 
Q 797 2053 797 1666 
Q 797 1041 1045 587 
Q 1294 134 1700 134 
Q 2003 134 2200 384 
Q 2397 634 2397 1244 
Q 2397 2006 2069 2444 
Q 1847 2744 1503 2744 
z
" transform="scale(0.015625)"/>
      <path id="TimesNewRomanPSMT-6d" d="M 1050 2338 
Q 1363 2650 1419 2697 
Q 1559 2816 1721 2881 
Q 1884 2947 2044 2947 
Q 2313 2947 2506 2790 
Q 2700 2634 2766 2338 
Q 3088 2713 3309 2830 
Q 3531 2947 3766 2947 
Q 3994 2947 4170 2830 
Q 4347 2713 4450 2447 
Q 4519 2266 4519 1878 
L 4519 647 
Q 4519 378 4559 278 
Q 4591 209 4675 161 
Q 4759 113 4950 113 
L 4950 0 
L 3538 0 
L 3538 113 
L 3597 113 
Q 3781 113 3884 184 
Q 3956 234 3988 344 
Q 4000 397 4000 647 
L 4000 1878 
Q 4000 2228 3916 2372 
Q 3794 2572 3525 2572 
Q 3359 2572 3192 2489 
Q 3025 2406 2788 2181 
L 2781 2147 
L 2788 2013 
L 2788 647 
Q 2788 353 2820 281 
Q 2853 209 2943 161 
Q 3034 113 3253 113 
L 3253 0 
L 1806 0 
L 1806 113 
Q 2044 113 2133 169 
Q 2222 225 2256 338 
Q 2272 391 2272 647 
L 2272 1878 
Q 2272 2228 2169 2381 
Q 2031 2581 1784 2581 
Q 1616 2581 1450 2491 
Q 1191 2353 1050 2181 
L 1050 647 
Q 1050 366 1089 281 
Q 1128 197 1204 155 
Q 1281 113 1516 113 
L 1516 0 
L 100 0 
L 100 113 
Q 297 113 375 155 
Q 453 197 493 289 
Q 534 381 534 647 
L 534 1741 
Q 534 2213 506 2350 
Q 484 2453 437 2492 
Q 391 2531 309 2531 
Q 222 2531 100 2484 
L 53 2597 
L 916 2947 
L 1050 2947 
L 1050 2338 
z
" transform="scale(0.015625)"/>
      <path id="TimesNewRomanPSMT-50" d="M 1313 1984 
L 1313 750 
Q 1313 350 1400 253 
Q 1519 116 1759 116 
L 1922 116 
L 1922 0 
L 106 0 
L 106 116 
L 266 116 
Q 534 116 650 291 
Q 713 388 713 750 
L 713 3488 
Q 713 3888 628 3984 
Q 506 4122 266 4122 
L 106 4122 
L 106 4238 
L 1659 4238 
Q 2228 4238 2556 4120 
Q 2884 4003 3109 3725 
Q 3334 3447 3334 3066 
Q 3334 2547 2992 2222 
Q 2650 1897 2025 1897 
Q 1872 1897 1694 1919 
Q 1516 1941 1313 1984 
z
M 1313 2163 
Q 1478 2131 1606 2115 
Q 1734 2100 1825 2100 
Q 2150 2100 2386 2351 
Q 2622 2603 2622 3003 
Q 2622 3278 2509 3514 
Q 2397 3750 2190 3867 
Q 1984 3984 1722 3984 
Q 1563 3984 1313 3925 
L 1313 2163 
z
" transform="scale(0.015625)"/>
      <path id="TimesNewRomanPSMT-69" d="M 928 4444 
Q 1059 4444 1151 4351 
Q 1244 4259 1244 4128 
Q 1244 3997 1151 3903 
Q 1059 3809 928 3809 
Q 797 3809 703 3903 
Q 609 3997 609 4128 
Q 609 4259 701 4351 
Q 794 4444 928 4444 
z
M 1188 2947 
L 1188 647 
Q 1188 378 1227 289 
Q 1266 200 1342 156 
Q 1419 113 1622 113 
L 1622 0 
L 231 0 
L 231 113 
Q 441 113 512 153 
Q 584 194 626 287 
Q 669 381 669 647 
L 669 1750 
Q 669 2216 641 2353 
Q 619 2453 572 2492 
Q 525 2531 444 2531 
Q 356 2531 231 2484 
L 188 2597 
L 1050 2947 
L 1188 2947 
z
" transform="scale(0.015625)"/>
      <path id="TimesNewRomanPSMT-63" d="M 2631 1088 
Q 2516 522 2178 217 
Q 1841 -88 1431 -88 
Q 944 -88 581 321 
Q 219 731 219 1428 
Q 219 2103 620 2525 
Q 1022 2947 1584 2947 
Q 2006 2947 2278 2723 
Q 2550 2500 2550 2259 
Q 2550 2141 2473 2067 
Q 2397 1994 2259 1994 
Q 2075 1994 1981 2113 
Q 1928 2178 1911 2362 
Q 1894 2547 1784 2644 
Q 1675 2738 1481 2738 
Q 1169 2738 978 2506 
Q 725 2200 725 1697 
Q 725 1184 976 792 
Q 1228 400 1656 400 
Q 1963 400 2206 609 
Q 2378 753 2541 1131 
L 2631 1088 
z
" transform="scale(0.015625)"/>
      <path id="TimesNewRomanPSMT-66" d="M 1319 2638 
L 1319 756 
Q 1319 356 1406 250 
Q 1522 113 1716 113 
L 1975 113 
L 1975 0 
L 266 0 
L 266 113 
L 394 113 
Q 519 113 622 175 
Q 725 238 764 344 
Q 803 450 803 756 
L 803 2638 
L 247 2638 
L 247 2863 
L 803 2863 
L 803 3050 
Q 803 3478 940 3775 
Q 1078 4072 1361 4255 
Q 1644 4438 1997 4438 
Q 2325 4438 2600 4225 
Q 2781 4084 2781 3909 
Q 2781 3816 2700 3733 
Q 2619 3650 2525 3650 
Q 2453 3650 2373 3701 
Q 2294 3753 2178 3923 
Q 2063 4094 1966 4153 
Q 1869 4213 1750 4213 
Q 1606 4213 1506 4136 
Q 1406 4059 1362 3898 
Q 1319 3738 1319 3069 
L 1319 2863 
L 2056 2863 
L 2056 2638 
L 1319 2638 
z
" transform="scale(0.015625)"/>
      <path id="TimesNewRomanPSMT-74" d="M 1031 3803 
L 1031 2863 
L 1700 2863 
L 1700 2644 
L 1031 2644 
L 1031 788 
Q 1031 509 1111 412 
Q 1191 316 1316 316 
Q 1419 316 1516 380 
Q 1613 444 1666 569 
L 1788 569 
Q 1678 263 1478 108 
Q 1278 -47 1066 -47 
Q 922 -47 784 33 
Q 647 113 581 261 
Q 516 409 516 719 
L 516 2644 
L 63 2644 
L 63 2747 
Q 234 2816 414 2980 
Q 594 3144 734 3369 
Q 806 3488 934 3803 
L 1031 3803 
z
" transform="scale(0.015625)"/>
      <path id="TimesNewRomanPSMT-28" d="M 1988 -1253 
L 1988 -1369 
Q 1516 -1131 1200 -813 
Q 750 -359 506 256 
Q 263 872 263 1534 
Q 263 2503 741 3301 
Q 1219 4100 1988 4444 
L 1988 4313 
Q 1603 4100 1356 3731 
Q 1109 3363 987 2797 
Q 866 2231 866 1616 
Q 866 947 969 400 
Q 1050 -31 1165 -292 
Q 1281 -553 1476 -793 
Q 1672 -1034 1988 -1253 
z
" transform="scale(0.015625)"/>
      <path id="TimesNewRomanPSMT-24" d="M 338 1044 
L 475 1044 
Q 509 616 743 387 
Q 978 159 1444 116 
L 1444 1941 
Q 741 2375 506 2709 
Q 341 2947 341 3288 
Q 341 3672 627 3959 
Q 913 4247 1444 4306 
L 1444 4594 
L 1644 4594 
L 1644 4306 
Q 1900 4291 2075 4247 
Q 2166 4225 2675 4031 
L 2675 3097 
L 2553 3097 
Q 2513 3594 2295 3823 
Q 2078 4053 1644 4097 
L 1644 2509 
Q 2431 1959 2654 1698 
Q 2878 1438 2878 1050 
Q 2878 619 2551 290 
Q 2225 -38 1644 -88 
L 1644 -488 
L 1444 -488 
L 1444 -88 
Q 1150 -75 897 -20 
Q 644 34 338 159 
L 338 1044 
z
M 1444 2641 
L 1444 4094 
Q 1131 4056 979 3895 
Q 828 3734 828 3491 
Q 828 3263 965 3064 
Q 1103 2866 1444 2641 
z
M 1644 116 
Q 1878 156 2003 231 
Q 2178 341 2279 517 
Q 2381 694 2381 894 
Q 2381 1100 2257 1284 
Q 2134 1469 1644 1806 
L 1644 116 
z
" transform="scale(0.015625)"/>
      <path id="TimesNewRomanPSMT-29" d="M 144 4313 
L 144 4444 
Q 619 4209 934 3891 
Q 1381 3434 1625 2820 
Q 1869 2206 1869 1541 
Q 1869 572 1392 -226 
Q 916 -1025 144 -1369 
L 144 -1253 
Q 528 -1038 776 -670 
Q 1025 -303 1145 264 
Q 1266 831 1266 1447 
Q 1266 2113 1163 2663 
Q 1084 3094 967 3353 
Q 850 3613 656 3853 
Q 463 4094 144 4313 
z
" transform="scale(0.015625)"/>
     </defs>
     <use xlink:href="#TimesNewRomanPSMT-41"/>
     <use xlink:href="#TimesNewRomanPSMT-76" transform="translate(64.841797 0)"/>
     <use xlink:href="#TimesNewRomanPSMT-65" transform="translate(114.841797 0)"/>
     <use xlink:href="#TimesNewRomanPSMT-72" transform="translate(159.226562 0)"/>
     <use xlink:href="#TimesNewRomanPSMT-61" transform="translate(192.527344 0)"/>
     <use xlink:href="#TimesNewRomanPSMT-67" transform="translate(236.912109 0)"/>
     <use xlink:href="#TimesNewRomanPSMT-65" transform="translate(286.912109 0)"/>
     <use xlink:href="#TimesNewRomanPSMT-20" transform="translate(331.296875 0)"/>
     <use xlink:href="#TimesNewRomanPSMT-52" transform="translate(356.296875 0)"/>
     <use xlink:href="#TimesNewRomanPSMT-6f" transform="translate(422.996094 0)"/>
     <use xlink:href="#TimesNewRomanPSMT-6f" transform="translate(472.996094 0)"/>
     <use xlink:href="#TimesNewRomanPSMT-6d" transform="translate(522.996094 0)"/>
     <use xlink:href="#TimesNewRomanPSMT-20" transform="translate(600.779297 0)"/>
     <use xlink:href="#TimesNewRomanPSMT-50" transform="translate(625.779297 0)"/>
     <use xlink:href="#TimesNewRomanPSMT-72" transform="translate(681.394531 0)"/>
     <use xlink:href="#TimesNewRomanPSMT-69" transform="translate(714.695312 0)"/>
     <use xlink:href="#TimesNewRomanPSMT-63" transform="translate(742.478516 0)"/>
     <use xlink:href="#TimesNewRomanPSMT-65" transform="translate(786.863281 0)"/>
     <use xlink:href="#TimesNewRomanPSMT-20" transform="translate(831.248047 0)"/>
     <use xlink:href="#TimesNewRomanPSMT-66" transform="translate(856.248047 0)"/>
     <use xlink:href="#TimesNewRomanPSMT-72" transform="translate(889.548828 0)"/>
     <use xlink:href="#TimesNewRomanPSMT-6f" transform="translate(922.849609 0)"/>
     <use xlink:href="#TimesNewRomanPSMT-6d" transform="translate(972.849609 0)"/>
     <use xlink:href="#TimesNewRomanPSMT-20" transform="translate(1050.632812 0)"/>
     <use xlink:href="#TimesNewRomanPSMT-31" transform="translate(1075.632812 0)"/>
     <use xlink:href="#TimesNewRomanPSMT-39" transform="translate(1125.632812 0)"/>
     <use xlink:href="#TimesNewRomanPSMT-36" transform="translate(1175.632812 0)"/>
     <use xlink:href="#TimesNewRomanPSMT-35" transform="translate(1225.632812 0)"/>
     <use xlink:href="#TimesNewRomanPSMT-20" transform="translate(1275.632812 0)"/>
     <use xlink:href="#TimesNewRomanPSMT-74" transform="translate(1300.632812 0)"/>
     <use xlink:href="#TimesNewRomanPSMT-6f" transform="translate(1328.416016 0)"/>
     <use xlink:href="#TimesNewRomanPSMT-20" transform="translate(1378.416016 0)"/>
     <use xlink:href="#TimesNewRomanPSMT-31" transform="translate(1403.416016 0)"/>
     <use xlink:href="#TimesNewRomanPSMT-39" transform="translate(1453.416016 0)"/>
     <use xlink:href="#TimesNewRomanPSMT-37" transform="translate(1503.416016 0)"/>
     <use xlink:href="#TimesNewRomanPSMT-34" transform="translate(1553.416016 0)"/>
     <use xlink:href="#TimesNewRomanPSMT-20" transform="translate(1603.416016 0)"/>
     <use xlink:href="#TimesNewRomanPSMT-28" transform="translate(1628.416016 0)"/>
     <use xlink:href="#TimesNewRomanPSMT-24" transform="translate(1661.716797 0)"/>
     <use xlink:href="#TimesNewRomanPSMT-29" transform="translate(1711.716797 0)"/>
     <use xlink:href="#TimesNewRomanPSMT-20" transform="translate(1745.017578 0)"/>
    </g>
   </g>
   <g id="legend_1">
    <g id="patch_7">
     <path d="M 415.667927 135.834531 
L 435.667927 135.834531 
L 435.667927 128.834531 
L 415.667927 128.834531 
z
" style="fill: #1f77b4"/>
    </g>
    <g id="text_13">
     <!-- Treehouse Retreats -->
     <g transform="translate(443.667927 135.834531) scale(0.1 -0.1)">
      <defs>
       <path id="TimesNewRomanPSMT-54" d="M 3703 4238 
L 3750 3244 
L 3631 3244 
Q 3597 3506 3538 3619 
Q 3441 3800 3280 3886 
Q 3119 3972 2856 3972 
L 2259 3972 
L 2259 734 
Q 2259 344 2344 247 
Q 2463 116 2709 116 
L 2856 116 
L 2856 0 
L 1059 0 
L 1059 116 
L 1209 116 
Q 1478 116 1591 278 
Q 1659 378 1659 734 
L 1659 3972 
L 1150 3972 
Q 853 3972 728 3928 
Q 566 3869 450 3700 
Q 334 3531 313 3244 
L 194 3244 
L 244 4238 
L 3703 4238 
z
" transform="scale(0.015625)"/>
       <path id="TimesNewRomanPSMT-68" d="M 1041 4444 
L 1041 2350 
Q 1388 2731 1591 2839 
Q 1794 2947 1997 2947 
Q 2241 2947 2416 2812 
Q 2591 2678 2675 2391 
Q 2734 2191 2734 1659 
L 2734 647 
Q 2734 375 2778 275 
Q 2809 200 2884 156 
Q 2959 113 3159 113 
L 3159 0 
L 1753 0 
L 1753 113 
L 1819 113 
Q 2019 113 2097 173 
Q 2175 234 2206 353 
Q 2216 403 2216 647 
L 2216 1659 
Q 2216 2128 2167 2275 
Q 2119 2422 2012 2495 
Q 1906 2569 1756 2569 
Q 1603 2569 1437 2487 
Q 1272 2406 1041 2159 
L 1041 647 
Q 1041 353 1073 281 
Q 1106 209 1195 161 
Q 1284 113 1503 113 
L 1503 0 
L 84 0 
L 84 113 
Q 275 113 384 172 
Q 447 203 484 290 
Q 522 378 522 647 
L 522 3238 
Q 522 3728 498 3840 
Q 475 3953 426 3993 
Q 378 4034 297 4034 
Q 231 4034 84 3984 
L 41 4094 
L 897 4444 
L 1041 4444 
z
" transform="scale(0.015625)"/>
       <path id="TimesNewRomanPSMT-75" d="M 2709 2863 
L 2709 1128 
Q 2709 631 2732 520 
Q 2756 409 2807 365 
Q 2859 322 2928 322 
Q 3025 322 3147 375 
L 3191 266 
L 2334 -88 
L 2194 -88 
L 2194 519 
Q 1825 119 1631 15 
Q 1438 -88 1222 -88 
Q 981 -88 804 51 
Q 628 191 559 409 
Q 491 628 491 1028 
L 491 2306 
Q 491 2509 447 2587 
Q 403 2666 317 2708 
Q 231 2750 6 2747 
L 6 2863 
L 1009 2863 
L 1009 947 
Q 1009 547 1148 422 
Q 1288 297 1484 297 
Q 1619 297 1789 381 
Q 1959 466 2194 703 
L 2194 2325 
Q 2194 2569 2105 2655 
Q 2016 2741 1734 2747 
L 1734 2863 
L 2709 2863 
z
" transform="scale(0.015625)"/>
       <path id="TimesNewRomanPSMT-73" d="M 2050 2947 
L 2050 1972 
L 1947 1972 
Q 1828 2431 1642 2597 
Q 1456 2763 1169 2763 
Q 950 2763 815 2647 
Q 681 2531 681 2391 
Q 681 2216 781 2091 
Q 878 1963 1175 1819 
L 1631 1597 
Q 2266 1288 2266 781 
Q 2266 391 1970 151 
Q 1675 -88 1309 -88 
Q 1047 -88 709 6 
Q 606 38 541 38 
Q 469 38 428 -44 
L 325 -44 
L 325 978 
L 428 978 
Q 516 541 762 319 
Q 1009 97 1316 97 
Q 1531 97 1667 223 
Q 1803 350 1803 528 
Q 1803 744 1651 891 
Q 1500 1038 1047 1263 
Q 594 1488 453 1669 
Q 313 1847 313 2119 
Q 313 2472 555 2709 
Q 797 2947 1181 2947 
Q 1350 2947 1591 2875 
Q 1750 2828 1803 2828 
Q 1853 2828 1881 2850 
Q 1909 2872 1947 2947 
L 2050 2947 
z
" transform="scale(0.015625)"/>
      </defs>
      <use xlink:href="#TimesNewRomanPSMT-54"/>
      <use xlink:href="#TimesNewRomanPSMT-72" transform="translate(57.583984 0)"/>
      <use xlink:href="#TimesNewRomanPSMT-65" transform="translate(90.884766 0)"/>
      <use xlink:href="#TimesNewRomanPSMT-65" transform="translate(135.269531 0)"/>
      <use xlink:href="#TimesNewRomanPSMT-68" transform="translate(179.654297 0)"/>
      <use xlink:href="#TimesNewRomanPSMT-6f" transform="translate(229.654297 0)"/>
      <use xlink:href="#TimesNewRomanPSMT-75" transform="translate(279.654297 0)"/>
      <use xlink:href="#TimesNewRomanPSMT-73" transform="translate(329.654297 0)"/>
      <use xlink:href="#TimesNewRomanPSMT-65" transform="translate(368.570312 0)"/>
      <use xlink:href="#TimesNewRomanPSMT-20" transform="translate(412.955078 0)"/>
      <use xlink:href="#TimesNewRomanPSMT-52" transform="translate(437.955078 0)"/>
      <use xlink:href="#TimesNewRomanPSMT-65" transform="translate(504.654297 0)"/>
      <use xlink:href="#TimesNewRomanPSMT-74" transform="translate(549.039062 0)"/>
      <use xlink:href="#TimesNewRomanPSMT-72" transform="translate(576.822266 0)"/>
      <use xlink:href="#TimesNewRomanPSMT-65" transform="translate(610.123047 0)"/>
      <use xlink:href="#TimesNewRomanPSMT-61" transform="translate(654.507812 0)"/>
      <use xlink:href="#TimesNewRomanPSMT-74" transform="translate(698.892578 0)"/>
      <use xlink:href="#TimesNewRomanPSMT-73" transform="translate(726.675781 0)"/>
     </g>
    </g>
    <g id="patch_8">
     <path d="M 415.667927 149.973594 
L 435.667927 149.973594 
L 435.667927 142.973594 
L 415.667927 142.973594 
z
" style="fill: #aec7e8"/>
    </g>
    <g id="text_14">
     <!-- Beachfront Villas -->
     <g transform="translate(443.667927 149.973594) scale(0.1 -0.1)">
      <defs>
       <path id="TimesNewRomanPSMT-42" d="M 2956 2163 
Q 3397 2069 3616 1863 
Q 3919 1575 3919 1159 
Q 3919 844 3719 555 
Q 3519 266 3170 133 
Q 2822 0 2106 0 
L 106 0 
L 106 116 
L 266 116 
Q 531 116 647 284 
Q 719 394 719 750 
L 719 3488 
Q 719 3881 628 3984 
Q 506 4122 266 4122 
L 106 4122 
L 106 4238 
L 1938 4238 
Q 2450 4238 2759 4163 
Q 3228 4050 3475 3764 
Q 3722 3478 3722 3106 
Q 3722 2788 3528 2536 
Q 3334 2284 2956 2163 
z
M 1319 2331 
Q 1434 2309 1582 2298 
Q 1731 2288 1909 2288 
Q 2366 2288 2595 2386 
Q 2825 2484 2947 2687 
Q 3069 2891 3069 3131 
Q 3069 3503 2766 3765 
Q 2463 4028 1881 4028 
Q 1569 4028 1319 3959 
L 1319 2331 
z
M 1319 306 
Q 1681 222 2034 222 
Q 2600 222 2897 476 
Q 3194 731 3194 1106 
Q 3194 1353 3059 1581 
Q 2925 1809 2622 1940 
Q 2319 2072 1872 2072 
Q 1678 2072 1540 2065 
Q 1403 2059 1319 2044 
L 1319 306 
z
" transform="scale(0.015625)"/>
       <path id="TimesNewRomanPSMT-6e" d="M 1034 2341 
Q 1538 2947 1994 2947 
Q 2228 2947 2397 2830 
Q 2566 2713 2666 2444 
Q 2734 2256 2734 1869 
L 2734 647 
Q 2734 375 2778 278 
Q 2813 200 2889 156 
Q 2966 113 3172 113 
L 3172 0 
L 1756 0 
L 1756 113 
L 1816 113 
Q 2016 113 2095 173 
Q 2175 234 2206 353 
Q 2219 400 2219 647 
L 2219 1819 
Q 2219 2209 2117 2386 
Q 2016 2563 1775 2563 
Q 1403 2563 1034 2156 
L 1034 647 
Q 1034 356 1069 288 
Q 1113 197 1189 155 
Q 1266 113 1500 113 
L 1500 0 
L 84 0 
L 84 113 
L 147 113 
Q 366 113 442 223 
Q 519 334 519 647 
L 519 1709 
Q 519 2225 495 2337 
Q 472 2450 423 2490 
Q 375 2531 294 2531 
Q 206 2531 84 2484 
L 38 2597 
L 900 2947 
L 1034 2947 
L 1034 2341 
z
" transform="scale(0.015625)"/>
       <path id="TimesNewRomanPSMT-56" d="M 4544 4238 
L 4544 4122 
Q 4319 4081 4203 3978 
Q 4038 3825 3909 3509 
L 2431 -97 
L 2316 -97 
L 728 3556 
Q 606 3838 556 3900 
Q 478 3997 364 4051 
Q 250 4106 56 4122 
L 56 4238 
L 1788 4238 
L 1788 4122 
Q 1494 4094 1406 4022 
Q 1319 3950 1319 3838 
Q 1319 3681 1463 3350 
L 2541 866 
L 3541 3319 
Q 3688 3681 3688 3822 
Q 3688 3913 3597 3995 
Q 3506 4078 3291 4113 
Q 3275 4116 3238 4122 
L 3238 4238 
L 4544 4238 
z
" transform="scale(0.015625)"/>
       <path id="TimesNewRomanPSMT-6c" d="M 1184 4444 
L 1184 647 
Q 1184 378 1223 290 
Q 1263 203 1344 158 
Q 1425 113 1647 113 
L 1647 0 
L 244 0 
L 244 113 
Q 441 113 512 153 
Q 584 194 625 287 
Q 666 381 666 647 
L 666 3247 
Q 666 3731 644 3842 
Q 622 3953 573 3993 
Q 525 4034 450 4034 
Q 369 4034 244 3984 
L 191 4094 
L 1044 4444 
L 1184 4444 
z
" transform="scale(0.015625)"/>
      </defs>
      <use xlink:href="#TimesNewRomanPSMT-42"/>
      <use xlink:href="#TimesNewRomanPSMT-65" transform="translate(66.699219 0)"/>
      <use xlink:href="#TimesNewRomanPSMT-61" transform="translate(111.083984 0)"/>
      <use xlink:href="#TimesNewRomanPSMT-63" transform="translate(155.46875 0)"/>
      <use xlink:href="#TimesNewRomanPSMT-68" transform="translate(199.853516 0)"/>
      <use xlink:href="#TimesNewRomanPSMT-66" transform="translate(249.853516 0)"/>
      <use xlink:href="#TimesNewRomanPSMT-72" transform="translate(283.154297 0)"/>
      <use xlink:href="#TimesNewRomanPSMT-6f" transform="translate(316.455078 0)"/>
      <use xlink:href="#TimesNewRomanPSMT-6e" transform="translate(366.455078 0)"/>
      <use xlink:href="#TimesNewRomanPSMT-74" transform="translate(416.455078 0)"/>
      <use xlink:href="#TimesNewRomanPSMT-20" transform="translate(444.238281 0)"/>
      <use xlink:href="#TimesNewRomanPSMT-56" transform="translate(467.488281 0)"/>
      <use xlink:href="#TimesNewRomanPSMT-69" transform="translate(533.705078 0)"/>
      <use xlink:href="#TimesNewRomanPSMT-6c" transform="translate(561.488281 0)"/>
      <use xlink:href="#TimesNewRomanPSMT-6c" transform="translate(589.271484 0)"/>
      <use xlink:href="#TimesNewRomanPSMT-61" transform="translate(617.054688 0)"/>
      <use xlink:href="#TimesNewRomanPSMT-73" transform="translate(661.439453 0)"/>
     </g>
    </g>
    <g id="patch_9">
     <path d="M 415.667927 164.112656 
L 435.667927 164.112656 
L 435.667927 157.112656 
L 415.667927 157.112656 
z
" style="fill: #ff7f0e"/>
    </g>
    <g id="text_15">
     <!-- Cruise Ships -->
     <g transform="translate(443.667927 164.112656) scale(0.1 -0.1)">
      <defs>
       <path id="TimesNewRomanPSMT-43" d="M 3853 4334 
L 3950 2894 
L 3853 2894 
Q 3659 3541 3300 3825 
Q 2941 4109 2438 4109 
Q 2016 4109 1675 3895 
Q 1334 3681 1139 3212 
Q 944 2744 944 2047 
Q 944 1472 1128 1050 
Q 1313 628 1683 403 
Q 2053 178 2528 178 
Q 2941 178 3256 354 
Q 3572 531 3950 1056 
L 4047 994 
Q 3728 428 3303 165 
Q 2878 -97 2294 -97 
Q 1241 -97 663 684 
Q 231 1266 231 2053 
Q 231 2688 515 3219 
Q 800 3750 1298 4042 
Q 1797 4334 2388 4334 
Q 2847 4334 3294 4109 
Q 3425 4041 3481 4041 
Q 3566 4041 3628 4100 
Q 3709 4184 3744 4334 
L 3853 4334 
z
" transform="scale(0.015625)"/>
       <path id="TimesNewRomanPSMT-53" d="M 2934 4334 
L 2934 2869 
L 2819 2869 
Q 2763 3291 2617 3541 
Q 2472 3791 2203 3937 
Q 1934 4084 1647 4084 
Q 1322 4084 1109 3886 
Q 897 3688 897 3434 
Q 897 3241 1031 3081 
Q 1225 2847 1953 2456 
Q 2547 2138 2764 1967 
Q 2981 1797 3098 1565 
Q 3216 1334 3216 1081 
Q 3216 600 2842 251 
Q 2469 -97 1881 -97 
Q 1697 -97 1534 -69 
Q 1438 -53 1133 45 
Q 828 144 747 144 
Q 669 144 623 97 
Q 578 50 556 -97 
L 441 -97 
L 441 1356 
L 556 1356 
Q 638 900 775 673 
Q 913 447 1195 297 
Q 1478 147 1816 147 
Q 2206 147 2432 353 
Q 2659 559 2659 841 
Q 2659 997 2573 1156 
Q 2488 1316 2306 1453 
Q 2184 1547 1640 1851 
Q 1097 2156 867 2337 
Q 638 2519 519 2737 
Q 400 2956 400 3219 
Q 400 3675 750 4004 
Q 1100 4334 1641 4334 
Q 1978 4334 2356 4169 
Q 2531 4091 2603 4091 
Q 2684 4091 2736 4139 
Q 2788 4188 2819 4334 
L 2934 4334 
z
" transform="scale(0.015625)"/>
       <path id="TimesNewRomanPSMT-70" d="M -6 2578 
L 875 2934 
L 994 2934 
L 994 2266 
Q 1216 2644 1439 2795 
Q 1663 2947 1909 2947 
Q 2341 2947 2628 2609 
Q 2981 2197 2981 1534 
Q 2981 794 2556 309 
Q 2206 -88 1675 -88 
Q 1444 -88 1275 -22 
Q 1150 25 994 166 
L 994 -706 
Q 994 -1000 1030 -1079 
Q 1066 -1159 1155 -1206 
Q 1244 -1253 1478 -1253 
L 1478 -1369 
L -22 -1369 
L -22 -1253 
L 56 -1253 
Q 228 -1256 350 -1188 
Q 409 -1153 442 -1076 
Q 475 -1000 475 -688 
L 475 2019 
Q 475 2297 450 2372 
Q 425 2447 370 2484 
Q 316 2522 222 2522 
Q 147 2522 31 2478 
L -6 2578 
z
M 994 2081 
L 994 1013 
Q 994 666 1022 556 
Q 1066 375 1236 237 
Q 1406 100 1666 100 
Q 1978 100 2172 344 
Q 2425 663 2425 1241 
Q 2425 1897 2138 2250 
Q 1938 2494 1663 2494 
Q 1513 2494 1366 2419 
Q 1253 2363 994 2081 
z
" transform="scale(0.015625)"/>
      </defs>
      <use xlink:href="#TimesNewRomanPSMT-43"/>
      <use xlink:href="#TimesNewRomanPSMT-72" transform="translate(66.699219 0)"/>
      <use xlink:href="#TimesNewRomanPSMT-75" transform="translate(100 0)"/>
      <use xlink:href="#TimesNewRomanPSMT-69" transform="translate(150 0)"/>
      <use xlink:href="#TimesNewRomanPSMT-73" transform="translate(177.783203 0)"/>
      <use xlink:href="#TimesNewRomanPSMT-65" transform="translate(216.699219 0)"/>
      <use xlink:href="#TimesNewRomanPSMT-20" transform="translate(261.083984 0)"/>
      <use xlink:href="#TimesNewRomanPSMT-53" transform="translate(286.083984 0)"/>
      <use xlink:href="#TimesNewRomanPSMT-68" transform="translate(341.699219 0)"/>
      <use xlink:href="#TimesNewRomanPSMT-69" transform="translate(391.699219 0)"/>
      <use xlink:href="#TimesNewRomanPSMT-70" transform="translate(419.482422 0)"/>
      <use xlink:href="#TimesNewRomanPSMT-73" transform="translate(469.482422 0)"/>
     </g>
    </g>
    <g id="patch_10">
     <path d="M 415.667927 178.251719 
L 435.667927 178.251719 
L 435.667927 171.251719 
L 415.667927 171.251719 
z
" style="fill: #ffbb78"/>
    </g>
    <g id="text_16">
     <!-- Glamping Sites -->
     <g transform="translate(443.667927 178.251719) scale(0.1 -0.1)">
      <defs>
       <path id="TimesNewRomanPSMT-47" d="M 3928 4334 
L 4038 2997 
L 3928 2997 
Q 3763 3497 3500 3750 
Q 3122 4116 2528 4116 
Q 1719 4116 1297 3475 
Q 944 2934 944 2188 
Q 944 1581 1178 1081 
Q 1413 581 1792 348 
Q 2172 116 2572 116 
Q 2806 116 3025 175 
Q 3244 234 3447 350 
L 3447 1575 
Q 3447 1894 3398 1992 
Q 3350 2091 3248 2142 
Q 3147 2194 2891 2194 
L 2891 2313 
L 4531 2313 
L 4531 2194 
L 4453 2194 
Q 4209 2194 4119 2031 
Q 4056 1916 4056 1575 
L 4056 278 
Q 3697 84 3347 -6 
Q 2997 -97 2569 -97 
Q 1341 -97 703 691 
Q 225 1281 225 2053 
Q 225 2613 494 3125 
Q 813 3734 1369 4063 
Q 1834 4334 2469 4334 
Q 2700 4334 2889 4296 
Q 3078 4259 3425 4131 
Q 3600 4066 3659 4066 
Q 3719 4066 3761 4120 
Q 3803 4175 3813 4334 
L 3928 4334 
z
" transform="scale(0.015625)"/>
      </defs>
      <use xlink:href="#TimesNewRomanPSMT-47"/>
      <use xlink:href="#TimesNewRomanPSMT-6c" transform="translate(72.216797 0)"/>
      <use xlink:href="#TimesNewRomanPSMT-61" transform="translate(100 0)"/>
      <use xlink:href="#TimesNewRomanPSMT-6d" transform="translate(144.384766 0)"/>
      <use xlink:href="#TimesNewRomanPSMT-70" transform="translate(222.167969 0)"/>
      <use xlink:href="#TimesNewRomanPSMT-69" transform="translate(272.167969 0)"/>
      <use xlink:href="#TimesNewRomanPSMT-6e" transform="translate(299.951172 0)"/>
      <use xlink:href="#TimesNewRomanPSMT-67" transform="translate(349.951172 0)"/>
      <use xlink:href="#TimesNewRomanPSMT-20" transform="translate(399.951172 0)"/>
      <use xlink:href="#TimesNewRomanPSMT-53" transform="translate(424.951172 0)"/>
      <use xlink:href="#TimesNewRomanPSMT-69" transform="translate(480.566406 0)"/>
      <use xlink:href="#TimesNewRomanPSMT-74" transform="translate(508.349609 0)"/>
      <use xlink:href="#TimesNewRomanPSMT-65" transform="translate(536.132812 0)"/>
      <use xlink:href="#TimesNewRomanPSMT-73" transform="translate(580.517578 0)"/>
     </g>
    </g>
    <g id="patch_11">
     <path d="M 415.667927 192.409531 
L 435.667927 192.409531 
L 435.667927 185.409531 
L 415.667927 185.409531 
z
" style="fill: #2ca02c"/>
    </g>
    <g id="text_17">
     <!-- City Center Hotels -->
     <g transform="translate(443.667927 192.409531) scale(0.1 -0.1)">
      <defs>
       <path id="TimesNewRomanPSMT-79" d="M 38 2863 
L 1372 2863 
L 1372 2747 
L 1306 2747 
Q 1166 2747 1095 2686 
Q 1025 2625 1025 2534 
Q 1025 2413 1128 2197 
L 1825 753 
L 2466 2334 
Q 2519 2463 2519 2588 
Q 2519 2644 2497 2672 
Q 2472 2706 2419 2726 
Q 2366 2747 2231 2747 
L 2231 2863 
L 3163 2863 
L 3163 2747 
Q 3047 2734 2984 2696 
Q 2922 2659 2847 2556 
Q 2819 2513 2741 2316 
L 1575 -541 
Q 1406 -956 1132 -1168 
Q 859 -1381 606 -1381 
Q 422 -1381 303 -1275 
Q 184 -1169 184 -1031 
Q 184 -900 270 -820 
Q 356 -741 506 -741 
Q 609 -741 788 -809 
Q 913 -856 944 -856 
Q 1038 -856 1148 -759 
Q 1259 -663 1372 -384 
L 1575 113 
L 547 2272 
Q 500 2369 397 2513 
Q 319 2622 269 2659 
Q 197 2709 38 2747 
L 38 2863 
z
" transform="scale(0.015625)"/>
       <path id="TimesNewRomanPSMT-48" d="M 1316 2272 
L 3284 2272 
L 3284 3484 
Q 3284 3809 3244 3913 
Q 3213 3991 3113 4047 
Q 2978 4122 2828 4122 
L 2678 4122 
L 2678 4238 
L 4491 4238 
L 4491 4122 
L 4341 4122 
Q 4191 4122 4056 4050 
Q 3956 4000 3920 3898 
Q 3884 3797 3884 3484 
L 3884 750 
Q 3884 428 3925 325 
Q 3956 247 4053 191 
Q 4191 116 4341 116 
L 4491 116 
L 4491 0 
L 2678 0 
L 2678 116 
L 2828 116 
Q 3088 116 3206 269 
Q 3284 369 3284 750 
L 3284 2041 
L 1316 2041 
L 1316 750 
Q 1316 428 1356 325 
Q 1388 247 1488 191 
Q 1622 116 1772 116 
L 1925 116 
L 1925 0 
L 109 0 
L 109 116 
L 259 116 
Q 522 116 641 269 
Q 716 369 716 750 
L 716 3484 
Q 716 3809 675 3913 
Q 644 3991 547 4047 
Q 409 4122 259 4122 
L 109 4122 
L 109 4238 
L 1925 4238 
L 1925 4122 
L 1772 4122 
Q 1622 4122 1488 4050 
Q 1391 4000 1353 3898 
Q 1316 3797 1316 3484 
L 1316 2272 
z
" transform="scale(0.015625)"/>
      </defs>
      <use xlink:href="#TimesNewRomanPSMT-43"/>
      <use xlink:href="#TimesNewRomanPSMT-69" transform="translate(66.699219 0)"/>
      <use xlink:href="#TimesNewRomanPSMT-74" transform="translate(94.482422 0)"/>
      <use xlink:href="#TimesNewRomanPSMT-79" transform="translate(122.265625 0)"/>
      <use xlink:href="#TimesNewRomanPSMT-20" transform="translate(172.265625 0)"/>
      <use xlink:href="#TimesNewRomanPSMT-43" transform="translate(197.265625 0)"/>
      <use xlink:href="#TimesNewRomanPSMT-65" transform="translate(263.964844 0)"/>
      <use xlink:href="#TimesNewRomanPSMT-6e" transform="translate(308.349609 0)"/>
      <use xlink:href="#TimesNewRomanPSMT-74" transform="translate(358.349609 0)"/>
      <use xlink:href="#TimesNewRomanPSMT-65" transform="translate(386.132812 0)"/>
      <use xlink:href="#TimesNewRomanPSMT-72" transform="translate(430.517578 0)"/>
      <use xlink:href="#TimesNewRomanPSMT-20" transform="translate(463.818359 0)"/>
      <use xlink:href="#TimesNewRomanPSMT-48" transform="translate(488.818359 0)"/>
      <use xlink:href="#TimesNewRomanPSMT-6f" transform="translate(561.035156 0)"/>
      <use xlink:href="#TimesNewRomanPSMT-74" transform="translate(611.035156 0)"/>
      <use xlink:href="#TimesNewRomanPSMT-65" transform="translate(638.818359 0)"/>
      <use xlink:href="#TimesNewRomanPSMT-6c" transform="translate(683.203125 0)"/>
      <use xlink:href="#TimesNewRomanPSMT-73" transform="translate(710.986328 0)"/>
     </g>
    </g>
    <g id="patch_12">
     <path d="M 415.667927 206.567344 
L 435.667927 206.567344 
L 435.667927 199.567344 
L 415.667927 199.567344 
z
" style="fill: #98df8a"/>
    </g>
    <g id="text_18">
     <!-- Ski Lodges -->
     <g transform="translate(443.667927 206.567344) scale(0.1 -0.1)">
      <defs>
       <path id="TimesNewRomanPSMT-6b" d="M 1047 4444 
L 1047 1597 
L 1775 2259 
Q 2006 2472 2044 2528 
Q 2069 2566 2069 2603 
Q 2069 2666 2017 2711 
Q 1966 2756 1847 2763 
L 1847 2863 
L 3091 2863 
L 3091 2763 
Q 2834 2756 2664 2684 
Q 2494 2613 2291 2428 
L 1556 1750 
L 2291 822 
Q 2597 438 2703 334 
Q 2853 188 2966 144 
Q 3044 113 3238 113 
L 3238 0 
L 1847 0 
L 1847 113 
Q 1966 116 2008 148 
Q 2050 181 2050 241 
Q 2050 313 1925 472 
L 1047 1594 
L 1047 644 
Q 1047 366 1086 278 
Q 1125 191 1197 153 
Q 1269 116 1509 113 
L 1509 0 
L 53 0 
L 53 113 
Q 272 113 381 166 
Q 447 200 481 272 
Q 528 375 528 628 
L 528 3234 
Q 528 3731 506 3842 
Q 484 3953 434 3995 
Q 384 4038 303 4038 
Q 238 4038 106 3984 
L 53 4094 
L 903 4444 
L 1047 4444 
z
" transform="scale(0.015625)"/>
       <path id="TimesNewRomanPSMT-4c" d="M 3669 1172 
L 3772 1150 
L 3409 0 
L 128 0 
L 128 116 
L 288 116 
Q 556 116 672 291 
Q 738 391 738 753 
L 738 3488 
Q 738 3884 650 3984 
Q 528 4122 288 4122 
L 128 4122 
L 128 4238 
L 2047 4238 
L 2047 4122 
Q 1709 4125 1573 4059 
Q 1438 3994 1388 3894 
Q 1338 3794 1338 3416 
L 1338 753 
Q 1338 494 1388 397 
Q 1425 331 1503 300 
Q 1581 269 1991 269 
L 2300 269 
Q 2788 269 2984 341 
Q 3181 413 3343 595 
Q 3506 778 3669 1172 
z
" transform="scale(0.015625)"/>
       <path id="TimesNewRomanPSMT-64" d="M 2222 322 
Q 2013 103 1813 7 
Q 1613 -88 1381 -88 
Q 913 -88 563 304 
Q 213 697 213 1313 
Q 213 1928 600 2439 
Q 988 2950 1597 2950 
Q 1975 2950 2222 2709 
L 2222 3238 
Q 2222 3728 2198 3840 
Q 2175 3953 2125 3993 
Q 2075 4034 2000 4034 
Q 1919 4034 1784 3984 
L 1744 4094 
L 2597 4444 
L 2738 4444 
L 2738 1134 
Q 2738 631 2761 520 
Q 2784 409 2836 365 
Q 2888 322 2956 322 
Q 3041 322 3181 375 
L 3216 266 
L 2366 -88 
L 2222 -88 
L 2222 322 
z
M 2222 541 
L 2222 2016 
Q 2203 2228 2109 2403 
Q 2016 2578 1861 2667 
Q 1706 2756 1559 2756 
Q 1284 2756 1069 2509 
Q 784 2184 784 1559 
Q 784 928 1059 592 
Q 1334 256 1672 256 
Q 1956 256 2222 541 
z
" transform="scale(0.015625)"/>
      </defs>
      <use xlink:href="#TimesNewRomanPSMT-53"/>
      <use xlink:href="#TimesNewRomanPSMT-6b" transform="translate(55.615234 0)"/>
      <use xlink:href="#TimesNewRomanPSMT-69" transform="translate(105.615234 0)"/>
      <use xlink:href="#TimesNewRomanPSMT-20" transform="translate(133.398438 0)"/>
      <use xlink:href="#TimesNewRomanPSMT-4c" transform="translate(158.398438 0)"/>
      <use xlink:href="#TimesNewRomanPSMT-6f" transform="translate(219.482422 0)"/>
      <use xlink:href="#TimesNewRomanPSMT-64" transform="translate(269.482422 0)"/>
      <use xlink:href="#TimesNewRomanPSMT-67" transform="translate(319.482422 0)"/>
      <use xlink:href="#TimesNewRomanPSMT-65" transform="translate(369.482422 0)"/>
      <use xlink:href="#TimesNewRomanPSMT-73" transform="translate(413.867188 0)"/>
     </g>
    </g>
    <g id="patch_13">
     <path d="M 415.667927 220.725156 
L 435.667927 220.725156 
L 435.667927 213.725156 
L 415.667927 213.725156 
z
" style="fill: #d62728"/>
    </g>
    <g id="text_19">
     <!-- Desert Camps -->
     <g transform="translate(443.667927 220.725156) scale(0.1 -0.1)">
      <defs>
       <path id="TimesNewRomanPSMT-44" d="M 109 0 
L 109 116 
L 269 116 
Q 538 116 650 288 
Q 719 391 719 750 
L 719 3488 
Q 719 3884 631 3984 
Q 509 4122 269 4122 
L 109 4122 
L 109 4238 
L 1834 4238 
Q 2784 4238 3279 4022 
Q 3775 3806 4076 3303 
Q 4378 2800 4378 2141 
Q 4378 1256 3841 663 
Q 3238 0 2003 0 
L 109 0 
z
M 1319 306 
Q 1716 219 1984 219 
Q 2709 219 3187 728 
Q 3666 1238 3666 2109 
Q 3666 2988 3187 3494 
Q 2709 4000 1959 4000 
Q 1678 4000 1319 3909 
L 1319 306 
z
" transform="scale(0.015625)"/>
      </defs>
      <use xlink:href="#TimesNewRomanPSMT-44"/>
      <use xlink:href="#TimesNewRomanPSMT-65" transform="translate(72.216797 0)"/>
      <use xlink:href="#TimesNewRomanPSMT-73" transform="translate(116.601562 0)"/>
      <use xlink:href="#TimesNewRomanPSMT-65" transform="translate(155.517578 0)"/>
      <use xlink:href="#TimesNewRomanPSMT-72" transform="translate(199.902344 0)"/>
      <use xlink:href="#TimesNewRomanPSMT-74" transform="translate(233.203125 0)"/>
      <use xlink:href="#TimesNewRomanPSMT-20" transform="translate(260.986328 0)"/>
      <use xlink:href="#TimesNewRomanPSMT-43" transform="translate(285.986328 0)"/>
      <use xlink:href="#TimesNewRomanPSMT-61" transform="translate(352.685547 0)"/>
      <use xlink:href="#TimesNewRomanPSMT-6d" transform="translate(397.070312 0)"/>
      <use xlink:href="#TimesNewRomanPSMT-70" transform="translate(474.853516 0)"/>
      <use xlink:href="#TimesNewRomanPSMT-73" transform="translate(524.853516 0)"/>
     </g>
    </g>
   </g>
  </g>
 </g>
 <defs>
  <clipPath id="p23ab2e6e73">
   <rect x="10.091927" y="37.249375" width="388.8" height="277.2"/>
  </clipPath>
 </defs>
</svg>
