<?xml version="1.0" encoding="utf-8" standalone="no"?>
<!DOCTYPE svg PUBLIC "-//W3C//DTD SVG 1.1//EN"
  "http://www.w3.org/Graphics/SVG/1.1/DTD/svg11.dtd">
<svg xmlns:xlink="http://www.w3.org/1999/xlink" width="526.263239pt" height="363.785279pt" viewBox="0 0 526.263239 363.785279" xmlns="http://www.w3.org/2000/svg" version="1.1">
 <metadata>
  <rdf:RDF xmlns:dc="http://purl.org/dc/elements/1.1/" xmlns:cc="http://creativecommons.org/ns#" xmlns:rdf="http://www.w3.org/1999/02/22-rdf-syntax-ns#">
   <cc:Work>
    <dc:type rdf:resource="http://purl.org/dc/dcmitype/StillImage"/>
    <dc:date>2025-05-31T00:14:18.971621</dc:date>
    <dc:format>image/svg+xml</dc:format>
    <dc:creator>
     <cc:Agent>
      <dc:title>Matplotlib v3.10.3, https://matplotlib.org/</dc:title>
     </cc:Agent>
    </dc:creator>
   </cc:Work>
  </rdf:RDF>
 </metadata>
 <defs>
  <style type="text/css">*{stroke-linejoin: round; stroke-linecap: butt}</style>
 </defs>
 <g id="figure_1">
  <g id="patch_1">
   <path d="M 0 363.785279 
L 526.263239 363.785279 
L 526.263239 0 
L 0 0 
z
" style="fill: #ffffff"/>
  </g>
  <g id="axes_1">
   <g id="patch_2">
    <path d="M 10.091927 314.12125 
L 398.891927 314.12125 
L 398.891927 36.92125 
L 10.091927 36.92125 
z
" style="fill: #ffffff"/>
   </g>
   <g id="FillBetweenPolyCollection_1">
    <path d="M 27.764654 194.820203 
L 27.764654 217.155476 
L 29.129343 219.081927 
L 30.494033 220.865375 
L 31.858722 222.508687 
L 33.223411 224.014729 
L 34.588101 225.386367 
L 35.95279 226.626468 
L 37.317479 227.737898 
L 38.682169 228.723522 
L 40.046858 229.586207 
L 41.411548 230.32882 
L 42.776237 230.954226 
L 44.140926 231.465292 
L 45.505616 231.864884 
L 46.870305 232.155868 
L 48.234994 232.34111 
L 49.599684 232.423477 
L 50.964373 232.405835 
L 52.329062 232.291049 
L 53.693752 232.081987 
L 55.058441 231.781513 
L 56.423131 231.392542 
L 57.78782 230.922189 
L 59.152509 230.385098 
L 60.517199 229.79669 
L 61.881888 229.17239 
L 63.246577 228.527621 
L 64.611267 227.877806 
L 65.975956 227.238369 
L 67.340646 226.624732 
L 68.705335 226.052319 
L 70.070024 225.536553 
L 71.434714 225.08764 
L 72.799403 224.689233 
L 74.164092 224.316558 
L 75.528782 223.944838 
L 76.893471 223.549296 
L 78.25816 223.105154 
L 79.62285 222.587634 
L 80.987539 221.971961 
L 82.352229 221.233357 
L 83.716918 220.347043 
L 85.081607 219.290496 
L 86.446297 218.080855 
L 87.810986 216.769177 
L 89.175675 215.407608 
L 90.540365 214.048297 
L 91.905054 212.743389 
L 93.269743 211.545034 
L 94.634433 210.505378 
L 95.999122 209.676569 
L 97.363812 209.110754 
L 98.728501 208.859943 
L 100.09319 209.908375 
L 101.45788 210.930269 
L 102.822569 211.89833 
L 104.187258 212.806779 
L 105.551948 213.649835 
L 106.916637 214.421718 
L 108.281326 215.116646 
L 109.646016 215.728838 
L 111.010705 216.252516 
L 112.375395 216.874626 
L 113.740084 217.615218 
L 115.104773 218.181927 
L 116.469463 218.574666 
L 117.834152 218.79338 
L 119.198841 218.838013 
L 120.563531 218.708512 
L 121.92822 218.404822 
L 123.292909 217.926888 
L 124.657599 217.274656 
L 126.022288 216.448072 
L 127.386978 215.448511 
L 128.751667 214.865833 
L 130.116356 214.258719 
L 131.481046 213.631096 
L 132.845735 213.002085 
L 134.210424 212.390811 
L 135.575114 211.816397 
L 136.939803 211.297967 
L 138.304492 210.854643 
L 139.669182 210.50555 
L 141.033871 210.721347 
L 142.398561 212.43809 
L 143.76325 214.670491 
L 145.127939 217.317313 
L 146.492629 220.277315 
L 147.857318 223.449258 
L 149.222007 226.731903 
L 150.586697 230.02401 
L 151.951386 233.224341 
L 153.316075 236.231656 
L 154.680765 238.944715 
L 156.045454 241.271276 
L 157.410144 243.194835 
L 158.774833 244.736829 
L 160.139522 245.918977 
L 161.504212 246.762999 
L 162.868901 247.290615 
L 164.23359 247.523544 
L 165.59828 247.483506 
L 166.962969 247.19222 
L 168.327658 246.671408 
L 169.692348 245.942761 
L 171.057037 245.026985 
L 172.421727 243.943499 
L 173.786416 242.711633 
L 175.151105 241.35072 
L 176.515795 239.880093 
L 177.880484 238.319083 
L 179.245173 236.687022 
L 180.609863 235.003243 
L 181.974552 233.287079 
L 183.339242 231.55786 
L 184.703931 229.838422 
L 186.06862 228.164025 
L 187.43331 226.572686 
L 188.797999 225.102421 
L 190.162688 223.791245 
L 191.527378 222.677174 
L 192.892067 221.798225 
L 194.256756 221.381203 
L 195.621446 221.18507 
L 196.986135 220.952265 
L 198.350825 221.390857 
L 199.715514 222.214059 
L 201.080203 223.40099 
L 202.444893 224.930449 
L 203.809582 226.781231 
L 205.174271 228.932134 
L 206.538961 231.361956 
L 207.90365 234.049493 
L 209.268339 236.973543 
L 210.633029 240.112902 
L 211.997718 243.44602 
L 213.362408 246.928249 
L 214.727097 250.477846 
L 216.091786 254.009719 
L 217.456476 257.438775 
L 218.821165 260.679924 
L 220.185854 263.648072 
L 221.550544 266.258128 
L 222.915233 268.425001 
L 224.279922 270.063597 
L 225.644612 271.088826 
L 227.009301 271.441923 
L 228.373991 271.182871 
L 229.73868 270.40512 
L 231.103369 269.202122 
L 232.468059 267.667327 
L 233.832748 265.894188 
L 235.197437 263.976156 
L 236.562127 262.006681 
L 237.926816 260.079215 
L 239.291505 258.28721 
L 240.656195 256.72036 
L 242.020884 255.412133 
L 243.385574 254.352717 
L 244.750263 253.531188 
L 246.114952 252.936618 
L 247.479642 252.558082 
L 248.844331 252.384655 
L 250.20902 252.405412 
L 251.57371 252.609425 
L 252.938399 252.98577 
L 254.303088 253.523371 
L 255.667778 254.191118 
L 257.032467 254.917898 
L 258.397157 255.627851 
L 259.761846 256.245115 
L 261.126535 256.693829 
L 262.491225 256.89813 
L 263.855914 256.782159 
L 265.220603 256.270052 
L 266.585293 255.285949 
L 267.949982 253.753988 
L 269.314671 251.622478 
L 270.679361 248.978726 
L 272.04405 245.959622 
L 273.40874 242.702119 
L 274.773429 239.34317 
L 276.138118 236.019728 
L 277.502808 232.868745 
L 278.867497 230.027175 
L 280.232186 227.63197 
L 281.596876 225.820083 
L 282.961565 225.170422 
L 284.326254 225.776283 
L 285.690944 226.54114 
L 287.055633 227.416007 
L 288.420323 228.351903 
L 289.785012 229.299843 
L 291.149701 230.210844 
L 292.514391 231.035922 
L 293.87908 231.726094 
L 295.243769 232.291761 
L 296.608459 232.790945 
L 297.973148 232.82286 
L 299.337838 232.465738 
L 300.702527 231.917669 
L 302.067216 231.383245 
L 303.431906 230.749717 
L 304.796595 230.059131 
L 306.161284 229.353536 
L 307.525974 228.674977 
L 308.890663 228.065502 
L 310.255352 227.659737 
L 311.620042 228.30815 
L 312.984731 229.438363 
L 314.349421 230.984023 
L 315.71411 232.878556 
L 317.078799 235.055386 
L 318.443489 237.44794 
L 319.808178 239.989641 
L 321.172867 242.613915 
L 322.537557 245.254186 
L 323.902246 247.84388 
L 325.266935 250.31783 
L 326.631625 252.654574 
L 327.996314 254.883772 
L 329.361004 257.037986 
L 330.725693 259.149776 
L 332.090382 261.251705 
L 333.455072 263.376333 
L 334.819761 265.556223 
L 336.18445 267.823934 
L 337.54914 270.21203 
L 338.913829 272.753058 
L 340.278518 275.451252 
L 341.643208 278.221605 
L 343.007897 280.961578 
L 344.372587 283.568632 
L 345.737276 285.940228 
L 347.101965 287.973827 
L 348.466655 289.56689 
L 349.831344 290.616877 
L 351.196033 291.02125 
L 352.560723 290.67747 
L 353.925412 289.495718 
L 355.290101 287.508717 
L 356.654791 284.817672 
L 358.01948 281.524536 
L 359.38417 277.731263 
L 360.748859 273.539806 
L 362.113548 269.052118 
L 363.478238 264.370152 
L 364.842927 259.595862 
L 366.207616 254.831201 
L 367.572306 250.178122 
L 368.936995 245.738579 
L 370.301684 241.614524 
L 371.666374 237.907911 
L 373.031063 234.720693 
L 374.395753 232.154824 
L 375.760442 231.777232 
L 377.125131 231.595862 
L 378.489821 231.551181 
L 379.85451 231.662906 
L 381.219199 232.214068 
L 381.219199 231.687436 
L 381.219199 231.687436 
L 379.85451 231.662906 
L 378.489821 231.551181 
L 377.125131 231.595862 
L 375.760442 231.777232 
L 374.395753 231.996333 
L 373.031063 230.221676 
L 371.666374 227.980759 
L 370.301684 225.336108 
L 368.936995 222.350243 
L 367.572306 219.085689 
L 366.207616 215.604968 
L 364.842927 211.970603 
L 363.478238 208.245118 
L 362.113548 204.491035 
L 360.748859 200.770877 
L 359.38417 197.147167 
L 358.01948 193.682428 
L 356.654791 190.439183 
L 355.290101 187.479956 
L 353.925412 184.867268 
L 352.560723 182.663341 
L 351.196033 180.902642 
L 349.831344 179.569982 
L 348.466655 178.645016 
L 347.101965 178.107402 
L 345.737276 177.936794 
L 344.372587 178.112849 
L 343.007897 178.615222 
L 341.643208 179.423569 
L 340.278518 180.517546 
L 338.913829 181.876809 
L 337.54914 183.480148 
L 336.18445 185.301951 
L 334.819761 187.315206 
L 333.455072 189.492903 
L 332.090382 191.808032 
L 330.725693 194.233579 
L 329.361004 196.742536 
L 327.996314 199.30789 
L 326.631625 201.902631 
L 325.266935 204.499747 
L 323.902246 207.072522 
L 322.537557 209.599428 
L 321.172867 212.063374 
L 319.808178 214.447411 
L 318.443489 216.73459 
L 317.078799 218.907963 
L 315.71411 220.950581 
L 314.349421 222.845496 
L 312.984731 224.575759 
L 311.620042 226.124421 
L 310.255352 227.474578 
L 308.890663 228.065502 
L 307.525974 228.674977 
L 306.161284 229.353536 
L 304.796595 230.059131 
L 303.431906 230.749717 
L 302.067216 231.383245 
L 300.702527 231.917669 
L 299.337838 232.156146 
L 297.973148 232.219173 
L 296.608459 232.220747 
L 295.243769 232.17299 
L 293.87908 231.726094 
L 292.514391 231.035922 
L 291.149701 230.210844 
L 289.785012 229.299843 
L 288.420323 228.351903 
L 287.055633 227.416007 
L 285.690944 226.54114 
L 284.326254 225.776283 
L 282.961565 225.170422 
L 281.596876 223.721602 
L 280.232186 221.531809 
L 278.867497 219.098154 
L 277.502808 216.471478 
L 276.138118 213.702623 
L 274.773429 210.842431 
L 273.40874 207.941743 
L 272.04405 205.051402 
L 270.679361 202.222248 
L 269.314671 199.505123 
L 267.949982 196.950854 
L 266.585293 194.597069 
L 265.220603 192.444411 
L 263.855914 190.487088 
L 262.491225 188.719312 
L 261.126535 187.13529 
L 259.761846 185.729234 
L 258.397157 184.495351 
L 257.032467 183.427852 
L 255.667778 182.520947 
L 254.303088 181.768845 
L 252.938399 181.16379 
L 251.57371 180.681489 
L 250.20902 180.289364 
L 248.844331 179.954773 
L 247.479642 179.645075 
L 246.114952 179.327631 
L 244.750263 178.969799 
L 243.385574 178.538939 
L 242.020884 178.00241 
L 240.656195 177.327572 
L 239.291505 176.482771 
L 237.926816 175.474755 
L 236.562127 174.360152 
L 235.197437 173.198926 
L 233.832748 172.05104 
L 232.468059 170.976456 
L 231.103369 170.035139 
L 229.73868 169.28705 
L 228.373991 168.792153 
L 227.009301 168.610411 
L 225.644612 168.801787 
L 224.279922 169.409882 
L 222.915233 170.42025 
L 221.550544 171.805573 
L 220.185854 173.538534 
L 218.821165 175.591817 
L 217.456476 177.938103 
L 216.091786 180.550075 
L 214.727097 183.400417 
L 213.362408 186.46181 
L 211.997718 189.706939 
L 210.633029 193.106194 
L 209.268339 196.604589 
L 207.90365 200.131336 
L 206.538961 203.61541 
L 205.174271 206.985784 
L 203.809582 210.171433 
L 202.444893 213.101331 
L 201.080203 215.704451 
L 199.715514 217.909768 
L 198.350825 219.646256 
L 196.986135 220.843512 
L 195.621446 221.18507 
L 194.256756 221.381203 
L 192.892067 221.179429 
L 191.527378 220.343789 
L 190.162688 219.106167 
L 188.797999 217.50966 
L 187.43331 215.597362 
L 186.06862 213.41237 
L 184.703931 210.997777 
L 183.339242 208.396681 
L 181.974552 205.653005 
L 180.609863 202.814422 
L 179.245173 199.929657 
L 177.880484 197.047438 
L 176.515795 194.216491 
L 175.151105 191.485542 
L 173.786416 188.903317 
L 172.421727 186.518544 
L 171.057037 184.379949 
L 169.692348 182.536259 
L 168.327658 181.034289 
L 166.962969 179.892262 
L 165.59828 179.106392 
L 164.23359 178.672327 
L 162.868901 178.585713 
L 161.504212 178.842198 
L 160.139522 179.437428 
L 158.774833 180.367052 
L 157.410144 181.626715 
L 156.045454 183.212066 
L 154.680765 185.118608 
L 153.316075 187.322737 
L 151.951386 189.7627 
L 150.586697 192.372211 
L 149.222007 195.084987 
L 147.857318 197.834742 
L 146.492629 200.555192 
L 145.127939 203.180053 
L 143.76325 205.64304 
L 142.398561 207.877869 
L 141.033871 209.818254 
L 139.669182 210.50555 
L 138.304492 210.854643 
L 136.939803 211.297967 
L 135.575114 211.816397 
L 134.210424 212.390811 
L 132.845735 213.002085 
L 131.481046 213.631096 
L 130.116356 214.258719 
L 128.751667 214.865833 
L 127.386978 215.418114 
L 126.022288 215.436745 
L 124.657599 215.489746 
L 123.292909 215.571525 
L 121.92822 215.675643 
L 120.563531 215.795662 
L 119.198841 215.925145 
L 117.834152 216.057653 
L 116.469463 216.18675 
L 115.104773 216.305997 
L 113.740084 216.408956 
L 112.375395 216.489167 
L 111.010705 216.252516 
L 109.646016 215.728838 
L 108.281326 215.116646 
L 106.916637 214.421718 
L 105.551948 213.649835 
L 104.187258 212.806779 
L 102.822569 211.89833 
L 101.45788 210.930269 
L 100.09319 209.908375 
L 98.728501 208.816919 
L 97.363812 206.344231 
L 95.999122 203.507529 
L 94.634433 200.400259 
L 93.269743 197.116041 
L 91.905054 193.748498 
L 90.540365 190.391251 
L 89.175675 187.137923 
L 87.810986 184.082135 
L 86.446297 181.317508 
L 85.081607 178.937666 
L 83.716918 177.033953 
L 82.352229 175.627018 
L 80.987539 174.654823 
L 79.62285 174.050635 
L 78.25816 173.747722 
L 76.893471 173.679352 
L 75.528782 173.778793 
L 74.164092 173.979313 
L 72.799403 174.214179 
L 71.434714 174.41666 
L 70.070024 174.520029 
L 68.705335 174.474656 
L 67.340646 174.28477 
L 65.975956 173.965187 
L 64.611267 173.530721 
L 63.246577 172.996187 
L 61.881888 172.376398 
L 60.517199 171.68617 
L 59.152509 170.940316 
L 57.78782 170.153651 
L 56.423131 169.34099 
L 55.058441 168.518083 
L 53.693752 167.7097 
L 52.329062 166.945652 
L 50.964373 166.255802 
L 49.599684 165.670017 
L 48.234994 165.218162 
L 46.870305 164.930101 
L 45.505616 164.835701 
L 44.140926 164.964825 
L 42.776237 165.34734 
L 41.411548 166.013111 
L 40.046858 166.992002 
L 38.682169 168.313879 
L 37.317479 170.008606 
L 35.95279 172.10605 
L 34.588101 174.636076 
L 33.223411 177.628547 
L 31.858722 181.113331 
L 30.494033 185.120291 
L 29.129343 189.679293 
L 27.764654 194.820203 
z
" clip-path="url(#p26e05285e5)" style="fill: #1f77b4"/>
   </g>
   <g id="FillBetweenPolyCollection_2">
    <path d="M 27.764654 133.887024 
L 27.764654 194.820203 
L 29.129343 189.679293 
L 30.494033 185.120291 
L 31.858722 181.113331 
L 33.223411 177.628547 
L 34.588101 174.636076 
L 35.95279 172.10605 
L 37.317479 170.008606 
L 38.682169 168.313879 
L 40.046858 166.992002 
L 41.411548 166.013111 
L 42.776237 165.34734 
L 44.140926 164.964825 
L 45.505616 164.835701 
L 46.870305 164.930101 
L 48.234994 165.218162 
L 49.599684 165.670017 
L 50.964373 166.255802 
L 52.329062 166.945652 
L 53.693752 167.7097 
L 55.058441 168.518083 
L 56.423131 169.34099 
L 57.78782 170.153651 
L 59.152509 170.940316 
L 60.517199 171.68617 
L 61.881888 172.376398 
L 63.246577 172.996187 
L 64.611267 173.530721 
L 65.975956 173.965187 
L 67.340646 174.28477 
L 68.705335 174.474656 
L 70.070024 174.520029 
L 71.434714 174.41666 
L 72.799403 174.214179 
L 74.164092 173.979313 
L 75.528782 173.778793 
L 76.893471 173.679352 
L 78.25816 173.747722 
L 79.62285 174.050635 
L 80.987539 174.654823 
L 82.352229 175.627018 
L 83.716918 177.033953 
L 85.081607 178.937666 
L 86.446297 181.317508 
L 87.810986 184.082135 
L 89.175675 187.137923 
L 90.540365 190.391251 
L 91.905054 193.748498 
L 93.269743 197.116041 
L 94.634433 200.400259 
L 95.999122 203.507529 
L 97.363812 206.344231 
L 98.728501 208.816919 
L 100.09319 209.908375 
L 101.45788 210.930269 
L 102.822569 211.89833 
L 104.187258 212.806779 
L 105.551948 213.649835 
L 106.916637 214.421718 
L 108.281326 215.116646 
L 109.646016 215.728838 
L 111.010705 216.252516 
L 112.375395 216.489167 
L 113.740084 216.408956 
L 115.104773 216.305997 
L 116.469463 216.18675 
L 117.834152 216.057653 
L 119.198841 215.925145 
L 120.563531 215.795662 
L 121.92822 215.675643 
L 123.292909 215.571525 
L 124.657599 215.489746 
L 126.022288 215.436745 
L 127.386978 215.418114 
L 128.751667 214.865833 
L 130.116356 214.258719 
L 131.481046 213.631096 
L 132.845735 213.002085 
L 134.210424 212.390811 
L 135.575114 211.816397 
L 136.939803 211.297967 
L 138.304492 210.854643 
L 139.669182 210.50555 
L 141.033871 209.818254 
L 142.398561 207.877869 
L 143.76325 205.64304 
L 145.127939 203.180053 
L 146.492629 200.555192 
L 147.857318 197.834742 
L 149.222007 195.084987 
L 150.586697 192.372211 
L 151.951386 189.7627 
L 153.316075 187.322737 
L 154.680765 185.118608 
L 156.045454 183.212066 
L 157.410144 181.626715 
L 158.774833 180.367052 
L 160.139522 179.437428 
L 161.504212 178.842198 
L 162.868901 178.585713 
L 164.23359 178.672327 
L 165.59828 179.106392 
L 166.962969 179.892262 
L 168.327658 181.034289 
L 169.692348 182.536259 
L 171.057037 184.379949 
L 172.421727 186.518544 
L 173.786416 188.903317 
L 175.151105 191.485542 
L 176.515795 194.216491 
L 177.880484 197.047438 
L 179.245173 199.929657 
L 180.609863 202.814422 
L 181.974552 205.653005 
L 183.339242 208.396681 
L 184.703931 210.997777 
L 186.06862 213.41237 
L 187.43331 215.597362 
L 188.797999 217.50966 
L 190.162688 219.106167 
L 191.527378 220.343789 
L 192.892067 221.179429 
L 194.256756 221.381203 
L 195.621446 221.18507 
L 196.986135 220.843512 
L 198.350825 219.646256 
L 199.715514 217.909768 
L 201.080203 215.704451 
L 202.444893 213.101331 
L 203.809582 210.171433 
L 205.174271 206.985784 
L 206.538961 203.61541 
L 207.90365 200.131336 
L 209.268339 196.604589 
L 210.633029 193.106194 
L 211.997718 189.706939 
L 213.362408 186.46181 
L 214.727097 183.400417 
L 216.091786 180.550075 
L 217.456476 177.938103 
L 218.821165 175.591817 
L 220.185854 173.538534 
L 221.550544 171.805573 
L 222.915233 170.42025 
L 224.279922 169.409882 
L 225.644612 168.801787 
L 227.009301 168.610411 
L 228.373991 168.792153 
L 229.73868 169.28705 
L 231.103369 170.035139 
L 232.468059 170.976456 
L 233.832748 172.05104 
L 235.197437 173.198926 
L 236.562127 174.360152 
L 237.926816 175.474755 
L 239.291505 176.482771 
L 240.656195 177.327572 
L 242.020884 178.00241 
L 243.385574 178.538939 
L 244.750263 178.969799 
L 246.114952 179.327631 
L 247.479642 179.645075 
L 248.844331 179.954773 
L 250.20902 180.289364 
L 251.57371 180.681489 
L 252.938399 181.16379 
L 254.303088 181.768845 
L 255.667778 182.520947 
L 257.032467 183.427852 
L 258.397157 184.495351 
L 259.761846 185.729234 
L 261.126535 187.13529 
L 262.491225 188.719312 
L 263.855914 190.487088 
L 265.220603 192.444411 
L 266.585293 194.597069 
L 267.949982 196.950854 
L 269.314671 199.505123 
L 270.679361 202.222248 
L 272.04405 205.051402 
L 273.40874 207.941743 
L 274.773429 210.842431 
L 276.138118 213.702623 
L 277.502808 216.471478 
L 278.867497 219.098154 
L 280.232186 221.531809 
L 281.596876 223.721602 
L 282.961565 225.170422 
L 284.326254 225.776283 
L 285.690944 226.54114 
L 287.055633 227.416007 
L 288.420323 228.351903 
L 289.785012 229.299843 
L 291.149701 230.210844 
L 292.514391 231.035922 
L 293.87908 231.726094 
L 295.243769 232.17299 
L 296.608459 232.220747 
L 297.973148 232.219173 
L 299.337838 232.156146 
L 300.702527 231.917669 
L 302.067216 231.383245 
L 303.431906 230.749717 
L 304.796595 230.059131 
L 306.161284 229.353536 
L 307.525974 228.674977 
L 308.890663 228.065502 
L 310.255352 227.474578 
L 311.620042 226.124421 
L 312.984731 224.575759 
L 314.349421 222.845496 
L 315.71411 220.950581 
L 317.078799 218.907963 
L 318.443489 216.73459 
L 319.808178 214.447411 
L 321.172867 212.063374 
L 322.537557 209.599428 
L 323.902246 207.072522 
L 325.266935 204.499747 
L 326.631625 201.902631 
L 327.996314 199.30789 
L 329.361004 196.742536 
L 330.725693 194.233579 
L 332.090382 191.808032 
L 333.455072 189.492903 
L 334.819761 187.315206 
L 336.18445 185.301951 
L 337.54914 183.480148 
L 338.913829 181.876809 
L 340.278518 180.517546 
L 341.643208 179.423569 
L 343.007897 178.615222 
L 344.372587 178.112849 
L 345.737276 177.936794 
L 347.101965 178.107402 
L 348.466655 178.645016 
L 349.831344 179.569982 
L 351.196033 180.902642 
L 352.560723 182.663341 
L 353.925412 184.867268 
L 355.290101 187.479956 
L 356.654791 190.439183 
L 358.01948 193.682428 
L 359.38417 197.147167 
L 360.748859 200.770877 
L 362.113548 204.491035 
L 363.478238 208.245118 
L 364.842927 211.970603 
L 366.207616 215.604968 
L 367.572306 219.085689 
L 368.936995 222.350243 
L 370.301684 225.336108 
L 371.666374 227.980759 
L 373.031063 230.221676 
L 374.395753 231.996333 
L 375.760442 231.777232 
L 377.125131 231.595862 
L 378.489821 231.551181 
L 379.85451 231.662906 
L 381.219199 231.687436 
L 381.219199 118.828432 
L 381.219199 118.828432 
L 379.85451 119.379594 
L 378.489821 119.491319 
L 377.125131 119.446638 
L 375.760442 119.265268 
L 374.395753 118.887676 
L 373.031063 116.321807 
L 371.666374 113.134589 
L 370.301684 109.427976 
L 368.936995 105.303921 
L 367.572306 100.864378 
L 366.207616 96.211299 
L 364.842927 91.446638 
L 363.478238 86.672348 
L 362.113548 81.990382 
L 360.748859 77.502694 
L 359.38417 73.311237 
L 358.01948 69.517964 
L 356.654791 66.224828 
L 355.290101 63.533783 
L 353.925412 61.546782 
L 352.560723 60.36503 
L 351.196033 60.02125 
L 349.831344 60.425623 
L 348.466655 61.47561 
L 347.101965 63.068673 
L 345.737276 65.102272 
L 344.372587 67.473868 
L 343.007897 70.080922 
L 341.643208 72.820895 
L 340.278518 75.591248 
L 338.913829 78.289442 
L 337.54914 80.83047 
L 336.18445 83.218566 
L 334.819761 85.486277 
L 333.455072 87.666167 
L 332.090382 89.790795 
L 330.725693 91.892724 
L 329.361004 94.004514 
L 327.996314 96.158728 
L 326.631625 98.387926 
L 325.266935 100.72467 
L 323.902246 103.19862 
L 322.537557 105.788314 
L 321.172867 108.428585 
L 319.808178 111.052859 
L 318.443489 113.59456 
L 317.078799 115.987114 
L 315.71411 118.163944 
L 314.349421 120.058477 
L 312.984731 121.604137 
L 311.620042 122.73435 
L 310.255352 123.382763 
L 308.890663 122.976998 
L 307.525974 122.367523 
L 306.161284 121.688964 
L 304.796595 120.983369 
L 303.431906 120.292783 
L 302.067216 119.659255 
L 300.702527 119.124831 
L 299.337838 118.576762 
L 297.973148 118.21964 
L 296.608459 118.251555 
L 295.243769 118.750739 
L 293.87908 119.316406 
L 292.514391 120.006578 
L 291.149701 120.831656 
L 289.785012 121.742657 
L 288.420323 122.690597 
L 287.055633 123.626493 
L 285.690944 124.50136 
L 284.326254 125.266217 
L 282.961565 125.872078 
L 281.596876 125.222417 
L 280.232186 123.41053 
L 278.867497 121.015325 
L 277.502808 118.173755 
L 276.138118 115.022772 
L 274.773429 111.69933 
L 273.40874 108.340381 
L 272.04405 105.082878 
L 270.679361 102.063774 
L 269.314671 99.420022 
L 267.949982 97.288512 
L 266.585293 95.756551 
L 265.220603 94.772448 
L 263.855914 94.260341 
L 262.491225 94.14437 
L 261.126535 94.348671 
L 259.761846 94.797385 
L 258.397157 95.414649 
L 257.032467 96.124602 
L 255.667778 96.851382 
L 254.303088 97.519129 
L 252.938399 98.05673 
L 251.57371 98.433075 
L 250.20902 98.637088 
L 248.844331 98.657845 
L 247.479642 98.484418 
L 246.114952 98.105882 
L 244.750263 97.511312 
L 243.385574 96.689783 
L 242.020884 95.630367 
L 240.656195 94.32214 
L 239.291505 92.75529 
L 237.926816 90.963285 
L 236.562127 89.035819 
L 235.197437 87.066344 
L 233.832748 85.148312 
L 232.468059 83.375173 
L 231.103369 81.840378 
L 229.73868 80.63738 
L 228.373991 79.859629 
L 227.009301 79.600577 
L 225.644612 79.953674 
L 224.279922 80.978903 
L 222.915233 82.617499 
L 221.550544 84.784372 
L 220.185854 87.394428 
L 218.821165 90.362576 
L 217.456476 93.603725 
L 216.091786 97.032781 
L 214.727097 100.564654 
L 213.362408 104.114251 
L 211.997718 107.59648 
L 210.633029 110.929598 
L 209.268339 114.068957 
L 207.90365 116.993007 
L 206.538961 119.680544 
L 205.174271 122.110366 
L 203.809582 124.261269 
L 202.444893 126.112051 
L 201.080203 127.64151 
L 199.715514 128.828441 
L 198.350825 129.651643 
L 196.986135 130.090235 
L 195.621446 129.85743 
L 194.256756 129.661297 
L 192.892067 129.244275 
L 191.527378 128.365326 
L 190.162688 127.251255 
L 188.797999 125.940079 
L 187.43331 124.469814 
L 186.06862 122.878475 
L 184.703931 121.204078 
L 183.339242 119.48464 
L 181.974552 117.755421 
L 180.609863 116.039257 
L 179.245173 114.355478 
L 177.880484 112.723417 
L 176.515795 111.162407 
L 175.151105 109.69178 
L 173.786416 108.330867 
L 172.421727 107.099001 
L 171.057037 106.015515 
L 169.692348 105.099739 
L 168.327658 104.371092 
L 166.962969 103.85028 
L 165.59828 103.558994 
L 164.23359 103.518956 
L 162.868901 103.751885 
L 161.504212 104.279501 
L 160.139522 105.123523 
L 158.774833 106.305671 
L 157.410144 107.847665 
L 156.045454 109.771224 
L 154.680765 112.097785 
L 153.316075 114.810844 
L 151.951386 117.818159 
L 150.586697 121.01849 
L 149.222007 124.310597 
L 147.857318 127.593242 
L 146.492629 130.765185 
L 145.127939 133.725187 
L 143.76325 136.372009 
L 142.398561 138.60441 
L 141.033871 140.321153 
L 139.669182 140.53695 
L 138.304492 140.187857 
L 136.939803 139.744533 
L 135.575114 139.226103 
L 134.210424 138.651689 
L 132.845735 138.040415 
L 131.481046 137.411404 
L 130.116356 136.783781 
L 128.751667 136.176667 
L 127.386978 135.593989 
L 126.022288 134.594428 
L 124.657599 133.767844 
L 123.292909 133.115612 
L 121.92822 132.637678 
L 120.563531 132.333988 
L 119.198841 132.204487 
L 117.834152 132.24912 
L 116.469463 132.467834 
L 115.104773 132.860573 
L 113.740084 133.427282 
L 112.375395 134.167874 
L 111.010705 134.789984 
L 109.646016 135.313662 
L 108.281326 135.925854 
L 106.916637 136.620782 
L 105.551948 137.392665 
L 104.187258 138.235721 
L 102.822569 139.14417 
L 101.45788 140.112231 
L 100.09319 141.134125 
L 98.728501 142.182557 
L 97.363812 141.931746 
L 95.999122 141.365931 
L 94.634433 140.537122 
L 93.269743 139.497466 
L 91.905054 138.299111 
L 90.540365 136.994203 
L 89.175675 135.634892 
L 87.810986 134.273323 
L 86.446297 132.961645 
L 85.081607 131.752004 
L 83.716918 130.695457 
L 82.352229 129.809143 
L 80.987539 129.070539 
L 79.62285 128.454866 
L 78.25816 127.937346 
L 76.893471 127.493204 
L 75.528782 127.097662 
L 74.164092 126.725942 
L 72.799403 126.353267 
L 71.434714 125.95486 
L 70.070024 125.505947 
L 68.705335 124.990181 
L 67.340646 124.417768 
L 65.975956 123.804131 
L 64.611267 123.164694 
L 63.246577 122.514879 
L 61.881888 121.87011 
L 60.517199 121.24581 
L 59.152509 120.657402 
L 57.78782 120.120311 
L 56.423131 119.649958 
L 55.058441 119.260987 
L 53.693752 118.960513 
L 52.329062 118.751451 
L 50.964373 118.636665 
L 49.599684 118.619023 
L 48.234994 118.70139 
L 46.870305 118.886632 
L 45.505616 119.177616 
L 44.140926 119.577208 
L 42.776237 120.088274 
L 41.411548 120.71368 
L 40.046858 121.456293 
L 38.682169 122.318978 
L 37.317479 123.304602 
L 35.95279 124.416032 
L 34.588101 125.656133 
L 33.223411 127.027771 
L 31.858722 128.533813 
L 30.494033 130.177125 
L 29.129343 131.960573 
L 27.764654 133.887024 
z
" clip-path="url(#p26e05285e5)" style="fill: #aec7e8"/>
   </g>
   <g id="matplotlib.axis_1">
    <g id="xtick_1">
     <g id="line2d_1">
      <defs>
       <path id="me30d9630ff" d="M 0 0 
L 0 3.5 
" style="stroke: #000000; stroke-width: 0.8"/>
      </defs>
      <g>
       <use xlink:href="#me30d9630ff" x="27.764654" y="314.12125" style="stroke: #000000; stroke-width: 0.8"/>
      </g>
     </g>
     <g id="text_1">
      <!-- 1995 -->
      <g transform="translate(12.109973 340.173358) rotate(-45) scale(0.1 -0.1)">
       <defs>
        <path id="TimesNewRomanPSMT-31" d="M 750 3822 
L 1781 4325 
L 1884 4325 
L 1884 747 
Q 1884 391 1914 303 
Q 1944 216 2037 169 
Q 2131 122 2419 116 
L 2419 0 
L 825 0 
L 825 116 
Q 1125 122 1212 167 
Q 1300 213 1334 289 
Q 1369 366 1369 747 
L 1369 3034 
Q 1369 3497 1338 3628 
Q 1316 3728 1258 3775 
Q 1200 3822 1119 3822 
Q 1003 3822 797 3725 
L 750 3822 
z
" transform="scale(0.015625)"/>
        <path id="TimesNewRomanPSMT-39" d="M 338 -88 
L 338 28 
Q 744 34 1094 217 
Q 1444 400 1770 856 
Q 2097 1313 2225 1859 
Q 1734 1544 1338 1544 
Q 891 1544 572 1889 
Q 253 2234 253 2806 
Q 253 3363 572 3797 
Q 956 4325 1575 4325 
Q 2097 4325 2469 3894 
Q 2925 3359 2925 2575 
Q 2925 1869 2578 1258 
Q 2231 647 1613 244 
Q 1109 -88 516 -88 
L 338 -88 
z
M 2275 2091 
Q 2331 2497 2331 2741 
Q 2331 3044 2228 3395 
Q 2125 3747 1936 3934 
Q 1747 4122 1506 4122 
Q 1228 4122 1018 3872 
Q 809 3622 809 3128 
Q 809 2469 1088 2097 
Q 1291 1828 1588 1828 
Q 1731 1828 1928 1897 
Q 2125 1966 2275 2091 
z
" transform="scale(0.015625)"/>
        <path id="TimesNewRomanPSMT-35" d="M 2778 4238 
L 2534 3706 
L 1259 3706 
L 981 3138 
Q 1809 3016 2294 2522 
Q 2709 2097 2709 1522 
Q 2709 1188 2573 903 
Q 2438 619 2231 419 
Q 2025 219 1772 97 
Q 1413 -75 1034 -75 
Q 653 -75 479 54 
Q 306 184 306 341 
Q 306 428 378 495 
Q 450 563 559 563 
Q 641 563 702 538 
Q 763 513 909 409 
Q 1144 247 1384 247 
Q 1750 247 2026 523 
Q 2303 800 2303 1197 
Q 2303 1581 2056 1914 
Q 1809 2247 1375 2428 
Q 1034 2569 447 2591 
L 1259 4238 
L 2778 4238 
z
" transform="scale(0.015625)"/>
       </defs>
       <use xlink:href="#TimesNewRomanPSMT-31"/>
       <use xlink:href="#TimesNewRomanPSMT-39" transform="translate(50 0)"/>
       <use xlink:href="#TimesNewRomanPSMT-39" transform="translate(100 0)"/>
       <use xlink:href="#TimesNewRomanPSMT-35" transform="translate(150 0)"/>
      </g>
     </g>
    </g>
    <g id="xtick_2">
     <g id="line2d_2">
      <g>
       <use xlink:href="#me30d9630ff" x="56.041018" y="314.12125" style="stroke: #000000; stroke-width: 0.8"/>
      </g>
     </g>
     <g id="text_2">
      <!-- 1997 -->
      <g transform="translate(40.386336 340.173358) rotate(-45) scale(0.1 -0.1)">
       <defs>
        <path id="TimesNewRomanPSMT-37" d="M 644 4238 
L 2916 4238 
L 2916 4119 
L 1503 -88 
L 1153 -88 
L 2419 3728 
L 1253 3728 
Q 900 3728 750 3644 
Q 488 3500 328 3200 
L 238 3234 
L 644 4238 
z
" transform="scale(0.015625)"/>
       </defs>
       <use xlink:href="#TimesNewRomanPSMT-31"/>
       <use xlink:href="#TimesNewRomanPSMT-39" transform="translate(50 0)"/>
       <use xlink:href="#TimesNewRomanPSMT-39" transform="translate(100 0)"/>
       <use xlink:href="#TimesNewRomanPSMT-37" transform="translate(150 0)"/>
      </g>
     </g>
    </g>
    <g id="xtick_3">
     <g id="line2d_3">
      <g>
       <use xlink:href="#me30d9630ff" x="84.317381" y="314.12125" style="stroke: #000000; stroke-width: 0.8"/>
      </g>
     </g>
     <g id="text_3">
      <!-- 1999 -->
      <g transform="translate(68.6627 340.173358) rotate(-45) scale(0.1 -0.1)">
       <use xlink:href="#TimesNewRomanPSMT-31"/>
       <use xlink:href="#TimesNewRomanPSMT-39" transform="translate(50 0)"/>
       <use xlink:href="#TimesNewRomanPSMT-39" transform="translate(100 0)"/>
       <use xlink:href="#TimesNewRomanPSMT-39" transform="translate(150 0)"/>
      </g>
     </g>
    </g>
    <g id="xtick_4">
     <g id="line2d_4">
      <g>
       <use xlink:href="#me30d9630ff" x="112.593745" y="314.12125" style="stroke: #000000; stroke-width: 0.8"/>
      </g>
     </g>
     <g id="text_4">
      <!-- 2001 -->
      <g transform="translate(96.939064 340.173358) rotate(-45) scale(0.1 -0.1)">
       <defs>
        <path id="TimesNewRomanPSMT-32" d="M 2934 816 
L 2638 0 
L 138 0 
L 138 116 
Q 1241 1122 1691 1759 
Q 2141 2397 2141 2925 
Q 2141 3328 1894 3587 
Q 1647 3847 1303 3847 
Q 991 3847 742 3664 
Q 494 3481 375 3128 
L 259 3128 
Q 338 3706 661 4015 
Q 984 4325 1469 4325 
Q 1984 4325 2329 3994 
Q 2675 3663 2675 3213 
Q 2675 2891 2525 2569 
Q 2294 2063 1775 1497 
Q 997 647 803 472 
L 1909 472 
Q 2247 472 2383 497 
Q 2519 522 2628 598 
Q 2738 675 2819 816 
L 2934 816 
z
" transform="scale(0.015625)"/>
        <path id="TimesNewRomanPSMT-30" d="M 231 2094 
Q 231 2819 450 3342 
Q 669 3866 1031 4122 
Q 1313 4325 1613 4325 
Q 2100 4325 2488 3828 
Q 2972 3213 2972 2159 
Q 2972 1422 2759 906 
Q 2547 391 2217 158 
Q 1888 -75 1581 -75 
Q 975 -75 572 641 
Q 231 1244 231 2094 
z
M 844 2016 
Q 844 1141 1059 588 
Q 1238 122 1591 122 
Q 1759 122 1940 273 
Q 2122 425 2216 781 
Q 2359 1319 2359 2297 
Q 2359 3022 2209 3506 
Q 2097 3866 1919 4016 
Q 1791 4119 1609 4119 
Q 1397 4119 1231 3928 
Q 1006 3669 925 3112 
Q 844 2556 844 2016 
z
" transform="scale(0.015625)"/>
       </defs>
       <use xlink:href="#TimesNewRomanPSMT-32"/>
       <use xlink:href="#TimesNewRomanPSMT-30" transform="translate(50 0)"/>
       <use xlink:href="#TimesNewRomanPSMT-30" transform="translate(100 0)"/>
       <use xlink:href="#TimesNewRomanPSMT-31" transform="translate(150 0)"/>
      </g>
     </g>
    </g>
    <g id="xtick_5">
     <g id="line2d_5">
      <g>
       <use xlink:href="#me30d9630ff" x="140.870108" y="314.12125" style="stroke: #000000; stroke-width: 0.8"/>
      </g>
     </g>
     <g id="text_5">
      <!-- 2003 -->
      <g transform="translate(125.215427 340.173358) rotate(-45) scale(0.1 -0.1)">
       <defs>
        <path id="TimesNewRomanPSMT-33" d="M 325 3431 
Q 506 3859 782 4092 
Q 1059 4325 1472 4325 
Q 1981 4325 2253 3994 
Q 2459 3747 2459 3466 
Q 2459 3003 1878 2509 
Q 2269 2356 2469 2072 
Q 2669 1788 2669 1403 
Q 2669 853 2319 450 
Q 1863 -75 997 -75 
Q 569 -75 414 31 
Q 259 138 259 259 
Q 259 350 332 419 
Q 406 488 509 488 
Q 588 488 669 463 
Q 722 447 909 348 
Q 1097 250 1169 231 
Q 1284 197 1416 197 
Q 1734 197 1970 444 
Q 2206 691 2206 1028 
Q 2206 1275 2097 1509 
Q 2016 1684 1919 1775 
Q 1784 1900 1550 2001 
Q 1316 2103 1072 2103 
L 972 2103 
L 972 2197 
Q 1219 2228 1467 2375 
Q 1716 2522 1828 2728 
Q 1941 2934 1941 3181 
Q 1941 3503 1739 3701 
Q 1538 3900 1238 3900 
Q 753 3900 428 3381 
L 325 3431 
z
" transform="scale(0.015625)"/>
       </defs>
       <use xlink:href="#TimesNewRomanPSMT-32"/>
       <use xlink:href="#TimesNewRomanPSMT-30" transform="translate(50 0)"/>
       <use xlink:href="#TimesNewRomanPSMT-30" transform="translate(100 0)"/>
       <use xlink:href="#TimesNewRomanPSMT-33" transform="translate(150 0)"/>
      </g>
     </g>
    </g>
    <g id="xtick_6">
     <g id="line2d_6">
      <g>
       <use xlink:href="#me30d9630ff" x="169.146472" y="314.12125" style="stroke: #000000; stroke-width: 0.8"/>
      </g>
     </g>
     <g id="text_6">
      <!-- 2005 -->
      <g transform="translate(153.491791 340.173358) rotate(-45) scale(0.1 -0.1)">
       <use xlink:href="#TimesNewRomanPSMT-32"/>
       <use xlink:href="#TimesNewRomanPSMT-30" transform="translate(50 0)"/>
       <use xlink:href="#TimesNewRomanPSMT-30" transform="translate(100 0)"/>
       <use xlink:href="#TimesNewRomanPSMT-35" transform="translate(150 0)"/>
      </g>
     </g>
    </g>
    <g id="xtick_7">
     <g id="line2d_7">
      <g>
       <use xlink:href="#me30d9630ff" x="197.422836" y="314.12125" style="stroke: #000000; stroke-width: 0.8"/>
      </g>
     </g>
     <g id="text_7">
      <!-- 2007 -->
      <g transform="translate(181.768155 340.173358) rotate(-45) scale(0.1 -0.1)">
       <use xlink:href="#TimesNewRomanPSMT-32"/>
       <use xlink:href="#TimesNewRomanPSMT-30" transform="translate(50 0)"/>
       <use xlink:href="#TimesNewRomanPSMT-30" transform="translate(100 0)"/>
       <use xlink:href="#TimesNewRomanPSMT-37" transform="translate(150 0)"/>
      </g>
     </g>
    </g>
    <g id="xtick_8">
     <g id="line2d_8">
      <g>
       <use xlink:href="#me30d9630ff" x="225.699199" y="314.12125" style="stroke: #000000; stroke-width: 0.8"/>
      </g>
     </g>
     <g id="text_8">
      <!-- 2009 -->
      <g transform="translate(210.044518 340.173358) rotate(-45) scale(0.1 -0.1)">
       <use xlink:href="#TimesNewRomanPSMT-32"/>
       <use xlink:href="#TimesNewRomanPSMT-30" transform="translate(50 0)"/>
       <use xlink:href="#TimesNewRomanPSMT-30" transform="translate(100 0)"/>
       <use xlink:href="#TimesNewRomanPSMT-39" transform="translate(150 0)"/>
      </g>
     </g>
    </g>
    <g id="xtick_9">
     <g id="line2d_9">
      <g>
       <use xlink:href="#me30d9630ff" x="253.975563" y="314.12125" style="stroke: #000000; stroke-width: 0.8"/>
      </g>
     </g>
     <g id="text_9">
      <!-- 2011 -->
      <g transform="translate(238.586047 339.908193) rotate(-45) scale(0.1 -0.1)">
       <use xlink:href="#TimesNewRomanPSMT-32"/>
       <use xlink:href="#TimesNewRomanPSMT-30" transform="translate(50 0)"/>
       <use xlink:href="#TimesNewRomanPSMT-31" transform="translate(100 0)"/>
       <use xlink:href="#TimesNewRomanPSMT-31" transform="translate(146.25 0)"/>
      </g>
     </g>
    </g>
    <g id="xtick_10">
     <g id="line2d_10">
      <g>
       <use xlink:href="#me30d9630ff" x="282.251927" y="314.12125" style="stroke: #000000; stroke-width: 0.8"/>
      </g>
     </g>
     <g id="text_10">
      <!-- 2013 -->
      <g transform="translate(266.597245 340.173358) rotate(-45) scale(0.1 -0.1)">
       <use xlink:href="#TimesNewRomanPSMT-32"/>
       <use xlink:href="#TimesNewRomanPSMT-30" transform="translate(50 0)"/>
       <use xlink:href="#TimesNewRomanPSMT-31" transform="translate(100 0)"/>
       <use xlink:href="#TimesNewRomanPSMT-33" transform="translate(150 0)"/>
      </g>
     </g>
    </g>
    <g id="xtick_11">
     <g id="line2d_11">
      <g>
       <use xlink:href="#me30d9630ff" x="310.52829" y="314.12125" style="stroke: #000000; stroke-width: 0.8"/>
      </g>
     </g>
     <g id="text_11">
      <!-- 2015 -->
      <g transform="translate(294.873609 340.173358) rotate(-45) scale(0.1 -0.1)">
       <use xlink:href="#TimesNewRomanPSMT-32"/>
       <use xlink:href="#TimesNewRomanPSMT-30" transform="translate(50 0)"/>
       <use xlink:href="#TimesNewRomanPSMT-31" transform="translate(100 0)"/>
       <use xlink:href="#TimesNewRomanPSMT-35" transform="translate(150 0)"/>
      </g>
     </g>
    </g>
    <g id="xtick_12">
     <g id="line2d_12">
      <g>
       <use xlink:href="#me30d9630ff" x="338.804654" y="314.12125" style="stroke: #000000; stroke-width: 0.8"/>
      </g>
     </g>
     <g id="text_12">
      <!-- 2017 -->
      <g transform="translate(323.149973 340.173358) rotate(-45) scale(0.1 -0.1)">
       <use xlink:href="#TimesNewRomanPSMT-32"/>
       <use xlink:href="#TimesNewRomanPSMT-30" transform="translate(50 0)"/>
       <use xlink:href="#TimesNewRomanPSMT-31" transform="translate(100 0)"/>
       <use xlink:href="#TimesNewRomanPSMT-37" transform="translate(150 0)"/>
      </g>
     </g>
    </g>
    <g id="xtick_13">
     <g id="line2d_13">
      <g>
       <use xlink:href="#me30d9630ff" x="367.081018" y="314.12125" style="stroke: #000000; stroke-width: 0.8"/>
      </g>
     </g>
     <g id="text_13">
      <!-- 2019 -->
      <g transform="translate(351.426336 340.173358) rotate(-45) scale(0.1 -0.1)">
       <use xlink:href="#TimesNewRomanPSMT-32"/>
       <use xlink:href="#TimesNewRomanPSMT-30" transform="translate(50 0)"/>
       <use xlink:href="#TimesNewRomanPSMT-31" transform="translate(100 0)"/>
       <use xlink:href="#TimesNewRomanPSMT-39" transform="translate(150 0)"/>
      </g>
     </g>
    </g>
    <g id="text_14">
     <!-- Year -->
     <g transform="translate(193.434114 354.018404) scale(0.12 -0.12)">
      <defs>
       <path id="TimesNewRomanPSMT-59" d="M 3050 4238 
L 4528 4238 
L 4528 4122 
L 4447 4122 
Q 4366 4122 4209 4050 
Q 4053 3978 3925 3843 
Q 3797 3709 3609 3406 
L 2588 1797 
L 2588 734 
Q 2588 344 2675 247 
Q 2794 116 3050 116 
L 3188 116 
L 3188 0 
L 1388 0 
L 1388 116 
L 1538 116 
Q 1806 116 1919 278 
Q 1988 378 1988 734 
L 1988 1738 
L 825 3513 
Q 619 3825 545 3903 
Q 472 3981 241 4091 
Q 178 4122 59 4122 
L 59 4238 
L 1872 4238 
L 1872 4122 
L 1778 4122 
Q 1631 4122 1507 4053 
Q 1384 3984 1384 3847 
Q 1384 3734 1575 3441 
L 2459 2075 
L 3291 3381 
Q 3478 3675 3478 3819 
Q 3478 3906 3433 3975 
Q 3388 4044 3303 4083 
Q 3219 4122 3050 4122 
L 3050 4238 
z
" transform="scale(0.015625)"/>
       <path id="TimesNewRomanPSMT-65" d="M 681 1784 
Q 678 1147 991 784 
Q 1303 422 1725 422 
Q 2006 422 2214 576 
Q 2422 731 2563 1106 
L 2659 1044 
Q 2594 616 2278 264 
Q 1963 -88 1488 -88 
Q 972 -88 605 314 
Q 238 716 238 1394 
Q 238 2128 614 2539 
Q 991 2950 1559 2950 
Q 2041 2950 2350 2633 
Q 2659 2316 2659 1784 
L 681 1784 
z
M 681 1966 
L 2006 1966 
Q 1991 2241 1941 2353 
Q 1863 2528 1708 2628 
Q 1553 2728 1384 2728 
Q 1125 2728 920 2526 
Q 716 2325 681 1966 
z
" transform="scale(0.015625)"/>
       <path id="TimesNewRomanPSMT-61" d="M 1822 413 
Q 1381 72 1269 19 
Q 1100 -59 909 -59 
Q 613 -59 420 144 
Q 228 347 228 678 
Q 228 888 322 1041 
Q 450 1253 767 1440 
Q 1084 1628 1822 1897 
L 1822 2009 
Q 1822 2438 1686 2597 
Q 1550 2756 1291 2756 
Q 1094 2756 978 2650 
Q 859 2544 859 2406 
L 866 2225 
Q 866 2081 792 2003 
Q 719 1925 600 1925 
Q 484 1925 411 2006 
Q 338 2088 338 2228 
Q 338 2497 613 2722 
Q 888 2947 1384 2947 
Q 1766 2947 2009 2819 
Q 2194 2722 2281 2516 
Q 2338 2381 2338 1966 
L 2338 994 
Q 2338 584 2353 492 
Q 2369 400 2405 369 
Q 2441 338 2488 338 
Q 2538 338 2575 359 
Q 2641 400 2828 588 
L 2828 413 
Q 2478 -56 2159 -56 
Q 2006 -56 1915 50 
Q 1825 156 1822 413 
z
M 1822 616 
L 1822 1706 
Q 1350 1519 1213 1441 
Q 966 1303 859 1153 
Q 753 1003 753 825 
Q 753 600 887 451 
Q 1022 303 1197 303 
Q 1434 303 1822 616 
z
" transform="scale(0.015625)"/>
       <path id="TimesNewRomanPSMT-72" d="M 1038 2947 
L 1038 2303 
Q 1397 2947 1775 2947 
Q 1947 2947 2059 2842 
Q 2172 2738 2172 2600 
Q 2172 2478 2090 2393 
Q 2009 2309 1897 2309 
Q 1788 2309 1652 2417 
Q 1516 2525 1450 2525 
Q 1394 2525 1328 2463 
Q 1188 2334 1038 2041 
L 1038 669 
Q 1038 431 1097 309 
Q 1138 225 1241 169 
Q 1344 113 1538 113 
L 1538 0 
L 72 0 
L 72 113 
Q 291 113 397 181 
Q 475 231 506 341 
Q 522 394 522 644 
L 522 1753 
Q 522 2253 501 2348 
Q 481 2444 426 2487 
Q 372 2531 291 2531 
Q 194 2531 72 2484 
L 41 2597 
L 906 2947 
L 1038 2947 
z
" transform="scale(0.015625)"/>
      </defs>
      <use xlink:href="#TimesNewRomanPSMT-59"/>
      <use xlink:href="#TimesNewRomanPSMT-65" transform="translate(62.216797 0)"/>
      <use xlink:href="#TimesNewRomanPSMT-61" transform="translate(106.601562 0)"/>
      <use xlink:href="#TimesNewRomanPSMT-72" transform="translate(150.986328 0)"/>
     </g>
    </g>
   </g>
   <g id="patch_3">
    <path d="M 10.091927 314.12125 
L 10.091927 36.92125 
" style="fill: none; stroke: #000000; stroke-width: 0.8; stroke-linejoin: miter; stroke-linecap: square"/>
   </g>
   <g id="patch_4">
    <path d="M 398.891927 314.12125 
L 398.891927 36.92125 
" style="fill: none; stroke: #000000; stroke-width: 0.8; stroke-linejoin: miter; stroke-linecap: square"/>
   </g>
   <g id="patch_5">
    <path d="M 10.091927 314.12125 
L 398.891927 314.12125 
" style="fill: none; stroke: #000000; stroke-width: 0.8; stroke-linejoin: miter; stroke-linecap: square"/>
   </g>
   <g id="patch_6">
    <path d="M 10.091927 36.92125 
L 398.891927 36.92125 
" style="fill: none; stroke: #000000; stroke-width: 0.8; stroke-linejoin: miter; stroke-linecap: square"/>
   </g>
   <g id="text_15">
    <!-- Loyalty Program Members from 1995 to 2020 (members)  -->
    <g transform="translate(40.802395 16.92125) scale(0.14 -0.14)">
     <defs>
      <path id="TimesNewRomanPSMT-4c" d="M 3669 1172 
L 3772 1150 
L 3409 0 
L 128 0 
L 128 116 
L 288 116 
Q 556 116 672 291 
Q 738 391 738 753 
L 738 3488 
Q 738 3884 650 3984 
Q 528 4122 288 4122 
L 128 4122 
L 128 4238 
L 2047 4238 
L 2047 4122 
Q 1709 4125 1573 4059 
Q 1438 3994 1388 3894 
Q 1338 3794 1338 3416 
L 1338 753 
Q 1338 494 1388 397 
Q 1425 331 1503 300 
Q 1581 269 1991 269 
L 2300 269 
Q 2788 269 2984 341 
Q 3181 413 3343 595 
Q 3506 778 3669 1172 
z
" transform="scale(0.015625)"/>
      <path id="TimesNewRomanPSMT-6f" d="M 1600 2947 
Q 2250 2947 2644 2453 
Q 2978 2031 2978 1484 
Q 2978 1100 2793 706 
Q 2609 313 2286 112 
Q 1963 -88 1566 -88 
Q 919 -88 538 428 
Q 216 863 216 1403 
Q 216 1797 411 2186 
Q 606 2575 925 2761 
Q 1244 2947 1600 2947 
z
M 1503 2744 
Q 1338 2744 1170 2645 
Q 1003 2547 900 2300 
Q 797 2053 797 1666 
Q 797 1041 1045 587 
Q 1294 134 1700 134 
Q 2003 134 2200 384 
Q 2397 634 2397 1244 
Q 2397 2006 2069 2444 
Q 1847 2744 1503 2744 
z
" transform="scale(0.015625)"/>
      <path id="TimesNewRomanPSMT-79" d="M 38 2863 
L 1372 2863 
L 1372 2747 
L 1306 2747 
Q 1166 2747 1095 2686 
Q 1025 2625 1025 2534 
Q 1025 2413 1128 2197 
L 1825 753 
L 2466 2334 
Q 2519 2463 2519 2588 
Q 2519 2644 2497 2672 
Q 2472 2706 2419 2726 
Q 2366 2747 2231 2747 
L 2231 2863 
L 3163 2863 
L 3163 2747 
Q 3047 2734 2984 2696 
Q 2922 2659 2847 2556 
Q 2819 2513 2741 2316 
L 1575 -541 
Q 1406 -956 1132 -1168 
Q 859 -1381 606 -1381 
Q 422 -1381 303 -1275 
Q 184 -1169 184 -1031 
Q 184 -900 270 -820 
Q 356 -741 506 -741 
Q 609 -741 788 -809 
Q 913 -856 944 -856 
Q 1038 -856 1148 -759 
Q 1259 -663 1372 -384 
L 1575 113 
L 547 2272 
Q 500 2369 397 2513 
Q 319 2622 269 2659 
Q 197 2709 38 2747 
L 38 2863 
z
" transform="scale(0.015625)"/>
      <path id="TimesNewRomanPSMT-6c" d="M 1184 4444 
L 1184 647 
Q 1184 378 1223 290 
Q 1263 203 1344 158 
Q 1425 113 1647 113 
L 1647 0 
L 244 0 
L 244 113 
Q 441 113 512 153 
Q 584 194 625 287 
Q 666 381 666 647 
L 666 3247 
Q 666 3731 644 3842 
Q 622 3953 573 3993 
Q 525 4034 450 4034 
Q 369 4034 244 3984 
L 191 4094 
L 1044 4444 
L 1184 4444 
z
" transform="scale(0.015625)"/>
      <path id="TimesNewRomanPSMT-74" d="M 1031 3803 
L 1031 2863 
L 1700 2863 
L 1700 2644 
L 1031 2644 
L 1031 788 
Q 1031 509 1111 412 
Q 1191 316 1316 316 
Q 1419 316 1516 380 
Q 1613 444 1666 569 
L 1788 569 
Q 1678 263 1478 108 
Q 1278 -47 1066 -47 
Q 922 -47 784 33 
Q 647 113 581 261 
Q 516 409 516 719 
L 516 2644 
L 63 2644 
L 63 2747 
Q 234 2816 414 2980 
Q 594 3144 734 3369 
Q 806 3488 934 3803 
L 1031 3803 
z
" transform="scale(0.015625)"/>
      <path id="TimesNewRomanPSMT-20" transform="scale(0.015625)"/>
      <path id="TimesNewRomanPSMT-50" d="M 1313 1984 
L 1313 750 
Q 1313 350 1400 253 
Q 1519 116 1759 116 
L 1922 116 
L 1922 0 
L 106 0 
L 106 116 
L 266 116 
Q 534 116 650 291 
Q 713 388 713 750 
L 713 3488 
Q 713 3888 628 3984 
Q 506 4122 266 4122 
L 106 4122 
L 106 4238 
L 1659 4238 
Q 2228 4238 2556 4120 
Q 2884 4003 3109 3725 
Q 3334 3447 3334 3066 
Q 3334 2547 2992 2222 
Q 2650 1897 2025 1897 
Q 1872 1897 1694 1919 
Q 1516 1941 1313 1984 
z
M 1313 2163 
Q 1478 2131 1606 2115 
Q 1734 2100 1825 2100 
Q 2150 2100 2386 2351 
Q 2622 2603 2622 3003 
Q 2622 3278 2509 3514 
Q 2397 3750 2190 3867 
Q 1984 3984 1722 3984 
Q 1563 3984 1313 3925 
L 1313 2163 
z
" transform="scale(0.015625)"/>
      <path id="TimesNewRomanPSMT-67" d="M 966 1044 
Q 703 1172 562 1401 
Q 422 1631 422 1909 
Q 422 2334 742 2640 
Q 1063 2947 1563 2947 
Q 1972 2947 2272 2747 
L 2878 2747 
Q 3013 2747 3034 2739 
Q 3056 2731 3066 2713 
Q 3084 2684 3084 2613 
Q 3084 2531 3069 2500 
Q 3059 2484 3036 2475 
Q 3013 2466 2878 2466 
L 2506 2466 
Q 2681 2241 2681 1891 
Q 2681 1491 2375 1206 
Q 2069 922 1553 922 
Q 1341 922 1119 984 
Q 981 866 932 777 
Q 884 688 884 625 
Q 884 572 936 522 
Q 988 472 1138 450 
Q 1225 438 1575 428 
Q 2219 413 2409 384 
Q 2700 344 2873 169 
Q 3047 -6 3047 -263 
Q 3047 -616 2716 -925 
Q 2228 -1381 1444 -1381 
Q 841 -1381 425 -1109 
Q 191 -953 191 -784 
Q 191 -709 225 -634 
Q 278 -519 444 -313 
Q 466 -284 763 25 
Q 600 122 533 198 
Q 466 275 466 372 
Q 466 481 555 628 
Q 644 775 966 1044 
z
M 1509 2797 
Q 1278 2797 1122 2612 
Q 966 2428 966 2047 
Q 966 1553 1178 1281 
Q 1341 1075 1591 1075 
Q 1828 1075 1981 1253 
Q 2134 1431 2134 1813 
Q 2134 2309 1919 2591 
Q 1759 2797 1509 2797 
z
M 934 0 
Q 788 -159 713 -296 
Q 638 -434 638 -550 
Q 638 -700 819 -813 
Q 1131 -1006 1722 -1006 
Q 2284 -1006 2551 -807 
Q 2819 -609 2819 -384 
Q 2819 -222 2659 -153 
Q 2497 -84 2016 -72 
Q 1313 -53 934 0 
z
" transform="scale(0.015625)"/>
      <path id="TimesNewRomanPSMT-6d" d="M 1050 2338 
Q 1363 2650 1419 2697 
Q 1559 2816 1721 2881 
Q 1884 2947 2044 2947 
Q 2313 2947 2506 2790 
Q 2700 2634 2766 2338 
Q 3088 2713 3309 2830 
Q 3531 2947 3766 2947 
Q 3994 2947 4170 2830 
Q 4347 2713 4450 2447 
Q 4519 2266 4519 1878 
L 4519 647 
Q 4519 378 4559 278 
Q 4591 209 4675 161 
Q 4759 113 4950 113 
L 4950 0 
L 3538 0 
L 3538 113 
L 3597 113 
Q 3781 113 3884 184 
Q 3956 234 3988 344 
Q 4000 397 4000 647 
L 4000 1878 
Q 4000 2228 3916 2372 
Q 3794 2572 3525 2572 
Q 3359 2572 3192 2489 
Q 3025 2406 2788 2181 
L 2781 2147 
L 2788 2013 
L 2788 647 
Q 2788 353 2820 281 
Q 2853 209 2943 161 
Q 3034 113 3253 113 
L 3253 0 
L 1806 0 
L 1806 113 
Q 2044 113 2133 169 
Q 2222 225 2256 338 
Q 2272 391 2272 647 
L 2272 1878 
Q 2272 2228 2169 2381 
Q 2031 2581 1784 2581 
Q 1616 2581 1450 2491 
Q 1191 2353 1050 2181 
L 1050 647 
Q 1050 366 1089 281 
Q 1128 197 1204 155 
Q 1281 113 1516 113 
L 1516 0 
L 100 0 
L 100 113 
Q 297 113 375 155 
Q 453 197 493 289 
Q 534 381 534 647 
L 534 1741 
Q 534 2213 506 2350 
Q 484 2453 437 2492 
Q 391 2531 309 2531 
Q 222 2531 100 2484 
L 53 2597 
L 916 2947 
L 1050 2947 
L 1050 2338 
z
" transform="scale(0.015625)"/>
      <path id="TimesNewRomanPSMT-4d" d="M 2619 0 
L 981 3566 
L 981 734 
Q 981 344 1066 247 
Q 1181 116 1431 116 
L 1581 116 
L 1581 0 
L 106 0 
L 106 116 
L 256 116 
Q 525 116 638 278 
Q 706 378 706 734 
L 706 3503 
Q 706 3784 644 3909 
Q 600 4000 483 4061 
Q 366 4122 106 4122 
L 106 4238 
L 1306 4238 
L 2844 922 
L 4356 4238 
L 5556 4238 
L 5556 4122 
L 5409 4122 
Q 5138 4122 5025 3959 
Q 4956 3859 4956 3503 
L 4956 734 
Q 4956 344 5044 247 
Q 5159 116 5409 116 
L 5556 116 
L 5556 0 
L 3756 0 
L 3756 116 
L 3906 116 
Q 4178 116 4288 278 
Q 4356 378 4356 734 
L 4356 3566 
L 2722 0 
L 2619 0 
z
" transform="scale(0.015625)"/>
      <path id="TimesNewRomanPSMT-62" d="M 984 2369 
Q 1400 2947 1881 2947 
Q 2322 2947 2650 2570 
Q 2978 2194 2978 1541 
Q 2978 778 2472 313 
Q 2038 -88 1503 -88 
Q 1253 -88 995 3 
Q 738 94 469 275 
L 469 3241 
Q 469 3728 445 3840 
Q 422 3953 372 3993 
Q 322 4034 247 4034 
Q 159 4034 28 3984 
L -16 4094 
L 844 4444 
L 984 4444 
L 984 2369 
z
M 984 2169 
L 984 456 
Q 1144 300 1314 220 
Q 1484 141 1663 141 
Q 1947 141 2192 453 
Q 2438 766 2438 1363 
Q 2438 1913 2192 2208 
Q 1947 2503 1634 2503 
Q 1469 2503 1303 2419 
Q 1178 2356 984 2169 
z
" transform="scale(0.015625)"/>
      <path id="TimesNewRomanPSMT-73" d="M 2050 2947 
L 2050 1972 
L 1947 1972 
Q 1828 2431 1642 2597 
Q 1456 2763 1169 2763 
Q 950 2763 815 2647 
Q 681 2531 681 2391 
Q 681 2216 781 2091 
Q 878 1963 1175 1819 
L 1631 1597 
Q 2266 1288 2266 781 
Q 2266 391 1970 151 
Q 1675 -88 1309 -88 
Q 1047 -88 709 6 
Q 606 38 541 38 
Q 469 38 428 -44 
L 325 -44 
L 325 978 
L 428 978 
Q 516 541 762 319 
Q 1009 97 1316 97 
Q 1531 97 1667 223 
Q 1803 350 1803 528 
Q 1803 744 1651 891 
Q 1500 1038 1047 1263 
Q 594 1488 453 1669 
Q 313 1847 313 2119 
Q 313 2472 555 2709 
Q 797 2947 1181 2947 
Q 1350 2947 1591 2875 
Q 1750 2828 1803 2828 
Q 1853 2828 1881 2850 
Q 1909 2872 1947 2947 
L 2050 2947 
z
" transform="scale(0.015625)"/>
      <path id="TimesNewRomanPSMT-66" d="M 1319 2638 
L 1319 756 
Q 1319 356 1406 250 
Q 1522 113 1716 113 
L 1975 113 
L 1975 0 
L 266 0 
L 266 113 
L 394 113 
Q 519 113 622 175 
Q 725 238 764 344 
Q 803 450 803 756 
L 803 2638 
L 247 2638 
L 247 2863 
L 803 2863 
L 803 3050 
Q 803 3478 940 3775 
Q 1078 4072 1361 4255 
Q 1644 4438 1997 4438 
Q 2325 4438 2600 4225 
Q 2781 4084 2781 3909 
Q 2781 3816 2700 3733 
Q 2619 3650 2525 3650 
Q 2453 3650 2373 3701 
Q 2294 3753 2178 3923 
Q 2063 4094 1966 4153 
Q 1869 4213 1750 4213 
Q 1606 4213 1506 4136 
Q 1406 4059 1362 3898 
Q 1319 3738 1319 3069 
L 1319 2863 
L 2056 2863 
L 2056 2638 
L 1319 2638 
z
" transform="scale(0.015625)"/>
      <path id="TimesNewRomanPSMT-28" d="M 1988 -1253 
L 1988 -1369 
Q 1516 -1131 1200 -813 
Q 750 -359 506 256 
Q 263 872 263 1534 
Q 263 2503 741 3301 
Q 1219 4100 1988 4444 
L 1988 4313 
Q 1603 4100 1356 3731 
Q 1109 3363 987 2797 
Q 866 2231 866 1616 
Q 866 947 969 400 
Q 1050 -31 1165 -292 
Q 1281 -553 1476 -793 
Q 1672 -1034 1988 -1253 
z
" transform="scale(0.015625)"/>
      <path id="TimesNewRomanPSMT-29" d="M 144 4313 
L 144 4444 
Q 619 4209 934 3891 
Q 1381 3434 1625 2820 
Q 1869 2206 1869 1541 
Q 1869 572 1392 -226 
Q 916 -1025 144 -1369 
L 144 -1253 
Q 528 -1038 776 -670 
Q 1025 -303 1145 264 
Q 1266 831 1266 1447 
Q 1266 2113 1163 2663 
Q 1084 3094 967 3353 
Q 850 3613 656 3853 
Q 463 4094 144 4313 
z
" transform="scale(0.015625)"/>
     </defs>
     <use xlink:href="#TimesNewRomanPSMT-4c"/>
     <use xlink:href="#TimesNewRomanPSMT-6f" transform="translate(61.083984 0)"/>
     <use xlink:href="#TimesNewRomanPSMT-79" transform="translate(111.083984 0)"/>
     <use xlink:href="#TimesNewRomanPSMT-61" transform="translate(161.083984 0)"/>
     <use xlink:href="#TimesNewRomanPSMT-6c" transform="translate(205.46875 0)"/>
     <use xlink:href="#TimesNewRomanPSMT-74" transform="translate(233.251953 0)"/>
     <use xlink:href="#TimesNewRomanPSMT-79" transform="translate(261.035156 0)"/>
     <use xlink:href="#TimesNewRomanPSMT-20" transform="translate(311.035156 0)"/>
     <use xlink:href="#TimesNewRomanPSMT-50" transform="translate(336.035156 0)"/>
     <use xlink:href="#TimesNewRomanPSMT-72" transform="translate(391.650391 0)"/>
     <use xlink:href="#TimesNewRomanPSMT-6f" transform="translate(424.951172 0)"/>
     <use xlink:href="#TimesNewRomanPSMT-67" transform="translate(474.951172 0)"/>
     <use xlink:href="#TimesNewRomanPSMT-72" transform="translate(524.951172 0)"/>
     <use xlink:href="#TimesNewRomanPSMT-61" transform="translate(558.251953 0)"/>
     <use xlink:href="#TimesNewRomanPSMT-6d" transform="translate(602.636719 0)"/>
     <use xlink:href="#TimesNewRomanPSMT-20" transform="translate(680.419922 0)"/>
     <use xlink:href="#TimesNewRomanPSMT-4d" transform="translate(705.419922 0)"/>
     <use xlink:href="#TimesNewRomanPSMT-65" transform="translate(794.335938 0)"/>
     <use xlink:href="#TimesNewRomanPSMT-6d" transform="translate(838.720703 0)"/>
     <use xlink:href="#TimesNewRomanPSMT-62" transform="translate(916.503906 0)"/>
     <use xlink:href="#TimesNewRomanPSMT-65" transform="translate(966.503906 0)"/>
     <use xlink:href="#TimesNewRomanPSMT-72" transform="translate(1010.888672 0)"/>
     <use xlink:href="#TimesNewRomanPSMT-73" transform="translate(1044.189453 0)"/>
     <use xlink:href="#TimesNewRomanPSMT-20" transform="translate(1083.105469 0)"/>
     <use xlink:href="#TimesNewRomanPSMT-66" transform="translate(1108.105469 0)"/>
     <use xlink:href="#TimesNewRomanPSMT-72" transform="translate(1141.40625 0)"/>
     <use xlink:href="#TimesNewRomanPSMT-6f" transform="translate(1174.707031 0)"/>
     <use xlink:href="#TimesNewRomanPSMT-6d" transform="translate(1224.707031 0)"/>
     <use xlink:href="#TimesNewRomanPSMT-20" transform="translate(1302.490234 0)"/>
     <use xlink:href="#TimesNewRomanPSMT-31" transform="translate(1327.490234 0)"/>
     <use xlink:href="#TimesNewRomanPSMT-39" transform="translate(1377.490234 0)"/>
     <use xlink:href="#TimesNewRomanPSMT-39" transform="translate(1427.490234 0)"/>
     <use xlink:href="#TimesNewRomanPSMT-35" transform="translate(1477.490234 0)"/>
     <use xlink:href="#TimesNewRomanPSMT-20" transform="translate(1527.490234 0)"/>
     <use xlink:href="#TimesNewRomanPSMT-74" transform="translate(1552.490234 0)"/>
     <use xlink:href="#TimesNewRomanPSMT-6f" transform="translate(1580.273438 0)"/>
     <use xlink:href="#TimesNewRomanPSMT-20" transform="translate(1630.273438 0)"/>
     <use xlink:href="#TimesNewRomanPSMT-32" transform="translate(1655.273438 0)"/>
     <use xlink:href="#TimesNewRomanPSMT-30" transform="translate(1705.273438 0)"/>
     <use xlink:href="#TimesNewRomanPSMT-32" transform="translate(1755.273438 0)"/>
     <use xlink:href="#TimesNewRomanPSMT-30" transform="translate(1805.273438 0)"/>
     <use xlink:href="#TimesNewRomanPSMT-20" transform="translate(1855.273438 0)"/>
     <use xlink:href="#TimesNewRomanPSMT-28" transform="translate(1880.273438 0)"/>
     <use xlink:href="#TimesNewRomanPSMT-6d" transform="translate(1913.574219 0)"/>
     <use xlink:href="#TimesNewRomanPSMT-65" transform="translate(1991.357422 0)"/>
     <use xlink:href="#TimesNewRomanPSMT-6d" transform="translate(2035.742188 0)"/>
     <use xlink:href="#TimesNewRomanPSMT-62" transform="translate(2113.525391 0)"/>
     <use xlink:href="#TimesNewRomanPSMT-65" transform="translate(2163.525391 0)"/>
     <use xlink:href="#TimesNewRomanPSMT-72" transform="translate(2207.910156 0)"/>
     <use xlink:href="#TimesNewRomanPSMT-73" transform="translate(2241.210938 0)"/>
     <use xlink:href="#TimesNewRomanPSMT-29" transform="translate(2280.126953 0)"/>
     <use xlink:href="#TimesNewRomanPSMT-20" transform="translate(2313.427734 0)"/>
    </g>
   </g>
   <g id="legend_1">
    <g id="patch_7">
     <path d="M 415.667927 170.882187 
L 435.667927 170.882187 
L 435.667927 163.882187 
L 415.667927 163.882187 
z
" style="fill: #1f77b4"/>
    </g>
    <g id="text_16">
     <!-- Hotel Rewards -->
     <g transform="translate(443.667927 170.882187) scale(0.1 -0.1)">
      <defs>
       <path id="TimesNewRomanPSMT-48" d="M 1316 2272 
L 3284 2272 
L 3284 3484 
Q 3284 3809 3244 3913 
Q 3213 3991 3113 4047 
Q 2978 4122 2828 4122 
L 2678 4122 
L 2678 4238 
L 4491 4238 
L 4491 4122 
L 4341 4122 
Q 4191 4122 4056 4050 
Q 3956 4000 3920 3898 
Q 3884 3797 3884 3484 
L 3884 750 
Q 3884 428 3925 325 
Q 3956 247 4053 191 
Q 4191 116 4341 116 
L 4491 116 
L 4491 0 
L 2678 0 
L 2678 116 
L 2828 116 
Q 3088 116 3206 269 
Q 3284 369 3284 750 
L 3284 2041 
L 1316 2041 
L 1316 750 
Q 1316 428 1356 325 
Q 1388 247 1488 191 
Q 1622 116 1772 116 
L 1925 116 
L 1925 0 
L 109 0 
L 109 116 
L 259 116 
Q 522 116 641 269 
Q 716 369 716 750 
L 716 3484 
Q 716 3809 675 3913 
Q 644 3991 547 4047 
Q 409 4122 259 4122 
L 109 4122 
L 109 4238 
L 1925 4238 
L 1925 4122 
L 1772 4122 
Q 1622 4122 1488 4050 
Q 1391 4000 1353 3898 
Q 1316 3797 1316 3484 
L 1316 2272 
z
" transform="scale(0.015625)"/>
       <path id="TimesNewRomanPSMT-52" d="M 4325 0 
L 3194 0 
L 1759 1981 
Q 1600 1975 1500 1975 
Q 1459 1975 1412 1976 
Q 1366 1978 1316 1981 
L 1316 750 
Q 1316 350 1403 253 
Q 1522 116 1759 116 
L 1925 116 
L 1925 0 
L 109 0 
L 109 116 
L 269 116 
Q 538 116 653 291 
Q 719 388 719 750 
L 719 3488 
Q 719 3888 631 3984 
Q 509 4122 269 4122 
L 109 4122 
L 109 4238 
L 1653 4238 
Q 2328 4238 2648 4139 
Q 2969 4041 3192 3777 
Q 3416 3513 3416 3147 
Q 3416 2756 3161 2468 
Q 2906 2181 2372 2063 
L 3247 847 
Q 3547 428 3762 290 
Q 3978 153 4325 116 
L 4325 0 
z
M 1316 2178 
Q 1375 2178 1419 2176 
Q 1463 2175 1491 2175 
Q 2097 2175 2405 2437 
Q 2713 2700 2713 3106 
Q 2713 3503 2464 3751 
Q 2216 4000 1806 4000 
Q 1625 4000 1316 3941 
L 1316 2178 
z
" transform="scale(0.015625)"/>
       <path id="TimesNewRomanPSMT-77" d="M 41 2863 
L 1241 2863 
L 1241 2747 
Q 1075 2734 1023 2687 
Q 972 2641 972 2553 
Q 972 2456 1025 2319 
L 1638 672 
L 2253 2013 
L 2091 2434 
Q 2016 2622 1894 2694 
Q 1825 2738 1638 2747 
L 1638 2863 
L 3000 2863 
L 3000 2747 
Q 2775 2738 2681 2666 
Q 2619 2616 2619 2506 
Q 2619 2444 2644 2378 
L 3294 734 
L 3897 2319 
Q 3959 2488 3959 2588 
Q 3959 2647 3898 2694 
Q 3838 2741 3659 2747 
L 3659 2863 
L 4563 2863 
L 4563 2747 
Q 4291 2706 4163 2378 
L 3206 -88 
L 3078 -88 
L 2363 1741 
L 1528 -88 
L 1413 -88 
L 494 2319 
Q 403 2547 315 2626 
Q 228 2706 41 2747 
L 41 2863 
z
" transform="scale(0.015625)"/>
       <path id="TimesNewRomanPSMT-64" d="M 2222 322 
Q 2013 103 1813 7 
Q 1613 -88 1381 -88 
Q 913 -88 563 304 
Q 213 697 213 1313 
Q 213 1928 600 2439 
Q 988 2950 1597 2950 
Q 1975 2950 2222 2709 
L 2222 3238 
Q 2222 3728 2198 3840 
Q 2175 3953 2125 3993 
Q 2075 4034 2000 4034 
Q 1919 4034 1784 3984 
L 1744 4094 
L 2597 4444 
L 2738 4444 
L 2738 1134 
Q 2738 631 2761 520 
Q 2784 409 2836 365 
Q 2888 322 2956 322 
Q 3041 322 3181 375 
L 3216 266 
L 2366 -88 
L 2222 -88 
L 2222 322 
z
M 2222 541 
L 2222 2016 
Q 2203 2228 2109 2403 
Q 2016 2578 1861 2667 
Q 1706 2756 1559 2756 
Q 1284 2756 1069 2509 
Q 784 2184 784 1559 
Q 784 928 1059 592 
Q 1334 256 1672 256 
Q 1956 256 2222 541 
z
" transform="scale(0.015625)"/>
      </defs>
      <use xlink:href="#TimesNewRomanPSMT-48"/>
      <use xlink:href="#TimesNewRomanPSMT-6f" transform="translate(72.216797 0)"/>
      <use xlink:href="#TimesNewRomanPSMT-74" transform="translate(122.216797 0)"/>
      <use xlink:href="#TimesNewRomanPSMT-65" transform="translate(150 0)"/>
      <use xlink:href="#TimesNewRomanPSMT-6c" transform="translate(194.384766 0)"/>
      <use xlink:href="#TimesNewRomanPSMT-20" transform="translate(222.167969 0)"/>
      <use xlink:href="#TimesNewRomanPSMT-52" transform="translate(247.167969 0)"/>
      <use xlink:href="#TimesNewRomanPSMT-65" transform="translate(313.867188 0)"/>
      <use xlink:href="#TimesNewRomanPSMT-77" transform="translate(358.251953 0)"/>
      <use xlink:href="#TimesNewRomanPSMT-61" transform="translate(430.46875 0)"/>
      <use xlink:href="#TimesNewRomanPSMT-72" transform="translate(474.853516 0)"/>
      <use xlink:href="#TimesNewRomanPSMT-64" transform="translate(508.154297 0)"/>
      <use xlink:href="#TimesNewRomanPSMT-73" transform="translate(558.154297 0)"/>
     </g>
    </g>
    <g id="patch_8">
     <path d="M 415.667927 185.02125 
L 435.667927 185.02125 
L 435.667927 178.02125 
L 415.667927 178.02125 
z
" style="fill: #aec7e8"/>
    </g>
    <g id="text_17">
     <!-- Business Nomads -->
     <g transform="translate(443.667927 185.02125) scale(0.1 -0.1)">
      <defs>
       <path id="TimesNewRomanPSMT-42" d="M 2956 2163 
Q 3397 2069 3616 1863 
Q 3919 1575 3919 1159 
Q 3919 844 3719 555 
Q 3519 266 3170 133 
Q 2822 0 2106 0 
L 106 0 
L 106 116 
L 266 116 
Q 531 116 647 284 
Q 719 394 719 750 
L 719 3488 
Q 719 3881 628 3984 
Q 506 4122 266 4122 
L 106 4122 
L 106 4238 
L 1938 4238 
Q 2450 4238 2759 4163 
Q 3228 4050 3475 3764 
Q 3722 3478 3722 3106 
Q 3722 2788 3528 2536 
Q 3334 2284 2956 2163 
z
M 1319 2331 
Q 1434 2309 1582 2298 
Q 1731 2288 1909 2288 
Q 2366 2288 2595 2386 
Q 2825 2484 2947 2687 
Q 3069 2891 3069 3131 
Q 3069 3503 2766 3765 
Q 2463 4028 1881 4028 
Q 1569 4028 1319 3959 
L 1319 2331 
z
M 1319 306 
Q 1681 222 2034 222 
Q 2600 222 2897 476 
Q 3194 731 3194 1106 
Q 3194 1353 3059 1581 
Q 2925 1809 2622 1940 
Q 2319 2072 1872 2072 
Q 1678 2072 1540 2065 
Q 1403 2059 1319 2044 
L 1319 306 
z
" transform="scale(0.015625)"/>
       <path id="TimesNewRomanPSMT-75" d="M 2709 2863 
L 2709 1128 
Q 2709 631 2732 520 
Q 2756 409 2807 365 
Q 2859 322 2928 322 
Q 3025 322 3147 375 
L 3191 266 
L 2334 -88 
L 2194 -88 
L 2194 519 
Q 1825 119 1631 15 
Q 1438 -88 1222 -88 
Q 981 -88 804 51 
Q 628 191 559 409 
Q 491 628 491 1028 
L 491 2306 
Q 491 2509 447 2587 
Q 403 2666 317 2708 
Q 231 2750 6 2747 
L 6 2863 
L 1009 2863 
L 1009 947 
Q 1009 547 1148 422 
Q 1288 297 1484 297 
Q 1619 297 1789 381 
Q 1959 466 2194 703 
L 2194 2325 
Q 2194 2569 2105 2655 
Q 2016 2741 1734 2747 
L 1734 2863 
L 2709 2863 
z
" transform="scale(0.015625)"/>
       <path id="TimesNewRomanPSMT-69" d="M 928 4444 
Q 1059 4444 1151 4351 
Q 1244 4259 1244 4128 
Q 1244 3997 1151 3903 
Q 1059 3809 928 3809 
Q 797 3809 703 3903 
Q 609 3997 609 4128 
Q 609 4259 701 4351 
Q 794 4444 928 4444 
z
M 1188 2947 
L 1188 647 
Q 1188 378 1227 289 
Q 1266 200 1342 156 
Q 1419 113 1622 113 
L 1622 0 
L 231 0 
L 231 113 
Q 441 113 512 153 
Q 584 194 626 287 
Q 669 381 669 647 
L 669 1750 
Q 669 2216 641 2353 
Q 619 2453 572 2492 
Q 525 2531 444 2531 
Q 356 2531 231 2484 
L 188 2597 
L 1050 2947 
L 1188 2947 
z
" transform="scale(0.015625)"/>
       <path id="TimesNewRomanPSMT-6e" d="M 1034 2341 
Q 1538 2947 1994 2947 
Q 2228 2947 2397 2830 
Q 2566 2713 2666 2444 
Q 2734 2256 2734 1869 
L 2734 647 
Q 2734 375 2778 278 
Q 2813 200 2889 156 
Q 2966 113 3172 113 
L 3172 0 
L 1756 0 
L 1756 113 
L 1816 113 
Q 2016 113 2095 173 
Q 2175 234 2206 353 
Q 2219 400 2219 647 
L 2219 1819 
Q 2219 2209 2117 2386 
Q 2016 2563 1775 2563 
Q 1403 2563 1034 2156 
L 1034 647 
Q 1034 356 1069 288 
Q 1113 197 1189 155 
Q 1266 113 1500 113 
L 1500 0 
L 84 0 
L 84 113 
L 147 113 
Q 366 113 442 223 
Q 519 334 519 647 
L 519 1709 
Q 519 2225 495 2337 
Q 472 2450 423 2490 
Q 375 2531 294 2531 
Q 206 2531 84 2484 
L 38 2597 
L 900 2947 
L 1034 2947 
L 1034 2341 
z
" transform="scale(0.015625)"/>
       <path id="TimesNewRomanPSMT-4e" d="M -84 4238 
L 1066 4238 
L 3656 1059 
L 3656 3503 
Q 3656 3894 3569 3991 
Q 3453 4122 3203 4122 
L 3056 4122 
L 3056 4238 
L 4531 4238 
L 4531 4122 
L 4381 4122 
Q 4113 4122 4000 3959 
Q 3931 3859 3931 3503 
L 3931 -69 
L 3819 -69 
L 1025 3344 
L 1025 734 
Q 1025 344 1109 247 
Q 1228 116 1475 116 
L 1625 116 
L 1625 0 
L 150 0 
L 150 116 
L 297 116 
Q 569 116 681 278 
Q 750 378 750 734 
L 750 3681 
Q 566 3897 470 3965 
Q 375 4034 191 4094 
Q 100 4122 -84 4122 
L -84 4238 
z
" transform="scale(0.015625)"/>
      </defs>
      <use xlink:href="#TimesNewRomanPSMT-42"/>
      <use xlink:href="#TimesNewRomanPSMT-75" transform="translate(66.699219 0)"/>
      <use xlink:href="#TimesNewRomanPSMT-73" transform="translate(116.699219 0)"/>
      <use xlink:href="#TimesNewRomanPSMT-69" transform="translate(155.615234 0)"/>
      <use xlink:href="#TimesNewRomanPSMT-6e" transform="translate(183.398438 0)"/>
      <use xlink:href="#TimesNewRomanPSMT-65" transform="translate(233.398438 0)"/>
      <use xlink:href="#TimesNewRomanPSMT-73" transform="translate(277.783203 0)"/>
      <use xlink:href="#TimesNewRomanPSMT-73" transform="translate(316.699219 0)"/>
      <use xlink:href="#TimesNewRomanPSMT-20" transform="translate(355.615234 0)"/>
      <use xlink:href="#TimesNewRomanPSMT-4e" transform="translate(380.615234 0)"/>
      <use xlink:href="#TimesNewRomanPSMT-6f" transform="translate(452.832031 0)"/>
      <use xlink:href="#TimesNewRomanPSMT-6d" transform="translate(502.832031 0)"/>
      <use xlink:href="#TimesNewRomanPSMT-61" transform="translate(580.615234 0)"/>
      <use xlink:href="#TimesNewRomanPSMT-64" transform="translate(625 0)"/>
      <use xlink:href="#TimesNewRomanPSMT-73" transform="translate(675 0)"/>
     </g>
    </g>
   </g>
  </g>
 </g>
 <defs>
  <clipPath id="p26e05285e5">
   <rect x="10.091927" y="36.92125" width="388.8" height="277.2"/>
  </clipPath>
 </defs>
</svg>
