<?xml version="1.0" encoding="utf-8" standalone="no"?>
<!DOCTYPE svg PUBLIC "-//W3C//DTD SVG 1.1//EN"
  "http://www.w3.org/Graphics/SVG/1.1/DTD/svg11.dtd">
<svg xmlns:xlink="http://www.w3.org/1999/xlink" width="532.914802pt" height="363.785279pt" viewBox="0 0 532.914802 363.785279" xmlns="http://www.w3.org/2000/svg" version="1.1">
 <metadata>
  <rdf:RDF xmlns:dc="http://purl.org/dc/elements/1.1/" xmlns:cc="http://creativecommons.org/ns#" xmlns:rdf="http://www.w3.org/1999/02/22-rdf-syntax-ns#">
   <cc:Work>
    <dc:type rdf:resource="http://purl.org/dc/dcmitype/StillImage"/>
    <dc:date>2025-05-31T00:15:08.918570</dc:date>
    <dc:format>image/svg+xml</dc:format>
    <dc:creator>
     <cc:Agent>
      <dc:title>Matplotlib v3.10.3, https://matplotlib.org/</dc:title>
     </cc:Agent>
    </dc:creator>
   </cc:Work>
  </rdf:RDF>
 </metadata>
 <defs>
  <style type="text/css">*{stroke-linejoin: round; stroke-linecap: butt}</style>
 </defs>
 <g id="figure_1">
  <g id="patch_1">
   <path d="M 0 363.785279 
L 532.914802 363.785279 
L 532.914802 0 
L 0 0 
z
" style="fill: #ffffff"/>
  </g>
  <g id="axes_1">
   <g id="patch_2">
    <path d="M 10.091927 314.12125 
L 398.891927 314.12125 
L 398.891927 36.92125 
L 10.091927 36.92125 
z
" style="fill: #ffffff"/>
   </g>
   <g id="FillBetweenPolyCollection_1">
    <path d="M 27.764654 172.383212 
L 27.764654 193.34265 
L 29.078611 193.515362 
L 30.392569 193.655912 
L 31.706526 193.765797 
L 33.020484 193.846515 
L 34.334441 193.899563 
L 35.648398 193.92644 
L 36.962356 193.928641 
L 38.276313 193.907666 
L 39.590271 193.865011 
L 40.904228 193.802173 
L 42.218186 193.720651 
L 43.532143 193.621942 
L 44.8461 193.507543 
L 46.160058 193.378952 
L 47.474015 193.237666 
L 48.787973 193.085183 
L 50.10193 192.923 
L 51.415887 192.752615 
L 52.729845 192.575525 
L 54.043802 192.393227 
L 55.35776 192.207226 
L 56.671717 192.019421 
L 57.985675 191.832373 
L 59.299632 191.648706 
L 60.613589 191.471044 
L 61.927547 191.302009 
L 63.241504 191.144225 
L 64.555462 191.000316 
L 65.869419 190.872905 
L 67.183376 190.764615 
L 68.497334 190.678069 
L 69.811291 190.615394 
L 71.125249 190.576477 
L 72.439206 190.56058 
L 73.753164 190.566964 
L 75.067121 190.594891 
L 76.381078 190.643622 
L 77.695036 190.712419 
L 79.008993 190.800542 
L 80.322951 190.907253 
L 81.636908 191.031814 
L 82.950865 191.173228 
L 84.264823 191.40381 
L 85.57878 191.625684 
L 86.892738 191.818238 
L 88.206695 191.976622 
L 89.520653 192.095989 
L 90.83461 192.17149 
L 92.148567 192.198275 
L 93.462525 192.171497 
L 94.776482 192.115899 
L 96.09044 192.049236 
L 97.404397 191.931517 
L 98.718355 191.783977 
L 100.032312 191.629842 
L 101.346269 191.492337 
L 102.660227 191.394686 
L 103.974184 191.360116 
L 105.288142 191.411851 
L 106.602099 191.573116 
L 107.916056 191.867136 
L 109.230014 192.317137 
L 110.543971 192.940094 
L 111.857929 193.72147 
L 113.171886 194.63682 
L 114.485844 195.661694 
L 115.799801 196.771642 
L 117.113758 197.942216 
L 118.427716 199.148964 
L 119.741673 200.367438 
L 121.055631 201.573188 
L 122.369588 202.741764 
L 123.683545 203.849358 
L 124.997503 204.88268 
L 126.31146 205.837049 
L 127.625418 206.708032 
L 128.939375 207.491199 
L 130.253333 208.182119 
L 131.56729 208.776362 
L 132.881247 209.269495 
L 134.195205 209.65709 
L 135.509162 209.934714 
L 136.82312 210.097993 
L 138.137077 210.150845 
L 139.451034 210.114169 
L 140.764992 210.010945 
L 142.078949 209.864152 
L 143.392907 209.696768 
L 144.706864 209.531773 
L 146.020822 209.392145 
L 147.334779 209.300865 
L 148.648736 209.28091 
L 149.962694 209.35526 
L 151.276651 209.54153 
L 152.590609 209.826922 
L 153.904566 210.187936 
L 155.218523 210.601056 
L 156.532481 211.04277 
L 157.846438 211.489563 
L 159.160396 211.917921 
L 160.474353 212.30433 
L 161.788311 212.625277 
L 163.102268 212.857248 
L 164.416225 212.977633 
L 165.730183 212.981283 
L 167.04414 212.878849 
L 168.358098 212.681546 
L 169.672055 212.400592 
L 170.986013 212.047204 
L 172.29997 211.632599 
L 173.613927 211.167994 
L 174.927885 210.664608 
L 176.241842 210.133656 
L 177.5558 209.586351 
L 178.869757 209.032742 
L 180.183714 208.480224 
L 181.497672 207.935824 
L 182.811629 207.40657 
L 184.125587 206.89949 
L 185.439544 206.421611 
L 186.753502 205.979961 
L 188.067459 205.581567 
L 189.381416 205.233457 
L 190.695374 204.942657 
L 192.009331 204.715095 
L 193.323289 204.869126 
L 194.637246 204.993123 
L 195.951203 205.052101 
L 197.265161 205.062925 
L 198.579118 205.042457 
L 199.893076 205.007561 
L 201.207033 204.9751 
L 202.520991 204.961937 
L 203.834948 204.997367 
L 205.148905 205.216541 
L 206.462863 205.459843 
L 207.77682 205.724895 
L 209.090778 206.009354 
L 210.404735 206.310878 
L 211.718692 206.627123 
L 213.03265 206.955745 
L 214.346607 207.294402 
L 215.660565 207.640749 
L 216.974522 207.992445 
L 218.28848 208.347146 
L 219.602437 208.736147 
L 220.916394 209.200748 
L 222.230352 209.659891 
L 223.544309 210.105404 
L 224.858267 210.529119 
L 226.172224 210.922865 
L 227.486181 211.278471 
L 228.800139 211.587768 
L 230.114096 211.842585 
L 231.428054 212.074938 
L 232.742011 212.48209 
L 234.055969 212.909048 
L 235.369926 213.370058 
L 236.683883 213.879383 
L 237.997841 214.451285 
L 239.311798 215.100028 
L 240.625756 215.839875 
L 241.939713 216.685087 
L 243.25367 217.649929 
L 244.567628 218.748662 
L 245.881585 219.994752 
L 247.195543 221.379535 
L 248.5095 222.869884 
L 249.823458 224.431403 
L 251.137415 226.029697 
L 252.451372 227.630371 
L 253.76533 229.199031 
L 255.079287 230.701282 
L 256.393245 232.102729 
L 257.707202 233.368977 
L 259.02116 234.465643 
L 260.335117 235.369374 
L 261.649074 236.088146 
L 262.963032 236.63546 
L 264.276989 237.024821 
L 265.590947 237.269729 
L 266.904904 237.383688 
L 268.218861 237.380201 
L 269.532819 237.272769 
L 270.846776 237.074896 
L 272.160734 236.800083 
L 273.474691 236.461638 
L 274.788649 236.071269 
L 276.102606 235.639902 
L 277.416563 235.17846 
L 278.730521 234.697865 
L 280.044478 234.209039 
L 281.358436 233.722903 
L 282.672393 233.250379 
L 283.98635 232.80239 
L 285.300308 232.389858 
L 286.614265 232.023657 
L 287.928223 231.71308 
L 289.24218 231.707228 
L 290.556138 231.754715 
L 291.870095 231.747243 
L 293.184052 231.720114 
L 294.49801 231.708631 
L 295.811967 231.748097 
L 297.125925 231.873815 
L 298.439882 232.121088 
L 299.753839 232.620482 
L 301.067797 233.260933 
L 302.381754 234.013649 
L 303.695712 234.864421 
L 305.009669 235.799045 
L 306.323627 236.803313 
L 307.637584 237.887114 
L 308.951541 239.025572 
L 310.265499 240.16172 
L 311.579456 241.268461 
L 312.893414 242.372124 
L 314.207371 243.49737 
L 315.521328 244.608997 
L 316.835286 245.714767 
L 318.149243 246.822513 
L 319.463201 247.94007 
L 320.777158 249.07527 
L 322.091116 250.235949 
L 323.405073 251.429939 
L 324.71903 252.665075 
L 326.032988 253.949191 
L 327.346945 255.289953 
L 328.660903 256.687921 
L 329.97486 258.134042 
L 331.288818 259.618579 
L 332.602775 261.131796 
L 333.916732 262.663954 
L 335.23069 264.205319 
L 336.544647 265.746153 
L 337.858605 267.27672 
L 339.172562 268.787282 
L 340.486519 270.268104 
L 341.800477 271.707226 
L 343.114434 273.084768 
L 344.428392 274.379084 
L 345.742349 275.568529 
L 347.056307 276.631457 
L 348.370264 277.546224 
L 349.684221 278.291183 
L 350.998179 278.844691 
L 352.312136 279.185101 
L 353.626094 279.290769 
L 354.940051 279.143871 
L 356.254008 278.76713 
L 357.567966 278.207689 
L 358.881923 277.513026 
L 360.195881 276.73062 
L 361.509838 275.907948 
L 362.823796 275.092489 
L 364.137753 274.331721 
L 365.45171 273.673122 
L 366.765668 273.164172 
L 368.079625 272.852347 
L 369.393583 272.785127 
L 370.70754 273.584707 
L 372.021497 274.624624 
L 373.335455 275.729444 
L 374.649412 276.907863 
L 375.96337 278.168581 
L 377.277327 280.177277 
L 378.591285 283.151678 
L 379.905242 286.75051 
L 381.219199 291.02125 
L 381.219199 73.646968 
L 381.219199 73.646968 
L 379.905242 72.730007 
L 378.591285 72.250775 
L 377.277327 72.179188 
L 375.96337 72.873919 
L 374.649412 74.134637 
L 373.335455 75.313056 
L 372.021497 76.417876 
L 370.70754 77.457793 
L 369.393583 78.62564 
L 368.079625 80.565275 
L 366.765668 82.671899 
L 365.45171 84.915428 
L 364.137753 87.265781 
L 362.823796 89.692875 
L 361.509838 92.166628 
L 360.195881 94.656958 
L 358.881923 97.133782 
L 357.567966 99.567018 
L 356.254008 101.926584 
L 354.940051 104.182398 
L 353.626094 106.304466 
L 352.312136 108.269242 
L 350.998179 110.063887 
L 349.684221 111.676572 
L 348.370264 113.095467 
L 347.056307 114.308742 
L 345.742349 115.304568 
L 344.428392 116.071114 
L 343.114434 116.596552 
L 341.800477 116.86905 
L 340.486519 116.87678 
L 339.172562 116.615823 
L 337.858605 116.117773 
L 336.544647 115.42419 
L 335.23069 114.576632 
L 333.916732 113.61666 
L 332.602775 112.585831 
L 331.288818 111.525706 
L 329.97486 110.477843 
L 328.660903 109.483801 
L 327.346945 108.585139 
L 326.032988 107.821839 
L 324.71903 107.211639 
L 323.405073 106.755837 
L 322.091116 106.455348 
L 320.777158 106.311084 
L 319.463201 106.323958 
L 318.149243 106.494883 
L 316.835286 106.824772 
L 315.521328 107.314539 
L 314.207371 107.965097 
L 312.893414 108.777225 
L 311.579456 109.774039 
L 310.265499 110.88078 
L 308.951541 112.016928 
L 307.637584 113.155386 
L 306.323627 114.298931 
L 305.009669 115.418245 
L 303.695712 116.44925 
L 302.381754 117.35196 
L 301.067797 118.086389 
L 299.753839 118.612552 
L 298.439882 118.921412 
L 297.125925 119.168685 
L 295.811967 119.294403 
L 294.49801 119.333869 
L 293.184052 119.322386 
L 291.870095 119.295257 
L 290.556138 119.287785 
L 289.24218 119.335272 
L 287.928223 119.616623 
L 286.614265 120.45383 
L 285.300308 121.664252 
L 283.98635 123.236968 
L 282.672393 125.103787 
L 281.358436 127.194837 
L 280.044478 129.440244 
L 278.730521 131.770135 
L 277.416563 134.114638 
L 276.102606 136.403878 
L 274.788649 138.567983 
L 273.474691 140.53708 
L 272.160734 142.2415 
L 270.846776 143.641663 
L 269.532819 144.759611 
L 268.218861 145.624932 
L 266.904904 146.267212 
L 265.590947 146.716038 
L 264.276989 147.000998 
L 262.963032 147.151679 
L 261.649074 147.197667 
L 260.335117 147.168551 
L 259.02116 147.093916 
L 257.707202 146.999266 
L 256.393245 146.88694 
L 255.079287 146.75113 
L 253.76533 146.586014 
L 252.451372 146.385773 
L 251.137415 146.144587 
L 249.823458 145.856636 
L 248.5095 145.516099 
L 247.195543 145.117157 
L 245.881585 144.653991 
L 244.567628 144.121499 
L 243.25367 143.528479 
L 241.939713 142.896303 
L 240.625756 142.246791 
L 239.311798 141.601769 
L 237.997841 140.983058 
L 236.683883 140.412482 
L 235.369926 139.911862 
L 234.055969 139.503024 
L 232.742011 139.207788 
L 231.428054 139.047933 
L 230.114096 139.199915 
L 228.800139 139.454732 
L 227.486181 139.764029 
L 226.172224 140.119635 
L 224.858267 140.513381 
L 223.544309 140.937096 
L 222.230352 141.382609 
L 220.916394 141.841752 
L 219.602437 142.306353 
L 218.28848 142.841129 
L 216.974522 143.389128 
L 215.660565 143.907793 
L 214.346607 144.389927 
L 213.03265 144.82834 
L 211.718692 145.215841 
L 210.404735 145.545241 
L 209.090778 145.809349 
L 207.77682 146.000976 
L 206.462863 146.11293 
L 205.148905 146.138022 
L 203.834948 146.069994 
L 202.520991 146.080563 
L 201.207033 146.0674 
L 199.893076 146.034939 
L 198.579118 146.000043 
L 197.265161 145.979575 
L 195.951203 145.990399 
L 194.637246 146.049377 
L 193.323289 146.173374 
L 192.009331 146.4311 
L 190.695374 147.26786 
L 189.381416 148.378473 
L 188.067459 149.718056 
L 186.753502 151.232464 
L 185.439544 152.867549 
L 184.125587 154.569164 
L 182.811629 156.283164 
L 181.497672 157.955401 
L 180.183714 159.531728 
L 178.869757 160.958 
L 177.5558 162.180068 
L 176.241842 163.151442 
L 174.927885 163.880822 
L 173.613927 164.401123 
L 172.29997 164.74536 
L 170.986013 164.946548 
L 169.672055 165.037704 
L 168.358098 165.051842 
L 167.04414 165.02198 
L 165.730183 164.981132 
L 164.416225 164.962314 
L 163.102268 164.997855 
L 161.788311 165.101004 
L 160.474353 165.263922 
L 159.160396 165.477672 
L 157.846438 165.733323 
L 156.532481 166.021941 
L 155.218523 166.334591 
L 153.904566 166.662341 
L 152.590609 166.996258 
L 151.276651 167.327407 
L 149.962694 167.646856 
L 148.648736 167.946718 
L 147.334779 168.222075 
L 146.020822 168.468531 
L 144.706864 168.681692 
L 143.392907 168.857164 
L 142.078949 168.990551 
L 140.764992 169.077458 
L 139.451034 169.113491 
L 138.137077 169.094256 
L 136.82312 169.015356 
L 135.509162 168.873466 
L 134.195205 168.673983 
L 132.881247 168.42656 
L 131.56729 168.140884 
L 130.253333 167.826639 
L 128.939375 167.493509 
L 127.625418 167.15118 
L 126.31146 166.809335 
L 124.997503 166.47766 
L 123.683545 166.165839 
L 122.369588 165.883328 
L 121.055631 165.631821 
L 119.741673 165.40352 
L 118.427716 165.190048 
L 117.113758 164.983027 
L 115.799801 164.774082 
L 114.485844 164.554835 
L 113.171886 164.316911 
L 111.857929 164.051932 
L 110.543971 163.751521 
L 109.230014 163.407305 
L 107.916056 163.015176 
L 106.602099 162.584607 
L 105.288142 162.127762 
L 103.974184 161.656804 
L 102.660227 161.183898 
L 101.346269 160.721207 
L 100.032312 160.280896 
L 98.718355 159.875129 
L 97.404397 159.51607 
L 96.09044 159.215882 
L 94.776482 158.985787 
L 93.462525 158.871003 
L 92.148567 158.844225 
L 90.83461 158.87101 
L 89.520653 158.946511 
L 88.206695 159.065878 
L 86.892738 159.224262 
L 85.57878 159.416816 
L 84.264823 159.63869 
L 82.950865 159.900799 
L 81.636908 160.291414 
L 80.322951 160.732579 
L 79.008993 161.225004 
L 77.695036 161.769526 
L 76.381078 162.366981 
L 75.067121 163.018202 
L 73.753164 163.724026 
L 72.439206 164.485289 
L 71.125249 165.302825 
L 69.811291 166.177469 
L 68.497334 167.110058 
L 67.183376 168.097266 
L 65.869419 169.12094 
L 64.555462 170.159624 
L 63.241504 171.191863 
L 61.927547 172.1962 
L 60.613589 173.151179 
L 59.299632 174.035344 
L 57.985675 174.827239 
L 56.671717 175.505409 
L 55.35776 176.048397 
L 54.043802 176.436776 
L 52.729845 176.67263 
L 51.415887 176.771001 
L 50.10193 176.747111 
L 48.787973 176.616178 
L 47.474015 176.393424 
L 46.160058 176.094068 
L 44.8461 175.73333 
L 43.532143 175.326432 
L 42.218186 174.888592 
L 40.904228 174.435031 
L 39.590271 173.980969 
L 38.276313 173.541627 
L 36.962356 173.132225 
L 35.648398 172.767982 
L 34.334441 172.464119 
L 33.020484 172.235857 
L 31.706526 172.098415 
L 30.392569 172.067013 
L 29.078611 172.156872 
L 27.764654 172.383212 
z
" clip-path="url(#pc72d237c79)" style="fill: #1f77b4"/>
   </g>
   <g id="FillBetweenPolyCollection_2">
    <path d="M 27.764654 157.69985 
L 27.764654 172.383212 
L 29.078611 172.156872 
L 30.392569 172.067013 
L 31.706526 172.098415 
L 33.020484 172.235857 
L 34.334441 172.464119 
L 35.648398 172.767982 
L 36.962356 173.132225 
L 38.276313 173.541627 
L 39.590271 173.980969 
L 40.904228 174.435031 
L 42.218186 174.888592 
L 43.532143 175.326432 
L 44.8461 175.73333 
L 46.160058 176.094068 
L 47.474015 176.393424 
L 48.787973 176.616178 
L 50.10193 176.747111 
L 51.415887 176.771001 
L 52.729845 176.67263 
L 54.043802 176.436776 
L 55.35776 176.048397 
L 56.671717 175.505409 
L 57.985675 174.827239 
L 59.299632 174.035344 
L 60.613589 173.151179 
L 61.927547 172.1962 
L 63.241504 171.191863 
L 64.555462 170.159624 
L 65.869419 169.12094 
L 67.183376 168.097266 
L 68.497334 167.110058 
L 69.811291 166.177469 
L 71.125249 165.302825 
L 72.439206 164.485289 
L 73.753164 163.724026 
L 75.067121 163.018202 
L 76.381078 162.366981 
L 77.695036 161.769526 
L 79.008993 161.225004 
L 80.322951 160.732579 
L 81.636908 160.291414 
L 82.950865 159.900799 
L 84.264823 159.63869 
L 85.57878 159.416816 
L 86.892738 159.224262 
L 88.206695 159.065878 
L 89.520653 158.946511 
L 90.83461 158.87101 
L 92.148567 158.844225 
L 93.462525 158.871003 
L 94.776482 158.985787 
L 96.09044 159.215882 
L 97.404397 159.51607 
L 98.718355 159.875129 
L 100.032312 160.280896 
L 101.346269 160.721207 
L 102.660227 161.183898 
L 103.974184 161.656804 
L 105.288142 162.127762 
L 106.602099 162.584607 
L 107.916056 163.015176 
L 109.230014 163.407305 
L 110.543971 163.751521 
L 111.857929 164.051932 
L 113.171886 164.316911 
L 114.485844 164.554835 
L 115.799801 164.774082 
L 117.113758 164.983027 
L 118.427716 165.190048 
L 119.741673 165.40352 
L 121.055631 165.631821 
L 122.369588 165.883328 
L 123.683545 166.165839 
L 124.997503 166.47766 
L 126.31146 166.809335 
L 127.625418 167.15118 
L 128.939375 167.493509 
L 130.253333 167.826639 
L 131.56729 168.140884 
L 132.881247 168.42656 
L 134.195205 168.673983 
L 135.509162 168.873466 
L 136.82312 169.015356 
L 138.137077 169.094256 
L 139.451034 169.113491 
L 140.764992 169.077458 
L 142.078949 168.990551 
L 143.392907 168.857164 
L 144.706864 168.681692 
L 146.020822 168.468531 
L 147.334779 168.222075 
L 148.648736 167.946718 
L 149.962694 167.646856 
L 151.276651 167.327407 
L 152.590609 166.996258 
L 153.904566 166.662341 
L 155.218523 166.334591 
L 156.532481 166.021941 
L 157.846438 165.733323 
L 159.160396 165.477672 
L 160.474353 165.263922 
L 161.788311 165.101004 
L 163.102268 164.997855 
L 164.416225 164.962314 
L 165.730183 164.981132 
L 167.04414 165.02198 
L 168.358098 165.051842 
L 169.672055 165.037704 
L 170.986013 164.946548 
L 172.29997 164.74536 
L 173.613927 164.401123 
L 174.927885 163.880822 
L 176.241842 163.151442 
L 177.5558 162.180068 
L 178.869757 160.958 
L 180.183714 159.531728 
L 181.497672 157.955401 
L 182.811629 156.283164 
L 184.125587 154.569164 
L 185.439544 152.867549 
L 186.753502 151.232464 
L 188.067459 149.718056 
L 189.381416 148.378473 
L 190.695374 147.26786 
L 192.009331 146.4311 
L 193.323289 146.173374 
L 194.637246 146.049377 
L 195.951203 145.990399 
L 197.265161 145.979575 
L 198.579118 146.000043 
L 199.893076 146.034939 
L 201.207033 146.0674 
L 202.520991 146.080563 
L 203.834948 146.069994 
L 205.148905 146.138022 
L 206.462863 146.11293 
L 207.77682 146.000976 
L 209.090778 145.809349 
L 210.404735 145.545241 
L 211.718692 145.215841 
L 213.03265 144.82834 
L 214.346607 144.389927 
L 215.660565 143.907793 
L 216.974522 143.389128 
L 218.28848 142.841129 
L 219.602437 142.306353 
L 220.916394 141.841752 
L 222.230352 141.382609 
L 223.544309 140.937096 
L 224.858267 140.513381 
L 226.172224 140.119635 
L 227.486181 139.764029 
L 228.800139 139.454732 
L 230.114096 139.199915 
L 231.428054 139.047933 
L 232.742011 139.207788 
L 234.055969 139.503024 
L 235.369926 139.911862 
L 236.683883 140.412482 
L 237.997841 140.983058 
L 239.311798 141.601769 
L 240.625756 142.246791 
L 241.939713 142.896303 
L 243.25367 143.528479 
L 244.567628 144.121499 
L 245.881585 144.653991 
L 247.195543 145.117157 
L 248.5095 145.516099 
L 249.823458 145.856636 
L 251.137415 146.144587 
L 252.451372 146.385773 
L 253.76533 146.586014 
L 255.079287 146.75113 
L 256.393245 146.88694 
L 257.707202 146.999266 
L 259.02116 147.093916 
L 260.335117 147.168551 
L 261.649074 147.197667 
L 262.963032 147.151679 
L 264.276989 147.000998 
L 265.590947 146.716038 
L 266.904904 146.267212 
L 268.218861 145.624932 
L 269.532819 144.759611 
L 270.846776 143.641663 
L 272.160734 142.2415 
L 273.474691 140.53708 
L 274.788649 138.567983 
L 276.102606 136.403878 
L 277.416563 134.114638 
L 278.730521 131.770135 
L 280.044478 129.440244 
L 281.358436 127.194837 
L 282.672393 125.103787 
L 283.98635 123.236968 
L 285.300308 121.664252 
L 286.614265 120.45383 
L 287.928223 119.616623 
L 289.24218 119.335272 
L 290.556138 119.287785 
L 291.870095 119.295257 
L 293.184052 119.322386 
L 294.49801 119.333869 
L 295.811967 119.294403 
L 297.125925 119.168685 
L 298.439882 118.921412 
L 299.753839 118.612552 
L 301.067797 118.086389 
L 302.381754 117.35196 
L 303.695712 116.44925 
L 305.009669 115.418245 
L 306.323627 114.298931 
L 307.637584 113.155386 
L 308.951541 112.016928 
L 310.265499 110.88078 
L 311.579456 109.774039 
L 312.893414 108.777225 
L 314.207371 107.965097 
L 315.521328 107.314539 
L 316.835286 106.824772 
L 318.149243 106.494883 
L 319.463201 106.323958 
L 320.777158 106.311084 
L 322.091116 106.455348 
L 323.405073 106.755837 
L 324.71903 107.211639 
L 326.032988 107.821839 
L 327.346945 108.585139 
L 328.660903 109.483801 
L 329.97486 110.477843 
L 331.288818 111.525706 
L 332.602775 112.585831 
L 333.916732 113.61666 
L 335.23069 114.576632 
L 336.544647 115.42419 
L 337.858605 116.117773 
L 339.172562 116.615823 
L 340.486519 116.87678 
L 341.800477 116.86905 
L 343.114434 116.596552 
L 344.428392 116.071114 
L 345.742349 115.304568 
L 347.056307 114.308742 
L 348.370264 113.095467 
L 349.684221 111.676572 
L 350.998179 110.063887 
L 352.312136 108.269242 
L 353.626094 106.304466 
L 354.940051 104.182398 
L 356.254008 101.926584 
L 357.567966 99.567018 
L 358.881923 97.133782 
L 360.195881 94.656958 
L 361.509838 92.166628 
L 362.823796 89.692875 
L 364.137753 87.265781 
L 365.45171 84.915428 
L 366.765668 82.671899 
L 368.079625 80.565275 
L 369.393583 78.62564 
L 370.70754 77.457793 
L 372.021497 76.417876 
L 373.335455 75.313056 
L 374.649412 74.134637 
L 375.96337 72.873919 
L 377.277327 72.179188 
L 378.591285 72.250775 
L 379.905242 72.730007 
L 381.219199 73.646968 
L 381.219199 60.02125 
L 381.219199 60.02125 
L 379.905242 64.29199 
L 378.591285 67.890822 
L 377.277327 70.865223 
L 375.96337 72.873919 
L 374.649412 74.134637 
L 373.335455 75.313056 
L 372.021497 76.417876 
L 370.70754 77.457793 
L 369.393583 78.257373 
L 368.079625 78.190153 
L 366.765668 77.878328 
L 365.45171 77.369378 
L 364.137753 76.710779 
L 362.823796 75.950011 
L 361.509838 75.134552 
L 360.195881 74.31188 
L 358.881923 73.529474 
L 357.567966 72.834811 
L 356.254008 72.27537 
L 354.940051 71.898629 
L 353.626094 71.751731 
L 352.312136 71.857399 
L 350.998179 72.197809 
L 349.684221 72.751317 
L 348.370264 73.496276 
L 347.056307 74.411043 
L 345.742349 75.473971 
L 344.428392 76.663416 
L 343.114434 77.957732 
L 341.800477 79.335274 
L 340.486519 80.774396 
L 339.172562 82.255218 
L 337.858605 83.76578 
L 336.544647 85.296347 
L 335.23069 86.837181 
L 333.916732 88.378546 
L 332.602775 89.910704 
L 331.288818 91.423921 
L 329.97486 92.908458 
L 328.660903 94.354579 
L 327.346945 95.752547 
L 326.032988 97.093309 
L 324.71903 98.377425 
L 323.405073 99.612561 
L 322.091116 100.806551 
L 320.777158 101.96723 
L 319.463201 103.10243 
L 318.149243 104.219987 
L 316.835286 105.327733 
L 315.521328 106.433503 
L 314.207371 107.54513 
L 312.893414 108.670376 
L 311.579456 109.774039 
L 310.265499 110.88078 
L 308.951541 112.016928 
L 307.637584 113.155386 
L 306.323627 114.239187 
L 305.009669 115.243455 
L 303.695712 116.178079 
L 302.381754 117.028851 
L 301.067797 117.781567 
L 299.753839 118.422018 
L 298.439882 118.921412 
L 297.125925 119.168685 
L 295.811967 119.294403 
L 294.49801 119.333869 
L 293.184052 119.322386 
L 291.870095 119.295257 
L 290.556138 119.287785 
L 289.24218 119.335272 
L 287.928223 119.32942 
L 286.614265 119.018843 
L 285.300308 118.652642 
L 283.98635 118.24011 
L 282.672393 117.792121 
L 281.358436 117.319597 
L 280.044478 116.833461 
L 278.730521 116.344635 
L 277.416563 115.86404 
L 276.102606 115.402598 
L 274.788649 114.971231 
L 273.474691 114.580862 
L 272.160734 114.242417 
L 270.846776 113.967604 
L 269.532819 113.769731 
L 268.218861 113.662299 
L 266.904904 113.658812 
L 265.590947 113.772771 
L 264.276989 114.017679 
L 262.963032 114.40704 
L 261.649074 114.954354 
L 260.335117 115.673126 
L 259.02116 116.576857 
L 257.707202 117.673523 
L 256.393245 118.939771 
L 255.079287 120.341218 
L 253.76533 121.843469 
L 252.451372 123.412129 
L 251.137415 125.012803 
L 249.823458 126.611097 
L 248.5095 128.172616 
L 247.195543 129.662965 
L 245.881585 131.047748 
L 244.567628 132.293838 
L 243.25367 133.392571 
L 241.939713 134.357413 
L 240.625756 135.202625 
L 239.311798 135.942472 
L 237.997841 136.591215 
L 236.683883 137.163117 
L 235.369926 137.672442 
L 234.055969 138.133452 
L 232.742011 138.56041 
L 231.428054 138.967562 
L 230.114096 139.199915 
L 228.800139 139.454732 
L 227.486181 139.764029 
L 226.172224 140.119635 
L 224.858267 140.513381 
L 223.544309 140.937096 
L 222.230352 141.382609 
L 220.916394 141.841752 
L 219.602437 142.306353 
L 218.28848 142.695354 
L 216.974522 143.050055 
L 215.660565 143.401751 
L 214.346607 143.748098 
L 213.03265 144.086755 
L 211.718692 144.415377 
L 210.404735 144.731622 
L 209.090778 145.033146 
L 207.77682 145.317605 
L 206.462863 145.582657 
L 205.148905 145.825959 
L 203.834948 146.045133 
L 202.520991 146.080563 
L 201.207033 146.0674 
L 199.893076 146.034939 
L 198.579118 146.000043 
L 197.265161 145.979575 
L 195.951203 145.990399 
L 194.637246 146.049377 
L 193.323289 146.173374 
L 192.009331 146.327405 
L 190.695374 146.099843 
L 189.381416 145.809043 
L 188.067459 145.460933 
L 186.753502 145.062539 
L 185.439544 144.620889 
L 184.125587 144.14301 
L 182.811629 143.63593 
L 181.497672 143.106676 
L 180.183714 142.562276 
L 178.869757 142.009758 
L 177.5558 141.456149 
L 176.241842 140.908844 
L 174.927885 140.377892 
L 173.613927 139.874506 
L 172.29997 139.409901 
L 170.986013 138.995296 
L 169.672055 138.641908 
L 168.358098 138.360954 
L 167.04414 138.163651 
L 165.730183 138.061217 
L 164.416225 138.064867 
L 163.102268 138.185252 
L 161.788311 138.417223 
L 160.474353 138.73817 
L 159.160396 139.124579 
L 157.846438 139.552937 
L 156.532481 139.99973 
L 155.218523 140.441444 
L 153.904566 140.854564 
L 152.590609 141.215578 
L 151.276651 141.50097 
L 149.962694 141.68724 
L 148.648736 141.76159 
L 147.334779 141.741635 
L 146.020822 141.650355 
L 144.706864 141.510727 
L 143.392907 141.345732 
L 142.078949 141.178348 
L 140.764992 141.031555 
L 139.451034 140.928331 
L 138.137077 140.891655 
L 136.82312 140.944507 
L 135.509162 141.107786 
L 134.195205 141.38541 
L 132.881247 141.773005 
L 131.56729 142.266138 
L 130.253333 142.860381 
L 128.939375 143.551301 
L 127.625418 144.334468 
L 126.31146 145.205451 
L 124.997503 146.15982 
L 123.683545 147.193142 
L 122.369588 148.300736 
L 121.055631 149.469312 
L 119.741673 150.675062 
L 118.427716 151.893536 
L 117.113758 153.100284 
L 115.799801 154.270858 
L 114.485844 155.380806 
L 113.171886 156.40568 
L 111.857929 157.32103 
L 110.543971 158.102406 
L 109.230014 158.725363 
L 107.916056 159.175364 
L 106.602099 159.469384 
L 105.288142 159.630649 
L 103.974184 159.682384 
L 102.660227 159.647814 
L 101.346269 159.550163 
L 100.032312 159.412658 
L 98.718355 159.258523 
L 97.404397 159.110983 
L 96.09044 158.993264 
L 94.776482 158.926601 
L 93.462525 158.871003 
L 92.148567 158.844225 
L 90.83461 158.87101 
L 89.520653 158.946511 
L 88.206695 159.065878 
L 86.892738 159.224262 
L 85.57878 159.416816 
L 84.264823 159.63869 
L 82.950865 159.869272 
L 81.636908 160.010686 
L 80.322951 160.135247 
L 79.008993 160.241958 
L 77.695036 160.330081 
L 76.381078 160.398878 
L 75.067121 160.447609 
L 73.753164 160.475536 
L 72.439206 160.48192 
L 71.125249 160.466023 
L 69.811291 160.427106 
L 68.497334 160.364431 
L 67.183376 160.277885 
L 65.869419 160.169595 
L 64.555462 160.042184 
L 63.241504 159.898275 
L 61.927547 159.740491 
L 60.613589 159.571456 
L 59.299632 159.393794 
L 57.985675 159.210127 
L 56.671717 159.023079 
L 55.35776 158.835274 
L 54.043802 158.649273 
L 52.729845 158.466975 
L 51.415887 158.289885 
L 50.10193 158.1195 
L 48.787973 157.957317 
L 47.474015 157.804834 
L 46.160058 157.663548 
L 44.8461 157.534957 
L 43.532143 157.420558 
L 42.218186 157.321849 
L 40.904228 157.240327 
L 39.590271 157.177489 
L 38.276313 157.134834 
L 36.962356 157.113859 
L 35.648398 157.11606 
L 34.334441 157.142937 
L 33.020484 157.195985 
L 31.706526 157.276703 
L 30.392569 157.386588 
L 29.078611 157.527138 
L 27.764654 157.69985 
z
" clip-path="url(#pc72d237c79)" style="fill: #aec7e8"/>
   </g>
   <g id="matplotlib.axis_1">
    <g id="xtick_1">
     <g id="line2d_1">
      <defs>
       <path id="m3baa5d531f" d="M 0 0 
L 0 3.5 
" style="stroke: #000000; stroke-width: 0.8"/>
      </defs>
      <g>
       <use xlink:href="#m3baa5d531f" x="27.764654" y="314.12125" style="stroke: #000000; stroke-width: 0.8"/>
      </g>
     </g>
     <g id="text_1">
      <!-- 1960 -->
      <g transform="translate(12.109973 340.173358) rotate(-45) scale(0.1 -0.1)">
       <defs>
        <path id="TimesNewRomanPSMT-31" d="M 750 3822 
L 1781 4325 
L 1884 4325 
L 1884 747 
Q 1884 391 1914 303 
Q 1944 216 2037 169 
Q 2131 122 2419 116 
L 2419 0 
L 825 0 
L 825 116 
Q 1125 122 1212 167 
Q 1300 213 1334 289 
Q 1369 366 1369 747 
L 1369 3034 
Q 1369 3497 1338 3628 
Q 1316 3728 1258 3775 
Q 1200 3822 1119 3822 
Q 1003 3822 797 3725 
L 750 3822 
z
" transform="scale(0.015625)"/>
        <path id="TimesNewRomanPSMT-39" d="M 338 -88 
L 338 28 
Q 744 34 1094 217 
Q 1444 400 1770 856 
Q 2097 1313 2225 1859 
Q 1734 1544 1338 1544 
Q 891 1544 572 1889 
Q 253 2234 253 2806 
Q 253 3363 572 3797 
Q 956 4325 1575 4325 
Q 2097 4325 2469 3894 
Q 2925 3359 2925 2575 
Q 2925 1869 2578 1258 
Q 2231 647 1613 244 
Q 1109 -88 516 -88 
L 338 -88 
z
M 2275 2091 
Q 2331 2497 2331 2741 
Q 2331 3044 2228 3395 
Q 2125 3747 1936 3934 
Q 1747 4122 1506 4122 
Q 1228 4122 1018 3872 
Q 809 3622 809 3128 
Q 809 2469 1088 2097 
Q 1291 1828 1588 1828 
Q 1731 1828 1928 1897 
Q 2125 1966 2275 2091 
z
" transform="scale(0.015625)"/>
        <path id="TimesNewRomanPSMT-36" d="M 2869 4325 
L 2869 4209 
Q 2456 4169 2195 4045 
Q 1934 3922 1679 3669 
Q 1425 3416 1258 3105 
Q 1091 2794 978 2366 
Q 1428 2675 1881 2675 
Q 2316 2675 2634 2325 
Q 2953 1975 2953 1425 
Q 2953 894 2631 456 
Q 2244 -75 1606 -75 
Q 1172 -75 869 213 
Q 275 772 275 1663 
Q 275 2231 503 2743 
Q 731 3256 1154 3653 
Q 1578 4050 1965 4187 
Q 2353 4325 2688 4325 
L 2869 4325 
z
M 925 2138 
Q 869 1716 869 1456 
Q 869 1156 980 804 
Q 1091 453 1309 247 
Q 1469 100 1697 100 
Q 1969 100 2183 356 
Q 2397 613 2397 1088 
Q 2397 1622 2184 2012 
Q 1972 2403 1581 2403 
Q 1463 2403 1327 2353 
Q 1191 2303 925 2138 
z
" transform="scale(0.015625)"/>
        <path id="TimesNewRomanPSMT-30" d="M 231 2094 
Q 231 2819 450 3342 
Q 669 3866 1031 4122 
Q 1313 4325 1613 4325 
Q 2100 4325 2488 3828 
Q 2972 3213 2972 2159 
Q 2972 1422 2759 906 
Q 2547 391 2217 158 
Q 1888 -75 1581 -75 
Q 975 -75 572 641 
Q 231 1244 231 2094 
z
M 844 2016 
Q 844 1141 1059 588 
Q 1238 122 1591 122 
Q 1759 122 1940 273 
Q 2122 425 2216 781 
Q 2359 1319 2359 2297 
Q 2359 3022 2209 3506 
Q 2097 3866 1919 4016 
Q 1791 4119 1609 4119 
Q 1397 4119 1231 3928 
Q 1006 3669 925 3112 
Q 844 2556 844 2016 
z
" transform="scale(0.015625)"/>
       </defs>
       <use xlink:href="#TimesNewRomanPSMT-31"/>
       <use xlink:href="#TimesNewRomanPSMT-39" transform="translate(50 0)"/>
       <use xlink:href="#TimesNewRomanPSMT-36" transform="translate(100 0)"/>
       <use xlink:href="#TimesNewRomanPSMT-30" transform="translate(150 0)"/>
      </g>
     </g>
    </g>
    <g id="xtick_2">
     <g id="line2d_2">
      <g>
       <use xlink:href="#m3baa5d531f" x="54.953465" y="314.12125" style="stroke: #000000; stroke-width: 0.8"/>
      </g>
     </g>
     <g id="text_2">
      <!-- 1962 -->
      <g transform="translate(39.298784 340.173358) rotate(-45) scale(0.1 -0.1)">
       <defs>
        <path id="TimesNewRomanPSMT-32" d="M 2934 816 
L 2638 0 
L 138 0 
L 138 116 
Q 1241 1122 1691 1759 
Q 2141 2397 2141 2925 
Q 2141 3328 1894 3587 
Q 1647 3847 1303 3847 
Q 991 3847 742 3664 
Q 494 3481 375 3128 
L 259 3128 
Q 338 3706 661 4015 
Q 984 4325 1469 4325 
Q 1984 4325 2329 3994 
Q 2675 3663 2675 3213 
Q 2675 2891 2525 2569 
Q 2294 2063 1775 1497 
Q 997 647 803 472 
L 1909 472 
Q 2247 472 2383 497 
Q 2519 522 2628 598 
Q 2738 675 2819 816 
L 2934 816 
z
" transform="scale(0.015625)"/>
       </defs>
       <use xlink:href="#TimesNewRomanPSMT-31"/>
       <use xlink:href="#TimesNewRomanPSMT-39" transform="translate(50 0)"/>
       <use xlink:href="#TimesNewRomanPSMT-36" transform="translate(100 0)"/>
       <use xlink:href="#TimesNewRomanPSMT-32" transform="translate(150 0)"/>
      </g>
     </g>
    </g>
    <g id="xtick_3">
     <g id="line2d_3">
      <g>
       <use xlink:href="#m3baa5d531f" x="82.142276" y="314.12125" style="stroke: #000000; stroke-width: 0.8"/>
      </g>
     </g>
     <g id="text_3">
      <!-- 1964 -->
      <g transform="translate(66.487595 340.173358) rotate(-45) scale(0.1 -0.1)">
       <defs>
        <path id="TimesNewRomanPSMT-34" d="M 2978 1563 
L 2978 1119 
L 2409 1119 
L 2409 0 
L 1894 0 
L 1894 1119 
L 100 1119 
L 100 1519 
L 2066 4325 
L 2409 4325 
L 2409 1563 
L 2978 1563 
z
M 1894 1563 
L 1894 3666 
L 406 1563 
L 1894 1563 
z
" transform="scale(0.015625)"/>
       </defs>
       <use xlink:href="#TimesNewRomanPSMT-31"/>
       <use xlink:href="#TimesNewRomanPSMT-39" transform="translate(50 0)"/>
       <use xlink:href="#TimesNewRomanPSMT-36" transform="translate(100 0)"/>
       <use xlink:href="#TimesNewRomanPSMT-34" transform="translate(150 0)"/>
      </g>
     </g>
    </g>
    <g id="xtick_4">
     <g id="line2d_4">
      <g>
       <use xlink:href="#m3baa5d531f" x="109.331088" y="314.12125" style="stroke: #000000; stroke-width: 0.8"/>
      </g>
     </g>
     <g id="text_4">
      <!-- 1966 -->
      <g transform="translate(93.676406 340.173358) rotate(-45) scale(0.1 -0.1)">
       <use xlink:href="#TimesNewRomanPSMT-31"/>
       <use xlink:href="#TimesNewRomanPSMT-39" transform="translate(50 0)"/>
       <use xlink:href="#TimesNewRomanPSMT-36" transform="translate(100 0)"/>
       <use xlink:href="#TimesNewRomanPSMT-36" transform="translate(150 0)"/>
      </g>
     </g>
    </g>
    <g id="xtick_5">
     <g id="line2d_5">
      <g>
       <use xlink:href="#m3baa5d531f" x="136.519899" y="314.12125" style="stroke: #000000; stroke-width: 0.8"/>
      </g>
     </g>
     <g id="text_5">
      <!-- 1968 -->
      <g transform="translate(120.865217 340.173358) rotate(-45) scale(0.1 -0.1)">
       <defs>
        <path id="TimesNewRomanPSMT-38" d="M 1228 2134 
Q 725 2547 579 2797 
Q 434 3047 434 3316 
Q 434 3728 753 4026 
Q 1072 4325 1600 4325 
Q 2113 4325 2425 4047 
Q 2738 3769 2738 3413 
Q 2738 3175 2569 2928 
Q 2400 2681 1866 2347 
Q 2416 1922 2594 1678 
Q 2831 1359 2831 1006 
Q 2831 559 2490 242 
Q 2150 -75 1597 -75 
Q 994 -75 656 303 
Q 388 606 388 966 
Q 388 1247 577 1523 
Q 766 1800 1228 2134 
z
M 1719 2469 
Q 2094 2806 2194 3001 
Q 2294 3197 2294 3444 
Q 2294 3772 2109 3958 
Q 1925 4144 1606 4144 
Q 1288 4144 1088 3959 
Q 888 3775 888 3528 
Q 888 3366 970 3203 
Q 1053 3041 1206 2894 
L 1719 2469 
z
M 1375 2016 
Q 1116 1797 991 1539 
Q 866 1281 866 981 
Q 866 578 1086 336 
Q 1306 94 1647 94 
Q 1984 94 2187 284 
Q 2391 475 2391 747 
Q 2391 972 2272 1150 
Q 2050 1481 1375 2016 
z
" transform="scale(0.015625)"/>
       </defs>
       <use xlink:href="#TimesNewRomanPSMT-31"/>
       <use xlink:href="#TimesNewRomanPSMT-39" transform="translate(50 0)"/>
       <use xlink:href="#TimesNewRomanPSMT-36" transform="translate(100 0)"/>
       <use xlink:href="#TimesNewRomanPSMT-38" transform="translate(150 0)"/>
      </g>
     </g>
    </g>
    <g id="xtick_6">
     <g id="line2d_6">
      <g>
       <use xlink:href="#m3baa5d531f" x="163.70871" y="314.12125" style="stroke: #000000; stroke-width: 0.8"/>
      </g>
     </g>
     <g id="text_6">
      <!-- 1970 -->
      <g transform="translate(148.054029 340.173358) rotate(-45) scale(0.1 -0.1)">
       <defs>
        <path id="TimesNewRomanPSMT-37" d="M 644 4238 
L 2916 4238 
L 2916 4119 
L 1503 -88 
L 1153 -88 
L 2419 3728 
L 1253 3728 
Q 900 3728 750 3644 
Q 488 3500 328 3200 
L 238 3234 
L 644 4238 
z
" transform="scale(0.015625)"/>
       </defs>
       <use xlink:href="#TimesNewRomanPSMT-31"/>
       <use xlink:href="#TimesNewRomanPSMT-39" transform="translate(50 0)"/>
       <use xlink:href="#TimesNewRomanPSMT-37" transform="translate(100 0)"/>
       <use xlink:href="#TimesNewRomanPSMT-30" transform="translate(150 0)"/>
      </g>
     </g>
    </g>
    <g id="xtick_7">
     <g id="line2d_7">
      <g>
       <use xlink:href="#m3baa5d531f" x="190.897521" y="314.12125" style="stroke: #000000; stroke-width: 0.8"/>
      </g>
     </g>
     <g id="text_7">
      <!-- 1972 -->
      <g transform="translate(175.24284 340.173358) rotate(-45) scale(0.1 -0.1)">
       <use xlink:href="#TimesNewRomanPSMT-31"/>
       <use xlink:href="#TimesNewRomanPSMT-39" transform="translate(50 0)"/>
       <use xlink:href="#TimesNewRomanPSMT-37" transform="translate(100 0)"/>
       <use xlink:href="#TimesNewRomanPSMT-32" transform="translate(150 0)"/>
      </g>
     </g>
    </g>
    <g id="xtick_8">
     <g id="line2d_8">
      <g>
       <use xlink:href="#m3baa5d531f" x="218.086332" y="314.12125" style="stroke: #000000; stroke-width: 0.8"/>
      </g>
     </g>
     <g id="text_8">
      <!-- 1974 -->
      <g transform="translate(202.431651 340.173358) rotate(-45) scale(0.1 -0.1)">
       <use xlink:href="#TimesNewRomanPSMT-31"/>
       <use xlink:href="#TimesNewRomanPSMT-39" transform="translate(50 0)"/>
       <use xlink:href="#TimesNewRomanPSMT-37" transform="translate(100 0)"/>
       <use xlink:href="#TimesNewRomanPSMT-34" transform="translate(150 0)"/>
      </g>
     </g>
    </g>
    <g id="xtick_9">
     <g id="line2d_9">
      <g>
       <use xlink:href="#m3baa5d531f" x="245.275143" y="314.12125" style="stroke: #000000; stroke-width: 0.8"/>
      </g>
     </g>
     <g id="text_9">
      <!-- 1976 -->
      <g transform="translate(229.620462 340.173358) rotate(-45) scale(0.1 -0.1)">
       <use xlink:href="#TimesNewRomanPSMT-31"/>
       <use xlink:href="#TimesNewRomanPSMT-39" transform="translate(50 0)"/>
       <use xlink:href="#TimesNewRomanPSMT-37" transform="translate(100 0)"/>
       <use xlink:href="#TimesNewRomanPSMT-36" transform="translate(150 0)"/>
      </g>
     </g>
    </g>
    <g id="xtick_10">
     <g id="line2d_10">
      <g>
       <use xlink:href="#m3baa5d531f" x="272.463955" y="314.12125" style="stroke: #000000; stroke-width: 0.8"/>
      </g>
     </g>
     <g id="text_10">
      <!-- 1978 -->
      <g transform="translate(256.809273 340.173358) rotate(-45) scale(0.1 -0.1)">
       <use xlink:href="#TimesNewRomanPSMT-31"/>
       <use xlink:href="#TimesNewRomanPSMT-39" transform="translate(50 0)"/>
       <use xlink:href="#TimesNewRomanPSMT-37" transform="translate(100 0)"/>
       <use xlink:href="#TimesNewRomanPSMT-38" transform="translate(150 0)"/>
      </g>
     </g>
    </g>
    <g id="xtick_11">
     <g id="line2d_11">
      <g>
       <use xlink:href="#m3baa5d531f" x="299.652766" y="314.12125" style="stroke: #000000; stroke-width: 0.8"/>
      </g>
     </g>
     <g id="text_11">
      <!-- 1980 -->
      <g transform="translate(283.998085 340.173358) rotate(-45) scale(0.1 -0.1)">
       <use xlink:href="#TimesNewRomanPSMT-31"/>
       <use xlink:href="#TimesNewRomanPSMT-39" transform="translate(50 0)"/>
       <use xlink:href="#TimesNewRomanPSMT-38" transform="translate(100 0)"/>
       <use xlink:href="#TimesNewRomanPSMT-30" transform="translate(150 0)"/>
      </g>
     </g>
    </g>
    <g id="xtick_12">
     <g id="line2d_12">
      <g>
       <use xlink:href="#m3baa5d531f" x="326.841577" y="314.12125" style="stroke: #000000; stroke-width: 0.8"/>
      </g>
     </g>
     <g id="text_12">
      <!-- 1982 -->
      <g transform="translate(311.186896 340.173358) rotate(-45) scale(0.1 -0.1)">
       <use xlink:href="#TimesNewRomanPSMT-31"/>
       <use xlink:href="#TimesNewRomanPSMT-39" transform="translate(50 0)"/>
       <use xlink:href="#TimesNewRomanPSMT-38" transform="translate(100 0)"/>
       <use xlink:href="#TimesNewRomanPSMT-32" transform="translate(150 0)"/>
      </g>
     </g>
    </g>
    <g id="xtick_13">
     <g id="line2d_13">
      <g>
       <use xlink:href="#m3baa5d531f" x="354.030388" y="314.12125" style="stroke: #000000; stroke-width: 0.8"/>
      </g>
     </g>
     <g id="text_13">
      <!-- 1984 -->
      <g transform="translate(338.375707 340.173358) rotate(-45) scale(0.1 -0.1)">
       <use xlink:href="#TimesNewRomanPSMT-31"/>
       <use xlink:href="#TimesNewRomanPSMT-39" transform="translate(50 0)"/>
       <use xlink:href="#TimesNewRomanPSMT-38" transform="translate(100 0)"/>
       <use xlink:href="#TimesNewRomanPSMT-34" transform="translate(150 0)"/>
      </g>
     </g>
    </g>
    <g id="xtick_14">
     <g id="line2d_14">
      <g>
       <use xlink:href="#m3baa5d531f" x="381.219199" y="314.12125" style="stroke: #000000; stroke-width: 0.8"/>
      </g>
     </g>
     <g id="text_14">
      <!-- 1986 -->
      <g transform="translate(365.564518 340.173358) rotate(-45) scale(0.1 -0.1)">
       <use xlink:href="#TimesNewRomanPSMT-31"/>
       <use xlink:href="#TimesNewRomanPSMT-39" transform="translate(50 0)"/>
       <use xlink:href="#TimesNewRomanPSMT-38" transform="translate(100 0)"/>
       <use xlink:href="#TimesNewRomanPSMT-36" transform="translate(150 0)"/>
      </g>
     </g>
    </g>
    <g id="text_15">
     <!-- Year -->
     <g transform="translate(193.434114 354.018404) scale(0.12 -0.12)">
      <defs>
       <path id="TimesNewRomanPSMT-59" d="M 3050 4238 
L 4528 4238 
L 4528 4122 
L 4447 4122 
Q 4366 4122 4209 4050 
Q 4053 3978 3925 3843 
Q 3797 3709 3609 3406 
L 2588 1797 
L 2588 734 
Q 2588 344 2675 247 
Q 2794 116 3050 116 
L 3188 116 
L 3188 0 
L 1388 0 
L 1388 116 
L 1538 116 
Q 1806 116 1919 278 
Q 1988 378 1988 734 
L 1988 1738 
L 825 3513 
Q 619 3825 545 3903 
Q 472 3981 241 4091 
Q 178 4122 59 4122 
L 59 4238 
L 1872 4238 
L 1872 4122 
L 1778 4122 
Q 1631 4122 1507 4053 
Q 1384 3984 1384 3847 
Q 1384 3734 1575 3441 
L 2459 2075 
L 3291 3381 
Q 3478 3675 3478 3819 
Q 3478 3906 3433 3975 
Q 3388 4044 3303 4083 
Q 3219 4122 3050 4122 
L 3050 4238 
z
" transform="scale(0.015625)"/>
       <path id="TimesNewRomanPSMT-65" d="M 681 1784 
Q 678 1147 991 784 
Q 1303 422 1725 422 
Q 2006 422 2214 576 
Q 2422 731 2563 1106 
L 2659 1044 
Q 2594 616 2278 264 
Q 1963 -88 1488 -88 
Q 972 -88 605 314 
Q 238 716 238 1394 
Q 238 2128 614 2539 
Q 991 2950 1559 2950 
Q 2041 2950 2350 2633 
Q 2659 2316 2659 1784 
L 681 1784 
z
M 681 1966 
L 2006 1966 
Q 1991 2241 1941 2353 
Q 1863 2528 1708 2628 
Q 1553 2728 1384 2728 
Q 1125 2728 920 2526 
Q 716 2325 681 1966 
z
" transform="scale(0.015625)"/>
       <path id="TimesNewRomanPSMT-61" d="M 1822 413 
Q 1381 72 1269 19 
Q 1100 -59 909 -59 
Q 613 -59 420 144 
Q 228 347 228 678 
Q 228 888 322 1041 
Q 450 1253 767 1440 
Q 1084 1628 1822 1897 
L 1822 2009 
Q 1822 2438 1686 2597 
Q 1550 2756 1291 2756 
Q 1094 2756 978 2650 
Q 859 2544 859 2406 
L 866 2225 
Q 866 2081 792 2003 
Q 719 1925 600 1925 
Q 484 1925 411 2006 
Q 338 2088 338 2228 
Q 338 2497 613 2722 
Q 888 2947 1384 2947 
Q 1766 2947 2009 2819 
Q 2194 2722 2281 2516 
Q 2338 2381 2338 1966 
L 2338 994 
Q 2338 584 2353 492 
Q 2369 400 2405 369 
Q 2441 338 2488 338 
Q 2538 338 2575 359 
Q 2641 400 2828 588 
L 2828 413 
Q 2478 -56 2159 -56 
Q 2006 -56 1915 50 
Q 1825 156 1822 413 
z
M 1822 616 
L 1822 1706 
Q 1350 1519 1213 1441 
Q 966 1303 859 1153 
Q 753 1003 753 825 
Q 753 600 887 451 
Q 1022 303 1197 303 
Q 1434 303 1822 616 
z
" transform="scale(0.015625)"/>
       <path id="TimesNewRomanPSMT-72" d="M 1038 2947 
L 1038 2303 
Q 1397 2947 1775 2947 
Q 1947 2947 2059 2842 
Q 2172 2738 2172 2600 
Q 2172 2478 2090 2393 
Q 2009 2309 1897 2309 
Q 1788 2309 1652 2417 
Q 1516 2525 1450 2525 
Q 1394 2525 1328 2463 
Q 1188 2334 1038 2041 
L 1038 669 
Q 1038 431 1097 309 
Q 1138 225 1241 169 
Q 1344 113 1538 113 
L 1538 0 
L 72 0 
L 72 113 
Q 291 113 397 181 
Q 475 231 506 341 
Q 522 394 522 644 
L 522 1753 
Q 522 2253 501 2348 
Q 481 2444 426 2487 
Q 372 2531 291 2531 
Q 194 2531 72 2484 
L 41 2597 
L 906 2947 
L 1038 2947 
z
" transform="scale(0.015625)"/>
      </defs>
      <use xlink:href="#TimesNewRomanPSMT-59"/>
      <use xlink:href="#TimesNewRomanPSMT-65" transform="translate(62.216797 0)"/>
      <use xlink:href="#TimesNewRomanPSMT-61" transform="translate(106.601562 0)"/>
      <use xlink:href="#TimesNewRomanPSMT-72" transform="translate(150.986328 0)"/>
     </g>
    </g>
   </g>
   <g id="patch_3">
    <path d="M 10.091927 314.12125 
L 10.091927 36.92125 
" style="fill: none; stroke: #000000; stroke-width: 0.8; stroke-linejoin: miter; stroke-linecap: square"/>
   </g>
   <g id="patch_4">
    <path d="M 398.891927 314.12125 
L 398.891927 36.92125 
" style="fill: none; stroke: #000000; stroke-width: 0.8; stroke-linejoin: miter; stroke-linecap: square"/>
   </g>
   <g id="patch_5">
    <path d="M 10.091927 314.12125 
L 398.891927 314.12125 
" style="fill: none; stroke: #000000; stroke-width: 0.8; stroke-linejoin: miter; stroke-linecap: square"/>
   </g>
   <g id="patch_6">
    <path d="M 10.091927 36.92125 
L 398.891927 36.92125 
" style="fill: none; stroke: #000000; stroke-width: 0.8; stroke-linejoin: miter; stroke-linecap: square"/>
   </g>
   <g id="text_16">
    <!-- Cargo Shipments from 1960 to 1986 (tons/month)  -->
    <g transform="translate(62.482708 16.92125) scale(0.14 -0.14)">
     <defs>
      <path id="TimesNewRomanPSMT-43" d="M 3853 4334 
L 3950 2894 
L 3853 2894 
Q 3659 3541 3300 3825 
Q 2941 4109 2438 4109 
Q 2016 4109 1675 3895 
Q 1334 3681 1139 3212 
Q 944 2744 944 2047 
Q 944 1472 1128 1050 
Q 1313 628 1683 403 
Q 2053 178 2528 178 
Q 2941 178 3256 354 
Q 3572 531 3950 1056 
L 4047 994 
Q 3728 428 3303 165 
Q 2878 -97 2294 -97 
Q 1241 -97 663 684 
Q 231 1266 231 2053 
Q 231 2688 515 3219 
Q 800 3750 1298 4042 
Q 1797 4334 2388 4334 
Q 2847 4334 3294 4109 
Q 3425 4041 3481 4041 
Q 3566 4041 3628 4100 
Q 3709 4184 3744 4334 
L 3853 4334 
z
" transform="scale(0.015625)"/>
      <path id="TimesNewRomanPSMT-67" d="M 966 1044 
Q 703 1172 562 1401 
Q 422 1631 422 1909 
Q 422 2334 742 2640 
Q 1063 2947 1563 2947 
Q 1972 2947 2272 2747 
L 2878 2747 
Q 3013 2747 3034 2739 
Q 3056 2731 3066 2713 
Q 3084 2684 3084 2613 
Q 3084 2531 3069 2500 
Q 3059 2484 3036 2475 
Q 3013 2466 2878 2466 
L 2506 2466 
Q 2681 2241 2681 1891 
Q 2681 1491 2375 1206 
Q 2069 922 1553 922 
Q 1341 922 1119 984 
Q 981 866 932 777 
Q 884 688 884 625 
Q 884 572 936 522 
Q 988 472 1138 450 
Q 1225 438 1575 428 
Q 2219 413 2409 384 
Q 2700 344 2873 169 
Q 3047 -6 3047 -263 
Q 3047 -616 2716 -925 
Q 2228 -1381 1444 -1381 
Q 841 -1381 425 -1109 
Q 191 -953 191 -784 
Q 191 -709 225 -634 
Q 278 -519 444 -313 
Q 466 -284 763 25 
Q 600 122 533 198 
Q 466 275 466 372 
Q 466 481 555 628 
Q 644 775 966 1044 
z
M 1509 2797 
Q 1278 2797 1122 2612 
Q 966 2428 966 2047 
Q 966 1553 1178 1281 
Q 1341 1075 1591 1075 
Q 1828 1075 1981 1253 
Q 2134 1431 2134 1813 
Q 2134 2309 1919 2591 
Q 1759 2797 1509 2797 
z
M 934 0 
Q 788 -159 713 -296 
Q 638 -434 638 -550 
Q 638 -700 819 -813 
Q 1131 -1006 1722 -1006 
Q 2284 -1006 2551 -807 
Q 2819 -609 2819 -384 
Q 2819 -222 2659 -153 
Q 2497 -84 2016 -72 
Q 1313 -53 934 0 
z
" transform="scale(0.015625)"/>
      <path id="TimesNewRomanPSMT-6f" d="M 1600 2947 
Q 2250 2947 2644 2453 
Q 2978 2031 2978 1484 
Q 2978 1100 2793 706 
Q 2609 313 2286 112 
Q 1963 -88 1566 -88 
Q 919 -88 538 428 
Q 216 863 216 1403 
Q 216 1797 411 2186 
Q 606 2575 925 2761 
Q 1244 2947 1600 2947 
z
M 1503 2744 
Q 1338 2744 1170 2645 
Q 1003 2547 900 2300 
Q 797 2053 797 1666 
Q 797 1041 1045 587 
Q 1294 134 1700 134 
Q 2003 134 2200 384 
Q 2397 634 2397 1244 
Q 2397 2006 2069 2444 
Q 1847 2744 1503 2744 
z
" transform="scale(0.015625)"/>
      <path id="TimesNewRomanPSMT-20" transform="scale(0.015625)"/>
      <path id="TimesNewRomanPSMT-53" d="M 2934 4334 
L 2934 2869 
L 2819 2869 
Q 2763 3291 2617 3541 
Q 2472 3791 2203 3937 
Q 1934 4084 1647 4084 
Q 1322 4084 1109 3886 
Q 897 3688 897 3434 
Q 897 3241 1031 3081 
Q 1225 2847 1953 2456 
Q 2547 2138 2764 1967 
Q 2981 1797 3098 1565 
Q 3216 1334 3216 1081 
Q 3216 600 2842 251 
Q 2469 -97 1881 -97 
Q 1697 -97 1534 -69 
Q 1438 -53 1133 45 
Q 828 144 747 144 
Q 669 144 623 97 
Q 578 50 556 -97 
L 441 -97 
L 441 1356 
L 556 1356 
Q 638 900 775 673 
Q 913 447 1195 297 
Q 1478 147 1816 147 
Q 2206 147 2432 353 
Q 2659 559 2659 841 
Q 2659 997 2573 1156 
Q 2488 1316 2306 1453 
Q 2184 1547 1640 1851 
Q 1097 2156 867 2337 
Q 638 2519 519 2737 
Q 400 2956 400 3219 
Q 400 3675 750 4004 
Q 1100 4334 1641 4334 
Q 1978 4334 2356 4169 
Q 2531 4091 2603 4091 
Q 2684 4091 2736 4139 
Q 2788 4188 2819 4334 
L 2934 4334 
z
" transform="scale(0.015625)"/>
      <path id="TimesNewRomanPSMT-68" d="M 1041 4444 
L 1041 2350 
Q 1388 2731 1591 2839 
Q 1794 2947 1997 2947 
Q 2241 2947 2416 2812 
Q 2591 2678 2675 2391 
Q 2734 2191 2734 1659 
L 2734 647 
Q 2734 375 2778 275 
Q 2809 200 2884 156 
Q 2959 113 3159 113 
L 3159 0 
L 1753 0 
L 1753 113 
L 1819 113 
Q 2019 113 2097 173 
Q 2175 234 2206 353 
Q 2216 403 2216 647 
L 2216 1659 
Q 2216 2128 2167 2275 
Q 2119 2422 2012 2495 
Q 1906 2569 1756 2569 
Q 1603 2569 1437 2487 
Q 1272 2406 1041 2159 
L 1041 647 
Q 1041 353 1073 281 
Q 1106 209 1195 161 
Q 1284 113 1503 113 
L 1503 0 
L 84 0 
L 84 113 
Q 275 113 384 172 
Q 447 203 484 290 
Q 522 378 522 647 
L 522 3238 
Q 522 3728 498 3840 
Q 475 3953 426 3993 
Q 378 4034 297 4034 
Q 231 4034 84 3984 
L 41 4094 
L 897 4444 
L 1041 4444 
z
" transform="scale(0.015625)"/>
      <path id="TimesNewRomanPSMT-69" d="M 928 4444 
Q 1059 4444 1151 4351 
Q 1244 4259 1244 4128 
Q 1244 3997 1151 3903 
Q 1059 3809 928 3809 
Q 797 3809 703 3903 
Q 609 3997 609 4128 
Q 609 4259 701 4351 
Q 794 4444 928 4444 
z
M 1188 2947 
L 1188 647 
Q 1188 378 1227 289 
Q 1266 200 1342 156 
Q 1419 113 1622 113 
L 1622 0 
L 231 0 
L 231 113 
Q 441 113 512 153 
Q 584 194 626 287 
Q 669 381 669 647 
L 669 1750 
Q 669 2216 641 2353 
Q 619 2453 572 2492 
Q 525 2531 444 2531 
Q 356 2531 231 2484 
L 188 2597 
L 1050 2947 
L 1188 2947 
z
" transform="scale(0.015625)"/>
      <path id="TimesNewRomanPSMT-70" d="M -6 2578 
L 875 2934 
L 994 2934 
L 994 2266 
Q 1216 2644 1439 2795 
Q 1663 2947 1909 2947 
Q 2341 2947 2628 2609 
Q 2981 2197 2981 1534 
Q 2981 794 2556 309 
Q 2206 -88 1675 -88 
Q 1444 -88 1275 -22 
Q 1150 25 994 166 
L 994 -706 
Q 994 -1000 1030 -1079 
Q 1066 -1159 1155 -1206 
Q 1244 -1253 1478 -1253 
L 1478 -1369 
L -22 -1369 
L -22 -1253 
L 56 -1253 
Q 228 -1256 350 -1188 
Q 409 -1153 442 -1076 
Q 475 -1000 475 -688 
L 475 2019 
Q 475 2297 450 2372 
Q 425 2447 370 2484 
Q 316 2522 222 2522 
Q 147 2522 31 2478 
L -6 2578 
z
M 994 2081 
L 994 1013 
Q 994 666 1022 556 
Q 1066 375 1236 237 
Q 1406 100 1666 100 
Q 1978 100 2172 344 
Q 2425 663 2425 1241 
Q 2425 1897 2138 2250 
Q 1938 2494 1663 2494 
Q 1513 2494 1366 2419 
Q 1253 2363 994 2081 
z
" transform="scale(0.015625)"/>
      <path id="TimesNewRomanPSMT-6d" d="M 1050 2338 
Q 1363 2650 1419 2697 
Q 1559 2816 1721 2881 
Q 1884 2947 2044 2947 
Q 2313 2947 2506 2790 
Q 2700 2634 2766 2338 
Q 3088 2713 3309 2830 
Q 3531 2947 3766 2947 
Q 3994 2947 4170 2830 
Q 4347 2713 4450 2447 
Q 4519 2266 4519 1878 
L 4519 647 
Q 4519 378 4559 278 
Q 4591 209 4675 161 
Q 4759 113 4950 113 
L 4950 0 
L 3538 0 
L 3538 113 
L 3597 113 
Q 3781 113 3884 184 
Q 3956 234 3988 344 
Q 4000 397 4000 647 
L 4000 1878 
Q 4000 2228 3916 2372 
Q 3794 2572 3525 2572 
Q 3359 2572 3192 2489 
Q 3025 2406 2788 2181 
L 2781 2147 
L 2788 2013 
L 2788 647 
Q 2788 353 2820 281 
Q 2853 209 2943 161 
Q 3034 113 3253 113 
L 3253 0 
L 1806 0 
L 1806 113 
Q 2044 113 2133 169 
Q 2222 225 2256 338 
Q 2272 391 2272 647 
L 2272 1878 
Q 2272 2228 2169 2381 
Q 2031 2581 1784 2581 
Q 1616 2581 1450 2491 
Q 1191 2353 1050 2181 
L 1050 647 
Q 1050 366 1089 281 
Q 1128 197 1204 155 
Q 1281 113 1516 113 
L 1516 0 
L 100 0 
L 100 113 
Q 297 113 375 155 
Q 453 197 493 289 
Q 534 381 534 647 
L 534 1741 
Q 534 2213 506 2350 
Q 484 2453 437 2492 
Q 391 2531 309 2531 
Q 222 2531 100 2484 
L 53 2597 
L 916 2947 
L 1050 2947 
L 1050 2338 
z
" transform="scale(0.015625)"/>
      <path id="TimesNewRomanPSMT-6e" d="M 1034 2341 
Q 1538 2947 1994 2947 
Q 2228 2947 2397 2830 
Q 2566 2713 2666 2444 
Q 2734 2256 2734 1869 
L 2734 647 
Q 2734 375 2778 278 
Q 2813 200 2889 156 
Q 2966 113 3172 113 
L 3172 0 
L 1756 0 
L 1756 113 
L 1816 113 
Q 2016 113 2095 173 
Q 2175 234 2206 353 
Q 2219 400 2219 647 
L 2219 1819 
Q 2219 2209 2117 2386 
Q 2016 2563 1775 2563 
Q 1403 2563 1034 2156 
L 1034 647 
Q 1034 356 1069 288 
Q 1113 197 1189 155 
Q 1266 113 1500 113 
L 1500 0 
L 84 0 
L 84 113 
L 147 113 
Q 366 113 442 223 
Q 519 334 519 647 
L 519 1709 
Q 519 2225 495 2337 
Q 472 2450 423 2490 
Q 375 2531 294 2531 
Q 206 2531 84 2484 
L 38 2597 
L 900 2947 
L 1034 2947 
L 1034 2341 
z
" transform="scale(0.015625)"/>
      <path id="TimesNewRomanPSMT-74" d="M 1031 3803 
L 1031 2863 
L 1700 2863 
L 1700 2644 
L 1031 2644 
L 1031 788 
Q 1031 509 1111 412 
Q 1191 316 1316 316 
Q 1419 316 1516 380 
Q 1613 444 1666 569 
L 1788 569 
Q 1678 263 1478 108 
Q 1278 -47 1066 -47 
Q 922 -47 784 33 
Q 647 113 581 261 
Q 516 409 516 719 
L 516 2644 
L 63 2644 
L 63 2747 
Q 234 2816 414 2980 
Q 594 3144 734 3369 
Q 806 3488 934 3803 
L 1031 3803 
z
" transform="scale(0.015625)"/>
      <path id="TimesNewRomanPSMT-73" d="M 2050 2947 
L 2050 1972 
L 1947 1972 
Q 1828 2431 1642 2597 
Q 1456 2763 1169 2763 
Q 950 2763 815 2647 
Q 681 2531 681 2391 
Q 681 2216 781 2091 
Q 878 1963 1175 1819 
L 1631 1597 
Q 2266 1288 2266 781 
Q 2266 391 1970 151 
Q 1675 -88 1309 -88 
Q 1047 -88 709 6 
Q 606 38 541 38 
Q 469 38 428 -44 
L 325 -44 
L 325 978 
L 428 978 
Q 516 541 762 319 
Q 1009 97 1316 97 
Q 1531 97 1667 223 
Q 1803 350 1803 528 
Q 1803 744 1651 891 
Q 1500 1038 1047 1263 
Q 594 1488 453 1669 
Q 313 1847 313 2119 
Q 313 2472 555 2709 
Q 797 2947 1181 2947 
Q 1350 2947 1591 2875 
Q 1750 2828 1803 2828 
Q 1853 2828 1881 2850 
Q 1909 2872 1947 2947 
L 2050 2947 
z
" transform="scale(0.015625)"/>
      <path id="TimesNewRomanPSMT-66" d="M 1319 2638 
L 1319 756 
Q 1319 356 1406 250 
Q 1522 113 1716 113 
L 1975 113 
L 1975 0 
L 266 0 
L 266 113 
L 394 113 
Q 519 113 622 175 
Q 725 238 764 344 
Q 803 450 803 756 
L 803 2638 
L 247 2638 
L 247 2863 
L 803 2863 
L 803 3050 
Q 803 3478 940 3775 
Q 1078 4072 1361 4255 
Q 1644 4438 1997 4438 
Q 2325 4438 2600 4225 
Q 2781 4084 2781 3909 
Q 2781 3816 2700 3733 
Q 2619 3650 2525 3650 
Q 2453 3650 2373 3701 
Q 2294 3753 2178 3923 
Q 2063 4094 1966 4153 
Q 1869 4213 1750 4213 
Q 1606 4213 1506 4136 
Q 1406 4059 1362 3898 
Q 1319 3738 1319 3069 
L 1319 2863 
L 2056 2863 
L 2056 2638 
L 1319 2638 
z
" transform="scale(0.015625)"/>
      <path id="TimesNewRomanPSMT-28" d="M 1988 -1253 
L 1988 -1369 
Q 1516 -1131 1200 -813 
Q 750 -359 506 256 
Q 263 872 263 1534 
Q 263 2503 741 3301 
Q 1219 4100 1988 4444 
L 1988 4313 
Q 1603 4100 1356 3731 
Q 1109 3363 987 2797 
Q 866 2231 866 1616 
Q 866 947 969 400 
Q 1050 -31 1165 -292 
Q 1281 -553 1476 -793 
Q 1672 -1034 1988 -1253 
z
" transform="scale(0.015625)"/>
      <path id="TimesNewRomanPSMT-2f" d="M 1794 4444 
L 259 -88 
L 9 -88 
L 1544 4444 
L 1794 4444 
z
" transform="scale(0.015625)"/>
      <path id="TimesNewRomanPSMT-29" d="M 144 4313 
L 144 4444 
Q 619 4209 934 3891 
Q 1381 3434 1625 2820 
Q 1869 2206 1869 1541 
Q 1869 572 1392 -226 
Q 916 -1025 144 -1369 
L 144 -1253 
Q 528 -1038 776 -670 
Q 1025 -303 1145 264 
Q 1266 831 1266 1447 
Q 1266 2113 1163 2663 
Q 1084 3094 967 3353 
Q 850 3613 656 3853 
Q 463 4094 144 4313 
z
" transform="scale(0.015625)"/>
     </defs>
     <use xlink:href="#TimesNewRomanPSMT-43"/>
     <use xlink:href="#TimesNewRomanPSMT-61" transform="translate(66.699219 0)"/>
     <use xlink:href="#TimesNewRomanPSMT-72" transform="translate(111.083984 0)"/>
     <use xlink:href="#TimesNewRomanPSMT-67" transform="translate(142.634766 0)"/>
     <use xlink:href="#TimesNewRomanPSMT-6f" transform="translate(192.634766 0)"/>
     <use xlink:href="#TimesNewRomanPSMT-20" transform="translate(242.634766 0)"/>
     <use xlink:href="#TimesNewRomanPSMT-53" transform="translate(267.634766 0)"/>
     <use xlink:href="#TimesNewRomanPSMT-68" transform="translate(323.25 0)"/>
     <use xlink:href="#TimesNewRomanPSMT-69" transform="translate(373.25 0)"/>
     <use xlink:href="#TimesNewRomanPSMT-70" transform="translate(401.033203 0)"/>
     <use xlink:href="#TimesNewRomanPSMT-6d" transform="translate(451.033203 0)"/>
     <use xlink:href="#TimesNewRomanPSMT-65" transform="translate(528.816406 0)"/>
     <use xlink:href="#TimesNewRomanPSMT-6e" transform="translate(573.201172 0)"/>
     <use xlink:href="#TimesNewRomanPSMT-74" transform="translate(623.201172 0)"/>
     <use xlink:href="#TimesNewRomanPSMT-73" transform="translate(650.984375 0)"/>
     <use xlink:href="#TimesNewRomanPSMT-20" transform="translate(689.900391 0)"/>
     <use xlink:href="#TimesNewRomanPSMT-66" transform="translate(714.900391 0)"/>
     <use xlink:href="#TimesNewRomanPSMT-72" transform="translate(748.201172 0)"/>
     <use xlink:href="#TimesNewRomanPSMT-6f" transform="translate(781.501953 0)"/>
     <use xlink:href="#TimesNewRomanPSMT-6d" transform="translate(831.501953 0)"/>
     <use xlink:href="#TimesNewRomanPSMT-20" transform="translate(909.285156 0)"/>
     <use xlink:href="#TimesNewRomanPSMT-31" transform="translate(934.285156 0)"/>
     <use xlink:href="#TimesNewRomanPSMT-39" transform="translate(984.285156 0)"/>
     <use xlink:href="#TimesNewRomanPSMT-36" transform="translate(1034.285156 0)"/>
     <use xlink:href="#TimesNewRomanPSMT-30" transform="translate(1084.285156 0)"/>
     <use xlink:href="#TimesNewRomanPSMT-20" transform="translate(1134.285156 0)"/>
     <use xlink:href="#TimesNewRomanPSMT-74" transform="translate(1159.285156 0)"/>
     <use xlink:href="#TimesNewRomanPSMT-6f" transform="translate(1187.068359 0)"/>
     <use xlink:href="#TimesNewRomanPSMT-20" transform="translate(1237.068359 0)"/>
     <use xlink:href="#TimesNewRomanPSMT-31" transform="translate(1262.068359 0)"/>
     <use xlink:href="#TimesNewRomanPSMT-39" transform="translate(1312.068359 0)"/>
     <use xlink:href="#TimesNewRomanPSMT-38" transform="translate(1362.068359 0)"/>
     <use xlink:href="#TimesNewRomanPSMT-36" transform="translate(1412.068359 0)"/>
     <use xlink:href="#TimesNewRomanPSMT-20" transform="translate(1462.068359 0)"/>
     <use xlink:href="#TimesNewRomanPSMT-28" transform="translate(1487.068359 0)"/>
     <use xlink:href="#TimesNewRomanPSMT-74" transform="translate(1520.369141 0)"/>
     <use xlink:href="#TimesNewRomanPSMT-6f" transform="translate(1548.152344 0)"/>
     <use xlink:href="#TimesNewRomanPSMT-6e" transform="translate(1598.152344 0)"/>
     <use xlink:href="#TimesNewRomanPSMT-73" transform="translate(1648.152344 0)"/>
     <use xlink:href="#TimesNewRomanPSMT-2f" transform="translate(1687.068359 0)"/>
     <use xlink:href="#TimesNewRomanPSMT-6d" transform="translate(1714.851562 0)"/>
     <use xlink:href="#TimesNewRomanPSMT-6f" transform="translate(1792.634766 0)"/>
     <use xlink:href="#TimesNewRomanPSMT-6e" transform="translate(1842.634766 0)"/>
     <use xlink:href="#TimesNewRomanPSMT-74" transform="translate(1892.634766 0)"/>
     <use xlink:href="#TimesNewRomanPSMT-68" transform="translate(1920.417969 0)"/>
     <use xlink:href="#TimesNewRomanPSMT-29" transform="translate(1970.417969 0)"/>
     <use xlink:href="#TimesNewRomanPSMT-20" transform="translate(2003.71875 0)"/>
    </g>
   </g>
   <g id="legend_1">
    <g id="patch_7">
     <path d="M 415.667927 170.872812 
L 435.667927 170.872812 
L 435.667927 163.872812 
L 415.667927 163.872812 
z
" style="fill: #1f77b4"/>
    </g>
    <g id="text_17">
     <!-- Parcel Services -->
     <g transform="translate(443.667927 170.872812) scale(0.1 -0.1)">
      <defs>
       <path id="TimesNewRomanPSMT-50" d="M 1313 1984 
L 1313 750 
Q 1313 350 1400 253 
Q 1519 116 1759 116 
L 1922 116 
L 1922 0 
L 106 0 
L 106 116 
L 266 116 
Q 534 116 650 291 
Q 713 388 713 750 
L 713 3488 
Q 713 3888 628 3984 
Q 506 4122 266 4122 
L 106 4122 
L 106 4238 
L 1659 4238 
Q 2228 4238 2556 4120 
Q 2884 4003 3109 3725 
Q 3334 3447 3334 3066 
Q 3334 2547 2992 2222 
Q 2650 1897 2025 1897 
Q 1872 1897 1694 1919 
Q 1516 1941 1313 1984 
z
M 1313 2163 
Q 1478 2131 1606 2115 
Q 1734 2100 1825 2100 
Q 2150 2100 2386 2351 
Q 2622 2603 2622 3003 
Q 2622 3278 2509 3514 
Q 2397 3750 2190 3867 
Q 1984 3984 1722 3984 
Q 1563 3984 1313 3925 
L 1313 2163 
z
" transform="scale(0.015625)"/>
       <path id="TimesNewRomanPSMT-63" d="M 2631 1088 
Q 2516 522 2178 217 
Q 1841 -88 1431 -88 
Q 944 -88 581 321 
Q 219 731 219 1428 
Q 219 2103 620 2525 
Q 1022 2947 1584 2947 
Q 2006 2947 2278 2723 
Q 2550 2500 2550 2259 
Q 2550 2141 2473 2067 
Q 2397 1994 2259 1994 
Q 2075 1994 1981 2113 
Q 1928 2178 1911 2362 
Q 1894 2547 1784 2644 
Q 1675 2738 1481 2738 
Q 1169 2738 978 2506 
Q 725 2200 725 1697 
Q 725 1184 976 792 
Q 1228 400 1656 400 
Q 1963 400 2206 609 
Q 2378 753 2541 1131 
L 2631 1088 
z
" transform="scale(0.015625)"/>
       <path id="TimesNewRomanPSMT-6c" d="M 1184 4444 
L 1184 647 
Q 1184 378 1223 290 
Q 1263 203 1344 158 
Q 1425 113 1647 113 
L 1647 0 
L 244 0 
L 244 113 
Q 441 113 512 153 
Q 584 194 625 287 
Q 666 381 666 647 
L 666 3247 
Q 666 3731 644 3842 
Q 622 3953 573 3993 
Q 525 4034 450 4034 
Q 369 4034 244 3984 
L 191 4094 
L 1044 4444 
L 1184 4444 
z
" transform="scale(0.015625)"/>
       <path id="TimesNewRomanPSMT-76" d="M 53 2863 
L 1400 2863 
L 1400 2747 
L 1313 2747 
Q 1191 2747 1127 2687 
Q 1063 2628 1063 2528 
Q 1063 2419 1128 2269 
L 1794 688 
L 2463 2328 
Q 2534 2503 2534 2594 
Q 2534 2638 2509 2666 
Q 2475 2713 2422 2730 
Q 2369 2747 2206 2747 
L 2206 2863 
L 3141 2863 
L 3141 2747 
Q 2978 2734 2916 2681 
Q 2806 2588 2719 2369 
L 1703 -88 
L 1575 -88 
L 553 2328 
Q 484 2497 421 2570 
Q 359 2644 263 2694 
Q 209 2722 53 2747 
L 53 2863 
z
" transform="scale(0.015625)"/>
      </defs>
      <use xlink:href="#TimesNewRomanPSMT-50"/>
      <use xlink:href="#TimesNewRomanPSMT-61" transform="translate(55.615234 0)"/>
      <use xlink:href="#TimesNewRomanPSMT-72" transform="translate(100 0)"/>
      <use xlink:href="#TimesNewRomanPSMT-63" transform="translate(133.300781 0)"/>
      <use xlink:href="#TimesNewRomanPSMT-65" transform="translate(177.685547 0)"/>
      <use xlink:href="#TimesNewRomanPSMT-6c" transform="translate(222.070312 0)"/>
      <use xlink:href="#TimesNewRomanPSMT-20" transform="translate(249.853516 0)"/>
      <use xlink:href="#TimesNewRomanPSMT-53" transform="translate(274.853516 0)"/>
      <use xlink:href="#TimesNewRomanPSMT-65" transform="translate(330.46875 0)"/>
      <use xlink:href="#TimesNewRomanPSMT-72" transform="translate(374.853516 0)"/>
      <use xlink:href="#TimesNewRomanPSMT-76" transform="translate(408.154297 0)"/>
      <use xlink:href="#TimesNewRomanPSMT-69" transform="translate(458.154297 0)"/>
      <use xlink:href="#TimesNewRomanPSMT-63" transform="translate(485.9375 0)"/>
      <use xlink:href="#TimesNewRomanPSMT-65" transform="translate(530.322266 0)"/>
      <use xlink:href="#TimesNewRomanPSMT-73" transform="translate(574.707031 0)"/>
     </g>
    </g>
    <g id="patch_8">
     <path d="M 415.667927 185.011875 
L 435.667927 185.011875 
L 435.667927 178.011875 
L 415.667927 178.011875 
z
" style="fill: #aec7e8"/>
    </g>
    <g id="text_18">
     <!-- Continental Freight -->
     <g transform="translate(443.667927 185.011875) scale(0.1 -0.1)">
      <defs>
       <path id="TimesNewRomanPSMT-46" d="M 1309 4006 
L 1309 2341 
L 2081 2341 
Q 2347 2341 2470 2458 
Q 2594 2575 2634 2922 
L 2750 2922 
L 2750 1488 
L 2634 1488 
Q 2631 1734 2570 1850 
Q 2509 1966 2401 2023 
Q 2294 2081 2081 2081 
L 1309 2081 
L 1309 750 
Q 1309 428 1350 325 
Q 1381 247 1481 191 
Q 1619 116 1769 116 
L 1922 116 
L 1922 0 
L 103 0 
L 103 116 
L 253 116 
Q 516 116 634 269 
Q 709 369 709 750 
L 709 3488 
Q 709 3809 669 3913 
Q 638 3991 541 4047 
Q 406 4122 253 4122 
L 103 4122 
L 103 4238 
L 3256 4238 
L 3297 3306 
L 3188 3306 
Q 3106 3603 2998 3742 
Q 2891 3881 2733 3943 
Q 2575 4006 2244 4006 
L 1309 4006 
z
" transform="scale(0.015625)"/>
      </defs>
      <use xlink:href="#TimesNewRomanPSMT-43"/>
      <use xlink:href="#TimesNewRomanPSMT-6f" transform="translate(66.699219 0)"/>
      <use xlink:href="#TimesNewRomanPSMT-6e" transform="translate(116.699219 0)"/>
      <use xlink:href="#TimesNewRomanPSMT-74" transform="translate(166.699219 0)"/>
      <use xlink:href="#TimesNewRomanPSMT-69" transform="translate(194.482422 0)"/>
      <use xlink:href="#TimesNewRomanPSMT-6e" transform="translate(222.265625 0)"/>
      <use xlink:href="#TimesNewRomanPSMT-65" transform="translate(272.265625 0)"/>
      <use xlink:href="#TimesNewRomanPSMT-6e" transform="translate(316.650391 0)"/>
      <use xlink:href="#TimesNewRomanPSMT-74" transform="translate(366.650391 0)"/>
      <use xlink:href="#TimesNewRomanPSMT-61" transform="translate(394.433594 0)"/>
      <use xlink:href="#TimesNewRomanPSMT-6c" transform="translate(438.818359 0)"/>
      <use xlink:href="#TimesNewRomanPSMT-20" transform="translate(466.601562 0)"/>
      <use xlink:href="#TimesNewRomanPSMT-46" transform="translate(491.601562 0)"/>
      <use xlink:href="#TimesNewRomanPSMT-72" transform="translate(547.216797 0)"/>
      <use xlink:href="#TimesNewRomanPSMT-65" transform="translate(580.517578 0)"/>
      <use xlink:href="#TimesNewRomanPSMT-69" transform="translate(624.902344 0)"/>
      <use xlink:href="#TimesNewRomanPSMT-67" transform="translate(652.685547 0)"/>
      <use xlink:href="#TimesNewRomanPSMT-68" transform="translate(702.685547 0)"/>
      <use xlink:href="#TimesNewRomanPSMT-74" transform="translate(752.685547 0)"/>
     </g>
    </g>
   </g>
  </g>
 </g>
 <defs>
  <clipPath id="pc72d237c79">
   <rect x="10.091927" y="36.92125" width="388.8" height="277.2"/>
  </clipPath>
 </defs>
</svg>
