<svg class="main-svg" xmlns="http://www.w3.org/2000/svg" xmlns:xlink="http://www.w3.org/1999/xlink" width="1920" height="1440" style="" viewBox="0 0 640 480"><rect x="0" y="0" width="640" height="480" style="fill: rgb(255, 255, 255); fill-opacity: 1;"/><defs id="defs-a7b305"><g class="clips"/><g class="gradients"><linearGradient x1="0" y1="1" x2="0" y2="0" gradientUnits="objectBoundingBox" id="ga7b305-cb2d5ce2"><stop offset="0%" stop-color="rgb(255, 255, 204)" stop-opacity="1"/><stop offset="12.5%" stop-color="rgb(255, 237, 160)" stop-opacity="1"/><stop offset="25%" stop-color="rgb(254, 217, 118)" stop-opacity="1"/><stop offset="37.5%" stop-color="rgb(254, 178, 76)" stop-opacity="1"/><stop offset="50%" stop-color="rgb(253, 141, 60)" stop-opacity="1"/><stop offset="62.5%" stop-color="rgb(252, 78, 42)" stop-opacity="1"/><stop offset="75%" stop-color="rgb(227, 26, 28)" stop-opacity="1"/><stop offset="87.5%" stop-color="rgb(189, 0, 38)" stop-opacity="1"/><stop offset="100%" stop-color="rgb(128, 0, 38)" stop-opacity="1"/></linearGradient></g><g class="patterns"/></defs><g class="bglayer"/><g class="layer-below"><g class="imagelayer"/><g class="shapelayer"/></g><g class="cartesianlayer"/><g class="polarlayer"/><g class="smithlayer"/><g class="ternarylayer"/><g class="geolayer"/><g class="funnelarealayer"/><g class="pielayer"/><g class="iciclelayer"/><g class="treemaplayer"/><g class="sunburstlayer"><g class="trace sunburst" stroke-linejoin="round" style="opacity: 1;"><g class="slice"><path class="surface" d="M282.5,260A0,0 0,1,0 282.5,260A0,0 0,1,0 282.5,260ZM335,260A52.5,52.5 0,1,1 230,260A52.5,52.5 0,1,1 335,260Z" style="pointer-events: none; stroke-width: 1; fill: rgb(255, 255, 255); fill-opacity: 1; stroke: rgb(0, 0, 0); stroke-opacity: 1;"/><g class="slicetext"><text data-notex="1" class="slicetext" text-anchor="middle" x="0" y="0" style="font-family: 'Times New Roman'; font-size: 12px; fill: rgb(0, 0, 0); fill-opacity: 1; white-space: pre;" transform="translate(282.5,264)">100</text></g></g><g class="slice cursor-pointer"><path class="surface" d="M335,260L387.5,260A105,105 0,0,0 181.29142531110054,232.03887682081677L231.89571265555026,246.01943841040838A52.5,52.5 0,0,1 335,260Z" style="pointer-events: none; stroke-width: 1; fill: rgb(128, 0, 38); fill-opacity: 1; stroke: rgb(0, 0, 0); stroke-opacity: 1;"/><g class="slicetext"><text data-notex="1" class="slicetext" text-anchor="middle" x="0" y="0" style="font-family: 'Times New Roman'; font-size: 12px; fill: rgb(0, 0, 0); fill-opacity: 1; white-space: pre;" transform="translate(292.4704462386312,186.46963805048048)rotate(7.72199999999998)"><tspan class="line" dy="0em" x="0" y="0">Cultural Participation</tspan><tspan class="line" dy="1.3em" x="0" y="0">45.71</tspan></text></g></g><g class="slice cursor-pointer"><path class="surface" d="M231.89571265555026,246.01943841040838L181.29142531110054,232.03887682081677A105,105 0,0,0 273.73574066517085,364.6335880982386L278.1178703325854,312.3167940491193A52.5,52.5 0,0,1 231.89571265555026,246.01943841040838Z" style="pointer-events: none; stroke-width: 1; fill: rgb(253, 111, 52); fill-opacity: 1; stroke: rgb(0, 0, 0); stroke-opacity: 1;"/><g class="slicetext"><text data-notex="1" class="slicetext" text-anchor="middle" x="0" y="0" style="font-family: 'Times New Roman'; font-size: 12px; fill: rgb(0, 0, 0); fill-opacity: 1; white-space: pre;" transform="translate(225.6746610694762,299.6183188724947)rotate(55.115999999999985)"><tspan class="line" dy="0em" x="0" y="0">Digital Culture</tspan><tspan class="line" dy="1.3em" x="0" y="0">27.96</tspan></text></g></g><g class="slice cursor-pointer"><path class="surface" d="M278.1178703325854,312.3167940491193L273.73574066517085,364.6335880982386A105,105 0,0,0 387.5,260L335,260A52.5,52.5 0,0,1 278.1178703325854,312.3167940491193Z" style="pointer-events: none; stroke-width: 1; fill: rgb(253, 132, 57); fill-opacity: 1; stroke: rgb(0, 0, 0); stroke-opacity: 1;"/><g class="slicetext"><text data-notex="1" class="slicetext" text-anchor="middle" x="0" y="0" style="font-family: 'Times New Roman'; font-size: 12px; fill: rgb(0, 0, 0); fill-opacity: 1; white-space: pre;" transform="translate(328.3868929216486,309.8911342073707)rotate(-42.605999999999995)"><tspan class="line" dy="0em" x="0" y="0">Creative Expression</tspan><tspan class="line" dy="1.3em" x="0" y="0">26.33</tspan></text></g></g><g class="slice"><path class="surface" d="M387.5,260L440,260A157.5,157.5 0,0,0 130.6871379666508,218.05831523122515L181.29142531110054,232.03887682081677A105,105 0,0,1 387.5,260Z" style="pointer-events: none; stroke-width: 1; fill: rgb(128, 0, 38); fill-opacity: 1; stroke: rgb(0, 0, 0); stroke-opacity: 1; opacity: 1;"/><g class="slicetext"><text data-notex="1" class="slicetext" text-anchor="middle" x="0" y="0" style="font-family: 'Times New Roman'; font-size: 12px; fill: rgb(0, 0, 0); fill-opacity: 1; white-space: pre;" transform="translate(300.0106548278257,129.64086372414647)rotate(7.72199999999998)"><tspan class="line" dy="0em" x="0" y="0">Art Festivals</tspan><tspan class="line" dy="1.3em" x="0" y="0">45.71</tspan></text></g></g><g class="slice cursor-pointer"><path class="surface" d="M181.29142531110054,232.03887682081677L130.6871379666508,218.05831523122515A157.5,157.5 0,0,0 160.64106280035827,359.78301170326426L201.2607085335722,326.5220078021762A105,105 0,0,1 181.29142531110054,232.03887682081677Z" style="pointer-events: none; stroke-width: 1; fill: rgb(254, 218, 121); fill-opacity: 1; stroke: rgb(0, 0, 0); stroke-opacity: 1;"/><g class="slicetext"><text data-notex="1" class="slicetext" text-anchor="middle" x="0" y="0" style="font-family: 'Times New Roman'; font-size: 12px; fill: rgb(0, 0, 0); fill-opacity: 1; white-space: pre;" transform="translate(160.55175526602898,285.7741145142237)rotate(78.06600000000003)"><tspan class="line" dy="0em" x="0" y="0">Streaming Culture</tspan><tspan class="line" dy="1.3em" x="0" y="0">15.21</tspan></text></g></g><g class="slice cursor-pointer"><path class="surface" d="M201.2607085335722,326.5220078021762L160.64106280035827,359.78301170326426A157.5,157.5 0,0,0 269.3536109977562,416.9503821473579L273.73574066517085,364.6335880982386A105,105 0,0,1 201.2607085335722,326.5220078021762Z" style="pointer-events: none; stroke-width: 1; fill: rgb(255, 228, 141); fill-opacity: 1; stroke: rgb(0, 0, 0); stroke-opacity: 1;"/><g class="slicetext"><text data-notex="1" class="slicetext" text-anchor="middle" x="0" y="0" style="font-family: 'Times New Roman'; font-size: 12px; fill: rgb(0, 0, 0); fill-opacity: 1; white-space: pre;" transform="translate(221.94502350822683,374.8021049143737)rotate(27.737999999999943)"><tspan class="line" dy="0em" x="0" y="0">Online Exhibitions</tspan><tspan class="line" dy="1.3em" x="0" y="0">12.75</tspan></text></g></g><g class="slice"><path class="surface" d="M273.73574066517085,364.6335880982386L269.3536109977562,416.9503821473579A157.5,157.5 0,0,0 420.8979523048364,335.1814923889399L374.7653015365576,310.1209949259599A105,105 0,0,1 273.73574066517085,364.6335880982386Z" style="pointer-events: none; stroke-width: 1; fill: rgb(254, 195, 94); fill-opacity: 1; stroke: rgb(0, 0, 0); stroke-opacity: 1; opacity: 1;"/><g class="slicetext"><text data-notex="1" class="slicetext" text-anchor="middle" x="0" y="0" style="font-family: 'Times New Roman'; font-size: 12px; fill: rgb(0, 0, 0); fill-opacity: 1; white-space: pre;" transform="translate(340.5310739109596,367.8959489697883)rotate(-28.350000000000023)"><tspan class="line" dy="0em" x="0" y="0">Performing Arts</tspan><tspan class="line" dy="1.3em" x="0" y="0">18.41</tspan></text></g></g><g class="slice cursor-pointer"><path class="surface" d="M374.7653015365576,310.1209949259599L420.8979523048364,335.1814923889399A157.5,157.5 0,0,0 440,260.00000000000006L387.5,260A105,105 0,0,1 374.7653015365576,310.1209949259599Z" style="pointer-events: none; stroke-width: 1; fill: rgb(255, 246, 182); fill-opacity: 1; stroke: rgb(0, 0, 0); stroke-opacity: 1;"/><g class="slicetext"><text data-notex="1" class="slicetext" text-anchor="middle" x="0" y="0" style="font-family: 'Times New Roman'; font-size: 12px; fill: rgb(0, 0, 0); fill-opacity: 1; white-space: pre;" transform="translate(412.3450203847634,293.1601842914804)rotate(-75.74400000000003)"><tspan class="line" dy="0em" x="0" y="0">Visual Arts</tspan><tspan class="line" dy="1.3em" x="0" y="0">7.92</tspan></text></g></g><g class="slice"><path class="surface" d="M130.6871379666508,218.05831523122515L80.08285062220108,204.0777536416335A210,210 0,0,0 84.73688107245616,330.63815393999306L134.17766080434214,312.9786154549948A157.5,157.5 0,0,1 130.6871379666508,218.05831523122515Z" style="pointer-events: none; stroke-width: 1; fill: rgb(255, 240, 166); fill-opacity: 1; stroke: rgb(0, 0, 0); stroke-opacity: 1; opacity: 1;"/><g class="slicetext"><text data-notex="1" class="slicetext" text-anchor="middle" x="0" y="0" style="font-family: 'Times New Roman'; font-size: 12px; fill: rgb(0, 0, 0); fill-opacity: 1; white-space: pre;" transform="translate(100.45420260912704,266.5302324613174)rotate(87.894)"><tspan class="line" dy="0em" x="0" y="0">Live Performances</tspan><tspan class="line" dy="1.3em" x="0" y="0">9.75</tspan></text></g></g><g class="slice"><path class="surface" d="M134.17766080434214,312.9786154549948L84.73688107245616,330.63815393999306A210,210 0,0,0 120.02141706714434,393.04401560435235L160.64106280035827,359.78301170326426A157.5,157.5 0,0,1 134.17766080434214,312.9786154549948Z" style="pointer-events: none; stroke-width: 1; fill: rgb(255, 255, 204); fill-opacity: 1; stroke: rgb(0, 0, 0); stroke-opacity: 1; opacity: 1;"/><g class="slicetext"><text data-notex="1" class="slicetext" text-anchor="middle" x="0" y="0" style="font-family: 'Times New Roman'; font-size: 12px; fill: rgb(0, 0, 0); fill-opacity: 1; white-space: pre;" transform="translate(113.96369841408938,355.1524449558899)scale(0.7358543307481021)rotate(60.51599999999996)"><tspan class="line" dy="0em" x="0" y="0">Cultural Podcasts</tspan><tspan class="line" dy="1.3em" x="0" y="0">5.46</tspan></text></g></g><g class="slice"><path class="surface" d="M160.64106280035827,359.78301170326426L120.02141706714437,393.04401560435235A210,210 0,0,0 186.10543515604144,446.5692575655053L210.20407636703106,399.92694317412895A157.5,157.5 0,0,1 160.64106280035827,359.78301170326426Z" style="pointer-events: none; stroke-width: 1; fill: rgb(255, 251, 195); fill-opacity: 1; stroke: rgb(0, 0, 0); stroke-opacity: 1; opacity: 1;"/><g class="slicetext"><text data-notex="1" class="slicetext" text-anchor="middle" x="0" y="0" style="font-family: 'Times New Roman'; font-size: 12px; fill: rgb(0, 0, 0); fill-opacity: 1; white-space: pre;" transform="translate(164.34846590826027,406.3857900098592)scale(0.982170678583591)rotate(39.00599999999997)"><tspan class="line" dy="0em" x="0" y="0">NFT Artworks</tspan><tspan class="line" dy="1.3em" x="0" y="0">6.49</tspan></text></g></g><g class="slice"><path class="surface" d="M210.20407636703106,399.92694317412895L186.10543515604144,446.5692575655053A210,210 0,0,0 264.97148133034165,469.2671761964772L269.3536109977562,416.9503821473579A157.5,157.5 0,0,1 210.20407636703106,399.92694317412895Z" style="pointer-events: none; stroke-width: 1; fill: rgb(255, 252, 197); fill-opacity: 1; stroke: rgb(0, 0, 0); stroke-opacity: 1; opacity: 1;"/><g class="slicetext"><text data-notex="1" class="slicetext" text-anchor="middle" x="0" y="0" style="font-family: 'Times New Roman'; font-size: 12px; fill: rgb(0, 0, 0); fill-opacity: 1; white-space: pre;" transform="translate(229.5785957805776,443.380805566304)scale(0.8421835633947687)rotate(16.05600000000004)"><tspan class="line" dy="0em" x="0" y="0">Virtual Museums</tspan><tspan class="line" dy="1.3em" x="0" y="0">6.26</tspan></text></g></g><g class="slice"><path class="surface" d="M420.8979523048364,335.1814923889399L467.03060307311523,360.2419898519198A210,210 0,0,0 492.5,260.00000000000006L440,260.00000000000006A157.5,157.5 0,0,1 420.8979523048364,335.1814923889399Z" style="pointer-events: none; stroke-width: 1; fill: rgb(255, 246, 182); fill-opacity: 1; stroke: rgb(0, 0, 0); stroke-opacity: 1; opacity: 1;"/><g class="slicetext"><text data-notex="1" class="slicetext" text-anchor="middle" x="0" y="0" style="font-family: 'Times New Roman'; font-size: 12px; fill: rgb(0, 0, 0); fill-opacity: 1; white-space: pre;" transform="translate(460.5914421376689,301.4446300343601)"><tspan class="line" dy="0em" x="0" y="0">Painting</tspan><tspan class="line" dy="1.3em" x="0" y="0">7.92</tspan></text></g></g></g></g><g class="glimages"/><defs id="topdefs-a7b305"><g class="clips"/></defs><g class="layer-above"><g class="imagelayer"/><g class="shapelayer"/></g><g class="infolayer"><g class="cb2d5ce2 colorbar" transform="translate(10,50)"><rect class="cbbg" x="571.5" y="63" width="48.015625" height="295" style="fill: rgb(0, 0, 0); fill-opacity: 0; stroke: rgb(68, 68, 68); stroke-opacity: 1; stroke-width: 0;"/><g class="cbfills" transform="translate(0,93)"><rect class="cbfill gradient_filled" style="fill: url('#ga7b305-cb2d5ce2');" x="582" y="0" width="15" height="254"/></g><g class="cblines" transform="translate(0,93)"/><g class="cbaxis crisp" transform="translate(0,-50)"><g class="ycb2d5ce2tick"><text text-anchor="start" x="600.4" y="4.199999999999999" transform="translate(0,368.35)" style="font-family: 'Times New Roman'; font-size: 12px; fill: rgb(42, 63, 95); fill-opacity: 1; white-space: pre; opacity: 1;">10</text></g><g class="ycb2d5ce2tick"><text text-anchor="start" x="600.4" y="4.199999999999999" style="font-family: 'Times New Roman'; font-size: 12px; fill: rgb(42, 63, 95); fill-opacity: 1; white-space: pre; opacity: 1;" transform="translate(0,305.24000000000007)">20</text></g><g class="ycb2d5ce2tick"><text text-anchor="start" x="600.4" y="4.199999999999999" style="font-family: 'Times New Roman'; font-size: 12px; fill: rgb(42, 63, 95); fill-opacity: 1; white-space: pre; opacity: 1;" transform="translate(0,242.14000000000004)">30</text></g><g class="ycb2d5ce2tick"><text text-anchor="start" x="600.4" y="4.199999999999999" style="font-family: 'Times New Roman'; font-size: 12px; fill: rgb(42, 63, 95); fill-opacity: 1; white-space: pre; opacity: 1;" transform="translate(0,179.03000000000006)">40</text></g></g><g class="cbtitleunshift" transform="translate(-10,-50)"><g class="cbtitle" transform="translate(-0.5,-0.5)"><text class="ycb2d5ce2title" x="592.25" y="135.75" text-anchor="start" style="opacity: 1; font-family: 'Times New Roman'; font-size: 13px; fill: rgb(42, 63, 95); fill-opacity: 1; white-space: pre;">%</text></g></g><rect class="cboutline" x="582" y="93" width="15" height="254" style="stroke: rgb(68, 68, 68); stroke-opacity: 1; fill: none; stroke-width: 1;"/></g><g class="g-gtitle"><text class="gtitle" x="320" y="25" text-anchor="middle" dy="0em" style="opacity: 1; font-family: 'Times New Roman'; font-size: 16px; fill: rgb(42, 63, 95); fill-opacity: 1; white-space: pre;">Cultural Engagement Distribution by Category (2024) (%)</text></g></g></svg>