<svg class="main-svg" xmlns="http://www.w3.org/2000/svg" xmlns:xlink="http://www.w3.org/1999/xlink" width="1920" height="1440" style="" viewBox="0 0 640 480"><rect x="0" y="0" width="640" height="480" style="fill: rgb(255, 255, 255); fill-opacity: 1;"/><defs id="defs-5032b8"><g class="clips"/><g class="gradients"><linearGradient x1="0" y1="1" x2="0" y2="0" gradientUnits="objectBoundingBox" id="g5032b8-cb7c4771"><stop offset="0%" stop-color="rgb(247, 252, 245)" stop-opacity="1"/><stop offset="12.5%" stop-color="rgb(229, 245, 224)" stop-opacity="1"/><stop offset="25%" stop-color="rgb(199, 233, 192)" stop-opacity="1"/><stop offset="37.5%" stop-color="rgb(161, 217, 155)" stop-opacity="1"/><stop offset="50%" stop-color="rgb(116, 196, 118)" stop-opacity="1"/><stop offset="62.5%" stop-color="rgb(65, 171, 93)" stop-opacity="1"/><stop offset="75%" stop-color="rgb(35, 139, 69)" stop-opacity="1"/><stop offset="87.5%" stop-color="rgb(0, 109, 44)" stop-opacity="1"/><stop offset="100%" stop-color="rgb(0, 68, 27)" stop-opacity="1"/></linearGradient></g><g class="patterns"/></defs><g class="bglayer"/><g class="layer-below"><g class="imagelayer"/><g class="shapelayer"/></g><g class="cartesianlayer"/><g class="polarlayer"/><g class="smithlayer"/><g class="ternarylayer"/><g class="geolayer"/><g class="funnelarealayer"/><g class="pielayer"/><g class="iciclelayer"/><g class="treemaplayer"/><g class="sunburstlayer"><g class="trace sunburst" stroke-linejoin="round" style="opacity: 1;"><g class="slice"><path class="surface" d="M282.5,260A0,0 0,1,0 282.5,260A0,0 0,1,0 282.5,260ZM324.5,260A42,42 0,1,1 240.5,260A42,42 0,1,1 324.5,260Z" style="pointer-events: none; stroke-width: 1; fill: rgb(255, 255, 255); fill-opacity: 1; stroke: rgb(0, 0, 0); stroke-opacity: 1;"/><g class="slicetext"><text data-notex="1" class="slicetext" text-anchor="middle" x="0" y="0" style="font-family: 'Times New Roman'; font-size: 12px; fill: rgb(0, 0, 0); fill-opacity: 1; white-space: pre;" transform="translate(282.5,264)">100</text></g></g><g class="slice cursor-pointer"><path class="surface" d="M324.5,260L366.5,260A84,84 0,0,0 224.23312231172437,199.49404190941584L253.36656115586217,229.74702095470792A42,42 0,0,1 324.5,260Z" style="pointer-events: none; stroke-width: 1; fill: rgb(0, 68, 27); fill-opacity: 1; stroke: rgb(0, 0, 0); stroke-opacity: 1;"/><g class="slicetext"><text data-notex="1" class="slicetext" text-anchor="middle" x="0" y="0" style="font-family: 'Times New Roman'; font-size: 12px; fill: rgb(0, 0, 0); fill-opacity: 1; white-space: pre;" transform="translate(306.0687274085339,204.19532616608774)scale(0.9251734053456667)rotate(23.039999999999964)"><tspan class="line" dy="0em" x="0" y="0">Agricultural Inputs</tspan><tspan class="line" dy="1.3em" x="0" y="0">37.2</tspan></text></g></g><g class="slice cursor-pointer"><path class="surface" d="M253.36656115586217,229.74702095470792L224.23312231172437,199.49404190941584A84,84 0,0,0 263.4041778856817,341.80066978807884L272.9520889428408,300.9003348940394A42,42 0,0,1 253.36656115586217,229.74702095470792Z" style="pointer-events: none; stroke-width: 1; fill: rgb(0, 99, 40); fill-opacity: 1; stroke: rgb(0, 0, 0); stroke-opacity: 1;"/><g class="slicetext"><text data-notex="1" class="slicetext" text-anchor="middle" x="0" y="0" style="font-family: 'Times New Roman'; font-size: 12px; fill: rgb(0, 0, 0); fill-opacity: 1; white-space: pre;" transform="translate(230.27338215259448,274.3758009070728)scale(0.9842211435651563)rotate(74.61000000000001)"><tspan class="line" dy="0em" x="0" y="0">Crop Production</tspan><tspan class="line" dy="1.3em" x="0" y="0">34.15</tspan></text></g></g><g class="slice cursor-pointer"><path class="surface" d="M272.9520889428408,300.9003348940394L263.4041778856817,341.80066978807884A84,84 0,0,0 366.5,260L324.5,260A42,42 0,0,1 272.9520889428408,300.9003348940394Z" style="pointer-events: none; stroke-width: 1; fill: rgb(39, 143, 72); fill-opacity: 1; stroke: rgb(0, 0, 0); stroke-opacity: 1;"/><g class="slicetext"><text data-notex="1" class="slicetext" text-anchor="middle" x="0" y="0" style="font-family: 'Times New Roman'; font-size: 12px; fill: rgb(0, 0, 0); fill-opacity: 1; white-space: pre;" transform="translate(317.7216097384205,304.39084449527746)rotate(-38.430000000000064)"><tspan class="line" dy="0em" x="0" y="0">Livestock</tspan><tspan class="line" dy="1.3em" x="0" y="0">28.65</tspan></text></g></g><g class="slice cursor-pointer"><path class="surface" d="M366.5,260L408.5,260A126,126 0,0,0 325.1809779509067,141.4490231117676L310.9539853006045,180.96601540784505A84,84 0,0,1 366.5,260Z" style="pointer-events: none; stroke-width: 1; fill: rgb(135, 205, 134); fill-opacity: 1; stroke: rgb(0, 0, 0); stroke-opacity: 1;"/><g class="slicetext"><text data-notex="1" class="slicetext" text-anchor="middle" x="0" y="0" style="font-family: 'Times New Roman'; font-size: 12px; fill: rgb(0, 0, 0); fill-opacity: 1; white-space: pre;" transform="translate(369.8314918195273,198.42187084832702)rotate(54.89999999999998)"><tspan class="line" dy="0em" x="0" y="0">Fertilizers</tspan><tspan class="line" dy="1.3em" x="0" y="0">19.5</tspan></text></g></g><g class="slice cursor-pointer"><path class="surface" d="M310.9539853006045,180.96601540784505L325.1809779509067,141.4490231117676A126,126 0,0,0 195.09968346758654,169.24106286412376L224.23312231172437,199.49404190941584A84,84 0,0,1 310.9539853006045,180.96601540784505Z" style="pointer-events: none; stroke-width: 1; fill: rgb(155, 214, 150); fill-opacity: 1; stroke: rgb(0, 0, 0); stroke-opacity: 1;"/><g class="slicetext"><text data-notex="1" class="slicetext" text-anchor="middle" x="0" y="0" style="font-family: 'Times New Roman'; font-size: 12px; fill: rgb(0, 0, 0); fill-opacity: 1; white-space: pre;" transform="translate(260.39766900774674,153.51273181777424)"><tspan class="line" dy="0em" x="0" y="0">Seeds</tspan><tspan class="line" dy="1.3em" x="0" y="0">17.7</tspan></text></g></g><g class="slice"><path class="surface" d="M224.23312231172437,199.49404190941584L195.09968346758654,169.24106286412376A126,126 0,0,0 253.85626682852254,382.70100468211825L263.4041778856817,341.80066978807884A84,84 0,0,1 224.23312231172437,199.49404190941584Z" style="pointer-events: none; stroke-width: 1; fill: rgb(0, 99, 40); fill-opacity: 1; stroke: rgb(0, 0, 0); stroke-opacity: 1; opacity: 1;"/><g class="slicetext"><text data-notex="1" class="slicetext" text-anchor="middle" x="0" y="0" style="font-family: 'Times New Roman'; font-size: 12px; fill: rgb(0, 0, 0); fill-opacity: 1; white-space: pre;" transform="translate(186.31997912970283,286.3041679173697)rotate(74.61000000000001)"><tspan class="line" dy="0em" x="0" y="0">Oilseeds</tspan><tspan class="line" dy="1.3em" x="0" y="0">34.15</tspan></text></g></g><g class="slice"><path class="surface" d="M263.4041778856817,341.80066978807884L253.85626682852254,382.70100468211825A126,126 0,0,0 400.1122092046676,305.20363089396136L360.9081394697784,290.1357539293076A84,84 0,0,1 263.4041778856817,341.80066978807884Z" style="pointer-events: none; stroke-width: 1; fill: rgb(96, 186, 108); fill-opacity: 1; stroke: rgb(0, 0, 0); stroke-opacity: 1; opacity: 1;"/><g class="slicetext"><text data-notex="1" class="slicetext" text-anchor="middle" x="0" y="0" style="font-family: 'Times New Roman'; font-size: 12px; fill: rgb(0, 0, 0); fill-opacity: 1; white-space: pre;" transform="translate(331.6617806041978,348.9752636091955)"><tspan class="line" dy="0em" x="0" y="0">Cattle</tspan><tspan class="line" dy="1.3em" x="0" y="0">22.81</tspan></text></g></g><g class="slice cursor-pointer"><path class="surface" d="M360.9081394697784,290.1357539293076L400.1122092046676,305.20363089396136A126,126 0,0,0 408.5,260.00000000000006L366.5,260A84,84 0,0,1 360.9081394697784,290.1357539293076Z" style="pointer-events: none; stroke-width: 1; fill: rgb(244, 251, 242); fill-opacity: 1; stroke: rgb(0, 0, 0); stroke-opacity: 1;"/><g class="slicetext"><text data-notex="1" class="slicetext" text-anchor="middle" x="0" y="0" style="font-family: 'Times New Roman'; font-size: 12px; fill: rgb(0, 0, 0); fill-opacity: 1; white-space: pre;" transform="translate(387.2119373425337,275.5602628605616)rotate(10.512)"><tspan class="line" dy="0em" x="0" y="0">Poultry</tspan><tspan class="line" dy="1.3em" x="0" y="0">5.84</tspan></text></g></g><g class="slice cursor-pointer"><path class="surface" d="M408.5,260L450.5,260A168,168 0,0,0 406.9709276640635,147.16831931391133L375.8531957480476,175.37623948543347A126,126 0,0,1 408.5,260Z" style="pointer-events: none; stroke-width: 1; fill: rgb(210, 237, 204); fill-opacity: 1; stroke: rgb(0, 0, 0); stroke-opacity: 1;"/><g class="slicetext"><text data-notex="1" class="slicetext" text-anchor="middle" x="0" y="0" style="font-family: 'Times New Roman'; font-size: 12px; fill: rgb(0, 0, 0); fill-opacity: 1; white-space: pre;" transform="translate(422.2656723644454,206.08012549809655)rotate(68.904)"><tspan class="line" dy="0em" x="0" y="0">Organic</tspan><tspan class="line" dy="1.3em" x="0" y="0">11.72</tspan></text></g></g><g class="slice"><path class="surface" d="M375.8531957480476,175.37623948543347L406.9709276640635,147.16831931391133A168,168 0,0,0 339.40797060120894,101.9320308156901L325.1809779509067,141.4490231117676A126,126 0,0,1 375.8531957480476,175.37623948543347Z" style="pointer-events: none; stroke-width: 1; fill: rgb(235, 248, 232); fill-opacity: 1; stroke: rgb(0, 0, 0); stroke-opacity: 1; opacity: 1;"/><g class="slicetext"><text data-notex="1" class="slicetext" text-anchor="middle" x="0" y="0" style="font-family: 'Times New Roman'; font-size: 12px; fill: rgb(0, 0, 0); fill-opacity: 1; white-space: pre;" transform="translate(366.11843608014823,136.00984222694774)rotate(33.803999999999974)"><tspan class="line" dy="0em" x="0" y="0">Nitrogen</tspan><tspan class="line" dy="1.3em" x="0" y="0">7.78</tspan></text></g></g><g class="slice cursor-pointer"><path class="surface" d="M325.1809779509067,141.4490231117676L339.40797060120894,101.9320308156901A168,168 0,0,0 211.06460442391955,107.94414099124984L228.92345331793967,145.9581057434374A126,126 0,0,1 325.1809779509067,141.4490231117676Z" style="pointer-events: none; stroke-width: 1; fill: rgb(204, 235, 198); fill-opacity: 1; stroke: rgb(0, 0, 0); stroke-opacity: 1;"/><g class="slicetext"><text data-notex="1" class="slicetext" text-anchor="middle" x="0" y="0" style="font-family: 'Times New Roman'; font-size: 12px; fill: rgb(0, 0, 0); fill-opacity: 1; white-space: pre;" transform="translate(275.4279368461432,112.53547561502391)rotate(-2.6820000000000164)"><tspan class="line" dy="0em" x="0" y="0">Heirloom Seeds</tspan><tspan class="line" dy="1.3em" x="0" y="0">12.49</tspan></text></g></g><g class="slice cursor-pointer"><path class="surface" d="M228.92345331793967,145.9581057434374L211.06460442391955,107.94414099124984A168,168 0,0,0 165.96624462344874,138.98808381883168L195.09968346758654,169.24106286412376A126,126 0,0,1 228.92345331793967,145.9581057434374Z" style="pointer-events: none; stroke-width: 1; fill: rgb(247, 252, 245); fill-opacity: 1; stroke: rgb(0, 0, 0); stroke-opacity: 1;"/><g class="slicetext"><text data-notex="1" class="slicetext" text-anchor="middle" x="0" y="0" style="font-family: 'Times New Roman'; font-size: 12px; fill: rgb(0, 0, 0); fill-opacity: 1; white-space: pre;" transform="translate(192.726299596165,129.78741983026276)scale(0.7052351677842433)rotate(-34.54200000000003)"><tspan class="line" dy="0em" x="0" y="0">Hybrid Seeds</tspan><tspan class="line" dy="1.3em" x="0" y="0">5.21</tspan></text></g></g><g class="slice"><path class="surface" d="M400.1122092046676,305.20363089396136L439.3162789395568,320.27150785861517A168,168 0,0,0 450.5,260.00000000000006L408.5,260.00000000000006A126,126 0,0,1 400.1122092046676,305.20363089396136Z" style="pointer-events: none; stroke-width: 1; fill: rgb(244, 251, 242); fill-opacity: 1; stroke: rgb(0, 0, 0); stroke-opacity: 1; opacity: 1;"/><g class="slicetext"><text data-notex="1" class="slicetext" text-anchor="middle" x="0" y="0" style="font-family: 'Times New Roman'; font-size: 12px; fill: rgb(0, 0, 0); fill-opacity: 1; white-space: pre;" transform="translate(428.84775975533165,287.3051603431756)scale(0.8959517741040054)rotate(-79.48800000000006)"><tspan class="line" dy="0em" x="0" y="0">Egg Layers</tspan><tspan class="line" dy="1.3em" x="0" y="0">5.84</tspan></text></g></g><g class="slice"><path class="surface" d="M450.5,260L492.5,260A210,210 0,0,0 477.8984337488383,183.06202440601345L438.81874699907064,198.44961952481077A168,168 0,0,1 450.5,260Z" style="pointer-events: none; stroke-width: 1; fill: rgb(244, 251, 241); fill-opacity: 1; stroke: rgb(0, 0, 0); stroke-opacity: 1; opacity: 1;"/><g class="slicetext"><text data-notex="1" class="slicetext" text-anchor="middle" x="0" y="0" style="font-family: 'Times New Roman'; font-size: 12px; fill: rgb(0, 0, 0); fill-opacity: 1; white-space: pre;" transform="translate(471.1643823935338,224.19459366475695)rotate(79.25400000000002)"><tspan class="line" dy="0em" x="0" y="0">Manure</tspan><tspan class="line" dy="1.3em" x="0" y="0">5.97</tspan></text></g></g><g class="slice"><path class="surface" d="M438.81874699907064,198.44961952481077L477.8984337488383,183.06202440601345A210,210 0,0,0 438.08865958007937,118.96039914238915L406.9709276640635,147.16831931391133A168,168 0,0,1 438.81874699907064,198.44961952481077Z" style="pointer-events: none; stroke-width: 1; fill: rgb(245, 251, 242); fill-opacity: 1; stroke: rgb(0, 0, 0); stroke-opacity: 1; opacity: 1;"/><g class="slicetext"><text data-notex="1" class="slicetext" text-anchor="middle" x="0" y="0" style="font-family: 'Times New Roman'; font-size: 12px; fill: rgb(0, 0, 0); fill-opacity: 1; white-space: pre;" transform="translate(445.22479431226395,158.5456874887342)rotate(58.158000000000015)"><tspan class="line" dy="0em" x="0" y="0">Compost</tspan><tspan class="line" dy="1.3em" x="0" y="0">5.75</tspan></text></g></g><g class="slice"><path class="surface" d="M339.40797060120894,101.9320308156901L353.6349632515112,62.41503851961264A210,210 0,0,0 270.7628460738888,50.3282584187493L273.110276859111,92.26260673499945A168,168 0,0,1 339.40797060120894,101.9320308156901Z" style="pointer-events: none; stroke-width: 1; fill: rgb(242, 250, 239); fill-opacity: 1; stroke: rgb(0, 0, 0); stroke-opacity: 1; opacity: 1;"/><g class="slicetext"><text data-notex="1" class="slicetext" text-anchor="middle" x="0" y="0" style="font-family: 'Times New Roman'; font-size: 12px; fill: rgb(0, 0, 0); fill-opacity: 1; white-space: pre;" transform="translate(309.9837008304415,68.09554688971768)rotate(8.298000000000002)"><tspan class="line" dy="0em" x="0" y="0">Chili Pepper</tspan><tspan class="line" dy="1.3em" x="0" y="0">6.39</tspan></text></g></g><g class="slice"><path class="surface" d="M273.110276859111,92.26260673499945L270.7628460738888,50.3282584187493A210,210 0,0,0 193.20575552989945,69.93017623906229L211.06460442391955,107.94414099124984A168,168 0,0,1 273.110276859111,92.26260673499945Z" style="pointer-events: none; stroke-width: 1; fill: rgb(243, 250, 240); fill-opacity: 1; stroke: rgb(0, 0, 0); stroke-opacity: 1; opacity: 1;"/><g class="slicetext"><text data-notex="1" class="slicetext" text-anchor="middle" x="0" y="0" style="font-family: 'Times New Roman'; font-size: 12px; fill: rgb(0, 0, 0); fill-opacity: 1; white-space: pre;" transform="translate(235.43726532173733,73.79124184944254)rotate(-14.183999999999969)"><tspan class="line" dy="0em" x="0" y="0">Tomato</tspan><tspan class="line" dy="1.3em" x="0" y="0">6.1</tspan></text></g></g><g class="slice"><path class="surface" d="M211.06460442391955,107.94414099124984L193.20575552989945,69.93017623906229A210,210 0,0,0 136.83280577931092,108.7351047735396L165.96624462344874,138.98808381883168A168,168 0,0,1 211.06460442391955,107.94414099124984Z" style="pointer-events: none; stroke-width: 1; fill: rgb(247, 252, 245); fill-opacity: 1; stroke: rgb(0, 0, 0); stroke-opacity: 1; opacity: 1;"/><g class="slicetext"><text data-notex="1" class="slicetext" text-anchor="middle" x="0" y="0" style="font-family: 'Times New Roman'; font-size: 12px; fill: rgb(0, 0, 0); fill-opacity: 1; white-space: pre;" transform="translate(169.83645573607924,96.56666335839621)scale(0.8155779352332493)rotate(-34.54200000000003)"><tspan class="line" dy="0em" x="0" y="0">Maize Hybrids</tspan><tspan class="line" dy="1.3em" x="0" y="0">5.21</tspan></text></g></g></g></g><g class="glimages"/><defs id="topdefs-5032b8"><g class="clips"/></defs><g class="layer-above"><g class="imagelayer"/><g class="shapelayer"/></g><g class="infolayer"><g class="cb7c4771 colorbar" transform="translate(10,50)"><rect class="cbbg" x="571.5" y="63" width="48.015625" height="295" style="fill: rgb(0, 0, 0); fill-opacity: 0; stroke: rgb(68, 68, 68); stroke-opacity: 1; stroke-width: 0;"/><g class="cbfills" transform="translate(0,93)"><rect class="cbfill gradient_filled" style="fill: url('#g5032b8-cb7c4771');" x="582" y="0" width="15" height="254"/></g><g class="cblines" transform="translate(0,93)"/><g class="cbaxis crisp" transform="translate(0,-50)"><g class="ycb7c4771tick"><text text-anchor="start" x="600.4" y="4.199999999999999" transform="translate(0,358.97)" style="font-family: 'Times New Roman'; font-size: 12px; fill: rgb(42, 63, 95); fill-opacity: 1; white-space: pre; opacity: 1;">10</text></g><g class="ycb7c4771tick"><text text-anchor="start" x="600.4" y="4.199999999999999" style="font-family: 'Times New Roman'; font-size: 12px; fill: rgb(42, 63, 95); fill-opacity: 1; white-space: pre; opacity: 1;" transform="translate(0,319.2700000000001)">15</text></g><g class="ycb7c4771tick"><text text-anchor="start" x="600.4" y="4.199999999999999" style="font-family: 'Times New Roman'; font-size: 12px; fill: rgb(42, 63, 95); fill-opacity: 1; white-space: pre; opacity: 1;" transform="translate(0,279.57000000000005)">20</text></g><g class="ycb7c4771tick"><text text-anchor="start" x="600.4" y="4.199999999999999" style="font-family: 'Times New Roman'; font-size: 12px; fill: rgb(42, 63, 95); fill-opacity: 1; white-space: pre; opacity: 1;" transform="translate(0,239.87000000000006)">25</text></g><g class="ycb7c4771tick"><text text-anchor="start" x="600.4" y="4.199999999999999" style="font-family: 'Times New Roman'; font-size: 12px; fill: rgb(42, 63, 95); fill-opacity: 1; white-space: pre; opacity: 1;" transform="translate(0,200.17000000000007)">30</text></g><g class="ycb7c4771tick"><text text-anchor="start" x="600.4" y="4.199999999999999" style="font-family: 'Times New Roman'; font-size: 12px; fill: rgb(42, 63, 95); fill-opacity: 1; white-space: pre; opacity: 1;" transform="translate(0,160.47000000000006)">35</text></g></g><g class="cbtitleunshift" transform="translate(-10,-50)"><g class="cbtitle" transform="translate(-0.5,-0.5)"><text class="ycb7c4771title" x="592.25" y="135.75" text-anchor="start" style="opacity: 1; font-family: 'Times New Roman'; font-size: 13px; fill: rgb(42, 63, 95); fill-opacity: 1; white-space: pre;">%</text></g></g><rect class="cboutline" x="582" y="93" width="15" height="254" style="stroke: rgb(68, 68, 68); stroke-opacity: 1; fill: none; stroke-width: 1;"/></g><g class="g-gtitle"><text class="gtitle" x="320" y="25" text-anchor="middle" dy="0em" style="opacity: 1; font-family: 'Times New Roman'; font-size: 16px; fill: rgb(42, 63, 95); fill-opacity: 1; white-space: pre;">Agriculture Production Distribution by Category (2024) (%)</text></g></g></svg>