<svg class="main-svg" xmlns="http://www.w3.org/2000/svg" xmlns:xlink="http://www.w3.org/1999/xlink" width="1920" height="1440" style="" viewBox="0 0 640 480"><rect x="0" y="0" width="640" height="480" style="fill: rgb(255, 255, 255); fill-opacity: 1;"/><defs id="defs-155e69"><g class="clips"/><g class="gradients"><linearGradient x1="0" y1="1" x2="0" y2="0" gradientUnits="objectBoundingBox" id="g155e69-cba6a2ca"><stop offset="0%" stop-color="rgb(255, 245, 235)" stop-opacity="1"/><stop offset="12.5%" stop-color="rgb(254, 230, 206)" stop-opacity="1"/><stop offset="25%" stop-color="rgb(253, 208, 162)" stop-opacity="1"/><stop offset="37.5%" stop-color="rgb(253, 174, 107)" stop-opacity="1"/><stop offset="50%" stop-color="rgb(253, 141, 60)" stop-opacity="1"/><stop offset="62.5%" stop-color="rgb(241, 105, 19)" stop-opacity="1"/><stop offset="75%" stop-color="rgb(217, 72, 1)" stop-opacity="1"/><stop offset="87.5%" stop-color="rgb(166, 54, 3)" stop-opacity="1"/><stop offset="100%" stop-color="rgb(127, 39, 4)" stop-opacity="1"/></linearGradient></g><g class="patterns"/></defs><g class="bglayer"/><g class="layer-below"><g class="imagelayer"/><g class="shapelayer"/></g><g class="cartesianlayer"/><g class="polarlayer"/><g class="smithlayer"/><g class="ternarylayer"/><g class="geolayer"/><g class="funnelarealayer"/><g class="pielayer"/><g class="iciclelayer"/><g class="treemaplayer"/><g class="sunburstlayer"><g class="trace sunburst" stroke-linejoin="round" style="opacity: 1;"><g class="slice"><path class="surface" d="M282.5,260A0,0 0,1,0 282.5,260A0,0 0,1,0 282.5,260ZM324.5,260A42,42 0,1,1 240.5,260A42,42 0,1,1 324.5,260Z" style="pointer-events: none; stroke-width: 1; fill: rgb(255, 255, 255); fill-opacity: 1; stroke: rgb(0, 0, 0); stroke-opacity: 1;"/><g class="slicetext"><text data-notex="1" class="slicetext" text-anchor="middle" x="0" y="0" style="font-family: 'Times New Roman'; font-size: 12px; fill: rgb(0, 0, 0); fill-opacity: 1; white-space: pre;" transform="translate(282.5,264)">100.01</text></g></g><g class="slice cursor-pointer"><path class="surface" d="M324.5,260L366.5,260A84,84 0,0,0 200.20768242828154,243.14845797336517L241.35384121414077,251.57422898668258A42,42 0,0,1 324.5,260Z" style="pointer-events: none; stroke-width: 1; fill: rgb(127, 39, 4); fill-opacity: 1; stroke: rgb(0, 0, 0); stroke-opacity: 1;"/><g class="slicetext"><text data-notex="1" class="slicetext" text-anchor="middle" x="0" y="0" style="font-family: 'Times New Roman'; font-size: 12px; fill: rgb(0, 0, 0); fill-opacity: 1; white-space: pre;" transform="translate(288.5658376335661,200.14184598031778)scale(0.9024293566305589)rotate(5.786421357864242)"><tspan class="line" dy="0em" x="0" y="0">Creative Expression</tspan><tspan class="line" dy="1.3em" x="0" y="0">46.79</tspan></text></g></g><g class="slice cursor-pointer"><path class="surface" d="M241.35384121414077,251.57422898668258L200.20768242828154,243.14845797336517A84,84 0,0,0 278.5566322773336,343.90738853643245L280.5283161386668,301.9536942682162A42,42 0,0,1 241.35384121414077,251.57422898668258Z" style="pointer-events: none; stroke-width: 1; fill: rgb(250, 131, 48); fill-opacity: 1; stroke: rgb(0, 0, 0); stroke-opacity: 1;"/><g class="slicetext"><text data-notex="1" class="slicetext" text-anchor="middle" x="0" y="0" style="font-family: 'Times New Roman'; font-size: 12px; fill: rgb(0, 0, 0); fill-opacity: 1; white-space: pre;" transform="translate(239.3521287513141,293.5512731394133)rotate(52.13178682131786)"><tspan class="line" dy="0em" x="0" y="0">Digital Culture</tspan><tspan class="line" dy="1.3em" x="0" y="0">27.47</tspan></text></g></g><g class="slice cursor-pointer"><path class="surface" d="M280.5283161386668,301.9536942682162L278.5566322773336,343.90738853643245A84,84 0,0,0 366.5,260.0000000000001L324.5,260.00000000000006A42,42 0,0,1 280.5283161386668,301.9536942682162Z" style="pointer-events: none; stroke-width: 1; fill: rgb(253, 142, 62); fill-opacity: 1; stroke: rgb(0, 0, 0); stroke-opacity: 1;"/><g class="slicetext"><text data-notex="1" class="slicetext" text-anchor="middle" x="0" y="0" style="font-family: 'Times New Roman'; font-size: 12px; fill: rgb(0, 0, 0); fill-opacity: 1; white-space: pre;" transform="translate(320.4108066029672,299.7343316709233)scale(0.8348172489788152)rotate(-43.65463453654627)"><tspan class="line" dy="0em" x="0" y="0">Cultural Participation</tspan><tspan class="line" dy="1.3em" x="0" y="0">25.75</tspan></text></g></g><g class="slice cursor-pointer"><path class="surface" d="M366.5,260L408.5,260A126,126 0,0,0 287.82194104015855,134.11244325365163L286.04796069343905,176.0749621691011A84,84 0,0,1 366.5,260Z" style="pointer-events: none; stroke-width: 1; fill: rgb(253, 152, 75); fill-opacity: 1; stroke: rgb(0, 0, 0); stroke-opacity: 1;"/><g class="slicetext"><text data-notex="1" class="slicetext" text-anchor="middle" x="0" y="0" style="font-family: 'Times New Roman'; font-size: 12px; fill: rgb(0, 0, 0); fill-opacity: 1; white-space: pre;" transform="translate(359.257026793649,186.1920746297046)rotate(46.21037896210373)"><tspan class="line" dy="0em" x="0" y="0">Visual Arts</tspan><tspan class="line" dy="1.3em" x="0" y="0">24.33</tspan></text></g></g><g class="slice cursor-pointer"><path class="surface" d="M286.04796069343905,176.0749621691011L287.82194104015855,134.11244325365163A126,126 0,0,0 159.06152364242234,234.72268696004775L200.20768242828154,243.14845797336517A84,84 0,0,1 286.04796069343905,176.0749621691011Z" style="pointer-events: none; stroke-width: 1; fill: rgb(253, 163, 92); fill-opacity: 1; stroke: rgb(0, 0, 0); stroke-opacity: 1;"/><g class="slicetext"><text data-notex="1" class="slicetext" text-anchor="middle" x="0" y="0" style="font-family: 'Times New Roman'; font-size: 12px; fill: rgb(0, 0, 0); fill-opacity: 1; white-space: pre;" transform="translate(217.809206445355,177.47555314293982)rotate(-38.003199680032026)"><tspan class="line" dy="0em" x="0" y="0">Performing Arts</tspan><tspan class="line" dy="1.3em" x="0" y="0">22.46</tspan></text></g></g><g class="slice"><path class="surface" d="M200.20768242828154,243.14845797336517L159.06152364242234,234.72268696004775A126,126 0,0,0 276.58494841600043,385.8610828046487L278.5566322773336,343.90738853643245A84,84 0,0,1 200.20768242828154,243.14845797336517Z" style="pointer-events: none; stroke-width: 1; fill: rgb(250, 131, 48); fill-opacity: 1; stroke: rgb(0, 0, 0); stroke-opacity: 1; opacity: 1;"/><g class="slicetext"><text data-notex="1" class="slicetext" text-anchor="middle" x="0" y="0" style="font-family: 'Times New Roman'; font-size: 12px; fill: rgb(0, 0, 0); fill-opacity: 1; white-space: pre;" transform="translate(206.22900327458746,319.3074228158486)rotate(52.13178682131786)"><tspan class="line" dy="0em" x="0" y="0">Streaming Culture</tspan><tspan class="line" dy="1.3em" x="0" y="0">27.47</tspan></text></g></g><g class="slice cursor-pointer"><path class="surface" d="M278.5566322773336,343.90738853643245L276.58494841600043,385.8610828046487A126,126 0,0,0 398.4821508835542,309.23556312691534L359.82143392236947,292.8237087512769A84,84 0,0,1 278.5566322773336,343.90738853643245Z" style="pointer-events: none; stroke-width: 1; fill: rgb(253, 183, 122); fill-opacity: 1; stroke: rgb(0, 0, 0); stroke-opacity: 1;"/><g class="slicetext"><text data-notex="1" class="slicetext" text-anchor="middle" x="0" y="0" style="font-family: 'Times New Roman'; font-size: 12px; fill: rgb(0, 0, 0); fill-opacity: 1; white-space: pre;" transform="translate(333.1439570212731,341.16902806309366)scale(0.9792280287961029)rotate(-32.15378462153774)"><tspan class="line" dy="0em" x="0" y="0">Heritage Engagement</tspan><tspan class="line" dy="1.3em" x="0" y="0">19.36</tspan></text></g></g><g class="slice"><path class="surface" d="M359.82143392236947,292.8237087512769L398.4821508835542,309.23556312691534A126,126 0,0,0 408.5,260.00000000000017L366.5,260.0000000000001A84,84 0,0,1 359.82143392236947,292.8237087512769Z" style="pointer-events: none; stroke-width: 1; fill: rgb(255, 242, 228); fill-opacity: 1; stroke: rgb(0, 0, 0); stroke-opacity: 1; opacity: 1;"/><g class="slicetext"><text data-notex="1" class="slicetext" text-anchor="middle" x="0" y="0" style="font-family: 'Times New Roman'; font-size: 12px; fill: rgb(0, 0, 0); fill-opacity: 1; white-space: pre;" transform="translate(391.8862442064368,282.3654014249389)scale(0.6500183768315705)rotate(-78.49915008499147)"><tspan class="line" dy="0em" x="0" y="0">Art Festivals</tspan><tspan class="line" dy="1.3em" x="0" y="0">6.39</tspan></text></g></g><g class="slice cursor-pointer"><path class="surface" d="M408.5,260L450.5,260A168,168 0,0,0 360.66154464614397,111.28963405825121L341.121158484608,148.46722554368841A126,126 0,0,1 408.5,260Z" style="pointer-events: none; stroke-width: 1; fill: rgb(253, 197, 144); fill-opacity: 1; stroke: rgb(0, 0, 0); stroke-opacity: 1;"/><g class="slicetext"><text data-notex="1" class="slicetext" text-anchor="middle" x="0" y="0" style="font-family: 'Times New Roman'; font-size: 12px; fill: rgb(0, 0, 0); fill-opacity: 1; white-space: pre;" transform="translate(410.4022829365165,182.7320606570933)rotate(58.863113688631074)"><tspan class="line" dy="0em" x="0" y="0">Sculpture</tspan><tspan class="line" dy="1.3em" x="0" y="0">17.3</tspan></text></g></g><g class="slice"><path class="surface" d="M341.121158484608,148.46722554368841L360.66154464614397,111.28963405825121A168,168 0,0,0 289.59592138687805,92.1499243382022L287.82194104015855,134.11244325365163A126,126 0,0,1 341.121158484608,148.46722554368841Z" style="pointer-events: none; stroke-width: 1; fill: rgb(255, 240, 225); fill-opacity: 1; stroke: rgb(0, 0, 0); stroke-opacity: 1; opacity: 1;"/><g class="slicetext"><text data-notex="1" class="slicetext" text-anchor="middle" x="0" y="0" style="font-family: 'Times New Roman'; font-size: 12px; fill: rgb(0, 0, 0); fill-opacity: 1; white-space: pre;" transform="translate(321.43843636726257,115.42182772593813)rotate(15.07349265073492)"><tspan class="line" dy="0em" x="0" y="0">Painting</tspan><tspan class="line" dy="1.3em" x="0" y="0">7.03</tspan></text></g></g><g class="slice cursor-pointer"><path class="surface" d="M287.82194104015855,134.11244325365163L289.5959213868781,92.1499243382022A168,168 0,0,0 139.66678972517795,171.55411800095797L175.37509229388345,193.66558850071848A126,126 0,0,1 287.82194104015855,134.11244325365163Z" style="pointer-events: none; stroke-width: 1; fill: rgb(253, 200, 149); fill-opacity: 1; stroke: rgb(0, 0, 0); stroke-opacity: 1;"/><g class="slicetext"><text data-notex="1" class="slicetext" text-anchor="middle" x="0" y="0" style="font-family: 'Times New Roman'; font-size: 12px; fill: rgb(0, 0, 0); fill-opacity: 1; white-space: pre;" transform="translate(212.34838688885904,127.54137340539204)rotate(-27.906209379062034)"><tspan class="line" dy="0em" x="0" y="0">Theatre</tspan><tspan class="line" dy="1.3em" x="0" y="0">16.85</tspan></text></g></g><g class="slice"><path class="surface" d="M175.37509229388345,193.66558850071848L139.66678972517795,171.55411800095797A168,168 0,0,0 117.91536485656312,226.29691594673034L159.06152364242234,234.72268696004775A126,126 0,0,1 175.37509229388345,193.66558850071848Z" style="pointer-events: none; stroke-width: 1; fill: rgb(255, 244, 233); fill-opacity: 1; stroke: rgb(0, 0, 0); stroke-opacity: 1; opacity: 1;"/><g class="slicetext"><text data-notex="1" class="slicetext" text-anchor="middle" x="0" y="0" style="font-family: 'Times New Roman'; font-size: 12px; fill: rgb(0, 0, 0); fill-opacity: 1; white-space: pre;" transform="translate(142.9648226579321,204.55729264164827)rotate(-68.33016698330164)"><tspan class="line" dy="0em" x="0" y="0">Dance</tspan><tspan class="line" dy="1.3em" x="0" y="0">5.61</tspan></text></g></g><g class="slice"><path class="surface" d="M276.58494841600043,385.8610828046487L274.61326455466724,427.8147770728649A168,168 0,0,0 437.14286784473893,325.6474175025538L398.4821508835542,309.23556312691534A126,126 0,0,1 276.58494841600043,385.8610828046487Z" style="pointer-events: none; stroke-width: 1; fill: rgb(253, 183, 122); fill-opacity: 1; stroke: rgb(0, 0, 0); stroke-opacity: 1; opacity: 1;"/><g class="slicetext"><text data-notex="1" class="slicetext" text-anchor="middle" x="0" y="0" style="font-family: 'Times New Roman'; font-size: 12px; fill: rgb(0, 0, 0); fill-opacity: 1; white-space: pre;" transform="translate(357.0296547849161,378.87134033331307)rotate(-32.15378462153774)"><tspan class="line" dy="0em" x="0" y="0">Museum Visits</tspan><tspan class="line" dy="1.3em" x="0" y="0">19.36</tspan></text></g></g><g class="slice"><path class="surface" d="M450.5,260L492.5,260A210,210 0,0,0 476.00919102857415,178.42676304407928L437.30735282285934,194.74141043526345A168,168 0,0,1 450.5,260Z" style="pointer-events: none; stroke-width: 1; fill: rgb(255, 242, 228); fill-opacity: 1; stroke: rgb(0, 0, 0); stroke-opacity: 1; opacity: 1;"/><g class="slicetext"><text data-notex="1" class="slicetext" text-anchor="middle" x="0" y="0" style="font-family: 'Times New Roman'; font-size: 12px; fill: rgb(0, 0, 0); fill-opacity: 1; white-space: pre;" transform="translate(474.9798734762752,221.08835516657672)scale(0.9200965740340995)rotate(78.57114288571142)"><tspan class="line" dy="0em" x="0" y="0">Stone Sculpture</tspan><tspan class="line" dy="1.3em" x="0" y="0">6.35</tspan></text></g></g><g class="slice"><path class="surface" d="M437.30735282285934,194.74141043526345L476.00919102857415,178.42676304407928A210,210 0,0,0 434.50621767581373,115.10655712595846L404.104974140651,144.0852457007668A168,168 0,0,1 437.30735282285934,194.74141043526345Z" style="pointer-events: none; stroke-width: 1; fill: rgb(255, 243, 232); fill-opacity: 1; stroke: rgb(0, 0, 0); stroke-opacity: 1; opacity: 1;"/><g class="slicetext"><text data-notex="1" class="slicetext" text-anchor="middle" x="0" y="0" style="font-family: 'Times New Roman'; font-size: 12px; fill: rgb(0, 0, 0); fill-opacity: 1; white-space: pre;" transform="translate(448.95665043713313,150.75683682502495)scale(0.7127914680277957)rotate(56.75732426757327)"><tspan class="line" dy="0em" x="0" y="0">Public Installations</tspan><tspan class="line" dy="1.3em" x="0" y="0">5.77</tspan></text></g></g><g class="slice"><path class="surface" d="M404.104974140651,144.0852457007668L434.50621767581373,115.10655712595846A210,210 0,0,0 380.20193080768,74.112042572814L360.66154464614397,111.28963405825121A168,168 0,0,1 404.104974140651,144.0852457007668Z" style="pointer-events: none; stroke-width: 1; fill: rgb(255, 245, 235); fill-opacity: 1; stroke: rgb(0, 0, 0); stroke-opacity: 1; opacity: 1;"/><g class="slicetext"><text data-notex="1" class="slicetext" text-anchor="middle" x="0" y="0" style="font-family: 'Times New Roman'; font-size: 12px; fill: rgb(0, 0, 0); fill-opacity: 1; white-space: pre;" transform="translate(401.3168986731921,102.35604383137058)scale(0.9200579002990408)rotate(37.04929507049292)"><tspan class="line" dy="0em" x="0" y="0">Metal Works</tspan><tspan class="line" dy="1.3em" x="0" y="0">5.18</tspan></text></g></g><g class="slice"><path class="surface" d="M289.5959213868781,92.1499243382022L291.3699017335976,50.18740542275276A210,210 0,0,0 164.0639693355297,86.58458361366874L187.75117546842375,121.267666890935A168,168 0,0,1 289.5959213868781,92.1499243382022Z" style="pointer-events: none; stroke-width: 1; fill: rgb(254, 230, 207); fill-opacity: 1; stroke: rgb(0, 0, 0); stroke-opacity: 1; opacity: 1;"/><g class="slicetext"><text data-notex="1" class="slicetext" text-anchor="middle" x="0" y="0" style="font-family: 'Times New Roman'; font-size: 12px; fill: rgb(0, 0, 0); fill-opacity: 1; white-space: pre;" transform="translate(229.34886193944084,75.31604589256412)rotate(-15.955404459554074)"><tspan class="line" dy="0em" x="0" y="0">Drama</tspan><tspan class="line" dy="1.3em" x="0" y="0">10.21</tspan></text></g></g><g class="slice"><path class="surface" d="M187.75117546842375,121.267666890935L164.0639693355297,86.58458361366874A210,210 0,0,0 103.95848715647242,149.44264750119748L139.66678972517795,171.55411800095797A168,168 0,0,1 187.75117546842375,121.267666890935Z" style="pointer-events: none; stroke-width: 1; fill: rgb(255, 241, 227); fill-opacity: 1; stroke: rgb(0, 0, 0); stroke-opacity: 1; opacity: 1;"/><g class="slicetext"><text data-notex="1" class="slicetext" text-anchor="middle" x="0" y="0" style="font-family: 'Times New Roman'; font-size: 12px; fill: rgb(0, 0, 0); fill-opacity: 1; white-space: pre;" transform="translate(143.28785813373045,127.3488194657746)rotate(-46.282371762823686)"><tspan class="line" dy="0em" x="0" y="0">Opera</tspan><tspan class="line" dy="1.3em" x="0" y="0">6.64</tspan></text></g></g></g></g><g class="glimages"/><defs id="topdefs-155e69"><g class="clips"/></defs><g class="layer-above"><g class="imagelayer"/><g class="shapelayer"/></g><g class="infolayer"><g class="cba6a2ca colorbar" transform="translate(10,50)"><rect class="cbbg" x="571.5" y="63" width="48.015625" height="295" style="fill: rgb(0, 0, 0); fill-opacity: 0; stroke: rgb(68, 68, 68); stroke-opacity: 1; stroke-width: 0;"/><g class="cbfills" transform="translate(0,93)"><rect class="cbfill gradient_filled" style="fill: url('#g155e69-cba6a2ca');" x="582" y="0" width="15" height="254"/></g><g class="cblines" transform="translate(0,93)"/><g class="cbaxis crisp" transform="translate(0,-50)"><g class="ycba6a2catick"><text text-anchor="start" x="600.4" y="4.199999999999999" transform="translate(0,367.58000000000004)" style="font-family: 'Times New Roman'; font-size: 12px; fill: rgb(42, 63, 95); fill-opacity: 1; white-space: pre; opacity: 1;">10</text></g><g class="ycba6a2catick"><text text-anchor="start" x="600.4" y="4.199999999999999" style="font-family: 'Times New Roman'; font-size: 12px; fill: rgb(42, 63, 95); fill-opacity: 1; white-space: pre; opacity: 1;" transform="translate(0,306.5300000000001)">20</text></g><g class="ycba6a2catick"><text text-anchor="start" x="600.4" y="4.199999999999999" style="font-family: 'Times New Roman'; font-size: 12px; fill: rgb(42, 63, 95); fill-opacity: 1; white-space: pre; opacity: 1;" transform="translate(0,245.49000000000007)">30</text></g><g class="ycba6a2catick"><text text-anchor="start" x="600.4" y="4.199999999999999" style="font-family: 'Times New Roman'; font-size: 12px; fill: rgb(42, 63, 95); fill-opacity: 1; white-space: pre; opacity: 1;" transform="translate(0,184.45000000000005)">40</text></g></g><g class="cbtitleunshift" transform="translate(-10,-50)"><g class="cbtitle" transform="translate(-0.5,-0.5)"><text class="ycba6a2catitle" x="592.25" y="135.75" text-anchor="start" style="opacity: 1; font-family: 'Times New Roman'; font-size: 13px; fill: rgb(42, 63, 95); fill-opacity: 1; white-space: pre;">%</text></g></g><rect class="cboutline" x="582" y="93" width="15" height="254" style="stroke: rgb(68, 68, 68); stroke-opacity: 1; fill: none; stroke-width: 1;"/></g><g class="g-gtitle"><text class="gtitle" x="320" y="25" text-anchor="middle" dy="0em" style="opacity: 1; font-family: 'Times New Roman'; font-size: 16px; fill: rgb(42, 63, 95); fill-opacity: 1; white-space: pre;">Cultural Engagement Distribution by Category (2024) (%)</text></g></g></svg>