<svg class="main-svg" xmlns="http://www.w3.org/2000/svg" xmlns:xlink="http://www.w3.org/1999/xlink" width="1920" height="1440" style="" viewBox="0 0 640 480"><rect x="0" y="0" width="640" height="480" style="fill: rgb(255, 255, 255); fill-opacity: 1;"/><defs id="defs-21feff"><g class="clips"/><g class="gradients"><linearGradient x1="0" y1="1" x2="0" y2="0" gradientUnits="objectBoundingBox" id="g21feff-cb9bf350"><stop offset="0%" stop-color="rgb(252, 251, 253)" stop-opacity="1"/><stop offset="12.5%" stop-color="rgb(239, 237, 245)" stop-opacity="1"/><stop offset="25%" stop-color="rgb(218, 218, 235)" stop-opacity="1"/><stop offset="37.5%" stop-color="rgb(188, 189, 220)" stop-opacity="1"/><stop offset="50%" stop-color="rgb(158, 154, 200)" stop-opacity="1"/><stop offset="62.5%" stop-color="rgb(128, 125, 186)" stop-opacity="1"/><stop offset="75%" stop-color="rgb(106, 81, 163)" stop-opacity="1"/><stop offset="87.5%" stop-color="rgb(84, 39, 143)" stop-opacity="1"/><stop offset="100%" stop-color="rgb(63, 0, 125)" stop-opacity="1"/></linearGradient></g><g class="patterns"/></defs><g class="bglayer"/><g class="layer-below"><g class="imagelayer"/><g class="shapelayer"/></g><g class="cartesianlayer"/><g class="polarlayer"/><g class="smithlayer"/><g class="ternarylayer"/><g class="geolayer"/><g class="funnelarealayer"/><g class="pielayer"/><g class="iciclelayer"/><g class="treemaplayer"/><g class="sunburstlayer"><g class="trace sunburst" stroke-linejoin="round" style="opacity: 1;"><g class="slice"><path class="surface" d="M282.5,260A0,0 0,1,0 282.5,260A0,0 0,1,0 282.5,260ZM324.5,260A42,42 0,1,1 240.5,260A42,42 0,1,1 324.5,260Z" style="pointer-events: none; stroke-width: 1; fill: rgb(255, 255, 255); fill-opacity: 1; stroke: rgb(0, 0, 0); stroke-opacity: 1;"/><g class="slicetext"><text data-notex="1" class="slicetext" text-anchor="middle" x="0" y="0" style="font-family: 'Times New Roman'; font-size: 12px; fill: rgb(0, 0, 0); fill-opacity: 1; white-space: pre;" transform="translate(282.5,264)">100</text></g></g><g class="slice cursor-pointer"><path class="surface" d="M324.5,260L366.5,260A84,84 0,0,0 211.18327948869316,215.61615862149665L246.8416397443466,237.80807931074833A42,42 0,0,1 324.5,260Z" style="pointer-events: none; stroke-width: 1; fill: rgb(63, 0, 125); fill-opacity: 1; stroke: rgb(0, 0, 0); stroke-opacity: 1;"/><g class="slicetext"><text data-notex="1" class="slicetext" text-anchor="middle" x="0" y="0" style="font-family: 'Times New Roman'; font-size: 12px; fill: rgb(0, 0, 0); fill-opacity: 1; white-space: pre;" transform="translate(299.0311477593705,202.15093654518992)scale(0.9024293566305589)rotate(15.947999999999979)"><tspan class="line" dy="0em" x="0" y="0">Creative Expression</tspan><tspan class="line" dy="1.3em" x="0" y="0">41.14</tspan></text></g></g><g class="slice cursor-pointer"><path class="surface" d="M246.8416397443466,237.80807931074833L211.18327948869316,215.61615862149665A84,84 0,0,0 308.05553665363146,340.01821384125554L295.27776832681576,300.00910692062774A42,42 0,0,1 246.8416397443466,237.80807931074833Z" style="pointer-events: none; stroke-width: 1; fill: rgb(74, 20, 134); fill-opacity: 1; stroke: rgb(0, 0, 0); stroke-opacity: 1;"/><g class="slicetext"><text data-notex="1" class="slicetext" text-anchor="middle" x="0" y="0" style="font-family: 'Times New Roman'; font-size: 12px; fill: rgb(0, 0, 0); fill-opacity: 1; white-space: pre;" transform="translate(239.37543752670587,293.58122740543655)rotate(52.091999999999985)"><tspan class="line" dy="0em" x="0" y="0">Digital Culture</tspan><tspan class="line" dy="1.3em" x="0" y="0">38.78</tspan></text></g></g><g class="slice cursor-pointer"><path class="surface" d="M295.27776832681576,300.00910692062774L308.05553665363146,340.01821384125554A84,84 0,0,0 366.5,259.99999999999994L324.5,260A42,42 0,0,1 295.27776832681576,300.00910692062774Z" style="pointer-events: none; stroke-width: 1; fill: rgb(178, 178, 214); fill-opacity: 1; stroke: rgb(0, 0, 0); stroke-opacity: 1;"/><g class="slicetext"><text data-notex="1" class="slicetext" text-anchor="middle" x="0" y="0" style="font-family: 'Times New Roman'; font-size: 12px; fill: rgb(0, 0, 0); fill-opacity: 1; white-space: pre;" transform="translate(332.2057308428494,296.30454398935365)scale(0.6932920512416045)rotate(-53.85600000000011)"><tspan class="line" dy="0em" x="0" y="0">Cultural Participation</tspan><tspan class="line" dy="1.3em" x="0" y="0">20.08</tspan></text></g></g><g class="slice cursor-pointer"><path class="surface" d="M366.5,260L408.5,260A126,126 0,0,0 219.45429778433626,150.90719807368657L240.4695318562242,187.2714653824577A84,84 0,0,1 366.5,260Z" style="pointer-events: none; stroke-width: 1; fill: rgb(100, 70, 158); fill-opacity: 1; stroke: rgb(0, 0, 0); stroke-opacity: 1;"/><g class="slicetext"><text data-notex="1" class="slicetext" text-anchor="middle" x="0" y="0" style="font-family: 'Times New Roman'; font-size: 12px; fill: rgb(0, 0, 0); fill-opacity: 1; white-space: pre;" transform="translate(335.5814814342722,167.68744755770715)rotate(29.988000000000056)"><tspan class="line" dy="0em" x="0" y="0">Visual Arts</tspan><tspan class="line" dy="1.3em" x="0" y="0">33.34</tspan></text></g></g><g class="slice"><path class="surface" d="M240.4695318562242,187.2714653824577L219.45429778433626,150.90719807368657A126,126 0,0,0 175.52491923303967,193.42423793224503L211.18327948869313,215.6161586214967A84,84 0,0,1 240.4695318562242,187.2714653824577Z" style="pointer-events: none; stroke-width: 1; fill: rgb(244, 243, 248); fill-opacity: 1; stroke: rgb(0, 0, 0); stroke-opacity: 1; opacity: 1;"/><g class="slicetext"><text data-notex="1" class="slicetext" text-anchor="middle" x="0" y="0" style="font-family: 'Times New Roman'; font-size: 12px; fill: rgb(0, 0, 0); fill-opacity: 1; white-space: pre;" transform="translate(201.78114321515574,176.74805245586313)scale(0.6284015757173195)rotate(-44.06400000000008)"><tspan class="line" dy="0em" x="0" y="0">Performing Arts</tspan><tspan class="line" dy="1.3em" x="0" y="0">7.8</tspan></text></g></g><g class="slice cursor-pointer"><path class="surface" d="M211.18327948869316,215.61615862149665L175.52491923303972,193.42423793224498A126,126 0,0,0 245.45091902072977,380.42991986458964L257.8006126804865,340.2866132430597A84,84 0,0,1 211.18327948869316,215.61615862149665Z" style="pointer-events: none; stroke-width: 1; fill: rgb(121, 111, 178); fill-opacity: 1; stroke: rgb(0, 0, 0); stroke-opacity: 1;"/><g class="slicetext"><text data-notex="1" class="slicetext" text-anchor="middle" x="0" y="0" style="font-family: 'Times New Roman'; font-size: 12px; fill: rgb(0, 0, 0); fill-opacity: 1; white-space: pre;" transform="translate(192.12431036583638,293.6185245540587)rotate(69.49799999999993)"><tspan class="line" dy="0em" x="0" y="0">Online Exhibitions</tspan><tspan class="line" dy="1.3em" x="0" y="0">29.11</tspan></text></g></g><g class="slice cursor-pointer"><path class="surface" d="M257.8006126804865,340.2866132430597L245.45091902072977,380.42991986458964A126,126 0,0,0 320.8333049804472,380.0273207618833L308.05553665363146,340.01821384125554A84,84 0,0,1 257.8006126804865,340.2866132430597Z" style="pointer-events: none; stroke-width: 1; fill: rgb(239, 237, 245); fill-opacity: 1; stroke: rgb(0, 0, 0); stroke-opacity: 1;"/><g class="slicetext"><text data-notex="1" class="slicetext" text-anchor="middle" x="0" y="0" style="font-family: 'Times New Roman'; font-size: 12px; fill: rgb(0, 0, 0); fill-opacity: 1; white-space: pre;" transform="translate(283.0814172642058,368.8641785820735)scale(0.6816178997359811)rotate(-0.30600000000004)"><tspan class="line" dy="0em" x="0" y="0">Streaming Culture</tspan><tspan class="line" dy="1.3em" x="0" y="0">9.67</tspan></text></g></g><g class="slice"><path class="surface" d="M308.05553665363146,340.01821384125554L320.8333049804472,380.0273207618833A126,126 0,0,0 408.5,259.99999999999994L366.5,259.99999999999994A84,84 0,0,1 308.05553665363146,340.01821384125554Z" style="pointer-events: none; stroke-width: 1; fill: rgb(178, 178, 214); fill-opacity: 1; stroke: rgb(0, 0, 0); stroke-opacity: 1; opacity: 1;"/><g class="slicetext"><text data-notex="1" class="slicetext" text-anchor="middle" x="0" y="0" style="font-family: 'Times New Roman'; font-size: 12px; fill: rgb(0, 0, 0); fill-opacity: 1; white-space: pre;" transform="translate(359.569126887384,316.68836900366904)scale(0.9792280287961029)rotate(-53.85600000000011)"><tspan class="line" dy="0em" x="0" y="0">Heritage Engagement</tspan><tspan class="line" dy="1.3em" x="0" y="0">20.08</tspan></text></g></g><g class="slice cursor-pointer"><path class="surface" d="M408.5,260L450.5,260A168,168 0,0,0 350.3814488687721,106.3246639845018L333.41108665157907,144.74349798837636A126,126 0,0,1 408.5,260Z" style="pointer-events: none; stroke-width: 1; fill: rgb(190, 191, 221); fill-opacity: 1; stroke: rgb(0, 0, 0); stroke-opacity: 1;"/><g class="slicetext"><text data-notex="1" class="slicetext" text-anchor="middle" x="0" y="0" style="font-family: 'Times New Roman'; font-size: 12px; fill: rgb(0, 0, 0); fill-opacity: 1; white-space: pre;" transform="translate(407.70310098203026,178.43093763469295)rotate(56.91599999999994)"><tspan class="line" dy="0em" x="0" y="0">Sculpture</tspan><tspan class="line" dy="1.3em" x="0" y="0">18.38</tspan></text></g></g><g class="slice cursor-pointer"><path class="surface" d="M333.41108665157907,144.74349798837636L350.3814488687721,106.3246639845018A168,168 0,0,0 198.43906371244844,114.54293076491541L219.45429778433632,150.90719807368657A126,126 0,0,1 333.41108665157907,144.74349798837636Z" style="pointer-events: none; stroke-width: 1; fill: rgb(212, 213, 232); fill-opacity: 1; stroke: rgb(0, 0, 0); stroke-opacity: 1;"/><g class="slicetext"><text data-notex="1" class="slicetext" text-anchor="middle" x="0" y="0" style="font-family: 'Times New Roman'; font-size: 12px; fill: rgb(0, 0, 0); fill-opacity: 1; white-space: pre;" transform="translate(274.41322136085756,110.48861670067667)rotate(-3.0960000000000036)"><tspan class="line" dy="0em" x="0" y="0">Painting</tspan><tspan class="line" dy="1.3em" x="0" y="0">14.96</tspan></text></g></g><g class="slice"><path class="surface" d="M175.52491923303972,193.42423793224498L139.86655897738632,171.23231724299333A168,168 0,0,0 184.9514521238023,396.77821759054024L209.33858909285175,362.5836631929052A126,126 0,0,1 175.52491923303972,193.42423793224498Z" style="pointer-events: none; stroke-width: 1; fill: rgb(152, 148, 197); fill-opacity: 1; stroke: rgb(0, 0, 0); stroke-opacity: 1; opacity: 1;"/><g class="slicetext"><text data-notex="1" class="slicetext" text-anchor="middle" x="0" y="0" style="font-family: 'Times New Roman'; font-size: 12px; fill: rgb(0, 0, 0); fill-opacity: 1; white-space: pre;" transform="translate(145.5069862640679,287.21654314007327)rotate(78.69600000000003)"><tspan class="line" dy="0em" x="0" y="0">Virtual Museums</tspan><tspan class="line" dy="1.3em" x="0" y="0">24</tspan></text></g></g><g class="slice"><path class="surface" d="M209.33858909285175,362.5836631929052L184.9514521238023,396.77821759054024A168,168 0,0,0 233.10122536097288,420.57322648611944L245.45091902072966,380.4299198645896A126,126 0,0,1 209.33858909285175,362.5836631929052Z" style="pointer-events: none; stroke-width: 1; fill: rgb(252, 251, 253); fill-opacity: 1; stroke: rgb(0, 0, 0); stroke-opacity: 1; opacity: 1;"/><g class="slicetext"><text data-notex="1" class="slicetext" text-anchor="middle" x="0" y="0" style="font-family: 'Times New Roman'; font-size: 12px; fill: rgb(0, 0, 0); fill-opacity: 1; white-space: pre;" transform="translate(214.38065777911538,398.31062740868026)scale(0.6339252051245791)rotate(26.298000000000002)"><tspan class="line" dy="0em" x="0" y="0">NFT Artworks</tspan><tspan class="line" dy="1.3em" x="0" y="0">5.11</tspan></text></g></g><g class="slice"><path class="surface" d="M245.45091902072977,380.42991986458964L233.10122536097305,420.5732264861195A168,168 0,0,0 333.6110733072629,420.0364276825111L320.8333049804472,380.0273207618833A126,126 0,0,1 245.45091902072977,380.42991986458964Z" style="pointer-events: none; stroke-width: 1; fill: rgb(239, 237, 245); fill-opacity: 1; stroke: rgb(0, 0, 0); stroke-opacity: 1; opacity: 1;"/><g class="slicetext"><text data-notex="1" class="slicetext" text-anchor="middle" x="0" y="0" style="font-family: 'Times New Roman'; font-size: 12px; fill: rgb(0, 0, 0); fill-opacity: 1; white-space: pre;" transform="translate(283.1155842188214,404.54779328970955)scale(0.9533462904762157)rotate(-0.30600000000004)"><tspan class="line" dy="0em" x="0" y="0">Cultural Podcasts</tspan><tspan class="line" dy="1.3em" x="0" y="0">9.67</tspan></text></g></g><g class="slice"><path class="surface" d="M450.5,260L492.5,260A210,210 0,0,0 473.1271205386439,171.90175418803554L435.00169643091516,189.52140335042844A168,168 0,0,1 450.5,260Z" style="pointer-events: none; stroke-width: 1; fill: rgb(247, 245, 250); fill-opacity: 1; stroke: rgb(0, 0, 0); stroke-opacity: 1; opacity: 1;"/><g class="slicetext"><text data-notex="1" class="slicetext" text-anchor="middle" x="0" y="0" style="font-family: 'Times New Roman'; font-size: 12px; fill: rgb(0, 0, 0); fill-opacity: 1; white-space: pre;" transform="translate(474.59378930547365,217.61837441634594)scale(0.8336428375270192)rotate(77.59799999999996)"><tspan class="line" dy="0em" x="0" y="0">Public Installations</tspan><tspan class="line" dy="1.3em" x="0" y="0">6.89</tspan></text></g></g><g class="slice"><path class="surface" d="M435.00169643091516,189.52140335042844L473.1271205386439,171.90175418803554A210,210 0,0,0 425.38693210325914,106.10612541716088L396.8095456826073,136.8849003337287A168,168 0,0,1 435.00169643091516,189.52140335042844Z" style="pointer-events: none; stroke-width: 1; fill: rgb(249, 248, 251); fill-opacity: 1; stroke: rgb(0, 0, 0); stroke-opacity: 1; opacity: 1;"/><g class="slicetext"><text data-notex="1" class="slicetext" text-anchor="middle" x="0" y="0" style="font-family: 'Times New Roman'; font-size: 12px; fill: rgb(0, 0, 0); fill-opacity: 1; white-space: pre;" transform="translate(439.9465396960139,145.55677052890974)rotate(54.03600000000006)"><tspan class="line" dy="0em" x="0" y="0">Metal Works</tspan><tspan class="line" dy="1.3em" x="0" y="0">6.2</tspan></text></g></g><g class="slice"><path class="surface" d="M396.8095456826073,136.8849003337287L425.38693210325914,106.10612541716088A210,210 0,0,0 367.3518110859651,67.90582998062723L350.38144886877205,106.3246639845018A168,168 0,0,1 396.8095456826073,136.8849003337287Z" style="pointer-events: none; stroke-width: 1; fill: rgb(251, 250, 253); fill-opacity: 1; stroke: rgb(0, 0, 0); stroke-opacity: 1; opacity: 1;"/><g class="slicetext"><text data-notex="1" class="slicetext" text-anchor="middle" x="0" y="0" style="font-family: 'Times New Roman'; font-size: 12px; fill: rgb(0, 0, 0); fill-opacity: 1; white-space: pre;" transform="translate(391.7843788304862,93.97164659984665)scale(0.7846727592157478)rotate(33.35400000000004)"><tspan class="line" dy="0em" x="0" y="0">Stone Sculpture</tspan><tspan class="line" dy="1.3em" x="0" y="0">5.29</tspan></text></g></g><g class="slice"><path class="surface" d="M350.3814488687721,106.3246639845018L367.3518110859651,67.90582998062726A210,210 0,0,0 266.41823936393445,50.61667455395525L269.63459149114755,92.4933396431642A168,168 0,0,1 350.3814488687721,106.3246639845018Z" style="pointer-events: none; stroke-width: 1; fill: rgb(244, 243, 248); fill-opacity: 1; stroke: rgb(0, 0, 0); stroke-opacity: 1; opacity: 1;"/><g class="slicetext"><text data-notex="1" class="slicetext" text-anchor="middle" x="0" y="0" style="font-family: 'Times New Roman'; font-size: 12px; fill: rgb(0, 0, 0); fill-opacity: 1; white-space: pre;" transform="translate(314.30594363292414,71.35635484073491)rotate(9.720000000000027)"><tspan class="line" dy="0em" x="0" y="0">Watercolor</tspan><tspan class="line" dy="1.3em" x="0" y="0">7.84</tspan></text></g></g><g class="slice"><path class="surface" d="M269.63459149114755,92.4933396431642L266.41823936393445,50.61667455395525A210,210 0,0,0 177.42382964056054,78.17866345614425L198.43906371244844,114.54293076491541A168,168 0,0,1 269.63459149114755,92.4933396431642Z" style="pointer-events: none; stroke-width: 1; fill: rgb(246, 245, 249); fill-opacity: 1; stroke: rgb(0, 0, 0); stroke-opacity: 1; opacity: 1;"/><g class="slicetext"><text data-notex="1" class="slicetext" text-anchor="middle" x="0" y="0" style="font-family: 'Times New Roman'; font-size: 12px; fill: rgb(0, 0, 0); fill-opacity: 1; white-space: pre;" transform="translate(225.96600189738217,77.45839139913339)rotate(-17.20799999999997)"><tspan class="line" dy="0em" x="0" y="0">Oil Painting</tspan><tspan class="line" dy="1.3em" x="0" y="0">7.12</tspan></text></g></g></g></g><g class="glimages"/><defs id="topdefs-21feff"><g class="clips"/></defs><g class="layer-above"><g class="imagelayer"/><g class="shapelayer"/></g><g class="infolayer"><g class="cb9bf350 colorbar" transform="translate(10,50)"><rect class="cbbg" x="571.5" y="63" width="48.015625" height="295" style="fill: rgb(0, 0, 0); fill-opacity: 0; stroke: rgb(68, 68, 68); stroke-opacity: 1; stroke-width: 0;"/><g class="cbfills" transform="translate(0,93)"><rect class="cbfill gradient_filled" style="fill: url('#g21feff-cb9bf350');" x="582" y="0" width="15" height="254"/></g><g class="cblines" transform="translate(0,93)"/><g class="cbaxis crisp" transform="translate(0,-50)"><g class="ycb9bf350tick"><text text-anchor="start" x="600.4" y="4.199999999999999" transform="translate(0,362.5300000000001)" style="font-family: 'Times New Roman'; font-size: 12px; fill: rgb(42, 63, 95); fill-opacity: 1; white-space: pre; opacity: 1;">10</text></g><g class="ycb9bf350tick"><text text-anchor="start" x="600.4" y="4.199999999999999" style="font-family: 'Times New Roman'; font-size: 12px; fill: rgb(42, 63, 95); fill-opacity: 1; white-space: pre; opacity: 1;" transform="translate(0,327.2800000000001)">15</text></g><g class="ycb9bf350tick"><text text-anchor="start" x="600.4" y="4.199999999999999" style="font-family: 'Times New Roman'; font-size: 12px; fill: rgb(42, 63, 95); fill-opacity: 1; white-space: pre; opacity: 1;" transform="translate(0,292.0300000000001)">20</text></g><g class="ycb9bf350tick"><text text-anchor="start" x="600.4" y="4.199999999999999" style="font-family: 'Times New Roman'; font-size: 12px; fill: rgb(42, 63, 95); fill-opacity: 1; white-space: pre; opacity: 1;" transform="translate(0,256.7800000000001)">25</text></g><g class="ycb9bf350tick"><text text-anchor="start" x="600.4" y="4.199999999999999" style="font-family: 'Times New Roman'; font-size: 12px; fill: rgb(42, 63, 95); fill-opacity: 1; white-space: pre; opacity: 1;" transform="translate(0,221.53000000000006)">30</text></g><g class="ycb9bf350tick"><text text-anchor="start" x="600.4" y="4.199999999999999" style="font-family: 'Times New Roman'; font-size: 12px; fill: rgb(42, 63, 95); fill-opacity: 1; white-space: pre; opacity: 1;" transform="translate(0,186.29000000000005)">35</text></g><g class="ycb9bf350tick"><text text-anchor="start" x="600.4" y="4.199999999999999" style="font-family: 'Times New Roman'; font-size: 12px; fill: rgb(42, 63, 95); fill-opacity: 1; white-space: pre; opacity: 1;" transform="translate(0,151.04000000000005)">40</text></g></g><g class="cbtitleunshift" transform="translate(-10,-50)"><g class="cbtitle" transform="translate(-0.5,-0.5)"><text class="ycb9bf350title" x="592.25" y="135.75" text-anchor="start" style="opacity: 1; font-family: 'Times New Roman'; font-size: 13px; fill: rgb(42, 63, 95); fill-opacity: 1; white-space: pre;">%</text></g></g><rect class="cboutline" x="582" y="93" width="15" height="254" style="stroke: rgb(68, 68, 68); stroke-opacity: 1; fill: none; stroke-width: 1;"/></g><g class="g-gtitle"><text class="gtitle" x="320" y="25" text-anchor="middle" dy="0em" style="opacity: 1; font-family: 'Times New Roman'; font-size: 16px; fill: rgb(42, 63, 95); fill-opacity: 1; white-space: pre;">Cultural Engagement Distribution by Category (2024) (%)</text></g></g></svg>