<svg class="main-svg" xmlns="http://www.w3.org/2000/svg" xmlns:xlink="http://www.w3.org/1999/xlink" width="1920" height="1440" style="" viewBox="0 0 640 480"><rect x="0" y="0" width="640" height="480" style="fill: rgb(255, 255, 255); fill-opacity: 1;"/><defs id="defs-651969"><g class="clips"/><g class="gradients"><linearGradient x1="0" y1="1" x2="0" y2="0" gradientUnits="objectBoundingBox" id="g651969-cb81fc4e"><stop offset="0%" stop-color="rgb(255, 245, 235)" stop-opacity="1"/><stop offset="12.5%" stop-color="rgb(254, 230, 206)" stop-opacity="1"/><stop offset="25%" stop-color="rgb(253, 208, 162)" stop-opacity="1"/><stop offset="37.5%" stop-color="rgb(253, 174, 107)" stop-opacity="1"/><stop offset="50%" stop-color="rgb(253, 141, 60)" stop-opacity="1"/><stop offset="62.5%" stop-color="rgb(241, 105, 19)" stop-opacity="1"/><stop offset="75%" stop-color="rgb(217, 72, 1)" stop-opacity="1"/><stop offset="87.5%" stop-color="rgb(166, 54, 3)" stop-opacity="1"/><stop offset="100%" stop-color="rgb(127, 39, 4)" stop-opacity="1"/></linearGradient></g><g class="patterns"/></defs><g class="bglayer"/><g class="layer-below"><g class="imagelayer"/><g class="shapelayer"/></g><g class="cartesianlayer"/><g class="polarlayer"/><g class="smithlayer"/><g class="ternarylayer"/><g class="geolayer"/><g class="funnelarealayer"/><g class="pielayer"/><g class="iciclelayer"/><g class="treemaplayer"/><g class="sunburstlayer"><g class="trace sunburst" stroke-linejoin="round" style="opacity: 1;"><g class="slice"><path class="surface" d="M282.5,260A0,0 0,1,0 282.5,260A0,0 0,1,0 282.5,260ZM324.5,260A42,42 0,1,1 240.5,260A42,42 0,1,1 324.5,260Z" style="pointer-events: none; stroke-width: 1; fill: rgb(255, 255, 255); fill-opacity: 1; stroke: rgb(0, 0, 0); stroke-opacity: 1;"/><g class="slicetext"><text data-notex="1" class="slicetext" text-anchor="middle" x="0" y="0" style="font-family: 'Times New Roman'; font-size: 12px; fill: rgb(0, 0, 0); fill-opacity: 1; white-space: pre;" transform="translate(282.5,264)">100</text></g></g><g class="slice cursor-pointer"><path class="surface" d="M324.5,260L366.5,260A84,84 0,0,0 217.47514204968996,206.82323958210688L249.98757102484498,233.41161979105345A42,42 0,0,1 324.5,260Z" style="pointer-events: none; stroke-width: 1; fill: rgb(127, 39, 4); fill-opacity: 1; stroke: rgb(0, 0, 0); stroke-opacity: 1;"/><g class="slicetext"><text data-notex="1" class="slicetext" text-anchor="middle" x="0" y="0" style="font-family: 'Times New Roman'; font-size: 12px; fill: rgb(0, 0, 0); fill-opacity: 1; white-space: pre;" transform="translate(302.71993449334184,203.33477929165235)scale(0.9024293566305589)rotate(19.638000000000034)"><tspan class="line" dy="0em" x="0" y="0">Creative Expression</tspan><tspan class="line" dy="1.3em" x="0" y="0">39.09</tspan></text></g></g><g class="slice cursor-pointer"><path class="surface" d="M249.98757102484498,233.41161979105345L217.47514204968996,206.82323958210688A84,84 0,0,0 297.4097466277879,342.6661929418258L289.9548733138939,301.3330964709129A42,42 0,0,1 249.98757102484498,233.41161979105345Z" style="pointer-events: none; stroke-width: 1; fill: rgb(130, 40, 4); fill-opacity: 1; stroke: rgb(0, 0, 0); stroke-opacity: 1;"/><g class="slicetext"><text data-notex="1" class="slicetext" text-anchor="middle" x="0" y="0" style="font-family: 'Times New Roman'; font-size: 12px; fill: rgb(0, 0, 0); fill-opacity: 1; white-space: pre;" transform="translate(235.3930435114495,287.7193321159529)rotate(59.525999999999954)"><tspan class="line" dy="0em" x="0" y="0">Digital Culture</tspan><tspan class="line" dy="1.3em" x="0" y="0">38.75</tspan></text></g></g><g class="slice cursor-pointer"><path class="surface" d="M289.9548733138939,301.3330964709129L297.4097466277879,342.6661929418258A84,84 0,0,0 366.5,260L324.5,260A42,42 0,0,1 289.9548733138939,301.3330964709129Z" style="pointer-events: none; stroke-width: 1; fill: rgb(253, 140, 59); fill-opacity: 1; stroke: rgb(0, 0, 0); stroke-opacity: 1;"/><g class="slicetext"><text data-notex="1" class="slicetext" text-anchor="middle" x="0" y="0" style="font-family: 'Times New Roman'; font-size: 12px; fill: rgb(0, 0, 0); fill-opacity: 1; white-space: pre;" transform="translate(327.8711466033103,297.92002393065883)scale(0.7465774012686962)rotate(-50.111999999999966)"><tspan class="line" dy="0em" x="0" y="0">Cultural Participation</tspan><tspan class="line" dy="1.3em" x="0" y="0">22.16</tspan></text></g></g><g class="slice"><path class="surface" d="M366.5,260L408.5,260A126,126 0,0,0 184.96271307453497,180.2348593731603L217.47514204968996,206.82323958210688A84,84 0,0,1 366.5,260Z" style="pointer-events: none; stroke-width: 1; fill: rgb(127, 39, 4); fill-opacity: 1; stroke: rgb(0, 0, 0); stroke-opacity: 1; opacity: 1;"/><g class="slicetext"><text data-notex="1" class="slicetext" text-anchor="middle" x="0" y="0" style="font-family: 'Times New Roman'; font-size: 12px; fill: rgb(0, 0, 0); fill-opacity: 1; white-space: pre;" transform="translate(318.13283067761614,159.65284066019413)rotate(19.638000000000034)"><tspan class="line" dy="0em" x="0" y="0">Visual Arts</tspan><tspan class="line" dy="1.3em" x="0" y="0">39.09</tspan></text></g></g><g class="slice cursor-pointer"><path class="surface" d="M217.47514204968996,206.82323958210688L184.96271307453497,180.2348593731603A126,126 0,0,0 198.4054895823801,353.830236691702L226.4369930549201,322.55349112780135A84,84 0,0,1 217.47514204968996,206.82323958210688Z" style="pointer-events: none; stroke-width: 1; fill: rgb(247, 122, 39); fill-opacity: 1; stroke: rgb(0, 0, 0); stroke-opacity: 1;"/><g class="slicetext"><text data-notex="1" class="slicetext" text-anchor="middle" x="0" y="0" style="font-family: 'Times New Roman'; font-size: 12px; fill: rgb(0, 0, 0); fill-opacity: 1; white-space: pre;" transform="translate(186.3493060373705,267.28110709626463)rotate(85.572)"><tspan class="line" dy="0em" x="0" y="0">Online Exhibitions</tspan><tspan class="line" dy="1.3em" x="0" y="0">24.28</tspan></text></g></g><g class="slice cursor-pointer"><path class="surface" d="M226.4369930549201,322.55349112780135L198.4054895823801,353.830236691702A126,126 0,0,0 304.86461994168184,383.9992894127387L297.4097466277879,342.6661929418258A84,84 0,0,1 226.4369930549201,322.55349112780135Z" style="pointer-events: none; stroke-width: 1; fill: rgb(253, 201, 150); fill-opacity: 1; stroke: rgb(0, 0, 0); stroke-opacity: 1;"/><g class="slicetext"><text data-notex="1" class="slicetext" text-anchor="middle" x="0" y="0" style="font-family: 'Times New Roman'; font-size: 12px; fill: rgb(0, 0, 0); fill-opacity: 1; white-space: pre;" transform="translate(255.14310726790717,356.5357128220508)scale(0.9401851982041488)rotate(15.822000000000003)"><tspan class="line" dy="0em" x="0" y="0">Streaming Culture</tspan><tspan class="line" dy="1.3em" x="0" y="0">14.47</tspan></text></g></g><g class="slice"><path class="surface" d="M297.4097466277879,342.6661929418258L304.86461994168184,383.9992894127387A126,126 0,0,0 380.6359237870739,339.02746650663687L347.92394919138263,312.68497767109125A84,84 0,0,1 297.4097466277879,342.6661929418258Z" style="pointer-events: none; stroke-width: 1; fill: rgb(254, 219, 185); fill-opacity: 1; stroke: rgb(0, 0, 0); stroke-opacity: 1; opacity: 1;"/><g class="slicetext"><text data-notex="1" class="slicetext" text-anchor="middle" x="0" y="0" style="font-family: 'Times New Roman'; font-size: 12px; fill: rgb(0, 0, 0); fill-opacity: 1; white-space: pre;" transform="translate(337.1845032578121,352.56928759307476)scale(0.6742399727957086)rotate(-30.690000000000055)"><tspan class="line" dy="0em" x="0" y="0">Heritage Engagement</tspan><tspan class="line" dy="1.3em" x="0" y="0">11.37</tspan></text></g></g><g class="slice cursor-pointer"><path class="surface" d="M347.92394919138263,312.68497767109125L380.6359237870739,339.02746650663687A126,126 0,0,0 408.5,260.00000000000006L366.5,260A84,84 0,0,1 347.92394919138263,312.68497767109125Z" style="pointer-events: none; stroke-width: 1; fill: rgb(254, 222, 191); fill-opacity: 1; stroke: rgb(0, 0, 0); stroke-opacity: 1;"/><g class="slicetext"><text data-notex="1" class="slicetext" text-anchor="middle" x="0" y="0" style="font-family: 'Times New Roman'; font-size: 12px; fill: rgb(0, 0, 0); fill-opacity: 1; white-space: pre;" transform="translate(379.4060496839933,294.33963723390156)scale(0.9875774776161067)rotate(-70.57799999999997)"><tspan class="line" dy="0em" x="0" y="0">Art Festivals</tspan><tspan class="line" dy="1.3em" x="0" y="0">10.79</tspan></text></g></g><g class="slice cursor-pointer"><path class="surface" d="M184.96271307453497,180.2348593731603L152.45028409937996,153.64647916421376A168,168 0,0,0 126.02705388236441,321.157314634208L165.14529041177332,305.867985975656A126,126 0,0,1 184.96271307453497,180.2348593731603Z" style="pointer-events: none; stroke-width: 1; fill: rgb(253, 182, 120); fill-opacity: 1; stroke: rgb(0, 0, 0); stroke-opacity: 1;"/><g class="slicetext"><text data-notex="1" class="slicetext" text-anchor="middle" x="0" y="0" style="font-family: 'Times New Roman'; font-size: 12px; fill: rgb(0, 0, 0); fill-opacity: 1; white-space: pre;" transform="translate(136.99354880030927,237.21384175213592)rotate(-81.03600000000006)"><tspan class="line" dy="0em" x="0" y="0">Virtual Museums</tspan><tspan class="line" dy="1.3em" x="0" y="0">16.84</tspan></text></g></g><g class="slice"><path class="surface" d="M165.14529041177332,305.867985975656L126.02705388236441,321.157314634208A168,168 0,0,0 170.37398610984016,385.1069822556027L198.4054895823801,353.830236691702A126,126 0,0,1 165.14529041177332,305.867985975656Z" style="pointer-events: none; stroke-width: 1; fill: rgb(254, 237, 219); fill-opacity: 1; stroke: rgb(0, 0, 0); stroke-opacity: 1; opacity: 1;"/><g class="slicetext"><text data-notex="1" class="slicetext" text-anchor="middle" x="0" y="0" style="font-family: 'Times New Roman'; font-size: 12px; fill: rgb(0, 0, 0); fill-opacity: 1; white-space: pre;" transform="translate(161.01889665220563,344.5925607571642)scale(0.8753351884023164)rotate(55.25999999999999)"><tspan class="line" dy="0em" x="0" y="0">NFT Artworks</tspan><tspan class="line" dy="1.3em" x="0" y="0">7.44</tspan></text></g></g><g class="slice"><path class="surface" d="M198.4054895823801,353.830236691702L170.37398610984016,385.1069822556027A168,168 0,0,0 254.96867364640858,425.7287726051576L261.85150523480644,384.2965794538682A126,126 0,0,1 198.4054895823801,353.830236691702Z" style="pointer-events: none; stroke-width: 1; fill: rgb(254, 231, 208); fill-opacity: 1; stroke: rgb(0, 0, 0); stroke-opacity: 1; opacity: 1;"/><g class="slicetext"><text data-notex="1" class="slicetext" text-anchor="middle" x="0" y="0" style="font-family: 'Times New Roman'; font-size: 12px; fill: rgb(0, 0, 0); fill-opacity: 1; white-space: pre;" transform="translate(218.69680307434217,392.5500283331066)scale(0.8438577468875337)rotate(25.649999999999977)"><tspan class="line" dy="0em" x="0" y="0">Live Performances</tspan><tspan class="line" dy="1.3em" x="0" y="0">9.01</tspan></text></g></g><g class="slice"><path class="surface" d="M261.85150523480644,384.2965794538682L254.96867364640858,425.7287726051576A168,168 0,0,0 312.31949325557576,425.33238588365157L304.86461994168184,383.9992894127387A126,126 0,0,1 261.85150523480644,384.2965794538682Z" style="pointer-events: none; stroke-width: 1; fill: rgb(255, 244, 232); fill-opacity: 1; stroke: rgb(0, 0, 0); stroke-opacity: 1; opacity: 1;"/><g class="slicetext"><text data-notex="1" class="slicetext" text-anchor="middle" x="0" y="0" style="font-family: 'Times New Roman'; font-size: 12px; fill: rgb(0, 0, 0); fill-opacity: 1; white-space: pre;" transform="translate(283.4743692065037,414.8469345259041)scale(0.584354909711729)rotate(-0.39600000000007185)"><tspan class="line" dy="0em" x="0" y="0">Cultural Podcasts</tspan><tspan class="line" dy="1.3em" x="0" y="0">5.46</tspan></text></g></g><g class="slice cursor-pointer"><path class="surface" d="M380.6359237870739,339.02746650663687L413.34789838276527,365.3699553421825A168,168 0,0,0 450.5,260.00000000000006L408.5,260.00000000000006A126,126 0,0,1 380.6359237870739,339.02746650663687Z" style="pointer-events: none; stroke-width: 1; fill: rgb(254, 222, 191); fill-opacity: 1; stroke: rgb(0, 0, 0); stroke-opacity: 1;"/><g class="slicetext"><text data-notex="1" class="slicetext" text-anchor="middle" x="0" y="0" style="font-family: 'Times New Roman'; font-size: 12px; fill: rgb(0, 0, 0); fill-opacity: 1; white-space: pre;" transform="translate(414.83175190955393,306.8324488119408)rotate(-70.57799999999997)"><tspan class="line" dy="0em" x="0" y="0">Local Festivals</tspan><tspan class="line" dy="1.3em" x="0" y="0">10.79</tspan></text></g></g><g class="slice"><path class="surface" d="M152.45028409937996,153.64647916421376L119.93785512422494,127.05809895526721A210,210 0,0,0 82.94185750950493,194.60468085754712L122.85348600760395,207.6837446860377A168,168 0,0,1 152.45028409937996,153.64647916421376Z" style="pointer-events: none; stroke-width: 1; fill: rgb(255, 242, 230); fill-opacity: 1; stroke: rgb(0, 0, 0); stroke-opacity: 1; opacity: 1;"/><g class="slicetext"><text data-notex="1" class="slicetext" text-anchor="middle" x="0" y="0" style="font-family: 'Times New Roman'; font-size: 12px; fill: rgb(0, 0, 0); fill-opacity: 1; white-space: pre;" transform="translate(114.27870145666412,168.05042414821568)rotate(-61.289999999999964)"><tspan class="line" dy="0em" x="0" y="0">3D Tours</tspan><tspan class="line" dy="1.3em" x="0" y="0">5.87</tspan></text></g></g><g class="slice"><path class="surface" d="M122.85348600760395,207.6837446860377L82.94185750950493,194.60468085754712A210,210 0,0,0 72.5995192033335,266.46437632941024L114.5796153626668,265.1715010635282A168,168 0,0,1 122.85348600760395,207.6837446860377Z" style="pointer-events: none; stroke-width: 1; fill: rgb(255, 243, 232); fill-opacity: 1; stroke: rgb(0, 0, 0); stroke-opacity: 1; opacity: 1;"/><g class="slicetext"><text data-notex="1" class="slicetext" text-anchor="middle" x="0" y="0" style="font-family: 'Times New Roman'; font-size: 12px; fill: rgb(0, 0, 0); fill-opacity: 1; white-space: pre;" transform="translate(88.82126172861314,232.12497185297107)rotate(-81.81000000000006)"><tspan class="line" dy="0em" x="0" y="0">AI Curation</tspan><tspan class="line" dy="1.3em" x="0" y="0">5.53</tspan></text></g></g><g class="slice"><path class="surface" d="M114.5796153626668,265.1715010635282L72.5995192033335,266.46437632941024A210,210 0,0,0 86.90881735295551,336.44664329276L126.02705388236441,321.157314634208A168,168 0,0,1 114.5796153626668,265.1715010635282Z" style="pointer-events: none; stroke-width: 1; fill: rgb(255, 244, 232); fill-opacity: 1; stroke: rgb(0, 0, 0); stroke-opacity: 1; opacity: 1;"/><g class="slicetext"><text data-notex="1" class="slicetext" text-anchor="middle" x="0" y="0" style="font-family: 'Times New Roman'; font-size: 12px; fill: rgb(0, 0, 0); fill-opacity: 1; white-space: pre;" transform="translate(90.82426297845882,299.19200374755184)scale(0.6218458308303271)rotate(78.44399999999996)"><tspan class="line" dy="0em" x="0" y="0">Remote Participation</tspan><tspan class="line" dy="1.3em" x="0" y="0">5.44</tspan></text></g></g><g class="slice"><path class="surface" d="M413.34789838276527,365.3699553421825L446.05987297845655,391.7124441777281A210,210 0,0,0 481.93452077029184,325.7713609797154L442.0476166162335,312.6170887837723A168,168 0,0,1 413.34789838276527,365.3699553421825Z" style="pointer-events: none; stroke-width: 1; fill: rgb(255, 243, 231); fill-opacity: 1; stroke: rgb(0, 0, 0); stroke-opacity: 1; opacity: 1;"/><g class="slicetext"><text data-notex="1" class="slicetext" text-anchor="middle" x="0" y="0" style="font-family: 'Times New Roman'; font-size: 12px; fill: rgb(0, 0, 0); fill-opacity: 1; white-space: pre;" transform="translate(453.26237133896416,353.0273205765783)scale(0.6724954586290065)rotate(-61.452)"><tspan class="line" dy="0em" x="0" y="0">Community Parades</tspan><tspan class="line" dy="1.3em" x="0" y="0">5.72</tspan></text></g></g><g class="slice"><path class="surface" d="M442.0476166162335,312.6170887837723L481.93452077029184,325.7713609797154A210,210 0,0,0 492.5,260.00000000000006L450.5,260.00000000000006A168,168 0,0,1 442.0476166162335,312.6170887837723Z" style="pointer-events: none; stroke-width: 1; fill: rgb(255, 245, 235); fill-opacity: 1; stroke: rgb(0, 0, 0); stroke-opacity: 1; opacity: 1;"/><g class="slicetext"><text data-notex="1" class="slicetext" text-anchor="middle" x="0" y="0" style="font-family: 'Times New Roman'; font-size: 12px; fill: rgb(0, 0, 0); fill-opacity: 1; white-space: pre;" transform="translate(476.6402628192395,291.28381437963526)scale(0.5850637053280949)rotate(-80.87400000000002)"><tspan class="line" dy="0em" x="0" y="0">Open-air Exhibitions</tspan><tspan class="line" dy="1.3em" x="0" y="0">5.07</tspan></text></g></g></g></g><g class="glimages"/><defs id="topdefs-651969"><g class="clips"/></defs><g class="layer-above"><g class="imagelayer"/><g class="shapelayer"/></g><g class="infolayer"><g class="cb81fc4e colorbar" transform="translate(10,50)"><rect class="cbbg" x="571.5" y="63" width="48.015625" height="295" style="fill: rgb(0, 0, 0); fill-opacity: 0; stroke: rgb(68, 68, 68); stroke-opacity: 1; stroke-width: 0;"/><g class="cbfills" transform="translate(0,93)"><rect class="cbfill gradient_filled" style="fill: url('#g651969-cb81fc4e');" x="582" y="0" width="15" height="254"/></g><g class="cblines" transform="translate(0,93)"/><g class="cbaxis crisp" transform="translate(0,-50)"><g class="ycb81fc4etick"><text text-anchor="start" x="600.4" y="4.199999999999999" transform="translate(0,360.19000000000005)" style="font-family: 'Times New Roman'; font-size: 12px; fill: rgb(42, 63, 95); fill-opacity: 1; white-space: pre; opacity: 1;">10</text></g><g class="ycb81fc4etick"><text text-anchor="start" x="600.4" y="4.199999999999999" style="font-family: 'Times New Roman'; font-size: 12px; fill: rgb(42, 63, 95); fill-opacity: 1; white-space: pre; opacity: 1;" transform="translate(0,322.86000000000007)">15</text></g><g class="ycb81fc4etick"><text text-anchor="start" x="600.4" y="4.199999999999999" style="font-family: 'Times New Roman'; font-size: 12px; fill: rgb(42, 63, 95); fill-opacity: 1; white-space: pre; opacity: 1;" transform="translate(0,285.5300000000001)">20</text></g><g class="ycb81fc4etick"><text text-anchor="start" x="600.4" y="4.199999999999999" style="font-family: 'Times New Roman'; font-size: 12px; fill: rgb(42, 63, 95); fill-opacity: 1; white-space: pre; opacity: 1;" transform="translate(0,248.20000000000005)">25</text></g><g class="ycb81fc4etick"><text text-anchor="start" x="600.4" y="4.199999999999999" style="font-family: 'Times New Roman'; font-size: 12px; fill: rgb(42, 63, 95); fill-opacity: 1; white-space: pre; opacity: 1;" transform="translate(0,210.87000000000006)">30</text></g><g class="ycb81fc4etick"><text text-anchor="start" x="600.4" y="4.199999999999999" style="font-family: 'Times New Roman'; font-size: 12px; fill: rgb(42, 63, 95); fill-opacity: 1; white-space: pre; opacity: 1;" transform="translate(0,173.54000000000005)">35</text></g></g><g class="cbtitleunshift" transform="translate(-10,-50)"><g class="cbtitle" transform="translate(-0.5,-0.5)"><text class="ycb81fc4etitle" x="592.25" y="135.75" text-anchor="start" style="opacity: 1; font-family: 'Times New Roman'; font-size: 13px; fill: rgb(42, 63, 95); fill-opacity: 1; white-space: pre;">%</text></g></g><rect class="cboutline" x="582" y="93" width="15" height="254" style="stroke: rgb(68, 68, 68); stroke-opacity: 1; fill: none; stroke-width: 1;"/></g><g class="g-gtitle"><text class="gtitle" x="320" y="25" text-anchor="middle" dy="0em" style="opacity: 1; font-family: 'Times New Roman'; font-size: 16px; fill: rgb(42, 63, 95); fill-opacity: 1; white-space: pre;">Cultural Engagement Distribution by Category (2024) (%)</text></g></g></svg>