<svg class="main-svg" xmlns="http://www.w3.org/2000/svg" xmlns:xlink="http://www.w3.org/1999/xlink" width="1920" height="1440" style="" viewBox="0 0 640 480"><rect x="0" y="0" width="640" height="480" style="fill: rgb(255, 255, 255); fill-opacity: 1;"/><defs id="defs-e4427e"><g class="clips"/><g class="gradients"><linearGradient x1="0" y1="1" x2="0" y2="0" gradientUnits="objectBoundingBox" id="ge4427e-cbb9097a"><stop offset="0%" stop-color="rgb(247, 252, 245)" stop-opacity="1"/><stop offset="12.5%" stop-color="rgb(229, 245, 224)" stop-opacity="1"/><stop offset="25%" stop-color="rgb(199, 233, 192)" stop-opacity="1"/><stop offset="37.5%" stop-color="rgb(161, 217, 155)" stop-opacity="1"/><stop offset="50%" stop-color="rgb(116, 196, 118)" stop-opacity="1"/><stop offset="62.5%" stop-color="rgb(65, 171, 93)" stop-opacity="1"/><stop offset="75%" stop-color="rgb(35, 139, 69)" stop-opacity="1"/><stop offset="87.5%" stop-color="rgb(0, 109, 44)" stop-opacity="1"/><stop offset="100%" stop-color="rgb(0, 68, 27)" stop-opacity="1"/></linearGradient></g><g class="patterns"/></defs><g class="bglayer"/><g class="layer-below"><g class="imagelayer"/><g class="shapelayer"/></g><g class="cartesianlayer"/><g class="polarlayer"/><g class="smithlayer"/><g class="ternarylayer"/><g class="geolayer"/><g class="funnelarealayer"/><g class="pielayer"/><g class="iciclelayer"/><g class="treemaplayer"/><g class="sunburstlayer"><g class="trace sunburst" stroke-linejoin="round" style="opacity: 1;"><g class="slice"><path class="surface" d="M282.5,260A0,0 0,1,0 282.5,260A0,0 0,1,0 282.5,260ZM335,260A52.5,52.5 0,1,1 230,260A52.5,52.5 0,1,1 335,260Z" style="pointer-events: none; stroke-width: 1; fill: rgb(255, 255, 255); fill-opacity: 1; stroke: rgb(0, 0, 0); stroke-opacity: 1;"/><g class="slicetext"><text data-notex="1" class="slicetext" text-anchor="middle" x="0" y="0" style="font-family: 'Times New Roman'; font-size: 12px; fill: rgb(0, 0, 0); fill-opacity: 1; white-space: pre;" transform="translate(282.5,264)">100</text></g></g><g class="slice cursor-pointer"><path class="surface" d="M335,260L387.5,260A105,105 0,0,0 181.55944375264994,231.08626443235738L232.02972187632497,245.5431322161787A52.5,52.5 0,0,1 335,260Z" style="pointer-events: none; stroke-width: 1; fill: rgb(0, 68, 27); fill-opacity: 1; stroke: rgb(0, 0, 0); stroke-opacity: 1;"/><g class="slicetext"><text data-notex="1" class="slicetext" text-anchor="middle" x="0" y="0" style="font-family: 'Times New Roman'; font-size: 12px; fill: rgb(0, 0, 0); fill-opacity: 1; white-space: pre;" transform="translate(292.8168379188617,186.51743892609133)rotate(7.991999999999962)"><tspan class="line" dy="0em" x="0" y="0">Cultural Participation</tspan><tspan class="line" dy="1.3em" x="0" y="0">45.56</tspan></text></g></g><g class="slice cursor-pointer"><path class="surface" d="M232.02972187632497,245.5431322161787L181.55944375264994,231.08626443235738A105,105 0,0,0 292.51272636832886,364.5215064504572L287.5063631841644,312.2607532252286A52.5,52.5 0,0,1 232.02972187632497,245.5431322161787Z" style="pointer-events: none; stroke-width: 1; fill: rgb(63, 169, 91); fill-opacity: 1; stroke: rgb(0, 0, 0); stroke-opacity: 1;"/><g class="slicetext"><text data-notex="1" class="slicetext" text-anchor="middle" x="0" y="0" style="font-family: 'Times New Roman'; font-size: 12px; fill: rgb(0, 0, 0); fill-opacity: 1; white-space: pre;" transform="translate(230.89900804722362,302.90695139301477)rotate(50.25599999999997)"><tspan class="line" dy="0em" x="0" y="0">Creative Expression</tspan><tspan class="line" dy="1.3em" x="0" y="0">30.96</tspan></text></g></g><g class="slice cursor-pointer"><path class="surface" d="M287.5063631841644,312.2607532252286L292.51272636832886,364.5215064504572A105,105 0,0,0 387.5,259.99999999999994L335,259.99999999999994A52.5,52.5 0,0,1 287.5063631841644,312.2607532252286Z" style="pointer-events: none; stroke-width: 1; fill: rgb(136, 205, 134); fill-opacity: 1; stroke: rgb(0, 0, 0); stroke-opacity: 1;"/><g class="slicetext"><text data-notex="1" class="slicetext" text-anchor="middle" x="0" y="0" style="font-family: 'Times New Roman'; font-size: 12px; fill: rgb(0, 0, 0); fill-opacity: 1; white-space: pre;" transform="translate(334.36232235089307,307.131549971041)rotate(-47.736000000000104)"><tspan class="line" dy="0em" x="0" y="0">Digital Culture</tspan><tspan class="line" dy="1.3em" x="0" y="0">23.48</tspan></text></g></g><g class="slice"><path class="surface" d="M387.5,260L440,260A157.5,157.5 0,0,0 131.0891656289749,216.6293966485361L181.55944375264994,231.08626443235738A105,105 0,0,1 387.5,260Z" style="pointer-events: none; stroke-width: 1; fill: rgb(0, 68, 27); fill-opacity: 1; stroke: rgb(0, 0, 0); stroke-opacity: 1; opacity: 1;"/><g class="slicetext"><text data-notex="1" class="slicetext" text-anchor="middle" x="0" y="0" style="font-family: 'Times New Roman'; font-size: 12px; fill: rgb(0, 0, 0); fill-opacity: 1; white-space: pre;" transform="translate(299.9787045300948,133.14641090637315)rotate(7.991999999999962)"><tspan class="line" dy="0em" x="0" y="0">Heritage Engagement</tspan><tspan class="line" dy="1.3em" x="0" y="0">45.56</tspan></text></g></g><g class="slice cursor-pointer"><path class="surface" d="M181.55944375264994,231.08626443235738L131.0891656289749,216.6293966485361A157.5,157.5 0,0,0 241.32193654526392,412.021765185508L255.04795769684262,361.3478434570053A105,105 0,0,1 181.55944375264994,231.08626443235738Z" style="pointer-events: none; stroke-width: 1; fill: rgb(120, 198, 121); fill-opacity: 1; stroke: rgb(0, 0, 0); stroke-opacity: 1;"/><g class="slicetext"><text data-notex="1" class="slicetext" text-anchor="middle" x="0" y="0" style="font-family: 'Times New Roman'; font-size: 12px; fill: rgb(0, 0, 0); fill-opacity: 1; white-space: pre;" transform="translate(175.71701368689764,320.05443511853406)rotate(60.57000000000005)"><tspan class="line" dy="0em" x="0" y="0">Performing Arts</tspan><tspan class="line" dy="1.3em" x="0" y="0">25.23</tspan></text></g></g><g class="slice cursor-pointer"><path class="surface" d="M255.04795769684262,361.3478434570053L241.32193654526392,412.021765185508A157.5,157.5 0,0,0 297.51908955249326,416.78225967568585L292.51272636832886,364.5215064504572A105,105 0,0,1 255.04795769684262,361.3478434570053Z" style="pointer-events: none; stroke-width: 1; fill: rgb(247, 252, 245); fill-opacity: 1; stroke: rgb(0, 0, 0); stroke-opacity: 1;"/><g class="slicetext"><text data-notex="1" class="slicetext" text-anchor="middle" x="0" y="0" style="font-family: 'Times New Roman'; font-size: 12px; fill: rgb(0, 0, 0); fill-opacity: 1; white-space: pre;" transform="translate(267.97131579801993,390.3251746434929)scale(0.9136913595853878)rotate(-85.15800000000002)"><tspan class="line" dy="0em" x="0" y="0">Visual Arts</tspan><tspan class="line" dy="1.3em" x="0" y="0">5.73</tspan></text></g></g><g class="slice cursor-pointer"><path class="surface" d="M292.51272636832886,364.5215064504572L297.51908955249326,416.78225967568585A157.5,157.5 0,0,0 424.586098600492,327.95432719475093L377.22406573366135,305.3028847965006A105,105 0,0,1 292.51272636832886,364.5215064504572Z" style="pointer-events: none; stroke-width: 1; fill: rgb(194, 231, 187); fill-opacity: 1; stroke: rgb(0, 0, 0); stroke-opacity: 1;"/><g class="slicetext"><text data-notex="1" class="slicetext" text-anchor="middle" x="0" y="0" style="font-family: 'Times New Roman'; font-size: 12px; fill: rgb(0, 0, 0); fill-opacity: 1; white-space: pre;" transform="translate(352.606659000438,360.2865115142198)rotate(-34.95600000000002)"><tspan class="line" dy="0em" x="0" y="0">Streaming Culture</tspan><tspan class="line" dy="1.3em" x="0" y="0">16.38</tspan></text></g></g><g class="slice"><path class="surface" d="M377.22406573366135,305.3028847965006L424.586098600492,327.95432719475093A157.5,157.5 0,0,0 440,259.9999999999999L387.5,259.99999999999994A105,105 0,0,1 377.22406573366135,305.3028847965006Z" style="pointer-events: none; stroke-width: 1; fill: rgb(242, 250, 239); fill-opacity: 1; stroke: rgb(0, 0, 0); stroke-opacity: 1; opacity: 1;"/><g class="slicetext"><text data-notex="1" class="slicetext" text-anchor="middle" x="0" y="0" style="font-family: 'Times New Roman'; font-size: 12px; fill: rgb(0, 0, 0); fill-opacity: 1; white-space: pre;" transform="translate(421.1425485115878,291.55621567033666)scale(0.6437066669321654)rotate(-77.22000000000003)"><tspan class="line" dy="0em" x="0" y="0">Online Exhibitions</tspan><tspan class="line" dy="1.3em" x="0" y="0">7.1</tspan></text></g></g><g class="slice"><path class="surface" d="M131.0891656289749,216.6293966485361L80.61888750529991,202.1725288647148A210,210 0,0,0 113.38534400066442,384.4999322338225L155.6640080004983,353.37494917536685A157.5,157.5 0,0,1 131.0891656289749,216.6293966485361Z" style="pointer-events: none; stroke-width: 1; fill: rgb(206, 236, 199); fill-opacity: 1; stroke: rgb(0, 0, 0); stroke-opacity: 1; opacity: 1;"/><g class="slicetext"><text data-notex="1" class="slicetext" text-anchor="middle" x="0" y="0" style="font-family: 'Times New Roman'; font-size: 12px; fill: rgb(0, 0, 0); fill-opacity: 1; white-space: pre;" transform="translate(101.64724598263615,288.69675653461)"><tspan class="line" dy="0em" x="0" y="0">Dance</tspan><tspan class="line" dy="1.3em" x="0" y="0">14.54</tspan></text></g></g><g class="slice"><path class="surface" d="M155.6640080004983,353.37494917536685L113.38534400066442,384.4999322338225A210,210 0,0,0 227.59591539368523,462.69568691401065L241.32193654526392,412.021765185508A157.5,157.5 0,0,1 155.6640080004983,353.37494917536685Z" style="pointer-events: none; stroke-width: 1; fill: rgb(229, 245, 224); fill-opacity: 1; stroke: rgb(0, 0, 0); stroke-opacity: 1; opacity: 1;"/><g class="slicetext"><text data-notex="1" class="slicetext" text-anchor="middle" x="0" y="0" style="font-family: 'Times New Roman'; font-size: 12px; fill: rgb(0, 0, 0); fill-opacity: 1; white-space: pre;" transform="translate(178.69260553202645,407.81354146264994)"><tspan class="line" dy="0em" x="0" y="0">Theatre</tspan><tspan class="line" dy="1.3em" x="0" y="0">10.69</tspan></text></g></g><g class="slice"><path class="surface" d="M241.32193654526392,412.021765185508L227.59591539368523,462.69568691401065A210,210 0,0,0 302.5254527366577,469.04301290091445L297.51908955249326,416.78225967568585A157.5,157.5 0,0,1 241.32193654526392,412.021765185508Z" style="pointer-events: none; stroke-width: 1; fill: rgb(247, 252, 245); fill-opacity: 1; stroke: rgb(0, 0, 0); stroke-opacity: 1; opacity: 1;"/><g class="slicetext"><text data-notex="1" class="slicetext" text-anchor="middle" x="0" y="0" style="font-family: 'Times New Roman'; font-size: 12px; fill: rgb(0, 0, 0); fill-opacity: 1; white-space: pre;" transform="translate(266.9899770428181,439.28955513987023)"><tspan class="line" dy="0em" x="0" y="0">Painting</tspan><tspan class="line" dy="1.3em" x="0" y="0">5.73</tspan></text></g></g><g class="slice"><path class="surface" d="M297.51908955249326,416.78225967568585L302.5254527366577,469.04301290091445A210,210 0,0,0 427.1182554743485,412.2680537196036L390.96369160576137,374.2010402897027A157.5,157.5 0,0,1 297.51908955249326,416.78225967568585Z" style="pointer-events: none; stroke-width: 1; fill: rgb(230, 245, 225); fill-opacity: 1; stroke: rgb(0, 0, 0); stroke-opacity: 1; opacity: 1;"/><g class="slicetext"><text data-notex="1" class="slicetext" text-anchor="middle" x="0" y="0" style="font-family: 'Times New Roman'; font-size: 12px; fill: rgb(0, 0, 0); fill-opacity: 1; white-space: pre;" transform="translate(356.99866591095065,423.8831795507886)rotate(-24.498000000000047)"><tspan class="line" dy="0em" x="0" y="0">Live Performances</tspan><tspan class="line" dy="1.3em" x="0" y="0">10.57</tspan></text></g></g><g class="slice"><path class="surface" d="M390.96369160576137,374.2010402897027L427.1182554743485,412.2680537196036A210,210 0,0,0 471.94813146732275,350.60576959300107L424.58609860049205,327.9543271947508A157.5,157.5 0,0,1 390.96369160576137,374.2010402897027Z" style="pointer-events: none; stroke-width: 1; fill: rgb(247, 252, 245); fill-opacity: 1; stroke: rgb(0, 0, 0); stroke-opacity: 1; opacity: 1;"/><g class="slicetext"><text data-notex="1" class="slicetext" text-anchor="middle" x="0" y="0" style="font-family: 'Times New Roman'; font-size: 12px; fill: rgb(0, 0, 0); fill-opacity: 1; white-space: pre;" transform="translate(438.09731456196727,373.280471269816)scale(0.7774767284960721)rotate(-53.982000000000085)"><tspan class="line" dy="0em" x="0" y="0">Cultural Podcasts</tspan><tspan class="line" dy="1.3em" x="0" y="0">5.81</tspan></text></g></g></g></g><g class="glimages"/><defs id="topdefs-e4427e"><g class="clips"/></defs><g class="layer-above"><g class="imagelayer"/><g class="shapelayer"/></g><g class="infolayer"><g class="cbb9097a colorbar" transform="translate(10,50)"><rect class="cbbg" x="571.5" y="63" width="48.015625" height="295" style="fill: rgb(0, 0, 0); fill-opacity: 0; stroke: rgb(68, 68, 68); stroke-opacity: 1; stroke-width: 0;"/><g class="cbfills" transform="translate(0,93)"><rect class="cbfill gradient_filled" style="fill: url('#ge4427e-cbb9097a');" x="582" y="0" width="15" height="254"/></g><g class="cblines" transform="translate(0,93)"/><g class="cbaxis crisp" transform="translate(0,-50)"><g class="ycbb9097atick"><text text-anchor="start" x="600.4" y="4.199999999999999" transform="translate(0,369.7700000000001)" style="font-family: 'Times New Roman'; font-size: 12px; fill: rgb(42, 63, 95); fill-opacity: 1; white-space: pre; opacity: 1;">10</text></g><g class="ycbb9097atick"><text text-anchor="start" x="600.4" y="4.199999999999999" style="font-family: 'Times New Roman'; font-size: 12px; fill: rgb(42, 63, 95); fill-opacity: 1; white-space: pre; opacity: 1;" transform="translate(0,306.00000000000006)">20</text></g><g class="ycbb9097atick"><text text-anchor="start" x="600.4" y="4.199999999999999" style="font-family: 'Times New Roman'; font-size: 12px; fill: rgb(42, 63, 95); fill-opacity: 1; white-space: pre; opacity: 1;" transform="translate(0,242.23000000000008)">30</text></g><g class="ycbb9097atick"><text text-anchor="start" x="600.4" y="4.199999999999999" style="font-family: 'Times New Roman'; font-size: 12px; fill: rgb(42, 63, 95); fill-opacity: 1; white-space: pre; opacity: 1;" transform="translate(0,178.46000000000006)">40</text></g></g><g class="cbtitleunshift" transform="translate(-10,-50)"><g class="cbtitle" transform="translate(-0.5,-0.5)"><text class="ycbb9097atitle" x="592.25" y="135.75" text-anchor="start" style="opacity: 1; font-family: 'Times New Roman'; font-size: 13px; fill: rgb(42, 63, 95); fill-opacity: 1; white-space: pre;">%</text></g></g><rect class="cboutline" x="582" y="93" width="15" height="254" style="stroke: rgb(68, 68, 68); stroke-opacity: 1; fill: none; stroke-width: 1;"/></g><g class="g-gtitle"><text class="gtitle" x="320" y="25" text-anchor="middle" dy="0em" style="opacity: 1; font-family: 'Times New Roman'; font-size: 16px; fill: rgb(42, 63, 95); fill-opacity: 1; white-space: pre;">Cultural Engagement Distribution by Category (2024) (%)</text></g></g></svg>