<svg class="main-svg" xmlns="http://www.w3.org/2000/svg" xmlns:xlink="http://www.w3.org/1999/xlink" width="1920" height="1440" style="" viewBox="0 0 640 480"><rect x="0" y="0" width="640" height="480" style="fill: rgb(255, 255, 255); fill-opacity: 1;"/><defs id="defs-21068b"><g class="clips"/><g class="gradients"><linearGradient x1="0" y1="1" x2="0" y2="0" gradientUnits="objectBoundingBox" id="g21068b-cb297cda"><stop offset="0%" stop-color="rgb(247, 252, 245)" stop-opacity="1"/><stop offset="12.5%" stop-color="rgb(229, 245, 224)" stop-opacity="1"/><stop offset="25%" stop-color="rgb(199, 233, 192)" stop-opacity="1"/><stop offset="37.5%" stop-color="rgb(161, 217, 155)" stop-opacity="1"/><stop offset="50%" stop-color="rgb(116, 196, 118)" stop-opacity="1"/><stop offset="62.5%" stop-color="rgb(65, 171, 93)" stop-opacity="1"/><stop offset="75%" stop-color="rgb(35, 139, 69)" stop-opacity="1"/><stop offset="87.5%" stop-color="rgb(0, 109, 44)" stop-opacity="1"/><stop offset="100%" stop-color="rgb(0, 68, 27)" stop-opacity="1"/></linearGradient></g><g class="patterns"/></defs><g class="bglayer"/><g class="layer-below"><g class="imagelayer"/><g class="shapelayer"/></g><g class="cartesianlayer"/><g class="polarlayer"/><g class="smithlayer"/><g class="ternarylayer"/><g class="geolayer"/><g class="funnelarealayer"/><g class="pielayer"/><g class="iciclelayer"/><g class="treemaplayer"/><g class="sunburstlayer"><g class="trace sunburst" stroke-linejoin="round" style="opacity: 1;"><g class="slice"><path class="surface" d="M282.5,260A0,0 0,1,0 282.5,260A0,0 0,1,0 282.5,260ZM335,260A52.5,52.5 0,1,1 230,260A52.5,52.5 0,1,1 335,260Z" style="pointer-events: none; stroke-width: 1; fill: rgb(255, 255, 255); fill-opacity: 1; stroke: rgb(0, 0, 0); stroke-opacity: 1;"/><g class="slicetext"><text data-notex="1" class="slicetext" text-anchor="middle" x="0" y="0" style="font-family: 'Times New Roman'; font-size: 12px; fill: rgb(0, 0, 0); fill-opacity: 1; white-space: pre;" transform="translate(282.5,264)">100</text></g></g><g class="slice cursor-pointer"><path class="surface" d="M335,260L387.5,260A105,105 0,0,0 195.2140214575336,201.6377009544338L238.8570107287668,230.8188504772169A52.5,52.5 0,0,1 335,260Z" style="pointer-events: none; stroke-width: 1; fill: rgb(0, 68, 27); fill-opacity: 1; stroke: rgb(0, 0, 0); stroke-opacity: 1;"/><g class="slicetext"><text data-notex="1" class="slicetext" text-anchor="middle" x="0" y="0" style="font-family: 'Times New Roman'; font-size: 12px; fill: rgb(0, 0, 0); fill-opacity: 1; white-space: pre;" transform="translate(304.8292936359924,186.4317864927381)rotate(16.884000000000015)"><tspan class="line" dy="0em" x="0" y="0">Digital Culture</tspan><tspan class="line" dy="1.3em" x="0" y="0">40.62</tspan></text></g></g><g class="slice cursor-pointer"><path class="surface" d="M238.8570107287668,230.8188504772169L195.2140214575336,201.6377009544338A105,105 0,0,0 262.5010352207251,363.0778414973719L272.5005176103625,311.53892074868594A52.5,52.5 0,0,1 238.8570107287668,230.8188504772169Z" style="pointer-events: none; stroke-width: 1; fill: rgb(39, 143, 72); fill-opacity: 1; stroke: rgb(0, 0, 0); stroke-opacity: 1;"/><g class="slicetext"><text data-notex="1" class="slicetext" text-anchor="middle" x="0" y="0" style="font-family: 'Times New Roman'; font-size: 12px; fill: rgb(0, 0, 0); fill-opacity: 1; white-space: pre;" transform="translate(221.03146363290435,285.61961503890006)rotate(67.37400000000002)"><tspan class="line" dy="0em" x="0" y="0">Cultural Participation</tspan><tspan class="line" dy="1.3em" x="0" y="0">31.33</tspan></text></g></g><g class="slice cursor-pointer"><path class="surface" d="M272.5005176103625,311.53892074868594L262.5010352207251,363.0778414973719A105,105 0,0,0 387.5,259.99999999999994L335,259.99999999999994A52.5,52.5 0,0,1 272.5005176103625,311.53892074868594Z" style="pointer-events: none; stroke-width: 1; fill: rgb(61, 167, 90); fill-opacity: 1; stroke: rgb(0, 0, 0); stroke-opacity: 1;"/><g class="slicetext"><text data-notex="1" class="slicetext" text-anchor="middle" x="0" y="0" style="font-family: 'Times New Roman'; font-size: 12px; fill: rgb(0, 0, 0); fill-opacity: 1; white-space: pre;" transform="translate(325.1958520568862,311.77579613573806)rotate(-39.50999999999999)"><tspan class="line" dy="0em" x="0" y="0">Creative Expression</tspan><tspan class="line" dy="1.3em" x="0" y="0">28.05</tspan></text></g></g><g class="slice"><path class="surface" d="M387.5,260L440,260A157.5,157.5 0,0,0 251.9188759226797,105.4974276907742L262.1125839484531,156.9982851271828A105,105 0,0,1 387.5,260Z" style="pointer-events: none; stroke-width: 1; fill: rgb(61, 167, 90); fill-opacity: 1; stroke: rgb(0, 0, 0); stroke-opacity: 1; opacity: 1;"/><g class="slicetext"><text data-notex="1" class="slicetext" text-anchor="middle" x="0" y="0" style="font-family: 'Times New Roman'; font-size: 12px; fill: rgb(0, 0, 0); fill-opacity: 1; white-space: pre;" transform="translate(364.59346667202817,160.06489043964544)rotate(39.402000000000044)"><tspan class="line" dy="0em" x="0" y="0">Streaming Culture</tspan><tspan class="line" dy="1.3em" x="0" y="0">28.11</tspan></text></g></g><g class="slice cursor-pointer"><path class="surface" d="M262.1125839484531,156.9982851271828L251.9188759226797,105.4974276907742A157.5,157.5 0,0,0 151.5710321863004,172.45655143165072L195.2140214575336,201.6377009544338A105,105 0,0,1 262.1125839484531,156.9982851271828Z" style="pointer-events: none; stroke-width: 1; fill: rgb(212, 238, 206); fill-opacity: 1; stroke: rgb(0, 0, 0); stroke-opacity: 1;"/><g class="slicetext"><text data-notex="1" class="slicetext" text-anchor="middle" x="0" y="0" style="font-family: 'Times New Roman'; font-size: 12px; fill: rgb(0, 0, 0); fill-opacity: 1; white-space: pre;" transform="translate(205.83709723371757,145.40523532154785)rotate(-33.714000000000055)"><tspan class="line" dy="0em" x="0" y="0">Online Exhibitions</tspan><tspan class="line" dy="1.3em" x="0" y="0">12.51</tspan></text></g></g><g class="slice"><path class="surface" d="M195.2140214575336,201.6377009544338L151.5710321863004,172.45655143165072A157.5,157.5 0,0,0 252.50155283108762,414.6167622460578L262.5010352207251,363.0778414973719A105,105 0,0,1 195.2140214575336,201.6377009544338Z" style="pointer-events: none; stroke-width: 1; fill: rgb(39, 143, 72); fill-opacity: 1; stroke: rgb(0, 0, 0); stroke-opacity: 1; opacity: 1;"/><g class="slicetext"><text data-notex="1" class="slicetext" text-anchor="middle" x="0" y="0" style="font-family: 'Times New Roman'; font-size: 12px; fill: rgb(0, 0, 0); fill-opacity: 1; white-space: pre;" transform="translate(168.0538593852782,307.5225323145479)rotate(67.37400000000002)"><tspan class="line" dy="0em" x="0" y="0">Art Festivals</tspan><tspan class="line" dy="1.3em" x="0" y="0">31.33</tspan></text></g></g><g class="slice cursor-pointer"><path class="surface" d="M262.5010352207251,363.0778414973719L252.50155283108762,414.6167622460578A157.5,157.5 0,0,0 395.81129378433957,369.39287317242884L358.040862522893,332.9285821149525A105,105 0,0,1 262.5010352207251,363.0778414973719Z" style="pointer-events: none; stroke-width: 1; fill: rgb(187, 228, 180); fill-opacity: 1; stroke: rgb(0, 0, 0); stroke-opacity: 1;"/><g class="slicetext"><text data-notex="1" class="slicetext" text-anchor="middle" x="0" y="0" style="font-family: 'Times New Roman'; font-size: 12px; fill: rgb(0, 0, 0); fill-opacity: 1; white-space: pre;" transform="translate(319.8244790198755,378.822511487924)rotate(-17.51400000000001)"><tspan class="line" dy="0em" x="0" y="0">Visual Arts</tspan><tspan class="line" dy="1.3em" x="0" y="0">15.83</tspan></text></g></g><g class="slice cursor-pointer"><path class="surface" d="M358.040862522893,332.9285821149525L395.81129378433957,369.39287317242884A157.5,157.5 0,0,0 440,259.9999999999999L387.5,259.99999999999994A105,105 0,0,1 358.040862522893,332.9285821149525Z" style="pointer-events: none; stroke-width: 1; fill: rgb(214, 239, 208); fill-opacity: 1; stroke: rgb(0, 0, 0); stroke-opacity: 1;"/><g class="slicetext"><text data-notex="1" class="slicetext" text-anchor="middle" x="0" y="0" style="font-family: 'Times New Roman'; font-size: 12px; fill: rgb(0, 0, 0); fill-opacity: 1; white-space: pre;" transform="translate(402.3095524268956,308.5734140292176)rotate(-68.00400000000002)"><tspan class="line" dy="0em" x="0" y="0">Performing Arts</tspan><tspan class="line" dy="1.3em" x="0" y="0">12.22</tspan></text></g></g><g class="slice"><path class="surface" d="M251.9188759226797,105.4974276907742L241.72516789690627,53.99657025436562A210,210 0,0,0 107.92804291506721,143.27540190886762L151.5710321863004,172.45655143165072A157.5,157.5 0,0,1 251.9188759226797,105.4974276907742Z" style="pointer-events: none; stroke-width: 1; fill: rgb(212, 238, 206); fill-opacity: 1; stroke: rgb(0, 0, 0); stroke-opacity: 1; opacity: 1;"/><g class="slicetext"><text data-notex="1" class="slicetext" text-anchor="middle" x="0" y="0" style="font-family: 'Times New Roman'; font-size: 12px; fill: rgb(0, 0, 0); fill-opacity: 1; white-space: pre;" transform="translate(180.6653516481291,106.79501874194511)rotate(-33.714000000000055)"><tspan class="line" dy="0em" x="0" y="0">NFT Artworks</tspan><tspan class="line" dy="1.3em" x="0" y="0">12.51</tspan></text></g></g><g class="slice"><path class="surface" d="M252.50155283108762,414.6167622460578L242.50207044145017,466.15568299474376A210,210 0,0,0 369.63894047757475,451.0675405516219L347.85420535818105,403.3006554137164A157.5,157.5 0,0,1 252.50155283108762,414.6167622460578Z" style="pointer-events: none; stroke-width: 1; fill: rgb(230, 245, 225); fill-opacity: 1; stroke: rgb(0, 0, 0); stroke-opacity: 1; opacity: 1;"/><g class="slicetext"><text data-notex="1" class="slicetext" text-anchor="middle" x="0" y="0" style="font-family: 'Times New Roman'; font-size: 12px; fill: rgb(0, 0, 0); fill-opacity: 1; white-space: pre;" transform="translate(303.5039364729281,436.98499014522514)rotate(-6.768000000000029)"><tspan class="line" dy="0em" x="0" y="0">Sculpture</tspan><tspan class="line" dy="1.3em" x="0" y="0">9.86</tspan></text></g></g><g class="slice"><path class="surface" d="M347.85420535818105,403.3006554137164L369.63894047757475,451.0675405516219A210,210 0,0,0 433.581725045786,405.85716422990504L395.81129378433957,369.39287317242884A157.5,157.5 0,0,1 347.85420535818105,403.3006554137164Z" style="pointer-events: none; stroke-width: 1; fill: rgb(246, 252, 244); fill-opacity: 1; stroke: rgb(0, 0, 0); stroke-opacity: 1; opacity: 1;"/><g class="slicetext"><text data-notex="1" class="slicetext" text-anchor="middle" x="0" y="0" style="font-family: 'Times New Roman'; font-size: 12px; fill: rgb(0, 0, 0); fill-opacity: 1; white-space: pre;" transform="translate(388.5818543932671,406.230983820142)"><tspan class="line" dy="0em" x="0" y="0">Painting</tspan><tspan class="line" dy="1.3em" x="0" y="0">5.97</tspan></text></g></g><g class="slice"><path class="surface" d="M395.81129378433957,369.39287317242884L433.581725045786,405.85716422990504A210,210 0,0,0 479.0828171249632,333.8592987457456L429.9371128437224,315.3944740593092A157.5,157.5 0,0,1 395.81129378433957,369.39287317242884Z" style="pointer-events: none; stroke-width: 1; fill: rgb(244, 251, 241); fill-opacity: 1; stroke: rgb(0, 0, 0); stroke-opacity: 1; opacity: 1;"/><g class="slicetext"><text data-notex="1" class="slicetext" text-anchor="middle" x="0" y="0" style="font-family: 'Times New Roman'; font-size: 12px; fill: rgb(0, 0, 0); fill-opacity: 1; white-space: pre;" transform="translate(437.83056986603856,354.3608694183597)"><tspan class="line" dy="0em" x="0" y="0">Dance</tspan><tspan class="line" dy="1.3em" x="0" y="0">6.5</tspan></text></g></g><g class="slice"><path class="surface" d="M429.9371128437224,315.3944740593092L479.0828171249632,333.8592987457456A210,210 0,0,0 492.5,259.9999999999999L440,259.9999999999999A157.5,157.5 0,0,1 429.9371128437224,315.3944740593092Z" style="pointer-events: none; stroke-width: 1; fill: rgb(247, 252, 245); fill-opacity: 1; stroke: rgb(0, 0, 0); stroke-opacity: 1; opacity: 1;"/><g class="slicetext"><text data-notex="1" class="slicetext" text-anchor="middle" x="0" y="0" style="font-family: 'Times New Roman'; font-size: 12px; fill: rgb(0, 0, 0); fill-opacity: 1; white-space: pre;" transform="translate(463.29116898492714,289.0375980030447)"><tspan class="line" dy="0em" x="0" y="0">Theatre</tspan><tspan class="line" dy="1.3em" x="0" y="0">5.72</tspan></text></g></g></g></g><g class="glimages"/><defs id="topdefs-21068b"><g class="clips"/></defs><g class="layer-above"><g class="imagelayer"/><g class="shapelayer"/></g><g class="infolayer"><g class="cb297cda colorbar" transform="translate(10,50)"><rect class="cbbg" x="571.5" y="63" width="48.015625" height="295" style="fill: rgb(0, 0, 0); fill-opacity: 0; stroke: rgb(68, 68, 68); stroke-opacity: 1; stroke-width: 0;"/><g class="cbfills" transform="translate(0,93)"><rect class="cbfill gradient_filled" style="fill: url('#g21068b-cb297cda');" x="582" y="0" width="15" height="254"/></g><g class="cblines" transform="translate(0,93)"/><g class="cbaxis crisp" transform="translate(0,-50)"><g class="ycb297cdatick"><text text-anchor="start" x="600.4" y="4.199999999999999" transform="translate(0,365.85)" style="font-family: 'Times New Roman'; font-size: 12px; fill: rgb(42, 63, 95); fill-opacity: 1; white-space: pre; opacity: 1;">10</text></g><g class="ycb297cdatick"><text text-anchor="start" x="600.4" y="4.199999999999999" style="font-family: 'Times New Roman'; font-size: 12px; fill: rgb(42, 63, 95); fill-opacity: 1; white-space: pre; opacity: 1;" transform="translate(0,329.46000000000004)">15</text></g><g class="ycb297cdatick"><text text-anchor="start" x="600.4" y="4.199999999999999" style="font-family: 'Times New Roman'; font-size: 12px; fill: rgb(42, 63, 95); fill-opacity: 1; white-space: pre; opacity: 1;" transform="translate(0,293.07000000000005)">20</text></g><g class="ycb297cdatick"><text text-anchor="start" x="600.4" y="4.199999999999999" style="font-family: 'Times New Roman'; font-size: 12px; fill: rgb(42, 63, 95); fill-opacity: 1; white-space: pre; opacity: 1;" transform="translate(0,256.68000000000006)">25</text></g><g class="ycb297cdatick"><text text-anchor="start" x="600.4" y="4.199999999999999" style="font-family: 'Times New Roman'; font-size: 12px; fill: rgb(42, 63, 95); fill-opacity: 1; white-space: pre; opacity: 1;" transform="translate(0,220.29000000000008)">30</text></g><g class="ycb297cdatick"><text text-anchor="start" x="600.4" y="4.199999999999999" style="font-family: 'Times New Roman'; font-size: 12px; fill: rgb(42, 63, 95); fill-opacity: 1; white-space: pre; opacity: 1;" transform="translate(0,183.90000000000006)">35</text></g><g class="ycb297cdatick"><text text-anchor="start" x="600.4" y="4.199999999999999" style="font-family: 'Times New Roman'; font-size: 12px; fill: rgb(42, 63, 95); fill-opacity: 1; white-space: pre; opacity: 1;" transform="translate(0,147.51000000000005)">40</text></g></g><g class="cbtitleunshift" transform="translate(-10,-50)"><g class="cbtitle" transform="translate(-0.5,-0.5)"><text class="ycb297cdatitle" x="592.25" y="135.75" text-anchor="start" style="opacity: 1; font-family: 'Times New Roman'; font-size: 13px; fill: rgb(42, 63, 95); fill-opacity: 1; white-space: pre;">%</text></g></g><rect class="cboutline" x="582" y="93" width="15" height="254" style="stroke: rgb(68, 68, 68); stroke-opacity: 1; fill: none; stroke-width: 1;"/></g><g class="g-gtitle"><text class="gtitle" x="320" y="25" text-anchor="middle" dy="0em" style="opacity: 1; font-family: 'Times New Roman'; font-size: 16px; fill: rgb(42, 63, 95); fill-opacity: 1; white-space: pre;">Cultural Engagement Distribution by Category (2024) (%)</text></g></g></svg>