<svg class="main-svg" xmlns="http://www.w3.org/2000/svg" xmlns:xlink="http://www.w3.org/1999/xlink" width="1920" height="1440" style="" viewBox="0 0 640 480"><rect x="0" y="0" width="640" height="480" style="fill: rgb(255, 255, 255); fill-opacity: 1;"/><defs id="defs-195e0d"><g class="clips"/><g class="gradients"><linearGradient x1="0" y1="1" x2="0" y2="0" gradientUnits="objectBoundingBox" id="g195e0d-cb2df4bc"><stop offset="0%" stop-color="rgb(255, 245, 235)" stop-opacity="1"/><stop offset="12.5%" stop-color="rgb(254, 230, 206)" stop-opacity="1"/><stop offset="25%" stop-color="rgb(253, 208, 162)" stop-opacity="1"/><stop offset="37.5%" stop-color="rgb(253, 174, 107)" stop-opacity="1"/><stop offset="50%" stop-color="rgb(253, 141, 60)" stop-opacity="1"/><stop offset="62.5%" stop-color="rgb(241, 105, 19)" stop-opacity="1"/><stop offset="75%" stop-color="rgb(217, 72, 1)" stop-opacity="1"/><stop offset="87.5%" stop-color="rgb(166, 54, 3)" stop-opacity="1"/><stop offset="100%" stop-color="rgb(127, 39, 4)" stop-opacity="1"/></linearGradient></g><g class="patterns"/></defs><g class="bglayer"/><g class="layer-below"><g class="imagelayer"/><g class="shapelayer"/></g><g class="cartesianlayer"/><g class="polarlayer"/><g class="smithlayer"/><g class="ternarylayer"/><g class="geolayer"/><g class="funnelarealayer"/><g class="pielayer"/><g class="iciclelayer"/><g class="treemaplayer"/><g class="sunburstlayer"><g class="trace sunburst" stroke-linejoin="round" style="opacity: 1;"><g class="slice"><path class="surface" d="M282.5,260A0,0 0,1,0 282.5,260A0,0 0,1,0 282.5,260ZM335,260A52.5,52.5 0,1,1 230,260A52.5,52.5 0,1,1 335,260Z" style="pointer-events: none; stroke-width: 1; fill: rgb(255, 255, 255); fill-opacity: 1; stroke: rgb(0, 0, 0); stroke-opacity: 1;"/><g class="slicetext"><text data-notex="1" class="slicetext" text-anchor="middle" x="0" y="0" style="font-family: 'Times New Roman'; font-size: 12px; fill: rgb(0, 0, 0); fill-opacity: 1; white-space: pre;" transform="translate(282.5,264)">100</text></g></g><g class="slice cursor-pointer"><path class="surface" d="M335,260L387.5,260A105,105 0,1,0 178.79272423751053,276.4256188292243L230.64636211875526,268.21280941461214A52.5,52.5 0,1,1 335,260Z" style="pointer-events: none; stroke-width: 1; fill: rgb(127, 39, 4); fill-opacity: 1; stroke: rgb(0, 0, 0); stroke-opacity: 1;"/><g class="slicetext"><text data-notex="1" class="slicetext" text-anchor="middle" x="0" y="0" style="font-family: 'Times New Roman'; font-size: 12px; fill: rgb(0, 0, 0); fill-opacity: 1; white-space: pre;" transform="translate(276.5813931521625,184.79696963845146)rotate(-4.5)"><tspan class="line" dy="0em" x="0" y="0">Informal Learning</tspan><tspan class="line" dy="1.3em" x="0" y="0">52.5</tspan></text></g></g><g class="slice cursor-pointer"><path class="surface" d="M230.64636211875526,268.21280941461214L178.79272423751053,276.4256188292243A105,105 0,0,0 308.42068957051316,361.75027200056564L295.46034478525655,310.8751360002828A52.5,52.5 0,0,1 230.64636211875526,268.21280941461214Z" style="pointer-events: none; stroke-width: 1; fill: rgb(253, 154, 79); fill-opacity: 1; stroke: rgb(0, 0, 0); stroke-opacity: 1;"/><g class="slicetext"><text data-notex="1" class="slicetext" text-anchor="middle" x="0" y="0" style="font-family: 'Times New Roman'; font-size: 12px; fill: rgb(0, 0, 0); fill-opacity: 1; white-space: pre;" transform="translate(245.05090275060886,316.8938765007113)rotate(33.35399999999993)"><tspan class="line" dy="0em" x="0" y="0">Higher Education</tspan><tspan class="line" dy="1.3em" x="0" y="0">26.47</tspan></text></g></g><g class="slice cursor-pointer"><path class="surface" d="M295.46034478525655,310.8751360002828L308.42068957051316,361.75027200056564A105,105 0,0,0 387.5,259.99999999999994L335,259.99999999999994A52.5,52.5 0,0,1 295.46034478525655,310.8751360002828Z" style="pointer-events: none; stroke-width: 1; fill: rgb(253, 185, 124); fill-opacity: 1; stroke: rgb(0, 0, 0); stroke-opacity: 1;"/><g class="slicetext"><text data-notex="1" class="slicetext" text-anchor="middle" x="0" y="0" style="font-family: 'Times New Roman'; font-size: 12px; fill: rgb(0, 0, 0); fill-opacity: 1; white-space: pre;" transform="translate(341.0580990488816,305.510778514886)rotate(-52.14599999999996)"><tspan class="line" dy="0em" x="0" y="0">Formal Education</tspan><tspan class="line" dy="1.3em" x="0" y="0">21.03</tspan></text></g></g><g class="slice"><path class="surface" d="M387.5,260L440,260A157.5,157.5 0,1,0 126.93908635626582,284.6384282438364L178.79272423751053,276.4256188292243A105,105 0,1,1 387.5,260Z" style="pointer-events: none; stroke-width: 1; fill: rgb(127, 39, 4); fill-opacity: 1; stroke: rgb(0, 0, 0); stroke-opacity: 1; opacity: 1;"/><g class="slicetext"><text data-notex="1" class="slicetext" text-anchor="middle" x="0" y="0" style="font-family: 'Times New Roman'; font-size: 12px; fill: rgb(0, 0, 0); fill-opacity: 1; white-space: pre;" transform="translate(272.4455852648404,132.24654787265115)rotate(-4.5)"><tspan class="line" dy="0em" x="0" y="0">Community Learning</tspan><tspan class="line" dy="1.3em" x="0" y="0">52.5</tspan></text></g></g><g class="slice cursor-pointer"><path class="surface" d="M178.79272423751053,276.4256188292243L126.93908635626582,284.6384282438364A157.5,157.5 0,0,0 209.5016431173596,399.5617780498467L233.8344287449064,353.0411853665645A105,105 0,0,1 178.79272423751053,276.4256188292243Z" style="pointer-events: none; stroke-width: 1; fill: rgb(253, 216, 178); fill-opacity: 1; stroke: rgb(0, 0, 0); stroke-opacity: 1;"/><g class="slicetext"><text data-notex="1" class="slicetext" text-anchor="middle" x="0" y="0" style="font-family: 'Times New Roman'; font-size: 12px; fill: rgb(0, 0, 0); fill-opacity: 1; white-space: pre;" transform="translate(182.4857008409753,331.8516843198226)rotate(54.305999999999926)"><tspan class="line" dy="0em" x="0" y="0">Undergraduate</tspan><tspan class="line" dy="1.3em" x="0" y="0">14.83</tspan></text></g></g><g class="slice cursor-pointer"><path class="surface" d="M233.8344287449064,353.0411853665645L209.5016431173596,399.5617780498467A157.5,157.5 0,0,0 321.3810343557699,412.62540800084844L308.4206895705132,361.7502720005656A105,105 0,0,1 233.8344287449064,353.0411853665645Z" style="pointer-events: none; stroke-width: 1; fill: rgb(254, 228, 202); fill-opacity: 1; stroke: rgb(0, 0, 0); stroke-opacity: 1;"/><g class="slicetext"><text data-notex="1" class="slicetext" text-anchor="middle" x="0" y="0" style="font-family: 'Times New Roman'; font-size: 12px; fill: rgb(0, 0, 0); fill-opacity: 1; white-space: pre;" transform="translate(267.69380239317053,386.80306936286587)rotate(6.6599999999998545)"><tspan class="line" dy="0em" x="0" y="0">Postgraduate</tspan><tspan class="line" dy="1.3em" x="0" y="0">11.64</tspan></text></g></g><g class="slice cursor-pointer"><path class="surface" d="M308.42068957051316,361.75027200056564L321.3810343557697,412.62540800084844A157.5,157.5 0,0,0 420.32716870913487,336.22284149533965L374.38477913942324,310.81522766355977A105,105 0,0,1 308.42068957051316,361.75027200056564Z" style="pointer-events: none; stroke-width: 1; fill: rgb(254, 223, 192); fill-opacity: 1; stroke: rgb(0, 0, 0); stroke-opacity: 1;"/><g class="slicetext"><text data-notex="1" class="slicetext" text-anchor="middle" x="0" y="0" style="font-family: 'Times New Roman'; font-size: 12px; fill: rgb(0, 0, 0); fill-opacity: 1; white-space: pre;" transform="translate(361.4696930374259,362.27072485270185)rotate(-37.67399999999998)"><tspan class="line" dy="0em" x="0" y="0">Primary Education</tspan><tspan class="line" dy="1.3em" x="0" y="0">12.99</tspan></text></g></g><g class="slice"><path class="surface" d="M374.38477913942324,310.81522766355977L420.32716870913487,336.22284149533965A157.5,157.5 0,0,0 440,259.9999999999999L387.5,259.99999999999994A105,105 0,0,1 374.38477913942324,310.81522766355977Z" style="pointer-events: none; stroke-width: 1; fill: rgb(255, 238, 221); fill-opacity: 1; stroke: rgb(0, 0, 0); stroke-opacity: 1; opacity: 1;"/><g class="slicetext"><text data-notex="1" class="slicetext" text-anchor="middle" x="0" y="0" style="font-family: 'Times New Roman'; font-size: 12px; fill: rgb(0, 0, 0); fill-opacity: 1; white-space: pre;" transform="translate(419.2912696442113,295.3053168444046)scale(0.6490415273615489)rotate(-75.52800000000002)"><tspan class="line" dy="0em" x="0" y="0">Secondary Education</tspan><tspan class="line" dy="1.3em" x="0" y="0">8.04</tspan></text></g></g><g class="slice"><path class="surface" d="M126.93908635626582,284.6384282438364L75.08544847502108,292.85123765844855A210,210 0,0,0 185.1688574898128,446.0823707331289L209.5016431173596,399.5617780498467A157.5,157.5 0,0,1 126.93908635626582,284.6384282438364Z" style="pointer-events: none; stroke-width: 1; fill: rgb(253, 216, 178); fill-opacity: 1; stroke: rgb(0, 0, 0); stroke-opacity: 1; opacity: 1;"/><g class="slicetext"><text data-notex="1" class="slicetext" text-anchor="middle" x="0" y="0" style="font-family: 'Times New Roman'; font-size: 12px; fill: rgb(0, 0, 0); fill-opacity: 1; white-space: pre;" transform="translate(141.03371912574292,361.4293616889126)rotate(54.305999999999926)"><tspan class="line" dy="0em" x="0" y="0">Liberal Arts Colleges</tspan><tspan class="line" dy="1.3em" x="0" y="0">14.83</tspan></text></g></g><g class="slice"><path class="surface" d="M209.5016431173596,399.5617780498467L185.1688574898128,446.0823707331289A210,210 0,0,0 267.0761147591504,469.4328144395646L270.9320860693628,417.0746108296735A157.5,157.5 0,0,1 209.5016431173596,399.5617780498467Z" style="pointer-events: none; stroke-width: 1; fill: rgb(255, 242, 228); fill-opacity: 1; stroke: rgb(0, 0, 0); stroke-opacity: 1; opacity: 1;"/><g class="slicetext"><text data-notex="1" class="slicetext" text-anchor="middle" x="0" y="0" style="font-family: 'Times New Roman'; font-size: 12px; fill: rgb(0, 0, 0); fill-opacity: 1; white-space: pre;" transform="translate(230.07028689083884,443.41015205982484)scale(0.8348464035502956)rotate(15.91199999999992)"><tspan class="line" dy="0em" x="0" y="0">Masters Programs</tspan><tspan class="line" dy="1.3em" x="0" y="0">6.5</tspan></text></g></g><g class="slice"><path class="surface" d="M270.9320860693628,417.0746108296735L267.0761147591504,469.4328144395646A210,210 0,0,0 334.3413791410265,463.50054400113123L321.3810343557699,412.62540800084844A157.5,157.5 0,0,1 270.9320860693628,417.0746108296735Z" style="pointer-events: none; stroke-width: 1; fill: rgb(255, 245, 235); fill-opacity: 1; stroke: rgb(0, 0, 0); stroke-opacity: 1; opacity: 1;"/><g class="slicetext"><text data-notex="1" class="slicetext" text-anchor="middle" x="0" y="0" style="font-family: 'Times New Roman'; font-size: 12px; fill: rgb(0, 0, 0); fill-opacity: 1; white-space: pre;" transform="translate(299.55712515434266,454.6247199559832)scale(0.6512084412011969)rotate(-5.040000000000077)"><tspan class="line" dy="0em" x="0" y="0">Doctoral Programs</tspan><tspan class="line" dy="1.3em" x="0" y="0">5.14</tspan></text></g></g><g class="slice"><path class="surface" d="M321.3810343557697,412.62540800084844L334.3413791410263,463.5005440011313A210,210 0,0,0 420.18385764233994,418.56593374594644L385.7628932317549,378.92445030945987A157.5,157.5 0,0,1 321.3810343557697,412.62540800084844Z" style="pointer-events: none; stroke-width: 1; fill: rgb(255, 239, 224); fill-opacity: 1; stroke: rgb(0, 0, 0); stroke-opacity: 1; opacity: 1;"/><g class="slicetext"><text data-notex="1" class="slicetext" text-anchor="middle" x="0" y="0" style="font-family: 'Times New Roman'; font-size: 12px; fill: rgb(0, 0, 0); fill-opacity: 1; white-space: pre;" transform="translate(368.5190243637647,424.3295937745097)rotate(-27.63000000000011)"><tspan class="line" dy="0em" x="0" y="0">Public Primary</tspan><tspan class="line" dy="1.3em" x="0" y="0">7.41</tspan></text></g></g><g class="slice"><path class="surface" d="M385.7628932317549,378.92445030945987L420.18385764233994,418.56593374594644A210,210 0,0,0 466.2695582788465,361.63045532711953L420.32716870913487,336.22284149533965A157.5,157.5 0,0,1 385.7628932317549,378.92445030945987Z" style="pointer-events: none; stroke-width: 1; fill: rgb(255, 244, 233); fill-opacity: 1; stroke: rgb(0, 0, 0); stroke-opacity: 1; opacity: 1;"/><g class="slicetext"><text data-notex="1" class="slicetext" text-anchor="middle" x="0" y="0" style="font-family: 'Times New Roman'; font-size: 12px; fill: rgb(0, 0, 0); fill-opacity: 1; white-space: pre;" transform="translate(431.5325191769238,380.6324817957621)scale(0.828959949452771)rotate(-51.011999999999944)"><tspan class="line" dy="0em" x="0" y="0">Private Primary</tspan><tspan class="line" dy="1.3em" x="0" y="0">5.58</tspan></text></g></g></g></g><g class="glimages"/><defs id="topdefs-195e0d"><g class="clips"/></defs><g class="layer-above"><g class="imagelayer"/><g class="shapelayer"/></g><g class="infolayer"><g class="cb2df4bc colorbar" transform="translate(10,50)"><rect class="cbbg" x="571.5" y="63" width="48.015625" height="295" style="fill: rgb(0, 0, 0); fill-opacity: 0; stroke: rgb(68, 68, 68); stroke-opacity: 1; stroke-width: 0;"/><g class="cbfills" transform="translate(0,93)"><rect class="cbfill gradient_filled" style="fill: url('#g195e0d-cb2df4bc');" x="582" y="0" width="15" height="254"/></g><g class="cblines" transform="translate(0,93)"/><g class="cbaxis crisp" transform="translate(0,-50)"><g class="ycb2df4bctick"><text text-anchor="start" x="600.4" y="4.199999999999999" transform="translate(0,370.93000000000006)" style="font-family: 'Times New Roman'; font-size: 12px; fill: rgb(42, 63, 95); fill-opacity: 1; white-space: pre; opacity: 1;">10</text></g><g class="ycb2df4bctick"><text text-anchor="start" x="600.4" y="4.199999999999999" style="font-family: 'Times New Roman'; font-size: 12px; fill: rgb(42, 63, 95); fill-opacity: 1; white-space: pre; opacity: 1;" transform="translate(0,317.30000000000007)">20</text></g><g class="ycb2df4bctick"><text text-anchor="start" x="600.4" y="4.199999999999999" style="font-family: 'Times New Roman'; font-size: 12px; fill: rgb(42, 63, 95); fill-opacity: 1; white-space: pre; opacity: 1;" transform="translate(0,263.6700000000001)">30</text></g><g class="ycb2df4bctick"><text text-anchor="start" x="600.4" y="4.199999999999999" style="font-family: 'Times New Roman'; font-size: 12px; fill: rgb(42, 63, 95); fill-opacity: 1; white-space: pre; opacity: 1;" transform="translate(0,210.04000000000008)">40</text></g><g class="ycb2df4bctick"><text text-anchor="start" x="600.4" y="4.199999999999999" style="font-family: 'Times New Roman'; font-size: 12px; fill: rgb(42, 63, 95); fill-opacity: 1; white-space: pre; opacity: 1;" transform="translate(0,156.41000000000005)">50</text></g></g><g class="cbtitleunshift" transform="translate(-10,-50)"><g class="cbtitle" transform="translate(-0.5,-0.5)"><text class="ycb2df4bctitle" x="592.25" y="135.75" text-anchor="start" style="opacity: 1; font-family: 'Times New Roman'; font-size: 13px; fill: rgb(42, 63, 95); fill-opacity: 1; white-space: pre;">%</text></g></g><rect class="cboutline" x="582" y="93" width="15" height="254" style="stroke: rgb(68, 68, 68); stroke-opacity: 1; fill: none; stroke-width: 1;"/></g><g class="g-gtitle"><text class="gtitle" x="320" y="25" text-anchor="middle" dy="0em" style="opacity: 1; font-family: 'Times New Roman'; font-size: 16px; fill: rgb(42, 63, 95); fill-opacity: 1; white-space: pre;">Education Distribution by Category (2024) (%)</text></g></g></svg>