<svg class="main-svg" xmlns="http://www.w3.org/2000/svg" xmlns:xlink="http://www.w3.org/1999/xlink" width="1920" height="1440" style="" viewBox="0 0 640 480"><rect x="0" y="0" width="640" height="480" style="fill: rgb(255, 255, 255); fill-opacity: 1;"/><defs id="defs-3f69dd"><g class="clips"/><g class="gradients"><linearGradient x1="0" y1="1" x2="0" y2="0" gradientUnits="objectBoundingBox" id="g3f69dd-cbb5d7b0"><stop offset="0%" stop-color="rgb(247, 251, 255)" stop-opacity="1"/><stop offset="12.5%" stop-color="rgb(222, 235, 247)" stop-opacity="1"/><stop offset="25%" stop-color="rgb(198, 219, 239)" stop-opacity="1"/><stop offset="37.5%" stop-color="rgb(158, 202, 225)" stop-opacity="1"/><stop offset="50%" stop-color="rgb(107, 174, 214)" stop-opacity="1"/><stop offset="62.5%" stop-color="rgb(66, 146, 198)" stop-opacity="1"/><stop offset="75%" stop-color="rgb(33, 113, 181)" stop-opacity="1"/><stop offset="87.5%" stop-color="rgb(8, 81, 156)" stop-opacity="1"/><stop offset="100%" stop-color="rgb(8, 48, 107)" stop-opacity="1"/></linearGradient></g><g class="patterns"/></defs><g class="bglayer"/><g class="layer-below"><g class="imagelayer"/><g class="shapelayer"/></g><g class="cartesianlayer"/><g class="polarlayer"/><g class="smithlayer"/><g class="ternarylayer"/><g class="geolayer"/><g class="funnelarealayer"/><g class="pielayer"/><g class="iciclelayer"/><g class="treemaplayer"/><g class="sunburstlayer"><g class="trace sunburst" stroke-linejoin="round" style="opacity: 1;"><g class="slice"><path class="surface" d="M282.5,260A0,0 0,1,0 282.5,260A0,0 0,1,0 282.5,260ZM335,260A52.5,52.5 0,1,1 230,260A52.5,52.5 0,1,1 335,260Z" style="pointer-events: none; stroke-width: 1; fill: rgb(255, 255, 255); fill-opacity: 1; stroke: rgb(0, 0, 0); stroke-opacity: 1;"/><g class="slicetext"><text data-notex="1" class="slicetext" text-anchor="middle" x="0" y="0" style="font-family: 'Times New Roman'; font-size: 12px; fill: rgb(0, 0, 0); fill-opacity: 1; white-space: pre;" transform="translate(282.5,264)">100</text></g></g><g class="slice cursor-pointer"><path class="surface" d="M335,260L387.5,260A105,105 0,0,0 177.6604625677332,254.19729451132267L230.0802312838666,257.0986472556613A52.5,52.5 0,0,1 335,260Z" style="pointer-events: none; stroke-width: 1; fill: rgb(8, 48, 107); fill-opacity: 1; stroke: rgb(0, 0, 0); stroke-opacity: 1;"/><g class="slicetext"><text data-notex="1" class="slicetext" text-anchor="middle" x="0" y="0" style="font-family: 'Times New Roman'; font-size: 12px; fill: rgb(0, 0, 0); fill-opacity: 1; white-space: pre;" transform="translate(284.5852273631638,184.59325289191176)rotate(1.5839999999999463)"><tspan class="line" dy="0em" x="0" y="0">Informal Learning</tspan><tspan class="line" dy="1.3em" x="0" y="0">49.12</tspan></text></g></g><g class="slice cursor-pointer"><path class="surface" d="M230.0802312838666,257.0986472556613L177.6604625677332,254.19729451132267A105,105 0,0,0 282.89583973672325,364.99925385879095L282.6979198683616,312.4996269293955A52.5,52.5 0,0,1 230.0802312838666,257.0986472556613Z" style="pointer-events: none; stroke-width: 1; fill: rgb(121, 182, 217); fill-opacity: 1; stroke: rgb(0, 0, 0); stroke-opacity: 1;"/><g class="slicetext"><text data-notex="1" class="slicetext" text-anchor="middle" x="0" y="0" style="font-family: 'Times New Roman'; font-size: 12px; fill: rgb(0, 0, 0); fill-opacity: 1; white-space: pre;" transform="translate(233.11239337556626,306.9064215218208)rotate(46.476)"><tspan class="line" dy="0em" x="0" y="0">Higher Education</tspan><tspan class="line" dy="1.3em" x="0" y="0">25.94</tspan></text></g></g><g class="slice cursor-pointer"><path class="surface" d="M282.6979198683616,312.4996269293955L282.89583973672325,364.99925385879095A105,105 0,0,0 387.5,259.99999999999994L335,259.99999999999994A52.5,52.5 0,0,1 282.6979198683616,312.4996269293955Z" style="pointer-events: none; stroke-width: 1; fill: rgb(130, 187, 219); fill-opacity: 1; stroke: rgb(0, 0, 0); stroke-opacity: 1;"/><g class="slicetext"><text data-notex="1" class="slicetext" text-anchor="middle" x="0" y="0" style="font-family: 'Times New Roman'; font-size: 12px; fill: rgb(0, 0, 0); fill-opacity: 1; white-space: pre;" transform="translate(331.48326026814243,308.7989449353366)rotate(-45.10800000000006)"><tspan class="line" dy="0em" x="0" y="0">Formal Education</tspan><tspan class="line" dy="1.3em" x="0" y="0">24.94</tspan></text></g></g><g class="slice"><path class="surface" d="M387.5,260L440,260A157.5,157.5 0,0,0 125.24069385159979,251.295941766984L177.6604625677332,254.19729451132267A105,105 0,0,1 387.5,260Z" style="pointer-events: none; stroke-width: 1; fill: rgb(8, 48, 107); fill-opacity: 1; stroke: rgb(0, 0, 0); stroke-opacity: 1; opacity: 1;"/><g class="slicetext"><text data-notex="1" class="slicetext" text-anchor="middle" x="0" y="0" style="font-family: 'Times New Roman'; font-size: 12px; fill: rgb(0, 0, 0); fill-opacity: 1; white-space: pre;" transform="translate(286.0840257147478,130.39316408604083)rotate(1.5839999999999463)"><tspan class="line" dy="0em" x="0" y="0">Online Education</tspan><tspan class="line" dy="1.3em" x="0" y="0">49.12</tspan></text></g></g><g class="slice cursor-pointer"><path class="surface" d="M177.6604625677332,254.19729451132267L125.24069385159979,251.295941766984A157.5,157.5 0,0,0 171.06072854486848,371.299320651788L208.20715236324565,334.19954710119197A105,105 0,0,1 177.6604625677332,254.19729451132267Z" style="pointer-events: none; stroke-width: 1; fill: rgb(212, 228, 244); fill-opacity: 1; stroke: rgb(0, 0, 0); stroke-opacity: 1;"/><g class="slicetext"><text data-notex="1" class="slicetext" text-anchor="middle" x="0" y="0" style="font-family: 'Times New Roman'; font-size: 12px; fill: rgb(0, 0, 0); fill-opacity: 1; white-space: pre;" transform="translate(164.91377163581876,304.89711134108455)rotate(69.10199999999998)"><tspan class="line" dy="0em" x="0" y="0">Undergraduate</tspan><tspan class="line" dy="1.3em" x="0" y="0">13.37</tspan></text></g></g><g class="slice cursor-pointer"><path class="surface" d="M208.20715236324565,334.19954710119197L171.06072854486848,371.299320651788A157.5,157.5 0,0,0 283.09375960508487,417.49888078818645L282.89583973672325,364.99925385879095A105,105 0,0,1 208.20715236324565,334.19954710119197Z" style="pointer-events: none; stroke-width: 1; fill: rgb(216, 231, 245); fill-opacity: 1; stroke: rgb(0, 0, 0); stroke-opacity: 1;"/><g class="slicetext"><text data-notex="1" class="slicetext" text-anchor="middle" x="0" y="0" style="font-family: 'Times New Roman'; font-size: 12px; fill: rgb(0, 0, 0); fill-opacity: 1; white-space: pre;" transform="translate(234.54330090923568,376.29405870789043)rotate(22.409999999999968)"><tspan class="line" dy="0em" x="0" y="0">Postgraduate</tspan><tspan class="line" dy="1.3em" x="0" y="0">12.57</tspan></text></g></g><g class="slice cursor-pointer"><path class="surface" d="M282.89583973672325,364.99925385879095L283.09375960508487,417.49888078818645A157.5,157.5 0,0,0 416.2188509587004,343.2197025846937L371.6459006391336,315.4798017231291A105,105 0,0,1 282.89583973672325,364.99925385879095Z" style="pointer-events: none; stroke-width: 1; fill: rgb(200, 220, 240); fill-opacity: 1; stroke: rgb(0, 0, 0); stroke-opacity: 1;"/><g class="slicetext"><text data-notex="1" class="slicetext" text-anchor="middle" x="0" y="0" style="font-family: 'Times New Roman'; font-size: 12px; fill: rgb(0, 0, 0); fill-opacity: 1; white-space: pre;" transform="translate(343.09295581945173,368.59628463782326)rotate(-29.159999999999968)"><tspan class="line" dy="0em" x="0" y="0">Secondary Education</tspan><tspan class="line" dy="1.3em" x="0" y="0">16.08</tspan></text></g></g><g class="slice"><path class="surface" d="M371.6459006391336,315.4798017231291L416.2188509587004,343.2197025846937A157.5,157.5 0,0,0 440,259.9999999999999L387.5,259.99999999999994A105,105 0,0,1 371.6459006391336,315.4798017231291Z" style="pointer-events: none; stroke-width: 1; fill: rgb(232, 242, 250); fill-opacity: 1; stroke: rgb(0, 0, 0); stroke-opacity: 1; opacity: 1;"/><g class="slicetext"><text data-notex="1" class="slicetext" text-anchor="middle" x="0" y="0" style="font-family: 'Times New Roman'; font-size: 12px; fill: rgb(0, 0, 0); fill-opacity: 1; white-space: pre;" transform="translate(415.31361882738935,297.9532774805833)scale(0.7853239347119548)rotate(-74.05200000000002)"><tspan class="line" dy="0em" x="0" y="0">Primary Education</tspan><tspan class="line" dy="1.3em" x="0" y="0">8.86</tspan></text></g></g><g class="slice"><path class="surface" d="M125.24069385159979,251.295941766984L72.82092513546638,248.3945890226453A210,210 0,0,0 133.91430472649134,408.39909420238394L171.06072854486848,371.299320651788A157.5,157.5 0,0,1 125.24069385159979,251.295941766984Z" style="pointer-events: none; stroke-width: 1; fill: rgb(212, 228, 244); fill-opacity: 1; stroke: rgb(0, 0, 0); stroke-opacity: 1; opacity: 1;"/><g class="slicetext"><text data-notex="1" class="slicetext" text-anchor="middle" x="0" y="0" style="font-family: 'Times New Roman'; font-size: 12px; fill: rgb(0, 0, 0); fill-opacity: 1; white-space: pre;" transform="translate(119.40302913974664,322.0985387224937)rotate(69.10199999999998)"><tspan class="line" dy="0em" x="0" y="0">Research Universities</tspan><tspan class="line" dy="1.3em" x="0" y="0">13.37</tspan></text></g></g><g class="slice"><path class="surface" d="M171.06072854486848,371.299320651788L133.91430472649134,408.39909420238394A210,210 0,0,0 209.3823241117926,456.8598625233368L227.66174308384444,407.6448968925026A157.5,157.5 0,0,1 171.06072854486848,371.299320651788Z" style="pointer-events: none; stroke-width: 1; fill: rgb(242, 248, 253); fill-opacity: 1; stroke: rgb(0, 0, 0); stroke-opacity: 1; opacity: 1;"/><g class="slicetext"><text data-notex="1" class="slicetext" text-anchor="middle" x="0" y="0" style="font-family: 'Times New Roman'; font-size: 12px; fill: rgb(0, 0, 0); fill-opacity: 1; white-space: pre;" transform="translate(179.561301476047,420.05147235657927)scale(0.840156321135095)rotate(32.705999999999904)"><tspan class="line" dy="0em" x="0" y="0">Doctoral Programs</tspan><tspan class="line" dy="1.3em" x="0" y="0">6.85</tspan></text></g></g><g class="slice"><path class="surface" d="M227.66174308384444,407.6448968925026L209.3823241117926,456.8598625233368A210,210 0,0,0 283.2916794734465,469.9985077175819L283.09375960508487,417.49888078818645A157.5,157.5 0,0,1 227.66174308384444,407.6448968925026Z" style="pointer-events: none; stroke-width: 1; fill: rgb(247, 251, 255); fill-opacity: 1; stroke: rgb(0, 0, 0); stroke-opacity: 1; opacity: 1;"/><g class="slicetext"><text data-notex="1" class="slicetext" text-anchor="middle" x="0" y="0" style="font-family: 'Times New Roman'; font-size: 12px; fill: rgb(0, 0, 0); fill-opacity: 1; white-space: pre;" transform="translate(248.5788309349758,450.1188499018695)scale(0.7459996542280946)rotate(10.079999999999927)"><tspan class="line" dy="0em" x="0" y="0">Masters Programs</tspan><tspan class="line" dy="1.3em" x="0" y="0">5.72</tspan></text></g></g><g class="slice"><path class="surface" d="M283.09375960508487,417.49888078818645L283.2916794734465,469.9985077175819A210,210 0,0,0 410.7930412128956,426.25551292016235L378.7197809096717,384.69163469012176A157.5,157.5 0,0,1 283.09375960508487,417.49888078818645Z" style="pointer-events: none; stroke-width: 1; fill: rgb(225, 237, 248); fill-opacity: 1; stroke: rgb(0, 0, 0); stroke-opacity: 1; opacity: 1;"/><g class="slicetext"><text data-notex="1" class="slicetext" text-anchor="middle" x="0" y="0" style="font-family: 'Times New Roman'; font-size: 12px; fill: rgb(0, 0, 0); fill-opacity: 1; white-space: pre;" transform="translate(340.95962481892826,430.9027199995216)rotate(-18.936000000000035)"><tspan class="line" dy="0em" x="0" y="0">Vocational Schools</tspan><tspan class="line" dy="1.3em" x="0" y="0">10.4</tspan></text></g></g><g class="slice"><path class="surface" d="M378.7197809096717,384.69163469012176L410.7930412128956,426.25551292016235A210,210 0,0,0 460.79180127826714,370.9596034462583L416.2188509587004,343.2197025846937A157.5,157.5 0,0,1 378.7197809096717,384.69163469012176Z" style="pointer-events: none; stroke-width: 1; fill: rgb(247, 251, 255); fill-opacity: 1; stroke: rgb(0, 0, 0); stroke-opacity: 1; opacity: 1;"/><g class="slicetext"><text data-notex="1" class="slicetext" text-anchor="middle" x="0" y="0" style="font-family: 'Times New Roman'; font-size: 12px; fill: rgb(0, 0, 0); fill-opacity: 1; white-space: pre;" transform="translate(422.8257966331657,387.09462796935964)scale(0.9563845343952266)rotate(-47.88000000000011)"><tspan class="line" dy="0em" x="0" y="0">High Schools</tspan><tspan class="line" dy="1.3em" x="0" y="0">5.68</tspan></text></g></g></g></g><g class="glimages"/><defs id="topdefs-3f69dd"><g class="clips"/></defs><g class="layer-above"><g class="imagelayer"/><g class="shapelayer"/></g><g class="infolayer"><g class="cbb5d7b0 colorbar" transform="translate(10,50)"><rect class="cbbg" x="571.5" y="63" width="48.015625" height="295" style="fill: rgb(0, 0, 0); fill-opacity: 0; stroke: rgb(68, 68, 68); stroke-opacity: 1; stroke-width: 0;"/><g class="cbfills" transform="translate(0,93)"><rect class="cbfill gradient_filled" style="fill: url('#g3f69dd-cbb5d7b0');" x="582" y="0" width="15" height="254"/></g><g class="cblines" transform="translate(0,93)"/><g class="cbaxis crisp" transform="translate(0,-50)"><g class="ycbb5d7b0tick"><text text-anchor="start" x="600.4" y="4.199999999999999" transform="translate(0,371.74000000000007)" style="font-family: 'Times New Roman'; font-size: 12px; fill: rgb(42, 63, 95); fill-opacity: 1; white-space: pre; opacity: 1;">10</text></g><g class="ycbb5d7b0tick"><text text-anchor="start" x="600.4" y="4.199999999999999" style="font-family: 'Times New Roman'; font-size: 12px; fill: rgb(42, 63, 95); fill-opacity: 1; white-space: pre; opacity: 1;" transform="translate(0,313.2700000000001)">20</text></g><g class="ycbb5d7b0tick"><text text-anchor="start" x="600.4" y="4.199999999999999" style="font-family: 'Times New Roman'; font-size: 12px; fill: rgb(42, 63, 95); fill-opacity: 1; white-space: pre; opacity: 1;" transform="translate(0,254.80000000000007)">30</text></g><g class="ycbb5d7b0tick"><text text-anchor="start" x="600.4" y="4.199999999999999" style="font-family: 'Times New Roman'; font-size: 12px; fill: rgb(42, 63, 95); fill-opacity: 1; white-space: pre; opacity: 1;" transform="translate(0,196.33000000000004)">40</text></g></g><g class="cbtitleunshift" transform="translate(-10,-50)"><g class="cbtitle" transform="translate(-0.5,-0.5)"><text class="ycbb5d7b0title" x="592.25" y="135.75" text-anchor="start" style="opacity: 1; font-family: 'Times New Roman'; font-size: 13px; fill: rgb(42, 63, 95); fill-opacity: 1; white-space: pre;">%</text></g></g><rect class="cboutline" x="582" y="93" width="15" height="254" style="stroke: rgb(68, 68, 68); stroke-opacity: 1; fill: none; stroke-width: 1;"/></g><g class="g-gtitle"><text class="gtitle" x="320" y="25" text-anchor="middle" dy="0em" style="opacity: 1; font-family: 'Times New Roman'; font-size: 16px; fill: rgb(42, 63, 95); fill-opacity: 1; white-space: pre;">Education Distribution by Category (2024) (%)</text></g></g></svg>