<svg class="main-svg" xmlns="http://www.w3.org/2000/svg" xmlns:xlink="http://www.w3.org/1999/xlink" width="1920" height="1440" style="" viewBox="0 0 640 480"><rect x="0" y="0" width="640" height="480" style="fill: rgb(255, 255, 255); fill-opacity: 1;"/><defs id="defs-45169e"><g class="clips"/><g class="gradients"><linearGradient x1="0" y1="1" x2="0" y2="0" gradientUnits="objectBoundingBox" id="g45169e-cbd2b01f"><stop offset="0%" stop-color="rgb(247, 251, 255)" stop-opacity="1"/><stop offset="12.5%" stop-color="rgb(222, 235, 247)" stop-opacity="1"/><stop offset="25%" stop-color="rgb(198, 219, 239)" stop-opacity="1"/><stop offset="37.5%" stop-color="rgb(158, 202, 225)" stop-opacity="1"/><stop offset="50%" stop-color="rgb(107, 174, 214)" stop-opacity="1"/><stop offset="62.5%" stop-color="rgb(66, 146, 198)" stop-opacity="1"/><stop offset="75%" stop-color="rgb(33, 113, 181)" stop-opacity="1"/><stop offset="87.5%" stop-color="rgb(8, 81, 156)" stop-opacity="1"/><stop offset="100%" stop-color="rgb(8, 48, 107)" stop-opacity="1"/></linearGradient></g><g class="patterns"/></defs><g class="bglayer"/><g class="layer-below"><g class="imagelayer"/><g class="shapelayer"/></g><g class="cartesianlayer"/><g class="polarlayer"/><g class="smithlayer"/><g class="ternarylayer"/><g class="geolayer"/><g class="funnelarealayer"/><g class="pielayer"/><g class="iciclelayer"/><g class="treemaplayer"/><g class="sunburstlayer"><g class="trace sunburst" stroke-linejoin="round" style="opacity: 1;"><g class="slice"><path class="surface" d="M282.5,260A0,0 0,1,0 282.5,260A0,0 0,1,0 282.5,260ZM324.5,260A42,42 0,1,1 240.5,260A42,42 0,1,1 324.5,260Z" style="pointer-events: none; stroke-width: 1; fill: rgb(255, 255, 255); fill-opacity: 1; stroke: rgb(0, 0, 0); stroke-opacity: 1;"/><g class="slicetext"><text data-notex="1" class="slicetext" text-anchor="middle" x="0" y="0" style="font-family: 'Times New Roman'; font-size: 12px; fill: rgb(0, 0, 0); fill-opacity: 1; white-space: pre;" transform="translate(282.5,264)">100.01</text></g></g><g class="slice cursor-pointer"><path class="surface" d="M324.5,260L366.5,260A84,84 0,0,0 211.1668716064318,215.64253395890702L246.8334358032159,237.8212669794535A42,42 0,0,1 324.5,260Z" style="pointer-events: none; stroke-width: 1; fill: rgb(8, 48, 107); fill-opacity: 1; stroke: rgb(0, 0, 0); stroke-opacity: 1;"/><g class="slicetext"><text data-notex="1" class="slicetext" text-anchor="middle" x="0" y="0" style="font-family: 'Times New Roman'; font-size: 12px; fill: rgb(0, 0, 0); fill-opacity: 1; white-space: pre;" transform="translate(299.2195928696604,201.45051785633632)scale(0.9423235837095201)rotate(15.937406259374029)"><tspan class="line" dy="0em" x="0" y="0">Informal Learning</tspan><tspan class="line" dy="1.3em" x="0" y="0">41.15</tspan></text></g></g><g class="slice cursor-pointer"><path class="surface" d="M246.8334358032159,237.8212669794535L211.1668716064318,215.64253395890702A84,84 0,0,0 272.71956077000624,343.42867018278787L277.60978038500315,301.71433509139393A42,42 0,0,1 246.8334358032159,237.8212669794535Z" style="pointer-events: none; stroke-width: 1; fill: rgb(34, 114, 182); fill-opacity: 1; stroke: rgb(0, 0, 0); stroke-opacity: 1;"/><g class="slicetext"><text data-notex="1" class="slicetext" text-anchor="middle" x="0" y="0" style="font-family: 'Times New Roman'; font-size: 12px; fill: rgb(0, 0, 0); fill-opacity: 1; white-space: pre;" transform="translate(233.95024720013652,283.3856968476045)scale(0.9581518419590909)rotate(64.28057194280575)"><tspan class="line" dy="0em" x="0" y="0">Higher Education</tspan><tspan class="line" dy="1.3em" x="0" y="0">32</tspan></text></g></g><g class="slice cursor-pointer"><path class="surface" d="M277.60978038500315,301.71433509139393L272.71956077000624,343.42867018278787A84,84 0,0,0 366.5,260L324.5,260A42,42 0,0,1 277.60978038500315,301.71433509139393Z" style="pointer-events: none; stroke-width: 1; fill: rgb(74, 151, 201); fill-opacity: 1; stroke: rgb(0, 0, 0); stroke-opacity: 1;"/><g class="slicetext"><text data-notex="1" class="slicetext" text-anchor="middle" x="0" y="0" style="font-family: 'Times New Roman'; font-size: 12px; fill: rgb(0, 0, 0); fill-opacity: 1; white-space: pre;" transform="translate(318.2719964076686,300.21055984585297)scale(0.9516906307154767)rotate(-41.65683431656839)"><tspan class="line" dy="0em" x="0" y="0">Formal Education</tspan><tspan class="line" dy="1.3em" x="0" y="0">26.86</tspan></text></g></g><g class="slice cursor-pointer"><path class="surface" d="M366.5,260L408.5,260A126,126 0,0,0 214.74137844133156,153.77020566493997L237.32758562755438,189.18013710995996A84,84 0,0,1 366.5,260Z" style="pointer-events: none; stroke-width: 1; fill: rgb(23, 100, 171); fill-opacity: 1; stroke: rgb(0, 0, 0); stroke-opacity: 1;"/><g class="slicetext"><text data-notex="1" class="slicetext" text-anchor="middle" x="0" y="0" style="font-family: 'Times New Roman'; font-size: 12px; fill: rgb(0, 0, 0); fill-opacity: 1; white-space: pre;" transform="translate(332.12300614910055,169.4897497521206)scale(0.9845296704484818)rotate(28.73412658734128)"><tspan class="line" dy="0em" x="0" y="0">Community Learning</tspan><tspan class="line" dy="1.3em" x="0" y="0">34.04</tspan></text></g></g><g class="slice"><path class="surface" d="M237.32758562755438,189.18013710995996L214.74137844133156,153.77020566493997A126,126 0,0,0 175.50030740964775,193.46380093836046L211.16687160643184,215.642533958907A84,84 0,0,1 237.32758562755438,189.18013710995996Z" style="pointer-events: none; stroke-width: 1; fill: rgb(237, 245, 252); fill-opacity: 1; stroke: rgb(0, 0, 0); stroke-opacity: 1; opacity: 1;"/><g class="slicetext"><text data-notex="1" class="slicetext" text-anchor="middle" x="0" y="0" style="font-family: 'Times New Roman'; font-size: 12px; fill: rgb(0, 0, 0); fill-opacity: 1; white-space: pre;" transform="translate(199.11563079881114,177.56624885659966)scale(0.5472891142873644)rotate(-45.32846715328469)"><tspan class="line" dy="0em" x="0" y="0">Online Education</tspan><tspan class="line" dy="1.3em" x="0" y="0">7.11</tspan></text></g></g><g class="slice cursor-pointer"><path class="surface" d="M211.1668716064318,215.64253395890702L175.50030740964775,193.46380093836052A126,126 0,0,0 170.9396161181127,318.568598652571L208.12641074540846,299.04573243504734A84,84 0,0,1 211.1668716064318,215.64253395890702Z" style="pointer-events: none; stroke-width: 1; fill: rgb(178, 210, 232); fill-opacity: 1; stroke: rgb(0, 0, 0); stroke-opacity: 1;"/><g class="slicetext"><text data-notex="1" class="slicetext" text-anchor="middle" x="0" y="0" style="font-family: 'Times New Roman'; font-size: 12px; fill: rgb(0, 0, 0); fill-opacity: 1; white-space: pre;" transform="translate(176.58447744708357,256.13885310418755)rotate(-87.91220877912201)"><tspan class="line" dy="0em" x="0" y="0">Postgraduate</tspan><tspan class="line" dy="1.3em" x="0" y="0">16.55</tspan></text></g></g><g class="slice cursor-pointer"><path class="surface" d="M208.12641074540846,299.04573243504734L170.9396161181127,318.568598652571A126,126 0,0,0 267.8293411550094,385.1430052741818L272.71956077000624,343.42867018278787A84,84 0,0,1 208.12641074540846,299.04573243504734Z" style="pointer-events: none; stroke-width: 1; fill: rgb(188, 215, 235); fill-opacity: 1; stroke: rgb(0, 0, 0); stroke-opacity: 1;"/><g class="slicetext"><text data-notex="1" class="slicetext" text-anchor="middle" x="0" y="0" style="font-family: 'Times New Roman'; font-size: 12px; fill: rgb(0, 0, 0); fill-opacity: 1; white-space: pre;" transform="translate(227.13845827857912,340.5709705456984)rotate(34.49355064493557)"><tspan class="line" dy="0em" x="0" y="0">Undergraduate</tspan><tspan class="line" dy="1.3em" x="0" y="0">15.45</tspan></text></g></g><g class="slice"><path class="surface" d="M272.71956077000624,343.42867018278787L267.8293411550094,385.1430052741818A126,126 0,0,0 408.5,260.00000000000006L366.5,260A84,84 0,0,1 272.71956077000624,343.42867018278787Z" style="pointer-events: none; stroke-width: 1; fill: rgb(74, 151, 201); fill-opacity: 1; stroke: rgb(0, 0, 0); stroke-opacity: 1; opacity: 1;"/><g class="slicetext"><text data-notex="1" class="slicetext" text-anchor="middle" x="0" y="0" style="font-family: 'Times New Roman'; font-size: 12px; fill: rgb(0, 0, 0); fill-opacity: 1; white-space: pre;" transform="translate(346.1674075200158,331.56721339055827)scale(0.9899941509578717)rotate(-41.65683431656839)"><tspan class="line" dy="0em" x="0" y="0">Secondary Education</tspan><tspan class="line" dy="1.3em" x="0" y="0">26.86</tspan></text></g></g><g class="slice cursor-pointer"><path class="surface" d="M408.5,260L450.5,260A168,168 0,0,0 192.15517125510877,118.36027421991994L214.74137844133156,153.77020566493997A126,126 0,0,1 408.5,260Z" style="pointer-events: none; stroke-width: 1; fill: rgb(23, 100, 171); fill-opacity: 1; stroke: rgb(0, 0, 0); stroke-opacity: 1;"/><g class="slicetext"><text data-notex="1" class="slicetext" text-anchor="middle" x="0" y="0" style="font-family: 'Times New Roman'; font-size: 12px; fill: rgb(0, 0, 0); fill-opacity: 1; white-space: pre;" transform="translate(353.06929297390275,131.9833984551411)rotate(28.73412658734128)"><tspan class="line" dy="0em" x="0" y="0">Non-Profit Programs</tspan><tspan class="line" dy="1.3em" x="0" y="0">34.04</tspan></text></g></g><g class="slice"><path class="surface" d="M175.50030740964775,193.46380093836052L139.83374321286365,171.28506791781405A168,168 0,0,0 116.33544597018545,284.76572195743233L157.87658447763908,278.57429146807425A126,126 0,0,1 175.50030740964775,193.46380093836052Z" style="pointer-events: none; stroke-width: 1; fill: rgb(215, 230, 245); fill-opacity: 1; stroke: rgb(0, 0, 0); stroke-opacity: 1; opacity: 1;"/><g class="slicetext"><text data-notex="1" class="slicetext" text-anchor="middle" x="0" y="0" style="font-family: 'Times New Roman'; font-size: 12px; fill: rgb(0, 0, 0); fill-opacity: 1; white-space: pre;" transform="translate(136.50165981709338,229.93584899349474)rotate(-78.30116988301165)"><tspan class="line" dy="0em" x="0" y="0">Masters Programs</tspan><tspan class="line" dy="1.3em" x="0" y="0">11.21</tspan></text></g></g><g class="slice"><path class="surface" d="M157.87658447763908,278.57429146807425L116.33544597018545,284.76572195743233A168,168 0,0,0 133.75282149081693,338.0914648700946L170.9396161181127,318.568598652571A126,126 0,0,1 157.87658447763908,278.57429146807425Z" style="pointer-events: none; stroke-width: 1; fill: rgb(247, 251, 255); fill-opacity: 1; stroke: rgb(0, 0, 0); stroke-opacity: 1; opacity: 1;"/><g class="slicetext"><text data-notex="1" class="slicetext" text-anchor="middle" x="0" y="0" style="font-family: 'Times New Roman'; font-size: 12px; fill: rgb(0, 0, 0); fill-opacity: 1; white-space: pre;" transform="translate(134.334367480448,308.3018337355988)scale(0.5351485751639811)rotate(71.91180881911805)"><tspan class="line" dy="0em" x="0" y="0">Doctoral Programs</tspan><tspan class="line" dy="1.3em" x="0" y="0">5.34</tspan></text></g></g><g class="slice"><path class="surface" d="M170.9396161181127,318.568598652571L133.75282149081693,338.0914648700946A168,168 0,0,0 204.47863224395346,408.7839580515176L223.98397418296508,371.58796853863817A126,126 0,0,1 170.9396161181127,318.568598652571Z" style="pointer-events: none; stroke-width: 1; fill: rgb(223, 236, 247); fill-opacity: 1; stroke: rgb(0, 0, 0); stroke-opacity: 1; opacity: 1;"/><g class="slicetext"><text data-notex="1" class="slicetext" text-anchor="middle" x="0" y="0" style="font-family: 'Times New Roman'; font-size: 12px; fill: rgb(0, 0, 0); fill-opacity: 1; white-space: pre;" transform="translate(178.2179549373262,364.1480202549183)scale(0.7892877073096688)rotate(44.986501349864966)"><tspan class="line" dy="0em" x="0" y="0">Research Universities</tspan><tspan class="line" dy="1.3em" x="0" y="0">9.62</tspan></text></g></g><g class="slice"><path class="surface" d="M223.98397418296508,371.58796853863817L204.47863224395346,408.7839580515176A168,168 0,0,0 262.9391215400125,426.85734036557574L267.8293411550094,385.1430052741818A126,126 0,0,1 223.98397418296508,371.58796853863817Z" style="pointer-events: none; stroke-width: 1; fill: rgb(244, 249, 254); fill-opacity: 1; stroke: rgb(0, 0, 0); stroke-opacity: 1; opacity: 1;"/><g class="slicetext"><text data-notex="1" class="slicetext" text-anchor="middle" x="0" y="0" style="font-family: 'Times New Roman'; font-size: 12px; fill: rgb(0, 0, 0); fill-opacity: 1; white-space: pre;" transform="translate(236.39603142258358,408.8418619664441)scale(0.5164510905033275)rotate(17.17928207179284)"><tspan class="line" dy="0em" x="0" y="0">Liberal Arts Colleges</tspan><tspan class="line" dy="1.3em" x="0" y="0">5.83</tspan></text></g></g><g class="slice"><path class="surface" d="M450.5,260L492.5,260A210,210 0,0,0 388.621525507457,78.78680560188187L367.39722040596564,115.0294444815055A168,168 0,0,1 450.5,260Z" style="pointer-events: none; stroke-width: 1; fill: rgb(178, 210, 232); fill-opacity: 1; stroke: rgb(0, 0, 0); stroke-opacity: 1; opacity: 1;"/><g class="slicetext"><text data-notex="1" class="slicetext" text-anchor="middle" x="0" y="0" style="font-family: 'Times New Roman'; font-size: 12px; fill: rgb(0, 0, 0); fill-opacity: 1; white-space: pre;" transform="translate(447.1977850527727,165.5888026233014)rotate(60.17698230176984)"><tspan class="line" dy="0em" x="0" y="0">Youth Mentoring</tspan><tspan class="line" dy="1.3em" x="0" y="0">16.57</tspan></text></g></g><g class="slice"><path class="surface" d="M367.39722040596564,115.0294444815055L388.621525507457,78.78680560188187A210,210 0,0,0 256.34626388083154,51.6349787344121L261.57701110466525,93.30798298752967A168,168 0,0,1 367.39722040596564,115.0294444815055Z" style="pointer-events: none; stroke-width: 1; fill: rgb(219, 233, 246); fill-opacity: 1; stroke: rgb(0, 0, 0); stroke-opacity: 1; opacity: 1;"/><g class="slicetext"><text data-notex="1" class="slicetext" text-anchor="middle" x="0" y="0" style="font-family: 'Times New Roman'; font-size: 12px; fill: rgb(0, 0, 0); fill-opacity: 1; white-space: pre;" transform="translate(320.8016094181804,73.406463173181)rotate(11.599840015998439)"><tspan class="line" dy="0em" x="0" y="0">Adult Literacy</tspan><tspan class="line" dy="1.3em" x="0" y="0">10.42</tspan></text></g></g><g class="slice"><path class="surface" d="M261.57701110466525,93.30798298752967L256.34626388083154,51.6349787344121A210,210 0,0,0 169.56896406888598,82.95034277489992L192.15517125510877,118.36027421991994A168,168 0,0,1 261.57701110466525,93.30798298752967Z" style="pointer-events: none; stroke-width: 1; fill: rgb(237, 245, 252); fill-opacity: 1; stroke: rgb(0, 0, 0); stroke-opacity: 1; opacity: 1;"/><g class="slicetext"><text data-notex="1" class="slicetext" text-anchor="middle" x="0" y="0" style="font-family: 'Times New Roman'; font-size: 12px; fill: rgb(0, 0, 0); fill-opacity: 1; white-space: pre;" transform="translate(215.87204466702238,75.3687739886595)scale(0.8586883844576096)rotate(-19.843015698430122)"><tspan class="line" dy="0em" x="0" y="0">Refugee Education</tspan><tspan class="line" dy="1.3em" x="0" y="0">7.05</tspan></text></g></g></g></g><g class="glimages"/><defs id="topdefs-45169e"><g class="clips"/></defs><g class="layer-above"><g class="imagelayer"/><g class="shapelayer"/></g><g class="infolayer"><g class="cbd2b01f colorbar" transform="translate(10,50)"><rect class="cbbg" x="571.5" y="63" width="48.015625" height="295" style="fill: rgb(0, 0, 0); fill-opacity: 0; stroke: rgb(68, 68, 68); stroke-opacity: 1; stroke-width: 0;"/><g class="cbfills" transform="translate(0,93)"><rect class="cbfill gradient_filled" style="fill: url('#g45169e-cbd2b01f');" x="582" y="0" width="15" height="254"/></g><g class="cblines" transform="translate(0,93)"/><g class="cbaxis crisp" transform="translate(0,-50)"><g class="ycbd2b01ftick"><text text-anchor="start" x="600.4" y="4.199999999999999" transform="translate(0,363.95000000000005)" style="font-family: 'Times New Roman'; font-size: 12px; fill: rgb(42, 63, 95); fill-opacity: 1; white-space: pre; opacity: 1;">10</text></g><g class="ycbd2b01ftick"><text text-anchor="start" x="600.4" y="4.199999999999999" style="font-family: 'Times New Roman'; font-size: 12px; fill: rgb(42, 63, 95); fill-opacity: 1; white-space: pre; opacity: 1;" transform="translate(0,328.48)">15</text></g><g class="ycbd2b01ftick"><text text-anchor="start" x="600.4" y="4.199999999999999" style="font-family: 'Times New Roman'; font-size: 12px; fill: rgb(42, 63, 95); fill-opacity: 1; white-space: pre; opacity: 1;" transform="translate(0,293.0200000000001)">20</text></g><g class="ycbd2b01ftick"><text text-anchor="start" x="600.4" y="4.199999999999999" style="font-family: 'Times New Roman'; font-size: 12px; fill: rgb(42, 63, 95); fill-opacity: 1; white-space: pre; opacity: 1;" transform="translate(0,257.55000000000007)">25</text></g><g class="ycbd2b01ftick"><text text-anchor="start" x="600.4" y="4.199999999999999" style="font-family: 'Times New Roman'; font-size: 12px; fill: rgb(42, 63, 95); fill-opacity: 1; white-space: pre; opacity: 1;" transform="translate(0,222.09000000000006)">30</text></g><g class="ycbd2b01ftick"><text text-anchor="start" x="600.4" y="4.199999999999999" style="font-family: 'Times New Roman'; font-size: 12px; fill: rgb(42, 63, 95); fill-opacity: 1; white-space: pre; opacity: 1;" transform="translate(0,186.62000000000006)">35</text></g><g class="ycbd2b01ftick"><text text-anchor="start" x="600.4" y="4.199999999999999" style="font-family: 'Times New Roman'; font-size: 12px; fill: rgb(42, 63, 95); fill-opacity: 1; white-space: pre; opacity: 1;" transform="translate(0,151.16000000000005)">40</text></g></g><g class="cbtitleunshift" transform="translate(-10,-50)"><g class="cbtitle" transform="translate(-0.5,-0.5)"><text class="ycbd2b01ftitle" x="592.25" y="135.75" text-anchor="start" style="opacity: 1; font-family: 'Times New Roman'; font-size: 13px; fill: rgb(42, 63, 95); fill-opacity: 1; white-space: pre;">%</text></g></g><rect class="cboutline" x="582" y="93" width="15" height="254" style="stroke: rgb(68, 68, 68); stroke-opacity: 1; fill: none; stroke-width: 1;"/></g><g class="g-gtitle"><text class="gtitle" x="320" y="25" text-anchor="middle" dy="0em" style="opacity: 1; font-family: 'Times New Roman'; font-size: 16px; fill: rgb(42, 63, 95); fill-opacity: 1; white-space: pre;">Education Distribution by Category (2024) (%)</text></g></g></svg>