<svg class="main-svg" xmlns="http://www.w3.org/2000/svg" xmlns:xlink="http://www.w3.org/1999/xlink" width="1920" height="1440" style="" viewBox="0 0 640 480"><rect x="0" y="0" width="640" height="480" style="fill: rgb(255, 255, 255); fill-opacity: 1;"/><defs id="defs-f426d2"><g class="clips"/><g class="gradients"><linearGradient x1="0" y1="1" x2="0" y2="0" gradientUnits="objectBoundingBox" id="gf426d2-cbe026c2"><stop offset="0%" stop-color="rgb(247, 251, 255)" stop-opacity="1"/><stop offset="12.5%" stop-color="rgb(222, 235, 247)" stop-opacity="1"/><stop offset="25%" stop-color="rgb(198, 219, 239)" stop-opacity="1"/><stop offset="37.5%" stop-color="rgb(158, 202, 225)" stop-opacity="1"/><stop offset="50%" stop-color="rgb(107, 174, 214)" stop-opacity="1"/><stop offset="62.5%" stop-color="rgb(66, 146, 198)" stop-opacity="1"/><stop offset="75%" stop-color="rgb(33, 113, 181)" stop-opacity="1"/><stop offset="87.5%" stop-color="rgb(8, 81, 156)" stop-opacity="1"/><stop offset="100%" stop-color="rgb(8, 48, 107)" stop-opacity="1"/></linearGradient></g><g class="patterns"/></defs><g class="bglayer"/><g class="layer-below"><g class="imagelayer"/><g class="shapelayer"/></g><g class="cartesianlayer"/><g class="polarlayer"/><g class="smithlayer"/><g class="ternarylayer"/><g class="geolayer"/><g class="funnelarealayer"/><g class="pielayer"/><g class="iciclelayer"/><g class="treemaplayer"/><g class="sunburstlayer"><g class="trace sunburst" stroke-linejoin="round" style="opacity: 1;"><g class="slice"><path class="surface" d="M282.5,260A0,0 0,1,0 282.5,260A0,0 0,1,0 282.5,260ZM335,260A52.5,52.5 0,1,1 230,260A52.5,52.5 0,1,1 335,260Z" style="pointer-events: none; stroke-width: 1; fill: rgb(255, 255, 255); fill-opacity: 1; stroke: rgb(0, 0, 0); stroke-opacity: 1;"/><g class="slicetext"><text data-notex="1" class="slicetext" text-anchor="middle" x="0" y="0" style="font-family: 'Times New Roman'; font-size: 12px; fill: rgb(0, 0, 0); fill-opacity: 1; white-space: pre;" transform="translate(282.5,264)">100</text></g></g><g class="slice cursor-pointer"><path class="surface" d="M335,260L387.5,260A105,105 0,0,0 196.2918855787609,200.05701869330693L239.39594278938046,230.02850934665346A52.5,52.5 0,0,1 335,260Z" style="pointer-events: none; stroke-width: 1; fill: rgb(8, 48, 107); fill-opacity: 1; stroke: rgb(0, 0, 0); stroke-opacity: 1;"/><g class="slicetext"><text data-notex="1" class="slicetext" text-anchor="middle" x="0" y="0" style="font-family: 'Times New Roman'; font-size: 12px; fill: rgb(0, 0, 0); fill-opacity: 1; white-space: pre;" transform="translate(305.0658515197115,188.0186966791404)rotate(17.40599999999995)"><tspan class="line" dy="0em" x="0" y="0">Informal Learning</tspan><tspan class="line" dy="1.3em" x="0" y="0">40.33</tspan></text></g></g><g class="slice cursor-pointer"><path class="surface" d="M239.39594278938046,230.02850934665346L196.2918855787609,200.05701869330693A105,105 0,0,0 290.672433357985,364.6814755962548L286.5862166789925,312.3407377981274A52.5,52.5 0,0,1 239.39594278938046,230.02850934665346Z" style="pointer-events: none; stroke-width: 1; fill: rgb(10, 83, 158); fill-opacity: 1; stroke: rgb(0, 0, 0); stroke-opacity: 1;"/><g class="slicetext"><text data-notex="1" class="slicetext" text-anchor="middle" x="0" y="0" style="font-family: 'Times New Roman'; font-size: 12px; fill: rgb(0, 0, 0); fill-opacity: 1; white-space: pre;" transform="translate(223.51107751243524,293.81883179462665)rotate(60.17399999999998)"><tspan class="line" dy="0em" x="0" y="0">Formal Education</tspan><tspan class="line" dy="1.3em" x="0" y="0">35.91</tspan></text></g></g><g class="slice cursor-pointer"><path class="surface" d="M286.5862166789925,312.3407377981274L290.672433357985,364.6814755962548A105,105 0,0,0 387.5,260L335,260A52.5,52.5 0,0,1 286.5862166789925,312.3407377981274Z" style="pointer-events: none; stroke-width: 1; fill: rgb(106, 173, 214); fill-opacity: 1; stroke: rgb(0, 0, 0); stroke-opacity: 1;"/><g class="slicetext"><text data-notex="1" class="slicetext" text-anchor="middle" x="0" y="0" style="font-family: 'Times New Roman'; font-size: 12px; fill: rgb(0, 0, 0); fill-opacity: 1; white-space: pre;" transform="translate(334.3154757135269,307.92792993375355)rotate(-47.23199999999997)"><tspan class="line" dy="0em" x="0" y="0">Higher Education</tspan><tspan class="line" dy="1.3em" x="0" y="0">23.76</tspan></text></g></g><g class="slice"><path class="surface" d="M387.5,260L440,260A157.5,157.5 0,0,0 153.1878283681414,170.08552803996042L196.2918855787609,200.05701869330693A105,105 0,0,1 387.5,260Z" style="pointer-events: none; stroke-width: 1; fill: rgb(8, 48, 107); fill-opacity: 1; stroke: rgb(0, 0, 0); stroke-opacity: 1; opacity: 1;"/><g class="slicetext"><text data-notex="1" class="slicetext" text-anchor="middle" x="0" y="0" style="font-family: 'Times New Roman'; font-size: 12px; fill: rgb(0, 0, 0); fill-opacity: 1; white-space: pre;" transform="translate(321.285502986646,136.28071324961175)rotate(17.40599999999995)"><tspan class="line" dy="0em" x="0" y="0">Online Education</tspan><tspan class="line" dy="1.3em" x="0" y="0">40.33</tspan></text></g></g><g class="slice cursor-pointer"><path class="surface" d="M196.2918855787609,200.05701869330693L153.1878283681414,170.08552803996042A157.5,157.5 0,0,0 164.75100633836567,364.6012642928966L204.0006708922438,329.73417619526435A105,105 0,0,1 196.2918855787609,200.05701869330693Z" style="pointer-events: none; stroke-width: 1; fill: rgb(137, 190, 220); fill-opacity: 1; stroke: rgb(0, 0, 0); stroke-opacity: 1;"/><g class="slicetext"><text data-notex="1" class="slicetext" text-anchor="middle" x="0" y="0" style="font-family: 'Times New Roman'; font-size: 12px; fill: rgb(0, 0, 0); fill-opacity: 1; white-space: pre;" transform="translate(162.07359302499717,267.15886541105283)rotate(86.59799999999996)"><tspan class="line" dy="0em" x="0" y="0">Secondary Education</tspan><tspan class="line" dy="1.3em" x="0" y="0">21.23</tspan></text></g></g><g class="slice cursor-pointer"><path class="surface" d="M204.0006708922438,329.73417619526435L164.75100633836567,364.6012642928966A157.5,157.5 0,0,0 294.75865003697754,417.0222133943822L290.672433357985,364.6814755962548A105,105 0,0,1 204.0006708922438,329.73417619526435Z" style="pointer-events: none; stroke-width: 1; fill: rgb(202, 222, 240); fill-opacity: 1; stroke: rgb(0, 0, 0); stroke-opacity: 1;"/><g class="slicetext"><text data-notex="1" class="slicetext" text-anchor="middle" x="0" y="0" style="font-family: 'Times New Roman'; font-size: 12px; fill: rgb(0, 0, 0); fill-opacity: 1; white-space: pre;" transform="translate(235.41813213877978,376.76634640316286)rotate(21.959999999999923)"><tspan class="line" dy="0em" x="0" y="0">Primary Education</tspan><tspan class="line" dy="1.3em" x="0" y="0">14.68</tspan></text></g></g><g class="slice"><path class="surface" d="M290.672433357985,364.6814755962548L294.75865003697754,417.0222133943822A157.5,157.5 0,0,0 411.30165244584055,350.6442735489722L368.36776829722703,320.42951569931483A105,105 0,0,1 290.672433357985,364.6814755962548Z" style="pointer-events: none; stroke-width: 1; fill: rgb(206, 224, 242); fill-opacity: 1; stroke: rgb(0, 0, 0); stroke-opacity: 1; opacity: 1;"/><g class="slicetext"><text data-notex="1" class="slicetext" text-anchor="middle" x="0" y="0" style="font-family: 'Times New Roman'; font-size: 12px; fill: rgb(0, 0, 0); fill-opacity: 1; white-space: pre;" transform="translate(343.8304846191323,367.68093787409884)rotate(-29.663999999999987)"><tspan class="line" dy="0em" x="0" y="0">Postgraduate</tspan><tspan class="line" dy="1.3em" x="0" y="0">14</tspan></text></g></g><g class="slice cursor-pointer"><path class="surface" d="M368.36776829722703,320.42951569931483L411.30165244584055,350.6442735489722A157.5,157.5 0,0,0 440,260.00000000000006L387.5,260A105,105 0,0,1 368.36776829722703,320.42951569931483Z" style="pointer-events: none; stroke-width: 1; fill: rgb(231, 240, 250); fill-opacity: 1; stroke: rgb(0, 0, 0); stroke-opacity: 1;"/><g class="slicetext"><text data-notex="1" class="slicetext" text-anchor="middle" x="0" y="0" style="font-family: 'Times New Roman'; font-size: 12px; fill: rgb(0, 0, 0); fill-opacity: 1; white-space: pre;" transform="translate(409.4063104503847,300.17905667425913)rotate(-72.43200000000002)"><tspan class="line" dy="0em" x="0" y="0">Undergraduate</tspan><tspan class="line" dy="1.3em" x="0" y="0">9.76</tspan></text></g></g><g class="slice"><path class="surface" d="M153.1878283681414,170.08552803996042L110.08377115752185,140.1140373866139A210,210 0,0,0 76.12143141250309,298.8315133335778L127.71607355937732,289.12363500018336A157.5,157.5 0,0,1 153.1878283681414,170.08552803996042Z" style="pointer-events: none; stroke-width: 1; fill: rgb(214, 229, 244); fill-opacity: 1; stroke: rgb(0, 0, 0); stroke-opacity: 1; opacity: 1;"/><g class="slicetext"><text data-notex="1" class="slicetext" text-anchor="middle" x="0" y="0" style="font-family: 'Times New Roman'; font-size: 12px; fill: rgb(0, 0, 0); fill-opacity: 1; white-space: pre;" transform="translate(104.02772795723044,221.9783086503769)rotate(-77.92200000000003)"><tspan class="line" dy="0em" x="0" y="0">Vocational Schools</tspan><tspan class="line" dy="1.3em" x="0" y="0">12.63</tspan></text></g></g><g class="slice"><path class="surface" d="M127.71607355937732,289.12363500018336L76.12143141250309,298.8315133335778A210,210 0,0,0 125.50134178448758,399.46835239052876L164.75100633836567,364.6012642928966A157.5,157.5 0,0,1 127.71607355937732,289.12363500018336Z" style="pointer-events: none; stroke-width: 1; fill: rgb(238, 245, 252); fill-opacity: 1; stroke: rgb(0, 0, 0); stroke-opacity: 1; opacity: 1;"/><g class="slicetext"><text data-notex="1" class="slicetext" text-anchor="middle" x="0" y="0" style="font-family: 'Times New Roman'; font-size: 12px; fill: rgb(0, 0, 0); fill-opacity: 1; white-space: pre;" transform="translate(120.17221815686683,339.4673220863944)rotate(63.86400000000003)"><tspan class="line" dy="0em" x="0" y="0">High Schools</tspan><tspan class="line" dy="1.3em" x="0" y="0">8.6</tspan></text></g></g><g class="slice"><path class="surface" d="M164.75100633836567,364.6012642928966L125.50134178448758,399.46835239052876A210,210 0,0,0 207.90012810083937,456.3029778496211L226.55009607562954,407.22723338721585A157.5,157.5 0,0,1 164.75100633836567,364.6012642928966Z" style="pointer-events: none; stroke-width: 1; fill: rgb(243, 249, 254); fill-opacity: 1; stroke: rgb(0, 0, 0); stroke-opacity: 1; opacity: 1;"/><g class="slicetext"><text data-notex="1" class="slicetext" text-anchor="middle" x="0" y="0" style="font-family: 'Times New Roman'; font-size: 12px; fill: rgb(0, 0, 0); fill-opacity: 1; white-space: pre;" transform="translate(177.58059896966463,412.1120485285995)rotate(34.596000000000004)"><tspan class="line" dy="0em" x="0" y="0">Public Primary</tspan><tspan class="line" dy="1.3em" x="0" y="0">7.66</tspan></text></g></g><g class="slice"><path class="surface" d="M226.55009607562954,407.22723338721585L207.90012810083937,456.3029778496211A210,210 0,0,0 298.8448667159703,469.3629511925096L294.7586500369777,417.0222133943822A157.5,157.5 0,0,1 226.55009607562954,407.22723338721585Z" style="pointer-events: none; stroke-width: 1; fill: rgb(247, 251, 255); fill-opacity: 1; stroke: rgb(0, 0, 0); stroke-opacity: 1; opacity: 1;"/><g class="slicetext"><text data-notex="1" class="slicetext" text-anchor="middle" x="0" y="0" style="font-family: 'Times New Roman'; font-size: 12px; fill: rgb(0, 0, 0); fill-opacity: 1; white-space: pre;" transform="translate(255.90175269591617,445.2201827048676)rotate(8.171999999999912)"><tspan class="line" dy="0em" x="0" y="0">Private Primary</tspan><tspan class="line" dy="1.3em" x="0" y="0">7.02</tspan></text></g></g><g class="slice"><path class="surface" d="M411.30165244584055,350.6442735489722L454.23553659445406,380.8590313986296A210,210 0,0,0 492.5,260.00000000000006L440,260.00000000000006A157.5,157.5 0,0,1 411.30165244584055,350.6442735489722Z" style="pointer-events: none; stroke-width: 1; fill: rgb(231, 240, 250); fill-opacity: 1; stroke: rgb(0, 0, 0); stroke-opacity: 1; opacity: 1;"/><g class="slicetext"><text data-notex="1" class="slicetext" text-anchor="middle" x="0" y="0" style="font-family: 'Times New Roman'; font-size: 12px; fill: rgb(0, 0, 0); fill-opacity: 1; white-space: pre;" transform="translate(457.52582563177884,315.58598071761435)rotate(-72.43200000000002)"><tspan class="line" dy="0em" x="0" y="0">Liberal Arts Colleges</tspan><tspan class="line" dy="1.3em" x="0" y="0">9.76</tspan></text></g></g></g></g><g class="glimages"/><defs id="topdefs-f426d2"><g class="clips"/></defs><g class="layer-above"><g class="imagelayer"/><g class="shapelayer"/></g><g class="infolayer"><g class="cbe026c2 colorbar" transform="translate(10,50)"><rect class="cbbg" x="571.5" y="63" width="48.015625" height="295" style="fill: rgb(0, 0, 0); fill-opacity: 0; stroke: rgb(68, 68, 68); stroke-opacity: 1; stroke-width: 0;"/><g class="cbfills" transform="translate(0,93)"><rect class="cbfill gradient_filled" style="fill: url('#gf426d2-cbe026c2');" x="582" y="0" width="15" height="254"/></g><g class="cblines" transform="translate(0,93)"/><g class="cbaxis crisp" transform="translate(0,-50)"><g class="ycbe026c2tick"><text text-anchor="start" x="600.4" y="4.199999999999999" transform="translate(0,374.2800000000001)" style="font-family: 'Times New Roman'; font-size: 12px; fill: rgb(42, 63, 95); fill-opacity: 1; white-space: pre; opacity: 1;">10</text></g><g class="ycbe026c2tick"><text text-anchor="start" x="600.4" y="4.199999999999999" style="font-family: 'Times New Roman'; font-size: 12px; fill: rgb(42, 63, 95); fill-opacity: 1; white-space: pre; opacity: 1;" transform="translate(0,336.1500000000001)">15</text></g><g class="ycbe026c2tick"><text text-anchor="start" x="600.4" y="4.199999999999999" style="font-family: 'Times New Roman'; font-size: 12px; fill: rgb(42, 63, 95); fill-opacity: 1; white-space: pre; opacity: 1;" transform="translate(0,298.0200000000001)">20</text></g><g class="ycbe026c2tick"><text text-anchor="start" x="600.4" y="4.199999999999999" style="font-family: 'Times New Roman'; font-size: 12px; fill: rgb(42, 63, 95); fill-opacity: 1; white-space: pre; opacity: 1;" transform="translate(0,259.9000000000001)">25</text></g><g class="ycbe026c2tick"><text text-anchor="start" x="600.4" y="4.199999999999999" style="font-family: 'Times New Roman'; font-size: 12px; fill: rgb(42, 63, 95); fill-opacity: 1; white-space: pre; opacity: 1;" transform="translate(0,221.77000000000004)">30</text></g><g class="ycbe026c2tick"><text text-anchor="start" x="600.4" y="4.199999999999999" style="font-family: 'Times New Roman'; font-size: 12px; fill: rgb(42, 63, 95); fill-opacity: 1; white-space: pre; opacity: 1;" transform="translate(0,183.64000000000004)">35</text></g><g class="ycbe026c2tick"><text text-anchor="start" x="600.4" y="4.199999999999999" style="font-family: 'Times New Roman'; font-size: 12px; fill: rgb(42, 63, 95); fill-opacity: 1; white-space: pre; opacity: 1;" transform="translate(0,145.52000000000007)">40</text></g></g><g class="cbtitleunshift" transform="translate(-10,-50)"><g class="cbtitle" transform="translate(-0.5,-0.5)"><text class="ycbe026c2title" x="592.25" y="135.75" text-anchor="start" style="opacity: 1; font-family: 'Times New Roman'; font-size: 13px; fill: rgb(42, 63, 95); fill-opacity: 1; white-space: pre;">%</text></g></g><rect class="cboutline" x="582" y="93" width="15" height="254" style="stroke: rgb(68, 68, 68); stroke-opacity: 1; fill: none; stroke-width: 1;"/></g><g class="g-gtitle"><text class="gtitle" x="320" y="25" text-anchor="middle" dy="0em" style="opacity: 1; font-family: 'Times New Roman'; font-size: 16px; fill: rgb(42, 63, 95); fill-opacity: 1; white-space: pre;">Education Distribution by Category (2024) (%)</text></g></g></svg>