<svg class="main-svg" xmlns="http://www.w3.org/2000/svg" xmlns:xlink="http://www.w3.org/1999/xlink" width="1920" height="1440" style="" viewBox="0 0 640 480"><rect x="0" y="0" width="640" height="480" style="fill: rgb(255, 255, 255); fill-opacity: 1;"/><defs id="defs-85a287"><g class="clips"/><g class="gradients"><linearGradient x1="0" y1="1" x2="0" y2="0" gradientUnits="objectBoundingBox" id="g85a287-cb83b6a6"><stop offset="0%" stop-color="rgb(255, 255, 217)" stop-opacity="1"/><stop offset="12.5%" stop-color="rgb(237, 248, 177)" stop-opacity="1"/><stop offset="25%" stop-color="rgb(199, 233, 180)" stop-opacity="1"/><stop offset="37.5%" stop-color="rgb(127, 205, 187)" stop-opacity="1"/><stop offset="50%" stop-color="rgb(65, 182, 196)" stop-opacity="1"/><stop offset="62.5%" stop-color="rgb(29, 145, 192)" stop-opacity="1"/><stop offset="75%" stop-color="rgb(34, 94, 168)" stop-opacity="1"/><stop offset="87.5%" stop-color="rgb(37, 52, 148)" stop-opacity="1"/><stop offset="100%" stop-color="rgb(8, 29, 88)" stop-opacity="1"/></linearGradient></g><g class="patterns"/></defs><g class="bglayer"/><g class="layer-below"><g class="imagelayer"/><g class="shapelayer"/></g><g class="cartesianlayer"/><g class="polarlayer"/><g class="smithlayer"/><g class="ternarylayer"/><g class="geolayer"/><g class="funnelarealayer"/><g class="pielayer"/><g class="iciclelayer"/><g class="treemaplayer"/><g class="sunburstlayer"><g class="trace sunburst" stroke-linejoin="round" style="opacity: 1;"><g class="slice"><path class="surface" d="M282.5,260A0,0 0,1,0 282.5,260A0,0 0,1,0 282.5,260ZM324.5,260A42,42 0,1,1 240.5,260A42,42 0,1,1 324.5,260Z" style="pointer-events: none; stroke-width: 1; fill: rgb(255, 255, 255); fill-opacity: 1; stroke: rgb(0, 0, 0); stroke-opacity: 1;"/><g class="slicetext"><text data-notex="1" class="slicetext" text-anchor="middle" x="0" y="0" style="font-family: 'Times New Roman'; font-size: 12px; fill: rgb(0, 0, 0); fill-opacity: 1; white-space: pre;" transform="translate(282.5,264)">99.99</text></g></g><g class="slice cursor-pointer"><path class="surface" d="M324.5,260L366.5,260A84,84 0,0,0 198.77796861134522,253.1720090687593L240.6389843056726,256.58600453437964A42,42 0,0,1 324.5,260Z" style="pointer-events: none; stroke-width: 1; fill: rgb(8, 29, 88); fill-opacity: 1; stroke: rgb(0, 0, 0); stroke-opacity: 1;"/><g class="slicetext"><text data-notex="1" class="slicetext" text-anchor="middle" x="0" y="0" style="font-family: 'Times New Roman'; font-size: 12px; fill: rgb(0, 0, 0); fill-opacity: 1; white-space: pre;" transform="translate(284.8583377332714,198.03669512262985)rotate(2.3312331233123587)"><tspan class="line" dy="0em" x="0" y="0">Energy Sources</tspan><tspan class="line" dy="1.3em" x="0" y="0">48.7</tspan></text></g></g><g class="slice cursor-pointer"><path class="surface" d="M240.6389843056726,256.58600453437964L198.77796861134522,253.1720090687593A84,84 0,0,0 279.7952857882611,343.9564441900252L281.14764289413057,301.9782220950126A42,42 0,0,1 240.6389843056726,256.58600453437964Z" style="pointer-events: none; stroke-width: 1; fill: rgb(77, 187, 194); fill-opacity: 1; stroke: rgb(0, 0, 0); stroke-opacity: 1;"/><g class="slicetext"><text data-notex="1" class="slicetext" text-anchor="middle" x="0" y="0" style="font-family: 'Times New Roman'; font-size: 12px; fill: rgb(0, 0, 0); fill-opacity: 1; white-space: pre;" transform="translate(241.61432394181384,296.48695705132803)scale(0.8447105791861247)rotate(48.25382538253825)"><tspan class="line" dy="0em" x="0" y="0">Energy Consumption</tspan><tspan class="line" dy="1.3em" x="0" y="0">25.78</tspan></text></g></g><g class="slice cursor-pointer"><path class="surface" d="M281.14764289413057,301.9782220950126L279.7952857882611,343.9564441900252A84,84 0,0,0 366.5,259.99999999999994L324.5,260A42,42 0,0,1 281.14764289413057,301.9782220950126Z" style="pointer-events: none; stroke-width: 1; fill: rgb(80, 188, 194); fill-opacity: 1; stroke: rgb(0, 0, 0); stroke-opacity: 1;"/><g class="slicetext"><text data-notex="1" class="slicetext" text-anchor="middle" x="0" y="0" style="font-family: 'Times New Roman'; font-size: 12px; fill: rgb(0, 0, 0); fill-opacity: 1; white-space: pre;" transform="translate(320.86390707388944,299.619729384424)scale(0.8344546125749821)rotate(-44.077407740774106)"><tspan class="line" dy="0em" x="0" y="0">Energy Infrastructure</tspan><tspan class="line" dy="1.3em" x="0" y="0">25.51</tspan></text></g></g><g class="slice cursor-pointer"><path class="surface" d="M366.5,260L408.5,260A126,126 0,0,0 171.50238032391957,200.37174808663096L208.50158688261303,220.24783205775398A84,84 0,0,1 366.5,260Z" style="pointer-events: none; stroke-width: 1; fill: rgb(36, 60, 152); fill-opacity: 1; stroke: rgb(0, 0, 0); stroke-opacity: 1;"/><g class="slicetext"><text data-notex="1" class="slicetext" text-anchor="middle" x="0" y="0" style="font-family: 'Times New Roman'; font-size: 12px; fill: rgb(0, 0, 0); fill-opacity: 1; white-space: pre;" transform="translate(308.2616936194906,156.93552850056886)rotate(14.122412241224083)"><tspan class="line" dy="0em" x="0" y="0">Renewables</tspan><tspan class="line" dy="1.3em" x="0" y="0">42.15</tspan></text></g></g><g class="slice"><path class="surface" d="M208.50158688261303,220.24783205775398L171.50238032391957,200.37174808663096A126,126 0,0,0 156.91695291701785,249.75801360313892L198.77796861134522,253.17200906875928A84,84 0,0,1 208.50158688261303,220.24783205775398Z" style="pointer-events: none; stroke-width: 1; fill: rgb(250, 253, 206); fill-opacity: 1; stroke: rgb(0, 0, 0); stroke-opacity: 1; opacity: 1;"/><g class="slicetext"><text data-notex="1" class="slicetext" text-anchor="middle" x="0" y="0" style="font-family: 'Times New Roman'; font-size: 12px; fill: rgb(0, 0, 0); fill-opacity: 1; white-space: pre;" transform="translate(171.2580236210015,227.27221296849962)scale(0.7014795887575361)rotate(-73.54635463546356)"><tspan class="line" dy="0em" x="0" y="0">Fossil Fuels</tspan><tspan class="line" dy="1.3em" x="0" y="0">6.55</tspan></text></g></g><g class="slice"><path class="surface" d="M198.77796861134522,253.1720090687593L156.91695291701785,249.75801360313898A126,126 0,0,0 278.44292868239165,385.9346662850378L279.7952857882611,343.9564441900252A84,84 0,0,1 198.77796861134522,253.1720090687593Z" style="pointer-events: none; stroke-width: 1; fill: rgb(77, 187, 194); fill-opacity: 1; stroke: rgb(0, 0, 0); stroke-opacity: 1; opacity: 1;"/><g class="slicetext"><text data-notex="1" class="slicetext" text-anchor="middle" x="0" y="0" style="font-family: 'Times New Roman'; font-size: 12px; fill: rgb(0, 0, 0); fill-opacity: 1; white-space: pre;" transform="translate(208.11517126773347,325.93181899459734)rotate(48.25382538253825)"><tspan class="line" dy="0em" x="0" y="0">Industrial</tspan><tspan class="line" dy="1.3em" x="0" y="0">25.78</tspan></text></g></g><g class="slice cursor-pointer"><path class="surface" d="M279.7952857882611,343.9564441900252L278.44292868239165,385.9346662850378A126,126 0,0,0 383.7288314837965,335.02482040248503L349.9858876558643,310.01654693499A84,84 0,0,1 279.7952857882611,343.9564441900252Z" style="pointer-events: none; stroke-width: 1; fill: rgb(203, 235, 180); fill-opacity: 1; stroke: rgb(0, 0, 0); stroke-opacity: 1;"/><g class="slicetext"><text data-notex="1" class="slicetext" text-anchor="middle" x="0" y="0" style="font-family: 'Times New Roman'; font-size: 12px; fill: rgb(0, 0, 0); fill-opacity: 1; white-space: pre;" transform="translate(325.580492994857,349.094133354027)rotate(-25.805580558055908)"><tspan class="line" dy="0em" x="0" y="0">Generation</tspan><tspan class="line" dy="1.3em" x="0" y="0">15.36</tspan></text></g></g><g class="slice cursor-pointer"><path class="surface" d="M349.9858876558643,310.01654693499L383.7288314837965,335.02482040248503A126,126 0,0,0 408.5,259.99999999999994L366.5,259.99999999999994A84,84 0,0,1 349.9858876558643,310.01654693499Z" style="pointer-events: none; stroke-width: 1; fill: rgb(238, 248, 179); fill-opacity: 1; stroke: rgb(0, 0, 0); stroke-opacity: 1;"/><g class="slicetext"><text data-notex="1" class="slicetext" text-anchor="middle" x="0" y="0" style="font-family: 'Times New Roman'; font-size: 12px; fill: rgb(0, 0, 0); fill-opacity: 1; white-space: pre;" transform="translate(381.7088766235138,292.7560904239485)scale(0.9170781452928246)rotate(-71.7281728172818)"><tspan class="line" dy="0em" x="0" y="0">Transmission</tspan><tspan class="line" dy="1.3em" x="0" y="0">10.15</tspan></text></g></g><g class="slice cursor-pointer"><path class="surface" d="M408.5,260L450.5,260A168,168 0,0,0 217.78881241555285,104.96302956581457L233.96660931166463,143.7222721743609A126,126 0,0,1 408.5,260Z" style="pointer-events: none; stroke-width: 1; fill: rgb(36, 152, 193); fill-opacity: 1; stroke: rgb(0, 0, 0); stroke-opacity: 1;"/><g class="slicetext"><text data-notex="1" class="slicetext" text-anchor="middle" x="0" y="0" style="font-family: 'Times New Roman'; font-size: 12px; fill: rgb(0, 0, 0); fill-opacity: 1; white-space: pre;" transform="translate(363.9172020007287,133.85873476658145)"><tspan class="line" dy="0em" x="0" y="0">Solar</tspan><tspan class="line" dy="1.3em" x="0" y="0">31.29</tspan></text></g></g><g class="slice cursor-pointer"><path class="surface" d="M233.96660931166463,143.7222721743609L217.78881241555285,104.96302956581457A168,168 0,0,0 134.50317376522605,180.49566411550796L171.50238032391957,200.37174808663096A126,126 0,0,1 233.96660931166463,143.7222721743609Z" style="pointer-events: none; stroke-width: 1; fill: rgb(234, 247, 177); fill-opacity: 1; stroke: rgb(0, 0, 0); stroke-opacity: 1;"/><g class="slicetext"><text data-notex="1" class="slicetext" text-anchor="middle" x="0" y="0" style="font-family: 'Times New Roman'; font-size: 12px; fill: rgb(0, 0, 0); fill-opacity: 1; white-space: pre;" transform="translate(183.74715148052533,147.306034289105)"><tspan class="line" dy="0em" x="0" y="0">Wind</tspan><tspan class="line" dy="1.3em" x="0" y="0">10.86</tspan></text></g></g><g class="slice"><path class="surface" d="M278.44292868239165,385.9346662850378L277.0905715765222,427.9128883800504A168,168 0,0,0 370.3551314084239,403.197331976572L348.3913485563179,367.397998982429A126,126 0,0,1 278.44292868239165,385.9346662850378Z" style="pointer-events: none; stroke-width: 1; fill: rgb(241, 250, 186); fill-opacity: 1; stroke: rgb(0, 0, 0); stroke-opacity: 1; opacity: 1;"/><g class="slicetext"><text data-notex="1" class="slicetext" text-anchor="middle" x="0" y="0" style="font-family: 'Times New Roman'; font-size: 12px; fill: rgb(0, 0, 0); fill-opacity: 1; white-space: pre;" transform="translate(318.2820028430019,397.0063616681902)rotate(-14.842484248424853)"><tspan class="line" dy="0em" x="0" y="0">Hydropower</tspan><tspan class="line" dy="1.3em" x="0" y="0">9.27</tspan></text></g></g><g class="slice"><path class="surface" d="M348.3913485563179,367.397998982429L370.3551314084239,403.197331976572A168,168 0,0,0 417.4717753117286,360.03309386998006L383.7288314837965,335.02482040248503A126,126 0,0,1 348.3913485563179,367.397998982429Z" style="pointer-events: none; stroke-width: 1; fill: rgb(251, 254, 209); fill-opacity: 1; stroke: rgb(0, 0, 0); stroke-opacity: 1; opacity: 1;"/><g class="slicetext"><text data-notex="1" class="slicetext" text-anchor="middle" x="0" y="0" style="font-family: 'Times New Roman'; font-size: 12px; fill: rgb(0, 0, 0); fill-opacity: 1; white-space: pre;" transform="translate(384.90345895601126,371.95750847784234)scale(0.7300281952516089)rotate(-42.49324932493255)"><tspan class="line" dy="0em" x="0" y="0">Thermal Plants</tspan><tspan class="line" dy="1.3em" x="0" y="0">6.09</tspan></text></g></g><g class="slice"><path class="surface" d="M383.7288314837965,335.02482040248503L417.4717753117286,360.03309386998006A168,168 0,0,0 450.5,259.9999999999999L408.5,259.99999999999994A126,126 0,0,1 383.7288314837965,335.02482040248503Z" style="pointer-events: none; stroke-width: 1; fill: rgb(238, 248, 179); fill-opacity: 1; stroke: rgb(0, 0, 0); stroke-opacity: 1; opacity: 1;"/><g class="slicetext"><text data-notex="1" class="slicetext" text-anchor="middle" x="0" y="0" style="font-family: 'Times New Roman'; font-size: 12px; fill: rgb(0, 0, 0); fill-opacity: 1; white-space: pre;" transform="translate(419.8505468393047,305.5073139456679)scale(0.9137647732253249)rotate(-71.7281728172818)"><tspan class="line" dy="0em" x="0" y="0">High Voltage Lines</tspan><tspan class="line" dy="1.3em" x="0" y="0">10.15</tspan></text></g></g><g class="slice"><path class="surface" d="M450.5,260L492.5,260A210,210 0,0,0 376.757654699655,72.34208108763272L357.906123759724,109.87366487010618A168,168 0,0,1 450.5,260Z" style="pointer-events: none; stroke-width: 1; fill: rgb(177, 225, 182); fill-opacity: 1; stroke: rgb(0, 0, 0); stroke-opacity: 1; opacity: 1;"/><g class="slicetext"><text data-notex="1" class="slicetext" text-anchor="middle" x="0" y="0" style="font-family: 'Times New Roman'; font-size: 12px; fill: rgb(0, 0, 0); fill-opacity: 1; white-space: pre;" transform="translate(445.0478775564221,159.7448512643943)rotate(58.33483348334835)"><tspan class="line" dy="0em" x="0" y="0">Photovoltaic</tspan><tspan class="line" dy="1.3em" x="0" y="0">17.59</tspan></text></g></g><g class="slice"><path class="surface" d="M357.906123759724,109.87366487010618L376.757654699655,72.34208108763272A210,210 0,0,0 282.0711300138744,50.000437927754234L282.1569040110995,92.00035034220338A168,168 0,0,1 357.906123759724,109.87366487010618Z" style="pointer-events: none; stroke-width: 1; fill: rgb(247, 252, 199); fill-opacity: 1; stroke: rgb(0, 0, 0); stroke-opacity: 1; opacity: 1;"/><g class="slicetext"><text data-notex="1" class="slicetext" text-anchor="middle" x="0" y="0" style="font-family: 'Times New Roman'; font-size: 12px; fill: rgb(0, 0, 0); fill-opacity: 1; white-space: pre;" transform="translate(326.3901917256962,72.55935987170476)rotate(13.276327632763241)"><tspan class="line" dy="0em" x="0" y="0">Solar Thermal</tspan><tspan class="line" dy="1.3em" x="0" y="0">7.44</tspan></text></g></g><g class="slice"><path class="surface" d="M282.1569040110995,92.00035034220338L282.0711300138744,50.000437927754234A210,210 0,0,0 201.61101551944103,66.20378695726819L217.78881241555285,104.96302956581457A168,168 0,0,1 282.1569040110995,92.00035034220338Z" style="pointer-events: none; stroke-width: 1; fill: rgb(251, 253, 208); fill-opacity: 1; stroke: rgb(0, 0, 0); stroke-opacity: 1; opacity: 1;"/><g class="slicetext"><text data-notex="1" class="slicetext" text-anchor="middle" x="0" y="0" style="font-family: 'Times New Roman'; font-size: 12px; fill: rgb(0, 0, 0); fill-opacity: 1; white-space: pre;" transform="translate(243.3704679432046,68.19827212989435)scale(0.9877811480511343)rotate(-11.386138613861363)"><tspan class="line" dy="0em" x="0" y="0">Floating Solar</tspan><tspan class="line" dy="1.3em" x="0" y="0">6.26</tspan></text></g></g><g class="slice"><path class="surface" d="M217.78881241555285,104.96302956581457L201.61101551944103,66.20378695726819A210,210 0,0,0 137.3686684883993,108.22089533249363L166.39493479071945,138.5767162659949A168,168 0,0,1 217.78881241555285,104.96302956581457Z" style="pointer-events: none; stroke-width: 1; fill: rgb(252, 254, 211); fill-opacity: 1; stroke: rgb(0, 0, 0); stroke-opacity: 1; opacity: 1;"/><g class="slicetext"><text data-notex="1" class="slicetext" text-anchor="middle" x="0" y="0" style="font-family: 'Times New Roman'; font-size: 12px; fill: rgb(0, 0, 0); fill-opacity: 1; white-space: pre;" transform="translate(174.79378464350071,95.3218407477994)scale(0.9262981946250718)rotate(-33.18631863186317)"><tspan class="line" dy="0em" x="0" y="0">Onshore Wind</tspan><tspan class="line" dy="1.3em" x="0" y="0">5.85</tspan></text></g></g><g class="slice"><path class="surface" d="M166.39493479071945,138.5767162659949L137.3686684883993,108.22089533249363A210,210 0,0,0 97.5039672065326,160.61958014438494L134.50317376522605,180.49566411550796A168,168 0,0,1 166.39493479071945,138.5767162659949Z" style="pointer-events: none; stroke-width: 1; fill: rgb(255, 255, 217); fill-opacity: 1; stroke: rgb(0, 0, 0); stroke-opacity: 1; opacity: 1;"/><g class="slicetext"><text data-notex="1" class="slicetext" text-anchor="middle" x="0" y="0" style="font-family: 'Times New Roman'; font-size: 12px; fill: rgb(0, 0, 0); fill-opacity: 1; white-space: pre;" transform="translate(124.18469722735074,139.55437667878854)scale(0.7915352679334072)rotate(-52.73627362736272)"><tspan class="line" dy="0em" x="0" y="0">Offshore Wind</tspan><tspan class="line" dy="1.3em" x="0" y="0">5.01</tspan></text></g></g></g></g><g class="glimages"/><defs id="topdefs-85a287"><g class="clips"/></defs><g class="layer-above"><g class="imagelayer"/><g class="shapelayer"/></g><g class="infolayer"><g class="cb83b6a6 colorbar" transform="translate(10,50)"><rect class="cbbg" x="571.5" y="63" width="48.015625" height="295" style="fill: rgb(0, 0, 0); fill-opacity: 0; stroke: rgb(68, 68, 68); stroke-opacity: 1; stroke-width: 0;"/><g class="cbfills" transform="translate(0,93)"><rect class="cbfill gradient_filled" style="fill: url('#g85a287-cb83b6a6');" x="582" y="0" width="15" height="254"/></g><g class="cblines" transform="translate(0,93)"/><g class="cbaxis crisp" transform="translate(0,-50)"><g class="ycb83b6a6tick"><text text-anchor="start" x="600.4" y="4.199999999999999" transform="translate(0,367.99000000000007)" style="font-family: 'Times New Roman'; font-size: 12px; fill: rgb(42, 63, 95); fill-opacity: 1; white-space: pre; opacity: 1;">10</text></g><g class="ycb83b6a6tick"><text text-anchor="start" x="600.4" y="4.199999999999999" style="font-family: 'Times New Roman'; font-size: 12px; fill: rgb(42, 63, 95); fill-opacity: 1; white-space: pre; opacity: 1;" transform="translate(0,309.85)">20</text></g><g class="ycb83b6a6tick"><text text-anchor="start" x="600.4" y="4.199999999999999" style="font-family: 'Times New Roman'; font-size: 12px; fill: rgb(42, 63, 95); fill-opacity: 1; white-space: pre; opacity: 1;" transform="translate(0,251.72000000000006)">30</text></g><g class="ycb83b6a6tick"><text text-anchor="start" x="600.4" y="4.199999999999999" style="font-family: 'Times New Roman'; font-size: 12px; fill: rgb(42, 63, 95); fill-opacity: 1; white-space: pre; opacity: 1;" transform="translate(0,193.58000000000004)">40</text></g></g><g class="cbtitleunshift" transform="translate(-10,-50)"><g class="cbtitle" transform="translate(-0.5,-0.5)"><text class="ycb83b6a6title" x="592.25" y="135.75" text-anchor="start" style="opacity: 1; font-family: 'Times New Roman'; font-size: 13px; fill: rgb(42, 63, 95); fill-opacity: 1; white-space: pre;">%</text></g></g><rect class="cboutline" x="582" y="93" width="15" height="254" style="stroke: rgb(68, 68, 68); stroke-opacity: 1; fill: none; stroke-width: 1;"/></g><g class="g-gtitle"><text class="gtitle" x="320" y="25" text-anchor="middle" dy="0em" style="opacity: 1; font-family: 'Times New Roman'; font-size: 16px; fill: rgb(42, 63, 95); fill-opacity: 1; white-space: pre;">Energy Distribution by Category (2020) (%)</text></g></g></svg>