<svg class="main-svg" xmlns="http://www.w3.org/2000/svg" xmlns:xlink="http://www.w3.org/1999/xlink" width="1920" height="1440" style="" viewBox="0 0 640 480"><rect x="0" y="0" width="640" height="480" style="fill: rgb(255, 255, 255); fill-opacity: 1;"/><defs id="defs-2cf334"><g class="clips"/><g class="gradients"><linearGradient x1="0" y1="1" x2="0" y2="0" gradientUnits="objectBoundingBox" id="g2cf334-cbbb9517"><stop offset="0%" stop-color="rgb(247, 251, 255)" stop-opacity="1"/><stop offset="12.5%" stop-color="rgb(222, 235, 247)" stop-opacity="1"/><stop offset="25%" stop-color="rgb(198, 219, 239)" stop-opacity="1"/><stop offset="37.5%" stop-color="rgb(158, 202, 225)" stop-opacity="1"/><stop offset="50%" stop-color="rgb(107, 174, 214)" stop-opacity="1"/><stop offset="62.5%" stop-color="rgb(66, 146, 198)" stop-opacity="1"/><stop offset="75%" stop-color="rgb(33, 113, 181)" stop-opacity="1"/><stop offset="87.5%" stop-color="rgb(8, 81, 156)" stop-opacity="1"/><stop offset="100%" stop-color="rgb(8, 48, 107)" stop-opacity="1"/></linearGradient></g><g class="patterns"/></defs><g class="bglayer"/><g class="layer-below"><g class="imagelayer"/><g class="shapelayer"/></g><g class="cartesianlayer"/><g class="polarlayer"/><g class="smithlayer"/><g class="ternarylayer"/><g class="geolayer"/><g class="funnelarealayer"/><g class="pielayer"/><g class="iciclelayer"/><g class="treemaplayer"/><g class="sunburstlayer"><g class="trace sunburst" stroke-linejoin="round" style="opacity: 1;"><g class="slice"><path class="surface" d="M282.5,260A0,0 0,1,0 282.5,260A0,0 0,1,0 282.5,260ZM324.5,260A42,42 0,1,1 240.5,260A42,42 0,1,1 324.5,260Z" style="pointer-events: none; stroke-width: 1; fill: rgb(255, 255, 255); fill-opacity: 1; stroke: rgb(0, 0, 0); stroke-opacity: 1;"/><g class="slicetext"><text data-notex="1" class="slicetext" text-anchor="middle" x="0" y="0" style="font-family: 'Times New Roman'; font-size: 12px; fill: rgb(0, 0, 0); fill-opacity: 1; white-space: pre;" transform="translate(282.5,264)">100</text></g></g><g class="slice cursor-pointer"><path class="surface" d="M324.5,260L366.5,260A84,84 0,0,0 233.33977666185714,191.88779521008064L257.9198883309286,225.94389760504032A42,42 0,0,1 324.5,260Z" style="pointer-events: none; stroke-width: 1; fill: rgb(8, 48, 107); fill-opacity: 1; stroke: rgb(0, 0, 0); stroke-opacity: 1;"/><g class="slicetext"><text data-notex="1" class="slicetext" text-anchor="middle" x="0" y="0" style="font-family: 'Times New Roman'; font-size: 12px; fill: rgb(0, 0, 0); fill-opacity: 1; white-space: pre;" transform="translate(309.6920458329396,206.83920587649)scale(0.8773297843688436)rotate(27.090000000000032)"><tspan class="line" dy="0em" x="0" y="0">Energy Infrastructure</tspan><tspan class="line" dy="1.3em" x="0" y="0">34.95</tspan></text></g></g><g class="slice cursor-pointer"><path class="surface" d="M257.9198883309286,225.94389760504032L233.33977666185714,191.88779521008064A84,84 0,0,0 251.47941712206665,338.0623048462782L266.9897085610333,299.0311524231391A42,42 0,0,1 257.9198883309286,225.94389760504032Z" style="pointer-events: none; stroke-width: 1; fill: rgb(8, 56, 119); fill-opacity: 1; stroke: rgb(0, 0, 0); stroke-opacity: 1;"/><g class="slicetext"><text data-notex="1" class="slicetext" text-anchor="middle" x="0" y="0" style="font-family: 'Times New Roman'; font-size: 12px; fill: rgb(0, 0, 0); fill-opacity: 1; white-space: pre;" transform="translate(229.8403893817607,266.5348356958192)scale(0.8800076861931426)rotate(82.92600000000004)"><tspan class="line" dy="0em" x="0" y="0">Energy Consumption</tspan><tspan class="line" dy="1.3em" x="0" y="0">34.03</tspan></text></g></g><g class="slice cursor-pointer"><path class="surface" d="M266.9897085610333,299.0311524231391L251.47941712206665,338.0623048462782A84,84 0,0,0 366.5,260L324.5,260A42,42 0,0,1 266.9897085610333,299.0311524231391Z" style="pointer-events: none; stroke-width: 1; fill: rgb(10, 83, 158); fill-opacity: 1; stroke: rgb(0, 0, 0); stroke-opacity: 1;"/><g class="slicetext"><text data-notex="1" class="slicetext" text-anchor="middle" x="0" y="0" style="font-family: 'Times New Roman'; font-size: 12px; fill: rgb(0, 0, 0); fill-opacity: 1; white-space: pre;" transform="translate(312.91250920271955,305.10333995665616)rotate(-34.16399999999999)"><tspan class="line" dy="0em" x="0" y="0">Energy Sources</tspan><tspan class="line" dy="1.3em" x="0" y="0">31.02</tspan></text></g></g><g class="slice cursor-pointer"><path class="surface" d="M366.5,260L408.5,260A126,126 0,0,0 308.9033378309507,136.79746856746533L300.1022252206338,177.8649790449769A84,84 0,0,1 366.5,260Z" style="pointer-events: none; stroke-width: 1; fill: rgb(92, 164, 208); fill-opacity: 1; stroke: rgb(0, 0, 0); stroke-opacity: 1;"/><g class="slicetext"><text data-notex="1" class="slicetext" text-anchor="middle" x="0" y="0" style="font-family: 'Times New Roman'; font-size: 12px; fill: rgb(0, 0, 0); fill-opacity: 1; white-space: pre;" transform="translate(365.37851980082615,193.00118234832013)rotate(51.048)"><tspan class="line" dy="0em" x="0" y="0">Generation</tspan><tspan class="line" dy="1.3em" x="0" y="0">21.64</tspan></text></g></g><g class="slice cursor-pointer"><path class="surface" d="M300.1022252206338,177.8649790449769L308.9033378309507,136.79746856746533A126,126 0,0,0 208.75966499278573,157.83169281512096L233.33977666185714,191.88779521008064A84,84 0,0,1 300.1022252206338,177.8649790449769Z" style="pointer-events: none; stroke-width: 1; fill: rgb(195, 218, 238); fill-opacity: 1; stroke: rgb(0, 0, 0); stroke-opacity: 1;"/><g class="slicetext"><text data-notex="1" class="slicetext" text-anchor="middle" x="0" y="0" style="font-family: 'Times New Roman'; font-size: 12px; fill: rgb(0, 0, 0); fill-opacity: 1; white-space: pre;" transform="translate(260.5744351667828,155.6126660247808)rotate(-11.861999999999966)"><tspan class="line" dy="0em" x="0" y="0">Transmission</tspan><tspan class="line" dy="1.3em" x="0" y="0">13.31</tspan></text></g></g><g class="slice cursor-pointer"><path class="surface" d="M233.33977666185714,191.88779521008064L208.75966499278573,157.83169281512096A126,126 0,0,0 197.99361735637325,353.4594633650811L226.1624115709155,322.3063089100541A84,84 0,0,1 233.33977666185714,191.88779521008064Z" style="pointer-events: none; stroke-width: 1; fill: rgb(28, 107, 176); fill-opacity: 1; stroke: rgb(0, 0, 0); stroke-opacity: 1;"/><g class="slicetext"><text data-notex="1" class="slicetext" text-anchor="middle" x="0" y="0" style="font-family: 'Times New Roman'; font-size: 12px; fill: rgb(0, 0, 0); fill-opacity: 1; white-space: pre;" transform="translate(176.16081831007364,254.4842465684744)rotate(-86.85000000000002)"><tspan class="line" dy="0em" x="0" y="0">Residential</tspan><tspan class="line" dy="1.3em" x="0" y="0">28.35</tspan></text></g></g><g class="slice"><path class="surface" d="M226.1624115709155,322.3063089100541L197.99361735637325,353.4594633650811A126,126 0,0,0 235.96912568309997,377.0934572694173L251.47941712206665,338.0623048462782A84,84 0,0,1 226.1624115709155,322.3063089100541Z" style="pointer-events: none; stroke-width: 1; fill: rgb(247, 251, 255); fill-opacity: 1; stroke: rgb(0, 0, 0); stroke-opacity: 1; opacity: 1;"/><g class="slicetext"><text data-notex="1" class="slicetext" text-anchor="middle" x="0" y="0" style="font-family: 'Times New Roman'; font-size: 12px; fill: rgb(0, 0, 0); fill-opacity: 1; white-space: pre;" transform="translate(224.32679235063137,347.40255244611376)scale(0.8431371618863144)rotate(-58.10400000000004)"><tspan class="line" dy="0em" x="0" y="0">Industrial</tspan><tspan class="line" dy="1.3em" x="0" y="0">5.68</tspan></text></g></g><g class="slice"><path class="surface" d="M251.47941712206665,338.0623048462782L235.96912568309997,377.0934572694173A126,126 0,0,0 408.5,260.00000000000006L366.5,260A84,84 0,0,1 251.47941712206665,338.0623048462782Z" style="pointer-events: none; stroke-width: 1; fill: rgb(10, 83, 158); fill-opacity: 1; stroke: rgb(0, 0, 0); stroke-opacity: 1; opacity: 1;"/><g class="slicetext"><text data-notex="1" class="slicetext" text-anchor="middle" x="0" y="0" style="font-family: 'Times New Roman'; font-size: 12px; fill: rgb(0, 0, 0); fill-opacity: 1; white-space: pre;" transform="translate(337.7537557098119,341.7194847766244)rotate(-34.16399999999999)"><tspan class="line" dy="0em" x="0" y="0">Fossil Fuels</tspan><tspan class="line" dy="1.3em" x="0" y="0">31.02</tspan></text></g></g><g class="slice cursor-pointer"><path class="surface" d="M408.5,260L450.5,260A168,168 0,0,0 384.79983263207305,126.73806153499851L359.2248744740548,160.0535461512489A126,126 0,0,1 408.5,260Z" style="pointer-events: none; stroke-width: 1; fill: rgb(181, 212, 233); fill-opacity: 1; stroke: rgb(0, 0, 0); stroke-opacity: 1;"/><g class="slicetext"><text data-notex="1" class="slicetext" text-anchor="middle" x="0" y="0" style="font-family: 'Times New Roman'; font-size: 12px; fill: rgb(0, 0, 0); fill-opacity: 1; white-space: pre;" transform="translate(415.05655582048314,194.46467918539412)rotate(63.75599999999997)"><tspan class="line" dy="0em" x="0" y="0">Thermal Plants</tspan><tspan class="line" dy="1.3em" x="0" y="0">14.58</tspan></text></g></g><g class="slice cursor-pointer"><path class="surface" d="M359.2248744740548,160.0535461512489L384.79983263207305,126.73806153499851A168,168 0,0,0 317.7044504412676,95.72995808995381L308.9033378309507,136.79746856746533A126,126 0,0,1 359.2248744740548,160.0535461512489Z" style="pointer-events: none; stroke-width: 1; fill: rgb(238, 245, 252); fill-opacity: 1; stroke: rgb(0, 0, 0); stroke-opacity: 1;"/><g class="slicetext"><text data-notex="1" class="slicetext" text-anchor="middle" x="0" y="0" style="font-family: 'Times New Roman'; font-size: 12px; fill: rgb(0, 0, 0); fill-opacity: 1; white-space: pre;" transform="translate(346.72980161055915,119.86022235382397)scale(0.9576692308170179)rotate(24.803999999999974)"><tspan class="line" dy="0em" x="0" y="0">Hydropower</tspan><tspan class="line" dy="1.3em" x="0" y="0">7.06</tspan></text></g></g><g class="slice"><path class="surface" d="M308.9033378309507,136.79746856746533L317.7044504412676,95.72995808995381A168,168 0,0,0 184.1795533237143,123.77559042016128L208.75966499278573,157.83169281512096A126,126 0,0,1 308.9033378309507,136.79746856746533Z" style="pointer-events: none; stroke-width: 1; fill: rgb(195, 218, 238); fill-opacity: 1; stroke: rgb(0, 0, 0); stroke-opacity: 1; opacity: 1;"/><g class="slicetext"><text data-notex="1" class="slicetext" text-anchor="middle" x="0" y="0" style="font-family: 'Times New Roman'; font-size: 12px; fill: rgb(0, 0, 0); fill-opacity: 1; white-space: pre;" transform="translate(251.7667068089583,114.47732726605386)rotate(-11.861999999999966)"><tspan class="line" dy="0em" x="0" y="0">Smart Grids</tspan><tspan class="line" dy="1.3em" x="0" y="0">13.31</tspan></text></g></g><g class="slice cursor-pointer"><path class="surface" d="M208.75966499278573,157.83169281512096L184.1795533237143,123.77559042016128A168,168 0,0,0 127.08702925181103,323.8028880476625L165.94027193885827,307.8521660357469A126,126 0,0,1 208.75966499278573,157.83169281512096Z" style="pointer-events: none; stroke-width: 1; fill: rgb(97, 167, 210); fill-opacity: 1; stroke: rgb(0, 0, 0); stroke-opacity: 1;"/><g class="slicetext"><text data-notex="1" class="slicetext" text-anchor="middle" x="0" y="0" style="font-family: 'Times New Roman'; font-size: 12px; fill: rgb(0, 0, 0); fill-opacity: 1; white-space: pre;" transform="translate(138.42730268373455,218.87824293386836)rotate(-74.07000000000005)"><tspan class="line" dy="0em" x="0" y="0">Heating</tspan><tspan class="line" dy="1.3em" x="0" y="0">21.25</tspan></text></g></g><g class="slice"><path class="surface" d="M165.94027193885827,307.8521660357469L127.08702925181103,323.8028880476625A168,168 0,0,0 169.82482314183096,384.6126178201081L197.9936173563732,353.4594633650811A126,126 0,0,1 165.94027193885827,307.8521660357469Z" style="pointer-events: none; stroke-width: 1; fill: rgb(237, 245, 252); fill-opacity: 1; stroke: rgb(0, 0, 0); stroke-opacity: 1; opacity: 1;"/><g class="slicetext"><text data-notex="1" class="slicetext" text-anchor="middle" x="0" y="0" style="font-family: 'Times New Roman'; font-size: 12px; fill: rgb(0, 0, 0); fill-opacity: 1; white-space: pre;" transform="translate(163.66963569090186,343.3148501162859)rotate(54.89999999999998)"><tspan class="line" dy="0em" x="0" y="0">Appliances</tspan><tspan class="line" dy="1.3em" x="0" y="0">7.1</tspan></text></g></g><g class="slice"><path class="surface" d="M450.5,260L492.5,260A210,210 0,0,0 461.41640905214933,150.0503816655829L425.6331272417194,172.04030533246635A168,168 0,0,1 450.5,260Z" style="pointer-events: none; stroke-width: 1; fill: rgb(226, 237, 248); fill-opacity: 1; stroke: rgb(0, 0, 0); stroke-opacity: 1; opacity: 1;"/><g class="slicetext"><text data-notex="1" class="slicetext" text-anchor="middle" x="0" y="0" style="font-family: 'Times New Roman'; font-size: 12px; fill: rgb(0, 0, 0); fill-opacity: 1; white-space: pre;" transform="translate(465.8705499438605,207.98926215170368)rotate(74.21399999999994)"><tspan class="line" dy="0em" x="0" y="0">Steam Boilers</tspan><tspan class="line" dy="1.3em" x="0" y="0">8.77</tspan></text></g></g><g class="slice"><path class="surface" d="M425.6331272417194,172.04030533246635L461.41640905214933,150.0503816655829A210,210 0,0,0 410.3747907900913,93.42257691874815L384.79983263207305,126.73806153499851A168,168 0,0,1 425.6331272417194,172.04030533246635Z" style="pointer-events: none; stroke-width: 1; fill: rgb(246, 250, 255); fill-opacity: 1; stroke: rgb(0, 0, 0); stroke-opacity: 1; opacity: 1;"/><g class="slicetext"><text data-notex="1" class="slicetext" text-anchor="middle" x="0" y="0" style="font-family: 'Times New Roman'; font-size: 12px; fill: rgb(0, 0, 0); fill-opacity: 1; white-space: pre;" transform="translate(428.0810418275788,128.56154292831008)scale(0.9897519013951646)rotate(47.97000000000003)"><tspan class="line" dy="0em" x="0" y="0">Gas Turbines</tspan><tspan class="line" dy="1.3em" x="0" y="0">5.81</tspan></text></g></g><g class="slice"><path class="surface" d="M384.79983263207305,126.73806153499851L410.3747907900913,93.42257691874815A210,210 0,0,0 326.5055630515845,54.662447612442264L317.7044504412676,95.72995808995381A168,168 0,0,1 384.79983263207305,126.73806153499851Z" style="pointer-events: none; stroke-width: 1; fill: rgb(238, 245, 252); fill-opacity: 1; stroke: rgb(0, 0, 0); stroke-opacity: 1; opacity: 1;"/><g class="slicetext"><text data-notex="1" class="slicetext" text-anchor="middle" x="0" y="0" style="font-family: 'Times New Roman'; font-size: 12px; fill: rgb(0, 0, 0); fill-opacity: 1; white-space: pre;" transform="translate(361.624358730768,84.63090401522044)"><tspan class="line" dy="0em" x="0" y="0">Dams</tspan><tspan class="line" dy="1.3em" x="0" y="0">7.06</tspan></text></g></g><g class="slice"><path class="surface" d="M184.1795533237143,123.77559042016128L159.59944165464287,89.71948802520157A210,210 0,0,0 79.73547863868592,205.3506735895381L120.28838291094874,216.28053887163048A168,168 0,0,1 184.1795533237143,123.77559042016128Z" style="pointer-events: none; stroke-width: 1; fill: rgb(212, 228, 244); fill-opacity: 1; stroke: rgb(0, 0, 0); stroke-opacity: 1; opacity: 1;"/><g class="slicetext"><text data-notex="1" class="slicetext" text-anchor="middle" x="0" y="0" style="font-family: 'Times New Roman'; font-size: 12px; fill: rgb(0, 0, 0); fill-opacity: 1; white-space: pre;" transform="translate(126.11431252407215,151.98778253593733)rotate(-55.36799999999994)"><tspan class="line" dy="0em" x="0" y="0">Electric Heating</tspan><tspan class="line" dy="1.3em" x="0" y="0">10.86</tspan></text></g></g><g class="slice"><path class="surface" d="M120.28838291094874,216.28053887163048L79.73547863868592,205.3506735895381A210,210 0,0,0 88.23378656476379,339.75361005957814L127.08702925181103,323.8028880476625A168,168 0,0,1 120.28838291094874,216.28053887163048Z" style="pointer-events: none; stroke-width: 1; fill: rgb(215, 230, 245); fill-opacity: 1; stroke: rgb(0, 0, 0); stroke-opacity: 1; opacity: 1;"/><g class="slicetext"><text data-notex="1" class="slicetext" text-anchor="middle" x="0" y="0" style="font-family: 'Times New Roman'; font-size: 12px; fill: rgb(0, 0, 0); fill-opacity: 1; white-space: pre;" transform="translate(99.44452263204671,271.574611798566)rotate(86.38200000000006)"><tspan class="line" dy="0em" x="0" y="0">Gas Heating</tspan><tspan class="line" dy="1.3em" x="0" y="0">10.39</tspan></text></g></g></g></g><g class="glimages"/><defs id="topdefs-2cf334"><g class="clips"/></defs><g class="layer-above"><g class="imagelayer"/><g class="shapelayer"/></g><g class="infolayer"><g class="cbbb9517 colorbar" transform="translate(10,50)"><rect class="cbbg" x="571.5" y="63" width="48.015625" height="295" style="fill: rgb(0, 0, 0); fill-opacity: 0; stroke: rgb(68, 68, 68); stroke-opacity: 1; stroke-width: 0;"/><g class="cbfills" transform="translate(0,93)"><rect class="cbfill gradient_filled" style="fill: url('#g2cf334-cbbb9517');" x="582" y="0" width="15" height="254"/></g><g class="cblines" transform="translate(0,93)"/><g class="cbaxis crisp" transform="translate(0,-50)"><g class="ycbbb9517tick"><text text-anchor="start" x="600.4" y="4.199999999999999" transform="translate(0,359.51000000000005)" style="font-family: 'Times New Roman'; font-size: 12px; fill: rgb(42, 63, 95); fill-opacity: 1; white-space: pre; opacity: 1;">10</text></g><g class="ycbbb9517tick"><text text-anchor="start" x="600.4" y="4.199999999999999" style="font-family: 'Times New Roman'; font-size: 12px; fill: rgb(42, 63, 95); fill-opacity: 1; white-space: pre; opacity: 1;" transform="translate(0,316.12000000000006)">15</text></g><g class="ycbbb9517tick"><text text-anchor="start" x="600.4" y="4.199999999999999" style="font-family: 'Times New Roman'; font-size: 12px; fill: rgb(42, 63, 95); fill-opacity: 1; white-space: pre; opacity: 1;" transform="translate(0,272.73)">20</text></g><g class="ycbbb9517tick"><text text-anchor="start" x="600.4" y="4.199999999999999" style="font-family: 'Times New Roman'; font-size: 12px; fill: rgb(42, 63, 95); fill-opacity: 1; white-space: pre; opacity: 1;" transform="translate(0,229.34000000000006)">25</text></g><g class="ycbbb9517tick"><text text-anchor="start" x="600.4" y="4.199999999999999" style="font-family: 'Times New Roman'; font-size: 12px; fill: rgb(42, 63, 95); fill-opacity: 1; white-space: pre; opacity: 1;" transform="translate(0,185.96000000000006)">30</text></g></g><g class="cbtitleunshift" transform="translate(-10,-50)"><g class="cbtitle" transform="translate(-0.5,-0.5)"><text class="ycbbb9517title" x="592.25" y="135.75" text-anchor="start" style="opacity: 1; font-family: 'Times New Roman'; font-size: 13px; fill: rgb(42, 63, 95); fill-opacity: 1; white-space: pre;">%</text></g></g><rect class="cboutline" x="582" y="93" width="15" height="254" style="stroke: rgb(68, 68, 68); stroke-opacity: 1; fill: none; stroke-width: 1;"/></g><g class="g-gtitle"><text class="gtitle" x="320" y="25" text-anchor="middle" dy="0em" style="opacity: 1; font-family: 'Times New Roman'; font-size: 16px; fill: rgb(42, 63, 95); fill-opacity: 1; white-space: pre;">Energy Distribution by Category (2020) (%)</text></g></g></svg>