<svg class="main-svg" xmlns="http://www.w3.org/2000/svg" xmlns:xlink="http://www.w3.org/1999/xlink" width="1920" height="1440" style="" viewBox="0 0 640 480"><rect x="0" y="0" width="640" height="480" style="fill: rgb(255, 255, 255); fill-opacity: 1;"/><defs id="defs-aca76e"><g class="clips"/><g class="gradients"><linearGradient x1="0" y1="1" x2="0" y2="0" gradientUnits="objectBoundingBox" id="gaca76e-cb3f137b"><stop offset="0%" stop-color="rgb(255, 245, 235)" stop-opacity="1"/><stop offset="12.5%" stop-color="rgb(254, 230, 206)" stop-opacity="1"/><stop offset="25%" stop-color="rgb(253, 208, 162)" stop-opacity="1"/><stop offset="37.5%" stop-color="rgb(253, 174, 107)" stop-opacity="1"/><stop offset="50%" stop-color="rgb(253, 141, 60)" stop-opacity="1"/><stop offset="62.5%" stop-color="rgb(241, 105, 19)" stop-opacity="1"/><stop offset="75%" stop-color="rgb(217, 72, 1)" stop-opacity="1"/><stop offset="87.5%" stop-color="rgb(166, 54, 3)" stop-opacity="1"/><stop offset="100%" stop-color="rgb(127, 39, 4)" stop-opacity="1"/></linearGradient></g><g class="patterns"/></defs><g class="bglayer"/><g class="layer-below"><g class="imagelayer"/><g class="shapelayer"/></g><g class="cartesianlayer"/><g class="polarlayer"/><g class="smithlayer"/><g class="ternarylayer"/><g class="geolayer"/><g class="funnelarealayer"/><g class="pielayer"/><g class="iciclelayer"/><g class="treemaplayer"/><g class="sunburstlayer"><g class="trace sunburst" stroke-linejoin="round" style="opacity: 1;"><g class="slice"><path class="surface" d="M282.5,260A0,0 0,1,0 282.5,260A0,0 0,1,0 282.5,260ZM324.5,260A42,42 0,1,1 240.5,260A42,42 0,1,1 324.5,260Z" style="pointer-events: none; stroke-width: 1; fill: rgb(255, 255, 255); fill-opacity: 1; stroke: rgb(0, 0, 0); stroke-opacity: 1;"/><g class="slicetext"><text data-notex="1" class="slicetext" text-anchor="middle" x="0" y="0" style="font-family: 'Times New Roman'; font-size: 12px; fill: rgb(0, 0, 0); fill-opacity: 1; white-space: pre;" transform="translate(282.5,264)">100</text></g></g><g class="slice cursor-pointer"><path class="surface" d="M324.5,260L366.5,260A84,84 0,0,0 222.10397981185753,201.61917484795643L252.30198990592876,230.8095874239782A42,42 0,0,1 324.5,260Z" style="pointer-events: none; stroke-width: 1; fill: rgb(127, 39, 4); fill-opacity: 1; stroke: rgb(0, 0, 0); stroke-opacity: 1;"/><g class="slicetext"><text data-notex="1" class="slicetext" text-anchor="middle" x="0" y="0" style="font-family: 'Times New Roman'; font-size: 12px; fill: rgb(0, 0, 0); fill-opacity: 1; white-space: pre;" transform="translate(304.8818932313346,204.6418186371333)scale(0.8773297843688436)rotate(22.01400000000001)"><tspan class="line" dy="0em" x="0" y="0">Energy Infrastructure</tspan><tspan class="line" dy="1.3em" x="0" y="0">37.77</tspan></text></g></g><g class="slice cursor-pointer"><path class="surface" d="M252.30198990592876,230.8095874239782L222.10397981185753,201.61917484795643A84,84 0,0,0 261.09925904259586,341.22812497204455L271.79962952129796,300.61406248602225A42,42 0,0,1 252.30198990592876,230.8095874239782Z" style="pointer-events: none; stroke-width: 1; fill: rgb(173, 56, 3); fill-opacity: 1; stroke: rgb(0, 0, 0); stroke-opacity: 1;"/><g class="slicetext"><text data-notex="1" class="slicetext" text-anchor="middle" x="0" y="0" style="font-family: 'Times New Roman'; font-size: 12px; fill: rgb(0, 0, 0); fill-opacity: 1; white-space: pre;" transform="translate(230.06272388690857,274.47632774879776)rotate(74.394)"><tspan class="line" dy="0em" x="0" y="0">Energy Sources</tspan><tspan class="line" dy="1.3em" x="0" y="0">33.13</tspan></text></g></g><g class="slice cursor-pointer"><path class="surface" d="M271.79962952129796,300.61406248602225L261.09925904259586,341.22812497204455A84,84 0,0,0 366.5,260L324.5,260A42,42 0,0,1 271.79962952129796,300.61406248602225Z" style="pointer-events: none; stroke-width: 1; fill: rgb(220, 76, 3); fill-opacity: 1; stroke: rgb(0, 0, 0); stroke-opacity: 1;"/><g class="slicetext"><text data-notex="1" class="slicetext" text-anchor="middle" x="0" y="0" style="font-family: 'Times New Roman'; font-size: 12px; fill: rgb(0, 0, 0); fill-opacity: 1; white-space: pre;" transform="translate(314.8911321525326,302.0303845558556)scale(0.8800076861931426)rotate(-37.620000000000005)"><tspan class="line" dy="0em" x="0" y="0">Energy Consumption</tspan><tspan class="line" dy="1.3em" x="0" y="0">29.1</tspan></text></g></g><g class="slice"><path class="surface" d="M366.5,260L408.5,260A126,126 0,0,0 191.90596971778626,172.42876227193463L222.10397981185753,201.61917484795643A84,84 0,0,1 366.5,260Z" style="pointer-events: none; stroke-width: 1; fill: rgb(127, 39, 4); fill-opacity: 1; stroke: rgb(0, 0, 0); stroke-opacity: 1; opacity: 1;"/><g class="slicetext"><text data-notex="1" class="slicetext" text-anchor="middle" x="0" y="0" style="font-family: 'Times New Roman'; font-size: 12px; fill: rgb(0, 0, 0); fill-opacity: 1; white-space: pre;" transform="translate(322.44689181943886,161.19748765813176)rotate(22.01400000000001)"><tspan class="line" dy="0em" x="0" y="0">Generation</tspan><tspan class="line" dy="1.3em" x="0" y="0">37.77</tspan></text></g></g><g class="slice cursor-pointer"><path class="surface" d="M222.10397981185753,201.61917484795643L191.90596971778626,172.42876227193463A126,126 0,0,0 179.77861312091747,332.9679153987412L214.01907541394496,308.64527693249414A84,84 0,0,1 222.10397981185753,201.61917484795643Z" style="pointer-events: none; stroke-width: 1; fill: rgb(251, 135, 53); fill-opacity: 1; stroke: rgb(0, 0, 0); stroke-opacity: 1;"/><g class="slicetext"><text data-notex="1" class="slicetext" text-anchor="middle" x="0" y="0" style="font-family: 'Times New Roman'; font-size: 12px; fill: rgb(0, 0, 0); fill-opacity: 1; white-space: pre;" transform="translate(176.5336166520021,252.16751297219355)rotate(-85.68000000000006)"><tspan class="line" dy="0em" x="0" y="0">Fossil Fuels</tspan><tspan class="line" dy="1.3em" x="0" y="0">22.06</tspan></text></g></g><g class="slice cursor-pointer"><path class="surface" d="M214.01907541394496,308.64527693249414L179.77861312091747,332.9679153987412A126,126 0,0,0 250.39888856389382,381.8421874580668L261.09925904259586,341.22812497204455A84,84 0,0,1 214.01907541394496,308.64527693249414Z" style="pointer-events: none; stroke-width: 1; fill: rgb(254, 220, 185); fill-opacity: 1; stroke: rgb(0, 0, 0); stroke-opacity: 1;"/><g class="slicetext"><text data-notex="1" class="slicetext" text-anchor="middle" x="0" y="0" style="font-family: 'Times New Roman'; font-size: 12px; fill: rgb(0, 0, 0); fill-opacity: 1; white-space: pre;" transform="translate(224.4967180556446,343.5228304994505)rotate(34.686000000000035)"><tspan class="line" dy="0em" x="0" y="0">Renewables</tspan><tspan class="line" dy="1.3em" x="0" y="0">11.07</tspan></text></g></g><g class="slice"><path class="surface" d="M261.09925904259586,341.22812497204455L250.39888856389382,381.8421874580668A126,126 0,0,0 391.0742022385732,323.9346745378234L354.8828014923821,302.62311635854894A84,84 0,0,1 261.09925904259586,341.22812497204455Z" style="pointer-events: none; stroke-width: 1; fill: rgb(253, 147, 69); fill-opacity: 1; stroke: rgb(0, 0, 0); stroke-opacity: 1; opacity: 1;"/><g class="slicetext"><text data-notex="1" class="slicetext" text-anchor="middle" x="0" y="0" style="font-family: 'Times New Roman'; font-size: 12px; fill: rgb(0, 0, 0); fill-opacity: 1; white-space: pre;" transform="translate(319.8251449320938,351.55689112821716)rotate(-22.374000000000024)"><tspan class="line" dy="0em" x="0" y="0">Residential</tspan><tspan class="line" dy="1.3em" x="0" y="0">20.63</tspan></text></g></g><g class="slice cursor-pointer"><path class="surface" d="M354.8828014923821,302.62311635854894L391.0742022385732,323.9346745378234A126,126 0,0,0 408.5,260.00000000000006L366.5,260A84,84 0,0,1 354.8828014923821,302.62311635854894Z" style="pointer-events: none; stroke-width: 1; fill: rgb(254, 232, 211); fill-opacity: 1; stroke: rgb(0, 0, 0); stroke-opacity: 1;"/><g class="slicetext"><text data-notex="1" class="slicetext" text-anchor="middle" x="0" y="0" style="font-family: 'Times New Roman'; font-size: 12px; fill: rgb(0, 0, 0); fill-opacity: 1; white-space: pre;" transform="translate(382.6074653128674,287.6331113266338)rotate(-74.75400000000002)"><tspan class="line" dy="0em" x="0" y="0">Industrial</tspan><tspan class="line" dy="1.3em" x="0" y="0">8.47</tspan></text></g></g><g class="slice cursor-pointer"><path class="surface" d="M191.90596971778626,172.42876227193463L161.70795962371503,143.23834969591286A168,168 0,0,0 114.96938651412768,272.54964322390316L156.85203988559576,269.4122324179274A126,126 0,0,1 191.90596971778626,172.42876227193463Z" style="pointer-events: none; stroke-width: 1; fill: rgb(253, 206, 159); fill-opacity: 1; stroke: rgb(0, 0, 0); stroke-opacity: 1;"/><g class="slicetext"><text data-notex="1" class="slicetext" text-anchor="middle" x="0" y="0" style="font-family: 'Times New Roman'; font-size: 12px; fill: rgb(0, 0, 0); fill-opacity: 1; white-space: pre;" transform="translate(144.25320973385848,206.22707277605653)"><tspan class="line" dy="0em" x="0" y="0">Oil</tspan><tspan class="line" dy="1.3em" x="0" y="0">13.42</tspan></text></g></g><g class="slice"><path class="surface" d="M156.85203988559576,269.4122324179274L114.96938651412768,272.54964322390316A168,168 0,0,0 145.53815082788995,357.2905538649883L179.77861312091747,332.9679153987412A126,126 0,0,1 156.85203988559576,269.4122324179274Z" style="pointer-events: none; stroke-width: 1; fill: rgb(254, 232, 209); fill-opacity: 1; stroke: rgb(0, 0, 0); stroke-opacity: 1; opacity: 1;"/><g class="slicetext"><text data-notex="1" class="slicetext" text-anchor="middle" x="0" y="0" style="font-family: 'Times New Roman'; font-size: 12px; fill: rgb(0, 0, 0); fill-opacity: 1; white-space: pre;" transform="translate(143.89371605378005,306.07667934618746)"><tspan class="line" dy="0em" x="0" y="0">Coal</tspan><tspan class="line" dy="1.3em" x="0" y="0">8.64</tspan></text></g></g><g class="slice"><path class="surface" d="M179.77861312091747,332.9679153987412L145.53815082788995,357.2905538649883A168,168 0,0,0 191.23684505457408,401.0497662153581L214.05263379093057,365.7873246615186A126,126 0,0,1 179.77861312091747,332.9679153987412Z" style="pointer-events: none; stroke-width: 1; fill: rgb(255, 241, 228); fill-opacity: 1; stroke: rgb(0, 0, 0); stroke-opacity: 1; opacity: 1;"/><g class="slicetext"><text data-notex="1" class="slicetext" text-anchor="middle" x="0" y="0" style="font-family: 'Times New Roman'; font-size: 12px; fill: rgb(0, 0, 0); fill-opacity: 1; white-space: pre;" transform="translate(180.83275521860372,362.3686205324789)"><tspan class="line" dy="0em" x="0" y="0">Wind</tspan><tspan class="line" dy="1.3em" x="0" y="0">6.03</tspan></text></g></g><g class="slice"><path class="surface" d="M214.05263379093057,365.7873246615186L191.23684505457408,401.0497662153581A168,168 0,0,0 239.69851808519178,422.4562499440891L250.39888856389382,381.8421874580668A126,126 0,0,1 214.05263379093057,365.7873246615186Z" style="pointer-events: none; stroke-width: 1; fill: rgb(255, 245, 235); fill-opacity: 1; stroke: rgb(0, 0, 0); stroke-opacity: 1; opacity: 1;"/><g class="slicetext"><text data-notex="1" class="slicetext" text-anchor="middle" x="0" y="0" style="font-family: 'Times New Roman'; font-size: 12px; fill: rgb(0, 0, 0); fill-opacity: 1; white-space: pre;" transform="translate(222.6037322398244,390.6612315135609)"><tspan class="line" dy="0em" x="0" y="0">Solar</tspan><tspan class="line" dy="1.3em" x="0" y="0">5.04</tspan></text></g></g><g class="slice"><path class="surface" d="M391.0742022385732,323.9346745378234L427.26560298476426,345.2462327170979A168,168 0,0,0 450.5,260.00000000000006L408.5,260.00000000000006A126,126 0,0,1 391.0742022385732,323.9346745378234Z" style="pointer-events: none; stroke-width: 1; fill: rgb(254, 232, 211); fill-opacity: 1; stroke: rgb(0, 0, 0); stroke-opacity: 1; opacity: 1;"/><g class="slicetext"><text data-notex="1" class="slicetext" text-anchor="middle" x="0" y="0" style="font-family: 'Times New Roman'; font-size: 12px; fill: rgb(0, 0, 0); fill-opacity: 1; white-space: pre;" transform="translate(422.5606661752714,298.1744156945242)scale(0.9860011022609881)rotate(-74.75400000000002)"><tspan class="line" dy="0em" x="0" y="0">Manufacturing</tspan><tspan class="line" dy="1.3em" x="0" y="0">8.47</tspan></text></g></g><g class="slice"><path class="surface" d="M161.70795962371503,143.23834969591286L131.5099495296438,114.04793711989106A210,210 0,0,0 80.36650245724675,203.06100482855558L120.79320196579741,214.44880386284447A168,168 0,0,1 161.70795962371503,143.23834969591286Z" style="pointer-events: none; stroke-width: 1; fill: rgb(254, 235, 215); fill-opacity: 1; stroke: rgb(0, 0, 0); stroke-opacity: 1; opacity: 1;"/><g class="slicetext"><text data-notex="1" class="slicetext" text-anchor="middle" x="0" y="0" style="font-family: 'Times New Roman'; font-size: 12px; fill: rgb(0, 0, 0); fill-opacity: 1; white-space: pre;" transform="translate(114.82431278454531,163.66007087297967)rotate(-60.120000000000005)"><tspan class="line" dy="0em" x="0" y="0">Onshore Drilling</tspan><tspan class="line" dy="1.3em" x="0" y="0">7.86</tspan></text></g></g><g class="slice"><path class="surface" d="M120.79320196579741,214.44880386284447L80.36650245724675,203.06100482855558A210,210 0,0,0 73.0867331426596,275.68705402987894L114.96938651412768,272.54964322390316A168,168 0,0,1 120.79320196579741,214.44880386284447Z" style="pointer-events: none; stroke-width: 1; fill: rgb(255, 243, 231); fill-opacity: 1; stroke: rgb(0, 0, 0); stroke-opacity: 1; opacity: 1;"/><g class="slicetext"><text data-notex="1" class="slicetext" text-anchor="middle" x="0" y="0" style="font-family: 'Times New Roman'; font-size: 12px; fill: rgb(0, 0, 0); fill-opacity: 1; white-space: pre;" transform="translate(83.95653863574357,240.2126829942115)scale(0.6911060376622655)rotate(-84.27599999999995)"><tspan class="line" dy="0em" x="0" y="0">Offshore Platforms</tspan><tspan class="line" dy="1.3em" x="0" y="0">5.56</tspan></text></g></g></g></g><g class="glimages"/><defs id="topdefs-aca76e"><g class="clips"/></defs><g class="layer-above"><g class="imagelayer"/><g class="shapelayer"/></g><g class="infolayer"><g class="cb3f137b colorbar" transform="translate(10,50)"><rect class="cbbg" x="571.5" y="63" width="48.015625" height="295" style="fill: rgb(0, 0, 0); fill-opacity: 0; stroke: rgb(68, 68, 68); stroke-opacity: 1; stroke-width: 0;"/><g class="cbfills" transform="translate(0,93)"><rect class="cbfill gradient_filled" style="fill: url('#gaca76e-cb3f137b');" x="582" y="0" width="15" height="254"/></g><g class="cblines" transform="translate(0,93)"/><g class="cbaxis crisp" transform="translate(0,-50)"><g class="ycb3f137btick"><text text-anchor="start" x="600.4" y="4.199999999999999" transform="translate(0,358.51000000000005)" style="font-family: 'Times New Roman'; font-size: 12px; fill: rgb(42, 63, 95); fill-opacity: 1; white-space: pre; opacity: 1;">10</text></g><g class="ycb3f137btick"><text text-anchor="start" x="600.4" y="4.199999999999999" style="font-family: 'Times New Roman'; font-size: 12px; fill: rgb(42, 63, 95); fill-opacity: 1; white-space: pre; opacity: 1;" transform="translate(0,319.71000000000004)">15</text></g><g class="ycb3f137btick"><text text-anchor="start" x="600.4" y="4.199999999999999" style="font-family: 'Times New Roman'; font-size: 12px; fill: rgb(42, 63, 95); fill-opacity: 1; white-space: pre; opacity: 1;" transform="translate(0,280.9000000000001)">20</text></g><g class="ycb3f137btick"><text text-anchor="start" x="600.4" y="4.199999999999999" style="font-family: 'Times New Roman'; font-size: 12px; fill: rgb(42, 63, 95); fill-opacity: 1; white-space: pre; opacity: 1;" transform="translate(0,242.10000000000005)">25</text></g><g class="ycb3f137btick"><text text-anchor="start" x="600.4" y="4.199999999999999" style="font-family: 'Times New Roman'; font-size: 12px; fill: rgb(42, 63, 95); fill-opacity: 1; white-space: pre; opacity: 1;" transform="translate(0,203.30000000000007)">30</text></g><g class="ycb3f137btick"><text text-anchor="start" x="600.4" y="4.199999999999999" style="font-family: 'Times New Roman'; font-size: 12px; fill: rgb(42, 63, 95); fill-opacity: 1; white-space: pre; opacity: 1;" transform="translate(0,164.50000000000006)">35</text></g></g><g class="cbtitleunshift" transform="translate(-10,-50)"><g class="cbtitle" transform="translate(-0.5,-0.5)"><text class="ycb3f137btitle" x="592.25" y="135.75" text-anchor="start" style="opacity: 1; font-family: 'Times New Roman'; font-size: 13px; fill: rgb(42, 63, 95); fill-opacity: 1; white-space: pre;">%</text></g></g><rect class="cboutline" x="582" y="93" width="15" height="254" style="stroke: rgb(68, 68, 68); stroke-opacity: 1; fill: none; stroke-width: 1;"/></g><g class="g-gtitle"><text class="gtitle" x="320" y="25" text-anchor="middle" dy="0em" style="opacity: 1; font-family: 'Times New Roman'; font-size: 16px; fill: rgb(42, 63, 95); fill-opacity: 1; white-space: pre;">Energy Distribution by Category (2020) (%)</text></g></g></svg>