<svg class="main-svg" xmlns="http://www.w3.org/2000/svg" xmlns:xlink="http://www.w3.org/1999/xlink" width="1920" height="1440" style="" viewBox="0 0 640 480"><rect x="0" y="0" width="640" height="480" style="fill: rgb(255, 255, 255); fill-opacity: 1;"/><defs id="defs-2911d8"><g class="clips"/><g class="gradients"><linearGradient x1="0" y1="1" x2="0" y2="0" gradientUnits="objectBoundingBox" id="g2911d8-cb98e573"><stop offset="0%" stop-color="rgb(255, 245, 240)" stop-opacity="1"/><stop offset="12.5%" stop-color="rgb(254, 224, 210)" stop-opacity="1"/><stop offset="25%" stop-color="rgb(252, 187, 161)" stop-opacity="1"/><stop offset="37.5%" stop-color="rgb(252, 146, 114)" stop-opacity="1"/><stop offset="50%" stop-color="rgb(251, 106, 74)" stop-opacity="1"/><stop offset="62.5%" stop-color="rgb(239, 59, 44)" stop-opacity="1"/><stop offset="75%" stop-color="rgb(203, 24, 29)" stop-opacity="1"/><stop offset="87.5%" stop-color="rgb(165, 15, 21)" stop-opacity="1"/><stop offset="100%" stop-color="rgb(103, 0, 13)" stop-opacity="1"/></linearGradient></g><g class="patterns"/></defs><g class="bglayer"/><g class="layer-below"><g class="imagelayer"/><g class="shapelayer"/></g><g class="cartesianlayer"/><g class="polarlayer"/><g class="smithlayer"/><g class="ternarylayer"/><g class="geolayer"/><g class="funnelarealayer"/><g class="pielayer"/><g class="iciclelayer"/><g class="treemaplayer"/><g class="sunburstlayer"><g class="trace sunburst" stroke-linejoin="round" style="opacity: 1;"><g class="slice"><path class="surface" d="M282.5,260A0,0 0,1,0 282.5,260A0,0 0,1,0 282.5,260ZM324.5,260A42,42 0,1,1 240.5,260A42,42 0,1,1 324.5,260Z" style="pointer-events: none; stroke-width: 1; fill: rgb(255, 255, 255); fill-opacity: 1; stroke: rgb(0, 0, 0); stroke-opacity: 1;"/><g class="slicetext"><text data-notex="1" class="slicetext" text-anchor="middle" x="0" y="0" style="font-family: 'Times New Roman'; font-size: 12px; fill: rgb(0, 0, 0); fill-opacity: 1; white-space: pre;" transform="translate(282.5,264)">100</text></g></g><g class="slice cursor-pointer"><path class="surface" d="M324.5,260L366.5,260A84,84 0,0,0 213.7147818905559,211.78595879169427L248.10739094527796,235.89297939584714A42,42 0,0,1 324.5,260Z" style="pointer-events: none; stroke-width: 1; fill: rgb(103, 0, 13); fill-opacity: 1; stroke: rgb(0, 0, 0); stroke-opacity: 1;"/><g class="slicetext"><text data-notex="1" class="slicetext" text-anchor="middle" x="0" y="0" style="font-family: 'Times New Roman'; font-size: 12px; fill: rgb(0, 0, 0); fill-opacity: 1; white-space: pre;" transform="translate(301.05538635351115,201.1999351210198)scale(0.9842211435651563)rotate(17.51400000000001)"><tspan class="line" dy="0em" x="0" y="0">Food Processing</tspan><tspan class="line" dy="1.3em" x="0" y="0">40.27</tspan></text></g></g><g class="slice cursor-pointer"><path class="surface" d="M248.10739094527796,235.89297939584714L213.7147818905559,211.78595879169427A84,84 0,0,0 263.1986509052991,341.7524184542848L272.8493254526495,300.8762092271424A42,42 0,0,1 248.10739094527796,235.89297939584714Z" style="pointer-events: none; stroke-width: 1; fill: rgb(206, 27, 30); fill-opacity: 1; stroke: rgb(0, 0, 0); stroke-opacity: 1;"/><g class="slicetext"><text data-notex="1" class="slicetext" text-anchor="middle" x="0" y="0" style="font-family: 'Times New Roman'; font-size: 12px; fill: rgb(0, 0, 0); fill-opacity: 1; white-space: pre;" transform="translate(232.1715019453267,279.1622424117094)scale(0.9548392757132221)rotate(69.15599999999995)"><tspan class="line" dy="0em" x="0" y="0">Food Distribution</tspan><tspan class="line" dy="1.3em" x="0" y="0">31.04</tspan></text></g></g><g class="slice cursor-pointer"><path class="surface" d="M272.8493254526495,300.8762092271424L263.1986509052991,341.7524184542848A84,84 0,0,0 366.5,259.9999999999999L324.5,259.99999999999994A42,42 0,0,1 272.8493254526495,300.8762092271424Z" style="pointer-events: none; stroke-width: 1; fill: rgb(226, 46, 38); fill-opacity: 1; stroke: rgb(0, 0, 0); stroke-opacity: 1;"/><g class="slicetext"><text data-notex="1" class="slicetext" text-anchor="middle" x="0" y="0" style="font-family: 'Times New Roman'; font-size: 12px; fill: rgb(0, 0, 0); fill-opacity: 1; white-space: pre;" transform="translate(316.0939492335479,302.44890050787853)scale(0.9809564809941194)rotate(-38.35800000000006)"><tspan class="line" dy="0em" x="0" y="0">Food Production</tspan><tspan class="line" dy="1.3em" x="0" y="0">28.69</tspan></text></g></g><g class="slice cursor-pointer"><path class="surface" d="M366.5,260L408.5,260A126,126 0,0,0 310.6809588318704,137.19188317005904L301.2873058879136,178.12792211337268A84,84 0,0,1 366.5,260Z" style="pointer-events: none; stroke-width: 1; fill: rgb(251, 117, 85); fill-opacity: 1; stroke: rgb(0, 0, 0); stroke-opacity: 1;"/><g class="slicetext"><text data-notex="1" class="slicetext" text-anchor="middle" x="0" y="0" style="font-family: 'Times New Roman'; font-size: 12px; fill: rgb(0, 0, 0); fill-opacity: 1; white-space: pre;" transform="translate(364.32929409721265,194.82138400397065)rotate(51.46199999999999)"><tspan class="line" dy="0em" x="0" y="0">Dairy Processing</tspan><tspan class="line" dy="1.3em" x="0" y="0">21.41</tspan></text></g></g><g class="slice cursor-pointer"><path class="surface" d="M301.2873058879136,178.12792211337268L310.6809588318704,137.19188317005904A126,126 0,0,0 179.32217283583387,187.67893818754138L213.7147818905559,211.78595879169427A84,84 0,0,1 301.2873058879136,178.12792211337268Z" style="pointer-events: none; stroke-width: 1; fill: rgb(252, 140, 108); fill-opacity: 1; stroke: rgb(0, 0, 0); stroke-opacity: 1;"/><g class="slicetext"><text data-notex="1" class="slicetext" text-anchor="middle" x="0" y="0" style="font-family: 'Times New Roman'; font-size: 12px; fill: rgb(0, 0, 0); fill-opacity: 1; white-space: pre;" transform="translate(244.90478910878738,162.18361399323845)rotate(-21.024)"><tspan class="line" dy="0em" x="0" y="0">Meat Processing</tspan><tspan class="line" dy="1.3em" x="0" y="0">18.86</tspan></text></g></g><g class="slice"><path class="surface" d="M213.7147818905559,211.78595879169427L179.32217283583384,187.6789381875414A126,126 0,0,0 253.54797635794858,382.62862768142725L263.1986509052991,341.7524184542848A84,84 0,0,1 213.7147818905559,211.78595879169427Z" style="pointer-events: none; stroke-width: 1; fill: rgb(206, 27, 30); fill-opacity: 1; stroke: rgb(0, 0, 0); stroke-opacity: 1; opacity: 1;"/><g class="slicetext"><text data-notex="1" class="slicetext" text-anchor="middle" x="0" y="0" style="font-family: 'Times New Roman'; font-size: 12px; fill: rgb(0, 0, 0); fill-opacity: 1; white-space: pre;" transform="translate(189.84929591677803,295.276142143753)rotate(69.15599999999995)"><tspan class="line" dy="0em" x="0" y="0">Wholesale</tspan><tspan class="line" dy="1.3em" x="0" y="0">31.04</tspan></text></g></g><g class="slice cursor-pointer"><path class="surface" d="M263.1986509052991,341.7524184542848L253.54797635794858,382.62862768142725A126,126 0,0,0 370.2986485465948,350.3736538676595L341.0324323643965,320.24910257843965A84,84 0,0,1 263.1986509052991,341.7524184542848Z" style="pointer-events: none; stroke-width: 1; fill: rgb(252, 167, 138); fill-opacity: 1; stroke: rgb(0, 0, 0); stroke-opacity: 1;"/><g class="slicetext"><text data-notex="1" class="slicetext" text-anchor="middle" x="0" y="0" style="font-family: 'Times New Roman'; font-size: 12px; fill: rgb(0, 0, 0); fill-opacity: 1; white-space: pre;" transform="translate(308.7459459205434,355.0002888280866)rotate(-15.444000000000074)"><tspan class="line" dy="0em" x="0" y="0">Aquaculture</tspan><tspan class="line" dy="1.3em" x="0" y="0">15.96</tspan></text></g></g><g class="slice"><path class="surface" d="M341.0324323643965,320.24910257843965L370.2986485465948,350.3736538676595A126,126 0,0,0 408.5,259.9999999999997L366.5,259.9999999999998A84,84 0,0,1 341.0324323643965,320.24910257843965Z" style="pointer-events: none; stroke-width: 1; fill: rgb(252, 196, 173); fill-opacity: 1; stroke: rgb(0, 0, 0); stroke-opacity: 1; opacity: 1;"/><g class="slicetext"><text data-notex="1" class="slicetext" text-anchor="middle" x="0" y="0" style="font-family: 'Times New Roman'; font-size: 12px; fill: rgb(0, 0, 0); fill-opacity: 1; white-space: pre;" transform="translate(373.53066656064635,298.4790736846086)rotate(-67.08600000000013)"><tspan class="line" dy="0em" x="0" y="0">Agriculture</tspan><tspan class="line" dy="1.3em" x="0" y="0">12.73</tspan></text></g></g><g class="slice cursor-pointer"><path class="surface" d="M408.5,260L450.5,260A168,168 0,0,0 379.87659032277736,123.09930731690952L355.532442742083,157.32448048768214A126,126 0,0,1 408.5,260Z" style="pointer-events: none; stroke-width: 1; fill: rgb(252, 175, 147); fill-opacity: 1; stroke: rgb(0, 0, 0); stroke-opacity: 1;"/><g class="slicetext"><text data-notex="1" class="slicetext" text-anchor="middle" x="0" y="0" style="font-family: 'Times New Roman'; font-size: 12px; fill: rgb(0, 0, 0); fill-opacity: 1; white-space: pre;" transform="translate(414.08608737684426,191.93364642101972)rotate(62.71199999999999)"><tspan class="line" dy="0em" x="0" y="0">Milk Products</tspan><tspan class="line" dy="1.3em" x="0" y="0">15.16</tspan></text></g></g><g class="slice"><path class="surface" d="M355.532442742083,157.32448048768214L379.87659032277736,123.09930731690952A168,168 0,0,0 320.0746117758272,96.25584422674538L310.6809588318704,137.19188317005904A126,126 0,0,1 355.532442742083,157.32448048768214Z" style="pointer-events: none; stroke-width: 1; fill: rgb(255, 239, 231); fill-opacity: 1; stroke: rgb(0, 0, 0); stroke-opacity: 1; opacity: 1;"/><g class="slicetext"><text data-notex="1" class="slicetext" text-anchor="middle" x="0" y="0" style="font-family: 'Times New Roman'; font-size: 12px; fill: rgb(0, 0, 0); fill-opacity: 1; white-space: pre;" transform="translate(345.24383813815797,119.41775255978561)rotate(24.173999999999978)"><tspan class="line" dy="0em" x="0" y="0">Ice Cream</tspan><tspan class="line" dy="1.3em" x="0" y="0">6.25</tspan></text></g></g><g class="slice"><path class="surface" d="M310.6809588318704,137.19188317005904L320.0746117758272,96.25584422674538A168,168 0,0,0 217.23523456593045,105.19525074198827L233.55142592444784,143.8964380564912A126,126 0,0,1 310.6809588318704,137.19188317005904Z" style="pointer-events: none; stroke-width: 1; fill: rgb(254, 220, 204); fill-opacity: 1; stroke: rgb(0, 0, 0); stroke-opacity: 1; opacity: 1;"/><g class="slicetext"><text data-notex="1" class="slicetext" text-anchor="middle" x="0" y="0" style="font-family: 'Times New Roman'; font-size: 12px; fill: rgb(0, 0, 0); fill-opacity: 1; white-space: pre;" transform="translate(269.63321619007957,111.97987903891118)rotate(-4.968000000000075)"><tspan class="line" dy="0em" x="0" y="0">Slaughtering</tspan><tspan class="line" dy="1.3em" x="0" y="0">9.94</tspan></text></g></g><g class="slice"><path class="surface" d="M233.55142592444784,143.8964380564912L217.23523456593045,105.19525074198827A168,168 0,0,0 144.92956378111182,163.5719175833885L179.32217283583387,187.67893818754138A126,126 0,0,1 233.55142592444784,143.8964380564912Z" style="pointer-events: none; stroke-width: 1; fill: rgb(254, 226, 213); fill-opacity: 1; stroke: rgb(0, 0, 0); stroke-opacity: 1; opacity: 1;"/><g class="slicetext"><text data-notex="1" class="slicetext" text-anchor="middle" x="0" y="0" style="font-family: 'Times New Roman'; font-size: 12px; fill: rgb(0, 0, 0); fill-opacity: 1; white-space: pre;" transform="translate(188.76459585532612,143.89879656232623)rotate(-38.916000000000054)"><tspan class="line" dy="0em" x="0" y="0">Packaging</tspan><tspan class="line" dy="1.3em" x="0" y="0">8.92</tspan></text></g></g><g class="slice cursor-pointer"><path class="surface" d="M253.54797635794858,382.62862768142725L243.89730181059812,423.5048369085696A168,168 0,0,0 399.56486472879305,380.49820515687935L370.2986485465948,350.3736538676595A126,126 0,0,1 253.54797635794858,382.62862768142725Z" style="pointer-events: none; stroke-width: 1; fill: rgb(252, 167, 138); fill-opacity: 1; stroke: rgb(0, 0, 0); stroke-opacity: 1;"/><g class="slicetext"><text data-notex="1" class="slicetext" text-anchor="middle" x="0" y="0" style="font-family: 'Times New Roman'; font-size: 12px; fill: rgb(0, 0, 0); fill-opacity: 1; white-space: pre;" transform="translate(319.48094580831145,393.8568837854507)rotate(-15.444000000000074)"><tspan class="line" dy="0em" x="0" y="0">Freshwater Farming</tspan><tspan class="line" dy="1.3em" x="0" y="0">15.96</tspan></text></g></g><g class="slice"><path class="surface" d="M450.5,260L492.5,260A210,210 0,0,0 481.6851519652578,193.4772577491187L441.8481215722062,206.78180619929498A168,168 0,0,1 450.5,260Z" style="pointer-events: none; stroke-width: 1; fill: rgb(255, 244, 239); fill-opacity: 1; stroke: rgb(0, 0, 0); stroke-opacity: 1; opacity: 1;"/><g class="slicetext"><text data-notex="1" class="slicetext" text-anchor="middle" x="0" y="0" style="font-family: 'Times New Roman'; font-size: 12px; fill: rgb(0, 0, 0); fill-opacity: 1; white-space: pre;" transform="translate(472.14251715361746,229.16911518458625)rotate(80.76599999999996)"><tspan class="line" dy="0em" x="0" y="0">Cheese</tspan><tspan class="line" dy="1.3em" x="0" y="0">5.13</tspan></text></g></g><g class="slice"><path class="surface" d="M441.8481215722062,206.78180619929498L481.6851519652578,193.4772577491187A210,210 0,0,0 451.1441016773225,134.86340675306474L417.41528134185796,159.89072540245178A168,168 0,0,1 441.8481215722062,206.78180619929498Z" style="pointer-events: none; stroke-width: 1; fill: rgb(255, 245, 240); fill-opacity: 1; stroke: rgb(0, 0, 0); stroke-opacity: 1; opacity: 1;"/><g class="slicetext"><text data-notex="1" class="slicetext" text-anchor="middle" x="0" y="0" style="font-family: 'Times New Roman'; font-size: 12px; fill: rgb(0, 0, 0); fill-opacity: 1; white-space: pre;" transform="translate(452.7713932306607,170.900404076239)rotate(62.478000000000065)"><tspan class="line" dy="0em" x="0" y="0">Yogurt</tspan><tspan class="line" dy="1.3em" x="0" y="0">5.03</tspan></text></g></g><g class="slice"><path class="surface" d="M417.41528134185796,159.89072540245178L451.1441016773225,134.86340675306474A210,210 0,0,0 404.2207379034717,88.8741341461369L379.87659032277736,123.09930731690952A168,168 0,0,1 417.41528134185796,159.89072540245178Z" style="pointer-events: none; stroke-width: 1; fill: rgb(255, 245, 240); fill-opacity: 1; stroke: rgb(0, 0, 0); stroke-opacity: 1; opacity: 1;"/><g class="slicetext"><text data-notex="1" class="slicetext" text-anchor="middle" x="0" y="0" style="font-family: 'Times New Roman'; font-size: 12px; fill: rgb(0, 0, 0); fill-opacity: 1; white-space: pre;" transform="translate(416.7115529252678,122.33698208440633)rotate(44.42399999999998)"><tspan class="line" dy="0em" x="0" y="0">Butter</tspan><tspan class="line" dy="1.3em" x="0" y="0">5</tspan></text></g></g><g class="slice"><path class="surface" d="M243.89730181059812,423.5048369085696L234.24662726324766,464.38104613571204A210,210 0,0,0 340.07373425535457,461.9536212200559L328.55898740428364,421.5628969760447A168,168 0,0,1 243.89730181059812,423.5048369085696Z" style="pointer-events: none; stroke-width: 1; fill: rgb(254, 230, 219); fill-opacity: 1; stroke: rgb(0, 0, 0); stroke-opacity: 1; opacity: 1;"/><g class="slicetext"><text data-notex="1" class="slicetext" text-anchor="middle" x="0" y="0" style="font-family: 'Times New Roman'; font-size: 12px; fill: rgb(0, 0, 0); fill-opacity: 1; white-space: pre;" transform="translate(286.73138326862295,444.4732856637648)rotate(-1.3140000000000782)"><tspan class="line" dy="0em" x="0" y="0">Catfish</tspan><tspan class="line" dy="1.3em" x="0" y="0">8.11</tspan></text></g></g><g class="slice"><path class="surface" d="M328.55898740428364,421.5628969760447L340.07373425535457,461.9536212200559A210,210 0,0,0 428.8310809109913,410.6227564460992L399.56486472879305,380.49820515687935A168,168 0,0,1 328.55898740428364,421.5628969760447Z" style="pointer-events: none; stroke-width: 1; fill: rgb(254, 231, 221); fill-opacity: 1; stroke: rgb(0, 0, 0); stroke-opacity: 1; opacity: 1;"/><g class="slicetext"><text data-notex="1" class="slicetext" text-anchor="middle" x="0" y="0" style="font-family: 'Times New Roman'; font-size: 12px; fill: rgb(0, 0, 0); fill-opacity: 1; white-space: pre;" transform="translate(374.588370110075,419.9186893601754)rotate(-30.042000000000144)"><tspan class="line" dy="0em" x="0" y="0">Tilapia</tspan><tspan class="line" dy="1.3em" x="0" y="0">7.85</tspan></text></g></g></g></g><g class="glimages"/><defs id="topdefs-2911d8"><g class="clips"/></defs><g class="layer-above"><g class="imagelayer"/><g class="shapelayer"/></g><g class="infolayer"><g class="cb98e573 colorbar" transform="translate(10,50)"><rect class="cbbg" x="571.5" y="63" width="48.015625" height="295" style="fill: rgb(0, 0, 0); fill-opacity: 0; stroke: rgb(68, 68, 68); stroke-opacity: 1; stroke-width: 0;"/><g class="cbfills" transform="translate(0,93)"><rect class="cbfill gradient_filled" style="fill: url('#g2911d8-cb98e573');" x="582" y="0" width="15" height="254"/></g><g class="cblines" transform="translate(0,93)"/><g class="cbaxis crisp" transform="translate(0,-50)"><g class="ycb98e573tick"><text text-anchor="start" x="600.4" y="4.199999999999999" transform="translate(0,397.00000000000006)" style="font-family: 'Times New Roman'; font-size: 12px; fill: rgb(42, 63, 95); fill-opacity: 1; white-space: pre; opacity: 1;">5</text></g><g class="ycb98e573tick"><text text-anchor="start" x="600.4" y="4.199999999999999" style="font-family: 'Times New Roman'; font-size: 12px; fill: rgb(42, 63, 95); fill-opacity: 1; white-space: pre; opacity: 1;" transform="translate(0,360.99000000000007)">10</text></g><g class="ycb98e573tick"><text text-anchor="start" x="600.4" y="4.199999999999999" style="font-family: 'Times New Roman'; font-size: 12px; fill: rgb(42, 63, 95); fill-opacity: 1; white-space: pre; opacity: 1;" transform="translate(0,324.98)">15</text></g><g class="ycb98e573tick"><text text-anchor="start" x="600.4" y="4.199999999999999" style="font-family: 'Times New Roman'; font-size: 12px; fill: rgb(42, 63, 95); fill-opacity: 1; white-space: pre; opacity: 1;" transform="translate(0,288.98)">20</text></g><g class="ycb98e573tick"><text text-anchor="start" x="600.4" y="4.199999999999999" style="font-family: 'Times New Roman'; font-size: 12px; fill: rgb(42, 63, 95); fill-opacity: 1; white-space: pre; opacity: 1;" transform="translate(0,252.97000000000006)">25</text></g><g class="ycb98e573tick"><text text-anchor="start" x="600.4" y="4.199999999999999" style="font-family: 'Times New Roman'; font-size: 12px; fill: rgb(42, 63, 95); fill-opacity: 1; white-space: pre; opacity: 1;" transform="translate(0,216.96000000000004)">30</text></g><g class="ycb98e573tick"><text text-anchor="start" x="600.4" y="4.199999999999999" style="font-family: 'Times New Roman'; font-size: 12px; fill: rgb(42, 63, 95); fill-opacity: 1; white-space: pre; opacity: 1;" transform="translate(0,180.95000000000005)">35</text></g><g class="ycb98e573tick"><text text-anchor="start" x="600.4" y="4.199999999999999" style="font-family: 'Times New Roman'; font-size: 12px; fill: rgb(42, 63, 95); fill-opacity: 1; white-space: pre; opacity: 1;" transform="translate(0,144.94000000000005)">40</text></g></g><g class="cbtitleunshift" transform="translate(-10,-50)"><g class="cbtitle" transform="translate(-0.5,-0.5)"><text class="ycb98e573title" x="592.25" y="135.75" text-anchor="start" style="opacity: 1; font-family: 'Times New Roman'; font-size: 13px; fill: rgb(42, 63, 95); fill-opacity: 1; white-space: pre;">%</text></g></g><rect class="cboutline" x="582" y="93" width="15" height="254" style="stroke: rgb(68, 68, 68); stroke-opacity: 1; fill: none; stroke-width: 1;"/></g><g class="g-gtitle"><text class="gtitle" x="320" y="25" text-anchor="middle" dy="0em" style="opacity: 1; font-family: 'Times New Roman'; font-size: 16px; fill: rgb(42, 63, 95); fill-opacity: 1; white-space: pre;">Food Industry Distribution by Category (2023) (%)</text></g></g></svg>