<svg class="main-svg" xmlns="http://www.w3.org/2000/svg" xmlns:xlink="http://www.w3.org/1999/xlink" width="1920" height="1440" style="" viewBox="0 0 640 480"><rect x="0" y="0" width="640" height="480" style="fill: rgb(255, 255, 255); fill-opacity: 1;"/><defs id="defs-86cf17"><g class="clips"/><g class="gradients"><linearGradient x1="0" y1="1" x2="0" y2="0" gradientUnits="objectBoundingBox" id="g86cf17-cb00db65"><stop offset="0%" stop-color="rgb(255, 255, 217)" stop-opacity="1"/><stop offset="12.5%" stop-color="rgb(237, 248, 177)" stop-opacity="1"/><stop offset="25%" stop-color="rgb(199, 233, 180)" stop-opacity="1"/><stop offset="37.5%" stop-color="rgb(127, 205, 187)" stop-opacity="1"/><stop offset="50%" stop-color="rgb(65, 182, 196)" stop-opacity="1"/><stop offset="62.5%" stop-color="rgb(29, 145, 192)" stop-opacity="1"/><stop offset="75%" stop-color="rgb(34, 94, 168)" stop-opacity="1"/><stop offset="87.5%" stop-color="rgb(37, 52, 148)" stop-opacity="1"/><stop offset="100%" stop-color="rgb(8, 29, 88)" stop-opacity="1"/></linearGradient></g><g class="patterns"/></defs><g class="bglayer"/><g class="layer-below"><g class="imagelayer"/><g class="shapelayer"/></g><g class="cartesianlayer"/><g class="polarlayer"/><g class="smithlayer"/><g class="ternarylayer"/><g class="geolayer"/><g class="funnelarealayer"/><g class="pielayer"/><g class="iciclelayer"/><g class="treemaplayer"/><g class="sunburstlayer"><g class="trace sunburst" stroke-linejoin="round" style="opacity: 1;"><g class="slice"><path class="surface" d="M282.5,260A0,0 0,1,0 282.5,260A0,0 0,1,0 282.5,260ZM335,260A52.5,52.5 0,1,1 230,260A52.5,52.5 0,1,1 335,260Z" style="pointer-events: none; stroke-width: 1; fill: rgb(255, 255, 255); fill-opacity: 1; stroke: rgb(0, 0, 0); stroke-opacity: 1;"/><g class="slicetext"><text data-notex="1" class="slicetext" text-anchor="middle" x="0" y="0" style="font-family: 'Times New Roman'; font-size: 12px; fill: rgb(0, 0, 0); fill-opacity: 1; white-space: pre;" transform="translate(282.5,264)">100</text></g></g><g class="slice cursor-pointer"><path class="surface" d="M335,260L387.5,260A105,105 0,0,0 183.97849732216517,223.6886586573646L233.23924866108257,241.8443293286823A52.5,52.5 0,0,1 335,260Z" style="pointer-events: none; stroke-width: 1; fill: rgb(8, 29, 88); fill-opacity: 1; stroke: rgb(0, 0, 0); stroke-opacity: 1;"/><g class="slicetext"><text data-notex="1" class="slicetext" text-anchor="middle" x="0" y="0" style="font-family: 'Times New Roman'; font-size: 12px; fill: rgb(0, 0, 0); fill-opacity: 1; white-space: pre;" transform="translate(295.8833287971997,184.98775625125577)rotate(10.115999999999985)"><tspan class="line" dy="0em" x="0" y="0">Crop Production</tspan><tspan class="line" dy="1.3em" x="0" y="0">44.38</tspan></text></g></g><g class="slice cursor-pointer"><path class="surface" d="M233.23924866108257,241.8443293286823L183.97849732216517,223.6886586573646A105,105 0,0,0 268.48956701232794,364.06107710137326L275.49478350616397,312.03053855068663A52.5,52.5 0,0,1 233.23924866108257,241.8443293286823Z" style="pointer-events: none; stroke-width: 1; fill: rgb(40, 157, 193); fill-opacity: 1; stroke: rgb(0, 0, 0); stroke-opacity: 1;"/><g class="slicetext"><text data-notex="1" class="slicetext" text-anchor="middle" x="0" y="0" style="font-family: 'Times New Roman'; font-size: 12px; fill: rgb(0, 0, 0); fill-opacity: 1; white-space: pre;" transform="translate(224.57230540180245,294.6838074856665)rotate(58.950000000000045)"><tspan class="line" dy="0em" x="0" y="0">Agricultural Inputs</tspan><tspan class="line" dy="1.3em" x="0" y="0">28.49</tspan></text></g></g><g class="slice cursor-pointer"><path class="surface" d="M275.49478350616397,312.03053855068663L268.48956701232794,364.06107710137326A105,105 0,0,0 387.5,260L335,260A52.5,52.5 0,0,1 275.49478350616397,312.03053855068663Z" style="pointer-events: none; stroke-width: 1; fill: rgb(50, 167, 194); fill-opacity: 1; stroke: rgb(0, 0, 0); stroke-opacity: 1;"/><g class="slicetext"><text data-notex="1" class="slicetext" text-anchor="middle" x="0" y="0" style="font-family: 'Times New Roman'; font-size: 12px; fill: rgb(0, 0, 0); fill-opacity: 1; white-space: pre;" transform="translate(329.75162116212863,314.0397625175088)rotate(-41.16599999999994)"><tspan class="line" dy="0em" x="0" y="0">Livestock</tspan><tspan class="line" dy="1.3em" x="0" y="0">27.13</tspan></text></g></g><g class="slice"><path class="surface" d="M387.5,260L440,260A157.5,157.5 0,0,0 134.71774598324774,205.5329879860469L183.97849732216517,223.6886586573646A105,105 0,0,1 387.5,260Z" style="pointer-events: none; stroke-width: 1; fill: rgb(8, 29, 88); fill-opacity: 1; stroke: rgb(0, 0, 0); stroke-opacity: 1; opacity: 1;"/><g class="slicetext"><text data-notex="1" class="slicetext" text-anchor="middle" x="0" y="0" style="font-family: 'Times New Roman'; font-size: 12px; fill: rgb(0, 0, 0); fill-opacity: 1; white-space: pre;" transform="translate(305.38890332782483,126.98570269275257)"><tspan class="line" dy="0em" x="0" y="0">Grains</tspan><tspan class="line" dy="1.3em" x="0" y="0">44.38</tspan></text></g></g><g class="slice cursor-pointer"><path class="surface" d="M183.97849732216517,223.6886586573646L134.71774598324774,205.5329879860469A157.5,157.5 0,0,0 154.96358936816858,352.4159832666886L197.4757262454457,321.61065551112574A105,105 0,0,1 183.97849732216517,223.6886586573646Z" style="pointer-events: none; stroke-width: 1; fill: rgb(199, 233, 180); fill-opacity: 1; stroke: rgb(0, 0, 0); stroke-opacity: 1;"/><g class="slicetext"><text data-notex="1" class="slicetext" text-anchor="middle" x="0" y="0" style="font-family: 'Times New Roman'; font-size: 12px; fill: rgb(0, 0, 0); fill-opacity: 1; white-space: pre;" transform="translate(158.63655334580767,276.9072948520219)rotate(82.15200000000004)"><tspan class="line" dy="0em" x="0" y="0">Fertilizers</tspan><tspan class="line" dy="1.3em" x="0" y="0">15.6</tspan></text></g></g><g class="slice cursor-pointer"><path class="surface" d="M197.4757262454457,321.61065551112574L154.96358936816858,352.4159832666886A157.5,157.5 0,0,0 261.4843505184919,416.0916156520599L268.48956701232794,364.06107710137326A105,105 0,0,1 197.4757262454457,321.61065551112574Z" style="pointer-events: none; stroke-width: 1; fill: rgb(220, 241, 178); fill-opacity: 1; stroke: rgb(0, 0, 0); stroke-opacity: 1;"/><g class="slicetext"><text data-notex="1" class="slicetext" text-anchor="middle" x="0" y="0" style="font-family: 'Times New Roman'; font-size: 12px; fill: rgb(0, 0, 0); fill-opacity: 1; white-space: pre;" transform="translate(214.9926256316209,368.8516076929373)"><tspan class="line" dy="0em" x="0" y="0">Seeds</tspan><tspan class="line" dy="1.3em" x="0" y="0">12.89</tspan></text></g></g><g class="slice"><path class="surface" d="M268.48956701232794,364.06107710137326L261.4843505184919,416.0916156520599A157.5,157.5 0,0,0 419.6026746846668,337.51842744993235L373.90178312311116,311.67895163328825A105,105 0,0,1 268.48956701232794,364.06107710137326Z" style="pointer-events: none; stroke-width: 1; fill: rgb(149, 213, 185); fill-opacity: 1; stroke: rgb(0, 0, 0); stroke-opacity: 1; opacity: 1;"/><g class="slicetext"><text data-notex="1" class="slicetext" text-anchor="middle" x="0" y="0" style="font-family: 'Times New Roman'; font-size: 12px; fill: rgb(0, 0, 0); fill-opacity: 1; white-space: pre;" transform="translate(340.90760647281263,373.7330256227125)"><tspan class="line" dy="0em" x="0" y="0">Poultry</tspan><tspan class="line" dy="1.3em" x="0" y="0">18.94</tspan></text></g></g><g class="slice cursor-pointer"><path class="surface" d="M373.90178312311116,311.67895163328825L419.6026746846668,337.51842744993235A157.5,157.5 0,0,0 440,260.00000000000006L387.5,260A105,105 0,0,1 373.90178312311116,311.67895163328825Z" style="pointer-events: none; stroke-width: 1; fill: rgb(247, 252, 199); fill-opacity: 1; stroke: rgb(0, 0, 0); stroke-opacity: 1;"/><g class="slicetext"><text data-notex="1" class="slicetext" text-anchor="middle" x="0" y="0" style="font-family: 'Times New Roman'; font-size: 12px; fill: rgb(0, 0, 0); fill-opacity: 1; white-space: pre;" transform="translate(409.4294440696,289.59409583386235)"><tspan class="line" dy="0em" x="0" y="0">Cattle</tspan><tspan class="line" dy="1.3em" x="0" y="0">8.19</tspan></text></g></g><g class="slice"><path class="surface" d="M134.71774598324774,205.5329879860469L85.45699464433034,187.3773173147292A210,210 0,0,0 76.75683072597687,302.0683764493076L128.19262304448264,291.5512823369807A157.5,157.5 0,0,1 134.71774598324774,205.5329879860469Z" style="pointer-events: none; stroke-width: 1; fill: rgb(244, 251, 193); fill-opacity: 1; stroke: rgb(0, 0, 0); stroke-opacity: 1; opacity: 1;"/><g class="slicetext"><text data-notex="1" class="slicetext" text-anchor="middle" x="0" y="0" style="font-family: 'Times New Roman'; font-size: 12px; fill: rgb(0, 0, 0); fill-opacity: 1; white-space: pre;" transform="translate(97.08368474289206,245.43336652138197)rotate(-85.66200000000003)"><tspan class="line" dy="0em" x="0" y="0">Nitrogen</tspan><tspan class="line" dy="1.3em" x="0" y="0">8.83</tspan></text></g></g><g class="slice"><path class="surface" d="M128.19262304448264,291.5512823369807L76.75683072597687,302.0683764493076A210,210 0,0,0 112.45145249089143,383.2213110222515L154.96358936816858,352.4159832666886A157.5,157.5 0,0,1 128.19262304448264,291.5512823369807Z" style="pointer-events: none; stroke-width: 1; fill: rgb(252, 254, 210); fill-opacity: 1; stroke: rgb(0, 0, 0); stroke-opacity: 1; opacity: 1;"/><g class="slicetext"><text data-notex="1" class="slicetext" text-anchor="middle" x="0" y="0" style="font-family: 'Times New Roman'; font-size: 12px; fill: rgb(0, 0, 0); fill-opacity: 1; white-space: pre;" transform="translate(114.3011843452851,330.17653249772127)"><tspan class="line" dy="0em" x="0" y="0">Organic</tspan><tspan class="line" dy="1.3em" x="0" y="0">6.77</tspan></text></g></g><g class="slice"><path class="surface" d="M154.96358936816858,352.4159832666886L112.45145249089143,383.2213110222515A210,210 0,0,0 179.9471059162841,443.25638846996344L205.5853294372131,397.4422913524726A157.5,157.5 0,0,1 154.96358936816858,352.4159832666886Z" style="pointer-events: none; stroke-width: 1; fill: rgb(252, 254, 209); fill-opacity: 1; stroke: rgb(0, 0, 0); stroke-opacity: 1; opacity: 1;"/><g class="slicetext"><text data-notex="1" class="slicetext" text-anchor="middle" x="0" y="0" style="font-family: 'Times New Roman'; font-size: 12px; fill: rgb(0, 0, 0); fill-opacity: 1; white-space: pre;" transform="translate(159.03216176449268,398.56436395896304)rotate(41.65199999999993)"><tspan class="line" dy="0em" x="0" y="0">Hybrid Seeds</tspan><tspan class="line" dy="1.3em" x="0" y="0">6.9</tspan></text></g></g><g class="slice"><path class="surface" d="M205.5853294372131,397.4422913524726L179.9471059162841,443.25638846996344A210,210 0,0,0 254.47913402465588,468.1221542027465L261.4843505184919,416.0916156520599A157.5,157.5 0,0,1 205.5853294372131,397.4422913524726Z" style="pointer-events: none; stroke-width: 1; fill: rgb(255, 255, 217); fill-opacity: 1; stroke: rgb(0, 0, 0); stroke-opacity: 1; opacity: 1;"/><g class="slicetext"><text data-notex="1" class="slicetext" text-anchor="middle" x="0" y="0" style="font-family: 'Times New Roman'; font-size: 12px; fill: rgb(0, 0, 0); fill-opacity: 1; white-space: pre;" transform="translate(222.0107470688556,440.8605108056501)scale(0.8651042166873671)rotate(18.450000000000045)"><tspan class="line" dy="0em" x="0" y="0">Heirloom Seeds</tspan><tspan class="line" dy="1.3em" x="0" y="0">5.99</tspan></text></g></g><g class="slice"><path class="surface" d="M419.6026746846668,337.51842744993235L465.3035662462224,363.3579032665765A210,210 0,0,0 492.5,260.00000000000006L440,260.00000000000006A157.5,157.5 0,0,1 419.6026746846668,337.51842744993235Z" style="pointer-events: none; stroke-width: 1; fill: rgb(247, 252, 199); fill-opacity: 1; stroke: rgb(0, 0, 0); stroke-opacity: 1; opacity: 1;"/><g class="slicetext"><text data-notex="1" class="slicetext" text-anchor="middle" x="0" y="0" style="font-family: 'Times New Roman'; font-size: 12px; fill: rgb(0, 0, 0); fill-opacity: 1; white-space: pre;" transform="translate(459.19340919744,302.9536091674073)"><tspan class="line" dy="0em" x="0" y="0">Beef</tspan><tspan class="line" dy="1.3em" x="0" y="0">8.19</tspan></text></g></g></g></g><g class="glimages"/><defs id="topdefs-86cf17"><g class="clips"/></defs><g class="layer-above"><g class="imagelayer"/><g class="shapelayer"/></g><g class="infolayer"><g class="cb00db65 colorbar" transform="translate(10,50)"><rect class="cbbg" x="571.5" y="63" width="48.015625" height="295" style="fill: rgb(0, 0, 0); fill-opacity: 0; stroke: rgb(68, 68, 68); stroke-opacity: 1; stroke-width: 0;"/><g class="cbfills" transform="translate(0,93)"><rect class="cbfill gradient_filled" style="fill: url('#g86cf17-cb00db65');" x="582" y="0" width="15" height="254"/></g><g class="cblines" transform="translate(0,93)"/><g class="cbaxis crisp" transform="translate(0,-50)"><g class="ycb00db65tick"><text text-anchor="start" x="600.4" y="4.199999999999999" transform="translate(0,370.47)" style="font-family: 'Times New Roman'; font-size: 12px; fill: rgb(42, 63, 95); fill-opacity: 1; white-space: pre; opacity: 1;">10</text></g><g class="ycb00db65tick"><text text-anchor="start" x="600.4" y="4.199999999999999" style="font-family: 'Times New Roman'; font-size: 12px; fill: rgb(42, 63, 95); fill-opacity: 1; white-space: pre; opacity: 1;" transform="translate(0,304.31000000000006)">20</text></g><g class="ycb00db65tick"><text text-anchor="start" x="600.4" y="4.199999999999999" style="font-family: 'Times New Roman'; font-size: 12px; fill: rgb(42, 63, 95); fill-opacity: 1; white-space: pre; opacity: 1;" transform="translate(0,238.14000000000004)">30</text></g><g class="ycb00db65tick"><text text-anchor="start" x="600.4" y="4.199999999999999" style="font-family: 'Times New Roman'; font-size: 12px; fill: rgb(42, 63, 95); fill-opacity: 1; white-space: pre; opacity: 1;" transform="translate(0,171.98000000000005)">40</text></g></g><g class="cbtitleunshift" transform="translate(-10,-50)"><g class="cbtitle" transform="translate(-0.5,-0.5)"><text class="ycb00db65title" x="592.25" y="135.75" text-anchor="start" style="opacity: 1; font-family: 'Times New Roman'; font-size: 13px; fill: rgb(42, 63, 95); fill-opacity: 1; white-space: pre;">%</text></g></g><rect class="cboutline" x="582" y="93" width="15" height="254" style="stroke: rgb(68, 68, 68); stroke-opacity: 1; fill: none; stroke-width: 1;"/></g><g class="g-gtitle"><text class="gtitle" x="320" y="25" text-anchor="middle" dy="0em" style="opacity: 1; font-family: 'Times New Roman'; font-size: 16px; fill: rgb(42, 63, 95); fill-opacity: 1; white-space: pre;">Agriculture Production Distribution by Category (2024) (%)</text></g></g></svg>