<svg class="main-svg" xmlns="http://www.w3.org/2000/svg" xmlns:xlink="http://www.w3.org/1999/xlink" width="1920" height="1440" style="" viewBox="0 0 640 480"><rect x="0" y="0" width="640" height="480" style="fill: rgb(255, 255, 255); fill-opacity: 1;"/><defs id="defs-3afafd"><g class="clips"/><g class="gradients"><linearGradient x1="0" y1="1" x2="0" y2="0" gradientUnits="objectBoundingBox" id="g3afafd-cba92700"><stop offset="0%" stop-color="rgb(255, 255, 204)" stop-opacity="1"/><stop offset="12.5%" stop-color="rgb(255, 237, 160)" stop-opacity="1"/><stop offset="25%" stop-color="rgb(254, 217, 118)" stop-opacity="1"/><stop offset="37.5%" stop-color="rgb(254, 178, 76)" stop-opacity="1"/><stop offset="50%" stop-color="rgb(253, 141, 60)" stop-opacity="1"/><stop offset="62.5%" stop-color="rgb(252, 78, 42)" stop-opacity="1"/><stop offset="75%" stop-color="rgb(227, 26, 28)" stop-opacity="1"/><stop offset="87.5%" stop-color="rgb(189, 0, 38)" stop-opacity="1"/><stop offset="100%" stop-color="rgb(128, 0, 38)" stop-opacity="1"/></linearGradient></g><g class="patterns"/></defs><g class="bglayer"/><g class="layer-below"><g class="imagelayer"/><g class="shapelayer"/></g><g class="cartesianlayer"/><g class="polarlayer"/><g class="smithlayer"/><g class="ternarylayer"/><g class="geolayer"/><g class="funnelarealayer"/><g class="pielayer"/><g class="iciclelayer"/><g class="treemaplayer"/><g class="sunburstlayer"><g class="trace sunburst" stroke-linejoin="round" style="opacity: 1;"><g class="slice"><path class="surface" d="M282.5,260A0,0 0,1,0 282.5,260A0,0 0,1,0 282.5,260ZM324.5,260A42,42 0,1,1 240.5,260A42,42 0,1,1 324.5,260Z" style="pointer-events: none; stroke-width: 1; fill: rgb(255, 255, 255); fill-opacity: 1; stroke: rgb(0, 0, 0); stroke-opacity: 1;"/><g class="slicetext"><text data-notex="1" class="slicetext" text-anchor="middle" x="0" y="0" style="font-family: 'Times New Roman'; font-size: 12px; fill: rgb(0, 0, 0); fill-opacity: 1; white-space: pre;" transform="translate(282.5,264)">100</text></g></g><g class="slice cursor-pointer"><path class="surface" d="M324.5,260L366.5,260A84,84 0,0,0 201.42172523439575,238.0383661574741L241.96086261719788,249.01918307873706A42,42 0,0,1 324.5,260Z" style="pointer-events: none; stroke-width: 1; fill: rgb(128, 0, 38); fill-opacity: 1; stroke: rgb(0, 0, 0); stroke-opacity: 1;"/><g class="slicetext"><text data-notex="1" class="slicetext" text-anchor="middle" x="0" y="0" style="font-family: 'Times New Roman'; font-size: 12px; fill: rgb(0, 0, 0); fill-opacity: 1; white-space: pre;" transform="translate(290.6233124339003,198.9397705295677)scale(0.9809564809941194)rotate(7.5779999999999745)"><tspan class="line" dy="0em" x="0" y="0">Food Production</tspan><tspan class="line" dy="1.3em" x="0" y="0">45.79</tspan></text></g></g><g class="slice cursor-pointer"><path class="surface" d="M241.96086261719788,249.01918307873706L201.42172523439575,238.0383661574741A84,84 0,0,0 292.76612719495074,343.3702982627332L287.63306359747537,301.6851491313666A42,42 0,0,1 241.96086261719788,249.01918307873706Z" style="pointer-events: none; stroke-width: 1; fill: rgb(250, 73, 41); fill-opacity: 1; stroke: rgb(0, 0, 0); stroke-opacity: 1;"/><g class="slicetext"><text data-notex="1" class="slicetext" text-anchor="middle" x="0" y="0" style="font-family: 'Times New Roman'; font-size: 12px; fill: rgb(0, 0, 0); fill-opacity: 1; white-space: pre;" transform="translate(241.57596928472788,295.48953329524346)scale(0.9842211435651563)rotate(49.067999999999984)"><tspan class="line" dy="0em" x="0" y="0">Food Processing</tspan><tspan class="line" dy="1.3em" x="0" y="0">31.16</tspan></text></g></g><g class="slice cursor-pointer"><path class="surface" d="M287.63306359747537,301.6851491313666L292.76612719495074,343.3702982627332A84,84 0,0,0 366.5,260L324.5,260A42,42 0,0,1 287.63306359747537,301.6851491313666Z" style="pointer-events: none; stroke-width: 1; fill: rgb(254, 160, 68); fill-opacity: 1; stroke: rgb(0, 0, 0); stroke-opacity: 1;"/><g class="slicetext"><text data-notex="1" class="slicetext" text-anchor="middle" x="0" y="0" style="font-family: 'Times New Roman'; font-size: 12px; fill: rgb(0, 0, 0); fill-opacity: 1; white-space: pre;" transform="translate(325.1326512324646,297.70492068302593)scale(0.8820427465330685)rotate(-48.50999999999999)"><tspan class="line" dy="0em" x="0" y="0">Food Distribution</tspan><tspan class="line" dy="1.3em" x="0" y="0">23.05</tspan></text></g></g><g class="slice cursor-pointer"><path class="surface" d="M366.5,260L408.5,260A126,126 0,0,0 230.9379706609631,145.03323467001303L248.1253137739754,183.35548978000867A84,84 0,0,1 366.5,260Z" style="pointer-events: none; stroke-width: 1; fill: rgb(247, 67, 39); fill-opacity: 1; stroke: rgb(0, 0, 0); stroke-opacity: 1;"/><g class="slicetext"><text data-notex="1" class="slicetext" text-anchor="middle" x="0" y="0" style="font-family: 'Times New Roman'; font-size: 12px; fill: rgb(0, 0, 0); fill-opacity: 1; white-space: pre;" transform="translate(340.2022495622417,170.88095328862155)rotate(32.922000000000025)"><tspan class="line" dy="0em" x="0" y="0">Aquaculture</tspan><tspan class="line" dy="1.3em" x="0" y="0">31.71</tspan></text></g></g><g class="slice cursor-pointer"><path class="surface" d="M248.1253137739754,183.35548978000867L230.9379706609631,145.03323467001303A126,126 0,0,0 160.8825878515936,227.05754923621114L201.42172523439575,238.0383661574741A84,84 0,0,1 248.1253137739754,183.35548978000867Z" style="pointer-events: none; stroke-width: 1; fill: rgb(254, 223, 130); fill-opacity: 1; stroke: rgb(0, 0, 0); stroke-opacity: 1;"/><g class="slicetext"><text data-notex="1" class="slicetext" text-anchor="middle" x="0" y="0" style="font-family: 'Times New Roman'; font-size: 12px; fill: rgb(0, 0, 0); fill-opacity: 1; white-space: pre;" transform="translate(201.56343184624407,190.8736403921796)rotate(-49.5)"><tspan class="line" dy="0em" x="0" y="0">Agriculture</tspan><tspan class="line" dy="1.3em" x="0" y="0">14.08</tspan></text></g></g><g class="slice"><path class="surface" d="M201.42172523439575,238.0383661574741L160.8825878515936,227.05754923621114A126,126 0,0,0 297.8991907924261,385.0554473940998L292.76612719495074,343.3702982627332A84,84 0,0,1 201.42172523439575,238.0383661574741Z" style="pointer-events: none; stroke-width: 1; fill: rgb(250, 73, 41); fill-opacity: 1; stroke: rgb(0, 0, 0); stroke-opacity: 1; opacity: 1;"/><g class="slicetext"><text data-notex="1" class="slicetext" text-anchor="middle" x="0" y="0" style="font-family: 'Times New Roman'; font-size: 12px; fill: rgb(0, 0, 0); fill-opacity: 1; white-space: pre;" transform="translate(209.07942903719817,323.67070281685994)rotate(49.067999999999984)"><tspan class="line" dy="0em" x="0" y="0">Meat Processing</tspan><tspan class="line" dy="1.3em" x="0" y="0">31.16</tspan></text></g></g><g class="slice cursor-pointer"><path class="surface" d="M292.76612719495074,343.3702982627332L297.8991907924261,385.0554473940998A126,126 0,0,0 385.1296116108842,333.096941253373L350.9197410739228,308.7312941689153A84,84 0,0,1 292.76612719495074,343.3702982627332Z" style="pointer-events: none; stroke-width: 1; fill: rgb(254, 226, 138); fill-opacity: 1; stroke: rgb(0, 0, 0); stroke-opacity: 1;"/><g class="slicetext"><text data-notex="1" class="slicetext" text-anchor="middle" x="0" y="0" style="font-family: 'Times New Roman'; font-size: 12px; fill: rgb(0, 0, 0); fill-opacity: 1; white-space: pre;" transform="translate(335.90489001200626,346.40486353379856)"><tspan class="line" dy="0em" x="0" y="0">Retail</tspan><tspan class="line" dy="1.3em" x="0" y="0">13.2</tspan></text></g></g><g class="slice"><path class="surface" d="M350.9197410739228,308.7312941689153L385.1296116108842,333.096941253373A126,126 0,0,0 408.5,260.00000000000006L366.5,260A84,84 0,0,1 350.9197410739228,308.7312941689153Z" style="pointer-events: none; stroke-width: 1; fill: rgb(255, 239, 166); fill-opacity: 1; stroke: rgb(0, 0, 0); stroke-opacity: 1; opacity: 1;"/><g class="slicetext"><text data-notex="1" class="slicetext" text-anchor="middle" x="0" y="0" style="font-family: 'Times New Roman'; font-size: 12px; fill: rgb(0, 0, 0); fill-opacity: 1; white-space: pre;" transform="translate(379.9125797923611,291.14452923333727)rotate(-72.26999999999998)"><tspan class="line" dy="0em" x="0" y="0">Wholesale</tspan><tspan class="line" dy="1.3em" x="0" y="0">9.85</tspan></text></g></g><g class="slice cursor-pointer"><path class="surface" d="M408.5,260L450.5,260A168,168 0,0,0 213.75062754795078,106.71097956001734L230.9379706609631,145.03323467001303A126,126 0,0,1 408.5,260Z" style="pointer-events: none; stroke-width: 1; fill: rgb(247, 67, 39); fill-opacity: 1; stroke: rgb(0, 0, 0); stroke-opacity: 1;"/><g class="slicetext"><text data-notex="1" class="slicetext" text-anchor="middle" x="0" y="0" style="font-family: 'Times New Roman'; font-size: 12px; fill: rgb(0, 0, 0); fill-opacity: 1; white-space: pre;" transform="translate(362.1118129261621,137.04242159066828)rotate(32.922000000000025)"><tspan class="line" dy="0em" x="0" y="0">Freshwater Farming</tspan><tspan class="line" dy="1.3em" x="0" y="0">31.71</tspan></text></g></g><g class="slice"><path class="surface" d="M230.9379706609631,145.03323467001303L213.75062754795078,106.71097956001734A168,168 0,0,0 144.62730540643747,164.00458299736266L179.0954790548281,188.00343724802198A126,126 0,0,1 230.9379706609631,145.03323467001303Z" style="pointer-events: none; stroke-width: 1; fill: rgb(255, 244, 177); fill-opacity: 1; stroke: rgb(0, 0, 0); stroke-opacity: 1; opacity: 1;"/><g class="slicetext"><text data-notex="1" class="slicetext" text-anchor="middle" x="0" y="0" style="font-family: 'Times New Roman'; font-size: 12px; fill: rgb(0, 0, 0); fill-opacity: 1; white-space: pre;" transform="translate(187.18624881897398,145.0063055536906)rotate(-39.653999999999996)"><tspan class="line" dy="0em" x="0" y="0">Livestock</tspan><tspan class="line" dy="1.3em" x="0" y="0">8.61</tspan></text></g></g><g class="slice"><path class="surface" d="M179.0954790548281,188.00343724802198L144.62730540643747,164.00458299736266A168,168 0,0,0 120.3434504687915,216.07673231494812L160.88258785159363,227.0575492362111A126,126 0,0,1 179.0954790548281,188.00343724802198Z" style="pointer-events: none; stroke-width: 1; fill: rgb(255, 255, 204); fill-opacity: 1; stroke: rgb(0, 0, 0); stroke-opacity: 1; opacity: 1;"/><g class="slicetext"><text data-notex="1" class="slicetext" text-anchor="middle" x="0" y="0" style="font-family: 'Times New Roman'; font-size: 12px; fill: rgb(0, 0, 0); fill-opacity: 1; white-space: pre;" transform="translate(139.39480295353405,193.26286908756387)scale(0.7132425990132204)rotate(-64.99800000000005)"><tspan class="line" dy="0em" x="0" y="0">Crop Farming</tspan><tspan class="line" dy="1.3em" x="0" y="0">5.47</tspan></text></g></g><g class="slice"><path class="surface" d="M297.8991907924261,385.0554473940998L303.0322543899015,426.74059652546634A168,168 0,0,0 376.0551035700156,399.54011106489645L352.66632767751173,364.65508329867237A126,126 0,0,1 297.8991907924261,385.0554473940998Z" style="pointer-events: none; stroke-width: 1; fill: rgb(255, 248, 187); fill-opacity: 1; stroke: rgb(0, 0, 0); stroke-opacity: 1; opacity: 1;"/><g class="slicetext"><text data-notex="1" class="slicetext" text-anchor="middle" x="0" y="0" style="font-family: 'Times New Roman'; font-size: 12px; fill: rgb(0, 0, 0); fill-opacity: 1; white-space: pre;" transform="translate(333.6080108480268,397.64828357553677)scale(0.9423601745758159)rotate(-20.430000000000064)"><tspan class="line" dy="0em" x="0" y="0">Supermarkets</tspan><tspan class="line" dy="1.3em" x="0" y="0">7.45</tspan></text></g></g><g class="slice"><path class="surface" d="M352.66632767751173,364.65508329867237L376.0551035700156,399.54011106489645A168,168 0,0,0 419.3394821478456,357.46258833783065L385.1296116108842,333.096941253373A126,126 0,0,1 352.66632767751173,364.65508329867237Z" style="pointer-events: none; stroke-width: 1; fill: rgb(255, 254, 202); fill-opacity: 1; stroke: rgb(0, 0, 0); stroke-opacity: 1; opacity: 1;"/><g class="slicetext"><text data-notex="1" class="slicetext" text-anchor="middle" x="0" y="0" style="font-family: 'Times New Roman'; font-size: 12px; fill: rgb(0, 0, 0); fill-opacity: 1; white-space: pre;" transform="translate(390.7038111736929,371.4359801839747)scale(0.54678639234727)rotate(-44.190000000000055)"><tspan class="line" dy="0em" x="0" y="0">Convenience Stores</tspan><tspan class="line" dy="1.3em" x="0" y="0">5.75</tspan></text></g></g><g class="slice"><path class="surface" d="M450.5,260L492.5,260A210,210 0,0,0 357.22319796423926,63.743933377851704L342.2785583713914,102.99514670228137A168,168 0,0,1 450.5,260Z" style="pointer-events: none; stroke-width: 1; fill: rgb(254, 189, 88); fill-opacity: 1; stroke: rgb(0, 0, 0); stroke-opacity: 1; opacity: 1;"/><g class="slicetext"><text data-notex="1" class="slicetext" text-anchor="middle" x="0" y="0" style="font-family: 'Times New Roman'; font-size: 12px; fill: rgb(0, 0, 0); fill-opacity: 1; white-space: pre;" transform="translate(440.5099838116187,150.66823526880094)rotate(55.422000000000025)"><tspan class="line" dy="0em" x="0" y="0">Tilapia</tspan><tspan class="line" dy="1.3em" x="0" y="0">19.21</tspan></text></g></g><g class="slice"><path class="surface" d="M342.2785583713914,102.99514670228137L357.22319796423926,63.743933377851704A210,210 0,0,0 196.5632844349385,68.3887244500217L213.75062754795078,106.71097956001734A168,168 0,0,1 342.2785583713914,102.99514670228137Z" style="pointer-events: none; stroke-width: 1; fill: rgb(255, 229, 143); fill-opacity: 1; stroke: rgb(0, 0, 0); stroke-opacity: 1; opacity: 1;"/><g class="slicetext"><text data-notex="1" class="slicetext" text-anchor="middle" x="0" y="0" style="font-family: 'Times New Roman'; font-size: 12px; fill: rgb(0, 0, 0); fill-opacity: 1; white-space: pre;" transform="translate(276.94767230267985,67.94906081296583)rotate(-1.655999999999949)"><tspan class="line" dy="0em" x="0" y="0">Catfish</tspan><tspan class="line" dy="1.3em" x="0" y="0">12.5</tspan></text></g></g></g></g><g class="glimages"/><defs id="topdefs-3afafd"><g class="clips"/></defs><g class="layer-above"><g class="imagelayer"/><g class="shapelayer"/></g><g class="infolayer"><g class="cba92700 colorbar" transform="translate(10,50)"><rect class="cbbg" x="571.5" y="63" width="48.015625" height="295" style="fill: rgb(0, 0, 0); fill-opacity: 0; stroke: rgb(68, 68, 68); stroke-opacity: 1; stroke-width: 0;"/><g class="cbfills" transform="translate(0,93)"><rect class="cbfill gradient_filled" style="fill: url('#g3afafd-cba92700');" x="582" y="0" width="15" height="254"/></g><g class="cblines" transform="translate(0,93)"/><g class="cbaxis crisp" transform="translate(0,-50)"><g class="ycba92700tick"><text text-anchor="start" x="600.4" y="4.199999999999999" transform="translate(0,368.46000000000004)" style="font-family: 'Times New Roman'; font-size: 12px; fill: rgb(42, 63, 95); fill-opacity: 1; white-space: pre; opacity: 1;">10</text></g><g class="ycba92700tick"><text text-anchor="start" x="600.4" y="4.199999999999999" style="font-family: 'Times New Roman'; font-size: 12px; fill: rgb(42, 63, 95); fill-opacity: 1; white-space: pre; opacity: 1;" transform="translate(0,305.47)">20</text></g><g class="ycba92700tick"><text text-anchor="start" x="600.4" y="4.199999999999999" style="font-family: 'Times New Roman'; font-size: 12px; fill: rgb(42, 63, 95); fill-opacity: 1; white-space: pre; opacity: 1;" transform="translate(0,242.47000000000006)">30</text></g><g class="ycba92700tick"><text text-anchor="start" x="600.4" y="4.199999999999999" style="font-family: 'Times New Roman'; font-size: 12px; fill: rgb(42, 63, 95); fill-opacity: 1; white-space: pre; opacity: 1;" transform="translate(0,179.47000000000006)">40</text></g></g><g class="cbtitleunshift" transform="translate(-10,-50)"><g class="cbtitle" transform="translate(-0.5,-0.5)"><text class="ycba92700title" x="592.25" y="135.75" text-anchor="start" style="opacity: 1; font-family: 'Times New Roman'; font-size: 13px; fill: rgb(42, 63, 95); fill-opacity: 1; white-space: pre;">%</text></g></g><rect class="cboutline" x="582" y="93" width="15" height="254" style="stroke: rgb(68, 68, 68); stroke-opacity: 1; fill: none; stroke-width: 1;"/></g><g class="g-gtitle"><text class="gtitle" x="320" y="25" text-anchor="middle" dy="0em" style="opacity: 1; font-family: 'Times New Roman'; font-size: 16px; fill: rgb(42, 63, 95); fill-opacity: 1; white-space: pre;">Food Industry Distribution by Category (2023) (%)</text></g></g></svg>