<svg class="main-svg" xmlns="http://www.w3.org/2000/svg" xmlns:xlink="http://www.w3.org/1999/xlink" width="1920" height="1440" style="" viewBox="0 0 640 480"><rect x="0" y="0" width="640" height="480" style="fill: rgb(255, 255, 255); fill-opacity: 1;"/><defs id="defs-661e4d"><g class="clips"/><g class="gradients"><linearGradient x1="0" y1="1" x2="0" y2="0" gradientUnits="objectBoundingBox" id="g661e4d-cb47e9e2"><stop offset="0%" stop-color="rgb(255, 245, 240)" stop-opacity="1"/><stop offset="12.5%" stop-color="rgb(254, 224, 210)" stop-opacity="1"/><stop offset="25%" stop-color="rgb(252, 187, 161)" stop-opacity="1"/><stop offset="37.5%" stop-color="rgb(252, 146, 114)" stop-opacity="1"/><stop offset="50%" stop-color="rgb(251, 106, 74)" stop-opacity="1"/><stop offset="62.5%" stop-color="rgb(239, 59, 44)" stop-opacity="1"/><stop offset="75%" stop-color="rgb(203, 24, 29)" stop-opacity="1"/><stop offset="87.5%" stop-color="rgb(165, 15, 21)" stop-opacity="1"/><stop offset="100%" stop-color="rgb(103, 0, 13)" stop-opacity="1"/></linearGradient></g><g class="patterns"/></defs><g class="bglayer"/><g class="layer-below"><g class="imagelayer"/><g class="shapelayer"/></g><g class="cartesianlayer"/><g class="polarlayer"/><g class="smithlayer"/><g class="ternarylayer"/><g class="geolayer"/><g class="funnelarealayer"/><g class="pielayer"/><g class="iciclelayer"/><g class="treemaplayer"/><g class="sunburstlayer"><g class="trace sunburst" stroke-linejoin="round" style="opacity: 1;"><g class="slice"><path class="surface" d="M282.5,260A0,0 0,1,0 282.5,260A0,0 0,1,0 282.5,260ZM324.5,260A42,42 0,1,1 240.5,260A42,42 0,1,1 324.5,260Z" style="pointer-events: none; stroke-width: 1; fill: rgb(255, 255, 255); fill-opacity: 1; stroke: rgb(0, 0, 0); stroke-opacity: 1;"/><g class="slicetext"><text data-notex="1" class="slicetext" text-anchor="middle" x="0" y="0" style="font-family: 'Times New Roman'; font-size: 12px; fill: rgb(0, 0, 0); fill-opacity: 1; white-space: pre;" transform="translate(282.5,264)">100.01</text></g></g><g class="slice cursor-pointer"><path class="surface" d="M324.5,260L366.5,260A84,84 0,0,0 223.792663391926,199.92131302711172L253.146331695963,229.96065651355585A42,42 0,0,1 324.5,260Z" style="pointer-events: none; stroke-width: 1; fill: rgb(103, 0, 13); fill-opacity: 1; stroke: rgb(0, 0, 0); stroke-opacity: 1;"/><g class="slicetext"><text data-notex="1" class="slicetext" text-anchor="middle" x="0" y="0" style="font-family: 'Times New Roman'; font-size: 12px; fill: rgb(0, 0, 0); fill-opacity: 1; white-space: pre;" transform="translate(306.4240343961694,203.17227287044423)scale(0.9842211435651563)rotate(22.830716928307197)"><tspan class="line" dy="0em" x="0" y="0">Food Processing</tspan><tspan class="line" dy="1.3em" x="0" y="0">37.32</tspan></text></g></g><g class="slice cursor-pointer"><path class="surface" d="M253.146331695963,229.96065651355585L223.792663391926,199.92131302711172A84,84 0,0,0 266.1528519945632,342.39399706342897L274.3264259972816,301.1969985317145A42,42 0,0,1 253.146331695963,229.96065651355585Z" style="pointer-events: none; stroke-width: 1; fill: rgb(146, 10, 19); fill-opacity: 1; stroke: rgb(0, 0, 0); stroke-opacity: 1;"/><g class="slicetext"><text data-notex="1" class="slicetext" text-anchor="middle" x="0" y="0" style="font-family: 'Times New Roman'; font-size: 12px; fill: rgb(0, 0, 0); fill-opacity: 1; white-space: pre;" transform="translate(230.88025012186012,275.3476601865771)scale(0.9548392757132221)rotate(73.44165583441657)"><tspan class="line" dy="0em" x="0" y="0">Food Distribution</tspan><tspan class="line" dy="1.3em" x="0" y="0">34.57</tspan></text></g></g><g class="slice cursor-pointer"><path class="surface" d="M274.3264259972816,301.1969985317145L266.1528519945632,342.39399706342897A84,84 0,0,0 366.5,260L324.5,260A42,42 0,0,1 274.3264259972816,301.1969985317145Z" style="pointer-events: none; stroke-width: 1; fill: rgb(214, 35, 34); fill-opacity: 1; stroke: rgb(0, 0, 0); stroke-opacity: 1;"/><g class="slicetext"><text data-notex="1" class="slicetext" text-anchor="middle" x="0" y="0" style="font-family: 'Times New Roman'; font-size: 12px; fill: rgb(0, 0, 0); fill-opacity: 1; white-space: pre;" transform="translate(316.8523541130364,301.83752318584976)scale(0.9809564809941194)rotate(-39.38906109389063)"><tspan class="line" dy="0em" x="0" y="0">Food Production</tspan><tspan class="line" dy="1.3em" x="0" y="0">28.12</tspan></text></g></g><g class="slice"><path class="surface" d="M366.5,260L408.5,260A126,126 0,0,0 194.43899508788903,169.88196954066757L223.792663391926,199.92131302711172A84,84 0,0,1 366.5,260Z" style="pointer-events: none; stroke-width: 1; fill: rgb(103, 0, 13); fill-opacity: 1; stroke: rgb(0, 0, 0); stroke-opacity: 1; opacity: 1;"/><g class="slicetext"><text data-notex="1" class="slicetext" text-anchor="middle" x="0" y="0" style="font-family: 'Times New Roman'; font-size: 12px; fill: rgb(0, 0, 0); fill-opacity: 1; white-space: pre;" transform="translate(323.0916163614665,163.5810908754434)rotate(22.830716928307197)"><tspan class="line" dy="0em" x="0" y="0">Dairy Processing</tspan><tspan class="line" dy="1.3em" x="0" y="0">37.32</tspan></text></g></g><g class="slice cursor-pointer"><path class="surface" d="M223.792663391926,199.92131302711172L194.43899508788903,169.88196954066757A126,126 0,0,0 173.10806779804182,322.5252362580277L209.57204519869452,301.68349083868515A84,84 0,0,1 223.792663391926,199.92131302711172Z" style="pointer-events: none; stroke-width: 1; fill: rgb(251, 111, 79); fill-opacity: 1; stroke: rgb(0, 0, 0); stroke-opacity: 1;"/><g class="slicetext"><text data-notex="1" class="slicetext" text-anchor="middle" x="0" y="0" style="font-family: 'Times New Roman'; font-size: 12px; fill: rgb(0, 0, 0); fill-opacity: 1; white-space: pre;" transform="translate(178.18233455281552,241.66343452145279)"><tspan class="line" dy="0em" x="0" y="0">Retail</tspan><tspan class="line" dy="1.3em" x="0" y="0">20.95</tspan></text></g></g><g class="slice cursor-pointer"><path class="surface" d="M209.57204519869452,301.68349083868515L173.10806779804182,322.5252362580277A126,126 0,0,0 257.9792779918448,383.59099559514345L266.1528519945632,342.39399706342897A84,84 0,0,1 209.57204519869452,301.68349083868515Z" style="pointer-events: none; stroke-width: 1; fill: rgb(252, 185, 159); fill-opacity: 1; stroke: rgb(0, 0, 0); stroke-opacity: 1;"/><g class="slicetext"><text data-notex="1" class="slicetext" text-anchor="middle" x="0" y="0" style="font-family: 'Times New Roman'; font-size: 12px; fill: rgb(0, 0, 0); fill-opacity: 1; white-space: pre;" transform="translate(224.59848685177477,340.4734362806071)rotate(35.735426457354265)"><tspan class="line" dy="0em" x="0" y="0">Wholesale</tspan><tspan class="line" dy="1.3em" x="0" y="0">13.62</tspan></text></g></g><g class="slice"><path class="surface" d="M266.1528519945632,342.39399706342897L257.9792779918448,383.59099559514345A126,126 0,0,0 397.3715614447412,311.77378073163146L359.0810409631608,294.51585382108766A84,84 0,0,1 266.1528519945632,342.39399706342897Z" style="pointer-events: none; stroke-width: 1; fill: rgb(251, 106, 74); fill-opacity: 1; stroke: rgb(0, 0, 0); stroke-opacity: 1; opacity: 1;"/><g class="slicetext"><text data-notex="1" class="slicetext" text-anchor="middle" x="0" y="0" style="font-family: 'Times New Roman'; font-size: 12px; fill: rgb(0, 0, 0); fill-opacity: 1; white-space: pre;" transform="translate(327.64031339125694,347.61424919282865)rotate(-27.258274172582787)"><tspan class="line" dy="0em" x="0" y="0">Aquaculture</tspan><tspan class="line" dy="1.3em" x="0" y="0">21.38</tspan></text></g></g><g class="slice cursor-pointer"><path class="surface" d="M359.0810409631608,294.51585382108766L397.3715614447412,311.77378073163146A126,126 0,0,0 408.5,260.00000000000006L366.5,260A84,84 0,0,1 359.0810409631608,294.51585382108766Z" style="pointer-events: none; stroke-width: 1; fill: rgb(255, 238, 231); fill-opacity: 1; stroke: rgb(0, 0, 0); stroke-opacity: 1;"/><g class="slicetext"><text data-notex="1" class="slicetext" text-anchor="middle" x="0" y="0" style="font-family: 'Times New Roman'; font-size: 12px; fill: rgb(0, 0, 0); fill-opacity: 1; white-space: pre;" transform="translate(389.7356419133937,283.04960609604177)scale(0.7469313660371572)rotate(-77.86921307869216)"><tspan class="line" dy="0em" x="0" y="0">Agriculture</tspan><tspan class="line" dy="1.3em" x="0" y="0">6.74</tspan></text></g></g><g class="slice cursor-pointer"><path class="surface" d="M194.43899508788903,169.88196954066757L165.08532678385203,139.84262605422344A168,168 0,0,0 115.87116382417332,281.4203397426258L157.52837286812996,276.06525480696934A126,126 0,0,1 194.43899508788903,169.88196954066757Z" style="pointer-events: none; stroke-width: 1; fill: rgb(252, 174, 146); fill-opacity: 1; stroke: rgb(0, 0, 0); stroke-opacity: 1;"/><g class="slicetext"><text data-notex="1" class="slicetext" text-anchor="middle" x="0" y="0" style="font-family: 'Times New Roman'; font-size: 12px; fill: rgb(0, 0, 0); fill-opacity: 1; white-space: pre;" transform="translate(144.0313748579108,212.0402867327721)rotate(-70.83191680831919)"><tspan class="line" dy="0em" x="0" y="0">Convenience Stores</tspan><tspan class="line" dy="1.3em" x="0" y="0">14.72</tspan></text></g></g><g class="slice"><path class="surface" d="M157.52837286812996,276.06525480696934L115.87116382417332,281.4203397426258A168,168 0,0,0 136.64409039738908,343.3669816773703L173.10806779804182,322.5252362580277A126,126 0,0,1 157.52837286812996,276.06525480696934Z" style="pointer-events: none; stroke-width: 1; fill: rgb(255, 241, 234); fill-opacity: 1; stroke: rgb(0, 0, 0); stroke-opacity: 1; opacity: 1;"/><g class="slicetext"><text data-notex="1" class="slicetext" text-anchor="middle" x="0" y="0" style="font-family: 'Times New Roman'; font-size: 12px; fill: rgb(0, 0, 0); fill-opacity: 1; white-space: pre;" transform="translate(140.1049787844082,307.609743890708)scale(0.8113910358266766)rotate(71.46185381461851)"><tspan class="line" dy="0em" x="0" y="0">Supermarkets</tspan><tspan class="line" dy="1.3em" x="0" y="0">6.23</tspan></text></g></g><g class="slice"><path class="surface" d="M173.10806779804182,322.5252362580277L136.64409039738908,343.3669816773703A168,168 0,0,0 196.1045713850787,404.0827190000384L217.70342853880902,368.0620392500288A126,126 0,0,1 173.10806779804182,322.5252362580277Z" style="pointer-events: none; stroke-width: 1; fill: rgb(254, 231, 220); fill-opacity: 1; stroke: rgb(0, 0, 0); stroke-opacity: 1; opacity: 1;"/><g class="slicetext"><text data-notex="1" class="slicetext" text-anchor="middle" x="0" y="0" style="font-family: 'Times New Roman'; font-size: 12px; fill: rgb(0, 0, 0); fill-opacity: 1; white-space: pre;" transform="translate(177.9668253876992,362.1546473986628)scale(0.9466185082507456)rotate(45.59844015598446)"><tspan class="line" dy="0em" x="0" y="0">Regional Hubs</tspan><tspan class="line" dy="1.3em" x="0" y="0">8.14</tspan></text></g></g><g class="slice"><path class="surface" d="M217.70342853880902,368.0620392500288L196.1045713850787,404.0827190000384A168,168 0,0,0 249.8057039891264,424.78799412685794L257.9792779918448,383.59099559514345A126,126 0,0,1 217.70342853880902,368.0620392500288Z" style="pointer-events: none; stroke-width: 1; fill: rgb(255, 245, 240); fill-opacity: 1; stroke: rgb(0, 0, 0); stroke-opacity: 1; opacity: 1;"/><g class="slicetext"><text data-notex="1" class="slicetext" text-anchor="middle" x="0" y="0" style="font-family: 'Times New Roman'; font-size: 12px; fill: rgb(0, 0, 0); fill-opacity: 1; white-space: pre;" transform="translate(226.80168596239778,404.1858586009269)scale(0.5988515247217625)rotate(21.084891510848934)"><tspan class="line" dy="0em" x="0" y="0">Export Networks</tspan><tspan class="line" dy="1.3em" x="0" y="0">5.48</tspan></text></g></g><g class="slice"><path class="surface" d="M397.3715614447412,311.77378073163146L435.66208192632155,329.0317076421753A168,168 0,0,0 450.5,260.00000000000006L408.5,260.00000000000006A126,126 0,0,1 397.3715614447412,311.77378073163146Z" style="pointer-events: none; stroke-width: 1; fill: rgb(255, 238, 231); fill-opacity: 1; stroke: rgb(0, 0, 0); stroke-opacity: 1; opacity: 1;"/><g class="slicetext"><text data-notex="1" class="slicetext" text-anchor="middle" x="0" y="0" style="font-family: 'Times New Roman'; font-size: 12px; fill: rgb(0, 0, 0); fill-opacity: 1; white-space: pre;" transform="translate(428.1886366836995,291.31482805819985)scale(0.8522883056116176)rotate(-77.86921307869216)"><tspan class="line" dy="0em" x="0" y="0">Crop Farming</tspan><tspan class="line" dy="1.3em" x="0" y="0">6.74</tspan></text></g></g><g class="slice"><path class="surface" d="M165.08532678385203,139.84262605422344L135.73165847981502,109.80328256777929A210,210 0,0,0 77.65768975735301,213.74388759898687L118.62615180588242,222.99511007918952A168,168 0,0,1 165.08532678385203,139.84262605422344Z" style="pointer-events: none; stroke-width: 1; fill: rgb(254, 226, 212); fill-opacity: 1; stroke: rgb(0, 0, 0); stroke-opacity: 1; opacity: 1;"/><g class="slicetext"><text data-notex="1" class="slicetext" text-anchor="middle" x="0" y="0" style="font-family: 'Times New Roman'; font-size: 12px; fill: rgb(0, 0, 0); fill-opacity: 1; white-space: pre;" transform="translate(115.81569497041552,167.0576395334797)rotate(-60.806919308069155)"><tspan class="line" dy="0em" x="0" y="0">Ready Meals</tspan><tspan class="line" dy="1.3em" x="0" y="0">9.15</tspan></text></g></g><g class="slice"><path class="surface" d="M118.62615180588242,222.99511007918952L77.65768975735301,213.74388759898687A210,210 0,0,0 74.21395478021665,286.7754246782822L115.87116382417332,281.4203397426258A168,168 0,0,1 118.62615180588242,222.99511007918952Z" style="pointer-events: none; stroke-width: 1; fill: rgb(255, 245, 239); fill-opacity: 1; stroke: rgb(0, 0, 0); stroke-opacity: 1; opacity: 1;"/><g class="slicetext"><text data-notex="1" class="slicetext" text-anchor="middle" x="0" y="0" style="font-family: 'Times New Roman'; font-size: 12px; fill: rgb(0, 0, 0); fill-opacity: 1; white-space: pre;" transform="translate(83.92486641821445,250.76114808018386)scale(0.7596947601491969)rotate(-87.30026997300274)"><tspan class="line" dy="0em" x="0" y="0">Packaged Snacks</tspan><tspan class="line" dy="1.3em" x="0" y="0">5.57</tspan></text></g></g></g></g><g class="glimages"/><defs id="topdefs-661e4d"><g class="clips"/></defs><g class="layer-above"><g class="imagelayer"/><g class="shapelayer"/></g><g class="infolayer"><g class="cb47e9e2 colorbar" transform="translate(10,50)"><rect class="cbbg" x="571.5" y="63" width="48.015625" height="295" style="fill: rgb(0, 0, 0); fill-opacity: 0; stroke: rgb(68, 68, 68); stroke-opacity: 1; stroke-width: 0;"/><g class="cbfills" transform="translate(0,93)"><rect class="cbfill gradient_filled" style="fill: url('#g661e4d-cb47e9e2');" x="582" y="0" width="15" height="254"/></g><g class="cblines" transform="translate(0,93)"/><g class="cbaxis crisp" transform="translate(0,-50)"><g class="ycb47e9e2tick"><text text-anchor="start" x="600.4" y="4.199999999999999" transform="translate(0,360.94000000000005)" style="font-family: 'Times New Roman'; font-size: 12px; fill: rgb(42, 63, 95); fill-opacity: 1; white-space: pre; opacity: 1;">10</text></g><g class="ycb47e9e2tick"><text text-anchor="start" x="600.4" y="4.199999999999999" style="font-family: 'Times New Roman'; font-size: 12px; fill: rgb(42, 63, 95); fill-opacity: 1; white-space: pre; opacity: 1;" transform="translate(0,321.06000000000006)">15</text></g><g class="ycb47e9e2tick"><text text-anchor="start" x="600.4" y="4.199999999999999" style="font-family: 'Times New Roman'; font-size: 12px; fill: rgb(42, 63, 95); fill-opacity: 1; white-space: pre; opacity: 1;" transform="translate(0,281.1700000000001)">20</text></g><g class="ycb47e9e2tick"><text text-anchor="start" x="600.4" y="4.199999999999999" style="font-family: 'Times New Roman'; font-size: 12px; fill: rgb(42, 63, 95); fill-opacity: 1; white-space: pre; opacity: 1;" transform="translate(0,241.28000000000006)">25</text></g><g class="ycb47e9e2tick"><text text-anchor="start" x="600.4" y="4.199999999999999" style="font-family: 'Times New Roman'; font-size: 12px; fill: rgb(42, 63, 95); fill-opacity: 1; white-space: pre; opacity: 1;" transform="translate(0,201.39000000000004)">30</text></g><g class="ycb47e9e2tick"><text text-anchor="start" x="600.4" y="4.199999999999999" style="font-family: 'Times New Roman'; font-size: 12px; fill: rgb(42, 63, 95); fill-opacity: 1; white-space: pre; opacity: 1;" transform="translate(0,161.51000000000005)">35</text></g></g><g class="cbtitleunshift" transform="translate(-10,-50)"><g class="cbtitle" transform="translate(-0.5,-0.5)"><text class="ycb47e9e2title" x="592.25" y="135.75" text-anchor="start" style="opacity: 1; font-family: 'Times New Roman'; font-size: 13px; fill: rgb(42, 63, 95); fill-opacity: 1; white-space: pre;">%</text></g></g><rect class="cboutline" x="582" y="93" width="15" height="254" style="stroke: rgb(68, 68, 68); stroke-opacity: 1; fill: none; stroke-width: 1;"/></g><g class="g-gtitle"><text class="gtitle" x="320" y="25" text-anchor="middle" dy="0em" style="opacity: 1; font-family: 'Times New Roman'; font-size: 16px; fill: rgb(42, 63, 95); fill-opacity: 1; white-space: pre;">Food Industry Distribution by Category (2023) (%)</text></g></g></svg>