<svg class="main-svg" xmlns="http://www.w3.org/2000/svg" xmlns:xlink="http://www.w3.org/1999/xlink" width="1920" height="1440" style="" viewBox="0 0 640 480"><rect x="0" y="0" width="640" height="480" style="fill: rgb(255, 255, 255); fill-opacity: 1;"/><defs id="defs-535a5f"><g class="clips"/><g class="gradients"><linearGradient x1="0" y1="1" x2="0" y2="0" gradientUnits="objectBoundingBox" id="g535a5f-cb80054b"><stop offset="0%" stop-color="rgb(255, 245, 235)" stop-opacity="1"/><stop offset="12.5%" stop-color="rgb(254, 230, 206)" stop-opacity="1"/><stop offset="25%" stop-color="rgb(253, 208, 162)" stop-opacity="1"/><stop offset="37.5%" stop-color="rgb(253, 174, 107)" stop-opacity="1"/><stop offset="50%" stop-color="rgb(253, 141, 60)" stop-opacity="1"/><stop offset="62.5%" stop-color="rgb(241, 105, 19)" stop-opacity="1"/><stop offset="75%" stop-color="rgb(217, 72, 1)" stop-opacity="1"/><stop offset="87.5%" stop-color="rgb(166, 54, 3)" stop-opacity="1"/><stop offset="100%" stop-color="rgb(127, 39, 4)" stop-opacity="1"/></linearGradient></g><g class="patterns"/></defs><g class="bglayer"/><g class="layer-below"><g class="imagelayer"/><g class="shapelayer"/></g><g class="cartesianlayer"/><g class="polarlayer"/><g class="smithlayer"/><g class="ternarylayer"/><g class="geolayer"/><g class="funnelarealayer"/><g class="pielayer"/><g class="iciclelayer"/><g class="treemaplayer"/><g class="sunburstlayer"><g class="trace sunburst" stroke-linejoin="round" style="opacity: 1;"><g class="slice"><path class="surface" d="M282.5,260A0,0 0,1,0 282.5,260A0,0 0,1,0 282.5,260ZM324.5,260A42,42 0,1,1 240.5,260A42,42 0,1,1 324.5,260Z" style="pointer-events: none; stroke-width: 1; fill: rgb(255, 255, 255); fill-opacity: 1; stroke: rgb(0, 0, 0); stroke-opacity: 1;"/><g class="slicetext"><text data-notex="1" class="slicetext" text-anchor="middle" x="0" y="0" style="font-family: 'Times New Roman'; font-size: 12px; fill: rgb(0, 0, 0); fill-opacity: 1; white-space: pre;" transform="translate(282.5,264)">100</text></g></g><g class="slice cursor-pointer"><path class="surface" d="M324.5,260L366.5,260A84,84 0,0,0 215.54896371774672,209.26974531177274L249.02448185887334,234.63487265588637A42,42 0,0,1 324.5,260Z" style="pointer-events: none; stroke-width: 1; fill: rgb(127, 39, 4); fill-opacity: 1; stroke: rgb(0, 0, 0); stroke-opacity: 1;"/><g class="slicetext"><text data-notex="1" class="slicetext" text-anchor="middle" x="0" y="0" style="font-family: 'Times New Roman'; font-size: 12px; fill: rgb(0, 0, 0); fill-opacity: 1; white-space: pre;" transform="translate(302.12286719656214,201.6109350060588)scale(0.9809564809941194)rotate(18.576000000000022)"><tspan class="line" dy="0em" x="0" y="0">Food Production</tspan><tspan class="line" dy="1.3em" x="0" y="0">39.68</tspan></text></g></g><g class="slice cursor-pointer"><path class="surface" d="M249.02448185887334,234.63487265588637L215.54896371774672,209.26974531177274A84,84 0,0,0 289.7743453247605,343.68443045212257L286.13717266238024,301.8422152260613A42,42 0,0,1 249.02448185887334,234.63487265588637Z" style="pointer-events: none; stroke-width: 1; fill: rgb(154, 49, 3); fill-opacity: 1; stroke: rgb(0, 0, 0); stroke-opacity: 1;"/><g class="slicetext"><text data-notex="1" class="slicetext" text-anchor="middle" x="0" y="0" style="font-family: 'Times New Roman'; font-size: 12px; fill: rgb(0, 0, 0); fill-opacity: 1; white-space: pre;" transform="translate(235.0805959296254,286.185556727121)scale(0.9842211435651563)rotate(61.091999999999985)"><tspan class="line" dy="0em" x="0" y="0">Food Processing</tspan><tspan class="line" dy="1.3em" x="0" y="0">36.7</tspan></text></g></g><g class="slice cursor-pointer"><path class="surface" d="M286.13717266238024,301.8422152260613L289.7743453247605,343.68443045212257A84,84 0,0,0 366.5,259.99999999999994L324.5,260A42,42 0,0,1 286.13717266238024,301.8422152260613Z" style="pointer-events: none; stroke-width: 1; fill: rgb(249, 130, 48); fill-opacity: 1; stroke: rgb(0, 0, 0); stroke-opacity: 1;"/><g class="slicetext"><text data-notex="1" class="slicetext" text-anchor="middle" x="0" y="0" style="font-family: 'Times New Roman'; font-size: 12px; fill: rgb(0, 0, 0); fill-opacity: 1; white-space: pre;" transform="translate(323.9764153439815,298.02744553145743)scale(0.8975796697164143)rotate(-47.48400000000004)"><tspan class="line" dy="0em" x="0" y="0">Food Distribution</tspan><tspan class="line" dy="1.3em" x="0" y="0">23.62</tspan></text></g></g><g class="slice cursor-pointer"><path class="surface" d="M366.5,260L408.5,260A126,126 0,0,0 271.43074923460637,134.48716524796026L275.1204994897376,176.3247768319735A84,84 0,0,1 366.5,260Z" style="pointer-events: none; stroke-width: 1; fill: rgb(242, 107, 22); fill-opacity: 1; stroke: rgb(0, 0, 0); stroke-opacity: 1;"/><g class="slicetext"><text data-notex="1" class="slicetext" text-anchor="middle" x="0" y="0" style="font-family: 'Times New Roman'; font-size: 12px; fill: rgb(0, 0, 0); fill-opacity: 1; white-space: pre;" transform="translate(354.3814979414628,181.50011521773575)rotate(42.48000000000002)"><tspan class="line" dy="0em" x="0" y="0">Agriculture</tspan><tspan class="line" dy="1.3em" x="0" y="0">26.4</tspan></text></g></g><g class="slice"><path class="surface" d="M275.1204994897376,176.3247768319735L271.43074923460637,134.48716524796026A126,126 0,0,0 182.0734455766201,183.90461796765908L215.54896371774672,209.26974531177274A84,84 0,0,1 275.1204994897376,176.3247768319735Z" style="pointer-events: none; stroke-width: 1; fill: rgb(253, 210, 166); fill-opacity: 1; stroke: rgb(0, 0, 0); stroke-opacity: 1; opacity: 1;"/><g class="slicetext"><text data-notex="1" class="slicetext" text-anchor="middle" x="0" y="0" style="font-family: 'Times New Roman'; font-size: 12px; fill: rgb(0, 0, 0); fill-opacity: 1; white-space: pre;" transform="translate(231.11926301494893,167.09265928807838)rotate(-28.94399999999996)"><tspan class="line" dy="0em" x="0" y="0">Aquaculture</tspan><tspan class="line" dy="1.3em" x="0" y="0">13.28</tspan></text></g></g><g class="slice cursor-pointer"><path class="surface" d="M215.54896371774672,209.26974531177274L182.0734455766201,183.90461796765908A126,126 0,0,0 217.07065930485646,367.6800881138144L238.88043953657098,331.78672540920957A84,84 0,0,1 215.54896371774672,209.26974531177274Z" style="pointer-events: none; stroke-width: 1; fill: rgb(241, 105, 19); fill-opacity: 1; stroke: rgb(0, 0, 0); stroke-opacity: 1;"/><g class="slicetext"><text data-notex="1" class="slicetext" text-anchor="middle" x="0" y="0" style="font-family: 'Times New Roman'; font-size: 12px; fill: rgb(0, 0, 0); fill-opacity: 1; white-space: pre;" transform="translate(187.03264598187806,278.1802902747809)rotate(79.21799999999996)"><tspan class="line" dy="0em" x="0" y="0">Meat Processing</tspan><tspan class="line" dy="1.3em" x="0" y="0">26.63</tspan></text></g></g><g class="slice cursor-pointer"><path class="surface" d="M238.88043953657098,331.78672540920957L217.07065930485646,367.6800881138144A126,126 0,0,0 293.41151798714077,385.52664567818385L289.7743453247605,343.68443045212257A84,84 0,0,1 238.88043953657098,331.78672540920957Z" style="pointer-events: none; stroke-width: 1; fill: rgb(254, 226, 199); fill-opacity: 1; stroke: rgb(0, 0, 0); stroke-opacity: 1;"/><g class="slicetext"><text data-notex="1" class="slicetext" text-anchor="middle" x="0" y="0" style="font-family: 'Times New Roman'; font-size: 12px; fill: rgb(0, 0, 0); fill-opacity: 1; white-space: pre;" transform="translate(258.04443762704153,364.61169468543284)scale(0.746932086858573)rotate(13.158000000000015)"><tspan class="line" dy="0em" x="0" y="0">Dairy Processing</tspan><tspan class="line" dy="1.3em" x="0" y="0">10.07</tspan></text></g></g><g class="slice"><path class="surface" d="M289.7743453247605,343.68443045212257L293.41151798714077,385.52664567818385A126,126 0,0,0 408.5,259.99999999999994L366.5,259.99999999999994A84,84 0,0,1 289.7743453247605,343.68443045212257Z" style="pointer-events: none; stroke-width: 1; fill: rgb(249, 130, 48); fill-opacity: 1; stroke: rgb(0, 0, 0); stroke-opacity: 1; opacity: 1;"/><g class="slicetext"><text data-notex="1" class="slicetext" text-anchor="middle" x="0" y="0" style="font-family: 'Times New Roman'; font-size: 12px; fill: rgb(0, 0, 0); fill-opacity: 1; white-space: pre;" transform="translate(359.5661830073555,327.15389963406426)"><tspan class="line" dy="0em" x="0" y="0">Retail</tspan><tspan class="line" dy="1.3em" x="0" y="0">23.62</tspan></text></g></g><g class="slice cursor-pointer"><path class="surface" d="M408.5,260L450.5,260A168,168 0,0,0 267.74099897947514,92.64955366394702L271.43074923460637,134.48716524796026A126,126 0,0,1 408.5,260Z" style="pointer-events: none; stroke-width: 1; fill: rgb(242, 107, 22); fill-opacity: 1; stroke: rgb(0, 0, 0); stroke-opacity: 1;"/><g class="slicetext"><text data-notex="1" class="slicetext" text-anchor="middle" x="0" y="0" style="font-family: 'Times New Roman'; font-size: 12px; fill: rgb(0, 0, 0); fill-opacity: 1; white-space: pre;" transform="translate(383.3673721062486,149.84540785337506)rotate(42.48000000000002)"><tspan class="line" dy="0em" x="0" y="0">Livestock</tspan><tspan class="line" dy="1.3em" x="0" y="0">26.4</tspan></text></g></g><g class="slice cursor-pointer"><path class="surface" d="M182.0734455766201,183.90461796765908L148.59792743549343,158.53949062354548A168,168 0,0,0 133.7811396961475,338.145381117013L170.96085477211062,318.60903583775973A126,126 0,0,1 182.0734455766201,183.90461796765908Z" style="pointer-events: none; stroke-width: 1; fill: rgb(253, 174, 107); fill-opacity: 1; stroke: rgb(0, 0, 0); stroke-opacity: 1;"/><g class="slicetext"><text data-notex="1" class="slicetext" text-anchor="middle" x="0" y="0" style="font-family: 'Times New Roman'; font-size: 12px; fill: rgb(0, 0, 0); fill-opacity: 1; white-space: pre;" transform="translate(133.78783740082818,247.7318247111101)rotate(-85.28399999999999)"><tspan class="line" dy="0em" x="0" y="0">Packaging</tspan><tspan class="line" dy="1.3em" x="0" y="0">18.02</tspan></text></g></g><g class="slice"><path class="surface" d="M170.96085477211062,318.60903583775973L133.7811396961475,338.145381117013A168,168 0,0,0 195.26087907314192,403.5734508184192L217.07065930485646,367.6800881138144A126,126 0,0,1 170.96085477211062,318.60903583775973Z" style="pointer-events: none; stroke-width: 1; fill: rgb(254, 233, 211); fill-opacity: 1; stroke: rgb(0, 0, 0); stroke-opacity: 1; opacity: 1;"/><g class="slicetext"><text data-notex="1" class="slicetext" text-anchor="middle" x="0" y="0" style="font-family: 'Times New Roman'; font-size: 12px; fill: rgb(0, 0, 0); fill-opacity: 1; white-space: pre;" transform="translate(178.25889783410034,357.9505558207294)rotate(46.78200000000004)"><tspan class="line" dy="0em" x="0" y="0">Slaughtering</tspan><tspan class="line" dy="1.3em" x="0" y="0">8.61</tspan></text></g></g><g class="slice"><path class="surface" d="M217.07065930485646,367.6800881138144L195.26087907314192,403.5734508184192A168,168 0,0,0 244.41115705663398,423.6253037987573L253.93336779247548,382.7189778490679A126,126 0,0,1 217.07065930485646,367.6800881138144Z" style="pointer-events: none; stroke-width: 1; fill: rgb(255, 245, 235); fill-opacity: 1; stroke: rgb(0, 0, 0); stroke-opacity: 1; opacity: 1;"/><g class="slicetext"><text data-notex="1" class="slicetext" text-anchor="middle" x="0" y="0" style="font-family: 'Times New Roman'; font-size: 12px; fill: rgb(0, 0, 0); fill-opacity: 1; white-space: pre;" transform="translate(224.30730566374262,402.35422673520776)scale(0.6569183289087334)rotate(22.19399999999996)"><tspan class="line" dy="0em" x="0" y="0">Milk Products</tspan><tspan class="line" dy="1.3em" x="0" y="0">5.05</tspan></text></g></g><g class="slice"><path class="surface" d="M253.93336779247548,382.7189778490679L244.41115705663398,423.6253037987573A168,168 0,0,0 297.048690649521,427.3688609042451L293.41151798714077,385.52664567818385A126,126 0,0,1 253.93336779247548,382.7189778490679Z" style="pointer-events: none; stroke-width: 1; fill: rgb(255, 245, 235); fill-opacity: 1; stroke: rgb(0, 0, 0); stroke-opacity: 1; opacity: 1;"/><g class="slicetext"><text data-notex="1" class="slicetext" text-anchor="middle" x="0" y="0" style="font-family: 'Times New Roman'; font-size: 12px; fill: rgb(0, 0, 0); fill-opacity: 1; white-space: pre;" transform="translate(271.5691016505241,409.74270430595914)scale(0.8550328906505023)rotate(4.067999999999984)"><tspan class="line" dy="0em" x="0" y="0">Ice Cream</tspan><tspan class="line" dy="1.3em" x="0" y="0">5.02</tspan></text></g></g><g class="slice"><path class="surface" d="M450.5,260L492.5,260A210,210 0,0,0 403.0351030207644,88.03695472638978L378.9280824166115,122.42956378111182A168,168 0,0,1 450.5,260Z" style="pointer-events: none; stroke-width: 1; fill: rgb(253, 196, 142); fill-opacity: 1; stroke: rgb(0, 0, 0); stroke-opacity: 1; opacity: 1;"/><g class="slicetext"><text data-notex="1" class="slicetext" text-anchor="middle" x="0" y="0" style="font-family: 'Times New Roman'; font-size: 12px; fill: rgb(0, 0, 0); fill-opacity: 1; white-space: pre;" transform="translate(451.45088851412896,172.10219724001087)rotate(62.51400000000001)"><tspan class="line" dy="0em" x="0" y="0">Dairy Farming</tspan><tspan class="line" dy="1.3em" x="0" y="0">15.27</tspan></text></g></g><g class="slice"><path class="surface" d="M378.9280824166115,122.42956378111182L403.0351030207644,88.03695472638978A210,210 0,0,0 331.78009001145864,55.86408270845001L321.92407200916693,96.69126616676002A168,168 0,0,1 378.9280824166115,122.42956378111182Z" style="pointer-events: none; stroke-width: 1; fill: rgb(255, 242, 229); fill-opacity: 1; stroke: rgb(0, 0, 0); stroke-opacity: 1; opacity: 1;"/><g class="slicetext"><text data-notex="1" class="slicetext" text-anchor="middle" x="0" y="0" style="font-family: 'Times New Roman'; font-size: 12px; fill: rgb(0, 0, 0); fill-opacity: 1; white-space: pre;" transform="translate(361.55485892928516,84.91289561236498)rotate(24.299999999999955)"><tspan class="line" dy="0em" x="0" y="0">Poultry</tspan><tspan class="line" dy="1.3em" x="0" y="0">5.96</tspan></text></g></g><g class="slice"><path class="surface" d="M321.92407200916693,96.69126616676002L331.78009001145864,55.86408270845001A210,210 0,0,0 264.0512487243439,50.8119420799338L267.7409989794751,92.64955366394705A168,168 0,0,1 321.92407200916693,96.69126616676002Z" style="pointer-events: none; stroke-width: 1; fill: rgb(255, 244, 234); fill-opacity: 1; stroke: rgb(0, 0, 0); stroke-opacity: 1; opacity: 1;"/><g class="slicetext"><text data-notex="1" class="slicetext" text-anchor="middle" x="0" y="0" style="font-family: 'Times New Roman'; font-size: 12px; fill: rgb(0, 0, 0); fill-opacity: 1; white-space: pre;" transform="translate(296.5591377248873,67.71894621915126)"><tspan class="line" dy="0em" x="0" y="0">Cattle</tspan><tspan class="line" dy="1.3em" x="0" y="0">5.17</tspan></text></g></g><g class="slice"><path class="surface" d="M148.59792743549343,158.53949062354548L115.12240929436678,133.17436327943182A210,210 0,0,0 73.05753578853975,275.2922916867026L114.94602863083182,272.23383334936204A168,168 0,0,1 148.59792743549343,158.53949062354548Z" style="pointer-events: none; stroke-width: 1; fill: rgb(254, 219, 184); fill-opacity: 1; stroke: rgb(0, 0, 0); stroke-opacity: 1; opacity: 1;"/><g class="slicetext"><text data-notex="1" class="slicetext" text-anchor="middle" x="0" y="0" style="font-family: 'Times New Roman'; font-size: 12px; fill: rgb(0, 0, 0); fill-opacity: 1; white-space: pre;" transform="translate(99.75289869065011,206.0805707979092)rotate(-73.51200000000006)"><tspan class="line" dy="0em" x="0" y="0">Canned Meats</tspan><tspan class="line" dy="1.3em" x="0" y="0">11.48</tspan></text></g></g><g class="slice"><path class="surface" d="M114.94602863083182,272.23383334936204L73.05753578853975,275.2922916867026A210,210 0,0,0 96.60142462018439,357.68172639626624L133.7811396961475,338.145381117013A168,168 0,0,1 114.94602863083182,272.23383334936204Z" style="pointer-events: none; stroke-width: 1; fill: rgb(255, 240, 225); fill-opacity: 1; stroke: rgb(0, 0, 0); stroke-opacity: 1; opacity: 1;"/><g class="slicetext"><text data-notex="1" class="slicetext" text-anchor="middle" x="0" y="0" style="font-family: 'Times New Roman'; font-size: 12px; fill: rgb(0, 0, 0); fill-opacity: 1; white-space: pre;" transform="translate(101.39020539440737,311.75455913185317)scale(0.9660443446555639)rotate(74.05200000000002)"><tspan class="line" dy="0em" x="0" y="0">Vacuum Sealed</tspan><tspan class="line" dy="1.3em" x="0" y="0">6.54</tspan></text></g></g></g></g><g class="glimages"/><defs id="topdefs-535a5f"><g class="clips"/></defs><g class="layer-above"><g class="imagelayer"/><g class="shapelayer"/></g><g class="infolayer"><g class="cb80054b colorbar" transform="translate(10,50)"><rect class="cbbg" x="571.5" y="63" width="48.015625" height="295" style="fill: rgb(0, 0, 0); fill-opacity: 0; stroke: rgb(68, 68, 68); stroke-opacity: 1; stroke-width: 0;"/><g class="cbfills" transform="translate(0,93)"><rect class="cbfill gradient_filled" style="fill: url('#g535a5f-cb80054b');" x="582" y="0" width="15" height="254"/></g><g class="cblines" transform="translate(0,93)"/><g class="cbaxis crisp" transform="translate(0,-50)"><g class="ycb80054btick"><text text-anchor="start" x="600.4" y="4.199999999999999" transform="translate(0,360.50000000000006)" style="font-family: 'Times New Roman'; font-size: 12px; fill: rgb(42, 63, 95); fill-opacity: 1; white-space: pre; opacity: 1;">10</text></g><g class="ycb80054btick"><text text-anchor="start" x="600.4" y="4.199999999999999" style="font-family: 'Times New Roman'; font-size: 12px; fill: rgb(42, 63, 95); fill-opacity: 1; white-space: pre; opacity: 1;" transform="translate(0,323.86000000000007)">15</text></g><g class="ycb80054btick"><text text-anchor="start" x="600.4" y="4.199999999999999" style="font-family: 'Times New Roman'; font-size: 12px; fill: rgb(42, 63, 95); fill-opacity: 1; white-space: pre; opacity: 1;" transform="translate(0,287.22)">20</text></g><g class="ycb80054btick"><text text-anchor="start" x="600.4" y="4.199999999999999" style="font-family: 'Times New Roman'; font-size: 12px; fill: rgb(42, 63, 95); fill-opacity: 1; white-space: pre; opacity: 1;" transform="translate(0,250.58000000000004)">25</text></g><g class="ycb80054btick"><text text-anchor="start" x="600.4" y="4.199999999999999" style="font-family: 'Times New Roman'; font-size: 12px; fill: rgb(42, 63, 95); fill-opacity: 1; white-space: pre; opacity: 1;" transform="translate(0,213.94000000000005)">30</text></g><g class="ycb80054btick"><text text-anchor="start" x="600.4" y="4.199999999999999" style="font-family: 'Times New Roman'; font-size: 12px; fill: rgb(42, 63, 95); fill-opacity: 1; white-space: pre; opacity: 1;" transform="translate(0,177.30000000000007)">35</text></g></g><g class="cbtitleunshift" transform="translate(-10,-50)"><g class="cbtitle" transform="translate(-0.5,-0.5)"><text class="ycb80054btitle" x="592.25" y="135.75" text-anchor="start" style="opacity: 1; font-family: 'Times New Roman'; font-size: 13px; fill: rgb(42, 63, 95); fill-opacity: 1; white-space: pre;">%</text></g></g><rect class="cboutline" x="582" y="93" width="15" height="254" style="stroke: rgb(68, 68, 68); stroke-opacity: 1; fill: none; stroke-width: 1;"/></g><g class="g-gtitle"><text class="gtitle" x="320" y="25" text-anchor="middle" dy="0em" style="opacity: 1; font-family: 'Times New Roman'; font-size: 16px; fill: rgb(42, 63, 95); fill-opacity: 1; white-space: pre;">Food Industry Distribution by Category (2023) (%)</text></g></g></svg>