<svg class="main-svg" xmlns="http://www.w3.org/2000/svg" xmlns:xlink="http://www.w3.org/1999/xlink" width="1920" height="1440" style="" viewBox="0 0 640 480"><rect x="0" y="0" width="640" height="480" style="fill: rgb(255, 255, 255); fill-opacity: 1;"/><defs id="defs-a4b225"><g class="clips"/><g class="gradients"><linearGradient x1="0" y1="1" x2="0" y2="0" gradientUnits="objectBoundingBox" id="ga4b225-cb47ea3e"><stop offset="0%" stop-color="rgb(255, 245, 235)" stop-opacity="1"/><stop offset="12.5%" stop-color="rgb(254, 230, 206)" stop-opacity="1"/><stop offset="25%" stop-color="rgb(253, 208, 162)" stop-opacity="1"/><stop offset="37.5%" stop-color="rgb(253, 174, 107)" stop-opacity="1"/><stop offset="50%" stop-color="rgb(253, 141, 60)" stop-opacity="1"/><stop offset="62.5%" stop-color="rgb(241, 105, 19)" stop-opacity="1"/><stop offset="75%" stop-color="rgb(217, 72, 1)" stop-opacity="1"/><stop offset="87.5%" stop-color="rgb(166, 54, 3)" stop-opacity="1"/><stop offset="100%" stop-color="rgb(127, 39, 4)" stop-opacity="1"/></linearGradient></g><g class="patterns"/></defs><g class="bglayer"/><g class="layer-below"><g class="imagelayer"/><g class="shapelayer"/></g><g class="cartesianlayer"/><g class="polarlayer"/><g class="smithlayer"/><g class="ternarylayer"/><g class="geolayer"/><g class="funnelarealayer"/><g class="pielayer"/><g class="iciclelayer"/><g class="treemaplayer"/><g class="sunburstlayer"><g class="trace sunburst" stroke-linejoin="round" style="opacity: 1;"><g class="slice"><path class="surface" d="M282.5,260A0,0 0,1,0 282.5,260A0,0 0,1,0 282.5,260ZM324.5,260A42,42 0,1,1 240.5,260A42,42 0,1,1 324.5,260Z" style="pointer-events: none; stroke-width: 1; fill: rgb(255, 255, 255); fill-opacity: 1; stroke: rgb(0, 0, 0); stroke-opacity: 1;"/><g class="slicetext"><text data-notex="1" class="slicetext" text-anchor="middle" x="0" y="0" style="font-family: 'Times New Roman'; font-size: 12px; fill: rgb(0, 0, 0); fill-opacity: 1; white-space: pre;" transform="translate(282.5,264)">100</text></g></g><g class="slice cursor-pointer"><path class="surface" d="M324.5,260L366.5,260A84,84 0,0,0 198.6342697908461,255.25244310350996L240.56713489542307,257.626221551755A42,42 0,0,1 324.5,260Z" style="pointer-events: none; stroke-width: 1; fill: rgb(127, 39, 4); fill-opacity: 1; stroke: rgb(0, 0, 0); stroke-opacity: 1;"/><g class="slicetext"><text data-notex="1" class="slicetext" text-anchor="middle" x="0" y="0" style="font-family: 'Times New Roman'; font-size: 12px; fill: rgb(0, 0, 0); fill-opacity: 1; white-space: pre;" transform="translate(284.24141638966495,198.42640747172197)scale(0.9809564809941194)rotate(1.6200000000000045)"><tspan class="line" dy="0em" x="0" y="0">Food Production</tspan><tspan class="line" dy="1.3em" x="0" y="0">49.1</tspan></text></g></g><g class="slice cursor-pointer"><path class="surface" d="M240.56713489542307,257.626221551755L198.6342697908461,255.25244310350996A84,84 0,0,0 293.3420915441032,343.29735320494456L287.9210457720516,301.6486766024723A42,42 0,0,1 240.56713489542307,257.626221551755Z" style="pointer-events: none; stroke-width: 1; fill: rgb(251, 135, 53); fill-opacity: 1; stroke: rgb(0, 0, 0); stroke-opacity: 1;"/><g class="slicetext"><text data-notex="1" class="slicetext" text-anchor="middle" x="0" y="0" style="font-family: 'Times New Roman'; font-size: 12px; fill: rgb(0, 0, 0); fill-opacity: 1; white-space: pre;" transform="translate(245.61770428015046,299.6734108179811)scale(0.9842211435651563)rotate(42.912000000000035)"><tspan class="line" dy="0em" x="0" y="0">Food Processing</tspan><tspan class="line" dy="1.3em" x="0" y="0">27.96</tspan></text></g></g><g class="slice cursor-pointer"><path class="surface" d="M287.9210457720516,301.6486766024723L293.3420915441032,343.29735320494456A84,84 0,0,0 366.5,260L324.5,260A42,42 0,0,1 287.9210457720516,301.6486766024723Z" style="pointer-events: none; stroke-width: 1; fill: rgb(253, 166, 95); fill-opacity: 1; stroke: rgb(0, 0, 0); stroke-opacity: 1;"/><g class="slicetext"><text data-notex="1" class="slicetext" text-anchor="middle" x="0" y="0" style="font-family: 'Times New Roman'; font-size: 12px; fill: rgb(0, 0, 0); fill-opacity: 1; white-space: pre;" transform="translate(325.35600338810013,297.6393180817914)scale(0.8790288131920945)rotate(-48.70799999999997)"><tspan class="line" dy="0em" x="0" y="0">Food Distribution</tspan><tspan class="line" dy="1.3em" x="0" y="0">22.94</tspan></text></g></g><g class="slice"><path class="surface" d="M366.5,260L408.5,260A126,126 0,0,0 156.70140468626914,252.87866465526494L198.6342697908461,255.25244310350996A84,84 0,0,1 366.5,260Z" style="pointer-events: none; stroke-width: 1; fill: rgb(127, 39, 4); fill-opacity: 1; stroke: rgb(0, 0, 0); stroke-opacity: 1; opacity: 1;"/><g class="slicetext"><text data-notex="1" class="slicetext" text-anchor="middle" x="0" y="0" style="font-family: 'Times New Roman'; font-size: 12px; fill: rgb(0, 0, 0); fill-opacity: 1; white-space: pre;" transform="translate(285.509080356625,153.60391411078766)rotate(1.6200000000000045)"><tspan class="line" dy="0em" x="0" y="0">Agriculture</tspan><tspan class="line" dy="1.3em" x="0" y="0">49.1</tspan></text></g></g><g class="slice cursor-pointer"><path class="surface" d="M198.6342697908461,255.25244310350996L156.70140468626914,252.87866465526494A126,126 0,0,0 211.8085071282726,364.3010682378973L235.37233808551505,329.5340454919315A84,84 0,0,1 198.6342697908461,255.25244310350996Z" style="pointer-events: none; stroke-width: 1; fill: rgb(253, 206, 158); fill-opacity: 1; stroke: rgb(0, 0, 0); stroke-opacity: 1;"/><g class="slicetext"><text data-notex="1" class="slicetext" text-anchor="middle" x="0" y="0" style="font-family: 'Times New Roman'; font-size: 12px; fill: rgb(0, 0, 0); fill-opacity: 1; white-space: pre;" transform="translate(195.54783443240004,303.0046538345782)rotate(63.68399999999997)"><tspan class="line" dy="0em" x="0" y="0">Dairy Processing</tspan><tspan class="line" dy="1.3em" x="0" y="0">16.42</tspan></text></g></g><g class="slice"><path class="surface" d="M235.37233808551505,329.5340454919315L211.8085071282726,364.3010682378973A126,126 0,0,0 298.7631373161548,384.94602980741683L293.3420915441032,343.29735320494456A84,84 0,0,1 235.37233808551505,329.5340454919315Z" style="pointer-events: none; stroke-width: 1; fill: rgb(254, 226, 198); fill-opacity: 1; stroke: rgb(0, 0, 0); stroke-opacity: 1; opacity: 1;"/><g class="slicetext"><text data-notex="1" class="slicetext" text-anchor="middle" x="0" y="0" style="font-family: 'Times New Roman'; font-size: 12px; fill: rgb(0, 0, 0); fill-opacity: 1; white-space: pre;" transform="translate(258.38332986869034,361.57713907916866)scale(0.8555130154312003)rotate(13.355999999999995)"><tspan class="line" dy="0em" x="0" y="0">Meat Processing</tspan><tspan class="line" dy="1.3em" x="0" y="0">11.54</tspan></text></g></g><g class="slice cursor-pointer"><path class="surface" d="M293.3420915441032,343.29735320494456L298.7631373161548,384.94602980741683A126,126 0,0,0 383.9687935996014,334.69995934029345L350.14586239973426,309.79997289352895A84,84 0,0,1 293.3420915441032,343.29735320494456Z" style="pointer-events: none; stroke-width: 1; fill: rgb(254, 221, 188); fill-opacity: 1; stroke: rgb(0, 0, 0); stroke-opacity: 1;"/><g class="slicetext"><text data-notex="1" class="slicetext" text-anchor="middle" x="0" y="0" style="font-family: 'Times New Roman'; font-size: 12px; fill: rgb(0, 0, 0); fill-opacity: 1; white-space: pre;" transform="translate(332.85863008801834,345.3965312370541)rotate(-30.52800000000002)"><tspan class="line" dy="0em" x="0" y="0">Wholesale</tspan><tspan class="line" dy="1.3em" x="0" y="0">12.84</tspan></text></g></g><g class="slice cursor-pointer"><path class="surface" d="M350.14586239973426,309.79997289352895L383.9687935996014,334.69995934029345A126,126 0,0,0 408.5,260.00000000000006L366.5,260A84,84 0,0,1 350.14586239973426,309.79997289352895Z" style="pointer-events: none; stroke-width: 1; fill: rgb(254, 231, 208); fill-opacity: 1; stroke: rgb(0, 0, 0); stroke-opacity: 1;"/><g class="slicetext"><text data-notex="1" class="slicetext" text-anchor="middle" x="0" y="0" style="font-family: 'Times New Roman'; font-size: 12px; fill: rgb(0, 0, 0); fill-opacity: 1; white-space: pre;" transform="translate(381.930382005581,288.95565865228355)"><tspan class="line" dy="0em" x="0" y="0">Retail</tspan><tspan class="line" dy="1.3em" x="0" y="0">10.1</tspan></text></g></g><g class="slice cursor-pointer"><path class="surface" d="M156.70140468626914,252.87866465526494L114.76853958169221,250.50488620701992A168,168 0,0,0 188.2446761710301,399.06809098386304L211.8085071282726,364.3010682378973A126,126 0,0,1 156.70140468626914,252.87866465526494Z" style="pointer-events: none; stroke-width: 1; fill: rgb(253, 206, 158); fill-opacity: 1; stroke: rgb(0, 0, 0); stroke-opacity: 1;"/><g class="slicetext"><text data-notex="1" class="slicetext" text-anchor="middle" x="0" y="0" style="font-family: 'Times New Roman'; font-size: 12px; fill: rgb(0, 0, 0); fill-opacity: 1; white-space: pre;" transform="translate(156.4534789483201,322.15684214809147)rotate(63.68399999999997)"><tspan class="line" dy="0em" x="0" y="0">Milk Products</tspan><tspan class="line" dy="1.3em" x="0" y="0">16.42</tspan></text></g></g><g class="slice"><path class="surface" d="M298.7631373161548,384.94602980741683L304.18418308820645,426.5947064098891A168,168 0,0,0 373.31958439975017,401.33578134873227L350.61468829981266,366.0018360115492A126,126 0,0,1 298.7631373161548,384.94602980741683Z" style="pointer-events: none; stroke-width: 1; fill: rgb(255, 240, 224); fill-opacity: 1; stroke: rgb(0, 0, 0); stroke-opacity: 1; opacity: 1;"/><g class="slicetext"><text data-notex="1" class="slicetext" text-anchor="middle" x="0" y="0" style="font-family: 'Times New Roman'; font-size: 12px; fill: rgb(0, 0, 0); fill-opacity: 1; white-space: pre;" transform="translate(333.5175774724746,400.03917260533535)scale(0.8378937500362756)rotate(-20.07000000000005)"><tspan class="line" dy="0em" x="0" y="0">Regional Hubs</tspan><tspan class="line" dy="1.3em" x="0" y="0">7.03</tspan></text></g></g><g class="slice"><path class="surface" d="M350.61468829981266,366.0018360115492L373.31958439975017,401.33578134873227A168,168 0,0,0 417.7917247994685,359.59994578705795L383.9687935996014,334.69995934029345A126,126 0,0,1 350.61468829981266,366.0018360115492Z" style="pointer-events: none; stroke-width: 1; fill: rgb(255, 243, 231); fill-opacity: 1; stroke: rgb(0, 0, 0); stroke-opacity: 1; opacity: 1;"/><g class="slicetext"><text data-notex="1" class="slicetext" text-anchor="middle" x="0" y="0" style="font-family: 'Times New Roman'; font-size: 12px; fill: rgb(0, 0, 0); fill-opacity: 1; white-space: pre;" transform="translate(387.63702801969487,372.18126674202585)scale(0.6306447584229791)rotate(-43.182000000000016)"><tspan class="line" dy="0em" x="0" y="0">Export Networks</tspan><tspan class="line" dy="1.3em" x="0" y="0">5.81</tspan></text></g></g><g class="slice"><path class="surface" d="M383.9687935996014,334.69995934029345L417.7917247994685,359.59994578705795A168,168 0,0,0 442.17935374994704,312.21593613064186L402.2595153124603,299.1619520979814A126,126 0,0,1 383.9687935996014,334.69995934029345Z" style="pointer-events: none; stroke-width: 1; fill: rgb(255, 245, 235); fill-opacity: 1; stroke: rgb(0, 0, 0); stroke-opacity: 1; opacity: 1;"/><g class="slicetext"><text data-notex="1" class="slicetext" text-anchor="middle" x="0" y="0" style="font-family: 'Times New Roman'; font-size: 12px; fill: rgb(0, 0, 0); fill-opacity: 1; white-space: pre;" transform="translate(421.96435589908594,331.86967348762266)scale(0.4881916565677746)rotate(-62.766000000000076)"><tspan class="line" dy="0em" x="0" y="0">Convenience Stores</tspan><tspan class="line" dy="1.3em" x="0" y="0">5.07</tspan></text></g></g><g class="slice"><path class="surface" d="M402.2595153124603,299.1619520979814L442.17935374994704,312.21593613064186A168,168 0,0,0 450.5,260.00000000000006L408.5,260.00000000000006A126,126 0,0,1 402.2595153124603,299.1619520979814Z" style="pointer-events: none; stroke-width: 1; fill: rgb(255, 245, 235); fill-opacity: 1; stroke: rgb(0, 0, 0); stroke-opacity: 1; opacity: 1;"/><g class="slicetext"><text data-notex="1" class="slicetext" text-anchor="middle" x="0" y="0" style="font-family: 'Times New Roman'; font-size: 12px; fill: rgb(0, 0, 0); fill-opacity: 1; white-space: pre;" transform="translate(434.0389560836832,284.25996934382164)scale(0.6749423360889208)rotate(-80.94600000000003)"><tspan class="line" dy="0em" x="0" y="0">Supermarkets</tspan><tspan class="line" dy="1.3em" x="0" y="0">5.03</tspan></text></g></g><g class="slice"><path class="surface" d="M114.76853958169221,250.50488620701992L72.83567447711525,248.1311077587749A210,210 0,0,0 82.65616496655855,324.51698690365697L122.62493197324685,311.61358952292557A168,168 0,0,1 114.76853958169221,250.50488620701992Z" style="pointer-events: none; stroke-width: 1; fill: rgb(255, 243, 231); fill-opacity: 1; stroke: rgb(0, 0, 0); stroke-opacity: 1; opacity: 1;"/><g class="slicetext"><text data-notex="1" class="slicetext" text-anchor="middle" x="0" y="0" style="font-family: 'Times New Roman'; font-size: 12px; fill: rgb(0, 0, 0); fill-opacity: 1; white-space: pre;" transform="translate(99.29280385229055,283.04189706068047)rotate(82.67399999999998)"><tspan class="line" dy="0em" x="0" y="0">Butter</tspan><tspan class="line" dy="1.3em" x="0" y="0">5.87</tspan></text></g></g><g class="slice"><path class="surface" d="M122.62493197324685,311.61358952292557L82.65616496655855,324.51698690365697A210,210 0,0,0 115.3617671969867,387.14091055001035L148.78941375758936,361.7127284400083A168,168 0,0,1 122.62493197324685,311.61358952292557Z" style="pointer-events: none; stroke-width: 1; fill: rgb(255, 244, 233); fill-opacity: 1; stroke: rgb(0, 0, 0); stroke-opacity: 1; opacity: 1;"/><g class="slicetext"><text data-notex="1" class="slicetext" text-anchor="middle" x="0" y="0" style="font-family: 'Times New Roman'; font-size: 12px; fill: rgb(0, 0, 0); fill-opacity: 1; white-space: pre;" transform="translate(118.74656066487927,345.14191670439834)rotate(62.42399999999998)"><tspan class="line" dy="0em" x="0" y="0">Yogurt</tspan><tspan class="line" dy="1.3em" x="0" y="0">5.38</tspan></text></g></g><g class="slice"><path class="surface" d="M148.78941375758936,361.7127284400083L115.3617671969867,387.14091055001035A210,210 0,0,0 164.68084521378762,433.83511372982883L188.2446761710301,399.06809098386304A168,168 0,0,1 148.78941375758936,361.7127284400083Z" style="pointer-events: none; stroke-width: 1; fill: rgb(255, 245, 234); fill-opacity: 1; stroke: rgb(0, 0, 0); stroke-opacity: 1; opacity: 1;"/><g class="slicetext"><text data-notex="1" class="slicetext" text-anchor="middle" x="0" y="0" style="font-family: 'Times New Roman'; font-size: 12px; fill: rgb(0, 0, 0); fill-opacity: 1; white-space: pre;" transform="translate(155.63705390576652,393.9944384909628)rotate(43.43399999999997)"><tspan class="line" dy="0em" x="0" y="0">Cheese</tspan><tspan class="line" dy="1.3em" x="0" y="0">5.17</tspan></text></g></g></g></g><g class="glimages"/><defs id="topdefs-a4b225"><g class="clips"/></defs><g class="layer-above"><g class="imagelayer"/><g class="shapelayer"/></g><g class="infolayer"><g class="cb47ea3e colorbar" transform="translate(10,50)"><rect class="cbbg" x="571.5" y="63" width="48.015625" height="295" style="fill: rgb(0, 0, 0); fill-opacity: 0; stroke: rgb(68, 68, 68); stroke-opacity: 1; stroke-width: 0;"/><g class="cbfills" transform="translate(0,93)"><rect class="cbfill gradient_filled" style="fill: url('#ga4b225-cb47ea3e');" x="582" y="0" width="15" height="254"/></g><g class="cblines" transform="translate(0,93)"/><g class="cbaxis crisp" transform="translate(0,-50)"><g class="ycb47ea3etick"><text text-anchor="start" x="600.4" y="4.199999999999999" transform="translate(0,368.36000000000007)" style="font-family: 'Times New Roman'; font-size: 12px; fill: rgb(42, 63, 95); fill-opacity: 1; white-space: pre; opacity: 1;">10</text></g><g class="ycb47ea3etick"><text text-anchor="start" x="600.4" y="4.199999999999999" style="font-family: 'Times New Roman'; font-size: 12px; fill: rgb(42, 63, 95); fill-opacity: 1; white-space: pre; opacity: 1;" transform="translate(0,310.72)">20</text></g><g class="ycb47ea3etick"><text text-anchor="start" x="600.4" y="4.199999999999999" style="font-family: 'Times New Roman'; font-size: 12px; fill: rgb(42, 63, 95); fill-opacity: 1; white-space: pre; opacity: 1;" transform="translate(0,253.08000000000004)">30</text></g><g class="ycb47ea3etick"><text text-anchor="start" x="600.4" y="4.199999999999999" style="font-family: 'Times New Roman'; font-size: 12px; fill: rgb(42, 63, 95); fill-opacity: 1; white-space: pre; opacity: 1;" transform="translate(0,195.45000000000005)">40</text></g></g><g class="cbtitleunshift" transform="translate(-10,-50)"><g class="cbtitle" transform="translate(-0.5,-0.5)"><text class="ycb47ea3etitle" x="592.25" y="135.75" text-anchor="start" style="opacity: 1; font-family: 'Times New Roman'; font-size: 13px; fill: rgb(42, 63, 95); fill-opacity: 1; white-space: pre;">%</text></g></g><rect class="cboutline" x="582" y="93" width="15" height="254" style="stroke: rgb(68, 68, 68); stroke-opacity: 1; fill: none; stroke-width: 1;"/></g><g class="g-gtitle"><text class="gtitle" x="320" y="25" text-anchor="middle" dy="0em" style="opacity: 1; font-family: 'Times New Roman'; font-size: 16px; fill: rgb(42, 63, 95); fill-opacity: 1; white-space: pre;">Food Industry Distribution by Category (2023) (%)</text></g></g></svg>