<svg class="main-svg" xmlns="http://www.w3.org/2000/svg" xmlns:xlink="http://www.w3.org/1999/xlink" width="1920" height="1440" style="" viewBox="0 0 640 480"><rect x="0" y="0" width="640" height="480" style="fill: rgb(255, 255, 255); fill-opacity: 1;"/><defs id="defs-4c4999"><g class="clips"/><g class="gradients"><linearGradient x1="0" y1="1" x2="0" y2="0" gradientUnits="objectBoundingBox" id="g4c4999-cb756136"><stop offset="0%" stop-color="rgb(255, 255, 217)" stop-opacity="1"/><stop offset="12.5%" stop-color="rgb(237, 248, 177)" stop-opacity="1"/><stop offset="25%" stop-color="rgb(199, 233, 180)" stop-opacity="1"/><stop offset="37.5%" stop-color="rgb(127, 205, 187)" stop-opacity="1"/><stop offset="50%" stop-color="rgb(65, 182, 196)" stop-opacity="1"/><stop offset="62.5%" stop-color="rgb(29, 145, 192)" stop-opacity="1"/><stop offset="75%" stop-color="rgb(34, 94, 168)" stop-opacity="1"/><stop offset="87.5%" stop-color="rgb(37, 52, 148)" stop-opacity="1"/><stop offset="100%" stop-color="rgb(8, 29, 88)" stop-opacity="1"/></linearGradient></g><g class="patterns"/></defs><g class="bglayer"/><g class="layer-below"><g class="imagelayer"/><g class="shapelayer"/></g><g class="cartesianlayer"/><g class="polarlayer"/><g class="smithlayer"/><g class="ternarylayer"/><g class="geolayer"/><g class="funnelarealayer"/><g class="pielayer"/><g class="iciclelayer"/><g class="treemaplayer"/><g class="sunburstlayer"><g class="trace sunburst" stroke-linejoin="round" style="opacity: 1;"><g class="slice"><path class="surface" d="M282.5,260A0,0 0,1,0 282.5,260A0,0 0,1,0 282.5,260ZM324.5,260A42,42 0,1,1 240.5,260A42,42 0,1,1 324.5,260Z" style="pointer-events: none; stroke-width: 1; fill: rgb(255, 255, 255); fill-opacity: 1; stroke: rgb(0, 0, 0); stroke-opacity: 1;"/><g class="slicetext"><text data-notex="1" class="slicetext" text-anchor="middle" x="0" y="0" style="font-family: 'Times New Roman'; font-size: 12px; fill: rgb(0, 0, 0); fill-opacity: 1; white-space: pre;" transform="translate(282.5,264)">100</text></g></g><g class="slice cursor-pointer"><path class="surface" d="M324.5,260L366.5,260A84,84 0,0,0 200.0477956549736,243.94901876376366L241.2738978274868,251.97450938188183A42,42 0,0,1 324.5,260Z" style="pointer-events: none; stroke-width: 1; fill: rgb(8, 29, 88); fill-opacity: 1; stroke: rgb(0, 0, 0); stroke-opacity: 1;"/><g class="slicetext"><text data-notex="1" class="slicetext" text-anchor="middle" x="0" y="0" style="font-family: 'Times New Roman'; font-size: 12px; fill: rgb(0, 0, 0); fill-opacity: 1; white-space: pre;" transform="translate(288.16342192419205,199.68771115704786)scale(0.9251734053456667)rotate(5.508000000000038)"><tspan class="line" dy="0em" x="0" y="0">Agricultural Inputs</tspan><tspan class="line" dy="1.3em" x="0" y="0">46.94</tspan></text></g></g><g class="slice cursor-pointer"><path class="surface" d="M241.2738978274868,251.97450938188183L200.0477956549736,243.94901876376366A84,84 0,0,0 305.52949370214174,340.78144848802236L294.01474685107087,300.3907242440112A42,42 0,0,1 241.2738978274868,251.97450938188183Z" style="pointer-events: none; stroke-width: 1; fill: rgb(30, 133, 186); fill-opacity: 1; stroke: rgb(0, 0, 0); stroke-opacity: 1;"/><g class="slicetext"><text data-notex="1" class="slicetext" text-anchor="middle" x="0" y="0" style="font-family: 'Times New Roman'; font-size: 12px; fill: rgb(0, 0, 0); fill-opacity: 1; white-space: pre;" transform="translate(245.86770605686584,299.90436447260555)scale(0.9842211435651563)rotate(42.55200000000002)"><tspan class="line" dy="0em" x="0" y="0">Crop Production</tspan><tspan class="line" dy="1.3em" x="0" y="0">32.48</tspan></text></g></g><g class="slice cursor-pointer"><path class="surface" d="M294.01474685107087,300.3907242440112L305.52949370214174,340.78144848802236A84,84 0,0,0 366.5,259.99999999999994L324.5,260A42,42 0,0,1 294.01474685107087,300.3907242440112Z" style="pointer-events: none; stroke-width: 1; fill: rgb(129, 206, 187); fill-opacity: 1; stroke: rgb(0, 0, 0); stroke-opacity: 1;"/><g class="slicetext"><text data-notex="1" class="slicetext" text-anchor="middle" x="0" y="0" style="font-family: 'Times New Roman'; font-size: 12px; fill: rgb(0, 0, 0); fill-opacity: 1; white-space: pre;" transform="translate(327.72979398361355,294.13758344946774)rotate(-52.95600000000002)"><tspan class="line" dy="0em" x="0" y="0">Livestock</tspan><tspan class="line" dy="1.3em" x="0" y="0">20.58</tspan></text></g></g><g class="slice cursor-pointer"><path class="surface" d="M366.5,260L408.5,260A126,126 0,0,0 199.82992377644337,164.91236412029514L227.38661585096224,196.60824274686343A84,84 0,0,1 366.5,260Z" style="pointer-events: none; stroke-width: 1; fill: rgb(34, 95, 168); fill-opacity: 1; stroke: rgb(0, 0, 0); stroke-opacity: 1;"/><g class="slicetext"><text data-notex="1" class="slicetext" text-anchor="middle" x="0" y="0" style="font-family: 'Times New Roman'; font-size: 12px; fill: rgb(0, 0, 0); fill-opacity: 1; white-space: pre;" transform="translate(325.87539277012706,160.64785918605446)"><tspan class="line" dy="0em" x="0" y="0">Seeds</tspan><tspan class="line" dy="1.3em" x="0" y="0">36.39</tspan></text></g></g><g class="slice cursor-pointer"><path class="surface" d="M227.38661585096224,196.60824274686343L199.82992377644337,164.91236412029514A126,126 0,0,0 158.8216934824604,235.9235281456455L200.0477956549736,243.94901876376366A84,84 0,0,1 227.38661585096224,196.60824274686343Z" style="pointer-events: none; stroke-width: 1; fill: rgb(235, 247, 177); fill-opacity: 1; stroke: rgb(0, 0, 0); stroke-opacity: 1;"/><g class="slicetext"><text data-notex="1" class="slicetext" text-anchor="middle" x="0" y="0" style="font-family: 'Times New Roman'; font-size: 12px; fill: rgb(0, 0, 0); fill-opacity: 1; white-space: pre;" transform="translate(188.6227452502865,205.97628768190796)rotate(-59.99400000000003)"><tspan class="line" dy="0em" x="0" y="0">Fertilizers</tspan><tspan class="line" dy="1.3em" x="0" y="0">10.55</tspan></text></g></g><g class="slice"><path class="surface" d="M200.0477956549736,243.94901876376366L158.8216934824604,235.9235281456455A126,126 0,0,0 317.04424055321266,381.1721727320336L305.52949370214174,340.78144848802236A84,84 0,0,1 200.0477956549736,243.94901876376366Z" style="pointer-events: none; stroke-width: 1; fill: rgb(30, 133, 186); fill-opacity: 1; stroke: rgb(0, 0, 0); stroke-opacity: 1; opacity: 1;"/><g class="slicetext"><text data-notex="1" class="slicetext" text-anchor="middle" x="0" y="0" style="font-family: 'Times New Roman'; font-size: 12px; fill: rgb(0, 0, 0); fill-opacity: 1; white-space: pre;" transform="translate(214.9480118224876,333.3432652511545)rotate(42.55200000000002)"><tspan class="line" dy="0em" x="0" y="0">Oilseeds</tspan><tspan class="line" dy="1.3em" x="0" y="0">32.48</tspan></text></g></g><g class="slice cursor-pointer"><path class="surface" d="M305.52949370214174,340.78144848802236L317.04424055321266,381.1721727320336A126,126 0,0,0 391.15445917222036,323.79818572649464L354.9363061148136,302.5321238176631A84,84 0,0,1 305.52949370214174,340.78144848802236Z" style="pointer-events: none; stroke-width: 1; fill: rgb(223, 243, 178); fill-opacity: 1; stroke: rgb(0, 0, 0); stroke-opacity: 1;"/><g class="slicetext"><text data-notex="1" class="slicetext" text-anchor="middle" x="0" y="0" style="font-family: 'Times New Roman'; font-size: 12px; fill: rgb(0, 0, 0); fill-opacity: 1; white-space: pre;" transform="translate(343.76783876514594,339.13992319830805)rotate(-37.746000000000095)"><tspan class="line" dy="0em" x="0" y="0">Poultry</tspan><tspan class="line" dy="1.3em" x="0" y="0">12.13</tspan></text></g></g><g class="slice"><path class="surface" d="M354.9363061148136,302.5321238176631L391.15445917222036,323.79818572649464A126,126 0,0,0 408.5,259.99999999999994L366.5,259.99999999999994A84,84 0,0,1 354.9363061148136,302.5321238176631Z" style="pointer-events: none; stroke-width: 1; fill: rgb(243, 250, 191); fill-opacity: 1; stroke: rgb(0, 0, 0); stroke-opacity: 1; opacity: 1;"/><g class="slicetext"><text data-notex="1" class="slicetext" text-anchor="middle" x="0" y="0" style="font-family: 'Times New Roman'; font-size: 12px; fill: rgb(0, 0, 0); fill-opacity: 1; white-space: pre;" transform="translate(383.82192550867086,283.7428606888199)"><tspan class="line" dy="0em" x="0" y="0">Cattle</tspan><tspan class="line" dy="1.3em" x="0" y="0">8.45</tspan></text></g></g><g class="slice cursor-pointer"><path class="surface" d="M408.5,260L450.5,260A168,168 0,0,0 244.6168046972008,96.32696155551469L254.0876035229006,137.245221166636A126,126 0,0,1 408.5,260Z" style="pointer-events: none; stroke-width: 1; fill: rgb(47, 163, 194); fill-opacity: 1; stroke: rgb(0, 0, 0); stroke-opacity: 1;"/><g class="slicetext"><text data-notex="1" class="slicetext" text-anchor="middle" x="0" y="0" style="font-family: 'Times New Roman'; font-size: 12px; fill: rgb(0, 0, 0); fill-opacity: 1; white-space: pre;" transform="translate(374.6863950865146,143.7757237204184)rotate(38.483999999999924)"><tspan class="line" dy="0em" x="0" y="0">Hybrid Seeds</tspan><tspan class="line" dy="1.3em" x="0" y="0">28.62</tspan></text></g></g><g class="slice"><path class="surface" d="M254.0876035229006,137.245221166636L244.6168046972008,96.32696155551469A168,168 0,0,0 172.27323170192446,133.21648549372685L199.82992377644337,164.91236412029514A126,126 0,0,1 254.0876035229006,137.245221166636Z" style="pointer-events: none; stroke-width: 1; fill: rgb(246, 251, 196); fill-opacity: 1; stroke: rgb(0, 0, 0); stroke-opacity: 1; opacity: 1;"/><g class="slicetext"><text data-notex="1" class="slicetext" text-anchor="middle" x="0" y="0" style="font-family: 'Times New Roman'; font-size: 12px; fill: rgb(0, 0, 0); fill-opacity: 1; white-space: pre;" transform="translate(212.1531588600717,122.3535960897456)scale(0.8580374176948086)rotate(-27.01800000000003)"><tspan class="line" dy="0em" x="0" y="0">Heirloom Seeds</tspan><tspan class="line" dy="1.3em" x="0" y="0">7.77</tspan></text></g></g><g class="slice"><path class="surface" d="M199.82992377644337,164.91236412029514L172.27323170192446,133.21648549372685A168,168 0,0,0 135.6378695797022,178.418662376672L172.35340218477666,198.81399678250398A126,126 0,0,1 199.82992377644337,164.91236412029514Z" style="pointer-events: none; stroke-width: 1; fill: rgb(253, 254, 213); fill-opacity: 1; stroke: rgb(0, 0, 0); stroke-opacity: 1; opacity: 1;"/><g class="slicetext"><text data-notex="1" class="slicetext" text-anchor="middle" x="0" y="0" style="font-family: 'Times New Roman'; font-size: 12px; fill: rgb(0, 0, 0); fill-opacity: 1; white-space: pre;" transform="translate(163.07276113999876,162.56327274533055)rotate(-50.976)"><tspan class="line" dy="0em" x="0" y="0">Nitrogen</tspan><tspan class="line" dy="1.3em" x="0" y="0">5.54</tspan></text></g></g><g class="slice"><path class="surface" d="M172.35340218477666,198.81399678250398L135.6378695797022,178.418662376672A168,168 0,0,0 117.59559130994722,227.89803752752732L158.8216934824604,235.9235281456455A126,126 0,0,1 172.35340218477666,198.81399678250398Z" style="pointer-events: none; stroke-width: 1; fill: rgb(255, 255, 217); fill-opacity: 1; stroke: rgb(0, 0, 0); stroke-opacity: 1; opacity: 1;"/><g class="slicetext"><text data-notex="1" class="slicetext" text-anchor="middle" x="0" y="0" style="font-family: 'Times New Roman'; font-size: 12px; fill: rgb(0, 0, 0); fill-opacity: 1; white-space: pre;" transform="translate(137.73347652581714,207.21198696016532)rotate(-69.96600000000001)"><tspan class="line" dy="0em" x="0" y="0">Organic</tspan><tspan class="line" dy="1.3em" x="0" y="0">5.01</tspan></text></g></g><g class="slice cursor-pointer"><path class="surface" d="M317.04424055321266,381.1721727320336L328.5589874042835,421.5628969760447A168,168 0,0,0 427.3726122296272,345.0642476353262L391.15445917222036,323.79818572649464A126,126 0,0,1 317.04424055321266,381.1721727320336Z" style="pointer-events: none; stroke-width: 1; fill: rgb(223, 243, 178); fill-opacity: 1; stroke: rgb(0, 0, 0); stroke-opacity: 1;"/><g class="slicetext"><text data-notex="1" class="slicetext" text-anchor="middle" x="0" y="0" style="font-family: 'Times New Roman'; font-size: 12px; fill: rgb(0, 0, 0); fill-opacity: 1; white-space: pre;" transform="translate(369.4008389399367,372.5181815757787)rotate(-37.746000000000095)"><tspan class="line" dy="0em" x="0" y="0">Broilers</tspan><tspan class="line" dy="1.3em" x="0" y="0">12.13</tspan></text></g></g><g class="slice"><path class="surface" d="M450.5,260L492.5,260A210,210 0,0,0 404.6504392339324,89.18059186685664L380.2203513871459,123.34447349348531A168,168 0,0,1 450.5,260Z" style="pointer-events: none; stroke-width: 1; fill: rgb(202, 234, 180); fill-opacity: 1; stroke: rgb(0, 0, 0); stroke-opacity: 1; opacity: 1;"/><g class="slicetext"><text data-notex="1" class="slicetext" text-anchor="middle" x="0" y="0" style="font-family: 'Times New Roman'; font-size: 12px; fill: rgb(0, 0, 0); fill-opacity: 1; white-space: pre;" transform="translate(451.742166870636,172.77710066613463)rotate(62.78399999999999)"><tspan class="line" dy="0em" x="0" y="0">Maize Hybrids</tspan><tspan class="line" dy="1.3em" x="0" y="0">15.12</tspan></text></g></g><g class="slice"><path class="surface" d="M380.2203513871459,123.34447349348531L404.6504392339324,89.18059186685664A210,210 0,0,0 235.14600587150105,55.40870194439333L244.61680469720085,96.32696155551466A168,168 0,0,1 380.2203513871459,123.34447349348531Z" style="pointer-events: none; stroke-width: 1; fill: rgb(213, 239, 179); fill-opacity: 1; stroke: rgb(0, 0, 0); stroke-opacity: 1; opacity: 1;"/><g class="slicetext"><text data-notex="1" class="slicetext" text-anchor="middle" x="0" y="0" style="font-family: 'Times New Roman'; font-size: 12px; fill: rgb(0, 0, 0); fill-opacity: 1; white-space: pre;" transform="translate(319.36167887586635,74.14798175865755)rotate(11.268000000000029)"><tspan class="line" dy="0em" x="0" y="0">Vegetable Hybrids</tspan><tspan class="line" dy="1.3em" x="0" y="0">13.5</tspan></text></g></g><g class="slice"><path class="surface" d="M328.5589874042835,421.5628969760447L340.0737342553544,461.95362122005594A210,210 0,0,0 420.6813269534382,418.13260537089434L393.04506156275056,386.50608429671547A168,168 0,0,1 328.5589874042835,421.5628969760447Z" style="pointer-events: none; stroke-width: 1; fill: rgb(248, 252, 202); fill-opacity: 1; stroke: rgb(0, 0, 0); stroke-opacity: 1; opacity: 1;"/><g class="slicetext"><text data-notex="1" class="slicetext" text-anchor="middle" x="0" y="0" style="font-family: 'Times New Roman'; font-size: 12px; fill: rgb(0, 0, 0); fill-opacity: 1; white-space: pre;" transform="translate(370.1913784997816,421.305957524468)rotate(-28.530000000000086)"><tspan class="line" dy="0em" x="0" y="0">Free-Range</tspan><tspan class="line" dy="1.3em" x="0" y="0">7.01</tspan></text></g></g><g class="slice"><path class="surface" d="M393.04506156275056,386.50608429671547L420.6813269534382,418.13260537089434A210,210 0,0,0 463.59076528703395,366.33030954415767L427.3726122296272,345.0642476353262A168,168 0,0,1 393.04506156275056,386.50608429671547Z" style="pointer-events: none; stroke-width: 1; fill: rgb(255, 255, 216); fill-opacity: 1; stroke: rgb(0, 0, 0); stroke-opacity: 1; opacity: 1;"/><g class="slicetext"><text data-notex="1" class="slicetext" text-anchor="middle" x="0" y="0" style="font-family: 'Times New Roman'; font-size: 12px; fill: rgb(0, 0, 0); fill-opacity: 1; white-space: pre;" transform="translate(425.5197654481463,378.46768001380974)rotate(-50.36400000000003)"><tspan class="line" dy="0em" x="0" y="0">Intensive</tspan><tspan class="line" dy="1.3em" x="0" y="0">5.12</tspan></text></g></g></g></g><g class="glimages"/><defs id="topdefs-4c4999"><g class="clips"/></defs><g class="layer-above"><g class="imagelayer"/><g class="shapelayer"/></g><g class="infolayer"><g class="cb756136 colorbar" transform="translate(10,50)"><rect class="cbbg" x="571.5" y="63" width="48.015625" height="295" style="fill: rgb(0, 0, 0); fill-opacity: 0; stroke: rgb(68, 68, 68); stroke-opacity: 1; stroke-width: 0;"/><g class="cbfills" transform="translate(0,93)"><rect class="cbfill gradient_filled" style="fill: url('#g4c4999-cb756136');" x="582" y="0" width="15" height="254"/></g><g class="cblines" transform="translate(0,93)"/><g class="cbaxis crisp" transform="translate(0,-50)"><g class="ycb756136tick"><text text-anchor="start" x="600.4" y="4.199999999999999" transform="translate(0,366.7700000000001)" style="font-family: 'Times New Roman'; font-size: 12px; fill: rgb(42, 63, 95); fill-opacity: 1; white-space: pre; opacity: 1;">10</text></g><g class="ycb756136tick"><text text-anchor="start" x="600.4" y="4.199999999999999" style="font-family: 'Times New Roman'; font-size: 12px; fill: rgb(42, 63, 95); fill-opacity: 1; white-space: pre; opacity: 1;" transform="translate(0,306.19000000000005)">20</text></g><g class="ycb756136tick"><text text-anchor="start" x="600.4" y="4.199999999999999" style="font-family: 'Times New Roman'; font-size: 12px; fill: rgb(42, 63, 95); fill-opacity: 1; white-space: pre; opacity: 1;" transform="translate(0,245.62000000000006)">30</text></g><g class="ycb756136tick"><text text-anchor="start" x="600.4" y="4.199999999999999" style="font-family: 'Times New Roman'; font-size: 12px; fill: rgb(42, 63, 95); fill-opacity: 1; white-space: pre; opacity: 1;" transform="translate(0,185.04000000000005)">40</text></g></g><g class="cbtitleunshift" transform="translate(-10,-50)"><g class="cbtitle" transform="translate(-0.5,-0.5)"><text class="ycb756136title" x="592.25" y="135.75" text-anchor="start" style="opacity: 1; font-family: 'Times New Roman'; font-size: 13px; fill: rgb(42, 63, 95); fill-opacity: 1; white-space: pre;">%</text></g></g><rect class="cboutline" x="582" y="93" width="15" height="254" style="stroke: rgb(68, 68, 68); stroke-opacity: 1; fill: none; stroke-width: 1;"/></g><g class="g-gtitle"><text class="gtitle" x="320" y="25" text-anchor="middle" dy="0em" style="opacity: 1; font-family: 'Times New Roman'; font-size: 16px; fill: rgb(42, 63, 95); fill-opacity: 1; white-space: pre;">Agriculture Production Distribution by Category (2024) (%)</text></g></g></svg>