<svg class="main-svg" xmlns="http://www.w3.org/2000/svg" xmlns:xlink="http://www.w3.org/1999/xlink" width="1920" height="1440" style="" viewBox="0 0 640 480"><rect x="0" y="0" width="640" height="480" style="fill: rgb(255, 255, 255); fill-opacity: 1;"/><defs id="defs-f7c979"><g class="clips"/><g class="gradients"><linearGradient x1="0" y1="1" x2="0" y2="0" gradientUnits="objectBoundingBox" id="gf7c979-cb35aed5"><stop offset="0%" stop-color="rgb(247, 251, 255)" stop-opacity="1"/><stop offset="12.5%" stop-color="rgb(222, 235, 247)" stop-opacity="1"/><stop offset="25%" stop-color="rgb(198, 219, 239)" stop-opacity="1"/><stop offset="37.5%" stop-color="rgb(158, 202, 225)" stop-opacity="1"/><stop offset="50%" stop-color="rgb(107, 174, 214)" stop-opacity="1"/><stop offset="62.5%" stop-color="rgb(66, 146, 198)" stop-opacity="1"/><stop offset="75%" stop-color="rgb(33, 113, 181)" stop-opacity="1"/><stop offset="87.5%" stop-color="rgb(8, 81, 156)" stop-opacity="1"/><stop offset="100%" stop-color="rgb(8, 48, 107)" stop-opacity="1"/></linearGradient></g><g class="patterns"/></defs><g class="bglayer"/><g class="layer-below"><g class="imagelayer"/><g class="shapelayer"/></g><g class="cartesianlayer"/><g class="polarlayer"/><g class="smithlayer"/><g class="ternarylayer"/><g class="geolayer"/><g class="funnelarealayer"/><g class="pielayer"/><g class="iciclelayer"/><g class="treemaplayer"/><g class="sunburstlayer"><g class="trace sunburst" stroke-linejoin="round" style="opacity: 1;"><g class="slice"><path class="surface" d="M282.5,260A0,0 0,1,0 282.5,260A0,0 0,1,0 282.5,260ZM324.5,260A42,42 0,1,1 240.5,260A42,42 0,1,1 324.5,260Z" style="pointer-events: none; stroke-width: 1; fill: rgb(255, 255, 255); fill-opacity: 1; stroke: rgb(0, 0, 0); stroke-opacity: 1;"/><g class="slicetext"><text data-notex="1" class="slicetext" text-anchor="middle" x="0" y="0" style="font-family: 'Times New Roman'; font-size: 12px; fill: rgb(0, 0, 0); fill-opacity: 1; white-space: pre;" transform="translate(282.5,264)">100</text></g></g><g class="slice cursor-pointer"><path class="surface" d="M324.5,260L366.5,260A84,84 0,0,0 201.9093523642604,236.31144762438916L242.20467618213019,248.15572381219457A42,42 0,0,1 324.5,260Z" style="pointer-events: none; stroke-width: 1; fill: rgb(8, 48, 107); fill-opacity: 1; stroke: rgb(0, 0, 0); stroke-opacity: 1;"/><g class="slicetext"><text data-notex="1" class="slicetext" text-anchor="middle" x="0" y="0" style="font-family: 'Times New Roman'; font-size: 12px; fill: rgb(0, 0, 0); fill-opacity: 1; white-space: pre;" transform="translate(291.2750462836224,199.0300205789694)scale(0.9809564809941194)rotate(8.18999999999994)"><tspan class="line" dy="0em" x="0" y="0">Food Production</tspan><tspan class="line" dy="1.3em" x="0" y="0">45.45</tspan></text></g></g><g class="slice cursor-pointer"><path class="surface" d="M242.20467618213019,248.15572381219457L201.9093523642604,236.31144762438916A84,84 0,0,0 299.7408074433303,342.2116449093558L291.1204037216652,301.1058224546779A42,42 0,0,1 242.20467618213019,248.15572381219457Z" style="pointer-events: none; stroke-width: 1; fill: rgb(50, 130, 190); fill-opacity: 1; stroke: rgb(0, 0, 0); stroke-opacity: 1;"/><g class="slicetext"><text data-notex="1" class="slicetext" text-anchor="middle" x="0" y="0" style="font-family: 'Times New Roman'; font-size: 12px; fill: rgb(0, 0, 0); fill-opacity: 1; white-space: pre;" transform="translate(242.7109160036089,296.75747622221724)scale(0.9842211435651563)rotate(47.26800000000003)"><tspan class="line" dy="0em" x="0" y="0">Food Processing</tspan><tspan class="line" dy="1.3em" x="0" y="0">32.84</tspan></text></g></g><g class="slice cursor-pointer"><path class="surface" d="M291.1204037216652,301.1058224546779L299.7408074433303,342.2116449093558A84,84 0,0,0 366.5,260L324.5,260A42,42 0,0,1 291.1204037216652,301.1058224546779Z" style="pointer-events: none; stroke-width: 1; fill: rgb(143, 194, 222); fill-opacity: 1; stroke: rgb(0, 0, 0); stroke-opacity: 1;"/><g class="slicetext"><text data-notex="1" class="slicetext" text-anchor="middle" x="0" y="0" style="font-family: 'Times New Roman'; font-size: 12px; fill: rgb(0, 0, 0); fill-opacity: 1; white-space: pre;" transform="translate(327.85683977727473,296.83159488891954)scale(0.8449582954638054)rotate(-50.922000000000025)"><tspan class="line" dy="0em" x="0" y="0">Food Distribution</tspan><tspan class="line" dy="1.3em" x="0" y="0">21.71</tspan></text></g></g><g class="slice cursor-pointer"><path class="surface" d="M366.5,260L408.5,260A126,126 0,0,0 257.4917088765002,136.5067395560297L265.8278059176668,177.6711597040198A84,84 0,0,1 366.5,260Z" style="pointer-events: none; stroke-width: 1; fill: rgb(83, 158, 205); fill-opacity: 1; stroke: rgb(0, 0, 0); stroke-opacity: 1;"/><g class="slicetext"><text data-notex="1" class="slicetext" text-anchor="middle" x="0" y="0" style="font-family: 'Times New Roman'; font-size: 12px; fill: rgb(0, 0, 0); fill-opacity: 1; white-space: pre;" transform="translate(349.7106882714062,177.81437185631572)rotate(39.27600000000007)"><tspan class="line" dy="0em" x="0" y="0">Aquaculture</tspan><tspan class="line" dy="1.3em" x="0" y="0">28.18</tspan></text></g></g><g class="slice cursor-pointer"><path class="surface" d="M265.8278059176668,177.6711597040198L257.4917088765002,136.5067395560297A126,126 0,0,0 161.6140285463906,224.46717143658367L201.90935236426043,236.31144762438913A84,84 0,0,1 265.8278059176668,177.6711597040198Z" style="pointer-events: none; stroke-width: 1; fill: rgb(182, 212, 233); fill-opacity: 1; stroke: rgb(0, 0, 0); stroke-opacity: 1;"/><g class="slicetext"><text data-notex="1" class="slicetext" text-anchor="middle" x="0" y="0" style="font-family: 'Times New Roman'; font-size: 12px; fill: rgb(0, 0, 0); fill-opacity: 1; white-space: pre;" transform="translate(210.5445495959736,181.56789678778864)rotate(-42.53399999999999)"><tspan class="line" dy="0em" x="0" y="0">Agriculture</tspan><tspan class="line" dy="1.3em" x="0" y="0">17.27</tspan></text></g></g><g class="slice cursor-pointer"><path class="surface" d="M201.9093523642604,236.31144762438916L161.6140285463906,224.46717143658373A126,126 0,0,0 224.0311746248785,371.61270742730665L243.52078308325235,334.40847161820443A84,84 0,0,1 201.9093523642604,236.31144762438916Z" style="pointer-events: none; stroke-width: 1; fill: rgb(142, 193, 221); fill-opacity: 1; stroke: rgb(0, 0, 0); stroke-opacity: 1;"/><g class="slicetext"><text data-notex="1" class="slicetext" text-anchor="middle" x="0" y="0" style="font-family: 'Times New Roman'; font-size: 12px; fill: rgb(0, 0, 0); fill-opacity: 1; white-space: pre;" transform="translate(193.03328617063056,297.95056988070706)rotate(67.01400000000001)"><tspan class="line" dy="0em" x="0" y="0">Meat Processing</tspan><tspan class="line" dy="1.3em" x="0" y="0">21.87</tspan></text></g></g><g class="slice"><path class="surface" d="M243.52078308325235,334.40847161820443L224.0311746248785,371.61270742730665A126,126 0,0,0 308.3612111649955,383.3174673640337L299.7408074433303,342.2116449093558A84,84 0,0,1 243.52078308325235,334.40847161820443Z" style="pointer-events: none; stroke-width: 1; fill: rgb(218, 232, 246); fill-opacity: 1; stroke: rgb(0, 0, 0); stroke-opacity: 1; opacity: 1;"/><g class="slicetext"><text data-notex="1" class="slicetext" text-anchor="middle" x="0" y="0" style="font-family: 'Times New Roman'; font-size: 12px; fill: rgb(0, 0, 0); fill-opacity: 1; white-space: pre;" transform="translate(267.9551208597697,364.7924259871825)scale(0.8002152409360676)rotate(7.902000000000044)"><tspan class="line" dy="0em" x="0" y="0">Dairy Processing</tspan><tspan class="line" dy="1.3em" x="0" y="0">10.97</tspan></text></g></g><g class="slice"><path class="surface" d="M299.7408074433303,342.2116449093558L308.3612111649955,383.3174673640337A126,126 0,0,0 408.5,260.00000000000006L366.5,260A84,84 0,0,1 299.7408074433303,342.2116449093558Z" style="pointer-events: none; stroke-width: 1; fill: rgb(143, 194, 222); fill-opacity: 1; stroke: rgb(0, 0, 0); stroke-opacity: 1; opacity: 1;"/><g class="slicetext"><text data-notex="1" class="slicetext" text-anchor="middle" x="0" y="0" style="font-family: 'Times New Roman'; font-size: 12px; fill: rgb(0, 0, 0); fill-opacity: 1; white-space: pre;" transform="translate(363.6821687577123,322.3849794543778)"><tspan class="line" dy="0em" x="0" y="0">Retail</tspan><tspan class="line" dy="1.3em" x="0" y="0">21.71</tspan></text></g></g><g class="slice"><path class="surface" d="M408.5,260L450.5,260A168,168 0,0,0 384.8835433787638,126.80236471615277L359.2876575340729,160.10177353711458A126,126 0,0,1 408.5,260Z" style="pointer-events: none; stroke-width: 1; fill: rgb(201, 221, 240); fill-opacity: 1; stroke: rgb(0, 0, 0); stroke-opacity: 1; opacity: 1;"/><g class="slicetext"><text data-notex="1" class="slicetext" text-anchor="middle" x="0" y="0" style="font-family: 'Times New Roman'; font-size: 12px; fill: rgb(0, 0, 0); fill-opacity: 1; white-space: pre;" transform="translate(414.88199783061543,194.78534660488404)rotate(63.774)"><tspan class="line" dy="0em" x="0" y="0">Marine Farming</tspan><tspan class="line" dy="1.3em" x="0" y="0">14.57</tspan></text></g></g><g class="slice cursor-pointer"><path class="surface" d="M359.2876575340729,160.10177353711458L384.8835433787638,126.80236471615277A168,168 0,0,0 249.15561183533356,95.3423194080396L257.4917088765002,136.5067395560297A126,126 0,0,1 359.2876575340729,160.10177353711458Z" style="pointer-events: none; stroke-width: 1; fill: rgb(206, 224, 242); fill-opacity: 1; stroke: rgb(0, 0, 0); stroke-opacity: 1;"/><g class="slicetext"><text data-notex="1" class="slicetext" text-anchor="middle" x="0" y="0" style="font-family: 'Times New Roman'; font-size: 12px; fill: rgb(0, 0, 0); fill-opacity: 1; white-space: pre;" transform="translate(315.5755363978052,117.30236253646436)rotate(13.049999999999955)"><tspan class="line" dy="0em" x="0" y="0">Freshwater Farming</tspan><tspan class="line" dy="1.3em" x="0" y="0">13.61</tspan></text></g></g><g class="slice"><path class="surface" d="M257.4917088765002,136.5067395560297L249.15561183533356,95.3423194080396A168,168 0,0,0 164.5299363066494,140.38785984613935L194.02245222998704,170.2908948846045A126,126 0,0,1 257.4917088765002,136.5067395560297Z" style="pointer-events: none; stroke-width: 1; fill: rgb(227, 238, 249); fill-opacity: 1; stroke: rgb(0, 0, 0); stroke-opacity: 1; opacity: 1;"/><g class="slicetext"><text data-notex="1" class="slicetext" text-anchor="middle" x="0" y="0" style="font-family: 'Times New Roman'; font-size: 12px; fill: rgb(0, 0, 0); fill-opacity: 1; white-space: pre;" transform="translate(211.79137989097012,127.16188363528532)rotate(-28.025999999999954)"><tspan class="line" dy="0em" x="0" y="0">Crop Farming</tspan><tspan class="line" dy="1.3em" x="0" y="0">9.21</tspan></text></g></g><g class="slice"><path class="surface" d="M194.02245222998704,170.2908948846045L164.5299363066494,140.38785984613935A168,168 0,0,0 121.31870472852083,212.62289524877824L161.6140285463906,224.46717143658367A126,126 0,0,1 194.02245222998704,170.2908948846045Z" style="pointer-events: none; stroke-width: 1; fill: rgb(232, 242, 250); fill-opacity: 1; stroke: rgb(0, 0, 0); stroke-opacity: 1; opacity: 1;"/><g class="slicetext"><text data-notex="1" class="slicetext" text-anchor="middle" x="0" y="0" style="font-family: 'Times New Roman'; font-size: 12px; fill: rgb(0, 0, 0); fill-opacity: 1; white-space: pre;" transform="translate(154.32379106801065,183.3245776638126)rotate(-59.111999999999966)"><tspan class="line" dy="0em" x="0" y="0">Livestock</tspan><tspan class="line" dy="1.3em" x="0" y="0">8.06</tspan></text></g></g><g class="slice cursor-pointer"><path class="surface" d="M161.6140285463906,224.46717143658373L121.3187047285208,212.62289524877832A168,168 0,0,0 204.54156616650468,408.81694323640886L224.0311746248785,371.61270742730665A126,126 0,0,1 161.6140285463906,224.46717143658373Z" style="pointer-events: none; stroke-width: 1; fill: rgb(142, 193, 221); fill-opacity: 1; stroke: rgb(0, 0, 0); stroke-opacity: 1;"/><g class="slicetext"><text data-notex="1" class="slicetext" text-anchor="middle" x="0" y="0" style="font-family: 'Times New Roman'; font-size: 12px; fill: rgb(0, 0, 0); fill-opacity: 1; white-space: pre;" transform="translate(152.13566230207482,315.29878874497246)rotate(67.01400000000001)"><tspan class="line" dy="0em" x="0" y="0">Packaging</tspan><tspan class="line" dy="1.3em" x="0" y="0">21.87</tspan></text></g></g><g class="slice"><path class="surface" d="M384.8835433787638,126.80236471615277L410.47942922345476,93.50295589519095A210,210 0,0,0 315.4815535715631,52.606130457030844L308.8852428572505,94.08490436562465A168,168 0,0,1 384.8835433787638,126.80236471615277Z" style="pointer-events: none; stroke-width: 1; fill: rgb(233, 242, 251); fill-opacity: 1; stroke: rgb(0, 0, 0); stroke-opacity: 1; opacity: 1;"/><g class="slicetext"><text data-notex="1" class="slicetext" text-anchor="middle" x="0" y="0" style="font-family: 'Times New Roman'; font-size: 12px; fill: rgb(0, 0, 0); fill-opacity: 1; white-space: pre;" transform="translate(358.4719859348357,83.52720057018009)rotate(23.29200000000003)"><tspan class="line" dy="0em" x="0" y="0">Catfish</tspan><tspan class="line" dy="1.3em" x="0" y="0">7.92</tspan></text></g></g><g class="slice"><path class="surface" d="M308.8852428572505,94.08490436562465L315.4815535715631,52.606130457030844A210,210 0,0,0 240.81951479416693,54.177899260049514L249.15561183533353,95.3423194080396A168,168 0,0,1 308.8852428572505,94.08490436562465Z" style="pointer-events: none; stroke-width: 1; fill: rgb(244, 249, 254); fill-opacity: 1; stroke: rgb(0, 0, 0); stroke-opacity: 1; opacity: 1;"/><g class="slicetext"><text data-notex="1" class="slicetext" text-anchor="middle" x="0" y="0" style="font-family: 'Times New Roman'; font-size: 12px; fill: rgb(0, 0, 0); fill-opacity: 1; white-space: pre;" transform="translate(278.1121857317894,67.9027932287042)rotate(-1.2060000000000173)"><tspan class="line" dy="0em" x="0" y="0">Tilapia</tspan><tspan class="line" dy="1.3em" x="0" y="0">5.69</tspan></text></g></g><g class="slice"><path class="surface" d="M121.3187047285208,212.62289524877832L81.02338091065099,200.7786190609729A210,210 0,0,0 131.23510477353958,405.66719422068905L161.48808381883165,376.53375537655126A168,168 0,0,1 121.3187047285208,212.62289524877832Z" style="pointer-events: none; stroke-width: 1; fill: rgb(186, 214, 235); fill-opacity: 1; stroke: rgb(0, 0, 0); stroke-opacity: 1; opacity: 1;"/><g class="slicetext"><text data-notex="1" class="slicetext" text-anchor="middle" x="0" y="0" style="font-family: 'Times New Roman'; font-size: 12px; fill: rgb(0, 0, 0); fill-opacity: 1; white-space: pre;" transform="translate(105.08599974358658,303.47857260143104)rotate(76.23000000000002)"><tspan class="line" dy="0em" x="0" y="0">Vacuum Sealed</tspan><tspan class="line" dy="1.3em" x="0" y="0">16.75</tspan></text></g></g><g class="slice"><path class="surface" d="M161.48808381883165,376.53375537655126L131.23510477353958,405.66719422068905A210,210 0,0,0 185.05195770813086,446.0211790455111L204.54156616650468,408.81694323640886A168,168 0,0,1 161.48808381883165,376.53375537655126Z" style="pointer-events: none; stroke-width: 1; fill: rgb(247, 251, 255); fill-opacity: 1; stroke: rgb(0, 0, 0); stroke-opacity: 1; opacity: 1;"/><g class="slicetext"><text data-notex="1" class="slicetext" text-anchor="middle" x="0" y="0" style="font-family: 'Times New Roman'; font-size: 12px; fill: rgb(0, 0, 0); fill-opacity: 1; white-space: pre;" transform="translate(167.1463057979468,413.61085072848675)scale(0.8302842544072324)rotate(36.86400000000003)"><tspan class="line" dy="0em" x="0" y="0">Canned Meats</tspan><tspan class="line" dy="1.3em" x="0" y="0">5.12</tspan></text></g></g></g></g><g class="glimages"/><defs id="topdefs-f7c979"><g class="clips"/></defs><g class="layer-above"><g class="imagelayer"/><g class="shapelayer"/></g><g class="infolayer"><g class="cb35aed5 colorbar" transform="translate(10,50)"><rect class="cbbg" x="571.5" y="63" width="48.015625" height="295" style="fill: rgb(0, 0, 0); fill-opacity: 0; stroke: rgb(68, 68, 68); stroke-opacity: 1; stroke-width: 0;"/><g class="cbfills" transform="translate(0,93)"><rect class="cbfill gradient_filled" style="fill: url('#gf7c979-cb35aed5');" x="582" y="0" width="15" height="254"/></g><g class="cblines" transform="translate(0,93)"/><g class="cbaxis crisp" transform="translate(0,-50)"><g class="ycb35aed5tick"><text text-anchor="start" x="600.4" y="4.199999999999999" transform="translate(0,366.2700000000001)" style="font-family: 'Times New Roman'; font-size: 12px; fill: rgb(42, 63, 95); fill-opacity: 1; white-space: pre; opacity: 1;">10</text></g><g class="ycb35aed5tick"><text text-anchor="start" x="600.4" y="4.199999999999999" style="font-family: 'Times New Roman'; font-size: 12px; fill: rgb(42, 63, 95); fill-opacity: 1; white-space: pre; opacity: 1;" transform="translate(0,303.2900000000001)">20</text></g><g class="ycb35aed5tick"><text text-anchor="start" x="600.4" y="4.199999999999999" style="font-family: 'Times New Roman'; font-size: 12px; fill: rgb(42, 63, 95); fill-opacity: 1; white-space: pre; opacity: 1;" transform="translate(0,240.30000000000007)">30</text></g><g class="ycb35aed5tick"><text text-anchor="start" x="600.4" y="4.199999999999999" style="font-family: 'Times New Roman'; font-size: 12px; fill: rgb(42, 63, 95); fill-opacity: 1; white-space: pre; opacity: 1;" transform="translate(0,177.32000000000005)">40</text></g></g><g class="cbtitleunshift" transform="translate(-10,-50)"><g class="cbtitle" transform="translate(-0.5,-0.5)"><text class="ycb35aed5title" x="592.25" y="135.75" text-anchor="start" style="opacity: 1; font-family: 'Times New Roman'; font-size: 13px; fill: rgb(42, 63, 95); fill-opacity: 1; white-space: pre;">%</text></g></g><rect class="cboutline" x="582" y="93" width="15" height="254" style="stroke: rgb(68, 68, 68); stroke-opacity: 1; fill: none; stroke-width: 1;"/></g><g class="g-gtitle"><text class="gtitle" x="320" y="25" text-anchor="middle" dy="0em" style="opacity: 1; font-family: 'Times New Roman'; font-size: 16px; fill: rgb(42, 63, 95); fill-opacity: 1; white-space: pre;">Food Industry Distribution by Category (2023) (%)</text></g></g></svg>