<svg class="main-svg" xmlns="http://www.w3.org/2000/svg" xmlns:xlink="http://www.w3.org/1999/xlink" width="1920" height="1440" style="" viewBox="0 0 640 480"><rect x="0" y="0" width="640" height="480" style="fill: rgb(255, 255, 255); fill-opacity: 1;"/><defs id="defs-037153"><g class="clips"/><g class="gradients"><linearGradient x1="0" y1="1" x2="0" y2="0" gradientUnits="objectBoundingBox" id="g037153-cb8dbe1b"><stop offset="0%" stop-color="rgb(247, 252, 245)" stop-opacity="1"/><stop offset="12.5%" stop-color="rgb(229, 245, 224)" stop-opacity="1"/><stop offset="25%" stop-color="rgb(199, 233, 192)" stop-opacity="1"/><stop offset="37.5%" stop-color="rgb(161, 217, 155)" stop-opacity="1"/><stop offset="50%" stop-color="rgb(116, 196, 118)" stop-opacity="1"/><stop offset="62.5%" stop-color="rgb(65, 171, 93)" stop-opacity="1"/><stop offset="75%" stop-color="rgb(35, 139, 69)" stop-opacity="1"/><stop offset="87.5%" stop-color="rgb(0, 109, 44)" stop-opacity="1"/><stop offset="100%" stop-color="rgb(0, 68, 27)" stop-opacity="1"/></linearGradient></g><g class="patterns"/></defs><g class="bglayer"/><g class="layer-below"><g class="imagelayer"/><g class="shapelayer"/></g><g class="cartesianlayer"/><g class="polarlayer"/><g class="smithlayer"/><g class="ternarylayer"/><g class="geolayer"/><g class="funnelarealayer"/><g class="pielayer"/><g class="iciclelayer"/><g class="treemaplayer"/><g class="sunburstlayer"><g class="trace sunburst" stroke-linejoin="round" style="opacity: 1;"><g class="slice"><path class="surface" d="M282.5,260A0,0 0,1,0 282.5,260A0,0 0,1,0 282.5,260ZM324.5,260A42,42 0,1,1 240.5,260A42,42 0,1,1 324.5,260Z" style="pointer-events: none; stroke-width: 1; fill: rgb(255, 255, 255); fill-opacity: 1; stroke: rgb(0, 0, 0); stroke-opacity: 1;"/><g class="slicetext"><text data-notex="1" class="slicetext" text-anchor="middle" x="0" y="0" style="font-family: 'Times New Roman'; font-size: 12px; fill: rgb(0, 0, 0); fill-opacity: 1; white-space: pre;" transform="translate(282.5,264)">100</text></g></g><g class="slice cursor-pointer"><path class="surface" d="M324.5,260L366.5,260A84,84 0,0,0 203.86687315001475,230.45628050170174L243.18343657500736,245.22814025085086A42,42 0,0,1 324.5,260Z" style="pointer-events: none; stroke-width: 1; fill: rgb(0, 68, 27); fill-opacity: 1; stroke: rgb(0, 0, 0); stroke-opacity: 1;"/><g class="slicetext"><text data-notex="1" class="slicetext" text-anchor="middle" x="0" y="0" style="font-family: 'Times New Roman'; font-size: 12px; fill: rgb(0, 0, 0); fill-opacity: 1; white-space: pre;" transform="translate(293.42397221451307,199.8653998535643)scale(0.9548392757132221)rotate(10.29600000000005)"><tspan class="line" dy="0em" x="0" y="0">Food Distribution</tspan><tspan class="line" dy="1.3em" x="0" y="0">44.28</tspan></text></g></g><g class="slice cursor-pointer"><path class="surface" d="M243.18343657500736,245.22814025085086L203.86687315001475,230.45628050170174A84,84 0,0,0 289.8795005102624,343.6752231680265L286.1897502551312,301.83761158401325A42,42 0,0,1 243.18343657500736,245.22814025085086Z" style="pointer-events: none; stroke-width: 1; fill: rgb(50, 155, 81); fill-opacity: 1; stroke: rgb(0, 0, 0); stroke-opacity: 1;"/><g class="slicetext"><text data-notex="1" class="slicetext" text-anchor="middle" x="0" y="0" style="font-family: 'Times New Roman'; font-size: 12px; fill: rgb(0, 0, 0); fill-opacity: 1; white-space: pre;" transform="translate(239.36647330197314,292.7686151384116)scale(0.9842211435651563)rotate(52.775999999999954)"><tspan class="line" dy="0em" x="0" y="0">Food Processing</tspan><tspan class="line" dy="1.3em" x="0" y="0">32.12</tspan></text></g></g><g class="slice cursor-pointer"><path class="surface" d="M286.1897502551312,301.83761158401325L289.8795005102624,343.6752231680265A84,84 0,0,0 366.5,260L324.5,260A42,42 0,0,1 286.1897502551312,301.83761158401325Z" style="pointer-events: none; stroke-width: 1; fill: rgb(128, 202, 128); fill-opacity: 1; stroke: rgb(0, 0, 0); stroke-opacity: 1;"/><g class="slicetext"><text data-notex="1" class="slicetext" text-anchor="middle" x="0" y="0" style="font-family: 'Times New Roman'; font-size: 12px; fill: rgb(0, 0, 0); fill-opacity: 1; white-space: pre;" transform="translate(323.708257220518,297.73395674126107)scale(0.9377199169429018)rotate(-47.51999999999998)"><tspan class="line" dy="0em" x="0" y="0">Food Production</tspan><tspan class="line" dy="1.3em" x="0" y="0">23.6</tspan></text></g></g><g class="slice cursor-pointer"><path class="surface" d="M366.5,260L408.5,260A126,126 0,0,0 207.8000406597065,158.53120640039867L232.700027106471,192.3541376002658A84,84 0,0,1 366.5,260Z" style="pointer-events: none; stroke-width: 1; fill: rgb(31, 136, 66); fill-opacity: 1; stroke: rgb(0, 0, 0); stroke-opacity: 1;"/><g class="slicetext"><text data-notex="1" class="slicetext" text-anchor="middle" x="0" y="0" style="font-family: 'Times New Roman'; font-size: 12px; fill: rgb(0, 0, 0); fill-opacity: 1; white-space: pre;" transform="translate(329.5467288663937,162.49033279700961)"><tspan class="line" dy="0em" x="0" y="0">Retail</tspan><tspan class="line" dy="1.3em" x="0" y="0">35.1</tspan></text></g></g><g class="slice"><path class="surface" d="M232.700027106471,192.3541376002658L207.8000406597065,158.53120640039867A126,126 0,0,0 164.55030972502212,215.68442075255265L203.86687315001473,230.45628050170177A84,84 0,0,1 232.700027106471,192.3541376002658Z" style="pointer-events: none; stroke-width: 1; fill: rgb(233, 247, 229); fill-opacity: 1; stroke: rgb(0, 0, 0); stroke-opacity: 1; opacity: 1;"/><g class="slicetext"><text data-notex="1" class="slicetext" text-anchor="middle" x="0" y="0" style="font-family: 'Times New Roman'; font-size: 12px; fill: rgb(0, 0, 0); fill-opacity: 1; white-space: pre;" transform="translate(193.94576002614738,192.9880725798539)rotate(-52.884000000000015)"><tspan class="line" dy="0em" x="0" y="0">Wholesale</tspan><tspan class="line" dy="1.3em" x="0" y="0">9.18</tspan></text></g></g><g class="slice cursor-pointer"><path class="surface" d="M203.86687315001475,230.45628050170174L164.55030972502215,215.68442075255263A126,126 0,0,0 207.92760905347984,361.5625841957527L232.7850727023199,327.70838946383515A84,84 0,0,1 203.86687315001475,230.45628050170174Z" style="pointer-events: none; stroke-width: 1; fill: rgb(155, 214, 150); fill-opacity: 1; stroke: rgb(0, 0, 0); stroke-opacity: 1;"/><g class="slicetext"><text data-notex="1" class="slicetext" text-anchor="middle" x="0" y="0" style="font-family: 'Times New Roman'; font-size: 12px; fill: rgb(0, 0, 0); fill-opacity: 1; white-space: pre;" transform="translate(189.34796145003284,287.69903160188375)rotate(73.44000000000005)"><tspan class="line" dy="0em" x="0" y="0">Meat Processing</tspan><tspan class="line" dy="1.3em" x="0" y="0">20.64</tspan></text></g></g><g class="slice cursor-pointer"><path class="surface" d="M232.7850727023199,327.70838946383515L207.92760905347984,361.5625841957527A126,126 0,0,0 293.5692507653936,385.51283475203974L289.8795005102624,343.6752231680265A84,84 0,0,1 232.7850727023199,327.70838946383515Z" style="pointer-events: none; stroke-width: 1; fill: rgb(222, 242, 216); fill-opacity: 1; stroke: rgb(0, 0, 0); stroke-opacity: 1;"/><g class="slicetext"><text data-notex="1" class="slicetext" text-anchor="middle" x="0" y="0" style="font-family: 'Times New Roman'; font-size: 12px; fill: rgb(0, 0, 0); fill-opacity: 1; white-space: pre;" transform="translate(254.25458953369528,361.00033473454494)scale(0.829674843603746)rotate(15.624000000000024)"><tspan class="line" dy="0em" x="0" y="0">Dairy Processing</tspan><tspan class="line" dy="1.3em" x="0" y="0">11.48</tspan></text></g></g><g class="slice"><path class="surface" d="M289.8795005102624,343.6752231680265L293.5692507653936,385.51283475203974A126,126 0,0,0 408.5,260.00000000000006L366.5,260A84,84 0,0,1 289.8795005102624,343.6752231680265Z" style="pointer-events: none; stroke-width: 1; fill: rgb(128, 202, 128); fill-opacity: 1; stroke: rgb(0, 0, 0); stroke-opacity: 1; opacity: 1;"/><g class="slicetext"><text data-notex="1" class="slicetext" text-anchor="middle" x="0" y="0" style="font-family: 'Times New Roman'; font-size: 12px; fill: rgb(0, 0, 0); fill-opacity: 1; white-space: pre;" transform="translate(355.3878709048669,326.7426373546669)rotate(-47.51999999999998)"><tspan class="line" dy="0em" x="0" y="0">Agriculture</tspan><tspan class="line" dy="1.3em" x="0" y="0">23.6</tspan></text></g></g><g class="slice cursor-pointer"><path class="surface" d="M408.5,260L450.5,260A168,168 0,0,0 182.900054212942,124.70827520053157L207.8000406597065,158.53120640039867A126,126 0,0,1 408.5,260Z" style="pointer-events: none; stroke-width: 1; fill: rgb(31, 136, 66); fill-opacity: 1; stroke: rgb(0, 0, 0); stroke-opacity: 1;"/><g class="slicetext"><text data-notex="1" class="slicetext" text-anchor="middle" x="0" y="0" style="font-family: 'Times New Roman'; font-size: 12px; fill: rgb(0, 0, 0); fill-opacity: 1; white-space: pre;" transform="translate(348.4703659841864,129.1504487691011)rotate(26.819999999999936)"><tspan class="line" dy="0em" x="0" y="0">Convenience Stores</tspan><tspan class="line" dy="1.3em" x="0" y="0">35.1</tspan></text></g></g><g class="slice cursor-pointer"><path class="surface" d="M164.55030972502215,215.68442075255263L125.23374630002951,200.91256100340348A168,168 0,0,0 128.48539743443484,327.1081380800496L166.98904807582613,310.33110356003726A126,126 0,0,1 164.55030972502215,215.68442075255263Z" style="pointer-events: none; stroke-width: 1; fill: rgb(217, 240, 211); fill-opacity: 1; stroke: rgb(0, 0, 0); stroke-opacity: 1;"/><g class="slicetext"><text data-notex="1" class="slicetext" text-anchor="middle" x="0" y="0" style="font-family: 'Times New Roman'; font-size: 12px; fill: rgb(0, 0, 0); fill-opacity: 1; white-space: pre;" transform="translate(140.93901727932797,263.6475678523316)rotate(88.524)"><tspan class="line" dy="0em" x="0" y="0">Packaging</tspan><tspan class="line" dy="1.3em" x="0" y="0">12.26</tspan></text></g></g><g class="slice"><path class="surface" d="M166.98904807582613,310.33110356003726L128.48539743443484,327.1081380800496A168,168 0,0,0 183.0701454046398,395.4167789276703L207.92760905347984,361.5625841957527A126,126 0,0,1 166.98904807582613,310.33110356003726Z" style="pointer-events: none; stroke-width: 1; fill: rgb(236, 248, 232); fill-opacity: 1; stroke: rgb(0, 0, 0); stroke-opacity: 1; opacity: 1;"/><g class="slicetext"><text data-notex="1" class="slicetext" text-anchor="middle" x="0" y="0" style="font-family: 'Times New Roman'; font-size: 12px; fill: rgb(0, 0, 0); fill-opacity: 1; white-space: pre;" transform="translate(170.34163735130102,349.6246196961673)rotate(51.37199999999996)"><tspan class="line" dy="0em" x="0" y="0">Slaughtering</tspan><tspan class="line" dy="1.3em" x="0" y="0">8.38</tspan></text></g></g><g class="slice"><path class="surface" d="M207.92760905347984,361.5625841957527L183.0701454046398,395.4167789276703A168,168 0,0,0 239.08637805416856,422.29373810946754L249.93978354062642,381.72030358210066A126,126 0,0,1 207.92760905347984,361.5625841957527Z" style="pointer-events: none; stroke-width: 1; fill: rgb(245, 251, 243); fill-opacity: 1; stroke: rgb(0, 0, 0); stroke-opacity: 1; opacity: 1;"/><g class="slicetext"><text data-notex="1" class="slicetext" text-anchor="middle" x="0" y="0" style="font-family: 'Times New Roman'; font-size: 12px; fill: rgb(0, 0, 0); fill-opacity: 1; white-space: pre;" transform="translate(216.88879397340003,396.45912433117024)scale(0.7540529067578186)rotate(25.632000000000062)"><tspan class="line" dy="0em" x="0" y="0">Milk Products</tspan><tspan class="line" dy="1.3em" x="0" y="0">5.92</tspan></text></g></g><g class="slice"><path class="surface" d="M249.93978354062642,381.72030358210066L239.08637805416856,422.29373810946754A168,168 0,0,0 297.2590010205248,427.350446336053L293.5692507653936,385.51283475203974A126,126 0,0,1 249.93978354062642,381.72030358210066Z" style="pointer-events: none; stroke-width: 1; fill: rgb(247, 252, 245); fill-opacity: 1; stroke: rgb(0, 0, 0); stroke-opacity: 1; opacity: 1;"/><g class="slicetext"><text data-notex="1" class="slicetext" text-anchor="middle" x="0" y="0" style="font-family: 'Times New Roman'; font-size: 12px; fill: rgb(0, 0, 0); fill-opacity: 1; white-space: pre;" transform="translate(269.3435527438512,407.8243251625848)scale(0.9311421958050135)rotate(4.967999999999961)"><tspan class="line" dy="0em" x="0" y="0">Ice Cream</tspan><tspan class="line" dy="1.3em" x="0" y="0">5.56</tspan></text></g></g><g class="slice"><path class="surface" d="M450.5,260L492.5,260A210,210 0,0,0 291.074163915487,50.17511178806657L289.3593311323896,92.14008943045326A168,168 0,0,1 450.5,260Z" style="pointer-events: none; stroke-width: 1; fill: rgb(121, 198, 122); fill-opacity: 1; stroke: rgb(0, 0, 0); stroke-opacity: 1; opacity: 1;"/><g class="slicetext"><text data-notex="1" class="slicetext" text-anchor="middle" x="0" y="0" style="font-family: 'Times New Roman'; font-size: 12px; fill: rgb(0, 0, 0); fill-opacity: 1; white-space: pre;" transform="translate(420.0617189402904,127.7172974479403)rotate(46.16999999999996)"><tspan class="line" dy="0em" x="0" y="0">Ready Meals</tspan><tspan class="line" dy="1.3em" x="0" y="0">24.35</tspan></text></g></g><g class="slice"><path class="surface" d="M289.3593311323896,92.14008943045326L291.074163915487,50.17511178806657A210,210 0,0,0 158.0000677661775,90.88534400066445L182.900054212942,124.70827520053157A168,168 0,0,1 289.3593311323896,92.14008943045326Z" style="pointer-events: none; stroke-width: 1; fill: rgb(226, 244, 221); fill-opacity: 1; stroke: rgb(0, 0, 0); stroke-opacity: 1; opacity: 1;"/><g class="slicetext"><text data-notex="1" class="slicetext" text-anchor="middle" x="0" y="0" style="font-family: 'Times New Roman'; font-size: 12px; fill: rgb(0, 0, 0); fill-opacity: 1; white-space: pre;" transform="translate(226.82132813169687,78.55771188635559)rotate(-17.00999999999999)"><tspan class="line" dy="0em" x="0" y="0">Packaged Snacks</tspan><tspan class="line" dy="1.3em" x="0" y="0">10.75</tspan></text></g></g><g class="slice"><path class="surface" d="M125.23374630002951,200.91256100340348L85.91718287503687,186.14070125425434A210,210 0,0,0 72.97440909341273,274.10768426232426L114.87952727473018,271.2861474098594A168,168 0,0,1 125.23374630002951,200.91256100340348Z" style="pointer-events: none; stroke-width: 1; fill: rgb(242, 250, 239); fill-opacity: 1; stroke: rgb(0, 0, 0); stroke-opacity: 1; opacity: 1;"/><g class="slicetext"><text data-notex="1" class="slicetext" text-anchor="middle" x="0" y="0" style="font-family: 'Times New Roman'; font-size: 12px; fill: rgb(0, 0, 0); fill-opacity: 1; white-space: pre;" transform="translate(89.44092018997652,231.59479714973935)scale(0.997456879564572)rotate(-81.63)"><tspan class="line" dy="0em" x="0" y="0">Vacuum Sealed</tspan><tspan class="line" dy="1.3em" x="0" y="0">6.79</tspan></text></g></g><g class="slice"><path class="surface" d="M114.87952727473018,271.2861474098594L72.97440909341273,274.10768426232426A210,210 0,0,0 89.98174679304353,343.88517260006205L128.48539743443484,327.1081380800496A168,168 0,0,1 114.87952727473018,271.2861474098594Z" style="pointer-events: none; stroke-width: 1; fill: rgb(247, 252, 245); fill-opacity: 1; stroke: rgb(0, 0, 0); stroke-opacity: 1; opacity: 1;"/><g class="slicetext"><text data-notex="1" class="slicetext" text-anchor="middle" x="0" y="0" style="font-family: 'Times New Roman'; font-size: 12px; fill: rgb(0, 0, 0); fill-opacity: 1; white-space: pre;" transform="translate(96.988469894413,305.0674442488974)scale(0.8795863958262562)rotate(76.30200000000002)"><tspan class="line" dy="0em" x="0" y="0">Canned Meats</tspan><tspan class="line" dy="1.3em" x="0" y="0">5.47</tspan></text></g></g></g></g><g class="glimages"/><defs id="topdefs-037153"><g class="clips"/></defs><g class="layer-above"><g class="imagelayer"/><g class="shapelayer"/></g><g class="infolayer"><g class="cb8dbe1b colorbar" transform="translate(10,50)"><rect class="cbbg" x="571.5" y="63" width="48.015625" height="295" style="fill: rgb(0, 0, 0); fill-opacity: 0; stroke: rgb(68, 68, 68); stroke-opacity: 1; stroke-width: 0;"/><g class="cbfills" transform="translate(0,93)"><rect class="cbfill gradient_filled" style="fill: url('#g037153-cb8dbe1b');" x="582" y="0" width="15" height="254"/></g><g class="cblines" transform="translate(0,93)"/><g class="cbaxis crisp" transform="translate(0,-50)"><g class="ycb8dbe1btick"><text text-anchor="start" x="600.4" y="4.199999999999999" transform="translate(0,367.35)" style="font-family: 'Times New Roman'; font-size: 12px; fill: rgb(42, 63, 95); fill-opacity: 1; white-space: pre; opacity: 1;">10</text></g><g class="ycb8dbe1btick"><text text-anchor="start" x="600.4" y="4.199999999999999" style="font-family: 'Times New Roman'; font-size: 12px; fill: rgb(42, 63, 95); fill-opacity: 1; white-space: pre; opacity: 1;" transform="translate(0,301.9100000000001)">20</text></g><g class="ycb8dbe1btick"><text text-anchor="start" x="600.4" y="4.199999999999999" style="font-family: 'Times New Roman'; font-size: 12px; fill: rgb(42, 63, 95); fill-opacity: 1; white-space: pre; opacity: 1;" transform="translate(0,236.46000000000004)">30</text></g><g class="ycb8dbe1btick"><text text-anchor="start" x="600.4" y="4.199999999999999" style="font-family: 'Times New Roman'; font-size: 12px; fill: rgb(42, 63, 95); fill-opacity: 1; white-space: pre; opacity: 1;" transform="translate(0,171.01000000000005)">40</text></g></g><g class="cbtitleunshift" transform="translate(-10,-50)"><g class="cbtitle" transform="translate(-0.5,-0.5)"><text class="ycb8dbe1btitle" x="592.25" y="135.75" text-anchor="start" style="opacity: 1; font-family: 'Times New Roman'; font-size: 13px; fill: rgb(42, 63, 95); fill-opacity: 1; white-space: pre;">%</text></g></g><rect class="cboutline" x="582" y="93" width="15" height="254" style="stroke: rgb(68, 68, 68); stroke-opacity: 1; fill: none; stroke-width: 1;"/></g><g class="g-gtitle"><text class="gtitle" x="320" y="25" text-anchor="middle" dy="0em" style="opacity: 1; font-family: 'Times New Roman'; font-size: 16px; fill: rgb(42, 63, 95); fill-opacity: 1; white-space: pre;">Food Industry Distribution by Category (2023) (%)</text></g></g></svg>