<svg class="main-svg" xmlns="http://www.w3.org/2000/svg" xmlns:xlink="http://www.w3.org/1999/xlink" width="1920" height="1440" style="" viewBox="0 0 640 480"><rect x="0" y="0" width="640" height="480" style="fill: rgb(255, 255, 255); fill-opacity: 1;"/><defs id="defs-165c76"><g class="clips"/><g class="gradients"><linearGradient x1="0" y1="1" x2="0" y2="0" gradientUnits="objectBoundingBox" id="g165c76-cb435497"><stop offset="0%" stop-color="rgb(255, 245, 235)" stop-opacity="1"/><stop offset="12.5%" stop-color="rgb(254, 230, 206)" stop-opacity="1"/><stop offset="25%" stop-color="rgb(253, 208, 162)" stop-opacity="1"/><stop offset="37.5%" stop-color="rgb(253, 174, 107)" stop-opacity="1"/><stop offset="50%" stop-color="rgb(253, 141, 60)" stop-opacity="1"/><stop offset="62.5%" stop-color="rgb(241, 105, 19)" stop-opacity="1"/><stop offset="75%" stop-color="rgb(217, 72, 1)" stop-opacity="1"/><stop offset="87.5%" stop-color="rgb(166, 54, 3)" stop-opacity="1"/><stop offset="100%" stop-color="rgb(127, 39, 4)" stop-opacity="1"/></linearGradient></g><g class="patterns"/></defs><g class="bglayer"/><g class="layer-below"><g class="imagelayer"/><g class="shapelayer"/></g><g class="cartesianlayer"/><g class="polarlayer"/><g class="smithlayer"/><g class="ternarylayer"/><g class="geolayer"/><g class="funnelarealayer"/><g class="pielayer"/><g class="iciclelayer"/><g class="treemaplayer"/><g class="sunburstlayer"><g class="trace sunburst" stroke-linejoin="round" style="opacity: 1;"><g class="slice"><path class="surface" d="M282.5,260A0,0 0,1,0 282.5,260A0,0 0,1,0 282.5,260ZM335,260A52.5,52.5 0,1,1 230,260A52.5,52.5 0,1,1 335,260Z" style="pointer-events: none; stroke-width: 1; fill: rgb(255, 255, 255); fill-opacity: 1; stroke: rgb(0, 0, 0); stroke-opacity: 1;"/><g class="slicetext"><text data-notex="1" class="slicetext" text-anchor="middle" x="0" y="0" style="font-family: 'Times New Roman'; font-size: 12px; fill: rgb(0, 0, 0); fill-opacity: 1; white-space: pre;" transform="translate(282.5,264)">100</text></g></g><g class="slice cursor-pointer"><path class="surface" d="M335,260L387.5,260A105,105 0,0,0 181.11773931934295,232.67533679476915L231.80886965967147,246.33766839738456A52.5,52.5 0,0,1 335,260Z" style="pointer-events: none; stroke-width: 1; fill: rgb(127, 39, 4); fill-opacity: 1; stroke: rgb(0, 0, 0); stroke-opacity: 1;"/><g class="slicetext"><text data-notex="1" class="slicetext" text-anchor="middle" x="0" y="0" style="font-family: 'Times New Roman'; font-size: 12px; fill: rgb(0, 0, 0); fill-opacity: 1; white-space: pre;" transform="translate(292.50105097610935,184.46239889109378)rotate(7.54200000000003)"><tspan class="line" dy="0em" x="0" y="0">Food Processing</tspan><tspan class="line" dy="1.3em" x="0" y="0">45.81</tspan></text></g></g><g class="slice cursor-pointer"><path class="surface" d="M231.80886965967147,246.33766839738456L181.11773931934295,232.67533679476915A105,105 0,0,0 290.2777363529458,364.7115409934553L286.3888681764729,312.35577049672764A52.5,52.5 0,0,1 231.80886965967147,246.33766839738456Z" style="pointer-events: none; stroke-width: 1; fill: rgb(242, 107, 22); fill-opacity: 1; stroke: rgb(0, 0, 0); stroke-opacity: 1;"/><g class="slicetext"><text data-notex="1" class="slicetext" text-anchor="middle" x="0" y="0" style="font-family: 'Times New Roman'; font-size: 12px; fill: rgb(0, 0, 0); fill-opacity: 1; white-space: pre;" transform="translate(230.05087902182763,303.36193944031413)rotate(50.418000000000006)"><tspan class="line" dy="0em" x="0" y="0">Food Distribution</tspan><tspan class="line" dy="1.3em" x="0" y="0">30.37</tspan></text></g></g><g class="slice cursor-pointer"><path class="surface" d="M286.3888681764729,312.35577049672764L290.2777363529458,364.7115409934553A105,105 0,0,0 387.5,260L335,260A52.5,52.5 0,0,1 286.3888681764729,312.35577049672764Z" style="pointer-events: none; stroke-width: 1; fill: rgb(253, 153, 77); fill-opacity: 1; stroke: rgb(0, 0, 0); stroke-opacity: 1;"/><g class="slicetext"><text data-notex="1" class="slicetext" text-anchor="middle" x="0" y="0" style="font-family: 'Times New Roman'; font-size: 12px; fill: rgb(0, 0, 0); fill-opacity: 1; white-space: pre;" transform="translate(333.9602023676624,307.77961736072956)rotate(-47.124000000000024)"><tspan class="line" dy="0em" x="0" y="0">Food Production</tspan><tspan class="line" dy="1.3em" x="0" y="0">23.82</tspan></text></g></g><g class="slice"><path class="surface" d="M387.5,260L440,260A157.5,157.5 0,0,0 130.42660897901442,219.0130051921537L181.11773931934295,232.67533679476915A105,105 0,0,1 387.5,260Z" style="pointer-events: none; stroke-width: 1; fill: rgb(127, 39, 4); fill-opacity: 1; stroke: rgb(0, 0, 0); stroke-opacity: 1; opacity: 1;"/><g class="slicetext"><text data-notex="1" class="slicetext" text-anchor="middle" x="0" y="0" style="font-family: 'Times New Roman'; font-size: 12px; fill: rgb(0, 0, 0); fill-opacity: 1; white-space: pre;" transform="translate(299.56804062421645,131.0856641504458)rotate(7.54200000000003)"><tspan class="line" dy="0em" x="0" y="0">Meat Processing</tspan><tspan class="line" dy="1.3em" x="0" y="0">45.81</tspan></text></g></g><g class="slice cursor-pointer"><path class="surface" d="M181.11773931934295,232.67533679476915L130.42660897901442,219.0130051921537A157.5,157.5 0,0,0 163.3163976020792,362.9636776705957L203.04426506805282,328.64245178039715A105,105 0,0,1 181.11773931934295,232.67533679476915Z" style="pointer-events: none; stroke-width: 1; fill: rgb(253, 208, 162); fill-opacity: 1; stroke: rgb(0, 0, 0); stroke-opacity: 1;"/><g class="slicetext"><text data-notex="1" class="slicetext" text-anchor="middle" x="0" y="0" style="font-family: 'Times New Roman'; font-size: 12px; fill: rgb(0, 0, 0); fill-opacity: 1; white-space: pre;" transform="translate(160.76208194130538,287.8146279098632)rotate(77.13)"><tspan class="line" dy="0em" x="0" y="0">Wholesale</tspan><tspan class="line" dy="1.3em" x="0" y="0">15.53</tspan></text></g></g><g class="slice cursor-pointer"><path class="surface" d="M203.04426506805282,328.64245178039715L163.3163976020792,362.9636776705957A157.5,157.5 0,0,0 294.1666045294187,417.06731149018293L290.2777363529458,364.7115409934553A105,105 0,0,1 203.04426506805282,328.64245178039715Z" style="pointer-events: none; stroke-width: 1; fill: rgb(253, 211, 169); fill-opacity: 1; stroke: rgb(0, 0, 0); stroke-opacity: 1;"/><g class="slicetext"><text data-notex="1" class="slicetext" text-anchor="middle" x="0" y="0" style="font-family: 'Times New Roman'; font-size: 12px; fill: rgb(0, 0, 0); fill-opacity: 1; white-space: pre;" transform="translate(232.02087380676429,377.4860358852452)"><tspan class="line" dy="0em" x="0" y="0">Retail</tspan><tspan class="line" dy="1.3em" x="0" y="0">14.84</tspan></text></g></g><g class="slice"><path class="surface" d="M290.2777363529458,364.7115409934553L294.1666045294187,417.06731149018293A157.5,157.5 0,0,0 400.2489936616343,364.6012642928966L360.9993291077562,329.7341761952644A105,105 0,0,1 290.2777363529458,364.7115409934553Z" style="pointer-events: none; stroke-width: 1; fill: rgb(254, 223, 191); fill-opacity: 1; stroke: rgb(0, 0, 0); stroke-opacity: 1; opacity: 1;"/><g class="slicetext"><text data-notex="1" class="slicetext" text-anchor="middle" x="0" y="0" style="font-family: 'Times New Roman'; font-size: 12px; fill: rgb(0, 0, 0); fill-opacity: 1; white-space: pre;" transform="translate(338.2934713107025,372.8101896520457)rotate(-26.31600000000003)"><tspan class="line" dy="0em" x="0" y="0">Aquaculture</tspan><tspan class="line" dy="1.3em" x="0" y="0">12.26</tspan></text></g></g><g class="slice cursor-pointer"><path class="surface" d="M360.9993291077562,329.7341761952644L400.2489936616343,364.6012642928966A157.5,157.5 0,0,0 440,260.00000000000017L387.5,260.0000000000001A105,105 0,0,1 360.9993291077562,329.7341761952644Z" style="pointer-events: none; stroke-width: 1; fill: rgb(254, 226, 197); fill-opacity: 1; stroke: rgb(0, 0, 0); stroke-opacity: 1;"/><g class="slicetext"><text data-notex="1" class="slicetext" text-anchor="middle" x="0" y="0" style="font-family: 'Times New Roman'; font-size: 12px; fill: rgb(0, 0, 0); fill-opacity: 1; white-space: pre;" transform="translate(400.623037750819,304.88960677561033)rotate(-69.19200000000001)"><tspan class="line" dy="0em" x="0" y="0">Agriculture</tspan><tspan class="line" dy="1.3em" x="0" y="0">11.56</tspan></text></g></g><g class="slice"><path class="surface" d="M130.42660897901442,219.0130051921537L79.73547863868589,205.35067358953827A210,210 0,0,0 81.93929147383017,322.2527284179637L132.07946860537263,306.68954631347276A157.5,157.5 0,0,1 130.42660897901442,219.0130051921537Z" style="pointer-events: none; stroke-width: 1; fill: rgb(254, 235, 215); fill-opacity: 1; stroke: rgb(0, 0, 0); stroke-opacity: 1; opacity: 1;"/><g class="slicetext"><text data-notex="1" class="slicetext" text-anchor="middle" x="0" y="0" style="font-family: 'Times New Roman'; font-size: 12px; fill: rgb(0, 0, 0); fill-opacity: 1; white-space: pre;" transform="translate(101.45137903105639,263.2489986947739)rotate(88.91999999999996)"><tspan class="line" dy="0em" x="0" y="0">Regional Hubs</tspan><tspan class="line" dy="1.3em" x="0" y="0">8.98</tspan></text></g></g><g class="slice"><path class="surface" d="M132.07946860537263,306.68954631347276L81.93929147383017,322.2527284179637A210,210 0,0,0 123.58853013610567,397.28490356079436L163.31639760207926,362.96367767059576A157.5,157.5 0,0,1 132.07946860537263,306.68954631347276Z" style="pointer-events: none; stroke-width: 1; fill: rgb(255, 242, 229); fill-opacity: 1; stroke: rgb(0, 0, 0); stroke-opacity: 1; opacity: 1;"/><g class="slicetext"><text data-notex="1" class="slicetext" text-anchor="middle" x="0" y="0" style="font-family: 'Times New Roman'; font-size: 12px; fill: rgb(0, 0, 0); fill-opacity: 1; white-space: pre;" transform="translate(116.42701311825974,352.01916403515213)scale(0.881822823297895)rotate(60.96600000000001)"><tspan class="line" dy="0em" x="0" y="0">Export Networks</tspan><tspan class="line" dy="1.3em" x="0" y="0">6.55</tspan></text></g></g><g class="slice"><path class="surface" d="M163.3163976020792,362.9636776705957L123.58853013610562,397.2849035607943A210,210 0,0,0 226.06920101129649,462.2759623027327L240.17690075847236,411.70697172704956A157.5,157.5 0,0,1 163.3163976020792,362.9636776705957Z" style="pointer-events: none; stroke-width: 1; fill: rgb(254, 234, 213); fill-opacity: 1; stroke: rgb(0, 0, 0); stroke-opacity: 1; opacity: 1;"/><g class="slicetext"><text data-notex="1" class="slicetext" text-anchor="middle" x="0" y="0" style="font-family: 'Times New Roman'; font-size: 12px; fill: rgb(0, 0, 0); fill-opacity: 1; white-space: pre;" transform="translate(183.89456340675653,415.1789169150651)rotate(32.38199999999995)"><tspan class="line" dy="0em" x="0" y="0">Convenience Stores</tspan><tspan class="line" dy="1.3em" x="0" y="0">9.33</tspan></text></g></g><g class="slice"><path class="surface" d="M240.17690075847236,411.70697172704956L226.06920101129649,462.2759623027327A210,210 0,0,0 298.0554727058916,469.4230819869106L294.1666045294187,417.06731149018293A157.5,157.5 0,0,1 240.17690075847236,411.70697172704956Z" style="pointer-events: none; stroke-width: 1; fill: rgb(255, 245, 235); fill-opacity: 1; stroke: rgb(0, 0, 0); stroke-opacity: 1; opacity: 1;"/><g class="slicetext"><text data-notex="1" class="slicetext" text-anchor="middle" x="0" y="0" style="font-family: 'Times New Roman'; font-size: 12px; fill: rgb(0, 0, 0); fill-opacity: 1; white-space: pre;" transform="translate(263.56458380898204,449.19119847773703)scale(0.9199180022994269)rotate(5.669999999999959)"><tspan class="line" dy="0em" x="0" y="0">Supermarkets</tspan><tspan class="line" dy="1.3em" x="0" y="0">5.51</tspan></text></g></g><g class="slice"><path class="surface" d="M400.2489936616343,364.6012642928966L439.49865821551236,399.4683523905288A210,210 0,0,0 492.5,260.0000000000002L440,260.00000000000017A157.5,157.5 0,0,1 400.2489936616343,364.6012642928966Z" style="pointer-events: none; stroke-width: 1; fill: rgb(254, 226, 197); fill-opacity: 1; stroke: rgb(0, 0, 0); stroke-opacity: 1; opacity: 1;"/><g class="slicetext"><text data-notex="1" class="slicetext" text-anchor="middle" x="0" y="0" style="font-family: 'Times New Roman'; font-size: 12px; fill: rgb(0, 0, 0); fill-opacity: 1; white-space: pre;" transform="translate(449.01991902562054,323.2815903459505)rotate(-69.19200000000001)"><tspan class="line" dy="0em" x="0" y="0">Livestock</tspan><tspan class="line" dy="1.3em" x="0" y="0">11.56</tspan></text></g></g></g></g><g class="glimages"/><defs id="topdefs-165c76"><g class="clips"/></defs><g class="layer-above"><g class="imagelayer"/><g class="shapelayer"/></g><g class="infolayer"><g class="cb435497 colorbar" transform="translate(10,50)"><rect class="cbbg" x="571.5" y="63" width="48.015625" height="295" style="fill: rgb(0, 0, 0); fill-opacity: 0; stroke: rgb(68, 68, 68); stroke-opacity: 1; stroke-width: 0;"/><g class="cbfills" transform="translate(0,93)"><rect class="cbfill gradient_filled" style="fill: url('#g165c76-cb435497');" x="582" y="0" width="15" height="254"/></g><g class="cblines" transform="translate(0,93)"/><g class="cbaxis crisp" transform="translate(0,-50)"><g class="ycb435497tick"><text text-anchor="start" x="600.4" y="4.199999999999999" transform="translate(0,368.70000000000005)" style="font-family: 'Times New Roman'; font-size: 12px; fill: rgb(42, 63, 95); fill-opacity: 1; white-space: pre; opacity: 1;">10</text></g><g class="ycb435497tick"><text text-anchor="start" x="600.4" y="4.199999999999999" style="font-family: 'Times New Roman'; font-size: 12px; fill: rgb(42, 63, 95); fill-opacity: 1; white-space: pre; opacity: 1;" transform="translate(0,305.6700000000001)">20</text></g><g class="ycb435497tick"><text text-anchor="start" x="600.4" y="4.199999999999999" style="font-family: 'Times New Roman'; font-size: 12px; fill: rgb(42, 63, 95); fill-opacity: 1; white-space: pre; opacity: 1;" transform="translate(0,242.65000000000006)">30</text></g><g class="ycb435497tick"><text text-anchor="start" x="600.4" y="4.199999999999999" style="font-family: 'Times New Roman'; font-size: 12px; fill: rgb(42, 63, 95); fill-opacity: 1; white-space: pre; opacity: 1;" transform="translate(0,179.62000000000006)">40</text></g></g><g class="cbtitleunshift" transform="translate(-10,-50)"><g class="cbtitle" transform="translate(-0.5,-0.5)"><text class="ycb435497title" x="592.25" y="135.75" text-anchor="start" style="opacity: 1; font-family: 'Times New Roman'; font-size: 13px; fill: rgb(42, 63, 95); fill-opacity: 1; white-space: pre;">%</text></g></g><rect class="cboutline" x="582" y="93" width="15" height="254" style="stroke: rgb(68, 68, 68); stroke-opacity: 1; fill: none; stroke-width: 1;"/></g><g class="g-gtitle"><text class="gtitle" x="320" y="25" text-anchor="middle" dy="0em" style="opacity: 1; font-family: 'Times New Roman'; font-size: 16px; fill: rgb(42, 63, 95); fill-opacity: 1; white-space: pre;">Food Industry Distribution by Category (2023) (%)</text></g></g></svg>