<svg class="main-svg" xmlns="http://www.w3.org/2000/svg" xmlns:xlink="http://www.w3.org/1999/xlink" width="1920" height="1440" style="" viewBox="0 0 640 480"><rect x="0" y="0" width="640" height="480" style="fill: rgb(255, 255, 255); fill-opacity: 1;"/><defs id="defs-976f8e"><g class="clips"/><g class="gradients"><linearGradient x1="0" y1="1" x2="0" y2="0" gradientUnits="objectBoundingBox" id="g976f8e-cbf0bf75"><stop offset="0%" stop-color="rgb(255, 245, 240)" stop-opacity="1"/><stop offset="12.5%" stop-color="rgb(254, 224, 210)" stop-opacity="1"/><stop offset="25%" stop-color="rgb(252, 187, 161)" stop-opacity="1"/><stop offset="37.5%" stop-color="rgb(252, 146, 114)" stop-opacity="1"/><stop offset="50%" stop-color="rgb(251, 106, 74)" stop-opacity="1"/><stop offset="62.5%" stop-color="rgb(239, 59, 44)" stop-opacity="1"/><stop offset="75%" stop-color="rgb(203, 24, 29)" stop-opacity="1"/><stop offset="87.5%" stop-color="rgb(165, 15, 21)" stop-opacity="1"/><stop offset="100%" stop-color="rgb(103, 0, 13)" stop-opacity="1"/></linearGradient></g><g class="patterns"/></defs><g class="bglayer"/><g class="layer-below"><g class="imagelayer"/><g class="shapelayer"/></g><g class="cartesianlayer"/><g class="polarlayer"/><g class="smithlayer"/><g class="ternarylayer"/><g class="geolayer"/><g class="funnelarealayer"/><g class="pielayer"/><g class="iciclelayer"/><g class="treemaplayer"/><g class="sunburstlayer"><g class="trace sunburst" stroke-linejoin="round" style="opacity: 1;"><g class="slice"><path class="surface" d="M282.5,260A0,0 0,1,0 282.5,260A0,0 0,1,0 282.5,260ZM324.5,260A42,42 0,1,1 240.5,260A42,42 0,1,1 324.5,260Z" style="pointer-events: none; stroke-width: 1; fill: rgb(255, 255, 255); fill-opacity: 1; stroke: rgb(0, 0, 0); stroke-opacity: 1;"/><g class="slicetext"><text data-notex="1" class="slicetext" text-anchor="middle" x="0" y="0" style="font-family: 'Times New Roman'; font-size: 12px; fill: rgb(0, 0, 0); fill-opacity: 1; white-space: pre;" transform="translate(282.5,264)">100</text></g></g><g class="slice cursor-pointer"><path class="surface" d="M324.5,260L366.5,260A84,84 0,1,0 198.50663228687944,261.05554735020166L240.50331614343972,260.52777367510083A42,42 0,1,1 324.5,260Z" style="pointer-events: none; stroke-width: 1; fill: rgb(103, 0, 13); fill-opacity: 1; stroke: rgb(0, 0, 0); stroke-opacity: 1;"/><g class="slicetext"><text data-notex="1" class="slicetext" text-anchor="middle" x="0" y="0" style="font-family: 'Times New Roman'; font-size: 12px; fill: rgb(0, 0, 0); fill-opacity: 1; white-space: pre;" transform="translate(281.9485703291775,198.6726430176208)scale(0.9663428254565426)rotate(-0.36000000000001364)"><tspan class="line" dy="0em" x="0" y="0">Medical Services</tspan><tspan class="line" dy="1.3em" x="0" y="0">50.2</tspan></text></g></g><g class="slice cursor-pointer"><path class="surface" d="M240.50331614343972,260.52777367510083L198.50663228687944,261.05554735020166A84,84 0,0,0 284.87472760870304,343.96642584262156L283.6873638043515,301.9832129213108A42,42 0,0,1 240.50331614343972,260.52777367510083Z" style="pointer-events: none; stroke-width: 1; fill: rgb(251, 123, 91); fill-opacity: 1; stroke: rgb(0, 0, 0); stroke-opacity: 1;"/><g class="slicetext"><text data-notex="1" class="slicetext" text-anchor="middle" x="0" y="0" style="font-family: 'Times New Roman'; font-size: 12px; fill: rgb(0, 0, 0); fill-opacity: 1; white-space: pre;" transform="translate(243.78292967485405,300.1436443557449)scale(0.7929295571122219)rotate(43.82999999999993)"><tspan class="line" dy="0em" x="0" y="0">Public Health Systems</tspan><tspan class="line" dy="1.3em" x="0" y="0">25.25</tspan></text></g></g><g class="slice cursor-pointer"><path class="surface" d="M283.6873638043515,301.9832129213108L284.87472760870304,343.96642584262156A84,84 0,0,0 366.5,259.99999999999994L324.5,260A42,42 0,0,1 283.6873638043515,301.9832129213108Z" style="pointer-events: none; stroke-width: 1; fill: rgb(252, 128, 96); fill-opacity: 1; stroke: rgb(0, 0, 0); stroke-opacity: 1;"/><g class="slicetext"><text data-notex="1" class="slicetext" text-anchor="middle" x="0" y="0" style="font-family: 'Times New Roman'; font-size: 12px; fill: rgb(0, 0, 0); fill-opacity: 1; white-space: pre;" transform="translate(322.6178050791405,299.1896850349664)scale(0.8323380367950286)rotate(-45.81000000000006)"><tspan class="line" dy="0em" x="0" y="0">Health Technologies</tspan><tspan class="line" dy="1.3em" x="0" y="0">24.55</tspan></text></g></g><g class="slice cursor-pointer"><path class="surface" d="M366.5,260L408.5,260A126,126 0,0,0 259.0455046621012,136.20223488105898L266.86366977473415,177.46815658737268A84,84 0,0,1 366.5,260Z" style="pointer-events: none; stroke-width: 1; fill: rgb(250, 103, 72); fill-opacity: 1; stroke: rgb(0, 0, 0); stroke-opacity: 1;"/><g class="slicetext"><text data-notex="1" class="slicetext" text-anchor="middle" x="0" y="0" style="font-family: 'Times New Roman'; font-size: 12px; fill: rgb(0, 0, 0); fill-opacity: 1; white-space: pre;" transform="translate(349.29248859760565,179.36496053764213)rotate(39.63599999999997)"><tspan class="line" dy="0em" x="0" y="0">Specialized Care</tspan><tspan class="line" dy="1.3em" x="0" y="0">27.98</tspan></text></g></g><g class="slice cursor-pointer"><path class="surface" d="M266.86366977473415,177.46815658737268L259.0455046621012,136.20223488105898A126,126 0,0,0 156.50994843031918,261.58332102530244L198.50663228687944,261.0555473502016A84,84 0,0,1 266.86366977473415,177.46815658737268Z" style="pointer-events: none; stroke-width: 1; fill: rgb(252, 144, 112); fill-opacity: 1; stroke: rgb(0, 0, 0); stroke-opacity: 1;"/><g class="slicetext"><text data-notex="1" class="slicetext" text-anchor="middle" x="0" y="0" style="font-family: 'Times New Roman'; font-size: 12px; fill: rgb(0, 0, 0); fill-opacity: 1; white-space: pre;" transform="translate(200.57767275503147,193.00463690192254)rotate(-50.724000000000046)"><tspan class="line" dy="0em" x="0" y="0">Primary Care</tspan><tspan class="line" dy="1.3em" x="0" y="0">22.22</tspan></text></g></g><g class="slice"><path class="surface" d="M198.50663228687944,261.05554735020166L156.50994843031918,261.5833210253025A126,126 0,0,0 286.06209141305453,385.94963876393234L284.87472760870304,343.96642584262156A84,84 0,0,1 198.50663228687944,261.05554735020166Z" style="pointer-events: none; stroke-width: 1; fill: rgb(251, 123, 91); fill-opacity: 1; stroke: rgb(0, 0, 0); stroke-opacity: 1; opacity: 1;"/><g class="slicetext"><text data-notex="1" class="slicetext" text-anchor="middle" x="0" y="0" style="font-family: 'Times New Roman'; font-size: 12px; fill: rgb(0, 0, 0); fill-opacity: 1; white-space: pre;" transform="translate(215.88112158026163,329.3967516230692)rotate(43.82999999999993)"><tspan class="line" dy="0em" x="0" y="0">Health Surveillance</tspan><tspan class="line" dy="1.3em" x="0" y="0">25.25</tspan></text></g></g><g class="slice"><path class="surface" d="M284.87472760870304,343.96642584262156L286.06209141305453,385.94963876393234A126,126 0,0,0 400.50528573027225,304.1673243440986L361.1701904868482,289.4448828960657A84,84 0,0,1 284.87472760870304,343.96642584262156Z" style="pointer-events: none; stroke-width: 1; fill: rgb(252, 169, 140); fill-opacity: 1; stroke: rgb(0, 0, 0); stroke-opacity: 1; opacity: 1;"/><g class="slicetext"><text data-notex="1" class="slicetext" text-anchor="middle" x="0" y="0" style="font-family: 'Times New Roman'; font-size: 12px; fill: rgb(0, 0, 0); fill-opacity: 1; white-space: pre;" transform="translate(338.4550969559653,338.5837050280503)rotate(-35.55000000000007)"><tspan class="line" dy="0em" x="0" y="0">Health Informatics</tspan><tspan class="line" dy="1.3em" x="0" y="0">18.85</tspan></text></g></g><g class="slice cursor-pointer"><path class="surface" d="M361.1701904868482,289.4448828960657L400.50528573027225,304.1673243440986A126,126 0,0,0 408.5,259.99999999999994L366.5,259.99999999999994A84,84 0,0,1 361.1701904868482,289.4448828960657Z" style="pointer-events: none; stroke-width: 1; fill: rgb(255, 243, 237); fill-opacity: 1; stroke: rgb(0, 0, 0); stroke-opacity: 1;"/><g class="slicetext"><text data-notex="1" class="slicetext" text-anchor="middle" x="0" y="0" style="font-family: 'Times New Roman'; font-size: 12px; fill: rgb(0, 0, 0); fill-opacity: 1; white-space: pre;" transform="translate(385.96072180075396,276.83537750573083)scale(0.4893340063740125)rotate(10.259999999999991)"><tspan class="line" dy="0em" x="0" y="0">Medical Devices</tspan><tspan class="line" dy="1.3em" x="0" y="0">5.7</tspan></text></g></g><g class="slice cursor-pointer"><path class="surface" d="M408.5,260L450.5,260A168,168 0,0,0 361.48511253273534,111.72541688410945L341.73883439955154,148.7940626630821A126,126 0,0,1 408.5,260Z" style="pointer-events: none; stroke-width: 1; fill: rgb(252, 181, 154); fill-opacity: 1; stroke: rgb(0, 0, 0); stroke-opacity: 1;"/><g class="slicetext"><text data-notex="1" class="slicetext" text-anchor="middle" x="0" y="0" style="font-family: 'Times New Roman'; font-size: 12px; fill: rgb(0, 0, 0); fill-opacity: 1; white-space: pre;" transform="translate(410.2449571733259,183.30982999017115)rotate(59.021999999999935)"><tspan class="line" dy="0em" x="0" y="0">Cardiology</tspan><tspan class="line" dy="1.3em" x="0" y="0">17.21</tspan></text></g></g><g class="slice cursor-pointer"><path class="surface" d="M341.73883439955154,148.7940626630821L361.48511253273534,111.72541688410945A168,168 0,0,0 251.22733954946827,94.93631317474532L259.0455046621012,136.20223488105898A126,126 0,0,1 341.73883439955154,148.7940626630821Z" style="pointer-events: none; stroke-width: 1; fill: rgb(254, 224, 209); fill-opacity: 1; stroke: rgb(0, 0, 0); stroke-opacity: 1;"/><g class="slicetext"><text data-notex="1" class="slicetext" text-anchor="middle" x="0" y="0" style="font-family: 'Times New Roman'; font-size: 12px; fill: rgb(0, 0, 0); fill-opacity: 1; white-space: pre;" transform="translate(304.9840082964986,112.34252373302363)rotate(8.658000000000015)"><tspan class="line" dy="0em" x="0" y="0">Oncology</tspan><tspan class="line" dy="1.3em" x="0" y="0">10.77</tspan></text></g></g><g class="slice"><path class="surface" d="M259.0455046621012,136.20223488105898L251.22733954946827,94.93631317474532A168,168 0,0,0 138.11072852164875,174.11788147727734L174.20804639123656,195.588411107958A126,126 0,0,1 259.0455046621012,136.20223488105898Z" style="pointer-events: none; stroke-width: 1; fill: rgb(253, 206, 186); fill-opacity: 1; stroke: rgb(0, 0, 0); stroke-opacity: 1; opacity: 1;"/><g class="slicetext"><text data-notex="1" class="slicetext" text-anchor="middle" x="0" y="0" style="font-family: 'Times New Roman'; font-size: 12px; fill: rgb(0, 0, 0); fill-opacity: 1; white-space: pre;" transform="translate(198.08775629552258,139.69708122495547)rotate(-34.99199999999996)"><tspan class="line" dy="0em" x="0" y="0">Family Physicians</tspan><tspan class="line" dy="1.3em" x="0" y="0">13.48</tspan></text></g></g><g class="slice"><path class="surface" d="M174.20804639123656,195.588411107958L138.11072852164875,174.11788147727734A168,168 0,0,0 114.5132645737589,262.1110947004032L156.50994843031918,261.58332102530244A126,126 0,0,1 174.20804639123656,195.588411107958Z" style="pointer-events: none; stroke-width: 1; fill: rgb(254, 231, 220); fill-opacity: 1; stroke: rgb(0, 0, 0); stroke-opacity: 1; opacity: 1;"/><g class="slicetext"><text data-notex="1" class="slicetext" text-anchor="middle" x="0" y="0" style="font-family: 'Times New Roman'; font-size: 12px; fill: rgb(0, 0, 0); fill-opacity: 1; white-space: pre;" transform="translate(135.0226323136185,220.614010351597)scale(0.9629073850166588)rotate(-74.98799999999994)"><tspan class="line" dy="0em" x="0" y="0">Walk-in Clinics</tspan><tspan class="line" dy="1.3em" x="0" y="0">8.74</tspan></text></g></g><g class="slice"><path class="surface" d="M400.50528573027225,304.1673243440986L439.84038097369637,318.8897657921314A168,168 0,0,0 450.5,259.9999999999999L408.5,259.99999999999994A126,126 0,0,1 400.50528573027225,304.1673243440986Z" style="pointer-events: none; stroke-width: 1; fill: rgb(255, 243, 237); fill-opacity: 1; stroke: rgb(0, 0, 0); stroke-opacity: 1; opacity: 1;"/><g class="slicetext"><text data-notex="1" class="slicetext" text-anchor="middle" x="0" y="0" style="font-family: 'Times New Roman'; font-size: 12px; fill: rgb(0, 0, 0); fill-opacity: 1; white-space: pre;" transform="translate(436.4415032752145,288.0308689733751)scale(0.4861301450220473)rotate(-79.74000000000001)"><tspan class="line" dy="0em" x="0" y="0">Diagnostic Equipment</tspan><tspan class="line" dy="1.3em" x="0" y="0">5.7</tspan></text></g></g><g class="slice"><path class="surface" d="M450.5,260L492.5,260A210,210 0,0,0 476.00593657251466,178.41904320741313L437.3047492580117,194.7352345659305A168,168 0,0,1 450.5,260Z" style="pointer-events: none; stroke-width: 1; fill: rgb(255, 240, 233); fill-opacity: 1; stroke: rgb(0, 0, 0); stroke-opacity: 1; opacity: 1;"/><g class="slicetext"><text data-notex="1" class="slicetext" text-anchor="middle" x="0" y="0" style="font-family: 'Times New Roman'; font-size: 12px; fill: rgb(0, 0, 0); fill-opacity: 1; white-space: pre;" transform="translate(476.4718918215067,220.65362023206063)scale(0.7711807490361149)rotate(78.56999999999994)"><tspan class="line" dy="0em" x="0" y="0">Arrhythmia Clinics</tspan><tspan class="line" dy="1.3em" x="0" y="0">6.35</tspan></text></g></g><g class="slice"><path class="surface" d="M437.3047492580117,194.7352345659305L476.00593657251466,178.41904320741313A210,210 0,0,0 435.9442233498414,116.63030194436493L405.25537867987316,145.30424155549196A168,168 0,0,1 437.3047492580117,194.7352345659305Z" style="pointer-events: none; stroke-width: 1; fill: rgb(255, 243, 237); fill-opacity: 1; stroke: rgb(0, 0, 0); stroke-opacity: 1; opacity: 1;"/><g class="slicetext"><text data-notex="1" class="slicetext" text-anchor="middle" x="0" y="0" style="font-family: 'Times New Roman'; font-size: 12px; fill: rgb(0, 0, 0); fill-opacity: 1; white-space: pre;" transform="translate(448.3791814373386,152.4495942057874)scale(0.8594288243638221)rotate(57.041999999999916)"><tspan class="line" dy="0em" x="0" y="0">Blood Pressure</tspan><tspan class="line" dy="1.3em" x="0" y="0">5.61</tspan></text></g></g><g class="slice"><path class="surface" d="M405.25537867987316,145.30424155549196L435.9442233498414,116.63030194436493A210,210 0,0,0 381.2313906659192,74.65677110513684L361.4851125327354,111.72541688410948A168,168 0,0,1 405.25537867987316,145.30424155549196Z" style="pointer-events: none; stroke-width: 1; fill: rgb(255, 244, 239); fill-opacity: 1; stroke: rgb(0, 0, 0); stroke-opacity: 1; opacity: 1;"/><g class="slicetext"><text data-notex="1" class="slicetext" text-anchor="middle" x="0" y="0" style="font-family: 'Times New Roman'; font-size: 12px; fill: rgb(0, 0, 0); fill-opacity: 1; white-space: pre;" transform="translate(402.9176023869249,103.0346935350636)scale(0.8748362096653189)rotate(37.49400000000003)"><tspan class="line" dy="0em" x="0" y="0">Heart Disease</tspan><tspan class="line" dy="1.3em" x="0" y="0">5.25</tspan></text></g></g><g class="slice"><path class="surface" d="M361.48511253273534,111.72541688410945L381.2313906659192,74.65677110513681A210,210 0,0,0 309.866893742849,51.79084283618164L304.3935149942792,93.43267426894533A168,168 0,0,1 361.48511253273534,111.72541688410945Z" style="pointer-events: none; stroke-width: 1; fill: rgb(255, 243, 237); fill-opacity: 1; stroke: rgb(0, 0, 0); stroke-opacity: 1; opacity: 1;"/><g class="slicetext"><text data-notex="1" class="slicetext" text-anchor="middle" x="0" y="0" style="font-family: 'Times New Roman'; font-size: 12px; fill: rgb(0, 0, 0); fill-opacity: 1; white-space: pre;" transform="translate(343.2677294453487,70.34408968594613)scale(0.713265680785372)rotate(17.765999999999963)"><tspan class="line" dy="0em" x="0" y="0">Cancer Counseling</tspan><tspan class="line" dy="1.3em" x="0" y="0">5.71</tspan></text></g></g><g class="slice"><path class="surface" d="M304.3935149942792,93.43267426894533L309.866893742849,51.79084283618164A210,210 0,0,0 243.40917443683534,53.67039146843166L251.22733954946827,94.93631317474532A168,168 0,0,1 304.3935149942792,93.43267426894533Z" style="pointer-events: none; stroke-width: 1; fill: rgb(255, 245, 240); fill-opacity: 1; stroke: rgb(0, 0, 0); stroke-opacity: 1; opacity: 1;"/><g class="slicetext"><text data-notex="1" class="slicetext" text-anchor="middle" x="0" y="0" style="font-family: 'Times New Roman'; font-size: 12px; fill: rgb(0, 0, 0); fill-opacity: 1; white-space: pre;" transform="translate(276.71954910338934,59.043734986467655)scale(0.5911953471352651)rotate(-1.6200000000000045)"><tspan class="line" dy="0em" x="0" y="0">Chemotherapy Units</tspan><tspan class="line" dy="1.3em" x="0" y="0">5.06</tspan></text></g></g></g></g><g class="glimages"/><defs id="topdefs-976f8e"><g class="clips"/></defs><g class="layer-above"><g class="imagelayer"/><g class="shapelayer"/></g><g class="infolayer"><g class="cbf0bf75 colorbar" transform="translate(10,50)"><rect class="cbbg" x="571.5" y="63" width="48.015625" height="295" style="fill: rgb(0, 0, 0); fill-opacity: 0; stroke: rgb(68, 68, 68); stroke-opacity: 1; stroke-width: 0;"/><g class="cbfills" transform="translate(0,93)"><rect class="cbfill gradient_filled" style="fill: url('#g976f8e-cbf0bf75');" x="582" y="0" width="15" height="254"/></g><g class="cblines" transform="translate(0,93)"/><g class="cbaxis crisp" transform="translate(0,-50)"><g class="ycbf0bf75tick"><text text-anchor="start" x="600.4" y="4.199999999999999" transform="translate(0,369.20000000000005)" style="font-family: 'Times New Roman'; font-size: 12px; fill: rgb(42, 63, 95); fill-opacity: 1; white-space: pre; opacity: 1;">10</text></g><g class="ycbf0bf75tick"><text text-anchor="start" x="600.4" y="4.199999999999999" style="font-family: 'Times New Roman'; font-size: 12px; fill: rgb(42, 63, 95); fill-opacity: 1; white-space: pre; opacity: 1;" transform="translate(0,312.93000000000006)">20</text></g><g class="ycbf0bf75tick"><text text-anchor="start" x="600.4" y="4.199999999999999" style="font-family: 'Times New Roman'; font-size: 12px; fill: rgb(42, 63, 95); fill-opacity: 1; white-space: pre; opacity: 1;" transform="translate(0,256.6600000000001)">30</text></g><g class="ycbf0bf75tick"><text text-anchor="start" x="600.4" y="4.199999999999999" style="font-family: 'Times New Roman'; font-size: 12px; fill: rgb(42, 63, 95); fill-opacity: 1; white-space: pre; opacity: 1;" transform="translate(0,200.39000000000004)">40</text></g><g class="ycbf0bf75tick"><text text-anchor="start" x="600.4" y="4.199999999999999" style="font-family: 'Times New Roman'; font-size: 12px; fill: rgb(42, 63, 95); fill-opacity: 1; white-space: pre; opacity: 1;" transform="translate(0,144.13000000000005)">50</text></g></g><g class="cbtitleunshift" transform="translate(-10,-50)"><g class="cbtitle" transform="translate(-0.5,-0.5)"><text class="ycbf0bf75title" x="592.25" y="135.75" text-anchor="start" style="opacity: 1; font-family: 'Times New Roman'; font-size: 13px; fill: rgb(42, 63, 95); fill-opacity: 1; white-space: pre;">%</text></g></g><rect class="cboutline" x="582" y="93" width="15" height="254" style="stroke: rgb(68, 68, 68); stroke-opacity: 1; fill: none; stroke-width: 1;"/></g><g class="g-gtitle"><text class="gtitle" x="320" y="25" text-anchor="middle" dy="0em" style="opacity: 1; font-family: 'Times New Roman'; font-size: 16px; fill: rgb(42, 63, 95); fill-opacity: 1; white-space: pre;">Healthcare Distribution by Category (2022) (%)</text></g></g></svg>