<svg class="main-svg" xmlns="http://www.w3.org/2000/svg" xmlns:xlink="http://www.w3.org/1999/xlink" width="1920" height="1440" style="" viewBox="0 0 640 480"><rect x="0" y="0" width="640" height="480" style="fill: rgb(255, 255, 255); fill-opacity: 1;"/><defs id="defs-1f4b09"><g class="clips"/><g class="gradients"><linearGradient x1="0" y1="1" x2="0" y2="0" gradientUnits="objectBoundingBox" id="g1f4b09-cb79fac8"><stop offset="0%" stop-color="rgb(247, 251, 255)" stop-opacity="1"/><stop offset="12.5%" stop-color="rgb(222, 235, 247)" stop-opacity="1"/><stop offset="25%" stop-color="rgb(198, 219, 239)" stop-opacity="1"/><stop offset="37.5%" stop-color="rgb(158, 202, 225)" stop-opacity="1"/><stop offset="50%" stop-color="rgb(107, 174, 214)" stop-opacity="1"/><stop offset="62.5%" stop-color="rgb(66, 146, 198)" stop-opacity="1"/><stop offset="75%" stop-color="rgb(33, 113, 181)" stop-opacity="1"/><stop offset="87.5%" stop-color="rgb(8, 81, 156)" stop-opacity="1"/><stop offset="100%" stop-color="rgb(8, 48, 107)" stop-opacity="1"/></linearGradient></g><g class="patterns"/></defs><g class="bglayer"/><g class="layer-below"><g class="imagelayer"/><g class="shapelayer"/></g><g class="cartesianlayer"/><g class="polarlayer"/><g class="smithlayer"/><g class="ternarylayer"/><g class="geolayer"/><g class="funnelarealayer"/><g class="pielayer"/><g class="iciclelayer"/><g class="treemaplayer"/><g class="sunburstlayer"><g class="trace sunburst" stroke-linejoin="round" style="opacity: 1;"><g class="slice"><path class="surface" d="M282.5,260A0,0 0,1,0 282.5,260A0,0 0,1,0 282.5,260ZM324.5,260A42,42 0,1,1 240.5,260A42,42 0,1,1 324.5,260Z" style="pointer-events: none; stroke-width: 1; fill: rgb(255, 255, 255); fill-opacity: 1; stroke: rgb(0, 0, 0); stroke-opacity: 1;"/><g class="slicetext"><text data-notex="1" class="slicetext" text-anchor="middle" x="0" y="0" style="font-family: 'Times New Roman'; font-size: 12px; fill: rgb(0, 0, 0); fill-opacity: 1; white-space: pre;" transform="translate(282.5,264)">100</text></g></g><g class="slice cursor-pointer"><path class="surface" d="M324.5,260L366.5,260A84,84 0,0,0 203.39475242898249,231.74473842400278L242.94737621449124,245.8723692120014A42,42 0,0,1 324.5,260Z" style="pointer-events: none; stroke-width: 1; fill: rgb(8, 48, 107); fill-opacity: 1; stroke: rgb(0, 0, 0); stroke-opacity: 1;"/><g class="slicetext"><text data-notex="1" class="slicetext" text-anchor="middle" x="0" y="0" style="font-family: 'Times New Roman'; font-size: 12px; fill: rgb(0, 0, 0); fill-opacity: 1; white-space: pre;" transform="translate(292.47444016736847,201.6038243753624)scale(0.8511553320567609)rotate(9.827999999999975)"><tspan class="line" dy="0em" x="0" y="0">Public Health Systems</tspan><tspan class="line" dy="1.3em" x="0" y="0">44.54</tspan></text></g></g><g class="slice cursor-pointer"><path class="surface" d="M242.94737621449124,245.8723692120014L203.39475242898249,231.74473842400278A84,84 0,0,0 275.3308213479257,343.6935055870803L278.91541067396287,301.84675279354013A42,42 0,0,1 242.94737621449124,245.8723692120014Z" style="pointer-events: none; stroke-width: 1; fill: rgb(71, 150, 200); fill-opacity: 1; stroke: rgb(0, 0, 0); stroke-opacity: 1;"/><g class="slicetext"><text data-notex="1" class="slicetext" text-anchor="middle" x="0" y="0" style="font-family: 'Times New Roman'; font-size: 12px; fill: rgb(0, 0, 0); fill-opacity: 1; white-space: pre;" transform="translate(237.00075413053744,289.0394931284568)scale(0.9663428254565426)rotate(57.275999999999954)"><tspan class="line" dy="0em" x="0" y="0">Medical Services</tspan><tspan class="line" dy="1.3em" x="0" y="0">29.1</tspan></text></g></g><g class="slice cursor-pointer"><path class="surface" d="M278.91541067396287,301.84675279354013L275.3308213479257,343.6935055870803A84,84 0,0,0 366.5,259.99999999999994L324.5,260A42,42 0,0,1 278.91541067396287,301.84675279354013Z" style="pointer-events: none; stroke-width: 1; fill: rgb(94, 165, 209); fill-opacity: 1; stroke: rgb(0, 0, 0); stroke-opacity: 1;"/><g class="slicetext"><text data-notex="1" class="slicetext" text-anchor="middle" x="0" y="0" style="font-family: 'Times New Roman'; font-size: 12px; fill: rgb(0, 0, 0); fill-opacity: 1; white-space: pre;" transform="translate(318.8876393663195,299.85064160927357)scale(0.8770902456452595)rotate(-42.55200000000002)"><tspan class="line" dy="0em" x="0" y="0">Health Technologies</tspan><tspan class="line" dy="1.3em" x="0" y="0">26.36</tspan></text></g></g><g class="slice cursor-pointer"><path class="surface" d="M366.5,260L408.5,260A126,126 0,0,0 249.17564006048542,138.48667960004684L260.2837600403236,178.99111973336454A84,84 0,0,1 366.5,260Z" style="pointer-events: none; stroke-width: 1; fill: rgb(70, 149, 200); fill-opacity: 1; stroke: rgb(0, 0, 0); stroke-opacity: 1;"/><g class="slicetext"><text data-notex="1" class="slicetext" text-anchor="middle" x="0" y="0" style="font-family: 'Times New Roman'; font-size: 12px; fill: rgb(0, 0, 0); fill-opacity: 1; white-space: pre;" transform="translate(344.71834900370663,178.16107738081902)scale(0.9618765476584364)rotate(37.331999999999994)"><tspan class="line" dy="0em" x="0" y="0">Government Programs</tspan><tspan class="line" dy="1.3em" x="0" y="0">29.26</tspan></text></g></g><g class="slice cursor-pointer"><path class="surface" d="M260.2837600403236,178.99111973336454L249.17564006048542,138.48667960004684A126,126 0,0,0 163.8421286434737,217.61710763600416L203.39475242898249,231.74473842400278A84,84 0,0,1 260.2837600403236,178.99111973336454Z" style="pointer-events: none; stroke-width: 1; fill: rgb(195, 218, 238); fill-opacity: 1; stroke: rgb(0, 0, 0); stroke-opacity: 1;"/><g class="slicetext"><text data-notex="1" class="slicetext" text-anchor="middle" x="0" y="0" style="font-family: 'Times New Roman'; font-size: 12px; fill: rgb(0, 0, 0); fill-opacity: 1; white-space: pre;" transform="translate(209.91611413035034,181.72621825406648)scale(0.9265328275426319)rotate(-42.84000000000003)"><tspan class="line" dy="0em" x="0" y="0">Health Surveillance</tspan><tspan class="line" dy="1.3em" x="0" y="0">15.28</tspan></text></g></g><g class="slice"><path class="surface" d="M203.39475242898249,231.74473842400278L163.8421286434737,217.61710763600416A126,126 0,0,0 271.74623202188855,385.54025838062046L275.3308213479257,343.6935055870803A84,84 0,0,1 203.39475242898249,231.74473842400278Z" style="pointer-events: none; stroke-width: 1; fill: rgb(71, 150, 200); fill-opacity: 1; stroke: rgb(0, 0, 0); stroke-opacity: 1; opacity: 1;"/><g class="slicetext"><text data-notex="1" class="slicetext" text-anchor="middle" x="0" y="0" style="font-family: 'Times New Roman'; font-size: 12px; fill: rgb(0, 0, 0); fill-opacity: 1; white-space: pre;" transform="translate(199.86988060514702,313.0964843490399)rotate(57.275999999999954)"><tspan class="line" dy="0em" x="0" y="0">Primary Care</tspan><tspan class="line" dy="1.3em" x="0" y="0">29.1</tspan></text></g></g><g class="slice"><path class="surface" d="M275.3308213479257,343.6935055870803L271.74623202188855,385.54025838062046A126,126 0,0,0 399.7100321756803,306.2364397134553L360.64002145045356,290.82429314230353A84,84 0,0,1 275.3308213479257,343.6935055870803Z" style="pointer-events: none; stroke-width: 1; fill: rgb(153, 199, 224); fill-opacity: 1; stroke: rgb(0, 0, 0); stroke-opacity: 1; opacity: 1;"/><g class="slicetext"><text data-notex="1" class="slicetext" text-anchor="middle" x="0" y="0" style="font-family: 'Times New Roman'; font-size: 12px; fill: rgb(0, 0, 0); fill-opacity: 1; white-space: pre;" transform="translate(333.4972306591664,342.6000355277053)rotate(-31.78800000000001)"><tspan class="line" dy="0em" x="0" y="0">Medical Devices</tspan><tspan class="line" dy="1.3em" x="0" y="0">20.38</tspan></text></g></g><g class="slice cursor-pointer"><path class="surface" d="M360.64002145045356,290.82429314230353L399.7100321756803,306.2364397134553A126,126 0,0,0 408.5,259.99999999999994L366.5,259.99999999999994A84,84 0,0,1 360.64002145045356,290.82429314230353Z" style="pointer-events: none; stroke-width: 1; fill: rgb(242, 248, 253); fill-opacity: 1; stroke: rgb(0, 0, 0); stroke-opacity: 1;"/><g class="slicetext"><text data-notex="1" class="slicetext" text-anchor="middle" x="0" y="0" style="font-family: 'Times New Roman'; font-size: 12px; fill: rgb(0, 0, 0); fill-opacity: 1; white-space: pre;" transform="translate(396.1592394530028,281.68139218290287)scale(0.44153500939832624)rotate(-79.23599999999999)"><tspan class="line" dy="0em" x="0" y="0">Health Informatics</tspan><tspan class="line" dy="1.3em" x="0" y="0">5.98</tspan></text></g></g><g class="slice cursor-pointer"><path class="surface" d="M408.5,260L450.5,260A168,168 0,0,0 295.2601584375268,92.48528913361307L292.0701188281451,134.3639668502098A126,126 0,0,1 408.5,260Z" style="pointer-events: none; stroke-width: 1; fill: rgb(117, 180, 216); fill-opacity: 1; stroke: rgb(0, 0, 0); stroke-opacity: 1;"/><g class="slicetext"><text data-notex="1" class="slicetext" text-anchor="middle" x="0" y="0" style="font-family: 'Times New Roman'; font-size: 12px; fill: rgb(0, 0, 0); fill-opacity: 1; white-space: pre;" transform="translate(389.375342093853,160.73241438202285)rotate(47.178)"><tspan class="line" dy="0em" x="0" y="0">Vaccination Initiatives</tspan><tspan class="line" dy="1.3em" x="0" y="0">23.79</tspan></text></g></g><g class="slice"><path class="surface" d="M292.0701188281451,134.3639668502098L295.2601584375268,92.48528913361307A168,168 0,0,0 238.06752008064723,97.98223946672911L249.17564006048542,138.48667960004684A126,126 0,0,1 292.0701188281451,134.3639668502098Z" style="pointer-events: none; stroke-width: 1; fill: rgb(245, 250, 254); fill-opacity: 1; stroke: rgb(0, 0, 0); stroke-opacity: 1; opacity: 1;"/><g class="slicetext"><text data-notex="1" class="slicetext" text-anchor="middle" x="0" y="0" style="font-family: 'Times New Roman'; font-size: 12px; fill: rgb(0, 0, 0); fill-opacity: 1; white-space: pre;" transform="translate(267.30482033953274,101.902807479747)scale(0.6274474009384557)rotate(-5.490000000000009)"><tspan class="line" dy="0em" x="0" y="0">Maternal Health</tspan><tspan class="line" dy="1.3em" x="0" y="0">5.47</tspan></text></g></g><g class="slice"><path class="surface" d="M249.17564006048542,138.48667960004684L238.06752008064723,97.98223946672911A168,168 0,0,0 149.753957920884,157.03161498629999L182.940468440663,182.77371123972497A126,126 0,0,1 249.17564006048542,138.48667960004684Z" style="pointer-events: none; stroke-width: 1; fill: rgb(221, 234, 247); fill-opacity: 1; stroke: rgb(0, 0, 0); stroke-opacity: 1; opacity: 1;"/><g class="slicetext"><text data-notex="1" class="slicetext" text-anchor="middle" x="0" y="0" style="font-family: 'Times New Roman'; font-size: 12px; fill: rgb(0, 0, 0); fill-opacity: 1; white-space: pre;" transform="translate(197.9569697893909,133.55842313345386)scale(0.8524484811596704)rotate(-33.76800000000003)"><tspan class="line" dy="0em" x="0" y="0">Outbreak Monitoring</tspan><tspan class="line" dy="1.3em" x="0" y="0">10.24</tspan></text></g></g><g class="slice"><path class="surface" d="M182.940468440663,182.77371123972497L149.753957920884,157.03161498629999A168,168 0,0,0 124.28950485796494,203.48947684800558L163.8421286434737,217.61710763600416A126,126 0,0,1 182.940468440663,182.77371123972497Z" style="pointer-events: none; stroke-width: 1; fill: rgb(247, 251, 255); fill-opacity: 1; stroke: rgb(0, 0, 0); stroke-opacity: 1; opacity: 1;"/><g class="slicetext"><text data-notex="1" class="slicetext" text-anchor="middle" x="0" y="0" style="font-family: 'Times New Roman'; font-size: 12px; fill: rgb(0, 0, 0); fill-opacity: 1; white-space: pre;" transform="translate(141.92096092883975,183.04820473877933)scale(0.5219188213183804)rotate(-61.27200000000005)"><tspan class="line" dy="0em" x="0" y="0">Disease Registries</tspan><tspan class="line" dy="1.3em" x="0" y="0">5.04</tspan></text></g></g><g class="slice"><path class="surface" d="M399.7100321756803,306.2364397134553L438.78004290090706,321.64858628460706A168,168 0,0,0 450.5,259.9999999999999L408.5,259.99999999999994A126,126 0,0,1 399.7100321756803,306.2364397134553Z" style="pointer-events: none; stroke-width: 1; fill: rgb(242, 248, 253); fill-opacity: 1; stroke: rgb(0, 0, 0); stroke-opacity: 1; opacity: 1;"/><g class="slicetext"><text data-notex="1" class="slicetext" text-anchor="middle" x="0" y="0" style="font-family: 'Times New Roman'; font-size: 12px; fill: rgb(0, 0, 0); fill-opacity: 1; white-space: pre;" transform="translate(433.2918740028121,288.87915688342)scale(0.6354749891625558)rotate(-79.23599999999999)"><tspan class="line" dy="0em" x="0" y="0">Decision Support</tspan><tspan class="line" dy="1.3em" x="0" y="0">5.98</tspan></text></g></g><g class="slice"><path class="surface" d="M450.5,260L492.5,260A210,210 0,0,0 443.12405045579567,124.72282374630228L410.99924036463653,151.7782589970418A168,168 0,0,1 450.5,260Z" style="pointer-events: none; stroke-width: 1; fill: rgb(216, 231, 245); fill-opacity: 1; stroke: rgb(0, 0, 0); stroke-opacity: 1; opacity: 1;"/><g class="slicetext"><text data-notex="1" class="slicetext" text-anchor="middle" x="0" y="0" style="font-family: 'Times New Roman'; font-size: 12px; fill: rgb(0, 0, 0); fill-opacity: 1; white-space: pre;" transform="translate(460.0103404831128,195.02604806042402)rotate(69.94799999999998)"><tspan class="line" dy="0em" x="0" y="0">Adult Booster Shots</tspan><tspan class="line" dy="1.3em" x="0" y="0">11.14</tspan></text></g></g><g class="slice"><path class="surface" d="M410.99924036463653,151.7782589970418L443.12405045579567,124.72282374630228A210,210 0,0,0 366.38517260006205,67.48174679304353L349.6081380800496,105.98539743443484A168,168 0,0,1 410.99924036463653,151.7782589970418Z" style="pointer-events: none; stroke-width: 1; fill: rgb(235, 244, 251); fill-opacity: 1; stroke: rgb(0, 0, 0); stroke-opacity: 1; opacity: 1;"/><g class="slicetext"><text data-notex="1" class="slicetext" text-anchor="middle" x="0" y="0" style="font-family: 'Times New Roman'; font-size: 12px; fill: rgb(0, 0, 0); fill-opacity: 1; white-space: pre;" transform="translate(399.7674944386633,102.7881442635192)scale(0.8442045672523382)rotate(36.72000000000003)"><tspan class="line" dy="0em" x="0" y="0">Child Immunization</tspan><tspan class="line" dy="1.3em" x="0" y="0">7.32</tspan></text></g></g><g class="slice"><path class="surface" d="M349.6081380800496,105.98539743443484L366.38517260006205,67.48174679304353A210,210 0,0,0 298.4501980469085,50.60661141701635L295.2601584375268,92.48528913361307A168,168 0,0,1 349.6081380800496,105.98539743443484Z" style="pointer-events: none; stroke-width: 1; fill: rgb(246, 250, 255); fill-opacity: 1; stroke: rgb(0, 0, 0); stroke-opacity: 1; opacity: 1;"/><g class="slicetext"><text data-notex="1" class="slicetext" text-anchor="middle" x="0" y="0" style="font-family: 'Times New Roman'; font-size: 12px; fill: rgb(0, 0, 0); fill-opacity: 1; white-space: pre;" transform="translate(330.8051817294843,65.13121569025978)scale(0.5943616694373665)rotate(13.950000000000045)"><tspan class="line" dy="0em" x="0" y="0">Pandemic Campaigns</tspan><tspan class="line" dy="1.3em" x="0" y="0">5.33</tspan></text></g></g></g></g><g class="glimages"/><defs id="topdefs-1f4b09"><g class="clips"/></defs><g class="layer-above"><g class="imagelayer"/><g class="shapelayer"/></g><g class="infolayer"><g class="cb79fac8 colorbar" transform="translate(10,50)"><rect class="cbbg" x="571.5" y="63" width="48.015625" height="295" style="fill: rgb(0, 0, 0); fill-opacity: 0; stroke: rgb(68, 68, 68); stroke-opacity: 1; stroke-width: 0;"/><g class="cbfills" transform="translate(0,93)"><rect class="cbfill gradient_filled" style="fill: url('#g1f4b09-cb79fac8');" x="582" y="0" width="15" height="254"/></g><g class="cblines" transform="translate(0,93)"/><g class="cbaxis crisp" transform="translate(0,-50)"><g class="ycb79fac8tick"><text text-anchor="start" x="600.4" y="4.199999999999999" transform="translate(0,365.11000000000007)" style="font-family: 'Times New Roman'; font-size: 12px; fill: rgb(42, 63, 95); fill-opacity: 1; white-space: pre; opacity: 1;">10</text></g><g class="ycb79fac8tick"><text text-anchor="start" x="600.4" y="4.199999999999999" style="font-family: 'Times New Roman'; font-size: 12px; fill: rgb(42, 63, 95); fill-opacity: 1; white-space: pre; opacity: 1;" transform="translate(0,300.80000000000007)">20</text></g><g class="ycb79fac8tick"><text text-anchor="start" x="600.4" y="4.199999999999999" style="font-family: 'Times New Roman'; font-size: 12px; fill: rgb(42, 63, 95); fill-opacity: 1; white-space: pre; opacity: 1;" transform="translate(0,236.50000000000006)">30</text></g><g class="ycb79fac8tick"><text text-anchor="start" x="600.4" y="4.199999999999999" style="font-family: 'Times New Roman'; font-size: 12px; fill: rgb(42, 63, 95); fill-opacity: 1; white-space: pre; opacity: 1;" transform="translate(0,172.19000000000005)">40</text></g></g><g class="cbtitleunshift" transform="translate(-10,-50)"><g class="cbtitle" transform="translate(-0.5,-0.5)"><text class="ycb79fac8title" x="592.25" y="135.75" text-anchor="start" style="opacity: 1; font-family: 'Times New Roman'; font-size: 13px; fill: rgb(42, 63, 95); fill-opacity: 1; white-space: pre;">%</text></g></g><rect class="cboutline" x="582" y="93" width="15" height="254" style="stroke: rgb(68, 68, 68); stroke-opacity: 1; fill: none; stroke-width: 1;"/></g><g class="g-gtitle"><text class="gtitle" x="320" y="25" text-anchor="middle" dy="0em" style="opacity: 1; font-family: 'Times New Roman'; font-size: 16px; fill: rgb(42, 63, 95); fill-opacity: 1; white-space: pre;">Healthcare Distribution by Category (2022) (%)</text></g></g></svg>