<svg class="main-svg" xmlns="http://www.w3.org/2000/svg" xmlns:xlink="http://www.w3.org/1999/xlink" width="1920" height="1440" style="" viewBox="0 0 640 480"><rect x="0" y="0" width="640" height="480" style="fill: rgb(255, 255, 255); fill-opacity: 1;"/><defs id="defs-94275d"><g class="clips"/><g class="gradients"><linearGradient x1="0" y1="1" x2="0" y2="0" gradientUnits="objectBoundingBox" id="g94275d-cb497aab"><stop offset="0%" stop-color="rgb(247, 251, 255)" stop-opacity="1"/><stop offset="12.5%" stop-color="rgb(222, 235, 247)" stop-opacity="1"/><stop offset="25%" stop-color="rgb(198, 219, 239)" stop-opacity="1"/><stop offset="37.5%" stop-color="rgb(158, 202, 225)" stop-opacity="1"/><stop offset="50%" stop-color="rgb(107, 174, 214)" stop-opacity="1"/><stop offset="62.5%" stop-color="rgb(66, 146, 198)" stop-opacity="1"/><stop offset="75%" stop-color="rgb(33, 113, 181)" stop-opacity="1"/><stop offset="87.5%" stop-color="rgb(8, 81, 156)" stop-opacity="1"/><stop offset="100%" stop-color="rgb(8, 48, 107)" stop-opacity="1"/></linearGradient></g><g class="patterns"/></defs><g class="bglayer"/><g class="layer-below"><g class="imagelayer"/><g class="shapelayer"/></g><g class="cartesianlayer"/><g class="polarlayer"/><g class="smithlayer"/><g class="ternarylayer"/><g class="geolayer"/><g class="funnelarealayer"/><g class="pielayer"/><g class="iciclelayer"/><g class="treemaplayer"/><g class="sunburstlayer"><g class="trace sunburst" stroke-linejoin="round" style="opacity: 1;"><g class="slice"><path class="surface" d="M282.5,260A0,0 0,1,0 282.5,260A0,0 0,1,0 282.5,260ZM324.5,260A42,42 0,1,1 240.5,260A42,42 0,1,1 324.5,260Z" style="pointer-events: none; stroke-width: 1; fill: rgb(255, 255, 255); fill-opacity: 1; stroke: rgb(0, 0, 0); stroke-opacity: 1;"/><g class="slicetext"><text data-notex="1" class="slicetext" text-anchor="middle" x="0" y="0" style="font-family: 'Times New Roman'; font-size: 12px; fill: rgb(0, 0, 0); fill-opacity: 1; white-space: pre;" transform="translate(282.5,264)">100</text></g></g><g class="slice cursor-pointer"><path class="surface" d="M324.5,260L366.5,260A84,84 0,0,0 228.34877095528233,195.7843913604603L255.42438547764118,227.89219568023015A42,42 0,0,1 324.5,260Z" style="pointer-events: none; stroke-width: 1; fill: rgb(8, 48, 107); fill-opacity: 1; stroke: rgb(0, 0, 0); stroke-opacity: 1;"/><g class="slicetext"><text data-notex="1" class="slicetext" text-anchor="middle" x="0" y="0" style="font-family: 'Times New Roman'; font-size: 12px; fill: rgb(0, 0, 0); fill-opacity: 1; white-space: pre;" transform="translate(308.2004718059698,204.31486250284922)scale(0.9663428254565426)rotate(24.930000000000064)"><tspan class="line" dy="0em" x="0" y="0">Medical Services</tspan><tspan class="line" dy="1.3em" x="0" y="0">36.15</tspan></text></g></g><g class="slice cursor-pointer"><path class="surface" d="M255.42438547764118,227.89219568023015L228.34877095528233,195.7843913604603A84,84 0,0,0 255.19109196333602,339.43691548546576L268.845545981668,299.7184577427329A42,42 0,0,1 255.42438547764118,227.89219568023015Z" style="pointer-events: none; stroke-width: 1; fill: rgb(8, 71, 141); fill-opacity: 1; stroke: rgb(0, 0, 0); stroke-opacity: 1;"/><g class="slicetext"><text data-notex="1" class="slicetext" text-anchor="middle" x="0" y="0" style="font-family: 'Times New Roman'; font-size: 12px; fill: rgb(0, 0, 0); fill-opacity: 1; white-space: pre;" transform="translate(230.60708241295984,269.5544379989198)scale(0.8511553320567609)rotate(79.41600000000005)"><tspan class="line" dy="0em" x="0" y="0">Public Health Systems</tspan><tspan class="line" dy="1.3em" x="0" y="0">33.58</tspan></text></g></g><g class="slice cursor-pointer"><path class="surface" d="M268.845545981668,299.7184577427329L255.19109196333602,339.43691548546576A84,84 0,0,0 366.5,260L324.5,260A42,42 0,0,1 268.845545981668,299.7184577427329Z" style="pointer-events: none; stroke-width: 1; fill: rgb(23, 100, 171); fill-opacity: 1; stroke: rgb(0, 0, 0); stroke-opacity: 1;"/><g class="slicetext"><text data-notex="1" class="slicetext" text-anchor="middle" x="0" y="0" style="font-family: 'Times New Roman'; font-size: 12px; fill: rgb(0, 0, 0); fill-opacity: 1; white-space: pre;" transform="translate(313.28395026167436,303.3874054573119)scale(0.8929636794164958)rotate(-35.51400000000001)"><tspan class="line" dy="0em" x="0" y="0">Health Technologies</tspan><tspan class="line" dy="1.3em" x="0" y="0">30.27</tspan></text></g></g><g class="slice cursor-pointer"><path class="surface" d="M366.5,260L408.5,260A126,126 0,0,0 282.8958400232208,134.00062178456585L282.7638933488139,176.0004145230439A84,84 0,0,1 366.5,260Z" style="pointer-events: none; stroke-width: 1; fill: rgb(68, 147, 199); fill-opacity: 1; stroke: rgb(0, 0, 0); stroke-opacity: 1;"/><g class="slicetext"><text data-notex="1" class="slicetext" text-anchor="middle" x="0" y="0" style="font-family: 'Times New Roman'; font-size: 12px; fill: rgb(0, 0, 0); fill-opacity: 1; white-space: pre;" transform="translate(356.6541911120986,186.0784059785799)rotate(45.09000000000003)"><tspan class="line" dy="0em" x="0" y="0">Specialized Care</tspan><tspan class="line" dy="1.3em" x="0" y="0">24.95</tspan></text></g></g><g class="slice"><path class="surface" d="M282.7638933488139,176.0004145230439L282.8958400232208,134.00062178456585A126,126 0,0,0 201.2731564329235,163.67658704069044L228.34877095528233,195.7843913604603A84,84 0,0,1 282.7638933488139,176.0004145230439Z" style="pointer-events: none; stroke-width: 1; fill: rgb(217, 231, 245); fill-opacity: 1; stroke: rgb(0, 0, 0); stroke-opacity: 1; opacity: 1;"/><g class="slicetext"><text data-notex="1" class="slicetext" text-anchor="middle" x="0" y="0" style="font-family: 'Times New Roman'; font-size: 12px; fill: rgb(0, 0, 0); fill-opacity: 1; white-space: pre;" transform="translate(244.91055328004705,156.6115679986569)scale(0.9880362361048233)rotate(-19.980000000000018)"><tspan class="line" dy="0em" x="0" y="0">Primary Care</tspan><tspan class="line" dy="1.3em" x="0" y="0">11.2</tspan></text></g></g><g class="slice"><path class="surface" d="M228.34877095528233,195.7843913604603L201.2731564329235,163.67658704069044A126,126 0,0,0 241.53663794500403,379.15537322819864L255.19109196333602,339.43691548546576A84,84 0,0,1 228.34877095528233,195.7843913604603Z" style="pointer-events: none; stroke-width: 1; fill: rgb(8, 71, 141); fill-opacity: 1; stroke: rgb(0, 0, 0); stroke-opacity: 1; opacity: 1;"/><g class="slicetext"><text data-notex="1" class="slicetext" text-anchor="middle" x="0" y="0" style="font-family: 'Times New Roman'; font-size: 12px; fill: rgb(0, 0, 0); fill-opacity: 1; white-space: pre;" transform="translate(188.61059122627753,277.38325036046587)scale(0.9618765476584364)rotate(79.41600000000005)"><tspan class="line" dy="0em" x="0" y="0">Government Programs</tspan><tspan class="line" dy="1.3em" x="0" y="0">33.58</tspan></text></g></g><g class="slice cursor-pointer"><path class="surface" d="M255.19109196333602,339.43691548546576L241.53663794500403,379.15537322819864A126,126 0,0,0 357.1999593402934,361.46879359960144L332.29997289352895,327.64586239973426A84,84 0,0,1 255.19109196333602,339.43691548546576Z" style="pointer-events: none; stroke-width: 1; fill: rgb(184, 213, 234); fill-opacity: 1; stroke: rgb(0, 0, 0); stroke-opacity: 1;"/><g class="slicetext"><text data-notex="1" class="slicetext" text-anchor="middle" x="0" y="0" style="font-family: 'Times New Roman'; font-size: 12px; fill: rgb(0, 0, 0); fill-opacity: 1; white-space: pre;" transform="translate(297.1527781957043,356.9088211279196)rotate(-8.69399999999996)"><tspan class="line" dy="0em" x="0" y="0">Medical Devices</tspan><tspan class="line" dy="1.3em" x="0" y="0">15.37</tspan></text></g></g><g class="slice cursor-pointer"><path class="surface" d="M332.29997289352895,327.64586239973426L357.1999593402934,361.46879359960144A126,126 0,0,0 408.5,260.00000000000006L366.5,260A84,84 0,0,1 332.29997289352895,327.64586239973426Z" style="pointer-events: none; stroke-width: 1; fill: rgb(189, 215, 236); fill-opacity: 1; stroke: rgb(0, 0, 0); stroke-opacity: 1;"/><g class="slicetext"><text data-notex="1" class="slicetext" text-anchor="middle" x="0" y="0" style="font-family: 'Times New Roman'; font-size: 12px; fill: rgb(0, 0, 0); fill-opacity: 1; white-space: pre;" transform="translate(371.55128900560715,305.19533947616964)scale(0.9425307590878981)rotate(-63.17999999999995)"><tspan class="line" dy="0em" x="0" y="0">Health Informatics</tspan><tspan class="line" dy="1.3em" x="0" y="0">14.9</tspan></text></g></g><g class="slice cursor-pointer"><path class="surface" d="M408.5,260L450.5,260A168,168 0,0,0 283.02778669762773,92.00082904608783L282.8958400232208,134.00062178456585A126,126 0,0,1 408.5,260Z" style="pointer-events: none; stroke-width: 1; fill: rgb(68, 147, 199); fill-opacity: 1; stroke: rgb(0, 0, 0); stroke-opacity: 1;"/><g class="slicetext"><text data-notex="1" class="slicetext" text-anchor="middle" x="0" y="0" style="font-family: 'Times New Roman'; font-size: 12px; fill: rgb(0, 0, 0); fill-opacity: 1; white-space: pre;" transform="translate(388.02227251258444,154.80871584046906)rotate(45.09000000000003)"><tspan class="line" dy="0em" x="0" y="0">Cardiology</tspan><tspan class="line" dy="1.3em" x="0" y="0">24.95</tspan></text></g></g><g class="slice"><path class="surface" d="M241.53663794500403,379.15537322819864L227.882183926672,418.8738309709315A168,168 0,0,0 310.343668635124,425.67658288647016L303.382751476343,384.2574371648526A126,126 0,0,1 241.53663794500403,379.15537322819864Z" style="pointer-events: none; stroke-width: 1; fill: rgb(239, 246, 252); fill-opacity: 1; stroke: rgb(0, 0, 0); stroke-opacity: 1; opacity: 1;"/><g class="slicetext"><text data-notex="1" class="slicetext" text-anchor="middle" x="0" y="0" style="font-family: 'Times New Roman'; font-size: 12px; fill: rgb(0, 0, 0); fill-opacity: 1; white-space: pre;" transform="translate(269.9379188551847,410.9679211603036)scale(0.6549304944120571)rotate(4.716000000000008)"><tspan class="line" dy="0em" x="0" y="0">Monitoring Wearables</tspan><tspan class="line" dy="1.3em" x="0" y="0">7.92</tspan></text></g></g><g class="slice"><path class="surface" d="M303.382751476343,384.2574371648526L310.343668635124,425.67658288647016A168,168 0,0,0 382.0999457870579,395.2917247994685L357.1999593402934,361.46879359960144A126,126 0,0,1 303.382751476343,384.2574371648526Z" style="pointer-events: none; stroke-width: 1; fill: rgb(242, 248, 253); fill-opacity: 1; stroke: rgb(0, 0, 0); stroke-opacity: 1; opacity: 1;"/><g class="slicetext"><text data-notex="1" class="slicetext" text-anchor="middle" x="0" y="0" style="font-family: 'Times New Roman'; font-size: 12px; fill: rgb(0, 0, 0); fill-opacity: 1; white-space: pre;" transform="translate(341.81379195166073,400.60620563372845)scale(0.6174226536726999)rotate(-22.949999999999932)"><tspan class="line" dy="0em" x="0" y="0">Diagnostic Equipment</tspan><tspan class="line" dy="1.3em" x="0" y="0">7.45</tspan></text></g></g><g class="slice"><path class="surface" d="M357.1999593402934,361.46879359960144L382.0999457870579,395.2917247994685A168,168 0,0,0 433.4613913516808,333.72013511358125L395.7210435137606,315.2901013351859A126,126 0,0,1 357.1999593402934,361.46879359960144Z" style="pointer-events: none; stroke-width: 1; fill: rgb(240, 247, 253); fill-opacity: 1; stroke: rgb(0, 0, 0); stroke-opacity: 1; opacity: 1;"/><g class="slicetext"><text data-notex="1" class="slicetext" text-anchor="middle" x="0" y="0" style="font-family: 'Times New Roman'; font-size: 12px; fill: rgb(0, 0, 0); fill-opacity: 1; white-space: pre;" transform="translate(397.90374173752105,356.4230768023188)scale(0.7312273165702896)rotate(-50.16599999999994)"><tspan class="line" dy="0em" x="0" y="0">Electronic Records</tspan><tspan class="line" dy="1.3em" x="0" y="0">7.67</tspan></text></g></g><g class="slice"><path class="surface" d="M395.7210435137606,315.2901013351859L433.4613913516808,333.72013511358125A168,168 0,0,0 450.5,260.00000000000006L408.5,260.00000000000006A126,126 0,0,1 395.7210435137606,315.2901013351859Z" style="pointer-events: none; stroke-width: 1; fill: rgb(243, 249, 254); fill-opacity: 1; stroke: rgb(0, 0, 0); stroke-opacity: 1; opacity: 1;"/><g class="slicetext"><text data-notex="1" class="slicetext" text-anchor="middle" x="0" y="0" style="font-family: 'Times New Roman'; font-size: 12px; fill: rgb(0, 0, 0); fill-opacity: 1; white-space: pre;" transform="translate(429.037852978069,294.1210099099817)scale(0.7493557619228395)rotate(-76.98599999999999)"><tspan class="line" dy="0em" x="0" y="0">Decision Support</tspan><tspan class="line" dy="1.3em" x="0" y="0">7.23</tspan></text></g></g><g class="slice"><path class="surface" d="M450.5,260L492.5,260A210,210 0,0,0 450.7501418973527,134.3342140774957L417.10011351788216,159.46737126199653A168,168 0,0,1 450.5,260Z" style="pointer-events: none; stroke-width: 1; fill: rgb(223, 236, 247); fill-opacity: 1; stroke: rgb(0, 0, 0); stroke-opacity: 1; opacity: 1;"/><g class="slicetext"><text data-notex="1" class="slicetext" text-anchor="middle" x="0" y="0" style="font-family: 'Times New Roman'; font-size: 12px; fill: rgb(0, 0, 0); fill-opacity: 1; white-space: pre;" transform="translate(463.4341084598192,199.8883849038684)rotate(71.62199999999996)"><tspan class="line" dy="0em" x="0" y="0">Heart Disease</tspan><tspan class="line" dy="1.3em" x="0" y="0">10.21</tspan></text></g></g><g class="slice"><path class="surface" d="M417.10011351788216,159.46737126199653L450.7501418973527,134.3342140774957A210,210 0,0,0 369.03825507013846,68.65964772318503L351.73060405611074,106.92771817854802A168,168 0,0,1 417.10011351788216,159.46737126199653Z" style="pointer-events: none; stroke-width: 1; fill: rgb(238, 245, 252); fill-opacity: 1; stroke: rgb(0, 0, 0); stroke-opacity: 1; opacity: 1;"/><g class="slicetext"><text data-notex="1" class="slicetext" text-anchor="middle" x="0" y="0" style="font-family: 'Times New Roman'; font-size: 12px; fill: rgb(0, 0, 0); fill-opacity: 1; white-space: pre;" transform="translate(402.46284406291926,110.74297583243022)rotate(38.789999999999964)"><tspan class="line" dy="0em" x="0" y="0">Blood Pressure</tspan><tspan class="line" dy="1.3em" x="0" y="0">8.03</tspan></text></g></g><g class="slice"><path class="surface" d="M351.73060405611074,106.92771817854802L369.03825507013846,68.65964772318503A210,210 0,0,0 283.1597333720347,50.00103630760978L283.02778669762773,92.00082904608783A168,168 0,0,1 351.73060405611074,106.92771817854802Z" style="pointer-events: none; stroke-width: 1; fill: rgb(247, 251, 255); fill-opacity: 1; stroke: rgb(0, 0, 0); stroke-opacity: 1; opacity: 1;"/><g class="slicetext"><text data-notex="1" class="slicetext" text-anchor="middle" x="0" y="0" style="font-family: 'Times New Roman'; font-size: 12px; fill: rgb(0, 0, 0); fill-opacity: 1; white-space: pre;" transform="translate(324.2285916441227,67.31356607924634)scale(0.8095023540873256)rotate(12.258000000000038)"><tspan class="line" dy="0em" x="0" y="0">Arrhythmia Clinics</tspan><tspan class="line" dy="1.3em" x="0" y="0">6.71</tspan></text></g></g></g></g><g class="glimages"/><defs id="topdefs-94275d"><g class="clips"/></defs><g class="layer-above"><g class="imagelayer"/><g class="shapelayer"/></g><g class="infolayer"><g class="cb497aab colorbar" transform="translate(10,50)"><rect class="cbbg" x="571.5" y="63" width="48.015625" height="295" style="fill: rgb(0, 0, 0); fill-opacity: 0; stroke: rgb(68, 68, 68); stroke-opacity: 1; stroke-width: 0;"/><g class="cbfills" transform="translate(0,93)"><rect class="cbfill gradient_filled" style="fill: url('#g94275d-cb497aab');" x="582" y="0" width="15" height="254"/></g><g class="cblines" transform="translate(0,93)"/><g class="cbaxis crisp" transform="translate(0,-50)"><g class="ycb497aabtick"><text text-anchor="start" x="600.4" y="4.199999999999999" transform="translate(0,368.61000000000007)" style="font-family: 'Times New Roman'; font-size: 12px; fill: rgb(42, 63, 95); fill-opacity: 1; white-space: pre; opacity: 1;">10</text></g><g class="ycb497aabtick"><text text-anchor="start" x="600.4" y="4.199999999999999" style="font-family: 'Times New Roman'; font-size: 12px; fill: rgb(42, 63, 95); fill-opacity: 1; white-space: pre; opacity: 1;" transform="translate(0,325.48)">15</text></g><g class="ycb497aabtick"><text text-anchor="start" x="600.4" y="4.199999999999999" style="font-family: 'Times New Roman'; font-size: 12px; fill: rgb(42, 63, 95); fill-opacity: 1; white-space: pre; opacity: 1;" transform="translate(0,282.34000000000003)">20</text></g><g class="ycb497aabtick"><text text-anchor="start" x="600.4" y="4.199999999999999" style="font-family: 'Times New Roman'; font-size: 12px; fill: rgb(42, 63, 95); fill-opacity: 1; white-space: pre; opacity: 1;" transform="translate(0,239.20000000000005)">25</text></g><g class="ycb497aabtick"><text text-anchor="start" x="600.4" y="4.199999999999999" style="font-family: 'Times New Roman'; font-size: 12px; fill: rgb(42, 63, 95); fill-opacity: 1; white-space: pre; opacity: 1;" transform="translate(0,196.06000000000006)">30</text></g><g class="ycb497aabtick"><text text-anchor="start" x="600.4" y="4.199999999999999" style="font-family: 'Times New Roman'; font-size: 12px; fill: rgb(42, 63, 95); fill-opacity: 1; white-space: pre; opacity: 1;" transform="translate(0,152.92000000000004)">35</text></g></g><g class="cbtitleunshift" transform="translate(-10,-50)"><g class="cbtitle" transform="translate(-0.5,-0.5)"><text class="ycb497aabtitle" x="592.25" y="135.75" text-anchor="start" style="opacity: 1; font-family: 'Times New Roman'; font-size: 13px; fill: rgb(42, 63, 95); fill-opacity: 1; white-space: pre;">%</text></g></g><rect class="cboutline" x="582" y="93" width="15" height="254" style="stroke: rgb(68, 68, 68); stroke-opacity: 1; fill: none; stroke-width: 1;"/></g><g class="g-gtitle"><text class="gtitle" x="320" y="25" text-anchor="middle" dy="0em" style="opacity: 1; font-family: 'Times New Roman'; font-size: 16px; fill: rgb(42, 63, 95); fill-opacity: 1; white-space: pre;">Healthcare Distribution by Category (2022) (%)</text></g></g></svg>