<svg class="main-svg" xmlns="http://www.w3.org/2000/svg" xmlns:xlink="http://www.w3.org/1999/xlink" width="1920" height="1440" style="" viewBox="0 0 640 480"><rect x="0" y="0" width="640" height="480" style="fill: rgb(255, 255, 255); fill-opacity: 1;"/><defs id="defs-59c05f"><g class="clips"/><g class="gradients"><linearGradient x1="0" y1="1" x2="0" y2="0" gradientUnits="objectBoundingBox" id="g59c05f-cb55e093"><stop offset="0%" stop-color="rgb(255, 255, 204)" stop-opacity="1"/><stop offset="12.5%" stop-color="rgb(255, 237, 160)" stop-opacity="1"/><stop offset="25%" stop-color="rgb(254, 217, 118)" stop-opacity="1"/><stop offset="37.5%" stop-color="rgb(254, 178, 76)" stop-opacity="1"/><stop offset="50%" stop-color="rgb(253, 141, 60)" stop-opacity="1"/><stop offset="62.5%" stop-color="rgb(252, 78, 42)" stop-opacity="1"/><stop offset="75%" stop-color="rgb(227, 26, 28)" stop-opacity="1"/><stop offset="87.5%" stop-color="rgb(189, 0, 38)" stop-opacity="1"/><stop offset="100%" stop-color="rgb(128, 0, 38)" stop-opacity="1"/></linearGradient></g><g class="patterns"/></defs><g class="bglayer"/><g class="layer-below"><g class="imagelayer"/><g class="shapelayer"/></g><g class="cartesianlayer"/><g class="polarlayer"/><g class="smithlayer"/><g class="ternarylayer"/><g class="geolayer"/><g class="funnelarealayer"/><g class="pielayer"/><g class="iciclelayer"/><g class="treemaplayer"/><g class="sunburstlayer"><g class="trace sunburst" stroke-linejoin="round" style="opacity: 1;"><g class="slice"><path class="surface" d="M282.5,260A0,0 0,1,0 282.5,260A0,0 0,1,0 282.5,260ZM324.5,260A42,42 0,1,1 240.5,260A42,42 0,1,1 324.5,260Z" style="pointer-events: none; stroke-width: 1; fill: rgb(255, 255, 255); fill-opacity: 1; stroke: rgb(0, 0, 0); stroke-opacity: 1;"/><g class="slicetext"><text data-notex="1" class="slicetext" text-anchor="middle" x="0" y="0" style="font-family: 'Times New Roman'; font-size: 12px; fill: rgb(0, 0, 0); fill-opacity: 1; white-space: pre;" transform="translate(282.5,264)">100.01</text></g></g><g class="slice cursor-pointer"><path class="surface" d="M324.5,260L366.5,260A84,84 0,0,0 200.86377695355705,240.21295659499845L241.6818884767785,250.10647829749922A42,42 0,0,1 324.5,260Z" style="pointer-events: none; stroke-width: 1; fill: rgb(128, 0, 38); fill-opacity: 1; stroke: rgb(0, 0, 0); stroke-opacity: 1;"/><g class="slicetext"><text data-notex="1" class="slicetext" text-anchor="middle" x="0" y="0" style="font-family: 'Times New Roman'; font-size: 12px; fill: rgb(0, 0, 0); fill-opacity: 1; white-space: pre;" transform="translate(289.6098448822519,199.08367300241787)scale(0.9663428254565426)rotate(6.812318768123191)"><tspan class="line" dy="0em" x="0" y="0">Medical Services</tspan><tspan class="line" dy="1.3em" x="0" y="0">46.22</tspan></text></g></g><g class="slice cursor-pointer"><path class="surface" d="M241.6818884767785,250.10647829749922L200.86377695355705,240.21295659499845A84,84 0,0,0 287.62902839781844,343.8432648916678L285.0645141989092,301.9216324458339A42,42 0,0,1 241.6818884767785,250.10647829749922Z" style="pointer-events: none; stroke-width: 1; fill: rgb(252, 91, 46); fill-opacity: 1; stroke: rgb(0, 0, 0); stroke-opacity: 1;"/><g class="slicetext"><text data-notex="1" class="slicetext" text-anchor="middle" x="0" y="0" style="font-family: 'Times New Roman'; font-size: 12px; fill: rgb(0, 0, 0); fill-opacity: 1; white-space: pre;" transform="translate(241.61644103752099,294.038994588441)scale(0.8929636794164958)rotate(50.06199380062003)"><tspan class="line" dy="0em" x="0" y="0">Health Technologies</tspan><tspan class="line" dy="1.3em" x="0" y="0">29.76</tspan></text></g></g><g class="slice cursor-pointer"><path class="surface" d="M285.0645141989092,301.9216324458339L287.62902839781844,343.8432648916678A84,84 0,0,0 366.5,260L324.5,260A42,42 0,0,1 285.0645141989092,301.9216324458339Z" style="pointer-events: none; stroke-width: 1; fill: rgb(253, 153, 65); fill-opacity: 1; stroke: rgb(0, 0, 0); stroke-opacity: 1;"/><g class="slicetext"><text data-notex="1" class="slicetext" text-anchor="middle" x="0" y="0" style="font-family: 'Times New Roman'; font-size: 12px; fill: rgb(0, 0, 0); fill-opacity: 1; white-space: pre;" transform="translate(324.0956753736622,299.3009314863838)scale(0.7639339595814199)rotate(-46.750324967503275)"><tspan class="line" dy="0em" x="0" y="0">Public Health Systems</tspan><tspan class="line" dy="1.3em" x="0" y="0">24.03</tspan></text></g></g><g class="slice"><path class="surface" d="M366.5,260L408.5,260A126,126 0,0,0 160.0456654303356,230.31943489249764L200.86377695355705,240.21295659499845A84,84 0,0,1 366.5,260Z" style="pointer-events: none; stroke-width: 1; fill: rgb(128, 0, 38); fill-opacity: 1; stroke: rgb(0, 0, 0); stroke-opacity: 1; opacity: 1;"/><g class="slicetext"><text data-notex="1" class="slicetext" text-anchor="middle" x="0" y="0" style="font-family: 'Times New Roman'; font-size: 12px; fill: rgb(0, 0, 0); fill-opacity: 1; white-space: pre;" transform="translate(295.0530934330208,154.9187636961917)rotate(6.812318768123191)"><tspan class="line" dy="0em" x="0" y="0">Primary Care</tspan><tspan class="line" dy="1.3em" x="0" y="0">46.22</tspan></text></g></g><g class="slice cursor-pointer"><path class="surface" d="M200.86377695355705,240.21295659499845L160.0456654303356,230.31943489249764A126,126 0,0,0 248.4351875304963,381.30782559842356L259.7901250203309,340.87188373228236A84,84 0,0,1 200.86377695355705,240.21295659499845Z" style="pointer-events: none; stroke-width: 1; fill: rgb(253, 150, 64); fill-opacity: 1; stroke: rgb(0, 0, 0); stroke-opacity: 1;"/><g class="slicetext"><text data-notex="1" class="slicetext" text-anchor="middle" x="0" y="0" style="font-family: 'Times New Roman'; font-size: 12px; fill: rgb(0, 0, 0); fill-opacity: 1; white-space: pre;" transform="translate(198.64189516801378,308.90093719009906)rotate(59.65503449655034)"><tspan class="line" dy="0em" x="0" y="0">Medical Devices</tspan><tspan class="line" dy="1.3em" x="0" y="0">24.43</tspan></text></g></g><g class="slice"><path class="surface" d="M259.7901250203309,340.87188373228236L248.4351875304963,381.30782559842356A126,126 0,0,0 290.19354259672764,385.7648973375017L287.62902839781844,343.8432648916678A84,84 0,0,1 259.7901250203309,340.87188373228236Z" style="pointer-events: none; stroke-width: 1; fill: rgb(255, 254, 202); fill-opacity: 1; stroke: rgb(0, 0, 0); stroke-opacity: 1; opacity: 1;"/><g class="slicetext"><text data-notex="1" class="slicetext" text-anchor="middle" x="0" y="0" style="font-family: 'Times New Roman'; font-size: 12px; fill: rgb(0, 0, 0); fill-opacity: 1; white-space: pre;" transform="translate(269.6961261598228,364.2092437487481)scale(0.43935830228938894)rotate(-83.90760923907601)"><tspan class="line" dy="0em" x="0" y="0">Health Informatics</tspan><tspan class="line" dy="1.3em" x="0" y="0">5.33</tspan></text></g></g><g class="slice cursor-pointer"><path class="surface" d="M287.62902839781844,343.8432648916678L290.19354259672764,385.7648973375017A126,126 0,0,0 376.28353383840255,344.1465910229357L345.02235589226837,316.09772734862383A84,84 0,0,1 287.62902839781844,343.8432648916678Z" style="pointer-events: none; stroke-width: 1; fill: rgb(255, 228, 142); fill-opacity: 1; stroke: rgb(0, 0, 0); stroke-opacity: 1;"/><g class="slicetext"><text data-notex="1" class="slicetext" text-anchor="middle" x="0" y="0" style="font-family: 'Times New Roman'; font-size: 12px; fill: rgb(0, 0, 0); fill-opacity: 1; white-space: pre;" transform="translate(328.09690147164446,354.31995667174766)scale(0.7854985670883726)rotate(-25.800419958004227)"><tspan class="line" dy="0em" x="0" y="0">Health Surveillance</tspan><tspan class="line" dy="1.3em" x="0" y="0">12.39</tspan></text></g></g><g class="slice cursor-pointer"><path class="surface" d="M345.02235589226837,316.09772734862383L376.28353383840255,344.1465910229357A126,126 0,0,0 408.5,260.00000000000006L366.5,260A84,84 0,0,1 345.02235589226837,316.09772734862383Z" style="pointer-events: none; stroke-width: 1; fill: rgb(255, 231, 148); fill-opacity: 1; stroke: rgb(0, 0, 0); stroke-opacity: 1;"/><g class="slicetext"><text data-notex="1" class="slicetext" text-anchor="middle" x="0" y="0" style="font-family: 'Times New Roman'; font-size: 12px; fill: rgb(0, 0, 0); fill-opacity: 1; white-space: pre;" transform="translate(382.7826387686969,298.51102408592686)scale(0.6642408431923955)rotate(-69.05009499050095)"><tspan class="line" dy="0em" x="0" y="0">Government Programs</tspan><tspan class="line" dy="1.3em" x="0" y="0">11.64</tspan></text></g></g><g class="slice cursor-pointer"><path class="surface" d="M160.0456654303356,230.31943489249764L119.2275539071141,220.42591318999686A168,168 0,0,0 164.93444040054544,380.0097462544901L194.32583030040908,350.00730969086754A126,126 0,0,1 160.0456654303356,230.31943489249764Z" style="pointer-events: none; stroke-width: 1; fill: rgb(254, 209, 109); fill-opacity: 1; stroke: rgb(0, 0, 0); stroke-opacity: 1;"/><g class="slicetext"><text data-notex="1" class="slicetext" text-anchor="middle" x="0" y="0" style="font-family: 'Times New Roman'; font-size: 12px; fill: rgb(0, 0, 0); fill-opacity: 1; white-space: pre;" transform="translate(149.52754227527436,297.9143831919563)rotate(74.01759824017597)"><tspan class="line" dy="0em" x="0" y="0">Monitoring Wearables</tspan><tspan class="line" dy="1.3em" x="0" y="0">16.45</tspan></text></g></g><g class="slice"><path class="surface" d="M194.32583030040908,350.00730969086754L164.93444040054544,380.0097462544901A168,168 0,0,0 237.08025004066175,421.7437674645647L248.4351875304963,381.30782559842356A126,126 0,0,1 194.32583030040908,350.00730969086754Z" style="pointer-events: none; stroke-width: 1; fill: rgb(255, 245, 179); fill-opacity: 1; stroke: rgb(0, 0, 0); stroke-opacity: 1; opacity: 1;"/><g class="slicetext"><text data-notex="1" class="slicetext" text-anchor="middle" x="0" y="0" style="font-family: 'Times New Roman'; font-size: 12px; fill: rgb(0, 0, 0); fill-opacity: 1; white-space: pre;" transform="translate(206.4904521183468,390.95819182089923)scale(0.6556710792390978)rotate(30.04799520047993)"><tspan class="line" dy="0em" x="0" y="0">Diagnostic Equipment</tspan><tspan class="line" dy="1.3em" x="0" y="0">7.98</tspan></text></g></g><g class="slice cursor-pointer"><path class="surface" d="M290.19354259672764,385.7648973375017L292.75805679563683,427.6865297833356A168,168 0,0,0 407.54471178453673,372.1954546972476L376.28353383840255,344.1465910229357A126,126 0,0,1 290.19354259672764,385.7648973375017Z" style="pointer-events: none; stroke-width: 1; fill: rgb(255, 228, 142); fill-opacity: 1; stroke: rgb(0, 0, 0); stroke-opacity: 1;"/><g class="slicetext"><text data-notex="1" class="slicetext" text-anchor="middle" x="0" y="0" style="font-family: 'Times New Roman'; font-size: 12px; fill: rgb(0, 0, 0); fill-opacity: 1; white-space: pre;" transform="translate(343.7062182670137,386.6087753479549)scale(0.9972865619443322)rotate(-25.800419958004227)"><tspan class="line" dy="0em" x="0" y="0">Outbreak Monitoring</tspan><tspan class="line" dy="1.3em" x="0" y="0">12.39</tspan></text></g></g><g class="slice"><path class="surface" d="M376.28353383840255,344.1465910229357L407.54471178453673,372.1954546972476A168,168 0,0,0 441.5123800119104,314.2131257441203L401.7592850089328,300.6598443080902A126,126 0,0,1 376.28353383840255,344.1465910229357Z" style="pointer-events: none; stroke-width: 1; fill: rgb(255, 250, 192); fill-opacity: 1; stroke: rgb(0, 0, 0); stroke-opacity: 1; opacity: 1;"/><g class="slicetext"><text data-notex="1" class="slicetext" text-anchor="middle" x="0" y="0" style="font-family: 'Times New Roman'; font-size: 12px; fill: rgb(0, 0, 0); fill-opacity: 1; white-space: pre;" transform="translate(416.09897790432115,338.36903623450826)scale(0.5418176226660609)rotate(-59.6370362963703)"><tspan class="line" dy="0em" x="0" y="0">Vaccination Initiatives</tspan><tspan class="line" dy="1.3em" x="0" y="0">6.41</tspan></text></g></g><g class="slice"><path class="surface" d="M401.7592850089328,300.6598443080902L441.5123800119104,314.2131257441203A168,168 0,0,0 450.5,260.00000000000006L408.5,260.00000000000006A126,126 0,0,1 401.7592850089328,300.6598443080902Z" style="pointer-events: none; stroke-width: 1; fill: rgb(255, 254, 202); fill-opacity: 1; stroke: rgb(0, 0, 0); stroke-opacity: 1; opacity: 1;"/><g class="slicetext"><text data-notex="1" class="slicetext" text-anchor="middle" x="0" y="0" style="font-family: 'Times New Roman'; font-size: 12px; fill: rgb(0, 0, 0); fill-opacity: 1; white-space: pre;" transform="translate(435.0838578595271,285.2958248013736)scale(0.6030093866426509)rotate(-80.58694130586946)"><tspan class="line" dy="0em" x="0" y="0">Maternal Health</tspan><tspan class="line" dy="1.3em" x="0" y="0">5.23</tspan></text></g></g><g class="slice"><path class="surface" d="M119.2275539071141,220.42591318999686L78.40944238389261,210.53239148749608A210,210 0,0,0 75.17862750204654,293.43424151322756L116.64290200163725,286.74739321058206A168,168 0,0,1 119.2275539071141,220.42591318999686Z" style="pointer-events: none; stroke-width: 1; fill: rgb(255, 251, 193); fill-opacity: 1; stroke: rgb(0, 0, 0); stroke-opacity: 1; opacity: 1;"/><g class="slicetext"><text data-notex="1" class="slicetext" text-anchor="middle" x="0" y="0" style="font-family: 'Times New Roman'; font-size: 12px; fill: rgb(0, 0, 0); fill-opacity: 1; white-space: pre;" transform="translate(83.45529725497364,252.34980195117305)scale(0.6509991883044017)rotate(-87.76822317768222)"><tspan class="line" dy="0em" x="0" y="0">Blood Glucose Sensors</tspan><tspan class="line" dy="1.3em" x="0" y="0">6.33</tspan></text></g></g><g class="slice"><path class="surface" d="M116.64290200163725,286.74739321058206L75.17862750204654,293.43424151322756A210,210 0,0,0 96.07776329245178,356.67858946506647L133.36221063396144,337.3428715720532A168,168 0,0,1 116.64290200163725,286.74739321058206Z" style="pointer-events: none; stroke-width: 1; fill: rgb(255, 255, 204); fill-opacity: 1; stroke: rgb(0, 0, 0); stroke-opacity: 1; opacity: 1;"/><g class="slicetext"><text data-notex="1" class="slicetext" text-anchor="middle" x="0" y="0" style="font-family: 'Times New Roman'; font-size: 12px; fill: rgb(0, 0, 0); fill-opacity: 1; white-space: pre;" transform="translate(96.21346735307213,321.44780917348544)scale(0.6115275968479496)rotate(71.71382861713835)"><tspan class="line" dy="0em" x="0" y="0">Heart Rate Trackers</tspan><tspan class="line" dy="1.3em" x="0" y="0">5.07</tspan></text></g></g><g class="slice"><path class="surface" d="M133.36221063396144,337.3428715720532L96.07776329245178,356.67858946506647A210,210 0,0,0 135.5430505006818,410.0121828181126L164.93444040054544,380.0097462544901A168,168 0,0,1 133.36221063396144,337.3428715720532Z" style="pointer-events: none; stroke-width: 1; fill: rgb(255, 255, 204); fill-opacity: 1; stroke: rgb(0, 0, 0); stroke-opacity: 1; opacity: 1;"/><g class="slicetext"><text data-notex="1" class="slicetext" text-anchor="middle" x="0" y="0" style="font-family: 'Times New Roman'; font-size: 12px; fill: rgb(0, 0, 0); fill-opacity: 1; white-space: pre;" transform="translate(127.12761565951723,374.8129984886531)scale(0.7740838421105939)rotate(53.499650034996534)"><tspan class="line" dy="0em" x="0" y="0">Sleep Monitors</tspan><tspan class="line" dy="1.3em" x="0" y="0">5.05</tspan></text></g></g><g class="slice"><path class="surface" d="M292.75805679563683,427.6865297833356L295.322570994546,469.60816222916947A210,210 0,0,0 383.68792542907227,444.01359663720643L363.4503403432578,407.2108773097652A168,168 0,0,1 292.75805679563683,427.6865297833356Z" style="pointer-events: none; stroke-width: 1; fill: rgb(255, 248, 187); fill-opacity: 1; stroke: rgb(0, 0, 0); stroke-opacity: 1; opacity: 1;"/><g class="slicetext"><text data-notex="1" class="slicetext" text-anchor="middle" x="0" y="0" style="font-family: 'Times New Roman'; font-size: 12px; fill: rgb(0, 0, 0); fill-opacity: 1; white-space: pre;" transform="translate(335.88471181483754,444.7337580520083)scale(0.7169599976925723)rotate(-16.153384661533778)"><tspan class="line" dy="0em" x="0" y="0">Environmental Sensors</tspan><tspan class="line" dy="1.3em" x="0" y="0">7.03</tspan></text></g></g><g class="slice"><path class="surface" d="M363.4503403432578,407.2108773097652L383.68792542907227,444.01359663720643A210,210 0,0,0 438.8058897306709,400.24431837155953L407.54471178453673,372.1954546972476A168,168 0,0,1 363.4503403432578,407.2108773097652Z" style="pointer-events: none; stroke-width: 1; fill: rgb(255, 254, 201); fill-opacity: 1; stroke: rgb(0, 0, 0); stroke-opacity: 1; opacity: 1;"/><g class="slicetext"><text data-notex="1" class="slicetext" text-anchor="middle" x="0" y="0" style="font-family: 'Times New Roman'; font-size: 12px; fill: rgb(0, 0, 0); fill-opacity: 1; white-space: pre;" transform="translate(402.52342316076806,411.3445272688503)scale(0.7615690817290484)rotate(-38.45315468453157)"><tspan class="line" dy="0em" x="0" y="0">Real-time Alerts</tspan><tspan class="line" dy="1.3em" x="0" y="0">5.36</tspan></text></g></g></g></g><g class="glimages"/><defs id="topdefs-59c05f"><g class="clips"/></defs><g class="layer-above"><g class="imagelayer"/><g class="shapelayer"/></g><g class="infolayer"><g class="cb55e093 colorbar" transform="translate(10,50)"><rect class="cbbg" x="571.5" y="63" width="48.015625" height="295" style="fill: rgb(0, 0, 0); fill-opacity: 0; stroke: rgb(68, 68, 68); stroke-opacity: 1; stroke-width: 0;"/><g class="cbfills" transform="translate(0,93)"><rect class="cbfill gradient_filled" style="fill: url('#g59c05f-cb55e093');" x="582" y="0" width="15" height="254"/></g><g class="cblines" transform="translate(0,93)"/><g class="cbaxis crisp" transform="translate(0,-50)"><g class="ycb55e093tick"><text text-anchor="start" x="600.4" y="4.199999999999999" transform="translate(0,366.46000000000004)" style="font-family: 'Times New Roman'; font-size: 12px; fill: rgb(42, 63, 95); fill-opacity: 1; white-space: pre; opacity: 1;">10</text></g><g class="ycb55e093tick"><text text-anchor="start" x="600.4" y="4.199999999999999" style="font-family: 'Times New Roman'; font-size: 12px; fill: rgb(42, 63, 95); fill-opacity: 1; white-space: pre; opacity: 1;" transform="translate(0,304.7700000000001)">20</text></g><g class="ycb55e093tick"><text text-anchor="start" x="600.4" y="4.199999999999999" style="font-family: 'Times New Roman'; font-size: 12px; fill: rgb(42, 63, 95); fill-opacity: 1; white-space: pre; opacity: 1;" transform="translate(0,243.07000000000005)">30</text></g><g class="ycb55e093tick"><text text-anchor="start" x="600.4" y="4.199999999999999" style="font-family: 'Times New Roman'; font-size: 12px; fill: rgb(42, 63, 95); fill-opacity: 1; white-space: pre; opacity: 1;" transform="translate(0,181.37000000000006)">40</text></g></g><g class="cbtitleunshift" transform="translate(-10,-50)"><g class="cbtitle" transform="translate(-0.5,-0.5)"><text class="ycb55e093title" x="592.25" y="135.75" text-anchor="start" style="opacity: 1; font-family: 'Times New Roman'; font-size: 13px; fill: rgb(42, 63, 95); fill-opacity: 1; white-space: pre;">%</text></g></g><rect class="cboutline" x="582" y="93" width="15" height="254" style="stroke: rgb(68, 68, 68); stroke-opacity: 1; fill: none; stroke-width: 1;"/></g><g class="g-gtitle"><text class="gtitle" x="320" y="25" text-anchor="middle" dy="0em" style="opacity: 1; font-family: 'Times New Roman'; font-size: 16px; fill: rgb(42, 63, 95); fill-opacity: 1; white-space: pre;">Healthcare Distribution by Category (2022) (%)</text></g></g></svg>