<svg class="main-svg" xmlns="http://www.w3.org/2000/svg" xmlns:xlink="http://www.w3.org/1999/xlink" width="1920" height="1440" style="" viewBox="0 0 640 480"><rect x="0" y="0" width="640" height="480" style="fill: rgb(255, 255, 255); fill-opacity: 1;"/><defs id="defs-ad44a1"><g class="clips"/><g class="gradients"><linearGradient x1="0" y1="1" x2="0" y2="0" gradientUnits="objectBoundingBox" id="gad44a1-cbd9ba56"><stop offset="0%" stop-color="rgb(255, 245, 235)" stop-opacity="1"/><stop offset="12.5%" stop-color="rgb(254, 230, 206)" stop-opacity="1"/><stop offset="25%" stop-color="rgb(253, 208, 162)" stop-opacity="1"/><stop offset="37.5%" stop-color="rgb(253, 174, 107)" stop-opacity="1"/><stop offset="50%" stop-color="rgb(253, 141, 60)" stop-opacity="1"/><stop offset="62.5%" stop-color="rgb(241, 105, 19)" stop-opacity="1"/><stop offset="75%" stop-color="rgb(217, 72, 1)" stop-opacity="1"/><stop offset="87.5%" stop-color="rgb(166, 54, 3)" stop-opacity="1"/><stop offset="100%" stop-color="rgb(127, 39, 4)" stop-opacity="1"/></linearGradient></g><g class="patterns"/></defs><g class="bglayer"/><g class="layer-below"><g class="imagelayer"/><g class="shapelayer"/></g><g class="cartesianlayer"/><g class="polarlayer"/><g class="smithlayer"/><g class="ternarylayer"/><g class="geolayer"/><g class="funnelarealayer"/><g class="pielayer"/><g class="iciclelayer"/><g class="treemaplayer"/><g class="sunburstlayer"><g class="trace sunburst" stroke-linejoin="round" style="opacity: 1;"><g class="slice"><path class="surface" d="M282.5,260A0,0 0,1,0 282.5,260A0,0 0,1,0 282.5,260ZM324.5,260A42,42 0,1,1 240.5,260A42,42 0,1,1 324.5,260Z" style="pointer-events: none; stroke-width: 1; fill: rgb(255, 255, 255); fill-opacity: 1; stroke: rgb(0, 0, 0); stroke-opacity: 1;"/><g class="slicetext"><text data-notex="1" class="slicetext" text-anchor="middle" x="0" y="0" style="font-family: 'Times New Roman'; font-size: 12px; fill: rgb(0, 0, 0); fill-opacity: 1; white-space: pre;" transform="translate(282.5,264)">100</text></g></g><g class="slice cursor-pointer"><path class="surface" d="M324.5,260L366.5,260A84,84 0,0,0 206.22702533316595,224.80861844893707L244.36351266658298,242.40430922446853A42,42 0,0,1 324.5,260Z" style="pointer-events: none; stroke-width: 1; fill: rgb(127, 39, 4); fill-opacity: 1; stroke: rgb(0, 0, 0); stroke-opacity: 1;"/><g class="slicetext"><text data-notex="1" class="slicetext" text-anchor="middle" x="0" y="0" style="font-family: 'Times New Roman'; font-size: 12px; fill: rgb(0, 0, 0); fill-opacity: 1; white-space: pre;" transform="translate(295.22327895312367,201.3709461916643)scale(0.8929636794164958)rotate(12.384000000000015)"><tspan class="line" dy="0em" x="0" y="0">Health Technologies</tspan><tspan class="line" dy="1.3em" x="0" y="0">43.12</tspan></text></g></g><g class="slice cursor-pointer"><path class="surface" d="M244.36351266658298,242.40430922446853L206.22702533316595,224.80861844893707A84,84 0,0,0 285.244007078416,343.95516913897325L283.872003539208,301.9775845694866A42,42 0,0,1 244.36351266658298,242.40430922446853Z" style="pointer-events: none; stroke-width: 1; fill: rgb(223, 81, 6); fill-opacity: 1; stroke: rgb(0, 0, 0); stroke-opacity: 1;"/><g class="slicetext"><text data-notex="1" class="slicetext" text-anchor="middle" x="0" y="0" style="font-family: 'Times New Roman'; font-size: 12px; fill: rgb(0, 0, 0); fill-opacity: 1; white-space: pre;" transform="translate(237.42514967919774,289.69396242344175)scale(0.9663428254565426)rotate(56.44799999999998)"><tspan class="line" dy="0em" x="0" y="0">Medical Services</tspan><tspan class="line" dy="1.3em" x="0" y="0">32.4</tspan></text></g></g><g class="slice cursor-pointer"><path class="surface" d="M283.872003539208,301.9775845694866L285.244007078416,343.95516913897325A84,84 0,0,0 366.5,260L324.5,260A42,42 0,0,1 283.872003539208,301.9775845694866Z" style="pointer-events: none; stroke-width: 1; fill: rgb(252, 139, 57); fill-opacity: 1; stroke: rgb(0, 0, 0); stroke-opacity: 1;"/><g class="slicetext"><text data-notex="1" class="slicetext" text-anchor="middle" x="0" y="0" style="font-family: 'Times New Roman'; font-size: 12px; fill: rgb(0, 0, 0); fill-opacity: 1; white-space: pre;" transform="translate(323.14595677555525,299.51606304498057)scale(0.7747116174977549)rotate(-45.936000000000035)"><tspan class="line" dy="0em" x="0" y="0">Public Health Systems</tspan><tspan class="line" dy="1.3em" x="0" y="0">24.48</tspan></text></g></g><g class="slice cursor-pointer"><path class="surface" d="M366.5,260L408.5,260A126,126 0,0,0 205.02373501039887,160.6348735055346L230.84915667359925,193.75658233702308A84,84 0,0,1 366.5,260Z" style="pointer-events: none; stroke-width: 1; fill: rgb(197, 65, 2); fill-opacity: 1; stroke: rgb(0, 0, 0); stroke-opacity: 1;"/><g class="slicetext"><text data-notex="1" class="slicetext" text-anchor="middle" x="0" y="0" style="font-family: 'Times New Roman'; font-size: 12px; fill: rgb(0, 0, 0); fill-opacity: 1; white-space: pre;" transform="translate(328.0234170725079,166.40493442235274)rotate(26.02800000000002)"><tspan class="line" dy="0em" x="0" y="0">Health Informatics</tspan><tspan class="line" dy="1.3em" x="0" y="0">35.54</tspan></text></g></g><g class="slice cursor-pointer"><path class="surface" d="M230.84915667359925,193.75658233702308L205.02373501039887,160.6348735055346A126,126 0,0,0 168.09053799974896,207.2129276734056L206.22702533316595,224.80861844893707A84,84 0,0,1 230.84915667359925,193.75658233702308Z" style="pointer-events: none; stroke-width: 1; fill: rgb(255, 238, 221); fill-opacity: 1; stroke: rgb(0, 0, 0); stroke-opacity: 1;"/><g class="slicetext"><text data-notex="1" class="slicetext" text-anchor="middle" x="0" y="0" style="font-family: 'Times New Roman'; font-size: 12px; fill: rgb(0, 0, 0); fill-opacity: 1; white-space: pre;" transform="translate(191.20608743717574,187.7350943271242)scale(0.596499330401191)rotate(-51.587999999999965)"><tspan class="line" dy="0em" x="0" y="0">Medical Devices</tspan><tspan class="line" dy="1.3em" x="0" y="0">7.58</tspan></text></g></g><g class="slice cursor-pointer"><path class="surface" d="M206.22702533316595,224.80861844893707L168.09053799974896,207.2129276734056A126,126 0,0,0 245.60228493428505,380.47638201294603L257.90152328952337,340.3175880086307A84,84 0,0,1 206.22702533316595,224.80861844893707Z" style="pointer-events: none; stroke-width: 1; fill: rgb(245, 118, 34); fill-opacity: 1; stroke: rgb(0, 0, 0); stroke-opacity: 1;"/><g class="slicetext"><text data-notex="1" class="slicetext" text-anchor="middle" x="0" y="0" style="font-family: 'Times New Roman'; font-size: 12px; fill: rgb(0, 0, 0); fill-opacity: 1; white-space: pre;" transform="translate(192.84373382194062,300.1089418514683)rotate(65.89800000000002)"><tspan class="line" dy="0em" x="0" y="0">Primary Care</tspan><tspan class="line" dy="1.3em" x="0" y="0">27.15</tspan></text></g></g><g class="slice"><path class="surface" d="M257.90152328952337,340.3175880086307L245.60228493428505,380.47638201294603A126,126 0,0,0 286.616010617624,385.9327537084598L285.244007078416,343.95516913897325A84,84 0,0,1 257.90152328952337,340.3175880086307Z" style="pointer-events: none; stroke-width: 1; fill: rgb(255, 245, 235); fill-opacity: 1; stroke: rgb(0, 0, 0); stroke-opacity: 1; opacity: 1;"/><g class="slicetext"><text data-notex="1" class="slicetext" text-anchor="middle" x="0" y="0" style="font-family: 'Times New Roman'; font-size: 12px; fill: rgb(0, 0, 0); fill-opacity: 1; white-space: pre;" transform="translate(266.815395261452,363.72180543355944)scale(0.491295333980423)rotate(-82.42200000000003)"><tspan class="line" dy="0em" x="0" y="0">Specialized Care</tspan><tspan class="line" dy="1.3em" x="0" y="0">5.25</tspan></text></g></g><g class="slice"><path class="surface" d="M285.244007078416,343.95516913897325L286.616010617624,385.9327537084598A126,126 0,0,0 408.5,260.00000000000006L366.5,260A84,84 0,0,1 285.244007078416,343.95516913897325Z" style="pointer-events: none; stroke-width: 1; fill: rgb(252, 139, 57); fill-opacity: 1; stroke: rgb(0, 0, 0); stroke-opacity: 1; opacity: 1;"/><g class="slicetext"><text data-notex="1" class="slicetext" text-anchor="middle" x="0" y="0" style="font-family: 'Times New Roman'; font-size: 12px; fill: rgb(0, 0, 0); fill-opacity: 1; white-space: pre;" transform="translate(351.002234142574,326.51948880177713)scale(0.9618765476584364)rotate(-45.936000000000035)"><tspan class="line" dy="0em" x="0" y="0">Government Programs</tspan><tspan class="line" dy="1.3em" x="0" y="0">24.48</tspan></text></g></g><g class="slice cursor-pointer"><path class="surface" d="M408.5,260L450.5,260A168,168 0,0,0 229.38193807517618,100.61847190671503L242.66145355638213,140.4638539300363A126,126 0,0,1 408.5,260Z" style="pointer-events: none; stroke-width: 1; fill: rgb(235, 97, 14); fill-opacity: 1; stroke: rgb(0, 0, 0); stroke-opacity: 1;"/><g class="slicetext"><text data-notex="1" class="slicetext" text-anchor="middle" x="0" y="0" style="font-family: 'Times New Roman'; font-size: 12px; fill: rgb(0, 0, 0); fill-opacity: 1; white-space: pre;" transform="translate(368.18790568951476,140.8402531982943)rotate(35.78399999999999)"><tspan class="line" dy="0em" x="0" y="0">Electronic Records</tspan><tspan class="line" dy="1.3em" x="0" y="0">30.12</tspan></text></g></g><g class="slice"><path class="surface" d="M242.66145355638213,140.4638539300363L229.38193807517618,100.61847190671503A168,168 0,0,0 179.19831334719845,127.51316467404621L205.02373501039884,160.63487350553464A126,126 0,0,1 242.66145355638213,140.4638539300363Z" style="pointer-events: none; stroke-width: 1; fill: rgb(255, 244, 234); fill-opacity: 1; stroke: rgb(0, 0, 0); stroke-opacity: 1; opacity: 1;"/><g class="slicetext"><text data-notex="1" class="slicetext" text-anchor="middle" x="0" y="0" style="font-family: 'Times New Roman'; font-size: 12px; fill: rgb(0, 0, 0); fill-opacity: 1; white-space: pre;" transform="translate(207.06275235979237,119.64402238086392)scale(0.5825680334271156)rotate(-28.187999999999988)"><tspan class="line" dy="0em" x="0" y="0">Decision Support</tspan><tspan class="line" dy="1.3em" x="0" y="0">5.42</tspan></text></g></g><g class="slice"><path class="surface" d="M205.02373501039887,160.6348735055346L179.1983133471985,127.51316467404615A168,168 0,0,0 129.95405066633194,189.61723689787414L168.09053799974896,207.2129276734056A126,126 0,0,1 205.02373501039887,160.6348735055346Z" style="pointer-events: none; stroke-width: 1; fill: rgb(255, 238, 221); fill-opacity: 1; stroke: rgb(0, 0, 0); stroke-opacity: 1; opacity: 1;"/><g class="slicetext"><text data-notex="1" class="slicetext" text-anchor="middle" x="0" y="0" style="font-family: 'Times New Roman'; font-size: 12px; fill: rgb(0, 0, 0); fill-opacity: 1; white-space: pre;" transform="translate(159.37726073008375,162.50409210043225)scale(0.630268980767159)rotate(-51.587999999999965)"><tspan class="line" dy="0em" x="0" y="0">Monitoring Wearables</tspan><tspan class="line" dy="1.3em" x="0" y="0">7.58</tspan></text></g></g><g class="slice cursor-pointer"><path class="surface" d="M168.09053799974896,207.2129276734056L129.95405066633194,189.61723689787414A168,168 0,0,0 157.11160975370439,371.81123195566124L188.45870731527828,343.85842396674593A126,126 0,0,1 168.09053799974896,207.2129276734056Z" style="pointer-events: none; stroke-width: 1; fill: rgb(253, 181, 118); fill-opacity: 1; stroke: rgb(0, 0, 0); stroke-opacity: 1;"/><g class="slicetext"><text data-notex="1" class="slicetext" text-anchor="middle" x="0" y="0" style="font-family: 'Times New Roman'; font-size: 12px; fill: rgb(0, 0, 0); fill-opacity: 1; white-space: pre;" transform="translate(144.64473602155073,280.3826203493967)rotate(81.52199999999993)"><tspan class="line" dy="0em" x="0" y="0">Family Physicians</tspan><tspan class="line" dy="1.3em" x="0" y="0">18.47</tspan></text></g></g><g class="slice"><path class="surface" d="M188.45870731527828,343.85842396674593L157.11160975370439,371.81123195566124A168,168 0,0,0 233.30304657904674,420.6351760172614L245.60228493428505,380.47638201294603A126,126 0,0,1 188.45870731527828,343.85842396674593Z" style="pointer-events: none; stroke-width: 1; fill: rgb(254, 234, 214); fill-opacity: 1; stroke: rgb(0, 0, 0); stroke-opacity: 1; opacity: 1;"/><g class="slicetext"><text data-notex="1" class="slicetext" text-anchor="middle" x="0" y="0" style="font-family: 'Times New Roman'; font-size: 12px; fill: rgb(0, 0, 0); fill-opacity: 1; white-space: pre;" transform="translate(203.88146856390816,382.395758146622)scale(0.957483298276936)rotate(32.65199999999993)"><tspan class="line" dy="0em" x="0" y="0">Walk-in Clinics</tspan><tspan class="line" dy="1.3em" x="0" y="0">8.68</tspan></text></g></g><g class="slice"><path class="surface" d="M450.5,260L492.5,260A210,210 0,0,0 335.49131259606463,56.79586424153135L324.8930500768517,97.43669139322509A168,168 0,0,1 450.5,260Z" style="pointer-events: none; stroke-width: 1; fill: rgb(253, 164, 92); fill-opacity: 1; stroke: rgb(0, 0, 0); stroke-opacity: 1; opacity: 1;"/><g class="slicetext"><text data-notex="1" class="slicetext" text-anchor="middle" x="0" y="0" style="font-family: 'Times New Roman'; font-size: 12px; fill: rgb(0, 0, 0); fill-opacity: 1; white-space: pre;" transform="translate(433.17084557170944,143.37460737677398)rotate(52.30799999999999)"><tspan class="line" dy="0em" x="0" y="0">EMR Systems</tspan><tspan class="line" dy="1.3em" x="0" y="0">20.94</tspan></text></g></g><g class="slice"><path class="surface" d="M324.8930500768517,97.43669139322509L335.49131259606463,56.79586424153135A210,210 0,0,0 216.10242259397023,60.773089883393794L229.38193807517618,100.61847190671503A168,168 0,0,1 324.8930500768517,97.43669139322509Z" style="pointer-events: none; stroke-width: 1; fill: rgb(254, 233, 211); fill-opacity: 1; stroke: rgb(0, 0, 0); stroke-opacity: 1; opacity: 1;"/><g class="slicetext"><text data-notex="1" class="slicetext" text-anchor="middle" x="0" y="0" style="font-family: 'Times New Roman'; font-size: 12px; fill: rgb(0, 0, 0); fill-opacity: 1; white-space: pre;" transform="translate(275.9644386223773,68.74222850235975)rotate(-1.9080000000000155)"><tspan class="line" dy="0em" x="0" y="0">Data Privacy Tools</tspan><tspan class="line" dy="1.3em" x="0" y="0">9.18</tspan></text></g></g><g class="slice"><path class="surface" d="M129.95405066633194,189.61723689787414L91.81756333291492,172.02154612234267A210,210 0,0,0 72.54513997936007,255.6460645717362L114.53611198348804,256.51685165738894A168,168 0,0,1 129.95405066633194,189.61723689787414Z" style="pointer-events: none; stroke-width: 1; fill: rgb(255, 241, 227); fill-opacity: 1; stroke: rgb(0, 0, 0); stroke-opacity: 1; opacity: 1;"/><g class="slicetext"><text data-notex="1" class="slicetext" text-anchor="middle" x="0" y="0" style="font-family: 'Times New Roman'; font-size: 12px; fill: rgb(0, 0, 0); fill-opacity: 1; white-space: pre;" transform="translate(90.38802733243386,215.86475727919034)scale(0.8292218336286393)rotate(-77.02200000000005)"><tspan class="line" dy="0em" x="0" y="0">Routine Checkups</tspan><tspan class="line" dy="1.3em" x="0" y="0">6.55</tspan></text></g></g><g class="slice"><path class="surface" d="M114.53611198348804,256.51685165738894L72.54513997936007,255.6460645717362A210,210 0,0,0 87.78589899597017,338.65379120037676L126.72871919677615,322.92303296030144A168,168 0,0,1 114.53611198348804,256.51685165738894Z" style="pointer-events: none; stroke-width: 1; fill: rgb(255, 241, 228); fill-opacity: 1; stroke: rgb(0, 0, 0); stroke-opacity: 1; opacity: 1;"/><g class="slicetext"><text data-notex="1" class="slicetext" text-anchor="middle" x="0" y="0" style="font-family: 'Times New Roman'; font-size: 12px; fill: rgb(0, 0, 0); fill-opacity: 1; white-space: pre;" transform="translate(92.37683463618401,294.6746633344875)scale(0.6989827722784863)rotate(79.596)"><tspan class="line" dy="0em" x="0" y="0">Referral Management</tspan><tspan class="line" dy="1.3em" x="0" y="0">6.44</tspan></text></g></g><g class="slice"><path class="surface" d="M126.72871919677615,322.92303296030144L87.78589899597017,338.65379120037676A210,210 0,0,0 125.7645121921305,399.76403994457655L157.11160975370439,371.81123195566124A168,168 0,0,1 126.72871919677615,322.92303296030144Z" style="pointer-events: none; stroke-width: 1; fill: rgb(255, 244, 234); fill-opacity: 1; stroke: rgb(0, 0, 0); stroke-opacity: 1; opacity: 1;"/><g class="slicetext"><text data-notex="1" class="slicetext" text-anchor="middle" x="0" y="0" style="font-family: 'Times New Roman'; font-size: 12px; fill: rgb(0, 0, 0); fill-opacity: 1; white-space: pre;" transform="translate(117.72067584653577,362.26877364984404)scale(0.7132987096400946)rotate(58.139999999999986)"><tspan class="line" dy="0em" x="0" y="0">Health Screenings</tspan><tspan class="line" dy="1.3em" x="0" y="0">5.48</tspan></text></g></g></g></g><g class="glimages"/><defs id="topdefs-ad44a1"><g class="clips"/></defs><g class="layer-above"><g class="imagelayer"/><g class="shapelayer"/></g><g class="infolayer"><g class="cbd9ba56 colorbar" transform="translate(10,50)"><rect class="cbbg" x="571.5" y="63" width="48.015625" height="295" style="fill: rgb(0, 0, 0); fill-opacity: 0; stroke: rgb(68, 68, 68); stroke-opacity: 1; stroke-width: 0;"/><g class="cbfills" transform="translate(0,93)"><rect class="cbfill gradient_filled" style="fill: url('#gad44a1-cbd9ba56');" x="582" y="0" width="15" height="254"/></g><g class="cblines" transform="translate(0,93)"/><g class="cbaxis crisp" transform="translate(0,-50)"><g class="ycbd9ba56tick"><text text-anchor="start" x="600.4" y="4.199999999999999" transform="translate(0,365.14000000000004)" style="font-family: 'Times New Roman'; font-size: 12px; fill: rgb(42, 63, 95); fill-opacity: 1; white-space: pre; opacity: 1;">10</text></g><g class="ycbd9ba56tick"><text text-anchor="start" x="600.4" y="4.199999999999999" style="font-family: 'Times New Roman'; font-size: 12px; fill: rgb(42, 63, 95); fill-opacity: 1; white-space: pre; opacity: 1;" transform="translate(0,298.07000000000005)">20</text></g><g class="ycbd9ba56tick"><text text-anchor="start" x="600.4" y="4.199999999999999" style="font-family: 'Times New Roman'; font-size: 12px; fill: rgb(42, 63, 95); fill-opacity: 1; white-space: pre; opacity: 1;" transform="translate(0,231.00000000000006)">30</text></g><g class="ycbd9ba56tick"><text text-anchor="start" x="600.4" y="4.199999999999999" style="font-family: 'Times New Roman'; font-size: 12px; fill: rgb(42, 63, 95); fill-opacity: 1; white-space: pre; opacity: 1;" transform="translate(0,163.93000000000006)">40</text></g></g><g class="cbtitleunshift" transform="translate(-10,-50)"><g class="cbtitle" transform="translate(-0.5,-0.5)"><text class="ycbd9ba56title" x="592.25" y="135.75" text-anchor="start" style="opacity: 1; font-family: 'Times New Roman'; font-size: 13px; fill: rgb(42, 63, 95); fill-opacity: 1; white-space: pre;">%</text></g></g><rect class="cboutline" x="582" y="93" width="15" height="254" style="stroke: rgb(68, 68, 68); stroke-opacity: 1; fill: none; stroke-width: 1;"/></g><g class="g-gtitle"><text class="gtitle" x="320" y="25" text-anchor="middle" dy="0em" style="opacity: 1; font-family: 'Times New Roman'; font-size: 16px; fill: rgb(42, 63, 95); fill-opacity: 1; white-space: pre;">Healthcare Distribution by Category (2022) (%)</text></g></g></svg>