<svg class="main-svg" xmlns="http://www.w3.org/2000/svg" xmlns:xlink="http://www.w3.org/1999/xlink" width="1920" height="1440" style="" viewBox="0 0 640 480"><rect x="0" y="0" width="640" height="480" style="fill: rgb(255, 255, 255); fill-opacity: 1;"/><defs id="defs-5e3dea"><g class="clips"/><g class="gradients"><linearGradient x1="0" y1="1" x2="0" y2="0" gradientUnits="objectBoundingBox" id="g5e3dea-cb8b52e7"><stop offset="0%" stop-color="rgb(255, 255, 204)" stop-opacity="1"/><stop offset="12.5%" stop-color="rgb(255, 237, 160)" stop-opacity="1"/><stop offset="25%" stop-color="rgb(254, 217, 118)" stop-opacity="1"/><stop offset="37.5%" stop-color="rgb(254, 178, 76)" stop-opacity="1"/><stop offset="50%" stop-color="rgb(253, 141, 60)" stop-opacity="1"/><stop offset="62.5%" stop-color="rgb(252, 78, 42)" stop-opacity="1"/><stop offset="75%" stop-color="rgb(227, 26, 28)" stop-opacity="1"/><stop offset="87.5%" stop-color="rgb(189, 0, 38)" stop-opacity="1"/><stop offset="100%" stop-color="rgb(128, 0, 38)" stop-opacity="1"/></linearGradient></g><g class="patterns"/></defs><g class="bglayer"/><g class="layer-below"><g class="imagelayer"/><g class="shapelayer"/></g><g class="cartesianlayer"/><g class="polarlayer"/><g class="smithlayer"/><g class="ternarylayer"/><g class="geolayer"/><g class="funnelarealayer"/><g class="pielayer"/><g class="iciclelayer"/><g class="treemaplayer"/><g class="sunburstlayer"><g class="trace sunburst" stroke-linejoin="round" style="opacity: 1;"><g class="slice"><path class="surface" d="M282.5,260A0,0 0,1,0 282.5,260A0,0 0,1,0 282.5,260ZM335,260A52.5,52.5 0,1,1 230,260A52.5,52.5 0,1,1 335,260Z" style="pointer-events: none; stroke-width: 1; fill: rgb(255, 255, 255); fill-opacity: 1; stroke: rgb(0, 0, 0); stroke-opacity: 1;"/><g class="slicetext"><text data-notex="1" class="slicetext" text-anchor="middle" x="0" y="0" style="font-family: 'Times New Roman'; font-size: 12px; fill: rgb(0, 0, 0); fill-opacity: 1; white-space: pre;" transform="translate(282.5,264)">100.01</text></g></g><g class="slice cursor-pointer"><path class="surface" d="M335,260L387.5,260A105,105 0,0,0 190.72460340782033,208.98748604167662L236.61230170391016,234.4937430208383A52.5,52.5 0,0,1 335,260Z" style="pointer-events: none; stroke-width: 1; fill: rgb(128, 0, 38); fill-opacity: 1; stroke: rgb(0, 0, 0); stroke-opacity: 1;"/><g class="slicetext"><text data-notex="1" class="slicetext" text-anchor="middle" x="0" y="0" style="font-family: 'Times New Roman'; font-size: 12px; fill: rgb(0, 0, 0); fill-opacity: 1; white-space: pre;" transform="translate(301.2510577236143,187.66977092911887)rotate(14.533546645335491)"><tspan class="line" dy="0em" x="0" y="0">Employee Lifecycle</tspan><tspan class="line" dy="1.3em" x="0" y="0">41.93</tspan></text></g></g><g class="slice cursor-pointer"><path class="surface" d="M236.61230170391016,234.4937430208383L190.72460340782033,208.98748604167662A105,105 0,0,0 285.61647586155283,364.9537401820648L284.0582379307764,312.47687009103237A52.5,52.5 0,0,1 236.61230170391016,234.4937430208383Z" style="pointer-events: none; stroke-width: 1; fill: rgb(222, 22, 29); fill-opacity: 1; stroke: rgb(0, 0, 0); stroke-opacity: 1;"/><g class="slicetext"><text data-notex="1" class="slicetext" text-anchor="middle" x="0" y="0" style="font-family: 'Times New Roman'; font-size: 12px; fill: rgb(0, 0, 0); fill-opacity: 1; white-space: pre;" transform="translate(225.6124730136243,294.6111021563705)rotate(58.6831316868313)"><tspan class="line" dy="0em" x="0" y="0">Workplace Wellbeing</tspan><tspan class="line" dy="1.3em" x="0" y="0">33.55</tspan></text></g></g><g class="slice cursor-pointer"><path class="surface" d="M284.0582379307764,312.47687009103237L285.61647586155283,364.9537401820648A105,105 0,0,0 387.5,260.0000000000001L335,260.00000000000006A52.5,52.5 0,0,1 284.0582379307764,312.47687009103237Z" style="pointer-events: none; stroke-width: 1; fill: rgb(253, 132, 57); fill-opacity: 1; stroke: rgb(0, 0, 0); stroke-opacity: 1;"/><g class="slicetext"><text data-notex="1" class="slicetext" text-anchor="middle" x="0" y="0" style="font-family: 'Times New Roman'; font-size: 12px; fill: rgb(0, 0, 0); fill-opacity: 1; white-space: pre;" transform="translate(333.3677162403276,309.81694348923065)scale(0.9339425612231362)rotate(-45.850414958504075)"><tspan class="line" dy="0em" x="0" y="0">Employee Development</tspan><tspan class="line" dy="1.3em" x="0" y="0">24.53</tspan></text></g></g><g class="slice"><path class="surface" d="M387.5,260L440,260A157.5,157.5 0,0,0 144.83690511173052,183.48122906251496L190.72460340782033,208.98748604167662A105,105 0,0,1 387.5,260Z" style="pointer-events: none; stroke-width: 1; fill: rgb(128, 0, 38); fill-opacity: 1; stroke: rgb(0, 0, 0); stroke-opacity: 1; opacity: 1;"/><g class="slicetext"><text data-notex="1" class="slicetext" text-anchor="middle" x="0" y="0" style="font-family: 'Times New Roman'; font-size: 12px; fill: rgb(0, 0, 0); fill-opacity: 1; white-space: pre;" transform="translate(315.606427708797,132.29544406552563)rotate(14.533546645335491)"><tspan class="line" dy="0em" x="0" y="0">Onboarding</tspan><tspan class="line" dy="1.3em" x="0" y="0">41.93</tspan></text></g></g><g class="slice cursor-pointer"><path class="surface" d="M190.72460340782033,208.98748604167662L144.83690511173052,183.48122906251496A157.5,157.5 0,0,0 149.96610581103403,345.09416484758503L194.14407054068934,316.72944323172334A105,105 0,0,1 190.72460340782033,208.98748604167662Z" style="pointer-events: none; stroke-width: 1; fill: rgb(254, 197, 96); fill-opacity: 1; stroke: rgb(0, 0, 0); stroke-opacity: 1;"/><g class="slicetext"><text data-notex="1" class="slicetext" text-anchor="middle" x="0" y="0" style="font-family: 'Times New Roman'; font-size: 12px; fill: rgb(0, 0, 0); fill-opacity: 1; white-space: pre;" transform="translate(159.99405050296465,263.8880402659394)rotate(88.18218178182178)"><tspan class="line" dy="0em" x="0" y="0">Health &amp; Safety</tspan><tspan class="line" dy="1.3em" x="0" y="0">17.16</tspan></text></g></g><g class="slice cursor-pointer"><path class="surface" d="M194.14407054068934,316.72944323172334L149.96610581103403,345.09416484758503A157.5,157.5 0,0,0 287.1747137923292,417.43061027309716L285.61647586155283,364.9537401820648A105,105 0,0,1 194.14407054068934,316.72944323172334Z" style="pointer-events: none; stroke-width: 1; fill: rgb(254, 204, 104); fill-opacity: 1; stroke: rgb(0, 0, 0); stroke-opacity: 1;"/><g class="slicetext"><text data-notex="1" class="slicetext" text-anchor="middle" x="0" y="0" style="font-family: 'Times New Roman'; font-size: 12px; fill: rgb(0, 0, 0); fill-opacity: 1; white-space: pre;" transform="translate(225.2561386499938,368.5808196007718)rotate(27.798220177982216)"><tspan class="line" dy="0em" x="0" y="0">Work-Life Balance</tspan><tspan class="line" dy="1.3em" x="0" y="0">16.39</tspan></text></g></g><g class="slice"><path class="surface" d="M285.61647586155283,364.9537401820648L287.1747137923292,417.43061027309716A157.5,157.5 0,0,0 411.0218611648231,351.04054702565185L368.18124077654875,320.6936980171012A105,105 0,0,1 285.61647586155283,364.9537401820648Z" style="pointer-events: none; stroke-width: 1; fill: rgb(254, 217, 119); fill-opacity: 1; stroke: rgb(0, 0, 0); stroke-opacity: 1; opacity: 1;"/><g class="slicetext"><text data-notex="1" class="slicetext" text-anchor="middle" x="0" y="0" style="font-family: 'Times New Roman'; font-size: 12px; fill: rgb(0, 0, 0); fill-opacity: 1; white-space: pre;" transform="translate(341.79906262205503,370.9665119025791)rotate(-28.194180581941737)"><tspan class="line" dy="0em" x="0" y="0">Training Programs</tspan><tspan class="line" dy="1.3em" x="0" y="0">14.72</tspan></text></g></g><g class="slice cursor-pointer"><path class="surface" d="M368.18124077654875,320.6936980171012L411.0218611648231,351.04054702565185A157.5,157.5 0,0,0 440,260.00000000000017L387.5,260.0000000000001A105,105 0,0,1 368.18124077654875,320.6936980171012Z" style="pointer-events: none; stroke-width: 1; fill: rgb(255, 239, 165); fill-opacity: 1; stroke: rgb(0, 0, 0); stroke-opacity: 1;"/><g class="slicetext"><text data-notex="1" class="slicetext" text-anchor="middle" x="0" y="0" style="font-family: 'Times New Roman'; font-size: 12px; fill: rgb(0, 0, 0); fill-opacity: 1; white-space: pre;" transform="translate(415.5697864907012,302.57463892186155)scale(0.6348970400999181)rotate(-72.34376562343755)"><tspan class="line" dy="0em" x="0" y="0">Performance Management</tspan><tspan class="line" dy="1.3em" x="0" y="0">9.81</tspan></text></g></g><g class="slice"><path class="surface" d="M144.83690511173052,183.48122906251496L98.94920681564068,157.97497208335324A210,210 0,0,0 76.95646879911331,303.0332055681437L128.34235159933496,292.27490417610784A157.5,157.5 0,0,1 144.83690511173052,183.48122906251496Z" style="pointer-events: none; stroke-width: 1; fill: rgb(255, 232, 150); fill-opacity: 1; stroke: rgb(0, 0, 0); stroke-opacity: 1; opacity: 1;"/><g class="slicetext"><text data-notex="1" class="slicetext" text-anchor="middle" x="0" y="0" style="font-family: 'Times New Roman'; font-size: 12px; fill: rgb(0, 0, 0); fill-opacity: 1; white-space: pre;" transform="translate(97.48872141505737,231.9498543290338)rotate(-81.37886211378861)"><tspan class="line" dy="0em" x="0" y="0">Emergency Response</tspan><tspan class="line" dy="1.3em" x="0" y="0">11.36</tspan></text></g></g><g class="slice"><path class="surface" d="M128.34235159933496,292.27490417610784L76.95646879911331,303.0332055681437A210,210 0,0,0 105.78814108137868,373.4588864634467L149.96610581103403,345.09416484758503A157.5,157.5 0,0,1 128.34235159933496,292.27490417610784Z" style="pointer-events: none; stroke-width: 1; fill: rgb(255, 255, 204); fill-opacity: 1; stroke: rgb(0, 0, 0); stroke-opacity: 1; opacity: 1;"/><g class="slicetext"><text data-notex="1" class="slicetext" text-anchor="middle" x="0" y="0" style="font-family: 'Times New Roman'; font-size: 12px; fill: rgb(0, 0, 0); fill-opacity: 1; white-space: pre;" transform="translate(109.07345496413731,330.8220676479468)rotate(67.7362263773623)"><tspan class="line" dy="0em" x="0" y="0">Ergonomics</tspan><tspan class="line" dy="1.3em" x="0" y="0">5.8</tspan></text></g></g><g class="slice"><path class="surface" d="M149.96610581103403,345.09416484758503L105.78814108137868,373.4588864634467A210,210 0,0,0 193.12455127535924,450.0316530614548L215.46841345651944,402.52373979609104A157.5,157.5 0,0,1 149.96610581103403,345.09416484758503Z" style="pointer-events: none; stroke-width: 1; fill: rgb(255, 243, 174); fill-opacity: 1; stroke: rgb(0, 0, 0); stroke-opacity: 1; opacity: 1;"/><g class="slicetext"><text data-notex="1" class="slicetext" text-anchor="middle" x="0" y="0" style="font-family: 'Times New Roman'; font-size: 12px; fill: rgb(0, 0, 0); fill-opacity: 1; white-space: pre;" transform="translate(160.5654457672616,399.07459163905446)rotate(41.24287571242883)"><tspan class="line" dy="0em" x="0" y="0">Flexible Scheduling</tspan><tspan class="line" dy="1.3em" x="0" y="0">8.92</tspan></text></g></g><g class="slice"><path class="surface" d="M215.46841345651944,402.52373979609104L193.12455127535924,450.0316530614548A210,210 0,0,0 288.7329517231056,469.9074803641296L287.1747137923292,417.43061027309716A157.5,157.5 0,0,1 215.46841345651944,402.52373979609104Z" style="pointer-events: none; stroke-width: 1; fill: rgb(255, 248, 188); fill-opacity: 1; stroke: rgb(0, 0, 0); stroke-opacity: 1; opacity: 1;"/><g class="slicetext"><text data-notex="1" class="slicetext" text-anchor="middle" x="0" y="0" style="font-family: 'Times New Roman'; font-size: 12px; fill: rgb(0, 0, 0); fill-opacity: 1; white-space: pre;" transform="translate(243.8175012297254,446.0738562691257)scale(0.8149041052183759)rotate(11.743825617438347)"><tspan class="line" dy="0em" x="0" y="0">Employee Assistance</tspan><tspan class="line" dy="1.3em" x="0" y="0">7.47</tspan></text></g></g><g class="slice"><path class="surface" d="M411.0218611648231,351.04054702565185L453.8624815530975,381.3873960342025A210,210 0,0,0 492.5,260.0000000000002L440,260.00000000000017A157.5,157.5 0,0,1 411.0218611648231,351.04054702565185Z" style="pointer-events: none; stroke-width: 1; fill: rgb(255, 239, 165); fill-opacity: 1; stroke: rgb(0, 0, 0); stroke-opacity: 1; opacity: 1;"/><g class="slicetext"><text data-notex="1" class="slicetext" text-anchor="middle" x="0" y="0" style="font-family: 'Times New Roman'; font-size: 12px; fill: rgb(0, 0, 0); fill-opacity: 1; white-space: pre;" transform="translate(452.33130857907366,314.05718000768934)rotate(-72.34376562343755)"><tspan class="line" dy="0em" x="0" y="0">Feedback</tspan><tspan class="line" dy="1.3em" x="0" y="0">9.81</tspan></text></g></g></g></g><g class="glimages"/><defs id="topdefs-5e3dea"><g class="clips"/></defs><g class="layer-above"><g class="imagelayer"/><g class="shapelayer"/></g><g class="infolayer"><g class="cb8b52e7 colorbar" transform="translate(10,50)"><rect class="cbbg" x="571.5" y="63" width="48.015625" height="295" style="fill: rgb(0, 0, 0); fill-opacity: 0; stroke: rgb(68, 68, 68); stroke-opacity: 1; stroke-width: 0;"/><g class="cbfills" transform="translate(0,93)"><rect class="cbfill gradient_filled" style="fill: url('#g5e3dea-cb8b52e7');" x="582" y="0" width="15" height="254"/></g><g class="cblines" transform="translate(0,93)"/><g class="cbaxis crisp" transform="translate(0,-50)"><g class="ycb8b52e7tick"><text text-anchor="start" x="600.4" y="4.199999999999999" transform="translate(0,367.47)" style="font-family: 'Times New Roman'; font-size: 12px; fill: rgb(42, 63, 95); fill-opacity: 1; white-space: pre; opacity: 1;">10</text></g><g class="ycb8b52e7tick"><text text-anchor="start" x="600.4" y="4.199999999999999" style="font-family: 'Times New Roman'; font-size: 12px; fill: rgb(42, 63, 95); fill-opacity: 1; white-space: pre; opacity: 1;" transform="translate(0,332.32000000000005)">15</text></g><g class="ycb8b52e7tick"><text text-anchor="start" x="600.4" y="4.199999999999999" style="font-family: 'Times New Roman'; font-size: 12px; fill: rgb(42, 63, 95); fill-opacity: 1; white-space: pre; opacity: 1;" transform="translate(0,297.1700000000001)">20</text></g><g class="ycb8b52e7tick"><text text-anchor="start" x="600.4" y="4.199999999999999" style="font-family: 'Times New Roman'; font-size: 12px; fill: rgb(42, 63, 95); fill-opacity: 1; white-space: pre; opacity: 1;" transform="translate(0,262.02000000000004)">25</text></g><g class="ycb8b52e7tick"><text text-anchor="start" x="600.4" y="4.199999999999999" style="font-family: 'Times New Roman'; font-size: 12px; fill: rgb(42, 63, 95); fill-opacity: 1; white-space: pre; opacity: 1;" transform="translate(0,226.87000000000006)">30</text></g><g class="ycb8b52e7tick"><text text-anchor="start" x="600.4" y="4.199999999999999" style="font-family: 'Times New Roman'; font-size: 12px; fill: rgb(42, 63, 95); fill-opacity: 1; white-space: pre; opacity: 1;" transform="translate(0,191.72000000000006)">35</text></g><g class="ycb8b52e7tick"><text text-anchor="start" x="600.4" y="4.199999999999999" style="font-family: 'Times New Roman'; font-size: 12px; fill: rgb(42, 63, 95); fill-opacity: 1; white-space: pre; opacity: 1;" transform="translate(0,156.57000000000005)">40</text></g></g><g class="cbtitleunshift" transform="translate(-10,-50)"><g class="cbtitle" transform="translate(-0.5,-0.5)"><text class="ycb8b52e7title" x="592.25" y="135.75" text-anchor="start" style="opacity: 1; font-family: 'Times New Roman'; font-size: 13px; fill: rgb(42, 63, 95); fill-opacity: 1; white-space: pre;">%</text></g></g><rect class="cboutline" x="582" y="93" width="15" height="254" style="stroke: rgb(68, 68, 68); stroke-opacity: 1; fill: none; stroke-width: 1;"/></g><g class="g-gtitle"><text class="gtitle" x="320" y="25" text-anchor="middle" dy="0em" style="opacity: 1; font-family: 'Times New Roman'; font-size: 16px; fill: rgb(42, 63, 95); fill-opacity: 1; white-space: pre;">Employee Distribution by Category (2021) (%)</text></g></g></svg>