<svg class="main-svg" xmlns="http://www.w3.org/2000/svg" xmlns:xlink="http://www.w3.org/1999/xlink" width="1920" height="1440" style="" viewBox="0 0 640 480"><rect x="0" y="0" width="640" height="480" style="fill: rgb(255, 255, 255); fill-opacity: 1;"/><defs id="defs-10c07f"><g class="clips"/><g class="gradients"><linearGradient x1="0" y1="1" x2="0" y2="0" gradientUnits="objectBoundingBox" id="g10c07f-cb2d2da0"><stop offset="0%" stop-color="rgb(255, 245, 240)" stop-opacity="1"/><stop offset="12.5%" stop-color="rgb(254, 224, 210)" stop-opacity="1"/><stop offset="25%" stop-color="rgb(252, 187, 161)" stop-opacity="1"/><stop offset="37.5%" stop-color="rgb(252, 146, 114)" stop-opacity="1"/><stop offset="50%" stop-color="rgb(251, 106, 74)" stop-opacity="1"/><stop offset="62.5%" stop-color="rgb(239, 59, 44)" stop-opacity="1"/><stop offset="75%" stop-color="rgb(203, 24, 29)" stop-opacity="1"/><stop offset="87.5%" stop-color="rgb(165, 15, 21)" stop-opacity="1"/><stop offset="100%" stop-color="rgb(103, 0, 13)" stop-opacity="1"/></linearGradient></g><g class="patterns"/></defs><g class="bglayer"/><g class="layer-below"><g class="imagelayer"/><g class="shapelayer"/></g><g class="cartesianlayer"/><g class="polarlayer"/><g class="smithlayer"/><g class="ternarylayer"/><g class="geolayer"/><g class="funnelarealayer"/><g class="pielayer"/><g class="iciclelayer"/><g class="treemaplayer"/><g class="sunburstlayer"><g class="trace sunburst" stroke-linejoin="round" style="opacity: 1;"><g class="slice"><path class="surface" d="M282.5,260A0,0 0,1,0 282.5,260A0,0 0,1,0 282.5,260ZM324.5,260A42,42 0,1,1 240.5,260A42,42 0,1,1 324.5,260Z" style="pointer-events: none; stroke-width: 1; fill: rgb(255, 255, 255); fill-opacity: 1; stroke: rgb(0, 0, 0); stroke-opacity: 1;"/><g class="slicetext"><text data-notex="1" class="slicetext" text-anchor="middle" x="0" y="0" style="font-family: 'Times New Roman'; font-size: 12px; fill: rgb(0, 0, 0); fill-opacity: 1; white-space: pre;" transform="translate(282.5,264)">100</text></g></g><g class="slice cursor-pointer"><path class="surface" d="M324.5,260L366.5,260A84,84 0,0,0 198.6897636373651,254.3569262950703L240.59488181868255,257.1784631475352A42,42 0,0,1 324.5,260Z" style="pointer-events: none; stroke-width: 1; fill: rgb(103, 0, 13); fill-opacity: 1; stroke: rgb(0, 0, 0); stroke-opacity: 1;"/><g class="slicetext"><text data-notex="1" class="slicetext" text-anchor="middle" x="0" y="0" style="font-family: 'Times New Roman'; font-size: 12px; fill: rgb(0, 0, 0); fill-opacity: 1; white-space: pre;" transform="translate(284.50433482148316,200.3963304875638)scale(0.873203180607061)rotate(1.9259999999999309)"><tspan class="line" dy="0em" x="0" y="0">Workplace Wellbeing</tspan><tspan class="line" dy="1.3em" x="0" y="0">48.93</tspan></text></g></g><g class="slice cursor-pointer"><path class="surface" d="M240.59488181868255,257.1784631475352L198.6897636373651,254.3569262950703A84,84 0,0,0 304.0027983054645,341.2011678797449L293.25139915273223,300.6005839398724A42,42 0,0,1 240.59488181868255,257.1784631475352Z" style="pointer-events: none; stroke-width: 1; fill: rgb(244, 80, 58); fill-opacity: 1; stroke: rgb(0, 0, 0); stroke-opacity: 1;"/><g class="slicetext"><text data-notex="1" class="slicetext" text-anchor="middle" x="0" y="0" style="font-family: 'Times New Roman'; font-size: 12px; fill: rgb(0, 0, 0); fill-opacity: 1; white-space: pre;" transform="translate(248.92322911162296,300.2846305683089)scale(0.8195954923186919)rotate(39.50999999999999)"><tspan class="line" dy="0em" x="0" y="0">Employee Development</tspan><tspan class="line" dy="1.3em" x="0" y="0">30.19</tspan></text></g></g><g class="slice cursor-pointer"><path class="surface" d="M293.25139915273223,300.6005839398724L304.0027983054645,341.2011678797449A84,84 0,0,0 366.5,260L324.5,260A42,42 0,0,1 293.25139915273223,300.6005839398724Z" style="pointer-events: none; stroke-width: 1; fill: rgb(252, 153, 122); fill-opacity: 1; stroke: rgb(0, 0, 0); stroke-opacity: 1;"/><g class="slicetext"><text data-notex="1" class="slicetext" text-anchor="middle" x="0" y="0" style="font-family: 'Times New Roman'; font-size: 12px; fill: rgb(0, 0, 0); fill-opacity: 1; white-space: pre;" transform="translate(330.2046678442966,296.7163222633836)scale(0.7506144291730146)rotate(-52.41599999999994)"><tspan class="line" dy="0em" x="0" y="0">Employee Lifecycle</tspan><tspan class="line" dy="1.3em" x="0" y="0">20.88</tspan></text></g></g><g class="slice cursor-pointer"><path class="surface" d="M366.5,260L408.5,260A126,126 0,0,0 232.24148404174343,144.4574469138159L248.99432269449562,182.97163127587726A84,84 0,0,1 366.5,260Z" style="pointer-events: none; stroke-width: 1; fill: rgb(241, 69, 50); fill-opacity: 1; stroke: rgb(0, 0, 0); stroke-opacity: 1;"/><g class="slicetext"><text data-notex="1" class="slicetext" text-anchor="middle" x="0" y="0" style="font-family: 'Times New Roman'; font-size: 12px; fill: rgb(0, 0, 0); fill-opacity: 1; white-space: pre;" transform="translate(339.5124737763532,173.02828481353131)rotate(33.24599999999998)"><tspan class="line" dy="0em" x="0" y="0">Work-Life Balance</tspan><tspan class="line" dy="1.3em" x="0" y="0">31.53</tspan></text></g></g><g class="slice cursor-pointer"><path class="surface" d="M248.99432269449562,182.97163127587726L232.24148404174343,144.4574469138159A126,126 0,0,0 156.78464545604763,251.5353894426055L198.6897636373651,254.3569262950703A84,84 0,0,1 248.99432269449562,182.97163127587726Z" style="pointer-events: none; stroke-width: 1; fill: rgb(252, 179, 152); fill-opacity: 1; stroke: rgb(0, 0, 0); stroke-opacity: 1;"/><g class="slicetext"><text data-notex="1" class="slicetext" text-anchor="middle" x="0" y="0" style="font-family: 'Times New Roman'; font-size: 12px; fill: rgb(0, 0, 0); fill-opacity: 1; white-space: pre;" transform="translate(196.7498812063326,199.57268210697714)rotate(-54.827999999999975)"><tspan class="line" dy="0em" x="0" y="0">Health &amp; Safety</tspan><tspan class="line" dy="1.3em" x="0" y="0">17.4</tspan></text></g></g><g class="slice"><path class="surface" d="M198.6897636373651,254.3569262950703L156.78464545604763,251.5353894426055A126,126 0,0,0 314.75419745819676,381.8017518196173L304.0027983054645,341.2011678797449A84,84 0,0,1 198.6897636373651,254.3569262950703Z" style="pointer-events: none; stroke-width: 1; fill: rgb(244, 80, 58); fill-opacity: 1; stroke: rgb(0, 0, 0); stroke-opacity: 1; opacity: 1;"/><g class="slicetext"><text data-notex="1" class="slicetext" text-anchor="middle" x="0" y="0" style="font-family: 'Times New Roman'; font-size: 12px; fill: rgb(0, 0, 0); fill-opacity: 1; white-space: pre;" transform="translate(221.98934545271374,332.9183874947612)scale(0.8934783017353978)rotate(39.50999999999999)"><tspan class="line" dy="0em" x="0" y="0">Performance Management</tspan><tspan class="line" dy="1.3em" x="0" y="0">30.19</tspan></text></g></g><g class="slice cursor-pointer"><path class="surface" d="M304.0027983054645,341.2011678797449L314.75419745819676,381.8017518196173A126,126 0,0,0 392.4924729056572,321.4626382780488L355.8283152704381,300.97509218536584A84,84 0,0,1 304.0027983054645,341.2011678797449Z" style="pointer-events: none; stroke-width: 1; fill: rgb(253, 212, 193); fill-opacity: 1; stroke: rgb(0, 0, 0); stroke-opacity: 1;"/><g class="slicetext"><text data-notex="1" class="slicetext" text-anchor="middle" x="0" y="0" style="font-family: 'Times New Roman'; font-size: 12px; fill: rgb(0, 0, 0); fill-opacity: 1; white-space: pre;" transform="translate(343.0804789558973,338.58438187942653)rotate(-37.817999999999984)"><tspan class="line" dy="0em" x="0" y="0">Recruitment</tspan><tspan class="line" dy="1.3em" x="0" y="0">12.77</tspan></text></g></g><g class="slice"><path class="surface" d="M355.8283152704381,300.97509218536584L392.4924729056572,321.4626382780488A126,126 0,0,0 408.5,260.00000000000006L366.5,260A84,84 0,0,1 355.8283152704381,300.97509218536584Z" style="pointer-events: none; stroke-width: 1; fill: rgb(255, 235, 226); fill-opacity: 1; stroke: rgb(0, 0, 0); stroke-opacity: 1; opacity: 1;"/><g class="slicetext"><text data-notex="1" class="slicetext" text-anchor="middle" x="0" y="0" style="font-family: 'Times New Roman'; font-size: 12px; fill: rgb(0, 0, 0); fill-opacity: 1; white-space: pre;" transform="translate(386.21597822998297,287.01212278135597)scale(0.8416269106402465)rotate(-75.40200000000004)"><tspan class="line" dy="0em" x="0" y="0">Onboarding</tspan><tspan class="line" dy="1.3em" x="0" y="0">8.11</tspan></text></g></g><g class="slice cursor-pointer"><path class="surface" d="M408.5,260L450.5,260A168,168 0,0,0 288.9374319433911,92.12338021637973L287.3280739575433,134.09253516228478A126,126 0,0,1 408.5,260Z" style="pointer-events: none; stroke-width: 1; fill: rgb(252, 127, 95); fill-opacity: 1; stroke: rgb(0, 0, 0); stroke-opacity: 1;"/><g class="slicetext"><text data-notex="1" class="slicetext" text-anchor="middle" x="0" y="0" style="font-family: 'Times New Roman'; font-size: 12px; fill: rgb(0, 0, 0); fill-opacity: 1; white-space: pre;" transform="translate(387.7983995902229,158.66200622829507)rotate(46.097999999999956)"><tspan class="line" dy="0em" x="0" y="0">Employee Assistance</tspan><tspan class="line" dy="1.3em" x="0" y="0">24.39</tspan></text></g></g><g class="slice"><path class="surface" d="M287.3280739575433,134.09253516228478L288.9374319433911,92.12338021637973A168,168 0,0,0 215.48864538899124,105.94326255175454L232.24148404174343,144.4574469138159A126,126 0,0,1 287.3280739575433,134.09253516228478Z" style="pointer-events: none; stroke-width: 1; fill: rgb(255, 239, 231); fill-opacity: 1; stroke: rgb(0, 0, 0); stroke-opacity: 1; opacity: 1;"/><g class="slicetext"><text data-notex="1" class="slicetext" text-anchor="middle" x="0" y="0" style="font-family: 'Times New Roman'; font-size: 12px; fill: rgb(0, 0, 0); fill-opacity: 1; white-space: pre;" transform="translate(253.44026082342938,105.55566188555562)scale(0.659936779130413)rotate(-10.655999999999949)"><tspan class="line" dy="0em" x="0" y="0">Flexible Scheduling</tspan><tspan class="line" dy="1.3em" x="0" y="0">7.14</tspan></text></g></g><g class="slice cursor-pointer"><path class="surface" d="M232.24148404174343,144.4574469138159L215.48864538899124,105.94326255175454A168,168 0,0,0 114.87952727473018,248.71385259014065L156.78464545604763,251.5353894426055A126,126 0,0,1 232.24148404174343,144.4574469138159Z" style="pointer-events: none; stroke-width: 1; fill: rgb(252, 179, 152); fill-opacity: 1; stroke: rgb(0, 0, 0); stroke-opacity: 1;"/><g class="slicetext"><text data-notex="1" class="slicetext" text-anchor="middle" x="0" y="0" style="font-family: 'Times New Roman'; font-size: 12px; fill: rgb(0, 0, 0); fill-opacity: 1; white-space: pre;" transform="translate(163.0606389278374,175.83218376858844)rotate(-54.827999999999975)"><tspan class="line" dy="0em" x="0" y="0">Emergency Response</tspan><tspan class="line" dy="1.3em" x="0" y="0">17.4</tspan></text></g></g><g class="slice"><path class="surface" d="M314.75419745819676,381.8017518196173L325.50559661092905,422.4023357594898A168,168 0,0,0 392.16808094002613,387.26708931586313L364.7510607050196,355.45031698689735A126,126 0,0,1 314.75419745819676,381.8017518196173Z" style="pointer-events: none; stroke-width: 1; fill: rgb(255, 238, 231); fill-opacity: 1; stroke: rgb(0, 0, 0); stroke-opacity: 1; opacity: 1;"/><g class="slicetext"><text data-notex="1" class="slicetext" text-anchor="middle" x="0" y="0" style="font-family: 'Times New Roman'; font-size: 12px; fill: rgb(0, 0, 0); fill-opacity: 1; white-space: pre;" transform="translate(353.71489000620215,395.11678355960333)scale(0.6231132691693694)rotate(-27.79200000000003)"><tspan class="line" dy="0em" x="0" y="0">Candidate Evaluation</tspan><tspan class="line" dy="1.3em" x="0" y="0">7.2</tspan></text></g></g><g class="slice"><path class="surface" d="M364.7510607050196,355.45031698689735L392.16808094002613,387.26708931586313A168,168 0,0,0 429.1566305408762,341.95018437073173L392.4924729056572,321.4626382780488A126,126 0,0,1 364.7510607050196,355.45031698689735Z" style="pointer-events: none; stroke-width: 1; fill: rgb(255, 245, 240); fill-opacity: 1; stroke: rgb(0, 0, 0); stroke-opacity: 1; opacity: 1;"/><g class="slicetext"><text data-notex="1" class="slicetext" text-anchor="middle" x="0" y="0" style="font-family: 'Times New Roman'; font-size: 12px; fill: rgb(0, 0, 0); fill-opacity: 1; white-space: pre;" transform="translate(398.53116253547347,354.7069182214474)scale(0.8564606847374)rotate(-50.77800000000002)"><tspan class="line" dy="0em" x="0" y="0">Job Posting</tspan><tspan class="line" dy="1.3em" x="0" y="0">5.57</tspan></text></g></g><g class="slice"><path class="surface" d="M450.5,260L492.5,260A210,210 0,0,0 426.2548922450246,106.91658824150358L397.5039137960197,137.53327059320287A168,168 0,0,1 450.5,260Z" style="pointer-events: none; stroke-width: 1; fill: rgb(253, 210, 191); fill-opacity: 1; stroke: rgb(0, 0, 0); stroke-opacity: 1; opacity: 1;"/><g class="slicetext"><text data-notex="1" class="slicetext" text-anchor="middle" x="0" y="0" style="font-family: 'Times New Roman'; font-size: 12px; fill: rgb(0, 0, 0); fill-opacity: 1; white-space: pre;" transform="translate(455.8682667541127,184.7980865332418)rotate(66.60000000000002)"><tspan class="line" dy="0em" x="0" y="0">Counseling Services</tspan><tspan class="line" dy="1.3em" x="0" y="0">13</tspan></text></g></g><g class="slice"><path class="surface" d="M397.5039137960197,137.53327059320287L426.2548922450246,106.91658824150358A210,210 0,0,0 361.2761181445443,65.3353570622626L345.52089451563546,104.26828564981008A168,168 0,0,1 397.5039137960197,137.53327059320287Z" style="pointer-events: none; stroke-width: 1; fill: rgb(255, 244, 238); fill-opacity: 1; stroke: rgb(0, 0, 0); stroke-opacity: 1; opacity: 1;"/><g class="slicetext"><text data-notex="1" class="slicetext" text-anchor="middle" x="0" y="0" style="font-family: 'Times New Roman'; font-size: 12px; fill: rgb(0, 0, 0); fill-opacity: 1; white-space: pre;" transform="translate(389.5230531611156,92.53138045757952)scale(0.7367441090759916)rotate(32.615999999999985)"><tspan class="line" dy="0em" x="0" y="0">Financial Wellness</tspan><tspan class="line" dy="1.3em" x="0" y="0">5.88</tspan></text></g></g><g class="slice"><path class="surface" d="M345.52089451563546,104.26828564981008L361.2761181445443,65.3353570622626A210,210 0,0,0 290.5467899292389,50.154225270474655L288.9374319433911,92.12338021637973A168,168 0,0,1 345.52089451563546,104.26828564981008Z" style="pointer-events: none; stroke-width: 1; fill: rgb(255, 245, 240); fill-opacity: 1; stroke: rgb(0, 0, 0); stroke-opacity: 1; opacity: 1;"/><g class="slicetext"><text data-notex="1" class="slicetext" text-anchor="middle" x="0" y="0" style="font-family: 'Times New Roman'; font-size: 12px; fill: rgb(0, 0, 0); fill-opacity: 1; white-space: pre;" transform="translate(324.35364521385895,64.48940790380682)scale(0.6565259271162682)rotate(12.114000000000033)"><tspan class="line" dy="0em" x="0" y="0">Mental Health Days</tspan><tspan class="line" dy="1.3em" x="0" y="0">5.51</tspan></text></g></g><g class="slice"><path class="surface" d="M215.48864538899124,105.94326255175454L198.73580673623906,67.42907818969317A210,210 0,0,0 90.72707805621786,174.42461563542906L129.0816624449743,191.53969250834325A168,168 0,0,1 215.48864538899124,105.94326255175454Z" style="pointer-events: none; stroke-width: 1; fill: rgb(254, 218, 202); fill-opacity: 1; stroke: rgb(0, 0, 0); stroke-opacity: 1; opacity: 1;"/><g class="slicetext"><text data-notex="1" class="slicetext" text-anchor="middle" x="0" y="0" style="font-family: 'Times New Roman'; font-size: 12px; fill: rgb(0, 0, 0); fill-opacity: 1; white-space: pre;" transform="translate(147.83098716857003,124.05574273699875)rotate(-44.73000000000002)"><tspan class="line" dy="0em" x="0" y="0">Fire Safety</tspan><tspan class="line" dy="1.3em" x="0" y="0">11.79</tspan></text></g></g><g class="slice"><path class="surface" d="M129.0816624449743,191.53969250834325L90.72707805621786,174.42461563542906A210,210 0,0,0 72.97440909341273,245.8923157376758L114.87952727473018,248.71385259014065A168,168 0,0,1 129.0816624449743,191.53969250834325Z" style="pointer-events: none; stroke-width: 1; fill: rgb(255, 245, 239); fill-opacity: 1; stroke: rgb(0, 0, 0); stroke-opacity: 1; opacity: 1;"/><g class="slicetext"><text data-notex="1" class="slicetext" text-anchor="middle" x="0" y="0" style="font-family: 'Times New Roman'; font-size: 12px; fill: rgb(0, 0, 0); fill-opacity: 1; white-space: pre;" transform="translate(89.51755762153368,212.19642467046523)scale(0.7538893023564246)rotate(-76.04999999999995)"><tspan class="line" dy="0em" x="0" y="0">Evacuation Drills</tspan><tspan class="line" dy="1.3em" x="0" y="0">5.61</tspan></text></g></g></g></g><g class="glimages"/><defs id="topdefs-10c07f"><g class="clips"/></defs><g class="layer-above"><g class="imagelayer"/><g class="shapelayer"/></g><g class="infolayer"><g class="cb2d2da0 colorbar" transform="translate(10,50)"><rect class="cbbg" x="571.5" y="63" width="48.015625" height="295" style="fill: rgb(0, 0, 0); fill-opacity: 0; stroke: rgb(68, 68, 68); stroke-opacity: 1; stroke-width: 0;"/><g class="cbfills" transform="translate(0,93)"><rect class="cbfill gradient_filled" style="fill: url('#g10c07f-cb2d2da0');" x="582" y="0" width="15" height="254"/></g><g class="cblines" transform="translate(0,93)"/><g class="cbaxis crisp" transform="translate(0,-50)"><g class="ycb2d2da0tick"><text text-anchor="start" x="600.4" y="4.199999999999999" transform="translate(0,370.73)" style="font-family: 'Times New Roman'; font-size: 12px; fill: rgb(42, 63, 95); fill-opacity: 1; white-space: pre; opacity: 1;">10</text></g><g class="ycb2d2da0tick"><text text-anchor="start" x="600.4" y="4.199999999999999" style="font-family: 'Times New Roman'; font-size: 12px; fill: rgb(42, 63, 95); fill-opacity: 1; white-space: pre; opacity: 1;" transform="translate(0,312.24000000000007)">20</text></g><g class="ycb2d2da0tick"><text text-anchor="start" x="600.4" y="4.199999999999999" style="font-family: 'Times New Roman'; font-size: 12px; fill: rgb(42, 63, 95); fill-opacity: 1; white-space: pre; opacity: 1;" transform="translate(0,253.74000000000007)">30</text></g><g class="ycb2d2da0tick"><text text-anchor="start" x="600.4" y="4.199999999999999" style="font-family: 'Times New Roman'; font-size: 12px; fill: rgb(42, 63, 95); fill-opacity: 1; white-space: pre; opacity: 1;" transform="translate(0,195.24000000000007)">40</text></g></g><g class="cbtitleunshift" transform="translate(-10,-50)"><g class="cbtitle" transform="translate(-0.5,-0.5)"><text class="ycb2d2da0title" x="592.25" y="135.75" text-anchor="start" style="opacity: 1; font-family: 'Times New Roman'; font-size: 13px; fill: rgb(42, 63, 95); fill-opacity: 1; white-space: pre;">%</text></g></g><rect class="cboutline" x="582" y="93" width="15" height="254" style="stroke: rgb(68, 68, 68); stroke-opacity: 1; fill: none; stroke-width: 1;"/></g><g class="g-gtitle"><text class="gtitle" x="320" y="25" text-anchor="middle" dy="0em" style="opacity: 1; font-family: 'Times New Roman'; font-size: 16px; fill: rgb(42, 63, 95); fill-opacity: 1; white-space: pre;">Employee Distribution by Category (2021) (%)</text></g></g></svg>