<svg class="main-svg" xmlns="http://www.w3.org/2000/svg" xmlns:xlink="http://www.w3.org/1999/xlink" width="1920" height="1440" style="" viewBox="0 0 640 480"><rect x="0" y="0" width="640" height="480" style="fill: rgb(255, 255, 255); fill-opacity: 1;"/><defs id="defs-1bfe3a"><g class="clips"/><g class="gradients"><linearGradient x1="0" y1="1" x2="0" y2="0" gradientUnits="objectBoundingBox" id="g1bfe3a-cb417cf2"><stop offset="0%" stop-color="rgb(255, 245, 235)" stop-opacity="1"/><stop offset="12.5%" stop-color="rgb(254, 230, 206)" stop-opacity="1"/><stop offset="25%" stop-color="rgb(253, 208, 162)" stop-opacity="1"/><stop offset="37.5%" stop-color="rgb(253, 174, 107)" stop-opacity="1"/><stop offset="50%" stop-color="rgb(253, 141, 60)" stop-opacity="1"/><stop offset="62.5%" stop-color="rgb(241, 105, 19)" stop-opacity="1"/><stop offset="75%" stop-color="rgb(217, 72, 1)" stop-opacity="1"/><stop offset="87.5%" stop-color="rgb(166, 54, 3)" stop-opacity="1"/><stop offset="100%" stop-color="rgb(127, 39, 4)" stop-opacity="1"/></linearGradient></g><g class="patterns"/></defs><g class="bglayer"/><g class="layer-below"><g class="imagelayer"/><g class="shapelayer"/></g><g class="cartesianlayer"/><g class="polarlayer"/><g class="smithlayer"/><g class="ternarylayer"/><g class="geolayer"/><g class="funnelarealayer"/><g class="pielayer"/><g class="iciclelayer"/><g class="treemaplayer"/><g class="sunburstlayer"><g class="trace sunburst" stroke-linejoin="round" style="opacity: 1;"><g class="slice"><path class="surface" d="M282.5,260A0,0 0,1,0 282.5,260A0,0 0,1,0 282.5,260ZM324.5,260A42,42 0,1,1 240.5,260A42,42 0,1,1 324.5,260Z" style="pointer-events: none; stroke-width: 1; fill: rgb(255, 255, 255); fill-opacity: 1; stroke: rgb(0, 0, 0); stroke-opacity: 1;"/><g class="slicetext"><text data-notex="1" class="slicetext" text-anchor="middle" x="0" y="0" style="font-family: 'Times New Roman'; font-size: 12px; fill: rgb(0, 0, 0); fill-opacity: 1; white-space: pre;" transform="translate(282.5,264)">99.99</text></g></g><g class="slice cursor-pointer"><path class="surface" d="M324.5,260L366.5,260A84,84 0,1,0 200.8275545215652,279.6369969591099L241.66377726078258,269.818498479555A42,42 0,1,1 324.5,260Z" style="pointer-events: none; stroke-width: 1; fill: rgb(127, 39, 4); fill-opacity: 1; stroke: rgb(0, 0, 0); stroke-opacity: 1;"/><g class="slicetext"><text data-notex="1" class="slicetext" text-anchor="middle" x="0" y="0" style="font-family: 'Times New Roman'; font-size: 12px; fill: rgb(0, 0, 0); fill-opacity: 1; white-space: pre;" transform="translate(275.48037834816733,200.77720295959125)scale(0.873203180607061)rotate(-6.759675967596763)"><tspan class="line" dy="0em" x="0" y="0">Workplace Wellbeing</tspan><tspan class="line" dy="1.3em" x="0" y="0">53.75</tspan></text></g></g><g class="slice cursor-pointer"><path class="surface" d="M241.66377726078258,269.818498479555L200.8275545215652,279.6369969591099A84,84 0,0,0 293.1730344509627,343.3191834790078L287.8365172254814,301.65959173950387A42,42 0,0,1 241.66377726078258,269.818498479555Z" style="pointer-events: none; stroke-width: 1; fill: rgb(253, 178, 114); fill-opacity: 1; stroke: rgb(0, 0, 0); stroke-opacity: 1;"/><g class="slicetext"><text data-notex="1" class="slicetext" text-anchor="middle" x="0" y="0" style="font-family: 'Times New Roman'; font-size: 12px; fill: rgb(0, 0, 0); fill-opacity: 1; white-space: pre;" transform="translate(249.0896557411564,308.0299550756584)scale(0.7069842874276088)rotate(34.590459045904595)"><tspan class="line" dy="0em" x="0" y="0">Employee Development</tspan><tspan class="line" dy="1.3em" x="0" y="0">23.27</tspan></text></g></g><g class="slice cursor-pointer"><path class="surface" d="M287.8365172254814,301.65959173950387L293.1730344509627,343.3191834790078A84,84 0,0,0 366.5,260L324.5,260A42,42 0,0,1 287.8365172254814,301.65959173950387Z" style="pointer-events: none; stroke-width: 1; fill: rgb(253, 180, 117); fill-opacity: 1; stroke: rgb(0, 0, 0); stroke-opacity: 1;"/><g class="slicetext"><text data-notex="1" class="slicetext" text-anchor="middle" x="0" y="0" style="font-family: 'Times New Roman'; font-size: 12px; fill: rgb(0, 0, 0); fill-opacity: 1; white-space: pre;" transform="translate(325.87707307389235,298.17499176175625)scale(0.8054678643867719)rotate(-48.64986498649864)"><tspan class="line" dy="0em" x="0" y="0">Employee Lifecycle</tspan><tspan class="line" dy="1.3em" x="0" y="0">22.97</tspan></text></g></g><g class="slice cursor-pointer"><path class="surface" d="M366.5,260L408.5,260A126,126 0,0,0 236.53547717763107,142.68306754047853L251.85698478508738,181.78871169365235A84,84 0,0,1 366.5,260Z" style="pointer-events: none; stroke-width: 1; fill: rgb(251, 135, 53); fill-opacity: 1; stroke: rgb(0, 0, 0); stroke-opacity: 1;"/><g class="slicetext"><text data-notex="1" class="slicetext" text-anchor="middle" x="0" y="0" style="font-family: 'Times New Roman'; font-size: 12px; fill: rgb(0, 0, 0); fill-opacity: 1; white-space: pre;" transform="translate(341.6189915171958,173.34269527118764)rotate(34.30243024302433)"><tspan class="line" dy="0em" x="0" y="0">Health &amp; Safety</tspan><tspan class="line" dy="1.3em" x="0" y="0">30.94</tspan></text></g></g><g class="slice cursor-pointer"><path class="surface" d="M251.85698478508738,181.78871169365235L236.53547717763107,142.68306754047853A126,126 0,0,0 159.9913317823478,289.45549543866497L200.8275545215652,279.63699695911A84,84 0,0,1 251.85698478508738,181.78871169365235Z" style="pointer-events: none; stroke-width: 1; fill: rgb(253, 181, 118); fill-opacity: 1; stroke: rgb(0, 0, 0); stroke-opacity: 1;"/><g class="slicetext"><text data-notex="1" class="slicetext" text-anchor="middle" x="0" y="0" style="font-family: 'Times New Roman'; font-size: 12px; fill: rgb(0, 0, 0); fill-opacity: 1; white-space: pre;" transform="translate(190.29312151898318,211.91265271027532)rotate(-62.45724572457243)"><tspan class="line" dy="0em" x="0" y="0">Work-Life Balance</tspan><tspan class="line" dy="1.3em" x="0" y="0">22.81</tspan></text></g></g><g class="slice"><path class="surface" d="M200.8275545215652,279.6369969591099L159.99133178234777,289.4554954386649A126,126 0,0,0 298.50955167644406,384.97877521851166L293.1730344509627,343.3191834790078A84,84 0,0,1 200.8275545215652,279.6369969591099Z" style="pointer-events: none; stroke-width: 1; fill: rgb(253, 178, 114); fill-opacity: 1; stroke: rgb(0, 0, 0); stroke-opacity: 1; opacity: 1;"/><g class="slicetext"><text data-notex="1" class="slicetext" text-anchor="middle" x="0" y="0" style="font-family: 'Times New Roman'; font-size: 12px; fill: rgb(0, 0, 0); fill-opacity: 1; white-space: pre;" transform="translate(227.58397045431926,339.34469211374466)rotate(34.590459045904595)"><tspan class="line" dy="0em" x="0" y="0">Training Programs</tspan><tspan class="line" dy="1.3em" x="0" y="0">23.27</tspan></text></g></g><g class="slice"><path class="surface" d="M293.1730344509627,343.3191834790078L298.50955167644406,384.97877521851166A126,126 0,0,0 396.77412442401805,313.07941679336767L358.682749616012,295.3862778622451A84,84 0,0,1 293.1730344509627,343.3191834790078Z" style="pointer-events: none; stroke-width: 1; fill: rgb(253, 215, 177); fill-opacity: 1; stroke: rgb(0, 0, 0); stroke-opacity: 1; opacity: 1;"/><g class="slicetext"><text data-notex="1" class="slicetext" text-anchor="middle" x="0" y="0" style="font-family: 'Times New Roman'; font-size: 12px; fill: rgb(0, 0, 0); fill-opacity: 1; white-space: pre;" transform="translate(340.77804422018335,339.64837574764596)rotate(-36.19261926192621)"><tspan class="line" dy="0em" x="0" y="0">Onboarding</tspan><tspan class="line" dy="1.3em" x="0" y="0">16.05</tspan></text></g></g><g class="slice cursor-pointer"><path class="surface" d="M358.682749616012,295.3862778622451L396.77412442401805,313.07941679336767A126,126 0,0,0 408.5,260.00000000000006L366.5,260A84,84 0,0,1 358.682749616012,295.3862778622451Z" style="pointer-events: none; stroke-width: 1; fill: rgb(255, 243, 231); fill-opacity: 1; stroke: rgb(0, 0, 0); stroke-opacity: 1;"/><g class="slicetext"><text data-notex="1" class="slicetext" text-anchor="middle" x="0" y="0" style="font-family: 'Times New Roman'; font-size: 12px; fill: rgb(0, 0, 0); fill-opacity: 1; white-space: pre;" transform="translate(390.0399287985101,283.9967527626917)scale(0.7139147807463033)rotate(-77.54275427542757)"><tspan class="line" dy="0em" x="0" y="0">Recruitment</tspan><tspan class="line" dy="1.3em" x="0" y="0">6.92</tspan></text></g></g><g class="slice cursor-pointer"><path class="surface" d="M408.5,260L450.5,260A168,168 0,0,0 325.5863337288115,97.61906563327861L314.8147502966086,138.21429922495895A126,126 0,0,1 408.5,260Z" style="pointer-events: none; stroke-width: 1; fill: rgb(253, 192, 136); fill-opacity: 1; stroke: rgb(0, 0, 0); stroke-opacity: 1;"/><g class="slicetext"><text data-notex="1" class="slicetext" text-anchor="middle" x="0" y="0" style="font-family: 'Times New Roman'; font-size: 12px; fill: rgb(0, 0, 0); fill-opacity: 1; white-space: pre;" transform="translate(398.3134979714975,170.90894573473133)rotate(52.4302430243024)"><tspan class="line" dy="0em" x="0" y="0">Emergency Response</tspan><tspan class="line" dy="1.3em" x="0" y="0">20.87</tspan></text></g></g><g class="slice"><path class="surface" d="M314.8147502966086,138.21429922495895L325.5863337288115,97.61906563327861A168,168 0,0,0 221.21396957017475,103.57742338730469L236.53547717763107,142.68306754047853A126,126 0,0,1 314.8147502966086,138.21429922495895Z" style="pointer-events: none; stroke-width: 1; fill: rgb(254, 235, 216); fill-opacity: 1; stroke: rgb(0, 0, 0); stroke-opacity: 1; opacity: 1;"/><g class="slicetext"><text data-notex="1" class="slicetext" text-anchor="middle" x="0" y="0" style="font-family: 'Times New Roman'; font-size: 12px; fill: rgb(0, 0, 0); fill-opacity: 1; white-space: pre;" transform="translate(273.85740215006354,111.48644382300333)rotate(-3.2673267326732685)"><tspan class="line" dy="0em" x="0" y="0">Ergonomics</tspan><tspan class="line" dy="1.3em" x="0" y="0">10.07</tspan></text></g></g><g class="slice cursor-pointer"><path class="surface" d="M236.53547717763107,142.68306754047853L221.21396957017475,103.57742338730469A168,168 0,0,0 117.32979278248624,229.29490843974637L158.62234458686467,236.97118132980978A126,126 0,0,1 236.53547717763107,142.68306754047853Z" style="pointer-events: none; stroke-width: 1; fill: rgb(253, 215, 176); fill-opacity: 1; stroke: rgb(0, 0, 0); stroke-opacity: 1;"/><g class="slicetext"><text data-notex="1" class="slicetext" text-anchor="middle" x="0" y="0" style="font-family: 'Times New Roman'; font-size: 12px; fill: rgb(0, 0, 0); fill-opacity: 1; white-space: pre;" transform="translate(169.55346594866168,166.66884796453357)rotate(-50.432043204320394)"><tspan class="line" dy="0em" x="0" y="0">Flexible Scheduling</tspan><tspan class="line" dy="1.3em" x="0" y="0">16.13</tspan></text></g></g><g class="slice"><path class="surface" d="M158.62234458686467,236.97118132980978L117.32979278248624,229.29490843974637A168,168 0,0,0 119.15510904313038,299.27399391821996L159.9913317823478,289.45549543866497A126,126 0,0,1 158.62234458686467,236.97118132980978Z" style="pointer-events: none; stroke-width: 1; fill: rgb(255, 244, 232); fill-opacity: 1; stroke: rgb(0, 0, 0); stroke-opacity: 1; opacity: 1;"/><g class="slicetext"><text data-notex="1" class="slicetext" text-anchor="middle" x="0" y="0" style="font-family: 'Times New Roman'; font-size: 12px; fill: rgb(0, 0, 0); fill-opacity: 1; white-space: pre;" transform="translate(128.70232337362634,264.01161858683867)scale(0.5865812187214571)rotate(88.50585058505851)"><tspan class="line" dy="0em" x="0" y="0">Employee Assistance</tspan><tspan class="line" dy="1.3em" x="0" y="0">6.68</tspan></text></g></g><g class="slice"><path class="surface" d="M396.77412442401805,313.07941679336767L434.86549923202404,330.77255572449025A168,168 0,0,0 450.5,260.00000000000006L408.5,260.00000000000006A126,126 0,0,1 396.77412442401805,313.07941679336767Z" style="pointer-events: none; stroke-width: 1; fill: rgb(255, 243, 231); fill-opacity: 1; stroke: rgb(0, 0, 0); stroke-opacity: 1; opacity: 1;"/><g class="slicetext"><text data-notex="1" class="slicetext" text-anchor="middle" x="0" y="0" style="font-family: 'Times New Roman'; font-size: 12px; fill: rgb(0, 0, 0); fill-opacity: 1; white-space: pre;" transform="translate(432.2570912988691,293.08312572512904)scale(0.6017645575933701)rotate(-77.54275427542757)"><tspan class="line" dy="0em" x="0" y="0">Candidate Evaluation</tspan><tspan class="line" dy="1.3em" x="0" y="0">6.92</tspan></text></g></g><g class="slice"><path class="surface" d="M450.5,260L492.5,260A210,210 0,0,0 470.90706735476954,167.2488438305197L433.22565388381565,185.79907506441577A168,168 0,0,1 450.5,260Z" style="pointer-events: none; stroke-width: 1; fill: rgb(255, 242, 230); fill-opacity: 1; stroke: rgb(0, 0, 0); stroke-opacity: 1; opacity: 1;"/><g class="slicetext"><text data-notex="1" class="slicetext" text-anchor="middle" x="0" y="0" style="font-family: 'Times New Roman'; font-size: 12px; fill: rgb(0, 0, 0); fill-opacity: 1; white-space: pre;" transform="translate(468.8707639021832,216.61195484586122)rotate(76.89468946894681)"><tspan class="line" dy="0em" x="0" y="0">Fire Safety</tspan><tspan class="line" dy="1.3em" x="0" y="0">7.28</tspan></text></g></g><g class="slice"><path class="surface" d="M433.22565388381565,185.79907506441577L470.90706735476954,167.2488438305197A210,210 0,0,0 413.27066943105615,95.68617825467805L387.11653554484496,128.54894260374246A168,168 0,0,1 433.22565388381565,185.79907506441577Z" style="pointer-events: none; stroke-width: 1; fill: rgb(255, 243, 231); fill-opacity: 1; stroke: rgb(0, 0, 0); stroke-opacity: 1; opacity: 1;"/><g class="slicetext"><text data-notex="1" class="slicetext" text-anchor="middle" x="0" y="0" style="font-family: 'Times New Roman'; font-size: 12px; fill: rgb(0, 0, 0); fill-opacity: 1; white-space: pre;" transform="translate(434.8311695407406,137.11043740675697)scale(0.9171619791618792)rotate(51.15211521152116)"><tspan class="line" dy="0em" x="0" y="0">Evacuation Drills</tspan><tspan class="line" dy="1.3em" x="0" y="0">7.02</tspan></text></g></g><g class="slice"><path class="surface" d="M387.11653554484496,128.54894260374246L413.27066943105615,95.68617825467805A210,210 0,0,0 336.35791716101437,57.02383204159827L325.5863337288115,97.61906563327861A168,168 0,0,1 387.11653554484496,128.54894260374246Z" style="pointer-events: none; stroke-width: 1; fill: rgb(255, 244, 233); fill-opacity: 1; stroke: rgb(0, 0, 0); stroke-opacity: 1; opacity: 1;"/><g class="slicetext"><text data-notex="1" class="slicetext" text-anchor="middle" x="0" y="0" style="font-family: 'Times New Roman'; font-size: 12px; fill: rgb(0, 0, 0); fill-opacity: 1; white-space: pre;" transform="translate(370.9412293565735,84.05986624632656)scale(0.8463580509307909)rotate(26.68766876687664)"><tspan class="line" dy="0em" x="0" y="0">First Aid Training</tspan><tspan class="line" dy="1.3em" x="0" y="0">6.57</tspan></text></g></g><g class="slice"><path class="surface" d="M221.21396957017475,103.57742338730469L205.89246196271844,64.47177923413085A210,210 0,0,0 105.80109532098635,146.52093988212255L141.14087625678908,169.21675190569803A168,168 0,0,1 221.21396957017475,103.57742338730469Z" style="pointer-events: none; stroke-width: 1; fill: rgb(254, 235, 216); fill-opacity: 1; stroke: rgb(0, 0, 0); stroke-opacity: 1; opacity: 1;"/><g class="slicetext"><text data-notex="1" class="slicetext" text-anchor="middle" x="0" y="0" style="font-family: 'Times New Roman'; font-size: 12px; fill: rgb(0, 0, 0); fill-opacity: 1; white-space: pre;" transform="translate(162.1722051972119,113.4715059889623)rotate(-39.34293429342938)"><tspan class="line" dy="0em" x="0" y="0">Compressed Weeks</tspan><tspan class="line" dy="1.3em" x="0" y="0">9.97</tspan></text></g></g><g class="slice"><path class="surface" d="M141.14087625678908,169.21675190569803L105.80109532098635,146.52093988212255A210,210 0,0,0 76.03724097810777,221.61863554968295L117.32979278248624,229.29490843974637A168,168 0,0,1 141.14087625678908,169.21675190569803Z" style="pointer-events: none; stroke-width: 1; fill: rgb(255, 245, 235); fill-opacity: 1; stroke: rgb(0, 0, 0); stroke-opacity: 1; opacity: 1;"/><g class="slicetext"><text data-notex="1" class="slicetext" text-anchor="middle" x="0" y="0" style="font-family: 'Times New Roman'; font-size: 12px; fill: rgb(0, 0, 0); fill-opacity: 1; white-space: pre;" transform="translate(100.65250748307517,187.92745194404876)rotate(-68.37983798379844)"><tspan class="line" dy="0em" x="0" y="0">Remote Work</tspan><tspan class="line" dy="1.3em" x="0" y="0">6.16</tspan></text></g></g></g></g><g class="glimages"/><defs id="topdefs-1bfe3a"><g class="clips"/></defs><g class="layer-above"><g class="imagelayer"/><g class="shapelayer"/></g><g class="infolayer"><g class="cb417cf2 colorbar" transform="translate(10,50)"><rect class="cbbg" x="571.5" y="63" width="48.015625" height="295" style="fill: rgb(0, 0, 0); fill-opacity: 0; stroke: rgb(68, 68, 68); stroke-opacity: 1; stroke-width: 0;"/><g class="cbfills" transform="translate(0,93)"><rect class="cbfill gradient_filled" style="fill: url('#g1bfe3a-cb417cf2');" x="582" y="0" width="15" height="254"/></g><g class="cblines" transform="translate(0,93)"/><g class="cbaxis crisp" transform="translate(0,-50)"><g class="ycb417cf2tick"><text text-anchor="start" x="600.4" y="4.199999999999999" transform="translate(0,376.50000000000006)" style="font-family: 'Times New Roman'; font-size: 12px; fill: rgb(42, 63, 95); fill-opacity: 1; white-space: pre; opacity: 1;">10</text></g><g class="ycb417cf2tick"><text text-anchor="start" x="600.4" y="4.199999999999999" style="font-family: 'Times New Roman'; font-size: 12px; fill: rgb(42, 63, 95); fill-opacity: 1; white-space: pre; opacity: 1;" transform="translate(0,323.13000000000005)">20</text></g><g class="ycb417cf2tick"><text text-anchor="start" x="600.4" y="4.199999999999999" style="font-family: 'Times New Roman'; font-size: 12px; fill: rgb(42, 63, 95); fill-opacity: 1; white-space: pre; opacity: 1;" transform="translate(0,269.76000000000005)">30</text></g><g class="ycb417cf2tick"><text text-anchor="start" x="600.4" y="4.199999999999999" style="font-family: 'Times New Roman'; font-size: 12px; fill: rgb(42, 63, 95); fill-opacity: 1; white-space: pre; opacity: 1;" transform="translate(0,216.39000000000004)">40</text></g><g class="ycb417cf2tick"><text text-anchor="start" x="600.4" y="4.199999999999999" style="font-family: 'Times New Roman'; font-size: 12px; fill: rgb(42, 63, 95); fill-opacity: 1; white-space: pre; opacity: 1;" transform="translate(0,163.01000000000005)">50</text></g></g><g class="cbtitleunshift" transform="translate(-10,-50)"><g class="cbtitle" transform="translate(-0.5,-0.5)"><text class="ycb417cf2title" x="592.25" y="135.75" text-anchor="start" style="opacity: 1; font-family: 'Times New Roman'; font-size: 13px; fill: rgb(42, 63, 95); fill-opacity: 1; white-space: pre;">%</text></g></g><rect class="cboutline" x="582" y="93" width="15" height="254" style="stroke: rgb(68, 68, 68); stroke-opacity: 1; fill: none; stroke-width: 1;"/></g><g class="g-gtitle"><text class="gtitle" x="320" y="25" text-anchor="middle" dy="0em" style="opacity: 1; font-family: 'Times New Roman'; font-size: 16px; fill: rgb(42, 63, 95); fill-opacity: 1; white-space: pre;">Employee Distribution by Category (2021) (%)</text></g></g></svg>