<svg class="main-svg" xmlns="http://www.w3.org/2000/svg" xmlns:xlink="http://www.w3.org/1999/xlink" width="1920" height="1440" style="" viewBox="0 0 640 480"><rect x="0" y="0" width="640" height="480" style="fill: rgb(255, 255, 255); fill-opacity: 1;"/><defs id="defs-ba5528"><g class="clips"/><g class="gradients"><linearGradient x1="0" y1="1" x2="0" y2="0" gradientUnits="objectBoundingBox" id="gba5528-cb71a113"><stop offset="0%" stop-color="rgb(255, 245, 240)" stop-opacity="1"/><stop offset="12.5%" stop-color="rgb(254, 224, 210)" stop-opacity="1"/><stop offset="25%" stop-color="rgb(252, 187, 161)" stop-opacity="1"/><stop offset="37.5%" stop-color="rgb(252, 146, 114)" stop-opacity="1"/><stop offset="50%" stop-color="rgb(251, 106, 74)" stop-opacity="1"/><stop offset="62.5%" stop-color="rgb(239, 59, 44)" stop-opacity="1"/><stop offset="75%" stop-color="rgb(203, 24, 29)" stop-opacity="1"/><stop offset="87.5%" stop-color="rgb(165, 15, 21)" stop-opacity="1"/><stop offset="100%" stop-color="rgb(103, 0, 13)" stop-opacity="1"/></linearGradient></g><g class="patterns"/></defs><g class="bglayer"/><g class="layer-below"><g class="imagelayer"/><g class="shapelayer"/></g><g class="cartesianlayer"/><g class="polarlayer"/><g class="smithlayer"/><g class="ternarylayer"/><g class="geolayer"/><g class="funnelarealayer"/><g class="pielayer"/><g class="iciclelayer"/><g class="treemaplayer"/><g class="sunburstlayer"><g class="trace sunburst" stroke-linejoin="round" style="opacity: 1;"><g class="slice"><path class="surface" d="M282.5,260A0,0 0,1,0 282.5,260A0,0 0,1,0 282.5,260ZM324.5,260A42,42 0,1,1 240.5,260A42,42 0,1,1 324.5,260Z" style="pointer-events: none; stroke-width: 1; fill: rgb(255, 255, 255); fill-opacity: 1; stroke: rgb(0, 0, 0); stroke-opacity: 1;"/><g class="slicetext"><text data-notex="1" class="slicetext" text-anchor="middle" x="0" y="0" style="font-family: 'Times New Roman'; font-size: 12px; fill: rgb(0, 0, 0); fill-opacity: 1; white-space: pre;" transform="translate(282.5,264)">100.01</text></g></g><g class="slice cursor-pointer"><path class="surface" d="M324.5,260L366.5,260A84,84 0,1,0 198.67072891717646,265.3528786388713L240.58536445858823,262.67643931943564A42,42 0,1,1 324.5,260Z" style="pointer-events: none; stroke-width: 1; fill: rgb(103, 0, 13); fill-opacity: 1; stroke: rgb(0, 0, 0); stroke-opacity: 1;"/><g class="slicetext"><text data-notex="1" class="slicetext" text-anchor="middle" x="0" y="0" style="font-family: 'Times New Roman'; font-size: 12px; fill: rgb(0, 0, 0); fill-opacity: 1; white-space: pre;" transform="translate(280.3542130195437,201.35987848354748)scale(0.8195954923186919)rotate(-1.8268173182681267)"><tspan class="line" dy="0em" x="0" y="0">Employee Development</tspan><tspan class="line" dy="1.3em" x="0" y="0">51.02</tspan></text></g></g><g class="slice cursor-pointer"><path class="surface" d="M240.58536445858823,262.67643931943564L198.67072891717646,265.3528786388713A84,84 0,0,0 287.4183123859384,343.8558894966497L284.9591561929692,301.9279447483249A42,42 0,0,1 240.58536445858823,262.67643931943564Z" style="pointer-events: none; stroke-width: 1; fill: rgb(252, 136, 104); fill-opacity: 1; stroke: rgb(0, 0, 0); stroke-opacity: 1;"/><g class="slicetext"><text data-notex="1" class="slicetext" text-anchor="middle" x="0" y="0" style="font-family: 'Times New Roman'; font-size: 12px; fill: rgb(0, 0, 0); fill-opacity: 1; white-space: pre;" transform="translate(245.70882833116505,301.5923866220726)scale(0.8549879515480908)rotate(41.49485051494855)"><tspan class="line" dy="0em" x="0" y="0">Employee Lifecycle</tspan><tspan class="line" dy="1.3em" x="0" y="0">24.92</tspan></text></g></g><g class="slice cursor-pointer"><path class="surface" d="M284.9591561929692,301.9279447483249L287.4183123859384,343.8558894966497A84,84 0,0,0 366.5,260L324.5,260A42,42 0,0,1 284.9591561929692,301.9279447483249Z" style="pointer-events: none; stroke-width: 1; fill: rgb(252, 142, 110); fill-opacity: 1; stroke: rgb(0, 0, 0); stroke-opacity: 1;"/><g class="slicetext"><text data-notex="1" class="slicetext" text-anchor="middle" x="0" y="0" style="font-family: 'Times New Roman'; font-size: 12px; fill: rgb(0, 0, 0); fill-opacity: 1; white-space: pre;" transform="translate(323.89696805120076,299.04009742482236)scale(0.7936377752506781)rotate(-46.67833216678332)"><tspan class="line" dy="0em" x="0" y="0">Workplace Wellbeing</tspan><tspan class="line" dy="1.3em" x="0" y="0">24.07</tspan></text></g></g><g class="slice cursor-pointer"><path class="surface" d="M366.5,260L408.5,260A126,126 0,1,0 156.7560933757647,268.02931795830693L198.67072891717646,265.3528786388713A84,84 0,1,1 366.5,260Z" style="pointer-events: none; stroke-width: 1; fill: rgb(103, 0, 13); fill-opacity: 1; stroke: rgb(0, 0, 0); stroke-opacity: 1;"/><g class="slicetext"><text data-notex="1" class="slicetext" text-anchor="middle" x="0" y="0" style="font-family: 'Times New Roman'; font-size: 12px; fill: rgb(0, 0, 0); fill-opacity: 1; white-space: pre;" transform="translate(278.96957980989833,158.50696694830194)scale(0.8934783017353978)rotate(-1.8268173182681267)"><tspan class="line" dy="0em" x="0" y="0">Performance Management</tspan><tspan class="line" dy="1.3em" x="0" y="0">51.02</tspan></text></g></g><g class="slice cursor-pointer"><path class="surface" d="M198.67072891717646,265.3528786388713L156.7560933757647,268.02931795830693A126,126 0,0,0 222.44728546032036,370.76854913022805L242.46485697354692,333.8456994201521A84,84 0,0,1 198.67072891717646,265.3528786388713Z" style="pointer-events: none; stroke-width: 1; fill: rgb(253, 200, 178); fill-opacity: 1; stroke: rgb(0, 0, 0); stroke-opacity: 1;"/><g class="slicetext"><text data-notex="1" class="slicetext" text-anchor="middle" x="0" y="0" style="font-family: 'Times New Roman'; font-size: 12px; fill: rgb(0, 0, 0); fill-opacity: 1; white-space: pre;" transform="translate(199.3514517257968,313.16496136799435)rotate(57.40525947405263)"><tspan class="line" dy="0em" x="0" y="0">Onboarding</tspan><tspan class="line" dy="1.3em" x="0" y="0">16.08</tspan></text></g></g><g class="slice"><path class="surface" d="M242.46485697354692,333.8456994201521L222.44728546032036,370.76854913022805A126,126 0,0,0 289.87746857890767,385.7838342449745L287.4183123859384,343.8558894966497A84,84 0,0,1 242.46485697354692,333.8456994201521Z" style="pointer-events: none; stroke-width: 1; fill: rgb(255, 238, 230); fill-opacity: 1; stroke: rgb(0, 0, 0); stroke-opacity: 1; opacity: 1;"/><g class="slicetext"><text data-notex="1" class="slicetext" text-anchor="middle" x="0" y="0" style="font-family: 'Times New Roman'; font-size: 12px; fill: rgb(0, 0, 0); fill-opacity: 1; white-space: pre;" transform="translate(259.1327403437334,363.6253113865832)scale(0.8688671330478204)rotate(12.553744625537433)"><tspan class="line" dy="0em" x="0" y="0">Recruitment</tspan><tspan class="line" dy="1.3em" x="0" y="0">8.84</tspan></text></g></g><g class="slice cursor-pointer"><path class="surface" d="M287.4183123859384,343.8558894966497L289.87746857890767,385.7838342449745A126,126 0,0,0 389.56234768855813,326.43533478062926L353.8748984590388,304.29022318708616A84,84 0,0,1 287.4183123859384,343.8558894966497Z" style="pointer-events: none; stroke-width: 1; fill: rgb(253, 206, 186); fill-opacity: 1; stroke: rgb(0, 0, 0); stroke-opacity: 1;"/><g class="slicetext"><text data-notex="1" class="slicetext" text-anchor="middle" x="0" y="0" style="font-family: 'Times New Roman'; font-size: 12px; fill: rgb(0, 0, 0); fill-opacity: 1; white-space: pre;" transform="translate(332.5673751382907,344.0958117398813)rotate(-30.767923207679246)"><tspan class="line" dy="0em" x="0" y="0">Health &amp; Safety</tspan><tspan class="line" dy="1.3em" x="0" y="0">15.23</tspan></text></g></g><g class="slice"><path class="surface" d="M353.8748984590388,304.29022318708616L389.56234768855813,326.43533478062926A126,126 0,0,0 408.5,260.00000000000006L366.5,260A84,84 0,0,1 353.8748984590388,304.29022318708616Z" style="pointer-events: none; stroke-width: 1; fill: rgb(255, 238, 230); fill-opacity: 1; stroke: rgb(0, 0, 0); stroke-opacity: 1; opacity: 1;"/><g class="slicetext"><text data-notex="1" class="slicetext" text-anchor="middle" x="0" y="0" style="font-family: 'Times New Roman'; font-size: 12px; fill: rgb(0, 0, 0); fill-opacity: 1; white-space: pre;" transform="translate(388.992297922671,290.356046500936)scale(0.6110908710639311)rotate(-74.08959104089593)"><tspan class="line" dy="0em" x="0" y="0">Work-Life Balance</tspan><tspan class="line" dy="1.3em" x="0" y="0">8.84</tspan></text></g></g><g class="slice cursor-pointer"><path class="surface" d="M408.5,260L450.5,260A168,168 0,1,0 114.84145783435292,270.7057572777426L156.7560933757647,268.02931795830693A126,126 0,1,1 408.5,260Z" style="pointer-events: none; stroke-width: 1; fill: rgb(103, 0, 13); fill-opacity: 1; stroke: rgb(0, 0, 0); stroke-opacity: 1;"/><g class="slicetext"><text data-notex="1" class="slicetext" text-anchor="middle" x="0" y="0" style="font-family: 'Times New Roman'; font-size: 12px; fill: rgb(0, 0, 0); fill-opacity: 1; white-space: pre;" transform="translate(277.73638413632005,110.64593612969506)rotate(-1.8268173182681267)"><tspan class="line" dy="0em" x="0" y="0">Feedback</tspan><tspan class="line" dy="1.3em" x="0" y="0">51.02</tspan></text></g></g><g class="slice"><path class="surface" d="M156.7560933757647,268.02931795830693L114.84145783435292,270.7057572777426A168,168 0,0,0 146.92093677102937,359.20845535515L180.81570257827204,334.4063415163625A126,126 0,0,1 156.7560933757647,268.02931795830693Z" style="pointer-events: none; stroke-width: 1; fill: rgb(255, 237, 229); fill-opacity: 1; stroke: rgb(0, 0, 0); stroke-opacity: 1; opacity: 1;"/><g class="slicetext"><text data-notex="1" class="slicetext" text-anchor="middle" x="0" y="0" style="font-family: 'Times New Roman'; font-size: 12px; fill: rgb(0, 0, 0); fill-opacity: 1; white-space: pre;" transform="translate(149.6094489919529,308.1686968256873)rotate(70.0759924007599)"><tspan class="line" dy="0em" x="0" y="0">Orientation</tspan><tspan class="line" dy="1.3em" x="0" y="0">9.04</tspan></text></g></g><g class="slice"><path class="surface" d="M180.81570257827204,334.4063415163625L146.92093677102937,359.20845535515A168,168 0,0,0 202.42971394709383,407.6913988403041L222.44728546032036,370.76854913022805A126,126 0,0,1 180.81570257827204,334.4063415163625Z" style="pointer-events: none; stroke-width: 1; fill: rgb(255, 245, 240); fill-opacity: 1; stroke: rgb(0, 0, 0); stroke-opacity: 1; opacity: 1;"/><g class="slicetext"><text data-notex="1" class="slicetext" text-anchor="middle" x="0" y="0" style="font-family: 'Times New Roman'; font-size: 12px; fill: rgb(0, 0, 0); fill-opacity: 1; white-space: pre;" transform="translate(186.78464301775404,369.5858056696136)rotate(41.134886511348896)"><tspan class="line" dy="0em" x="0" y="0">Mentorship</tspan><tspan class="line" dy="1.3em" x="0" y="0">7.04</tspan></text></g></g><g class="slice"><path class="surface" d="M289.87746857890767,385.7838342449745L292.33662477187687,427.7117789932994A168,168 0,0,0 370.7438881969386,402.9580924463047L348.68291614770396,367.2185693347285A126,126 0,0,1 289.87746857890767,385.7838342449745Z" style="pointer-events: none; stroke-width: 1; fill: rgb(255, 242, 235); fill-opacity: 1; stroke: rgb(0, 0, 0); stroke-opacity: 1; opacity: 1;"/><g class="slicetext"><text data-notex="1" class="slicetext" text-anchor="middle" x="0" y="0" style="font-family: 'Times New Roman'; font-size: 12px; fill: rgb(0, 0, 0); fill-opacity: 1; white-space: pre;" transform="translate(325.72581916561234,397.4626650943335)rotate(-17.521247875212453)"><tspan class="line" dy="0em" x="0" y="0">Ergonomics</tspan><tspan class="line" dy="1.3em" x="0" y="0">7.87</tspan></text></g></g><g class="slice"><path class="surface" d="M348.68291614770396,367.2185693347285L370.7438881969386,402.9580924463047A168,168 0,0,0 425.24979691807755,348.5804463741723L389.56234768855813,326.43533478062926A126,126 0,0,1 348.68291614770396,367.2185693347285Z" style="pointer-events: none; stroke-width: 1; fill: rgb(255, 244, 238); fill-opacity: 1; stroke: rgb(0, 0, 0); stroke-opacity: 1; opacity: 1;"/><g class="slicetext"><text data-notex="1" class="slicetext" text-anchor="middle" x="0" y="0" style="font-family: 'Times New Roman'; font-size: 12px; fill: rgb(0, 0, 0); fill-opacity: 1; white-space: pre;" transform="translate(390.102805811563,367.85661269565696)scale(0.6363872512116651)rotate(-44.93250674932506)"><tspan class="line" dy="0em" x="0" y="0">Emergency Response</tspan><tspan class="line" dy="1.3em" x="0" y="0">7.36</tspan></text></g></g><g class="slice"><path class="surface" d="M450.5,260L492.5,260A210,210 0,0,0 257.6558365520255,51.474779600715124L262.6246692416204,93.1798236805721A168,168 0,0,1 450.5,260Z" style="pointer-events: none; stroke-width: 1; fill: rgb(251, 122, 90); fill-opacity: 1; stroke: rgb(0, 0, 0); stroke-opacity: 1; opacity: 1;"/><g class="slicetext"><text data-notex="1" class="slicetext" text-anchor="middle" x="0" y="0" style="font-family: 'Times New Roman'; font-size: 12px; fill: rgb(0, 0, 0); fill-opacity: 1; white-space: pre;" transform="translate(409.15884573508106,117.10785339258621)rotate(41.602839716028484)"><tspan class="line" dy="0em" x="0" y="0">Peer Review</tspan><tspan class="line" dy="1.3em" x="0" y="0">26.89</tspan></text></g></g><g class="slice"><path class="surface" d="M262.6246692416204,93.1798236805721L257.6558365520255,51.474779600715124A210,210 0,0,0 90.69661722058783,174.49291050226134L129.05729377647026,191.59432840180907A168,168 0,0,1 262.6246692416204,93.1798236805721Z" style="pointer-events: none; stroke-width: 1; fill: rgb(253, 198, 175); fill-opacity: 1; stroke: rgb(0, 0, 0); stroke-opacity: 1; opacity: 1;"/><g class="slicetext"><text data-notex="1" class="slicetext" text-anchor="middle" x="0" y="0" style="font-family: 'Times New Roman'; font-size: 12px; fill: rgb(0, 0, 0); fill-opacity: 1; white-space: pre;" transform="translate(169.76371588965046,107.27179948031738)rotate(-36.383361663833625)"><tspan class="line" dy="0em" x="0" y="0">Manager Review</tspan><tspan class="line" dy="1.3em" x="0" y="0">16.44</tspan></text></g></g><g class="slice"><path class="surface" d="M129.05729377647026,191.59432840180907L90.69661722058783,174.49291050226134A210,210 0,0,0 72.92682229294115,273.3821965971783L114.84145783435292,270.70575727774263A168,168 0,0,1 129.05729377647026,191.59432840180907Z" style="pointer-events: none; stroke-width: 1; fill: rgb(255, 243, 236); fill-opacity: 1; stroke: rgb(0, 0, 0); stroke-opacity: 1; opacity: 1;"/><g class="slicetext"><text data-notex="1" class="slicetext" text-anchor="middle" x="0" y="0" style="font-family: 'Times New Roman'; font-size: 12px; fill: rgb(0, 0, 0); fill-opacity: 1; white-space: pre;" transform="translate(94.36974743871059,226.36878155243693)rotate(-79.81301869813024)"><tspan class="line" dy="0em" x="0" y="0">360 Review</tspan><tspan class="line" dy="1.3em" x="0" y="0">7.69</tspan></text></g></g></g></g><g class="glimages"/><defs id="topdefs-ba5528"><g class="clips"/></defs><g class="layer-above"><g class="imagelayer"/><g class="shapelayer"/></g><g class="infolayer"><g class="cb71a113 colorbar" transform="translate(10,50)"><rect class="cbbg" x="571.5" y="63" width="48.015625" height="295" style="fill: rgb(0, 0, 0); fill-opacity: 0; stroke: rgb(68, 68, 68); stroke-opacity: 1; stroke-width: 0;"/><g class="cbfills" transform="translate(0,93)"><rect class="cbfill gradient_filled" style="fill: url('#gba5528-cb71a113');" x="582" y="0" width="15" height="254"/></g><g class="cblines" transform="translate(0,93)"/><g class="cbaxis crisp" transform="translate(0,-50)"><g class="ycb71a113tick"><text text-anchor="start" x="600.4" y="4.199999999999999" transform="translate(0,379.9000000000001)" style="font-family: 'Times New Roman'; font-size: 12px; fill: rgb(42, 63, 95); fill-opacity: 1; white-space: pre; opacity: 1;">10</text></g><g class="ycb71a113tick"><text text-anchor="start" x="600.4" y="4.199999999999999" style="font-family: 'Times New Roman'; font-size: 12px; fill: rgb(42, 63, 95); fill-opacity: 1; white-space: pre; opacity: 1;" transform="translate(0,322.1500000000001)">20</text></g><g class="ycb71a113tick"><text text-anchor="start" x="600.4" y="4.199999999999999" style="font-family: 'Times New Roman'; font-size: 12px; fill: rgb(42, 63, 95); fill-opacity: 1; white-space: pre; opacity: 1;" transform="translate(0,264.4000000000001)">30</text></g><g class="ycb71a113tick"><text text-anchor="start" x="600.4" y="4.199999999999999" style="font-family: 'Times New Roman'; font-size: 12px; fill: rgb(42, 63, 95); fill-opacity: 1; white-space: pre; opacity: 1;" transform="translate(0,206.64000000000004)">40</text></g><g class="ycb71a113tick"><text text-anchor="start" x="600.4" y="4.199999999999999" style="font-family: 'Times New Roman'; font-size: 12px; fill: rgb(42, 63, 95); fill-opacity: 1; white-space: pre; opacity: 1;" transform="translate(0,148.89000000000004)">50</text></g></g><g class="cbtitleunshift" transform="translate(-10,-50)"><g class="cbtitle" transform="translate(-0.5,-0.5)"><text class="ycb71a113title" x="592.25" y="135.75" text-anchor="start" style="opacity: 1; font-family: 'Times New Roman'; font-size: 13px; fill: rgb(42, 63, 95); fill-opacity: 1; white-space: pre;">%</text></g></g><rect class="cboutline" x="582" y="93" width="15" height="254" style="stroke: rgb(68, 68, 68); stroke-opacity: 1; fill: none; stroke-width: 1;"/></g><g class="g-gtitle"><text class="gtitle" x="320" y="25" text-anchor="middle" dy="0em" style="opacity: 1; font-family: 'Times New Roman'; font-size: 16px; fill: rgb(42, 63, 95); fill-opacity: 1; white-space: pre;">Employee Distribution by Category (2021) (%)</text></g></g></svg>