<svg class="main-svg" xmlns="http://www.w3.org/2000/svg" xmlns:xlink="http://www.w3.org/1999/xlink" width="1920" height="1440" style="" viewBox="0 0 640 480"><rect x="0" y="0" width="640" height="480" style="fill: rgb(255, 255, 255); fill-opacity: 1;"/><defs id="defs-c16b72"><g class="clips"/><g class="gradients"><linearGradient x1="0" y1="1" x2="0" y2="0" gradientUnits="objectBoundingBox" id="gc16b72-cb6c9985"><stop offset="0%" stop-color="rgb(247, 251, 255)" stop-opacity="1"/><stop offset="12.5%" stop-color="rgb(222, 235, 247)" stop-opacity="1"/><stop offset="25%" stop-color="rgb(198, 219, 239)" stop-opacity="1"/><stop offset="37.5%" stop-color="rgb(158, 202, 225)" stop-opacity="1"/><stop offset="50%" stop-color="rgb(107, 174, 214)" stop-opacity="1"/><stop offset="62.5%" stop-color="rgb(66, 146, 198)" stop-opacity="1"/><stop offset="75%" stop-color="rgb(33, 113, 181)" stop-opacity="1"/><stop offset="87.5%" stop-color="rgb(8, 81, 156)" stop-opacity="1"/><stop offset="100%" stop-color="rgb(8, 48, 107)" stop-opacity="1"/></linearGradient></g><g class="patterns"/></defs><g class="bglayer"/><g class="layer-below"><g class="imagelayer"/><g class="shapelayer"/></g><g class="cartesianlayer"/><g class="polarlayer"/><g class="smithlayer"/><g class="ternarylayer"/><g class="geolayer"/><g class="funnelarealayer"/><g class="pielayer"/><g class="iciclelayer"/><g class="treemaplayer"/><g class="sunburstlayer"><g class="trace sunburst" stroke-linejoin="round" style="opacity: 1;"><g class="slice"><path class="surface" d="M282.5,260A0,0 0,1,0 282.5,260A0,0 0,1,0 282.5,260ZM335,260A52.5,52.5 0,1,1 230,260A52.5,52.5 0,1,1 335,260Z" style="pointer-events: none; stroke-width: 1; fill: rgb(255, 255, 255); fill-opacity: 1; stroke: rgb(0, 0, 0); stroke-opacity: 1;"/><g class="slicetext"><text data-notex="1" class="slicetext" text-anchor="middle" x="0" y="0" style="font-family: 'Times New Roman'; font-size: 12px; fill: rgb(0, 0, 0); fill-opacity: 1; white-space: pre;" transform="translate(282.5,264)">100</text></g></g><g class="slice cursor-pointer"><path class="surface" d="M335,260L387.5,260A105,105 0,0,0 222.39462681256794,173.90502852082753L252.44731340628397,216.95251426041375A52.5,52.5 0,0,1 335,260Z" style="pointer-events: none; stroke-width: 1; fill: rgb(8, 48, 107); fill-opacity: 1; stroke: rgb(0, 0, 0); stroke-opacity: 1;"/><g class="slicetext"><text data-notex="1" class="slicetext" text-anchor="middle" x="0" y="0" style="font-family: 'Times New Roman'; font-size: 12px; fill: rgb(0, 0, 0); fill-opacity: 1; white-space: pre;" transform="translate(316.80701979057744,194.2090111866501)rotate(27.539999999999964)"><tspan class="line" dy="0em" x="0" y="0">Workplace Wellbeing</tspan><tspan class="line" dy="1.3em" x="0" y="0">34.7</tspan></text></g></g><g class="slice cursor-pointer"><path class="surface" d="M252.44731340628397,216.95251426041375L222.39462681256794,173.90502852082753A105,105 0,0,0 240.0740944570175,356.0470850096864L261.28704722850875,308.0235425048432A52.5,52.5 0,0,1 252.44731340628397,216.95251426041375Z" style="pointer-events: none; stroke-width: 1; fill: rgb(8, 57, 121); fill-opacity: 1; stroke: rgb(0, 0, 0); stroke-opacity: 1;"/><g class="slicetext"><text data-notex="1" class="slicetext" text-anchor="middle" x="0" y="0" style="font-family: 'Times New Roman'; font-size: 12px; fill: rgb(0, 0, 0); fill-opacity: 1; white-space: pre;" transform="translate(217.12878210465277,266.0076867463264)rotate(84.45600000000002)"><tspan class="line" dy="0em" x="0" y="0">Employee Development</tspan><tspan class="line" dy="1.3em" x="0" y="0">33.68</tspan></text></g></g><g class="slice cursor-pointer"><path class="surface" d="M261.28704722850875,308.0235425048432L240.0740944570175,356.0470850096864A105,105 0,0,0 387.5,259.99999999999994L335,259.99999999999994A52.5,52.5 0,0,1 261.28704722850875,308.0235425048432Z" style="pointer-events: none; stroke-width: 1; fill: rgb(8, 76, 148); fill-opacity: 1; stroke: rgb(0, 0, 0); stroke-opacity: 1;"/><g class="slicetext"><text data-notex="1" class="slicetext" text-anchor="middle" x="0" y="0" style="font-family: 'Times New Roman'; font-size: 12px; fill: rgb(0, 0, 0); fill-opacity: 1; white-space: pre;" transform="translate(319.1342216396307,316.2311005955069)rotate(-33.08400000000006)"><tspan class="line" dy="0em" x="0" y="0">Employee Lifecycle</tspan><tspan class="line" dy="1.3em" x="0" y="0">31.62</tspan></text></g></g><g class="slice cursor-pointer"><path class="surface" d="M387.5,260L440,260A157.5,157.5 0,0,0 344.14135252685935,115.06348403987542L323.59423501790627,163.3756560265836A105,105 0,0,1 387.5,260Z" style="pointer-events: none; stroke-width: 1; fill: rgb(128, 185, 218); fill-opacity: 1; stroke: rgb(0, 0, 0); stroke-opacity: 1;"/><g class="slicetext"><text data-notex="1" class="slicetext" text-anchor="middle" x="0" y="0" style="font-family: 'Times New Roman'; font-size: 12px; fill: rgb(0, 0, 0); fill-opacity: 1; white-space: pre;" transform="translate(390.1293324864977,188.8157151270897)rotate(56.51999999999998)"><tspan class="line" dy="0em" x="0" y="0">Work-Life Balance</tspan><tspan class="line" dy="1.3em" x="0" y="0">18.6</tspan></text></g></g><g class="slice cursor-pointer"><path class="surface" d="M323.59423501790627,163.3756560265836L344.14135252685935,115.06348403987542A157.5,157.5 0,0,0 192.3419402188519,130.85754278124128L222.39462681256794,173.90502852082753A105,105 0,0,1 323.59423501790627,163.3756560265836Z" style="pointer-events: none; stroke-width: 1; fill: rgb(161, 203, 226); fill-opacity: 1; stroke: rgb(0, 0, 0); stroke-opacity: 1;"/><g class="slicetext"><text data-notex="1" class="slicetext" text-anchor="middle" x="0" y="0" style="font-family: 'Times New Roman'; font-size: 12px; fill: rgb(0, 0, 0); fill-opacity: 1; white-space: pre;" transform="translate(269.02837915931883,130.5219373981602)rotate(-5.940000000000055)"><tspan class="line" dy="0em" x="0" y="0">Health &amp; Safety</tspan><tspan class="line" dy="1.3em" x="0" y="0">16.1</tspan></text></g></g><g class="slice"><path class="surface" d="M222.39462681256794,173.90502852082753L192.3419402188519,130.85754278124128A157.5,157.5 0,0,0 218.86114168552623,404.07062751452963L240.0740944570175,356.0470850096864A105,105 0,0,1 222.39462681256794,173.90502852082753Z" style="pointer-events: none; stroke-width: 1; fill: rgb(8, 57, 121); fill-opacity: 1; stroke: rgb(0, 0, 0); stroke-opacity: 1; opacity: 1;"/><g class="slicetext"><text data-notex="1" class="slicetext" text-anchor="middle" x="0" y="0" style="font-family: 'Times New Roman'; font-size: 12px; fill: rgb(0, 0, 0); fill-opacity: 1; white-space: pre;" transform="translate(161.48264720723407,271.5816154352662)rotate(84.45600000000002)"><tspan class="line" dy="0em" x="0" y="0">Training Programs</tspan><tspan class="line" dy="1.3em" x="0" y="0">33.68</tspan></text></g></g><g class="slice"><path class="surface" d="M240.0740944570175,356.0470850096864L218.86114168552623,404.07062751452963A157.5,157.5 0,0,0 424.1995562069803,328.7567143684516L376.96637080465354,305.8378095789677A105,105 0,0,1 240.0740944570175,356.0470850096864Z" style="pointer-events: none; stroke-width: 1; fill: rgb(60, 140, 195); fill-opacity: 1; stroke: rgb(0, 0, 0); stroke-opacity: 1; opacity: 1;"/><g class="slicetext"><text data-notex="1" class="slicetext" text-anchor="middle" x="0" y="0" style="font-family: 'Times New Roman'; font-size: 12px; fill: rgb(0, 0, 0); fill-opacity: 1; white-space: pre;" transform="translate(324.9226966604986,376.6155709288668)rotate(-20.142000000000053)"><tspan class="line" dy="0em" x="0" y="0">Recruitment</tspan><tspan class="line" dy="1.3em" x="0" y="0">24.43</tspan></text></g></g><g class="slice cursor-pointer"><path class="surface" d="M376.96637080465354,305.8378095789677L424.1995562069803,328.7567143684516A157.5,157.5 0,0,0 440,259.9999999999999L387.5,259.99999999999994A105,105 0,0,1 376.96637080465354,305.8378095789677Z" style="pointer-events: none; stroke-width: 1; fill: rgb(235, 243, 251); fill-opacity: 1; stroke: rgb(0, 0, 0); stroke-opacity: 1;"/><g class="slicetext"><text data-notex="1" class="slicetext" text-anchor="middle" x="0" y="0" style="font-family: 'Times New Roman'; font-size: 12px; fill: rgb(0, 0, 0); fill-opacity: 1; white-space: pre;" transform="translate(415.3930696521961,290.5391189327226)scale(0.9649978828605151)rotate(-77.05799999999999)"><tspan class="line" dy="0em" x="0" y="0">Onboarding</tspan><tspan class="line" dy="1.3em" x="0" y="0">7.19</tspan></text></g></g><g class="slice"><path class="surface" d="M440,260L492.5,260A210,210 0,0,0 424.8057518687215,105.56854923598667L389.2293139015411,144.17641192699A157.5,157.5 0,0,1 440,260Z" style="pointer-events: none; stroke-width: 1; fill: rgb(194, 217, 238); fill-opacity: 1; stroke: rgb(0, 0, 0); stroke-opacity: 1; opacity: 1;"/><g class="slicetext"><text data-notex="1" class="slicetext" text-anchor="middle" x="0" y="0" style="font-family: 'Times New Roman'; font-size: 12px; fill: rgb(0, 0, 0); fill-opacity: 1; white-space: pre;" transform="translate(449.3690718021938,186.85378337036173)rotate(66.32999999999993)"><tspan class="line" dy="0em" x="0" y="0">Flexible Scheduling</tspan><tspan class="line" dy="1.3em" x="0" y="0">13.15</tspan></text></g></g><g class="slice"><path class="surface" d="M389.2293139015411,144.17641192699L424.8057518687215,105.56854923598667A210,210 0,0,0 364.6884700358125,66.75131205316723L344.14135252685935,115.06348403987542A157.5,157.5 0,0,1 389.2293139015411,144.17641192699Z" style="pointer-events: none; stroke-width: 1; fill: rgb(247, 251, 255); fill-opacity: 1; stroke: rgb(0, 0, 0); stroke-opacity: 1; opacity: 1;"/><g class="slicetext"><text data-notex="1" class="slicetext" text-anchor="middle" x="0" y="0" style="font-family: 'Times New Roman'; font-size: 12px; fill: rgb(0, 0, 0); fill-opacity: 1; white-space: pre;" transform="translate(391.2226613000957,91.61833903277766)scale(0.61547081576932)rotate(32.85000000000002)"><tspan class="line" dy="0em" x="0" y="0">Employee Assistance</tspan><tspan class="line" dy="1.3em" x="0" y="0">5.45</tspan></text></g></g><g class="slice"><path class="surface" d="M344.14135252685935,115.06348403987542L364.6884700358125,66.75131205316723A210,210 0,0,0 230.14733247534406,56.63039016841077L243.23549935650806,107.47279262630809A157.5,157.5 0,0,1 344.14135252685935,115.06348403987542Z" style="pointer-events: none; stroke-width: 1; fill: rgb(213, 229, 244); fill-opacity: 1; stroke: rgb(0, 0, 0); stroke-opacity: 1; opacity: 1;"/><g class="slicetext"><text data-notex="1" class="slicetext" text-anchor="middle" x="0" y="0" style="font-family: 'Times New Roman'; font-size: 12px; fill: rgb(0, 0, 0); fill-opacity: 1; white-space: pre;" transform="translate(296.7199967353404,70.96835262009566)rotate(4.302000000000021)"><tspan class="line" dy="0em" x="0" y="0">Emergency Response</tspan><tspan class="line" dy="1.3em" x="0" y="0">10.41</tspan></text></g></g><g class="slice"><path class="surface" d="M243.23549935650806,107.47279262630809L230.14733247534406,56.63039016841077A210,210 0,0,0 162.28925362513587,87.81005704165506L192.3419402188519,130.85754278124128A157.5,157.5 0,0,1 243.23549935650806,107.47279262630809Z" style="pointer-events: none; stroke-width: 1; fill: rgb(245, 250, 254); fill-opacity: 1; stroke: rgb(0, 0, 0); stroke-opacity: 1; opacity: 1;"/><g class="slicetext"><text data-notex="1" class="slicetext" text-anchor="middle" x="0" y="0" style="font-family: 'Times New Roman'; font-size: 12px; fill: rgb(0, 0, 0); fill-opacity: 1; white-space: pre;" transform="translate(200.81883886929492,82.62559955058639)rotate(-24.677999999999997)"><tspan class="line" dy="0em" x="0" y="0">Ergonomics</tspan><tspan class="line" dy="1.3em" x="0" y="0">5.69</tspan></text></g></g><g class="slice"><path class="surface" d="M424.1995562069803,328.7567143684516L471.4327416093071,351.67561915793544A210,210 0,0,0 492.5,259.9999999999999L440,259.9999999999999A157.5,157.5 0,0,1 424.1995562069803,328.7567143684516Z" style="pointer-events: none; stroke-width: 1; fill: rgb(235, 243, 251); fill-opacity: 1; stroke: rgb(0, 0, 0); stroke-opacity: 1; opacity: 1;"/><g class="slicetext"><text data-notex="1" class="slicetext" text-anchor="middle" x="0" y="0" style="font-family: 'Times New Roman'; font-size: 12px; fill: rgb(0, 0, 0); fill-opacity: 1; white-space: pre;" transform="translate(460.23450265432626,300.8437786049671)rotate(-77.05799999999999)"><tspan class="line" dy="0em" x="0" y="0">Mentorship</tspan><tspan class="line" dy="1.3em" x="0" y="0">7.19</tspan></text></g></g></g></g><g class="glimages"/><defs id="topdefs-c16b72"><g class="clips"/></defs><g class="layer-above"><g class="imagelayer"/><g class="shapelayer"/></g><g class="infolayer"><g class="cb6c9985 colorbar" transform="translate(10,50)"><rect class="cbbg" x="571.5" y="63" width="48.015625" height="295" style="fill: rgb(0, 0, 0); fill-opacity: 0; stroke: rgb(68, 68, 68); stroke-opacity: 1; stroke-width: 0;"/><g class="cbfills" transform="translate(0,93)"><rect class="cbfill gradient_filled" style="fill: url('#gc16b72-cb6c9985');" x="582" y="0" width="15" height="254"/></g><g class="cblines" transform="translate(0,93)"/><g class="cbaxis crisp" transform="translate(0,-50)"><g class="ycb6c9985tick"><text text-anchor="start" x="600.4" y="4.199999999999999" transform="translate(0,357.49000000000007)" style="font-family: 'Times New Roman'; font-size: 12px; fill: rgb(42, 63, 95); fill-opacity: 1; white-space: pre; opacity: 1;">10</text></g><g class="ycb6c9985tick"><text text-anchor="start" x="600.4" y="4.199999999999999" style="font-family: 'Times New Roman'; font-size: 12px; fill: rgb(42, 63, 95); fill-opacity: 1; white-space: pre; opacity: 1;" transform="translate(0,314.07000000000005)">15</text></g><g class="ycb6c9985tick"><text text-anchor="start" x="600.4" y="4.199999999999999" style="font-family: 'Times New Roman'; font-size: 12px; fill: rgb(42, 63, 95); fill-opacity: 1; white-space: pre; opacity: 1;" transform="translate(0,270.6500000000001)">20</text></g><g class="ycb6c9985tick"><text text-anchor="start" x="600.4" y="4.199999999999999" style="font-family: 'Times New Roman'; font-size: 12px; fill: rgb(42, 63, 95); fill-opacity: 1; white-space: pre; opacity: 1;" transform="translate(0,227.23000000000008)">25</text></g><g class="ycb6c9985tick"><text text-anchor="start" x="600.4" y="4.199999999999999" style="font-family: 'Times New Roman'; font-size: 12px; fill: rgb(42, 63, 95); fill-opacity: 1; white-space: pre; opacity: 1;" transform="translate(0,183.81000000000006)">30</text></g></g><g class="cbtitleunshift" transform="translate(-10,-50)"><g class="cbtitle" transform="translate(-0.5,-0.5)"><text class="ycb6c9985title" x="592.25" y="135.75" text-anchor="start" style="opacity: 1; font-family: 'Times New Roman'; font-size: 13px; fill: rgb(42, 63, 95); fill-opacity: 1; white-space: pre;">%</text></g></g><rect class="cboutline" x="582" y="93" width="15" height="254" style="stroke: rgb(68, 68, 68); stroke-opacity: 1; fill: none; stroke-width: 1;"/></g><g class="g-gtitle"><text class="gtitle" x="320" y="25" text-anchor="middle" dy="0em" style="opacity: 1; font-family: 'Times New Roman'; font-size: 16px; fill: rgb(42, 63, 95); fill-opacity: 1; white-space: pre;">Employee Distribution by Category (2021) (%)</text></g></g></svg>