<svg class="main-svg" xmlns="http://www.w3.org/2000/svg" xmlns:xlink="http://www.w3.org/1999/xlink" width="1920" height="1440" style="" viewBox="0 0 640 480"><rect x="0" y="0" width="640" height="480" style="fill: rgb(255, 255, 255); fill-opacity: 1;"/><defs id="defs-193385"><g class="clips"/><g class="gradients"><linearGradient x1="0" y1="1" x2="0" y2="0" gradientUnits="objectBoundingBox" id="g193385-cb4bf09a"><stop offset="0%" stop-color="rgb(247, 252, 245)" stop-opacity="1"/><stop offset="12.5%" stop-color="rgb(229, 245, 224)" stop-opacity="1"/><stop offset="25%" stop-color="rgb(199, 233, 192)" stop-opacity="1"/><stop offset="37.5%" stop-color="rgb(161, 217, 155)" stop-opacity="1"/><stop offset="50%" stop-color="rgb(116, 196, 118)" stop-opacity="1"/><stop offset="62.5%" stop-color="rgb(65, 171, 93)" stop-opacity="1"/><stop offset="75%" stop-color="rgb(35, 139, 69)" stop-opacity="1"/><stop offset="87.5%" stop-color="rgb(0, 109, 44)" stop-opacity="1"/><stop offset="100%" stop-color="rgb(0, 68, 27)" stop-opacity="1"/></linearGradient></g><g class="patterns"/></defs><g class="bglayer"/><g class="layer-below"><g class="imagelayer"/><g class="shapelayer"/></g><g class="cartesianlayer"/><g class="polarlayer"/><g class="smithlayer"/><g class="ternarylayer"/><g class="geolayer"/><g class="funnelarealayer"/><g class="pielayer"/><g class="iciclelayer"/><g class="treemaplayer"/><g class="sunburstlayer"><g class="trace sunburst" stroke-linejoin="round" style="opacity: 1;"><g class="slice"><path class="surface" d="M282.5,260A0,0 0,1,0 282.5,260A0,0 0,1,0 282.5,260ZM335,260A52.5,52.5 0,1,1 230,260A52.5,52.5 0,1,1 335,260Z" style="pointer-events: none; stroke-width: 1; fill: rgb(255, 255, 255); fill-opacity: 1; stroke: rgb(0, 0, 0); stroke-opacity: 1;"/><g class="slicetext"><text data-notex="1" class="slicetext" text-anchor="middle" x="0" y="0" style="font-family: 'Times New Roman'; font-size: 12px; fill: rgb(0, 0, 0); fill-opacity: 1; white-space: pre;" transform="translate(282.5,264)">100.01</text></g></g><g class="slice cursor-pointer"><path class="surface" d="M335,260L387.5,260A105,105 0,0,0 191.27465875087466,208.01022106239884L236.88732937543733,234.00511053119942A52.5,52.5 0,0,1 335,260Z" style="pointer-events: none; stroke-width: 1; fill: rgb(0, 68, 27); fill-opacity: 1; stroke: rgb(0, 0, 0); stroke-opacity: 1;"/><g class="slicetext"><text data-notex="1" class="slicetext" text-anchor="middle" x="0" y="0" style="font-family: 'Times New Roman'; font-size: 12px; fill: rgb(0, 0, 0); fill-opacity: 1; white-space: pre;" transform="translate(301.5031779163079,188.27618913477505)rotate(14.839516048395126)"><tspan class="line" dy="0em" x="0" y="0">Workplace Wellbeing</tspan><tspan class="line" dy="1.3em" x="0" y="0">41.76</tspan></text></g></g><g class="slice cursor-pointer"><path class="surface" d="M236.88732937543733,234.00511053119942L191.27465875087466,208.01022106239884A105,105 0,0,0 273.49012690666206,364.61272478452105L277.99506345333106,312.30636239226055A52.5,52.5 0,0,1 236.88732937543733,234.00511053119942Z" style="pointer-events: none; stroke-width: 1; fill: rgb(41, 145, 74); fill-opacity: 1; stroke: rgb(0, 0, 0); stroke-opacity: 1;"/><g class="slicetext"><text data-notex="1" class="slicetext" text-anchor="middle" x="0" y="0" style="font-family: 'Times New Roman'; font-size: 12px; fill: rgb(0, 0, 0); fill-opacity: 1; white-space: pre;" transform="translate(223.07916037503549,291.1956196859087)rotate(62.30076992300769)"><tspan class="line" dy="0em" x="0" y="0">Employee Lifecycle</tspan><tspan class="line" dy="1.3em" x="0" y="0">31.88</tspan></text></g></g><g class="slice cursor-pointer"><path class="surface" d="M277.99506345333106,312.30636239226055L273.49012690666206,364.61272478452105A105,105 0,0,0 387.5,260.0000000000001L335,260.00000000000006A52.5,52.5 0,0,1 277.99506345333106,312.30636239226055Z" style="pointer-events: none; stroke-width: 1; fill: rgb(87, 182, 104); fill-opacity: 1; stroke: rgb(0, 0, 0); stroke-opacity: 1;"/><g class="slicetext"><text data-notex="1" class="slicetext" text-anchor="middle" x="0" y="0" style="font-family: 'Times New Roman'; font-size: 12px; fill: rgb(0, 0, 0); fill-opacity: 1; white-space: pre;" transform="translate(328.50562664076404,310.6285121014501)scale(0.986736879185978)rotate(-42.53874612538743)"><tspan class="line" dy="0em" x="0" y="0">Employee Development</tspan><tspan class="line" dy="1.3em" x="0" y="0">26.37</tspan></text></g></g><g class="slice"><path class="surface" d="M387.5,260L440,260A157.5,157.5 0,0,0 145.66198812631202,182.01533159359826L191.27465875087466,208.01022106239884A105,105 0,0,1 387.5,260Z" style="pointer-events: none; stroke-width: 1; fill: rgb(0, 68, 27); fill-opacity: 1; stroke: rgb(0, 0, 0); stroke-opacity: 1; opacity: 1;"/><g class="slicetext"><text data-notex="1" class="slicetext" text-anchor="middle" x="0" y="0" style="font-family: 'Times New Roman'; font-size: 12px; fill: rgb(0, 0, 0); fill-opacity: 1; white-space: pre;" transform="translate(315.8399589278135,134.1647887040645)rotate(14.839516048395126)"><tspan class="line" dy="0em" x="0" y="0">Health &amp; Safety</tspan><tspan class="line" dy="1.3em" x="0" y="0">41.76</tspan></text></g></g><g class="slice cursor-pointer"><path class="surface" d="M191.27465875087466,208.01022106239884L145.66198812631202,182.01533159359826A157.5,157.5 0,0,0 151.26418418227976,347.0827804256238L195.00945612151986,318.0551869504159A105,105 0,0,1 191.27465875087466,208.01022106239884Z" style="pointer-events: none; stroke-width: 1; fill: rgb(176, 223, 169); fill-opacity: 1; stroke: rgb(0, 0, 0); stroke-opacity: 1;"/><g class="slicetext"><text data-notex="1" class="slicetext" text-anchor="middle" x="0" y="0" style="font-family: 'Times New Roman'; font-size: 12px; fill: rgb(0, 0, 0); fill-opacity: 1; white-space: pre;" transform="translate(158.46849959007977,263.8811700656121)rotate(88.05619438056192)"><tspan class="line" dy="0em" x="0" y="0">Recruitment</tspan><tspan class="line" dy="1.3em" x="0" y="0">17.57</tspan></text></g></g><g class="slice cursor-pointer"><path class="surface" d="M195.00945612151986,318.0551869504159L151.26418418227976,347.0827804256238A157.5,157.5 0,0,0 268.9851903599931,416.91908717678155L273.49012690666206,364.61272478452105A105,105 0,0,1 195.00945612151986,318.0551869504159Z" style="pointer-events: none; stroke-width: 1; fill: rgb(202, 234, 196); fill-opacity: 1; stroke: rgb(0, 0, 0); stroke-opacity: 1;"/><g class="slicetext"><text data-notex="1" class="slicetext" text-anchor="middle" x="0" y="0" style="font-family: 'Times New Roman'; font-size: 12px; fill: rgb(0, 0, 0); fill-opacity: 1; white-space: pre;" transform="translate(219.07216496925773,366.9184340761148)rotate(30.67793220677936)"><tspan class="line" dy="0em" x="0" y="0">Onboarding</tspan><tspan class="line" dy="1.3em" x="0" y="0">14.31</tspan></text></g></g><g class="slice"><path class="surface" d="M273.49012690666206,364.61272478452105L268.9851903599931,416.91908717678155A157.5,157.5 0,0,0 409.5176662087938,353.12766759063305L367.17844413919585,322.0851117270887A105,105 0,0,1 273.49012690666206,364.61272478452105Z" style="pointer-events: none; stroke-width: 1; fill: rgb(187, 228, 180); fill-opacity: 1; stroke: rgb(0, 0, 0); stroke-opacity: 1; opacity: 1;"/><g class="slicetext"><text data-notex="1" class="slicetext" text-anchor="middle" x="0" y="0" style="font-family: 'Times New Roman'; font-size: 12px; fill: rgb(0, 0, 0); fill-opacity: 1; white-space: pre;" transform="translate(333.0798899238974,371.8244034744277)rotate(-24.414558544145507)"><tspan class="line" dy="0em" x="0" y="0">Training Programs</tspan><tspan class="line" dy="1.3em" x="0" y="0">16.3</tspan></text></g></g><g class="slice cursor-pointer"><path class="surface" d="M367.17844413919585,322.0851117270887L409.5176662087938,353.12766759063305A157.5,157.5 0,0,0 440,260.00000000000017L387.5,260.0000000000001A105,105 0,0,1 367.17844413919585,322.0851117270887Z" style="pointer-events: none; stroke-width: 1; fill: rgb(230, 245, 225); fill-opacity: 1; stroke: rgb(0, 0, 0); stroke-opacity: 1;"/><g class="slicetext"><text data-notex="1" class="slicetext" text-anchor="middle" x="0" y="0" style="font-family: 'Times New Roman'; font-size: 12px; fill: rgb(0, 0, 0); fill-opacity: 1; white-space: pre;" transform="translate(414.7072812293769,303.4979913107716)scale(0.6493992472816156)rotate(-71.87581241875807)"><tspan class="line" dy="0em" x="0" y="0">Performance Management</tspan><tspan class="line" dy="1.3em" x="0" y="0">10.07</tspan></text></g></g><g class="slice"><path class="surface" d="M145.66198812631202,182.01533159359826L100.04931750174936,156.02044212479768A210,210 0,0,0 77.4847815114455,305.4836254941299L128.73858613358414,294.11271912059743A157.5,157.5 0,0,1 145.66198812631202,182.01533159359826Z" style="pointer-events: none; stroke-width: 1; fill: rgb(220, 241, 214); fill-opacity: 1; stroke: rgb(0, 0, 0); stroke-opacity: 1; opacity: 1;"/><g class="slicetext"><text data-notex="1" class="slicetext" text-anchor="middle" x="0" y="0" style="font-family: 'Times New Roman'; font-size: 12px; fill: rgb(0, 0, 0); fill-opacity: 1; white-space: pre;" transform="translate(99.39805836691923,232.35700285022887)rotate(-81.41485851414859)"><tspan class="line" dy="0em" x="0" y="0">Job Posting</tspan><tspan class="line" dy="1.3em" x="0" y="0">11.72</tspan></text></g></g><g class="slice"><path class="surface" d="M128.73858613358414,294.11271912059743L77.4847815114455,305.4836254941299A210,210 0,0,0 107.5189122430397,376.11037390083175L151.26418418227976,347.0827804256238A157.5,157.5 0,0,1 128.73858613358414,294.11271912059743Z" style="pointer-events: none; stroke-width: 1; fill: rgb(247, 252, 245); fill-opacity: 1; stroke: rgb(0, 0, 0); stroke-opacity: 1; opacity: 1;"/><g class="slicetext"><text data-notex="1" class="slicetext" text-anchor="middle" x="0" y="0" style="font-family: 'Times New Roman'; font-size: 12px; fill: rgb(0, 0, 0); fill-opacity: 1; white-space: pre;" transform="translate(103.32692645517214,336.19361836451554)scale(0.6522637667310488)rotate(66.96230376962308)"><tspan class="line" dy="0em" x="0" y="0">Candidate Evaluation</tspan><tspan class="line" dy="1.3em" x="0" y="0">5.85</tspan></text></g></g><g class="slice"><path class="surface" d="M151.26418418227976,347.0827804256238L107.5189122430397,376.11037390083175A210,210 0,0,0 179.5249828997288,443.01952314766544L205.26873717479657,397.2646423607491A157.5,157.5 0,0,1 151.26418418227976,347.0827804256238Z" style="pointer-events: none; stroke-width: 1; fill: rgb(240, 249, 237); fill-opacity: 1; stroke: rgb(0, 0, 0); stroke-opacity: 1; opacity: 1;"/><g class="slicetext"><text data-notex="1" class="slicetext" text-anchor="middle" x="0" y="0" style="font-family: 'Times New Roman'; font-size: 12px; fill: rgb(0, 0, 0); fill-opacity: 1; white-space: pre;" transform="translate(159.17416195997032,392.72039934248625)rotate(42.89871012898709)"><tspan class="line" dy="0em" x="0" y="0">Orientation</tspan><tspan class="line" dy="1.3em" x="0" y="0">7.52</tspan></text></g></g><g class="slice"><path class="surface" d="M205.26873717479657,397.2646423607491L179.5249828997288,443.01952314766544A210,210 0,0,0 264.48025381332417,469.2254495690421L268.9851903599931,416.91908717678155A157.5,157.5 0,0,1 205.26873717479657,397.2646423607491Z" style="pointer-events: none; stroke-width: 1; fill: rgb(243, 251, 241); fill-opacity: 1; stroke: rgb(0, 0, 0); stroke-opacity: 1; opacity: 1;"/><g class="slicetext"><text data-notex="1" class="slicetext" text-anchor="middle" x="0" y="0" style="font-family: 'Times New Roman'; font-size: 12px; fill: rgb(0, 0, 0); fill-opacity: 1; white-space: pre;" transform="translate(228.3833684388785,435.43715193583245)rotate(17.143285671432864)"><tspan class="line" dy="0em" x="0" y="0">Mentorship</tspan><tspan class="line" dy="1.3em" x="0" y="0">6.79</tspan></text></g></g><g class="slice"><path class="surface" d="M409.5176662087938,353.12766759063305L451.8568882783917,384.1702234541774A210,210 0,0,0 492.5,260.0000000000002L440,260.00000000000017A157.5,157.5 0,0,1 409.5176662087938,353.12766759063305Z" style="pointer-events: none; stroke-width: 1; fill: rgb(230, 245, 225); fill-opacity: 1; stroke: rgb(0, 0, 0); stroke-opacity: 1; opacity: 1;"/><g class="slicetext"><text data-notex="1" class="slicetext" text-anchor="middle" x="0" y="0" style="font-family: 'Times New Roman'; font-size: 12px; fill: rgb(0, 0, 0); fill-opacity: 1; white-space: pre;" transform="translate(451.8841466919414,315.4424290007853)rotate(-71.87581241875807)"><tspan class="line" dy="0em" x="0" y="0">Feedback</tspan><tspan class="line" dy="1.3em" x="0" y="0">10.07</tspan></text></g></g></g></g><g class="glimages"/><defs id="topdefs-193385"><g class="clips"/></defs><g class="layer-above"><g class="imagelayer"/><g class="shapelayer"/></g><g class="infolayer"><g class="cb4bf09a colorbar" transform="translate(10,50)"><rect class="cbbg" x="571.5" y="63" width="48.015625" height="295" style="fill: rgb(0, 0, 0); fill-opacity: 0; stroke: rgb(68, 68, 68); stroke-opacity: 1; stroke-width: 0;"/><g class="cbfills" transform="translate(0,93)"><rect class="cbfill gradient_filled" style="fill: url('#g193385-cb4bf09a');" x="582" y="0" width="15" height="254"/></g><g class="cblines" transform="translate(0,93)"/><g class="cbaxis crisp" transform="translate(0,-50)"><g class="ycb4bf09atick"><text text-anchor="start" x="600.4" y="4.199999999999999" transform="translate(0,367.6500000000001)" style="font-family: 'Times New Roman'; font-size: 12px; fill: rgb(42, 63, 95); fill-opacity: 1; white-space: pre; opacity: 1;">10</text></g><g class="ycb4bf09atick"><text text-anchor="start" x="600.4" y="4.199999999999999" style="font-family: 'Times New Roman'; font-size: 12px; fill: rgb(42, 63, 95); fill-opacity: 1; white-space: pre; opacity: 1;" transform="translate(0,332.2800000000001)">15</text></g><g class="ycb4bf09atick"><text text-anchor="start" x="600.4" y="4.199999999999999" style="font-family: 'Times New Roman'; font-size: 12px; fill: rgb(42, 63, 95); fill-opacity: 1; white-space: pre; opacity: 1;" transform="translate(0,296.9100000000001)">20</text></g><g class="ycb4bf09atick"><text text-anchor="start" x="600.4" y="4.199999999999999" style="font-family: 'Times New Roman'; font-size: 12px; fill: rgb(42, 63, 95); fill-opacity: 1; white-space: pre; opacity: 1;" transform="translate(0,261.55000000000007)">25</text></g><g class="ycb4bf09atick"><text text-anchor="start" x="600.4" y="4.199999999999999" style="font-family: 'Times New Roman'; font-size: 12px; fill: rgb(42, 63, 95); fill-opacity: 1; white-space: pre; opacity: 1;" transform="translate(0,226.18000000000006)">30</text></g><g class="ycb4bf09atick"><text text-anchor="start" x="600.4" y="4.199999999999999" style="font-family: 'Times New Roman'; font-size: 12px; fill: rgb(42, 63, 95); fill-opacity: 1; white-space: pre; opacity: 1;" transform="translate(0,190.82000000000005)">35</text></g><g class="ycb4bf09atick"><text text-anchor="start" x="600.4" y="4.199999999999999" style="font-family: 'Times New Roman'; font-size: 12px; fill: rgb(42, 63, 95); fill-opacity: 1; white-space: pre; opacity: 1;" transform="translate(0,155.45000000000005)">40</text></g></g><g class="cbtitleunshift" transform="translate(-10,-50)"><g class="cbtitle" transform="translate(-0.5,-0.5)"><text class="ycb4bf09atitle" x="592.25" y="135.75" text-anchor="start" style="opacity: 1; font-family: 'Times New Roman'; font-size: 13px; fill: rgb(42, 63, 95); fill-opacity: 1; white-space: pre;">%</text></g></g><rect class="cboutline" x="582" y="93" width="15" height="254" style="stroke: rgb(68, 68, 68); stroke-opacity: 1; fill: none; stroke-width: 1;"/></g><g class="g-gtitle"><text class="gtitle" x="320" y="25" text-anchor="middle" dy="0em" style="opacity: 1; font-family: 'Times New Roman'; font-size: 16px; fill: rgb(42, 63, 95); fill-opacity: 1; white-space: pre;">Employee Distribution by Category (2021) (%)</text></g></g></svg>