<svg class="main-svg" xmlns="http://www.w3.org/2000/svg" xmlns:xlink="http://www.w3.org/1999/xlink" width="1920" height="1440" style="" viewBox="0 0 640 480"><rect x="0" y="0" width="640" height="480" style="fill: rgb(255, 255, 255); fill-opacity: 1;"/><defs id="defs-679b41"><g class="clips"/><g class="gradients"><linearGradient x1="0" y1="1" x2="0" y2="0" gradientUnits="objectBoundingBox" id="g679b41-cb5c57c9"><stop offset="0%" stop-color="rgb(255, 245, 235)" stop-opacity="1"/><stop offset="12.5%" stop-color="rgb(254, 230, 206)" stop-opacity="1"/><stop offset="25%" stop-color="rgb(253, 208, 162)" stop-opacity="1"/><stop offset="37.5%" stop-color="rgb(253, 174, 107)" stop-opacity="1"/><stop offset="50%" stop-color="rgb(253, 141, 60)" stop-opacity="1"/><stop offset="62.5%" stop-color="rgb(241, 105, 19)" stop-opacity="1"/><stop offset="75%" stop-color="rgb(217, 72, 1)" stop-opacity="1"/><stop offset="87.5%" stop-color="rgb(166, 54, 3)" stop-opacity="1"/><stop offset="100%" stop-color="rgb(127, 39, 4)" stop-opacity="1"/></linearGradient></g><g class="patterns"/></defs><g class="bglayer"/><g class="layer-below"><g class="imagelayer"/><g class="shapelayer"/></g><g class="cartesianlayer"/><g class="polarlayer"/><g class="smithlayer"/><g class="ternarylayer"/><g class="geolayer"/><g class="funnelarealayer"/><g class="pielayer"/><g class="iciclelayer"/><g class="treemaplayer"/><g class="sunburstlayer"><g class="trace sunburst" stroke-linejoin="round" style="opacity: 1;"><g class="slice"><path class="surface" d="M282.5,260A0,0 0,1,0 282.5,260A0,0 0,1,0 282.5,260ZM324.5,260A42,42 0,1,1 240.5,260A42,42 0,1,1 324.5,260Z" style="pointer-events: none; stroke-width: 1; fill: rgb(255, 255, 255); fill-opacity: 1; stroke: rgb(0, 0, 0); stroke-opacity: 1;"/><g class="slicetext"><text data-notex="1" class="slicetext" text-anchor="middle" x="0" y="0" style="font-family: 'Times New Roman'; font-size: 12px; fill: rgb(0, 0, 0); fill-opacity: 1; white-space: pre;" transform="translate(282.5,264)">100</text></g></g><g class="slice cursor-pointer"><path class="surface" d="M324.5,260L366.5,260A84,84 0,0,0 205.89874678939833,225.52902660838708L244.19937339469917,242.76451330419354A42,42 0,0,1 324.5,260Z" style="pointer-events: none; stroke-width: 1; fill: rgb(127, 39, 4); fill-opacity: 1; stroke: rgb(0, 0, 0); stroke-opacity: 1;"/><g class="slicetext"><text data-notex="1" class="slicetext" text-anchor="middle" x="0" y="0" style="font-family: 'Times New Roman'; font-size: 12px; fill: rgb(0, 0, 0); fill-opacity: 1; white-space: pre;" transform="translate(295.0153458577086,201.6906448716309)scale(0.873203180607061)rotate(12.114000000000033)"><tspan class="line" dy="0em" x="0" y="0">Workplace Wellbeing</tspan><tspan class="line" dy="1.3em" x="0" y="0">43.27</tspan></text></g></g><g class="slice cursor-pointer"><path class="surface" d="M244.19937339469917,242.76451330419354L205.89874678939833,225.52902660838708A84,84 0,0,0 302.4684630669375,341.59203688316865L292.48423153346874,300.79601844158435A42,42 0,0,1 244.19937339469917,242.76451330419354Z" style="pointer-events: none; stroke-width: 1; fill: rgb(198, 65, 2); fill-opacity: 1; stroke: rgb(0, 0, 0); stroke-opacity: 1;"/><g class="slicetext"><text data-notex="1" class="slicetext" text-anchor="middle" x="0" y="0" style="font-family: 'Times New Roman'; font-size: 12px; fill: rgb(0, 0, 0); fill-opacity: 1; white-space: pre;" transform="translate(241.52844350290115,294.0902030457994)scale(0.9025686113519126)rotate(50.23799999999994)"><tspan class="line" dy="0em" x="0" y="0">Employee Lifecycle</tspan><tspan class="line" dy="1.3em" x="0" y="0">35.55</tspan></text></g></g><g class="slice cursor-pointer"><path class="surface" d="M292.48423153346874,300.79601844158435L302.4684630669375,341.59203688316865A84,84 0,0,0 366.5,259.99999999999994L324.5,260A42,42 0,0,1 292.48423153346874,300.79601844158435Z" style="pointer-events: none; stroke-width: 1; fill: rgb(253, 162, 90); fill-opacity: 1; stroke: rgb(0, 0, 0); stroke-opacity: 1;"/><g class="slicetext"><text data-notex="1" class="slicetext" text-anchor="middle" x="0" y="0" style="font-family: 'Times New Roman'; font-size: 12px; fill: rgb(0, 0, 0); fill-opacity: 1; white-space: pre;" transform="translate(330.3457352470379,297.8291413885199)scale(0.6578372574258204)rotate(-51.875999999999976)"><tspan class="line" dy="0em" x="0" y="0">Employee Development</tspan><tspan class="line" dy="1.3em" x="0" y="0">21.18</tspan></text></g></g><g class="slice cursor-pointer"><path class="surface" d="M366.5,260L408.5,260A126,126 0,0,0 167.59812018409747,208.29353991258063L205.89874678939833,225.52902660838708A84,84 0,0,1 366.5,260Z" style="pointer-events: none; stroke-width: 1; fill: rgb(127, 39, 4); fill-opacity: 1; stroke: rgb(0, 0, 0); stroke-opacity: 1;"/><g class="slicetext"><text data-notex="1" class="slicetext" text-anchor="middle" x="0" y="0" style="font-family: 'Times New Roman'; font-size: 12px; fill: rgb(0, 0, 0); fill-opacity: 1; white-space: pre;" transform="translate(304.3236652861447,158.32291781303954)rotate(12.114000000000033)"><tspan class="line" dy="0em" x="0" y="0">Work-Life Balance</tspan><tspan class="line" dy="1.3em" x="0" y="0">43.27</tspan></text></g></g><g class="slice cursor-pointer"><path class="surface" d="M205.89874678939833,225.52902660838708L167.59812018409747,208.29353991258063A126,126 0,0,0 266.7080125708977,385.0064523656242L271.9720083805985,343.3376349104161A84,84 0,0,1 205.89874678939833,225.52902660838708Z" style="pointer-events: none; stroke-width: 1; fill: rgb(237, 100, 16); fill-opacity: 1; stroke: rgb(0, 0, 0); stroke-opacity: 1;"/><g class="slicetext"><text data-notex="1" class="slicetext" text-anchor="middle" x="0" y="0" style="font-family: 'Times New Roman'; font-size: 12px; fill: rgb(0, 0, 0); fill-opacity: 1; white-space: pre;" transform="translate(196.42157224654673,308.27730805317714)rotate(60.71399999999994)"><tspan class="line" dy="0em" x="0" y="0">Onboarding</tspan><tspan class="line" dy="1.3em" x="0" y="0">29.73</tspan></text></g></g><g class="slice"><path class="surface" d="M271.9720083805985,343.3376349104161L266.7080125708977,385.0064523656242A126,126 0,0,0 312.4526946004063,382.38805532475294L302.4684630669375,341.59203688316865A84,84 0,0,1 271.9720083805985,343.3376349104161Z" style="pointer-events: none; stroke-width: 1; fill: rgb(255, 243, 231); fill-opacity: 1; stroke: rgb(0, 0, 0); stroke-opacity: 1; opacity: 1;"/><g class="slicetext"><text data-notex="1" class="slicetext" text-anchor="middle" x="0" y="0" style="font-family: 'Times New Roman'; font-size: 12px; fill: rgb(0, 0, 0); fill-opacity: 1; white-space: pre;" transform="translate(290.983139776906,364.2603857966361)scale(0.6600357897296726)rotate(86.72399999999993)"><tspan class="line" dy="0em" x="0" y="0">Recruitment</tspan><tspan class="line" dy="1.3em" x="0" y="0">5.82</tspan></text></g></g><g class="slice cursor-pointer"><path class="surface" d="M302.4684630669375,341.59203688316865L312.4526946004063,382.38805532475294A126,126 0,0,0 394.658797923063,317.4143191935036L357.27253194870866,298.27621279566904A84,84 0,0,1 302.4684630669375,341.59203688316865Z" style="pointer-events: none; stroke-width: 1; fill: rgb(253, 213, 171); fill-opacity: 1; stroke: rgb(0, 0, 0); stroke-opacity: 1;"/><g class="slicetext"><text data-notex="1" class="slicetext" text-anchor="middle" x="0" y="0" style="font-family: 'Times New Roman'; font-size: 12px; fill: rgb(0, 0, 0); fill-opacity: 1; white-space: pre;" transform="translate(345.6396153866676,340.11935966968684)scale(0.8837447027512272)rotate(-38.322)"><tspan class="line" dy="0em" x="0" y="0">Training Programs</tspan><tspan class="line" dy="1.3em" x="0" y="0">13.65</tspan></text></g></g><g class="slice"><path class="surface" d="M357.27253194870866,298.27621279566904L394.658797923063,317.4143191935036A126,126 0,0,0 408.5,259.99999999999994L366.5,259.99999999999994A84,84 0,0,1 357.27253194870866,298.27621279566904Z" style="pointer-events: none; stroke-width: 1; fill: rgb(254, 237, 220); fill-opacity: 1; stroke: rgb(0, 0, 0); stroke-opacity: 1; opacity: 1;"/><g class="slicetext"><text data-notex="1" class="slicetext" text-anchor="middle" x="0" y="0" style="font-family: 'Times New Roman'; font-size: 12px; fill: rgb(0, 0, 0); fill-opacity: 1; white-space: pre;" transform="translate(394.7215844802564,287.1884364709746)scale(0.39857723778374593)rotate(-76.44600000000003)"><tspan class="line" dy="0em" x="0" y="0">Performance Management</tspan><tspan class="line" dy="1.3em" x="0" y="0">7.53</tspan></text></g></g><g class="slice cursor-pointer"><path class="surface" d="M408.5,260L450.5,260A168,168 0,0,0 129.29749357879663,191.05805321677417L167.59812018409747,208.29353991258063A126,126 0,0,1 408.5,260Z" style="pointer-events: none; stroke-width: 1; fill: rgb(127, 39, 4); fill-opacity: 1; stroke: rgb(0, 0, 0); stroke-opacity: 1;"/><g class="slicetext"><text data-notex="1" class="slicetext" text-anchor="middle" x="0" y="0" style="font-family: 'Times New Roman'; font-size: 12px; fill: rgb(0, 0, 0); fill-opacity: 1; white-space: pre;" transform="translate(313.16874527220847,117.11343659614192)rotate(12.114000000000033)"><tspan class="line" dy="0em" x="0" y="0">Employee Assistance</tspan><tspan class="line" dy="1.3em" x="0" y="0">43.27</tspan></text></g></g><g class="slice cursor-pointer"><path class="surface" d="M167.59812018409747,208.29353991258063L129.29749357879663,191.05805321677417A168,168 0,0,0 209.63470558356187,411.3758529938173L227.8510291876714,373.53188974536295A126,126 0,0,1 167.59812018409747,208.29353991258063Z" style="pointer-events: none; stroke-width: 1; fill: rgb(252, 138, 57); fill-opacity: 1; stroke: rgb(0, 0, 0); stroke-opacity: 1;"/><g class="slicetext"><text data-notex="1" class="slicetext" text-anchor="middle" x="0" y="0" style="font-family: 'Times New Roman'; font-size: 12px; fill: rgb(0, 0, 0); fill-opacity: 1; white-space: pre;" transform="translate(149.7384761639969,308.41048111991915)rotate(69.96600000000001)"><tspan class="line" dy="0em" x="0" y="0">Mentorship</tspan><tspan class="line" dy="1.3em" x="0" y="0">24.59</tspan></text></g></g><g class="slice"><path class="surface" d="M227.8510291876714,373.53188974536295L209.63470558356187,411.3758529938173A168,168 0,0,0 261.44401676119696,426.6752698208323L266.7080125708977,385.0064523656242A126,126 0,0,1 227.8510291876714,373.53188974536295Z" style="pointer-events: none; stroke-width: 1; fill: rgb(255, 245, 235); fill-opacity: 1; stroke: rgb(0, 0, 0); stroke-opacity: 1; opacity: 1;"/><g class="slicetext"><text data-notex="1" class="slicetext" text-anchor="middle" x="0" y="0" style="font-family: 'Times New Roman'; font-size: 12px; fill: rgb(0, 0, 0); fill-opacity: 1; white-space: pre;" transform="translate(239.7786226103815,404.6699021369022)scale(0.8130588878884634)rotate(16.451999999999998)"><tspan class="line" dy="0em" x="0" y="0">Orientation</tspan><tspan class="line" dy="1.3em" x="0" y="0">5.14</tspan></text></g></g><g class="slice"><path class="surface" d="M312.4526946004063,382.38805532475294L322.43692613387503,423.1840737663373A168,168 0,0,0 398.1180432754852,381.8871119895292L369.2135324566139,351.4153339921469A126,126 0,0,1 312.4526946004063,382.38805532475294Z" style="pointer-events: none; stroke-width: 1; fill: rgb(254, 235, 216); fill-opacity: 1; stroke: rgb(0, 0, 0); stroke-opacity: 1; opacity: 1;"/><g class="slicetext"><text data-notex="1" class="slicetext" text-anchor="middle" x="0" y="0" style="font-family: 'Times New Roman'; font-size: 12px; fill: rgb(0, 0, 0); fill-opacity: 1; white-space: pre;" transform="translate(352.95929859336417,389.1242309635165)scale(0.8868625236634535)rotate(-28.620000000000005)"><tspan class="line" dy="0em" x="0" y="0">Online Learning</tspan><tspan class="line" dy="1.3em" x="0" y="0">8.26</tspan></text></g></g><g class="slice"><path class="surface" d="M369.2135324566139,351.4153339921469L398.1180432754852,381.8871119895292A168,168 0,0,0 432.0450638974173,336.55242559133814L394.658797923063,317.4143191935036A126,126 0,0,1 369.2135324566139,351.4153339921469Z" style="pointer-events: none; stroke-width: 1; fill: rgb(255, 244, 233); fill-opacity: 1; stroke: rgb(0, 0, 0); stroke-opacity: 1; opacity: 1;"/><g class="slicetext"><text data-notex="1" class="slicetext" text-anchor="middle" x="0" y="0" style="font-family: 'Times New Roman'; font-size: 12px; fill: rgb(0, 0, 0); fill-opacity: 1; white-space: pre;" transform="translate(406.08614443769704,352.6127953158424)scale(0.609519712308734)rotate(-53.190000000000055)"><tspan class="line" dy="0em" x="0" y="0">Skill Workshops</tspan><tspan class="line" dy="1.3em" x="0" y="0">5.39</tspan></text></g></g><g class="slice"><path class="surface" d="M450.5,260L492.5,260A210,210 0,0,0 276.95887375071874,50.0731176816806L278.06709900057496,92.05849414534447A168,168 0,0,1 450.5,260Z" style="pointer-events: none; stroke-width: 1; fill: rgb(250, 132, 50); fill-opacity: 1; stroke: rgb(0, 0, 0); stroke-opacity: 1; opacity: 1;"/><g class="slicetext"><text data-notex="1" class="slicetext" text-anchor="middle" x="0" y="0" style="font-family: 'Times New Roman'; font-size: 12px; fill: rgb(0, 0, 0); fill-opacity: 1; white-space: pre;" transform="translate(414.5173400872397,124.21687128529672)rotate(44.243999999999915)"><tspan class="line" dy="0em" x="0" y="0">Financial Wellness</tspan><tspan class="line" dy="1.3em" x="0" y="0">25.42</tspan></text></g></g><g class="slice"><path class="surface" d="M278.06709900057496,92.05849414534447L276.95887375071874,50.0731176816806A210,210 0,0,0 90.9968669734958,173.8225665209677L129.29749357879663,191.05805321677417A168,168 0,0,1 278.06709900057496,92.05849414534447Z" style="pointer-events: none; stroke-width: 1; fill: rgb(253, 185, 125); fill-opacity: 1; stroke: rgb(0, 0, 0); stroke-opacity: 1; opacity: 1;"/><g class="slicetext"><text data-notex="1" class="slicetext" text-anchor="middle" x="0" y="0" style="font-family: 'Times New Roman'; font-size: 12px; fill: rgb(0, 0, 0); fill-opacity: 1; white-space: pre;" transform="translate(177.6704455871563,102.76562644258853)rotate(-33.64200000000005)"><tspan class="line" dy="0em" x="0" y="0">Counseling Services</tspan><tspan class="line" dy="1.3em" x="0" y="0">17.85</tspan></text></g></g><g class="slice"><path class="surface" d="M129.29749357879663,191.05805321677417L90.9968669734958,173.8225665209677A210,210 0,0,0 92.71163987626383,349.89092480079967L130.66931190101104,331.91273984063974A168,168 0,0,1 129.29749357879663,191.05805321677417Z" style="pointer-events: none; stroke-width: 1; fill: rgb(253, 212, 170); fill-opacity: 1; stroke: rgb(0, 0, 0); stroke-opacity: 1; opacity: 1;"/><g class="slicetext"><text data-notex="1" class="slicetext" text-anchor="middle" x="0" y="0" style="font-family: 'Times New Roman'; font-size: 12px; fill: rgb(0, 0, 0); fill-opacity: 1; white-space: pre;" transform="translate(99.66763179904304,261.4446958215779)rotate(89.44200000000001)"><tspan class="line" dy="0em" x="0" y="0">Buddy System</tspan><tspan class="line" dy="1.3em" x="0" y="0">13.77</tspan></text></g></g><g class="slice"><path class="surface" d="M130.66931190101104,331.91273984063974L92.71163987626383,349.89092480079967A210,210 0,0,0 134.47481067210418,408.95819321017757L164.07984853768335,379.1665545681421A168,168 0,0,1 130.66931190101104,331.91273984063974Z" style="pointer-events: none; stroke-width: 1; fill: rgb(255, 244, 233); fill-opacity: 1; stroke: rgb(0, 0, 0); stroke-opacity: 1; opacity: 1;"/><g class="slicetext"><text data-notex="1" class="slicetext" text-anchor="middle" x="0" y="0" style="font-family: 'Times New Roman'; font-size: 12px; fill: rgb(0, 0, 0); fill-opacity: 1; white-space: pre;" transform="translate(124.0779564139096,371.8615374017151)scale(0.7119016897932909)rotate(54.73799999999994)"><tspan class="line" dy="0em" x="0" y="0">Learning Modules</tspan><tspan class="line" dy="1.3em" x="0" y="0">5.51</tspan></text></g></g><g class="slice"><path class="surface" d="M164.07984853768335,379.1665545681421L134.47481067210418,408.95819321017757A210,210 0,0,0 191.41838197945233,449.21981624227163L209.63470558356187,411.3758529938173A168,168 0,0,1 164.07984853768335,379.1665545681421Z" style="pointer-events: none; stroke-width: 1; fill: rgb(255, 244, 234); fill-opacity: 1; stroke: rgb(0, 0, 0); stroke-opacity: 1; opacity: 1;"/><g class="slicetext"><text data-notex="1" class="slicetext" text-anchor="middle" x="0" y="0" style="font-family: 'Times New Roman'; font-size: 12px; fill: rgb(0, 0, 0); fill-opacity: 1; white-space: pre;" transform="translate(169.1674230463148,420.1203175607827)scale(0.5993751236935507)rotate(35.261999999999944)"><tspan class="line" dy="0em" x="0" y="0">Shadowing Programs</tspan><tspan class="line" dy="1.3em" x="0" y="0">5.31</tspan></text></g></g></g></g><g class="glimages"/><defs id="topdefs-679b41"><g class="clips"/></defs><g class="layer-above"><g class="imagelayer"/><g class="shapelayer"/></g><g class="infolayer"><g class="cb5c57c9 colorbar" transform="translate(10,50)"><rect class="cbbg" x="571.5" y="63" width="48.015625" height="295" style="fill: rgb(0, 0, 0); fill-opacity: 0; stroke: rgb(68, 68, 68); stroke-opacity: 1; stroke-width: 0;"/><g class="cbfills" transform="translate(0,93)"><rect class="cbfill gradient_filled" style="fill: url('#g679b41-cb5c57c9');" x="582" y="0" width="15" height="254"/></g><g class="cblines" transform="translate(0,93)"/><g class="cbaxis crisp" transform="translate(0,-50)"><g class="ycb5c57c9tick"><text text-anchor="start" x="600.4" y="4.199999999999999" transform="translate(0,364.63000000000005)" style="font-family: 'Times New Roman'; font-size: 12px; fill: rgb(42, 63, 95); fill-opacity: 1; white-space: pre; opacity: 1;">10</text></g><g class="ycb5c57c9tick"><text text-anchor="start" x="600.4" y="4.199999999999999" style="font-family: 'Times New Roman'; font-size: 12px; fill: rgb(42, 63, 95); fill-opacity: 1; white-space: pre; opacity: 1;" transform="translate(0,298.01000000000005)">20</text></g><g class="ycb5c57c9tick"><text text-anchor="start" x="600.4" y="4.199999999999999" style="font-family: 'Times New Roman'; font-size: 12px; fill: rgb(42, 63, 95); fill-opacity: 1; white-space: pre; opacity: 1;" transform="translate(0,231.40000000000006)">30</text></g><g class="ycb5c57c9tick"><text text-anchor="start" x="600.4" y="4.199999999999999" style="font-family: 'Times New Roman'; font-size: 12px; fill: rgb(42, 63, 95); fill-opacity: 1; white-space: pre; opacity: 1;" transform="translate(0,164.78000000000006)">40</text></g></g><g class="cbtitleunshift" transform="translate(-10,-50)"><g class="cbtitle" transform="translate(-0.5,-0.5)"><text class="ycb5c57c9title" x="592.25" y="135.75" text-anchor="start" style="opacity: 1; font-family: 'Times New Roman'; font-size: 13px; fill: rgb(42, 63, 95); fill-opacity: 1; white-space: pre;">%</text></g></g><rect class="cboutline" x="582" y="93" width="15" height="254" style="stroke: rgb(68, 68, 68); stroke-opacity: 1; fill: none; stroke-width: 1;"/></g><g class="g-gtitle"><text class="gtitle" x="320" y="25" text-anchor="middle" dy="0em" style="opacity: 1; font-family: 'Times New Roman'; font-size: 16px; fill: rgb(42, 63, 95); fill-opacity: 1; white-space: pre;">Employee Distribution by Category (2021) (%)</text></g></g></svg>