<svg class="main-svg" xmlns="http://www.w3.org/2000/svg" xmlns:xlink="http://www.w3.org/1999/xlink" width="1920" height="1440" style="" viewBox="0 0 640 480"><rect x="0" y="0" width="640" height="480" style="fill: rgb(255, 255, 255); fill-opacity: 1;"/><defs id="defs-50eac6"><g class="clips"/><g class="gradients"><linearGradient x1="0" y1="1" x2="0" y2="0" gradientUnits="objectBoundingBox" id="g50eac6-cbf0bcb6"><stop offset="0%" stop-color="rgb(255, 245, 235)" stop-opacity="1"/><stop offset="12.5%" stop-color="rgb(254, 230, 206)" stop-opacity="1"/><stop offset="25%" stop-color="rgb(253, 208, 162)" stop-opacity="1"/><stop offset="37.5%" stop-color="rgb(253, 174, 107)" stop-opacity="1"/><stop offset="50%" stop-color="rgb(253, 141, 60)" stop-opacity="1"/><stop offset="62.5%" stop-color="rgb(241, 105, 19)" stop-opacity="1"/><stop offset="75%" stop-color="rgb(217, 72, 1)" stop-opacity="1"/><stop offset="87.5%" stop-color="rgb(166, 54, 3)" stop-opacity="1"/><stop offset="100%" stop-color="rgb(127, 39, 4)" stop-opacity="1"/></linearGradient></g><g class="patterns"/></defs><g class="bglayer"/><g class="layer-below"><g class="imagelayer"/><g class="shapelayer"/></g><g class="cartesianlayer"/><g class="polarlayer"/><g class="smithlayer"/><g class="ternarylayer"/><g class="geolayer"/><g class="funnelarealayer"/><g class="pielayer"/><g class="iciclelayer"/><g class="treemaplayer"/><g class="sunburstlayer"><g class="trace sunburst" stroke-linejoin="round" style="opacity: 1;"><g class="slice"><path class="surface" d="M282.5,260A0,0 0,1,0 282.5,260A0,0 0,1,0 282.5,260ZM324.5,260A42,42 0,1,1 240.5,260A42,42 0,1,1 324.5,260Z" style="pointer-events: none; stroke-width: 1; fill: rgb(255, 255, 255); fill-opacity: 1; stroke: rgb(0, 0, 0); stroke-opacity: 1;"/><g class="slicetext"><text data-notex="1" class="slicetext" text-anchor="middle" x="0" y="0" style="font-family: 'Times New Roman'; font-size: 12px; fill: rgb(0, 0, 0); fill-opacity: 1; white-space: pre;" transform="translate(282.5,264)">99.99</text></g></g><g class="slice cursor-pointer"><path class="surface" d="M324.5,260L366.5,260A84,84 0,0,0 199.57187875295028,246.6236512293295L241.03593937647514,253.31182561466477A42,42 0,0,1 324.5,260Z" style="pointer-events: none; stroke-width: 1; fill: rgb(127, 39, 4); fill-opacity: 1; stroke: rgb(0, 0, 0); stroke-opacity: 1;"/><g class="slicetext"><text data-notex="1" class="slicetext" text-anchor="middle" x="0" y="0" style="font-family: 'Times New Roman'; font-size: 12px; fill: rgb(0, 0, 0); fill-opacity: 1; white-space: pre;" transform="translate(287.26361445675025,200.55319390638581)scale(0.873203180607061)rotate(4.581458145814622)"><tspan class="line" dy="0em" x="0" y="0">Workplace Wellbeing</tspan><tspan class="line" dy="1.3em" x="0" y="0">47.45</tspan></text></g></g><g class="slice cursor-pointer"><path class="surface" d="M241.03593937647514,253.31182561466477L199.57187875295028,246.6236512293295A84,84 0,0,0 295.4723354782717,342.99227983517005L288.98616773913585,301.496139917585A42,42 0,0,1 241.03593937647514,253.31182561466477Z" style="pointer-events: none; stroke-width: 1; fill: rgb(245, 116, 32); fill-opacity: 1; stroke: rgb(0, 0, 0); stroke-opacity: 1;"/><g class="slicetext"><text data-notex="1" class="slicetext" text-anchor="middle" x="0" y="0" style="font-family: 'Times New Roman'; font-size: 12px; fill: rgb(0, 0, 0); fill-opacity: 1; white-space: pre;" transform="translate(244.72007840608958,297.59638160590424)scale(0.9025686113519126)rotate(45.13951395139509)"><tspan class="line" dy="0em" x="0" y="0">Employee Lifecycle</tspan><tspan class="line" dy="1.3em" x="0" y="0">30.01</tspan></text></g></g><g class="slice cursor-pointer"><path class="surface" d="M288.98616773913585,301.496139917585L295.4723354782717,342.99227983517005A84,84 0,0,0 366.5,260L324.5,260A42,42 0,0,1 288.98616773913585,301.496139917585Z" style="pointer-events: none; stroke-width: 1; fill: rgb(253, 165, 94); fill-opacity: 1; stroke: rgb(0, 0, 0); stroke-opacity: 1;"/><g class="slicetext"><text data-notex="1" class="slicetext" text-anchor="middle" x="0" y="0" style="font-family: 'Times New Roman'; font-size: 12px; fill: rgb(0, 0, 0); fill-opacity: 1; white-space: pre;" transform="translate(327.470416948549,298.7922314634456)scale(0.6897635879751246)rotate(-49.44194419441942)"><tspan class="line" dy="0em" x="0" y="0">Employee Development</tspan><tspan class="line" dy="1.3em" x="0" y="0">22.53</tspan></text></g></g><g class="slice cursor-pointer"><path class="surface" d="M366.5,260L408.5,260A126,126 0,0,0 158.1078181294254,239.93547684399425L199.57187875295028,246.6236512293295A84,84 0,0,1 366.5,260Z" style="pointer-events: none; stroke-width: 1; fill: rgb(127, 39, 4); fill-opacity: 1; stroke: rgb(0, 0, 0); stroke-opacity: 1;"/><g class="slicetext"><text data-notex="1" class="slicetext" text-anchor="middle" x="0" y="0" style="font-family: 'Times New Roman'; font-size: 12px; fill: rgb(0, 0, 0); fill-opacity: 1; white-space: pre;" transform="translate(290.87923187081054,155.43264326699415)rotate(4.581458145814622)"><tspan class="line" dy="0em" x="0" y="0">Health &amp; Safety</tspan><tspan class="line" dy="1.3em" x="0" y="0">47.45</tspan></text></g></g><g class="slice cursor-pointer"><path class="surface" d="M199.57187875295028,246.6236512293295L158.1078181294254,239.93547684399425A126,126 0,0,0 230.6984456792701,374.8590395657062L247.96563045284674,336.5726930438042A84,84 0,0,1 199.57187875295028,246.6236512293295Z" style="pointer-events: none; stroke-width: 1; fill: rgb(253, 176, 110); fill-opacity: 1; stroke: rgb(0, 0, 0); stroke-opacity: 1;"/><g class="slicetext"><text data-notex="1" class="slicetext" text-anchor="middle" x="0" y="0" style="font-family: 'Times New Roman'; font-size: 12px; fill: rgb(0, 0, 0); fill-opacity: 1; white-space: pre;" transform="translate(195.5879059828976,306.7598343766335)rotate(61.719171917191716)"><tspan class="line" dy="0em" x="0" y="0">Onboarding</tspan><tspan class="line" dy="1.3em" x="0" y="0">20.8</tspan></text></g></g><g class="slice"><path class="surface" d="M247.96563045284674,336.5726930438042L230.6984456792701,374.8590395657062A126,126 0,0,0 301.9585032174075,384.4884197527551L295.4723354782717,342.99227983517005A84,84 0,0,1 247.96563045284674,336.5726930438042Z" style="pointer-events: none; stroke-width: 1; fill: rgb(254, 234, 214); fill-opacity: 1; stroke: rgb(0, 0, 0); stroke-opacity: 1; opacity: 1;"/><g class="slicetext"><text data-notex="1" class="slicetext" text-anchor="middle" x="0" y="0" style="font-family: 'Times New Roman'; font-size: 12px; fill: rgb(0, 0, 0); fill-opacity: 1; white-space: pre;" transform="translate(268.0829293961657,364.49169491456064)scale(0.8972779637375056)rotate(7.695769576957673)"><tspan class="line" dy="0em" x="0" y="0">Recruitment</tspan><tspan class="line" dy="1.3em" x="0" y="0">9.21</tspan></text></g></g><g class="slice cursor-pointer"><path class="surface" d="M295.4723354782717,342.99227983517005L301.9585032174075,384.4884197527551A126,126 0,0,0 390.2586665867756,325.29984514101193L354.33911105785035,303.533230094008A84,84 0,0,1 295.4723354782717,342.99227983517005Z" style="pointer-events: none; stroke-width: 1; fill: rgb(253, 216, 179); fill-opacity: 1; stroke: rgb(0, 0, 0); stroke-opacity: 1;"/><g class="slicetext"><text data-notex="1" class="slicetext" text-anchor="middle" x="0" y="0" style="font-family: 'Times New Roman'; font-size: 12px; fill: rgb(0, 0, 0); fill-opacity: 1; white-space: pre;" transform="translate(338.96874116441325,344.506134351762)scale(0.8944008949800911)rotate(-33.83438343834382)"><tspan class="line" dy="0em" x="0" y="0">Training Programs</tspan><tspan class="line" dy="1.3em" x="0" y="0">13.86</tspan></text></g></g><g class="slice"><path class="surface" d="M354.33911105785035,303.533230094008L390.2586665867756,325.29984514101193A126,126 0,0,0 408.5,260.00000000000006L366.5,260A84,84 0,0,1 354.33911105785035,303.533230094008Z" style="pointer-events: none; stroke-width: 1; fill: rgb(254, 235, 217); fill-opacity: 1; stroke: rgb(0, 0, 0); stroke-opacity: 1; opacity: 1;"/><g class="slicetext"><text data-notex="1" class="slicetext" text-anchor="middle" x="0" y="0" style="font-family: 'Times New Roman'; font-size: 12px; fill: rgb(0, 0, 0); fill-opacity: 1; white-space: pre;" transform="translate(391.91465238693377,290.71854764844)scale(0.4516264025466125)rotate(-74.3924392439244)"><tspan class="line" dy="0em" x="0" y="0">Performance Management</tspan><tspan class="line" dy="1.3em" x="0" y="0">8.67</tspan></text></g></g><g class="slice cursor-pointer"><path class="surface" d="M408.5,260L450.5,260A168,168 0,0,0 116.64375750590054,233.24730245865902L158.1078181294254,239.93547684399425A126,126 0,0,1 408.5,260Z" style="pointer-events: none; stroke-width: 1; fill: rgb(127, 39, 4); fill-opacity: 1; stroke: rgb(0, 0, 0); stroke-opacity: 1;"/><g class="slicetext"><text data-notex="1" class="slicetext" text-anchor="middle" x="0" y="0" style="font-family: 'Times New Roman'; font-size: 12px; fill: rgb(0, 0, 0); fill-opacity: 1; white-space: pre;" transform="translate(294.1712386525466,114.35054256604181)rotate(4.581458145814622)"><tspan class="line" dy="0em" x="0" y="0">Emergency Response</tspan><tspan class="line" dy="1.3em" x="0" y="0">47.45</tspan></text></g></g><g class="slice"><path class="surface" d="M158.1078181294254,239.93547684399425L116.64375750590054,233.24730245865902A168,168 0,0,0 159.86141378175745,374.82063042149997L190.52106033631807,346.11547281612496A126,126 0,0,1 158.1078181294254,239.93547684399425Z" style="pointer-events: none; stroke-width: 1; fill: rgb(253, 214, 173); fill-opacity: 1; stroke: rgb(0, 0, 0); stroke-opacity: 1; opacity: 1;"/><g class="slicetext"><text data-notex="1" class="slicetext" text-anchor="middle" x="0" y="0" style="font-family: 'Times New Roman'; font-size: 12px; fill: rgb(0, 0, 0); fill-opacity: 1; white-space: pre;" transform="translate(147.34475911989736,301.25842648673233)rotate(73.02430243024298)"><tspan class="line" dy="0em" x="0" y="0">Mentorship</tspan><tspan class="line" dy="1.3em" x="0" y="0">14.52</tspan></text></g></g><g class="slice"><path class="surface" d="M190.52106033631807,346.11547281612496L159.86141378175745,374.82063042149997A168,168 0,0,0 213.43126090569348,413.1453860876083L230.6984456792701,374.8590395657062A126,126 0,0,1 190.52106033631807,346.11547281612496Z" style="pointer-events: none; stroke-width: 1; fill: rgb(255, 242, 230); fill-opacity: 1; stroke: rgb(0, 0, 0); stroke-opacity: 1; opacity: 1;"/><g class="slicetext"><text data-notex="1" class="slicetext" text-anchor="middle" x="0" y="0" style="font-family: 'Times New Roman'; font-size: 12px; fill: rgb(0, 0, 0); fill-opacity: 1; white-space: pre;" transform="translate(196.7473447876466,379.86395086817885)scale(0.9612797497720452)rotate(35.58055805580557)"><tspan class="line" dy="0em" x="0" y="0">Orientation</tspan><tspan class="line" dy="1.3em" x="0" y="0">6.28</tspan></text></g></g><g class="slice"><path class="surface" d="M301.9585032174075,384.4884197527551L308.44467095654335,425.9845596703401A168,168 0,0,0 381.1496792932138,395.9861786188069L356.4872594699103,361.9896339641052A126,126 0,0,1 301.9585032174075,384.4884197527551Z" style="pointer-events: none; stroke-width: 1; fill: rgb(255, 239, 223); fill-opacity: 1; stroke: rgb(0, 0, 0); stroke-opacity: 1; opacity: 1;"/><g class="slicetext"><text data-notex="1" class="slicetext" text-anchor="middle" x="0" y="0" style="font-family: 'Times New Roman'; font-size: 12px; fill: rgb(0, 0, 0); fill-opacity: 1; white-space: pre;" transform="translate(339.2318440662228,397.8469067048022)scale(0.8133252190898759)rotate(-22.421242124212426)"><tspan class="line" dy="0em" x="0" y="0">Skill Workshops</tspan><tspan class="line" dy="1.3em" x="0" y="0">7.52</tspan></text></g></g><g class="slice"><path class="surface" d="M356.4872594699103,361.9896339641052L381.1496792932138,395.9861786188069A168,168 0,0,0 426.17822211570075,347.0664601880159L390.2586665867756,325.29984514101193A126,126 0,0,1 356.4872594699103,361.9896339641052Z" style="pointer-events: none; stroke-width: 1; fill: rgb(255, 242, 229); fill-opacity: 1; stroke: rgb(0, 0, 0); stroke-opacity: 1; opacity: 1;"/><g class="slicetext"><text data-notex="1" class="slicetext" text-anchor="middle" x="0" y="0" style="font-family: 'Times New Roman'; font-size: 12px; fill: rgb(0, 0, 0); fill-opacity: 1; white-space: pre;" transform="translate(394.28377768395814,362.8922647505124)scale(0.7083910920565515)rotate(-47.371737173717406)"><tspan class="line" dy="0em" x="0" y="0">Online Learning</tspan><tspan class="line" dy="1.3em" x="0" y="0">6.34</tspan></text></g></g><g class="slice"><path class="surface" d="M450.5,260L492.5,260A210,210 0,0,0 167.27773584606592,84.43283381212467L190.32218867685276,119.54626704969974A168,168 0,0,1 450.5,260Z" style="pointer-events: none; stroke-width: 1; fill: rgb(229, 89, 10); fill-opacity: 1; stroke: rgb(0, 0, 0); stroke-opacity: 1; opacity: 1;"/><g class="slicetext"><text data-notex="1" class="slicetext" text-anchor="middle" x="0" y="0" style="font-family: 'Times New Roman'; font-size: 12px; fill: rgb(0, 0, 0); fill-opacity: 1; white-space: pre;" transform="translate(372.5680297633665,93.15713750155126)rotate(28.36183618361838)"><tspan class="line" dy="0em" x="0" y="0">First Aid Training</tspan><tspan class="line" dy="1.3em" x="0" y="0">34.24</tspan></text></g></g><g class="slice"><path class="surface" d="M190.32218867685276,119.54626704969974L167.27773584606592,84.43283381212467A210,210 0,0,0 97.62901087839805,160.38716256826865L134.60320870271846,180.30973005461493A168,168 0,0,1 190.32218867685276,119.54626704969974Z" style="pointer-events: none; stroke-width: 1; fill: rgb(255, 238, 221); fill-opacity: 1; stroke: rgb(0, 0, 0); stroke-opacity: 1; opacity: 1;"/><g class="slicetext"><text data-notex="1" class="slicetext" text-anchor="middle" x="0" y="0" style="font-family: 'Times New Roman'; font-size: 12px; fill: rgb(0, 0, 0); fill-opacity: 1; white-space: pre;" transform="translate(141.46429164316143,130.67284481569354)rotate(-47.47974797479753)"><tspan class="line" dy="0em" x="0" y="0">Fire Safety</tspan><tspan class="line" dy="1.3em" x="0" y="0">7.89</tspan></text></g></g><g class="slice"><path class="surface" d="M134.60320870271846,180.30973005461493L97.62901087839805,160.38716256826865A210,210 0,0,0 75.17969688237568,226.55912807332368L116.64375750590054,233.24730245865894A168,168 0,0,1 134.60320870271846,180.30973005461493Z" style="pointer-events: none; stroke-width: 1; fill: rgb(255, 245, 235); fill-opacity: 1; stroke: rgb(0, 0, 0); stroke-opacity: 1; opacity: 1;"/><g class="slicetext"><text data-notex="1" class="slicetext" text-anchor="middle" x="0" y="0" style="font-family: 'Times New Roman'; font-size: 12px; fill: rgb(0, 0, 0); fill-opacity: 1; white-space: pre;" transform="translate(93.5919171467668,196.0421139834146)scale(0.7192211438816741)rotate(-71.26012601260129)"><tspan class="line" dy="0em" x="0" y="0">Evacuation Drills</tspan><tspan class="line" dy="1.3em" x="0" y="0">5.32</tspan></text></g></g></g></g><g class="glimages"/><defs id="topdefs-50eac6"><g class="clips"/></defs><g class="layer-above"><g class="imagelayer"/><g class="shapelayer"/></g><g class="infolayer"><g class="cbf0bcb6 colorbar" transform="translate(10,50)"><rect class="cbbg" x="571.5" y="63" width="48.015625" height="295" style="fill: rgb(0, 0, 0); fill-opacity: 0; stroke: rgb(68, 68, 68); stroke-opacity: 1; stroke-width: 0;"/><g class="cbfills" transform="translate(0,93)"><rect class="cbfill gradient_filled" style="fill: url('#g50eac6-cbf0bcb6');" x="582" y="0" width="15" height="254"/></g><g class="cblines" transform="translate(0,93)"/><g class="cbaxis crisp" transform="translate(0,-50)"><g class="ycbf0bcb6tick"><text text-anchor="start" x="600.4" y="4.199999999999999" transform="translate(0,368.7800000000001)" style="font-family: 'Times New Roman'; font-size: 12px; fill: rgb(42, 63, 95); fill-opacity: 1; white-space: pre; opacity: 1;">10</text></g><g class="ycbf0bcb6tick"><text text-anchor="start" x="600.4" y="4.199999999999999" style="font-family: 'Times New Roman'; font-size: 12px; fill: rgb(42, 63, 95); fill-opacity: 1; white-space: pre; opacity: 1;" transform="translate(0,308.49000000000007)">20</text></g><g class="ycbf0bcb6tick"><text text-anchor="start" x="600.4" y="4.199999999999999" style="font-family: 'Times New Roman'; font-size: 12px; fill: rgb(42, 63, 95); fill-opacity: 1; white-space: pre; opacity: 1;" transform="translate(0,248.21000000000004)">30</text></g><g class="ycbf0bcb6tick"><text text-anchor="start" x="600.4" y="4.199999999999999" style="font-family: 'Times New Roman'; font-size: 12px; fill: rgb(42, 63, 95); fill-opacity: 1; white-space: pre; opacity: 1;" transform="translate(0,187.92000000000007)">40</text></g></g><g class="cbtitleunshift" transform="translate(-10,-50)"><g class="cbtitle" transform="translate(-0.5,-0.5)"><text class="ycbf0bcb6title" x="592.25" y="135.75" text-anchor="start" style="opacity: 1; font-family: 'Times New Roman'; font-size: 13px; fill: rgb(42, 63, 95); fill-opacity: 1; white-space: pre;">%</text></g></g><rect class="cboutline" x="582" y="93" width="15" height="254" style="stroke: rgb(68, 68, 68); stroke-opacity: 1; fill: none; stroke-width: 1;"/></g><g class="g-gtitle"><text class="gtitle" x="320" y="25" text-anchor="middle" dy="0em" style="opacity: 1; font-family: 'Times New Roman'; font-size: 16px; fill: rgb(42, 63, 95); fill-opacity: 1; white-space: pre;">Employee Distribution by Category (2021) (%)</text></g></g></svg>