<svg class="main-svg" xmlns="http://www.w3.org/2000/svg" xmlns:xlink="http://www.w3.org/1999/xlink" width="1920" height="1440" style="" viewBox="0 0 640 480"><rect x="0" y="0" width="640" height="480" style="fill: rgb(255, 255, 255); fill-opacity: 1;"/><defs id="defs-abe152"><g class="clips"/><g class="gradients"><linearGradient x1="0" y1="1" x2="0" y2="0" gradientUnits="objectBoundingBox" id="gabe152-cbd4506b"><stop offset="0%" stop-color="rgb(255, 255, 217)" stop-opacity="1"/><stop offset="12.5%" stop-color="rgb(237, 248, 177)" stop-opacity="1"/><stop offset="25%" stop-color="rgb(199, 233, 180)" stop-opacity="1"/><stop offset="37.5%" stop-color="rgb(127, 205, 187)" stop-opacity="1"/><stop offset="50%" stop-color="rgb(65, 182, 196)" stop-opacity="1"/><stop offset="62.5%" stop-color="rgb(29, 145, 192)" stop-opacity="1"/><stop offset="75%" stop-color="rgb(34, 94, 168)" stop-opacity="1"/><stop offset="87.5%" stop-color="rgb(37, 52, 148)" stop-opacity="1"/><stop offset="100%" stop-color="rgb(8, 29, 88)" stop-opacity="1"/></linearGradient></g><g class="patterns"/></defs><g class="bglayer"/><g class="layer-below"><g class="imagelayer"/><g class="shapelayer"/></g><g class="cartesianlayer"/><g class="polarlayer"/><g class="smithlayer"/><g class="ternarylayer"/><g class="geolayer"/><g class="funnelarealayer"/><g class="pielayer"/><g class="iciclelayer"/><g class="treemaplayer"/><g class="sunburstlayer"><g class="trace sunburst" stroke-linejoin="round" style="opacity: 1;"><g class="slice"><path class="surface" d="M282.5,260A0,0 0,1,0 282.5,260A0,0 0,1,0 282.5,260ZM335,260A52.5,52.5 0,1,1 230,260A52.5,52.5 0,1,1 335,260Z" style="pointer-events: none; stroke-width: 1; fill: rgb(255, 255, 255); fill-opacity: 1; stroke: rgb(0, 0, 0); stroke-opacity: 1;"/><g class="slicetext"><text data-notex="1" class="slicetext" text-anchor="middle" x="0" y="0" style="font-family: 'Times New Roman'; font-size: 12px; fill: rgb(0, 0, 0); fill-opacity: 1; white-space: pre;" transform="translate(282.5,264)">100</text></g></g><g class="slice cursor-pointer"><path class="surface" d="M335,260L387.5,260A105,105 0,0,0 177.76454129766773,252.55126249542533L230.13227064883387,256.2756312477127A52.5,52.5 0,0,1 335,260Z" style="pointer-events: none; stroke-width: 1; fill: rgb(8, 29, 88); fill-opacity: 1; stroke: rgb(0, 0, 0); stroke-opacity: 1;"/><g class="slicetext"><text data-notex="1" class="slicetext" text-anchor="middle" x="0" y="0" style="font-family: 'Times New Roman'; font-size: 12px; fill: rgb(0, 0, 0); fill-opacity: 1; white-space: pre;" transform="translate(285.1520467904518,185.32583545146483)rotate(2.033999999999992)"><tspan class="line" dy="0em" x="0" y="0">Employee Lifecycle</tspan><tspan class="line" dy="1.3em" x="0" y="0">48.87</tspan></text></g></g><g class="slice cursor-pointer"><path class="surface" d="M230.13227064883387,256.2756312477127L177.76454129766773,252.55126249542533A105,105 0,0,0 283.55555735145674,364.9946941453604L283.02777867572837,312.4973470726802A52.5,52.5 0,0,1 230.13227064883387,256.2756312477127Z" style="pointer-events: none; stroke-width: 1; fill: rgb(73, 185, 195); fill-opacity: 1; stroke: rgb(0, 0, 0); stroke-opacity: 1;"/><g class="slicetext"><text data-notex="1" class="slicetext" text-anchor="middle" x="0" y="0" style="font-family: 'Times New Roman'; font-size: 12px; fill: rgb(0, 0, 0); fill-opacity: 1; white-space: pre;" transform="translate(232.36423661897553,306.7155000644932)scale(0.9845349468539746)rotate(46.74599999999998)"><tspan class="line" dy="0em" x="0" y="0">Employee Development</tspan><tspan class="line" dy="1.3em" x="0" y="0">26.29</tspan></text></g></g><g class="slice cursor-pointer"><path class="surface" d="M283.02777867572837,312.4973470726802L283.55555735145674,364.9946941453604A105,105 0,0,0 387.5,259.99999999999994L335,259.99999999999994A52.5,52.5 0,0,1 283.02777867572837,312.4973470726802Z" style="pointer-events: none; stroke-width: 1; fill: rgb(90, 191, 192); fill-opacity: 1; stroke: rgb(0, 0, 0); stroke-opacity: 1;"/><g class="slicetext"><text data-notex="1" class="slicetext" text-anchor="middle" x="0" y="0" style="font-family: 'Times New Roman'; font-size: 12px; fill: rgb(0, 0, 0); fill-opacity: 1; white-space: pre;" transform="translate(332.28203516061063,309.2840704075569)rotate(-45.28800000000001)"><tspan class="line" dy="0em" x="0" y="0">Workplace Wellbeing</tspan><tspan class="line" dy="1.3em" x="0" y="0">24.84</tspan></text></g></g><g class="slice"><path class="surface" d="M387.5,260L440,260A157.5,157.5 0,0,0 125.39681194650163,248.82689374313802L177.76454129766773,252.55126249542533A105,105 0,0,1 387.5,260Z" style="pointer-events: none; stroke-width: 1; fill: rgb(8, 29, 88); fill-opacity: 1; stroke: rgb(0, 0, 0); stroke-opacity: 1; opacity: 1;"/><g class="slicetext"><text data-notex="1" class="slicetext" text-anchor="middle" x="0" y="0" style="font-family: 'Times New Roman'; font-size: 12px; fill: rgb(0, 0, 0); fill-opacity: 1; white-space: pre;" transform="translate(286.84649024221017,128.37018231487403)rotate(2.033999999999992)"><tspan class="line" dy="0em" x="0" y="0">Recruitment</tspan><tspan class="line" dy="1.3em" x="0" y="0">48.87</tspan></text></g></g><g class="slice cursor-pointer"><path class="surface" d="M177.76454129766773,252.55126249542533L125.39681194650163,248.82689374313802A157.5,157.5 0,0,0 180.73966935789096,380.2126661696206L214.6597795719273,340.1417774464137A105,105 0,0,1 177.76454129766773,252.55126249542533Z" style="pointer-events: none; stroke-width: 1; fill: rgb(207, 236, 179); fill-opacity: 1; stroke: rgb(0, 0, 0); stroke-opacity: 1;"/><g class="slicetext"><text data-notex="1" class="slicetext" text-anchor="middle" x="0" y="0" style="font-family: 'Times New Roman'; font-size: 12px; fill: rgb(0, 0, 0); fill-opacity: 1; white-space: pre;" transform="translate(166.90314997495267,308.51415904893156)rotate(67.15800000000002)"><tspan class="line" dy="0em" x="0" y="0">Training Programs</tspan><tspan class="line" dy="1.3em" x="0" y="0">14.95</tspan></text></g></g><g class="slice cursor-pointer"><path class="surface" d="M214.6597795719273,340.1417774464137L180.73966935789096,380.2126661696206A157.5,157.5 0,0,0 284.0833360271851,417.49204121804064L283.55555735145674,364.9946941453604A105,105 0,0,1 214.6597795719273,340.1417774464137Z" style="pointer-events: none; stroke-width: 1; fill: rgb(232, 246, 177); fill-opacity: 1; stroke: rgb(0, 0, 0); stroke-opacity: 1;"/><g class="slicetext"><text data-notex="1" class="slicetext" text-anchor="middle" x="0" y="0" style="font-family: 'Times New Roman'; font-size: 12px; fill: rgb(0, 0, 0); fill-opacity: 1; white-space: pre;" transform="translate(235.94758109005892,388.35471193822156)scale(0.7188713180735015)rotate(19.8359999999999)"><tspan class="line" dy="0em" x="0" y="0">Performance Management</tspan><tspan class="line" dy="1.3em" x="0" y="0">11.34</tspan></text></g></g><g class="slice cursor-pointer"><path class="surface" d="M283.55555735145674,364.9946941453604L284.0833360271851,417.49204121804064A157.5,157.5 0,0,0 430.45263762449605,314.0024723503892L381.135091749664,296.00164823359285A105,105 0,0,1 283.55555735145674,364.9946941453604Z" style="pointer-events: none; stroke-width: 1; fill: rgb(157, 217, 184); fill-opacity: 1; stroke: rgb(0, 0, 0); stroke-opacity: 1;"/><g class="slicetext"><text data-notex="1" class="slicetext" text-anchor="middle" x="0" y="0" style="font-family: 'Times New Roman'; font-size: 12px; fill: rgb(0, 0, 0); fill-opacity: 1; white-space: pre;" transform="translate(353.260281560127,360.0790041557733)rotate(-35.26200000000006)"><tspan class="line" dy="0em" x="0" y="0">Health &amp; Safety</tspan><tspan class="line" dy="1.3em" x="0" y="0">19.27</tspan></text></g></g><g class="slice"><path class="surface" d="M381.135091749664,296.00164823359285L430.45263762449605,314.0024723503892A157.5,157.5 0,0,0 440,259.9999999999999L387.5,259.99999999999994A105,105 0,0,1 381.135091749664,296.00164823359285Z" style="pointer-events: none; stroke-width: 1; fill: rgb(254, 254, 214); fill-opacity: 1; stroke: rgb(0, 0, 0); stroke-opacity: 1; opacity: 1;"/><g class="slicetext"><text data-notex="1" class="slicetext" text-anchor="middle" x="0" y="0" style="font-family: 'Times New Roman'; font-size: 12px; fill: rgb(0, 0, 0); fill-opacity: 1; white-space: pre;" transform="translate(411.9971365912956,280.78267996000125)scale(0.5465642197328631)rotate(10.025999999999954)"><tspan class="line" dy="0em" x="0" y="0">Work-Life Balance</tspan><tspan class="line" dy="1.3em" x="0" y="0">5.57</tspan></text></g></g><g class="slice"><path class="surface" d="M125.39681194650163,248.82689374313802L73.0290825953355,245.1025249908507A210,210 0,0,0 146.8195591438546,420.28355489282745L180.73966935789096,380.2126661696206A157.5,157.5 0,0,1 125.39681194650163,248.82689374313802Z" style="pointer-events: none; stroke-width: 1; fill: rgb(207, 236, 179); fill-opacity: 1; stroke: rgb(0, 0, 0); stroke-opacity: 1; opacity: 1;"/><g class="slicetext"><text data-notex="1" class="slicetext" text-anchor="middle" x="0" y="0" style="font-family: 'Times New Roman'; font-size: 12px; fill: rgb(0, 0, 0); fill-opacity: 1; white-space: pre;" transform="translate(120.41992959415748,328.094013016727)rotate(67.15800000000002)"><tspan class="line" dy="0em" x="0" y="0">Skill Workshops</tspan><tspan class="line" dy="1.3em" x="0" y="0">14.95</tspan></text></g></g><g class="slice"><path class="surface" d="M180.73966935789096,380.2126661696206L146.8195591438546,420.28355489282745A210,210 0,0,0 217.60643118126103,459.7218684219822L233.82982338594576,409.7914013164867A157.5,157.5 0,0,1 180.73966935789096,380.2126661696206Z" style="pointer-events: none; stroke-width: 1; fill: rgb(252, 254, 210); fill-opacity: 1; stroke: rgb(0, 0, 0); stroke-opacity: 1; opacity: 1;"/><g class="slicetext"><text data-notex="1" class="slicetext" text-anchor="middle" x="0" y="0" style="font-family: 'Times New Roman'; font-size: 12px; fill: rgb(0, 0, 0); fill-opacity: 1; white-space: pre;" transform="translate(193.56897209598813,419.62014419664814)rotate(29.12399999999991)"><tspan class="line" dy="0em" x="0" y="0">Feedback</tspan><tspan class="line" dy="1.3em" x="0" y="0">6.18</tspan></text></g></g><g class="slice"><path class="surface" d="M233.82982338594576,409.7914013164867L217.60643118126103,459.7218684219822A210,210 0,0,0 284.6111147029133,469.98938829072085L284.083336027185,417.49204121804064A157.5,157.5 0,0,1 233.82982338594576,409.7914013164867Z" style="pointer-events: none; stroke-width: 1; fill: rgb(255, 255, 217); fill-opacity: 1; stroke: rgb(0, 0, 0); stroke-opacity: 1; opacity: 1;"/><g class="slicetext"><text data-notex="1" class="slicetext" text-anchor="middle" x="0" y="0" style="font-family: 'Times New Roman'; font-size: 12px; fill: rgb(0, 0, 0); fill-opacity: 1; white-space: pre;" transform="translate(253.72280353449253,447.79675778203483)scale(0.9435464102422423)rotate(8.711999999999989)"><tspan class="line" dy="0em" x="0" y="0">Goal Setting</tspan><tspan class="line" dy="1.3em" x="0" y="0">5.16</tspan></text></g></g><g class="slice"><path class="surface" d="M284.0833360271851,417.49204121804064L284.6111147029135,469.98938829072085A210,210 0,0,0 407.6365932469353,428.6441016773224L376.35244493520145,386.4830762579918A157.5,157.5 0,0,1 284.0833360271851,417.49204121804064Z" style="pointer-events: none; stroke-width: 1; fill: rgb(239, 249, 182); fill-opacity: 1; stroke: rgb(0, 0, 0); stroke-opacity: 1; opacity: 1;"/><g class="slicetext"><text data-notex="1" class="slicetext" text-anchor="middle" x="0" y="0" style="font-family: 'Times New Roman'; font-size: 12px; fill: rgb(0, 0, 0); fill-opacity: 1; white-space: pre;" transform="translate(340.79869191671344,433.4713932112376)rotate(-18.576000000000022)"><tspan class="line" dy="0em" x="0" y="0">Emergency Response</tspan><tspan class="line" dy="1.3em" x="0" y="0">10</tspan></text></g></g><g class="slice"><path class="surface" d="M376.35244493520145,386.4830762579918L407.6365932469353,428.6441016773224A210,210 0,0,0 479.770183499328,332.00329646718563L430.45263762449605,314.0024723503892A157.5,157.5 0,0,1 376.35244493520145,386.4830762579918Z" style="pointer-events: none; stroke-width: 1; fill: rgb(241, 250, 187); fill-opacity: 1; stroke: rgb(0, 0, 0); stroke-opacity: 1; opacity: 1;"/><g class="slicetext"><text data-notex="1" class="slicetext" text-anchor="middle" x="0" y="0" style="font-family: 'Times New Roman'; font-size: 12px; fill: rgb(0, 0, 0); fill-opacity: 1; white-space: pre;" transform="translate(424.5628015861522,366.2417133817909)rotate(-53.26200000000006)"><tspan class="line" dy="0em" x="0" y="0">Ergonomics</tspan><tspan class="line" dy="1.3em" x="0" y="0">9.27</tspan></text></g></g></g></g><g class="glimages"/><defs id="topdefs-abe152"><g class="clips"/></defs><g class="layer-above"><g class="imagelayer"/><g class="shapelayer"/></g><g class="infolayer"><g class="cbd4506b colorbar" transform="translate(10,50)"><rect class="cbbg" x="571.5" y="63" width="48.015625" height="295" style="fill: rgb(0, 0, 0); fill-opacity: 0; stroke: rgb(68, 68, 68); stroke-opacity: 1; stroke-width: 0;"/><g class="cbfills" transform="translate(0,93)"><rect class="cbfill gradient_filled" style="fill: url('#gabe152-cbd4506b');" x="582" y="0" width="15" height="254"/></g><g class="cblines" transform="translate(0,93)"/><g class="cbaxis crisp" transform="translate(0,-50)"><g class="ycbd4506btick"><text text-anchor="start" x="600.4" y="4.199999999999999" transform="translate(0,368.87000000000006)" style="font-family: 'Times New Roman'; font-size: 12px; fill: rgb(42, 63, 95); fill-opacity: 1; white-space: pre; opacity: 1;">10</text></g><g class="ycbd4506btick"><text text-anchor="start" x="600.4" y="4.199999999999999" style="font-family: 'Times New Roman'; font-size: 12px; fill: rgb(42, 63, 95); fill-opacity: 1; white-space: pre; opacity: 1;" transform="translate(0,310.76000000000005)">20</text></g><g class="ycbd4506btick"><text text-anchor="start" x="600.4" y="4.199999999999999" style="font-family: 'Times New Roman'; font-size: 12px; fill: rgb(42, 63, 95); fill-opacity: 1; white-space: pre; opacity: 1;" transform="translate(0,252.65000000000006)">30</text></g><g class="ycbd4506btick"><text text-anchor="start" x="600.4" y="4.199999999999999" style="font-family: 'Times New Roman'; font-size: 12px; fill: rgb(42, 63, 95); fill-opacity: 1; white-space: pre; opacity: 1;" transform="translate(0,194.54000000000005)">40</text></g></g><g class="cbtitleunshift" transform="translate(-10,-50)"><g class="cbtitle" transform="translate(-0.5,-0.5)"><text class="ycbd4506btitle" x="592.25" y="135.75" text-anchor="start" style="opacity: 1; font-family: 'Times New Roman'; font-size: 13px; fill: rgb(42, 63, 95); fill-opacity: 1; white-space: pre;">%</text></g></g><rect class="cboutline" x="582" y="93" width="15" height="254" style="stroke: rgb(68, 68, 68); stroke-opacity: 1; fill: none; stroke-width: 1;"/></g><g class="g-gtitle"><text class="gtitle" x="320" y="25" text-anchor="middle" dy="0em" style="opacity: 1; font-family: 'Times New Roman'; font-size: 16px; fill: rgb(42, 63, 95); fill-opacity: 1; white-space: pre;">Employee Distribution by Category (2021) (%)</text></g></g></svg>