<svg class="main-svg" xmlns="http://www.w3.org/2000/svg" xmlns:xlink="http://www.w3.org/1999/xlink" width="1920" height="1440" style="" viewBox="0 0 640 480"><rect x="0" y="0" width="640" height="480" style="fill: rgb(255, 255, 255); fill-opacity: 1;"/><defs id="defs-32a2c0"><g class="clips"/><g class="gradients"><linearGradient x1="0" y1="1" x2="0" y2="0" gradientUnits="objectBoundingBox" id="g32a2c0-cbbc9f84"><stop offset="0%" stop-color="rgb(252, 251, 253)" stop-opacity="1"/><stop offset="12.5%" stop-color="rgb(239, 237, 245)" stop-opacity="1"/><stop offset="25%" stop-color="rgb(218, 218, 235)" stop-opacity="1"/><stop offset="37.5%" stop-color="rgb(188, 189, 220)" stop-opacity="1"/><stop offset="50%" stop-color="rgb(158, 154, 200)" stop-opacity="1"/><stop offset="62.5%" stop-color="rgb(128, 125, 186)" stop-opacity="1"/><stop offset="75%" stop-color="rgb(106, 81, 163)" stop-opacity="1"/><stop offset="87.5%" stop-color="rgb(84, 39, 143)" stop-opacity="1"/><stop offset="100%" stop-color="rgb(63, 0, 125)" stop-opacity="1"/></linearGradient></g><g class="patterns"/></defs><g class="bglayer"/><g class="layer-below"><g class="imagelayer"/><g class="shapelayer"/></g><g class="cartesianlayer"/><g class="polarlayer"/><g class="smithlayer"/><g class="ternarylayer"/><g class="geolayer"/><g class="funnelarealayer"/><g class="pielayer"/><g class="iciclelayer"/><g class="treemaplayer"/><g class="sunburstlayer"><g class="trace sunburst" stroke-linejoin="round" style="opacity: 1;"><g class="slice"><path class="surface" d="M282.5,260A0,0 0,1,0 282.5,260A0,0 0,1,0 282.5,260ZM324.5,260A42,42 0,1,1 240.5,260A42,42 0,1,1 324.5,260Z" style="pointer-events: none; stroke-width: 1; fill: rgb(255, 255, 255); fill-opacity: 1; stroke: rgb(0, 0, 0); stroke-opacity: 1;"/><g class="slicetext"><text data-notex="1" class="slicetext" text-anchor="middle" x="0" y="0" style="font-family: 'Times New Roman'; font-size: 12px; fill: rgb(0, 0, 0); fill-opacity: 1; white-space: pre;" transform="translate(282.5,264)">99.99</text></g></g><g class="slice cursor-pointer"><path class="surface" d="M324.5,260L366.5,260A84,84 0,0,0 205.37856078578943,226.70910614704343L243.93928039289472,243.3545530735217A42,42 0,0,1 324.5,260Z" style="pointer-events: none; stroke-width: 1; fill: rgb(63, 0, 125); fill-opacity: 1; stroke: rgb(0, 0, 0); stroke-opacity: 1;"/><g class="slicetext"><text data-notex="1" class="slicetext" text-anchor="middle" x="0" y="0" style="font-family: 'Times New Roman'; font-size: 12px; fill: rgb(0, 0, 0); fill-opacity: 1; white-space: pre;" transform="translate(294.3783660073394,202.51102313235987)scale(0.8209780396795036)rotate(11.674167416741739)"><tspan class="line" dy="0em" x="0" y="0">Commercial Real Estate</tspan><tspan class="line" dy="1.3em" x="0" y="0">43.51</tspan></text></g></g><g class="slice cursor-pointer"><path class="surface" d="M243.93928039289472,243.3545530735217L205.37856078578943,226.70910614704343A84,84 0,0,0 269.2930380868676,342.955265999363L275.89651904343384,301.47763299968153A42,42 0,0,1 243.93928039289472,243.3545530735217Z" style="pointer-events: none; stroke-width: 1; fill: rgb(129, 126, 186); fill-opacity: 1; stroke: rgb(0, 0, 0); stroke-opacity: 1;"/><g class="slicetext"><text data-notex="1" class="slicetext" text-anchor="middle" x="0" y="0" style="font-family: 'Times New Roman'; font-size: 12px; fill: rgb(0, 0, 0); fill-opacity: 1; white-space: pre;" transform="translate(234.26523142704752,286.1459949594303)rotate(61.197119711971254)"><tspan class="line" dy="0em" x="0" y="0">Rental Market</tspan><tspan class="line" dy="1.3em" x="0" y="0">28.97</tspan></text></g></g><g class="slice cursor-pointer"><path class="surface" d="M275.89651904343384,301.47763299968153L269.2930380868676,342.955265999363A84,84 0,0,0 366.5,260L324.5,260A42,42 0,0,1 275.89651904343384,301.47763299968153Z" style="pointer-events: none; stroke-width: 1; fill: rgb(138, 134, 191); fill-opacity: 1; stroke: rgb(0, 0, 0); stroke-opacity: 1;"/><g class="slicetext"><text data-notex="1" class="slicetext" text-anchor="middle" x="0" y="0" style="font-family: 'Times New Roman'; font-size: 12px; fill: rgb(0, 0, 0); fill-opacity: 1; white-space: pre;" transform="translate(317.05737105154054,300.49431957280297)scale(0.8964705263378435)rotate(-40.477047704770484)"><tspan class="line" dy="0em" x="0" y="0">Residential Property</tspan><tspan class="line" dy="1.3em" x="0" y="0">27.51</tspan></text></g></g><g class="slice cursor-pointer"><path class="surface" d="M366.5,260L408.5,260A126,126 0,0,0 281.1342398404923,134.00740220478545L281.5894932269949,176.00493480319028A84,84 0,0,1 366.5,260Z" style="pointer-events: none; stroke-width: 1; fill: rgb(152, 148, 197); fill-opacity: 1; stroke: rgb(0, 0, 0); stroke-opacity: 1;"/><g class="slicetext"><text data-notex="1" class="slicetext" text-anchor="middle" x="0" y="0" style="font-family: 'Times New Roman'; font-size: 12px; fill: rgb(0, 0, 0); fill-opacity: 1; white-space: pre;" transform="translate(356.0429598238367,185.42222632796813)rotate(44.68946894689475)"><tspan class="line" dy="0em" x="0" y="0">Office Buildings</tspan><tspan class="line" dy="1.3em" x="0" y="0">25.17</tspan></text></g></g><g class="slice cursor-pointer"><path class="surface" d="M281.5894932269949,176.00493480319028L281.1342398404923,134.00740220478545A126,126 0,0,0 166.8178411786841,210.06365922056517L205.3785607857894,226.70910614704343A84,84 0,0,1 281.5894932269949,176.00493480319028Z" style="pointer-events: none; stroke-width: 1; fill: rgb(195, 196, 223); fill-opacity: 1; stroke: rgb(0, 0, 0); stroke-opacity: 1;"/><g class="slicetext"><text data-notex="1" class="slicetext" text-anchor="middle" x="0" y="0" style="font-family: 'Times New Roman'; font-size: 12px; fill: rgb(0, 0, 0); fill-opacity: 1; white-space: pre;" transform="translate(223.7812731214684,172.0389699164698)rotate(-33.636363636363626)"><tspan class="line" dy="0em" x="0" y="0">Retail Spaces</tspan><tspan class="line" dy="1.3em" x="0" y="0">18.34</tspan></text></g></g><g class="slice"><path class="surface" d="M205.37856078578943,226.70910614704343L166.81784117868415,210.0636592205651A126,126 0,0,0 188.01821372217182,343.36181417022306L219.51214248144788,315.5745427801487A84,84 0,0,1 205.37856078578943,226.70910614704343Z" style="pointer-events: none; stroke-width: 1; fill: rgb(197, 198, 225); fill-opacity: 1; stroke: rgb(0, 0, 0); stroke-opacity: 1; opacity: 1;"/><g class="slicetext"><text data-notex="1" class="slicetext" text-anchor="middle" x="0" y="0" style="font-family: 'Times New Roman'; font-size: 12px; fill: rgb(0, 0, 0); fill-opacity: 1; white-space: pre;" transform="translate(187.44091452419485,274.9525245240762)rotate(80.96309630963106)"><tspan class="line" dy="0em" x="0" y="0">Short-Term Rentals</tspan><tspan class="line" dy="1.3em" x="0" y="0">17.99</tspan></text></g></g><g class="slice cursor-pointer"><path class="surface" d="M219.51214248144788,315.5745427801487L188.01821372217182,343.36181417022306A126,126 0,0,0 262.68955713030147,384.4328989990445L269.2930380868676,342.955265999363A84,84 0,0,1 219.51214248144788,315.5745427801487Z" style="pointer-events: none; stroke-width: 1; fill: rgb(234, 232, 243); fill-opacity: 1; stroke: rgb(0, 0, 0); stroke-opacity: 1;"/><g class="slicetext"><text data-notex="1" class="slicetext" text-anchor="middle" x="0" y="0" style="font-family: 'Times New Roman'; font-size: 12px; fill: rgb(0, 0, 0); fill-opacity: 1; white-space: pre;" transform="translate(230.76612948990083,353.80068693378894)scale(0.7196944131873834)rotate(28.811881188118832)"><tspan class="line" dy="0em" x="0" y="0">Long-Term Rentals</tspan><tspan class="line" dy="1.3em" x="0" y="0">10.98</tspan></text></g></g><g class="slice"><path class="surface" d="M269.2930380868676,342.955265999363L262.68955713030147,384.4328989990445A126,126 0,0,0 408.5,260.00000000000006L366.5,260A84,84 0,0,1 269.2930380868676,342.955265999363Z" style="pointer-events: none; stroke-width: 1; fill: rgb(138, 134, 191); fill-opacity: 1; stroke: rgb(0, 0, 0); stroke-opacity: 1; opacity: 1;"/><g class="slicetext"><text data-notex="1" class="slicetext" text-anchor="middle" x="0" y="0" style="font-family: 'Times New Roman'; font-size: 12px; fill: rgb(0, 0, 0); fill-opacity: 1; white-space: pre;" transform="translate(344.5651832773711,332.9784821579709)scale(0.9912063769117226)rotate(-40.477047704770484)"><tspan class="line" dy="0em" x="0" y="0">Multi-Family Homes</tspan><tspan class="line" dy="1.3em" x="0" y="0">27.51</tspan></text></g></g><g class="slice cursor-pointer"><path class="surface" d="M408.5,260L450.5,260A168,168 0,0,0 380.9786990698359,123.889949564653L356.3590243023769,157.91746217348975A126,126 0,0,1 408.5,260Z" style="pointer-events: none; stroke-width: 1; fill: rgb(215, 216, 234); fill-opacity: 1; stroke: rgb(0, 0, 0); stroke-opacity: 1;"/><g class="slicetext"><text data-notex="1" class="slicetext" text-anchor="middle" x="0" y="0" style="font-family: 'Times New Roman'; font-size: 12px; fill: rgb(0, 0, 0); fill-opacity: 1; white-space: pre;" transform="translate(413.1437175351158,193.086528164808)rotate(62.943294329433)"><tspan class="line" dy="0em" x="0" y="0">Downtown Offices</tspan><tspan class="line" dy="1.3em" x="0" y="0">15.03</tspan></text></g></g><g class="slice"><path class="surface" d="M356.3590243023769,157.91746217348975L380.9786990698359,123.889949564653A168,168 0,0,0 280.67898645398975,92.00986960638059L281.13423984049234,134.00740220478545A126,126 0,0,1 356.3590243023769,157.91746217348975Z" style="pointer-events: none; stroke-width: 1; fill: rgb(238, 236, 244); fill-opacity: 1; stroke: rgb(0, 0, 0); stroke-opacity: 1; opacity: 1;"/><g class="slicetext"><text data-notex="1" class="slicetext" text-anchor="middle" x="0" y="0" style="font-family: 'Times New Roman'; font-size: 12px; fill: rgb(0, 0, 0); fill-opacity: 1; white-space: pre;" transform="translate(328.05607870817033,116.10980555990098)scale(0.9933898629484211)rotate(17.632763276327637)"><tspan class="line" dy="0em" x="0" y="0">Suburban Offices</tspan><tspan class="line" dy="1.3em" x="0" y="0">10.14</tspan></text></g></g><g class="slice"><path class="surface" d="M281.1342398404923,134.00740220478545L280.67898645398975,92.00986960638059A168,168 0,0,0 185.35165087349822,122.93724699249864L209.63873815512366,157.20293524437398A126,126 0,0,1 281.1342398404923,134.00740220478545Z" style="pointer-events: none; stroke-width: 1; fill: rgb(239, 238, 245); fill-opacity: 1; stroke: rgb(0, 0, 0); stroke-opacity: 1; opacity: 1;"/><g class="slicetext"><text data-notex="1" class="slicetext" text-anchor="middle" x="0" y="0" style="font-family: 'Times New Roman'; font-size: 12px; fill: rgb(0, 0, 0); fill-opacity: 1; white-space: pre;" transform="translate(235.31527142555677,115.03440669503173)scale(0.8872835265088629)rotate(-17.974797479747963)"><tspan class="line" dy="0em" x="0" y="0">Street-Level Shops</tspan><tspan class="line" dy="1.3em" x="0" y="0">9.64</tspan></text></g></g><g class="slice"><path class="surface" d="M209.63873815512366,157.20293524437398L185.35165087349822,122.93724699249864A168,168 0,0,0 128.2571215715788,193.41821229408689L166.8178411786841,210.06365922056517A126,126 0,0,1 209.63873815512366,157.20293524437398Z" style="pointer-events: none; stroke-width: 1; fill: rgb(242, 240, 247); fill-opacity: 1; stroke: rgb(0, 0, 0); stroke-opacity: 1; opacity: 1;"/><g class="slicetext"><text data-notex="1" class="slicetext" text-anchor="middle" x="0" y="0" style="font-family: 'Times New Roman'; font-size: 12px; fill: rgb(0, 0, 0); fill-opacity: 1; white-space: pre;" transform="translate(163.0075367854487,163.3847227200017)scale(0.8620202209612781)rotate(-50.99009900990097)"><tspan class="line" dy="0em" x="0" y="0">Shopping Centers</tspan><tspan class="line" dy="1.3em" x="0" y="0">8.7</tspan></text></g></g><g class="slice cursor-pointer"><path class="surface" d="M188.01821372217182,343.36181417022306L156.52428496289576,371.1490855602974A168,168 0,0,0 256.0860761737353,425.910531998726L262.68955713030147,384.4328989990445A126,126 0,0,1 188.01821372217182,343.36181417022306Z" style="pointer-events: none; stroke-width: 1; fill: rgb(234, 232, 243); fill-opacity: 1; stroke: rgb(0, 0, 0); stroke-opacity: 1;"/><g class="slicetext"><text data-notex="1" class="slicetext" text-anchor="middle" x="0" y="0" style="font-family: 'Times New Roman'; font-size: 12px; fill: rgb(0, 0, 0); fill-opacity: 1; white-space: pre;" transform="translate(214.35774469171236,383.1923819265528)rotate(28.811881188118832)"><tspan class="line" dy="0em" x="0" y="0">Houses for Rent</tspan><tspan class="line" dy="1.3em" x="0" y="0">10.98</tspan></text></g></g><g class="slice"><path class="surface" d="M450.5,260L492.5,260A210,210 0,0,0 482.13810801996715,194.84920701781198L442.2104864159737,207.87936561424956A168,168 0,0,1 450.5,260Z" style="pointer-events: none; stroke-width: 1; fill: rgb(252, 251, 253); fill-opacity: 1; stroke: rgb(0, 0, 0); stroke-opacity: 1; opacity: 1;"/><g class="slicetext"><text data-notex="1" class="slicetext" text-anchor="middle" x="0" y="0" style="font-family: 'Times New Roman'; font-size: 12px; fill: rgb(0, 0, 0); fill-opacity: 1; white-space: pre;" transform="translate(472.1601453951781,229.83554843239673)rotate(80.96309630963094)"><tspan class="line" dy="0em" x="0" y="0">Class B</tspan><tspan class="line" dy="1.3em" x="0" y="0">5.02</tspan></text></g></g><g class="slice"><path class="surface" d="M442.2104864159737,207.87936561424956L482.13810801996715,194.84920701781198A210,210 0,0,0 452.1527976296544,136.2343817676673L418.2222381037235,160.9875054141338A168,168 0,0,1 442.2104864159737,207.87936561424956Z" style="pointer-events: none; stroke-width: 1; fill: rgb(252, 251, 253); fill-opacity: 1; stroke: rgb(0, 0, 0); stroke-opacity: 1; opacity: 1;"/><g class="slicetext"><text data-notex="1" class="slicetext" text-anchor="middle" x="0" y="0" style="font-family: 'Times New Roman'; font-size: 12px; fill: rgb(0, 0, 0); fill-opacity: 1; white-space: pre;" transform="translate(460.96151370393494,168.70528303546658)scale(0.649204209454466)rotate(62.90729072907288)"><tspan class="line" dy="0em" x="0" y="0">Shared Workspace</tspan><tspan class="line" dy="1.3em" x="0" y="0">5.01</tspan></text></g></g><g class="slice"><path class="surface" d="M418.2222381037235,160.9875054141338L452.1527976296544,136.2343817676673A210,210 0,0,0 405.59837383729484,89.86243695581624L380.9786990698359,123.889949564653A168,168 0,0,1 418.2222381037235,160.9875054141338Z" style="pointer-events: none; stroke-width: 1; fill: rgb(252, 251, 253); fill-opacity: 1; stroke: rgb(0, 0, 0); stroke-opacity: 1; opacity: 1;"/><g class="slicetext"><text data-notex="1" class="slicetext" text-anchor="middle" x="0" y="0" style="font-family: 'Times New Roman'; font-size: 12px; fill: rgb(0, 0, 0); fill-opacity: 1; white-space: pre;" transform="translate(417.88566595478267,123.84909937679595)rotate(44.88748874887483)"><tspan class="line" dy="0em" x="0" y="0">Class A</tspan><tspan class="line" dy="1.3em" x="0" y="0">5</tspan></text></g></g><g class="slice"><path class="surface" d="M156.52428496289576,371.1490855602974L125.0303562036197,398.93635695037176A210,210 0,0,0 184.42984318150704,445.6939534330512L204.04387454520565,408.55516274644094A168,168 0,0,1 156.52428496289576,371.1490855602974Z" style="pointer-events: none; stroke-width: 1; fill: rgb(250, 249, 252); fill-opacity: 1; stroke: rgb(0, 0, 0); stroke-opacity: 1; opacity: 1;"/><g class="slicetext"><text data-notex="1" class="slicetext" text-anchor="middle" x="0" y="0" style="font-family: 'Times New Roman'; font-size: 12px; fill: rgb(0, 0, 0); fill-opacity: 1; white-space: pre;" transform="translate(163.2637531523812,411.2695103084133)scale(0.7718884472200988)rotate(38.208820882088276)"><tspan class="line" dy="0em" x="0" y="0">Detached Rentals</tspan><tspan class="line" dy="1.3em" x="0" y="0">5.76</tspan></text></g></g><g class="slice"><path class="surface" d="M204.04387454520565,408.55516274644094L184.42984318150704,445.6939534330512A210,210 0,0,0 249.48259521716912,467.38816499840755L256.0860761737353,425.910531998726A168,168 0,0,1 204.04387454520565,408.55516274644094Z" style="pointer-events: none; stroke-width: 1; fill: rgb(251, 250, 253); fill-opacity: 1; stroke: rgb(0, 0, 0); stroke-opacity: 1; opacity: 1;"/><g class="slicetext"><text data-notex="1" class="slicetext" text-anchor="middle" x="0" y="0" style="font-family: 'Times New Roman'; font-size: 12px; fill: rgb(0, 0, 0); fill-opacity: 1; white-space: pre;" transform="translate(220.47796982618144,445.65541068026306)scale(0.6271687171018419)rotate(18.442844284428475)"><tspan class="line" dy="0em" x="0" y="0">Gated Communities</tspan><tspan class="line" dy="1.3em" x="0" y="0">5.22</tspan></text></g></g></g></g><g class="glimages"/><defs id="topdefs-32a2c0"><g class="clips"/></defs><g class="layer-above"><g class="imagelayer"/><g class="shapelayer"/></g><g class="infolayer"><g class="cbbc9f84 colorbar" transform="translate(10,50)"><rect class="cbbg" x="571.5" y="63" width="48.015625" height="295" style="fill: rgb(0, 0, 0); fill-opacity: 0; stroke: rgb(68, 68, 68); stroke-opacity: 1; stroke-width: 0;"/><g class="cbfills" transform="translate(0,93)"><rect class="cbfill gradient_filled" style="fill: url('#g32a2c0-cbbc9f84');" x="582" y="0" width="15" height="254"/></g><g class="cblines" transform="translate(0,93)"/><g class="cbaxis crisp" transform="translate(0,-50)"><g class="ycbbc9f84tick"><text text-anchor="start" x="600.4" y="4.199999999999999" transform="translate(0,364.0200000000001)" style="font-family: 'Times New Roman'; font-size: 12px; fill: rgb(42, 63, 95); fill-opacity: 1; white-space: pre; opacity: 1;">10</text></g><g class="ycbbc9f84tick"><text text-anchor="start" x="600.4" y="4.199999999999999" style="font-family: 'Times New Roman'; font-size: 12px; fill: rgb(42, 63, 95); fill-opacity: 1; white-space: pre; opacity: 1;" transform="translate(0,298.06000000000006)">20</text></g><g class="ycbbc9f84tick"><text text-anchor="start" x="600.4" y="4.199999999999999" style="font-family: 'Times New Roman'; font-size: 12px; fill: rgb(42, 63, 95); fill-opacity: 1; white-space: pre; opacity: 1;" transform="translate(0,232.11000000000007)">30</text></g><g class="ycbbc9f84tick"><text text-anchor="start" x="600.4" y="4.199999999999999" style="font-family: 'Times New Roman'; font-size: 12px; fill: rgb(42, 63, 95); fill-opacity: 1; white-space: pre; opacity: 1;" transform="translate(0,166.15000000000006)">40</text></g></g><g class="cbtitleunshift" transform="translate(-10,-50)"><g class="cbtitle" transform="translate(-0.5,-0.5)"><text class="ycbbc9f84title" x="592.25" y="135.75" text-anchor="start" style="opacity: 1; font-family: 'Times New Roman'; font-size: 13px; fill: rgb(42, 63, 95); fill-opacity: 1; white-space: pre;">%</text></g></g><rect class="cboutline" x="582" y="93" width="15" height="254" style="stroke: rgb(68, 68, 68); stroke-opacity: 1; fill: none; stroke-width: 1;"/></g><g class="g-gtitle"><text class="gtitle" x="320" y="25" text-anchor="middle" dy="0em" style="opacity: 1; font-family: 'Times New Roman'; font-size: 16px; fill: rgb(42, 63, 95); fill-opacity: 1; white-space: pre;">Housing Market Distribution by Category (2023) (%)</text></g></g></svg>