<svg class="main-svg" xmlns="http://www.w3.org/2000/svg" xmlns:xlink="http://www.w3.org/1999/xlink" width="1920" height="1440" style="" viewBox="0 0 640 480"><rect x="0" y="0" width="640" height="480" style="fill: rgb(255, 255, 255); fill-opacity: 1;"/><defs id="defs-8d5aa1"><g class="clips"/><g class="gradients"><linearGradient x1="0" y1="1" x2="0" y2="0" gradientUnits="objectBoundingBox" id="g8d5aa1-cbe19cd1"><stop offset="0%" stop-color="rgb(247, 252, 245)" stop-opacity="1"/><stop offset="12.5%" stop-color="rgb(229, 245, 224)" stop-opacity="1"/><stop offset="25%" stop-color="rgb(199, 233, 192)" stop-opacity="1"/><stop offset="37.5%" stop-color="rgb(161, 217, 155)" stop-opacity="1"/><stop offset="50%" stop-color="rgb(116, 196, 118)" stop-opacity="1"/><stop offset="62.5%" stop-color="rgb(65, 171, 93)" stop-opacity="1"/><stop offset="75%" stop-color="rgb(35, 139, 69)" stop-opacity="1"/><stop offset="87.5%" stop-color="rgb(0, 109, 44)" stop-opacity="1"/><stop offset="100%" stop-color="rgb(0, 68, 27)" stop-opacity="1"/></linearGradient></g><g class="patterns"/></defs><g class="bglayer"/><g class="layer-below"><g class="imagelayer"/><g class="shapelayer"/></g><g class="cartesianlayer"/><g class="polarlayer"/><g class="smithlayer"/><g class="ternarylayer"/><g class="geolayer"/><g class="funnelarealayer"/><g class="pielayer"/><g class="iciclelayer"/><g class="treemaplayer"/><g class="sunburstlayer"><g class="trace sunburst" stroke-linejoin="round" style="opacity: 1;"><g class="slice"><path class="surface" d="M282.5,260A0,0 0,1,0 282.5,260A0,0 0,1,0 282.5,260ZM324.5,260A42,42 0,1,1 240.5,260A42,42 0,1,1 324.5,260Z" style="pointer-events: none; stroke-width: 1; fill: rgb(255, 255, 255); fill-opacity: 1; stroke: rgb(0, 0, 0); stroke-opacity: 1;"/><g class="slicetext"><text data-notex="1" class="slicetext" text-anchor="middle" x="0" y="0" style="font-family: 'Times New Roman'; font-size: 12px; fill: rgb(0, 0, 0); fill-opacity: 1; white-space: pre;" transform="translate(282.5,264)">100</text></g></g><g class="slice cursor-pointer"><path class="surface" d="M324.5,260L366.5,260A84,84 0,0,0 199.25819716283974,248.73934902328745L240.87909858141987,254.36967451164372A42,42 0,0,1 324.5,260Z" style="pointer-events: none; stroke-width: 1; fill: rgb(0, 68, 27); fill-opacity: 1; stroke: rgb(0, 0, 0); stroke-opacity: 1;"/><g class="slicetext"><text data-notex="1" class="slicetext" text-anchor="middle" x="0" y="0" style="font-family: 'Times New Roman'; font-size: 12px; fill: rgb(0, 0, 0); fill-opacity: 1; white-space: pre;" transform="translate(286.5345910579783,200.07875000811381)scale(0.8964705263378435)rotate(3.8519999999999754)"><tspan class="line" dy="0em" x="0" y="0">Residential Property</tspan><tspan class="line" dy="1.3em" x="0" y="0">47.86</tspan></text></g></g><g class="slice cursor-pointer"><path class="surface" d="M240.87909858141987,254.36967451164372L199.25819716283974,248.73934902328745A84,84 0,0,0 280.3363103144284,343.9721289889958L281.4181551572142,301.9860644944979A42,42 0,0,1 240.87909858141987,254.36967451164372Z" style="pointer-events: none; stroke-width: 1; fill: rgb(113, 195, 117); fill-opacity: 1; stroke: rgb(0, 0, 0); stroke-opacity: 1;"/><g class="slicetext"><text data-notex="1" class="slicetext" text-anchor="middle" x="0" y="0" style="font-family: 'Times New Roman'; font-size: 12px; fill: rgb(0, 0, 0); fill-opacity: 1; white-space: pre;" transform="translate(241.14343196660442,295.2096463400566)scale(0.7873504508819102)rotate(49.58999999999992)"><tspan class="line" dy="0em" x="0" y="0">Commercial Real Estate</tspan><tspan class="line" dy="1.3em" x="0" y="0">26.73</tspan></text></g></g><g class="slice cursor-pointer"><path class="surface" d="M281.4181551572142,301.9860644944979L280.3363103144284,343.9721289889958A84,84 0,0,0 366.5,259.99999999999994L324.5,260A42,42 0,0,1 281.4181551572142,301.9860644944979Z" style="pointer-events: none; stroke-width: 1; fill: rgb(125, 200, 125); fill-opacity: 1; stroke: rgb(0, 0, 0); stroke-opacity: 1;"/><g class="slicetext"><text data-notex="1" class="slicetext" text-anchor="middle" x="0" y="0" style="font-family: 'Times New Roman'; font-size: 12px; fill: rgb(0, 0, 0); fill-opacity: 1; white-space: pre;" transform="translate(320.5570702229823,299.5204422767235)rotate(-44.26200000000006)"><tspan class="line" dy="0em" x="0" y="0">Rental Market</tspan><tspan class="line" dy="1.3em" x="0" y="0">25.41</tspan></text></g></g><g class="slice cursor-pointer"><path class="surface" d="M366.5,260L408.5,260A126,126 0,0,0 191.7410628641237,172.59968346758657L221.9940419094158,201.7331223117244A84,84 0,0,1 366.5,260Z" style="pointer-events: none; stroke-width: 1; fill: rgb(31, 135, 66); fill-opacity: 1; stroke: rgb(0, 0, 0); stroke-opacity: 1;"/><g class="slicetext"><text data-notex="1" class="slicetext" text-anchor="middle" x="0" y="0" style="font-family: 'Times New Roman'; font-size: 12px; fill: rgb(0, 0, 0); fill-opacity: 1; white-space: pre;" transform="translate(320.99558899914973,164.0933698437062)scale(0.9912063769117226)rotate(21.960000000000036)"><tspan class="line" dy="0em" x="0" y="0">Multi-Family Homes</tspan><tspan class="line" dy="1.3em" x="0" y="0">37.8</tspan></text></g></g><g class="slice cursor-pointer"><path class="surface" d="M221.9940419094158,201.7331223117244L191.7410628641237,172.59968346758657A126,126 0,0,0 157.6372957442596,243.10902353493117L199.25819716283974,248.73934902328745A84,84 0,0,1 221.9940419094158,201.7331223117244Z" style="pointer-events: none; stroke-width: 1; fill: rgb(230, 245, 225); fill-opacity: 1; stroke: rgb(0, 0, 0); stroke-opacity: 1;"/><g class="slicetext"><text data-notex="1" class="slicetext" text-anchor="middle" x="0" y="0" style="font-family: 'Times New Roman'; font-size: 12px; fill: rgb(0, 0, 0); fill-opacity: 1; white-space: pre;" transform="translate(179.4584316415014,210.27204782674562)scale(0.6086031808745527)rotate(-64.18799999999999)"><tspan class="line" dy="0em" x="0" y="0">Single Family Homes</tspan><tspan class="line" dy="1.3em" x="0" y="0">10.06</tspan></text></g></g><g class="slice"><path class="surface" d="M199.25819716283974,248.73934902328745L157.6372957442596,243.10902353493117A126,126 0,0,0 279.2544654716426,385.9581934834937L280.3363103144284,343.9721289889958A84,84 0,0,1 199.25819716283974,248.73934902328745Z" style="pointer-events: none; stroke-width: 1; fill: rgb(113, 195, 117); fill-opacity: 1; stroke: rgb(0, 0, 0); stroke-opacity: 1; opacity: 1;"/><g class="slicetext"><text data-notex="1" class="slicetext" text-anchor="middle" x="0" y="0" style="font-family: 'Times New Roman'; font-size: 12px; fill: rgb(0, 0, 0); fill-opacity: 1; white-space: pre;" transform="translate(207.65991104960665,323.5009669809121)rotate(49.58999999999992)"><tspan class="line" dy="0em" x="0" y="0">Retail Spaces</tspan><tspan class="line" dy="1.3em" x="0" y="0">26.73</tspan></text></g></g><g class="slice cursor-pointer"><path class="surface" d="M280.3363103144284,343.9721289889958L279.2544654716426,385.9581934834937A126,126 0,0,0 390.3851087322529,325.09073139725785L354.42340582150194,303.3938209315052A84,84 0,0,1 280.3363103144284,343.9721289889958Z" style="pointer-events: none; stroke-width: 1; fill: rgb(192, 230, 185); fill-opacity: 1; stroke: rgb(0, 0, 0); stroke-opacity: 1;"/><g class="slicetext"><text data-notex="1" class="slicetext" text-anchor="middle" x="0" y="0" style="font-family: 'Times New Roman'; font-size: 12px; fill: rgb(0, 0, 0); fill-opacity: 1; white-space: pre;" transform="translate(328.97608605123037,345.1963456990157)scale(0.999038068908205)rotate(-28.710000000000036)"><tspan class="line" dy="0em" x="0" y="0">Short-Term Rentals</tspan><tspan class="line" dy="1.3em" x="0" y="0">16.77</tspan></text></g></g><g class="slice"><path class="surface" d="M354.42340582150194,303.3938209315052L390.3851087322529,325.09073139725785A126,126 0,0,0 408.5,259.99999999999983L366.5,259.9999999999999A84,84 0,0,1 354.42340582150194,303.3938209315052Z" style="pointer-events: none; stroke-width: 1; fill: rgb(235, 247, 231); fill-opacity: 1; stroke: rgb(0, 0, 0); stroke-opacity: 1; opacity: 1;"/><g class="slicetext"><text data-notex="1" class="slicetext" text-anchor="middle" x="0" y="0" style="font-family: 'Times New Roman'; font-size: 12px; fill: rgb(0, 0, 0); fill-opacity: 1; white-space: pre;" transform="translate(389.66194504088315,289.9285740770639)scale(0.5895124379264393)rotate(-74.44800000000009)"><tspan class="line" dy="0em" x="0" y="0">Long-Term Rentals</tspan><tspan class="line" dy="1.3em" x="0" y="0">8.64</tspan></text></g></g><g class="slice cursor-pointer"><path class="surface" d="M408.5,260L450.5,260A168,168 0,0,0 161.48808381883163,143.46624462344877L191.7410628641237,172.59968346758657A126,126 0,0,1 408.5,260Z" style="pointer-events: none; stroke-width: 1; fill: rgb(31, 135, 66); fill-opacity: 1; stroke: rgb(0, 0, 0); stroke-opacity: 1;"/><g class="slicetext"><text data-notex="1" class="slicetext" text-anchor="middle" x="0" y="0" style="font-family: 'Times New Roman'; font-size: 12px; fill: rgb(0, 0, 0); fill-opacity: 1; white-space: pre;" transform="translate(338.01771248771536,121.87344748192791)rotate(21.960000000000036)"><tspan class="line" dy="0em" x="0" y="0">Apartments</tspan><tspan class="line" dy="1.3em" x="0" y="0">37.8</tspan></text></g></g><g class="slice"><path class="surface" d="M191.7410628641237,172.59968346758657L161.48808381883163,143.46624462344877A168,168 0,0,0 131.1241470061827,187.1347055835618L168.96811025463705,205.35102918767134A126,126 0,0,1 191.7410628641237,172.59968346758657Z" style="pointer-events: none; stroke-width: 1; fill: rgb(247, 252, 245); fill-opacity: 1; stroke: rgb(0, 0, 0); stroke-opacity: 1; opacity: 1;"/><g class="slicetext"><text data-notex="1" class="slicetext" text-anchor="middle" x="0" y="0" style="font-family: 'Times New Roman'; font-size: 12px; fill: rgb(0, 0, 0); fill-opacity: 1; white-space: pre;" transform="translate(151.77200577251813,169.10106587009616)scale(0.6161905770729688)rotate(-55.18799999999999)"><tspan class="line" dy="0em" x="0" y="0">Semi-Detached</tspan><tspan class="line" dy="1.3em" x="0" y="0">5.06</tspan></text></g></g><g class="slice"><path class="surface" d="M168.96811025463705,205.35102918767134L131.1241470061827,187.1347055835618A168,168 0,0,0 116.01639432567947,237.4786980465749L157.6372957442596,243.10902353493117A126,126 0,0,1 168.96811025463705,205.35102918767134Z" style="pointer-events: none; stroke-width: 1; fill: rgb(247, 252, 245); fill-opacity: 1; stroke: rgb(0, 0, 0); stroke-opacity: 1; opacity: 1;"/><g class="slicetext"><text data-notex="1" class="slicetext" text-anchor="middle" x="0" y="0" style="font-family: 'Times New Roman'; font-size: 12px; fill: rgb(0, 0, 0); fill-opacity: 1; white-space: pre;" transform="translate(133.23984467762324,215.20844888651473)scale(0.9303435190191145)rotate(-73.29600000000005)"><tspan class="line" dy="0em" x="0" y="0">Detached</tspan><tspan class="line" dy="1.3em" x="0" y="0">5</tspan></text></g></g><g class="slice"><path class="surface" d="M279.2544654716426,385.9581934834937L278.1726206288568,427.9442579779916A168,168 0,0,0 374.29425025135725,400.70471072707977L351.34568768851796,365.5285330453098A126,126 0,0,1 279.2544654716426,385.9581934834937Z" style="pointer-events: none; stroke-width: 1; fill: rgb(232, 246, 227); fill-opacity: 1; stroke: rgb(0, 0, 0); stroke-opacity: 1; opacity: 1;"/><g class="slicetext"><text data-notex="1" class="slicetext" text-anchor="middle" x="0" y="0" style="font-family: 'Times New Roman'; font-size: 12px; fill: rgb(0, 0, 0); fill-opacity: 1; white-space: pre;" transform="translate(321.55072253041203,398.4020815610866)rotate(-15.822000000000003)"><tspan class="line" dy="0em" x="0" y="0">Vacation Homes</tspan><tspan class="line" dy="1.3em" x="0" y="0">9.61</tspan></text></g></g><g class="slice"><path class="surface" d="M351.34568768851796,365.5285330453098L374.29425025135725,400.70471072707977A168,168 0,0,0 426.3468116430039,346.78764186301044L390.3851087322529,325.09073139725785A126,126 0,0,1 351.34568768851796,365.5285330453098Z" style="pointer-events: none; stroke-width: 1; fill: rgb(240, 249, 237); fill-opacity: 1; stroke: rgb(0, 0, 0); stroke-opacity: 1; opacity: 1;"/><g class="slicetext"><text data-notex="1" class="slicetext" text-anchor="middle" x="0" y="0" style="font-family: 'Times New Roman'; font-size: 12px; fill: rgb(0, 0, 0); fill-opacity: 1; white-space: pre;" transform="translate(385.3568509646315,359.5279986627246)rotate(-46.00800000000004)"><tspan class="line" dy="0em" x="0" y="0">Platforms</tspan><tspan class="line" dy="1.3em" x="0" y="0">7.16</tspan></text></g></g><g class="slice"><path class="surface" d="M450.5,260L492.5,260A210,210 0,0,0 356.35929874574566,63.41718287503687L341.5874389965965,102.73374630002951A168,168 0,0,1 450.5,260Z" style="pointer-events: none; stroke-width: 1; fill: rgb(174, 222, 167); fill-opacity: 1; stroke: rgb(0, 0, 0); stroke-opacity: 1; opacity: 1;"/><g class="slicetext"><text data-notex="1" class="slicetext" text-anchor="middle" x="0" y="0" style="font-family: 'Times New Roman'; font-size: 12px; fill: rgb(0, 0, 0); fill-opacity: 1; white-space: pre;" transform="translate(439.95342754565024,150.9578143479117)rotate(55.29600000000005)"><tspan class="line" dy="0em" x="0" y="0">High-Rise</tspan><tspan class="line" dy="1.3em" x="0" y="0">19.28</tspan></text></g></g><g class="slice"><path class="surface" d="M341.5874389965965,102.73374630002951L356.35929874574566,63.41718287503687A210,210 0,0,0 186.10543515604132,73.43074243449473L205.38434812483302,110.74459394759577A168,168 0,0,1 341.5874389965965,102.73374630002951Z" style="pointer-events: none; stroke-width: 1; fill: rgb(212, 238, 206); fill-opacity: 1; stroke: rgb(0, 0, 0); stroke-opacity: 1; opacity: 1;"/><g class="slicetext"><text data-notex="1" class="slicetext" text-anchor="middle" x="0" y="0" style="font-family: 'Times New Roman'; font-size: 12px; fill: rgb(0, 0, 0); fill-opacity: 1; white-space: pre;" transform="translate(271.2495020624899,68.7152995100585)rotate(-3.3659999999999854)"><tspan class="line" dy="0em" x="0" y="0">Low-Rise</tspan><tspan class="line" dy="1.3em" x="0" y="0">13.31</tspan></text></g></g><g class="slice"><path class="surface" d="M205.38434812483302,110.74459394759577L186.10543515604132,73.43074243449473A210,210 0,0,0 131.23510477353946,114.33280577931103L161.48808381883157,143.46624462344883A168,168 0,0,1 205.38434812483302,110.74459394759577Z" style="pointer-events: none; stroke-width: 1; fill: rgb(246, 252, 244); fill-opacity: 1; stroke: rgb(0, 0, 0); stroke-opacity: 1; opacity: 1;"/><g class="slicetext"><text data-notex="1" class="slicetext" text-anchor="middle" x="0" y="0" style="font-family: 'Times New Roman'; font-size: 12px; fill: rgb(0, 0, 0); fill-opacity: 1; white-space: pre;" transform="translate(166.8875310040906,104.90527246356476)rotate(-36.702)"><tspan class="line" dy="0em" x="0" y="0">Mid-Rise</tspan><tspan class="line" dy="1.3em" x="0" y="0">5.21</tspan></text></g></g></g></g><g class="glimages"/><defs id="topdefs-8d5aa1"><g class="clips"/></defs><g class="layer-above"><g class="imagelayer"/><g class="shapelayer"/></g><g class="infolayer"><g class="cbe19cd1 colorbar" transform="translate(10,50)"><rect class="cbbg" x="571.5" y="63" width="48.015625" height="295" style="fill: rgb(0, 0, 0); fill-opacity: 0; stroke: rgb(68, 68, 68); stroke-opacity: 1; stroke-width: 0;"/><g class="cbfills" transform="translate(0,93)"><rect class="cbfill gradient_filled" style="fill: url('#g8d5aa1-cbe19cd1');" x="582" y="0" width="15" height="254"/></g><g class="cblines" transform="translate(0,93)"/><g class="cbaxis crisp" transform="translate(0,-50)"><g class="ycbe19cd1tick"><text text-anchor="start" x="600.4" y="4.199999999999999" transform="translate(0,367.37000000000006)" style="font-family: 'Times New Roman'; font-size: 12px; fill: rgb(42, 63, 95); fill-opacity: 1; white-space: pre; opacity: 1;">10</text></g><g class="ycbe19cd1tick"><text text-anchor="start" x="600.4" y="4.199999999999999" style="font-family: 'Times New Roman'; font-size: 12px; fill: rgb(42, 63, 95); fill-opacity: 1; white-space: pre; opacity: 1;" transform="translate(0,308.11000000000007)">20</text></g><g class="ycbe19cd1tick"><text text-anchor="start" x="600.4" y="4.199999999999999" style="font-family: 'Times New Roman'; font-size: 12px; fill: rgb(42, 63, 95); fill-opacity: 1; white-space: pre; opacity: 1;" transform="translate(0,248.84000000000006)">30</text></g><g class="ycbe19cd1tick"><text text-anchor="start" x="600.4" y="4.199999999999999" style="font-family: 'Times New Roman'; font-size: 12px; fill: rgb(42, 63, 95); fill-opacity: 1; white-space: pre; opacity: 1;" transform="translate(0,189.58000000000004)">40</text></g></g><g class="cbtitleunshift" transform="translate(-10,-50)"><g class="cbtitle" transform="translate(-0.5,-0.5)"><text class="ycbe19cd1title" x="592.25" y="135.75" text-anchor="start" style="opacity: 1; font-family: 'Times New Roman'; font-size: 13px; fill: rgb(42, 63, 95); fill-opacity: 1; white-space: pre;">%</text></g></g><rect class="cboutline" x="582" y="93" width="15" height="254" style="stroke: rgb(68, 68, 68); stroke-opacity: 1; fill: none; stroke-width: 1;"/></g><g class="g-gtitle"><text class="gtitle" x="320" y="25" text-anchor="middle" dy="0em" style="opacity: 1; font-family: 'Times New Roman'; font-size: 16px; fill: rgb(42, 63, 95); fill-opacity: 1; white-space: pre;">Housing Market Distribution by Category (2023) (%)</text></g></g></svg>