<svg class="main-svg" xmlns="http://www.w3.org/2000/svg" xmlns:xlink="http://www.w3.org/1999/xlink" width="1920" height="1440" style="" viewBox="0 0 640 480"><rect x="0" y="0" width="640" height="480" style="fill: rgb(255, 255, 255); fill-opacity: 1;"/><defs id="defs-f7abfd"><g class="clips"/><g class="gradients"><linearGradient x1="0" y1="1" x2="0" y2="0" gradientUnits="objectBoundingBox" id="gf7abfd-cba082c2"><stop offset="0%" stop-color="rgb(252, 251, 253)" stop-opacity="1"/><stop offset="12.5%" stop-color="rgb(239, 237, 245)" stop-opacity="1"/><stop offset="25%" stop-color="rgb(218, 218, 235)" stop-opacity="1"/><stop offset="37.5%" stop-color="rgb(188, 189, 220)" stop-opacity="1"/><stop offset="50%" stop-color="rgb(158, 154, 200)" stop-opacity="1"/><stop offset="62.5%" stop-color="rgb(128, 125, 186)" stop-opacity="1"/><stop offset="75%" stop-color="rgb(106, 81, 163)" stop-opacity="1"/><stop offset="87.5%" stop-color="rgb(84, 39, 143)" stop-opacity="1"/><stop offset="100%" stop-color="rgb(63, 0, 125)" stop-opacity="1"/></linearGradient></g><g class="patterns"/></defs><g class="bglayer"/><g class="layer-below"><g class="imagelayer"/><g class="shapelayer"/></g><g class="cartesianlayer"/><g class="polarlayer"/><g class="smithlayer"/><g class="ternarylayer"/><g class="geolayer"/><g class="funnelarealayer"/><g class="pielayer"/><g class="iciclelayer"/><g class="treemaplayer"/><g class="sunburstlayer"><g class="trace sunburst" stroke-linejoin="round" style="opacity: 1;"><g class="slice"><path class="surface" d="M282.5,260A0,0 0,1,0 282.5,260A0,0 0,1,0 282.5,260ZM324.5,260A42,42 0,1,1 240.5,260A42,42 0,1,1 324.5,260Z" style="pointer-events: none; stroke-width: 1; fill: rgb(255, 255, 255); fill-opacity: 1; stroke: rgb(0, 0, 0); stroke-opacity: 1;"/><g class="slicetext"><text data-notex="1" class="slicetext" text-anchor="middle" x="0" y="0" style="font-family: 'Times New Roman'; font-size: 12px; fill: rgb(0, 0, 0); fill-opacity: 1; white-space: pre;" transform="translate(282.5,264)">100</text></g></g><g class="slice cursor-pointer"><path class="surface" d="M324.5,260L366.5,260A84,84 0,1,0 205.53492479535763,293.65081275012153L244.0174623976788,276.82540637506077A42,42 0,1,1 324.5,260Z" style="pointer-events: none; stroke-width: 1; fill: rgb(63, 0, 125); fill-opacity: 1; stroke: rgb(0, 0, 0); stroke-opacity: 1;"/><g class="slicetext"><text data-notex="1" class="slicetext" text-anchor="middle" x="0" y="0" style="font-family: 'Times New Roman'; font-size: 12px; fill: rgb(0, 0, 0); fill-opacity: 1; white-space: pre;" transform="translate(270.12912803932454,202.20946896728464)scale(0.8431803965209909)rotate(-11.807999999999993)"><tspan class="line" dy="0em" x="0" y="0">Financial Management</tspan><tspan class="line" dy="1.3em" x="0" y="0">56.56</tspan></text></g></g><g class="slice cursor-pointer"><path class="surface" d="M244.0174623976788,276.82540637506077L205.53492479535763,293.65081275012153A84,84 0,0,0 305.4279625834553,340.8103244132312L293.9639812917277,300.4051622066156A42,42 0,0,1 244.0174623976788,276.82540637506077Z" style="pointer-events: none; stroke-width: 1; fill: rgb(195, 196, 224); fill-opacity: 1; stroke: rgb(0, 0, 0); stroke-opacity: 1;"/><g class="slicetext"><text data-notex="1" class="slicetext" text-anchor="middle" x="0" y="0" style="font-family: 'Times New Roman'; font-size: 12px; fill: rgb(0, 0, 0); fill-opacity: 1; white-space: pre;" transform="translate(257.4361099420561,313.09020446523067)scale(0.7275730940840287)rotate(25.271999999999935)"><tspan class="line" dy="0em" x="0" y="0">Digital Transformation</tspan><tspan class="line" dy="1.3em" x="0" y="0">22.84</tspan></text></g></g><g class="slice cursor-pointer"><path class="surface" d="M293.9639812917277,300.4051622066156L305.4279625834553,340.8103244132312A84,84 0,0,0 366.5,259.99999999999994L324.5,260A42,42 0,0,1 293.9639812917277,300.4051622066156Z" style="pointer-events: none; stroke-width: 1; fill: rgb(206, 206, 229); fill-opacity: 1; stroke: rgb(0, 0, 0); stroke-opacity: 1;"/><g class="slicetext"><text data-notex="1" class="slicetext" text-anchor="middle" x="0" y="0" style="font-family: 'Times New Roman'; font-size: 12px; fill: rgb(0, 0, 0); fill-opacity: 1; white-space: pre;" transform="translate(330.4464166092597,296.23528763696567)scale(0.7788276939676659)rotate(-52.92000000000007)"><tspan class="line" dy="0em" x="0" y="0">Corporate Strategy</tspan><tspan class="line" dy="1.3em" x="0" y="0">20.6</tspan></text></g></g><g class="slice cursor-pointer"><path class="surface" d="M366.5,260L408.5,260A126,126 0,0,0 249.86331085048218,138.30017863054297L260.74220723365477,178.86678575369532A84,84 0,0,1 366.5,260Z" style="pointer-events: none; stroke-width: 1; fill: rgb(166, 163, 205); fill-opacity: 1; stroke: rgb(0, 0, 0); stroke-opacity: 1;"/><g class="slicetext"><text data-notex="1" class="slicetext" text-anchor="middle" x="0" y="0" style="font-family: 'Times New Roman'; font-size: 12px; fill: rgb(0, 0, 0); fill-opacity: 1; white-space: pre;" transform="translate(345.13333988242556,178.35694122211703)scale(0.9671205639769463)rotate(37.49400000000003)"><tspan class="line" dy="0em" x="0" y="0">Budgeting &amp; Planning</tspan><tspan class="line" dy="1.3em" x="0" y="0">29.17</tspan></text></g></g><g class="slice cursor-pointer"><path class="surface" d="M260.74220723365477,178.86678575369532L249.86331085048218,138.30017863054297A126,126 0,0,0 167.05238719303642,310.4762191251823L205.53492479535763,293.65081275012153A84,84 0,0,1 260.74220723365477,178.86678575369532Z" style="pointer-events: none; stroke-width: 1; fill: rgb(174, 173, 211); fill-opacity: 1; stroke: rgb(0, 0, 0); stroke-opacity: 1;"/><g class="slicetext"><text data-notex="1" class="slicetext" text-anchor="middle" x="0" y="0" style="font-family: 'Times New Roman'; font-size: 12px; fill: rgb(0, 0, 0); fill-opacity: 1; white-space: pre;" transform="translate(189.0258553883575,215.04205909752713)rotate(-64.31399999999996)"><tspan class="line" dy="0em" x="0" y="0">Investment Strategy</tspan><tspan class="line" dy="1.3em" x="0" y="0">27.39</tspan></text></g></g><g class="slice"><path class="surface" d="M205.53492479535763,293.65081275012153L167.05238719303642,310.4762191251823A126,126 0,0,0 316.891943875183,381.21548661984684L305.4279625834553,340.8103244132312A84,84 0,0,1 205.53492479535763,293.65081275012153Z" style="pointer-events: none; stroke-width: 1; fill: rgb(195, 196, 224); fill-opacity: 1; stroke: rgb(0, 0, 0); stroke-opacity: 1; opacity: 1;"/><g class="slicetext"><text data-notex="1" class="slicetext" text-anchor="middle" x="0" y="0" style="font-family: 'Times New Roman'; font-size: 12px; fill: rgb(0, 0, 0); fill-opacity: 1; white-space: pre;" transform="translate(241.6532214920472,346.5214385205094)scale(0.9798573122311867)rotate(25.271999999999935)"><tspan class="line" dy="0em" x="0" y="0">Technology Adoption</tspan><tspan class="line" dy="1.3em" x="0" y="0">22.84</tspan></text></g></g><g class="slice cursor-pointer"><path class="surface" d="M305.4279625834553,340.8103244132312L316.891943875183,381.21548661984684A126,126 0,0,0 401.31680752250094,301.93526260989626L361.71120501500064,287.95684173993084A84,84 0,0,1 305.4279625834553,340.8103244132312Z" style="pointer-events: none; stroke-width: 1; fill: rgb(227, 226, 239); fill-opacity: 1; stroke: rgb(0, 0, 0); stroke-opacity: 1;"/><g class="slicetext"><text data-notex="1" class="slicetext" text-anchor="middle" x="0" y="0" style="font-family: 'Times New Roman'; font-size: 12px; fill: rgb(0, 0, 0); fill-opacity: 1; white-space: pre;" transform="translate(349.2525229490364,331.32388276601887)rotate(-43.200000000000045)"><tspan class="line" dy="0em" x="0" y="0">Growth Models</tspan><tspan class="line" dy="1.3em" x="0" y="0">15.2</tspan></text></g></g><g class="slice"><path class="surface" d="M361.71120501500064,287.95684173993084L401.31680752250094,301.93526260989626A126,126 0,0,0 408.5,259.99999999999994L366.5,259.99999999999994A84,84 0,0,1 361.71120501500064,287.95684173993084Z" style="pointer-events: none; stroke-width: 1; fill: rgb(252, 250, 253); fill-opacity: 1; stroke: rgb(0, 0, 0); stroke-opacity: 1; opacity: 1;"/><g class="slicetext"><text data-notex="1" class="slicetext" text-anchor="middle" x="0" y="0" style="font-family: 'Times New Roman'; font-size: 12px; fill: rgb(0, 0, 0); fill-opacity: 1; white-space: pre;" transform="translate(386.1789918916042,276.14064537944375)scale(0.4193620277454229)rotate(9.71999999999997)"><tspan class="line" dy="0em" x="0" y="0">Innovation Strategy</tspan><tspan class="line" dy="1.3em" x="0" y="0">5.4</tspan></text></g></g><g class="slice cursor-pointer"><path class="surface" d="M408.5,260L450.5,260A168,168 0,0,0 362.9717148443198,112.52694107053156L342.85378613323985,149.39520580289866A126,126 0,0,1 408.5,260Z" style="pointer-events: none; stroke-width: 1; fill: rgb(221, 221, 236); fill-opacity: 1; stroke: rgb(0, 0, 0); stroke-opacity: 1;"/><g class="slicetext"><text data-notex="1" class="slicetext" text-anchor="middle" x="0" y="0" style="font-family: 'Times New Roman'; font-size: 12px; fill: rgb(0, 0, 0); fill-opacity: 1; white-space: pre;" transform="translate(408.9309690526307,184.96062676071378)rotate(59.309999999999945)"><tspan class="line" dy="0em" x="0" y="0">Capital Budgeting</tspan><tspan class="line" dy="1.3em" x="0" y="0">17.05</tspan></text></g></g><g class="slice cursor-pointer"><path class="surface" d="M342.85378613323985,149.39520580289866L362.9717148443198,112.52694107053156A168,168 0,0,0 238.9844144673096,97.73357150739065L249.86331085048218,138.30017863054297A126,126 0,0,1 342.85378613323985,149.39520580289866Z" style="pointer-events: none; stroke-width: 1; fill: rgb(237, 235, 244); fill-opacity: 1; stroke: rgb(0, 0, 0); stroke-opacity: 1;"/><g class="slicetext"><text data-notex="1" class="slicetext" text-anchor="middle" x="0" y="0" style="font-family: 'Times New Roman'; font-size: 12px; fill: rgb(0, 0, 0); fill-opacity: 1; white-space: pre;" transform="translate(300.2102958468533,111.5651379114674)scale(0.8842800271410801)rotate(6.803999999999974)"><tspan class="line" dy="0em" x="0" y="0">Operational Forecasting</tspan><tspan class="line" dy="1.3em" x="0" y="0">12.12</tspan></text></g></g><g class="slice"><path class="surface" d="M249.86331085048218,138.30017863054297L238.9844144673096,97.73357150739065A168,168 0,0,0 128.56984959071525,327.30162550024306L167.05238719303642,310.4762191251823A126,126 0,0,1 249.86331085048218,138.30017863054297Z" style="pointer-events: none; stroke-width: 1; fill: rgb(174, 173, 211); fill-opacity: 1; stroke: rgb(0, 0, 0); stroke-opacity: 1; opacity: 1;"/><g class="slicetext"><text data-notex="1" class="slicetext" text-anchor="middle" x="0" y="0" style="font-family: 'Times New Roman'; font-size: 12px; fill: rgb(0, 0, 0); fill-opacity: 1; white-space: pre;" transform="translate(149.89548081366615,196.59443005682454)rotate(-64.31399999999996)"><tspan class="line" dy="0em" x="0" y="0">Risk Management</tspan><tspan class="line" dy="1.3em" x="0" y="0">27.39</tspan></text></g></g><g class="slice"><path class="surface" d="M316.891943875183,381.21548661984684L328.3559251669107,421.62064882646246A168,168 0,0,0 400.7703088919837,379.3152715899971L371.2027316689878,349.48645369249783A126,126 0,0,1 316.891943875183,381.21548661984684Z" style="pointer-events: none; stroke-width: 1; fill: rgb(246, 245, 249); fill-opacity: 1; stroke: rgb(0, 0, 0); stroke-opacity: 1; opacity: 1;"/><g class="slicetext"><text data-notex="1" class="slicetext" text-anchor="middle" x="0" y="0" style="font-family: 'Times New Roman'; font-size: 12px; fill: rgb(0, 0, 0); fill-opacity: 1; white-space: pre;" transform="translate(357.68714556822687,388.6983160541935)scale(0.7877210973274058)rotate(-30.294000000000096)"><tspan class="line" dy="0em" x="0" y="0">Market Expansion</tspan><tspan class="line" dy="1.3em" x="0" y="0">8.03</tspan></text></g></g><g class="slice"><path class="surface" d="M371.2027316689878,349.48645369249783L400.7703088919837,379.3152715899971A168,168 0,0,0 440.9224100300013,315.9136834798617L401.31680752250094,301.93526260989626A126,126 0,0,1 371.2027316689878,349.48645369249783Z" style="pointer-events: none; stroke-width: 1; fill: rgb(248, 247, 250); fill-opacity: 1; stroke: rgb(0, 0, 0); stroke-opacity: 1; opacity: 1;"/><g class="slicetext"><text data-notex="1" class="slicetext" text-anchor="middle" x="0" y="0" style="font-family: 'Times New Roman'; font-size: 12px; fill: rgb(0, 0, 0); fill-opacity: 1; white-space: pre;" transform="translate(412.4458604687891,342.40338932530017)scale(0.5609368460169922)rotate(-57.653999999999996)"><tspan class="line" dy="0em" x="0" y="0">Mergers &amp; Acquisitions</tspan><tspan class="line" dy="1.3em" x="0" y="0">7.17</tspan></text></g></g><g class="slice"><path class="surface" d="M450.5,260L492.5,260A210,210 0,0,0 477.0654962731537,180.97932131409266L438.15239701852295,196.78345705127413A168,168 0,0,1 450.5,260Z" style="pointer-events: none; stroke-width: 1; fill: rgb(250, 249, 252); fill-opacity: 1; stroke: rgb(0, 0, 0); stroke-opacity: 1; opacity: 1;"/><g class="slicetext"><text data-notex="1" class="slicetext" text-anchor="middle" x="0" y="0" style="font-family: 'Times New Roman'; font-size: 12px; fill: rgb(0, 0, 0); fill-opacity: 1; white-space: pre;" transform="translate(475.554286921496,222.2921852795364)scale(0.9077621143839688)rotate(78.94799999999998)"><tspan class="line" dy="0em" x="0" y="0">IRR Evaluation</tspan><tspan class="line" dy="1.3em" x="0" y="0">6.14</tspan></text></g></g><g class="slice"><path class="surface" d="M438.15239701852295,196.78345705127413L477.0654962731537,180.97932131409266A210,210 0,0,0 436.5733100403405,117.30656941115643L405.7586480322724,145.84525552892515A168,168 0,0,1 438.15239701852295,196.78345705127413Z" style="pointer-events: none; stroke-width: 1; fill: rgb(251, 250, 252); fill-opacity: 1; stroke: rgb(0, 0, 0); stroke-opacity: 1; opacity: 1;"/><g class="slicetext"><text data-notex="1" class="slicetext" text-anchor="middle" x="0" y="0" style="font-family: 'Times New Roman'; font-size: 12px; fill: rgb(0, 0, 0); fill-opacity: 1; white-space: pre;" transform="translate(449.73316835486906,153.64938070131544)scale(0.801295729817402)rotate(57.54600000000005)"><tspan class="line" dy="0em" x="0" y="0">Payback Method</tspan><tspan class="line" dy="1.3em" x="0" y="0">5.75</tspan></text></g></g><g class="slice"><path class="surface" d="M405.7586480322724,145.84525552892515L436.5733100403405,117.30656941115643A210,210 0,0,0 383.0896435553998,75.65867633816444L362.9717148443199,112.52694107053156A168,168 0,0,1 405.7586480322724,145.84525552892515Z" style="pointer-events: none; stroke-width: 1; fill: rgb(252, 251, 253); fill-opacity: 1; stroke: rgb(0, 0, 0); stroke-opacity: 1; opacity: 1;"/><g class="slicetext"><text data-notex="1" class="slicetext" text-anchor="middle" x="0" y="0" style="font-family: 'Times New Roman'; font-size: 12px; fill: rgb(0, 0, 0); fill-opacity: 1; white-space: pre;" transform="translate(404.6401758759332,103.60040147906338)scale(0.8251611962182173)rotate(37.908000000000015)"><tspan class="line" dy="0em" x="0" y="0">NPV Analysis</tspan><tspan class="line" dy="1.3em" x="0" y="0">5.16</tspan></text></g></g><g class="slice"><path class="surface" d="M362.9717148443198,112.52694107053156L383.0896435553998,75.65867633816444A210,210 0,0,0 295.94937166938644,50.43112253557615L293.25949733550914,92.3448980284609A168,168 0,0,1 362.9717148443198,112.52694107053156Z" style="pointer-events: none; stroke-width: 1; fill: rgb(248, 247, 251); fill-opacity: 1; stroke: rgb(0, 0, 0); stroke-opacity: 1; opacity: 1;"/><g class="slicetext"><text data-notex="1" class="slicetext" text-anchor="middle" x="0" y="0" style="font-family: 'Times New Roman'; font-size: 12px; fill: rgb(0, 0, 0); fill-opacity: 1; white-space: pre;" transform="translate(336.4873471470456,72.92852811376528)rotate(16.145999999999958)"><tspan class="line" dy="0em" x="0" y="0">Sales Forecasts</tspan><tspan class="line" dy="1.3em" x="0" y="0">6.93</tspan></text></g></g><g class="slice"><path class="surface" d="M293.25949733550914,92.3448980284609L295.94937166938644,50.43112253557615A210,210 0,0,0 228.10551808413692,57.16696438423833L238.98441446730953,97.73357150739065A168,168 0,0,1 293.25949733550914,92.3448980284609Z" style="pointer-events: none; stroke-width: 1; fill: rgb(252, 251, 253); fill-opacity: 1; stroke: rgb(0, 0, 0); stroke-opacity: 1; opacity: 1;"/><g class="slicetext"><text data-notex="1" class="slicetext" text-anchor="middle" x="0" y="0" style="font-family: 'Times New Roman'; font-size: 12px; fill: rgb(0, 0, 0); fill-opacity: 1; white-space: pre;" transform="translate(262.6903860428478,61.71398723832642)scale(0.7453786149041445)rotate(-5.670000000000073)"><tspan class="line" dy="0em" x="0" y="0">Cost Projections</tspan><tspan class="line" dy="1.3em" x="0" y="0">5.19</tspan></text></g></g></g></g><g class="glimages"/><defs id="topdefs-f7abfd"><g class="clips"/></defs><g class="layer-above"><g class="imagelayer"/><g class="shapelayer"/></g><g class="infolayer"><g class="cba082c2 colorbar" transform="translate(10,50)"><rect class="cbbg" x="571.5" y="63" width="48.015625" height="295" style="fill: rgb(0, 0, 0); fill-opacity: 0; stroke: rgb(68, 68, 68); stroke-opacity: 1; stroke-width: 0;"/><g class="cbfills" transform="translate(0,93)"><rect class="cbfill gradient_filled" style="fill: url('#gf7abfd-cba082c2');" x="582" y="0" width="15" height="254"/></g><g class="cblines" transform="translate(0,93)"/><g class="cbaxis crisp" transform="translate(0,-50)"><g class="ycba082c2tick"><text text-anchor="start" x="600.4" y="4.199999999999999" transform="translate(0,373.08000000000004)" style="font-family: 'Times New Roman'; font-size: 12px; fill: rgb(42, 63, 95); fill-opacity: 1; white-space: pre; opacity: 1;">10</text></g><g class="ycba082c2tick"><text text-anchor="start" x="600.4" y="4.199999999999999" style="font-family: 'Times New Roman'; font-size: 12px; fill: rgb(42, 63, 95); fill-opacity: 1; white-space: pre; opacity: 1;" transform="translate(0,323.6700000000001)">20</text></g><g class="ycba082c2tick"><text text-anchor="start" x="600.4" y="4.199999999999999" style="font-family: 'Times New Roman'; font-size: 12px; fill: rgb(42, 63, 95); fill-opacity: 1; white-space: pre; opacity: 1;" transform="translate(0,274.25000000000006)">30</text></g><g class="ycba082c2tick"><text text-anchor="start" x="600.4" y="4.199999999999999" style="font-family: 'Times New Roman'; font-size: 12px; fill: rgb(42, 63, 95); fill-opacity: 1; white-space: pre; opacity: 1;" transform="translate(0,224.83000000000004)">40</text></g><g class="ycba082c2tick"><text text-anchor="start" x="600.4" y="4.199999999999999" style="font-family: 'Times New Roman'; font-size: 12px; fill: rgb(42, 63, 95); fill-opacity: 1; white-space: pre; opacity: 1;" transform="translate(0,175.42000000000007)">50</text></g></g><g class="cbtitleunshift" transform="translate(-10,-50)"><g class="cbtitle" transform="translate(-0.5,-0.5)"><text class="ycba082c2title" x="592.25" y="135.75" text-anchor="start" style="opacity: 1; font-family: 'Times New Roman'; font-size: 13px; fill: rgb(42, 63, 95); fill-opacity: 1; white-space: pre;">%</text></g></g><rect class="cboutline" x="582" y="93" width="15" height="254" style="stroke: rgb(68, 68, 68); stroke-opacity: 1; fill: none; stroke-width: 1;"/></g><g class="g-gtitle"><text class="gtitle" x="320" y="25" text-anchor="middle" dy="0em" style="opacity: 1; font-family: 'Times New Roman'; font-size: 16px; fill: rgb(42, 63, 95); fill-opacity: 1; white-space: pre;">Business Distribution by Category (2021) (%)</text></g></g></svg>