<svg class="main-svg" xmlns="http://www.w3.org/2000/svg" xmlns:xlink="http://www.w3.org/1999/xlink" width="1920" height="1440" style="" viewBox="0 0 640 480"><rect x="0" y="0" width="640" height="480" style="fill: rgb(255, 255, 255); fill-opacity: 1;"/><defs id="defs-bc5ca9"><g class="clips"/><g class="gradients"><linearGradient x1="0" y1="1" x2="0" y2="0" gradientUnits="objectBoundingBox" id="gbc5ca9-cb9ac4d0"><stop offset="0%" stop-color="rgb(255, 255, 204)" stop-opacity="1"/><stop offset="12.5%" stop-color="rgb(255, 237, 160)" stop-opacity="1"/><stop offset="25%" stop-color="rgb(254, 217, 118)" stop-opacity="1"/><stop offset="37.5%" stop-color="rgb(254, 178, 76)" stop-opacity="1"/><stop offset="50%" stop-color="rgb(253, 141, 60)" stop-opacity="1"/><stop offset="62.5%" stop-color="rgb(252, 78, 42)" stop-opacity="1"/><stop offset="75%" stop-color="rgb(227, 26, 28)" stop-opacity="1"/><stop offset="87.5%" stop-color="rgb(189, 0, 38)" stop-opacity="1"/><stop offset="100%" stop-color="rgb(128, 0, 38)" stop-opacity="1"/></linearGradient></g><g class="patterns"/></defs><g class="bglayer"/><g class="layer-below"><g class="imagelayer"/><g class="shapelayer"/></g><g class="cartesianlayer"/><g class="polarlayer"/><g class="smithlayer"/><g class="ternarylayer"/><g class="geolayer"/><g class="funnelarealayer"/><g class="pielayer"/><g class="iciclelayer"/><g class="treemaplayer"/><g class="sunburstlayer"><g class="trace sunburst" stroke-linejoin="round" style="opacity: 1;"><g class="slice"><path class="surface" d="M282.5,260A0,0 0,1,0 282.5,260A0,0 0,1,0 282.5,260ZM335,260A52.5,52.5 0,1,1 230,260A52.5,52.5 0,1,1 335,260Z" style="pointer-events: none; stroke-width: 1; fill: rgb(255, 255, 255); fill-opacity: 1; stroke: rgb(0, 0, 0); stroke-opacity: 1;"/><g class="slicetext"><text data-notex="1" class="slicetext" text-anchor="middle" x="0" y="0" style="font-family: 'Times New Roman'; font-size: 12px; fill: rgb(0, 0, 0); fill-opacity: 1; white-space: pre;" transform="translate(282.5,264)">100</text></g></g><g class="slice cursor-pointer"><path class="surface" d="M335,260L387.5,260A105,105 0,0,0 208.48740533605206,185.52090339491127L245.49370266802603,222.76045169745564A52.5,52.5 0,0,1 335,260Z" style="pointer-events: none; stroke-width: 1; fill: rgb(128, 0, 38); fill-opacity: 1; stroke: rgb(0, 0, 0); stroke-opacity: 1;"/><g class="slicetext"><text data-notex="1" class="slicetext" text-anchor="middle" x="0" y="0" style="font-family: 'Times New Roman'; font-size: 12px; fill: rgb(0, 0, 0); fill-opacity: 1; white-space: pre;" transform="translate(310.4884320288478,191.85448809217448)rotate(22.590000000000032)"><tspan class="line" dy="0em" x="0" y="0">Financial Management</tspan><tspan class="line" dy="1.3em" x="0" y="0">37.45</tspan></text></g></g><g class="slice cursor-pointer"><path class="surface" d="M245.49370266802603,222.76045169745564L208.48740533605206,185.52090339491127A105,105 0,0,0 261.72442242649095,362.9241243658993L272.1122112132455,311.46206218294964A52.5,52.5 0,0,1 245.49370266802603,222.76045169745564Z" style="pointer-events: none; stroke-width: 1; fill: rgb(175, 0, 38); fill-opacity: 1; stroke: rgb(0, 0, 0); stroke-opacity: 1;"/><g class="slicetext"><text data-notex="1" class="slicetext" text-anchor="middle" x="0" y="0" style="font-family: 'Times New Roman'; font-size: 12px; fill: rgb(0, 0, 0); fill-opacity: 1; white-space: pre;" transform="translate(217.75344258703018,279.4298252572599)rotate(73.29599999999994)"><tspan class="line" dy="0em" x="0" y="0">Corporate Strategy</tspan><tspan class="line" dy="1.3em" x="0" y="0">34.38</tspan></text></g></g><g class="slice cursor-pointer"><path class="surface" d="M272.1122112132455,311.46206218294964L261.72442242649095,362.9241243658993A105,105 0,0,0 387.5,259.99999999999994L335,259.99999999999994A52.5,52.5 0,0,1 272.1122112132455,311.46206218294964Z" style="pointer-events: none; stroke-width: 1; fill: rgb(235, 43, 33); fill-opacity: 1; stroke: rgb(0, 0, 0); stroke-opacity: 1;"/><g class="slicetext"><text data-notex="1" class="slicetext" text-anchor="middle" x="0" y="0" style="font-family: 'Times New Roman'; font-size: 12px; fill: rgb(0, 0, 0); fill-opacity: 1; white-space: pre;" transform="translate(324.35416460432003,311.1467234664102)rotate(-39.294000000000096)"><tspan class="line" dy="0em" x="0" y="0">Digital Transformation</tspan><tspan class="line" dy="1.3em" x="0" y="0">28.17</tspan></text></g></g><g class="slice"><path class="surface" d="M387.5,260L440,260A157.5,157.5 0,0,0 264.0369979240796,103.58590998780014L270.19133194938644,155.72393999186676A105,105 0,0,1 387.5,260Z" style="pointer-events: none; stroke-width: 1; fill: rgb(243, 60, 37); fill-opacity: 1; stroke: rgb(0, 0, 0); stroke-opacity: 1; opacity: 1;"/><g class="slicetext"><text data-notex="1" class="slicetext" text-anchor="middle" x="0" y="0" style="font-family: 'Times New Roman'; font-size: 12px; fill: rgb(0, 0, 0); fill-opacity: 1; white-space: pre;" transform="translate(367.42699056552794,164.4586826160094)rotate(41.634000000000015)"><tspan class="line" dy="0em" x="0" y="0">Budgeting &amp; Planning</tspan><tspan class="line" dy="1.3em" x="0" y="0">26.87</tspan></text></g></g><g class="slice cursor-pointer"><path class="surface" d="M270.19133194938644,155.72393999186676L264.0369979240796,103.58590998780014A157.5,157.5 0,0,0 171.48110800407807,148.28135509236688L208.48740533605206,185.52090339491127A105,105 0,0,1 270.19133194938644,155.72393999186676Z" style="pointer-events: none; stroke-width: 1; fill: rgb(255, 232, 149); fill-opacity: 1; stroke: rgb(0, 0, 0); stroke-opacity: 1;"/><g class="slicetext"><text data-notex="1" class="slicetext" text-anchor="middle" x="0" y="0" style="font-family: 'Times New Roman'; font-size: 12px; fill: rgb(0, 0, 0); fill-opacity: 1; white-space: pre;" transform="translate(220.9104896523827,132.45966727427393)scale(0.862186976695375)rotate(-25.776000000000067)"><tspan class="line" dy="0em" x="0" y="0">Investment Strategy</tspan><tspan class="line" dy="1.3em" x="0" y="0">10.58</tspan></text></g></g><g class="slice"><path class="surface" d="M208.48740533605206,185.52090339491127L171.48110800407807,148.28135509236688A157.5,157.5 0,0,0 251.33663363973648,414.38618654884897L261.72442242649095,362.9241243658993A105,105 0,0,1 208.48740533605206,185.52090339491127Z" style="pointer-events: none; stroke-width: 1; fill: rgb(175, 0, 38); fill-opacity: 1; stroke: rgb(0, 0, 0); stroke-opacity: 1; opacity: 1;"/><g class="slicetext"><text data-notex="1" class="slicetext" text-anchor="middle" x="0" y="0" style="font-family: 'Times New Roman'; font-size: 12px; fill: rgb(0, 0, 0); fill-opacity: 1; white-space: pre;" transform="translate(166.41838374702218,294.8349875189481)rotate(73.29599999999994)"><tspan class="line" dy="0em" x="0" y="0">Innovation Strategy</tspan><tspan class="line" dy="1.3em" x="0" y="0">34.38</tspan></text></g></g><g class="slice cursor-pointer"><path class="surface" d="M261.72442242649095,362.9241243658993L251.33663363973648,414.38618654884897A157.5,157.5 0,0,0 389.6651990774444,375.4204059371293L353.9434660516296,336.94693729141954A105,105 0,0,1 261.72442242649095,362.9241243658993Z" style="pointer-events: none; stroke-width: 1; fill: rgb(254, 202, 102); fill-opacity: 1; stroke: rgb(0, 0, 0); stroke-opacity: 1;"/><g class="slicetext"><text data-notex="1" class="slicetext" text-anchor="middle" x="0" y="0" style="font-family: 'Times New Roman'; font-size: 12px; fill: rgb(0, 0, 0); fill-opacity: 1; white-space: pre;" transform="translate(316.0155095150125,378.9800968527531)rotate(-15.732000000000085)"><tspan class="line" dy="0em" x="0" y="0">Data Strategy</tspan><tspan class="line" dy="1.3em" x="0" y="0">15.08</tspan></text></g></g><g class="slice cursor-pointer"><path class="surface" d="M353.9434660516296,336.94693729141954L389.6651990774444,375.4204059371293A157.5,157.5 0,0,0 440,259.9999999999999L387.5,259.99999999999994A105,105 0,0,1 353.9434660516296,336.94693729141954Z" style="pointer-events: none; stroke-width: 1; fill: rgb(254, 219, 123); fill-opacity: 1; stroke: rgb(0, 0, 0); stroke-opacity: 1;"/><g class="slicetext"><text data-notex="1" class="slicetext" text-anchor="middle" x="0" y="0" style="font-family: 'Times New Roman'; font-size: 12px; fill: rgb(0, 0, 0); fill-opacity: 1; white-space: pre;" transform="translate(402.2200335555509,312.2098671074055)scale(0.9561591595271794)rotate(-66.4380000000001)"><tspan class="line" dy="0em" x="0" y="0">Technology Adoption</tspan><tspan class="line" dy="1.3em" x="0" y="0">13.09</tspan></text></g></g><g class="slice"><path class="surface" d="M264.0369979240796,103.58590998780014L257.8826638987729,51.447879983733515A210,210 0,0,0 134.4748106721041,111.04180678982252L171.48110800407807,148.28135509236688A157.5,157.5 0,0,1 264.0369979240796,103.58590998780014Z" style="pointer-events: none; stroke-width: 1; fill: rgb(255, 232, 149); fill-opacity: 1; stroke: rgb(0, 0, 0); stroke-opacity: 1; opacity: 1;"/><g class="slicetext"><text data-notex="1" class="slicetext" text-anchor="middle" x="0" y="0" style="font-family: 'Times New Roman'; font-size: 12px; fill: rgb(0, 0, 0); fill-opacity: 1; white-space: pre;" transform="translate(200.80231476278598,91.59193529748808)rotate(-25.776000000000067)"><tspan class="line" dy="0em" x="0" y="0">Risk Management</tspan><tspan class="line" dy="1.3em" x="0" y="0">10.58</tspan></text></g></g><g class="slice"><path class="surface" d="M251.33663363973648,414.38618654884897L240.94884485298195,465.8482487317986A210,210 0,0,0 363.7160619804502,453.6593691934053L343.41204648533767,405.24452689505404A157.5,157.5 0,0,1 251.33663363973648,414.38618654884897Z" style="pointer-events: none; stroke-width: 1; fill: rgb(255, 237, 161); fill-opacity: 1; stroke: rgb(0, 0, 0); stroke-opacity: 1; opacity: 1;"/><g class="slicetext"><text data-notex="1" class="slicetext" text-anchor="middle" x="0" y="0" style="font-family: 'Times New Roman'; font-size: 12px; fill: rgb(0, 0, 0); fill-opacity: 1; white-space: pre;" transform="translate(300.4547360572696,440.8413130235726)rotate(-5.669999999999959)"><tspan class="line" dy="0em" x="0" y="0">Data Governance</tspan><tspan class="line" dy="1.3em" x="0" y="0">9.49</tspan></text></g></g><g class="slice"><path class="surface" d="M343.41204648533767,405.24452689505404L363.7160619804502,453.6593691934053A210,210 0,0,0 425.38693210325926,413.8938745828391L389.6651990774444,375.4204059371293A157.5,157.5 0,0,1 343.41204648533767,405.24452689505404Z" style="pointer-events: none; stroke-width: 1; fill: rgb(255, 255, 204); fill-opacity: 1; stroke: rgb(0, 0, 0); stroke-opacity: 1; opacity: 1;"/><g class="slicetext"><text data-notex="1" class="slicetext" text-anchor="middle" x="0" y="0" style="font-family: 'Times New Roman'; font-size: 12px; fill: rgb(0, 0, 0); fill-opacity: 1; white-space: pre;" transform="translate(388.32929332171597,424.1268307498429)scale(0.6335989017392114)rotate(-32.81400000000008)"><tspan class="line" dy="0em" x="0" y="0">Business Intelligence</tspan><tspan class="line" dy="1.3em" x="0" y="0">5.59</tspan></text></g></g><g class="slice"><path class="surface" d="M389.6651990774444,375.4204059371293L425.38693210325926,413.8938745828391A210,210 0,0,0 477.704450607927,337.428821913144L428.9033379559453,318.071616434858A157.5,157.5 0,0,1 389.6651990774444,375.4204059371293Z" style="pointer-events: none; stroke-width: 1; fill: rgb(255, 248, 188); fill-opacity: 1; stroke: rgb(0, 0, 0); stroke-opacity: 1; opacity: 1;"/><g class="slicetext"><text data-notex="1" class="slicetext" text-anchor="middle" x="0" y="0" style="font-family: 'Times New Roman'; font-size: 12px; fill: rgb(0, 0, 0); fill-opacity: 1; white-space: pre;" transform="translate(438.3509998305854,366.6335179657721)scale(0.9081081070355524)rotate(-55.62000000000012)"><tspan class="line" dy="0em" x="0" y="0">Cloud Computing</tspan><tspan class="line" dy="1.3em" x="0" y="0">7.08</tspan></text></g></g><g class="slice"><path class="surface" d="M428.9033379559453,318.071616434858L477.704450607927,337.428821913144A210,210 0,0,0 492.5,259.9999999999999L440,259.9999999999999A157.5,157.5 0,0,1 428.9033379559453,318.071616434858Z" style="pointer-events: none; stroke-width: 1; fill: rgb(255, 253, 199); fill-opacity: 1; stroke: rgb(0, 0, 0); stroke-opacity: 1; opacity: 1;"/><g class="slicetext"><text data-notex="1" class="slicetext" text-anchor="middle" x="0" y="0" style="font-family: 'Times New Roman'; font-size: 12px; fill: rgb(0, 0, 0); fill-opacity: 1; white-space: pre;" transform="translate(467.99891966090627,295.44621189119766)scale(0.9662723883454025)rotate(-79.18200000000002)"><tspan class="line" dy="0em" x="0" y="0">AI Integration</tspan><tspan class="line" dy="1.3em" x="0" y="0">6.01</tspan></text></g></g></g></g><g class="glimages"/><defs id="topdefs-bc5ca9"><g class="clips"/></defs><g class="layer-above"><g class="imagelayer"/><g class="shapelayer"/></g><g class="infolayer"><g class="cb9ac4d0 colorbar" transform="translate(10,50)"><rect class="cbbg" x="571.5" y="63" width="48.015625" height="295" style="fill: rgb(0, 0, 0); fill-opacity: 0; stroke: rgb(68, 68, 68); stroke-opacity: 1; stroke-width: 0;"/><g class="cbfills" transform="translate(0,93)"><rect class="cbfill gradient_filled" style="fill: url('#gbc5ca9-cb9ac4d0');" x="582" y="0" width="15" height="254"/></g><g class="cblines" transform="translate(0,93)"/><g class="cbaxis crisp" transform="translate(0,-50)"><g class="ycb9ac4d0tick"><text text-anchor="start" x="600.4" y="4.199999999999999" transform="translate(0,361.84000000000003)" style="font-family: 'Times New Roman'; font-size: 12px; fill: rgb(42, 63, 95); fill-opacity: 1; white-space: pre; opacity: 1;">10</text></g><g class="ycb9ac4d0tick"><text text-anchor="start" x="600.4" y="4.199999999999999" style="font-family: 'Times New Roman'; font-size: 12px; fill: rgb(42, 63, 95); fill-opacity: 1; white-space: pre; opacity: 1;" transform="translate(0,321.98)">15</text></g><g class="ycb9ac4d0tick"><text text-anchor="start" x="600.4" y="4.199999999999999" style="font-family: 'Times New Roman'; font-size: 12px; fill: rgb(42, 63, 95); fill-opacity: 1; white-space: pre; opacity: 1;" transform="translate(0,282.12000000000006)">20</text></g><g class="ycb9ac4d0tick"><text text-anchor="start" x="600.4" y="4.199999999999999" style="font-family: 'Times New Roman'; font-size: 12px; fill: rgb(42, 63, 95); fill-opacity: 1; white-space: pre; opacity: 1;" transform="translate(0,242.26000000000005)">25</text></g><g class="ycb9ac4d0tick"><text text-anchor="start" x="600.4" y="4.199999999999999" style="font-family: 'Times New Roman'; font-size: 12px; fill: rgb(42, 63, 95); fill-opacity: 1; white-space: pre; opacity: 1;" transform="translate(0,202.39000000000004)">30</text></g><g class="ycb9ac4d0tick"><text text-anchor="start" x="600.4" y="4.199999999999999" style="font-family: 'Times New Roman'; font-size: 12px; fill: rgb(42, 63, 95); fill-opacity: 1; white-space: pre; opacity: 1;" transform="translate(0,162.53000000000006)">35</text></g></g><g class="cbtitleunshift" transform="translate(-10,-50)"><g class="cbtitle" transform="translate(-0.5,-0.5)"><text class="ycb9ac4d0title" x="592.25" y="135.75" text-anchor="start" style="opacity: 1; font-family: 'Times New Roman'; font-size: 13px; fill: rgb(42, 63, 95); fill-opacity: 1; white-space: pre;">%</text></g></g><rect class="cboutline" x="582" y="93" width="15" height="254" style="stroke: rgb(68, 68, 68); stroke-opacity: 1; fill: none; stroke-width: 1;"/></g><g class="g-gtitle"><text class="gtitle" x="320" y="25" text-anchor="middle" dy="0em" style="opacity: 1; font-family: 'Times New Roman'; font-size: 16px; fill: rgb(42, 63, 95); fill-opacity: 1; white-space: pre;">Business Distribution by Category (2021) (%)</text></g></g></svg>