<svg class="main-svg" xmlns="http://www.w3.org/2000/svg" xmlns:xlink="http://www.w3.org/1999/xlink" width="1920" height="1440" style="" viewBox="0 0 640 480"><rect x="0" y="0" width="640" height="480" style="fill: rgb(255, 255, 255); fill-opacity: 1;"/><defs id="defs-bb27bb"><g class="clips"/><g class="gradients"><linearGradient x1="0" y1="1" x2="0" y2="0" gradientUnits="objectBoundingBox" id="gbb27bb-cb0dca6c"><stop offset="0%" stop-color="rgb(247, 251, 255)" stop-opacity="1"/><stop offset="12.5%" stop-color="rgb(222, 235, 247)" stop-opacity="1"/><stop offset="25%" stop-color="rgb(198, 219, 239)" stop-opacity="1"/><stop offset="37.5%" stop-color="rgb(158, 202, 225)" stop-opacity="1"/><stop offset="50%" stop-color="rgb(107, 174, 214)" stop-opacity="1"/><stop offset="62.5%" stop-color="rgb(66, 146, 198)" stop-opacity="1"/><stop offset="75%" stop-color="rgb(33, 113, 181)" stop-opacity="1"/><stop offset="87.5%" stop-color="rgb(8, 81, 156)" stop-opacity="1"/><stop offset="100%" stop-color="rgb(8, 48, 107)" stop-opacity="1"/></linearGradient></g><g class="patterns"/></defs><g class="bglayer"/><g class="layer-below"><g class="imagelayer"/><g class="shapelayer"/></g><g class="cartesianlayer"/><g class="polarlayer"/><g class="smithlayer"/><g class="ternarylayer"/><g class="geolayer"/><g class="funnelarealayer"/><g class="pielayer"/><g class="iciclelayer"/><g class="treemaplayer"/><g class="sunburstlayer"><g class="trace sunburst" stroke-linejoin="round" style="opacity: 1;"><g class="slice"><path class="surface" d="M282.5,260A0,0 0,1,0 282.5,260A0,0 0,1,0 282.5,260ZM324.5,260A42,42 0,1,1 240.5,260A42,42 0,1,1 324.5,260Z" style="pointer-events: none; stroke-width: 1; fill: rgb(255, 255, 255); fill-opacity: 1; stroke: rgb(0, 0, 0); stroke-opacity: 1;"/><g class="slicetext"><text data-notex="1" class="slicetext" text-anchor="middle" x="0" y="0" style="font-family: 'Times New Roman'; font-size: 12px; fill: rgb(0, 0, 0); fill-opacity: 1; white-space: pre;" transform="translate(282.5,264)">100.01</text></g></g><g class="slice cursor-pointer"><path class="surface" d="M324.5,260L366.5,260A84,84 0,0,0 203.002328842979,232.8684633570055L242.7511644214895,246.43423167850275A42,42 0,0,1 324.5,260Z" style="pointer-events: none; stroke-width: 1; fill: rgb(8, 48, 107); fill-opacity: 1; stroke: rgb(0, 0, 0); stroke-opacity: 1;"/><g class="slicetext"><text data-notex="1" class="slicetext" text-anchor="middle" x="0" y="0" style="font-family: 'Times New Roman'; font-size: 12px; fill: rgb(0, 0, 0); fill-opacity: 1; white-space: pre;" transform="translate(292.4036124746331,198.31536643401742)rotate(9.422057794220564)"><tspan class="line" dy="0em" x="0" y="0">Rental Market</tspan><tspan class="line" dy="1.3em" x="0" y="0">44.77</tspan></text></g></g><g class="slice cursor-pointer"><path class="surface" d="M242.7511644214895,246.43423167850275L203.002328842979,232.8684633570055A84,84 0,0,0 295.0785648613517,343.0528729546954L288.7892824306759,301.52643647734766A42,42 0,0,1 242.7511644214895,246.43423167850275Z" style="pointer-events: none; stroke-width: 1; fill: rgb(48, 128, 189); fill-opacity: 1; stroke: rgb(0, 0, 0); stroke-opacity: 1;"/><g class="slicetext"><text data-notex="1" class="slicetext" text-anchor="middle" x="0" y="0" style="font-family: 'Times New Roman'; font-size: 12px; fill: rgb(0, 0, 0); fill-opacity: 1; white-space: pre;" transform="translate(241.65017216103152,294.13639373432386)scale(0.8964705263378435)rotate(50.115988401159825)"><tspan class="line" dy="0em" x="0" y="0">Residential Property</tspan><tspan class="line" dy="1.3em" x="0" y="0">32.63</tspan></text></g></g><g class="slice cursor-pointer"><path class="surface" d="M288.7892824306759,301.52643647734766L295.0785648613517,343.0528729546954A84,84 0,0,0 366.5,260L324.5,260A42,42 0,0,1 288.7892824306759,301.52643647734766Z" style="pointer-events: none; stroke-width: 1; fill: rgb(131, 187, 219); fill-opacity: 1; stroke: rgb(0, 0, 0); stroke-opacity: 1;"/><g class="slicetext"><text data-notex="1" class="slicetext" text-anchor="middle" x="0" y="0" style="font-family: 'Times New Roman'; font-size: 12px; fill: rgb(0, 0, 0); fill-opacity: 1; white-space: pre;" transform="translate(327.4484057470443,298.65344486516864)scale(0.6931644266901719)rotate(-49.30606939306074)"><tspan class="line" dy="0em" x="0" y="0">Commercial Real Estate</tspan><tspan class="line" dy="1.3em" x="0" y="0">22.61</tspan></text></g></g><g class="slice cursor-pointer"><path class="surface" d="M366.5,260L408.5,260A126,126 0,0,0 186.91477538944878,177.90575637628132L218.7765169262992,205.27050425085423A84,84 0,0,1 366.5,260Z" style="pointer-events: none; stroke-width: 1; fill: rgb(14, 88, 162); fill-opacity: 1; stroke: rgb(0, 0, 0); stroke-opacity: 1;"/><g class="slicetext"><text data-notex="1" class="slicetext" text-anchor="middle" x="0" y="0" style="font-family: 'Times New Roman'; font-size: 12px; fill: rgb(0, 0, 0); fill-opacity: 1; white-space: pre;" transform="translate(318.42019051726294,162.57353354221883)rotate(20.328967103289642)"><tspan class="line" dy="0em" x="0" y="0">Short-Term Rentals</tspan><tspan class="line" dy="1.3em" x="0" y="0">38.71</tspan></text></g></g><g class="slice"><path class="surface" d="M218.7765169262992,205.27050425085423L186.91477538944878,177.90575637628132A126,126 0,0,0 163.25349326446855,219.3026950355082L203.002328842979,232.86846335700548A84,84 0,0,1 218.7765169262992,205.27050425085423Z" style="pointer-events: none; stroke-width: 1; fill: rgb(242, 248, 253); fill-opacity: 1; stroke: rgb(0, 0, 0); stroke-opacity: 1; opacity: 1;"/><g class="slicetext"><text data-notex="1" class="slicetext" text-anchor="middle" x="0" y="0" style="font-family: 'Times New Roman'; font-size: 12px; fill: rgb(0, 0, 0); fill-opacity: 1; white-space: pre;" transform="translate(179.05131703166188,200.95751341320855)scale(0.43320766244577275)rotate(-60.248975102489794)"><tspan class="line" dy="0em" x="0" y="0">Long-Term Rentals</tspan><tspan class="line" dy="1.3em" x="0" y="0">6.06</tspan></text></g></g><g class="slice cursor-pointer"><path class="surface" d="M203.002328842979,232.8684633570055L163.2534932644685,219.30269503550826A126,126 0,0,0 220.3014906687665,369.578033551312L241.034327112511,333.0520223675413A84,84 0,0,1 203.002328842979,232.8684633570055Z" style="pointer-events: none; stroke-width: 1; fill: rgb(137, 191, 220); fill-opacity: 1; stroke: rgb(0, 0, 0); stroke-opacity: 1;"/><g class="slicetext"><text data-notex="1" class="slicetext" text-anchor="middle" x="0" y="0" style="font-family: 'Times New Roman'; font-size: 12px; fill: rgb(0, 0, 0); fill-opacity: 1; white-space: pre;" transform="translate(192.8774518150126,293.8488506476151)scale(0.9912063769117226)rotate(69.21207879212079)"><tspan class="line" dy="0em" x="0" y="0">Multi-Family Homes</tspan><tspan class="line" dy="1.3em" x="0" y="0">22.02</tspan></text></g></g><g class="slice cursor-pointer"><path class="surface" d="M241.034327112511,333.0520223675413L220.3014906687665,369.578033551312A126,126 0,0,0 301.3678472920275,384.57930943204303L295.07856486135165,343.0528729546954A84,84 0,0,1 241.034327112511,333.0520223675413Z" style="pointer-events: none; stroke-width: 1; fill: rgb(219, 233, 246); fill-opacity: 1; stroke: rgb(0, 0, 0); stroke-opacity: 1;"/><g class="slicetext"><text data-notex="1" class="slicetext" text-anchor="middle" x="0" y="0" style="font-family: 'Times New Roman'; font-size: 12px; fill: rgb(0, 0, 0); fill-opacity: 1; white-space: pre;" transform="translate(262.5936959014087,366.9992272100665)scale(0.6363137890012508)rotate(10.483951604839604)"><tspan class="line" dy="0em" x="0" y="0">Single Family Homes</tspan><tspan class="line" dy="1.3em" x="0" y="0">10.61</tspan></text></g></g><g class="slice"><path class="surface" d="M295.0785648613517,343.0528729546954L301.3678472920276,384.57930943204303A126,126 0,0,0 408.5,260.00000000000006L366.5,260A84,84 0,0,1 295.0785648613517,343.0528729546954Z" style="pointer-events: none; stroke-width: 1; fill: rgb(131, 187, 219); fill-opacity: 1; stroke: rgb(0, 0, 0); stroke-opacity: 1; opacity: 1;"/><g class="slicetext"><text data-notex="1" class="slicetext" text-anchor="middle" x="0" y="0" style="font-family: 'Times New Roman'; font-size: 12px; fill: rgb(0, 0, 0); fill-opacity: 1; white-space: pre;" transform="translate(356.0374979817217,323.45505824764666)rotate(-49.30606939306074)"><tspan class="line" dy="0em" x="0" y="0">Office Buildings</tspan><tspan class="line" dy="1.3em" x="0" y="0">22.61</tspan></text></g></g><g class="slice cursor-pointer"><path class="surface" d="M408.5,260L450.5,260A168,168 0,0,0 155.0530338525984,150.54100850170846L186.91477538944878,177.90575637628132A126,126 0,0,1 408.5,260Z" style="pointer-events: none; stroke-width: 1; fill: rgb(14, 88, 162); fill-opacity: 1; stroke: rgb(0, 0, 0); stroke-opacity: 1;"/><g class="slicetext"><text data-notex="1" class="slicetext" text-anchor="middle" x="0" y="0" style="font-family: 'Times New Roman'; font-size: 12px; fill: rgb(0, 0, 0); fill-opacity: 1; white-space: pre;" transform="translate(334.2411210201919,119.87036357200944)rotate(20.328967103289642)"><tspan class="line" dy="0em" x="0" y="0">Platforms</tspan><tspan class="line" dy="1.3em" x="0" y="0">38.71</tspan></text></g></g><g class="slice"><path class="surface" d="M163.2534932644685,219.30269503550826L123.50465768595802,205.73692671401102A168,168 0,0,0 140.45023742613608,349.69874554701914L175.96267806960205,327.27405916026436A126,126 0,0,1 163.2534932644685,219.30269503550826Z" style="pointer-events: none; stroke-width: 1; fill: rgb(202, 222, 240); fill-opacity: 1; stroke: rgb(0, 0, 0); stroke-opacity: 1; opacity: 1;"/><g class="slicetext"><text data-notex="1" class="slicetext" text-anchor="middle" x="0" y="0" style="font-family: 'Times New Roman'; font-size: 12px; fill: rgb(0, 0, 0); fill-opacity: 1; white-space: pre;" transform="translate(142.19256420376468,276.35023136190694)rotate(83.28667133286672)"><tspan class="line" dy="0em" x="0" y="0">Apartments</tspan><tspan class="line" dy="1.3em" x="0" y="0">14.2</tspan></text></g></g><g class="slice"><path class="surface" d="M175.96267806960205,327.27405916026436L140.45023742613608,349.69874554701914A168,168 0,0,0 199.568654225022,406.10404473508265L220.3014906687665,369.578033551312A126,126 0,0,1 175.96267806960205,327.27405916026436Z" style="pointer-events: none; stroke-width: 1; fill: rgb(233, 242, 251); fill-opacity: 1; stroke: rgb(0, 0, 0); stroke-opacity: 1; opacity: 1;"/><g class="slicetext"><text data-notex="1" class="slicetext" text-anchor="middle" x="0" y="0" style="font-family: 'Times New Roman'; font-size: 12px; fill: rgb(0, 0, 0); fill-opacity: 1; white-space: pre;" transform="translate(184.24254159904586,362.9836817278342)rotate(43.65463453654638)"><tspan class="line" dy="0em" x="0" y="0">Duplex</tspan><tspan class="line" dy="1.3em" x="0" y="0">7.82</tspan></text></g></g><g class="slice"><path class="surface" d="M220.3014906687665,369.578033551312L199.568654225022,406.10404473508265A168,168 0,0,0 253.85274437011037,425.53952623127736L261.0145582775828,384.154644673458A126,126 0,0,1 220.3014906687665,369.578033551312Z" style="pointer-events: none; stroke-width: 1; fill: rgb(245, 250, 254); fill-opacity: 1; stroke: rgb(0, 0, 0); stroke-opacity: 1; opacity: 1;"/><g class="slicetext"><text data-notex="1" class="slicetext" text-anchor="middle" x="0" y="0" style="font-family: 'Times New Roman'; font-size: 12px; fill: rgb(0, 0, 0); fill-opacity: 1; white-space: pre;" transform="translate(232.9096842754901,398.5077683637402)rotate(19.699030096990327)"><tspan class="line" dy="0em" x="0" y="0">Detached</tspan><tspan class="line" dy="1.3em" x="0" y="0">5.49</tspan></text></g></g><g class="slice"><path class="surface" d="M261.0145582775828,384.154644673458L253.85274437011037,425.53952623127736A168,168 0,0,0 307.6571297227033,426.10574590939075L301.3678472920275,384.57930943204303A126,126 0,0,1 261.0145582775828,384.154644673458Z" style="pointer-events: none; stroke-width: 1; fill: rgb(247, 251, 255); fill-opacity: 1; stroke: rgb(0, 0, 0); stroke-opacity: 1; opacity: 1;"/><g class="slicetext"><text data-notex="1" class="slicetext" text-anchor="middle" x="0" y="0" style="font-family: 'Times New Roman'; font-size: 12px; fill: rgb(0, 0, 0); fill-opacity: 1; white-space: pre;" transform="translate(280.8754603717221,414.3700432165398)scale(0.6225835496562767)rotate(0.6029397060293604)"><tspan class="line" dy="0em" x="0" y="0">Semi-Detached</tspan><tspan class="line" dy="1.3em" x="0" y="0">5.12</tspan></text></g></g><g class="slice"><path class="surface" d="M450.5,260L492.5,260A210,210 0,0,0 342.00036709333637,58.60559512300691L330.1002936746691,98.88447609840554A168,168 0,0,1 450.5,260Z" style="pointer-events: none; stroke-width: 1; fill: rgb(153, 200, 224); fill-opacity: 1; stroke: rgb(0, 0, 0); stroke-opacity: 1; opacity: 1;"/><g class="slicetext"><text data-notex="1" class="slicetext" text-anchor="middle" x="0" y="0" style="font-family: 'Times New Roman'; font-size: 12px; fill: rgb(0, 0, 0); fill-opacity: 1; white-space: pre;" transform="translate(434.7462864407591,146.0233574001119)rotate(53.22967703229676)"><tspan class="line" dy="0em" x="0" y="0">Airbnb Listings</tspan><tspan class="line" dy="1.3em" x="0" y="0">20.43</tspan></text></g></g><g class="slice"><path class="surface" d="M330.1002936746691,98.88447609840554L342.00036709333637,58.60559512300691A210,210 0,0,0 188.02408303574995,72.4518698739864L206.91926642859997,109.96149589918912A168,168 0,0,1 330.1002936746691,98.88447609840554Z" style="pointer-events: none; stroke-width: 1; fill: rgb(213, 229, 244); fill-opacity: 1; stroke: rgb(0, 0, 0); stroke-opacity: 1; opacity: 1;"/><g class="slicetext"><text data-notex="1" class="slicetext" text-anchor="middle" x="0" y="0" style="font-family: 'Times New Roman'; font-size: 12px; fill: rgb(0, 0, 0); fill-opacity: 1; white-space: pre;" transform="translate(265.0834292209118,70.07138971271061)rotate(-5.138486151384882)"><tspan class="line" dy="0em" x="0" y="0">Booking.com</tspan><tspan class="line" dy="1.3em" x="0" y="0">12</tspan></text></g></g><g class="slice"><path class="surface" d="M206.91926642859997,109.96149589918912L188.02408303574995,72.4518698739864A210,210 0,0,0 123.19129231574797,123.17626062713555L155.0530338525984,150.54100850170846A168,168 0,0,1 206.91926642859997,109.96149589918912Z" style="pointer-events: none; stroke-width: 1; fill: rgb(241, 247, 253); fill-opacity: 1; stroke: rgb(0, 0, 0); stroke-opacity: 1; opacity: 1;"/><g class="slicetext"><text data-notex="1" class="slicetext" text-anchor="middle" x="0" y="0" style="font-family: 'Times New Roman'; font-size: 12px; fill: rgb(0, 0, 0); fill-opacity: 1; white-space: pre;" transform="translate(163.68613279061444,108.41836312871925)rotate(-38.039196080392)"><tspan class="line" dy="0em" x="0" y="0">Vrbo Hosts</tspan><tspan class="line" dy="1.3em" x="0" y="0">6.28</tspan></text></g></g></g></g><g class="glimages"/><defs id="topdefs-bb27bb"><g class="clips"/></defs><g class="layer-above"><g class="imagelayer"/><g class="shapelayer"/></g><g class="infolayer"><g class="cb0dca6c colorbar" transform="translate(10,50)"><rect class="cbbg" x="571.5" y="63" width="48.015625" height="295" style="fill: rgb(0, 0, 0); fill-opacity: 0; stroke: rgb(68, 68, 68); stroke-opacity: 1; stroke-width: 0;"/><g class="cbfills" transform="translate(0,93)"><rect class="cbfill gradient_filled" style="fill: url('#gbb27bb-cb0dca6c');" x="582" y="0" width="15" height="254"/></g><g class="cblines" transform="translate(0,93)"/><g class="cbaxis crisp" transform="translate(0,-50)"><g class="ycb0dca6ctick"><text text-anchor="start" x="600.4" y="4.199999999999999" transform="translate(0,365.74000000000007)" style="font-family: 'Times New Roman'; font-size: 12px; fill: rgb(42, 63, 95); fill-opacity: 1; white-space: pre; opacity: 1;">10</text></g><g class="ycb0dca6ctick"><text text-anchor="start" x="600.4" y="4.199999999999999" style="font-family: 'Times New Roman'; font-size: 12px; fill: rgb(42, 63, 95); fill-opacity: 1; white-space: pre; opacity: 1;" transform="translate(0,301.68000000000006)">20</text></g><g class="ycb0dca6ctick"><text text-anchor="start" x="600.4" y="4.199999999999999" style="font-family: 'Times New Roman'; font-size: 12px; fill: rgb(42, 63, 95); fill-opacity: 1; white-space: pre; opacity: 1;" transform="translate(0,237.62000000000006)">30</text></g><g class="ycb0dca6ctick"><text text-anchor="start" x="600.4" y="4.199999999999999" style="font-family: 'Times New Roman'; font-size: 12px; fill: rgb(42, 63, 95); fill-opacity: 1; white-space: pre; opacity: 1;" transform="translate(0,173.56000000000006)">40</text></g></g><g class="cbtitleunshift" transform="translate(-10,-50)"><g class="cbtitle" transform="translate(-0.5,-0.5)"><text class="ycb0dca6ctitle" x="592.25" y="135.75" text-anchor="start" style="opacity: 1; font-family: 'Times New Roman'; font-size: 13px; fill: rgb(42, 63, 95); fill-opacity: 1; white-space: pre;">%</text></g></g><rect class="cboutline" x="582" y="93" width="15" height="254" style="stroke: rgb(68, 68, 68); stroke-opacity: 1; fill: none; stroke-width: 1;"/></g><g class="g-gtitle"><text class="gtitle" x="320" y="25" text-anchor="middle" dy="0em" style="opacity: 1; font-family: 'Times New Roman'; font-size: 16px; fill: rgb(42, 63, 95); fill-opacity: 1; white-space: pre;">Housing Market Distribution by Category (2023) (%)</text></g></g></svg>