<svg class="main-svg" xmlns="http://www.w3.org/2000/svg" xmlns:xlink="http://www.w3.org/1999/xlink" width="1920" height="1440" style="" viewBox="0 0 640 480"><rect x="0" y="0" width="640" height="480" style="fill: rgb(255, 255, 255); fill-opacity: 1;"/><defs id="defs-b8fbfe"><g class="clips"/><g class="gradients"><linearGradient x1="0" y1="1" x2="0" y2="0" gradientUnits="objectBoundingBox" id="gb8fbfe-cb3a69ca"><stop offset="0%" stop-color="rgb(247, 251, 255)" stop-opacity="1"/><stop offset="12.5%" stop-color="rgb(222, 235, 247)" stop-opacity="1"/><stop offset="25%" stop-color="rgb(198, 219, 239)" stop-opacity="1"/><stop offset="37.5%" stop-color="rgb(158, 202, 225)" stop-opacity="1"/><stop offset="50%" stop-color="rgb(107, 174, 214)" stop-opacity="1"/><stop offset="62.5%" stop-color="rgb(66, 146, 198)" stop-opacity="1"/><stop offset="75%" stop-color="rgb(33, 113, 181)" stop-opacity="1"/><stop offset="87.5%" stop-color="rgb(8, 81, 156)" stop-opacity="1"/><stop offset="100%" stop-color="rgb(8, 48, 107)" stop-opacity="1"/></linearGradient></g><g class="patterns"/></defs><g class="bglayer"/><g class="layer-below"><g class="imagelayer"/><g class="shapelayer"/></g><g class="cartesianlayer"/><g class="polarlayer"/><g class="smithlayer"/><g class="ternarylayer"/><g class="geolayer"/><g class="funnelarealayer"/><g class="pielayer"/><g class="iciclelayer"/><g class="treemaplayer"/><g class="sunburstlayer"><g class="trace sunburst" stroke-linejoin="round" style="opacity: 1;"><g class="slice"><path class="surface" d="M282.5,260A0,0 0,1,0 282.5,260A0,0 0,1,0 282.5,260ZM324.5,260A42,42 0,1,1 240.5,260A42,42 0,1,1 324.5,260Z" style="pointer-events: none; stroke-width: 1; fill: rgb(255, 255, 255); fill-opacity: 1; stroke: rgb(0, 0, 0); stroke-opacity: 1;"/><g class="slicetext"><text data-notex="1" class="slicetext" text-anchor="middle" x="0" y="0" style="font-family: 'Times New Roman'; font-size: 12px; fill: rgb(0, 0, 0); fill-opacity: 1; white-space: pre;" transform="translate(282.5,264)">100.01</text></g></g><g class="slice cursor-pointer"><path class="surface" d="M324.5,260L366.5,260A84,84 0,0,0 207.45109356892425,222.2685589527827L244.97554678446213,241.13427947639136A42,42 0,0,1 324.5,260Z" style="pointer-events: none; stroke-width: 1; fill: rgb(8, 48, 107); fill-opacity: 1; stroke: rgb(0, 0, 0); stroke-opacity: 1;"/><g class="slicetext"><text data-notex="1" class="slicetext" text-anchor="middle" x="0" y="0" style="font-family: 'Times New Roman'; font-size: 12px; fill: rgb(0, 0, 0); fill-opacity: 1; white-space: pre;" transform="translate(296.36265747598134,201.56490050236195)scale(0.8964705263378435)rotate(13.345665433456702)"><tspan class="line" dy="0em" x="0" y="0">Residential Property</tspan><tspan class="line" dy="1.3em" x="0" y="0">42.59</tspan></text></g></g><g class="slice cursor-pointer"><path class="surface" d="M244.97554678446213,241.13427947639136L207.45109356892425,222.2685589527827A84,84 0,0,0 293.7203076439854,343.2472503832669L288.1101538219927,301.62362519163344A42,42 0,0,1 244.97554678446213,241.13427947639136Z" style="pointer-events: none; stroke-width: 1; fill: rgb(26, 104, 174); fill-opacity: 1; stroke: rgb(0, 0, 0); stroke-opacity: 1;"/><g class="slicetext"><text data-notex="1" class="slicetext" text-anchor="middle" x="0" y="0" style="font-family: 'Times New Roman'; font-size: 12px; fill: rgb(0, 0, 0); fill-opacity: 1; white-space: pre;" transform="translate(239.79060035123115,290.45582902038706)scale(0.8209780396795036)rotate(54.50754924507555)"><tspan class="line" dy="0em" x="0" y="0">Commercial Real Estate</tspan><tspan class="line" dy="1.3em" x="0" y="0">34.55</tspan></text></g></g><g class="slice cursor-pointer"><path class="surface" d="M288.1101538219927,301.62362519163344L293.7203076439854,343.2472503832669A84,84 0,0,0 366.5,260.0000000000001L324.5,260.00000000000006A42,42 0,0,1 288.1101538219927,301.62362519163344Z" style="pointer-events: none; stroke-width: 1; fill: rgb(117, 180, 216); fill-opacity: 1; stroke: rgb(0, 0, 0); stroke-opacity: 1;"/><g class="slicetext"><text data-notex="1" class="slicetext" text-anchor="middle" x="0" y="0" style="font-family: 'Times New Roman'; font-size: 12px; fill: rgb(0, 0, 0); fill-opacity: 1; white-space: pre;" transform="translate(324.2343494066551,296.9224899583722)rotate(-48.83811618838115)"><tspan class="line" dy="0em" x="0" y="0">Rental Market</tspan><tspan class="line" dy="1.3em" x="0" y="0">22.87</tspan></text></g></g><g class="slice cursor-pointer"><path class="surface" d="M366.5,260L408.5,260A126,126 0,0,0 292.7991153649961,134.42162517894053L289.3660769099974,176.28108345262703A84,84 0,0,1 366.5,260Z" style="pointer-events: none; stroke-width: 1; fill: rgb(108, 175, 214); fill-opacity: 1; stroke: rgb(0, 0, 0); stroke-opacity: 1;"/><g class="slicetext"><text data-notex="1" class="slicetext" text-anchor="middle" x="0" y="0" style="font-family: 'Times New Roman'; font-size: 12px; fill: rgb(0, 0, 0); fill-opacity: 1; white-space: pre;" transform="translate(358.22939224541045,190.0087720211124)scale(0.9790393423296554)rotate(47.344265573442726)"><tspan class="line" dy="0em" x="0" y="0">Single Family Homes</tspan><tspan class="line" dy="1.3em" x="0" y="0">23.7</tspan></text></g></g><g class="slice"><path class="surface" d="M289.3660769099974,176.28108345262703L292.7991153649961,134.42162517894053A126,126 0,0,0 169.92664035338638,203.402838429174L207.45109356892425,222.26855895278268A84,84 0,0,1 289.3660769099974,176.28108345262703Z" style="pointer-events: none; stroke-width: 1; fill: rgb(160, 203, 226); fill-opacity: 1; stroke: rgb(0, 0, 0); stroke-opacity: 1; opacity: 1;"/><g class="slicetext"><text data-notex="1" class="slicetext" text-anchor="middle" x="0" y="0" style="font-family: 'Times New Roman'; font-size: 12px; fill: rgb(0, 0, 0); fill-opacity: 1; white-space: pre;" transform="translate(231.76766052836803,169.96544101256077)scale(0.9912063769117226)rotate(-29.310068993100685)"><tspan class="line" dy="0em" x="0" y="0">Multi-Family Homes</tspan><tspan class="line" dy="1.3em" x="0" y="0">18.89</tspan></text></g></g><g class="slice cursor-pointer"><path class="surface" d="M207.45109356892425,222.2685589527827L169.92664035338635,203.40283842917407A126,126 0,0,0 188.21591655291348,343.58535522771217L219.643944368609,315.72357015180813A84,84 0,0,1 207.45109356892425,222.2685589527827Z" style="pointer-events: none; stroke-width: 1; fill: rgb(160, 203, 226); fill-opacity: 1; stroke: rgb(0, 0, 0); stroke-opacity: 1;"/><g class="slicetext"><text data-notex="1" class="slicetext" text-anchor="middle" x="0" y="0" style="font-family: 'Times New Roman'; font-size: 12px; fill: rgb(0, 0, 0); fill-opacity: 1; white-space: pre;" transform="translate(186.16480683119624,272.4031682949645)rotate(82.5667433256674)"><tspan class="line" dy="0em" x="0" y="0">Office Buildings</tspan><tspan class="line" dy="1.3em" x="0" y="0">18.96</tspan></text></g></g><g class="slice cursor-pointer"><path class="surface" d="M219.643944368609,315.72357015180813L188.21591655291348,343.58535522771217A126,126 0,0,0 299.33046146597815,384.8708755749003L293.7203076439854,343.2472503832669A84,84 0,0,1 219.643944368609,315.72357015180813Z" style="pointer-events: none; stroke-width: 1; fill: rgb(188, 215, 236); fill-opacity: 1; stroke: rgb(0, 0, 0); stroke-opacity: 1;"/><g class="slicetext"><text data-notex="1" class="slicetext" text-anchor="middle" x="0" y="0" style="font-family: 'Times New Roman'; font-size: 12px; fill: rgb(0, 0, 0); fill-opacity: 1; white-space: pre;" transform="translate(248.16128884883517,351.9470752013926)rotate(20.38296170382955)"><tspan class="line" dy="0em" x="0" y="0">Retail Spaces</tspan><tspan class="line" dy="1.3em" x="0" y="0">15.59</tspan></text></g></g><g class="slice"><path class="surface" d="M293.7203076439854,343.2472503832669L299.33046146597815,384.8708755749003A126,126 0,0,0 408.5,260.00000000000017L366.5,260.0000000000001A84,84 0,0,1 293.7203076439854,343.2472503832669Z" style="pointer-events: none; stroke-width: 1; fill: rgb(117, 180, 216); fill-opacity: 1; stroke: rgb(0, 0, 0); stroke-opacity: 1; opacity: 1;"/><g class="slicetext"><text data-notex="1" class="slicetext" text-anchor="middle" x="0" y="0" style="font-family: 'Times New Roman'; font-size: 12px; fill: rgb(0, 0, 0); fill-opacity: 1; white-space: pre;" transform="translate(354.86377245901963,323.49300756040884)rotate(-48.83811618838115)"><tspan class="line" dy="0em" x="0" y="0">Long-Term Rentals</tspan><tspan class="line" dy="1.3em" x="0" y="0">22.87</tspan></text></g></g><g class="slice cursor-pointer"><path class="surface" d="M408.5,260L450.5,260A168,168 0,0,0 296.23215381999483,92.56216690525406L292.7991153649961,134.42162517894053A126,126 0,0,1 408.5,260Z" style="pointer-events: none; stroke-width: 1; fill: rgb(108, 175, 214); fill-opacity: 1; stroke: rgb(0, 0, 0); stroke-opacity: 1;"/><g class="slicetext"><text data-notex="1" class="slicetext" text-anchor="middle" x="0" y="0" style="font-family: 'Times New Roman'; font-size: 12px; fill: rgb(0, 0, 0); fill-opacity: 1; white-space: pre;" transform="translate(391.2226208320379,159.8290634989701)rotate(47.344265573442726)"><tspan class="line" dy="0em" x="0" y="0">Semi-Detached</tspan><tspan class="line" dy="1.3em" x="0" y="0">23.7</tspan></text></g></g><g class="slice"><path class="surface" d="M169.92664035338635,203.40283842917407L132.40218713784847,184.53711790556542A168,168 0,0,0 126.0824731680934,321.298917607L165.18685487607007,305.97418820525A126,126 0,0,1 169.92664035338635,203.40283842917407Z" style="pointer-events: none; stroke-width: 1; fill: rgb(204, 223, 241); fill-opacity: 1; stroke: rgb(0, 0, 0); stroke-opacity: 1; opacity: 1;"/><g class="slicetext"><text data-notex="1" class="slicetext" text-anchor="middle" x="0" y="0" style="font-family: 'Times New Roman'; font-size: 12px; fill: rgb(0, 0, 0); fill-opacity: 1; white-space: pre;" transform="translate(135.8661716878367,253.38834068079984)rotate(-87.35426457354265)"><tspan class="line" dy="0em" x="0" y="0">Downtown Offices</tspan><tspan class="line" dy="1.3em" x="0" y="0">13.36</tspan></text></g></g><g class="slice"><path class="surface" d="M165.18685487607007,305.97418820525L126.0824731680934,321.298917607A168,168 0,0,0 156.787888737218,371.4471403036162L188.21591655291348,343.58535522771217A126,126 0,0,1 165.18685487607007,305.97418820525Z" style="pointer-events: none; stroke-width: 1; fill: rgb(244, 249, 254); fill-opacity: 1; stroke: rgb(0, 0, 0); stroke-opacity: 1; opacity: 1;"/><g class="slicetext"><text data-notex="1" class="slicetext" text-anchor="middle" x="0" y="0" style="font-family: 'Times New Roman'; font-size: 12px; fill: rgb(0, 0, 0); fill-opacity: 1; white-space: pre;" transform="translate(150.7004458244508,340.5792394255271)scale(0.5990590767835526)rotate(58.52114788521146)"><tspan class="line" dy="0em" x="0" y="0">Suburban Offices</tspan><tspan class="line" dy="1.3em" x="0" y="0">5.6</tspan></text></g></g><g class="slice"><path class="surface" d="M188.21591655291348,343.58535522771217L156.787888737218,371.4471403036162A168,168 0,0,0 251.56752818399343,425.1277753358046L259.30064613799505,383.84583150185347A126,126 0,0,1 188.21591655291348,343.58535522771217Z" style="pointer-events: none; stroke-width: 1; fill: rgb(218, 232, 246); fill-opacity: 1; stroke: rgb(0, 0, 0); stroke-opacity: 1; opacity: 1;"/><g class="slicetext"><text data-notex="1" class="slicetext" text-anchor="middle" x="0" y="0" style="font-family: 'Times New Roman'; font-size: 12px; fill: rgb(0, 0, 0); fill-opacity: 1; white-space: pre;" transform="translate(212.0001508705732,384.1430856408099)rotate(29.526047395260548)"><tspan class="line" dy="0em" x="0" y="0">Shopping Centers</tspan><tspan class="line" dy="1.3em" x="0" y="0">10.51</tspan></text></g></g><g class="slice"><path class="surface" d="M259.30064613799505,383.84583150185347L251.56752818399343,425.1277753358046A168,168 0,0,0 304.94061528797084,426.4945007665337L299.33046146597815,384.8708755749003A126,126 0,0,1 259.30064613799505,383.84583150185347Z" style="pointer-events: none; stroke-width: 1; fill: rgb(247, 251, 255); fill-opacity: 1; stroke: rgb(0, 0, 0); stroke-opacity: 1; opacity: 1;"/><g class="slicetext"><text data-notex="1" class="slicetext" text-anchor="middle" x="0" y="0" style="font-family: 'Times New Roman'; font-size: 12px; fill: rgb(0, 0, 0); fill-opacity: 1; white-space: pre;" transform="translate(278.4100576747525,416.46170221393754)scale(0.5083298417304787)rotate(1.4668533146685832)"><tspan class="line" dy="0em" x="0" y="0">Street-Level Shops</tspan><tspan class="line" dy="1.3em" x="0" y="0">5.08</tspan></text></g></g><g class="slice"><path class="surface" d="M450.5,260L492.5,260A210,210 0,0,0 454.6972683780639,139.79974724180883L420.2578147024511,163.83979779344708A168,168 0,0,1 450.5,260Z" style="pointer-events: none; stroke-width: 1; fill: rgb(222, 235, 247); fill-opacity: 1; stroke: rgb(0, 0, 0); stroke-opacity: 1; opacity: 1;"/><g class="slicetext"><text data-notex="1" class="slicetext" text-anchor="middle" x="0" y="0" style="font-family: 'Times New Roman'; font-size: 12px; fill: rgb(0, 0, 0); fill-opacity: 1; white-space: pre;" transform="translate(464.5367366170418,202.5778368747138)rotate(72.54174582541748)"><tspan class="line" dy="0em" x="0" y="0">Corner Units</tspan><tspan class="line" dy="1.3em" x="0" y="0">9.7</tspan></text></g></g><g class="slice"><path class="surface" d="M420.2578147024511,163.83979779344708L454.6972683780639,139.79974724180883A210,210 0,0,0 370.61993424421144,69.38290425883662L352.99594739536917,107.50632340706929A168,168 0,0,1 420.2578147024511,163.83979779344708Z" style="pointer-events: none; stroke-width: 1; fill: rgb(229, 240, 249); fill-opacity: 1; stroke: rgb(0, 0, 0); stroke-opacity: 1; opacity: 1;"/><g class="slicetext"><text data-notex="1" class="slicetext" text-anchor="middle" x="0" y="0" style="font-family: 'Times New Roman'; font-size: 12px; fill: rgb(0, 0, 0); fill-opacity: 1; white-space: pre;" transform="translate(406.00005387914064,112.27391057904865)rotate(39.94700529946999)"><tspan class="line" dy="0em" x="0" y="0">Attached Garages</tspan><tspan class="line" dy="1.3em" x="0" y="0">8.41</tspan></text></g></g><g class="slice"><path class="surface" d="M352.99594739536917,107.50632340706929L370.61993424421144,69.38290425883662A210,210 0,0,0 299.6651922749935,50.70270863156756L296.23215381999483,92.56216690525406A168,168 0,0,1 352.99594739536917,107.50632340706929Z" style="pointer-events: none; stroke-width: 1; fill: rgb(244, 249, 254); fill-opacity: 1; stroke: rgb(0, 0, 0); stroke-opacity: 1; opacity: 1;"/><g class="slicetext"><text data-notex="1" class="slicetext" text-anchor="middle" x="0" y="0" style="font-family: 'Times New Roman'; font-size: 12px; fill: rgb(0, 0, 0); fill-opacity: 1; white-space: pre;" transform="translate(333.23906484247374,66.84058488716768)scale(0.6710935753368229)rotate(14.74952504749524)"><tspan class="line" dy="0em" x="0" y="0">Shared Wall Homes</tspan><tspan class="line" dy="1.3em" x="0" y="0">5.59</tspan></text></g></g></g></g><g class="glimages"/><defs id="topdefs-b8fbfe"><g class="clips"/></defs><g class="layer-above"><g class="imagelayer"/><g class="shapelayer"/></g><g class="infolayer"><g class="cb3a69ca colorbar" transform="translate(10,50)"><rect class="cbbg" x="571.5" y="63" width="48.015625" height="295" style="fill: rgb(0, 0, 0); fill-opacity: 0; stroke: rgb(68, 68, 68); stroke-opacity: 1; stroke-width: 0;"/><g class="cbfills" transform="translate(0,93)"><rect class="cbfill gradient_filled" style="fill: url('#gb8fbfe-cb3a69ca');" x="582" y="0" width="15" height="254"/></g><g class="cblines" transform="translate(0,93)"/><g class="cbaxis crisp" transform="translate(0,-50)"><g class="ycb3a69catick"><text text-anchor="start" x="600.4" y="4.199999999999999" transform="translate(0,363.68000000000006)" style="font-family: 'Times New Roman'; font-size: 12px; fill: rgb(42, 63, 95); fill-opacity: 1; white-space: pre; opacity: 1;">10</text></g><g class="ycb3a69catick"><text text-anchor="start" x="600.4" y="4.199999999999999" style="font-family: 'Times New Roman'; font-size: 12px; fill: rgb(42, 63, 95); fill-opacity: 1; white-space: pre; opacity: 1;" transform="translate(0,295.97)">20</text></g><g class="ycb3a69catick"><text text-anchor="start" x="600.4" y="4.199999999999999" style="font-family: 'Times New Roman'; font-size: 12px; fill: rgb(42, 63, 95); fill-opacity: 1; white-space: pre; opacity: 1;" transform="translate(0,228.25000000000006)">30</text></g><g class="ycb3a69catick"><text text-anchor="start" x="600.4" y="4.199999999999999" style="font-family: 'Times New Roman'; font-size: 12px; fill: rgb(42, 63, 95); fill-opacity: 1; white-space: pre; opacity: 1;" transform="translate(0,160.54000000000005)">40</text></g></g><g class="cbtitleunshift" transform="translate(-10,-50)"><g class="cbtitle" transform="translate(-0.5,-0.5)"><text class="ycb3a69catitle" x="592.25" y="135.75" text-anchor="start" style="opacity: 1; font-family: 'Times New Roman'; font-size: 13px; fill: rgb(42, 63, 95); fill-opacity: 1; white-space: pre;">%</text></g></g><rect class="cboutline" x="582" y="93" width="15" height="254" style="stroke: rgb(68, 68, 68); stroke-opacity: 1; fill: none; stroke-width: 1;"/></g><g class="g-gtitle"><text class="gtitle" x="320" y="25" text-anchor="middle" dy="0em" style="opacity: 1; font-family: 'Times New Roman'; font-size: 16px; fill: rgb(42, 63, 95); fill-opacity: 1; white-space: pre;">Housing Market Distribution by Category (2023) (%)</text></g></g></svg>