<svg class="main-svg" xmlns="http://www.w3.org/2000/svg" xmlns:xlink="http://www.w3.org/1999/xlink" width="1920" height="1440" style="" viewBox="0 0 640 480"><rect x="0" y="0" width="640" height="480" style="fill: rgb(255, 255, 255); fill-opacity: 1;"/><defs id="defs-bd9978"><g class="clips"/><g class="gradients"><linearGradient x1="0" y1="1" x2="0" y2="0" gradientUnits="objectBoundingBox" id="gbd9978-cb7fff3d"><stop offset="0%" stop-color="rgb(255, 255, 204)" stop-opacity="1"/><stop offset="12.5%" stop-color="rgb(255, 237, 160)" stop-opacity="1"/><stop offset="25%" stop-color="rgb(254, 217, 118)" stop-opacity="1"/><stop offset="37.5%" stop-color="rgb(254, 178, 76)" stop-opacity="1"/><stop offset="50%" stop-color="rgb(253, 141, 60)" stop-opacity="1"/><stop offset="62.5%" stop-color="rgb(252, 78, 42)" stop-opacity="1"/><stop offset="75%" stop-color="rgb(227, 26, 28)" stop-opacity="1"/><stop offset="87.5%" stop-color="rgb(189, 0, 38)" stop-opacity="1"/><stop offset="100%" stop-color="rgb(128, 0, 38)" stop-opacity="1"/></linearGradient></g><g class="patterns"/></defs><g class="bglayer"/><g class="layer-below"><g class="imagelayer"/><g class="shapelayer"/></g><g class="cartesianlayer"/><g class="polarlayer"/><g class="smithlayer"/><g class="ternarylayer"/><g class="geolayer"/><g class="funnelarealayer"/><g class="pielayer"/><g class="iciclelayer"/><g class="treemaplayer"/><g class="sunburstlayer"><g class="trace sunburst" stroke-linejoin="round" style="opacity: 1;"><g class="slice"><path class="surface" d="M282.5,260A0,0 0,1,0 282.5,260A0,0 0,1,0 282.5,260ZM324.5,260A42,42 0,1,1 240.5,260A42,42 0,1,1 324.5,260Z" style="pointer-events: none; stroke-width: 1; fill: rgb(255, 255, 255); fill-opacity: 1; stroke: rgb(0, 0, 0); stroke-opacity: 1;"/><g class="slicetext"><text data-notex="1" class="slicetext" text-anchor="middle" x="0" y="0" style="font-family: 'Times New Roman'; font-size: 12px; fill: rgb(0, 0, 0); fill-opacity: 1; white-space: pre;" transform="translate(282.5,264)">100</text></g></g><g class="slice cursor-pointer"><path class="surface" d="M324.5,260L366.5,260A84,84 0,0,0 202.2289216866111,235.25017199239994L242.36446084330555,247.62508599619997A42,42 0,0,1 324.5,260Z" style="pointer-events: none; stroke-width: 1; fill: rgb(128, 0, 38); fill-opacity: 1; stroke: rgb(0, 0, 0); stroke-opacity: 1;"/><g class="slicetext"><text data-notex="1" class="slicetext" text-anchor="middle" x="0" y="0" style="font-family: 'Times New Roman'; font-size: 12px; fill: rgb(0, 0, 0); fill-opacity: 1; white-space: pre;" transform="translate(291.24580005944364,201.95183877492232)scale(0.8209780396795036)rotate(8.567999999999984)"><tspan class="line" dy="0em" x="0" y="0">Commercial Real Estate</tspan><tspan class="line" dy="1.3em" x="0" y="0">45.24</tspan></text></g></g><g class="slice cursor-pointer"><path class="surface" d="M242.36446084330555,247.62508599619997L202.2289216866111,235.25017199239994A84,84 0,0,0 302.6222248675215,341.5542522887734L292.56111243376074,300.77712614438667A42,42 0,0,1 242.36446084330555,247.62508599619997Z" style="pointer-events: none; stroke-width: 1; fill: rgb(238, 48, 34); fill-opacity: 1; stroke: rgb(0, 0, 0); stroke-opacity: 1;"/><g class="slicetext"><text data-notex="1" class="slicetext" text-anchor="middle" x="0" y="0" style="font-family: 'Times New Roman'; font-size: 12px; fill: rgb(0, 0, 0); fill-opacity: 1; white-space: pre;" transform="translate(243.79629721458366,296.5516785162639)scale(0.8964705263378435)rotate(46.63799999999992)"><tspan class="line" dy="0em" x="0" y="0">Residential Property</tspan><tspan class="line" dy="1.3em" x="0" y="0">33.61</tspan></text></g></g><g class="slice cursor-pointer"><path class="surface" d="M292.56111243376074,300.77712614438667L302.6222248675215,341.5542522887734A84,84 0,0,0 366.5,259.99999999999994L324.5,260A42,42 0,0,1 292.56111243376074,300.77712614438667Z" style="pointer-events: none; stroke-width: 1; fill: rgb(254, 179, 77); fill-opacity: 1; stroke: rgb(0, 0, 0); stroke-opacity: 1;"/><g class="slicetext"><text data-notex="1" class="slicetext" text-anchor="middle" x="0" y="0" style="font-family: 'Times New Roman'; font-size: 12px; fill: rgb(0, 0, 0); fill-opacity: 1; white-space: pre;" transform="translate(327.61495271515753,295.7353313923086)scale(0.9568726888564857)rotate(-51.930000000000064)"><tspan class="line" dy="0em" x="0" y="0">Rental Market</tspan><tspan class="line" dy="1.3em" x="0" y="0">21.15</tspan></text></g></g><g class="slice cursor-pointer"><path class="surface" d="M366.5,260L408.5,260A126,126 0,0,0 291.75433114450993,134.34031133626124L288.66955409633994,176.22687422417417A84,84 0,0,1 366.5,260Z" style="pointer-events: none; stroke-width: 1; fill: rgb(253, 158, 67); fill-opacity: 1; stroke: rgb(0, 0, 0); stroke-opacity: 1;"/><g class="slicetext"><text data-notex="1" class="slicetext" text-anchor="middle" x="0" y="0" style="font-family: 'Times New Roman'; font-size: 12px; fill: rgb(0, 0, 0); fill-opacity: 1; white-space: pre;" transform="translate(359.8690088972651,187.89543591528889)rotate(47.105999999999995)"><tspan class="line" dy="0em" x="0" y="0">Retail Spaces</tspan><tspan class="line" dy="1.3em" x="0" y="0">23.83</tspan></text></g></g><g class="slice"><path class="surface" d="M288.66955409633994,176.22687422417417L291.75433114450993,134.34031133626124A126,126 0,0,0 162.09338252991662,222.8752579885999L202.2289216866111,235.25017199239994A84,84 0,0,1 288.66955409633994,176.22687422417417Z" style="pointer-events: none; stroke-width: 1; fill: rgb(254, 177, 75); fill-opacity: 1; stroke: rgb(0, 0, 0); stroke-opacity: 1; opacity: 1;"/><g class="slicetext"><text data-notex="1" class="slicetext" text-anchor="middle" x="0" y="0" style="font-family: 'Times New Roman'; font-size: 12px; fill: rgb(0, 0, 0); fill-opacity: 1; white-space: pre;" transform="translate(223.30175799125163,173.59410084605958)rotate(-34.32600000000002)"><tspan class="line" dy="0em" x="0" y="0">Office Buildings</tspan><tspan class="line" dy="1.3em" x="0" y="0">21.41</tspan></text></g></g><g class="slice cursor-pointer"><path class="surface" d="M202.2289216866111,235.25017199239994L162.09338252991662,222.8752579885999A126,126 0,0,0 197.52490840779362,353.0335090647243L225.84993893852908,322.0223393764829A84,84 0,0,1 202.2289216866111,235.25017199239994Z" style="pointer-events: none; stroke-width: 1; fill: rgb(254, 204, 104); fill-opacity: 1; stroke: rgb(0, 0, 0); stroke-opacity: 1;"/><g class="slicetext"><text data-notex="1" class="slicetext" text-anchor="middle" x="0" y="0" style="font-family: 'Times New Roman'; font-size: 12px; fill: rgb(0, 0, 0); fill-opacity: 1; white-space: pre;" transform="translate(190.01958489271038,285.0063722862462)scale(0.9912063769117226)rotate(74.77199999999993)"><tspan class="line" dy="0em" x="0" y="0">Multi-Family Homes</tspan><tspan class="line" dy="1.3em" x="0" y="0">17.98</tspan></text></g></g><g class="slice cursor-pointer"><path class="surface" d="M225.84993893852908,322.0223393764829L197.52490840779362,353.0335090647243A126,126 0,0,0 312.6833373012822,382.33137843316007L302.6222248675215,341.5542522887734A84,84 0,0,1 225.84993893852908,322.0223393764829Z" style="pointer-events: none; stroke-width: 1; fill: rgb(254, 220, 125); fill-opacity: 1; stroke: rgb(0, 0, 0); stroke-opacity: 1;"/><g class="slicetext"><text data-notex="1" class="slicetext" text-anchor="middle" x="0" y="0" style="font-family: 'Times New Roman'; font-size: 12px; fill: rgb(0, 0, 0); fill-opacity: 1; white-space: pre;" transform="translate(257.6771709797169,356.98939026656154)scale(0.8707603562314952)rotate(14.274000000000001)"><tspan class="line" dy="0em" x="0" y="0">Single Family Homes</tspan><tspan class="line" dy="1.3em" x="0" y="0">15.63</tspan></text></g></g><g class="slice"><path class="surface" d="M302.6222248675215,341.5542522887734L312.6833373012822,382.33137843316007A126,126 0,0,0 408.5,259.99999999999994L366.5,259.99999999999994A84,84 0,0,1 302.6222248675215,341.5542522887734Z" style="pointer-events: none; stroke-width: 1; fill: rgb(254, 179, 77); fill-opacity: 1; stroke: rgb(0, 0, 0); stroke-opacity: 1; opacity: 1;"/><g class="slicetext"><text data-notex="1" class="slicetext" text-anchor="middle" x="0" y="0" style="font-family: 'Times New Roman'; font-size: 12px; fill: rgb(0, 0, 0); fill-opacity: 1; white-space: pre;" transform="translate(358.1549043537444,319.4654787953928)rotate(-51.930000000000064)"><tspan class="line" dy="0em" x="0" y="0">Short-Term Rentals</tspan><tspan class="line" dy="1.3em" x="0" y="0">21.15</tspan></text></g></g><g class="slice cursor-pointer"><path class="surface" d="M408.5,260L450.5,260A168,168 0,0,0 294.83910819267993,92.45374844834834L291.75433114450993,134.34031133626124A126,126 0,0,1 408.5,260Z" style="pointer-events: none; stroke-width: 1; fill: rgb(253, 158, 67); fill-opacity: 1; stroke: rgb(0, 0, 0); stroke-opacity: 1;"/><g class="slicetext"><text data-notex="1" class="slicetext" text-anchor="middle" x="0" y="0" style="font-family: 'Times New Roman'; font-size: 12px; fill: rgb(0, 0, 0); fill-opacity: 1; white-space: pre;" transform="translate(390.1699665293308,159.74396106018537)rotate(47.105999999999995)"><tspan class="line" dy="0em" x="0" y="0">Shopping Centers</tspan><tspan class="line" dy="1.3em" x="0" y="0">23.83</tspan></text></g></g><g class="slice"><path class="surface" d="M162.09338252991662,222.8752579885999L121.95784337322218,210.50034398479988A168,168 0,0,0 127.65427424039294,325.1674858651196L166.3657056802947,308.8756143988397A126,126 0,0,1 162.09338252991662,222.8752579885999Z" style="pointer-events: none; stroke-width: 1; fill: rgb(255, 239, 165); fill-opacity: 1; stroke: rgb(0, 0, 0); stroke-opacity: 1; opacity: 1;"/><g class="slicetext"><text data-notex="1" class="slicetext" text-anchor="middle" x="0" y="0" style="font-family: 'Times New Roman'; font-size: 12px; fill: rgb(0, 0, 0); fill-opacity: 1; white-space: pre;" transform="translate(141.40905530227758,266.8448469381583)rotate(87.15599999999995)"><tspan class="line" dy="0em" x="0" y="0">Apartments</tspan><tspan class="line" dy="1.3em" x="0" y="0">11.1</tspan></text></g></g><g class="slice"><path class="surface" d="M166.3657056802947,308.8756143988397L127.65427424039294,325.1674858651196A168,168 0,0,0 169.19987787705816,384.04467875296575L197.52490840779362,353.0335090647243A126,126 0,0,1 166.3657056802947,308.8756143988397Z" style="pointer-events: none; stroke-width: 1; fill: rgb(255, 255, 203); fill-opacity: 1; stroke: rgb(0, 0, 0); stroke-opacity: 1; opacity: 1;"/><g class="slicetext"><text data-notex="1" class="slicetext" text-anchor="middle" x="0" y="0" style="font-family: 'Times New Roman'; font-size: 12px; fill: rgb(0, 0, 0); fill-opacity: 1; white-space: pre;" transform="translate(166.200512786055,342.0645849767641)rotate(54.791999999999916)"><tspan class="line" dy="0em" x="0" y="0">Duplex</tspan><tspan class="line" dy="1.3em" x="0" y="0">6.88</tspan></text></g></g><g class="slice"><path class="surface" d="M197.52490840779362,353.0335090647243L169.19987787705816,384.04467875296575A168,168 0,0,0 251.33105828880082,425.08330343376304L259.12329371660064,383.81247757532225A126,126 0,0,1 197.52490840779362,353.0335090647243Z" style="pointer-events: none; stroke-width: 1; fill: rgb(255, 248, 186); fill-opacity: 1; stroke: rgb(0, 0, 0); stroke-opacity: 1; opacity: 1;"/><g class="slicetext"><text data-notex="1" class="slicetext" text-anchor="middle" x="0" y="0" style="font-family: 'Times New Roman'; font-size: 12px; fill: rgb(0, 0, 0); fill-opacity: 1; white-space: pre;" transform="translate(217.7693607845927,389.54634442356644)scale(0.9879432764513473)rotate(26.549999999999955)"><tspan class="line" dy="0em" x="0" y="0">Semi-Detached</tspan><tspan class="line" dy="1.3em" x="0" y="0">8.81</tspan></text></g></g><g class="slice"><path class="surface" d="M259.12329371660064,383.81247757532225L251.33105828880082,425.08330343376304A168,168 0,0,0 322.74444973504296,423.1085045775468L312.6833373012822,382.33137843316007A126,126 0,0,1 259.12329371660064,383.81247757532225Z" style="pointer-events: none; stroke-width: 1; fill: rgb(255, 255, 204); fill-opacity: 1; stroke: rgb(0, 0, 0); stroke-opacity: 1; opacity: 1;"/><g class="slicetext"><text data-notex="1" class="slicetext" text-anchor="middle" x="0" y="0" style="font-family: 'Times New Roman'; font-size: 12px; fill: rgb(0, 0, 0); fill-opacity: 1; white-space: pre;" transform="translate(286.46718117400434,403.46264239800166)rotate(-1.58400000000006)"><tspan class="line" dy="0em" x="0" y="0">Detached</tspan><tspan class="line" dy="1.3em" x="0" y="0">6.82</tspan></text></g></g><g class="slice"><path class="surface" d="M450.5,260L492.5,260A210,210 0,0,0 464.78172557693654,155.7245353849027L428.32538046154923,176.57962830792218A168,168 0,0,1 450.5,260Z" style="pointer-events: none; stroke-width: 1; fill: rgb(255, 250, 191); fill-opacity: 1; stroke: rgb(0, 0, 0); stroke-opacity: 1; opacity: 1;"/><g class="slicetext"><text data-notex="1" class="slicetext" text-anchor="middle" x="0" y="0" style="font-family: 'Times New Roman'; font-size: 12px; fill: rgb(0, 0, 0); fill-opacity: 1; white-space: pre;" transform="translate(467.3436447160156,210.69550949759207)rotate(75.11400000000003)"><tspan class="line" dy="0em" x="0" y="0">Strip Malls</tspan><tspan class="line" dy="1.3em" x="0" y="0">8.27</tspan></text></g></g><g class="slice"><path class="surface" d="M428.32538046154923,176.57962830792218L464.78172557693654,155.7245353849027A210,210 0,0,0 391.3232904672076,80.39629332363498L369.5586323737661,116.317034658908A168,168 0,0,1 428.32538046154923,176.57962830792218Z" style="pointer-events: none; stroke-width: 1; fill: rgb(255, 250, 193); fill-opacity: 1; stroke: rgb(0, 0, 0); stroke-opacity: 1; opacity: 1;"/><g class="slicetext"><text data-notex="1" class="slicetext" text-anchor="middle" x="0" y="0" style="font-family: 'Times New Roman'; font-size: 12px; fill: rgb(0, 0, 0); fill-opacity: 1; white-space: pre;" transform="translate(417.6479327911261,124.24204831023363)"><tspan class="line" dy="0em" x="0" y="0">Malls</tspan><tspan class="line" dy="1.3em" x="0" y="0">8.06</tspan></text></g></g><g class="slice"><path class="surface" d="M369.5586323737661,116.317034658908L391.3232904672076,80.39629332363498A210,210 0,0,0 297.92388524084987,50.567185560435405L294.8391081926799,92.45374844834834A168,168 0,0,1 369.5586323737661,116.317034658908Z" style="pointer-events: none; stroke-width: 1; fill: rgb(255, 252, 198); fill-opacity: 1; stroke: rgb(0, 0, 0); stroke-opacity: 1; opacity: 1;"/><g class="slicetext"><text data-notex="1" class="slicetext" text-anchor="middle" x="0" y="0" style="font-family: 'Times New Roman'; font-size: 12px; fill: rgb(0, 0, 0); fill-opacity: 1; white-space: pre;" transform="translate(340.8798822090104,76.66457597312339)rotate(17.71199999999999)"><tspan class="line" dy="0em" x="0" y="0">Outlet Centers</tspan><tspan class="line" dy="1.3em" x="0" y="0">7.5</tspan></text></g></g></g></g><g class="glimages"/><defs id="topdefs-bd9978"><g class="clips"/></defs><g class="layer-above"><g class="imagelayer"/><g class="shapelayer"/></g><g class="infolayer"><g class="cb7fff3d colorbar" transform="translate(10,50)"><rect class="cbbg" x="571.5" y="63" width="48.015625" height="295" style="fill: rgb(0, 0, 0); fill-opacity: 0; stroke: rgb(68, 68, 68); stroke-opacity: 1; stroke-width: 0;"/><g class="cbfills" transform="translate(0,93)"><rect class="cbfill gradient_filled" style="fill: url('#gbd9978-cb7fff3d');" x="582" y="0" width="15" height="254"/></g><g class="cblines" transform="translate(0,93)"/><g class="cbaxis crisp" transform="translate(0,-50)"><g class="ycb7fff3dtick"><text text-anchor="start" x="600.4" y="4.199999999999999" transform="translate(0,375.98)" style="font-family: 'Times New Roman'; font-size: 12px; fill: rgb(42, 63, 95); fill-opacity: 1; white-space: pre; opacity: 1;">10</text></g><g class="ycb7fff3dtick"><text text-anchor="start" x="600.4" y="4.199999999999999" style="font-family: 'Times New Roman'; font-size: 12px; fill: rgb(42, 63, 95); fill-opacity: 1; white-space: pre; opacity: 1;" transform="translate(0,309.87000000000006)">20</text></g><g class="ycb7fff3dtick"><text text-anchor="start" x="600.4" y="4.199999999999999" style="font-family: 'Times New Roman'; font-size: 12px; fill: rgb(42, 63, 95); fill-opacity: 1; white-space: pre; opacity: 1;" transform="translate(0,243.75000000000006)">30</text></g><g class="ycb7fff3dtick"><text text-anchor="start" x="600.4" y="4.199999999999999" style="font-family: 'Times New Roman'; font-size: 12px; fill: rgb(42, 63, 95); fill-opacity: 1; white-space: pre; opacity: 1;" transform="translate(0,177.64000000000004)">40</text></g></g><g class="cbtitleunshift" transform="translate(-10,-50)"><g class="cbtitle" transform="translate(-0.5,-0.5)"><text class="ycb7fff3dtitle" x="592.25" y="135.75" text-anchor="start" style="opacity: 1; font-family: 'Times New Roman'; font-size: 13px; fill: rgb(42, 63, 95); fill-opacity: 1; white-space: pre;">%</text></g></g><rect class="cboutline" x="582" y="93" width="15" height="254" style="stroke: rgb(68, 68, 68); stroke-opacity: 1; fill: none; stroke-width: 1;"/></g><g class="g-gtitle"><text class="gtitle" x="320" y="25" text-anchor="middle" dy="0em" style="opacity: 1; font-family: 'Times New Roman'; font-size: 16px; fill: rgb(42, 63, 95); fill-opacity: 1; white-space: pre;">Housing Market Distribution by Category (2023) (%)</text></g></g></svg>