<svg class="main-svg" xmlns="http://www.w3.org/2000/svg" xmlns:xlink="http://www.w3.org/1999/xlink" width="1920" height="1440" style="" viewBox="0 0 640 480"><rect x="0" y="0" width="640" height="480" style="fill: rgb(255, 255, 255); fill-opacity: 1;"/><defs id="defs-59d0f8"><g class="clips"/><g class="gradients"><linearGradient x1="0" y1="1" x2="0" y2="0" gradientUnits="objectBoundingBox" id="g59d0f8-cbf684a0"><stop offset="0%" stop-color="rgb(247, 251, 255)" stop-opacity="1"/><stop offset="12.5%" stop-color="rgb(222, 235, 247)" stop-opacity="1"/><stop offset="25%" stop-color="rgb(198, 219, 239)" stop-opacity="1"/><stop offset="37.5%" stop-color="rgb(158, 202, 225)" stop-opacity="1"/><stop offset="50%" stop-color="rgb(107, 174, 214)" stop-opacity="1"/><stop offset="62.5%" stop-color="rgb(66, 146, 198)" stop-opacity="1"/><stop offset="75%" stop-color="rgb(33, 113, 181)" stop-opacity="1"/><stop offset="87.5%" stop-color="rgb(8, 81, 156)" stop-opacity="1"/><stop offset="100%" stop-color="rgb(8, 48, 107)" stop-opacity="1"/></linearGradient></g><g class="patterns"/></defs><g class="bglayer"/><g class="layer-below"><g class="imagelayer"/><g class="shapelayer"/></g><g class="cartesianlayer"/><g class="polarlayer"/><g class="smithlayer"/><g class="ternarylayer"/><g class="geolayer"/><g class="funnelarealayer"/><g class="pielayer"/><g class="iciclelayer"/><g class="treemaplayer"/><g class="sunburstlayer"><g class="trace sunburst" stroke-linejoin="round" style="opacity: 1;"><g class="slice"><path class="surface" d="M282.5,260A0,0 0,1,0 282.5,260A0,0 0,1,0 282.5,260ZM324.5,260A42,42 0,1,1 240.5,260A42,42 0,1,1 324.5,260Z" style="pointer-events: none; stroke-width: 1; fill: rgb(255, 255, 255); fill-opacity: 1; stroke: rgb(0, 0, 0); stroke-opacity: 1;"/><g class="slicetext"><text data-notex="1" class="slicetext" text-anchor="middle" x="0" y="0" style="font-family: 'Times New Roman'; font-size: 12px; fill: rgb(0, 0, 0); fill-opacity: 1; white-space: pre;" transform="translate(282.5,264)">100</text></g></g><g class="slice cursor-pointer"><path class="surface" d="M324.5,260L366.5,260A84,84 0,0,0 203.64635595707458,231.04999445334056L243.07317797853727,245.52499722667028A42,42 0,0,1 324.5,260Z" style="pointer-events: none; stroke-width: 1; fill: rgb(8, 48, 107); fill-opacity: 1; stroke: rgb(0, 0, 0); stroke-opacity: 1;"/><g class="slicetext"><text data-notex="1" class="slicetext" text-anchor="middle" x="0" y="0" style="font-family: 'Times New Roman'; font-size: 12px; fill: rgb(0, 0, 0); fill-opacity: 1; white-space: pre;" transform="translate(293.0113465587807,200.87009454500668)scale(0.8964705263378435)rotate(10.080000000000041)"><tspan class="line" dy="0em" x="0" y="0">Residential Property</tspan><tspan class="line" dy="1.3em" x="0" y="0">44.4</tspan></text></g></g><g class="slice cursor-pointer"><path class="surface" d="M243.07317797853727,245.52499722667028L203.64635595707458,231.04999445334056A84,84 0,0,0 276.3830833253189,343.7769856845841L279.44154166265946,301.88849284229207A42,42 0,0,1 243.07317797853727,245.52499722667028Z" style="pointer-events: none; stroke-width: 1; fill: rgb(69, 148, 199); fill-opacity: 1; stroke: rgb(0, 0, 0); stroke-opacity: 1;"/><g class="slicetext"><text data-notex="1" class="slicetext" text-anchor="middle" x="0" y="0" style="font-family: 'Times New Roman'; font-size: 12px; fill: rgb(0, 0, 0); fill-opacity: 1; white-space: pre;" transform="translate(238.42296812637855,288.44056259797026)scale(0.8209780396795036)rotate(57.168000000000006)"><tspan class="line" dy="0em" x="0" y="0">Commercial Real Estate</tspan><tspan class="line" dy="1.3em" x="0" y="0">29.44</tspan></text></g></g><g class="slice cursor-pointer"><path class="surface" d="M279.44154166265946,301.88849284229207L276.3830833253189,343.7769856845841A84,84 0,0,0 366.5,260L324.5,260A42,42 0,0,1 279.44154166265946,301.88849284229207Z" style="pointer-events: none; stroke-width: 1; fill: rgb(97, 167, 210); fill-opacity: 1; stroke: rgb(0, 0, 0); stroke-opacity: 1;"/><g class="slicetext"><text data-notex="1" class="slicetext" text-anchor="middle" x="0" y="0" style="font-family: 'Times New Roman'; font-size: 12px; fill: rgb(0, 0, 0); fill-opacity: 1; white-space: pre;" transform="translate(319.6154144041371,300.4060882208859)rotate(-42.912000000000035)"><tspan class="line" dy="0em" x="0" y="0">Rental Market</tspan><tspan class="line" dy="1.3em" x="0" y="0">26.16</tspan></text></g></g><g class="slice cursor-pointer"><path class="surface" d="M366.5,260L408.5,260A126,126 0,0,0 250.85844981501077,138.0376603131491L261.4056332100072,178.69177354209938A84,84 0,0,1 366.5,260Z" style="pointer-events: none; stroke-width: 1; fill: rgb(72, 150, 200); fill-opacity: 1; stroke: rgb(0, 0, 0); stroke-opacity: 1;"/><g class="slicetext"><text data-notex="1" class="slicetext" text-anchor="middle" x="0" y="0" style="font-family: 'Times New Roman'; font-size: 12px; fill: rgb(0, 0, 0); fill-opacity: 1; white-space: pre;" transform="translate(345.47335202862604,178.34175009142928)scale(0.9790393423296554)rotate(37.72799999999995)"><tspan class="line" dy="0em" x="0" y="0">Single Family Homes</tspan><tspan class="line" dy="1.3em" x="0" y="0">29.04</tspan></text></g></g><g class="slice cursor-pointer"><path class="surface" d="M261.4056332100072,178.69177354209938L250.85844981501077,138.0376603131491A126,126 0,0,0 164.21953393561188,216.57499168001084L203.64635595707458,231.04999445334056A84,84 0,0,1 261.4056332100072,178.69177354209938Z" style="pointer-events: none; stroke-width: 1; fill: rgb(197, 218, 239); fill-opacity: 1; stroke: rgb(0, 0, 0); stroke-opacity: 1;"/><g class="slicetext"><text data-notex="1" class="slicetext" text-anchor="middle" x="0" y="0" style="font-family: 'Times New Roman'; font-size: 12px; fill: rgb(0, 0, 0); fill-opacity: 1; white-space: pre;" transform="translate(210.53991841098536,180.83155247734695)scale(0.8790610023396633)rotate(-42.19200000000001)"><tspan class="line" dy="0em" x="0" y="0">Multi-Family Homes</tspan><tspan class="line" dy="1.3em" x="0" y="0">15.36</tspan></text></g></g><g class="slice cursor-pointer"><path class="surface" d="M203.64635595707458,231.04999445334056L164.21953393561188,216.57499168001084A126,126 0,0,0 226.92551806671918,373.08172689629146L245.45034537781277,335.38781793086093A84,84 0,0,1 203.64635595707458,231.04999445334056Z" style="pointer-events: none; stroke-width: 1; fill: rgb(124, 183, 218); fill-opacity: 1; stroke: rgb(0, 0, 0); stroke-opacity: 1;"/><g class="slicetext"><text data-notex="1" class="slicetext" text-anchor="middle" x="0" y="0" style="font-family: 'Times New Roman'; font-size: 12px; fill: rgb(0, 0, 0); fill-opacity: 1; white-space: pre;" transform="translate(191.32992218763442,296.35145985102776)rotate(68.16599999999994)"><tspan class="line" dy="0em" x="0" y="0">Retail Spaces</tspan><tspan class="line" dy="1.3em" x="0" y="0">23.33</tspan></text></g></g><g class="slice"><path class="surface" d="M245.45034537781277,335.38781793086093L226.92551806671918,373.08172689629146A126,126 0,0,0 273.3246249879784,385.66547852687614L276.3830833253189,343.7769856845841A84,84 0,0,1 245.45034537781277,335.38781793086093Z" style="pointer-events: none; stroke-width: 1; fill: rgb(244, 249, 254); fill-opacity: 1; stroke: rgb(0, 0, 0); stroke-opacity: 1; opacity: 1;"/><g class="slicetext"><text data-notex="1" class="slicetext" text-anchor="middle" x="0" y="0" style="font-family: 'Times New Roman'; font-size: 12px; fill: rgb(0, 0, 0); fill-opacity: 1; white-space: pre;" transform="translate(252.43520884335382,370.54217311715314)scale(0.5000680659311723)rotate(15.173999999999978)"><tspan class="line" dy="0em" x="0" y="0">Office Buildings</tspan><tspan class="line" dy="1.3em" x="0" y="0">6.11</tspan></text></g></g><g class="slice"><path class="surface" d="M276.3830833253189,343.7769856845841L273.3246249879784,385.66547852687614A126,126 0,0,0 408.5,260.00000000000006L366.5,260A84,84 0,0,1 276.3830833253189,343.7769856845841Z" style="pointer-events: none; stroke-width: 1; fill: rgb(97, 167, 210); fill-opacity: 1; stroke: rgb(0, 0, 0); stroke-opacity: 1; opacity: 1;"/><g class="slicetext"><text data-notex="1" class="slicetext" text-anchor="middle" x="0" y="0" style="font-family: 'Times New Roman'; font-size: 12px; fill: rgb(0, 0, 0); fill-opacity: 1; white-space: pre;" transform="translate(347.921655997207,330.6249566382169)rotate(-42.912000000000035)"><tspan class="line" dy="0em" x="0" y="0">Long-Term Rentals</tspan><tspan class="line" dy="1.3em" x="0" y="0">26.16</tspan></text></g></g><g class="slice cursor-pointer"><path class="surface" d="M408.5,260L450.5,260A168,168 0,0,0 240.31126642001433,97.3835470841988L250.85844981501077,138.0376603131491A126,126 0,0,1 408.5,260Z" style="pointer-events: none; stroke-width: 1; fill: rgb(72, 150, 200); fill-opacity: 1; stroke: rgb(0, 0, 0); stroke-opacity: 1;"/><g class="slicetext"><text data-notex="1" class="slicetext" text-anchor="middle" x="0" y="0" style="font-family: 'Times New Roman'; font-size: 12px; fill: rgb(0, 0, 0); fill-opacity: 1; white-space: pre;" transform="translate(372.9615017017509,143.07463273547287)rotate(37.72799999999995)"><tspan class="line" dy="0em" x="0" y="0">Semi-Detached</tspan><tspan class="line" dy="1.3em" x="0" y="0">29.04</tspan></text></g></g><g class="slice"><path class="surface" d="M250.85844981501077,138.0376603131491L240.31126642001433,97.3835470841988A168,168 0,0,0 154.40965815007672,151.29459845633338L186.43224361255756,178.47094884225004A126,126 0,0,1 250.85844981501077,138.0376603131491Z" style="pointer-events: none; stroke-width: 1; fill: rgb(225, 237, 248); fill-opacity: 1; stroke: rgb(0, 0, 0); stroke-opacity: 1; opacity: 1;"/><g class="slicetext"><text data-notex="1" class="slicetext" text-anchor="middle" x="0" y="0" style="font-family: 'Times New Roman'; font-size: 12px; fill: rgb(0, 0, 0); fill-opacity: 1; white-space: pre;" transform="translate(202.79146274802147,132.99280261619433)rotate(-32.111999999999966)"><tspan class="line" dy="0em" x="0" y="0">Duplex</tspan><tspan class="line" dy="1.3em" x="0" y="0">9.76</tspan></text></g></g><g class="slice"><path class="surface" d="M186.43224361255756,178.47094884225004L154.40965815007672,151.29459845633338A168,168 0,0,0 124.79271191414915,202.09998890668112L164.21953393561188,216.57499168001084A126,126 0,0,1 186.43224361255756,178.47094884225004Z" style="pointer-events: none; stroke-width: 1; fill: rgb(246, 251, 255); fill-opacity: 1; stroke: rgb(0, 0, 0); stroke-opacity: 1; opacity: 1;"/><g class="slicetext"><text data-notex="1" class="slicetext" text-anchor="middle" x="0" y="0" style="font-family: 'Times New Roman'; font-size: 12px; fill: rgb(0, 0, 0); fill-opacity: 1; white-space: pre;" transform="translate(147.38083176086144,181.39423942340568)scale(0.8520583471710682)rotate(-59.75999999999999)"><tspan class="line" dy="0em" x="0" y="0">Apartments</tspan><tspan class="line" dy="1.3em" x="0" y="0">5.6</tspan></text></g></g><g class="slice"><path class="surface" d="M164.21953393561188,216.57499168001084L124.79271191414915,202.09998890668112A168,168 0,0,0 130.30975865415053,331.1486502970513L168.3573189906129,313.36148772278847A126,126 0,0,1 164.21953393561188,216.57499168001084Z" style="pointer-events: none; stroke-width: 1; fill: rgb(211, 228, 243); fill-opacity: 1; stroke: rgb(0, 0, 0); stroke-opacity: 1; opacity: 1;"/><g class="slicetext"><text data-notex="1" class="slicetext" text-anchor="middle" x="0" y="0" style="font-family: 'Times New Roman'; font-size: 12px; fill: rgb(0, 0, 0); fill-opacity: 1; white-space: pre;" transform="translate(143.11045348642085,265.79492456420905)rotate(87.55200000000002)"><tspan class="line" dy="0em" x="0" y="0">Shopping Centers</tspan><tspan class="line" dy="1.3em" x="0" y="0">12.56</tspan></text></g></g><g class="slice"><path class="surface" d="M168.3573189906129,313.36148772278847L130.30975865415053,331.1486502970513A168,168 0,0,0 208.40069075562553,410.7756358617219L226.92551806671918,373.08172689629146A126,126 0,0,1 168.3573189906129,313.36148772278847Z" style="pointer-events: none; stroke-width: 1; fill: rgb(220, 234, 246); fill-opacity: 1; stroke: rgb(0, 0, 0); stroke-opacity: 1; opacity: 1;"/><g class="slicetext"><text data-notex="1" class="slicetext" text-anchor="middle" x="0" y="0" style="font-family: 'Times New Roman'; font-size: 12px; fill: rgb(0, 0, 0); fill-opacity: 1; white-space: pre;" transform="translate(180.27696324141002,360.0277235202958)scale(0.9720428373634575)rotate(45.55799999999999)"><tspan class="line" dy="0em" x="0" y="0">Street-Level Shops</tspan><tspan class="line" dy="1.3em" x="0" y="0">10.77</tspan></text></g></g><g class="slice"><path class="surface" d="M450.5,260L492.5,260A210,210 0,0,0 380.5319632136491,74.28588048164522L360.92557057091926,111.4287043853162A168,168 0,0,1 450.5,260Z" style="pointer-events: none; stroke-width: 1; fill: rgb(181, 212, 233); fill-opacity: 1; stroke: rgb(0, 0, 0); stroke-opacity: 1; opacity: 1;"/><g class="slicetext"><text data-notex="1" class="slicetext" text-anchor="middle" x="0" y="0" style="font-family: 'Times New Roman'; font-size: 12px; fill: rgb(0, 0, 0); fill-opacity: 1; white-space: pre;" transform="translate(445.88246504362104,161.30426345358583)rotate(58.91399999999999)"><tspan class="line" dy="0em" x="0" y="0">Corner Units</tspan><tspan class="line" dy="1.3em" x="0" y="0">17.27</tspan></text></g></g><g class="slice"><path class="surface" d="M360.92557057091926,111.4287043853162L380.5319632136491,74.28588048164522A210,210 0,0,0 301.2116101063145,50.8352906266708L297.4692880850516,92.66823250133663A168,168 0,0,1 360.92557057091926,111.4287043853162Z" style="pointer-events: none; stroke-width: 1; fill: rgb(243, 248, 254); fill-opacity: 1; stroke: rgb(0, 0, 0); stroke-opacity: 1; opacity: 1;"/><g class="slicetext"><text data-notex="1" class="slicetext" text-anchor="middle" x="0" y="0" style="font-family: 'Times New Roman'; font-size: 12px; fill: rgb(0, 0, 0); fill-opacity: 1; white-space: pre;" transform="translate(338.5766120849328,69.8912015228941)scale(0.7477198915307317)rotate(16.470000000000027)"><tspan class="line" dy="0em" x="0" y="0">Shared Wall Homes</tspan><tspan class="line" dy="1.3em" x="0" y="0">6.31</tspan></text></g></g><g class="slice"><path class="surface" d="M297.4692880850516,92.66823250133663L301.2116101063145,50.8352906266708A210,210 0,0,0 229.76408302501792,56.72943385524849L240.31126642001433,97.3835470841988A168,168 0,0,1 297.4692880850516,92.66823250133663Z" style="pointer-events: none; stroke-width: 1; fill: rgb(247, 251, 255); fill-opacity: 1; stroke: rgb(0, 0, 0); stroke-opacity: 1; opacity: 1;"/><g class="slicetext"><text data-notex="1" class="slicetext" text-anchor="middle" x="0" y="0" style="font-family: 'Times New Roman'; font-size: 12px; fill: rgb(0, 0, 0); fill-opacity: 1; white-space: pre;" transform="translate(265.9941855411127,61.43761442602215)scale(0.7259097377408799)rotate(-4.716000000000008)"><tspan class="line" dy="0em" x="0" y="0">Attached Garages</tspan><tspan class="line" dy="1.3em" x="0" y="0">5.46</tspan></text></g></g></g></g><g class="glimages"/><defs id="topdefs-59d0f8"><g class="clips"/></defs><g class="layer-above"><g class="imagelayer"/><g class="shapelayer"/></g><g class="infolayer"><g class="cbf684a0 colorbar" transform="translate(10,50)"><rect class="cbbg" x="571.5" y="63" width="48.015625" height="295" style="fill: rgb(0, 0, 0); fill-opacity: 0; stroke: rgb(68, 68, 68); stroke-opacity: 1; stroke-width: 0;"/><g class="cbfills" transform="translate(0,93)"><rect class="cbfill gradient_filled" style="fill: url('#g59d0f8-cbf684a0');" x="582" y="0" width="15" height="254"/></g><g class="cblines" transform="translate(0,93)"/><g class="cbaxis crisp" transform="translate(0,-50)"><g class="ycbf684a0tick"><text text-anchor="start" x="600.4" y="4.199999999999999" transform="translate(0,367.39000000000004)" style="font-family: 'Times New Roman'; font-size: 12px; fill: rgb(42, 63, 95); fill-opacity: 1; white-space: pre; opacity: 1;">10</text></g><g class="ycbf684a0tick"><text text-anchor="start" x="600.4" y="4.199999999999999" style="font-family: 'Times New Roman'; font-size: 12px; fill: rgb(42, 63, 95); fill-opacity: 1; white-space: pre; opacity: 1;" transform="translate(0,302.1600000000001)">20</text></g><g class="ycbf684a0tick"><text text-anchor="start" x="600.4" y="4.199999999999999" style="font-family: 'Times New Roman'; font-size: 12px; fill: rgb(42, 63, 95); fill-opacity: 1; white-space: pre; opacity: 1;" transform="translate(0,236.93000000000006)">30</text></g><g class="ycbf684a0tick"><text text-anchor="start" x="600.4" y="4.199999999999999" style="font-family: 'Times New Roman'; font-size: 12px; fill: rgb(42, 63, 95); fill-opacity: 1; white-space: pre; opacity: 1;" transform="translate(0,171.70000000000005)">40</text></g></g><g class="cbtitleunshift" transform="translate(-10,-50)"><g class="cbtitle" transform="translate(-0.5,-0.5)"><text class="ycbf684a0title" x="592.25" y="135.75" text-anchor="start" style="opacity: 1; font-family: 'Times New Roman'; font-size: 13px; fill: rgb(42, 63, 95); fill-opacity: 1; white-space: pre;">%</text></g></g><rect class="cboutline" x="582" y="93" width="15" height="254" style="stroke: rgb(68, 68, 68); stroke-opacity: 1; fill: none; stroke-width: 1;"/></g><g class="g-gtitle"><text class="gtitle" x="320" y="25" text-anchor="middle" dy="0em" style="opacity: 1; font-family: 'Times New Roman'; font-size: 16px; fill: rgb(42, 63, 95); fill-opacity: 1; white-space: pre;">Housing Market Distribution by Category (2023) (%)</text></g></g></svg>