<svg class="main-svg" xmlns="http://www.w3.org/2000/svg" xmlns:xlink="http://www.w3.org/1999/xlink" width="1920" height="1440" style="" viewBox="0 0 640 480"><rect x="0" y="0" width="640" height="480" style="fill: rgb(255, 255, 255); fill-opacity: 1;"/><defs id="defs-eae758"><g class="clips"/><g class="gradients"><linearGradient x1="0" y1="1" x2="0" y2="0" gradientUnits="objectBoundingBox" id="geae758-cb9c149f"><stop offset="0%" stop-color="rgb(247, 252, 245)" stop-opacity="1"/><stop offset="12.5%" stop-color="rgb(229, 245, 224)" stop-opacity="1"/><stop offset="25%" stop-color="rgb(199, 233, 192)" stop-opacity="1"/><stop offset="37.5%" stop-color="rgb(161, 217, 155)" stop-opacity="1"/><stop offset="50%" stop-color="rgb(116, 196, 118)" stop-opacity="1"/><stop offset="62.5%" stop-color="rgb(65, 171, 93)" stop-opacity="1"/><stop offset="75%" stop-color="rgb(35, 139, 69)" stop-opacity="1"/><stop offset="87.5%" stop-color="rgb(0, 109, 44)" stop-opacity="1"/><stop offset="100%" stop-color="rgb(0, 68, 27)" stop-opacity="1"/></linearGradient></g><g class="patterns"/></defs><g class="bglayer"/><g class="layer-below"><g class="imagelayer"/><g class="shapelayer"/></g><g class="cartesianlayer"/><g class="polarlayer"/><g class="smithlayer"/><g class="ternarylayer"/><g class="geolayer"/><g class="funnelarealayer"/><g class="pielayer"/><g class="iciclelayer"/><g class="treemaplayer"/><g class="sunburstlayer"><g class="trace sunburst" stroke-linejoin="round" style="opacity: 1;"><g class="slice"><path class="surface" d="M282.5,260A0,0 0,1,0 282.5,260A0,0 0,1,0 282.5,260ZM324.5,260A42,42 0,1,1 240.5,260A42,42 0,1,1 324.5,260Z" style="pointer-events: none; stroke-width: 1; fill: rgb(255, 255, 255); fill-opacity: 1; stroke: rgb(0, 0, 0); stroke-opacity: 1;"/><g class="slicetext"><text data-notex="1" class="slicetext" text-anchor="middle" x="0" y="0" style="font-family: 'Times New Roman'; font-size: 12px; fill: rgb(0, 0, 0); fill-opacity: 1; white-space: pre;" transform="translate(282.5,264)">100</text></g></g><g class="slice cursor-pointer"><path class="surface" d="M324.5,260L366.5,260A84,84 0,0,0 209.0945788159703,219.1632011441249L245.79728940798515,239.58160057206246A42,42 0,0,1 324.5,260Z" style="pointer-events: none; stroke-width: 1; fill: rgb(0, 68, 27); fill-opacity: 1; stroke: rgb(0, 0, 0); stroke-opacity: 1;"/><g class="slicetext"><text data-notex="1" class="slicetext" text-anchor="middle" x="0" y="0" style="font-family: 'Times New Roman'; font-size: 12px; fill: rgb(0, 0, 0); fill-opacity: 1; white-space: pre;" transform="translate(297.5816998102064,201.86759547008177)scale(0.8964705263378435)rotate(14.543999999999983)"><tspan class="line" dy="0em" x="0" y="0">Residential Property</tspan><tspan class="line" dy="1.3em" x="0" y="0">41.92</tspan></text></g></g><g class="slice cursor-pointer"><path class="surface" d="M245.79728940798515,239.58160057206246L209.0945788159703,219.1632011441249A84,84 0,0,0 278.3321901972493,343.89653962737736L280.4160950986247,301.9482698136887A42,42 0,0,1 245.79728940798515,239.58160057206246Z" style="pointer-events: none; stroke-width: 1; fill: rgb(38, 143, 72); fill-opacity: 1; stroke: rgb(0, 0, 0); stroke-opacity: 1;"/><g class="slicetext"><text data-notex="1" class="slicetext" text-anchor="middle" x="0" y="0" style="font-family: 'Times New Roman'; font-size: 12px; fill: rgb(0, 0, 0); fill-opacity: 1; white-space: pre;" transform="translate(236.63589450623675,285.4584792737952)scale(0.8209780396795036)rotate(60.96600000000001)"><tspan class="line" dy="0em" x="0" y="0">Commercial Real Estate</tspan><tspan class="line" dy="1.3em" x="0" y="0">32.29</tspan></text></g></g><g class="slice cursor-pointer"><path class="surface" d="M280.4160950986247,301.9482698136887L278.3321901972493,343.89653962737736A84,84 0,0,0 366.5,259.99999999999994L324.5,260A42,42 0,0,1 280.4160950986247,301.9482698136887Z" style="pointer-events: none; stroke-width: 1; fill: rgb(92, 184, 106); fill-opacity: 1; stroke: rgb(0, 0, 0); stroke-opacity: 1;"/><g class="slicetext"><text data-notex="1" class="slicetext" text-anchor="middle" x="0" y="0" style="font-family: 'Times New Roman'; font-size: 12px; fill: rgb(0, 0, 0); fill-opacity: 1; white-space: pre;" transform="translate(320.0825724719621,299.97194263598607)rotate(-43.57800000000009)"><tspan class="line" dy="0em" x="0" y="0">Rental Market</tspan><tspan class="line" dy="1.3em" x="0" y="0">25.79</tspan></text></g></g><g class="slice"><path class="surface" d="M366.5,260L408.5,260A126,126 0,0,0 172.39186822395544,198.74480171618734L209.0945788159703,219.1632011441249A84,84 0,0,1 366.5,260Z" style="pointer-events: none; stroke-width: 1; fill: rgb(0, 68, 27); fill-opacity: 1; stroke: rgb(0, 0, 0); stroke-opacity: 1; opacity: 1;"/><g class="slicetext"><text data-notex="1" class="slicetext" text-anchor="middle" x="0" y="0" style="font-family: 'Times New Roman'; font-size: 12px; fill: rgb(0, 0, 0); fill-opacity: 1; white-space: pre;" transform="translate(308.24031233688106,160.14435837344166)scale(0.9790393423296554)rotate(14.543999999999983)"><tspan class="line" dy="0em" x="0" y="0">Single Family Homes</tspan><tspan class="line" dy="1.3em" x="0" y="0">41.92</tspan></text></g></g><g class="slice cursor-pointer"><path class="surface" d="M209.0945788159703,219.1632011441249L172.39186822395544,198.74480171618734A126,126 0,0,0 215.32037578711424,366.5968953141481L237.71358385807616,331.0645968760988A84,84 0,0,1 209.0945788159703,219.1632011441249Z" style="pointer-events: none; stroke-width: 1; fill: rgb(111, 194, 116); fill-opacity: 1; stroke: rgb(0, 0, 0); stroke-opacity: 1;"/><g class="slicetext"><text data-notex="1" class="slicetext" text-anchor="middle" x="0" y="0" style="font-family: 'Times New Roman'; font-size: 12px; fill: rgb(0, 0, 0); fill-opacity: 1; white-space: pre;" transform="translate(188.35792217626062,283.9076809760576)rotate(75.654)"><tspan class="line" dy="0em" x="0" y="0">Office Buildings</tspan><tspan class="line" dy="1.3em" x="0" y="0">24.13</tspan></text></g></g><g class="slice"><path class="surface" d="M237.71358385807616,331.0645968760988L215.32037578711424,366.5968953141481A126,126 0,0,0 276.248285295874,385.844809441066L278.3321901972493,343.89653962737736A84,84 0,0,1 237.71358385807616,331.0645968760988Z" style="pointer-events: none; stroke-width: 1; fill: rgb(236, 248, 232); fill-opacity: 1; stroke: rgb(0, 0, 0); stroke-opacity: 1; opacity: 1;"/><g class="slicetext"><text data-notex="1" class="slicetext" text-anchor="middle" x="0" y="0" style="font-family: 'Times New Roman'; font-size: 12px; fill: rgb(0, 0, 0); fill-opacity: 1; white-space: pre;" transform="translate(249.67504366151047,363.4904073316474)scale(0.7613803341223473)rotate(17.531999999999925)"><tspan class="line" dy="0em" x="0" y="0">Retail Spaces</tspan><tspan class="line" dy="1.3em" x="0" y="0">8.16</tspan></text></g></g><g class="slice cursor-pointer"><path class="surface" d="M278.3321901972493,343.89653962737736L276.248285295874,385.844809441066A126,126 0,0,0 372.32021842030485,348.364746154384L342.38014561353657,318.90983076958935A84,84 0,0,1 278.3321901972493,343.89653962737736Z" style="pointer-events: none; stroke-width: 1; fill: rgb(206, 236, 200); fill-opacity: 1; stroke: rgb(0, 0, 0); stroke-opacity: 1;"/><g class="slicetext"><text data-notex="1" class="slicetext" text-anchor="middle" x="0" y="0" style="font-family: 'Times New Roman'; font-size: 12px; fill: rgb(0, 0, 0); fill-opacity: 1; white-space: pre;" transform="translate(319.73591989020645,355.8459153656828)scale(0.8453954959707095)rotate(-21.312000000000012)"><tspan class="line" dy="0em" x="0" y="0">Long-Term Rentals</tspan><tspan class="line" dy="1.3em" x="0" y="0">13.42</tspan></text></g></g><g class="slice cursor-pointer"><path class="surface" d="M342.38014561353657,318.90983076958935L372.32021842030485,348.364746154384A126,126 0,0,0 408.5,259.99999999999994L366.5,259.99999999999994A84,84 0,0,1 342.38014561353657,318.90983076958935Z" style="pointer-events: none; stroke-width: 1; fill: rgb(213, 239, 207); fill-opacity: 1; stroke: rgb(0, 0, 0); stroke-opacity: 1;"/><g class="slicetext"><text data-notex="1" class="slicetext" text-anchor="middle" x="0" y="0" style="font-family: 'Times New Roman'; font-size: 12px; fill: rgb(0, 0, 0); fill-opacity: 1; white-space: pre;" transform="translate(379.38486358526666,299.8078975752036)scale(0.7878209728654171)rotate(-67.73400000000004)"><tspan class="line" dy="0em" x="0" y="0">Short-Term Rentals</tspan><tspan class="line" dy="1.3em" x="0" y="0">12.37</tspan></text></g></g><g class="slice cursor-pointer"><path class="surface" d="M172.39186822395544,198.74480171618734L135.6891576319406,178.3264022882498A168,168 0,0,0 150.534087114366,363.96633030102225L183.5255653357745,337.9747477257667A126,126 0,0,1 172.39186822395544,198.74480171618734Z" style="pointer-events: none; stroke-width: 1; fill: rgb(164, 218, 158); fill-opacity: 1; stroke: rgb(0, 0, 0); stroke-opacity: 1;"/><g class="slicetext"><text data-notex="1" class="slicetext" text-anchor="middle" x="0" y="0" style="font-family: 'Times New Roman'; font-size: 12px; fill: rgb(0, 0, 0); fill-opacity: 1; white-space: pre;" transform="translate(143.32760964015375,270.9566709418004)rotate(85.428)"><tspan class="line" dy="0em" x="0" y="0">Suburban Offices</tspan><tspan class="line" dy="1.3em" x="0" y="0">18.7</tspan></text></g></g><g class="slice"><path class="surface" d="M183.5255653357745,337.9747477257667L150.534087114366,363.96633030102225A168,168 0,0,0 192.92716771615233,402.1291937521975L215.32037578711424,366.5968953141481A126,126 0,0,1 183.5255653357745,337.9747477257667Z" style="pointer-events: none; stroke-width: 1; fill: rgb(247, 252, 245); fill-opacity: 1; stroke: rgb(0, 0, 0); stroke-opacity: 1; opacity: 1;"/><g class="slicetext"><text data-notex="1" class="slicetext" text-anchor="middle" x="0" y="0" style="font-family: 'Times New Roman'; font-size: 12px; fill: rgb(0, 0, 0); fill-opacity: 1; white-space: pre;" transform="translate(178.28331507858638,375.63608481368266)scale(0.5409413570253158)rotate(41.993999999999915)"><tspan class="line" dy="0em" x="0" y="0">Downtown Offices</tspan><tspan class="line" dy="1.3em" x="0" y="0">5.43</tspan></text></g></g><g class="slice cursor-pointer"><path class="surface" d="M276.248285295874,385.844809441066L274.1643803944986,427.7930792547547A168,168 0,0,0 402.26029122707314,377.8196615391787L372.32021842030485,348.364746154384A126,126 0,0,1 276.248285295874,385.844809441066Z" style="pointer-events: none; stroke-width: 1; fill: rgb(206, 236, 200); fill-opacity: 1; stroke: rgb(0, 0, 0); stroke-opacity: 1;"/><g class="slicetext"><text data-notex="1" class="slicetext" text-anchor="middle" x="0" y="0" style="font-family: 'Times New Roman'; font-size: 12px; fill: rgb(0, 0, 0); fill-opacity: 1; white-space: pre;" transform="translate(333.6864210743616,391.65658700916083)rotate(-21.312000000000012)"><tspan class="line" dy="0em" x="0" y="0">Apartments</tspan><tspan class="line" dy="1.3em" x="0" y="0">13.42</tspan></text></g></g><g class="slice"><path class="surface" d="M372.32021842030485,348.364746154384L402.26029122707314,377.8196615391787A168,168 0,0,0 440.42444478338274,317.30505858875193L400.94333358753704,302.97879394156394A126,126 0,0,1 372.32021842030485,348.364746154384Z" style="pointer-events: none; stroke-width: 1; fill: rgb(241, 250, 239); fill-opacity: 1; stroke: rgb(0, 0, 0); stroke-opacity: 1; opacity: 1;"/><g class="slicetext"><text data-notex="1" class="slicetext" text-anchor="middle" x="0" y="0" style="font-family: 'Times New Roman'; font-size: 12px; fill: rgb(0, 0, 0); fill-opacity: 1; white-space: pre;" transform="translate(409.9355074463488,340.5144725355877)scale(0.7525403434469824)rotate(-57.76200000000006)"><tspan class="line" dy="0em" x="0" y="0">Vacation Homes</tspan><tspan class="line" dy="1.3em" x="0" y="0">6.83</tspan></text></g></g><g class="slice"><path class="surface" d="M400.94333358753704,302.97879394156394L440.42444478338274,317.30505858875193A168,168 0,0,0 450.5,259.9999999999997L408.5,259.99999999999983A126,126 0,0,1 400.94333358753704,302.97879394156394Z" style="pointer-events: none; stroke-width: 1; fill: rgb(247, 252, 244); fill-opacity: 1; stroke: rgb(0, 0, 0); stroke-opacity: 1; opacity: 1;"/><g class="slicetext"><text data-notex="1" class="slicetext" text-anchor="middle" x="0" y="0" style="font-family: 'Times New Roman'; font-size: 12px; fill: rgb(0, 0, 0); fill-opacity: 1; white-space: pre;" transform="translate(427.7304734499679,285.6984422219596)scale(0.9819039237455995)rotate(-80.02800000000002)"><tspan class="line" dy="0em" x="0" y="0">Platforms</tspan><tspan class="line" dy="1.3em" x="0" y="0">5.54</tspan></text></g></g><g class="slice"><path class="surface" d="M135.6891576319406,178.3264022882498L98.98644703992571,157.90800286031225A210,210 0,0,0 73.4444460003084,240.1058968062888L115.25555680024672,244.08471744503106A168,168 0,0,1 135.6891576319406,178.3264022882498Z" style="pointer-events: none; stroke-width: 1; fill: rgb(243, 250, 240); fill-opacity: 1; stroke: rgb(0, 0, 0); stroke-opacity: 1; opacity: 1;"/><g class="slicetext"><text data-notex="1" class="slicetext" text-anchor="middle" x="0" y="0" style="font-family: 'Times New Roman'; font-size: 12px; fill: rgb(0, 0, 0); fill-opacity: 1; white-space: pre;" transform="translate(92.78179209588765,201.1642463886849)scale(0.6803468040160829)rotate(-72.73800000000006)"><tspan class="line" dy="0em" x="0" y="0">Converted Warehouses</tspan><tspan class="line" dy="1.3em" x="0" y="0">6.57</tspan></text></g></g><g class="slice"><path class="surface" d="M115.25555680024672,244.08471744503106L73.4444460003084,240.1058968062888A210,210 0,0,0 81.51382518962009,320.8650764814389L121.71106015169607,308.6920611851511A168,168 0,0,1 115.25555680024672,244.08471744503106Z" style="pointer-events: none; stroke-width: 1; fill: rgb(244, 251, 242); fill-opacity: 1; stroke: rgb(0, 0, 0); stroke-opacity: 1; opacity: 1;"/><g class="slicetext"><text data-notex="1" class="slicetext" text-anchor="middle" x="0" y="0" style="font-family: 'Times New Roman'; font-size: 12px; fill: rgb(0, 0, 0); fill-opacity: 1; white-space: pre;" transform="translate(98.52092846286453,278.2102801817223)rotate(84.29399999999998)"><tspan class="line" dy="0em" x="0" y="0">Tech Parks</tspan><tspan class="line" dy="1.3em" x="0" y="0">6.19</tspan></text></g></g><g class="slice"><path class="surface" d="M121.71106015169607,308.6920611851511L81.51382518962009,320.8650764814389A210,210 0,0,0 117.5426088929575,389.9579128762779L150.534087114366,363.96633030102225A168,168 0,0,1 121.71106015169607,308.6920611851511Z" style="pointer-events: none; stroke-width: 1; fill: rgb(245, 251, 243); fill-opacity: 1; stroke: rgb(0, 0, 0); stroke-opacity: 1; opacity: 1;"/><g class="slicetext"><text data-notex="1" class="slicetext" text-anchor="middle" x="0" y="0" style="font-family: 'Times New Roman'; font-size: 12px; fill: rgb(0, 0, 0); fill-opacity: 1; white-space: pre;" transform="translate(110.31729362624857,349.6538376976665)scale(0.6791316315823672)rotate(62.460000000000036)"><tspan class="line" dy="0em" x="0" y="0">Corporate Campuses</tspan><tspan class="line" dy="1.3em" x="0" y="0">5.94</tspan></text></g></g><g class="slice"><path class="surface" d="M274.1643803944986,427.7930792547547L272.0804754931233,469.74134906844336A210,210 0,0,0 371.0770652785571,450.4051036780218L353.3616522228457,412.3240829424175A168,168 0,0,1 274.1643803944986,427.7930792547547Z" style="pointer-events: none; stroke-width: 1; fill: rgb(238, 248, 234); fill-opacity: 1; stroke: rgb(0, 0, 0); stroke-opacity: 1; opacity: 1;"/><g class="slicetext"><text data-notex="1" class="slicetext" text-anchor="middle" x="0" y="0" style="font-family: 'Times New Roman'; font-size: 12px; fill: rgb(0, 0, 0); fill-opacity: 1; white-space: pre;" transform="translate(317.8952262113056,441.21443014676527)rotate(-11.052000000000021)"><tspan class="line" dy="0em" x="0" y="0">Studio</tspan><tspan class="line" dy="1.3em" x="0" y="0">7.72</tspan></text></g></g><g class="slice"><path class="surface" d="M353.3616522228457,412.3240829424175L371.0770652785571,450.4051036780218A210,210 0,0,0 432.2003640338414,407.27457692397337L402.26029122707314,377.8196615391787A168,168 0,0,1 353.3616522228457,412.3240829424175Z" style="pointer-events: none; stroke-width: 1; fill: rgb(246, 252, 244); fill-opacity: 1; stroke: rgb(0, 0, 0); stroke-opacity: 1; opacity: 1;"/><g class="slicetext"><text data-notex="1" class="slicetext" text-anchor="middle" x="0" y="0" style="font-family: 'Times New Roman'; font-size: 12px; fill: rgb(0, 0, 0); fill-opacity: 1; white-space: pre;" transform="translate(390.0339306129347,412.9765578576159)rotate(-35.208000000000084)"><tspan class="line" dy="0em" x="0" y="0">2-Bedroom</tspan><tspan class="line" dy="1.3em" x="0" y="0">5.7</tspan></text></g></g></g></g><g class="glimages"/><defs id="topdefs-eae758"><g class="clips"/></defs><g class="layer-above"><g class="imagelayer"/><g class="shapelayer"/></g><g class="infolayer"><g class="cb9c149f colorbar" transform="translate(10,50)"><rect class="cbbg" x="571.5" y="63" width="48.015625" height="295" style="fill: rgb(0, 0, 0); fill-opacity: 0; stroke: rgb(68, 68, 68); stroke-opacity: 1; stroke-width: 0;"/><g class="cbfills" transform="translate(0,93)"><rect class="cbfill gradient_filled" style="fill: url('#geae758-cb9c149f');" x="582" y="0" width="15" height="254"/></g><g class="cblines" transform="translate(0,93)"/><g class="cbaxis crisp" transform="translate(0,-50)"><g class="ycb9c149ftick"><text text-anchor="start" x="600.4" y="4.199999999999999" transform="translate(0,365.19000000000005)" style="font-family: 'Times New Roman'; font-size: 12px; fill: rgb(42, 63, 95); fill-opacity: 1; white-space: pre; opacity: 1;">10</text></g><g class="ycb9c149ftick"><text text-anchor="start" x="600.4" y="4.199999999999999" style="font-family: 'Times New Roman'; font-size: 12px; fill: rgb(42, 63, 95); fill-opacity: 1; white-space: pre; opacity: 1;" transform="translate(0,330.39000000000004)">15</text></g><g class="ycb9c149ftick"><text text-anchor="start" x="600.4" y="4.199999999999999" style="font-family: 'Times New Roman'; font-size: 12px; fill: rgb(42, 63, 95); fill-opacity: 1; white-space: pre; opacity: 1;" transform="translate(0,295.58000000000004)">20</text></g><g class="ycb9c149ftick"><text text-anchor="start" x="600.4" y="4.199999999999999" style="font-family: 'Times New Roman'; font-size: 12px; fill: rgb(42, 63, 95); fill-opacity: 1; white-space: pre; opacity: 1;" transform="translate(0,260.7800000000001)">25</text></g><g class="ycb9c149ftick"><text text-anchor="start" x="600.4" y="4.199999999999999" style="font-family: 'Times New Roman'; font-size: 12px; fill: rgb(42, 63, 95); fill-opacity: 1; white-space: pre; opacity: 1;" transform="translate(0,225.97000000000006)">30</text></g><g class="ycb9c149ftick"><text text-anchor="start" x="600.4" y="4.199999999999999" style="font-family: 'Times New Roman'; font-size: 12px; fill: rgb(42, 63, 95); fill-opacity: 1; white-space: pre; opacity: 1;" transform="translate(0,191.17000000000007)">35</text></g><g class="ycb9c149ftick"><text text-anchor="start" x="600.4" y="4.199999999999999" style="font-family: 'Times New Roman'; font-size: 12px; fill: rgb(42, 63, 95); fill-opacity: 1; white-space: pre; opacity: 1;" transform="translate(0,156.36000000000007)">40</text></g></g><g class="cbtitleunshift" transform="translate(-10,-50)"><g class="cbtitle" transform="translate(-0.5,-0.5)"><text class="ycb9c149ftitle" x="592.25" y="135.75" text-anchor="start" style="opacity: 1; font-family: 'Times New Roman'; font-size: 13px; fill: rgb(42, 63, 95); fill-opacity: 1; white-space: pre;">%</text></g></g><rect class="cboutline" x="582" y="93" width="15" height="254" style="stroke: rgb(68, 68, 68); stroke-opacity: 1; fill: none; stroke-width: 1;"/></g><g class="g-gtitle"><text class="gtitle" x="320" y="25" text-anchor="middle" dy="0em" style="opacity: 1; font-family: 'Times New Roman'; font-size: 16px; fill: rgb(42, 63, 95); fill-opacity: 1; white-space: pre;">Housing Market Distribution by Category (2023) (%)</text></g></g></svg>