<svg class="main-svg" xmlns="http://www.w3.org/2000/svg" xmlns:xlink="http://www.w3.org/1999/xlink" width="1920" height="1440" style="" viewBox="0 0 640 480"><rect x="0" y="0" width="640" height="480" style="fill: rgb(255, 255, 255); fill-opacity: 1;"/><defs id="defs-437a4d"><g class="clips"/><g class="gradients"><linearGradient x1="0" y1="1" x2="0" y2="0" gradientUnits="objectBoundingBox" id="g437a4d-cb71da25"><stop offset="0%" stop-color="rgb(255, 245, 240)" stop-opacity="1"/><stop offset="12.5%" stop-color="rgb(254, 224, 210)" stop-opacity="1"/><stop offset="25%" stop-color="rgb(252, 187, 161)" stop-opacity="1"/><stop offset="37.5%" stop-color="rgb(252, 146, 114)" stop-opacity="1"/><stop offset="50%" stop-color="rgb(251, 106, 74)" stop-opacity="1"/><stop offset="62.5%" stop-color="rgb(239, 59, 44)" stop-opacity="1"/><stop offset="75%" stop-color="rgb(203, 24, 29)" stop-opacity="1"/><stop offset="87.5%" stop-color="rgb(165, 15, 21)" stop-opacity="1"/><stop offset="100%" stop-color="rgb(103, 0, 13)" stop-opacity="1"/></linearGradient></g><g class="patterns"/></defs><g class="bglayer"/><g class="layer-below"><g class="imagelayer"/><g class="shapelayer"/></g><g class="cartesianlayer"/><g class="polarlayer"/><g class="smithlayer"/><g class="ternarylayer"/><g class="geolayer"/><g class="funnelarealayer"/><g class="pielayer"/><g class="iciclelayer"/><g class="treemaplayer"/><g class="sunburstlayer"><g class="trace sunburst" stroke-linejoin="round" style="opacity: 1;"><g class="slice"><path class="surface" d="M282.5,260A0,0 0,1,0 282.5,260A0,0 0,1,0 282.5,260ZM324.5,260A42,42 0,1,1 240.5,260A42,42 0,1,1 324.5,260Z" style="pointer-events: none; stroke-width: 1; fill: rgb(255, 255, 255); fill-opacity: 1; stroke: rgb(0, 0, 0); stroke-opacity: 1;"/><g class="slicetext"><text data-notex="1" class="slicetext" text-anchor="middle" x="0" y="0" style="font-family: 'Times New Roman'; font-size: 12px; fill: rgb(0, 0, 0); fill-opacity: 1; white-space: pre;" transform="translate(282.5,264)">100</text></g></g><g class="slice cursor-pointer"><path class="surface" d="M324.5,260L366.5,260A84,84 0,0,0 201.12590498305423,239.16117421318842L241.8129524915271,249.5805871065942A42,42 0,0,1 324.5,260Z" style="pointer-events: none; stroke-width: 1; fill: rgb(103, 0, 13); fill-opacity: 1; stroke: rgb(0, 0, 0); stroke-opacity: 1;"/><g class="slicetext"><text data-notex="1" class="slicetext" text-anchor="middle" x="0" y="0" style="font-family: 'Times New Roman'; font-size: 12px; fill: rgb(0, 0, 0); fill-opacity: 1; white-space: pre;" transform="translate(289.9850126814861,197.975406947121)rotate(7.182000000000016)"><tspan class="line" dy="0em" x="0" y="0">Rental Market</tspan><tspan class="line" dy="1.3em" x="0" y="0">46.01</tspan></text></g></g><g class="slice cursor-pointer"><path class="surface" d="M241.8129524915271,249.5805871065942L201.12590498305423,239.16117421318842A84,84 0,0,0 288.56427683816037,343.78081251951517L285.5321384190802,301.8904062597576A42,42 0,0,1 241.8129524915271,249.5805871065942Z" style="pointer-events: none; stroke-width: 1; fill: rgb(240, 65, 48); fill-opacity: 1; stroke: rgb(0, 0, 0); stroke-opacity: 1;"/><g class="slicetext"><text data-notex="1" class="slicetext" text-anchor="middle" x="0" y="0" style="font-family: 'Times New Roman'; font-size: 12px; fill: rgb(0, 0, 0); fill-opacity: 1; white-space: pre;" transform="translate(242.2504038835889,293.6395652787471)scale(0.8209780396795036)rotate(50.111999999999966)"><tspan class="line" dy="0em" x="0" y="0">Commercial Real Estate</tspan><tspan class="line" dy="1.3em" x="0" y="0">30.14</tspan></text></g></g><g class="slice cursor-pointer"><path class="surface" d="M285.5321384190802,301.8904062597576L288.56427683816037,343.78081251951517A84,84 0,0,0 366.5,259.99999999999994L324.5,260A42,42 0,0,1 285.5321384190802,301.8904062597576Z" style="pointer-events: none; stroke-width: 1; fill: rgb(251, 120, 88); fill-opacity: 1; stroke: rgb(0, 0, 0); stroke-opacity: 1;"/><g class="slicetext"><text data-notex="1" class="slicetext" text-anchor="middle" x="0" y="0" style="font-family: 'Times New Roman'; font-size: 12px; fill: rgb(0, 0, 0); fill-opacity: 1; white-space: pre;" transform="translate(324.1252167239115,298.72117337595273)scale(0.8195707991084719)rotate(-47.07000000000005)"><tspan class="line" dy="0em" x="0" y="0">Residential Property</tspan><tspan class="line" dy="1.3em" x="0" y="0">23.85</tspan></text></g></g><g class="slice cursor-pointer"><path class="surface" d="M366.5,260L408.5,260A126,126 0,0,0 272.2984891491048,134.4136584800757L275.69899276606986,176.27577232005046A84,84 0,0,1 366.5,260Z" style="pointer-events: none; stroke-width: 1; fill: rgb(249, 100, 70); fill-opacity: 1; stroke: rgb(0, 0, 0); stroke-opacity: 1;"/><g class="slicetext"><text data-notex="1" class="slicetext" text-anchor="middle" x="0" y="0" style="font-family: 'Times New Roman'; font-size: 12px; fill: rgb(0, 0, 0); fill-opacity: 1; white-space: pre;" transform="translate(352.79089748807905,183.51422467533644)rotate(42.678)"><tspan class="line" dy="0em" x="0" y="0">Long-Term Rentals</tspan><tspan class="line" dy="1.3em" x="0" y="0">26.29</tspan></text></g></g><g class="slice cursor-pointer"><path class="surface" d="M275.69899276606986,176.27577232005046L272.2984891491048,134.4136584800757A126,126 0,0,0 160.43885747458137,228.74176131978263L201.12590498305423,239.16117421318842A84,84 0,0,1 275.69899276606986,176.27577232005046Z" style="pointer-events: none; stroke-width: 1; fill: rgb(252, 153, 122); fill-opacity: 1; stroke: rgb(0, 0, 0); stroke-opacity: 1;"/><g class="slicetext"><text data-notex="1" class="slicetext" text-anchor="middle" x="0" y="0" style="font-family: 'Times New Roman'; font-size: 12px; fill: rgb(0, 0, 0); fill-opacity: 1; white-space: pre;" transform="translate(215.4351955300791,180.72523443959673)rotate(-40.139999999999986)"><tspan class="line" dy="0em" x="0" y="0">Short-Term Rentals</tspan><tspan class="line" dy="1.3em" x="0" y="0">19.72</tspan></text></g></g><g class="slice cursor-pointer"><path class="surface" d="M201.12590498305423,239.16117421318842L160.43885747458137,228.74176131978263A126,126 0,0,0 242.81169852343163,379.5861142687771L256.0411323489544,339.72407617918475A84,84 0,0,1 201.12590498305423,239.16117421318842Z" style="pointer-events: none; stroke-width: 1; fill: rgb(251, 120, 88); fill-opacity: 1; stroke: rgb(0, 0, 0); stroke-opacity: 1;"/><g class="slicetext"><text data-notex="1" class="slicetext" text-anchor="middle" x="0" y="0" style="font-family: 'Times New Roman'; font-size: 12px; fill: rgb(0, 0, 0); fill-opacity: 1; white-space: pre;" transform="translate(197.1735385873081,306.4080058762747)rotate(61.361999999999966)"><tspan class="line" dy="0em" x="0" y="0">Office Buildings</tspan><tspan class="line" dy="1.3em" x="0" y="0">23.89</tspan></text></g></g><g class="slice"><path class="surface" d="M256.0411323489544,339.72407617918475L242.81169852343163,379.5861142687771A126,126 0,0,0 291.5964152572405,385.67121877927275L288.56427683816037,343.78081251951517A84,84 0,0,1 256.0411323489544,339.72407617918475Z" style="pointer-events: none; stroke-width: 1; fill: rgb(255, 241, 234); fill-opacity: 1; stroke: rgb(0, 0, 0); stroke-opacity: 1; opacity: 1;"/><g class="slicetext"><text data-notex="1" class="slicetext" text-anchor="middle" x="0" y="0" style="font-family: 'Times New Roman'; font-size: 12px; fill: rgb(0, 0, 0); fill-opacity: 1; white-space: pre;" transform="translate(268.48219826883764,371.5724070022921)scale(0.6105718779481819)rotate(7.110000000000014)"><tspan class="line" dy="0em" x="0" y="0">Retail Spaces</tspan><tspan class="line" dy="1.3em" x="0" y="0">6.25</tspan></text></g></g><g class="slice"><path class="surface" d="M288.56427683816037,343.78081251951517L291.5964152572405,385.67121877927275A126,126 0,0,0 408.5,259.99999999999994L366.5,259.99999999999994A84,84 0,0,1 288.56427683816037,343.78081251951517Z" style="pointer-events: none; stroke-width: 1; fill: rgb(251, 120, 88); fill-opacity: 1; stroke: rgb(0, 0, 0); stroke-opacity: 1; opacity: 1;"/><g class="slicetext"><text data-notex="1" class="slicetext" text-anchor="middle" x="0" y="0" style="font-family: 'Times New Roman'; font-size: 12px; fill: rgb(0, 0, 0); fill-opacity: 1; white-space: pre;" transform="translate(352.43879049407457,325.27878513980863)scale(0.9790393423296554)rotate(-47.07000000000005)"><tspan class="line" dy="0em" x="0" y="0">Single Family Homes</tspan><tspan class="line" dy="1.3em" x="0" y="0">23.85</tspan></text></g></g><g class="slice"><path class="surface" d="M408.5,260L450.5,260A168,168 0,0,0 391.1248985559863,131.84138182041102L363.96867391698976,163.88103636530826A126,126 0,0,1 408.5,260Z" style="pointer-events: none; stroke-width: 1; fill: rgb(253, 199, 177); fill-opacity: 1; stroke: rgb(0, 0, 0); stroke-opacity: 1; opacity: 1;"/><g class="slicetext"><text data-notex="1" class="slicetext" text-anchor="middle" x="0" y="0" style="font-family: 'Times New Roman'; font-size: 12px; fill: rgb(0, 0, 0); fill-opacity: 1; white-space: pre;" transform="translate(417.50510257512633,197.2721498130537)rotate(65.14200000000005)"><tspan class="line" dy="0em" x="0" y="0">Apartments</tspan><tspan class="line" dy="1.3em" x="0" y="0">13.81</tspan></text></g></g><g class="slice cursor-pointer"><path class="surface" d="M363.96867391698976,163.88103636530826L391.1248985559863,131.84138182041102A168,168 0,0,0 268.89798553213967,92.5515446401009L272.2984891491048,134.4136584800757A126,126 0,0,1 363.96867391698976,163.88103636530826Z" style="pointer-events: none; stroke-width: 1; fill: rgb(253, 209, 190); fill-opacity: 1; stroke: rgb(0, 0, 0); stroke-opacity: 1;"/><g class="slicetext"><text data-notex="1" class="slicetext" text-anchor="middle" x="0" y="0" style="font-family: 'Times New Roman'; font-size: 12px; fill: rgb(0, 0, 0); fill-opacity: 1; white-space: pre;" transform="translate(327.33578779339155,119.42243103077418)rotate(17.819999999999936)"><tspan class="line" dy="0em" x="0" y="0">Houses for Rent</tspan><tspan class="line" dy="1.3em" x="0" y="0">12.48</tspan></text></g></g><g class="slice"><path class="surface" d="M272.2984891491048,134.4136584800757L268.89798553213967,92.5515446401009A168,168 0,0,0 119.75180996610848,218.32234842637683L160.43885747458137,228.74176131978263A126,126 0,0,1 272.2984891491048,134.4136584800757Z" style="pointer-events: none; stroke-width: 1; fill: rgb(252, 153, 122); fill-opacity: 1; stroke: rgb(0, 0, 0); stroke-opacity: 1; opacity: 1;"/><g class="slicetext"><text data-notex="1" class="slicetext" text-anchor="middle" x="0" y="0" style="font-family: 'Times New Roman'; font-size: 12px; fill: rgb(0, 0, 0); fill-opacity: 1; white-space: pre;" transform="translate(187.27791686267756,147.33473122927862)rotate(-40.139999999999986)"><tspan class="line" dy="0em" x="0" y="0">Vacation Homes</tspan><tspan class="line" dy="1.3em" x="0" y="0">19.72</tspan></text></g></g><g class="slice cursor-pointer"><path class="surface" d="M160.43885747458137,228.74176131978263L119.75180996610848,218.32234842637683A168,168 0,0,0 172.35291388612814,386.8527469967572L199.8896854145961,355.13956024756794A126,126 0,0,1 160.43885747458137,228.74176131978263Z" style="pointer-events: none; stroke-width: 1; fill: rgb(252, 170, 141); fill-opacity: 1; stroke: rgb(0, 0, 0); stroke-opacity: 1;"/><g class="slicetext"><text data-notex="1" class="slicetext" text-anchor="middle" x="0" y="0" style="font-family: 'Times New Roman'; font-size: 12px; fill: rgb(0, 0, 0); fill-opacity: 1; white-space: pre;" transform="translate(149.59844810840943,301.3088879729838)rotate(72.66599999999994)"><tspan class="line" dy="0em" x="0" y="0">Downtown Offices</tspan><tspan class="line" dy="1.3em" x="0" y="0">17.61</tspan></text></g></g><g class="slice"><path class="surface" d="M199.8896854145961,355.13956024756794L172.35291388612814,386.8527469967572A168,168 0,0,0 229.58226469790884,419.4481523583695L242.81169852343163,379.5861142687771A126,126 0,0,1 199.8896854145961,355.13956024756794Z" style="pointer-events: none; stroke-width: 1; fill: rgb(255, 241, 234); fill-opacity: 1; stroke: rgb(0, 0, 0); stroke-opacity: 1; opacity: 1;"/><g class="slicetext"><text data-notex="1" class="slicetext" text-anchor="middle" x="0" y="0" style="font-family: 'Times New Roman'; font-size: 12px; fill: rgb(0, 0, 0); fill-opacity: 1; white-space: pre;" transform="translate(206.77563625467806,392.72283970697174)scale(0.6626784974282384)rotate(29.663999999999987)"><tspan class="line" dy="0em" x="0" y="0">Suburban Offices</tspan><tspan class="line" dy="1.3em" x="0" y="0">6.28</tspan></text></g></g><g class="slice"><path class="surface" d="M391.1248985559863,131.84138182041102L418.2811231949829,99.80172727551377A210,210 0,0,0 338.1678373791043,57.51273649551783L327.0342699032834,98.01018919641425A168,168 0,0,1 391.1248985559863,131.84138182041102Z" style="pointer-events: none; stroke-width: 1; fill: rgb(255, 238, 230); fill-opacity: 1; stroke: rgb(0, 0, 0); stroke-opacity: 1; opacity: 1;"/><g class="slicetext"><text data-notex="1" class="slicetext" text-anchor="middle" x="0" y="0" style="font-family: 'Times New Roman'; font-size: 12px; fill: rgb(0, 0, 0); fill-opacity: 1; white-space: pre;" transform="translate(374.3285031091855,85.754540524777)scale(0.8061640797329734)rotate(27.827999999999975)"><tspan class="line" dy="0em" x="0" y="0">Gated Communities</tspan><tspan class="line" dy="1.3em" x="0" y="0">6.92</tspan></text></g></g><g class="slice"><path class="surface" d="M327.0342699032834,98.01018919641425L338.1678373791043,57.51273649551783A210,210 0,0,0 265.4974819151746,50.68943080012613L268.89798553213967,92.5515446401009A168,168 0,0,1 327.0342699032834,98.01018919641425Z" style="pointer-events: none; stroke-width: 1; fill: rgb(255, 244, 238); fill-opacity: 1; stroke: rgb(0, 0, 0); stroke-opacity: 1; opacity: 1;"/><g class="slicetext"><text data-notex="1" class="slicetext" text-anchor="middle" x="0" y="0" style="font-family: 'Times New Roman'; font-size: 12px; fill: rgb(0, 0, 0); fill-opacity: 1; white-space: pre;" transform="translate(300.97359637372216,61.93754214859702)scale(0.7480535848596994)rotate(5.364000000000033)"><tspan class="line" dy="0em" x="0" y="0">Detached Rentals</tspan><tspan class="line" dy="1.3em" x="0" y="0">5.56</tspan></text></g></g><g class="slice"><path class="surface" d="M119.75180996610848,218.32234842637683L79.0647624576356,207.90293553297104A210,210 0,0,0 75.12689431485583,293.1118564640828L116.60151545188467,286.4894851712662A168,168 0,0,1 119.75180996610848,218.32234842637683Z" style="pointer-events: none; stroke-width: 1; fill: rgb(255, 240, 233); fill-opacity: 1; stroke: rgb(0, 0, 0); stroke-opacity: 1; opacity: 1;"/><g class="slicetext"><text data-notex="1" class="slicetext" text-anchor="middle" x="0" y="0" style="font-family: 'Times New Roman'; font-size: 12px; fill: rgb(0, 0, 0); fill-opacity: 1; white-space: pre;" transform="translate(85.45035183966834,250.89349420744495)scale(0.8193155628952757)rotate(-87.35400000000004)"><tspan class="line" dy="0em" x="0" y="0">Shared Workspace</tspan><tspan class="line" dy="1.3em" x="0" y="0">6.51</tspan></text></g></g><g class="slice"><path class="surface" d="M116.60151545188467,286.4894851712662L75.12689431485583,293.1118564640828A210,210 0,0,0 100.67866345614428,365.0761703594395L137.0429307649154,344.0609362875516A168,168 0,0,1 116.60151545188467,286.4894851712662Z" style="pointer-events: none; stroke-width: 1; fill: rgb(255, 243, 237); fill-opacity: 1; stroke: rgb(0, 0, 0); stroke-opacity: 1; opacity: 1;"/><g class="slicetext"><text data-notex="1" class="slicetext" text-anchor="middle" x="0" y="0" style="font-family: 'Times New Roman'; font-size: 12px; fill: rgb(0, 0, 0); fill-opacity: 1; white-space: pre;" transform="translate(108.69598919214364,321.711141531204)rotate(70.452)"><tspan class="line" dy="0em" x="0" y="0">Class B</tspan><tspan class="line" dy="1.3em" x="0" y="0">5.82</tspan></text></g></g><g class="slice"><path class="surface" d="M137.0429307649154,344.0609362875516L100.67866345614428,365.0761703594395A210,210 0,0,0 144.81614235766017,418.5659337459465L172.35291388612814,386.8527469967572A168,168 0,0,1 137.0429307649154,344.0609362875516Z" style="pointer-events: none; stroke-width: 1; fill: rgb(255, 245, 240); fill-opacity: 1; stroke: rgb(0, 0, 0); stroke-opacity: 1; opacity: 1;"/><g class="slicetext"><text data-notex="1" class="slicetext" text-anchor="middle" x="0" y="0" style="font-family: 'Times New Roman'; font-size: 12px; fill: rgb(0, 0, 0); fill-opacity: 1; white-space: pre;" transform="translate(140.16791784636717,377.23367836944385)rotate(50.47199999999998)"><tspan class="line" dy="0em" x="0" y="0">Class A</tspan><tspan class="line" dy="1.3em" x="0" y="0">5.28</tspan></text></g></g></g></g><g class="glimages"/><defs id="topdefs-437a4d"><g class="clips"/></defs><g class="layer-above"><g class="imagelayer"/><g class="shapelayer"/></g><g class="infolayer"><g class="cb71da25 colorbar" transform="translate(10,50)"><rect class="cbbg" x="571.5" y="63" width="48.015625" height="295" style="fill: rgb(0, 0, 0); fill-opacity: 0; stroke: rgb(68, 68, 68); stroke-opacity: 1; stroke-width: 0;"/><g class="cbfills" transform="translate(0,93)"><rect class="cbfill gradient_filled" style="fill: url('#g437a4d-cb71da25');" x="582" y="0" width="15" height="254"/></g><g class="cblines" transform="translate(0,93)"/><g class="cbaxis crisp" transform="translate(0,-50)"><g class="ycb71da25tick"><text text-anchor="start" x="600.4" y="4.199999999999999" transform="translate(0,367.57000000000005)" style="font-family: 'Times New Roman'; font-size: 12px; fill: rgb(42, 63, 95); fill-opacity: 1; white-space: pre; opacity: 1;">10</text></g><g class="ycb71da25tick"><text text-anchor="start" x="600.4" y="4.199999999999999" style="font-family: 'Times New Roman'; font-size: 12px; fill: rgb(42, 63, 95); fill-opacity: 1; white-space: pre; opacity: 1;" transform="translate(0,305.20000000000005)">20</text></g><g class="ycb71da25tick"><text text-anchor="start" x="600.4" y="4.199999999999999" style="font-family: 'Times New Roman'; font-size: 12px; fill: rgb(42, 63, 95); fill-opacity: 1; white-space: pre; opacity: 1;" transform="translate(0,242.84000000000006)">30</text></g><g class="ycb71da25tick"><text text-anchor="start" x="600.4" y="4.199999999999999" style="font-family: 'Times New Roman'; font-size: 12px; fill: rgb(42, 63, 95); fill-opacity: 1; white-space: pre; opacity: 1;" transform="translate(0,180.48000000000005)">40</text></g></g><g class="cbtitleunshift" transform="translate(-10,-50)"><g class="cbtitle" transform="translate(-0.5,-0.5)"><text class="ycb71da25title" x="592.25" y="135.75" text-anchor="start" style="opacity: 1; font-family: 'Times New Roman'; font-size: 13px; fill: rgb(42, 63, 95); fill-opacity: 1; white-space: pre;">%</text></g></g><rect class="cboutline" x="582" y="93" width="15" height="254" style="stroke: rgb(68, 68, 68); stroke-opacity: 1; fill: none; stroke-width: 1;"/></g><g class="g-gtitle"><text class="gtitle" x="320" y="25" text-anchor="middle" dy="0em" style="opacity: 1; font-family: 'Times New Roman'; font-size: 16px; fill: rgb(42, 63, 95); fill-opacity: 1; white-space: pre;">Housing Market Distribution by Category (2023) (%)</text></g></g></svg>