<svg class="main-svg" xmlns="http://www.w3.org/2000/svg" xmlns:xlink="http://www.w3.org/1999/xlink" width="1920" height="1440" style="" viewBox="0 0 640 480"><rect x="0" y="0" width="640" height="480" style="fill: rgb(255, 255, 255); fill-opacity: 1;"/><defs id="defs-b86058"><g class="clips"/><g class="gradients"><linearGradient x1="0" y1="1" x2="0" y2="0" gradientUnits="objectBoundingBox" id="gb86058-cbb62341"><stop offset="0%" stop-color="rgb(247, 251, 255)" stop-opacity="1"/><stop offset="12.5%" stop-color="rgb(222, 235, 247)" stop-opacity="1"/><stop offset="25%" stop-color="rgb(198, 219, 239)" stop-opacity="1"/><stop offset="37.5%" stop-color="rgb(158, 202, 225)" stop-opacity="1"/><stop offset="50%" stop-color="rgb(107, 174, 214)" stop-opacity="1"/><stop offset="62.5%" stop-color="rgb(66, 146, 198)" stop-opacity="1"/><stop offset="75%" stop-color="rgb(33, 113, 181)" stop-opacity="1"/><stop offset="87.5%" stop-color="rgb(8, 81, 156)" stop-opacity="1"/><stop offset="100%" stop-color="rgb(8, 48, 107)" stop-opacity="1"/></linearGradient></g><g class="patterns"/></defs><g class="bglayer"/><g class="layer-below"><g class="imagelayer"/><g class="shapelayer"/></g><g class="cartesianlayer"/><g class="polarlayer"/><g class="smithlayer"/><g class="ternarylayer"/><g class="geolayer"/><g class="funnelarealayer"/><g class="pielayer"/><g class="iciclelayer"/><g class="treemaplayer"/><g class="sunburstlayer"><g class="trace sunburst" stroke-linejoin="round" style="opacity: 1;"><g class="slice"><path class="surface" d="M282.5,260A0,0 0,1,0 282.5,260A0,0 0,1,0 282.5,260ZM324.5,260A42,42 0,1,1 240.5,260A42,42 0,1,1 324.5,260Z" style="pointer-events: none; stroke-width: 1; fill: rgb(255, 255, 255); fill-opacity: 1; stroke: rgb(0, 0, 0); stroke-opacity: 1;"/><g class="slicetext"><text data-notex="1" class="slicetext" text-anchor="middle" x="0" y="0" style="font-family: 'Times New Roman'; font-size: 12px; fill: rgb(0, 0, 0); fill-opacity: 1; white-space: pre;" transform="translate(282.5,264)">99.99</text></g></g><g class="slice cursor-pointer"><path class="surface" d="M324.5,260L366.5,260A84,84 0,1,0 199.37198387021851,272.07198965899113L240.93599193510926,266.03599482949556A42,42 0,1,1 324.5,260Z" style="pointer-events: none; stroke-width: 1; fill: rgb(8, 48, 107); fill-opacity: 1; stroke: rgb(0, 0, 0); stroke-opacity: 1;"/><g class="slicetext"><text data-notex="1" class="slicetext" text-anchor="middle" x="0" y="0" style="font-family: 'Times New Roman'; font-size: 12px; fill: rgb(0, 0, 0); fill-opacity: 1; white-space: pre;" transform="translate(277.6718513854199,197.71224406696945)rotate(-4.1314131413141695)"><tspan class="line" dy="0em" x="0" y="0">Rental Market</tspan><tspan class="line" dy="1.3em" x="0" y="0">52.29</tspan></text></g></g><g class="slice cursor-pointer"><path class="surface" d="M240.93599193510926,266.03599482949556L199.37198387021851,272.07198965899113A84,84 0,0,0 299.2126376391715,342.32063983680973L290.85631881958574,301.16031991840487A42,42 0,0,1 240.93599193510926,266.03599482949556Z" style="pointer-events: none; stroke-width: 1; fill: rgb(132, 188, 219); fill-opacity: 1; stroke: rgb(0, 0, 0); stroke-opacity: 1;"/><g class="slicetext"><text data-notex="1" class="slicetext" text-anchor="middle" x="0" y="0" style="font-family: 'Times New Roman'; font-size: 12px; fill: rgb(0, 0, 0); fill-opacity: 1; white-space: pre;" transform="translate(251.15587937989906,304.54772421395126)scale(0.8706144604514687)rotate(35.130513051305115)"><tspan class="line" dy="0em" x="0" y="0">Residential Property</tspan><tspan class="line" dy="1.3em" x="0" y="0">25.89</tspan></text></g></g><g class="slice cursor-pointer"><path class="surface" d="M290.85631881958574,301.16031991840487L299.2126376391715,342.32063983680973A84,84 0,0,0 366.5,260L324.5,260A42,42 0,0,1 290.85631881958574,301.16031991840487Z" style="pointer-events: none; stroke-width: 1; fill: rgb(165, 205, 227); fill-opacity: 1; stroke: rgb(0, 0, 0); stroke-opacity: 1;"/><g class="slicetext"><text data-notex="1" class="slicetext" text-anchor="middle" x="0" y="0" style="font-family: 'Times New Roman'; font-size: 12px; fill: rgb(0, 0, 0); fill-opacity: 1; white-space: pre;" transform="translate(329.13190963590176,298.11605701156475)scale(0.6744434650397221)rotate(-50.738073807380715)"><tspan class="line" dy="0em" x="0" y="0">Commercial Real Estate</tspan><tspan class="line" dy="1.3em" x="0" y="0">21.81</tspan></text></g></g><g class="slice cursor-pointer"><path class="surface" d="M366.5,260L408.5,260A126,126 0,0,0 205.00154605302143,160.65217850487085L230.83436403534762,193.76811900324725A84,84 0,0,1 366.5,260Z" style="pointer-events: none; stroke-width: 1; fill: rgb(61, 141, 195); fill-opacity: 1; stroke: rgb(0, 0, 0); stroke-opacity: 1;"/><g class="slicetext"><text data-notex="1" class="slicetext" text-anchor="middle" x="0" y="0" style="font-family: 'Times New Roman'; font-size: 12px; fill: rgb(0, 0, 0); fill-opacity: 1; white-space: pre;" transform="translate(327.91831963194363,166.5759113584448)rotate(26.021602160216048)"><tspan class="line" dy="0em" x="0" y="0">Long-Term Rentals</tspan><tspan class="line" dy="1.3em" x="0" y="0">35.54</tspan></text></g></g><g class="slice cursor-pointer"><path class="surface" d="M230.83436403534762,193.76811900324725L205.00154605302143,160.65217850487085A126,126 0,0,0 157.80797580532777,278.1079844884867L199.37198387021851,272.07198965899113A84,84 0,0,1 230.83436403534762,193.76811900324725Z" style="pointer-events: none; stroke-width: 1; fill: rgb(199, 220, 239); fill-opacity: 1; stroke: rgb(0, 0, 0); stroke-opacity: 1;"/><g class="slicetext"><text data-notex="1" class="slicetext" text-anchor="middle" x="0" y="0" style="font-family: 'Times New Roman'; font-size: 12px; fill: rgb(0, 0, 0); fill-opacity: 1; white-space: pre;" transform="translate(185.3099568929305,221.12567706203833)scale(0.9982073825985377)rotate(-68.10981098109812)"><tspan class="line" dy="0em" x="0" y="0">Short-Term Rentals</tspan><tspan class="line" dy="1.3em" x="0" y="0">16.75</tspan></text></g></g><g class="slice"><path class="surface" d="M199.37198387021851,272.07198965899113L157.80797580532777,278.1079844884867A126,126 0,0,0 240.01984778726566,378.62308657248354L254.17989852484376,339.082057714989A84,84 0,0,1 199.37198387021851,272.07198965899113Z" style="pointer-events: none; stroke-width: 1; fill: rgb(196, 218, 238); fill-opacity: 1; stroke: rgb(0, 0, 0); stroke-opacity: 1; opacity: 1;"/><g class="slicetext"><text data-notex="1" class="slicetext" text-anchor="middle" x="0" y="0" style="font-family: 'Times New Roman'; font-size: 12px; fill: rgb(0, 0, 0); fill-opacity: 1; white-space: pre;" transform="translate(207.0674112209891,321.49761972262996)scale(0.9394778661938636)rotate(50.720072007200656)"><tspan class="line" dy="0em" x="0" y="0">Single Family Homes</tspan><tspan class="line" dy="1.3em" x="0" y="0">17.23</tspan></text></g></g><g class="slice cursor-pointer"><path class="surface" d="M254.17989852484376,339.082057714989L240.01984778726566,378.62308657248354A126,126 0,0,0 307.56895645875727,383.4809597552146L299.2126376391715,342.32063983680973A84,84 0,0,1 254.17989852484376,339.082057714989Z" style="pointer-events: none; stroke-width: 1; fill: rgb(232, 242, 250); fill-opacity: 1; stroke: rgb(0, 0, 0); stroke-opacity: 1;"/><g class="slicetext"><text data-notex="1" class="slicetext" text-anchor="middle" x="0" y="0" style="font-family: 'Times New Roman'; font-size: 12px; fill: rgb(0, 0, 0); fill-opacity: 1; white-space: pre;" transform="translate(274.38007449904393,371.65141290571074)scale(0.5494898792255445)rotate(4.11341134113411)"><tspan class="line" dy="0em" x="0" y="0">Multi-Family Homes</tspan><tspan class="line" dy="1.3em" x="0" y="0">8.66</tspan></text></g></g><g class="slice"><path class="surface" d="M299.2126376391715,342.32063983680973L307.56895645875727,383.4809597552146A126,126 0,0,0 408.5,260.00000000000006L366.5,260A84,84 0,0,1 299.2126376391715,342.32063983680973Z" style="pointer-events: none; stroke-width: 1; fill: rgb(165, 205, 227); fill-opacity: 1; stroke: rgb(0, 0, 0); stroke-opacity: 1; opacity: 1;"/><g class="slicetext"><text data-notex="1" class="slicetext" text-anchor="middle" x="0" y="0" style="font-family: 'Times New Roman'; font-size: 12px; fill: rgb(0, 0, 0); fill-opacity: 1; white-space: pre;" transform="translate(358.38973182666405,322.2427531917627)rotate(-50.738073807380715)"><tspan class="line" dy="0em" x="0" y="0">Retail Spaces</tspan><tspan class="line" dy="1.3em" x="0" y="0">21.81</tspan></text></g></g><g class="slice cursor-pointer"><path class="surface" d="M408.5,260L450.5,260A168,168 0,0,0 305.93857694257906,93.64305511669554L300.0789327069343,135.23229133752164A126,126 0,0,1 408.5,260Z" style="pointer-events: none; stroke-width: 1; fill: rgb(159, 202, 225); fill-opacity: 1; stroke: rgb(0, 0, 0); stroke-opacity: 1;"/><g class="slicetext"><text data-notex="1" class="slicetext" text-anchor="middle" x="0" y="0" style="font-family: 'Times New Roman'; font-size: 12px; fill: rgb(0, 0, 0); fill-opacity: 1; white-space: pre;" transform="translate(393.65680572365477,162.9615266728441)rotate(49.00990099009903)"><tspan class="line" dy="0em" x="0" y="0">Houses for Rent</tspan><tspan class="line" dy="1.3em" x="0" y="0">22.77</tspan></text></g></g><g class="slice cursor-pointer"><path class="surface" d="M300.0789327069343,135.23229133752164L305.93857694257906,93.64305511669554A168,168 0,0,0 179.16872807069524,127.53623800649447L205.00154605302143,160.65217850487085A126,126 0,0,1 300.0789327069343,135.23229133752164Z" style="pointer-events: none; stroke-width: 1; fill: rgb(215, 230, 245); fill-opacity: 1; stroke: rgb(0, 0, 0); stroke-opacity: 1;"/><g class="slicetext"><text data-notex="1" class="slicetext" text-anchor="middle" x="0" y="0" style="font-family: 'Times New Roman'; font-size: 12px; fill: rgb(0, 0, 0); fill-opacity: 1; white-space: pre;" transform="translate(243.89117516841853,116.22754243068457)rotate(-14.968496849684925)"><tspan class="line" dy="0em" x="0" y="0">Apartments</tspan><tspan class="line" dy="1.3em" x="0" y="0">12.77</tspan></text></g></g><g class="slice"><path class="surface" d="M205.00154605302143,160.65217850487085L179.16872807069524,127.53623800649447A168,168 0,0,0 120.9528630383623,213.88576641103236L161.33964727877174,225.41432480827427A126,126 0,0,1 205.00154605302143,160.65217850487085Z" style="pointer-events: none; stroke-width: 1; fill: rgb(226, 238, 248); fill-opacity: 1; stroke: rgb(0, 0, 0); stroke-opacity: 1; opacity: 1;"/><g class="slicetext"><text data-notex="1" class="slicetext" text-anchor="middle" x="0" y="0" style="font-family: 'Times New Roman'; font-size: 12px; fill: rgb(0, 0, 0); fill-opacity: 1; white-space: pre;" transform="translate(158.55093031521932,176.63281980212864)rotate(-56.012601260126075)"><tspan class="line" dy="0em" x="0" y="0">Platforms</tspan><tspan class="line" dy="1.3em" x="0" y="0">10.03</tspan></text></g></g><g class="slice"><path class="surface" d="M161.33964727877174,225.41432480827427L120.9528630383623,213.88576641103236A168,168 0,0,0 116.24396774043703,284.14397931798226L157.80797580532777,278.1079844884867A126,126 0,0,1 161.33964727877174,225.41432480827427Z" style="pointer-events: none; stroke-width: 1; fill: rgb(240, 247, 253); fill-opacity: 1; stroke: rgb(0, 0, 0); stroke-opacity: 1; opacity: 1;"/><g class="slicetext"><text data-notex="1" class="slicetext" text-anchor="middle" x="0" y="0" style="font-family: 'Times New Roman'; font-size: 12px; fill: rgb(0, 0, 0); fill-opacity: 1; white-space: pre;" transform="translate(126.17972548971093,249.64503118173013)scale(0.7421881620500254)rotate(-86.16561656165618)"><tspan class="line" dy="0em" x="0" y="0">Vacation Homes</tspan><tspan class="line" dy="1.3em" x="0" y="0">6.72</tspan></text></g></g><g class="slice"><path class="surface" d="M240.01984778726566,378.62308657248354L225.85979704968753,418.16411542997804A168,168 0,0,0 315.925275278343,424.64127967361947L307.56895645875727,383.4809597552146A126,126 0,0,1 240.01984778726566,378.62308657248354Z" style="pointer-events: none; stroke-width: 1; fill: rgb(232, 242, 250); fill-opacity: 1; stroke: rgb(0, 0, 0); stroke-opacity: 1; opacity: 1;"/><g class="slicetext"><text data-notex="1" class="slicetext" text-anchor="middle" x="0" y="0" style="font-family: 'Times New Roman'; font-size: 12px; fill: rgb(0, 0, 0); fill-opacity: 1; white-space: pre;" transform="translate(272.28994969814204,401.97155245495)rotate(4.11341134113411)"><tspan class="line" dy="0em" x="0" y="0">Duplex</tspan><tspan class="line" dy="1.3em" x="0" y="0">8.66</tspan></text></g></g><g class="slice"><path class="surface" d="M450.5,260L492.5,260A210,210 0,0,0 441.40168675138943,122.7037730031764L409.62134940111156,150.16301840254113A168,168 0,0,1 450.5,260Z" style="pointer-events: none; stroke-width: 1; fill: rgb(221, 234, 247); fill-opacity: 1; stroke: rgb(0, 0, 0); stroke-opacity: 1; opacity: 1;"/><g class="slicetext"><text data-notex="1" class="slicetext" text-anchor="middle" x="0" y="0" style="font-family: 'Times New Roman'; font-size: 12px; fill: rgb(0, 0, 0); fill-opacity: 1; white-space: pre;" transform="translate(459.6493174840659,193.89428002004988)rotate(69.58595859585955)"><tspan class="line" dy="0em" x="0" y="0">Gated Communities</tspan><tspan class="line" dy="1.3em" x="0" y="0">11.34</tspan></text></g></g><g class="slice"><path class="surface" d="M409.62134940111156,150.16301840254113L441.40168675138943,122.7037730031764A210,210 0,0,0 376.757654699655,72.34208108763272L357.906123759724,109.87366487010618A168,168 0,0,1 409.62134940111156,150.16301840254113Z" style="pointer-events: none; stroke-width: 1; fill: rgb(242, 248, 254); fill-opacity: 1; stroke: rgb(0, 0, 0); stroke-opacity: 1; opacity: 1;"/><g class="slicetext"><text data-notex="1" class="slicetext" text-anchor="middle" x="0" y="0" style="font-family: 'Times New Roman'; font-size: 12px; fill: rgb(0, 0, 0); fill-opacity: 1; white-space: pre;" transform="translate(401.42468533431344,107.08187618052358)rotate(37.9207920792079)"><tspan class="line" dy="0em" x="0" y="0">Townhomes</tspan><tspan class="line" dy="1.3em" x="0" y="0">6.25</tspan></text></g></g><g class="slice"><path class="surface" d="M357.906123759724,109.87366487010618L376.757654699655,72.34208108763272A210,210 0,0,0 311.79822117822386,52.0538188958694L305.93857694257906,93.64305511669554A168,168 0,0,1 357.906123759724,109.87366487010618Z" style="pointer-events: none; stroke-width: 1; fill: rgb(247, 251, 255); fill-opacity: 1; stroke: rgb(0, 0, 0); stroke-opacity: 1; opacity: 1;"/><g class="slicetext"><text data-notex="1" class="slicetext" text-anchor="middle" x="0" y="0" style="font-family: 'Times New Roman'; font-size: 12px; fill: rgb(0, 0, 0); fill-opacity: 1; white-space: pre;" transform="translate(341.93709616968533,69.30635361112034)scale(0.702420652470519)rotate(17.344734473447375)"><tspan class="line" dy="0em" x="0" y="0">Detached Rentals</tspan><tspan class="line" dy="1.3em" x="0" y="0">5.18</tspan></text></g></g><g class="slice"><path class="surface" d="M305.93857694257906,93.64305511669554L311.79822117822386,52.0538188958694A210,210 0,0,0 218.69925854262647,59.926350087050736L231.45940683410117,99.94108006964058A168,168 0,0,1 305.93857694257906,93.64305511669554Z" style="pointer-events: none; stroke-width: 1; fill: rgb(239, 246, 252); fill-opacity: 1; stroke: rgb(0, 0, 0); stroke-opacity: 1; opacity: 1;"/><g class="slicetext"><text data-notex="1" class="slicetext" text-anchor="middle" x="0" y="0" style="font-family: 'Times New Roman'; font-size: 12px; fill: rgb(0, 0, 0); fill-opacity: 1; white-space: pre;" transform="translate(266.0510785187801,69.46528655330178)rotate(-4.83348334833488)"><tspan class="line" dy="0em" x="0" y="0">1-Bedroom</tspan><tspan class="line" dy="1.3em" x="0" y="0">7.14</tspan></text></g></g><g class="slice"><path class="surface" d="M231.45940683410117,99.94108006964058L218.69925854262647,59.926350087050736A210,210 0,0,0 153.33591008836905,94.4202975081181L179.16872807069524,127.53623800649447A168,168 0,0,1 231.45940683410117,99.94108006964058Z" style="pointer-events: none; stroke-width: 1; fill: rgb(245, 250, 254); fill-opacity: 1; stroke: rgb(0, 0, 0); stroke-opacity: 1; opacity: 1;"/><g class="slicetext"><text data-notex="1" class="slicetext" text-anchor="middle" x="0" y="0" style="font-family: 'Times New Roman'; font-size: 12px; fill: rgb(0, 0, 0); fill-opacity: 1; white-space: pre;" transform="translate(192.7733678914229,89.97500841095659)rotate(-27.82178217821786)"><tspan class="line" dy="0em" x="0" y="0">Studio</tspan><tspan class="line" dy="1.3em" x="0" y="0">5.63</tspan></text></g></g></g></g><g class="glimages"/><defs id="topdefs-b86058"><g class="clips"/></defs><g class="layer-above"><g class="imagelayer"/><g class="shapelayer"/></g><g class="infolayer"><g class="cbb62341 colorbar" transform="translate(10,50)"><rect class="cbbg" x="571.5" y="63" width="48.015625" height="295" style="fill: rgb(0, 0, 0); fill-opacity: 0; stroke: rgb(68, 68, 68); stroke-opacity: 1; stroke-width: 0;"/><g class="cbfills" transform="translate(0,93)"><rect class="cbfill gradient_filled" style="fill: url('#gb86058-cbb62341');" x="582" y="0" width="15" height="254"/></g><g class="cblines" transform="translate(0,93)"/><g class="cbaxis crisp" transform="translate(0,-50)"><g class="ycbb62341tick"><text text-anchor="start" x="600.4" y="4.199999999999999" transform="translate(0,371.01000000000005)" style="font-family: 'Times New Roman'; font-size: 12px; fill: rgb(42, 63, 95); fill-opacity: 1; white-space: pre; opacity: 1;">10</text></g><g class="ycbb62341tick"><text text-anchor="start" x="600.4" y="4.199999999999999" style="font-family: 'Times New Roman'; font-size: 12px; fill: rgb(42, 63, 95); fill-opacity: 1; white-space: pre; opacity: 1;" transform="translate(0,317.1)">20</text></g><g class="ycbb62341tick"><text text-anchor="start" x="600.4" y="4.199999999999999" style="font-family: 'Times New Roman'; font-size: 12px; fill: rgb(42, 63, 95); fill-opacity: 1; white-space: pre; opacity: 1;" transform="translate(0,263.18000000000006)">30</text></g><g class="ycbb62341tick"><text text-anchor="start" x="600.4" y="4.199999999999999" style="font-family: 'Times New Roman'; font-size: 12px; fill: rgb(42, 63, 95); fill-opacity: 1; white-space: pre; opacity: 1;" transform="translate(0,209.26000000000005)">40</text></g><g class="ycbb62341tick"><text text-anchor="start" x="600.4" y="4.199999999999999" style="font-family: 'Times New Roman'; font-size: 12px; fill: rgb(42, 63, 95); fill-opacity: 1; white-space: pre; opacity: 1;" transform="translate(0,155.35000000000005)">50</text></g></g><g class="cbtitleunshift" transform="translate(-10,-50)"><g class="cbtitle" transform="translate(-0.5,-0.5)"><text class="ycbb62341title" x="592.25" y="135.75" text-anchor="start" style="opacity: 1; font-family: 'Times New Roman'; font-size: 13px; fill: rgb(42, 63, 95); fill-opacity: 1; white-space: pre;">%</text></g></g><rect class="cboutline" x="582" y="93" width="15" height="254" style="stroke: rgb(68, 68, 68); stroke-opacity: 1; fill: none; stroke-width: 1;"/></g><g class="g-gtitle"><text class="gtitle" x="320" y="25" text-anchor="middle" dy="0em" style="opacity: 1; font-family: 'Times New Roman'; font-size: 16px; fill: rgb(42, 63, 95); fill-opacity: 1; white-space: pre;">Housing Market Distribution by Category (2023) (%)</text></g></g></svg>