<svg class="main-svg" xmlns="http://www.w3.org/2000/svg" xmlns:xlink="http://www.w3.org/1999/xlink" width="1920" height="1440" style="" viewBox="0 0 640 480"><rect x="0" y="0" width="640" height="480" style="fill: rgb(255, 255, 255); fill-opacity: 1;"/><defs id="defs-1c5456"><g class="clips"/><g class="gradients"><linearGradient x1="0" y1="1" x2="0" y2="0" gradientUnits="objectBoundingBox" id="g1c5456-cb3edad8"><stop offset="0%" stop-color="rgb(252, 251, 253)" stop-opacity="1"/><stop offset="12.5%" stop-color="rgb(239, 237, 245)" stop-opacity="1"/><stop offset="25%" stop-color="rgb(218, 218, 235)" stop-opacity="1"/><stop offset="37.5%" stop-color="rgb(188, 189, 220)" stop-opacity="1"/><stop offset="50%" stop-color="rgb(158, 154, 200)" stop-opacity="1"/><stop offset="62.5%" stop-color="rgb(128, 125, 186)" stop-opacity="1"/><stop offset="75%" stop-color="rgb(106, 81, 163)" stop-opacity="1"/><stop offset="87.5%" stop-color="rgb(84, 39, 143)" stop-opacity="1"/><stop offset="100%" stop-color="rgb(63, 0, 125)" stop-opacity="1"/></linearGradient></g><g class="patterns"/></defs><g class="bglayer"/><g class="layer-below"><g class="imagelayer"/><g class="shapelayer"/></g><g class="cartesianlayer"/><g class="polarlayer"/><g class="smithlayer"/><g class="ternarylayer"/><g class="geolayer"/><g class="funnelarealayer"/><g class="pielayer"/><g class="iciclelayer"/><g class="treemaplayer"/><g class="sunburstlayer"><g class="trace sunburst" stroke-linejoin="round" style="opacity: 1;"><g class="slice"><path class="surface" d="M282.5,260A0,0 0,1,0 282.5,260A0,0 0,1,0 282.5,260ZM324.5,260A42,42 0,1,1 240.5,260A42,42 0,1,1 324.5,260Z" style="pointer-events: none; stroke-width: 1; fill: rgb(255, 255, 255); fill-opacity: 1; stroke: rgb(0, 0, 0); stroke-opacity: 1;"/><g class="slicetext"><text data-notex="1" class="slicetext" text-anchor="middle" x="0" y="0" style="font-family: 'Times New Roman'; font-size: 12px; fill: rgb(0, 0, 0); fill-opacity: 1; white-space: pre;" transform="translate(282.5,264)">100.01</text></g></g><g class="slice cursor-pointer"><path class="surface" d="M324.5,260L366.5,260A84,84 0,0,0 224.43766075198013,199.29773677161737L253.46883037599008,229.6488683858087A42,42 0,0,1 324.5,260Z" style="pointer-events: none; stroke-width: 1; fill: rgb(63, 0, 125); fill-opacity: 1; stroke: rgb(0, 0, 0); stroke-opacity: 1;"/><g class="slicetext"><text data-notex="1" class="slicetext" text-anchor="middle" x="0" y="0" style="font-family: 'Times New Roman'; font-size: 12px; fill: rgb(0, 0, 0); fill-opacity: 1; white-space: pre;" transform="translate(305.47886094969084,205.49910627179082)scale(0.8458255959050346)rotate(23.136686331366832)"><tspan class="line" dy="0em" x="0" y="0">Customer Engagement</tspan><tspan class="line" dy="1.3em" x="0" y="0">37.15</tspan></text></g></g><g class="slice cursor-pointer"><path class="surface" d="M253.46883037599008,229.6488683858087L224.43766075198013,199.29773677161737A84,84 0,0,0 273.08655593284846,343.4708755842097L277.7932779664242,301.73543779210485A42,42 0,0,1 253.46883037599008,229.6488683858087Z" style="pointer-events: none; stroke-width: 1; fill: rgb(69, 11, 130); fill-opacity: 1; stroke: rgb(0, 0, 0); stroke-opacity: 1;"/><g class="slicetext"><text data-notex="1" class="slicetext" text-anchor="middle" x="0" y="0" style="font-family: 'Times New Roman'; font-size: 12px; fill: rgb(0, 0, 0); fill-opacity: 1; white-space: pre;" transform="translate(232.1562191086136,276.8349833888588)scale(0.8819568172286496)rotate(71.35386461353869)"><tspan class="line" dy="0em" x="0" y="0">Payment &amp; Logistics</tspan><tspan class="line" dy="1.3em" x="0" y="0">36.07</tspan></text></g></g><g class="slice cursor-pointer"><path class="surface" d="M277.7932779664242,301.73543779210485L273.08655593284846,343.4708755842097A84,84 0,0,0 366.5,260.0000000000001L324.5,260.00000000000006A42,42 0,0,1 277.7932779664242,301.73543779210485Z" style="pointer-events: none; stroke-width: 1; fill: rgb(120, 109, 177); fill-opacity: 1; stroke: rgb(0, 0, 0); stroke-opacity: 1;"/><g class="slicetext"><text data-notex="1" class="slicetext" text-anchor="middle" x="0" y="0" style="font-family: 'Times New Roman'; font-size: 12px; fill: rgb(0, 0, 0); fill-opacity: 1; white-space: pre;" transform="translate(318.36058753031983,300.3348702473476)scale(0.8235393601788819)rotate(-41.78282171782814)"><tspan class="line" dy="0em" x="0" y="0">Marketplace Platforms</tspan><tspan class="line" dy="1.3em" x="0" y="0">26.79</tspan></text></g></g><g class="slice cursor-pointer"><path class="surface" d="M366.5,260L408.5,260A126,126 0,0,0 320.018084516396,139.71536534444408L307.512056344264,179.8102435629627A84,84 0,0,1 366.5,260Z" style="pointer-events: none; stroke-width: 1; fill: rgb(167, 165, 206); fill-opacity: 1; stroke: rgb(0, 0, 0); stroke-opacity: 1;"/><g class="slicetext"><text data-notex="1" class="slicetext" text-anchor="middle" x="0" y="0" style="font-family: 'Times New Roman'; font-size: 12px; fill: rgb(0, 0, 0); fill-opacity: 1; white-space: pre;" transform="translate(365.73365726895406,198.56992220621655)scale(0.9968440890910436)rotate(53.661633836616375)"><tspan class="line" dy="0em" x="0" y="0">Marketing Strategies</tspan><tspan class="line" dy="1.3em" x="0" y="0">20.19</tspan></text></g></g><g class="slice"><path class="surface" d="M307.512056344264,179.8102435629627L320.018084516396,139.71536534444408A126,126 0,0,0 195.40649112797018,168.94660515742612L224.4376607519801,199.2977367716174A84,84 0,0,1 307.512056344264,179.8102435629627Z" style="pointer-events: none; stroke-width: 1; fill: rgb(192, 193, 222); fill-opacity: 1; stroke: rgb(0, 0, 0); stroke-opacity: 1; opacity: 1;"/><g class="slicetext"><text data-notex="1" class="slicetext" text-anchor="middle" x="0" y="0" style="font-family: 'Times New Roman'; font-size: 12px; fill: rgb(0, 0, 0); fill-opacity: 1; white-space: pre;" transform="translate(258.6575006749612,158.36038942364468)rotate(-13.201679832016794)"><tspan class="line" dy="0em" x="0" y="0">Customer Service</tspan><tspan class="line" dy="1.3em" x="0" y="0">16.96</tspan></text></g></g><g class="slice cursor-pointer"><path class="surface" d="M224.43766075198013,199.29773677161737L195.4064911279702,168.94660515742606A126,126 0,0,0 178.26138061038614,330.78354489390324L213.00758707359074,307.1890299292688A84,84 0,0,1 224.43766075198013,199.29773677161737Z" style="pointer-events: none; stroke-width: 1; fill: rgb(151, 147, 197); fill-opacity: 1; stroke: rgb(0, 0, 0); stroke-opacity: 1;"/><g class="slicetext"><text data-notex="1" class="slicetext" text-anchor="middle" x="0" y="0" style="font-family: 'Times New Roman'; font-size: 12px; fill: rgb(0, 0, 0); fill-opacity: 1; white-space: pre;" transform="translate(181.10643266832054,249.4092473823283)scale(0.9149425077473046)rotate(-83.95260473952601)"><tspan class="line" dy="0em" x="0" y="0">Digital Payment Systems</tspan><tspan class="line" dy="1.3em" x="0" y="0">22.35</tspan></text></g></g><g class="slice cursor-pointer"><path class="surface" d="M213.00758707359074,307.1890299292688L178.26138061038614,330.78354489390324A126,126 0,0,0 268.3798338992727,385.2063133763145L273.08655593284846,343.4708755842097A84,84 0,0,1 213.00758707359074,307.1890299292688Z" style="pointer-events: none; stroke-width: 1; fill: rgb(216, 216, 234); fill-opacity: 1; stroke: rgb(0, 0, 0); stroke-opacity: 1;"/><g class="slicetext"><text data-notex="1" class="slicetext" text-anchor="middle" x="0" y="0" style="font-family: 'Times New Roman'; font-size: 12px; fill: rgb(0, 0, 0); fill-opacity: 1; white-space: pre;" transform="translate(228.73656545362672,349.02666475674266)scale(0.7483670378461446)rotate(31.127887211278903)"><tspan class="line" dy="0em" x="0" y="0">Fulfillment &amp; Delivery</tspan><tspan class="line" dy="1.3em" x="0" y="0">13.72</tspan></text></g></g><g class="slice"><path class="surface" d="M273.08655593284846,343.4708755842097L268.3798338992727,385.2063133763145A126,126 0,0,0 408.5,260.00000000000017L366.5,260.0000000000001A84,84 0,0,1 273.08655593284846,343.4708755842097Z" style="pointer-events: none; stroke-width: 1; fill: rgb(120, 109, 177); fill-opacity: 1; stroke: rgb(0, 0, 0); stroke-opacity: 1; opacity: 1;"/><g class="slicetext"><text data-notex="1" class="slicetext" text-anchor="middle" x="0" y="0" style="font-family: 'Times New Roman'; font-size: 12px; fill: rgb(0, 0, 0); fill-opacity: 1; white-space: pre;" transform="translate(346.6838721420627,332.0753100719923)rotate(-41.78282171782814)"><tspan class="line" dy="0em" x="0" y="0">C2C Marketplaces</tspan><tspan class="line" dy="1.3em" x="0" y="0">26.79</tspan></text></g></g><g class="slice cursor-pointer"><path class="surface" d="M408.5,260L450.5,260A168,168 0,0,0 332.524112688528,99.62048712592542L320.018084516396,139.71536534444408A126,126 0,0,1 408.5,260Z" style="pointer-events: none; stroke-width: 1; fill: rgb(167, 165, 206); fill-opacity: 1; stroke: rgb(0, 0, 0); stroke-opacity: 1;"/><g class="slicetext"><text data-notex="1" class="slicetext" text-anchor="middle" x="0" y="0" style="font-family: 'Times New Roman'; font-size: 12px; fill: rgb(0, 0, 0); fill-opacity: 1; white-space: pre;" transform="translate(400.91346794329775,172.69085329318656)rotate(53.661633836616375)"><tspan class="line" dy="0em" x="0" y="0">Email Campaigns</tspan><tspan class="line" dy="1.3em" x="0" y="0">20.19</tspan></text></g></g><g class="slice"><path class="surface" d="M195.4064911279702,168.94660515742606L166.37532150396027,138.59547354323473A168,168 0,0,0 114.62134185523999,253.6159464667966L156.59100639143,255.21195985009746A126,126 0,0,1 195.4064911279702,168.94660515742606Z" style="pointer-events: none; stroke-width: 1; fill: rgb(225, 224, 238); fill-opacity: 1; stroke: rgb(0, 0, 0); stroke-opacity: 1; opacity: 1;"/><g class="slicetext"><text data-notex="1" class="slicetext" text-anchor="middle" x="0" y="0" style="font-family: 'Times New Roman'; font-size: 12px; fill: rgb(0, 0, 0); fill-opacity: 1; white-space: pre;" transform="translate(146.22697204131902,198.86324304144466)rotate(-65.77442255774417)"><tspan class="line" dy="0em" x="0" y="0">E-Wallets</tspan><tspan class="line" dy="1.3em" x="0" y="0">12.25</tspan></text></g></g><g class="slice"><path class="surface" d="M156.59100639143,255.21195985009746L114.62134185523999,253.6159464667966A168,168 0,0,0 143.5151741471815,354.37805985853765L178.26138061038614,330.78354489390324A126,126 0,0,1 156.59100639143,255.21195985009746Z" style="pointer-events: none; stroke-width: 1; fill: rgb(236, 234, 244); fill-opacity: 1; stroke: rgb(0, 0, 0); stroke-opacity: 1; opacity: 1;"/><g class="slicetext"><text data-notex="1" class="slicetext" text-anchor="middle" x="0" y="0" style="font-family: 'Times New Roman'; font-size: 12px; fill: rgb(0, 0, 0); fill-opacity: 1; white-space: pre;" transform="translate(142.76281827440127,299.61000062347966)scale(0.884449567477413)rotate(73.99960003999604)"><tspan class="line" dy="0em" x="0" y="0">Buy Now Pay Later</tspan><tspan class="line" dy="1.3em" x="0" y="0">10.1</tspan></text></g></g><g class="slice"><path class="surface" d="M178.26138061038614,330.78354489390324L143.5151741471815,354.37805985853765A168,168 0,0,0 206.16612385949549,409.6567384161706L225.2495928946216,372.24255381212794A126,126 0,0,1 178.26138061038614,330.78354489390324Z" style="pointer-events: none; stroke-width: 1; fill: rgb(244, 243, 248); fill-opacity: 1; stroke: rgb(0, 0, 0); stroke-opacity: 1; opacity: 1;"/><g class="slicetext"><text data-notex="1" class="slicetext" text-anchor="middle" x="0" y="0" style="font-family: 'Times New Roman'; font-size: 12px; fill: rgb(0, 0, 0); fill-opacity: 1; white-space: pre;" transform="translate(183.60669776008834,372.0822615008378)scale(0.7653609307837166)rotate(41.4228577142286)"><tspan class="line" dy="0em" x="0" y="0">Last-mile Delivery</tspan><tspan class="line" dy="1.3em" x="0" y="0">8</tspan></text></g></g><g class="slice"><path class="surface" d="M225.2495928946216,372.24255381212794L206.16612385949549,409.6567384161706A168,168 0,0,0 263.6731118656969,426.94175116841933L268.3798338992727,385.2063133763145A126,126 0,0,1 225.2495928946216,372.24255381212794Z" style="pointer-events: none; stroke-width: 1; fill: rgb(252, 251, 253); fill-opacity: 1; stroke: rgb(0, 0, 0); stroke-opacity: 1; opacity: 1;"/><g class="slicetext"><text data-notex="1" class="slicetext" text-anchor="middle" x="0" y="0" style="font-family: 'Times New Roman'; font-size: 12px; fill: rgb(0, 0, 0); fill-opacity: 1; white-space: pre;" transform="translate(239.05505234708863,404.5407139361811)scale(0.7882003811043137)rotate(16.729327067293298)"><tspan class="line" dy="0em" x="0" y="0">Warehousing</tspan><tspan class="line" dy="1.3em" x="0" y="0">5.72</tspan></text></g></g><g class="slice"><path class="surface" d="M450.5,260L492.5,260A210,210 0,0,0 463.86302406965706,154.13473893524377L427.5904192557257,175.307791148195A168,168 0,0,1 450.5,260Z" style="pointer-events: none; stroke-width: 1; fill: rgb(243, 241, 247); fill-opacity: 1; stroke: rgb(0, 0, 0); stroke-opacity: 1; opacity: 1;"/><g class="slicetext"><text data-notex="1" class="slicetext" text-anchor="middle" x="0" y="0" style="font-family: 'Times New Roman'; font-size: 12px; fill: rgb(0, 0, 0); fill-opacity: 1; white-space: pre;" transform="translate(467.3650100002299,209.65335854005653)rotate(74.86351364863515)"><tspan class="line" dy="0em" x="0" y="0">Abandoned Cart</tspan><tspan class="line" dy="1.3em" x="0" y="0">8.41</tspan></text></g></g><g class="slice"><path class="surface" d="M427.5904192557257,175.307791148195L463.86302406965706,154.13473893524377A210,210 0,0,0 410.3900486925542,93.4342909077138L384.8120389540434,126.74743272617104A168,168 0,0,1 427.5904192557257,175.307791148195Z" style="pointer-events: none; stroke-width: 1; fill: rgb(250, 249, 252); fill-opacity: 1; stroke: rgb(0, 0, 0); stroke-opacity: 1; opacity: 1;"/><g class="slicetext"><text data-notex="1" class="slicetext" text-anchor="middle" x="0" y="0" style="font-family: 'Times New Roman'; font-size: 12px; fill: rgb(0, 0, 0); fill-opacity: 1; white-space: pre;" transform="translate(430.5370255117271,129.39766287645588)scale(0.8371970221660285)rotate(48.6221377862214)"><tspan class="line" dy="0em" x="0" y="0">Loyalty Rewards</tspan><tspan class="line" dy="1.3em" x="0" y="0">6.17</tspan></text></g></g><g class="slice"><path class="surface" d="M384.8120389540434,126.74743272617104L410.3900486925542,93.4342909077138A210,210 0,0,0 345.03014086065997,59.52560890740676L332.524112688528,99.62048712592542A168,168 0,0,1 384.8120389540434,126.74743272617104Z" style="pointer-events: none; stroke-width: 1; fill: rgb(252, 251, 253); fill-opacity: 1; stroke: rgb(0, 0, 0); stroke-opacity: 1; opacity: 1;"/><g class="slicetext"><text data-notex="1" class="slicetext" text-anchor="middle" x="0" y="0" style="font-family: 'Times New Roman'; font-size: 12px; fill: rgb(0, 0, 0); fill-opacity: 1; white-space: pre;" transform="translate(372.13479558825725,86.85326635630078)rotate(27.420257974202514)"><tspan class="line" dy="0em" x="0" y="0">Promotions</tspan><tspan class="line" dy="1.3em" x="0" y="0">5.61</tspan></text></g></g></g></g><g class="glimages"/><defs id="topdefs-1c5456"><g class="clips"/></defs><g class="layer-above"><g class="imagelayer"/><g class="shapelayer"/></g><g class="infolayer"><g class="cb3edad8 colorbar" transform="translate(10,50)"><rect class="cbbg" x="571.5" y="63" width="48.015625" height="295" style="fill: rgb(0, 0, 0); fill-opacity: 0; stroke: rgb(68, 68, 68); stroke-opacity: 1; stroke-width: 0;"/><g class="cbfills" transform="translate(0,93)"><rect class="cbfill gradient_filled" style="fill: url('#g1c5456-cb3edad8');" x="582" y="0" width="15" height="254"/></g><g class="cblines" transform="translate(0,93)"/><g class="cbaxis crisp" transform="translate(0,-50)"><g class="ycb3edad8tick"><text text-anchor="start" x="600.4" y="4.199999999999999" transform="translate(0,361.6500000000001)" style="font-family: 'Times New Roman'; font-size: 12px; fill: rgb(42, 63, 95); fill-opacity: 1; white-space: pre; opacity: 1;">10</text></g><g class="ycb3edad8tick"><text text-anchor="start" x="600.4" y="4.199999999999999" style="font-family: 'Times New Roman'; font-size: 12px; fill: rgb(42, 63, 95); fill-opacity: 1; white-space: pre; opacity: 1;" transform="translate(0,321.38000000000005)">15</text></g><g class="ycb3edad8tick"><text text-anchor="start" x="600.4" y="4.199999999999999" style="font-family: 'Times New Roman'; font-size: 12px; fill: rgb(42, 63, 95); fill-opacity: 1; white-space: pre; opacity: 1;" transform="translate(0,281.11000000000007)">20</text></g><g class="ycb3edad8tick"><text text-anchor="start" x="600.4" y="4.199999999999999" style="font-family: 'Times New Roman'; font-size: 12px; fill: rgb(42, 63, 95); fill-opacity: 1; white-space: pre; opacity: 1;" transform="translate(0,240.85000000000005)">25</text></g><g class="ycb3edad8tick"><text text-anchor="start" x="600.4" y="4.199999999999999" style="font-family: 'Times New Roman'; font-size: 12px; fill: rgb(42, 63, 95); fill-opacity: 1; white-space: pre; opacity: 1;" transform="translate(0,200.58000000000004)">30</text></g><g class="ycb3edad8tick"><text text-anchor="start" x="600.4" y="4.199999999999999" style="font-family: 'Times New Roman'; font-size: 12px; fill: rgb(42, 63, 95); fill-opacity: 1; white-space: pre; opacity: 1;" transform="translate(0,160.31000000000006)">35</text></g></g><g class="cbtitleunshift" transform="translate(-10,-50)"><g class="cbtitle" transform="translate(-0.5,-0.5)"><text class="ycb3edad8title" x="592.25" y="135.75" text-anchor="start" style="opacity: 1; font-family: 'Times New Roman'; font-size: 13px; fill: rgb(42, 63, 95); fill-opacity: 1; white-space: pre;">%</text></g></g><rect class="cboutline" x="582" y="93" width="15" height="254" style="stroke: rgb(68, 68, 68); stroke-opacity: 1; fill: none; stroke-width: 1;"/></g><g class="g-gtitle"><text class="gtitle" x="320" y="25" text-anchor="middle" dy="0em" style="opacity: 1; font-family: 'Times New Roman'; font-size: 16px; fill: rgb(42, 63, 95); fill-opacity: 1; white-space: pre;">E-commerce Distribution by Category (2024) (%)</text></g></g></svg>