<svg class="main-svg" xmlns="http://www.w3.org/2000/svg" xmlns:xlink="http://www.w3.org/1999/xlink" width="1920" height="1440" style="" viewBox="0 0 640 480"><rect x="0" y="0" width="640" height="480" style="fill: rgb(255, 255, 255); fill-opacity: 1;"/><defs id="defs-1ba40b"><g class="clips"/><g class="gradients"><linearGradient x1="0" y1="1" x2="0" y2="0" gradientUnits="objectBoundingBox" id="g1ba40b-cbdc0001"><stop offset="0%" stop-color="rgb(255, 245, 240)" stop-opacity="1"/><stop offset="12.5%" stop-color="rgb(254, 224, 210)" stop-opacity="1"/><stop offset="25%" stop-color="rgb(252, 187, 161)" stop-opacity="1"/><stop offset="37.5%" stop-color="rgb(252, 146, 114)" stop-opacity="1"/><stop offset="50%" stop-color="rgb(251, 106, 74)" stop-opacity="1"/><stop offset="62.5%" stop-color="rgb(239, 59, 44)" stop-opacity="1"/><stop offset="75%" stop-color="rgb(203, 24, 29)" stop-opacity="1"/><stop offset="87.5%" stop-color="rgb(165, 15, 21)" stop-opacity="1"/><stop offset="100%" stop-color="rgb(103, 0, 13)" stop-opacity="1"/></linearGradient></g><g class="patterns"/></defs><g class="bglayer"/><g class="layer-below"><g class="imagelayer"/><g class="shapelayer"/></g><g class="cartesianlayer"/><g class="polarlayer"/><g class="smithlayer"/><g class="ternarylayer"/><g class="geolayer"/><g class="funnelarealayer"/><g class="pielayer"/><g class="iciclelayer"/><g class="treemaplayer"/><g class="sunburstlayer"><g class="trace sunburst" stroke-linejoin="round" style="opacity: 1;"><g class="slice"><path class="surface" d="M282.5,260A0,0 0,1,0 282.5,260A0,0 0,1,0 282.5,260ZM324.5,260A42,42 0,1,1 240.5,260A42,42 0,1,1 324.5,260Z" style="pointer-events: none; stroke-width: 1; fill: rgb(255, 255, 255); fill-opacity: 1; stroke: rgb(0, 0, 0); stroke-opacity: 1;"/><g class="slicetext"><text data-notex="1" class="slicetext" text-anchor="middle" x="0" y="0" style="font-family: 'Times New Roman'; font-size: 12px; fill: rgb(0, 0, 0); fill-opacity: 1; white-space: pre;" transform="translate(282.5,264)">100</text></g></g><g class="slice cursor-pointer"><path class="surface" d="M324.5,260L366.5,260A84,84 0,1,0 201.08676930849424,280.6854023014218L241.79338465424712,270.34270115071087A42,42 0,1,1 324.5,260Z" style="pointer-events: none; stroke-width: 1; fill: rgb(103, 0, 13); fill-opacity: 1; stroke: rgb(0, 0, 0); stroke-opacity: 1;"/><g class="slicetext"><text data-notex="1" class="slicetext" text-anchor="middle" x="0" y="0" style="font-family: 'Times New Roman'; font-size: 12px; fill: rgb(0, 0, 0); fill-opacity: 1; white-space: pre;" transform="translate(275.0197293131082,201.30330199683678)scale(0.8472164016420091)rotate(-7.128000000000043)"><tspan class="line" dy="0em" x="0" y="0">Marketplace Platforms</tspan><tspan class="line" dy="1.3em" x="0" y="0">53.96</tspan></text></g></g><g class="slice cursor-pointer"><path class="surface" d="M241.79338465424712,270.34270115071087L201.08676930849424,280.6854023014218A84,84 0,0,0 293.60372396300556,343.262880770205L288.0518619815028,301.6314403851025A42,42 0,0,1 241.79338465424712,270.34270115071087Z" style="pointer-events: none; stroke-width: 1; fill: rgb(252, 147, 116); fill-opacity: 1; stroke: rgb(0, 0, 0); stroke-opacity: 1;"/><g class="slicetext"><text data-notex="1" class="slicetext" text-anchor="middle" x="0" y="0" style="font-family: 'Times New Roman'; font-size: 12px; fill: rgb(0, 0, 0); fill-opacity: 1; white-space: pre;" transform="translate(249.6145712799335,308.17765773177376)scale(0.7361940850776681)rotate(34.073999999999955)"><tspan class="line" dy="0em" x="0" y="0">Customer Engagement</tspan><tspan class="line" dy="1.3em" x="0" y="0">23.15</tspan></text></g></g><g class="slice cursor-pointer"><path class="surface" d="M288.0518619815028,301.6314403851025L293.60372396300556,343.262880770205A84,84 0,0,0 366.5,260L324.5,260A42,42 0,0,1 288.0518619815028,301.6314403851025Z" style="pointer-events: none; stroke-width: 1; fill: rgb(252, 149, 118); fill-opacity: 1; stroke: rgb(0, 0, 0); stroke-opacity: 1;"/><g class="slicetext"><text data-notex="1" class="slicetext" text-anchor="middle" x="0" y="0" style="font-family: 'Times New Roman'; font-size: 12px; fill: rgb(0, 0, 0); fill-opacity: 1; white-space: pre;" transform="translate(326.17829420450056,298.40933808764856)scale(0.7759011468208428)rotate(-48.798)"><tspan class="line" dy="0em" x="0" y="0">Payment &amp; Logistics</tspan><tspan class="line" dy="1.3em" x="0" y="0">22.89</tspan></text></g></g><g class="slice cursor-pointer"><path class="surface" d="M366.5,260L408.5,260A126,126 0,0,0 232.09632870810464,144.52069483973088L248.89755247206975,183.01379655982058A84,84 0,0,1 366.5,260Z" style="pointer-events: none; stroke-width: 1; fill: rgb(247, 90, 64); fill-opacity: 1; stroke: rgb(0, 0, 0); stroke-opacity: 1;"/><g class="slicetext"><text data-notex="1" class="slicetext" text-anchor="middle" x="0" y="0" style="font-family: 'Times New Roman'; font-size: 12px; fill: rgb(0, 0, 0); fill-opacity: 1; white-space: pre;" transform="translate(339.3904833558193,172.79579371830445)rotate(33.210000000000036)"><tspan class="line" dy="0em" x="0" y="0">C2C Marketplaces</tspan><tspan class="line" dy="1.3em" x="0" y="0">31.55</tspan></text></g></g><g class="slice cursor-pointer"><path class="surface" d="M248.89755247206975,183.01379655982058L232.09632870810464,144.52069483973088A126,126 0,0,0 160.38015396274136,291.02810345213265L201.08676930849424,280.6854023014218A84,84 0,0,1 248.89755247206975,183.01379655982058Z" style="pointer-events: none; stroke-width: 1; fill: rgb(252, 152, 121); fill-opacity: 1; stroke: rgb(0, 0, 0); stroke-opacity: 1;"/><g class="slicetext"><text data-notex="1" class="slicetext" text-anchor="middle" x="0" y="0" style="font-family: 'Times New Roman'; font-size: 12px; fill: rgb(0, 0, 0); fill-opacity: 1; white-space: pre;" transform="translate(187.84677448016927,213.849394347776)rotate(-63.918000000000006)"><tspan class="line" dy="0em" x="0" y="0">B2C Platforms</tspan><tspan class="line" dy="1.3em" x="0" y="0">22.41</tspan></text></g></g><g class="slice"><path class="surface" d="M201.08676930849424,280.6854023014218L160.38015396274136,291.02810345213265A126,126 0,0,0 299.1555859445083,384.8943211553075L293.60372396300556,343.262880770205A84,84 0,0,1 201.08676930849424,280.6854023014218Z" style="pointer-events: none; stroke-width: 1; fill: rgb(252, 147, 116); fill-opacity: 1; stroke: rgb(0, 0, 0); stroke-opacity: 1; opacity: 1;"/><g class="slicetext"><text data-notex="1" class="slicetext" text-anchor="middle" x="0" y="0" style="font-family: 'Times New Roman'; font-size: 12px; fill: rgb(0, 0, 0); fill-opacity: 1; white-space: pre;" transform="translate(228.27254129073927,340.171963799033)rotate(34.073999999999955)"><tspan class="line" dy="0em" x="0" y="0">Customer Service</tspan><tspan class="line" dy="1.3em" x="0" y="0">23.15</tspan></text></g></g><g class="slice cursor-pointer"><path class="surface" d="M293.60372396300556,343.262880770205L299.1555859445083,384.8943211553075A126,126 0,0,0 402.33312105318936,298.9361412912434L362.3887473687929,285.9574275274956A84,84 0,0,1 293.60372396300556,343.262880770205Z" style="pointer-events: none; stroke-width: 1; fill: rgb(252, 183, 156); fill-opacity: 1; stroke: rgb(0, 0, 0); stroke-opacity: 1;"/><g class="slicetext"><text data-notex="1" class="slicetext" text-anchor="middle" x="0" y="0" style="font-family: 'Times New Roman'; font-size: 12px; fill: rgb(0, 0, 0); fill-opacity: 1; white-space: pre;" transform="translate(344.8350168614998,335.04264618694486)scale(0.8603671161131856)rotate(-39.798)"><tspan class="line" dy="0em" x="0" y="0">Digital Payment Systems</tspan><tspan class="line" dy="1.3em" x="0" y="0">17.89</tspan></text></g></g><g class="slice"><path class="surface" d="M362.3887473687929,285.9574275274956L402.33312105318936,298.9361412912434A126,126 0,0,0 408.5,260.00000000000006L366.5,260A84,84 0,0,1 362.3887473687929,285.9574275274956Z" style="pointer-events: none; stroke-width: 1; fill: rgb(255, 245, 240); fill-opacity: 1; stroke: rgb(0, 0, 0); stroke-opacity: 1; opacity: 1;"/><g class="slicetext"><text data-notex="1" class="slicetext" text-anchor="middle" x="0" y="0" style="font-family: 'Times New Roman'; font-size: 12px; fill: rgb(0, 0, 0); fill-opacity: 1; white-space: pre;" transform="translate(386.3597293949345,275.069955533841)scale(0.35819547152239406)rotate(9)"><tspan class="line" dy="0em" x="0" y="0">Fulfillment &amp; Delivery</tspan><tspan class="line" dy="1.3em" x="0" y="0">5</tspan></text></g></g><g class="slice cursor-pointer"><path class="surface" d="M408.5,260L450.5,260A168,168 0,0,0 307.5291598610633,93.8749231553245L301.27186989579747,135.40619236649337A126,126 0,0,1 408.5,260Z" style="pointer-events: none; stroke-width: 1; fill: rgb(252, 151, 120); fill-opacity: 1; stroke: rgb(0, 0, 0); stroke-opacity: 1;"/><g class="slicetext"><text data-notex="1" class="slicetext" text-anchor="middle" x="0" y="0" style="font-family: 'Times New Roman'; font-size: 12px; fill: rgb(0, 0, 0); fill-opacity: 1; white-space: pre;" transform="translate(393.87305516723706,163.9334809475978)rotate(49.28399999999999)"><tspan class="line" dy="0em" x="0" y="0">Handmade Goods</tspan><tspan class="line" dy="1.3em" x="0" y="0">22.62</tspan></text></g></g><g class="slice"><path class="surface" d="M301.27186989579747,135.40619236649337L307.5291598610633,93.8749231553245A168,168 0,0,0 215.2951049441395,106.02759311964115L232.09632870810464,144.52069483973088A126,126 0,0,1 301.27186989579747,135.40619236649337Z" style="pointer-events: none; stroke-width: 1; fill: rgb(254, 232, 221); fill-opacity: 1; stroke: rgb(0, 0, 0); stroke-opacity: 1; opacity: 1;"/><g class="slicetext"><text data-notex="1" class="slicetext" text-anchor="middle" x="0" y="0" style="font-family: 'Times New Roman'; font-size: 12px; fill: rgb(0, 0, 0); fill-opacity: 1; white-space: pre;" transform="translate(262.80035836420353,111.80309409534384)rotate(-7.505999999999972)"><tspan class="line" dy="0em" x="0" y="0">Used Goods</tspan><tspan class="line" dy="1.3em" x="0" y="0">8.93</tspan></text></g></g><g class="slice"><path class="surface" d="M232.09632870810464,144.52069483973088L215.2951049441395,106.02759311964115A168,168 0,0,0 129.47124726236348,190.6732314645829L167.7284354467726,208.0049235984372A126,126 0,0,1 232.09632870810464,144.52069483973088Z" style="pointer-events: none; stroke-width: 1; fill: rgb(254, 221, 206); fill-opacity: 1; stroke: rgb(0, 0, 0); stroke-opacity: 1; opacity: 1;"/><g class="slicetext"><text data-notex="1" class="slicetext" text-anchor="middle" x="0" y="0" style="font-family: 'Times New Roman'; font-size: 12px; fill: rgb(0, 0, 0); fill-opacity: 1; white-space: pre;" transform="translate(178.69961610714722,154.99953904903555)rotate(-44.60400000000004)"><tspan class="line" dy="0em" x="0" y="0">Fashion Retailers</tspan><tspan class="line" dy="1.3em" x="0" y="0">11.68</tspan></text></g></g><g class="slice"><path class="surface" d="M167.7284354467726,208.0049235984372L129.47124726236348,190.6732314645829A168,168 0,0,0 119.67353861698851,301.3708046028436L160.38015396274136,291.0281034521327A126,126 0,0,1 167.7284354467726,208.0049235984372Z" style="pointer-events: none; stroke-width: 1; fill: rgb(254, 225, 212); fill-opacity: 1; stroke: rgb(0, 0, 0); stroke-opacity: 1; opacity: 1;"/><g class="slicetext"><text data-notex="1" class="slicetext" text-anchor="middle" x="0" y="0" style="font-family: 'Times New Roman'; font-size: 12px; fill: rgb(0, 0, 0); fill-opacity: 1; white-space: pre;" transform="translate(132.00694715565655,246.82891575934974)scale(0.9038907681800905)rotate(-84.94200000000001)"><tspan class="line" dy="0em" x="0" y="0">Electronics Retailers</tspan><tspan class="line" dy="1.3em" x="0" y="0">10.73</tspan></text></g></g><g class="slice cursor-pointer"><path class="surface" d="M299.1555859445083,384.8943211553075L304.70744792601107,426.52576154041003A168,168 0,0,0 442.2774947375858,311.9148550549912L402.33312105318936,298.9361412912434A126,126 0,0,1 299.1555859445083,384.8943211553075Z" style="pointer-events: none; stroke-width: 1; fill: rgb(252, 183, 156); fill-opacity: 1; stroke: rgb(0, 0, 0); stroke-opacity: 1;"/><g class="slicetext"><text data-notex="1" class="slicetext" text-anchor="middle" x="0" y="0" style="font-family: 'Times New Roman'; font-size: 12px; fill: rgb(0, 0, 0); fill-opacity: 1; white-space: pre;" transform="translate(371.01762987027075,367.0308493120999)rotate(-39.798)"><tspan class="line" dy="0em" x="0" y="0">Buy Now Pay Later</tspan><tspan class="line" dy="1.3em" x="0" y="0">17.89</tspan></text></g></g><g class="slice"><path class="surface" d="M450.5,260L492.5,260A210,210 0,0,0 460.16149219024686,148.0339596451904L424.62919375219747,170.42716771615233A168,168 0,0,1 450.5,260Z" style="pointer-events: none; stroke-width: 1; fill: rgb(254, 231, 221); fill-opacity: 1; stroke: rgb(0, 0, 0); stroke-opacity: 1; opacity: 1;"/><g class="slicetext"><text data-notex="1" class="slicetext" text-anchor="middle" x="0" y="0" style="font-family: 'Times New Roman'; font-size: 12px; fill: rgb(0, 0, 0); fill-opacity: 1; white-space: pre;" transform="translate(465.5077978754561,206.9721412913432)rotate(73.88999999999999)"><tspan class="line" dy="0em" x="0" y="0">Craft Supplies</tspan><tspan class="line" dy="1.3em" x="0" y="0">8.95</tspan></text></g></g><g class="slice"><path class="surface" d="M424.62919375219747,170.42716771615233L460.16149219024686,148.0339596451904A210,210 0,0,0 392.11217371975243,80.8766587727026L370.1897389758019,116.70132701816209A168,168 0,0,1 424.62919375219747,170.42716771615233Z" style="pointer-events: none; stroke-width: 1; fill: rgb(255, 237, 229); fill-opacity: 1; stroke: rgb(0, 0, 0); stroke-opacity: 1; opacity: 1;"/><g class="slicetext"><text data-notex="1" class="slicetext" text-anchor="middle" x="0" y="0" style="font-family: 'Times New Roman'; font-size: 12px; fill: rgb(0, 0, 0); fill-opacity: 1; white-space: pre;" transform="translate(419.85460241393866,120.61335743130799)scale(0.8889421109921679)rotate(44.62199999999996)"><tspan class="line" dy="0em" x="0" y="0">Upcycled Products</tspan><tspan class="line" dy="1.3em" x="0" y="0">7.31</tspan></text></g></g><g class="slice"><path class="surface" d="M370.1897389758019,116.70132701816209L392.11217371975243,80.8766587727026A210,210 0,0,0 313.7864498263291,52.34365394415562L307.5291598610633,93.8749231553245A168,168 0,0,1 370.1897389758019,116.70132701816209Z" style="pointer-events: none; stroke-width: 1; fill: rgb(255, 240, 233); fill-opacity: 1; stroke: rgb(0, 0, 0); stroke-opacity: 1; opacity: 1;"/><g class="slicetext"><text data-notex="1" class="slicetext" text-anchor="middle" x="0" y="0" style="font-family: 'Times New Roman'; font-size: 12px; fill: rgb(0, 0, 0); fill-opacity: 1; white-space: pre;" transform="translate(348.96213391434895,77.05318284914922)rotate(20.015999999999963)"><tspan class="line" dy="0em" x="0" y="0">Custom Gifts</tspan><tspan class="line" dy="1.3em" x="0" y="0">6.36</tspan></text></g></g><g class="slice"><path class="surface" d="M304.70744792601107,426.52576154041003L310.25930990751385,468.1572019255126A210,210 0,0,0 437.822529945508,401.3326278370525L406.75802395640636,373.066102269642A168,168 0,0,1 304.70744792601107,426.52576154041003Z" style="pointer-events: none; stroke-width: 1; fill: rgb(254, 224, 210); fill-opacity: 1; stroke: rgb(0, 0, 0); stroke-opacity: 1; opacity: 1;"/><g class="slicetext"><text data-notex="1" class="slicetext" text-anchor="middle" x="0" y="0" style="font-family: 'Times New Roman'; font-size: 12px; fill: rgb(0, 0, 0); fill-opacity: 1; white-space: pre;" transform="translate(366.9111428976008,421.4882462621198)rotate(-27.648000000000025)"><tspan class="line" dy="0em" x="0" y="0">Installment Apps</tspan><tspan class="line" dy="1.3em" x="0" y="0">11.14</tspan></text></g></g><g class="slice"><path class="surface" d="M406.75802395640636,373.066102269642L437.822529945508,401.3326278370525A210,210 0,0,0 482.2218684219822,324.893568818739L442.2774947375858,311.9148550549912A168,168 0,0,1 406.75802395640636,373.066102269642Z" style="pointer-events: none; stroke-width: 1; fill: rgb(255, 239, 231); fill-opacity: 1; stroke: rgb(0, 0, 0); stroke-opacity: 1; opacity: 1;"/><g class="slicetext"><text data-notex="1" class="slicetext" text-anchor="middle" x="0" y="0" style="font-family: 'Times New Roman'; font-size: 12px; fill: rgb(0, 0, 0); fill-opacity: 1; white-space: pre;" transform="translate(444.1806126445929,353.9115726708666)rotate(-59.85000000000002)"><tspan class="line" dy="0em" x="0" y="0">Credit Scoring</tspan><tspan class="line" dy="1.3em" x="0" y="0">6.75</tspan></text></g></g></g></g><g class="glimages"/><defs id="topdefs-1ba40b"><g class="clips"/></defs><g class="layer-above"><g class="imagelayer"/><g class="shapelayer"/></g><g class="infolayer"><g class="cbdc0001 colorbar" transform="translate(10,50)"><rect class="cbbg" x="571.5" y="63" width="48.015625" height="295" style="fill: rgb(0, 0, 0); fill-opacity: 0; stroke: rgb(68, 68, 68); stroke-opacity: 1; stroke-width: 0;"/><g class="cbfills" transform="translate(0,93)"><rect class="cbfill gradient_filled" style="fill: url('#g1ba40b-cbdc0001');" x="582" y="0" width="15" height="254"/></g><g class="cblines" transform="translate(0,93)"/><g class="cbaxis crisp" transform="translate(0,-50)"><g class="ycbdc0001tick"><text text-anchor="start" x="600.4" y="4.199999999999999" transform="translate(0,371.06000000000006)" style="font-family: 'Times New Roman'; font-size: 12px; fill: rgb(42, 63, 95); fill-opacity: 1; white-space: pre; opacity: 1;">10</text></g><g class="ycbdc0001tick"><text text-anchor="start" x="600.4" y="4.199999999999999" style="font-family: 'Times New Roman'; font-size: 12px; fill: rgb(42, 63, 95); fill-opacity: 1; white-space: pre; opacity: 1;" transform="translate(0,319.18000000000006)">20</text></g><g class="ycbdc0001tick"><text text-anchor="start" x="600.4" y="4.199999999999999" style="font-family: 'Times New Roman'; font-size: 12px; fill: rgb(42, 63, 95); fill-opacity: 1; white-space: pre; opacity: 1;" transform="translate(0,267.30000000000007)">30</text></g><g class="ycbdc0001tick"><text text-anchor="start" x="600.4" y="4.199999999999999" style="font-family: 'Times New Roman'; font-size: 12px; fill: rgb(42, 63, 95); fill-opacity: 1; white-space: pre; opacity: 1;" transform="translate(0,215.42000000000007)">40</text></g><g class="ycbdc0001tick"><text text-anchor="start" x="600.4" y="4.199999999999999" style="font-family: 'Times New Roman'; font-size: 12px; fill: rgb(42, 63, 95); fill-opacity: 1; white-space: pre; opacity: 1;" transform="translate(0,163.54000000000005)">50</text></g></g><g class="cbtitleunshift" transform="translate(-10,-50)"><g class="cbtitle" transform="translate(-0.5,-0.5)"><text class="ycbdc0001title" x="592.25" y="135.75" text-anchor="start" style="opacity: 1; font-family: 'Times New Roman'; font-size: 13px; fill: rgb(42, 63, 95); fill-opacity: 1; white-space: pre;">%</text></g></g><rect class="cboutline" x="582" y="93" width="15" height="254" style="stroke: rgb(68, 68, 68); stroke-opacity: 1; fill: none; stroke-width: 1;"/></g><g class="g-gtitle"><text class="gtitle" x="320" y="25" text-anchor="middle" dy="0em" style="opacity: 1; font-family: 'Times New Roman'; font-size: 16px; fill: rgb(42, 63, 95); fill-opacity: 1; white-space: pre;">E-commerce Distribution by Category (2024) (%)</text></g></g></svg>