<svg class="main-svg" xmlns="http://www.w3.org/2000/svg" xmlns:xlink="http://www.w3.org/1999/xlink" width="1920" height="1440" style="" viewBox="0 0 640 480"><rect x="0" y="0" width="640" height="480" style="fill: rgb(255, 255, 255); fill-opacity: 1;"/><defs id="defs-21d3cc"><g class="clips"/><g class="gradients"><linearGradient x1="0" y1="1" x2="0" y2="0" gradientUnits="objectBoundingBox" id="g21d3cc-cb053b19"><stop offset="0%" stop-color="rgb(247, 252, 245)" stop-opacity="1"/><stop offset="12.5%" stop-color="rgb(229, 245, 224)" stop-opacity="1"/><stop offset="25%" stop-color="rgb(199, 233, 192)" stop-opacity="1"/><stop offset="37.5%" stop-color="rgb(161, 217, 155)" stop-opacity="1"/><stop offset="50%" stop-color="rgb(116, 196, 118)" stop-opacity="1"/><stop offset="62.5%" stop-color="rgb(65, 171, 93)" stop-opacity="1"/><stop offset="75%" stop-color="rgb(35, 139, 69)" stop-opacity="1"/><stop offset="87.5%" stop-color="rgb(0, 109, 44)" stop-opacity="1"/><stop offset="100%" stop-color="rgb(0, 68, 27)" stop-opacity="1"/></linearGradient></g><g class="patterns"/></defs><g class="bglayer"/><g class="layer-below"><g class="imagelayer"/><g class="shapelayer"/></g><g class="cartesianlayer"/><g class="polarlayer"/><g class="smithlayer"/><g class="ternarylayer"/><g class="geolayer"/><g class="funnelarealayer"/><g class="pielayer"/><g class="iciclelayer"/><g class="treemaplayer"/><g class="sunburstlayer"><g class="trace sunburst" stroke-linejoin="round" style="opacity: 1;"><g class="slice"><path class="surface" d="M282.5,260A0,0 0,1,0 282.5,260A0,0 0,1,0 282.5,260ZM324.5,260A42,42 0,1,1 240.5,260A42,42 0,1,1 324.5,260Z" style="pointer-events: none; stroke-width: 1; fill: rgb(255, 255, 255); fill-opacity: 1; stroke: rgb(0, 0, 0); stroke-opacity: 1;"/><g class="slicetext"><text data-notex="1" class="slicetext" text-anchor="middle" x="0" y="0" style="font-family: 'Times New Roman'; font-size: 12px; fill: rgb(0, 0, 0); fill-opacity: 1; white-space: pre;" transform="translate(282.5,264)">100</text></g></g><g class="slice cursor-pointer"><path class="surface" d="M324.5,260L366.5,260A84,84 0,1,0 198.50014922837437,260.158336175978L240.50007461418718,260.079168087989A42,42 0,1,1 324.5,260Z" style="pointer-events: none; stroke-width: 1; fill: rgb(0, 68, 27); fill-opacity: 1; stroke: rgb(0, 0, 0); stroke-opacity: 1;"/><g class="slicetext"><text data-notex="1" class="slicetext" text-anchor="middle" x="0" y="0" style="font-family: 'Times New Roman'; font-size: 12px; fill: rgb(0, 0, 0); fill-opacity: 1; white-space: pre;" transform="translate(282.2860022351173,198.90751154332236)scale(0.9534132692482971)rotate(-0.053999999999973625)"><tspan class="line" dy="0em" x="0" y="0">Physical Sciences</tspan><tspan class="line" dy="1.3em" x="0" y="0">50.03</tspan></text></g></g><g class="slice cursor-pointer"><path class="surface" d="M240.50007461418718,260.079168087989L198.50014922837437,260.158336175978A84,84 0,0,0 294.4401985454356,343.1470484063961L288.4700992727178,301.5735242031981A42,42 0,0,1 240.50007461418718,260.079168087989Z" style="pointer-events: none; stroke-width: 1; fill: rgb(118, 197, 120); fill-opacity: 1; stroke: rgb(0, 0, 0); stroke-opacity: 1;"/><g class="slicetext"><text data-notex="1" class="slicetext" text-anchor="middle" x="0" y="0" style="font-family: 'Times New Roman'; font-size: 12px; fill: rgb(0, 0, 0); fill-opacity: 1; white-space: pre;" transform="translate(246.25397264906766,301.63991394530063)rotate(40.860000000000014)"><tspan class="line" dy="0em" x="0" y="0">Life Sciences</tspan><tspan class="line" dy="1.3em" x="0" y="0">27.24</tspan></text></g></g><g class="slice cursor-pointer"><path class="surface" d="M288.4700992727178,301.5735242031981L294.4401985454356,343.1470484063961A84,84 0,0,0 366.5,260L324.5,260A42,42 0,0,1 288.4700992727178,301.5735242031981Z" style="pointer-events: none; stroke-width: 1; fill: rgb(154, 214, 150); fill-opacity: 1; stroke: rgb(0, 0, 0); stroke-opacity: 1;"/><g class="slicetext"><text data-notex="1" class="slicetext" text-anchor="middle" x="0" y="0" style="font-family: 'Times New Roman'; font-size: 12px; fill: rgb(0, 0, 0); fill-opacity: 1; white-space: pre;" transform="translate(325.58688763672535,297.53373590493015)scale(0.8856267236772137)rotate(-49.08600000000001)"><tspan class="line" dy="0em" x="0" y="0">Applied Sciences</tspan><tspan class="line" dy="1.3em" x="0" y="0">22.73</tspan></text></g></g><g class="slice cursor-pointer"><path class="surface" d="M366.5,260L408.5,260A126,126 0,0,0 168.15696250781926,207.06919822011244L206.2713083385462,224.71279881340828A84,84 0,0,1 366.5,260Z" style="pointer-events: none; stroke-width: 1; fill: rgb(8, 116, 50); fill-opacity: 1; stroke: rgb(0, 0, 0); stroke-opacity: 1;"/><g class="slicetext"><text data-notex="1" class="slicetext" text-anchor="middle" x="0" y="0" style="font-family: 'Times New Roman'; font-size: 12px; fill: rgb(0, 0, 0); fill-opacity: 1; white-space: pre;" transform="translate(305.48166357552907,154.88428596723716)rotate(12.419999999999959)"><tspan class="line" dy="0em" x="0" y="0">Physics</tspan><tspan class="line" dy="1.3em" x="0" y="0">43.1</tspan></text></g></g><g class="slice"><path class="surface" d="M206.2713083385462,224.71279881340828L168.15696250781926,207.06919822011244A126,126 0,0,0 156.50022384256152,260.23750426396697L198.50014922837437,260.158336175978A84,84 0,0,1 206.2713083385462,224.71279881340828Z" style="pointer-events: none; stroke-width: 1; fill: rgb(241, 250, 238); fill-opacity: 1; stroke: rgb(0, 0, 0); stroke-opacity: 1; opacity: 1;"/><g class="slicetext"><text data-notex="1" class="slicetext" text-anchor="middle" x="0" y="0" style="font-family: 'Times New Roman'; font-size: 12px; fill: rgb(0, 0, 0); fill-opacity: 1; white-space: pre;" transform="translate(170.75881088029328,235.50161107936756)scale(0.8288539171194269)rotate(-77.63400000000001)"><tspan class="line" dy="0em" x="0" y="0">Chemistry</tspan><tspan class="line" dy="1.3em" x="0" y="0">6.93</tspan></text></g></g><g class="slice cursor-pointer"><path class="surface" d="M198.50014922837437,260.158336175978L156.50022384256152,260.23750426396697A126,126 0,0,0 300.41029781815337,384.72057260959417L294.4401985454356,343.1470484063961A84,84 0,0,1 198.50014922837437,260.158336175978Z" style="pointer-events: none; stroke-width: 1; fill: rgb(118, 197, 120); fill-opacity: 1; stroke: rgb(0, 0, 0); stroke-opacity: 1;"/><g class="slicetext"><text data-notex="1" class="slicetext" text-anchor="middle" x="0" y="0" style="font-family: 'Times New Roman'; font-size: 12px; fill: rgb(0, 0, 0); fill-opacity: 1; white-space: pre;" transform="translate(218.71114799962464,334.50810856210285)rotate(40.860000000000014)"><tspan class="line" dy="0em" x="0" y="0">Neuroscience</tspan><tspan class="line" dy="1.3em" x="0" y="0">27.24</tspan></text></g></g><g class="slice cursor-pointer"><path class="surface" d="M294.4401985454356,343.1470484063961L300.41029781815337,384.72057260959417A126,126 0,0,0 395.1949258258744,316.35471314007964L357.6299505505829,297.5698087600531A84,84 0,0,1 294.4401985454356,343.1470484063961Z" style="pointer-events: none; stroke-width: 1; fill: rgb(204, 235, 197); fill-opacity: 1; stroke: rgb(0, 0, 0); stroke-opacity: 1;"/><g class="slicetext"><text data-notex="1" class="slicetext" text-anchor="middle" x="0" y="0" style="font-family: 'Times New Roman'; font-size: 12px; fill: rgb(0, 0, 0); fill-opacity: 1; white-space: pre;" transform="translate(340.2921963518565,340.12496113506097)scale(0.9839413922767404)rotate(-35.80200000000002)"><tspan class="line" dy="0em" x="0" y="0">Computer Science</tspan><tspan class="line" dy="1.3em" x="0" y="0">15.35</tspan></text></g></g><g class="slice"><path class="surface" d="M357.6299505505829,297.5698087600531L395.1949258258744,316.35471314007964A126,126 0,0,0 408.5,260.00000000000006L366.5,260A84,84 0,0,1 357.6299505505829,297.5698087600531Z" style="pointer-events: none; stroke-width: 1; fill: rgb(239, 249, 236); fill-opacity: 1; stroke: rgb(0, 0, 0); stroke-opacity: 1; opacity: 1;"/><g class="slicetext"><text data-notex="1" class="slicetext" text-anchor="middle" x="0" y="0" style="font-family: 'Times New Roman'; font-size: 12px; fill: rgb(0, 0, 0); fill-opacity: 1; white-space: pre;" transform="translate(388.5511495911688,285.0381615474549)scale(0.7663926877242223)rotate(-76.71600000000001)"><tspan class="line" dy="0em" x="0" y="0">Engineering</tspan><tspan class="line" dy="1.3em" x="0" y="0">7.38</tspan></text></g></g><g class="slice cursor-pointer"><path class="surface" d="M408.5,260L450.5,260A168,168 0,0,0 224.10482338886578,102.47538811806442L238.70361754164932,141.8565410885483A126,126 0,0,1 408.5,260Z" style="pointer-events: none; stroke-width: 1; fill: rgb(88, 182, 104); fill-opacity: 1; stroke: rgb(0, 0, 0); stroke-opacity: 1;"/><g class="slicetext"><text data-notex="1" class="slicetext" text-anchor="middle" x="0" y="0" style="font-family: 'Times New Roman'; font-size: 12px; fill: rgb(0, 0, 0); fill-opacity: 1; white-space: pre;" transform="translate(367.51711031917273,137.52572219404962)rotate(34.83000000000004)"><tspan class="line" dy="0em" x="0" y="0">Mechanics</tspan><tspan class="line" dy="1.3em" x="0" y="0">30.65</tspan></text></g></g><g class="slice"><path class="surface" d="M238.70361754164932,141.8565410885483L224.10482338886578,102.47538811806442A168,168 0,0,0 130.04261667709235,189.42559762681657L168.15696250781926,207.06919822011244A126,126 0,0,1 238.70361754164932,141.8565410885483Z" style="pointer-events: none; stroke-width: 1; fill: rgb(219, 241, 214); fill-opacity: 1; stroke: rgb(0, 0, 0); stroke-opacity: 1; opacity: 1;"/><g class="slicetext"><text data-notex="1" class="slicetext" text-anchor="middle" x="0" y="0" style="font-family: 'Times New Roman'; font-size: 12px; fill: rgb(0, 0, 0); fill-opacity: 1; white-space: pre;" transform="translate(182.46110643309436,152.0202292829354)rotate(-42.75)"><tspan class="line" dy="0em" x="0" y="0">Quantum Physics</tspan><tspan class="line" dy="1.3em" x="0" y="0">12.45</tspan></text></g></g><g class="slice cursor-pointer"><path class="surface" d="M156.50022384256152,260.23750426396697L114.50029845674871,260.31667235195596A168,168 0,0,0 306.38039709087116,426.2940968127922L300.41029781815337,384.72057260959417A126,126 0,0,1 156.50022384256152,260.23750426396697Z" style="pointer-events: none; stroke-width: 1; fill: rgb(118, 197, 120); fill-opacity: 1; stroke: rgb(0, 0, 0); stroke-opacity: 1;"/><g class="slicetext"><text data-notex="1" class="slicetext" text-anchor="middle" x="0" y="0" style="font-family: 'Times New Roman'; font-size: 12px; fill: rgb(0, 0, 0); fill-opacity: 1; white-space: pre;" transform="translate(191.39323497242404,365.838515726942)rotate(40.860000000000014)"><tspan class="line" dy="0em" x="0" y="0">Neural Networks</tspan><tspan class="line" dy="1.3em" x="0" y="0">27.24</tspan></text></g></g><g class="slice"><path class="surface" d="M300.41029781815337,384.72057260959417L306.38039709087116,426.2940968127922A168,168 0,0,0 386.7976681118909,391.7042004889056L360.72325108391817,358.77815036667926A126,126 0,0,1 300.41029781815337,384.72057260959417Z" style="pointer-events: none; stroke-width: 1; fill: rgb(236, 248, 232); fill-opacity: 1; stroke: rgb(0, 0, 0); stroke-opacity: 1; opacity: 1;"/><g class="slicetext"><text data-notex="1" class="slicetext" text-anchor="middle" x="0" y="0" style="font-family: 'Times New Roman'; font-size: 12px; fill: rgb(0, 0, 0); fill-opacity: 1; white-space: pre;" transform="translate(338.5268134290232,390.670689685237)rotate(-23.274)"><tspan class="line" dy="0em" x="0" y="0">Algorithms</tspan><tspan class="line" dy="1.3em" x="0" y="0">8.39</tspan></text></g></g><g class="slice"><path class="surface" d="M360.72325108391817,358.77815036667926L386.7976681118909,391.7042004889056A168,168 0,0,0 432.75990110116584,335.13961752010624L395.1949258258744,316.35471314007964A126,126 0,0,1 360.72325108391817,358.77815036667926Z" style="pointer-events: none; stroke-width: 1; fill: rgb(241, 250, 238); fill-opacity: 1; stroke: rgb(0, 0, 0); stroke-opacity: 1; opacity: 1;"/><g class="slicetext"><text data-notex="1" class="slicetext" text-anchor="middle" x="0" y="0" style="font-family: 'Times New Roman'; font-size: 12px; fill: rgb(0, 0, 0); fill-opacity: 1; white-space: pre;" transform="translate(401.4560298682105,356.65915442703175)scale(0.6049438002151116)rotate(-50.903999999999996)"><tspan class="line" dy="0em" x="0" y="0">Artificial Intelligence</tspan><tspan class="line" dy="1.3em" x="0" y="0">6.96</tspan></text></g></g><g class="slice"><path class="surface" d="M450.5,260L492.5,260A210,210 0,0,0 389.8526481534033,79.51341065206094L368.38211852272264,115.61072852164875A168,168 0,0,1 450.5,260Z" style="pointer-events: none; stroke-width: 1; fill: rgb(198, 232, 191); fill-opacity: 1; stroke: rgb(0, 0, 0); stroke-opacity: 1; opacity: 1;"/><g class="slicetext"><text data-notex="1" class="slicetext" text-anchor="middle" x="0" y="0" style="font-family: 'Times New Roman'; font-size: 12px; fill: rgb(0, 0, 0); fill-opacity: 1; white-space: pre;" transform="translate(448.6720619525426,165.3049474253543)rotate(60.37199999999996)"><tspan class="line" dy="0em" x="0" y="0">Kinematics</tspan><tspan class="line" dy="1.3em" x="0" y="0">16.46</tspan></text></g></g><g class="slice"><path class="surface" d="M368.38211852272264,115.61072852164875L389.8526481534033,79.51341065206094A210,210 0,0,0 297.6606920954007,50.54796870121203L294.62855367632056,92.43837496096961A168,168 0,0,1 368.38211852272264,115.61072852164875Z" style="pointer-events: none; stroke-width: 1; fill: rgb(239, 249, 236); fill-opacity: 1; stroke: rgb(0, 0, 0); stroke-opacity: 1; opacity: 1;"/><g class="slicetext"><text data-notex="1" class="slicetext" text-anchor="middle" x="0" y="0" style="font-family: 'Times New Roman'; font-size: 12px; fill: rgb(0, 0, 0); fill-opacity: 1; white-space: pre;" transform="translate(339.63245404564213,77.61000204004044)rotate(17.442000000000007)"><tspan class="line" dy="0em" x="0" y="0">Oscillations</tspan><tspan class="line" dy="1.3em" x="0" y="0">7.39</tspan></text></g></g><g class="slice"><path class="surface" d="M294.62855367632056,92.43837496096961L297.6606920954007,50.54796870121203A210,210 0,0,0 209.50602923608216,63.09423514758055L224.10482338886573,102.47538811806442A168,168 0,0,1 294.62855367632056,92.43837496096961Z" style="pointer-events: none; stroke-width: 1; fill: rgb(241, 250, 238); fill-opacity: 1; stroke: rgb(0, 0, 0); stroke-opacity: 1; opacity: 1;"/><g class="slicetext"><text data-notex="1" class="slicetext" text-anchor="middle" x="0" y="0" style="font-family: 'Times New Roman'; font-size: 12px; fill: rgb(0, 0, 0); fill-opacity: 1; white-space: pre;" transform="translate(255.34153853021053,70.39452959424962)rotate(-8.100000000000023)"><tspan class="line" dy="0em" x="0" y="0">Dynamics</tspan><tspan class="line" dy="1.3em" x="0" y="0">6.8</tspan></text></g></g><g class="slice"><path class="surface" d="M114.50029845674871,260.31667235195596L72.5003730709359,260.39584043994495A210,210 0,0,0 246.39488894132398,466.8729584925025L253.6159111530592,425.498366794002A168,168 0,0,1 114.50029845674871,260.31667235195596Z" style="pointer-events: none; stroke-width: 1; fill: rgb(158, 216, 153); fill-opacity: 1; stroke: rgb(0, 0, 0); stroke-opacity: 1; opacity: 1;"/><g class="slicetext"><text data-notex="1" class="slicetext" text-anchor="middle" x="0" y="0" style="font-family: 'Times New Roman'; font-size: 12px; fill: rgb(0, 0, 0); fill-opacity: 1; white-space: pre;" transform="translate(143.13460095031812,378.02689321502345)rotate(49.89599999999996)"><tspan class="line" dy="0em" x="0" y="0">Neuroplasticity</tspan><tspan class="line" dy="1.3em" x="0" y="0">22.22</tspan></text></g></g><g class="slice"><path class="surface" d="M253.6159111530592,425.498366794002L246.39488894132398,466.8729584925025A210,210 0,0,0 312.35049636358895,467.86762101599027L306.38039709087116,426.2940968127922A168,168 0,0,1 253.6159111530592,425.498366794002Z" style="pointer-events: none; stroke-width: 1; fill: rgb(247, 252, 245); fill-opacity: 1; stroke: rgb(0, 0, 0); stroke-opacity: 1; opacity: 1;"/><g class="slicetext"><text data-notex="1" class="slicetext" text-anchor="middle" x="0" y="0" style="font-family: 'Times New Roman'; font-size: 12px; fill: rgb(0, 0, 0); fill-opacity: 1; white-space: pre;" transform="translate(279.5252037381844,446.3772060998352)rotate(0.8640000000000327)"><tspan class="line" dy="0em" x="0" y="0">Synapses</tspan><tspan class="line" dy="1.3em" x="0" y="0">5.02</tspan></text></g></g></g></g><g class="glimages"/><defs id="topdefs-21d3cc"><g class="clips"/></defs><g class="layer-above"><g class="imagelayer"/><g class="shapelayer"/></g><g class="infolayer"><g class="cb053b19 colorbar" transform="translate(10,50)"><rect class="cbbg" x="571.5" y="63" width="48.015625" height="295" style="fill: rgb(0, 0, 0); fill-opacity: 0; stroke: rgb(68, 68, 68); stroke-opacity: 1; stroke-width: 0;"/><g class="cbfills" transform="translate(0,93)"><rect class="cbfill gradient_filled" style="fill: url('#g21d3cc-cb053b19');" x="582" y="0" width="15" height="254"/></g><g class="cblines" transform="translate(0,93)"/><g class="cbaxis crisp" transform="translate(0,-50)"><g class="ycb053b19tick"><text text-anchor="start" x="600.4" y="4.199999999999999" transform="translate(0,368.9000000000001)" style="font-family: 'Times New Roman'; font-size: 12px; fill: rgb(42, 63, 95); fill-opacity: 1; white-space: pre; opacity: 1;">10</text></g><g class="ycb053b19tick"><text text-anchor="start" x="600.4" y="4.199999999999999" style="font-family: 'Times New Roman'; font-size: 12px; fill: rgb(42, 63, 95); fill-opacity: 1; white-space: pre; opacity: 1;" transform="translate(0,312.47)">20</text></g><g class="ycb053b19tick"><text text-anchor="start" x="600.4" y="4.199999999999999" style="font-family: 'Times New Roman'; font-size: 12px; fill: rgb(42, 63, 95); fill-opacity: 1; white-space: pre; opacity: 1;" transform="translate(0,256.0300000000001)">30</text></g><g class="ycb053b19tick"><text text-anchor="start" x="600.4" y="4.199999999999999" style="font-family: 'Times New Roman'; font-size: 12px; fill: rgb(42, 63, 95); fill-opacity: 1; white-space: pre; opacity: 1;" transform="translate(0,199.60000000000005)">40</text></g><g class="ycb053b19tick"><text text-anchor="start" x="600.4" y="4.199999999999999" style="font-family: 'Times New Roman'; font-size: 12px; fill: rgb(42, 63, 95); fill-opacity: 1; white-space: pre; opacity: 1;" transform="translate(0,143.17000000000004)">50</text></g></g><g class="cbtitleunshift" transform="translate(-10,-50)"><g class="cbtitle" transform="translate(-0.5,-0.5)"><text class="ycb053b19title" x="592.25" y="135.75" text-anchor="start" style="opacity: 1; font-family: 'Times New Roman'; font-size: 13px; fill: rgb(42, 63, 95); fill-opacity: 1; white-space: pre;">%</text></g></g><rect class="cboutline" x="582" y="93" width="15" height="254" style="stroke: rgb(68, 68, 68); stroke-opacity: 1; fill: none; stroke-width: 1;"/></g><g class="g-gtitle"><text class="gtitle" x="320" y="25" text-anchor="middle" dy="0em" style="opacity: 1; font-family: 'Times New Roman'; font-size: 16px; fill: rgb(42, 63, 95); fill-opacity: 1; white-space: pre;">Science Distribution by Category (2021) (%)</text></g></g></svg>