<svg class="main-svg" xmlns="http://www.w3.org/2000/svg" xmlns:xlink="http://www.w3.org/1999/xlink" width="1920" height="1440" style="" viewBox="0 0 640 480"><rect x="0" y="0" width="640" height="480" style="fill: rgb(255, 255, 255); fill-opacity: 1;"/><defs id="defs-69970b"><g class="clips"/><g class="gradients"><linearGradient x1="0" y1="1" x2="0" y2="0" gradientUnits="objectBoundingBox" id="g69970b-cbbf9994"><stop offset="0%" stop-color="rgb(255, 255, 204)" stop-opacity="1"/><stop offset="12.5%" stop-color="rgb(255, 237, 160)" stop-opacity="1"/><stop offset="25%" stop-color="rgb(254, 217, 118)" stop-opacity="1"/><stop offset="37.5%" stop-color="rgb(254, 178, 76)" stop-opacity="1"/><stop offset="50%" stop-color="rgb(253, 141, 60)" stop-opacity="1"/><stop offset="62.5%" stop-color="rgb(252, 78, 42)" stop-opacity="1"/><stop offset="75%" stop-color="rgb(227, 26, 28)" stop-opacity="1"/><stop offset="87.5%" stop-color="rgb(189, 0, 38)" stop-opacity="1"/><stop offset="100%" stop-color="rgb(128, 0, 38)" stop-opacity="1"/></linearGradient></g><g class="patterns"/></defs><g class="bglayer"/><g class="layer-below"><g class="imagelayer"/><g class="shapelayer"/></g><g class="cartesianlayer"/><g class="polarlayer"/><g class="smithlayer"/><g class="ternarylayer"/><g class="geolayer"/><g class="funnelarealayer"/><g class="pielayer"/><g class="iciclelayer"/><g class="treemaplayer"/><g class="sunburstlayer"><g class="trace sunburst" stroke-linejoin="round" style="opacity: 1;"><g class="slice"><path class="surface" d="M282.5,260A0,0 0,1,0 282.5,260A0,0 0,1,0 282.5,260ZM324.5,260A42,42 0,1,1 240.5,260A42,42 0,1,1 324.5,260Z" style="pointer-events: none; stroke-width: 1; fill: rgb(255, 255, 255); fill-opacity: 1; stroke: rgb(0, 0, 0); stroke-opacity: 1;"/><g class="slicetext"><text data-notex="1" class="slicetext" text-anchor="middle" x="0" y="0" style="font-family: 'Times New Roman'; font-size: 12px; fill: rgb(0, 0, 0); fill-opacity: 1; white-space: pre;" transform="translate(282.5,264)">100</text></g></g><g class="slice cursor-pointer"><path class="surface" d="M324.5,260L366.5,260A84,84 0,0,0 213.9580000425401,211.44081712145922L248.22900002127005,235.72040856072962A42,42 0,0,1 324.5,260Z" style="pointer-events: none; stroke-width: 1; fill: rgb(128, 0, 38); fill-opacity: 1; stroke: rgb(0, 0, 0); stroke-opacity: 1;"/><g class="slicetext"><text data-notex="1" class="slicetext" text-anchor="middle" x="0" y="0" style="font-family: 'Times New Roman'; font-size: 12px; fill: rgb(0, 0, 0); fill-opacity: 1; white-space: pre;" transform="translate(301.3900961599084,200.09274037647512)rotate(17.658000000000015)"><tspan class="line" dy="0em" x="0" y="0">Life Sciences</tspan><tspan class="line" dy="1.3em" x="0" y="0">40.19</tspan></text></g></g><g class="slice cursor-pointer"><path class="surface" d="M248.22900002127005,235.72040856072962L213.9580000425401,211.44081712145922A84,84 0,0,0 301.39017451434466,341.8484044243845L291.94508725717236,300.92420221219226A42,42 0,0,1 248.22900002127005,235.72040856072962Z" style="pointer-events: none; stroke-width: 1; fill: rgb(153, 0, 38); fill-opacity: 1; stroke: rgb(0, 0, 0); stroke-opacity: 1;"/><g class="slicetext"><text data-notex="1" class="slicetext" text-anchor="middle" x="0" y="0" style="font-family: 'Times New Roman'; font-size: 12px; fill: rgb(0, 0, 0); fill-opacity: 1; white-space: pre;" transform="translate(237.60865084049402,289.9073157694064)scale(0.9630714158516744)rotate(56.15999999999997)"><tspan class="line" dy="0em" x="0" y="0">Applied Sciences</tspan><tspan class="line" dy="1.3em" x="0" y="0">38.42</tspan></text></g></g><g class="slice cursor-pointer"><path class="surface" d="M291.94508725717236,300.92420221219226L301.39017451434466,341.8484044243845A84,84 0,0,0 366.5,260L324.5,260A42,42 0,0,1 291.94508725717236,300.92420221219226Z" style="pointer-events: none; stroke-width: 1; fill: rgb(253, 152, 65); fill-opacity: 1; stroke: rgb(0, 0, 0); stroke-opacity: 1;"/><g class="slicetext"><text data-notex="1" class="slicetext" text-anchor="middle" x="0" y="0" style="font-family: 'Times New Roman'; font-size: 12px; fill: rgb(0, 0, 0); fill-opacity: 1; white-space: pre;" transform="translate(328.44147060552245,296.72093758447755)scale(0.8339164774717702)rotate(-51.49800000000005)"><tspan class="line" dy="0em" x="0" y="0">Physical Sciences</tspan><tspan class="line" dy="1.3em" x="0" y="0">21.39</tspan></text></g></g><g class="slice"><path class="surface" d="M366.5,260L408.5,260A126,126 0,0,0 179.68700006381016,187.16122568218884L213.9580000425401,211.44081712145922A84,84 0,0,1 366.5,260Z" style="pointer-events: none; stroke-width: 1; fill: rgb(128, 0, 38); fill-opacity: 1; stroke: rgb(0, 0, 0); stroke-opacity: 1; opacity: 1;"/><g class="slicetext"><text data-notex="1" class="slicetext" text-anchor="middle" x="0" y="0" style="font-family: 'Times New Roman'; font-size: 12px; fill: rgb(0, 0, 0); fill-opacity: 1; white-space: pre;" transform="translate(315.03652499356053,159.43932247433534)rotate(17.658000000000015)"><tspan class="line" dy="0em" x="0" y="0">Neuroscience</tspan><tspan class="line" dy="1.3em" x="0" y="0">40.19</tspan></text></g></g><g class="slice cursor-pointer"><path class="surface" d="M213.9580000425401,211.44081712145922L179.68700006381016,187.16122568218884A126,126 0,0,0 209.53208460125873,362.7213868790825L233.85472306750583,328.480924586055A84,84 0,0,1 213.9580000425401,211.44081712145922Z" style="pointer-events: none; stroke-width: 1; fill: rgb(252, 108, 51); fill-opacity: 1; stroke: rgb(0, 0, 0); stroke-opacity: 1;"/><g class="slicetext"><text data-notex="1" class="slicetext" text-anchor="middle" x="0" y="0" style="font-family: 'Times New Roman'; font-size: 12px; fill: rgb(0, 0, 0); fill-opacity: 1; white-space: pre;" transform="translate(187.2486452540008,276.1926527938911)rotate(80.35199999999998)"><tspan class="line" dy="0em" x="0" y="0">Computer Science</tspan><tspan class="line" dy="1.3em" x="0" y="0">24.98</tspan></text></g></g><g class="slice cursor-pointer"><path class="surface" d="M233.85472306750583,328.480924586055L209.53208460125873,362.7213868790825A126,126 0,0,0 310.8352617715169,382.77260663657677L301.3901745143446,341.8484044243845A84,84 0,0,1 233.85472306750583,328.480924586055Z" style="pointer-events: none; stroke-width: 1; fill: rgb(254, 219, 123); fill-opacity: 1; stroke: rgb(0, 0, 0); stroke-opacity: 1;"/><g class="slicetext"><text data-notex="1" class="slicetext" text-anchor="middle" x="0" y="0" style="font-family: 'Times New Roman'; font-size: 12px; fill: rgb(0, 0, 0); fill-opacity: 1; white-space: pre;" transform="translate(263.3545409018321,356.72707488544376)rotate(11.196000000000026)"><tspan class="line" dy="0em" x="0" y="0">Engineering</tspan><tspan class="line" dy="1.3em" x="0" y="0">13.44</tspan></text></g></g><g class="slice cursor-pointer"><path class="surface" d="M301.39017451434466,341.8484044243845L310.835261771517,382.7726066365767A126,126 0,0,0 387.3310997994777,329.9030794374035L352.38739986631845,306.602052958269A84,84 0,0,1 301.39017451434466,341.8484044243845Z" style="pointer-events: none; stroke-width: 1; fill: rgb(254, 226, 136); fill-opacity: 1; stroke: rgb(0, 0, 0); stroke-opacity: 1;"/><g class="slicetext"><text data-notex="1" class="slicetext" text-anchor="middle" x="0" y="0" style="font-family: 'Times New Roman'; font-size: 12px; fill: rgb(0, 0, 0); fill-opacity: 1; white-space: pre;" transform="translate(339.2150535631931,342.3484085018025)rotate(-34.65000000000009)"><tspan class="line" dy="0em" x="0" y="0">Physics</tspan><tspan class="line" dy="1.3em" x="0" y="0">12.03</tspan></text></g></g><g class="slice"><path class="surface" d="M352.38739986631845,306.602052958269L387.3310997994777,329.9030794374035A126,126 0,0,0 408.5,260.00000000000006L366.5,260A84,84 0,0,1 352.38739986631845,306.602052958269Z" style="pointer-events: none; stroke-width: 1; fill: rgb(255, 238, 162); fill-opacity: 1; stroke: rgb(0, 0, 0); stroke-opacity: 1; opacity: 1;"/><g class="slicetext"><text data-notex="1" class="slicetext" text-anchor="middle" x="0" y="0" style="font-family: 'Times New Roman'; font-size: 12px; fill: rgb(0, 0, 0); fill-opacity: 1; white-space: pre;" transform="translate(381.0659872613158,289.84895035088095)rotate(-73.15200000000004)"><tspan class="line" dy="0em" x="0" y="0">Chemistry</tspan><tspan class="line" dy="1.3em" x="0" y="0">9.36</tspan></text></g></g><g class="slice cursor-pointer"><path class="surface" d="M179.68700006381016,187.16122568218884L145.41600008508019,162.88163424291844A168,168 0,0,0 134.2750739589278,339.0782606037758L171.33130546919585,319.30869545283184A126,126 0,0,1 179.68700006381016,187.16122568218884Z" style="pointer-events: none; stroke-width: 1; fill: rgb(254, 184, 83); fill-opacity: 1; stroke: rgb(0, 0, 0); stroke-opacity: 1;"/><g class="slicetext"><text data-notex="1" class="slicetext" text-anchor="middle" x="0" y="0" style="font-family: 'Times New Roman'; font-size: 12px; fill: rgb(0, 0, 0); fill-opacity: 1; white-space: pre;" transform="translate(136.68535115383784,250.7801286298247)rotate(-86.38199999999995)"><tspan class="line" dy="0em" x="0" y="0">Artificial Intelligence</tspan><tspan class="line" dy="1.3em" x="0" y="0">17.61</tspan></text></g></g><g class="slice"><path class="surface" d="M171.33130546919585,319.30869545283184L134.2750739589278,339.0782606037758A168,168 0,0,0 185.20944613501166,396.96184917210996L209.53208460125873,362.7213868790825A126,126 0,0,1 171.33130546919585,319.30869545283184Z" style="pointer-events: none; stroke-width: 1; fill: rgb(255, 246, 182); fill-opacity: 1; stroke: rgb(0, 0, 0); stroke-opacity: 1; opacity: 1;"/><g class="slicetext"><text data-notex="1" class="slicetext" text-anchor="middle" x="0" y="0" style="font-family: 'Times New Roman'; font-size: 12px; fill: rgb(0, 0, 0); fill-opacity: 1; white-space: pre;" transform="translate(173.81905020495287,355.41471817568527)rotate(48.653999999999996)"><tspan class="line" dy="0em" x="0" y="0">Algorithms</tspan><tspan class="line" dy="1.3em" x="0" y="0">7.37</tspan></text></g></g><g class="slice"><path class="surface" d="M209.53208460125873,362.7213868790825L185.20944613501166,396.96184917210996A168,168 0,0,0 256.42754641901917,425.9645358631403L262.9456598142644,384.47340189735525A126,126 0,0,1 209.53208460125873,362.7213868790825Z" style="pointer-events: none; stroke-width: 1; fill: rgb(255, 246, 182); fill-opacity: 1; stroke: rgb(0, 0, 0); stroke-opacity: 1; opacity: 1;"/><g class="slicetext"><text data-notex="1" class="slicetext" text-anchor="middle" x="0" y="0" style="font-family: 'Times New Roman'; font-size: 12px; fill: rgb(0, 0, 0); fill-opacity: 1; white-space: pre;" transform="translate(227.49071554640818,394.18839908201204)rotate(22.158000000000015)"><tspan class="line" dy="0em" x="0" y="0">Mechanical</tspan><tspan class="line" dy="1.3em" x="0" y="0">7.35</tspan></text></g></g><g class="slice"><path class="surface" d="M262.9456598142644,384.47340189735525L256.42754641901917,425.9645358631403A168,168 0,0,0 320.2803490286892,423.696808848769L310.8352617715169,382.77260663657677A126,126 0,0,1 262.9456598142644,384.47340189735525Z" style="pointer-events: none; stroke-width: 1; fill: rgb(255, 251, 195); fill-opacity: 1; stroke: rgb(0, 0, 0); stroke-opacity: 1; opacity: 1;"/><g class="slicetext"><text data-notex="1" class="slicetext" text-anchor="middle" x="0" y="0" style="font-family: 'Times New Roman'; font-size: 12px; fill: rgb(0, 0, 0); fill-opacity: 1; white-space: pre;" transform="translate(287.340224293366,405.7520939690541)rotate(-2.033999999999992)"><tspan class="line" dy="0em" x="0" y="0">Electrical</tspan><tspan class="line" dy="1.3em" x="0" y="0">6.09</tspan></text></g></g><g class="slice cursor-pointer"><path class="surface" d="M310.835261771517,382.7726066365767L320.2803490286894,423.69680884876897A168,168 0,0,0 422.27479973263695,353.20410591653797L387.3310997994777,329.9030794374035A126,126 0,0,1 310.835261771517,382.7726066365767Z" style="pointer-events: none; stroke-width: 1; fill: rgb(254, 226, 136); fill-opacity: 1; stroke: rgb(0, 0, 0); stroke-opacity: 1;"/><g class="slicetext"><text data-notex="1" class="slicetext" text-anchor="middle" x="0" y="0" style="font-family: 'Times New Roman'; font-size: 12px; fill: rgb(0, 0, 0); fill-opacity: 1; white-space: pre;" transform="translate(361.7300593517465,374.9249100754105)rotate(-34.65000000000009)"><tspan class="line" dy="0em" x="0" y="0">Quantum Physics</tspan><tspan class="line" dy="1.3em" x="0" y="0">12.03</tspan></text></g></g><g class="slice"><path class="surface" d="M145.41600008508019,162.88163424291844L111.14500010635024,138.60204280364806A210,210 0,0,0 77.6441939956882,213.80369336923383L118.61535519655055,223.04295469538704A168,168 0,0,1 145.41600008508019,162.88163424291844Z" style="pointer-events: none; stroke-width: 1; fill: rgb(255, 250, 193); fill-opacity: 1; stroke: rgb(0, 0, 0); stroke-opacity: 1; opacity: 1;"/><g class="slicetext"><text data-notex="1" class="slicetext" text-anchor="middle" x="0" y="0" style="font-family: 'Times New Roman'; font-size: 12px; fill: rgb(0, 0, 0); fill-opacity: 1; white-space: pre;" transform="translate(102.17733744392561,179.22644765663767)scale(0.8101899408466366)rotate(-65.98799999999994)"><tspan class="line" dy="0em" x="0" y="0">Natural Language</tspan><tspan class="line" dy="1.3em" x="0" y="0">6.28</tspan></text></g></g><g class="slice"><path class="surface" d="M118.61535519655055,223.04295469538704L77.6441939956882,213.80369336923383A210,210 0,0,0 75.36069818721847,294.5443142139688L116.78855854977479,287.63545137117507A168,168 0,0,1 118.61535519655055,223.04295469538704Z" style="pointer-events: none; stroke-width: 1; fill: rgb(255, 251, 194); fill-opacity: 1; stroke: rgb(0, 0, 0); stroke-opacity: 1; opacity: 1;"/><g class="slicetext"><text data-notex="1" class="slicetext" text-anchor="middle" x="0" y="0" style="font-family: 'Times New Roman'; font-size: 12px; fill: rgb(0, 0, 0); fill-opacity: 1; white-space: pre;" transform="translate(84.64855874035605,254.4043910972038)scale(0.788576658085025)rotate(-88.38)"><tspan class="line" dy="0em" x="0" y="0">Machine Learning</tspan><tspan class="line" dy="1.3em" x="0" y="0">6.16</tspan></text></g></g><g class="slice"><path class="surface" d="M116.78855854977479,287.63545137117507L75.36069818721847,294.5443142139688A210,210 0,0,0 97.21884244865981,358.84782575471985L134.27507395892786,339.0782606037759A168,168 0,0,1 116.78855854977479,287.63545137117507Z" style="pointer-events: none; stroke-width: 1; fill: rgb(255, 255, 204); fill-opacity: 1; stroke: rgb(0, 0, 0); stroke-opacity: 1; opacity: 1;"/><g class="slicetext"><text data-notex="1" class="slicetext" text-anchor="middle" x="0" y="0" style="font-family: 'Times New Roman'; font-size: 12px; fill: rgb(0, 0, 0); fill-opacity: 1; white-space: pre;" transform="translate(98.72830974170853,322.46794336090056)scale(0.7191739703085746)rotate(71.226)"><tspan class="line" dy="0em" x="0" y="0">Computer Vision</tspan><tspan class="line" dy="1.3em" x="0" y="0">5.17</tspan></text></g></g><g class="slice"><path class="surface" d="M320.2803490286894,423.69680884876897L329.7254362858617,464.6210110609612A210,210 0,0,0 405.18648056110817,430.43481888255354L380.64918444888656,396.34785510604286A168,168 0,0,1 320.2803490286894,423.69680884876897Z" style="pointer-events: none; stroke-width: 1; fill: rgb(255, 250, 192); fill-opacity: 1; stroke: rgb(0, 0, 0); stroke-opacity: 1; opacity: 1;"/><g class="slicetext"><text data-notex="1" class="slicetext" text-anchor="middle" x="0" y="0" style="font-family: 'Times New Roman'; font-size: 12px; fill: rgb(0, 0, 0); fill-opacity: 1; white-space: pre;" transform="translate(359.63244411834495,431.0727251476732)rotate(-24.37200000000007)"><tspan class="line" dy="0em" x="0" y="0">Entanglement</tspan><tspan class="line" dy="1.3em" x="0" y="0">6.32</tspan></text></g></g><g class="slice"><path class="surface" d="M380.64918444888656,396.34785510604286L405.18648056110817,430.43481888255354A210,210 0,0,0 457.21849966579623,376.5051323956725L422.27479973263695,353.20410591653797A168,168 0,0,1 380.64918444888656,396.34785510604286Z" style="pointer-events: none; stroke-width: 1; fill: rgb(255, 253, 199); fill-opacity: 1; stroke: rgb(0, 0, 0); stroke-opacity: 1; opacity: 1;"/><g class="slicetext"><text data-notex="1" class="slicetext" text-anchor="middle" x="0" y="0" style="font-family: 'Times New Roman'; font-size: 12px; fill: rgb(0, 0, 0); fill-opacity: 1; white-space: pre;" transform="translate(420.29397663790627,393.14343270815164)scale(0.8295612062414662)rotate(-46.02600000000007)"><tspan class="line" dy="0em" x="0" y="0">Quantum Fields</tspan><tspan class="line" dy="1.3em" x="0" y="0">5.71</tspan></text></g></g></g></g><g class="glimages"/><defs id="topdefs-69970b"><g class="clips"/></defs><g class="layer-above"><g class="imagelayer"/><g class="shapelayer"/></g><g class="infolayer"><g class="cbbf9994 colorbar" transform="translate(10,50)"><rect class="cbbg" x="571.5" y="63" width="48.015625" height="295" style="fill: rgb(0, 0, 0); fill-opacity: 0; stroke: rgb(68, 68, 68); stroke-opacity: 1; stroke-width: 0;"/><g class="cbfills" transform="translate(0,93)"><rect class="cbfill gradient_filled" style="fill: url('#g69970b-cbbf9994');" x="582" y="0" width="15" height="254"/></g><g class="cblines" transform="translate(0,93)"/><g class="cbaxis crisp" transform="translate(0,-50)"><g class="ycbbf9994tick"><text text-anchor="start" x="600.4" y="4.199999999999999" transform="translate(0,361.97)" style="font-family: 'Times New Roman'; font-size: 12px; fill: rgb(42, 63, 95); fill-opacity: 1; white-space: pre; opacity: 1;">10</text></g><g class="ycbbf9994tick"><text text-anchor="start" x="600.4" y="4.199999999999999" style="font-family: 'Times New Roman'; font-size: 12px; fill: rgb(42, 63, 95); fill-opacity: 1; white-space: pre; opacity: 1;" transform="translate(0,325.70000000000005)">15</text></g><g class="ycbbf9994tick"><text text-anchor="start" x="600.4" y="4.199999999999999" style="font-family: 'Times New Roman'; font-size: 12px; fill: rgb(42, 63, 95); fill-opacity: 1; white-space: pre; opacity: 1;" transform="translate(0,289.44000000000005)">20</text></g><g class="ycbbf9994tick"><text text-anchor="start" x="600.4" y="4.199999999999999" style="font-family: 'Times New Roman'; font-size: 12px; fill: rgb(42, 63, 95); fill-opacity: 1; white-space: pre; opacity: 1;" transform="translate(0,253.17000000000007)">25</text></g><g class="ycbbf9994tick"><text text-anchor="start" x="600.4" y="4.199999999999999" style="font-family: 'Times New Roman'; font-size: 12px; fill: rgb(42, 63, 95); fill-opacity: 1; white-space: pre; opacity: 1;" transform="translate(0,216.91000000000005)">30</text></g><g class="ycbbf9994tick"><text text-anchor="start" x="600.4" y="4.199999999999999" style="font-family: 'Times New Roman'; font-size: 12px; fill: rgb(42, 63, 95); fill-opacity: 1; white-space: pre; opacity: 1;" transform="translate(0,180.64000000000004)">35</text></g><g class="ycbbf9994tick"><text text-anchor="start" x="600.4" y="4.199999999999999" style="font-family: 'Times New Roman'; font-size: 12px; fill: rgb(42, 63, 95); fill-opacity: 1; white-space: pre; opacity: 1;" transform="translate(0,144.38000000000005)">40</text></g></g><g class="cbtitleunshift" transform="translate(-10,-50)"><g class="cbtitle" transform="translate(-0.5,-0.5)"><text class="ycbbf9994title" x="592.25" y="135.75" text-anchor="start" style="opacity: 1; font-family: 'Times New Roman'; font-size: 13px; fill: rgb(42, 63, 95); fill-opacity: 1; white-space: pre;">%</text></g></g><rect class="cboutline" x="582" y="93" width="15" height="254" style="stroke: rgb(68, 68, 68); stroke-opacity: 1; fill: none; stroke-width: 1;"/></g><g class="g-gtitle"><text class="gtitle" x="320" y="25" text-anchor="middle" dy="0em" style="opacity: 1; font-family: 'Times New Roman'; font-size: 16px; fill: rgb(42, 63, 95); fill-opacity: 1; white-space: pre;">Science Distribution by Category (2021) (%)</text></g></g></svg>