<svg class="main-svg" xmlns="http://www.w3.org/2000/svg" xmlns:xlink="http://www.w3.org/1999/xlink" width="1920" height="1440" style="" viewBox="0 0 640 480"><rect x="0" y="0" width="640" height="480" style="fill: rgb(255, 255, 255); fill-opacity: 1;"/><defs id="defs-a23b13"><g class="clips"/><g class="gradients"><linearGradient x1="0" y1="1" x2="0" y2="0" gradientUnits="objectBoundingBox" id="ga23b13-cb253c09"><stop offset="0%" stop-color="rgb(247, 252, 245)" stop-opacity="1"/><stop offset="12.5%" stop-color="rgb(229, 245, 224)" stop-opacity="1"/><stop offset="25%" stop-color="rgb(199, 233, 192)" stop-opacity="1"/><stop offset="37.5%" stop-color="rgb(161, 217, 155)" stop-opacity="1"/><stop offset="50%" stop-color="rgb(116, 196, 118)" stop-opacity="1"/><stop offset="62.5%" stop-color="rgb(65, 171, 93)" stop-opacity="1"/><stop offset="75%" stop-color="rgb(35, 139, 69)" stop-opacity="1"/><stop offset="87.5%" stop-color="rgb(0, 109, 44)" stop-opacity="1"/><stop offset="100%" stop-color="rgb(0, 68, 27)" stop-opacity="1"/></linearGradient></g><g class="patterns"/></defs><g class="bglayer"/><g class="layer-below"><g class="imagelayer"/><g class="shapelayer"/></g><g class="cartesianlayer"/><g class="polarlayer"/><g class="smithlayer"/><g class="ternarylayer"/><g class="geolayer"/><g class="funnelarealayer"/><g class="pielayer"/><g class="iciclelayer"/><g class="treemaplayer"/><g class="sunburstlayer"><g class="trace sunburst" stroke-linejoin="round" style="opacity: 1;"><g class="slice"><path class="surface" d="M282.5,260A0,0 0,1,0 282.5,260A0,0 0,1,0 282.5,260ZM324.5,260A42,42 0,1,1 240.5,260A42,42 0,1,1 324.5,260Z" style="pointer-events: none; stroke-width: 1; fill: rgb(255, 255, 255); fill-opacity: 1; stroke: rgb(0, 0, 0); stroke-opacity: 1;"/><g class="slicetext"><text data-notex="1" class="slicetext" text-anchor="middle" x="0" y="0" style="font-family: 'Times New Roman'; font-size: 12px; fill: rgb(0, 0, 0); fill-opacity: 1; white-space: pre;" transform="translate(282.5,264)">100</text></g></g><g class="slice cursor-pointer"><path class="surface" d="M324.5,260L366.5,260A84,84 0,0,0 208.7129668989602,219.85683437811545L245.6064834494801,239.9284171890577A42,42 0,0,1 324.5,260Z" style="pointer-events: none; stroke-width: 1; fill: rgb(0, 68, 27); fill-opacity: 1; stroke: rgb(0, 0, 0); stroke-opacity: 1;"/><g class="slicetext"><text data-notex="1" class="slicetext" text-anchor="middle" x="0" y="0" style="font-family: 'Times New Roman'; font-size: 12px; fill: rgb(0, 0, 0); fill-opacity: 1; white-space: pre;" transform="translate(297.4113715591701,200.75484037411124)scale(0.9534132692482971)rotate(14.274000000000001)"><tspan class="line" dy="0em" x="0" y="0">Physical Sciences</tspan><tspan class="line" dy="1.3em" x="0" y="0">42.07</tspan></text></g></g><g class="slice cursor-pointer"><path class="surface" d="M245.6064834494801,239.9284171890577L208.7129668989602,219.85683437811545A84,84 0,0,0 262.0192765792476,341.46496159799403L272.2596382896238,300.732480798997A42,42 0,0,1 245.6064834494801,239.9284171890577Z" style="pointer-events: none; stroke-width: 1; fill: rgb(60, 165, 89); fill-opacity: 1; stroke: rgb(0, 0, 0); stroke-opacity: 1;"/><g class="slicetext"><text data-notex="1" class="slicetext" text-anchor="middle" x="0" y="0" style="font-family: 'Times New Roman'; font-size: 12px; fill: rgb(0, 0, 0); fill-opacity: 1; white-space: pre;" transform="translate(233.0332584159865,281.5109795907135)scale(0.9630714158516744)rotate(66.32999999999993)"><tspan class="line" dy="0em" x="0" y="0">Applied Sciences</tspan><tspan class="line" dy="1.3em" x="0" y="0">29.01</tspan></text></g></g><g class="slice cursor-pointer"><path class="surface" d="M272.2596382896238,300.732480798997L262.0192765792476,341.46496159799403A84,84 0,0,0 366.5,259.99999999999994L324.5,260A42,42 0,0,1 272.2596382896238,300.732480798997Z" style="pointer-events: none; stroke-width: 1; fill: rgb(60, 166, 89); fill-opacity: 1; stroke: rgb(0, 0, 0); stroke-opacity: 1;"/><g class="slicetext"><text data-notex="1" class="slicetext" text-anchor="middle" x="0" y="0" style="font-family: 'Times New Roman'; font-size: 12px; fill: rgb(0, 0, 0); fill-opacity: 1; white-space: pre;" transform="translate(316.3097114638409,303.64126880406207)rotate(-37.94399999999996)"><tspan class="line" dy="0em" x="0" y="0">Life Sciences</tspan><tspan class="line" dy="1.3em" x="0" y="0">28.92</tspan></text></g></g><g class="slice"><path class="surface" d="M366.5,260L408.5,260A126,126 0,0,0 171.81945034844028,199.78525156717316L208.7129668989602,219.85683437811545A84,84 0,0,1 366.5,260Z" style="pointer-events: none; stroke-width: 1; fill: rgb(0, 68, 27); fill-opacity: 1; stroke: rgb(0, 0, 0); stroke-opacity: 1; opacity: 1;"/><g class="slicetext"><text data-notex="1" class="slicetext" text-anchor="middle" x="0" y="0" style="font-family: 'Times New Roman'; font-size: 12px; fill: rgb(0, 0, 0); fill-opacity: 1; white-space: pre;" transform="translate(308.8704161917836,155.68283292195625)rotate(14.274000000000001)"><tspan class="line" dy="0em" x="0" y="0">Physics</tspan><tspan class="line" dy="1.3em" x="0" y="0">42.07</tspan></text></g></g><g class="slice cursor-pointer"><path class="surface" d="M208.7129668989602,219.85683437811545L171.81945034844028,199.78525156717316A126,126 0,0,0 194.4744952188583,350.1527066039905L223.8163301459055,320.1018044026604A84,84 0,0,1 208.7129668989602,219.85683437811545Z" style="pointer-events: none; stroke-width: 1; fill: rgb(145, 210, 142); fill-opacity: 1; stroke: rgb(0, 0, 0); stroke-opacity: 1;"/><g class="slicetext"><text data-notex="1" class="slicetext" text-anchor="middle" x="0" y="0" style="font-family: 'Times New Roman'; font-size: 12px; fill: rgb(0, 0, 0); fill-opacity: 1; white-space: pre;" transform="translate(184.9968129890714,274.69027374441157)rotate(81.43200000000002)"><tspan class="line" dy="0em" x="0" y="0">Engineering</tspan><tspan class="line" dy="1.3em" x="0" y="0">20.62</tspan></text></g></g><g class="slice"><path class="surface" d="M223.8163301459055,320.1018044026604L194.4744952188583,350.1527066039905A126,126 0,0,0 251.77891486887142,382.19744239699105L262.0192765792476,341.46496159799403A84,84 0,0,1 223.8163301459055,320.1018044026604Z" style="pointer-events: none; stroke-width: 1; fill: rgb(234, 247, 230); fill-opacity: 1; stroke: rgb(0, 0, 0); stroke-opacity: 1; opacity: 1;"/><g class="slicetext"><text data-notex="1" class="slicetext" text-anchor="middle" x="0" y="0" style="font-family: 'Times New Roman'; font-size: 12px; fill: rgb(0, 0, 0); fill-opacity: 1; white-space: pre;" transform="translate(228.2424563249909,357.02676508291796)scale(0.6055810950703182)rotate(29.213999999999942)"><tspan class="line" dy="0em" x="0" y="0">Computer Science</tspan><tspan class="line" dy="1.3em" x="0" y="0">8.39</tspan></text></g></g><g class="slice cursor-pointer"><path class="surface" d="M262.0192765792476,341.46496159799403L251.77891486887142,382.19744239699105A126,126 0,0,0 379.63511309107446,340.2544067623964L347.2567420607163,313.5029378415976A84,84 0,0,1 262.0192765792476,341.46496159799403Z" style="pointer-events: none; stroke-width: 1; fill: rgb(170, 221, 163); fill-opacity: 1; stroke: rgb(0, 0, 0); stroke-opacity: 1;"/><g class="slicetext"><text data-notex="1" class="slicetext" text-anchor="middle" x="0" y="0" style="font-family: 'Times New Roman'; font-size: 12px; fill: rgb(0, 0, 0); fill-opacity: 1; white-space: pre;" transform="translate(313.54795396629805,353.0403161835477)rotate(-18.162000000000035)"><tspan class="line" dy="0em" x="0" y="0">Neuroscience</tspan><tspan class="line" dy="1.3em" x="0" y="0">17.93</tspan></text></g></g><g class="slice cursor-pointer"><path class="surface" d="M347.2567420607163,313.5029378415976L379.63511309107446,340.2544067623964A126,126 0,0,0 408.5,259.99999999999983L366.5,259.9999999999999A84,84 0,0,1 347.2567420607163,313.5029378415976Z" style="pointer-events: none; stroke-width: 1; fill: rgb(221, 242, 215); fill-opacity: 1; stroke: rgb(0, 0, 0); stroke-opacity: 1;"/><g class="slicetext"><text data-notex="1" class="slicetext" text-anchor="middle" x="0" y="0" style="font-family: 'Times New Roman'; font-size: 12px; fill: rgb(0, 0, 0); fill-opacity: 1; white-space: pre;" transform="translate(376.4966749130005,293.8075315815564)rotate(-70.21800000000007)"><tspan class="line" dy="0em" x="0" y="0">Biology</tspan><tspan class="line" dy="1.3em" x="0" y="0">10.99</tspan></text></g></g><g class="slice"><path class="surface" d="M171.81945034844028,199.78525156717316L134.92593379792038,179.7136687562309A168,168 0,0,0 121.2889686335439,307.27582221139585L161.59172647515794,295.45686665854686A126,126 0,0,1 171.81945034844028,199.78525156717316Z" style="pointer-events: none; stroke-width: 1; fill: rgb(211, 238, 205); fill-opacity: 1; stroke: rgb(0, 0, 0); stroke-opacity: 1; opacity: 1;"/><g class="slicetext"><text data-notex="1" class="slicetext" text-anchor="middle" x="0" y="0" style="font-family: 'Times New Roman'; font-size: 12px; fill: rgb(0, 0, 0); fill-opacity: 1; white-space: pre;" transform="translate(133.91421493899475,244.4533662050707)rotate(-83.89800000000002)"><tspan class="line" dy="0em" x="0" y="0">Electrical</tspan><tspan class="line" dy="1.3em" x="0" y="0">12.47</tspan></text></g></g><g class="slice"><path class="surface" d="M161.59172647515794,295.45686665854686L121.2889686335439,307.27582221139585A168,168 0,0,0 165.13266029181105,380.2036088053207L194.4744952188583,350.1527066039905A126,126 0,0,1 161.59172647515794,295.45686665854686Z" style="pointer-events: none; stroke-width: 1; fill: rgb(235, 247, 231); fill-opacity: 1; stroke: rgb(0, 0, 0); stroke-opacity: 1; opacity: 1;"/><g class="slicetext"><text data-notex="1" class="slicetext" text-anchor="middle" x="0" y="0" style="font-family: 'Times New Roman'; font-size: 12px; fill: rgb(0, 0, 0); fill-opacity: 1; white-space: pre;" transform="translate(159.67032346122807,333.4523966441324)rotate(58.98599999999999)"><tspan class="line" dy="0em" x="0" y="0">Mechanical</tspan><tspan class="line" dy="1.3em" x="0" y="0">8.15</tspan></text></g></g><g class="slice cursor-pointer"><path class="surface" d="M251.77891486887142,382.19744239699105L241.53855315849523,422.92992319598807A168,168 0,0,0 412.0134841214326,367.0058756831952L379.63511309107446,340.2544067623964A126,126 0,0,1 251.77891486887142,382.19744239699105Z" style="pointer-events: none; stroke-width: 1; fill: rgb(170, 221, 163); fill-opacity: 1; stroke: rgb(0, 0, 0); stroke-opacity: 1;"/><g class="slicetext"><text data-notex="1" class="slicetext" text-anchor="middle" x="0" y="0" style="font-family: 'Times New Roman'; font-size: 12px; fill: rgb(0, 0, 0); fill-opacity: 1; white-space: pre;" transform="translate(326.2387376802719,393.33008997148687)rotate(-18.162000000000035)"><tspan class="line" dy="0em" x="0" y="0">Brain Function</tspan><tspan class="line" dy="1.3em" x="0" y="0">17.93</tspan></text></g></g><g class="slice"><path class="surface" d="M379.63511309107446,340.2544067623964L412.0134841214326,367.0058756831952A168,168 0,0,0 441.88152809328506,313.1180619248235L402.0361460699638,299.83854644361764A126,126 0,0,1 379.63511309107446,340.2544067623964Z" style="pointer-events: none; stroke-width: 1; fill: rgb(244, 251, 242); fill-opacity: 1; stroke: rgb(0, 0, 0); stroke-opacity: 1; opacity: 1;"/><g class="slicetext"><text data-notex="1" class="slicetext" text-anchor="middle" x="0" y="0" style="font-family: 'Times New Roman'; font-size: 12px; fill: rgb(0, 0, 0); fill-opacity: 1; white-space: pre;" transform="translate(409.41893046063666,330.5340984086559)rotate(-61.002000000000066)"><tspan class="line" dy="0em" x="0" y="0">Genetics</tspan><tspan class="line" dy="1.3em" x="0" y="0">5.87</tspan></text></g></g><g class="slice"><path class="surface" d="M402.0361460699638,299.83854644361764L441.88152809328506,313.1180619248235A168,168 0,0,0 450.5,259.9999999999997L408.5,259.99999999999983A126,126 0,0,1 402.0361460699638,299.83854644361764Z" style="pointer-events: none; stroke-width: 1; fill: rgb(247, 252, 245); fill-opacity: 1; stroke: rgb(0, 0, 0); stroke-opacity: 1; opacity: 1;"/><g class="slicetext"><text data-notex="1" class="slicetext" text-anchor="middle" x="0" y="0" style="font-family: 'Times New Roman'; font-size: 12px; fill: rgb(0, 0, 0); fill-opacity: 1; white-space: pre;" transform="translate(427.25813274217705,283.48718788107595)rotate(-80.7840000000001)"><tspan class="line" dy="0em" x="0" y="0">Ecology</tspan><tspan class="line" dy="1.3em" x="0" y="0">5.12</tspan></text></g></g><g class="slice"><path class="surface" d="M241.53855315849523,422.92992319598807L231.29819144811904,463.6624039949851A210,210 0,0,0 319.7743665694699,466.66548235456446L312.31949325557594,425.33238588365157A168,168 0,0,1 241.53855315849523,422.92992319598807Z" style="pointer-events: none; stroke-width: 1; fill: rgb(241, 250, 238); fill-opacity: 1; stroke: rgb(0, 0, 0); stroke-opacity: 1; opacity: 1;"/><g class="slicetext"><text data-notex="1" class="slicetext" text-anchor="middle" x="0" y="0" style="font-family: 'Times New Roman'; font-size: 12px; fill: rgb(0, 0, 0); fill-opacity: 1; white-space: pre;" transform="translate(276.24928354151587,444.15752697582815)rotate(1.94399999999996)"><tspan class="line" dy="0em" x="0" y="0">Emotion</tspan><tspan class="line" dy="1.3em" x="0" y="0">6.76</tspan></text></g></g><g class="slice"><path class="surface" d="M312.31949325557594,425.33238588365157L319.7743665694699,466.66548235456446A210,210 0,0,0 392.337180143373,438.9854571135661L370.3697441146984,403.1883656908529A168,168 0,0,1 312.31949325557594,425.33238588365157Z" style="pointer-events: none; stroke-width: 1; fill: rgb(244, 251, 241); fill-opacity: 1; stroke: rgb(0, 0, 0); stroke-opacity: 1; opacity: 1;"/><g class="slicetext"><text data-notex="1" class="slicetext" text-anchor="middle" x="0" y="0" style="font-family: 'Times New Roman'; font-size: 12px; fill: rgb(0, 0, 0); fill-opacity: 1; white-space: pre;" transform="translate(348.1724703283938,432.15949696168184)rotate(-20.88000000000011)"><tspan class="line" dy="0em" x="0" y="0">Cognition</tspan><tspan class="line" dy="1.3em" x="0" y="0">5.92</tspan></text></g></g><g class="slice"><path class="surface" d="M370.3697441146984,403.1883656908529L392.337180143373,438.9854571135661A210,210 0,0,0 444.39185515179076,393.75734460399406L412.0134841214326,367.0058756831952A168,168 0,0,1 370.3697441146984,403.1883656908529Z" style="pointer-events: none; stroke-width: 1; fill: rgb(246, 252, 244); fill-opacity: 1; stroke: rgb(0, 0, 0); stroke-opacity: 1; opacity: 1;"/><g class="slicetext"><text data-notex="1" class="slicetext" text-anchor="middle" x="0" y="0" style="font-family: 'Times New Roman'; font-size: 12px; fill: rgb(0, 0, 0); fill-opacity: 1; white-space: pre;" transform="translate(411.55334605121766,408.53217644276526)scale(0.5698071892578581)rotate(-40.986000000000104)"><tspan class="line" dy="0em" x="0" y="0">Learning and Memory</tspan><tspan class="line" dy="1.3em" x="0" y="0">5.25</tspan></text></g></g></g></g><g class="glimages"/><defs id="topdefs-a23b13"><g class="clips"/></defs><g class="layer-above"><g class="imagelayer"/><g class="shapelayer"/></g><g class="infolayer"><g class="cb253c09 colorbar" transform="translate(10,50)"><rect class="cbbg" x="571.5" y="63" width="48.015625" height="295" style="fill: rgb(0, 0, 0); fill-opacity: 0; stroke: rgb(68, 68, 68); stroke-opacity: 1; stroke-width: 0;"/><g class="cbfills" transform="translate(0,93)"><rect class="cbfill gradient_filled" style="fill: url('#ga23b13-cb253c09');" x="582" y="0" width="15" height="254"/></g><g class="cblines" transform="translate(0,93)"/><g class="cbaxis crisp" transform="translate(0,-50)"><g class="ycb253c09tick"><text text-anchor="start" x="600.4" y="4.199999999999999" transform="translate(0,363.45000000000005)" style="font-family: 'Times New Roman'; font-size: 12px; fill: rgb(42, 63, 95); fill-opacity: 1; white-space: pre; opacity: 1;">10</text></g><g class="ycb253c09tick"><text text-anchor="start" x="600.4" y="4.199999999999999" style="font-family: 'Times New Roman'; font-size: 12px; fill: rgb(42, 63, 95); fill-opacity: 1; white-space: pre; opacity: 1;" transform="translate(0,294.71000000000004)">20</text></g><g class="ycb253c09tick"><text text-anchor="start" x="600.4" y="4.199999999999999" style="font-family: 'Times New Roman'; font-size: 12px; fill: rgb(42, 63, 95); fill-opacity: 1; white-space: pre; opacity: 1;" transform="translate(0,225.97000000000006)">30</text></g><g class="ycb253c09tick"><text text-anchor="start" x="600.4" y="4.199999999999999" style="font-family: 'Times New Roman'; font-size: 12px; fill: rgb(42, 63, 95); fill-opacity: 1; white-space: pre; opacity: 1;" transform="translate(0,157.23000000000005)">40</text></g></g><g class="cbtitleunshift" transform="translate(-10,-50)"><g class="cbtitle" transform="translate(-0.5,-0.5)"><text class="ycb253c09title" x="592.25" y="135.75" text-anchor="start" style="opacity: 1; font-family: 'Times New Roman'; font-size: 13px; fill: rgb(42, 63, 95); fill-opacity: 1; white-space: pre;">%</text></g></g><rect class="cboutline" x="582" y="93" width="15" height="254" style="stroke: rgb(68, 68, 68); stroke-opacity: 1; fill: none; stroke-width: 1;"/></g><g class="g-gtitle"><text class="gtitle" x="320" y="25" text-anchor="middle" dy="0em" style="opacity: 1; font-family: 'Times New Roman'; font-size: 16px; fill: rgb(42, 63, 95); fill-opacity: 1; white-space: pre;">Science Distribution by Category (2021) (%)</text></g></g></svg>