<svg class="main-svg" xmlns="http://www.w3.org/2000/svg" xmlns:xlink="http://www.w3.org/1999/xlink" width="1920" height="1440" style="" viewBox="0 0 640 480"><rect x="0" y="0" width="640" height="480" style="fill: rgb(255, 255, 255); fill-opacity: 1;"/><defs id="defs-b4866a"><g class="clips"/><g class="gradients"><linearGradient x1="0" y1="1" x2="0" y2="0" gradientUnits="objectBoundingBox" id="gb4866a-cb6c498b"><stop offset="0%" stop-color="rgb(255, 255, 217)" stop-opacity="1"/><stop offset="12.5%" stop-color="rgb(237, 248, 177)" stop-opacity="1"/><stop offset="25%" stop-color="rgb(199, 233, 180)" stop-opacity="1"/><stop offset="37.5%" stop-color="rgb(127, 205, 187)" stop-opacity="1"/><stop offset="50%" stop-color="rgb(65, 182, 196)" stop-opacity="1"/><stop offset="62.5%" stop-color="rgb(29, 145, 192)" stop-opacity="1"/><stop offset="75%" stop-color="rgb(34, 94, 168)" stop-opacity="1"/><stop offset="87.5%" stop-color="rgb(37, 52, 148)" stop-opacity="1"/><stop offset="100%" stop-color="rgb(8, 29, 88)" stop-opacity="1"/></linearGradient></g><g class="patterns"/></defs><g class="bglayer"/><g class="layer-below"><g class="imagelayer"/><g class="shapelayer"/></g><g class="cartesianlayer"/><g class="polarlayer"/><g class="smithlayer"/><g class="ternarylayer"/><g class="geolayer"/><g class="funnelarealayer"/><g class="pielayer"/><g class="iciclelayer"/><g class="treemaplayer"/><g class="sunburstlayer"><g class="trace sunburst" stroke-linejoin="round" style="opacity: 1;"><g class="slice"><path class="surface" d="M282.5,260A0,0 0,1,0 282.5,260A0,0 0,1,0 282.5,260ZM324.5,260A42,42 0,1,1 240.5,260A42,42 0,1,1 324.5,260Z" style="pointer-events: none; stroke-width: 1; fill: rgb(255, 255, 255); fill-opacity: 1; stroke: rgb(0, 0, 0); stroke-opacity: 1;"/><g class="slicetext"><text data-notex="1" class="slicetext" text-anchor="middle" x="0" y="0" style="font-family: 'Times New Roman'; font-size: 12px; fill: rgb(0, 0, 0); fill-opacity: 1; white-space: pre;" transform="translate(282.5,264)">99.99</text></g></g><g class="slice cursor-pointer"><path class="surface" d="M324.5,260L366.5,260A84,84 0,0,0 207.38360069955985,222.40310443484952L244.94180034977992,241.20155221742476A42,42 0,0,1 324.5,260Z" style="pointer-events: none; stroke-width: 1; fill: rgb(8, 29, 88); fill-opacity: 1; stroke: rgb(0, 0, 0); stroke-opacity: 1;"/><g class="slicetext"><text data-notex="1" class="slicetext" text-anchor="middle" x="0" y="0" style="font-family: 'Times New Roman'; font-size: 12px; fill: rgb(0, 0, 0); fill-opacity: 1; white-space: pre;" transform="translate(296.39623924462126,200.50855123861152)scale(0.9534132692482971)rotate(13.2943294329433)"><tspan class="line" dy="0em" x="0" y="0">Physical Sciences</tspan><tspan class="line" dy="1.3em" x="0" y="0">42.61</tspan></text></g></g><g class="slice cursor-pointer"><path class="surface" d="M244.94180034977992,241.20155221742476L207.38360069955985,222.40310443484952A84,84 0,0,0 299.00567003805435,342.3623873900877L290.75283501902715,301.1811936950438A42,42 0,0,1 244.94180034977992,241.20155221742476Z" style="pointer-events: none; stroke-width: 1; fill: rgb(35, 74, 159); fill-opacity: 1; stroke: rgb(0, 0, 0); stroke-opacity: 1;"/><g class="slicetext"><text data-notex="1" class="slicetext" text-anchor="middle" x="0" y="0" style="font-family: 'Times New Roman'; font-size: 12px; fill: rgb(0, 0, 0); fill-opacity: 1; white-space: pre;" transform="translate(238.5232265455456,293.37214899631397)rotate(52.628262826282594)"><tspan class="line" dy="0em" x="0" y="0">Life Sciences</tspan><tspan class="line" dy="1.3em" x="0" y="0">35.53</tspan></text></g></g><g class="slice cursor-pointer"><path class="surface" d="M290.75283501902715,301.1811936950438L299.00567003805435,342.3623873900877A84,84 0,0,0 366.5,260L324.5,260A42,42 0,0,1 290.75283501902715,301.1811936950438Z" style="pointer-events: none; stroke-width: 1; fill: rgb(95, 193, 192); fill-opacity: 1; stroke: rgb(0, 0, 0); stroke-opacity: 1;"/><g class="slicetext"><text data-notex="1" class="slicetext" text-anchor="middle" x="0" y="0" style="font-family: 'Times New Roman'; font-size: 12px; fill: rgb(0, 0, 0); fill-opacity: 1; white-space: pre;" transform="translate(327.3722313118467,296.9545412907967)scale(0.8610701955096144)rotate(-50.666066606660706)"><tspan class="line" dy="0em" x="0" y="0">Applied Sciences</tspan><tspan class="line" dy="1.3em" x="0" y="0">21.85</tspan></text></g></g><g class="slice"><path class="surface" d="M366.5,260L408.5,260A126,126 0,0,0 169.82540104933975,203.60465665227426L207.38360069955985,222.40310443484952A84,84 0,0,1 366.5,260Z" style="pointer-events: none; stroke-width: 1; fill: rgb(8, 29, 88); fill-opacity: 1; stroke: rgb(0, 0, 0); stroke-opacity: 1; opacity: 1;"/><g class="slicetext"><text data-notex="1" class="slicetext" text-anchor="middle" x="0" y="0" style="font-family: 'Times New Roman'; font-size: 12px; fill: rgb(0, 0, 0); fill-opacity: 1; white-space: pre;" transform="translate(307.0570892807507,156.07025886269216)rotate(13.2943294329433)"><tspan class="line" dy="0em" x="0" y="0">Chemistry</tspan><tspan class="line" dy="1.3em" x="0" y="0">42.61</tspan></text></g></g><g class="slice cursor-pointer"><path class="surface" d="M207.38360069955985,222.40310443484952L169.82540104933975,203.60465665227426A126,126 0,0,0 186.56618920596702,341.6866203642596L218.54412613731134,314.4577469095064A84,84 0,0,1 207.38360069955985,222.40310443484952Z" style="pointer-events: none; stroke-width: 1; fill: rgb(140, 210, 186); fill-opacity: 1; stroke: rgb(0, 0, 0); stroke-opacity: 1;"/><g class="slicetext"><text data-notex="1" class="slicetext" text-anchor="middle" x="0" y="0" style="font-family: 'Times New Roman'; font-size: 12px; fill: rgb(0, 0, 0); fill-opacity: 1; white-space: pre;" transform="translate(185.19042047285237,272.301285025461)rotate(83.08730873087313)"><tspan class="line" dy="0em" x="0" y="0">Neuroscience</tspan><tspan class="line" dy="1.3em" x="0" y="0">18.61</tspan></text></g></g><g class="slice cursor-pointer"><path class="surface" d="M218.54412613731134,314.4577469095064L186.56618920596702,341.6866203642596A126,126 0,0,0 307.2585050570815,383.54358108513156L299.00567003805435,342.3623873900877A84,84 0,0,1 218.54412613731134,314.4577469095064Z" style="pointer-events: none; stroke-width: 1; fill: rgb(166, 220, 183); fill-opacity: 1; stroke: rgb(0, 0, 0); stroke-opacity: 1;"/><g class="slicetext"><text data-notex="1" class="slicetext" text-anchor="middle" x="0" y="0" style="font-family: 'Times New Roman'; font-size: 12px; fill: rgb(0, 0, 0); fill-opacity: 1; white-space: pre;" transform="translate(249.76935913911126,354.3770588393904)rotate(19.126912691269126)"><tspan class="line" dy="0em" x="0" y="0">Biology</tspan><tspan class="line" dy="1.3em" x="0" y="0">16.92</tspan></text></g></g><g class="slice cursor-pointer"><path class="surface" d="M299.00567003805435,342.3623873900877L307.2585050570815,383.54358108513156A126,126 0,0,0 398.9674398235661,308.0763503288676L360.1449598823774,292.050900219245A84,84 0,0,1 299.00567003805435,342.3623873900877Z" style="pointer-events: none; stroke-width: 1; fill: rgb(186, 228, 181); fill-opacity: 1; stroke: rgb(0, 0, 0); stroke-opacity: 1;"/><g class="slicetext"><text data-notex="1" class="slicetext" text-anchor="middle" x="0" y="0" style="font-family: 'Times New Roman'; font-size: 12px; fill: rgb(0, 0, 0); fill-opacity: 1; white-space: pre;" transform="translate(344.9731941142027,335.9183824059662)scale(0.9971554118409821)rotate(-39.45094509450951)"><tspan class="line" dy="0em" x="0" y="0">Computer Science</tspan><tspan class="line" dy="1.3em" x="0" y="0">15.62</tspan></text></g></g><g class="slice"><path class="surface" d="M360.1449598823774,292.050900219245L398.9674398235661,308.0763503288676A126,126 0,0,0 408.5,260.00000000000006L366.5,260A84,84 0,0,1 360.1449598823774,292.050900219245Z" style="pointer-events: none; stroke-width: 1; fill: rgb(252, 254, 211); fill-opacity: 1; stroke: rgb(0, 0, 0); stroke-opacity: 1; opacity: 1;"/><g class="slicetext"><text data-notex="1" class="slicetext" text-anchor="middle" x="0" y="0" style="font-family: 'Times New Roman'; font-size: 12px; fill: rgb(0, 0, 0); fill-opacity: 1; white-space: pre;" transform="translate(385.7803477352127,277.8608137946169)scale(0.6748486207638216)rotate(11.2151215121512)"><tspan class="line" dy="0em" x="0" y="0">Engineering</tspan><tspan class="line" dy="1.3em" x="0" y="0">6.23</tspan></text></g></g><g class="slice"><path class="surface" d="M169.82540104933975,203.60465665227426L132.26720139911967,184.80620886969902A168,168 0,0,0 116.95695654515299,288.6269237555598L158.34271740886473,281.47019281666985A126,126 0,0,1 169.82540104933975,203.60465665227426Z" style="pointer-events: none; stroke-width: 1; fill: rgb(237, 248, 177); fill-opacity: 1; stroke: rgb(0, 0, 0); stroke-opacity: 1; opacity: 1;"/><g class="slicetext"><text data-notex="1" class="slicetext" text-anchor="middle" x="0" y="0" style="font-family: 'Times New Roman'; font-size: 12px; fill: rgb(0, 0, 0); fill-opacity: 1; white-space: pre;" transform="translate(133.25100483506372,237.65137890168745)scale(0.9987715579474957)rotate(-81.61116111611159)"><tspan class="line" dy="0em" x="0" y="0">Neural Networks</tspan><tspan class="line" dy="1.3em" x="0" y="0">10.11</tspan></text></g></g><g class="slice"><path class="surface" d="M158.34271740886473,281.47019281666985L116.95695654515299,288.6269237555598A168,168 0,0,0 154.58825227462268,368.91549381901285L186.56618920596702,341.6866203642596A126,126 0,0,1 158.34271740886473,281.47019281666985Z" style="pointer-events: none; stroke-width: 1; fill: rgb(243, 251, 191); fill-opacity: 1; stroke: rgb(0, 0, 0); stroke-opacity: 1; opacity: 1;"/><g class="slicetext"><text data-notex="1" class="slicetext" text-anchor="middle" x="0" y="0" style="font-family: 'Times New Roman'; font-size: 12px; fill: rgb(0, 0, 0); fill-opacity: 1; white-space: pre;" transform="translate(150.94031899580344,321.66209284872014)scale(0.9772918849817852)rotate(64.88748874887483)"><tspan class="line" dy="0em" x="0" y="0">Brain Function</tspan><tspan class="line" dy="1.3em" x="0" y="0">8.5</tspan></text></g></g><g class="slice cursor-pointer"><path class="surface" d="M186.56618920596702,341.6866203642596L154.58825227462268,368.91549381901285A168,168 0,0,0 315.5113400761087,424.7247747801754L307.2585050570815,383.54358108513156A126,126 0,0,1 186.56618920596702,341.6866203642596Z" style="pointer-events: none; stroke-width: 1; fill: rgb(166, 220, 183); fill-opacity: 1; stroke: rgb(0, 0, 0); stroke-opacity: 1;"/><g class="slicetext"><text data-notex="1" class="slicetext" text-anchor="middle" x="0" y="0" style="font-family: 'Times New Roman'; font-size: 12px; fill: rgb(0, 0, 0); fill-opacity: 1; white-space: pre;" transform="translate(235.93204316240715,394.27622212382056)rotate(19.126912691269126)"><tspan class="line" dy="0em" x="0" y="0">Ecology</tspan><tspan class="line" dy="1.3em" x="0" y="0">16.92</tspan></text></g></g><g class="slice"><path class="surface" d="M307.2585050570815,383.54358108513156L315.5113400761087,424.7247747801754A168,168 0,0,0 395.71184144936643,384.12525510807023L367.40888108702484,353.0939413310527A126,126 0,0,1 307.2585050570815,383.54358108513156Z" style="pointer-events: none; stroke-width: 1; fill: rgb(243, 250, 190); fill-opacity: 1; stroke: rgb(0, 0, 0); stroke-opacity: 1; opacity: 1;"/><g class="slicetext"><text data-notex="1" class="slicetext" text-anchor="middle" x="0" y="0" style="font-family: 'Times New Roman'; font-size: 12px; fill: rgb(0, 0, 0); fill-opacity: 1; white-space: pre;" transform="translate(350.0181984097731,393.3757987290523)scale(0.7288876150162562)rotate(-26.849684968496945)"><tspan class="line" dy="0em" x="0" y="0">Artificial Intelligence</tspan><tspan class="line" dy="1.3em" x="0" y="0">8.62</tspan></text></g></g><g class="slice"><path class="surface" d="M367.40888108702484,353.0939413310527L395.71184144936643,384.12525510807023A168,168 0,0,0 437.7899197647548,324.1018004384901L398.9674398235661,308.0763503288676A126,126 0,0,1 367.40888108702484,353.0939413310527Z" style="pointer-events: none; stroke-width: 1; fill: rgb(249, 253, 204); fill-opacity: 1; stroke: rgb(0, 0, 0); stroke-opacity: 1; opacity: 1;"/><g class="slicetext"><text data-notex="1" class="slicetext" text-anchor="middle" x="0" y="0" style="font-family: 'Times New Roman'; font-size: 12px; fill: rgb(0, 0, 0); fill-opacity: 1; white-space: pre;" transform="translate(401.5660630166089,343.66891711461744)rotate(-54.968496849684925)"><tspan class="line" dy="0em" x="0" y="0">Algorithms</tspan><tspan class="line" dy="1.3em" x="0" y="0">7</tspan></text></g></g><g class="slice"><path class="surface" d="M154.58825227462268,368.91549381901285L122.61031534327833,396.1443672737661A210,210 0,0,0 180.83139314162037,443.74845408730994L201.1651145132963,406.9987632698479A168,168 0,0,1 154.58825227462268,368.91549381901285Z" style="pointer-events: none; stroke-width: 1; fill: rgb(254, 255, 215); fill-opacity: 1; stroke: rgb(0, 0, 0); stroke-opacity: 1; opacity: 1;"/><g class="slicetext"><text data-notex="1" class="slicetext" text-anchor="middle" x="0" y="0" style="font-family: 'Times New Roman'; font-size: 12px; fill: rgb(0, 0, 0); fill-opacity: 1; white-space: pre;" transform="translate(163.6156237535516,405.398787830178)rotate(39.27092709270926)"><tspan class="line" dy="0em" x="0" y="0">Biodiversity</tspan><tspan class="line" dy="1.3em" x="0" y="0">5.73</tspan></text></g></g><g class="slice"><path class="surface" d="M201.1651145132963,406.9987632698479L180.83139314162037,443.74845408730994A210,210 0,0,0 251.30831336250898,467.6706013972814L257.5466506900072,426.13648111782516A168,168 0,0,1 201.1651145132963,406.9987632698479Z" style="pointer-events: none; stroke-width: 1; fill: rgb(254, 255, 216); fill-opacity: 1; stroke: rgb(0, 0, 0); stroke-opacity: 1; opacity: 1;"/><g class="slicetext"><text data-notex="1" class="slicetext" text-anchor="middle" x="0" y="0" style="font-family: 'Times New Roman'; font-size: 12px; fill: rgb(0, 0, 0); fill-opacity: 1; white-space: pre;" transform="translate(221.73835926257098,439.0095701382575)scale(0.9724766720277616)rotate(18.748874887488682)"><tspan class="line" dy="0em" x="0" y="0">Conservation</tspan><tspan class="line" dy="1.3em" x="0" y="0">5.67</tspan></text></g></g><g class="slice"><path class="surface" d="M257.5466506900072,426.13648111782516L251.30831336250898,467.6706013972814A210,210 0,0,0 323.764175095136,465.9059684752192L315.5113400761088,424.7247747801753A168,168 0,0,1 257.5466506900072,426.13648111782516Z" style="pointer-events: none; stroke-width: 1; fill: rgb(255, 255, 217); fill-opacity: 1; stroke: rgb(0, 0, 0); stroke-opacity: 1; opacity: 1;"/><g class="slicetext"><text data-notex="1" class="slicetext" text-anchor="middle" x="0" y="0" style="font-family: 'Times New Roman'; font-size: 12px; fill: rgb(0, 0, 0); fill-opacity: 1; white-space: pre;" transform="translate(286.9120964115788,447.8991704992932)rotate(-1.3951395139514489)"><tspan class="line" dy="0em" x="0" y="0">Ecosystems</tspan><tspan class="line" dy="1.3em" x="0" y="0">5.52</tspan></text></g></g></g></g><g class="glimages"/><defs id="topdefs-b4866a"><g class="clips"/></defs><g class="layer-above"><g class="imagelayer"/><g class="shapelayer"/></g><g class="infolayer"><g class="cb6c498b colorbar" transform="translate(10,50)"><rect class="cbbg" x="571.5" y="63" width="48.015625" height="295" style="fill: rgb(0, 0, 0); fill-opacity: 0; stroke: rgb(68, 68, 68); stroke-opacity: 1; stroke-width: 0;"/><g class="cbfills" transform="translate(0,93)"><rect class="cbfill gradient_filled" style="fill: url('#gb4866a-cb6c498b');" x="582" y="0" width="15" height="254"/></g><g class="cblines" transform="translate(0,93)"/><g class="cbaxis crisp" transform="translate(0,-50)"><g class="ycb6c498btick"><text text-anchor="start" x="600.4" y="4.199999999999999" transform="translate(0,366.32000000000005)" style="font-family: 'Times New Roman'; font-size: 12px; fill: rgb(42, 63, 95); fill-opacity: 1; white-space: pre; opacity: 1;">10</text></g><g class="ycb6c498btick"><text text-anchor="start" x="600.4" y="4.199999999999999" style="font-family: 'Times New Roman'; font-size: 12px; fill: rgb(42, 63, 95); fill-opacity: 1; white-space: pre; opacity: 1;" transform="translate(0,297.84000000000003)">20</text></g><g class="ycb6c498btick"><text text-anchor="start" x="600.4" y="4.199999999999999" style="font-family: 'Times New Roman'; font-size: 12px; fill: rgb(42, 63, 95); fill-opacity: 1; white-space: pre; opacity: 1;" transform="translate(0,229.36000000000007)">30</text></g><g class="ycb6c498btick"><text text-anchor="start" x="600.4" y="4.199999999999999" style="font-family: 'Times New Roman'; font-size: 12px; fill: rgb(42, 63, 95); fill-opacity: 1; white-space: pre; opacity: 1;" transform="translate(0,160.87000000000006)">40</text></g></g><g class="cbtitleunshift" transform="translate(-10,-50)"><g class="cbtitle" transform="translate(-0.5,-0.5)"><text class="ycb6c498btitle" x="592.25" y="135.75" text-anchor="start" style="opacity: 1; font-family: 'Times New Roman'; font-size: 13px; fill: rgb(42, 63, 95); fill-opacity: 1; white-space: pre;">%</text></g></g><rect class="cboutline" x="582" y="93" width="15" height="254" style="stroke: rgb(68, 68, 68); stroke-opacity: 1; fill: none; stroke-width: 1;"/></g><g class="g-gtitle"><text class="gtitle" x="320" y="25" text-anchor="middle" dy="0em" style="opacity: 1; font-family: 'Times New Roman'; font-size: 16px; fill: rgb(42, 63, 95); fill-opacity: 1; white-space: pre;">Science Distribution by Category (2021) (%)</text></g></g></svg>