<svg class="main-svg" xmlns="http://www.w3.org/2000/svg" xmlns:xlink="http://www.w3.org/1999/xlink" width="1920" height="1440" style="" viewBox="0 0 640 480"><rect x="0" y="0" width="640" height="480" style="fill: rgb(255, 255, 255); fill-opacity: 1;"/><defs id="defs-d89c98"><g class="clips"/><g class="gradients"><linearGradient x1="0" y1="1" x2="0" y2="0" gradientUnits="objectBoundingBox" id="gd89c98-cb44902a"><stop offset="0%" stop-color="rgb(255, 245, 240)" stop-opacity="1"/><stop offset="12.5%" stop-color="rgb(254, 224, 210)" stop-opacity="1"/><stop offset="25%" stop-color="rgb(252, 187, 161)" stop-opacity="1"/><stop offset="37.5%" stop-color="rgb(252, 146, 114)" stop-opacity="1"/><stop offset="50%" stop-color="rgb(251, 106, 74)" stop-opacity="1"/><stop offset="62.5%" stop-color="rgb(239, 59, 44)" stop-opacity="1"/><stop offset="75%" stop-color="rgb(203, 24, 29)" stop-opacity="1"/><stop offset="87.5%" stop-color="rgb(165, 15, 21)" stop-opacity="1"/><stop offset="100%" stop-color="rgb(103, 0, 13)" stop-opacity="1"/></linearGradient></g><g class="patterns"/></defs><g class="bglayer"/><g class="layer-below"><g class="imagelayer"/><g class="shapelayer"/></g><g class="cartesianlayer"/><g class="polarlayer"/><g class="smithlayer"/><g class="ternarylayer"/><g class="geolayer"/><g class="funnelarealayer"/><g class="pielayer"/><g class="iciclelayer"/><g class="treemaplayer"/><g class="sunburstlayer"><g class="trace sunburst" stroke-linejoin="round" style="opacity: 1;"><g class="slice"><path class="surface" d="M282.5,260A0,0 0,1,0 282.5,260A0,0 0,1,0 282.5,260ZM324.5,260A42,42 0,1,1 240.5,260A42,42 0,1,1 324.5,260Z" style="pointer-events: none; stroke-width: 1; fill: rgb(255, 255, 255); fill-opacity: 1; stroke: rgb(0, 0, 0); stroke-opacity: 1;"/><g class="slicetext"><text data-notex="1" class="slicetext" text-anchor="middle" x="0" y="0" style="font-family: 'Times New Roman'; font-size: 12px; fill: rgb(0, 0, 0); fill-opacity: 1; white-space: pre;" transform="translate(282.5,264)">100</text></g></g><g class="slice cursor-pointer"><path class="surface" d="M324.5,260L366.5,260A84,84 0,0,0 218.52318124327454,205.56686062912502L250.51159062163725,232.7834303145625A42,42 0,0,1 324.5,260Z" style="pointer-events: none; stroke-width: 1; fill: rgb(103, 0, 13); fill-opacity: 1; stroke: rgb(0, 0, 0); stroke-opacity: 1;"/><g class="slicetext"><text data-notex="1" class="slicetext" text-anchor="middle" x="0" y="0" style="font-family: 'Times New Roman'; font-size: 12px; fill: rgb(0, 0, 0); fill-opacity: 1; white-space: pre;" transform="translate(303.2881270810688,202.58267801546336)scale(0.9518402694752293)rotate(20.196000000000026)"><tspan class="line" dy="0em" x="0" y="0">User Engagement</tspan><tspan class="line" dy="1.3em" x="0" y="0">38.78</tspan></text></g></g><g class="slice cursor-pointer"><path class="surface" d="M250.51159062163725,232.7834303145625L218.52318124327454,205.56686062912502A84,84 0,0,0 286.82594355640435,343.88853445106076L284.6629717782022,301.9442672255304A42,42 0,0,1 250.51159062163725,232.7834303145625Z" style="pointer-events: none; stroke-width: 1; fill: rgb(129, 6, 16); fill-opacity: 1; stroke: rgb(0, 0, 0); stroke-opacity: 1;"/><g class="slicetext"><text data-notex="1" class="slicetext" text-anchor="middle" x="0" y="0" style="font-family: 'Times New Roman'; font-size: 12px; fill: rgb(0, 0, 0); fill-opacity: 1; white-space: pre;" transform="translate(234.05689458331116,283.9210372717545)scale(0.9710832464416744)rotate(63.719999999999914)"><tspan class="line" dy="0em" x="0" y="0">Content Creation</tspan><tspan class="line" dy="1.3em" x="0" y="0">37.04</tspan></text></g></g><g class="slice cursor-pointer"><path class="surface" d="M284.6629717782022,301.9442672255304L286.82594355640435,343.88853445106076A84,84 0,0,0 366.5,259.99999999999994L324.5,260A42,42 0,0,1 284.6629717782022,301.9442672255304Z" style="pointer-events: none; stroke-width: 1; fill: rgb(245, 81, 58); fill-opacity: 1; stroke: rgb(0, 0, 0); stroke-opacity: 1;"/><g class="slicetext"><text data-notex="1" class="slicetext" text-anchor="middle" x="0" y="0" style="font-family: 'Times New Roman'; font-size: 12px; fill: rgb(0, 0, 0); fill-opacity: 1; white-space: pre;" transform="translate(323.4946392642191,299.16137491434864)rotate(-46.476)"><tspan class="line" dy="0em" x="0" y="0">Platforms</tspan><tspan class="line" dy="1.3em" x="0" y="0">24.18</tspan></text></g></g><g class="slice"><path class="surface" d="M366.5,260L408.5,260A126,126 0,0,0 186.53477186491182,178.35029094368753L218.52318124327454,205.56686062912502A84,84 0,0,1 366.5,260Z" style="pointer-events: none; stroke-width: 1; fill: rgb(103, 0, 13); fill-opacity: 1; stroke: rgb(0, 0, 0); stroke-opacity: 1; opacity: 1;"/><g class="slicetext"><text data-notex="1" class="slicetext" text-anchor="middle" x="0" y="0" style="font-family: 'Times New Roman'; font-size: 12px; fill: rgb(0, 0, 0); fill-opacity: 1; white-space: pre;" transform="translate(317.5244172450821,164.3533880198774)scale(0.9101449005560305)rotate(20.196000000000026)"><tspan class="line" dy="0em" x="0" y="0">Reactions and Comments</tspan><tspan class="line" dy="1.3em" x="0" y="0">38.78</tspan></text></g></g><g class="slice cursor-pointer"><path class="surface" d="M218.52318124327454,205.56686062912502L186.53477186491182,178.35029094368753A126,126 0,0,0 212.005235479127,364.43413319L235.503490319418,329.62275546A84,84 0,0,1 218.52318124327454,205.56686062912502Z" style="pointer-events: none; stroke-width: 1; fill: rgb(233, 54, 42); fill-opacity: 1; stroke: rgb(0, 0, 0); stroke-opacity: 1;"/><g class="slicetext"><text data-notex="1" class="slicetext" text-anchor="middle" x="0" y="0" style="font-family: 'Times New Roman'; font-size: 12px; fill: rgb(0, 0, 0); fill-opacity: 1; white-space: pre;" transform="translate(184.40990135866812,273.42620755353806)rotate(82.20600000000002)"><tspan class="line" dy="0em" x="0" y="0">Podcasting</tspan><tspan class="line" dy="1.3em" x="0" y="0">26.77</tspan></text></g></g><g class="slice cursor-pointer"><path class="surface" d="M235.503490319418,329.62275546L212.005235479127,364.43413319A126,126 0,0,0 288.98891533460653,385.8328016765911L286.82594355640435,343.88853445106076A84,84 0,0,1 235.503490319418,329.62275546Z" style="pointer-events: none; stroke-width: 1; fill: rgb(254, 215, 198); fill-opacity: 1; stroke: rgb(0, 0, 0); stroke-opacity: 1;"/><g class="slicetext"><text data-notex="1" class="slicetext" text-anchor="middle" x="0" y="0" style="font-family: 'Times New Roman'; font-size: 12px; fill: rgb(0, 0, 0); fill-opacity: 1; white-space: pre;" transform="translate(253.83400301133227,362.6457124610401)scale(0.7881894205433152)rotate(15.533999999999878)"><tspan class="line" dy="0em" x="0" y="0">Video Platforms</tspan><tspan class="line" dy="1.3em" x="0" y="0">10.27</tspan></text></g></g><g class="slice cursor-pointer"><path class="surface" d="M286.82594355640435,343.88853445106076L288.98891533460653,385.8328016765911A126,126 0,0,0 388.2012276607079,328.58024840301476L352.9674851071386,305.72016560200984A84,84 0,0,1 286.82594355640435,343.88853445106076Z" style="pointer-events: none; stroke-width: 1; fill: rgb(252, 172, 144); fill-opacity: 1; stroke: rgb(0, 0, 0); stroke-opacity: 1;"/><g class="slicetext"><text data-notex="1" class="slicetext" text-anchor="middle" x="0" y="0" style="font-family: 'Times New Roman'; font-size: 12px; fill: rgb(0, 0, 0); fill-opacity: 1; white-space: pre;" transform="translate(331.5841263350691,345.3855802828953)rotate(-29.988000000000056)"><tspan class="line" dy="0em" x="0" y="0">Messaging Apps</tspan><tspan class="line" dy="1.3em" x="0" y="0">15.02</tspan></text></g></g><g class="slice"><path class="surface" d="M352.9674851071386,305.72016560200984L388.2012276607079,328.58024840301476A126,126 0,0,0 408.5,259.99999999999994L366.5,259.99999999999994A84,84 0,0,1 352.9674851071386,305.72016560200984Z" style="pointer-events: none; stroke-width: 1; fill: rgb(254, 224, 211); fill-opacity: 1; stroke: rgb(0, 0, 0); stroke-opacity: 1; opacity: 1;"/><g class="slicetext"><text data-notex="1" class="slicetext" text-anchor="middle" x="0" y="0" style="font-family: 'Times New Roman'; font-size: 12px; fill: rgb(0, 0, 0); fill-opacity: 1; white-space: pre;" transform="translate(386.79640315626386,290.9914145599413)scale(0.7081980619795476)rotate(-73.51200000000006)"><tspan class="line" dy="0em" x="0" y="0">Social Networks</tspan><tspan class="line" dy="1.3em" x="0" y="0">9.16</tspan></text></g></g><g class="slice cursor-pointer"><path class="surface" d="M186.53477186491182,178.35029094368753L154.54636248654907,151.13372125825003A168,168 0,0,0 188.506980638836,399.24551092L212.005235479127,364.43413319A126,126 0,0,1 186.53477186491182,178.35029094368753Z" style="pointer-events: none; stroke-width: 1; fill: rgb(233, 54, 42); fill-opacity: 1; stroke: rgb(0, 0, 0); stroke-opacity: 1;"/><g class="slicetext"><text data-notex="1" class="slicetext" text-anchor="middle" x="0" y="0" style="font-family: 'Times New Roman'; font-size: 12px; fill: rgb(0, 0, 0); fill-opacity: 1; white-space: pre;" transform="translate(143.59018063097767,278.84786673872054)rotate(82.20600000000002)"><tspan class="line" dy="0em" x="0" y="0">Apple Podcasts</tspan><tspan class="line" dy="1.3em" x="0" y="0">26.77</tspan></text></g></g><g class="slice"><path class="surface" d="M212.005235479127,364.43413319L188.506980638836,399.24551092A168,168 0,0,0 238.67862694329736,422.18411532399L249.63397020747303,381.63808649299256A126,126 0,0,1 212.005235479127,364.43413319Z" style="pointer-events: none; stroke-width: 1; fill: rgb(255, 244, 238); fill-opacity: 1; stroke: rgb(0, 0, 0); stroke-opacity: 1; opacity: 1;"/><g class="slicetext"><text data-notex="1" class="slicetext" text-anchor="middle" x="0" y="0" style="font-family: 'Times New Roman'; font-size: 12px; fill: rgb(0, 0, 0); fill-opacity: 1; white-space: pre;" transform="translate(221.22229435569028,394.0274813493202)scale(0.9974702904200811)rotate(24.569999999999936)"><tspan class="line" dy="0em" x="0" y="0">YouTube</tspan><tspan class="line" dy="1.3em" x="0" y="0">5.25</tspan></text></g></g><g class="slice"><path class="surface" d="M249.63397020747303,381.63808649299256L238.67862694329736,422.18411532399A168,168 0,0,0 291.1518871128087,427.77706890212147L288.98891533460653,385.8328016765911A126,126 0,0,1 249.63397020747303,381.63808649299256Z" style="pointer-events: none; stroke-width: 1; fill: rgb(255, 245, 240); fill-opacity: 1; stroke: rgb(0, 0, 0); stroke-opacity: 1; opacity: 1;"/><g class="slicetext"><text data-notex="1" class="slicetext" text-anchor="middle" x="0" y="0" style="font-family: 'Times New Roman'; font-size: 12px; fill: rgb(0, 0, 0); fill-opacity: 1; white-space: pre;" transform="translate(267.1182427936477,404.31211281800694)rotate(6.083999999999946)"><tspan class="line" dy="0em" x="0" y="0">TikTok</tspan><tspan class="line" dy="1.3em" x="0" y="0">5.02</tspan></text></g></g><g class="slice"><path class="surface" d="M288.98891533460653,385.8328016765911L291.1518871128087,427.77706890212147A168,168 0,0,0 376.75532382896995,399.06809098386304L353.19149287172746,364.3010682378973A126,126 0,0,1 288.98891533460653,385.8328016765911Z" style="pointer-events: none; stroke-width: 1; fill: rgb(254, 227, 214); fill-opacity: 1; stroke: rgb(0, 0, 0); stroke-opacity: 1; opacity: 1;"/><g class="slicetext"><text data-notex="1" class="slicetext" text-anchor="middle" x="0" y="0" style="font-family: 'Times New Roman'; font-size: 12px; fill: rgb(0, 0, 0); fill-opacity: 1; white-space: pre;" transform="translate(327.50333243354686,394.1893790493115)rotate(-18.540000000000077)"><tspan class="line" dy="0em" x="0" y="0">WhatsApp</tspan><tspan class="line" dy="1.3em" x="0" y="0">8.66</tspan></text></g></g><g class="slice"><path class="surface" d="M353.19149287172746,364.3010682378973L376.75532382896995,399.06809098386304A168,168 0,0,0 423.43497021427714,351.4403312040197L388.2012276607079,328.58024840301476A126,126 0,0,1 353.19149287172746,364.3010682378973Z" style="pointer-events: none; stroke-width: 1; fill: rgb(255, 238, 230); fill-opacity: 1; stroke: rgb(0, 0, 0); stroke-opacity: 1; opacity: 1;"/><g class="slicetext"><text data-notex="1" class="slicetext" text-anchor="middle" x="0" y="0" style="font-family: 'Times New Roman'; font-size: 12px; fill: rgb(0, 0, 0); fill-opacity: 1; white-space: pre;" transform="translate(385.74216735955247,361.6463957470979)rotate(-45.57600000000002)"><tspan class="line" dy="0em" x="0" y="0">Telegram</tspan><tspan class="line" dy="1.3em" x="0" y="0">6.36</tspan></text></g></g><g class="slice"><path class="surface" d="M154.54636248654907,151.13372125825003L122.55795310818633,123.91715157281254A210,210 0,0,0 94.85250074769971,354.2783963819812L132.38200059815978,335.422717105585A168,168 0,0,1 154.54636248654907,151.13372125825003Z" style="pointer-events: none; stroke-width: 1; fill: rgb(252, 137, 105); fill-opacity: 1; stroke: rgb(0, 0, 0); stroke-opacity: 1; opacity: 1;"/><g class="slicetext"><text data-notex="1" class="slicetext" text-anchor="middle" x="0" y="0" style="font-family: 'Times New Roman'; font-size: 12px; fill: rgb(0, 0, 0); fill-opacity: 1; white-space: pre;" transform="translate(93.06880357444871,237.38243256212394)rotate(-83.14200000000005)"><tspan class="line" dy="0em" x="0" y="0">Curated Lists</tspan><tspan class="line" dy="1.3em" x="0" y="0">18.63</tspan></text></g></g><g class="slice"><path class="surface" d="M132.38200059815978,335.422717105585L94.85250074769971,354.2783963819812A210,210 0,0,0 165.00872579854502,434.05688865L188.506980638836,399.24551092A168,168 0,0,1 132.38200059815978,335.422717105585Z" style="pointer-events: none; stroke-width: 1; fill: rgb(254, 229, 218); fill-opacity: 1; stroke: rgb(0, 0, 0); stroke-opacity: 1; opacity: 1;"/><g class="slicetext"><text data-notex="1" class="slicetext" text-anchor="middle" x="0" y="0" style="font-family: 'Times New Roman'; font-size: 12px; fill: rgb(0, 0, 0); fill-opacity: 1; white-space: pre;" transform="translate(142.54200273510588,382.86161102814737)scale(0.9874354059478666)rotate(48.672000000000025)"><tspan class="line" dy="0em" x="0" y="0">Educational Series</tspan><tspan class="line" dy="1.3em" x="0" y="0">8.14</tspan></text></g></g></g></g><g class="glimages"/><defs id="topdefs-d89c98"><g class="clips"/></defs><g class="layer-above"><g class="imagelayer"/><g class="shapelayer"/></g><g class="infolayer"><g class="cb44902a colorbar" transform="translate(10,50)"><rect class="cbbg" x="571.5" y="63" width="48.015625" height="295" style="fill: rgb(0, 0, 0); fill-opacity: 0; stroke: rgb(68, 68, 68); stroke-opacity: 1; stroke-width: 0;"/><g class="cbfills" transform="translate(0,93)"><rect class="cbfill gradient_filled" style="fill: url('#gd89c98-cb44902a');" x="582" y="0" width="15" height="254"/></g><g class="cblines" transform="translate(0,93)"/><g class="cbaxis crisp" transform="translate(0,-50)"><g class="ycb44902atick"><text text-anchor="start" x="600.4" y="4.199999999999999" transform="translate(0,359.5300000000001)" style="font-family: 'Times New Roman'; font-size: 12px; fill: rgb(42, 63, 95); fill-opacity: 1; white-space: pre; opacity: 1;">10</text></g><g class="ycb44902atick"><text text-anchor="start" x="600.4" y="4.199999999999999" style="font-family: 'Times New Roman'; font-size: 12px; fill: rgb(42, 63, 95); fill-opacity: 1; white-space: pre; opacity: 1;" transform="translate(0,321.9100000000001)">15</text></g><g class="ycb44902atick"><text text-anchor="start" x="600.4" y="4.199999999999999" style="font-family: 'Times New Roman'; font-size: 12px; fill: rgb(42, 63, 95); fill-opacity: 1; white-space: pre; opacity: 1;" transform="translate(0,284.30000000000007)">20</text></g><g class="ycb44902atick"><text text-anchor="start" x="600.4" y="4.199999999999999" style="font-family: 'Times New Roman'; font-size: 12px; fill: rgb(42, 63, 95); fill-opacity: 1; white-space: pre; opacity: 1;" transform="translate(0,246.68000000000006)">25</text></g><g class="ycb44902atick"><text text-anchor="start" x="600.4" y="4.199999999999999" style="font-family: 'Times New Roman'; font-size: 12px; fill: rgb(42, 63, 95); fill-opacity: 1; white-space: pre; opacity: 1;" transform="translate(0,209.06000000000006)">30</text></g><g class="ycb44902atick"><text text-anchor="start" x="600.4" y="4.199999999999999" style="font-family: 'Times New Roman'; font-size: 12px; fill: rgb(42, 63, 95); fill-opacity: 1; white-space: pre; opacity: 1;" transform="translate(0,171.44000000000005)">35</text></g></g><g class="cbtitleunshift" transform="translate(-10,-50)"><g class="cbtitle" transform="translate(-0.5,-0.5)"><text class="ycb44902atitle" x="592.25" y="135.75" text-anchor="start" style="opacity: 1; font-family: 'Times New Roman'; font-size: 13px; fill: rgb(42, 63, 95); fill-opacity: 1; white-space: pre;">%</text></g></g><rect class="cboutline" x="582" y="93" width="15" height="254" style="stroke: rgb(68, 68, 68); stroke-opacity: 1; fill: none; stroke-width: 1;"/></g><g class="g-gtitle"><text class="gtitle" x="320" y="25" text-anchor="middle" dy="0em" style="opacity: 1; font-family: 'Times New Roman'; font-size: 16px; fill: rgb(42, 63, 95); fill-opacity: 1; white-space: pre;">Social Media Distribution by Category (2022) (%)</text></g></g></svg>