<svg class="main-svg" xmlns="http://www.w3.org/2000/svg" xmlns:xlink="http://www.w3.org/1999/xlink" width="1920" height="1440" style="" viewBox="0 0 640 480"><rect x="0" y="0" width="640" height="480" style="fill: rgb(255, 255, 255); fill-opacity: 1;"/><defs id="defs-3203c0"><g class="clips"/><g class="gradients"><linearGradient x1="0" y1="1" x2="0" y2="0" gradientUnits="objectBoundingBox" id="g3203c0-cb31490c"><stop offset="0%" stop-color="rgb(247, 251, 255)" stop-opacity="1"/><stop offset="12.5%" stop-color="rgb(222, 235, 247)" stop-opacity="1"/><stop offset="25%" stop-color="rgb(198, 219, 239)" stop-opacity="1"/><stop offset="37.5%" stop-color="rgb(158, 202, 225)" stop-opacity="1"/><stop offset="50%" stop-color="rgb(107, 174, 214)" stop-opacity="1"/><stop offset="62.5%" stop-color="rgb(66, 146, 198)" stop-opacity="1"/><stop offset="75%" stop-color="rgb(33, 113, 181)" stop-opacity="1"/><stop offset="87.5%" stop-color="rgb(8, 81, 156)" stop-opacity="1"/><stop offset="100%" stop-color="rgb(8, 48, 107)" stop-opacity="1"/></linearGradient></g><g class="patterns"/></defs><g class="bglayer"/><g class="layer-below"><g class="imagelayer"/><g class="shapelayer"/></g><g class="cartesianlayer"/><g class="polarlayer"/><g class="smithlayer"/><g class="ternarylayer"/><g class="geolayer"/><g class="funnelarealayer"/><g class="pielayer"/><g class="iciclelayer"/><g class="treemaplayer"/><g class="sunburstlayer"><g class="trace sunburst" stroke-linejoin="round" style="opacity: 1;"><g class="slice"><path class="surface" d="M282.5,260A0,0 0,1,0 282.5,260A0,0 0,1,0 282.5,260ZM324.5,260A42,42 0,1,1 240.5,260A42,42 0,1,1 324.5,260Z" style="pointer-events: none; stroke-width: 1; fill: rgb(255, 255, 255); fill-opacity: 1; stroke: rgb(0, 0, 0); stroke-opacity: 1;"/><g class="slicetext"><text data-notex="1" class="slicetext" text-anchor="middle" x="0" y="0" style="font-family: 'Times New Roman'; font-size: 12px; fill: rgb(0, 0, 0); fill-opacity: 1; white-space: pre;" transform="translate(282.5,264)">100</text></g></g><g class="slice cursor-pointer"><path class="surface" d="M324.5,260L366.5,260A84,84 0,0,0 227.30699895615237,196.67755030185714L254.90349947807618,228.33877515092857A42,42 0,0,1 324.5,260Z" style="pointer-events: none; stroke-width: 1; fill: rgb(8, 48, 107); fill-opacity: 1; stroke: rgb(0, 0, 0); stroke-opacity: 1;"/><g class="slicetext"><text data-notex="1" class="slicetext" text-anchor="middle" x="0" y="0" style="font-family: 'Times New Roman'; font-size: 12px; fill: rgb(0, 0, 0); fill-opacity: 1; white-space: pre;" transform="translate(306.9774430214809,206.19461552291088)scale(0.8438719230685033)rotate(24.46199999999999)"><tspan class="line" dy="0em" x="0" y="0">Sports Media and Tech</tspan><tspan class="line" dy="1.3em" x="0" y="0">36.41</tspan></text></g></g><g class="slice cursor-pointer"><path class="surface" d="M254.90349947807618,228.33877515092857L227.30699895615237,196.67755030185714A84,84 0,0,0 267.3306238715507,342.618944727427L274.9153119357754,301.3094723637135A42,42 0,0,1 254.90349947807618,228.33877515092857Z" style="pointer-events: none; stroke-width: 1; fill: rgb(8, 54, 116); fill-opacity: 1; stroke: rgb(0, 0, 0); stroke-opacity: 1;"/><g class="slicetext"><text data-notex="1" class="slicetext" text-anchor="middle" x="0" y="0" style="font-family: 'Times New Roman'; font-size: 12px; fill: rgb(0, 0, 0); fill-opacity: 1; white-space: pre;" transform="translate(230.89081628859054,273.9897618606923)scale(0.9189309730996433)rotate(74.66399999999999)"><tspan class="line" dy="0em" x="0" y="0">Competitive Sports</tspan><tspan class="line" dy="1.3em" x="0" y="0">35.7</tspan></text></g></g><g class="slice cursor-pointer"><path class="surface" d="M274.9153119357754,301.3094723637135L267.3306238715507,342.618944727427A84,84 0,0,0 366.5,260L324.5,260A42,42 0,0,1 274.9153119357754,301.3094723637135Z" style="pointer-events: none; stroke-width: 1; fill: rgb(39, 119, 184); fill-opacity: 1; stroke: rgb(0, 0, 0); stroke-opacity: 1;"/><g class="slicetext"><text data-notex="1" class="slicetext" text-anchor="middle" x="0" y="0" style="font-family: 'Times New Roman'; font-size: 12px; fill: rgb(0, 0, 0); fill-opacity: 1; white-space: pre;" transform="translate(316.39428286846703,300.9112013811568)scale(0.8861455327612916)rotate(-39.798)"><tspan class="line" dy="0em" x="0" y="0">Fitness and Wellness</tspan><tspan class="line" dy="1.3em" x="0" y="0">27.89</tspan></text></g></g><g class="slice cursor-pointer"><path class="surface" d="M366.5,260L408.5,260A126,126 0,0,0 254.78221602154028,137.08651639741294L264.0214773476935,178.0576775982753A84,84 0,0,1 366.5,260Z" style="pointer-events: none; stroke-width: 1; fill: rgb(34, 114, 181); fill-opacity: 1; stroke: rgb(0, 0, 0); stroke-opacity: 1;"/><g class="slicetext"><text data-notex="1" class="slicetext" text-anchor="middle" x="0" y="0" style="font-family: 'Times New Roman'; font-size: 12px; fill: rgb(0, 0, 0); fill-opacity: 1; white-space: pre;" transform="translate(347.51712125475444,178.68843427907444)rotate(38.64599999999996)"><tspan class="line" dy="0em" x="0" y="0">Sports Technology</tspan><tspan class="line" dy="1.3em" x="0" y="0">28.53</tspan></text></g></g><g class="slice"><path class="surface" d="M264.0214773476935,178.0576775982753L254.78221602154028,137.08651639741294A126,126 0,0,0 199.7104984342285,165.01632545278574L227.30699895615234,196.67755030185717A84,84 0,0,1 264.0214773476935,178.0576775982753Z" style="pointer-events: none; stroke-width: 1; fill: rgb(230, 240, 250); fill-opacity: 1; stroke: rgb(0, 0, 0); stroke-opacity: 1; opacity: 1;"/><g class="slicetext"><text data-notex="1" class="slicetext" text-anchor="middle" x="0" y="0" style="font-family: 'Times New Roman'; font-size: 12px; fill: rgb(0, 0, 0); fill-opacity: 1; white-space: pre;" transform="translate(229.82552039633583,156.13698901269174)scale(0.5742087772998825)rotate(-26.892000000000053)"><tspan class="line" dy="0em" x="0" y="0">Live Broadcasting</tspan><tspan class="line" dy="1.3em" x="0" y="0">7.88</tspan></text></g></g><g class="slice cursor-pointer"><path class="surface" d="M227.30699895615237,196.67755030185714L199.71049843422855,165.01632545278568A126,126 0,0,0 194.5311572068224,350.2079968607507L223.85410480454826,320.1386645738338A84,84 0,0,1 227.30699895615237,196.67755030185714Z" style="pointer-events: none; stroke-width: 1; fill: rgb(53, 133, 191); fill-opacity: 1; stroke: rgb(0, 0, 0); stroke-opacity: 1;"/><g class="slicetext"><text data-notex="1" class="slicetext" text-anchor="middle" x="0" y="0" style="font-family: 'Times New Roman'; font-size: 12px; fill: rgb(0, 0, 0); fill-opacity: 1; white-space: pre;" transform="translate(176.44792347478824,257.19811911890577)rotate(-88.39800000000002)"><tspan class="line" dy="0em" x="0" y="0">Team Sports</tspan><tspan class="line" dy="1.3em" x="0" y="0">26.29</tspan></text></g></g><g class="slice"><path class="surface" d="M223.85410480454826,320.1386645738338L194.5311572068224,350.2079968607507A126,126 0,0,0 259.7459358073261,383.92841709114043L267.3306238715507,342.618944727427A84,84 0,0,1 223.85410480454826,320.1386645738338Z" style="pointer-events: none; stroke-width: 1; fill: rgb(220, 234, 246); fill-opacity: 1; stroke: rgb(0, 0, 0); stroke-opacity: 1; opacity: 1;"/><g class="slicetext"><text data-notex="1" class="slicetext" text-anchor="middle" x="0" y="0" style="font-family: 'Times New Roman'; font-size: 12px; fill: rgb(0, 0, 0); fill-opacity: 1; white-space: pre;" transform="translate(232.43959430046888,356.55422955614927)scale(0.6996920195300419)rotate(27.341999999999985)"><tspan class="line" dy="0em" x="0" y="0">Individual Sports</tspan><tspan class="line" dy="1.3em" x="0" y="0">9.41</tspan></text></g></g><g class="slice"><path class="surface" d="M267.3306238715507,342.618944727427L259.7459358073261,383.92841709114043A126,126 0,0,0 408.5,260.00000000000006L366.5,260A84,84 0,0,1 267.3306238715507,342.618944727427Z" style="pointer-events: none; stroke-width: 1; fill: rgb(39, 119, 184); fill-opacity: 1; stroke: rgb(0, 0, 0); stroke-opacity: 1; opacity: 1;"/><g class="slicetext"><text data-notex="1" class="slicetext" text-anchor="middle" x="0" y="0" style="font-family: 'Times New Roman'; font-size: 12px; fill: rgb(0, 0, 0); fill-opacity: 1; white-space: pre;" transform="translate(344.4700312103499,334.3840211717301)rotate(-39.798)"><tspan class="line" dy="0em" x="0" y="0">Personal Training</tspan><tspan class="line" dy="1.3em" x="0" y="0">27.89</tspan></text></g></g><g class="slice cursor-pointer"><path class="surface" d="M408.5,260L450.5,260A168,168 0,0,0 339.8050585887521,102.07555521661732L325.4787939415641,141.55666641246296A126,126 0,0,1 408.5,260Z" style="pointer-events: none; stroke-width: 1; fill: rgb(125, 184, 218); fill-opacity: 1; stroke: rgb(0, 0, 0); stroke-opacity: 1;"/><g class="slicetext"><text data-notex="1" class="slicetext" text-anchor="middle" x="0" y="0" style="font-family: 'Times New Roman'; font-size: 12px; fill: rgb(0, 0, 0); fill-opacity: 1; white-space: pre;" transform="translate(404.5949897463107,174.21886447218853)rotate(54.97199999999998)"><tspan class="line" dy="0em" x="0" y="0">Wearables</tspan><tspan class="line" dy="1.3em" x="0" y="0">19.46</tspan></text></g></g><g class="slice"><path class="surface" d="M325.4787939415641,141.55666641246296L339.8050585887521,102.07555521661732A168,168 0,0,0 245.5429546953871,96.11535519655055L254.7822160215403,137.08651639741294A126,126 0,0,1 325.4787939415641,141.55666641246296Z" style="pointer-events: none; stroke-width: 1; fill: rgb(223, 235, 247); fill-opacity: 1; stroke: rgb(0, 0, 0); stroke-opacity: 1; opacity: 1;"/><g class="slicetext"><text data-notex="1" class="slicetext" text-anchor="middle" x="0" y="0" style="font-family: 'Times New Roman'; font-size: 12px; fill: rgb(0, 0, 0); fill-opacity: 1; white-space: pre;" transform="translate(291.9329353581843,108.23879746857939)scale(0.9911607706388456)rotate(3.617999999999938)"><tspan class="line" dy="0em" x="0" y="0">Analytics Tools</tspan><tspan class="line" dy="1.3em" x="0" y="0">9.07</tspan></text></g></g><g class="slice cursor-pointer"><path class="surface" d="M199.71049843422855,165.01632545278568L172.1139979123047,133.35510060371428A168,168 0,0,0 114.9933396431642,272.8654085088524L156.87000473237316,269.6490563816393A126,126 0,0,1 199.71049843422855,165.01632545278568Z" style="pointer-events: none; stroke-width: 1; fill: rgb(180, 211, 233); fill-opacity: 1; stroke: rgb(0, 0, 0); stroke-opacity: 1;"/><g class="slicetext"><text data-notex="1" class="slicetext" text-anchor="middle" x="0" y="0" style="font-family: 'Times New Roman'; font-size: 12px; fill: rgb(0, 0, 0); fill-opacity: 1; white-space: pre;" transform="translate(144.27162573437016,203.76721764835202)rotate(-67.73400000000004)"><tspan class="line" dy="0em" x="0" y="0">Volleyball</tspan><tspan class="line" dy="1.3em" x="0" y="0">14.81</tspan></text></g></g><g class="slice"><path class="surface" d="M156.87000473237316,269.6490563816393L114.9933396431642,272.8654085088524A168,168 0,0,0 132.52443567522377,335.7055487098859L170.01832675641782,316.77916153241443A126,126 0,0,1 156.87000473237316,269.6490563816393Z" style="pointer-events: none; stroke-width: 1; fill: rgb(241, 247, 253); fill-opacity: 1; stroke: rgb(0, 0, 0); stroke-opacity: 1; opacity: 1;"/><g class="slicetext"><text data-notex="1" class="slicetext" text-anchor="middle" x="0" y="0" style="font-family: 'Times New Roman'; font-size: 12px; fill: rgb(0, 0, 0); fill-opacity: 1; white-space: pre;" transform="translate(141.14880076075036,299.08528797035154)rotate(74.41200000000003)"><tspan class="line" dy="0em" x="0" y="0">Basketball</tspan><tspan class="line" dy="1.3em" x="0" y="0">6.22</tspan></text></g></g><g class="slice"><path class="surface" d="M170.01832675641782,316.77916153241443L132.52443567522377,335.7055487098859A168,168 0,0,0 165.20820960909657,380.2773291476676L194.53115720682246,350.2079968607507A126,126 0,0,1 170.01832675641782,316.77916153241443Z" style="pointer-events: none; stroke-width: 1; fill: rgb(247, 251, 255); fill-opacity: 1; stroke: rgb(0, 0, 0); stroke-opacity: 1; opacity: 1;"/><g class="slicetext"><text data-notex="1" class="slicetext" text-anchor="middle" x="0" y="0" style="font-family: 'Times New Roman'; font-size: 12px; fill: rgb(0, 0, 0); fill-opacity: 1; white-space: pre;" transform="translate(164.20516589554467,346.3368214743946)rotate(53.74800000000005)"><tspan class="line" dy="0em" x="0" y="0">Football</tspan><tspan class="line" dy="1.3em" x="0" y="0">5.26</tspan></text></g></g><g class="slice"><path class="surface" d="M450.5,260L492.5,260A210,210 0,0,0 450.27519856421964,133.70082048272576L416.7201588513757,158.9606563861806A168,168 0,0,1 450.5,260Z" style="pointer-events: none; stroke-width: 1; fill: rgb(215, 230, 245); fill-opacity: 1; stroke: rgb(0, 0, 0); stroke-opacity: 1; opacity: 1;"/><g class="slicetext"><text data-notex="1" class="slicetext" text-anchor="middle" x="0" y="0" style="font-family: 'Times New Roman'; font-size: 12px; fill: rgb(0, 0, 0); fill-opacity: 1; white-space: pre;" transform="translate(462.67267829998895,199.59102584071644)rotate(71.51400000000001)"><tspan class="line" dy="0em" x="0" y="0">Fitness Trackers</tspan><tspan class="line" dy="1.3em" x="0" y="0">10.27</tspan></text></g></g><g class="slice"><path class="surface" d="M416.7201588513757,158.9606563861806L450.27519856421964,133.70082048272576A210,210 0,0,0 354.13132323594016,62.59444402077162L339.8050585887521,102.07555521661732A168,168 0,0,1 416.7201588513757,158.9606563861806Z" style="pointer-events: none; stroke-width: 1; fill: rgb(222, 235, 247); fill-opacity: 1; stroke: rgb(0, 0, 0); stroke-opacity: 1; opacity: 1;"/><g class="slicetext"><text data-notex="1" class="slicetext" text-anchor="middle" x="0" y="0" style="font-family: 'Times New Roman'; font-size: 12px; fill: rgb(0, 0, 0); fill-opacity: 1; white-space: pre;" transform="translate(396.64514743936746,105.38692266830695)rotate(36.48599999999999)"><tspan class="line" dy="0em" x="0" y="0">Heart Rate Monitors</tspan><tspan class="line" dy="1.3em" x="0" y="0">9.19</tspan></text></g></g><g class="slice"><path class="surface" d="M172.1139979123047,133.35510060371428L144.5174973903809,101.69387575464282A210,210 0,0,0 82.57524834140793,195.73419514041478L122.56019867312634,208.58735611233183A168,168 0,0,1 172.1139979123047,133.35510060371428Z" style="pointer-events: none; stroke-width: 1; fill: rgb(225, 237, 248); fill-opacity: 1; stroke: rgb(0, 0, 0); stroke-opacity: 1; opacity: 1;"/><g class="slicetext"><text data-notex="1" class="slicetext" text-anchor="middle" x="0" y="0" style="font-family: 'Times New Roman'; font-size: 12px; fill: rgb(0, 0, 0); fill-opacity: 1; white-space: pre;" transform="translate(123.32415932498661,155.15444407175133)rotate(-56.62800000000004)"><tspan class="line" dy="0em" x="0" y="0">World League</tspan><tspan class="line" dy="1.3em" x="0" y="0">8.64</tspan></text></g></g><g class="slice"><path class="surface" d="M122.56019867312634,208.58735611233183L82.57524834140793,195.73419514041478A210,210 0,0,0 73.11667455395525,276.0817606360655L114.9933396431642,272.8654085088524A168,168 0,0,1 122.56019867312634,208.58735611233183Z" style="pointer-events: none; stroke-width: 1; fill: rgb(241, 247, 253); fill-opacity: 1; stroke: rgb(0, 0, 0); stroke-opacity: 1; opacity: 1;"/><g class="slicetext"><text data-notex="1" class="slicetext" text-anchor="middle" x="0" y="0" style="font-family: 'Times New Roman'; font-size: 12px; fill: rgb(0, 0, 0); fill-opacity: 1; white-space: pre;" transform="translate(86.3991801944875,237.197752216377)scale(0.8362961011330112)rotate(-83.28599999999994)"><tspan class="line" dy="0em" x="0" y="0">Beach Volleyball</tspan><tspan class="line" dy="1.3em" x="0" y="0">6.17</tspan></text></g></g></g></g><g class="glimages"/><defs id="topdefs-3203c0"><g class="clips"/></defs><g class="layer-above"><g class="imagelayer"/><g class="shapelayer"/></g><g class="infolayer"><g class="cb31490c colorbar" transform="translate(10,50)"><rect class="cbbg" x="571.5" y="63" width="48.015625" height="295" style="fill: rgb(0, 0, 0); fill-opacity: 0; stroke: rgb(68, 68, 68); stroke-opacity: 1; stroke-width: 0;"/><g class="cbfills" transform="translate(0,93)"><rect class="cbfill gradient_filled" style="fill: url('#g3203c0-cb31490c');" x="582" y="0" width="15" height="254"/></g><g class="cblines" transform="translate(0,93)"/><g class="cbaxis crisp" transform="translate(0,-50)"><g class="ycb31490ctick"><text text-anchor="start" x="600.4" y="4.199999999999999" transform="translate(0,358.35)" style="font-family: 'Times New Roman'; font-size: 12px; fill: rgb(42, 63, 95); fill-opacity: 1; white-space: pre; opacity: 1;">10</text></g><g class="ycb31490ctick"><text text-anchor="start" x="600.4" y="4.199999999999999" style="font-family: 'Times New Roman'; font-size: 12px; fill: rgb(42, 63, 95); fill-opacity: 1; white-space: pre; opacity: 1;" transform="translate(0,317.58000000000004)">15</text></g><g class="ycb31490ctick"><text text-anchor="start" x="600.4" y="4.199999999999999" style="font-family: 'Times New Roman'; font-size: 12px; fill: rgb(42, 63, 95); fill-opacity: 1; white-space: pre; opacity: 1;" transform="translate(0,276.81000000000006)">20</text></g><g class="ycb31490ctick"><text text-anchor="start" x="600.4" y="4.199999999999999" style="font-family: 'Times New Roman'; font-size: 12px; fill: rgb(42, 63, 95); fill-opacity: 1; white-space: pre; opacity: 1;" transform="translate(0,236.04000000000008)">25</text></g><g class="ycb31490ctick"><text text-anchor="start" x="600.4" y="4.199999999999999" style="font-family: 'Times New Roman'; font-size: 12px; fill: rgb(42, 63, 95); fill-opacity: 1; white-space: pre; opacity: 1;" transform="translate(0,195.27000000000007)">30</text></g><g class="ycb31490ctick"><text text-anchor="start" x="600.4" y="4.199999999999999" style="font-family: 'Times New Roman'; font-size: 12px; fill: rgb(42, 63, 95); fill-opacity: 1; white-space: pre; opacity: 1;" transform="translate(0,154.50000000000006)">35</text></g></g><g class="cbtitleunshift" transform="translate(-10,-50)"><g class="cbtitle" transform="translate(-0.5,-0.5)"><text class="ycb31490ctitle" x="592.25" y="135.75" text-anchor="start" style="opacity: 1; font-family: 'Times New Roman'; font-size: 13px; fill: rgb(42, 63, 95); fill-opacity: 1; white-space: pre;">%</text></g></g><rect class="cboutline" x="582" y="93" width="15" height="254" style="stroke: rgb(68, 68, 68); stroke-opacity: 1; fill: none; stroke-width: 1;"/></g><g class="g-gtitle"><text class="gtitle" x="320" y="25" text-anchor="middle" dy="0em" style="opacity: 1; font-family: 'Times New Roman'; font-size: 16px; fill: rgb(42, 63, 95); fill-opacity: 1; white-space: pre;">Sports Distribution by Category (2024) (%)</text></g></g></svg>