<svg class="main-svg" xmlns="http://www.w3.org/2000/svg" xmlns:xlink="http://www.w3.org/1999/xlink" width="1920" height="1440" style="" viewBox="0 0 640 480"><rect x="0" y="0" width="640" height="480" style="fill: rgb(255, 255, 255); fill-opacity: 1;"/><defs id="defs-9ab74c"><g class="clips"/><g class="gradients"><linearGradient x1="0" y1="1" x2="0" y2="0" gradientUnits="objectBoundingBox" id="g9ab74c-cba2fcfb"><stop offset="0%" stop-color="rgb(252, 251, 253)" stop-opacity="1"/><stop offset="12.5%" stop-color="rgb(239, 237, 245)" stop-opacity="1"/><stop offset="25%" stop-color="rgb(218, 218, 235)" stop-opacity="1"/><stop offset="37.5%" stop-color="rgb(188, 189, 220)" stop-opacity="1"/><stop offset="50%" stop-color="rgb(158, 154, 200)" stop-opacity="1"/><stop offset="62.5%" stop-color="rgb(128, 125, 186)" stop-opacity="1"/><stop offset="75%" stop-color="rgb(106, 81, 163)" stop-opacity="1"/><stop offset="87.5%" stop-color="rgb(84, 39, 143)" stop-opacity="1"/><stop offset="100%" stop-color="rgb(63, 0, 125)" stop-opacity="1"/></linearGradient></g><g class="patterns"/></defs><g class="bglayer"/><g class="layer-below"><g class="imagelayer"/><g class="shapelayer"/></g><g class="cartesianlayer"/><g class="polarlayer"/><g class="smithlayer"/><g class="ternarylayer"/><g class="geolayer"/><g class="funnelarealayer"/><g class="pielayer"/><g class="iciclelayer"/><g class="treemaplayer"/><g class="sunburstlayer"><g class="trace sunburst" stroke-linejoin="round" style="opacity: 1;"><g class="slice"><path class="surface" d="M282.5,260A0,0 0,1,0 282.5,260A0,0 0,1,0 282.5,260ZM324.5,260A42,42 0,1,1 240.5,260A42,42 0,1,1 324.5,260Z" style="pointer-events: none; stroke-width: 1; fill: rgb(255, 255, 255); fill-opacity: 1; stroke: rgb(0, 0, 0); stroke-opacity: 1;"/><g class="slicetext"><text data-notex="1" class="slicetext" text-anchor="middle" x="0" y="0" style="font-family: 'Times New Roman'; font-size: 12px; fill: rgb(0, 0, 0); fill-opacity: 1; white-space: pre;" transform="translate(282.5,264)">100</text></g></g><g class="slice cursor-pointer"><path class="surface" d="M324.5,260L366.5,260A84,84 0,1,0 199.53417939000843,273.14049506337943L241.01708969500422,266.5702475316897A42,42 0,1,1 324.5,260Z" style="pointer-events: none; stroke-width: 1; fill: rgb(63, 0, 125); fill-opacity: 1; stroke: rgb(0, 0, 0); stroke-opacity: 1;"/><g class="slicetext"><text data-notex="1" class="slicetext" text-anchor="middle" x="0" y="0" style="font-family: 'Times New Roman'; font-size: 12px; fill: rgb(0, 0, 0); fill-opacity: 1; white-space: pre;" transform="translate(277.5985992620985,199.73483825780673)scale(0.9189309730996433)rotate(-4.5)"><tspan class="line" dy="0em" x="0" y="0">Competitive Sports</tspan><tspan class="line" dy="1.3em" x="0" y="0">52.5</tspan></text></g></g><g class="slice cursor-pointer"><path class="surface" d="M241.01708969500422,266.5702475316897L199.53417939000843,273.14049506337943A84,84 0,0,0 298.8099328412375,342.40137189825373L290.65496642061873,301.20068594912686A42,42 0,0,1 241.01708969500422,266.5702475316897Z" style="pointer-events: none; stroke-width: 1; fill: rgb(174, 173, 211); fill-opacity: 1; stroke: rgb(0, 0, 0); stroke-opacity: 1;"/><g class="slicetext"><text data-notex="1" class="slicetext" text-anchor="middle" x="0" y="0" style="font-family: 'Times New Roman'; font-size: 12px; fill: rgb(0, 0, 0); fill-opacity: 1; white-space: pre;" transform="translate(250.7873627231414,305.45561799761157)scale(0.791775913328766)rotate(34.902000000000044)"><tspan class="line" dy="0em" x="0" y="0">Sports Media and Tech</tspan><tspan class="line" dy="1.3em" x="0" y="0">25.61</tspan></text></g></g><g class="slice cursor-pointer"><path class="surface" d="M290.65496642061873,301.20068594912686L298.8099328412375,342.40137189825373A84,84 0,0,0 366.5,259.99999999999994L324.5,260A42,42 0,0,1 290.65496642061873,301.20068594912686Z" style="pointer-events: none; stroke-width: 1; fill: rgb(193, 194, 222); fill-opacity: 1; stroke: rgb(0, 0, 0); stroke-opacity: 1;"/><g class="slicetext"><text data-notex="1" class="slicetext" text-anchor="middle" x="0" y="0" style="font-family: 'Times New Roman'; font-size: 12px; fill: rgb(0, 0, 0); fill-opacity: 1; white-space: pre;" transform="translate(328.21911517454714,297.7172697511751)scale(0.755896814486892)rotate(-50.59800000000007)"><tspan class="line" dy="0em" x="0" y="0">Fitness and Wellness</tspan><tspan class="line" dy="1.3em" x="0" y="0">21.89</tspan></text></g></g><g class="slice cursor-pointer"><path class="surface" d="M366.5,260L408.5,260A126,126 0,0,0 216.3279966248768,152.77469529386883L238.38533108325117,188.51646352924587A84,84 0,0,1 366.5,260Z" style="pointer-events: none; stroke-width: 1; fill: rgb(132, 129, 188); fill-opacity: 1; stroke: rgb(0, 0, 0); stroke-opacity: 1;"/><g class="slicetext"><text data-notex="1" class="slicetext" text-anchor="middle" x="0" y="0" style="font-family: 'Times New Roman'; font-size: 12px; fill: rgb(0, 0, 0); fill-opacity: 1; white-space: pre;" transform="translate(334.0485874589309,167.27655850449594)rotate(29.159999999999968)"><tspan class="line" dy="0em" x="0" y="0">Team Sports</tspan><tspan class="line" dy="1.3em" x="0" y="0">33.8</tspan></text></g></g><g class="slice"><path class="surface" d="M238.38533108325117,188.51646352924587L216.3279966248768,152.77469529386883A126,126 0,0,0 158.05126908501262,279.71074259506906L199.53417939000843,273.1404950633794A84,84 0,0,1 238.38533108325117,188.51646352924587Z" style="pointer-events: none; stroke-width: 1; fill: rgb(209, 209, 230); fill-opacity: 1; stroke: rgb(0, 0, 0); stroke-opacity: 1; opacity: 1;"/><g class="slicetext"><text data-notex="1" class="slicetext" text-anchor="middle" x="0" y="0" style="font-family: 'Times New Roman'; font-size: 12px; fill: rgb(0, 0, 0); fill-opacity: 1; white-space: pre;" transform="translate(187.41387546195915,216.53479249664613)rotate(-65.34000000000003)"><tspan class="line" dy="0em" x="0" y="0">Individual Sports</tspan><tspan class="line" dy="1.3em" x="0" y="0">18.7</tspan></text></g></g><g class="slice"><path class="surface" d="M199.53417939000843,273.14049506337943L158.05126908501265,279.7107425950691A126,126 0,0,0 306.96489926185626,383.6020578473806L298.8099328412375,342.40137189825373A84,84 0,0,1 199.53417939000843,273.14049506337943Z" style="pointer-events: none; stroke-width: 1; fill: rgb(174, 173, 211); fill-opacity: 1; stroke: rgb(0, 0, 0); stroke-opacity: 1; opacity: 1;"/><g class="slicetext"><text data-notex="1" class="slicetext" text-anchor="middle" x="0" y="0" style="font-family: 'Times New Roman'; font-size: 12px; fill: rgb(0, 0, 0); fill-opacity: 1; white-space: pre;" transform="translate(227.28506491123784,339.14286583125545)rotate(34.902000000000044)"><tspan class="line" dy="0em" x="0" y="0">Sports Technology</tspan><tspan class="line" dy="1.3em" x="0" y="0">25.61</tspan></text></g></g><g class="slice cursor-pointer"><path class="surface" d="M298.8099328412375,342.40137189825373L306.96489926185626,383.6020578473806A126,126 0,0,0 384.2963586950907,334.25295520328086L350.36423913006047,309.5019701355206A84,84 0,0,1 298.8099328412375,342.40137189825373Z" style="pointer-events: none; stroke-width: 1; fill: rgb(236, 234, 243); fill-opacity: 1; stroke: rgb(0, 0, 0); stroke-opacity: 1;"/><g class="slicetext"><text data-notex="1" class="slicetext" text-anchor="middle" x="0" y="0" style="font-family: 'Times New Roman'; font-size: 12px; fill: rgb(0, 0, 0); fill-opacity: 1; white-space: pre;" transform="translate(338.75280414859805,348.14975772498866)scale(0.8279587232760958)rotate(-32.544000000000096)"><tspan class="line" dy="0em" x="0" y="0">Personal Training</tspan><tspan class="line" dy="1.3em" x="0" y="0">11.86</tspan></text></g></g><g class="slice cursor-pointer"><path class="surface" d="M350.36423913006047,309.5019701355206L384.2963586950907,334.25295520328086A126,126 0,0,0 408.5,259.99999999999994L366.5,259.99999999999994A84,84 0,0,1 350.36423913006047,309.5019701355206Z" style="pointer-events: none; stroke-width: 1; fill: rgb(241, 239, 246); fill-opacity: 1; stroke: rgb(0, 0, 0); stroke-opacity: 1;"/><g class="slicetext"><text data-notex="1" class="slicetext" text-anchor="middle" x="0" y="0" style="font-family: 'Times New Roman'; font-size: 12px; fill: rgb(0, 0, 0); fill-opacity: 1; white-space: pre;" transform="translate(385.52834395118794,293.7083578228696)scale(0.6916503089375564)rotate(-71.94600000000003)"><tspan class="line" dy="0em" x="0" y="0">Outdoor Activities</tspan><tspan class="line" dy="1.3em" x="0" y="0">10.03</tspan></text></g></g><g class="slice cursor-pointer"><path class="surface" d="M408.5,260L450.5,260A168,168 0,0,0 194.27066216650235,117.03292705849177L216.3279966248768,152.77469529386883A126,126 0,0,1 408.5,260Z" style="pointer-events: none; stroke-width: 1; fill: rgb(132, 129, 188); fill-opacity: 1; stroke: rgb(0, 0, 0); stroke-opacity: 1;"/><g class="slicetext"><text data-notex="1" class="slicetext" text-anchor="middle" x="0" y="0" style="font-family: 'Times New Roman'; font-size: 12px; fill: rgb(0, 0, 0); fill-opacity: 1; white-space: pre;" transform="translate(355.1538842242061,129.1143810498348)rotate(29.159999999999968)"><tspan class="line" dy="0em" x="0" y="0">Football</tspan><tspan class="line" dy="1.3em" x="0" y="0">33.8</tspan></text></g></g><g class="slice"><path class="surface" d="M306.96489926185626,383.6020578473806L315.11986568247505,424.80274379650746A168,168 0,0,0 374.02886520200775,400.87748874405975L351.14664890150584,365.65811655804487A126,126 0,0,1 306.96489926185626,383.6020578473806Z" style="pointer-events: none; stroke-width: 1; fill: rgb(250, 249, 252); fill-opacity: 1; stroke: rgb(0, 0, 0); stroke-opacity: 1; opacity: 1;"/><g class="slicetext"><text data-notex="1" class="slicetext" text-anchor="middle" x="0" y="0" style="font-family: 'Times New Roman'; font-size: 12px; fill: rgb(0, 0, 0); fill-opacity: 1; white-space: pre;" transform="translate(339.5353166568175,400.7484314560559)scale(0.7236466127319542)rotate(-22.104000000000042)"><tspan class="line" dy="0em" x="0" y="0">Gym Workouts</tspan><tspan class="line" dy="1.3em" x="0" y="0">6.06</tspan></text></g></g><g class="slice"><path class="surface" d="M351.14664890150584,365.65811655804487L374.02886520200775,400.87748874405975A168,168 0,0,0 418.22847826012094,359.00394027104113L384.2963586950907,334.25295520328086A126,126 0,0,1 351.14664890150584,365.65811655804487Z" style="pointer-events: none; stroke-width: 1; fill: rgb(250, 249, 252); fill-opacity: 1; stroke: rgb(0, 0, 0); stroke-opacity: 1; opacity: 1;"/><g class="slicetext"><text data-notex="1" class="slicetext" text-anchor="middle" x="0" y="0" style="font-family: 'Times New Roman'; font-size: 12px; fill: rgb(0, 0, 0); fill-opacity: 1; white-space: pre;" transform="translate(389.54318293963064,372.98940354885616)scale(0.5273036404318697)rotate(-43.452)"><tspan class="line" dy="0em" x="0" y="0">Yoga and Meditation</tspan><tspan class="line" dy="1.3em" x="0" y="0">5.8</tspan></text></g></g><g class="slice"><path class="surface" d="M384.2963586950907,334.25295520328086L418.22847826012094,359.00394027104113A168,168 0,0,0 442.2774947375858,311.91485505499105L402.33312105318936,298.9361412912433A126,126 0,0,1 384.2963586950907,334.25295520328086Z" style="pointer-events: none; stroke-width: 1; fill: rgb(252, 251, 253); fill-opacity: 1; stroke: rgb(0, 0, 0); stroke-opacity: 1; opacity: 1;"/><g class="slicetext"><text data-notex="1" class="slicetext" text-anchor="middle" x="0" y="0" style="font-family: 'Times New Roman'; font-size: 12px; fill: rgb(0, 0, 0); fill-opacity: 1; white-space: pre;" transform="translate(420.4699121818634,330.57241896795585)scale(0.5936716329703602)rotate(-62.946000000000026)"><tspan class="line" dy="0em" x="0" y="0">Cycling Groups</tspan><tspan class="line" dy="1.3em" x="0" y="0">5.03</tspan></text></g></g><g class="slice"><path class="surface" d="M402.33312105318936,298.9361412912433L442.2774947375858,311.91485505499105A168,168 0,0,0 450.5,259.9999999999999L408.5,259.99999999999994A126,126 0,0,1 402.33312105318936,298.9361412912433Z" style="pointer-events: none; stroke-width: 1; fill: rgb(252, 251, 253); fill-opacity: 1; stroke: rgb(0, 0, 0); stroke-opacity: 1; opacity: 1;"/><g class="slicetext"><text data-notex="1" class="slicetext" text-anchor="middle" x="0" y="0" style="font-family: 'Times New Roman'; font-size: 12px; fill: rgb(0, 0, 0); fill-opacity: 1; white-space: pre;" transform="translate(435.10146061881363,284.2725423193567)scale(0.6191493435050044)rotate(-81)"><tspan class="line" dy="0em" x="0" y="0">Running Clubs</tspan><tspan class="line" dy="1.3em" x="0" y="0">5</tspan></text></g></g><g class="slice"><path class="surface" d="M450.5,260L492.5,260A210,210 0,0,0 345.8858711195351,59.794527191643226L333.2086968956281,99.8356217533146A168,168 0,0,1 450.5,260Z" style="pointer-events: none; stroke-width: 1; fill: rgb(202, 202, 227); fill-opacity: 1; stroke: rgb(0, 0, 0); stroke-opacity: 1; opacity: 1;"/><g class="slicetext"><text data-notex="1" class="slicetext" text-anchor="middle" x="0" y="0" style="font-family: 'Times New Roman'; font-size: 12px; fill: rgb(0, 0, 0); fill-opacity: 1; white-space: pre;" transform="translate(435.70093191262356,147.60480516175483)rotate(53.78399999999999)"><tspan class="line" dy="0em" x="0" y="0">League Matches</tspan><tspan class="line" dy="1.3em" x="0" y="0">20.12</tspan></text></g></g><g class="slice"><path class="surface" d="M333.2086968956281,99.8356217533146L345.8858711195351,59.794527191643226A210,210 0,0,0 245.22563343053025,53.33451764543551L252.6805067444242,94.66761411634843A168,168 0,0,1 333.2086968956281,99.8356217533146Z" style="pointer-events: none; stroke-width: 1; fill: rgb(246, 245, 249); fill-opacity: 1; stroke: rgb(0, 0, 0); stroke-opacity: 1; opacity: 1;"/><g class="slicetext"><text data-notex="1" class="slicetext" text-anchor="middle" x="0" y="0" style="font-family: 'Times New Roman'; font-size: 12px; fill: rgb(0, 0, 0); fill-opacity: 1; white-space: pre;" transform="translate(294.75608686955525,69.02495443667597)rotate(3.6720000000000255)"><tspan class="line" dy="0em" x="0" y="0">World Cup</tspan><tspan class="line" dy="1.3em" x="0" y="0">7.72</tspan></text></g></g><g class="slice"><path class="surface" d="M252.6805067444242,94.66761411634843L245.22563343053025,53.33451764543551A210,210 0,0,0 172.21332770812788,81.29115882311473L194.2706621665023,117.0329270584918A168,168 0,0,1 252.6805067444242,94.66761411634843Z" style="pointer-events: none; stroke-width: 1; fill: rgb(250, 249, 252); fill-opacity: 1; stroke: rgb(0, 0, 0); stroke-opacity: 1; opacity: 1;"/><g class="slicetext"><text data-notex="1" class="slicetext" text-anchor="middle" x="0" y="0" style="font-family: 'Times New Roman'; font-size: 12px; fill: rgb(0, 0, 0); fill-opacity: 1; white-space: pre;" transform="translate(211.01734400309627,73.61014035851201)scale(0.6454601025011358)rotate(-20.951999999999998)"><tspan class="line" dy="0em" x="0" y="0">Youth Championships</tspan><tspan class="line" dy="1.3em" x="0" y="0">5.96</tspan></text></g></g></g></g><g class="glimages"/><defs id="topdefs-9ab74c"><g class="clips"/></defs><g class="layer-above"><g class="imagelayer"/><g class="shapelayer"/></g><g class="infolayer"><g class="cba2fcfb colorbar" transform="translate(10,50)"><rect class="cbbg" x="571.5" y="63" width="48.015625" height="295" style="fill: rgb(0, 0, 0); fill-opacity: 0; stroke: rgb(68, 68, 68); stroke-opacity: 1; stroke-width: 0;"/><g class="cbfills" transform="translate(0,93)"><rect class="cbfill gradient_filled" style="fill: url('#g9ab74c-cba2fcfb');" x="582" y="0" width="15" height="254"/></g><g class="cblines" transform="translate(0,93)"/><g class="cbaxis crisp" transform="translate(0,-50)"><g class="ycba2fcfbtick"><text text-anchor="start" x="600.4" y="4.199999999999999" transform="translate(0,370.26000000000005)" style="font-family: 'Times New Roman'; font-size: 12px; fill: rgb(42, 63, 95); fill-opacity: 1; white-space: pre; opacity: 1;">10</text></g><g class="ycba2fcfbtick"><text text-anchor="start" x="600.4" y="4.199999999999999" style="font-family: 'Times New Roman'; font-size: 12px; fill: rgb(42, 63, 95); fill-opacity: 1; white-space: pre; opacity: 1;" transform="translate(0,316.7900000000001)">20</text></g><g class="ycba2fcfbtick"><text text-anchor="start" x="600.4" y="4.199999999999999" style="font-family: 'Times New Roman'; font-size: 12px; fill: rgb(42, 63, 95); fill-opacity: 1; white-space: pre; opacity: 1;" transform="translate(0,263.32000000000005)">30</text></g><g class="ycba2fcfbtick"><text text-anchor="start" x="600.4" y="4.199999999999999" style="font-family: 'Times New Roman'; font-size: 12px; fill: rgb(42, 63, 95); fill-opacity: 1; white-space: pre; opacity: 1;" transform="translate(0,209.84000000000006)">40</text></g><g class="ycba2fcfbtick"><text text-anchor="start" x="600.4" y="4.199999999999999" style="font-family: 'Times New Roman'; font-size: 12px; fill: rgb(42, 63, 95); fill-opacity: 1; white-space: pre; opacity: 1;" transform="translate(0,156.37000000000006)">50</text></g></g><g class="cbtitleunshift" transform="translate(-10,-50)"><g class="cbtitle" transform="translate(-0.5,-0.5)"><text class="ycba2fcfbtitle" x="592.25" y="135.75" text-anchor="start" style="opacity: 1; font-family: 'Times New Roman'; font-size: 13px; fill: rgb(42, 63, 95); fill-opacity: 1; white-space: pre;">%</text></g></g><rect class="cboutline" x="582" y="93" width="15" height="254" style="stroke: rgb(68, 68, 68); stroke-opacity: 1; fill: none; stroke-width: 1;"/></g><g class="g-gtitle"><text class="gtitle" x="320" y="25" text-anchor="middle" dy="0em" style="opacity: 1; font-family: 'Times New Roman'; font-size: 16px; fill: rgb(42, 63, 95); fill-opacity: 1; white-space: pre;">Sports Distribution by Category (2024) (%)</text></g></g></svg>