<svg class="main-svg" xmlns="http://www.w3.org/2000/svg" xmlns:xlink="http://www.w3.org/1999/xlink" width="1920" height="1440" style="" viewBox="0 0 640 480"><rect x="0" y="0" width="640" height="480" style="fill: rgb(255, 255, 255); fill-opacity: 1;"/><defs id="defs-4687fa"><g class="clips"/><g class="gradients"><linearGradient x1="0" y1="1" x2="0" y2="0" gradientUnits="objectBoundingBox" id="g4687fa-cbbab8a2"><stop offset="0%" stop-color="rgb(255, 255, 204)" stop-opacity="1"/><stop offset="12.5%" stop-color="rgb(255, 237, 160)" stop-opacity="1"/><stop offset="25%" stop-color="rgb(254, 217, 118)" stop-opacity="1"/><stop offset="37.5%" stop-color="rgb(254, 178, 76)" stop-opacity="1"/><stop offset="50%" stop-color="rgb(253, 141, 60)" stop-opacity="1"/><stop offset="62.5%" stop-color="rgb(252, 78, 42)" stop-opacity="1"/><stop offset="75%" stop-color="rgb(227, 26, 28)" stop-opacity="1"/><stop offset="87.5%" stop-color="rgb(189, 0, 38)" stop-opacity="1"/><stop offset="100%" stop-color="rgb(128, 0, 38)" stop-opacity="1"/></linearGradient></g><g class="patterns"/></defs><g class="bglayer"/><g class="layer-below"><g class="imagelayer"/><g class="shapelayer"/></g><g class="cartesianlayer"/><g class="polarlayer"/><g class="smithlayer"/><g class="ternarylayer"/><g class="geolayer"/><g class="funnelarealayer"/><g class="pielayer"/><g class="iciclelayer"/><g class="treemaplayer"/><g class="sunburstlayer"><g class="trace sunburst" stroke-linejoin="round" style="opacity: 1;"><g class="slice"><path class="surface" d="M282.5,260A0,0 0,1,0 282.5,260A0,0 0,1,0 282.5,260ZM324.5,260A42,42 0,1,1 240.5,260A42,42 0,1,1 324.5,260Z" style="pointer-events: none; stroke-width: 1; fill: rgb(255, 255, 255); fill-opacity: 1; stroke: rgb(0, 0, 0); stroke-opacity: 1;"/><g class="slicetext"><text data-notex="1" class="slicetext" text-anchor="middle" x="0" y="0" style="font-family: 'Times New Roman'; font-size: 12px; fill: rgb(0, 0, 0); fill-opacity: 1; white-space: pre;" transform="translate(282.5,264)">100</text></g></g><g class="slice cursor-pointer"><path class="surface" d="M324.5,260L366.5,260A84,84 0,0,0 211.91783026019726,214.4570827150733L247.20891513009863,237.22854135753664A42,42 0,0,1 324.5,260Z" style="pointer-events: none; stroke-width: 1; fill: rgb(128, 0, 38); fill-opacity: 1; stroke: rgb(0, 0, 0); stroke-opacity: 1;"/><g class="slicetext"><text data-notex="1" class="slicetext" text-anchor="middle" x="0" y="0" style="font-family: 'Times New Roman'; font-size: 12px; fill: rgb(0, 0, 0); fill-opacity: 1; white-space: pre;" transform="translate(298.9302486729638,203.2300178029336)scale(0.8431803965209909)rotate(16.41599999999994)"><tspan class="line" dy="0em" x="0" y="0">Financial Management</tspan><tspan class="line" dy="1.3em" x="0" y="0">40.88</tspan></text></g></g><g class="slice cursor-pointer"><path class="surface" d="M247.20891513009863,237.22854135753664L211.91783026019726,214.4570827150733A84,84 0,0,0 286.1933219387007,343.91876651296246L284.34666096935035,301.95938325648126A42,42 0,0,1 247.20891513009863,237.22854135753664Z" style="pointer-events: none; stroke-width: 1; fill: rgb(202, 9, 34); fill-opacity: 1; stroke: rgb(0, 0, 0); stroke-opacity: 1;"/><g class="slicetext"><text data-notex="1" class="slicetext" text-anchor="middle" x="0" y="0" style="font-family: 'Times New Roman'; font-size: 12px; fill: rgb(0, 0, 0); fill-opacity: 1; white-space: pre;" transform="translate(236.02066496717342,286.666387777272)scale(0.929729920353367)rotate(60.15599999999995)"><tspan class="line" dy="0em" x="0" y="0">Corporate Strategy</tspan><tspan class="line" dy="1.3em" x="0" y="0">34.82</tspan></text></g></g><g class="slice cursor-pointer"><path class="surface" d="M284.34666096935035,301.95938325648126L286.1933219387007,343.91876651296246A84,84 0,0,0 366.5,259.99999999999994L324.5,260A42,42 0,0,1 284.34666096935035,301.95938325648126Z" style="pointer-events: none; stroke-width: 1; fill: rgb(253, 122, 55); fill-opacity: 1; stroke: rgb(0, 0, 0); stroke-opacity: 1;"/><g class="slicetext"><text data-notex="1" class="slicetext" text-anchor="middle" x="0" y="0" style="font-family: 'Times New Roman'; font-size: 12px; fill: rgb(0, 0, 0); fill-opacity: 1; white-space: pre;" transform="translate(323.6658365841759,299.39394873229963)scale(0.7623746085218471)rotate(-46.260000000000105)"><tspan class="line" dy="0em" x="0" y="0">Digital Transformation</tspan><tspan class="line" dy="1.3em" x="0" y="0">24.3</tspan></text></g></g><g class="slice"><path class="surface" d="M366.5,260L408.5,260A126,126 0,0,0 176.62674539029587,191.68562407260998L211.91783026019726,214.4570827150733A84,84 0,0,1 366.5,260Z" style="pointer-events: none; stroke-width: 1; fill: rgb(128, 0, 38); fill-opacity: 1; stroke: rgb(0, 0, 0); stroke-opacity: 1; opacity: 1;"/><g class="slicetext"><text data-notex="1" class="slicetext" text-anchor="middle" x="0" y="0" style="font-family: 'Times New Roman'; font-size: 12px; fill: rgb(0, 0, 0); fill-opacity: 1; white-space: pre;" transform="translate(311.58065773442564,161.29417617399935)scale(0.9671205639769463)rotate(16.41599999999994)"><tspan class="line" dy="0em" x="0" y="0">Budgeting &amp; Planning</tspan><tspan class="line" dy="1.3em" x="0" y="0">40.88</tspan></text></g></g><g class="slice cursor-pointer"><path class="surface" d="M211.91783026019726,214.4570827150733L176.62674539029587,191.68562407260998A126,126 0,0,0 188.5114156765531,343.91749529671574L219.84094378436873,315.94499686447716A84,84 0,0,1 211.91783026019726,214.4570827150733Z" style="pointer-events: none; stroke-width: 1; fill: rgb(253, 159, 68); fill-opacity: 1; stroke: rgb(0, 0, 0); stroke-opacity: 1;"/><g class="slicetext"><text data-notex="1" class="slicetext" text-anchor="middle" x="0" y="0" style="font-family: 'Times New Roman'; font-size: 12px; fill: rgb(0, 0, 0); fill-opacity: 1; white-space: pre;" transform="translate(186.59612648656312,267.48717010910417)rotate(85.53599999999994)"><tspan class="line" dy="0em" x="0" y="0">Innovation Strategy</tspan><tspan class="line" dy="1.3em" x="0" y="0">20.72</tspan></text></g></g><g class="slice cursor-pointer"><path class="surface" d="M219.84094378436873,315.94499686447716L188.5114156765531,343.91749529671574A126,126 0,0,0 288.03998290805106,385.8781497694437L286.1933219387007,343.91876651296246A84,84 0,0,1 219.84094378436873,315.94499686447716Z" style="pointer-events: none; stroke-width: 1; fill: rgb(254, 216, 117); fill-opacity: 1; stroke: rgb(0, 0, 0); stroke-opacity: 1;"/><g class="slicetext"><text data-notex="1" class="slicetext" text-anchor="middle" x="0" y="0" style="font-family: 'Times New Roman'; font-size: 12px; fill: rgb(0, 0, 0); fill-opacity: 1; white-space: pre;" transform="translate(243.7339333681075,351.5288469197679)rotate(22.8599999999999)"><tspan class="line" dy="0em" x="0" y="0">Growth Models</tspan><tspan class="line" dy="1.3em" x="0" y="0">14.1</tspan></text></g></g><g class="slice"><path class="surface" d="M286.1933219387007,343.91876651296246L288.03998290805106,385.8781497694437A126,126 0,0,0 395.5118006752634,315.7165407050235L357.8412004501756,297.1443604700156A84,84 0,0,1 286.1933219387007,343.91876651296246Z" style="pointer-events: none; stroke-width: 1; fill: rgb(254, 191, 90); fill-opacity: 1; stroke: rgb(0, 0, 0); stroke-opacity: 1; opacity: 1;"/><g class="slicetext"><text data-notex="1" class="slicetext" text-anchor="middle" x="0" y="0" style="font-family: 'Times New Roman'; font-size: 12px; fill: rgb(0, 0, 0); fill-opacity: 1; white-space: pre;" transform="translate(336.14210204199793,342.16764541438255)rotate(-33.138000000000034)"><tspan class="line" dy="0em" x="0" y="0">Data Strategy</tspan><tspan class="line" dy="1.3em" x="0" y="0">17.01</tspan></text></g></g><g class="slice cursor-pointer"><path class="surface" d="M357.8412004501756,297.1443604700156L395.5118006752634,315.7165407050235A126,126 0,0,0 408.5,259.99999999999994L366.5,259.99999999999994A84,84 0,0,1 357.8412004501756,297.1443604700156Z" style="pointer-events: none; stroke-width: 1; fill: rgb(255, 246, 182); fill-opacity: 1; stroke: rgb(0, 0, 0); stroke-opacity: 1;"/><g class="slicetext"><text data-notex="1" class="slicetext" text-anchor="middle" x="0" y="0" style="font-family: 'Times New Roman'; font-size: 12px; fill: rgb(0, 0, 0); fill-opacity: 1; white-space: pre;" transform="translate(394.01299137846604,285.99502662932855)scale(0.4620569400925718)rotate(-76.87800000000004)"><tspan class="line" dy="0em" x="0" y="0">Technology Adoption</tspan><tspan class="line" dy="1.3em" x="0" y="0">7.29</tspan></text></g></g><g class="slice cursor-pointer"><path class="surface" d="M176.62674539029587,191.68562407260998L141.3356605203945,168.91416543014662A168,168 0,0,0 127.12714846333682,323.9005242964878L165.97036134750263,307.92539322236587A126,126 0,0,1 176.62674539029587,191.68562407260998Z" style="pointer-events: none; stroke-width: 1; fill: rgb(254, 205, 105); fill-opacity: 1; stroke: rgb(0, 0, 0); stroke-opacity: 1;"/><g class="slicetext"><text data-notex="1" class="slicetext" text-anchor="middle" x="0" y="0" style="font-family: 'Times New Roman'; font-size: 12px; fill: rgb(0, 0, 0); fill-opacity: 1; white-space: pre;" transform="translate(136.3239034855557,246.59917656643418)rotate(-84.76200000000006)"><tspan class="line" dy="0em" x="0" y="0">Process Innovation</tspan><tspan class="line" dy="1.3em" x="0" y="0">15.33</tspan></text></g></g><g class="slice"><path class="surface" d="M165.97036134750263,307.92539322236587L127.12714846333682,323.9005242964878A168,168 0,0,0 157.18188756873747,371.8899937289543L188.5114156765531,343.91749529671574A126,126 0,0,1 165.97036134750263,307.92539322236587Z" style="pointer-events: none; stroke-width: 1; fill: rgb(255, 254, 200); fill-opacity: 1; stroke: rgb(0, 0, 0); stroke-opacity: 1; opacity: 1;"/><g class="slicetext"><text data-notex="1" class="slicetext" text-anchor="middle" x="0" y="0" style="font-family: 'Times New Roman'; font-size: 12px; fill: rgb(0, 0, 0); fill-opacity: 1; white-space: pre;" transform="translate(150.44152337340347,342.70529156931775)scale(0.5343273085191561)rotate(57.94200000000001)"><tspan class="line" dy="0em" x="0" y="0">Product Innovation</tspan><tspan class="line" dy="1.3em" x="0" y="0">5.39</tspan></text></g></g><g class="slice"><path class="surface" d="M188.5114156765531,343.91749529671574L157.18188756873747,371.8899937289543A168,168 0,0,0 233.40398634127178,420.6660556646051L245.67798975595383,380.4995417484538A126,126 0,0,1 188.5114156765531,343.91749529671574Z" style="pointer-events: none; stroke-width: 1; fill: rgb(255, 240, 168); fill-opacity: 1; stroke: rgb(0, 0, 0); stroke-opacity: 1; opacity: 1;"/><g class="slicetext"><text data-notex="1" class="slicetext" text-anchor="middle" x="0" y="0" style="font-family: 'Times New Roman'; font-size: 12px; fill: rgb(0, 0, 0); fill-opacity: 1; white-space: pre;" transform="translate(203.00425325732374,384.2275907433979)scale(0.8412677662917464)rotate(32.615999999999985)"><tspan class="line" dy="0em" x="0" y="0">Market Expansion</tspan><tspan class="line" dy="1.3em" x="0" y="0">8.68</tspan></text></g></g><g class="slice"><path class="surface" d="M245.67798975595383,380.4995417484538L233.40398634127178,420.6660556646051A168,168 0,0,0 289.8866438774014,427.8375330259249L288.03998290805106,385.8781497694437A126,126 0,0,1 245.67798975595383,380.4995417484538Z" style="pointer-events: none; stroke-width: 1; fill: rgb(255, 253, 200); fill-opacity: 1; stroke: rgb(0, 0, 0); stroke-opacity: 1; opacity: 1;"/><g class="slicetext"><text data-notex="1" class="slicetext" text-anchor="middle" x="0" y="0" style="font-family: 'Times New Roman'; font-size: 12px; fill: rgb(0, 0, 0); fill-opacity: 1; white-space: pre;" transform="translate(262.5772689915174,416.34415788377066)scale(0.4357315875165184)rotate(7.235999999999876)"><tspan class="line" dy="0em" x="0" y="0">Mergers &amp; Acquisitions</tspan><tspan class="line" dy="1.3em" x="0" y="0">5.42</tspan></text></g></g><g class="slice"><path class="surface" d="M395.5118006752634,315.7165407050235L433.1824009003512,334.2887209400313A168,168 0,0,0 450.5,259.9999999999999L408.5,259.99999999999994A126,126 0,0,1 395.5118006752634,315.7165407050235Z" style="pointer-events: none; stroke-width: 1; fill: rgb(255, 246, 182); fill-opacity: 1; stroke: rgb(0, 0, 0); stroke-opacity: 1; opacity: 1;"/><g class="slicetext"><text data-notex="1" class="slicetext" text-anchor="middle" x="0" y="0" style="font-family: 'Times New Roman'; font-size: 12px; fill: rgb(0, 0, 0); fill-opacity: 1; white-space: pre;" transform="translate(426.3069684123283,293.5231431526584)scale(0.903090305186641)rotate(-76.87800000000004)"><tspan class="line" dy="0em" x="0" y="0">AI Integration</tspan><tspan class="line" dy="1.3em" x="0" y="0">7.29</tspan></text></g></g><g class="slice"><path class="surface" d="M141.3356605203945,168.91416543014662L106.04457565049313,146.14270678768327A210,210 0,0,0 78.83759600501492,208.79819144811896L119.57007680401193,219.03855315849518A168,168 0,0,1 141.3356605203945,168.91416543014662Z" style="pointer-events: none; stroke-width: 1; fill: rgb(255, 254, 202); fill-opacity: 1; stroke: rgb(0, 0, 0); stroke-opacity: 1; opacity: 1;"/><g class="slicetext"><text data-notex="1" class="slicetext" text-anchor="middle" x="0" y="0" style="font-family: 'Times New Roman'; font-size: 12px; fill: rgb(0, 0, 0); fill-opacity: 1; white-space: pre;" transform="translate(98.27723730793319,180.11241021293927)scale(0.6022547223750184)rotate(-66.52800000000002)"><tspan class="line" dy="0em" x="0" y="0">Automation Systems</tspan><tspan class="line" dy="1.3em" x="0" y="0">5.2</tspan></text></g></g><g class="slice"><path class="surface" d="M119.57007680401193,219.03855315849518L78.83759600501492,208.79819144811896A210,210 0,0,0 73.07691801308943,275.55547270589165L114.96153441047156,272.44437816471327A168,168 0,0,1 119.57007680401193,219.03855315849518Z" style="pointer-events: none; stroke-width: 1; fill: rgb(255, 255, 203); fill-opacity: 1; stroke: rgb(0, 0, 0); stroke-opacity: 1; opacity: 1;"/><g class="slicetext"><text data-notex="1" class="slicetext" text-anchor="middle" x="0" y="0" style="font-family: 'Times New Roman'; font-size: 12px; fill: rgb(0, 0, 0); fill-opacity: 1; white-space: pre;" transform="translate(83.70142669892319,242.9651031236163)scale(0.7287468186745262)rotate(-85.06799999999998)"><tspan class="line" dy="0em" x="0" y="0">Lean Operations</tspan><tspan class="line" dy="1.3em" x="0" y="0">5.1</tspan></text></g></g><g class="slice"><path class="surface" d="M114.96153441047156,272.44437816471327L73.07691801308943,275.55547270589165A210,210 0,0,0 88.28393557917104,339.8756553706097L127.12714846333682,323.9005242964878A168,168 0,0,1 114.96153441047156,272.44437816471327Z" style="pointer-events: none; stroke-width: 1; fill: rgb(255, 255, 204); fill-opacity: 1; stroke: rgb(0, 0, 0); stroke-opacity: 1; opacity: 1;"/><g class="slicetext"><text data-notex="1" class="slicetext" text-anchor="middle" x="0" y="0" style="font-family: 'Times New Roman'; font-size: 12px; fill: rgb(0, 0, 0); fill-opacity: 1; white-space: pre;" transform="translate(90.78591433557919,305.32635554785696)scale(0.56762126490978)rotate(76.69799999999998)"><tspan class="line" dy="0em" x="0" y="0">Agile Transformation</tspan><tspan class="line" dy="1.3em" x="0" y="0">5.03</tspan></text></g></g></g></g><g class="glimages"/><defs id="topdefs-4687fa"><g class="clips"/></defs><g class="layer-above"><g class="imagelayer"/><g class="shapelayer"/></g><g class="infolayer"><g class="cbbab8a2 colorbar" transform="translate(10,50)"><rect class="cbbg" x="571.5" y="63" width="48.015625" height="295" style="fill: rgb(0, 0, 0); fill-opacity: 0; stroke: rgb(68, 68, 68); stroke-opacity: 1; stroke-width: 0;"/><g class="cbfills" transform="translate(0,93)"><rect class="cbfill gradient_filled" style="fill: url('#g4687fa-cbbab8a2');" x="582" y="0" width="15" height="254"/></g><g class="cblines" transform="translate(0,93)"/><g class="cbaxis crisp" transform="translate(0,-50)"><g class="ycbbab8a2tick"><text text-anchor="start" x="600.4" y="4.199999999999999" transform="translate(0,361.7900000000001)" style="font-family: 'Times New Roman'; font-size: 12px; fill: rgb(42, 63, 95); fill-opacity: 1; white-space: pre; opacity: 1;">10</text></g><g class="ycbbab8a2tick"><text text-anchor="start" x="600.4" y="4.199999999999999" style="font-family: 'Times New Roman'; font-size: 12px; fill: rgb(42, 63, 95); fill-opacity: 1; white-space: pre; opacity: 1;" transform="translate(0,326.36000000000007)">15</text></g><g class="ycbbab8a2tick"><text text-anchor="start" x="600.4" y="4.199999999999999" style="font-family: 'Times New Roman'; font-size: 12px; fill: rgb(42, 63, 95); fill-opacity: 1; white-space: pre; opacity: 1;" transform="translate(0,290.94000000000005)">20</text></g><g class="ycbbab8a2tick"><text text-anchor="start" x="600.4" y="4.199999999999999" style="font-family: 'Times New Roman'; font-size: 12px; fill: rgb(42, 63, 95); fill-opacity: 1; white-space: pre; opacity: 1;" transform="translate(0,255.51000000000005)">25</text></g><g class="ycbbab8a2tick"><text text-anchor="start" x="600.4" y="4.199999999999999" style="font-family: 'Times New Roman'; font-size: 12px; fill: rgb(42, 63, 95); fill-opacity: 1; white-space: pre; opacity: 1;" transform="translate(0,220.09000000000006)">30</text></g><g class="ycbbab8a2tick"><text text-anchor="start" x="600.4" y="4.199999999999999" style="font-family: 'Times New Roman'; font-size: 12px; fill: rgb(42, 63, 95); fill-opacity: 1; white-space: pre; opacity: 1;" transform="translate(0,184.66000000000005)">35</text></g><g class="ycbbab8a2tick"><text text-anchor="start" x="600.4" y="4.199999999999999" style="font-family: 'Times New Roman'; font-size: 12px; fill: rgb(42, 63, 95); fill-opacity: 1; white-space: pre; opacity: 1;" transform="translate(0,149.23000000000005)">40</text></g></g><g class="cbtitleunshift" transform="translate(-10,-50)"><g class="cbtitle" transform="translate(-0.5,-0.5)"><text class="ycbbab8a2title" x="592.25" y="135.75" text-anchor="start" style="opacity: 1; font-family: 'Times New Roman'; font-size: 13px; fill: rgb(42, 63, 95); fill-opacity: 1; white-space: pre;">%</text></g></g><rect class="cboutline" x="582" y="93" width="15" height="254" style="stroke: rgb(68, 68, 68); stroke-opacity: 1; fill: none; stroke-width: 1;"/></g><g class="g-gtitle"><text class="gtitle" x="320" y="25" text-anchor="middle" dy="0em" style="opacity: 1; font-family: 'Times New Roman'; font-size: 16px; fill: rgb(42, 63, 95); fill-opacity: 1; white-space: pre;">Business Distribution by Category (2021) (%)</text></g></g></svg>