<svg class="main-svg" xmlns="http://www.w3.org/2000/svg" xmlns:xlink="http://www.w3.org/1999/xlink" width="1920" height="1440" style="" viewBox="0 0 640 480"><rect x="0" y="0" width="640" height="480" style="fill: rgb(255, 255, 255); fill-opacity: 1;"/><defs id="defs-46a5a6"><g class="clips"/><g class="gradients"><linearGradient x1="0" y1="1" x2="0" y2="0" gradientUnits="objectBoundingBox" id="g46a5a6-cb7a08c1"><stop offset="0%" stop-color="rgb(247, 251, 255)" stop-opacity="1"/><stop offset="12.5%" stop-color="rgb(222, 235, 247)" stop-opacity="1"/><stop offset="25%" stop-color="rgb(198, 219, 239)" stop-opacity="1"/><stop offset="37.5%" stop-color="rgb(158, 202, 225)" stop-opacity="1"/><stop offset="50%" stop-color="rgb(107, 174, 214)" stop-opacity="1"/><stop offset="62.5%" stop-color="rgb(66, 146, 198)" stop-opacity="1"/><stop offset="75%" stop-color="rgb(33, 113, 181)" stop-opacity="1"/><stop offset="87.5%" stop-color="rgb(8, 81, 156)" stop-opacity="1"/><stop offset="100%" stop-color="rgb(8, 48, 107)" stop-opacity="1"/></linearGradient></g><g class="patterns"/></defs><g class="bglayer"/><g class="layer-below"><g class="imagelayer"/><g class="shapelayer"/></g><g class="cartesianlayer"/><g class="polarlayer"/><g class="smithlayer"/><g class="ternarylayer"/><g class="geolayer"/><g class="funnelarealayer"/><g class="pielayer"/><g class="iciclelayer"/><g class="treemaplayer"/><g class="sunburstlayer"><g class="trace sunburst" stroke-linejoin="round" style="opacity: 1;"><g class="slice"><path class="surface" d="M282.5,260A0,0 0,1,0 282.5,260A0,0 0,1,0 282.5,260ZM335,260A52.5,52.5 0,1,1 230,260A52.5,52.5 0,1,1 335,260Z" style="pointer-events: none; stroke-width: 1; fill: rgb(255, 255, 255); fill-opacity: 1; stroke: rgb(0, 0, 0); stroke-opacity: 1;"/><g class="slicetext"><text data-notex="1" class="slicetext" text-anchor="middle" x="0" y="0" style="font-family: 'Times New Roman'; font-size: 12px; fill: rgb(0, 0, 0); fill-opacity: 1; white-space: pre;" transform="translate(282.5,264)">100</text></g></g><g class="slice cursor-pointer"><path class="surface" d="M335,260L387.5,260A105,105 0,0,0 207.09673873486514,186.92915635780702L244.79836936743257,223.4645781789035A52.5,52.5 0,0,1 335,260Z" style="pointer-events: none; stroke-width: 1; fill: rgb(8, 48, 107); fill-opacity: 1; stroke: rgb(0, 0, 0); stroke-opacity: 1;"/><g class="slicetext"><text data-notex="1" class="slicetext" text-anchor="middle" x="0" y="0" style="font-family: 'Times New Roman'; font-size: 12px; fill: rgb(0, 0, 0); fill-opacity: 1; white-space: pre;" transform="translate(310.1608728344474,191.70858005677835)rotate(22.049999999999955)"><tspan class="line" dy="0em" x="0" y="0">Sports Media and Tech</tspan><tspan class="line" dy="1.3em" x="0" y="0">37.75</tspan></text></g></g><g class="slice cursor-pointer"><path class="surface" d="M244.79836936743257,223.4645781789035L207.09673873486514,186.92915635780702A105,105 0,0,0 251.62576585060816,360.3582665538247L267.06288292530405,310.17913327691235A52.5,52.5 0,0,1 244.79836936743257,223.4645781789035Z" style="pointer-events: none; stroke-width: 1; fill: rgb(15, 90, 163); fill-opacity: 1; stroke: rgb(0, 0, 0); stroke-opacity: 1;"/><g class="slicetext"><text data-notex="1" class="slicetext" text-anchor="middle" x="0" y="0" style="font-family: 'Times New Roman'; font-size: 12px; fill: rgb(0, 0, 0); fill-opacity: 1; white-space: pre;" transform="translate(217.739413090014,276.4583085801315)rotate(75.60000000000002)"><tspan class="line" dy="0em" x="0" y="0">Fitness and Wellness</tspan><tspan class="line" dy="1.3em" x="0" y="0">32.5</tspan></text></g></g><g class="slice cursor-pointer"><path class="surface" d="M267.06288292530405,310.17913327691235L251.62576585060816,360.3582665538247A105,105 0,0,0 387.5,259.99999999999994L335,259.99999999999994A52.5,52.5 0,0,1 267.06288292530405,310.17913327691235Z" style="pointer-events: none; stroke-width: 1; fill: rgb(32, 112, 180); fill-opacity: 1; stroke: rgb(0, 0, 0); stroke-opacity: 1;"/><g class="slicetext"><text data-notex="1" class="slicetext" text-anchor="middle" x="0" y="0" style="font-family: 'Times New Roman'; font-size: 12px; fill: rgb(0, 0, 0); fill-opacity: 1; white-space: pre;" transform="translate(322.40844004300084,314.3210026161759)rotate(-36.450000000000045)"><tspan class="line" dy="0em" x="0" y="0">Competitive Sports</tspan><tspan class="line" dy="1.3em" x="0" y="0">29.75</tspan></text></g></g><g class="slice"><path class="surface" d="M387.5,260L440,260A157.5,157.5 0,0,0 236.09407248574985,109.49172816239582L251.5627149904999,159.66115210826388A105,105 0,0,1 387.5,260Z" style="pointer-events: none; stroke-width: 1; fill: rgb(32, 112, 180); fill-opacity: 1; stroke: rgb(0, 0, 0); stroke-opacity: 1; opacity: 1;"/><g class="slicetext"><text data-notex="1" class="slicetext" text-anchor="middle" x="0" y="0" style="font-family: 'Times New Roman'; font-size: 12px; fill: rgb(0, 0, 0); fill-opacity: 1; white-space: pre;" transform="translate(359.30674183460724,155.9435933858075)rotate(36.432000000000016)"><tspan class="line" dy="0em" x="0" y="0">Live Broadcasting</tspan><tspan class="line" dy="1.3em" x="0" y="0">29.76</tspan></text></g></g><g class="slice"><path class="surface" d="M251.5627149904999,159.66115210826388L236.09407248574985,109.49172816239582A157.5,157.5 0,0,0 169.39510810229774,150.3937345367105L207.09673873486514,186.92915635780702A105,105 0,0,1 251.5627149904999,159.66115210826388Z" style="pointer-events: none; stroke-width: 1; fill: rgb(229, 240, 249); fill-opacity: 1; stroke: rgb(0, 0, 0); stroke-opacity: 1; opacity: 1;"/><g class="slicetext"><text data-notex="1" class="slicetext" text-anchor="middle" x="0" y="0" style="font-family: 'Times New Roman'; font-size: 12px; fill: rgb(0, 0, 0); fill-opacity: 1; white-space: pre;" transform="translate(206.41435332046072,135.9270195322897)scale(0.7206083635629559)rotate(-31.51800000000003)"><tspan class="line" dy="0em" x="0" y="0">Sports Technology</tspan><tspan class="line" dy="1.3em" x="0" y="0">7.99</tspan></text></g></g><g class="slice"><path class="surface" d="M207.09673873486514,186.92915635780702L169.39510810229774,150.3937345367105A157.5,157.5 0,0,0 236.1886487759122,410.53739983073706L251.62576585060816,360.3582665538247A105,105 0,0,1 207.09673873486514,186.92915635780702Z" style="pointer-events: none; stroke-width: 1; fill: rgb(15, 90, 163); fill-opacity: 1; stroke: rgb(0, 0, 0); stroke-opacity: 1; opacity: 1;"/><g class="slicetext"><text data-notex="1" class="slicetext" text-anchor="middle" x="0" y="0" style="font-family: 'Times New Roman'; font-size: 12px; fill: rgb(0, 0, 0); fill-opacity: 1; white-space: pre;" transform="translate(164.68838580557681,290.07143135420716)rotate(75.60000000000002)"><tspan class="line" dy="0em" x="0" y="0">Outdoor Activities</tspan><tspan class="line" dy="1.3em" x="0" y="0">32.5</tspan></text></g></g><g class="slice cursor-pointer"><path class="surface" d="M251.62576585060816,360.3582665538247L236.1886487759122,410.53739983073706A157.5,157.5 0,0,0 384.18477871461414,380.27658033781955L350.2898524764094,340.1843868918797A105,105 0,0,1 251.62576585060816,360.3582665538247Z" style="pointer-events: none; stroke-width: 1; fill: rgb(172, 208, 230); fill-opacity: 1; stroke: rgb(0, 0, 0); stroke-opacity: 1;"/><g class="slicetext"><text data-notex="1" class="slicetext" text-anchor="middle" x="0" y="0" style="font-family: 'Times New Roman'; font-size: 12px; fill: rgb(0, 0, 0); fill-opacity: 1; white-space: pre;" transform="translate(307.18978389516957,381.56893001196556)rotate(-11.55600000000004)"><tspan class="line" dy="0em" x="0" y="0">Team Sports</tspan><tspan class="line" dy="1.3em" x="0" y="0">15.92</tspan></text></g></g><g class="slice cursor-pointer"><path class="surface" d="M350.2898524764094,340.1843868918797L384.18477871461414,380.27658033781955A157.5,157.5 0,0,0 440,259.9999999999999L387.5,259.99999999999994A105,105 0,0,1 350.2898524764094,340.1843868918797Z" style="pointer-events: none; stroke-width: 1; fill: rgb(192, 217, 237); fill-opacity: 1; stroke: rgb(0, 0, 0); stroke-opacity: 1;"/><g class="slicetext"><text data-notex="1" class="slicetext" text-anchor="middle" x="0" y="0" style="font-family: 'Times New Roman'; font-size: 12px; fill: rgb(0, 0, 0); fill-opacity: 1; white-space: pre;" transform="translate(397.38606881385186,313.50319517537434)rotate(-65.106)"><tspan class="line" dy="0em" x="0" y="0">Individual Sports</tspan><tspan class="line" dy="1.3em" x="0" y="0">13.83</tspan></text></g></g><g class="slice"><path class="surface" d="M236.1886487759122,410.53739983073706L220.7515317012163,460.7165331076494A210,210 0,0,0 295.554319982606,469.59385661271597L292.29073998695446,417.19539245953695A157.5,157.5 0,0,1 236.1886487759122,410.53739983073706Z" style="pointer-events: none; stroke-width: 1; fill: rgb(243, 248, 254); fill-opacity: 1; stroke: rgb(0, 0, 0); stroke-opacity: 1; opacity: 1;"/><g class="slicetext"><text data-notex="1" class="slicetext" text-anchor="middle" x="0" y="0" style="font-family: 'Times New Roman'; font-size: 12px; fill: rgb(0, 0, 0); fill-opacity: 1; white-space: pre;" transform="translate(260.51705265440603,438.6648474070106)"><tspan class="line" dy="0em" x="0" y="0">Football</tspan><tspan class="line" dy="1.3em" x="0" y="0">5.74</tspan></text></g></g><g class="slice"><path class="surface" d="M292.29073998695446,417.19539245953695L295.554319982606,469.59385661271597A210,210 0,0,0 360.7866242534799,454.86201390469733L341.2149681901099,406.146510428523A157.5,157.5 0,0,1 292.29073998695446,417.19539245953695Z" style="pointer-events: none; stroke-width: 1; fill: rgb(247, 251, 255); fill-opacity: 1; stroke: rgb(0, 0, 0); stroke-opacity: 1; opacity: 1;"/><g class="slicetext"><text data-notex="1" class="slicetext" text-anchor="middle" x="0" y="0" style="font-family: 'Times New Roman'; font-size: 12px; fill: rgb(0, 0, 0); fill-opacity: 1; white-space: pre;" transform="translate(323.5796483742173,443.42484601861696)rotate(-12.726000000000113)"><tspan class="line" dy="0em" x="0" y="0">Basketball</tspan><tspan class="line" dy="1.3em" x="0" y="0">5.09</tspan></text></g></g><g class="slice"><path class="surface" d="M341.2149681901099,406.146510428523L360.7866242534799,454.86201390469733A210,210 0,0,0 418.07970495281893,420.36877378375925L384.18477871461425,380.27658033781944A157.5,157.5 0,0,1 341.2149681901099,406.146510428523Z" style="pointer-events: none; stroke-width: 1; fill: rgb(247, 251, 255); fill-opacity: 1; stroke: rgb(0, 0, 0); stroke-opacity: 1; opacity: 1;"/><g class="slicetext"><text data-notex="1" class="slicetext" text-anchor="middle" x="0" y="0" style="font-family: 'Times New Roman'; font-size: 12px; fill: rgb(0, 0, 0); fill-opacity: 1; white-space: pre;" transform="translate(378.954866815975,420.8623111971688)rotate(-31.050000000000068)"><tspan class="line" dy="0em" x="0" y="0">Volleyball</tspan><tspan class="line" dy="1.3em" x="0" y="0">5.09</tspan></text></g></g><g class="slice"><path class="surface" d="M384.18477871461414,380.27658033781955L418.0797049528188,420.36877378375937A210,210 0,0,0 474.54081813974244,344.97249065561385L426.53061360480683,323.7293679917104A157.5,157.5 0,0,1 384.18477871461414,380.27658033781955Z" style="pointer-events: none; stroke-width: 1; fill: rgb(234, 243, 251); fill-opacity: 1; stroke: rgb(0, 0, 0); stroke-opacity: 1; opacity: 1;"/><g class="slicetext"><text data-notex="1" class="slicetext" text-anchor="middle" x="0" y="0" style="font-family: 'Times New Roman'; font-size: 12px; fill: rgb(0, 0, 0); fill-opacity: 1; white-space: pre;" transform="translate(429.41651870875023,366.3377890079133)"><tspan class="line" dy="0em" x="0" y="0">Tennis</tspan><tspan class="line" dy="1.3em" x="0" y="0">7.2</tspan></text></g></g><g class="slice"><path class="surface" d="M426.53061360480683,323.7293679917104L474.54081813974244,344.97249065561385A210,210 0,0,0 492.5,259.9999999999999L440,259.9999999999999A157.5,157.5 0,0,1 426.53061360480683,323.7293679917104Z" style="pointer-events: none; stroke-width: 1; fill: rgb(238, 245, 252); fill-opacity: 1; stroke: rgb(0, 0, 0); stroke-opacity: 1; opacity: 1;"/><g class="slicetext"><text data-notex="1" class="slicetext" text-anchor="middle" x="0" y="0" style="font-family: 'Times New Roman'; font-size: 12px; fill: rgb(0, 0, 0); fill-opacity: 1; white-space: pre;" transform="translate(458.92791732819,297.4562378205146)rotate(-78.06600000000003)"><tspan class="line" dy="0em" x="0" y="0">Athletics</tspan><tspan class="line" dy="1.3em" x="0" y="0">6.63</tspan></text></g></g></g></g><g class="glimages"/><defs id="topdefs-46a5a6"><g class="clips"/></defs><g class="layer-above"><g class="imagelayer"/><g class="shapelayer"/></g><g class="infolayer"><g class="cb7a08c1 colorbar" transform="translate(10,50)"><rect class="cbbg" x="571.5" y="63" width="48.015625" height="295" style="fill: rgb(0, 0, 0); fill-opacity: 0; stroke: rgb(68, 68, 68); stroke-opacity: 1; stroke-width: 0;"/><g class="cbfills" transform="translate(0,93)"><rect class="cbfill gradient_filled" style="fill: url('#g46a5a6-cb7a08c1');" x="582" y="0" width="15" height="254"/></g><g class="cblines" transform="translate(0,93)"/><g class="cbaxis crisp" transform="translate(0,-50)"><g class="ycb7a08c1tick"><text text-anchor="start" x="600.4" y="4.199999999999999" transform="translate(0,358.81000000000006)" style="font-family: 'Times New Roman'; font-size: 12px; fill: rgb(42, 63, 95); fill-opacity: 1; white-space: pre; opacity: 1;">10</text></g><g class="ycb7a08c1tick"><text text-anchor="start" x="600.4" y="4.199999999999999" style="font-family: 'Times New Roman'; font-size: 12px; fill: rgb(42, 63, 95); fill-opacity: 1; white-space: pre; opacity: 1;" transform="translate(0,319.93000000000006)">15</text></g><g class="ycb7a08c1tick"><text text-anchor="start" x="600.4" y="4.199999999999999" style="font-family: 'Times New Roman'; font-size: 12px; fill: rgb(42, 63, 95); fill-opacity: 1; white-space: pre; opacity: 1;" transform="translate(0,281.0400000000001)">20</text></g><g class="ycb7a08c1tick"><text text-anchor="start" x="600.4" y="4.199999999999999" style="font-family: 'Times New Roman'; font-size: 12px; fill: rgb(42, 63, 95); fill-opacity: 1; white-space: pre; opacity: 1;" transform="translate(0,242.16000000000005)">25</text></g><g class="ycb7a08c1tick"><text text-anchor="start" x="600.4" y="4.199999999999999" style="font-family: 'Times New Roman'; font-size: 12px; fill: rgb(42, 63, 95); fill-opacity: 1; white-space: pre; opacity: 1;" transform="translate(0,203.27000000000007)">30</text></g><g class="ycb7a08c1tick"><text text-anchor="start" x="600.4" y="4.199999999999999" style="font-family: 'Times New Roman'; font-size: 12px; fill: rgb(42, 63, 95); fill-opacity: 1; white-space: pre; opacity: 1;" transform="translate(0,164.39000000000004)">35</text></g></g><g class="cbtitleunshift" transform="translate(-10,-50)"><g class="cbtitle" transform="translate(-0.5,-0.5)"><text class="ycb7a08c1title" x="592.25" y="135.75" text-anchor="start" style="opacity: 1; font-family: 'Times New Roman'; font-size: 13px; fill: rgb(42, 63, 95); fill-opacity: 1; white-space: pre;">%</text></g></g><rect class="cboutline" x="582" y="93" width="15" height="254" style="stroke: rgb(68, 68, 68); stroke-opacity: 1; fill: none; stroke-width: 1;"/></g><g class="g-gtitle"><text class="gtitle" x="320" y="25" text-anchor="middle" dy="0em" style="opacity: 1; font-family: 'Times New Roman'; font-size: 16px; fill: rgb(42, 63, 95); fill-opacity: 1; white-space: pre;">Sports Distribution by Category (2024) (%)</text></g></g></svg>