<svg class="main-svg" xmlns="http://www.w3.org/2000/svg" xmlns:xlink="http://www.w3.org/1999/xlink" width="1920" height="1440" style="" viewBox="0 0 640 480"><rect x="0" y="0" width="640" height="480" style="fill: rgb(255, 255, 255); fill-opacity: 1;"/><defs id="defs-80c712"><g class="clips"/><g class="gradients"><linearGradient x1="0" y1="1" x2="0" y2="0" gradientUnits="objectBoundingBox" id="g80c712-cb8dae96"><stop offset="0%" stop-color="rgb(255, 245, 240)" stop-opacity="1"/><stop offset="12.5%" stop-color="rgb(254, 224, 210)" stop-opacity="1"/><stop offset="25%" stop-color="rgb(252, 187, 161)" stop-opacity="1"/><stop offset="37.5%" stop-color="rgb(252, 146, 114)" stop-opacity="1"/><stop offset="50%" stop-color="rgb(251, 106, 74)" stop-opacity="1"/><stop offset="62.5%" stop-color="rgb(239, 59, 44)" stop-opacity="1"/><stop offset="75%" stop-color="rgb(203, 24, 29)" stop-opacity="1"/><stop offset="87.5%" stop-color="rgb(165, 15, 21)" stop-opacity="1"/><stop offset="100%" stop-color="rgb(103, 0, 13)" stop-opacity="1"/></linearGradient></g><g class="patterns"/></defs><g class="bglayer"/><g class="layer-below"><g class="imagelayer"/><g class="shapelayer"/></g><g class="cartesianlayer"/><g class="polarlayer"/><g class="smithlayer"/><g class="ternarylayer"/><g class="geolayer"/><g class="funnelarealayer"/><g class="pielayer"/><g class="iciclelayer"/><g class="treemaplayer"/><g class="sunburstlayer"><g class="trace sunburst" stroke-linejoin="round" style="opacity: 1;"><g class="slice"><path class="surface" d="M282.5,260A0,0 0,1,0 282.5,260A0,0 0,1,0 282.5,260ZM324.5,260A42,42 0,1,1 240.5,260A42,42 0,1,1 324.5,260Z" style="pointer-events: none; stroke-width: 1; fill: rgb(255, 255, 255); fill-opacity: 1; stroke: rgb(0, 0, 0); stroke-opacity: 1;"/><g class="slicetext"><text data-notex="1" class="slicetext" text-anchor="middle" x="0" y="0" style="font-family: 'Times New Roman'; font-size: 12px; fill: rgb(0, 0, 0); fill-opacity: 1; white-space: pre;" transform="translate(282.5,264)">99.99</text></g></g><g class="slice cursor-pointer"><path class="surface" d="M324.5,260L366.5,260A84,84 0,0,0 201.3332722205886,238.367563669736L241.9166361102943,249.183781834868A42,42 0,0,1 324.5,260Z" style="pointer-events: none; stroke-width: 1; fill: rgb(103, 0, 13); fill-opacity: 1; stroke: rgb(0, 0, 0); stroke-opacity: 1;"/><g class="slicetext"><text data-notex="1" class="slicetext" text-anchor="middle" x="0" y="0" style="font-family: 'Times New Roman'; font-size: 12px; fill: rgb(0, 0, 0); fill-opacity: 1; white-space: pre;" transform="translate(290.1954991142344,200.0275668128345)scale(0.9189309730996433)rotate(7.461746174617474)"><tspan class="line" dy="0em" x="0" y="0">Competitive Sports</tspan><tspan class="line" dy="1.3em" x="0" y="0">45.85</tspan></text></g></g><g class="slice cursor-pointer"><path class="surface" d="M241.9166361102943,249.183781834868L201.3332722205886,238.367563669736A84,84 0,0,0 283.225771450681,343.99686455934756L282.8628857253405,301.9984322796738A42,42 0,0,1 241.9166361102943,249.183781834868Z" style="pointer-events: none; stroke-width: 1; fill: rgb(242, 71, 52); fill-opacity: 1; stroke: rgb(0, 0, 0); stroke-opacity: 1;"/><g class="slicetext"><text data-notex="1" class="slicetext" text-anchor="middle" x="0" y="0" style="font-family: 'Times New Roman'; font-size: 12px; fill: rgb(0, 0, 0); fill-opacity: 1; white-space: pre;" transform="translate(240.42390732876504,292.43688078621113)scale(0.8861455327612916)rotate(52.214221422142145)"><tspan class="line" dy="0em" x="0" y="0">Fitness and Wellness</tspan><tspan class="line" dy="1.3em" x="0" y="0">29.28</tspan></text></g></g><g class="slice cursor-pointer"><path class="surface" d="M282.8628857253405,301.9984322796738L283.225771450681,343.99686455934756A84,84 0,0,0 366.5,260L324.5,260A42,42 0,0,1 282.8628857253405,301.9984322796738Z" style="pointer-events: none; stroke-width: 1; fill: rgb(251, 111, 79); fill-opacity: 1; stroke: rgb(0, 0, 0); stroke-opacity: 1;"/><g class="slicetext"><text data-notex="1" class="slicetext" text-anchor="middle" x="0" y="0" style="font-family: 'Times New Roman'; font-size: 12px; fill: rgb(0, 0, 0); fill-opacity: 1; white-space: pre;" transform="translate(322.4956019346949,299.6515145410475)scale(0.7743175272131835)rotate(-45.247524752475215)"><tspan class="line" dy="0em" x="0" y="0">Sports Media and Tech</tspan><tspan class="line" dy="1.3em" x="0" y="0">24.86</tspan></text></g></g><g class="slice cursor-pointer"><path class="surface" d="M366.5,260L408.5,260A126,126 0,0,0 204.87675064831961,160.74965410595865L230.75116709887976,193.83310273730575A84,84 0,0,1 366.5,260Z" style="pointer-events: none; stroke-width: 1; fill: rgb(204, 25, 29); fill-opacity: 1; stroke: rgb(0, 0, 0); stroke-opacity: 1;"/><g class="slicetext"><text data-notex="1" class="slicetext" text-anchor="middle" x="0" y="0" style="font-family: 'Times New Roman'; font-size: 12px; fill: rgb(0, 0, 0); fill-opacity: 1; white-space: pre;" transform="translate(328.8348923031184,164.56430842164116)rotate(25.98559855985593)"><tspan class="line" dy="0em" x="0" y="0">Team Sports</tspan><tspan class="line" dy="1.3em" x="0" y="0">35.56</tspan></text></g></g><g class="slice"><path class="surface" d="M230.75116709887976,193.83310273730575L204.87675064831961,160.74965410595865A126,126 0,0,0 160.7499083308829,227.551345504604L201.3332722205886,238.367563669736A84,84 0,0,1 230.75116709887976,193.83310273730575Z" style="pointer-events: none; stroke-width: 1; fill: rgb(254, 223, 209); fill-opacity: 1; stroke: rgb(0, 0, 0); stroke-opacity: 1; opacity: 1;"/><g class="slicetext"><text data-notex="1" class="slicetext" text-anchor="middle" x="0" y="0" style="font-family: 'Times New Roman'; font-size: 12px; fill: rgb(0, 0, 0); fill-opacity: 1; white-space: pre;" transform="translate(188.23962051078857,197.8899621576963)scale(0.7526928629326296)rotate(-56.552655265526596)"><tspan class="line" dy="0em" x="0" y="0">Individual Sports</tspan><tspan class="line" dy="1.3em" x="0" y="0">10.29</tspan></text></g></g><g class="slice"><path class="surface" d="M201.3332722205886,238.367563669736L160.7499083308829,227.551345504604A126,126 0,0,0 283.58865717602146,385.9952968390213L283.225771450681,343.99686455934756A84,84 0,0,1 201.3332722205886,238.367563669736Z" style="pointer-events: none; stroke-width: 1; fill: rgb(242, 71, 52); fill-opacity: 1; stroke: rgb(0, 0, 0); stroke-opacity: 1; opacity: 1;"/><g class="slicetext"><text data-notex="1" class="slicetext" text-anchor="middle" x="0" y="0" style="font-family: 'Times New Roman'; font-size: 12px; fill: rgb(0, 0, 0); fill-opacity: 1; white-space: pre;" transform="translate(205.9859137279335,319.3199964248052)rotate(52.214221422142145)"><tspan class="line" dy="0em" x="0" y="0">Personal Training</tspan><tspan class="line" dy="1.3em" x="0" y="0">29.28</tspan></text></g></g><g class="slice cursor-pointer"><path class="surface" d="M283.225771450681,343.99686455934756L283.58865717602146,385.9952968390213A126,126 0,0,0 401.02265581159725,302.75956102868287L361.51510387439816,288.5063740191219A84,84 0,0,1 283.225771450681,343.99686455934756Z" style="pointer-events: none; stroke-width: 1; fill: rgb(252, 154, 123); fill-opacity: 1; stroke: rgb(0, 0, 0); stroke-opacity: 1;"/><g class="slicetext"><text data-notex="1" class="slicetext" text-anchor="middle" x="0" y="0" style="font-family: 'Times New Roman'; font-size: 12px; fill: rgb(0, 0, 0); fill-opacity: 1; white-space: pre;" transform="translate(338.37066359838906,338.8257035143191)rotate(-35.32853285328531)"><tspan class="line" dy="0em" x="0" y="0">Live Broadcasting</tspan><tspan class="line" dy="1.3em" x="0" y="0">19.35</tspan></text></g></g><g class="slice"><path class="surface" d="M361.51510387439816,288.5063740191219L401.02265581159725,302.75956102868287A126,126 0,0,0 408.5,260.00000000000006L366.5,260A84,84 0,0,1 361.51510387439816,288.5063740191219Z" style="pointer-events: none; stroke-width: 1; fill: rgb(255, 243, 237); fill-opacity: 1; stroke: rgb(0, 0, 0); stroke-opacity: 1; opacity: 1;"/><g class="slicetext"><text data-notex="1" class="slicetext" text-anchor="middle" x="0" y="0" style="font-family: 'Times New Roman'; font-size: 12px; fill: rgb(0, 0, 0); fill-opacity: 1; white-space: pre;" transform="translate(386.1278729589209,276.41533333418374)scale(0.4416979256621223)rotate(9.918991899189905)"><tspan class="line" dy="0em" x="0" y="0">Sports Technology</tspan><tspan class="line" dy="1.3em" x="0" y="0">5.51</tspan></text></g></g><g class="slice cursor-pointer"><path class="surface" d="M408.5,260L450.5,260A168,168 0,0,0 375.86597019035696,120.33326949336367L352.5244776427677,155.24995212002278A126,126 0,0,1 408.5,260Z" style="pointer-events: none; stroke-width: 1; fill: rgb(252, 184, 158); fill-opacity: 1; stroke: rgb(0, 0, 0); stroke-opacity: 1;"/><g class="slicetext"><text data-notex="1" class="slicetext" text-anchor="middle" x="0" y="0" style="font-family: 'Times New Roman'; font-size: 12px; fill: rgb(0, 0, 0); fill-opacity: 1; white-space: pre;" transform="translate(414.3749223385471,189.1576609714617)rotate(61.881188118811906)"><tspan class="line" dy="0em" x="0" y="0">Football</tspan><tspan class="line" dy="1.3em" x="0" y="0">15.62</tspan></text></g></g><g class="slice"><path class="surface" d="M352.5244776427677,155.24995212002278L375.86597019035696,120.33326949336367A168,168 0,0,0 229.4519296791391,100.59516244720487L242.7139472593543,140.44637183540368A126,126 0,0,1 352.5244776427677,155.24995212002278Z" style="pointer-events: none; stroke-width: 1; fill: rgb(252, 193, 168); fill-opacity: 1; stroke: rgb(0, 0, 0); stroke-opacity: 1; opacity: 1;"/><g class="slicetext"><text data-notex="1" class="slicetext" text-anchor="middle" x="0" y="0" style="font-family: 'Times New Roman'; font-size: 12px; fill: rgb(0, 0, 0); fill-opacity: 1; white-space: pre;" transform="translate(302.093091313331,112.14719119109623)rotate(7.677767776777728)"><tspan class="line" dy="0em" x="0" y="0">Basketball</tspan><tspan class="line" dy="1.3em" x="0" y="0">14.49</tspan></text></g></g><g class="slice"><path class="surface" d="M242.7139472593543,140.44637183540368L229.4519296791391,100.59516244720487A168,168 0,0,0 179.00233419775955,127.66620547461147L204.87675064831967,160.7496541059586A126,126 0,0,1 242.7139472593543,140.44637183540368Z" style="pointer-events: none; stroke-width: 1; fill: rgb(255, 243, 238); fill-opacity: 1; stroke: rgb(0, 0, 0); stroke-opacity: 1; opacity: 1;"/><g class="slicetext"><text data-notex="1" class="slicetext" text-anchor="middle" x="0" y="0" style="font-family: 'Times New Roman'; font-size: 12px; fill: rgb(0, 0, 0); fill-opacity: 1; white-space: pre;" transform="translate(208.63567025717342,123.00280037009772)scale(0.9238189694206411)rotate(-28.217821782178248)"><tspan class="line" dy="0em" x="0" y="0">Volleyball</tspan><tspan class="line" dy="1.3em" x="0" y="0">5.45</tspan></text></g></g><g class="slice"><path class="surface" d="M283.58865717602146,385.9952968390213L283.95154290136196,427.9937291186951A168,168 0,0,0 381.4058573955747,395.7999682358072L356.679393046681,361.8499761768554A126,126 0,0,1 283.58865717602146,385.9952968390213Z" style="pointer-events: none; stroke-width: 1; fill: rgb(254, 225, 212); fill-opacity: 1; stroke: rgb(0, 0, 0); stroke-opacity: 1; opacity: 1;"/><g class="slicetext"><text data-notex="1" class="slicetext" text-anchor="middle" x="0" y="0" style="font-family: 'Times New Roman'; font-size: 12px; fill: rgb(0, 0, 0); fill-opacity: 1; white-space: pre;" transform="translate(327.6974205868393,396.8179274307241)scale(0.9672417289031303)rotate(-18.280828082808284)"><tspan class="line" dy="0em" x="0" y="0">Online Streaming</tspan><tspan class="line" dy="1.3em" x="0" y="0">9.88</tspan></text></g></g><g class="slice"><path class="surface" d="M356.679393046681,361.8499761768554L381.4058573955747,395.7999682358072A168,168 0,0,0 440.53020774879633,317.01274803824384L401.02265581159725,302.75956102868287A126,126 0,0,1 356.679393046681,361.8499761768554Z" style="pointer-events: none; stroke-width: 1; fill: rgb(254, 227, 214); fill-opacity: 1; stroke: rgb(0, 0, 0); stroke-opacity: 1; opacity: 1;"/><g class="slicetext"><text data-notex="1" class="slicetext" text-anchor="middle" x="0" y="0" style="font-family: 'Times New Roman'; font-size: 12px; fill: rgb(0, 0, 0); fill-opacity: 1; white-space: pre;" transform="translate(400.06016758264843,348.22076116292413)scale(0.8226370764722954)rotate(-53.114311431143165)"><tspan class="line" dy="0em" x="0" y="0">Television Coverage</tspan><tspan class="line" dy="1.3em" x="0" y="0">9.47</tspan></text></g></g><g class="slice"><path class="surface" d="M450.5,260L492.5,260A210,210 0,0,0 480.26069524273316,189.35506092358193L440.70855619418654,203.48404873886557A168,168 0,0,1 450.5,260Z" style="pointer-events: none; stroke-width: 1; fill: rgb(255, 243, 238); fill-opacity: 1; stroke: rgb(0, 0, 0); stroke-opacity: 1; opacity: 1;"/><g class="slicetext"><text data-notex="1" class="slicetext" text-anchor="middle" x="0" y="0" style="font-family: 'Times New Roman'; font-size: 12px; fill: rgb(0, 0, 0); fill-opacity: 1; white-space: pre;" transform="translate(474.3579499017642,226.76042261977148)rotate(80.17101710171016)"><tspan class="line" dy="0em" x="0" y="0">World Cup</tspan><tspan class="line" dy="1.3em" x="0" y="0">5.46</tspan></text></g></g><g class="slice"><path class="surface" d="M440.70855619418654,203.48404873886557L480.26069524273316,189.35506092358193A210,210 0,0,0 448.01881087491967,130.75788903552922L414.9150486999357,156.60631122842335A168,168 0,0,1 440.70855619418654,203.48404873886557Z" style="pointer-events: none; stroke-width: 1; fill: rgb(255, 245, 240); fill-opacity: 1; stroke: rgb(0, 0, 0); stroke-opacity: 1; opacity: 1;"/><g class="slicetext"><text data-notex="1" class="slicetext" text-anchor="middle" x="0" y="0" style="font-family: 'Times New Roman'; font-size: 12px; fill: rgb(0, 0, 0); fill-opacity: 1; white-space: pre;" transform="translate(457.2189919716807,163.7271866773706)scale(0.7331824685774578)rotate(61.179117911791195)"><tspan class="line" dy="0em" x="0" y="0">League Matches</tspan><tspan class="line" dy="1.3em" x="0" y="0">5.09</tspan></text></g></g><g class="slice"><path class="surface" d="M414.9150486999357,156.60631122842335L448.01881087491967,130.75788903552922A210,210 0,0,0 399.20746273794623,85.41658686670462L375.86597019035696,120.33326949336367A168,168 0,0,1 414.9150486999357,156.60631122842335Z" style="pointer-events: none; stroke-width: 1; fill: rgb(255, 245, 240); fill-opacity: 1; stroke: rgb(0, 0, 0); stroke-opacity: 1; opacity: 1;"/><g class="slicetext"><text data-notex="1" class="slicetext" text-anchor="middle" x="0" y="0" style="font-family: 'Times New Roman'; font-size: 12px; fill: rgb(0, 0, 0); fill-opacity: 1; white-space: pre;" transform="translate(419.4980047097345,112.38293941292599)scale(0.5574040933717976)rotate(42.88928892889294)"><tspan class="line" dy="0em" x="0" y="0">Youth Championships</tspan><tspan class="line" dy="1.3em" x="0" y="0">5.07</tspan></text></g></g></g></g><g class="glimages"/><defs id="topdefs-80c712"><g class="clips"/></defs><g class="layer-above"><g class="imagelayer"/><g class="shapelayer"/></g><g class="infolayer"><g class="cb8dae96 colorbar" transform="translate(10,50)"><rect class="cbbg" x="571.5" y="63" width="48.015625" height="295" style="fill: rgb(0, 0, 0); fill-opacity: 0; stroke: rgb(68, 68, 68); stroke-opacity: 1; stroke-width: 0;"/><g class="cbfills" transform="translate(0,93)"><rect class="cbfill gradient_filled" style="fill: url('#g80c712-cb8dae96');" x="582" y="0" width="15" height="254"/></g><g class="cblines" transform="translate(0,93)"/><g class="cbaxis crisp" transform="translate(0,-50)"><g class="ycb8dae96tick"><text text-anchor="start" x="600.4" y="4.199999999999999" transform="translate(0,366.2900000000001)" style="font-family: 'Times New Roman'; font-size: 12px; fill: rgb(42, 63, 95); fill-opacity: 1; white-space: pre; opacity: 1;">10</text></g><g class="ycb8dae96tick"><text text-anchor="start" x="600.4" y="4.199999999999999" style="font-family: 'Times New Roman'; font-size: 12px; fill: rgb(42, 63, 95); fill-opacity: 1; white-space: pre; opacity: 1;" transform="translate(0,304.01000000000005)">20</text></g><g class="ycb8dae96tick"><text text-anchor="start" x="600.4" y="4.199999999999999" style="font-family: 'Times New Roman'; font-size: 12px; fill: rgb(42, 63, 95); fill-opacity: 1; white-space: pre; opacity: 1;" transform="translate(0,241.72000000000006)">30</text></g><g class="ycb8dae96tick"><text text-anchor="start" x="600.4" y="4.199999999999999" style="font-family: 'Times New Roman'; font-size: 12px; fill: rgb(42, 63, 95); fill-opacity: 1; white-space: pre; opacity: 1;" transform="translate(0,179.44000000000005)">40</text></g></g><g class="cbtitleunshift" transform="translate(-10,-50)"><g class="cbtitle" transform="translate(-0.5,-0.5)"><text class="ycb8dae96title" x="592.25" y="135.75" text-anchor="start" style="opacity: 1; font-family: 'Times New Roman'; font-size: 13px; fill: rgb(42, 63, 95); fill-opacity: 1; white-space: pre;">%</text></g></g><rect class="cboutline" x="582" y="93" width="15" height="254" style="stroke: rgb(68, 68, 68); stroke-opacity: 1; fill: none; stroke-width: 1;"/></g><g class="g-gtitle"><text class="gtitle" x="320" y="25" text-anchor="middle" dy="0em" style="opacity: 1; font-family: 'Times New Roman'; font-size: 16px; fill: rgb(42, 63, 95); fill-opacity: 1; white-space: pre;">Sports Distribution by Category (2024) (%)</text></g></g></svg>