<svg class="main-svg" xmlns="http://www.w3.org/2000/svg" xmlns:xlink="http://www.w3.org/1999/xlink" width="1920" height="1440" style="" viewBox="0 0 640 480"><rect x="0" y="0" width="640" height="480" style="fill: rgb(255, 255, 255); fill-opacity: 1;"/><defs id="defs-950c31"><g class="clips"/><g class="gradients"><linearGradient x1="0" y1="1" x2="0" y2="0" gradientUnits="objectBoundingBox" id="g950c31-cb45358d"><stop offset="0%" stop-color="rgb(247, 252, 245)" stop-opacity="1"/><stop offset="12.5%" stop-color="rgb(229, 245, 224)" stop-opacity="1"/><stop offset="25%" stop-color="rgb(199, 233, 192)" stop-opacity="1"/><stop offset="37.5%" stop-color="rgb(161, 217, 155)" stop-opacity="1"/><stop offset="50%" stop-color="rgb(116, 196, 118)" stop-opacity="1"/><stop offset="62.5%" stop-color="rgb(65, 171, 93)" stop-opacity="1"/><stop offset="75%" stop-color="rgb(35, 139, 69)" stop-opacity="1"/><stop offset="87.5%" stop-color="rgb(0, 109, 44)" stop-opacity="1"/><stop offset="100%" stop-color="rgb(0, 68, 27)" stop-opacity="1"/></linearGradient></g><g class="patterns"/></defs><g class="bglayer"/><g class="layer-below"><g class="imagelayer"/><g class="shapelayer"/></g><g class="cartesianlayer"/><g class="polarlayer"/><g class="smithlayer"/><g class="ternarylayer"/><g class="geolayer"/><g class="funnelarealayer"/><g class="pielayer"/><g class="iciclelayer"/><g class="treemaplayer"/><g class="sunburstlayer"><g class="trace sunburst" stroke-linejoin="round" style="opacity: 1;"><g class="slice"><path class="surface" d="M282.5,260A0,0 0,1,0 282.5,260A0,0 0,1,0 282.5,260ZM335,260A52.5,52.5 0,1,1 230,260A52.5,52.5 0,1,1 335,260Z" style="pointer-events: none; stroke-width: 1; fill: rgb(255, 255, 255); fill-opacity: 1; stroke: rgb(0, 0, 0); stroke-opacity: 1;"/><g class="slicetext"><text data-notex="1" class="slicetext" text-anchor="middle" x="0" y="0" style="font-family: 'Times New Roman'; font-size: 12px; fill: rgb(0, 0, 0); fill-opacity: 1; white-space: pre;" transform="translate(282.5,264)">100.01</text></g></g><g class="slice cursor-pointer"><path class="surface" d="M335,260L387.5,260A105,105 0,0,0 180.40828500871498,235.45857114717586L231.4541425043575,247.72928557358793A52.5,52.5 0,0,1 335,260Z" style="pointer-events: none; stroke-width: 1; fill: rgb(0, 68, 27); fill-opacity: 1; stroke: rgb(0, 0, 0); stroke-opacity: 1;"/><g class="slicetext"><text data-notex="1" class="slicetext" text-anchor="middle" x="0" y="0" style="font-family: 'Times New Roman'; font-size: 12px; fill: rgb(0, 0, 0); fill-opacity: 1; white-space: pre;" transform="translate(291.35065612563966,185.31414666811804)rotate(6.758324167583282)"><tspan class="line" dy="0em" x="0" y="0">Corporate Strategy</tspan><tspan class="line" dy="1.3em" x="0" y="0">46.25</tspan></text></g></g><g class="slice cursor-pointer"><path class="surface" d="M231.4541425043575,247.72928557358793L180.40828500871498,235.45857114717586A105,105 0,0,0 277.768481343077,364.8933397847508L280.1342406715385,312.44666989237544A52.5,52.5 0,0,1 231.4541425043575,247.72928557358793Z" style="pointer-events: none; stroke-width: 1; fill: rgb(92, 184, 106); fill-opacity: 1; stroke: rgb(0, 0, 0); stroke-opacity: 1;"/><g class="slicetext"><text data-notex="1" class="slicetext" text-anchor="middle" x="0" y="0" style="font-family: 'Times New Roman'; font-size: 12px; fill: rgb(0, 0, 0); fill-opacity: 1; white-space: pre;" transform="translate(229.68448545274552,299.72757026529183)rotate(53.04969503049699)"><tspan class="line" dy="0em" x="0" y="0">Digital Transformation</tspan><tspan class="line" dy="1.3em" x="0" y="0">28.04</tspan></text></g></g><g class="slice cursor-pointer"><path class="surface" d="M280.1342406715385,312.44666989237544L277.768481343077,364.8933397847508A105,105 0,0,0 387.5,260L335,260A52.5,52.5 0,0,1 280.1342406715385,312.44666989237544Z" style="pointer-events: none; stroke-width: 1; fill: rgb(115, 196, 118); fill-opacity: 1; stroke: rgb(0, 0, 0); stroke-opacity: 1;"/><g class="slicetext"><text data-notex="1" class="slicetext" text-anchor="middle" x="0" y="0" style="font-family: 'Times New Roman'; font-size: 12px; fill: rgb(0, 0, 0); fill-opacity: 1; white-space: pre;" transform="translate(330.0032311659978,310.180473226739)rotate(-43.70862913708629)"><tspan class="line" dy="0em" x="0" y="0">Financial Management</tspan><tspan class="line" dy="1.3em" x="0" y="0">25.72</tspan></text></g></g><g class="slice"><path class="surface" d="M387.5,260L440,260A157.5,157.5 0,0,0 129.36242751307248,223.18785672076376L180.40828500871498,235.45857114717586A105,105 0,0,1 387.5,260Z" style="pointer-events: none; stroke-width: 1; fill: rgb(0, 68, 27); fill-opacity: 1; stroke: rgb(0, 0, 0); stroke-opacity: 1; opacity: 1;"/><g class="slicetext"><text data-notex="1" class="slicetext" text-anchor="middle" x="0" y="0" style="font-family: 'Times New Roman'; font-size: 12px; fill: rgb(0, 0, 0); fill-opacity: 1; white-space: pre;" transform="translate(297.6760447416172,130.54352562899865)rotate(6.758324167583282)"><tspan class="line" dy="0em" x="0" y="0">Growth Models</tspan><tspan class="line" dy="1.3em" x="0" y="0">46.25</tspan></text></g></g><g class="slice cursor-pointer"><path class="surface" d="M180.40828500871498,235.45857114717586L129.36242751307248,223.18785672076376A157.5,157.5 0,0,0 188.43723337492207,386.3267427540033L219.79148891661472,344.21782850266885A105,105 0,0,1 180.40828500871498,235.45857114717586Z" style="pointer-events: none; stroke-width: 1; fill: rgb(175, 223, 169); fill-opacity: 1; stroke: rgb(0, 0, 0); stroke-opacity: 1;"/><g class="slicetext"><text data-notex="1" class="slicetext" text-anchor="middle" x="0" y="0" style="font-family: 'Times New Roman'; font-size: 12px; fill: rgb(0, 0, 0); fill-opacity: 1; white-space: pre;" transform="translate(169.24303812216075,301.0118837888414)rotate(70.09399060093995)"><tspan class="line" dy="0em" x="0" y="0">Technology Adoption</tspan><tspan class="line" dy="1.3em" x="0" y="0">18.57</tspan></text></g></g><g class="slice"><path class="surface" d="M219.79148891661472,344.21782850266885L188.43723337492207,386.3267427540033A157.5,157.5 0,0,0 275.4027220146155,417.3400096771262L277.768481343077,364.8933397847508A105,105 0,0,1 219.79148891661472,344.21782850266885Z" style="pointer-events: none; stroke-width: 1; fill: rgb(232, 246, 227); fill-opacity: 1; stroke: rgb(0, 0, 0); stroke-opacity: 1; opacity: 1;"/><g class="slicetext"><text data-notex="1" class="slicetext" text-anchor="middle" x="0" y="0" style="font-family: 'Times New Roman'; font-size: 12px; fill: rgb(0, 0, 0); fill-opacity: 1; white-space: pre;" transform="translate(237.8849900160471,385.10665688774736)rotate(19.627037296270373)"><tspan class="line" dy="0em" x="0" y="0">Data Strategy</tspan><tspan class="line" dy="1.3em" x="0" y="0">9.47</tspan></text></g></g><g class="slice cursor-pointer"><path class="surface" d="M277.768481343077,364.8933397847508L275.4027220146155,417.3400096771262A157.5,157.5 0,0,0 401.8847723908052,362.73035637627095L362.0898482605368,328.4869042508473A105,105 0,0,1 277.768481343077,364.8933397847508Z" style="pointer-events: none; stroke-width: 1; fill: rgb(205, 235, 198); fill-opacity: 1; stroke: rgb(0, 0, 0); stroke-opacity: 1;"/><g class="slicetext"><text data-notex="1" class="slicetext" text-anchor="middle" x="0" y="0" style="font-family: 'Times New Roman'; font-size: 12px; fill: rgb(0, 0, 0); fill-opacity: 1; white-space: pre;" transform="translate(332.8682798583043,376.65855623185735)rotate(-23.352664733526694)"><tspan class="line" dy="0em" x="0" y="0">Investment Strategy</tspan><tspan class="line" dy="1.3em" x="0" y="0">14.41</tspan></text></g></g><g class="slice cursor-pointer"><path class="surface" d="M362.0898482605368,328.4869042508473L401.8847723908052,362.73035637627095A157.5,157.5 0,0,0 440,260.00000000000006L387.5,260A105,105 0,0,1 362.0898482605368,328.4869042508473Z" style="pointer-events: none; stroke-width: 1; fill: rgb(223, 242, 217); fill-opacity: 1; stroke: rgb(0, 0, 0); stroke-opacity: 1;"/><g class="slicetext"><text data-notex="1" class="slicetext" text-anchor="middle" x="0" y="0" style="font-family: 'Times New Roman'; font-size: 12px; fill: rgb(0, 0, 0); fill-opacity: 1; white-space: pre;" transform="translate(408.9000674666475,306.89721238445617)scale(0.8273467938309952)rotate(-69.64403559644029)"><tspan class="line" dy="0em" x="0" y="0">Budgeting &amp; Planning</tspan><tspan class="line" dy="1.3em" x="0" y="0">11.31</tspan></text></g></g><g class="slice"><path class="surface" d="M129.36242751307248,223.18785672076376L78.31657001742997,210.9171422943517A210,210 0,0,0 94.11358786568033,352.79310170027867L141.21019089926025,329.594826275209A157.5,157.5 0,0,1 129.36242751307248,223.18785672076376Z" style="pointer-events: none; stroke-width: 1; fill: rgb(224, 243, 219); fill-opacity: 1; stroke: rgb(0, 0, 0); stroke-opacity: 1; opacity: 1;"/><g class="slicetext"><text data-notex="1" class="slicetext" text-anchor="middle" x="0" y="0" style="font-family: 'Times New Roman'; font-size: 12px; fill: rgb(0, 0, 0); fill-opacity: 1; white-space: pre;" transform="translate(105.53192338910904,279.7043098527657)rotate(83.64663533646637)"><tspan class="line" dy="0em" x="0" y="0">Cloud Computing</tspan><tspan class="line" dy="1.3em" x="0" y="0">11.04</tspan></text></g></g><g class="slice"><path class="surface" d="M141.21019089926025,329.594826275209L94.11358786568033,352.79310170027867A210,210 0,0,0 157.08297783322945,428.4356570053377L188.43723337492207,386.3267427540033A157.5,157.5 0,0,1 141.21019089926025,329.594826275209Z" style="pointer-events: none; stroke-width: 1; fill: rgb(238, 249, 235); fill-opacity: 1; stroke: rgb(0, 0, 0); stroke-opacity: 1; opacity: 1;"/><g class="slicetext"><text data-notex="1" class="slicetext" text-anchor="middle" x="0" y="0" style="font-family: 'Times New Roman'; font-size: 12px; fill: rgb(0, 0, 0); fill-opacity: 1; white-space: pre;" transform="translate(140.78651318960993,377.9707874573581)rotate(50.223977602239756)"><tspan class="line" dy="0em" x="0" y="0">AI Integration</tspan><tspan class="line" dy="1.3em" x="0" y="0">7.53</tspan></text></g></g><g class="slice"><path class="surface" d="M275.4027220146155,417.3400096771262L273.03696268615397,469.78667956950164A210,210 0,0,0 441.67969652107365,396.97380850169463L401.8847723908052,362.73035637627095A157.5,157.5 0,0,1 275.4027220146155,417.3400096771262Z" style="pointer-events: none; stroke-width: 1; fill: rgb(205, 235, 198); fill-opacity: 1; stroke: rgb(0, 0, 0); stroke-opacity: 1; opacity: 1;"/><g class="slicetext"><text data-notex="1" class="slicetext" text-anchor="middle" x="0" y="0" style="font-family: 'Times New Roman'; font-size: 12px; fill: rgb(0, 0, 0); fill-opacity: 1; white-space: pre;" transform="translate(351.6266111229622,420.9524378289963)rotate(-23.352664733526694)"><tspan class="line" dy="0em" x="0" y="0">Risk Management</tspan><tspan class="line" dy="1.3em" x="0" y="0">14.41</tspan></text></g></g><g class="slice"><path class="surface" d="M401.8847723908052,362.73035637627095L441.67969652107365,396.97380850169463A210,210 0,0,0 481.97789353532175,325.63969828321L432.10842015149126,309.2297737124075A157.5,157.5 0,0,1 401.8847723908052,362.73035637627095Z" style="pointer-events: none; stroke-width: 1; fill: rgb(243, 250, 240); fill-opacity: 1; stroke: rgb(0, 0, 0); stroke-opacity: 1; opacity: 1;"/><g class="slicetext"><text data-notex="1" class="slicetext" text-anchor="middle" x="0" y="0" style="font-family: 'Times New Roman'; font-size: 12px; fill: rgb(0, 0, 0); fill-opacity: 1; white-space: pre;" transform="translate(449.29042233460694,354.2235527820176)scale(0.803922522955252)rotate(-60.5369463053695)"><tspan class="line" dy="0em" x="0" y="0">Capital Budgeting</tspan><tspan class="line" dy="1.3em" x="0" y="0">6.25</tspan></text></g></g><g class="slice"><path class="surface" d="M432.10842015149126,309.2297737124075L481.97789353532175,325.63969828321A210,210 0,0,0 492.5,260.00000000000006L440,260.00000000000006A157.5,157.5 0,0,1 432.10842015149126,309.2297737124075Z" style="pointer-events: none; stroke-width: 1; fill: rgb(247, 252, 245); fill-opacity: 1; stroke: rgb(0, 0, 0); stroke-opacity: 1; opacity: 1;"/><g class="slicetext"><text data-notex="1" class="slicetext" text-anchor="middle" x="0" y="0" style="font-family: 'Times New Roman'; font-size: 12px; fill: rgb(0, 0, 0); fill-opacity: 1; white-space: pre;" transform="translate(477.90828958930496,291.324135864672)scale(0.5169871058760221)rotate(-80.8929107089291)"><tspan class="line" dy="0em" x="0" y="0">Operational Forecasting</tspan><tspan class="line" dy="1.3em" x="0" y="0">5.06</tspan></text></g></g></g></g><g class="glimages"/><defs id="topdefs-950c31"><g class="clips"/></defs><g class="layer-above"><g class="imagelayer"/><g class="shapelayer"/></g><g class="infolayer"><g class="cb45358d colorbar" transform="translate(10,50)"><rect class="cbbg" x="571.5" y="63" width="48.015625" height="295" style="fill: rgb(0, 0, 0); fill-opacity: 0; stroke: rgb(68, 68, 68); stroke-opacity: 1; stroke-width: 0;"/><g class="cbfills" transform="translate(0,93)"><rect class="cbfill gradient_filled" style="fill: url('#g950c31-cb45358d');" x="582" y="0" width="15" height="254"/></g><g class="cblines" transform="translate(0,93)"/><g class="cbaxis crisp" transform="translate(0,-50)"><g class="ycb45358dtick"><text text-anchor="start" x="600.4" y="4.199999999999999" transform="translate(0,366.5400000000001)" style="font-family: 'Times New Roman'; font-size: 12px; fill: rgb(42, 63, 95); fill-opacity: 1; white-space: pre; opacity: 1;">10</text></g><g class="ycb45358dtick"><text text-anchor="start" x="600.4" y="4.199999999999999" style="font-family: 'Times New Roman'; font-size: 12px; fill: rgb(42, 63, 95); fill-opacity: 1; white-space: pre; opacity: 1;" transform="translate(0,304.87000000000006)">20</text></g><g class="ycb45358dtick"><text text-anchor="start" x="600.4" y="4.199999999999999" style="font-family: 'Times New Roman'; font-size: 12px; fill: rgb(42, 63, 95); fill-opacity: 1; white-space: pre; opacity: 1;" transform="translate(0,243.21000000000004)">30</text></g><g class="ycb45358dtick"><text text-anchor="start" x="600.4" y="4.199999999999999" style="font-family: 'Times New Roman'; font-size: 12px; fill: rgb(42, 63, 95); fill-opacity: 1; white-space: pre; opacity: 1;" transform="translate(0,181.54000000000005)">40</text></g></g><g class="cbtitleunshift" transform="translate(-10,-50)"><g class="cbtitle" transform="translate(-0.5,-0.5)"><text class="ycb45358dtitle" x="592.25" y="135.75" text-anchor="start" style="opacity: 1; font-family: 'Times New Roman'; font-size: 13px; fill: rgb(42, 63, 95); fill-opacity: 1; white-space: pre;">%</text></g></g><rect class="cboutline" x="582" y="93" width="15" height="254" style="stroke: rgb(68, 68, 68); stroke-opacity: 1; fill: none; stroke-width: 1;"/></g><g class="g-gtitle"><text class="gtitle" x="320" y="25" text-anchor="middle" dy="0em" style="opacity: 1; font-family: 'Times New Roman'; font-size: 16px; fill: rgb(42, 63, 95); fill-opacity: 1; white-space: pre;">Business Distribution by Category (2021) (%)</text></g></g></svg>