<svg class="main-svg" xmlns="http://www.w3.org/2000/svg" xmlns:xlink="http://www.w3.org/1999/xlink" width="1920" height="1440" style="" viewBox="0 0 640 480"><rect x="0" y="0" width="640" height="480" style="fill: rgb(255, 255, 255); fill-opacity: 1;"/><defs id="defs-fbd2d7"><g class="clips"/><g class="gradients"><linearGradient x1="0" y1="1" x2="0" y2="0" gradientUnits="objectBoundingBox" id="gfbd2d7-cb7c5db7"><stop offset="0%" stop-color="rgb(247, 252, 245)" stop-opacity="1"/><stop offset="12.5%" stop-color="rgb(229, 245, 224)" stop-opacity="1"/><stop offset="25%" stop-color="rgb(199, 233, 192)" stop-opacity="1"/><stop offset="37.5%" stop-color="rgb(161, 217, 155)" stop-opacity="1"/><stop offset="50%" stop-color="rgb(116, 196, 118)" stop-opacity="1"/><stop offset="62.5%" stop-color="rgb(65, 171, 93)" stop-opacity="1"/><stop offset="75%" stop-color="rgb(35, 139, 69)" stop-opacity="1"/><stop offset="87.5%" stop-color="rgb(0, 109, 44)" stop-opacity="1"/><stop offset="100%" stop-color="rgb(0, 68, 27)" stop-opacity="1"/></linearGradient></g><g class="patterns"/></defs><g class="bglayer"/><g class="layer-below"><g class="imagelayer"/><g class="shapelayer"/></g><g class="cartesianlayer"/><g class="polarlayer"/><g class="smithlayer"/><g class="ternarylayer"/><g class="geolayer"/><g class="funnelarealayer"/><g class="pielayer"/><g class="iciclelayer"/><g class="treemaplayer"/><g class="sunburstlayer"><g class="trace sunburst" stroke-linejoin="round" style="opacity: 1;"><g class="slice"><path class="surface" d="M282.5,260A0,0 0,1,0 282.5,260A0,0 0,1,0 282.5,260ZM324.5,260A42,42 0,1,1 240.5,260A42,42 0,1,1 324.5,260Z" style="pointer-events: none; stroke-width: 1; fill: rgb(255, 255, 255); fill-opacity: 1; stroke: rgb(0, 0, 0); stroke-opacity: 1;"/><g class="slicetext"><text data-notex="1" class="slicetext" text-anchor="middle" x="0" y="0" style="font-family: 'Times New Roman'; font-size: 12px; fill: rgb(0, 0, 0); fill-opacity: 1; white-space: pre;" transform="translate(282.5,264)">100</text></g></g><g class="slice cursor-pointer"><path class="surface" d="M324.5,260L366.5,260A84,84 0,0,0 210.38643445849124,216.92293342286968L246.44321722924562,238.46146671143484A42,42 0,0,1 324.5,260Z" style="pointer-events: none; stroke-width: 1; fill: rgb(0, 68, 27); fill-opacity: 1; stroke: rgb(0, 0, 0); stroke-opacity: 1;"/><g class="slicetext"><text data-notex="1" class="slicetext" text-anchor="middle" x="0" y="0" style="font-family: 'Times New Roman'; font-size: 12px; fill: rgb(0, 0, 0); fill-opacity: 1; white-space: pre;" transform="translate(298.25252132822675,202.36978695517436)scale(0.8791360264852178)rotate(15.42599999999993)"><tspan class="line" dy="0em" x="0" y="0">Freight and Logistics</tspan><tspan class="line" dy="1.3em" x="0" y="0">41.43</tspan></text></g></g><g class="slice cursor-pointer"><path class="surface" d="M246.44321722924562,238.46146671143484L210.38643445849124,216.92293342286968A84,84 0,0,0 278.3321901972493,343.89653962737736L280.4160950986247,301.9482698136887A42,42 0,0,1 246.44321722924562,238.46146671143484Z" style="pointer-events: none; stroke-width: 1; fill: rgb(32, 137, 67); fill-opacity: 1; stroke: rgb(0, 0, 0); stroke-opacity: 1;"/><g class="slicetext"><text data-notex="1" class="slicetext" text-anchor="middle" x="0" y="0" style="font-family: 'Times New Roman'; font-size: 12px; fill: rgb(0, 0, 0); fill-opacity: 1; white-space: pre;" transform="translate(233.712182303934,285.73504771933545)rotate(61.847999999999956)"><tspan class="line" dy="0em" x="0" y="0">Air Transport</tspan><tspan class="line" dy="1.3em" x="0" y="0">32.78</tspan></text></g></g><g class="slice cursor-pointer"><path class="surface" d="M280.4160950986247,301.9482698136887L278.3321901972493,343.89653962737736A84,84 0,0,0 366.5,259.99999999999994L324.5,260A42,42 0,0,1 280.4160950986247,301.9482698136887Z" style="pointer-events: none; stroke-width: 1; fill: rgb(89, 183, 105); fill-opacity: 1; stroke: rgb(0, 0, 0); stroke-opacity: 1;"/><g class="slicetext"><text data-notex="1" class="slicetext" text-anchor="middle" x="0" y="0" style="font-family: 'Times New Roman'; font-size: 12px; fill: rgb(0, 0, 0); fill-opacity: 1; white-space: pre;" transform="translate(320.03877274724863,299.4499152230596)rotate(-43.57800000000009)"><tspan class="line" dy="0em" x="0" y="0">Urban Mobility</tspan><tspan class="line" dy="1.3em" x="0" y="0">25.79</tspan></text></g></g><g class="slice"><path class="surface" d="M366.5,260L408.5,260A126,126 0,0,0 174.32965168773683,195.3844001343045L210.38643445849124,216.92293342286968A84,84 0,0,1 366.5,260Z" style="pointer-events: none; stroke-width: 1; fill: rgb(0, 68, 27); fill-opacity: 1; stroke: rgb(0, 0, 0); stroke-opacity: 1; opacity: 1;"/><g class="slicetext"><text data-notex="1" class="slicetext" text-anchor="middle" x="0" y="0" style="font-family: 'Times New Roman'; font-size: 12px; fill: rgb(0, 0, 0); fill-opacity: 1; white-space: pre;" transform="translate(310.337444593318,157.85267641446086)rotate(15.42599999999993)"><tspan class="line" dy="0em" x="0" y="0">Road Freight</tspan><tspan class="line" dy="1.3em" x="0" y="0">41.43</tspan></text></g></g><g class="slice cursor-pointer"><path class="surface" d="M210.38643445849124,216.92293342286968L174.32965168773683,195.3844001343045A126,126 0,0,0 234.42820919385687,376.4693218349382L250.45213946257124,337.64621455662547A84,84 0,0,1 210.38643445849124,216.92293342286968Z" style="pointer-events: none; stroke-width: 1; fill: rgb(72, 174, 96); fill-opacity: 1; stroke: rgb(0, 0, 0); stroke-opacity: 1;"/><g class="slicetext"><text data-notex="1" class="slicetext" text-anchor="middle" x="0" y="0" style="font-family: 'Times New Roman'; font-size: 12px; fill: rgb(0, 0, 0); fill-opacity: 1; white-space: pre;" transform="translate(191.49490601949736,290.03098947292585)scale(0.9940204789297586)rotate(71.63999999999999)"><tspan class="line" dy="0em" x="0" y="0">Commercial Airlines</tspan><tspan class="line" dy="1.3em" x="0" y="0">27.34</tspan></text></g></g><g class="slice cursor-pointer"><path class="surface" d="M250.45213946257124,337.64621455662547L234.42820919385687,376.4693218349382A126,126 0,0,0 276.248285295874,385.844809441066L278.3321901972493,343.89653962737736A84,84 0,0,1 250.45213946257124,337.64621455662547Z" style="pointer-events: none; stroke-width: 1; fill: rgb(247, 252, 245); fill-opacity: 1; stroke: rgb(0, 0, 0); stroke-opacity: 1;"/><g class="slicetext"><text data-notex="1" class="slicetext" text-anchor="middle" x="0" y="0" style="font-family: 'Times New Roman'; font-size: 12px; fill: rgb(0, 0, 0); fill-opacity: 1; white-space: pre;" transform="translate(256.56216762298783,361.4627855011144)scale(0.8184569964866315)rotate(-77.36400000000003)"><tspan class="line" dy="0em" x="0" y="0">Air Cargo</tspan><tspan class="line" dy="1.3em" x="0" y="0">5.44</tspan></text></g></g><g class="slice cursor-pointer"><path class="surface" d="M278.3321901972493,343.89653962737736L276.248285295874,385.844809441066A126,126 0,0,0 398.72621631197364,308.6566197120424L359.9841442079824,292.43774647469496A84,84 0,0,1 278.3321901972493,343.89653962737736Z" style="pointer-events: none; stroke-width: 1; fill: rgb(156, 214, 151); fill-opacity: 1; stroke: rgb(0, 0, 0); stroke-opacity: 1;"/><g class="slicetext"><text data-notex="1" class="slicetext" text-anchor="middle" x="0" y="0" style="font-family: 'Times New Roman'; font-size: 12px; fill: rgb(0, 0, 0); fill-opacity: 1; white-space: pre;" transform="translate(334.66122016375635,342.7665261662427)rotate(-32.22000000000003)"><tspan class="line" dy="0em" x="0" y="0">Micromobility</tspan><tspan class="line" dy="1.3em" x="0" y="0">19.48</tspan></text></g></g><g class="slice"><path class="surface" d="M359.9841442079824,292.43774647469496L398.72621631197364,308.6566197120424A126,126 0,0,0 408.5,259.99999999999994L366.5,259.99999999999994A84,84 0,0,1 359.9841442079824,292.43774647469496Z" style="pointer-events: none; stroke-width: 1; fill: rgb(244, 251, 241); fill-opacity: 1; stroke: rgb(0, 0, 0); stroke-opacity: 1; opacity: 1;"/><g class="slicetext"><text data-notex="1" class="slicetext" text-anchor="middle" x="0" y="0" style="font-family: 'Times New Roman'; font-size: 12px; fill: rgb(0, 0, 0); fill-opacity: 1; white-space: pre;" transform="translate(392.94772581096663,282.38994647080926)scale(0.5954219447717285)rotate(-78.64200000000005)"><tspan class="line" dy="0em" x="0" y="0">Public Transit</tspan><tspan class="line" dy="1.3em" x="0" y="0">6.31</tspan></text></g></g><g class="slice cursor-pointer"><path class="surface" d="M174.32965168773683,195.3844001343045L138.27286891698245,173.84586684573935A168,168 0,0,0 165.814268616076,380.86538003662895L194.985701462057,350.64903502747165A126,126 0,0,1 174.32965168773683,195.3844001343045Z" style="pointer-events: none; stroke-width: 1; fill: rgb(137, 206, 135); fill-opacity: 1; stroke: rgb(0, 0, 0); stroke-opacity: 1;"/><g class="slicetext"><text data-notex="1" class="slicetext" text-anchor="middle" x="0" y="0" style="font-family: 'Times New Roman'; font-size: 12px; fill: rgb(0, 0, 0); fill-opacity: 1; white-space: pre;" transform="translate(144.10842349344162,278.2457889046174)rotate(82.42200000000003)"><tspan class="line" dy="0em" x="0" y="0">Passenger Flights</tspan><tspan class="line" dy="1.3em" x="0" y="0">21.35</tspan></text></g></g><g class="slice"><path class="surface" d="M194.985701462057,350.64903502747165L165.814268616076,380.86538003662895A168,168 0,0,0 218.40427892514248,415.29242911325093L234.42820919385687,376.4693218349382A126,126 0,0,1 194.985701462057,350.64903502747165Z" style="pointer-events: none; stroke-width: 1; fill: rgb(245, 251, 242); fill-opacity: 1; stroke: rgb(0, 0, 0); stroke-opacity: 1; opacity: 1;"/><g class="slicetext"><text data-notex="1" class="slicetext" text-anchor="middle" x="0" y="0" style="font-family: 'Times New Roman'; font-size: 12px; fill: rgb(0, 0, 0); fill-opacity: 1; white-space: pre;" transform="translate(197.35389915537345,390.06732907109466)scale(0.5292909300770302)rotate(33.20999999999992)"><tspan class="line" dy="0em" x="0" y="0">Airport Infrastructure</tspan><tspan class="line" dy="1.3em" x="0" y="0">5.99</tspan></text></g></g><g class="slice"><path class="surface" d="M234.42820919385687,376.4693218349382L218.40427892514248,415.29242911325093A168,168 0,0,0 274.1643803944986,427.7930792547547L276.248285295874,385.844809441066A126,126 0,0,1 234.42820919385687,376.4693218349382Z" style="pointer-events: none; stroke-width: 1; fill: rgb(247, 252, 245); fill-opacity: 1; stroke: rgb(0, 0, 0); stroke-opacity: 1; opacity: 1;"/><g class="slicetext"><text data-notex="1" class="slicetext" text-anchor="middle" x="0" y="0" style="font-family: 'Times New Roman'; font-size: 12px; fill: rgb(0, 0, 0); fill-opacity: 1; white-space: pre;" transform="translate(248.89781276244133,409.37521001190095)scale(0.6798916602807917)rotate(12.635999999999967)"><tspan class="line" dy="0em" x="0" y="0">Cargo Airlines</tspan><tspan class="line" dy="1.3em" x="0" y="0">5.44</tspan></text></g></g><g class="slice"><path class="surface" d="M276.248285295874,385.844809441066L274.1643803944986,427.7930792547547A168,168 0,0,0 378.06180415265226,398.1735922204027L354.1713531144892,363.63019416530204A126,126 0,0,1 276.248285295874,385.844809441066Z" style="pointer-events: none; stroke-width: 1; fill: rgb(226, 244, 221); fill-opacity: 1; stroke: rgb(0, 0, 0); stroke-opacity: 1; opacity: 1;"/><g class="slicetext"><text data-notex="1" class="slicetext" text-anchor="middle" x="0" y="0" style="font-family: 'Times New Roman'; font-size: 12px; fill: rgb(0, 0, 0); fill-opacity: 1; white-space: pre;" transform="translate(321.1216981275617,395.4748288505112)rotate(-15.912000000000035)"><tspan class="line" dy="0em" x="0" y="0">Bike Sharing</tspan><tspan class="line" dy="1.3em" x="0" y="0">10.42</tspan></text></g></g><g class="slice"><path class="surface" d="M354.1713531144892,363.63019416530204L378.06180415265226,398.1735922204027A168,168 0,0,0 437.4682884159648,324.8754929493899L398.72621631197364,308.6566197120424A126,126 0,0,1 354.1713531144892,363.63019416530204Z" style="pointer-events: none; stroke-width: 1; fill: rgb(233, 246, 228); fill-opacity: 1; stroke: rgb(0, 0, 0); stroke-opacity: 1; opacity: 1;"/><g class="slicetext"><text data-notex="1" class="slicetext" text-anchor="middle" x="0" y="0" style="font-family: 'Times New Roman'; font-size: 12px; fill: rgb(0, 0, 0); fill-opacity: 1; white-space: pre;" transform="translate(392.28228818033375,349.1872910743597)rotate(-50.97600000000011)"><tspan class="line" dy="0em" x="0" y="0">E-Scooters</tspan><tspan class="line" dy="1.3em" x="0" y="0">9.06</tspan></text></g></g><g class="slice"><path class="surface" d="M138.27286891698245,173.84586684573935L102.21608614622806,152.3073335571742A210,210 0,0,0 72.95684629393728,246.15562443021074L114.86547703514984,248.92449954416858A168,168 0,0,1 138.27286891698245,173.84586684573935Z" style="pointer-events: none; stroke-width: 1; fill: rgb(239, 249, 235); fill-opacity: 1; stroke: rgb(0, 0, 0); stroke-opacity: 1; opacity: 1;"/><g class="slicetext"><text data-notex="1" class="slicetext" text-anchor="middle" x="0" y="0" style="font-family: 'Times New Roman'; font-size: 12px; fill: rgb(0, 0, 0); fill-opacity: 1; white-space: pre;" transform="translate(95.55466634568708,201.86294492041046)scale(0.8565942600605403)rotate(-72.68399999999997)"><tspan class="line" dy="0em" x="0" y="0">International Routes</tspan><tspan class="line" dy="1.3em" x="0" y="0">7.52</tspan></text></g></g><g class="slice"><path class="surface" d="M114.86547703514984,248.92449954416858L72.95684629393728,246.15562443021074A210,210 0,0,0 87.63798609530261,338.2866242534797L126.6103888762421,322.6292994027838A168,168 0,0,1 114.86547703514984,248.92449954416858Z" style="pointer-events: none; stroke-width: 1; fill: rgb(240, 249, 237); fill-opacity: 1; stroke: rgb(0, 0, 0); stroke-opacity: 1; opacity: 1;"/><g class="slicetext"><text data-notex="1" class="slicetext" text-anchor="middle" x="0" y="0" style="font-family: 'Times New Roman'; font-size: 12px; fill: rgb(0, 0, 0); fill-opacity: 1; white-space: pre;" transform="translate(95.5742700333245,289.64033256441815)scale(0.8813110189234034)rotate(80.94599999999991)"><tspan class="line" dy="0em" x="0" y="0">Low-Cost Carriers</tspan><tspan class="line" dy="1.3em" x="0" y="0">7.13</tspan></text></g></g><g class="slice"><path class="surface" d="M126.6103888762421,322.6292994027838L87.63798609530261,338.2866242534797A210,210 0,0,0 136.642835770095,411.08172504578613L165.814268616076,380.86538003662895A168,168 0,0,1 126.6103888762421,322.6292994027838Z" style="pointer-events: none; stroke-width: 1; fill: rgb(242, 250, 239); fill-opacity: 1; stroke: rgb(0, 0, 0); stroke-opacity: 1; opacity: 1;"/><g class="slicetext"><text data-notex="1" class="slicetext" text-anchor="middle" x="0" y="0" style="font-family: 'Times New Roman'; font-size: 12px; fill: rgb(0, 0, 0); fill-opacity: 1; white-space: pre;" transform="translate(124.60045167244782,366.1277941003267)scale(0.8515781576297285)rotate(56.05199999999991)"><tspan class="line" dy="0em" x="0" y="0">Domestic Airlines</tspan><tspan class="line" dy="1.3em" x="0" y="0">6.7</tspan></text></g></g></g></g><g class="glimages"/><defs id="topdefs-fbd2d7"><g class="clips"/></defs><g class="layer-above"><g class="imagelayer"/><g class="shapelayer"/></g><g class="infolayer"><g class="cb7c5db7 colorbar" transform="translate(10,50)"><rect class="cbbg" x="571.5" y="63" width="48.015625" height="295" style="fill: rgb(0, 0, 0); fill-opacity: 0; stroke: rgb(68, 68, 68); stroke-opacity: 1; stroke-width: 0;"/><g class="cbfills" transform="translate(0,93)"><rect class="cbfill gradient_filled" style="fill: url('#gfbd2d7-cb7c5db7');" x="582" y="0" width="15" height="254"/></g><g class="cblines" transform="translate(0,93)"/><g class="cbaxis crisp" transform="translate(0,-50)"><g class="ycb7c5db7tick"><text text-anchor="start" x="600.4" y="4.199999999999999" transform="translate(0,364.82000000000005)" style="font-family: 'Times New Roman'; font-size: 12px; fill: rgb(42, 63, 95); fill-opacity: 1; white-space: pre; opacity: 1;">10</text></g><g class="ycb7c5db7tick"><text text-anchor="start" x="600.4" y="4.199999999999999" style="font-family: 'Times New Roman'; font-size: 12px; fill: rgb(42, 63, 95); fill-opacity: 1; white-space: pre; opacity: 1;" transform="translate(0,329.5300000000001)">15</text></g><g class="ycb7c5db7tick"><text text-anchor="start" x="600.4" y="4.199999999999999" style="font-family: 'Times New Roman'; font-size: 12px; fill: rgb(42, 63, 95); fill-opacity: 1; white-space: pre; opacity: 1;" transform="translate(0,294.24000000000007)">20</text></g><g class="ycb7c5db7tick"><text text-anchor="start" x="600.4" y="4.199999999999999" style="font-family: 'Times New Roman'; font-size: 12px; fill: rgb(42, 63, 95); fill-opacity: 1; white-space: pre; opacity: 1;" transform="translate(0,258.95000000000005)">25</text></g><g class="ycb7c5db7tick"><text text-anchor="start" x="600.4" y="4.199999999999999" style="font-family: 'Times New Roman'; font-size: 12px; fill: rgb(42, 63, 95); fill-opacity: 1; white-space: pre; opacity: 1;" transform="translate(0,223.67000000000007)">30</text></g><g class="ycb7c5db7tick"><text text-anchor="start" x="600.4" y="4.199999999999999" style="font-family: 'Times New Roman'; font-size: 12px; fill: rgb(42, 63, 95); fill-opacity: 1; white-space: pre; opacity: 1;" transform="translate(0,188.38000000000005)">35</text></g><g class="ycb7c5db7tick"><text text-anchor="start" x="600.4" y="4.199999999999999" style="font-family: 'Times New Roman'; font-size: 12px; fill: rgb(42, 63, 95); fill-opacity: 1; white-space: pre; opacity: 1;" transform="translate(0,153.09000000000006)">40</text></g></g><g class="cbtitleunshift" transform="translate(-10,-50)"><g class="cbtitle" transform="translate(-0.5,-0.5)"><text class="ycb7c5db7title" x="592.25" y="135.75" text-anchor="start" style="opacity: 1; font-family: 'Times New Roman'; font-size: 13px; fill: rgb(42, 63, 95); fill-opacity: 1; white-space: pre;">%</text></g></g><rect class="cboutline" x="582" y="93" width="15" height="254" style="stroke: rgb(68, 68, 68); stroke-opacity: 1; fill: none; stroke-width: 1;"/></g><g class="g-gtitle"><text class="gtitle" x="320" y="25" text-anchor="middle" dy="0em" style="opacity: 1; font-family: 'Times New Roman'; font-size: 16px; fill: rgb(42, 63, 95); fill-opacity: 1; white-space: pre;">Transportation Distribution by Category (2021) (%)</text></g></g></svg>