<svg class="main-svg" xmlns="http://www.w3.org/2000/svg" xmlns:xlink="http://www.w3.org/1999/xlink" width="1920" height="1440" style="" viewBox="0 0 640 480"><rect x="0" y="0" width="640" height="480" style="fill: rgb(255, 255, 255); fill-opacity: 1;"/><defs id="defs-9d655c"><g class="clips"/><g class="gradients"><linearGradient x1="0" y1="1" x2="0" y2="0" gradientUnits="objectBoundingBox" id="g9d655c-cb6b1dbe"><stop offset="0%" stop-color="rgb(255, 255, 204)" stop-opacity="1"/><stop offset="12.5%" stop-color="rgb(255, 237, 160)" stop-opacity="1"/><stop offset="25%" stop-color="rgb(254, 217, 118)" stop-opacity="1"/><stop offset="37.5%" stop-color="rgb(254, 178, 76)" stop-opacity="1"/><stop offset="50%" stop-color="rgb(253, 141, 60)" stop-opacity="1"/><stop offset="62.5%" stop-color="rgb(252, 78, 42)" stop-opacity="1"/><stop offset="75%" stop-color="rgb(227, 26, 28)" stop-opacity="1"/><stop offset="87.5%" stop-color="rgb(189, 0, 38)" stop-opacity="1"/><stop offset="100%" stop-color="rgb(128, 0, 38)" stop-opacity="1"/></linearGradient></g><g class="patterns"/></defs><g class="bglayer"/><g class="layer-below"><g class="imagelayer"/><g class="shapelayer"/></g><g class="cartesianlayer"/><g class="polarlayer"/><g class="smithlayer"/><g class="ternarylayer"/><g class="geolayer"/><g class="funnelarealayer"/><g class="pielayer"/><g class="iciclelayer"/><g class="treemaplayer"/><g class="sunburstlayer"><g class="trace sunburst" stroke-linejoin="round" style="opacity: 1;"><g class="slice"><path class="surface" d="M282.5,260A0,0 0,1,0 282.5,260A0,0 0,1,0 282.5,260ZM324.5,260A42,42 0,1,1 240.5,260A42,42 0,1,1 324.5,260Z" style="pointer-events: none; stroke-width: 1; fill: rgb(255, 255, 255); fill-opacity: 1; stroke: rgb(0, 0, 0); stroke-opacity: 1;"/><g class="slicetext"><text data-notex="1" class="slicetext" text-anchor="middle" x="0" y="0" style="font-family: 'Times New Roman'; font-size: 12px; fill: rgb(0, 0, 0); fill-opacity: 1; white-space: pre;" transform="translate(282.5,264)">100</text></g></g><g class="slice cursor-pointer"><path class="surface" d="M324.5,260L366.5,260A84,84 0,1,0 198.6495985166302,265.0110049967744L240.5747992583151,262.50550249838716A42,42 0,1,1 324.5,260Z" style="pointer-events: none; stroke-width: 1; fill: rgb(128, 0, 38); fill-opacity: 1; stroke: rgb(0, 0, 0); stroke-opacity: 1;"/><g class="slicetext"><text data-notex="1" class="slicetext" text-anchor="middle" x="0" y="0" style="font-family: 'Times New Roman'; font-size: 12px; fill: rgb(0, 0, 0); fill-opacity: 1; white-space: pre;" transform="translate(280.57302395560276,200.28676740359347)scale(0.8791360264852178)rotate(-1.7100000000000364)"><tspan class="line" dy="0em" x="0" y="0">Freight and Logistics</tspan><tspan class="line" dy="1.3em" x="0" y="0">50.95</tspan></text></g></g><g class="slice cursor-pointer"><path class="surface" d="M240.5747992583151,262.50550249838716L198.6495985166302,265.0110049967744A84,84 0,0,0 304.35973056418476,341.10580854452564L293.42986528209235,300.5529042722628A42,42 0,0,1 240.5747992583151,262.50550249838716Z" style="pointer-events: none; stroke-width: 1; fill: rgb(253, 139, 60); fill-opacity: 1; stroke: rgb(0, 0, 0); stroke-opacity: 1;"/><g class="slicetext"><text data-notex="1" class="slicetext" text-anchor="middle" x="0" y="0" style="font-family: 'Times New Roman'; font-size: 12px; fill: rgb(0, 0, 0); fill-opacity: 1; white-space: pre;" transform="translate(250.00904987759776,304.57445453176757)rotate(35.74800000000005)"><tspan class="line" dy="0em" x="0" y="0">Air Transport</tspan><tspan class="line" dy="1.3em" x="0" y="0">28.24</tspan></text></g></g><g class="slice cursor-pointer"><path class="surface" d="M293.42986528209235,300.5529042722628L304.35973056418476,341.10580854452564A84,84 0,0,0 366.5,260L324.5,260A42,42 0,0,1 293.42986528209235,300.5529042722628Z" style="pointer-events: none; stroke-width: 1; fill: rgb(254, 189, 87); fill-opacity: 1; stroke: rgb(0, 0, 0); stroke-opacity: 1;"/><g class="slicetext"><text data-notex="1" class="slicetext" text-anchor="middle" x="0" y="0" style="font-family: 'Times New Roman'; font-size: 12px; fill: rgb(0, 0, 0); fill-opacity: 1; white-space: pre;" transform="translate(328.925754140583,295.5696949802674)scale(0.8999915719555266)rotate(-52.54200000000003)"><tspan class="line" dy="0em" x="0" y="0">Urban Mobility</tspan><tspan class="line" dy="1.3em" x="0" y="0">20.81</tspan></text></g></g><g class="slice cursor-pointer"><path class="surface" d="M366.5,260L408.5,260A126,126 0,0,0 212.0708672910405,155.52159426051827L235.54724486069367,190.34772950701216A84,84 0,0,1 366.5,260Z" style="pointer-events: none; stroke-width: 1; fill: rgb(249, 72, 40); fill-opacity: 1; stroke: rgb(0, 0, 0); stroke-opacity: 1;"/><g class="slicetext"><text data-notex="1" class="slicetext" text-anchor="middle" x="0" y="0" style="font-family: 'Times New Roman'; font-size: 12px; fill: rgb(0, 0, 0); fill-opacity: 1; white-space: pre;" transform="translate(332.09732159006023,166.05367584517347)rotate(28.008000000000038)"><tspan class="line" dy="0em" x="0" y="0">Rail Freight</tspan><tspan class="line" dy="1.3em" x="0" y="0">34.44</tspan></text></g></g><g class="slice cursor-pointer"><path class="surface" d="M235.54724486069367,190.34772950701216L212.0708672910405,155.52159426051827A126,126 0,0,0 156.72439777494532,267.5165074951616L198.64959851663022,265.0110049967744A84,84 0,0,1 235.54724486069367,190.34772950701216Z" style="pointer-events: none; stroke-width: 1; fill: rgb(254, 217, 119); fill-opacity: 1; stroke: rgb(0, 0, 0); stroke-opacity: 1;"/><g class="slicetext"><text data-notex="1" class="slicetext" text-anchor="middle" x="0" y="0" style="font-family: 'Times New Roman'; font-size: 12px; fill: rgb(0, 0, 0); fill-opacity: 1; white-space: pre;" transform="translate(187.43669300452723,213.39563646760755)rotate(-63.702)"><tspan class="line" dy="0em" x="0" y="0">Road Freight</tspan><tspan class="line" dy="1.3em" x="0" y="0">16.51</tspan></text></g></g><g class="slice"><path class="surface" d="M198.6495985166302,265.0110049967744L156.72439777494532,267.51650749516153A126,126 0,0,0 262.3202379203251,384.3735389960731L269.0468252802167,342.9156926640487A84,84 0,0,1 198.6495985166302,265.0110049967744Z" style="pointer-events: none; stroke-width: 1; fill: rgb(254, 184, 82); fill-opacity: 1; stroke: rgb(0, 0, 0); stroke-opacity: 1; opacity: 1;"/><g class="slicetext"><text data-notex="1" class="slicetext" text-anchor="middle" x="0" y="0" style="font-family: 'Times New Roman'; font-size: 12px; fill: rgb(0, 0, 0); fill-opacity: 1; white-space: pre;" transform="translate(211.28791952587324,324.129767297797)scale(0.9940204789297586)rotate(47.898000000000025)"><tspan class="line" dy="0em" x="0" y="0">Commercial Airlines</tspan><tspan class="line" dy="1.3em" x="0" y="0">21.49</tspan></text></g></g><g class="slice cursor-pointer"><path class="surface" d="M269.0468252802167,342.9156926640487L262.3202379203251,384.3735389960731A126,126 0,0,0 315.2895958462771,381.65871281678847L304.35973056418476,341.10580854452564A84,84 0,0,1 269.0468252802167,342.9156926640487Z" style="pointer-events: none; stroke-width: 1; fill: rgb(255, 250, 192); fill-opacity: 1; stroke: rgb(0, 0, 0); stroke-opacity: 1;"/><g class="slicetext"><text data-notex="1" class="slicetext" text-anchor="middle" x="0" y="0" style="font-family: 'Times New Roman'; font-size: 12px; fill: rgb(0, 0, 0); fill-opacity: 1; white-space: pre;" transform="translate(288.0299520668854,367.89567766043666)scale(0.836855774985175)rotate(-2.933999999999969)"><tspan class="line" dy="0em" x="0" y="0">Air Cargo</tspan><tspan class="line" dy="1.3em" x="0" y="0">6.75</tspan></text></g></g><g class="slice"><path class="surface" d="M304.35973056418476,341.10580854452564L315.2895958462771,381.65871281678847A126,126 0,0,0 408.5,260.00000000000006L366.5,260A84,84 0,0,1 304.35973056418476,341.10580854452564Z" style="pointer-events: none; stroke-width: 1; fill: rgb(254, 189, 87); fill-opacity: 1; stroke: rgb(0, 0, 0); stroke-opacity: 1; opacity: 1;"/><g class="slicetext"><text data-notex="1" class="slicetext" text-anchor="middle" x="0" y="0" style="font-family: 'Times New Roman'; font-size: 12px; fill: rgb(0, 0, 0); fill-opacity: 1; white-space: pre;" transform="translate(360.158941748095,319.4994076370949)rotate(-52.54200000000003)"><tspan class="line" dy="0em" x="0" y="0">Micromobility</tspan><tspan class="line" dy="1.3em" x="0" y="0">20.81</tspan></text></g></g><g class="slice cursor-pointer"><path class="surface" d="M408.5,260L450.5,260A168,168 0,0,0 304.18418308820645,93.40529359011092L298.7631373161548,135.05397019258317A126,126 0,0,1 408.5,260Z" style="pointer-events: none; stroke-width: 1; fill: rgb(254, 174, 74); fill-opacity: 1; stroke: rgb(0, 0, 0); stroke-opacity: 1;"/><g class="slicetext"><text data-notex="1" class="slicetext" text-anchor="middle" x="0" y="0" style="font-family: 'Times New Roman'; font-size: 12px; fill: rgb(0, 0, 0); fill-opacity: 1; white-space: pre;" transform="translate(393.13887324355534,162.61038733069023)rotate(48.70799999999997)"><tspan class="line" dy="0em" x="0" y="0">Intermodal Hubs</tspan><tspan class="line" dy="1.3em" x="0" y="0">22.94</tspan></text></g></g><g class="slice"><path class="surface" d="M298.7631373161548,135.05397019258317L304.18418308820645,93.40529359011092A168,168 0,0,0 188.59448972138733,120.69545901402435L212.0708672910405,155.52159426051827A126,126 0,0,1 298.7631373161548,135.05397019258317Z" style="pointer-events: none; stroke-width: 1; fill: rgb(255, 235, 156); fill-opacity: 1; stroke: rgb(0, 0, 0); stroke-opacity: 1; opacity: 1;"/><g class="slicetext"><text data-notex="1" class="slicetext" text-anchor="middle" x="0" y="0" style="font-family: 'Times New Roman'; font-size: 12px; fill: rgb(0, 0, 0); fill-opacity: 1; white-space: pre;" transform="translate(248.21066821335714,115.51277855986422)rotate(-13.283999999999992)"><tspan class="line" dy="0em" x="0" y="0">Cargo Trains</tspan><tspan class="line" dy="1.3em" x="0" y="0">11.5</tspan></text></g></g><g class="slice"><path class="surface" d="M212.0708672910405,155.52159426051827L188.59448972138733,120.69545901402435A168,168 0,0,0 126.80791358325851,196.88126880868165L165.7309351874439,212.66095160651125A126,126 0,0,1 212.0708672910405,155.52159426051827Z" style="pointer-events: none; stroke-width: 1; fill: rgb(255, 242, 172); fill-opacity: 1; stroke: rgb(0, 0, 0); stroke-opacity: 1; opacity: 1;"/><g class="slicetext"><text data-notex="1" class="slicetext" text-anchor="middle" x="0" y="0" style="font-family: 'Times New Roman'; font-size: 12px; fill: rgb(0, 0, 0); fill-opacity: 1; white-space: pre;" transform="translate(163.59661238157884,163.75021491616857)scale(0.8553617081845593)rotate(-50.95799999999997)"><tspan class="line" dy="0em" x="0" y="0">Highway Networks</tspan><tspan class="line" dy="1.3em" x="0" y="0">9.43</tspan></text></g></g><g class="slice"><path class="surface" d="M165.7309351874439,212.66095160651125L126.80791358325851,196.88126880868165A168,168 0,0,0 114.79919703326041,270.0220099935487L156.72439777494532,267.51650749516153A126,126 0,0,1 165.7309351874439,212.66095160651125Z" style="pointer-events: none; stroke-width: 1; fill: rgb(255, 249, 190); fill-opacity: 1; stroke: rgb(0, 0, 0); stroke-opacity: 1; opacity: 1;"/><g class="slicetext"><text data-notex="1" class="slicetext" text-anchor="middle" x="0" y="0" style="font-family: 'Times New Roman'; font-size: 12px; fill: rgb(0, 0, 0); fill-opacity: 1; white-space: pre;" transform="translate(128.85949682383685,234.90881086719898)scale(0.8089496275423746)rotate(-80.67600000000004)"><tspan class="line" dy="0em" x="0" y="0">Trucking Fleets</tspan><tspan class="line" dy="1.3em" x="0" y="0">7.08</tspan></text></g></g><g class="slice"><path class="surface" d="M262.3202379203251,384.3735389960731L255.59365056043345,425.83138532809744A168,168 0,0,0 326.21946112836946,422.2116170890513L315.2895958462771,381.65871281678847A126,126 0,0,1 262.3202379203251,384.3735389960731Z" style="pointer-events: none; stroke-width: 1; fill: rgb(255, 250, 192); fill-opacity: 1; stroke: rgb(0, 0, 0); stroke-opacity: 1; opacity: 1;"/><g class="slicetext"><text data-notex="1" class="slicetext" text-anchor="middle" x="0" y="0" style="font-family: 'Times New Roman'; font-size: 12px; fill: rgb(0, 0, 0); fill-opacity: 1; white-space: pre;" transform="translate(290.21563592560335,412.5986861701819)scale(0.6420162061724857)rotate(-2.933999999999969)"><tspan class="line" dy="0em" x="0" y="0">Logistics Platforms</tspan><tspan class="line" dy="1.3em" x="0" y="0">6.75</tspan></text></g></g><g class="slice"><path class="surface" d="M450.5,260L492.5,260A210,210 0,0,0 459.2410213428051,146.5865467649357L423.8928170742441,169.26923741194855A168,168 0,0,1 450.5,260Z" style="pointer-events: none; stroke-width: 1; fill: rgb(255, 243, 174); fill-opacity: 1; stroke: rgb(0, 0, 0); stroke-opacity: 1; opacity: 1;"/><g class="slicetext"><text data-notex="1" class="slicetext" text-anchor="middle" x="0" y="0" style="font-family: 'Times New Roman'; font-size: 12px; fill: rgb(0, 0, 0); fill-opacity: 1; white-space: pre;" transform="translate(465.2049050154829,206.25003615934375)rotate(73.65599999999995)"><tspan class="line" dy="0em" x="0" y="0">Transfer Yards</tspan><tspan class="line" dy="1.3em" x="0" y="0">9.08</tspan></text></g></g><g class="slice"><path class="surface" d="M423.8928170742441,169.26923741194855L459.2410213428051,146.5865467649357A210,210 0,0,0 375.2425371718961,71.58868983280362L356.69402973751687,109.27095186624291A168,168 0,0,1 423.8928170742441,169.26923741194855Z" style="pointer-events: none; stroke-width: 1; fill: rgb(255, 244, 178); fill-opacity: 1; stroke: rgb(0, 0, 0); stroke-opacity: 1; opacity: 1;"/><g class="slicetext"><text data-notex="1" class="slicetext" text-anchor="middle" x="0" y="0" style="font-family: 'Times New Roman'; font-size: 12px; fill: rgb(0, 0, 0); fill-opacity: 1; white-space: pre;" transform="translate(410.0155680087757,116.93472441121683)rotate(41.75999999999999)"><tspan class="line" dy="0em" x="0" y="0">Dry Ports</tspan><tspan class="line" dy="1.3em" x="0" y="0">8.64</tspan></text></g></g><g class="slice"><path class="surface" d="M356.69402973751687,109.27095186624291L375.2425371718961,71.58868983280362A210,210 0,0,0 309.6052288602581,51.75661698763864L304.1841830882065,93.40529359011092A168,168 0,0,1 356.69402973751687,109.27095186624291Z" style="pointer-events: none; stroke-width: 1; fill: rgb(255, 255, 204); fill-opacity: 1; stroke: rgb(0, 0, 0); stroke-opacity: 1; opacity: 1;"/><g class="slicetext"><text data-notex="1" class="slicetext" text-anchor="middle" x="0" y="0" style="font-family: 'Times New Roman'; font-size: 12px; fill: rgb(0, 0, 0); fill-opacity: 1; white-space: pre;" transform="translate(339.7450757995,70.04812951618861)scale(0.8253324692046007)rotate(16.812000000000012)"><tspan class="line" dy="0em" x="0" y="0">Rail Terminals</tspan><tspan class="line" dy="1.3em" x="0" y="0">5.22</tspan></text></g></g></g></g><g class="glimages"/><defs id="topdefs-9d655c"><g class="clips"/></defs><g class="layer-above"><g class="imagelayer"/><g class="shapelayer"/></g><g class="infolayer"><g class="cb6b1dbe colorbar" transform="translate(10,50)"><rect class="cbbg" x="571.5" y="63" width="48.015625" height="295" style="fill: rgb(0, 0, 0); fill-opacity: 0; stroke: rgb(68, 68, 68); stroke-opacity: 1; stroke-width: 0;"/><g class="cbfills" transform="translate(0,93)"><rect class="cbfill gradient_filled" style="fill: url('#g9d655c-cb6b1dbe');" x="582" y="0" width="15" height="254"/></g><g class="cblines" transform="translate(0,93)"/><g class="cbaxis crisp" transform="translate(0,-50)"><g class="ycb6b1dbetick"><text text-anchor="start" x="600.4" y="4.199999999999999" transform="translate(0,370.45000000000005)" style="font-family: 'Times New Roman'; font-size: 12px; fill: rgb(42, 63, 95); fill-opacity: 1; white-space: pre; opacity: 1;">10</text></g><g class="ycb6b1dbetick"><text text-anchor="start" x="600.4" y="4.199999999999999" style="font-family: 'Times New Roman'; font-size: 12px; fill: rgb(42, 63, 95); fill-opacity: 1; white-space: pre; opacity: 1;" transform="translate(0,314.9100000000001)">20</text></g><g class="ycb6b1dbetick"><text text-anchor="start" x="600.4" y="4.199999999999999" style="font-family: 'Times New Roman'; font-size: 12px; fill: rgb(42, 63, 95); fill-opacity: 1; white-space: pre; opacity: 1;" transform="translate(0,259.36000000000007)">30</text></g><g class="ycb6b1dbetick"><text text-anchor="start" x="600.4" y="4.199999999999999" style="font-family: 'Times New Roman'; font-size: 12px; fill: rgb(42, 63, 95); fill-opacity: 1; white-space: pre; opacity: 1;" transform="translate(0,203.82000000000005)">40</text></g><g class="ycb6b1dbetick"><text text-anchor="start" x="600.4" y="4.199999999999999" style="font-family: 'Times New Roman'; font-size: 12px; fill: rgb(42, 63, 95); fill-opacity: 1; white-space: pre; opacity: 1;" transform="translate(0,148.28000000000006)">50</text></g></g><g class="cbtitleunshift" transform="translate(-10,-50)"><g class="cbtitle" transform="translate(-0.5,-0.5)"><text class="ycb6b1dbetitle" x="592.25" y="135.75" text-anchor="start" style="opacity: 1; font-family: 'Times New Roman'; font-size: 13px; fill: rgb(42, 63, 95); fill-opacity: 1; white-space: pre;">%</text></g></g><rect class="cboutline" x="582" y="93" width="15" height="254" style="stroke: rgb(68, 68, 68); stroke-opacity: 1; fill: none; stroke-width: 1;"/></g><g class="g-gtitle"><text class="gtitle" x="320" y="25" text-anchor="middle" dy="0em" style="opacity: 1; font-family: 'Times New Roman'; font-size: 16px; fill: rgb(42, 63, 95); fill-opacity: 1; white-space: pre;">Transportation Distribution by Category (2021) (%)</text></g></g></svg>