<?xml version="1.0" encoding="utf-8" standalone="no"?>
<!DOCTYPE svg PUBLIC "-//W3C//DTD SVG 1.1//EN"
  "http://www.w3.org/Graphics/SVG/1.1/DTD/svg11.dtd">
<svg xmlns:xlink="http://www.w3.org/1999/xlink" width="750.346037pt" height="212.255313pt" viewBox="0 0 750.346037 212.255313" xmlns="http://www.w3.org/2000/svg" version="1.1">
 <metadata>
  <rdf:RDF xmlns:dc="http://purl.org/dc/elements/1.1/" xmlns:cc="http://creativecommons.org/ns#" xmlns:rdf="http://www.w3.org/1999/02/22-rdf-syntax-ns#">
   <cc:Work>
    <dc:type rdf:resource="http://purl.org/dc/dcmitype/StillImage"/>
    <dc:date>2025-05-27T01:56:57.051570</dc:date>
    <dc:format>image/svg+xml</dc:format>
    <dc:creator>
     <cc:Agent>
      <dc:title>Matplotlib v3.10.1, https://matplotlib.org/</dc:title>
     </cc:Agent>
    </dc:creator>
   </cc:Work>
  </rdf:RDF>
 </metadata>
 <defs>
  <style type="text/css">*{stroke-linejoin: round; stroke-linecap: butt}</style>
 </defs>
 <g id="figure_1">
  <g id="patch_1">
   <path d="M 0 212.255313 
L 750.346037 212.255313 
L 750.346037 0 
L 0 0 
z
" style="fill: #ffffff"/>
  </g>
  <g id="axes_1">
   <g id="patch_2">
    <path d="M 145.963538 95.78 
L 734.146038 95.78 
L 734.146038 21.12 
L 145.963538 21.12 
L 145.963538 95.78 
z
" style="fill: none; opacity: 0"/>
   </g>
   <g id="FillBetweenPolyCollection_1">
    <defs>
     <path id="meae8ec4cbf" d="M 145.963538 -137.776306 
L 145.963538 -116.475313 
L 148.919228 -116.475313 
L 151.874919 -116.475313 
L 154.83061 -116.475313 
L 157.786301 -116.475313 
L 160.741992 -116.475313 
L 163.697683 -116.475313 
L 166.653374 -116.475313 
L 169.609065 -116.475313 
L 172.564756 -116.475313 
L 175.520447 -116.475313 
L 178.476138 -116.475313 
L 181.431829 -116.475313 
L 184.38752 -116.475313 
L 187.343211 -116.475313 
L 190.298902 -116.475313 
L 193.254593 -116.475313 
L 196.210284 -116.475313 
L 199.165975 -116.475313 
L 202.121666 -116.475313 
L 205.077357 -116.475313 
L 208.033048 -116.475313 
L 210.988739 -116.475313 
L 213.944429 -116.475313 
L 216.90012 -116.475313 
L 219.855811 -116.475313 
L 222.811502 -116.475313 
L 225.767193 -116.475313 
L 228.722884 -116.475313 
L 231.678575 -116.475313 
L 234.634266 -116.475313 
L 237.589957 -116.475313 
L 240.545648 -116.475313 
L 243.501339 -116.475313 
L 246.45703 -116.475313 
L 249.412721 -116.475313 
L 252.368412 -116.475313 
L 255.324103 -116.475313 
L 258.279794 -116.475313 
L 261.235485 -116.475313 
L 264.191176 -116.475313 
L 267.146867 -116.475313 
L 270.102558 -116.475313 
L 273.058249 -116.475313 
L 276.01394 -116.475313 
L 278.96963 -116.475313 
L 281.925321 -116.475313 
L 284.881012 -116.475313 
L 287.836703 -116.475313 
L 290.792394 -116.475313 
L 293.748085 -116.475313 
L 296.703776 -116.475313 
L 299.659467 -116.475313 
L 302.615158 -116.475313 
L 305.570849 -116.475313 
L 308.52654 -116.475313 
L 311.482231 -116.475313 
L 314.437922 -116.475313 
L 317.393613 -116.475313 
L 320.349304 -116.475313 
L 323.304995 -116.475313 
L 326.260686 -116.475313 
L 329.216377 -116.475313 
L 332.172068 -116.475313 
L 335.127759 -116.475313 
L 338.08345 -116.475313 
L 341.039141 -116.475313 
L 343.994831 -116.475313 
L 346.950522 -116.475313 
L 349.906213 -116.475313 
L 352.861904 -116.475313 
L 355.817595 -116.475313 
L 358.773286 -116.475313 
L 361.728977 -116.475313 
L 364.684668 -116.475313 
L 367.640359 -116.475313 
L 370.59605 -116.475313 
L 373.551741 -116.475313 
L 376.507432 -116.475313 
L 379.463123 -116.475313 
L 382.418814 -116.475313 
L 385.374505 -116.475313 
L 388.330196 -116.475313 
L 391.285887 -116.475313 
L 394.241578 -116.475313 
L 397.197269 -116.475313 
L 400.15296 -116.475313 
L 403.108651 -116.475313 
L 406.064342 -116.475313 
L 409.020032 -116.475313 
L 411.975723 -116.475313 
L 414.931414 -116.475313 
L 417.887105 -116.475313 
L 420.842796 -116.475313 
L 423.798487 -116.475313 
L 426.754178 -116.475313 
L 429.709869 -116.475313 
L 432.66556 -116.475313 
L 435.621251 -116.475313 
L 438.576942 -116.475313 
L 441.532633 -116.475313 
L 444.488324 -116.475313 
L 447.444015 -116.475313 
L 450.399706 -116.475313 
L 453.355397 -116.475313 
L 456.311088 -116.475313 
L 459.266779 -116.475313 
L 462.22247 -116.475313 
L 465.178161 -116.475313 
L 468.133852 -116.475313 
L 471.089543 -116.475313 
L 474.045233 -116.475313 
L 477.000924 -116.475313 
L 479.956615 -116.475313 
L 482.912306 -116.475313 
L 485.867997 -116.475313 
L 488.823688 -116.475313 
L 491.779379 -116.475313 
L 494.73507 -116.475313 
L 497.690761 -116.475313 
L 500.646452 -116.475313 
L 503.602143 -116.475313 
L 506.557834 -116.475313 
L 509.513525 -116.475313 
L 512.469216 -116.475313 
L 515.424907 -116.475313 
L 518.380598 -116.475313 
L 521.336289 -116.475313 
L 524.29198 -116.475313 
L 527.247671 -116.475313 
L 530.203362 -116.475313 
L 533.159053 -116.475313 
L 536.114744 -116.475313 
L 539.070434 -116.475313 
L 542.026125 -116.475313 
L 544.981816 -116.475313 
L 547.937507 -116.475313 
L 550.893198 -116.475313 
L 553.848889 -116.475313 
L 556.80458 -116.475313 
L 559.760271 -116.475313 
L 562.715962 -116.475313 
L 565.671653 -116.475313 
L 568.627344 -116.475313 
L 571.583035 -116.475313 
L 574.538726 -116.475313 
L 577.494417 -116.475313 
L 580.450108 -116.475313 
L 583.405799 -116.475313 
L 586.36149 -116.475313 
L 589.317181 -116.475313 
L 592.272872 -116.475313 
L 595.228563 -116.475313 
L 598.184254 -116.475313 
L 601.139945 -116.475313 
L 604.095635 -116.475313 
L 607.051326 -116.475313 
L 610.007017 -116.475313 
L 612.962708 -116.475313 
L 615.918399 -116.475313 
L 618.87409 -116.475313 
L 621.829781 -116.475313 
L 624.785472 -116.475313 
L 627.741163 -116.475313 
L 630.696854 -116.475313 
L 633.652545 -116.475313 
L 636.608236 -116.475313 
L 639.563927 -116.475313 
L 642.519618 -116.475313 
L 645.475309 -116.475313 
L 648.431 -116.475313 
L 651.386691 -116.475313 
L 654.342382 -116.475313 
L 657.298073 -116.475313 
L 660.253764 -116.475313 
L 663.209455 -116.475313 
L 666.165146 -116.475313 
L 669.120836 -116.475313 
L 672.076527 -116.475313 
L 675.032218 -116.475313 
L 677.987909 -116.475313 
L 680.9436 -116.475313 
L 683.899291 -116.475313 
L 686.854982 -116.475313 
L 689.810673 -116.475313 
L 692.766364 -116.475313 
L 695.722055 -116.475313 
L 698.677746 -116.475313 
L 701.633437 -116.475313 
L 704.589128 -116.475313 
L 707.544819 -116.475313 
L 710.50051 -116.475313 
L 713.456201 -116.475313 
L 716.411892 -116.475313 
L 719.367583 -116.475313 
L 722.323274 -116.475313 
L 725.278965 -116.475313 
L 728.234656 -116.475313 
L 731.190347 -116.475313 
L 734.146038 -116.475313 
L 734.146038 -120.580846 
L 734.146038 -120.580846 
L 731.190347 -120.58996 
L 728.234656 -120.582841 
L 725.278965 -120.560425 
L 722.323274 -120.523973 
L 719.367583 -120.475052 
L 716.411892 -120.415509 
L 713.456201 -120.347436 
L 710.50051 -120.273139 
L 707.544819 -120.195091 
L 704.589128 -120.115891 
L 701.633437 -120.038214 
L 698.677746 -119.964766 
L 695.722055 -119.898242 
L 692.766364 -119.841275 
L 689.810673 -119.796406 
L 686.854982 -119.766041 
L 683.899291 -119.752426 
L 680.9436 -119.757624 
L 677.987909 -119.783498 
L 675.032218 -119.831703 
L 672.076527 -119.903684 
L 669.120836 -120.000679 
L 666.165146 -120.123734 
L 663.209455 -120.273719 
L 660.253764 -120.451347 
L 657.298073 -120.657205 
L 654.342382 -120.891777 
L 651.386691 -121.155472 
L 648.431 -121.448658 
L 645.475309 -121.77168 
L 642.519618 -122.124889 
L 639.563927 -122.508652 
L 636.608236 -122.923371 
L 633.652545 -123.369478 
L 630.696854 -123.847438 
L 627.741163 -124.35773 
L 624.785472 -124.900829 
L 621.829781 -125.477174 
L 618.87409 -126.087131 
L 615.918399 -126.730951 
L 612.962708 -127.408717 
L 610.007017 -128.120293 
L 607.051326 -128.86527 
L 604.095635 -129.642913 
L 601.139945 -130.452112 
L 598.184254 -131.291333 
L 595.228563 -132.158587 
L 592.272872 -133.051398 
L 589.317181 -133.966787 
L 586.36149 -134.901274 
L 583.405799 -135.850882 
L 580.450108 -136.811166 
L 577.494417 -137.77725 
L 574.538726 -138.743883 
L 571.583035 -139.705499 
L 568.627344 -140.656295 
L 565.671653 -141.590321 
L 562.715962 -142.501564 
L 559.760271 -143.384051 
L 556.80458 -144.231945 
L 553.848889 -145.039642 
L 550.893198 -145.801869 
L 547.937507 -146.513771 
L 544.981816 -147.170991 
L 542.026125 -147.769748 
L 539.070434 -148.306896 
L 536.114744 -148.779974 
L 533.159053 -149.187247 
L 530.203362 -149.527735 
L 527.247671 -149.801221 
L 524.29198 -150.008263 
L 521.336289 -150.150182 
L 518.380598 -150.229046 
L 515.424907 -150.247644 
L 512.469216 -150.209454 
L 509.513525 -150.1186 
L 506.557834 -149.979806 
L 503.602143 -149.798347 
L 500.646452 -149.57999 
L 497.690761 -149.330938 
L 494.73507 -149.057766 
L 491.779379 -148.767357 
L 488.823688 -148.466836 
L 485.867997 -148.1635 
L 482.912306 -147.86475 
L 479.956615 -147.57802 
L 477.000924 -147.310706 
L 474.045233 -147.070096 
L 471.089543 -146.863297 
L 468.133852 -146.697169 
L 465.178161 -146.578254 
L 462.22247 -146.512712 
L 459.266779 -146.506257 
L 456.311088 -146.5641 
L 453.355397 -146.690893 
L 450.399706 -146.890676 
L 447.444015 -147.166837 
L 444.488324 -147.522066 
L 441.532633 -147.958328 
L 438.576942 -148.476831 
L 435.621251 -149.078008 
L 432.66556 -149.761502 
L 429.709869 -150.526163 
L 426.754178 -151.370046 
L 423.798487 -152.290424 
L 420.842796 -153.283804 
L 417.887105 -154.345959 
L 414.931414 -155.471959 
L 411.975723 -156.656219 
L 409.020032 -157.892556 
L 406.064342 -159.174255 
L 403.108651 -160.494141 
L 400.15296 -161.844666 
L 397.197269 -163.218 
L 394.241578 -164.606133 
L 391.285887 -166.000975 
L 388.330196 -167.394471 
L 385.374505 -168.778708 
L 382.418814 -170.146025 
L 379.463123 -171.489117 
L 376.507432 -172.801137 
L 373.551741 -174.075778 
L 370.59605 -175.307354 
L 367.640359 -176.490854 
L 364.684668 -177.621989 
L 361.728977 -178.697207 
L 358.773286 -179.713697 
L 355.817595 -180.669364 
L 352.861904 -181.562789 
L 349.906213 -182.393163 
L 346.950522 -183.160207 
L 343.994831 -183.864075 
L 341.039141 -184.505242 
L 338.08345 -185.084394 
L 335.127759 -185.602305 
L 332.172068 -186.059717 
L 329.216377 -186.457238 
L 326.260686 -186.795235 
L 323.304995 -187.073757 
L 320.349304 -187.292471 
L 317.393613 -187.450624 
L 314.437922 -187.547028 
L 311.482231 -187.580074 
L 308.52654 -187.547775 
L 305.570849 -187.447827 
L 302.615158 -187.2777 
L 299.659467 -187.034753 
L 296.703776 -186.716353 
L 293.748085 -186.320019 
L 290.792394 -185.843565 
L 287.836703 -185.285246 
L 284.881012 -184.643897 
L 281.925321 -183.919062 
L 278.96963 -183.11111 
L 276.01394 -182.221323 
L 273.058249 -181.251965 
L 270.102558 -180.206324 
L 267.146867 -179.088713 
L 264.191176 -177.904456 
L 261.235485 -176.659831 
L 258.279794 -175.361984 
L 255.324103 -174.018827 
L 252.368412 -172.638895 
L 249.412721 -171.231197 
L 246.45703 -169.805046 
L 243.501339 -168.369875 
L 240.545648 -166.935058 
L 237.589957 -165.509721 
L 234.634266 -164.102562 
L 231.678575 -162.721687 
L 228.722884 -161.374453 
L 225.767193 -160.067333 
L 222.811502 -158.805806 
L 219.855811 -157.594265 
L 216.90012 -156.43596 
L 213.944429 -155.332956 
L 210.988739 -154.286134 
L 208.033048 -153.295206 
L 205.077357 -152.35876 
L 202.121666 -151.474332 
L 199.165975 -150.638497 
L 196.210284 -149.846976 
L 193.254593 -149.094769 
L 190.298902 -148.376288 
L 187.343211 -147.685511 
L 184.38752 -147.016133 
L 181.431829 -146.361728 
L 178.476138 -145.715899 
L 175.520447 -145.072435 
L 172.564756 -144.425449 
L 169.609065 -143.769512 
L 166.653374 -143.099773 
L 163.697683 -142.412055 
L 160.741992 -141.702944 
L 157.786301 -140.969848 
L 154.83061 -140.21104 
L 151.874919 -139.425677 
L 148.919228 -138.613799 
L 145.963538 -137.776306 
z
" style="stroke: #7e03a8"/>
    </defs>
    <g clip-path="url(#pbe8f268c00)">
     <use xlink:href="#meae8ec4cbf" x="0" y="212.255313" style="fill: #7e03a8; fill-opacity: 0.5; stroke: #7e03a8"/>
    </g>
   </g>
   <g id="matplotlib.axis_1">
    <g id="xtick_1">
     <g id="line2d_1">
      <defs>
       <path id="mbbf6238cb1" d="M 0 0 
L 0 3.5 
" style="stroke: #000000; stroke-width: 0.8"/>
      </defs>
      <g>
       <use xlink:href="#mbbf6238cb1" x="145.963538" y="95.78" style="stroke: #000000; stroke-width: 0.8"/>
      </g>
     </g>
    </g>
    <g id="xtick_2">
     <g id="line2d_2">
      <g>
       <use xlink:href="#mbbf6238cb1" x="263.600037" y="95.78" style="stroke: #000000; stroke-width: 0.8"/>
      </g>
     </g>
    </g>
    <g id="xtick_3">
     <g id="line2d_3">
      <g>
       <use xlink:href="#mbbf6238cb1" x="381.236537" y="95.78" style="stroke: #000000; stroke-width: 0.8"/>
      </g>
     </g>
    </g>
    <g id="xtick_4">
     <g id="line2d_4">
      <g>
       <use xlink:href="#mbbf6238cb1" x="498.873038" y="95.78" style="stroke: #000000; stroke-width: 0.8"/>
      </g>
     </g>
    </g>
    <g id="xtick_5">
     <g id="line2d_5">
      <g>
       <use xlink:href="#mbbf6238cb1" x="616.509537" y="95.78" style="stroke: #000000; stroke-width: 0.8"/>
      </g>
     </g>
    </g>
    <g id="xtick_6">
     <g id="line2d_6">
      <g>
       <use xlink:href="#mbbf6238cb1" x="734.146038" y="95.78" style="stroke: #000000; stroke-width: 0.8"/>
      </g>
     </g>
    </g>
   </g>
   <g id="matplotlib.axis_2"/>
   <g id="line2d_7">
    <path d="M 145.963538 74.479006 
L 154.83061 72.044273 
L 163.697683 69.843258 
L 175.520447 67.182877 
L 190.298902 63.879025 
L 199.165975 61.616816 
L 205.077357 59.896553 
L 210.988739 57.969178 
L 216.90012 55.819353 
L 222.811502 53.449506 
L 228.722884 50.88086 
L 237.589957 46.745592 
L 255.324103 38.236485 
L 261.235485 35.595482 
L 267.146867 33.166599 
L 273.058249 31.003347 
L 278.96963 29.144203 
L 284.881012 27.611415 
L 290.792394 26.411747 
L 296.703776 25.53896 
L 302.615158 24.977612 
L 308.52654 24.707537 
L 314.437922 24.708285 
L 320.349304 24.962842 
L 326.260686 25.460078 
L 332.172068 26.195595 
L 338.08345 27.170918 
L 343.994831 28.391238 
L 349.906213 29.86215 
L 355.817595 31.585949 
L 361.728977 33.558105 
L 367.640359 35.764458 
L 373.551741 38.179535 
L 382.418814 42.109288 
L 409.020032 54.362756 
L 414.931414 56.783354 
L 420.842796 58.971508 
L 426.754178 60.885267 
L 432.66556 62.49381 
L 438.576942 63.778481 
L 444.488324 64.733247 
L 450.399706 65.364636 
L 456.311088 65.691212 
L 462.22247 65.742601 
L 468.133852 65.558143 
L 474.045233 65.185217 
L 482.912306 64.390563 
L 500.646452 62.675323 
L 506.557834 62.275507 
L 512.469216 62.045858 
L 518.380598 62.026266 
L 524.29198 62.24705 
L 530.203362 62.727578 
L 536.114744 63.475339 
L 542.026125 64.485564 
L 547.937507 65.741542 
L 553.848889 67.215671 
L 562.715962 69.753748 
L 574.538726 73.511429 
L 592.272872 79.203915 
L 601.139945 81.803201 
L 610.007017 84.13502 
L 618.87409 86.168181 
L 627.741163 87.897582 
L 636.608236 89.331942 
L 645.475309 90.483632 
L 654.342382 91.363536 
L 663.209455 91.981594 
L 672.076527 92.351629 
L 680.9436 92.497689 
L 692.766364 92.414037 
L 713.456201 91.907877 
L 728.234656 91.672471 
L 734.146038 91.674467 
L 734.146038 91.674467 
" clip-path="url(#pbe8f268c00)" style="fill: none; stroke: #ffffff; stroke-width: 2; stroke-linecap: square"/>
   </g>
   <g id="line2d_8">
    <path d="M 145.963538 95.78 
L 734.146038 95.78 
" style="fill: none; stroke: #000000; stroke-linecap: square"/>
   </g>
   <g id="text_1">
    <g id="patch_3">
     <path d="M 14.278125 105.200937 
L 88.164375 105.200937 
L 88.164375 86.359062 
L 14.278125 86.359062 
z
" style="fill: #ffffff; opacity: 0.5"/>
    </g>
    <!-- Hydroelectric -->
    <g transform="translate(18.238125 98.651562) scale(0.12 -0.12)">
     <defs>
      <path id="TimesNewRomanPSMT-48" d="M 1316 2272 
L 3284 2272 
L 3284 3484 
Q 3284 3809 3244 3913 
Q 3213 3991 3113 4047 
Q 2978 4122 2828 4122 
L 2678 4122 
L 2678 4238 
L 4491 4238 
L 4491 4122 
L 4341 4122 
Q 4191 4122 4056 4050 
Q 3956 4000 3920 3898 
Q 3884 3797 3884 3484 
L 3884 750 
Q 3884 428 3925 325 
Q 3956 247 4053 191 
Q 4191 116 4341 116 
L 4491 116 
L 4491 0 
L 2678 0 
L 2678 116 
L 2828 116 
Q 3088 116 3206 269 
Q 3284 369 3284 750 
L 3284 2041 
L 1316 2041 
L 1316 750 
Q 1316 428 1356 325 
Q 1388 247 1488 191 
Q 1622 116 1772 116 
L 1925 116 
L 1925 0 
L 109 0 
L 109 116 
L 259 116 
Q 522 116 641 269 
Q 716 369 716 750 
L 716 3484 
Q 716 3809 675 3913 
Q 644 3991 547 4047 
Q 409 4122 259 4122 
L 109 4122 
L 109 4238 
L 1925 4238 
L 1925 4122 
L 1772 4122 
Q 1622 4122 1488 4050 
Q 1391 4000 1353 3898 
Q 1316 3797 1316 3484 
L 1316 2272 
z
" transform="scale(0.015625)"/>
      <path id="TimesNewRomanPSMT-79" d="M 38 2863 
L 1372 2863 
L 1372 2747 
L 1306 2747 
Q 1166 2747 1095 2686 
Q 1025 2625 1025 2534 
Q 1025 2413 1128 2197 
L 1825 753 
L 2466 2334 
Q 2519 2463 2519 2588 
Q 2519 2644 2497 2672 
Q 2472 2706 2419 2726 
Q 2366 2747 2231 2747 
L 2231 2863 
L 3163 2863 
L 3163 2747 
Q 3047 2734 2984 2696 
Q 2922 2659 2847 2556 
Q 2819 2513 2741 2316 
L 1575 -541 
Q 1406 -956 1132 -1168 
Q 859 -1381 606 -1381 
Q 422 -1381 303 -1275 
Q 184 -1169 184 -1031 
Q 184 -900 270 -820 
Q 356 -741 506 -741 
Q 609 -741 788 -809 
Q 913 -856 944 -856 
Q 1038 -856 1148 -759 
Q 1259 -663 1372 -384 
L 1575 113 
L 547 2272 
Q 500 2369 397 2513 
Q 319 2622 269 2659 
Q 197 2709 38 2747 
L 38 2863 
z
" transform="scale(0.015625)"/>
      <path id="TimesNewRomanPSMT-64" d="M 2222 322 
Q 2013 103 1813 7 
Q 1613 -88 1381 -88 
Q 913 -88 563 304 
Q 213 697 213 1313 
Q 213 1928 600 2439 
Q 988 2950 1597 2950 
Q 1975 2950 2222 2709 
L 2222 3238 
Q 2222 3728 2198 3840 
Q 2175 3953 2125 3993 
Q 2075 4034 2000 4034 
Q 1919 4034 1784 3984 
L 1744 4094 
L 2597 4444 
L 2738 4444 
L 2738 1134 
Q 2738 631 2761 520 
Q 2784 409 2836 365 
Q 2888 322 2956 322 
Q 3041 322 3181 375 
L 3216 266 
L 2366 -88 
L 2222 -88 
L 2222 322 
z
M 2222 541 
L 2222 2016 
Q 2203 2228 2109 2403 
Q 2016 2578 1861 2667 
Q 1706 2756 1559 2756 
Q 1284 2756 1069 2509 
Q 784 2184 784 1559 
Q 784 928 1059 592 
Q 1334 256 1672 256 
Q 1956 256 2222 541 
z
" transform="scale(0.015625)"/>
      <path id="TimesNewRomanPSMT-72" d="M 1038 2947 
L 1038 2303 
Q 1397 2947 1775 2947 
Q 1947 2947 2059 2842 
Q 2172 2738 2172 2600 
Q 2172 2478 2090 2393 
Q 2009 2309 1897 2309 
Q 1788 2309 1652 2417 
Q 1516 2525 1450 2525 
Q 1394 2525 1328 2463 
Q 1188 2334 1038 2041 
L 1038 669 
Q 1038 431 1097 309 
Q 1138 225 1241 169 
Q 1344 113 1538 113 
L 1538 0 
L 72 0 
L 72 113 
Q 291 113 397 181 
Q 475 231 506 341 
Q 522 394 522 644 
L 522 1753 
Q 522 2253 501 2348 
Q 481 2444 426 2487 
Q 372 2531 291 2531 
Q 194 2531 72 2484 
L 41 2597 
L 906 2947 
L 1038 2947 
z
" transform="scale(0.015625)"/>
      <path id="TimesNewRomanPSMT-6f" d="M 1600 2947 
Q 2250 2947 2644 2453 
Q 2978 2031 2978 1484 
Q 2978 1100 2793 706 
Q 2609 313 2286 112 
Q 1963 -88 1566 -88 
Q 919 -88 538 428 
Q 216 863 216 1403 
Q 216 1797 411 2186 
Q 606 2575 925 2761 
Q 1244 2947 1600 2947 
z
M 1503 2744 
Q 1338 2744 1170 2645 
Q 1003 2547 900 2300 
Q 797 2053 797 1666 
Q 797 1041 1045 587 
Q 1294 134 1700 134 
Q 2003 134 2200 384 
Q 2397 634 2397 1244 
Q 2397 2006 2069 2444 
Q 1847 2744 1503 2744 
z
" transform="scale(0.015625)"/>
      <path id="TimesNewRomanPSMT-65" d="M 681 1784 
Q 678 1147 991 784 
Q 1303 422 1725 422 
Q 2006 422 2214 576 
Q 2422 731 2563 1106 
L 2659 1044 
Q 2594 616 2278 264 
Q 1963 -88 1488 -88 
Q 972 -88 605 314 
Q 238 716 238 1394 
Q 238 2128 614 2539 
Q 991 2950 1559 2950 
Q 2041 2950 2350 2633 
Q 2659 2316 2659 1784 
L 681 1784 
z
M 681 1966 
L 2006 1966 
Q 1991 2241 1941 2353 
Q 1863 2528 1708 2628 
Q 1553 2728 1384 2728 
Q 1125 2728 920 2526 
Q 716 2325 681 1966 
z
" transform="scale(0.015625)"/>
      <path id="TimesNewRomanPSMT-6c" d="M 1184 4444 
L 1184 647 
Q 1184 378 1223 290 
Q 1263 203 1344 158 
Q 1425 113 1647 113 
L 1647 0 
L 244 0 
L 244 113 
Q 441 113 512 153 
Q 584 194 625 287 
Q 666 381 666 647 
L 666 3247 
Q 666 3731 644 3842 
Q 622 3953 573 3993 
Q 525 4034 450 4034 
Q 369 4034 244 3984 
L 191 4094 
L 1044 4444 
L 1184 4444 
z
" transform="scale(0.015625)"/>
      <path id="TimesNewRomanPSMT-63" d="M 2631 1088 
Q 2516 522 2178 217 
Q 1841 -88 1431 -88 
Q 944 -88 581 321 
Q 219 731 219 1428 
Q 219 2103 620 2525 
Q 1022 2947 1584 2947 
Q 2006 2947 2278 2723 
Q 2550 2500 2550 2259 
Q 2550 2141 2473 2067 
Q 2397 1994 2259 1994 
Q 2075 1994 1981 2113 
Q 1928 2178 1911 2362 
Q 1894 2547 1784 2644 
Q 1675 2738 1481 2738 
Q 1169 2738 978 2506 
Q 725 2200 725 1697 
Q 725 1184 976 792 
Q 1228 400 1656 400 
Q 1963 400 2206 609 
Q 2378 753 2541 1131 
L 2631 1088 
z
" transform="scale(0.015625)"/>
      <path id="TimesNewRomanPSMT-74" d="M 1031 3803 
L 1031 2863 
L 1700 2863 
L 1700 2644 
L 1031 2644 
L 1031 788 
Q 1031 509 1111 412 
Q 1191 316 1316 316 
Q 1419 316 1516 380 
Q 1613 444 1666 569 
L 1788 569 
Q 1678 263 1478 108 
Q 1278 -47 1066 -47 
Q 922 -47 784 33 
Q 647 113 581 261 
Q 516 409 516 719 
L 516 2644 
L 63 2644 
L 63 2747 
Q 234 2816 414 2980 
Q 594 3144 734 3369 
Q 806 3488 934 3803 
L 1031 3803 
z
" transform="scale(0.015625)"/>
      <path id="TimesNewRomanPSMT-69" d="M 928 4444 
Q 1059 4444 1151 4351 
Q 1244 4259 1244 4128 
Q 1244 3997 1151 3903 
Q 1059 3809 928 3809 
Q 797 3809 703 3903 
Q 609 3997 609 4128 
Q 609 4259 701 4351 
Q 794 4444 928 4444 
z
M 1188 2947 
L 1188 647 
Q 1188 378 1227 289 
Q 1266 200 1342 156 
Q 1419 113 1622 113 
L 1622 0 
L 231 0 
L 231 113 
Q 441 113 512 153 
Q 584 194 626 287 
Q 669 381 669 647 
L 669 1750 
Q 669 2216 641 2353 
Q 619 2453 572 2492 
Q 525 2531 444 2531 
Q 356 2531 231 2484 
L 188 2597 
L 1050 2947 
L 1188 2947 
z
" transform="scale(0.015625)"/>
     </defs>
     <use xlink:href="#TimesNewRomanPSMT-48"/>
     <use xlink:href="#TimesNewRomanPSMT-79" transform="translate(72.216797 0)"/>
     <use xlink:href="#TimesNewRomanPSMT-64" transform="translate(122.216797 0)"/>
     <use xlink:href="#TimesNewRomanPSMT-72" transform="translate(172.216797 0)"/>
     <use xlink:href="#TimesNewRomanPSMT-6f" transform="translate(205.517578 0)"/>
     <use xlink:href="#TimesNewRomanPSMT-65" transform="translate(255.517578 0)"/>
     <use xlink:href="#TimesNewRomanPSMT-6c" transform="translate(299.902344 0)"/>
     <use xlink:href="#TimesNewRomanPSMT-65" transform="translate(327.685547 0)"/>
     <use xlink:href="#TimesNewRomanPSMT-63" transform="translate(372.070312 0)"/>
     <use xlink:href="#TimesNewRomanPSMT-74" transform="translate(416.455078 0)"/>
     <use xlink:href="#TimesNewRomanPSMT-72" transform="translate(444.238281 0)"/>
     <use xlink:href="#TimesNewRomanPSMT-69" transform="translate(477.539062 0)"/>
     <use xlink:href="#TimesNewRomanPSMT-63" transform="translate(505.322266 0)"/>
    </g>
   </g>
  </g>
  <g id="axes_2">
   <g id="patch_4">
    <path d="M 145.963538 133.11 
L 734.146038 133.11 
L 734.146038 58.45 
L 145.963538 58.45 
L 145.963538 133.11 
z
" style="fill: none; opacity: 0"/>
   </g>
   <g id="FillBetweenPolyCollection_2">
    <defs>
     <path id="m7e767e9591" d="M 145.963538 -101.8317 
L 145.963538 -79.145313 
L 148.919228 -79.145313 
L 151.874919 -79.145313 
L 154.83061 -79.145313 
L 157.786301 -79.145313 
L 160.741992 -79.145313 
L 163.697683 -79.145313 
L 166.653374 -79.145313 
L 169.609065 -79.145313 
L 172.564756 -79.145313 
L 175.520447 -79.145313 
L 178.476138 -79.145313 
L 181.431829 -79.145313 
L 184.38752 -79.145313 
L 187.343211 -79.145313 
L 190.298902 -79.145313 
L 193.254593 -79.145313 
L 196.210284 -79.145313 
L 199.165975 -79.145313 
L 202.121666 -79.145313 
L 205.077357 -79.145313 
L 208.033048 -79.145313 
L 210.988739 -79.145313 
L 213.944429 -79.145313 
L 216.90012 -79.145313 
L 219.855811 -79.145313 
L 222.811502 -79.145313 
L 225.767193 -79.145313 
L 228.722884 -79.145313 
L 231.678575 -79.145313 
L 234.634266 -79.145313 
L 237.589957 -79.145313 
L 240.545648 -79.145313 
L 243.501339 -79.145313 
L 246.45703 -79.145313 
L 249.412721 -79.145313 
L 252.368412 -79.145313 
L 255.324103 -79.145313 
L 258.279794 -79.145313 
L 261.235485 -79.145313 
L 264.191176 -79.145313 
L 267.146867 -79.145313 
L 270.102558 -79.145313 
L 273.058249 -79.145313 
L 276.01394 -79.145313 
L 278.96963 -79.145313 
L 281.925321 -79.145313 
L 284.881012 -79.145313 
L 287.836703 -79.145313 
L 290.792394 -79.145313 
L 293.748085 -79.145313 
L 296.703776 -79.145313 
L 299.659467 -79.145313 
L 302.615158 -79.145313 
L 305.570849 -79.145313 
L 308.52654 -79.145313 
L 311.482231 -79.145313 
L 314.437922 -79.145313 
L 317.393613 -79.145313 
L 320.349304 -79.145313 
L 323.304995 -79.145313 
L 326.260686 -79.145313 
L 329.216377 -79.145313 
L 332.172068 -79.145313 
L 335.127759 -79.145313 
L 338.08345 -79.145313 
L 341.039141 -79.145313 
L 343.994831 -79.145313 
L 346.950522 -79.145313 
L 349.906213 -79.145313 
L 352.861904 -79.145313 
L 355.817595 -79.145313 
L 358.773286 -79.145313 
L 361.728977 -79.145313 
L 364.684668 -79.145313 
L 367.640359 -79.145313 
L 370.59605 -79.145313 
L 373.551741 -79.145313 
L 376.507432 -79.145313 
L 379.463123 -79.145313 
L 382.418814 -79.145313 
L 385.374505 -79.145313 
L 388.330196 -79.145313 
L 391.285887 -79.145313 
L 394.241578 -79.145313 
L 397.197269 -79.145313 
L 400.15296 -79.145313 
L 403.108651 -79.145313 
L 406.064342 -79.145313 
L 409.020032 -79.145313 
L 411.975723 -79.145313 
L 414.931414 -79.145313 
L 417.887105 -79.145313 
L 420.842796 -79.145313 
L 423.798487 -79.145313 
L 426.754178 -79.145313 
L 429.709869 -79.145313 
L 432.66556 -79.145313 
L 435.621251 -79.145313 
L 438.576942 -79.145313 
L 441.532633 -79.145313 
L 444.488324 -79.145313 
L 447.444015 -79.145313 
L 450.399706 -79.145313 
L 453.355397 -79.145313 
L 456.311088 -79.145313 
L 459.266779 -79.145313 
L 462.22247 -79.145313 
L 465.178161 -79.145313 
L 468.133852 -79.145313 
L 471.089543 -79.145313 
L 474.045233 -79.145313 
L 477.000924 -79.145313 
L 479.956615 -79.145313 
L 482.912306 -79.145313 
L 485.867997 -79.145313 
L 488.823688 -79.145313 
L 491.779379 -79.145313 
L 494.73507 -79.145313 
L 497.690761 -79.145313 
L 500.646452 -79.145313 
L 503.602143 -79.145313 
L 506.557834 -79.145313 
L 509.513525 -79.145313 
L 512.469216 -79.145313 
L 515.424907 -79.145313 
L 518.380598 -79.145313 
L 521.336289 -79.145313 
L 524.29198 -79.145313 
L 527.247671 -79.145313 
L 530.203362 -79.145313 
L 533.159053 -79.145313 
L 536.114744 -79.145313 
L 539.070434 -79.145313 
L 542.026125 -79.145313 
L 544.981816 -79.145313 
L 547.937507 -79.145313 
L 550.893198 -79.145313 
L 553.848889 -79.145313 
L 556.80458 -79.145313 
L 559.760271 -79.145313 
L 562.715962 -79.145313 
L 565.671653 -79.145313 
L 568.627344 -79.145313 
L 571.583035 -79.145313 
L 574.538726 -79.145313 
L 577.494417 -79.145313 
L 580.450108 -79.145313 
L 583.405799 -79.145313 
L 586.36149 -79.145313 
L 589.317181 -79.145313 
L 592.272872 -79.145313 
L 595.228563 -79.145313 
L 598.184254 -79.145313 
L 601.139945 -79.145313 
L 604.095635 -79.145313 
L 607.051326 -79.145313 
L 610.007017 -79.145313 
L 612.962708 -79.145313 
L 615.918399 -79.145313 
L 618.87409 -79.145313 
L 621.829781 -79.145313 
L 624.785472 -79.145313 
L 627.741163 -79.145313 
L 630.696854 -79.145313 
L 633.652545 -79.145313 
L 636.608236 -79.145313 
L 639.563927 -79.145313 
L 642.519618 -79.145313 
L 645.475309 -79.145313 
L 648.431 -79.145313 
L 651.386691 -79.145313 
L 654.342382 -79.145313 
L 657.298073 -79.145313 
L 660.253764 -79.145313 
L 663.209455 -79.145313 
L 666.165146 -79.145313 
L 669.120836 -79.145313 
L 672.076527 -79.145313 
L 675.032218 -79.145313 
L 677.987909 -79.145313 
L 680.9436 -79.145313 
L 683.899291 -79.145313 
L 686.854982 -79.145313 
L 689.810673 -79.145313 
L 692.766364 -79.145313 
L 695.722055 -79.145313 
L 698.677746 -79.145313 
L 701.633437 -79.145313 
L 704.589128 -79.145313 
L 707.544819 -79.145313 
L 710.50051 -79.145313 
L 713.456201 -79.145313 
L 716.411892 -79.145313 
L 719.367583 -79.145313 
L 722.323274 -79.145313 
L 725.278965 -79.145313 
L 728.234656 -79.145313 
L 731.190347 -79.145313 
L 734.146038 -79.145313 
L 734.146038 -96.804274 
L 734.146038 -96.804274 
L 731.190347 -97.731629 
L 728.234656 -98.678514 
L 725.278965 -99.643169 
L 722.323274 -100.623684 
L 719.367583 -101.618004 
L 716.411892 -102.623938 
L 713.456201 -103.639165 
L 710.50051 -104.661243 
L 707.544819 -105.687622 
L 704.589128 -106.715654 
L 701.633437 -107.742607 
L 698.677746 -108.765679 
L 695.722055 -109.782013 
L 692.766364 -110.788715 
L 689.810673 -111.782867 
L 686.854982 -112.76155 
L 683.899291 -113.721855 
L 680.9436 -114.660908 
L 677.987909 -115.575883 
L 675.032218 -116.464024 
L 672.076527 -117.322662 
L 669.120836 -118.14923 
L 666.165146 -118.941283 
L 663.209455 -119.696513 
L 660.253764 -120.412766 
L 657.298073 -121.088053 
L 654.342382 -121.720563 
L 651.386691 -122.308678 
L 648.431 -122.850979 
L 645.475309 -123.346258 
L 642.519618 -123.793518 
L 639.563927 -124.191987 
L 636.608236 -124.541112 
L 633.652545 -124.840565 
L 630.696854 -125.090241 
L 627.741163 -125.290255 
L 624.785472 -125.440939 
L 621.829781 -125.542833 
L 618.87409 -125.596681 
L 615.918399 -125.60342 
L 612.962708 -125.564168 
L 610.007017 -125.480217 
L 607.051326 -125.353016 
L 604.095635 -125.18416 
L 601.139945 -124.975377 
L 598.184254 -124.728511 
L 595.228563 -124.44551 
L 592.272872 -124.12841 
L 589.317181 -123.77932 
L 586.36149 -123.400412 
L 583.405799 -122.993901 
L 580.450108 -122.562039 
L 577.494417 -122.107094 
L 574.538726 -121.631347 
L 571.583035 -121.137077 
L 568.627344 -120.62655 
L 565.671653 -120.102014 
L 562.715962 -119.565685 
L 559.760271 -119.019745 
L 556.80458 -118.466335 
L 553.848889 -117.907544 
L 550.893198 -117.345411 
L 547.937507 -116.781915 
L 544.981816 -116.218973 
L 542.026125 -115.658435 
L 539.070434 -115.102083 
L 536.114744 -114.551625 
L 533.159053 -114.008692 
L 530.203362 -113.474836 
L 527.247671 -112.951523 
L 524.29198 -112.440135 
L 521.336289 -111.941963 
L 518.380598 -111.458204 
L 515.424907 -110.989954 
L 512.469216 -110.538212 
L 509.513525 -110.10387 
L 506.557834 -109.687709 
L 503.602143 -109.290403 
L 500.646452 -108.912507 
L 497.690761 -108.554463 
L 494.73507 -108.216591 
L 491.779379 -107.899097 
L 488.823688 -107.602063 
L 485.867997 -107.325456 
L 482.912306 -107.06913 
L 479.956615 -106.832821 
L 477.000924 -106.616164 
L 474.045233 -106.418689 
L 471.089543 -106.239831 
L 468.133852 -106.07894 
L 465.178161 -105.935288 
L 462.22247 -105.808082 
L 459.266779 -105.696468 
L 456.311088 -105.599553 
L 453.355397 -105.516406 
L 450.399706 -105.446079 
L 447.444015 -105.387614 
L 444.488324 -105.340058 
L 441.532633 -105.302474 
L 438.576942 -105.27395 
L 435.621251 -105.253613 
L 432.66556 -105.240634 
L 429.709869 -105.234242 
L 426.754178 -105.233724 
L 423.798487 -105.238437 
L 420.842796 -105.24781 
L 417.887105 -105.261343 
L 414.931414 -105.278616 
L 411.975723 -105.299283 
L 409.020032 -105.323072 
L 406.064342 -105.349786 
L 403.108651 -105.379295 
L 400.15296 -105.411537 
L 397.197269 -105.446508 
L 394.241578 -105.484262 
L 391.285887 -105.5249 
L 388.330196 -105.568571 
L 385.374505 -105.61546 
L 382.418814 -105.665789 
L 379.463123 -105.719806 
L 376.507432 -105.777787 
L 373.551741 -105.840028 
L 370.59605 -105.906843 
L 367.640359 -105.978564 
L 364.684668 -106.055534 
L 361.728977 -106.138114 
L 358.773286 -106.226671 
L 355.817595 -106.321589 
L 352.861904 -106.423261 
L 349.906213 -106.532091 
L 346.950522 -106.648494 
L 343.994831 -106.772892 
L 341.039141 -106.905718 
L 338.08345 -107.047409 
L 335.127759 -107.198401 
L 332.172068 -107.359132 
L 329.216377 -107.530027 
L 326.260686 -107.711499 
L 323.304995 -107.903936 
L 320.349304 -108.10769 
L 317.393613 -108.323074 
L 314.437922 -108.55034 
L 311.482231 -108.789674 
L 308.52654 -109.041178 
L 305.570849 -109.304856 
L 302.615158 -109.580602 
L 299.659467 -109.868185 
L 296.703776 -110.167233 
L 293.748085 -110.477222 
L 290.792394 -110.797464 
L 287.836703 -111.127097 
L 284.881012 -111.465074 
L 281.925321 -111.81016 
L 278.96963 -112.160926 
L 276.01394 -112.515749 
L 273.058249 -112.872814 
L 270.102558 -113.230118 
L 267.146867 -113.585481 
L 264.191176 -113.936552 
L 261.235485 -114.28083 
L 258.279794 -114.615678 
L 255.324103 -114.938343 
L 252.368412 -115.245984 
L 249.412721 -115.53569 
L 246.45703 -115.804517 
L 243.501339 -116.04951 
L 240.545648 -116.267738 
L 237.589957 -116.456323 
L 234.634266 -116.612474 
L 231.678575 -116.733517 
L 228.722884 -116.816926 
L 225.767193 -116.860354 
L 222.811502 -116.861659 
L 219.855811 -116.818934 
L 216.90012 -116.730526 
L 213.944429 -116.595057 
L 210.988739 -116.411447 
L 208.033048 -116.178921 
L 205.077357 -115.897024 
L 202.121666 -115.565627 
L 199.165975 -115.18493 
L 196.210284 -114.755459 
L 193.254593 -114.278066 
L 190.298902 -113.753916 
L 187.343211 -113.184479 
L 184.38752 -112.571514 
L 181.431829 -111.917051 
L 178.476138 -111.223369 
L 175.520447 -110.492977 
L 172.564756 -109.728586 
L 169.609065 -108.933084 
L 166.653374 -108.109508 
L 163.697683 -107.261016 
L 160.741992 -106.390858 
L 157.786301 -105.502348 
L 154.83061 -104.598834 
L 151.874919 -103.683672 
L 148.919228 -102.760197 
L 145.963538 -101.8317 
z
" style="stroke: #cc4778"/>
    </defs>
    <g clip-path="url(#p2bb8bd2b02)">
     <use xlink:href="#m7e767e9591" x="0" y="212.255313" style="fill: #cc4778; fill-opacity: 0.5; stroke: #cc4778"/>
    </g>
   </g>
   <g id="matplotlib.axis_3">
    <g id="xtick_7">
     <g id="line2d_9">
      <g>
       <use xlink:href="#mbbf6238cb1" x="145.963538" y="133.11" style="stroke: #000000; stroke-width: 0.8"/>
      </g>
     </g>
    </g>
    <g id="xtick_8">
     <g id="line2d_10">
      <g>
       <use xlink:href="#mbbf6238cb1" x="263.600037" y="133.11" style="stroke: #000000; stroke-width: 0.8"/>
      </g>
     </g>
    </g>
    <g id="xtick_9">
     <g id="line2d_11">
      <g>
       <use xlink:href="#mbbf6238cb1" x="381.236537" y="133.11" style="stroke: #000000; stroke-width: 0.8"/>
      </g>
     </g>
    </g>
    <g id="xtick_10">
     <g id="line2d_12">
      <g>
       <use xlink:href="#mbbf6238cb1" x="498.873038" y="133.11" style="stroke: #000000; stroke-width: 0.8"/>
      </g>
     </g>
    </g>
    <g id="xtick_11">
     <g id="line2d_13">
      <g>
       <use xlink:href="#mbbf6238cb1" x="616.509537" y="133.11" style="stroke: #000000; stroke-width: 0.8"/>
      </g>
     </g>
    </g>
    <g id="xtick_12">
     <g id="line2d_14">
      <g>
       <use xlink:href="#mbbf6238cb1" x="734.146038" y="133.11" style="stroke: #000000; stroke-width: 0.8"/>
      </g>
     </g>
    </g>
   </g>
   <g id="matplotlib.axis_4"/>
   <g id="line2d_15">
    <path d="M 145.963538 110.423612 
L 160.741992 105.864454 
L 169.609065 103.322228 
L 178.476138 101.031943 
L 184.38752 99.683798 
L 190.298902 98.501397 
L 196.210284 97.499853 
L 202.121666 96.689685 
L 208.033048 96.076391 
L 213.944429 95.660255 
L 219.855811 95.436378 
L 225.767193 95.394959 
L 231.678575 95.521796 
L 240.545648 95.987574 
L 249.412721 96.719622 
L 261.235485 97.974482 
L 299.659467 102.387128 
L 311.482231 103.465638 
L 323.304995 104.351377 
L 338.08345 105.207904 
L 352.861904 105.832051 
L 370.59605 106.34847 
L 391.285887 106.730412 
L 417.887105 106.993969 
L 438.576942 106.981362 
L 453.355397 106.738907 
L 465.178161 106.320024 
L 477.000924 105.639148 
L 485.867997 104.929856 
L 494.73507 104.038721 
L 503.602143 102.96491 
L 515.424907 101.265358 
L 527.247671 99.30379 
L 542.026125 96.596877 
L 568.627344 91.628762 
L 580.450108 89.693274 
L 589.317181 88.475992 
L 598.184254 87.526801 
L 604.095635 87.071152 
L 610.007017 86.775096 
L 615.918399 86.651893 
L 621.829781 86.712479 
L 627.741163 86.965057 
L 633.652545 87.414747 
L 639.563927 88.063325 
L 645.475309 88.909055 
L 651.386691 89.946635 
L 657.298073 91.16726 
L 663.209455 92.558799 
L 672.076527 94.932651 
L 680.9436 97.594405 
L 692.766364 101.466598 
L 734.146038 115.451039 
L 734.146038 115.451039 
" clip-path="url(#p2bb8bd2b02)" style="fill: none; stroke: #ffffff; stroke-width: 2; stroke-linecap: square"/>
   </g>
   <g id="line2d_16">
    <path d="M 145.963538 133.11 
L 734.146038 133.11 
" style="fill: none; stroke: #000000; stroke-linecap: square"/>
   </g>
   <g id="text_2">
    <g id="patch_5">
     <path d="M 38.904375 142.519688 
L 88.164375 142.519688 
L 88.164375 123.700312 
L 38.904375 123.700312 
z
" style="fill: #ffffff; opacity: 0.5"/>
    </g>
    <!-- Biomass -->
    <g transform="translate(42.864375 135.992813) scale(0.12 -0.12)">
     <defs>
      <path id="TimesNewRomanPSMT-42" d="M 2956 2163 
Q 3397 2069 3616 1863 
Q 3919 1575 3919 1159 
Q 3919 844 3719 555 
Q 3519 266 3170 133 
Q 2822 0 2106 0 
L 106 0 
L 106 116 
L 266 116 
Q 531 116 647 284 
Q 719 394 719 750 
L 719 3488 
Q 719 3881 628 3984 
Q 506 4122 266 4122 
L 106 4122 
L 106 4238 
L 1938 4238 
Q 2450 4238 2759 4163 
Q 3228 4050 3475 3764 
Q 3722 3478 3722 3106 
Q 3722 2788 3528 2536 
Q 3334 2284 2956 2163 
z
M 1319 2331 
Q 1434 2309 1582 2298 
Q 1731 2288 1909 2288 
Q 2366 2288 2595 2386 
Q 2825 2484 2947 2687 
Q 3069 2891 3069 3131 
Q 3069 3503 2766 3765 
Q 2463 4028 1881 4028 
Q 1569 4028 1319 3959 
L 1319 2331 
z
M 1319 306 
Q 1681 222 2034 222 
Q 2600 222 2897 476 
Q 3194 731 3194 1106 
Q 3194 1353 3059 1581 
Q 2925 1809 2622 1940 
Q 2319 2072 1872 2072 
Q 1678 2072 1540 2065 
Q 1403 2059 1319 2044 
L 1319 306 
z
" transform="scale(0.015625)"/>
      <path id="TimesNewRomanPSMT-6d" d="M 1050 2338 
Q 1363 2650 1419 2697 
Q 1559 2816 1721 2881 
Q 1884 2947 2044 2947 
Q 2313 2947 2506 2790 
Q 2700 2634 2766 2338 
Q 3088 2713 3309 2830 
Q 3531 2947 3766 2947 
Q 3994 2947 4170 2830 
Q 4347 2713 4450 2447 
Q 4519 2266 4519 1878 
L 4519 647 
Q 4519 378 4559 278 
Q 4591 209 4675 161 
Q 4759 113 4950 113 
L 4950 0 
L 3538 0 
L 3538 113 
L 3597 113 
Q 3781 113 3884 184 
Q 3956 234 3988 344 
Q 4000 397 4000 647 
L 4000 1878 
Q 4000 2228 3916 2372 
Q 3794 2572 3525 2572 
Q 3359 2572 3192 2489 
Q 3025 2406 2788 2181 
L 2781 2147 
L 2788 2013 
L 2788 647 
Q 2788 353 2820 281 
Q 2853 209 2943 161 
Q 3034 113 3253 113 
L 3253 0 
L 1806 0 
L 1806 113 
Q 2044 113 2133 169 
Q 2222 225 2256 338 
Q 2272 391 2272 647 
L 2272 1878 
Q 2272 2228 2169 2381 
Q 2031 2581 1784 2581 
Q 1616 2581 1450 2491 
Q 1191 2353 1050 2181 
L 1050 647 
Q 1050 366 1089 281 
Q 1128 197 1204 155 
Q 1281 113 1516 113 
L 1516 0 
L 100 0 
L 100 113 
Q 297 113 375 155 
Q 453 197 493 289 
Q 534 381 534 647 
L 534 1741 
Q 534 2213 506 2350 
Q 484 2453 437 2492 
Q 391 2531 309 2531 
Q 222 2531 100 2484 
L 53 2597 
L 916 2947 
L 1050 2947 
L 1050 2338 
z
" transform="scale(0.015625)"/>
      <path id="TimesNewRomanPSMT-61" d="M 1822 413 
Q 1381 72 1269 19 
Q 1100 -59 909 -59 
Q 613 -59 420 144 
Q 228 347 228 678 
Q 228 888 322 1041 
Q 450 1253 767 1440 
Q 1084 1628 1822 1897 
L 1822 2009 
Q 1822 2438 1686 2597 
Q 1550 2756 1291 2756 
Q 1094 2756 978 2650 
Q 859 2544 859 2406 
L 866 2225 
Q 866 2081 792 2003 
Q 719 1925 600 1925 
Q 484 1925 411 2006 
Q 338 2088 338 2228 
Q 338 2497 613 2722 
Q 888 2947 1384 2947 
Q 1766 2947 2009 2819 
Q 2194 2722 2281 2516 
Q 2338 2381 2338 1966 
L 2338 994 
Q 2338 584 2353 492 
Q 2369 400 2405 369 
Q 2441 338 2488 338 
Q 2538 338 2575 359 
Q 2641 400 2828 588 
L 2828 413 
Q 2478 -56 2159 -56 
Q 2006 -56 1915 50 
Q 1825 156 1822 413 
z
M 1822 616 
L 1822 1706 
Q 1350 1519 1213 1441 
Q 966 1303 859 1153 
Q 753 1003 753 825 
Q 753 600 887 451 
Q 1022 303 1197 303 
Q 1434 303 1822 616 
z
" transform="scale(0.015625)"/>
      <path id="TimesNewRomanPSMT-73" d="M 2050 2947 
L 2050 1972 
L 1947 1972 
Q 1828 2431 1642 2597 
Q 1456 2763 1169 2763 
Q 950 2763 815 2647 
Q 681 2531 681 2391 
Q 681 2216 781 2091 
Q 878 1963 1175 1819 
L 1631 1597 
Q 2266 1288 2266 781 
Q 2266 391 1970 151 
Q 1675 -88 1309 -88 
Q 1047 -88 709 6 
Q 606 38 541 38 
Q 469 38 428 -44 
L 325 -44 
L 325 978 
L 428 978 
Q 516 541 762 319 
Q 1009 97 1316 97 
Q 1531 97 1667 223 
Q 1803 350 1803 528 
Q 1803 744 1651 891 
Q 1500 1038 1047 1263 
Q 594 1488 453 1669 
Q 313 1847 313 2119 
Q 313 2472 555 2709 
Q 797 2947 1181 2947 
Q 1350 2947 1591 2875 
Q 1750 2828 1803 2828 
Q 1853 2828 1881 2850 
Q 1909 2872 1947 2947 
L 2050 2947 
z
" transform="scale(0.015625)"/>
     </defs>
     <use xlink:href="#TimesNewRomanPSMT-42"/>
     <use xlink:href="#TimesNewRomanPSMT-69" transform="translate(66.699219 0)"/>
     <use xlink:href="#TimesNewRomanPSMT-6f" transform="translate(94.482422 0)"/>
     <use xlink:href="#TimesNewRomanPSMT-6d" transform="translate(144.482422 0)"/>
     <use xlink:href="#TimesNewRomanPSMT-61" transform="translate(222.265625 0)"/>
     <use xlink:href="#TimesNewRomanPSMT-73" transform="translate(266.650391 0)"/>
     <use xlink:href="#TimesNewRomanPSMT-73" transform="translate(305.566406 0)"/>
    </g>
   </g>
  </g>
  <g id="axes_3">
   <g id="patch_6">
    <path d="M 145.963538 170.44 
L 734.146038 170.44 
L 734.146038 95.78 
L 145.963538 95.78 
L 145.963538 170.44 
z
" style="fill: none; opacity: 0"/>
   </g>
   <g id="FillBetweenPolyCollection_3">
    <defs>
     <path id="meecbed317b" d="M 145.963538 -53.714297 
L 145.963538 -41.815313 
L 148.919228 -41.815313 
L 151.874919 -41.815313 
L 154.83061 -41.815313 
L 157.786301 -41.815313 
L 160.741992 -41.815313 
L 163.697683 -41.815313 
L 166.653374 -41.815313 
L 169.609065 -41.815313 
L 172.564756 -41.815313 
L 175.520447 -41.815313 
L 178.476138 -41.815313 
L 181.431829 -41.815313 
L 184.38752 -41.815313 
L 187.343211 -41.815313 
L 190.298902 -41.815313 
L 193.254593 -41.815313 
L 196.210284 -41.815313 
L 199.165975 -41.815313 
L 202.121666 -41.815313 
L 205.077357 -41.815313 
L 208.033048 -41.815313 
L 210.988739 -41.815313 
L 213.944429 -41.815313 
L 216.90012 -41.815313 
L 219.855811 -41.815313 
L 222.811502 -41.815313 
L 225.767193 -41.815313 
L 228.722884 -41.815313 
L 231.678575 -41.815313 
L 234.634266 -41.815313 
L 237.589957 -41.815313 
L 240.545648 -41.815313 
L 243.501339 -41.815313 
L 246.45703 -41.815313 
L 249.412721 -41.815313 
L 252.368412 -41.815313 
L 255.324103 -41.815313 
L 258.279794 -41.815313 
L 261.235485 -41.815313 
L 264.191176 -41.815313 
L 267.146867 -41.815313 
L 270.102558 -41.815313 
L 273.058249 -41.815313 
L 276.01394 -41.815313 
L 278.96963 -41.815313 
L 281.925321 -41.815313 
L 284.881012 -41.815313 
L 287.836703 -41.815313 
L 290.792394 -41.815313 
L 293.748085 -41.815313 
L 296.703776 -41.815313 
L 299.659467 -41.815313 
L 302.615158 -41.815313 
L 305.570849 -41.815313 
L 308.52654 -41.815313 
L 311.482231 -41.815313 
L 314.437922 -41.815313 
L 317.393613 -41.815313 
L 320.349304 -41.815313 
L 323.304995 -41.815313 
L 326.260686 -41.815313 
L 329.216377 -41.815313 
L 332.172068 -41.815313 
L 335.127759 -41.815313 
L 338.08345 -41.815313 
L 341.039141 -41.815313 
L 343.994831 -41.815313 
L 346.950522 -41.815313 
L 349.906213 -41.815313 
L 352.861904 -41.815313 
L 355.817595 -41.815313 
L 358.773286 -41.815313 
L 361.728977 -41.815313 
L 364.684668 -41.815313 
L 367.640359 -41.815313 
L 370.59605 -41.815313 
L 373.551741 -41.815313 
L 376.507432 -41.815313 
L 379.463123 -41.815313 
L 382.418814 -41.815313 
L 385.374505 -41.815313 
L 388.330196 -41.815313 
L 391.285887 -41.815313 
L 394.241578 -41.815313 
L 397.197269 -41.815313 
L 400.15296 -41.815313 
L 403.108651 -41.815313 
L 406.064342 -41.815313 
L 409.020032 -41.815313 
L 411.975723 -41.815313 
L 414.931414 -41.815313 
L 417.887105 -41.815313 
L 420.842796 -41.815313 
L 423.798487 -41.815313 
L 426.754178 -41.815313 
L 429.709869 -41.815313 
L 432.66556 -41.815313 
L 435.621251 -41.815313 
L 438.576942 -41.815313 
L 441.532633 -41.815313 
L 444.488324 -41.815313 
L 447.444015 -41.815313 
L 450.399706 -41.815313 
L 453.355397 -41.815313 
L 456.311088 -41.815313 
L 459.266779 -41.815313 
L 462.22247 -41.815313 
L 465.178161 -41.815313 
L 468.133852 -41.815313 
L 471.089543 -41.815313 
L 474.045233 -41.815313 
L 477.000924 -41.815313 
L 479.956615 -41.815313 
L 482.912306 -41.815313 
L 485.867997 -41.815313 
L 488.823688 -41.815313 
L 491.779379 -41.815313 
L 494.73507 -41.815313 
L 497.690761 -41.815313 
L 500.646452 -41.815313 
L 503.602143 -41.815313 
L 506.557834 -41.815313 
L 509.513525 -41.815313 
L 512.469216 -41.815313 
L 515.424907 -41.815313 
L 518.380598 -41.815313 
L 521.336289 -41.815313 
L 524.29198 -41.815313 
L 527.247671 -41.815313 
L 530.203362 -41.815313 
L 533.159053 -41.815313 
L 536.114744 -41.815313 
L 539.070434 -41.815313 
L 542.026125 -41.815313 
L 544.981816 -41.815313 
L 547.937507 -41.815313 
L 550.893198 -41.815313 
L 553.848889 -41.815313 
L 556.80458 -41.815313 
L 559.760271 -41.815313 
L 562.715962 -41.815313 
L 565.671653 -41.815313 
L 568.627344 -41.815313 
L 571.583035 -41.815313 
L 574.538726 -41.815313 
L 577.494417 -41.815313 
L 580.450108 -41.815313 
L 583.405799 -41.815313 
L 586.36149 -41.815313 
L 589.317181 -41.815313 
L 592.272872 -41.815313 
L 595.228563 -41.815313 
L 598.184254 -41.815313 
L 601.139945 -41.815313 
L 604.095635 -41.815313 
L 607.051326 -41.815313 
L 610.007017 -41.815313 
L 612.962708 -41.815313 
L 615.918399 -41.815313 
L 618.87409 -41.815313 
L 621.829781 -41.815313 
L 624.785472 -41.815313 
L 627.741163 -41.815313 
L 630.696854 -41.815313 
L 633.652545 -41.815313 
L 636.608236 -41.815313 
L 639.563927 -41.815313 
L 642.519618 -41.815313 
L 645.475309 -41.815313 
L 648.431 -41.815313 
L 651.386691 -41.815313 
L 654.342382 -41.815313 
L 657.298073 -41.815313 
L 660.253764 -41.815313 
L 663.209455 -41.815313 
L 666.165146 -41.815313 
L 669.120836 -41.815313 
L 672.076527 -41.815313 
L 675.032218 -41.815313 
L 677.987909 -41.815313 
L 680.9436 -41.815313 
L 683.899291 -41.815313 
L 686.854982 -41.815313 
L 689.810673 -41.815313 
L 692.766364 -41.815313 
L 695.722055 -41.815313 
L 698.677746 -41.815313 
L 701.633437 -41.815313 
L 704.589128 -41.815313 
L 707.544819 -41.815313 
L 710.50051 -41.815313 
L 713.456201 -41.815313 
L 716.411892 -41.815313 
L 719.367583 -41.815313 
L 722.323274 -41.815313 
L 725.278965 -41.815313 
L 728.234656 -41.815313 
L 731.190347 -41.815313 
L 734.146038 -41.815313 
L 734.146038 -58.590092 
L 734.146038 -58.590092 
L 731.190347 -59.333288 
L 728.234656 -60.090994 
L 725.278965 -60.863049 
L 722.323274 -61.649249 
L 719.367583 -62.449325 
L 716.411892 -63.262927 
L 713.456201 -64.089602 
L 710.50051 -64.92878 
L 707.544819 -65.779746 
L 704.589128 -66.641633 
L 701.633437 -67.513396 
L 698.677746 -68.393804 
L 695.722055 -69.281425 
L 692.766364 -70.174622 
L 689.810673 -71.071544 
L 686.854982 -71.970127 
L 683.899291 -72.868094 
L 680.9436 -73.762968 
L 677.987909 -74.652078 
L 675.032218 -75.532578 
L 672.076527 -76.401464 
L 669.120836 -77.255599 
L 666.165146 -78.091742 
L 663.209455 -78.906575 
L 660.253764 -79.696738 
L 657.298073 -80.458865 
L 654.342382 -81.189619 
L 651.386691 -81.885732 
L 648.431 -82.54404 
L 645.475309 -83.161527 
L 642.519618 -83.735357 
L 639.563927 -84.262911 
L 636.608236 -84.741822 
L 633.652545 -85.170007 
L 630.696854 -85.545692 
L 627.741163 -85.867438 
L 624.785472 -86.134163 
L 621.829781 -86.345154 
L 618.87409 -86.500085 
L 615.918399 -86.599016 
L 612.962708 -86.642402 
L 610.007017 -86.631085 
L 607.051326 -86.566289 
L 604.095635 -86.449608 
L 601.139945 -86.282987 
L 598.184254 -86.0687 
L 595.228563 -85.809327 
L 592.272872 -85.507724 
L 589.317181 -85.166989 
L 586.36149 -84.790428 
L 583.405799 -84.381519 
L 580.450108 -83.94387 
L 577.494417 -83.48118 
L 574.538726 -82.997197 
L 571.583035 -82.495678 
L 568.627344 -81.980351 
L 565.671653 -81.454869 
L 562.715962 -80.922778 
L 559.760271 -80.387484 
L 556.80458 -79.852214 
L 553.848889 -79.319993 
L 550.893198 -78.793618 
L 547.937507 -78.275635 
L 544.981816 -77.768326 
L 542.026125 -77.273697 
L 539.070434 -76.793468 
L 536.114744 -76.329078 
L 533.159053 -75.88168 
L 530.203362 -75.452153 
L 527.247671 -75.041117 
L 524.29198 -74.64894 
L 521.336289 -74.275768 
L 518.380598 -73.92154 
L 515.424907 -73.586018 
L 512.469216 -73.268814 
L 509.513525 -72.969417 
L 506.557834 -72.687223 
L 503.602143 -72.421569 
L 500.646452 -72.171756 
L 497.690761 -71.937084 
L 494.73507 -71.716872 
L 491.779379 -71.51049 
L 488.823688 -71.317372 
L 485.867997 -71.137043 
L 482.912306 -70.969129 
L 479.956615 -70.813372 
L 477.000924 -70.669636 
L 474.045233 -70.537911 
L 471.089543 -70.418316 
L 468.133852 -70.311095 
L 465.178161 -70.21661 
L 462.22247 -70.135329 
L 459.266779 -70.067821 
L 456.311088 -70.014734 
L 453.355397 -69.976782 
L 450.399706 -69.954725 
L 447.444015 -69.949353 
L 444.488324 -69.961461 
L 441.532633 -69.991835 
L 438.576942 -70.041228 
L 435.621251 -70.110342 
L 432.66556 -70.199814 
L 429.709869 -70.310194 
L 426.754178 -70.441935 
L 423.798487 -70.59538 
L 420.842796 -70.77075 
L 417.887105 -70.968138 
L 414.931414 -71.187501 
L 411.975723 -71.428661 
L 409.020032 -71.691301 
L 406.064342 -71.974965 
L 403.108651 -72.279067 
L 400.15296 -72.602889 
L 397.197269 -72.945593 
L 394.241578 -73.306228 
L 391.285887 -73.683738 
L 388.330196 -74.076973 
L 385.374505 -74.484698 
L 382.418814 -74.905609 
L 379.463123 -75.338333 
L 376.507432 -75.781451 
L 373.551741 -76.233497 
L 370.59605 -76.692974 
L 367.640359 -77.158355 
L 364.684668 -77.628099 
L 361.728977 -78.100646 
L 358.773286 -78.574428 
L 355.817595 -79.04787 
L 352.861904 -79.519391 
L 349.906213 -79.987404 
L 346.950522 -80.450316 
L 343.994831 -80.906529 
L 341.039141 -81.354431 
L 338.08345 -81.792401 
L 335.127759 -82.218801 
L 332.172068 -82.631977 
L 329.216377 -83.030251 
L 326.260686 -83.411927 
L 323.304995 -83.775284 
L 320.349304 -84.118578 
L 317.393613 -84.440048 
L 314.437922 -84.737912 
L 311.482231 -85.010379 
L 308.52654 -85.255651 
L 305.570849 -85.471937 
L 302.615158 -85.657458 
L 299.659467 -85.810464 
L 296.703776 -85.929249 
L 293.748085 -86.012161 
L 290.792394 -86.057626 
L 287.836703 -86.064163 
L 284.881012 -86.0304 
L 281.925321 -85.9551 
L 278.96963 -85.837173 
L 276.01394 -85.675698 
L 273.058249 -85.46994 
L 270.102558 -85.219366 
L 267.146867 -84.923659 
L 264.191176 -84.58273 
L 261.235485 -84.196727 
L 258.279794 -83.766047 
L 255.324103 -83.291333 
L 252.368412 -82.773479 
L 249.412721 -82.213627 
L 246.45703 -81.613163 
L 243.501339 -80.973704 
L 240.545648 -80.29709 
L 237.589957 -79.585367 
L 234.634266 -78.840769 
L 231.678575 -78.065701 
L 228.722884 -77.262711 
L 225.767193 -76.434472 
L 222.811502 -75.583752 
L 219.855811 -74.71339 
L 216.90012 -73.826269 
L 213.944429 -72.92529 
L 210.988739 -72.013344 
L 208.033048 -71.093289 
L 205.077357 -70.167924 
L 202.121666 -69.239969 
L 199.165975 -68.312042 
L 196.210284 -67.386643 
L 193.254593 -66.466139 
L 190.298902 -65.55275 
L 187.343211 -64.648536 
L 184.38752 -63.755395 
L 181.431829 -62.875055 
L 178.476138 -62.00907 
L 175.520447 -61.158826 
L 172.564756 -60.325535 
L 169.609065 -59.51025 
L 166.653374 -58.713862 
L 163.697683 -57.937113 
L 160.741992 -57.180607 
L 157.786301 -56.444815 
L 154.83061 -55.73009 
L 151.874919 -55.036677 
L 148.919228 -54.364724 
L 145.963538 -53.714297 
z
" style="stroke: #f89540"/>
    </defs>
    <g clip-path="url(#paae31b41fa)">
     <use xlink:href="#meecbed317b" x="0" y="212.255313" style="fill: #f89540; fill-opacity: 0.5; stroke: #f89540"/>
    </g>
   </g>
   <g id="matplotlib.axis_5">
    <g id="xtick_13">
     <g id="line2d_17">
      <g>
       <use xlink:href="#mbbf6238cb1" x="145.963538" y="170.44" style="stroke: #000000; stroke-width: 0.8"/>
      </g>
     </g>
     <g id="text_3">
      <!-- 0 -->
      <g transform="translate(142.963538 185.7725) scale(0.12 -0.12)">
       <defs>
        <path id="TimesNewRomanPSMT-30" d="M 231 2094 
Q 231 2819 450 3342 
Q 669 3866 1031 4122 
Q 1313 4325 1613 4325 
Q 2100 4325 2488 3828 
Q 2972 3213 2972 2159 
Q 2972 1422 2759 906 
Q 2547 391 2217 158 
Q 1888 -75 1581 -75 
Q 975 -75 572 641 
Q 231 1244 231 2094 
z
M 844 2016 
Q 844 1141 1059 588 
Q 1238 122 1591 122 
Q 1759 122 1940 273 
Q 2122 425 2216 781 
Q 2359 1319 2359 2297 
Q 2359 3022 2209 3506 
Q 2097 3866 1919 4016 
Q 1791 4119 1609 4119 
Q 1397 4119 1231 3928 
Q 1006 3669 925 3112 
Q 844 2556 844 2016 
z
" transform="scale(0.015625)"/>
       </defs>
       <use xlink:href="#TimesNewRomanPSMT-30"/>
      </g>
     </g>
    </g>
    <g id="xtick_14">
     <g id="line2d_18">
      <g>
       <use xlink:href="#mbbf6238cb1" x="263.600037" y="170.44" style="stroke: #000000; stroke-width: 0.8"/>
      </g>
     </g>
     <g id="text_4">
      <!-- 20 -->
      <g transform="translate(257.600037 185.7725) scale(0.12 -0.12)">
       <defs>
        <path id="TimesNewRomanPSMT-32" d="M 2934 816 
L 2638 0 
L 138 0 
L 138 116 
Q 1241 1122 1691 1759 
Q 2141 2397 2141 2925 
Q 2141 3328 1894 3587 
Q 1647 3847 1303 3847 
Q 991 3847 742 3664 
Q 494 3481 375 3128 
L 259 3128 
Q 338 3706 661 4015 
Q 984 4325 1469 4325 
Q 1984 4325 2329 3994 
Q 2675 3663 2675 3213 
Q 2675 2891 2525 2569 
Q 2294 2063 1775 1497 
Q 997 647 803 472 
L 1909 472 
Q 2247 472 2383 497 
Q 2519 522 2628 598 
Q 2738 675 2819 816 
L 2934 816 
z
" transform="scale(0.015625)"/>
       </defs>
       <use xlink:href="#TimesNewRomanPSMT-32"/>
       <use xlink:href="#TimesNewRomanPSMT-30" transform="translate(50 0)"/>
      </g>
     </g>
    </g>
    <g id="xtick_15">
     <g id="line2d_19">
      <g>
       <use xlink:href="#mbbf6238cb1" x="381.236537" y="170.44" style="stroke: #000000; stroke-width: 0.8"/>
      </g>
     </g>
     <g id="text_5">
      <!-- 40 -->
      <g transform="translate(375.236537 185.7725) scale(0.12 -0.12)">
       <defs>
        <path id="TimesNewRomanPSMT-34" d="M 2978 1563 
L 2978 1119 
L 2409 1119 
L 2409 0 
L 1894 0 
L 1894 1119 
L 100 1119 
L 100 1519 
L 2066 4325 
L 2409 4325 
L 2409 1563 
L 2978 1563 
z
M 1894 1563 
L 1894 3666 
L 406 1563 
L 1894 1563 
z
" transform="scale(0.015625)"/>
       </defs>
       <use xlink:href="#TimesNewRomanPSMT-34"/>
       <use xlink:href="#TimesNewRomanPSMT-30" transform="translate(50 0)"/>
      </g>
     </g>
    </g>
    <g id="xtick_16">
     <g id="line2d_20">
      <g>
       <use xlink:href="#mbbf6238cb1" x="498.873038" y="170.44" style="stroke: #000000; stroke-width: 0.8"/>
      </g>
     </g>
     <g id="text_6">
      <!-- 60 -->
      <g transform="translate(492.873038 185.7725) scale(0.12 -0.12)">
       <defs>
        <path id="TimesNewRomanPSMT-36" d="M 2869 4325 
L 2869 4209 
Q 2456 4169 2195 4045 
Q 1934 3922 1679 3669 
Q 1425 3416 1258 3105 
Q 1091 2794 978 2366 
Q 1428 2675 1881 2675 
Q 2316 2675 2634 2325 
Q 2953 1975 2953 1425 
Q 2953 894 2631 456 
Q 2244 -75 1606 -75 
Q 1172 -75 869 213 
Q 275 772 275 1663 
Q 275 2231 503 2743 
Q 731 3256 1154 3653 
Q 1578 4050 1965 4187 
Q 2353 4325 2688 4325 
L 2869 4325 
z
M 925 2138 
Q 869 1716 869 1456 
Q 869 1156 980 804 
Q 1091 453 1309 247 
Q 1469 100 1697 100 
Q 1969 100 2183 356 
Q 2397 613 2397 1088 
Q 2397 1622 2184 2012 
Q 1972 2403 1581 2403 
Q 1463 2403 1327 2353 
Q 1191 2303 925 2138 
z
" transform="scale(0.015625)"/>
       </defs>
       <use xlink:href="#TimesNewRomanPSMT-36"/>
       <use xlink:href="#TimesNewRomanPSMT-30" transform="translate(50 0)"/>
      </g>
     </g>
    </g>
    <g id="xtick_17">
     <g id="line2d_21">
      <g>
       <use xlink:href="#mbbf6238cb1" x="616.509537" y="170.44" style="stroke: #000000; stroke-width: 0.8"/>
      </g>
     </g>
     <g id="text_7">
      <!-- 80 -->
      <g transform="translate(610.509537 185.7725) scale(0.12 -0.12)">
       <defs>
        <path id="TimesNewRomanPSMT-38" d="M 1228 2134 
Q 725 2547 579 2797 
Q 434 3047 434 3316 
Q 434 3728 753 4026 
Q 1072 4325 1600 4325 
Q 2113 4325 2425 4047 
Q 2738 3769 2738 3413 
Q 2738 3175 2569 2928 
Q 2400 2681 1866 2347 
Q 2416 1922 2594 1678 
Q 2831 1359 2831 1006 
Q 2831 559 2490 242 
Q 2150 -75 1597 -75 
Q 994 -75 656 303 
Q 388 606 388 966 
Q 388 1247 577 1523 
Q 766 1800 1228 2134 
z
M 1719 2469 
Q 2094 2806 2194 3001 
Q 2294 3197 2294 3444 
Q 2294 3772 2109 3958 
Q 1925 4144 1606 4144 
Q 1288 4144 1088 3959 
Q 888 3775 888 3528 
Q 888 3366 970 3203 
Q 1053 3041 1206 2894 
L 1719 2469 
z
M 1375 2016 
Q 1116 1797 991 1539 
Q 866 1281 866 981 
Q 866 578 1086 336 
Q 1306 94 1647 94 
Q 1984 94 2187 284 
Q 2391 475 2391 747 
Q 2391 972 2272 1150 
Q 2050 1481 1375 2016 
z
" transform="scale(0.015625)"/>
       </defs>
       <use xlink:href="#TimesNewRomanPSMT-38"/>
       <use xlink:href="#TimesNewRomanPSMT-30" transform="translate(50 0)"/>
      </g>
     </g>
    </g>
    <g id="xtick_18">
     <g id="line2d_22">
      <g>
       <use xlink:href="#mbbf6238cb1" x="734.146038" y="170.44" style="stroke: #000000; stroke-width: 0.8"/>
      </g>
     </g>
     <g id="text_8">
      <!-- 100 -->
      <g transform="translate(725.146038 185.7725) scale(0.12 -0.12)">
       <defs>
        <path id="TimesNewRomanPSMT-31" d="M 750 3822 
L 1781 4325 
L 1884 4325 
L 1884 747 
Q 1884 391 1914 303 
Q 1944 216 2037 169 
Q 2131 122 2419 116 
L 2419 0 
L 825 0 
L 825 116 
Q 1125 122 1212 167 
Q 1300 213 1334 289 
Q 1369 366 1369 747 
L 1369 3034 
Q 1369 3497 1338 3628 
Q 1316 3728 1258 3775 
Q 1200 3822 1119 3822 
Q 1003 3822 797 3725 
L 750 3822 
z
" transform="scale(0.015625)"/>
       </defs>
       <use xlink:href="#TimesNewRomanPSMT-31"/>
       <use xlink:href="#TimesNewRomanPSMT-30" transform="translate(50 0)"/>
       <use xlink:href="#TimesNewRomanPSMT-30" transform="translate(100 0)"/>
      </g>
     </g>
    </g>
    <g id="text_9">
     <!-- Value -->
     <g transform="translate(424.11885 202.060625) scale(0.14 -0.14)">
      <defs>
       <path id="TimesNewRomanPSMT-56" d="M 4544 4238 
L 4544 4122 
Q 4319 4081 4203 3978 
Q 4038 3825 3909 3509 
L 2431 -97 
L 2316 -97 
L 728 3556 
Q 606 3838 556 3900 
Q 478 3997 364 4051 
Q 250 4106 56 4122 
L 56 4238 
L 1788 4238 
L 1788 4122 
Q 1494 4094 1406 4022 
Q 1319 3950 1319 3838 
Q 1319 3681 1463 3350 
L 2541 866 
L 3541 3319 
Q 3688 3681 3688 3822 
Q 3688 3913 3597 3995 
Q 3506 4078 3291 4113 
Q 3275 4116 3238 4122 
L 3238 4238 
L 4544 4238 
z
" transform="scale(0.015625)"/>
       <path id="TimesNewRomanPSMT-75" d="M 2709 2863 
L 2709 1128 
Q 2709 631 2732 520 
Q 2756 409 2807 365 
Q 2859 322 2928 322 
Q 3025 322 3147 375 
L 3191 266 
L 2334 -88 
L 2194 -88 
L 2194 519 
Q 1825 119 1631 15 
Q 1438 -88 1222 -88 
Q 981 -88 804 51 
Q 628 191 559 409 
Q 491 628 491 1028 
L 491 2306 
Q 491 2509 447 2587 
Q 403 2666 317 2708 
Q 231 2750 6 2747 
L 6 2863 
L 1009 2863 
L 1009 947 
Q 1009 547 1148 422 
Q 1288 297 1484 297 
Q 1619 297 1789 381 
Q 1959 466 2194 703 
L 2194 2325 
Q 2194 2569 2105 2655 
Q 2016 2741 1734 2747 
L 1734 2863 
L 2709 2863 
z
" transform="scale(0.015625)"/>
      </defs>
      <use xlink:href="#TimesNewRomanPSMT-56"/>
      <use xlink:href="#TimesNewRomanPSMT-61" transform="translate(61.091797 0)"/>
      <use xlink:href="#TimesNewRomanPSMT-6c" transform="translate(105.476562 0)"/>
      <use xlink:href="#TimesNewRomanPSMT-75" transform="translate(133.259766 0)"/>
      <use xlink:href="#TimesNewRomanPSMT-65" transform="translate(183.259766 0)"/>
     </g>
    </g>
   </g>
   <g id="matplotlib.axis_6"/>
   <g id="line2d_23">
    <path d="M 145.963538 158.541016 
L 154.83061 156.525223 
L 163.697683 154.318199 
L 175.520447 151.096487 
L 187.343211 147.606777 
L 208.033048 141.162023 
L 222.811502 136.671561 
L 231.678575 134.189612 
L 240.545648 131.958223 
L 249.412721 130.041685 
L 255.324103 128.96398 
L 261.235485 128.058585 
L 267.146867 127.331653 
L 273.058249 126.785372 
L 278.96963 126.41814 
L 284.881012 126.224912 
L 290.792394 126.197686 
L 299.659467 126.444848 
L 308.52654 126.999661 
L 317.393613 127.815265 
L 326.260686 128.843386 
L 338.08345 130.462911 
L 352.861904 132.735922 
L 382.418814 137.349704 
L 394.241578 138.949085 
L 406.064342 140.280347 
L 414.931414 141.067811 
L 423.798487 141.659932 
L 432.66556 142.055499 
L 441.532633 142.263477 
L 453.355397 142.278531 
L 465.178161 142.038703 
L 477.000924 141.585677 
L 488.823688 140.937941 
L 500.646452 140.083556 
L 512.469216 138.986498 
L 524.29198 137.606372 
L 536.114744 135.926234 
L 547.937507 133.979678 
L 583.405799 127.873793 
L 592.272872 126.747588 
L 598.184254 126.186612 
L 604.095635 125.805704 
L 610.007017 125.624228 
L 615.918399 125.656297 
L 621.829781 125.910158 
L 627.741163 126.387875 
L 633.652545 127.085306 
L 639.563927 127.992402 
L 645.475309 129.093785 
L 651.386691 130.369581 
L 660.253764 132.558575 
L 669.120836 134.999714 
L 680.9436 138.492344 
L 710.50051 147.326533 
L 722.323274 150.606063 
L 734.146038 153.66522 
L 734.146038 153.66522 
" clip-path="url(#paae31b41fa)" style="fill: none; stroke: #ffffff; stroke-width: 2; stroke-linecap: square"/>
   </g>
   <g id="line2d_24">
    <path d="M 145.963538 170.44 
L 734.146038 170.44 
" style="fill: none; stroke: #000000; stroke-linecap: square"/>
   </g>
   <g id="text_10">
    <g id="patch_7">
     <path d="M 3.24 179.860938 
L 88.164375 179.860938 
L 88.164375 161.019062 
L 3.24 161.019062 
z
" style="fill: #ffffff; opacity: 0.5"/>
    </g>
    <!-- Hybrid Systems -->
    <g transform="translate(7.2 173.311562) scale(0.12 -0.12)">
     <defs>
      <path id="TimesNewRomanPSMT-62" d="M 984 2369 
Q 1400 2947 1881 2947 
Q 2322 2947 2650 2570 
Q 2978 2194 2978 1541 
Q 2978 778 2472 313 
Q 2038 -88 1503 -88 
Q 1253 -88 995 3 
Q 738 94 469 275 
L 469 3241 
Q 469 3728 445 3840 
Q 422 3953 372 3993 
Q 322 4034 247 4034 
Q 159 4034 28 3984 
L -16 4094 
L 844 4444 
L 984 4444 
L 984 2369 
z
M 984 2169 
L 984 456 
Q 1144 300 1314 220 
Q 1484 141 1663 141 
Q 1947 141 2192 453 
Q 2438 766 2438 1363 
Q 2438 1913 2192 2208 
Q 1947 2503 1634 2503 
Q 1469 2503 1303 2419 
Q 1178 2356 984 2169 
z
" transform="scale(0.015625)"/>
      <path id="TimesNewRomanPSMT-20" transform="scale(0.015625)"/>
      <path id="TimesNewRomanPSMT-53" d="M 2934 4334 
L 2934 2869 
L 2819 2869 
Q 2763 3291 2617 3541 
Q 2472 3791 2203 3937 
Q 1934 4084 1647 4084 
Q 1322 4084 1109 3886 
Q 897 3688 897 3434 
Q 897 3241 1031 3081 
Q 1225 2847 1953 2456 
Q 2547 2138 2764 1967 
Q 2981 1797 3098 1565 
Q 3216 1334 3216 1081 
Q 3216 600 2842 251 
Q 2469 -97 1881 -97 
Q 1697 -97 1534 -69 
Q 1438 -53 1133 45 
Q 828 144 747 144 
Q 669 144 623 97 
Q 578 50 556 -97 
L 441 -97 
L 441 1356 
L 556 1356 
Q 638 900 775 673 
Q 913 447 1195 297 
Q 1478 147 1816 147 
Q 2206 147 2432 353 
Q 2659 559 2659 841 
Q 2659 997 2573 1156 
Q 2488 1316 2306 1453 
Q 2184 1547 1640 1851 
Q 1097 2156 867 2337 
Q 638 2519 519 2737 
Q 400 2956 400 3219 
Q 400 3675 750 4004 
Q 1100 4334 1641 4334 
Q 1978 4334 2356 4169 
Q 2531 4091 2603 4091 
Q 2684 4091 2736 4139 
Q 2788 4188 2819 4334 
L 2934 4334 
z
" transform="scale(0.015625)"/>
     </defs>
     <use xlink:href="#TimesNewRomanPSMT-48"/>
     <use xlink:href="#TimesNewRomanPSMT-79" transform="translate(72.216797 0)"/>
     <use xlink:href="#TimesNewRomanPSMT-62" transform="translate(122.216797 0)"/>
     <use xlink:href="#TimesNewRomanPSMT-72" transform="translate(172.216797 0)"/>
     <use xlink:href="#TimesNewRomanPSMT-69" transform="translate(205.517578 0)"/>
     <use xlink:href="#TimesNewRomanPSMT-64" transform="translate(233.300781 0)"/>
     <use xlink:href="#TimesNewRomanPSMT-20" transform="translate(283.300781 0)"/>
     <use xlink:href="#TimesNewRomanPSMT-53" transform="translate(308.300781 0)"/>
     <use xlink:href="#TimesNewRomanPSMT-79" transform="translate(363.916016 0)"/>
     <use xlink:href="#TimesNewRomanPSMT-73" transform="translate(413.916016 0)"/>
     <use xlink:href="#TimesNewRomanPSMT-74" transform="translate(452.832031 0)"/>
     <use xlink:href="#TimesNewRomanPSMT-65" transform="translate(480.615234 0)"/>
     <use xlink:href="#TimesNewRomanPSMT-6d" transform="translate(525 0)"/>
     <use xlink:href="#TimesNewRomanPSMT-73" transform="translate(602.783203 0)"/>
    </g>
   </g>
  </g>
  <g id="text_11">
   <!-- Renewable Energy Share(%) -->
   <g transform="translate(292.237287 18.31) scale(0.16 -0.16)">
    <defs>
     <path id="TimesNewRomanPSMT-52" d="M 4325 0 
L 3194 0 
L 1759 1981 
Q 1600 1975 1500 1975 
Q 1459 1975 1412 1976 
Q 1366 1978 1316 1981 
L 1316 750 
Q 1316 350 1403 253 
Q 1522 116 1759 116 
L 1925 116 
L 1925 0 
L 109 0 
L 109 116 
L 269 116 
Q 538 116 653 291 
Q 719 388 719 750 
L 719 3488 
Q 719 3888 631 3984 
Q 509 4122 269 4122 
L 109 4122 
L 109 4238 
L 1653 4238 
Q 2328 4238 2648 4139 
Q 2969 4041 3192 3777 
Q 3416 3513 3416 3147 
Q 3416 2756 3161 2468 
Q 2906 2181 2372 2063 
L 3247 847 
Q 3547 428 3762 290 
Q 3978 153 4325 116 
L 4325 0 
z
M 1316 2178 
Q 1375 2178 1419 2176 
Q 1463 2175 1491 2175 
Q 2097 2175 2405 2437 
Q 2713 2700 2713 3106 
Q 2713 3503 2464 3751 
Q 2216 4000 1806 4000 
Q 1625 4000 1316 3941 
L 1316 2178 
z
" transform="scale(0.015625)"/>
     <path id="TimesNewRomanPSMT-6e" d="M 1034 2341 
Q 1538 2947 1994 2947 
Q 2228 2947 2397 2830 
Q 2566 2713 2666 2444 
Q 2734 2256 2734 1869 
L 2734 647 
Q 2734 375 2778 278 
Q 2813 200 2889 156 
Q 2966 113 3172 113 
L 3172 0 
L 1756 0 
L 1756 113 
L 1816 113 
Q 2016 113 2095 173 
Q 2175 234 2206 353 
Q 2219 400 2219 647 
L 2219 1819 
Q 2219 2209 2117 2386 
Q 2016 2563 1775 2563 
Q 1403 2563 1034 2156 
L 1034 647 
Q 1034 356 1069 288 
Q 1113 197 1189 155 
Q 1266 113 1500 113 
L 1500 0 
L 84 0 
L 84 113 
L 147 113 
Q 366 113 442 223 
Q 519 334 519 647 
L 519 1709 
Q 519 2225 495 2337 
Q 472 2450 423 2490 
Q 375 2531 294 2531 
Q 206 2531 84 2484 
L 38 2597 
L 900 2947 
L 1034 2947 
L 1034 2341 
z
" transform="scale(0.015625)"/>
     <path id="TimesNewRomanPSMT-77" d="M 41 2863 
L 1241 2863 
L 1241 2747 
Q 1075 2734 1023 2687 
Q 972 2641 972 2553 
Q 972 2456 1025 2319 
L 1638 672 
L 2253 2013 
L 2091 2434 
Q 2016 2622 1894 2694 
Q 1825 2738 1638 2747 
L 1638 2863 
L 3000 2863 
L 3000 2747 
Q 2775 2738 2681 2666 
Q 2619 2616 2619 2506 
Q 2619 2444 2644 2378 
L 3294 734 
L 3897 2319 
Q 3959 2488 3959 2588 
Q 3959 2647 3898 2694 
Q 3838 2741 3659 2747 
L 3659 2863 
L 4563 2863 
L 4563 2747 
Q 4291 2706 4163 2378 
L 3206 -88 
L 3078 -88 
L 2363 1741 
L 1528 -88 
L 1413 -88 
L 494 2319 
Q 403 2547 315 2626 
Q 228 2706 41 2747 
L 41 2863 
z
" transform="scale(0.015625)"/>
     <path id="TimesNewRomanPSMT-45" d="M 1338 4006 
L 1338 2331 
L 2269 2331 
Q 2631 2331 2753 2441 
Q 2916 2584 2934 2947 
L 3050 2947 
L 3050 1472 
L 2934 1472 
Q 2891 1781 2847 1869 
Q 2791 1978 2662 2040 
Q 2534 2103 2269 2103 
L 1338 2103 
L 1338 706 
Q 1338 425 1363 364 
Q 1388 303 1450 267 
Q 1513 231 1688 231 
L 2406 231 
Q 2766 231 2928 281 
Q 3091 331 3241 478 
Q 3434 672 3638 1063 
L 3763 1063 
L 3397 0 
L 131 0 
L 131 116 
L 281 116 
Q 431 116 566 188 
Q 666 238 702 338 
Q 738 438 738 747 
L 738 3500 
Q 738 3903 656 3997 
Q 544 4122 281 4122 
L 131 4122 
L 131 4238 
L 3397 4238 
L 3444 3309 
L 3322 3309 
Q 3256 3644 3176 3769 
Q 3097 3894 2941 3959 
Q 2816 4006 2500 4006 
L 1338 4006 
z
" transform="scale(0.015625)"/>
     <path id="TimesNewRomanPSMT-67" d="M 966 1044 
Q 703 1172 562 1401 
Q 422 1631 422 1909 
Q 422 2334 742 2640 
Q 1063 2947 1563 2947 
Q 1972 2947 2272 2747 
L 2878 2747 
Q 3013 2747 3034 2739 
Q 3056 2731 3066 2713 
Q 3084 2684 3084 2613 
Q 3084 2531 3069 2500 
Q 3059 2484 3036 2475 
Q 3013 2466 2878 2466 
L 2506 2466 
Q 2681 2241 2681 1891 
Q 2681 1491 2375 1206 
Q 2069 922 1553 922 
Q 1341 922 1119 984 
Q 981 866 932 777 
Q 884 688 884 625 
Q 884 572 936 522 
Q 988 472 1138 450 
Q 1225 438 1575 428 
Q 2219 413 2409 384 
Q 2700 344 2873 169 
Q 3047 -6 3047 -263 
Q 3047 -616 2716 -925 
Q 2228 -1381 1444 -1381 
Q 841 -1381 425 -1109 
Q 191 -953 191 -784 
Q 191 -709 225 -634 
Q 278 -519 444 -313 
Q 466 -284 763 25 
Q 600 122 533 198 
Q 466 275 466 372 
Q 466 481 555 628 
Q 644 775 966 1044 
z
M 1509 2797 
Q 1278 2797 1122 2612 
Q 966 2428 966 2047 
Q 966 1553 1178 1281 
Q 1341 1075 1591 1075 
Q 1828 1075 1981 1253 
Q 2134 1431 2134 1813 
Q 2134 2309 1919 2591 
Q 1759 2797 1509 2797 
z
M 934 0 
Q 788 -159 713 -296 
Q 638 -434 638 -550 
Q 638 -700 819 -813 
Q 1131 -1006 1722 -1006 
Q 2284 -1006 2551 -807 
Q 2819 -609 2819 -384 
Q 2819 -222 2659 -153 
Q 2497 -84 2016 -72 
Q 1313 -53 934 0 
z
" transform="scale(0.015625)"/>
     <path id="TimesNewRomanPSMT-68" d="M 1041 4444 
L 1041 2350 
Q 1388 2731 1591 2839 
Q 1794 2947 1997 2947 
Q 2241 2947 2416 2812 
Q 2591 2678 2675 2391 
Q 2734 2191 2734 1659 
L 2734 647 
Q 2734 375 2778 275 
Q 2809 200 2884 156 
Q 2959 113 3159 113 
L 3159 0 
L 1753 0 
L 1753 113 
L 1819 113 
Q 2019 113 2097 173 
Q 2175 234 2206 353 
Q 2216 403 2216 647 
L 2216 1659 
Q 2216 2128 2167 2275 
Q 2119 2422 2012 2495 
Q 1906 2569 1756 2569 
Q 1603 2569 1437 2487 
Q 1272 2406 1041 2159 
L 1041 647 
Q 1041 353 1073 281 
Q 1106 209 1195 161 
Q 1284 113 1503 113 
L 1503 0 
L 84 0 
L 84 113 
Q 275 113 384 172 
Q 447 203 484 290 
Q 522 378 522 647 
L 522 3238 
Q 522 3728 498 3840 
Q 475 3953 426 3993 
Q 378 4034 297 4034 
Q 231 4034 84 3984 
L 41 4094 
L 897 4444 
L 1041 4444 
z
" transform="scale(0.015625)"/>
     <path id="TimesNewRomanPSMT-28" d="M 1988 -1253 
L 1988 -1369 
Q 1516 -1131 1200 -813 
Q 750 -359 506 256 
Q 263 872 263 1534 
Q 263 2503 741 3301 
Q 1219 4100 1988 4444 
L 1988 4313 
Q 1603 4100 1356 3731 
Q 1109 3363 987 2797 
Q 866 2231 866 1616 
Q 866 947 969 400 
Q 1050 -31 1165 -292 
Q 1281 -553 1476 -793 
Q 1672 -1034 1988 -1253 
z
" transform="scale(0.015625)"/>
     <path id="TimesNewRomanPSMT-25" d="M 4350 4334 
L 1263 -175 
L 984 -175 
L 4072 4334 
L 4350 4334 
z
M 1138 4334 
Q 1559 4334 1792 3984 
Q 2025 3634 2025 3181 
Q 2025 2638 1762 2341 
Q 1500 2044 1131 2044 
Q 884 2044 678 2180 
Q 472 2316 348 2584 
Q 225 2853 225 3181 
Q 225 3509 350 3786 
Q 475 4063 692 4198 
Q 909 4334 1138 4334 
z
M 1128 4159 
Q 969 4159 845 3971 
Q 722 3784 722 3184 
Q 722 2750 791 2522 
Q 844 2350 956 2256 
Q 1022 2200 1119 2200 
Q 1269 2200 1375 2363 
Q 1531 2603 1531 3166 
Q 1531 3759 1378 4000 
Q 1278 4159 1128 4159 
z
M 4206 2103 
Q 4428 2103 4648 1962 
Q 4869 1822 4989 1553 
Q 5109 1284 5109 963 
Q 5109 409 4843 117 
Q 4578 -175 4216 -175 
Q 3988 -175 3773 -34 
Q 3559 106 3436 367 
Q 3313 628 3313 963 
Q 3313 1291 3436 1562 
Q 3559 1834 3773 1968 
Q 3988 2103 4206 2103 
z
M 4209 1938 
Q 4059 1938 3950 1769 
Q 3809 1550 3809 941 
Q 3809 381 3953 159 
Q 4059 0 4209 0 
Q 4353 0 4466 172 
Q 4616 400 4616 956 
Q 4616 1544 4466 1778 
Q 4363 1938 4209 1938 
z
" transform="scale(0.015625)"/>
     <path id="TimesNewRomanPSMT-29" d="M 144 4313 
L 144 4444 
Q 619 4209 934 3891 
Q 1381 3434 1625 2820 
Q 1869 2206 1869 1541 
Q 1869 572 1392 -226 
Q 916 -1025 144 -1369 
L 144 -1253 
Q 528 -1038 776 -670 
Q 1025 -303 1145 264 
Q 1266 831 1266 1447 
Q 1266 2113 1163 2663 
Q 1084 3094 967 3353 
Q 850 3613 656 3853 
Q 463 4094 144 4313 
z
" transform="scale(0.015625)"/>
    </defs>
    <use xlink:href="#TimesNewRomanPSMT-52"/>
    <use xlink:href="#TimesNewRomanPSMT-65" transform="translate(66.699219 0)"/>
    <use xlink:href="#TimesNewRomanPSMT-6e" transform="translate(111.083984 0)"/>
    <use xlink:href="#TimesNewRomanPSMT-65" transform="translate(161.083984 0)"/>
    <use xlink:href="#TimesNewRomanPSMT-77" transform="translate(205.46875 0)"/>
    <use xlink:href="#TimesNewRomanPSMT-61" transform="translate(277.685547 0)"/>
    <use xlink:href="#TimesNewRomanPSMT-62" transform="translate(322.070312 0)"/>
    <use xlink:href="#TimesNewRomanPSMT-6c" transform="translate(372.070312 0)"/>
    <use xlink:href="#TimesNewRomanPSMT-65" transform="translate(399.853516 0)"/>
    <use xlink:href="#TimesNewRomanPSMT-20" transform="translate(444.238281 0)"/>
    <use xlink:href="#TimesNewRomanPSMT-45" transform="translate(469.238281 0)"/>
    <use xlink:href="#TimesNewRomanPSMT-6e" transform="translate(530.322266 0)"/>
    <use xlink:href="#TimesNewRomanPSMT-65" transform="translate(580.322266 0)"/>
    <use xlink:href="#TimesNewRomanPSMT-72" transform="translate(624.707031 0)"/>
    <use xlink:href="#TimesNewRomanPSMT-67" transform="translate(656.257812 0)"/>
    <use xlink:href="#TimesNewRomanPSMT-79" transform="translate(706.257812 0)"/>
    <use xlink:href="#TimesNewRomanPSMT-20" transform="translate(756.257812 0)"/>
    <use xlink:href="#TimesNewRomanPSMT-53" transform="translate(781.257812 0)"/>
    <use xlink:href="#TimesNewRomanPSMT-68" transform="translate(836.873047 0)"/>
    <use xlink:href="#TimesNewRomanPSMT-61" transform="translate(886.873047 0)"/>
    <use xlink:href="#TimesNewRomanPSMT-72" transform="translate(931.257812 0)"/>
    <use xlink:href="#TimesNewRomanPSMT-65" transform="translate(964.558594 0)"/>
    <use xlink:href="#TimesNewRomanPSMT-28" transform="translate(1008.943359 0)"/>
    <use xlink:href="#TimesNewRomanPSMT-25" transform="translate(1042.244141 0)"/>
    <use xlink:href="#TimesNewRomanPSMT-29" transform="translate(1125.544922 0)"/>
   </g>
  </g>
 </g>
 <defs>
  <clipPath id="pbe8f268c00">
   <rect x="145.963538" y="21.12" width="588.1825" height="74.66"/>
  </clipPath>
  <clipPath id="p2bb8bd2b02">
   <rect x="145.963538" y="58.45" width="588.1825" height="74.66"/>
  </clipPath>
  <clipPath id="paae31b41fa">
   <rect x="145.963538" y="95.78" width="588.1825" height="74.66"/>
  </clipPath>
 </defs>
</svg>
