<?xml version="1.0" encoding="utf-8" standalone="no"?>
<!DOCTYPE svg PUBLIC "-//W3C//DTD SVG 1.1//EN"
  "http://www.w3.org/Graphics/SVG/1.1/DTD/svg11.dtd">
<svg xmlns:xlink="http://www.w3.org/1999/xlink" width="752.660012pt" height="280.655312pt" viewBox="0 0 752.660012 280.655312" xmlns="http://www.w3.org/2000/svg" version="1.1">
 <metadata>
  <rdf:RDF xmlns:dc="http://purl.org/dc/elements/1.1/" xmlns:cc="http://creativecommons.org/ns#" xmlns:rdf="http://www.w3.org/1999/02/22-rdf-syntax-ns#">
   <cc:Work>
    <dc:type rdf:resource="http://purl.org/dc/dcmitype/StillImage"/>
    <dc:date>2025-05-27T02:00:45.518893</dc:date>
    <dc:format>image/svg+xml</dc:format>
    <dc:creator>
     <cc:Agent>
      <dc:title>Matplotlib v3.10.1, https://matplotlib.org/</dc:title>
     </cc:Agent>
    </dc:creator>
   </cc:Work>
  </rdf:RDF>
 </metadata>
 <defs>
  <style type="text/css">*{stroke-linejoin: round; stroke-linecap: butt}</style>
 </defs>
 <g id="figure_1">
  <g id="patch_1">
   <path d="M 0 280.655312 
L 752.660012 280.655312 
L 752.660012 0 
L 0 0 
z
" style="fill: #ffffff"/>
  </g>
  <g id="axes_1">
   <g id="patch_2">
    <path d="M 127.757513 106.048 
L 736.460013 106.048 
L 736.460013 17.52 
L 127.757513 17.52 
L 127.757513 106.048 
z
" style="fill: none; opacity: 0"/>
   </g>
   <g id="FillBetweenPolyCollection_1">
    <defs>
     <path id="m68c27a8475" d="M 127.757513 -200.645795 
L 127.757513 -174.607312 
L 130.816319 -174.607312 
L 133.875126 -174.607312 
L 136.933932 -174.607312 
L 139.992739 -174.607312 
L 143.051545 -174.607312 
L 146.110352 -174.607312 
L 149.169158 -174.607312 
L 152.227965 -174.607312 
L 155.286771 -174.607312 
L 158.345578 -174.607312 
L 161.404384 -174.607312 
L 164.463191 -174.607312 
L 167.521997 -174.607312 
L 170.580804 -174.607312 
L 173.63961 -174.607312 
L 176.698417 -174.607312 
L 179.757224 -174.607312 
L 182.81603 -174.607312 
L 185.874837 -174.607312 
L 188.933643 -174.607312 
L 191.99245 -174.607312 
L 195.051256 -174.607312 
L 198.110063 -174.607312 
L 201.168869 -174.607312 
L 204.227676 -174.607312 
L 207.286482 -174.607312 
L 210.345289 -174.607312 
L 213.404095 -174.607312 
L 216.462902 -174.607312 
L 219.521708 -174.607312 
L 222.580515 -174.607312 
L 225.639322 -174.607312 
L 228.698128 -174.607312 
L 231.756935 -174.607312 
L 234.815741 -174.607312 
L 237.874548 -174.607312 
L 240.933354 -174.607312 
L 243.992161 -174.607312 
L 247.050967 -174.607312 
L 250.109774 -174.607312 
L 253.16858 -174.607312 
L 256.227387 -174.607312 
L 259.286193 -174.607312 
L 262.345 -174.607312 
L 265.403806 -174.607312 
L 268.462613 -174.607312 
L 271.52142 -174.607312 
L 274.580226 -174.607312 
L 277.639033 -174.607312 
L 280.697839 -174.607312 
L 283.756646 -174.607312 
L 286.815452 -174.607312 
L 289.874259 -174.607312 
L 292.933065 -174.607312 
L 295.991872 -174.607312 
L 299.050678 -174.607312 
L 302.109485 -174.607312 
L 305.168291 -174.607312 
L 308.227098 -174.607312 
L 311.285904 -174.607312 
L 314.344711 -174.607312 
L 317.403518 -174.607312 
L 320.462324 -174.607312 
L 323.521131 -174.607312 
L 326.579937 -174.607312 
L 329.638744 -174.607312 
L 332.69755 -174.607312 
L 335.756357 -174.607312 
L 338.815163 -174.607312 
L 341.87397 -174.607312 
L 344.932776 -174.607312 
L 347.991583 -174.607312 
L 351.050389 -174.607312 
L 354.109196 -174.607312 
L 357.168002 -174.607312 
L 360.226809 -174.607312 
L 363.285616 -174.607312 
L 366.344422 -174.607312 
L 369.403229 -174.607312 
L 372.462035 -174.607312 
L 375.520842 -174.607312 
L 378.579648 -174.607312 
L 381.638455 -174.607312 
L 384.697261 -174.607312 
L 387.756068 -174.607312 
L 390.814874 -174.607312 
L 393.873681 -174.607312 
L 396.932487 -174.607312 
L 399.991294 -174.607312 
L 403.0501 -174.607312 
L 406.108907 -174.607312 
L 409.167714 -174.607312 
L 412.22652 -174.607312 
L 415.285327 -174.607312 
L 418.344133 -174.607312 
L 421.40294 -174.607312 
L 424.461746 -174.607312 
L 427.520553 -174.607312 
L 430.579359 -174.607312 
L 433.638166 -174.607312 
L 436.696972 -174.607312 
L 439.755779 -174.607312 
L 442.814585 -174.607312 
L 445.873392 -174.607312 
L 448.932198 -174.607312 
L 451.991005 -174.607312 
L 455.049811 -174.607312 
L 458.108618 -174.607312 
L 461.167425 -174.607312 
L 464.226231 -174.607312 
L 467.285038 -174.607312 
L 470.343844 -174.607312 
L 473.402651 -174.607312 
L 476.461457 -174.607312 
L 479.520264 -174.607312 
L 482.57907 -174.607312 
L 485.637877 -174.607312 
L 488.696683 -174.607312 
L 491.75549 -174.607312 
L 494.814296 -174.607312 
L 497.873103 -174.607312 
L 500.931909 -174.607312 
L 503.990716 -174.607312 
L 507.049523 -174.607312 
L 510.108329 -174.607312 
L 513.167136 -174.607312 
L 516.225942 -174.607312 
L 519.284749 -174.607312 
L 522.343555 -174.607312 
L 525.402362 -174.607312 
L 528.461168 -174.607312 
L 531.519975 -174.607312 
L 534.578781 -174.607312 
L 537.637588 -174.607312 
L 540.696394 -174.607312 
L 543.755201 -174.607312 
L 546.814007 -174.607312 
L 549.872814 -174.607312 
L 552.931621 -174.607312 
L 555.990427 -174.607312 
L 559.049234 -174.607312 
L 562.10804 -174.607312 
L 565.166847 -174.607312 
L 568.225653 -174.607312 
L 571.28446 -174.607312 
L 574.343266 -174.607312 
L 577.402073 -174.607312 
L 580.460879 -174.607312 
L 583.519686 -174.607312 
L 586.578492 -174.607312 
L 589.637299 -174.607312 
L 592.696105 -174.607312 
L 595.754912 -174.607312 
L 598.813719 -174.607312 
L 601.872525 -174.607312 
L 604.931332 -174.607312 
L 607.990138 -174.607312 
L 611.048945 -174.607312 
L 614.107751 -174.607312 
L 617.166558 -174.607312 
L 620.225364 -174.607312 
L 623.284171 -174.607312 
L 626.342977 -174.607312 
L 629.401784 -174.607312 
L 632.46059 -174.607312 
L 635.519397 -174.607312 
L 638.578203 -174.607312 
L 641.63701 -174.607312 
L 644.695817 -174.607312 
L 647.754623 -174.607312 
L 650.81343 -174.607312 
L 653.872236 -174.607312 
L 656.931043 -174.607312 
L 659.989849 -174.607312 
L 663.048656 -174.607312 
L 666.107462 -174.607312 
L 669.166269 -174.607312 
L 672.225075 -174.607312 
L 675.283882 -174.607312 
L 678.342688 -174.607312 
L 681.401495 -174.607312 
L 684.460301 -174.607312 
L 687.519108 -174.607312 
L 690.577915 -174.607312 
L 693.636721 -174.607312 
L 696.695528 -174.607312 
L 699.754334 -174.607312 
L 702.813141 -174.607312 
L 705.871947 -174.607312 
L 708.930754 -174.607312 
L 711.98956 -174.607312 
L 715.048367 -174.607312 
L 718.107173 -174.607312 
L 721.16598 -174.607312 
L 724.224786 -174.607312 
L 727.283593 -174.607312 
L 730.342399 -174.607312 
L 733.401206 -174.607312 
L 736.460013 -174.607312 
L 736.460013 -200.597019 
L 736.460013 -200.597019 
L 733.401206 -201.799104 
L 730.342399 -203.006051 
L 727.283593 -204.213989 
L 724.224786 -205.418934 
L 721.16598 -206.616821 
L 718.107173 -207.803537 
L 715.048367 -208.974953 
L 711.98956 -210.126955 
L 708.930754 -211.255481 
L 705.871947 -212.356555 
L 702.813141 -213.426318 
L 699.754334 -214.461066 
L 696.695528 -215.457278 
L 693.636721 -216.411645 
L 690.577915 -217.321104 
L 687.519108 -218.182858 
L 684.460301 -218.994399 
L 681.401495 -219.753529 
L 678.342688 -220.458377 
L 675.283882 -221.107408 
L 672.225075 -221.699433 
L 669.166269 -222.233614 
L 666.107462 -222.709461 
L 663.048656 -223.126834 
L 659.989849 -223.485931 
L 656.931043 -223.787282 
L 653.872236 -224.031727 
L 650.81343 -224.220409 
L 647.754623 -224.354743 
L 644.695817 -224.436404 
L 641.63701 -224.467296 
L 638.578203 -224.449527 
L 635.519397 -224.385385 
L 632.46059 -224.277309 
L 629.401784 -224.12786 
L 626.342977 -223.939696 
L 623.284171 -223.715545 
L 620.225364 -223.458177 
L 617.166558 -223.170385 
L 614.107751 -222.854957 
L 611.048945 -222.514661 
L 607.990138 -222.152223 
L 604.931332 -221.770312 
L 601.872525 -221.371529 
L 598.813719 -220.958393 
L 595.754912 -220.533333 
L 592.696105 -220.098685 
L 589.637299 -219.65668 
L 586.578492 -219.209453 
L 583.519686 -218.759031 
L 580.460879 -218.307343 
L 577.402073 -217.856217 
L 574.343266 -217.407386 
L 571.28446 -216.96249 
L 568.225653 -216.523083 
L 565.166847 -216.090632 
L 562.10804 -215.666529 
L 559.049234 -215.252087 
L 555.990427 -214.84855 
L 552.931621 -214.457089 
L 549.872814 -214.078809 
L 546.814007 -213.714744 
L 543.755201 -213.365863 
L 540.696394 -213.033061 
L 537.637588 -212.717162 
L 534.578781 -212.418911 
L 531.519975 -212.138973 
L 528.461168 -211.877923 
L 525.402362 -211.636247 
L 522.343555 -211.414327 
L 519.284749 -211.212442 
L 516.225942 -211.030759 
L 513.167136 -210.869325 
L 510.108329 -210.728067 
L 507.049523 -210.606782 
L 503.990716 -210.505137 
L 500.931909 -210.422666 
L 497.873103 -210.35877 
L 494.814296 -210.312717 
L 491.75549 -210.283642 
L 488.696683 -210.27056 
L 485.637877 -210.27236 
L 482.57907 -210.287824 
L 479.520264 -210.315628 
L 476.461457 -210.35436 
L 473.402651 -210.402527 
L 470.343844 -210.458573 
L 467.285038 -210.520894 
L 464.226231 -210.58785 
L 461.167425 -210.657789 
L 458.108618 -210.72906 
L 455.049811 -210.800029 
L 451.991005 -210.869101 
L 448.932198 -210.934736 
L 445.873392 -210.995464 
L 442.814585 -211.049904 
L 439.755779 -211.096773 
L 436.696972 -211.134909 
L 433.638166 -211.163275 
L 430.579359 -211.180973 
L 427.520553 -211.187251 
L 424.461746 -211.181515 
L 421.40294 -211.163326 
L 418.344133 -211.132412 
L 415.285327 -211.08866 
L 412.22652 -211.032125 
L 409.167714 -210.963019 
L 406.108907 -210.881712 
L 403.0501 -210.788725 
L 399.991294 -210.684721 
L 396.932487 -210.5705 
L 393.873681 -210.446985 
L 390.814874 -210.315217 
L 387.756068 -210.176339 
L 384.697261 -210.031585 
L 381.638455 -209.882274 
L 378.579648 -209.72979 
L 375.520842 -209.575574 
L 372.462035 -209.421115 
L 369.403229 -209.267935 
L 366.344422 -209.117579 
L 363.285616 -208.971607 
L 360.226809 -208.831583 
L 357.168002 -208.699067 
L 354.109196 -208.575607 
L 351.050389 -208.462731 
L 347.991583 -208.36194 
L 344.932776 -208.274705 
L 341.87397 -208.202455 
L 338.815163 -208.146574 
L 335.756357 -208.108398 
L 332.69755 -208.089203 
L 329.638744 -208.090203 
L 326.579937 -208.11254 
L 323.521131 -208.157281 
L 320.462324 -208.225402 
L 317.403518 -208.317787 
L 314.344711 -208.435213 
L 311.285904 -208.578338 
L 308.227098 -208.747695 
L 305.168291 -208.94367 
L 302.109485 -209.166499 
L 299.050678 -209.416242 
L 295.991872 -209.69278 
L 292.933065 -209.995791 
L 289.874259 -210.324742 
L 286.815452 -210.67887 
L 283.756646 -211.057176 
L 280.697839 -211.458405 
L 277.639033 -211.881044 
L 274.580226 -212.323308 
L 271.52142 -212.783142 
L 268.462613 -213.258213 
L 265.403806 -213.745915 
L 262.345 -214.243373 
L 259.286193 -214.747453 
L 256.227387 -215.254773 
L 253.16858 -215.761723 
L 250.109774 -216.264484 
L 247.050967 -216.759056 
L 243.992161 -217.241284 
L 240.933354 -217.706896 
L 237.874548 -218.151534 
L 234.815741 -218.570798 
L 231.756935 -218.960288 
L 228.698128 -219.315642 
L 225.639322 -219.632588 
L 222.580515 -219.906988 
L 219.521708 -220.134879 
L 216.462902 -220.312524 
L 213.404095 -220.43645 
L 210.345289 -220.503494 
L 207.286482 -220.510835 
L 204.227676 -220.456033 
L 201.168869 -220.337058 
L 198.110063 -220.152313 
L 195.051256 -219.900659 
L 191.99245 -219.581428 
L 188.933643 -219.194431 
L 185.874837 -218.739962 
L 182.81603 -218.2188 
L 179.757224 -217.632196 
L 176.698417 -216.981861 
L 173.63961 -216.269949 
L 170.580804 -215.499032 
L 167.521997 -214.67207 
L 164.463191 -213.792384 
L 161.404384 -212.863611 
L 158.345578 -211.889675 
L 155.286771 -210.874739 
L 152.227965 -209.823164 
L 149.169158 -208.739467 
L 146.110352 -207.628274 
L 143.051545 -206.494278 
L 139.992739 -205.342193 
L 136.933932 -204.176717 
L 133.875126 -203.002487 
L 130.816319 -201.824044 
L 127.757513 -200.645795 
z
" style="stroke: #1b9e77"/>
    </defs>
    <g clip-path="url(#pb69f6fe7af)">
     <use xlink:href="#m68c27a8475" x="0" y="280.655312" style="fill: #1b9e77; fill-opacity: 0.5; stroke: #1b9e77"/>
    </g>
   </g>
   <g id="matplotlib.axis_1">
    <g id="xtick_1">
     <g id="line2d_1">
      <defs>
       <path id="m414c0b74f7" d="M 0 0 
L 0 3.5 
" style="stroke: #000000; stroke-width: 0.8"/>
      </defs>
      <g>
       <use xlink:href="#m414c0b74f7" x="127.757513" y="106.048" style="stroke: #000000; stroke-width: 0.8"/>
      </g>
     </g>
    </g>
    <g id="xtick_2">
     <g id="line2d_2">
      <g>
       <use xlink:href="#m414c0b74f7" x="249.498013" y="106.048" style="stroke: #000000; stroke-width: 0.8"/>
      </g>
     </g>
    </g>
    <g id="xtick_3">
     <g id="line2d_3">
      <g>
       <use xlink:href="#m414c0b74f7" x="371.238513" y="106.048" style="stroke: #000000; stroke-width: 0.8"/>
      </g>
     </g>
    </g>
    <g id="xtick_4">
     <g id="line2d_4">
      <g>
       <use xlink:href="#m414c0b74f7" x="492.979013" y="106.048" style="stroke: #000000; stroke-width: 0.8"/>
      </g>
     </g>
    </g>
    <g id="xtick_5">
     <g id="line2d_5">
      <g>
       <use xlink:href="#m414c0b74f7" x="614.719513" y="106.048" style="stroke: #000000; stroke-width: 0.8"/>
      </g>
     </g>
    </g>
    <g id="xtick_6">
     <g id="line2d_6">
      <g>
       <use xlink:href="#m414c0b74f7" x="736.460013" y="106.048" style="stroke: #000000; stroke-width: 0.8"/>
      </g>
     </g>
    </g>
   </g>
   <g id="matplotlib.axis_2"/>
   <g id="line2d_7">
    <path d="M 127.757513 80.009517 
L 146.110352 73.027039 
L 155.286771 69.780574 
L 161.404384 67.791701 
L 167.521997 65.983242 
L 173.63961 64.385364 
L 179.757224 63.023117 
L 185.874837 61.91535 
L 191.99245 61.073884 
L 198.110063 60.503 
L 204.227676 60.199279 
L 210.345289 60.151819 
L 216.462902 60.342789 
L 222.580515 60.748325 
L 228.698128 61.339671 
L 237.874548 62.503779 
L 250.109774 64.390828 
L 274.580226 68.332005 
L 283.756646 69.598136 
L 292.933065 70.659522 
L 302.109485 71.488814 
L 311.285904 72.076974 
L 320.462324 72.42991 
L 329.638744 72.56511 
L 338.815163 72.508738 
L 351.050389 72.192582 
L 366.344422 71.537733 
L 399.991294 69.970591 
L 412.22652 69.623187 
L 424.461746 69.473798 
L 436.696972 69.520403 
L 455.049811 69.855284 
L 479.520264 70.339684 
L 491.75549 70.37167 
L 503.990716 70.150175 
L 513.167136 69.785987 
L 522.343555 69.240986 
L 531.519975 68.51634 
L 543.755201 67.28945 
L 555.990427 65.806762 
L 571.28446 63.692822 
L 604.931332 58.885 
L 614.107751 57.800356 
L 623.284171 56.939768 
L 632.46059 56.378003 
L 638.578203 56.205785 
L 644.695817 56.218908 
L 650.81343 56.434904 
L 656.931043 56.868031 
L 663.048656 57.528479 
L 669.166269 58.421699 
L 675.283882 59.547904 
L 681.401495 60.901783 
L 687.519108 62.472455 
L 693.636721 64.243667 
L 699.754334 66.194246 
L 708.930754 69.399832 
L 718.107173 72.851775 
L 736.460013 80.058293 
L 736.460013 80.058293 
" clip-path="url(#pb69f6fe7af)" style="fill: none; stroke: #ffffff; stroke-width: 2; stroke-linecap: square"/>
   </g>
   <g id="line2d_8">
    <path d="M 127.757513 106.048 
L 736.460013 106.048 
" style="fill: none; stroke: #000000; stroke-linecap: square"/>
   </g>
   <g id="text_1">
    <g id="patch_3">
     <path d="M 18.54375 115.457687 
L 67.80375 115.457687 
L 67.80375 96.638312 
L 18.54375 96.638312 
z
" style="fill: #ffffff; opacity: 0.5"/>
    </g>
    <!-- Biomass -->
    <g transform="translate(22.50375 108.930812) scale(0.12 -0.12)">
     <defs>
      <path id="TimesNewRomanPSMT-42" d="M 2956 2163 
Q 3397 2069 3616 1863 
Q 3919 1575 3919 1159 
Q 3919 844 3719 555 
Q 3519 266 3170 133 
Q 2822 0 2106 0 
L 106 0 
L 106 116 
L 266 116 
Q 531 116 647 284 
Q 719 394 719 750 
L 719 3488 
Q 719 3881 628 3984 
Q 506 4122 266 4122 
L 106 4122 
L 106 4238 
L 1938 4238 
Q 2450 4238 2759 4163 
Q 3228 4050 3475 3764 
Q 3722 3478 3722 3106 
Q 3722 2788 3528 2536 
Q 3334 2284 2956 2163 
z
M 1319 2331 
Q 1434 2309 1582 2298 
Q 1731 2288 1909 2288 
Q 2366 2288 2595 2386 
Q 2825 2484 2947 2687 
Q 3069 2891 3069 3131 
Q 3069 3503 2766 3765 
Q 2463 4028 1881 4028 
Q 1569 4028 1319 3959 
L 1319 2331 
z
M 1319 306 
Q 1681 222 2034 222 
Q 2600 222 2897 476 
Q 3194 731 3194 1106 
Q 3194 1353 3059 1581 
Q 2925 1809 2622 1940 
Q 2319 2072 1872 2072 
Q 1678 2072 1540 2065 
Q 1403 2059 1319 2044 
L 1319 306 
z
" transform="scale(0.015625)"/>
      <path id="TimesNewRomanPSMT-69" d="M 928 4444 
Q 1059 4444 1151 4351 
Q 1244 4259 1244 4128 
Q 1244 3997 1151 3903 
Q 1059 3809 928 3809 
Q 797 3809 703 3903 
Q 609 3997 609 4128 
Q 609 4259 701 4351 
Q 794 4444 928 4444 
z
M 1188 2947 
L 1188 647 
Q 1188 378 1227 289 
Q 1266 200 1342 156 
Q 1419 113 1622 113 
L 1622 0 
L 231 0 
L 231 113 
Q 441 113 512 153 
Q 584 194 626 287 
Q 669 381 669 647 
L 669 1750 
Q 669 2216 641 2353 
Q 619 2453 572 2492 
Q 525 2531 444 2531 
Q 356 2531 231 2484 
L 188 2597 
L 1050 2947 
L 1188 2947 
z
" transform="scale(0.015625)"/>
      <path id="TimesNewRomanPSMT-6f" d="M 1600 2947 
Q 2250 2947 2644 2453 
Q 2978 2031 2978 1484 
Q 2978 1100 2793 706 
Q 2609 313 2286 112 
Q 1963 -88 1566 -88 
Q 919 -88 538 428 
Q 216 863 216 1403 
Q 216 1797 411 2186 
Q 606 2575 925 2761 
Q 1244 2947 1600 2947 
z
M 1503 2744 
Q 1338 2744 1170 2645 
Q 1003 2547 900 2300 
Q 797 2053 797 1666 
Q 797 1041 1045 587 
Q 1294 134 1700 134 
Q 2003 134 2200 384 
Q 2397 634 2397 1244 
Q 2397 2006 2069 2444 
Q 1847 2744 1503 2744 
z
" transform="scale(0.015625)"/>
      <path id="TimesNewRomanPSMT-6d" d="M 1050 2338 
Q 1363 2650 1419 2697 
Q 1559 2816 1721 2881 
Q 1884 2947 2044 2947 
Q 2313 2947 2506 2790 
Q 2700 2634 2766 2338 
Q 3088 2713 3309 2830 
Q 3531 2947 3766 2947 
Q 3994 2947 4170 2830 
Q 4347 2713 4450 2447 
Q 4519 2266 4519 1878 
L 4519 647 
Q 4519 378 4559 278 
Q 4591 209 4675 161 
Q 4759 113 4950 113 
L 4950 0 
L 3538 0 
L 3538 113 
L 3597 113 
Q 3781 113 3884 184 
Q 3956 234 3988 344 
Q 4000 397 4000 647 
L 4000 1878 
Q 4000 2228 3916 2372 
Q 3794 2572 3525 2572 
Q 3359 2572 3192 2489 
Q 3025 2406 2788 2181 
L 2781 2147 
L 2788 2013 
L 2788 647 
Q 2788 353 2820 281 
Q 2853 209 2943 161 
Q 3034 113 3253 113 
L 3253 0 
L 1806 0 
L 1806 113 
Q 2044 113 2133 169 
Q 2222 225 2256 338 
Q 2272 391 2272 647 
L 2272 1878 
Q 2272 2228 2169 2381 
Q 2031 2581 1784 2581 
Q 1616 2581 1450 2491 
Q 1191 2353 1050 2181 
L 1050 647 
Q 1050 366 1089 281 
Q 1128 197 1204 155 
Q 1281 113 1516 113 
L 1516 0 
L 100 0 
L 100 113 
Q 297 113 375 155 
Q 453 197 493 289 
Q 534 381 534 647 
L 534 1741 
Q 534 2213 506 2350 
Q 484 2453 437 2492 
Q 391 2531 309 2531 
Q 222 2531 100 2484 
L 53 2597 
L 916 2947 
L 1050 2947 
L 1050 2338 
z
" transform="scale(0.015625)"/>
      <path id="TimesNewRomanPSMT-61" d="M 1822 413 
Q 1381 72 1269 19 
Q 1100 -59 909 -59 
Q 613 -59 420 144 
Q 228 347 228 678 
Q 228 888 322 1041 
Q 450 1253 767 1440 
Q 1084 1628 1822 1897 
L 1822 2009 
Q 1822 2438 1686 2597 
Q 1550 2756 1291 2756 
Q 1094 2756 978 2650 
Q 859 2544 859 2406 
L 866 2225 
Q 866 2081 792 2003 
Q 719 1925 600 1925 
Q 484 1925 411 2006 
Q 338 2088 338 2228 
Q 338 2497 613 2722 
Q 888 2947 1384 2947 
Q 1766 2947 2009 2819 
Q 2194 2722 2281 2516 
Q 2338 2381 2338 1966 
L 2338 994 
Q 2338 584 2353 492 
Q 2369 400 2405 369 
Q 2441 338 2488 338 
Q 2538 338 2575 359 
Q 2641 400 2828 588 
L 2828 413 
Q 2478 -56 2159 -56 
Q 2006 -56 1915 50 
Q 1825 156 1822 413 
z
M 1822 616 
L 1822 1706 
Q 1350 1519 1213 1441 
Q 966 1303 859 1153 
Q 753 1003 753 825 
Q 753 600 887 451 
Q 1022 303 1197 303 
Q 1434 303 1822 616 
z
" transform="scale(0.015625)"/>
      <path id="TimesNewRomanPSMT-73" d="M 2050 2947 
L 2050 1972 
L 1947 1972 
Q 1828 2431 1642 2597 
Q 1456 2763 1169 2763 
Q 950 2763 815 2647 
Q 681 2531 681 2391 
Q 681 2216 781 2091 
Q 878 1963 1175 1819 
L 1631 1597 
Q 2266 1288 2266 781 
Q 2266 391 1970 151 
Q 1675 -88 1309 -88 
Q 1047 -88 709 6 
Q 606 38 541 38 
Q 469 38 428 -44 
L 325 -44 
L 325 978 
L 428 978 
Q 516 541 762 319 
Q 1009 97 1316 97 
Q 1531 97 1667 223 
Q 1803 350 1803 528 
Q 1803 744 1651 891 
Q 1500 1038 1047 1263 
Q 594 1488 453 1669 
Q 313 1847 313 2119 
Q 313 2472 555 2709 
Q 797 2947 1181 2947 
Q 1350 2947 1591 2875 
Q 1750 2828 1803 2828 
Q 1853 2828 1881 2850 
Q 1909 2872 1947 2947 
L 2050 2947 
z
" transform="scale(0.015625)"/>
     </defs>
     <use xlink:href="#TimesNewRomanPSMT-42"/>
     <use xlink:href="#TimesNewRomanPSMT-69" transform="translate(66.699219 0)"/>
     <use xlink:href="#TimesNewRomanPSMT-6f" transform="translate(94.482422 0)"/>
     <use xlink:href="#TimesNewRomanPSMT-6d" transform="translate(144.482422 0)"/>
     <use xlink:href="#TimesNewRomanPSMT-61" transform="translate(222.265625 0)"/>
     <use xlink:href="#TimesNewRomanPSMT-73" transform="translate(266.650391 0)"/>
     <use xlink:href="#TimesNewRomanPSMT-73" transform="translate(305.566406 0)"/>
    </g>
   </g>
  </g>
  <g id="axes_2">
   <g id="patch_4">
    <path d="M 127.757513 150.312 
L 736.460013 150.312 
L 736.460013 61.784 
L 127.757513 61.784 
L 127.757513 150.312 
z
" style="fill: none; opacity: 0"/>
   </g>
   <g id="FillBetweenPolyCollection_2">
    <defs>
     <path id="m9f8a48e7ce" d="M 127.757513 -157.359274 
L 127.757513 -130.343312 
L 130.816319 -130.343312 
L 133.875126 -130.343312 
L 136.933932 -130.343312 
L 139.992739 -130.343312 
L 143.051545 -130.343312 
L 146.110352 -130.343312 
L 149.169158 -130.343312 
L 152.227965 -130.343312 
L 155.286771 -130.343312 
L 158.345578 -130.343312 
L 161.404384 -130.343312 
L 164.463191 -130.343312 
L 167.521997 -130.343312 
L 170.580804 -130.343312 
L 173.63961 -130.343312 
L 176.698417 -130.343312 
L 179.757224 -130.343312 
L 182.81603 -130.343312 
L 185.874837 -130.343312 
L 188.933643 -130.343312 
L 191.99245 -130.343312 
L 195.051256 -130.343312 
L 198.110063 -130.343312 
L 201.168869 -130.343312 
L 204.227676 -130.343312 
L 207.286482 -130.343312 
L 210.345289 -130.343312 
L 213.404095 -130.343312 
L 216.462902 -130.343312 
L 219.521708 -130.343312 
L 222.580515 -130.343312 
L 225.639322 -130.343312 
L 228.698128 -130.343312 
L 231.756935 -130.343312 
L 234.815741 -130.343312 
L 237.874548 -130.343312 
L 240.933354 -130.343312 
L 243.992161 -130.343312 
L 247.050967 -130.343312 
L 250.109774 -130.343312 
L 253.16858 -130.343312 
L 256.227387 -130.343312 
L 259.286193 -130.343312 
L 262.345 -130.343312 
L 265.403806 -130.343312 
L 268.462613 -130.343312 
L 271.52142 -130.343312 
L 274.580226 -130.343312 
L 277.639033 -130.343312 
L 280.697839 -130.343312 
L 283.756646 -130.343312 
L 286.815452 -130.343312 
L 289.874259 -130.343312 
L 292.933065 -130.343312 
L 295.991872 -130.343312 
L 299.050678 -130.343312 
L 302.109485 -130.343312 
L 305.168291 -130.343312 
L 308.227098 -130.343312 
L 311.285904 -130.343312 
L 314.344711 -130.343312 
L 317.403518 -130.343312 
L 320.462324 -130.343312 
L 323.521131 -130.343312 
L 326.579937 -130.343312 
L 329.638744 -130.343312 
L 332.69755 -130.343312 
L 335.756357 -130.343312 
L 338.815163 -130.343312 
L 341.87397 -130.343312 
L 344.932776 -130.343312 
L 347.991583 -130.343312 
L 351.050389 -130.343312 
L 354.109196 -130.343312 
L 357.168002 -130.343312 
L 360.226809 -130.343312 
L 363.285616 -130.343312 
L 366.344422 -130.343312 
L 369.403229 -130.343312 
L 372.462035 -130.343312 
L 375.520842 -130.343312 
L 378.579648 -130.343312 
L 381.638455 -130.343312 
L 384.697261 -130.343312 
L 387.756068 -130.343312 
L 390.814874 -130.343312 
L 393.873681 -130.343312 
L 396.932487 -130.343312 
L 399.991294 -130.343312 
L 403.0501 -130.343312 
L 406.108907 -130.343312 
L 409.167714 -130.343312 
L 412.22652 -130.343312 
L 415.285327 -130.343312 
L 418.344133 -130.343312 
L 421.40294 -130.343312 
L 424.461746 -130.343312 
L 427.520553 -130.343312 
L 430.579359 -130.343312 
L 433.638166 -130.343312 
L 436.696972 -130.343312 
L 439.755779 -130.343312 
L 442.814585 -130.343312 
L 445.873392 -130.343312 
L 448.932198 -130.343312 
L 451.991005 -130.343312 
L 455.049811 -130.343312 
L 458.108618 -130.343312 
L 461.167425 -130.343312 
L 464.226231 -130.343312 
L 467.285038 -130.343312 
L 470.343844 -130.343312 
L 473.402651 -130.343312 
L 476.461457 -130.343312 
L 479.520264 -130.343312 
L 482.57907 -130.343312 
L 485.637877 -130.343312 
L 488.696683 -130.343312 
L 491.75549 -130.343312 
L 494.814296 -130.343312 
L 497.873103 -130.343312 
L 500.931909 -130.343312 
L 503.990716 -130.343312 
L 507.049523 -130.343312 
L 510.108329 -130.343312 
L 513.167136 -130.343312 
L 516.225942 -130.343312 
L 519.284749 -130.343312 
L 522.343555 -130.343312 
L 525.402362 -130.343312 
L 528.461168 -130.343312 
L 531.519975 -130.343312 
L 534.578781 -130.343312 
L 537.637588 -130.343312 
L 540.696394 -130.343312 
L 543.755201 -130.343312 
L 546.814007 -130.343312 
L 549.872814 -130.343312 
L 552.931621 -130.343312 
L 555.990427 -130.343312 
L 559.049234 -130.343312 
L 562.10804 -130.343312 
L 565.166847 -130.343312 
L 568.225653 -130.343312 
L 571.28446 -130.343312 
L 574.343266 -130.343312 
L 577.402073 -130.343312 
L 580.460879 -130.343312 
L 583.519686 -130.343312 
L 586.578492 -130.343312 
L 589.637299 -130.343312 
L 592.696105 -130.343312 
L 595.754912 -130.343312 
L 598.813719 -130.343312 
L 601.872525 -130.343312 
L 604.931332 -130.343312 
L 607.990138 -130.343312 
L 611.048945 -130.343312 
L 614.107751 -130.343312 
L 617.166558 -130.343312 
L 620.225364 -130.343312 
L 623.284171 -130.343312 
L 626.342977 -130.343312 
L 629.401784 -130.343312 
L 632.46059 -130.343312 
L 635.519397 -130.343312 
L 638.578203 -130.343312 
L 641.63701 -130.343312 
L 644.695817 -130.343312 
L 647.754623 -130.343312 
L 650.81343 -130.343312 
L 653.872236 -130.343312 
L 656.931043 -130.343312 
L 659.989849 -130.343312 
L 663.048656 -130.343312 
L 666.107462 -130.343312 
L 669.166269 -130.343312 
L 672.225075 -130.343312 
L 675.283882 -130.343312 
L 678.342688 -130.343312 
L 681.401495 -130.343312 
L 684.460301 -130.343312 
L 687.519108 -130.343312 
L 690.577915 -130.343312 
L 693.636721 -130.343312 
L 696.695528 -130.343312 
L 699.754334 -130.343312 
L 702.813141 -130.343312 
L 705.871947 -130.343312 
L 708.930754 -130.343312 
L 711.98956 -130.343312 
L 715.048367 -130.343312 
L 718.107173 -130.343312 
L 721.16598 -130.343312 
L 724.224786 -130.343312 
L 727.283593 -130.343312 
L 730.342399 -130.343312 
L 733.401206 -130.343312 
L 736.460013 -130.343312 
L 736.460013 -157.308593 
L 736.460013 -157.308593 
L 733.401206 -158.494073 
L 730.342399 -159.681111 
L 727.283593 -160.865836 
L 724.224786 -162.044274 
L 721.16598 -163.212373 
L 718.107173 -164.366032 
L 715.048367 -165.501132 
L 711.98956 -166.613569 
L 708.930754 -167.69928 
L 705.871947 -168.754285 
L 702.813141 -169.774707 
L 699.754334 -170.756818 
L 696.695528 -171.697057 
L 693.636721 -172.592068 
L 690.577915 -173.438727 
L 687.519108 -174.234166 
L 684.460301 -174.9758 
L 681.401495 -175.661343 
L 678.342688 -176.288834 
L 675.283882 -176.856647 
L 672.225075 -177.363502 
L 669.166269 -177.808478 
L 666.107462 -178.191014 
L 663.048656 -178.51091 
L 659.989849 -178.768326 
L 656.931043 -178.963776 
L 653.872236 -179.098115 
L 650.81343 -179.172531 
L 647.754623 -179.188525 
L 644.695817 -179.147893 
L 641.63701 -179.052705 
L 638.578203 -178.905285 
L 635.519397 -178.708179 
L 632.46059 -178.464134 
L 629.401784 -178.176068 
L 626.342977 -177.847044 
L 623.284171 -177.480237 
L 620.225364 -177.078912 
L 617.166558 -176.646391 
L 614.107751 -176.18603 
L 611.048945 -175.70119 
L 607.990138 -175.195217 
L 604.931332 -174.671415 
L 601.872525 -174.133029 
L 598.813719 -173.583223 
L 595.754912 -173.025065 
L 592.696105 -172.461516 
L 589.637299 -171.89541 
L 586.578492 -171.329451 
L 583.519686 -170.766201 
L 580.460879 -170.208077 
L 577.402073 -169.657343 
L 574.343266 -169.116111 
L 571.28446 -168.586336 
L 568.225653 -168.069821 
L 565.166847 -167.568216 
L 562.10804 -167.08302 
L 559.049234 -166.615585 
L 555.990427 -166.16712 
L 552.931621 -165.738695 
L 549.872814 -165.331246 
L 546.814007 -164.945577 
L 543.755201 -164.582369 
L 540.696394 -164.24218 
L 537.637588 -163.925453 
L 534.578781 -163.632517 
L 531.519975 -163.363594 
L 528.461168 -163.118799 
L 525.402362 -162.898146 
L 522.343555 -162.701551 
L 519.284749 -162.528834 
L 516.225942 -162.379721 
L 513.167136 -162.25385 
L 510.108329 -162.150768 
L 507.049523 -162.069942 
L 503.990716 -162.010756 
L 500.931909 -161.972513 
L 497.873103 -161.954446 
L 494.814296 -161.955714 
L 491.75549 -161.975411 
L 488.696683 -162.012568 
L 485.637877 -162.066161 
L 482.57907 -162.135113 
L 479.520264 -162.218302 
L 476.461457 -162.314567 
L 473.402651 -162.422718 
L 470.343844 -162.541534 
L 467.285038 -162.669783 
L 464.226231 -162.806218 
L 461.167425 -162.949594 
L 458.108618 -163.098669 
L 455.049811 -163.252219 
L 451.991005 -163.409039 
L 448.932198 -163.567959 
L 445.873392 -163.727843 
L 442.814585 -163.887606 
L 439.755779 -164.046214 
L 436.696972 -164.202698 
L 433.638166 -164.356155 
L 430.579359 -164.505757 
L 427.520553 -164.650758 
L 424.461746 -164.790499 
L 421.40294 -164.924412 
L 418.344133 -165.052024 
L 415.285327 -165.172963 
L 412.22652 -165.286959 
L 409.167714 -165.393846 
L 406.108907 -165.493566 
L 403.0501 -165.586167 
L 399.991294 -165.671806 
L 396.932487 -165.750744 
L 393.873681 -165.823348 
L 390.814874 -165.890089 
L 387.756068 -165.951534 
L 384.697261 -166.008347 
L 381.638455 -166.061281 
L 378.579648 -166.111173 
L 375.520842 -166.158939 
L 372.462035 -166.205562 
L 369.403229 -166.252088 
L 366.344422 -166.299615 
L 363.285616 -166.349285 
L 360.226809 -166.402271 
L 357.168002 -166.459767 
L 354.109196 -166.522977 
L 351.050389 -166.593103 
L 347.991583 -166.671332 
L 344.932776 -166.758824 
L 341.87397 -166.856698 
L 338.815163 -166.96602 
L 335.756357 -167.08779 
L 332.69755 -167.22293 
L 329.638744 -167.372268 
L 326.579937 -167.53653 
L 323.521131 -167.716329 
L 320.462324 -167.912148 
L 317.403518 -168.124336 
L 314.344711 -168.353095 
L 311.285904 -168.598474 
L 308.227098 -168.860359 
L 305.168291 -169.13847 
L 302.109485 -169.432353 
L 299.050678 -169.741379 
L 295.991872 -170.064739 
L 292.933065 -170.401447 
L 289.874259 -170.750337 
L 286.815452 -171.110067 
L 283.756646 -171.479125 
L 280.697839 -171.85583 
L 277.639033 -172.238342 
L 274.580226 -172.624669 
L 271.52142 -173.012678 
L 268.462613 -173.400104 
L 265.403806 -173.784566 
L 262.345 -174.163576 
L 259.286193 -174.534559 
L 256.227387 -174.894864 
L 253.16858 -175.241784 
L 250.109774 -175.572574 
L 247.050967 -175.884465 
L 243.992161 -176.174687 
L 240.933354 -176.440487 
L 237.874548 -176.679149 
L 234.815741 -176.88801 
L 231.756935 -177.064485 
L 228.698128 -177.206082 
L 225.639322 -177.310423 
L 222.580515 -177.375261 
L 219.521708 -177.3985 
L 216.462902 -177.37821 
L 213.404095 -177.312644 
L 210.345289 -177.200253 
L 207.286482 -177.039701 
L 204.227676 -176.829873 
L 201.168869 -176.569894 
L 198.110063 -176.25913 
L 195.051256 -175.897201 
L 191.99245 -175.483985 
L 188.933643 -175.019624 
L 185.874837 -174.504524 
L 182.81603 -173.939355 
L 179.757224 -173.325052 
L 176.698417 -172.662808 
L 173.63961 -171.954069 
L 170.580804 -171.200527 
L 167.521997 -170.404109 
L 164.463191 -169.566965 
L 161.404384 -168.691454 
L 158.345578 -167.78013 
L 155.286771 -166.835723 
L 152.227965 -165.861121 
L 149.169158 -164.859349 
L 146.110352 -163.833551 
L 143.051545 -162.786964 
L 139.992739 -161.722898 
L 136.933932 -160.644712 
L 133.875126 -159.555792 
L 130.816319 -158.459523 
L 127.757513 -157.359274 
z
" style="stroke: #d95f02"/>
    </defs>
    <g clip-path="url(#p04c6c9ee90)">
     <use xlink:href="#m9f8a48e7ce" x="0" y="280.655312" style="fill: #d95f02; fill-opacity: 0.5; stroke: #d95f02"/>
    </g>
   </g>
   <g id="matplotlib.axis_3">
    <g id="xtick_7">
     <g id="line2d_9">
      <g>
       <use xlink:href="#m414c0b74f7" x="127.757513" y="150.312" style="stroke: #000000; stroke-width: 0.8"/>
      </g>
     </g>
    </g>
    <g id="xtick_8">
     <g id="line2d_10">
      <g>
       <use xlink:href="#m414c0b74f7" x="249.498013" y="150.312" style="stroke: #000000; stroke-width: 0.8"/>
      </g>
     </g>
    </g>
    <g id="xtick_9">
     <g id="line2d_11">
      <g>
       <use xlink:href="#m414c0b74f7" x="371.238513" y="150.312" style="stroke: #000000; stroke-width: 0.8"/>
      </g>
     </g>
    </g>
    <g id="xtick_10">
     <g id="line2d_12">
      <g>
       <use xlink:href="#m414c0b74f7" x="492.979013" y="150.312" style="stroke: #000000; stroke-width: 0.8"/>
      </g>
     </g>
    </g>
    <g id="xtick_11">
     <g id="line2d_13">
      <g>
       <use xlink:href="#m414c0b74f7" x="614.719513" y="150.312" style="stroke: #000000; stroke-width: 0.8"/>
      </g>
     </g>
    </g>
    <g id="xtick_12">
     <g id="line2d_14">
      <g>
       <use xlink:href="#m414c0b74f7" x="736.460013" y="150.312" style="stroke: #000000; stroke-width: 0.8"/>
      </g>
     </g>
    </g>
   </g>
   <g id="matplotlib.axis_4"/>
   <g id="line2d_15">
    <path d="M 127.757513 123.296038 
L 143.051545 117.868349 
L 152.227965 114.794191 
L 161.404384 111.963858 
L 167.521997 110.251204 
L 173.63961 108.701244 
L 179.757224 107.330261 
L 185.874837 106.150789 
L 191.99245 105.171327 
L 198.110063 104.396183 
L 204.227676 103.825439 
L 210.345289 103.455059 
L 216.462902 103.277103 
L 222.580515 103.280051 
L 228.698128 103.44923 
L 237.874548 103.976164 
L 247.050967 104.770848 
L 259.286193 106.120754 
L 302.109485 111.222959 
L 314.344711 112.302218 
L 326.579937 113.118782 
L 338.815163 113.689292 
L 354.109196 114.132336 
L 381.638455 114.594032 
L 403.0501 115.069145 
L 421.40294 115.7309 
L 442.814585 116.767707 
L 470.343844 118.113778 
L 482.57907 118.5202 
L 494.814296 118.699598 
L 503.990716 118.644557 
L 513.167136 118.401463 
L 522.343555 117.953761 
L 531.519975 117.291719 
L 540.696394 116.413132 
L 549.872814 115.324067 
L 559.049234 114.039728 
L 571.28446 112.068977 
L 586.578492 109.325862 
L 607.990138 105.460095 
L 617.166558 104.008922 
L 626.342977 102.808269 
L 632.46059 102.191178 
L 638.578203 101.750028 
L 644.695817 101.50742 
L 650.81343 101.482781 
L 656.931043 101.691537 
L 663.048656 102.144403 
L 669.166269 102.846835 
L 675.283882 103.798666 
L 681.401495 104.993969 
L 687.519108 106.421146 
L 693.636721 108.063244 
L 699.754334 109.898495 
L 708.930754 112.956032 
L 718.107173 116.289281 
L 733.401206 122.161239 
L 736.460013 123.346719 
L 736.460013 123.346719 
" clip-path="url(#p04c6c9ee90)" style="fill: none; stroke: #ffffff; stroke-width: 2; stroke-linecap: square"/>
   </g>
   <g id="line2d_16">
    <path d="M 127.757513 150.312 
L 736.460013 150.312 
" style="fill: none; stroke: #000000; stroke-linecap: square"/>
   </g>
   <g id="text_2">
    <g id="patch_5">
     <path d="M 34.554375 159.721687 
L 67.80375 159.721687 
L 67.80375 140.902312 
L 34.554375 140.902312 
z
" style="fill: #ffffff; opacity: 0.5"/>
    </g>
    <!-- Solar -->
    <g transform="translate(38.514375 153.194812) scale(0.12 -0.12)">
     <defs>
      <path id="TimesNewRomanPSMT-53" d="M 2934 4334 
L 2934 2869 
L 2819 2869 
Q 2763 3291 2617 3541 
Q 2472 3791 2203 3937 
Q 1934 4084 1647 4084 
Q 1322 4084 1109 3886 
Q 897 3688 897 3434 
Q 897 3241 1031 3081 
Q 1225 2847 1953 2456 
Q 2547 2138 2764 1967 
Q 2981 1797 3098 1565 
Q 3216 1334 3216 1081 
Q 3216 600 2842 251 
Q 2469 -97 1881 -97 
Q 1697 -97 1534 -69 
Q 1438 -53 1133 45 
Q 828 144 747 144 
Q 669 144 623 97 
Q 578 50 556 -97 
L 441 -97 
L 441 1356 
L 556 1356 
Q 638 900 775 673 
Q 913 447 1195 297 
Q 1478 147 1816 147 
Q 2206 147 2432 353 
Q 2659 559 2659 841 
Q 2659 997 2573 1156 
Q 2488 1316 2306 1453 
Q 2184 1547 1640 1851 
Q 1097 2156 867 2337 
Q 638 2519 519 2737 
Q 400 2956 400 3219 
Q 400 3675 750 4004 
Q 1100 4334 1641 4334 
Q 1978 4334 2356 4169 
Q 2531 4091 2603 4091 
Q 2684 4091 2736 4139 
Q 2788 4188 2819 4334 
L 2934 4334 
z
" transform="scale(0.015625)"/>
      <path id="TimesNewRomanPSMT-6c" d="M 1184 4444 
L 1184 647 
Q 1184 378 1223 290 
Q 1263 203 1344 158 
Q 1425 113 1647 113 
L 1647 0 
L 244 0 
L 244 113 
Q 441 113 512 153 
Q 584 194 625 287 
Q 666 381 666 647 
L 666 3247 
Q 666 3731 644 3842 
Q 622 3953 573 3993 
Q 525 4034 450 4034 
Q 369 4034 244 3984 
L 191 4094 
L 1044 4444 
L 1184 4444 
z
" transform="scale(0.015625)"/>
      <path id="TimesNewRomanPSMT-72" d="M 1038 2947 
L 1038 2303 
Q 1397 2947 1775 2947 
Q 1947 2947 2059 2842 
Q 2172 2738 2172 2600 
Q 2172 2478 2090 2393 
Q 2009 2309 1897 2309 
Q 1788 2309 1652 2417 
Q 1516 2525 1450 2525 
Q 1394 2525 1328 2463 
Q 1188 2334 1038 2041 
L 1038 669 
Q 1038 431 1097 309 
Q 1138 225 1241 169 
Q 1344 113 1538 113 
L 1538 0 
L 72 0 
L 72 113 
Q 291 113 397 181 
Q 475 231 506 341 
Q 522 394 522 644 
L 522 1753 
Q 522 2253 501 2348 
Q 481 2444 426 2487 
Q 372 2531 291 2531 
Q 194 2531 72 2484 
L 41 2597 
L 906 2947 
L 1038 2947 
z
" transform="scale(0.015625)"/>
     </defs>
     <use xlink:href="#TimesNewRomanPSMT-53"/>
     <use xlink:href="#TimesNewRomanPSMT-6f" transform="translate(55.615234 0)"/>
     <use xlink:href="#TimesNewRomanPSMT-6c" transform="translate(105.615234 0)"/>
     <use xlink:href="#TimesNewRomanPSMT-61" transform="translate(133.398438 0)"/>
     <use xlink:href="#TimesNewRomanPSMT-72" transform="translate(177.783203 0)"/>
    </g>
   </g>
  </g>
  <g id="axes_3">
   <g id="patch_6">
    <path d="M 127.757513 194.576 
L 736.460013 194.576 
L 736.460013 106.048 
L 127.757513 106.048 
L 127.757513 194.576 
z
" style="fill: none; opacity: 0"/>
   </g>
   <g id="FillBetweenPolyCollection_3">
    <defs>
     <path id="m1175dae3d3" d="M 127.757513 -112.238253 
L 127.757513 -86.079312 
L 130.816319 -86.079312 
L 133.875126 -86.079312 
L 136.933932 -86.079312 
L 139.992739 -86.079312 
L 143.051545 -86.079312 
L 146.110352 -86.079312 
L 149.169158 -86.079312 
L 152.227965 -86.079312 
L 155.286771 -86.079312 
L 158.345578 -86.079312 
L 161.404384 -86.079312 
L 164.463191 -86.079312 
L 167.521997 -86.079312 
L 170.580804 -86.079312 
L 173.63961 -86.079312 
L 176.698417 -86.079312 
L 179.757224 -86.079312 
L 182.81603 -86.079312 
L 185.874837 -86.079312 
L 188.933643 -86.079312 
L 191.99245 -86.079312 
L 195.051256 -86.079312 
L 198.110063 -86.079312 
L 201.168869 -86.079312 
L 204.227676 -86.079312 
L 207.286482 -86.079312 
L 210.345289 -86.079312 
L 213.404095 -86.079312 
L 216.462902 -86.079312 
L 219.521708 -86.079312 
L 222.580515 -86.079312 
L 225.639322 -86.079312 
L 228.698128 -86.079312 
L 231.756935 -86.079312 
L 234.815741 -86.079312 
L 237.874548 -86.079312 
L 240.933354 -86.079312 
L 243.992161 -86.079312 
L 247.050967 -86.079312 
L 250.109774 -86.079312 
L 253.16858 -86.079312 
L 256.227387 -86.079312 
L 259.286193 -86.079312 
L 262.345 -86.079312 
L 265.403806 -86.079312 
L 268.462613 -86.079312 
L 271.52142 -86.079312 
L 274.580226 -86.079312 
L 277.639033 -86.079312 
L 280.697839 -86.079312 
L 283.756646 -86.079312 
L 286.815452 -86.079312 
L 289.874259 -86.079312 
L 292.933065 -86.079312 
L 295.991872 -86.079312 
L 299.050678 -86.079312 
L 302.109485 -86.079312 
L 305.168291 -86.079312 
L 308.227098 -86.079312 
L 311.285904 -86.079312 
L 314.344711 -86.079312 
L 317.403518 -86.079312 
L 320.462324 -86.079312 
L 323.521131 -86.079312 
L 326.579937 -86.079312 
L 329.638744 -86.079312 
L 332.69755 -86.079312 
L 335.756357 -86.079312 
L 338.815163 -86.079312 
L 341.87397 -86.079312 
L 344.932776 -86.079312 
L 347.991583 -86.079312 
L 351.050389 -86.079312 
L 354.109196 -86.079312 
L 357.168002 -86.079312 
L 360.226809 -86.079312 
L 363.285616 -86.079312 
L 366.344422 -86.079312 
L 369.403229 -86.079312 
L 372.462035 -86.079312 
L 375.520842 -86.079312 
L 378.579648 -86.079312 
L 381.638455 -86.079312 
L 384.697261 -86.079312 
L 387.756068 -86.079312 
L 390.814874 -86.079312 
L 393.873681 -86.079312 
L 396.932487 -86.079312 
L 399.991294 -86.079312 
L 403.0501 -86.079312 
L 406.108907 -86.079312 
L 409.167714 -86.079312 
L 412.22652 -86.079312 
L 415.285327 -86.079312 
L 418.344133 -86.079312 
L 421.40294 -86.079312 
L 424.461746 -86.079312 
L 427.520553 -86.079312 
L 430.579359 -86.079312 
L 433.638166 -86.079312 
L 436.696972 -86.079312 
L 439.755779 -86.079312 
L 442.814585 -86.079312 
L 445.873392 -86.079312 
L 448.932198 -86.079312 
L 451.991005 -86.079312 
L 455.049811 -86.079312 
L 458.108618 -86.079312 
L 461.167425 -86.079312 
L 464.226231 -86.079312 
L 467.285038 -86.079312 
L 470.343844 -86.079312 
L 473.402651 -86.079312 
L 476.461457 -86.079312 
L 479.520264 -86.079312 
L 482.57907 -86.079312 
L 485.637877 -86.079312 
L 488.696683 -86.079312 
L 491.75549 -86.079312 
L 494.814296 -86.079312 
L 497.873103 -86.079312 
L 500.931909 -86.079312 
L 503.990716 -86.079312 
L 507.049523 -86.079312 
L 510.108329 -86.079312 
L 513.167136 -86.079312 
L 516.225942 -86.079312 
L 519.284749 -86.079312 
L 522.343555 -86.079312 
L 525.402362 -86.079312 
L 528.461168 -86.079312 
L 531.519975 -86.079312 
L 534.578781 -86.079312 
L 537.637588 -86.079312 
L 540.696394 -86.079312 
L 543.755201 -86.079312 
L 546.814007 -86.079312 
L 549.872814 -86.079312 
L 552.931621 -86.079312 
L 555.990427 -86.079312 
L 559.049234 -86.079312 
L 562.10804 -86.079312 
L 565.166847 -86.079312 
L 568.225653 -86.079312 
L 571.28446 -86.079312 
L 574.343266 -86.079312 
L 577.402073 -86.079312 
L 580.460879 -86.079312 
L 583.519686 -86.079312 
L 586.578492 -86.079312 
L 589.637299 -86.079312 
L 592.696105 -86.079312 
L 595.754912 -86.079312 
L 598.813719 -86.079312 
L 601.872525 -86.079312 
L 604.931332 -86.079312 
L 607.990138 -86.079312 
L 611.048945 -86.079312 
L 614.107751 -86.079312 
L 617.166558 -86.079312 
L 620.225364 -86.079312 
L 623.284171 -86.079312 
L 626.342977 -86.079312 
L 629.401784 -86.079312 
L 632.46059 -86.079312 
L 635.519397 -86.079312 
L 638.578203 -86.079312 
L 641.63701 -86.079312 
L 644.695817 -86.079312 
L 647.754623 -86.079312 
L 650.81343 -86.079312 
L 653.872236 -86.079312 
L 656.931043 -86.079312 
L 659.989849 -86.079312 
L 663.048656 -86.079312 
L 666.107462 -86.079312 
L 669.166269 -86.079312 
L 672.225075 -86.079312 
L 675.283882 -86.079312 
L 678.342688 -86.079312 
L 681.401495 -86.079312 
L 684.460301 -86.079312 
L 687.519108 -86.079312 
L 690.577915 -86.079312 
L 693.636721 -86.079312 
L 696.695528 -86.079312 
L 699.754334 -86.079312 
L 702.813141 -86.079312 
L 705.871947 -86.079312 
L 708.930754 -86.079312 
L 711.98956 -86.079312 
L 715.048367 -86.079312 
L 718.107173 -86.079312 
L 721.16598 -86.079312 
L 724.224786 -86.079312 
L 727.283593 -86.079312 
L 730.342399 -86.079312 
L 733.401206 -86.079312 
L 736.460013 -86.079312 
L 736.460013 -120.829037 
L 736.460013 -120.829037 
L 733.401206 -121.959996 
L 730.342399 -123.066689 
L 727.283593 -124.145241 
L 724.224786 -125.19189 
L 721.16598 -126.203015 
L 718.107173 -127.17517 
L 715.048367 -128.105115 
L 711.98956 -128.989841 
L 708.930754 -129.826603 
L 705.871947 -130.612939 
L 702.813141 -131.346697 
L 699.754334 -132.026053 
L 696.695528 -132.649525 
L 693.636721 -133.215988 
L 690.577915 -133.724686 
L 687.519108 -134.175229 
L 684.460301 -134.567606 
L 681.401495 -134.90217 
L 678.342688 -135.179643 
L 675.283882 -135.401096 
L 672.225075 -135.56794 
L 669.166269 -135.681909 
L 666.107462 -135.745032 
L 663.048656 -135.759615 
L 659.989849 -135.72821 
L 656.931043 -135.653585 
L 653.872236 -135.538694 
L 650.81343 -135.386639 
L 647.754623 -135.200638 
L 644.695817 -134.983991 
L 641.63701 -134.740038 
L 638.578203 -134.472127 
L 635.519397 -134.18358 
L 632.46059 -133.877656 
L 629.401784 -133.557522 
L 626.342977 -133.226218 
L 623.284171 -132.886635 
L 620.225364 -132.541488 
L 617.166558 -132.193291 
L 614.107751 -131.844347 
L 611.048945 -131.496722 
L 607.990138 -131.152245 
L 604.931332 -130.812494 
L 601.872525 -130.478794 
L 598.813719 -130.152218 
L 595.754912 -129.833592 
L 592.696105 -129.523501 
L 589.637299 -129.2223 
L 586.578492 -128.930129 
L 583.519686 -128.646926 
L 580.460879 -128.372452 
L 577.402073 -128.106305 
L 574.343266 -127.84795 
L 571.28446 -127.596734 
L 568.225653 -127.351918 
L 565.166847 -127.112699 
L 562.10804 -126.878233 
L 559.049234 -126.647661 
L 555.990427 -126.420135 
L 552.931621 -126.194834 
L 549.872814 -125.970991 
L 546.814007 -125.747905 
L 543.755201 -125.524964 
L 540.696394 -125.301657 
L 537.637588 -125.077582 
L 534.578781 -124.85246 
L 531.519975 -124.626139 
L 528.461168 -124.398597 
L 525.402362 -124.169942 
L 522.343555 -123.940414 
L 519.284749 -123.710375 
L 516.225942 -123.480305 
L 513.167136 -123.250791 
L 510.108329 -123.022519 
L 507.049523 -122.796255 
L 503.990716 -122.572836 
L 500.931909 -122.353151 
L 497.873103 -122.138125 
L 494.814296 -121.9287 
L 491.75549 -121.725823 
L 488.696683 -121.53042 
L 485.637877 -121.343389 
L 482.57907 -121.165573 
L 479.520264 -120.997755 
L 476.461457 -120.840638 
L 473.402651 -120.694833 
L 470.343844 -120.56085 
L 467.285038 -120.43909 
L 464.226231 -120.329837 
L 461.167425 -120.233252 
L 458.108618 -120.149374 
L 455.049811 -120.078117 
L 451.991005 -120.019274 
L 448.932198 -119.972519 
L 445.873392 -119.937417 
L 442.814585 -119.913425 
L 439.755779 -119.899908 
L 436.696972 -119.896148 
L 433.638166 -119.901353 
L 430.579359 -119.914673 
L 427.520553 -119.935213 
L 424.461746 -119.962049 
L 421.40294 -119.994235 
L 418.344133 -120.030825 
L 415.285327 -120.070882 
L 412.22652 -120.113493 
L 409.167714 -120.157777 
L 406.108907 -120.2029 
L 403.0501 -120.248081 
L 399.991294 -120.292603 
L 396.932487 -120.335815 
L 393.873681 -120.377143 
L 390.814874 -120.416086 
L 387.756068 -120.452224 
L 384.697261 -120.485212 
L 381.638455 -120.514785 
L 378.579648 -120.540748 
L 375.520842 -120.562977 
L 372.462035 -120.581412 
L 369.403229 -120.59605 
L 366.344422 -120.60694 
L 363.285616 -120.614174 
L 360.226809 -120.617881 
L 357.168002 -120.618217 
L 354.109196 -120.615359 
L 351.050389 -120.609499 
L 347.991583 -120.600837 
L 344.932776 -120.589571 
L 341.87397 -120.575899 
L 338.815163 -120.560009 
L 335.756357 -120.542076 
L 332.69755 -120.522266 
L 329.638744 -120.500726 
L 326.579937 -120.477591 
L 323.521131 -120.45298 
L 320.462324 -120.427 
L 317.403518 -120.399749 
L 314.344711 -120.371316 
L 311.285904 -120.341787 
L 308.227098 -120.311248 
L 305.168291 -120.27979 
L 302.109485 -120.247511 
L 299.050678 -120.214519 
L 295.991872 -120.180938 
L 292.933065 -120.146908 
L 289.874259 -120.112591 
L 286.815452 -120.078164 
L 283.756646 -120.043828 
L 280.697839 -120.009801 
L 277.639033 -119.976319 
L 274.580226 -119.943628 
L 271.52142 -119.911986 
L 268.462613 -119.881653 
L 265.403806 -119.852884 
L 262.345 -119.825923 
L 259.286193 -119.800994 
L 256.227387 -119.778291 
L 253.16858 -119.757968 
L 250.109774 -119.74013 
L 247.050967 -119.724821 
L 243.992161 -119.712015 
L 240.933354 -119.701605 
L 237.874548 -119.693395 
L 234.815741 -119.68709 
L 231.756935 -119.68229 
L 228.698128 -119.678483 
L 225.639322 -119.675039 
L 222.580515 -119.67121 
L 219.521708 -119.666124 
L 216.462902 -119.658792 
L 213.404095 -119.648105 
L 210.345289 -119.63284 
L 207.286482 -119.611671 
L 204.227676 -119.58317 
L 201.168869 -119.545828 
L 198.110063 -119.498059 
L 195.051256 -119.438221 
L 191.99245 -119.364627 
L 188.933643 -119.275569 
L 185.874837 -119.169333 
L 182.81603 -119.044219 
L 179.757224 -118.898566 
L 176.698417 -118.730766 
L 173.63961 -118.539293 
L 170.580804 -118.322718 
L 167.521997 -118.079731 
L 164.463191 -117.809162 
L 161.404384 -117.509997 
L 158.345578 -117.181397 
L 155.286771 -116.822708 
L 152.227965 -116.433479 
L 149.169158 -116.013471 
L 146.110352 -115.562662 
L 143.051545 -115.081257 
L 139.992739 -114.569686 
L 136.933932 -114.028609 
L 133.875126 -113.458907 
L 130.816319 -112.861684 
L 127.757513 -112.238253 
z
" style="stroke: #7570b3"/>
    </defs>
    <g clip-path="url(#p176bd75020)">
     <use xlink:href="#m1175dae3d3" x="0" y="280.655312" style="fill: #7570b3; fill-opacity: 0.5; stroke: #7570b3"/>
    </g>
   </g>
   <g id="matplotlib.axis_5">
    <g id="xtick_13">
     <g id="line2d_17">
      <g>
       <use xlink:href="#m414c0b74f7" x="127.757513" y="194.576" style="stroke: #000000; stroke-width: 0.8"/>
      </g>
     </g>
    </g>
    <g id="xtick_14">
     <g id="line2d_18">
      <g>
       <use xlink:href="#m414c0b74f7" x="249.498013" y="194.576" style="stroke: #000000; stroke-width: 0.8"/>
      </g>
     </g>
    </g>
    <g id="xtick_15">
     <g id="line2d_19">
      <g>
       <use xlink:href="#m414c0b74f7" x="371.238513" y="194.576" style="stroke: #000000; stroke-width: 0.8"/>
      </g>
     </g>
    </g>
    <g id="xtick_16">
     <g id="line2d_20">
      <g>
       <use xlink:href="#m414c0b74f7" x="492.979013" y="194.576" style="stroke: #000000; stroke-width: 0.8"/>
      </g>
     </g>
    </g>
    <g id="xtick_17">
     <g id="line2d_21">
      <g>
       <use xlink:href="#m414c0b74f7" x="614.719513" y="194.576" style="stroke: #000000; stroke-width: 0.8"/>
      </g>
     </g>
    </g>
    <g id="xtick_18">
     <g id="line2d_22">
      <g>
       <use xlink:href="#m414c0b74f7" x="736.460013" y="194.576" style="stroke: #000000; stroke-width: 0.8"/>
      </g>
     </g>
    </g>
   </g>
   <g id="matplotlib.axis_6"/>
   <g id="line2d_23">
    <path d="M 127.757513 168.41706 
L 136.933932 166.626704 
L 146.110352 165.09265 
L 155.286771 163.832605 
L 164.463191 162.846151 
L 173.63961 162.116019 
L 182.81603 161.611093 
L 195.051256 161.217092 
L 210.345289 161.022472 
L 292.933065 160.508404 
L 338.815163 160.095304 
L 366.344422 160.048372 
L 390.814874 160.239226 
L 439.755779 160.755404 
L 455.049811 160.577196 
L 467.285038 160.216222 
L 479.520264 159.657557 
L 494.814296 158.726612 
L 519.284749 156.944937 
L 583.519686 152.008386 
L 598.813719 150.503095 
L 620.225364 148.113825 
L 635.519397 146.471732 
L 644.695817 145.671321 
L 653.872236 145.116619 
L 659.989849 144.927103 
L 666.107462 144.91028 
L 672.225075 145.087372 
L 678.342688 145.47567 
L 684.460301 146.087707 
L 690.577915 146.930627 
L 696.695528 148.005788 
L 702.813141 149.308615 
L 708.930754 150.82871 
L 715.048367 152.550198 
L 721.16598 154.452298 
L 730.342399 157.588623 
L 736.460013 159.826276 
L 736.460013 159.826276 
" clip-path="url(#p176bd75020)" style="fill: none; stroke: #ffffff; stroke-width: 2; stroke-linecap: square"/>
   </g>
   <g id="line2d_24">
    <path d="M 127.757513 194.576 
L 736.460013 194.576 
" style="fill: none; stroke: #000000; stroke-linecap: square"/>
   </g>
   <g id="text_3">
    <g id="patch_7">
     <path d="M 3.24 203.985687 
L 67.80375 203.985687 
L 67.80375 185.166312 
L 3.24 185.166312 
z
" style="fill: #ffffff; opacity: 0.5"/>
    </g>
    <!-- Geothermal -->
    <g transform="translate(7.2 197.458812) scale(0.12 -0.12)">
     <defs>
      <path id="TimesNewRomanPSMT-47" d="M 3928 4334 
L 4038 2997 
L 3928 2997 
Q 3763 3497 3500 3750 
Q 3122 4116 2528 4116 
Q 1719 4116 1297 3475 
Q 944 2934 944 2188 
Q 944 1581 1178 1081 
Q 1413 581 1792 348 
Q 2172 116 2572 116 
Q 2806 116 3025 175 
Q 3244 234 3447 350 
L 3447 1575 
Q 3447 1894 3398 1992 
Q 3350 2091 3248 2142 
Q 3147 2194 2891 2194 
L 2891 2313 
L 4531 2313 
L 4531 2194 
L 4453 2194 
Q 4209 2194 4119 2031 
Q 4056 1916 4056 1575 
L 4056 278 
Q 3697 84 3347 -6 
Q 2997 -97 2569 -97 
Q 1341 -97 703 691 
Q 225 1281 225 2053 
Q 225 2613 494 3125 
Q 813 3734 1369 4063 
Q 1834 4334 2469 4334 
Q 2700 4334 2889 4296 
Q 3078 4259 3425 4131 
Q 3600 4066 3659 4066 
Q 3719 4066 3761 4120 
Q 3803 4175 3813 4334 
L 3928 4334 
z
" transform="scale(0.015625)"/>
      <path id="TimesNewRomanPSMT-65" d="M 681 1784 
Q 678 1147 991 784 
Q 1303 422 1725 422 
Q 2006 422 2214 576 
Q 2422 731 2563 1106 
L 2659 1044 
Q 2594 616 2278 264 
Q 1963 -88 1488 -88 
Q 972 -88 605 314 
Q 238 716 238 1394 
Q 238 2128 614 2539 
Q 991 2950 1559 2950 
Q 2041 2950 2350 2633 
Q 2659 2316 2659 1784 
L 681 1784 
z
M 681 1966 
L 2006 1966 
Q 1991 2241 1941 2353 
Q 1863 2528 1708 2628 
Q 1553 2728 1384 2728 
Q 1125 2728 920 2526 
Q 716 2325 681 1966 
z
" transform="scale(0.015625)"/>
      <path id="TimesNewRomanPSMT-74" d="M 1031 3803 
L 1031 2863 
L 1700 2863 
L 1700 2644 
L 1031 2644 
L 1031 788 
Q 1031 509 1111 412 
Q 1191 316 1316 316 
Q 1419 316 1516 380 
Q 1613 444 1666 569 
L 1788 569 
Q 1678 263 1478 108 
Q 1278 -47 1066 -47 
Q 922 -47 784 33 
Q 647 113 581 261 
Q 516 409 516 719 
L 516 2644 
L 63 2644 
L 63 2747 
Q 234 2816 414 2980 
Q 594 3144 734 3369 
Q 806 3488 934 3803 
L 1031 3803 
z
" transform="scale(0.015625)"/>
      <path id="TimesNewRomanPSMT-68" d="M 1041 4444 
L 1041 2350 
Q 1388 2731 1591 2839 
Q 1794 2947 1997 2947 
Q 2241 2947 2416 2812 
Q 2591 2678 2675 2391 
Q 2734 2191 2734 1659 
L 2734 647 
Q 2734 375 2778 275 
Q 2809 200 2884 156 
Q 2959 113 3159 113 
L 3159 0 
L 1753 0 
L 1753 113 
L 1819 113 
Q 2019 113 2097 173 
Q 2175 234 2206 353 
Q 2216 403 2216 647 
L 2216 1659 
Q 2216 2128 2167 2275 
Q 2119 2422 2012 2495 
Q 1906 2569 1756 2569 
Q 1603 2569 1437 2487 
Q 1272 2406 1041 2159 
L 1041 647 
Q 1041 353 1073 281 
Q 1106 209 1195 161 
Q 1284 113 1503 113 
L 1503 0 
L 84 0 
L 84 113 
Q 275 113 384 172 
Q 447 203 484 290 
Q 522 378 522 647 
L 522 3238 
Q 522 3728 498 3840 
Q 475 3953 426 3993 
Q 378 4034 297 4034 
Q 231 4034 84 3984 
L 41 4094 
L 897 4444 
L 1041 4444 
z
" transform="scale(0.015625)"/>
     </defs>
     <use xlink:href="#TimesNewRomanPSMT-47"/>
     <use xlink:href="#TimesNewRomanPSMT-65" transform="translate(72.216797 0)"/>
     <use xlink:href="#TimesNewRomanPSMT-6f" transform="translate(116.601562 0)"/>
     <use xlink:href="#TimesNewRomanPSMT-74" transform="translate(166.601562 0)"/>
     <use xlink:href="#TimesNewRomanPSMT-68" transform="translate(194.384766 0)"/>
     <use xlink:href="#TimesNewRomanPSMT-65" transform="translate(244.384766 0)"/>
     <use xlink:href="#TimesNewRomanPSMT-72" transform="translate(288.769531 0)"/>
     <use xlink:href="#TimesNewRomanPSMT-6d" transform="translate(322.070312 0)"/>
     <use xlink:href="#TimesNewRomanPSMT-61" transform="translate(399.853516 0)"/>
     <use xlink:href="#TimesNewRomanPSMT-6c" transform="translate(444.238281 0)"/>
    </g>
   </g>
  </g>
  <g id="axes_4">
   <g id="patch_8">
    <path d="M 127.757513 238.84 
L 736.460013 238.84 
L 736.460013 150.312 
L 127.757513 150.312 
L 127.757513 238.84 
z
" style="fill: none; opacity: 0"/>
   </g>
   <g id="FillBetweenPolyCollection_4">
    <defs>
     <path id="m348eb3be5b" d="M 127.757513 -60.909769 
L 127.757513 -41.815313 
L 130.816319 -41.815313 
L 133.875126 -41.815313 
L 136.933932 -41.815313 
L 139.992739 -41.815313 
L 143.051545 -41.815313 
L 146.110352 -41.815313 
L 149.169158 -41.815313 
L 152.227965 -41.815313 
L 155.286771 -41.815313 
L 158.345578 -41.815313 
L 161.404384 -41.815313 
L 164.463191 -41.815313 
L 167.521997 -41.815313 
L 170.580804 -41.815313 
L 173.63961 -41.815313 
L 176.698417 -41.815313 
L 179.757224 -41.815313 
L 182.81603 -41.815313 
L 185.874837 -41.815313 
L 188.933643 -41.815313 
L 191.99245 -41.815313 
L 195.051256 -41.815313 
L 198.110063 -41.815313 
L 201.168869 -41.815313 
L 204.227676 -41.815313 
L 207.286482 -41.815313 
L 210.345289 -41.815313 
L 213.404095 -41.815313 
L 216.462902 -41.815313 
L 219.521708 -41.815313 
L 222.580515 -41.815313 
L 225.639322 -41.815313 
L 228.698128 -41.815313 
L 231.756935 -41.815313 
L 234.815741 -41.815313 
L 237.874548 -41.815313 
L 240.933354 -41.815313 
L 243.992161 -41.815313 
L 247.050967 -41.815313 
L 250.109774 -41.815313 
L 253.16858 -41.815313 
L 256.227387 -41.815313 
L 259.286193 -41.815313 
L 262.345 -41.815313 
L 265.403806 -41.815313 
L 268.462613 -41.815313 
L 271.52142 -41.815313 
L 274.580226 -41.815313 
L 277.639033 -41.815313 
L 280.697839 -41.815313 
L 283.756646 -41.815313 
L 286.815452 -41.815313 
L 289.874259 -41.815313 
L 292.933065 -41.815313 
L 295.991872 -41.815313 
L 299.050678 -41.815313 
L 302.109485 -41.815313 
L 305.168291 -41.815313 
L 308.227098 -41.815313 
L 311.285904 -41.815313 
L 314.344711 -41.815313 
L 317.403518 -41.815313 
L 320.462324 -41.815313 
L 323.521131 -41.815313 
L 326.579937 -41.815313 
L 329.638744 -41.815313 
L 332.69755 -41.815313 
L 335.756357 -41.815313 
L 338.815163 -41.815313 
L 341.87397 -41.815313 
L 344.932776 -41.815313 
L 347.991583 -41.815313 
L 351.050389 -41.815313 
L 354.109196 -41.815313 
L 357.168002 -41.815313 
L 360.226809 -41.815313 
L 363.285616 -41.815313 
L 366.344422 -41.815313 
L 369.403229 -41.815313 
L 372.462035 -41.815313 
L 375.520842 -41.815313 
L 378.579648 -41.815313 
L 381.638455 -41.815313 
L 384.697261 -41.815313 
L 387.756068 -41.815313 
L 390.814874 -41.815313 
L 393.873681 -41.815313 
L 396.932487 -41.815313 
L 399.991294 -41.815313 
L 403.0501 -41.815313 
L 406.108907 -41.815313 
L 409.167714 -41.815313 
L 412.22652 -41.815313 
L 415.285327 -41.815313 
L 418.344133 -41.815313 
L 421.40294 -41.815313 
L 424.461746 -41.815313 
L 427.520553 -41.815313 
L 430.579359 -41.815313 
L 433.638166 -41.815313 
L 436.696972 -41.815313 
L 439.755779 -41.815313 
L 442.814585 -41.815313 
L 445.873392 -41.815313 
L 448.932198 -41.815313 
L 451.991005 -41.815313 
L 455.049811 -41.815313 
L 458.108618 -41.815313 
L 461.167425 -41.815313 
L 464.226231 -41.815313 
L 467.285038 -41.815313 
L 470.343844 -41.815313 
L 473.402651 -41.815313 
L 476.461457 -41.815313 
L 479.520264 -41.815313 
L 482.57907 -41.815313 
L 485.637877 -41.815313 
L 488.696683 -41.815313 
L 491.75549 -41.815313 
L 494.814296 -41.815313 
L 497.873103 -41.815313 
L 500.931909 -41.815313 
L 503.990716 -41.815313 
L 507.049523 -41.815313 
L 510.108329 -41.815313 
L 513.167136 -41.815313 
L 516.225942 -41.815313 
L 519.284749 -41.815313 
L 522.343555 -41.815313 
L 525.402362 -41.815313 
L 528.461168 -41.815313 
L 531.519975 -41.815313 
L 534.578781 -41.815313 
L 537.637588 -41.815313 
L 540.696394 -41.815313 
L 543.755201 -41.815313 
L 546.814007 -41.815313 
L 549.872814 -41.815313 
L 552.931621 -41.815313 
L 555.990427 -41.815313 
L 559.049234 -41.815313 
L 562.10804 -41.815313 
L 565.166847 -41.815313 
L 568.225653 -41.815313 
L 571.28446 -41.815313 
L 574.343266 -41.815313 
L 577.402073 -41.815313 
L 580.460879 -41.815313 
L 583.519686 -41.815313 
L 586.578492 -41.815313 
L 589.637299 -41.815313 
L 592.696105 -41.815313 
L 595.754912 -41.815313 
L 598.813719 -41.815313 
L 601.872525 -41.815313 
L 604.931332 -41.815313 
L 607.990138 -41.815313 
L 611.048945 -41.815313 
L 614.107751 -41.815313 
L 617.166558 -41.815313 
L 620.225364 -41.815313 
L 623.284171 -41.815313 
L 626.342977 -41.815313 
L 629.401784 -41.815313 
L 632.46059 -41.815313 
L 635.519397 -41.815313 
L 638.578203 -41.815313 
L 641.63701 -41.815313 
L 644.695817 -41.815313 
L 647.754623 -41.815313 
L 650.81343 -41.815313 
L 653.872236 -41.815313 
L 656.931043 -41.815313 
L 659.989849 -41.815313 
L 663.048656 -41.815313 
L 666.107462 -41.815313 
L 669.166269 -41.815313 
L 672.225075 -41.815313 
L 675.283882 -41.815313 
L 678.342688 -41.815313 
L 681.401495 -41.815313 
L 684.460301 -41.815313 
L 687.519108 -41.815313 
L 690.577915 -41.815313 
L 693.636721 -41.815313 
L 696.695528 -41.815313 
L 699.754334 -41.815313 
L 702.813141 -41.815313 
L 705.871947 -41.815313 
L 708.930754 -41.815313 
L 711.98956 -41.815313 
L 715.048367 -41.815313 
L 718.107173 -41.815313 
L 721.16598 -41.815313 
L 724.224786 -41.815313 
L 727.283593 -41.815313 
L 730.342399 -41.815313 
L 733.401206 -41.815313 
L 736.460013 -41.815313 
L 736.460013 -59.095446 
L 736.460013 -59.095446 
L 733.401206 -59.604709 
L 730.342399 -60.091402 
L 727.283593 -60.554113 
L 724.224786 -60.99163 
L 721.16598 -61.402934 
L 718.107173 -61.787196 
L 715.048367 -62.143765 
L 711.98956 -62.472153 
L 708.930754 -62.772025 
L 705.871947 -63.043173 
L 702.813141 -63.285503 
L 699.754334 -63.499015 
L 696.695528 -63.683783 
L 693.636721 -63.839938 
L 690.577915 -63.967651 
L 687.519108 -64.067119 
L 684.460301 -64.138552 
L 681.401495 -64.182168 
L 678.342688 -64.198181 
L 675.283882 -64.186803 
L 672.225075 -64.148243 
L 669.166269 -64.08271 
L 666.107462 -63.990424 
L 663.048656 -63.871619 
L 659.989849 -63.726563 
L 656.931043 -63.555566 
L 653.872236 -63.359003 
L 650.81343 -63.137326 
L 647.754623 -62.891086 
L 644.695817 -62.620951 
L 641.63701 -62.327725 
L 638.578203 -62.012367 
L 635.519397 -61.676005 
L 632.46059 -61.319956 
L 629.401784 -60.945734 
L 626.342977 -60.555066 
L 623.284171 -60.149895 
L 620.225364 -59.732386 
L 617.166558 -59.304931 
L 614.107751 -58.870141 
L 611.048945 -58.43084 
L 607.990138 -57.99006 
L 604.931332 -57.551021 
L 601.872525 -57.117113 
L 598.813719 -56.691879 
L 595.754912 -56.278983 
L 592.696105 -55.882182 
L 589.637299 -55.505296 
L 586.578492 -55.15217 
L 583.519686 -54.826637 
L 580.460879 -54.532478 
L 577.402073 -54.27338 
L 574.343266 -54.052897 
L 571.28446 -53.874403 
L 568.225653 -53.741057 
L 565.166847 -53.655753 
L 562.10804 -53.621092 
L 559.049234 -53.639337 
L 555.990427 -53.712385 
L 552.931621 -53.841735 
L 549.872814 -54.028466 
L 546.814007 -54.273213 
L 543.755201 -54.576157 
L 540.696394 -54.937015 
L 537.637588 -55.355035 
L 534.578781 -55.829004 
L 531.519975 -56.357258 
L 528.461168 -56.937699 
L 525.402362 -57.567818 
L 522.343555 -58.244728 
L 519.284749 -58.965201 
L 516.225942 -59.725706 
L 513.167136 -60.522462 
L 510.108329 -61.351484 
L 507.049523 -62.208645 
L 503.990716 -63.089727 
L 500.931909 -63.990487 
L 497.873103 -64.906715 
L 494.814296 -65.834295 
L 491.75549 -66.769267 
L 488.696683 -67.70788 
L 485.637877 -68.646653 
L 482.57907 -69.582417 
L 479.520264 -70.512369 
L 476.461457 -71.434105 
L 473.402651 -72.345656 
L 470.343844 -73.245513 
L 467.285038 -74.132647 
L 464.226231 -75.006516 
L 461.167425 -75.867073 
L 458.108618 -76.714755 
L 455.049811 -77.550473 
L 451.991005 -78.37559 
L 448.932198 -79.191891 
L 445.873392 -80.001548 
L 442.814585 -80.807079 
L 439.755779 -81.611299 
L 436.696972 -82.417264 
L 433.638166 -83.22822 
L 430.579359 -84.047534 
L 427.520553 -84.878636 
L 424.461746 -85.724951 
L 421.40294 -86.589831 
L 418.344133 -87.476493 
L 415.285327 -88.387945 
L 412.22652 -89.32693 
L 409.167714 -90.29586 
L 406.108907 -91.296757 
L 403.0501 -92.331203 
L 399.991294 -93.400288 
L 396.932487 -94.504572 
L 393.873681 -95.644043 
L 390.814874 -96.818094 
L 387.756068 -98.025499 
L 384.697261 -99.264404 
L 381.638455 -100.532324 
L 378.579648 -101.826145 
L 375.520842 -103.142146 
L 372.462035 -104.47602 
L 369.403229 -105.82291 
L 366.344422 -107.177452 
L 363.285616 -108.533827 
L 360.226809 -109.88582 
L 357.168002 -111.226888 
L 354.109196 -112.550231 
L 351.050389 -113.848868 
L 347.991583 -115.115724 
L 344.932776 -116.343706 
L 341.87397 -117.525792 
L 338.815163 -118.655112 
L 335.756357 -119.725033 
L 332.69755 -120.729232 
L 329.638744 -121.661775 
L 326.579937 -122.517181 
L 323.521131 -123.290483 
L 320.462324 -123.97728 
L 317.403518 -124.573783 
L 314.344711 -125.076846 
L 311.285904 -125.483989 
L 308.227098 -125.793417 
L 305.168291 -126.004019 
L 302.109485 -126.115367 
L 299.050678 -126.127693 
L 295.991872 -126.041875 
L 292.933065 -125.859396 
L 289.874259 -125.582307 
L 286.815452 -125.213184 
L 283.756646 -124.755071 
L 280.697839 -124.211428 
L 277.639033 -123.586071 
L 274.580226 -122.88311 
L 271.52142 -122.106888 
L 268.462613 -121.261917 
L 265.403806 -120.352819 
L 262.345 -119.384266 
L 259.286193 -118.360925 
L 256.227387 -117.287403 
L 253.16858 -116.168202 
L 250.109774 -115.007676 
L 247.050967 -113.809992 
L 243.992161 -112.579098 
L 240.933354 -111.318702 
L 237.874548 -110.032247 
L 234.815741 -108.722906 
L 231.756935 -107.393568 
L 228.698128 -106.046843 
L 225.639322 -104.685065 
L 222.580515 -103.310307 
L 219.521708 -101.924392 
L 216.462902 -100.528915 
L 213.404095 -99.12527 
L 210.345289 -97.714674 
L 207.286482 -96.298194 
L 204.227676 -94.876786 
L 201.168869 -93.451315 
L 198.110063 -92.022595 
L 195.051256 -90.591417 
L 191.99245 -89.158573 
L 188.933643 -87.724889 
L 185.874837 -86.291245 
L 182.81603 -84.858594 
L 179.757224 -83.427981 
L 176.698417 -82.000555 
L 173.63961 -80.577574 
L 170.580804 -79.160412 
L 167.521997 -77.750561 
L 164.463191 -76.349619 
L 161.404384 -74.95929 
L 158.345578 -73.581369 
L 155.286771 -72.217727 
L 152.227965 -70.870294 
L 149.169158 -69.541042 
L 146.110352 -68.231964 
L 143.051545 -66.945049 
L 139.992739 -65.682265 
L 136.933932 -64.445534 
L 133.875126 -63.236713 
L 130.816319 -62.05757 
L 127.757513 -60.909769 
z
" style="stroke: #e7298a"/>
    </defs>
    <g clip-path="url(#p28cf1f5c52)">
     <use xlink:href="#m348eb3be5b" x="0" y="280.655312" style="fill: #e7298a; fill-opacity: 0.5; stroke: #e7298a"/>
    </g>
   </g>
   <g id="matplotlib.axis_7">
    <g id="xtick_19">
     <g id="line2d_25">
      <g>
       <use xlink:href="#m414c0b74f7" x="127.757513" y="238.84" style="stroke: #000000; stroke-width: 0.8"/>
      </g>
     </g>
     <g id="text_4">
      <!-- 0 -->
      <g transform="translate(124.757513 254.1725) scale(0.12 -0.12)">
       <defs>
        <path id="TimesNewRomanPSMT-30" d="M 231 2094 
Q 231 2819 450 3342 
Q 669 3866 1031 4122 
Q 1313 4325 1613 4325 
Q 2100 4325 2488 3828 
Q 2972 3213 2972 2159 
Q 2972 1422 2759 906 
Q 2547 391 2217 158 
Q 1888 -75 1581 -75 
Q 975 -75 572 641 
Q 231 1244 231 2094 
z
M 844 2016 
Q 844 1141 1059 588 
Q 1238 122 1591 122 
Q 1759 122 1940 273 
Q 2122 425 2216 781 
Q 2359 1319 2359 2297 
Q 2359 3022 2209 3506 
Q 2097 3866 1919 4016 
Q 1791 4119 1609 4119 
Q 1397 4119 1231 3928 
Q 1006 3669 925 3112 
Q 844 2556 844 2016 
z
" transform="scale(0.015625)"/>
       </defs>
       <use xlink:href="#TimesNewRomanPSMT-30"/>
      </g>
     </g>
    </g>
    <g id="xtick_20">
     <g id="line2d_26">
      <g>
       <use xlink:href="#m414c0b74f7" x="249.498013" y="238.84" style="stroke: #000000; stroke-width: 0.8"/>
      </g>
     </g>
     <g id="text_5">
      <!-- 20 -->
      <g transform="translate(243.498013 254.1725) scale(0.12 -0.12)">
       <defs>
        <path id="TimesNewRomanPSMT-32" d="M 2934 816 
L 2638 0 
L 138 0 
L 138 116 
Q 1241 1122 1691 1759 
Q 2141 2397 2141 2925 
Q 2141 3328 1894 3587 
Q 1647 3847 1303 3847 
Q 991 3847 742 3664 
Q 494 3481 375 3128 
L 259 3128 
Q 338 3706 661 4015 
Q 984 4325 1469 4325 
Q 1984 4325 2329 3994 
Q 2675 3663 2675 3213 
Q 2675 2891 2525 2569 
Q 2294 2063 1775 1497 
Q 997 647 803 472 
L 1909 472 
Q 2247 472 2383 497 
Q 2519 522 2628 598 
Q 2738 675 2819 816 
L 2934 816 
z
" transform="scale(0.015625)"/>
       </defs>
       <use xlink:href="#TimesNewRomanPSMT-32"/>
       <use xlink:href="#TimesNewRomanPSMT-30" transform="translate(50 0)"/>
      </g>
     </g>
    </g>
    <g id="xtick_21">
     <g id="line2d_27">
      <g>
       <use xlink:href="#m414c0b74f7" x="371.238513" y="238.84" style="stroke: #000000; stroke-width: 0.8"/>
      </g>
     </g>
     <g id="text_6">
      <!-- 40 -->
      <g transform="translate(365.238513 254.1725) scale(0.12 -0.12)">
       <defs>
        <path id="TimesNewRomanPSMT-34" d="M 2978 1563 
L 2978 1119 
L 2409 1119 
L 2409 0 
L 1894 0 
L 1894 1119 
L 100 1119 
L 100 1519 
L 2066 4325 
L 2409 4325 
L 2409 1563 
L 2978 1563 
z
M 1894 1563 
L 1894 3666 
L 406 1563 
L 1894 1563 
z
" transform="scale(0.015625)"/>
       </defs>
       <use xlink:href="#TimesNewRomanPSMT-34"/>
       <use xlink:href="#TimesNewRomanPSMT-30" transform="translate(50 0)"/>
      </g>
     </g>
    </g>
    <g id="xtick_22">
     <g id="line2d_28">
      <g>
       <use xlink:href="#m414c0b74f7" x="492.979013" y="238.84" style="stroke: #000000; stroke-width: 0.8"/>
      </g>
     </g>
     <g id="text_7">
      <!-- 60 -->
      <g transform="translate(486.979013 254.1725) scale(0.12 -0.12)">
       <defs>
        <path id="TimesNewRomanPSMT-36" d="M 2869 4325 
L 2869 4209 
Q 2456 4169 2195 4045 
Q 1934 3922 1679 3669 
Q 1425 3416 1258 3105 
Q 1091 2794 978 2366 
Q 1428 2675 1881 2675 
Q 2316 2675 2634 2325 
Q 2953 1975 2953 1425 
Q 2953 894 2631 456 
Q 2244 -75 1606 -75 
Q 1172 -75 869 213 
Q 275 772 275 1663 
Q 275 2231 503 2743 
Q 731 3256 1154 3653 
Q 1578 4050 1965 4187 
Q 2353 4325 2688 4325 
L 2869 4325 
z
M 925 2138 
Q 869 1716 869 1456 
Q 869 1156 980 804 
Q 1091 453 1309 247 
Q 1469 100 1697 100 
Q 1969 100 2183 356 
Q 2397 613 2397 1088 
Q 2397 1622 2184 2012 
Q 1972 2403 1581 2403 
Q 1463 2403 1327 2353 
Q 1191 2303 925 2138 
z
" transform="scale(0.015625)"/>
       </defs>
       <use xlink:href="#TimesNewRomanPSMT-36"/>
       <use xlink:href="#TimesNewRomanPSMT-30" transform="translate(50 0)"/>
      </g>
     </g>
    </g>
    <g id="xtick_23">
     <g id="line2d_29">
      <g>
       <use xlink:href="#m414c0b74f7" x="614.719513" y="238.84" style="stroke: #000000; stroke-width: 0.8"/>
      </g>
     </g>
     <g id="text_8">
      <!-- 80 -->
      <g transform="translate(608.719513 254.1725) scale(0.12 -0.12)">
       <defs>
        <path id="TimesNewRomanPSMT-38" d="M 1228 2134 
Q 725 2547 579 2797 
Q 434 3047 434 3316 
Q 434 3728 753 4026 
Q 1072 4325 1600 4325 
Q 2113 4325 2425 4047 
Q 2738 3769 2738 3413 
Q 2738 3175 2569 2928 
Q 2400 2681 1866 2347 
Q 2416 1922 2594 1678 
Q 2831 1359 2831 1006 
Q 2831 559 2490 242 
Q 2150 -75 1597 -75 
Q 994 -75 656 303 
Q 388 606 388 966 
Q 388 1247 577 1523 
Q 766 1800 1228 2134 
z
M 1719 2469 
Q 2094 2806 2194 3001 
Q 2294 3197 2294 3444 
Q 2294 3772 2109 3958 
Q 1925 4144 1606 4144 
Q 1288 4144 1088 3959 
Q 888 3775 888 3528 
Q 888 3366 970 3203 
Q 1053 3041 1206 2894 
L 1719 2469 
z
M 1375 2016 
Q 1116 1797 991 1539 
Q 866 1281 866 981 
Q 866 578 1086 336 
Q 1306 94 1647 94 
Q 1984 94 2187 284 
Q 2391 475 2391 747 
Q 2391 972 2272 1150 
Q 2050 1481 1375 2016 
z
" transform="scale(0.015625)"/>
       </defs>
       <use xlink:href="#TimesNewRomanPSMT-38"/>
       <use xlink:href="#TimesNewRomanPSMT-30" transform="translate(50 0)"/>
      </g>
     </g>
    </g>
    <g id="xtick_24">
     <g id="line2d_30">
      <g>
       <use xlink:href="#m414c0b74f7" x="736.460013" y="238.84" style="stroke: #000000; stroke-width: 0.8"/>
      </g>
     </g>
     <g id="text_9">
      <!-- 100 -->
      <g transform="translate(727.460013 254.1725) scale(0.12 -0.12)">
       <defs>
        <path id="TimesNewRomanPSMT-31" d="M 750 3822 
L 1781 4325 
L 1884 4325 
L 1884 747 
Q 1884 391 1914 303 
Q 1944 216 2037 169 
Q 2131 122 2419 116 
L 2419 0 
L 825 0 
L 825 116 
Q 1125 122 1212 167 
Q 1300 213 1334 289 
Q 1369 366 1369 747 
L 1369 3034 
Q 1369 3497 1338 3628 
Q 1316 3728 1258 3775 
Q 1200 3822 1119 3822 
Q 1003 3822 797 3725 
L 750 3822 
z
" transform="scale(0.015625)"/>
       </defs>
       <use xlink:href="#TimesNewRomanPSMT-31"/>
       <use xlink:href="#TimesNewRomanPSMT-30" transform="translate(50 0)"/>
       <use xlink:href="#TimesNewRomanPSMT-30" transform="translate(100 0)"/>
      </g>
     </g>
    </g>
    <g id="text_10">
     <!-- Value -->
     <g transform="translate(416.172825 270.460625) scale(0.14 -0.14)">
      <defs>
       <path id="TimesNewRomanPSMT-56" d="M 4544 4238 
L 4544 4122 
Q 4319 4081 4203 3978 
Q 4038 3825 3909 3509 
L 2431 -97 
L 2316 -97 
L 728 3556 
Q 606 3838 556 3900 
Q 478 3997 364 4051 
Q 250 4106 56 4122 
L 56 4238 
L 1788 4238 
L 1788 4122 
Q 1494 4094 1406 4022 
Q 1319 3950 1319 3838 
Q 1319 3681 1463 3350 
L 2541 866 
L 3541 3319 
Q 3688 3681 3688 3822 
Q 3688 3913 3597 3995 
Q 3506 4078 3291 4113 
Q 3275 4116 3238 4122 
L 3238 4238 
L 4544 4238 
z
" transform="scale(0.015625)"/>
       <path id="TimesNewRomanPSMT-75" d="M 2709 2863 
L 2709 1128 
Q 2709 631 2732 520 
Q 2756 409 2807 365 
Q 2859 322 2928 322 
Q 3025 322 3147 375 
L 3191 266 
L 2334 -88 
L 2194 -88 
L 2194 519 
Q 1825 119 1631 15 
Q 1438 -88 1222 -88 
Q 981 -88 804 51 
Q 628 191 559 409 
Q 491 628 491 1028 
L 491 2306 
Q 491 2509 447 2587 
Q 403 2666 317 2708 
Q 231 2750 6 2747 
L 6 2863 
L 1009 2863 
L 1009 947 
Q 1009 547 1148 422 
Q 1288 297 1484 297 
Q 1619 297 1789 381 
Q 1959 466 2194 703 
L 2194 2325 
Q 2194 2569 2105 2655 
Q 2016 2741 1734 2747 
L 1734 2863 
L 2709 2863 
z
" transform="scale(0.015625)"/>
      </defs>
      <use xlink:href="#TimesNewRomanPSMT-56"/>
      <use xlink:href="#TimesNewRomanPSMT-61" transform="translate(61.091797 0)"/>
      <use xlink:href="#TimesNewRomanPSMT-6c" transform="translate(105.476562 0)"/>
      <use xlink:href="#TimesNewRomanPSMT-75" transform="translate(133.259766 0)"/>
      <use xlink:href="#TimesNewRomanPSMT-65" transform="translate(183.259766 0)"/>
     </g>
    </g>
   </g>
   <g id="matplotlib.axis_8"/>
   <g id="line2d_31">
    <path d="M 127.757513 219.745544 
L 136.933932 216.209778 
L 146.110352 212.423349 
L 158.345578 207.073943 
L 173.63961 200.077739 
L 225.639322 175.970247 
L 237.874548 170.623065 
L 247.050967 166.845321 
L 256.227387 163.36791 
L 262.345 161.271047 
L 268.462613 159.393396 
L 274.580226 157.772203 
L 280.697839 156.443885 
L 286.815452 155.442129 
L 292.933065 154.795917 
L 299.050678 154.527619 
L 305.168291 154.651293 
L 311.285904 155.171324 
L 317.403518 156.081529 
L 323.521131 157.36483 
L 329.638744 158.993537 
L 335.756357 160.93028 
L 341.87397 163.129521 
L 347.991583 165.539588 
L 357.168002 169.428424 
L 384.697261 181.390908 
L 393.873681 185.011269 
L 403.0501 188.32411 
L 412.22652 191.328382 
L 421.40294 194.065481 
L 433.638166 197.427093 
L 464.226231 205.648796 
L 476.461457 209.221207 
L 510.108329 219.303828 
L 519.284749 221.690111 
L 525.402362 223.087495 
L 531.519975 224.298054 
L 537.637588 225.300278 
L 543.755201 226.079155 
L 549.872814 226.626847 
L 555.990427 226.942928 
L 562.10804 227.034221 
L 568.225653 226.914256 
L 574.343266 226.602416 
L 580.460879 226.122835 
L 589.637299 225.150016 
L 601.872525 223.538199 
L 629.401784 219.709578 
L 638.578203 218.642946 
L 647.754623 217.764226 
L 656.931043 217.099746 
L 666.107462 216.664889 
L 675.283882 216.46851 
L 684.460301 216.51676 
L 693.636721 216.815374 
L 702.813141 217.36981 
L 711.98956 218.183159 
L 721.16598 219.252378 
L 730.342399 220.563911 
L 736.460013 221.559866 
L 736.460013 221.559866 
" clip-path="url(#p28cf1f5c52)" style="fill: none; stroke: #ffffff; stroke-width: 2; stroke-linecap: square"/>
   </g>
   <g id="line2d_32">
    <path d="M 127.757513 238.84 
L 736.460013 238.84 
" style="fill: none; stroke: #000000; stroke-linecap: square"/>
   </g>
   <g id="text_11">
    <g id="patch_9">
     <path d="M 33.703125 248.249687 
L 67.80375 248.249687 
L 67.80375 229.430312 
L 33.703125 229.430312 
z
" style="fill: #ffffff; opacity: 0.5"/>
    </g>
    <!-- Wind -->
    <g transform="translate(37.663125 241.722812) scale(0.12 -0.12)">
     <defs>
      <path id="TimesNewRomanPSMT-57" d="M 5991 4238 
L 5991 4122 
Q 5825 4122 5722 4062 
Q 5619 4003 5525 3841 
Q 5463 3731 5328 3319 
L 4147 -97 
L 4022 -97 
L 3056 2613 
L 2097 -97 
L 1984 -97 
L 725 3422 
Q 584 3816 547 3888 
Q 484 4006 376 4064 
Q 269 4122 84 4122 
L 84 4238 
L 1653 4238 
L 1653 4122 
L 1578 4122 
Q 1413 4122 1325 4047 
Q 1238 3972 1238 3866 
Q 1238 3756 1375 3363 
L 2209 984 
L 2913 3006 
L 2788 3363 
L 2688 3647 
Q 2622 3803 2541 3922 
Q 2500 3981 2441 4022 
Q 2363 4078 2284 4103 
Q 2225 4122 2097 4122 
L 2097 4238 
L 3747 4238 
L 3747 4122 
L 3634 4122 
Q 3459 4122 3378 4047 
Q 3297 3972 3297 3844 
Q 3297 3684 3438 3288 
L 4250 984 
L 5056 3319 
Q 5194 3706 5194 3856 
Q 5194 3928 5148 3990 
Q 5103 4053 5034 4078 
Q 4916 4122 4725 4122 
L 4725 4238 
L 5991 4238 
z
" transform="scale(0.015625)"/>
      <path id="TimesNewRomanPSMT-6e" d="M 1034 2341 
Q 1538 2947 1994 2947 
Q 2228 2947 2397 2830 
Q 2566 2713 2666 2444 
Q 2734 2256 2734 1869 
L 2734 647 
Q 2734 375 2778 278 
Q 2813 200 2889 156 
Q 2966 113 3172 113 
L 3172 0 
L 1756 0 
L 1756 113 
L 1816 113 
Q 2016 113 2095 173 
Q 2175 234 2206 353 
Q 2219 400 2219 647 
L 2219 1819 
Q 2219 2209 2117 2386 
Q 2016 2563 1775 2563 
Q 1403 2563 1034 2156 
L 1034 647 
Q 1034 356 1069 288 
Q 1113 197 1189 155 
Q 1266 113 1500 113 
L 1500 0 
L 84 0 
L 84 113 
L 147 113 
Q 366 113 442 223 
Q 519 334 519 647 
L 519 1709 
Q 519 2225 495 2337 
Q 472 2450 423 2490 
Q 375 2531 294 2531 
Q 206 2531 84 2484 
L 38 2597 
L 900 2947 
L 1034 2947 
L 1034 2341 
z
" transform="scale(0.015625)"/>
      <path id="TimesNewRomanPSMT-64" d="M 2222 322 
Q 2013 103 1813 7 
Q 1613 -88 1381 -88 
Q 913 -88 563 304 
Q 213 697 213 1313 
Q 213 1928 600 2439 
Q 988 2950 1597 2950 
Q 1975 2950 2222 2709 
L 2222 3238 
Q 2222 3728 2198 3840 
Q 2175 3953 2125 3993 
Q 2075 4034 2000 4034 
Q 1919 4034 1784 3984 
L 1744 4094 
L 2597 4444 
L 2738 4444 
L 2738 1134 
Q 2738 631 2761 520 
Q 2784 409 2836 365 
Q 2888 322 2956 322 
Q 3041 322 3181 375 
L 3216 266 
L 2366 -88 
L 2222 -88 
L 2222 322 
z
M 2222 541 
L 2222 2016 
Q 2203 2228 2109 2403 
Q 2016 2578 1861 2667 
Q 1706 2756 1559 2756 
Q 1284 2756 1069 2509 
Q 784 2184 784 1559 
Q 784 928 1059 592 
Q 1334 256 1672 256 
Q 1956 256 2222 541 
z
" transform="scale(0.015625)"/>
     </defs>
     <use xlink:href="#TimesNewRomanPSMT-57"/>
     <use xlink:href="#TimesNewRomanPSMT-69" transform="translate(90.384766 0)"/>
     <use xlink:href="#TimesNewRomanPSMT-6e" transform="translate(118.167969 0)"/>
     <use xlink:href="#TimesNewRomanPSMT-64" transform="translate(168.167969 0)"/>
    </g>
   </g>
  </g>
  <g id="text_12">
   <!-- Renewable Energy Share(%) -->
   <g transform="translate(294.551263 18.31) scale(0.16 -0.16)">
    <defs>
     <path id="TimesNewRomanPSMT-52" d="M 4325 0 
L 3194 0 
L 1759 1981 
Q 1600 1975 1500 1975 
Q 1459 1975 1412 1976 
Q 1366 1978 1316 1981 
L 1316 750 
Q 1316 350 1403 253 
Q 1522 116 1759 116 
L 1925 116 
L 1925 0 
L 109 0 
L 109 116 
L 269 116 
Q 538 116 653 291 
Q 719 388 719 750 
L 719 3488 
Q 719 3888 631 3984 
Q 509 4122 269 4122 
L 109 4122 
L 109 4238 
L 1653 4238 
Q 2328 4238 2648 4139 
Q 2969 4041 3192 3777 
Q 3416 3513 3416 3147 
Q 3416 2756 3161 2468 
Q 2906 2181 2372 2063 
L 3247 847 
Q 3547 428 3762 290 
Q 3978 153 4325 116 
L 4325 0 
z
M 1316 2178 
Q 1375 2178 1419 2176 
Q 1463 2175 1491 2175 
Q 2097 2175 2405 2437 
Q 2713 2700 2713 3106 
Q 2713 3503 2464 3751 
Q 2216 4000 1806 4000 
Q 1625 4000 1316 3941 
L 1316 2178 
z
" transform="scale(0.015625)"/>
     <path id="TimesNewRomanPSMT-77" d="M 41 2863 
L 1241 2863 
L 1241 2747 
Q 1075 2734 1023 2687 
Q 972 2641 972 2553 
Q 972 2456 1025 2319 
L 1638 672 
L 2253 2013 
L 2091 2434 
Q 2016 2622 1894 2694 
Q 1825 2738 1638 2747 
L 1638 2863 
L 3000 2863 
L 3000 2747 
Q 2775 2738 2681 2666 
Q 2619 2616 2619 2506 
Q 2619 2444 2644 2378 
L 3294 734 
L 3897 2319 
Q 3959 2488 3959 2588 
Q 3959 2647 3898 2694 
Q 3838 2741 3659 2747 
L 3659 2863 
L 4563 2863 
L 4563 2747 
Q 4291 2706 4163 2378 
L 3206 -88 
L 3078 -88 
L 2363 1741 
L 1528 -88 
L 1413 -88 
L 494 2319 
Q 403 2547 315 2626 
Q 228 2706 41 2747 
L 41 2863 
z
" transform="scale(0.015625)"/>
     <path id="TimesNewRomanPSMT-62" d="M 984 2369 
Q 1400 2947 1881 2947 
Q 2322 2947 2650 2570 
Q 2978 2194 2978 1541 
Q 2978 778 2472 313 
Q 2038 -88 1503 -88 
Q 1253 -88 995 3 
Q 738 94 469 275 
L 469 3241 
Q 469 3728 445 3840 
Q 422 3953 372 3993 
Q 322 4034 247 4034 
Q 159 4034 28 3984 
L -16 4094 
L 844 4444 
L 984 4444 
L 984 2369 
z
M 984 2169 
L 984 456 
Q 1144 300 1314 220 
Q 1484 141 1663 141 
Q 1947 141 2192 453 
Q 2438 766 2438 1363 
Q 2438 1913 2192 2208 
Q 1947 2503 1634 2503 
Q 1469 2503 1303 2419 
Q 1178 2356 984 2169 
z
" transform="scale(0.015625)"/>
     <path id="TimesNewRomanPSMT-20" transform="scale(0.015625)"/>
     <path id="TimesNewRomanPSMT-45" d="M 1338 4006 
L 1338 2331 
L 2269 2331 
Q 2631 2331 2753 2441 
Q 2916 2584 2934 2947 
L 3050 2947 
L 3050 1472 
L 2934 1472 
Q 2891 1781 2847 1869 
Q 2791 1978 2662 2040 
Q 2534 2103 2269 2103 
L 1338 2103 
L 1338 706 
Q 1338 425 1363 364 
Q 1388 303 1450 267 
Q 1513 231 1688 231 
L 2406 231 
Q 2766 231 2928 281 
Q 3091 331 3241 478 
Q 3434 672 3638 1063 
L 3763 1063 
L 3397 0 
L 131 0 
L 131 116 
L 281 116 
Q 431 116 566 188 
Q 666 238 702 338 
Q 738 438 738 747 
L 738 3500 
Q 738 3903 656 3997 
Q 544 4122 281 4122 
L 131 4122 
L 131 4238 
L 3397 4238 
L 3444 3309 
L 3322 3309 
Q 3256 3644 3176 3769 
Q 3097 3894 2941 3959 
Q 2816 4006 2500 4006 
L 1338 4006 
z
" transform="scale(0.015625)"/>
     <path id="TimesNewRomanPSMT-67" d="M 966 1044 
Q 703 1172 562 1401 
Q 422 1631 422 1909 
Q 422 2334 742 2640 
Q 1063 2947 1563 2947 
Q 1972 2947 2272 2747 
L 2878 2747 
Q 3013 2747 3034 2739 
Q 3056 2731 3066 2713 
Q 3084 2684 3084 2613 
Q 3084 2531 3069 2500 
Q 3059 2484 3036 2475 
Q 3013 2466 2878 2466 
L 2506 2466 
Q 2681 2241 2681 1891 
Q 2681 1491 2375 1206 
Q 2069 922 1553 922 
Q 1341 922 1119 984 
Q 981 866 932 777 
Q 884 688 884 625 
Q 884 572 936 522 
Q 988 472 1138 450 
Q 1225 438 1575 428 
Q 2219 413 2409 384 
Q 2700 344 2873 169 
Q 3047 -6 3047 -263 
Q 3047 -616 2716 -925 
Q 2228 -1381 1444 -1381 
Q 841 -1381 425 -1109 
Q 191 -953 191 -784 
Q 191 -709 225 -634 
Q 278 -519 444 -313 
Q 466 -284 763 25 
Q 600 122 533 198 
Q 466 275 466 372 
Q 466 481 555 628 
Q 644 775 966 1044 
z
M 1509 2797 
Q 1278 2797 1122 2612 
Q 966 2428 966 2047 
Q 966 1553 1178 1281 
Q 1341 1075 1591 1075 
Q 1828 1075 1981 1253 
Q 2134 1431 2134 1813 
Q 2134 2309 1919 2591 
Q 1759 2797 1509 2797 
z
M 934 0 
Q 788 -159 713 -296 
Q 638 -434 638 -550 
Q 638 -700 819 -813 
Q 1131 -1006 1722 -1006 
Q 2284 -1006 2551 -807 
Q 2819 -609 2819 -384 
Q 2819 -222 2659 -153 
Q 2497 -84 2016 -72 
Q 1313 -53 934 0 
z
" transform="scale(0.015625)"/>
     <path id="TimesNewRomanPSMT-79" d="M 38 2863 
L 1372 2863 
L 1372 2747 
L 1306 2747 
Q 1166 2747 1095 2686 
Q 1025 2625 1025 2534 
Q 1025 2413 1128 2197 
L 1825 753 
L 2466 2334 
Q 2519 2463 2519 2588 
Q 2519 2644 2497 2672 
Q 2472 2706 2419 2726 
Q 2366 2747 2231 2747 
L 2231 2863 
L 3163 2863 
L 3163 2747 
Q 3047 2734 2984 2696 
Q 2922 2659 2847 2556 
Q 2819 2513 2741 2316 
L 1575 -541 
Q 1406 -956 1132 -1168 
Q 859 -1381 606 -1381 
Q 422 -1381 303 -1275 
Q 184 -1169 184 -1031 
Q 184 -900 270 -820 
Q 356 -741 506 -741 
Q 609 -741 788 -809 
Q 913 -856 944 -856 
Q 1038 -856 1148 -759 
Q 1259 -663 1372 -384 
L 1575 113 
L 547 2272 
Q 500 2369 397 2513 
Q 319 2622 269 2659 
Q 197 2709 38 2747 
L 38 2863 
z
" transform="scale(0.015625)"/>
     <path id="TimesNewRomanPSMT-28" d="M 1988 -1253 
L 1988 -1369 
Q 1516 -1131 1200 -813 
Q 750 -359 506 256 
Q 263 872 263 1534 
Q 263 2503 741 3301 
Q 1219 4100 1988 4444 
L 1988 4313 
Q 1603 4100 1356 3731 
Q 1109 3363 987 2797 
Q 866 2231 866 1616 
Q 866 947 969 400 
Q 1050 -31 1165 -292 
Q 1281 -553 1476 -793 
Q 1672 -1034 1988 -1253 
z
" transform="scale(0.015625)"/>
     <path id="TimesNewRomanPSMT-25" d="M 4350 4334 
L 1263 -175 
L 984 -175 
L 4072 4334 
L 4350 4334 
z
M 1138 4334 
Q 1559 4334 1792 3984 
Q 2025 3634 2025 3181 
Q 2025 2638 1762 2341 
Q 1500 2044 1131 2044 
Q 884 2044 678 2180 
Q 472 2316 348 2584 
Q 225 2853 225 3181 
Q 225 3509 350 3786 
Q 475 4063 692 4198 
Q 909 4334 1138 4334 
z
M 1128 4159 
Q 969 4159 845 3971 
Q 722 3784 722 3184 
Q 722 2750 791 2522 
Q 844 2350 956 2256 
Q 1022 2200 1119 2200 
Q 1269 2200 1375 2363 
Q 1531 2603 1531 3166 
Q 1531 3759 1378 4000 
Q 1278 4159 1128 4159 
z
M 4206 2103 
Q 4428 2103 4648 1962 
Q 4869 1822 4989 1553 
Q 5109 1284 5109 963 
Q 5109 409 4843 117 
Q 4578 -175 4216 -175 
Q 3988 -175 3773 -34 
Q 3559 106 3436 367 
Q 3313 628 3313 963 
Q 3313 1291 3436 1562 
Q 3559 1834 3773 1968 
Q 3988 2103 4206 2103 
z
M 4209 1938 
Q 4059 1938 3950 1769 
Q 3809 1550 3809 941 
Q 3809 381 3953 159 
Q 4059 0 4209 0 
Q 4353 0 4466 172 
Q 4616 400 4616 956 
Q 4616 1544 4466 1778 
Q 4363 1938 4209 1938 
z
" transform="scale(0.015625)"/>
     <path id="TimesNewRomanPSMT-29" d="M 144 4313 
L 144 4444 
Q 619 4209 934 3891 
Q 1381 3434 1625 2820 
Q 1869 2206 1869 1541 
Q 1869 572 1392 -226 
Q 916 -1025 144 -1369 
L 144 -1253 
Q 528 -1038 776 -670 
Q 1025 -303 1145 264 
Q 1266 831 1266 1447 
Q 1266 2113 1163 2663 
Q 1084 3094 967 3353 
Q 850 3613 656 3853 
Q 463 4094 144 4313 
z
" transform="scale(0.015625)"/>
    </defs>
    <use xlink:href="#TimesNewRomanPSMT-52"/>
    <use xlink:href="#TimesNewRomanPSMT-65" transform="translate(66.699219 0)"/>
    <use xlink:href="#TimesNewRomanPSMT-6e" transform="translate(111.083984 0)"/>
    <use xlink:href="#TimesNewRomanPSMT-65" transform="translate(161.083984 0)"/>
    <use xlink:href="#TimesNewRomanPSMT-77" transform="translate(205.46875 0)"/>
    <use xlink:href="#TimesNewRomanPSMT-61" transform="translate(277.685547 0)"/>
    <use xlink:href="#TimesNewRomanPSMT-62" transform="translate(322.070312 0)"/>
    <use xlink:href="#TimesNewRomanPSMT-6c" transform="translate(372.070312 0)"/>
    <use xlink:href="#TimesNewRomanPSMT-65" transform="translate(399.853516 0)"/>
    <use xlink:href="#TimesNewRomanPSMT-20" transform="translate(444.238281 0)"/>
    <use xlink:href="#TimesNewRomanPSMT-45" transform="translate(469.238281 0)"/>
    <use xlink:href="#TimesNewRomanPSMT-6e" transform="translate(530.322266 0)"/>
    <use xlink:href="#TimesNewRomanPSMT-65" transform="translate(580.322266 0)"/>
    <use xlink:href="#TimesNewRomanPSMT-72" transform="translate(624.707031 0)"/>
    <use xlink:href="#TimesNewRomanPSMT-67" transform="translate(656.257812 0)"/>
    <use xlink:href="#TimesNewRomanPSMT-79" transform="translate(706.257812 0)"/>
    <use xlink:href="#TimesNewRomanPSMT-20" transform="translate(756.257812 0)"/>
    <use xlink:href="#TimesNewRomanPSMT-53" transform="translate(781.257812 0)"/>
    <use xlink:href="#TimesNewRomanPSMT-68" transform="translate(836.873047 0)"/>
    <use xlink:href="#TimesNewRomanPSMT-61" transform="translate(886.873047 0)"/>
    <use xlink:href="#TimesNewRomanPSMT-72" transform="translate(931.257812 0)"/>
    <use xlink:href="#TimesNewRomanPSMT-65" transform="translate(964.558594 0)"/>
    <use xlink:href="#TimesNewRomanPSMT-28" transform="translate(1008.943359 0)"/>
    <use xlink:href="#TimesNewRomanPSMT-25" transform="translate(1042.244141 0)"/>
    <use xlink:href="#TimesNewRomanPSMT-29" transform="translate(1125.544922 0)"/>
   </g>
  </g>
 </g>
 <defs>
  <clipPath id="pb69f6fe7af">
   <rect x="127.757513" y="17.52" width="608.7025" height="88.528"/>
  </clipPath>
  <clipPath id="p04c6c9ee90">
   <rect x="127.757513" y="61.784" width="608.7025" height="88.528"/>
  </clipPath>
  <clipPath id="p176bd75020">
   <rect x="127.757513" y="106.048" width="608.7025" height="88.528"/>
  </clipPath>
  <clipPath id="p28cf1f5c52">
   <rect x="127.757513" y="150.312" width="608.7025" height="88.528"/>
  </clipPath>
 </defs>
</svg>
