<?xml version="1.0" encoding="utf-8" standalone="no"?>
<!DOCTYPE svg PUBLIC "-//W3C//DTD SVG 1.1//EN"
  "http://www.w3.org/Graphics/SVG/1.1/DTD/svg11.dtd">
<svg xmlns:xlink="http://www.w3.org/1999/xlink" width="745.654622pt" height="280.655312pt" viewBox="0 0 745.654622 280.655312" xmlns="http://www.w3.org/2000/svg" version="1.1">
 <metadata>
  <rdf:RDF xmlns:dc="http://purl.org/dc/elements/1.1/" xmlns:cc="http://creativecommons.org/ns#" xmlns:rdf="http://www.w3.org/1999/02/22-rdf-syntax-ns#">
   <cc:Work>
    <dc:type rdf:resource="http://purl.org/dc/dcmitype/StillImage"/>
    <dc:date>2025-05-27T02:43:41.675315</dc:date>
    <dc:format>image/svg+xml</dc:format>
    <dc:creator>
     <cc:Agent>
      <dc:title>Matplotlib v3.10.1, https://matplotlib.org/</dc:title>
     </cc:Agent>
    </dc:creator>
   </cc:Work>
  </rdf:RDF>
 </metadata>
 <defs>
  <style type="text/css">*{stroke-linejoin: round; stroke-linecap: butt}</style>
 </defs>
 <g id="figure_1">
  <g id="patch_1">
   <path d="M 0 280.655312 
L 745.654622 280.655312 
L 745.654622 0 
L 0 0 
z
" style="fill: #ffffff"/>
  </g>
  <g id="axes_1">
   <g id="patch_2">
    <path d="M 169.745122 106.048 
L 730.954623 106.048 
L 730.954623 17.52 
L 169.745122 17.52 
L 169.745122 106.048 
z
" style="fill: none; opacity: 0"/>
   </g>
   <g id="FillBetweenPolyCollection_1">
    <defs>
     <path id="m50a55e0e6f" d="M 169.745122 -213.150573 
L 169.745122 -174.607312 
L 172.565271 -174.607312 
L 175.385419 -174.607312 
L 178.205567 -174.607312 
L 181.025715 -174.607312 
L 183.845864 -174.607312 
L 186.666012 -174.607312 
L 189.48616 -174.607312 
L 192.306308 -174.607312 
L 195.126457 -174.607312 
L 197.946605 -174.607312 
L 200.766753 -174.607312 
L 203.586901 -174.607312 
L 206.40705 -174.607312 
L 209.227198 -174.607312 
L 212.047346 -174.607312 
L 214.867494 -174.607312 
L 217.687643 -174.607312 
L 220.507791 -174.607312 
L 223.327939 -174.607312 
L 226.148087 -174.607312 
L 228.968236 -174.607312 
L 231.788384 -174.607312 
L 234.608532 -174.607312 
L 237.42868 -174.607312 
L 240.248829 -174.607312 
L 243.068977 -174.607312 
L 245.889125 -174.607312 
L 248.709273 -174.607312 
L 251.529421 -174.607312 
L 254.34957 -174.607312 
L 257.169718 -174.607312 
L 259.989866 -174.607312 
L 262.810014 -174.607312 
L 265.630163 -174.607312 
L 268.450311 -174.607312 
L 271.270459 -174.607312 
L 274.090607 -174.607312 
L 276.910756 -174.607312 
L 279.730904 -174.607312 
L 282.551052 -174.607312 
L 285.3712 -174.607312 
L 288.191349 -174.607312 
L 291.011497 -174.607312 
L 293.831645 -174.607312 
L 296.651793 -174.607312 
L 299.471942 -174.607312 
L 302.29209 -174.607312 
L 305.112238 -174.607312 
L 307.932386 -174.607312 
L 310.752535 -174.607312 
L 313.572683 -174.607312 
L 316.392831 -174.607312 
L 319.212979 -174.607312 
L 322.033128 -174.607312 
L 324.853276 -174.607312 
L 327.673424 -174.607312 
L 330.493572 -174.607312 
L 333.31372 -174.607312 
L 336.133869 -174.607312 
L 338.954017 -174.607312 
L 341.774165 -174.607312 
L 344.594313 -174.607312 
L 347.414462 -174.607312 
L 350.23461 -174.607312 
L 353.054758 -174.607312 
L 355.874906 -174.607312 
L 358.695055 -174.607312 
L 361.515203 -174.607312 
L 364.335351 -174.607312 
L 367.155499 -174.607312 
L 369.975648 -174.607312 
L 372.795796 -174.607312 
L 375.615944 -174.607312 
L 378.436092 -174.607312 
L 381.256241 -174.607312 
L 384.076389 -174.607312 
L 386.896537 -174.607312 
L 389.716685 -174.607312 
L 392.536834 -174.607312 
L 395.356982 -174.607312 
L 398.17713 -174.607312 
L 400.997278 -174.607312 
L 403.817427 -174.607312 
L 406.637575 -174.607312 
L 409.457723 -174.607312 
L 412.277871 -174.607312 
L 415.098019 -174.607312 
L 417.918168 -174.607312 
L 420.738316 -174.607312 
L 423.558464 -174.607312 
L 426.378612 -174.607312 
L 429.198761 -174.607312 
L 432.018909 -174.607312 
L 434.839057 -174.607312 
L 437.659205 -174.607312 
L 440.479354 -174.607312 
L 443.299502 -174.607312 
L 446.11965 -174.607312 
L 448.939798 -174.607312 
L 451.759947 -174.607312 
L 454.580095 -174.607312 
L 457.400243 -174.607312 
L 460.220391 -174.607312 
L 463.04054 -174.607312 
L 465.860688 -174.607312 
L 468.680836 -174.607312 
L 471.500984 -174.607312 
L 474.321133 -174.607312 
L 477.141281 -174.607312 
L 479.961429 -174.607312 
L 482.781577 -174.607312 
L 485.601726 -174.607312 
L 488.421874 -174.607312 
L 491.242022 -174.607312 
L 494.06217 -174.607312 
L 496.882318 -174.607312 
L 499.702467 -174.607312 
L 502.522615 -174.607312 
L 505.342763 -174.607312 
L 508.162911 -174.607312 
L 510.98306 -174.607312 
L 513.803208 -174.607312 
L 516.623356 -174.607312 
L 519.443504 -174.607312 
L 522.263653 -174.607312 
L 525.083801 -174.607312 
L 527.903949 -174.607312 
L 530.724097 -174.607312 
L 533.544246 -174.607312 
L 536.364394 -174.607312 
L 539.184542 -174.607312 
L 542.00469 -174.607312 
L 544.824839 -174.607312 
L 547.644987 -174.607312 
L 550.465135 -174.607312 
L 553.285283 -174.607312 
L 556.105432 -174.607312 
L 558.92558 -174.607312 
L 561.745728 -174.607312 
L 564.565876 -174.607312 
L 567.386025 -174.607312 
L 570.206173 -174.607312 
L 573.026321 -174.607312 
L 575.846469 -174.607312 
L 578.666617 -174.607312 
L 581.486766 -174.607312 
L 584.306914 -174.607312 
L 587.127062 -174.607312 
L 589.94721 -174.607312 
L 592.767359 -174.607312 
L 595.587507 -174.607312 
L 598.407655 -174.607312 
L 601.227803 -174.607312 
L 604.047952 -174.607312 
L 606.8681 -174.607312 
L 609.688248 -174.607312 
L 612.508396 -174.607312 
L 615.328545 -174.607312 
L 618.148693 -174.607312 
L 620.968841 -174.607312 
L 623.788989 -174.607312 
L 626.609138 -174.607312 
L 629.429286 -174.607312 
L 632.249434 -174.607312 
L 635.069582 -174.607312 
L 637.889731 -174.607312 
L 640.709879 -174.607312 
L 643.530027 -174.607312 
L 646.350175 -174.607312 
L 649.170324 -174.607312 
L 651.990472 -174.607312 
L 654.81062 -174.607312 
L 657.630768 -174.607312 
L 660.450916 -174.607312 
L 663.271065 -174.607312 
L 666.091213 -174.607312 
L 668.911361 -174.607312 
L 671.731509 -174.607312 
L 674.551658 -174.607312 
L 677.371806 -174.607312 
L 680.191954 -174.607312 
L 683.012102 -174.607312 
L 685.832251 -174.607312 
L 688.652399 -174.607312 
L 691.472547 -174.607312 
L 694.292695 -174.607312 
L 697.112844 -174.607312 
L 699.932992 -174.607312 
L 702.75314 -174.607312 
L 705.573288 -174.607312 
L 708.393437 -174.607312 
L 711.213585 -174.607312 
L 714.033733 -174.607312 
L 716.853881 -174.607312 
L 719.67403 -174.607312 
L 722.494178 -174.607312 
L 725.314326 -174.607312 
L 728.134474 -174.607312 
L 730.954623 -174.607312 
L 730.954623 -187.570419 
L 730.954623 -187.570419 
L 728.134474 -187.852272 
L 725.314326 -188.105084 
L 722.494178 -188.32735 
L 719.67403 -188.517841 
L 716.853881 -188.675626 
L 714.033733 -188.80009 
L 711.213585 -188.890946 
L 708.393437 -188.948238 
L 705.573288 -188.972345 
L 702.75314 -188.963981 
L 699.932992 -188.924181 
L 697.112844 -188.854292 
L 694.292695 -188.755952 
L 691.472547 -188.631073 
L 688.652399 -188.481806 
L 685.832251 -188.310521 
L 683.012102 -188.119764 
L 680.191954 -187.912232 
L 677.371806 -187.690726 
L 674.551658 -187.458119 
L 671.731509 -187.217315 
L 668.911361 -186.971212 
L 666.091213 -186.722661 
L 663.271065 -186.474437 
L 660.450916 -186.229195 
L 657.630768 -185.98945 
L 654.81062 -185.757541 
L 651.990472 -185.535611 
L 649.170324 -185.325584 
L 646.350175 -185.12915 
L 643.530027 -184.947755 
L 640.709879 -184.78259 
L 637.889731 -184.634587 
L 635.069582 -184.504424 
L 632.249434 -184.392527 
L 629.429286 -184.299078 
L 626.609138 -184.224026 
L 623.788989 -184.167107 
L 620.968841 -184.127853 
L 618.148693 -184.10562 
L 615.328545 -184.099601 
L 612.508396 -184.108857 
L 609.688248 -184.132331 
L 606.8681 -184.168879 
L 604.047952 -184.217288 
L 601.227803 -184.276301 
L 598.407655 -184.344637 
L 595.587507 -184.421014 
L 592.767359 -184.504161 
L 589.94721 -184.592844 
L 587.127062 -184.685872 
L 584.306914 -184.782115 
L 581.486766 -184.88051 
L 578.666617 -184.980075 
L 575.846469 -185.079906 
L 573.026321 -185.17919 
L 570.206173 -185.2772 
L 567.386025 -185.373296 
L 564.565876 -185.466925 
L 561.745728 -185.557617 
L 558.92558 -185.644977 
L 556.105432 -185.728684 
L 553.285283 -185.808482 
L 550.465135 -185.884175 
L 547.644987 -185.955617 
L 544.824839 -186.022707 
L 542.00469 -186.085383 
L 539.184542 -186.143614 
L 536.364394 -186.197396 
L 533.544246 -186.246746 
L 530.724097 -186.291697 
L 527.903949 -186.332298 
L 525.083801 -186.368609 
L 522.263653 -186.4007 
L 519.443504 -186.428653 
L 516.623356 -186.452561 
L 513.803208 -186.47253 
L 510.98306 -186.488682 
L 508.162911 -186.501158 
L 505.342763 -186.510119 
L 502.522615 -186.515754 
L 499.702467 -186.518281 
L 496.882318 -186.517952 
L 494.06217 -186.515057 
L 491.242022 -186.509929 
L 488.421874 -186.502946 
L 485.601726 -186.494535 
L 482.781577 -186.485173 
L 479.961429 -186.475394 
L 477.141281 -186.465783 
L 474.321133 -186.456984 
L 471.500984 -186.449697 
L 468.680836 -186.444675 
L 465.860688 -186.442729 
L 463.04054 -186.444723 
L 460.220391 -186.451573 
L 457.400243 -186.464244 
L 454.580095 -186.483749 
L 451.759947 -186.511145 
L 448.939798 -186.547534 
L 446.11965 -186.594055 
L 443.299502 -186.651886 
L 440.479354 -186.72224 
L 437.659205 -186.806363 
L 434.839057 -186.905533 
L 432.018909 -187.021059 
L 429.198761 -187.15428 
L 426.378612 -187.306563 
L 423.558464 -187.479304 
L 420.738316 -187.673931 
L 417.918168 -187.891898 
L 415.098019 -188.134693 
L 412.277871 -188.403831 
L 409.457723 -188.700861 
L 406.637575 -189.027365 
L 403.817427 -189.384952 
L 400.997278 -189.775267 
L 398.17713 -190.199981 
L 395.356982 -190.660796 
L 392.536834 -191.159435 
L 389.716685 -191.697644 
L 386.896537 -192.277179 
L 384.076389 -192.899805 
L 381.256241 -193.567284 
L 378.436092 -194.281361 
L 375.615944 -195.043755 
L 372.795796 -195.856141 
L 369.975648 -196.720135 
L 367.155499 -197.637269 
L 364.335351 -198.608975 
L 361.515203 -199.636557 
L 358.695055 -200.721167 
L 355.874906 -201.863772 
L 353.054758 -203.065132 
L 350.23461 -204.325761 
L 347.414462 -205.645901 
L 344.594313 -207.025481 
L 341.774165 -208.464092 
L 338.954017 -209.960945 
L 336.133869 -211.514844 
L 333.31372 -213.12415 
L 330.493572 -214.786754 
L 327.673424 -216.500045 
L 324.853276 -218.260889 
L 322.033128 -220.065606 
L 319.212979 -221.909953 
L 316.392831 -223.78911 
L 313.572683 -225.69768 
L 310.752535 -227.629683 
L 307.932386 -229.578564 
L 305.112238 -231.537209 
L 302.29209 -233.497969 
L 299.471942 -235.452683 
L 296.651793 -237.392724 
L 293.831645 -239.30904 
L 291.011497 -241.192213 
L 288.191349 -243.032519 
L 285.3712 -244.82 
L 282.551052 -246.544542 
L 279.730904 -248.19596 
L 276.910756 -249.764085 
L 274.090607 -251.238864 
L 271.270459 -252.610451 
L 268.450311 -253.869316 
L 265.630163 -255.006337 
L 262.810014 -256.012911 
L 259.989866 -256.881042 
L 257.169718 -257.603447 
L 254.34957 -258.173637 
L 251.529421 -258.586004 
L 248.709273 -258.8359 
L 245.889125 -258.919693 
L 243.068977 -258.834834 
L 240.248829 -258.579888 
L 237.42868 -258.154573 
L 234.608532 -257.559774 
L 231.788384 -256.797547 
L 228.968236 -255.871102 
L 226.148087 -254.784789 
L 223.327939 -253.544048 
L 220.507791 -252.155361 
L 217.687643 -250.626188 
L 214.867494 -248.96489 
L 212.047346 -247.180639 
L 209.227198 -245.283325 
L 206.40705 -243.28345 
L 203.586901 -241.192021 
L 200.766753 -239.020434 
L 197.946605 -236.780359 
L 195.126457 -234.483622 
L 192.306308 -232.142091 
L 189.48616 -229.767561 
L 186.666012 -227.371648 
L 183.845864 -224.965684 
L 181.025715 -222.560621 
L 178.205567 -220.166947 
L 175.385419 -217.794606 
L 172.565271 -215.452927 
L 169.745122 -213.150573 
z
" style="stroke: #6a00a8"/>
    </defs>
    <g clip-path="url(#p12134e19c1)">
     <use xlink:href="#m50a55e0e6f" x="0" y="280.655312" style="fill: #6a00a8; fill-opacity: 0.5; stroke: #6a00a8"/>
    </g>
   </g>
   <g id="matplotlib.axis_1">
    <g id="xtick_1">
     <g id="line2d_1">
      <defs>
       <path id="m0d1edc471a" d="M 0 0 
L 0 3.5 
" style="stroke: #000000; stroke-width: 0.8"/>
      </defs>
      <g>
       <use xlink:href="#m0d1edc471a" x="169.745122" y="106.048" style="stroke: #000000; stroke-width: 0.8"/>
      </g>
     </g>
    </g>
    <g id="xtick_2">
     <g id="line2d_2">
      <g>
       <use xlink:href="#m0d1edc471a" x="281.987022" y="106.048" style="stroke: #000000; stroke-width: 0.8"/>
      </g>
     </g>
    </g>
    <g id="xtick_3">
     <g id="line2d_3">
      <g>
       <use xlink:href="#m0d1edc471a" x="394.228923" y="106.048" style="stroke: #000000; stroke-width: 0.8"/>
      </g>
     </g>
    </g>
    <g id="xtick_4">
     <g id="line2d_4">
      <g>
       <use xlink:href="#m0d1edc471a" x="506.470822" y="106.048" style="stroke: #000000; stroke-width: 0.8"/>
      </g>
     </g>
    </g>
    <g id="xtick_5">
     <g id="line2d_5">
      <g>
       <use xlink:href="#m0d1edc471a" x="618.712723" y="106.048" style="stroke: #000000; stroke-width: 0.8"/>
      </g>
     </g>
    </g>
    <g id="xtick_6">
     <g id="line2d_6">
      <g>
       <use xlink:href="#m0d1edc471a" x="730.954623" y="106.048" style="stroke: #000000; stroke-width: 0.8"/>
      </g>
     </g>
    </g>
   </g>
   <g id="matplotlib.axis_2"/>
   <g id="line2d_7">
    <path d="M 169.745122 67.50474 
L 178.205567 60.488365 
L 197.946605 43.874954 
L 203.586901 39.463292 
L 209.227198 35.371988 
L 214.867494 31.690422 
L 217.687643 30.029124 
L 220.507791 28.499952 
L 223.327939 27.111265 
L 226.148087 25.870523 
L 228.968236 24.78421 
L 231.788384 23.857766 
L 234.608532 23.095538 
L 237.42868 22.50074 
L 240.248829 22.075425 
L 243.068977 21.820479 
L 245.889125 21.735619 
L 248.709273 21.819413 
L 251.529421 22.069308 
L 254.34957 22.481676 
L 257.169718 23.051865 
L 259.989866 23.77427 
L 262.810014 24.642402 
L 265.630163 25.648975 
L 268.450311 26.785997 
L 274.090607 29.416449 
L 279.730904 32.459353 
L 285.3712 35.835313 
L 291.011497 39.4631 
L 299.471942 45.202629 
L 316.392831 56.866202 
L 324.853276 62.394423 
L 330.493572 65.868559 
L 336.133869 69.140469 
L 341.774165 72.191221 
L 347.414462 75.009412 
L 353.054758 77.590181 
L 358.695055 79.934146 
L 364.335351 82.046337 
L 369.975648 83.935178 
L 375.615944 85.611558 
L 381.256241 87.088029 
L 386.896537 88.378133 
L 392.536834 89.495877 
L 400.997278 90.880046 
L 409.457723 91.954451 
L 417.918168 92.763414 
L 426.378612 93.34875 
L 437.659205 93.84895 
L 448.939798 94.107778 
L 463.04054 94.210589 
L 530.724097 94.363615 
L 550.465135 94.771137 
L 573.026321 95.476122 
L 601.227803 96.379012 
L 612.508396 96.546456 
L 623.788989 96.488206 
L 635.069582 96.150888 
L 646.350175 95.526162 
L 657.630768 94.665862 
L 685.832251 92.344792 
L 694.292695 91.89936 
L 702.75314 91.691331 
L 711.213585 91.764366 
L 719.67403 92.137472 
L 728.134474 92.803041 
L 730.954623 93.084893 
L 730.954623 93.084893 
" clip-path="url(#p12134e19c1)" style="fill: none; stroke: #ffffff; stroke-width: 2; stroke-linecap: square"/>
   </g>
   <g id="line2d_8">
    <path d="M 169.745122 106.048 
L 730.954623 106.048 
" style="fill: none; stroke: #000000; stroke-linecap: square"/>
   </g>
   <g id="text_1">
    <g id="patch_3">
     <path d="M 36.19875 115.468937 
L 114.778125 115.468937 
L 114.778125 96.627062 
L 36.19875 96.627062 
z
" style="fill: #ffffff; opacity: 0.5"/>
    </g>
    <!-- Biotechnology -->
    <g transform="translate(40.15875 108.919562) scale(0.12 -0.12)">
     <defs>
      <path id="TimesNewRomanPSMT-42" d="M 2956 2163 
Q 3397 2069 3616 1863 
Q 3919 1575 3919 1159 
Q 3919 844 3719 555 
Q 3519 266 3170 133 
Q 2822 0 2106 0 
L 106 0 
L 106 116 
L 266 116 
Q 531 116 647 284 
Q 719 394 719 750 
L 719 3488 
Q 719 3881 628 3984 
Q 506 4122 266 4122 
L 106 4122 
L 106 4238 
L 1938 4238 
Q 2450 4238 2759 4163 
Q 3228 4050 3475 3764 
Q 3722 3478 3722 3106 
Q 3722 2788 3528 2536 
Q 3334 2284 2956 2163 
z
M 1319 2331 
Q 1434 2309 1582 2298 
Q 1731 2288 1909 2288 
Q 2366 2288 2595 2386 
Q 2825 2484 2947 2687 
Q 3069 2891 3069 3131 
Q 3069 3503 2766 3765 
Q 2463 4028 1881 4028 
Q 1569 4028 1319 3959 
L 1319 2331 
z
M 1319 306 
Q 1681 222 2034 222 
Q 2600 222 2897 476 
Q 3194 731 3194 1106 
Q 3194 1353 3059 1581 
Q 2925 1809 2622 1940 
Q 2319 2072 1872 2072 
Q 1678 2072 1540 2065 
Q 1403 2059 1319 2044 
L 1319 306 
z
" transform="scale(0.015625)"/>
      <path id="TimesNewRomanPSMT-69" d="M 928 4444 
Q 1059 4444 1151 4351 
Q 1244 4259 1244 4128 
Q 1244 3997 1151 3903 
Q 1059 3809 928 3809 
Q 797 3809 703 3903 
Q 609 3997 609 4128 
Q 609 4259 701 4351 
Q 794 4444 928 4444 
z
M 1188 2947 
L 1188 647 
Q 1188 378 1227 289 
Q 1266 200 1342 156 
Q 1419 113 1622 113 
L 1622 0 
L 231 0 
L 231 113 
Q 441 113 512 153 
Q 584 194 626 287 
Q 669 381 669 647 
L 669 1750 
Q 669 2216 641 2353 
Q 619 2453 572 2492 
Q 525 2531 444 2531 
Q 356 2531 231 2484 
L 188 2597 
L 1050 2947 
L 1188 2947 
z
" transform="scale(0.015625)"/>
      <path id="TimesNewRomanPSMT-6f" d="M 1600 2947 
Q 2250 2947 2644 2453 
Q 2978 2031 2978 1484 
Q 2978 1100 2793 706 
Q 2609 313 2286 112 
Q 1963 -88 1566 -88 
Q 919 -88 538 428 
Q 216 863 216 1403 
Q 216 1797 411 2186 
Q 606 2575 925 2761 
Q 1244 2947 1600 2947 
z
M 1503 2744 
Q 1338 2744 1170 2645 
Q 1003 2547 900 2300 
Q 797 2053 797 1666 
Q 797 1041 1045 587 
Q 1294 134 1700 134 
Q 2003 134 2200 384 
Q 2397 634 2397 1244 
Q 2397 2006 2069 2444 
Q 1847 2744 1503 2744 
z
" transform="scale(0.015625)"/>
      <path id="TimesNewRomanPSMT-74" d="M 1031 3803 
L 1031 2863 
L 1700 2863 
L 1700 2644 
L 1031 2644 
L 1031 788 
Q 1031 509 1111 412 
Q 1191 316 1316 316 
Q 1419 316 1516 380 
Q 1613 444 1666 569 
L 1788 569 
Q 1678 263 1478 108 
Q 1278 -47 1066 -47 
Q 922 -47 784 33 
Q 647 113 581 261 
Q 516 409 516 719 
L 516 2644 
L 63 2644 
L 63 2747 
Q 234 2816 414 2980 
Q 594 3144 734 3369 
Q 806 3488 934 3803 
L 1031 3803 
z
" transform="scale(0.015625)"/>
      <path id="TimesNewRomanPSMT-65" d="M 681 1784 
Q 678 1147 991 784 
Q 1303 422 1725 422 
Q 2006 422 2214 576 
Q 2422 731 2563 1106 
L 2659 1044 
Q 2594 616 2278 264 
Q 1963 -88 1488 -88 
Q 972 -88 605 314 
Q 238 716 238 1394 
Q 238 2128 614 2539 
Q 991 2950 1559 2950 
Q 2041 2950 2350 2633 
Q 2659 2316 2659 1784 
L 681 1784 
z
M 681 1966 
L 2006 1966 
Q 1991 2241 1941 2353 
Q 1863 2528 1708 2628 
Q 1553 2728 1384 2728 
Q 1125 2728 920 2526 
Q 716 2325 681 1966 
z
" transform="scale(0.015625)"/>
      <path id="TimesNewRomanPSMT-63" d="M 2631 1088 
Q 2516 522 2178 217 
Q 1841 -88 1431 -88 
Q 944 -88 581 321 
Q 219 731 219 1428 
Q 219 2103 620 2525 
Q 1022 2947 1584 2947 
Q 2006 2947 2278 2723 
Q 2550 2500 2550 2259 
Q 2550 2141 2473 2067 
Q 2397 1994 2259 1994 
Q 2075 1994 1981 2113 
Q 1928 2178 1911 2362 
Q 1894 2547 1784 2644 
Q 1675 2738 1481 2738 
Q 1169 2738 978 2506 
Q 725 2200 725 1697 
Q 725 1184 976 792 
Q 1228 400 1656 400 
Q 1963 400 2206 609 
Q 2378 753 2541 1131 
L 2631 1088 
z
" transform="scale(0.015625)"/>
      <path id="TimesNewRomanPSMT-68" d="M 1041 4444 
L 1041 2350 
Q 1388 2731 1591 2839 
Q 1794 2947 1997 2947 
Q 2241 2947 2416 2812 
Q 2591 2678 2675 2391 
Q 2734 2191 2734 1659 
L 2734 647 
Q 2734 375 2778 275 
Q 2809 200 2884 156 
Q 2959 113 3159 113 
L 3159 0 
L 1753 0 
L 1753 113 
L 1819 113 
Q 2019 113 2097 173 
Q 2175 234 2206 353 
Q 2216 403 2216 647 
L 2216 1659 
Q 2216 2128 2167 2275 
Q 2119 2422 2012 2495 
Q 1906 2569 1756 2569 
Q 1603 2569 1437 2487 
Q 1272 2406 1041 2159 
L 1041 647 
Q 1041 353 1073 281 
Q 1106 209 1195 161 
Q 1284 113 1503 113 
L 1503 0 
L 84 0 
L 84 113 
Q 275 113 384 172 
Q 447 203 484 290 
Q 522 378 522 647 
L 522 3238 
Q 522 3728 498 3840 
Q 475 3953 426 3993 
Q 378 4034 297 4034 
Q 231 4034 84 3984 
L 41 4094 
L 897 4444 
L 1041 4444 
z
" transform="scale(0.015625)"/>
      <path id="TimesNewRomanPSMT-6e" d="M 1034 2341 
Q 1538 2947 1994 2947 
Q 2228 2947 2397 2830 
Q 2566 2713 2666 2444 
Q 2734 2256 2734 1869 
L 2734 647 
Q 2734 375 2778 278 
Q 2813 200 2889 156 
Q 2966 113 3172 113 
L 3172 0 
L 1756 0 
L 1756 113 
L 1816 113 
Q 2016 113 2095 173 
Q 2175 234 2206 353 
Q 2219 400 2219 647 
L 2219 1819 
Q 2219 2209 2117 2386 
Q 2016 2563 1775 2563 
Q 1403 2563 1034 2156 
L 1034 647 
Q 1034 356 1069 288 
Q 1113 197 1189 155 
Q 1266 113 1500 113 
L 1500 0 
L 84 0 
L 84 113 
L 147 113 
Q 366 113 442 223 
Q 519 334 519 647 
L 519 1709 
Q 519 2225 495 2337 
Q 472 2450 423 2490 
Q 375 2531 294 2531 
Q 206 2531 84 2484 
L 38 2597 
L 900 2947 
L 1034 2947 
L 1034 2341 
z
" transform="scale(0.015625)"/>
      <path id="TimesNewRomanPSMT-6c" d="M 1184 4444 
L 1184 647 
Q 1184 378 1223 290 
Q 1263 203 1344 158 
Q 1425 113 1647 113 
L 1647 0 
L 244 0 
L 244 113 
Q 441 113 512 153 
Q 584 194 625 287 
Q 666 381 666 647 
L 666 3247 
Q 666 3731 644 3842 
Q 622 3953 573 3993 
Q 525 4034 450 4034 
Q 369 4034 244 3984 
L 191 4094 
L 1044 4444 
L 1184 4444 
z
" transform="scale(0.015625)"/>
      <path id="TimesNewRomanPSMT-67" d="M 966 1044 
Q 703 1172 562 1401 
Q 422 1631 422 1909 
Q 422 2334 742 2640 
Q 1063 2947 1563 2947 
Q 1972 2947 2272 2747 
L 2878 2747 
Q 3013 2747 3034 2739 
Q 3056 2731 3066 2713 
Q 3084 2684 3084 2613 
Q 3084 2531 3069 2500 
Q 3059 2484 3036 2475 
Q 3013 2466 2878 2466 
L 2506 2466 
Q 2681 2241 2681 1891 
Q 2681 1491 2375 1206 
Q 2069 922 1553 922 
Q 1341 922 1119 984 
Q 981 866 932 777 
Q 884 688 884 625 
Q 884 572 936 522 
Q 988 472 1138 450 
Q 1225 438 1575 428 
Q 2219 413 2409 384 
Q 2700 344 2873 169 
Q 3047 -6 3047 -263 
Q 3047 -616 2716 -925 
Q 2228 -1381 1444 -1381 
Q 841 -1381 425 -1109 
Q 191 -953 191 -784 
Q 191 -709 225 -634 
Q 278 -519 444 -313 
Q 466 -284 763 25 
Q 600 122 533 198 
Q 466 275 466 372 
Q 466 481 555 628 
Q 644 775 966 1044 
z
M 1509 2797 
Q 1278 2797 1122 2612 
Q 966 2428 966 2047 
Q 966 1553 1178 1281 
Q 1341 1075 1591 1075 
Q 1828 1075 1981 1253 
Q 2134 1431 2134 1813 
Q 2134 2309 1919 2591 
Q 1759 2797 1509 2797 
z
M 934 0 
Q 788 -159 713 -296 
Q 638 -434 638 -550 
Q 638 -700 819 -813 
Q 1131 -1006 1722 -1006 
Q 2284 -1006 2551 -807 
Q 2819 -609 2819 -384 
Q 2819 -222 2659 -153 
Q 2497 -84 2016 -72 
Q 1313 -53 934 0 
z
" transform="scale(0.015625)"/>
      <path id="TimesNewRomanPSMT-79" d="M 38 2863 
L 1372 2863 
L 1372 2747 
L 1306 2747 
Q 1166 2747 1095 2686 
Q 1025 2625 1025 2534 
Q 1025 2413 1128 2197 
L 1825 753 
L 2466 2334 
Q 2519 2463 2519 2588 
Q 2519 2644 2497 2672 
Q 2472 2706 2419 2726 
Q 2366 2747 2231 2747 
L 2231 2863 
L 3163 2863 
L 3163 2747 
Q 3047 2734 2984 2696 
Q 2922 2659 2847 2556 
Q 2819 2513 2741 2316 
L 1575 -541 
Q 1406 -956 1132 -1168 
Q 859 -1381 606 -1381 
Q 422 -1381 303 -1275 
Q 184 -1169 184 -1031 
Q 184 -900 270 -820 
Q 356 -741 506 -741 
Q 609 -741 788 -809 
Q 913 -856 944 -856 
Q 1038 -856 1148 -759 
Q 1259 -663 1372 -384 
L 1575 113 
L 547 2272 
Q 500 2369 397 2513 
Q 319 2622 269 2659 
Q 197 2709 38 2747 
L 38 2863 
z
" transform="scale(0.015625)"/>
     </defs>
     <use xlink:href="#TimesNewRomanPSMT-42"/>
     <use xlink:href="#TimesNewRomanPSMT-69" transform="translate(66.699219 0)"/>
     <use xlink:href="#TimesNewRomanPSMT-6f" transform="translate(94.482422 0)"/>
     <use xlink:href="#TimesNewRomanPSMT-74" transform="translate(144.482422 0)"/>
     <use xlink:href="#TimesNewRomanPSMT-65" transform="translate(172.265625 0)"/>
     <use xlink:href="#TimesNewRomanPSMT-63" transform="translate(216.650391 0)"/>
     <use xlink:href="#TimesNewRomanPSMT-68" transform="translate(261.035156 0)"/>
     <use xlink:href="#TimesNewRomanPSMT-6e" transform="translate(311.035156 0)"/>
     <use xlink:href="#TimesNewRomanPSMT-6f" transform="translate(361.035156 0)"/>
     <use xlink:href="#TimesNewRomanPSMT-6c" transform="translate(411.035156 0)"/>
     <use xlink:href="#TimesNewRomanPSMT-6f" transform="translate(438.818359 0)"/>
     <use xlink:href="#TimesNewRomanPSMT-67" transform="translate(488.818359 0)"/>
     <use xlink:href="#TimesNewRomanPSMT-79" transform="translate(538.818359 0)"/>
    </g>
   </g>
  </g>
  <g id="axes_2">
   <g id="patch_4">
    <path d="M 169.745122 150.312 
L 730.954623 150.312 
L 730.954623 61.784 
L 169.745122 61.784 
L 169.745122 150.312 
z
" style="fill: none; opacity: 0"/>
   </g>
   <g id="FillBetweenPolyCollection_2">
    <defs>
     <path id="ma99718effe" d="M 169.745122 -158.771108 
L 169.745122 -130.343312 
L 172.565271 -130.343312 
L 175.385419 -130.343312 
L 178.205567 -130.343312 
L 181.025715 -130.343312 
L 183.845864 -130.343312 
L 186.666012 -130.343312 
L 189.48616 -130.343312 
L 192.306308 -130.343312 
L 195.126457 -130.343312 
L 197.946605 -130.343312 
L 200.766753 -130.343312 
L 203.586901 -130.343312 
L 206.40705 -130.343312 
L 209.227198 -130.343312 
L 212.047346 -130.343312 
L 214.867494 -130.343312 
L 217.687643 -130.343312 
L 220.507791 -130.343312 
L 223.327939 -130.343312 
L 226.148087 -130.343312 
L 228.968236 -130.343312 
L 231.788384 -130.343312 
L 234.608532 -130.343312 
L 237.42868 -130.343312 
L 240.248829 -130.343312 
L 243.068977 -130.343312 
L 245.889125 -130.343312 
L 248.709273 -130.343312 
L 251.529421 -130.343312 
L 254.34957 -130.343312 
L 257.169718 -130.343312 
L 259.989866 -130.343312 
L 262.810014 -130.343312 
L 265.630163 -130.343312 
L 268.450311 -130.343312 
L 271.270459 -130.343312 
L 274.090607 -130.343312 
L 276.910756 -130.343312 
L 279.730904 -130.343312 
L 282.551052 -130.343312 
L 285.3712 -130.343312 
L 288.191349 -130.343312 
L 291.011497 -130.343312 
L 293.831645 -130.343312 
L 296.651793 -130.343312 
L 299.471942 -130.343312 
L 302.29209 -130.343312 
L 305.112238 -130.343312 
L 307.932386 -130.343312 
L 310.752535 -130.343312 
L 313.572683 -130.343312 
L 316.392831 -130.343312 
L 319.212979 -130.343312 
L 322.033128 -130.343312 
L 324.853276 -130.343312 
L 327.673424 -130.343312 
L 330.493572 -130.343312 
L 333.31372 -130.343312 
L 336.133869 -130.343312 
L 338.954017 -130.343312 
L 341.774165 -130.343312 
L 344.594313 -130.343312 
L 347.414462 -130.343312 
L 350.23461 -130.343312 
L 353.054758 -130.343312 
L 355.874906 -130.343312 
L 358.695055 -130.343312 
L 361.515203 -130.343312 
L 364.335351 -130.343312 
L 367.155499 -130.343312 
L 369.975648 -130.343312 
L 372.795796 -130.343312 
L 375.615944 -130.343312 
L 378.436092 -130.343312 
L 381.256241 -130.343312 
L 384.076389 -130.343312 
L 386.896537 -130.343312 
L 389.716685 -130.343312 
L 392.536834 -130.343312 
L 395.356982 -130.343312 
L 398.17713 -130.343312 
L 400.997278 -130.343312 
L 403.817427 -130.343312 
L 406.637575 -130.343312 
L 409.457723 -130.343312 
L 412.277871 -130.343312 
L 415.098019 -130.343312 
L 417.918168 -130.343312 
L 420.738316 -130.343312 
L 423.558464 -130.343312 
L 426.378612 -130.343312 
L 429.198761 -130.343312 
L 432.018909 -130.343312 
L 434.839057 -130.343312 
L 437.659205 -130.343312 
L 440.479354 -130.343312 
L 443.299502 -130.343312 
L 446.11965 -130.343312 
L 448.939798 -130.343312 
L 451.759947 -130.343312 
L 454.580095 -130.343312 
L 457.400243 -130.343312 
L 460.220391 -130.343312 
L 463.04054 -130.343312 
L 465.860688 -130.343312 
L 468.680836 -130.343312 
L 471.500984 -130.343312 
L 474.321133 -130.343312 
L 477.141281 -130.343312 
L 479.961429 -130.343312 
L 482.781577 -130.343312 
L 485.601726 -130.343312 
L 488.421874 -130.343312 
L 491.242022 -130.343312 
L 494.06217 -130.343312 
L 496.882318 -130.343312 
L 499.702467 -130.343312 
L 502.522615 -130.343312 
L 505.342763 -130.343312 
L 508.162911 -130.343312 
L 510.98306 -130.343312 
L 513.803208 -130.343312 
L 516.623356 -130.343312 
L 519.443504 -130.343312 
L 522.263653 -130.343312 
L 525.083801 -130.343312 
L 527.903949 -130.343312 
L 530.724097 -130.343312 
L 533.544246 -130.343312 
L 536.364394 -130.343312 
L 539.184542 -130.343312 
L 542.00469 -130.343312 
L 544.824839 -130.343312 
L 547.644987 -130.343312 
L 550.465135 -130.343312 
L 553.285283 -130.343312 
L 556.105432 -130.343312 
L 558.92558 -130.343312 
L 561.745728 -130.343312 
L 564.565876 -130.343312 
L 567.386025 -130.343312 
L 570.206173 -130.343312 
L 573.026321 -130.343312 
L 575.846469 -130.343312 
L 578.666617 -130.343312 
L 581.486766 -130.343312 
L 584.306914 -130.343312 
L 587.127062 -130.343312 
L 589.94721 -130.343312 
L 592.767359 -130.343312 
L 595.587507 -130.343312 
L 598.407655 -130.343312 
L 601.227803 -130.343312 
L 604.047952 -130.343312 
L 606.8681 -130.343312 
L 609.688248 -130.343312 
L 612.508396 -130.343312 
L 615.328545 -130.343312 
L 618.148693 -130.343312 
L 620.968841 -130.343312 
L 623.788989 -130.343312 
L 626.609138 -130.343312 
L 629.429286 -130.343312 
L 632.249434 -130.343312 
L 635.069582 -130.343312 
L 637.889731 -130.343312 
L 640.709879 -130.343312 
L 643.530027 -130.343312 
L 646.350175 -130.343312 
L 649.170324 -130.343312 
L 651.990472 -130.343312 
L 654.81062 -130.343312 
L 657.630768 -130.343312 
L 660.450916 -130.343312 
L 663.271065 -130.343312 
L 666.091213 -130.343312 
L 668.911361 -130.343312 
L 671.731509 -130.343312 
L 674.551658 -130.343312 
L 677.371806 -130.343312 
L 680.191954 -130.343312 
L 683.012102 -130.343312 
L 685.832251 -130.343312 
L 688.652399 -130.343312 
L 691.472547 -130.343312 
L 694.292695 -130.343312 
L 697.112844 -130.343312 
L 699.932992 -130.343312 
L 702.75314 -130.343312 
L 705.573288 -130.343312 
L 708.393437 -130.343312 
L 711.213585 -130.343312 
L 714.033733 -130.343312 
L 716.853881 -130.343312 
L 719.67403 -130.343312 
L 722.494178 -130.343312 
L 725.314326 -130.343312 
L 728.134474 -130.343312 
L 730.954623 -130.343312 
L 730.954623 -142.447508 
L 730.954623 -142.447508 
L 728.134474 -142.875093 
L 725.314326 -143.299269 
L 722.494178 -143.719321 
L 719.67403 -144.1346 
L 716.853881 -144.544531 
L 714.033733 -144.948614 
L 711.213585 -145.346429 
L 708.393437 -145.737634 
L 705.573288 -146.121967 
L 702.75314 -146.499244 
L 699.932992 -146.869355 
L 697.112844 -147.232262 
L 694.292695 -147.587991 
L 691.472547 -147.93663 
L 688.652399 -148.278316 
L 685.832251 -148.613234 
L 683.012102 -148.941604 
L 680.191954 -149.263671 
L 677.371806 -149.579701 
L 674.551658 -149.889967 
L 671.731509 -150.19474 
L 668.911361 -150.49428 
L 666.091213 -150.788829 
L 663.271065 -151.078602 
L 660.450916 -151.363777 
L 657.630768 -151.644489 
L 654.81062 -151.920827 
L 651.990472 -152.192825 
L 649.170324 -152.460462 
L 646.350175 -152.723658 
L 643.530027 -152.98227 
L 640.709879 -153.236097 
L 637.889731 -153.484877 
L 635.069582 -153.728294 
L 632.249434 -153.965976 
L 629.429286 -154.197504 
L 626.609138 -154.422416 
L 623.788989 -154.640213 
L 620.968841 -154.85037 
L 618.148693 -155.052337 
L 615.328545 -155.245553 
L 612.508396 -155.429454 
L 609.688248 -155.603479 
L 606.8681 -155.767079 
L 604.047952 -155.91973 
L 601.227803 -156.060934 
L 598.407655 -156.190234 
L 595.587507 -156.307216 
L 592.767359 -156.411516 
L 589.94721 -156.50283 
L 587.127062 -156.580913 
L 584.306914 -156.645589 
L 581.486766 -156.696749 
L 578.666617 -156.734358 
L 575.846469 -156.758453 
L 573.026321 -156.769147 
L 570.206173 -156.766629 
L 567.386025 -156.751158 
L 564.565876 -156.72307 
L 561.745728 -156.682772 
L 558.92558 -156.630738 
L 556.105432 -156.567511 
L 553.285283 -156.493697 
L 550.465135 -156.409964 
L 547.644987 -156.317034 
L 544.824839 -156.215686 
L 542.00469 -156.10675 
L 539.184542 -155.991099 
L 536.364394 -155.869652 
L 533.544246 -155.743367 
L 530.724097 -155.613235 
L 527.903949 -155.480279 
L 525.083801 -155.34555 
L 522.263653 -155.210121 
L 519.443504 -155.075083 
L 516.623356 -154.94154 
L 513.803208 -154.810607 
L 510.98306 -154.683399 
L 508.162911 -154.561033 
L 505.342763 -154.444615 
L 502.522615 -154.335239 
L 499.702467 -154.233979 
L 496.882318 -154.141883 
L 494.06217 -154.059964 
L 491.242022 -153.989197 
L 488.421874 -153.930508 
L 485.601726 -153.88477 
L 482.781577 -153.852794 
L 479.961429 -153.835326 
L 477.141281 -153.833035 
L 474.321133 -153.846509 
L 471.500984 -153.876252 
L 468.680836 -153.922678 
L 465.860688 -153.986102 
L 463.04054 -154.066745 
L 460.220391 -154.164723 
L 457.400243 -154.280051 
L 454.580095 -154.41264 
L 451.759947 -154.562301 
L 448.939798 -154.72874 
L 446.11965 -154.911568 
L 443.299502 -155.110302 
L 440.479354 -155.324368 
L 437.659205 -155.553113 
L 434.839057 -155.795805 
L 432.018909 -156.051649 
L 429.198761 -156.319789 
L 426.378612 -156.599322 
L 423.558464 -156.889307 
L 420.738316 -157.188775 
L 417.918168 -157.496741 
L 415.098019 -157.812217 
L 412.277871 -158.134217 
L 409.457723 -158.461774 
L 406.637575 -158.793947 
L 403.817427 -159.129832 
L 400.997278 -159.46857 
L 398.17713 -159.809356 
L 395.356982 -160.151445 
L 392.536834 -160.494161 
L 389.716685 -160.836896 
L 386.896537 -161.179121 
L 384.076389 -161.520381 
L 381.256241 -161.8603 
L 378.436092 -162.19858 
L 375.615944 -162.534997 
L 372.795796 -162.8694 
L 369.975648 -163.201705 
L 367.155499 -163.53189 
L 364.335351 -163.859986 
L 361.515203 -164.186074 
L 358.695055 -164.510273 
L 355.874906 -164.832731 
L 353.054758 -165.153616 
L 350.23461 -165.473107 
L 347.414462 -165.791385 
L 344.594313 -166.108617 
L 341.774165 -166.424955 
L 338.954017 -166.74052 
L 336.133869 -167.055396 
L 333.31372 -167.369621 
L 330.493572 -167.68318 
L 327.673424 -167.995998 
L 324.853276 -168.307932 
L 322.033128 -168.618771 
L 319.212979 -168.928227 
L 316.392831 -169.235934 
L 313.572683 -169.541447 
L 310.752535 -169.844241 
L 307.932386 -170.143707 
L 305.112238 -170.439158 
L 302.29209 -170.729828 
L 299.471942 -171.014871 
L 296.651793 -171.29337 
L 293.831645 -171.564337 
L 291.011497 -171.826715 
L 288.191349 -172.079386 
L 285.3712 -172.321174 
L 282.551052 -172.550849 
L 279.730904 -172.767133 
L 276.910756 -172.968706 
L 274.090607 -173.154211 
L 271.270459 -173.32226 
L 268.450311 -173.471439 
L 265.630163 -173.600318 
L 262.810014 -173.707451 
L 259.989866 -173.791391 
L 257.169718 -173.850691 
L 254.34957 -173.883915 
L 251.529421 -173.889645 
L 248.709273 -173.866489 
L 245.889125 -173.813093 
L 243.068977 -173.728146 
L 240.248829 -173.610394 
L 237.42868 -173.458651 
L 234.608532 -173.271805 
L 231.788384 -173.048836 
L 228.968236 -172.788824 
L 226.148087 -172.49096 
L 223.327939 -172.154561 
L 220.507791 -171.779082 
L 217.687643 -171.364123 
L 214.867494 -170.909447 
L 212.047346 -170.414984 
L 209.227198 -169.880846 
L 206.40705 -169.307332 
L 203.586901 -168.694938 
L 200.766753 -168.04436 
L 197.946605 -167.356501 
L 195.126457 -166.632471 
L 192.306308 -165.873588 
L 189.48616 -165.081378 
L 186.666012 -164.257566 
L 183.845864 -163.404076 
L 181.025715 -162.523015 
L 178.205567 -161.61667 
L 175.385419 -160.687486 
L 172.565271 -159.738058 
L 169.745122 -158.771108 
z
" style="stroke: #b12a90"/>
    </defs>
    <g clip-path="url(#pca37376e9e)">
     <use xlink:href="#ma99718effe" x="0" y="280.655312" style="fill: #b12a90; fill-opacity: 0.5; stroke: #b12a90"/>
    </g>
   </g>
   <g id="matplotlib.axis_3">
    <g id="xtick_7">
     <g id="line2d_9">
      <g>
       <use xlink:href="#m0d1edc471a" x="169.745122" y="150.312" style="stroke: #000000; stroke-width: 0.8"/>
      </g>
     </g>
    </g>
    <g id="xtick_8">
     <g id="line2d_10">
      <g>
       <use xlink:href="#m0d1edc471a" x="281.987022" y="150.312" style="stroke: #000000; stroke-width: 0.8"/>
      </g>
     </g>
    </g>
    <g id="xtick_9">
     <g id="line2d_11">
      <g>
       <use xlink:href="#m0d1edc471a" x="394.228923" y="150.312" style="stroke: #000000; stroke-width: 0.8"/>
      </g>
     </g>
    </g>
    <g id="xtick_10">
     <g id="line2d_12">
      <g>
       <use xlink:href="#m0d1edc471a" x="506.470822" y="150.312" style="stroke: #000000; stroke-width: 0.8"/>
      </g>
     </g>
    </g>
    <g id="xtick_11">
     <g id="line2d_13">
      <g>
       <use xlink:href="#m0d1edc471a" x="618.712723" y="150.312" style="stroke: #000000; stroke-width: 0.8"/>
      </g>
     </g>
    </g>
    <g id="xtick_12">
     <g id="line2d_14">
      <g>
       <use xlink:href="#m0d1edc471a" x="730.954623" y="150.312" style="stroke: #000000; stroke-width: 0.8"/>
      </g>
     </g>
    </g>
   </g>
   <g id="matplotlib.axis_4"/>
   <g id="line2d_15">
    <path d="M 169.745122 121.884205 
L 181.025715 118.132297 
L 189.48616 115.573935 
L 197.946605 113.298812 
L 206.40705 111.347981 
L 212.047346 110.240329 
L 217.687643 109.29119 
L 223.327939 108.500751 
L 228.968236 107.866489 
L 237.42868 107.196662 
L 245.889125 106.84222 
L 254.34957 106.771397 
L 262.810014 106.947861 
L 271.270459 107.333052 
L 282.551052 108.104464 
L 296.651793 109.361942 
L 316.392831 111.419379 
L 358.695055 116.14504 
L 389.716685 119.818416 
L 417.918168 123.158571 
L 432.018909 124.603663 
L 443.299502 125.545011 
L 454.580095 126.242672 
L 465.860688 126.66921 
L 477.141281 126.822278 
L 488.421874 126.724805 
L 499.702467 126.421333 
L 516.623356 125.713772 
L 547.644987 124.338279 
L 561.745728 123.972541 
L 573.026321 123.886165 
L 584.306914 124.009724 
L 595.587507 124.348097 
L 606.8681 124.888233 
L 620.968841 125.804943 
L 637.889731 127.170435 
L 657.630768 129.010824 
L 677.371806 131.075611 
L 694.292695 133.067321 
L 711.213585 135.308884 
L 728.134474 137.78022 
L 730.954623 138.207805 
L 730.954623 138.207805 
" clip-path="url(#pca37376e9e)" style="fill: none; stroke: #ffffff; stroke-width: 2; stroke-linecap: square"/>
   </g>
   <g id="line2d_16">
    <path d="M 169.745122 150.312 
L 730.954623 150.312 
" style="fill: none; stroke: #000000; stroke-linecap: square"/>
   </g>
   <g id="text_2">
    <g id="patch_5">
     <path d="M 18.55125 159.721687 
L 114.778125 159.721687 
L 114.778125 140.902312 
L 18.55125 140.902312 
z
" style="fill: #ffffff; opacity: 0.5"/>
    </g>
    <!-- Space Exploration -->
    <g transform="translate(22.51125 153.194812) scale(0.12 -0.12)">
     <defs>
      <path id="TimesNewRomanPSMT-53" d="M 2934 4334 
L 2934 2869 
L 2819 2869 
Q 2763 3291 2617 3541 
Q 2472 3791 2203 3937 
Q 1934 4084 1647 4084 
Q 1322 4084 1109 3886 
Q 897 3688 897 3434 
Q 897 3241 1031 3081 
Q 1225 2847 1953 2456 
Q 2547 2138 2764 1967 
Q 2981 1797 3098 1565 
Q 3216 1334 3216 1081 
Q 3216 600 2842 251 
Q 2469 -97 1881 -97 
Q 1697 -97 1534 -69 
Q 1438 -53 1133 45 
Q 828 144 747 144 
Q 669 144 623 97 
Q 578 50 556 -97 
L 441 -97 
L 441 1356 
L 556 1356 
Q 638 900 775 673 
Q 913 447 1195 297 
Q 1478 147 1816 147 
Q 2206 147 2432 353 
Q 2659 559 2659 841 
Q 2659 997 2573 1156 
Q 2488 1316 2306 1453 
Q 2184 1547 1640 1851 
Q 1097 2156 867 2337 
Q 638 2519 519 2737 
Q 400 2956 400 3219 
Q 400 3675 750 4004 
Q 1100 4334 1641 4334 
Q 1978 4334 2356 4169 
Q 2531 4091 2603 4091 
Q 2684 4091 2736 4139 
Q 2788 4188 2819 4334 
L 2934 4334 
z
" transform="scale(0.015625)"/>
      <path id="TimesNewRomanPSMT-70" d="M -6 2578 
L 875 2934 
L 994 2934 
L 994 2266 
Q 1216 2644 1439 2795 
Q 1663 2947 1909 2947 
Q 2341 2947 2628 2609 
Q 2981 2197 2981 1534 
Q 2981 794 2556 309 
Q 2206 -88 1675 -88 
Q 1444 -88 1275 -22 
Q 1150 25 994 166 
L 994 -706 
Q 994 -1000 1030 -1079 
Q 1066 -1159 1155 -1206 
Q 1244 -1253 1478 -1253 
L 1478 -1369 
L -22 -1369 
L -22 -1253 
L 56 -1253 
Q 228 -1256 350 -1188 
Q 409 -1153 442 -1076 
Q 475 -1000 475 -688 
L 475 2019 
Q 475 2297 450 2372 
Q 425 2447 370 2484 
Q 316 2522 222 2522 
Q 147 2522 31 2478 
L -6 2578 
z
M 994 2081 
L 994 1013 
Q 994 666 1022 556 
Q 1066 375 1236 237 
Q 1406 100 1666 100 
Q 1978 100 2172 344 
Q 2425 663 2425 1241 
Q 2425 1897 2138 2250 
Q 1938 2494 1663 2494 
Q 1513 2494 1366 2419 
Q 1253 2363 994 2081 
z
" transform="scale(0.015625)"/>
      <path id="TimesNewRomanPSMT-61" d="M 1822 413 
Q 1381 72 1269 19 
Q 1100 -59 909 -59 
Q 613 -59 420 144 
Q 228 347 228 678 
Q 228 888 322 1041 
Q 450 1253 767 1440 
Q 1084 1628 1822 1897 
L 1822 2009 
Q 1822 2438 1686 2597 
Q 1550 2756 1291 2756 
Q 1094 2756 978 2650 
Q 859 2544 859 2406 
L 866 2225 
Q 866 2081 792 2003 
Q 719 1925 600 1925 
Q 484 1925 411 2006 
Q 338 2088 338 2228 
Q 338 2497 613 2722 
Q 888 2947 1384 2947 
Q 1766 2947 2009 2819 
Q 2194 2722 2281 2516 
Q 2338 2381 2338 1966 
L 2338 994 
Q 2338 584 2353 492 
Q 2369 400 2405 369 
Q 2441 338 2488 338 
Q 2538 338 2575 359 
Q 2641 400 2828 588 
L 2828 413 
Q 2478 -56 2159 -56 
Q 2006 -56 1915 50 
Q 1825 156 1822 413 
z
M 1822 616 
L 1822 1706 
Q 1350 1519 1213 1441 
Q 966 1303 859 1153 
Q 753 1003 753 825 
Q 753 600 887 451 
Q 1022 303 1197 303 
Q 1434 303 1822 616 
z
" transform="scale(0.015625)"/>
      <path id="TimesNewRomanPSMT-20" transform="scale(0.015625)"/>
      <path id="TimesNewRomanPSMT-45" d="M 1338 4006 
L 1338 2331 
L 2269 2331 
Q 2631 2331 2753 2441 
Q 2916 2584 2934 2947 
L 3050 2947 
L 3050 1472 
L 2934 1472 
Q 2891 1781 2847 1869 
Q 2791 1978 2662 2040 
Q 2534 2103 2269 2103 
L 1338 2103 
L 1338 706 
Q 1338 425 1363 364 
Q 1388 303 1450 267 
Q 1513 231 1688 231 
L 2406 231 
Q 2766 231 2928 281 
Q 3091 331 3241 478 
Q 3434 672 3638 1063 
L 3763 1063 
L 3397 0 
L 131 0 
L 131 116 
L 281 116 
Q 431 116 566 188 
Q 666 238 702 338 
Q 738 438 738 747 
L 738 3500 
Q 738 3903 656 3997 
Q 544 4122 281 4122 
L 131 4122 
L 131 4238 
L 3397 4238 
L 3444 3309 
L 3322 3309 
Q 3256 3644 3176 3769 
Q 3097 3894 2941 3959 
Q 2816 4006 2500 4006 
L 1338 4006 
z
" transform="scale(0.015625)"/>
      <path id="TimesNewRomanPSMT-78" d="M 84 2863 
L 1431 2863 
L 1431 2747 
Q 1303 2747 1251 2703 
Q 1200 2659 1200 2588 
Q 1200 2513 1309 2356 
Q 1344 2306 1413 2200 
L 1616 1875 
L 1850 2200 
Q 2075 2509 2075 2591 
Q 2075 2656 2022 2701 
Q 1969 2747 1850 2747 
L 1850 2863 
L 2819 2863 
L 2819 2747 
Q 2666 2738 2553 2663 
Q 2400 2556 2134 2200 
L 1744 1678 
L 2456 653 
Q 2719 275 2831 198 
Q 2944 122 3122 113 
L 3122 0 
L 1772 0 
L 1772 113 
Q 1913 113 1991 175 
Q 2050 219 2050 291 
Q 2050 363 1850 653 
L 1431 1266 
L 972 653 
Q 759 369 759 316 
Q 759 241 829 180 
Q 900 119 1041 113 
L 1041 0 
L 106 0 
L 106 113 
Q 219 128 303 191 
Q 422 281 703 653 
L 1303 1450 
L 759 2238 
Q 528 2575 401 2661 
Q 275 2747 84 2747 
L 84 2863 
z
" transform="scale(0.015625)"/>
      <path id="TimesNewRomanPSMT-72" d="M 1038 2947 
L 1038 2303 
Q 1397 2947 1775 2947 
Q 1947 2947 2059 2842 
Q 2172 2738 2172 2600 
Q 2172 2478 2090 2393 
Q 2009 2309 1897 2309 
Q 1788 2309 1652 2417 
Q 1516 2525 1450 2525 
Q 1394 2525 1328 2463 
Q 1188 2334 1038 2041 
L 1038 669 
Q 1038 431 1097 309 
Q 1138 225 1241 169 
Q 1344 113 1538 113 
L 1538 0 
L 72 0 
L 72 113 
Q 291 113 397 181 
Q 475 231 506 341 
Q 522 394 522 644 
L 522 1753 
Q 522 2253 501 2348 
Q 481 2444 426 2487 
Q 372 2531 291 2531 
Q 194 2531 72 2484 
L 41 2597 
L 906 2947 
L 1038 2947 
z
" transform="scale(0.015625)"/>
     </defs>
     <use xlink:href="#TimesNewRomanPSMT-53"/>
     <use xlink:href="#TimesNewRomanPSMT-70" transform="translate(55.615234 0)"/>
     <use xlink:href="#TimesNewRomanPSMT-61" transform="translate(105.615234 0)"/>
     <use xlink:href="#TimesNewRomanPSMT-63" transform="translate(150 0)"/>
     <use xlink:href="#TimesNewRomanPSMT-65" transform="translate(194.384766 0)"/>
     <use xlink:href="#TimesNewRomanPSMT-20" transform="translate(238.769531 0)"/>
     <use xlink:href="#TimesNewRomanPSMT-45" transform="translate(263.769531 0)"/>
     <use xlink:href="#TimesNewRomanPSMT-78" transform="translate(324.853516 0)"/>
     <use xlink:href="#TimesNewRomanPSMT-70" transform="translate(374.853516 0)"/>
     <use xlink:href="#TimesNewRomanPSMT-6c" transform="translate(424.853516 0)"/>
     <use xlink:href="#TimesNewRomanPSMT-6f" transform="translate(452.636719 0)"/>
     <use xlink:href="#TimesNewRomanPSMT-72" transform="translate(502.636719 0)"/>
     <use xlink:href="#TimesNewRomanPSMT-61" transform="translate(535.9375 0)"/>
     <use xlink:href="#TimesNewRomanPSMT-74" transform="translate(580.322266 0)"/>
     <use xlink:href="#TimesNewRomanPSMT-69" transform="translate(608.105469 0)"/>
     <use xlink:href="#TimesNewRomanPSMT-6f" transform="translate(635.888672 0)"/>
     <use xlink:href="#TimesNewRomanPSMT-6e" transform="translate(685.888672 0)"/>
    </g>
   </g>
  </g>
  <g id="axes_3">
   <g id="patch_6">
    <path d="M 169.745122 194.576 
L 730.954623 194.576 
L 730.954623 106.048 
L 169.745122 106.048 
L 169.745122 194.576 
z
" style="fill: none; opacity: 0"/>
   </g>
   <g id="FillBetweenPolyCollection_3">
    <defs>
     <path id="mb0509a2de8" d="M 169.745122 -107.718675 
L 169.745122 -86.079312 
L 172.565271 -86.079312 
L 175.385419 -86.079312 
L 178.205567 -86.079312 
L 181.025715 -86.079312 
L 183.845864 -86.079312 
L 186.666012 -86.079312 
L 189.48616 -86.079312 
L 192.306308 -86.079312 
L 195.126457 -86.079312 
L 197.946605 -86.079312 
L 200.766753 -86.079312 
L 203.586901 -86.079312 
L 206.40705 -86.079312 
L 209.227198 -86.079312 
L 212.047346 -86.079312 
L 214.867494 -86.079312 
L 217.687643 -86.079312 
L 220.507791 -86.079312 
L 223.327939 -86.079312 
L 226.148087 -86.079312 
L 228.968236 -86.079312 
L 231.788384 -86.079312 
L 234.608532 -86.079312 
L 237.42868 -86.079312 
L 240.248829 -86.079312 
L 243.068977 -86.079312 
L 245.889125 -86.079312 
L 248.709273 -86.079312 
L 251.529421 -86.079312 
L 254.34957 -86.079312 
L 257.169718 -86.079312 
L 259.989866 -86.079312 
L 262.810014 -86.079312 
L 265.630163 -86.079312 
L 268.450311 -86.079312 
L 271.270459 -86.079312 
L 274.090607 -86.079312 
L 276.910756 -86.079312 
L 279.730904 -86.079312 
L 282.551052 -86.079312 
L 285.3712 -86.079312 
L 288.191349 -86.079312 
L 291.011497 -86.079312 
L 293.831645 -86.079312 
L 296.651793 -86.079312 
L 299.471942 -86.079312 
L 302.29209 -86.079312 
L 305.112238 -86.079312 
L 307.932386 -86.079312 
L 310.752535 -86.079312 
L 313.572683 -86.079312 
L 316.392831 -86.079312 
L 319.212979 -86.079312 
L 322.033128 -86.079312 
L 324.853276 -86.079312 
L 327.673424 -86.079312 
L 330.493572 -86.079312 
L 333.31372 -86.079312 
L 336.133869 -86.079312 
L 338.954017 -86.079312 
L 341.774165 -86.079312 
L 344.594313 -86.079312 
L 347.414462 -86.079312 
L 350.23461 -86.079312 
L 353.054758 -86.079312 
L 355.874906 -86.079312 
L 358.695055 -86.079312 
L 361.515203 -86.079312 
L 364.335351 -86.079312 
L 367.155499 -86.079312 
L 369.975648 -86.079312 
L 372.795796 -86.079312 
L 375.615944 -86.079312 
L 378.436092 -86.079312 
L 381.256241 -86.079312 
L 384.076389 -86.079312 
L 386.896537 -86.079312 
L 389.716685 -86.079312 
L 392.536834 -86.079312 
L 395.356982 -86.079312 
L 398.17713 -86.079312 
L 400.997278 -86.079312 
L 403.817427 -86.079312 
L 406.637575 -86.079312 
L 409.457723 -86.079312 
L 412.277871 -86.079312 
L 415.098019 -86.079312 
L 417.918168 -86.079312 
L 420.738316 -86.079312 
L 423.558464 -86.079312 
L 426.378612 -86.079312 
L 429.198761 -86.079312 
L 432.018909 -86.079312 
L 434.839057 -86.079312 
L 437.659205 -86.079312 
L 440.479354 -86.079312 
L 443.299502 -86.079312 
L 446.11965 -86.079312 
L 448.939798 -86.079312 
L 451.759947 -86.079312 
L 454.580095 -86.079312 
L 457.400243 -86.079312 
L 460.220391 -86.079312 
L 463.04054 -86.079312 
L 465.860688 -86.079312 
L 468.680836 -86.079312 
L 471.500984 -86.079312 
L 474.321133 -86.079312 
L 477.141281 -86.079312 
L 479.961429 -86.079312 
L 482.781577 -86.079312 
L 485.601726 -86.079312 
L 488.421874 -86.079312 
L 491.242022 -86.079312 
L 494.06217 -86.079312 
L 496.882318 -86.079312 
L 499.702467 -86.079312 
L 502.522615 -86.079312 
L 505.342763 -86.079312 
L 508.162911 -86.079312 
L 510.98306 -86.079312 
L 513.803208 -86.079312 
L 516.623356 -86.079312 
L 519.443504 -86.079312 
L 522.263653 -86.079312 
L 525.083801 -86.079312 
L 527.903949 -86.079312 
L 530.724097 -86.079312 
L 533.544246 -86.079312 
L 536.364394 -86.079312 
L 539.184542 -86.079312 
L 542.00469 -86.079312 
L 544.824839 -86.079312 
L 547.644987 -86.079312 
L 550.465135 -86.079312 
L 553.285283 -86.079312 
L 556.105432 -86.079312 
L 558.92558 -86.079312 
L 561.745728 -86.079312 
L 564.565876 -86.079312 
L 567.386025 -86.079312 
L 570.206173 -86.079312 
L 573.026321 -86.079312 
L 575.846469 -86.079312 
L 578.666617 -86.079312 
L 581.486766 -86.079312 
L 584.306914 -86.079312 
L 587.127062 -86.079312 
L 589.94721 -86.079312 
L 592.767359 -86.079312 
L 595.587507 -86.079312 
L 598.407655 -86.079312 
L 601.227803 -86.079312 
L 604.047952 -86.079312 
L 606.8681 -86.079312 
L 609.688248 -86.079312 
L 612.508396 -86.079312 
L 615.328545 -86.079312 
L 618.148693 -86.079312 
L 620.968841 -86.079312 
L 623.788989 -86.079312 
L 626.609138 -86.079312 
L 629.429286 -86.079312 
L 632.249434 -86.079312 
L 635.069582 -86.079312 
L 637.889731 -86.079312 
L 640.709879 -86.079312 
L 643.530027 -86.079312 
L 646.350175 -86.079312 
L 649.170324 -86.079312 
L 651.990472 -86.079312 
L 654.81062 -86.079312 
L 657.630768 -86.079312 
L 660.450916 -86.079312 
L 663.271065 -86.079312 
L 666.091213 -86.079312 
L 668.911361 -86.079312 
L 671.731509 -86.079312 
L 674.551658 -86.079312 
L 677.371806 -86.079312 
L 680.191954 -86.079312 
L 683.012102 -86.079312 
L 685.832251 -86.079312 
L 688.652399 -86.079312 
L 691.472547 -86.079312 
L 694.292695 -86.079312 
L 697.112844 -86.079312 
L 699.932992 -86.079312 
L 702.75314 -86.079312 
L 705.573288 -86.079312 
L 708.393437 -86.079312 
L 711.213585 -86.079312 
L 714.033733 -86.079312 
L 716.853881 -86.079312 
L 719.67403 -86.079312 
L 722.494178 -86.079312 
L 725.314326 -86.079312 
L 728.134474 -86.079312 
L 730.954623 -86.079312 
L 730.954623 -108.182128 
L 730.954623 -108.182128 
L 728.134474 -109.083583 
L 725.314326 -109.982637 
L 722.494178 -110.876584 
L 719.67403 -111.762698 
L 716.853881 -112.638249 
L 714.033733 -113.500524 
L 711.213585 -114.346844 
L 708.393437 -115.174588 
L 705.573288 -115.981206 
L 702.75314 -116.764242 
L 699.932992 -117.521352 
L 697.112844 -118.250316 
L 694.292695 -118.949062 
L 691.472547 -119.615672 
L 688.652399 -120.248402 
L 685.832251 -120.845692 
L 683.012102 -121.406174 
L 680.191954 -121.928681 
L 677.371806 -122.412258 
L 674.551658 -122.856159 
L 671.731509 -123.259856 
L 668.911361 -123.623036 
L 666.091213 -123.945604 
L 663.271065 -124.227674 
L 660.450916 -124.469568 
L 657.630768 -124.671808 
L 654.81062 -124.835108 
L 651.990472 -124.960362 
L 649.170324 -125.048634 
L 646.350175 -125.101145 
L 643.530027 -125.119258 
L 640.709879 -125.104461 
L 637.889731 -125.058355 
L 635.069582 -124.982633 
L 632.249434 -124.879065 
L 629.429286 -124.749479 
L 626.609138 -124.595745 
L 623.788989 -124.419754 
L 620.968841 -124.223405 
L 618.148693 -124.008586 
L 615.328545 -123.777159 
L 612.508396 -123.530941 
L 609.688248 -123.271698 
L 606.8681 -123.001122 
L 604.047952 -122.720829 
L 601.227803 -122.432344 
L 598.407655 -122.137094 
L 595.587507 -121.836401 
L 592.767359 -121.53148 
L 589.94721 -121.223432 
L 587.127062 -120.913247 
L 584.306914 -120.601802 
L 581.486766 -120.289864 
L 578.666617 -119.978097 
L 575.846469 -119.667065 
L 573.026321 -119.357241 
L 570.206173 -119.049013 
L 567.386025 -118.742696 
L 564.565876 -118.438545 
L 561.745728 -118.13676 
L 558.92558 -117.837502 
L 556.105432 -117.540904 
L 553.285283 -117.247084 
L 550.465135 -116.956152 
L 547.644987 -116.668227 
L 544.824839 -116.383442 
L 542.00469 -116.101955 
L 539.184542 -115.823958 
L 536.364394 -115.549681 
L 533.544246 -115.279398 
L 530.724097 -115.013432 
L 527.903949 -114.752152 
L 525.083801 -114.49598 
L 522.263653 -114.245381 
L 519.443504 -114.000866 
L 516.623356 -113.762982 
L 513.803208 -113.53231 
L 510.98306 -113.309453 
L 508.162911 -113.095031 
L 505.342763 -112.889667 
L 502.522615 -112.693978 
L 499.702467 -112.508566 
L 496.882318 -112.334004 
L 494.06217 -112.170823 
L 491.242022 -112.019509 
L 488.421874 -111.880482 
L 485.601726 -111.754095 
L 482.781577 -111.640622 
L 479.961429 -111.540249 
L 477.141281 -111.453072 
L 474.321133 -111.379088 
L 471.500984 -111.318197 
L 468.680836 -111.270195 
L 465.860688 -111.234779 
L 463.04054 -111.211546 
L 460.220391 -111.199997 
L 457.400243 -111.199543 
L 454.580095 -111.209511 
L 451.759947 -111.229149 
L 448.939798 -111.257638 
L 446.11965 -111.2941 
L 443.299502 -111.337607 
L 440.479354 -111.387195 
L 437.659205 -111.441869 
L 434.839057 -111.500621 
L 432.018909 -111.562438 
L 429.198761 -111.626309 
L 426.378612 -111.691243 
L 423.558464 -111.756274 
L 420.738316 -111.820468 
L 417.918168 -111.882937 
L 415.098019 -111.942845 
L 412.277871 -111.999411 
L 409.457723 -112.051919 
L 406.637575 -112.099721 
L 403.817427 -112.142243 
L 400.997278 -112.178985 
L 398.17713 -112.209527 
L 395.356982 -112.233527 
L 392.536834 -112.250726 
L 389.716685 -112.260946 
L 386.896537 -112.264089 
L 384.076389 -112.260141 
L 381.256241 -112.249166 
L 378.436092 -112.231307 
L 375.615944 -112.206786 
L 372.795796 -112.175902 
L 369.975648 -112.139026 
L 367.155499 -112.096602 
L 364.335351 -112.049144 
L 361.515203 -111.997234 
L 358.695055 -111.941518 
L 355.874906 -111.882705 
L 353.054758 -111.821559 
L 350.23461 -111.758901 
L 347.414462 -111.695599 
L 344.594313 -111.632567 
L 341.774165 -111.570757 
L 338.954017 -111.511152 
L 336.133869 -111.45476 
L 333.31372 -111.402604 
L 330.493572 -111.355716 
L 327.673424 -111.315123 
L 324.853276 -111.28184 
L 322.033128 -111.256855 
L 319.212979 -111.241118 
L 316.392831 -111.235531 
L 313.572683 -111.240928 
L 310.752535 -111.258067 
L 307.932386 -111.287615 
L 305.112238 -111.33013 
L 302.29209 -111.386052 
L 299.471942 -111.455688 
L 296.651793 -111.539198 
L 293.831645 -111.636587 
L 291.011497 -111.74769 
L 288.191349 -111.872165 
L 285.3712 -112.009488 
L 282.551052 -112.158944 
L 279.730904 -112.319625 
L 276.910756 -112.49043 
L 274.090607 -112.670066 
L 271.270459 -112.857049 
L 268.450311 -113.049717 
L 265.630163 -113.246231 
L 262.810014 -113.444594 
L 259.989866 -113.642662 
L 257.169718 -113.838159 
L 254.34957 -114.028701 
L 251.529421 -114.211814 
L 248.709273 -114.384955 
L 245.889125 -114.545542 
L 243.068977 -114.690977 
L 240.248829 -114.818672 
L 237.42868 -114.926077 
L 234.608532 -115.010711 
L 231.788384 -115.070184 
L 228.968236 -115.102229 
L 226.148087 -115.104725 
L 223.327939 -115.075723 
L 220.507791 -115.013468 
L 217.687643 -114.916422 
L 214.867494 -114.78328 
L 212.047346 -114.612987 
L 209.227198 -114.404754 
L 206.40705 -114.158064 
L 203.586901 -113.872681 
L 200.766753 -113.548655 
L 197.946605 -113.18632 
L 195.126457 -112.786292 
L 192.306308 -112.349464 
L 189.48616 -111.876997 
L 186.666012 -111.370306 
L 183.845864 -110.831049 
L 181.025715 -110.261102 
L 178.205567 -109.662551 
L 175.385419 -109.037658 
L 172.565271 -108.388847 
L 169.745122 -107.718675 
z
" style="stroke: #e16462"/>
    </defs>
    <g clip-path="url(#pd9c2265703)">
     <use xlink:href="#mb0509a2de8" x="0" y="280.655312" style="fill: #e16462; fill-opacity: 0.5; stroke: #e16462"/>
    </g>
   </g>
   <g id="matplotlib.axis_5">
    <g id="xtick_13">
     <g id="line2d_17">
      <g>
       <use xlink:href="#m0d1edc471a" x="169.745122" y="194.576" style="stroke: #000000; stroke-width: 0.8"/>
      </g>
     </g>
    </g>
    <g id="xtick_14">
     <g id="line2d_18">
      <g>
       <use xlink:href="#m0d1edc471a" x="281.987022" y="194.576" style="stroke: #000000; stroke-width: 0.8"/>
      </g>
     </g>
    </g>
    <g id="xtick_15">
     <g id="line2d_19">
      <g>
       <use xlink:href="#m0d1edc471a" x="394.228923" y="194.576" style="stroke: #000000; stroke-width: 0.8"/>
      </g>
     </g>
    </g>
    <g id="xtick_16">
     <g id="line2d_20">
      <g>
       <use xlink:href="#m0d1edc471a" x="506.470822" y="194.576" style="stroke: #000000; stroke-width: 0.8"/>
      </g>
     </g>
    </g>
    <g id="xtick_17">
     <g id="line2d_21">
      <g>
       <use xlink:href="#m0d1edc471a" x="618.712723" y="194.576" style="stroke: #000000; stroke-width: 0.8"/>
      </g>
     </g>
    </g>
    <g id="xtick_18">
     <g id="line2d_22">
      <g>
       <use xlink:href="#m0d1edc471a" x="730.954623" y="194.576" style="stroke: #000000; stroke-width: 0.8"/>
      </g>
     </g>
    </g>
   </g>
   <g id="matplotlib.axis_6"/>
   <g id="line2d_23">
    <path d="M 169.745122 172.936637 
L 178.205567 170.992762 
L 186.666012 169.285006 
L 195.126457 167.869021 
L 200.766753 167.106657 
L 206.40705 166.497248 
L 212.047346 166.042325 
L 220.507791 165.641844 
L 228.968236 165.553083 
L 237.42868 165.729235 
L 245.889125 166.10977 
L 259.989866 167.012651 
L 282.551052 168.496369 
L 293.831645 169.018725 
L 305.112238 169.325183 
L 316.392831 169.419782 
L 330.493572 169.299597 
L 355.874906 168.772608 
L 375.615944 168.448526 
L 392.536834 168.404586 
L 409.457723 168.603394 
L 460.220391 169.455316 
L 471.500984 169.337116 
L 482.781577 169.014691 
L 494.06217 168.484489 
L 508.162911 167.560281 
L 522.263653 166.409931 
L 542.00469 164.553358 
L 567.386025 161.912616 
L 609.688248 157.383615 
L 620.968841 156.431908 
L 629.429286 155.905833 
L 637.889731 155.596957 
L 646.350175 155.554167 
L 654.81062 155.820204 
L 660.450916 156.185744 
L 666.091213 156.709708 
L 671.731509 157.395457 
L 677.371806 158.243055 
L 683.012102 159.249139 
L 691.472547 161.039641 
L 699.932992 163.133961 
L 708.393437 165.480725 
L 719.67403 168.892614 
L 730.954623 172.473185 
L 730.954623 172.473185 
" clip-path="url(#pd9c2265703)" style="fill: none; stroke: #ffffff; stroke-width: 2; stroke-linecap: square"/>
   </g>
   <g id="line2d_24">
    <path d="M 169.745122 194.576 
L 730.954623 194.576 
" style="fill: none; stroke: #000000; stroke-linecap: square"/>
   </g>
   <g id="text_3">
    <g id="patch_7">
     <path d="M 3.24 203.996937 
L 114.778125 203.996937 
L 114.778125 185.155062 
L 3.24 185.155062 
z
" style="fill: #ffffff; opacity: 0.5"/>
    </g>
    <!-- Artificial Intelligence -->
    <g transform="translate(7.2 197.447562) scale(0.12 -0.12)">
     <defs>
      <path id="TimesNewRomanPSMT-41" d="M 2928 1419 
L 1288 1419 
L 1000 750 
Q 894 503 894 381 
Q 894 284 986 211 
Q 1078 138 1384 116 
L 1384 0 
L 50 0 
L 50 116 
Q 316 163 394 238 
Q 553 388 747 847 
L 2238 4334 
L 2347 4334 
L 3822 809 
Q 4000 384 4145 257 
Q 4291 131 4550 116 
L 4550 0 
L 2878 0 
L 2878 116 
Q 3131 128 3220 200 
Q 3309 272 3309 375 
Q 3309 513 3184 809 
L 2928 1419 
z
M 2841 1650 
L 2122 3363 
L 1384 1650 
L 2841 1650 
z
" transform="scale(0.015625)"/>
      <path id="TimesNewRomanPSMT-66" d="M 1319 2638 
L 1319 756 
Q 1319 356 1406 250 
Q 1522 113 1716 113 
L 1975 113 
L 1975 0 
L 266 0 
L 266 113 
L 394 113 
Q 519 113 622 175 
Q 725 238 764 344 
Q 803 450 803 756 
L 803 2638 
L 247 2638 
L 247 2863 
L 803 2863 
L 803 3050 
Q 803 3478 940 3775 
Q 1078 4072 1361 4255 
Q 1644 4438 1997 4438 
Q 2325 4438 2600 4225 
Q 2781 4084 2781 3909 
Q 2781 3816 2700 3733 
Q 2619 3650 2525 3650 
Q 2453 3650 2373 3701 
Q 2294 3753 2178 3923 
Q 2063 4094 1966 4153 
Q 1869 4213 1750 4213 
Q 1606 4213 1506 4136 
Q 1406 4059 1362 3898 
Q 1319 3738 1319 3069 
L 1319 2863 
L 2056 2863 
L 2056 2638 
L 1319 2638 
z
" transform="scale(0.015625)"/>
      <path id="TimesNewRomanPSMT-49" d="M 1975 116 
L 1975 0 
L 159 0 
L 159 116 
L 309 116 
Q 572 116 691 269 
Q 766 369 766 750 
L 766 3488 
Q 766 3809 725 3913 
Q 694 3991 597 4047 
Q 459 4122 309 4122 
L 159 4122 
L 159 4238 
L 1975 4238 
L 1975 4122 
L 1822 4122 
Q 1563 4122 1444 3969 
Q 1366 3869 1366 3488 
L 1366 750 
Q 1366 428 1406 325 
Q 1438 247 1538 191 
Q 1672 116 1822 116 
L 1975 116 
z
" transform="scale(0.015625)"/>
     </defs>
     <use xlink:href="#TimesNewRomanPSMT-41"/>
     <use xlink:href="#TimesNewRomanPSMT-72" transform="translate(72.216797 0)"/>
     <use xlink:href="#TimesNewRomanPSMT-74" transform="translate(105.517578 0)"/>
     <use xlink:href="#TimesNewRomanPSMT-69" transform="translate(133.300781 0)"/>
     <use xlink:href="#TimesNewRomanPSMT-66" transform="translate(161.083984 0)"/>
     <use xlink:href="#TimesNewRomanPSMT-69" transform="translate(194.384766 0)"/>
     <use xlink:href="#TimesNewRomanPSMT-63" transform="translate(222.167969 0)"/>
     <use xlink:href="#TimesNewRomanPSMT-69" transform="translate(266.552734 0)"/>
     <use xlink:href="#TimesNewRomanPSMT-61" transform="translate(294.335938 0)"/>
     <use xlink:href="#TimesNewRomanPSMT-6c" transform="translate(338.720703 0)"/>
     <use xlink:href="#TimesNewRomanPSMT-20" transform="translate(366.503906 0)"/>
     <use xlink:href="#TimesNewRomanPSMT-49" transform="translate(391.503906 0)"/>
     <use xlink:href="#TimesNewRomanPSMT-6e" transform="translate(424.804688 0)"/>
     <use xlink:href="#TimesNewRomanPSMT-74" transform="translate(474.804688 0)"/>
     <use xlink:href="#TimesNewRomanPSMT-65" transform="translate(502.587891 0)"/>
     <use xlink:href="#TimesNewRomanPSMT-6c" transform="translate(546.972656 0)"/>
     <use xlink:href="#TimesNewRomanPSMT-6c" transform="translate(574.755859 0)"/>
     <use xlink:href="#TimesNewRomanPSMT-69" transform="translate(602.539062 0)"/>
     <use xlink:href="#TimesNewRomanPSMT-67" transform="translate(630.322266 0)"/>
     <use xlink:href="#TimesNewRomanPSMT-65" transform="translate(680.322266 0)"/>
     <use xlink:href="#TimesNewRomanPSMT-6e" transform="translate(724.707031 0)"/>
     <use xlink:href="#TimesNewRomanPSMT-63" transform="translate(774.707031 0)"/>
     <use xlink:href="#TimesNewRomanPSMT-65" transform="translate(819.091797 0)"/>
    </g>
   </g>
  </g>
  <g id="axes_4">
   <g id="patch_8">
    <path d="M 169.745122 238.84 
L 730.954623 238.84 
L 730.954623 150.312 
L 169.745122 150.312 
L 169.745122 238.84 
z
" style="fill: none; opacity: 0"/>
   </g>
   <g id="FillBetweenPolyCollection_4">
    <defs>
     <path id="m5242c24d5e" d="M 169.745122 -48.703117 
L 169.745122 -41.815313 
L 172.565271 -41.815313 
L 175.385419 -41.815313 
L 178.205567 -41.815313 
L 181.025715 -41.815313 
L 183.845864 -41.815313 
L 186.666012 -41.815313 
L 189.48616 -41.815313 
L 192.306308 -41.815313 
L 195.126457 -41.815313 
L 197.946605 -41.815313 
L 200.766753 -41.815313 
L 203.586901 -41.815313 
L 206.40705 -41.815313 
L 209.227198 -41.815313 
L 212.047346 -41.815313 
L 214.867494 -41.815313 
L 217.687643 -41.815313 
L 220.507791 -41.815313 
L 223.327939 -41.815313 
L 226.148087 -41.815313 
L 228.968236 -41.815313 
L 231.788384 -41.815313 
L 234.608532 -41.815313 
L 237.42868 -41.815313 
L 240.248829 -41.815313 
L 243.068977 -41.815313 
L 245.889125 -41.815313 
L 248.709273 -41.815313 
L 251.529421 -41.815313 
L 254.34957 -41.815313 
L 257.169718 -41.815313 
L 259.989866 -41.815313 
L 262.810014 -41.815313 
L 265.630163 -41.815313 
L 268.450311 -41.815313 
L 271.270459 -41.815313 
L 274.090607 -41.815313 
L 276.910756 -41.815313 
L 279.730904 -41.815313 
L 282.551052 -41.815313 
L 285.3712 -41.815313 
L 288.191349 -41.815313 
L 291.011497 -41.815313 
L 293.831645 -41.815313 
L 296.651793 -41.815313 
L 299.471942 -41.815313 
L 302.29209 -41.815313 
L 305.112238 -41.815313 
L 307.932386 -41.815313 
L 310.752535 -41.815313 
L 313.572683 -41.815313 
L 316.392831 -41.815313 
L 319.212979 -41.815313 
L 322.033128 -41.815313 
L 324.853276 -41.815313 
L 327.673424 -41.815313 
L 330.493572 -41.815313 
L 333.31372 -41.815313 
L 336.133869 -41.815313 
L 338.954017 -41.815313 
L 341.774165 -41.815313 
L 344.594313 -41.815313 
L 347.414462 -41.815313 
L 350.23461 -41.815313 
L 353.054758 -41.815313 
L 355.874906 -41.815313 
L 358.695055 -41.815313 
L 361.515203 -41.815313 
L 364.335351 -41.815313 
L 367.155499 -41.815313 
L 369.975648 -41.815313 
L 372.795796 -41.815313 
L 375.615944 -41.815313 
L 378.436092 -41.815313 
L 381.256241 -41.815313 
L 384.076389 -41.815313 
L 386.896537 -41.815313 
L 389.716685 -41.815313 
L 392.536834 -41.815313 
L 395.356982 -41.815313 
L 398.17713 -41.815313 
L 400.997278 -41.815313 
L 403.817427 -41.815313 
L 406.637575 -41.815313 
L 409.457723 -41.815313 
L 412.277871 -41.815313 
L 415.098019 -41.815313 
L 417.918168 -41.815313 
L 420.738316 -41.815313 
L 423.558464 -41.815313 
L 426.378612 -41.815313 
L 429.198761 -41.815313 
L 432.018909 -41.815313 
L 434.839057 -41.815313 
L 437.659205 -41.815313 
L 440.479354 -41.815313 
L 443.299502 -41.815313 
L 446.11965 -41.815313 
L 448.939798 -41.815313 
L 451.759947 -41.815313 
L 454.580095 -41.815313 
L 457.400243 -41.815313 
L 460.220391 -41.815313 
L 463.04054 -41.815313 
L 465.860688 -41.815313 
L 468.680836 -41.815313 
L 471.500984 -41.815313 
L 474.321133 -41.815313 
L 477.141281 -41.815313 
L 479.961429 -41.815313 
L 482.781577 -41.815313 
L 485.601726 -41.815313 
L 488.421874 -41.815313 
L 491.242022 -41.815313 
L 494.06217 -41.815313 
L 496.882318 -41.815313 
L 499.702467 -41.815313 
L 502.522615 -41.815313 
L 505.342763 -41.815313 
L 508.162911 -41.815313 
L 510.98306 -41.815313 
L 513.803208 -41.815313 
L 516.623356 -41.815313 
L 519.443504 -41.815313 
L 522.263653 -41.815313 
L 525.083801 -41.815313 
L 527.903949 -41.815313 
L 530.724097 -41.815313 
L 533.544246 -41.815313 
L 536.364394 -41.815313 
L 539.184542 -41.815313 
L 542.00469 -41.815313 
L 544.824839 -41.815313 
L 547.644987 -41.815313 
L 550.465135 -41.815313 
L 553.285283 -41.815313 
L 556.105432 -41.815313 
L 558.92558 -41.815313 
L 561.745728 -41.815313 
L 564.565876 -41.815313 
L 567.386025 -41.815313 
L 570.206173 -41.815313 
L 573.026321 -41.815313 
L 575.846469 -41.815313 
L 578.666617 -41.815313 
L 581.486766 -41.815313 
L 584.306914 -41.815313 
L 587.127062 -41.815313 
L 589.94721 -41.815313 
L 592.767359 -41.815313 
L 595.587507 -41.815313 
L 598.407655 -41.815313 
L 601.227803 -41.815313 
L 604.047952 -41.815313 
L 606.8681 -41.815313 
L 609.688248 -41.815313 
L 612.508396 -41.815313 
L 615.328545 -41.815313 
L 618.148693 -41.815313 
L 620.968841 -41.815313 
L 623.788989 -41.815313 
L 626.609138 -41.815313 
L 629.429286 -41.815313 
L 632.249434 -41.815313 
L 635.069582 -41.815313 
L 637.889731 -41.815313 
L 640.709879 -41.815313 
L 643.530027 -41.815313 
L 646.350175 -41.815313 
L 649.170324 -41.815313 
L 651.990472 -41.815313 
L 654.81062 -41.815313 
L 657.630768 -41.815313 
L 660.450916 -41.815313 
L 663.271065 -41.815313 
L 666.091213 -41.815313 
L 668.911361 -41.815313 
L 671.731509 -41.815313 
L 674.551658 -41.815313 
L 677.371806 -41.815313 
L 680.191954 -41.815313 
L 683.012102 -41.815313 
L 685.832251 -41.815313 
L 688.652399 -41.815313 
L 691.472547 -41.815313 
L 694.292695 -41.815313 
L 697.112844 -41.815313 
L 699.932992 -41.815313 
L 702.75314 -41.815313 
L 705.573288 -41.815313 
L 708.393437 -41.815313 
L 711.213585 -41.815313 
L 714.033733 -41.815313 
L 716.853881 -41.815313 
L 719.67403 -41.815313 
L 722.494178 -41.815313 
L 725.314326 -41.815313 
L 728.134474 -41.815313 
L 730.954623 -41.815313 
L 730.954623 -56.261055 
L 730.954623 -56.261055 
L 728.134474 -57.260017 
L 725.314326 -58.296491 
L 722.494178 -59.368544 
L 719.67403 -60.473782 
L 716.853881 -61.609331 
L 714.033733 -62.771826 
L 711.213585 -63.957407 
L 708.393437 -65.161724 
L 705.573288 -66.379948 
L 702.75314 -67.606801 
L 699.932992 -68.836588 
L 697.112844 -70.063242 
L 694.292695 -71.280386 
L 691.472547 -72.481394 
L 688.652399 -73.659476 
L 685.832251 -74.807754 
L 683.012102 -75.919364 
L 680.191954 -76.987551 
L 677.371806 -78.005772 
L 674.551658 -78.967798 
L 671.731509 -79.867824 
L 668.911361 -80.700567 
L 666.091213 -81.461362 
L 663.271065 -82.146255 
L 660.450916 -82.752082 
L 657.630768 -83.276539 
L 654.81062 -83.718239 
L 651.990472 -84.076755 
L 649.170324 -84.352646 
L 646.350175 -84.547468 
L 643.530027 -84.66377 
L 640.709879 -84.705071 
L 637.889731 -84.675819 
L 635.069582 -84.58134 
L 632.249434 -84.427766 
L 629.429286 -84.221954 
L 626.609138 -83.971395 
L 623.788989 -83.684102 
L 620.968841 -83.36851 
L 618.148693 -83.033347 
L 615.328545 -82.687523 
L 612.508396 -82.340002 
L 609.688248 -81.99968 
L 606.8681 -81.675272 
L 604.047952 -81.375193 
L 601.227803 -81.10745 
L 598.407655 -80.879544 
L 595.587507 -80.698379 
L 592.767359 -80.570178 
L 589.94721 -80.500414 
L 587.127062 -80.493749 
L 584.306914 -80.553989 
L 581.486766 -80.684045 
L 578.666617 -80.885906 
L 575.846469 -81.160628 
L 573.026321 -81.508329 
L 570.206173 -81.928193 
L 567.386025 -82.418489 
L 564.565876 -82.976593 
L 561.745728 -83.599019 
L 558.92558 -84.281463 
L 556.105432 -85.018845 
L 553.285283 -85.805359 
L 550.465135 -86.634536 
L 547.644987 -87.499304 
L 544.824839 -88.39205 
L 542.00469 -89.304696 
L 539.184542 -90.228769 
L 536.364394 -91.155481 
L 533.544246 -92.075807 
L 530.724097 -92.980565 
L 527.903949 -93.860507 
L 525.083801 -94.7064 
L 522.263653 -95.509118 
L 519.443504 -96.259727 
L 516.623356 -96.949581 
L 513.803208 -97.570405 
L 510.98306 -98.114387 
L 508.162911 -98.574269 
L 505.342763 -98.943421 
L 502.522615 -99.215934 
L 499.702467 -99.386687 
L 496.882318 -99.45142 
L 494.06217 -99.406796 
L 491.242022 -99.250458 
L 488.421874 -98.98107 
L 485.601726 -98.59835 
L 482.781577 -98.103097 
L 479.961429 -97.497197 
L 477.141281 -96.783619 
L 474.321133 -95.966397 
L 471.500984 -95.050599 
L 468.680836 -94.04228 
L 465.860688 -92.948419 
L 463.04054 -91.77685 
L 460.220391 -90.536171 
L 457.400243 -89.235644 
L 454.580095 -87.885091 
L 451.759947 -86.494772 
L 448.939798 -85.075258 
L 446.11965 -83.637306 
L 443.299502 -82.191721 
L 440.479354 -80.749221 
L 437.659205 -79.320306 
L 434.839057 -77.915127 
L 432.018909 -76.543359 
L 429.198761 -75.214086 
L 426.378612 -73.935696 
L 423.558464 -72.715781 
L 420.738316 -71.561056 
L 417.918168 -70.477292 
L 415.098019 -69.469258 
L 412.277871 -68.540692 
L 409.457723 -67.694271 
L 406.637575 -66.931616 
L 403.817427 -66.253296 
L 400.997278 -65.658866 
L 398.17713 -65.146902 
L 395.356982 -64.715066 
L 392.536834 -64.360172 
L 389.716685 -64.078271 
L 386.896537 -63.864742 
L 384.076389 -63.714391 
L 381.256241 -63.621553 
L 378.436092 -63.580204 
L 375.615944 -63.584069 
L 372.795796 -63.626728 
L 369.975648 -63.701724 
L 367.155499 -63.802662 
L 364.335351 -63.923305 
L 361.515203 -64.057655 
L 358.695055 -64.200033 
L 355.874906 -64.345141 
L 353.054758 -64.488119 
L 350.23461 -64.624581 
L 347.414462 -64.750648 
L 344.594313 -64.862965 
L 341.774165 -64.958701 
L 338.954017 -65.035548 
L 336.133869 -65.091702 
L 333.31372 -65.125837 
L 330.493572 -65.137072 
L 327.673424 -65.124931 
L 324.853276 -65.089301 
L 322.033128 -65.03038 
L 319.212979 -64.948631 
L 316.392831 -64.844732 
L 313.572683 -64.719529 
L 310.752535 -64.573989 
L 307.932386 -64.409162 
L 305.112238 -64.226139 
L 302.29209 -64.026027 
L 299.471942 -63.809917 
L 296.651793 -63.578867 
L 293.831645 -63.333887 
L 291.011497 -63.075932 
L 288.191349 -62.805893 
L 285.3712 -62.524603 
L 282.551052 -62.232838 
L 279.730904 -61.931324 
L 276.910756 -61.620749 
L 274.090607 -61.301769 
L 271.270459 -60.975023 
L 268.450311 -60.641138 
L 265.630163 -60.300743 
L 262.810014 -59.954476 
L 259.989866 -59.602985 
L 257.169718 -59.246936 
L 254.34957 -58.88701 
L 251.529421 -58.523907 
L 248.709273 -58.158332 
L 245.889125 -57.791001 
L 243.068977 -57.422621 
L 240.248829 -57.05389 
L 237.42868 -56.685481 
L 234.608532 -56.318037 
L 231.788384 -55.952153 
L 228.968236 -55.588373 
L 226.148087 -55.22718 
L 223.327939 -54.868984 
L 220.507791 -54.514124 
L 217.687643 -54.162859 
L 214.867494 -53.815371 
L 212.047346 -53.471762 
L 209.227198 -53.132061 
L 206.40705 -52.796229 
L 203.586901 -52.464166 
L 200.766753 -52.135721 
L 197.946605 -51.810702 
L 195.126457 -51.48889 
L 192.306308 -51.170049 
L 189.48616 -50.853945 
L 186.666012 -50.540349 
L 183.845864 -50.22906 
L 181.025715 -49.91991 
L 178.205567 -49.612778 
L 175.385419 -49.307594 
L 172.565271 -49.004354 
L 169.745122 -48.703117 
z
" style="stroke: #fca636"/>
    </defs>
    <g clip-path="url(#p6d9f621ab8)">
     <use xlink:href="#m5242c24d5e" x="0" y="280.655312" style="fill: #fca636; fill-opacity: 0.5; stroke: #fca636"/>
    </g>
   </g>
   <g id="matplotlib.axis_7">
    <g id="xtick_19">
     <g id="line2d_25">
      <g>
       <use xlink:href="#m0d1edc471a" x="169.745122" y="238.84" style="stroke: #000000; stroke-width: 0.8"/>
      </g>
     </g>
     <g id="text_4">
      <!-- 0.0 -->
      <g transform="translate(162.245122 254.1725) scale(0.12 -0.12)">
       <defs>
        <path id="TimesNewRomanPSMT-30" d="M 231 2094 
Q 231 2819 450 3342 
Q 669 3866 1031 4122 
Q 1313 4325 1613 4325 
Q 2100 4325 2488 3828 
Q 2972 3213 2972 2159 
Q 2972 1422 2759 906 
Q 2547 391 2217 158 
Q 1888 -75 1581 -75 
Q 975 -75 572 641 
Q 231 1244 231 2094 
z
M 844 2016 
Q 844 1141 1059 588 
Q 1238 122 1591 122 
Q 1759 122 1940 273 
Q 2122 425 2216 781 
Q 2359 1319 2359 2297 
Q 2359 3022 2209 3506 
Q 2097 3866 1919 4016 
Q 1791 4119 1609 4119 
Q 1397 4119 1231 3928 
Q 1006 3669 925 3112 
Q 844 2556 844 2016 
z
" transform="scale(0.015625)"/>
        <path id="TimesNewRomanPSMT-2e" d="M 800 606 
Q 947 606 1047 504 
Q 1147 403 1147 259 
Q 1147 116 1045 14 
Q 944 -88 800 -88 
Q 656 -88 554 14 
Q 453 116 453 259 
Q 453 406 554 506 
Q 656 606 800 606 
z
" transform="scale(0.015625)"/>
       </defs>
       <use xlink:href="#TimesNewRomanPSMT-30"/>
       <use xlink:href="#TimesNewRomanPSMT-2e" transform="translate(50 0)"/>
       <use xlink:href="#TimesNewRomanPSMT-30" transform="translate(75 0)"/>
      </g>
     </g>
    </g>
    <g id="xtick_20">
     <g id="line2d_26">
      <g>
       <use xlink:href="#m0d1edc471a" x="281.987022" y="238.84" style="stroke: #000000; stroke-width: 0.8"/>
      </g>
     </g>
     <g id="text_5">
      <!-- 0.2 -->
      <g transform="translate(274.487022 254.1725) scale(0.12 -0.12)">
       <defs>
        <path id="TimesNewRomanPSMT-32" d="M 2934 816 
L 2638 0 
L 138 0 
L 138 116 
Q 1241 1122 1691 1759 
Q 2141 2397 2141 2925 
Q 2141 3328 1894 3587 
Q 1647 3847 1303 3847 
Q 991 3847 742 3664 
Q 494 3481 375 3128 
L 259 3128 
Q 338 3706 661 4015 
Q 984 4325 1469 4325 
Q 1984 4325 2329 3994 
Q 2675 3663 2675 3213 
Q 2675 2891 2525 2569 
Q 2294 2063 1775 1497 
Q 997 647 803 472 
L 1909 472 
Q 2247 472 2383 497 
Q 2519 522 2628 598 
Q 2738 675 2819 816 
L 2934 816 
z
" transform="scale(0.015625)"/>
       </defs>
       <use xlink:href="#TimesNewRomanPSMT-30"/>
       <use xlink:href="#TimesNewRomanPSMT-2e" transform="translate(50 0)"/>
       <use xlink:href="#TimesNewRomanPSMT-32" transform="translate(75 0)"/>
      </g>
     </g>
    </g>
    <g id="xtick_21">
     <g id="line2d_27">
      <g>
       <use xlink:href="#m0d1edc471a" x="394.228923" y="238.84" style="stroke: #000000; stroke-width: 0.8"/>
      </g>
     </g>
     <g id="text_6">
      <!-- 0.4 -->
      <g transform="translate(386.728923 254.1725) scale(0.12 -0.12)">
       <defs>
        <path id="TimesNewRomanPSMT-34" d="M 2978 1563 
L 2978 1119 
L 2409 1119 
L 2409 0 
L 1894 0 
L 1894 1119 
L 100 1119 
L 100 1519 
L 2066 4325 
L 2409 4325 
L 2409 1563 
L 2978 1563 
z
M 1894 1563 
L 1894 3666 
L 406 1563 
L 1894 1563 
z
" transform="scale(0.015625)"/>
       </defs>
       <use xlink:href="#TimesNewRomanPSMT-30"/>
       <use xlink:href="#TimesNewRomanPSMT-2e" transform="translate(50 0)"/>
       <use xlink:href="#TimesNewRomanPSMT-34" transform="translate(75 0)"/>
      </g>
     </g>
    </g>
    <g id="xtick_22">
     <g id="line2d_28">
      <g>
       <use xlink:href="#m0d1edc471a" x="506.470822" y="238.84" style="stroke: #000000; stroke-width: 0.8"/>
      </g>
     </g>
     <g id="text_7">
      <!-- 0.6 -->
      <g transform="translate(498.970822 254.1725) scale(0.12 -0.12)">
       <defs>
        <path id="TimesNewRomanPSMT-36" d="M 2869 4325 
L 2869 4209 
Q 2456 4169 2195 4045 
Q 1934 3922 1679 3669 
Q 1425 3416 1258 3105 
Q 1091 2794 978 2366 
Q 1428 2675 1881 2675 
Q 2316 2675 2634 2325 
Q 2953 1975 2953 1425 
Q 2953 894 2631 456 
Q 2244 -75 1606 -75 
Q 1172 -75 869 213 
Q 275 772 275 1663 
Q 275 2231 503 2743 
Q 731 3256 1154 3653 
Q 1578 4050 1965 4187 
Q 2353 4325 2688 4325 
L 2869 4325 
z
M 925 2138 
Q 869 1716 869 1456 
Q 869 1156 980 804 
Q 1091 453 1309 247 
Q 1469 100 1697 100 
Q 1969 100 2183 356 
Q 2397 613 2397 1088 
Q 2397 1622 2184 2012 
Q 1972 2403 1581 2403 
Q 1463 2403 1327 2353 
Q 1191 2303 925 2138 
z
" transform="scale(0.015625)"/>
       </defs>
       <use xlink:href="#TimesNewRomanPSMT-30"/>
       <use xlink:href="#TimesNewRomanPSMT-2e" transform="translate(50 0)"/>
       <use xlink:href="#TimesNewRomanPSMT-36" transform="translate(75 0)"/>
      </g>
     </g>
    </g>
    <g id="xtick_23">
     <g id="line2d_29">
      <g>
       <use xlink:href="#m0d1edc471a" x="618.712723" y="238.84" style="stroke: #000000; stroke-width: 0.8"/>
      </g>
     </g>
     <g id="text_8">
      <!-- 0.8 -->
      <g transform="translate(611.212723 254.1725) scale(0.12 -0.12)">
       <defs>
        <path id="TimesNewRomanPSMT-38" d="M 1228 2134 
Q 725 2547 579 2797 
Q 434 3047 434 3316 
Q 434 3728 753 4026 
Q 1072 4325 1600 4325 
Q 2113 4325 2425 4047 
Q 2738 3769 2738 3413 
Q 2738 3175 2569 2928 
Q 2400 2681 1866 2347 
Q 2416 1922 2594 1678 
Q 2831 1359 2831 1006 
Q 2831 559 2490 242 
Q 2150 -75 1597 -75 
Q 994 -75 656 303 
Q 388 606 388 966 
Q 388 1247 577 1523 
Q 766 1800 1228 2134 
z
M 1719 2469 
Q 2094 2806 2194 3001 
Q 2294 3197 2294 3444 
Q 2294 3772 2109 3958 
Q 1925 4144 1606 4144 
Q 1288 4144 1088 3959 
Q 888 3775 888 3528 
Q 888 3366 970 3203 
Q 1053 3041 1206 2894 
L 1719 2469 
z
M 1375 2016 
Q 1116 1797 991 1539 
Q 866 1281 866 981 
Q 866 578 1086 336 
Q 1306 94 1647 94 
Q 1984 94 2187 284 
Q 2391 475 2391 747 
Q 2391 972 2272 1150 
Q 2050 1481 1375 2016 
z
" transform="scale(0.015625)"/>
       </defs>
       <use xlink:href="#TimesNewRomanPSMT-30"/>
       <use xlink:href="#TimesNewRomanPSMT-2e" transform="translate(50 0)"/>
       <use xlink:href="#TimesNewRomanPSMT-38" transform="translate(75 0)"/>
      </g>
     </g>
    </g>
    <g id="xtick_24">
     <g id="line2d_30">
      <g>
       <use xlink:href="#m0d1edc471a" x="730.954623" y="238.84" style="stroke: #000000; stroke-width: 0.8"/>
      </g>
     </g>
     <g id="text_9">
      <!-- 1.0 -->
      <g transform="translate(723.454623 254.1725) scale(0.12 -0.12)">
       <defs>
        <path id="TimesNewRomanPSMT-31" d="M 750 3822 
L 1781 4325 
L 1884 4325 
L 1884 747 
Q 1884 391 1914 303 
Q 1944 216 2037 169 
Q 2131 122 2419 116 
L 2419 0 
L 825 0 
L 825 116 
Q 1125 122 1212 167 
Q 1300 213 1334 289 
Q 1369 366 1369 747 
L 1369 3034 
Q 1369 3497 1338 3628 
Q 1316 3728 1258 3775 
Q 1200 3822 1119 3822 
Q 1003 3822 797 3725 
L 750 3822 
z
" transform="scale(0.015625)"/>
       </defs>
       <use xlink:href="#TimesNewRomanPSMT-31"/>
       <use xlink:href="#TimesNewRomanPSMT-2e" transform="translate(50 0)"/>
       <use xlink:href="#TimesNewRomanPSMT-30" transform="translate(75 0)"/>
      </g>
     </g>
    </g>
    <g id="text_10">
     <!-- Value -->
     <g transform="translate(434.413935 270.460625) scale(0.14 -0.14)">
      <defs>
       <path id="TimesNewRomanPSMT-56" d="M 4544 4238 
L 4544 4122 
Q 4319 4081 4203 3978 
Q 4038 3825 3909 3509 
L 2431 -97 
L 2316 -97 
L 728 3556 
Q 606 3838 556 3900 
Q 478 3997 364 4051 
Q 250 4106 56 4122 
L 56 4238 
L 1788 4238 
L 1788 4122 
Q 1494 4094 1406 4022 
Q 1319 3950 1319 3838 
Q 1319 3681 1463 3350 
L 2541 866 
L 3541 3319 
Q 3688 3681 3688 3822 
Q 3688 3913 3597 3995 
Q 3506 4078 3291 4113 
Q 3275 4116 3238 4122 
L 3238 4238 
L 4544 4238 
z
" transform="scale(0.015625)"/>
       <path id="TimesNewRomanPSMT-75" d="M 2709 2863 
L 2709 1128 
Q 2709 631 2732 520 
Q 2756 409 2807 365 
Q 2859 322 2928 322 
Q 3025 322 3147 375 
L 3191 266 
L 2334 -88 
L 2194 -88 
L 2194 519 
Q 1825 119 1631 15 
Q 1438 -88 1222 -88 
Q 981 -88 804 51 
Q 628 191 559 409 
Q 491 628 491 1028 
L 491 2306 
Q 491 2509 447 2587 
Q 403 2666 317 2708 
Q 231 2750 6 2747 
L 6 2863 
L 1009 2863 
L 1009 947 
Q 1009 547 1148 422 
Q 1288 297 1484 297 
Q 1619 297 1789 381 
Q 1959 466 2194 703 
L 2194 2325 
Q 2194 2569 2105 2655 
Q 2016 2741 1734 2747 
L 1734 2863 
L 2709 2863 
z
" transform="scale(0.015625)"/>
      </defs>
      <use xlink:href="#TimesNewRomanPSMT-56"/>
      <use xlink:href="#TimesNewRomanPSMT-61" transform="translate(61.091797 0)"/>
      <use xlink:href="#TimesNewRomanPSMT-6c" transform="translate(105.476562 0)"/>
      <use xlink:href="#TimesNewRomanPSMT-75" transform="translate(133.259766 0)"/>
      <use xlink:href="#TimesNewRomanPSMT-65" transform="translate(183.259766 0)"/>
     </g>
    </g>
    <g id="text_11">
     <!-- 1e8 -->
     <g transform="translate(716.51556 266.683125) scale(0.1 -0.1)">
      <use xlink:href="#TimesNewRomanPSMT-31"/>
      <use xlink:href="#TimesNewRomanPSMT-65" transform="translate(50 0)"/>
      <use xlink:href="#TimesNewRomanPSMT-38" transform="translate(94.384766 0)"/>
     </g>
    </g>
   </g>
   <g id="matplotlib.axis_8"/>
   <g id="line2d_31">
    <path d="M 169.745122 231.952196 
L 197.946605 228.844611 
L 220.507791 226.141189 
L 251.529421 222.131406 
L 271.270459 219.68029 
L 285.3712 218.130709 
L 296.651793 217.076446 
L 307.932386 216.246151 
L 316.392831 215.81058 
L 324.853276 215.566011 
L 333.31372 215.529476 
L 341.774165 215.696612 
L 353.054758 216.167194 
L 369.975648 216.953589 
L 378.436092 217.075108 
L 384.076389 216.940922 
L 389.716685 216.577041 
L 395.356982 215.940247 
L 400.997278 214.996447 
L 406.637575 213.723697 
L 412.277871 212.114621 
L 417.918168 210.178021 
L 423.558464 207.939531 
L 429.198761 205.441226 
L 437.659205 201.335006 
L 457.400243 191.419668 
L 463.04054 188.878462 
L 468.680836 186.613033 
L 474.321133 184.688915 
L 479.961429 183.158115 
L 485.601726 182.056963 
L 488.421874 181.674243 
L 491.242022 181.404854 
L 494.06217 181.248516 
L 499.702467 181.268625 
L 505.342763 181.711891 
L 510.98306 182.540925 
L 516.623356 183.705732 
L 522.263653 185.146195 
L 527.903949 186.794805 
L 539.184542 190.426543 
L 550.465135 194.020776 
L 556.105432 195.636468 
L 561.745728 197.056293 
L 567.386025 198.236823 
L 573.026321 199.146983 
L 578.666617 199.769406 
L 584.306914 200.101323 
L 589.94721 200.154899 
L 595.587507 199.956933 
L 601.227803 199.547863 
L 609.688248 198.655633 
L 626.609138 196.683918 
L 632.249434 196.227547 
L 637.889731 195.979493 
L 643.530027 195.991542 
L 649.170324 196.302667 
L 654.81062 196.937073 
L 660.450916 197.90323 
L 666.091213 199.19395 
L 671.731509 200.787488 
L 677.371806 202.649541 
L 683.012102 204.735948 
L 691.472547 208.173918 
L 722.494178 221.286768 
L 730.954623 224.394257 
L 730.954623 224.394257 
" clip-path="url(#p6d9f621ab8)" style="fill: none; stroke: #ffffff; stroke-width: 2; stroke-linecap: square"/>
   </g>
   <g id="line2d_32">
    <path d="M 169.745122 238.84 
L 730.954623 238.84 
" style="fill: none; stroke: #000000; stroke-linecap: square"/>
   </g>
   <g id="text_12">
    <g id="patch_9">
     <path d="M 5.191875 248.260937 
L 114.778125 248.260937 
L 114.778125 229.419062 
L 5.191875 229.419062 
z
" style="fill: #ffffff; opacity: 0.5"/>
    </g>
    <!-- Quantum Computing -->
    <g transform="translate(9.151875 241.711562) scale(0.12 -0.12)">
     <defs>
      <path id="TimesNewRomanPSMT-51" d="M 2819 -47 
Q 3138 -597 3508 -856 
Q 3878 -1116 4350 -1153 
L 4350 -1253 
Q 3919 -1238 3428 -1080 
Q 2938 -922 2498 -642 
Q 2059 -363 1741 -47 
Q 1291 134 1028 338 
Q 647 641 436 1083 
Q 225 1525 225 2128 
Q 225 3078 840 3706 
Q 1456 4334 2331 4334 
Q 3163 4334 3770 3704 
Q 4378 3075 4378 2116 
Q 4378 1338 3945 750 
Q 3513 163 2819 -47 
z
M 2294 4094 
Q 1725 4094 1378 3688 
Q 941 3178 941 2128 
Q 941 1100 1384 544 
Q 1728 116 2294 116 
Q 2881 116 3241 544 
Q 3663 1050 3663 2038 
Q 3663 2797 3431 3316 
Q 3253 3716 2958 3905 
Q 2663 4094 2294 4094 
z
" transform="scale(0.015625)"/>
      <path id="TimesNewRomanPSMT-6d" d="M 1050 2338 
Q 1363 2650 1419 2697 
Q 1559 2816 1721 2881 
Q 1884 2947 2044 2947 
Q 2313 2947 2506 2790 
Q 2700 2634 2766 2338 
Q 3088 2713 3309 2830 
Q 3531 2947 3766 2947 
Q 3994 2947 4170 2830 
Q 4347 2713 4450 2447 
Q 4519 2266 4519 1878 
L 4519 647 
Q 4519 378 4559 278 
Q 4591 209 4675 161 
Q 4759 113 4950 113 
L 4950 0 
L 3538 0 
L 3538 113 
L 3597 113 
Q 3781 113 3884 184 
Q 3956 234 3988 344 
Q 4000 397 4000 647 
L 4000 1878 
Q 4000 2228 3916 2372 
Q 3794 2572 3525 2572 
Q 3359 2572 3192 2489 
Q 3025 2406 2788 2181 
L 2781 2147 
L 2788 2013 
L 2788 647 
Q 2788 353 2820 281 
Q 2853 209 2943 161 
Q 3034 113 3253 113 
L 3253 0 
L 1806 0 
L 1806 113 
Q 2044 113 2133 169 
Q 2222 225 2256 338 
Q 2272 391 2272 647 
L 2272 1878 
Q 2272 2228 2169 2381 
Q 2031 2581 1784 2581 
Q 1616 2581 1450 2491 
Q 1191 2353 1050 2181 
L 1050 647 
Q 1050 366 1089 281 
Q 1128 197 1204 155 
Q 1281 113 1516 113 
L 1516 0 
L 100 0 
L 100 113 
Q 297 113 375 155 
Q 453 197 493 289 
Q 534 381 534 647 
L 534 1741 
Q 534 2213 506 2350 
Q 484 2453 437 2492 
Q 391 2531 309 2531 
Q 222 2531 100 2484 
L 53 2597 
L 916 2947 
L 1050 2947 
L 1050 2338 
z
" transform="scale(0.015625)"/>
      <path id="TimesNewRomanPSMT-43" d="M 3853 4334 
L 3950 2894 
L 3853 2894 
Q 3659 3541 3300 3825 
Q 2941 4109 2438 4109 
Q 2016 4109 1675 3895 
Q 1334 3681 1139 3212 
Q 944 2744 944 2047 
Q 944 1472 1128 1050 
Q 1313 628 1683 403 
Q 2053 178 2528 178 
Q 2941 178 3256 354 
Q 3572 531 3950 1056 
L 4047 994 
Q 3728 428 3303 165 
Q 2878 -97 2294 -97 
Q 1241 -97 663 684 
Q 231 1266 231 2053 
Q 231 2688 515 3219 
Q 800 3750 1298 4042 
Q 1797 4334 2388 4334 
Q 2847 4334 3294 4109 
Q 3425 4041 3481 4041 
Q 3566 4041 3628 4100 
Q 3709 4184 3744 4334 
L 3853 4334 
z
" transform="scale(0.015625)"/>
     </defs>
     <use xlink:href="#TimesNewRomanPSMT-51"/>
     <use xlink:href="#TimesNewRomanPSMT-75" transform="translate(72.216797 0)"/>
     <use xlink:href="#TimesNewRomanPSMT-61" transform="translate(122.216797 0)"/>
     <use xlink:href="#TimesNewRomanPSMT-6e" transform="translate(166.601562 0)"/>
     <use xlink:href="#TimesNewRomanPSMT-74" transform="translate(216.601562 0)"/>
     <use xlink:href="#TimesNewRomanPSMT-75" transform="translate(244.384766 0)"/>
     <use xlink:href="#TimesNewRomanPSMT-6d" transform="translate(294.384766 0)"/>
     <use xlink:href="#TimesNewRomanPSMT-20" transform="translate(372.167969 0)"/>
     <use xlink:href="#TimesNewRomanPSMT-43" transform="translate(397.167969 0)"/>
     <use xlink:href="#TimesNewRomanPSMT-6f" transform="translate(463.867188 0)"/>
     <use xlink:href="#TimesNewRomanPSMT-6d" transform="translate(513.867188 0)"/>
     <use xlink:href="#TimesNewRomanPSMT-70" transform="translate(591.650391 0)"/>
     <use xlink:href="#TimesNewRomanPSMT-75" transform="translate(641.650391 0)"/>
     <use xlink:href="#TimesNewRomanPSMT-74" transform="translate(691.650391 0)"/>
     <use xlink:href="#TimesNewRomanPSMT-69" transform="translate(719.433594 0)"/>
     <use xlink:href="#TimesNewRomanPSMT-6e" transform="translate(747.216797 0)"/>
     <use xlink:href="#TimesNewRomanPSMT-67" transform="translate(797.216797 0)"/>
    </g>
   </g>
  </g>
  <g id="text_13">
   <!-- Research Funding(USD) -->
   <g transform="translate(302.433372 18.31) scale(0.16 -0.16)">
    <defs>
     <path id="TimesNewRomanPSMT-52" d="M 4325 0 
L 3194 0 
L 1759 1981 
Q 1600 1975 1500 1975 
Q 1459 1975 1412 1976 
Q 1366 1978 1316 1981 
L 1316 750 
Q 1316 350 1403 253 
Q 1522 116 1759 116 
L 1925 116 
L 1925 0 
L 109 0 
L 109 116 
L 269 116 
Q 538 116 653 291 
Q 719 388 719 750 
L 719 3488 
Q 719 3888 631 3984 
Q 509 4122 269 4122 
L 109 4122 
L 109 4238 
L 1653 4238 
Q 2328 4238 2648 4139 
Q 2969 4041 3192 3777 
Q 3416 3513 3416 3147 
Q 3416 2756 3161 2468 
Q 2906 2181 2372 2063 
L 3247 847 
Q 3547 428 3762 290 
Q 3978 153 4325 116 
L 4325 0 
z
M 1316 2178 
Q 1375 2178 1419 2176 
Q 1463 2175 1491 2175 
Q 2097 2175 2405 2437 
Q 2713 2700 2713 3106 
Q 2713 3503 2464 3751 
Q 2216 4000 1806 4000 
Q 1625 4000 1316 3941 
L 1316 2178 
z
" transform="scale(0.015625)"/>
     <path id="TimesNewRomanPSMT-73" d="M 2050 2947 
L 2050 1972 
L 1947 1972 
Q 1828 2431 1642 2597 
Q 1456 2763 1169 2763 
Q 950 2763 815 2647 
Q 681 2531 681 2391 
Q 681 2216 781 2091 
Q 878 1963 1175 1819 
L 1631 1597 
Q 2266 1288 2266 781 
Q 2266 391 1970 151 
Q 1675 -88 1309 -88 
Q 1047 -88 709 6 
Q 606 38 541 38 
Q 469 38 428 -44 
L 325 -44 
L 325 978 
L 428 978 
Q 516 541 762 319 
Q 1009 97 1316 97 
Q 1531 97 1667 223 
Q 1803 350 1803 528 
Q 1803 744 1651 891 
Q 1500 1038 1047 1263 
Q 594 1488 453 1669 
Q 313 1847 313 2119 
Q 313 2472 555 2709 
Q 797 2947 1181 2947 
Q 1350 2947 1591 2875 
Q 1750 2828 1803 2828 
Q 1853 2828 1881 2850 
Q 1909 2872 1947 2947 
L 2050 2947 
z
" transform="scale(0.015625)"/>
     <path id="TimesNewRomanPSMT-46" d="M 1309 4006 
L 1309 2341 
L 2081 2341 
Q 2347 2341 2470 2458 
Q 2594 2575 2634 2922 
L 2750 2922 
L 2750 1488 
L 2634 1488 
Q 2631 1734 2570 1850 
Q 2509 1966 2401 2023 
Q 2294 2081 2081 2081 
L 1309 2081 
L 1309 750 
Q 1309 428 1350 325 
Q 1381 247 1481 191 
Q 1619 116 1769 116 
L 1922 116 
L 1922 0 
L 103 0 
L 103 116 
L 253 116 
Q 516 116 634 269 
Q 709 369 709 750 
L 709 3488 
Q 709 3809 669 3913 
Q 638 3991 541 4047 
Q 406 4122 253 4122 
L 103 4122 
L 103 4238 
L 3256 4238 
L 3297 3306 
L 3188 3306 
Q 3106 3603 2998 3742 
Q 2891 3881 2733 3943 
Q 2575 4006 2244 4006 
L 1309 4006 
z
" transform="scale(0.015625)"/>
     <path id="TimesNewRomanPSMT-64" d="M 2222 322 
Q 2013 103 1813 7 
Q 1613 -88 1381 -88 
Q 913 -88 563 304 
Q 213 697 213 1313 
Q 213 1928 600 2439 
Q 988 2950 1597 2950 
Q 1975 2950 2222 2709 
L 2222 3238 
Q 2222 3728 2198 3840 
Q 2175 3953 2125 3993 
Q 2075 4034 2000 4034 
Q 1919 4034 1784 3984 
L 1744 4094 
L 2597 4444 
L 2738 4444 
L 2738 1134 
Q 2738 631 2761 520 
Q 2784 409 2836 365 
Q 2888 322 2956 322 
Q 3041 322 3181 375 
L 3216 266 
L 2366 -88 
L 2222 -88 
L 2222 322 
z
M 2222 541 
L 2222 2016 
Q 2203 2228 2109 2403 
Q 2016 2578 1861 2667 
Q 1706 2756 1559 2756 
Q 1284 2756 1069 2509 
Q 784 2184 784 1559 
Q 784 928 1059 592 
Q 1334 256 1672 256 
Q 1956 256 2222 541 
z
" transform="scale(0.015625)"/>
     <path id="TimesNewRomanPSMT-28" d="M 1988 -1253 
L 1988 -1369 
Q 1516 -1131 1200 -813 
Q 750 -359 506 256 
Q 263 872 263 1534 
Q 263 2503 741 3301 
Q 1219 4100 1988 4444 
L 1988 4313 
Q 1603 4100 1356 3731 
Q 1109 3363 987 2797 
Q 866 2231 866 1616 
Q 866 947 969 400 
Q 1050 -31 1165 -292 
Q 1281 -553 1476 -793 
Q 1672 -1034 1988 -1253 
z
" transform="scale(0.015625)"/>
     <path id="TimesNewRomanPSMT-55" d="M 3053 4122 
L 3053 4238 
L 4553 4238 
L 4553 4122 
L 4394 4122 
Q 4144 4122 4009 3913 
Q 3944 3816 3944 3463 
L 3944 1744 
Q 3944 1106 3817 754 
Q 3691 403 3320 151 
Q 2950 -100 2313 -100 
Q 1619 -100 1259 140 
Q 900 381 750 788 
Q 650 1066 650 1831 
L 650 3488 
Q 650 3878 542 4000 
Q 434 4122 194 4122 
L 34 4122 
L 34 4238 
L 1866 4238 
L 1866 4122 
L 1703 4122 
Q 1441 4122 1328 3956 
Q 1250 3844 1250 3488 
L 1250 1641 
Q 1250 1394 1295 1075 
Q 1341 756 1459 578 
Q 1578 400 1801 284 
Q 2025 169 2350 169 
Q 2766 169 3094 350 
Q 3422 531 3542 814 
Q 3663 1097 3663 1772 
L 3663 3488 
Q 3663 3884 3575 3984 
Q 3453 4122 3213 4122 
L 3053 4122 
z
" transform="scale(0.015625)"/>
     <path id="TimesNewRomanPSMT-44" d="M 109 0 
L 109 116 
L 269 116 
Q 538 116 650 288 
Q 719 391 719 750 
L 719 3488 
Q 719 3884 631 3984 
Q 509 4122 269 4122 
L 109 4122 
L 109 4238 
L 1834 4238 
Q 2784 4238 3279 4022 
Q 3775 3806 4076 3303 
Q 4378 2800 4378 2141 
Q 4378 1256 3841 663 
Q 3238 0 2003 0 
L 109 0 
z
M 1319 306 
Q 1716 219 1984 219 
Q 2709 219 3187 728 
Q 3666 1238 3666 2109 
Q 3666 2988 3187 3494 
Q 2709 4000 1959 4000 
Q 1678 4000 1319 3909 
L 1319 306 
z
" transform="scale(0.015625)"/>
     <path id="TimesNewRomanPSMT-29" d="M 144 4313 
L 144 4444 
Q 619 4209 934 3891 
Q 1381 3434 1625 2820 
Q 1869 2206 1869 1541 
Q 1869 572 1392 -226 
Q 916 -1025 144 -1369 
L 144 -1253 
Q 528 -1038 776 -670 
Q 1025 -303 1145 264 
Q 1266 831 1266 1447 
Q 1266 2113 1163 2663 
Q 1084 3094 967 3353 
Q 850 3613 656 3853 
Q 463 4094 144 4313 
z
" transform="scale(0.015625)"/>
    </defs>
    <use xlink:href="#TimesNewRomanPSMT-52"/>
    <use xlink:href="#TimesNewRomanPSMT-65" transform="translate(66.699219 0)"/>
    <use xlink:href="#TimesNewRomanPSMT-73" transform="translate(111.083984 0)"/>
    <use xlink:href="#TimesNewRomanPSMT-65" transform="translate(150 0)"/>
    <use xlink:href="#TimesNewRomanPSMT-61" transform="translate(194.384766 0)"/>
    <use xlink:href="#TimesNewRomanPSMT-72" transform="translate(238.769531 0)"/>
    <use xlink:href="#TimesNewRomanPSMT-63" transform="translate(272.070312 0)"/>
    <use xlink:href="#TimesNewRomanPSMT-68" transform="translate(316.455078 0)"/>
    <use xlink:href="#TimesNewRomanPSMT-20" transform="translate(366.455078 0)"/>
    <use xlink:href="#TimesNewRomanPSMT-46" transform="translate(391.455078 0)"/>
    <use xlink:href="#TimesNewRomanPSMT-75" transform="translate(447.070312 0)"/>
    <use xlink:href="#TimesNewRomanPSMT-6e" transform="translate(497.070312 0)"/>
    <use xlink:href="#TimesNewRomanPSMT-64" transform="translate(547.070312 0)"/>
    <use xlink:href="#TimesNewRomanPSMT-69" transform="translate(597.070312 0)"/>
    <use xlink:href="#TimesNewRomanPSMT-6e" transform="translate(624.853516 0)"/>
    <use xlink:href="#TimesNewRomanPSMT-67" transform="translate(674.853516 0)"/>
    <use xlink:href="#TimesNewRomanPSMT-28" transform="translate(724.853516 0)"/>
    <use xlink:href="#TimesNewRomanPSMT-55" transform="translate(758.154297 0)"/>
    <use xlink:href="#TimesNewRomanPSMT-53" transform="translate(830.371094 0)"/>
    <use xlink:href="#TimesNewRomanPSMT-44" transform="translate(885.986328 0)"/>
    <use xlink:href="#TimesNewRomanPSMT-29" transform="translate(958.203125 0)"/>
   </g>
  </g>
 </g>
 <defs>
  <clipPath id="p12134e19c1">
   <rect x="169.745122" y="17.52" width="561.2095" height="88.528"/>
  </clipPath>
  <clipPath id="pca37376e9e">
   <rect x="169.745122" y="61.784" width="561.2095" height="88.528"/>
  </clipPath>
  <clipPath id="pd9c2265703">
   <rect x="169.745122" y="106.048" width="561.2095" height="88.528"/>
  </clipPath>
  <clipPath id="p6d9f621ab8">
   <rect x="169.745122" y="150.312" width="561.2095" height="88.528"/>
  </clipPath>
 </defs>
</svg>
