<?xml version="1.0" encoding="utf-8" standalone="no"?>
<!DOCTYPE svg PUBLIC "-//W3C//DTD SVG 1.1//EN"
  "http://www.w3.org/Graphics/SVG/1.1/DTD/svg11.dtd">
<svg xmlns:xlink="http://www.w3.org/1999/xlink" width="745.946785pt" height="280.655312pt" viewBox="0 0 745.946785 280.655312" xmlns="http://www.w3.org/2000/svg" version="1.1">
 <metadata>
  <rdf:RDF xmlns:dc="http://purl.org/dc/elements/1.1/" xmlns:cc="http://creativecommons.org/ns#" xmlns:rdf="http://www.w3.org/1999/02/22-rdf-syntax-ns#">
   <cc:Work>
    <dc:type rdf:resource="http://purl.org/dc/dcmitype/StillImage"/>
    <dc:date>2025-05-27T03:07:20.044970</dc:date>
    <dc:format>image/svg+xml</dc:format>
    <dc:creator>
     <cc:Agent>
      <dc:title>Matplotlib v3.10.1, https://matplotlib.org/</dc:title>
     </cc:Agent>
    </dc:creator>
   </cc:Work>
  </rdf:RDF>
 </metadata>
 <defs>
  <style type="text/css">*{stroke-linejoin: round; stroke-linecap: butt}</style>
 </defs>
 <g id="figure_1">
  <g id="patch_1">
   <path d="M 0 280.655312 
L 745.946785 280.655312 
L 745.946785 0 
L 0 0 
z
" style="fill: #ffffff"/>
  </g>
  <g id="axes_1">
   <g id="patch_2">
    <path d="M 157.879785 106.048 
L 732.746785 106.048 
L 732.746785 17.52 
L 157.879785 17.52 
L 157.879785 106.048 
z
" style="fill: none; opacity: 0"/>
   </g>
   <g id="FillBetweenPolyCollection_1">
    <defs>
     <path id="m1298787992" d="M 157.879785 -181.964067 
L 157.879785 -174.607312 
L 160.768564 -174.607312 
L 163.657343 -174.607312 
L 166.546122 -174.607312 
L 169.434901 -174.607312 
L 172.323679 -174.607312 
L 175.212458 -174.607312 
L 178.101237 -174.607312 
L 180.990016 -174.607312 
L 183.878795 -174.607312 
L 186.767574 -174.607312 
L 189.656353 -174.607312 
L 192.545132 -174.607312 
L 195.433911 -174.607312 
L 198.32269 -174.607312 
L 201.211468 -174.607312 
L 204.100247 -174.607312 
L 206.989026 -174.607312 
L 209.877805 -174.607312 
L 212.766584 -174.607312 
L 215.655363 -174.607312 
L 218.544142 -174.607312 
L 221.432921 -174.607312 
L 224.3217 -174.607312 
L 227.210478 -174.607312 
L 230.099257 -174.607312 
L 232.988036 -174.607312 
L 235.876815 -174.607312 
L 238.765594 -174.607312 
L 241.654373 -174.607312 
L 244.543152 -174.607312 
L 247.431931 -174.607312 
L 250.32071 -174.607312 
L 253.209489 -174.607312 
L 256.098267 -174.607312 
L 258.987046 -174.607312 
L 261.875825 -174.607312 
L 264.764604 -174.607312 
L 267.653383 -174.607312 
L 270.542162 -174.607312 
L 273.430941 -174.607312 
L 276.31972 -174.607312 
L 279.208499 -174.607312 
L 282.097277 -174.607312 
L 284.986056 -174.607312 
L 287.874835 -174.607312 
L 290.763614 -174.607312 
L 293.652393 -174.607312 
L 296.541172 -174.607312 
L 299.429951 -174.607312 
L 302.31873 -174.607312 
L 305.207509 -174.607312 
L 308.096288 -174.607312 
L 310.985066 -174.607312 
L 313.873845 -174.607312 
L 316.762624 -174.607312 
L 319.651403 -174.607312 
L 322.540182 -174.607312 
L 325.428961 -174.607312 
L 328.31774 -174.607312 
L 331.206519 -174.607312 
L 334.095298 -174.607312 
L 336.984076 -174.607312 
L 339.872855 -174.607312 
L 342.761634 -174.607312 
L 345.650413 -174.607312 
L 348.539192 -174.607312 
L 351.427971 -174.607312 
L 354.31675 -174.607312 
L 357.205529 -174.607312 
L 360.094308 -174.607312 
L 362.983087 -174.607312 
L 365.871865 -174.607312 
L 368.760644 -174.607312 
L 371.649423 -174.607312 
L 374.538202 -174.607312 
L 377.426981 -174.607312 
L 380.31576 -174.607312 
L 383.204539 -174.607312 
L 386.093318 -174.607312 
L 388.982097 -174.607312 
L 391.870875 -174.607312 
L 394.759654 -174.607312 
L 397.648433 -174.607312 
L 400.537212 -174.607312 
L 403.425991 -174.607312 
L 406.31477 -174.607312 
L 409.203549 -174.607312 
L 412.092328 -174.607312 
L 414.981107 -174.607312 
L 417.869886 -174.607312 
L 420.758664 -174.607312 
L 423.647443 -174.607312 
L 426.536222 -174.607312 
L 429.425001 -174.607312 
L 432.31378 -174.607312 
L 435.202559 -174.607312 
L 438.091338 -174.607312 
L 440.980117 -174.607312 
L 443.868896 -174.607312 
L 446.757674 -174.607312 
L 449.646453 -174.607312 
L 452.535232 -174.607312 
L 455.424011 -174.607312 
L 458.31279 -174.607312 
L 461.201569 -174.607312 
L 464.090348 -174.607312 
L 466.979127 -174.607312 
L 469.867906 -174.607312 
L 472.756684 -174.607312 
L 475.645463 -174.607312 
L 478.534242 -174.607312 
L 481.423021 -174.607312 
L 484.3118 -174.607312 
L 487.200579 -174.607312 
L 490.089358 -174.607312 
L 492.978137 -174.607312 
L 495.866916 -174.607312 
L 498.755695 -174.607312 
L 501.644473 -174.607312 
L 504.533252 -174.607312 
L 507.422031 -174.607312 
L 510.31081 -174.607312 
L 513.199589 -174.607312 
L 516.088368 -174.607312 
L 518.977147 -174.607312 
L 521.865926 -174.607312 
L 524.754705 -174.607312 
L 527.643483 -174.607312 
L 530.532262 -174.607312 
L 533.421041 -174.607312 
L 536.30982 -174.607312 
L 539.198599 -174.607312 
L 542.087378 -174.607312 
L 544.976157 -174.607312 
L 547.864936 -174.607312 
L 550.753715 -174.607312 
L 553.642494 -174.607312 
L 556.531272 -174.607312 
L 559.420051 -174.607312 
L 562.30883 -174.607312 
L 565.197609 -174.607312 
L 568.086388 -174.607312 
L 570.975167 -174.607312 
L 573.863946 -174.607312 
L 576.752725 -174.607312 
L 579.641504 -174.607312 
L 582.530282 -174.607312 
L 585.419061 -174.607312 
L 588.30784 -174.607312 
L 591.196619 -174.607312 
L 594.085398 -174.607312 
L 596.974177 -174.607312 
L 599.862956 -174.607312 
L 602.751735 -174.607312 
L 605.640514 -174.607312 
L 608.529293 -174.607312 
L 611.418071 -174.607312 
L 614.30685 -174.607312 
L 617.195629 -174.607312 
L 620.084408 -174.607312 
L 622.973187 -174.607312 
L 625.861966 -174.607312 
L 628.750745 -174.607312 
L 631.639524 -174.607312 
L 634.528303 -174.607312 
L 637.417081 -174.607312 
L 640.30586 -174.607312 
L 643.194639 -174.607312 
L 646.083418 -174.607312 
L 648.972197 -174.607312 
L 651.860976 -174.607312 
L 654.749755 -174.607312 
L 657.638534 -174.607312 
L 660.527313 -174.607312 
L 663.416092 -174.607312 
L 666.30487 -174.607312 
L 669.193649 -174.607312 
L 672.082428 -174.607312 
L 674.971207 -174.607312 
L 677.859986 -174.607312 
L 680.748765 -174.607312 
L 683.637544 -174.607312 
L 686.526323 -174.607312 
L 689.415102 -174.607312 
L 692.30388 -174.607312 
L 695.192659 -174.607312 
L 698.081438 -174.607312 
L 700.970217 -174.607312 
L 703.858996 -174.607312 
L 706.747775 -174.607312 
L 709.636554 -174.607312 
L 712.525333 -174.607312 
L 715.414112 -174.607312 
L 718.302891 -174.607312 
L 721.191669 -174.607312 
L 724.080448 -174.607312 
L 726.969227 -174.607312 
L 729.858006 -174.607312 
L 732.746785 -174.607312 
L 732.746785 -182.000894 
L 732.746785 -182.000894 
L 729.858006 -182.470239 
L 726.969227 -182.964024 
L 724.080448 -183.483093 
L 721.191669 -184.028078 
L 718.302891 -184.599347 
L 715.414112 -185.196957 
L 712.525333 -185.820607 
L 709.636554 -186.469597 
L 706.747775 -187.142799 
L 703.858996 -187.838633 
L 700.970217 -188.555056 
L 698.081438 -189.289567 
L 695.192659 -190.03922 
L 692.30388 -190.800658 
L 689.415102 -191.570153 
L 686.526323 -192.343669 
L 683.637544 -193.116929 
L 680.748765 -193.885505 
L 677.859986 -194.644905 
L 674.971207 -195.390677 
L 672.082428 -196.118513 
L 669.193649 -196.824358 
L 666.30487 -197.504517 
L 663.416092 -198.155755 
L 660.527313 -198.775393 
L 657.638534 -199.361393 
L 654.749755 -199.912432 
L 651.860976 -200.427951 
L 648.972197 -200.908199 
L 646.083418 -201.354252 
L 643.194639 -201.76801 
L 640.30586 -202.152178 
L 637.417081 -202.510224 
L 634.528303 -202.846318 
L 631.639524 -203.165256 
L 628.750745 -203.472362 
L 625.861966 -203.773386 
L 622.973187 -204.074377 
L 620.084408 -204.381565 
L 617.195629 -204.701221 
L 614.30685 -205.039532 
L 611.418071 -205.402463 
L 608.529293 -205.795638 
L 605.640514 -206.224216 
L 602.751735 -206.692788 
L 599.862956 -207.205286 
L 596.974177 -207.764896 
L 594.085398 -208.374005 
L 591.196619 -209.034152 
L 588.30784 -209.746003 
L 585.419061 -210.509344 
L 582.530282 -211.323087 
L 579.641504 -212.1853 
L 576.752725 -213.093245 
L 573.863946 -214.043432 
L 570.975167 -215.031689 
L 568.086388 -216.053231 
L 565.197609 -217.102748 
L 562.30883 -218.174487 
L 559.420051 -219.262344 
L 556.531272 -220.359951 
L 553.642494 -221.460767 
L 550.753715 -222.558156 
L 547.864936 -223.64547 
L 544.976157 -224.71612 
L 542.087378 -225.76364 
L 539.198599 -226.781746 
L 536.30982 -227.764385 
L 533.421041 -228.705776 
L 530.532262 -229.600446 
L 527.643483 -230.443258 
L 524.754705 -231.229434 
L 521.865926 -231.954572 
L 518.977147 -232.614663 
L 516.088368 -233.2061 
L 513.199589 -233.725691 
L 510.31081 -234.170668 
L 507.422031 -234.538698 
L 504.533252 -234.827892 
L 501.644473 -235.036818 
L 498.755695 -235.164516 
L 495.866916 -235.210508 
L 492.978137 -235.174813 
L 490.089358 -235.057964 
L 487.200579 -234.861015 
L 484.3118 -234.585555 
L 481.423021 -234.233717 
L 478.534242 -233.808174 
L 475.645463 -233.312146 
L 472.756684 -232.749381 
L 469.867906 -232.124148 
L 466.979127 -231.441204 
L 464.090348 -230.705769 
L 461.201569 -229.923477 
L 458.31279 -229.100331 
L 455.424011 -228.242637 
L 452.535232 -227.356944 
L 449.646453 -226.449962 
L 446.757674 -225.528486 
L 443.868896 -224.599307 
L 440.980117 -223.669123 
L 438.091338 -222.744448 
L 435.202559 -221.831525 
L 432.31378 -220.936229 
L 429.425001 -220.06399 
L 426.536222 -219.21971 
L 423.647443 -218.407697 
L 420.758664 -217.631597 
L 417.869886 -216.89435 
L 414.981107 -216.198151 
L 412.092328 -215.544429 
L 409.203549 -214.933834 
L 406.31477 -214.366248 
L 403.425991 -213.840807 
L 400.537212 -213.355934 
L 397.648433 -212.909396 
L 394.759654 -212.498366 
L 391.870875 -212.119499 
L 388.982097 -211.769024 
L 386.093318 -211.442836 
L 383.204539 -211.136597 
L 380.31576 -210.845848 
L 377.426981 -210.56611 
L 374.538202 -210.292993 
L 371.649423 -210.022297 
L 368.760644 -209.750108 
L 365.871865 -209.472889 
L 362.983087 -209.187549 
L 360.094308 -208.891519 
L 357.205529 -208.582794 
L 354.31675 -208.259974 
L 351.427971 -207.922288 
L 348.539192 -207.569595 
L 345.650413 -207.202379 
L 342.761634 -206.821725 
L 339.872855 -206.429276 
L 336.984076 -206.027189 
L 334.095298 -205.618062 
L 331.206519 -205.204872 
L 328.31774 -204.790881 
L 325.428961 -204.379556 
L 322.540182 -203.974468 
L 319.651403 -203.579201 
L 316.762624 -203.197251 
L 313.873845 -202.831929 
L 310.985066 -202.486273 
L 308.096288 -202.162955 
L 305.207509 -201.864203 
L 302.31873 -201.59173 
L 299.429951 -201.346676 
L 296.541172 -201.129556 
L 293.652393 -200.940229 
L 290.763614 -200.777881 
L 287.874835 -200.641016 
L 284.986056 -200.527474 
L 282.097277 -200.434458 
L 279.208499 -200.35858 
L 276.31972 -200.295923 
L 273.430941 -200.242111 
L 270.542162 -200.192404 
L 267.653383 -200.141791 
L 264.764604 -200.085099 
L 261.875825 -200.01711 
L 258.987046 -199.932669 
L 256.098267 -199.82681 
L 253.209489 -199.694862 
L 250.32071 -199.53256 
L 247.431931 -199.336143 
L 244.543152 -199.102437 
L 241.654373 -198.828932 
L 238.765594 -198.51383 
L 235.876815 -198.156088 
L 232.988036 -197.755434 
L 230.099257 -197.312364 
L 227.210478 -196.828121 
L 224.3217 -196.304661 
L 221.432921 -195.744589 
L 218.544142 -195.151092 
L 215.655363 -194.527856 
L 212.766584 -193.878968 
L 209.877805 -193.208821 
L 206.989026 -192.522 
L 204.100247 -191.823189 
L 201.211468 -191.117057 
L 198.32269 -190.40817 
L 195.433911 -189.700897 
L 192.545132 -188.999333 
L 189.656353 -188.307233 
L 186.767574 -187.627961 
L 183.878795 -186.964447 
L 180.990016 -186.319169 
L 178.101237 -185.694138 
L 175.212458 -185.090905 
L 172.323679 -184.510575 
L 169.434901 -183.953837 
L 166.546122 -183.420993 
L 163.657343 -182.912009 
L 160.768564 -182.426557 
L 157.879785 -181.964067 
z
" style="stroke: #7b9ff9"/>
    </defs>
    <g clip-path="url(#pda89479dde)">
     <use xlink:href="#m1298787992" x="0" y="280.655312" style="fill: #7b9ff9; fill-opacity: 0.5; stroke: #7b9ff9"/>
    </g>
   </g>
   <g id="matplotlib.axis_1">
    <g id="xtick_1">
     <g id="line2d_1">
      <defs>
       <path id="m99455196ee" d="M 0 0 
L 0 3.5 
" style="stroke: #000000; stroke-width: 0.8"/>
      </defs>
      <g>
       <use xlink:href="#m99455196ee" x="157.879785" y="106.048" style="stroke: #000000; stroke-width: 0.8"/>
      </g>
     </g>
    </g>
    <g id="xtick_2">
     <g id="line2d_2">
      <g>
       <use xlink:href="#m99455196ee" x="229.73816" y="106.048" style="stroke: #000000; stroke-width: 0.8"/>
      </g>
     </g>
    </g>
    <g id="xtick_3">
     <g id="line2d_3">
      <g>
       <use xlink:href="#m99455196ee" x="301.596535" y="106.048" style="stroke: #000000; stroke-width: 0.8"/>
      </g>
     </g>
    </g>
    <g id="xtick_4">
     <g id="line2d_4">
      <g>
       <use xlink:href="#m99455196ee" x="373.45491" y="106.048" style="stroke: #000000; stroke-width: 0.8"/>
      </g>
     </g>
    </g>
    <g id="xtick_5">
     <g id="line2d_5">
      <g>
       <use xlink:href="#m99455196ee" x="445.313285" y="106.048" style="stroke: #000000; stroke-width: 0.8"/>
      </g>
     </g>
    </g>
    <g id="xtick_6">
     <g id="line2d_6">
      <g>
       <use xlink:href="#m99455196ee" x="517.17166" y="106.048" style="stroke: #000000; stroke-width: 0.8"/>
      </g>
     </g>
    </g>
    <g id="xtick_7">
     <g id="line2d_7">
      <g>
       <use xlink:href="#m99455196ee" x="589.030035" y="106.048" style="stroke: #000000; stroke-width: 0.8"/>
      </g>
     </g>
    </g>
    <g id="xtick_8">
     <g id="line2d_8">
      <g>
       <use xlink:href="#m99455196ee" x="660.88841" y="106.048" style="stroke: #000000; stroke-width: 0.8"/>
      </g>
     </g>
    </g>
    <g id="xtick_9">
     <g id="line2d_9">
      <g>
       <use xlink:href="#m99455196ee" x="732.746785" y="106.048" style="stroke: #000000; stroke-width: 0.8"/>
      </g>
     </g>
    </g>
   </g>
   <g id="matplotlib.axis_2"/>
   <g id="line2d_10">
    <path d="M 157.879785 98.691245 
L 166.546122 97.234319 
L 175.212458 95.564408 
L 183.878795 93.690865 
L 195.433911 90.954415 
L 212.766584 86.776344 
L 221.432921 84.910724 
L 230.099257 83.342949 
L 235.876815 82.499224 
L 241.654373 81.826381 
L 247.431931 81.31917 
L 256.098267 80.828503 
L 267.653383 80.513522 
L 284.986056 80.127839 
L 293.652393 79.715083 
L 302.31873 79.063582 
L 310.985066 78.169039 
L 322.540182 76.680845 
L 351.427971 72.733025 
L 362.983087 71.467763 
L 391.870875 68.535813 
L 400.537212 67.299379 
L 406.31477 66.289064 
L 412.092328 65.110884 
L 417.869886 63.760963 
L 426.536222 61.435602 
L 435.202559 58.823788 
L 458.31279 51.554982 
L 464.090348 49.949544 
L 469.867906 48.531165 
L 475.645463 47.343167 
L 481.423021 46.421596 
L 487.200579 45.794298 
L 492.978137 45.480499 
L 498.755695 45.490797 
L 504.533252 45.827421 
L 510.31081 46.484644 
L 516.088368 47.449213 
L 521.865926 48.700741 
L 527.643483 50.212055 
L 533.421041 51.949536 
L 539.198599 53.873566 
L 547.864936 57.009843 
L 570.975167 65.623624 
L 576.752725 67.562068 
L 582.530282 69.332225 
L 588.30784 70.909309 
L 594.085398 72.281308 
L 599.862956 73.450027 
L 605.640514 74.431097 
L 614.30685 75.615781 
L 625.861966 76.881927 
L 637.417081 78.145088 
L 646.083418 79.30106 
L 654.749755 80.742881 
L 663.416092 82.499558 
L 672.082428 84.5368 
L 683.637544 87.538383 
L 700.970217 92.100257 
L 709.636554 94.185715 
L 718.302891 96.055966 
L 726.969227 97.691288 
L 732.746785 98.654419 
L 732.746785 98.654419 
" clip-path="url(#pda89479dde)" style="fill: none; stroke: #ffffff; stroke-width: 2; stroke-linecap: square"/>
   </g>
   <g id="line2d_11">
    <path d="M 157.879785 106.048 
L 732.746785 106.048 
" style="fill: none; stroke: #000000; stroke-linecap: square"/>
   </g>
   <g id="text_1">
    <g id="patch_3">
     <path d="M 18.585 115.457687 
L 101.47875 115.457687 
L 101.47875 96.638312 
L 18.585 96.638312 
z
" style="fill: #ffffff; opacity: 0.5"/>
    </g>
    <!-- Venture Capital -->
    <g transform="translate(22.545 108.930812) scale(0.12 -0.12)">
     <defs>
      <path id="TimesNewRomanPSMT-56" d="M 4544 4238 
L 4544 4122 
Q 4319 4081 4203 3978 
Q 4038 3825 3909 3509 
L 2431 -97 
L 2316 -97 
L 728 3556 
Q 606 3838 556 3900 
Q 478 3997 364 4051 
Q 250 4106 56 4122 
L 56 4238 
L 1788 4238 
L 1788 4122 
Q 1494 4094 1406 4022 
Q 1319 3950 1319 3838 
Q 1319 3681 1463 3350 
L 2541 866 
L 3541 3319 
Q 3688 3681 3688 3822 
Q 3688 3913 3597 3995 
Q 3506 4078 3291 4113 
Q 3275 4116 3238 4122 
L 3238 4238 
L 4544 4238 
z
" transform="scale(0.015625)"/>
      <path id="TimesNewRomanPSMT-65" d="M 681 1784 
Q 678 1147 991 784 
Q 1303 422 1725 422 
Q 2006 422 2214 576 
Q 2422 731 2563 1106 
L 2659 1044 
Q 2594 616 2278 264 
Q 1963 -88 1488 -88 
Q 972 -88 605 314 
Q 238 716 238 1394 
Q 238 2128 614 2539 
Q 991 2950 1559 2950 
Q 2041 2950 2350 2633 
Q 2659 2316 2659 1784 
L 681 1784 
z
M 681 1966 
L 2006 1966 
Q 1991 2241 1941 2353 
Q 1863 2528 1708 2628 
Q 1553 2728 1384 2728 
Q 1125 2728 920 2526 
Q 716 2325 681 1966 
z
" transform="scale(0.015625)"/>
      <path id="TimesNewRomanPSMT-6e" d="M 1034 2341 
Q 1538 2947 1994 2947 
Q 2228 2947 2397 2830 
Q 2566 2713 2666 2444 
Q 2734 2256 2734 1869 
L 2734 647 
Q 2734 375 2778 278 
Q 2813 200 2889 156 
Q 2966 113 3172 113 
L 3172 0 
L 1756 0 
L 1756 113 
L 1816 113 
Q 2016 113 2095 173 
Q 2175 234 2206 353 
Q 2219 400 2219 647 
L 2219 1819 
Q 2219 2209 2117 2386 
Q 2016 2563 1775 2563 
Q 1403 2563 1034 2156 
L 1034 647 
Q 1034 356 1069 288 
Q 1113 197 1189 155 
Q 1266 113 1500 113 
L 1500 0 
L 84 0 
L 84 113 
L 147 113 
Q 366 113 442 223 
Q 519 334 519 647 
L 519 1709 
Q 519 2225 495 2337 
Q 472 2450 423 2490 
Q 375 2531 294 2531 
Q 206 2531 84 2484 
L 38 2597 
L 900 2947 
L 1034 2947 
L 1034 2341 
z
" transform="scale(0.015625)"/>
      <path id="TimesNewRomanPSMT-74" d="M 1031 3803 
L 1031 2863 
L 1700 2863 
L 1700 2644 
L 1031 2644 
L 1031 788 
Q 1031 509 1111 412 
Q 1191 316 1316 316 
Q 1419 316 1516 380 
Q 1613 444 1666 569 
L 1788 569 
Q 1678 263 1478 108 
Q 1278 -47 1066 -47 
Q 922 -47 784 33 
Q 647 113 581 261 
Q 516 409 516 719 
L 516 2644 
L 63 2644 
L 63 2747 
Q 234 2816 414 2980 
Q 594 3144 734 3369 
Q 806 3488 934 3803 
L 1031 3803 
z
" transform="scale(0.015625)"/>
      <path id="TimesNewRomanPSMT-75" d="M 2709 2863 
L 2709 1128 
Q 2709 631 2732 520 
Q 2756 409 2807 365 
Q 2859 322 2928 322 
Q 3025 322 3147 375 
L 3191 266 
L 2334 -88 
L 2194 -88 
L 2194 519 
Q 1825 119 1631 15 
Q 1438 -88 1222 -88 
Q 981 -88 804 51 
Q 628 191 559 409 
Q 491 628 491 1028 
L 491 2306 
Q 491 2509 447 2587 
Q 403 2666 317 2708 
Q 231 2750 6 2747 
L 6 2863 
L 1009 2863 
L 1009 947 
Q 1009 547 1148 422 
Q 1288 297 1484 297 
Q 1619 297 1789 381 
Q 1959 466 2194 703 
L 2194 2325 
Q 2194 2569 2105 2655 
Q 2016 2741 1734 2747 
L 1734 2863 
L 2709 2863 
z
" transform="scale(0.015625)"/>
      <path id="TimesNewRomanPSMT-72" d="M 1038 2947 
L 1038 2303 
Q 1397 2947 1775 2947 
Q 1947 2947 2059 2842 
Q 2172 2738 2172 2600 
Q 2172 2478 2090 2393 
Q 2009 2309 1897 2309 
Q 1788 2309 1652 2417 
Q 1516 2525 1450 2525 
Q 1394 2525 1328 2463 
Q 1188 2334 1038 2041 
L 1038 669 
Q 1038 431 1097 309 
Q 1138 225 1241 169 
Q 1344 113 1538 113 
L 1538 0 
L 72 0 
L 72 113 
Q 291 113 397 181 
Q 475 231 506 341 
Q 522 394 522 644 
L 522 1753 
Q 522 2253 501 2348 
Q 481 2444 426 2487 
Q 372 2531 291 2531 
Q 194 2531 72 2484 
L 41 2597 
L 906 2947 
L 1038 2947 
z
" transform="scale(0.015625)"/>
      <path id="TimesNewRomanPSMT-20" transform="scale(0.015625)"/>
      <path id="TimesNewRomanPSMT-43" d="M 3853 4334 
L 3950 2894 
L 3853 2894 
Q 3659 3541 3300 3825 
Q 2941 4109 2438 4109 
Q 2016 4109 1675 3895 
Q 1334 3681 1139 3212 
Q 944 2744 944 2047 
Q 944 1472 1128 1050 
Q 1313 628 1683 403 
Q 2053 178 2528 178 
Q 2941 178 3256 354 
Q 3572 531 3950 1056 
L 4047 994 
Q 3728 428 3303 165 
Q 2878 -97 2294 -97 
Q 1241 -97 663 684 
Q 231 1266 231 2053 
Q 231 2688 515 3219 
Q 800 3750 1298 4042 
Q 1797 4334 2388 4334 
Q 2847 4334 3294 4109 
Q 3425 4041 3481 4041 
Q 3566 4041 3628 4100 
Q 3709 4184 3744 4334 
L 3853 4334 
z
" transform="scale(0.015625)"/>
      <path id="TimesNewRomanPSMT-61" d="M 1822 413 
Q 1381 72 1269 19 
Q 1100 -59 909 -59 
Q 613 -59 420 144 
Q 228 347 228 678 
Q 228 888 322 1041 
Q 450 1253 767 1440 
Q 1084 1628 1822 1897 
L 1822 2009 
Q 1822 2438 1686 2597 
Q 1550 2756 1291 2756 
Q 1094 2756 978 2650 
Q 859 2544 859 2406 
L 866 2225 
Q 866 2081 792 2003 
Q 719 1925 600 1925 
Q 484 1925 411 2006 
Q 338 2088 338 2228 
Q 338 2497 613 2722 
Q 888 2947 1384 2947 
Q 1766 2947 2009 2819 
Q 2194 2722 2281 2516 
Q 2338 2381 2338 1966 
L 2338 994 
Q 2338 584 2353 492 
Q 2369 400 2405 369 
Q 2441 338 2488 338 
Q 2538 338 2575 359 
Q 2641 400 2828 588 
L 2828 413 
Q 2478 -56 2159 -56 
Q 2006 -56 1915 50 
Q 1825 156 1822 413 
z
M 1822 616 
L 1822 1706 
Q 1350 1519 1213 1441 
Q 966 1303 859 1153 
Q 753 1003 753 825 
Q 753 600 887 451 
Q 1022 303 1197 303 
Q 1434 303 1822 616 
z
" transform="scale(0.015625)"/>
      <path id="TimesNewRomanPSMT-70" d="M -6 2578 
L 875 2934 
L 994 2934 
L 994 2266 
Q 1216 2644 1439 2795 
Q 1663 2947 1909 2947 
Q 2341 2947 2628 2609 
Q 2981 2197 2981 1534 
Q 2981 794 2556 309 
Q 2206 -88 1675 -88 
Q 1444 -88 1275 -22 
Q 1150 25 994 166 
L 994 -706 
Q 994 -1000 1030 -1079 
Q 1066 -1159 1155 -1206 
Q 1244 -1253 1478 -1253 
L 1478 -1369 
L -22 -1369 
L -22 -1253 
L 56 -1253 
Q 228 -1256 350 -1188 
Q 409 -1153 442 -1076 
Q 475 -1000 475 -688 
L 475 2019 
Q 475 2297 450 2372 
Q 425 2447 370 2484 
Q 316 2522 222 2522 
Q 147 2522 31 2478 
L -6 2578 
z
M 994 2081 
L 994 1013 
Q 994 666 1022 556 
Q 1066 375 1236 237 
Q 1406 100 1666 100 
Q 1978 100 2172 344 
Q 2425 663 2425 1241 
Q 2425 1897 2138 2250 
Q 1938 2494 1663 2494 
Q 1513 2494 1366 2419 
Q 1253 2363 994 2081 
z
" transform="scale(0.015625)"/>
      <path id="TimesNewRomanPSMT-69" d="M 928 4444 
Q 1059 4444 1151 4351 
Q 1244 4259 1244 4128 
Q 1244 3997 1151 3903 
Q 1059 3809 928 3809 
Q 797 3809 703 3903 
Q 609 3997 609 4128 
Q 609 4259 701 4351 
Q 794 4444 928 4444 
z
M 1188 2947 
L 1188 647 
Q 1188 378 1227 289 
Q 1266 200 1342 156 
Q 1419 113 1622 113 
L 1622 0 
L 231 0 
L 231 113 
Q 441 113 512 153 
Q 584 194 626 287 
Q 669 381 669 647 
L 669 1750 
Q 669 2216 641 2353 
Q 619 2453 572 2492 
Q 525 2531 444 2531 
Q 356 2531 231 2484 
L 188 2597 
L 1050 2947 
L 1188 2947 
z
" transform="scale(0.015625)"/>
      <path id="TimesNewRomanPSMT-6c" d="M 1184 4444 
L 1184 647 
Q 1184 378 1223 290 
Q 1263 203 1344 158 
Q 1425 113 1647 113 
L 1647 0 
L 244 0 
L 244 113 
Q 441 113 512 153 
Q 584 194 625 287 
Q 666 381 666 647 
L 666 3247 
Q 666 3731 644 3842 
Q 622 3953 573 3993 
Q 525 4034 450 4034 
Q 369 4034 244 3984 
L 191 4094 
L 1044 4444 
L 1184 4444 
z
" transform="scale(0.015625)"/>
     </defs>
     <use xlink:href="#TimesNewRomanPSMT-56"/>
     <use xlink:href="#TimesNewRomanPSMT-65" transform="translate(61.091797 0)"/>
     <use xlink:href="#TimesNewRomanPSMT-6e" transform="translate(105.476562 0)"/>
     <use xlink:href="#TimesNewRomanPSMT-74" transform="translate(155.476562 0)"/>
     <use xlink:href="#TimesNewRomanPSMT-75" transform="translate(183.259766 0)"/>
     <use xlink:href="#TimesNewRomanPSMT-72" transform="translate(233.259766 0)"/>
     <use xlink:href="#TimesNewRomanPSMT-65" transform="translate(266.560547 0)"/>
     <use xlink:href="#TimesNewRomanPSMT-20" transform="translate(310.945312 0)"/>
     <use xlink:href="#TimesNewRomanPSMT-43" transform="translate(335.945312 0)"/>
     <use xlink:href="#TimesNewRomanPSMT-61" transform="translate(402.644531 0)"/>
     <use xlink:href="#TimesNewRomanPSMT-70" transform="translate(447.029297 0)"/>
     <use xlink:href="#TimesNewRomanPSMT-69" transform="translate(497.029297 0)"/>
     <use xlink:href="#TimesNewRomanPSMT-74" transform="translate(524.8125 0)"/>
     <use xlink:href="#TimesNewRomanPSMT-61" transform="translate(552.595703 0)"/>
     <use xlink:href="#TimesNewRomanPSMT-6c" transform="translate(596.980469 0)"/>
    </g>
   </g>
  </g>
  <g id="axes_2">
   <g id="patch_4">
    <path d="M 157.879785 150.312 
L 732.746785 150.312 
L 732.746785 61.784 
L 157.879785 61.784 
L 157.879785 150.312 
z
" style="fill: none; opacity: 0"/>
   </g>
   <g id="FillBetweenPolyCollection_2">
    <defs>
     <path id="mcc1fedc48b" d="M 157.879785 -144.766831 
L 157.879785 -130.343312 
L 160.768564 -130.343312 
L 163.657343 -130.343312 
L 166.546122 -130.343312 
L 169.434901 -130.343312 
L 172.323679 -130.343312 
L 175.212458 -130.343312 
L 178.101237 -130.343312 
L 180.990016 -130.343312 
L 183.878795 -130.343312 
L 186.767574 -130.343312 
L 189.656353 -130.343312 
L 192.545132 -130.343312 
L 195.433911 -130.343312 
L 198.32269 -130.343312 
L 201.211468 -130.343312 
L 204.100247 -130.343312 
L 206.989026 -130.343312 
L 209.877805 -130.343312 
L 212.766584 -130.343312 
L 215.655363 -130.343312 
L 218.544142 -130.343312 
L 221.432921 -130.343312 
L 224.3217 -130.343312 
L 227.210478 -130.343312 
L 230.099257 -130.343312 
L 232.988036 -130.343312 
L 235.876815 -130.343312 
L 238.765594 -130.343312 
L 241.654373 -130.343312 
L 244.543152 -130.343312 
L 247.431931 -130.343312 
L 250.32071 -130.343312 
L 253.209489 -130.343312 
L 256.098267 -130.343312 
L 258.987046 -130.343312 
L 261.875825 -130.343312 
L 264.764604 -130.343312 
L 267.653383 -130.343312 
L 270.542162 -130.343312 
L 273.430941 -130.343312 
L 276.31972 -130.343312 
L 279.208499 -130.343312 
L 282.097277 -130.343312 
L 284.986056 -130.343312 
L 287.874835 -130.343312 
L 290.763614 -130.343312 
L 293.652393 -130.343312 
L 296.541172 -130.343312 
L 299.429951 -130.343312 
L 302.31873 -130.343312 
L 305.207509 -130.343312 
L 308.096288 -130.343312 
L 310.985066 -130.343312 
L 313.873845 -130.343312 
L 316.762624 -130.343312 
L 319.651403 -130.343312 
L 322.540182 -130.343312 
L 325.428961 -130.343312 
L 328.31774 -130.343312 
L 331.206519 -130.343312 
L 334.095298 -130.343312 
L 336.984076 -130.343312 
L 339.872855 -130.343312 
L 342.761634 -130.343312 
L 345.650413 -130.343312 
L 348.539192 -130.343312 
L 351.427971 -130.343312 
L 354.31675 -130.343312 
L 357.205529 -130.343312 
L 360.094308 -130.343312 
L 362.983087 -130.343312 
L 365.871865 -130.343312 
L 368.760644 -130.343312 
L 371.649423 -130.343312 
L 374.538202 -130.343312 
L 377.426981 -130.343312 
L 380.31576 -130.343312 
L 383.204539 -130.343312 
L 386.093318 -130.343312 
L 388.982097 -130.343312 
L 391.870875 -130.343312 
L 394.759654 -130.343312 
L 397.648433 -130.343312 
L 400.537212 -130.343312 
L 403.425991 -130.343312 
L 406.31477 -130.343312 
L 409.203549 -130.343312 
L 412.092328 -130.343312 
L 414.981107 -130.343312 
L 417.869886 -130.343312 
L 420.758664 -130.343312 
L 423.647443 -130.343312 
L 426.536222 -130.343312 
L 429.425001 -130.343312 
L 432.31378 -130.343312 
L 435.202559 -130.343312 
L 438.091338 -130.343312 
L 440.980117 -130.343312 
L 443.868896 -130.343312 
L 446.757674 -130.343312 
L 449.646453 -130.343312 
L 452.535232 -130.343312 
L 455.424011 -130.343312 
L 458.31279 -130.343312 
L 461.201569 -130.343312 
L 464.090348 -130.343312 
L 466.979127 -130.343312 
L 469.867906 -130.343312 
L 472.756684 -130.343312 
L 475.645463 -130.343312 
L 478.534242 -130.343312 
L 481.423021 -130.343312 
L 484.3118 -130.343312 
L 487.200579 -130.343312 
L 490.089358 -130.343312 
L 492.978137 -130.343312 
L 495.866916 -130.343312 
L 498.755695 -130.343312 
L 501.644473 -130.343312 
L 504.533252 -130.343312 
L 507.422031 -130.343312 
L 510.31081 -130.343312 
L 513.199589 -130.343312 
L 516.088368 -130.343312 
L 518.977147 -130.343312 
L 521.865926 -130.343312 
L 524.754705 -130.343312 
L 527.643483 -130.343312 
L 530.532262 -130.343312 
L 533.421041 -130.343312 
L 536.30982 -130.343312 
L 539.198599 -130.343312 
L 542.087378 -130.343312 
L 544.976157 -130.343312 
L 547.864936 -130.343312 
L 550.753715 -130.343312 
L 553.642494 -130.343312 
L 556.531272 -130.343312 
L 559.420051 -130.343312 
L 562.30883 -130.343312 
L 565.197609 -130.343312 
L 568.086388 -130.343312 
L 570.975167 -130.343312 
L 573.863946 -130.343312 
L 576.752725 -130.343312 
L 579.641504 -130.343312 
L 582.530282 -130.343312 
L 585.419061 -130.343312 
L 588.30784 -130.343312 
L 591.196619 -130.343312 
L 594.085398 -130.343312 
L 596.974177 -130.343312 
L 599.862956 -130.343312 
L 602.751735 -130.343312 
L 605.640514 -130.343312 
L 608.529293 -130.343312 
L 611.418071 -130.343312 
L 614.30685 -130.343312 
L 617.195629 -130.343312 
L 620.084408 -130.343312 
L 622.973187 -130.343312 
L 625.861966 -130.343312 
L 628.750745 -130.343312 
L 631.639524 -130.343312 
L 634.528303 -130.343312 
L 637.417081 -130.343312 
L 640.30586 -130.343312 
L 643.194639 -130.343312 
L 646.083418 -130.343312 
L 648.972197 -130.343312 
L 651.860976 -130.343312 
L 654.749755 -130.343312 
L 657.638534 -130.343312 
L 660.527313 -130.343312 
L 663.416092 -130.343312 
L 666.30487 -130.343312 
L 669.193649 -130.343312 
L 672.082428 -130.343312 
L 674.971207 -130.343312 
L 677.859986 -130.343312 
L 680.748765 -130.343312 
L 683.637544 -130.343312 
L 686.526323 -130.343312 
L 689.415102 -130.343312 
L 692.30388 -130.343312 
L 695.192659 -130.343312 
L 698.081438 -130.343312 
L 700.970217 -130.343312 
L 703.858996 -130.343312 
L 706.747775 -130.343312 
L 709.636554 -130.343312 
L 712.525333 -130.343312 
L 715.414112 -130.343312 
L 718.302891 -130.343312 
L 721.191669 -130.343312 
L 724.080448 -130.343312 
L 726.969227 -130.343312 
L 729.858006 -130.343312 
L 732.746785 -130.343312 
L 732.746785 -150.806351 
L 732.746785 -150.806351 
L 729.858006 -152.035834 
L 726.969227 -153.302785 
L 724.080448 -154.605389 
L 721.191669 -155.941562 
L 718.302891 -157.308949 
L 715.414112 -158.704923 
L 712.525333 -160.126589 
L 709.636554 -161.570794 
L 706.747775 -163.034126 
L 703.858996 -164.512936 
L 700.970217 -166.003344 
L 698.081438 -167.501259 
L 695.192659 -169.002397 
L 692.30388 -170.502305 
L 689.415102 -171.996385 
L 686.526323 -173.479917 
L 683.637544 -174.948092 
L 680.748765 -176.396041 
L 677.859986 -177.818865 
L 674.971207 -179.211672 
L 672.082428 -180.569606 
L 669.193649 -181.887882 
L 666.30487 -183.161824 
L 663.416092 -184.386894 
L 660.527313 -185.558725 
L 657.638534 -186.673158 
L 654.749755 -187.726265 
L 651.860976 -188.714384 
L 648.972197 -189.63414 
L 646.083418 -190.482472 
L 643.194639 -191.256654 
L 640.30586 -191.954311 
L 637.417081 -192.573437 
L 634.528303 -193.112405 
L 631.639524 -193.569975 
L 628.750745 -193.945301 
L 625.861966 -194.237932 
L 622.973187 -194.44781 
L 620.084408 -194.575263 
L 617.195629 -194.621001 
L 614.30685 -194.586102 
L 611.418071 -194.471996 
L 608.529293 -194.280451 
L 605.640514 -194.013554 
L 602.751735 -193.673686 
L 599.862956 -193.263499 
L 596.974177 -192.785893 
L 594.085398 -192.24399 
L 591.196619 -191.641101 
L 588.30784 -190.980706 
L 585.419061 -190.266416 
L 582.530282 -189.501954 
L 579.641504 -188.69112 
L 576.752725 -187.837767 
L 573.863946 -186.945774 
L 570.975167 -186.019017 
L 568.086388 -185.061352 
L 565.197609 -184.076586 
L 562.30883 -183.06846 
L 559.420051 -182.040628 
L 556.531272 -180.996642 
L 553.642494 -179.939938 
L 550.753715 -178.873819 
L 547.864936 -177.801451 
L 544.976157 -176.725846 
L 542.087378 -175.649866 
L 539.198599 -174.576206 
L 536.30982 -173.507402 
L 533.421041 -172.445821 
L 530.532262 -171.393668 
L 527.643483 -170.35298 
L 524.754705 -169.325636 
L 521.865926 -168.313354 
L 518.977147 -167.317699 
L 516.088368 -166.340088 
L 513.199589 -165.381794 
L 510.31081 -164.443953 
L 507.422031 -163.527572 
L 504.533252 -162.633536 
L 501.644473 -161.762613 
L 498.755695 -160.915465 
L 495.866916 -160.092651 
L 492.978137 -159.294642 
L 490.089358 -158.521823 
L 487.200579 -157.774502 
L 484.3118 -157.052921 
L 481.423021 -156.357258 
L 478.534242 -155.687642 
L 475.645463 -155.044154 
L 472.756684 -154.426833 
L 469.867906 -153.83569 
L 466.979127 -153.270704 
L 464.090348 -152.731835 
L 461.201569 -152.219021 
L 458.31279 -151.732187 
L 455.424011 -151.271245 
L 452.535232 -150.836095 
L 449.646453 -150.426625 
L 446.757674 -150.042711 
L 443.868896 -149.684217 
L 440.980117 -149.350987 
L 438.091338 -149.042846 
L 435.202559 -148.759594 
L 432.31378 -148.501002 
L 429.425001 -148.266802 
L 426.536222 -148.056685 
L 423.647443 -147.870297 
L 420.758664 -147.707224 
L 417.869886 -147.566996 
L 414.981107 -147.449076 
L 412.092328 -147.352856 
L 409.203549 -147.277657 
L 406.31477 -147.222722 
L 403.425991 -147.187217 
L 400.537212 -147.170231 
L 397.648433 -147.170778 
L 394.759654 -147.187801 
L 391.870875 -147.220175 
L 388.982097 -147.266716 
L 386.093318 -147.326185 
L 383.204539 -147.397302 
L 380.31576 -147.478753 
L 377.426981 -147.569205 
L 374.538202 -147.667313 
L 371.649423 -147.771737 
L 368.760644 -147.881155 
L 365.871865 -147.994272 
L 362.983087 -148.10984 
L 360.094308 -148.226661 
L 357.205529 -148.343607 
L 354.31675 -148.459627 
L 351.427971 -148.573755 
L 348.539192 -148.685119 
L 345.650413 -148.79295 
L 342.761634 -148.896582 
L 339.872855 -148.99546 
L 336.984076 -149.089138 
L 334.095298 -149.177279 
L 331.206519 -149.259654 
L 328.31774 -149.33614 
L 325.428961 -149.40671 
L 322.540182 -149.471434 
L 319.651403 -149.530462 
L 316.762624 -149.584026 
L 313.873845 -149.632421 
L 310.985066 -149.676001 
L 308.096288 -149.715168 
L 305.207509 -149.750359 
L 302.31873 -149.782035 
L 299.429951 -149.810673 
L 296.541172 -149.836752 
L 293.652393 -149.860744 
L 290.763614 -149.883107 
L 287.874835 -149.904268 
L 284.986056 -149.92462 
L 282.097277 -149.944514 
L 279.208499 -149.964245 
L 276.31972 -149.984051 
L 273.430941 -150.004104 
L 270.542162 -150.024503 
L 267.653383 -150.045272 
L 264.764604 -150.066351 
L 261.875825 -150.087597 
L 258.987046 -150.108779 
L 256.098267 -150.129574 
L 253.209489 -150.149571 
L 250.32071 -150.168265 
L 247.431931 -150.185061 
L 244.543152 -150.199278 
L 241.654373 -150.210145 
L 238.765594 -150.216814 
L 235.876815 -150.218359 
L 232.988036 -150.213785 
L 230.099257 -150.202035 
L 227.210478 -150.182003 
L 224.3217 -150.152541 
L 221.432921 -150.112472 
L 218.544142 -150.060602 
L 215.655363 -149.995738 
L 212.766584 -149.916698 
L 209.877805 -149.822332 
L 206.989026 -149.711532 
L 204.100247 -149.583255 
L 201.211468 -149.436536 
L 198.32269 -149.270505 
L 195.433911 -149.084403 
L 192.545132 -148.877595 
L 189.656353 -148.649587 
L 186.767574 -148.400037 
L 183.878795 -148.128762 
L 180.990016 -147.835752 
L 178.101237 -147.521173 
L 175.212458 -147.18537 
L 172.323679 -146.828873 
L 169.434901 -146.452391 
L 166.546122 -146.056809 
L 163.657343 -145.643184 
L 160.768564 -145.212735 
L 157.879785 -144.766831 
z
" style="stroke: #c0d4f5"/>
    </defs>
    <g clip-path="url(#p56ef6655c4)">
     <use xlink:href="#mcc1fedc48b" x="0" y="280.655312" style="fill: #c0d4f5; fill-opacity: 0.5; stroke: #c0d4f5"/>
    </g>
   </g>
   <g id="matplotlib.axis_3">
    <g id="xtick_10">
     <g id="line2d_12">
      <g>
       <use xlink:href="#m99455196ee" x="157.879785" y="150.312" style="stroke: #000000; stroke-width: 0.8"/>
      </g>
     </g>
    </g>
    <g id="xtick_11">
     <g id="line2d_13">
      <g>
       <use xlink:href="#m99455196ee" x="229.73816" y="150.312" style="stroke: #000000; stroke-width: 0.8"/>
      </g>
     </g>
    </g>
    <g id="xtick_12">
     <g id="line2d_14">
      <g>
       <use xlink:href="#m99455196ee" x="301.596535" y="150.312" style="stroke: #000000; stroke-width: 0.8"/>
      </g>
     </g>
    </g>
    <g id="xtick_13">
     <g id="line2d_15">
      <g>
       <use xlink:href="#m99455196ee" x="373.45491" y="150.312" style="stroke: #000000; stroke-width: 0.8"/>
      </g>
     </g>
    </g>
    <g id="xtick_14">
     <g id="line2d_16">
      <g>
       <use xlink:href="#m99455196ee" x="445.313285" y="150.312" style="stroke: #000000; stroke-width: 0.8"/>
      </g>
     </g>
    </g>
    <g id="xtick_15">
     <g id="line2d_17">
      <g>
       <use xlink:href="#m99455196ee" x="517.17166" y="150.312" style="stroke: #000000; stroke-width: 0.8"/>
      </g>
     </g>
    </g>
    <g id="xtick_16">
     <g id="line2d_18">
      <g>
       <use xlink:href="#m99455196ee" x="589.030035" y="150.312" style="stroke: #000000; stroke-width: 0.8"/>
      </g>
     </g>
    </g>
    <g id="xtick_17">
     <g id="line2d_19">
      <g>
       <use xlink:href="#m99455196ee" x="660.88841" y="150.312" style="stroke: #000000; stroke-width: 0.8"/>
      </g>
     </g>
    </g>
    <g id="xtick_18">
     <g id="line2d_20">
      <g>
       <use xlink:href="#m99455196ee" x="732.746785" y="150.312" style="stroke: #000000; stroke-width: 0.8"/>
      </g>
     </g>
    </g>
   </g>
   <g id="matplotlib.axis_4"/>
   <g id="line2d_21">
    <path d="M 157.879785 135.888482 
L 169.434901 134.202922 
L 178.101237 133.13414 
L 186.767574 132.255276 
L 195.433911 131.57091 
L 204.100247 131.072058 
L 215.655363 130.659574 
L 227.210478 130.473309 
L 244.543152 130.456035 
L 296.541172 130.818561 
L 319.651403 131.12485 
L 336.984076 131.566175 
L 357.205529 132.311705 
L 383.204539 133.258011 
L 394.759654 133.467511 
L 406.31477 133.43259 
L 414.981107 133.206237 
L 423.647443 132.785016 
L 432.31378 132.154311 
L 440.980117 131.304326 
L 449.646453 130.228688 
L 458.31279 128.923125 
L 466.979127 127.384608 
L 475.645463 125.611159 
L 484.3118 123.602392 
L 492.978137 121.36067 
L 501.644473 118.892699 
L 510.31081 116.21136 
L 518.977147 113.337613 
L 530.532262 109.261645 
L 550.753715 101.781493 
L 562.30883 97.586853 
L 570.975167 94.636295 
L 579.641504 91.964192 
L 585.419061 90.388896 
L 591.196619 89.014211 
L 596.974177 87.869419 
L 602.751735 86.981627 
L 608.529293 86.374861 
L 614.30685 86.069211 
L 620.084408 86.08005 
L 625.861966 86.41738 
L 631.639524 87.085337 
L 637.417081 88.081875 
L 643.194639 89.398658 
L 648.972197 91.021172 
L 654.749755 92.929047 
L 660.527313 95.096587 
L 666.30487 97.493488 
L 672.082428 100.085707 
L 680.748765 104.259272 
L 692.30388 110.153007 
L 712.525333 120.528723 
L 721.191669 124.71375 
L 729.858006 128.619479 
L 732.746785 129.848962 
L 732.746785 129.848962 
" clip-path="url(#p56ef6655c4)" style="fill: none; stroke: #ffffff; stroke-width: 2; stroke-linecap: square"/>
   </g>
   <g id="line2d_22">
    <path d="M 157.879785 150.312 
L 732.746785 150.312 
" style="fill: none; stroke: #000000; stroke-linecap: square"/>
   </g>
   <g id="text_2">
    <g id="patch_5">
     <path d="M 62.88375 159.721687 
L 101.47875 159.721687 
L 101.47875 140.902312 
L 62.88375 140.902312 
z
" style="fill: #ffffff; opacity: 0.5"/>
    </g>
    <!-- Bonds -->
    <g transform="translate(66.84375 153.194812) scale(0.12 -0.12)">
     <defs>
      <path id="TimesNewRomanPSMT-42" d="M 2956 2163 
Q 3397 2069 3616 1863 
Q 3919 1575 3919 1159 
Q 3919 844 3719 555 
Q 3519 266 3170 133 
Q 2822 0 2106 0 
L 106 0 
L 106 116 
L 266 116 
Q 531 116 647 284 
Q 719 394 719 750 
L 719 3488 
Q 719 3881 628 3984 
Q 506 4122 266 4122 
L 106 4122 
L 106 4238 
L 1938 4238 
Q 2450 4238 2759 4163 
Q 3228 4050 3475 3764 
Q 3722 3478 3722 3106 
Q 3722 2788 3528 2536 
Q 3334 2284 2956 2163 
z
M 1319 2331 
Q 1434 2309 1582 2298 
Q 1731 2288 1909 2288 
Q 2366 2288 2595 2386 
Q 2825 2484 2947 2687 
Q 3069 2891 3069 3131 
Q 3069 3503 2766 3765 
Q 2463 4028 1881 4028 
Q 1569 4028 1319 3959 
L 1319 2331 
z
M 1319 306 
Q 1681 222 2034 222 
Q 2600 222 2897 476 
Q 3194 731 3194 1106 
Q 3194 1353 3059 1581 
Q 2925 1809 2622 1940 
Q 2319 2072 1872 2072 
Q 1678 2072 1540 2065 
Q 1403 2059 1319 2044 
L 1319 306 
z
" transform="scale(0.015625)"/>
      <path id="TimesNewRomanPSMT-6f" d="M 1600 2947 
Q 2250 2947 2644 2453 
Q 2978 2031 2978 1484 
Q 2978 1100 2793 706 
Q 2609 313 2286 112 
Q 1963 -88 1566 -88 
Q 919 -88 538 428 
Q 216 863 216 1403 
Q 216 1797 411 2186 
Q 606 2575 925 2761 
Q 1244 2947 1600 2947 
z
M 1503 2744 
Q 1338 2744 1170 2645 
Q 1003 2547 900 2300 
Q 797 2053 797 1666 
Q 797 1041 1045 587 
Q 1294 134 1700 134 
Q 2003 134 2200 384 
Q 2397 634 2397 1244 
Q 2397 2006 2069 2444 
Q 1847 2744 1503 2744 
z
" transform="scale(0.015625)"/>
      <path id="TimesNewRomanPSMT-64" d="M 2222 322 
Q 2013 103 1813 7 
Q 1613 -88 1381 -88 
Q 913 -88 563 304 
Q 213 697 213 1313 
Q 213 1928 600 2439 
Q 988 2950 1597 2950 
Q 1975 2950 2222 2709 
L 2222 3238 
Q 2222 3728 2198 3840 
Q 2175 3953 2125 3993 
Q 2075 4034 2000 4034 
Q 1919 4034 1784 3984 
L 1744 4094 
L 2597 4444 
L 2738 4444 
L 2738 1134 
Q 2738 631 2761 520 
Q 2784 409 2836 365 
Q 2888 322 2956 322 
Q 3041 322 3181 375 
L 3216 266 
L 2366 -88 
L 2222 -88 
L 2222 322 
z
M 2222 541 
L 2222 2016 
Q 2203 2228 2109 2403 
Q 2016 2578 1861 2667 
Q 1706 2756 1559 2756 
Q 1284 2756 1069 2509 
Q 784 2184 784 1559 
Q 784 928 1059 592 
Q 1334 256 1672 256 
Q 1956 256 2222 541 
z
" transform="scale(0.015625)"/>
      <path id="TimesNewRomanPSMT-73" d="M 2050 2947 
L 2050 1972 
L 1947 1972 
Q 1828 2431 1642 2597 
Q 1456 2763 1169 2763 
Q 950 2763 815 2647 
Q 681 2531 681 2391 
Q 681 2216 781 2091 
Q 878 1963 1175 1819 
L 1631 1597 
Q 2266 1288 2266 781 
Q 2266 391 1970 151 
Q 1675 -88 1309 -88 
Q 1047 -88 709 6 
Q 606 38 541 38 
Q 469 38 428 -44 
L 325 -44 
L 325 978 
L 428 978 
Q 516 541 762 319 
Q 1009 97 1316 97 
Q 1531 97 1667 223 
Q 1803 350 1803 528 
Q 1803 744 1651 891 
Q 1500 1038 1047 1263 
Q 594 1488 453 1669 
Q 313 1847 313 2119 
Q 313 2472 555 2709 
Q 797 2947 1181 2947 
Q 1350 2947 1591 2875 
Q 1750 2828 1803 2828 
Q 1853 2828 1881 2850 
Q 1909 2872 1947 2947 
L 2050 2947 
z
" transform="scale(0.015625)"/>
     </defs>
     <use xlink:href="#TimesNewRomanPSMT-42"/>
     <use xlink:href="#TimesNewRomanPSMT-6f" transform="translate(66.699219 0)"/>
     <use xlink:href="#TimesNewRomanPSMT-6e" transform="translate(116.699219 0)"/>
     <use xlink:href="#TimesNewRomanPSMT-64" transform="translate(166.699219 0)"/>
     <use xlink:href="#TimesNewRomanPSMT-73" transform="translate(216.699219 0)"/>
    </g>
   </g>
  </g>
  <g id="axes_3">
   <g id="patch_6">
    <path d="M 157.879785 194.576 
L 732.746785 194.576 
L 732.746785 106.048 
L 157.879785 106.048 
L 157.879785 194.576 
z
" style="fill: none; opacity: 0"/>
   </g>
   <g id="FillBetweenPolyCollection_3">
    <defs>
     <path id="m70eb6fd177" d="M 157.879785 -152.968473 
L 157.879785 -86.079312 
L 160.768564 -86.079312 
L 163.657343 -86.079312 
L 166.546122 -86.079312 
L 169.434901 -86.079312 
L 172.323679 -86.079312 
L 175.212458 -86.079312 
L 178.101237 -86.079312 
L 180.990016 -86.079312 
L 183.878795 -86.079312 
L 186.767574 -86.079312 
L 189.656353 -86.079312 
L 192.545132 -86.079312 
L 195.433911 -86.079312 
L 198.32269 -86.079312 
L 201.211468 -86.079312 
L 204.100247 -86.079312 
L 206.989026 -86.079312 
L 209.877805 -86.079312 
L 212.766584 -86.079312 
L 215.655363 -86.079312 
L 218.544142 -86.079312 
L 221.432921 -86.079312 
L 224.3217 -86.079312 
L 227.210478 -86.079312 
L 230.099257 -86.079312 
L 232.988036 -86.079312 
L 235.876815 -86.079312 
L 238.765594 -86.079312 
L 241.654373 -86.079312 
L 244.543152 -86.079312 
L 247.431931 -86.079312 
L 250.32071 -86.079312 
L 253.209489 -86.079312 
L 256.098267 -86.079312 
L 258.987046 -86.079312 
L 261.875825 -86.079312 
L 264.764604 -86.079312 
L 267.653383 -86.079312 
L 270.542162 -86.079312 
L 273.430941 -86.079312 
L 276.31972 -86.079312 
L 279.208499 -86.079312 
L 282.097277 -86.079312 
L 284.986056 -86.079312 
L 287.874835 -86.079312 
L 290.763614 -86.079312 
L 293.652393 -86.079312 
L 296.541172 -86.079312 
L 299.429951 -86.079312 
L 302.31873 -86.079312 
L 305.207509 -86.079312 
L 308.096288 -86.079312 
L 310.985066 -86.079312 
L 313.873845 -86.079312 
L 316.762624 -86.079312 
L 319.651403 -86.079312 
L 322.540182 -86.079312 
L 325.428961 -86.079312 
L 328.31774 -86.079312 
L 331.206519 -86.079312 
L 334.095298 -86.079312 
L 336.984076 -86.079312 
L 339.872855 -86.079312 
L 342.761634 -86.079312 
L 345.650413 -86.079312 
L 348.539192 -86.079312 
L 351.427971 -86.079312 
L 354.31675 -86.079312 
L 357.205529 -86.079312 
L 360.094308 -86.079312 
L 362.983087 -86.079312 
L 365.871865 -86.079312 
L 368.760644 -86.079312 
L 371.649423 -86.079312 
L 374.538202 -86.079312 
L 377.426981 -86.079312 
L 380.31576 -86.079312 
L 383.204539 -86.079312 
L 386.093318 -86.079312 
L 388.982097 -86.079312 
L 391.870875 -86.079312 
L 394.759654 -86.079312 
L 397.648433 -86.079312 
L 400.537212 -86.079312 
L 403.425991 -86.079312 
L 406.31477 -86.079312 
L 409.203549 -86.079312 
L 412.092328 -86.079312 
L 414.981107 -86.079312 
L 417.869886 -86.079312 
L 420.758664 -86.079312 
L 423.647443 -86.079312 
L 426.536222 -86.079312 
L 429.425001 -86.079312 
L 432.31378 -86.079312 
L 435.202559 -86.079312 
L 438.091338 -86.079312 
L 440.980117 -86.079312 
L 443.868896 -86.079312 
L 446.757674 -86.079312 
L 449.646453 -86.079312 
L 452.535232 -86.079312 
L 455.424011 -86.079312 
L 458.31279 -86.079312 
L 461.201569 -86.079312 
L 464.090348 -86.079312 
L 466.979127 -86.079312 
L 469.867906 -86.079312 
L 472.756684 -86.079312 
L 475.645463 -86.079312 
L 478.534242 -86.079312 
L 481.423021 -86.079312 
L 484.3118 -86.079312 
L 487.200579 -86.079312 
L 490.089358 -86.079312 
L 492.978137 -86.079312 
L 495.866916 -86.079312 
L 498.755695 -86.079312 
L 501.644473 -86.079312 
L 504.533252 -86.079312 
L 507.422031 -86.079312 
L 510.31081 -86.079312 
L 513.199589 -86.079312 
L 516.088368 -86.079312 
L 518.977147 -86.079312 
L 521.865926 -86.079312 
L 524.754705 -86.079312 
L 527.643483 -86.079312 
L 530.532262 -86.079312 
L 533.421041 -86.079312 
L 536.30982 -86.079312 
L 539.198599 -86.079312 
L 542.087378 -86.079312 
L 544.976157 -86.079312 
L 547.864936 -86.079312 
L 550.753715 -86.079312 
L 553.642494 -86.079312 
L 556.531272 -86.079312 
L 559.420051 -86.079312 
L 562.30883 -86.079312 
L 565.197609 -86.079312 
L 568.086388 -86.079312 
L 570.975167 -86.079312 
L 573.863946 -86.079312 
L 576.752725 -86.079312 
L 579.641504 -86.079312 
L 582.530282 -86.079312 
L 585.419061 -86.079312 
L 588.30784 -86.079312 
L 591.196619 -86.079312 
L 594.085398 -86.079312 
L 596.974177 -86.079312 
L 599.862956 -86.079312 
L 602.751735 -86.079312 
L 605.640514 -86.079312 
L 608.529293 -86.079312 
L 611.418071 -86.079312 
L 614.30685 -86.079312 
L 617.195629 -86.079312 
L 620.084408 -86.079312 
L 622.973187 -86.079312 
L 625.861966 -86.079312 
L 628.750745 -86.079312 
L 631.639524 -86.079312 
L 634.528303 -86.079312 
L 637.417081 -86.079312 
L 640.30586 -86.079312 
L 643.194639 -86.079312 
L 646.083418 -86.079312 
L 648.972197 -86.079312 
L 651.860976 -86.079312 
L 654.749755 -86.079312 
L 657.638534 -86.079312 
L 660.527313 -86.079312 
L 663.416092 -86.079312 
L 666.30487 -86.079312 
L 669.193649 -86.079312 
L 672.082428 -86.079312 
L 674.971207 -86.079312 
L 677.859986 -86.079312 
L 680.748765 -86.079312 
L 683.637544 -86.079312 
L 686.526323 -86.079312 
L 689.415102 -86.079312 
L 692.30388 -86.079312 
L 695.192659 -86.079312 
L 698.081438 -86.079312 
L 700.970217 -86.079312 
L 703.858996 -86.079312 
L 706.747775 -86.079312 
L 709.636554 -86.079312 
L 712.525333 -86.079312 
L 715.414112 -86.079312 
L 718.302891 -86.079312 
L 721.191669 -86.079312 
L 724.080448 -86.079312 
L 726.969227 -86.079312 
L 729.858006 -86.079312 
L 732.746785 -86.079312 
L 732.746785 -99.150452 
L 732.746785 -99.150452 
L 729.858006 -99.43063 
L 726.969227 -99.689042 
L 724.080448 -99.924591 
L 721.191669 -100.136355 
L 718.302891 -100.323587 
L 715.414112 -100.485731 
L 712.525333 -100.622427 
L 709.636554 -100.733508 
L 706.747775 -100.819008 
L 703.858996 -100.879158 
L 700.970217 -100.914377 
L 698.081438 -100.925272 
L 695.192659 -100.912626 
L 692.30388 -100.877384 
L 689.415102 -100.820644 
L 686.526323 -100.74364 
L 683.637544 -100.647724 
L 680.748765 -100.534351 
L 677.859986 -100.405056 
L 674.971207 -100.261439 
L 672.082428 -100.105141 
L 669.193649 -99.937827 
L 666.30487 -99.761165 
L 663.416092 -99.576807 
L 660.527313 -99.386371 
L 657.638534 -99.191424 
L 654.749755 -98.993467 
L 651.860976 -98.793917 
L 648.972197 -98.594101 
L 646.083418 -98.395241 
L 643.194639 -98.198447 
L 640.30586 -98.004712 
L 637.417081 -97.814905 
L 634.528303 -97.62977 
L 631.639524 -97.44993 
L 628.750745 -97.275882 
L 625.861966 -97.108008 
L 622.973187 -96.946573 
L 620.084408 -96.791742 
L 617.195629 -96.643579 
L 614.30685 -96.502063 
L 611.418071 -96.367097 
L 608.529293 -96.238518 
L 605.640514 -96.116113 
L 602.751735 -95.999626 
L 599.862956 -95.888772 
L 596.974177 -95.783251 
L 594.085398 -95.682758 
L 591.196619 -95.586992 
L 588.30784 -95.495666 
L 585.419061 -95.40852 
L 582.530282 -95.325322 
L 579.641504 -95.24588 
L 576.752725 -95.170044 
L 573.863946 -95.097708 
L 570.975167 -95.028816 
L 568.086388 -94.963359 
L 565.197609 -94.901377 
L 562.30883 -94.842953 
L 559.420051 -94.788214 
L 556.531272 -94.737323 
L 553.642494 -94.690476 
L 550.753715 -94.647892 
L 547.864936 -94.609811 
L 544.976157 -94.576482 
L 542.087378 -94.548156 
L 539.198599 -94.525081 
L 536.30982 -94.507489 
L 533.421041 -94.495593 
L 530.532262 -94.489577 
L 527.643483 -94.48959 
L 524.754705 -94.495741 
L 521.865926 -94.508092 
L 518.977147 -94.526655 
L 516.088368 -94.55139 
L 513.199589 -94.5822 
L 510.31081 -94.618932 
L 507.422031 -94.66138 
L 504.533252 -94.709282 
L 501.644473 -94.762323 
L 498.755695 -94.820144 
L 495.866916 -94.882342 
L 492.978137 -94.948475 
L 490.089358 -95.018073 
L 487.200579 -95.090643 
L 484.3118 -95.165677 
L 481.423021 -95.24266 
L 478.534242 -95.32108 
L 475.645463 -95.400437 
L 472.756684 -95.480252 
L 469.867906 -95.560075 
L 466.979127 -95.639497 
L 464.090348 -95.718155 
L 461.201569 -95.795743 
L 458.31279 -95.872019 
L 455.424011 -95.946811 
L 452.535232 -96.020025 
L 449.646453 -96.091652 
L 446.757674 -96.161769 
L 443.868896 -96.230547 
L 440.980117 -96.298252 
L 438.091338 -96.365249 
L 435.202559 -96.432001 
L 432.31378 -96.499072 
L 429.425001 -96.567126 
L 426.536222 -96.636927 
L 423.647443 -96.709333 
L 420.758664 -96.785299 
L 417.869886 -96.86587 
L 414.981107 -96.952179 
L 412.092328 -97.045439 
L 409.203549 -97.146945 
L 406.31477 -97.258061 
L 403.425991 -97.380219 
L 400.537212 -97.514914 
L 397.648433 -97.663692 
L 394.759654 -97.828151 
L 391.870875 -98.00993 
L 388.982097 -98.210705 
L 386.093318 -98.432182 
L 383.204539 -98.676091 
L 380.31576 -98.94418 
L 377.426981 -99.238211 
L 374.538202 -99.559949 
L 371.649423 -99.911164 
L 368.760644 -100.29362 
L 365.871865 -100.70907 
L 362.983087 -101.159253 
L 360.094308 -101.645886 
L 357.205529 -102.17066 
L 354.31675 -102.735232 
L 351.427971 -103.341219 
L 348.539192 -103.990194 
L 345.650413 -104.683672 
L 342.761634 -105.423107 
L 339.872855 -106.20988 
L 336.984076 -107.04529 
L 334.095298 -107.93054 
L 331.206519 -108.866728 
L 328.31774 -109.854828 
L 325.428961 -110.89568 
L 322.540182 -111.989967 
L 319.651403 -113.138204 
L 316.762624 -114.340712 
L 313.873845 -115.5976 
L 310.985066 -116.908746 
L 308.096288 -118.27377 
L 305.207509 -119.692014 
L 302.31873 -121.162515 
L 299.429951 -122.683988 
L 296.541172 -124.254795 
L 293.652393 -125.872929 
L 290.763614 -127.535991 
L 287.874835 -129.241169 
L 284.986056 -130.985224 
L 282.097277 -132.764473 
L 279.208499 -134.574782 
L 276.31972 -136.411555 
L 273.430941 -138.269735 
L 270.542162 -140.143802 
L 267.653383 -142.027785 
L 264.764604 -143.915273 
L 261.875825 -145.799434 
L 258.987046 -147.673041 
L 256.098267 -149.528501 
L 253.209489 -151.357897 
L 250.32071 -153.15303 
L 247.431931 -154.905468 
L 244.543152 -156.606607 
L 241.654373 -158.247724 
L 238.765594 -159.820051 
L 235.876815 -161.314844 
L 232.988036 -162.723455 
L 230.099257 -164.037408 
L 227.210478 -165.248483 
L 224.3217 -166.348788 
L 221.432921 -167.330844 
L 218.544142 -168.187658 
L 215.655363 -168.912803 
L 212.766584 -169.500485 
L 209.877805 -169.945611 
L 206.989026 -170.243851 
L 204.100247 -170.391693 
L 201.211468 -170.386488 
L 198.32269 -170.226489 
L 195.433911 -169.910881 
L 192.545132 -169.439799 
L 189.656353 -168.814341 
L 186.767574 -168.036564 
L 183.878795 -167.109474 
L 180.990016 -166.037005 
L 178.101237 -164.823988 
L 175.212458 -163.476108 
L 172.323679 -161.999856 
L 169.434901 -160.402468 
L 166.546122 -158.691859 
L 163.657343 -156.876551 
L 160.768564 -154.965592 
L 157.879785 -152.968473 
z
" style="stroke: #f2cbb7"/>
    </defs>
    <g clip-path="url(#p083aa02acd)">
     <use xlink:href="#m70eb6fd177" x="0" y="280.655312" style="fill: #f2cbb7; fill-opacity: 0.5; stroke: #f2cbb7"/>
    </g>
   </g>
   <g id="matplotlib.axis_5">
    <g id="xtick_19">
     <g id="line2d_23">
      <g>
       <use xlink:href="#m99455196ee" x="157.879785" y="194.576" style="stroke: #000000; stroke-width: 0.8"/>
      </g>
     </g>
    </g>
    <g id="xtick_20">
     <g id="line2d_24">
      <g>
       <use xlink:href="#m99455196ee" x="229.73816" y="194.576" style="stroke: #000000; stroke-width: 0.8"/>
      </g>
     </g>
    </g>
    <g id="xtick_21">
     <g id="line2d_25">
      <g>
       <use xlink:href="#m99455196ee" x="301.596535" y="194.576" style="stroke: #000000; stroke-width: 0.8"/>
      </g>
     </g>
    </g>
    <g id="xtick_22">
     <g id="line2d_26">
      <g>
       <use xlink:href="#m99455196ee" x="373.45491" y="194.576" style="stroke: #000000; stroke-width: 0.8"/>
      </g>
     </g>
    </g>
    <g id="xtick_23">
     <g id="line2d_27">
      <g>
       <use xlink:href="#m99455196ee" x="445.313285" y="194.576" style="stroke: #000000; stroke-width: 0.8"/>
      </g>
     </g>
    </g>
    <g id="xtick_24">
     <g id="line2d_28">
      <g>
       <use xlink:href="#m99455196ee" x="517.17166" y="194.576" style="stroke: #000000; stroke-width: 0.8"/>
      </g>
     </g>
    </g>
    <g id="xtick_25">
     <g id="line2d_29">
      <g>
       <use xlink:href="#m99455196ee" x="589.030035" y="194.576" style="stroke: #000000; stroke-width: 0.8"/>
      </g>
     </g>
    </g>
    <g id="xtick_26">
     <g id="line2d_30">
      <g>
       <use xlink:href="#m99455196ee" x="660.88841" y="194.576" style="stroke: #000000; stroke-width: 0.8"/>
      </g>
     </g>
    </g>
    <g id="xtick_27">
     <g id="line2d_31">
      <g>
       <use xlink:href="#m99455196ee" x="732.746785" y="194.576" style="stroke: #000000; stroke-width: 0.8"/>
      </g>
     </g>
    </g>
   </g>
   <g id="matplotlib.axis_6"/>
   <g id="line2d_32">
    <path d="M 157.879785 127.686839 
L 163.657343 123.778761 
L 169.434901 120.252845 
L 175.212458 117.179205 
L 178.101237 115.831325 
L 180.990016 114.618307 
L 183.878795 113.545839 
L 186.767574 112.618748 
L 189.656353 111.840971 
L 192.545132 111.215513 
L 195.433911 110.744432 
L 198.32269 110.428823 
L 201.211468 110.268824 
L 204.100247 110.263619 
L 206.989026 110.411461 
L 209.877805 110.709701 
L 212.766584 111.154827 
L 215.655363 111.742509 
L 218.544142 112.467654 
L 221.432921 113.324469 
L 224.3217 114.306525 
L 230.099257 116.617904 
L 235.876815 119.340468 
L 241.654373 122.407589 
L 247.431931 125.749844 
L 256.098267 131.126812 
L 287.874835 151.414143 
L 293.652393 154.782383 
L 299.429951 157.971325 
L 305.207509 160.963299 
L 310.985066 163.746566 
L 316.762624 166.314601 
L 322.540182 168.665345 
L 328.31774 170.800484 
L 334.095298 172.724772 
L 339.872855 174.445433 
L 345.650413 175.971641 
L 351.427971 177.314093 
L 357.205529 178.484653 
L 365.871865 179.946242 
L 374.538202 181.095363 
L 383.204539 181.979222 
L 391.870875 182.645383 
L 403.425991 183.275093 
L 417.869886 183.789442 
L 446.757674 184.493543 
L 516.088368 186.103923 
L 533.421041 186.15972 
L 550.753715 186.00742 
L 573.863946 185.557604 
L 596.974177 184.872061 
L 614.30685 184.15325 
L 631.639524 183.205382 
L 654.749755 181.661846 
L 672.082428 180.550172 
L 683.637544 180.007588 
L 692.30388 179.777929 
L 700.970217 179.740936 
L 709.636554 179.921805 
L 718.302891 180.331726 
L 726.969227 180.966271 
L 732.746785 181.504861 
L 732.746785 181.504861 
" clip-path="url(#p083aa02acd)" style="fill: none; stroke: #ffffff; stroke-width: 2; stroke-linecap: square"/>
   </g>
   <g id="line2d_33">
    <path d="M 157.879785 194.576 
L 732.746785 194.576 
" style="fill: none; stroke: #000000; stroke-linecap: square"/>
   </g>
   <g id="text_3">
    <g id="patch_7">
     <path d="M 39.245625 203.985687 
L 101.47875 203.985687 
L 101.47875 185.166312 
L 39.245625 185.166312 
z
" style="fill: #ffffff; opacity: 0.5"/>
    </g>
    <!-- Real Estate -->
    <g transform="translate(43.205625 197.458812) scale(0.12 -0.12)">
     <defs>
      <path id="TimesNewRomanPSMT-52" d="M 4325 0 
L 3194 0 
L 1759 1981 
Q 1600 1975 1500 1975 
Q 1459 1975 1412 1976 
Q 1366 1978 1316 1981 
L 1316 750 
Q 1316 350 1403 253 
Q 1522 116 1759 116 
L 1925 116 
L 1925 0 
L 109 0 
L 109 116 
L 269 116 
Q 538 116 653 291 
Q 719 388 719 750 
L 719 3488 
Q 719 3888 631 3984 
Q 509 4122 269 4122 
L 109 4122 
L 109 4238 
L 1653 4238 
Q 2328 4238 2648 4139 
Q 2969 4041 3192 3777 
Q 3416 3513 3416 3147 
Q 3416 2756 3161 2468 
Q 2906 2181 2372 2063 
L 3247 847 
Q 3547 428 3762 290 
Q 3978 153 4325 116 
L 4325 0 
z
M 1316 2178 
Q 1375 2178 1419 2176 
Q 1463 2175 1491 2175 
Q 2097 2175 2405 2437 
Q 2713 2700 2713 3106 
Q 2713 3503 2464 3751 
Q 2216 4000 1806 4000 
Q 1625 4000 1316 3941 
L 1316 2178 
z
" transform="scale(0.015625)"/>
      <path id="TimesNewRomanPSMT-45" d="M 1338 4006 
L 1338 2331 
L 2269 2331 
Q 2631 2331 2753 2441 
Q 2916 2584 2934 2947 
L 3050 2947 
L 3050 1472 
L 2934 1472 
Q 2891 1781 2847 1869 
Q 2791 1978 2662 2040 
Q 2534 2103 2269 2103 
L 1338 2103 
L 1338 706 
Q 1338 425 1363 364 
Q 1388 303 1450 267 
Q 1513 231 1688 231 
L 2406 231 
Q 2766 231 2928 281 
Q 3091 331 3241 478 
Q 3434 672 3638 1063 
L 3763 1063 
L 3397 0 
L 131 0 
L 131 116 
L 281 116 
Q 431 116 566 188 
Q 666 238 702 338 
Q 738 438 738 747 
L 738 3500 
Q 738 3903 656 3997 
Q 544 4122 281 4122 
L 131 4122 
L 131 4238 
L 3397 4238 
L 3444 3309 
L 3322 3309 
Q 3256 3644 3176 3769 
Q 3097 3894 2941 3959 
Q 2816 4006 2500 4006 
L 1338 4006 
z
" transform="scale(0.015625)"/>
     </defs>
     <use xlink:href="#TimesNewRomanPSMT-52"/>
     <use xlink:href="#TimesNewRomanPSMT-65" transform="translate(66.699219 0)"/>
     <use xlink:href="#TimesNewRomanPSMT-61" transform="translate(111.083984 0)"/>
     <use xlink:href="#TimesNewRomanPSMT-6c" transform="translate(155.46875 0)"/>
     <use xlink:href="#TimesNewRomanPSMT-20" transform="translate(183.251953 0)"/>
     <use xlink:href="#TimesNewRomanPSMT-45" transform="translate(208.251953 0)"/>
     <use xlink:href="#TimesNewRomanPSMT-73" transform="translate(269.335938 0)"/>
     <use xlink:href="#TimesNewRomanPSMT-74" transform="translate(308.251953 0)"/>
     <use xlink:href="#TimesNewRomanPSMT-61" transform="translate(336.035156 0)"/>
     <use xlink:href="#TimesNewRomanPSMT-74" transform="translate(380.419922 0)"/>
     <use xlink:href="#TimesNewRomanPSMT-65" transform="translate(408.203125 0)"/>
    </g>
   </g>
  </g>
  <g id="axes_4">
   <g id="patch_8">
    <path d="M 157.879785 238.84 
L 732.746785 238.84 
L 732.746785 150.312 
L 157.879785 150.312 
L 157.879785 238.84 
z
" style="fill: none; opacity: 0"/>
   </g>
   <g id="FillBetweenPolyCollection_4">
    <defs>
     <path id="m22f8843fbe" d="M 157.879785 -95.938783 
L 157.879785 -41.815313 
L 160.768564 -41.815313 
L 163.657343 -41.815313 
L 166.546122 -41.815313 
L 169.434901 -41.815313 
L 172.323679 -41.815313 
L 175.212458 -41.815313 
L 178.101237 -41.815313 
L 180.990016 -41.815313 
L 183.878795 -41.815313 
L 186.767574 -41.815313 
L 189.656353 -41.815313 
L 192.545132 -41.815313 
L 195.433911 -41.815313 
L 198.32269 -41.815313 
L 201.211468 -41.815313 
L 204.100247 -41.815313 
L 206.989026 -41.815313 
L 209.877805 -41.815313 
L 212.766584 -41.815313 
L 215.655363 -41.815313 
L 218.544142 -41.815313 
L 221.432921 -41.815313 
L 224.3217 -41.815313 
L 227.210478 -41.815313 
L 230.099257 -41.815313 
L 232.988036 -41.815313 
L 235.876815 -41.815313 
L 238.765594 -41.815313 
L 241.654373 -41.815313 
L 244.543152 -41.815313 
L 247.431931 -41.815313 
L 250.32071 -41.815313 
L 253.209489 -41.815313 
L 256.098267 -41.815313 
L 258.987046 -41.815313 
L 261.875825 -41.815313 
L 264.764604 -41.815313 
L 267.653383 -41.815313 
L 270.542162 -41.815313 
L 273.430941 -41.815313 
L 276.31972 -41.815313 
L 279.208499 -41.815313 
L 282.097277 -41.815313 
L 284.986056 -41.815313 
L 287.874835 -41.815313 
L 290.763614 -41.815313 
L 293.652393 -41.815313 
L 296.541172 -41.815313 
L 299.429951 -41.815313 
L 302.31873 -41.815313 
L 305.207509 -41.815313 
L 308.096288 -41.815313 
L 310.985066 -41.815313 
L 313.873845 -41.815313 
L 316.762624 -41.815313 
L 319.651403 -41.815313 
L 322.540182 -41.815313 
L 325.428961 -41.815313 
L 328.31774 -41.815313 
L 331.206519 -41.815313 
L 334.095298 -41.815313 
L 336.984076 -41.815313 
L 339.872855 -41.815313 
L 342.761634 -41.815313 
L 345.650413 -41.815313 
L 348.539192 -41.815313 
L 351.427971 -41.815313 
L 354.31675 -41.815313 
L 357.205529 -41.815313 
L 360.094308 -41.815313 
L 362.983087 -41.815313 
L 365.871865 -41.815313 
L 368.760644 -41.815313 
L 371.649423 -41.815313 
L 374.538202 -41.815313 
L 377.426981 -41.815313 
L 380.31576 -41.815313 
L 383.204539 -41.815313 
L 386.093318 -41.815313 
L 388.982097 -41.815313 
L 391.870875 -41.815313 
L 394.759654 -41.815313 
L 397.648433 -41.815313 
L 400.537212 -41.815313 
L 403.425991 -41.815313 
L 406.31477 -41.815313 
L 409.203549 -41.815313 
L 412.092328 -41.815313 
L 414.981107 -41.815313 
L 417.869886 -41.815313 
L 420.758664 -41.815313 
L 423.647443 -41.815313 
L 426.536222 -41.815313 
L 429.425001 -41.815313 
L 432.31378 -41.815313 
L 435.202559 -41.815313 
L 438.091338 -41.815313 
L 440.980117 -41.815313 
L 443.868896 -41.815313 
L 446.757674 -41.815313 
L 449.646453 -41.815313 
L 452.535232 -41.815313 
L 455.424011 -41.815313 
L 458.31279 -41.815313 
L 461.201569 -41.815313 
L 464.090348 -41.815313 
L 466.979127 -41.815313 
L 469.867906 -41.815313 
L 472.756684 -41.815313 
L 475.645463 -41.815313 
L 478.534242 -41.815313 
L 481.423021 -41.815313 
L 484.3118 -41.815313 
L 487.200579 -41.815313 
L 490.089358 -41.815313 
L 492.978137 -41.815313 
L 495.866916 -41.815313 
L 498.755695 -41.815313 
L 501.644473 -41.815313 
L 504.533252 -41.815313 
L 507.422031 -41.815313 
L 510.31081 -41.815313 
L 513.199589 -41.815313 
L 516.088368 -41.815313 
L 518.977147 -41.815313 
L 521.865926 -41.815313 
L 524.754705 -41.815313 
L 527.643483 -41.815313 
L 530.532262 -41.815313 
L 533.421041 -41.815313 
L 536.30982 -41.815313 
L 539.198599 -41.815313 
L 542.087378 -41.815313 
L 544.976157 -41.815313 
L 547.864936 -41.815313 
L 550.753715 -41.815313 
L 553.642494 -41.815313 
L 556.531272 -41.815313 
L 559.420051 -41.815313 
L 562.30883 -41.815313 
L 565.197609 -41.815313 
L 568.086388 -41.815313 
L 570.975167 -41.815313 
L 573.863946 -41.815313 
L 576.752725 -41.815313 
L 579.641504 -41.815313 
L 582.530282 -41.815313 
L 585.419061 -41.815313 
L 588.30784 -41.815313 
L 591.196619 -41.815313 
L 594.085398 -41.815313 
L 596.974177 -41.815313 
L 599.862956 -41.815313 
L 602.751735 -41.815313 
L 605.640514 -41.815313 
L 608.529293 -41.815313 
L 611.418071 -41.815313 
L 614.30685 -41.815313 
L 617.195629 -41.815313 
L 620.084408 -41.815313 
L 622.973187 -41.815313 
L 625.861966 -41.815313 
L 628.750745 -41.815313 
L 631.639524 -41.815313 
L 634.528303 -41.815313 
L 637.417081 -41.815313 
L 640.30586 -41.815313 
L 643.194639 -41.815313 
L 646.083418 -41.815313 
L 648.972197 -41.815313 
L 651.860976 -41.815313 
L 654.749755 -41.815313 
L 657.638534 -41.815313 
L 660.527313 -41.815313 
L 663.416092 -41.815313 
L 666.30487 -41.815313 
L 669.193649 -41.815313 
L 672.082428 -41.815313 
L 674.971207 -41.815313 
L 677.859986 -41.815313 
L 680.748765 -41.815313 
L 683.637544 -41.815313 
L 686.526323 -41.815313 
L 689.415102 -41.815313 
L 692.30388 -41.815313 
L 695.192659 -41.815313 
L 698.081438 -41.815313 
L 700.970217 -41.815313 
L 703.858996 -41.815313 
L 706.747775 -41.815313 
L 709.636554 -41.815313 
L 712.525333 -41.815313 
L 715.414112 -41.815313 
L 718.302891 -41.815313 
L 721.191669 -41.815313 
L 724.080448 -41.815313 
L 726.969227 -41.815313 
L 729.858006 -41.815313 
L 732.746785 -41.815313 
L 732.746785 -55.100936 
L 732.746785 -55.100936 
L 729.858006 -55.305997 
L 726.969227 -55.489232 
L 724.080448 -55.650427 
L 721.191669 -55.789568 
L 718.302891 -55.906838 
L 715.414112 -56.002617 
L 712.525333 -56.077473 
L 709.636554 -56.132154 
L 706.747775 -56.167577 
L 703.858996 -56.184812 
L 700.970217 -56.18507 
L 698.081438 -56.169681 
L 695.192659 -56.140077 
L 692.30388 -56.09777 
L 689.415102 -56.044327 
L 686.526323 -55.981354 
L 683.637544 -55.910469 
L 680.748765 -55.833277 
L 677.859986 -55.751353 
L 674.971207 -55.666218 
L 672.082428 -55.579319 
L 669.193649 -55.49201 
L 666.30487 -55.405536 
L 663.416092 -55.321017 
L 660.527313 -55.239439 
L 657.638534 -55.16164 
L 654.749755 -55.088302 
L 651.860976 -55.019951 
L 648.972197 -54.956951 
L 646.083418 -54.899506 
L 643.194639 -54.84766 
L 640.30586 -54.801309 
L 637.417081 -54.760203 
L 634.528303 -54.723956 
L 631.639524 -54.692062 
L 628.750745 -54.663907 
L 625.861966 -54.638783 
L 622.973187 -54.615904 
L 620.084408 -54.594424 
L 617.195629 -54.573456 
L 614.30685 -54.552085 
L 611.418071 -54.529393 
L 608.529293 -54.504469 
L 605.640514 -54.476431 
L 602.751735 -54.44444 
L 599.862956 -54.407715 
L 596.974177 -54.365546 
L 594.085398 -54.317308 
L 591.196619 -54.26247 
L 588.30784 -54.200604 
L 585.419061 -54.131393 
L 582.530282 -54.054635 
L 579.641504 -53.970247 
L 576.752725 -53.878267 
L 573.863946 -53.778854 
L 570.975167 -53.672284 
L 568.086388 -53.55895 
L 565.197609 -53.439353 
L 562.30883 -53.314098 
L 559.420051 -53.183887 
L 556.531272 -53.049506 
L 553.642494 -52.911822 
L 550.753715 -52.771765 
L 547.864936 -52.630323 
L 544.976157 -52.488528 
L 542.087378 -52.347442 
L 539.198599 -52.208148 
L 536.30982 -52.071738 
L 533.421041 -51.939299 
L 530.532262 -51.811901 
L 527.643483 -51.69059 
L 524.754705 -51.576371 
L 521.865926 -51.470203 
L 518.977147 -51.372987 
L 516.088368 -51.285557 
L 513.199589 -51.208672 
L 510.31081 -51.14301 
L 507.422031 -51.08916 
L 504.533252 -51.047618 
L 501.644473 -51.018784 
L 498.755695 -51.002952 
L 495.866916 -51.000319 
L 492.978137 -51.010972 
L 490.089358 -51.034897 
L 487.200579 -51.071977 
L 484.3118 -51.121991 
L 481.423021 -51.184625 
L 478.534242 -51.259468 
L 475.645463 -51.346026 
L 472.756684 -51.443723 
L 469.867906 -51.55191 
L 466.979127 -51.66988 
L 464.090348 -51.796868 
L 461.201569 -51.932073 
L 458.31279 -52.074662 
L 455.424011 -52.223787 
L 452.535232 -52.378599 
L 449.646453 -52.53826 
L 446.757674 -52.701959 
L 443.868896 -52.868928 
L 440.980117 -53.038458 
L 438.091338 -53.209912 
L 435.202559 -53.382743 
L 432.31378 -53.556508 
L 429.425001 -53.730883 
L 426.536222 -53.905677 
L 423.647443 -54.080847 
L 420.758664 -54.256509 
L 417.869886 -54.43295 
L 414.981107 -54.610635 
L 412.092328 -54.790223 
L 409.203549 -54.972564 
L 406.31477 -55.158712 
L 403.425991 -55.349926 
L 400.537212 -55.547668 
L 397.648433 -55.753607 
L 394.759654 -55.969611 
L 391.870875 -56.197746 
L 388.982097 -56.440265 
L 386.093318 -56.699598 
L 383.204539 -56.978339 
L 380.31576 -57.279233 
L 377.426981 -57.605155 
L 374.538202 -57.959095 
L 371.649423 -58.344128 
L 368.760644 -58.763397 
L 365.871865 -59.220084 
L 362.983087 -59.717377 
L 360.094308 -60.258448 
L 357.205529 -60.846413 
L 354.31675 -61.484304 
L 351.427971 -62.17503 
L 348.539192 -62.921347 
L 345.650413 -63.725818 
L 342.761634 -64.590776 
L 339.872855 -65.51829 
L 336.984076 -66.510128 
L 334.095298 -67.567724 
L 331.206519 -68.692137 
L 328.31774 -69.884027 
L 325.428961 -71.143618 
L 322.540182 -72.470673 
L 319.651403 -73.864464 
L 316.762624 -75.323755 
L 313.873845 -76.846779 
L 310.985066 -78.431221 
L 308.096288 -80.074212 
L 305.207509 -81.772317 
L 302.31873 -83.521537 
L 299.429951 -85.317307 
L 296.541172 -87.154512 
L 293.652393 -89.027492 
L 290.763614 -90.930068 
L 287.874835 -92.855563 
L 284.986056 -94.796833 
L 282.097277 -96.746303 
L 279.208499 -98.696007 
L 276.31972 -100.637637 
L 273.430941 -102.562589 
L 270.542162 -104.462024 
L 267.653383 -106.32692 
L 264.764604 -108.148144 
L 261.875825 -109.91651 
L 258.987046 -111.622852 
L 256.098267 -113.258092 
L 253.209489 -114.813313 
L 250.32071 -116.27983 
L 247.431931 -117.64926 
L 244.543152 -118.913598 
L 241.654373 -120.065276 
L 238.765594 -121.097239 
L 235.876815 -122.003001 
L 232.988036 -122.776705 
L 230.099257 -123.413177 
L 227.210478 -123.907977 
L 224.3217 -124.257435 
L 221.432921 -124.458692 
L 218.544142 -124.509726 
L 215.655363 -124.409371 
L 212.766584 -124.157336 
L 209.877805 -123.754204 
L 206.989026 -123.201434 
L 204.100247 -122.501346 
L 201.211468 -121.657104 
L 198.32269 -120.672691 
L 195.433911 -119.55287 
L 192.545132 -118.303147 
L 189.656353 -116.92972 
L 186.767574 -115.439426 
L 183.878795 -113.839683 
L 180.990016 -112.138422 
L 178.101237 -110.344019 
L 175.212458 -108.465226 
L 172.323679 -106.511098 
L 169.434901 -104.49091 
L 166.546122 -102.414092 
L 163.657343 -100.290144 
L 160.768564 -98.128565 
L 157.879785 -95.938783 
z
" style="stroke: #ee8468"/>
    </defs>
    <g clip-path="url(#p1a0d30eeef)">
     <use xlink:href="#m22f8843fbe" x="0" y="280.655312" style="fill: #ee8468; fill-opacity: 0.5; stroke: #ee8468"/>
    </g>
   </g>
   <g id="matplotlib.axis_7">
    <g id="xtick_28">
     <g id="line2d_34">
      <g>
       <use xlink:href="#m99455196ee" x="157.879785" y="238.84" style="stroke: #000000; stroke-width: 0.8"/>
      </g>
     </g>
     <g id="text_4">
      <!-- 10 -->
      <g transform="translate(148.496347 254.1725) scale(0.12 -0.12)">
       <defs>
        <path id="TimesNewRomanPSMT-2212" d="M 3484 2000 
L 116 2000 
L 116 2256 
L 3484 2256 
L 3484 2000 
z
" transform="scale(0.015625)"/>
        <path id="TimesNewRomanPSMT-31" d="M 750 3822 
L 1781 4325 
L 1884 4325 
L 1884 747 
Q 1884 391 1914 303 
Q 1944 216 2037 169 
Q 2131 122 2419 116 
L 2419 0 
L 825 0 
L 825 116 
Q 1125 122 1212 167 
Q 1300 213 1334 289 
Q 1369 366 1369 747 
L 1369 3034 
Q 1369 3497 1338 3628 
Q 1316 3728 1258 3775 
Q 1200 3822 1119 3822 
Q 1003 3822 797 3725 
L 750 3822 
z
" transform="scale(0.015625)"/>
        <path id="TimesNewRomanPSMT-30" d="M 231 2094 
Q 231 2819 450 3342 
Q 669 3866 1031 4122 
Q 1313 4325 1613 4325 
Q 2100 4325 2488 3828 
Q 2972 3213 2972 2159 
Q 2972 1422 2759 906 
Q 2547 391 2217 158 
Q 1888 -75 1581 -75 
Q 975 -75 572 641 
Q 231 1244 231 2094 
z
M 844 2016 
Q 844 1141 1059 588 
Q 1238 122 1591 122 
Q 1759 122 1940 273 
Q 2122 425 2216 781 
Q 2359 1319 2359 2297 
Q 2359 3022 2209 3506 
Q 2097 3866 1919 4016 
Q 1791 4119 1609 4119 
Q 1397 4119 1231 3928 
Q 1006 3669 925 3112 
Q 844 2556 844 2016 
z
" transform="scale(0.015625)"/>
       </defs>
       <use xlink:href="#TimesNewRomanPSMT-2212"/>
       <use xlink:href="#TimesNewRomanPSMT-31" transform="translate(56.396484 0)"/>
       <use xlink:href="#TimesNewRomanPSMT-30" transform="translate(106.396484 0)"/>
      </g>
     </g>
    </g>
    <g id="xtick_29">
     <g id="line2d_35">
      <g>
       <use xlink:href="#m99455196ee" x="229.73816" y="238.84" style="stroke: #000000; stroke-width: 0.8"/>
      </g>
     </g>
     <g id="text_5">
      <!-- 5 -->
      <g transform="translate(223.354722 254.1725) scale(0.12 -0.12)">
       <defs>
        <path id="TimesNewRomanPSMT-35" d="M 2778 4238 
L 2534 3706 
L 1259 3706 
L 981 3138 
Q 1809 3016 2294 2522 
Q 2709 2097 2709 1522 
Q 2709 1188 2573 903 
Q 2438 619 2231 419 
Q 2025 219 1772 97 
Q 1413 -75 1034 -75 
Q 653 -75 479 54 
Q 306 184 306 341 
Q 306 428 378 495 
Q 450 563 559 563 
Q 641 563 702 538 
Q 763 513 909 409 
Q 1144 247 1384 247 
Q 1750 247 2026 523 
Q 2303 800 2303 1197 
Q 2303 1581 2056 1914 
Q 1809 2247 1375 2428 
Q 1034 2569 447 2591 
L 1259 4238 
L 2778 4238 
z
" transform="scale(0.015625)"/>
       </defs>
       <use xlink:href="#TimesNewRomanPSMT-2212"/>
       <use xlink:href="#TimesNewRomanPSMT-35" transform="translate(56.396484 0)"/>
      </g>
     </g>
    </g>
    <g id="xtick_30">
     <g id="line2d_36">
      <g>
       <use xlink:href="#m99455196ee" x="301.596535" y="238.84" style="stroke: #000000; stroke-width: 0.8"/>
      </g>
     </g>
     <g id="text_6">
      <!-- 0 -->
      <g transform="translate(298.596535 254.1725) scale(0.12 -0.12)">
       <use xlink:href="#TimesNewRomanPSMT-30"/>
      </g>
     </g>
    </g>
    <g id="xtick_31">
     <g id="line2d_37">
      <g>
       <use xlink:href="#m99455196ee" x="373.45491" y="238.84" style="stroke: #000000; stroke-width: 0.8"/>
      </g>
     </g>
     <g id="text_7">
      <!-- 5 -->
      <g transform="translate(370.45491 254.1725) scale(0.12 -0.12)">
       <use xlink:href="#TimesNewRomanPSMT-35"/>
      </g>
     </g>
    </g>
    <g id="xtick_32">
     <g id="line2d_38">
      <g>
       <use xlink:href="#m99455196ee" x="445.313285" y="238.84" style="stroke: #000000; stroke-width: 0.8"/>
      </g>
     </g>
     <g id="text_8">
      <!-- 10 -->
      <g transform="translate(439.313285 254.1725) scale(0.12 -0.12)">
       <use xlink:href="#TimesNewRomanPSMT-31"/>
       <use xlink:href="#TimesNewRomanPSMT-30" transform="translate(50 0)"/>
      </g>
     </g>
    </g>
    <g id="xtick_33">
     <g id="line2d_39">
      <g>
       <use xlink:href="#m99455196ee" x="517.17166" y="238.84" style="stroke: #000000; stroke-width: 0.8"/>
      </g>
     </g>
     <g id="text_9">
      <!-- 15 -->
      <g transform="translate(511.17166 254.1725) scale(0.12 -0.12)">
       <use xlink:href="#TimesNewRomanPSMT-31"/>
       <use xlink:href="#TimesNewRomanPSMT-35" transform="translate(50 0)"/>
      </g>
     </g>
    </g>
    <g id="xtick_34">
     <g id="line2d_40">
      <g>
       <use xlink:href="#m99455196ee" x="589.030035" y="238.84" style="stroke: #000000; stroke-width: 0.8"/>
      </g>
     </g>
     <g id="text_10">
      <!-- 20 -->
      <g transform="translate(583.030035 254.1725) scale(0.12 -0.12)">
       <defs>
        <path id="TimesNewRomanPSMT-32" d="M 2934 816 
L 2638 0 
L 138 0 
L 138 116 
Q 1241 1122 1691 1759 
Q 2141 2397 2141 2925 
Q 2141 3328 1894 3587 
Q 1647 3847 1303 3847 
Q 991 3847 742 3664 
Q 494 3481 375 3128 
L 259 3128 
Q 338 3706 661 4015 
Q 984 4325 1469 4325 
Q 1984 4325 2329 3994 
Q 2675 3663 2675 3213 
Q 2675 2891 2525 2569 
Q 2294 2063 1775 1497 
Q 997 647 803 472 
L 1909 472 
Q 2247 472 2383 497 
Q 2519 522 2628 598 
Q 2738 675 2819 816 
L 2934 816 
z
" transform="scale(0.015625)"/>
       </defs>
       <use xlink:href="#TimesNewRomanPSMT-32"/>
       <use xlink:href="#TimesNewRomanPSMT-30" transform="translate(50 0)"/>
      </g>
     </g>
    </g>
    <g id="xtick_35">
     <g id="line2d_41">
      <g>
       <use xlink:href="#m99455196ee" x="660.88841" y="238.84" style="stroke: #000000; stroke-width: 0.8"/>
      </g>
     </g>
     <g id="text_11">
      <!-- 25 -->
      <g transform="translate(654.88841 254.1725) scale(0.12 -0.12)">
       <use xlink:href="#TimesNewRomanPSMT-32"/>
       <use xlink:href="#TimesNewRomanPSMT-35" transform="translate(50 0)"/>
      </g>
     </g>
    </g>
    <g id="xtick_36">
     <g id="line2d_42">
      <g>
       <use xlink:href="#m99455196ee" x="732.746785" y="238.84" style="stroke: #000000; stroke-width: 0.8"/>
      </g>
     </g>
     <g id="text_12">
      <!-- 30 -->
      <g transform="translate(726.746785 254.1725) scale(0.12 -0.12)">
       <defs>
        <path id="TimesNewRomanPSMT-33" d="M 325 3431 
Q 506 3859 782 4092 
Q 1059 4325 1472 4325 
Q 1981 4325 2253 3994 
Q 2459 3747 2459 3466 
Q 2459 3003 1878 2509 
Q 2269 2356 2469 2072 
Q 2669 1788 2669 1403 
Q 2669 853 2319 450 
Q 1863 -75 997 -75 
Q 569 -75 414 31 
Q 259 138 259 259 
Q 259 350 332 419 
Q 406 488 509 488 
Q 588 488 669 463 
Q 722 447 909 348 
Q 1097 250 1169 231 
Q 1284 197 1416 197 
Q 1734 197 1970 444 
Q 2206 691 2206 1028 
Q 2206 1275 2097 1509 
Q 2016 1684 1919 1775 
Q 1784 1900 1550 2001 
Q 1316 2103 1072 2103 
L 972 2103 
L 972 2197 
Q 1219 2228 1467 2375 
Q 1716 2522 1828 2728 
Q 1941 2934 1941 3181 
Q 1941 3503 1739 3701 
Q 1538 3900 1238 3900 
Q 753 3900 428 3381 
L 325 3431 
z
" transform="scale(0.015625)"/>
       </defs>
       <use xlink:href="#TimesNewRomanPSMT-33"/>
       <use xlink:href="#TimesNewRomanPSMT-30" transform="translate(50 0)"/>
      </g>
     </g>
    </g>
    <g id="text_13">
     <!-- Value -->
     <g transform="translate(429.377347 270.460625) scale(0.14 -0.14)">
      <use xlink:href="#TimesNewRomanPSMT-56"/>
      <use xlink:href="#TimesNewRomanPSMT-61" transform="translate(61.091797 0)"/>
      <use xlink:href="#TimesNewRomanPSMT-6c" transform="translate(105.476562 0)"/>
      <use xlink:href="#TimesNewRomanPSMT-75" transform="translate(133.259766 0)"/>
      <use xlink:href="#TimesNewRomanPSMT-65" transform="translate(183.259766 0)"/>
     </g>
    </g>
   </g>
   <g id="matplotlib.axis_8"/>
   <g id="line2d_43">
    <path d="M 157.879785 184.71653 
L 166.546122 178.24122 
L 172.323679 174.144215 
L 178.101237 170.311294 
L 183.878795 166.815629 
L 189.656353 163.725593 
L 192.545132 162.352166 
L 195.433911 161.102443 
L 198.32269 159.982621 
L 201.211468 158.998208 
L 204.100247 158.153967 
L 206.989026 157.453878 
L 209.877805 156.901108 
L 212.766584 156.497977 
L 215.655363 156.245942 
L 218.544142 156.145587 
L 221.432921 156.19662 
L 224.3217 156.397877 
L 227.210478 156.747335 
L 230.099257 157.242135 
L 232.988036 157.878608 
L 235.876815 158.652312 
L 238.765594 159.558073 
L 241.654373 160.590036 
L 247.431931 163.006052 
L 253.209489 165.842 
L 258.987046 169.032461 
L 264.764604 172.507168 
L 273.430941 178.092723 
L 299.429951 195.338005 
L 305.207509 198.882995 
L 310.985066 202.224091 
L 316.762624 205.331557 
L 322.540182 208.18464 
L 328.31774 210.771285 
L 334.095298 213.087589 
L 339.872855 215.137023 
L 345.650413 216.929495 
L 351.427971 218.480282 
L 357.205529 219.808899 
L 362.983087 220.937935 
L 368.760644 221.891915 
L 377.426981 223.050157 
L 386.093318 223.955715 
L 397.648433 224.901706 
L 414.981107 226.044677 
L 455.424011 228.431525 
L 469.867906 229.103402 
L 484.3118 229.533321 
L 495.866916 229.654994 
L 507.422031 229.566153 
L 518.977147 229.282326 
L 533.421041 228.716014 
L 579.641504 226.685066 
L 596.974177 226.289766 
L 620.084408 226.060888 
L 643.194639 225.807652 
L 663.416092 225.334295 
L 695.192659 224.515235 
L 706.747775 224.487736 
L 715.414112 224.652695 
L 724.080448 225.004886 
L 732.746785 225.554377 
L 732.746785 225.554377 
" clip-path="url(#p1a0d30eeef)" style="fill: none; stroke: #ffffff; stroke-width: 2; stroke-linecap: square"/>
   </g>
   <g id="line2d_44">
    <path d="M 157.879785 238.84 
L 732.746785 238.84 
" style="fill: none; stroke: #000000; stroke-linecap: square"/>
   </g>
   <g id="text_14">
    <g id="patch_9">
     <path d="M 3.24 248.260937 
L 101.47875 248.260937 
L 101.47875 229.419062 
L 3.24 229.419062 
z
" style="fill: #ffffff; opacity: 0.5"/>
    </g>
    <!-- Angel Investments -->
    <g transform="translate(7.2 241.711562) scale(0.12 -0.12)">
     <defs>
      <path id="TimesNewRomanPSMT-41" d="M 2928 1419 
L 1288 1419 
L 1000 750 
Q 894 503 894 381 
Q 894 284 986 211 
Q 1078 138 1384 116 
L 1384 0 
L 50 0 
L 50 116 
Q 316 163 394 238 
Q 553 388 747 847 
L 2238 4334 
L 2347 4334 
L 3822 809 
Q 4000 384 4145 257 
Q 4291 131 4550 116 
L 4550 0 
L 2878 0 
L 2878 116 
Q 3131 128 3220 200 
Q 3309 272 3309 375 
Q 3309 513 3184 809 
L 2928 1419 
z
M 2841 1650 
L 2122 3363 
L 1384 1650 
L 2841 1650 
z
" transform="scale(0.015625)"/>
      <path id="TimesNewRomanPSMT-67" d="M 966 1044 
Q 703 1172 562 1401 
Q 422 1631 422 1909 
Q 422 2334 742 2640 
Q 1063 2947 1563 2947 
Q 1972 2947 2272 2747 
L 2878 2747 
Q 3013 2747 3034 2739 
Q 3056 2731 3066 2713 
Q 3084 2684 3084 2613 
Q 3084 2531 3069 2500 
Q 3059 2484 3036 2475 
Q 3013 2466 2878 2466 
L 2506 2466 
Q 2681 2241 2681 1891 
Q 2681 1491 2375 1206 
Q 2069 922 1553 922 
Q 1341 922 1119 984 
Q 981 866 932 777 
Q 884 688 884 625 
Q 884 572 936 522 
Q 988 472 1138 450 
Q 1225 438 1575 428 
Q 2219 413 2409 384 
Q 2700 344 2873 169 
Q 3047 -6 3047 -263 
Q 3047 -616 2716 -925 
Q 2228 -1381 1444 -1381 
Q 841 -1381 425 -1109 
Q 191 -953 191 -784 
Q 191 -709 225 -634 
Q 278 -519 444 -313 
Q 466 -284 763 25 
Q 600 122 533 198 
Q 466 275 466 372 
Q 466 481 555 628 
Q 644 775 966 1044 
z
M 1509 2797 
Q 1278 2797 1122 2612 
Q 966 2428 966 2047 
Q 966 1553 1178 1281 
Q 1341 1075 1591 1075 
Q 1828 1075 1981 1253 
Q 2134 1431 2134 1813 
Q 2134 2309 1919 2591 
Q 1759 2797 1509 2797 
z
M 934 0 
Q 788 -159 713 -296 
Q 638 -434 638 -550 
Q 638 -700 819 -813 
Q 1131 -1006 1722 -1006 
Q 2284 -1006 2551 -807 
Q 2819 -609 2819 -384 
Q 2819 -222 2659 -153 
Q 2497 -84 2016 -72 
Q 1313 -53 934 0 
z
" transform="scale(0.015625)"/>
      <path id="TimesNewRomanPSMT-49" d="M 1975 116 
L 1975 0 
L 159 0 
L 159 116 
L 309 116 
Q 572 116 691 269 
Q 766 369 766 750 
L 766 3488 
Q 766 3809 725 3913 
Q 694 3991 597 4047 
Q 459 4122 309 4122 
L 159 4122 
L 159 4238 
L 1975 4238 
L 1975 4122 
L 1822 4122 
Q 1563 4122 1444 3969 
Q 1366 3869 1366 3488 
L 1366 750 
Q 1366 428 1406 325 
Q 1438 247 1538 191 
Q 1672 116 1822 116 
L 1975 116 
z
" transform="scale(0.015625)"/>
      <path id="TimesNewRomanPSMT-76" d="M 53 2863 
L 1400 2863 
L 1400 2747 
L 1313 2747 
Q 1191 2747 1127 2687 
Q 1063 2628 1063 2528 
Q 1063 2419 1128 2269 
L 1794 688 
L 2463 2328 
Q 2534 2503 2534 2594 
Q 2534 2638 2509 2666 
Q 2475 2713 2422 2730 
Q 2369 2747 2206 2747 
L 2206 2863 
L 3141 2863 
L 3141 2747 
Q 2978 2734 2916 2681 
Q 2806 2588 2719 2369 
L 1703 -88 
L 1575 -88 
L 553 2328 
Q 484 2497 421 2570 
Q 359 2644 263 2694 
Q 209 2722 53 2747 
L 53 2863 
z
" transform="scale(0.015625)"/>
      <path id="TimesNewRomanPSMT-6d" d="M 1050 2338 
Q 1363 2650 1419 2697 
Q 1559 2816 1721 2881 
Q 1884 2947 2044 2947 
Q 2313 2947 2506 2790 
Q 2700 2634 2766 2338 
Q 3088 2713 3309 2830 
Q 3531 2947 3766 2947 
Q 3994 2947 4170 2830 
Q 4347 2713 4450 2447 
Q 4519 2266 4519 1878 
L 4519 647 
Q 4519 378 4559 278 
Q 4591 209 4675 161 
Q 4759 113 4950 113 
L 4950 0 
L 3538 0 
L 3538 113 
L 3597 113 
Q 3781 113 3884 184 
Q 3956 234 3988 344 
Q 4000 397 4000 647 
L 4000 1878 
Q 4000 2228 3916 2372 
Q 3794 2572 3525 2572 
Q 3359 2572 3192 2489 
Q 3025 2406 2788 2181 
L 2781 2147 
L 2788 2013 
L 2788 647 
Q 2788 353 2820 281 
Q 2853 209 2943 161 
Q 3034 113 3253 113 
L 3253 0 
L 1806 0 
L 1806 113 
Q 2044 113 2133 169 
Q 2222 225 2256 338 
Q 2272 391 2272 647 
L 2272 1878 
Q 2272 2228 2169 2381 
Q 2031 2581 1784 2581 
Q 1616 2581 1450 2491 
Q 1191 2353 1050 2181 
L 1050 647 
Q 1050 366 1089 281 
Q 1128 197 1204 155 
Q 1281 113 1516 113 
L 1516 0 
L 100 0 
L 100 113 
Q 297 113 375 155 
Q 453 197 493 289 
Q 534 381 534 647 
L 534 1741 
Q 534 2213 506 2350 
Q 484 2453 437 2492 
Q 391 2531 309 2531 
Q 222 2531 100 2484 
L 53 2597 
L 916 2947 
L 1050 2947 
L 1050 2338 
z
" transform="scale(0.015625)"/>
     </defs>
     <use xlink:href="#TimesNewRomanPSMT-41"/>
     <use xlink:href="#TimesNewRomanPSMT-6e" transform="translate(72.216797 0)"/>
     <use xlink:href="#TimesNewRomanPSMT-67" transform="translate(122.216797 0)"/>
     <use xlink:href="#TimesNewRomanPSMT-65" transform="translate(172.216797 0)"/>
     <use xlink:href="#TimesNewRomanPSMT-6c" transform="translate(216.601562 0)"/>
     <use xlink:href="#TimesNewRomanPSMT-20" transform="translate(244.384766 0)"/>
     <use xlink:href="#TimesNewRomanPSMT-49" transform="translate(269.384766 0)"/>
     <use xlink:href="#TimesNewRomanPSMT-6e" transform="translate(302.685547 0)"/>
     <use xlink:href="#TimesNewRomanPSMT-76" transform="translate(352.685547 0)"/>
     <use xlink:href="#TimesNewRomanPSMT-65" transform="translate(402.685547 0)"/>
     <use xlink:href="#TimesNewRomanPSMT-73" transform="translate(447.070312 0)"/>
     <use xlink:href="#TimesNewRomanPSMT-74" transform="translate(485.986328 0)"/>
     <use xlink:href="#TimesNewRomanPSMT-6d" transform="translate(513.769531 0)"/>
     <use xlink:href="#TimesNewRomanPSMT-65" transform="translate(591.552734 0)"/>
     <use xlink:href="#TimesNewRomanPSMT-6e" transform="translate(635.9375 0)"/>
     <use xlink:href="#TimesNewRomanPSMT-74" transform="translate(685.9375 0)"/>
     <use xlink:href="#TimesNewRomanPSMT-73" transform="translate(713.720703 0)"/>
    </g>
   </g>
  </g>
  <g id="text_15">
   <!-- Return on Investment (ROI)(%) -->
   <g transform="translate(281.129285 18.31) scale(0.16 -0.16)">
    <defs>
     <path id="TimesNewRomanPSMT-28" d="M 1988 -1253 
L 1988 -1369 
Q 1516 -1131 1200 -813 
Q 750 -359 506 256 
Q 263 872 263 1534 
Q 263 2503 741 3301 
Q 1219 4100 1988 4444 
L 1988 4313 
Q 1603 4100 1356 3731 
Q 1109 3363 987 2797 
Q 866 2231 866 1616 
Q 866 947 969 400 
Q 1050 -31 1165 -292 
Q 1281 -553 1476 -793 
Q 1672 -1034 1988 -1253 
z
" transform="scale(0.015625)"/>
     <path id="TimesNewRomanPSMT-4f" d="M 2341 4334 
Q 3166 4334 3770 3707 
Q 4375 3081 4375 2144 
Q 4375 1178 3765 540 
Q 3156 -97 2291 -97 
Q 1416 -97 820 525 
Q 225 1147 225 2134 
Q 225 3144 913 3781 
Q 1509 4334 2341 4334 
z
M 2281 4106 
Q 1713 4106 1369 3684 
Q 941 3159 941 2147 
Q 941 1109 1384 550 
Q 1725 125 2284 125 
Q 2881 125 3270 590 
Q 3659 1056 3659 2059 
Q 3659 3147 3231 3681 
Q 2888 4106 2281 4106 
z
" transform="scale(0.015625)"/>
     <path id="TimesNewRomanPSMT-29" d="M 144 4313 
L 144 4444 
Q 619 4209 934 3891 
Q 1381 3434 1625 2820 
Q 1869 2206 1869 1541 
Q 1869 572 1392 -226 
Q 916 -1025 144 -1369 
L 144 -1253 
Q 528 -1038 776 -670 
Q 1025 -303 1145 264 
Q 1266 831 1266 1447 
Q 1266 2113 1163 2663 
Q 1084 3094 967 3353 
Q 850 3613 656 3853 
Q 463 4094 144 4313 
z
" transform="scale(0.015625)"/>
     <path id="TimesNewRomanPSMT-25" d="M 4350 4334 
L 1263 -175 
L 984 -175 
L 4072 4334 
L 4350 4334 
z
M 1138 4334 
Q 1559 4334 1792 3984 
Q 2025 3634 2025 3181 
Q 2025 2638 1762 2341 
Q 1500 2044 1131 2044 
Q 884 2044 678 2180 
Q 472 2316 348 2584 
Q 225 2853 225 3181 
Q 225 3509 350 3786 
Q 475 4063 692 4198 
Q 909 4334 1138 4334 
z
M 1128 4159 
Q 969 4159 845 3971 
Q 722 3784 722 3184 
Q 722 2750 791 2522 
Q 844 2350 956 2256 
Q 1022 2200 1119 2200 
Q 1269 2200 1375 2363 
Q 1531 2603 1531 3166 
Q 1531 3759 1378 4000 
Q 1278 4159 1128 4159 
z
M 4206 2103 
Q 4428 2103 4648 1962 
Q 4869 1822 4989 1553 
Q 5109 1284 5109 963 
Q 5109 409 4843 117 
Q 4578 -175 4216 -175 
Q 3988 -175 3773 -34 
Q 3559 106 3436 367 
Q 3313 628 3313 963 
Q 3313 1291 3436 1562 
Q 3559 1834 3773 1968 
Q 3988 2103 4206 2103 
z
M 4209 1938 
Q 4059 1938 3950 1769 
Q 3809 1550 3809 941 
Q 3809 381 3953 159 
Q 4059 0 4209 0 
Q 4353 0 4466 172 
Q 4616 400 4616 956 
Q 4616 1544 4466 1778 
Q 4363 1938 4209 1938 
z
" transform="scale(0.015625)"/>
    </defs>
    <use xlink:href="#TimesNewRomanPSMT-52"/>
    <use xlink:href="#TimesNewRomanPSMT-65" transform="translate(66.699219 0)"/>
    <use xlink:href="#TimesNewRomanPSMT-74" transform="translate(111.083984 0)"/>
    <use xlink:href="#TimesNewRomanPSMT-75" transform="translate(138.867188 0)"/>
    <use xlink:href="#TimesNewRomanPSMT-72" transform="translate(188.867188 0)"/>
    <use xlink:href="#TimesNewRomanPSMT-6e" transform="translate(222.167969 0)"/>
    <use xlink:href="#TimesNewRomanPSMT-20" transform="translate(272.167969 0)"/>
    <use xlink:href="#TimesNewRomanPSMT-6f" transform="translate(297.167969 0)"/>
    <use xlink:href="#TimesNewRomanPSMT-6e" transform="translate(347.167969 0)"/>
    <use xlink:href="#TimesNewRomanPSMT-20" transform="translate(397.167969 0)"/>
    <use xlink:href="#TimesNewRomanPSMT-49" transform="translate(422.167969 0)"/>
    <use xlink:href="#TimesNewRomanPSMT-6e" transform="translate(455.46875 0)"/>
    <use xlink:href="#TimesNewRomanPSMT-76" transform="translate(505.46875 0)"/>
    <use xlink:href="#TimesNewRomanPSMT-65" transform="translate(555.46875 0)"/>
    <use xlink:href="#TimesNewRomanPSMT-73" transform="translate(599.853516 0)"/>
    <use xlink:href="#TimesNewRomanPSMT-74" transform="translate(638.769531 0)"/>
    <use xlink:href="#TimesNewRomanPSMT-6d" transform="translate(666.552734 0)"/>
    <use xlink:href="#TimesNewRomanPSMT-65" transform="translate(744.335938 0)"/>
    <use xlink:href="#TimesNewRomanPSMT-6e" transform="translate(788.720703 0)"/>
    <use xlink:href="#TimesNewRomanPSMT-74" transform="translate(838.720703 0)"/>
    <use xlink:href="#TimesNewRomanPSMT-20" transform="translate(866.503906 0)"/>
    <use xlink:href="#TimesNewRomanPSMT-28" transform="translate(891.503906 0)"/>
    <use xlink:href="#TimesNewRomanPSMT-52" transform="translate(924.804688 0)"/>
    <use xlink:href="#TimesNewRomanPSMT-4f" transform="translate(991.503906 0)"/>
    <use xlink:href="#TimesNewRomanPSMT-49" transform="translate(1063.720703 0)"/>
    <use xlink:href="#TimesNewRomanPSMT-29" transform="translate(1097.021484 0)"/>
    <use xlink:href="#TimesNewRomanPSMT-28" transform="translate(1130.322266 0)"/>
    <use xlink:href="#TimesNewRomanPSMT-25" transform="translate(1163.623047 0)"/>
    <use xlink:href="#TimesNewRomanPSMT-29" transform="translate(1246.923828 0)"/>
   </g>
  </g>
 </g>
 <defs>
  <clipPath id="pda89479dde">
   <rect x="157.879785" y="17.52" width="574.867" height="88.528"/>
  </clipPath>
  <clipPath id="p56ef6655c4">
   <rect x="157.879785" y="61.784" width="574.867" height="88.528"/>
  </clipPath>
  <clipPath id="p083aa02acd">
   <rect x="157.879785" y="106.048" width="574.867" height="88.528"/>
  </clipPath>
  <clipPath id="p1a0d30eeef">
   <rect x="157.879785" y="150.312" width="574.867" height="88.528"/>
  </clipPath>
 </defs>
</svg>
