<?xml version="1.0" encoding="utf-8" standalone="no"?>
<!DOCTYPE svg PUBLIC "-//W3C//DTD SVG 1.1//EN"
  "http://www.w3.org/Graphics/SVG/1.1/DTD/svg11.dtd">
<svg xmlns:xlink="http://www.w3.org/1999/xlink" width="756.913322pt" height="212.255313pt" viewBox="0 0 756.913322 212.255313" xmlns="http://www.w3.org/2000/svg" version="1.1">
 <metadata>
  <rdf:RDF xmlns:dc="http://purl.org/dc/elements/1.1/" xmlns:cc="http://creativecommons.org/ns#" xmlns:rdf="http://www.w3.org/1999/02/22-rdf-syntax-ns#">
   <cc:Work>
    <dc:type rdf:resource="http://purl.org/dc/dcmitype/StillImage"/>
    <dc:date>2025-05-26T21:27:28.564916</dc:date>
    <dc:format>image/svg+xml</dc:format>
    <dc:creator>
     <cc:Agent>
      <dc:title>Matplotlib v3.10.1, https://matplotlib.org/</dc:title>
     </cc:Agent>
    </dc:creator>
   </cc:Work>
  </rdf:RDF>
 </metadata>
 <defs>
  <style type="text/css">*{stroke-linejoin: round; stroke-linecap: butt}</style>
 </defs>
 <g id="figure_1">
  <g id="patch_1">
   <path d="M 0 212.255313 
L 756.913323 212.255313 
L 756.913323 0 
L 0 0 
z
" style="fill: #ffffff"/>
  </g>
  <g id="axes_1">
   <g id="patch_2">
    <path d="M 166.813822 95.78 
L 731.713322 95.78 
L 731.713322 21.12 
L 166.813822 21.12 
L 166.813822 95.78 
z
" style="fill: none; opacity: 0"/>
   </g>
   <g id="FillBetweenPolyCollection_1">
    <defs>
     <path id="m0733250c1e" d="M 166.813822 -162.182905 
L 166.813822 -116.475313 
L 169.652513 -116.475313 
L 172.491204 -116.475313 
L 175.329895 -116.475313 
L 178.168586 -116.475313 
L 181.007277 -116.475313 
L 183.845968 -116.475313 
L 186.684659 -116.475313 
L 189.52335 -116.475313 
L 192.362041 -116.475313 
L 195.200732 -116.475313 
L 198.039423 -116.475313 
L 200.878114 -116.475313 
L 203.716805 -116.475313 
L 206.555496 -116.475313 
L 209.394187 -116.475313 
L 212.232878 -116.475313 
L 215.071569 -116.475313 
L 217.91026 -116.475313 
L 220.748951 -116.475313 
L 223.587642 -116.475313 
L 226.426333 -116.475313 
L 229.265024 -116.475313 
L 232.103714 -116.475313 
L 234.942405 -116.475313 
L 237.781096 -116.475313 
L 240.619787 -116.475313 
L 243.458478 -116.475313 
L 246.297169 -116.475313 
L 249.13586 -116.475313 
L 251.974551 -116.475313 
L 254.813242 -116.475313 
L 257.651933 -116.475313 
L 260.490624 -116.475313 
L 263.329315 -116.475313 
L 266.168006 -116.475313 
L 269.006697 -116.475313 
L 271.845388 -116.475313 
L 274.684079 -116.475313 
L 277.52277 -116.475313 
L 280.361461 -116.475313 
L 283.200152 -116.475313 
L 286.038843 -116.475313 
L 288.877534 -116.475313 
L 291.716225 -116.475313 
L 294.554915 -116.475313 
L 297.393606 -116.475313 
L 300.232297 -116.475313 
L 303.070988 -116.475313 
L 305.909679 -116.475313 
L 308.74837 -116.475313 
L 311.587061 -116.475313 
L 314.425752 -116.475313 
L 317.264443 -116.475313 
L 320.103134 -116.475313 
L 322.941825 -116.475313 
L 325.780516 -116.475313 
L 328.619207 -116.475313 
L 331.457898 -116.475313 
L 334.296589 -116.475313 
L 337.13528 -116.475313 
L 339.973971 -116.475313 
L 342.812662 -116.475313 
L 345.651353 -116.475313 
L 348.490044 -116.475313 
L 351.328735 -116.475313 
L 354.167426 -116.475313 
L 357.006116 -116.475313 
L 359.844807 -116.475313 
L 362.683498 -116.475313 
L 365.522189 -116.475313 
L 368.36088 -116.475313 
L 371.199571 -116.475313 
L 374.038262 -116.475313 
L 376.876953 -116.475313 
L 379.715644 -116.475313 
L 382.554335 -116.475313 
L 385.393026 -116.475313 
L 388.231717 -116.475313 
L 391.070408 -116.475313 
L 393.909099 -116.475313 
L 396.74779 -116.475313 
L 399.586481 -116.475313 
L 402.425172 -116.475313 
L 405.263863 -116.475313 
L 408.102554 -116.475313 
L 410.941245 -116.475313 
L 413.779936 -116.475313 
L 416.618627 -116.475313 
L 419.457317 -116.475313 
L 422.296008 -116.475313 
L 425.134699 -116.475313 
L 427.97339 -116.475313 
L 430.812081 -116.475313 
L 433.650772 -116.475313 
L 436.489463 -116.475313 
L 439.328154 -116.475313 
L 442.166845 -116.475313 
L 445.005536 -116.475313 
L 447.844227 -116.475313 
L 450.682918 -116.475313 
L 453.521609 -116.475313 
L 456.3603 -116.475313 
L 459.198991 -116.475313 
L 462.037682 -116.475313 
L 464.876373 -116.475313 
L 467.715064 -116.475313 
L 470.553755 -116.475313 
L 473.392446 -116.475313 
L 476.231137 -116.475313 
L 479.069828 -116.475313 
L 481.908518 -116.475313 
L 484.747209 -116.475313 
L 487.5859 -116.475313 
L 490.424591 -116.475313 
L 493.263282 -116.475313 
L 496.101973 -116.475313 
L 498.940664 -116.475313 
L 501.779355 -116.475313 
L 504.618046 -116.475313 
L 507.456737 -116.475313 
L 510.295428 -116.475313 
L 513.134119 -116.475313 
L 515.97281 -116.475313 
L 518.811501 -116.475313 
L 521.650192 -116.475313 
L 524.488883 -116.475313 
L 527.327574 -116.475313 
L 530.166265 -116.475313 
L 533.004956 -116.475313 
L 535.843647 -116.475313 
L 538.682338 -116.475313 
L 541.521029 -116.475313 
L 544.359719 -116.475313 
L 547.19841 -116.475313 
L 550.037101 -116.475313 
L 552.875792 -116.475313 
L 555.714483 -116.475313 
L 558.553174 -116.475313 
L 561.391865 -116.475313 
L 564.230556 -116.475313 
L 567.069247 -116.475313 
L 569.907938 -116.475313 
L 572.746629 -116.475313 
L 575.58532 -116.475313 
L 578.424011 -116.475313 
L 581.262702 -116.475313 
L 584.101393 -116.475313 
L 586.940084 -116.475313 
L 589.778775 -116.475313 
L 592.617466 -116.475313 
L 595.456157 -116.475313 
L 598.294848 -116.475313 
L 601.133539 -116.475313 
L 603.97223 -116.475313 
L 606.81092 -116.475313 
L 609.649611 -116.475313 
L 612.488302 -116.475313 
L 615.326993 -116.475313 
L 618.165684 -116.475313 
L 621.004375 -116.475313 
L 623.843066 -116.475313 
L 626.681757 -116.475313 
L 629.520448 -116.475313 
L 632.359139 -116.475313 
L 635.19783 -116.475313 
L 638.036521 -116.475313 
L 640.875212 -116.475313 
L 643.713903 -116.475313 
L 646.552594 -116.475313 
L 649.391285 -116.475313 
L 652.229976 -116.475313 
L 655.068667 -116.475313 
L 657.907358 -116.475313 
L 660.746049 -116.475313 
L 663.58474 -116.475313 
L 666.423431 -116.475313 
L 669.262121 -116.475313 
L 672.100812 -116.475313 
L 674.939503 -116.475313 
L 677.778194 -116.475313 
L 680.616885 -116.475313 
L 683.455576 -116.475313 
L 686.294267 -116.475313 
L 689.132958 -116.475313 
L 691.971649 -116.475313 
L 694.81034 -116.475313 
L 697.649031 -116.475313 
L 700.487722 -116.475313 
L 703.326413 -116.475313 
L 706.165104 -116.475313 
L 709.003795 -116.475313 
L 711.842486 -116.475313 
L 714.681177 -116.475313 
L 717.519868 -116.475313 
L 720.358559 -116.475313 
L 723.19725 -116.475313 
L 726.035941 -116.475313 
L 728.874632 -116.475313 
L 731.713323 -116.475313 
L 731.713323 -125.417505 
L 731.713323 -125.417505 
L 728.874632 -125.601871 
L 726.035941 -125.77023 
L 723.19725 -125.922004 
L 720.358559 -126.056766 
L 717.519868 -126.174247 
L 714.681177 -126.274335 
L 711.842486 -126.357078 
L 709.003795 -126.422685 
L 706.165104 -126.471522 
L 703.326413 -126.504104 
L 700.487722 -126.521095 
L 697.649031 -126.523293 
L 694.81034 -126.511622 
L 691.971649 -126.487121 
L 689.132958 -126.450929 
L 686.294267 -126.404275 
L 683.455576 -126.348458 
L 680.616885 -126.284836 
L 677.778194 -126.214808 
L 674.939503 -126.139799 
L 672.100812 -126.061242 
L 669.262121 -125.980569 
L 666.423431 -125.899189 
L 663.58474 -125.818475 
L 660.746049 -125.739757 
L 657.907358 -125.6643 
L 655.068667 -125.5933 
L 652.229976 -125.527868 
L 649.391285 -125.469028 
L 646.552594 -125.4177 
L 643.713903 -125.374702 
L 640.875212 -125.340738 
L 638.036521 -125.316398 
L 635.19783 -125.302153 
L 632.359139 -125.298353 
L 629.520448 -125.305228 
L 626.681757 -125.32289 
L 623.843066 -125.351329 
L 621.004375 -125.390421 
L 618.165684 -125.439931 
L 615.326993 -125.499515 
L 612.488302 -125.568727 
L 609.649611 -125.647026 
L 606.81092 -125.733783 
L 603.97223 -125.828285 
L 601.133539 -125.929749 
L 598.294848 -126.037327 
L 595.456157 -126.150115 
L 592.617466 -126.267164 
L 589.778775 -126.387491 
L 586.940084 -126.510085 
L 584.101393 -126.633923 
L 581.262702 -126.757974 
L 578.424011 -126.881214 
L 575.58532 -127.002636 
L 572.746629 -127.121257 
L 569.907938 -127.236129 
L 567.069247 -127.346348 
L 564.230556 -127.451065 
L 561.391865 -127.549491 
L 558.553174 -127.640906 
L 555.714483 -127.724663 
L 552.875792 -127.800198 
L 550.037101 -127.867033 
L 547.19841 -127.924777 
L 544.359719 -127.973133 
L 541.521029 -128.011898 
L 538.682338 -128.040963 
L 535.843647 -128.060313 
L 533.004956 -128.070027 
L 530.166265 -128.070273 
L 527.327574 -128.061305 
L 524.488883 -128.043461 
L 521.650192 -128.017153 
L 518.811501 -127.982866 
L 515.97281 -127.941147 
L 513.134119 -127.892601 
L 510.295428 -127.83788 
L 507.456737 -127.777678 
L 504.618046 -127.71272 
L 501.779355 -127.643757 
L 498.940664 -127.571554 
L 496.101973 -127.496885 
L 493.263282 -127.420527 
L 490.424591 -127.343249 
L 487.5859 -127.265807 
L 484.747209 -127.188942 
L 481.908518 -127.113371 
L 479.069828 -127.039786 
L 476.231137 -126.968849 
L 473.392446 -126.901191 
L 470.553755 -126.837411 
L 467.715064 -126.778075 
L 464.876373 -126.723718 
L 462.037682 -126.674843 
L 459.198991 -126.631925 
L 456.3603 -126.595414 
L 453.521609 -126.565735 
L 450.682918 -126.543296 
L 447.844227 -126.528487 
L 445.005536 -126.521689 
L 442.166845 -126.523276 
L 439.328154 -126.533618 
L 436.489463 -126.553089 
L 433.650772 -126.582068 
L 430.812081 -126.620944 
L 427.97339 -126.670123 
L 425.134699 -126.730028 
L 422.296008 -126.801105 
L 419.457317 -126.883828 
L 416.618627 -126.978701 
L 413.779936 -127.086264 
L 410.941245 -127.207093 
L 408.102554 -127.341809 
L 405.263863 -127.491079 
L 402.425172 -127.655619 
L 399.586481 -127.836203 
L 396.74779 -128.033663 
L 393.909099 -128.248894 
L 391.070408 -128.482859 
L 388.231717 -128.736594 
L 385.393026 -129.011212 
L 382.554335 -129.307903 
L 379.715644 -129.62794 
L 376.876953 -129.97268 
L 374.038262 -130.343566 
L 371.199571 -130.742124 
L 368.36088 -131.169961 
L 365.522189 -131.628763 
L 362.683498 -132.120289 
L 359.844807 -132.646357 
L 357.006116 -133.208839 
L 354.167426 -133.809643 
L 351.328735 -134.450697 
L 348.490044 -135.133926 
L 345.651353 -135.861234 
L 342.812662 -136.634471 
L 339.973971 -137.455406 
L 337.13528 -138.325695 
L 334.296589 -139.246845 
L 331.457898 -140.220176 
L 328.619207 -141.246779 
L 325.780516 -142.327481 
L 322.941825 -143.462801 
L 320.103134 -144.652904 
L 317.264443 -145.897568 
L 314.425752 -147.196138 
L 311.587061 -148.547491 
L 308.74837 -149.950003 
L 305.909679 -151.401516 
L 303.070988 -152.899313 
L 300.232297 -154.440099 
L 297.393606 -156.019986 
L 294.554915 -157.634484 
L 291.716225 -159.278505 
L 288.877534 -160.946368 
L 286.038843 -162.631814 
L 283.200152 -164.328037 
L 280.361461 -166.027711 
L 277.52277 -167.723034 
L 274.684079 -169.405782 
L 271.845388 -171.067364 
L 269.006697 -172.698888 
L 266.168006 -174.291236 
L 263.329315 -175.835141 
L 260.490624 -177.321275 
L 257.651933 -178.74033 
L 254.813242 -180.083119 
L 251.974551 -181.340659 
L 249.13586 -182.504271 
L 246.297169 -183.56567 
L 243.458478 -184.517056 
L 240.619787 -185.351197 
L 237.781096 -186.061518 
L 234.942405 -186.642166 
L 232.103714 -187.088088 
L 229.265024 -187.395085 
L 226.426333 -187.559863 
L 223.587642 -187.580074 
L 220.748951 -187.454349 
L 217.91026 -187.182309 
L 215.071569 -186.76458 
L 212.232878 -186.202782 
L 209.394187 -185.499519 
L 206.555496 -184.658348 
L 203.716805 -183.683741 
L 200.878114 -182.581042 
L 198.039423 -181.356405 
L 195.200732 -180.016728 
L 192.362041 -178.569585 
L 189.52335 -177.023141 
L 186.684659 -175.386072 
L 183.845968 -173.667472 
L 181.007277 -171.876766 
L 178.168586 -170.023614 
L 175.329895 -168.117821 
L 172.491204 -166.169245 
L 169.652513 -164.187707 
L 166.813822 -162.182905 
z
" style="stroke: #1b9e77"/>
    </defs>
    <g clip-path="url(#p61e0196077)">
     <use xlink:href="#m0733250c1e" x="0" y="212.255313" style="fill: #1b9e77; fill-opacity: 0.5; stroke: #1b9e77"/>
    </g>
   </g>
   <g id="matplotlib.axis_1">
    <g id="xtick_1">
     <g id="line2d_1">
      <defs>
       <path id="m172ddb300a" d="M 0 0 
L 0 3.5 
" style="stroke: #000000; stroke-width: 0.8"/>
      </defs>
      <g>
       <use xlink:href="#m172ddb300a" x="166.813822" y="95.78" style="stroke: #000000; stroke-width: 0.8"/>
      </g>
     </g>
    </g>
    <g id="xtick_2">
     <g id="line2d_2">
      <g>
       <use xlink:href="#m172ddb300a" x="279.793722" y="95.78" style="stroke: #000000; stroke-width: 0.8"/>
      </g>
     </g>
    </g>
    <g id="xtick_3">
     <g id="line2d_3">
      <g>
       <use xlink:href="#m172ddb300a" x="392.773622" y="95.78" style="stroke: #000000; stroke-width: 0.8"/>
      </g>
     </g>
    </g>
    <g id="xtick_4">
     <g id="line2d_4">
      <g>
       <use xlink:href="#m172ddb300a" x="505.753522" y="95.78" style="stroke: #000000; stroke-width: 0.8"/>
      </g>
     </g>
    </g>
    <g id="xtick_5">
     <g id="line2d_5">
      <g>
       <use xlink:href="#m172ddb300a" x="618.733422" y="95.78" style="stroke: #000000; stroke-width: 0.8"/>
      </g>
     </g>
    </g>
    <g id="xtick_6">
     <g id="line2d_6">
      <g>
       <use xlink:href="#m172ddb300a" x="731.713323" y="95.78" style="stroke: #000000; stroke-width: 0.8"/>
      </g>
     </g>
    </g>
   </g>
   <g id="matplotlib.axis_2"/>
   <g id="line2d_7">
    <path d="M 166.813822 50.072408 
L 175.329895 44.137491 
L 181.007277 40.378547 
L 186.684659 36.86924 
L 192.362041 33.685728 
L 198.039423 30.898908 
L 200.878114 29.67427 
L 203.716805 28.571571 
L 206.555496 27.596965 
L 209.394187 26.755793 
L 212.232878 26.05253 
L 215.071569 25.490733 
L 217.91026 25.073003 
L 220.748951 24.800964 
L 223.587642 24.675238 
L 226.426333 24.69545 
L 229.265024 24.860228 
L 232.103714 25.167224 
L 234.942405 25.613146 
L 237.781096 26.193795 
L 240.619787 26.904115 
L 243.458478 27.738257 
L 249.13586 29.751042 
L 254.813242 32.172194 
L 260.490624 34.934038 
L 266.168006 37.964077 
L 274.684079 42.84953 
L 297.393606 56.235327 
L 305.909679 60.853797 
L 311.587061 63.707821 
L 317.264443 66.357744 
L 322.941825 68.792512 
L 328.619207 71.008534 
L 334.296589 73.008467 
L 339.973971 74.799907 
L 345.651353 76.394079 
L 351.328735 77.804616 
L 357.006116 79.046473 
L 365.522189 80.626549 
L 374.038262 81.911746 
L 382.554335 82.94741 
L 391.070408 83.772454 
L 402.425172 84.599693 
L 413.779936 85.169049 
L 425.134699 85.525285 
L 439.328154 85.721694 
L 453.521609 85.689577 
L 470.553755 85.417902 
L 530.166265 84.185039 
L 544.359719 84.28218 
L 558.553174 84.614407 
L 575.58532 85.252676 
L 609.649611 86.608286 
L 623.843066 86.903984 
L 638.036521 86.938914 
L 652.229976 86.727444 
L 697.649031 85.732019 
L 709.003795 85.832627 
L 720.358559 86.198546 
L 731.713323 86.837808 
L 731.713323 86.837808 
" clip-path="url(#p61e0196077)" style="fill: none; stroke: #ffffff; stroke-width: 2; stroke-linecap: square"/>
   </g>
   <g id="line2d_8">
    <path d="M 166.813822 95.78 
L 731.713322 95.78 
" style="fill: none; stroke: #000000; stroke-linecap: square"/>
   </g>
   <g id="text_1">
    <g id="patch_3">
     <path d="M 37.066875 105.189687 
L 111.459375 105.189687 
L 111.459375 86.370312 
L 37.066875 86.370312 
z
" style="fill: #ffffff; opacity: 0.5"/>
    </g>
    <!-- Bottled Water -->
    <g transform="translate(41.026875 98.662813) scale(0.12 -0.12)">
     <defs>
      <path id="TimesNewRomanPSMT-42" d="M 2956 2163 
Q 3397 2069 3616 1863 
Q 3919 1575 3919 1159 
Q 3919 844 3719 555 
Q 3519 266 3170 133 
Q 2822 0 2106 0 
L 106 0 
L 106 116 
L 266 116 
Q 531 116 647 284 
Q 719 394 719 750 
L 719 3488 
Q 719 3881 628 3984 
Q 506 4122 266 4122 
L 106 4122 
L 106 4238 
L 1938 4238 
Q 2450 4238 2759 4163 
Q 3228 4050 3475 3764 
Q 3722 3478 3722 3106 
Q 3722 2788 3528 2536 
Q 3334 2284 2956 2163 
z
M 1319 2331 
Q 1434 2309 1582 2298 
Q 1731 2288 1909 2288 
Q 2366 2288 2595 2386 
Q 2825 2484 2947 2687 
Q 3069 2891 3069 3131 
Q 3069 3503 2766 3765 
Q 2463 4028 1881 4028 
Q 1569 4028 1319 3959 
L 1319 2331 
z
M 1319 306 
Q 1681 222 2034 222 
Q 2600 222 2897 476 
Q 3194 731 3194 1106 
Q 3194 1353 3059 1581 
Q 2925 1809 2622 1940 
Q 2319 2072 1872 2072 
Q 1678 2072 1540 2065 
Q 1403 2059 1319 2044 
L 1319 306 
z
" transform="scale(0.015625)"/>
      <path id="TimesNewRomanPSMT-6f" d="M 1600 2947 
Q 2250 2947 2644 2453 
Q 2978 2031 2978 1484 
Q 2978 1100 2793 706 
Q 2609 313 2286 112 
Q 1963 -88 1566 -88 
Q 919 -88 538 428 
Q 216 863 216 1403 
Q 216 1797 411 2186 
Q 606 2575 925 2761 
Q 1244 2947 1600 2947 
z
M 1503 2744 
Q 1338 2744 1170 2645 
Q 1003 2547 900 2300 
Q 797 2053 797 1666 
Q 797 1041 1045 587 
Q 1294 134 1700 134 
Q 2003 134 2200 384 
Q 2397 634 2397 1244 
Q 2397 2006 2069 2444 
Q 1847 2744 1503 2744 
z
" transform="scale(0.015625)"/>
      <path id="TimesNewRomanPSMT-74" d="M 1031 3803 
L 1031 2863 
L 1700 2863 
L 1700 2644 
L 1031 2644 
L 1031 788 
Q 1031 509 1111 412 
Q 1191 316 1316 316 
Q 1419 316 1516 380 
Q 1613 444 1666 569 
L 1788 569 
Q 1678 263 1478 108 
Q 1278 -47 1066 -47 
Q 922 -47 784 33 
Q 647 113 581 261 
Q 516 409 516 719 
L 516 2644 
L 63 2644 
L 63 2747 
Q 234 2816 414 2980 
Q 594 3144 734 3369 
Q 806 3488 934 3803 
L 1031 3803 
z
" transform="scale(0.015625)"/>
      <path id="TimesNewRomanPSMT-6c" d="M 1184 4444 
L 1184 647 
Q 1184 378 1223 290 
Q 1263 203 1344 158 
Q 1425 113 1647 113 
L 1647 0 
L 244 0 
L 244 113 
Q 441 113 512 153 
Q 584 194 625 287 
Q 666 381 666 647 
L 666 3247 
Q 666 3731 644 3842 
Q 622 3953 573 3993 
Q 525 4034 450 4034 
Q 369 4034 244 3984 
L 191 4094 
L 1044 4444 
L 1184 4444 
z
" transform="scale(0.015625)"/>
      <path id="TimesNewRomanPSMT-65" d="M 681 1784 
Q 678 1147 991 784 
Q 1303 422 1725 422 
Q 2006 422 2214 576 
Q 2422 731 2563 1106 
L 2659 1044 
Q 2594 616 2278 264 
Q 1963 -88 1488 -88 
Q 972 -88 605 314 
Q 238 716 238 1394 
Q 238 2128 614 2539 
Q 991 2950 1559 2950 
Q 2041 2950 2350 2633 
Q 2659 2316 2659 1784 
L 681 1784 
z
M 681 1966 
L 2006 1966 
Q 1991 2241 1941 2353 
Q 1863 2528 1708 2628 
Q 1553 2728 1384 2728 
Q 1125 2728 920 2526 
Q 716 2325 681 1966 
z
" transform="scale(0.015625)"/>
      <path id="TimesNewRomanPSMT-64" d="M 2222 322 
Q 2013 103 1813 7 
Q 1613 -88 1381 -88 
Q 913 -88 563 304 
Q 213 697 213 1313 
Q 213 1928 600 2439 
Q 988 2950 1597 2950 
Q 1975 2950 2222 2709 
L 2222 3238 
Q 2222 3728 2198 3840 
Q 2175 3953 2125 3993 
Q 2075 4034 2000 4034 
Q 1919 4034 1784 3984 
L 1744 4094 
L 2597 4444 
L 2738 4444 
L 2738 1134 
Q 2738 631 2761 520 
Q 2784 409 2836 365 
Q 2888 322 2956 322 
Q 3041 322 3181 375 
L 3216 266 
L 2366 -88 
L 2222 -88 
L 2222 322 
z
M 2222 541 
L 2222 2016 
Q 2203 2228 2109 2403 
Q 2016 2578 1861 2667 
Q 1706 2756 1559 2756 
Q 1284 2756 1069 2509 
Q 784 2184 784 1559 
Q 784 928 1059 592 
Q 1334 256 1672 256 
Q 1956 256 2222 541 
z
" transform="scale(0.015625)"/>
      <path id="TimesNewRomanPSMT-20" transform="scale(0.015625)"/>
      <path id="TimesNewRomanPSMT-57" d="M 5991 4238 
L 5991 4122 
Q 5825 4122 5722 4062 
Q 5619 4003 5525 3841 
Q 5463 3731 5328 3319 
L 4147 -97 
L 4022 -97 
L 3056 2613 
L 2097 -97 
L 1984 -97 
L 725 3422 
Q 584 3816 547 3888 
Q 484 4006 376 4064 
Q 269 4122 84 4122 
L 84 4238 
L 1653 4238 
L 1653 4122 
L 1578 4122 
Q 1413 4122 1325 4047 
Q 1238 3972 1238 3866 
Q 1238 3756 1375 3363 
L 2209 984 
L 2913 3006 
L 2788 3363 
L 2688 3647 
Q 2622 3803 2541 3922 
Q 2500 3981 2441 4022 
Q 2363 4078 2284 4103 
Q 2225 4122 2097 4122 
L 2097 4238 
L 3747 4238 
L 3747 4122 
L 3634 4122 
Q 3459 4122 3378 4047 
Q 3297 3972 3297 3844 
Q 3297 3684 3438 3288 
L 4250 984 
L 5056 3319 
Q 5194 3706 5194 3856 
Q 5194 3928 5148 3990 
Q 5103 4053 5034 4078 
Q 4916 4122 4725 4122 
L 4725 4238 
L 5991 4238 
z
" transform="scale(0.015625)"/>
      <path id="TimesNewRomanPSMT-61" d="M 1822 413 
Q 1381 72 1269 19 
Q 1100 -59 909 -59 
Q 613 -59 420 144 
Q 228 347 228 678 
Q 228 888 322 1041 
Q 450 1253 767 1440 
Q 1084 1628 1822 1897 
L 1822 2009 
Q 1822 2438 1686 2597 
Q 1550 2756 1291 2756 
Q 1094 2756 978 2650 
Q 859 2544 859 2406 
L 866 2225 
Q 866 2081 792 2003 
Q 719 1925 600 1925 
Q 484 1925 411 2006 
Q 338 2088 338 2228 
Q 338 2497 613 2722 
Q 888 2947 1384 2947 
Q 1766 2947 2009 2819 
Q 2194 2722 2281 2516 
Q 2338 2381 2338 1966 
L 2338 994 
Q 2338 584 2353 492 
Q 2369 400 2405 369 
Q 2441 338 2488 338 
Q 2538 338 2575 359 
Q 2641 400 2828 588 
L 2828 413 
Q 2478 -56 2159 -56 
Q 2006 -56 1915 50 
Q 1825 156 1822 413 
z
M 1822 616 
L 1822 1706 
Q 1350 1519 1213 1441 
Q 966 1303 859 1153 
Q 753 1003 753 825 
Q 753 600 887 451 
Q 1022 303 1197 303 
Q 1434 303 1822 616 
z
" transform="scale(0.015625)"/>
      <path id="TimesNewRomanPSMT-72" d="M 1038 2947 
L 1038 2303 
Q 1397 2947 1775 2947 
Q 1947 2947 2059 2842 
Q 2172 2738 2172 2600 
Q 2172 2478 2090 2393 
Q 2009 2309 1897 2309 
Q 1788 2309 1652 2417 
Q 1516 2525 1450 2525 
Q 1394 2525 1328 2463 
Q 1188 2334 1038 2041 
L 1038 669 
Q 1038 431 1097 309 
Q 1138 225 1241 169 
Q 1344 113 1538 113 
L 1538 0 
L 72 0 
L 72 113 
Q 291 113 397 181 
Q 475 231 506 341 
Q 522 394 522 644 
L 522 1753 
Q 522 2253 501 2348 
Q 481 2444 426 2487 
Q 372 2531 291 2531 
Q 194 2531 72 2484 
L 41 2597 
L 906 2947 
L 1038 2947 
z
" transform="scale(0.015625)"/>
     </defs>
     <use xlink:href="#TimesNewRomanPSMT-42"/>
     <use xlink:href="#TimesNewRomanPSMT-6f" transform="translate(66.699219 0)"/>
     <use xlink:href="#TimesNewRomanPSMT-74" transform="translate(116.699219 0)"/>
     <use xlink:href="#TimesNewRomanPSMT-74" transform="translate(144.482422 0)"/>
     <use xlink:href="#TimesNewRomanPSMT-6c" transform="translate(172.265625 0)"/>
     <use xlink:href="#TimesNewRomanPSMT-65" transform="translate(200.048828 0)"/>
     <use xlink:href="#TimesNewRomanPSMT-64" transform="translate(244.433594 0)"/>
     <use xlink:href="#TimesNewRomanPSMT-20" transform="translate(294.433594 0)"/>
     <use xlink:href="#TimesNewRomanPSMT-57" transform="translate(317.683594 0)"/>
     <use xlink:href="#TimesNewRomanPSMT-61" transform="translate(404.068359 0)"/>
     <use xlink:href="#TimesNewRomanPSMT-74" transform="translate(448.453125 0)"/>
     <use xlink:href="#TimesNewRomanPSMT-65" transform="translate(476.236328 0)"/>
     <use xlink:href="#TimesNewRomanPSMT-72" transform="translate(520.621094 0)"/>
    </g>
   </g>
  </g>
  <g id="axes_2">
   <g id="patch_4">
    <path d="M 166.813822 133.11 
L 731.713322 133.11 
L 731.713322 58.45 
L 166.813822 58.45 
L 166.813822 133.11 
z
" style="fill: none; opacity: 0"/>
   </g>
   <g id="FillBetweenPolyCollection_2">
    <defs>
     <path id="me0f222741c" d="M 166.813822 -96.812901 
L 166.813822 -79.145313 
L 169.652513 -79.145313 
L 172.491204 -79.145313 
L 175.329895 -79.145313 
L 178.168586 -79.145313 
L 181.007277 -79.145313 
L 183.845968 -79.145313 
L 186.684659 -79.145313 
L 189.52335 -79.145313 
L 192.362041 -79.145313 
L 195.200732 -79.145313 
L 198.039423 -79.145313 
L 200.878114 -79.145313 
L 203.716805 -79.145313 
L 206.555496 -79.145313 
L 209.394187 -79.145313 
L 212.232878 -79.145313 
L 215.071569 -79.145313 
L 217.91026 -79.145313 
L 220.748951 -79.145313 
L 223.587642 -79.145313 
L 226.426333 -79.145313 
L 229.265024 -79.145313 
L 232.103714 -79.145313 
L 234.942405 -79.145313 
L 237.781096 -79.145313 
L 240.619787 -79.145313 
L 243.458478 -79.145313 
L 246.297169 -79.145313 
L 249.13586 -79.145313 
L 251.974551 -79.145313 
L 254.813242 -79.145313 
L 257.651933 -79.145313 
L 260.490624 -79.145313 
L 263.329315 -79.145313 
L 266.168006 -79.145313 
L 269.006697 -79.145313 
L 271.845388 -79.145313 
L 274.684079 -79.145313 
L 277.52277 -79.145313 
L 280.361461 -79.145313 
L 283.200152 -79.145313 
L 286.038843 -79.145313 
L 288.877534 -79.145313 
L 291.716225 -79.145313 
L 294.554915 -79.145313 
L 297.393606 -79.145313 
L 300.232297 -79.145313 
L 303.070988 -79.145313 
L 305.909679 -79.145313 
L 308.74837 -79.145313 
L 311.587061 -79.145313 
L 314.425752 -79.145313 
L 317.264443 -79.145313 
L 320.103134 -79.145313 
L 322.941825 -79.145313 
L 325.780516 -79.145313 
L 328.619207 -79.145313 
L 331.457898 -79.145313 
L 334.296589 -79.145313 
L 337.13528 -79.145313 
L 339.973971 -79.145313 
L 342.812662 -79.145313 
L 345.651353 -79.145313 
L 348.490044 -79.145313 
L 351.328735 -79.145313 
L 354.167426 -79.145313 
L 357.006116 -79.145313 
L 359.844807 -79.145313 
L 362.683498 -79.145313 
L 365.522189 -79.145313 
L 368.36088 -79.145313 
L 371.199571 -79.145313 
L 374.038262 -79.145313 
L 376.876953 -79.145313 
L 379.715644 -79.145313 
L 382.554335 -79.145313 
L 385.393026 -79.145313 
L 388.231717 -79.145313 
L 391.070408 -79.145313 
L 393.909099 -79.145313 
L 396.74779 -79.145313 
L 399.586481 -79.145313 
L 402.425172 -79.145313 
L 405.263863 -79.145313 
L 408.102554 -79.145313 
L 410.941245 -79.145313 
L 413.779936 -79.145313 
L 416.618627 -79.145313 
L 419.457317 -79.145313 
L 422.296008 -79.145313 
L 425.134699 -79.145313 
L 427.97339 -79.145313 
L 430.812081 -79.145313 
L 433.650772 -79.145313 
L 436.489463 -79.145313 
L 439.328154 -79.145313 
L 442.166845 -79.145313 
L 445.005536 -79.145313 
L 447.844227 -79.145313 
L 450.682918 -79.145313 
L 453.521609 -79.145313 
L 456.3603 -79.145313 
L 459.198991 -79.145313 
L 462.037682 -79.145313 
L 464.876373 -79.145313 
L 467.715064 -79.145313 
L 470.553755 -79.145313 
L 473.392446 -79.145313 
L 476.231137 -79.145313 
L 479.069828 -79.145313 
L 481.908518 -79.145313 
L 484.747209 -79.145313 
L 487.5859 -79.145313 
L 490.424591 -79.145313 
L 493.263282 -79.145313 
L 496.101973 -79.145313 
L 498.940664 -79.145313 
L 501.779355 -79.145313 
L 504.618046 -79.145313 
L 507.456737 -79.145313 
L 510.295428 -79.145313 
L 513.134119 -79.145313 
L 515.97281 -79.145313 
L 518.811501 -79.145313 
L 521.650192 -79.145313 
L 524.488883 -79.145313 
L 527.327574 -79.145313 
L 530.166265 -79.145313 
L 533.004956 -79.145313 
L 535.843647 -79.145313 
L 538.682338 -79.145313 
L 541.521029 -79.145313 
L 544.359719 -79.145313 
L 547.19841 -79.145313 
L 550.037101 -79.145313 
L 552.875792 -79.145313 
L 555.714483 -79.145313 
L 558.553174 -79.145313 
L 561.391865 -79.145313 
L 564.230556 -79.145313 
L 567.069247 -79.145313 
L 569.907938 -79.145313 
L 572.746629 -79.145313 
L 575.58532 -79.145313 
L 578.424011 -79.145313 
L 581.262702 -79.145313 
L 584.101393 -79.145313 
L 586.940084 -79.145313 
L 589.778775 -79.145313 
L 592.617466 -79.145313 
L 595.456157 -79.145313 
L 598.294848 -79.145313 
L 601.133539 -79.145313 
L 603.97223 -79.145313 
L 606.81092 -79.145313 
L 609.649611 -79.145313 
L 612.488302 -79.145313 
L 615.326993 -79.145313 
L 618.165684 -79.145313 
L 621.004375 -79.145313 
L 623.843066 -79.145313 
L 626.681757 -79.145313 
L 629.520448 -79.145313 
L 632.359139 -79.145313 
L 635.19783 -79.145313 
L 638.036521 -79.145313 
L 640.875212 -79.145313 
L 643.713903 -79.145313 
L 646.552594 -79.145313 
L 649.391285 -79.145313 
L 652.229976 -79.145313 
L 655.068667 -79.145313 
L 657.907358 -79.145313 
L 660.746049 -79.145313 
L 663.58474 -79.145313 
L 666.423431 -79.145313 
L 669.262121 -79.145313 
L 672.100812 -79.145313 
L 674.939503 -79.145313 
L 677.778194 -79.145313 
L 680.616885 -79.145313 
L 683.455576 -79.145313 
L 686.294267 -79.145313 
L 689.132958 -79.145313 
L 691.971649 -79.145313 
L 694.81034 -79.145313 
L 697.649031 -79.145313 
L 700.487722 -79.145313 
L 703.326413 -79.145313 
L 706.165104 -79.145313 
L 709.003795 -79.145313 
L 711.842486 -79.145313 
L 714.681177 -79.145313 
L 717.519868 -79.145313 
L 720.358559 -79.145313 
L 723.19725 -79.145313 
L 726.035941 -79.145313 
L 728.874632 -79.145313 
L 731.713323 -79.145313 
L 731.713323 -100.075937 
L 731.713323 -100.075937 
L 728.874632 -100.717064 
L 726.035941 -101.342394 
L 723.19725 -101.950077 
L 720.358559 -102.538372 
L 717.519868 -103.105662 
L 714.681177 -103.650464 
L 711.842486 -104.171442 
L 709.003795 -104.667416 
L 706.165104 -105.137366 
L 703.326413 -105.580444 
L 700.487722 -105.995971 
L 697.649031 -106.383441 
L 694.81034 -106.742523 
L 691.971649 -107.073054 
L 689.132958 -107.37504 
L 686.294267 -107.648646 
L 683.455576 -107.894189 
L 680.616885 -108.112134 
L 677.778194 -108.303077 
L 674.939503 -108.467736 
L 672.100812 -108.606942 
L 669.262121 -108.721618 
L 666.423431 -108.812776 
L 663.58474 -108.881492 
L 660.746049 -108.928899 
L 657.907358 -108.956172 
L 655.068667 -108.964511 
L 652.229976 -108.955129 
L 649.391285 -108.929241 
L 646.552594 -108.888051 
L 643.713903 -108.832738 
L 640.875212 -108.76445 
L 638.036521 -108.684292 
L 635.19783 -108.593322 
L 632.359139 -108.492539 
L 629.520448 -108.382881 
L 626.681757 -108.265223 
L 623.843066 -108.140367 
L 621.004375 -108.00905 
L 618.165684 -107.871937 
L 615.326993 -107.729624 
L 612.488302 -107.582639 
L 609.649611 -107.431448 
L 606.81092 -107.276456 
L 603.97223 -107.11801 
L 601.133539 -106.956409 
L 598.294848 -106.791908 
L 595.456157 -106.62472 
L 592.617466 -106.455031 
L 589.778775 -106.282996 
L 586.940084 -106.108758 
L 584.101393 -105.932441 
L 581.262702 -105.75417 
L 578.424011 -105.574065 
L 575.58532 -105.392256 
L 572.746629 -105.208882 
L 569.907938 -105.0241 
L 567.069247 -104.838085 
L 564.230556 -104.651036 
L 561.391865 -104.463178 
L 558.553174 -104.274762 
L 555.714483 -104.086069 
L 552.875792 -103.897406 
L 550.037101 -103.70911 
L 547.19841 -103.521543 
L 544.359719 -103.33509 
L 541.521029 -103.150159 
L 538.682338 -102.967175 
L 535.843647 -102.786574 
L 533.004956 -102.608804 
L 530.166265 -102.434314 
L 527.327574 -102.263556 
L 524.488883 -102.096969 
L 521.650192 -101.934984 
L 518.811501 -101.778012 
L 515.97281 -101.626441 
L 513.134119 -101.480628 
L 510.295428 -101.340897 
L 507.456737 -101.207535 
L 504.618046 -101.080782 
L 501.779355 -100.960835 
L 498.940664 -100.847838 
L 496.101973 -100.741886 
L 493.263282 -100.643018 
L 490.424591 -100.55122 
L 487.5859 -100.466422 
L 484.747209 -100.388502 
L 481.908518 -100.317285 
L 479.069828 -100.252545 
L 476.231137 -100.194014 
L 473.392446 -100.141377 
L 470.553755 -100.094284 
L 467.715064 -100.052352 
L 464.876373 -100.015171 
L 462.037682 -99.982313 
L 459.198991 -99.953335 
L 456.3603 -99.927789 
L 453.521609 -99.905226 
L 450.682918 -99.885209 
L 447.844227 -99.867314 
L 445.005536 -99.851142 
L 442.166845 -99.836321 
L 439.328154 -99.822518 
L 436.489463 -99.809441 
L 433.650772 -99.796847 
L 430.812081 -99.784546 
L 427.97339 -99.772403 
L 425.134699 -99.760343 
L 422.296008 -99.748357 
L 419.457317 -99.736496 
L 416.618627 -99.724877 
L 413.779936 -99.713682 
L 410.941245 -99.703155 
L 408.102554 -99.693599 
L 405.263863 -99.685377 
L 402.425172 -99.678904 
L 399.586481 -99.674642 
L 396.74779 -99.673097 
L 393.909099 -99.674812 
L 391.070408 -99.680358 
L 388.231717 -99.690331 
L 385.393026 -99.705338 
L 382.554335 -99.725995 
L 379.715644 -99.752917 
L 376.876953 -99.78671 
L 374.038262 -99.827961 
L 371.199571 -99.877233 
L 368.36088 -99.935057 
L 365.522189 -100.001924 
L 362.683498 -100.07828 
L 359.844807 -100.164515 
L 357.006116 -100.260964 
L 354.167426 -100.367898 
L 351.328735 -100.48552 
L 348.490044 -100.613964 
L 345.651353 -100.753287 
L 342.812662 -100.90347 
L 339.973971 -101.064417 
L 337.13528 -101.23595 
L 334.296589 -101.417813 
L 331.457898 -101.609668 
L 328.619207 -101.811097 
L 325.780516 -102.021603 
L 322.941825 -102.24061 
L 320.103134 -102.467466 
L 317.264443 -102.701443 
L 314.425752 -102.941741 
L 311.587061 -103.187487 
L 308.74837 -103.437741 
L 305.909679 -103.691497 
L 303.070988 -103.947685 
L 300.232297 -104.205175 
L 297.393606 -104.462778 
L 294.554915 -104.719255 
L 291.716225 -104.973313 
L 288.877534 -105.223616 
L 286.038843 -105.468784 
L 283.200152 -105.707401 
L 280.361461 -105.93802 
L 277.52277 -106.159166 
L 274.684079 -106.369346 
L 271.845388 -106.567053 
L 269.006697 -106.750777 
L 266.168006 -106.919005 
L 263.329315 -107.070242 
L 260.490624 -107.203006 
L 257.651933 -107.315851 
L 254.813242 -107.407367 
L 251.974551 -107.476194 
L 249.13586 -107.521036 
L 246.297169 -107.540667 
L 243.458478 -107.533943 
L 240.619787 -107.499816 
L 237.781096 -107.437342 
L 234.942405 -107.34569 
L 232.103714 -107.224156 
L 229.265024 -107.072169 
L 226.426333 -106.889299 
L 223.587642 -106.675268 
L 220.748951 -106.429952 
L 217.91026 -106.153386 
L 215.071569 -105.84577 
L 212.232878 -105.507473 
L 209.394187 -105.139026 
L 206.555496 -104.741129 
L 203.716805 -104.314643 
L 200.878114 -103.860588 
L 198.039423 -103.380138 
L 195.200732 -102.874611 
L 192.362041 -102.345463 
L 189.52335 -101.794276 
L 186.684659 -101.222746 
L 183.845968 -100.632673 
L 181.007277 -100.025944 
L 178.168586 -99.404522 
L 175.329895 -98.770427 
L 172.491204 -98.125728 
L 169.652513 -97.472516 
L 166.813822 -96.812901 
z
" style="stroke: #d95f02"/>
    </defs>
    <g clip-path="url(#pb918d6a39d)">
     <use xlink:href="#me0f222741c" x="0" y="212.255313" style="fill: #d95f02; fill-opacity: 0.5; stroke: #d95f02"/>
    </g>
   </g>
   <g id="matplotlib.axis_3">
    <g id="xtick_7">
     <g id="line2d_9">
      <g>
       <use xlink:href="#m172ddb300a" x="166.813822" y="133.11" style="stroke: #000000; stroke-width: 0.8"/>
      </g>
     </g>
    </g>
    <g id="xtick_8">
     <g id="line2d_10">
      <g>
       <use xlink:href="#m172ddb300a" x="279.793722" y="133.11" style="stroke: #000000; stroke-width: 0.8"/>
      </g>
     </g>
    </g>
    <g id="xtick_9">
     <g id="line2d_11">
      <g>
       <use xlink:href="#m172ddb300a" x="392.773622" y="133.11" style="stroke: #000000; stroke-width: 0.8"/>
      </g>
     </g>
    </g>
    <g id="xtick_10">
     <g id="line2d_12">
      <g>
       <use xlink:href="#m172ddb300a" x="505.753522" y="133.11" style="stroke: #000000; stroke-width: 0.8"/>
      </g>
     </g>
    </g>
    <g id="xtick_11">
     <g id="line2d_13">
      <g>
       <use xlink:href="#m172ddb300a" x="618.733422" y="133.11" style="stroke: #000000; stroke-width: 0.8"/>
      </g>
     </g>
    </g>
    <g id="xtick_12">
     <g id="line2d_14">
      <g>
       <use xlink:href="#m172ddb300a" x="731.713323" y="133.11" style="stroke: #000000; stroke-width: 0.8"/>
      </g>
     </g>
    </g>
   </g>
   <g id="matplotlib.axis_4"/>
   <g id="line2d_15">
    <path d="M 166.813822 115.442412 
L 181.007277 112.229368 
L 192.362041 109.909849 
L 200.878114 108.394725 
L 209.394187 107.116286 
L 217.91026 106.101927 
L 226.426333 105.366013 
L 234.942405 104.909623 
L 243.458478 104.721369 
L 251.974551 104.779118 
L 260.490624 105.052306 
L 271.845388 105.688259 
L 286.038843 106.786528 
L 331.457898 110.645644 
L 345.651353 111.502025 
L 359.844807 112.090798 
L 374.038262 112.427352 
L 391.070408 112.574954 
L 416.618627 112.530435 
L 464.876373 112.240141 
L 481.908518 111.938028 
L 498.940664 111.407474 
L 515.97281 110.628872 
L 535.843647 109.468739 
L 612.488302 104.672673 
L 629.520448 103.872431 
L 643.713903 103.422575 
L 655.068667 103.290802 
L 663.58474 103.373821 
L 672.100812 103.648371 
L 680.616885 104.143178 
L 689.132958 104.880272 
L 697.649031 105.871871 
L 706.165104 107.117946 
L 714.681177 108.604848 
L 723.19725 110.305235 
L 731.713323 112.179375 
L 731.713323 112.179375 
" clip-path="url(#pb918d6a39d)" style="fill: none; stroke: #ffffff; stroke-width: 2; stroke-linecap: square"/>
   </g>
   <g id="line2d_16">
    <path d="M 166.813822 133.11 
L 731.713322 133.11 
" style="fill: none; stroke: #000000; stroke-linecap: square"/>
   </g>
   <g id="text_2">
    <g id="patch_5">
     <path d="M 74.210625 142.519688 
L 111.459375 142.519688 
L 111.459375 123.700312 
L 74.210625 123.700312 
z
" style="fill: #ffffff; opacity: 0.5"/>
    </g>
    <!-- Juices -->
    <g transform="translate(78.170625 135.992813) scale(0.12 -0.12)">
     <defs>
      <path id="TimesNewRomanPSMT-4a" d="M 638 4122 
L 638 4238 
L 2453 4238 
L 2453 4122 
L 2300 4122 
Q 2041 4122 1922 3969 
Q 1847 3869 1847 3488 
L 1847 1416 
Q 1847 938 1742 641 
Q 1638 344 1381 123 
Q 1125 -97 763 -97 
Q 469 -97 300 48 
Q 131 194 131 381 
Q 131 534 209 613 
Q 313 709 450 709 
Q 550 709 629 643 
Q 709 578 831 294 
Q 903 125 1016 125 
Q 1100 125 1173 228 
Q 1247 331 1247 594 
L 1247 3488 
Q 1247 3809 1206 3913 
Q 1175 3991 1075 4047 
Q 941 4122 791 4122 
L 638 4122 
z
" transform="scale(0.015625)"/>
      <path id="TimesNewRomanPSMT-75" d="M 2709 2863 
L 2709 1128 
Q 2709 631 2732 520 
Q 2756 409 2807 365 
Q 2859 322 2928 322 
Q 3025 322 3147 375 
L 3191 266 
L 2334 -88 
L 2194 -88 
L 2194 519 
Q 1825 119 1631 15 
Q 1438 -88 1222 -88 
Q 981 -88 804 51 
Q 628 191 559 409 
Q 491 628 491 1028 
L 491 2306 
Q 491 2509 447 2587 
Q 403 2666 317 2708 
Q 231 2750 6 2747 
L 6 2863 
L 1009 2863 
L 1009 947 
Q 1009 547 1148 422 
Q 1288 297 1484 297 
Q 1619 297 1789 381 
Q 1959 466 2194 703 
L 2194 2325 
Q 2194 2569 2105 2655 
Q 2016 2741 1734 2747 
L 1734 2863 
L 2709 2863 
z
" transform="scale(0.015625)"/>
      <path id="TimesNewRomanPSMT-69" d="M 928 4444 
Q 1059 4444 1151 4351 
Q 1244 4259 1244 4128 
Q 1244 3997 1151 3903 
Q 1059 3809 928 3809 
Q 797 3809 703 3903 
Q 609 3997 609 4128 
Q 609 4259 701 4351 
Q 794 4444 928 4444 
z
M 1188 2947 
L 1188 647 
Q 1188 378 1227 289 
Q 1266 200 1342 156 
Q 1419 113 1622 113 
L 1622 0 
L 231 0 
L 231 113 
Q 441 113 512 153 
Q 584 194 626 287 
Q 669 381 669 647 
L 669 1750 
Q 669 2216 641 2353 
Q 619 2453 572 2492 
Q 525 2531 444 2531 
Q 356 2531 231 2484 
L 188 2597 
L 1050 2947 
L 1188 2947 
z
" transform="scale(0.015625)"/>
      <path id="TimesNewRomanPSMT-63" d="M 2631 1088 
Q 2516 522 2178 217 
Q 1841 -88 1431 -88 
Q 944 -88 581 321 
Q 219 731 219 1428 
Q 219 2103 620 2525 
Q 1022 2947 1584 2947 
Q 2006 2947 2278 2723 
Q 2550 2500 2550 2259 
Q 2550 2141 2473 2067 
Q 2397 1994 2259 1994 
Q 2075 1994 1981 2113 
Q 1928 2178 1911 2362 
Q 1894 2547 1784 2644 
Q 1675 2738 1481 2738 
Q 1169 2738 978 2506 
Q 725 2200 725 1697 
Q 725 1184 976 792 
Q 1228 400 1656 400 
Q 1963 400 2206 609 
Q 2378 753 2541 1131 
L 2631 1088 
z
" transform="scale(0.015625)"/>
      <path id="TimesNewRomanPSMT-73" d="M 2050 2947 
L 2050 1972 
L 1947 1972 
Q 1828 2431 1642 2597 
Q 1456 2763 1169 2763 
Q 950 2763 815 2647 
Q 681 2531 681 2391 
Q 681 2216 781 2091 
Q 878 1963 1175 1819 
L 1631 1597 
Q 2266 1288 2266 781 
Q 2266 391 1970 151 
Q 1675 -88 1309 -88 
Q 1047 -88 709 6 
Q 606 38 541 38 
Q 469 38 428 -44 
L 325 -44 
L 325 978 
L 428 978 
Q 516 541 762 319 
Q 1009 97 1316 97 
Q 1531 97 1667 223 
Q 1803 350 1803 528 
Q 1803 744 1651 891 
Q 1500 1038 1047 1263 
Q 594 1488 453 1669 
Q 313 1847 313 2119 
Q 313 2472 555 2709 
Q 797 2947 1181 2947 
Q 1350 2947 1591 2875 
Q 1750 2828 1803 2828 
Q 1853 2828 1881 2850 
Q 1909 2872 1947 2947 
L 2050 2947 
z
" transform="scale(0.015625)"/>
     </defs>
     <use xlink:href="#TimesNewRomanPSMT-4a"/>
     <use xlink:href="#TimesNewRomanPSMT-75" transform="translate(38.916016 0)"/>
     <use xlink:href="#TimesNewRomanPSMT-69" transform="translate(88.916016 0)"/>
     <use xlink:href="#TimesNewRomanPSMT-63" transform="translate(116.699219 0)"/>
     <use xlink:href="#TimesNewRomanPSMT-65" transform="translate(161.083984 0)"/>
     <use xlink:href="#TimesNewRomanPSMT-73" transform="translate(205.46875 0)"/>
    </g>
   </g>
  </g>
  <g id="axes_3">
   <g id="patch_6">
    <path d="M 166.813822 170.44 
L 731.713322 170.44 
L 731.713322 95.78 
L 166.813822 95.78 
L 166.813822 170.44 
z
" style="fill: none; opacity: 0"/>
   </g>
   <g id="FillBetweenPolyCollection_3">
    <defs>
     <path id="m6a30075a06" d="M 166.813822 -58.556963 
L 166.813822 -41.815313 
L 169.652513 -41.815313 
L 172.491204 -41.815313 
L 175.329895 -41.815313 
L 178.168586 -41.815313 
L 181.007277 -41.815313 
L 183.845968 -41.815313 
L 186.684659 -41.815313 
L 189.52335 -41.815313 
L 192.362041 -41.815313 
L 195.200732 -41.815313 
L 198.039423 -41.815313 
L 200.878114 -41.815313 
L 203.716805 -41.815313 
L 206.555496 -41.815313 
L 209.394187 -41.815313 
L 212.232878 -41.815313 
L 215.071569 -41.815313 
L 217.91026 -41.815313 
L 220.748951 -41.815313 
L 223.587642 -41.815313 
L 226.426333 -41.815313 
L 229.265024 -41.815313 
L 232.103714 -41.815313 
L 234.942405 -41.815313 
L 237.781096 -41.815313 
L 240.619787 -41.815313 
L 243.458478 -41.815313 
L 246.297169 -41.815313 
L 249.13586 -41.815313 
L 251.974551 -41.815313 
L 254.813242 -41.815313 
L 257.651933 -41.815313 
L 260.490624 -41.815313 
L 263.329315 -41.815313 
L 266.168006 -41.815313 
L 269.006697 -41.815313 
L 271.845388 -41.815313 
L 274.684079 -41.815313 
L 277.52277 -41.815313 
L 280.361461 -41.815313 
L 283.200152 -41.815313 
L 286.038843 -41.815313 
L 288.877534 -41.815313 
L 291.716225 -41.815313 
L 294.554915 -41.815313 
L 297.393606 -41.815313 
L 300.232297 -41.815313 
L 303.070988 -41.815313 
L 305.909679 -41.815313 
L 308.74837 -41.815313 
L 311.587061 -41.815313 
L 314.425752 -41.815313 
L 317.264443 -41.815313 
L 320.103134 -41.815313 
L 322.941825 -41.815313 
L 325.780516 -41.815313 
L 328.619207 -41.815313 
L 331.457898 -41.815313 
L 334.296589 -41.815313 
L 337.13528 -41.815313 
L 339.973971 -41.815313 
L 342.812662 -41.815313 
L 345.651353 -41.815313 
L 348.490044 -41.815313 
L 351.328735 -41.815313 
L 354.167426 -41.815313 
L 357.006116 -41.815313 
L 359.844807 -41.815313 
L 362.683498 -41.815313 
L 365.522189 -41.815313 
L 368.36088 -41.815313 
L 371.199571 -41.815313 
L 374.038262 -41.815313 
L 376.876953 -41.815313 
L 379.715644 -41.815313 
L 382.554335 -41.815313 
L 385.393026 -41.815313 
L 388.231717 -41.815313 
L 391.070408 -41.815313 
L 393.909099 -41.815313 
L 396.74779 -41.815313 
L 399.586481 -41.815313 
L 402.425172 -41.815313 
L 405.263863 -41.815313 
L 408.102554 -41.815313 
L 410.941245 -41.815313 
L 413.779936 -41.815313 
L 416.618627 -41.815313 
L 419.457317 -41.815313 
L 422.296008 -41.815313 
L 425.134699 -41.815313 
L 427.97339 -41.815313 
L 430.812081 -41.815313 
L 433.650772 -41.815313 
L 436.489463 -41.815313 
L 439.328154 -41.815313 
L 442.166845 -41.815313 
L 445.005536 -41.815313 
L 447.844227 -41.815313 
L 450.682918 -41.815313 
L 453.521609 -41.815313 
L 456.3603 -41.815313 
L 459.198991 -41.815313 
L 462.037682 -41.815313 
L 464.876373 -41.815313 
L 467.715064 -41.815313 
L 470.553755 -41.815313 
L 473.392446 -41.815313 
L 476.231137 -41.815313 
L 479.069828 -41.815313 
L 481.908518 -41.815313 
L 484.747209 -41.815313 
L 487.5859 -41.815313 
L 490.424591 -41.815313 
L 493.263282 -41.815313 
L 496.101973 -41.815313 
L 498.940664 -41.815313 
L 501.779355 -41.815313 
L 504.618046 -41.815313 
L 507.456737 -41.815313 
L 510.295428 -41.815313 
L 513.134119 -41.815313 
L 515.97281 -41.815313 
L 518.811501 -41.815313 
L 521.650192 -41.815313 
L 524.488883 -41.815313 
L 527.327574 -41.815313 
L 530.166265 -41.815313 
L 533.004956 -41.815313 
L 535.843647 -41.815313 
L 538.682338 -41.815313 
L 541.521029 -41.815313 
L 544.359719 -41.815313 
L 547.19841 -41.815313 
L 550.037101 -41.815313 
L 552.875792 -41.815313 
L 555.714483 -41.815313 
L 558.553174 -41.815313 
L 561.391865 -41.815313 
L 564.230556 -41.815313 
L 567.069247 -41.815313 
L 569.907938 -41.815313 
L 572.746629 -41.815313 
L 575.58532 -41.815313 
L 578.424011 -41.815313 
L 581.262702 -41.815313 
L 584.101393 -41.815313 
L 586.940084 -41.815313 
L 589.778775 -41.815313 
L 592.617466 -41.815313 
L 595.456157 -41.815313 
L 598.294848 -41.815313 
L 601.133539 -41.815313 
L 603.97223 -41.815313 
L 606.81092 -41.815313 
L 609.649611 -41.815313 
L 612.488302 -41.815313 
L 615.326993 -41.815313 
L 618.165684 -41.815313 
L 621.004375 -41.815313 
L 623.843066 -41.815313 
L 626.681757 -41.815313 
L 629.520448 -41.815313 
L 632.359139 -41.815313 
L 635.19783 -41.815313 
L 638.036521 -41.815313 
L 640.875212 -41.815313 
L 643.713903 -41.815313 
L 646.552594 -41.815313 
L 649.391285 -41.815313 
L 652.229976 -41.815313 
L 655.068667 -41.815313 
L 657.907358 -41.815313 
L 660.746049 -41.815313 
L 663.58474 -41.815313 
L 666.423431 -41.815313 
L 669.262121 -41.815313 
L 672.100812 -41.815313 
L 674.939503 -41.815313 
L 677.778194 -41.815313 
L 680.616885 -41.815313 
L 683.455576 -41.815313 
L 686.294267 -41.815313 
L 689.132958 -41.815313 
L 691.971649 -41.815313 
L 694.81034 -41.815313 
L 697.649031 -41.815313 
L 700.487722 -41.815313 
L 703.326413 -41.815313 
L 706.165104 -41.815313 
L 709.003795 -41.815313 
L 711.842486 -41.815313 
L 714.681177 -41.815313 
L 717.519868 -41.815313 
L 720.358559 -41.815313 
L 723.19725 -41.815313 
L 726.035941 -41.815313 
L 728.874632 -41.815313 
L 731.713323 -41.815313 
L 731.713323 -59.403125 
L 731.713323 -59.403125 
L 728.874632 -60.237174 
L 726.035941 -61.075138 
L 723.19725 -61.91416 
L 720.358559 -62.751285 
L 717.519868 -63.583485 
L 714.681177 -64.407684 
L 711.842486 -65.220782 
L 709.003795 -66.019683 
L 706.165104 -66.801324 
L 703.326413 -67.562698 
L 700.487722 -68.300889 
L 697.649031 -69.013093 
L 694.81034 -69.696651 
L 691.971649 -70.349065 
L 689.132958 -70.968034 
L 686.294267 -71.551465 
L 683.455576 -72.097498 
L 680.616885 -72.60452 
L 677.778194 -73.071182 
L 674.939503 -73.496404 
L 672.100812 -73.879389 
L 669.262121 -74.219622 
L 666.423431 -74.516872 
L 663.58474 -74.771188 
L 660.746049 -74.982895 
L 657.907358 -75.152583 
L 655.068667 -75.281092 
L 652.229976 -75.369504 
L 649.391285 -75.419115 
L 646.552594 -75.431425 
L 643.713903 -75.408112 
L 640.875212 -75.351006 
L 638.036521 -75.262074 
L 635.19783 -75.143387 
L 632.359139 -74.997101 
L 629.520448 -74.82543 
L 626.681757 -74.630626 
L 623.843066 -74.414953 
L 621.004375 -74.180669 
L 618.165684 -73.930004 
L 615.326993 -73.665144 
L 612.488302 -73.388218 
L 609.649611 -73.101277 
L 606.81092 -72.806291 
L 603.97223 -72.505134 
L 601.133539 -72.199579 
L 598.294848 -71.891295 
L 595.456157 -71.58184 
L 592.617466 -71.272661 
L 589.778775 -70.965097 
L 586.940084 -70.660375 
L 584.101393 -70.359621 
L 581.262702 -70.063853 
L 578.424011 -69.773997 
L 575.58532 -69.49088 
L 572.746629 -69.215245 
L 569.907938 -68.947752 
L 567.069247 -68.688981 
L 564.230556 -68.43944 
L 561.391865 -68.199567 
L 558.553174 -67.969735 
L 555.714483 -67.750257 
L 552.875792 -67.541382 
L 550.037101 -67.343305 
L 547.19841 -67.156165 
L 544.359719 -66.980044 
L 541.521029 -66.81497 
L 538.682338 -66.660918 
L 535.843647 -66.517808 
L 533.004956 -66.385504 
L 530.166265 -66.263818 
L 527.327574 -66.152505 
L 524.488883 -66.051269 
L 521.650192 -65.959757 
L 518.811501 -65.877565 
L 515.97281 -65.804238 
L 513.134119 -65.739273 
L 510.295428 -65.682119 
L 507.456737 -65.632185 
L 504.618046 -65.588839 
L 501.779355 -65.551418 
L 498.940664 -65.519229 
L 496.101973 -65.491559 
L 493.263282 -65.467676 
L 490.424591 -65.446843 
L 487.5859 -65.428317 
L 484.747209 -65.411366 
L 481.908518 -65.395265 
L 479.069828 -65.379315 
L 476.231137 -65.362841 
L 473.392446 -65.345205 
L 470.553755 -65.32581 
L 467.715064 -65.304108 
L 464.876373 -65.279602 
L 462.037682 -65.251856 
L 459.198991 -65.220497 
L 456.3603 -65.185219 
L 453.521609 -65.145783 
L 450.682918 -65.102027 
L 447.844227 -65.053857 
L 445.005536 -65.001255 
L 442.166845 -64.944276 
L 439.328154 -64.883047 
L 436.489463 -64.817763 
L 433.650772 -64.748688 
L 430.812081 -64.67615 
L 427.97339 -64.600534 
L 425.134699 -64.522283 
L 422.296008 -64.441888 
L 419.457317 -64.359888 
L 416.618627 -64.276856 
L 413.779936 -64.193401 
L 410.941245 -64.110158 
L 408.102554 -64.027782 
L 405.263863 -63.946941 
L 402.425172 -63.868312 
L 399.586481 -63.792572 
L 396.74779 -63.720393 
L 393.909099 -63.652436 
L 391.070408 -63.589346 
L 388.231717 -63.531746 
L 385.393026 -63.480231 
L 382.554335 -63.435365 
L 379.715644 -63.397675 
L 376.876953 -63.36765 
L 374.038262 -63.345733 
L 371.199571 -63.332323 
L 368.36088 -63.327767 
L 365.522189 -63.332362 
L 362.683498 -63.346353 
L 359.844807 -63.369928 
L 357.006116 -63.40322 
L 354.167426 -63.446305 
L 351.328735 -63.499203 
L 348.490044 -63.561875 
L 345.651353 -63.634228 
L 342.812662 -63.716108 
L 339.973971 -63.80731 
L 337.13528 -63.907568 
L 334.296589 -64.016567 
L 331.457898 -64.133935 
L 328.619207 -64.25925 
L 325.780516 -64.392036 
L 322.941825 -64.53177 
L 320.103134 -64.67788 
L 317.264443 -64.829745 
L 314.425752 -64.986699 
L 311.587061 -65.148033 
L 308.74837 -65.312994 
L 305.909679 -65.480787 
L 303.070988 -65.650577 
L 300.232297 -65.821492 
L 297.393606 -65.992621 
L 294.554915 -66.163021 
L 291.716225 -66.331714 
L 288.877534 -66.497692 
L 286.038843 -66.65992 
L 283.200152 -66.817335 
L 280.361461 -66.968854 
L 277.52277 -67.113373 
L 274.684079 -67.249772 
L 271.845388 -67.376921 
L 269.006697 -67.493679 
L 266.168006 -67.598906 
L 263.329315 -67.691462 
L 260.490624 -67.770215 
L 257.651933 -67.834048 
L 254.813242 -67.881864 
L 251.974551 -67.91259 
L 249.13586 -67.925189 
L 246.297169 -67.918666 
L 243.458478 -67.892072 
L 240.619787 -67.844515 
L 237.781096 -67.775166 
L 234.942405 -67.683268 
L 232.103714 -67.568143 
L 229.265024 -67.429198 
L 226.426333 -67.265935 
L 223.587642 -67.077956 
L 220.748951 -66.864967 
L 217.91026 -66.626789 
L 215.071569 -66.363358 
L 212.232878 -66.074731 
L 209.394187 -65.76109 
L 206.555496 -65.422745 
L 203.716805 -65.060132 
L 200.878114 -64.673816 
L 198.039423 -64.26449 
L 195.200732 -63.832972 
L 192.362041 -63.380201 
L 189.52335 -62.907236 
L 186.684659 -62.415247 
L 183.845968 -61.90551 
L 181.007277 -61.379398 
L 178.168586 -60.838374 
L 175.329895 -60.28398 
L 172.491204 -59.717827 
L 169.652513 -59.141583 
L 166.813822 -58.556963 
z
" style="stroke: #7570b3"/>
    </defs>
    <g clip-path="url(#p7a7d1c20f3)">
     <use xlink:href="#m6a30075a06" x="0" y="212.255313" style="fill: #7570b3; fill-opacity: 0.5; stroke: #7570b3"/>
    </g>
   </g>
   <g id="matplotlib.axis_5">
    <g id="xtick_13">
     <g id="line2d_17">
      <g>
       <use xlink:href="#m172ddb300a" x="166.813822" y="170.44" style="stroke: #000000; stroke-width: 0.8"/>
      </g>
     </g>
     <g id="text_3">
      <!-- 0 -->
      <g transform="translate(163.813822 185.7725) scale(0.12 -0.12)">
       <defs>
        <path id="TimesNewRomanPSMT-30" d="M 231 2094 
Q 231 2819 450 3342 
Q 669 3866 1031 4122 
Q 1313 4325 1613 4325 
Q 2100 4325 2488 3828 
Q 2972 3213 2972 2159 
Q 2972 1422 2759 906 
Q 2547 391 2217 158 
Q 1888 -75 1581 -75 
Q 975 -75 572 641 
Q 231 1244 231 2094 
z
M 844 2016 
Q 844 1141 1059 588 
Q 1238 122 1591 122 
Q 1759 122 1940 273 
Q 2122 425 2216 781 
Q 2359 1319 2359 2297 
Q 2359 3022 2209 3506 
Q 2097 3866 1919 4016 
Q 1791 4119 1609 4119 
Q 1397 4119 1231 3928 
Q 1006 3669 925 3112 
Q 844 2556 844 2016 
z
" transform="scale(0.015625)"/>
       </defs>
       <use xlink:href="#TimesNewRomanPSMT-30"/>
      </g>
     </g>
    </g>
    <g id="xtick_14">
     <g id="line2d_18">
      <g>
       <use xlink:href="#m172ddb300a" x="279.793722" y="170.44" style="stroke: #000000; stroke-width: 0.8"/>
      </g>
     </g>
     <g id="text_4">
      <!-- 20000 -->
      <g transform="translate(264.793722 185.7725) scale(0.12 -0.12)">
       <defs>
        <path id="TimesNewRomanPSMT-32" d="M 2934 816 
L 2638 0 
L 138 0 
L 138 116 
Q 1241 1122 1691 1759 
Q 2141 2397 2141 2925 
Q 2141 3328 1894 3587 
Q 1647 3847 1303 3847 
Q 991 3847 742 3664 
Q 494 3481 375 3128 
L 259 3128 
Q 338 3706 661 4015 
Q 984 4325 1469 4325 
Q 1984 4325 2329 3994 
Q 2675 3663 2675 3213 
Q 2675 2891 2525 2569 
Q 2294 2063 1775 1497 
Q 997 647 803 472 
L 1909 472 
Q 2247 472 2383 497 
Q 2519 522 2628 598 
Q 2738 675 2819 816 
L 2934 816 
z
" transform="scale(0.015625)"/>
       </defs>
       <use xlink:href="#TimesNewRomanPSMT-32"/>
       <use xlink:href="#TimesNewRomanPSMT-30" transform="translate(50 0)"/>
       <use xlink:href="#TimesNewRomanPSMT-30" transform="translate(100 0)"/>
       <use xlink:href="#TimesNewRomanPSMT-30" transform="translate(150 0)"/>
       <use xlink:href="#TimesNewRomanPSMT-30" transform="translate(200 0)"/>
      </g>
     </g>
    </g>
    <g id="xtick_15">
     <g id="line2d_19">
      <g>
       <use xlink:href="#m172ddb300a" x="392.773622" y="170.44" style="stroke: #000000; stroke-width: 0.8"/>
      </g>
     </g>
     <g id="text_5">
      <!-- 40000 -->
      <g transform="translate(377.773622 185.7725) scale(0.12 -0.12)">
       <defs>
        <path id="TimesNewRomanPSMT-34" d="M 2978 1563 
L 2978 1119 
L 2409 1119 
L 2409 0 
L 1894 0 
L 1894 1119 
L 100 1119 
L 100 1519 
L 2066 4325 
L 2409 4325 
L 2409 1563 
L 2978 1563 
z
M 1894 1563 
L 1894 3666 
L 406 1563 
L 1894 1563 
z
" transform="scale(0.015625)"/>
       </defs>
       <use xlink:href="#TimesNewRomanPSMT-34"/>
       <use xlink:href="#TimesNewRomanPSMT-30" transform="translate(50 0)"/>
       <use xlink:href="#TimesNewRomanPSMT-30" transform="translate(100 0)"/>
       <use xlink:href="#TimesNewRomanPSMT-30" transform="translate(150 0)"/>
       <use xlink:href="#TimesNewRomanPSMT-30" transform="translate(200 0)"/>
      </g>
     </g>
    </g>
    <g id="xtick_16">
     <g id="line2d_20">
      <g>
       <use xlink:href="#m172ddb300a" x="505.753522" y="170.44" style="stroke: #000000; stroke-width: 0.8"/>
      </g>
     </g>
     <g id="text_6">
      <!-- 60000 -->
      <g transform="translate(490.753522 185.7725) scale(0.12 -0.12)">
       <defs>
        <path id="TimesNewRomanPSMT-36" d="M 2869 4325 
L 2869 4209 
Q 2456 4169 2195 4045 
Q 1934 3922 1679 3669 
Q 1425 3416 1258 3105 
Q 1091 2794 978 2366 
Q 1428 2675 1881 2675 
Q 2316 2675 2634 2325 
Q 2953 1975 2953 1425 
Q 2953 894 2631 456 
Q 2244 -75 1606 -75 
Q 1172 -75 869 213 
Q 275 772 275 1663 
Q 275 2231 503 2743 
Q 731 3256 1154 3653 
Q 1578 4050 1965 4187 
Q 2353 4325 2688 4325 
L 2869 4325 
z
M 925 2138 
Q 869 1716 869 1456 
Q 869 1156 980 804 
Q 1091 453 1309 247 
Q 1469 100 1697 100 
Q 1969 100 2183 356 
Q 2397 613 2397 1088 
Q 2397 1622 2184 2012 
Q 1972 2403 1581 2403 
Q 1463 2403 1327 2353 
Q 1191 2303 925 2138 
z
" transform="scale(0.015625)"/>
       </defs>
       <use xlink:href="#TimesNewRomanPSMT-36"/>
       <use xlink:href="#TimesNewRomanPSMT-30" transform="translate(50 0)"/>
       <use xlink:href="#TimesNewRomanPSMT-30" transform="translate(100 0)"/>
       <use xlink:href="#TimesNewRomanPSMT-30" transform="translate(150 0)"/>
       <use xlink:href="#TimesNewRomanPSMT-30" transform="translate(200 0)"/>
      </g>
     </g>
    </g>
    <g id="xtick_17">
     <g id="line2d_21">
      <g>
       <use xlink:href="#m172ddb300a" x="618.733422" y="170.44" style="stroke: #000000; stroke-width: 0.8"/>
      </g>
     </g>
     <g id="text_7">
      <!-- 80000 -->
      <g transform="translate(603.733422 185.7725) scale(0.12 -0.12)">
       <defs>
        <path id="TimesNewRomanPSMT-38" d="M 1228 2134 
Q 725 2547 579 2797 
Q 434 3047 434 3316 
Q 434 3728 753 4026 
Q 1072 4325 1600 4325 
Q 2113 4325 2425 4047 
Q 2738 3769 2738 3413 
Q 2738 3175 2569 2928 
Q 2400 2681 1866 2347 
Q 2416 1922 2594 1678 
Q 2831 1359 2831 1006 
Q 2831 559 2490 242 
Q 2150 -75 1597 -75 
Q 994 -75 656 303 
Q 388 606 388 966 
Q 388 1247 577 1523 
Q 766 1800 1228 2134 
z
M 1719 2469 
Q 2094 2806 2194 3001 
Q 2294 3197 2294 3444 
Q 2294 3772 2109 3958 
Q 1925 4144 1606 4144 
Q 1288 4144 1088 3959 
Q 888 3775 888 3528 
Q 888 3366 970 3203 
Q 1053 3041 1206 2894 
L 1719 2469 
z
M 1375 2016 
Q 1116 1797 991 1539 
Q 866 1281 866 981 
Q 866 578 1086 336 
Q 1306 94 1647 94 
Q 1984 94 2187 284 
Q 2391 475 2391 747 
Q 2391 972 2272 1150 
Q 2050 1481 1375 2016 
z
" transform="scale(0.015625)"/>
       </defs>
       <use xlink:href="#TimesNewRomanPSMT-38"/>
       <use xlink:href="#TimesNewRomanPSMT-30" transform="translate(50 0)"/>
       <use xlink:href="#TimesNewRomanPSMT-30" transform="translate(100 0)"/>
       <use xlink:href="#TimesNewRomanPSMT-30" transform="translate(150 0)"/>
       <use xlink:href="#TimesNewRomanPSMT-30" transform="translate(200 0)"/>
      </g>
     </g>
    </g>
    <g id="xtick_18">
     <g id="line2d_22">
      <g>
       <use xlink:href="#m172ddb300a" x="731.713323" y="170.44" style="stroke: #000000; stroke-width: 0.8"/>
      </g>
     </g>
     <g id="text_8">
      <!-- 100000 -->
      <g transform="translate(713.713323 185.7725) scale(0.12 -0.12)">
       <defs>
        <path id="TimesNewRomanPSMT-31" d="M 750 3822 
L 1781 4325 
L 1884 4325 
L 1884 747 
Q 1884 391 1914 303 
Q 1944 216 2037 169 
Q 2131 122 2419 116 
L 2419 0 
L 825 0 
L 825 116 
Q 1125 122 1212 167 
Q 1300 213 1334 289 
Q 1369 366 1369 747 
L 1369 3034 
Q 1369 3497 1338 3628 
Q 1316 3728 1258 3775 
Q 1200 3822 1119 3822 
Q 1003 3822 797 3725 
L 750 3822 
z
" transform="scale(0.015625)"/>
       </defs>
       <use xlink:href="#TimesNewRomanPSMT-31"/>
       <use xlink:href="#TimesNewRomanPSMT-30" transform="translate(50 0)"/>
       <use xlink:href="#TimesNewRomanPSMT-30" transform="translate(100 0)"/>
       <use xlink:href="#TimesNewRomanPSMT-30" transform="translate(150 0)"/>
       <use xlink:href="#TimesNewRomanPSMT-30" transform="translate(200 0)"/>
       <use xlink:href="#TimesNewRomanPSMT-30" transform="translate(250 0)"/>
      </g>
     </g>
    </g>
    <g id="text_9">
     <!-- Value -->
     <g transform="translate(433.327635 202.060625) scale(0.14 -0.14)">
      <defs>
       <path id="TimesNewRomanPSMT-56" d="M 4544 4238 
L 4544 4122 
Q 4319 4081 4203 3978 
Q 4038 3825 3909 3509 
L 2431 -97 
L 2316 -97 
L 728 3556 
Q 606 3838 556 3900 
Q 478 3997 364 4051 
Q 250 4106 56 4122 
L 56 4238 
L 1788 4238 
L 1788 4122 
Q 1494 4094 1406 4022 
Q 1319 3950 1319 3838 
Q 1319 3681 1463 3350 
L 2541 866 
L 3541 3319 
Q 3688 3681 3688 3822 
Q 3688 3913 3597 3995 
Q 3506 4078 3291 4113 
Q 3275 4116 3238 4122 
L 3238 4238 
L 4544 4238 
z
" transform="scale(0.015625)"/>
      </defs>
      <use xlink:href="#TimesNewRomanPSMT-56"/>
      <use xlink:href="#TimesNewRomanPSMT-61" transform="translate(61.091797 0)"/>
      <use xlink:href="#TimesNewRomanPSMT-6c" transform="translate(105.476562 0)"/>
      <use xlink:href="#TimesNewRomanPSMT-75" transform="translate(133.259766 0)"/>
      <use xlink:href="#TimesNewRomanPSMT-65" transform="translate(183.259766 0)"/>
     </g>
    </g>
   </g>
   <g id="matplotlib.axis_6"/>
   <g id="line2d_23">
    <path d="M 166.813822 153.698349 
L 181.007277 150.875915 
L 192.362041 148.875111 
L 200.878114 147.581496 
L 209.394187 146.494222 
L 217.91026 145.628524 
L 226.426333 144.989377 
L 234.942405 144.572045 
L 243.458478 144.363241 
L 251.974551 144.342723 
L 263.329315 144.563851 
L 274.684079 145.00554 
L 291.716225 145.923599 
L 325.780516 147.863276 
L 339.973971 148.448003 
L 354.167426 148.809008 
L 368.36088 148.927546 
L 382.554335 148.819948 
L 399.586481 148.46274 
L 453.521609 147.109529 
L 476.231137 146.892471 
L 507.456737 146.623128 
L 521.650192 146.295556 
L 535.843647 145.737505 
L 550.037101 144.912007 
L 564.230556 143.815873 
L 578.424011 142.481316 
L 601.133539 140.055733 
L 618.165684 138.325309 
L 629.520448 137.429882 
L 638.036521 136.993238 
L 646.552594 136.823887 
L 652.229976 136.885809 
L 657.907358 137.10273 
L 663.58474 137.484124 
L 669.262121 138.03569 
L 674.939503 138.758908 
L 680.616885 139.650792 
L 686.294267 140.703847 
L 694.81034 142.558662 
L 703.326413 144.692614 
L 714.681177 147.847629 
L 731.713323 152.852187 
L 731.713323 152.852187 
" clip-path="url(#p7a7d1c20f3)" style="fill: none; stroke: #ffffff; stroke-width: 2; stroke-linecap: square"/>
   </g>
   <g id="line2d_24">
    <path d="M 166.813822 170.44 
L 731.713322 170.44 
" style="fill: none; stroke: #000000; stroke-linecap: square"/>
   </g>
   <g id="text_10">
    <g id="patch_7">
     <path d="M 3.24 179.860938 
L 111.459375 179.860938 
L 111.459375 161.019062 
L 3.24 161.019062 
z
" style="fill: #ffffff; opacity: 0.5"/>
    </g>
    <!-- Alcoholic Beverages -->
    <g transform="translate(7.2 173.311562) scale(0.12 -0.12)">
     <defs>
      <path id="TimesNewRomanPSMT-41" d="M 2928 1419 
L 1288 1419 
L 1000 750 
Q 894 503 894 381 
Q 894 284 986 211 
Q 1078 138 1384 116 
L 1384 0 
L 50 0 
L 50 116 
Q 316 163 394 238 
Q 553 388 747 847 
L 2238 4334 
L 2347 4334 
L 3822 809 
Q 4000 384 4145 257 
Q 4291 131 4550 116 
L 4550 0 
L 2878 0 
L 2878 116 
Q 3131 128 3220 200 
Q 3309 272 3309 375 
Q 3309 513 3184 809 
L 2928 1419 
z
M 2841 1650 
L 2122 3363 
L 1384 1650 
L 2841 1650 
z
" transform="scale(0.015625)"/>
      <path id="TimesNewRomanPSMT-68" d="M 1041 4444 
L 1041 2350 
Q 1388 2731 1591 2839 
Q 1794 2947 1997 2947 
Q 2241 2947 2416 2812 
Q 2591 2678 2675 2391 
Q 2734 2191 2734 1659 
L 2734 647 
Q 2734 375 2778 275 
Q 2809 200 2884 156 
Q 2959 113 3159 113 
L 3159 0 
L 1753 0 
L 1753 113 
L 1819 113 
Q 2019 113 2097 173 
Q 2175 234 2206 353 
Q 2216 403 2216 647 
L 2216 1659 
Q 2216 2128 2167 2275 
Q 2119 2422 2012 2495 
Q 1906 2569 1756 2569 
Q 1603 2569 1437 2487 
Q 1272 2406 1041 2159 
L 1041 647 
Q 1041 353 1073 281 
Q 1106 209 1195 161 
Q 1284 113 1503 113 
L 1503 0 
L 84 0 
L 84 113 
Q 275 113 384 172 
Q 447 203 484 290 
Q 522 378 522 647 
L 522 3238 
Q 522 3728 498 3840 
Q 475 3953 426 3993 
Q 378 4034 297 4034 
Q 231 4034 84 3984 
L 41 4094 
L 897 4444 
L 1041 4444 
z
" transform="scale(0.015625)"/>
      <path id="TimesNewRomanPSMT-76" d="M 53 2863 
L 1400 2863 
L 1400 2747 
L 1313 2747 
Q 1191 2747 1127 2687 
Q 1063 2628 1063 2528 
Q 1063 2419 1128 2269 
L 1794 688 
L 2463 2328 
Q 2534 2503 2534 2594 
Q 2534 2638 2509 2666 
Q 2475 2713 2422 2730 
Q 2369 2747 2206 2747 
L 2206 2863 
L 3141 2863 
L 3141 2747 
Q 2978 2734 2916 2681 
Q 2806 2588 2719 2369 
L 1703 -88 
L 1575 -88 
L 553 2328 
Q 484 2497 421 2570 
Q 359 2644 263 2694 
Q 209 2722 53 2747 
L 53 2863 
z
" transform="scale(0.015625)"/>
      <path id="TimesNewRomanPSMT-67" d="M 966 1044 
Q 703 1172 562 1401 
Q 422 1631 422 1909 
Q 422 2334 742 2640 
Q 1063 2947 1563 2947 
Q 1972 2947 2272 2747 
L 2878 2747 
Q 3013 2747 3034 2739 
Q 3056 2731 3066 2713 
Q 3084 2684 3084 2613 
Q 3084 2531 3069 2500 
Q 3059 2484 3036 2475 
Q 3013 2466 2878 2466 
L 2506 2466 
Q 2681 2241 2681 1891 
Q 2681 1491 2375 1206 
Q 2069 922 1553 922 
Q 1341 922 1119 984 
Q 981 866 932 777 
Q 884 688 884 625 
Q 884 572 936 522 
Q 988 472 1138 450 
Q 1225 438 1575 428 
Q 2219 413 2409 384 
Q 2700 344 2873 169 
Q 3047 -6 3047 -263 
Q 3047 -616 2716 -925 
Q 2228 -1381 1444 -1381 
Q 841 -1381 425 -1109 
Q 191 -953 191 -784 
Q 191 -709 225 -634 
Q 278 -519 444 -313 
Q 466 -284 763 25 
Q 600 122 533 198 
Q 466 275 466 372 
Q 466 481 555 628 
Q 644 775 966 1044 
z
M 1509 2797 
Q 1278 2797 1122 2612 
Q 966 2428 966 2047 
Q 966 1553 1178 1281 
Q 1341 1075 1591 1075 
Q 1828 1075 1981 1253 
Q 2134 1431 2134 1813 
Q 2134 2309 1919 2591 
Q 1759 2797 1509 2797 
z
M 934 0 
Q 788 -159 713 -296 
Q 638 -434 638 -550 
Q 638 -700 819 -813 
Q 1131 -1006 1722 -1006 
Q 2284 -1006 2551 -807 
Q 2819 -609 2819 -384 
Q 2819 -222 2659 -153 
Q 2497 -84 2016 -72 
Q 1313 -53 934 0 
z
" transform="scale(0.015625)"/>
     </defs>
     <use xlink:href="#TimesNewRomanPSMT-41"/>
     <use xlink:href="#TimesNewRomanPSMT-6c" transform="translate(72.216797 0)"/>
     <use xlink:href="#TimesNewRomanPSMT-63" transform="translate(100 0)"/>
     <use xlink:href="#TimesNewRomanPSMT-6f" transform="translate(144.384766 0)"/>
     <use xlink:href="#TimesNewRomanPSMT-68" transform="translate(194.384766 0)"/>
     <use xlink:href="#TimesNewRomanPSMT-6f" transform="translate(244.384766 0)"/>
     <use xlink:href="#TimesNewRomanPSMT-6c" transform="translate(294.384766 0)"/>
     <use xlink:href="#TimesNewRomanPSMT-69" transform="translate(322.167969 0)"/>
     <use xlink:href="#TimesNewRomanPSMT-63" transform="translate(349.951172 0)"/>
     <use xlink:href="#TimesNewRomanPSMT-20" transform="translate(394.335938 0)"/>
     <use xlink:href="#TimesNewRomanPSMT-42" transform="translate(419.335938 0)"/>
     <use xlink:href="#TimesNewRomanPSMT-65" transform="translate(486.035156 0)"/>
     <use xlink:href="#TimesNewRomanPSMT-76" transform="translate(530.419922 0)"/>
     <use xlink:href="#TimesNewRomanPSMT-65" transform="translate(580.419922 0)"/>
     <use xlink:href="#TimesNewRomanPSMT-72" transform="translate(624.804688 0)"/>
     <use xlink:href="#TimesNewRomanPSMT-61" transform="translate(658.105469 0)"/>
     <use xlink:href="#TimesNewRomanPSMT-67" transform="translate(702.490234 0)"/>
     <use xlink:href="#TimesNewRomanPSMT-65" transform="translate(752.490234 0)"/>
     <use xlink:href="#TimesNewRomanPSMT-73" transform="translate(796.875 0)"/>
    </g>
   </g>
  </g>
  <g id="text_11">
   <!-- Beverage Sales(bottles) -->
   <g transform="translate(306.760822 18.31) scale(0.16 -0.16)">
    <defs>
     <path id="TimesNewRomanPSMT-53" d="M 2934 4334 
L 2934 2869 
L 2819 2869 
Q 2763 3291 2617 3541 
Q 2472 3791 2203 3937 
Q 1934 4084 1647 4084 
Q 1322 4084 1109 3886 
Q 897 3688 897 3434 
Q 897 3241 1031 3081 
Q 1225 2847 1953 2456 
Q 2547 2138 2764 1967 
Q 2981 1797 3098 1565 
Q 3216 1334 3216 1081 
Q 3216 600 2842 251 
Q 2469 -97 1881 -97 
Q 1697 -97 1534 -69 
Q 1438 -53 1133 45 
Q 828 144 747 144 
Q 669 144 623 97 
Q 578 50 556 -97 
L 441 -97 
L 441 1356 
L 556 1356 
Q 638 900 775 673 
Q 913 447 1195 297 
Q 1478 147 1816 147 
Q 2206 147 2432 353 
Q 2659 559 2659 841 
Q 2659 997 2573 1156 
Q 2488 1316 2306 1453 
Q 2184 1547 1640 1851 
Q 1097 2156 867 2337 
Q 638 2519 519 2737 
Q 400 2956 400 3219 
Q 400 3675 750 4004 
Q 1100 4334 1641 4334 
Q 1978 4334 2356 4169 
Q 2531 4091 2603 4091 
Q 2684 4091 2736 4139 
Q 2788 4188 2819 4334 
L 2934 4334 
z
" transform="scale(0.015625)"/>
     <path id="TimesNewRomanPSMT-28" d="M 1988 -1253 
L 1988 -1369 
Q 1516 -1131 1200 -813 
Q 750 -359 506 256 
Q 263 872 263 1534 
Q 263 2503 741 3301 
Q 1219 4100 1988 4444 
L 1988 4313 
Q 1603 4100 1356 3731 
Q 1109 3363 987 2797 
Q 866 2231 866 1616 
Q 866 947 969 400 
Q 1050 -31 1165 -292 
Q 1281 -553 1476 -793 
Q 1672 -1034 1988 -1253 
z
" transform="scale(0.015625)"/>
     <path id="TimesNewRomanPSMT-62" d="M 984 2369 
Q 1400 2947 1881 2947 
Q 2322 2947 2650 2570 
Q 2978 2194 2978 1541 
Q 2978 778 2472 313 
Q 2038 -88 1503 -88 
Q 1253 -88 995 3 
Q 738 94 469 275 
L 469 3241 
Q 469 3728 445 3840 
Q 422 3953 372 3993 
Q 322 4034 247 4034 
Q 159 4034 28 3984 
L -16 4094 
L 844 4444 
L 984 4444 
L 984 2369 
z
M 984 2169 
L 984 456 
Q 1144 300 1314 220 
Q 1484 141 1663 141 
Q 1947 141 2192 453 
Q 2438 766 2438 1363 
Q 2438 1913 2192 2208 
Q 1947 2503 1634 2503 
Q 1469 2503 1303 2419 
Q 1178 2356 984 2169 
z
" transform="scale(0.015625)"/>
     <path id="TimesNewRomanPSMT-29" d="M 144 4313 
L 144 4444 
Q 619 4209 934 3891 
Q 1381 3434 1625 2820 
Q 1869 2206 1869 1541 
Q 1869 572 1392 -226 
Q 916 -1025 144 -1369 
L 144 -1253 
Q 528 -1038 776 -670 
Q 1025 -303 1145 264 
Q 1266 831 1266 1447 
Q 1266 2113 1163 2663 
Q 1084 3094 967 3353 
Q 850 3613 656 3853 
Q 463 4094 144 4313 
z
" transform="scale(0.015625)"/>
    </defs>
    <use xlink:href="#TimesNewRomanPSMT-42"/>
    <use xlink:href="#TimesNewRomanPSMT-65" transform="translate(66.699219 0)"/>
    <use xlink:href="#TimesNewRomanPSMT-76" transform="translate(111.083984 0)"/>
    <use xlink:href="#TimesNewRomanPSMT-65" transform="translate(161.083984 0)"/>
    <use xlink:href="#TimesNewRomanPSMT-72" transform="translate(205.46875 0)"/>
    <use xlink:href="#TimesNewRomanPSMT-61" transform="translate(238.769531 0)"/>
    <use xlink:href="#TimesNewRomanPSMT-67" transform="translate(283.154297 0)"/>
    <use xlink:href="#TimesNewRomanPSMT-65" transform="translate(333.154297 0)"/>
    <use xlink:href="#TimesNewRomanPSMT-20" transform="translate(377.539062 0)"/>
    <use xlink:href="#TimesNewRomanPSMT-53" transform="translate(402.539062 0)"/>
    <use xlink:href="#TimesNewRomanPSMT-61" transform="translate(458.154297 0)"/>
    <use xlink:href="#TimesNewRomanPSMT-6c" transform="translate(502.539062 0)"/>
    <use xlink:href="#TimesNewRomanPSMT-65" transform="translate(530.322266 0)"/>
    <use xlink:href="#TimesNewRomanPSMT-73" transform="translate(574.707031 0)"/>
    <use xlink:href="#TimesNewRomanPSMT-28" transform="translate(613.623047 0)"/>
    <use xlink:href="#TimesNewRomanPSMT-62" transform="translate(646.923828 0)"/>
    <use xlink:href="#TimesNewRomanPSMT-6f" transform="translate(696.923828 0)"/>
    <use xlink:href="#TimesNewRomanPSMT-74" transform="translate(746.923828 0)"/>
    <use xlink:href="#TimesNewRomanPSMT-74" transform="translate(774.707031 0)"/>
    <use xlink:href="#TimesNewRomanPSMT-6c" transform="translate(802.490234 0)"/>
    <use xlink:href="#TimesNewRomanPSMT-65" transform="translate(830.273438 0)"/>
    <use xlink:href="#TimesNewRomanPSMT-73" transform="translate(874.658203 0)"/>
    <use xlink:href="#TimesNewRomanPSMT-29" transform="translate(913.574219 0)"/>
   </g>
  </g>
 </g>
 <defs>
  <clipPath id="p61e0196077">
   <rect x="166.813822" y="21.12" width="564.8995" height="74.66"/>
  </clipPath>
  <clipPath id="pb918d6a39d">
   <rect x="166.813822" y="58.45" width="564.8995" height="74.66"/>
  </clipPath>
  <clipPath id="p7a7d1c20f3">
   <rect x="166.813822" y="95.78" width="564.8995" height="74.66"/>
  </clipPath>
 </defs>
</svg>
