<?xml version="1.0" encoding="utf-8" standalone="no"?>
<!DOCTYPE svg PUBLIC "-//W3C//DTD SVG 1.1//EN"
  "http://www.w3.org/Graphics/SVG/1.1/DTD/svg11.dtd">
<svg xmlns:xlink="http://www.w3.org/1999/xlink" width="757.40026pt" height="349.055313pt" viewBox="0 0 757.40026 349.055313" xmlns="http://www.w3.org/2000/svg" version="1.1">
 <metadata>
  <rdf:RDF xmlns:dc="http://purl.org/dc/elements/1.1/" xmlns:cc="http://creativecommons.org/ns#" xmlns:rdf="http://www.w3.org/1999/02/22-rdf-syntax-ns#">
   <cc:Work>
    <dc:type rdf:resource="http://purl.org/dc/dcmitype/StillImage"/>
    <dc:date>2025-05-26T22:31:55.732009</dc:date>
    <dc:format>image/svg+xml</dc:format>
    <dc:creator>
     <cc:Agent>
      <dc:title>Matplotlib v3.10.1, https://matplotlib.org/</dc:title>
     </cc:Agent>
    </dc:creator>
   </cc:Work>
  </rdf:RDF>
 </metadata>
 <defs>
  <style type="text/css">*{stroke-linejoin: round; stroke-linecap: butt}</style>
 </defs>
 <g id="figure_1">
  <g id="patch_1">
   <path d="M -0 349.055313 
L 757.40026 349.055313 
L 757.40026 0 
L -0 0 
z
" style="fill: #ffffff"/>
  </g>
  <g id="axes_1">
   <g id="patch_2">
    <path d="M 118.28826 111.693333 
L 738.20026 111.693333 
L 738.20026 13.92 
L 118.28826 13.92 
L 118.28826 111.693333 
z
" style="fill: none; opacity: 0"/>
   </g>
   <g id="FillBetweenPolyCollection_1">
    <defs>
     <path id="maad2373b58" d="M 118.28826 -307.383846 
L 118.28826 -237.361979 
L 121.403396 -237.361979 
L 124.518531 -237.361979 
L 127.633667 -237.361979 
L 130.748803 -237.361979 
L 133.863938 -237.361979 
L 136.979074 -237.361979 
L 140.09421 -237.361979 
L 143.209345 -237.361979 
L 146.324481 -237.361979 
L 149.439617 -237.361979 
L 152.554752 -237.361979 
L 155.669888 -237.361979 
L 158.785024 -237.361979 
L 161.900159 -237.361979 
L 165.015295 -237.361979 
L 168.130431 -237.361979 
L 171.245567 -237.361979 
L 174.360702 -237.361979 
L 177.475838 -237.361979 
L 180.590974 -237.361979 
L 183.706109 -237.361979 
L 186.821245 -237.361979 
L 189.936381 -237.361979 
L 193.051516 -237.361979 
L 196.166652 -237.361979 
L 199.281788 -237.361979 
L 202.396923 -237.361979 
L 205.512059 -237.361979 
L 208.627195 -237.361979 
L 211.74233 -237.361979 
L 214.857466 -237.361979 
L 217.972602 -237.361979 
L 221.087737 -237.361979 
L 224.202873 -237.361979 
L 227.318009 -237.361979 
L 230.433144 -237.361979 
L 233.54828 -237.361979 
L 236.663416 -237.361979 
L 239.778551 -237.361979 
L 242.893687 -237.361979 
L 246.008823 -237.361979 
L 249.123958 -237.361979 
L 252.239094 -237.361979 
L 255.35423 -237.361979 
L 258.469366 -237.361979 
L 261.584501 -237.361979 
L 264.699637 -237.361979 
L 267.814773 -237.361979 
L 270.929908 -237.361979 
L 274.045044 -237.361979 
L 277.16018 -237.361979 
L 280.275315 -237.361979 
L 283.390451 -237.361979 
L 286.505587 -237.361979 
L 289.620722 -237.361979 
L 292.735858 -237.361979 
L 295.850994 -237.361979 
L 298.966129 -237.361979 
L 302.081265 -237.361979 
L 305.196401 -237.361979 
L 308.311536 -237.361979 
L 311.426672 -237.361979 
L 314.541808 -237.361979 
L 317.656943 -237.361979 
L 320.772079 -237.361979 
L 323.887215 -237.361979 
L 327.00235 -237.361979 
L 330.117486 -237.361979 
L 333.232622 -237.361979 
L 336.347757 -237.361979 
L 339.462893 -237.361979 
L 342.578029 -237.361979 
L 345.693165 -237.361979 
L 348.8083 -237.361979 
L 351.923436 -237.361979 
L 355.038572 -237.361979 
L 358.153707 -237.361979 
L 361.268843 -237.361979 
L 364.383979 -237.361979 
L 367.499114 -237.361979 
L 370.61425 -237.361979 
L 373.729386 -237.361979 
L 376.844521 -237.361979 
L 379.959657 -237.361979 
L 383.074793 -237.361979 
L 386.189928 -237.361979 
L 389.305064 -237.361979 
L 392.4202 -237.361979 
L 395.535335 -237.361979 
L 398.650471 -237.361979 
L 401.765607 -237.361979 
L 404.880742 -237.361979 
L 407.995878 -237.361979 
L 411.111014 -237.361979 
L 414.226149 -237.361979 
L 417.341285 -237.361979 
L 420.456421 -237.361979 
L 423.571556 -237.361979 
L 426.686692 -237.361979 
L 429.801828 -237.361979 
L 432.916964 -237.361979 
L 436.032099 -237.361979 
L 439.147235 -237.361979 
L 442.262371 -237.361979 
L 445.377506 -237.361979 
L 448.492642 -237.361979 
L 451.607778 -237.361979 
L 454.722913 -237.361979 
L 457.838049 -237.361979 
L 460.953185 -237.361979 
L 464.06832 -237.361979 
L 467.183456 -237.361979 
L 470.298592 -237.361979 
L 473.413727 -237.361979 
L 476.528863 -237.361979 
L 479.643999 -237.361979 
L 482.759134 -237.361979 
L 485.87427 -237.361979 
L 488.989406 -237.361979 
L 492.104541 -237.361979 
L 495.219677 -237.361979 
L 498.334813 -237.361979 
L 501.449948 -237.361979 
L 504.565084 -237.361979 
L 507.68022 -237.361979 
L 510.795355 -237.361979 
L 513.910491 -237.361979 
L 517.025627 -237.361979 
L 520.140763 -237.361979 
L 523.255898 -237.361979 
L 526.371034 -237.361979 
L 529.48617 -237.361979 
L 532.601305 -237.361979 
L 535.716441 -237.361979 
L 538.831577 -237.361979 
L 541.946712 -237.361979 
L 545.061848 -237.361979 
L 548.176984 -237.361979 
L 551.292119 -237.361979 
L 554.407255 -237.361979 
L 557.522391 -237.361979 
L 560.637526 -237.361979 
L 563.752662 -237.361979 
L 566.867798 -237.361979 
L 569.982933 -237.361979 
L 573.098069 -237.361979 
L 576.213205 -237.361979 
L 579.32834 -237.361979 
L 582.443476 -237.361979 
L 585.558612 -237.361979 
L 588.673747 -237.361979 
L 591.788883 -237.361979 
L 594.904019 -237.361979 
L 598.019154 -237.361979 
L 601.13429 -237.361979 
L 604.249426 -237.361979 
L 607.364562 -237.361979 
L 610.479697 -237.361979 
L 613.594833 -237.361979 
L 616.709969 -237.361979 
L 619.825104 -237.361979 
L 622.94024 -237.361979 
L 626.055376 -237.361979 
L 629.170511 -237.361979 
L 632.285647 -237.361979 
L 635.400783 -237.361979 
L 638.515918 -237.361979 
L 641.631054 -237.361979 
L 644.74619 -237.361979 
L 647.861325 -237.361979 
L 650.976461 -237.361979 
L 654.091597 -237.361979 
L 657.206732 -237.361979 
L 660.321868 -237.361979 
L 663.437004 -237.361979 
L 666.552139 -237.361979 
L 669.667275 -237.361979 
L 672.782411 -237.361979 
L 675.897546 -237.361979 
L 679.012682 -237.361979 
L 682.127818 -237.361979 
L 685.242953 -237.361979 
L 688.358089 -237.361979 
L 691.473225 -237.361979 
L 694.588361 -237.361979 
L 697.703496 -237.361979 
L 700.818632 -237.361979 
L 703.933768 -237.361979 
L 707.048903 -237.361979 
L 710.164039 -237.361979 
L 713.279175 -237.361979 
L 716.39431 -237.361979 
L 719.509446 -237.361979 
L 722.624582 -237.361979 
L 725.739717 -237.361979 
L 728.854853 -237.361979 
L 731.969989 -237.361979 
L 735.085124 -237.361979 
L 738.20026 -237.361979 
L 738.20026 -245.000994 
L 738.20026 -245.000994 
L 735.085124 -245.366545 
L 731.969989 -245.739436 
L 728.854853 -246.119091 
L 725.739717 -246.504848 
L 722.624582 -246.895965 
L 719.509446 -247.291608 
L 716.39431 -247.690856 
L 713.279175 -248.092697 
L 710.164039 -248.496029 
L 707.048903 -248.899663 
L 703.933768 -249.302327 
L 700.818632 -249.702669 
L 697.703496 -250.099267 
L 694.588361 -250.490637 
L 691.473225 -250.87524 
L 688.358089 -251.251499 
L 685.242953 -251.617805 
L 682.127818 -251.972539 
L 679.012682 -252.314078 
L 675.897546 -252.640818 
L 672.782411 -252.951188 
L 669.667275 -253.243662 
L 666.552139 -253.516783 
L 663.437004 -253.769174 
L 660.321868 -253.999553 
L 657.206732 -254.206753 
L 654.091597 -254.38973 
L 650.976461 -254.547578 
L 647.861325 -254.67954 
L 644.74619 -254.785019 
L 641.631054 -254.863581 
L 638.515918 -254.914965 
L 635.400783 -254.939088 
L 632.285647 -254.936041 
L 629.170511 -254.906095 
L 626.055376 -254.849695 
L 622.94024 -254.767459 
L 619.825104 -254.66017 
L 616.709969 -254.528769 
L 613.594833 -254.374348 
L 610.479697 -254.198138 
L 607.364562 -254.001499 
L 604.249426 -253.785905 
L 601.13429 -253.552932 
L 598.019154 -253.304246 
L 594.904019 -253.041587 
L 591.788883 -252.766752 
L 588.673747 -252.481586 
L 585.558612 -252.187962 
L 582.443476 -251.88777 
L 579.32834 -251.582901 
L 576.213205 -251.275234 
L 573.098069 -250.966627 
L 569.982933 -250.658898 
L 566.867798 -250.35382 
L 563.752662 -250.053106 
L 560.637526 -249.758403 
L 557.522391 -249.471281 
L 554.407255 -249.193226 
L 551.292119 -248.925632 
L 548.176984 -248.669798 
L 545.061848 -248.426918 
L 541.946712 -248.198081 
L 538.831577 -247.984264 
L 535.716441 -247.78633 
L 532.601305 -247.605027 
L 529.48617 -247.440986 
L 526.371034 -247.294717 
L 523.255898 -247.166611 
L 520.140763 -247.056941 
L 517.025627 -246.96586 
L 513.910491 -246.893403 
L 510.795355 -246.839492 
L 507.68022 -246.803931 
L 504.565084 -246.786416 
L 501.449948 -246.786536 
L 498.334813 -246.803776 
L 495.219677 -246.837521 
L 492.104541 -246.887064 
L 488.989406 -246.951612 
L 485.87427 -247.030291 
L 482.759134 -247.122155 
L 479.643999 -247.226191 
L 476.528863 -247.341335 
L 473.413727 -247.466474 
L 470.298592 -247.600461 
L 467.183456 -247.742125 
L 464.06832 -247.890283 
L 460.953185 -248.043751 
L 457.838049 -248.201357 
L 454.722913 -248.361953 
L 451.607778 -248.52443 
L 448.492642 -248.687727 
L 445.377506 -248.850849 
L 442.262371 -249.012874 
L 439.147235 -249.172969 
L 436.032099 -249.330399 
L 432.916964 -249.484539 
L 429.801828 -249.634883 
L 426.686692 -249.781052 
L 423.571556 -249.922804 
L 420.456421 -250.060036 
L 417.341285 -250.192792 
L 414.226149 -250.321268 
L 411.111014 -250.445808 
L 407.995878 -250.566908 
L 404.880742 -250.685216 
L 401.765607 -250.801526 
L 398.650471 -250.916776 
L 395.535335 -251.032041 
L 392.4202 -251.14853 
L 389.305064 -251.267571 
L 386.189928 -251.39061 
L 383.074793 -251.519197 
L 379.959657 -251.654975 
L 376.844521 -251.799676 
L 373.729386 -251.955101 
L 370.61425 -252.123119 
L 367.499114 -252.305651 
L 364.383979 -252.504659 
L 361.268843 -252.722144 
L 358.153707 -252.960128 
L 355.038572 -253.220654 
L 351.923436 -253.505776 
L 348.8083 -253.817551 
L 345.693165 -254.158039 
L 342.578029 -254.529294 
L 339.462893 -254.933363 
L 336.347757 -255.372283 
L 333.232622 -255.848079 
L 330.117486 -256.362759 
L 327.00235 -256.918316 
L 323.887215 -257.516722 
L 320.772079 -258.159926 
L 317.656943 -258.849851 
L 314.541808 -259.588386 
L 311.426672 -260.377381 
L 308.311536 -261.218638 
L 305.196401 -262.113897 
L 302.081265 -263.064826 
L 298.966129 -264.073003 
L 295.850994 -265.139894 
L 292.735858 -266.266836 
L 289.620722 -267.455007 
L 286.505587 -268.705401 
L 283.390451 -270.018793 
L 280.275315 -271.395709 
L 277.16018 -272.83639 
L 274.045044 -274.340748 
L 270.929908 -275.908335 
L 267.814773 -277.538298 
L 264.699637 -279.229338 
L 261.584501 -280.979674 
L 258.469366 -282.787 
L 255.35423 -284.648454 
L 252.239094 -286.560582 
L 249.123958 -288.519311 
L 246.008823 -290.519923 
L 242.893687 -292.557044 
L 239.778551 -294.624625 
L 236.663416 -296.715948 
L 233.54828 -298.823626 
L 230.433144 -300.939621 
L 227.318009 -303.05527 
L 224.202873 -305.161317 
L 221.087737 -307.247962 
L 217.972602 -309.304915 
L 214.857466 -311.321466 
L 211.74233 -313.286554 
L 208.627195 -315.188861 
L 205.512059 -317.016902 
L 202.396923 -318.759128 
L 199.281788 -320.404036 
L 196.166652 -321.94028 
L 193.051516 -323.356792 
L 189.936381 -324.642903 
L 186.821245 -325.788456 
L 183.706109 -326.783935 
L 180.590974 -327.620572 
L 177.475838 -328.290462 
L 174.360702 -328.786666 
L 171.245567 -329.103301 
L 168.130431 -329.235631 
L 165.015295 -329.180133 
L 161.900159 -328.934557 
L 158.785024 -328.497971 
L 155.669888 -327.870785 
L 152.554752 -327.054768 
L 149.439617 -326.053039 
L 146.324481 -324.870049 
L 143.209345 -323.511539 
L 140.09421 -321.984487 
L 136.979074 -320.297041 
L 133.863938 -318.458433 
L 130.748803 -316.478879 
L 127.633667 -314.36948 
L 124.518531 -312.142094 
L 121.403396 -309.809216 
L 118.28826 -307.383846 
z
" style="stroke: #e95c47"/>
    </defs>
    <g clip-path="url(#p10fbf4b839)">
     <use xlink:href="#maad2373b58" x="0" y="349.055313" style="fill: #e95c47; fill-opacity: 0.5; stroke: #e95c47"/>
    </g>
   </g>
   <g id="matplotlib.axis_1">
    <g id="xtick_1">
     <g id="line2d_1">
      <defs>
       <path id="m9501e158b3" d="M 0 0 
L 0 3.5 
" style="stroke: #000000; stroke-width: 0.8"/>
      </defs>
      <g>
       <use xlink:href="#m9501e158b3" x="118.28826" y="111.693333" style="stroke: #000000; stroke-width: 0.8"/>
      </g>
     </g>
    </g>
    <g id="xtick_2">
     <g id="line2d_2">
      <g>
       <use xlink:href="#m9501e158b3" x="242.27066" y="111.693333" style="stroke: #000000; stroke-width: 0.8"/>
      </g>
     </g>
    </g>
    <g id="xtick_3">
     <g id="line2d_3">
      <g>
       <use xlink:href="#m9501e158b3" x="366.25306" y="111.693333" style="stroke: #000000; stroke-width: 0.8"/>
      </g>
     </g>
    </g>
    <g id="xtick_4">
     <g id="line2d_4">
      <g>
       <use xlink:href="#m9501e158b3" x="490.23546" y="111.693333" style="stroke: #000000; stroke-width: 0.8"/>
      </g>
     </g>
    </g>
    <g id="xtick_5">
     <g id="line2d_5">
      <g>
       <use xlink:href="#m9501e158b3" x="614.21786" y="111.693333" style="stroke: #000000; stroke-width: 0.8"/>
      </g>
     </g>
    </g>
    <g id="xtick_6">
     <g id="line2d_6">
      <g>
       <use xlink:href="#m9501e158b3" x="738.20026" y="111.693333" style="stroke: #000000; stroke-width: 0.8"/>
      </g>
     </g>
    </g>
   </g>
   <g id="matplotlib.axis_2"/>
   <g id="line2d_7">
    <path d="M 118.28826 41.671467 
L 124.518531 36.913218 
L 130.748803 32.576433 
L 133.863938 30.59688 
L 136.979074 28.758271 
L 140.09421 27.070825 
L 143.209345 25.543774 
L 146.324481 24.185263 
L 149.439617 23.002273 
L 152.554752 22.000545 
L 155.669888 21.184528 
L 158.785024 20.557342 
L 161.900159 20.120755 
L 165.015295 19.875179 
L 168.130431 19.819681 
L 171.245567 19.952011 
L 174.360702 20.268647 
L 177.475838 20.76485 
L 180.590974 21.43474 
L 183.706109 22.271377 
L 186.821245 23.266856 
L 189.936381 24.41241 
L 193.051516 25.69852 
L 199.281788 28.651277 
L 205.512059 32.038411 
L 211.74233 35.768759 
L 217.972602 39.750397 
L 227.318009 46.000043 
L 242.893687 56.498269 
L 252.239094 62.49473 
L 258.469366 66.268313 
L 264.699637 69.825975 
L 270.929908 73.146977 
L 277.16018 76.218923 
L 283.390451 79.03652 
L 289.620722 81.600305 
L 295.850994 83.915419 
L 302.081265 85.990486 
L 308.311536 87.836675 
L 314.541808 89.466927 
L 320.772079 90.895386 
L 327.00235 92.136996 
L 333.232622 93.207234 
L 342.578029 94.526019 
L 351.923436 95.549537 
L 361.268843 96.333169 
L 373.729386 97.100211 
L 389.305064 97.787741 
L 429.801828 99.420429 
L 485.87427 102.025021 
L 498.334813 102.251537 
L 510.795355 102.215821 
L 520.140763 101.998372 
L 532.601305 101.450285 
L 545.061848 100.628394 
L 557.522391 99.584032 
L 579.32834 97.472412 
L 598.019154 95.751066 
L 610.479697 94.857174 
L 619.825104 94.395143 
L 629.170511 94.149217 
L 638.515918 94.140347 
L 647.861325 94.375772 
L 657.206732 94.848559 
L 666.552139 95.538529 
L 679.012682 96.741234 
L 691.473225 98.180072 
L 716.39431 101.364457 
L 738.20026 104.054319 
L 738.20026 104.054319 
" clip-path="url(#p10fbf4b839)" style="fill: none; stroke: #ffffff; stroke-width: 2; stroke-linecap: square"/>
   </g>
   <g id="line2d_8">
    <path d="M 118.28826 111.693333 
L 738.20026 111.693333 
" style="fill: none; stroke: #000000; stroke-linecap: square"/>
   </g>
   <g id="text_1">
    <g id="patch_3">
     <path d="M 8.5725 121.103021 
L 57.1575 121.103021 
L 57.1575 102.283646 
L 8.5725 102.283646 
z
" style="fill: #ffffff; opacity: 0.5"/>
    </g>
    <!-- Potatoes -->
    <g transform="translate(12.5325 114.576146) scale(0.12 -0.12)">
     <defs>
      <path id="TimesNewRomanPSMT-50" d="M 1313 1984 
L 1313 750 
Q 1313 350 1400 253 
Q 1519 116 1759 116 
L 1922 116 
L 1922 0 
L 106 0 
L 106 116 
L 266 116 
Q 534 116 650 291 
Q 713 388 713 750 
L 713 3488 
Q 713 3888 628 3984 
Q 506 4122 266 4122 
L 106 4122 
L 106 4238 
L 1659 4238 
Q 2228 4238 2556 4120 
Q 2884 4003 3109 3725 
Q 3334 3447 3334 3066 
Q 3334 2547 2992 2222 
Q 2650 1897 2025 1897 
Q 1872 1897 1694 1919 
Q 1516 1941 1313 1984 
z
M 1313 2163 
Q 1478 2131 1606 2115 
Q 1734 2100 1825 2100 
Q 2150 2100 2386 2351 
Q 2622 2603 2622 3003 
Q 2622 3278 2509 3514 
Q 2397 3750 2190 3867 
Q 1984 3984 1722 3984 
Q 1563 3984 1313 3925 
L 1313 2163 
z
" transform="scale(0.015625)"/>
      <path id="TimesNewRomanPSMT-6f" d="M 1600 2947 
Q 2250 2947 2644 2453 
Q 2978 2031 2978 1484 
Q 2978 1100 2793 706 
Q 2609 313 2286 112 
Q 1963 -88 1566 -88 
Q 919 -88 538 428 
Q 216 863 216 1403 
Q 216 1797 411 2186 
Q 606 2575 925 2761 
Q 1244 2947 1600 2947 
z
M 1503 2744 
Q 1338 2744 1170 2645 
Q 1003 2547 900 2300 
Q 797 2053 797 1666 
Q 797 1041 1045 587 
Q 1294 134 1700 134 
Q 2003 134 2200 384 
Q 2397 634 2397 1244 
Q 2397 2006 2069 2444 
Q 1847 2744 1503 2744 
z
" transform="scale(0.015625)"/>
      <path id="TimesNewRomanPSMT-74" d="M 1031 3803 
L 1031 2863 
L 1700 2863 
L 1700 2644 
L 1031 2644 
L 1031 788 
Q 1031 509 1111 412 
Q 1191 316 1316 316 
Q 1419 316 1516 380 
Q 1613 444 1666 569 
L 1788 569 
Q 1678 263 1478 108 
Q 1278 -47 1066 -47 
Q 922 -47 784 33 
Q 647 113 581 261 
Q 516 409 516 719 
L 516 2644 
L 63 2644 
L 63 2747 
Q 234 2816 414 2980 
Q 594 3144 734 3369 
Q 806 3488 934 3803 
L 1031 3803 
z
" transform="scale(0.015625)"/>
      <path id="TimesNewRomanPSMT-61" d="M 1822 413 
Q 1381 72 1269 19 
Q 1100 -59 909 -59 
Q 613 -59 420 144 
Q 228 347 228 678 
Q 228 888 322 1041 
Q 450 1253 767 1440 
Q 1084 1628 1822 1897 
L 1822 2009 
Q 1822 2438 1686 2597 
Q 1550 2756 1291 2756 
Q 1094 2756 978 2650 
Q 859 2544 859 2406 
L 866 2225 
Q 866 2081 792 2003 
Q 719 1925 600 1925 
Q 484 1925 411 2006 
Q 338 2088 338 2228 
Q 338 2497 613 2722 
Q 888 2947 1384 2947 
Q 1766 2947 2009 2819 
Q 2194 2722 2281 2516 
Q 2338 2381 2338 1966 
L 2338 994 
Q 2338 584 2353 492 
Q 2369 400 2405 369 
Q 2441 338 2488 338 
Q 2538 338 2575 359 
Q 2641 400 2828 588 
L 2828 413 
Q 2478 -56 2159 -56 
Q 2006 -56 1915 50 
Q 1825 156 1822 413 
z
M 1822 616 
L 1822 1706 
Q 1350 1519 1213 1441 
Q 966 1303 859 1153 
Q 753 1003 753 825 
Q 753 600 887 451 
Q 1022 303 1197 303 
Q 1434 303 1822 616 
z
" transform="scale(0.015625)"/>
      <path id="TimesNewRomanPSMT-65" d="M 681 1784 
Q 678 1147 991 784 
Q 1303 422 1725 422 
Q 2006 422 2214 576 
Q 2422 731 2563 1106 
L 2659 1044 
Q 2594 616 2278 264 
Q 1963 -88 1488 -88 
Q 972 -88 605 314 
Q 238 716 238 1394 
Q 238 2128 614 2539 
Q 991 2950 1559 2950 
Q 2041 2950 2350 2633 
Q 2659 2316 2659 1784 
L 681 1784 
z
M 681 1966 
L 2006 1966 
Q 1991 2241 1941 2353 
Q 1863 2528 1708 2628 
Q 1553 2728 1384 2728 
Q 1125 2728 920 2526 
Q 716 2325 681 1966 
z
" transform="scale(0.015625)"/>
      <path id="TimesNewRomanPSMT-73" d="M 2050 2947 
L 2050 1972 
L 1947 1972 
Q 1828 2431 1642 2597 
Q 1456 2763 1169 2763 
Q 950 2763 815 2647 
Q 681 2531 681 2391 
Q 681 2216 781 2091 
Q 878 1963 1175 1819 
L 1631 1597 
Q 2266 1288 2266 781 
Q 2266 391 1970 151 
Q 1675 -88 1309 -88 
Q 1047 -88 709 6 
Q 606 38 541 38 
Q 469 38 428 -44 
L 325 -44 
L 325 978 
L 428 978 
Q 516 541 762 319 
Q 1009 97 1316 97 
Q 1531 97 1667 223 
Q 1803 350 1803 528 
Q 1803 744 1651 891 
Q 1500 1038 1047 1263 
Q 594 1488 453 1669 
Q 313 1847 313 2119 
Q 313 2472 555 2709 
Q 797 2947 1181 2947 
Q 1350 2947 1591 2875 
Q 1750 2828 1803 2828 
Q 1853 2828 1881 2850 
Q 1909 2872 1947 2947 
L 2050 2947 
z
" transform="scale(0.015625)"/>
     </defs>
     <use xlink:href="#TimesNewRomanPSMT-50"/>
     <use xlink:href="#TimesNewRomanPSMT-6f" transform="translate(55.615234 0)"/>
     <use xlink:href="#TimesNewRomanPSMT-74" transform="translate(105.615234 0)"/>
     <use xlink:href="#TimesNewRomanPSMT-61" transform="translate(133.398438 0)"/>
     <use xlink:href="#TimesNewRomanPSMT-74" transform="translate(177.783203 0)"/>
     <use xlink:href="#TimesNewRomanPSMT-6f" transform="translate(205.566406 0)"/>
     <use xlink:href="#TimesNewRomanPSMT-65" transform="translate(255.566406 0)"/>
     <use xlink:href="#TimesNewRomanPSMT-73" transform="translate(299.951172 0)"/>
    </g>
   </g>
  </g>
  <g id="axes_2">
   <g id="patch_4">
    <path d="M 118.28826 160.58 
L 738.20026 160.58 
L 738.20026 62.806667 
L 118.28826 62.806667 
L 118.28826 160.58 
z
" style="fill: none; opacity: 0"/>
   </g>
   <g id="FillBetweenPolyCollection_2">
    <defs>
     <path id="m9ba01bef7f" d="M 118.28826 -203.989006 
L 118.28826 -188.475313 
L 121.403396 -188.475313 
L 124.518531 -188.475313 
L 127.633667 -188.475313 
L 130.748803 -188.475313 
L 133.863938 -188.475313 
L 136.979074 -188.475313 
L 140.09421 -188.475313 
L 143.209345 -188.475313 
L 146.324481 -188.475313 
L 149.439617 -188.475313 
L 152.554752 -188.475313 
L 155.669888 -188.475313 
L 158.785024 -188.475313 
L 161.900159 -188.475313 
L 165.015295 -188.475313 
L 168.130431 -188.475313 
L 171.245567 -188.475313 
L 174.360702 -188.475313 
L 177.475838 -188.475313 
L 180.590974 -188.475313 
L 183.706109 -188.475313 
L 186.821245 -188.475313 
L 189.936381 -188.475313 
L 193.051516 -188.475313 
L 196.166652 -188.475313 
L 199.281788 -188.475313 
L 202.396923 -188.475313 
L 205.512059 -188.475313 
L 208.627195 -188.475313 
L 211.74233 -188.475313 
L 214.857466 -188.475313 
L 217.972602 -188.475313 
L 221.087737 -188.475313 
L 224.202873 -188.475313 
L 227.318009 -188.475313 
L 230.433144 -188.475313 
L 233.54828 -188.475313 
L 236.663416 -188.475313 
L 239.778551 -188.475313 
L 242.893687 -188.475313 
L 246.008823 -188.475313 
L 249.123958 -188.475313 
L 252.239094 -188.475313 
L 255.35423 -188.475313 
L 258.469366 -188.475313 
L 261.584501 -188.475313 
L 264.699637 -188.475313 
L 267.814773 -188.475313 
L 270.929908 -188.475313 
L 274.045044 -188.475313 
L 277.16018 -188.475313 
L 280.275315 -188.475313 
L 283.390451 -188.475313 
L 286.505587 -188.475313 
L 289.620722 -188.475313 
L 292.735858 -188.475313 
L 295.850994 -188.475313 
L 298.966129 -188.475313 
L 302.081265 -188.475313 
L 305.196401 -188.475313 
L 308.311536 -188.475313 
L 311.426672 -188.475313 
L 314.541808 -188.475313 
L 317.656943 -188.475313 
L 320.772079 -188.475313 
L 323.887215 -188.475313 
L 327.00235 -188.475313 
L 330.117486 -188.475313 
L 333.232622 -188.475313 
L 336.347757 -188.475313 
L 339.462893 -188.475313 
L 342.578029 -188.475313 
L 345.693165 -188.475313 
L 348.8083 -188.475313 
L 351.923436 -188.475313 
L 355.038572 -188.475313 
L 358.153707 -188.475313 
L 361.268843 -188.475313 
L 364.383979 -188.475313 
L 367.499114 -188.475313 
L 370.61425 -188.475313 
L 373.729386 -188.475313 
L 376.844521 -188.475313 
L 379.959657 -188.475313 
L 383.074793 -188.475313 
L 386.189928 -188.475313 
L 389.305064 -188.475313 
L 392.4202 -188.475313 
L 395.535335 -188.475313 
L 398.650471 -188.475313 
L 401.765607 -188.475313 
L 404.880742 -188.475313 
L 407.995878 -188.475313 
L 411.111014 -188.475313 
L 414.226149 -188.475313 
L 417.341285 -188.475313 
L 420.456421 -188.475313 
L 423.571556 -188.475313 
L 426.686692 -188.475313 
L 429.801828 -188.475313 
L 432.916964 -188.475313 
L 436.032099 -188.475313 
L 439.147235 -188.475313 
L 442.262371 -188.475313 
L 445.377506 -188.475313 
L 448.492642 -188.475313 
L 451.607778 -188.475313 
L 454.722913 -188.475313 
L 457.838049 -188.475313 
L 460.953185 -188.475313 
L 464.06832 -188.475313 
L 467.183456 -188.475313 
L 470.298592 -188.475313 
L 473.413727 -188.475313 
L 476.528863 -188.475313 
L 479.643999 -188.475313 
L 482.759134 -188.475313 
L 485.87427 -188.475313 
L 488.989406 -188.475313 
L 492.104541 -188.475313 
L 495.219677 -188.475313 
L 498.334813 -188.475313 
L 501.449948 -188.475313 
L 504.565084 -188.475313 
L 507.68022 -188.475313 
L 510.795355 -188.475313 
L 513.910491 -188.475313 
L 517.025627 -188.475313 
L 520.140763 -188.475313 
L 523.255898 -188.475313 
L 526.371034 -188.475313 
L 529.48617 -188.475313 
L 532.601305 -188.475313 
L 535.716441 -188.475313 
L 538.831577 -188.475313 
L 541.946712 -188.475313 
L 545.061848 -188.475313 
L 548.176984 -188.475313 
L 551.292119 -188.475313 
L 554.407255 -188.475313 
L 557.522391 -188.475313 
L 560.637526 -188.475313 
L 563.752662 -188.475313 
L 566.867798 -188.475313 
L 569.982933 -188.475313 
L 573.098069 -188.475313 
L 576.213205 -188.475313 
L 579.32834 -188.475313 
L 582.443476 -188.475313 
L 585.558612 -188.475313 
L 588.673747 -188.475313 
L 591.788883 -188.475313 
L 594.904019 -188.475313 
L 598.019154 -188.475313 
L 601.13429 -188.475313 
L 604.249426 -188.475313 
L 607.364562 -188.475313 
L 610.479697 -188.475313 
L 613.594833 -188.475313 
L 616.709969 -188.475313 
L 619.825104 -188.475313 
L 622.94024 -188.475313 
L 626.055376 -188.475313 
L 629.170511 -188.475313 
L 632.285647 -188.475313 
L 635.400783 -188.475313 
L 638.515918 -188.475313 
L 641.631054 -188.475313 
L 644.74619 -188.475313 
L 647.861325 -188.475313 
L 650.976461 -188.475313 
L 654.091597 -188.475313 
L 657.206732 -188.475313 
L 660.321868 -188.475313 
L 663.437004 -188.475313 
L 666.552139 -188.475313 
L 669.667275 -188.475313 
L 672.782411 -188.475313 
L 675.897546 -188.475313 
L 679.012682 -188.475313 
L 682.127818 -188.475313 
L 685.242953 -188.475313 
L 688.358089 -188.475313 
L 691.473225 -188.475313 
L 694.588361 -188.475313 
L 697.703496 -188.475313 
L 700.818632 -188.475313 
L 703.933768 -188.475313 
L 707.048903 -188.475313 
L 710.164039 -188.475313 
L 713.279175 -188.475313 
L 716.39431 -188.475313 
L 719.509446 -188.475313 
L 722.624582 -188.475313 
L 725.739717 -188.475313 
L 728.854853 -188.475313 
L 731.969989 -188.475313 
L 735.085124 -188.475313 
L 738.20026 -188.475313 
L 738.20026 -208.726271 
L 738.20026 -208.726271 
L 735.085124 -209.423831 
L 731.969989 -210.10937 
L 728.854853 -210.78161 
L 725.739717 -211.439458 
L 722.624582 -212.082013 
L 719.509446 -212.708567 
L 716.39431 -213.318602 
L 713.279175 -213.911788 
L 710.164039 -214.48797 
L 707.048903 -215.047158 
L 703.933768 -215.589515 
L 700.818632 -216.115335 
L 697.703496 -216.62503 
L 694.588361 -217.119104 
L 691.473225 -217.598133 
L 688.358089 -218.062746 
L 685.242953 -218.513599 
L 682.127818 -218.951354 
L 679.012682 -219.376659 
L 675.897546 -219.790125 
L 672.782411 -220.192313 
L 669.667275 -220.583714 
L 666.552139 -220.964734 
L 663.437004 -221.335686 
L 660.321868 -221.696779 
L 657.206732 -222.048111 
L 654.091597 -222.389667 
L 650.976461 -222.721318 
L 647.861325 -223.042821 
L 644.74619 -223.353828 
L 641.631054 -223.653888 
L 638.515918 -223.942459 
L 635.400783 -224.218919 
L 632.285647 -224.482577 
L 629.170511 -224.732693 
L 626.055376 -224.968486 
L 622.94024 -225.189156 
L 619.825104 -225.393902 
L 616.709969 -225.581935 
L 613.594833 -225.752499 
L 610.479697 -225.904889 
L 607.364562 -226.038465 
L 604.249426 -226.152673 
L 601.13429 -226.247053 
L 598.019154 -226.321262 
L 594.904019 -226.375078 
L 591.788883 -226.408417 
L 588.673747 -226.421338 
L 585.558612 -226.414054 
L 582.443476 -226.386936 
L 579.32834 -226.340514 
L 576.213205 -226.275484 
L 573.098069 -226.192701 
L 569.982933 -226.093182 
L 566.867798 -225.978098 
L 563.752662 -225.84877 
L 560.637526 -225.70666 
L 557.522391 -225.553362 
L 554.407255 -225.390593 
L 551.292119 -225.220177 
L 548.176984 -225.044038 
L 545.061848 -224.864183 
L 541.946712 -224.682688 
L 538.831577 -224.501684 
L 535.716441 -224.323343 
L 532.601305 -224.149863 
L 529.48617 -223.983453 
L 526.371034 -223.826319 
L 523.255898 -223.680647 
L 520.140763 -223.548594 
L 517.025627 -223.432267 
L 513.910491 -223.333715 
L 510.795355 -223.254914 
L 507.68022 -223.197751 
L 504.565084 -223.164012 
L 501.449948 -223.15537 
L 498.334813 -223.173369 
L 495.219677 -223.21941 
L 492.104541 -223.29474 
L 488.989406 -223.400434 
L 485.87427 -223.537383 
L 482.759134 -223.706281 
L 479.643999 -223.907604 
L 476.528863 -224.141605 
L 473.413727 -224.408291 
L 470.298592 -224.707418 
L 467.183456 -225.038472 
L 464.06832 -225.400662 
L 460.953185 -225.792908 
L 457.838049 -226.213837 
L 454.722913 -226.661772 
L 451.607778 -227.134735 
L 448.492642 -227.630445 
L 445.377506 -228.146321 
L 442.262371 -228.679489 
L 439.147235 -229.226795 
L 436.032099 -229.78482 
L 432.916964 -230.349894 
L 429.801828 -230.918124 
L 426.686692 -231.485419 
L 423.571556 -232.047517 
L 420.456421 -232.600025 
L 417.341285 -233.138448 
L 414.226149 -233.658234 
L 411.111014 -234.154812 
L 407.995878 -234.623638 
L 404.880742 -235.060235 
L 401.765607 -235.460241 
L 398.650471 -235.819453 
L 395.535335 -236.133868 
L 392.4202 -236.399727 
L 389.305064 -236.613558 
L 386.189928 -236.772208 
L 383.074793 -236.872884 
L 379.959657 -236.91318 
L 376.844521 -236.891108 
L 373.729386 -236.805117 
L 370.61425 -236.65412 
L 367.499114 -236.437502 
L 364.383979 -236.155131 
L 361.268843 -235.807369 
L 358.153707 -235.395065 
L 355.038572 -234.919557 
L 351.923436 -234.382662 
L 348.8083 -233.786664 
L 345.693165 -233.134295 
L 342.578029 -232.428718 
L 339.462893 -231.6735 
L 336.347757 -230.872585 
L 333.232622 -230.030264 
L 330.117486 -229.15114 
L 327.00235 -228.240092 
L 323.887215 -227.302236 
L 320.772079 -226.342885 
L 317.656943 -225.367504 
L 314.541808 -224.381668 
L 311.426672 -223.391015 
L 308.311536 -222.401201 
L 305.196401 -221.417848 
L 302.081265 -220.446505 
L 298.966129 -219.492592 
L 295.850994 -218.561359 
L 292.735858 -217.657835 
L 289.620722 -216.786789 
L 286.505587 -215.952679 
L 283.390451 -215.159616 
L 280.275315 -214.411327 
L 277.16018 -213.711112 
L 274.045044 -213.061819 
L 270.929908 -212.465812 
L 267.814773 -211.924948 
L 264.699637 -211.440558 
L 261.584501 -211.013434 
L 258.469366 -210.643818 
L 255.35423 -210.331402 
L 252.239094 -210.075328 
L 249.123958 -209.874202 
L 246.008823 -209.726104 
L 242.893687 -209.62861 
L 239.778551 -209.578823 
L 236.663416 -209.5734 
L 233.54828 -209.608594 
L 230.433144 -209.680294 
L 227.318009 -209.784072 
L 224.202873 -209.915234 
L 221.087737 -210.068873 
L 217.972602 -210.239927 
L 214.857466 -210.423232 
L 211.74233 -210.613584 
L 208.627195 -210.805795 
L 205.512059 -210.994752 
L 202.396923 -211.175471 
L 199.281788 -211.343151 
L 196.166652 -211.493223 
L 193.051516 -211.621399 
L 189.936381 -211.723713 
L 186.821245 -211.796558 
L 183.706109 -211.836717 
L 180.590974 -211.841392 
L 177.475838 -211.808222 
L 174.360702 -211.735299 
L 171.245567 -211.621177 
L 168.130431 -211.464874 
L 165.015295 -211.265866 
L 161.900159 -211.024086 
L 158.785024 -210.739899 
L 155.669888 -210.414093 
L 152.554752 -210.04785 
L 149.439617 -209.64272 
L 146.324481 -209.200592 
L 143.209345 -208.723656 
L 140.09421 -208.214373 
L 136.979074 -207.675433 
L 133.863938 -207.109718 
L 130.748803 -206.520266 
L 127.633667 -205.910226 
L 124.518531 -205.282824 
L 121.403396 -204.641328 
L 118.28826 -203.989006 
z
" style="stroke: #fdbf6f"/>
    </defs>
    <g clip-path="url(#p47448ce252)">
     <use xlink:href="#m9ba01bef7f" x="0" y="349.055313" style="fill: #fdbf6f; fill-opacity: 0.5; stroke: #fdbf6f"/>
    </g>
   </g>
   <g id="matplotlib.axis_3">
    <g id="xtick_7">
     <g id="line2d_9">
      <g>
       <use xlink:href="#m9501e158b3" x="118.28826" y="160.58" style="stroke: #000000; stroke-width: 0.8"/>
      </g>
     </g>
    </g>
    <g id="xtick_8">
     <g id="line2d_10">
      <g>
       <use xlink:href="#m9501e158b3" x="242.27066" y="160.58" style="stroke: #000000; stroke-width: 0.8"/>
      </g>
     </g>
    </g>
    <g id="xtick_9">
     <g id="line2d_11">
      <g>
       <use xlink:href="#m9501e158b3" x="366.25306" y="160.58" style="stroke: #000000; stroke-width: 0.8"/>
      </g>
     </g>
    </g>
    <g id="xtick_10">
     <g id="line2d_12">
      <g>
       <use xlink:href="#m9501e158b3" x="490.23546" y="160.58" style="stroke: #000000; stroke-width: 0.8"/>
      </g>
     </g>
    </g>
    <g id="xtick_11">
     <g id="line2d_13">
      <g>
       <use xlink:href="#m9501e158b3" x="614.21786" y="160.58" style="stroke: #000000; stroke-width: 0.8"/>
      </g>
     </g>
    </g>
    <g id="xtick_12">
     <g id="line2d_14">
      <g>
       <use xlink:href="#m9501e158b3" x="738.20026" y="160.58" style="stroke: #000000; stroke-width: 0.8"/>
      </g>
     </g>
    </g>
   </g>
   <g id="matplotlib.axis_4"/>
   <g id="line2d_15">
    <path d="M 118.28826 145.066307 
L 130.748803 142.535047 
L 140.09421 140.840939 
L 149.439617 139.412592 
L 155.669888 138.64122 
L 161.900159 138.031227 
L 168.130431 137.590439 
L 174.360702 137.320013 
L 180.590974 137.21392 
L 189.936381 137.331599 
L 199.281788 137.712162 
L 233.54828 139.446718 
L 239.778551 139.476489 
L 246.008823 139.329209 
L 252.239094 138.979984 
L 258.469366 138.411495 
L 264.699637 137.614754 
L 270.929908 136.589501 
L 277.16018 135.3442 
L 283.390451 133.895696 
L 289.620722 132.268524 
L 298.966129 129.56272 
L 311.426672 125.664297 
L 327.00235 120.815221 
L 336.347757 118.182728 
L 342.578029 116.626594 
L 348.8083 115.268649 
L 355.038572 114.135756 
L 361.268843 113.247944 
L 367.499114 112.617811 
L 373.729386 112.250195 
L 379.959657 112.142132 
L 386.189928 112.283104 
L 392.4202 112.655585 
L 398.650471 113.235859 
L 404.880742 113.995077 
L 414.226149 115.397079 
L 426.686692 117.569894 
L 445.377506 120.908992 
L 454.722913 122.393541 
L 464.06832 123.654651 
L 473.413727 124.647021 
L 482.759134 125.349032 
L 492.104541 125.760573 
L 501.449948 125.899942 
L 510.795355 125.800398 
L 523.255898 125.374665 
L 538.831577 124.553629 
L 563.752662 123.206543 
L 576.213205 122.779829 
L 585.558612 122.641258 
L 594.904019 122.680234 
L 604.249426 122.90264 
L 613.594833 123.302814 
L 626.055376 124.086827 
L 638.515918 125.112853 
L 654.091597 126.665645 
L 669.667275 128.471599 
L 682.127818 130.103958 
L 694.588361 131.936209 
L 707.048903 134.008154 
L 719.509446 136.346746 
L 731.969989 138.945942 
L 738.20026 140.329042 
L 738.20026 140.329042 
" clip-path="url(#p47448ce252)" style="fill: none; stroke: #ffffff; stroke-width: 2; stroke-linecap: square"/>
   </g>
   <g id="line2d_16">
    <path d="M 118.28826 160.58 
L 738.20026 160.58 
" style="fill: none; stroke: #000000; stroke-linecap: square"/>
   </g>
   <g id="text_2">
    <g id="patch_5">
     <path d="M 27.245625 169.989688 
L 57.1575 169.989688 
L 57.1575 151.170312 
L 27.245625 151.170312 
z
" style="fill: #ffffff; opacity: 0.5"/>
    </g>
    <!-- Rice -->
    <g transform="translate(31.205625 163.462812) scale(0.12 -0.12)">
     <defs>
      <path id="TimesNewRomanPSMT-52" d="M 4325 0 
L 3194 0 
L 1759 1981 
Q 1600 1975 1500 1975 
Q 1459 1975 1412 1976 
Q 1366 1978 1316 1981 
L 1316 750 
Q 1316 350 1403 253 
Q 1522 116 1759 116 
L 1925 116 
L 1925 0 
L 109 0 
L 109 116 
L 269 116 
Q 538 116 653 291 
Q 719 388 719 750 
L 719 3488 
Q 719 3888 631 3984 
Q 509 4122 269 4122 
L 109 4122 
L 109 4238 
L 1653 4238 
Q 2328 4238 2648 4139 
Q 2969 4041 3192 3777 
Q 3416 3513 3416 3147 
Q 3416 2756 3161 2468 
Q 2906 2181 2372 2063 
L 3247 847 
Q 3547 428 3762 290 
Q 3978 153 4325 116 
L 4325 0 
z
M 1316 2178 
Q 1375 2178 1419 2176 
Q 1463 2175 1491 2175 
Q 2097 2175 2405 2437 
Q 2713 2700 2713 3106 
Q 2713 3503 2464 3751 
Q 2216 4000 1806 4000 
Q 1625 4000 1316 3941 
L 1316 2178 
z
" transform="scale(0.015625)"/>
      <path id="TimesNewRomanPSMT-69" d="M 928 4444 
Q 1059 4444 1151 4351 
Q 1244 4259 1244 4128 
Q 1244 3997 1151 3903 
Q 1059 3809 928 3809 
Q 797 3809 703 3903 
Q 609 3997 609 4128 
Q 609 4259 701 4351 
Q 794 4444 928 4444 
z
M 1188 2947 
L 1188 647 
Q 1188 378 1227 289 
Q 1266 200 1342 156 
Q 1419 113 1622 113 
L 1622 0 
L 231 0 
L 231 113 
Q 441 113 512 153 
Q 584 194 626 287 
Q 669 381 669 647 
L 669 1750 
Q 669 2216 641 2353 
Q 619 2453 572 2492 
Q 525 2531 444 2531 
Q 356 2531 231 2484 
L 188 2597 
L 1050 2947 
L 1188 2947 
z
" transform="scale(0.015625)"/>
      <path id="TimesNewRomanPSMT-63" d="M 2631 1088 
Q 2516 522 2178 217 
Q 1841 -88 1431 -88 
Q 944 -88 581 321 
Q 219 731 219 1428 
Q 219 2103 620 2525 
Q 1022 2947 1584 2947 
Q 2006 2947 2278 2723 
Q 2550 2500 2550 2259 
Q 2550 2141 2473 2067 
Q 2397 1994 2259 1994 
Q 2075 1994 1981 2113 
Q 1928 2178 1911 2362 
Q 1894 2547 1784 2644 
Q 1675 2738 1481 2738 
Q 1169 2738 978 2506 
Q 725 2200 725 1697 
Q 725 1184 976 792 
Q 1228 400 1656 400 
Q 1963 400 2206 609 
Q 2378 753 2541 1131 
L 2631 1088 
z
" transform="scale(0.015625)"/>
     </defs>
     <use xlink:href="#TimesNewRomanPSMT-52"/>
     <use xlink:href="#TimesNewRomanPSMT-69" transform="translate(66.699219 0)"/>
     <use xlink:href="#TimesNewRomanPSMT-63" transform="translate(94.482422 0)"/>
     <use xlink:href="#TimesNewRomanPSMT-65" transform="translate(138.867188 0)"/>
    </g>
   </g>
  </g>
  <g id="axes_3">
   <g id="patch_6">
    <path d="M 118.28826 209.466667 
L 738.20026 209.466667 
L 738.20026 111.693333 
L 118.28826 111.693333 
L 118.28826 209.466667 
z
" style="fill: none; opacity: 0"/>
   </g>
   <g id="FillBetweenPolyCollection_3">
    <defs>
     <path id="m959e47568d" d="M 118.28826 -159.679713 
L 118.28826 -139.588646 
L 121.403396 -139.588646 
L 124.518531 -139.588646 
L 127.633667 -139.588646 
L 130.748803 -139.588646 
L 133.863938 -139.588646 
L 136.979074 -139.588646 
L 140.09421 -139.588646 
L 143.209345 -139.588646 
L 146.324481 -139.588646 
L 149.439617 -139.588646 
L 152.554752 -139.588646 
L 155.669888 -139.588646 
L 158.785024 -139.588646 
L 161.900159 -139.588646 
L 165.015295 -139.588646 
L 168.130431 -139.588646 
L 171.245567 -139.588646 
L 174.360702 -139.588646 
L 177.475838 -139.588646 
L 180.590974 -139.588646 
L 183.706109 -139.588646 
L 186.821245 -139.588646 
L 189.936381 -139.588646 
L 193.051516 -139.588646 
L 196.166652 -139.588646 
L 199.281788 -139.588646 
L 202.396923 -139.588646 
L 205.512059 -139.588646 
L 208.627195 -139.588646 
L 211.74233 -139.588646 
L 214.857466 -139.588646 
L 217.972602 -139.588646 
L 221.087737 -139.588646 
L 224.202873 -139.588646 
L 227.318009 -139.588646 
L 230.433144 -139.588646 
L 233.54828 -139.588646 
L 236.663416 -139.588646 
L 239.778551 -139.588646 
L 242.893687 -139.588646 
L 246.008823 -139.588646 
L 249.123958 -139.588646 
L 252.239094 -139.588646 
L 255.35423 -139.588646 
L 258.469366 -139.588646 
L 261.584501 -139.588646 
L 264.699637 -139.588646 
L 267.814773 -139.588646 
L 270.929908 -139.588646 
L 274.045044 -139.588646 
L 277.16018 -139.588646 
L 280.275315 -139.588646 
L 283.390451 -139.588646 
L 286.505587 -139.588646 
L 289.620722 -139.588646 
L 292.735858 -139.588646 
L 295.850994 -139.588646 
L 298.966129 -139.588646 
L 302.081265 -139.588646 
L 305.196401 -139.588646 
L 308.311536 -139.588646 
L 311.426672 -139.588646 
L 314.541808 -139.588646 
L 317.656943 -139.588646 
L 320.772079 -139.588646 
L 323.887215 -139.588646 
L 327.00235 -139.588646 
L 330.117486 -139.588646 
L 333.232622 -139.588646 
L 336.347757 -139.588646 
L 339.462893 -139.588646 
L 342.578029 -139.588646 
L 345.693165 -139.588646 
L 348.8083 -139.588646 
L 351.923436 -139.588646 
L 355.038572 -139.588646 
L 358.153707 -139.588646 
L 361.268843 -139.588646 
L 364.383979 -139.588646 
L 367.499114 -139.588646 
L 370.61425 -139.588646 
L 373.729386 -139.588646 
L 376.844521 -139.588646 
L 379.959657 -139.588646 
L 383.074793 -139.588646 
L 386.189928 -139.588646 
L 389.305064 -139.588646 
L 392.4202 -139.588646 
L 395.535335 -139.588646 
L 398.650471 -139.588646 
L 401.765607 -139.588646 
L 404.880742 -139.588646 
L 407.995878 -139.588646 
L 411.111014 -139.588646 
L 414.226149 -139.588646 
L 417.341285 -139.588646 
L 420.456421 -139.588646 
L 423.571556 -139.588646 
L 426.686692 -139.588646 
L 429.801828 -139.588646 
L 432.916964 -139.588646 
L 436.032099 -139.588646 
L 439.147235 -139.588646 
L 442.262371 -139.588646 
L 445.377506 -139.588646 
L 448.492642 -139.588646 
L 451.607778 -139.588646 
L 454.722913 -139.588646 
L 457.838049 -139.588646 
L 460.953185 -139.588646 
L 464.06832 -139.588646 
L 467.183456 -139.588646 
L 470.298592 -139.588646 
L 473.413727 -139.588646 
L 476.528863 -139.588646 
L 479.643999 -139.588646 
L 482.759134 -139.588646 
L 485.87427 -139.588646 
L 488.989406 -139.588646 
L 492.104541 -139.588646 
L 495.219677 -139.588646 
L 498.334813 -139.588646 
L 501.449948 -139.588646 
L 504.565084 -139.588646 
L 507.68022 -139.588646 
L 510.795355 -139.588646 
L 513.910491 -139.588646 
L 517.025627 -139.588646 
L 520.140763 -139.588646 
L 523.255898 -139.588646 
L 526.371034 -139.588646 
L 529.48617 -139.588646 
L 532.601305 -139.588646 
L 535.716441 -139.588646 
L 538.831577 -139.588646 
L 541.946712 -139.588646 
L 545.061848 -139.588646 
L 548.176984 -139.588646 
L 551.292119 -139.588646 
L 554.407255 -139.588646 
L 557.522391 -139.588646 
L 560.637526 -139.588646 
L 563.752662 -139.588646 
L 566.867798 -139.588646 
L 569.982933 -139.588646 
L 573.098069 -139.588646 
L 576.213205 -139.588646 
L 579.32834 -139.588646 
L 582.443476 -139.588646 
L 585.558612 -139.588646 
L 588.673747 -139.588646 
L 591.788883 -139.588646 
L 594.904019 -139.588646 
L 598.019154 -139.588646 
L 601.13429 -139.588646 
L 604.249426 -139.588646 
L 607.364562 -139.588646 
L 610.479697 -139.588646 
L 613.594833 -139.588646 
L 616.709969 -139.588646 
L 619.825104 -139.588646 
L 622.94024 -139.588646 
L 626.055376 -139.588646 
L 629.170511 -139.588646 
L 632.285647 -139.588646 
L 635.400783 -139.588646 
L 638.515918 -139.588646 
L 641.631054 -139.588646 
L 644.74619 -139.588646 
L 647.861325 -139.588646 
L 650.976461 -139.588646 
L 654.091597 -139.588646 
L 657.206732 -139.588646 
L 660.321868 -139.588646 
L 663.437004 -139.588646 
L 666.552139 -139.588646 
L 669.667275 -139.588646 
L 672.782411 -139.588646 
L 675.897546 -139.588646 
L 679.012682 -139.588646 
L 682.127818 -139.588646 
L 685.242953 -139.588646 
L 688.358089 -139.588646 
L 691.473225 -139.588646 
L 694.588361 -139.588646 
L 697.703496 -139.588646 
L 700.818632 -139.588646 
L 703.933768 -139.588646 
L 707.048903 -139.588646 
L 710.164039 -139.588646 
L 713.279175 -139.588646 
L 716.39431 -139.588646 
L 719.509446 -139.588646 
L 722.624582 -139.588646 
L 725.739717 -139.588646 
L 728.854853 -139.588646 
L 731.969989 -139.588646 
L 735.085124 -139.588646 
L 738.20026 -139.588646 
L 738.20026 -159.997927 
L 738.20026 -159.997927 
L 735.085124 -160.995569 
L 731.969989 -162.013337 
L 728.854853 -163.050521 
L 725.739717 -164.106418 
L 722.624582 -165.180335 
L 719.509446 -166.271587 
L 716.39431 -167.379489 
L 713.279175 -168.50336 
L 710.164039 -169.642506 
L 707.048903 -170.796215 
L 703.933768 -171.963749 
L 700.818632 -173.144326 
L 697.703496 -174.337113 
L 694.588361 -175.541209 
L 691.473225 -176.75563 
L 688.358089 -177.979297 
L 685.242953 -179.21102 
L 682.127818 -180.449485 
L 679.012682 -181.693239 
L 675.897546 -182.940686 
L 672.782411 -184.190068 
L 669.667275 -185.439466 
L 666.552139 -186.686791 
L 663.437004 -187.929785 
L 660.321868 -189.166019 
L 657.206732 -190.392898 
L 654.091597 -191.607672 
L 650.976461 -192.80744 
L 647.861325 -193.989169 
L 644.74619 -195.149709 
L 641.631054 -196.285809 
L 638.515918 -197.394145 
L 635.400783 -198.471335 
L 632.285647 -199.513974 
L 629.170511 -200.518652 
L 626.055376 -201.481986 
L 622.94024 -202.400646 
L 619.825104 -203.271381 
L 616.709969 -204.091048 
L 613.594833 -204.856634 
L 610.479697 -205.565284 
L 607.364562 -206.214316 
L 604.249426 -206.801247 
L 601.13429 -207.323803 
L 598.019154 -207.779938 
L 594.904019 -208.167842 
L 591.788883 -208.485947 
L 588.673747 -208.732937 
L 585.558612 -208.907746 
L 582.443476 -209.009558 
L 579.32834 -209.037805 
L 576.213205 -208.992163 
L 573.098069 -208.872543 
L 569.982933 -208.679088 
L 566.867798 -208.412158 
L 563.752662 -208.072327 
L 560.637526 -207.66037 
L 557.522391 -207.177257 
L 554.407255 -206.62414 
L 551.292119 -206.002353 
L 548.176984 -205.313397 
L 545.061848 -204.558941 
L 541.946712 -203.740814 
L 538.831577 -202.861004 
L 535.716441 -201.921654 
L 532.601305 -200.925061 
L 529.48617 -199.87368 
L 526.371034 -198.770114 
L 523.255898 -197.617125 
L 520.140763 -196.417627 
L 517.025627 -195.174687 
L 513.910491 -193.891522 
L 510.795355 -192.571499 
L 507.68022 -191.218129 
L 504.565084 -189.835059 
L 501.449948 -188.426067 
L 498.334813 -186.995048 
L 495.219677 -185.546003 
L 492.104541 -184.083025 
L 488.989406 -182.610278 
L 485.87427 -181.131982 
L 482.759134 -179.652386 
L 479.643999 -178.175748 
L 476.528863 -176.706311 
L 473.413727 -175.248273 
L 470.298592 -173.805763 
L 467.183456 -172.382813 
L 464.06832 -170.983331 
L 460.953185 -169.611076 
L 457.838049 -168.26963 
L 454.722913 -166.962373 
L 451.607778 -165.692465 
L 448.492642 -164.462821 
L 445.377506 -163.276097 
L 442.262371 -162.134672 
L 439.147235 -161.040636 
L 436.032099 -159.995784 
L 432.916964 -159.001603 
L 429.801828 -158.059279 
L 426.686692 -157.169688 
L 423.571556 -156.333404 
L 420.456421 -155.550704 
L 417.341285 -154.821579 
L 414.226149 -154.145742 
L 411.111014 -153.522645 
L 407.995878 -152.951494 
L 404.880742 -152.431267 
L 401.765607 -151.960731 
L 398.650471 -151.538465 
L 395.535335 -151.162882 
L 392.4202 -150.832246 
L 389.305064 -150.544701 
L 386.189928 -150.298285 
L 383.074793 -150.090957 
L 379.959657 -149.920619 
L 376.844521 -149.785132 
L 373.729386 -149.682338 
L 370.61425 -149.610081 
L 367.499114 -149.56622 
L 364.383979 -149.548647 
L 361.268843 -149.555305 
L 358.153707 -149.584194 
L 355.038572 -149.633392 
L 351.923436 -149.70106 
L 348.8083 -149.78545 
L 345.693165 -149.88492 
L 342.578029 -149.997933 
L 339.462893 -150.123066 
L 336.347757 -150.259014 
L 333.232622 -150.404591 
L 330.117486 -150.558735 
L 327.00235 -150.720506 
L 323.887215 -150.889086 
L 320.772079 -151.063778 
L 317.656943 -151.244006 
L 314.541808 -151.429308 
L 311.426672 -151.619335 
L 308.311536 -151.813846 
L 305.196401 -152.012702 
L 302.081265 -152.215862 
L 298.966129 -152.42337 
L 295.850994 -152.635355 
L 292.735858 -152.852018 
L 289.620722 -153.073624 
L 286.505587 -153.300492 
L 283.390451 -153.532983 
L 280.275315 -153.771493 
L 277.16018 -154.016434 
L 274.045044 -154.268229 
L 270.929908 -154.527293 
L 267.814773 -154.794021 
L 264.699637 -155.068774 
L 261.584501 -155.351866 
L 258.469366 -155.643547 
L 255.35423 -155.943988 
L 252.239094 -156.25327 
L 249.123958 -156.571365 
L 246.008823 -156.898128 
L 242.893687 -157.233277 
L 239.778551 -157.57639 
L 236.663416 -157.926886 
L 233.54828 -158.284021 
L 230.433144 -158.646882 
L 227.318009 -159.014377 
L 224.202873 -159.385236 
L 221.087737 -159.758008 
L 217.972602 -160.131068 
L 214.857466 -160.502616 
L 211.74233 -160.870689 
L 208.627195 -161.233169 
L 205.512059 -161.587802 
L 202.396923 -161.932207 
L 199.281788 -162.263904 
L 196.166652 -162.58033 
L 193.051516 -162.878865 
L 189.936381 -163.156864 
L 186.821245 -163.411676 
L 183.706109 -163.640685 
L 180.590974 -163.841332 
L 177.475838 -164.011153 
L 174.360702 -164.147806 
L 171.245567 -164.249106 
L 168.130431 -164.313053 
L 165.015295 -164.337863 
L 161.900159 -164.321993 
L 158.785024 -164.264163 
L 155.669888 -164.163382 
L 152.554752 -164.018963 
L 149.439617 -163.830537 
L 146.324481 -163.598065 
L 143.209345 -163.321841 
L 140.09421 -163.002495 
L 136.979074 -162.64099 
L 133.863938 -162.238614 
L 130.748803 -161.79697 
L 127.633667 -161.317956 
L 124.518531 -160.803749 
L 121.403396 -160.256782 
L 118.28826 -159.679713 
z
" style="stroke: #ffffbe"/>
    </defs>
    <g clip-path="url(#pebc42d1a28)">
     <use xlink:href="#m959e47568d" x="0" y="349.055313" style="fill: #ffffbe; fill-opacity: 0.5; stroke: #ffffbe"/>
    </g>
   </g>
   <g id="matplotlib.axis_5">
    <g id="xtick_13">
     <g id="line2d_17">
      <g>
       <use xlink:href="#m9501e158b3" x="118.28826" y="209.466667" style="stroke: #000000; stroke-width: 0.8"/>
      </g>
     </g>
    </g>
    <g id="xtick_14">
     <g id="line2d_18">
      <g>
       <use xlink:href="#m9501e158b3" x="242.27066" y="209.466667" style="stroke: #000000; stroke-width: 0.8"/>
      </g>
     </g>
    </g>
    <g id="xtick_15">
     <g id="line2d_19">
      <g>
       <use xlink:href="#m9501e158b3" x="366.25306" y="209.466667" style="stroke: #000000; stroke-width: 0.8"/>
      </g>
     </g>
    </g>
    <g id="xtick_16">
     <g id="line2d_20">
      <g>
       <use xlink:href="#m9501e158b3" x="490.23546" y="209.466667" style="stroke: #000000; stroke-width: 0.8"/>
      </g>
     </g>
    </g>
    <g id="xtick_17">
     <g id="line2d_21">
      <g>
       <use xlink:href="#m9501e158b3" x="614.21786" y="209.466667" style="stroke: #000000; stroke-width: 0.8"/>
      </g>
     </g>
    </g>
    <g id="xtick_18">
     <g id="line2d_22">
      <g>
       <use xlink:href="#m9501e158b3" x="738.20026" y="209.466667" style="stroke: #000000; stroke-width: 0.8"/>
      </g>
     </g>
    </g>
   </g>
   <g id="matplotlib.axis_6"/>
   <g id="line2d_23">
    <path d="M 118.28826 189.375599 
L 127.633667 187.737357 
L 133.863938 186.816698 
L 140.09421 186.052818 
L 146.324481 185.457247 
L 152.554752 185.03635 
L 158.785024 184.79115 
L 165.015295 184.717449 
L 171.245567 184.806207 
L 180.590974 185.21398 
L 189.936381 185.898449 
L 199.281788 186.791408 
L 214.857466 188.552696 
L 246.008823 192.157185 
L 261.584501 193.703447 
L 277.16018 195.038878 
L 295.850994 196.419958 
L 317.656943 197.811307 
L 336.347757 198.796299 
L 348.8083 199.269862 
L 361.268843 199.500008 
L 370.61425 199.445232 
L 379.959657 199.134694 
L 386.189928 198.757028 
L 392.4202 198.223066 
L 398.650471 197.516847 
L 404.880742 196.624046 
L 411.111014 195.532667 
L 417.341285 194.233734 
L 423.571556 192.721909 
L 429.801828 190.996033 
L 436.032099 189.059529 
L 442.262371 186.920641 
L 448.492642 184.592491 
L 457.838049 180.785683 
L 467.183456 176.6725 
L 479.643999 170.879564 
L 501.449948 160.629246 
L 510.795355 156.483813 
L 520.140763 152.637685 
L 526.371034 150.285198 
L 532.601305 148.130251 
L 538.831577 146.194309 
L 545.061848 144.496372 
L 551.292119 143.05296 
L 557.522391 141.878056 
L 563.752662 140.982985 
L 569.982933 140.376225 
L 576.213205 140.06315 
L 582.443476 140.045755 
L 588.673747 140.322375 
L 594.904019 140.887471 
L 601.13429 141.731509 
L 607.364562 142.840996 
L 613.594833 144.198678 
L 619.825104 145.783932 
L 626.055376 147.573326 
L 632.285647 149.541338 
L 641.631054 152.769503 
L 650.976461 156.247873 
L 663.437004 161.125527 
L 697.703496 174.718199 
L 710.164039 179.412807 
L 722.624582 183.874977 
L 735.085124 188.059744 
L 738.20026 189.057386 
L 738.20026 189.057386 
" clip-path="url(#pebc42d1a28)" style="fill: none; stroke: #ffffff; stroke-width: 2; stroke-linecap: square"/>
   </g>
   <g id="line2d_24">
    <path d="M 118.28826 209.466667 
L 738.20026 209.466667 
" style="fill: none; stroke: #000000; stroke-linecap: square"/>
   </g>
   <g id="text_3">
    <g id="patch_7">
     <path d="M 3.24 218.887604 
L 57.1575 218.887604 
L 57.1575 200.045729 
L 3.24 200.045729 
z
" style="fill: #ffffff; opacity: 0.5"/>
    </g>
    <!-- Soybeans -->
    <g transform="translate(7.2 212.338229) scale(0.12 -0.12)">
     <defs>
      <path id="TimesNewRomanPSMT-53" d="M 2934 4334 
L 2934 2869 
L 2819 2869 
Q 2763 3291 2617 3541 
Q 2472 3791 2203 3937 
Q 1934 4084 1647 4084 
Q 1322 4084 1109 3886 
Q 897 3688 897 3434 
Q 897 3241 1031 3081 
Q 1225 2847 1953 2456 
Q 2547 2138 2764 1967 
Q 2981 1797 3098 1565 
Q 3216 1334 3216 1081 
Q 3216 600 2842 251 
Q 2469 -97 1881 -97 
Q 1697 -97 1534 -69 
Q 1438 -53 1133 45 
Q 828 144 747 144 
Q 669 144 623 97 
Q 578 50 556 -97 
L 441 -97 
L 441 1356 
L 556 1356 
Q 638 900 775 673 
Q 913 447 1195 297 
Q 1478 147 1816 147 
Q 2206 147 2432 353 
Q 2659 559 2659 841 
Q 2659 997 2573 1156 
Q 2488 1316 2306 1453 
Q 2184 1547 1640 1851 
Q 1097 2156 867 2337 
Q 638 2519 519 2737 
Q 400 2956 400 3219 
Q 400 3675 750 4004 
Q 1100 4334 1641 4334 
Q 1978 4334 2356 4169 
Q 2531 4091 2603 4091 
Q 2684 4091 2736 4139 
Q 2788 4188 2819 4334 
L 2934 4334 
z
" transform="scale(0.015625)"/>
      <path id="TimesNewRomanPSMT-79" d="M 38 2863 
L 1372 2863 
L 1372 2747 
L 1306 2747 
Q 1166 2747 1095 2686 
Q 1025 2625 1025 2534 
Q 1025 2413 1128 2197 
L 1825 753 
L 2466 2334 
Q 2519 2463 2519 2588 
Q 2519 2644 2497 2672 
Q 2472 2706 2419 2726 
Q 2366 2747 2231 2747 
L 2231 2863 
L 3163 2863 
L 3163 2747 
Q 3047 2734 2984 2696 
Q 2922 2659 2847 2556 
Q 2819 2513 2741 2316 
L 1575 -541 
Q 1406 -956 1132 -1168 
Q 859 -1381 606 -1381 
Q 422 -1381 303 -1275 
Q 184 -1169 184 -1031 
Q 184 -900 270 -820 
Q 356 -741 506 -741 
Q 609 -741 788 -809 
Q 913 -856 944 -856 
Q 1038 -856 1148 -759 
Q 1259 -663 1372 -384 
L 1575 113 
L 547 2272 
Q 500 2369 397 2513 
Q 319 2622 269 2659 
Q 197 2709 38 2747 
L 38 2863 
z
" transform="scale(0.015625)"/>
      <path id="TimesNewRomanPSMT-62" d="M 984 2369 
Q 1400 2947 1881 2947 
Q 2322 2947 2650 2570 
Q 2978 2194 2978 1541 
Q 2978 778 2472 313 
Q 2038 -88 1503 -88 
Q 1253 -88 995 3 
Q 738 94 469 275 
L 469 3241 
Q 469 3728 445 3840 
Q 422 3953 372 3993 
Q 322 4034 247 4034 
Q 159 4034 28 3984 
L -16 4094 
L 844 4444 
L 984 4444 
L 984 2369 
z
M 984 2169 
L 984 456 
Q 1144 300 1314 220 
Q 1484 141 1663 141 
Q 1947 141 2192 453 
Q 2438 766 2438 1363 
Q 2438 1913 2192 2208 
Q 1947 2503 1634 2503 
Q 1469 2503 1303 2419 
Q 1178 2356 984 2169 
z
" transform="scale(0.015625)"/>
      <path id="TimesNewRomanPSMT-6e" d="M 1034 2341 
Q 1538 2947 1994 2947 
Q 2228 2947 2397 2830 
Q 2566 2713 2666 2444 
Q 2734 2256 2734 1869 
L 2734 647 
Q 2734 375 2778 278 
Q 2813 200 2889 156 
Q 2966 113 3172 113 
L 3172 0 
L 1756 0 
L 1756 113 
L 1816 113 
Q 2016 113 2095 173 
Q 2175 234 2206 353 
Q 2219 400 2219 647 
L 2219 1819 
Q 2219 2209 2117 2386 
Q 2016 2563 1775 2563 
Q 1403 2563 1034 2156 
L 1034 647 
Q 1034 356 1069 288 
Q 1113 197 1189 155 
Q 1266 113 1500 113 
L 1500 0 
L 84 0 
L 84 113 
L 147 113 
Q 366 113 442 223 
Q 519 334 519 647 
L 519 1709 
Q 519 2225 495 2337 
Q 472 2450 423 2490 
Q 375 2531 294 2531 
Q 206 2531 84 2484 
L 38 2597 
L 900 2947 
L 1034 2947 
L 1034 2341 
z
" transform="scale(0.015625)"/>
     </defs>
     <use xlink:href="#TimesNewRomanPSMT-53"/>
     <use xlink:href="#TimesNewRomanPSMT-6f" transform="translate(55.615234 0)"/>
     <use xlink:href="#TimesNewRomanPSMT-79" transform="translate(105.615234 0)"/>
     <use xlink:href="#TimesNewRomanPSMT-62" transform="translate(155.615234 0)"/>
     <use xlink:href="#TimesNewRomanPSMT-65" transform="translate(205.615234 0)"/>
     <use xlink:href="#TimesNewRomanPSMT-61" transform="translate(250 0)"/>
     <use xlink:href="#TimesNewRomanPSMT-6e" transform="translate(294.384766 0)"/>
     <use xlink:href="#TimesNewRomanPSMT-73" transform="translate(344.384766 0)"/>
    </g>
   </g>
  </g>
  <g id="axes_4">
   <g id="patch_8">
    <path d="M 118.28826 258.353333 
L 738.20026 258.353333 
L 738.20026 160.58 
L 118.28826 160.58 
L 118.28826 258.353333 
z
" style="fill: none; opacity: 0"/>
   </g>
   <g id="FillBetweenPolyCollection_4">
    <defs>
     <path id="m92a946c977" d="M 118.28826 -97.671413 
L 118.28826 -90.701979 
L 121.403396 -90.701979 
L 124.518531 -90.701979 
L 127.633667 -90.701979 
L 130.748803 -90.701979 
L 133.863938 -90.701979 
L 136.979074 -90.701979 
L 140.09421 -90.701979 
L 143.209345 -90.701979 
L 146.324481 -90.701979 
L 149.439617 -90.701979 
L 152.554752 -90.701979 
L 155.669888 -90.701979 
L 158.785024 -90.701979 
L 161.900159 -90.701979 
L 165.015295 -90.701979 
L 168.130431 -90.701979 
L 171.245567 -90.701979 
L 174.360702 -90.701979 
L 177.475838 -90.701979 
L 180.590974 -90.701979 
L 183.706109 -90.701979 
L 186.821245 -90.701979 
L 189.936381 -90.701979 
L 193.051516 -90.701979 
L 196.166652 -90.701979 
L 199.281788 -90.701979 
L 202.396923 -90.701979 
L 205.512059 -90.701979 
L 208.627195 -90.701979 
L 211.74233 -90.701979 
L 214.857466 -90.701979 
L 217.972602 -90.701979 
L 221.087737 -90.701979 
L 224.202873 -90.701979 
L 227.318009 -90.701979 
L 230.433144 -90.701979 
L 233.54828 -90.701979 
L 236.663416 -90.701979 
L 239.778551 -90.701979 
L 242.893687 -90.701979 
L 246.008823 -90.701979 
L 249.123958 -90.701979 
L 252.239094 -90.701979 
L 255.35423 -90.701979 
L 258.469366 -90.701979 
L 261.584501 -90.701979 
L 264.699637 -90.701979 
L 267.814773 -90.701979 
L 270.929908 -90.701979 
L 274.045044 -90.701979 
L 277.16018 -90.701979 
L 280.275315 -90.701979 
L 283.390451 -90.701979 
L 286.505587 -90.701979 
L 289.620722 -90.701979 
L 292.735858 -90.701979 
L 295.850994 -90.701979 
L 298.966129 -90.701979 
L 302.081265 -90.701979 
L 305.196401 -90.701979 
L 308.311536 -90.701979 
L 311.426672 -90.701979 
L 314.541808 -90.701979 
L 317.656943 -90.701979 
L 320.772079 -90.701979 
L 323.887215 -90.701979 
L 327.00235 -90.701979 
L 330.117486 -90.701979 
L 333.232622 -90.701979 
L 336.347757 -90.701979 
L 339.462893 -90.701979 
L 342.578029 -90.701979 
L 345.693165 -90.701979 
L 348.8083 -90.701979 
L 351.923436 -90.701979 
L 355.038572 -90.701979 
L 358.153707 -90.701979 
L 361.268843 -90.701979 
L 364.383979 -90.701979 
L 367.499114 -90.701979 
L 370.61425 -90.701979 
L 373.729386 -90.701979 
L 376.844521 -90.701979 
L 379.959657 -90.701979 
L 383.074793 -90.701979 
L 386.189928 -90.701979 
L 389.305064 -90.701979 
L 392.4202 -90.701979 
L 395.535335 -90.701979 
L 398.650471 -90.701979 
L 401.765607 -90.701979 
L 404.880742 -90.701979 
L 407.995878 -90.701979 
L 411.111014 -90.701979 
L 414.226149 -90.701979 
L 417.341285 -90.701979 
L 420.456421 -90.701979 
L 423.571556 -90.701979 
L 426.686692 -90.701979 
L 429.801828 -90.701979 
L 432.916964 -90.701979 
L 436.032099 -90.701979 
L 439.147235 -90.701979 
L 442.262371 -90.701979 
L 445.377506 -90.701979 
L 448.492642 -90.701979 
L 451.607778 -90.701979 
L 454.722913 -90.701979 
L 457.838049 -90.701979 
L 460.953185 -90.701979 
L 464.06832 -90.701979 
L 467.183456 -90.701979 
L 470.298592 -90.701979 
L 473.413727 -90.701979 
L 476.528863 -90.701979 
L 479.643999 -90.701979 
L 482.759134 -90.701979 
L 485.87427 -90.701979 
L 488.989406 -90.701979 
L 492.104541 -90.701979 
L 495.219677 -90.701979 
L 498.334813 -90.701979 
L 501.449948 -90.701979 
L 504.565084 -90.701979 
L 507.68022 -90.701979 
L 510.795355 -90.701979 
L 513.910491 -90.701979 
L 517.025627 -90.701979 
L 520.140763 -90.701979 
L 523.255898 -90.701979 
L 526.371034 -90.701979 
L 529.48617 -90.701979 
L 532.601305 -90.701979 
L 535.716441 -90.701979 
L 538.831577 -90.701979 
L 541.946712 -90.701979 
L 545.061848 -90.701979 
L 548.176984 -90.701979 
L 551.292119 -90.701979 
L 554.407255 -90.701979 
L 557.522391 -90.701979 
L 560.637526 -90.701979 
L 563.752662 -90.701979 
L 566.867798 -90.701979 
L 569.982933 -90.701979 
L 573.098069 -90.701979 
L 576.213205 -90.701979 
L 579.32834 -90.701979 
L 582.443476 -90.701979 
L 585.558612 -90.701979 
L 588.673747 -90.701979 
L 591.788883 -90.701979 
L 594.904019 -90.701979 
L 598.019154 -90.701979 
L 601.13429 -90.701979 
L 604.249426 -90.701979 
L 607.364562 -90.701979 
L 610.479697 -90.701979 
L 613.594833 -90.701979 
L 616.709969 -90.701979 
L 619.825104 -90.701979 
L 622.94024 -90.701979 
L 626.055376 -90.701979 
L 629.170511 -90.701979 
L 632.285647 -90.701979 
L 635.400783 -90.701979 
L 638.515918 -90.701979 
L 641.631054 -90.701979 
L 644.74619 -90.701979 
L 647.861325 -90.701979 
L 650.976461 -90.701979 
L 654.091597 -90.701979 
L 657.206732 -90.701979 
L 660.321868 -90.701979 
L 663.437004 -90.701979 
L 666.552139 -90.701979 
L 669.667275 -90.701979 
L 672.782411 -90.701979 
L 675.897546 -90.701979 
L 679.012682 -90.701979 
L 682.127818 -90.701979 
L 685.242953 -90.701979 
L 688.358089 -90.701979 
L 691.473225 -90.701979 
L 694.588361 -90.701979 
L 697.703496 -90.701979 
L 700.818632 -90.701979 
L 703.933768 -90.701979 
L 707.048903 -90.701979 
L 710.164039 -90.701979 
L 713.279175 -90.701979 
L 716.39431 -90.701979 
L 719.509446 -90.701979 
L 722.624582 -90.701979 
L 725.739717 -90.701979 
L 728.854853 -90.701979 
L 731.969989 -90.701979 
L 735.085124 -90.701979 
L 738.20026 -90.701979 
L 738.20026 -118.244821 
L 738.20026 -118.244821 
L 735.085124 -119.509625 
L 731.969989 -120.761472 
L 728.854853 -121.995133 
L 725.739717 -123.205538 
L 722.624582 -124.387845 
L 719.509446 -125.537499 
L 716.39431 -126.650302 
L 713.279175 -127.722466 
L 710.164039 -128.750665 
L 707.048903 -129.732087 
L 703.933768 -130.664465 
L 700.818632 -131.546115 
L 697.703496 -132.375954 
L 694.588361 -133.153512 
L 691.473225 -133.878936 
L 688.358089 -134.552982 
L 685.242953 -135.176998 
L 682.127818 -135.752891 
L 679.012682 -136.283094 
L 675.897546 -136.770516 
L 672.782411 -137.218484 
L 669.667275 -137.630682 
L 666.552139 -138.011074 
L 663.437004 -138.363831 
L 660.321868 -138.693247 
L 657.206732 -139.003652 
L 654.091597 -139.299326 
L 650.976461 -139.584412 
L 647.861325 -139.862828 
L 644.74619 -140.138186 
L 641.631054 -140.413713 
L 638.515918 -140.692179 
L 635.400783 -140.975834 
L 632.285647 -141.266356 
L 629.170511 -141.564804 
L 626.055376 -141.871589 
L 622.94024 -142.186456 
L 619.825104 -142.508478 
L 616.709969 -142.836068 
L 613.594833 -143.166996 
L 610.479697 -143.498434 
L 607.364562 -143.827002 
L 604.249426 -144.148831 
L 601.13429 -144.459641 
L 598.019154 -144.75482 
L 594.904019 -145.029523 
L 591.788883 -145.278766 
L 588.673747 -145.497535 
L 585.558612 -145.680886 
L 582.443476 -145.824056 
L 579.32834 -145.92256 
L 576.213205 -145.972296 
L 573.098069 -145.96963 
L 569.982933 -145.911485 
L 566.867798 -145.795405 
L 563.752662 -145.619619 
L 560.637526 -145.383085 
L 557.522391 -145.085522 
L 554.407255 -144.727424 
L 551.292119 -144.310065 
L 548.176984 -143.835477 
L 545.061848 -143.306431 
L 541.946712 -142.726388 
L 538.831577 -142.099445 
L 535.716441 -141.430272 
L 532.601305 -140.724034 
L 529.48617 -139.98631 
L 526.371034 -139.223004 
L 523.255898 -138.44025 
L 520.140763 -137.644323 
L 517.025627 -136.841539 
L 513.910491 -136.038166 
L 510.795355 -135.24033 
L 507.68022 -134.453938 
L 504.565084 -133.684591 
L 501.449948 -132.937517 
L 498.334813 -132.217504 
L 495.219677 -131.528848 
L 492.104541 -130.875302 
L 488.989406 -130.26004 
L 485.87427 -129.685628 
L 482.759134 -129.154007 
L 479.643999 -128.666475 
L 476.528863 -128.223691 
L 473.413727 -127.825677 
L 470.298592 -127.471834 
L 467.183456 -127.160959 
L 464.06832 -126.891276 
L 460.953185 -126.660469 
L 457.838049 -126.465722 
L 454.722913 -126.303763 
L 451.607778 -126.17092 
L 448.492642 -126.063171 
L 445.377506 -125.976209 
L 442.262371 -125.905501 
L 439.147235 -125.846359 
L 436.032099 -125.794006 
L 432.916964 -125.743648 
L 429.801828 -125.690547 
L 426.686692 -125.630088 
L 423.571556 -125.557856 
L 420.456421 -125.4697 
L 417.341285 -125.361797 
L 414.226149 -125.230716 
L 411.111014 -125.073471 
L 407.995878 -124.88757 
L 404.880742 -124.671055 
L 401.765607 -124.422535 
L 398.650471 -124.141206 
L 395.535335 -123.826867 
L 392.4202 -123.47992 
L 389.305064 -123.101359 
L 386.189928 -122.692753 
L 383.074793 -122.256213 
L 379.959657 -121.794353 
L 376.844521 -121.310238 
L 373.729386 -120.807327 
L 370.61425 -120.289404 
L 367.499114 -119.760511 
L 364.383979 -119.224866 
L 361.268843 -118.686788 
L 358.153707 -118.150612 
L 355.038572 -117.620617 
L 351.923436 -117.100941 
L 348.8083 -116.595512 
L 345.693165 -116.107978 
L 342.578029 -115.641649 
L 339.462893 -115.199442 
L 336.347757 -114.783839 
L 333.232622 -114.39685 
L 330.117486 -114.039995 
L 327.00235 -113.714285 
L 323.887215 -113.420225 
L 320.772079 -113.157817 
L 317.656943 -112.926582 
L 314.541808 -112.725583 
L 311.426672 -112.553458 
L 308.311536 -112.408466 
L 305.196401 -112.288528 
L 302.081265 -112.191282 
L 298.966129 -112.114133 
L 295.850994 -112.054311 
L 292.735858 -112.008925 
L 289.620722 -111.975017 
L 286.505587 -111.949614 
L 283.390451 -111.929776 
L 280.275315 -111.912643 
L 277.16018 -111.89547 
L 274.045044 -111.875666 
L 270.929908 -111.850816 
L 267.814773 -111.818712 
L 264.699637 -111.777361 
L 261.584501 -111.725 
L 258.469366 -111.6601 
L 255.35423 -111.581368 
L 252.239094 -111.487742 
L 249.123958 -111.37838 
L 246.008823 -111.252657 
L 242.893687 -111.110141 
L 239.778551 -110.950588 
L 236.663416 -110.773921 
L 233.54828 -110.580212 
L 230.433144 -110.369672 
L 227.318009 -110.142627 
L 224.202873 -109.89951 
L 221.087737 -109.640843 
L 217.972602 -109.367226 
L 214.857466 -109.079328 
L 211.74233 -108.777872 
L 208.627195 -108.463634 
L 205.512059 -108.137426 
L 202.396923 -107.800101 
L 199.281788 -107.452539 
L 196.166652 -107.095644 
L 193.051516 -106.73034 
L 189.936381 -106.357567 
L 186.821245 -105.978274 
L 183.706109 -105.593416 
L 180.590974 -105.203946 
L 177.475838 -104.810812 
L 174.360702 -104.414949 
L 171.245567 -104.017274 
L 168.130431 -103.618678 
L 165.015295 -103.220022 
L 161.900159 -102.822129 
L 158.785024 -102.42578 
L 155.669888 -102.031707 
L 152.554752 -101.640589 
L 149.439617 -101.25305 
L 146.324481 -100.869659 
L 143.209345 -100.490922 
L 140.09421 -100.11729 
L 136.979074 -99.749153 
L 133.863938 -99.386852 
L 130.748803 -99.030671 
L 127.633667 -98.680854 
L 124.518531 -98.337599 
L 121.403396 -98.001073 
L 118.28826 -97.671413 
z
" style="stroke: #bfe5a0"/>
    </defs>
    <g clip-path="url(#pc494e5a2fb)">
     <use xlink:href="#m92a946c977" x="0" y="349.055313" style="fill: #bfe5a0; fill-opacity: 0.5; stroke: #bfe5a0"/>
    </g>
   </g>
   <g id="matplotlib.axis_7">
    <g id="xtick_19">
     <g id="line2d_25">
      <g>
       <use xlink:href="#m9501e158b3" x="118.28826" y="258.353333" style="stroke: #000000; stroke-width: 0.8"/>
      </g>
     </g>
    </g>
    <g id="xtick_20">
     <g id="line2d_26">
      <g>
       <use xlink:href="#m9501e158b3" x="242.27066" y="258.353333" style="stroke: #000000; stroke-width: 0.8"/>
      </g>
     </g>
    </g>
    <g id="xtick_21">
     <g id="line2d_27">
      <g>
       <use xlink:href="#m9501e158b3" x="366.25306" y="258.353333" style="stroke: #000000; stroke-width: 0.8"/>
      </g>
     </g>
    </g>
    <g id="xtick_22">
     <g id="line2d_28">
      <g>
       <use xlink:href="#m9501e158b3" x="490.23546" y="258.353333" style="stroke: #000000; stroke-width: 0.8"/>
      </g>
     </g>
    </g>
    <g id="xtick_23">
     <g id="line2d_29">
      <g>
       <use xlink:href="#m9501e158b3" x="614.21786" y="258.353333" style="stroke: #000000; stroke-width: 0.8"/>
      </g>
     </g>
    </g>
    <g id="xtick_24">
     <g id="line2d_30">
      <g>
       <use xlink:href="#m9501e158b3" x="738.20026" y="258.353333" style="stroke: #000000; stroke-width: 0.8"/>
      </g>
     </g>
    </g>
   </g>
   <g id="matplotlib.axis_8"/>
   <g id="line2d_31">
    <path d="M 118.28826 251.3839 
L 136.979074 249.306159 
L 158.785024 246.629532 
L 196.166652 241.959669 
L 211.74233 240.27744 
L 224.202873 239.155803 
L 236.663416 238.281392 
L 249.123958 237.676932 
L 261.584501 237.330313 
L 277.16018 237.159842 
L 298.966129 236.94118 
L 308.311536 236.646847 
L 317.656943 236.12873 
L 327.00235 235.341028 
L 336.347757 234.271474 
L 345.693165 232.947335 
L 358.153707 230.9047 
L 379.959657 227.26096 
L 389.305064 225.953954 
L 398.650471 224.914107 
L 407.995878 224.167742 
L 417.341285 223.693515 
L 429.801828 223.364766 
L 451.607778 222.884393 
L 460.953185 222.394843 
L 467.183456 221.894353 
L 473.413727 221.229635 
L 479.643999 220.388838 
L 485.87427 219.369684 
L 492.104541 218.180011 
L 501.449948 216.117795 
L 513.910491 213.017147 
L 529.48617 209.069002 
L 538.831577 206.955868 
L 545.061848 205.748881 
L 551.292119 204.745248 
L 557.522391 203.969791 
L 563.752662 203.435694 
L 569.982933 203.143827 
L 576.213205 203.083017 
L 582.443476 203.231257 
L 588.673747 203.557777 
L 598.019154 204.300493 
L 610.479697 205.556879 
L 632.285647 207.788957 
L 666.552139 211.044239 
L 675.897546 212.284796 
L 682.127818 213.302421 
L 688.358089 214.50233 
L 694.588361 215.901801 
L 700.818632 217.509197 
L 707.048903 219.323226 
L 713.279175 221.332847 
L 719.509446 223.517813 
L 728.854853 227.06018 
L 738.20026 230.810491 
L 738.20026 230.810491 
" clip-path="url(#pc494e5a2fb)" style="fill: none; stroke: #ffffff; stroke-width: 2; stroke-linecap: square"/>
   </g>
   <g id="line2d_32">
    <path d="M 118.28826 258.353333 
L 738.20026 258.353333 
" style="fill: none; stroke: #000000; stroke-linecap: square"/>
   </g>
   <g id="text_4">
    <g id="patch_9">
     <path d="M 17.25 267.774271 
L 57.1575 267.774271 
L 57.1575 248.932396 
L 17.25 248.932396 
z
" style="fill: #ffffff; opacity: 0.5"/>
    </g>
    <!-- Barley -->
    <g transform="translate(21.21 261.224896) scale(0.12 -0.12)">
     <defs>
      <path id="TimesNewRomanPSMT-42" d="M 2956 2163 
Q 3397 2069 3616 1863 
Q 3919 1575 3919 1159 
Q 3919 844 3719 555 
Q 3519 266 3170 133 
Q 2822 0 2106 0 
L 106 0 
L 106 116 
L 266 116 
Q 531 116 647 284 
Q 719 394 719 750 
L 719 3488 
Q 719 3881 628 3984 
Q 506 4122 266 4122 
L 106 4122 
L 106 4238 
L 1938 4238 
Q 2450 4238 2759 4163 
Q 3228 4050 3475 3764 
Q 3722 3478 3722 3106 
Q 3722 2788 3528 2536 
Q 3334 2284 2956 2163 
z
M 1319 2331 
Q 1434 2309 1582 2298 
Q 1731 2288 1909 2288 
Q 2366 2288 2595 2386 
Q 2825 2484 2947 2687 
Q 3069 2891 3069 3131 
Q 3069 3503 2766 3765 
Q 2463 4028 1881 4028 
Q 1569 4028 1319 3959 
L 1319 2331 
z
M 1319 306 
Q 1681 222 2034 222 
Q 2600 222 2897 476 
Q 3194 731 3194 1106 
Q 3194 1353 3059 1581 
Q 2925 1809 2622 1940 
Q 2319 2072 1872 2072 
Q 1678 2072 1540 2065 
Q 1403 2059 1319 2044 
L 1319 306 
z
" transform="scale(0.015625)"/>
      <path id="TimesNewRomanPSMT-72" d="M 1038 2947 
L 1038 2303 
Q 1397 2947 1775 2947 
Q 1947 2947 2059 2842 
Q 2172 2738 2172 2600 
Q 2172 2478 2090 2393 
Q 2009 2309 1897 2309 
Q 1788 2309 1652 2417 
Q 1516 2525 1450 2525 
Q 1394 2525 1328 2463 
Q 1188 2334 1038 2041 
L 1038 669 
Q 1038 431 1097 309 
Q 1138 225 1241 169 
Q 1344 113 1538 113 
L 1538 0 
L 72 0 
L 72 113 
Q 291 113 397 181 
Q 475 231 506 341 
Q 522 394 522 644 
L 522 1753 
Q 522 2253 501 2348 
Q 481 2444 426 2487 
Q 372 2531 291 2531 
Q 194 2531 72 2484 
L 41 2597 
L 906 2947 
L 1038 2947 
z
" transform="scale(0.015625)"/>
      <path id="TimesNewRomanPSMT-6c" d="M 1184 4444 
L 1184 647 
Q 1184 378 1223 290 
Q 1263 203 1344 158 
Q 1425 113 1647 113 
L 1647 0 
L 244 0 
L 244 113 
Q 441 113 512 153 
Q 584 194 625 287 
Q 666 381 666 647 
L 666 3247 
Q 666 3731 644 3842 
Q 622 3953 573 3993 
Q 525 4034 450 4034 
Q 369 4034 244 3984 
L 191 4094 
L 1044 4444 
L 1184 4444 
z
" transform="scale(0.015625)"/>
     </defs>
     <use xlink:href="#TimesNewRomanPSMT-42"/>
     <use xlink:href="#TimesNewRomanPSMT-61" transform="translate(66.699219 0)"/>
     <use xlink:href="#TimesNewRomanPSMT-72" transform="translate(111.083984 0)"/>
     <use xlink:href="#TimesNewRomanPSMT-6c" transform="translate(144.384766 0)"/>
     <use xlink:href="#TimesNewRomanPSMT-65" transform="translate(172.167969 0)"/>
     <use xlink:href="#TimesNewRomanPSMT-79" transform="translate(216.552734 0)"/>
    </g>
   </g>
  </g>
  <g id="axes_5">
   <g id="patch_10">
    <path d="M 118.28826 307.24 
L 738.20026 307.24 
L 738.20026 209.466667 
L 118.28826 209.466667 
L 118.28826 307.24 
z
" style="fill: none; opacity: 0"/>
   </g>
   <g id="FillBetweenPolyCollection_5">
    <defs>
     <path id="m11960cf6e7" d="M 118.28826 -89.853287 
L 118.28826 -41.815313 
L 121.403396 -41.815313 
L 124.518531 -41.815313 
L 127.633667 -41.815313 
L 130.748803 -41.815313 
L 133.863938 -41.815313 
L 136.979074 -41.815313 
L 140.09421 -41.815313 
L 143.209345 -41.815313 
L 146.324481 -41.815313 
L 149.439617 -41.815313 
L 152.554752 -41.815313 
L 155.669888 -41.815313 
L 158.785024 -41.815313 
L 161.900159 -41.815313 
L 165.015295 -41.815313 
L 168.130431 -41.815313 
L 171.245567 -41.815313 
L 174.360702 -41.815313 
L 177.475838 -41.815313 
L 180.590974 -41.815313 
L 183.706109 -41.815313 
L 186.821245 -41.815313 
L 189.936381 -41.815313 
L 193.051516 -41.815313 
L 196.166652 -41.815313 
L 199.281788 -41.815313 
L 202.396923 -41.815313 
L 205.512059 -41.815313 
L 208.627195 -41.815313 
L 211.74233 -41.815313 
L 214.857466 -41.815313 
L 217.972602 -41.815313 
L 221.087737 -41.815313 
L 224.202873 -41.815313 
L 227.318009 -41.815313 
L 230.433144 -41.815313 
L 233.54828 -41.815313 
L 236.663416 -41.815313 
L 239.778551 -41.815313 
L 242.893687 -41.815313 
L 246.008823 -41.815313 
L 249.123958 -41.815313 
L 252.239094 -41.815313 
L 255.35423 -41.815313 
L 258.469366 -41.815313 
L 261.584501 -41.815313 
L 264.699637 -41.815313 
L 267.814773 -41.815313 
L 270.929908 -41.815313 
L 274.045044 -41.815313 
L 277.16018 -41.815313 
L 280.275315 -41.815313 
L 283.390451 -41.815313 
L 286.505587 -41.815313 
L 289.620722 -41.815313 
L 292.735858 -41.815313 
L 295.850994 -41.815313 
L 298.966129 -41.815313 
L 302.081265 -41.815313 
L 305.196401 -41.815313 
L 308.311536 -41.815313 
L 311.426672 -41.815313 
L 314.541808 -41.815313 
L 317.656943 -41.815313 
L 320.772079 -41.815313 
L 323.887215 -41.815313 
L 327.00235 -41.815313 
L 330.117486 -41.815313 
L 333.232622 -41.815313 
L 336.347757 -41.815313 
L 339.462893 -41.815313 
L 342.578029 -41.815313 
L 345.693165 -41.815313 
L 348.8083 -41.815313 
L 351.923436 -41.815313 
L 355.038572 -41.815313 
L 358.153707 -41.815313 
L 361.268843 -41.815313 
L 364.383979 -41.815313 
L 367.499114 -41.815313 
L 370.61425 -41.815313 
L 373.729386 -41.815313 
L 376.844521 -41.815313 
L 379.959657 -41.815313 
L 383.074793 -41.815313 
L 386.189928 -41.815313 
L 389.305064 -41.815313 
L 392.4202 -41.815313 
L 395.535335 -41.815313 
L 398.650471 -41.815313 
L 401.765607 -41.815313 
L 404.880742 -41.815313 
L 407.995878 -41.815313 
L 411.111014 -41.815313 
L 414.226149 -41.815313 
L 417.341285 -41.815313 
L 420.456421 -41.815313 
L 423.571556 -41.815313 
L 426.686692 -41.815313 
L 429.801828 -41.815313 
L 432.916964 -41.815313 
L 436.032099 -41.815313 
L 439.147235 -41.815313 
L 442.262371 -41.815313 
L 445.377506 -41.815313 
L 448.492642 -41.815313 
L 451.607778 -41.815313 
L 454.722913 -41.815313 
L 457.838049 -41.815313 
L 460.953185 -41.815313 
L 464.06832 -41.815313 
L 467.183456 -41.815313 
L 470.298592 -41.815313 
L 473.413727 -41.815313 
L 476.528863 -41.815313 
L 479.643999 -41.815313 
L 482.759134 -41.815313 
L 485.87427 -41.815313 
L 488.989406 -41.815313 
L 492.104541 -41.815313 
L 495.219677 -41.815313 
L 498.334813 -41.815313 
L 501.449948 -41.815313 
L 504.565084 -41.815313 
L 507.68022 -41.815313 
L 510.795355 -41.815313 
L 513.910491 -41.815313 
L 517.025627 -41.815313 
L 520.140763 -41.815313 
L 523.255898 -41.815313 
L 526.371034 -41.815313 
L 529.48617 -41.815313 
L 532.601305 -41.815313 
L 535.716441 -41.815313 
L 538.831577 -41.815313 
L 541.946712 -41.815313 
L 545.061848 -41.815313 
L 548.176984 -41.815313 
L 551.292119 -41.815313 
L 554.407255 -41.815313 
L 557.522391 -41.815313 
L 560.637526 -41.815313 
L 563.752662 -41.815313 
L 566.867798 -41.815313 
L 569.982933 -41.815313 
L 573.098069 -41.815313 
L 576.213205 -41.815313 
L 579.32834 -41.815313 
L 582.443476 -41.815313 
L 585.558612 -41.815313 
L 588.673747 -41.815313 
L 591.788883 -41.815313 
L 594.904019 -41.815313 
L 598.019154 -41.815313 
L 601.13429 -41.815313 
L 604.249426 -41.815313 
L 607.364562 -41.815313 
L 610.479697 -41.815313 
L 613.594833 -41.815313 
L 616.709969 -41.815313 
L 619.825104 -41.815313 
L 622.94024 -41.815313 
L 626.055376 -41.815313 
L 629.170511 -41.815313 
L 632.285647 -41.815313 
L 635.400783 -41.815313 
L 638.515918 -41.815313 
L 641.631054 -41.815313 
L 644.74619 -41.815313 
L 647.861325 -41.815313 
L 650.976461 -41.815313 
L 654.091597 -41.815313 
L 657.206732 -41.815313 
L 660.321868 -41.815313 
L 663.437004 -41.815313 
L 666.552139 -41.815313 
L 669.667275 -41.815313 
L 672.782411 -41.815313 
L 675.897546 -41.815313 
L 679.012682 -41.815313 
L 682.127818 -41.815313 
L 685.242953 -41.815313 
L 688.358089 -41.815313 
L 691.473225 -41.815313 
L 694.588361 -41.815313 
L 697.703496 -41.815313 
L 700.818632 -41.815313 
L 703.933768 -41.815313 
L 707.048903 -41.815313 
L 710.164039 -41.815313 
L 713.279175 -41.815313 
L 716.39431 -41.815313 
L 719.509446 -41.815313 
L 722.624582 -41.815313 
L 725.739717 -41.815313 
L 728.854853 -41.815313 
L 731.969989 -41.815313 
L 735.085124 -41.815313 
L 738.20026 -41.815313 
L 738.20026 -56.517683 
L 738.20026 -56.517683 
L 735.085124 -56.895234 
L 731.969989 -57.246273 
L 728.854853 -57.568788 
L 725.739717 -57.860964 
L 722.624582 -58.121209 
L 719.509446 -58.348173 
L 716.39431 -58.540763 
L 713.279175 -58.698159 
L 710.164039 -58.819827 
L 707.048903 -58.905526 
L 703.933768 -58.955309 
L 700.818632 -58.969528 
L 697.703496 -58.948828 
L 694.588361 -58.894143 
L 691.473225 -58.806681 
L 688.358089 -58.687916 
L 685.242953 -58.539566 
L 682.127818 -58.363577 
L 679.012682 -58.162097 
L 675.897546 -57.937457 
L 672.782411 -57.692138 
L 669.667275 -57.428748 
L 666.552139 -57.14999 
L 663.437004 -56.858633 
L 660.321868 -56.557485 
L 657.206732 -56.249357 
L 654.091597 -55.937042 
L 650.976461 -55.623279 
L 647.861325 -55.310732 
L 644.74619 -55.001959 
L 641.631054 -54.699396 
L 638.515918 -54.405326 
L 635.400783 -54.121869 
L 632.285647 -53.850957 
L 629.170511 -53.594328 
L 626.055376 -53.353506 
L 622.94024 -53.129798 
L 619.825104 -52.924283 
L 616.709969 -52.737812 
L 613.594833 -52.571003 
L 610.479697 -52.424246 
L 607.364562 -52.297701 
L 604.249426 -52.191308 
L 601.13429 -52.104792 
L 598.019154 -52.037673 
L 594.904019 -51.989276 
L 591.788883 -51.958748 
L 588.673747 -51.945066 
L 585.558612 -51.947055 
L 582.443476 -51.963407 
L 579.32834 -51.992694 
L 576.213205 -52.033391 
L 573.098069 -52.08389 
L 569.982933 -52.142523 
L 566.867798 -52.207579 
L 563.752662 -52.277329 
L 560.637526 -52.350038 
L 557.522391 -52.423991 
L 554.407255 -52.497513 
L 551.292119 -52.568983 
L 548.176984 -52.636856 
L 545.061848 -52.699679 
L 541.946712 -52.756109 
L 538.831577 -52.804929 
L 535.716441 -52.845058 
L 532.601305 -52.875569 
L 529.48617 -52.895694 
L 526.371034 -52.904838 
L 523.255898 -52.902585 
L 520.140763 -52.888699 
L 517.025627 -52.863132 
L 513.910491 -52.826022 
L 510.795355 -52.777692 
L 507.68022 -52.718645 
L 504.565084 -52.649558 
L 501.449948 -52.571276 
L 498.334813 -52.484799 
L 495.219677 -52.391269 
L 492.104541 -52.29196 
L 488.989406 -52.188259 
L 485.87427 -52.081649 
L 482.759134 -51.973695 
L 479.643999 -51.866019 
L 476.528863 -51.760288 
L 473.413727 -51.658188 
L 470.298592 -51.561408 
L 467.183456 -51.471623 
L 464.06832 -51.390472 
L 460.953185 -51.319542 
L 457.838049 -51.260355 
L 454.722913 -51.214348 
L 451.607778 -51.182867 
L 448.492642 -51.16715 
L 445.377506 -51.168323 
L 442.262371 -51.187388 
L 439.147235 -51.225227 
L 436.032099 -51.282589 
L 432.916964 -51.360101 
L 429.801828 -51.458262 
L 426.686692 -51.577453 
L 423.571556 -51.717942 
L 420.456421 -51.879895 
L 417.341285 -52.063382 
L 414.226149 -52.268396 
L 411.111014 -52.494864 
L 407.995878 -52.742664 
L 404.880742 -53.011642 
L 401.765607 -53.301629 
L 398.650471 -53.612465 
L 395.535335 -53.944013 
L 392.4202 -54.29618 
L 389.305064 -54.668942 
L 386.189928 -55.062359 
L 383.074793 -55.476596 
L 379.959657 -55.911943 
L 376.844521 -56.36883 
L 373.729386 -56.847848 
L 370.61425 -57.349759 
L 367.499114 -57.875508 
L 364.383979 -58.426239 
L 361.268843 -59.003295 
L 358.153707 -59.608226 
L 355.038572 -60.242791 
L 351.923436 -60.908948 
L 348.8083 -61.608857 
L 345.693165 -62.344856 
L 342.578029 -63.119454 
L 339.462893 -63.935307 
L 336.347757 -64.795188 
L 333.232622 -65.701961 
L 330.117486 -66.65854 
L 327.00235 -67.667851 
L 323.887215 -68.732783 
L 320.772079 -69.85614 
L 317.656943 -71.040586 
L 314.541808 -72.288584 
L 311.426672 -73.602339 
L 308.311536 -74.983735 
L 305.196401 -76.434267 
L 302.081265 -77.954982 
L 298.966129 -79.54641 
L 295.850994 -81.208508 
L 292.735858 -82.940596 
L 289.620722 -84.741307 
L 286.505587 -86.608536 
L 283.390451 -88.539397 
L 280.275315 -90.53019 
L 277.16018 -92.576378 
L 274.045044 -94.672564 
L 270.929908 -96.812495 
L 267.814773 -98.989061 
L 264.699637 -101.19432 
L 261.584501 -103.419525 
L 258.469366 -105.655172 
L 255.35423 -107.891049 
L 252.239094 -110.116316 
L 249.123958 -112.319576 
L 246.008823 -114.488971 
L 242.893687 -116.612284 
L 239.778551 -118.677049 
L 236.663416 -120.670672 
L 233.54828 -122.580549 
L 230.433144 -124.394203 
L 227.318009 -126.099411 
L 224.202873 -127.684336 
L 221.087737 -129.137656 
L 217.972602 -130.448696 
L 214.857466 -131.607545 
L 211.74233 -132.605171 
L 208.627195 -133.433529 
L 205.512059 -134.085652 
L 202.396923 -134.555736 
L 199.281788 -134.839206 
L 196.166652 -134.932773 
L 193.051516 -134.83447 
L 189.936381 -134.543678 
L 186.821245 -134.061128 
L 183.706109 -133.388894 
L 180.590974 -132.530366 
L 177.475838 -131.490212 
L 174.360702 -130.274317 
L 171.245567 -128.889715 
L 168.130431 -127.344509 
L 165.015295 -125.647776 
L 161.900159 -123.809465 
L 158.785024 -121.840287 
L 155.669888 -119.751597 
L 152.554752 -117.555277 
L 149.439617 -115.263609 
L 146.324481 -112.889154 
L 143.209345 -110.444627 
L 140.09421 -107.942782 
L 136.979074 -105.39629 
L 133.863938 -102.817635 
L 130.748803 -100.219007 
L 127.633667 -97.61221 
L 124.518531 -95.008574 
L 121.403396 -92.418878 
L 118.28826 -89.853287 
z
" style="stroke: #54aead"/>
    </defs>
    <g clip-path="url(#p7927ec0043)">
     <use xlink:href="#m11960cf6e7" x="0" y="349.055313" style="fill: #54aead; fill-opacity: 0.5; stroke: #54aead"/>
    </g>
   </g>
   <g id="matplotlib.axis_9">
    <g id="xtick_25">
     <g id="line2d_33">
      <g>
       <use xlink:href="#m9501e158b3" x="118.28826" y="307.24" style="stroke: #000000; stroke-width: 0.8"/>
      </g>
     </g>
     <g id="text_5">
      <!-- 0 -->
      <g transform="translate(115.28826 322.5725) scale(0.12 -0.12)">
       <defs>
        <path id="TimesNewRomanPSMT-30" d="M 231 2094 
Q 231 2819 450 3342 
Q 669 3866 1031 4122 
Q 1313 4325 1613 4325 
Q 2100 4325 2488 3828 
Q 2972 3213 2972 2159 
Q 2972 1422 2759 906 
Q 2547 391 2217 158 
Q 1888 -75 1581 -75 
Q 975 -75 572 641 
Q 231 1244 231 2094 
z
M 844 2016 
Q 844 1141 1059 588 
Q 1238 122 1591 122 
Q 1759 122 1940 273 
Q 2122 425 2216 781 
Q 2359 1319 2359 2297 
Q 2359 3022 2209 3506 
Q 2097 3866 1919 4016 
Q 1791 4119 1609 4119 
Q 1397 4119 1231 3928 
Q 1006 3669 925 3112 
Q 844 2556 844 2016 
z
" transform="scale(0.015625)"/>
       </defs>
       <use xlink:href="#TimesNewRomanPSMT-30"/>
      </g>
     </g>
    </g>
    <g id="xtick_26">
     <g id="line2d_34">
      <g>
       <use xlink:href="#m9501e158b3" x="242.27066" y="307.24" style="stroke: #000000; stroke-width: 0.8"/>
      </g>
     </g>
     <g id="text_6">
      <!-- 1000 -->
      <g transform="translate(230.27066 322.5725) scale(0.12 -0.12)">
       <defs>
        <path id="TimesNewRomanPSMT-31" d="M 750 3822 
L 1781 4325 
L 1884 4325 
L 1884 747 
Q 1884 391 1914 303 
Q 1944 216 2037 169 
Q 2131 122 2419 116 
L 2419 0 
L 825 0 
L 825 116 
Q 1125 122 1212 167 
Q 1300 213 1334 289 
Q 1369 366 1369 747 
L 1369 3034 
Q 1369 3497 1338 3628 
Q 1316 3728 1258 3775 
Q 1200 3822 1119 3822 
Q 1003 3822 797 3725 
L 750 3822 
z
" transform="scale(0.015625)"/>
       </defs>
       <use xlink:href="#TimesNewRomanPSMT-31"/>
       <use xlink:href="#TimesNewRomanPSMT-30" transform="translate(50 0)"/>
       <use xlink:href="#TimesNewRomanPSMT-30" transform="translate(100 0)"/>
       <use xlink:href="#TimesNewRomanPSMT-30" transform="translate(150 0)"/>
      </g>
     </g>
    </g>
    <g id="xtick_27">
     <g id="line2d_35">
      <g>
       <use xlink:href="#m9501e158b3" x="366.25306" y="307.24" style="stroke: #000000; stroke-width: 0.8"/>
      </g>
     </g>
     <g id="text_7">
      <!-- 2000 -->
      <g transform="translate(354.25306 322.5725) scale(0.12 -0.12)">
       <defs>
        <path id="TimesNewRomanPSMT-32" d="M 2934 816 
L 2638 0 
L 138 0 
L 138 116 
Q 1241 1122 1691 1759 
Q 2141 2397 2141 2925 
Q 2141 3328 1894 3587 
Q 1647 3847 1303 3847 
Q 991 3847 742 3664 
Q 494 3481 375 3128 
L 259 3128 
Q 338 3706 661 4015 
Q 984 4325 1469 4325 
Q 1984 4325 2329 3994 
Q 2675 3663 2675 3213 
Q 2675 2891 2525 2569 
Q 2294 2063 1775 1497 
Q 997 647 803 472 
L 1909 472 
Q 2247 472 2383 497 
Q 2519 522 2628 598 
Q 2738 675 2819 816 
L 2934 816 
z
" transform="scale(0.015625)"/>
       </defs>
       <use xlink:href="#TimesNewRomanPSMT-32"/>
       <use xlink:href="#TimesNewRomanPSMT-30" transform="translate(50 0)"/>
       <use xlink:href="#TimesNewRomanPSMT-30" transform="translate(100 0)"/>
       <use xlink:href="#TimesNewRomanPSMT-30" transform="translate(150 0)"/>
      </g>
     </g>
    </g>
    <g id="xtick_28">
     <g id="line2d_36">
      <g>
       <use xlink:href="#m9501e158b3" x="490.23546" y="307.24" style="stroke: #000000; stroke-width: 0.8"/>
      </g>
     </g>
     <g id="text_8">
      <!-- 3000 -->
      <g transform="translate(478.23546 322.5725) scale(0.12 -0.12)">
       <defs>
        <path id="TimesNewRomanPSMT-33" d="M 325 3431 
Q 506 3859 782 4092 
Q 1059 4325 1472 4325 
Q 1981 4325 2253 3994 
Q 2459 3747 2459 3466 
Q 2459 3003 1878 2509 
Q 2269 2356 2469 2072 
Q 2669 1788 2669 1403 
Q 2669 853 2319 450 
Q 1863 -75 997 -75 
Q 569 -75 414 31 
Q 259 138 259 259 
Q 259 350 332 419 
Q 406 488 509 488 
Q 588 488 669 463 
Q 722 447 909 348 
Q 1097 250 1169 231 
Q 1284 197 1416 197 
Q 1734 197 1970 444 
Q 2206 691 2206 1028 
Q 2206 1275 2097 1509 
Q 2016 1684 1919 1775 
Q 1784 1900 1550 2001 
Q 1316 2103 1072 2103 
L 972 2103 
L 972 2197 
Q 1219 2228 1467 2375 
Q 1716 2522 1828 2728 
Q 1941 2934 1941 3181 
Q 1941 3503 1739 3701 
Q 1538 3900 1238 3900 
Q 753 3900 428 3381 
L 325 3431 
z
" transform="scale(0.015625)"/>
       </defs>
       <use xlink:href="#TimesNewRomanPSMT-33"/>
       <use xlink:href="#TimesNewRomanPSMT-30" transform="translate(50 0)"/>
       <use xlink:href="#TimesNewRomanPSMT-30" transform="translate(100 0)"/>
       <use xlink:href="#TimesNewRomanPSMT-30" transform="translate(150 0)"/>
      </g>
     </g>
    </g>
    <g id="xtick_29">
     <g id="line2d_37">
      <g>
       <use xlink:href="#m9501e158b3" x="614.21786" y="307.24" style="stroke: #000000; stroke-width: 0.8"/>
      </g>
     </g>
     <g id="text_9">
      <!-- 4000 -->
      <g transform="translate(602.21786 322.5725) scale(0.12 -0.12)">
       <defs>
        <path id="TimesNewRomanPSMT-34" d="M 2978 1563 
L 2978 1119 
L 2409 1119 
L 2409 0 
L 1894 0 
L 1894 1119 
L 100 1119 
L 100 1519 
L 2066 4325 
L 2409 4325 
L 2409 1563 
L 2978 1563 
z
M 1894 1563 
L 1894 3666 
L 406 1563 
L 1894 1563 
z
" transform="scale(0.015625)"/>
       </defs>
       <use xlink:href="#TimesNewRomanPSMT-34"/>
       <use xlink:href="#TimesNewRomanPSMT-30" transform="translate(50 0)"/>
       <use xlink:href="#TimesNewRomanPSMT-30" transform="translate(100 0)"/>
       <use xlink:href="#TimesNewRomanPSMT-30" transform="translate(150 0)"/>
      </g>
     </g>
    </g>
    <g id="xtick_30">
     <g id="line2d_38">
      <g>
       <use xlink:href="#m9501e158b3" x="738.20026" y="307.24" style="stroke: #000000; stroke-width: 0.8"/>
      </g>
     </g>
     <g id="text_10">
      <!-- 5000 -->
      <g transform="translate(726.20026 322.5725) scale(0.12 -0.12)">
       <defs>
        <path id="TimesNewRomanPSMT-35" d="M 2778 4238 
L 2534 3706 
L 1259 3706 
L 981 3138 
Q 1809 3016 2294 2522 
Q 2709 2097 2709 1522 
Q 2709 1188 2573 903 
Q 2438 619 2231 419 
Q 2025 219 1772 97 
Q 1413 -75 1034 -75 
Q 653 -75 479 54 
Q 306 184 306 341 
Q 306 428 378 495 
Q 450 563 559 563 
Q 641 563 702 538 
Q 763 513 909 409 
Q 1144 247 1384 247 
Q 1750 247 2026 523 
Q 2303 800 2303 1197 
Q 2303 1581 2056 1914 
Q 1809 2247 1375 2428 
Q 1034 2569 447 2591 
L 1259 4238 
L 2778 4238 
z
" transform="scale(0.015625)"/>
       </defs>
       <use xlink:href="#TimesNewRomanPSMT-35"/>
       <use xlink:href="#TimesNewRomanPSMT-30" transform="translate(50 0)"/>
       <use xlink:href="#TimesNewRomanPSMT-30" transform="translate(100 0)"/>
       <use xlink:href="#TimesNewRomanPSMT-30" transform="translate(150 0)"/>
      </g>
     </g>
    </g>
    <g id="text_11">
     <!-- Value -->
     <g transform="translate(412.308323 338.860625) scale(0.14 -0.14)">
      <defs>
       <path id="TimesNewRomanPSMT-56" d="M 4544 4238 
L 4544 4122 
Q 4319 4081 4203 3978 
Q 4038 3825 3909 3509 
L 2431 -97 
L 2316 -97 
L 728 3556 
Q 606 3838 556 3900 
Q 478 3997 364 4051 
Q 250 4106 56 4122 
L 56 4238 
L 1788 4238 
L 1788 4122 
Q 1494 4094 1406 4022 
Q 1319 3950 1319 3838 
Q 1319 3681 1463 3350 
L 2541 866 
L 3541 3319 
Q 3688 3681 3688 3822 
Q 3688 3913 3597 3995 
Q 3506 4078 3291 4113 
Q 3275 4116 3238 4122 
L 3238 4238 
L 4544 4238 
z
" transform="scale(0.015625)"/>
       <path id="TimesNewRomanPSMT-75" d="M 2709 2863 
L 2709 1128 
Q 2709 631 2732 520 
Q 2756 409 2807 365 
Q 2859 322 2928 322 
Q 3025 322 3147 375 
L 3191 266 
L 2334 -88 
L 2194 -88 
L 2194 519 
Q 1825 119 1631 15 
Q 1438 -88 1222 -88 
Q 981 -88 804 51 
Q 628 191 559 409 
Q 491 628 491 1028 
L 491 2306 
Q 491 2509 447 2587 
Q 403 2666 317 2708 
Q 231 2750 6 2747 
L 6 2863 
L 1009 2863 
L 1009 947 
Q 1009 547 1148 422 
Q 1288 297 1484 297 
Q 1619 297 1789 381 
Q 1959 466 2194 703 
L 2194 2325 
Q 2194 2569 2105 2655 
Q 2016 2741 1734 2747 
L 1734 2863 
L 2709 2863 
z
" transform="scale(0.015625)"/>
      </defs>
      <use xlink:href="#TimesNewRomanPSMT-56"/>
      <use xlink:href="#TimesNewRomanPSMT-61" transform="translate(61.091797 0)"/>
      <use xlink:href="#TimesNewRomanPSMT-6c" transform="translate(105.476562 0)"/>
      <use xlink:href="#TimesNewRomanPSMT-75" transform="translate(133.259766 0)"/>
      <use xlink:href="#TimesNewRomanPSMT-65" transform="translate(183.259766 0)"/>
     </g>
    </g>
   </g>
   <g id="matplotlib.axis_10"/>
   <g id="line2d_39">
    <path d="M 118.28826 259.202026 
L 133.863938 246.237678 
L 143.209345 238.610685 
L 149.439617 233.791703 
L 155.669888 229.303715 
L 161.900159 225.245848 
L 165.015295 223.407537 
L 168.130431 221.710804 
L 171.245567 220.165598 
L 174.360702 218.780996 
L 177.475838 217.5651 
L 180.590974 216.524946 
L 183.706109 215.666419 
L 186.821245 214.994185 
L 189.936381 214.511634 
L 193.051516 214.220842 
L 196.166652 214.12254 
L 199.281788 214.216107 
L 202.396923 214.499577 
L 205.512059 214.96966 
L 208.627195 215.621784 
L 211.74233 216.450141 
L 214.857466 217.447768 
L 217.972602 218.606616 
L 221.087737 219.917656 
L 224.202873 221.370977 
L 230.433144 224.661109 
L 236.663416 228.384641 
L 242.893687 232.443029 
L 252.239094 238.938996 
L 274.045044 254.382748 
L 280.275315 258.525122 
L 286.505587 262.446777 
L 292.735858 266.114716 
L 298.966129 269.508902 
L 305.196401 272.621045 
L 311.426672 275.452973 
L 317.656943 278.014727 
L 323.887215 280.322529 
L 330.117486 282.396773 
L 336.347757 284.260124 
L 342.578029 285.935858 
L 351.923436 288.146364 
L 361.268843 290.052018 
L 370.61425 291.705554 
L 379.959657 293.14337 
L 389.305064 294.38637 
L 398.650471 295.442847 
L 407.995878 296.312649 
L 417.341285 296.991931 
L 426.686692 297.47786 
L 436.032099 297.772723 
L 445.377506 297.88699 
L 457.838049 297.794958 
L 473.413727 297.397125 
L 510.795355 296.27762 
L 523.255898 296.152728 
L 538.831577 296.250383 
L 557.522391 296.631321 
L 579.32834 297.062618 
L 591.788883 297.096564 
L 604.249426 296.864004 
L 613.594833 296.484309 
L 622.94024 295.925515 
L 635.400783 294.933444 
L 650.976461 293.432033 
L 669.667275 291.626564 
L 679.012682 290.893215 
L 688.358089 290.367397 
L 697.703496 290.106484 
L 707.048903 290.149787 
L 716.39431 290.51455 
L 725.739717 291.194349 
L 735.085124 292.160078 
L 738.20026 292.53763 
L 738.20026 292.53763 
" clip-path="url(#p7927ec0043)" style="fill: none; stroke: #ffffff; stroke-width: 2; stroke-linecap: square"/>
   </g>
   <g id="line2d_40">
    <path d="M 118.28826 307.24 
L 738.20026 307.24 
" style="fill: none; stroke: #000000; stroke-linecap: square"/>
   </g>
   <g id="text_12">
    <g id="patch_11">
     <path d="M 25.2375 316.649687 
L 57.1575 316.649687 
L 57.1575 297.830312 
L 25.2375 297.830312 
z
" style="fill: #ffffff; opacity: 0.5"/>
    </g>
    <!-- Corn -->
    <g transform="translate(29.1975 310.122813) scale(0.12 -0.12)">
     <defs>
      <path id="TimesNewRomanPSMT-43" d="M 3853 4334 
L 3950 2894 
L 3853 2894 
Q 3659 3541 3300 3825 
Q 2941 4109 2438 4109 
Q 2016 4109 1675 3895 
Q 1334 3681 1139 3212 
Q 944 2744 944 2047 
Q 944 1472 1128 1050 
Q 1313 628 1683 403 
Q 2053 178 2528 178 
Q 2941 178 3256 354 
Q 3572 531 3950 1056 
L 4047 994 
Q 3728 428 3303 165 
Q 2878 -97 2294 -97 
Q 1241 -97 663 684 
Q 231 1266 231 2053 
Q 231 2688 515 3219 
Q 800 3750 1298 4042 
Q 1797 4334 2388 4334 
Q 2847 4334 3294 4109 
Q 3425 4041 3481 4041 
Q 3566 4041 3628 4100 
Q 3709 4184 3744 4334 
L 3853 4334 
z
" transform="scale(0.015625)"/>
     </defs>
     <use xlink:href="#TimesNewRomanPSMT-43"/>
     <use xlink:href="#TimesNewRomanPSMT-6f" transform="translate(66.699219 0)"/>
     <use xlink:href="#TimesNewRomanPSMT-72" transform="translate(116.699219 0)"/>
     <use xlink:href="#TimesNewRomanPSMT-6e" transform="translate(150 0)"/>
    </g>
   </g>
  </g>
  <g id="text_13">
   <!-- Crop Yield(tons/hectare) -->
   <g transform="translate(309.98901 18.31) scale(0.16 -0.16)">
    <defs>
     <path id="TimesNewRomanPSMT-70" d="M -6 2578 
L 875 2934 
L 994 2934 
L 994 2266 
Q 1216 2644 1439 2795 
Q 1663 2947 1909 2947 
Q 2341 2947 2628 2609 
Q 2981 2197 2981 1534 
Q 2981 794 2556 309 
Q 2206 -88 1675 -88 
Q 1444 -88 1275 -22 
Q 1150 25 994 166 
L 994 -706 
Q 994 -1000 1030 -1079 
Q 1066 -1159 1155 -1206 
Q 1244 -1253 1478 -1253 
L 1478 -1369 
L -22 -1369 
L -22 -1253 
L 56 -1253 
Q 228 -1256 350 -1188 
Q 409 -1153 442 -1076 
Q 475 -1000 475 -688 
L 475 2019 
Q 475 2297 450 2372 
Q 425 2447 370 2484 
Q 316 2522 222 2522 
Q 147 2522 31 2478 
L -6 2578 
z
M 994 2081 
L 994 1013 
Q 994 666 1022 556 
Q 1066 375 1236 237 
Q 1406 100 1666 100 
Q 1978 100 2172 344 
Q 2425 663 2425 1241 
Q 2425 1897 2138 2250 
Q 1938 2494 1663 2494 
Q 1513 2494 1366 2419 
Q 1253 2363 994 2081 
z
" transform="scale(0.015625)"/>
     <path id="TimesNewRomanPSMT-20" transform="scale(0.015625)"/>
     <path id="TimesNewRomanPSMT-59" d="M 3050 4238 
L 4528 4238 
L 4528 4122 
L 4447 4122 
Q 4366 4122 4209 4050 
Q 4053 3978 3925 3843 
Q 3797 3709 3609 3406 
L 2588 1797 
L 2588 734 
Q 2588 344 2675 247 
Q 2794 116 3050 116 
L 3188 116 
L 3188 0 
L 1388 0 
L 1388 116 
L 1538 116 
Q 1806 116 1919 278 
Q 1988 378 1988 734 
L 1988 1738 
L 825 3513 
Q 619 3825 545 3903 
Q 472 3981 241 4091 
Q 178 4122 59 4122 
L 59 4238 
L 1872 4238 
L 1872 4122 
L 1778 4122 
Q 1631 4122 1507 4053 
Q 1384 3984 1384 3847 
Q 1384 3734 1575 3441 
L 2459 2075 
L 3291 3381 
Q 3478 3675 3478 3819 
Q 3478 3906 3433 3975 
Q 3388 4044 3303 4083 
Q 3219 4122 3050 4122 
L 3050 4238 
z
" transform="scale(0.015625)"/>
     <path id="TimesNewRomanPSMT-64" d="M 2222 322 
Q 2013 103 1813 7 
Q 1613 -88 1381 -88 
Q 913 -88 563 304 
Q 213 697 213 1313 
Q 213 1928 600 2439 
Q 988 2950 1597 2950 
Q 1975 2950 2222 2709 
L 2222 3238 
Q 2222 3728 2198 3840 
Q 2175 3953 2125 3993 
Q 2075 4034 2000 4034 
Q 1919 4034 1784 3984 
L 1744 4094 
L 2597 4444 
L 2738 4444 
L 2738 1134 
Q 2738 631 2761 520 
Q 2784 409 2836 365 
Q 2888 322 2956 322 
Q 3041 322 3181 375 
L 3216 266 
L 2366 -88 
L 2222 -88 
L 2222 322 
z
M 2222 541 
L 2222 2016 
Q 2203 2228 2109 2403 
Q 2016 2578 1861 2667 
Q 1706 2756 1559 2756 
Q 1284 2756 1069 2509 
Q 784 2184 784 1559 
Q 784 928 1059 592 
Q 1334 256 1672 256 
Q 1956 256 2222 541 
z
" transform="scale(0.015625)"/>
     <path id="TimesNewRomanPSMT-28" d="M 1988 -1253 
L 1988 -1369 
Q 1516 -1131 1200 -813 
Q 750 -359 506 256 
Q 263 872 263 1534 
Q 263 2503 741 3301 
Q 1219 4100 1988 4444 
L 1988 4313 
Q 1603 4100 1356 3731 
Q 1109 3363 987 2797 
Q 866 2231 866 1616 
Q 866 947 969 400 
Q 1050 -31 1165 -292 
Q 1281 -553 1476 -793 
Q 1672 -1034 1988 -1253 
z
" transform="scale(0.015625)"/>
     <path id="TimesNewRomanPSMT-2f" d="M 1794 4444 
L 259 -88 
L 9 -88 
L 1544 4444 
L 1794 4444 
z
" transform="scale(0.015625)"/>
     <path id="TimesNewRomanPSMT-68" d="M 1041 4444 
L 1041 2350 
Q 1388 2731 1591 2839 
Q 1794 2947 1997 2947 
Q 2241 2947 2416 2812 
Q 2591 2678 2675 2391 
Q 2734 2191 2734 1659 
L 2734 647 
Q 2734 375 2778 275 
Q 2809 200 2884 156 
Q 2959 113 3159 113 
L 3159 0 
L 1753 0 
L 1753 113 
L 1819 113 
Q 2019 113 2097 173 
Q 2175 234 2206 353 
Q 2216 403 2216 647 
L 2216 1659 
Q 2216 2128 2167 2275 
Q 2119 2422 2012 2495 
Q 1906 2569 1756 2569 
Q 1603 2569 1437 2487 
Q 1272 2406 1041 2159 
L 1041 647 
Q 1041 353 1073 281 
Q 1106 209 1195 161 
Q 1284 113 1503 113 
L 1503 0 
L 84 0 
L 84 113 
Q 275 113 384 172 
Q 447 203 484 290 
Q 522 378 522 647 
L 522 3238 
Q 522 3728 498 3840 
Q 475 3953 426 3993 
Q 378 4034 297 4034 
Q 231 4034 84 3984 
L 41 4094 
L 897 4444 
L 1041 4444 
z
" transform="scale(0.015625)"/>
     <path id="TimesNewRomanPSMT-29" d="M 144 4313 
L 144 4444 
Q 619 4209 934 3891 
Q 1381 3434 1625 2820 
Q 1869 2206 1869 1541 
Q 1869 572 1392 -226 
Q 916 -1025 144 -1369 
L 144 -1253 
Q 528 -1038 776 -670 
Q 1025 -303 1145 264 
Q 1266 831 1266 1447 
Q 1266 2113 1163 2663 
Q 1084 3094 967 3353 
Q 850 3613 656 3853 
Q 463 4094 144 4313 
z
" transform="scale(0.015625)"/>
    </defs>
    <use xlink:href="#TimesNewRomanPSMT-43"/>
    <use xlink:href="#TimesNewRomanPSMT-72" transform="translate(66.699219 0)"/>
    <use xlink:href="#TimesNewRomanPSMT-6f" transform="translate(100 0)"/>
    <use xlink:href="#TimesNewRomanPSMT-70" transform="translate(150 0)"/>
    <use xlink:href="#TimesNewRomanPSMT-20" transform="translate(200 0)"/>
    <use xlink:href="#TimesNewRomanPSMT-59" transform="translate(221.25 0)"/>
    <use xlink:href="#TimesNewRomanPSMT-69" transform="translate(287.966797 0)"/>
    <use xlink:href="#TimesNewRomanPSMT-65" transform="translate(315.75 0)"/>
    <use xlink:href="#TimesNewRomanPSMT-6c" transform="translate(360.134766 0)"/>
    <use xlink:href="#TimesNewRomanPSMT-64" transform="translate(387.917969 0)"/>
    <use xlink:href="#TimesNewRomanPSMT-28" transform="translate(437.917969 0)"/>
    <use xlink:href="#TimesNewRomanPSMT-74" transform="translate(471.21875 0)"/>
    <use xlink:href="#TimesNewRomanPSMT-6f" transform="translate(499.001953 0)"/>
    <use xlink:href="#TimesNewRomanPSMT-6e" transform="translate(549.001953 0)"/>
    <use xlink:href="#TimesNewRomanPSMT-73" transform="translate(599.001953 0)"/>
    <use xlink:href="#TimesNewRomanPSMT-2f" transform="translate(637.917969 0)"/>
    <use xlink:href="#TimesNewRomanPSMT-68" transform="translate(665.701172 0)"/>
    <use xlink:href="#TimesNewRomanPSMT-65" transform="translate(715.701172 0)"/>
    <use xlink:href="#TimesNewRomanPSMT-63" transform="translate(760.085938 0)"/>
    <use xlink:href="#TimesNewRomanPSMT-74" transform="translate(804.470703 0)"/>
    <use xlink:href="#TimesNewRomanPSMT-61" transform="translate(832.253906 0)"/>
    <use xlink:href="#TimesNewRomanPSMT-72" transform="translate(876.638672 0)"/>
    <use xlink:href="#TimesNewRomanPSMT-65" transform="translate(909.939453 0)"/>
    <use xlink:href="#TimesNewRomanPSMT-29" transform="translate(954.324219 0)"/>
   </g>
  </g>
 </g>
 <defs>
  <clipPath id="p10fbf4b839">
   <rect x="118.28826" y="13.92" width="619.912" height="97.773333"/>
  </clipPath>
  <clipPath id="p47448ce252">
   <rect x="118.28826" y="62.806667" width="619.912" height="97.773333"/>
  </clipPath>
  <clipPath id="pebc42d1a28">
   <rect x="118.28826" y="111.693333" width="619.912" height="97.773333"/>
  </clipPath>
  <clipPath id="pc494e5a2fb">
   <rect x="118.28826" y="160.58" width="619.912" height="97.773333"/>
  </clipPath>
  <clipPath id="p7927ec0043">
   <rect x="118.28826" y="209.466667" width="619.912" height="97.773333"/>
  </clipPath>
 </defs>
</svg>
