<?xml version="1.0" encoding="utf-8" standalone="no"?>
<!DOCTYPE svg PUBLIC "-//W3C//DTD SVG 1.1//EN"
  "http://www.w3.org/Graphics/SVG/1.1/DTD/svg11.dtd">
<svg xmlns:xlink="http://www.w3.org/1999/xlink" width="759.942047pt" height="212.255313pt" viewBox="0 0 759.942047 212.255313" xmlns="http://www.w3.org/2000/svg" version="1.1">
 <metadata>
  <rdf:RDF xmlns:dc="http://purl.org/dc/elements/1.1/" xmlns:cc="http://creativecommons.org/ns#" xmlns:rdf="http://www.w3.org/1999/02/22-rdf-syntax-ns#">
   <cc:Work>
    <dc:type rdf:resource="http://purl.org/dc/dcmitype/StillImage"/>
    <dc:date>2025-05-26T22:33:32.469145</dc:date>
    <dc:format>image/svg+xml</dc:format>
    <dc:creator>
     <cc:Agent>
      <dc:title>Matplotlib v3.10.1, https://matplotlib.org/</dc:title>
     </cc:Agent>
    </dc:creator>
   </cc:Work>
  </rdf:RDF>
 </metadata>
 <defs>
  <style type="text/css">*{stroke-linejoin: round; stroke-linecap: butt}</style>
 </defs>
 <g id="figure_1">
  <g id="patch_1">
   <path d="M -0 212.255313 
L 759.942047 212.255313 
L 759.942047 0 
L -0 0 
z
" style="fill: #ffffff"/>
  </g>
  <g id="axes_1">
   <g id="patch_2">
    <path d="M 98.622548 95.78 
L 740.742048 95.78 
L 740.742048 21.12 
L 98.622548 21.12 
L 98.622548 95.78 
z
" style="fill: none; opacity: 0"/>
   </g>
   <g id="FillBetweenPolyCollection_1">
    <defs>
     <path id="mbbd5789656" d="M 98.622548 -143.907355 
L 98.622548 -116.475313 
L 101.849279 -116.475313 
L 105.07601 -116.475313 
L 108.302741 -116.475313 
L 111.529472 -116.475313 
L 114.756203 -116.475313 
L 117.982934 -116.475313 
L 121.209666 -116.475313 
L 124.436397 -116.475313 
L 127.663128 -116.475313 
L 130.889859 -116.475313 
L 134.11659 -116.475313 
L 137.343321 -116.475313 
L 140.570053 -116.475313 
L 143.796784 -116.475313 
L 147.023515 -116.475313 
L 150.250246 -116.475313 
L 153.476977 -116.475313 
L 156.703708 -116.475313 
L 159.930439 -116.475313 
L 163.157171 -116.475313 
L 166.383902 -116.475313 
L 169.610633 -116.475313 
L 172.837364 -116.475313 
L 176.064095 -116.475313 
L 179.290826 -116.475313 
L 182.517558 -116.475313 
L 185.744289 -116.475313 
L 188.97102 -116.475313 
L 192.197751 -116.475313 
L 195.424482 -116.475313 
L 198.651213 -116.475313 
L 201.877944 -116.475313 
L 205.104676 -116.475313 
L 208.331407 -116.475313 
L 211.558138 -116.475313 
L 214.784869 -116.475313 
L 218.0116 -116.475313 
L 221.238331 -116.475313 
L 224.465063 -116.475313 
L 227.691794 -116.475313 
L 230.918525 -116.475313 
L 234.145256 -116.475313 
L 237.371987 -116.475313 
L 240.598718 -116.475313 
L 243.82545 -116.475313 
L 247.052181 -116.475313 
L 250.278912 -116.475313 
L 253.505643 -116.475313 
L 256.732374 -116.475313 
L 259.959105 -116.475313 
L 263.185836 -116.475313 
L 266.412568 -116.475313 
L 269.639299 -116.475313 
L 272.86603 -116.475313 
L 276.092761 -116.475313 
L 279.319492 -116.475313 
L 282.546223 -116.475313 
L 285.772955 -116.475313 
L 288.999686 -116.475313 
L 292.226417 -116.475313 
L 295.453148 -116.475313 
L 298.679879 -116.475313 
L 301.90661 -116.475313 
L 305.133341 -116.475313 
L 308.360073 -116.475313 
L 311.586804 -116.475313 
L 314.813535 -116.475313 
L 318.040266 -116.475313 
L 321.266997 -116.475313 
L 324.493728 -116.475313 
L 327.72046 -116.475313 
L 330.947191 -116.475313 
L 334.173922 -116.475313 
L 337.400653 -116.475313 
L 340.627384 -116.475313 
L 343.854115 -116.475313 
L 347.080846 -116.475313 
L 350.307578 -116.475313 
L 353.534309 -116.475313 
L 356.76104 -116.475313 
L 359.987771 -116.475313 
L 363.214502 -116.475313 
L 366.441233 -116.475313 
L 369.667965 -116.475313 
L 372.894696 -116.475313 
L 376.121427 -116.475313 
L 379.348158 -116.475313 
L 382.574889 -116.475313 
L 385.80162 -116.475313 
L 389.028352 -116.475313 
L 392.255083 -116.475313 
L 395.481814 -116.475313 
L 398.708545 -116.475313 
L 401.935276 -116.475313 
L 405.162007 -116.475313 
L 408.388738 -116.475313 
L 411.61547 -116.475313 
L 414.842201 -116.475313 
L 418.068932 -116.475313 
L 421.295663 -116.475313 
L 424.522394 -116.475313 
L 427.749125 -116.475313 
L 430.975857 -116.475313 
L 434.202588 -116.475313 
L 437.429319 -116.475313 
L 440.65605 -116.475313 
L 443.882781 -116.475313 
L 447.109512 -116.475313 
L 450.336243 -116.475313 
L 453.562975 -116.475313 
L 456.789706 -116.475313 
L 460.016437 -116.475313 
L 463.243168 -116.475313 
L 466.469899 -116.475313 
L 469.69663 -116.475313 
L 472.923362 -116.475313 
L 476.150093 -116.475313 
L 479.376824 -116.475313 
L 482.603555 -116.475313 
L 485.830286 -116.475313 
L 489.057017 -116.475313 
L 492.283749 -116.475313 
L 495.51048 -116.475313 
L 498.737211 -116.475313 
L 501.963942 -116.475313 
L 505.190673 -116.475313 
L 508.417404 -116.475313 
L 511.644135 -116.475313 
L 514.870867 -116.475313 
L 518.097598 -116.475313 
L 521.324329 -116.475313 
L 524.55106 -116.475313 
L 527.777791 -116.475313 
L 531.004522 -116.475313 
L 534.231254 -116.475313 
L 537.457985 -116.475313 
L 540.684716 -116.475313 
L 543.911447 -116.475313 
L 547.138178 -116.475313 
L 550.364909 -116.475313 
L 553.59164 -116.475313 
L 556.818372 -116.475313 
L 560.045103 -116.475313 
L 563.271834 -116.475313 
L 566.498565 -116.475313 
L 569.725296 -116.475313 
L 572.952027 -116.475313 
L 576.178759 -116.475313 
L 579.40549 -116.475313 
L 582.632221 -116.475313 
L 585.858952 -116.475313 
L 589.085683 -116.475313 
L 592.312414 -116.475313 
L 595.539145 -116.475313 
L 598.765877 -116.475313 
L 601.992608 -116.475313 
L 605.219339 -116.475313 
L 608.44607 -116.475313 
L 611.672801 -116.475313 
L 614.899532 -116.475313 
L 618.126264 -116.475313 
L 621.352995 -116.475313 
L 624.579726 -116.475313 
L 627.806457 -116.475313 
L 631.033188 -116.475313 
L 634.259919 -116.475313 
L 637.486651 -116.475313 
L 640.713382 -116.475313 
L 643.940113 -116.475313 
L 647.166844 -116.475313 
L 650.393575 -116.475313 
L 653.620306 -116.475313 
L 656.847037 -116.475313 
L 660.073769 -116.475313 
L 663.3005 -116.475313 
L 666.527231 -116.475313 
L 669.753962 -116.475313 
L 672.980693 -116.475313 
L 676.207424 -116.475313 
L 679.434156 -116.475313 
L 682.660887 -116.475313 
L 685.887618 -116.475313 
L 689.114349 -116.475313 
L 692.34108 -116.475313 
L 695.567811 -116.475313 
L 698.794542 -116.475313 
L 702.021274 -116.475313 
L 705.248005 -116.475313 
L 708.474736 -116.475313 
L 711.701467 -116.475313 
L 714.928198 -116.475313 
L 718.154929 -116.475313 
L 721.381661 -116.475313 
L 724.608392 -116.475313 
L 727.835123 -116.475313 
L 731.061854 -116.475313 
L 734.288585 -116.475313 
L 737.515316 -116.475313 
L 740.742048 -116.475313 
L 740.742048 -166.550024 
L 740.742048 -166.550024 
L 737.515316 -168.207594 
L 734.288585 -169.822969 
L 731.061854 -171.389832 
L 727.835123 -172.902075 
L 724.608392 -174.353856 
L 721.381661 -175.739649 
L 718.154929 -177.054293 
L 714.928198 -178.293036 
L 711.701467 -179.451577 
L 708.474736 -180.526102 
L 705.248005 -181.513316 
L 702.021274 -182.410469 
L 698.794542 -183.215371 
L 695.567811 -183.926413 
L 692.34108 -184.542567 
L 689.114349 -185.06339 
L 685.887618 -185.489018 
L 682.660887 -185.820152 
L 679.434156 -186.058041 
L 676.207424 -186.204458 
L 672.980693 -186.26167 
L 669.753962 -186.232404 
L 666.527231 -186.119808 
L 663.3005 -185.927411 
L 660.073769 -185.659075 
L 656.847037 -185.318953 
L 653.620306 -184.911434 
L 650.393575 -184.4411 
L 647.166844 -183.912674 
L 643.940113 -183.330969 
L 640.713382 -182.70085 
L 637.486651 -182.027181 
L 634.259919 -181.314788 
L 631.033188 -180.568419 
L 627.806457 -179.79271 
L 624.579726 -178.992154 
L 621.352995 -178.171079 
L 618.126264 -177.333619 
L 614.899532 -176.483704 
L 611.672801 -175.625045 
L 608.44607 -174.761128 
L 605.219339 -173.895207 
L 601.992608 -173.030311 
L 598.765877 -172.169242 
L 595.539145 -171.314587 
L 592.312414 -170.468729 
L 589.085683 -169.633855 
L 585.858952 -168.811977 
L 582.632221 -168.004943 
L 579.40549 -167.214456 
L 576.178759 -166.442091 
L 572.952027 -165.689308 
L 569.725296 -164.957473 
L 566.498565 -164.247867 
L 563.271834 -163.5617 
L 560.045103 -162.900126 
L 556.818372 -162.264243 
L 553.59164 -161.655106 
L 550.364909 -161.07373 
L 547.138178 -160.521087 
L 543.911447 -159.998109 
L 540.684716 -159.505684 
L 537.457985 -159.044647 
L 534.231254 -158.615777 
L 531.004522 -158.219788 
L 527.777791 -157.857317 
L 524.55106 -157.528912 
L 521.324329 -157.235027 
L 518.097598 -156.976004 
L 514.870867 -156.752065 
L 511.644135 -156.563304 
L 508.417404 -156.409676 
L 505.190673 -156.290988 
L 501.963942 -156.206897 
L 498.737211 -156.156903 
L 495.51048 -156.140349 
L 492.283749 -156.15642 
L 489.057017 -156.204149 
L 485.830286 -156.282419 
L 482.603555 -156.389971 
L 479.376824 -156.525415 
L 476.150093 -156.687242 
L 472.923362 -156.873836 
L 469.69663 -157.083491 
L 466.469899 -157.314425 
L 463.243168 -157.564802 
L 460.016437 -157.832747 
L 456.789706 -158.116365 
L 453.562975 -158.413762 
L 450.336243 -158.723063 
L 447.109512 -159.04243 
L 443.882781 -159.370077 
L 440.65605 -159.704293 
L 437.429319 -160.04345 
L 434.202588 -160.386019 
L 430.975857 -160.730583 
L 427.749125 -161.075846 
L 424.522394 -161.420639 
L 421.295663 -161.76393 
L 418.068932 -162.104823 
L 414.842201 -162.442565 
L 411.61547 -162.776543 
L 408.388738 -163.106282 
L 405.162007 -163.431444 
L 401.935276 -163.751822 
L 398.708545 -164.067332 
L 395.481814 -164.378011 
L 392.255083 -164.684002 
L 389.028352 -164.985549 
L 385.80162 -165.282988 
L 382.574889 -165.576735 
L 379.348158 -165.867279 
L 376.121427 -166.155166 
L 372.894696 -166.440998 
L 369.667965 -166.725415 
L 366.441233 -167.009092 
L 363.214502 -167.292727 
L 359.987771 -167.577032 
L 356.76104 -167.862728 
L 353.534309 -168.150537 
L 350.307578 -168.441174 
L 347.080846 -168.735339 
L 343.854115 -169.033715 
L 340.627384 -169.336957 
L 337.400653 -169.645693 
L 334.173922 -169.960507 
L 330.947191 -170.281945 
L 327.72046 -170.6105 
L 324.493728 -170.946607 
L 321.266997 -171.290639 
L 318.040266 -171.642894 
L 314.813535 -172.003592 
L 311.586804 -172.372862 
L 308.360073 -172.750734 
L 305.133341 -173.137129 
L 301.90661 -173.531849 
L 298.679879 -173.934565 
L 295.453148 -174.344808 
L 292.226417 -174.761958 
L 288.999686 -175.185232 
L 285.772955 -175.613677 
L 282.546223 -176.04616 
L 279.319492 -176.481357 
L 276.092761 -176.917752 
L 272.86603 -177.35363 
L 269.639299 -177.787074 
L 266.412568 -178.215963 
L 263.185836 -178.63798 
L 259.959105 -179.05061 
L 256.732374 -179.451151 
L 253.505643 -179.836727 
L 250.278912 -180.204298 
L 247.052181 -180.55068 
L 243.82545 -180.872564 
L 240.598718 -181.16654 
L 237.371987 -181.429124 
L 234.145256 -181.656784 
L 230.918525 -181.845974 
L 227.691794 -181.993169 
L 224.465063 -182.094893 
L 221.238331 -182.147763 
L 218.0116 -182.148521 
L 214.784869 -182.094073 
L 211.558138 -181.981521 
L 208.331407 -181.808208 
L 205.104676 -181.571743 
L 201.877944 -181.270036 
L 198.651213 -180.90133 
L 195.424482 -180.464224 
L 192.197751 -179.957699 
L 188.97102 -179.381137 
L 185.744289 -178.734331 
L 182.517558 -178.017503 
L 179.290826 -177.231306 
L 176.064095 -176.376821 
L 172.837364 -175.455564 
L 169.610633 -174.469463 
L 166.383902 -173.420859 
L 163.157171 -172.312476 
L 159.930439 -171.147405 
L 156.703708 -169.929079 
L 153.476977 -168.661238 
L 150.250246 -167.3479 
L 147.023515 -165.993323 
L 143.796784 -164.601972 
L 140.570053 -163.178472 
L 137.343321 -161.727576 
L 134.11659 -160.254119 
L 130.889859 -158.762978 
L 127.663128 -157.259034 
L 124.436397 -155.747132 
L 121.209666 -154.232043 
L 117.982934 -152.718428 
L 114.756203 -151.210808 
L 111.529472 -149.713531 
L 108.302741 -148.230745 
L 105.07601 -146.766377 
L 101.849279 -145.324107 
L 98.622548 -143.907355 
z
" style="stroke: #7e03a8"/>
    </defs>
    <g clip-path="url(#pac39e7798f)">
     <use xlink:href="#mbbd5789656" x="0" y="212.255313" style="fill: #7e03a8; fill-opacity: 0.5; stroke: #7e03a8"/>
    </g>
   </g>
   <g id="matplotlib.axis_1">
    <g id="xtick_1">
     <g id="line2d_1">
      <defs>
       <path id="m0fa6190006" d="M 0 0 
L 0 3.5 
" style="stroke: #000000; stroke-width: 0.8"/>
      </defs>
      <g>
       <use xlink:href="#m0fa6190006" x="98.622548" y="95.78" style="stroke: #000000; stroke-width: 0.8"/>
      </g>
     </g>
    </g>
    <g id="xtick_2">
     <g id="line2d_2">
      <g>
       <use xlink:href="#m0fa6190006" x="227.046447" y="95.78" style="stroke: #000000; stroke-width: 0.8"/>
      </g>
     </g>
    </g>
    <g id="xtick_3">
     <g id="line2d_3">
      <g>
       <use xlink:href="#m0fa6190006" x="355.470348" y="95.78" style="stroke: #000000; stroke-width: 0.8"/>
      </g>
     </g>
    </g>
    <g id="xtick_4">
     <g id="line2d_4">
      <g>
       <use xlink:href="#m0fa6190006" x="483.894248" y="95.78" style="stroke: #000000; stroke-width: 0.8"/>
      </g>
     </g>
    </g>
    <g id="xtick_5">
     <g id="line2d_5">
      <g>
       <use xlink:href="#m0fa6190006" x="612.318148" y="95.78" style="stroke: #000000; stroke-width: 0.8"/>
      </g>
     </g>
    </g>
    <g id="xtick_6">
     <g id="line2d_6">
      <g>
       <use xlink:href="#m0fa6190006" x="740.742048" y="95.78" style="stroke: #000000; stroke-width: 0.8"/>
      </g>
     </g>
    </g>
   </g>
   <g id="matplotlib.axis_2"/>
   <g id="line2d_7">
    <path d="M 98.622548 68.347957 
L 108.302741 64.024567 
L 124.436397 56.50818 
L 137.343321 50.527737 
L 147.023515 46.261989 
L 153.476977 43.594074 
L 159.930439 41.107907 
L 166.383902 38.834454 
L 172.837364 36.799749 
L 179.290826 35.024007 
L 185.744289 33.520981 
L 192.197751 32.297613 
L 198.651213 31.353983 
L 205.104676 30.68357 
L 211.558138 30.273791 
L 218.0116 30.106791 
L 224.465063 30.160419 
L 230.918525 30.409338 
L 237.371987 30.826189 
L 247.052181 31.704632 
L 256.732374 32.804161 
L 272.86603 34.901682 
L 301.90661 38.723464 
L 318.040266 40.612418 
L 334.173922 42.294805 
L 356.76104 44.392584 
L 401.935276 48.503491 
L 424.522394 50.834673 
L 453.562975 53.84155 
L 466.469899 54.940887 
L 476.150093 55.56807 
L 485.830286 55.972894 
L 495.51048 56.114964 
L 505.190673 55.964324 
L 514.870867 55.503247 
L 524.55106 54.7264 
L 534.231254 53.639535 
L 543.911447 52.257203 
L 553.59164 50.600206 
L 563.271834 48.693612 
L 572.952027 46.566004 
L 585.858952 43.443336 
L 601.992608 39.225002 
L 624.579726 33.263158 
L 634.259919 30.940524 
L 640.713382 29.554462 
L 647.166844 28.342639 
L 653.620306 27.343878 
L 660.073769 26.596237 
L 666.527231 26.135505 
L 672.980693 25.993642 
L 679.434156 26.197271 
L 685.887618 26.766295 
L 692.34108 27.712746 
L 698.794542 29.039941 
L 705.248005 30.741996 
L 711.701467 32.803736 
L 718.154929 35.20102 
L 724.608392 37.901457 
L 731.061854 40.865481 
L 737.515316 44.047718 
L 740.742048 45.705289 
L 740.742048 45.705289 
" clip-path="url(#pac39e7798f)" style="fill: none; stroke: #ffffff; stroke-width: 2; stroke-linecap: square"/>
   </g>
   <g id="line2d_8">
    <path d="M 98.622548 95.78 
L 740.742048 95.78 
" style="fill: none; stroke: #000000; stroke-linecap: square"/>
   </g>
   <g id="text_1">
    <g id="patch_3">
     <path d="M 3.24 105.189687 
L 35.16 105.189687 
L 35.16 86.370312 
L 3.24 86.370312 
z
" style="fill: #ffffff; opacity: 0.5"/>
    </g>
    <!-- Corn -->
    <g transform="translate(7.2 98.662813) scale(0.12 -0.12)">
     <defs>
      <path id="TimesNewRomanPSMT-43" d="M 3853 4334 
L 3950 2894 
L 3853 2894 
Q 3659 3541 3300 3825 
Q 2941 4109 2438 4109 
Q 2016 4109 1675 3895 
Q 1334 3681 1139 3212 
Q 944 2744 944 2047 
Q 944 1472 1128 1050 
Q 1313 628 1683 403 
Q 2053 178 2528 178 
Q 2941 178 3256 354 
Q 3572 531 3950 1056 
L 4047 994 
Q 3728 428 3303 165 
Q 2878 -97 2294 -97 
Q 1241 -97 663 684 
Q 231 1266 231 2053 
Q 231 2688 515 3219 
Q 800 3750 1298 4042 
Q 1797 4334 2388 4334 
Q 2847 4334 3294 4109 
Q 3425 4041 3481 4041 
Q 3566 4041 3628 4100 
Q 3709 4184 3744 4334 
L 3853 4334 
z
" transform="scale(0.015625)"/>
      <path id="TimesNewRomanPSMT-6f" d="M 1600 2947 
Q 2250 2947 2644 2453 
Q 2978 2031 2978 1484 
Q 2978 1100 2793 706 
Q 2609 313 2286 112 
Q 1963 -88 1566 -88 
Q 919 -88 538 428 
Q 216 863 216 1403 
Q 216 1797 411 2186 
Q 606 2575 925 2761 
Q 1244 2947 1600 2947 
z
M 1503 2744 
Q 1338 2744 1170 2645 
Q 1003 2547 900 2300 
Q 797 2053 797 1666 
Q 797 1041 1045 587 
Q 1294 134 1700 134 
Q 2003 134 2200 384 
Q 2397 634 2397 1244 
Q 2397 2006 2069 2444 
Q 1847 2744 1503 2744 
z
" transform="scale(0.015625)"/>
      <path id="TimesNewRomanPSMT-72" d="M 1038 2947 
L 1038 2303 
Q 1397 2947 1775 2947 
Q 1947 2947 2059 2842 
Q 2172 2738 2172 2600 
Q 2172 2478 2090 2393 
Q 2009 2309 1897 2309 
Q 1788 2309 1652 2417 
Q 1516 2525 1450 2525 
Q 1394 2525 1328 2463 
Q 1188 2334 1038 2041 
L 1038 669 
Q 1038 431 1097 309 
Q 1138 225 1241 169 
Q 1344 113 1538 113 
L 1538 0 
L 72 0 
L 72 113 
Q 291 113 397 181 
Q 475 231 506 341 
Q 522 394 522 644 
L 522 1753 
Q 522 2253 501 2348 
Q 481 2444 426 2487 
Q 372 2531 291 2531 
Q 194 2531 72 2484 
L 41 2597 
L 906 2947 
L 1038 2947 
z
" transform="scale(0.015625)"/>
      <path id="TimesNewRomanPSMT-6e" d="M 1034 2341 
Q 1538 2947 1994 2947 
Q 2228 2947 2397 2830 
Q 2566 2713 2666 2444 
Q 2734 2256 2734 1869 
L 2734 647 
Q 2734 375 2778 278 
Q 2813 200 2889 156 
Q 2966 113 3172 113 
L 3172 0 
L 1756 0 
L 1756 113 
L 1816 113 
Q 2016 113 2095 173 
Q 2175 234 2206 353 
Q 2219 400 2219 647 
L 2219 1819 
Q 2219 2209 2117 2386 
Q 2016 2563 1775 2563 
Q 1403 2563 1034 2156 
L 1034 647 
Q 1034 356 1069 288 
Q 1113 197 1189 155 
Q 1266 113 1500 113 
L 1500 0 
L 84 0 
L 84 113 
L 147 113 
Q 366 113 442 223 
Q 519 334 519 647 
L 519 1709 
Q 519 2225 495 2337 
Q 472 2450 423 2490 
Q 375 2531 294 2531 
Q 206 2531 84 2484 
L 38 2597 
L 900 2947 
L 1034 2947 
L 1034 2341 
z
" transform="scale(0.015625)"/>
     </defs>
     <use xlink:href="#TimesNewRomanPSMT-43"/>
     <use xlink:href="#TimesNewRomanPSMT-6f" transform="translate(66.699219 0)"/>
     <use xlink:href="#TimesNewRomanPSMT-72" transform="translate(116.699219 0)"/>
     <use xlink:href="#TimesNewRomanPSMT-6e" transform="translate(150 0)"/>
    </g>
   </g>
  </g>
  <g id="axes_2">
   <g id="patch_4">
    <path d="M 98.622548 133.11 
L 740.742048 133.11 
L 740.742048 58.45 
L 98.622548 58.45 
L 98.622548 133.11 
z
" style="fill: none; opacity: 0"/>
   </g>
   <g id="FillBetweenPolyCollection_2">
    <defs>
     <path id="m40b96166da" d="M 98.622548 -116.739136 
L 98.622548 -79.145313 
L 101.849279 -79.145313 
L 105.07601 -79.145313 
L 108.302741 -79.145313 
L 111.529472 -79.145313 
L 114.756203 -79.145313 
L 117.982934 -79.145313 
L 121.209666 -79.145313 
L 124.436397 -79.145313 
L 127.663128 -79.145313 
L 130.889859 -79.145313 
L 134.11659 -79.145313 
L 137.343321 -79.145313 
L 140.570053 -79.145313 
L 143.796784 -79.145313 
L 147.023515 -79.145313 
L 150.250246 -79.145313 
L 153.476977 -79.145313 
L 156.703708 -79.145313 
L 159.930439 -79.145313 
L 163.157171 -79.145313 
L 166.383902 -79.145313 
L 169.610633 -79.145313 
L 172.837364 -79.145313 
L 176.064095 -79.145313 
L 179.290826 -79.145313 
L 182.517558 -79.145313 
L 185.744289 -79.145313 
L 188.97102 -79.145313 
L 192.197751 -79.145313 
L 195.424482 -79.145313 
L 198.651213 -79.145313 
L 201.877944 -79.145313 
L 205.104676 -79.145313 
L 208.331407 -79.145313 
L 211.558138 -79.145313 
L 214.784869 -79.145313 
L 218.0116 -79.145313 
L 221.238331 -79.145313 
L 224.465063 -79.145313 
L 227.691794 -79.145313 
L 230.918525 -79.145313 
L 234.145256 -79.145313 
L 237.371987 -79.145313 
L 240.598718 -79.145313 
L 243.82545 -79.145313 
L 247.052181 -79.145313 
L 250.278912 -79.145313 
L 253.505643 -79.145313 
L 256.732374 -79.145313 
L 259.959105 -79.145313 
L 263.185836 -79.145313 
L 266.412568 -79.145313 
L 269.639299 -79.145313 
L 272.86603 -79.145313 
L 276.092761 -79.145313 
L 279.319492 -79.145313 
L 282.546223 -79.145313 
L 285.772955 -79.145313 
L 288.999686 -79.145313 
L 292.226417 -79.145313 
L 295.453148 -79.145313 
L 298.679879 -79.145313 
L 301.90661 -79.145313 
L 305.133341 -79.145313 
L 308.360073 -79.145313 
L 311.586804 -79.145313 
L 314.813535 -79.145313 
L 318.040266 -79.145313 
L 321.266997 -79.145313 
L 324.493728 -79.145313 
L 327.72046 -79.145313 
L 330.947191 -79.145313 
L 334.173922 -79.145313 
L 337.400653 -79.145313 
L 340.627384 -79.145313 
L 343.854115 -79.145313 
L 347.080846 -79.145313 
L 350.307578 -79.145313 
L 353.534309 -79.145313 
L 356.76104 -79.145313 
L 359.987771 -79.145313 
L 363.214502 -79.145313 
L 366.441233 -79.145313 
L 369.667965 -79.145313 
L 372.894696 -79.145313 
L 376.121427 -79.145313 
L 379.348158 -79.145313 
L 382.574889 -79.145313 
L 385.80162 -79.145313 
L 389.028352 -79.145313 
L 392.255083 -79.145313 
L 395.481814 -79.145313 
L 398.708545 -79.145313 
L 401.935276 -79.145313 
L 405.162007 -79.145313 
L 408.388738 -79.145313 
L 411.61547 -79.145313 
L 414.842201 -79.145313 
L 418.068932 -79.145313 
L 421.295663 -79.145313 
L 424.522394 -79.145313 
L 427.749125 -79.145313 
L 430.975857 -79.145313 
L 434.202588 -79.145313 
L 437.429319 -79.145313 
L 440.65605 -79.145313 
L 443.882781 -79.145313 
L 447.109512 -79.145313 
L 450.336243 -79.145313 
L 453.562975 -79.145313 
L 456.789706 -79.145313 
L 460.016437 -79.145313 
L 463.243168 -79.145313 
L 466.469899 -79.145313 
L 469.69663 -79.145313 
L 472.923362 -79.145313 
L 476.150093 -79.145313 
L 479.376824 -79.145313 
L 482.603555 -79.145313 
L 485.830286 -79.145313 
L 489.057017 -79.145313 
L 492.283749 -79.145313 
L 495.51048 -79.145313 
L 498.737211 -79.145313 
L 501.963942 -79.145313 
L 505.190673 -79.145313 
L 508.417404 -79.145313 
L 511.644135 -79.145313 
L 514.870867 -79.145313 
L 518.097598 -79.145313 
L 521.324329 -79.145313 
L 524.55106 -79.145313 
L 527.777791 -79.145313 
L 531.004522 -79.145313 
L 534.231254 -79.145313 
L 537.457985 -79.145313 
L 540.684716 -79.145313 
L 543.911447 -79.145313 
L 547.138178 -79.145313 
L 550.364909 -79.145313 
L 553.59164 -79.145313 
L 556.818372 -79.145313 
L 560.045103 -79.145313 
L 563.271834 -79.145313 
L 566.498565 -79.145313 
L 569.725296 -79.145313 
L 572.952027 -79.145313 
L 576.178759 -79.145313 
L 579.40549 -79.145313 
L 582.632221 -79.145313 
L 585.858952 -79.145313 
L 589.085683 -79.145313 
L 592.312414 -79.145313 
L 595.539145 -79.145313 
L 598.765877 -79.145313 
L 601.992608 -79.145313 
L 605.219339 -79.145313 
L 608.44607 -79.145313 
L 611.672801 -79.145313 
L 614.899532 -79.145313 
L 618.126264 -79.145313 
L 621.352995 -79.145313 
L 624.579726 -79.145313 
L 627.806457 -79.145313 
L 631.033188 -79.145313 
L 634.259919 -79.145313 
L 637.486651 -79.145313 
L 640.713382 -79.145313 
L 643.940113 -79.145313 
L 647.166844 -79.145313 
L 650.393575 -79.145313 
L 653.620306 -79.145313 
L 656.847037 -79.145313 
L 660.073769 -79.145313 
L 663.3005 -79.145313 
L 666.527231 -79.145313 
L 669.753962 -79.145313 
L 672.980693 -79.145313 
L 676.207424 -79.145313 
L 679.434156 -79.145313 
L 682.660887 -79.145313 
L 685.887618 -79.145313 
L 689.114349 -79.145313 
L 692.34108 -79.145313 
L 695.567811 -79.145313 
L 698.794542 -79.145313 
L 702.021274 -79.145313 
L 705.248005 -79.145313 
L 708.474736 -79.145313 
L 711.701467 -79.145313 
L 714.928198 -79.145313 
L 718.154929 -79.145313 
L 721.381661 -79.145313 
L 724.608392 -79.145313 
L 727.835123 -79.145313 
L 731.061854 -79.145313 
L 734.288585 -79.145313 
L 737.515316 -79.145313 
L 740.742048 -79.145313 
L 740.742048 -122.012974 
L 740.742048 -122.012974 
L 737.515316 -123.3435 
L 734.288585 -124.646605 
L 731.061854 -125.918556 
L 727.835123 -127.155767 
L 724.608392 -128.354821 
L 721.381661 -129.512493 
L 718.154929 -130.625772 
L 714.928198 -131.691876 
L 711.701467 -132.708269 
L 708.474736 -133.672675 
L 705.248005 -134.583091 
L 702.021274 -135.437791 
L 698.794542 -136.235336 
L 695.567811 -136.974578 
L 692.34108 -137.654657 
L 689.114349 -138.275007 
L 685.887618 -138.835345 
L 682.660887 -139.335669 
L 679.434156 -139.776254 
L 676.207424 -140.157632 
L 672.980693 -140.480593 
L 669.753962 -140.746161 
L 666.527231 -140.955587 
L 663.3005 -141.110328 
L 660.073769 -141.212037 
L 656.847037 -141.262536 
L 653.620306 -141.263808 
L 650.393575 -141.217968 
L 647.166844 -141.127256 
L 643.940113 -140.994006 
L 640.713382 -140.820638 
L 637.486651 -140.609633 
L 634.259919 -140.363516 
L 631.033188 -140.084844 
L 627.806457 -139.776183 
L 624.579726 -139.440098 
L 621.352995 -139.079135 
L 618.126264 -138.69581 
L 614.899532 -138.292598 
L 611.672801 -137.871919 
L 608.44607 -137.436132 
L 605.219339 -136.987525 
L 601.992608 -136.528308 
L 598.765877 -136.06061 
L 595.539145 -135.586472 
L 592.312414 -135.107843 
L 589.085683 -134.626583 
L 585.858952 -134.144453 
L 582.632221 -133.663126 
L 579.40549 -133.184177 
L 576.178759 -132.709089 
L 572.952027 -132.239255 
L 569.725296 -131.775976 
L 566.498565 -131.320467 
L 563.271834 -130.873857 
L 560.045103 -130.43719 
L 556.818372 -130.011428 
L 553.59164 -129.597453 
L 550.364909 -129.196065 
L 547.138178 -128.807987 
L 543.911447 -128.433859 
L 540.684716 -128.074245 
L 537.457985 -127.729624 
L 534.231254 -127.400396 
L 531.004522 -127.086873 
L 527.777791 -126.789283 
L 524.55106 -126.507763 
L 521.324329 -126.242357 
L 518.097598 -125.993016 
L 514.870867 -125.759592 
L 511.644135 -125.541837 
L 508.417404 -125.339401 
L 505.190673 -125.15183 
L 501.963942 -124.97857 
L 498.737211 -124.818959 
L 495.51048 -124.672238 
L 492.283749 -124.537546 
L 489.057017 -124.413933 
L 485.830286 -124.300356 
L 482.603555 -124.195696 
L 479.376824 -124.098761 
L 476.150093 -124.008298 
L 472.923362 -123.923008 
L 469.69663 -123.841556 
L 466.469899 -123.76259 
L 463.243168 -123.684755 
L 460.016437 -123.606711 
L 456.789706 -123.527153 
L 453.562975 -123.44483 
L 450.336243 -123.358564 
L 447.109512 -123.267268 
L 443.882781 -123.169969 
L 440.65605 -123.065825 
L 437.429319 -122.954144 
L 434.202588 -122.834399 
L 430.975857 -122.706247 
L 427.749125 -122.569539 
L 424.522394 -122.424333 
L 421.295663 -122.270907 
L 418.068932 -122.109758 
L 414.842201 -121.941614 
L 411.61547 -121.76743 
L 408.388738 -121.588388 
L 405.162007 -121.405893 
L 401.935276 -121.221563 
L 398.708545 -121.03722 
L 395.481814 -120.854875 
L 392.255083 -120.676712 
L 389.028352 -120.505067 
L 385.80162 -120.34241 
L 382.574889 -120.191317 
L 379.348158 -120.054448 
L 376.121427 -119.934515 
L 372.894696 -119.834261 
L 369.667965 -119.756425 
L 366.441233 -119.703713 
L 363.214502 -119.678773 
L 359.987771 -119.684161 
L 356.76104 -119.722315 
L 353.534309 -119.795529 
L 350.307578 -119.905924 
L 347.080846 -120.055427 
L 343.854115 -120.245749 
L 340.627384 -120.478361 
L 337.400653 -120.754483 
L 334.173922 -121.075064 
L 330.947191 -121.440776 
L 327.72046 -121.851996 
L 324.493728 -122.308808 
L 321.266997 -122.810996 
L 318.040266 -123.358039 
L 314.813535 -123.949121 
L 311.586804 -124.583126 
L 308.360073 -125.258649 
L 305.133341 -125.974002 
L 301.90661 -126.727226 
L 298.679879 -127.516099 
L 295.453148 -128.338151 
L 292.226417 -129.190675 
L 288.999686 -130.070746 
L 285.772955 -130.975232 
L 282.546223 -131.90081 
L 279.319492 -132.843985 
L 276.092761 -133.801102 
L 272.86603 -134.768364 
L 269.639299 -135.741848 
L 266.412568 -136.717522 
L 263.185836 -137.691258 
L 259.959105 -138.65885 
L 256.732374 -139.616027 
L 253.505643 -140.558472 
L 250.278912 -141.481836 
L 247.052181 -142.381753 
L 243.82545 -143.253858 
L 240.598718 -144.093801 
L 237.371987 -144.897266 
L 234.145256 -145.65999 
L 230.918525 -146.377776 
L 227.691794 -147.046516 
L 224.465063 -147.66221 
L 221.238331 -148.220987 
L 218.0116 -148.719122 
L 214.784869 -149.15306 
L 211.558138 -149.51944 
L 208.331407 -149.815113 
L 205.104676 -150.037166 
L 201.877944 -150.182945 
L 198.651213 -150.250074 
L 195.424482 -150.236479 
L 192.197751 -150.140405 
L 188.97102 -149.960437 
L 185.744289 -149.695513 
L 182.517558 -149.344947 
L 179.290826 -148.908431 
L 176.064095 -148.386054 
L 172.837364 -147.778306 
L 169.610633 -147.086082 
L 166.383902 -146.310684 
L 163.157171 -145.453817 
L 159.930439 -144.517587 
L 156.703708 -143.504489 
L 153.476977 -142.417394 
L 150.250246 -141.259533 
L 147.023515 -140.03448 
L 143.796784 -138.746127 
L 140.570053 -137.398655 
L 137.343321 -135.996514 
L 134.11659 -134.544383 
L 130.889859 -133.047144 
L 127.663128 -131.509842 
L 124.436397 -129.937655 
L 121.209666 -128.335852 
L 117.982934 -126.709757 
L 114.756203 -125.064717 
L 111.529472 -123.406056 
L 108.302741 -121.739047 
L 105.07601 -120.068875 
L 101.849279 -118.400601 
L 98.622548 -116.739136 
z
" style="stroke: #cc4778"/>
    </defs>
    <g clip-path="url(#pcbb4523197)">
     <use xlink:href="#m40b96166da" x="0" y="212.255313" style="fill: #cc4778; fill-opacity: 0.5; stroke: #cc4778"/>
    </g>
   </g>
   <g id="matplotlib.axis_3">
    <g id="xtick_7">
     <g id="line2d_9">
      <g>
       <use xlink:href="#m0fa6190006" x="98.622548" y="133.11" style="stroke: #000000; stroke-width: 0.8"/>
      </g>
     </g>
    </g>
    <g id="xtick_8">
     <g id="line2d_10">
      <g>
       <use xlink:href="#m0fa6190006" x="227.046447" y="133.11" style="stroke: #000000; stroke-width: 0.8"/>
      </g>
     </g>
    </g>
    <g id="xtick_9">
     <g id="line2d_11">
      <g>
       <use xlink:href="#m0fa6190006" x="355.470348" y="133.11" style="stroke: #000000; stroke-width: 0.8"/>
      </g>
     </g>
    </g>
    <g id="xtick_10">
     <g id="line2d_12">
      <g>
       <use xlink:href="#m0fa6190006" x="483.894248" y="133.11" style="stroke: #000000; stroke-width: 0.8"/>
      </g>
     </g>
    </g>
    <g id="xtick_11">
     <g id="line2d_13">
      <g>
       <use xlink:href="#m0fa6190006" x="612.318148" y="133.11" style="stroke: #000000; stroke-width: 0.8"/>
      </g>
     </g>
    </g>
    <g id="xtick_12">
     <g id="line2d_14">
      <g>
       <use xlink:href="#m0fa6190006" x="740.742048" y="133.11" style="stroke: #000000; stroke-width: 0.8"/>
      </g>
     </g>
    </g>
   </g>
   <g id="matplotlib.axis_4"/>
   <g id="line2d_15">
    <path d="M 98.622548 95.516177 
L 124.436397 82.317657 
L 134.11659 77.710929 
L 140.570053 74.856657 
L 147.023515 72.220832 
L 153.476977 69.837919 
L 159.930439 67.737725 
L 166.383902 65.944629 
L 172.837364 64.477006 
L 179.290826 63.346882 
L 185.744289 62.559799 
L 192.197751 62.114907 
L 198.651213 62.005238 
L 205.104676 62.218146 
L 211.558138 62.735873 
L 218.0116 63.536191 
L 224.465063 64.593102 
L 230.918525 65.877537 
L 237.371987 67.358046 
L 247.052181 69.873559 
L 256.732374 72.639285 
L 292.226417 83.064637 
L 301.90661 85.528086 
L 308.360073 86.996664 
L 314.813535 88.306191 
L 321.266997 89.444317 
L 327.72046 90.403317 
L 334.173922 91.180248 
L 340.627384 91.776952 
L 347.080846 92.199885 
L 353.534309 92.459784 
L 363.214502 92.57654 
L 372.894696 92.421051 
L 385.80162 91.912902 
L 408.388738 90.666925 
L 427.749125 89.685774 
L 443.882781 89.085344 
L 469.69663 88.413756 
L 489.057017 87.84138 
L 501.963942 87.276743 
L 514.870867 86.49572 
L 527.777791 85.466029 
L 540.684716 84.181068 
L 553.59164 82.65786 
L 569.725296 80.479337 
L 595.539145 76.668841 
L 611.672801 74.383394 
L 621.352995 73.176178 
L 631.033188 72.170468 
L 640.713382 71.434674 
L 647.166844 71.128057 
L 653.620306 70.991505 
L 660.073769 71.043276 
L 666.527231 71.299726 
L 672.980693 71.77472 
L 679.434156 72.479059 
L 685.887618 73.419968 
L 692.34108 74.600655 
L 698.794542 76.019976 
L 705.248005 77.672221 
L 711.701467 79.547044 
L 718.154929 81.62954 
L 724.608392 83.900491 
L 734.288585 87.608708 
L 740.742048 90.242338 
L 740.742048 90.242338 
" clip-path="url(#pcbb4523197)" style="fill: none; stroke: #ffffff; stroke-width: 2; stroke-linecap: square"/>
   </g>
   <g id="line2d_16">
    <path d="M 98.622548 133.11 
L 740.742048 133.11 
" style="fill: none; stroke: #000000; stroke-linecap: square"/>
   </g>
   <g id="text_2">
    <g id="patch_5">
     <path d="M 5.248125 142.519688 
L 35.16 142.519688 
L 35.16 123.700312 
L 5.248125 123.700312 
z
" style="fill: #ffffff; opacity: 0.5"/>
    </g>
    <!-- Rice -->
    <g transform="translate(9.208125 135.992813) scale(0.12 -0.12)">
     <defs>
      <path id="TimesNewRomanPSMT-52" d="M 4325 0 
L 3194 0 
L 1759 1981 
Q 1600 1975 1500 1975 
Q 1459 1975 1412 1976 
Q 1366 1978 1316 1981 
L 1316 750 
Q 1316 350 1403 253 
Q 1522 116 1759 116 
L 1925 116 
L 1925 0 
L 109 0 
L 109 116 
L 269 116 
Q 538 116 653 291 
Q 719 388 719 750 
L 719 3488 
Q 719 3888 631 3984 
Q 509 4122 269 4122 
L 109 4122 
L 109 4238 
L 1653 4238 
Q 2328 4238 2648 4139 
Q 2969 4041 3192 3777 
Q 3416 3513 3416 3147 
Q 3416 2756 3161 2468 
Q 2906 2181 2372 2063 
L 3247 847 
Q 3547 428 3762 290 
Q 3978 153 4325 116 
L 4325 0 
z
M 1316 2178 
Q 1375 2178 1419 2176 
Q 1463 2175 1491 2175 
Q 2097 2175 2405 2437 
Q 2713 2700 2713 3106 
Q 2713 3503 2464 3751 
Q 2216 4000 1806 4000 
Q 1625 4000 1316 3941 
L 1316 2178 
z
" transform="scale(0.015625)"/>
      <path id="TimesNewRomanPSMT-69" d="M 928 4444 
Q 1059 4444 1151 4351 
Q 1244 4259 1244 4128 
Q 1244 3997 1151 3903 
Q 1059 3809 928 3809 
Q 797 3809 703 3903 
Q 609 3997 609 4128 
Q 609 4259 701 4351 
Q 794 4444 928 4444 
z
M 1188 2947 
L 1188 647 
Q 1188 378 1227 289 
Q 1266 200 1342 156 
Q 1419 113 1622 113 
L 1622 0 
L 231 0 
L 231 113 
Q 441 113 512 153 
Q 584 194 626 287 
Q 669 381 669 647 
L 669 1750 
Q 669 2216 641 2353 
Q 619 2453 572 2492 
Q 525 2531 444 2531 
Q 356 2531 231 2484 
L 188 2597 
L 1050 2947 
L 1188 2947 
z
" transform="scale(0.015625)"/>
      <path id="TimesNewRomanPSMT-63" d="M 2631 1088 
Q 2516 522 2178 217 
Q 1841 -88 1431 -88 
Q 944 -88 581 321 
Q 219 731 219 1428 
Q 219 2103 620 2525 
Q 1022 2947 1584 2947 
Q 2006 2947 2278 2723 
Q 2550 2500 2550 2259 
Q 2550 2141 2473 2067 
Q 2397 1994 2259 1994 
Q 2075 1994 1981 2113 
Q 1928 2178 1911 2362 
Q 1894 2547 1784 2644 
Q 1675 2738 1481 2738 
Q 1169 2738 978 2506 
Q 725 2200 725 1697 
Q 725 1184 976 792 
Q 1228 400 1656 400 
Q 1963 400 2206 609 
Q 2378 753 2541 1131 
L 2631 1088 
z
" transform="scale(0.015625)"/>
      <path id="TimesNewRomanPSMT-65" d="M 681 1784 
Q 678 1147 991 784 
Q 1303 422 1725 422 
Q 2006 422 2214 576 
Q 2422 731 2563 1106 
L 2659 1044 
Q 2594 616 2278 264 
Q 1963 -88 1488 -88 
Q 972 -88 605 314 
Q 238 716 238 1394 
Q 238 2128 614 2539 
Q 991 2950 1559 2950 
Q 2041 2950 2350 2633 
Q 2659 2316 2659 1784 
L 681 1784 
z
M 681 1966 
L 2006 1966 
Q 1991 2241 1941 2353 
Q 1863 2528 1708 2628 
Q 1553 2728 1384 2728 
Q 1125 2728 920 2526 
Q 716 2325 681 1966 
z
" transform="scale(0.015625)"/>
     </defs>
     <use xlink:href="#TimesNewRomanPSMT-52"/>
     <use xlink:href="#TimesNewRomanPSMT-69" transform="translate(66.699219 0)"/>
     <use xlink:href="#TimesNewRomanPSMT-63" transform="translate(94.482422 0)"/>
     <use xlink:href="#TimesNewRomanPSMT-65" transform="translate(138.867188 0)"/>
    </g>
   </g>
  </g>
  <g id="axes_3">
   <g id="patch_6">
    <path d="M 98.622548 170.44 
L 740.742048 170.44 
L 740.742048 95.78 
L 98.622548 95.78 
L 98.622548 170.44 
z
" style="fill: none; opacity: 0"/>
   </g>
   <g id="FillBetweenPolyCollection_3">
    <defs>
     <path id="mbff6ca23ce" d="M 98.622548 -87.615194 
L 98.622548 -41.815313 
L 101.849279 -41.815313 
L 105.07601 -41.815313 
L 108.302741 -41.815313 
L 111.529472 -41.815313 
L 114.756203 -41.815313 
L 117.982934 -41.815313 
L 121.209666 -41.815313 
L 124.436397 -41.815313 
L 127.663128 -41.815313 
L 130.889859 -41.815313 
L 134.11659 -41.815313 
L 137.343321 -41.815313 
L 140.570053 -41.815313 
L 143.796784 -41.815313 
L 147.023515 -41.815313 
L 150.250246 -41.815313 
L 153.476977 -41.815313 
L 156.703708 -41.815313 
L 159.930439 -41.815313 
L 163.157171 -41.815313 
L 166.383902 -41.815313 
L 169.610633 -41.815313 
L 172.837364 -41.815313 
L 176.064095 -41.815313 
L 179.290826 -41.815313 
L 182.517558 -41.815313 
L 185.744289 -41.815313 
L 188.97102 -41.815313 
L 192.197751 -41.815313 
L 195.424482 -41.815313 
L 198.651213 -41.815313 
L 201.877944 -41.815313 
L 205.104676 -41.815313 
L 208.331407 -41.815313 
L 211.558138 -41.815313 
L 214.784869 -41.815313 
L 218.0116 -41.815313 
L 221.238331 -41.815313 
L 224.465063 -41.815313 
L 227.691794 -41.815313 
L 230.918525 -41.815313 
L 234.145256 -41.815313 
L 237.371987 -41.815313 
L 240.598718 -41.815313 
L 243.82545 -41.815313 
L 247.052181 -41.815313 
L 250.278912 -41.815313 
L 253.505643 -41.815313 
L 256.732374 -41.815313 
L 259.959105 -41.815313 
L 263.185836 -41.815313 
L 266.412568 -41.815313 
L 269.639299 -41.815313 
L 272.86603 -41.815313 
L 276.092761 -41.815313 
L 279.319492 -41.815313 
L 282.546223 -41.815313 
L 285.772955 -41.815313 
L 288.999686 -41.815313 
L 292.226417 -41.815313 
L 295.453148 -41.815313 
L 298.679879 -41.815313 
L 301.90661 -41.815313 
L 305.133341 -41.815313 
L 308.360073 -41.815313 
L 311.586804 -41.815313 
L 314.813535 -41.815313 
L 318.040266 -41.815313 
L 321.266997 -41.815313 
L 324.493728 -41.815313 
L 327.72046 -41.815313 
L 330.947191 -41.815313 
L 334.173922 -41.815313 
L 337.400653 -41.815313 
L 340.627384 -41.815313 
L 343.854115 -41.815313 
L 347.080846 -41.815313 
L 350.307578 -41.815313 
L 353.534309 -41.815313 
L 356.76104 -41.815313 
L 359.987771 -41.815313 
L 363.214502 -41.815313 
L 366.441233 -41.815313 
L 369.667965 -41.815313 
L 372.894696 -41.815313 
L 376.121427 -41.815313 
L 379.348158 -41.815313 
L 382.574889 -41.815313 
L 385.80162 -41.815313 
L 389.028352 -41.815313 
L 392.255083 -41.815313 
L 395.481814 -41.815313 
L 398.708545 -41.815313 
L 401.935276 -41.815313 
L 405.162007 -41.815313 
L 408.388738 -41.815313 
L 411.61547 -41.815313 
L 414.842201 -41.815313 
L 418.068932 -41.815313 
L 421.295663 -41.815313 
L 424.522394 -41.815313 
L 427.749125 -41.815313 
L 430.975857 -41.815313 
L 434.202588 -41.815313 
L 437.429319 -41.815313 
L 440.65605 -41.815313 
L 443.882781 -41.815313 
L 447.109512 -41.815313 
L 450.336243 -41.815313 
L 453.562975 -41.815313 
L 456.789706 -41.815313 
L 460.016437 -41.815313 
L 463.243168 -41.815313 
L 466.469899 -41.815313 
L 469.69663 -41.815313 
L 472.923362 -41.815313 
L 476.150093 -41.815313 
L 479.376824 -41.815313 
L 482.603555 -41.815313 
L 485.830286 -41.815313 
L 489.057017 -41.815313 
L 492.283749 -41.815313 
L 495.51048 -41.815313 
L 498.737211 -41.815313 
L 501.963942 -41.815313 
L 505.190673 -41.815313 
L 508.417404 -41.815313 
L 511.644135 -41.815313 
L 514.870867 -41.815313 
L 518.097598 -41.815313 
L 521.324329 -41.815313 
L 524.55106 -41.815313 
L 527.777791 -41.815313 
L 531.004522 -41.815313 
L 534.231254 -41.815313 
L 537.457985 -41.815313 
L 540.684716 -41.815313 
L 543.911447 -41.815313 
L 547.138178 -41.815313 
L 550.364909 -41.815313 
L 553.59164 -41.815313 
L 556.818372 -41.815313 
L 560.045103 -41.815313 
L 563.271834 -41.815313 
L 566.498565 -41.815313 
L 569.725296 -41.815313 
L 572.952027 -41.815313 
L 576.178759 -41.815313 
L 579.40549 -41.815313 
L 582.632221 -41.815313 
L 585.858952 -41.815313 
L 589.085683 -41.815313 
L 592.312414 -41.815313 
L 595.539145 -41.815313 
L 598.765877 -41.815313 
L 601.992608 -41.815313 
L 605.219339 -41.815313 
L 608.44607 -41.815313 
L 611.672801 -41.815313 
L 614.899532 -41.815313 
L 618.126264 -41.815313 
L 621.352995 -41.815313 
L 624.579726 -41.815313 
L 627.806457 -41.815313 
L 631.033188 -41.815313 
L 634.259919 -41.815313 
L 637.486651 -41.815313 
L 640.713382 -41.815313 
L 643.940113 -41.815313 
L 647.166844 -41.815313 
L 650.393575 -41.815313 
L 653.620306 -41.815313 
L 656.847037 -41.815313 
L 660.073769 -41.815313 
L 663.3005 -41.815313 
L 666.527231 -41.815313 
L 669.753962 -41.815313 
L 672.980693 -41.815313 
L 676.207424 -41.815313 
L 679.434156 -41.815313 
L 682.660887 -41.815313 
L 685.887618 -41.815313 
L 689.114349 -41.815313 
L 692.34108 -41.815313 
L 695.567811 -41.815313 
L 698.794542 -41.815313 
L 702.021274 -41.815313 
L 705.248005 -41.815313 
L 708.474736 -41.815313 
L 711.701467 -41.815313 
L 714.928198 -41.815313 
L 718.154929 -41.815313 
L 721.381661 -41.815313 
L 724.608392 -41.815313 
L 727.835123 -41.815313 
L 731.061854 -41.815313 
L 734.288585 -41.815313 
L 737.515316 -41.815313 
L 740.742048 -41.815313 
L 740.742048 -84.298822 
L 740.742048 -84.298822 
L 737.515316 -85.879843 
L 734.288585 -87.450447 
L 731.061854 -89.005753 
L 727.835123 -90.540822 
L 724.608392 -92.050683 
L 721.381661 -93.530373 
L 718.154929 -94.974961 
L 714.928198 -96.379584 
L 711.701467 -97.73948 
L 708.474736 -99.050019 
L 705.248005 -100.306741 
L 702.021274 -101.50538 
L 698.794542 -102.641902 
L 695.567811 -103.712529 
L 692.34108 -104.713775 
L 689.114349 -105.642463 
L 685.887618 -106.495755 
L 682.660887 -107.271174 
L 679.434156 -107.96662 
L 676.207424 -108.580384 
L 672.980693 -109.111169 
L 669.753962 -109.55809 
L 666.527231 -109.920685 
L 663.3005 -110.198918 
L 660.073769 -110.393174 
L 656.847037 -110.504258 
L 653.620306 -110.533386 
L 650.393575 -110.482169 
L 647.166844 -110.352606 
L 643.940113 -110.147057 
L 640.713382 -109.86823 
L 637.486651 -109.51915 
L 634.259919 -109.103137 
L 631.033188 -108.623776 
L 627.806457 -108.084888 
L 624.579726 -107.490496 
L 621.352995 -106.844795 
L 618.126264 -106.152115 
L 614.899532 -105.416893 
L 611.672801 -104.643633 
L 608.44607 -103.836877 
L 605.219339 -103.00117 
L 601.992608 -102.141031 
L 598.765877 -101.260922 
L 595.539145 -100.36522 
L 592.312414 -99.458191 
L 589.085683 -98.543967 
L 585.858952 -97.626523 
L 582.632221 -96.70966 
L 579.40549 -95.796989 
L 576.178759 -94.891914 
L 572.952027 -93.997628 
L 569.725296 -93.117097 
L 566.498565 -92.253063 
L 563.271834 -91.408035 
L 560.045103 -90.584292 
L 556.818372 -89.783883 
L 553.59164 -89.008635 
L 550.364909 -88.260153 
L 547.138178 -87.539831 
L 543.911447 -86.848863 
L 540.684716 -86.188247 
L 537.457985 -85.558802 
L 534.231254 -84.961176 
L 531.004522 -84.395856 
L 527.777791 -83.863185 
L 524.55106 -83.36337 
L 521.324329 -82.896492 
L 518.097598 -82.462523 
L 514.870867 -82.061328 
L 511.644135 -81.69268 
L 508.417404 -81.356267 
L 505.190673 -81.0517 
L 501.963942 -80.778517 
L 498.737211 -80.536191 
L 495.51048 -80.324136 
L 492.283749 -80.141705 
L 489.057017 -79.988199 
L 485.830286 -79.862866 
L 482.603555 -79.764901 
L 479.376824 -79.693452 
L 476.150093 -79.647615 
L 472.923362 -79.626436 
L 469.69663 -79.628914 
L 466.469899 -79.653998 
L 463.243168 -79.70059 
L 460.016437 -79.767546 
L 456.789706 -79.853674 
L 453.562975 -79.957741 
L 450.336243 -80.078474 
L 447.109512 -80.214562 
L 443.882781 -80.364665 
L 440.65605 -80.527413 
L 437.429319 -80.70142 
L 434.202588 -80.885285 
L 430.975857 -81.077603 
L 427.749125 -81.276972 
L 424.522394 -81.482004 
L 421.295663 -81.691337 
L 418.068932 -81.903641 
L 414.842201 -82.117631 
L 411.61547 -82.332079 
L 408.388738 -82.545823 
L 405.162007 -82.757781 
L 401.935276 -82.966959 
L 398.708545 -83.172459 
L 395.481814 -83.373496 
L 392.255083 -83.569398 
L 389.028352 -83.759622 
L 385.80162 -83.943752 
L 382.574889 -84.121514 
L 379.348158 -84.292773 
L 376.121427 -84.457541 
L 372.894696 -84.615975 
L 369.667965 -84.768381 
L 366.441233 -84.915209 
L 363.214502 -85.057053 
L 359.987771 -85.194646 
L 356.76104 -85.328855 
L 353.534309 -85.460672 
L 350.307578 -85.591208 
L 347.080846 -85.721681 
L 343.854115 -85.853409 
L 340.627384 -85.987791 
L 337.400653 -86.126302 
L 334.173922 -86.270473 
L 330.947191 -86.421879 
L 327.72046 -86.582121 
L 324.493728 -86.752814 
L 321.266997 -86.935566 
L 318.040266 -87.131962 
L 314.813535 -87.343549 
L 311.586804 -87.571816 
L 308.360073 -87.818179 
L 305.133341 -88.083961 
L 301.90661 -88.370378 
L 298.679879 -88.67852 
L 295.453148 -89.009336 
L 292.226417 -89.363621 
L 288.999686 -89.741996 
L 285.772955 -90.1449 
L 282.546223 -90.572574 
L 279.319492 -91.02505 
L 276.092761 -91.502143 
L 272.86603 -92.003438 
L 269.639299 -92.528285 
L 266.412568 -93.075794 
L 263.185836 -93.644829 
L 259.959105 -94.234008 
L 256.732374 -94.841698 
L 253.505643 -95.466023 
L 250.278912 -96.10486 
L 247.052181 -96.755851 
L 243.82545 -97.416407 
L 240.598718 -98.083717 
L 237.371987 -98.754763 
L 234.145256 -99.42633 
L 230.918525 -100.095027 
L 227.691794 -100.757298 
L 224.465063 -101.409446 
L 221.238331 -102.047655 
L 218.0116 -102.668009 
L 214.784869 -103.266524 
L 211.558138 -103.839163 
L 208.331407 -104.381876 
L 205.104676 -104.890615 
L 201.877944 -105.361374 
L 198.651213 -105.790211 
L 195.424482 -106.173279 
L 192.197751 -106.506859 
L 188.97102 -106.787382 
L 185.744289 -107.011465 
L 182.517558 -107.175933 
L 179.290826 -107.277847 
L 176.064095 -107.314533 
L 172.837364 -107.283596 
L 169.610633 -107.182951 
L 166.383902 -107.010838 
L 163.157171 -106.765838 
L 159.930439 -106.446887 
L 156.703708 -106.053292 
L 153.476977 -105.584733 
L 150.250246 -105.041275 
L 147.023515 -104.423365 
L 143.796784 -103.731837 
L 140.570053 -102.967902 
L 137.343321 -102.133149 
L 134.11659 -101.229526 
L 130.889859 -100.259337 
L 127.663128 -99.225219 
L 124.436397 -98.130126 
L 121.209666 -96.97731 
L 117.982934 -95.770295 
L 114.756203 -94.512855 
L 111.529472 -93.208984 
L 108.302741 -91.862869 
L 105.07601 -90.47886 
L 101.849279 -89.061441 
L 98.622548 -87.615194 
z
" style="stroke: #f89540"/>
    </defs>
    <g clip-path="url(#p724b24a2bb)">
     <use xlink:href="#mbff6ca23ce" x="0" y="212.255313" style="fill: #f89540; fill-opacity: 0.5; stroke: #f89540"/>
    </g>
   </g>
   <g id="matplotlib.axis_5">
    <g id="xtick_13">
     <g id="line2d_17">
      <g>
       <use xlink:href="#m0fa6190006" x="98.622548" y="170.44" style="stroke: #000000; stroke-width: 0.8"/>
      </g>
     </g>
     <g id="text_3">
      <!-- 0 -->
      <g transform="translate(95.622548 185.7725) scale(0.12 -0.12)">
       <defs>
        <path id="TimesNewRomanPSMT-30" d="M 231 2094 
Q 231 2819 450 3342 
Q 669 3866 1031 4122 
Q 1313 4325 1613 4325 
Q 2100 4325 2488 3828 
Q 2972 3213 2972 2159 
Q 2972 1422 2759 906 
Q 2547 391 2217 158 
Q 1888 -75 1581 -75 
Q 975 -75 572 641 
Q 231 1244 231 2094 
z
M 844 2016 
Q 844 1141 1059 588 
Q 1238 122 1591 122 
Q 1759 122 1940 273 
Q 2122 425 2216 781 
Q 2359 1319 2359 2297 
Q 2359 3022 2209 3506 
Q 2097 3866 1919 4016 
Q 1791 4119 1609 4119 
Q 1397 4119 1231 3928 
Q 1006 3669 925 3112 
Q 844 2556 844 2016 
z
" transform="scale(0.015625)"/>
       </defs>
       <use xlink:href="#TimesNewRomanPSMT-30"/>
      </g>
     </g>
    </g>
    <g id="xtick_14">
     <g id="line2d_18">
      <g>
       <use xlink:href="#m0fa6190006" x="227.046447" y="170.44" style="stroke: #000000; stroke-width: 0.8"/>
      </g>
     </g>
     <g id="text_4">
      <!-- 1000 -->
      <g transform="translate(215.046447 185.7725) scale(0.12 -0.12)">
       <defs>
        <path id="TimesNewRomanPSMT-31" d="M 750 3822 
L 1781 4325 
L 1884 4325 
L 1884 747 
Q 1884 391 1914 303 
Q 1944 216 2037 169 
Q 2131 122 2419 116 
L 2419 0 
L 825 0 
L 825 116 
Q 1125 122 1212 167 
Q 1300 213 1334 289 
Q 1369 366 1369 747 
L 1369 3034 
Q 1369 3497 1338 3628 
Q 1316 3728 1258 3775 
Q 1200 3822 1119 3822 
Q 1003 3822 797 3725 
L 750 3822 
z
" transform="scale(0.015625)"/>
       </defs>
       <use xlink:href="#TimesNewRomanPSMT-31"/>
       <use xlink:href="#TimesNewRomanPSMT-30" transform="translate(50 0)"/>
       <use xlink:href="#TimesNewRomanPSMT-30" transform="translate(100 0)"/>
       <use xlink:href="#TimesNewRomanPSMT-30" transform="translate(150 0)"/>
      </g>
     </g>
    </g>
    <g id="xtick_15">
     <g id="line2d_19">
      <g>
       <use xlink:href="#m0fa6190006" x="355.470348" y="170.44" style="stroke: #000000; stroke-width: 0.8"/>
      </g>
     </g>
     <g id="text_5">
      <!-- 2000 -->
      <g transform="translate(343.470348 185.7725) scale(0.12 -0.12)">
       <defs>
        <path id="TimesNewRomanPSMT-32" d="M 2934 816 
L 2638 0 
L 138 0 
L 138 116 
Q 1241 1122 1691 1759 
Q 2141 2397 2141 2925 
Q 2141 3328 1894 3587 
Q 1647 3847 1303 3847 
Q 991 3847 742 3664 
Q 494 3481 375 3128 
L 259 3128 
Q 338 3706 661 4015 
Q 984 4325 1469 4325 
Q 1984 4325 2329 3994 
Q 2675 3663 2675 3213 
Q 2675 2891 2525 2569 
Q 2294 2063 1775 1497 
Q 997 647 803 472 
L 1909 472 
Q 2247 472 2383 497 
Q 2519 522 2628 598 
Q 2738 675 2819 816 
L 2934 816 
z
" transform="scale(0.015625)"/>
       </defs>
       <use xlink:href="#TimesNewRomanPSMT-32"/>
       <use xlink:href="#TimesNewRomanPSMT-30" transform="translate(50 0)"/>
       <use xlink:href="#TimesNewRomanPSMT-30" transform="translate(100 0)"/>
       <use xlink:href="#TimesNewRomanPSMT-30" transform="translate(150 0)"/>
      </g>
     </g>
    </g>
    <g id="xtick_16">
     <g id="line2d_20">
      <g>
       <use xlink:href="#m0fa6190006" x="483.894248" y="170.44" style="stroke: #000000; stroke-width: 0.8"/>
      </g>
     </g>
     <g id="text_6">
      <!-- 3000 -->
      <g transform="translate(471.894248 185.7725) scale(0.12 -0.12)">
       <defs>
        <path id="TimesNewRomanPSMT-33" d="M 325 3431 
Q 506 3859 782 4092 
Q 1059 4325 1472 4325 
Q 1981 4325 2253 3994 
Q 2459 3747 2459 3466 
Q 2459 3003 1878 2509 
Q 2269 2356 2469 2072 
Q 2669 1788 2669 1403 
Q 2669 853 2319 450 
Q 1863 -75 997 -75 
Q 569 -75 414 31 
Q 259 138 259 259 
Q 259 350 332 419 
Q 406 488 509 488 
Q 588 488 669 463 
Q 722 447 909 348 
Q 1097 250 1169 231 
Q 1284 197 1416 197 
Q 1734 197 1970 444 
Q 2206 691 2206 1028 
Q 2206 1275 2097 1509 
Q 2016 1684 1919 1775 
Q 1784 1900 1550 2001 
Q 1316 2103 1072 2103 
L 972 2103 
L 972 2197 
Q 1219 2228 1467 2375 
Q 1716 2522 1828 2728 
Q 1941 2934 1941 3181 
Q 1941 3503 1739 3701 
Q 1538 3900 1238 3900 
Q 753 3900 428 3381 
L 325 3431 
z
" transform="scale(0.015625)"/>
       </defs>
       <use xlink:href="#TimesNewRomanPSMT-33"/>
       <use xlink:href="#TimesNewRomanPSMT-30" transform="translate(50 0)"/>
       <use xlink:href="#TimesNewRomanPSMT-30" transform="translate(100 0)"/>
       <use xlink:href="#TimesNewRomanPSMT-30" transform="translate(150 0)"/>
      </g>
     </g>
    </g>
    <g id="xtick_17">
     <g id="line2d_21">
      <g>
       <use xlink:href="#m0fa6190006" x="612.318148" y="170.44" style="stroke: #000000; stroke-width: 0.8"/>
      </g>
     </g>
     <g id="text_7">
      <!-- 4000 -->
      <g transform="translate(600.318148 185.7725) scale(0.12 -0.12)">
       <defs>
        <path id="TimesNewRomanPSMT-34" d="M 2978 1563 
L 2978 1119 
L 2409 1119 
L 2409 0 
L 1894 0 
L 1894 1119 
L 100 1119 
L 100 1519 
L 2066 4325 
L 2409 4325 
L 2409 1563 
L 2978 1563 
z
M 1894 1563 
L 1894 3666 
L 406 1563 
L 1894 1563 
z
" transform="scale(0.015625)"/>
       </defs>
       <use xlink:href="#TimesNewRomanPSMT-34"/>
       <use xlink:href="#TimesNewRomanPSMT-30" transform="translate(50 0)"/>
       <use xlink:href="#TimesNewRomanPSMT-30" transform="translate(100 0)"/>
       <use xlink:href="#TimesNewRomanPSMT-30" transform="translate(150 0)"/>
      </g>
     </g>
    </g>
    <g id="xtick_18">
     <g id="line2d_22">
      <g>
       <use xlink:href="#m0fa6190006" x="740.742048" y="170.44" style="stroke: #000000; stroke-width: 0.8"/>
      </g>
     </g>
     <g id="text_8">
      <!-- 5000 -->
      <g transform="translate(728.742048 185.7725) scale(0.12 -0.12)">
       <defs>
        <path id="TimesNewRomanPSMT-35" d="M 2778 4238 
L 2534 3706 
L 1259 3706 
L 981 3138 
Q 1809 3016 2294 2522 
Q 2709 2097 2709 1522 
Q 2709 1188 2573 903 
Q 2438 619 2231 419 
Q 2025 219 1772 97 
Q 1413 -75 1034 -75 
Q 653 -75 479 54 
Q 306 184 306 341 
Q 306 428 378 495 
Q 450 563 559 563 
Q 641 563 702 538 
Q 763 513 909 409 
Q 1144 247 1384 247 
Q 1750 247 2026 523 
Q 2303 800 2303 1197 
Q 2303 1581 2056 1914 
Q 1809 2247 1375 2428 
Q 1034 2569 447 2591 
L 1259 4238 
L 2778 4238 
z
" transform="scale(0.015625)"/>
       </defs>
       <use xlink:href="#TimesNewRomanPSMT-35"/>
       <use xlink:href="#TimesNewRomanPSMT-30" transform="translate(50 0)"/>
       <use xlink:href="#TimesNewRomanPSMT-30" transform="translate(100 0)"/>
       <use xlink:href="#TimesNewRomanPSMT-30" transform="translate(150 0)"/>
      </g>
     </g>
    </g>
    <g id="text_9">
     <!-- Value -->
     <g transform="translate(403.74636 202.060625) scale(0.14 -0.14)">
      <defs>
       <path id="TimesNewRomanPSMT-56" d="M 4544 4238 
L 4544 4122 
Q 4319 4081 4203 3978 
Q 4038 3825 3909 3509 
L 2431 -97 
L 2316 -97 
L 728 3556 
Q 606 3838 556 3900 
Q 478 3997 364 4051 
Q 250 4106 56 4122 
L 56 4238 
L 1788 4238 
L 1788 4122 
Q 1494 4094 1406 4022 
Q 1319 3950 1319 3838 
Q 1319 3681 1463 3350 
L 2541 866 
L 3541 3319 
Q 3688 3681 3688 3822 
Q 3688 3913 3597 3995 
Q 3506 4078 3291 4113 
Q 3275 4116 3238 4122 
L 3238 4238 
L 4544 4238 
z
" transform="scale(0.015625)"/>
       <path id="TimesNewRomanPSMT-61" d="M 1822 413 
Q 1381 72 1269 19 
Q 1100 -59 909 -59 
Q 613 -59 420 144 
Q 228 347 228 678 
Q 228 888 322 1041 
Q 450 1253 767 1440 
Q 1084 1628 1822 1897 
L 1822 2009 
Q 1822 2438 1686 2597 
Q 1550 2756 1291 2756 
Q 1094 2756 978 2650 
Q 859 2544 859 2406 
L 866 2225 
Q 866 2081 792 2003 
Q 719 1925 600 1925 
Q 484 1925 411 2006 
Q 338 2088 338 2228 
Q 338 2497 613 2722 
Q 888 2947 1384 2947 
Q 1766 2947 2009 2819 
Q 2194 2722 2281 2516 
Q 2338 2381 2338 1966 
L 2338 994 
Q 2338 584 2353 492 
Q 2369 400 2405 369 
Q 2441 338 2488 338 
Q 2538 338 2575 359 
Q 2641 400 2828 588 
L 2828 413 
Q 2478 -56 2159 -56 
Q 2006 -56 1915 50 
Q 1825 156 1822 413 
z
M 1822 616 
L 1822 1706 
Q 1350 1519 1213 1441 
Q 966 1303 859 1153 
Q 753 1003 753 825 
Q 753 600 887 451 
Q 1022 303 1197 303 
Q 1434 303 1822 616 
z
" transform="scale(0.015625)"/>
       <path id="TimesNewRomanPSMT-6c" d="M 1184 4444 
L 1184 647 
Q 1184 378 1223 290 
Q 1263 203 1344 158 
Q 1425 113 1647 113 
L 1647 0 
L 244 0 
L 244 113 
Q 441 113 512 153 
Q 584 194 625 287 
Q 666 381 666 647 
L 666 3247 
Q 666 3731 644 3842 
Q 622 3953 573 3993 
Q 525 4034 450 4034 
Q 369 4034 244 3984 
L 191 4094 
L 1044 4444 
L 1184 4444 
z
" transform="scale(0.015625)"/>
       <path id="TimesNewRomanPSMT-75" d="M 2709 2863 
L 2709 1128 
Q 2709 631 2732 520 
Q 2756 409 2807 365 
Q 2859 322 2928 322 
Q 3025 322 3147 375 
L 3191 266 
L 2334 -88 
L 2194 -88 
L 2194 519 
Q 1825 119 1631 15 
Q 1438 -88 1222 -88 
Q 981 -88 804 51 
Q 628 191 559 409 
Q 491 628 491 1028 
L 491 2306 
Q 491 2509 447 2587 
Q 403 2666 317 2708 
Q 231 2750 6 2747 
L 6 2863 
L 1009 2863 
L 1009 947 
Q 1009 547 1148 422 
Q 1288 297 1484 297 
Q 1619 297 1789 381 
Q 1959 466 2194 703 
L 2194 2325 
Q 2194 2569 2105 2655 
Q 2016 2741 1734 2747 
L 1734 2863 
L 2709 2863 
z
" transform="scale(0.015625)"/>
      </defs>
      <use xlink:href="#TimesNewRomanPSMT-56"/>
      <use xlink:href="#TimesNewRomanPSMT-61" transform="translate(61.091797 0)"/>
      <use xlink:href="#TimesNewRomanPSMT-6c" transform="translate(105.476562 0)"/>
      <use xlink:href="#TimesNewRomanPSMT-75" transform="translate(133.259766 0)"/>
      <use xlink:href="#TimesNewRomanPSMT-65" transform="translate(183.259766 0)"/>
     </g>
    </g>
   </g>
   <g id="matplotlib.axis_6"/>
   <g id="line2d_23">
    <path d="M 98.622548 124.640118 
L 108.302741 120.392444 
L 114.756203 117.742458 
L 121.209666 115.278003 
L 127.663128 113.030094 
L 134.11659 111.025786 
L 140.570053 109.28741 
L 147.023515 107.831947 
L 153.476977 106.670579 
L 159.930439 105.808425 
L 166.383902 105.244474 
L 172.837364 104.971717 
L 179.290826 104.977465 
L 185.744289 105.243848 
L 192.197751 105.748454 
L 198.651213 106.465102 
L 205.104676 107.364697 
L 214.784869 108.988789 
L 224.465063 110.845867 
L 263.185836 118.610483 
L 272.86603 120.251875 
L 282.546223 121.682739 
L 292.226417 122.891692 
L 301.90661 123.884934 
L 311.586804 124.683496 
L 324.493728 125.502498 
L 340.627384 126.267521 
L 379.348158 127.962539 
L 398.708545 129.082853 
L 443.882781 131.890648 
L 456.789706 132.401639 
L 466.469899 132.601315 
L 476.150093 132.607698 
L 485.830286 132.392447 
L 495.51048 131.931177 
L 505.190673 131.203613 
L 514.870867 130.193985 
L 524.55106 128.891943 
L 534.231254 127.294137 
L 543.911447 125.40645 
L 553.59164 123.246678 
L 563.271834 120.847278 
L 576.178759 117.363398 
L 608.44607 108.418436 
L 618.126264 106.103197 
L 624.579726 104.764816 
L 631.033188 103.631536 
L 637.486651 102.736163 
L 643.940113 102.108255 
L 650.393575 101.773144 
L 656.847037 101.751054 
L 663.3005 102.056395 
L 669.753962 102.697223 
L 676.207424 103.674928 
L 682.660887 104.984138 
L 689.114349 106.61285 
L 695.567811 108.542783 
L 702.021274 110.749932 
L 708.474736 113.205293 
L 714.928198 115.875729 
L 724.608392 120.204629 
L 734.288585 124.804866 
L 740.742048 127.95649 
L 740.742048 127.95649 
" clip-path="url(#p724b24a2bb)" style="fill: none; stroke: #ffffff; stroke-width: 2; stroke-linecap: square"/>
   </g>
   <g id="line2d_24">
    <path d="M 98.622548 170.44 
L 740.742048 170.44 
" style="fill: none; stroke: #000000; stroke-linecap: square"/>
   </g>
   <g id="text_10">
    <g id="patch_7">
     <path d="M 5.2425 179.849687 
L 35.16 179.849687 
L 35.16 161.030312 
L 5.2425 161.030312 
z
" style="fill: #ffffff; opacity: 0.5"/>
    </g>
    <!-- Oats -->
    <g transform="translate(9.2025 173.322812) scale(0.12 -0.12)">
     <defs>
      <path id="TimesNewRomanPSMT-4f" d="M 2341 4334 
Q 3166 4334 3770 3707 
Q 4375 3081 4375 2144 
Q 4375 1178 3765 540 
Q 3156 -97 2291 -97 
Q 1416 -97 820 525 
Q 225 1147 225 2134 
Q 225 3144 913 3781 
Q 1509 4334 2341 4334 
z
M 2281 4106 
Q 1713 4106 1369 3684 
Q 941 3159 941 2147 
Q 941 1109 1384 550 
Q 1725 125 2284 125 
Q 2881 125 3270 590 
Q 3659 1056 3659 2059 
Q 3659 3147 3231 3681 
Q 2888 4106 2281 4106 
z
" transform="scale(0.015625)"/>
      <path id="TimesNewRomanPSMT-74" d="M 1031 3803 
L 1031 2863 
L 1700 2863 
L 1700 2644 
L 1031 2644 
L 1031 788 
Q 1031 509 1111 412 
Q 1191 316 1316 316 
Q 1419 316 1516 380 
Q 1613 444 1666 569 
L 1788 569 
Q 1678 263 1478 108 
Q 1278 -47 1066 -47 
Q 922 -47 784 33 
Q 647 113 581 261 
Q 516 409 516 719 
L 516 2644 
L 63 2644 
L 63 2747 
Q 234 2816 414 2980 
Q 594 3144 734 3369 
Q 806 3488 934 3803 
L 1031 3803 
z
" transform="scale(0.015625)"/>
      <path id="TimesNewRomanPSMT-73" d="M 2050 2947 
L 2050 1972 
L 1947 1972 
Q 1828 2431 1642 2597 
Q 1456 2763 1169 2763 
Q 950 2763 815 2647 
Q 681 2531 681 2391 
Q 681 2216 781 2091 
Q 878 1963 1175 1819 
L 1631 1597 
Q 2266 1288 2266 781 
Q 2266 391 1970 151 
Q 1675 -88 1309 -88 
Q 1047 -88 709 6 
Q 606 38 541 38 
Q 469 38 428 -44 
L 325 -44 
L 325 978 
L 428 978 
Q 516 541 762 319 
Q 1009 97 1316 97 
Q 1531 97 1667 223 
Q 1803 350 1803 528 
Q 1803 744 1651 891 
Q 1500 1038 1047 1263 
Q 594 1488 453 1669 
Q 313 1847 313 2119 
Q 313 2472 555 2709 
Q 797 2947 1181 2947 
Q 1350 2947 1591 2875 
Q 1750 2828 1803 2828 
Q 1853 2828 1881 2850 
Q 1909 2872 1947 2947 
L 2050 2947 
z
" transform="scale(0.015625)"/>
     </defs>
     <use xlink:href="#TimesNewRomanPSMT-4f"/>
     <use xlink:href="#TimesNewRomanPSMT-61" transform="translate(72.216797 0)"/>
     <use xlink:href="#TimesNewRomanPSMT-74" transform="translate(116.601562 0)"/>
     <use xlink:href="#TimesNewRomanPSMT-73" transform="translate(144.384766 0)"/>
    </g>
   </g>
  </g>
  <g id="text_11">
   <!-- Crop Yield(tons/hectare) -->
   <g transform="translate(312.530798 18.31) scale(0.16 -0.16)">
    <defs>
     <path id="TimesNewRomanPSMT-70" d="M -6 2578 
L 875 2934 
L 994 2934 
L 994 2266 
Q 1216 2644 1439 2795 
Q 1663 2947 1909 2947 
Q 2341 2947 2628 2609 
Q 2981 2197 2981 1534 
Q 2981 794 2556 309 
Q 2206 -88 1675 -88 
Q 1444 -88 1275 -22 
Q 1150 25 994 166 
L 994 -706 
Q 994 -1000 1030 -1079 
Q 1066 -1159 1155 -1206 
Q 1244 -1253 1478 -1253 
L 1478 -1369 
L -22 -1369 
L -22 -1253 
L 56 -1253 
Q 228 -1256 350 -1188 
Q 409 -1153 442 -1076 
Q 475 -1000 475 -688 
L 475 2019 
Q 475 2297 450 2372 
Q 425 2447 370 2484 
Q 316 2522 222 2522 
Q 147 2522 31 2478 
L -6 2578 
z
M 994 2081 
L 994 1013 
Q 994 666 1022 556 
Q 1066 375 1236 237 
Q 1406 100 1666 100 
Q 1978 100 2172 344 
Q 2425 663 2425 1241 
Q 2425 1897 2138 2250 
Q 1938 2494 1663 2494 
Q 1513 2494 1366 2419 
Q 1253 2363 994 2081 
z
" transform="scale(0.015625)"/>
     <path id="TimesNewRomanPSMT-20" transform="scale(0.015625)"/>
     <path id="TimesNewRomanPSMT-59" d="M 3050 4238 
L 4528 4238 
L 4528 4122 
L 4447 4122 
Q 4366 4122 4209 4050 
Q 4053 3978 3925 3843 
Q 3797 3709 3609 3406 
L 2588 1797 
L 2588 734 
Q 2588 344 2675 247 
Q 2794 116 3050 116 
L 3188 116 
L 3188 0 
L 1388 0 
L 1388 116 
L 1538 116 
Q 1806 116 1919 278 
Q 1988 378 1988 734 
L 1988 1738 
L 825 3513 
Q 619 3825 545 3903 
Q 472 3981 241 4091 
Q 178 4122 59 4122 
L 59 4238 
L 1872 4238 
L 1872 4122 
L 1778 4122 
Q 1631 4122 1507 4053 
Q 1384 3984 1384 3847 
Q 1384 3734 1575 3441 
L 2459 2075 
L 3291 3381 
Q 3478 3675 3478 3819 
Q 3478 3906 3433 3975 
Q 3388 4044 3303 4083 
Q 3219 4122 3050 4122 
L 3050 4238 
z
" transform="scale(0.015625)"/>
     <path id="TimesNewRomanPSMT-64" d="M 2222 322 
Q 2013 103 1813 7 
Q 1613 -88 1381 -88 
Q 913 -88 563 304 
Q 213 697 213 1313 
Q 213 1928 600 2439 
Q 988 2950 1597 2950 
Q 1975 2950 2222 2709 
L 2222 3238 
Q 2222 3728 2198 3840 
Q 2175 3953 2125 3993 
Q 2075 4034 2000 4034 
Q 1919 4034 1784 3984 
L 1744 4094 
L 2597 4444 
L 2738 4444 
L 2738 1134 
Q 2738 631 2761 520 
Q 2784 409 2836 365 
Q 2888 322 2956 322 
Q 3041 322 3181 375 
L 3216 266 
L 2366 -88 
L 2222 -88 
L 2222 322 
z
M 2222 541 
L 2222 2016 
Q 2203 2228 2109 2403 
Q 2016 2578 1861 2667 
Q 1706 2756 1559 2756 
Q 1284 2756 1069 2509 
Q 784 2184 784 1559 
Q 784 928 1059 592 
Q 1334 256 1672 256 
Q 1956 256 2222 541 
z
" transform="scale(0.015625)"/>
     <path id="TimesNewRomanPSMT-28" d="M 1988 -1253 
L 1988 -1369 
Q 1516 -1131 1200 -813 
Q 750 -359 506 256 
Q 263 872 263 1534 
Q 263 2503 741 3301 
Q 1219 4100 1988 4444 
L 1988 4313 
Q 1603 4100 1356 3731 
Q 1109 3363 987 2797 
Q 866 2231 866 1616 
Q 866 947 969 400 
Q 1050 -31 1165 -292 
Q 1281 -553 1476 -793 
Q 1672 -1034 1988 -1253 
z
" transform="scale(0.015625)"/>
     <path id="TimesNewRomanPSMT-2f" d="M 1794 4444 
L 259 -88 
L 9 -88 
L 1544 4444 
L 1794 4444 
z
" transform="scale(0.015625)"/>
     <path id="TimesNewRomanPSMT-68" d="M 1041 4444 
L 1041 2350 
Q 1388 2731 1591 2839 
Q 1794 2947 1997 2947 
Q 2241 2947 2416 2812 
Q 2591 2678 2675 2391 
Q 2734 2191 2734 1659 
L 2734 647 
Q 2734 375 2778 275 
Q 2809 200 2884 156 
Q 2959 113 3159 113 
L 3159 0 
L 1753 0 
L 1753 113 
L 1819 113 
Q 2019 113 2097 173 
Q 2175 234 2206 353 
Q 2216 403 2216 647 
L 2216 1659 
Q 2216 2128 2167 2275 
Q 2119 2422 2012 2495 
Q 1906 2569 1756 2569 
Q 1603 2569 1437 2487 
Q 1272 2406 1041 2159 
L 1041 647 
Q 1041 353 1073 281 
Q 1106 209 1195 161 
Q 1284 113 1503 113 
L 1503 0 
L 84 0 
L 84 113 
Q 275 113 384 172 
Q 447 203 484 290 
Q 522 378 522 647 
L 522 3238 
Q 522 3728 498 3840 
Q 475 3953 426 3993 
Q 378 4034 297 4034 
Q 231 4034 84 3984 
L 41 4094 
L 897 4444 
L 1041 4444 
z
" transform="scale(0.015625)"/>
     <path id="TimesNewRomanPSMT-29" d="M 144 4313 
L 144 4444 
Q 619 4209 934 3891 
Q 1381 3434 1625 2820 
Q 1869 2206 1869 1541 
Q 1869 572 1392 -226 
Q 916 -1025 144 -1369 
L 144 -1253 
Q 528 -1038 776 -670 
Q 1025 -303 1145 264 
Q 1266 831 1266 1447 
Q 1266 2113 1163 2663 
Q 1084 3094 967 3353 
Q 850 3613 656 3853 
Q 463 4094 144 4313 
z
" transform="scale(0.015625)"/>
    </defs>
    <use xlink:href="#TimesNewRomanPSMT-43"/>
    <use xlink:href="#TimesNewRomanPSMT-72" transform="translate(66.699219 0)"/>
    <use xlink:href="#TimesNewRomanPSMT-6f" transform="translate(100 0)"/>
    <use xlink:href="#TimesNewRomanPSMT-70" transform="translate(150 0)"/>
    <use xlink:href="#TimesNewRomanPSMT-20" transform="translate(200 0)"/>
    <use xlink:href="#TimesNewRomanPSMT-59" transform="translate(221.25 0)"/>
    <use xlink:href="#TimesNewRomanPSMT-69" transform="translate(287.966797 0)"/>
    <use xlink:href="#TimesNewRomanPSMT-65" transform="translate(315.75 0)"/>
    <use xlink:href="#TimesNewRomanPSMT-6c" transform="translate(360.134766 0)"/>
    <use xlink:href="#TimesNewRomanPSMT-64" transform="translate(387.917969 0)"/>
    <use xlink:href="#TimesNewRomanPSMT-28" transform="translate(437.917969 0)"/>
    <use xlink:href="#TimesNewRomanPSMT-74" transform="translate(471.21875 0)"/>
    <use xlink:href="#TimesNewRomanPSMT-6f" transform="translate(499.001953 0)"/>
    <use xlink:href="#TimesNewRomanPSMT-6e" transform="translate(549.001953 0)"/>
    <use xlink:href="#TimesNewRomanPSMT-73" transform="translate(599.001953 0)"/>
    <use xlink:href="#TimesNewRomanPSMT-2f" transform="translate(637.917969 0)"/>
    <use xlink:href="#TimesNewRomanPSMT-68" transform="translate(665.701172 0)"/>
    <use xlink:href="#TimesNewRomanPSMT-65" transform="translate(715.701172 0)"/>
    <use xlink:href="#TimesNewRomanPSMT-63" transform="translate(760.085938 0)"/>
    <use xlink:href="#TimesNewRomanPSMT-74" transform="translate(804.470703 0)"/>
    <use xlink:href="#TimesNewRomanPSMT-61" transform="translate(832.253906 0)"/>
    <use xlink:href="#TimesNewRomanPSMT-72" transform="translate(876.638672 0)"/>
    <use xlink:href="#TimesNewRomanPSMT-65" transform="translate(909.939453 0)"/>
    <use xlink:href="#TimesNewRomanPSMT-29" transform="translate(954.324219 0)"/>
   </g>
  </g>
 </g>
 <defs>
  <clipPath id="pac39e7798f">
   <rect x="98.622548" y="21.12" width="642.1195" height="74.66"/>
  </clipPath>
  <clipPath id="pcbb4523197">
   <rect x="98.622548" y="58.45" width="642.1195" height="74.66"/>
  </clipPath>
  <clipPath id="p724b24a2bb">
   <rect x="98.622548" y="95.78" width="642.1195" height="74.66"/>
  </clipPath>
 </defs>
</svg>
