<?xml version="1.0" encoding="utf-8" standalone="no"?>
<!DOCTYPE svg PUBLIC "-//W3C//DTD SVG 1.1//EN"
  "http://www.w3.org/Graphics/SVG/1.1/DTD/svg11.dtd">
<svg xmlns:xlink="http://www.w3.org/1999/xlink" width="749.651972pt" height="212.255313pt" viewBox="0 0 749.651972 212.255313" xmlns="http://www.w3.org/2000/svg" version="1.1">
 <metadata>
  <rdf:RDF xmlns:dc="http://purl.org/dc/elements/1.1/" xmlns:cc="http://creativecommons.org/ns#" xmlns:rdf="http://www.w3.org/1999/02/22-rdf-syntax-ns#">
   <cc:Work>
    <dc:type rdf:resource="http://purl.org/dc/dcmitype/StillImage"/>
    <dc:date>2025-05-26T22:46:42.176752</dc:date>
    <dc:format>image/svg+xml</dc:format>
    <dc:creator>
     <cc:Agent>
      <dc:title>Matplotlib v3.10.1, https://matplotlib.org/</dc:title>
     </cc:Agent>
    </dc:creator>
   </cc:Work>
  </rdf:RDF>
 </metadata>
 <defs>
  <style type="text/css">*{stroke-linejoin: round; stroke-linecap: butt}</style>
 </defs>
 <g id="figure_1">
  <g id="patch_1">
   <path d="M 0 212.255313 
L 749.651972 212.255313 
L 749.651972 0 
L 0 0 
z
" style="fill: #ffffff"/>
  </g>
  <g id="axes_1">
   <g id="patch_2">
    <path d="M 155.547472 95.78 
L 733.451973 95.78 
L 733.451973 21.12 
L 155.547472 21.12 
L 155.547472 95.78 
z
" style="fill: none; opacity: 0"/>
   </g>
   <g id="FillBetweenPolyCollection_1">
    <defs>
     <path id="mc17ab21a75" d="M 155.547472 -129.458124 
L 155.547472 -116.475313 
L 158.451515 -116.475313 
L 161.355558 -116.475313 
L 164.259601 -116.475313 
L 167.163643 -116.475313 
L 170.067686 -116.475313 
L 172.971729 -116.475313 
L 175.875771 -116.475313 
L 178.779814 -116.475313 
L 181.683857 -116.475313 
L 184.5879 -116.475313 
L 187.491942 -116.475313 
L 190.395985 -116.475313 
L 193.300028 -116.475313 
L 196.20407 -116.475313 
L 199.108113 -116.475313 
L 202.012156 -116.475313 
L 204.916199 -116.475313 
L 207.820241 -116.475313 
L 210.724284 -116.475313 
L 213.628327 -116.475313 
L 216.532369 -116.475313 
L 219.436412 -116.475313 
L 222.340455 -116.475313 
L 225.244498 -116.475313 
L 228.14854 -116.475313 
L 231.052583 -116.475313 
L 233.956626 -116.475313 
L 236.860668 -116.475313 
L 239.764711 -116.475313 
L 242.668754 -116.475313 
L 245.572797 -116.475313 
L 248.476839 -116.475313 
L 251.380882 -116.475313 
L 254.284925 -116.475313 
L 257.188967 -116.475313 
L 260.09301 -116.475313 
L 262.997053 -116.475313 
L 265.901096 -116.475313 
L 268.805138 -116.475313 
L 271.709181 -116.475313 
L 274.613224 -116.475313 
L 277.517266 -116.475313 
L 280.421309 -116.475313 
L 283.325352 -116.475313 
L 286.229395 -116.475313 
L 289.133437 -116.475313 
L 292.03748 -116.475313 
L 294.941523 -116.475313 
L 297.845565 -116.475313 
L 300.749608 -116.475313 
L 303.653651 -116.475313 
L 306.557694 -116.475313 
L 309.461736 -116.475313 
L 312.365779 -116.475313 
L 315.269822 -116.475313 
L 318.173864 -116.475313 
L 321.077907 -116.475313 
L 323.98195 -116.475313 
L 326.885993 -116.475313 
L 329.790035 -116.475313 
L 332.694078 -116.475313 
L 335.598121 -116.475313 
L 338.502163 -116.475313 
L 341.406206 -116.475313 
L 344.310249 -116.475313 
L 347.214292 -116.475313 
L 350.118334 -116.475313 
L 353.022377 -116.475313 
L 355.92642 -116.475313 
L 358.830462 -116.475313 
L 361.734505 -116.475313 
L 364.638548 -116.475313 
L 367.542591 -116.475313 
L 370.446633 -116.475313 
L 373.350676 -116.475313 
L 376.254719 -116.475313 
L 379.158761 -116.475313 
L 382.062804 -116.475313 
L 384.966847 -116.475313 
L 387.87089 -116.475313 
L 390.774932 -116.475313 
L 393.678975 -116.475313 
L 396.583018 -116.475313 
L 399.48706 -116.475313 
L 402.391103 -116.475313 
L 405.295146 -116.475313 
L 408.199189 -116.475313 
L 411.103231 -116.475313 
L 414.007274 -116.475313 
L 416.911317 -116.475313 
L 419.815359 -116.475313 
L 422.719402 -116.475313 
L 425.623445 -116.475313 
L 428.527488 -116.475313 
L 431.43153 -116.475313 
L 434.335573 -116.475313 
L 437.239616 -116.475313 
L 440.143658 -116.475313 
L 443.047701 -116.475313 
L 445.951744 -116.475313 
L 448.855787 -116.475313 
L 451.759829 -116.475313 
L 454.663872 -116.475313 
L 457.567915 -116.475313 
L 460.471957 -116.475313 
L 463.376 -116.475313 
L 466.280043 -116.475313 
L 469.184086 -116.475313 
L 472.088128 -116.475313 
L 474.992171 -116.475313 
L 477.896214 -116.475313 
L 480.800256 -116.475313 
L 483.704299 -116.475313 
L 486.608342 -116.475313 
L 489.512385 -116.475313 
L 492.416427 -116.475313 
L 495.32047 -116.475313 
L 498.224513 -116.475313 
L 501.128555 -116.475313 
L 504.032598 -116.475313 
L 506.936641 -116.475313 
L 509.840684 -116.475313 
L 512.744726 -116.475313 
L 515.648769 -116.475313 
L 518.552812 -116.475313 
L 521.456854 -116.475313 
L 524.360897 -116.475313 
L 527.26494 -116.475313 
L 530.168983 -116.475313 
L 533.073025 -116.475313 
L 535.977068 -116.475313 
L 538.881111 -116.475313 
L 541.785153 -116.475313 
L 544.689196 -116.475313 
L 547.593239 -116.475313 
L 550.497282 -116.475313 
L 553.401324 -116.475313 
L 556.305367 -116.475313 
L 559.20941 -116.475313 
L 562.113452 -116.475313 
L 565.017495 -116.475313 
L 567.921538 -116.475313 
L 570.825581 -116.475313 
L 573.729623 -116.475313 
L 576.633666 -116.475313 
L 579.537709 -116.475313 
L 582.441751 -116.475313 
L 585.345794 -116.475313 
L 588.249837 -116.475313 
L 591.15388 -116.475313 
L 594.057922 -116.475313 
L 596.961965 -116.475313 
L 599.866008 -116.475313 
L 602.77005 -116.475313 
L 605.674093 -116.475313 
L 608.578136 -116.475313 
L 611.482179 -116.475313 
L 614.386221 -116.475313 
L 617.290264 -116.475313 
L 620.194307 -116.475313 
L 623.098349 -116.475313 
L 626.002392 -116.475313 
L 628.906435 -116.475313 
L 631.810478 -116.475313 
L 634.71452 -116.475313 
L 637.618563 -116.475313 
L 640.522606 -116.475313 
L 643.426648 -116.475313 
L 646.330691 -116.475313 
L 649.234734 -116.475313 
L 652.138777 -116.475313 
L 655.042819 -116.475313 
L 657.946862 -116.475313 
L 660.850905 -116.475313 
L 663.754947 -116.475313 
L 666.65899 -116.475313 
L 669.563033 -116.475313 
L 672.467076 -116.475313 
L 675.371118 -116.475313 
L 678.275161 -116.475313 
L 681.179204 -116.475313 
L 684.083246 -116.475313 
L 686.987289 -116.475313 
L 689.891332 -116.475313 
L 692.795375 -116.475313 
L 695.699417 -116.475313 
L 698.60346 -116.475313 
L 701.507503 -116.475313 
L 704.411545 -116.475313 
L 707.315588 -116.475313 
L 710.219631 -116.475313 
L 713.123674 -116.475313 
L 716.027716 -116.475313 
L 718.931759 -116.475313 
L 721.835802 -116.475313 
L 724.739844 -116.475313 
L 727.643887 -116.475313 
L 730.54793 -116.475313 
L 733.451973 -116.475313 
L 733.451973 -135.363365 
L 733.451973 -135.363365 
L 730.54793 -136.07951 
L 727.643887 -136.786996 
L 724.739844 -137.483304 
L 721.835802 -138.165926 
L 718.931759 -138.832381 
L 716.027716 -139.480237 
L 713.123674 -140.107129 
L 710.219631 -140.710771 
L 707.315588 -141.288983 
L 704.411545 -141.839702 
L 701.507503 -142.360997 
L 698.60346 -142.851091 
L 695.699417 -143.308366 
L 692.795375 -143.731385 
L 689.891332 -144.118895 
L 686.987289 -144.469842 
L 684.083246 -144.783378 
L 681.179204 -145.058866 
L 678.275161 -145.295884 
L 675.371118 -145.49423 
L 672.467076 -145.65392 
L 669.563033 -145.77519 
L 666.65899 -145.858488 
L 663.754947 -145.904474 
L 660.850905 -145.914009 
L 657.946862 -145.888148 
L 655.042819 -145.828134 
L 652.138777 -145.735379 
L 649.234734 -145.611456 
L 646.330691 -145.458085 
L 643.426648 -145.277117 
L 640.522606 -145.070519 
L 637.618563 -144.840357 
L 634.71452 -144.588781 
L 631.810478 -144.318007 
L 628.906435 -144.030301 
L 626.002392 -143.727962 
L 623.098349 -143.413308 
L 620.194307 -143.088655 
L 617.290264 -142.756308 
L 614.386221 -142.418545 
L 611.482179 -142.077602 
L 608.578136 -141.735661 
L 605.674093 -141.394839 
L 602.77005 -141.057177 
L 599.866008 -140.724634 
L 596.961965 -140.39907 
L 594.057922 -140.082249 
L 591.15388 -139.775822 
L 588.249837 -139.481331 
L 585.345794 -139.200195 
L 582.441751 -138.933711 
L 579.537709 -138.683051 
L 576.633666 -138.449254 
L 573.729623 -138.233228 
L 570.825581 -138.035746 
L 567.921538 -137.857446 
L 565.017495 -137.698828 
L 562.113452 -137.560255 
L 559.20941 -137.44195 
L 556.305367 -137.344001 
L 553.401324 -137.266358 
L 550.497282 -137.208837 
L 547.593239 -137.171119 
L 544.689196 -137.152758 
L 541.785153 -137.153178 
L 538.881111 -137.171683 
L 535.977068 -137.207461 
L 533.073025 -137.259588 
L 530.168983 -137.32704 
L 527.26494 -137.408696 
L 524.360897 -137.503355 
L 521.456854 -137.609737 
L 518.552812 -137.726505 
L 515.648769 -137.85227 
L 512.744726 -137.985608 
L 509.840684 -138.125073 
L 506.936641 -138.269213 
L 504.032598 -138.416583 
L 501.128555 -138.565763 
L 498.224513 -138.715369 
L 495.32047 -138.864074 
L 492.416427 -139.010616 
L 489.512385 -139.153816 
L 486.608342 -139.292591 
L 483.704299 -139.425961 
L 480.800256 -139.553065 
L 477.896214 -139.673165 
L 474.992171 -139.785655 
L 472.088128 -139.890065 
L 469.184086 -139.986067 
L 466.280043 -140.07347 
L 463.376 -140.152227 
L 460.471957 -140.222424 
L 457.567915 -140.284281 
L 454.663872 -140.338143 
L 451.759829 -140.384474 
L 448.855787 -140.423842 
L 445.951744 -140.456913 
L 443.047701 -140.484439 
L 440.143658 -140.507241 
L 437.239616 -140.526199 
L 434.335573 -140.542234 
L 431.43153 -140.556302 
L 428.527488 -140.56937 
L 425.623445 -140.58241 
L 422.719402 -140.596382 
L 419.815359 -140.612226 
L 416.911317 -140.630846 
L 414.007274 -140.653103 
L 411.103231 -140.679803 
L 408.199189 -140.711694 
L 405.295146 -140.749456 
L 402.391103 -140.793696 
L 399.48706 -140.844944 
L 396.583018 -140.903651 
L 393.678975 -140.970189 
L 390.774932 -141.044845 
L 387.87089 -141.127827 
L 384.966847 -141.219262 
L 382.062804 -141.3192 
L 379.158761 -141.427612 
L 376.254719 -141.544397 
L 373.350676 -141.669386 
L 370.446633 -141.80234 
L 367.542591 -141.942958 
L 364.638548 -142.090877 
L 361.734505 -142.24568 
L 358.830462 -142.406894 
L 355.92642 -142.573994 
L 353.022377 -142.746412 
L 350.118334 -142.923529 
L 347.214292 -143.104686 
L 344.310249 -143.289184 
L 341.406206 -143.476284 
L 338.502163 -143.66521 
L 335.598121 -143.855153 
L 332.694078 -144.045271 
L 329.790035 -144.234689 
L 326.885993 -144.422507 
L 323.98195 -144.607796 
L 321.077907 -144.789605 
L 318.173864 -144.966959 
L 315.269822 -145.138868 
L 312.365779 -145.304323 
L 309.461736 -145.462305 
L 306.557694 -145.611789 
L 303.653651 -145.751741 
L 300.749608 -145.881132 
L 297.845565 -145.998936 
L 294.941523 -146.104136 
L 292.03748 -146.19573 
L 289.133437 -146.272737 
L 286.229395 -146.3342 
L 283.325352 -146.379191 
L 280.421309 -146.406821 
L 277.517266 -146.416239 
L 274.613224 -146.406642 
L 271.709181 -146.377276 
L 268.805138 -146.327447 
L 265.901096 -146.256516 
L 262.997053 -146.163915 
L 260.09301 -146.049141 
L 257.188967 -145.911766 
L 254.284925 -145.751438 
L 251.380882 -145.567882 
L 248.476839 -145.360909 
L 245.572797 -145.13041 
L 242.668754 -144.876364 
L 239.764711 -144.598836 
L 236.860668 -144.29798 
L 233.956626 -143.974037 
L 231.052583 -143.627337 
L 228.14854 -143.258295 
L 225.244498 -142.867417 
L 222.340455 -142.45529 
L 219.436412 -142.022585 
L 216.532369 -141.570055 
L 213.628327 -141.09853 
L 210.724284 -140.608915 
L 207.820241 -140.102186 
L 204.916199 -139.579384 
L 202.012156 -139.041615 
L 199.108113 -138.490042 
L 196.20407 -137.925879 
L 193.300028 -137.350387 
L 190.395985 -136.764871 
L 187.491942 -136.170666 
L 184.5879 -135.569139 
L 181.683857 -134.961676 
L 178.779814 -134.349681 
L 175.875771 -133.734563 
L 172.971729 -133.117732 
L 170.067686 -132.500594 
L 167.163643 -131.88454 
L 164.259601 -131.27094 
L 161.355558 -130.661138 
L 158.451515 -130.056443 
L 155.547472 -129.458124 
z
" style="stroke: #8db0fe"/>
    </defs>
    <g clip-path="url(#p46d7197f6f)">
     <use xlink:href="#mc17ab21a75" x="0" y="212.255313" style="fill: #8db0fe; fill-opacity: 0.5; stroke: #8db0fe"/>
    </g>
   </g>
   <g id="matplotlib.axis_1">
    <g id="xtick_1">
     <g id="line2d_1">
      <defs>
       <path id="m2aa7b00576" d="M 0 0 
L 0 3.5 
" style="stroke: #000000; stroke-width: 0.8"/>
      </defs>
      <g>
       <use xlink:href="#m2aa7b00576" x="155.547472" y="95.78" style="stroke: #000000; stroke-width: 0.8"/>
      </g>
     </g>
    </g>
    <g id="xtick_2">
     <g id="line2d_2">
      <g>
       <use xlink:href="#m2aa7b00576" x="271.128372" y="95.78" style="stroke: #000000; stroke-width: 0.8"/>
      </g>
     </g>
    </g>
    <g id="xtick_3">
     <g id="line2d_3">
      <g>
       <use xlink:href="#m2aa7b00576" x="386.709272" y="95.78" style="stroke: #000000; stroke-width: 0.8"/>
      </g>
     </g>
    </g>
    <g id="xtick_4">
     <g id="line2d_4">
      <g>
       <use xlink:href="#m2aa7b00576" x="502.290173" y="95.78" style="stroke: #000000; stroke-width: 0.8"/>
      </g>
     </g>
    </g>
    <g id="xtick_5">
     <g id="line2d_5">
      <g>
       <use xlink:href="#m2aa7b00576" x="617.871073" y="95.78" style="stroke: #000000; stroke-width: 0.8"/>
      </g>
     </g>
    </g>
    <g id="xtick_6">
     <g id="line2d_6">
      <g>
       <use xlink:href="#m2aa7b00576" x="733.451973" y="95.78" style="stroke: #000000; stroke-width: 0.8"/>
      </g>
     </g>
    </g>
   </g>
   <g id="matplotlib.axis_2"/>
   <g id="line2d_7">
    <path d="M 155.547472 82.797189 
L 178.779814 77.905632 
L 196.20407 74.329434 
L 207.820241 72.153127 
L 219.436412 70.232728 
L 228.14854 68.997017 
L 236.860668 67.957332 
L 245.572797 67.124903 
L 254.284925 66.503875 
L 262.997053 66.091397 
L 271.709181 65.878036 
L 280.421309 65.848492 
L 292.03748 66.059582 
L 303.653651 66.503571 
L 318.173864 67.288353 
L 373.350676 70.585926 
L 387.87089 71.127485 
L 402.391103 71.461617 
L 419.815359 71.643086 
L 454.663872 71.917169 
L 469.184086 72.269246 
L 483.704299 72.829351 
L 533.073025 74.995724 
L 544.689196 75.102555 
L 553.401324 74.988955 
L 562.113452 74.695058 
L 570.825581 74.219566 
L 582.441751 73.321601 
L 594.057922 72.173064 
L 611.482179 70.17771 
L 628.906435 68.225012 
L 640.522606 67.184794 
L 649.234734 66.643857 
L 657.946862 66.367164 
L 666.65899 66.396824 
L 672.467076 66.601392 
L 678.275161 66.959429 
L 684.083246 67.471934 
L 692.795375 68.523928 
L 701.507503 69.894315 
L 710.219631 71.544541 
L 718.931759 73.422932 
L 730.54793 76.175803 
L 733.451973 76.891948 
L 733.451973 76.891948 
" clip-path="url(#p46d7197f6f)" style="fill: none; stroke: #ffffff; stroke-width: 2; stroke-linecap: square"/>
   </g>
   <g id="line2d_8">
    <path d="M 155.547472 95.78 
L 733.451973 95.78 
" style="fill: none; stroke: #000000; stroke-linecap: square"/>
   </g>
   <g id="text_1">
    <g id="patch_3">
     <path d="M 3.24 105.189687 
L 98.8275 105.189687 
L 98.8275 86.370312 
L 3.24 86.370312 
z
" style="fill: #ffffff; opacity: 0.5"/>
    </g>
    <!-- Customer Support -->
    <g transform="translate(7.2 98.662813) scale(0.12 -0.12)">
     <defs>
      <path id="TimesNewRomanPSMT-43" d="M 3853 4334 
L 3950 2894 
L 3853 2894 
Q 3659 3541 3300 3825 
Q 2941 4109 2438 4109 
Q 2016 4109 1675 3895 
Q 1334 3681 1139 3212 
Q 944 2744 944 2047 
Q 944 1472 1128 1050 
Q 1313 628 1683 403 
Q 2053 178 2528 178 
Q 2941 178 3256 354 
Q 3572 531 3950 1056 
L 4047 994 
Q 3728 428 3303 165 
Q 2878 -97 2294 -97 
Q 1241 -97 663 684 
Q 231 1266 231 2053 
Q 231 2688 515 3219 
Q 800 3750 1298 4042 
Q 1797 4334 2388 4334 
Q 2847 4334 3294 4109 
Q 3425 4041 3481 4041 
Q 3566 4041 3628 4100 
Q 3709 4184 3744 4334 
L 3853 4334 
z
" transform="scale(0.015625)"/>
      <path id="TimesNewRomanPSMT-75" d="M 2709 2863 
L 2709 1128 
Q 2709 631 2732 520 
Q 2756 409 2807 365 
Q 2859 322 2928 322 
Q 3025 322 3147 375 
L 3191 266 
L 2334 -88 
L 2194 -88 
L 2194 519 
Q 1825 119 1631 15 
Q 1438 -88 1222 -88 
Q 981 -88 804 51 
Q 628 191 559 409 
Q 491 628 491 1028 
L 491 2306 
Q 491 2509 447 2587 
Q 403 2666 317 2708 
Q 231 2750 6 2747 
L 6 2863 
L 1009 2863 
L 1009 947 
Q 1009 547 1148 422 
Q 1288 297 1484 297 
Q 1619 297 1789 381 
Q 1959 466 2194 703 
L 2194 2325 
Q 2194 2569 2105 2655 
Q 2016 2741 1734 2747 
L 1734 2863 
L 2709 2863 
z
" transform="scale(0.015625)"/>
      <path id="TimesNewRomanPSMT-73" d="M 2050 2947 
L 2050 1972 
L 1947 1972 
Q 1828 2431 1642 2597 
Q 1456 2763 1169 2763 
Q 950 2763 815 2647 
Q 681 2531 681 2391 
Q 681 2216 781 2091 
Q 878 1963 1175 1819 
L 1631 1597 
Q 2266 1288 2266 781 
Q 2266 391 1970 151 
Q 1675 -88 1309 -88 
Q 1047 -88 709 6 
Q 606 38 541 38 
Q 469 38 428 -44 
L 325 -44 
L 325 978 
L 428 978 
Q 516 541 762 319 
Q 1009 97 1316 97 
Q 1531 97 1667 223 
Q 1803 350 1803 528 
Q 1803 744 1651 891 
Q 1500 1038 1047 1263 
Q 594 1488 453 1669 
Q 313 1847 313 2119 
Q 313 2472 555 2709 
Q 797 2947 1181 2947 
Q 1350 2947 1591 2875 
Q 1750 2828 1803 2828 
Q 1853 2828 1881 2850 
Q 1909 2872 1947 2947 
L 2050 2947 
z
" transform="scale(0.015625)"/>
      <path id="TimesNewRomanPSMT-74" d="M 1031 3803 
L 1031 2863 
L 1700 2863 
L 1700 2644 
L 1031 2644 
L 1031 788 
Q 1031 509 1111 412 
Q 1191 316 1316 316 
Q 1419 316 1516 380 
Q 1613 444 1666 569 
L 1788 569 
Q 1678 263 1478 108 
Q 1278 -47 1066 -47 
Q 922 -47 784 33 
Q 647 113 581 261 
Q 516 409 516 719 
L 516 2644 
L 63 2644 
L 63 2747 
Q 234 2816 414 2980 
Q 594 3144 734 3369 
Q 806 3488 934 3803 
L 1031 3803 
z
" transform="scale(0.015625)"/>
      <path id="TimesNewRomanPSMT-6f" d="M 1600 2947 
Q 2250 2947 2644 2453 
Q 2978 2031 2978 1484 
Q 2978 1100 2793 706 
Q 2609 313 2286 112 
Q 1963 -88 1566 -88 
Q 919 -88 538 428 
Q 216 863 216 1403 
Q 216 1797 411 2186 
Q 606 2575 925 2761 
Q 1244 2947 1600 2947 
z
M 1503 2744 
Q 1338 2744 1170 2645 
Q 1003 2547 900 2300 
Q 797 2053 797 1666 
Q 797 1041 1045 587 
Q 1294 134 1700 134 
Q 2003 134 2200 384 
Q 2397 634 2397 1244 
Q 2397 2006 2069 2444 
Q 1847 2744 1503 2744 
z
" transform="scale(0.015625)"/>
      <path id="TimesNewRomanPSMT-6d" d="M 1050 2338 
Q 1363 2650 1419 2697 
Q 1559 2816 1721 2881 
Q 1884 2947 2044 2947 
Q 2313 2947 2506 2790 
Q 2700 2634 2766 2338 
Q 3088 2713 3309 2830 
Q 3531 2947 3766 2947 
Q 3994 2947 4170 2830 
Q 4347 2713 4450 2447 
Q 4519 2266 4519 1878 
L 4519 647 
Q 4519 378 4559 278 
Q 4591 209 4675 161 
Q 4759 113 4950 113 
L 4950 0 
L 3538 0 
L 3538 113 
L 3597 113 
Q 3781 113 3884 184 
Q 3956 234 3988 344 
Q 4000 397 4000 647 
L 4000 1878 
Q 4000 2228 3916 2372 
Q 3794 2572 3525 2572 
Q 3359 2572 3192 2489 
Q 3025 2406 2788 2181 
L 2781 2147 
L 2788 2013 
L 2788 647 
Q 2788 353 2820 281 
Q 2853 209 2943 161 
Q 3034 113 3253 113 
L 3253 0 
L 1806 0 
L 1806 113 
Q 2044 113 2133 169 
Q 2222 225 2256 338 
Q 2272 391 2272 647 
L 2272 1878 
Q 2272 2228 2169 2381 
Q 2031 2581 1784 2581 
Q 1616 2581 1450 2491 
Q 1191 2353 1050 2181 
L 1050 647 
Q 1050 366 1089 281 
Q 1128 197 1204 155 
Q 1281 113 1516 113 
L 1516 0 
L 100 0 
L 100 113 
Q 297 113 375 155 
Q 453 197 493 289 
Q 534 381 534 647 
L 534 1741 
Q 534 2213 506 2350 
Q 484 2453 437 2492 
Q 391 2531 309 2531 
Q 222 2531 100 2484 
L 53 2597 
L 916 2947 
L 1050 2947 
L 1050 2338 
z
" transform="scale(0.015625)"/>
      <path id="TimesNewRomanPSMT-65" d="M 681 1784 
Q 678 1147 991 784 
Q 1303 422 1725 422 
Q 2006 422 2214 576 
Q 2422 731 2563 1106 
L 2659 1044 
Q 2594 616 2278 264 
Q 1963 -88 1488 -88 
Q 972 -88 605 314 
Q 238 716 238 1394 
Q 238 2128 614 2539 
Q 991 2950 1559 2950 
Q 2041 2950 2350 2633 
Q 2659 2316 2659 1784 
L 681 1784 
z
M 681 1966 
L 2006 1966 
Q 1991 2241 1941 2353 
Q 1863 2528 1708 2628 
Q 1553 2728 1384 2728 
Q 1125 2728 920 2526 
Q 716 2325 681 1966 
z
" transform="scale(0.015625)"/>
      <path id="TimesNewRomanPSMT-72" d="M 1038 2947 
L 1038 2303 
Q 1397 2947 1775 2947 
Q 1947 2947 2059 2842 
Q 2172 2738 2172 2600 
Q 2172 2478 2090 2393 
Q 2009 2309 1897 2309 
Q 1788 2309 1652 2417 
Q 1516 2525 1450 2525 
Q 1394 2525 1328 2463 
Q 1188 2334 1038 2041 
L 1038 669 
Q 1038 431 1097 309 
Q 1138 225 1241 169 
Q 1344 113 1538 113 
L 1538 0 
L 72 0 
L 72 113 
Q 291 113 397 181 
Q 475 231 506 341 
Q 522 394 522 644 
L 522 1753 
Q 522 2253 501 2348 
Q 481 2444 426 2487 
Q 372 2531 291 2531 
Q 194 2531 72 2484 
L 41 2597 
L 906 2947 
L 1038 2947 
z
" transform="scale(0.015625)"/>
      <path id="TimesNewRomanPSMT-20" transform="scale(0.015625)"/>
      <path id="TimesNewRomanPSMT-53" d="M 2934 4334 
L 2934 2869 
L 2819 2869 
Q 2763 3291 2617 3541 
Q 2472 3791 2203 3937 
Q 1934 4084 1647 4084 
Q 1322 4084 1109 3886 
Q 897 3688 897 3434 
Q 897 3241 1031 3081 
Q 1225 2847 1953 2456 
Q 2547 2138 2764 1967 
Q 2981 1797 3098 1565 
Q 3216 1334 3216 1081 
Q 3216 600 2842 251 
Q 2469 -97 1881 -97 
Q 1697 -97 1534 -69 
Q 1438 -53 1133 45 
Q 828 144 747 144 
Q 669 144 623 97 
Q 578 50 556 -97 
L 441 -97 
L 441 1356 
L 556 1356 
Q 638 900 775 673 
Q 913 447 1195 297 
Q 1478 147 1816 147 
Q 2206 147 2432 353 
Q 2659 559 2659 841 
Q 2659 997 2573 1156 
Q 2488 1316 2306 1453 
Q 2184 1547 1640 1851 
Q 1097 2156 867 2337 
Q 638 2519 519 2737 
Q 400 2956 400 3219 
Q 400 3675 750 4004 
Q 1100 4334 1641 4334 
Q 1978 4334 2356 4169 
Q 2531 4091 2603 4091 
Q 2684 4091 2736 4139 
Q 2788 4188 2819 4334 
L 2934 4334 
z
" transform="scale(0.015625)"/>
      <path id="TimesNewRomanPSMT-70" d="M -6 2578 
L 875 2934 
L 994 2934 
L 994 2266 
Q 1216 2644 1439 2795 
Q 1663 2947 1909 2947 
Q 2341 2947 2628 2609 
Q 2981 2197 2981 1534 
Q 2981 794 2556 309 
Q 2206 -88 1675 -88 
Q 1444 -88 1275 -22 
Q 1150 25 994 166 
L 994 -706 
Q 994 -1000 1030 -1079 
Q 1066 -1159 1155 -1206 
Q 1244 -1253 1478 -1253 
L 1478 -1369 
L -22 -1369 
L -22 -1253 
L 56 -1253 
Q 228 -1256 350 -1188 
Q 409 -1153 442 -1076 
Q 475 -1000 475 -688 
L 475 2019 
Q 475 2297 450 2372 
Q 425 2447 370 2484 
Q 316 2522 222 2522 
Q 147 2522 31 2478 
L -6 2578 
z
M 994 2081 
L 994 1013 
Q 994 666 1022 556 
Q 1066 375 1236 237 
Q 1406 100 1666 100 
Q 1978 100 2172 344 
Q 2425 663 2425 1241 
Q 2425 1897 2138 2250 
Q 1938 2494 1663 2494 
Q 1513 2494 1366 2419 
Q 1253 2363 994 2081 
z
" transform="scale(0.015625)"/>
     </defs>
     <use xlink:href="#TimesNewRomanPSMT-43"/>
     <use xlink:href="#TimesNewRomanPSMT-75" transform="translate(66.699219 0)"/>
     <use xlink:href="#TimesNewRomanPSMT-73" transform="translate(116.699219 0)"/>
     <use xlink:href="#TimesNewRomanPSMT-74" transform="translate(155.615234 0)"/>
     <use xlink:href="#TimesNewRomanPSMT-6f" transform="translate(183.398438 0)"/>
     <use xlink:href="#TimesNewRomanPSMT-6d" transform="translate(233.398438 0)"/>
     <use xlink:href="#TimesNewRomanPSMT-65" transform="translate(311.181641 0)"/>
     <use xlink:href="#TimesNewRomanPSMT-72" transform="translate(355.566406 0)"/>
     <use xlink:href="#TimesNewRomanPSMT-20" transform="translate(388.867188 0)"/>
     <use xlink:href="#TimesNewRomanPSMT-53" transform="translate(413.867188 0)"/>
     <use xlink:href="#TimesNewRomanPSMT-75" transform="translate(469.482422 0)"/>
     <use xlink:href="#TimesNewRomanPSMT-70" transform="translate(519.482422 0)"/>
     <use xlink:href="#TimesNewRomanPSMT-70" transform="translate(569.482422 0)"/>
     <use xlink:href="#TimesNewRomanPSMT-6f" transform="translate(619.482422 0)"/>
     <use xlink:href="#TimesNewRomanPSMT-72" transform="translate(669.482422 0)"/>
     <use xlink:href="#TimesNewRomanPSMT-74" transform="translate(702.783203 0)"/>
    </g>
   </g>
  </g>
  <g id="axes_2">
   <g id="patch_4">
    <path d="M 155.547472 133.11 
L 733.451973 133.11 
L 733.451973 58.45 
L 155.547472 58.45 
L 155.547472 133.11 
z
" style="fill: none; opacity: 0"/>
   </g>
   <g id="FillBetweenPolyCollection_2">
    <defs>
     <path id="maf74e3011d" d="M 155.547472 -113.868095 
L 155.547472 -79.145313 
L 158.451515 -79.145313 
L 161.355558 -79.145313 
L 164.259601 -79.145313 
L 167.163643 -79.145313 
L 170.067686 -79.145313 
L 172.971729 -79.145313 
L 175.875771 -79.145313 
L 178.779814 -79.145313 
L 181.683857 -79.145313 
L 184.5879 -79.145313 
L 187.491942 -79.145313 
L 190.395985 -79.145313 
L 193.300028 -79.145313 
L 196.20407 -79.145313 
L 199.108113 -79.145313 
L 202.012156 -79.145313 
L 204.916199 -79.145313 
L 207.820241 -79.145313 
L 210.724284 -79.145313 
L 213.628327 -79.145313 
L 216.532369 -79.145313 
L 219.436412 -79.145313 
L 222.340455 -79.145313 
L 225.244498 -79.145313 
L 228.14854 -79.145313 
L 231.052583 -79.145313 
L 233.956626 -79.145313 
L 236.860668 -79.145313 
L 239.764711 -79.145313 
L 242.668754 -79.145313 
L 245.572797 -79.145313 
L 248.476839 -79.145313 
L 251.380882 -79.145313 
L 254.284925 -79.145313 
L 257.188967 -79.145313 
L 260.09301 -79.145313 
L 262.997053 -79.145313 
L 265.901096 -79.145313 
L 268.805138 -79.145313 
L 271.709181 -79.145313 
L 274.613224 -79.145313 
L 277.517266 -79.145313 
L 280.421309 -79.145313 
L 283.325352 -79.145313 
L 286.229395 -79.145313 
L 289.133437 -79.145313 
L 292.03748 -79.145313 
L 294.941523 -79.145313 
L 297.845565 -79.145313 
L 300.749608 -79.145313 
L 303.653651 -79.145313 
L 306.557694 -79.145313 
L 309.461736 -79.145313 
L 312.365779 -79.145313 
L 315.269822 -79.145313 
L 318.173864 -79.145313 
L 321.077907 -79.145313 
L 323.98195 -79.145313 
L 326.885993 -79.145313 
L 329.790035 -79.145313 
L 332.694078 -79.145313 
L 335.598121 -79.145313 
L 338.502163 -79.145313 
L 341.406206 -79.145313 
L 344.310249 -79.145313 
L 347.214292 -79.145313 
L 350.118334 -79.145313 
L 353.022377 -79.145313 
L 355.92642 -79.145313 
L 358.830462 -79.145313 
L 361.734505 -79.145313 
L 364.638548 -79.145313 
L 367.542591 -79.145313 
L 370.446633 -79.145313 
L 373.350676 -79.145313 
L 376.254719 -79.145313 
L 379.158761 -79.145313 
L 382.062804 -79.145313 
L 384.966847 -79.145313 
L 387.87089 -79.145313 
L 390.774932 -79.145313 
L 393.678975 -79.145313 
L 396.583018 -79.145313 
L 399.48706 -79.145313 
L 402.391103 -79.145313 
L 405.295146 -79.145313 
L 408.199189 -79.145313 
L 411.103231 -79.145313 
L 414.007274 -79.145313 
L 416.911317 -79.145313 
L 419.815359 -79.145313 
L 422.719402 -79.145313 
L 425.623445 -79.145313 
L 428.527488 -79.145313 
L 431.43153 -79.145313 
L 434.335573 -79.145313 
L 437.239616 -79.145313 
L 440.143658 -79.145313 
L 443.047701 -79.145313 
L 445.951744 -79.145313 
L 448.855787 -79.145313 
L 451.759829 -79.145313 
L 454.663872 -79.145313 
L 457.567915 -79.145313 
L 460.471957 -79.145313 
L 463.376 -79.145313 
L 466.280043 -79.145313 
L 469.184086 -79.145313 
L 472.088128 -79.145313 
L 474.992171 -79.145313 
L 477.896214 -79.145313 
L 480.800256 -79.145313 
L 483.704299 -79.145313 
L 486.608342 -79.145313 
L 489.512385 -79.145313 
L 492.416427 -79.145313 
L 495.32047 -79.145313 
L 498.224513 -79.145313 
L 501.128555 -79.145313 
L 504.032598 -79.145313 
L 506.936641 -79.145313 
L 509.840684 -79.145313 
L 512.744726 -79.145313 
L 515.648769 -79.145313 
L 518.552812 -79.145313 
L 521.456854 -79.145313 
L 524.360897 -79.145313 
L 527.26494 -79.145313 
L 530.168983 -79.145313 
L 533.073025 -79.145313 
L 535.977068 -79.145313 
L 538.881111 -79.145313 
L 541.785153 -79.145313 
L 544.689196 -79.145313 
L 547.593239 -79.145313 
L 550.497282 -79.145313 
L 553.401324 -79.145313 
L 556.305367 -79.145313 
L 559.20941 -79.145313 
L 562.113452 -79.145313 
L 565.017495 -79.145313 
L 567.921538 -79.145313 
L 570.825581 -79.145313 
L 573.729623 -79.145313 
L 576.633666 -79.145313 
L 579.537709 -79.145313 
L 582.441751 -79.145313 
L 585.345794 -79.145313 
L 588.249837 -79.145313 
L 591.15388 -79.145313 
L 594.057922 -79.145313 
L 596.961965 -79.145313 
L 599.866008 -79.145313 
L 602.77005 -79.145313 
L 605.674093 -79.145313 
L 608.578136 -79.145313 
L 611.482179 -79.145313 
L 614.386221 -79.145313 
L 617.290264 -79.145313 
L 620.194307 -79.145313 
L 623.098349 -79.145313 
L 626.002392 -79.145313 
L 628.906435 -79.145313 
L 631.810478 -79.145313 
L 634.71452 -79.145313 
L 637.618563 -79.145313 
L 640.522606 -79.145313 
L 643.426648 -79.145313 
L 646.330691 -79.145313 
L 649.234734 -79.145313 
L 652.138777 -79.145313 
L 655.042819 -79.145313 
L 657.946862 -79.145313 
L 660.850905 -79.145313 
L 663.754947 -79.145313 
L 666.65899 -79.145313 
L 669.563033 -79.145313 
L 672.467076 -79.145313 
L 675.371118 -79.145313 
L 678.275161 -79.145313 
L 681.179204 -79.145313 
L 684.083246 -79.145313 
L 686.987289 -79.145313 
L 689.891332 -79.145313 
L 692.795375 -79.145313 
L 695.699417 -79.145313 
L 698.60346 -79.145313 
L 701.507503 -79.145313 
L 704.411545 -79.145313 
L 707.315588 -79.145313 
L 710.219631 -79.145313 
L 713.123674 -79.145313 
L 716.027716 -79.145313 
L 718.931759 -79.145313 
L 721.835802 -79.145313 
L 724.739844 -79.145313 
L 727.643887 -79.145313 
L 730.54793 -79.145313 
L 733.451973 -79.145313 
L 733.451973 -90.445351 
L 733.451973 -90.445351 
L 730.54793 -90.62325 
L 727.643887 -90.778066 
L 724.739844 -90.909253 
L 721.835802 -91.016462 
L 718.931759 -91.099548 
L 716.027716 -91.158572 
L 713.123674 -91.193795 
L 710.219631 -91.205677 
L 707.315588 -91.194868 
L 704.411545 -91.162199 
L 701.507503 -91.108666 
L 698.60346 -91.035421 
L 695.699417 -90.943756 
L 692.795375 -90.83508 
L 689.891332 -90.710906 
L 686.987289 -90.572828 
L 684.083246 -90.422503 
L 681.179204 -90.261629 
L 678.275161 -90.091925 
L 675.371118 -89.915113 
L 672.467076 -89.732896 
L 669.563033 -89.546941 
L 666.65899 -89.358863 
L 663.754947 -89.170205 
L 660.850905 -88.98243 
L 657.946862 -88.796905 
L 655.042819 -88.61489 
L 652.138777 -88.437531 
L 649.234734 -88.265853 
L 646.330691 -88.100755 
L 643.426648 -87.943008 
L 640.522606 -87.793255 
L 637.618563 -87.652012 
L 634.71452 -87.519668 
L 631.810478 -87.396498 
L 628.906435 -87.28266 
L 626.002392 -87.178209 
L 623.098349 -87.083107 
L 620.194307 -86.997227 
L 617.290264 -86.920371 
L 614.386221 -86.852279 
L 611.482179 -86.792638 
L 608.578136 -86.741102 
L 605.674093 -86.697298 
L 602.77005 -86.660838 
L 599.866008 -86.631335 
L 596.961965 -86.608412 
L 594.057922 -86.59171 
L 591.15388 -86.580897 
L 588.249837 -86.575678 
L 585.345794 -86.575801 
L 582.441751 -86.581057 
L 579.537709 -86.591288 
L 576.633666 -86.606383 
L 573.729623 -86.626281 
L 570.825581 -86.650967 
L 567.921538 -86.680466 
L 565.017495 -86.714841 
L 562.113452 -86.754179 
L 559.20941 -86.798588 
L 556.305367 -86.848184 
L 553.401324 -86.903081 
L 550.497282 -86.963377 
L 547.593239 -87.029147 
L 544.689196 -87.100426 
L 541.785153 -87.177201 
L 538.881111 -87.259397 
L 535.977068 -87.346871 
L 533.073025 -87.439398 
L 530.168983 -87.536671 
L 527.26494 -87.638288 
L 524.360897 -87.743755 
L 521.456854 -87.852482 
L 518.552812 -87.963788 
L 515.648769 -88.076898 
L 512.744726 -88.190959 
L 509.840684 -88.305042 
L 506.936641 -88.418154 
L 504.032598 -88.529257 
L 501.128555 -88.637277 
L 498.224513 -88.741127 
L 495.32047 -88.83972 
L 492.416427 -88.931995 
L 489.512385 -89.016934 
L 486.608342 -89.093586 
L 483.704299 -89.161082 
L 480.800256 -89.218665 
L 477.896214 -89.265701 
L 474.992171 -89.3017 
L 472.088128 -89.326337 
L 469.184086 -89.339461 
L 466.280043 -89.341109 
L 463.376 -89.331517 
L 460.471957 -89.311127 
L 457.567915 -89.280592 
L 454.663872 -89.240776 
L 451.759829 -89.192752 
L 448.855787 -89.137798 
L 445.951744 -89.077394 
L 443.047701 -89.013204 
L 440.143658 -88.947072 
L 437.239616 -88.881002 
L 434.335573 -88.817143 
L 431.43153 -88.757773 
L 428.527488 -88.705277 
L 425.623445 -88.662129 
L 422.719402 -88.630871 
L 419.815359 -88.614092 
L 416.911317 -88.614406 
L 414.007274 -88.634434 
L 411.103231 -88.676786 
L 408.199189 -88.744037 
L 405.295146 -88.838717 
L 402.391103 -88.963289 
L 399.48706 -89.120141 
L 396.583018 -89.311567 
L 393.678975 -89.539763 
L 390.774932 -89.806812 
L 387.87089 -90.11468 
L 384.966847 -90.465211 
L 382.062804 -90.860116 
L 379.158761 -91.300979 
L 376.254719 -91.789245 
L 373.350676 -92.326224 
L 370.446633 -92.913087 
L 367.542591 -93.550864 
L 364.638548 -94.240446 
L 361.734505 -94.982578 
L 358.830462 -95.777858 
L 355.92642 -96.626733 
L 353.022377 -97.529497 
L 350.118334 -98.486278 
L 347.214292 -99.497036 
L 344.310249 -100.56155 
L 341.406206 -101.679408 
L 338.502163 -102.849994 
L 335.598121 -104.072471 
L 332.694078 -105.345768 
L 329.790035 -106.668561 
L 326.885993 -108.039255 
L 323.98195 -109.455964 
L 321.077907 -110.916495 
L 318.173864 -112.418323 
L 315.269822 -113.95858 
L 312.365779 -115.534033 
L 309.461736 -117.14107 
L 306.557694 -118.77569 
L 303.653651 -120.433491 
L 300.749608 -122.109665 
L 297.845565 -123.798996 
L 294.941523 -125.495865 
L 292.03748 -127.194261 
L 289.133437 -128.887791 
L 286.229395 -130.569703 
L 283.325352 -132.232915 
L 280.421309 -133.870049 
L 277.517266 -135.473471 
L 274.613224 -137.035335 
L 271.709181 -138.547642 
L 268.805138 -140.002298 
L 265.901096 -141.391177 
L 262.997053 -142.706189 
L 260.09301 -143.939359 
L 257.188967 -145.082899 
L 254.284925 -146.129289 
L 251.380882 -147.071352 
L 248.476839 -147.902341 
L 245.572797 -148.616006 
L 242.668754 -149.20668 
L 239.764711 -149.66934 
L 236.860668 -149.999678 
L 233.956626 -150.194161 
L 231.052583 -150.250074 
L 228.14854 -150.165575 
L 225.244498 -149.939718 
L 222.340455 -149.572483 
L 219.436412 -149.064782 
L 216.532369 -148.41847 
L 213.628327 -147.636326 
L 210.724284 -146.722037 
L 207.820241 -145.680167 
L 204.916199 -144.516111 
L 202.012156 -143.236044 
L 199.108113 -141.846865 
L 196.20407 -140.356117 
L 193.300028 -138.77192 
L 190.395985 -137.102884 
L 187.491942 -135.35802 
L 184.5879 -133.546653 
L 181.683857 -131.67833 
L 178.779814 -129.762721 
L 175.875771 -127.809535 
L 172.971729 -125.828422 
L 170.067686 -123.828894 
L 167.163643 -121.820236 
L 164.259601 -119.811434 
L 161.355558 -117.811103 
L 158.451515 -115.827426 
L 155.547472 -113.868095 
z
" style="stroke: #dddcdc"/>
    </defs>
    <g clip-path="url(#p15ecd5bbf6)">
     <use xlink:href="#maf74e3011d" x="0" y="212.255313" style="fill: #dddcdc; fill-opacity: 0.5; stroke: #dddcdc"/>
    </g>
   </g>
   <g id="matplotlib.axis_3">
    <g id="xtick_7">
     <g id="line2d_9">
      <g>
       <use xlink:href="#m2aa7b00576" x="155.547472" y="133.11" style="stroke: #000000; stroke-width: 0.8"/>
      </g>
     </g>
    </g>
    <g id="xtick_8">
     <g id="line2d_10">
      <g>
       <use xlink:href="#m2aa7b00576" x="271.128372" y="133.11" style="stroke: #000000; stroke-width: 0.8"/>
      </g>
     </g>
    </g>
    <g id="xtick_9">
     <g id="line2d_11">
      <g>
       <use xlink:href="#m2aa7b00576" x="386.709272" y="133.11" style="stroke: #000000; stroke-width: 0.8"/>
      </g>
     </g>
    </g>
    <g id="xtick_10">
     <g id="line2d_12">
      <g>
       <use xlink:href="#m2aa7b00576" x="502.290173" y="133.11" style="stroke: #000000; stroke-width: 0.8"/>
      </g>
     </g>
    </g>
    <g id="xtick_11">
     <g id="line2d_13">
      <g>
       <use xlink:href="#m2aa7b00576" x="617.871073" y="133.11" style="stroke: #000000; stroke-width: 0.8"/>
      </g>
     </g>
    </g>
    <g id="xtick_12">
     <g id="line2d_14">
      <g>
       <use xlink:href="#m2aa7b00576" x="733.451973" y="133.11" style="stroke: #000000; stroke-width: 0.8"/>
      </g>
     </g>
    </g>
   </g>
   <g id="matplotlib.axis_4"/>
   <g id="line2d_15">
    <path d="M 155.547472 98.387218 
L 167.163643 90.435077 
L 178.779814 82.492591 
L 184.5879 78.708659 
L 190.395985 75.152429 
L 196.20407 71.899195 
L 202.012156 69.019268 
L 207.820241 66.575145 
L 210.724284 65.533275 
L 213.628327 64.618986 
L 216.532369 63.836842 
L 219.436412 63.19053 
L 222.340455 62.68283 
L 225.244498 62.315594 
L 228.14854 62.089737 
L 231.052583 62.005238 
L 233.956626 62.061152 
L 236.860668 62.255634 
L 239.764711 62.585973 
L 242.668754 63.048633 
L 245.572797 63.639306 
L 248.476839 64.352972 
L 254.284925 66.126024 
L 260.09301 68.315953 
L 265.901096 70.864136 
L 271.709181 73.70767 
L 277.517266 76.781842 
L 286.229395 81.68561 
L 312.365779 96.72128 
L 321.077907 101.338818 
L 326.885993 104.216058 
L 332.694078 106.909545 
L 338.502163 109.405319 
L 344.310249 111.693762 
L 350.118334 113.769035 
L 355.92642 115.628579 
L 361.734505 117.272734 
L 367.542591 118.704448 
L 373.350676 119.929089 
L 379.158761 120.954334 
L 384.966847 121.790102 
L 390.774932 122.448501 
L 396.583018 122.943745 
L 405.295146 123.416596 
L 414.007274 123.620878 
L 425.623445 123.593183 
L 443.047701 123.242108 
L 460.471957 122.944185 
L 472.088128 122.928975 
L 486.608342 123.161727 
L 504.032598 123.726055 
L 541.785153 125.078111 
L 559.20941 125.456724 
L 579.537709 125.664025 
L 596.961965 125.6469 
L 614.386221 125.403034 
L 628.906435 124.972653 
L 643.426648 124.312304 
L 660.850905 123.272882 
L 686.987289 121.682484 
L 698.60346 121.219891 
L 707.315588 121.060444 
L 716.027716 121.096741 
L 724.739844 121.34606 
L 733.451973 121.809961 
L 733.451973 121.809961 
" clip-path="url(#p15ecd5bbf6)" style="fill: none; stroke: #ffffff; stroke-width: 2; stroke-linecap: square"/>
   </g>
   <g id="line2d_16">
    <path d="M 155.547472 133.11 
L 733.451973 133.11 
" style="fill: none; stroke: #000000; stroke-linecap: square"/>
   </g>
   <g id="text_2">
    <g id="patch_5">
     <path d="M 4.588125 142.530938 
L 98.8275 142.530938 
L 98.8275 123.689063 
L 4.588125 123.689063 
z
" style="fill: #ffffff; opacity: 0.5"/>
    </g>
    <!-- Loyalty Programs -->
    <g transform="translate(8.548125 135.981562) scale(0.12 -0.12)">
     <defs>
      <path id="TimesNewRomanPSMT-4c" d="M 3669 1172 
L 3772 1150 
L 3409 0 
L 128 0 
L 128 116 
L 288 116 
Q 556 116 672 291 
Q 738 391 738 753 
L 738 3488 
Q 738 3884 650 3984 
Q 528 4122 288 4122 
L 128 4122 
L 128 4238 
L 2047 4238 
L 2047 4122 
Q 1709 4125 1573 4059 
Q 1438 3994 1388 3894 
Q 1338 3794 1338 3416 
L 1338 753 
Q 1338 494 1388 397 
Q 1425 331 1503 300 
Q 1581 269 1991 269 
L 2300 269 
Q 2788 269 2984 341 
Q 3181 413 3343 595 
Q 3506 778 3669 1172 
z
" transform="scale(0.015625)"/>
      <path id="TimesNewRomanPSMT-79" d="M 38 2863 
L 1372 2863 
L 1372 2747 
L 1306 2747 
Q 1166 2747 1095 2686 
Q 1025 2625 1025 2534 
Q 1025 2413 1128 2197 
L 1825 753 
L 2466 2334 
Q 2519 2463 2519 2588 
Q 2519 2644 2497 2672 
Q 2472 2706 2419 2726 
Q 2366 2747 2231 2747 
L 2231 2863 
L 3163 2863 
L 3163 2747 
Q 3047 2734 2984 2696 
Q 2922 2659 2847 2556 
Q 2819 2513 2741 2316 
L 1575 -541 
Q 1406 -956 1132 -1168 
Q 859 -1381 606 -1381 
Q 422 -1381 303 -1275 
Q 184 -1169 184 -1031 
Q 184 -900 270 -820 
Q 356 -741 506 -741 
Q 609 -741 788 -809 
Q 913 -856 944 -856 
Q 1038 -856 1148 -759 
Q 1259 -663 1372 -384 
L 1575 113 
L 547 2272 
Q 500 2369 397 2513 
Q 319 2622 269 2659 
Q 197 2709 38 2747 
L 38 2863 
z
" transform="scale(0.015625)"/>
      <path id="TimesNewRomanPSMT-61" d="M 1822 413 
Q 1381 72 1269 19 
Q 1100 -59 909 -59 
Q 613 -59 420 144 
Q 228 347 228 678 
Q 228 888 322 1041 
Q 450 1253 767 1440 
Q 1084 1628 1822 1897 
L 1822 2009 
Q 1822 2438 1686 2597 
Q 1550 2756 1291 2756 
Q 1094 2756 978 2650 
Q 859 2544 859 2406 
L 866 2225 
Q 866 2081 792 2003 
Q 719 1925 600 1925 
Q 484 1925 411 2006 
Q 338 2088 338 2228 
Q 338 2497 613 2722 
Q 888 2947 1384 2947 
Q 1766 2947 2009 2819 
Q 2194 2722 2281 2516 
Q 2338 2381 2338 1966 
L 2338 994 
Q 2338 584 2353 492 
Q 2369 400 2405 369 
Q 2441 338 2488 338 
Q 2538 338 2575 359 
Q 2641 400 2828 588 
L 2828 413 
Q 2478 -56 2159 -56 
Q 2006 -56 1915 50 
Q 1825 156 1822 413 
z
M 1822 616 
L 1822 1706 
Q 1350 1519 1213 1441 
Q 966 1303 859 1153 
Q 753 1003 753 825 
Q 753 600 887 451 
Q 1022 303 1197 303 
Q 1434 303 1822 616 
z
" transform="scale(0.015625)"/>
      <path id="TimesNewRomanPSMT-6c" d="M 1184 4444 
L 1184 647 
Q 1184 378 1223 290 
Q 1263 203 1344 158 
Q 1425 113 1647 113 
L 1647 0 
L 244 0 
L 244 113 
Q 441 113 512 153 
Q 584 194 625 287 
Q 666 381 666 647 
L 666 3247 
Q 666 3731 644 3842 
Q 622 3953 573 3993 
Q 525 4034 450 4034 
Q 369 4034 244 3984 
L 191 4094 
L 1044 4444 
L 1184 4444 
z
" transform="scale(0.015625)"/>
      <path id="TimesNewRomanPSMT-50" d="M 1313 1984 
L 1313 750 
Q 1313 350 1400 253 
Q 1519 116 1759 116 
L 1922 116 
L 1922 0 
L 106 0 
L 106 116 
L 266 116 
Q 534 116 650 291 
Q 713 388 713 750 
L 713 3488 
Q 713 3888 628 3984 
Q 506 4122 266 4122 
L 106 4122 
L 106 4238 
L 1659 4238 
Q 2228 4238 2556 4120 
Q 2884 4003 3109 3725 
Q 3334 3447 3334 3066 
Q 3334 2547 2992 2222 
Q 2650 1897 2025 1897 
Q 1872 1897 1694 1919 
Q 1516 1941 1313 1984 
z
M 1313 2163 
Q 1478 2131 1606 2115 
Q 1734 2100 1825 2100 
Q 2150 2100 2386 2351 
Q 2622 2603 2622 3003 
Q 2622 3278 2509 3514 
Q 2397 3750 2190 3867 
Q 1984 3984 1722 3984 
Q 1563 3984 1313 3925 
L 1313 2163 
z
" transform="scale(0.015625)"/>
      <path id="TimesNewRomanPSMT-67" d="M 966 1044 
Q 703 1172 562 1401 
Q 422 1631 422 1909 
Q 422 2334 742 2640 
Q 1063 2947 1563 2947 
Q 1972 2947 2272 2747 
L 2878 2747 
Q 3013 2747 3034 2739 
Q 3056 2731 3066 2713 
Q 3084 2684 3084 2613 
Q 3084 2531 3069 2500 
Q 3059 2484 3036 2475 
Q 3013 2466 2878 2466 
L 2506 2466 
Q 2681 2241 2681 1891 
Q 2681 1491 2375 1206 
Q 2069 922 1553 922 
Q 1341 922 1119 984 
Q 981 866 932 777 
Q 884 688 884 625 
Q 884 572 936 522 
Q 988 472 1138 450 
Q 1225 438 1575 428 
Q 2219 413 2409 384 
Q 2700 344 2873 169 
Q 3047 -6 3047 -263 
Q 3047 -616 2716 -925 
Q 2228 -1381 1444 -1381 
Q 841 -1381 425 -1109 
Q 191 -953 191 -784 
Q 191 -709 225 -634 
Q 278 -519 444 -313 
Q 466 -284 763 25 
Q 600 122 533 198 
Q 466 275 466 372 
Q 466 481 555 628 
Q 644 775 966 1044 
z
M 1509 2797 
Q 1278 2797 1122 2612 
Q 966 2428 966 2047 
Q 966 1553 1178 1281 
Q 1341 1075 1591 1075 
Q 1828 1075 1981 1253 
Q 2134 1431 2134 1813 
Q 2134 2309 1919 2591 
Q 1759 2797 1509 2797 
z
M 934 0 
Q 788 -159 713 -296 
Q 638 -434 638 -550 
Q 638 -700 819 -813 
Q 1131 -1006 1722 -1006 
Q 2284 -1006 2551 -807 
Q 2819 -609 2819 -384 
Q 2819 -222 2659 -153 
Q 2497 -84 2016 -72 
Q 1313 -53 934 0 
z
" transform="scale(0.015625)"/>
     </defs>
     <use xlink:href="#TimesNewRomanPSMT-4c"/>
     <use xlink:href="#TimesNewRomanPSMT-6f" transform="translate(61.083984 0)"/>
     <use xlink:href="#TimesNewRomanPSMT-79" transform="translate(111.083984 0)"/>
     <use xlink:href="#TimesNewRomanPSMT-61" transform="translate(161.083984 0)"/>
     <use xlink:href="#TimesNewRomanPSMT-6c" transform="translate(205.46875 0)"/>
     <use xlink:href="#TimesNewRomanPSMT-74" transform="translate(233.251953 0)"/>
     <use xlink:href="#TimesNewRomanPSMT-79" transform="translate(261.035156 0)"/>
     <use xlink:href="#TimesNewRomanPSMT-20" transform="translate(311.035156 0)"/>
     <use xlink:href="#TimesNewRomanPSMT-50" transform="translate(336.035156 0)"/>
     <use xlink:href="#TimesNewRomanPSMT-72" transform="translate(391.650391 0)"/>
     <use xlink:href="#TimesNewRomanPSMT-6f" transform="translate(424.951172 0)"/>
     <use xlink:href="#TimesNewRomanPSMT-67" transform="translate(474.951172 0)"/>
     <use xlink:href="#TimesNewRomanPSMT-72" transform="translate(524.951172 0)"/>
     <use xlink:href="#TimesNewRomanPSMT-61" transform="translate(558.251953 0)"/>
     <use xlink:href="#TimesNewRomanPSMT-6d" transform="translate(602.636719 0)"/>
     <use xlink:href="#TimesNewRomanPSMT-73" transform="translate(680.419922 0)"/>
    </g>
   </g>
  </g>
  <g id="axes_3">
   <g id="patch_6">
    <path d="M 155.547472 170.44 
L 733.451973 170.44 
L 733.451973 95.78 
L 155.547472 95.78 
L 155.547472 170.44 
z
" style="fill: none; opacity: 0"/>
   </g>
   <g id="FillBetweenPolyCollection_3">
    <defs>
     <path id="m53a4d6c6d0" d="M 155.547472 -54.260196 
L 155.547472 -41.815313 
L 158.451515 -41.815313 
L 161.355558 -41.815313 
L 164.259601 -41.815313 
L 167.163643 -41.815313 
L 170.067686 -41.815313 
L 172.971729 -41.815313 
L 175.875771 -41.815313 
L 178.779814 -41.815313 
L 181.683857 -41.815313 
L 184.5879 -41.815313 
L 187.491942 -41.815313 
L 190.395985 -41.815313 
L 193.300028 -41.815313 
L 196.20407 -41.815313 
L 199.108113 -41.815313 
L 202.012156 -41.815313 
L 204.916199 -41.815313 
L 207.820241 -41.815313 
L 210.724284 -41.815313 
L 213.628327 -41.815313 
L 216.532369 -41.815313 
L 219.436412 -41.815313 
L 222.340455 -41.815313 
L 225.244498 -41.815313 
L 228.14854 -41.815313 
L 231.052583 -41.815313 
L 233.956626 -41.815313 
L 236.860668 -41.815313 
L 239.764711 -41.815313 
L 242.668754 -41.815313 
L 245.572797 -41.815313 
L 248.476839 -41.815313 
L 251.380882 -41.815313 
L 254.284925 -41.815313 
L 257.188967 -41.815313 
L 260.09301 -41.815313 
L 262.997053 -41.815313 
L 265.901096 -41.815313 
L 268.805138 -41.815313 
L 271.709181 -41.815313 
L 274.613224 -41.815313 
L 277.517266 -41.815313 
L 280.421309 -41.815313 
L 283.325352 -41.815313 
L 286.229395 -41.815313 
L 289.133437 -41.815313 
L 292.03748 -41.815313 
L 294.941523 -41.815313 
L 297.845565 -41.815313 
L 300.749608 -41.815313 
L 303.653651 -41.815313 
L 306.557694 -41.815313 
L 309.461736 -41.815313 
L 312.365779 -41.815313 
L 315.269822 -41.815313 
L 318.173864 -41.815313 
L 321.077907 -41.815313 
L 323.98195 -41.815313 
L 326.885993 -41.815313 
L 329.790035 -41.815313 
L 332.694078 -41.815313 
L 335.598121 -41.815313 
L 338.502163 -41.815313 
L 341.406206 -41.815313 
L 344.310249 -41.815313 
L 347.214292 -41.815313 
L 350.118334 -41.815313 
L 353.022377 -41.815313 
L 355.92642 -41.815313 
L 358.830462 -41.815313 
L 361.734505 -41.815313 
L 364.638548 -41.815313 
L 367.542591 -41.815313 
L 370.446633 -41.815313 
L 373.350676 -41.815313 
L 376.254719 -41.815313 
L 379.158761 -41.815313 
L 382.062804 -41.815313 
L 384.966847 -41.815313 
L 387.87089 -41.815313 
L 390.774932 -41.815313 
L 393.678975 -41.815313 
L 396.583018 -41.815313 
L 399.48706 -41.815313 
L 402.391103 -41.815313 
L 405.295146 -41.815313 
L 408.199189 -41.815313 
L 411.103231 -41.815313 
L 414.007274 -41.815313 
L 416.911317 -41.815313 
L 419.815359 -41.815313 
L 422.719402 -41.815313 
L 425.623445 -41.815313 
L 428.527488 -41.815313 
L 431.43153 -41.815313 
L 434.335573 -41.815313 
L 437.239616 -41.815313 
L 440.143658 -41.815313 
L 443.047701 -41.815313 
L 445.951744 -41.815313 
L 448.855787 -41.815313 
L 451.759829 -41.815313 
L 454.663872 -41.815313 
L 457.567915 -41.815313 
L 460.471957 -41.815313 
L 463.376 -41.815313 
L 466.280043 -41.815313 
L 469.184086 -41.815313 
L 472.088128 -41.815313 
L 474.992171 -41.815313 
L 477.896214 -41.815313 
L 480.800256 -41.815313 
L 483.704299 -41.815313 
L 486.608342 -41.815313 
L 489.512385 -41.815313 
L 492.416427 -41.815313 
L 495.32047 -41.815313 
L 498.224513 -41.815313 
L 501.128555 -41.815313 
L 504.032598 -41.815313 
L 506.936641 -41.815313 
L 509.840684 -41.815313 
L 512.744726 -41.815313 
L 515.648769 -41.815313 
L 518.552812 -41.815313 
L 521.456854 -41.815313 
L 524.360897 -41.815313 
L 527.26494 -41.815313 
L 530.168983 -41.815313 
L 533.073025 -41.815313 
L 535.977068 -41.815313 
L 538.881111 -41.815313 
L 541.785153 -41.815313 
L 544.689196 -41.815313 
L 547.593239 -41.815313 
L 550.497282 -41.815313 
L 553.401324 -41.815313 
L 556.305367 -41.815313 
L 559.20941 -41.815313 
L 562.113452 -41.815313 
L 565.017495 -41.815313 
L 567.921538 -41.815313 
L 570.825581 -41.815313 
L 573.729623 -41.815313 
L 576.633666 -41.815313 
L 579.537709 -41.815313 
L 582.441751 -41.815313 
L 585.345794 -41.815313 
L 588.249837 -41.815313 
L 591.15388 -41.815313 
L 594.057922 -41.815313 
L 596.961965 -41.815313 
L 599.866008 -41.815313 
L 602.77005 -41.815313 
L 605.674093 -41.815313 
L 608.578136 -41.815313 
L 611.482179 -41.815313 
L 614.386221 -41.815313 
L 617.290264 -41.815313 
L 620.194307 -41.815313 
L 623.098349 -41.815313 
L 626.002392 -41.815313 
L 628.906435 -41.815313 
L 631.810478 -41.815313 
L 634.71452 -41.815313 
L 637.618563 -41.815313 
L 640.522606 -41.815313 
L 643.426648 -41.815313 
L 646.330691 -41.815313 
L 649.234734 -41.815313 
L 652.138777 -41.815313 
L 655.042819 -41.815313 
L 657.946862 -41.815313 
L 660.850905 -41.815313 
L 663.754947 -41.815313 
L 666.65899 -41.815313 
L 669.563033 -41.815313 
L 672.467076 -41.815313 
L 675.371118 -41.815313 
L 678.275161 -41.815313 
L 681.179204 -41.815313 
L 684.083246 -41.815313 
L 686.987289 -41.815313 
L 689.891332 -41.815313 
L 692.795375 -41.815313 
L 695.699417 -41.815313 
L 698.60346 -41.815313 
L 701.507503 -41.815313 
L 704.411545 -41.815313 
L 707.315588 -41.815313 
L 710.219631 -41.815313 
L 713.123674 -41.815313 
L 716.027716 -41.815313 
L 718.931759 -41.815313 
L 721.835802 -41.815313 
L 724.739844 -41.815313 
L 727.643887 -41.815313 
L 730.54793 -41.815313 
L 733.451973 -41.815313 
L 733.451973 -53.413444 
L 733.451973 -53.413444 
L 730.54793 -53.787236 
L 727.643887 -54.152683 
L 724.739844 -54.509265 
L 721.835802 -54.856625 
L 718.931759 -55.194571 
L 716.027716 -55.523083 
L 713.123674 -55.842311 
L 710.219631 -56.152577 
L 707.315588 -56.454366 
L 704.411545 -56.748322 
L 701.507503 -57.035233 
L 698.60346 -57.316019 
L 695.699417 -57.591714 
L 692.795375 -57.863448 
L 689.891332 -58.13242 
L 686.987289 -58.399882 
L 684.083246 -58.667105 
L 681.179204 -58.935358 
L 678.275161 -59.205875 
L 675.371118 -59.479833 
L 672.467076 -59.758317 
L 669.563033 -60.042298 
L 666.65899 -60.332603 
L 663.754947 -60.629892 
L 660.850905 -60.934636 
L 657.946862 -61.247096 
L 655.042819 -61.567308 
L 652.138777 -61.895065 
L 649.234734 -62.229914 
L 646.330691 -62.571144 
L 643.426648 -62.91779 
L 640.522606 -63.268631 
L 637.618563 -63.622202 
L 634.71452 -63.976804 
L 631.810478 -64.330521 
L 628.906435 -64.681239 
L 626.002392 -65.026675 
L 623.098349 -65.364403 
L 620.194307 -65.691884 
L 617.290264 -66.006507 
L 614.386221 -66.30562 
L 611.482179 -66.586576 
L 608.578136 -66.846767 
L 605.674093 -67.083672 
L 602.77005 -67.294894 
L 599.866008 -67.478203 
L 596.961965 -67.631575 
L 594.057922 -67.75323 
L 591.15388 -67.841668 
L 588.249837 -67.895699 
L 585.345794 -67.914471 
L 582.441751 -67.897496 
L 579.537709 -67.844663 
L 576.633666 -67.756258 
L 573.729623 -67.632968 
L 570.825581 -67.475881 
L 567.921538 -67.286486 
L 565.017495 -67.066659 
L 562.113452 -66.818648 
L 559.20941 -66.545048 
L 556.305367 -66.248778 
L 553.401324 -65.933043 
L 550.497282 -65.601295 
L 547.593239 -65.257194 
L 544.689196 -64.904561 
L 541.785153 -64.547326 
L 538.881111 -64.189477 
L 535.977068 -63.835012 
L 533.073025 -63.487879 
L 530.168983 -63.151927 
L 527.26494 -62.830854 
L 524.360897 -62.528158 
L 521.456854 -62.24709 
L 518.552812 -61.990614 
L 515.648769 -61.761366 
L 512.744726 -61.561625 
L 509.840684 -61.393287 
L 506.936641 -61.257846 
L 504.032598 -61.156378 
L 501.128555 -61.089542 
L 498.224513 -61.057576 
L 495.32047 -61.060311 
L 492.416427 -61.097186 
L 489.512385 -61.167269 
L 486.608342 -61.269293 
L 483.704299 -61.401684 
L 480.800256 -61.562608 
L 477.896214 -61.750013 
L 474.992171 -61.961678 
L 472.088128 -62.195264 
L 469.184086 -62.448368 
L 466.280043 -62.718573 
L 463.376 -63.003501 
L 460.471957 -63.300866 
L 457.567915 -63.608518 
L 454.663872 -63.924486 
L 451.759829 -64.247021 
L 448.855787 -64.574624 
L 445.951744 -64.906077 
L 443.047701 -65.240461 
L 440.143658 -65.577165 
L 437.239616 -65.915899 
L 434.335573 -66.256683 
L 431.43153 -66.599838 
L 428.527488 -66.945971 
L 425.623445 -67.295944 
L 422.719402 -67.650844 
L 419.815359 -68.011946 
L 416.911317 -68.380664 
L 414.007274 -68.758507 
L 411.103231 -69.147023 
L 408.199189 -69.54775 
L 405.295146 -69.962154 
L 402.391103 -70.391578 
L 399.48706 -70.837188 
L 396.583018 -71.299916 
L 393.678975 -71.780418 
L 390.774932 -72.279026 
L 387.87089 -72.79571 
L 384.966847 -73.33005 
L 382.062804 -73.881207 
L 379.158761 -74.447908 
L 376.254719 -75.028439 
L 373.350676 -75.620645 
L 370.446633 -76.22194 
L 367.542591 -76.829322 
L 364.638548 -77.439406 
L 361.734505 -78.048452 
L 358.830462 -78.652413 
L 355.92642 -79.246982 
L 353.022377 -79.827649 
L 350.118334 -80.389759 
L 347.214292 -80.928581 
L 344.310249 -81.439372 
L 341.406206 -81.917449 
L 338.502163 -82.358254 
L 335.598121 -82.757427 
L 332.694078 -83.110871 
L 329.790035 -83.414814 
L 326.885993 -83.665865 
L 323.98195 -83.86107 
L 321.077907 -83.997956 
L 318.173864 -84.074569 
L 315.269822 -84.089503 
L 312.365779 -84.041921 
L 309.461736 -83.931569 
L 306.557694 -83.758775 
L 303.653651 -83.524447 
L 300.749608 -83.230054 
L 297.845565 -82.877601 
L 294.941523 -82.469598 
L 292.03748 -82.00902 
L 289.133437 -81.499259 
L 286.229395 -80.944073 
L 283.325352 -80.347524 
L 280.421309 -79.713925 
L 277.517266 -79.047766 
L 274.613224 -78.353661 
L 271.709181 -77.63627 
L 268.805138 -76.900247 
L 265.901096 -76.150168 
L 262.997053 -75.39048 
L 260.09301 -74.62544 
L 257.188967 -73.859068 
L 254.284925 -73.095104 
L 251.380882 -72.336966 
L 248.476839 -71.587724 
L 245.572797 -70.850068 
L 242.668754 -70.1263 
L 239.764711 -69.418316 
L 236.860668 -68.727607 
L 233.956626 -68.055263 
L 231.052583 -67.401981 
L 228.14854 -66.768084 
L 225.244498 -66.153541 
L 222.340455 -65.557998 
L 219.436412 -64.9808 
L 216.532369 -64.421035 
L 213.628327 -63.877565 
L 210.724284 -63.349069 
L 207.820241 -62.834076 
L 204.916199 -62.331015 
L 202.012156 -61.838246 
L 199.108113 -61.354104 
L 196.20407 -60.876933 
L 193.300028 -60.405121 
L 190.395985 -59.937136 
L 187.491942 -59.471547 
L 184.5879 -59.007056 
L 181.683857 -58.542516 
L 178.779814 -58.076947 
L 175.875771 -57.609552 
L 172.971729 -57.139725 
L 170.067686 -56.667055 
L 167.163643 -56.191327 
L 164.259601 -55.712521 
L 161.355558 -55.230805 
L 158.451515 -54.746526 
L 155.547472 -54.260196 
z
" style="stroke: #f4987a"/>
    </defs>
    <g clip-path="url(#p5962cdd1d7)">
     <use xlink:href="#m53a4d6c6d0" x="0" y="212.255313" style="fill: #f4987a; fill-opacity: 0.5; stroke: #f4987a"/>
    </g>
   </g>
   <g id="matplotlib.axis_5">
    <g id="xtick_13">
     <g id="line2d_17">
      <g>
       <use xlink:href="#m2aa7b00576" x="155.547472" y="170.44" style="stroke: #000000; stroke-width: 0.8"/>
      </g>
     </g>
     <g id="text_3">
      <!-- 0 -->
      <g transform="translate(152.547472 185.7725) scale(0.12 -0.12)">
       <defs>
        <path id="TimesNewRomanPSMT-30" d="M 231 2094 
Q 231 2819 450 3342 
Q 669 3866 1031 4122 
Q 1313 4325 1613 4325 
Q 2100 4325 2488 3828 
Q 2972 3213 2972 2159 
Q 2972 1422 2759 906 
Q 2547 391 2217 158 
Q 1888 -75 1581 -75 
Q 975 -75 572 641 
Q 231 1244 231 2094 
z
M 844 2016 
Q 844 1141 1059 588 
Q 1238 122 1591 122 
Q 1759 122 1940 273 
Q 2122 425 2216 781 
Q 2359 1319 2359 2297 
Q 2359 3022 2209 3506 
Q 2097 3866 1919 4016 
Q 1791 4119 1609 4119 
Q 1397 4119 1231 3928 
Q 1006 3669 925 3112 
Q 844 2556 844 2016 
z
" transform="scale(0.015625)"/>
       </defs>
       <use xlink:href="#TimesNewRomanPSMT-30"/>
      </g>
     </g>
    </g>
    <g id="xtick_14">
     <g id="line2d_18">
      <g>
       <use xlink:href="#m2aa7b00576" x="271.128372" y="170.44" style="stroke: #000000; stroke-width: 0.8"/>
      </g>
     </g>
     <g id="text_4">
      <!-- 20 -->
      <g transform="translate(265.128372 185.7725) scale(0.12 -0.12)">
       <defs>
        <path id="TimesNewRomanPSMT-32" d="M 2934 816 
L 2638 0 
L 138 0 
L 138 116 
Q 1241 1122 1691 1759 
Q 2141 2397 2141 2925 
Q 2141 3328 1894 3587 
Q 1647 3847 1303 3847 
Q 991 3847 742 3664 
Q 494 3481 375 3128 
L 259 3128 
Q 338 3706 661 4015 
Q 984 4325 1469 4325 
Q 1984 4325 2329 3994 
Q 2675 3663 2675 3213 
Q 2675 2891 2525 2569 
Q 2294 2063 1775 1497 
Q 997 647 803 472 
L 1909 472 
Q 2247 472 2383 497 
Q 2519 522 2628 598 
Q 2738 675 2819 816 
L 2934 816 
z
" transform="scale(0.015625)"/>
       </defs>
       <use xlink:href="#TimesNewRomanPSMT-32"/>
       <use xlink:href="#TimesNewRomanPSMT-30" transform="translate(50 0)"/>
      </g>
     </g>
    </g>
    <g id="xtick_15">
     <g id="line2d_19">
      <g>
       <use xlink:href="#m2aa7b00576" x="386.709272" y="170.44" style="stroke: #000000; stroke-width: 0.8"/>
      </g>
     </g>
     <g id="text_5">
      <!-- 40 -->
      <g transform="translate(380.709272 185.7725) scale(0.12 -0.12)">
       <defs>
        <path id="TimesNewRomanPSMT-34" d="M 2978 1563 
L 2978 1119 
L 2409 1119 
L 2409 0 
L 1894 0 
L 1894 1119 
L 100 1119 
L 100 1519 
L 2066 4325 
L 2409 4325 
L 2409 1563 
L 2978 1563 
z
M 1894 1563 
L 1894 3666 
L 406 1563 
L 1894 1563 
z
" transform="scale(0.015625)"/>
       </defs>
       <use xlink:href="#TimesNewRomanPSMT-34"/>
       <use xlink:href="#TimesNewRomanPSMT-30" transform="translate(50 0)"/>
      </g>
     </g>
    </g>
    <g id="xtick_16">
     <g id="line2d_20">
      <g>
       <use xlink:href="#m2aa7b00576" x="502.290173" y="170.44" style="stroke: #000000; stroke-width: 0.8"/>
      </g>
     </g>
     <g id="text_6">
      <!-- 60 -->
      <g transform="translate(496.290173 185.7725) scale(0.12 -0.12)">
       <defs>
        <path id="TimesNewRomanPSMT-36" d="M 2869 4325 
L 2869 4209 
Q 2456 4169 2195 4045 
Q 1934 3922 1679 3669 
Q 1425 3416 1258 3105 
Q 1091 2794 978 2366 
Q 1428 2675 1881 2675 
Q 2316 2675 2634 2325 
Q 2953 1975 2953 1425 
Q 2953 894 2631 456 
Q 2244 -75 1606 -75 
Q 1172 -75 869 213 
Q 275 772 275 1663 
Q 275 2231 503 2743 
Q 731 3256 1154 3653 
Q 1578 4050 1965 4187 
Q 2353 4325 2688 4325 
L 2869 4325 
z
M 925 2138 
Q 869 1716 869 1456 
Q 869 1156 980 804 
Q 1091 453 1309 247 
Q 1469 100 1697 100 
Q 1969 100 2183 356 
Q 2397 613 2397 1088 
Q 2397 1622 2184 2012 
Q 1972 2403 1581 2403 
Q 1463 2403 1327 2353 
Q 1191 2303 925 2138 
z
" transform="scale(0.015625)"/>
       </defs>
       <use xlink:href="#TimesNewRomanPSMT-36"/>
       <use xlink:href="#TimesNewRomanPSMT-30" transform="translate(50 0)"/>
      </g>
     </g>
    </g>
    <g id="xtick_17">
     <g id="line2d_21">
      <g>
       <use xlink:href="#m2aa7b00576" x="617.871073" y="170.44" style="stroke: #000000; stroke-width: 0.8"/>
      </g>
     </g>
     <g id="text_7">
      <!-- 80 -->
      <g transform="translate(611.871073 185.7725) scale(0.12 -0.12)">
       <defs>
        <path id="TimesNewRomanPSMT-38" d="M 1228 2134 
Q 725 2547 579 2797 
Q 434 3047 434 3316 
Q 434 3728 753 4026 
Q 1072 4325 1600 4325 
Q 2113 4325 2425 4047 
Q 2738 3769 2738 3413 
Q 2738 3175 2569 2928 
Q 2400 2681 1866 2347 
Q 2416 1922 2594 1678 
Q 2831 1359 2831 1006 
Q 2831 559 2490 242 
Q 2150 -75 1597 -75 
Q 994 -75 656 303 
Q 388 606 388 966 
Q 388 1247 577 1523 
Q 766 1800 1228 2134 
z
M 1719 2469 
Q 2094 2806 2194 3001 
Q 2294 3197 2294 3444 
Q 2294 3772 2109 3958 
Q 1925 4144 1606 4144 
Q 1288 4144 1088 3959 
Q 888 3775 888 3528 
Q 888 3366 970 3203 
Q 1053 3041 1206 2894 
L 1719 2469 
z
M 1375 2016 
Q 1116 1797 991 1539 
Q 866 1281 866 981 
Q 866 578 1086 336 
Q 1306 94 1647 94 
Q 1984 94 2187 284 
Q 2391 475 2391 747 
Q 2391 972 2272 1150 
Q 2050 1481 1375 2016 
z
" transform="scale(0.015625)"/>
       </defs>
       <use xlink:href="#TimesNewRomanPSMT-38"/>
       <use xlink:href="#TimesNewRomanPSMT-30" transform="translate(50 0)"/>
      </g>
     </g>
    </g>
    <g id="xtick_18">
     <g id="line2d_22">
      <g>
       <use xlink:href="#m2aa7b00576" x="733.451973" y="170.44" style="stroke: #000000; stroke-width: 0.8"/>
      </g>
     </g>
     <g id="text_8">
      <!-- 100 -->
      <g transform="translate(724.451973 185.7725) scale(0.12 -0.12)">
       <defs>
        <path id="TimesNewRomanPSMT-31" d="M 750 3822 
L 1781 4325 
L 1884 4325 
L 1884 747 
Q 1884 391 1914 303 
Q 1944 216 2037 169 
Q 2131 122 2419 116 
L 2419 0 
L 825 0 
L 825 116 
Q 1125 122 1212 167 
Q 1300 213 1334 289 
Q 1369 366 1369 747 
L 1369 3034 
Q 1369 3497 1338 3628 
Q 1316 3728 1258 3775 
Q 1200 3822 1119 3822 
Q 1003 3822 797 3725 
L 750 3822 
z
" transform="scale(0.015625)"/>
       </defs>
       <use xlink:href="#TimesNewRomanPSMT-31"/>
       <use xlink:href="#TimesNewRomanPSMT-30" transform="translate(50 0)"/>
       <use xlink:href="#TimesNewRomanPSMT-30" transform="translate(100 0)"/>
      </g>
     </g>
    </g>
    <g id="text_9">
     <!-- Value -->
     <g transform="translate(428.563785 202.060625) scale(0.14 -0.14)">
      <defs>
       <path id="TimesNewRomanPSMT-56" d="M 4544 4238 
L 4544 4122 
Q 4319 4081 4203 3978 
Q 4038 3825 3909 3509 
L 2431 -97 
L 2316 -97 
L 728 3556 
Q 606 3838 556 3900 
Q 478 3997 364 4051 
Q 250 4106 56 4122 
L 56 4238 
L 1788 4238 
L 1788 4122 
Q 1494 4094 1406 4022 
Q 1319 3950 1319 3838 
Q 1319 3681 1463 3350 
L 2541 866 
L 3541 3319 
Q 3688 3681 3688 3822 
Q 3688 3913 3597 3995 
Q 3506 4078 3291 4113 
Q 3275 4116 3238 4122 
L 3238 4238 
L 4544 4238 
z
" transform="scale(0.015625)"/>
      </defs>
      <use xlink:href="#TimesNewRomanPSMT-56"/>
      <use xlink:href="#TimesNewRomanPSMT-61" transform="translate(61.091797 0)"/>
      <use xlink:href="#TimesNewRomanPSMT-6c" transform="translate(105.476562 0)"/>
      <use xlink:href="#TimesNewRomanPSMT-75" transform="translate(133.259766 0)"/>
      <use xlink:href="#TimesNewRomanPSMT-65" transform="translate(183.259766 0)"/>
     </g>
    </g>
   </g>
   <g id="matplotlib.axis_6"/>
   <g id="line2d_23">
    <path d="M 155.547472 157.995117 
L 181.683857 153.712796 
L 207.820241 149.421236 
L 219.436412 147.274513 
L 231.052583 144.853332 
L 242.668754 142.129012 
L 257.188967 138.396245 
L 274.613224 133.901652 
L 283.325352 131.907788 
L 289.133437 130.756053 
L 294.941523 129.785715 
L 300.749608 129.025258 
L 306.557694 128.496537 
L 312.365779 128.213392 
L 318.173864 128.180743 
L 323.98195 128.394243 
L 329.790035 128.840499 
L 335.598121 129.497885 
L 341.406206 130.337864 
L 350.118334 131.865554 
L 361.734505 134.206861 
L 382.062804 138.374106 
L 393.678975 140.474895 
L 405.295146 142.293158 
L 416.911317 143.874648 
L 434.335573 145.99863 
L 460.471957 148.954446 
L 472.088128 150.060048 
L 480.800256 150.692704 
L 489.512385 151.088043 
L 498.224513 151.197736 
L 506.936641 150.997466 
L 515.648769 150.493947 
L 524.360897 149.727155 
L 535.977068 148.4203 
L 556.305367 146.006534 
L 565.017495 145.188653 
L 573.729623 144.622345 
L 582.441751 144.357817 
L 591.15388 144.413644 
L 599.866008 144.77711 
L 608.578136 145.408545 
L 617.290264 146.248806 
L 631.810478 147.924792 
L 657.946862 151.008216 
L 675.371118 152.775479 
L 713.123674 156.413002 
L 727.643887 158.10263 
L 733.451973 158.841869 
L 733.451973 158.841869 
" clip-path="url(#p5962cdd1d7)" style="fill: none; stroke: #ffffff; stroke-width: 2; stroke-linecap: square"/>
   </g>
   <g id="line2d_24">
    <path d="M 155.547472 170.44 
L 733.451973 170.44 
" style="fill: none; stroke: #000000; stroke-linecap: square"/>
   </g>
   <g id="text_10">
    <g id="patch_7">
     <path d="M 17.248125 179.849687 
L 98.8275 179.849687 
L 98.8275 161.030312 
L 17.248125 161.030312 
z
" style="fill: #ffffff; opacity: 0.5"/>
    </g>
    <!-- Return Policies -->
    <g transform="translate(21.208125 173.322812) scale(0.12 -0.12)">
     <defs>
      <path id="TimesNewRomanPSMT-52" d="M 4325 0 
L 3194 0 
L 1759 1981 
Q 1600 1975 1500 1975 
Q 1459 1975 1412 1976 
Q 1366 1978 1316 1981 
L 1316 750 
Q 1316 350 1403 253 
Q 1522 116 1759 116 
L 1925 116 
L 1925 0 
L 109 0 
L 109 116 
L 269 116 
Q 538 116 653 291 
Q 719 388 719 750 
L 719 3488 
Q 719 3888 631 3984 
Q 509 4122 269 4122 
L 109 4122 
L 109 4238 
L 1653 4238 
Q 2328 4238 2648 4139 
Q 2969 4041 3192 3777 
Q 3416 3513 3416 3147 
Q 3416 2756 3161 2468 
Q 2906 2181 2372 2063 
L 3247 847 
Q 3547 428 3762 290 
Q 3978 153 4325 116 
L 4325 0 
z
M 1316 2178 
Q 1375 2178 1419 2176 
Q 1463 2175 1491 2175 
Q 2097 2175 2405 2437 
Q 2713 2700 2713 3106 
Q 2713 3503 2464 3751 
Q 2216 4000 1806 4000 
Q 1625 4000 1316 3941 
L 1316 2178 
z
" transform="scale(0.015625)"/>
      <path id="TimesNewRomanPSMT-6e" d="M 1034 2341 
Q 1538 2947 1994 2947 
Q 2228 2947 2397 2830 
Q 2566 2713 2666 2444 
Q 2734 2256 2734 1869 
L 2734 647 
Q 2734 375 2778 278 
Q 2813 200 2889 156 
Q 2966 113 3172 113 
L 3172 0 
L 1756 0 
L 1756 113 
L 1816 113 
Q 2016 113 2095 173 
Q 2175 234 2206 353 
Q 2219 400 2219 647 
L 2219 1819 
Q 2219 2209 2117 2386 
Q 2016 2563 1775 2563 
Q 1403 2563 1034 2156 
L 1034 647 
Q 1034 356 1069 288 
Q 1113 197 1189 155 
Q 1266 113 1500 113 
L 1500 0 
L 84 0 
L 84 113 
L 147 113 
Q 366 113 442 223 
Q 519 334 519 647 
L 519 1709 
Q 519 2225 495 2337 
Q 472 2450 423 2490 
Q 375 2531 294 2531 
Q 206 2531 84 2484 
L 38 2597 
L 900 2947 
L 1034 2947 
L 1034 2341 
z
" transform="scale(0.015625)"/>
      <path id="TimesNewRomanPSMT-69" d="M 928 4444 
Q 1059 4444 1151 4351 
Q 1244 4259 1244 4128 
Q 1244 3997 1151 3903 
Q 1059 3809 928 3809 
Q 797 3809 703 3903 
Q 609 3997 609 4128 
Q 609 4259 701 4351 
Q 794 4444 928 4444 
z
M 1188 2947 
L 1188 647 
Q 1188 378 1227 289 
Q 1266 200 1342 156 
Q 1419 113 1622 113 
L 1622 0 
L 231 0 
L 231 113 
Q 441 113 512 153 
Q 584 194 626 287 
Q 669 381 669 647 
L 669 1750 
Q 669 2216 641 2353 
Q 619 2453 572 2492 
Q 525 2531 444 2531 
Q 356 2531 231 2484 
L 188 2597 
L 1050 2947 
L 1188 2947 
z
" transform="scale(0.015625)"/>
      <path id="TimesNewRomanPSMT-63" d="M 2631 1088 
Q 2516 522 2178 217 
Q 1841 -88 1431 -88 
Q 944 -88 581 321 
Q 219 731 219 1428 
Q 219 2103 620 2525 
Q 1022 2947 1584 2947 
Q 2006 2947 2278 2723 
Q 2550 2500 2550 2259 
Q 2550 2141 2473 2067 
Q 2397 1994 2259 1994 
Q 2075 1994 1981 2113 
Q 1928 2178 1911 2362 
Q 1894 2547 1784 2644 
Q 1675 2738 1481 2738 
Q 1169 2738 978 2506 
Q 725 2200 725 1697 
Q 725 1184 976 792 
Q 1228 400 1656 400 
Q 1963 400 2206 609 
Q 2378 753 2541 1131 
L 2631 1088 
z
" transform="scale(0.015625)"/>
     </defs>
     <use xlink:href="#TimesNewRomanPSMT-52"/>
     <use xlink:href="#TimesNewRomanPSMT-65" transform="translate(66.699219 0)"/>
     <use xlink:href="#TimesNewRomanPSMT-74" transform="translate(111.083984 0)"/>
     <use xlink:href="#TimesNewRomanPSMT-75" transform="translate(138.867188 0)"/>
     <use xlink:href="#TimesNewRomanPSMT-72" transform="translate(188.867188 0)"/>
     <use xlink:href="#TimesNewRomanPSMT-6e" transform="translate(222.167969 0)"/>
     <use xlink:href="#TimesNewRomanPSMT-20" transform="translate(272.167969 0)"/>
     <use xlink:href="#TimesNewRomanPSMT-50" transform="translate(297.167969 0)"/>
     <use xlink:href="#TimesNewRomanPSMT-6f" transform="translate(352.783203 0)"/>
     <use xlink:href="#TimesNewRomanPSMT-6c" transform="translate(402.783203 0)"/>
     <use xlink:href="#TimesNewRomanPSMT-69" transform="translate(430.566406 0)"/>
     <use xlink:href="#TimesNewRomanPSMT-63" transform="translate(458.349609 0)"/>
     <use xlink:href="#TimesNewRomanPSMT-69" transform="translate(502.734375 0)"/>
     <use xlink:href="#TimesNewRomanPSMT-65" transform="translate(530.517578 0)"/>
     <use xlink:href="#TimesNewRomanPSMT-73" transform="translate(574.902344 0)"/>
    </g>
   </g>
  </g>
  <g id="text_11">
   <!-- Customer Satisfaction(%) -->
   <g transform="translate(301.380722 18.31) scale(0.16 -0.16)">
    <defs>
     <path id="TimesNewRomanPSMT-66" d="M 1319 2638 
L 1319 756 
Q 1319 356 1406 250 
Q 1522 113 1716 113 
L 1975 113 
L 1975 0 
L 266 0 
L 266 113 
L 394 113 
Q 519 113 622 175 
Q 725 238 764 344 
Q 803 450 803 756 
L 803 2638 
L 247 2638 
L 247 2863 
L 803 2863 
L 803 3050 
Q 803 3478 940 3775 
Q 1078 4072 1361 4255 
Q 1644 4438 1997 4438 
Q 2325 4438 2600 4225 
Q 2781 4084 2781 3909 
Q 2781 3816 2700 3733 
Q 2619 3650 2525 3650 
Q 2453 3650 2373 3701 
Q 2294 3753 2178 3923 
Q 2063 4094 1966 4153 
Q 1869 4213 1750 4213 
Q 1606 4213 1506 4136 
Q 1406 4059 1362 3898 
Q 1319 3738 1319 3069 
L 1319 2863 
L 2056 2863 
L 2056 2638 
L 1319 2638 
z
" transform="scale(0.015625)"/>
     <path id="TimesNewRomanPSMT-28" d="M 1988 -1253 
L 1988 -1369 
Q 1516 -1131 1200 -813 
Q 750 -359 506 256 
Q 263 872 263 1534 
Q 263 2503 741 3301 
Q 1219 4100 1988 4444 
L 1988 4313 
Q 1603 4100 1356 3731 
Q 1109 3363 987 2797 
Q 866 2231 866 1616 
Q 866 947 969 400 
Q 1050 -31 1165 -292 
Q 1281 -553 1476 -793 
Q 1672 -1034 1988 -1253 
z
" transform="scale(0.015625)"/>
     <path id="TimesNewRomanPSMT-25" d="M 4350 4334 
L 1263 -175 
L 984 -175 
L 4072 4334 
L 4350 4334 
z
M 1138 4334 
Q 1559 4334 1792 3984 
Q 2025 3634 2025 3181 
Q 2025 2638 1762 2341 
Q 1500 2044 1131 2044 
Q 884 2044 678 2180 
Q 472 2316 348 2584 
Q 225 2853 225 3181 
Q 225 3509 350 3786 
Q 475 4063 692 4198 
Q 909 4334 1138 4334 
z
M 1128 4159 
Q 969 4159 845 3971 
Q 722 3784 722 3184 
Q 722 2750 791 2522 
Q 844 2350 956 2256 
Q 1022 2200 1119 2200 
Q 1269 2200 1375 2363 
Q 1531 2603 1531 3166 
Q 1531 3759 1378 4000 
Q 1278 4159 1128 4159 
z
M 4206 2103 
Q 4428 2103 4648 1962 
Q 4869 1822 4989 1553 
Q 5109 1284 5109 963 
Q 5109 409 4843 117 
Q 4578 -175 4216 -175 
Q 3988 -175 3773 -34 
Q 3559 106 3436 367 
Q 3313 628 3313 963 
Q 3313 1291 3436 1562 
Q 3559 1834 3773 1968 
Q 3988 2103 4206 2103 
z
M 4209 1938 
Q 4059 1938 3950 1769 
Q 3809 1550 3809 941 
Q 3809 381 3953 159 
Q 4059 0 4209 0 
Q 4353 0 4466 172 
Q 4616 400 4616 956 
Q 4616 1544 4466 1778 
Q 4363 1938 4209 1938 
z
" transform="scale(0.015625)"/>
     <path id="TimesNewRomanPSMT-29" d="M 144 4313 
L 144 4444 
Q 619 4209 934 3891 
Q 1381 3434 1625 2820 
Q 1869 2206 1869 1541 
Q 1869 572 1392 -226 
Q 916 -1025 144 -1369 
L 144 -1253 
Q 528 -1038 776 -670 
Q 1025 -303 1145 264 
Q 1266 831 1266 1447 
Q 1266 2113 1163 2663 
Q 1084 3094 967 3353 
Q 850 3613 656 3853 
Q 463 4094 144 4313 
z
" transform="scale(0.015625)"/>
    </defs>
    <use xlink:href="#TimesNewRomanPSMT-43"/>
    <use xlink:href="#TimesNewRomanPSMT-75" transform="translate(66.699219 0)"/>
    <use xlink:href="#TimesNewRomanPSMT-73" transform="translate(116.699219 0)"/>
    <use xlink:href="#TimesNewRomanPSMT-74" transform="translate(155.615234 0)"/>
    <use xlink:href="#TimesNewRomanPSMT-6f" transform="translate(183.398438 0)"/>
    <use xlink:href="#TimesNewRomanPSMT-6d" transform="translate(233.398438 0)"/>
    <use xlink:href="#TimesNewRomanPSMT-65" transform="translate(311.181641 0)"/>
    <use xlink:href="#TimesNewRomanPSMT-72" transform="translate(355.566406 0)"/>
    <use xlink:href="#TimesNewRomanPSMT-20" transform="translate(388.867188 0)"/>
    <use xlink:href="#TimesNewRomanPSMT-53" transform="translate(413.867188 0)"/>
    <use xlink:href="#TimesNewRomanPSMT-61" transform="translate(469.482422 0)"/>
    <use xlink:href="#TimesNewRomanPSMT-74" transform="translate(513.867188 0)"/>
    <use xlink:href="#TimesNewRomanPSMT-69" transform="translate(541.650391 0)"/>
    <use xlink:href="#TimesNewRomanPSMT-73" transform="translate(569.433594 0)"/>
    <use xlink:href="#TimesNewRomanPSMT-66" transform="translate(608.349609 0)"/>
    <use xlink:href="#TimesNewRomanPSMT-61" transform="translate(641.650391 0)"/>
    <use xlink:href="#TimesNewRomanPSMT-63" transform="translate(686.035156 0)"/>
    <use xlink:href="#TimesNewRomanPSMT-74" transform="translate(730.419922 0)"/>
    <use xlink:href="#TimesNewRomanPSMT-69" transform="translate(758.203125 0)"/>
    <use xlink:href="#TimesNewRomanPSMT-6f" transform="translate(785.986328 0)"/>
    <use xlink:href="#TimesNewRomanPSMT-6e" transform="translate(835.986328 0)"/>
    <use xlink:href="#TimesNewRomanPSMT-28" transform="translate(885.986328 0)"/>
    <use xlink:href="#TimesNewRomanPSMT-25" transform="translate(919.287109 0)"/>
    <use xlink:href="#TimesNewRomanPSMT-29" transform="translate(1002.587891 0)"/>
   </g>
  </g>
 </g>
 <defs>
  <clipPath id="p46d7197f6f">
   <rect x="155.547472" y="21.12" width="577.9045" height="74.66"/>
  </clipPath>
  <clipPath id="p15ecd5bbf6">
   <rect x="155.547472" y="58.45" width="577.9045" height="74.66"/>
  </clipPath>
  <clipPath id="p5962cdd1d7">
   <rect x="155.547472" y="95.78" width="577.9045" height="74.66"/>
  </clipPath>
 </defs>
</svg>
