<?xml version="1.0" encoding="utf-8" standalone="no"?>
<!DOCTYPE svg PUBLIC "-//W3C//DTD SVG 1.1//EN"
  "http://www.w3.org/Graphics/SVG/1.1/DTD/svg11.dtd">
<svg xmlns:xlink="http://www.w3.org/1999/xlink" width="756.259405pt" height="212.255313pt" viewBox="0 0 756.259405 212.255313" xmlns="http://www.w3.org/2000/svg" version="1.1">
 <metadata>
  <rdf:RDF xmlns:dc="http://purl.org/dc/elements/1.1/" xmlns:cc="http://creativecommons.org/ns#" xmlns:rdf="http://www.w3.org/1999/02/22-rdf-syntax-ns#">
   <cc:Work>
    <dc:type rdf:resource="http://purl.org/dc/dcmitype/StillImage"/>
    <dc:date>2025-05-27T00:28:44.863062</dc:date>
    <dc:format>image/svg+xml</dc:format>
    <dc:creator>
     <cc:Agent>
      <dc:title>Matplotlib v3.10.1, https://matplotlib.org/</dc:title>
     </cc:Agent>
    </dc:creator>
   </cc:Work>
  </rdf:RDF>
 </metadata>
 <defs>
  <style type="text/css">*{stroke-linejoin: round; stroke-linecap: butt}</style>
 </defs>
 <g id="figure_1">
  <g id="patch_1">
   <path d="M 0 212.255313 
L 756.259405 212.255313 
L 756.259405 0 
L 0 0 
z
" style="fill: #ffffff"/>
  </g>
  <g id="axes_1">
   <g id="patch_2">
    <path d="M 141.723405 95.78 
L 734.059405 95.78 
L 734.059405 21.12 
L 141.723405 21.12 
L 141.723405 95.78 
z
" style="fill: none; opacity: 0"/>
   </g>
   <g id="FillBetweenPolyCollection_1">
    <defs>
     <path id="m746aca1130" d="M 141.723405 -165.371981 
L 141.723405 -116.475313 
L 144.699968 -116.475313 
L 147.676531 -116.475313 
L 150.653093 -116.475313 
L 153.629656 -116.475313 
L 156.606219 -116.475313 
L 159.582782 -116.475313 
L 162.559345 -116.475313 
L 165.535908 -116.475313 
L 168.51247 -116.475313 
L 171.489033 -116.475313 
L 174.465596 -116.475313 
L 177.442159 -116.475313 
L 180.418722 -116.475313 
L 183.395284 -116.475313 
L 186.371847 -116.475313 
L 189.34841 -116.475313 
L 192.324973 -116.475313 
L 195.301536 -116.475313 
L 198.278098 -116.475313 
L 201.254661 -116.475313 
L 204.231224 -116.475313 
L 207.207787 -116.475313 
L 210.18435 -116.475313 
L 213.160913 -116.475313 
L 216.137475 -116.475313 
L 219.114038 -116.475313 
L 222.090601 -116.475313 
L 225.067164 -116.475313 
L 228.043727 -116.475313 
L 231.020289 -116.475313 
L 233.996852 -116.475313 
L 236.973415 -116.475313 
L 239.949978 -116.475313 
L 242.926541 -116.475313 
L 245.903103 -116.475313 
L 248.879666 -116.475313 
L 251.856229 -116.475313 
L 254.832792 -116.475313 
L 257.809355 -116.475313 
L 260.785918 -116.475313 
L 263.76248 -116.475313 
L 266.739043 -116.475313 
L 269.715606 -116.475313 
L 272.692169 -116.475313 
L 275.668732 -116.475313 
L 278.645294 -116.475313 
L 281.621857 -116.475313 
L 284.59842 -116.475313 
L 287.574983 -116.475313 
L 290.551546 -116.475313 
L 293.528109 -116.475313 
L 296.504671 -116.475313 
L 299.481234 -116.475313 
L 302.457797 -116.475313 
L 305.43436 -116.475313 
L 308.410923 -116.475313 
L 311.387485 -116.475313 
L 314.364048 -116.475313 
L 317.340611 -116.475313 
L 320.317174 -116.475313 
L 323.293737 -116.475313 
L 326.270299 -116.475313 
L 329.246862 -116.475313 
L 332.223425 -116.475313 
L 335.199988 -116.475313 
L 338.176551 -116.475313 
L 341.153114 -116.475313 
L 344.129676 -116.475313 
L 347.106239 -116.475313 
L 350.082802 -116.475313 
L 353.059365 -116.475313 
L 356.035928 -116.475313 
L 359.01249 -116.475313 
L 361.989053 -116.475313 
L 364.965616 -116.475313 
L 367.942179 -116.475313 
L 370.918742 -116.475313 
L 373.895304 -116.475313 
L 376.871867 -116.475313 
L 379.84843 -116.475313 
L 382.824993 -116.475313 
L 385.801556 -116.475313 
L 388.778119 -116.475313 
L 391.754681 -116.475313 
L 394.731244 -116.475313 
L 397.707807 -116.475313 
L 400.68437 -116.475313 
L 403.660933 -116.475313 
L 406.637495 -116.475313 
L 409.614058 -116.475313 
L 412.590621 -116.475313 
L 415.567184 -116.475313 
L 418.543747 -116.475313 
L 421.52031 -116.475313 
L 424.496872 -116.475313 
L 427.473435 -116.475313 
L 430.449998 -116.475313 
L 433.426561 -116.475313 
L 436.403124 -116.475313 
L 439.379686 -116.475313 
L 442.356249 -116.475313 
L 445.332812 -116.475313 
L 448.309375 -116.475313 
L 451.285938 -116.475313 
L 454.2625 -116.475313 
L 457.239063 -116.475313 
L 460.215626 -116.475313 
L 463.192189 -116.475313 
L 466.168752 -116.475313 
L 469.145315 -116.475313 
L 472.121877 -116.475313 
L 475.09844 -116.475313 
L 478.075003 -116.475313 
L 481.051566 -116.475313 
L 484.028129 -116.475313 
L 487.004691 -116.475313 
L 489.981254 -116.475313 
L 492.957817 -116.475313 
L 495.93438 -116.475313 
L 498.910943 -116.475313 
L 501.887506 -116.475313 
L 504.864068 -116.475313 
L 507.840631 -116.475313 
L 510.817194 -116.475313 
L 513.793757 -116.475313 
L 516.77032 -116.475313 
L 519.746882 -116.475313 
L 522.723445 -116.475313 
L 525.700008 -116.475313 
L 528.676571 -116.475313 
L 531.653134 -116.475313 
L 534.629696 -116.475313 
L 537.606259 -116.475313 
L 540.582822 -116.475313 
L 543.559385 -116.475313 
L 546.535948 -116.475313 
L 549.512511 -116.475313 
L 552.489073 -116.475313 
L 555.465636 -116.475313 
L 558.442199 -116.475313 
L 561.418762 -116.475313 
L 564.395325 -116.475313 
L 567.371887 -116.475313 
L 570.34845 -116.475313 
L 573.325013 -116.475313 
L 576.301576 -116.475313 
L 579.278139 -116.475313 
L 582.254701 -116.475313 
L 585.231264 -116.475313 
L 588.207827 -116.475313 
L 591.18439 -116.475313 
L 594.160953 -116.475313 
L 597.137516 -116.475313 
L 600.114078 -116.475313 
L 603.090641 -116.475313 
L 606.067204 -116.475313 
L 609.043767 -116.475313 
L 612.02033 -116.475313 
L 614.996892 -116.475313 
L 617.973455 -116.475313 
L 620.950018 -116.475313 
L 623.926581 -116.475313 
L 626.903144 -116.475313 
L 629.879707 -116.475313 
L 632.856269 -116.475313 
L 635.832832 -116.475313 
L 638.809395 -116.475313 
L 641.785958 -116.475313 
L 644.762521 -116.475313 
L 647.739083 -116.475313 
L 650.715646 -116.475313 
L 653.692209 -116.475313 
L 656.668772 -116.475313 
L 659.645335 -116.475313 
L 662.621897 -116.475313 
L 665.59846 -116.475313 
L 668.575023 -116.475313 
L 671.551586 -116.475313 
L 674.528149 -116.475313 
L 677.504712 -116.475313 
L 680.481274 -116.475313 
L 683.457837 -116.475313 
L 686.4344 -116.475313 
L 689.410963 -116.475313 
L 692.387526 -116.475313 
L 695.364088 -116.475313 
L 698.340651 -116.475313 
L 701.317214 -116.475313 
L 704.293777 -116.475313 
L 707.27034 -116.475313 
L 710.246902 -116.475313 
L 713.223465 -116.475313 
L 716.200028 -116.475313 
L 719.176591 -116.475313 
L 722.153154 -116.475313 
L 725.129717 -116.475313 
L 728.106279 -116.475313 
L 731.082842 -116.475313 
L 734.059405 -116.475313 
L 734.059405 -124.807729 
L 734.059405 -124.807729 
L 731.082842 -125.016028 
L 728.106279 -125.213137 
L 725.129717 -125.398485 
L 722.153154 -125.571604 
L 719.176591 -125.732138 
L 716.200028 -125.879837 
L 713.223465 -126.014568 
L 710.246902 -126.136307 
L 707.27034 -126.24514 
L 704.293777 -126.341256 
L 701.317214 -126.424947 
L 698.340651 -126.496596 
L 695.364088 -126.556672 
L 692.387526 -126.60572 
L 689.410963 -126.644349 
L 686.4344 -126.673224 
L 683.457837 -126.693055 
L 680.481274 -126.70458 
L 677.504712 -126.708559 
L 674.528149 -126.705762 
L 671.551586 -126.696953 
L 668.575023 -126.682886 
L 665.59846 -126.664288 
L 662.621897 -126.641858 
L 659.645335 -126.616252 
L 656.668772 -126.588081 
L 653.692209 -126.557904 
L 650.715646 -126.526224 
L 647.739083 -126.493487 
L 644.762521 -126.460077 
L 641.785958 -126.426321 
L 638.809395 -126.392486 
L 635.832832 -126.358785 
L 632.856269 -126.325378 
L 629.879707 -126.292377 
L 626.903144 -126.259851 
L 623.926581 -126.227834 
L 620.950018 -126.196325 
L 617.973455 -126.165302 
L 614.996892 -126.134721 
L 612.02033 -126.104526 
L 609.043767 -126.074656 
L 606.067204 -126.045046 
L 603.090641 -126.015635 
L 600.114078 -125.986367 
L 597.137516 -125.957201 
L 594.160953 -125.928104 
L 591.18439 -125.899061 
L 588.207827 -125.870072 
L 585.231264 -125.841154 
L 582.254701 -125.812338 
L 579.278139 -125.783671 
L 576.301576 -125.755212 
L 573.325013 -125.727033 
L 570.34845 -125.699213 
L 567.371887 -125.671835 
L 564.395325 -125.644989 
L 561.418762 -125.618762 
L 558.442199 -125.593238 
L 555.465636 -125.568499 
L 552.489073 -125.544616 
L 549.512511 -125.521652 
L 546.535948 -125.49966 
L 543.559385 -125.478678 
L 540.582822 -125.458735 
L 537.606259 -125.439846 
L 534.629696 -125.422013 
L 531.653134 -125.405228 
L 528.676571 -125.389474 
L 525.700008 -125.374724 
L 522.723445 -125.360948 
L 519.746882 -125.348111 
L 516.77032 -125.33618 
L 513.793757 -125.325122 
L 510.817194 -125.314912 
L 507.840631 -125.305532 
L 504.864068 -125.296977 
L 501.887506 -125.289256 
L 498.910943 -125.282394 
L 495.93438 -125.276436 
L 492.957817 -125.271448 
L 489.981254 -125.267521 
L 487.004691 -125.264768 
L 484.028129 -125.263326 
L 481.051566 -125.263361 
L 478.075003 -125.265063 
L 475.09844 -125.268645 
L 472.121877 -125.274347 
L 469.145315 -125.282432 
L 466.168752 -125.293181 
L 463.192189 -125.306898 
L 460.215626 -125.323901 
L 457.239063 -125.344524 
L 454.2625 -125.369112 
L 451.285938 -125.398016 
L 448.309375 -125.431594 
L 445.332812 -125.470204 
L 442.356249 -125.514204 
L 439.379686 -125.563943 
L 436.403124 -125.619766 
L 433.426561 -125.682001 
L 430.449998 -125.750966 
L 427.473435 -125.826957 
L 424.496872 -125.910255 
L 421.52031 -126.001118 
L 418.543747 -126.099782 
L 415.567184 -126.20646 
L 412.590621 -126.321345 
L 409.614058 -126.444608 
L 406.637495 -126.576404 
L 403.660933 -126.716871 
L 400.68437 -126.866137 
L 397.707807 -127.024326 
L 394.731244 -127.191565 
L 391.754681 -127.367987 
L 388.778119 -127.553748 
L 385.801556 -127.749029 
L 382.824993 -127.954052 
L 379.84843 -128.169092 
L 376.871867 -128.394485 
L 373.895304 -128.630647 
L 370.918742 -128.878081 
L 367.942179 -129.137396 
L 364.965616 -129.409317 
L 361.989053 -129.694699 
L 359.01249 -129.994537 
L 356.035928 -130.309976 
L 353.059365 -130.642323 
L 350.082802 -130.993048 
L 347.106239 -131.363793 
L 344.129676 -131.756369 
L 341.153114 -132.172755 
L 338.176551 -132.615095 
L 335.199988 -133.085681 
L 332.223425 -133.586948 
L 329.246862 -134.121448 
L 326.270299 -134.691833 
L 323.293737 -135.300821 
L 320.317174 -135.951171 
L 317.340611 -136.645641 
L 314.364048 -137.386951 
L 311.387485 -138.177736 
L 308.410923 -139.020499 
L 305.43436 -139.91756 
L 302.457797 -140.871003 
L 299.481234 -141.882618 
L 296.504671 -142.95385 
L 293.528109 -144.085738 
L 290.551546 -145.278861 
L 287.574983 -146.533288 
L 284.59842 -147.848523 
L 281.621857 -149.223459 
L 278.645294 -150.65634 
L 275.668732 -152.144722 
L 272.692169 -153.685444 
L 269.715606 -155.274609 
L 266.739043 -156.907571 
L 263.76248 -158.578933 
L 260.785918 -160.282552 
L 257.809355 -162.011562 
L 254.832792 -163.758397 
L 251.856229 -165.514834 
L 248.879666 -167.272045 
L 245.903103 -169.020657 
L 242.926541 -170.750824 
L 239.949978 -172.45231 
L 236.973415 -174.114581 
L 233.996852 -175.7269 
L 231.020289 -177.278436 
L 228.043727 -178.758374 
L 225.067164 -180.15603 
L 222.090601 -181.460966 
L 219.114038 -182.663112 
L 216.137475 -183.752879 
L 213.160913 -184.721273 
L 210.18435 -185.560006 
L 207.207787 -186.261595 
L 204.231224 -186.819459 
L 201.254661 -187.228 
L 198.278098 -187.482679 
L 195.301536 -187.580074 
L 192.324973 -187.51793 
L 189.34841 -187.295187 
L 186.371847 -186.912 
L 183.395284 -186.369743 
L 180.418722 -185.670993 
L 177.442159 -184.819501 
L 174.465596 -183.820153 
L 171.489033 -182.67891 
L 168.51247 -181.402737 
L 165.535908 -179.999525 
L 162.559345 -178.477994 
L 159.582782 -176.847596 
L 156.606219 -175.118404 
L 153.629656 -173.300997 
L 150.653093 -171.406347 
L 147.676531 -169.445694 
L 144.699968 -167.43043 
L 141.723405 -165.371981 
z
" style="stroke: #1f77b4"/>
    </defs>
    <g clip-path="url(#p7a631b6ab0)">
     <use xlink:href="#m746aca1130" x="0" y="212.255313" style="fill: #1f77b4; fill-opacity: 0.5; stroke: #1f77b4"/>
    </g>
   </g>
   <g id="matplotlib.axis_1">
    <g id="xtick_1">
     <g id="line2d_1">
      <defs>
       <path id="meb8665ffa6" d="M 0 0 
L 0 3.5 
" style="stroke: #000000; stroke-width: 0.8"/>
      </defs>
      <g>
       <use xlink:href="#meb8665ffa6" x="141.723405" y="95.78" style="stroke: #000000; stroke-width: 0.8"/>
      </g>
     </g>
    </g>
    <g id="xtick_2">
     <g id="line2d_2">
      <g>
       <use xlink:href="#meb8665ffa6" x="260.190605" y="95.78" style="stroke: #000000; stroke-width: 0.8"/>
      </g>
     </g>
    </g>
    <g id="xtick_3">
     <g id="line2d_3">
      <g>
       <use xlink:href="#meb8665ffa6" x="378.657805" y="95.78" style="stroke: #000000; stroke-width: 0.8"/>
      </g>
     </g>
    </g>
    <g id="xtick_4">
     <g id="line2d_4">
      <g>
       <use xlink:href="#meb8665ffa6" x="497.125005" y="95.78" style="stroke: #000000; stroke-width: 0.8"/>
      </g>
     </g>
    </g>
    <g id="xtick_5">
     <g id="line2d_5">
      <g>
       <use xlink:href="#meb8665ffa6" x="615.592205" y="95.78" style="stroke: #000000; stroke-width: 0.8"/>
      </g>
     </g>
    </g>
    <g id="xtick_6">
     <g id="line2d_6">
      <g>
       <use xlink:href="#meb8665ffa6" x="734.059405" y="95.78" style="stroke: #000000; stroke-width: 0.8"/>
      </g>
     </g>
    </g>
   </g>
   <g id="matplotlib.axis_2"/>
   <g id="line2d_7">
    <path d="M 141.723405 46.883332 
L 147.676531 42.809618 
L 153.629656 38.954315 
L 159.582782 35.407716 
L 165.535908 32.255787 
L 168.51247 30.852575 
L 171.489033 29.576402 
L 174.465596 28.435159 
L 177.442159 27.435811 
L 180.418722 26.58432 
L 183.395284 25.885569 
L 186.371847 25.343312 
L 189.34841 24.960126 
L 192.324973 24.737382 
L 195.301536 24.675238 
L 198.278098 24.772634 
L 201.254661 25.027313 
L 204.231224 25.435854 
L 207.207787 25.993717 
L 210.18435 26.695307 
L 213.160913 27.534039 
L 216.137475 28.502434 
L 222.090601 30.794346 
L 228.043727 33.496938 
L 233.996852 36.528412 
L 239.949978 39.803002 
L 248.879666 44.983268 
L 263.76248 53.67638 
L 272.692169 58.569869 
L 278.645294 61.598972 
L 284.59842 64.40679 
L 290.551546 66.976451 
L 296.504671 69.301462 
L 302.457797 71.38431 
L 308.410923 73.234814 
L 314.364048 74.868362 
L 320.317174 76.304142 
L 326.270299 77.56348 
L 335.199988 79.169631 
L 344.129676 80.498943 
L 353.059365 81.612989 
L 364.965616 82.845996 
L 376.871867 83.860827 
L 391.754681 84.887325 
L 406.637495 85.678909 
L 421.52031 86.254194 
L 439.379686 86.691369 
L 460.215626 86.931411 
L 487.004691 86.990545 
L 531.653134 86.850084 
L 579.278139 86.471642 
L 683.457837 85.562258 
L 698.340651 85.758717 
L 710.246902 86.119005 
L 722.153154 86.683708 
L 734.059405 87.447584 
L 734.059405 87.447584 
" clip-path="url(#p7a631b6ab0)" style="fill: none; stroke: #ffffff; stroke-width: 2; stroke-linecap: square"/>
   </g>
   <g id="line2d_8">
    <path d="M 141.723405 95.78 
L 734.059405 95.78 
" style="fill: none; stroke: #000000; stroke-linecap: square"/>
   </g>
   <g id="text_1">
    <g id="patch_3">
     <path d="M 36.24 105.189687 
L 83.488125 105.189687 
L 83.488125 86.370312 
L 36.24 86.370312 
z
" style="fill: #ffffff; opacity: 0.5"/>
    </g>
    <!-- Pipeline -->
    <g transform="translate(40.2 98.662813) scale(0.12 -0.12)">
     <defs>
      <path id="TimesNewRomanPSMT-50" d="M 1313 1984 
L 1313 750 
Q 1313 350 1400 253 
Q 1519 116 1759 116 
L 1922 116 
L 1922 0 
L 106 0 
L 106 116 
L 266 116 
Q 534 116 650 291 
Q 713 388 713 750 
L 713 3488 
Q 713 3888 628 3984 
Q 506 4122 266 4122 
L 106 4122 
L 106 4238 
L 1659 4238 
Q 2228 4238 2556 4120 
Q 2884 4003 3109 3725 
Q 3334 3447 3334 3066 
Q 3334 2547 2992 2222 
Q 2650 1897 2025 1897 
Q 1872 1897 1694 1919 
Q 1516 1941 1313 1984 
z
M 1313 2163 
Q 1478 2131 1606 2115 
Q 1734 2100 1825 2100 
Q 2150 2100 2386 2351 
Q 2622 2603 2622 3003 
Q 2622 3278 2509 3514 
Q 2397 3750 2190 3867 
Q 1984 3984 1722 3984 
Q 1563 3984 1313 3925 
L 1313 2163 
z
" transform="scale(0.015625)"/>
      <path id="TimesNewRomanPSMT-69" d="M 928 4444 
Q 1059 4444 1151 4351 
Q 1244 4259 1244 4128 
Q 1244 3997 1151 3903 
Q 1059 3809 928 3809 
Q 797 3809 703 3903 
Q 609 3997 609 4128 
Q 609 4259 701 4351 
Q 794 4444 928 4444 
z
M 1188 2947 
L 1188 647 
Q 1188 378 1227 289 
Q 1266 200 1342 156 
Q 1419 113 1622 113 
L 1622 0 
L 231 0 
L 231 113 
Q 441 113 512 153 
Q 584 194 626 287 
Q 669 381 669 647 
L 669 1750 
Q 669 2216 641 2353 
Q 619 2453 572 2492 
Q 525 2531 444 2531 
Q 356 2531 231 2484 
L 188 2597 
L 1050 2947 
L 1188 2947 
z
" transform="scale(0.015625)"/>
      <path id="TimesNewRomanPSMT-70" d="M -6 2578 
L 875 2934 
L 994 2934 
L 994 2266 
Q 1216 2644 1439 2795 
Q 1663 2947 1909 2947 
Q 2341 2947 2628 2609 
Q 2981 2197 2981 1534 
Q 2981 794 2556 309 
Q 2206 -88 1675 -88 
Q 1444 -88 1275 -22 
Q 1150 25 994 166 
L 994 -706 
Q 994 -1000 1030 -1079 
Q 1066 -1159 1155 -1206 
Q 1244 -1253 1478 -1253 
L 1478 -1369 
L -22 -1369 
L -22 -1253 
L 56 -1253 
Q 228 -1256 350 -1188 
Q 409 -1153 442 -1076 
Q 475 -1000 475 -688 
L 475 2019 
Q 475 2297 450 2372 
Q 425 2447 370 2484 
Q 316 2522 222 2522 
Q 147 2522 31 2478 
L -6 2578 
z
M 994 2081 
L 994 1013 
Q 994 666 1022 556 
Q 1066 375 1236 237 
Q 1406 100 1666 100 
Q 1978 100 2172 344 
Q 2425 663 2425 1241 
Q 2425 1897 2138 2250 
Q 1938 2494 1663 2494 
Q 1513 2494 1366 2419 
Q 1253 2363 994 2081 
z
" transform="scale(0.015625)"/>
      <path id="TimesNewRomanPSMT-65" d="M 681 1784 
Q 678 1147 991 784 
Q 1303 422 1725 422 
Q 2006 422 2214 576 
Q 2422 731 2563 1106 
L 2659 1044 
Q 2594 616 2278 264 
Q 1963 -88 1488 -88 
Q 972 -88 605 314 
Q 238 716 238 1394 
Q 238 2128 614 2539 
Q 991 2950 1559 2950 
Q 2041 2950 2350 2633 
Q 2659 2316 2659 1784 
L 681 1784 
z
M 681 1966 
L 2006 1966 
Q 1991 2241 1941 2353 
Q 1863 2528 1708 2628 
Q 1553 2728 1384 2728 
Q 1125 2728 920 2526 
Q 716 2325 681 1966 
z
" transform="scale(0.015625)"/>
      <path id="TimesNewRomanPSMT-6c" d="M 1184 4444 
L 1184 647 
Q 1184 378 1223 290 
Q 1263 203 1344 158 
Q 1425 113 1647 113 
L 1647 0 
L 244 0 
L 244 113 
Q 441 113 512 153 
Q 584 194 625 287 
Q 666 381 666 647 
L 666 3247 
Q 666 3731 644 3842 
Q 622 3953 573 3993 
Q 525 4034 450 4034 
Q 369 4034 244 3984 
L 191 4094 
L 1044 4444 
L 1184 4444 
z
" transform="scale(0.015625)"/>
      <path id="TimesNewRomanPSMT-6e" d="M 1034 2341 
Q 1538 2947 1994 2947 
Q 2228 2947 2397 2830 
Q 2566 2713 2666 2444 
Q 2734 2256 2734 1869 
L 2734 647 
Q 2734 375 2778 278 
Q 2813 200 2889 156 
Q 2966 113 3172 113 
L 3172 0 
L 1756 0 
L 1756 113 
L 1816 113 
Q 2016 113 2095 173 
Q 2175 234 2206 353 
Q 2219 400 2219 647 
L 2219 1819 
Q 2219 2209 2117 2386 
Q 2016 2563 1775 2563 
Q 1403 2563 1034 2156 
L 1034 647 
Q 1034 356 1069 288 
Q 1113 197 1189 155 
Q 1266 113 1500 113 
L 1500 0 
L 84 0 
L 84 113 
L 147 113 
Q 366 113 442 223 
Q 519 334 519 647 
L 519 1709 
Q 519 2225 495 2337 
Q 472 2450 423 2490 
Q 375 2531 294 2531 
Q 206 2531 84 2484 
L 38 2597 
L 900 2947 
L 1034 2947 
L 1034 2341 
z
" transform="scale(0.015625)"/>
     </defs>
     <use xlink:href="#TimesNewRomanPSMT-50"/>
     <use xlink:href="#TimesNewRomanPSMT-69" transform="translate(55.615234 0)"/>
     <use xlink:href="#TimesNewRomanPSMT-70" transform="translate(83.398438 0)"/>
     <use xlink:href="#TimesNewRomanPSMT-65" transform="translate(133.398438 0)"/>
     <use xlink:href="#TimesNewRomanPSMT-6c" transform="translate(177.783203 0)"/>
     <use xlink:href="#TimesNewRomanPSMT-69" transform="translate(205.566406 0)"/>
     <use xlink:href="#TimesNewRomanPSMT-6e" transform="translate(233.349609 0)"/>
     <use xlink:href="#TimesNewRomanPSMT-65" transform="translate(283.349609 0)"/>
    </g>
   </g>
  </g>
  <g id="axes_2">
   <g id="patch_4">
    <path d="M 141.723405 133.11 
L 734.059405 133.11 
L 734.059405 58.45 
L 141.723405 58.45 
L 141.723405 133.11 
z
" style="fill: none; opacity: 0"/>
   </g>
   <g id="FillBetweenPolyCollection_2">
    <defs>
     <path id="mc770f1215a" d="M 141.723405 -90.459613 
L 141.723405 -79.145313 
L 144.699968 -79.145313 
L 147.676531 -79.145313 
L 150.653093 -79.145313 
L 153.629656 -79.145313 
L 156.606219 -79.145313 
L 159.582782 -79.145313 
L 162.559345 -79.145313 
L 165.535908 -79.145313 
L 168.51247 -79.145313 
L 171.489033 -79.145313 
L 174.465596 -79.145313 
L 177.442159 -79.145313 
L 180.418722 -79.145313 
L 183.395284 -79.145313 
L 186.371847 -79.145313 
L 189.34841 -79.145313 
L 192.324973 -79.145313 
L 195.301536 -79.145313 
L 198.278098 -79.145313 
L 201.254661 -79.145313 
L 204.231224 -79.145313 
L 207.207787 -79.145313 
L 210.18435 -79.145313 
L 213.160913 -79.145313 
L 216.137475 -79.145313 
L 219.114038 -79.145313 
L 222.090601 -79.145313 
L 225.067164 -79.145313 
L 228.043727 -79.145313 
L 231.020289 -79.145313 
L 233.996852 -79.145313 
L 236.973415 -79.145313 
L 239.949978 -79.145313 
L 242.926541 -79.145313 
L 245.903103 -79.145313 
L 248.879666 -79.145313 
L 251.856229 -79.145313 
L 254.832792 -79.145313 
L 257.809355 -79.145313 
L 260.785918 -79.145313 
L 263.76248 -79.145313 
L 266.739043 -79.145313 
L 269.715606 -79.145313 
L 272.692169 -79.145313 
L 275.668732 -79.145313 
L 278.645294 -79.145313 
L 281.621857 -79.145313 
L 284.59842 -79.145313 
L 287.574983 -79.145313 
L 290.551546 -79.145313 
L 293.528109 -79.145313 
L 296.504671 -79.145313 
L 299.481234 -79.145313 
L 302.457797 -79.145313 
L 305.43436 -79.145313 
L 308.410923 -79.145313 
L 311.387485 -79.145313 
L 314.364048 -79.145313 
L 317.340611 -79.145313 
L 320.317174 -79.145313 
L 323.293737 -79.145313 
L 326.270299 -79.145313 
L 329.246862 -79.145313 
L 332.223425 -79.145313 
L 335.199988 -79.145313 
L 338.176551 -79.145313 
L 341.153114 -79.145313 
L 344.129676 -79.145313 
L 347.106239 -79.145313 
L 350.082802 -79.145313 
L 353.059365 -79.145313 
L 356.035928 -79.145313 
L 359.01249 -79.145313 
L 361.989053 -79.145313 
L 364.965616 -79.145313 
L 367.942179 -79.145313 
L 370.918742 -79.145313 
L 373.895304 -79.145313 
L 376.871867 -79.145313 
L 379.84843 -79.145313 
L 382.824993 -79.145313 
L 385.801556 -79.145313 
L 388.778119 -79.145313 
L 391.754681 -79.145313 
L 394.731244 -79.145313 
L 397.707807 -79.145313 
L 400.68437 -79.145313 
L 403.660933 -79.145313 
L 406.637495 -79.145313 
L 409.614058 -79.145313 
L 412.590621 -79.145313 
L 415.567184 -79.145313 
L 418.543747 -79.145313 
L 421.52031 -79.145313 
L 424.496872 -79.145313 
L 427.473435 -79.145313 
L 430.449998 -79.145313 
L 433.426561 -79.145313 
L 436.403124 -79.145313 
L 439.379686 -79.145313 
L 442.356249 -79.145313 
L 445.332812 -79.145313 
L 448.309375 -79.145313 
L 451.285938 -79.145313 
L 454.2625 -79.145313 
L 457.239063 -79.145313 
L 460.215626 -79.145313 
L 463.192189 -79.145313 
L 466.168752 -79.145313 
L 469.145315 -79.145313 
L 472.121877 -79.145313 
L 475.09844 -79.145313 
L 478.075003 -79.145313 
L 481.051566 -79.145313 
L 484.028129 -79.145313 
L 487.004691 -79.145313 
L 489.981254 -79.145313 
L 492.957817 -79.145313 
L 495.93438 -79.145313 
L 498.910943 -79.145313 
L 501.887506 -79.145313 
L 504.864068 -79.145313 
L 507.840631 -79.145313 
L 510.817194 -79.145313 
L 513.793757 -79.145313 
L 516.77032 -79.145313 
L 519.746882 -79.145313 
L 522.723445 -79.145313 
L 525.700008 -79.145313 
L 528.676571 -79.145313 
L 531.653134 -79.145313 
L 534.629696 -79.145313 
L 537.606259 -79.145313 
L 540.582822 -79.145313 
L 543.559385 -79.145313 
L 546.535948 -79.145313 
L 549.512511 -79.145313 
L 552.489073 -79.145313 
L 555.465636 -79.145313 
L 558.442199 -79.145313 
L 561.418762 -79.145313 
L 564.395325 -79.145313 
L 567.371887 -79.145313 
L 570.34845 -79.145313 
L 573.325013 -79.145313 
L 576.301576 -79.145313 
L 579.278139 -79.145313 
L 582.254701 -79.145313 
L 585.231264 -79.145313 
L 588.207827 -79.145313 
L 591.18439 -79.145313 
L 594.160953 -79.145313 
L 597.137516 -79.145313 
L 600.114078 -79.145313 
L 603.090641 -79.145313 
L 606.067204 -79.145313 
L 609.043767 -79.145313 
L 612.02033 -79.145313 
L 614.996892 -79.145313 
L 617.973455 -79.145313 
L 620.950018 -79.145313 
L 623.926581 -79.145313 
L 626.903144 -79.145313 
L 629.879707 -79.145313 
L 632.856269 -79.145313 
L 635.832832 -79.145313 
L 638.809395 -79.145313 
L 641.785958 -79.145313 
L 644.762521 -79.145313 
L 647.739083 -79.145313 
L 650.715646 -79.145313 
L 653.692209 -79.145313 
L 656.668772 -79.145313 
L 659.645335 -79.145313 
L 662.621897 -79.145313 
L 665.59846 -79.145313 
L 668.575023 -79.145313 
L 671.551586 -79.145313 
L 674.528149 -79.145313 
L 677.504712 -79.145313 
L 680.481274 -79.145313 
L 683.457837 -79.145313 
L 686.4344 -79.145313 
L 689.410963 -79.145313 
L 692.387526 -79.145313 
L 695.364088 -79.145313 
L 698.340651 -79.145313 
L 701.317214 -79.145313 
L 704.293777 -79.145313 
L 707.27034 -79.145313 
L 710.246902 -79.145313 
L 713.223465 -79.145313 
L 716.200028 -79.145313 
L 719.176591 -79.145313 
L 722.153154 -79.145313 
L 725.129717 -79.145313 
L 728.106279 -79.145313 
L 731.082842 -79.145313 
L 734.059405 -79.145313 
L 734.059405 -90.339459 
L 734.059405 -90.339459 
L 731.082842 -90.923388 
L 728.106279 -91.518181 
L 725.129717 -92.122805 
L 722.153154 -92.736172 
L 719.176591 -93.357148 
L 716.200028 -93.98456 
L 713.223465 -94.6172 
L 710.246902 -95.253832 
L 707.27034 -95.893202 
L 704.293777 -96.534042 
L 701.317214 -97.175081 
L 698.340651 -97.815053 
L 695.364088 -98.452704 
L 692.387526 -99.086798 
L 689.410963 -99.716133 
L 686.4344 -100.339542 
L 683.457837 -100.955902 
L 680.481274 -101.564146 
L 677.504712 -102.163266 
L 674.528149 -102.752318 
L 671.551586 -103.330434 
L 668.575023 -103.89682 
L 665.59846 -104.450763 
L 662.621897 -104.991631 
L 659.645335 -105.518879 
L 656.668772 -106.032042 
L 653.692209 -106.530738 
L 650.715646 -107.014661 
L 647.739083 -107.48358 
L 644.762521 -107.93733 
L 641.785958 -108.375803 
L 638.809395 -108.798941 
L 635.832832 -109.206724 
L 632.856269 -109.599159 
L 629.879707 -109.976264 
L 626.903144 -110.33806 
L 623.926581 -110.684555 
L 620.950018 -111.015726 
L 617.973455 -111.331512 
L 614.996892 -111.631798 
L 612.02033 -111.916404 
L 609.043767 -112.185071 
L 606.067204 -112.437461 
L 603.090641 -112.673139 
L 600.114078 -112.891578 
L 597.137516 -113.092156 
L 594.160953 -113.274154 
L 591.18439 -113.436764 
L 588.207827 -113.579096 
L 585.231264 -113.700189 
L 582.254701 -113.799027 
L 579.278139 -113.874556 
L 576.301576 -113.925702 
L 573.325013 -113.951397 
L 570.34845 -113.950603 
L 567.371887 -113.922339 
L 564.395325 -113.865707 
L 561.418762 -113.779922 
L 558.442199 -113.66434 
L 555.465636 -113.518484 
L 552.489073 -113.342071 
L 549.512511 -113.135036 
L 546.535948 -112.897551 
L 543.559385 -112.630044 
L 540.582822 -112.333214 
L 537.606259 -112.008037 
L 534.629696 -111.655774 
L 531.653134 -111.277968 
L 528.676571 -110.876444 
L 525.700008 -110.453291 
L 522.723445 -110.010854 
L 519.746882 -109.55171 
L 516.77032 -109.078647 
L 513.793757 -108.594632 
L 510.817194 -108.102782 
L 507.840631 -107.606332 
L 504.864068 -107.108592 
L 501.887506 -106.612914 
L 498.910943 -106.122656 
L 495.93438 -105.641134 
L 492.957817 -105.171593 
L 489.981254 -104.717169 
L 487.004691 -104.280851 
L 484.028129 -103.865451 
L 481.051566 -103.473577 
L 478.075003 -103.107607 
L 475.09844 -102.769666 
L 472.121877 -102.461613 
L 469.145315 -102.185021 
L 466.168752 -101.941175 
L 463.192189 -101.731064 
L 460.215626 -101.555379 
L 457.239063 -101.414517 
L 454.2625 -101.308588 
L 451.285938 -101.237423 
L 448.309375 -101.200586 
L 445.332812 -101.197388 
L 442.356249 -101.226905 
L 439.379686 -101.287994 
L 436.403124 -101.37931 
L 433.426561 -101.499331 
L 430.449998 -101.646371 
L 427.473435 -101.818605 
L 424.496872 -102.014088 
L 421.52031 -102.230772 
L 418.543747 -102.466527 
L 415.567184 -102.71916 
L 412.590621 -102.98643 
L 409.614058 -103.266064 
L 406.637495 -103.555778 
L 403.660933 -103.853284 
L 400.68437 -104.156311 
L 397.707807 -104.462611 
L 394.731244 -104.769979 
L 391.754681 -105.076258 
L 388.778119 -105.379352 
L 385.801556 -105.677237 
L 382.824993 -105.967969 
L 379.84843 -106.249694 
L 376.871867 -106.520653 
L 373.895304 -106.779195 
L 370.918742 -107.023779 
L 367.942179 -107.252984 
L 364.965616 -107.46551 
L 361.989053 -107.66019 
L 359.01249 -107.835988 
L 356.035928 -107.992007 
L 353.059365 -108.127488 
L 350.082802 -108.241816 
L 347.106239 -108.334519 
L 344.129676 -108.405269 
L 341.153114 -108.45388 
L 338.176551 -108.480308 
L 335.199988 -108.484648 
L 332.223425 -108.467132 
L 329.246862 -108.428119 
L 326.270299 -108.368098 
L 323.293737 -108.287672 
L 320.317174 -108.187558 
L 317.340611 -108.068577 
L 314.364048 -107.931641 
L 311.387485 -107.777746 
L 308.410923 -107.607961 
L 305.43436 -107.423418 
L 302.457797 -107.225294 
L 299.481234 -107.014807 
L 296.504671 -106.793195 
L 293.528109 -106.561709 
L 290.551546 -106.321594 
L 287.574983 -106.074082 
L 284.59842 -105.820373 
L 281.621857 -105.561627 
L 278.645294 -105.298948 
L 275.668732 -105.033374 
L 272.692169 -104.765867 
L 269.715606 -104.4973 
L 266.739043 -104.228452 
L 263.76248 -103.959996 
L 260.785918 -103.692496 
L 257.809355 -103.426399 
L 254.832792 -103.162035 
L 251.856229 -102.89961 
L 248.879666 -102.639212 
L 245.903103 -102.380803 
L 242.926541 -102.124233 
L 239.949978 -101.869233 
L 236.973415 -101.615431 
L 233.996852 -101.362351 
L 231.020289 -101.109426 
L 228.043727 -100.85601 
L 225.067164 -100.601384 
L 222.090601 -100.34477 
L 219.114038 -100.085348 
L 216.137475 -99.822264 
L 213.160913 -99.554647 
L 210.18435 -99.281624 
L 207.207787 -99.002334 
L 204.231224 -98.715943 
L 201.254661 -98.421656 
L 198.278098 -98.118735 
L 195.301536 -97.806508 
L 192.324973 -97.484384 
L 189.34841 -97.151863 
L 186.371847 -96.808546 
L 183.395284 -96.454145 
L 180.418722 -96.088488 
L 177.442159 -95.711528 
L 174.465596 -95.323341 
L 171.489033 -94.924136 
L 168.51247 -94.514249 
L 165.535908 -94.094146 
L 162.559345 -93.664415 
L 159.582782 -93.225768 
L 156.606219 -92.779029 
L 153.629656 -92.325126 
L 150.653093 -91.865086 
L 147.676531 -91.400021 
L 144.699968 -90.931114 
L 141.723405 -90.459613 
z
" style="stroke: #ff7f0e"/>
    </defs>
    <g clip-path="url(#pdf62944862)">
     <use xlink:href="#mc770f1215a" x="0" y="212.255313" style="fill: #ff7f0e; fill-opacity: 0.5; stroke: #ff7f0e"/>
    </g>
   </g>
   <g id="matplotlib.axis_3">
    <g id="xtick_7">
     <g id="line2d_9">
      <g>
       <use xlink:href="#meb8665ffa6" x="141.723405" y="133.11" style="stroke: #000000; stroke-width: 0.8"/>
      </g>
     </g>
    </g>
    <g id="xtick_8">
     <g id="line2d_10">
      <g>
       <use xlink:href="#meb8665ffa6" x="260.190605" y="133.11" style="stroke: #000000; stroke-width: 0.8"/>
      </g>
     </g>
    </g>
    <g id="xtick_9">
     <g id="line2d_11">
      <g>
       <use xlink:href="#meb8665ffa6" x="378.657805" y="133.11" style="stroke: #000000; stroke-width: 0.8"/>
      </g>
     </g>
    </g>
    <g id="xtick_10">
     <g id="line2d_12">
      <g>
       <use xlink:href="#meb8665ffa6" x="497.125005" y="133.11" style="stroke: #000000; stroke-width: 0.8"/>
      </g>
     </g>
    </g>
    <g id="xtick_11">
     <g id="line2d_13">
      <g>
       <use xlink:href="#meb8665ffa6" x="615.592205" y="133.11" style="stroke: #000000; stroke-width: 0.8"/>
      </g>
     </g>
    </g>
    <g id="xtick_12">
     <g id="line2d_14">
      <g>
       <use xlink:href="#meb8665ffa6" x="734.059405" y="133.11" style="stroke: #000000; stroke-width: 0.8"/>
      </g>
     </g>
    </g>
   </g>
   <g id="matplotlib.axis_4"/>
   <g id="line2d_15">
    <path d="M 141.723405 121.795699 
L 162.559345 118.590897 
L 177.442159 116.543785 
L 192.324973 114.770928 
L 207.207787 113.252978 
L 228.043727 111.399302 
L 272.692169 107.489446 
L 293.528109 105.693604 
L 308.410923 104.647351 
L 320.317174 104.067754 
L 329.246862 103.827193 
L 338.176551 103.775005 
L 347.106239 103.920793 
L 356.035928 104.263306 
L 364.965616 104.789802 
L 376.871867 105.734659 
L 391.754681 107.179055 
L 415.567184 109.536152 
L 427.473435 110.436708 
L 436.403124 110.876002 
L 445.332812 111.057924 
L 454.2625 110.946724 
L 463.192189 110.524248 
L 472.121877 109.7937 
L 481.051566 108.781736 
L 489.981254 107.538143 
L 501.887506 105.642398 
L 522.723445 102.244459 
L 531.653134 100.977344 
L 540.582822 99.922099 
L 549.512511 99.120277 
L 558.442199 98.590973 
L 567.371887 98.332974 
L 576.301576 98.329611 
L 585.231264 98.555123 
L 594.160953 98.981158 
L 606.067204 99.817852 
L 617.973455 100.923801 
L 629.879707 102.279049 
L 641.785958 103.879509 
L 653.692209 105.724575 
L 665.59846 107.80455 
L 677.504712 110.092047 
L 692.387526 113.168514 
L 731.082842 121.331925 
L 734.059405 121.915854 
L 734.059405 121.915854 
" clip-path="url(#pdf62944862)" style="fill: none; stroke: #ffffff; stroke-width: 2; stroke-linecap: square"/>
   </g>
   <g id="line2d_16">
    <path d="M 141.723405 133.11 
L 734.059405 133.11 
" style="fill: none; stroke: #000000; stroke-linecap: square"/>
   </g>
   <g id="text_2">
    <g id="patch_5">
     <path d="M 3.24 142.519688 
L 83.488125 142.519688 
L 83.488125 123.700312 
L 3.24 123.700312 
z
" style="fill: #ffffff; opacity: 0.5"/>
    </g>
    <!-- Container Ship -->
    <g transform="translate(7.2 135.992813) scale(0.12 -0.12)">
     <defs>
      <path id="TimesNewRomanPSMT-43" d="M 3853 4334 
L 3950 2894 
L 3853 2894 
Q 3659 3541 3300 3825 
Q 2941 4109 2438 4109 
Q 2016 4109 1675 3895 
Q 1334 3681 1139 3212 
Q 944 2744 944 2047 
Q 944 1472 1128 1050 
Q 1313 628 1683 403 
Q 2053 178 2528 178 
Q 2941 178 3256 354 
Q 3572 531 3950 1056 
L 4047 994 
Q 3728 428 3303 165 
Q 2878 -97 2294 -97 
Q 1241 -97 663 684 
Q 231 1266 231 2053 
Q 231 2688 515 3219 
Q 800 3750 1298 4042 
Q 1797 4334 2388 4334 
Q 2847 4334 3294 4109 
Q 3425 4041 3481 4041 
Q 3566 4041 3628 4100 
Q 3709 4184 3744 4334 
L 3853 4334 
z
" transform="scale(0.015625)"/>
      <path id="TimesNewRomanPSMT-6f" d="M 1600 2947 
Q 2250 2947 2644 2453 
Q 2978 2031 2978 1484 
Q 2978 1100 2793 706 
Q 2609 313 2286 112 
Q 1963 -88 1566 -88 
Q 919 -88 538 428 
Q 216 863 216 1403 
Q 216 1797 411 2186 
Q 606 2575 925 2761 
Q 1244 2947 1600 2947 
z
M 1503 2744 
Q 1338 2744 1170 2645 
Q 1003 2547 900 2300 
Q 797 2053 797 1666 
Q 797 1041 1045 587 
Q 1294 134 1700 134 
Q 2003 134 2200 384 
Q 2397 634 2397 1244 
Q 2397 2006 2069 2444 
Q 1847 2744 1503 2744 
z
" transform="scale(0.015625)"/>
      <path id="TimesNewRomanPSMT-74" d="M 1031 3803 
L 1031 2863 
L 1700 2863 
L 1700 2644 
L 1031 2644 
L 1031 788 
Q 1031 509 1111 412 
Q 1191 316 1316 316 
Q 1419 316 1516 380 
Q 1613 444 1666 569 
L 1788 569 
Q 1678 263 1478 108 
Q 1278 -47 1066 -47 
Q 922 -47 784 33 
Q 647 113 581 261 
Q 516 409 516 719 
L 516 2644 
L 63 2644 
L 63 2747 
Q 234 2816 414 2980 
Q 594 3144 734 3369 
Q 806 3488 934 3803 
L 1031 3803 
z
" transform="scale(0.015625)"/>
      <path id="TimesNewRomanPSMT-61" d="M 1822 413 
Q 1381 72 1269 19 
Q 1100 -59 909 -59 
Q 613 -59 420 144 
Q 228 347 228 678 
Q 228 888 322 1041 
Q 450 1253 767 1440 
Q 1084 1628 1822 1897 
L 1822 2009 
Q 1822 2438 1686 2597 
Q 1550 2756 1291 2756 
Q 1094 2756 978 2650 
Q 859 2544 859 2406 
L 866 2225 
Q 866 2081 792 2003 
Q 719 1925 600 1925 
Q 484 1925 411 2006 
Q 338 2088 338 2228 
Q 338 2497 613 2722 
Q 888 2947 1384 2947 
Q 1766 2947 2009 2819 
Q 2194 2722 2281 2516 
Q 2338 2381 2338 1966 
L 2338 994 
Q 2338 584 2353 492 
Q 2369 400 2405 369 
Q 2441 338 2488 338 
Q 2538 338 2575 359 
Q 2641 400 2828 588 
L 2828 413 
Q 2478 -56 2159 -56 
Q 2006 -56 1915 50 
Q 1825 156 1822 413 
z
M 1822 616 
L 1822 1706 
Q 1350 1519 1213 1441 
Q 966 1303 859 1153 
Q 753 1003 753 825 
Q 753 600 887 451 
Q 1022 303 1197 303 
Q 1434 303 1822 616 
z
" transform="scale(0.015625)"/>
      <path id="TimesNewRomanPSMT-72" d="M 1038 2947 
L 1038 2303 
Q 1397 2947 1775 2947 
Q 1947 2947 2059 2842 
Q 2172 2738 2172 2600 
Q 2172 2478 2090 2393 
Q 2009 2309 1897 2309 
Q 1788 2309 1652 2417 
Q 1516 2525 1450 2525 
Q 1394 2525 1328 2463 
Q 1188 2334 1038 2041 
L 1038 669 
Q 1038 431 1097 309 
Q 1138 225 1241 169 
Q 1344 113 1538 113 
L 1538 0 
L 72 0 
L 72 113 
Q 291 113 397 181 
Q 475 231 506 341 
Q 522 394 522 644 
L 522 1753 
Q 522 2253 501 2348 
Q 481 2444 426 2487 
Q 372 2531 291 2531 
Q 194 2531 72 2484 
L 41 2597 
L 906 2947 
L 1038 2947 
z
" transform="scale(0.015625)"/>
      <path id="TimesNewRomanPSMT-20" transform="scale(0.015625)"/>
      <path id="TimesNewRomanPSMT-53" d="M 2934 4334 
L 2934 2869 
L 2819 2869 
Q 2763 3291 2617 3541 
Q 2472 3791 2203 3937 
Q 1934 4084 1647 4084 
Q 1322 4084 1109 3886 
Q 897 3688 897 3434 
Q 897 3241 1031 3081 
Q 1225 2847 1953 2456 
Q 2547 2138 2764 1967 
Q 2981 1797 3098 1565 
Q 3216 1334 3216 1081 
Q 3216 600 2842 251 
Q 2469 -97 1881 -97 
Q 1697 -97 1534 -69 
Q 1438 -53 1133 45 
Q 828 144 747 144 
Q 669 144 623 97 
Q 578 50 556 -97 
L 441 -97 
L 441 1356 
L 556 1356 
Q 638 900 775 673 
Q 913 447 1195 297 
Q 1478 147 1816 147 
Q 2206 147 2432 353 
Q 2659 559 2659 841 
Q 2659 997 2573 1156 
Q 2488 1316 2306 1453 
Q 2184 1547 1640 1851 
Q 1097 2156 867 2337 
Q 638 2519 519 2737 
Q 400 2956 400 3219 
Q 400 3675 750 4004 
Q 1100 4334 1641 4334 
Q 1978 4334 2356 4169 
Q 2531 4091 2603 4091 
Q 2684 4091 2736 4139 
Q 2788 4188 2819 4334 
L 2934 4334 
z
" transform="scale(0.015625)"/>
      <path id="TimesNewRomanPSMT-68" d="M 1041 4444 
L 1041 2350 
Q 1388 2731 1591 2839 
Q 1794 2947 1997 2947 
Q 2241 2947 2416 2812 
Q 2591 2678 2675 2391 
Q 2734 2191 2734 1659 
L 2734 647 
Q 2734 375 2778 275 
Q 2809 200 2884 156 
Q 2959 113 3159 113 
L 3159 0 
L 1753 0 
L 1753 113 
L 1819 113 
Q 2019 113 2097 173 
Q 2175 234 2206 353 
Q 2216 403 2216 647 
L 2216 1659 
Q 2216 2128 2167 2275 
Q 2119 2422 2012 2495 
Q 1906 2569 1756 2569 
Q 1603 2569 1437 2487 
Q 1272 2406 1041 2159 
L 1041 647 
Q 1041 353 1073 281 
Q 1106 209 1195 161 
Q 1284 113 1503 113 
L 1503 0 
L 84 0 
L 84 113 
Q 275 113 384 172 
Q 447 203 484 290 
Q 522 378 522 647 
L 522 3238 
Q 522 3728 498 3840 
Q 475 3953 426 3993 
Q 378 4034 297 4034 
Q 231 4034 84 3984 
L 41 4094 
L 897 4444 
L 1041 4444 
z
" transform="scale(0.015625)"/>
     </defs>
     <use xlink:href="#TimesNewRomanPSMT-43"/>
     <use xlink:href="#TimesNewRomanPSMT-6f" transform="translate(66.699219 0)"/>
     <use xlink:href="#TimesNewRomanPSMT-6e" transform="translate(116.699219 0)"/>
     <use xlink:href="#TimesNewRomanPSMT-74" transform="translate(166.699219 0)"/>
     <use xlink:href="#TimesNewRomanPSMT-61" transform="translate(194.482422 0)"/>
     <use xlink:href="#TimesNewRomanPSMT-69" transform="translate(238.867188 0)"/>
     <use xlink:href="#TimesNewRomanPSMT-6e" transform="translate(266.650391 0)"/>
     <use xlink:href="#TimesNewRomanPSMT-65" transform="translate(316.650391 0)"/>
     <use xlink:href="#TimesNewRomanPSMT-72" transform="translate(361.035156 0)"/>
     <use xlink:href="#TimesNewRomanPSMT-20" transform="translate(394.335938 0)"/>
     <use xlink:href="#TimesNewRomanPSMT-53" transform="translate(419.335938 0)"/>
     <use xlink:href="#TimesNewRomanPSMT-68" transform="translate(474.951172 0)"/>
     <use xlink:href="#TimesNewRomanPSMT-69" transform="translate(524.951172 0)"/>
     <use xlink:href="#TimesNewRomanPSMT-70" transform="translate(552.734375 0)"/>
    </g>
   </g>
  </g>
  <g id="axes_3">
   <g id="patch_6">
    <path d="M 141.723405 170.44 
L 734.059405 170.44 
L 734.059405 95.78 
L 141.723405 95.78 
L 141.723405 170.44 
z
" style="fill: none; opacity: 0"/>
   </g>
   <g id="FillBetweenPolyCollection_3">
    <defs>
     <path id="m325d7713d4" d="M 141.723405 -48.055224 
L 141.723405 -41.815313 
L 144.699968 -41.815313 
L 147.676531 -41.815313 
L 150.653093 -41.815313 
L 153.629656 -41.815313 
L 156.606219 -41.815313 
L 159.582782 -41.815313 
L 162.559345 -41.815313 
L 165.535908 -41.815313 
L 168.51247 -41.815313 
L 171.489033 -41.815313 
L 174.465596 -41.815313 
L 177.442159 -41.815313 
L 180.418722 -41.815313 
L 183.395284 -41.815313 
L 186.371847 -41.815313 
L 189.34841 -41.815313 
L 192.324973 -41.815313 
L 195.301536 -41.815313 
L 198.278098 -41.815313 
L 201.254661 -41.815313 
L 204.231224 -41.815313 
L 207.207787 -41.815313 
L 210.18435 -41.815313 
L 213.160913 -41.815313 
L 216.137475 -41.815313 
L 219.114038 -41.815313 
L 222.090601 -41.815313 
L 225.067164 -41.815313 
L 228.043727 -41.815313 
L 231.020289 -41.815313 
L 233.996852 -41.815313 
L 236.973415 -41.815313 
L 239.949978 -41.815313 
L 242.926541 -41.815313 
L 245.903103 -41.815313 
L 248.879666 -41.815313 
L 251.856229 -41.815313 
L 254.832792 -41.815313 
L 257.809355 -41.815313 
L 260.785918 -41.815313 
L 263.76248 -41.815313 
L 266.739043 -41.815313 
L 269.715606 -41.815313 
L 272.692169 -41.815313 
L 275.668732 -41.815313 
L 278.645294 -41.815313 
L 281.621857 -41.815313 
L 284.59842 -41.815313 
L 287.574983 -41.815313 
L 290.551546 -41.815313 
L 293.528109 -41.815313 
L 296.504671 -41.815313 
L 299.481234 -41.815313 
L 302.457797 -41.815313 
L 305.43436 -41.815313 
L 308.410923 -41.815313 
L 311.387485 -41.815313 
L 314.364048 -41.815313 
L 317.340611 -41.815313 
L 320.317174 -41.815313 
L 323.293737 -41.815313 
L 326.270299 -41.815313 
L 329.246862 -41.815313 
L 332.223425 -41.815313 
L 335.199988 -41.815313 
L 338.176551 -41.815313 
L 341.153114 -41.815313 
L 344.129676 -41.815313 
L 347.106239 -41.815313 
L 350.082802 -41.815313 
L 353.059365 -41.815313 
L 356.035928 -41.815313 
L 359.01249 -41.815313 
L 361.989053 -41.815313 
L 364.965616 -41.815313 
L 367.942179 -41.815313 
L 370.918742 -41.815313 
L 373.895304 -41.815313 
L 376.871867 -41.815313 
L 379.84843 -41.815313 
L 382.824993 -41.815313 
L 385.801556 -41.815313 
L 388.778119 -41.815313 
L 391.754681 -41.815313 
L 394.731244 -41.815313 
L 397.707807 -41.815313 
L 400.68437 -41.815313 
L 403.660933 -41.815313 
L 406.637495 -41.815313 
L 409.614058 -41.815313 
L 412.590621 -41.815313 
L 415.567184 -41.815313 
L 418.543747 -41.815313 
L 421.52031 -41.815313 
L 424.496872 -41.815313 
L 427.473435 -41.815313 
L 430.449998 -41.815313 
L 433.426561 -41.815313 
L 436.403124 -41.815313 
L 439.379686 -41.815313 
L 442.356249 -41.815313 
L 445.332812 -41.815313 
L 448.309375 -41.815313 
L 451.285938 -41.815313 
L 454.2625 -41.815313 
L 457.239063 -41.815313 
L 460.215626 -41.815313 
L 463.192189 -41.815313 
L 466.168752 -41.815313 
L 469.145315 -41.815313 
L 472.121877 -41.815313 
L 475.09844 -41.815313 
L 478.075003 -41.815313 
L 481.051566 -41.815313 
L 484.028129 -41.815313 
L 487.004691 -41.815313 
L 489.981254 -41.815313 
L 492.957817 -41.815313 
L 495.93438 -41.815313 
L 498.910943 -41.815313 
L 501.887506 -41.815313 
L 504.864068 -41.815313 
L 507.840631 -41.815313 
L 510.817194 -41.815313 
L 513.793757 -41.815313 
L 516.77032 -41.815313 
L 519.746882 -41.815313 
L 522.723445 -41.815313 
L 525.700008 -41.815313 
L 528.676571 -41.815313 
L 531.653134 -41.815313 
L 534.629696 -41.815313 
L 537.606259 -41.815313 
L 540.582822 -41.815313 
L 543.559385 -41.815313 
L 546.535948 -41.815313 
L 549.512511 -41.815313 
L 552.489073 -41.815313 
L 555.465636 -41.815313 
L 558.442199 -41.815313 
L 561.418762 -41.815313 
L 564.395325 -41.815313 
L 567.371887 -41.815313 
L 570.34845 -41.815313 
L 573.325013 -41.815313 
L 576.301576 -41.815313 
L 579.278139 -41.815313 
L 582.254701 -41.815313 
L 585.231264 -41.815313 
L 588.207827 -41.815313 
L 591.18439 -41.815313 
L 594.160953 -41.815313 
L 597.137516 -41.815313 
L 600.114078 -41.815313 
L 603.090641 -41.815313 
L 606.067204 -41.815313 
L 609.043767 -41.815313 
L 612.02033 -41.815313 
L 614.996892 -41.815313 
L 617.973455 -41.815313 
L 620.950018 -41.815313 
L 623.926581 -41.815313 
L 626.903144 -41.815313 
L 629.879707 -41.815313 
L 632.856269 -41.815313 
L 635.832832 -41.815313 
L 638.809395 -41.815313 
L 641.785958 -41.815313 
L 644.762521 -41.815313 
L 647.739083 -41.815313 
L 650.715646 -41.815313 
L 653.692209 -41.815313 
L 656.668772 -41.815313 
L 659.645335 -41.815313 
L 662.621897 -41.815313 
L 665.59846 -41.815313 
L 668.575023 -41.815313 
L 671.551586 -41.815313 
L 674.528149 -41.815313 
L 677.504712 -41.815313 
L 680.481274 -41.815313 
L 683.457837 -41.815313 
L 686.4344 -41.815313 
L 689.410963 -41.815313 
L 692.387526 -41.815313 
L 695.364088 -41.815313 
L 698.340651 -41.815313 
L 701.317214 -41.815313 
L 704.293777 -41.815313 
L 707.27034 -41.815313 
L 710.246902 -41.815313 
L 713.223465 -41.815313 
L 716.200028 -41.815313 
L 719.176591 -41.815313 
L 722.153154 -41.815313 
L 725.129717 -41.815313 
L 728.106279 -41.815313 
L 731.082842 -41.815313 
L 734.059405 -41.815313 
L 734.059405 -55.152193 
L 734.059405 -55.152193 
L 731.082842 -55.894478 
L 728.106279 -56.64957 
L 725.129717 -57.416153 
L 722.153154 -58.192867 
L 719.176591 -58.978307 
L 716.200028 -59.771028 
L 713.223465 -60.569553 
L 710.246902 -61.372375 
L 707.27034 -62.177973 
L 704.293777 -62.984818 
L 701.317214 -63.791392 
L 698.340651 -64.596204 
L 695.364088 -65.397808 
L 692.387526 -66.194822 
L 689.410963 -66.985951 
L 686.4344 -67.770011 
L 683.457837 -68.545944 
L 680.481274 -69.312843 
L 677.504712 -70.069972 
L 674.528149 -70.816777 
L 671.551586 -71.552905 
L 668.575023 -72.278211 
L 665.59846 -72.992769 
L 662.621897 -73.696871 
L 659.645335 -74.391033 
L 656.668772 -75.075986 
L 653.692209 -75.752676 
L 650.715646 -76.422246 
L 647.739083 -77.086033 
L 644.762521 -77.745546 
L 641.785958 -78.402452 
L 638.809395 -79.058554 
L 635.832832 -79.71577 
L 632.856269 -80.376109 
L 629.879707 -81.04164 
L 626.903144 -81.714463 
L 623.926581 -82.396675 
L 620.950018 -83.090332 
L 617.973455 -83.797405 
L 614.996892 -84.519734 
L 612.02033 -85.258978 
L 609.043767 -86.016561 
L 606.067204 -86.793609 
L 603.090641 -87.590892 
L 600.114078 -88.40876 
L 597.137516 -89.247079 
L 594.160953 -90.105166 
L 591.18439 -90.981734 
L 588.207827 -91.874835 
L 585.231264 -92.781818 
L 582.254701 -93.699291 
L 579.278139 -94.623101 
L 576.301576 -95.548328 
L 573.325013 -96.469292 
L 570.34845 -97.379588 
L 567.371887 -98.272125 
L 564.395325 -99.139207 
L 561.418762 -99.972609 
L 558.442199 -100.763693 
L 555.465636 -101.50353 
L 552.489073 -102.183036 
L 549.512511 -102.79313 
L 546.535948 -103.324885 
L 543.559385 -103.769704 
L 540.582822 -104.119473 
L 537.606259 -104.366731 
L 534.629696 -104.504817 
L 531.653134 -104.528013 
L 528.676571 -104.431668 
L 525.700008 -104.212298 
L 522.723445 -103.867674 
L 519.746882 -103.396873 
L 516.77032 -102.80031 
L 513.793757 -102.079745 
L 510.817194 -101.238256 
L 507.840631 -100.280194 
L 504.864068 -99.211109 
L 501.887506 -98.037659 
L 498.910943 -96.767495 
L 495.93438 -95.409136 
L 492.957817 -93.971829 
L 489.981254 -92.465403 
L 487.004691 -90.900114 
L 484.028129 -89.286497 
L 481.051566 -87.635209 
L 478.075003 -85.956895 
L 475.09844 -84.262041 
L 472.121877 -82.560854 
L 469.145315 -80.863146 
L 466.168752 -79.178235 
L 463.192189 -77.514856 
L 460.215626 -75.881091 
L 457.239063 -74.284309 
L 454.2625 -72.731126 
L 451.285938 -71.227369 
L 448.309375 -69.778063 
L 445.332812 -68.387424 
L 442.356249 -67.058859 
L 439.379686 -65.794987 
L 436.403124 -64.597655 
L 433.426561 -63.467971 
L 430.449998 -62.406338 
L 427.473435 -61.412497 
L 424.496872 -60.485576 
L 421.52031 -59.624135 
L 418.543747 -58.826227 
L 415.567184 -58.08945 
L 412.590621 -57.411009 
L 409.614058 -56.787777 
L 406.637495 -56.216357 
L 403.660933 -55.693146 
L 400.68437 -55.214394 
L 397.707807 -54.77627 
L 394.731244 -54.374919 
L 391.754681 -54.006518 
L 388.778119 -53.667336 
L 385.801556 -53.353779 
L 382.824993 -53.062436 
L 379.84843 -52.790124 
L 376.871867 -52.533917 
L 373.895304 -52.291179 
L 370.918742 -52.059585 
L 367.942179 -51.837135 
L 364.965616 -51.622167 
L 361.989053 -51.413353 
L 359.01249 -51.209701 
L 356.035928 -51.010542 
L 353.059365 -50.815514 
L 350.082802 -50.624544 
L 347.106239 -50.437822 
L 344.129676 -50.25577 
L 341.153114 -50.079015 
L 338.176551 -49.908353 
L 335.199988 -49.744715 
L 332.223425 -49.589128 
L 329.246862 -49.442686 
L 326.270299 -49.30651 
L 323.293737 -49.181714 
L 320.317174 -49.069377 
L 317.340611 -48.97051 
L 314.364048 -48.886029 
L 311.387485 -48.816734 
L 308.410923 -48.763283 
L 305.43436 -48.726182 
L 302.457797 -48.705764 
L 299.481234 -48.702185 
L 296.504671 -48.715413 
L 293.528109 -48.74523 
L 290.551546 -48.791227 
L 287.574983 -48.852815 
L 284.59842 -48.929227 
L 281.621857 -49.019531 
L 278.645294 -49.12264 
L 275.668732 -49.237331 
L 272.692169 -49.362258 
L 269.715606 -49.49597 
L 266.739043 -49.636933 
L 263.76248 -49.783549 
L 260.785918 -49.934176 
L 257.809355 -50.087146 
L 254.832792 -50.24079 
L 251.856229 -50.393453 
L 248.879666 -50.543513 
L 245.903103 -50.6894 
L 242.926541 -50.829611 
L 239.949978 -50.962719 
L 236.973415 -51.087395 
L 233.996852 -51.202406 
L 231.020289 -51.306635 
L 228.043727 -51.399077 
L 225.067164 -51.478849 
L 222.090601 -51.545189 
L 219.114038 -51.597456 
L 216.137475 -51.635131 
L 213.160913 -51.657809 
L 210.18435 -51.665196 
L 207.207787 -51.657103 
L 204.231224 -51.63344 
L 201.254661 -51.594205 
L 198.278098 -51.539478 
L 195.301536 -51.469412 
L 192.324973 -51.384228 
L 189.34841 -51.284201 
L 186.371847 -51.169661 
L 183.395284 -51.040983 
L 180.418722 -50.898581 
L 177.442159 -50.74291 
L 174.465596 -50.57446 
L 171.489033 -50.393755 
L 168.51247 -50.201355 
L 165.535908 -49.997856 
L 162.559345 -49.783891 
L 159.582782 -49.560134 
L 156.606219 -49.327302 
L 153.629656 -49.086153 
L 150.653093 -48.837495 
L 147.676531 -48.58218 
L 144.699968 -48.321108 
L 141.723405 -48.055224 
z
" style="stroke: #2ca02c"/>
    </defs>
    <g clip-path="url(#p85e303ede2)">
     <use xlink:href="#m325d7713d4" x="0" y="212.255313" style="fill: #2ca02c; fill-opacity: 0.5; stroke: #2ca02c"/>
    </g>
   </g>
   <g id="matplotlib.axis_5">
    <g id="xtick_13">
     <g id="line2d_17">
      <g>
       <use xlink:href="#meb8665ffa6" x="141.723405" y="170.44" style="stroke: #000000; stroke-width: 0.8"/>
      </g>
     </g>
     <g id="text_3">
      <!-- 0 -->
      <g transform="translate(138.723405 185.7725) scale(0.12 -0.12)">
       <defs>
        <path id="TimesNewRomanPSMT-30" d="M 231 2094 
Q 231 2819 450 3342 
Q 669 3866 1031 4122 
Q 1313 4325 1613 4325 
Q 2100 4325 2488 3828 
Q 2972 3213 2972 2159 
Q 2972 1422 2759 906 
Q 2547 391 2217 158 
Q 1888 -75 1581 -75 
Q 975 -75 572 641 
Q 231 1244 231 2094 
z
M 844 2016 
Q 844 1141 1059 588 
Q 1238 122 1591 122 
Q 1759 122 1940 273 
Q 2122 425 2216 781 
Q 2359 1319 2359 2297 
Q 2359 3022 2209 3506 
Q 2097 3866 1919 4016 
Q 1791 4119 1609 4119 
Q 1397 4119 1231 3928 
Q 1006 3669 925 3112 
Q 844 2556 844 2016 
z
" transform="scale(0.015625)"/>
       </defs>
       <use xlink:href="#TimesNewRomanPSMT-30"/>
      </g>
     </g>
    </g>
    <g id="xtick_14">
     <g id="line2d_18">
      <g>
       <use xlink:href="#meb8665ffa6" x="260.190605" y="170.44" style="stroke: #000000; stroke-width: 0.8"/>
      </g>
     </g>
     <g id="text_4">
      <!-- 10000 -->
      <g transform="translate(245.190605 185.7725) scale(0.12 -0.12)">
       <defs>
        <path id="TimesNewRomanPSMT-31" d="M 750 3822 
L 1781 4325 
L 1884 4325 
L 1884 747 
Q 1884 391 1914 303 
Q 1944 216 2037 169 
Q 2131 122 2419 116 
L 2419 0 
L 825 0 
L 825 116 
Q 1125 122 1212 167 
Q 1300 213 1334 289 
Q 1369 366 1369 747 
L 1369 3034 
Q 1369 3497 1338 3628 
Q 1316 3728 1258 3775 
Q 1200 3822 1119 3822 
Q 1003 3822 797 3725 
L 750 3822 
z
" transform="scale(0.015625)"/>
       </defs>
       <use xlink:href="#TimesNewRomanPSMT-31"/>
       <use xlink:href="#TimesNewRomanPSMT-30" transform="translate(50 0)"/>
       <use xlink:href="#TimesNewRomanPSMT-30" transform="translate(100 0)"/>
       <use xlink:href="#TimesNewRomanPSMT-30" transform="translate(150 0)"/>
       <use xlink:href="#TimesNewRomanPSMT-30" transform="translate(200 0)"/>
      </g>
     </g>
    </g>
    <g id="xtick_15">
     <g id="line2d_19">
      <g>
       <use xlink:href="#meb8665ffa6" x="378.657805" y="170.44" style="stroke: #000000; stroke-width: 0.8"/>
      </g>
     </g>
     <g id="text_5">
      <!-- 20000 -->
      <g transform="translate(363.657805 185.7725) scale(0.12 -0.12)">
       <defs>
        <path id="TimesNewRomanPSMT-32" d="M 2934 816 
L 2638 0 
L 138 0 
L 138 116 
Q 1241 1122 1691 1759 
Q 2141 2397 2141 2925 
Q 2141 3328 1894 3587 
Q 1647 3847 1303 3847 
Q 991 3847 742 3664 
Q 494 3481 375 3128 
L 259 3128 
Q 338 3706 661 4015 
Q 984 4325 1469 4325 
Q 1984 4325 2329 3994 
Q 2675 3663 2675 3213 
Q 2675 2891 2525 2569 
Q 2294 2063 1775 1497 
Q 997 647 803 472 
L 1909 472 
Q 2247 472 2383 497 
Q 2519 522 2628 598 
Q 2738 675 2819 816 
L 2934 816 
z
" transform="scale(0.015625)"/>
       </defs>
       <use xlink:href="#TimesNewRomanPSMT-32"/>
       <use xlink:href="#TimesNewRomanPSMT-30" transform="translate(50 0)"/>
       <use xlink:href="#TimesNewRomanPSMT-30" transform="translate(100 0)"/>
       <use xlink:href="#TimesNewRomanPSMT-30" transform="translate(150 0)"/>
       <use xlink:href="#TimesNewRomanPSMT-30" transform="translate(200 0)"/>
      </g>
     </g>
    </g>
    <g id="xtick_16">
     <g id="line2d_20">
      <g>
       <use xlink:href="#meb8665ffa6" x="497.125005" y="170.44" style="stroke: #000000; stroke-width: 0.8"/>
      </g>
     </g>
     <g id="text_6">
      <!-- 30000 -->
      <g transform="translate(482.125005 185.7725) scale(0.12 -0.12)">
       <defs>
        <path id="TimesNewRomanPSMT-33" d="M 325 3431 
Q 506 3859 782 4092 
Q 1059 4325 1472 4325 
Q 1981 4325 2253 3994 
Q 2459 3747 2459 3466 
Q 2459 3003 1878 2509 
Q 2269 2356 2469 2072 
Q 2669 1788 2669 1403 
Q 2669 853 2319 450 
Q 1863 -75 997 -75 
Q 569 -75 414 31 
Q 259 138 259 259 
Q 259 350 332 419 
Q 406 488 509 488 
Q 588 488 669 463 
Q 722 447 909 348 
Q 1097 250 1169 231 
Q 1284 197 1416 197 
Q 1734 197 1970 444 
Q 2206 691 2206 1028 
Q 2206 1275 2097 1509 
Q 2016 1684 1919 1775 
Q 1784 1900 1550 2001 
Q 1316 2103 1072 2103 
L 972 2103 
L 972 2197 
Q 1219 2228 1467 2375 
Q 1716 2522 1828 2728 
Q 1941 2934 1941 3181 
Q 1941 3503 1739 3701 
Q 1538 3900 1238 3900 
Q 753 3900 428 3381 
L 325 3431 
z
" transform="scale(0.015625)"/>
       </defs>
       <use xlink:href="#TimesNewRomanPSMT-33"/>
       <use xlink:href="#TimesNewRomanPSMT-30" transform="translate(50 0)"/>
       <use xlink:href="#TimesNewRomanPSMT-30" transform="translate(100 0)"/>
       <use xlink:href="#TimesNewRomanPSMT-30" transform="translate(150 0)"/>
       <use xlink:href="#TimesNewRomanPSMT-30" transform="translate(200 0)"/>
      </g>
     </g>
    </g>
    <g id="xtick_17">
     <g id="line2d_21">
      <g>
       <use xlink:href="#meb8665ffa6" x="615.592205" y="170.44" style="stroke: #000000; stroke-width: 0.8"/>
      </g>
     </g>
     <g id="text_7">
      <!-- 40000 -->
      <g transform="translate(600.592205 185.7725) scale(0.12 -0.12)">
       <defs>
        <path id="TimesNewRomanPSMT-34" d="M 2978 1563 
L 2978 1119 
L 2409 1119 
L 2409 0 
L 1894 0 
L 1894 1119 
L 100 1119 
L 100 1519 
L 2066 4325 
L 2409 4325 
L 2409 1563 
L 2978 1563 
z
M 1894 1563 
L 1894 3666 
L 406 1563 
L 1894 1563 
z
" transform="scale(0.015625)"/>
       </defs>
       <use xlink:href="#TimesNewRomanPSMT-34"/>
       <use xlink:href="#TimesNewRomanPSMT-30" transform="translate(50 0)"/>
       <use xlink:href="#TimesNewRomanPSMT-30" transform="translate(100 0)"/>
       <use xlink:href="#TimesNewRomanPSMT-30" transform="translate(150 0)"/>
       <use xlink:href="#TimesNewRomanPSMT-30" transform="translate(200 0)"/>
      </g>
     </g>
    </g>
    <g id="xtick_18">
     <g id="line2d_22">
      <g>
       <use xlink:href="#meb8665ffa6" x="734.059405" y="170.44" style="stroke: #000000; stroke-width: 0.8"/>
      </g>
     </g>
     <g id="text_8">
      <!-- 50000 -->
      <g transform="translate(719.059405 185.7725) scale(0.12 -0.12)">
       <defs>
        <path id="TimesNewRomanPSMT-35" d="M 2778 4238 
L 2534 3706 
L 1259 3706 
L 981 3138 
Q 1809 3016 2294 2522 
Q 2709 2097 2709 1522 
Q 2709 1188 2573 903 
Q 2438 619 2231 419 
Q 2025 219 1772 97 
Q 1413 -75 1034 -75 
Q 653 -75 479 54 
Q 306 184 306 341 
Q 306 428 378 495 
Q 450 563 559 563 
Q 641 563 702 538 
Q 763 513 909 409 
Q 1144 247 1384 247 
Q 1750 247 2026 523 
Q 2303 800 2303 1197 
Q 2303 1581 2056 1914 
Q 1809 2247 1375 2428 
Q 1034 2569 447 2591 
L 1259 4238 
L 2778 4238 
z
" transform="scale(0.015625)"/>
       </defs>
       <use xlink:href="#TimesNewRomanPSMT-35"/>
       <use xlink:href="#TimesNewRomanPSMT-30" transform="translate(50 0)"/>
       <use xlink:href="#TimesNewRomanPSMT-30" transform="translate(100 0)"/>
       <use xlink:href="#TimesNewRomanPSMT-30" transform="translate(150 0)"/>
       <use xlink:href="#TimesNewRomanPSMT-30" transform="translate(200 0)"/>
      </g>
     </g>
    </g>
    <g id="text_9">
     <!-- Value -->
     <g transform="translate(421.955467 202.060625) scale(0.14 -0.14)">
      <defs>
       <path id="TimesNewRomanPSMT-56" d="M 4544 4238 
L 4544 4122 
Q 4319 4081 4203 3978 
Q 4038 3825 3909 3509 
L 2431 -97 
L 2316 -97 
L 728 3556 
Q 606 3838 556 3900 
Q 478 3997 364 4051 
Q 250 4106 56 4122 
L 56 4238 
L 1788 4238 
L 1788 4122 
Q 1494 4094 1406 4022 
Q 1319 3950 1319 3838 
Q 1319 3681 1463 3350 
L 2541 866 
L 3541 3319 
Q 3688 3681 3688 3822 
Q 3688 3913 3597 3995 
Q 3506 4078 3291 4113 
Q 3275 4116 3238 4122 
L 3238 4238 
L 4544 4238 
z
" transform="scale(0.015625)"/>
       <path id="TimesNewRomanPSMT-75" d="M 2709 2863 
L 2709 1128 
Q 2709 631 2732 520 
Q 2756 409 2807 365 
Q 2859 322 2928 322 
Q 3025 322 3147 375 
L 3191 266 
L 2334 -88 
L 2194 -88 
L 2194 519 
Q 1825 119 1631 15 
Q 1438 -88 1222 -88 
Q 981 -88 804 51 
Q 628 191 559 409 
Q 491 628 491 1028 
L 491 2306 
Q 491 2509 447 2587 
Q 403 2666 317 2708 
Q 231 2750 6 2747 
L 6 2863 
L 1009 2863 
L 1009 947 
Q 1009 547 1148 422 
Q 1288 297 1484 297 
Q 1619 297 1789 381 
Q 1959 466 2194 703 
L 2194 2325 
Q 2194 2569 2105 2655 
Q 2016 2741 1734 2747 
L 1734 2863 
L 2709 2863 
z
" transform="scale(0.015625)"/>
      </defs>
      <use xlink:href="#TimesNewRomanPSMT-56"/>
      <use xlink:href="#TimesNewRomanPSMT-61" transform="translate(61.091797 0)"/>
      <use xlink:href="#TimesNewRomanPSMT-6c" transform="translate(105.476562 0)"/>
      <use xlink:href="#TimesNewRomanPSMT-75" transform="translate(133.259766 0)"/>
      <use xlink:href="#TimesNewRomanPSMT-65" transform="translate(183.259766 0)"/>
     </g>
    </g>
   </g>
   <g id="matplotlib.axis_6"/>
   <g id="line2d_23">
    <path d="M 141.723405 164.200089 
L 159.582782 162.695178 
L 174.465596 161.680852 
L 186.371847 161.085651 
L 198.278098 160.715835 
L 210.18435 160.590117 
L 222.090601 160.710124 
L 233.996852 161.052906 
L 248.879666 161.711799 
L 278.645294 163.132672 
L 290.551546 163.464086 
L 302.457797 163.549548 
L 314.364048 163.369283 
L 326.270299 162.948803 
L 341.153114 162.176297 
L 361.989053 160.84196 
L 376.871867 159.721396 
L 388.778119 158.587976 
L 397.707807 157.479042 
L 403.660933 156.562167 
L 409.614058 155.467536 
L 415.567184 154.165863 
L 421.52031 152.631177 
L 427.473435 150.842815 
L 433.426561 148.787341 
L 439.379686 146.460325 
L 445.332812 143.867889 
L 451.285938 141.027944 
L 457.239063 137.971003 
L 466.168752 133.077078 
L 487.004691 121.355198 
L 492.957817 118.283483 
L 498.910943 115.487818 
L 504.864068 113.044203 
L 510.817194 111.017056 
L 513.793757 110.175567 
L 516.77032 109.455002 
L 519.746882 108.85844 
L 522.723445 108.387638 
L 525.700008 108.043014 
L 528.676571 107.823645 
L 531.653134 107.727299 
L 534.629696 107.750495 
L 540.582822 108.135839 
L 546.535948 108.930427 
L 552.489073 110.072276 
L 558.442199 111.491619 
L 564.395325 113.116106 
L 573.325013 115.78602 
L 594.160953 122.150147 
L 603.090641 124.664421 
L 612.02033 126.996334 
L 623.926581 129.858637 
L 641.785958 133.852861 
L 662.621897 138.558441 
L 677.504712 142.18534 
L 692.387526 146.060491 
L 731.082842 156.360834 
L 734.059405 157.103119 
L 734.059405 157.103119 
" clip-path="url(#p85e303ede2)" style="fill: none; stroke: #ffffff; stroke-width: 2; stroke-linecap: square"/>
   </g>
   <g id="line2d_24">
    <path d="M 141.723405 170.44 
L 734.059405 170.44 
" style="fill: none; stroke: #000000; stroke-linecap: square"/>
   </g>
   <g id="text_10">
    <g id="patch_7">
     <path d="M 27.455625 179.860938 
L 83.488125 179.860938 
L 83.488125 161.019062 
L 27.455625 161.019062 
z
" style="fill: #ffffff; opacity: 0.5"/>
    </g>
    <!-- Air Cargo -->
    <g transform="translate(31.415625 173.311562) scale(0.12 -0.12)">
     <defs>
      <path id="TimesNewRomanPSMT-41" d="M 2928 1419 
L 1288 1419 
L 1000 750 
Q 894 503 894 381 
Q 894 284 986 211 
Q 1078 138 1384 116 
L 1384 0 
L 50 0 
L 50 116 
Q 316 163 394 238 
Q 553 388 747 847 
L 2238 4334 
L 2347 4334 
L 3822 809 
Q 4000 384 4145 257 
Q 4291 131 4550 116 
L 4550 0 
L 2878 0 
L 2878 116 
Q 3131 128 3220 200 
Q 3309 272 3309 375 
Q 3309 513 3184 809 
L 2928 1419 
z
M 2841 1650 
L 2122 3363 
L 1384 1650 
L 2841 1650 
z
" transform="scale(0.015625)"/>
      <path id="TimesNewRomanPSMT-67" d="M 966 1044 
Q 703 1172 562 1401 
Q 422 1631 422 1909 
Q 422 2334 742 2640 
Q 1063 2947 1563 2947 
Q 1972 2947 2272 2747 
L 2878 2747 
Q 3013 2747 3034 2739 
Q 3056 2731 3066 2713 
Q 3084 2684 3084 2613 
Q 3084 2531 3069 2500 
Q 3059 2484 3036 2475 
Q 3013 2466 2878 2466 
L 2506 2466 
Q 2681 2241 2681 1891 
Q 2681 1491 2375 1206 
Q 2069 922 1553 922 
Q 1341 922 1119 984 
Q 981 866 932 777 
Q 884 688 884 625 
Q 884 572 936 522 
Q 988 472 1138 450 
Q 1225 438 1575 428 
Q 2219 413 2409 384 
Q 2700 344 2873 169 
Q 3047 -6 3047 -263 
Q 3047 -616 2716 -925 
Q 2228 -1381 1444 -1381 
Q 841 -1381 425 -1109 
Q 191 -953 191 -784 
Q 191 -709 225 -634 
Q 278 -519 444 -313 
Q 466 -284 763 25 
Q 600 122 533 198 
Q 466 275 466 372 
Q 466 481 555 628 
Q 644 775 966 1044 
z
M 1509 2797 
Q 1278 2797 1122 2612 
Q 966 2428 966 2047 
Q 966 1553 1178 1281 
Q 1341 1075 1591 1075 
Q 1828 1075 1981 1253 
Q 2134 1431 2134 1813 
Q 2134 2309 1919 2591 
Q 1759 2797 1509 2797 
z
M 934 0 
Q 788 -159 713 -296 
Q 638 -434 638 -550 
Q 638 -700 819 -813 
Q 1131 -1006 1722 -1006 
Q 2284 -1006 2551 -807 
Q 2819 -609 2819 -384 
Q 2819 -222 2659 -153 
Q 2497 -84 2016 -72 
Q 1313 -53 934 0 
z
" transform="scale(0.015625)"/>
     </defs>
     <use xlink:href="#TimesNewRomanPSMT-41"/>
     <use xlink:href="#TimesNewRomanPSMT-69" transform="translate(72.216797 0)"/>
     <use xlink:href="#TimesNewRomanPSMT-72" transform="translate(100 0)"/>
     <use xlink:href="#TimesNewRomanPSMT-20" transform="translate(133.300781 0)"/>
     <use xlink:href="#TimesNewRomanPSMT-43" transform="translate(158.300781 0)"/>
     <use xlink:href="#TimesNewRomanPSMT-61" transform="translate(225 0)"/>
     <use xlink:href="#TimesNewRomanPSMT-72" transform="translate(269.384766 0)"/>
     <use xlink:href="#TimesNewRomanPSMT-67" transform="translate(300.935547 0)"/>
     <use xlink:href="#TimesNewRomanPSMT-6f" transform="translate(350.935547 0)"/>
    </g>
   </g>
  </g>
  <g id="text_11">
   <!-- Freight Volume(tons) -->
   <g transform="translate(316.483155 18.31) scale(0.16 -0.16)">
    <defs>
     <path id="TimesNewRomanPSMT-46" d="M 1309 4006 
L 1309 2341 
L 2081 2341 
Q 2347 2341 2470 2458 
Q 2594 2575 2634 2922 
L 2750 2922 
L 2750 1488 
L 2634 1488 
Q 2631 1734 2570 1850 
Q 2509 1966 2401 2023 
Q 2294 2081 2081 2081 
L 1309 2081 
L 1309 750 
Q 1309 428 1350 325 
Q 1381 247 1481 191 
Q 1619 116 1769 116 
L 1922 116 
L 1922 0 
L 103 0 
L 103 116 
L 253 116 
Q 516 116 634 269 
Q 709 369 709 750 
L 709 3488 
Q 709 3809 669 3913 
Q 638 3991 541 4047 
Q 406 4122 253 4122 
L 103 4122 
L 103 4238 
L 3256 4238 
L 3297 3306 
L 3188 3306 
Q 3106 3603 2998 3742 
Q 2891 3881 2733 3943 
Q 2575 4006 2244 4006 
L 1309 4006 
z
" transform="scale(0.015625)"/>
     <path id="TimesNewRomanPSMT-6d" d="M 1050 2338 
Q 1363 2650 1419 2697 
Q 1559 2816 1721 2881 
Q 1884 2947 2044 2947 
Q 2313 2947 2506 2790 
Q 2700 2634 2766 2338 
Q 3088 2713 3309 2830 
Q 3531 2947 3766 2947 
Q 3994 2947 4170 2830 
Q 4347 2713 4450 2447 
Q 4519 2266 4519 1878 
L 4519 647 
Q 4519 378 4559 278 
Q 4591 209 4675 161 
Q 4759 113 4950 113 
L 4950 0 
L 3538 0 
L 3538 113 
L 3597 113 
Q 3781 113 3884 184 
Q 3956 234 3988 344 
Q 4000 397 4000 647 
L 4000 1878 
Q 4000 2228 3916 2372 
Q 3794 2572 3525 2572 
Q 3359 2572 3192 2489 
Q 3025 2406 2788 2181 
L 2781 2147 
L 2788 2013 
L 2788 647 
Q 2788 353 2820 281 
Q 2853 209 2943 161 
Q 3034 113 3253 113 
L 3253 0 
L 1806 0 
L 1806 113 
Q 2044 113 2133 169 
Q 2222 225 2256 338 
Q 2272 391 2272 647 
L 2272 1878 
Q 2272 2228 2169 2381 
Q 2031 2581 1784 2581 
Q 1616 2581 1450 2491 
Q 1191 2353 1050 2181 
L 1050 647 
Q 1050 366 1089 281 
Q 1128 197 1204 155 
Q 1281 113 1516 113 
L 1516 0 
L 100 0 
L 100 113 
Q 297 113 375 155 
Q 453 197 493 289 
Q 534 381 534 647 
L 534 1741 
Q 534 2213 506 2350 
Q 484 2453 437 2492 
Q 391 2531 309 2531 
Q 222 2531 100 2484 
L 53 2597 
L 916 2947 
L 1050 2947 
L 1050 2338 
z
" transform="scale(0.015625)"/>
     <path id="TimesNewRomanPSMT-28" d="M 1988 -1253 
L 1988 -1369 
Q 1516 -1131 1200 -813 
Q 750 -359 506 256 
Q 263 872 263 1534 
Q 263 2503 741 3301 
Q 1219 4100 1988 4444 
L 1988 4313 
Q 1603 4100 1356 3731 
Q 1109 3363 987 2797 
Q 866 2231 866 1616 
Q 866 947 969 400 
Q 1050 -31 1165 -292 
Q 1281 -553 1476 -793 
Q 1672 -1034 1988 -1253 
z
" transform="scale(0.015625)"/>
     <path id="TimesNewRomanPSMT-73" d="M 2050 2947 
L 2050 1972 
L 1947 1972 
Q 1828 2431 1642 2597 
Q 1456 2763 1169 2763 
Q 950 2763 815 2647 
Q 681 2531 681 2391 
Q 681 2216 781 2091 
Q 878 1963 1175 1819 
L 1631 1597 
Q 2266 1288 2266 781 
Q 2266 391 1970 151 
Q 1675 -88 1309 -88 
Q 1047 -88 709 6 
Q 606 38 541 38 
Q 469 38 428 -44 
L 325 -44 
L 325 978 
L 428 978 
Q 516 541 762 319 
Q 1009 97 1316 97 
Q 1531 97 1667 223 
Q 1803 350 1803 528 
Q 1803 744 1651 891 
Q 1500 1038 1047 1263 
Q 594 1488 453 1669 
Q 313 1847 313 2119 
Q 313 2472 555 2709 
Q 797 2947 1181 2947 
Q 1350 2947 1591 2875 
Q 1750 2828 1803 2828 
Q 1853 2828 1881 2850 
Q 1909 2872 1947 2947 
L 2050 2947 
z
" transform="scale(0.015625)"/>
     <path id="TimesNewRomanPSMT-29" d="M 144 4313 
L 144 4444 
Q 619 4209 934 3891 
Q 1381 3434 1625 2820 
Q 1869 2206 1869 1541 
Q 1869 572 1392 -226 
Q 916 -1025 144 -1369 
L 144 -1253 
Q 528 -1038 776 -670 
Q 1025 -303 1145 264 
Q 1266 831 1266 1447 
Q 1266 2113 1163 2663 
Q 1084 3094 967 3353 
Q 850 3613 656 3853 
Q 463 4094 144 4313 
z
" transform="scale(0.015625)"/>
    </defs>
    <use xlink:href="#TimesNewRomanPSMT-46"/>
    <use xlink:href="#TimesNewRomanPSMT-72" transform="translate(55.615234 0)"/>
    <use xlink:href="#TimesNewRomanPSMT-65" transform="translate(88.916016 0)"/>
    <use xlink:href="#TimesNewRomanPSMT-69" transform="translate(133.300781 0)"/>
    <use xlink:href="#TimesNewRomanPSMT-67" transform="translate(161.083984 0)"/>
    <use xlink:href="#TimesNewRomanPSMT-68" transform="translate(211.083984 0)"/>
    <use xlink:href="#TimesNewRomanPSMT-74" transform="translate(261.083984 0)"/>
    <use xlink:href="#TimesNewRomanPSMT-20" transform="translate(288.867188 0)"/>
    <use xlink:href="#TimesNewRomanPSMT-56" transform="translate(312.117188 0)"/>
    <use xlink:href="#TimesNewRomanPSMT-6f" transform="translate(371.458984 0)"/>
    <use xlink:href="#TimesNewRomanPSMT-6c" transform="translate(421.458984 0)"/>
    <use xlink:href="#TimesNewRomanPSMT-75" transform="translate(449.242188 0)"/>
    <use xlink:href="#TimesNewRomanPSMT-6d" transform="translate(499.242188 0)"/>
    <use xlink:href="#TimesNewRomanPSMT-65" transform="translate(577.025391 0)"/>
    <use xlink:href="#TimesNewRomanPSMT-28" transform="translate(621.410156 0)"/>
    <use xlink:href="#TimesNewRomanPSMT-74" transform="translate(654.710938 0)"/>
    <use xlink:href="#TimesNewRomanPSMT-6f" transform="translate(682.494141 0)"/>
    <use xlink:href="#TimesNewRomanPSMT-6e" transform="translate(732.494141 0)"/>
    <use xlink:href="#TimesNewRomanPSMT-73" transform="translate(782.494141 0)"/>
    <use xlink:href="#TimesNewRomanPSMT-29" transform="translate(821.410156 0)"/>
   </g>
  </g>
 </g>
 <defs>
  <clipPath id="p7a631b6ab0">
   <rect x="141.723405" y="21.12" width="592.336" height="74.66"/>
  </clipPath>
  <clipPath id="pdf62944862">
   <rect x="141.723405" y="58.45" width="592.336" height="74.66"/>
  </clipPath>
  <clipPath id="p85e303ede2">
   <rect x="141.723405" y="95.78" width="592.336" height="74.66"/>
  </clipPath>
 </defs>
</svg>
