<?xml version="1.0" encoding="utf-8" standalone="no"?>
<!DOCTYPE svg PUBLIC "-//W3C//DTD SVG 1.1//EN"
  "http://www.w3.org/Graphics/SVG/1.1/DTD/svg11.dtd">
<svg xmlns:xlink="http://www.w3.org/1999/xlink" width="755.902397pt" height="212.255313pt" viewBox="0 0 755.902397 212.255313" xmlns="http://www.w3.org/2000/svg" version="1.1">
 <metadata>
  <rdf:RDF xmlns:dc="http://purl.org/dc/elements/1.1/" xmlns:cc="http://creativecommons.org/ns#" xmlns:rdf="http://www.w3.org/1999/02/22-rdf-syntax-ns#">
   <cc:Work>
    <dc:type rdf:resource="http://purl.org/dc/dcmitype/StillImage"/>
    <dc:date>2025-05-27T00:37:33.017704</dc:date>
    <dc:format>image/svg+xml</dc:format>
    <dc:creator>
     <cc:Agent>
      <dc:title>Matplotlib v3.10.1, https://matplotlib.org/</dc:title>
     </cc:Agent>
    </dc:creator>
   </cc:Work>
  </rdf:RDF>
 </metadata>
 <defs>
  <style type="text/css">*{stroke-linejoin: round; stroke-linecap: butt}</style>
 </defs>
 <g id="figure_1">
  <g id="patch_1">
   <path d="M -0 212.255313 
L 755.902397 212.255313 
L 755.902397 0 
L -0 0 
z
" style="fill: #ffffff"/>
  </g>
  <g id="axes_1">
   <g id="patch_2">
    <path d="M 148.912897 95.78 
L 733.702397 95.78 
L 733.702397 21.12 
L 148.912897 21.12 
L 148.912897 95.78 
z
" style="fill: none; opacity: 0"/>
   </g>
   <g id="FillBetweenPolyCollection_1">
    <defs>
     <path id="m957d30dace" d="M 148.912897 -137.180635 
L 148.912897 -116.475313 
L 151.851538 -116.475313 
L 154.790179 -116.475313 
L 157.72882 -116.475313 
L 160.66746 -116.475313 
L 163.606101 -116.475313 
L 166.544742 -116.475313 
L 169.483382 -116.475313 
L 172.422023 -116.475313 
L 175.360664 -116.475313 
L 178.299305 -116.475313 
L 181.237945 -116.475313 
L 184.176586 -116.475313 
L 187.115227 -116.475313 
L 190.053867 -116.475313 
L 192.992508 -116.475313 
L 195.931149 -116.475313 
L 198.869789 -116.475313 
L 201.80843 -116.475313 
L 204.747071 -116.475313 
L 207.685712 -116.475313 
L 210.624352 -116.475313 
L 213.562993 -116.475313 
L 216.501634 -116.475313 
L 219.440274 -116.475313 
L 222.378915 -116.475313 
L 225.317556 -116.475313 
L 228.256196 -116.475313 
L 231.194837 -116.475313 
L 234.133478 -116.475313 
L 237.072119 -116.475313 
L 240.010759 -116.475313 
L 242.9494 -116.475313 
L 245.888041 -116.475313 
L 248.826681 -116.475313 
L 251.765322 -116.475313 
L 254.703963 -116.475313 
L 257.642604 -116.475313 
L 260.581244 -116.475313 
L 263.519885 -116.475313 
L 266.458526 -116.475313 
L 269.397166 -116.475313 
L 272.335807 -116.475313 
L 275.274448 -116.475313 
L 278.213088 -116.475313 
L 281.151729 -116.475313 
L 284.09037 -116.475313 
L 287.029011 -116.475313 
L 289.967651 -116.475313 
L 292.906292 -116.475313 
L 295.844933 -116.475313 
L 298.783573 -116.475313 
L 301.722214 -116.475313 
L 304.660855 -116.475313 
L 307.599495 -116.475313 
L 310.538136 -116.475313 
L 313.476777 -116.475313 
L 316.415418 -116.475313 
L 319.354058 -116.475313 
L 322.292699 -116.475313 
L 325.23134 -116.475313 
L 328.16998 -116.475313 
L 331.108621 -116.475313 
L 334.047262 -116.475313 
L 336.985903 -116.475313 
L 339.924543 -116.475313 
L 342.863184 -116.475313 
L 345.801825 -116.475313 
L 348.740465 -116.475313 
L 351.679106 -116.475313 
L 354.617747 -116.475313 
L 357.556387 -116.475313 
L 360.495028 -116.475313 
L 363.433669 -116.475313 
L 366.37231 -116.475313 
L 369.31095 -116.475313 
L 372.249591 -116.475313 
L 375.188232 -116.475313 
L 378.126872 -116.475313 
L 381.065513 -116.475313 
L 384.004154 -116.475313 
L 386.942794 -116.475313 
L 389.881435 -116.475313 
L 392.820076 -116.475313 
L 395.758717 -116.475313 
L 398.697357 -116.475313 
L 401.635998 -116.475313 
L 404.574639 -116.475313 
L 407.513279 -116.475313 
L 410.45192 -116.475313 
L 413.390561 -116.475313 
L 416.329202 -116.475313 
L 419.267842 -116.475313 
L 422.206483 -116.475313 
L 425.145124 -116.475313 
L 428.083764 -116.475313 
L 431.022405 -116.475313 
L 433.961046 -116.475313 
L 436.899686 -116.475313 
L 439.838327 -116.475313 
L 442.776968 -116.475313 
L 445.715609 -116.475313 
L 448.654249 -116.475313 
L 451.59289 -116.475313 
L 454.531531 -116.475313 
L 457.470171 -116.475313 
L 460.408812 -116.475313 
L 463.347453 -116.475313 
L 466.286093 -116.475313 
L 469.224734 -116.475313 
L 472.163375 -116.475313 
L 475.102016 -116.475313 
L 478.040656 -116.475313 
L 480.979297 -116.475313 
L 483.917938 -116.475313 
L 486.856578 -116.475313 
L 489.795219 -116.475313 
L 492.73386 -116.475313 
L 495.672501 -116.475313 
L 498.611141 -116.475313 
L 501.549782 -116.475313 
L 504.488423 -116.475313 
L 507.427063 -116.475313 
L 510.365704 -116.475313 
L 513.304345 -116.475313 
L 516.242985 -116.475313 
L 519.181626 -116.475313 
L 522.120267 -116.475313 
L 525.058908 -116.475313 
L 527.997548 -116.475313 
L 530.936189 -116.475313 
L 533.87483 -116.475313 
L 536.81347 -116.475313 
L 539.752111 -116.475313 
L 542.690752 -116.475313 
L 545.629392 -116.475313 
L 548.568033 -116.475313 
L 551.506674 -116.475313 
L 554.445315 -116.475313 
L 557.383955 -116.475313 
L 560.322596 -116.475313 
L 563.261237 -116.475313 
L 566.199877 -116.475313 
L 569.138518 -116.475313 
L 572.077159 -116.475313 
L 575.0158 -116.475313 
L 577.95444 -116.475313 
L 580.893081 -116.475313 
L 583.831722 -116.475313 
L 586.770362 -116.475313 
L 589.709003 -116.475313 
L 592.647644 -116.475313 
L 595.586284 -116.475313 
L 598.524925 -116.475313 
L 601.463566 -116.475313 
L 604.402207 -116.475313 
L 607.340847 -116.475313 
L 610.279488 -116.475313 
L 613.218129 -116.475313 
L 616.156769 -116.475313 
L 619.09541 -116.475313 
L 622.034051 -116.475313 
L 624.972691 -116.475313 
L 627.911332 -116.475313 
L 630.849973 -116.475313 
L 633.788614 -116.475313 
L 636.727254 -116.475313 
L 639.665895 -116.475313 
L 642.604536 -116.475313 
L 645.543176 -116.475313 
L 648.481817 -116.475313 
L 651.420458 -116.475313 
L 654.359099 -116.475313 
L 657.297739 -116.475313 
L 660.23638 -116.475313 
L 663.175021 -116.475313 
L 666.113661 -116.475313 
L 669.052302 -116.475313 
L 671.990943 -116.475313 
L 674.929583 -116.475313 
L 677.868224 -116.475313 
L 680.806865 -116.475313 
L 683.745506 -116.475313 
L 686.684146 -116.475313 
L 689.622787 -116.475313 
L 692.561428 -116.475313 
L 695.500068 -116.475313 
L 698.438709 -116.475313 
L 701.37735 -116.475313 
L 704.31599 -116.475313 
L 707.254631 -116.475313 
L 710.193272 -116.475313 
L 713.131913 -116.475313 
L 716.070553 -116.475313 
L 719.009194 -116.475313 
L 721.947835 -116.475313 
L 724.886475 -116.475313 
L 727.825116 -116.475313 
L 730.763757 -116.475313 
L 733.702398 -116.475313 
L 733.702398 -145.779246 
L 733.702398 -145.779246 
L 730.763757 -146.578814 
L 727.825116 -147.354073 
L 724.886475 -148.102959 
L 721.947835 -148.823565 
L 719.009194 -149.514157 
L 716.070553 -150.173179 
L 713.131913 -150.799267 
L 710.193272 -151.391249 
L 707.254631 -151.948153 
L 704.31599 -152.469207 
L 701.37735 -152.953841 
L 698.438709 -153.401682 
L 695.500068 -153.812551 
L 692.561428 -154.186458 
L 689.622787 -154.523592 
L 686.684146 -154.824314 
L 683.745506 -155.089146 
L 680.806865 -155.318758 
L 677.868224 -155.513959 
L 674.929583 -155.675679 
L 671.990943 -155.80496 
L 669.052302 -155.902939 
L 666.113661 -155.970837 
L 663.175021 -156.009941 
L 660.23638 -156.021594 
L 657.297739 -156.007181 
L 654.359099 -155.968116 
L 651.420458 -155.905831 
L 648.481817 -155.821762 
L 645.543176 -155.717344 
L 642.604536 -155.593998 
L 639.665895 -155.453122 
L 636.727254 -155.296087 
L 633.788614 -155.124228 
L 630.849973 -154.938839 
L 627.911332 -154.741169 
L 624.972691 -154.532419 
L 622.034051 -154.313734 
L 619.09541 -154.08621 
L 616.156769 -153.850882 
L 613.218129 -153.608731 
L 610.279488 -153.36068 
L 607.340847 -153.107593 
L 604.402207 -152.850277 
L 601.463566 -152.589481 
L 598.524925 -152.325902 
L 595.586284 -152.060176 
L 592.647644 -151.792888 
L 589.709003 -151.524573 
L 586.770362 -151.25571 
L 583.831722 -150.986732 
L 580.893081 -150.718023 
L 577.95444 -150.449921 
L 575.0158 -150.182721 
L 572.077159 -149.916675 
L 569.138518 -149.651997 
L 566.199877 -149.388861 
L 563.261237 -149.12741 
L 560.322596 -148.867751 
L 557.383955 -148.609965 
L 554.445315 -148.354104 
L 551.506674 -148.100199 
L 548.568033 -147.848261 
L 545.629392 -147.598285 
L 542.690752 -147.350253 
L 539.752111 -147.104139 
L 536.81347 -146.859914 
L 533.87483 -146.617545 
L 530.936189 -146.377006 
L 527.997548 -146.138275 
L 525.058908 -145.901346 
L 522.120267 -145.666224 
L 519.181626 -145.432935 
L 516.242985 -145.201527 
L 513.304345 -144.972073 
L 510.365704 -144.744675 
L 507.427063 -144.519466 
L 504.488423 -144.296612 
L 501.549782 -144.076314 
L 498.611141 -143.858807 
L 495.672501 -143.644365 
L 492.73386 -143.433298 
L 489.795219 -143.225952 
L 486.856578 -143.02271 
L 483.917938 -142.823986 
L 480.979297 -142.63023 
L 478.040656 -142.441919 
L 475.102016 -142.259556 
L 472.163375 -142.083668 
L 469.224734 -141.9148 
L 466.286093 -141.753513 
L 463.347453 -141.600376 
L 460.408812 -141.455962 
L 457.470171 -141.320845 
L 454.531531 -141.19559 
L 451.59289 -141.080751 
L 448.654249 -140.976865 
L 445.715609 -140.884444 
L 442.776968 -140.80397 
L 439.838327 -140.735892 
L 436.899686 -140.680615 
L 433.961046 -140.638503 
L 431.022405 -140.609868 
L 428.083764 -140.594968 
L 425.145124 -140.594003 
L 422.206483 -140.607113 
L 419.267842 -140.634374 
L 416.329202 -140.6758 
L 413.390561 -140.731334 
L 410.45192 -140.800857 
L 407.513279 -140.884181 
L 404.574639 -140.981056 
L 401.635998 -141.091167 
L 398.697357 -141.214139 
L 395.758717 -141.349539 
L 392.820076 -141.496884 
L 389.881435 -141.655638 
L 386.942794 -141.825224 
L 384.004154 -142.005027 
L 381.065513 -142.194398 
L 378.126872 -142.392662 
L 375.188232 -142.599123 
L 372.249591 -142.813074 
L 369.31095 -143.033797 
L 366.37231 -143.260573 
L 363.433669 -143.492688 
L 360.495028 -143.729437 
L 357.556387 -143.97013 
L 354.617747 -144.214093 
L 351.679106 -144.460679 
L 348.740465 -144.709262 
L 345.801825 -144.959248 
L 342.863184 -145.210069 
L 339.924543 -145.46119 
L 336.985903 -145.712102 
L 334.047262 -145.962329 
L 331.108621 -146.211421 
L 328.16998 -146.458949 
L 325.23134 -146.704511 
L 322.292699 -146.947719 
L 319.354058 -147.188197 
L 316.415418 -147.425581 
L 313.476777 -147.659506 
L 310.538136 -147.889606 
L 307.599495 -148.115508 
L 304.660855 -148.336823 
L 301.722214 -148.553143 
L 298.783573 -148.764037 
L 295.844933 -148.969043 
L 292.906292 -149.167666 
L 289.967651 -149.359373 
L 287.029011 -149.543591 
L 284.09037 -149.719702 
L 281.151729 -149.887045 
L 278.213088 -150.044913 
L 275.274448 -150.192554 
L 272.335807 -150.329171 
L 269.397166 -150.453927 
L 266.458526 -150.565944 
L 263.519885 -150.66431 
L 260.581244 -150.748083 
L 257.642604 -150.816298 
L 254.703963 -150.86797 
L 251.765322 -150.902106 
L 248.826681 -150.917708 
L 245.888041 -150.913785 
L 242.9494 -150.88936 
L 240.010759 -150.84348 
L 237.072119 -150.775224 
L 234.133478 -150.683714 
L 231.194837 -150.568124 
L 228.256196 -150.427687 
L 225.317556 -150.261707 
L 222.378915 -150.069568 
L 219.440274 -149.850738 
L 216.501634 -149.604781 
L 213.562993 -149.331363 
L 210.624352 -149.030256 
L 207.685712 -148.701348 
L 204.747071 -148.344643 
L 201.80843 -147.960267 
L 198.869789 -147.548471 
L 195.931149 -147.109633 
L 192.992508 -146.644256 
L 190.053867 -146.152974 
L 187.115227 -145.636542 
L 184.176586 -145.095841 
L 181.237945 -144.531872 
L 178.299305 -143.94575 
L 175.360664 -143.3387 
L 172.422023 -142.712053 
L 169.483382 -142.067233 
L 166.544742 -141.405754 
L 163.606101 -140.729212 
L 160.66746 -140.039268 
L 157.72882 -139.337647 
L 154.790179 -138.626122 
L 151.851538 -137.906505 
L 148.912897 -137.180635 
z
" style="stroke: #3b528b"/>
    </defs>
    <g clip-path="url(#p44ab419f9b)">
     <use xlink:href="#m957d30dace" x="0" y="212.255313" style="fill: #3b528b; fill-opacity: 0.5; stroke: #3b528b"/>
    </g>
   </g>
   <g id="matplotlib.axis_1">
    <g id="xtick_1">
     <g id="line2d_1">
      <defs>
       <path id="m4482f47615" d="M 0 0 
L 0 3.5 
" style="stroke: #000000; stroke-width: 0.8"/>
      </defs>
      <g>
       <use xlink:href="#m4482f47615" x="148.912897" y="95.78" style="stroke: #000000; stroke-width: 0.8"/>
      </g>
     </g>
    </g>
    <g id="xtick_2">
     <g id="line2d_2">
      <g>
       <use xlink:href="#m4482f47615" x="265.870797" y="95.78" style="stroke: #000000; stroke-width: 0.8"/>
      </g>
     </g>
    </g>
    <g id="xtick_3">
     <g id="line2d_3">
      <g>
       <use xlink:href="#m4482f47615" x="382.828697" y="95.78" style="stroke: #000000; stroke-width: 0.8"/>
      </g>
     </g>
    </g>
    <g id="xtick_4">
     <g id="line2d_4">
      <g>
       <use xlink:href="#m4482f47615" x="499.786598" y="95.78" style="stroke: #000000; stroke-width: 0.8"/>
      </g>
     </g>
    </g>
    <g id="xtick_5">
     <g id="line2d_5">
      <g>
       <use xlink:href="#m4482f47615" x="616.744498" y="95.78" style="stroke: #000000; stroke-width: 0.8"/>
      </g>
     </g>
    </g>
    <g id="xtick_6">
     <g id="line2d_6">
      <g>
       <use xlink:href="#m4482f47615" x="733.702398" y="95.78" style="stroke: #000000; stroke-width: 0.8"/>
      </g>
     </g>
    </g>
   </g>
   <g id="matplotlib.axis_2"/>
   <g id="line2d_7">
    <path d="M 148.912897 75.074678 
L 163.606101 71.526101 
L 175.360664 68.916612 
L 184.176586 67.159471 
L 192.992508 65.611056 
L 201.80843 64.295045 
L 210.624352 63.225056 
L 219.440274 62.404575 
L 228.256196 61.827626 
L 237.072119 61.480088 
L 245.888041 61.341527 
L 254.703963 61.387342 
L 266.458526 61.689369 
L 278.213088 62.210399 
L 292.906292 63.087647 
L 310.538136 64.365706 
L 336.985903 66.54321 
L 369.31095 69.221516 
L 384.004154 70.250285 
L 398.697357 71.041174 
L 410.45192 71.454456 
L 422.206483 71.6482 
L 433.961046 71.616809 
L 445.715609 71.370868 
L 460.408812 70.79935 
L 475.102016 69.995757 
L 495.672501 68.610948 
L 522.120267 66.589088 
L 554.445315 63.901209 
L 589.709003 60.73074 
L 616.156769 58.40443 
L 630.849973 57.316473 
L 642.604536 56.661315 
L 651.420458 56.349482 
L 660.23638 56.233719 
L 669.052302 56.352373 
L 677.868224 56.741353 
L 686.684146 57.430998 
L 695.500068 58.442761 
L 704.31599 59.786106 
L 713.131913 61.456045 
L 721.947835 63.431748 
L 730.763757 65.676498 
L 733.702398 66.476067 
L 733.702398 66.476067 
" clip-path="url(#p44ab419f9b)" style="fill: none; stroke: #ffffff; stroke-width: 2; stroke-linecap: square"/>
   </g>
   <g id="line2d_8">
    <path d="M 148.912897 95.78 
L 733.702397 95.78 
" style="fill: none; stroke: #000000; stroke-linecap: square"/>
   </g>
   <g id="text_1">
    <g id="patch_3">
     <path d="M 23.41125 105.200937 
L 91.47 105.200937 
L 91.47 86.359062 
L 23.41125 86.359062 
z
" style="fill: #ffffff; opacity: 0.5"/>
    </g>
    <!-- Cargo Truck -->
    <g transform="translate(27.37125 98.651562) scale(0.12 -0.12)">
     <defs>
      <path id="TimesNewRomanPSMT-43" d="M 3853 4334 
L 3950 2894 
L 3853 2894 
Q 3659 3541 3300 3825 
Q 2941 4109 2438 4109 
Q 2016 4109 1675 3895 
Q 1334 3681 1139 3212 
Q 944 2744 944 2047 
Q 944 1472 1128 1050 
Q 1313 628 1683 403 
Q 2053 178 2528 178 
Q 2941 178 3256 354 
Q 3572 531 3950 1056 
L 4047 994 
Q 3728 428 3303 165 
Q 2878 -97 2294 -97 
Q 1241 -97 663 684 
Q 231 1266 231 2053 
Q 231 2688 515 3219 
Q 800 3750 1298 4042 
Q 1797 4334 2388 4334 
Q 2847 4334 3294 4109 
Q 3425 4041 3481 4041 
Q 3566 4041 3628 4100 
Q 3709 4184 3744 4334 
L 3853 4334 
z
" transform="scale(0.015625)"/>
      <path id="TimesNewRomanPSMT-61" d="M 1822 413 
Q 1381 72 1269 19 
Q 1100 -59 909 -59 
Q 613 -59 420 144 
Q 228 347 228 678 
Q 228 888 322 1041 
Q 450 1253 767 1440 
Q 1084 1628 1822 1897 
L 1822 2009 
Q 1822 2438 1686 2597 
Q 1550 2756 1291 2756 
Q 1094 2756 978 2650 
Q 859 2544 859 2406 
L 866 2225 
Q 866 2081 792 2003 
Q 719 1925 600 1925 
Q 484 1925 411 2006 
Q 338 2088 338 2228 
Q 338 2497 613 2722 
Q 888 2947 1384 2947 
Q 1766 2947 2009 2819 
Q 2194 2722 2281 2516 
Q 2338 2381 2338 1966 
L 2338 994 
Q 2338 584 2353 492 
Q 2369 400 2405 369 
Q 2441 338 2488 338 
Q 2538 338 2575 359 
Q 2641 400 2828 588 
L 2828 413 
Q 2478 -56 2159 -56 
Q 2006 -56 1915 50 
Q 1825 156 1822 413 
z
M 1822 616 
L 1822 1706 
Q 1350 1519 1213 1441 
Q 966 1303 859 1153 
Q 753 1003 753 825 
Q 753 600 887 451 
Q 1022 303 1197 303 
Q 1434 303 1822 616 
z
" transform="scale(0.015625)"/>
      <path id="TimesNewRomanPSMT-72" d="M 1038 2947 
L 1038 2303 
Q 1397 2947 1775 2947 
Q 1947 2947 2059 2842 
Q 2172 2738 2172 2600 
Q 2172 2478 2090 2393 
Q 2009 2309 1897 2309 
Q 1788 2309 1652 2417 
Q 1516 2525 1450 2525 
Q 1394 2525 1328 2463 
Q 1188 2334 1038 2041 
L 1038 669 
Q 1038 431 1097 309 
Q 1138 225 1241 169 
Q 1344 113 1538 113 
L 1538 0 
L 72 0 
L 72 113 
Q 291 113 397 181 
Q 475 231 506 341 
Q 522 394 522 644 
L 522 1753 
Q 522 2253 501 2348 
Q 481 2444 426 2487 
Q 372 2531 291 2531 
Q 194 2531 72 2484 
L 41 2597 
L 906 2947 
L 1038 2947 
z
" transform="scale(0.015625)"/>
      <path id="TimesNewRomanPSMT-67" d="M 966 1044 
Q 703 1172 562 1401 
Q 422 1631 422 1909 
Q 422 2334 742 2640 
Q 1063 2947 1563 2947 
Q 1972 2947 2272 2747 
L 2878 2747 
Q 3013 2747 3034 2739 
Q 3056 2731 3066 2713 
Q 3084 2684 3084 2613 
Q 3084 2531 3069 2500 
Q 3059 2484 3036 2475 
Q 3013 2466 2878 2466 
L 2506 2466 
Q 2681 2241 2681 1891 
Q 2681 1491 2375 1206 
Q 2069 922 1553 922 
Q 1341 922 1119 984 
Q 981 866 932 777 
Q 884 688 884 625 
Q 884 572 936 522 
Q 988 472 1138 450 
Q 1225 438 1575 428 
Q 2219 413 2409 384 
Q 2700 344 2873 169 
Q 3047 -6 3047 -263 
Q 3047 -616 2716 -925 
Q 2228 -1381 1444 -1381 
Q 841 -1381 425 -1109 
Q 191 -953 191 -784 
Q 191 -709 225 -634 
Q 278 -519 444 -313 
Q 466 -284 763 25 
Q 600 122 533 198 
Q 466 275 466 372 
Q 466 481 555 628 
Q 644 775 966 1044 
z
M 1509 2797 
Q 1278 2797 1122 2612 
Q 966 2428 966 2047 
Q 966 1553 1178 1281 
Q 1341 1075 1591 1075 
Q 1828 1075 1981 1253 
Q 2134 1431 2134 1813 
Q 2134 2309 1919 2591 
Q 1759 2797 1509 2797 
z
M 934 0 
Q 788 -159 713 -296 
Q 638 -434 638 -550 
Q 638 -700 819 -813 
Q 1131 -1006 1722 -1006 
Q 2284 -1006 2551 -807 
Q 2819 -609 2819 -384 
Q 2819 -222 2659 -153 
Q 2497 -84 2016 -72 
Q 1313 -53 934 0 
z
" transform="scale(0.015625)"/>
      <path id="TimesNewRomanPSMT-6f" d="M 1600 2947 
Q 2250 2947 2644 2453 
Q 2978 2031 2978 1484 
Q 2978 1100 2793 706 
Q 2609 313 2286 112 
Q 1963 -88 1566 -88 
Q 919 -88 538 428 
Q 216 863 216 1403 
Q 216 1797 411 2186 
Q 606 2575 925 2761 
Q 1244 2947 1600 2947 
z
M 1503 2744 
Q 1338 2744 1170 2645 
Q 1003 2547 900 2300 
Q 797 2053 797 1666 
Q 797 1041 1045 587 
Q 1294 134 1700 134 
Q 2003 134 2200 384 
Q 2397 634 2397 1244 
Q 2397 2006 2069 2444 
Q 1847 2744 1503 2744 
z
" transform="scale(0.015625)"/>
      <path id="TimesNewRomanPSMT-20" transform="scale(0.015625)"/>
      <path id="TimesNewRomanPSMT-54" d="M 3703 4238 
L 3750 3244 
L 3631 3244 
Q 3597 3506 3538 3619 
Q 3441 3800 3280 3886 
Q 3119 3972 2856 3972 
L 2259 3972 
L 2259 734 
Q 2259 344 2344 247 
Q 2463 116 2709 116 
L 2856 116 
L 2856 0 
L 1059 0 
L 1059 116 
L 1209 116 
Q 1478 116 1591 278 
Q 1659 378 1659 734 
L 1659 3972 
L 1150 3972 
Q 853 3972 728 3928 
Q 566 3869 450 3700 
Q 334 3531 313 3244 
L 194 3244 
L 244 4238 
L 3703 4238 
z
" transform="scale(0.015625)"/>
      <path id="TimesNewRomanPSMT-75" d="M 2709 2863 
L 2709 1128 
Q 2709 631 2732 520 
Q 2756 409 2807 365 
Q 2859 322 2928 322 
Q 3025 322 3147 375 
L 3191 266 
L 2334 -88 
L 2194 -88 
L 2194 519 
Q 1825 119 1631 15 
Q 1438 -88 1222 -88 
Q 981 -88 804 51 
Q 628 191 559 409 
Q 491 628 491 1028 
L 491 2306 
Q 491 2509 447 2587 
Q 403 2666 317 2708 
Q 231 2750 6 2747 
L 6 2863 
L 1009 2863 
L 1009 947 
Q 1009 547 1148 422 
Q 1288 297 1484 297 
Q 1619 297 1789 381 
Q 1959 466 2194 703 
L 2194 2325 
Q 2194 2569 2105 2655 
Q 2016 2741 1734 2747 
L 1734 2863 
L 2709 2863 
z
" transform="scale(0.015625)"/>
      <path id="TimesNewRomanPSMT-63" d="M 2631 1088 
Q 2516 522 2178 217 
Q 1841 -88 1431 -88 
Q 944 -88 581 321 
Q 219 731 219 1428 
Q 219 2103 620 2525 
Q 1022 2947 1584 2947 
Q 2006 2947 2278 2723 
Q 2550 2500 2550 2259 
Q 2550 2141 2473 2067 
Q 2397 1994 2259 1994 
Q 2075 1994 1981 2113 
Q 1928 2178 1911 2362 
Q 1894 2547 1784 2644 
Q 1675 2738 1481 2738 
Q 1169 2738 978 2506 
Q 725 2200 725 1697 
Q 725 1184 976 792 
Q 1228 400 1656 400 
Q 1963 400 2206 609 
Q 2378 753 2541 1131 
L 2631 1088 
z
" transform="scale(0.015625)"/>
      <path id="TimesNewRomanPSMT-6b" d="M 1047 4444 
L 1047 1597 
L 1775 2259 
Q 2006 2472 2044 2528 
Q 2069 2566 2069 2603 
Q 2069 2666 2017 2711 
Q 1966 2756 1847 2763 
L 1847 2863 
L 3091 2863 
L 3091 2763 
Q 2834 2756 2664 2684 
Q 2494 2613 2291 2428 
L 1556 1750 
L 2291 822 
Q 2597 438 2703 334 
Q 2853 188 2966 144 
Q 3044 113 3238 113 
L 3238 0 
L 1847 0 
L 1847 113 
Q 1966 116 2008 148 
Q 2050 181 2050 241 
Q 2050 313 1925 472 
L 1047 1594 
L 1047 644 
Q 1047 366 1086 278 
Q 1125 191 1197 153 
Q 1269 116 1509 113 
L 1509 0 
L 53 0 
L 53 113 
Q 272 113 381 166 
Q 447 200 481 272 
Q 528 375 528 628 
L 528 3234 
Q 528 3731 506 3842 
Q 484 3953 434 3995 
Q 384 4038 303 4038 
Q 238 4038 106 3984 
L 53 4094 
L 903 4444 
L 1047 4444 
z
" transform="scale(0.015625)"/>
     </defs>
     <use xlink:href="#TimesNewRomanPSMT-43"/>
     <use xlink:href="#TimesNewRomanPSMT-61" transform="translate(66.699219 0)"/>
     <use xlink:href="#TimesNewRomanPSMT-72" transform="translate(111.083984 0)"/>
     <use xlink:href="#TimesNewRomanPSMT-67" transform="translate(142.634766 0)"/>
     <use xlink:href="#TimesNewRomanPSMT-6f" transform="translate(192.634766 0)"/>
     <use xlink:href="#TimesNewRomanPSMT-20" transform="translate(242.634766 0)"/>
     <use xlink:href="#TimesNewRomanPSMT-54" transform="translate(265.884766 0)"/>
     <use xlink:href="#TimesNewRomanPSMT-72" transform="translate(323.46875 0)"/>
     <use xlink:href="#TimesNewRomanPSMT-75" transform="translate(356.769531 0)"/>
     <use xlink:href="#TimesNewRomanPSMT-63" transform="translate(406.769531 0)"/>
     <use xlink:href="#TimesNewRomanPSMT-6b" transform="translate(451.154297 0)"/>
    </g>
   </g>
  </g>
  <g id="axes_2">
   <g id="patch_4">
    <path d="M 148.912897 133.11 
L 733.702397 133.11 
L 733.702397 58.45 
L 148.912897 58.45 
L 148.912897 133.11 
z
" style="fill: none; opacity: 0"/>
   </g>
   <g id="FillBetweenPolyCollection_2">
    <defs>
     <path id="mb5d54c8d70" d="M 148.912897 -87.946199 
L 148.912897 -79.145313 
L 151.851538 -79.145313 
L 154.790179 -79.145313 
L 157.72882 -79.145313 
L 160.66746 -79.145313 
L 163.606101 -79.145313 
L 166.544742 -79.145313 
L 169.483382 -79.145313 
L 172.422023 -79.145313 
L 175.360664 -79.145313 
L 178.299305 -79.145313 
L 181.237945 -79.145313 
L 184.176586 -79.145313 
L 187.115227 -79.145313 
L 190.053867 -79.145313 
L 192.992508 -79.145313 
L 195.931149 -79.145313 
L 198.869789 -79.145313 
L 201.80843 -79.145313 
L 204.747071 -79.145313 
L 207.685712 -79.145313 
L 210.624352 -79.145313 
L 213.562993 -79.145313 
L 216.501634 -79.145313 
L 219.440274 -79.145313 
L 222.378915 -79.145313 
L 225.317556 -79.145313 
L 228.256196 -79.145313 
L 231.194837 -79.145313 
L 234.133478 -79.145313 
L 237.072119 -79.145313 
L 240.010759 -79.145313 
L 242.9494 -79.145313 
L 245.888041 -79.145313 
L 248.826681 -79.145313 
L 251.765322 -79.145313 
L 254.703963 -79.145313 
L 257.642604 -79.145313 
L 260.581244 -79.145313 
L 263.519885 -79.145313 
L 266.458526 -79.145313 
L 269.397166 -79.145313 
L 272.335807 -79.145313 
L 275.274448 -79.145313 
L 278.213088 -79.145313 
L 281.151729 -79.145313 
L 284.09037 -79.145313 
L 287.029011 -79.145313 
L 289.967651 -79.145313 
L 292.906292 -79.145313 
L 295.844933 -79.145313 
L 298.783573 -79.145313 
L 301.722214 -79.145313 
L 304.660855 -79.145313 
L 307.599495 -79.145313 
L 310.538136 -79.145313 
L 313.476777 -79.145313 
L 316.415418 -79.145313 
L 319.354058 -79.145313 
L 322.292699 -79.145313 
L 325.23134 -79.145313 
L 328.16998 -79.145313 
L 331.108621 -79.145313 
L 334.047262 -79.145313 
L 336.985903 -79.145313 
L 339.924543 -79.145313 
L 342.863184 -79.145313 
L 345.801825 -79.145313 
L 348.740465 -79.145313 
L 351.679106 -79.145313 
L 354.617747 -79.145313 
L 357.556387 -79.145313 
L 360.495028 -79.145313 
L 363.433669 -79.145313 
L 366.37231 -79.145313 
L 369.31095 -79.145313 
L 372.249591 -79.145313 
L 375.188232 -79.145313 
L 378.126872 -79.145313 
L 381.065513 -79.145313 
L 384.004154 -79.145313 
L 386.942794 -79.145313 
L 389.881435 -79.145313 
L 392.820076 -79.145313 
L 395.758717 -79.145313 
L 398.697357 -79.145313 
L 401.635998 -79.145313 
L 404.574639 -79.145313 
L 407.513279 -79.145313 
L 410.45192 -79.145313 
L 413.390561 -79.145313 
L 416.329202 -79.145313 
L 419.267842 -79.145313 
L 422.206483 -79.145313 
L 425.145124 -79.145313 
L 428.083764 -79.145313 
L 431.022405 -79.145313 
L 433.961046 -79.145313 
L 436.899686 -79.145313 
L 439.838327 -79.145313 
L 442.776968 -79.145313 
L 445.715609 -79.145313 
L 448.654249 -79.145313 
L 451.59289 -79.145313 
L 454.531531 -79.145313 
L 457.470171 -79.145313 
L 460.408812 -79.145313 
L 463.347453 -79.145313 
L 466.286093 -79.145313 
L 469.224734 -79.145313 
L 472.163375 -79.145313 
L 475.102016 -79.145313 
L 478.040656 -79.145313 
L 480.979297 -79.145313 
L 483.917938 -79.145313 
L 486.856578 -79.145313 
L 489.795219 -79.145313 
L 492.73386 -79.145313 
L 495.672501 -79.145313 
L 498.611141 -79.145313 
L 501.549782 -79.145313 
L 504.488423 -79.145313 
L 507.427063 -79.145313 
L 510.365704 -79.145313 
L 513.304345 -79.145313 
L 516.242985 -79.145313 
L 519.181626 -79.145313 
L 522.120267 -79.145313 
L 525.058908 -79.145313 
L 527.997548 -79.145313 
L 530.936189 -79.145313 
L 533.87483 -79.145313 
L 536.81347 -79.145313 
L 539.752111 -79.145313 
L 542.690752 -79.145313 
L 545.629392 -79.145313 
L 548.568033 -79.145313 
L 551.506674 -79.145313 
L 554.445315 -79.145313 
L 557.383955 -79.145313 
L 560.322596 -79.145313 
L 563.261237 -79.145313 
L 566.199877 -79.145313 
L 569.138518 -79.145313 
L 572.077159 -79.145313 
L 575.0158 -79.145313 
L 577.95444 -79.145313 
L 580.893081 -79.145313 
L 583.831722 -79.145313 
L 586.770362 -79.145313 
L 589.709003 -79.145313 
L 592.647644 -79.145313 
L 595.586284 -79.145313 
L 598.524925 -79.145313 
L 601.463566 -79.145313 
L 604.402207 -79.145313 
L 607.340847 -79.145313 
L 610.279488 -79.145313 
L 613.218129 -79.145313 
L 616.156769 -79.145313 
L 619.09541 -79.145313 
L 622.034051 -79.145313 
L 624.972691 -79.145313 
L 627.911332 -79.145313 
L 630.849973 -79.145313 
L 633.788614 -79.145313 
L 636.727254 -79.145313 
L 639.665895 -79.145313 
L 642.604536 -79.145313 
L 645.543176 -79.145313 
L 648.481817 -79.145313 
L 651.420458 -79.145313 
L 654.359099 -79.145313 
L 657.297739 -79.145313 
L 660.23638 -79.145313 
L 663.175021 -79.145313 
L 666.113661 -79.145313 
L 669.052302 -79.145313 
L 671.990943 -79.145313 
L 674.929583 -79.145313 
L 677.868224 -79.145313 
L 680.806865 -79.145313 
L 683.745506 -79.145313 
L 686.684146 -79.145313 
L 689.622787 -79.145313 
L 692.561428 -79.145313 
L 695.500068 -79.145313 
L 698.438709 -79.145313 
L 701.37735 -79.145313 
L 704.31599 -79.145313 
L 707.254631 -79.145313 
L 710.193272 -79.145313 
L 713.131913 -79.145313 
L 716.070553 -79.145313 
L 719.009194 -79.145313 
L 721.947835 -79.145313 
L 724.886475 -79.145313 
L 727.825116 -79.145313 
L 730.763757 -79.145313 
L 733.702398 -79.145313 
L 733.702398 -100.34933 
L 733.702398 -100.34933 
L 730.763757 -101.292434 
L 727.825116 -102.226666 
L 724.886475 -103.150144 
L 721.947835 -104.061359 
L 719.009194 -104.959192 
L 716.070553 -105.842918 
L 713.131913 -106.712204 
L 710.193272 -107.567093 
L 707.254631 -108.407987 
L 704.31599 -109.235615 
L 701.37735 -110.050999 
L 698.438709 -110.855417 
L 695.500068 -111.650359 
L 692.561428 -112.437483 
L 689.622787 -113.218571 
L 686.684146 -113.995489 
L 683.745506 -114.770142 
L 680.806865 -115.544441 
L 677.868224 -116.320269 
L 674.929583 -117.099451 
L 671.990943 -117.883734 
L 669.052302 -118.674762 
L 666.113661 -119.474064 
L 663.175021 -120.283042 
L 660.23638 -121.102959 
L 657.297739 -121.934932 
L 654.359099 -122.77992 
L 651.420458 -123.638721 
L 648.481817 -124.511956 
L 645.543176 -125.40006 
L 642.604536 -126.303267 
L 639.665895 -127.22159 
L 636.727254 -128.154801 
L 633.788614 -129.102411 
L 630.849973 -130.063646 
L 627.911332 -131.037417 
L 624.972691 -132.022307 
L 622.034051 -133.016543 
L 619.09541 -134.01798 
L 616.156769 -135.024093 
L 613.218129 -136.031973 
L 610.279488 -137.038328 
L 607.340847 -138.039503 
L 604.402207 -139.031499 
L 601.463566 -140.010012 
L 598.524925 -140.970477 
L 595.586284 -141.908124 
L 592.647644 -142.818046 
L 589.709003 -143.695265 
L 586.770362 -144.534818 
L 583.831722 -145.331831 
L 580.893081 -146.081609 
L 577.95444 -146.77971 
L 575.0158 -147.422026 
L 572.077159 -148.004851 
L 569.138518 -148.524943 
L 566.199877 -148.97957 
L 563.261237 -149.366549 
L 560.322596 -149.684265 
L 557.383955 -149.931679 
L 554.445315 -150.10832 
L 551.506674 -150.21426 
L 548.568033 -150.250074 
L 545.629392 -150.216799 
L 542.690752 -150.115865 
L 539.752111 -149.949031 
L 536.81347 -149.718314 
L 533.87483 -149.425911 
L 530.936189 -149.074122 
L 527.997548 -148.66528 
L 525.058908 -148.201681 
L 522.120267 -147.685526 
L 519.181626 -147.11887 
L 516.242985 -146.503582 
L 513.304345 -145.841319 
L 510.365704 -145.133508 
L 507.427063 -144.381347 
L 504.488423 -143.58581 
L 501.549782 -142.747674 
L 498.611141 -141.867546 
L 495.672501 -140.945902 
L 492.73386 -139.983137 
L 489.795219 -138.979614 
L 486.856578 -137.935721 
L 483.917938 -136.851926 
L 480.979297 -135.728833 
L 478.040656 -134.567233 
L 475.102016 -133.368155 
L 472.163375 -132.132907 
L 469.224734 -130.863114 
L 466.286093 -129.560743 
L 463.347453 -128.228123 
L 460.408812 -126.867956 
L 457.470171 -125.483318 
L 454.531531 -124.077645 
L 451.59289 -122.654722 
L 448.654249 -121.218646 
L 445.715609 -119.773799 
L 442.776968 -118.3248 
L 439.838327 -116.876459 
L 436.899686 -115.433716 
L 433.961046 -114.001591 
L 431.022405 -112.585117 
L 428.083764 -111.189279 
L 425.145124 -109.818954 
L 422.206483 -108.478849 
L 419.267842 -107.173445 
L 416.329202 -105.906945 
L 413.390561 -104.683225 
L 410.45192 -103.505796 
L 407.513279 -102.37777 
L 404.574639 -101.301835 
L 401.635998 -100.280241 
L 398.697357 -99.314786 
L 395.758717 -98.40682 
L 392.820076 -97.557255 
L 389.881435 -96.766573 
L 386.942794 -96.034852 
L 384.004154 -95.361791 
L 381.065513 -94.746738 
L 378.126872 -94.188726 
L 375.188232 -93.686505 
L 372.249591 -93.238576 
L 369.31095 -92.843226 
L 366.37231 -92.498557 
L 363.433669 -92.202517 
L 360.495028 -91.952922 
L 357.556387 -91.747477 
L 354.617747 -91.583795 
L 351.679106 -91.459404 
L 348.740465 -91.37176 
L 345.801825 -91.31825 
L 342.863184 -91.296194 
L 339.924543 -91.302848 
L 336.985903 -91.3354 
L 334.047262 -91.390973 
L 331.108621 -91.466627 
L 328.16998 -91.559365 
L 325.23134 -91.666135 
L 322.292699 -91.783848 
L 319.354058 -91.90939 
L 316.415418 -92.039647 
L 313.476777 -92.171525 
L 310.538136 -92.301986 
L 307.599495 -92.428077 
L 304.660855 -92.546974 
L 301.722214 -92.656013 
L 298.783573 -92.752737 
L 295.844933 -92.834933 
L 292.906292 -92.900668 
L 289.967651 -92.948329 
L 287.029011 -92.976646 
L 284.09037 -92.984723 
L 281.151729 -92.97205 
L 278.213088 -92.938513 
L 275.274448 -92.884397 
L 272.335807 -92.810372 
L 269.397166 -92.717484 
L 266.458526 -92.607121 
L 263.519885 -92.480981 
L 260.581244 -92.341034 
L 257.642604 -92.189469 
L 254.703963 -92.028644 
L 251.765322 -91.861026 
L 248.826681 -91.689137 
L 245.888041 -91.51549 
L 242.9494 -91.34253 
L 240.010759 -91.172582 
L 237.072119 -91.007793 
L 234.133478 -90.850087 
L 231.194837 -90.701124 
L 228.256196 -90.562262 
L 225.317556 -90.434532 
L 222.378915 -90.318618 
L 219.440274 -90.214845 
L 216.501634 -90.123179 
L 213.562993 -90.043227 
L 210.624352 -89.974255 
L 207.685712 -89.915206 
L 204.747071 -89.864726 
L 201.80843 -89.821199 
L 198.869789 -89.782781 
L 195.931149 -89.747446 
L 192.992508 -89.713028 
L 190.053867 -89.677272 
L 187.115227 -89.637878 
L 184.176586 -89.592552 
L 181.237945 -89.539054 
L 178.299305 -89.475246 
L 175.360664 -89.399132 
L 172.422023 -89.308902 
L 169.483382 -89.202965 
L 166.544742 -89.079984 
L 163.606101 -88.938899 
L 160.66746 -88.778946 
L 157.72882 -88.599674 
L 154.790179 -88.40095 
L 151.851538 -88.182959 
L 148.912897 -87.946199 
z
" style="stroke: #21918c"/>
    </defs>
    <g clip-path="url(#pb532cb89a6)">
     <use xlink:href="#mb5d54c8d70" x="0" y="212.255313" style="fill: #21918c; fill-opacity: 0.5; stroke: #21918c"/>
    </g>
   </g>
   <g id="matplotlib.axis_3">
    <g id="xtick_7">
     <g id="line2d_9">
      <g>
       <use xlink:href="#m4482f47615" x="148.912897" y="133.11" style="stroke: #000000; stroke-width: 0.8"/>
      </g>
     </g>
    </g>
    <g id="xtick_8">
     <g id="line2d_10">
      <g>
       <use xlink:href="#m4482f47615" x="265.870797" y="133.11" style="stroke: #000000; stroke-width: 0.8"/>
      </g>
     </g>
    </g>
    <g id="xtick_9">
     <g id="line2d_11">
      <g>
       <use xlink:href="#m4482f47615" x="382.828697" y="133.11" style="stroke: #000000; stroke-width: 0.8"/>
      </g>
     </g>
    </g>
    <g id="xtick_10">
     <g id="line2d_12">
      <g>
       <use xlink:href="#m4482f47615" x="499.786598" y="133.11" style="stroke: #000000; stroke-width: 0.8"/>
      </g>
     </g>
    </g>
    <g id="xtick_11">
     <g id="line2d_13">
      <g>
       <use xlink:href="#m4482f47615" x="616.744498" y="133.11" style="stroke: #000000; stroke-width: 0.8"/>
      </g>
     </g>
    </g>
    <g id="xtick_12">
     <g id="line2d_14">
      <g>
       <use xlink:href="#m4482f47615" x="733.702398" y="133.11" style="stroke: #000000; stroke-width: 0.8"/>
      </g>
     </g>
    </g>
   </g>
   <g id="matplotlib.axis_4"/>
   <g id="line2d_15">
    <path d="M 148.912897 124.309113 
L 157.72882 123.655638 
L 166.544742 123.175328 
L 178.299305 122.780066 
L 195.931149 122.507867 
L 213.562993 122.212086 
L 225.317556 121.82078 
L 240.010759 121.082731 
L 266.458526 119.648192 
L 278.213088 119.316799 
L 287.029011 119.278666 
L 298.783573 119.502575 
L 313.476777 120.083787 
L 331.108621 120.788685 
L 339.924543 120.952464 
L 348.740465 120.883553 
L 354.617747 120.671518 
L 360.495028 120.30239 
L 366.37231 119.756755 
L 372.249591 119.016736 
L 378.126872 118.066586 
L 384.004154 116.893522 
L 389.881435 115.488739 
L 395.758717 113.848492 
L 401.635998 111.975072 
L 407.513279 109.877543 
L 413.390561 107.572088 
L 419.267842 105.081867 
L 428.083764 101.066034 
L 439.838327 95.378854 
L 457.470171 86.771995 
L 466.286093 82.69457 
L 475.102016 78.887158 
L 483.917938 75.403386 
L 489.795219 73.275699 
L 495.672501 71.309411 
L 501.549782 69.507638 
L 507.427063 67.873966 
L 513.304345 66.413993 
L 519.181626 65.136443 
L 525.058908 64.053632 
L 530.936189 63.18119 
L 536.81347 62.536998 
L 542.690752 62.139448 
L 548.568033 62.005238 
L 554.445315 62.146992 
L 560.322596 62.571048 
L 566.199877 63.275742 
L 572.077159 64.250461 
L 577.95444 65.475602 
L 583.831722 66.923481 
L 589.709003 68.560047 
L 598.524925 71.284836 
L 610.279488 75.216984 
L 633.788614 83.152901 
L 645.543176 86.855252 
L 657.297739 90.320381 
L 671.990943 94.371579 
L 707.254631 103.847325 
L 719.009194 107.296121 
L 730.763757 110.962879 
L 733.702398 111.905983 
L 733.702398 111.905983 
" clip-path="url(#pb532cb89a6)" style="fill: none; stroke: #ffffff; stroke-width: 2; stroke-linecap: square"/>
   </g>
   <g id="line2d_16">
    <path d="M 148.912897 133.11 
L 733.702397 133.11 
" style="fill: none; stroke: #000000; stroke-linecap: square"/>
   </g>
   <g id="text_2">
    <g id="patch_5">
     <path d="M 3.24 142.519688 
L 91.47 142.519688 
L 91.47 123.700312 
L 3.24 123.700312 
z
" style="fill: #ffffff; opacity: 0.5"/>
    </g>
    <!-- Courier Services -->
    <g transform="translate(7.2 135.992813) scale(0.12 -0.12)">
     <defs>
      <path id="TimesNewRomanPSMT-69" d="M 928 4444 
Q 1059 4444 1151 4351 
Q 1244 4259 1244 4128 
Q 1244 3997 1151 3903 
Q 1059 3809 928 3809 
Q 797 3809 703 3903 
Q 609 3997 609 4128 
Q 609 4259 701 4351 
Q 794 4444 928 4444 
z
M 1188 2947 
L 1188 647 
Q 1188 378 1227 289 
Q 1266 200 1342 156 
Q 1419 113 1622 113 
L 1622 0 
L 231 0 
L 231 113 
Q 441 113 512 153 
Q 584 194 626 287 
Q 669 381 669 647 
L 669 1750 
Q 669 2216 641 2353 
Q 619 2453 572 2492 
Q 525 2531 444 2531 
Q 356 2531 231 2484 
L 188 2597 
L 1050 2947 
L 1188 2947 
z
" transform="scale(0.015625)"/>
      <path id="TimesNewRomanPSMT-65" d="M 681 1784 
Q 678 1147 991 784 
Q 1303 422 1725 422 
Q 2006 422 2214 576 
Q 2422 731 2563 1106 
L 2659 1044 
Q 2594 616 2278 264 
Q 1963 -88 1488 -88 
Q 972 -88 605 314 
Q 238 716 238 1394 
Q 238 2128 614 2539 
Q 991 2950 1559 2950 
Q 2041 2950 2350 2633 
Q 2659 2316 2659 1784 
L 681 1784 
z
M 681 1966 
L 2006 1966 
Q 1991 2241 1941 2353 
Q 1863 2528 1708 2628 
Q 1553 2728 1384 2728 
Q 1125 2728 920 2526 
Q 716 2325 681 1966 
z
" transform="scale(0.015625)"/>
      <path id="TimesNewRomanPSMT-53" d="M 2934 4334 
L 2934 2869 
L 2819 2869 
Q 2763 3291 2617 3541 
Q 2472 3791 2203 3937 
Q 1934 4084 1647 4084 
Q 1322 4084 1109 3886 
Q 897 3688 897 3434 
Q 897 3241 1031 3081 
Q 1225 2847 1953 2456 
Q 2547 2138 2764 1967 
Q 2981 1797 3098 1565 
Q 3216 1334 3216 1081 
Q 3216 600 2842 251 
Q 2469 -97 1881 -97 
Q 1697 -97 1534 -69 
Q 1438 -53 1133 45 
Q 828 144 747 144 
Q 669 144 623 97 
Q 578 50 556 -97 
L 441 -97 
L 441 1356 
L 556 1356 
Q 638 900 775 673 
Q 913 447 1195 297 
Q 1478 147 1816 147 
Q 2206 147 2432 353 
Q 2659 559 2659 841 
Q 2659 997 2573 1156 
Q 2488 1316 2306 1453 
Q 2184 1547 1640 1851 
Q 1097 2156 867 2337 
Q 638 2519 519 2737 
Q 400 2956 400 3219 
Q 400 3675 750 4004 
Q 1100 4334 1641 4334 
Q 1978 4334 2356 4169 
Q 2531 4091 2603 4091 
Q 2684 4091 2736 4139 
Q 2788 4188 2819 4334 
L 2934 4334 
z
" transform="scale(0.015625)"/>
      <path id="TimesNewRomanPSMT-76" d="M 53 2863 
L 1400 2863 
L 1400 2747 
L 1313 2747 
Q 1191 2747 1127 2687 
Q 1063 2628 1063 2528 
Q 1063 2419 1128 2269 
L 1794 688 
L 2463 2328 
Q 2534 2503 2534 2594 
Q 2534 2638 2509 2666 
Q 2475 2713 2422 2730 
Q 2369 2747 2206 2747 
L 2206 2863 
L 3141 2863 
L 3141 2747 
Q 2978 2734 2916 2681 
Q 2806 2588 2719 2369 
L 1703 -88 
L 1575 -88 
L 553 2328 
Q 484 2497 421 2570 
Q 359 2644 263 2694 
Q 209 2722 53 2747 
L 53 2863 
z
" transform="scale(0.015625)"/>
      <path id="TimesNewRomanPSMT-73" d="M 2050 2947 
L 2050 1972 
L 1947 1972 
Q 1828 2431 1642 2597 
Q 1456 2763 1169 2763 
Q 950 2763 815 2647 
Q 681 2531 681 2391 
Q 681 2216 781 2091 
Q 878 1963 1175 1819 
L 1631 1597 
Q 2266 1288 2266 781 
Q 2266 391 1970 151 
Q 1675 -88 1309 -88 
Q 1047 -88 709 6 
Q 606 38 541 38 
Q 469 38 428 -44 
L 325 -44 
L 325 978 
L 428 978 
Q 516 541 762 319 
Q 1009 97 1316 97 
Q 1531 97 1667 223 
Q 1803 350 1803 528 
Q 1803 744 1651 891 
Q 1500 1038 1047 1263 
Q 594 1488 453 1669 
Q 313 1847 313 2119 
Q 313 2472 555 2709 
Q 797 2947 1181 2947 
Q 1350 2947 1591 2875 
Q 1750 2828 1803 2828 
Q 1853 2828 1881 2850 
Q 1909 2872 1947 2947 
L 2050 2947 
z
" transform="scale(0.015625)"/>
     </defs>
     <use xlink:href="#TimesNewRomanPSMT-43"/>
     <use xlink:href="#TimesNewRomanPSMT-6f" transform="translate(66.699219 0)"/>
     <use xlink:href="#TimesNewRomanPSMT-75" transform="translate(116.699219 0)"/>
     <use xlink:href="#TimesNewRomanPSMT-72" transform="translate(166.699219 0)"/>
     <use xlink:href="#TimesNewRomanPSMT-69" transform="translate(200 0)"/>
     <use xlink:href="#TimesNewRomanPSMT-65" transform="translate(227.783203 0)"/>
     <use xlink:href="#TimesNewRomanPSMT-72" transform="translate(272.167969 0)"/>
     <use xlink:href="#TimesNewRomanPSMT-20" transform="translate(305.46875 0)"/>
     <use xlink:href="#TimesNewRomanPSMT-53" transform="translate(330.46875 0)"/>
     <use xlink:href="#TimesNewRomanPSMT-65" transform="translate(386.083984 0)"/>
     <use xlink:href="#TimesNewRomanPSMT-72" transform="translate(430.46875 0)"/>
     <use xlink:href="#TimesNewRomanPSMT-76" transform="translate(463.769531 0)"/>
     <use xlink:href="#TimesNewRomanPSMT-69" transform="translate(513.769531 0)"/>
     <use xlink:href="#TimesNewRomanPSMT-63" transform="translate(541.552734 0)"/>
     <use xlink:href="#TimesNewRomanPSMT-65" transform="translate(585.9375 0)"/>
     <use xlink:href="#TimesNewRomanPSMT-73" transform="translate(630.322266 0)"/>
    </g>
   </g>
  </g>
  <g id="axes_3">
   <g id="patch_6">
    <path d="M 148.912897 170.44 
L 733.702397 170.44 
L 733.702397 95.78 
L 148.912897 95.78 
L 148.912897 170.44 
z
" style="fill: none; opacity: 0"/>
   </g>
   <g id="FillBetweenPolyCollection_3">
    <defs>
     <path id="m17dcc907d5" d="M 148.912897 -46.446379 
L 148.912897 -41.815313 
L 151.851538 -41.815313 
L 154.790179 -41.815313 
L 157.72882 -41.815313 
L 160.66746 -41.815313 
L 163.606101 -41.815313 
L 166.544742 -41.815313 
L 169.483382 -41.815313 
L 172.422023 -41.815313 
L 175.360664 -41.815313 
L 178.299305 -41.815313 
L 181.237945 -41.815313 
L 184.176586 -41.815313 
L 187.115227 -41.815313 
L 190.053867 -41.815313 
L 192.992508 -41.815313 
L 195.931149 -41.815313 
L 198.869789 -41.815313 
L 201.80843 -41.815313 
L 204.747071 -41.815313 
L 207.685712 -41.815313 
L 210.624352 -41.815313 
L 213.562993 -41.815313 
L 216.501634 -41.815313 
L 219.440274 -41.815313 
L 222.378915 -41.815313 
L 225.317556 -41.815313 
L 228.256196 -41.815313 
L 231.194837 -41.815313 
L 234.133478 -41.815313 
L 237.072119 -41.815313 
L 240.010759 -41.815313 
L 242.9494 -41.815313 
L 245.888041 -41.815313 
L 248.826681 -41.815313 
L 251.765322 -41.815313 
L 254.703963 -41.815313 
L 257.642604 -41.815313 
L 260.581244 -41.815313 
L 263.519885 -41.815313 
L 266.458526 -41.815313 
L 269.397166 -41.815313 
L 272.335807 -41.815313 
L 275.274448 -41.815313 
L 278.213088 -41.815313 
L 281.151729 -41.815313 
L 284.09037 -41.815313 
L 287.029011 -41.815313 
L 289.967651 -41.815313 
L 292.906292 -41.815313 
L 295.844933 -41.815313 
L 298.783573 -41.815313 
L 301.722214 -41.815313 
L 304.660855 -41.815313 
L 307.599495 -41.815313 
L 310.538136 -41.815313 
L 313.476777 -41.815313 
L 316.415418 -41.815313 
L 319.354058 -41.815313 
L 322.292699 -41.815313 
L 325.23134 -41.815313 
L 328.16998 -41.815313 
L 331.108621 -41.815313 
L 334.047262 -41.815313 
L 336.985903 -41.815313 
L 339.924543 -41.815313 
L 342.863184 -41.815313 
L 345.801825 -41.815313 
L 348.740465 -41.815313 
L 351.679106 -41.815313 
L 354.617747 -41.815313 
L 357.556387 -41.815313 
L 360.495028 -41.815313 
L 363.433669 -41.815313 
L 366.37231 -41.815313 
L 369.31095 -41.815313 
L 372.249591 -41.815313 
L 375.188232 -41.815313 
L 378.126872 -41.815313 
L 381.065513 -41.815313 
L 384.004154 -41.815313 
L 386.942794 -41.815313 
L 389.881435 -41.815313 
L 392.820076 -41.815313 
L 395.758717 -41.815313 
L 398.697357 -41.815313 
L 401.635998 -41.815313 
L 404.574639 -41.815313 
L 407.513279 -41.815313 
L 410.45192 -41.815313 
L 413.390561 -41.815313 
L 416.329202 -41.815313 
L 419.267842 -41.815313 
L 422.206483 -41.815313 
L 425.145124 -41.815313 
L 428.083764 -41.815313 
L 431.022405 -41.815313 
L 433.961046 -41.815313 
L 436.899686 -41.815313 
L 439.838327 -41.815313 
L 442.776968 -41.815313 
L 445.715609 -41.815313 
L 448.654249 -41.815313 
L 451.59289 -41.815313 
L 454.531531 -41.815313 
L 457.470171 -41.815313 
L 460.408812 -41.815313 
L 463.347453 -41.815313 
L 466.286093 -41.815313 
L 469.224734 -41.815313 
L 472.163375 -41.815313 
L 475.102016 -41.815313 
L 478.040656 -41.815313 
L 480.979297 -41.815313 
L 483.917938 -41.815313 
L 486.856578 -41.815313 
L 489.795219 -41.815313 
L 492.73386 -41.815313 
L 495.672501 -41.815313 
L 498.611141 -41.815313 
L 501.549782 -41.815313 
L 504.488423 -41.815313 
L 507.427063 -41.815313 
L 510.365704 -41.815313 
L 513.304345 -41.815313 
L 516.242985 -41.815313 
L 519.181626 -41.815313 
L 522.120267 -41.815313 
L 525.058908 -41.815313 
L 527.997548 -41.815313 
L 530.936189 -41.815313 
L 533.87483 -41.815313 
L 536.81347 -41.815313 
L 539.752111 -41.815313 
L 542.690752 -41.815313 
L 545.629392 -41.815313 
L 548.568033 -41.815313 
L 551.506674 -41.815313 
L 554.445315 -41.815313 
L 557.383955 -41.815313 
L 560.322596 -41.815313 
L 563.261237 -41.815313 
L 566.199877 -41.815313 
L 569.138518 -41.815313 
L 572.077159 -41.815313 
L 575.0158 -41.815313 
L 577.95444 -41.815313 
L 580.893081 -41.815313 
L 583.831722 -41.815313 
L 586.770362 -41.815313 
L 589.709003 -41.815313 
L 592.647644 -41.815313 
L 595.586284 -41.815313 
L 598.524925 -41.815313 
L 601.463566 -41.815313 
L 604.402207 -41.815313 
L 607.340847 -41.815313 
L 610.279488 -41.815313 
L 613.218129 -41.815313 
L 616.156769 -41.815313 
L 619.09541 -41.815313 
L 622.034051 -41.815313 
L 624.972691 -41.815313 
L 627.911332 -41.815313 
L 630.849973 -41.815313 
L 633.788614 -41.815313 
L 636.727254 -41.815313 
L 639.665895 -41.815313 
L 642.604536 -41.815313 
L 645.543176 -41.815313 
L 648.481817 -41.815313 
L 651.420458 -41.815313 
L 654.359099 -41.815313 
L 657.297739 -41.815313 
L 660.23638 -41.815313 
L 663.175021 -41.815313 
L 666.113661 -41.815313 
L 669.052302 -41.815313 
L 671.990943 -41.815313 
L 674.929583 -41.815313 
L 677.868224 -41.815313 
L 680.806865 -41.815313 
L 683.745506 -41.815313 
L 686.684146 -41.815313 
L 689.622787 -41.815313 
L 692.561428 -41.815313 
L 695.500068 -41.815313 
L 698.438709 -41.815313 
L 701.37735 -41.815313 
L 704.31599 -41.815313 
L 707.254631 -41.815313 
L 710.193272 -41.815313 
L 713.131913 -41.815313 
L 716.070553 -41.815313 
L 719.009194 -41.815313 
L 721.947835 -41.815313 
L 724.886475 -41.815313 
L 727.825116 -41.815313 
L 730.763757 -41.815313 
L 733.702398 -41.815313 
L 733.702398 -47.428279 
L 733.702398 -47.428279 
L 730.763757 -47.603956 
L 727.825116 -47.775287 
L 724.886475 -47.944447 
L 721.947835 -48.113909 
L 719.009194 -48.286358 
L 716.070553 -48.464595 
L 713.131913 -48.651432 
L 710.193272 -48.849597 
L 707.254631 -49.061639 
L 704.31599 -49.289851 
L 701.37735 -49.536206 
L 698.438709 -49.802322 
L 695.500068 -50.089446 
L 692.561428 -50.398472 
L 689.622787 -50.729981 
L 686.684146 -51.084308 
L 683.745506 -51.46164 
L 680.806865 -51.862122 
L 677.868224 -52.285979 
L 674.929583 -52.733645 
L 671.990943 -53.20589 
L 669.052302 -53.703928 
L 666.113661 -54.229514 
L 663.175021 -54.785005 
L 660.23638 -55.373399 
L 657.297739 -55.998321 
L 654.359099 -56.663976 
L 651.420458 -57.375058 
L 648.481817 -58.136611 
L 645.543176 -58.95386 
L 642.604536 -59.832004 
L 639.665895 -60.775988 
L 636.727254 -61.790256 
L 633.788614 -62.878506 
L 630.849973 -64.043446 
L 627.911332 -65.286576 
L 624.972691 -66.607999 
L 622.034051 -68.006267 
L 619.09541 -69.478283 
L 616.156769 -71.01926 
L 613.218129 -72.622731 
L 610.279488 -74.280628 
L 607.340847 -75.983416 
L 604.402207 -77.720279 
L 601.463566 -79.479366 
L 598.524925 -81.248054 
L 595.586284 -83.013262 
L 592.647644 -84.761763 
L 589.709003 -86.480509 
L 586.770362 -88.156939 
L 583.831722 -89.779279 
L 580.893081 -91.336792 
L 577.95444 -92.820006 
L 575.0158 -94.220884 
L 572.077159 -95.532952 
L 569.138518 -96.751367 
L 566.199877 -97.872939 
L 563.261237 -98.896105 
L 560.322596 -99.820856 
L 557.383955 -100.648633 
L 554.445315 -101.382183 
L 551.506674 -102.025409 
L 548.568033 -102.583187 
L 545.629392 -103.061196 
L 542.690752 -103.465736 
L 539.752111 -103.803564 
L 536.81347 -104.081733 
L 533.87483 -104.307455 
L 530.936189 -104.487984 
L 527.997548 -104.630515 
L 525.058908 -104.742107 
L 522.120267 -104.829625 
L 519.181626 -104.8997 
L 516.242985 -104.9587 
L 513.304345 -105.01272 
L 510.365704 -105.067566 
L 507.427063 -105.128755 
L 504.488423 -105.201499 
L 501.549782 -105.290691 
L 498.611141 -105.400877 
L 495.672501 -105.536211 
L 492.73386 -105.700394 
L 489.795219 -105.896598 
L 486.856578 -106.127366 
L 483.917938 -106.394503 
L 480.979297 -106.698942 
L 478.040656 -107.040621 
L 475.102016 -107.418341 
L 472.163375 -107.829646 
L 469.224734 -108.270712 
L 466.286093 -108.736267 
L 463.347453 -109.219547 
L 460.408812 -109.712296 
L 457.470171 -110.204824 
L 454.531531 -110.686115 
L 451.59289 -111.144004 
L 448.654249 -111.565406 
L 445.715609 -111.936609 
L 442.776968 -112.243607 
L 439.838327 -112.47248 
L 436.899686 -112.609789 
L 433.961046 -112.642988 
L 431.022405 -112.560825 
L 428.083764 -112.353724 
L 425.145124 -112.014116 
L 422.206483 -111.536726 
L 419.267842 -110.918789 
L 416.329202 -110.160186 
L 413.390561 -109.263502 
L 410.45192 -108.233995 
L 407.513279 -107.079488 
L 404.574639 -105.810178 
L 401.635998 -104.438379 
L 398.697357 -102.978208 
L 395.758717 -101.445224 
L 392.820076 -99.856035 
L 389.881435 -98.227893 
L 386.942794 -96.57828 
L 384.004154 -94.92451 
L 381.065513 -93.283342 
L 378.126872 -91.670636 
L 375.188232 -90.101039 
L 372.249591 -88.587713 
L 369.31095 -87.142113 
L 366.37231 -85.773818 
L 363.433669 -84.4904 
L 360.495028 -83.297354 
L 357.556387 -82.198067 
L 354.617747 -81.193834 
L 351.679106 -80.28392 
L 348.740465 -79.465656 
L 345.801825 -78.734574 
L 342.863184 -78.084576 
L 339.924543 -77.508126 
L 336.985903 -76.996473 
L 334.047262 -76.53989 
L 331.108621 -76.127924 
L 328.16998 -75.749664 
L 325.23134 -75.393999 
L 322.292699 -75.049881 
L 319.354058 -74.706577 
L 316.415418 -74.353901 
L 313.476777 -73.982423 
L 310.538136 -73.583661 
L 307.599495 -73.150227 
L 304.660855 -72.675945 
L 301.722214 -72.15594 
L 298.783573 -71.586673 
L 295.844933 -70.965954 
L 292.906292 -70.292916 
L 289.967651 -69.567952 
L 287.029011 -68.792634 
L 284.09037 -67.969604 
L 281.151729 -67.102451 
L 278.213088 -66.19557 
L 275.274448 -65.254029 
L 272.335807 -64.283416 
L 269.397166 -63.289707 
L 266.458526 -62.279135 
L 263.519885 -61.258062 
L 260.581244 -60.232877 
L 257.642604 -59.209896 
L 254.703963 -58.195284 
L 251.765322 -57.194986 
L 248.826681 -56.214667 
L 245.888041 -55.259676 
L 242.9494 -54.335003 
L 240.010759 -53.44525 
L 237.072119 -52.594614 
L 234.133478 -51.786861 
L 231.194837 -51.025311 
L 228.256196 -50.31282 
L 225.317556 -49.651761 
L 222.378915 -49.044014 
L 219.440274 -48.490941 
L 216.501634 -47.993374 
L 213.562993 -47.5516 
L 210.624352 -47.165349 
L 207.685712 -46.833783 
L 204.747071 -46.555497 
L 201.80843 -46.328518 
L 198.869789 -46.150323 
L 195.931149 -46.017854 
L 192.992508 -45.927557 
L 190.053867 -45.875419 
L 187.115227 -45.857024 
L 184.176586 -45.867622 
L 181.237945 -45.902198 
L 178.299305 -45.955564 
L 175.360664 -46.022446 
L 172.422023 -46.097585 
L 169.483382 -46.175837 
L 166.544742 -46.25227 
L 163.606101 -46.322265 
L 160.66746 -46.381607 
L 157.72882 -46.426561 
L 154.790179 -46.453949 
L 151.851538 -46.461197 
L 148.912897 -46.446379 
z
" style="stroke: #5ec962"/>
    </defs>
    <g clip-path="url(#p72b178238b)">
     <use xlink:href="#m17dcc907d5" x="0" y="212.255313" style="fill: #5ec962; fill-opacity: 0.5; stroke: #5ec962"/>
    </g>
   </g>
   <g id="matplotlib.axis_5">
    <g id="xtick_13">
     <g id="line2d_17">
      <g>
       <use xlink:href="#m4482f47615" x="148.912897" y="170.44" style="stroke: #000000; stroke-width: 0.8"/>
      </g>
     </g>
     <g id="text_3">
      <!-- 0 -->
      <g transform="translate(145.912897 185.7725) scale(0.12 -0.12)">
       <defs>
        <path id="TimesNewRomanPSMT-30" d="M 231 2094 
Q 231 2819 450 3342 
Q 669 3866 1031 4122 
Q 1313 4325 1613 4325 
Q 2100 4325 2488 3828 
Q 2972 3213 2972 2159 
Q 2972 1422 2759 906 
Q 2547 391 2217 158 
Q 1888 -75 1581 -75 
Q 975 -75 572 641 
Q 231 1244 231 2094 
z
M 844 2016 
Q 844 1141 1059 588 
Q 1238 122 1591 122 
Q 1759 122 1940 273 
Q 2122 425 2216 781 
Q 2359 1319 2359 2297 
Q 2359 3022 2209 3506 
Q 2097 3866 1919 4016 
Q 1791 4119 1609 4119 
Q 1397 4119 1231 3928 
Q 1006 3669 925 3112 
Q 844 2556 844 2016 
z
" transform="scale(0.015625)"/>
       </defs>
       <use xlink:href="#TimesNewRomanPSMT-30"/>
      </g>
     </g>
    </g>
    <g id="xtick_14">
     <g id="line2d_18">
      <g>
       <use xlink:href="#m4482f47615" x="265.870797" y="170.44" style="stroke: #000000; stroke-width: 0.8"/>
      </g>
     </g>
     <g id="text_4">
      <!-- 10000 -->
      <g transform="translate(250.870797 185.7725) scale(0.12 -0.12)">
       <defs>
        <path id="TimesNewRomanPSMT-31" d="M 750 3822 
L 1781 4325 
L 1884 4325 
L 1884 747 
Q 1884 391 1914 303 
Q 1944 216 2037 169 
Q 2131 122 2419 116 
L 2419 0 
L 825 0 
L 825 116 
Q 1125 122 1212 167 
Q 1300 213 1334 289 
Q 1369 366 1369 747 
L 1369 3034 
Q 1369 3497 1338 3628 
Q 1316 3728 1258 3775 
Q 1200 3822 1119 3822 
Q 1003 3822 797 3725 
L 750 3822 
z
" transform="scale(0.015625)"/>
       </defs>
       <use xlink:href="#TimesNewRomanPSMT-31"/>
       <use xlink:href="#TimesNewRomanPSMT-30" transform="translate(50 0)"/>
       <use xlink:href="#TimesNewRomanPSMT-30" transform="translate(100 0)"/>
       <use xlink:href="#TimesNewRomanPSMT-30" transform="translate(150 0)"/>
       <use xlink:href="#TimesNewRomanPSMT-30" transform="translate(200 0)"/>
      </g>
     </g>
    </g>
    <g id="xtick_15">
     <g id="line2d_19">
      <g>
       <use xlink:href="#m4482f47615" x="382.828697" y="170.44" style="stroke: #000000; stroke-width: 0.8"/>
      </g>
     </g>
     <g id="text_5">
      <!-- 20000 -->
      <g transform="translate(367.828697 185.7725) scale(0.12 -0.12)">
       <defs>
        <path id="TimesNewRomanPSMT-32" d="M 2934 816 
L 2638 0 
L 138 0 
L 138 116 
Q 1241 1122 1691 1759 
Q 2141 2397 2141 2925 
Q 2141 3328 1894 3587 
Q 1647 3847 1303 3847 
Q 991 3847 742 3664 
Q 494 3481 375 3128 
L 259 3128 
Q 338 3706 661 4015 
Q 984 4325 1469 4325 
Q 1984 4325 2329 3994 
Q 2675 3663 2675 3213 
Q 2675 2891 2525 2569 
Q 2294 2063 1775 1497 
Q 997 647 803 472 
L 1909 472 
Q 2247 472 2383 497 
Q 2519 522 2628 598 
Q 2738 675 2819 816 
L 2934 816 
z
" transform="scale(0.015625)"/>
       </defs>
       <use xlink:href="#TimesNewRomanPSMT-32"/>
       <use xlink:href="#TimesNewRomanPSMT-30" transform="translate(50 0)"/>
       <use xlink:href="#TimesNewRomanPSMT-30" transform="translate(100 0)"/>
       <use xlink:href="#TimesNewRomanPSMT-30" transform="translate(150 0)"/>
       <use xlink:href="#TimesNewRomanPSMT-30" transform="translate(200 0)"/>
      </g>
     </g>
    </g>
    <g id="xtick_16">
     <g id="line2d_20">
      <g>
       <use xlink:href="#m4482f47615" x="499.786598" y="170.44" style="stroke: #000000; stroke-width: 0.8"/>
      </g>
     </g>
     <g id="text_6">
      <!-- 30000 -->
      <g transform="translate(484.786598 185.7725) scale(0.12 -0.12)">
       <defs>
        <path id="TimesNewRomanPSMT-33" d="M 325 3431 
Q 506 3859 782 4092 
Q 1059 4325 1472 4325 
Q 1981 4325 2253 3994 
Q 2459 3747 2459 3466 
Q 2459 3003 1878 2509 
Q 2269 2356 2469 2072 
Q 2669 1788 2669 1403 
Q 2669 853 2319 450 
Q 1863 -75 997 -75 
Q 569 -75 414 31 
Q 259 138 259 259 
Q 259 350 332 419 
Q 406 488 509 488 
Q 588 488 669 463 
Q 722 447 909 348 
Q 1097 250 1169 231 
Q 1284 197 1416 197 
Q 1734 197 1970 444 
Q 2206 691 2206 1028 
Q 2206 1275 2097 1509 
Q 2016 1684 1919 1775 
Q 1784 1900 1550 2001 
Q 1316 2103 1072 2103 
L 972 2103 
L 972 2197 
Q 1219 2228 1467 2375 
Q 1716 2522 1828 2728 
Q 1941 2934 1941 3181 
Q 1941 3503 1739 3701 
Q 1538 3900 1238 3900 
Q 753 3900 428 3381 
L 325 3431 
z
" transform="scale(0.015625)"/>
       </defs>
       <use xlink:href="#TimesNewRomanPSMT-33"/>
       <use xlink:href="#TimesNewRomanPSMT-30" transform="translate(50 0)"/>
       <use xlink:href="#TimesNewRomanPSMT-30" transform="translate(100 0)"/>
       <use xlink:href="#TimesNewRomanPSMT-30" transform="translate(150 0)"/>
       <use xlink:href="#TimesNewRomanPSMT-30" transform="translate(200 0)"/>
      </g>
     </g>
    </g>
    <g id="xtick_17">
     <g id="line2d_21">
      <g>
       <use xlink:href="#m4482f47615" x="616.744498" y="170.44" style="stroke: #000000; stroke-width: 0.8"/>
      </g>
     </g>
     <g id="text_7">
      <!-- 40000 -->
      <g transform="translate(601.744498 185.7725) scale(0.12 -0.12)">
       <defs>
        <path id="TimesNewRomanPSMT-34" d="M 2978 1563 
L 2978 1119 
L 2409 1119 
L 2409 0 
L 1894 0 
L 1894 1119 
L 100 1119 
L 100 1519 
L 2066 4325 
L 2409 4325 
L 2409 1563 
L 2978 1563 
z
M 1894 1563 
L 1894 3666 
L 406 1563 
L 1894 1563 
z
" transform="scale(0.015625)"/>
       </defs>
       <use xlink:href="#TimesNewRomanPSMT-34"/>
       <use xlink:href="#TimesNewRomanPSMT-30" transform="translate(50 0)"/>
       <use xlink:href="#TimesNewRomanPSMT-30" transform="translate(100 0)"/>
       <use xlink:href="#TimesNewRomanPSMT-30" transform="translate(150 0)"/>
       <use xlink:href="#TimesNewRomanPSMT-30" transform="translate(200 0)"/>
      </g>
     </g>
    </g>
    <g id="xtick_18">
     <g id="line2d_22">
      <g>
       <use xlink:href="#m4482f47615" x="733.702398" y="170.44" style="stroke: #000000; stroke-width: 0.8"/>
      </g>
     </g>
     <g id="text_8">
      <!-- 50000 -->
      <g transform="translate(718.702398 185.7725) scale(0.12 -0.12)">
       <defs>
        <path id="TimesNewRomanPSMT-35" d="M 2778 4238 
L 2534 3706 
L 1259 3706 
L 981 3138 
Q 1809 3016 2294 2522 
Q 2709 2097 2709 1522 
Q 2709 1188 2573 903 
Q 2438 619 2231 419 
Q 2025 219 1772 97 
Q 1413 -75 1034 -75 
Q 653 -75 479 54 
Q 306 184 306 341 
Q 306 428 378 495 
Q 450 563 559 563 
Q 641 563 702 538 
Q 763 513 909 409 
Q 1144 247 1384 247 
Q 1750 247 2026 523 
Q 2303 800 2303 1197 
Q 2303 1581 2056 1914 
Q 1809 2247 1375 2428 
Q 1034 2569 447 2591 
L 1259 4238 
L 2778 4238 
z
" transform="scale(0.015625)"/>
       </defs>
       <use xlink:href="#TimesNewRomanPSMT-35"/>
       <use xlink:href="#TimesNewRomanPSMT-30" transform="translate(50 0)"/>
       <use xlink:href="#TimesNewRomanPSMT-30" transform="translate(100 0)"/>
       <use xlink:href="#TimesNewRomanPSMT-30" transform="translate(150 0)"/>
       <use xlink:href="#TimesNewRomanPSMT-30" transform="translate(200 0)"/>
      </g>
     </g>
    </g>
    <g id="text_9">
     <!-- Value -->
     <g transform="translate(425.37171 202.060625) scale(0.14 -0.14)">
      <defs>
       <path id="TimesNewRomanPSMT-56" d="M 4544 4238 
L 4544 4122 
Q 4319 4081 4203 3978 
Q 4038 3825 3909 3509 
L 2431 -97 
L 2316 -97 
L 728 3556 
Q 606 3838 556 3900 
Q 478 3997 364 4051 
Q 250 4106 56 4122 
L 56 4238 
L 1788 4238 
L 1788 4122 
Q 1494 4094 1406 4022 
Q 1319 3950 1319 3838 
Q 1319 3681 1463 3350 
L 2541 866 
L 3541 3319 
Q 3688 3681 3688 3822 
Q 3688 3913 3597 3995 
Q 3506 4078 3291 4113 
Q 3275 4116 3238 4122 
L 3238 4238 
L 4544 4238 
z
" transform="scale(0.015625)"/>
       <path id="TimesNewRomanPSMT-6c" d="M 1184 4444 
L 1184 647 
Q 1184 378 1223 290 
Q 1263 203 1344 158 
Q 1425 113 1647 113 
L 1647 0 
L 244 0 
L 244 113 
Q 441 113 512 153 
Q 584 194 625 287 
Q 666 381 666 647 
L 666 3247 
Q 666 3731 644 3842 
Q 622 3953 573 3993 
Q 525 4034 450 4034 
Q 369 4034 244 3984 
L 191 4094 
L 1044 4444 
L 1184 4444 
z
" transform="scale(0.015625)"/>
      </defs>
      <use xlink:href="#TimesNewRomanPSMT-56"/>
      <use xlink:href="#TimesNewRomanPSMT-61" transform="translate(61.091797 0)"/>
      <use xlink:href="#TimesNewRomanPSMT-6c" transform="translate(105.476562 0)"/>
      <use xlink:href="#TimesNewRomanPSMT-75" transform="translate(133.259766 0)"/>
      <use xlink:href="#TimesNewRomanPSMT-65" transform="translate(183.259766 0)"/>
     </g>
    </g>
   </g>
   <g id="matplotlib.axis_6"/>
   <g id="line2d_23">
    <path d="M 148.912897 165.808933 
L 157.72882 165.828751 
L 172.422023 166.157727 
L 184.176586 166.387691 
L 192.992508 166.327755 
L 198.869789 166.10499 
L 204.747071 165.699816 
L 210.624352 165.089964 
L 216.501634 164.261939 
L 222.378915 163.211299 
L 228.256196 161.942493 
L 234.133478 160.468451 
L 240.010759 158.810062 
L 248.826681 156.040645 
L 260.581244 152.022435 
L 275.274448 147.001284 
L 284.09037 144.285708 
L 289.967651 142.687361 
L 295.844933 141.289358 
L 301.722214 140.099373 
L 307.599495 139.105086 
L 316.415418 137.901412 
L 334.047262 135.715423 
L 339.924543 134.747187 
L 345.801825 133.520738 
L 351.679106 131.971392 
L 357.556387 130.057246 
L 363.433669 127.764912 
L 369.31095 125.113199 
L 375.188232 122.154273 
L 384.004154 117.330803 
L 395.758717 110.810088 
L 401.635998 107.816933 
L 407.513279 105.175825 
L 410.45192 104.021318 
L 413.390561 102.991811 
L 416.329202 102.095127 
L 419.267842 101.336524 
L 422.206483 100.718587 
L 425.145124 100.241197 
L 428.083764 99.901589 
L 431.022405 99.694487 
L 433.961046 99.612325 
L 439.838327 99.782832 
L 445.715609 100.318704 
L 451.59289 101.111309 
L 463.347453 103.035766 
L 472.163375 104.425666 
L 480.979297 105.556371 
L 489.795219 106.358715 
L 498.611141 106.854435 
L 510.365704 107.187746 
L 527.997548 107.624798 
L 533.87483 107.947858 
L 539.752111 108.451748 
L 545.629392 109.194117 
L 551.506674 110.229904 
L 557.383955 111.60668 
L 563.261237 113.359208 
L 569.138518 115.503945 
L 575.0158 118.034428 
L 580.893081 120.918521 
L 586.770362 124.098373 
L 595.586284 129.24205 
L 610.279488 137.974684 
L 616.156769 141.236052 
L 622.034051 144.249046 
L 627.911332 146.968736 
L 633.788614 149.376807 
L 639.665895 151.479324 
L 645.543176 153.301453 
L 651.420458 154.880255 
L 657.297739 156.256991 
L 666.113661 158.025799 
L 674.929583 159.521667 
L 683.745506 160.793672 
L 692.561428 161.85684 
L 701.37735 162.719107 
L 713.131913 163.60388 
L 733.702398 164.827034 
L 733.702398 164.827034 
" clip-path="url(#p72b178238b)" style="fill: none; stroke: #ffffff; stroke-width: 2; stroke-linecap: square"/>
   </g>
   <g id="line2d_24">
    <path d="M 148.912897 170.44 
L 733.702397 170.44 
" style="fill: none; stroke: #000000; stroke-linecap: square"/>
   </g>
   <g id="text_10">
    <g id="patch_7">
     <path d="M 44.221875 179.849687 
L 91.47 179.849687 
L 91.47 161.030312 
L 44.221875 161.030312 
z
" style="fill: #ffffff; opacity: 0.5"/>
    </g>
    <!-- Pipeline -->
    <g transform="translate(48.181875 173.322812) scale(0.12 -0.12)">
     <defs>
      <path id="TimesNewRomanPSMT-50" d="M 1313 1984 
L 1313 750 
Q 1313 350 1400 253 
Q 1519 116 1759 116 
L 1922 116 
L 1922 0 
L 106 0 
L 106 116 
L 266 116 
Q 534 116 650 291 
Q 713 388 713 750 
L 713 3488 
Q 713 3888 628 3984 
Q 506 4122 266 4122 
L 106 4122 
L 106 4238 
L 1659 4238 
Q 2228 4238 2556 4120 
Q 2884 4003 3109 3725 
Q 3334 3447 3334 3066 
Q 3334 2547 2992 2222 
Q 2650 1897 2025 1897 
Q 1872 1897 1694 1919 
Q 1516 1941 1313 1984 
z
M 1313 2163 
Q 1478 2131 1606 2115 
Q 1734 2100 1825 2100 
Q 2150 2100 2386 2351 
Q 2622 2603 2622 3003 
Q 2622 3278 2509 3514 
Q 2397 3750 2190 3867 
Q 1984 3984 1722 3984 
Q 1563 3984 1313 3925 
L 1313 2163 
z
" transform="scale(0.015625)"/>
      <path id="TimesNewRomanPSMT-70" d="M -6 2578 
L 875 2934 
L 994 2934 
L 994 2266 
Q 1216 2644 1439 2795 
Q 1663 2947 1909 2947 
Q 2341 2947 2628 2609 
Q 2981 2197 2981 1534 
Q 2981 794 2556 309 
Q 2206 -88 1675 -88 
Q 1444 -88 1275 -22 
Q 1150 25 994 166 
L 994 -706 
Q 994 -1000 1030 -1079 
Q 1066 -1159 1155 -1206 
Q 1244 -1253 1478 -1253 
L 1478 -1369 
L -22 -1369 
L -22 -1253 
L 56 -1253 
Q 228 -1256 350 -1188 
Q 409 -1153 442 -1076 
Q 475 -1000 475 -688 
L 475 2019 
Q 475 2297 450 2372 
Q 425 2447 370 2484 
Q 316 2522 222 2522 
Q 147 2522 31 2478 
L -6 2578 
z
M 994 2081 
L 994 1013 
Q 994 666 1022 556 
Q 1066 375 1236 237 
Q 1406 100 1666 100 
Q 1978 100 2172 344 
Q 2425 663 2425 1241 
Q 2425 1897 2138 2250 
Q 1938 2494 1663 2494 
Q 1513 2494 1366 2419 
Q 1253 2363 994 2081 
z
" transform="scale(0.015625)"/>
      <path id="TimesNewRomanPSMT-6e" d="M 1034 2341 
Q 1538 2947 1994 2947 
Q 2228 2947 2397 2830 
Q 2566 2713 2666 2444 
Q 2734 2256 2734 1869 
L 2734 647 
Q 2734 375 2778 278 
Q 2813 200 2889 156 
Q 2966 113 3172 113 
L 3172 0 
L 1756 0 
L 1756 113 
L 1816 113 
Q 2016 113 2095 173 
Q 2175 234 2206 353 
Q 2219 400 2219 647 
L 2219 1819 
Q 2219 2209 2117 2386 
Q 2016 2563 1775 2563 
Q 1403 2563 1034 2156 
L 1034 647 
Q 1034 356 1069 288 
Q 1113 197 1189 155 
Q 1266 113 1500 113 
L 1500 0 
L 84 0 
L 84 113 
L 147 113 
Q 366 113 442 223 
Q 519 334 519 647 
L 519 1709 
Q 519 2225 495 2337 
Q 472 2450 423 2490 
Q 375 2531 294 2531 
Q 206 2531 84 2484 
L 38 2597 
L 900 2947 
L 1034 2947 
L 1034 2341 
z
" transform="scale(0.015625)"/>
     </defs>
     <use xlink:href="#TimesNewRomanPSMT-50"/>
     <use xlink:href="#TimesNewRomanPSMT-69" transform="translate(55.615234 0)"/>
     <use xlink:href="#TimesNewRomanPSMT-70" transform="translate(83.398438 0)"/>
     <use xlink:href="#TimesNewRomanPSMT-65" transform="translate(133.398438 0)"/>
     <use xlink:href="#TimesNewRomanPSMT-6c" transform="translate(177.783203 0)"/>
     <use xlink:href="#TimesNewRomanPSMT-69" transform="translate(205.566406 0)"/>
     <use xlink:href="#TimesNewRomanPSMT-6e" transform="translate(233.349609 0)"/>
     <use xlink:href="#TimesNewRomanPSMT-65" transform="translate(283.349609 0)"/>
    </g>
   </g>
  </g>
  <g id="text_11">
   <!-- Freight Volume(tons) -->
   <g transform="translate(316.126148 18.31) scale(0.16 -0.16)">
    <defs>
     <path id="TimesNewRomanPSMT-46" d="M 1309 4006 
L 1309 2341 
L 2081 2341 
Q 2347 2341 2470 2458 
Q 2594 2575 2634 2922 
L 2750 2922 
L 2750 1488 
L 2634 1488 
Q 2631 1734 2570 1850 
Q 2509 1966 2401 2023 
Q 2294 2081 2081 2081 
L 1309 2081 
L 1309 750 
Q 1309 428 1350 325 
Q 1381 247 1481 191 
Q 1619 116 1769 116 
L 1922 116 
L 1922 0 
L 103 0 
L 103 116 
L 253 116 
Q 516 116 634 269 
Q 709 369 709 750 
L 709 3488 
Q 709 3809 669 3913 
Q 638 3991 541 4047 
Q 406 4122 253 4122 
L 103 4122 
L 103 4238 
L 3256 4238 
L 3297 3306 
L 3188 3306 
Q 3106 3603 2998 3742 
Q 2891 3881 2733 3943 
Q 2575 4006 2244 4006 
L 1309 4006 
z
" transform="scale(0.015625)"/>
     <path id="TimesNewRomanPSMT-68" d="M 1041 4444 
L 1041 2350 
Q 1388 2731 1591 2839 
Q 1794 2947 1997 2947 
Q 2241 2947 2416 2812 
Q 2591 2678 2675 2391 
Q 2734 2191 2734 1659 
L 2734 647 
Q 2734 375 2778 275 
Q 2809 200 2884 156 
Q 2959 113 3159 113 
L 3159 0 
L 1753 0 
L 1753 113 
L 1819 113 
Q 2019 113 2097 173 
Q 2175 234 2206 353 
Q 2216 403 2216 647 
L 2216 1659 
Q 2216 2128 2167 2275 
Q 2119 2422 2012 2495 
Q 1906 2569 1756 2569 
Q 1603 2569 1437 2487 
Q 1272 2406 1041 2159 
L 1041 647 
Q 1041 353 1073 281 
Q 1106 209 1195 161 
Q 1284 113 1503 113 
L 1503 0 
L 84 0 
L 84 113 
Q 275 113 384 172 
Q 447 203 484 290 
Q 522 378 522 647 
L 522 3238 
Q 522 3728 498 3840 
Q 475 3953 426 3993 
Q 378 4034 297 4034 
Q 231 4034 84 3984 
L 41 4094 
L 897 4444 
L 1041 4444 
z
" transform="scale(0.015625)"/>
     <path id="TimesNewRomanPSMT-74" d="M 1031 3803 
L 1031 2863 
L 1700 2863 
L 1700 2644 
L 1031 2644 
L 1031 788 
Q 1031 509 1111 412 
Q 1191 316 1316 316 
Q 1419 316 1516 380 
Q 1613 444 1666 569 
L 1788 569 
Q 1678 263 1478 108 
Q 1278 -47 1066 -47 
Q 922 -47 784 33 
Q 647 113 581 261 
Q 516 409 516 719 
L 516 2644 
L 63 2644 
L 63 2747 
Q 234 2816 414 2980 
Q 594 3144 734 3369 
Q 806 3488 934 3803 
L 1031 3803 
z
" transform="scale(0.015625)"/>
     <path id="TimesNewRomanPSMT-6d" d="M 1050 2338 
Q 1363 2650 1419 2697 
Q 1559 2816 1721 2881 
Q 1884 2947 2044 2947 
Q 2313 2947 2506 2790 
Q 2700 2634 2766 2338 
Q 3088 2713 3309 2830 
Q 3531 2947 3766 2947 
Q 3994 2947 4170 2830 
Q 4347 2713 4450 2447 
Q 4519 2266 4519 1878 
L 4519 647 
Q 4519 378 4559 278 
Q 4591 209 4675 161 
Q 4759 113 4950 113 
L 4950 0 
L 3538 0 
L 3538 113 
L 3597 113 
Q 3781 113 3884 184 
Q 3956 234 3988 344 
Q 4000 397 4000 647 
L 4000 1878 
Q 4000 2228 3916 2372 
Q 3794 2572 3525 2572 
Q 3359 2572 3192 2489 
Q 3025 2406 2788 2181 
L 2781 2147 
L 2788 2013 
L 2788 647 
Q 2788 353 2820 281 
Q 2853 209 2943 161 
Q 3034 113 3253 113 
L 3253 0 
L 1806 0 
L 1806 113 
Q 2044 113 2133 169 
Q 2222 225 2256 338 
Q 2272 391 2272 647 
L 2272 1878 
Q 2272 2228 2169 2381 
Q 2031 2581 1784 2581 
Q 1616 2581 1450 2491 
Q 1191 2353 1050 2181 
L 1050 647 
Q 1050 366 1089 281 
Q 1128 197 1204 155 
Q 1281 113 1516 113 
L 1516 0 
L 100 0 
L 100 113 
Q 297 113 375 155 
Q 453 197 493 289 
Q 534 381 534 647 
L 534 1741 
Q 534 2213 506 2350 
Q 484 2453 437 2492 
Q 391 2531 309 2531 
Q 222 2531 100 2484 
L 53 2597 
L 916 2947 
L 1050 2947 
L 1050 2338 
z
" transform="scale(0.015625)"/>
     <path id="TimesNewRomanPSMT-28" d="M 1988 -1253 
L 1988 -1369 
Q 1516 -1131 1200 -813 
Q 750 -359 506 256 
Q 263 872 263 1534 
Q 263 2503 741 3301 
Q 1219 4100 1988 4444 
L 1988 4313 
Q 1603 4100 1356 3731 
Q 1109 3363 987 2797 
Q 866 2231 866 1616 
Q 866 947 969 400 
Q 1050 -31 1165 -292 
Q 1281 -553 1476 -793 
Q 1672 -1034 1988 -1253 
z
" transform="scale(0.015625)"/>
     <path id="TimesNewRomanPSMT-29" d="M 144 4313 
L 144 4444 
Q 619 4209 934 3891 
Q 1381 3434 1625 2820 
Q 1869 2206 1869 1541 
Q 1869 572 1392 -226 
Q 916 -1025 144 -1369 
L 144 -1253 
Q 528 -1038 776 -670 
Q 1025 -303 1145 264 
Q 1266 831 1266 1447 
Q 1266 2113 1163 2663 
Q 1084 3094 967 3353 
Q 850 3613 656 3853 
Q 463 4094 144 4313 
z
" transform="scale(0.015625)"/>
    </defs>
    <use xlink:href="#TimesNewRomanPSMT-46"/>
    <use xlink:href="#TimesNewRomanPSMT-72" transform="translate(55.615234 0)"/>
    <use xlink:href="#TimesNewRomanPSMT-65" transform="translate(88.916016 0)"/>
    <use xlink:href="#TimesNewRomanPSMT-69" transform="translate(133.300781 0)"/>
    <use xlink:href="#TimesNewRomanPSMT-67" transform="translate(161.083984 0)"/>
    <use xlink:href="#TimesNewRomanPSMT-68" transform="translate(211.083984 0)"/>
    <use xlink:href="#TimesNewRomanPSMT-74" transform="translate(261.083984 0)"/>
    <use xlink:href="#TimesNewRomanPSMT-20" transform="translate(288.867188 0)"/>
    <use xlink:href="#TimesNewRomanPSMT-56" transform="translate(312.117188 0)"/>
    <use xlink:href="#TimesNewRomanPSMT-6f" transform="translate(371.458984 0)"/>
    <use xlink:href="#TimesNewRomanPSMT-6c" transform="translate(421.458984 0)"/>
    <use xlink:href="#TimesNewRomanPSMT-75" transform="translate(449.242188 0)"/>
    <use xlink:href="#TimesNewRomanPSMT-6d" transform="translate(499.242188 0)"/>
    <use xlink:href="#TimesNewRomanPSMT-65" transform="translate(577.025391 0)"/>
    <use xlink:href="#TimesNewRomanPSMT-28" transform="translate(621.410156 0)"/>
    <use xlink:href="#TimesNewRomanPSMT-74" transform="translate(654.710938 0)"/>
    <use xlink:href="#TimesNewRomanPSMT-6f" transform="translate(682.494141 0)"/>
    <use xlink:href="#TimesNewRomanPSMT-6e" transform="translate(732.494141 0)"/>
    <use xlink:href="#TimesNewRomanPSMT-73" transform="translate(782.494141 0)"/>
    <use xlink:href="#TimesNewRomanPSMT-29" transform="translate(821.410156 0)"/>
   </g>
  </g>
 </g>
 <defs>
  <clipPath id="p44ab419f9b">
   <rect x="148.912897" y="21.12" width="584.7895" height="74.66"/>
  </clipPath>
  <clipPath id="pb532cb89a6">
   <rect x="148.912897" y="58.45" width="584.7895" height="74.66"/>
  </clipPath>
  <clipPath id="p72b178238b">
   <rect x="148.912897" y="95.78" width="584.7895" height="74.66"/>
  </clipPath>
 </defs>
</svg>
