<?xml version="1.0" encoding="utf-8" standalone="no"?>
<!DOCTYPE svg PUBLIC "-//W3C//DTD SVG 1.1//EN"
  "http://www.w3.org/Graphics/SVG/1.1/DTD/svg11.dtd">
<svg xmlns:xlink="http://www.w3.org/1999/xlink" width="747.177423pt" height="280.655312pt" viewBox="0 0 747.177423 280.655312" xmlns="http://www.w3.org/2000/svg" version="1.1">
 <metadata>
  <rdf:RDF xmlns:dc="http://purl.org/dc/elements/1.1/" xmlns:cc="http://creativecommons.org/ns#" xmlns:rdf="http://www.w3.org/1999/02/22-rdf-syntax-ns#">
   <cc:Work>
    <dc:type rdf:resource="http://purl.org/dc/dcmitype/StillImage"/>
    <dc:date>2025-05-27T01:31:16.647733</dc:date>
    <dc:format>image/svg+xml</dc:format>
    <dc:creator>
     <cc:Agent>
      <dc:title>Matplotlib v3.10.1, https://matplotlib.org/</dc:title>
     </cc:Agent>
    </dc:creator>
   </cc:Work>
  </rdf:RDF>
 </metadata>
 <defs>
  <style type="text/css">*{stroke-linejoin: round; stroke-linecap: butt}</style>
 </defs>
 <g id="figure_1">
  <g id="patch_1">
   <path d="M 0 280.655312 
L 747.177422 280.655312 
L 747.177422 0 
L 0 0 
z
" style="fill: #ffffff"/>
  </g>
  <g id="axes_1">
   <g id="patch_2">
    <path d="M 159.657923 106.048 
L 732.477422 106.048 
L 732.477422 17.52 
L 159.657923 17.52 
L 159.657923 106.048 
z
" style="fill: none; opacity: 0"/>
   </g>
   <g id="FillBetweenPolyCollection_1">
    <defs>
     <path id="m43cc335c09" d="M 159.657923 -178.716745 
L 159.657923 -174.607312 
L 162.536412 -174.607312 
L 165.414902 -174.607312 
L 168.293392 -174.607312 
L 171.171882 -174.607312 
L 174.050372 -174.607312 
L 176.928862 -174.607312 
L 179.807352 -174.607312 
L 182.685842 -174.607312 
L 185.564332 -174.607312 
L 188.442822 -174.607312 
L 191.321312 -174.607312 
L 194.199802 -174.607312 
L 197.078292 -174.607312 
L 199.956782 -174.607312 
L 202.835272 -174.607312 
L 205.713762 -174.607312 
L 208.592252 -174.607312 
L 211.470742 -174.607312 
L 214.349232 -174.607312 
L 217.227721 -174.607312 
L 220.106211 -174.607312 
L 222.984701 -174.607312 
L 225.863191 -174.607312 
L 228.741681 -174.607312 
L 231.620171 -174.607312 
L 234.498661 -174.607312 
L 237.377151 -174.607312 
L 240.255641 -174.607312 
L 243.134131 -174.607312 
L 246.012621 -174.607312 
L 248.891111 -174.607312 
L 251.769601 -174.607312 
L 254.648091 -174.607312 
L 257.526581 -174.607312 
L 260.405071 -174.607312 
L 263.283561 -174.607312 
L 266.162051 -174.607312 
L 269.040541 -174.607312 
L 271.919031 -174.607312 
L 274.79752 -174.607312 
L 277.67601 -174.607312 
L 280.5545 -174.607312 
L 283.43299 -174.607312 
L 286.31148 -174.607312 
L 289.18997 -174.607312 
L 292.06846 -174.607312 
L 294.94695 -174.607312 
L 297.82544 -174.607312 
L 300.70393 -174.607312 
L 303.58242 -174.607312 
L 306.46091 -174.607312 
L 309.3394 -174.607312 
L 312.21789 -174.607312 
L 315.09638 -174.607312 
L 317.97487 -174.607312 
L 320.85336 -174.607312 
L 323.73185 -174.607312 
L 326.61034 -174.607312 
L 329.48883 -174.607312 
L 332.367319 -174.607312 
L 335.245809 -174.607312 
L 338.124299 -174.607312 
L 341.002789 -174.607312 
L 343.881279 -174.607312 
L 346.759769 -174.607312 
L 349.638259 -174.607312 
L 352.516749 -174.607312 
L 355.395239 -174.607312 
L 358.273729 -174.607312 
L 361.152219 -174.607312 
L 364.030709 -174.607312 
L 366.909199 -174.607312 
L 369.787689 -174.607312 
L 372.666179 -174.607312 
L 375.544669 -174.607312 
L 378.423159 -174.607312 
L 381.301649 -174.607312 
L 384.180139 -174.607312 
L 387.058629 -174.607312 
L 389.937118 -174.607312 
L 392.815608 -174.607312 
L 395.694098 -174.607312 
L 398.572588 -174.607312 
L 401.451078 -174.607312 
L 404.329568 -174.607312 
L 407.208058 -174.607312 
L 410.086548 -174.607312 
L 412.965038 -174.607312 
L 415.843528 -174.607312 
L 418.722018 -174.607312 
L 421.600508 -174.607312 
L 424.478998 -174.607312 
L 427.357488 -174.607312 
L 430.235978 -174.607312 
L 433.114468 -174.607312 
L 435.992958 -174.607312 
L 438.871448 -174.607312 
L 441.749938 -174.607312 
L 444.628428 -174.607312 
L 447.506917 -174.607312 
L 450.385407 -174.607312 
L 453.263897 -174.607312 
L 456.142387 -174.607312 
L 459.020877 -174.607312 
L 461.899367 -174.607312 
L 464.777857 -174.607312 
L 467.656347 -174.607312 
L 470.534837 -174.607312 
L 473.413327 -174.607312 
L 476.291817 -174.607312 
L 479.170307 -174.607312 
L 482.048797 -174.607312 
L 484.927287 -174.607312 
L 487.805777 -174.607312 
L 490.684267 -174.607312 
L 493.562757 -174.607312 
L 496.441247 -174.607312 
L 499.319737 -174.607312 
L 502.198227 -174.607312 
L 505.076716 -174.607312 
L 507.955206 -174.607312 
L 510.833696 -174.607312 
L 513.712186 -174.607312 
L 516.590676 -174.607312 
L 519.469166 -174.607312 
L 522.347656 -174.607312 
L 525.226146 -174.607312 
L 528.104636 -174.607312 
L 530.983126 -174.607312 
L 533.861616 -174.607312 
L 536.740106 -174.607312 
L 539.618596 -174.607312 
L 542.497086 -174.607312 
L 545.375576 -174.607312 
L 548.254066 -174.607312 
L 551.132556 -174.607312 
L 554.011046 -174.607312 
L 556.889536 -174.607312 
L 559.768026 -174.607312 
L 562.646515 -174.607312 
L 565.525005 -174.607312 
L 568.403495 -174.607312 
L 571.281985 -174.607312 
L 574.160475 -174.607312 
L 577.038965 -174.607312 
L 579.917455 -174.607312 
L 582.795945 -174.607312 
L 585.674435 -174.607312 
L 588.552925 -174.607312 
L 591.431415 -174.607312 
L 594.309905 -174.607312 
L 597.188395 -174.607312 
L 600.066885 -174.607312 
L 602.945375 -174.607312 
L 605.823865 -174.607312 
L 608.702355 -174.607312 
L 611.580845 -174.607312 
L 614.459335 -174.607312 
L 617.337825 -174.607312 
L 620.216314 -174.607312 
L 623.094804 -174.607312 
L 625.973294 -174.607312 
L 628.851784 -174.607312 
L 631.730274 -174.607312 
L 634.608764 -174.607312 
L 637.487254 -174.607312 
L 640.365744 -174.607312 
L 643.244234 -174.607312 
L 646.122724 -174.607312 
L 649.001214 -174.607312 
L 651.879704 -174.607312 
L 654.758194 -174.607312 
L 657.636684 -174.607312 
L 660.515174 -174.607312 
L 663.393664 -174.607312 
L 666.272154 -174.607312 
L 669.150644 -174.607312 
L 672.029134 -174.607312 
L 674.907624 -174.607312 
L 677.786113 -174.607312 
L 680.664603 -174.607312 
L 683.543093 -174.607312 
L 686.421583 -174.607312 
L 689.300073 -174.607312 
L 692.178563 -174.607312 
L 695.057053 -174.607312 
L 697.935543 -174.607312 
L 700.814033 -174.607312 
L 703.692523 -174.607312 
L 706.571013 -174.607312 
L 709.449503 -174.607312 
L 712.327993 -174.607312 
L 715.206483 -174.607312 
L 718.084973 -174.607312 
L 720.963463 -174.607312 
L 723.841953 -174.607312 
L 726.720443 -174.607312 
L 729.598933 -174.607312 
L 732.477422 -174.607312 
L 732.477422 -188.449298 
L 732.477422 -188.449298 
L 729.598933 -189.281445 
L 726.720443 -190.134424 
L 723.841953 -191.006689 
L 720.963463 -191.896518 
L 718.084973 -192.802004 
L 715.206483 -193.721052 
L 712.327993 -194.651376 
L 709.449503 -195.590502 
L 706.571013 -196.535772 
L 703.692523 -197.484353 
L 700.814033 -198.433257 
L 697.935543 -199.379358 
L 695.057053 -200.319423 
L 692.178563 -201.250144 
L 689.300073 -202.168181 
L 686.421583 -203.070203 
L 683.543093 -203.952941 
L 680.664603 -204.813239 
L 677.786113 -205.648114 
L 674.907624 -206.454808 
L 672.029134 -207.230846 
L 669.150644 -207.974092 
L 666.272154 -208.682791 
L 663.393664 -209.355618 
L 660.515174 -209.99171 
L 657.636684 -210.590691 
L 654.758194 -211.152685 
L 651.879704 -211.678317 
L 649.001214 -212.168707 
L 646.122724 -212.625438 
L 643.244234 -213.050526 
L 640.365744 -213.446365 
L 637.487254 -213.815672 
L 634.608764 -214.161409 
L 631.730274 -214.486713 
L 628.851784 -214.794801 
L 625.973294 -215.088892 
L 623.094804 -215.372111 
L 620.216314 -215.647405 
L 617.337825 -215.917459 
L 614.459335 -216.184621 
L 611.580845 -216.450838 
L 608.702355 -216.7176 
L 605.823865 -216.9859 
L 602.945375 -217.256208 
L 600.066885 -217.528464 
L 597.188395 -217.802079 
L 594.309905 -218.075965 
L 591.431415 -218.348563 
L 588.552925 -218.617903 
L 585.674435 -218.881662 
L 582.795945 -219.137242 
L 579.917455 -219.381848 
L 577.038965 -219.612576 
L 574.160475 -219.826505 
L 571.281985 -220.020782 
L 568.403495 -220.192708 
L 565.525005 -220.339819 
L 562.646515 -220.459956 
L 559.768026 -220.551324 
L 556.889536 -220.612545 
L 554.011046 -220.642686 
L 551.132556 -220.641286 
L 548.254066 -220.608359 
L 545.375576 -220.544391 
L 542.497086 -220.450313 
L 539.618596 -220.327473 
L 536.740106 -220.177591 
L 533.861616 -220.002708 
L 530.983126 -219.805125 
L 528.104636 -219.58734 
L 525.226146 -219.351988 
L 522.347656 -219.101767 
L 519.469166 -218.839382 
L 516.590676 -218.567482 
L 513.712186 -218.288609 
L 510.833696 -218.005152 
L 507.955206 -217.719304 
L 505.076716 -217.433038 
L 502.198227 -217.148081 
L 499.319737 -216.865906 
L 496.441247 -216.587724 
L 493.562757 -216.314489 
L 490.684267 -216.046909 
L 487.805777 -215.78546 
L 484.927287 -215.530411 
L 482.048797 -215.281841 
L 479.170307 -215.039673 
L 476.291817 -214.803697 
L 473.413327 -214.5736 
L 470.534837 -214.348998 
L 467.656347 -214.129458 
L 464.777857 -213.914529 
L 461.899367 -213.703764 
L 459.020877 -213.496745 
L 456.142387 -213.293107 
L 453.263897 -213.092552 
L 450.385407 -212.894872 
L 447.506917 -212.699963 
L 444.628428 -212.507839 
L 441.749938 -212.318646 
L 438.871448 -212.132668 
L 435.992958 -211.950339 
L 433.114468 -211.772239 
L 430.235978 -211.599101 
L 427.357488 -211.431804 
L 424.478998 -211.271361 
L 421.600508 -211.118908 
L 418.722018 -210.975683 
L 415.843528 -210.842997 
L 412.965038 -210.722206 
L 410.086548 -210.61467 
L 407.208058 -210.521711 
L 404.329568 -210.444566 
L 401.451078 -210.384337 
L 398.572588 -210.341936 
L 395.694098 -210.318037 
L 392.815608 -210.313018 
L 389.937118 -210.326919 
L 387.058629 -210.359395 
L 384.180139 -210.409684 
L 381.301649 -210.476576 
L 378.423159 -210.558403 
L 375.544669 -210.653027 
L 372.666179 -210.757856 
L 369.787689 -210.869861 
L 366.909199 -210.98561 
L 364.030709 -211.10132 
L 361.152219 -211.212909 
L 358.273729 -211.316072 
L 355.395239 -211.406354 
L 352.516749 -211.479234 
L 349.638259 -211.530214 
L 346.759769 -211.554905 
L 343.881279 -211.549114 
L 341.002789 -211.508929 
L 338.124299 -211.430789 
L 335.245809 -211.311555 
L 332.367319 -211.148564 
L 329.48883 -210.939672 
L 326.61034 -210.683284 
L 323.73185 -210.378371 
L 320.85336 -210.024471 
L 317.97487 -209.621681 
L 315.09638 -209.170632 
L 312.21789 -208.672458 
L 309.3394 -208.128749 
L 306.46091 -207.541509 
L 303.58242 -206.913094 
L 300.70393 -206.246162 
L 297.82544 -205.54361 
L 294.94695 -204.80852 
L 292.06846 -204.044106 
L 289.18997 -203.253667 
L 286.31148 -202.440538 
L 283.43299 -201.60806 
L 280.5545 -200.759548 
L 277.67601 -199.898265 
L 274.79752 -199.027409 
L 271.919031 -198.1501 
L 269.040541 -197.269375 
L 266.162051 -196.388183 
L 263.283561 -195.509392 
L 260.405071 -194.635782 
L 257.526581 -193.770056 
L 254.648091 -192.914834 
L 251.769601 -192.072657 
L 248.891111 -191.245983 
L 246.012621 -190.43718 
L 243.134131 -189.648517 
L 240.255641 -188.882152 
L 237.377151 -188.140116 
L 234.498661 -187.424291 
L 231.620171 -186.736394 
L 228.741681 -186.077955 
L 225.863191 -185.450288 
L 222.984701 -184.854478 
L 220.106211 -184.291355 
L 217.227721 -183.76148 
L 214.349232 -183.265129 
L 211.470742 -182.802287 
L 208.592252 -182.37264 
L 205.713762 -181.975578 
L 202.835272 -181.610205 
L 199.956782 -181.275346 
L 197.078292 -180.969571 
L 194.199802 -180.691218 
L 191.321312 -180.43842 
L 188.442822 -180.209139 
L 185.564332 -180.001204 
L 182.685842 -179.81235 
L 179.807352 -179.640256 
L 176.928862 -179.482587 
L 174.050372 -179.337036 
L 171.171882 -179.20136 
L 168.293392 -179.073417 
L 165.414902 -178.9512 
L 162.536412 -178.832863 
L 159.657923 -178.716745 
z
" style="stroke: #414487"/>
    </defs>
    <g clip-path="url(#p852083dc95)">
     <use xlink:href="#m43cc335c09" x="0" y="280.655312" style="fill: #414487; fill-opacity: 0.5; stroke: #414487"/>
    </g>
   </g>
   <g id="matplotlib.axis_1">
    <g id="xtick_1">
     <g id="line2d_1">
      <defs>
       <path id="m25e59b0a7e" d="M 0 0 
L 0 3.5 
" style="stroke: #000000; stroke-width: 0.8"/>
      </defs>
      <g>
       <use xlink:href="#m25e59b0a7e" x="159.657923" y="106.048" style="stroke: #000000; stroke-width: 0.8"/>
      </g>
     </g>
    </g>
    <g id="xtick_2">
     <g id="line2d_2">
      <g>
       <use xlink:href="#m25e59b0a7e" x="274.221823" y="106.048" style="stroke: #000000; stroke-width: 0.8"/>
      </g>
     </g>
    </g>
    <g id="xtick_3">
     <g id="line2d_3">
      <g>
       <use xlink:href="#m25e59b0a7e" x="388.785723" y="106.048" style="stroke: #000000; stroke-width: 0.8"/>
      </g>
     </g>
    </g>
    <g id="xtick_4">
     <g id="line2d_4">
      <g>
       <use xlink:href="#m25e59b0a7e" x="503.349623" y="106.048" style="stroke: #000000; stroke-width: 0.8"/>
      </g>
     </g>
    </g>
    <g id="xtick_5">
     <g id="line2d_5">
      <g>
       <use xlink:href="#m25e59b0a7e" x="617.913522" y="106.048" style="stroke: #000000; stroke-width: 0.8"/>
      </g>
     </g>
    </g>
    <g id="xtick_6">
     <g id="line2d_6">
      <g>
       <use xlink:href="#m25e59b0a7e" x="732.477422" y="106.048" style="stroke: #000000; stroke-width: 0.8"/>
      </g>
     </g>
    </g>
   </g>
   <g id="matplotlib.axis_2"/>
   <g id="line2d_7">
    <path d="M 159.657923 101.938568 
L 179.807352 101.015057 
L 191.321312 100.216893 
L 199.956782 99.379967 
L 208.592252 98.282673 
L 217.227721 96.893833 
L 225.863191 95.205025 
L 234.498661 93.231022 
L 243.134131 91.006795 
L 254.648091 87.740478 
L 271.919031 82.505212 
L 286.31148 78.214775 
L 294.94695 75.846793 
L 303.58242 73.742218 
L 309.3394 72.526563 
L 315.09638 71.48468 
L 320.85336 70.630842 
L 326.61034 69.972029 
L 332.367319 69.506748 
L 338.124299 69.224524 
L 346.759769 69.100408 
L 355.395239 69.248958 
L 372.666179 69.897456 
L 384.180139 70.245629 
L 395.694098 70.337276 
L 407.208058 70.133602 
L 418.722018 69.67963 
L 433.114468 68.883074 
L 456.142387 67.362205 
L 476.291817 65.851616 
L 493.562757 64.340824 
L 530.983126 60.850188 
L 539.618596 60.32784 
L 548.254066 60.046953 
L 556.889536 60.042768 
L 565.525005 60.315494 
L 574.160475 60.828808 
L 585.674435 61.77365 
L 625.973294 65.56642 
L 637.487254 66.839641 
L 646.122724 68.029875 
L 654.758194 69.502628 
L 663.393664 71.299695 
L 672.029134 73.424466 
L 680.664603 75.842073 
L 689.300073 78.487131 
L 703.692523 83.170959 
L 720.963463 88.758794 
L 732.477422 92.206014 
L 732.477422 92.206014 
" clip-path="url(#p852083dc95)" style="fill: none; stroke: #ffffff; stroke-width: 2; stroke-linecap: square"/>
   </g>
   <g id="line2d_8">
    <path d="M 159.657923 106.048 
L 732.477422 106.048 
" style="fill: none; stroke: #000000; stroke-linecap: square"/>
   </g>
   <g id="text_1">
    <g id="patch_3">
     <path d="M 3.24 115.468937 
L 103.471875 115.468937 
L 103.471875 96.627062 
L 3.24 96.627062 
z
" style="fill: #ffffff; opacity: 0.5"/>
    </g>
    <!-- Luxury Residences -->
    <g transform="translate(7.2 108.919562) scale(0.12 -0.12)">
     <defs>
      <path id="TimesNewRomanPSMT-4c" d="M 3669 1172 
L 3772 1150 
L 3409 0 
L 128 0 
L 128 116 
L 288 116 
Q 556 116 672 291 
Q 738 391 738 753 
L 738 3488 
Q 738 3884 650 3984 
Q 528 4122 288 4122 
L 128 4122 
L 128 4238 
L 2047 4238 
L 2047 4122 
Q 1709 4125 1573 4059 
Q 1438 3994 1388 3894 
Q 1338 3794 1338 3416 
L 1338 753 
Q 1338 494 1388 397 
Q 1425 331 1503 300 
Q 1581 269 1991 269 
L 2300 269 
Q 2788 269 2984 341 
Q 3181 413 3343 595 
Q 3506 778 3669 1172 
z
" transform="scale(0.015625)"/>
      <path id="TimesNewRomanPSMT-75" d="M 2709 2863 
L 2709 1128 
Q 2709 631 2732 520 
Q 2756 409 2807 365 
Q 2859 322 2928 322 
Q 3025 322 3147 375 
L 3191 266 
L 2334 -88 
L 2194 -88 
L 2194 519 
Q 1825 119 1631 15 
Q 1438 -88 1222 -88 
Q 981 -88 804 51 
Q 628 191 559 409 
Q 491 628 491 1028 
L 491 2306 
Q 491 2509 447 2587 
Q 403 2666 317 2708 
Q 231 2750 6 2747 
L 6 2863 
L 1009 2863 
L 1009 947 
Q 1009 547 1148 422 
Q 1288 297 1484 297 
Q 1619 297 1789 381 
Q 1959 466 2194 703 
L 2194 2325 
Q 2194 2569 2105 2655 
Q 2016 2741 1734 2747 
L 1734 2863 
L 2709 2863 
z
" transform="scale(0.015625)"/>
      <path id="TimesNewRomanPSMT-78" d="M 84 2863 
L 1431 2863 
L 1431 2747 
Q 1303 2747 1251 2703 
Q 1200 2659 1200 2588 
Q 1200 2513 1309 2356 
Q 1344 2306 1413 2200 
L 1616 1875 
L 1850 2200 
Q 2075 2509 2075 2591 
Q 2075 2656 2022 2701 
Q 1969 2747 1850 2747 
L 1850 2863 
L 2819 2863 
L 2819 2747 
Q 2666 2738 2553 2663 
Q 2400 2556 2134 2200 
L 1744 1678 
L 2456 653 
Q 2719 275 2831 198 
Q 2944 122 3122 113 
L 3122 0 
L 1772 0 
L 1772 113 
Q 1913 113 1991 175 
Q 2050 219 2050 291 
Q 2050 363 1850 653 
L 1431 1266 
L 972 653 
Q 759 369 759 316 
Q 759 241 829 180 
Q 900 119 1041 113 
L 1041 0 
L 106 0 
L 106 113 
Q 219 128 303 191 
Q 422 281 703 653 
L 1303 1450 
L 759 2238 
Q 528 2575 401 2661 
Q 275 2747 84 2747 
L 84 2863 
z
" transform="scale(0.015625)"/>
      <path id="TimesNewRomanPSMT-72" d="M 1038 2947 
L 1038 2303 
Q 1397 2947 1775 2947 
Q 1947 2947 2059 2842 
Q 2172 2738 2172 2600 
Q 2172 2478 2090 2393 
Q 2009 2309 1897 2309 
Q 1788 2309 1652 2417 
Q 1516 2525 1450 2525 
Q 1394 2525 1328 2463 
Q 1188 2334 1038 2041 
L 1038 669 
Q 1038 431 1097 309 
Q 1138 225 1241 169 
Q 1344 113 1538 113 
L 1538 0 
L 72 0 
L 72 113 
Q 291 113 397 181 
Q 475 231 506 341 
Q 522 394 522 644 
L 522 1753 
Q 522 2253 501 2348 
Q 481 2444 426 2487 
Q 372 2531 291 2531 
Q 194 2531 72 2484 
L 41 2597 
L 906 2947 
L 1038 2947 
z
" transform="scale(0.015625)"/>
      <path id="TimesNewRomanPSMT-79" d="M 38 2863 
L 1372 2863 
L 1372 2747 
L 1306 2747 
Q 1166 2747 1095 2686 
Q 1025 2625 1025 2534 
Q 1025 2413 1128 2197 
L 1825 753 
L 2466 2334 
Q 2519 2463 2519 2588 
Q 2519 2644 2497 2672 
Q 2472 2706 2419 2726 
Q 2366 2747 2231 2747 
L 2231 2863 
L 3163 2863 
L 3163 2747 
Q 3047 2734 2984 2696 
Q 2922 2659 2847 2556 
Q 2819 2513 2741 2316 
L 1575 -541 
Q 1406 -956 1132 -1168 
Q 859 -1381 606 -1381 
Q 422 -1381 303 -1275 
Q 184 -1169 184 -1031 
Q 184 -900 270 -820 
Q 356 -741 506 -741 
Q 609 -741 788 -809 
Q 913 -856 944 -856 
Q 1038 -856 1148 -759 
Q 1259 -663 1372 -384 
L 1575 113 
L 547 2272 
Q 500 2369 397 2513 
Q 319 2622 269 2659 
Q 197 2709 38 2747 
L 38 2863 
z
" transform="scale(0.015625)"/>
      <path id="TimesNewRomanPSMT-20" transform="scale(0.015625)"/>
      <path id="TimesNewRomanPSMT-52" d="M 4325 0 
L 3194 0 
L 1759 1981 
Q 1600 1975 1500 1975 
Q 1459 1975 1412 1976 
Q 1366 1978 1316 1981 
L 1316 750 
Q 1316 350 1403 253 
Q 1522 116 1759 116 
L 1925 116 
L 1925 0 
L 109 0 
L 109 116 
L 269 116 
Q 538 116 653 291 
Q 719 388 719 750 
L 719 3488 
Q 719 3888 631 3984 
Q 509 4122 269 4122 
L 109 4122 
L 109 4238 
L 1653 4238 
Q 2328 4238 2648 4139 
Q 2969 4041 3192 3777 
Q 3416 3513 3416 3147 
Q 3416 2756 3161 2468 
Q 2906 2181 2372 2063 
L 3247 847 
Q 3547 428 3762 290 
Q 3978 153 4325 116 
L 4325 0 
z
M 1316 2178 
Q 1375 2178 1419 2176 
Q 1463 2175 1491 2175 
Q 2097 2175 2405 2437 
Q 2713 2700 2713 3106 
Q 2713 3503 2464 3751 
Q 2216 4000 1806 4000 
Q 1625 4000 1316 3941 
L 1316 2178 
z
" transform="scale(0.015625)"/>
      <path id="TimesNewRomanPSMT-65" d="M 681 1784 
Q 678 1147 991 784 
Q 1303 422 1725 422 
Q 2006 422 2214 576 
Q 2422 731 2563 1106 
L 2659 1044 
Q 2594 616 2278 264 
Q 1963 -88 1488 -88 
Q 972 -88 605 314 
Q 238 716 238 1394 
Q 238 2128 614 2539 
Q 991 2950 1559 2950 
Q 2041 2950 2350 2633 
Q 2659 2316 2659 1784 
L 681 1784 
z
M 681 1966 
L 2006 1966 
Q 1991 2241 1941 2353 
Q 1863 2528 1708 2628 
Q 1553 2728 1384 2728 
Q 1125 2728 920 2526 
Q 716 2325 681 1966 
z
" transform="scale(0.015625)"/>
      <path id="TimesNewRomanPSMT-73" d="M 2050 2947 
L 2050 1972 
L 1947 1972 
Q 1828 2431 1642 2597 
Q 1456 2763 1169 2763 
Q 950 2763 815 2647 
Q 681 2531 681 2391 
Q 681 2216 781 2091 
Q 878 1963 1175 1819 
L 1631 1597 
Q 2266 1288 2266 781 
Q 2266 391 1970 151 
Q 1675 -88 1309 -88 
Q 1047 -88 709 6 
Q 606 38 541 38 
Q 469 38 428 -44 
L 325 -44 
L 325 978 
L 428 978 
Q 516 541 762 319 
Q 1009 97 1316 97 
Q 1531 97 1667 223 
Q 1803 350 1803 528 
Q 1803 744 1651 891 
Q 1500 1038 1047 1263 
Q 594 1488 453 1669 
Q 313 1847 313 2119 
Q 313 2472 555 2709 
Q 797 2947 1181 2947 
Q 1350 2947 1591 2875 
Q 1750 2828 1803 2828 
Q 1853 2828 1881 2850 
Q 1909 2872 1947 2947 
L 2050 2947 
z
" transform="scale(0.015625)"/>
      <path id="TimesNewRomanPSMT-69" d="M 928 4444 
Q 1059 4444 1151 4351 
Q 1244 4259 1244 4128 
Q 1244 3997 1151 3903 
Q 1059 3809 928 3809 
Q 797 3809 703 3903 
Q 609 3997 609 4128 
Q 609 4259 701 4351 
Q 794 4444 928 4444 
z
M 1188 2947 
L 1188 647 
Q 1188 378 1227 289 
Q 1266 200 1342 156 
Q 1419 113 1622 113 
L 1622 0 
L 231 0 
L 231 113 
Q 441 113 512 153 
Q 584 194 626 287 
Q 669 381 669 647 
L 669 1750 
Q 669 2216 641 2353 
Q 619 2453 572 2492 
Q 525 2531 444 2531 
Q 356 2531 231 2484 
L 188 2597 
L 1050 2947 
L 1188 2947 
z
" transform="scale(0.015625)"/>
      <path id="TimesNewRomanPSMT-64" d="M 2222 322 
Q 2013 103 1813 7 
Q 1613 -88 1381 -88 
Q 913 -88 563 304 
Q 213 697 213 1313 
Q 213 1928 600 2439 
Q 988 2950 1597 2950 
Q 1975 2950 2222 2709 
L 2222 3238 
Q 2222 3728 2198 3840 
Q 2175 3953 2125 3993 
Q 2075 4034 2000 4034 
Q 1919 4034 1784 3984 
L 1744 4094 
L 2597 4444 
L 2738 4444 
L 2738 1134 
Q 2738 631 2761 520 
Q 2784 409 2836 365 
Q 2888 322 2956 322 
Q 3041 322 3181 375 
L 3216 266 
L 2366 -88 
L 2222 -88 
L 2222 322 
z
M 2222 541 
L 2222 2016 
Q 2203 2228 2109 2403 
Q 2016 2578 1861 2667 
Q 1706 2756 1559 2756 
Q 1284 2756 1069 2509 
Q 784 2184 784 1559 
Q 784 928 1059 592 
Q 1334 256 1672 256 
Q 1956 256 2222 541 
z
" transform="scale(0.015625)"/>
      <path id="TimesNewRomanPSMT-6e" d="M 1034 2341 
Q 1538 2947 1994 2947 
Q 2228 2947 2397 2830 
Q 2566 2713 2666 2444 
Q 2734 2256 2734 1869 
L 2734 647 
Q 2734 375 2778 278 
Q 2813 200 2889 156 
Q 2966 113 3172 113 
L 3172 0 
L 1756 0 
L 1756 113 
L 1816 113 
Q 2016 113 2095 173 
Q 2175 234 2206 353 
Q 2219 400 2219 647 
L 2219 1819 
Q 2219 2209 2117 2386 
Q 2016 2563 1775 2563 
Q 1403 2563 1034 2156 
L 1034 647 
Q 1034 356 1069 288 
Q 1113 197 1189 155 
Q 1266 113 1500 113 
L 1500 0 
L 84 0 
L 84 113 
L 147 113 
Q 366 113 442 223 
Q 519 334 519 647 
L 519 1709 
Q 519 2225 495 2337 
Q 472 2450 423 2490 
Q 375 2531 294 2531 
Q 206 2531 84 2484 
L 38 2597 
L 900 2947 
L 1034 2947 
L 1034 2341 
z
" transform="scale(0.015625)"/>
      <path id="TimesNewRomanPSMT-63" d="M 2631 1088 
Q 2516 522 2178 217 
Q 1841 -88 1431 -88 
Q 944 -88 581 321 
Q 219 731 219 1428 
Q 219 2103 620 2525 
Q 1022 2947 1584 2947 
Q 2006 2947 2278 2723 
Q 2550 2500 2550 2259 
Q 2550 2141 2473 2067 
Q 2397 1994 2259 1994 
Q 2075 1994 1981 2113 
Q 1928 2178 1911 2362 
Q 1894 2547 1784 2644 
Q 1675 2738 1481 2738 
Q 1169 2738 978 2506 
Q 725 2200 725 1697 
Q 725 1184 976 792 
Q 1228 400 1656 400 
Q 1963 400 2206 609 
Q 2378 753 2541 1131 
L 2631 1088 
z
" transform="scale(0.015625)"/>
     </defs>
     <use xlink:href="#TimesNewRomanPSMT-4c"/>
     <use xlink:href="#TimesNewRomanPSMT-75" transform="translate(61.083984 0)"/>
     <use xlink:href="#TimesNewRomanPSMT-78" transform="translate(111.083984 0)"/>
     <use xlink:href="#TimesNewRomanPSMT-75" transform="translate(161.083984 0)"/>
     <use xlink:href="#TimesNewRomanPSMT-72" transform="translate(211.083984 0)"/>
     <use xlink:href="#TimesNewRomanPSMT-79" transform="translate(244.384766 0)"/>
     <use xlink:href="#TimesNewRomanPSMT-20" transform="translate(294.384766 0)"/>
     <use xlink:href="#TimesNewRomanPSMT-52" transform="translate(319.384766 0)"/>
     <use xlink:href="#TimesNewRomanPSMT-65" transform="translate(386.083984 0)"/>
     <use xlink:href="#TimesNewRomanPSMT-73" transform="translate(430.46875 0)"/>
     <use xlink:href="#TimesNewRomanPSMT-69" transform="translate(469.384766 0)"/>
     <use xlink:href="#TimesNewRomanPSMT-64" transform="translate(497.167969 0)"/>
     <use xlink:href="#TimesNewRomanPSMT-65" transform="translate(547.167969 0)"/>
     <use xlink:href="#TimesNewRomanPSMT-6e" transform="translate(591.552734 0)"/>
     <use xlink:href="#TimesNewRomanPSMT-63" transform="translate(641.552734 0)"/>
     <use xlink:href="#TimesNewRomanPSMT-65" transform="translate(685.9375 0)"/>
     <use xlink:href="#TimesNewRomanPSMT-73" transform="translate(730.322266 0)"/>
    </g>
   </g>
  </g>
  <g id="axes_2">
   <g id="patch_4">
    <path d="M 159.657923 150.312 
L 732.477422 150.312 
L 732.477422 61.784 
L 159.657923 61.784 
L 159.657923 150.312 
z
" style="fill: none; opacity: 0"/>
   </g>
   <g id="FillBetweenPolyCollection_2">
    <defs>
     <path id="mb4866eb899" d="M 159.657923 -184.337078 
L 159.657923 -130.343312 
L 162.536412 -130.343312 
L 165.414902 -130.343312 
L 168.293392 -130.343312 
L 171.171882 -130.343312 
L 174.050372 -130.343312 
L 176.928862 -130.343312 
L 179.807352 -130.343312 
L 182.685842 -130.343312 
L 185.564332 -130.343312 
L 188.442822 -130.343312 
L 191.321312 -130.343312 
L 194.199802 -130.343312 
L 197.078292 -130.343312 
L 199.956782 -130.343312 
L 202.835272 -130.343312 
L 205.713762 -130.343312 
L 208.592252 -130.343312 
L 211.470742 -130.343312 
L 214.349232 -130.343312 
L 217.227721 -130.343312 
L 220.106211 -130.343312 
L 222.984701 -130.343312 
L 225.863191 -130.343312 
L 228.741681 -130.343312 
L 231.620171 -130.343312 
L 234.498661 -130.343312 
L 237.377151 -130.343312 
L 240.255641 -130.343312 
L 243.134131 -130.343312 
L 246.012621 -130.343312 
L 248.891111 -130.343312 
L 251.769601 -130.343312 
L 254.648091 -130.343312 
L 257.526581 -130.343312 
L 260.405071 -130.343312 
L 263.283561 -130.343312 
L 266.162051 -130.343312 
L 269.040541 -130.343312 
L 271.919031 -130.343312 
L 274.79752 -130.343312 
L 277.67601 -130.343312 
L 280.5545 -130.343312 
L 283.43299 -130.343312 
L 286.31148 -130.343312 
L 289.18997 -130.343312 
L 292.06846 -130.343312 
L 294.94695 -130.343312 
L 297.82544 -130.343312 
L 300.70393 -130.343312 
L 303.58242 -130.343312 
L 306.46091 -130.343312 
L 309.3394 -130.343312 
L 312.21789 -130.343312 
L 315.09638 -130.343312 
L 317.97487 -130.343312 
L 320.85336 -130.343312 
L 323.73185 -130.343312 
L 326.61034 -130.343312 
L 329.48883 -130.343312 
L 332.367319 -130.343312 
L 335.245809 -130.343312 
L 338.124299 -130.343312 
L 341.002789 -130.343312 
L 343.881279 -130.343312 
L 346.759769 -130.343312 
L 349.638259 -130.343312 
L 352.516749 -130.343312 
L 355.395239 -130.343312 
L 358.273729 -130.343312 
L 361.152219 -130.343312 
L 364.030709 -130.343312 
L 366.909199 -130.343312 
L 369.787689 -130.343312 
L 372.666179 -130.343312 
L 375.544669 -130.343312 
L 378.423159 -130.343312 
L 381.301649 -130.343312 
L 384.180139 -130.343312 
L 387.058629 -130.343312 
L 389.937118 -130.343312 
L 392.815608 -130.343312 
L 395.694098 -130.343312 
L 398.572588 -130.343312 
L 401.451078 -130.343312 
L 404.329568 -130.343312 
L 407.208058 -130.343312 
L 410.086548 -130.343312 
L 412.965038 -130.343312 
L 415.843528 -130.343312 
L 418.722018 -130.343312 
L 421.600508 -130.343312 
L 424.478998 -130.343312 
L 427.357488 -130.343312 
L 430.235978 -130.343312 
L 433.114468 -130.343312 
L 435.992958 -130.343312 
L 438.871448 -130.343312 
L 441.749938 -130.343312 
L 444.628428 -130.343312 
L 447.506917 -130.343312 
L 450.385407 -130.343312 
L 453.263897 -130.343312 
L 456.142387 -130.343312 
L 459.020877 -130.343312 
L 461.899367 -130.343312 
L 464.777857 -130.343312 
L 467.656347 -130.343312 
L 470.534837 -130.343312 
L 473.413327 -130.343312 
L 476.291817 -130.343312 
L 479.170307 -130.343312 
L 482.048797 -130.343312 
L 484.927287 -130.343312 
L 487.805777 -130.343312 
L 490.684267 -130.343312 
L 493.562757 -130.343312 
L 496.441247 -130.343312 
L 499.319737 -130.343312 
L 502.198227 -130.343312 
L 505.076716 -130.343312 
L 507.955206 -130.343312 
L 510.833696 -130.343312 
L 513.712186 -130.343312 
L 516.590676 -130.343312 
L 519.469166 -130.343312 
L 522.347656 -130.343312 
L 525.226146 -130.343312 
L 528.104636 -130.343312 
L 530.983126 -130.343312 
L 533.861616 -130.343312 
L 536.740106 -130.343312 
L 539.618596 -130.343312 
L 542.497086 -130.343312 
L 545.375576 -130.343312 
L 548.254066 -130.343312 
L 551.132556 -130.343312 
L 554.011046 -130.343312 
L 556.889536 -130.343312 
L 559.768026 -130.343312 
L 562.646515 -130.343312 
L 565.525005 -130.343312 
L 568.403495 -130.343312 
L 571.281985 -130.343312 
L 574.160475 -130.343312 
L 577.038965 -130.343312 
L 579.917455 -130.343312 
L 582.795945 -130.343312 
L 585.674435 -130.343312 
L 588.552925 -130.343312 
L 591.431415 -130.343312 
L 594.309905 -130.343312 
L 597.188395 -130.343312 
L 600.066885 -130.343312 
L 602.945375 -130.343312 
L 605.823865 -130.343312 
L 608.702355 -130.343312 
L 611.580845 -130.343312 
L 614.459335 -130.343312 
L 617.337825 -130.343312 
L 620.216314 -130.343312 
L 623.094804 -130.343312 
L 625.973294 -130.343312 
L 628.851784 -130.343312 
L 631.730274 -130.343312 
L 634.608764 -130.343312 
L 637.487254 -130.343312 
L 640.365744 -130.343312 
L 643.244234 -130.343312 
L 646.122724 -130.343312 
L 649.001214 -130.343312 
L 651.879704 -130.343312 
L 654.758194 -130.343312 
L 657.636684 -130.343312 
L 660.515174 -130.343312 
L 663.393664 -130.343312 
L 666.272154 -130.343312 
L 669.150644 -130.343312 
L 672.029134 -130.343312 
L 674.907624 -130.343312 
L 677.786113 -130.343312 
L 680.664603 -130.343312 
L 683.543093 -130.343312 
L 686.421583 -130.343312 
L 689.300073 -130.343312 
L 692.178563 -130.343312 
L 695.057053 -130.343312 
L 697.935543 -130.343312 
L 700.814033 -130.343312 
L 703.692523 -130.343312 
L 706.571013 -130.343312 
L 709.449503 -130.343312 
L 712.327993 -130.343312 
L 715.206483 -130.343312 
L 718.084973 -130.343312 
L 720.963463 -130.343312 
L 723.841953 -130.343312 
L 726.720443 -130.343312 
L 729.598933 -130.343312 
L 732.477422 -130.343312 
L 732.477422 -142.036689 
L 732.477422 -142.036689 
L 729.598933 -142.369399 
L 726.720443 -142.684969 
L 723.841953 -142.981898 
L 720.963463 -143.258805 
L 718.084973 -143.514448 
L 715.206483 -143.747729 
L 712.327993 -143.957709 
L 709.449503 -144.143618 
L 706.571013 -144.304857 
L 703.692523 -144.44101 
L 700.814033 -144.551838 
L 697.935543 -144.637286 
L 695.057053 -144.697482 
L 692.178563 -144.732729 
L 689.300073 -144.743505 
L 686.421583 -144.73045 
L 683.543093 -144.694366 
L 680.664603 -144.636197 
L 677.786113 -144.557025 
L 674.907624 -144.458055 
L 672.029134 -144.340598 
L 669.150644 -144.206062 
L 666.272154 -144.055932 
L 663.393664 -143.891755 
L 660.515174 -143.715125 
L 657.636684 -143.527669 
L 654.758194 -143.331022 
L 651.879704 -143.126821 
L 649.001214 -142.916683 
L 646.122724 -142.70219 
L 643.244234 -142.484877 
L 640.365744 -142.266217 
L 637.487254 -142.047606 
L 634.608764 -141.830356 
L 631.730274 -141.615681 
L 628.851784 -141.404687 
L 625.973294 -141.198371 
L 623.094804 -140.997608 
L 620.216314 -140.803152 
L 617.337825 -140.615633 
L 614.459335 -140.435554 
L 611.580845 -140.263299 
L 608.702355 -140.099131 
L 605.823865 -139.943201 
L 602.945375 -139.795554 
L 600.066885 -139.656138 
L 597.188395 -139.52482 
L 594.309905 -139.40139 
L 591.431415 -139.28558 
L 588.552925 -139.177081 
L 585.674435 -139.075551 
L 582.795945 -138.980636 
L 579.917455 -138.891984 
L 577.038965 -138.809264 
L 574.160475 -138.732174 
L 571.281985 -138.660461 
L 568.403495 -138.593931 
L 565.525005 -138.532464 
L 562.646515 -138.476016 
L 559.768026 -138.424634 
L 556.889536 -138.378455 
L 554.011046 -138.337713 
L 551.132556 -138.302734 
L 548.254066 -138.273938 
L 545.375576 -138.25183 
L 542.497086 -138.23699 
L 539.618596 -138.230068 
L 536.740106 -138.231765 
L 533.861616 -138.242821 
L 530.983126 -138.263997 
L 528.104636 -138.296055 
L 525.226146 -138.339743 
L 522.347656 -138.395769 
L 519.469166 -138.464785 
L 516.590676 -138.547365 
L 513.712186 -138.643988 
L 510.833696 -138.755016 
L 507.955206 -138.880681 
L 505.076716 -139.021072 
L 502.198227 -139.176117 
L 499.319737 -139.345582 
L 496.441247 -139.529059 
L 493.562757 -139.725966 
L 490.684267 -139.93555 
L 487.805777 -140.156885 
L 484.927287 -140.388887 
L 482.048797 -140.63032 
L 479.170307 -140.879816 
L 476.291817 -141.135886 
L 473.413327 -141.396948 
L 470.534837 -141.661343 
L 467.656347 -141.927367 
L 464.777857 -142.193292 
L 461.899367 -142.457398 
L 459.020877 -142.718002 
L 456.142387 -142.973483 
L 453.263897 -143.222316 
L 450.385407 -143.463096 
L 447.506917 -143.694567 
L 444.628428 -143.915645 
L 441.749938 -144.125445 
L 438.871448 -144.323294 
L 435.992958 -144.508756 
L 433.114468 -144.681642 
L 430.235978 -144.842022 
L 427.357488 -144.990234 
L 424.478998 -145.126885 
L 421.600508 -145.252855 
L 418.722018 -145.369291 
L 415.843528 -145.477604 
L 412.965038 -145.579457 
L 410.086548 -145.676755 
L 407.208058 -145.771629 
L 404.329568 -145.866418 
L 401.451078 -145.963654 
L 398.572588 -146.066036 
L 395.694098 -146.176413 
L 392.815608 -146.297759 
L 389.937118 -146.433148 
L 387.058629 -146.585738 
L 384.180139 -146.758737 
L 381.301649 -146.955392 
L 378.423159 -147.178956 
L 375.544669 -147.432676 
L 372.666179 -147.719768 
L 369.787689 -148.043396 
L 366.909199 -148.406657 
L 364.030709 -148.812565 
L 361.152219 -149.264031 
L 358.273729 -149.763847 
L 355.395239 -150.314675 
L 352.516749 -150.91903 
L 349.638259 -151.579264 
L 346.759769 -152.297557 
L 343.881279 -153.075894 
L 341.002789 -153.916056 
L 338.124299 -154.819603 
L 335.245809 -155.787855 
L 332.367319 -156.821872 
L 329.48883 -157.922441 
L 326.61034 -159.090049 
L 323.73185 -160.324863 
L 320.85336 -161.626708 
L 317.97487 -162.995041 
L 315.09638 -164.428929 
L 312.21789 -165.927018 
L 309.3394 -167.487515 
L 306.46091 -169.108159 
L 303.58242 -170.786199 
L 300.70393 -172.518371 
L 297.82544 -174.30088 
L 294.94695 -176.129385 
L 292.06846 -177.998983 
L 289.18997 -179.904206 
L 286.31148 -181.839017 
L 283.43299 -183.796813 
L 280.5545 -185.770437 
L 277.67601 -187.752196 
L 274.79752 -189.733885 
L 271.919031 -191.706826 
L 269.040541 -193.661902 
L 266.162051 -195.589615 
L 263.283561 -197.480141 
L 260.405071 -199.323396 
L 257.526581 -201.109114 
L 254.648091 -202.826925 
L 251.769601 -204.466445 
L 248.891111 -206.017365 
L 246.012621 -207.469552 
L 243.134131 -208.813148 
L 240.255641 -210.038668 
L 237.377151 -211.137106 
L 234.498661 -212.100032 
L 231.620171 -212.919689 
L 228.741681 -213.589087 
L 225.863191 -214.102087 
L 222.984701 -214.453483 
L 220.106211 -214.639067 
L 217.227721 -214.655693 
L 214.349232 -214.501324 
L 211.470742 -214.175063 
L 208.592252 -213.677183 
L 205.713762 -213.009131 
L 202.835272 -212.173525 
L 199.956782 -211.174132 
L 197.078292 -210.015841 
L 194.199802 -208.704612 
L 191.321312 -207.247419 
L 188.442822 -205.65218 
L 185.564332 -203.927674 
L 182.685842 -202.083451 
L 179.807352 -200.129733 
L 176.928862 -198.07731 
L 174.050372 -195.937424 
L 171.171882 -193.721661 
L 168.293392 -191.441834 
L 165.414902 -189.109866 
L 162.536412 -186.737678 
L 159.657923 -184.337078 
z
" style="stroke: #2a788e"/>
    </defs>
    <g clip-path="url(#p8b78a0fd26)">
     <use xlink:href="#mb4866eb899" x="0" y="280.655312" style="fill: #2a788e; fill-opacity: 0.5; stroke: #2a788e"/>
    </g>
   </g>
   <g id="matplotlib.axis_3">
    <g id="xtick_7">
     <g id="line2d_9">
      <g>
       <use xlink:href="#m25e59b0a7e" x="159.657923" y="150.312" style="stroke: #000000; stroke-width: 0.8"/>
      </g>
     </g>
    </g>
    <g id="xtick_8">
     <g id="line2d_10">
      <g>
       <use xlink:href="#m25e59b0a7e" x="274.221823" y="150.312" style="stroke: #000000; stroke-width: 0.8"/>
      </g>
     </g>
    </g>
    <g id="xtick_9">
     <g id="line2d_11">
      <g>
       <use xlink:href="#m25e59b0a7e" x="388.785723" y="150.312" style="stroke: #000000; stroke-width: 0.8"/>
      </g>
     </g>
    </g>
    <g id="xtick_10">
     <g id="line2d_12">
      <g>
       <use xlink:href="#m25e59b0a7e" x="503.349623" y="150.312" style="stroke: #000000; stroke-width: 0.8"/>
      </g>
     </g>
    </g>
    <g id="xtick_11">
     <g id="line2d_13">
      <g>
       <use xlink:href="#m25e59b0a7e" x="617.913522" y="150.312" style="stroke: #000000; stroke-width: 0.8"/>
      </g>
     </g>
    </g>
    <g id="xtick_12">
     <g id="line2d_14">
      <g>
       <use xlink:href="#m25e59b0a7e" x="732.477422" y="150.312" style="stroke: #000000; stroke-width: 0.8"/>
      </g>
     </g>
    </g>
   </g>
   <g id="matplotlib.axis_4"/>
   <g id="line2d_15">
    <path d="M 159.657923 96.318234 
L 168.293392 89.213478 
L 174.050372 84.717889 
L 179.807352 80.525579 
L 185.564332 76.727639 
L 191.321312 73.407894 
L 194.199802 71.950701 
L 197.078292 70.639472 
L 199.956782 69.481181 
L 202.835272 68.481788 
L 205.713762 67.646181 
L 208.592252 66.978129 
L 211.470742 66.480249 
L 214.349232 66.153989 
L 217.227721 65.999619 
L 220.106211 66.016246 
L 222.984701 66.20183 
L 225.863191 66.553225 
L 228.741681 67.066226 
L 231.620171 67.735623 
L 234.498661 68.55528 
L 237.377151 69.518206 
L 240.255641 70.616644 
L 246.012621 73.18576 
L 251.769601 76.188868 
L 257.526581 79.546198 
L 263.283561 83.175172 
L 271.919031 88.948487 
L 292.06846 102.65633 
L 300.70393 108.136942 
L 306.46091 111.547154 
L 312.21789 114.728295 
L 317.97487 117.660271 
L 323.73185 120.330449 
L 329.48883 122.732871 
L 335.245809 124.867458 
L 341.002789 126.739256 
L 346.759769 128.357756 
L 352.516749 129.736283 
L 358.273729 130.891466 
L 364.030709 131.842747 
L 369.787689 132.611917 
L 378.423159 133.476356 
L 387.058629 134.069575 
L 398.572588 134.589276 
L 430.235978 135.813291 
L 441.749938 136.529868 
L 456.142387 137.681829 
L 493.562757 140.929346 
L 505.076716 141.634241 
L 516.590676 142.107947 
L 528.104636 142.359257 
L 542.497086 142.418322 
L 559.768026 142.230679 
L 579.917455 141.763328 
L 597.188395 141.130493 
L 611.580845 140.392013 
L 628.851784 139.250625 
L 666.272154 136.599381 
L 677.786113 136.098287 
L 686.421583 135.924862 
L 695.057053 135.95783 
L 703.692523 136.214303 
L 712.327993 136.697603 
L 720.963463 137.396507 
L 729.598933 138.285914 
L 732.477422 138.618623 
L 732.477422 138.618623 
" clip-path="url(#p8b78a0fd26)" style="fill: none; stroke: #ffffff; stroke-width: 2; stroke-linecap: square"/>
   </g>
   <g id="line2d_16">
    <path d="M 159.657923 150.312 
L 732.477422 150.312 
" style="fill: none; stroke: #000000; stroke-linecap: square"/>
   </g>
   <g id="text_2">
    <g id="patch_5">
     <path d="M 7.899375 159.721687 
L 103.471875 159.721687 
L 103.471875 140.902312 
L 7.899375 140.902312 
z
" style="fill: #ffffff; opacity: 0.5"/>
    </g>
    <!-- Coastal Properties -->
    <g transform="translate(11.859375 153.194812) scale(0.12 -0.12)">
     <defs>
      <path id="TimesNewRomanPSMT-43" d="M 3853 4334 
L 3950 2894 
L 3853 2894 
Q 3659 3541 3300 3825 
Q 2941 4109 2438 4109 
Q 2016 4109 1675 3895 
Q 1334 3681 1139 3212 
Q 944 2744 944 2047 
Q 944 1472 1128 1050 
Q 1313 628 1683 403 
Q 2053 178 2528 178 
Q 2941 178 3256 354 
Q 3572 531 3950 1056 
L 4047 994 
Q 3728 428 3303 165 
Q 2878 -97 2294 -97 
Q 1241 -97 663 684 
Q 231 1266 231 2053 
Q 231 2688 515 3219 
Q 800 3750 1298 4042 
Q 1797 4334 2388 4334 
Q 2847 4334 3294 4109 
Q 3425 4041 3481 4041 
Q 3566 4041 3628 4100 
Q 3709 4184 3744 4334 
L 3853 4334 
z
" transform="scale(0.015625)"/>
      <path id="TimesNewRomanPSMT-6f" d="M 1600 2947 
Q 2250 2947 2644 2453 
Q 2978 2031 2978 1484 
Q 2978 1100 2793 706 
Q 2609 313 2286 112 
Q 1963 -88 1566 -88 
Q 919 -88 538 428 
Q 216 863 216 1403 
Q 216 1797 411 2186 
Q 606 2575 925 2761 
Q 1244 2947 1600 2947 
z
M 1503 2744 
Q 1338 2744 1170 2645 
Q 1003 2547 900 2300 
Q 797 2053 797 1666 
Q 797 1041 1045 587 
Q 1294 134 1700 134 
Q 2003 134 2200 384 
Q 2397 634 2397 1244 
Q 2397 2006 2069 2444 
Q 1847 2744 1503 2744 
z
" transform="scale(0.015625)"/>
      <path id="TimesNewRomanPSMT-61" d="M 1822 413 
Q 1381 72 1269 19 
Q 1100 -59 909 -59 
Q 613 -59 420 144 
Q 228 347 228 678 
Q 228 888 322 1041 
Q 450 1253 767 1440 
Q 1084 1628 1822 1897 
L 1822 2009 
Q 1822 2438 1686 2597 
Q 1550 2756 1291 2756 
Q 1094 2756 978 2650 
Q 859 2544 859 2406 
L 866 2225 
Q 866 2081 792 2003 
Q 719 1925 600 1925 
Q 484 1925 411 2006 
Q 338 2088 338 2228 
Q 338 2497 613 2722 
Q 888 2947 1384 2947 
Q 1766 2947 2009 2819 
Q 2194 2722 2281 2516 
Q 2338 2381 2338 1966 
L 2338 994 
Q 2338 584 2353 492 
Q 2369 400 2405 369 
Q 2441 338 2488 338 
Q 2538 338 2575 359 
Q 2641 400 2828 588 
L 2828 413 
Q 2478 -56 2159 -56 
Q 2006 -56 1915 50 
Q 1825 156 1822 413 
z
M 1822 616 
L 1822 1706 
Q 1350 1519 1213 1441 
Q 966 1303 859 1153 
Q 753 1003 753 825 
Q 753 600 887 451 
Q 1022 303 1197 303 
Q 1434 303 1822 616 
z
" transform="scale(0.015625)"/>
      <path id="TimesNewRomanPSMT-74" d="M 1031 3803 
L 1031 2863 
L 1700 2863 
L 1700 2644 
L 1031 2644 
L 1031 788 
Q 1031 509 1111 412 
Q 1191 316 1316 316 
Q 1419 316 1516 380 
Q 1613 444 1666 569 
L 1788 569 
Q 1678 263 1478 108 
Q 1278 -47 1066 -47 
Q 922 -47 784 33 
Q 647 113 581 261 
Q 516 409 516 719 
L 516 2644 
L 63 2644 
L 63 2747 
Q 234 2816 414 2980 
Q 594 3144 734 3369 
Q 806 3488 934 3803 
L 1031 3803 
z
" transform="scale(0.015625)"/>
      <path id="TimesNewRomanPSMT-6c" d="M 1184 4444 
L 1184 647 
Q 1184 378 1223 290 
Q 1263 203 1344 158 
Q 1425 113 1647 113 
L 1647 0 
L 244 0 
L 244 113 
Q 441 113 512 153 
Q 584 194 625 287 
Q 666 381 666 647 
L 666 3247 
Q 666 3731 644 3842 
Q 622 3953 573 3993 
Q 525 4034 450 4034 
Q 369 4034 244 3984 
L 191 4094 
L 1044 4444 
L 1184 4444 
z
" transform="scale(0.015625)"/>
      <path id="TimesNewRomanPSMT-50" d="M 1313 1984 
L 1313 750 
Q 1313 350 1400 253 
Q 1519 116 1759 116 
L 1922 116 
L 1922 0 
L 106 0 
L 106 116 
L 266 116 
Q 534 116 650 291 
Q 713 388 713 750 
L 713 3488 
Q 713 3888 628 3984 
Q 506 4122 266 4122 
L 106 4122 
L 106 4238 
L 1659 4238 
Q 2228 4238 2556 4120 
Q 2884 4003 3109 3725 
Q 3334 3447 3334 3066 
Q 3334 2547 2992 2222 
Q 2650 1897 2025 1897 
Q 1872 1897 1694 1919 
Q 1516 1941 1313 1984 
z
M 1313 2163 
Q 1478 2131 1606 2115 
Q 1734 2100 1825 2100 
Q 2150 2100 2386 2351 
Q 2622 2603 2622 3003 
Q 2622 3278 2509 3514 
Q 2397 3750 2190 3867 
Q 1984 3984 1722 3984 
Q 1563 3984 1313 3925 
L 1313 2163 
z
" transform="scale(0.015625)"/>
      <path id="TimesNewRomanPSMT-70" d="M -6 2578 
L 875 2934 
L 994 2934 
L 994 2266 
Q 1216 2644 1439 2795 
Q 1663 2947 1909 2947 
Q 2341 2947 2628 2609 
Q 2981 2197 2981 1534 
Q 2981 794 2556 309 
Q 2206 -88 1675 -88 
Q 1444 -88 1275 -22 
Q 1150 25 994 166 
L 994 -706 
Q 994 -1000 1030 -1079 
Q 1066 -1159 1155 -1206 
Q 1244 -1253 1478 -1253 
L 1478 -1369 
L -22 -1369 
L -22 -1253 
L 56 -1253 
Q 228 -1256 350 -1188 
Q 409 -1153 442 -1076 
Q 475 -1000 475 -688 
L 475 2019 
Q 475 2297 450 2372 
Q 425 2447 370 2484 
Q 316 2522 222 2522 
Q 147 2522 31 2478 
L -6 2578 
z
M 994 2081 
L 994 1013 
Q 994 666 1022 556 
Q 1066 375 1236 237 
Q 1406 100 1666 100 
Q 1978 100 2172 344 
Q 2425 663 2425 1241 
Q 2425 1897 2138 2250 
Q 1938 2494 1663 2494 
Q 1513 2494 1366 2419 
Q 1253 2363 994 2081 
z
" transform="scale(0.015625)"/>
     </defs>
     <use xlink:href="#TimesNewRomanPSMT-43"/>
     <use xlink:href="#TimesNewRomanPSMT-6f" transform="translate(66.699219 0)"/>
     <use xlink:href="#TimesNewRomanPSMT-61" transform="translate(116.699219 0)"/>
     <use xlink:href="#TimesNewRomanPSMT-73" transform="translate(161.083984 0)"/>
     <use xlink:href="#TimesNewRomanPSMT-74" transform="translate(200 0)"/>
     <use xlink:href="#TimesNewRomanPSMT-61" transform="translate(227.783203 0)"/>
     <use xlink:href="#TimesNewRomanPSMT-6c" transform="translate(272.167969 0)"/>
     <use xlink:href="#TimesNewRomanPSMT-20" transform="translate(299.951172 0)"/>
     <use xlink:href="#TimesNewRomanPSMT-50" transform="translate(324.951172 0)"/>
     <use xlink:href="#TimesNewRomanPSMT-72" transform="translate(380.566406 0)"/>
     <use xlink:href="#TimesNewRomanPSMT-6f" transform="translate(413.867188 0)"/>
     <use xlink:href="#TimesNewRomanPSMT-70" transform="translate(463.867188 0)"/>
     <use xlink:href="#TimesNewRomanPSMT-65" transform="translate(513.867188 0)"/>
     <use xlink:href="#TimesNewRomanPSMT-72" transform="translate(558.251953 0)"/>
     <use xlink:href="#TimesNewRomanPSMT-74" transform="translate(591.552734 0)"/>
     <use xlink:href="#TimesNewRomanPSMT-69" transform="translate(619.335938 0)"/>
     <use xlink:href="#TimesNewRomanPSMT-65" transform="translate(647.119141 0)"/>
     <use xlink:href="#TimesNewRomanPSMT-73" transform="translate(691.503906 0)"/>
    </g>
   </g>
  </g>
  <g id="axes_3">
   <g id="patch_6">
    <path d="M 159.657923 194.576 
L 732.477422 194.576 
L 732.477422 106.048 
L 159.657923 106.048 
L 159.657923 194.576 
z
" style="fill: none; opacity: 0"/>
   </g>
   <g id="FillBetweenPolyCollection_3">
    <defs>
     <path id="m607b6bfd55" d="M 159.657923 -99.392959 
L 159.657923 -86.079312 
L 162.536412 -86.079312 
L 165.414902 -86.079312 
L 168.293392 -86.079312 
L 171.171882 -86.079312 
L 174.050372 -86.079312 
L 176.928862 -86.079312 
L 179.807352 -86.079312 
L 182.685842 -86.079312 
L 185.564332 -86.079312 
L 188.442822 -86.079312 
L 191.321312 -86.079312 
L 194.199802 -86.079312 
L 197.078292 -86.079312 
L 199.956782 -86.079312 
L 202.835272 -86.079312 
L 205.713762 -86.079312 
L 208.592252 -86.079312 
L 211.470742 -86.079312 
L 214.349232 -86.079312 
L 217.227721 -86.079312 
L 220.106211 -86.079312 
L 222.984701 -86.079312 
L 225.863191 -86.079312 
L 228.741681 -86.079312 
L 231.620171 -86.079312 
L 234.498661 -86.079312 
L 237.377151 -86.079312 
L 240.255641 -86.079312 
L 243.134131 -86.079312 
L 246.012621 -86.079312 
L 248.891111 -86.079312 
L 251.769601 -86.079312 
L 254.648091 -86.079312 
L 257.526581 -86.079312 
L 260.405071 -86.079312 
L 263.283561 -86.079312 
L 266.162051 -86.079312 
L 269.040541 -86.079312 
L 271.919031 -86.079312 
L 274.79752 -86.079312 
L 277.67601 -86.079312 
L 280.5545 -86.079312 
L 283.43299 -86.079312 
L 286.31148 -86.079312 
L 289.18997 -86.079312 
L 292.06846 -86.079312 
L 294.94695 -86.079312 
L 297.82544 -86.079312 
L 300.70393 -86.079312 
L 303.58242 -86.079312 
L 306.46091 -86.079312 
L 309.3394 -86.079312 
L 312.21789 -86.079312 
L 315.09638 -86.079312 
L 317.97487 -86.079312 
L 320.85336 -86.079312 
L 323.73185 -86.079312 
L 326.61034 -86.079312 
L 329.48883 -86.079312 
L 332.367319 -86.079312 
L 335.245809 -86.079312 
L 338.124299 -86.079312 
L 341.002789 -86.079312 
L 343.881279 -86.079312 
L 346.759769 -86.079312 
L 349.638259 -86.079312 
L 352.516749 -86.079312 
L 355.395239 -86.079312 
L 358.273729 -86.079312 
L 361.152219 -86.079312 
L 364.030709 -86.079312 
L 366.909199 -86.079312 
L 369.787689 -86.079312 
L 372.666179 -86.079312 
L 375.544669 -86.079312 
L 378.423159 -86.079312 
L 381.301649 -86.079312 
L 384.180139 -86.079312 
L 387.058629 -86.079312 
L 389.937118 -86.079312 
L 392.815608 -86.079312 
L 395.694098 -86.079312 
L 398.572588 -86.079312 
L 401.451078 -86.079312 
L 404.329568 -86.079312 
L 407.208058 -86.079312 
L 410.086548 -86.079312 
L 412.965038 -86.079312 
L 415.843528 -86.079312 
L 418.722018 -86.079312 
L 421.600508 -86.079312 
L 424.478998 -86.079312 
L 427.357488 -86.079312 
L 430.235978 -86.079312 
L 433.114468 -86.079312 
L 435.992958 -86.079312 
L 438.871448 -86.079312 
L 441.749938 -86.079312 
L 444.628428 -86.079312 
L 447.506917 -86.079312 
L 450.385407 -86.079312 
L 453.263897 -86.079312 
L 456.142387 -86.079312 
L 459.020877 -86.079312 
L 461.899367 -86.079312 
L 464.777857 -86.079312 
L 467.656347 -86.079312 
L 470.534837 -86.079312 
L 473.413327 -86.079312 
L 476.291817 -86.079312 
L 479.170307 -86.079312 
L 482.048797 -86.079312 
L 484.927287 -86.079312 
L 487.805777 -86.079312 
L 490.684267 -86.079312 
L 493.562757 -86.079312 
L 496.441247 -86.079312 
L 499.319737 -86.079312 
L 502.198227 -86.079312 
L 505.076716 -86.079312 
L 507.955206 -86.079312 
L 510.833696 -86.079312 
L 513.712186 -86.079312 
L 516.590676 -86.079312 
L 519.469166 -86.079312 
L 522.347656 -86.079312 
L 525.226146 -86.079312 
L 528.104636 -86.079312 
L 530.983126 -86.079312 
L 533.861616 -86.079312 
L 536.740106 -86.079312 
L 539.618596 -86.079312 
L 542.497086 -86.079312 
L 545.375576 -86.079312 
L 548.254066 -86.079312 
L 551.132556 -86.079312 
L 554.011046 -86.079312 
L 556.889536 -86.079312 
L 559.768026 -86.079312 
L 562.646515 -86.079312 
L 565.525005 -86.079312 
L 568.403495 -86.079312 
L 571.281985 -86.079312 
L 574.160475 -86.079312 
L 577.038965 -86.079312 
L 579.917455 -86.079312 
L 582.795945 -86.079312 
L 585.674435 -86.079312 
L 588.552925 -86.079312 
L 591.431415 -86.079312 
L 594.309905 -86.079312 
L 597.188395 -86.079312 
L 600.066885 -86.079312 
L 602.945375 -86.079312 
L 605.823865 -86.079312 
L 608.702355 -86.079312 
L 611.580845 -86.079312 
L 614.459335 -86.079312 
L 617.337825 -86.079312 
L 620.216314 -86.079312 
L 623.094804 -86.079312 
L 625.973294 -86.079312 
L 628.851784 -86.079312 
L 631.730274 -86.079312 
L 634.608764 -86.079312 
L 637.487254 -86.079312 
L 640.365744 -86.079312 
L 643.244234 -86.079312 
L 646.122724 -86.079312 
L 649.001214 -86.079312 
L 651.879704 -86.079312 
L 654.758194 -86.079312 
L 657.636684 -86.079312 
L 660.515174 -86.079312 
L 663.393664 -86.079312 
L 666.272154 -86.079312 
L 669.150644 -86.079312 
L 672.029134 -86.079312 
L 674.907624 -86.079312 
L 677.786113 -86.079312 
L 680.664603 -86.079312 
L 683.543093 -86.079312 
L 686.421583 -86.079312 
L 689.300073 -86.079312 
L 692.178563 -86.079312 
L 695.057053 -86.079312 
L 697.935543 -86.079312 
L 700.814033 -86.079312 
L 703.692523 -86.079312 
L 706.571013 -86.079312 
L 709.449503 -86.079312 
L 712.327993 -86.079312 
L 715.206483 -86.079312 
L 718.084973 -86.079312 
L 720.963463 -86.079312 
L 723.841953 -86.079312 
L 726.720443 -86.079312 
L 729.598933 -86.079312 
L 732.477422 -86.079312 
L 732.477422 -102.399064 
L 732.477422 -102.399064 
L 729.598933 -102.932529 
L 726.720443 -103.442956 
L 723.841953 -103.928014 
L 720.963463 -104.385603 
L 718.084973 -104.813885 
L 715.206483 -105.211311 
L 712.327993 -105.576644 
L 709.449503 -105.908986 
L 706.571013 -106.207791 
L 703.692523 -106.472879 
L 700.814033 -106.704452 
L 697.935543 -106.903097 
L 695.057053 -107.069791 
L 692.178563 -107.205898 
L 689.300073 -107.313169 
L 686.421583 -107.393731 
L 683.543093 -107.450076 
L 680.664603 -107.485051 
L 677.786113 -107.501837 
L 674.907624 -107.503931 
L 672.029134 -107.495122 
L 669.150644 -107.479469 
L 666.272154 -107.46127 
L 663.393664 -107.445035 
L 660.515174 -107.435452 
L 657.636684 -107.437356 
L 654.758194 -107.455688 
L 651.879704 -107.495458 
L 649.001214 -107.561703 
L 646.122724 -107.659446 
L 643.244234 -107.793645 
L 640.365744 -107.969149 
L 637.487254 -108.190643 
L 634.608764 -108.462601 
L 631.730274 -108.789222 
L 628.851784 -109.174385 
L 625.973294 -109.621581 
L 623.094804 -110.133861 
L 620.216314 -110.713777 
L 617.337825 -111.363324 
L 614.459335 -112.083886 
L 611.580845 -112.876183 
L 608.702355 -113.740222 
L 605.823865 -114.675257 
L 602.945375 -115.679747 
L 600.066885 -116.751332 
L 597.188395 -117.88681 
L 594.309905 -119.082128 
L 591.431415 -120.332382 
L 588.552925 -121.63183 
L 585.674435 -122.973919 
L 582.795945 -124.351321 
L 579.917455 -125.755991 
L 577.038965 -127.179227 
L 574.160475 -128.611755 
L 571.281985 -130.043818 
L 568.403495 -131.465284 
L 565.525005 -132.865755 
L 562.646515 -134.234699 
L 559.768026 -135.561574 
L 556.889536 -136.835968 
L 554.011046 -138.047737 
L 551.132556 -139.187144 
L 548.254066 -140.244996 
L 545.375576 -141.212773 
L 542.497086 -142.082758 
L 539.618596 -142.84814 
L 536.740106 -143.503125 
L 533.861616 -144.043014 
L 530.983126 -144.464273 
L 528.104636 -144.764585 
L 525.226146 -144.942878 
L 522.347656 -144.999332 
L 519.469166 -144.935375 
L 516.590676 -144.75364 
L 513.712186 -144.457925 
L 510.833696 -144.05311 
L 507.955206 -143.545078 
L 505.076716 -142.940607 
L 502.198227 -142.24725 
L 499.319737 -141.473215 
L 496.441247 -140.627219 
L 493.562757 -139.718356 
L 490.684267 -138.755949 
L 487.805777 -137.749409 
L 484.927287 -136.708097 
L 482.048797 -135.641192 
L 479.170307 -134.557566 
L 476.291817 -133.465675 
L 473.413327 -132.373457 
L 470.534837 -131.288248 
L 467.656347 -130.216713 
L 464.777857 -129.164792 
L 461.899367 -128.137662 
L 459.020877 -127.139717 
L 456.142387 -126.174563 
L 453.263897 -125.24503 
L 450.385407 -124.353189 
L 447.506917 -123.500395 
L 444.628428 -122.687329 
L 441.749938 -121.914056 
L 438.871448 -121.180086 
L 435.992958 -120.484442 
L 433.114468 -119.825737 
L 430.235978 -119.202238 
L 427.357488 -118.611946 
L 424.478998 -118.052668 
L 421.600508 -117.522081 
L 418.722018 -117.017802 
L 415.843528 -116.537443 
L 412.965038 -116.078669 
L 410.086548 -115.639243 
L 407.208058 -115.217069 
L 404.329568 -114.810223 
L 401.451078 -114.416983 
L 398.572588 -114.035848 
L 395.694098 -113.665553 
L 392.815608 -113.305077 
L 389.937118 -112.953647 
L 387.058629 -112.610733 
L 384.180139 -112.276048 
L 381.301649 -111.94953 
L 378.423159 -111.631338 
L 375.544669 -111.321829 
L 372.666179 -111.021546 
L 369.787689 -110.731196 
L 366.909199 -110.45163 
L 364.030709 -110.183824 
L 361.152219 -109.928852 
L 358.273729 -109.68787 
L 355.395239 -109.462089 
L 352.516749 -109.252752 
L 349.638259 -109.061113 
L 346.759769 -108.888412 
L 343.881279 -108.73585 
L 341.002789 -108.604569 
L 338.124299 -108.495627 
L 335.245809 -108.409972 
L 332.367319 -108.348423 
L 329.48883 -108.311647 
L 326.61034 -108.300133 
L 323.73185 -108.314176 
L 320.85336 -108.353857 
L 317.97487 -108.419024 
L 315.09638 -108.509278 
L 312.21789 -108.623958 
L 309.3394 -108.762136 
L 306.46091 -108.922606 
L 303.58242 -109.103886 
L 300.70393 -109.304217 
L 297.82544 -109.521568 
L 294.94695 -109.753654 
L 292.06846 -109.997941 
L 289.18997 -110.251677 
L 286.31148 -110.511908 
L 283.43299 -110.775512 
L 280.5545 -111.03923 
L 277.67601 -111.299702 
L 274.79752 -111.553506 
L 271.919031 -111.797201 
L 269.040541 -112.027365 
L 266.162051 -112.24064 
L 263.283561 -112.433776 
L 260.405071 -112.603668 
L 257.526581 -112.747399 
L 254.648091 -112.862273 
L 251.769601 -112.945848 
L 248.891111 -112.995968 
L 246.012621 -113.010779 
L 243.134131 -112.988755 
L 240.255641 -112.928706 
L 237.377151 -112.829787 
L 234.498661 -112.691499 
L 231.620171 -112.513685 
L 228.741681 -112.296524 
L 225.863191 -112.040512 
L 222.984701 -111.746449 
L 220.106211 -111.415413 
L 217.227721 -111.04874 
L 214.349232 -110.647994 
L 211.470742 -110.214938 
L 208.592252 -109.751505 
L 205.713762 -109.259772 
L 202.835272 -108.741924 
L 199.956782 -108.200231 
L 197.078292 -107.637018 
L 194.199802 -107.054643 
L 191.321312 -106.455472 
L 188.442822 -105.841858 
L 185.564332 -105.216126 
L 182.685842 -104.580558 
L 179.807352 -103.937375 
L 176.928862 -103.288734 
L 174.050372 -102.636716 
L 171.171882 -101.983323 
L 168.293392 -101.330467 
L 165.414902 -100.679978 
L 162.536412 -100.033592 
L 159.657923 -99.392959 
z
" style="stroke: #22a884"/>
    </defs>
    <g clip-path="url(#p6ceb625902)">
     <use xlink:href="#m607b6bfd55" x="0" y="280.655312" style="fill: #22a884; fill-opacity: 0.5; stroke: #22a884"/>
    </g>
   </g>
   <g id="matplotlib.axis_5">
    <g id="xtick_13">
     <g id="line2d_17">
      <g>
       <use xlink:href="#m25e59b0a7e" x="159.657923" y="194.576" style="stroke: #000000; stroke-width: 0.8"/>
      </g>
     </g>
    </g>
    <g id="xtick_14">
     <g id="line2d_18">
      <g>
       <use xlink:href="#m25e59b0a7e" x="274.221823" y="194.576" style="stroke: #000000; stroke-width: 0.8"/>
      </g>
     </g>
    </g>
    <g id="xtick_15">
     <g id="line2d_19">
      <g>
       <use xlink:href="#m25e59b0a7e" x="388.785723" y="194.576" style="stroke: #000000; stroke-width: 0.8"/>
      </g>
     </g>
    </g>
    <g id="xtick_16">
     <g id="line2d_20">
      <g>
       <use xlink:href="#m25e59b0a7e" x="503.349623" y="194.576" style="stroke: #000000; stroke-width: 0.8"/>
      </g>
     </g>
    </g>
    <g id="xtick_17">
     <g id="line2d_21">
      <g>
       <use xlink:href="#m25e59b0a7e" x="617.913522" y="194.576" style="stroke: #000000; stroke-width: 0.8"/>
      </g>
     </g>
    </g>
    <g id="xtick_18">
     <g id="line2d_22">
      <g>
       <use xlink:href="#m25e59b0a7e" x="732.477422" y="194.576" style="stroke: #000000; stroke-width: 0.8"/>
      </g>
     </g>
    </g>
   </g>
   <g id="matplotlib.axis_6"/>
   <g id="line2d_23">
    <path d="M 159.657923 181.262354 
L 197.078292 173.018294 
L 205.713762 171.39554 
L 214.349232 170.007318 
L 222.984701 168.908864 
L 228.741681 168.358788 
L 234.498661 167.963814 
L 240.255641 167.726606 
L 246.012621 167.644533 
L 254.648091 167.79304 
L 263.283561 168.221537 
L 274.79752 169.101806 
L 303.58242 171.551426 
L 312.21789 172.031354 
L 320.85336 172.301455 
L 329.48883 172.343666 
L 338.124299 172.159686 
L 346.759769 171.766901 
L 358.273729 170.967442 
L 369.787689 169.924116 
L 384.180139 168.379265 
L 398.572588 166.619464 
L 410.086548 165.016069 
L 418.722018 163.63751 
L 427.357488 162.043366 
L 435.992958 160.17087 
L 441.749938 158.741256 
L 447.506917 157.154917 
L 456.142387 154.480749 
L 464.777857 151.490521 
L 476.291817 147.189637 
L 487.805777 142.905903 
L 493.562757 140.936956 
L 499.319737 139.182098 
L 505.076716 137.714706 
L 510.833696 136.602203 
L 516.590676 135.901672 
L 519.469166 135.719938 
L 522.347656 135.65598 
L 525.226146 135.712435 
L 528.104636 135.890727 
L 530.983126 136.19104 
L 533.861616 136.612299 
L 536.740106 137.152187 
L 542.497086 138.572555 
L 548.254066 140.410317 
L 554.011046 142.607576 
L 559.768026 145.093739 
L 568.403495 149.190029 
L 588.552925 159.023483 
L 594.309905 161.573185 
L 600.066885 163.903981 
L 605.823865 165.980056 
L 611.580845 167.77913 
L 617.337825 169.291988 
L 623.094804 170.521452 
L 628.851784 171.480928 
L 634.608764 172.192712 
L 640.365744 172.686164 
L 646.122724 172.995867 
L 654.758194 173.199624 
L 666.272154 173.194043 
L 680.664603 173.170261 
L 689.300073 173.342143 
L 697.935543 173.752215 
L 706.571013 174.447522 
L 715.206483 175.444002 
L 723.841953 176.727298 
L 732.477422 178.256249 
L 732.477422 178.256249 
" clip-path="url(#p6ceb625902)" style="fill: none; stroke: #ffffff; stroke-width: 2; stroke-linecap: square"/>
   </g>
   <g id="line2d_24">
    <path d="M 159.657923 194.576 
L 732.477422 194.576 
" style="fill: none; stroke: #000000; stroke-linecap: square"/>
   </g>
   <g id="text_3">
    <g id="patch_7">
     <path d="M 56.2125 203.985687 
L 103.471875 203.985687 
L 103.471875 185.166312 
L 56.2125 185.166312 
z
" style="fill: #ffffff; opacity: 0.5"/>
    </g>
    <!-- Suburbs -->
    <g transform="translate(60.1725 197.458812) scale(0.12 -0.12)">
     <defs>
      <path id="TimesNewRomanPSMT-53" d="M 2934 4334 
L 2934 2869 
L 2819 2869 
Q 2763 3291 2617 3541 
Q 2472 3791 2203 3937 
Q 1934 4084 1647 4084 
Q 1322 4084 1109 3886 
Q 897 3688 897 3434 
Q 897 3241 1031 3081 
Q 1225 2847 1953 2456 
Q 2547 2138 2764 1967 
Q 2981 1797 3098 1565 
Q 3216 1334 3216 1081 
Q 3216 600 2842 251 
Q 2469 -97 1881 -97 
Q 1697 -97 1534 -69 
Q 1438 -53 1133 45 
Q 828 144 747 144 
Q 669 144 623 97 
Q 578 50 556 -97 
L 441 -97 
L 441 1356 
L 556 1356 
Q 638 900 775 673 
Q 913 447 1195 297 
Q 1478 147 1816 147 
Q 2206 147 2432 353 
Q 2659 559 2659 841 
Q 2659 997 2573 1156 
Q 2488 1316 2306 1453 
Q 2184 1547 1640 1851 
Q 1097 2156 867 2337 
Q 638 2519 519 2737 
Q 400 2956 400 3219 
Q 400 3675 750 4004 
Q 1100 4334 1641 4334 
Q 1978 4334 2356 4169 
Q 2531 4091 2603 4091 
Q 2684 4091 2736 4139 
Q 2788 4188 2819 4334 
L 2934 4334 
z
" transform="scale(0.015625)"/>
      <path id="TimesNewRomanPSMT-62" d="M 984 2369 
Q 1400 2947 1881 2947 
Q 2322 2947 2650 2570 
Q 2978 2194 2978 1541 
Q 2978 778 2472 313 
Q 2038 -88 1503 -88 
Q 1253 -88 995 3 
Q 738 94 469 275 
L 469 3241 
Q 469 3728 445 3840 
Q 422 3953 372 3993 
Q 322 4034 247 4034 
Q 159 4034 28 3984 
L -16 4094 
L 844 4444 
L 984 4444 
L 984 2369 
z
M 984 2169 
L 984 456 
Q 1144 300 1314 220 
Q 1484 141 1663 141 
Q 1947 141 2192 453 
Q 2438 766 2438 1363 
Q 2438 1913 2192 2208 
Q 1947 2503 1634 2503 
Q 1469 2503 1303 2419 
Q 1178 2356 984 2169 
z
" transform="scale(0.015625)"/>
     </defs>
     <use xlink:href="#TimesNewRomanPSMT-53"/>
     <use xlink:href="#TimesNewRomanPSMT-75" transform="translate(55.615234 0)"/>
     <use xlink:href="#TimesNewRomanPSMT-62" transform="translate(105.615234 0)"/>
     <use xlink:href="#TimesNewRomanPSMT-75" transform="translate(155.615234 0)"/>
     <use xlink:href="#TimesNewRomanPSMT-72" transform="translate(205.615234 0)"/>
     <use xlink:href="#TimesNewRomanPSMT-62" transform="translate(238.916016 0)"/>
     <use xlink:href="#TimesNewRomanPSMT-73" transform="translate(288.916016 0)"/>
    </g>
   </g>
  </g>
  <g id="axes_4">
   <g id="patch_8">
    <path d="M 159.657923 238.84 
L 732.477422 238.84 
L 732.477422 150.312 
L 159.657923 150.312 
L 159.657923 238.84 
z
" style="fill: none; opacity: 0"/>
   </g>
   <g id="FillBetweenPolyCollection_4">
    <defs>
     <path id="m8f6dbc106f" d="M 159.657923 -53.676495 
L 159.657923 -41.815313 
L 162.536412 -41.815313 
L 165.414902 -41.815313 
L 168.293392 -41.815313 
L 171.171882 -41.815313 
L 174.050372 -41.815313 
L 176.928862 -41.815313 
L 179.807352 -41.815313 
L 182.685842 -41.815313 
L 185.564332 -41.815313 
L 188.442822 -41.815313 
L 191.321312 -41.815313 
L 194.199802 -41.815313 
L 197.078292 -41.815313 
L 199.956782 -41.815313 
L 202.835272 -41.815313 
L 205.713762 -41.815313 
L 208.592252 -41.815313 
L 211.470742 -41.815313 
L 214.349232 -41.815313 
L 217.227721 -41.815313 
L 220.106211 -41.815313 
L 222.984701 -41.815313 
L 225.863191 -41.815313 
L 228.741681 -41.815313 
L 231.620171 -41.815313 
L 234.498661 -41.815313 
L 237.377151 -41.815313 
L 240.255641 -41.815313 
L 243.134131 -41.815313 
L 246.012621 -41.815313 
L 248.891111 -41.815313 
L 251.769601 -41.815313 
L 254.648091 -41.815313 
L 257.526581 -41.815313 
L 260.405071 -41.815313 
L 263.283561 -41.815313 
L 266.162051 -41.815313 
L 269.040541 -41.815313 
L 271.919031 -41.815313 
L 274.79752 -41.815313 
L 277.67601 -41.815313 
L 280.5545 -41.815313 
L 283.43299 -41.815313 
L 286.31148 -41.815313 
L 289.18997 -41.815313 
L 292.06846 -41.815313 
L 294.94695 -41.815313 
L 297.82544 -41.815313 
L 300.70393 -41.815313 
L 303.58242 -41.815313 
L 306.46091 -41.815313 
L 309.3394 -41.815313 
L 312.21789 -41.815313 
L 315.09638 -41.815313 
L 317.97487 -41.815313 
L 320.85336 -41.815313 
L 323.73185 -41.815313 
L 326.61034 -41.815313 
L 329.48883 -41.815313 
L 332.367319 -41.815313 
L 335.245809 -41.815313 
L 338.124299 -41.815313 
L 341.002789 -41.815313 
L 343.881279 -41.815313 
L 346.759769 -41.815313 
L 349.638259 -41.815313 
L 352.516749 -41.815313 
L 355.395239 -41.815313 
L 358.273729 -41.815313 
L 361.152219 -41.815313 
L 364.030709 -41.815313 
L 366.909199 -41.815313 
L 369.787689 -41.815313 
L 372.666179 -41.815313 
L 375.544669 -41.815313 
L 378.423159 -41.815313 
L 381.301649 -41.815313 
L 384.180139 -41.815313 
L 387.058629 -41.815313 
L 389.937118 -41.815313 
L 392.815608 -41.815313 
L 395.694098 -41.815313 
L 398.572588 -41.815313 
L 401.451078 -41.815313 
L 404.329568 -41.815313 
L 407.208058 -41.815313 
L 410.086548 -41.815313 
L 412.965038 -41.815313 
L 415.843528 -41.815313 
L 418.722018 -41.815313 
L 421.600508 -41.815313 
L 424.478998 -41.815313 
L 427.357488 -41.815313 
L 430.235978 -41.815313 
L 433.114468 -41.815313 
L 435.992958 -41.815313 
L 438.871448 -41.815313 
L 441.749938 -41.815313 
L 444.628428 -41.815313 
L 447.506917 -41.815313 
L 450.385407 -41.815313 
L 453.263897 -41.815313 
L 456.142387 -41.815313 
L 459.020877 -41.815313 
L 461.899367 -41.815313 
L 464.777857 -41.815313 
L 467.656347 -41.815313 
L 470.534837 -41.815313 
L 473.413327 -41.815313 
L 476.291817 -41.815313 
L 479.170307 -41.815313 
L 482.048797 -41.815313 
L 484.927287 -41.815313 
L 487.805777 -41.815313 
L 490.684267 -41.815313 
L 493.562757 -41.815313 
L 496.441247 -41.815313 
L 499.319737 -41.815313 
L 502.198227 -41.815313 
L 505.076716 -41.815313 
L 507.955206 -41.815313 
L 510.833696 -41.815313 
L 513.712186 -41.815313 
L 516.590676 -41.815313 
L 519.469166 -41.815313 
L 522.347656 -41.815313 
L 525.226146 -41.815313 
L 528.104636 -41.815313 
L 530.983126 -41.815313 
L 533.861616 -41.815313 
L 536.740106 -41.815313 
L 539.618596 -41.815313 
L 542.497086 -41.815313 
L 545.375576 -41.815313 
L 548.254066 -41.815313 
L 551.132556 -41.815313 
L 554.011046 -41.815313 
L 556.889536 -41.815313 
L 559.768026 -41.815313 
L 562.646515 -41.815313 
L 565.525005 -41.815313 
L 568.403495 -41.815313 
L 571.281985 -41.815313 
L 574.160475 -41.815313 
L 577.038965 -41.815313 
L 579.917455 -41.815313 
L 582.795945 -41.815313 
L 585.674435 -41.815313 
L 588.552925 -41.815313 
L 591.431415 -41.815313 
L 594.309905 -41.815313 
L 597.188395 -41.815313 
L 600.066885 -41.815313 
L 602.945375 -41.815313 
L 605.823865 -41.815313 
L 608.702355 -41.815313 
L 611.580845 -41.815313 
L 614.459335 -41.815313 
L 617.337825 -41.815313 
L 620.216314 -41.815313 
L 623.094804 -41.815313 
L 625.973294 -41.815313 
L 628.851784 -41.815313 
L 631.730274 -41.815313 
L 634.608764 -41.815313 
L 637.487254 -41.815313 
L 640.365744 -41.815313 
L 643.244234 -41.815313 
L 646.122724 -41.815313 
L 649.001214 -41.815313 
L 651.879704 -41.815313 
L 654.758194 -41.815313 
L 657.636684 -41.815313 
L 660.515174 -41.815313 
L 663.393664 -41.815313 
L 666.272154 -41.815313 
L 669.150644 -41.815313 
L 672.029134 -41.815313 
L 674.907624 -41.815313 
L 677.786113 -41.815313 
L 680.664603 -41.815313 
L 683.543093 -41.815313 
L 686.421583 -41.815313 
L 689.300073 -41.815313 
L 692.178563 -41.815313 
L 695.057053 -41.815313 
L 697.935543 -41.815313 
L 700.814033 -41.815313 
L 703.692523 -41.815313 
L 706.571013 -41.815313 
L 709.449503 -41.815313 
L 712.327993 -41.815313 
L 715.206483 -41.815313 
L 718.084973 -41.815313 
L 720.963463 -41.815313 
L 723.841953 -41.815313 
L 726.720443 -41.815313 
L 729.598933 -41.815313 
L 732.477422 -41.815313 
L 732.477422 -58.020529 
L 732.477422 -58.020529 
L 729.598933 -58.545527 
L 726.720443 -59.042472 
L 723.841953 -59.508776 
L 720.963463 -59.942172 
L 718.084973 -60.340751 
L 715.206483 -60.702996 
L 712.327993 -61.027805 
L 709.449503 -61.314511 
L 706.571013 -61.56289 
L 703.692523 -61.77317 
L 700.814033 -61.946021 
L 697.935543 -62.082543 
L 695.057053 -62.184248 
L 692.178563 -62.253033 
L 689.300073 -62.29114 
L 686.421583 -62.301124 
L 683.543093 -62.285801 
L 680.664603 -62.2482 
L 677.786113 -62.191514 
L 674.907624 -62.119039 
L 672.029134 -62.034128 
L 669.150644 -61.940127 
L 666.272154 -61.840329 
L 663.393664 -61.73792 
L 660.515174 -61.635938 
L 657.636684 -61.537225 
L 654.758194 -61.444396 
L 651.879704 -61.35981 
L 649.001214 -61.285541 
L 646.122724 -61.22337 
L 643.244234 -61.174771 
L 640.365744 -61.14091 
L 637.487254 -61.12265 
L 634.608764 -61.120565 
L 631.730274 -61.134952 
L 628.851784 -61.165856 
L 625.973294 -61.213099 
L 623.094804 -61.276307 
L 620.216314 -61.354947 
L 617.337825 -61.44836 
L 614.459335 -61.555799 
L 611.580845 -61.676466 
L 608.702355 -61.809547 
L 605.823865 -61.954249 
L 602.945375 -62.10983 
L 600.066885 -62.275632 
L 597.188395 -62.451106 
L 594.309905 -62.635835 
L 591.431415 -62.829551 
L 588.552925 -63.032154 
L 585.674435 -63.243715 
L 582.795945 -63.464488 
L 579.917455 -63.694905 
L 577.038965 -63.935575 
L 574.160475 -64.187273 
L 571.281985 -64.450932 
L 568.403495 -64.72762 
L 565.525005 -65.018529 
L 562.646515 -65.324944 
L 559.768026 -65.648224 
L 556.889536 -65.989772 
L 554.011046 -66.351009 
L 551.132556 -66.733341 
L 548.254066 -67.138132 
L 545.375576 -67.566673 
L 542.497086 -68.020152 
L 539.618596 -68.499627 
L 536.740106 -69.005997 
L 533.861616 -69.539979 
L 530.983126 -70.102083 
L 528.104636 -70.692594 
L 525.226146 -71.311551 
L 522.347656 -71.958736 
L 519.469166 -72.633665 
L 516.590676 -73.335573 
L 513.712186 -74.063417 
L 510.833696 -74.815874 
L 507.955206 -75.591342 
L 505.076716 -76.38795 
L 502.198227 -77.203565 
L 499.319737 -78.035807 
L 496.441247 -78.882063 
L 493.562757 -79.73951 
L 490.684267 -80.60513 
L 487.805777 -81.475737 
L 484.927287 -82.348001 
L 482.048797 -83.218473 
L 479.170307 -84.083612 
L 476.291817 -84.939815 
L 473.413327 -85.783441 
L 470.534837 -86.610843 
L 467.656347 -87.418391 
L 464.777857 -88.202503 
L 461.899367 -88.959671 
L 459.020877 -89.686483 
L 456.142387 -90.37965 
L 453.263897 -91.036029 
L 450.385407 -91.65264 
L 447.506917 -92.22669 
L 444.628428 -92.75559 
L 441.749938 -93.236969 
L 438.871448 -93.668693 
L 435.992958 -94.048871 
L 433.114468 -94.375874 
L 430.235978 -94.648339 
L 427.357488 -94.865181 
L 424.478998 -95.025595 
L 421.600508 -95.129068 
L 418.722018 -95.175373 
L 415.843528 -95.164582 
L 412.965038 -95.097059 
L 410.086548 -94.973464 
L 407.208058 -94.794748 
L 404.329568 -94.562152 
L 401.451078 -94.277205 
L 398.572588 -93.94171 
L 395.694098 -93.557746 
L 392.815608 -93.127652 
L 389.937118 -92.654016 
L 387.058629 -92.139667 
L 384.180139 -91.587655 
L 381.301649 -91.001231 
L 378.423159 -90.383837 
L 375.544669 -89.739071 
L 372.666179 -89.070672 
L 369.787689 -88.382488 
L 366.909199 -87.678446 
L 364.030709 -86.962524 
L 361.152219 -86.238711 
L 358.273729 -85.510976 
L 355.395239 -84.783229 
L 352.516749 -84.059282 
L 349.638259 -83.34281 
L 346.759769 -82.637316 
L 343.881279 -81.946086 
L 341.002789 -81.272161 
L 338.124299 -80.618295 
L 335.245809 -79.986925 
L 332.367319 -79.380148 
L 329.48883 -78.799688 
L 326.61034 -78.246884 
L 323.73185 -77.72267 
L 320.85336 -77.227572 
L 317.97487 -76.7617 
L 315.09638 -76.324755 
L 312.21789 -75.916039 
L 309.3394 -75.534467 
L 306.46091 -75.178598 
L 303.58242 -74.846652 
L 300.70393 -74.536554 
L 297.82544 -74.245964 
L 294.94695 -73.972323 
L 292.06846 -73.712895 
L 289.18997 -73.46482 
L 286.31148 -73.225155 
L 283.43299 -72.990928 
L 280.5545 -72.759186 
L 277.67601 -72.527039 
L 274.79752 -72.291707 
L 271.919031 -72.050559 
L 269.040541 -71.80115 
L 266.162051 -71.541255 
L 263.283561 -71.268891 
L 260.405071 -70.982346 
L 257.526581 -70.680185 
L 254.648091 -70.361266 
L 251.769601 -70.024741 
L 248.891111 -69.670052 
L 246.012621 -69.296926 
L 243.134131 -68.905359 
L 240.255641 -68.4956 
L 237.377151 -68.06813 
L 234.498661 -67.623634 
L 231.620171 -67.162979 
L 228.741681 -66.687181 
L 225.863191 -66.197377 
L 222.984701 -65.694794 
L 220.106211 -65.180724 
L 217.227721 -64.656488 
L 214.349232 -64.123418 
L 211.470742 -63.582831 
L 208.592252 -63.036003 
L 205.713762 -62.484162 
L 202.835272 -61.928464 
L 199.956782 -61.369988 
L 197.078292 -60.809728 
L 194.199802 -60.248592 
L 191.321312 -59.687396 
L 188.442822 -59.126875 
L 185.564332 -58.567684 
L 182.685842 -58.010405 
L 179.807352 -57.455563 
L 176.928862 -56.90363 
L 174.050372 -56.355044 
L 171.171882 -55.810214 
L 168.293392 -55.269542 
L 165.414902 -54.733423 
L 162.536412 -54.202266 
L 159.657923 -53.676495 
z
" style="stroke: #7ad151"/>
    </defs>
    <g clip-path="url(#p734b9e5c63)">
     <use xlink:href="#m8f6dbc106f" x="0" y="280.655312" style="fill: #7ad151; fill-opacity: 0.5; stroke: #7ad151"/>
    </g>
   </g>
   <g id="matplotlib.axis_7">
    <g id="xtick_19">
     <g id="line2d_25">
      <g>
       <use xlink:href="#m25e59b0a7e" x="159.657923" y="238.84" style="stroke: #000000; stroke-width: 0.8"/>
      </g>
     </g>
     <g id="text_4">
      <!-- 0.0 -->
      <g transform="translate(152.157923 254.1725) scale(0.12 -0.12)">
       <defs>
        <path id="TimesNewRomanPSMT-30" d="M 231 2094 
Q 231 2819 450 3342 
Q 669 3866 1031 4122 
Q 1313 4325 1613 4325 
Q 2100 4325 2488 3828 
Q 2972 3213 2972 2159 
Q 2972 1422 2759 906 
Q 2547 391 2217 158 
Q 1888 -75 1581 -75 
Q 975 -75 572 641 
Q 231 1244 231 2094 
z
M 844 2016 
Q 844 1141 1059 588 
Q 1238 122 1591 122 
Q 1759 122 1940 273 
Q 2122 425 2216 781 
Q 2359 1319 2359 2297 
Q 2359 3022 2209 3506 
Q 2097 3866 1919 4016 
Q 1791 4119 1609 4119 
Q 1397 4119 1231 3928 
Q 1006 3669 925 3112 
Q 844 2556 844 2016 
z
" transform="scale(0.015625)"/>
        <path id="TimesNewRomanPSMT-2e" d="M 800 606 
Q 947 606 1047 504 
Q 1147 403 1147 259 
Q 1147 116 1045 14 
Q 944 -88 800 -88 
Q 656 -88 554 14 
Q 453 116 453 259 
Q 453 406 554 506 
Q 656 606 800 606 
z
" transform="scale(0.015625)"/>
       </defs>
       <use xlink:href="#TimesNewRomanPSMT-30"/>
       <use xlink:href="#TimesNewRomanPSMT-2e" transform="translate(50 0)"/>
       <use xlink:href="#TimesNewRomanPSMT-30" transform="translate(75 0)"/>
      </g>
     </g>
    </g>
    <g id="xtick_20">
     <g id="line2d_26">
      <g>
       <use xlink:href="#m25e59b0a7e" x="274.221823" y="238.84" style="stroke: #000000; stroke-width: 0.8"/>
      </g>
     </g>
     <g id="text_5">
      <!-- 0.2 -->
      <g transform="translate(266.721823 254.1725) scale(0.12 -0.12)">
       <defs>
        <path id="TimesNewRomanPSMT-32" d="M 2934 816 
L 2638 0 
L 138 0 
L 138 116 
Q 1241 1122 1691 1759 
Q 2141 2397 2141 2925 
Q 2141 3328 1894 3587 
Q 1647 3847 1303 3847 
Q 991 3847 742 3664 
Q 494 3481 375 3128 
L 259 3128 
Q 338 3706 661 4015 
Q 984 4325 1469 4325 
Q 1984 4325 2329 3994 
Q 2675 3663 2675 3213 
Q 2675 2891 2525 2569 
Q 2294 2063 1775 1497 
Q 997 647 803 472 
L 1909 472 
Q 2247 472 2383 497 
Q 2519 522 2628 598 
Q 2738 675 2819 816 
L 2934 816 
z
" transform="scale(0.015625)"/>
       </defs>
       <use xlink:href="#TimesNewRomanPSMT-30"/>
       <use xlink:href="#TimesNewRomanPSMT-2e" transform="translate(50 0)"/>
       <use xlink:href="#TimesNewRomanPSMT-32" transform="translate(75 0)"/>
      </g>
     </g>
    </g>
    <g id="xtick_21">
     <g id="line2d_27">
      <g>
       <use xlink:href="#m25e59b0a7e" x="388.785723" y="238.84" style="stroke: #000000; stroke-width: 0.8"/>
      </g>
     </g>
     <g id="text_6">
      <!-- 0.4 -->
      <g transform="translate(381.285723 254.1725) scale(0.12 -0.12)">
       <defs>
        <path id="TimesNewRomanPSMT-34" d="M 2978 1563 
L 2978 1119 
L 2409 1119 
L 2409 0 
L 1894 0 
L 1894 1119 
L 100 1119 
L 100 1519 
L 2066 4325 
L 2409 4325 
L 2409 1563 
L 2978 1563 
z
M 1894 1563 
L 1894 3666 
L 406 1563 
L 1894 1563 
z
" transform="scale(0.015625)"/>
       </defs>
       <use xlink:href="#TimesNewRomanPSMT-30"/>
       <use xlink:href="#TimesNewRomanPSMT-2e" transform="translate(50 0)"/>
       <use xlink:href="#TimesNewRomanPSMT-34" transform="translate(75 0)"/>
      </g>
     </g>
    </g>
    <g id="xtick_22">
     <g id="line2d_28">
      <g>
       <use xlink:href="#m25e59b0a7e" x="503.349623" y="238.84" style="stroke: #000000; stroke-width: 0.8"/>
      </g>
     </g>
     <g id="text_7">
      <!-- 0.6 -->
      <g transform="translate(495.849623 254.1725) scale(0.12 -0.12)">
       <defs>
        <path id="TimesNewRomanPSMT-36" d="M 2869 4325 
L 2869 4209 
Q 2456 4169 2195 4045 
Q 1934 3922 1679 3669 
Q 1425 3416 1258 3105 
Q 1091 2794 978 2366 
Q 1428 2675 1881 2675 
Q 2316 2675 2634 2325 
Q 2953 1975 2953 1425 
Q 2953 894 2631 456 
Q 2244 -75 1606 -75 
Q 1172 -75 869 213 
Q 275 772 275 1663 
Q 275 2231 503 2743 
Q 731 3256 1154 3653 
Q 1578 4050 1965 4187 
Q 2353 4325 2688 4325 
L 2869 4325 
z
M 925 2138 
Q 869 1716 869 1456 
Q 869 1156 980 804 
Q 1091 453 1309 247 
Q 1469 100 1697 100 
Q 1969 100 2183 356 
Q 2397 613 2397 1088 
Q 2397 1622 2184 2012 
Q 1972 2403 1581 2403 
Q 1463 2403 1327 2353 
Q 1191 2303 925 2138 
z
" transform="scale(0.015625)"/>
       </defs>
       <use xlink:href="#TimesNewRomanPSMT-30"/>
       <use xlink:href="#TimesNewRomanPSMT-2e" transform="translate(50 0)"/>
       <use xlink:href="#TimesNewRomanPSMT-36" transform="translate(75 0)"/>
      </g>
     </g>
    </g>
    <g id="xtick_23">
     <g id="line2d_29">
      <g>
       <use xlink:href="#m25e59b0a7e" x="617.913522" y="238.84" style="stroke: #000000; stroke-width: 0.8"/>
      </g>
     </g>
     <g id="text_8">
      <!-- 0.8 -->
      <g transform="translate(610.413522 254.1725) scale(0.12 -0.12)">
       <defs>
        <path id="TimesNewRomanPSMT-38" d="M 1228 2134 
Q 725 2547 579 2797 
Q 434 3047 434 3316 
Q 434 3728 753 4026 
Q 1072 4325 1600 4325 
Q 2113 4325 2425 4047 
Q 2738 3769 2738 3413 
Q 2738 3175 2569 2928 
Q 2400 2681 1866 2347 
Q 2416 1922 2594 1678 
Q 2831 1359 2831 1006 
Q 2831 559 2490 242 
Q 2150 -75 1597 -75 
Q 994 -75 656 303 
Q 388 606 388 966 
Q 388 1247 577 1523 
Q 766 1800 1228 2134 
z
M 1719 2469 
Q 2094 2806 2194 3001 
Q 2294 3197 2294 3444 
Q 2294 3772 2109 3958 
Q 1925 4144 1606 4144 
Q 1288 4144 1088 3959 
Q 888 3775 888 3528 
Q 888 3366 970 3203 
Q 1053 3041 1206 2894 
L 1719 2469 
z
M 1375 2016 
Q 1116 1797 991 1539 
Q 866 1281 866 981 
Q 866 578 1086 336 
Q 1306 94 1647 94 
Q 1984 94 2187 284 
Q 2391 475 2391 747 
Q 2391 972 2272 1150 
Q 2050 1481 1375 2016 
z
" transform="scale(0.015625)"/>
       </defs>
       <use xlink:href="#TimesNewRomanPSMT-30"/>
       <use xlink:href="#TimesNewRomanPSMT-2e" transform="translate(50 0)"/>
       <use xlink:href="#TimesNewRomanPSMT-38" transform="translate(75 0)"/>
      </g>
     </g>
    </g>
    <g id="xtick_24">
     <g id="line2d_30">
      <g>
       <use xlink:href="#m25e59b0a7e" x="732.477422" y="238.84" style="stroke: #000000; stroke-width: 0.8"/>
      </g>
     </g>
     <g id="text_9">
      <!-- 1.0 -->
      <g transform="translate(724.977422 254.1725) scale(0.12 -0.12)">
       <defs>
        <path id="TimesNewRomanPSMT-31" d="M 750 3822 
L 1781 4325 
L 1884 4325 
L 1884 747 
Q 1884 391 1914 303 
Q 1944 216 2037 169 
Q 2131 122 2419 116 
L 2419 0 
L 825 0 
L 825 116 
Q 1125 122 1212 167 
Q 1300 213 1334 289 
Q 1369 366 1369 747 
L 1369 3034 
Q 1369 3497 1338 3628 
Q 1316 3728 1258 3775 
Q 1200 3822 1119 3822 
Q 1003 3822 797 3725 
L 750 3822 
z
" transform="scale(0.015625)"/>
       </defs>
       <use xlink:href="#TimesNewRomanPSMT-31"/>
       <use xlink:href="#TimesNewRomanPSMT-2e" transform="translate(50 0)"/>
       <use xlink:href="#TimesNewRomanPSMT-30" transform="translate(75 0)"/>
      </g>
     </g>
    </g>
    <g id="text_10">
     <!-- Value -->
     <g transform="translate(430.131735 270.460625) scale(0.14 -0.14)">
      <defs>
       <path id="TimesNewRomanPSMT-56" d="M 4544 4238 
L 4544 4122 
Q 4319 4081 4203 3978 
Q 4038 3825 3909 3509 
L 2431 -97 
L 2316 -97 
L 728 3556 
Q 606 3838 556 3900 
Q 478 3997 364 4051 
Q 250 4106 56 4122 
L 56 4238 
L 1788 4238 
L 1788 4122 
Q 1494 4094 1406 4022 
Q 1319 3950 1319 3838 
Q 1319 3681 1463 3350 
L 2541 866 
L 3541 3319 
Q 3688 3681 3688 3822 
Q 3688 3913 3597 3995 
Q 3506 4078 3291 4113 
Q 3275 4116 3238 4122 
L 3238 4238 
L 4544 4238 
z
" transform="scale(0.015625)"/>
      </defs>
      <use xlink:href="#TimesNewRomanPSMT-56"/>
      <use xlink:href="#TimesNewRomanPSMT-61" transform="translate(61.091797 0)"/>
      <use xlink:href="#TimesNewRomanPSMT-6c" transform="translate(105.476562 0)"/>
      <use xlink:href="#TimesNewRomanPSMT-75" transform="translate(133.259766 0)"/>
      <use xlink:href="#TimesNewRomanPSMT-65" transform="translate(183.259766 0)"/>
     </g>
    </g>
    <g id="text_11">
     <!-- 1e6 -->
     <g transform="translate(718.03836 266.683125) scale(0.1 -0.1)">
      <use xlink:href="#TimesNewRomanPSMT-31"/>
      <use xlink:href="#TimesNewRomanPSMT-65" transform="translate(50 0)"/>
      <use xlink:href="#TimesNewRomanPSMT-36" transform="translate(94.384766 0)"/>
     </g>
    </g>
   </g>
   <g id="matplotlib.axis_8"/>
   <g id="line2d_31">
    <path d="M 159.657923 226.978817 
L 179.807352 223.19975 
L 222.984701 214.960518 
L 234.498661 213.031678 
L 246.012621 211.358386 
L 257.526581 209.975128 
L 269.040541 208.854162 
L 303.58242 205.80866 
L 312.21789 204.739274 
L 320.85336 203.42774 
L 329.48883 201.855624 
L 338.124299 200.037018 
L 349.638259 197.312502 
L 375.544669 190.916242 
L 384.180139 189.067658 
L 389.937118 188.001296 
L 395.694098 187.097566 
L 401.451078 186.378108 
L 407.208058 185.860565 
L 412.965038 185.558253 
L 418.722018 185.479939 
L 424.478998 185.629717 
L 430.235978 186.006973 
L 435.992958 186.606442 
L 441.749938 187.418343 
L 447.506917 188.428622 
L 453.263897 189.619284 
L 461.899367 191.695642 
L 470.534837 194.04447 
L 482.048797 197.43684 
L 502.198227 203.451747 
L 510.833696 205.839439 
L 519.469166 208.021648 
L 528.104636 209.962719 
L 536.740106 211.649315 
L 545.375576 213.08864 
L 554.011046 214.304304 
L 562.646515 215.330368 
L 574.160475 216.468039 
L 588.552925 217.623159 
L 602.945375 218.545483 
L 614.459335 219.099513 
L 625.973294 219.442214 
L 637.487254 219.532662 
L 649.001214 219.369772 
L 666.272154 218.814984 
L 680.664603 218.407112 
L 689.300073 218.364172 
L 697.935543 218.57277 
L 706.571013 219.092422 
L 712.327993 219.627507 
L 720.963463 220.713141 
L 729.598933 222.109786 
L 732.477422 222.634784 
L 732.477422 222.634784 
" clip-path="url(#p734b9e5c63)" style="fill: none; stroke: #ffffff; stroke-width: 2; stroke-linecap: square"/>
   </g>
   <g id="line2d_32">
    <path d="M 159.657923 238.84 
L 732.477422 238.84 
" style="fill: none; stroke: #000000; stroke-linecap: square"/>
   </g>
   <g id="text_12">
    <g id="patch_9">
     <path d="M 6.55125 248.260937 
L 103.471875 248.260937 
L 103.471875 229.419062 
L 6.55125 229.419062 
z
" style="fill: #ffffff; opacity: 0.5"/>
    </g>
    <!-- Mountain Regions -->
    <g transform="translate(10.51125 241.711562) scale(0.12 -0.12)">
     <defs>
      <path id="TimesNewRomanPSMT-4d" d="M 2619 0 
L 981 3566 
L 981 734 
Q 981 344 1066 247 
Q 1181 116 1431 116 
L 1581 116 
L 1581 0 
L 106 0 
L 106 116 
L 256 116 
Q 525 116 638 278 
Q 706 378 706 734 
L 706 3503 
Q 706 3784 644 3909 
Q 600 4000 483 4061 
Q 366 4122 106 4122 
L 106 4238 
L 1306 4238 
L 2844 922 
L 4356 4238 
L 5556 4238 
L 5556 4122 
L 5409 4122 
Q 5138 4122 5025 3959 
Q 4956 3859 4956 3503 
L 4956 734 
Q 4956 344 5044 247 
Q 5159 116 5409 116 
L 5556 116 
L 5556 0 
L 3756 0 
L 3756 116 
L 3906 116 
Q 4178 116 4288 278 
Q 4356 378 4356 734 
L 4356 3566 
L 2722 0 
L 2619 0 
z
" transform="scale(0.015625)"/>
      <path id="TimesNewRomanPSMT-67" d="M 966 1044 
Q 703 1172 562 1401 
Q 422 1631 422 1909 
Q 422 2334 742 2640 
Q 1063 2947 1563 2947 
Q 1972 2947 2272 2747 
L 2878 2747 
Q 3013 2747 3034 2739 
Q 3056 2731 3066 2713 
Q 3084 2684 3084 2613 
Q 3084 2531 3069 2500 
Q 3059 2484 3036 2475 
Q 3013 2466 2878 2466 
L 2506 2466 
Q 2681 2241 2681 1891 
Q 2681 1491 2375 1206 
Q 2069 922 1553 922 
Q 1341 922 1119 984 
Q 981 866 932 777 
Q 884 688 884 625 
Q 884 572 936 522 
Q 988 472 1138 450 
Q 1225 438 1575 428 
Q 2219 413 2409 384 
Q 2700 344 2873 169 
Q 3047 -6 3047 -263 
Q 3047 -616 2716 -925 
Q 2228 -1381 1444 -1381 
Q 841 -1381 425 -1109 
Q 191 -953 191 -784 
Q 191 -709 225 -634 
Q 278 -519 444 -313 
Q 466 -284 763 25 
Q 600 122 533 198 
Q 466 275 466 372 
Q 466 481 555 628 
Q 644 775 966 1044 
z
M 1509 2797 
Q 1278 2797 1122 2612 
Q 966 2428 966 2047 
Q 966 1553 1178 1281 
Q 1341 1075 1591 1075 
Q 1828 1075 1981 1253 
Q 2134 1431 2134 1813 
Q 2134 2309 1919 2591 
Q 1759 2797 1509 2797 
z
M 934 0 
Q 788 -159 713 -296 
Q 638 -434 638 -550 
Q 638 -700 819 -813 
Q 1131 -1006 1722 -1006 
Q 2284 -1006 2551 -807 
Q 2819 -609 2819 -384 
Q 2819 -222 2659 -153 
Q 2497 -84 2016 -72 
Q 1313 -53 934 0 
z
" transform="scale(0.015625)"/>
     </defs>
     <use xlink:href="#TimesNewRomanPSMT-4d"/>
     <use xlink:href="#TimesNewRomanPSMT-6f" transform="translate(88.916016 0)"/>
     <use xlink:href="#TimesNewRomanPSMT-75" transform="translate(138.916016 0)"/>
     <use xlink:href="#TimesNewRomanPSMT-6e" transform="translate(188.916016 0)"/>
     <use xlink:href="#TimesNewRomanPSMT-74" transform="translate(238.916016 0)"/>
     <use xlink:href="#TimesNewRomanPSMT-61" transform="translate(266.699219 0)"/>
     <use xlink:href="#TimesNewRomanPSMT-69" transform="translate(311.083984 0)"/>
     <use xlink:href="#TimesNewRomanPSMT-6e" transform="translate(338.867188 0)"/>
     <use xlink:href="#TimesNewRomanPSMT-20" transform="translate(388.867188 0)"/>
     <use xlink:href="#TimesNewRomanPSMT-52" transform="translate(413.867188 0)"/>
     <use xlink:href="#TimesNewRomanPSMT-65" transform="translate(480.566406 0)"/>
     <use xlink:href="#TimesNewRomanPSMT-67" transform="translate(524.951172 0)"/>
     <use xlink:href="#TimesNewRomanPSMT-69" transform="translate(574.951172 0)"/>
     <use xlink:href="#TimesNewRomanPSMT-6f" transform="translate(602.734375 0)"/>
     <use xlink:href="#TimesNewRomanPSMT-6e" transform="translate(652.734375 0)"/>
     <use xlink:href="#TimesNewRomanPSMT-73" transform="translate(702.734375 0)"/>
    </g>
   </g>
  </g>
  <g id="text_13">
   <!-- Housing Price Fluctuation(USD/square foot) -->
   <g transform="translate(239.964923 18.31) scale(0.16 -0.16)">
    <defs>
     <path id="TimesNewRomanPSMT-48" d="M 1316 2272 
L 3284 2272 
L 3284 3484 
Q 3284 3809 3244 3913 
Q 3213 3991 3113 4047 
Q 2978 4122 2828 4122 
L 2678 4122 
L 2678 4238 
L 4491 4238 
L 4491 4122 
L 4341 4122 
Q 4191 4122 4056 4050 
Q 3956 4000 3920 3898 
Q 3884 3797 3884 3484 
L 3884 750 
Q 3884 428 3925 325 
Q 3956 247 4053 191 
Q 4191 116 4341 116 
L 4491 116 
L 4491 0 
L 2678 0 
L 2678 116 
L 2828 116 
Q 3088 116 3206 269 
Q 3284 369 3284 750 
L 3284 2041 
L 1316 2041 
L 1316 750 
Q 1316 428 1356 325 
Q 1388 247 1488 191 
Q 1622 116 1772 116 
L 1925 116 
L 1925 0 
L 109 0 
L 109 116 
L 259 116 
Q 522 116 641 269 
Q 716 369 716 750 
L 716 3484 
Q 716 3809 675 3913 
Q 644 3991 547 4047 
Q 409 4122 259 4122 
L 109 4122 
L 109 4238 
L 1925 4238 
L 1925 4122 
L 1772 4122 
Q 1622 4122 1488 4050 
Q 1391 4000 1353 3898 
Q 1316 3797 1316 3484 
L 1316 2272 
z
" transform="scale(0.015625)"/>
     <path id="TimesNewRomanPSMT-46" d="M 1309 4006 
L 1309 2341 
L 2081 2341 
Q 2347 2341 2470 2458 
Q 2594 2575 2634 2922 
L 2750 2922 
L 2750 1488 
L 2634 1488 
Q 2631 1734 2570 1850 
Q 2509 1966 2401 2023 
Q 2294 2081 2081 2081 
L 1309 2081 
L 1309 750 
Q 1309 428 1350 325 
Q 1381 247 1481 191 
Q 1619 116 1769 116 
L 1922 116 
L 1922 0 
L 103 0 
L 103 116 
L 253 116 
Q 516 116 634 269 
Q 709 369 709 750 
L 709 3488 
Q 709 3809 669 3913 
Q 638 3991 541 4047 
Q 406 4122 253 4122 
L 103 4122 
L 103 4238 
L 3256 4238 
L 3297 3306 
L 3188 3306 
Q 3106 3603 2998 3742 
Q 2891 3881 2733 3943 
Q 2575 4006 2244 4006 
L 1309 4006 
z
" transform="scale(0.015625)"/>
     <path id="TimesNewRomanPSMT-28" d="M 1988 -1253 
L 1988 -1369 
Q 1516 -1131 1200 -813 
Q 750 -359 506 256 
Q 263 872 263 1534 
Q 263 2503 741 3301 
Q 1219 4100 1988 4444 
L 1988 4313 
Q 1603 4100 1356 3731 
Q 1109 3363 987 2797 
Q 866 2231 866 1616 
Q 866 947 969 400 
Q 1050 -31 1165 -292 
Q 1281 -553 1476 -793 
Q 1672 -1034 1988 -1253 
z
" transform="scale(0.015625)"/>
     <path id="TimesNewRomanPSMT-55" d="M 3053 4122 
L 3053 4238 
L 4553 4238 
L 4553 4122 
L 4394 4122 
Q 4144 4122 4009 3913 
Q 3944 3816 3944 3463 
L 3944 1744 
Q 3944 1106 3817 754 
Q 3691 403 3320 151 
Q 2950 -100 2313 -100 
Q 1619 -100 1259 140 
Q 900 381 750 788 
Q 650 1066 650 1831 
L 650 3488 
Q 650 3878 542 4000 
Q 434 4122 194 4122 
L 34 4122 
L 34 4238 
L 1866 4238 
L 1866 4122 
L 1703 4122 
Q 1441 4122 1328 3956 
Q 1250 3844 1250 3488 
L 1250 1641 
Q 1250 1394 1295 1075 
Q 1341 756 1459 578 
Q 1578 400 1801 284 
Q 2025 169 2350 169 
Q 2766 169 3094 350 
Q 3422 531 3542 814 
Q 3663 1097 3663 1772 
L 3663 3488 
Q 3663 3884 3575 3984 
Q 3453 4122 3213 4122 
L 3053 4122 
z
" transform="scale(0.015625)"/>
     <path id="TimesNewRomanPSMT-44" d="M 109 0 
L 109 116 
L 269 116 
Q 538 116 650 288 
Q 719 391 719 750 
L 719 3488 
Q 719 3884 631 3984 
Q 509 4122 269 4122 
L 109 4122 
L 109 4238 
L 1834 4238 
Q 2784 4238 3279 4022 
Q 3775 3806 4076 3303 
Q 4378 2800 4378 2141 
Q 4378 1256 3841 663 
Q 3238 0 2003 0 
L 109 0 
z
M 1319 306 
Q 1716 219 1984 219 
Q 2709 219 3187 728 
Q 3666 1238 3666 2109 
Q 3666 2988 3187 3494 
Q 2709 4000 1959 4000 
Q 1678 4000 1319 3909 
L 1319 306 
z
" transform="scale(0.015625)"/>
     <path id="TimesNewRomanPSMT-2f" d="M 1794 4444 
L 259 -88 
L 9 -88 
L 1544 4444 
L 1794 4444 
z
" transform="scale(0.015625)"/>
     <path id="TimesNewRomanPSMT-71" d="M 2734 2947 
L 2734 -734 
Q 2734 -1009 2771 -1087 
Q 2809 -1166 2889 -1209 
Q 2969 -1253 3200 -1253 
L 3200 -1369 
L 1756 -1369 
L 1756 -1253 
L 1816 -1253 
Q 1991 -1253 2081 -1203 
Q 2144 -1169 2181 -1080 
Q 2219 -991 2219 -734 
L 2219 497 
Q 1934 159 1721 35 
Q 1509 -88 1281 -88 
Q 866 -88 539 290 
Q 213 669 213 1303 
Q 213 2031 644 2489 
Q 1075 2947 1684 2947 
Q 1863 2947 2013 2897 
Q 2163 2847 2281 2747 
Q 2463 2834 2628 2947 
L 2734 2947 
z
M 2219 694 
L 2219 2038 
Q 2219 2272 2158 2406 
Q 2097 2541 1940 2634 
Q 1784 2728 1588 2728 
Q 1238 2728 988 2431 
Q 738 2134 738 1531 
Q 738 953 992 653 
Q 1247 353 1606 353 
Q 1791 353 1934 433 
Q 2078 513 2219 694 
z
" transform="scale(0.015625)"/>
     <path id="TimesNewRomanPSMT-66" d="M 1319 2638 
L 1319 756 
Q 1319 356 1406 250 
Q 1522 113 1716 113 
L 1975 113 
L 1975 0 
L 266 0 
L 266 113 
L 394 113 
Q 519 113 622 175 
Q 725 238 764 344 
Q 803 450 803 756 
L 803 2638 
L 247 2638 
L 247 2863 
L 803 2863 
L 803 3050 
Q 803 3478 940 3775 
Q 1078 4072 1361 4255 
Q 1644 4438 1997 4438 
Q 2325 4438 2600 4225 
Q 2781 4084 2781 3909 
Q 2781 3816 2700 3733 
Q 2619 3650 2525 3650 
Q 2453 3650 2373 3701 
Q 2294 3753 2178 3923 
Q 2063 4094 1966 4153 
Q 1869 4213 1750 4213 
Q 1606 4213 1506 4136 
Q 1406 4059 1362 3898 
Q 1319 3738 1319 3069 
L 1319 2863 
L 2056 2863 
L 2056 2638 
L 1319 2638 
z
" transform="scale(0.015625)"/>
     <path id="TimesNewRomanPSMT-29" d="M 144 4313 
L 144 4444 
Q 619 4209 934 3891 
Q 1381 3434 1625 2820 
Q 1869 2206 1869 1541 
Q 1869 572 1392 -226 
Q 916 -1025 144 -1369 
L 144 -1253 
Q 528 -1038 776 -670 
Q 1025 -303 1145 264 
Q 1266 831 1266 1447 
Q 1266 2113 1163 2663 
Q 1084 3094 967 3353 
Q 850 3613 656 3853 
Q 463 4094 144 4313 
z
" transform="scale(0.015625)"/>
    </defs>
    <use xlink:href="#TimesNewRomanPSMT-48"/>
    <use xlink:href="#TimesNewRomanPSMT-6f" transform="translate(72.216797 0)"/>
    <use xlink:href="#TimesNewRomanPSMT-75" transform="translate(122.216797 0)"/>
    <use xlink:href="#TimesNewRomanPSMT-73" transform="translate(172.216797 0)"/>
    <use xlink:href="#TimesNewRomanPSMT-69" transform="translate(211.132812 0)"/>
    <use xlink:href="#TimesNewRomanPSMT-6e" transform="translate(238.916016 0)"/>
    <use xlink:href="#TimesNewRomanPSMT-67" transform="translate(288.916016 0)"/>
    <use xlink:href="#TimesNewRomanPSMT-20" transform="translate(338.916016 0)"/>
    <use xlink:href="#TimesNewRomanPSMT-50" transform="translate(363.916016 0)"/>
    <use xlink:href="#TimesNewRomanPSMT-72" transform="translate(419.53125 0)"/>
    <use xlink:href="#TimesNewRomanPSMT-69" transform="translate(452.832031 0)"/>
    <use xlink:href="#TimesNewRomanPSMT-63" transform="translate(480.615234 0)"/>
    <use xlink:href="#TimesNewRomanPSMT-65" transform="translate(525 0)"/>
    <use xlink:href="#TimesNewRomanPSMT-20" transform="translate(569.384766 0)"/>
    <use xlink:href="#TimesNewRomanPSMT-46" transform="translate(594.384766 0)"/>
    <use xlink:href="#TimesNewRomanPSMT-6c" transform="translate(650 0)"/>
    <use xlink:href="#TimesNewRomanPSMT-75" transform="translate(677.783203 0)"/>
    <use xlink:href="#TimesNewRomanPSMT-63" transform="translate(727.783203 0)"/>
    <use xlink:href="#TimesNewRomanPSMT-74" transform="translate(772.167969 0)"/>
    <use xlink:href="#TimesNewRomanPSMT-75" transform="translate(799.951172 0)"/>
    <use xlink:href="#TimesNewRomanPSMT-61" transform="translate(849.951172 0)"/>
    <use xlink:href="#TimesNewRomanPSMT-74" transform="translate(894.335938 0)"/>
    <use xlink:href="#TimesNewRomanPSMT-69" transform="translate(922.119141 0)"/>
    <use xlink:href="#TimesNewRomanPSMT-6f" transform="translate(949.902344 0)"/>
    <use xlink:href="#TimesNewRomanPSMT-6e" transform="translate(999.902344 0)"/>
    <use xlink:href="#TimesNewRomanPSMT-28" transform="translate(1049.902344 0)"/>
    <use xlink:href="#TimesNewRomanPSMT-55" transform="translate(1083.203125 0)"/>
    <use xlink:href="#TimesNewRomanPSMT-53" transform="translate(1155.419922 0)"/>
    <use xlink:href="#TimesNewRomanPSMT-44" transform="translate(1211.035156 0)"/>
    <use xlink:href="#TimesNewRomanPSMT-2f" transform="translate(1283.251953 0)"/>
    <use xlink:href="#TimesNewRomanPSMT-73" transform="translate(1311.035156 0)"/>
    <use xlink:href="#TimesNewRomanPSMT-71" transform="translate(1349.951172 0)"/>
    <use xlink:href="#TimesNewRomanPSMT-75" transform="translate(1399.951172 0)"/>
    <use xlink:href="#TimesNewRomanPSMT-61" transform="translate(1449.951172 0)"/>
    <use xlink:href="#TimesNewRomanPSMT-72" transform="translate(1494.335938 0)"/>
    <use xlink:href="#TimesNewRomanPSMT-65" transform="translate(1527.636719 0)"/>
    <use xlink:href="#TimesNewRomanPSMT-20" transform="translate(1572.021484 0)"/>
    <use xlink:href="#TimesNewRomanPSMT-66" transform="translate(1597.021484 0)"/>
    <use xlink:href="#TimesNewRomanPSMT-6f" transform="translate(1630.322266 0)"/>
    <use xlink:href="#TimesNewRomanPSMT-6f" transform="translate(1680.322266 0)"/>
    <use xlink:href="#TimesNewRomanPSMT-74" transform="translate(1730.322266 0)"/>
    <use xlink:href="#TimesNewRomanPSMT-29" transform="translate(1758.105469 0)"/>
   </g>
  </g>
 </g>
 <defs>
  <clipPath id="p852083dc95">
   <rect x="159.657923" y="17.52" width="572.8195" height="88.528"/>
  </clipPath>
  <clipPath id="p8b78a0fd26">
   <rect x="159.657923" y="61.784" width="572.8195" height="88.528"/>
  </clipPath>
  <clipPath id="p6ceb625902">
   <rect x="159.657923" y="106.048" width="572.8195" height="88.528"/>
  </clipPath>
  <clipPath id="p734b9e5c63">
   <rect x="159.657923" y="150.312" width="572.8195" height="88.528"/>
  </clipPath>
 </defs>
</svg>
