<?xml version="1.0" encoding="utf-8" standalone="no"?>
<!DOCTYPE svg PUBLIC "-//W3C//DTD SVG 1.1//EN"
  "http://www.w3.org/Graphics/SVG/1.1/DTD/svg11.dtd">
<svg xmlns:xlink="http://www.w3.org/1999/xlink" width="742.078022pt" height="212.255313pt" viewBox="0 0 742.078022 212.255313" xmlns="http://www.w3.org/2000/svg" version="1.1">
 <metadata>
  <rdf:RDF xmlns:dc="http://purl.org/dc/elements/1.1/" xmlns:cc="http://creativecommons.org/ns#" xmlns:rdf="http://www.w3.org/1999/02/22-rdf-syntax-ns#">
   <cc:Work>
    <dc:type rdf:resource="http://purl.org/dc/dcmitype/StillImage"/>
    <dc:date>2025-05-27T01:39:36.042547</dc:date>
    <dc:format>image/svg+xml</dc:format>
    <dc:creator>
     <cc:Agent>
      <dc:title>Matplotlib v3.10.1, https://matplotlib.org/</dc:title>
     </cc:Agent>
    </dc:creator>
   </cc:Work>
  </rdf:RDF>
 </metadata>
 <defs>
  <style type="text/css">*{stroke-linejoin: round; stroke-linecap: butt}</style>
 </defs>
 <g id="figure_1">
  <g id="patch_1">
   <path d="M 0 212.255313 
L 742.078022 212.255313 
L 742.078022 0 
L 0 0 
z
" style="fill: #ffffff"/>
  </g>
  <g id="axes_1">
   <g id="patch_2">
    <path d="M 201.088523 95.78 
L 727.378023 95.78 
L 727.378023 21.12 
L 201.088523 21.12 
L 201.088523 95.78 
z
" style="fill: none; opacity: 0"/>
   </g>
   <g id="FillBetweenPolyCollection_1">
    <defs>
     <path id="m089815ccd0" d="M 201.088523 -169.074055 
L 201.088523 -116.475313 
L 203.733193 -116.475313 
L 206.377864 -116.475313 
L 209.022535 -116.475313 
L 211.667206 -116.475313 
L 214.311877 -116.475313 
L 216.956548 -116.475313 
L 219.601218 -116.475313 
L 222.245889 -116.475313 
L 224.89056 -116.475313 
L 227.535231 -116.475313 
L 230.179902 -116.475313 
L 232.824573 -116.475313 
L 235.469244 -116.475313 
L 238.113914 -116.475313 
L 240.758585 -116.475313 
L 243.403256 -116.475313 
L 246.047927 -116.475313 
L 248.692598 -116.475313 
L 251.337269 -116.475313 
L 253.98194 -116.475313 
L 256.62661 -116.475313 
L 259.271281 -116.475313 
L 261.915952 -116.475313 
L 264.560623 -116.475313 
L 267.205294 -116.475313 
L 269.849965 -116.475313 
L 272.494636 -116.475313 
L 275.139306 -116.475313 
L 277.783977 -116.475313 
L 280.428648 -116.475313 
L 283.073319 -116.475313 
L 285.71799 -116.475313 
L 288.362661 -116.475313 
L 291.007332 -116.475313 
L 293.652002 -116.475313 
L 296.296673 -116.475313 
L 298.941344 -116.475313 
L 301.586015 -116.475313 
L 304.230686 -116.475313 
L 306.875357 -116.475313 
L 309.520028 -116.475313 
L 312.164698 -116.475313 
L 314.809369 -116.475313 
L 317.45404 -116.475313 
L 320.098711 -116.475313 
L 322.743382 -116.475313 
L 325.388053 -116.475313 
L 328.032724 -116.475313 
L 330.677394 -116.475313 
L 333.322065 -116.475313 
L 335.966736 -116.475313 
L 338.611407 -116.475313 
L 341.256078 -116.475313 
L 343.900749 -116.475313 
L 346.545419 -116.475313 
L 349.19009 -116.475313 
L 351.834761 -116.475313 
L 354.479432 -116.475313 
L 357.124103 -116.475313 
L 359.768774 -116.475313 
L 362.413445 -116.475313 
L 365.058115 -116.475313 
L 367.702786 -116.475313 
L 370.347457 -116.475313 
L 372.992128 -116.475313 
L 375.636799 -116.475313 
L 378.28147 -116.475313 
L 380.926141 -116.475313 
L 383.570811 -116.475313 
L 386.215482 -116.475313 
L 388.860153 -116.475313 
L 391.504824 -116.475313 
L 394.149495 -116.475313 
L 396.794166 -116.475313 
L 399.438837 -116.475313 
L 402.083507 -116.475313 
L 404.728178 -116.475313 
L 407.372849 -116.475313 
L 410.01752 -116.475313 
L 412.662191 -116.475313 
L 415.306862 -116.475313 
L 417.951533 -116.475313 
L 420.596203 -116.475313 
L 423.240874 -116.475313 
L 425.885545 -116.475313 
L 428.530216 -116.475313 
L 431.174887 -116.475313 
L 433.819558 -116.475313 
L 436.464229 -116.475313 
L 439.108899 -116.475313 
L 441.75357 -116.475313 
L 444.398241 -116.475313 
L 447.042912 -116.475313 
L 449.687583 -116.475313 
L 452.332254 -116.475313 
L 454.976925 -116.475313 
L 457.621595 -116.475313 
L 460.266266 -116.475313 
L 462.910937 -116.475313 
L 465.555608 -116.475313 
L 468.200279 -116.475313 
L 470.84495 -116.475313 
L 473.48962 -116.475313 
L 476.134291 -116.475313 
L 478.778962 -116.475313 
L 481.423633 -116.475313 
L 484.068304 -116.475313 
L 486.712975 -116.475313 
L 489.357646 -116.475313 
L 492.002316 -116.475313 
L 494.646987 -116.475313 
L 497.291658 -116.475313 
L 499.936329 -116.475313 
L 502.581 -116.475313 
L 505.225671 -116.475313 
L 507.870342 -116.475313 
L 510.515012 -116.475313 
L 513.159683 -116.475313 
L 515.804354 -116.475313 
L 518.449025 -116.475313 
L 521.093696 -116.475313 
L 523.738367 -116.475313 
L 526.383038 -116.475313 
L 529.027708 -116.475313 
L 531.672379 -116.475313 
L 534.31705 -116.475313 
L 536.961721 -116.475313 
L 539.606392 -116.475313 
L 542.251063 -116.475313 
L 544.895734 -116.475313 
L 547.540404 -116.475313 
L 550.185075 -116.475313 
L 552.829746 -116.475313 
L 555.474417 -116.475313 
L 558.119088 -116.475313 
L 560.763759 -116.475313 
L 563.40843 -116.475313 
L 566.0531 -116.475313 
L 568.697771 -116.475313 
L 571.342442 -116.475313 
L 573.987113 -116.475313 
L 576.631784 -116.475313 
L 579.276455 -116.475313 
L 581.921126 -116.475313 
L 584.565796 -116.475313 
L 587.210467 -116.475313 
L 589.855138 -116.475313 
L 592.499809 -116.475313 
L 595.14448 -116.475313 
L 597.789151 -116.475313 
L 600.433821 -116.475313 
L 603.078492 -116.475313 
L 605.723163 -116.475313 
L 608.367834 -116.475313 
L 611.012505 -116.475313 
L 613.657176 -116.475313 
L 616.301847 -116.475313 
L 618.946517 -116.475313 
L 621.591188 -116.475313 
L 624.235859 -116.475313 
L 626.88053 -116.475313 
L 629.525201 -116.475313 
L 632.169872 -116.475313 
L 634.814543 -116.475313 
L 637.459213 -116.475313 
L 640.103884 -116.475313 
L 642.748555 -116.475313 
L 645.393226 -116.475313 
L 648.037897 -116.475313 
L 650.682568 -116.475313 
L 653.327239 -116.475313 
L 655.971909 -116.475313 
L 658.61658 -116.475313 
L 661.261251 -116.475313 
L 663.905922 -116.475313 
L 666.550593 -116.475313 
L 669.195264 -116.475313 
L 671.839935 -116.475313 
L 674.484605 -116.475313 
L 677.129276 -116.475313 
L 679.773947 -116.475313 
L 682.418618 -116.475313 
L 685.063289 -116.475313 
L 687.70796 -116.475313 
L 690.352631 -116.475313 
L 692.997301 -116.475313 
L 695.641972 -116.475313 
L 698.286643 -116.475313 
L 700.931314 -116.475313 
L 703.575985 -116.475313 
L 706.220656 -116.475313 
L 708.865327 -116.475313 
L 711.509997 -116.475313 
L 714.154668 -116.475313 
L 716.799339 -116.475313 
L 719.44401 -116.475313 
L 722.088681 -116.475313 
L 724.733352 -116.475313 
L 727.378023 -116.475313 
L 727.378023 -123.417539 
L 727.378023 -123.417539 
L 724.733352 -123.703814 
L 722.088681 -123.989028 
L 719.44401 -124.272242 
L 716.799339 -124.552503 
L 714.154668 -124.828847 
L 711.509997 -125.100306 
L 708.865327 -125.365917 
L 706.220656 -125.624727 
L 703.575985 -125.875803 
L 700.931314 -126.118242 
L 698.286643 -126.351175 
L 695.641972 -126.573778 
L 692.997301 -126.785279 
L 690.352631 -126.984967 
L 687.70796 -127.172198 
L 685.063289 -127.346402 
L 682.418618 -127.507091 
L 679.773947 -127.65386 
L 677.129276 -127.786397 
L 674.484605 -127.904482 
L 671.839935 -128.007989 
L 669.195264 -128.096891 
L 666.550593 -128.171255 
L 663.905922 -128.231244 
L 661.261251 -128.277111 
L 658.61658 -128.309198 
L 655.971909 -128.327928 
L 653.327239 -128.3338 
L 650.682568 -128.327383 
L 648.037897 -128.309306 
L 645.393226 -128.280249 
L 642.748555 -128.240935 
L 640.103884 -128.192121 
L 637.459213 -128.134588 
L 634.814543 -128.06913 
L 632.169872 -127.996546 
L 629.525201 -127.91763 
L 626.88053 -127.833165 
L 624.235859 -127.743913 
L 621.591188 -127.650609 
L 618.946517 -127.553957 
L 616.301847 -127.454622 
L 613.657176 -127.353228 
L 611.012505 -127.250356 
L 608.367834 -127.146541 
L 605.723163 -127.042271 
L 603.078492 -126.93799 
L 600.433821 -126.834097 
L 597.789151 -126.730948 
L 595.14448 -126.628857 
L 592.499809 -126.528105 
L 589.855138 -126.428937 
L 587.210467 -126.331568 
L 584.565796 -126.236187 
L 581.921126 -126.142964 
L 579.276455 -126.052046 
L 576.631784 -125.963569 
L 573.987113 -125.877655 
L 571.342442 -125.794419 
L 568.697771 -125.713969 
L 566.0531 -125.636408 
L 563.40843 -125.561838 
L 560.763759 -125.490356 
L 558.119088 -125.42206 
L 555.474417 -125.357046 
L 552.829746 -125.295409 
L 550.185075 -125.237239 
L 547.540404 -125.182625 
L 544.895734 -125.131652 
L 542.251063 -125.084397 
L 539.606392 -125.04093 
L 536.961721 -125.001315 
L 534.31705 -124.965603 
L 531.672379 -124.933835 
L 529.027708 -124.906042 
L 526.383038 -124.882241 
L 523.738367 -124.862436 
L 521.093696 -124.84662 
L 518.449025 -124.834772 
L 515.804354 -124.826862 
L 513.159683 -124.822849 
L 510.515012 -124.822683 
L 507.870342 -124.826308 
L 505.225671 -124.833664 
L 502.581 -124.844691 
L 499.936329 -124.859329 
L 497.291658 -124.877522 
L 494.646987 -124.899221 
L 492.002316 -124.92439 
L 489.357646 -124.953004 
L 486.712975 -124.985054 
L 484.068304 -125.020551 
L 481.423633 -125.059527 
L 478.778962 -125.102035 
L 476.134291 -125.148157 
L 473.48962 -125.197996 
L 470.84495 -125.251684 
L 468.200279 -125.309378 
L 465.555608 -125.371263 
L 462.910937 -125.437547 
L 460.266266 -125.508463 
L 457.621595 -125.584268 
L 454.976925 -125.665237 
L 452.332254 -125.751665 
L 449.687583 -125.843863 
L 447.042912 -125.942156 
L 444.398241 -126.046882 
L 441.75357 -126.158388 
L 439.108899 -126.277033 
L 436.464229 -126.403183 
L 433.819558 -126.537214 
L 431.174887 -126.679511 
L 428.530216 -126.830471 
L 425.885545 -126.990504 
L 423.240874 -127.16004 
L 420.596203 -127.33953 
L 417.951533 -127.529452 
L 415.306862 -127.730322 
L 412.662191 -127.942694 
L 410.01752 -128.167173 
L 407.372849 -128.404424 
L 404.728178 -128.655178 
L 402.083507 -128.92024 
L 399.438837 -129.200501 
L 396.794166 -129.496945 
L 394.149495 -129.810654 
L 391.504824 -130.142818 
L 388.860153 -130.494736 
L 386.215482 -130.86782 
L 383.570811 -131.2636 
L 380.926141 -131.683715 
L 378.28147 -132.129916 
L 375.636799 -132.604056 
L 372.992128 -133.10808 
L 370.347457 -133.644012 
L 367.702786 -134.213941 
L 365.058115 -134.819998 
L 362.413445 -135.464336 
L 359.768774 -136.149105 
L 357.124103 -136.876416 
L 354.479432 -137.648318 
L 351.834761 -138.466759 
L 349.19009 -139.333549 
L 346.545419 -140.250323 
L 343.900749 -141.2185 
L 341.256078 -142.239244 
L 338.611407 -143.31342 
L 335.966736 -144.441555 
L 333.322065 -145.6238 
L 330.677394 -146.859887 
L 328.032724 -148.149097 
L 325.388053 -149.490224 
L 322.743382 -150.881546 
L 320.098711 -152.3208 
L 317.45404 -153.805162 
L 314.809369 -155.331228 
L 312.164698 -156.895008 
L 309.520028 -158.491923 
L 306.875357 -160.116808 
L 304.230686 -161.763921 
L 301.586015 -163.426967 
L 298.941344 -165.099118 
L 296.296673 -166.773053 
L 293.652002 -168.440994 
L 291.007332 -170.094761 
L 288.362661 -171.725822 
L 285.71799 -173.32536 
L 283.073319 -174.884344 
L 280.428648 -176.393598 
L 277.783977 -177.843886 
L 275.139306 -179.225996 
L 272.494636 -180.530821 
L 269.849965 -181.749456 
L 267.205294 -182.873282 
L 264.560623 -183.894058 
L 261.915952 -184.804007 
L 259.271281 -185.595903 
L 256.62661 -186.263155 
L 253.98194 -186.799878 
L 251.337269 -187.200965 
L 248.692598 -187.462154 
L 246.047927 -187.580074 
L 243.403256 -187.552299 
L 240.758585 -187.377377 
L 238.113914 -187.054857 
L 235.469244 -186.5853 
L 232.824573 -185.970284 
L 230.179902 -185.212392 
L 227.535231 -184.315192 
L 224.89056 -183.283203 
L 222.245889 -182.121851 
L 219.601218 -180.837418 
L 216.956548 -179.436974 
L 214.311877 -177.92831 
L 211.667206 -176.319854 
L 209.022535 -174.620587 
L 206.377864 -172.839949 
L 203.733193 -170.987747 
L 201.088523 -169.074055 
z
" style="stroke: #7e03a8"/>
    </defs>
    <g clip-path="url(#pb1a878994e)">
     <use xlink:href="#m089815ccd0" x="0" y="212.255313" style="fill: #7e03a8; fill-opacity: 0.5; stroke: #7e03a8"/>
    </g>
   </g>
   <g id="matplotlib.axis_1">
    <g id="xtick_1">
     <g id="line2d_1">
      <defs>
       <path id="mce88de2676" d="M 0 0 
L 0 3.5 
" style="stroke: #000000; stroke-width: 0.8"/>
      </defs>
      <g>
       <use xlink:href="#mce88de2676" x="201.088523" y="95.78" style="stroke: #000000; stroke-width: 0.8"/>
      </g>
     </g>
    </g>
    <g id="xtick_2">
     <g id="line2d_2">
      <g>
       <use xlink:href="#mce88de2676" x="306.346423" y="95.78" style="stroke: #000000; stroke-width: 0.8"/>
      </g>
     </g>
    </g>
    <g id="xtick_3">
     <g id="line2d_3">
      <g>
       <use xlink:href="#mce88de2676" x="411.604323" y="95.78" style="stroke: #000000; stroke-width: 0.8"/>
      </g>
     </g>
    </g>
    <g id="xtick_4">
     <g id="line2d_4">
      <g>
       <use xlink:href="#mce88de2676" x="516.862223" y="95.78" style="stroke: #000000; stroke-width: 0.8"/>
      </g>
     </g>
    </g>
    <g id="xtick_5">
     <g id="line2d_5">
      <g>
       <use xlink:href="#mce88de2676" x="622.120122" y="95.78" style="stroke: #000000; stroke-width: 0.8"/>
      </g>
     </g>
    </g>
    <g id="xtick_6">
     <g id="line2d_6">
      <g>
       <use xlink:href="#mce88de2676" x="727.378023" y="95.78" style="stroke: #000000; stroke-width: 0.8"/>
      </g>
     </g>
    </g>
   </g>
   <g id="matplotlib.axis_2"/>
   <g id="line2d_7">
    <path d="M 201.088523 43.181258 
L 206.377864 39.415364 
L 211.667206 35.935458 
L 216.956548 32.818338 
L 222.245889 30.133461 
L 224.89056 28.972109 
L 227.535231 27.94012 
L 230.179902 27.04292 
L 232.824573 26.285029 
L 235.469244 25.670013 
L 238.113914 25.200456 
L 240.758585 24.877935 
L 243.403256 24.703013 
L 246.047927 24.675238 
L 248.692598 24.793159 
L 251.337269 25.054347 
L 253.98194 25.455435 
L 256.62661 25.992157 
L 259.271281 26.659409 
L 261.915952 27.451306 
L 267.205294 29.38203 
L 272.494636 31.724491 
L 277.783977 34.411426 
L 283.073319 37.370969 
L 291.007332 42.160552 
L 314.809369 56.924085 
L 320.098711 59.934512 
L 325.388053 62.765089 
L 330.677394 65.395425 
L 335.966736 67.813757 
L 341.256078 70.016069 
L 346.545419 72.004989 
L 351.834761 73.788553 
L 357.124103 75.378897 
L 362.413445 76.790976 
L 370.347457 78.611301 
L 378.28147 80.125396 
L 386.215482 81.387492 
L 394.149495 82.444658 
L 404.728178 83.600135 
L 415.306862 84.524991 
L 428.530216 85.424842 
L 441.75357 86.096924 
L 457.621595 86.671044 
L 476.134291 87.107156 
L 497.291658 87.377791 
L 518.449025 87.42054 
L 536.961721 87.253998 
L 558.119088 86.833252 
L 581.921126 86.112349 
L 645.393226 83.975064 
L 655.971909 83.927384 
L 666.550593 84.084057 
L 677.129276 84.468915 
L 687.70796 85.083114 
L 698.286643 85.904137 
L 711.509997 87.155006 
L 727.378023 88.837773 
L 727.378023 88.837773 
" clip-path="url(#pb1a878994e)" style="fill: none; stroke: #ffffff; stroke-width: 2; stroke-linecap: square"/>
   </g>
   <g id="line2d_8">
    <path d="M 201.088523 95.78 
L 727.378023 95.78 
" style="fill: none; stroke: #000000; stroke-linecap: square"/>
   </g>
   <g id="text_1">
    <g id="patch_3">
     <path d="M 102.52875 105.189687 
L 149.788125 105.189687 
L 149.788125 86.370312 
L 102.52875 86.370312 
z
" style="fill: #ffffff; opacity: 0.5"/>
    </g>
    <!-- Suburbs -->
    <g transform="translate(106.48875 98.662813) scale(0.12 -0.12)">
     <defs>
      <path id="TimesNewRomanPSMT-53" d="M 2934 4334 
L 2934 2869 
L 2819 2869 
Q 2763 3291 2617 3541 
Q 2472 3791 2203 3937 
Q 1934 4084 1647 4084 
Q 1322 4084 1109 3886 
Q 897 3688 897 3434 
Q 897 3241 1031 3081 
Q 1225 2847 1953 2456 
Q 2547 2138 2764 1967 
Q 2981 1797 3098 1565 
Q 3216 1334 3216 1081 
Q 3216 600 2842 251 
Q 2469 -97 1881 -97 
Q 1697 -97 1534 -69 
Q 1438 -53 1133 45 
Q 828 144 747 144 
Q 669 144 623 97 
Q 578 50 556 -97 
L 441 -97 
L 441 1356 
L 556 1356 
Q 638 900 775 673 
Q 913 447 1195 297 
Q 1478 147 1816 147 
Q 2206 147 2432 353 
Q 2659 559 2659 841 
Q 2659 997 2573 1156 
Q 2488 1316 2306 1453 
Q 2184 1547 1640 1851 
Q 1097 2156 867 2337 
Q 638 2519 519 2737 
Q 400 2956 400 3219 
Q 400 3675 750 4004 
Q 1100 4334 1641 4334 
Q 1978 4334 2356 4169 
Q 2531 4091 2603 4091 
Q 2684 4091 2736 4139 
Q 2788 4188 2819 4334 
L 2934 4334 
z
" transform="scale(0.015625)"/>
      <path id="TimesNewRomanPSMT-75" d="M 2709 2863 
L 2709 1128 
Q 2709 631 2732 520 
Q 2756 409 2807 365 
Q 2859 322 2928 322 
Q 3025 322 3147 375 
L 3191 266 
L 2334 -88 
L 2194 -88 
L 2194 519 
Q 1825 119 1631 15 
Q 1438 -88 1222 -88 
Q 981 -88 804 51 
Q 628 191 559 409 
Q 491 628 491 1028 
L 491 2306 
Q 491 2509 447 2587 
Q 403 2666 317 2708 
Q 231 2750 6 2747 
L 6 2863 
L 1009 2863 
L 1009 947 
Q 1009 547 1148 422 
Q 1288 297 1484 297 
Q 1619 297 1789 381 
Q 1959 466 2194 703 
L 2194 2325 
Q 2194 2569 2105 2655 
Q 2016 2741 1734 2747 
L 1734 2863 
L 2709 2863 
z
" transform="scale(0.015625)"/>
      <path id="TimesNewRomanPSMT-62" d="M 984 2369 
Q 1400 2947 1881 2947 
Q 2322 2947 2650 2570 
Q 2978 2194 2978 1541 
Q 2978 778 2472 313 
Q 2038 -88 1503 -88 
Q 1253 -88 995 3 
Q 738 94 469 275 
L 469 3241 
Q 469 3728 445 3840 
Q 422 3953 372 3993 
Q 322 4034 247 4034 
Q 159 4034 28 3984 
L -16 4094 
L 844 4444 
L 984 4444 
L 984 2369 
z
M 984 2169 
L 984 456 
Q 1144 300 1314 220 
Q 1484 141 1663 141 
Q 1947 141 2192 453 
Q 2438 766 2438 1363 
Q 2438 1913 2192 2208 
Q 1947 2503 1634 2503 
Q 1469 2503 1303 2419 
Q 1178 2356 984 2169 
z
" transform="scale(0.015625)"/>
      <path id="TimesNewRomanPSMT-72" d="M 1038 2947 
L 1038 2303 
Q 1397 2947 1775 2947 
Q 1947 2947 2059 2842 
Q 2172 2738 2172 2600 
Q 2172 2478 2090 2393 
Q 2009 2309 1897 2309 
Q 1788 2309 1652 2417 
Q 1516 2525 1450 2525 
Q 1394 2525 1328 2463 
Q 1188 2334 1038 2041 
L 1038 669 
Q 1038 431 1097 309 
Q 1138 225 1241 169 
Q 1344 113 1538 113 
L 1538 0 
L 72 0 
L 72 113 
Q 291 113 397 181 
Q 475 231 506 341 
Q 522 394 522 644 
L 522 1753 
Q 522 2253 501 2348 
Q 481 2444 426 2487 
Q 372 2531 291 2531 
Q 194 2531 72 2484 
L 41 2597 
L 906 2947 
L 1038 2947 
z
" transform="scale(0.015625)"/>
      <path id="TimesNewRomanPSMT-73" d="M 2050 2947 
L 2050 1972 
L 1947 1972 
Q 1828 2431 1642 2597 
Q 1456 2763 1169 2763 
Q 950 2763 815 2647 
Q 681 2531 681 2391 
Q 681 2216 781 2091 
Q 878 1963 1175 1819 
L 1631 1597 
Q 2266 1288 2266 781 
Q 2266 391 1970 151 
Q 1675 -88 1309 -88 
Q 1047 -88 709 6 
Q 606 38 541 38 
Q 469 38 428 -44 
L 325 -44 
L 325 978 
L 428 978 
Q 516 541 762 319 
Q 1009 97 1316 97 
Q 1531 97 1667 223 
Q 1803 350 1803 528 
Q 1803 744 1651 891 
Q 1500 1038 1047 1263 
Q 594 1488 453 1669 
Q 313 1847 313 2119 
Q 313 2472 555 2709 
Q 797 2947 1181 2947 
Q 1350 2947 1591 2875 
Q 1750 2828 1803 2828 
Q 1853 2828 1881 2850 
Q 1909 2872 1947 2947 
L 2050 2947 
z
" transform="scale(0.015625)"/>
     </defs>
     <use xlink:href="#TimesNewRomanPSMT-53"/>
     <use xlink:href="#TimesNewRomanPSMT-75" transform="translate(55.615234 0)"/>
     <use xlink:href="#TimesNewRomanPSMT-62" transform="translate(105.615234 0)"/>
     <use xlink:href="#TimesNewRomanPSMT-75" transform="translate(155.615234 0)"/>
     <use xlink:href="#TimesNewRomanPSMT-72" transform="translate(205.615234 0)"/>
     <use xlink:href="#TimesNewRomanPSMT-62" transform="translate(238.916016 0)"/>
     <use xlink:href="#TimesNewRomanPSMT-73" transform="translate(288.916016 0)"/>
    </g>
   </g>
  </g>
  <g id="axes_2">
   <g id="patch_4">
    <path d="M 201.088523 133.11 
L 727.378023 133.11 
L 727.378023 58.45 
L 201.088523 58.45 
L 201.088523 133.11 
z
" style="fill: none; opacity: 0"/>
   </g>
   <g id="FillBetweenPolyCollection_2">
    <defs>
     <path id="m9d18d4607b" d="M 201.088523 -109.565063 
L 201.088523 -79.145313 
L 203.733193 -79.145313 
L 206.377864 -79.145313 
L 209.022535 -79.145313 
L 211.667206 -79.145313 
L 214.311877 -79.145313 
L 216.956548 -79.145313 
L 219.601218 -79.145313 
L 222.245889 -79.145313 
L 224.89056 -79.145313 
L 227.535231 -79.145313 
L 230.179902 -79.145313 
L 232.824573 -79.145313 
L 235.469244 -79.145313 
L 238.113914 -79.145313 
L 240.758585 -79.145313 
L 243.403256 -79.145313 
L 246.047927 -79.145313 
L 248.692598 -79.145313 
L 251.337269 -79.145313 
L 253.98194 -79.145313 
L 256.62661 -79.145313 
L 259.271281 -79.145313 
L 261.915952 -79.145313 
L 264.560623 -79.145313 
L 267.205294 -79.145313 
L 269.849965 -79.145313 
L 272.494636 -79.145313 
L 275.139306 -79.145313 
L 277.783977 -79.145313 
L 280.428648 -79.145313 
L 283.073319 -79.145313 
L 285.71799 -79.145313 
L 288.362661 -79.145313 
L 291.007332 -79.145313 
L 293.652002 -79.145313 
L 296.296673 -79.145313 
L 298.941344 -79.145313 
L 301.586015 -79.145313 
L 304.230686 -79.145313 
L 306.875357 -79.145313 
L 309.520028 -79.145313 
L 312.164698 -79.145313 
L 314.809369 -79.145313 
L 317.45404 -79.145313 
L 320.098711 -79.145313 
L 322.743382 -79.145313 
L 325.388053 -79.145313 
L 328.032724 -79.145313 
L 330.677394 -79.145313 
L 333.322065 -79.145313 
L 335.966736 -79.145313 
L 338.611407 -79.145313 
L 341.256078 -79.145313 
L 343.900749 -79.145313 
L 346.545419 -79.145313 
L 349.19009 -79.145313 
L 351.834761 -79.145313 
L 354.479432 -79.145313 
L 357.124103 -79.145313 
L 359.768774 -79.145313 
L 362.413445 -79.145313 
L 365.058115 -79.145313 
L 367.702786 -79.145313 
L 370.347457 -79.145313 
L 372.992128 -79.145313 
L 375.636799 -79.145313 
L 378.28147 -79.145313 
L 380.926141 -79.145313 
L 383.570811 -79.145313 
L 386.215482 -79.145313 
L 388.860153 -79.145313 
L 391.504824 -79.145313 
L 394.149495 -79.145313 
L 396.794166 -79.145313 
L 399.438837 -79.145313 
L 402.083507 -79.145313 
L 404.728178 -79.145313 
L 407.372849 -79.145313 
L 410.01752 -79.145313 
L 412.662191 -79.145313 
L 415.306862 -79.145313 
L 417.951533 -79.145313 
L 420.596203 -79.145313 
L 423.240874 -79.145313 
L 425.885545 -79.145313 
L 428.530216 -79.145313 
L 431.174887 -79.145313 
L 433.819558 -79.145313 
L 436.464229 -79.145313 
L 439.108899 -79.145313 
L 441.75357 -79.145313 
L 444.398241 -79.145313 
L 447.042912 -79.145313 
L 449.687583 -79.145313 
L 452.332254 -79.145313 
L 454.976925 -79.145313 
L 457.621595 -79.145313 
L 460.266266 -79.145313 
L 462.910937 -79.145313 
L 465.555608 -79.145313 
L 468.200279 -79.145313 
L 470.84495 -79.145313 
L 473.48962 -79.145313 
L 476.134291 -79.145313 
L 478.778962 -79.145313 
L 481.423633 -79.145313 
L 484.068304 -79.145313 
L 486.712975 -79.145313 
L 489.357646 -79.145313 
L 492.002316 -79.145313 
L 494.646987 -79.145313 
L 497.291658 -79.145313 
L 499.936329 -79.145313 
L 502.581 -79.145313 
L 505.225671 -79.145313 
L 507.870342 -79.145313 
L 510.515012 -79.145313 
L 513.159683 -79.145313 
L 515.804354 -79.145313 
L 518.449025 -79.145313 
L 521.093696 -79.145313 
L 523.738367 -79.145313 
L 526.383038 -79.145313 
L 529.027708 -79.145313 
L 531.672379 -79.145313 
L 534.31705 -79.145313 
L 536.961721 -79.145313 
L 539.606392 -79.145313 
L 542.251063 -79.145313 
L 544.895734 -79.145313 
L 547.540404 -79.145313 
L 550.185075 -79.145313 
L 552.829746 -79.145313 
L 555.474417 -79.145313 
L 558.119088 -79.145313 
L 560.763759 -79.145313 
L 563.40843 -79.145313 
L 566.0531 -79.145313 
L 568.697771 -79.145313 
L 571.342442 -79.145313 
L 573.987113 -79.145313 
L 576.631784 -79.145313 
L 579.276455 -79.145313 
L 581.921126 -79.145313 
L 584.565796 -79.145313 
L 587.210467 -79.145313 
L 589.855138 -79.145313 
L 592.499809 -79.145313 
L 595.14448 -79.145313 
L 597.789151 -79.145313 
L 600.433821 -79.145313 
L 603.078492 -79.145313 
L 605.723163 -79.145313 
L 608.367834 -79.145313 
L 611.012505 -79.145313 
L 613.657176 -79.145313 
L 616.301847 -79.145313 
L 618.946517 -79.145313 
L 621.591188 -79.145313 
L 624.235859 -79.145313 
L 626.88053 -79.145313 
L 629.525201 -79.145313 
L 632.169872 -79.145313 
L 634.814543 -79.145313 
L 637.459213 -79.145313 
L 640.103884 -79.145313 
L 642.748555 -79.145313 
L 645.393226 -79.145313 
L 648.037897 -79.145313 
L 650.682568 -79.145313 
L 653.327239 -79.145313 
L 655.971909 -79.145313 
L 658.61658 -79.145313 
L 661.261251 -79.145313 
L 663.905922 -79.145313 
L 666.550593 -79.145313 
L 669.195264 -79.145313 
L 671.839935 -79.145313 
L 674.484605 -79.145313 
L 677.129276 -79.145313 
L 679.773947 -79.145313 
L 682.418618 -79.145313 
L 685.063289 -79.145313 
L 687.70796 -79.145313 
L 690.352631 -79.145313 
L 692.997301 -79.145313 
L 695.641972 -79.145313 
L 698.286643 -79.145313 
L 700.931314 -79.145313 
L 703.575985 -79.145313 
L 706.220656 -79.145313 
L 708.865327 -79.145313 
L 711.509997 -79.145313 
L 714.154668 -79.145313 
L 716.799339 -79.145313 
L 719.44401 -79.145313 
L 722.088681 -79.145313 
L 724.733352 -79.145313 
L 727.378023 -79.145313 
L 727.378023 -89.907543 
L 727.378023 -89.907543 
L 724.733352 -90.07408 
L 722.088681 -90.219116 
L 719.44401 -90.34236 
L 716.799339 -90.443731 
L 714.154668 -90.523357 
L 711.509997 -90.581571 
L 708.865327 -90.618909 
L 706.220656 -90.636096 
L 703.575985 -90.634042 
L 700.931314 -90.613822 
L 698.286643 -90.576664 
L 695.641972 -90.52393 
L 692.997301 -90.457098 
L 690.352631 -90.377737 
L 687.70796 -90.287492 
L 685.063289 -90.188058 
L 682.418618 -90.081158 
L 679.773947 -89.968522 
L 677.129276 -89.851868 
L 674.484605 -89.732876 
L 671.839935 -89.613173 
L 669.195264 -89.494316 
L 666.550593 -89.377771 
L 663.905922 -89.264904 
L 661.261251 -89.156965 
L 658.61658 -89.055078 
L 655.971909 -88.960236 
L 653.327239 -88.873288 
L 650.682568 -88.794941 
L 648.037897 -88.725755 
L 645.393226 -88.666142 
L 642.748555 -88.616371 
L 640.103884 -88.576565 
L 637.459213 -88.54671 
L 634.814543 -88.526661 
L 632.169872 -88.516145 
L 629.525201 -88.514773 
L 626.88053 -88.522047 
L 624.235859 -88.537372 
L 621.591188 -88.560062 
L 618.946517 -88.589351 
L 616.301847 -88.624409 
L 613.657176 -88.664347 
L 611.012505 -88.70823 
L 608.367834 -88.755089 
L 605.723163 -88.80393 
L 603.078492 -88.853747 
L 600.433821 -88.903528 
L 597.789151 -88.952274 
L 595.14448 -88.998998 
L 592.499809 -89.042744 
L 589.855138 -89.082591 
L 587.210467 -89.117666 
L 584.565796 -89.147147 
L 581.921126 -89.17028 
L 579.276455 -89.186377 
L 576.631784 -89.194832 
L 573.987113 -89.195122 
L 571.342442 -89.186817 
L 568.697771 -89.169583 
L 566.0531 -89.143188 
L 563.40843 -89.107506 
L 560.763759 -89.062521 
L 558.119088 -89.008326 
L 555.474417 -88.945128 
L 552.829746 -88.873246 
L 550.185075 -88.793108 
L 547.540404 -88.705253 
L 544.895734 -88.610321 
L 542.251063 -88.509055 
L 539.606392 -88.402288 
L 536.961721 -88.290938 
L 534.31705 -88.176002 
L 531.672379 -88.05854 
L 529.027708 -87.939669 
L 526.383038 -87.820547 
L 523.738367 -87.702364 
L 521.093696 -87.586327 
L 518.449025 -87.473645 
L 515.804354 -87.365517 
L 513.159683 -87.26312 
L 510.515012 -87.167592 
L 507.870342 -87.080022 
L 505.225671 -87.001438 
L 502.581 -86.932797 
L 499.936329 -86.874975 
L 497.291658 -86.828759 
L 494.646987 -86.794843 
L 492.002316 -86.773823 
L 489.357646 -86.766196 
L 486.712975 -86.772357 
L 484.068304 -86.792609 
L 481.423633 -86.827158 
L 478.778962 -86.87613 
L 476.134291 -86.939569 
L 473.48962 -87.017458 
L 470.84495 -87.109724 
L 468.200279 -87.216256 
L 465.555608 -87.336918 
L 462.910937 -87.471568 
L 460.266266 -87.620069 
L 457.621595 -87.782316 
L 454.976925 -87.958241 
L 452.332254 -88.147842 
L 449.687583 -88.351191 
L 447.042912 -88.568454 
L 444.398241 -88.799902 
L 441.75357 -89.045928 
L 439.108899 -89.307054 
L 436.464229 -89.583941 
L 433.819558 -89.877398 
L 431.174887 -90.188384 
L 428.530216 -90.51801 
L 425.885545 -90.86754 
L 423.240874 -91.238386 
L 420.596203 -91.6321 
L 417.951533 -92.05037 
L 415.306862 -92.495004 
L 412.662191 -92.967914 
L 410.01752 -93.471106 
L 407.372849 -94.006652 
L 404.728178 -94.576673 
L 402.083507 -95.183312 
L 399.438837 -95.828711 
L 396.794166 -96.514977 
L 394.149495 -97.244157 
L 391.504824 -98.018203 
L 388.860153 -98.838938 
L 386.215482 -99.708028 
L 383.570811 -100.626941 
L 380.926141 -101.596913 
L 378.28147 -102.618917 
L 375.636799 -103.693624 
L 372.992128 -104.82137 
L 370.347457 -106.002126 
L 367.702786 -107.235464 
L 365.058115 -108.520529 
L 362.413445 -109.856014 
L 359.768774 -111.240136 
L 357.124103 -112.67062 
L 354.479432 -114.144677 
L 351.834761 -115.659002 
L 349.19009 -117.209763 
L 346.545419 -118.792605 
L 343.900749 -120.402654 
L 341.256078 -122.034533 
L 338.611407 -123.682378 
L 335.966736 -125.339864 
L 333.322065 -127.000242 
L 330.677394 -128.65637 
L 328.032724 -130.300767 
L 325.388053 -131.925661 
L 322.743382 -133.523043 
L 320.098711 -135.084737 
L 317.45404 -136.60246 
L 314.809369 -138.067897 
L 312.164698 -139.472773 
L 309.520028 -140.808929 
L 306.875357 -142.068401 
L 304.230686 -143.243492 
L 301.586015 -144.326853 
L 298.941344 -145.311552 
L 296.296673 -146.191148 
L 293.652002 -146.959755 
L 291.007332 -147.612102 
L 288.362661 -148.143589 
L 285.71799 -148.550335 
L 283.073319 -148.829217 
L 280.428648 -148.977904 
L 277.783977 -148.994875 
L 275.139306 -148.87944 
L 272.494636 -148.631742 
L 269.849965 -148.252751 
L 267.205294 -147.744255 
L 264.560623 -147.108837 
L 261.915952 -146.349845 
L 259.271281 -145.471356 
L 256.62661 -144.478129 
L 253.98194 -143.375556 
L 251.337269 -142.169607 
L 248.692598 -140.866767 
L 246.047927 -139.473971 
L 243.403256 -137.998539 
L 240.758585 -136.448105 
L 238.113914 -134.830547 
L 235.469244 -133.153917 
L 232.824573 -131.426372 
L 230.179902 -129.656105 
L 227.535231 -127.851281 
L 224.89056 -126.019971 
L 222.245889 -124.1701 
L 219.601218 -122.309385 
L 216.956548 -120.445288 
L 214.311877 -118.584971 
L 211.667206 -116.735254 
L 209.022535 -114.902583 
L 206.377864 -113.092997 
L 203.733193 -111.312103 
L 201.088523 -109.565063 
z
" style="stroke: #cc4778"/>
    </defs>
    <g clip-path="url(#p63dbf1bbd5)">
     <use xlink:href="#m9d18d4607b" x="0" y="212.255313" style="fill: #cc4778; fill-opacity: 0.5; stroke: #cc4778"/>
    </g>
   </g>
   <g id="matplotlib.axis_3">
    <g id="xtick_7">
     <g id="line2d_9">
      <g>
       <use xlink:href="#mce88de2676" x="201.088523" y="133.11" style="stroke: #000000; stroke-width: 0.8"/>
      </g>
     </g>
    </g>
    <g id="xtick_8">
     <g id="line2d_10">
      <g>
       <use xlink:href="#mce88de2676" x="306.346423" y="133.11" style="stroke: #000000; stroke-width: 0.8"/>
      </g>
     </g>
    </g>
    <g id="xtick_9">
     <g id="line2d_11">
      <g>
       <use xlink:href="#mce88de2676" x="411.604323" y="133.11" style="stroke: #000000; stroke-width: 0.8"/>
      </g>
     </g>
    </g>
    <g id="xtick_10">
     <g id="line2d_12">
      <g>
       <use xlink:href="#mce88de2676" x="516.862223" y="133.11" style="stroke: #000000; stroke-width: 0.8"/>
      </g>
     </g>
    </g>
    <g id="xtick_11">
     <g id="line2d_13">
      <g>
       <use xlink:href="#mce88de2676" x="622.120122" y="133.11" style="stroke: #000000; stroke-width: 0.8"/>
      </g>
     </g>
    </g>
    <g id="xtick_12">
     <g id="line2d_14">
      <g>
       <use xlink:href="#mce88de2676" x="727.378023" y="133.11" style="stroke: #000000; stroke-width: 0.8"/>
      </g>
     </g>
    </g>
   </g>
   <g id="matplotlib.axis_4"/>
   <g id="line2d_15">
    <path d="M 201.088523 102.69025 
L 209.022535 97.352729 
L 235.469244 79.101395 
L 240.758585 75.807207 
L 246.047927 72.781341 
L 251.337269 70.085705 
L 256.62661 67.777184 
L 261.915952 65.905467 
L 264.560623 65.146476 
L 267.205294 64.511058 
L 269.849965 64.002562 
L 272.494636 63.623571 
L 275.139306 63.375872 
L 277.783977 63.260438 
L 280.428648 63.277409 
L 283.073319 63.426095 
L 285.71799 63.704978 
L 288.362661 64.111724 
L 291.007332 64.643211 
L 293.652002 65.295557 
L 298.941344 66.94376 
L 304.230686 69.011821 
L 309.520028 71.446383 
L 314.809369 74.187416 
L 320.098711 77.170575 
L 328.032724 81.954545 
L 349.19009 95.04555 
L 357.124103 99.584693 
L 362.413445 102.399299 
L 367.702786 105.019849 
L 372.992128 107.433942 
L 378.28147 109.636396 
L 383.570811 111.628372 
L 388.860153 113.416374 
L 394.149495 115.011155 
L 399.438837 116.426601 
L 407.372849 118.248661 
L 415.306862 119.760309 
L 423.240874 121.016927 
L 431.174887 122.066929 
L 441.75357 123.209384 
L 452.332254 124.10747 
L 462.910937 124.783745 
L 473.48962 125.237855 
L 484.068304 125.462704 
L 494.646987 125.460469 
L 505.225671 125.253875 
L 518.449025 124.781668 
L 555.474417 123.310184 
L 568.697771 123.08573 
L 581.921126 123.085033 
L 600.433821 123.351784 
L 624.235859 123.71794 
L 637.459213 123.708602 
L 650.682568 123.460372 
L 663.905922 122.990408 
L 695.641972 121.731382 
L 706.220656 121.619216 
L 714.154668 121.731956 
L 722.088681 122.036197 
L 727.378023 122.347769 
L 727.378023 122.347769 
" clip-path="url(#p63dbf1bbd5)" style="fill: none; stroke: #ffffff; stroke-width: 2; stroke-linecap: square"/>
   </g>
   <g id="line2d_16">
    <path d="M 201.088523 133.11 
L 727.378023 133.11 
" style="fill: none; stroke: #000000; stroke-linecap: square"/>
   </g>
   <g id="text_2">
    <g id="patch_5">
     <path d="M 3.24 142.519688 
L 149.788125 142.519688 
L 149.788125 123.700312 
L 3.24 123.700312 
z
" style="fill: #ffffff; opacity: 0.5"/>
    </g>
    <!-- Urban Redevelopment Areas -->
    <g transform="translate(7.2 135.992813) scale(0.12 -0.12)">
     <defs>
      <path id="TimesNewRomanPSMT-55" d="M 3053 4122 
L 3053 4238 
L 4553 4238 
L 4553 4122 
L 4394 4122 
Q 4144 4122 4009 3913 
Q 3944 3816 3944 3463 
L 3944 1744 
Q 3944 1106 3817 754 
Q 3691 403 3320 151 
Q 2950 -100 2313 -100 
Q 1619 -100 1259 140 
Q 900 381 750 788 
Q 650 1066 650 1831 
L 650 3488 
Q 650 3878 542 4000 
Q 434 4122 194 4122 
L 34 4122 
L 34 4238 
L 1866 4238 
L 1866 4122 
L 1703 4122 
Q 1441 4122 1328 3956 
Q 1250 3844 1250 3488 
L 1250 1641 
Q 1250 1394 1295 1075 
Q 1341 756 1459 578 
Q 1578 400 1801 284 
Q 2025 169 2350 169 
Q 2766 169 3094 350 
Q 3422 531 3542 814 
Q 3663 1097 3663 1772 
L 3663 3488 
Q 3663 3884 3575 3984 
Q 3453 4122 3213 4122 
L 3053 4122 
z
" transform="scale(0.015625)"/>
      <path id="TimesNewRomanPSMT-61" d="M 1822 413 
Q 1381 72 1269 19 
Q 1100 -59 909 -59 
Q 613 -59 420 144 
Q 228 347 228 678 
Q 228 888 322 1041 
Q 450 1253 767 1440 
Q 1084 1628 1822 1897 
L 1822 2009 
Q 1822 2438 1686 2597 
Q 1550 2756 1291 2756 
Q 1094 2756 978 2650 
Q 859 2544 859 2406 
L 866 2225 
Q 866 2081 792 2003 
Q 719 1925 600 1925 
Q 484 1925 411 2006 
Q 338 2088 338 2228 
Q 338 2497 613 2722 
Q 888 2947 1384 2947 
Q 1766 2947 2009 2819 
Q 2194 2722 2281 2516 
Q 2338 2381 2338 1966 
L 2338 994 
Q 2338 584 2353 492 
Q 2369 400 2405 369 
Q 2441 338 2488 338 
Q 2538 338 2575 359 
Q 2641 400 2828 588 
L 2828 413 
Q 2478 -56 2159 -56 
Q 2006 -56 1915 50 
Q 1825 156 1822 413 
z
M 1822 616 
L 1822 1706 
Q 1350 1519 1213 1441 
Q 966 1303 859 1153 
Q 753 1003 753 825 
Q 753 600 887 451 
Q 1022 303 1197 303 
Q 1434 303 1822 616 
z
" transform="scale(0.015625)"/>
      <path id="TimesNewRomanPSMT-6e" d="M 1034 2341 
Q 1538 2947 1994 2947 
Q 2228 2947 2397 2830 
Q 2566 2713 2666 2444 
Q 2734 2256 2734 1869 
L 2734 647 
Q 2734 375 2778 278 
Q 2813 200 2889 156 
Q 2966 113 3172 113 
L 3172 0 
L 1756 0 
L 1756 113 
L 1816 113 
Q 2016 113 2095 173 
Q 2175 234 2206 353 
Q 2219 400 2219 647 
L 2219 1819 
Q 2219 2209 2117 2386 
Q 2016 2563 1775 2563 
Q 1403 2563 1034 2156 
L 1034 647 
Q 1034 356 1069 288 
Q 1113 197 1189 155 
Q 1266 113 1500 113 
L 1500 0 
L 84 0 
L 84 113 
L 147 113 
Q 366 113 442 223 
Q 519 334 519 647 
L 519 1709 
Q 519 2225 495 2337 
Q 472 2450 423 2490 
Q 375 2531 294 2531 
Q 206 2531 84 2484 
L 38 2597 
L 900 2947 
L 1034 2947 
L 1034 2341 
z
" transform="scale(0.015625)"/>
      <path id="TimesNewRomanPSMT-20" transform="scale(0.015625)"/>
      <path id="TimesNewRomanPSMT-52" d="M 4325 0 
L 3194 0 
L 1759 1981 
Q 1600 1975 1500 1975 
Q 1459 1975 1412 1976 
Q 1366 1978 1316 1981 
L 1316 750 
Q 1316 350 1403 253 
Q 1522 116 1759 116 
L 1925 116 
L 1925 0 
L 109 0 
L 109 116 
L 269 116 
Q 538 116 653 291 
Q 719 388 719 750 
L 719 3488 
Q 719 3888 631 3984 
Q 509 4122 269 4122 
L 109 4122 
L 109 4238 
L 1653 4238 
Q 2328 4238 2648 4139 
Q 2969 4041 3192 3777 
Q 3416 3513 3416 3147 
Q 3416 2756 3161 2468 
Q 2906 2181 2372 2063 
L 3247 847 
Q 3547 428 3762 290 
Q 3978 153 4325 116 
L 4325 0 
z
M 1316 2178 
Q 1375 2178 1419 2176 
Q 1463 2175 1491 2175 
Q 2097 2175 2405 2437 
Q 2713 2700 2713 3106 
Q 2713 3503 2464 3751 
Q 2216 4000 1806 4000 
Q 1625 4000 1316 3941 
L 1316 2178 
z
" transform="scale(0.015625)"/>
      <path id="TimesNewRomanPSMT-65" d="M 681 1784 
Q 678 1147 991 784 
Q 1303 422 1725 422 
Q 2006 422 2214 576 
Q 2422 731 2563 1106 
L 2659 1044 
Q 2594 616 2278 264 
Q 1963 -88 1488 -88 
Q 972 -88 605 314 
Q 238 716 238 1394 
Q 238 2128 614 2539 
Q 991 2950 1559 2950 
Q 2041 2950 2350 2633 
Q 2659 2316 2659 1784 
L 681 1784 
z
M 681 1966 
L 2006 1966 
Q 1991 2241 1941 2353 
Q 1863 2528 1708 2628 
Q 1553 2728 1384 2728 
Q 1125 2728 920 2526 
Q 716 2325 681 1966 
z
" transform="scale(0.015625)"/>
      <path id="TimesNewRomanPSMT-64" d="M 2222 322 
Q 2013 103 1813 7 
Q 1613 -88 1381 -88 
Q 913 -88 563 304 
Q 213 697 213 1313 
Q 213 1928 600 2439 
Q 988 2950 1597 2950 
Q 1975 2950 2222 2709 
L 2222 3238 
Q 2222 3728 2198 3840 
Q 2175 3953 2125 3993 
Q 2075 4034 2000 4034 
Q 1919 4034 1784 3984 
L 1744 4094 
L 2597 4444 
L 2738 4444 
L 2738 1134 
Q 2738 631 2761 520 
Q 2784 409 2836 365 
Q 2888 322 2956 322 
Q 3041 322 3181 375 
L 3216 266 
L 2366 -88 
L 2222 -88 
L 2222 322 
z
M 2222 541 
L 2222 2016 
Q 2203 2228 2109 2403 
Q 2016 2578 1861 2667 
Q 1706 2756 1559 2756 
Q 1284 2756 1069 2509 
Q 784 2184 784 1559 
Q 784 928 1059 592 
Q 1334 256 1672 256 
Q 1956 256 2222 541 
z
" transform="scale(0.015625)"/>
      <path id="TimesNewRomanPSMT-76" d="M 53 2863 
L 1400 2863 
L 1400 2747 
L 1313 2747 
Q 1191 2747 1127 2687 
Q 1063 2628 1063 2528 
Q 1063 2419 1128 2269 
L 1794 688 
L 2463 2328 
Q 2534 2503 2534 2594 
Q 2534 2638 2509 2666 
Q 2475 2713 2422 2730 
Q 2369 2747 2206 2747 
L 2206 2863 
L 3141 2863 
L 3141 2747 
Q 2978 2734 2916 2681 
Q 2806 2588 2719 2369 
L 1703 -88 
L 1575 -88 
L 553 2328 
Q 484 2497 421 2570 
Q 359 2644 263 2694 
Q 209 2722 53 2747 
L 53 2863 
z
" transform="scale(0.015625)"/>
      <path id="TimesNewRomanPSMT-6c" d="M 1184 4444 
L 1184 647 
Q 1184 378 1223 290 
Q 1263 203 1344 158 
Q 1425 113 1647 113 
L 1647 0 
L 244 0 
L 244 113 
Q 441 113 512 153 
Q 584 194 625 287 
Q 666 381 666 647 
L 666 3247 
Q 666 3731 644 3842 
Q 622 3953 573 3993 
Q 525 4034 450 4034 
Q 369 4034 244 3984 
L 191 4094 
L 1044 4444 
L 1184 4444 
z
" transform="scale(0.015625)"/>
      <path id="TimesNewRomanPSMT-6f" d="M 1600 2947 
Q 2250 2947 2644 2453 
Q 2978 2031 2978 1484 
Q 2978 1100 2793 706 
Q 2609 313 2286 112 
Q 1963 -88 1566 -88 
Q 919 -88 538 428 
Q 216 863 216 1403 
Q 216 1797 411 2186 
Q 606 2575 925 2761 
Q 1244 2947 1600 2947 
z
M 1503 2744 
Q 1338 2744 1170 2645 
Q 1003 2547 900 2300 
Q 797 2053 797 1666 
Q 797 1041 1045 587 
Q 1294 134 1700 134 
Q 2003 134 2200 384 
Q 2397 634 2397 1244 
Q 2397 2006 2069 2444 
Q 1847 2744 1503 2744 
z
" transform="scale(0.015625)"/>
      <path id="TimesNewRomanPSMT-70" d="M -6 2578 
L 875 2934 
L 994 2934 
L 994 2266 
Q 1216 2644 1439 2795 
Q 1663 2947 1909 2947 
Q 2341 2947 2628 2609 
Q 2981 2197 2981 1534 
Q 2981 794 2556 309 
Q 2206 -88 1675 -88 
Q 1444 -88 1275 -22 
Q 1150 25 994 166 
L 994 -706 
Q 994 -1000 1030 -1079 
Q 1066 -1159 1155 -1206 
Q 1244 -1253 1478 -1253 
L 1478 -1369 
L -22 -1369 
L -22 -1253 
L 56 -1253 
Q 228 -1256 350 -1188 
Q 409 -1153 442 -1076 
Q 475 -1000 475 -688 
L 475 2019 
Q 475 2297 450 2372 
Q 425 2447 370 2484 
Q 316 2522 222 2522 
Q 147 2522 31 2478 
L -6 2578 
z
M 994 2081 
L 994 1013 
Q 994 666 1022 556 
Q 1066 375 1236 237 
Q 1406 100 1666 100 
Q 1978 100 2172 344 
Q 2425 663 2425 1241 
Q 2425 1897 2138 2250 
Q 1938 2494 1663 2494 
Q 1513 2494 1366 2419 
Q 1253 2363 994 2081 
z
" transform="scale(0.015625)"/>
      <path id="TimesNewRomanPSMT-6d" d="M 1050 2338 
Q 1363 2650 1419 2697 
Q 1559 2816 1721 2881 
Q 1884 2947 2044 2947 
Q 2313 2947 2506 2790 
Q 2700 2634 2766 2338 
Q 3088 2713 3309 2830 
Q 3531 2947 3766 2947 
Q 3994 2947 4170 2830 
Q 4347 2713 4450 2447 
Q 4519 2266 4519 1878 
L 4519 647 
Q 4519 378 4559 278 
Q 4591 209 4675 161 
Q 4759 113 4950 113 
L 4950 0 
L 3538 0 
L 3538 113 
L 3597 113 
Q 3781 113 3884 184 
Q 3956 234 3988 344 
Q 4000 397 4000 647 
L 4000 1878 
Q 4000 2228 3916 2372 
Q 3794 2572 3525 2572 
Q 3359 2572 3192 2489 
Q 3025 2406 2788 2181 
L 2781 2147 
L 2788 2013 
L 2788 647 
Q 2788 353 2820 281 
Q 2853 209 2943 161 
Q 3034 113 3253 113 
L 3253 0 
L 1806 0 
L 1806 113 
Q 2044 113 2133 169 
Q 2222 225 2256 338 
Q 2272 391 2272 647 
L 2272 1878 
Q 2272 2228 2169 2381 
Q 2031 2581 1784 2581 
Q 1616 2581 1450 2491 
Q 1191 2353 1050 2181 
L 1050 647 
Q 1050 366 1089 281 
Q 1128 197 1204 155 
Q 1281 113 1516 113 
L 1516 0 
L 100 0 
L 100 113 
Q 297 113 375 155 
Q 453 197 493 289 
Q 534 381 534 647 
L 534 1741 
Q 534 2213 506 2350 
Q 484 2453 437 2492 
Q 391 2531 309 2531 
Q 222 2531 100 2484 
L 53 2597 
L 916 2947 
L 1050 2947 
L 1050 2338 
z
" transform="scale(0.015625)"/>
      <path id="TimesNewRomanPSMT-74" d="M 1031 3803 
L 1031 2863 
L 1700 2863 
L 1700 2644 
L 1031 2644 
L 1031 788 
Q 1031 509 1111 412 
Q 1191 316 1316 316 
Q 1419 316 1516 380 
Q 1613 444 1666 569 
L 1788 569 
Q 1678 263 1478 108 
Q 1278 -47 1066 -47 
Q 922 -47 784 33 
Q 647 113 581 261 
Q 516 409 516 719 
L 516 2644 
L 63 2644 
L 63 2747 
Q 234 2816 414 2980 
Q 594 3144 734 3369 
Q 806 3488 934 3803 
L 1031 3803 
z
" transform="scale(0.015625)"/>
      <path id="TimesNewRomanPSMT-41" d="M 2928 1419 
L 1288 1419 
L 1000 750 
Q 894 503 894 381 
Q 894 284 986 211 
Q 1078 138 1384 116 
L 1384 0 
L 50 0 
L 50 116 
Q 316 163 394 238 
Q 553 388 747 847 
L 2238 4334 
L 2347 4334 
L 3822 809 
Q 4000 384 4145 257 
Q 4291 131 4550 116 
L 4550 0 
L 2878 0 
L 2878 116 
Q 3131 128 3220 200 
Q 3309 272 3309 375 
Q 3309 513 3184 809 
L 2928 1419 
z
M 2841 1650 
L 2122 3363 
L 1384 1650 
L 2841 1650 
z
" transform="scale(0.015625)"/>
     </defs>
     <use xlink:href="#TimesNewRomanPSMT-55"/>
     <use xlink:href="#TimesNewRomanPSMT-72" transform="translate(72.216797 0)"/>
     <use xlink:href="#TimesNewRomanPSMT-62" transform="translate(105.517578 0)"/>
     <use xlink:href="#TimesNewRomanPSMT-61" transform="translate(155.517578 0)"/>
     <use xlink:href="#TimesNewRomanPSMT-6e" transform="translate(199.902344 0)"/>
     <use xlink:href="#TimesNewRomanPSMT-20" transform="translate(249.902344 0)"/>
     <use xlink:href="#TimesNewRomanPSMT-52" transform="translate(274.902344 0)"/>
     <use xlink:href="#TimesNewRomanPSMT-65" transform="translate(341.601562 0)"/>
     <use xlink:href="#TimesNewRomanPSMT-64" transform="translate(385.986328 0)"/>
     <use xlink:href="#TimesNewRomanPSMT-65" transform="translate(435.986328 0)"/>
     <use xlink:href="#TimesNewRomanPSMT-76" transform="translate(480.371094 0)"/>
     <use xlink:href="#TimesNewRomanPSMT-65" transform="translate(530.371094 0)"/>
     <use xlink:href="#TimesNewRomanPSMT-6c" transform="translate(574.755859 0)"/>
     <use xlink:href="#TimesNewRomanPSMT-6f" transform="translate(602.539062 0)"/>
     <use xlink:href="#TimesNewRomanPSMT-70" transform="translate(652.539062 0)"/>
     <use xlink:href="#TimesNewRomanPSMT-6d" transform="translate(702.539062 0)"/>
     <use xlink:href="#TimesNewRomanPSMT-65" transform="translate(780.322266 0)"/>
     <use xlink:href="#TimesNewRomanPSMT-6e" transform="translate(824.707031 0)"/>
     <use xlink:href="#TimesNewRomanPSMT-74" transform="translate(874.707031 0)"/>
     <use xlink:href="#TimesNewRomanPSMT-20" transform="translate(902.490234 0)"/>
     <use xlink:href="#TimesNewRomanPSMT-41" transform="translate(921.990234 0)"/>
     <use xlink:href="#TimesNewRomanPSMT-72" transform="translate(994.207031 0)"/>
     <use xlink:href="#TimesNewRomanPSMT-65" transform="translate(1027.507812 0)"/>
     <use xlink:href="#TimesNewRomanPSMT-61" transform="translate(1071.892578 0)"/>
     <use xlink:href="#TimesNewRomanPSMT-73" transform="translate(1116.277344 0)"/>
    </g>
   </g>
  </g>
  <g id="axes_3">
   <g id="patch_6">
    <path d="M 201.088523 170.44 
L 727.378023 170.44 
L 727.378023 95.78 
L 201.088523 95.78 
L 201.088523 170.44 
z
" style="fill: none; opacity: 0"/>
   </g>
   <g id="FillBetweenPolyCollection_3">
    <defs>
     <path id="m724c8d4ce9" d="M 201.088523 -84.981276 
L 201.088523 -41.815313 
L 203.733193 -41.815313 
L 206.377864 -41.815313 
L 209.022535 -41.815313 
L 211.667206 -41.815313 
L 214.311877 -41.815313 
L 216.956548 -41.815313 
L 219.601218 -41.815313 
L 222.245889 -41.815313 
L 224.89056 -41.815313 
L 227.535231 -41.815313 
L 230.179902 -41.815313 
L 232.824573 -41.815313 
L 235.469244 -41.815313 
L 238.113914 -41.815313 
L 240.758585 -41.815313 
L 243.403256 -41.815313 
L 246.047927 -41.815313 
L 248.692598 -41.815313 
L 251.337269 -41.815313 
L 253.98194 -41.815313 
L 256.62661 -41.815313 
L 259.271281 -41.815313 
L 261.915952 -41.815313 
L 264.560623 -41.815313 
L 267.205294 -41.815313 
L 269.849965 -41.815313 
L 272.494636 -41.815313 
L 275.139306 -41.815313 
L 277.783977 -41.815313 
L 280.428648 -41.815313 
L 283.073319 -41.815313 
L 285.71799 -41.815313 
L 288.362661 -41.815313 
L 291.007332 -41.815313 
L 293.652002 -41.815313 
L 296.296673 -41.815313 
L 298.941344 -41.815313 
L 301.586015 -41.815313 
L 304.230686 -41.815313 
L 306.875357 -41.815313 
L 309.520028 -41.815313 
L 312.164698 -41.815313 
L 314.809369 -41.815313 
L 317.45404 -41.815313 
L 320.098711 -41.815313 
L 322.743382 -41.815313 
L 325.388053 -41.815313 
L 328.032724 -41.815313 
L 330.677394 -41.815313 
L 333.322065 -41.815313 
L 335.966736 -41.815313 
L 338.611407 -41.815313 
L 341.256078 -41.815313 
L 343.900749 -41.815313 
L 346.545419 -41.815313 
L 349.19009 -41.815313 
L 351.834761 -41.815313 
L 354.479432 -41.815313 
L 357.124103 -41.815313 
L 359.768774 -41.815313 
L 362.413445 -41.815313 
L 365.058115 -41.815313 
L 367.702786 -41.815313 
L 370.347457 -41.815313 
L 372.992128 -41.815313 
L 375.636799 -41.815313 
L 378.28147 -41.815313 
L 380.926141 -41.815313 
L 383.570811 -41.815313 
L 386.215482 -41.815313 
L 388.860153 -41.815313 
L 391.504824 -41.815313 
L 394.149495 -41.815313 
L 396.794166 -41.815313 
L 399.438837 -41.815313 
L 402.083507 -41.815313 
L 404.728178 -41.815313 
L 407.372849 -41.815313 
L 410.01752 -41.815313 
L 412.662191 -41.815313 
L 415.306862 -41.815313 
L 417.951533 -41.815313 
L 420.596203 -41.815313 
L 423.240874 -41.815313 
L 425.885545 -41.815313 
L 428.530216 -41.815313 
L 431.174887 -41.815313 
L 433.819558 -41.815313 
L 436.464229 -41.815313 
L 439.108899 -41.815313 
L 441.75357 -41.815313 
L 444.398241 -41.815313 
L 447.042912 -41.815313 
L 449.687583 -41.815313 
L 452.332254 -41.815313 
L 454.976925 -41.815313 
L 457.621595 -41.815313 
L 460.266266 -41.815313 
L 462.910937 -41.815313 
L 465.555608 -41.815313 
L 468.200279 -41.815313 
L 470.84495 -41.815313 
L 473.48962 -41.815313 
L 476.134291 -41.815313 
L 478.778962 -41.815313 
L 481.423633 -41.815313 
L 484.068304 -41.815313 
L 486.712975 -41.815313 
L 489.357646 -41.815313 
L 492.002316 -41.815313 
L 494.646987 -41.815313 
L 497.291658 -41.815313 
L 499.936329 -41.815313 
L 502.581 -41.815313 
L 505.225671 -41.815313 
L 507.870342 -41.815313 
L 510.515012 -41.815313 
L 513.159683 -41.815313 
L 515.804354 -41.815313 
L 518.449025 -41.815313 
L 521.093696 -41.815313 
L 523.738367 -41.815313 
L 526.383038 -41.815313 
L 529.027708 -41.815313 
L 531.672379 -41.815313 
L 534.31705 -41.815313 
L 536.961721 -41.815313 
L 539.606392 -41.815313 
L 542.251063 -41.815313 
L 544.895734 -41.815313 
L 547.540404 -41.815313 
L 550.185075 -41.815313 
L 552.829746 -41.815313 
L 555.474417 -41.815313 
L 558.119088 -41.815313 
L 560.763759 -41.815313 
L 563.40843 -41.815313 
L 566.0531 -41.815313 
L 568.697771 -41.815313 
L 571.342442 -41.815313 
L 573.987113 -41.815313 
L 576.631784 -41.815313 
L 579.276455 -41.815313 
L 581.921126 -41.815313 
L 584.565796 -41.815313 
L 587.210467 -41.815313 
L 589.855138 -41.815313 
L 592.499809 -41.815313 
L 595.14448 -41.815313 
L 597.789151 -41.815313 
L 600.433821 -41.815313 
L 603.078492 -41.815313 
L 605.723163 -41.815313 
L 608.367834 -41.815313 
L 611.012505 -41.815313 
L 613.657176 -41.815313 
L 616.301847 -41.815313 
L 618.946517 -41.815313 
L 621.591188 -41.815313 
L 624.235859 -41.815313 
L 626.88053 -41.815313 
L 629.525201 -41.815313 
L 632.169872 -41.815313 
L 634.814543 -41.815313 
L 637.459213 -41.815313 
L 640.103884 -41.815313 
L 642.748555 -41.815313 
L 645.393226 -41.815313 
L 648.037897 -41.815313 
L 650.682568 -41.815313 
L 653.327239 -41.815313 
L 655.971909 -41.815313 
L 658.61658 -41.815313 
L 661.261251 -41.815313 
L 663.905922 -41.815313 
L 666.550593 -41.815313 
L 669.195264 -41.815313 
L 671.839935 -41.815313 
L 674.484605 -41.815313 
L 677.129276 -41.815313 
L 679.773947 -41.815313 
L 682.418618 -41.815313 
L 685.063289 -41.815313 
L 687.70796 -41.815313 
L 690.352631 -41.815313 
L 692.997301 -41.815313 
L 695.641972 -41.815313 
L 698.286643 -41.815313 
L 700.931314 -41.815313 
L 703.575985 -41.815313 
L 706.220656 -41.815313 
L 708.865327 -41.815313 
L 711.509997 -41.815313 
L 714.154668 -41.815313 
L 716.799339 -41.815313 
L 719.44401 -41.815313 
L 722.088681 -41.815313 
L 724.733352 -41.815313 
L 727.378023 -41.815313 
L 727.378023 -49.82818 
L 727.378023 -49.82818 
L 724.733352 -50.12522 
L 722.088681 -50.418187 
L 719.44401 -50.706227 
L 716.799339 -50.988513 
L 714.154668 -51.264255 
L 711.509997 -51.532697 
L 708.865327 -51.793124 
L 706.220656 -52.044862 
L 703.575985 -52.287278 
L 700.931314 -52.519782 
L 698.286643 -52.741825 
L 695.641972 -52.9529 
L 692.997301 -53.152537 
L 690.352631 -53.340307 
L 687.70796 -53.515815 
L 685.063289 -53.678699 
L 682.418618 -53.828631 
L 679.773947 -53.965311 
L 677.129276 -54.08847 
L 674.484605 -54.197864 
L 671.839935 -54.293279 
L 669.195264 -54.374524 
L 666.550593 -54.441438 
L 663.905922 -54.493888 
L 661.261251 -54.531768 
L 658.61658 -54.555008 
L 655.971909 -54.56357 
L 653.327239 -54.557451 
L 650.682568 -54.536694 
L 648.037897 -54.50138 
L 645.393226 -54.451643 
L 642.748555 -54.387663 
L 640.103884 -54.309678 
L 637.459213 -54.217981 
L 634.814543 -54.112927 
L 632.169872 -53.994931 
L 629.525201 -53.864474 
L 626.88053 -53.7221 
L 624.235859 -53.568417 
L 621.591188 -53.404097 
L 618.946517 -53.229877 
L 616.301847 -53.04655 
L 613.657176 -52.854968 
L 611.012505 -52.656037 
L 608.367834 -52.450708 
L 605.723163 -52.239977 
L 603.078492 -52.024878 
L 600.433821 -51.806475 
L 597.789151 -51.585855 
L 595.14448 -51.364123 
L 592.499809 -51.142395 
L 589.855138 -50.921788 
L 587.210467 -50.703415 
L 584.565796 -50.488376 
L 581.921126 -50.277754 
L 579.276455 -50.072602 
L 576.631784 -49.873944 
L 573.987113 -49.682761 
L 571.342442 -49.499992 
L 568.697771 -49.326521 
L 566.0531 -49.16318 
L 563.40843 -49.010735 
L 560.763759 -48.869891 
L 558.119088 -48.74128 
L 555.474417 -48.625463 
L 552.829746 -48.522926 
L 550.185075 -48.434077 
L 547.540404 -48.359244 
L 544.895734 -48.298676 
L 542.251063 -48.252542 
L 539.606392 -48.220928 
L 536.961721 -48.203846 
L 534.31705 -48.201224 
L 531.672379 -48.212919 
L 529.027708 -48.238715 
L 526.383038 -48.278324 
L 523.738367 -48.331394 
L 521.093696 -48.397512 
L 518.449025 -48.476209 
L 515.804354 -48.566964 
L 513.159683 -48.669211 
L 510.515012 -48.782342 
L 507.870342 -48.905718 
L 505.225671 -49.038667 
L 502.581 -49.180497 
L 499.936329 -49.330498 
L 497.291658 -49.487947 
L 494.646987 -49.652116 
L 492.002316 -49.822273 
L 489.357646 -49.997688 
L 486.712975 -50.17764 
L 484.068304 -50.361418 
L 481.423633 -50.548324 
L 478.778962 -50.737679 
L 476.134291 -50.928828 
L 473.48962 -51.121139 
L 470.84495 -51.31401 
L 468.200279 -51.506872 
L 465.555608 -51.699195 
L 462.910937 -51.890492 
L 460.266266 -52.080324 
L 457.621595 -52.268305 
L 454.976925 -52.454114 
L 452.332254 -52.637499 
L 449.687583 -52.818283 
L 447.042912 -52.996382 
L 444.398241 -53.171803 
L 441.75357 -53.344667 
L 439.108899 -53.515209 
L 436.464229 -53.683796 
L 433.819558 -53.850934 
L 431.174887 -54.01728 
L 428.530216 -54.183652 
L 425.885545 -54.351037 
L 423.240874 -54.520597 
L 420.596203 -54.693678 
L 417.951533 -54.871814 
L 415.306862 -55.056722 
L 412.662191 -55.25031 
L 410.01752 -55.454669 
L 407.372849 -55.672063 
L 404.728178 -55.904928 
L 402.083507 -56.155849 
L 399.438837 -56.427553 
L 396.794166 -56.722883 
L 394.149495 -57.044779 
L 391.504824 -57.396254 
L 388.860153 -57.780363 
L 386.215482 -58.200174 
L 383.570811 -58.658737 
L 380.926141 -59.159047 
L 378.28147 -59.704013 
L 375.636799 -60.296418 
L 372.992128 -60.938884 
L 370.347457 -61.633834 
L 367.702786 -62.383456 
L 365.058115 -63.189668 
L 362.413445 -64.054083 
L 359.768774 -64.977975 
L 357.124103 -65.962249 
L 354.479432 -67.007414 
L 351.834761 -68.113553 
L 349.19009 -69.2803 
L 346.545419 -70.506824 
L 343.900749 -71.791805 
L 341.256078 -73.133427 
L 338.611407 -74.52936 
L 335.966736 -75.97676 
L 333.322065 -77.472264 
L 330.677394 -79.011988 
L 328.032724 -80.591536 
L 325.388053 -82.206007 
L 322.743382 -83.850008 
L 320.098711 -85.517675 
L 317.45404 -87.202688 
L 314.809369 -88.898305 
L 312.164698 -90.597389 
L 309.520028 -92.292444 
L 306.875357 -93.975657 
L 304.230686 -95.638939 
L 301.586015 -97.273978 
L 298.941344 -98.872291 
L 296.296673 -100.425283 
L 293.652002 -101.924304 
L 291.007332 -103.360723 
L 288.362661 -104.725984 
L 285.71799 -106.01169 
L 283.073319 -107.209663 
L 280.428648 -108.312026 
L 277.783977 -109.311274 
L 275.139306 -110.200347 
L 272.494636 -110.972703 
L 269.849965 -111.622385 
L 267.205294 -112.144091 
L 264.560623 -112.533229 
L 261.915952 -112.78598 
L 259.271281 -112.89934 
L 256.62661 -112.871167 
L 253.98194 -112.700211 
L 251.337269 -112.386141 
L 248.692598 -111.929556 
L 246.047927 -111.331992 
L 243.403256 -110.595918 
L 240.758585 -109.724715 
L 238.113914 -108.722651 
L 235.469244 -107.594846 
L 232.824573 -106.347222 
L 230.179902 -104.986449 
L 227.535231 -103.519881 
L 224.89056 -101.955479 
L 222.245889 -100.30174 
L 219.601218 -98.567605 
L 216.956548 -96.762378 
L 214.311877 -94.89563 
L 211.667206 -92.977108 
L 209.022535 -91.016645 
L 206.377864 -89.024064 
L 203.733193 -87.009093 
L 201.088523 -84.981276 
z
" style="stroke: #f89540"/>
    </defs>
    <g clip-path="url(#pc03463a832)">
     <use xlink:href="#m724c8d4ce9" x="0" y="212.255313" style="fill: #f89540; fill-opacity: 0.5; stroke: #f89540"/>
    </g>
   </g>
   <g id="matplotlib.axis_5">
    <g id="xtick_13">
     <g id="line2d_17">
      <g>
       <use xlink:href="#mce88de2676" x="201.088523" y="170.44" style="stroke: #000000; stroke-width: 0.8"/>
      </g>
     </g>
     <g id="text_3">
      <!-- 0.0 -->
      <g transform="translate(193.588523 185.7725) scale(0.12 -0.12)">
       <defs>
        <path id="TimesNewRomanPSMT-30" d="M 231 2094 
Q 231 2819 450 3342 
Q 669 3866 1031 4122 
Q 1313 4325 1613 4325 
Q 2100 4325 2488 3828 
Q 2972 3213 2972 2159 
Q 2972 1422 2759 906 
Q 2547 391 2217 158 
Q 1888 -75 1581 -75 
Q 975 -75 572 641 
Q 231 1244 231 2094 
z
M 844 2016 
Q 844 1141 1059 588 
Q 1238 122 1591 122 
Q 1759 122 1940 273 
Q 2122 425 2216 781 
Q 2359 1319 2359 2297 
Q 2359 3022 2209 3506 
Q 2097 3866 1919 4016 
Q 1791 4119 1609 4119 
Q 1397 4119 1231 3928 
Q 1006 3669 925 3112 
Q 844 2556 844 2016 
z
" transform="scale(0.015625)"/>
        <path id="TimesNewRomanPSMT-2e" d="M 800 606 
Q 947 606 1047 504 
Q 1147 403 1147 259 
Q 1147 116 1045 14 
Q 944 -88 800 -88 
Q 656 -88 554 14 
Q 453 116 453 259 
Q 453 406 554 506 
Q 656 606 800 606 
z
" transform="scale(0.015625)"/>
       </defs>
       <use xlink:href="#TimesNewRomanPSMT-30"/>
       <use xlink:href="#TimesNewRomanPSMT-2e" transform="translate(50 0)"/>
       <use xlink:href="#TimesNewRomanPSMT-30" transform="translate(75 0)"/>
      </g>
     </g>
    </g>
    <g id="xtick_14">
     <g id="line2d_18">
      <g>
       <use xlink:href="#mce88de2676" x="306.346423" y="170.44" style="stroke: #000000; stroke-width: 0.8"/>
      </g>
     </g>
     <g id="text_4">
      <!-- 0.2 -->
      <g transform="translate(298.846423 185.7725) scale(0.12 -0.12)">
       <defs>
        <path id="TimesNewRomanPSMT-32" d="M 2934 816 
L 2638 0 
L 138 0 
L 138 116 
Q 1241 1122 1691 1759 
Q 2141 2397 2141 2925 
Q 2141 3328 1894 3587 
Q 1647 3847 1303 3847 
Q 991 3847 742 3664 
Q 494 3481 375 3128 
L 259 3128 
Q 338 3706 661 4015 
Q 984 4325 1469 4325 
Q 1984 4325 2329 3994 
Q 2675 3663 2675 3213 
Q 2675 2891 2525 2569 
Q 2294 2063 1775 1497 
Q 997 647 803 472 
L 1909 472 
Q 2247 472 2383 497 
Q 2519 522 2628 598 
Q 2738 675 2819 816 
L 2934 816 
z
" transform="scale(0.015625)"/>
       </defs>
       <use xlink:href="#TimesNewRomanPSMT-30"/>
       <use xlink:href="#TimesNewRomanPSMT-2e" transform="translate(50 0)"/>
       <use xlink:href="#TimesNewRomanPSMT-32" transform="translate(75 0)"/>
      </g>
     </g>
    </g>
    <g id="xtick_15">
     <g id="line2d_19">
      <g>
       <use xlink:href="#mce88de2676" x="411.604323" y="170.44" style="stroke: #000000; stroke-width: 0.8"/>
      </g>
     </g>
     <g id="text_5">
      <!-- 0.4 -->
      <g transform="translate(404.104323 185.7725) scale(0.12 -0.12)">
       <defs>
        <path id="TimesNewRomanPSMT-34" d="M 2978 1563 
L 2978 1119 
L 2409 1119 
L 2409 0 
L 1894 0 
L 1894 1119 
L 100 1119 
L 100 1519 
L 2066 4325 
L 2409 4325 
L 2409 1563 
L 2978 1563 
z
M 1894 1563 
L 1894 3666 
L 406 1563 
L 1894 1563 
z
" transform="scale(0.015625)"/>
       </defs>
       <use xlink:href="#TimesNewRomanPSMT-30"/>
       <use xlink:href="#TimesNewRomanPSMT-2e" transform="translate(50 0)"/>
       <use xlink:href="#TimesNewRomanPSMT-34" transform="translate(75 0)"/>
      </g>
     </g>
    </g>
    <g id="xtick_16">
     <g id="line2d_20">
      <g>
       <use xlink:href="#mce88de2676" x="516.862223" y="170.44" style="stroke: #000000; stroke-width: 0.8"/>
      </g>
     </g>
     <g id="text_6">
      <!-- 0.6 -->
      <g transform="translate(509.362223 185.7725) scale(0.12 -0.12)">
       <defs>
        <path id="TimesNewRomanPSMT-36" d="M 2869 4325 
L 2869 4209 
Q 2456 4169 2195 4045 
Q 1934 3922 1679 3669 
Q 1425 3416 1258 3105 
Q 1091 2794 978 2366 
Q 1428 2675 1881 2675 
Q 2316 2675 2634 2325 
Q 2953 1975 2953 1425 
Q 2953 894 2631 456 
Q 2244 -75 1606 -75 
Q 1172 -75 869 213 
Q 275 772 275 1663 
Q 275 2231 503 2743 
Q 731 3256 1154 3653 
Q 1578 4050 1965 4187 
Q 2353 4325 2688 4325 
L 2869 4325 
z
M 925 2138 
Q 869 1716 869 1456 
Q 869 1156 980 804 
Q 1091 453 1309 247 
Q 1469 100 1697 100 
Q 1969 100 2183 356 
Q 2397 613 2397 1088 
Q 2397 1622 2184 2012 
Q 1972 2403 1581 2403 
Q 1463 2403 1327 2353 
Q 1191 2303 925 2138 
z
" transform="scale(0.015625)"/>
       </defs>
       <use xlink:href="#TimesNewRomanPSMT-30"/>
       <use xlink:href="#TimesNewRomanPSMT-2e" transform="translate(50 0)"/>
       <use xlink:href="#TimesNewRomanPSMT-36" transform="translate(75 0)"/>
      </g>
     </g>
    </g>
    <g id="xtick_17">
     <g id="line2d_21">
      <g>
       <use xlink:href="#mce88de2676" x="622.120122" y="170.44" style="stroke: #000000; stroke-width: 0.8"/>
      </g>
     </g>
     <g id="text_7">
      <!-- 0.8 -->
      <g transform="translate(614.620122 185.7725) scale(0.12 -0.12)">
       <defs>
        <path id="TimesNewRomanPSMT-38" d="M 1228 2134 
Q 725 2547 579 2797 
Q 434 3047 434 3316 
Q 434 3728 753 4026 
Q 1072 4325 1600 4325 
Q 2113 4325 2425 4047 
Q 2738 3769 2738 3413 
Q 2738 3175 2569 2928 
Q 2400 2681 1866 2347 
Q 2416 1922 2594 1678 
Q 2831 1359 2831 1006 
Q 2831 559 2490 242 
Q 2150 -75 1597 -75 
Q 994 -75 656 303 
Q 388 606 388 966 
Q 388 1247 577 1523 
Q 766 1800 1228 2134 
z
M 1719 2469 
Q 2094 2806 2194 3001 
Q 2294 3197 2294 3444 
Q 2294 3772 2109 3958 
Q 1925 4144 1606 4144 
Q 1288 4144 1088 3959 
Q 888 3775 888 3528 
Q 888 3366 970 3203 
Q 1053 3041 1206 2894 
L 1719 2469 
z
M 1375 2016 
Q 1116 1797 991 1539 
Q 866 1281 866 981 
Q 866 578 1086 336 
Q 1306 94 1647 94 
Q 1984 94 2187 284 
Q 2391 475 2391 747 
Q 2391 972 2272 1150 
Q 2050 1481 1375 2016 
z
" transform="scale(0.015625)"/>
       </defs>
       <use xlink:href="#TimesNewRomanPSMT-30"/>
       <use xlink:href="#TimesNewRomanPSMT-2e" transform="translate(50 0)"/>
       <use xlink:href="#TimesNewRomanPSMT-38" transform="translate(75 0)"/>
      </g>
     </g>
    </g>
    <g id="xtick_18">
     <g id="line2d_22">
      <g>
       <use xlink:href="#mce88de2676" x="727.378023" y="170.44" style="stroke: #000000; stroke-width: 0.8"/>
      </g>
     </g>
     <g id="text_8">
      <!-- 1.0 -->
      <g transform="translate(719.878023 185.7725) scale(0.12 -0.12)">
       <defs>
        <path id="TimesNewRomanPSMT-31" d="M 750 3822 
L 1781 4325 
L 1884 4325 
L 1884 747 
Q 1884 391 1914 303 
Q 1944 216 2037 169 
Q 2131 122 2419 116 
L 2419 0 
L 825 0 
L 825 116 
Q 1125 122 1212 167 
Q 1300 213 1334 289 
Q 1369 366 1369 747 
L 1369 3034 
Q 1369 3497 1338 3628 
Q 1316 3728 1258 3775 
Q 1200 3822 1119 3822 
Q 1003 3822 797 3725 
L 750 3822 
z
" transform="scale(0.015625)"/>
       </defs>
       <use xlink:href="#TimesNewRomanPSMT-31"/>
       <use xlink:href="#TimesNewRomanPSMT-2e" transform="translate(50 0)"/>
       <use xlink:href="#TimesNewRomanPSMT-30" transform="translate(75 0)"/>
      </g>
     </g>
    </g>
    <g id="text_9">
     <!-- Value -->
     <g transform="translate(448.297335 202.060625) scale(0.14 -0.14)">
      <defs>
       <path id="TimesNewRomanPSMT-56" d="M 4544 4238 
L 4544 4122 
Q 4319 4081 4203 3978 
Q 4038 3825 3909 3509 
L 2431 -97 
L 2316 -97 
L 728 3556 
Q 606 3838 556 3900 
Q 478 3997 364 4051 
Q 250 4106 56 4122 
L 56 4238 
L 1788 4238 
L 1788 4122 
Q 1494 4094 1406 4022 
Q 1319 3950 1319 3838 
Q 1319 3681 1463 3350 
L 2541 866 
L 3541 3319 
Q 3688 3681 3688 3822 
Q 3688 3913 3597 3995 
Q 3506 4078 3291 4113 
Q 3275 4116 3238 4122 
L 3238 4238 
L 4544 4238 
z
" transform="scale(0.015625)"/>
      </defs>
      <use xlink:href="#TimesNewRomanPSMT-56"/>
      <use xlink:href="#TimesNewRomanPSMT-61" transform="translate(61.091797 0)"/>
      <use xlink:href="#TimesNewRomanPSMT-6c" transform="translate(105.476562 0)"/>
      <use xlink:href="#TimesNewRomanPSMT-75" transform="translate(133.259766 0)"/>
      <use xlink:href="#TimesNewRomanPSMT-65" transform="translate(183.259766 0)"/>
     </g>
    </g>
    <g id="text_10">
     <!-- 1e6 -->
     <g transform="translate(712.93896 198.283125) scale(0.1 -0.1)">
      <use xlink:href="#TimesNewRomanPSMT-31"/>
      <use xlink:href="#TimesNewRomanPSMT-65" transform="translate(50 0)"/>
      <use xlink:href="#TimesNewRomanPSMT-36" transform="translate(94.384766 0)"/>
     </g>
    </g>
   </g>
   <g id="matplotlib.axis_6"/>
   <g id="line2d_23">
    <path d="M 201.088523 127.274036 
L 211.667206 119.278204 
L 216.956548 115.492935 
L 222.245889 111.953573 
L 227.535231 108.735432 
L 232.824573 105.908091 
L 238.113914 103.532662 
L 240.758585 102.530598 
L 243.403256 101.659394 
L 246.047927 100.92332 
L 248.692598 100.325757 
L 251.337269 99.869172 
L 253.98194 99.555101 
L 256.62661 99.384146 
L 259.271281 99.355973 
L 261.915952 99.469333 
L 264.560623 99.722083 
L 267.205294 100.111222 
L 269.849965 100.632927 
L 272.494636 101.28261 
L 275.139306 102.054966 
L 280.428648 103.943287 
L 285.71799 106.243623 
L 291.007332 108.89459 
L 296.296673 111.83003 
L 304.230686 116.616374 
L 317.45404 125.052625 
L 328.032724 131.663777 
L 335.966736 136.278553 
L 341.256078 139.121886 
L 346.545419 141.748489 
L 351.834761 144.14176 
L 357.124103 146.293063 
L 362.413445 148.20123 
L 367.702786 149.871857 
L 372.992128 151.316428 
L 378.28147 152.551299 
L 383.570811 153.596576 
L 388.860153 154.474949 
L 396.794166 155.53243 
L 404.728178 156.350385 
L 415.306862 157.19859 
L 436.464229 158.571516 
L 462.910937 160.36482 
L 497.291658 162.767365 
L 510.515012 163.47297 
L 521.093696 163.8578 
L 531.672379 164.042393 
L 542.251063 164.002771 
L 552.829746 163.732386 
L 563.40843 163.244577 
L 576.631784 162.381369 
L 595.14448 160.891189 
L 616.301847 159.208762 
L 629.525201 158.390838 
L 640.103884 157.945635 
L 650.682568 157.718619 
L 661.261251 157.723544 
L 671.839935 157.962034 
L 682.418618 158.426682 
L 692.997301 159.102775 
L 706.220656 160.21045 
L 719.44401 161.549086 
L 727.378023 162.427132 
L 727.378023 162.427132 
" clip-path="url(#pc03463a832)" style="fill: none; stroke: #ffffff; stroke-width: 2; stroke-linecap: square"/>
   </g>
   <g id="line2d_24">
    <path d="M 201.088523 170.44 
L 727.378023 170.44 
" style="fill: none; stroke: #000000; stroke-linecap: square"/>
   </g>
   <g id="text_11">
    <g id="patch_7">
     <path d="M 52.8675 179.860938 
L 149.788125 179.860938 
L 149.788125 161.019062 
L 52.8675 161.019062 
z
" style="fill: #ffffff; opacity: 0.5"/>
    </g>
    <!-- Mountain Regions -->
    <g transform="translate(56.8275 173.311562) scale(0.12 -0.12)">
     <defs>
      <path id="TimesNewRomanPSMT-4d" d="M 2619 0 
L 981 3566 
L 981 734 
Q 981 344 1066 247 
Q 1181 116 1431 116 
L 1581 116 
L 1581 0 
L 106 0 
L 106 116 
L 256 116 
Q 525 116 638 278 
Q 706 378 706 734 
L 706 3503 
Q 706 3784 644 3909 
Q 600 4000 483 4061 
Q 366 4122 106 4122 
L 106 4238 
L 1306 4238 
L 2844 922 
L 4356 4238 
L 5556 4238 
L 5556 4122 
L 5409 4122 
Q 5138 4122 5025 3959 
Q 4956 3859 4956 3503 
L 4956 734 
Q 4956 344 5044 247 
Q 5159 116 5409 116 
L 5556 116 
L 5556 0 
L 3756 0 
L 3756 116 
L 3906 116 
Q 4178 116 4288 278 
Q 4356 378 4356 734 
L 4356 3566 
L 2722 0 
L 2619 0 
z
" transform="scale(0.015625)"/>
      <path id="TimesNewRomanPSMT-69" d="M 928 4444 
Q 1059 4444 1151 4351 
Q 1244 4259 1244 4128 
Q 1244 3997 1151 3903 
Q 1059 3809 928 3809 
Q 797 3809 703 3903 
Q 609 3997 609 4128 
Q 609 4259 701 4351 
Q 794 4444 928 4444 
z
M 1188 2947 
L 1188 647 
Q 1188 378 1227 289 
Q 1266 200 1342 156 
Q 1419 113 1622 113 
L 1622 0 
L 231 0 
L 231 113 
Q 441 113 512 153 
Q 584 194 626 287 
Q 669 381 669 647 
L 669 1750 
Q 669 2216 641 2353 
Q 619 2453 572 2492 
Q 525 2531 444 2531 
Q 356 2531 231 2484 
L 188 2597 
L 1050 2947 
L 1188 2947 
z
" transform="scale(0.015625)"/>
      <path id="TimesNewRomanPSMT-67" d="M 966 1044 
Q 703 1172 562 1401 
Q 422 1631 422 1909 
Q 422 2334 742 2640 
Q 1063 2947 1563 2947 
Q 1972 2947 2272 2747 
L 2878 2747 
Q 3013 2747 3034 2739 
Q 3056 2731 3066 2713 
Q 3084 2684 3084 2613 
Q 3084 2531 3069 2500 
Q 3059 2484 3036 2475 
Q 3013 2466 2878 2466 
L 2506 2466 
Q 2681 2241 2681 1891 
Q 2681 1491 2375 1206 
Q 2069 922 1553 922 
Q 1341 922 1119 984 
Q 981 866 932 777 
Q 884 688 884 625 
Q 884 572 936 522 
Q 988 472 1138 450 
Q 1225 438 1575 428 
Q 2219 413 2409 384 
Q 2700 344 2873 169 
Q 3047 -6 3047 -263 
Q 3047 -616 2716 -925 
Q 2228 -1381 1444 -1381 
Q 841 -1381 425 -1109 
Q 191 -953 191 -784 
Q 191 -709 225 -634 
Q 278 -519 444 -313 
Q 466 -284 763 25 
Q 600 122 533 198 
Q 466 275 466 372 
Q 466 481 555 628 
Q 644 775 966 1044 
z
M 1509 2797 
Q 1278 2797 1122 2612 
Q 966 2428 966 2047 
Q 966 1553 1178 1281 
Q 1341 1075 1591 1075 
Q 1828 1075 1981 1253 
Q 2134 1431 2134 1813 
Q 2134 2309 1919 2591 
Q 1759 2797 1509 2797 
z
M 934 0 
Q 788 -159 713 -296 
Q 638 -434 638 -550 
Q 638 -700 819 -813 
Q 1131 -1006 1722 -1006 
Q 2284 -1006 2551 -807 
Q 2819 -609 2819 -384 
Q 2819 -222 2659 -153 
Q 2497 -84 2016 -72 
Q 1313 -53 934 0 
z
" transform="scale(0.015625)"/>
     </defs>
     <use xlink:href="#TimesNewRomanPSMT-4d"/>
     <use xlink:href="#TimesNewRomanPSMT-6f" transform="translate(88.916016 0)"/>
     <use xlink:href="#TimesNewRomanPSMT-75" transform="translate(138.916016 0)"/>
     <use xlink:href="#TimesNewRomanPSMT-6e" transform="translate(188.916016 0)"/>
     <use xlink:href="#TimesNewRomanPSMT-74" transform="translate(238.916016 0)"/>
     <use xlink:href="#TimesNewRomanPSMT-61" transform="translate(266.699219 0)"/>
     <use xlink:href="#TimesNewRomanPSMT-69" transform="translate(311.083984 0)"/>
     <use xlink:href="#TimesNewRomanPSMT-6e" transform="translate(338.867188 0)"/>
     <use xlink:href="#TimesNewRomanPSMT-20" transform="translate(388.867188 0)"/>
     <use xlink:href="#TimesNewRomanPSMT-52" transform="translate(413.867188 0)"/>
     <use xlink:href="#TimesNewRomanPSMT-65" transform="translate(480.566406 0)"/>
     <use xlink:href="#TimesNewRomanPSMT-67" transform="translate(524.951172 0)"/>
     <use xlink:href="#TimesNewRomanPSMT-69" transform="translate(574.951172 0)"/>
     <use xlink:href="#TimesNewRomanPSMT-6f" transform="translate(602.734375 0)"/>
     <use xlink:href="#TimesNewRomanPSMT-6e" transform="translate(652.734375 0)"/>
     <use xlink:href="#TimesNewRomanPSMT-73" transform="translate(702.734375 0)"/>
    </g>
   </g>
  </g>
  <g id="text_12">
   <!-- Housing Price Fluctuation(USD/square foot) -->
   <g transform="translate(234.865522 18.31) scale(0.16 -0.16)">
    <defs>
     <path id="TimesNewRomanPSMT-48" d="M 1316 2272 
L 3284 2272 
L 3284 3484 
Q 3284 3809 3244 3913 
Q 3213 3991 3113 4047 
Q 2978 4122 2828 4122 
L 2678 4122 
L 2678 4238 
L 4491 4238 
L 4491 4122 
L 4341 4122 
Q 4191 4122 4056 4050 
Q 3956 4000 3920 3898 
Q 3884 3797 3884 3484 
L 3884 750 
Q 3884 428 3925 325 
Q 3956 247 4053 191 
Q 4191 116 4341 116 
L 4491 116 
L 4491 0 
L 2678 0 
L 2678 116 
L 2828 116 
Q 3088 116 3206 269 
Q 3284 369 3284 750 
L 3284 2041 
L 1316 2041 
L 1316 750 
Q 1316 428 1356 325 
Q 1388 247 1488 191 
Q 1622 116 1772 116 
L 1925 116 
L 1925 0 
L 109 0 
L 109 116 
L 259 116 
Q 522 116 641 269 
Q 716 369 716 750 
L 716 3484 
Q 716 3809 675 3913 
Q 644 3991 547 4047 
Q 409 4122 259 4122 
L 109 4122 
L 109 4238 
L 1925 4238 
L 1925 4122 
L 1772 4122 
Q 1622 4122 1488 4050 
Q 1391 4000 1353 3898 
Q 1316 3797 1316 3484 
L 1316 2272 
z
" transform="scale(0.015625)"/>
     <path id="TimesNewRomanPSMT-50" d="M 1313 1984 
L 1313 750 
Q 1313 350 1400 253 
Q 1519 116 1759 116 
L 1922 116 
L 1922 0 
L 106 0 
L 106 116 
L 266 116 
Q 534 116 650 291 
Q 713 388 713 750 
L 713 3488 
Q 713 3888 628 3984 
Q 506 4122 266 4122 
L 106 4122 
L 106 4238 
L 1659 4238 
Q 2228 4238 2556 4120 
Q 2884 4003 3109 3725 
Q 3334 3447 3334 3066 
Q 3334 2547 2992 2222 
Q 2650 1897 2025 1897 
Q 1872 1897 1694 1919 
Q 1516 1941 1313 1984 
z
M 1313 2163 
Q 1478 2131 1606 2115 
Q 1734 2100 1825 2100 
Q 2150 2100 2386 2351 
Q 2622 2603 2622 3003 
Q 2622 3278 2509 3514 
Q 2397 3750 2190 3867 
Q 1984 3984 1722 3984 
Q 1563 3984 1313 3925 
L 1313 2163 
z
" transform="scale(0.015625)"/>
     <path id="TimesNewRomanPSMT-63" d="M 2631 1088 
Q 2516 522 2178 217 
Q 1841 -88 1431 -88 
Q 944 -88 581 321 
Q 219 731 219 1428 
Q 219 2103 620 2525 
Q 1022 2947 1584 2947 
Q 2006 2947 2278 2723 
Q 2550 2500 2550 2259 
Q 2550 2141 2473 2067 
Q 2397 1994 2259 1994 
Q 2075 1994 1981 2113 
Q 1928 2178 1911 2362 
Q 1894 2547 1784 2644 
Q 1675 2738 1481 2738 
Q 1169 2738 978 2506 
Q 725 2200 725 1697 
Q 725 1184 976 792 
Q 1228 400 1656 400 
Q 1963 400 2206 609 
Q 2378 753 2541 1131 
L 2631 1088 
z
" transform="scale(0.015625)"/>
     <path id="TimesNewRomanPSMT-46" d="M 1309 4006 
L 1309 2341 
L 2081 2341 
Q 2347 2341 2470 2458 
Q 2594 2575 2634 2922 
L 2750 2922 
L 2750 1488 
L 2634 1488 
Q 2631 1734 2570 1850 
Q 2509 1966 2401 2023 
Q 2294 2081 2081 2081 
L 1309 2081 
L 1309 750 
Q 1309 428 1350 325 
Q 1381 247 1481 191 
Q 1619 116 1769 116 
L 1922 116 
L 1922 0 
L 103 0 
L 103 116 
L 253 116 
Q 516 116 634 269 
Q 709 369 709 750 
L 709 3488 
Q 709 3809 669 3913 
Q 638 3991 541 4047 
Q 406 4122 253 4122 
L 103 4122 
L 103 4238 
L 3256 4238 
L 3297 3306 
L 3188 3306 
Q 3106 3603 2998 3742 
Q 2891 3881 2733 3943 
Q 2575 4006 2244 4006 
L 1309 4006 
z
" transform="scale(0.015625)"/>
     <path id="TimesNewRomanPSMT-28" d="M 1988 -1253 
L 1988 -1369 
Q 1516 -1131 1200 -813 
Q 750 -359 506 256 
Q 263 872 263 1534 
Q 263 2503 741 3301 
Q 1219 4100 1988 4444 
L 1988 4313 
Q 1603 4100 1356 3731 
Q 1109 3363 987 2797 
Q 866 2231 866 1616 
Q 866 947 969 400 
Q 1050 -31 1165 -292 
Q 1281 -553 1476 -793 
Q 1672 -1034 1988 -1253 
z
" transform="scale(0.015625)"/>
     <path id="TimesNewRomanPSMT-44" d="M 109 0 
L 109 116 
L 269 116 
Q 538 116 650 288 
Q 719 391 719 750 
L 719 3488 
Q 719 3884 631 3984 
Q 509 4122 269 4122 
L 109 4122 
L 109 4238 
L 1834 4238 
Q 2784 4238 3279 4022 
Q 3775 3806 4076 3303 
Q 4378 2800 4378 2141 
Q 4378 1256 3841 663 
Q 3238 0 2003 0 
L 109 0 
z
M 1319 306 
Q 1716 219 1984 219 
Q 2709 219 3187 728 
Q 3666 1238 3666 2109 
Q 3666 2988 3187 3494 
Q 2709 4000 1959 4000 
Q 1678 4000 1319 3909 
L 1319 306 
z
" transform="scale(0.015625)"/>
     <path id="TimesNewRomanPSMT-2f" d="M 1794 4444 
L 259 -88 
L 9 -88 
L 1544 4444 
L 1794 4444 
z
" transform="scale(0.015625)"/>
     <path id="TimesNewRomanPSMT-71" d="M 2734 2947 
L 2734 -734 
Q 2734 -1009 2771 -1087 
Q 2809 -1166 2889 -1209 
Q 2969 -1253 3200 -1253 
L 3200 -1369 
L 1756 -1369 
L 1756 -1253 
L 1816 -1253 
Q 1991 -1253 2081 -1203 
Q 2144 -1169 2181 -1080 
Q 2219 -991 2219 -734 
L 2219 497 
Q 1934 159 1721 35 
Q 1509 -88 1281 -88 
Q 866 -88 539 290 
Q 213 669 213 1303 
Q 213 2031 644 2489 
Q 1075 2947 1684 2947 
Q 1863 2947 2013 2897 
Q 2163 2847 2281 2747 
Q 2463 2834 2628 2947 
L 2734 2947 
z
M 2219 694 
L 2219 2038 
Q 2219 2272 2158 2406 
Q 2097 2541 1940 2634 
Q 1784 2728 1588 2728 
Q 1238 2728 988 2431 
Q 738 2134 738 1531 
Q 738 953 992 653 
Q 1247 353 1606 353 
Q 1791 353 1934 433 
Q 2078 513 2219 694 
z
" transform="scale(0.015625)"/>
     <path id="TimesNewRomanPSMT-66" d="M 1319 2638 
L 1319 756 
Q 1319 356 1406 250 
Q 1522 113 1716 113 
L 1975 113 
L 1975 0 
L 266 0 
L 266 113 
L 394 113 
Q 519 113 622 175 
Q 725 238 764 344 
Q 803 450 803 756 
L 803 2638 
L 247 2638 
L 247 2863 
L 803 2863 
L 803 3050 
Q 803 3478 940 3775 
Q 1078 4072 1361 4255 
Q 1644 4438 1997 4438 
Q 2325 4438 2600 4225 
Q 2781 4084 2781 3909 
Q 2781 3816 2700 3733 
Q 2619 3650 2525 3650 
Q 2453 3650 2373 3701 
Q 2294 3753 2178 3923 
Q 2063 4094 1966 4153 
Q 1869 4213 1750 4213 
Q 1606 4213 1506 4136 
Q 1406 4059 1362 3898 
Q 1319 3738 1319 3069 
L 1319 2863 
L 2056 2863 
L 2056 2638 
L 1319 2638 
z
" transform="scale(0.015625)"/>
     <path id="TimesNewRomanPSMT-29" d="M 144 4313 
L 144 4444 
Q 619 4209 934 3891 
Q 1381 3434 1625 2820 
Q 1869 2206 1869 1541 
Q 1869 572 1392 -226 
Q 916 -1025 144 -1369 
L 144 -1253 
Q 528 -1038 776 -670 
Q 1025 -303 1145 264 
Q 1266 831 1266 1447 
Q 1266 2113 1163 2663 
Q 1084 3094 967 3353 
Q 850 3613 656 3853 
Q 463 4094 144 4313 
z
" transform="scale(0.015625)"/>
    </defs>
    <use xlink:href="#TimesNewRomanPSMT-48"/>
    <use xlink:href="#TimesNewRomanPSMT-6f" transform="translate(72.216797 0)"/>
    <use xlink:href="#TimesNewRomanPSMT-75" transform="translate(122.216797 0)"/>
    <use xlink:href="#TimesNewRomanPSMT-73" transform="translate(172.216797 0)"/>
    <use xlink:href="#TimesNewRomanPSMT-69" transform="translate(211.132812 0)"/>
    <use xlink:href="#TimesNewRomanPSMT-6e" transform="translate(238.916016 0)"/>
    <use xlink:href="#TimesNewRomanPSMT-67" transform="translate(288.916016 0)"/>
    <use xlink:href="#TimesNewRomanPSMT-20" transform="translate(338.916016 0)"/>
    <use xlink:href="#TimesNewRomanPSMT-50" transform="translate(363.916016 0)"/>
    <use xlink:href="#TimesNewRomanPSMT-72" transform="translate(419.53125 0)"/>
    <use xlink:href="#TimesNewRomanPSMT-69" transform="translate(452.832031 0)"/>
    <use xlink:href="#TimesNewRomanPSMT-63" transform="translate(480.615234 0)"/>
    <use xlink:href="#TimesNewRomanPSMT-65" transform="translate(525 0)"/>
    <use xlink:href="#TimesNewRomanPSMT-20" transform="translate(569.384766 0)"/>
    <use xlink:href="#TimesNewRomanPSMT-46" transform="translate(594.384766 0)"/>
    <use xlink:href="#TimesNewRomanPSMT-6c" transform="translate(650 0)"/>
    <use xlink:href="#TimesNewRomanPSMT-75" transform="translate(677.783203 0)"/>
    <use xlink:href="#TimesNewRomanPSMT-63" transform="translate(727.783203 0)"/>
    <use xlink:href="#TimesNewRomanPSMT-74" transform="translate(772.167969 0)"/>
    <use xlink:href="#TimesNewRomanPSMT-75" transform="translate(799.951172 0)"/>
    <use xlink:href="#TimesNewRomanPSMT-61" transform="translate(849.951172 0)"/>
    <use xlink:href="#TimesNewRomanPSMT-74" transform="translate(894.335938 0)"/>
    <use xlink:href="#TimesNewRomanPSMT-69" transform="translate(922.119141 0)"/>
    <use xlink:href="#TimesNewRomanPSMT-6f" transform="translate(949.902344 0)"/>
    <use xlink:href="#TimesNewRomanPSMT-6e" transform="translate(999.902344 0)"/>
    <use xlink:href="#TimesNewRomanPSMT-28" transform="translate(1049.902344 0)"/>
    <use xlink:href="#TimesNewRomanPSMT-55" transform="translate(1083.203125 0)"/>
    <use xlink:href="#TimesNewRomanPSMT-53" transform="translate(1155.419922 0)"/>
    <use xlink:href="#TimesNewRomanPSMT-44" transform="translate(1211.035156 0)"/>
    <use xlink:href="#TimesNewRomanPSMT-2f" transform="translate(1283.251953 0)"/>
    <use xlink:href="#TimesNewRomanPSMT-73" transform="translate(1311.035156 0)"/>
    <use xlink:href="#TimesNewRomanPSMT-71" transform="translate(1349.951172 0)"/>
    <use xlink:href="#TimesNewRomanPSMT-75" transform="translate(1399.951172 0)"/>
    <use xlink:href="#TimesNewRomanPSMT-61" transform="translate(1449.951172 0)"/>
    <use xlink:href="#TimesNewRomanPSMT-72" transform="translate(1494.335938 0)"/>
    <use xlink:href="#TimesNewRomanPSMT-65" transform="translate(1527.636719 0)"/>
    <use xlink:href="#TimesNewRomanPSMT-20" transform="translate(1572.021484 0)"/>
    <use xlink:href="#TimesNewRomanPSMT-66" transform="translate(1597.021484 0)"/>
    <use xlink:href="#TimesNewRomanPSMT-6f" transform="translate(1630.322266 0)"/>
    <use xlink:href="#TimesNewRomanPSMT-6f" transform="translate(1680.322266 0)"/>
    <use xlink:href="#TimesNewRomanPSMT-74" transform="translate(1730.322266 0)"/>
    <use xlink:href="#TimesNewRomanPSMT-29" transform="translate(1758.105469 0)"/>
   </g>
  </g>
 </g>
 <defs>
  <clipPath id="pb1a878994e">
   <rect x="201.088523" y="21.12" width="526.2895" height="74.66"/>
  </clipPath>
  <clipPath id="p63dbf1bbd5">
   <rect x="201.088523" y="58.45" width="526.2895" height="74.66"/>
  </clipPath>
  <clipPath id="pc03463a832">
   <rect x="201.088523" y="95.78" width="526.2895" height="74.66"/>
  </clipPath>
 </defs>
</svg>
