<svg class="main-svg" xmlns="http://www.w3.org/2000/svg" xmlns:xlink="http://www.w3.org/1999/xlink" width="640" height="480" style="" viewBox="0 0 640 480"><rect x="0" y="0" width="640" height="480" style="fill: rgb(255, 255, 255); fill-opacity: 1;"/><defs id="defs-5d4d69"><g class="clips"><clipPath id="clip5d4d69xyplot" class="plotclip"><rect width="480" height="300"/></clipPath><clipPath class="axesclip" id="clip5d4d69x"><rect x="80" y="0" width="480" height="480"/></clipPath><clipPath class="axesclip" id="clip5d4d69y"><rect x="0" y="100" width="640" height="300"/></clipPath><clipPath class="axesclip" id="clip5d4d69xy"><rect x="80" y="100" width="480" height="300"/></clipPath></g><g class="gradients"/><g class="patterns"/></defs><g class="bglayer"/><g class="layer-below"><g class="imagelayer"/><g class="shapelayer"/></g><g class="cartesianlayer"><g class="subplot xy"><g class="layer-subplot"><g class="shapelayer"/><g class="imagelayer"/></g><g class="minor-gridlayer"><g class="x"/><g class="y"/></g><g class="gridlayer"><g class="x"><path class="xgrid crisp" transform="translate(181.78,0)" d="M0,100v300" style="stroke: rgb(255, 255, 255); stroke-opacity: 1; stroke-width: 1px;"/><path class="xgrid crisp" transform="translate(296.96000000000004,0)" d="M0,100v300" style="stroke: rgb(255, 255, 255); stroke-opacity: 1; stroke-width: 1px;"/><path class="xgrid crisp" transform="translate(412.14,0)" d="M0,100v300" style="stroke: rgb(255, 255, 255); stroke-opacity: 1; stroke-width: 1px;"/><path class="xgrid crisp" transform="translate(527.3199999999999,0)" d="M0,100v300" style="stroke: rgb(255, 255, 255); stroke-opacity: 1; stroke-width: 1px;"/></g><g class="y"><path class="ygrid crisp" transform="translate(0,325.78999999999996)" d="M80,0h480" style="stroke: rgb(255, 255, 255); stroke-opacity: 1; stroke-width: 1px;"/><path class="ygrid crisp" transform="translate(0,275.26)" d="M80,0h480" style="stroke: rgb(255, 255, 255); stroke-opacity: 1; stroke-width: 1px;"/><path class="ygrid crisp" transform="translate(0,224.74)" d="M80,0h480" style="stroke: rgb(255, 255, 255); stroke-opacity: 1; stroke-width: 1px;"/><path class="ygrid crisp" transform="translate(0,174.20999999999998)" d="M80,0h480" style="stroke: rgb(255, 255, 255); stroke-opacity: 1; stroke-width: 1px;"/><path class="ygrid crisp" transform="translate(0,123.68)" d="M80,0h480" style="stroke: rgb(255, 255, 255); stroke-opacity: 1; stroke-width: 1px;"/></g></g><g class="zerolinelayer"><path class="yzl zl crisp" transform="translate(0,376.32)" d="M80,0h480" style="stroke: rgb(255, 255, 255); stroke-opacity: 1; stroke-width: 2px;"/></g><g class="layer-between"><g class="shapelayer"/><g class="imagelayer"/></g><path class="xlines-below"/><path class="ylines-below"/><g class="overlines-below"/><g class="xaxislayer-below"/><g class="yaxislayer-below"/><g class="overaxes-below"/><g class="overplot"><g class="xy" transform="translate(80,100)" clip-path="url(#clip5d4d69xyplot)"><g class="scatterlayer mlayer"><g class="trace scatter trace121e97" style="stroke-miterlimit: 2; opacity: 1;"><g class="fills"/><g class="errorbars"/><g class="lines"/><g class="points"><path class="point" transform="translate(32.68,177.49)" d="M6.94,0A6.94,6.94 0 1,1 0,-6.94A6.94,6.94 0 0,1 6.94,0Z" style="opacity: 0.872047; stroke-width: 0.5px; fill: rgb(255, 157, 166); fill-opacity: 1; stroke: rgb(255, 255, 255); stroke-opacity: 1;"/><path class="point" transform="translate(37.28,63.52)" d="M6.94,0A6.94,6.94 0 1,1 0,-6.94A6.94,6.94 0 0,1 6.94,0Z" style="opacity: 0.872047; stroke-width: 0.5px; fill: rgb(255, 157, 166); fill-opacity: 1; stroke: rgb(255, 255, 255); stroke-opacity: 1;"/><path class="point" transform="translate(41.66,92.19)" d="M6.94,0A6.94,6.94 0 1,1 0,-6.94A6.94,6.94 0 0,1 6.94,0Z" style="opacity: 0.872047; stroke-width: 0.5px; fill: rgb(255, 157, 166); fill-opacity: 1; stroke: rgb(255, 255, 255); stroke-opacity: 1;"/><path class="point" transform="translate(46.27,155.28)" d="M6.94,0A6.94,6.94 0 1,1 0,-6.94A6.94,6.94 0 0,1 6.94,0Z" style="opacity: 0.872047; stroke-width: 0.5px; fill: rgb(255, 157, 166); fill-opacity: 1; stroke: rgb(255, 255, 255); stroke-opacity: 1;"/><path class="point" transform="translate(50.64,181.93)" d="M6.94,0A6.94,6.94 0 1,1 0,-6.94A6.94,6.94 0 0,1 6.94,0Z" style="opacity: 0.872047; stroke-width: 0.5px; fill: rgb(255, 157, 166); fill-opacity: 1; stroke: rgb(255, 255, 255); stroke-opacity: 1;"/><path class="point" transform="translate(55.25,123.35)" d="M6.94,0A6.94,6.94 0 1,1 0,-6.94A6.94,6.94 0 0,1 6.94,0Z" style="opacity: 0.872047; stroke-width: 0.5px; fill: rgb(255, 157, 166); fill-opacity: 1; stroke: rgb(255, 255, 255); stroke-opacity: 1;"/><path class="point" transform="translate(59.63,99.9)" d="M6.94,0A6.94,6.94 0 1,1 0,-6.94A6.94,6.94 0 0,1 6.94,0Z" style="opacity: 0.872047; stroke-width: 0.5px; fill: rgb(255, 157, 166); fill-opacity: 1; stroke: rgb(255, 255, 255); stroke-opacity: 1;"/><path class="point" transform="translate(64.24,79.49)" d="M6.94,0A6.94,6.94 0 1,1 0,-6.94A6.94,6.94 0 0,1 6.94,0Z" style="opacity: 0.872047; stroke-width: 0.5px; fill: rgb(255, 157, 166); fill-opacity: 1; stroke: rgb(255, 255, 255); stroke-opacity: 1;"/><path class="point" transform="translate(68.84,165.06)" d="M6.94,0A6.94,6.94 0 1,1 0,-6.94A6.94,6.94 0 0,1 6.94,0Z" style="opacity: 0.872047; stroke-width: 0.5px; fill: rgb(255, 157, 166); fill-opacity: 1; stroke: rgb(255, 255, 255); stroke-opacity: 1;"/><path class="point" transform="translate(73.22,162.33)" d="M6.94,0A6.94,6.94 0 1,1 0,-6.94A6.94,6.94 0 0,1 6.94,0Z" style="opacity: 0.872047; stroke-width: 0.5px; fill: rgb(255, 157, 166); fill-opacity: 1; stroke: rgb(255, 255, 255); stroke-opacity: 1;"/><path class="point" transform="translate(77.83,171.68)" d="M6.94,0A6.94,6.94 0 1,1 0,-6.94A6.94,6.94 0 0,1 6.94,0Z" style="opacity: 0.872047; stroke-width: 0.5px; fill: rgb(255, 157, 166); fill-opacity: 1; stroke: rgb(255, 255, 255); stroke-opacity: 1;"/><path class="point" transform="translate(82.2,93.61)" d="M6.94,0A6.94,6.94 0 1,1 0,-6.94A6.94,6.94 0 0,1 6.94,0Z" style="opacity: 0.872047; stroke-width: 0.5px; fill: rgb(255, 157, 166); fill-opacity: 1; stroke: rgb(255, 255, 255); stroke-opacity: 1;"/><path class="point" transform="translate(86.81,244.62)" d="M6.94,0A6.94,6.94 0 1,1 0,-6.94A6.94,6.94 0 0,1 6.94,0Z" style="opacity: 0.872047; stroke-width: 0.5px; fill: rgb(255, 157, 166); fill-opacity: 1; stroke: rgb(255, 255, 255); stroke-opacity: 1;"/><path class="point" transform="translate(91.19,140.98)" d="M6.94,0A6.94,6.94 0 1,1 0,-6.94A6.94,6.94 0 0,1 6.94,0Z" style="opacity: 0.872047; stroke-width: 0.5px; fill: rgb(255, 157, 166); fill-opacity: 1; stroke: rgb(255, 255, 255); stroke-opacity: 1;"/><path class="point" transform="translate(95.8,172.56)" d="M6.94,0A6.94,6.94 0 1,1 0,-6.94A6.94,6.94 0 0,1 6.94,0Z" style="opacity: 0.872047; stroke-width: 0.5px; fill: rgb(255, 157, 166); fill-opacity: 1; stroke: rgb(255, 255, 255); stroke-opacity: 1;"/><path class="point" transform="translate(100.17,227.11)" d="M6.94,0A6.94,6.94 0 1,1 0,-6.94A6.94,6.94 0 0,1 6.94,0Z" style="opacity: 0.872047; stroke-width: 0.5px; fill: rgb(255, 157, 166); fill-opacity: 1; stroke: rgb(255, 255, 255); stroke-opacity: 1;"/><path class="point" transform="translate(104.78,193.18)" d="M6.94,0A6.94,6.94 0 1,1 0,-6.94A6.94,6.94 0 0,1 6.94,0Z" style="opacity: 0.872047; stroke-width: 0.5px; fill: rgb(255, 157, 166); fill-opacity: 1; stroke: rgb(255, 255, 255); stroke-opacity: 1;"/><path class="point" transform="translate(109.39,105.1)" d="M6.94,0A6.94,6.94 0 1,1 0,-6.94A6.94,6.94 0 0,1 6.94,0Z" style="opacity: 0.872047; stroke-width: 0.5px; fill: rgb(255, 157, 166); fill-opacity: 1; stroke: rgb(255, 255, 255); stroke-opacity: 1;"/><path class="point" transform="translate(113.76,165.08)" d="M6.94,0A6.94,6.94 0 1,1 0,-6.94A6.94,6.94 0 0,1 6.94,0Z" style="opacity: 0.872047; stroke-width: 0.5px; fill: rgb(255, 157, 166); fill-opacity: 1; stroke: rgb(255, 255, 255); stroke-opacity: 1;"/><path class="point" transform="translate(118.37,151.09)" d="M6.94,0A6.94,6.94 0 1,1 0,-6.94A6.94,6.94 0 0,1 6.94,0Z" style="opacity: 0.872047; stroke-width: 0.5px; fill: rgb(255, 157, 166); fill-opacity: 1; stroke: rgb(255, 255, 255); stroke-opacity: 1;"/><path class="point" transform="translate(122.75,134.16)" d="M6.94,0A6.94,6.94 0 1,1 0,-6.94A6.94,6.94 0 0,1 6.94,0Z" style="opacity: 0.872047; stroke-width: 0.5px; fill: rgb(255, 157, 166); fill-opacity: 1; stroke: rgb(255, 255, 255); stroke-opacity: 1;"/><path class="point" transform="translate(127.35,135.37)" d="M6.94,0A6.94,6.94 0 1,1 0,-6.94A6.94,6.94 0 0,1 6.94,0Z" style="opacity: 0.872047; stroke-width: 0.5px; fill: rgb(255, 157, 166); fill-opacity: 1; stroke: rgb(255, 255, 255); stroke-opacity: 1;"/><path class="point" transform="translate(131.73,112.68)" d="M6.94,0A6.94,6.94 0 1,1 0,-6.94A6.94,6.94 0 0,1 6.94,0Z" style="opacity: 0.872047; stroke-width: 0.5px; fill: rgb(255, 157, 166); fill-opacity: 1; stroke: rgb(255, 255, 255); stroke-opacity: 1;"/><path class="point" transform="translate(136.34,131.41)" d="M6.94,0A6.94,6.94 0 1,1 0,-6.94A6.94,6.94 0 0,1 6.94,0Z" style="opacity: 0.872047; stroke-width: 0.5px; fill: rgb(255, 157, 166); fill-opacity: 1; stroke: rgb(255, 255, 255); stroke-opacity: 1;"/><path class="point" transform="translate(140.95,125.42)" d="M6.94,0A6.94,6.94 0 1,1 0,-6.94A6.94,6.94 0 0,1 6.94,0Z" style="opacity: 0.872047; stroke-width: 0.5px; fill: rgb(255, 157, 166); fill-opacity: 1; stroke: rgb(255, 255, 255); stroke-opacity: 1;"/><path class="point" transform="translate(145.32,172.56)" d="M6.94,0A6.94,6.94 0 1,1 0,-6.94A6.94,6.94 0 0,1 6.94,0Z" style="opacity: 0.872047; stroke-width: 0.5px; fill: rgb(255, 157, 166); fill-opacity: 1; stroke: rgb(255, 255, 255); stroke-opacity: 1;"/><path class="point" transform="translate(149.93,90.25)" d="M6.94,0A6.94,6.94 0 1,1 0,-6.94A6.94,6.94 0 0,1 6.94,0Z" style="opacity: 0.872047; stroke-width: 0.5px; fill: rgb(255, 157, 166); fill-opacity: 1; stroke: rgb(255, 255, 255); stroke-opacity: 1;"/><path class="point" transform="translate(154.31,98.59)" d="M6.94,0A6.94,6.94 0 1,1 0,-6.94A6.94,6.94 0 0,1 6.94,0Z" style="opacity: 0.872047; stroke-width: 0.5px; fill: rgb(255, 157, 166); fill-opacity: 1; stroke: rgb(255, 255, 255); stroke-opacity: 1;"/><path class="point" transform="translate(158.91,53.62)" d="M6.94,0A6.94,6.94 0 1,1 0,-6.94A6.94,6.94 0 0,1 6.94,0Z" style="opacity: 0.872047; stroke-width: 0.5px; fill: rgb(255, 157, 166); fill-opacity: 1; stroke: rgb(255, 255, 255); stroke-opacity: 1;"/><path class="point" transform="translate(163.29,154.98)" d="M6.94,0A6.94,6.94 0 1,1 0,-6.94A6.94,6.94 0 0,1 6.94,0Z" style="opacity: 0.872047; stroke-width: 0.5px; fill: rgb(255, 157, 166); fill-opacity: 1; stroke: rgb(255, 255, 255); stroke-opacity: 1;"/><path class="point" transform="translate(167.9,179)" d="M6.94,0A6.94,6.94 0 1,1 0,-6.94A6.94,6.94 0 0,1 6.94,0Z" style="opacity: 0.872047; stroke-width: 0.5px; fill: rgb(255, 157, 166); fill-opacity: 1; stroke: rgb(255, 255, 255); stroke-opacity: 1;"/><path class="point" transform="translate(172.5,89.26)" d="M6.94,0A6.94,6.94 0 1,1 0,-6.94A6.94,6.94 0 0,1 6.94,0Z" style="opacity: 0.872047; stroke-width: 0.5px; fill: rgb(255, 157, 166); fill-opacity: 1; stroke: rgb(255, 255, 255); stroke-opacity: 1;"/><path class="point" transform="translate(176.88,134.71)" d="M6.94,0A6.94,6.94 0 1,1 0,-6.94A6.94,6.94 0 0,1 6.94,0Z" style="opacity: 0.872047; stroke-width: 0.5px; fill: rgb(255, 157, 166); fill-opacity: 1; stroke: rgb(255, 255, 255); stroke-opacity: 1;"/><path class="point" transform="translate(181.49,122.92)" d="M6.94,0A6.94,6.94 0 1,1 0,-6.94A6.94,6.94 0 0,1 6.94,0Z" style="opacity: 0.872047; stroke-width: 0.5px; fill: rgb(255, 157, 166); fill-opacity: 1; stroke: rgb(255, 255, 255); stroke-opacity: 1;"/><path class="point" transform="translate(185.87,257.53)" d="M6.94,0A6.94,6.94 0 1,1 0,-6.94A6.94,6.94 0 0,1 6.94,0Z" style="opacity: 0.872047; stroke-width: 0.5px; fill: rgb(255, 157, 166); fill-opacity: 1; stroke: rgb(255, 255, 255); stroke-opacity: 1;"/><path class="point" transform="translate(190.47,179.86)" d="M6.94,0A6.94,6.94 0 1,1 0,-6.94A6.94,6.94 0 0,1 6.94,0Z" style="opacity: 0.872047; stroke-width: 0.5px; fill: rgb(255, 157, 166); fill-opacity: 1; stroke: rgb(255, 255, 255); stroke-opacity: 1;"/><path class="point" transform="translate(194.85,112.76)" d="M6.94,0A6.94,6.94 0 1,1 0,-6.94A6.94,6.94 0 0,1 6.94,0Z" style="opacity: 0.872047; stroke-width: 0.5px; fill: rgb(255, 157, 166); fill-opacity: 1; stroke: rgb(255, 255, 255); stroke-opacity: 1;"/><path class="point" transform="translate(199.46,88.66)" d="M6.94,0A6.94,6.94 0 1,1 0,-6.94A6.94,6.94 0 0,1 6.94,0Z" style="opacity: 0.872047; stroke-width: 0.5px; fill: rgb(255, 157, 166); fill-opacity: 1; stroke: rgb(255, 255, 255); stroke-opacity: 1;"/><path class="point" transform="translate(203.83,141.59)" d="M6.94,0A6.94,6.94 0 1,1 0,-6.94A6.94,6.94 0 0,1 6.94,0Z" style="opacity: 0.872047; stroke-width: 0.5px; fill: rgb(255, 157, 166); fill-opacity: 1; stroke: rgb(255, 255, 255); stroke-opacity: 1;"/><path class="point" transform="translate(208.44,23.68)" d="M6.94,0A6.94,6.94 0 1,1 0,-6.94A6.94,6.94 0 0,1 6.94,0Z" style="opacity: 0.872047; stroke-width: 0.5px; fill: rgb(255, 157, 166); fill-opacity: 1; stroke: rgb(255, 255, 255); stroke-opacity: 1;"/><path class="point" transform="translate(213.05,123.27)" d="M6.94,0A6.94,6.94 0 1,1 0,-6.94A6.94,6.94 0 0,1 6.94,0Z" style="opacity: 0.872047; stroke-width: 0.5px; fill: rgb(255, 157, 166); fill-opacity: 1; stroke: rgb(255, 255, 255); stroke-opacity: 1;"/><path class="point" transform="translate(217.42,168.62)" d="M6.94,0A6.94,6.94 0 1,1 0,-6.94A6.94,6.94 0 0,1 6.94,0Z" style="opacity: 0.872047; stroke-width: 0.5px; fill: rgb(255, 157, 166); fill-opacity: 1; stroke: rgb(255, 255, 255); stroke-opacity: 1;"/><path class="point" transform="translate(222.03,85.6)" d="M6.94,0A6.94,6.94 0 1,1 0,-6.94A6.94,6.94 0 0,1 6.94,0Z" style="opacity: 0.872047; stroke-width: 0.5px; fill: rgb(255, 157, 166); fill-opacity: 1; stroke: rgb(255, 255, 255); stroke-opacity: 1;"/><path class="point" transform="translate(226.41,173.85)" d="M6.94,0A6.94,6.94 0 1,1 0,-6.94A6.94,6.94 0 0,1 6.94,0Z" style="opacity: 0.872047; stroke-width: 0.5px; fill: rgb(255, 157, 166); fill-opacity: 1; stroke: rgb(255, 255, 255); stroke-opacity: 1;"/><path class="point" transform="translate(231.02,180.9)" d="M6.94,0A6.94,6.94 0 1,1 0,-6.94A6.94,6.94 0 0,1 6.94,0Z" style="opacity: 0.872047; stroke-width: 0.5px; fill: rgb(255, 157, 166); fill-opacity: 1; stroke: rgb(255, 255, 255); stroke-opacity: 1;"/><path class="point" transform="translate(235.39,146.92)" d="M6.94,0A6.94,6.94 0 1,1 0,-6.94A6.94,6.94 0 0,1 6.94,0Z" style="opacity: 0.872047; stroke-width: 0.5px; fill: rgb(255, 157, 166); fill-opacity: 1; stroke: rgb(255, 255, 255); stroke-opacity: 1;"/><path class="point" transform="translate(240,132.74)" d="M6.94,0A6.94,6.94 0 1,1 0,-6.94A6.94,6.94 0 0,1 6.94,0Z" style="opacity: 0.872047; stroke-width: 0.5px; fill: rgb(255, 157, 166); fill-opacity: 1; stroke: rgb(255, 255, 255); stroke-opacity: 1;"/><path class="point" transform="translate(244.61,112.81)" d="M6.94,0A6.94,6.94 0 1,1 0,-6.94A6.94,6.94 0 0,1 6.94,0Z" style="opacity: 0.872047; stroke-width: 0.5px; fill: rgb(255, 157, 166); fill-opacity: 1; stroke: rgb(255, 255, 255); stroke-opacity: 1;"/><path class="point" transform="translate(248.98,175.42)" d="M6.94,0A6.94,6.94 0 1,1 0,-6.94A6.94,6.94 0 0,1 6.94,0Z" style="opacity: 0.872047; stroke-width: 0.5px; fill: rgb(255, 157, 166); fill-opacity: 1; stroke: rgb(255, 255, 255); stroke-opacity: 1;"/><path class="point" transform="translate(253.59,153.79)" d="M6.94,0A6.94,6.94 0 1,1 0,-6.94A6.94,6.94 0 0,1 6.94,0Z" style="opacity: 0.872047; stroke-width: 0.5px; fill: rgb(255, 157, 166); fill-opacity: 1; stroke: rgb(255, 255, 255); stroke-opacity: 1;"/><path class="point" transform="translate(257.97,79.66)" d="M6.94,0A6.94,6.94 0 1,1 0,-6.94A6.94,6.94 0 0,1 6.94,0Z" style="opacity: 0.872047; stroke-width: 0.5px; fill: rgb(255, 157, 166); fill-opacity: 1; stroke: rgb(255, 255, 255); stroke-opacity: 1;"/><path class="point" transform="translate(262.58,54.63)" d="M6.94,0A6.94,6.94 0 1,1 0,-6.94A6.94,6.94 0 0,1 6.94,0Z" style="opacity: 0.872047; stroke-width: 0.5px; fill: rgb(255, 157, 166); fill-opacity: 1; stroke: rgb(255, 255, 255); stroke-opacity: 1;"/><path class="point" transform="translate(266.95,276.32)" d="M6.94,0A6.94,6.94 0 1,1 0,-6.94A6.94,6.94 0 0,1 6.94,0Z" style="opacity: 0.872047; stroke-width: 0.5px; fill: rgb(255, 157, 166); fill-opacity: 1; stroke: rgb(255, 255, 255); stroke-opacity: 1;"/><path class="point" transform="translate(271.56,136.71)" d="M6.94,0A6.94,6.94 0 1,1 0,-6.94A6.94,6.94 0 0,1 6.94,0Z" style="opacity: 0.872047; stroke-width: 0.5px; fill: rgb(255, 157, 166); fill-opacity: 1; stroke: rgb(255, 255, 255); stroke-opacity: 1;"/><path class="point" transform="translate(276.17,60.29)" d="M6.94,0A6.94,6.94 0 1,1 0,-6.94A6.94,6.94 0 0,1 6.94,0Z" style="opacity: 0.872047; stroke-width: 0.5px; fill: rgb(255, 157, 166); fill-opacity: 1; stroke: rgb(255, 255, 255); stroke-opacity: 1;"/><path class="point" transform="translate(280.54,116.15)" d="M6.94,0A6.94,6.94 0 1,1 0,-6.94A6.94,6.94 0 0,1 6.94,0Z" style="opacity: 0.872047; stroke-width: 0.5px; fill: rgb(255, 157, 166); fill-opacity: 1; stroke: rgb(255, 255, 255); stroke-opacity: 1;"/><path class="point" transform="translate(285.15,78.32)" d="M6.94,0A6.94,6.94 0 1,1 0,-6.94A6.94,6.94 0 0,1 6.94,0Z" style="opacity: 0.872047; stroke-width: 0.5px; fill: rgb(255, 157, 166); fill-opacity: 1; stroke: rgb(255, 255, 255); stroke-opacity: 1;"/><path class="point" transform="translate(289.53,55.76)" d="M6.94,0A6.94,6.94 0 1,1 0,-6.94A6.94,6.94 0 0,1 6.94,0Z" style="opacity: 0.872047; stroke-width: 0.5px; fill: rgb(255, 157, 166); fill-opacity: 1; stroke: rgb(255, 255, 255); stroke-opacity: 1;"/><path class="point" transform="translate(294.13,139.26)" d="M6.94,0A6.94,6.94 0 1,1 0,-6.94A6.94,6.94 0 0,1 6.94,0Z" style="opacity: 0.872047; stroke-width: 0.5px; fill: rgb(255, 157, 166); fill-opacity: 1; stroke: rgb(255, 255, 255); stroke-opacity: 1;"/><path class="point" transform="translate(298.51,116.4)" d="M6.94,0A6.94,6.94 0 1,1 0,-6.94A6.94,6.94 0 0,1 6.94,0Z" style="opacity: 0.872047; stroke-width: 0.5px; fill: rgb(255, 157, 166); fill-opacity: 1; stroke: rgb(255, 255, 255); stroke-opacity: 1;"/><path class="point" transform="translate(303.12,117.31)" d="M6.94,0A6.94,6.94 0 1,1 0,-6.94A6.94,6.94 0 0,1 6.94,0Z" style="opacity: 0.872047; stroke-width: 0.5px; fill: rgb(255, 157, 166); fill-opacity: 1; stroke: rgb(255, 255, 255); stroke-opacity: 1;"/><path class="point" transform="translate(307.5,110.99)" d="M6.94,0A6.94,6.94 0 1,1 0,-6.94A6.94,6.94 0 0,1 6.94,0Z" style="opacity: 0.872047; stroke-width: 0.5px; fill: rgb(255, 157, 166); fill-opacity: 1; stroke: rgb(255, 255, 255); stroke-opacity: 1;"/><path class="point" transform="translate(312.1,193.35)" d="M6.94,0A6.94,6.94 0 1,1 0,-6.94A6.94,6.94 0 0,1 6.94,0Z" style="opacity: 0.872047; stroke-width: 0.5px; fill: rgb(255, 157, 166); fill-opacity: 1; stroke: rgb(255, 255, 255); stroke-opacity: 1;"/><path class="point" transform="translate(316.71,166.6)" d="M6.94,0A6.94,6.94 0 1,1 0,-6.94A6.94,6.94 0 0,1 6.94,0Z" style="opacity: 0.872047; stroke-width: 0.5px; fill: rgb(255, 157, 166); fill-opacity: 1; stroke: rgb(255, 255, 255); stroke-opacity: 1;"/><path class="point" transform="translate(321.09,75.54)" d="M6.94,0A6.94,6.94 0 1,1 0,-6.94A6.94,6.94 0 0,1 6.94,0Z" style="opacity: 0.872047; stroke-width: 0.5px; fill: rgb(255, 157, 166); fill-opacity: 1; stroke: rgb(255, 255, 255); stroke-opacity: 1;"/><path class="point" transform="translate(325.69,155.51)" d="M6.94,0A6.94,6.94 0 1,1 0,-6.94A6.94,6.94 0 0,1 6.94,0Z" style="opacity: 0.872047; stroke-width: 0.5px; fill: rgb(255, 157, 166); fill-opacity: 1; stroke: rgb(255, 255, 255); stroke-opacity: 1;"/><path class="point" transform="translate(330.07,112.03)" d="M6.94,0A6.94,6.94 0 1,1 0,-6.94A6.94,6.94 0 0,1 6.94,0Z" style="opacity: 0.872047; stroke-width: 0.5px; fill: rgb(255, 157, 166); fill-opacity: 1; stroke: rgb(255, 255, 255); stroke-opacity: 1;"/><path class="point" transform="translate(334.68,75.67)" d="M6.94,0A6.94,6.94 0 1,1 0,-6.94A6.94,6.94 0 0,1 6.94,0Z" style="opacity: 0.872047; stroke-width: 0.5px; fill: rgb(255, 157, 166); fill-opacity: 1; stroke: rgb(255, 255, 255); stroke-opacity: 1;"/><path class="point" transform="translate(339.05,113.92)" d="M6.94,0A6.94,6.94 0 1,1 0,-6.94A6.94,6.94 0 0,1 6.94,0Z" style="opacity: 0.872047; stroke-width: 0.5px; fill: rgb(255, 157, 166); fill-opacity: 1; stroke: rgb(255, 255, 255); stroke-opacity: 1;"/><path class="point" transform="translate(343.66,89.34)" d="M6.94,0A6.94,6.94 0 1,1 0,-6.94A6.94,6.94 0 0,1 6.94,0Z" style="opacity: 0.872047; stroke-width: 0.5px; fill: rgb(255, 157, 166); fill-opacity: 1; stroke: rgb(255, 255, 255); stroke-opacity: 1;"/><path class="point" transform="translate(348.27,101.47)" d="M6.94,0A6.94,6.94 0 1,1 0,-6.94A6.94,6.94 0 0,1 6.94,0Z" style="opacity: 0.872047; stroke-width: 0.5px; fill: rgb(255, 157, 166); fill-opacity: 1; stroke: rgb(255, 255, 255); stroke-opacity: 1;"/><path class="point" transform="translate(352.65,194.39)" d="M6.94,0A6.94,6.94 0 1,1 0,-6.94A6.94,6.94 0 0,1 6.94,0Z" style="opacity: 0.872047; stroke-width: 0.5px; fill: rgb(255, 157, 166); fill-opacity: 1; stroke: rgb(255, 255, 255); stroke-opacity: 1;"/><path class="point" transform="translate(357.25,97.83)" d="M6.94,0A6.94,6.94 0 1,1 0,-6.94A6.94,6.94 0 0,1 6.94,0Z" style="opacity: 0.872047; stroke-width: 0.5px; fill: rgb(255, 157, 166); fill-opacity: 1; stroke: rgb(255, 255, 255); stroke-opacity: 1;"/><path class="point" transform="translate(361.63,91.46)" d="M6.94,0A6.94,6.94 0 1,1 0,-6.94A6.94,6.94 0 0,1 6.94,0Z" style="opacity: 0.872047; stroke-width: 0.5px; fill: rgb(255, 157, 166); fill-opacity: 1; stroke: rgb(255, 255, 255); stroke-opacity: 1;"/><path class="point" transform="translate(366.24,144.24)" d="M6.94,0A6.94,6.94 0 1,1 0,-6.94A6.94,6.94 0 0,1 6.94,0Z" style="opacity: 0.872047; stroke-width: 0.5px; fill: rgb(255, 157, 166); fill-opacity: 1; stroke: rgb(255, 255, 255); stroke-opacity: 1;"/><path class="point" transform="translate(370.61,128.5)" d="M6.94,0A6.94,6.94 0 1,1 0,-6.94A6.94,6.94 0 0,1 6.94,0Z" style="opacity: 0.872047; stroke-width: 0.5px; fill: rgb(255, 157, 166); fill-opacity: 1; stroke: rgb(255, 255, 255); stroke-opacity: 1;"/><path class="point" transform="translate(375.22,144.11)" d="M6.94,0A6.94,6.94 0 1,1 0,-6.94A6.94,6.94 0 0,1 6.94,0Z" style="opacity: 0.872047; stroke-width: 0.5px; fill: rgb(255, 157, 166); fill-opacity: 1; stroke: rgb(255, 255, 255); stroke-opacity: 1;"/><path class="point" transform="translate(379.83,105.23)" d="M6.94,0A6.94,6.94 0 1,1 0,-6.94A6.94,6.94 0 0,1 6.94,0Z" style="opacity: 0.872047; stroke-width: 0.5px; fill: rgb(255, 157, 166); fill-opacity: 1; stroke: rgb(255, 255, 255); stroke-opacity: 1;"/><path class="point" transform="translate(384.2,97.53)" d="M6.94,0A6.94,6.94 0 1,1 0,-6.94A6.94,6.94 0 0,1 6.94,0Z" style="opacity: 0.872047; stroke-width: 0.5px; fill: rgb(255, 157, 166); fill-opacity: 1; stroke: rgb(255, 255, 255); stroke-opacity: 1;"/><path class="point" transform="translate(388.81,118.82)" d="M6.94,0A6.94,6.94 0 1,1 0,-6.94A6.94,6.94 0 0,1 6.94,0Z" style="opacity: 0.872047; stroke-width: 0.5px; fill: rgb(255, 157, 166); fill-opacity: 1; stroke: rgb(255, 255, 255); stroke-opacity: 1;"/><path class="point" transform="translate(393.19,103.03)" d="M6.94,0A6.94,6.94 0 1,1 0,-6.94A6.94,6.94 0 0,1 6.94,0Z" style="opacity: 0.872047; stroke-width: 0.5px; fill: rgb(255, 157, 166); fill-opacity: 1; stroke: rgb(255, 255, 255); stroke-opacity: 1;"/><path class="point" transform="translate(397.8,61.14)" d="M6.94,0A6.94,6.94 0 1,1 0,-6.94A6.94,6.94 0 0,1 6.94,0Z" style="opacity: 0.872047; stroke-width: 0.5px; fill: rgb(255, 157, 166); fill-opacity: 1; stroke: rgb(255, 255, 255); stroke-opacity: 1;"/><path class="point" transform="translate(402.17,94.47)" d="M6.94,0A6.94,6.94 0 1,1 0,-6.94A6.94,6.94 0 0,1 6.94,0Z" style="opacity: 0.872047; stroke-width: 0.5px; fill: rgb(255, 157, 166); fill-opacity: 1; stroke: rgb(255, 255, 255); stroke-opacity: 1;"/><path class="point" transform="translate(406.78,85.1)" d="M6.94,0A6.94,6.94 0 1,1 0,-6.94A6.94,6.94 0 0,1 6.94,0Z" style="opacity: 0.872047; stroke-width: 0.5px; fill: rgb(255, 157, 166); fill-opacity: 1; stroke: rgb(255, 255, 255); stroke-opacity: 1;"/><path class="point" transform="translate(411.16,119.99)" d="M6.94,0A6.94,6.94 0 1,1 0,-6.94A6.94,6.94 0 0,1 6.94,0Z" style="opacity: 0.872047; stroke-width: 0.5px; fill: rgb(255, 157, 166); fill-opacity: 1; stroke: rgb(255, 255, 255); stroke-opacity: 1;"/><path class="point" transform="translate(415.76,70.11)" d="M6.94,0A6.94,6.94 0 1,1 0,-6.94A6.94,6.94 0 0,1 6.94,0Z" style="opacity: 0.872047; stroke-width: 0.5px; fill: rgb(255, 157, 166); fill-opacity: 1; stroke: rgb(255, 255, 255); stroke-opacity: 1;"/><path class="point" transform="translate(420.37,125.9)" d="M6.94,0A6.94,6.94 0 1,1 0,-6.94A6.94,6.94 0 0,1 6.94,0Z" style="opacity: 0.872047; stroke-width: 0.5px; fill: rgb(255, 157, 166); fill-opacity: 1; stroke: rgb(255, 255, 255); stroke-opacity: 1;"/><path class="point" transform="translate(424.75,158.79)" d="M6.94,0A6.94,6.94 0 1,1 0,-6.94A6.94,6.94 0 0,1 6.94,0Z" style="opacity: 0.872047; stroke-width: 0.5px; fill: rgb(255, 157, 166); fill-opacity: 1; stroke: rgb(255, 255, 255); stroke-opacity: 1;"/><path class="point" transform="translate(429.36,35.02)" d="M6.94,0A6.94,6.94 0 1,1 0,-6.94A6.94,6.94 0 0,1 6.94,0Z" style="opacity: 0.872047; stroke-width: 0.5px; fill: rgb(255, 157, 166); fill-opacity: 1; stroke: rgb(255, 255, 255); stroke-opacity: 1;"/><path class="point" transform="translate(433.73,125.62)" d="M6.94,0A6.94,6.94 0 1,1 0,-6.94A6.94,6.94 0 0,1 6.94,0Z" style="opacity: 0.872047; stroke-width: 0.5px; fill: rgb(255, 157, 166); fill-opacity: 1; stroke: rgb(255, 255, 255); stroke-opacity: 1;"/><path class="point" transform="translate(438.34,145.58)" d="M6.94,0A6.94,6.94 0 1,1 0,-6.94A6.94,6.94 0 0,1 6.94,0Z" style="opacity: 0.872047; stroke-width: 0.5px; fill: rgb(255, 157, 166); fill-opacity: 1; stroke: rgb(255, 255, 255); stroke-opacity: 1;"/><path class="point" transform="translate(442.72,83.63)" d="M6.94,0A6.94,6.94 0 1,1 0,-6.94A6.94,6.94 0 0,1 6.94,0Z" style="opacity: 0.872047; stroke-width: 0.5px; fill: rgb(255, 157, 166); fill-opacity: 1; stroke: rgb(255, 255, 255); stroke-opacity: 1;"/><path class="point" transform="translate(447.32,131.63)" d="M6.94,0A6.94,6.94 0 1,1 0,-6.94A6.94,6.94 0 0,1 6.94,0Z" style="opacity: 0.872047; stroke-width: 0.5px; fill: rgb(255, 157, 166); fill-opacity: 1; stroke: rgb(255, 255, 255); stroke-opacity: 1;"/></g><g class="text"/></g></g></g></g><path class="xlines-above crisp" d="M78,401H562M78,99H562" style="fill: none; stroke-width: 2px; stroke: rgb(51, 51, 51); stroke-opacity: 1;"/><path class="ylines-above crisp" d="M79,100V400M561,100V400" style="fill: none; stroke-width: 2px; stroke: rgb(51, 51, 51); stroke-opacity: 1;"/><g class="overlines-above"/><g class="xaxislayer-above"><path class="xtick ticks crisp" d="M0,402v5" transform="translate(181.78,0)" style="stroke: rgb(0, 0, 0); stroke-opacity: 1; stroke-width: 1px;"/><path class="xtick ticks crisp" d="M0,402v5" transform="translate(296.96000000000004,0)" style="stroke: rgb(0, 0, 0); stroke-opacity: 1; stroke-width: 1px;"/><path class="xtick ticks crisp" d="M0,402v5" transform="translate(412.14,0)" style="stroke: rgb(0, 0, 0); stroke-opacity: 1; stroke-width: 1px;"/><path class="xtick ticks crisp" d="M0,402v5" transform="translate(527.3199999999999,0)" style="stroke: rgb(0, 0, 0); stroke-opacity: 1; stroke-width: 1px;"/><g class="xtick"><text text-anchor="middle" x="0" y="421.4" transform="translate(181.78,0)" style="font-family: 'Times New Roman'; font-size: 12px; fill: rgb(0, 0, 0); fill-opacity: 1; white-space: pre; opacity: 1;">5</text></g><g class="xtick"><text text-anchor="middle" x="0" y="421.4" style="font-family: 'Times New Roman'; font-size: 12px; fill: rgb(0, 0, 0); fill-opacity: 1; white-space: pre; opacity: 1;" transform="translate(296.96000000000004,0)">10</text></g><g class="xtick"><text text-anchor="middle" x="0" y="421.4" style="font-family: 'Times New Roman'; font-size: 12px; fill: rgb(0, 0, 0); fill-opacity: 1; white-space: pre; opacity: 1;" transform="translate(412.14,0)">15</text></g><g class="xtick"><text text-anchor="middle" x="0" y="421.4" style="font-family: 'Times New Roman'; font-size: 12px; fill: rgb(0, 0, 0); fill-opacity: 1; white-space: pre; opacity: 1;" transform="translate(527.3199999999999,0)">20</text></g></g><g class="yaxislayer-above"><path class="ytick ticks crisp" d="M78,0h-5" transform="translate(0,376.32)" style="stroke: rgb(0, 0, 0); stroke-opacity: 1; stroke-width: 1px;"/><path class="ytick ticks crisp" d="M78,0h-5" transform="translate(0,325.78999999999996)" style="stroke: rgb(0, 0, 0); stroke-opacity: 1; stroke-width: 1px;"/><path class="ytick ticks crisp" d="M78,0h-5" transform="translate(0,275.26)" style="stroke: rgb(0, 0, 0); stroke-opacity: 1; stroke-width: 1px;"/><path class="ytick ticks crisp" d="M78,0h-5" transform="translate(0,224.74)" style="stroke: rgb(0, 0, 0); stroke-opacity: 1; stroke-width: 1px;"/><path class="ytick ticks crisp" d="M78,0h-5" transform="translate(0,174.20999999999998)" style="stroke: rgb(0, 0, 0); stroke-opacity: 1; stroke-width: 1px;"/><path class="ytick ticks crisp" d="M78,0h-5" transform="translate(0,123.68)" style="stroke: rgb(0, 0, 0); stroke-opacity: 1; stroke-width: 1px;"/><g class="ytick"><text text-anchor="end" x="70.6" y="4.199999999999999" transform="translate(0,376.32)" style="font-family: 'Times New Roman'; font-size: 12px; fill: rgb(0, 0, 0); fill-opacity: 1; white-space: pre; opacity: 1;">0</text></g><g class="ytick"><text text-anchor="end" x="70.6" y="4.199999999999999" style="font-family: 'Times New Roman'; font-size: 12px; fill: rgb(0, 0, 0); fill-opacity: 1; white-space: pre; opacity: 1;" transform="translate(0,325.78999999999996)">20</text></g><g class="ytick"><text text-anchor="end" x="70.6" y="4.199999999999999" style="font-family: 'Times New Roman'; font-size: 12px; fill: rgb(0, 0, 0); fill-opacity: 1; white-space: pre; opacity: 1;" transform="translate(0,275.26)">40</text></g><g class="ytick"><text text-anchor="end" x="70.6" y="4.199999999999999" style="font-family: 'Times New Roman'; font-size: 12px; fill: rgb(0, 0, 0); fill-opacity: 1; white-space: pre; opacity: 1;" transform="translate(0,224.74)">60</text></g><g class="ytick"><text text-anchor="end" x="70.6" y="4.199999999999999" style="font-family: 'Times New Roman'; font-size: 12px; fill: rgb(0, 0, 0); fill-opacity: 1; white-space: pre; opacity: 1;" transform="translate(0,174.20999999999998)">80</text></g><g class="ytick"><text text-anchor="end" x="70.6" y="4.199999999999999" style="font-family: 'Times New Roman'; font-size: 12px; fill: rgb(0, 0, 0); fill-opacity: 1; white-space: pre; opacity: 1;" transform="translate(0,123.68)">100</text></g></g><g class="overaxes-above"/></g></g><g class="polarlayer"/><g class="smithlayer"/><g class="ternarylayer"/><g class="geolayer"/><g class="funnelarealayer"/><g class="pielayer"/><g class="iciclelayer"/><g class="treemaplayer"/><g class="sunburstlayer"/><g class="glimages"/><defs id="topdefs-5d4d69"><g class="clips"/></defs><g class="layer-above"><g class="imagelayer"/><g class="shapelayer"/></g><g class="infolayer"><g class="g-gtitle"><text class="gtitle" x="320" y="50" text-anchor="middle" dy="0.7em" style="opacity: 1; font-family: 'Times New Roman'; font-size: 16px; fill: rgb(0, 0, 0); fill-opacity: 1; white-space: pre;">the Comparison of Finance and Economics</text></g><g class="g-xtitle"><text class="xtitle" x="320" y="448.20625" text-anchor="middle" style="opacity: 1; font-family: 'Times New Roman'; font-size: 14px; fill: rgb(0, 0, 0); fill-opacity: 1; white-space: pre;">Unemployment rate (%)</text></g><g class="g-ytitle"><text class="ytitle" transform="rotate(-90,33.69375,250)" x="33.69375" y="250" text-anchor="middle" style="opacity: 1; font-family: 'Times New Roman'; font-size: 14px; fill: rgb(0, 0, 0); fill-opacity: 1; white-space: pre;">Business confidence (index)</text></g></g></svg>