<svg class="main-svg" xmlns="http://www.w3.org/2000/svg" xmlns:xlink="http://www.w3.org/1999/xlink" width="640" height="480" style="" viewBox="0 0 640 480"><rect x="0" y="0" width="640" height="480" style="fill: rgb(255, 255, 255); fill-opacity: 1;"/><defs id="defs-bec22c"><g class="clips"><clipPath id="clipbec22cxyplot" class="plotclip"><rect width="480" height="300"/></clipPath><clipPath class="axesclip" id="clipbec22cx"><rect x="80" y="0" width="480" height="480"/></clipPath><clipPath class="axesclip" id="clipbec22cy"><rect x="0" y="100" width="640" height="300"/></clipPath><clipPath class="axesclip" id="clipbec22cxy"><rect x="80" y="100" width="480" height="300"/></clipPath></g><g class="gradients"/><g class="patterns"/></defs><g class="bglayer"/><g class="layer-below"><g class="imagelayer"/><g class="shapelayer"/></g><g class="cartesianlayer"><g class="subplot xy"><g class="layer-subplot"><g class="shapelayer"/><g class="imagelayer"/></g><g class="minor-gridlayer"><g class="x"/><g class="y"/></g><g class="gridlayer"><g class="x"><path class="xgrid crisp" transform="translate(190.06,0)" d="M0,100v300" style="stroke: rgb(255, 255, 255); stroke-opacity: 1; stroke-width: 1px;"/><path class="xgrid crisp" transform="translate(275.27,0)" d="M0,100v300" style="stroke: rgb(255, 255, 255); stroke-opacity: 1; stroke-width: 1px;"/><path class="xgrid crisp" transform="translate(360.47,0)" d="M0,100v300" style="stroke: rgb(255, 255, 255); stroke-opacity: 1; stroke-width: 1px;"/><path class="xgrid crisp" transform="translate(445.68,0)" d="M0,100v300" style="stroke: rgb(255, 255, 255); stroke-opacity: 1; stroke-width: 1px;"/><path class="xgrid crisp" transform="translate(530.89,0)" d="M0,100v300" style="stroke: rgb(255, 255, 255); stroke-opacity: 1; stroke-width: 1px;"/></g><g class="y"><path class="ygrid crisp" transform="translate(0,314.94)" d="M80,0h480" style="stroke: rgb(255, 255, 255); stroke-opacity: 1; stroke-width: 1px;"/><path class="ygrid crisp" transform="translate(0,250)" d="M80,0h480" style="stroke: rgb(255, 255, 255); stroke-opacity: 1; stroke-width: 1px;"/><path class="ygrid crisp" transform="translate(0,185.06)" d="M80,0h480" style="stroke: rgb(255, 255, 255); stroke-opacity: 1; stroke-width: 1px;"/><path class="ygrid crisp" transform="translate(0,120.11)" d="M80,0h480" style="stroke: rgb(255, 255, 255); stroke-opacity: 1; stroke-width: 1px;"/></g></g><g class="zerolinelayer"><path class="xzl zl crisp" transform="translate(104.85,0)" d="M0,100v300" style="stroke: rgb(255, 255, 255); stroke-opacity: 1; stroke-width: 2px;"/><path class="yzl zl crisp" transform="translate(0,379.89)" d="M80,0h480" style="stroke: rgb(255, 255, 255); stroke-opacity: 1; stroke-width: 2px;"/></g><g class="layer-between"><g class="shapelayer"/><g class="imagelayer"/></g><path class="xlines-below"/><path class="ylines-below"/><g class="overlines-below"/><g class="xaxislayer-below"/><g class="yaxislayer-below"/><g class="overaxes-below"/><g class="overplot"><g class="xy" transform="translate(80,100)" clip-path="url(#clipbec22cxyplot)"><g class="scatterlayer mlayer"><g class="trace scatter trace0d8934" style="stroke-miterlimit: 2; opacity: 1;"><g class="fills"/><g class="errorbars"/><g class="lines"/><g class="points"><path class="point" transform="translate(29.11,247.03)" d="M4.09,0A4.09,4.09 0 1,1 0,-4.09A4.09,4.09 0 0,1 4.09,0Z" style="opacity: 0.832765; stroke-width: 0.5px; fill: rgb(178, 121, 162); fill-opacity: 1; stroke: rgb(255, 255, 255); stroke-opacity: 1;"/><path class="point" transform="translate(34.44,244.56)" d="M4.09,0A4.09,4.09 0 1,1 0,-4.09A4.09,4.09 0 0,1 4.09,0Z" style="opacity: 0.832765; stroke-width: 0.5px; fill: rgb(178, 121, 162); fill-opacity: 1; stroke: rgb(255, 255, 255); stroke-opacity: 1;"/><path class="point" transform="translate(39.81,197.02)" d="M4.09,0A4.09,4.09 0 1,1 0,-4.09A4.09,4.09 0 0,1 4.09,0Z" style="opacity: 0.832765; stroke-width: 0.5px; fill: rgb(178, 121, 162); fill-opacity: 1; stroke: rgb(255, 255, 255); stroke-opacity: 1;"/><path class="point" transform="translate(45.13,168.31)" d="M4.09,0A4.09,4.09 0 1,1 0,-4.09A4.09,4.09 0 0,1 4.09,0Z" style="opacity: 0.832765; stroke-width: 0.5px; fill: rgb(178, 121, 162); fill-opacity: 1; stroke: rgb(255, 255, 255); stroke-opacity: 1;"/><path class="point" transform="translate(50.46,213.77)" d="M4.09,0A4.09,4.09 0 1,1 0,-4.09A4.09,4.09 0 0,1 4.09,0Z" style="opacity: 0.832765; stroke-width: 0.5px; fill: rgb(178, 121, 162); fill-opacity: 1; stroke: rgb(255, 255, 255); stroke-opacity: 1;"/><path class="point" transform="translate(55.83,186.76)" d="M4.09,0A4.09,4.09 0 1,1 0,-4.09A4.09,4.09 0 0,1 4.09,0Z" style="opacity: 0.832765; stroke-width: 0.5px; fill: rgb(178, 121, 162); fill-opacity: 1; stroke: rgb(255, 255, 255); stroke-opacity: 1;"/><path class="point" transform="translate(61.15,194.42)" d="M4.09,0A4.09,4.09 0 1,1 0,-4.09A4.09,4.09 0 0,1 4.09,0Z" style="opacity: 0.832765; stroke-width: 0.5px; fill: rgb(178, 121, 162); fill-opacity: 1; stroke: rgb(255, 255, 255); stroke-opacity: 1;"/><path class="point" transform="translate(66.48,172.21)" d="M4.09,0A4.09,4.09 0 1,1 0,-4.09A4.09,4.09 0 0,1 4.09,0Z" style="opacity: 0.832765; stroke-width: 0.5px; fill: rgb(178, 121, 162); fill-opacity: 1; stroke: rgb(255, 255, 255); stroke-opacity: 1;"/><path class="point" transform="translate(71.84,177.8)" d="M4.09,0A4.09,4.09 0 1,1 0,-4.09A4.09,4.09 0 0,1 4.09,0Z" style="opacity: 0.832765; stroke-width: 0.5px; fill: rgb(178, 121, 162); fill-opacity: 1; stroke: rgb(255, 255, 255); stroke-opacity: 1;"/><path class="point" transform="translate(77.17,176.89)" d="M4.09,0A4.09,4.09 0 1,1 0,-4.09A4.09,4.09 0 0,1 4.09,0Z" style="opacity: 0.832765; stroke-width: 0.5px; fill: rgb(178, 121, 162); fill-opacity: 1; stroke: rgb(255, 255, 255); stroke-opacity: 1;"/><path class="point" transform="translate(82.5,175.72)" d="M4.09,0A4.09,4.09 0 1,1 0,-4.09A4.09,4.09 0 0,1 4.09,0Z" style="opacity: 0.832765; stroke-width: 0.5px; fill: rgb(178, 121, 162); fill-opacity: 1; stroke: rgb(255, 255, 255); stroke-opacity: 1;"/><path class="point" transform="translate(87.82,168.57)" d="M4.09,0A4.09,4.09 0 1,1 0,-4.09A4.09,4.09 0 0,1 4.09,0Z" style="opacity: 0.832765; stroke-width: 0.5px; fill: rgb(178, 121, 162); fill-opacity: 1; stroke: rgb(255, 255, 255); stroke-opacity: 1;"/><path class="point" transform="translate(93.19,122.2)" d="M4.09,0A4.09,4.09 0 1,1 0,-4.09A4.09,4.09 0 0,1 4.09,0Z" style="opacity: 0.832765; stroke-width: 0.5px; fill: rgb(178, 121, 162); fill-opacity: 1; stroke: rgb(255, 255, 255); stroke-opacity: 1;"/><path class="point" transform="translate(98.51,89.99)" d="M4.09,0A4.09,4.09 0 1,1 0,-4.09A4.09,4.09 0 0,1 4.09,0Z" style="opacity: 0.832765; stroke-width: 0.5px; fill: rgb(178, 121, 162); fill-opacity: 1; stroke: rgb(255, 255, 255); stroke-opacity: 1;"/><path class="point" transform="translate(103.84,137.92)" d="M4.09,0A4.09,4.09 0 1,1 0,-4.09A4.09,4.09 0 0,1 4.09,0Z" style="opacity: 0.832765; stroke-width: 0.5px; fill: rgb(178, 121, 162); fill-opacity: 1; stroke: rgb(255, 255, 255); stroke-opacity: 1;"/><path class="point" transform="translate(109.21,165.98)" d="M4.09,0A4.09,4.09 0 1,1 0,-4.09A4.09,4.09 0 0,1 4.09,0Z" style="opacity: 0.832765; stroke-width: 0.5px; fill: rgb(178, 121, 162); fill-opacity: 1; stroke: rgb(255, 255, 255); stroke-opacity: 1;"/><path class="point" transform="translate(114.53,121.42)" d="M4.09,0A4.09,4.09 0 1,1 0,-4.09A4.09,4.09 0 0,1 4.09,0Z" style="opacity: 0.832765; stroke-width: 0.5px; fill: rgb(178, 121, 162); fill-opacity: 1; stroke: rgb(255, 255, 255); stroke-opacity: 1;"/><path class="point" transform="translate(119.86,101.81)" d="M4.09,0A4.09,4.09 0 1,1 0,-4.09A4.09,4.09 0 0,1 4.09,0Z" style="opacity: 0.832765; stroke-width: 0.5px; fill: rgb(178, 121, 162); fill-opacity: 1; stroke: rgb(255, 255, 255); stroke-opacity: 1;"/><path class="point" transform="translate(125.23,105.19)" d="M4.09,0A4.09,4.09 0 1,1 0,-4.09A4.09,4.09 0 0,1 4.09,0Z" style="opacity: 0.832765; stroke-width: 0.5px; fill: rgb(178, 121, 162); fill-opacity: 1; stroke: rgb(255, 255, 255); stroke-opacity: 1;"/><path class="point" transform="translate(130.55,135.71)" d="M4.09,0A4.09,4.09 0 1,1 0,-4.09A4.09,4.09 0 0,1 4.09,0Z" style="opacity: 0.832765; stroke-width: 0.5px; fill: rgb(178, 121, 162); fill-opacity: 1; stroke: rgb(255, 255, 255); stroke-opacity: 1;"/><path class="point" transform="translate(135.88,114.93)" d="M4.09,0A4.09,4.09 0 1,1 0,-4.09A4.09,4.09 0 0,1 4.09,0Z" style="opacity: 0.832765; stroke-width: 0.5px; fill: rgb(178, 121, 162); fill-opacity: 1; stroke: rgb(255, 255, 255); stroke-opacity: 1;"/><path class="point" transform="translate(141.25,72.07)" d="M4.09,0A4.09,4.09 0 1,1 0,-4.09A4.09,4.09 0 0,1 4.09,0Z" style="opacity: 0.832765; stroke-width: 0.5px; fill: rgb(178, 121, 162); fill-opacity: 1; stroke: rgb(255, 255, 255); stroke-opacity: 1;"/><path class="point" transform="translate(146.57,93.24)" d="M4.09,0A4.09,4.09 0 1,1 0,-4.09A4.09,4.09 0 0,1 4.09,0Z" style="opacity: 0.832765; stroke-width: 0.5px; fill: rgb(178, 121, 162); fill-opacity: 1; stroke: rgb(255, 255, 255); stroke-opacity: 1;"/><path class="point" transform="translate(151.9,122.33)" d="M4.09,0A4.09,4.09 0 1,1 0,-4.09A4.09,4.09 0 0,1 4.09,0Z" style="opacity: 0.832765; stroke-width: 0.5px; fill: rgb(178, 121, 162); fill-opacity: 1; stroke: rgb(255, 255, 255); stroke-opacity: 1;"/><path class="point" transform="translate(157.26,43.62)" d="M4.09,0A4.09,4.09 0 1,1 0,-4.09A4.09,4.09 0 0,1 4.09,0Z" style="opacity: 0.832765; stroke-width: 0.5px; fill: rgb(178, 121, 162); fill-opacity: 1; stroke: rgb(255, 255, 255); stroke-opacity: 1;"/><path class="point" transform="translate(162.59,68.95)" d="M4.09,0A4.09,4.09 0 1,1 0,-4.09A4.09,4.09 0 0,1 4.09,0Z" style="opacity: 0.832765; stroke-width: 0.5px; fill: rgb(178, 121, 162); fill-opacity: 1; stroke: rgb(255, 255, 255); stroke-opacity: 1;"/><path class="point" transform="translate(167.92,82.07)" d="M4.09,0A4.09,4.09 0 1,1 0,-4.09A4.09,4.09 0 0,1 4.09,0Z" style="opacity: 0.832765; stroke-width: 0.5px; fill: rgb(178, 121, 162); fill-opacity: 1; stroke: rgb(255, 255, 255); stroke-opacity: 1;"/><path class="point" transform="translate(173.28,61.81)" d="M4.09,0A4.09,4.09 0 1,1 0,-4.09A4.09,4.09 0 0,1 4.09,0Z" style="opacity: 0.832765; stroke-width: 0.5px; fill: rgb(178, 121, 162); fill-opacity: 1; stroke: rgb(255, 255, 255); stroke-opacity: 1;"/><path class="point" transform="translate(178.61,87.39)" d="M4.09,0A4.09,4.09 0 1,1 0,-4.09A4.09,4.09 0 0,1 4.09,0Z" style="opacity: 0.832765; stroke-width: 0.5px; fill: rgb(178, 121, 162); fill-opacity: 1; stroke: rgb(255, 255, 255); stroke-opacity: 1;"/><path class="point" transform="translate(183.93,79.08)" d="M4.09,0A4.09,4.09 0 1,1 0,-4.09A4.09,4.09 0 0,1 4.09,0Z" style="opacity: 0.832765; stroke-width: 0.5px; fill: rgb(178, 121, 162); fill-opacity: 1; stroke: rgb(255, 255, 255); stroke-opacity: 1;"/><path class="point" transform="translate(189.26,67.52)" d="M4.09,0A4.09,4.09 0 1,1 0,-4.09A4.09,4.09 0 0,1 4.09,0Z" style="opacity: 0.832765; stroke-width: 0.5px; fill: rgb(178, 121, 162); fill-opacity: 1; stroke: rgb(255, 255, 255); stroke-opacity: 1;"/><path class="point" transform="translate(194.63,58.3)" d="M4.09,0A4.09,4.09 0 1,1 0,-4.09A4.09,4.09 0 0,1 4.09,0Z" style="opacity: 0.832765; stroke-width: 0.5px; fill: rgb(178, 121, 162); fill-opacity: 1; stroke: rgb(255, 255, 255); stroke-opacity: 1;"/><path class="point" transform="translate(199.95,77)" d="M4.09,0A4.09,4.09 0 1,1 0,-4.09A4.09,4.09 0 0,1 4.09,0Z" style="opacity: 0.832765; stroke-width: 0.5px; fill: rgb(178, 121, 162); fill-opacity: 1; stroke: rgb(255, 255, 255); stroke-opacity: 1;"/><path class="point" transform="translate(205.28,83.24)" d="M4.09,0A4.09,4.09 0 1,1 0,-4.09A4.09,4.09 0 0,1 4.09,0Z" style="opacity: 0.832765; stroke-width: 0.5px; fill: rgb(178, 121, 162); fill-opacity: 1; stroke: rgb(255, 255, 255); stroke-opacity: 1;"/><path class="point" transform="translate(210.65,51.94)" d="M4.09,0A4.09,4.09 0 1,1 0,-4.09A4.09,4.09 0 0,1 4.09,0Z" style="opacity: 0.832765; stroke-width: 0.5px; fill: rgb(178, 121, 162); fill-opacity: 1; stroke: rgb(255, 255, 255); stroke-opacity: 1;"/><path class="point" transform="translate(215.97,43.1)" d="M4.09,0A4.09,4.09 0 1,1 0,-4.09A4.09,4.09 0 0,1 4.09,0Z" style="opacity: 0.832765; stroke-width: 0.5px; fill: rgb(178, 121, 162); fill-opacity: 1; stroke: rgb(255, 255, 255); stroke-opacity: 1;"/><path class="point" transform="translate(221.3,80.9)" d="M4.09,0A4.09,4.09 0 1,1 0,-4.09A4.09,4.09 0 0,1 4.09,0Z" style="opacity: 0.832765; stroke-width: 0.5px; fill: rgb(178, 121, 162); fill-opacity: 1; stroke: rgb(255, 255, 255); stroke-opacity: 1;"/><path class="point" transform="translate(226.67,37.39)" d="M4.09,0A4.09,4.09 0 1,1 0,-4.09A4.09,4.09 0 0,1 4.09,0Z" style="opacity: 0.832765; stroke-width: 0.5px; fill: rgb(178, 121, 162); fill-opacity: 1; stroke: rgb(255, 255, 255); stroke-opacity: 1;"/><path class="point" transform="translate(231.99,59.73)" d="M4.09,0A4.09,4.09 0 1,1 0,-4.09A4.09,4.09 0 0,1 4.09,0Z" style="opacity: 0.832765; stroke-width: 0.5px; fill: rgb(178, 121, 162); fill-opacity: 1; stroke: rgb(255, 255, 255); stroke-opacity: 1;"/><path class="point" transform="translate(237.32,70.77)" d="M4.09,0A4.09,4.09 0 1,1 0,-4.09A4.09,4.09 0 0,1 4.09,0Z" style="opacity: 0.832765; stroke-width: 0.5px; fill: rgb(178, 121, 162); fill-opacity: 1; stroke: rgb(255, 255, 255); stroke-opacity: 1;"/><path class="point" transform="translate(242.68,28.56)" d="M4.09,0A4.09,4.09 0 1,1 0,-4.09A4.09,4.09 0 0,1 4.09,0Z" style="opacity: 0.832765; stroke-width: 0.5px; fill: rgb(178, 121, 162); fill-opacity: 1; stroke: rgb(255, 255, 255); stroke-opacity: 1;"/><path class="point" transform="translate(248.01,36.61)" d="M4.09,0A4.09,4.09 0 1,1 0,-4.09A4.09,4.09 0 0,1 4.09,0Z" style="opacity: 0.832765; stroke-width: 0.5px; fill: rgb(178, 121, 162); fill-opacity: 1; stroke: rgb(255, 255, 255); stroke-opacity: 1;"/><path class="point" transform="translate(253.33,20.11)" d="M4.09,0A4.09,4.09 0 1,1 0,-4.09A4.09,4.09 0 0,1 4.09,0Z" style="opacity: 0.832765; stroke-width: 0.5px; fill: rgb(178, 121, 162); fill-opacity: 1; stroke: rgb(255, 255, 255); stroke-opacity: 1;"/><path class="point" transform="translate(258.7,61.42)" d="M4.09,0A4.09,4.09 0 1,1 0,-4.09A4.09,4.09 0 0,1 4.09,0Z" style="opacity: 0.832765; stroke-width: 0.5px; fill: rgb(178, 121, 162); fill-opacity: 1; stroke: rgb(255, 255, 255); stroke-opacity: 1;"/><path class="point" transform="translate(264.03,58.69)" d="M4.09,0A4.09,4.09 0 1,1 0,-4.09A4.09,4.09 0 0,1 4.09,0Z" style="opacity: 0.832765; stroke-width: 0.5px; fill: rgb(178, 121, 162); fill-opacity: 1; stroke: rgb(255, 255, 255); stroke-opacity: 1;"/><path class="point" transform="translate(269.35,49.21)" d="M4.09,0A4.09,4.09 0 1,1 0,-4.09A4.09,4.09 0 0,1 4.09,0Z" style="opacity: 0.832765; stroke-width: 0.5px; fill: rgb(178, 121, 162); fill-opacity: 1; stroke: rgb(255, 255, 255); stroke-opacity: 1;"/><path class="point" transform="translate(274.72,40.77)" d="M4.09,0A4.09,4.09 0 1,1 0,-4.09A4.09,4.09 0 0,1 4.09,0Z" style="opacity: 0.832765; stroke-width: 0.5px; fill: rgb(178, 121, 162); fill-opacity: 1; stroke: rgb(255, 255, 255); stroke-opacity: 1;"/><path class="point" transform="translate(280.05,68.95)" d="M4.09,0A4.09,4.09 0 1,1 0,-4.09A4.09,4.09 0 0,1 4.09,0Z" style="opacity: 0.832765; stroke-width: 0.5px; fill: rgb(178, 121, 162); fill-opacity: 1; stroke: rgb(255, 255, 255); stroke-opacity: 1;"/><path class="point" transform="translate(285.37,55.31)" d="M4.09,0A4.09,4.09 0 1,1 0,-4.09A4.09,4.09 0 0,1 4.09,0Z" style="opacity: 0.832765; stroke-width: 0.5px; fill: rgb(178, 121, 162); fill-opacity: 1; stroke: rgb(255, 255, 255); stroke-opacity: 1;"/><path class="point" transform="translate(290.74,53.75)" d="M4.09,0A4.09,4.09 0 1,1 0,-4.09A4.09,4.09 0 0,1 4.09,0Z" style="opacity: 0.832765; stroke-width: 0.5px; fill: rgb(178, 121, 162); fill-opacity: 1; stroke: rgb(255, 255, 255); stroke-opacity: 1;"/><path class="point" transform="translate(296.07,72.07)" d="M4.09,0A4.09,4.09 0 1,1 0,-4.09A4.09,4.09 0 0,1 4.09,0Z" style="opacity: 0.832765; stroke-width: 0.5px; fill: rgb(178, 121, 162); fill-opacity: 1; stroke: rgb(255, 255, 255); stroke-opacity: 1;"/><path class="point" transform="translate(301.39,64.01)" d="M4.09,0A4.09,4.09 0 1,1 0,-4.09A4.09,4.09 0 0,1 4.09,0Z" style="opacity: 0.832765; stroke-width: 0.5px; fill: rgb(178, 121, 162); fill-opacity: 1; stroke: rgb(255, 255, 255); stroke-opacity: 1;"/><path class="point" transform="translate(306.72,61.55)" d="M4.09,0A4.09,4.09 0 1,1 0,-4.09A4.09,4.09 0 0,1 4.09,0Z" style="opacity: 0.832765; stroke-width: 0.5px; fill: rgb(178, 121, 162); fill-opacity: 1; stroke: rgb(255, 255, 255); stroke-opacity: 1;"/><path class="point" transform="translate(312.08,66.74)" d="M4.09,0A4.09,4.09 0 1,1 0,-4.09A4.09,4.09 0 0,1 4.09,0Z" style="opacity: 0.832765; stroke-width: 0.5px; fill: rgb(178, 121, 162); fill-opacity: 1; stroke: rgb(255, 255, 255); stroke-opacity: 1;"/><path class="point" transform="translate(317.41,62.2)" d="M4.09,0A4.09,4.09 0 1,1 0,-4.09A4.09,4.09 0 0,1 4.09,0Z" style="opacity: 0.832765; stroke-width: 0.5px; fill: rgb(178, 121, 162); fill-opacity: 1; stroke: rgb(255, 255, 255); stroke-opacity: 1;"/><path class="point" transform="translate(322.74,107.92)" d="M4.09,0A4.09,4.09 0 1,1 0,-4.09A4.09,4.09 0 0,1 4.09,0Z" style="opacity: 0.832765; stroke-width: 0.5px; fill: rgb(178, 121, 162); fill-opacity: 1; stroke: rgb(255, 255, 255); stroke-opacity: 1;"/><path class="point" transform="translate(328.1,75.83)" d="M4.09,0A4.09,4.09 0 1,1 0,-4.09A4.09,4.09 0 0,1 4.09,0Z" style="opacity: 0.832765; stroke-width: 0.5px; fill: rgb(178, 121, 162); fill-opacity: 1; stroke: rgb(255, 255, 255); stroke-opacity: 1;"/><path class="point" transform="translate(333.43,101.68)" d="M4.09,0A4.09,4.09 0 1,1 0,-4.09A4.09,4.09 0 0,1 4.09,0Z" style="opacity: 0.832765; stroke-width: 0.5px; fill: rgb(178, 121, 162); fill-opacity: 1; stroke: rgb(255, 255, 255); stroke-opacity: 1;"/><path class="point" transform="translate(338.75,72.98)" d="M4.09,0A4.09,4.09 0 1,1 0,-4.09A4.09,4.09 0 0,1 4.09,0Z" style="opacity: 0.832765; stroke-width: 0.5px; fill: rgb(178, 121, 162); fill-opacity: 1; stroke: rgb(255, 255, 255); stroke-opacity: 1;"/><path class="point" transform="translate(344.12,98.31)" d="M4.09,0A4.09,4.09 0 1,1 0,-4.09A4.09,4.09 0 0,1 4.09,0Z" style="opacity: 0.832765; stroke-width: 0.5px; fill: rgb(178, 121, 162); fill-opacity: 1; stroke: rgb(255, 255, 255); stroke-opacity: 1;"/><path class="point" transform="translate(349.45,135.71)" d="M4.09,0A4.09,4.09 0 1,1 0,-4.09A4.09,4.09 0 0,1 4.09,0Z" style="opacity: 0.832765; stroke-width: 0.5px; fill: rgb(178, 121, 162); fill-opacity: 1; stroke: rgb(255, 255, 255); stroke-opacity: 1;"/><path class="point" transform="translate(354.77,125.84)" d="M4.09,0A4.09,4.09 0 1,1 0,-4.09A4.09,4.09 0 0,1 4.09,0Z" style="opacity: 0.832765; stroke-width: 0.5px; fill: rgb(178, 121, 162); fill-opacity: 1; stroke: rgb(255, 255, 255); stroke-opacity: 1;"/><path class="point" transform="translate(360.14,132.85)" d="M4.09,0A4.09,4.09 0 1,1 0,-4.09A4.09,4.09 0 0,1 4.09,0Z" style="opacity: 0.832765; stroke-width: 0.5px; fill: rgb(178, 121, 162); fill-opacity: 1; stroke: rgb(255, 255, 255); stroke-opacity: 1;"/><path class="point" transform="translate(365.47,113.37)" d="M4.09,0A4.09,4.09 0 1,1 0,-4.09A4.09,4.09 0 0,1 4.09,0Z" style="opacity: 0.832765; stroke-width: 0.5px; fill: rgb(178, 121, 162); fill-opacity: 1; stroke: rgb(255, 255, 255); stroke-opacity: 1;"/><path class="point" transform="translate(370.79,132.73)" d="M4.09,0A4.09,4.09 0 1,1 0,-4.09A4.09,4.09 0 0,1 4.09,0Z" style="opacity: 0.832765; stroke-width: 0.5px; fill: rgb(178, 121, 162); fill-opacity: 1; stroke: rgb(255, 255, 255); stroke-opacity: 1;"/><path class="point" transform="translate(376.16,98.31)" d="M4.09,0A4.09,4.09 0 1,1 0,-4.09A4.09,4.09 0 0,1 4.09,0Z" style="opacity: 0.832765; stroke-width: 0.5px; fill: rgb(178, 121, 162); fill-opacity: 1; stroke: rgb(255, 255, 255); stroke-opacity: 1;"/><path class="point" transform="translate(381.49,107.79)" d="M4.09,0A4.09,4.09 0 1,1 0,-4.09A4.09,4.09 0 0,1 4.09,0Z" style="opacity: 0.832765; stroke-width: 0.5px; fill: rgb(178, 121, 162); fill-opacity: 1; stroke: rgb(255, 255, 255); stroke-opacity: 1;"/><path class="point" transform="translate(386.81,145.97)" d="M4.09,0A4.09,4.09 0 1,1 0,-4.09A4.09,4.09 0 0,1 4.09,0Z" style="opacity: 0.832765; stroke-width: 0.5px; fill: rgb(178, 121, 162); fill-opacity: 1; stroke: rgb(255, 255, 255); stroke-opacity: 1;"/><path class="point" transform="translate(392.18,159.74)" d="M4.09,0A4.09,4.09 0 1,1 0,-4.09A4.09,4.09 0 0,1 4.09,0Z" style="opacity: 0.832765; stroke-width: 0.5px; fill: rgb(178, 121, 162); fill-opacity: 1; stroke: rgb(255, 255, 255); stroke-opacity: 1;"/><path class="point" transform="translate(397.5,176.5)" d="M4.09,0A4.09,4.09 0 1,1 0,-4.09A4.09,4.09 0 0,1 4.09,0Z" style="opacity: 0.832765; stroke-width: 0.5px; fill: rgb(178, 121, 162); fill-opacity: 1; stroke: rgb(255, 255, 255); stroke-opacity: 1;"/><path class="point" transform="translate(402.83,160.26)" d="M4.09,0A4.09,4.09 0 1,1 0,-4.09A4.09,4.09 0 0,1 4.09,0Z" style="opacity: 0.832765; stroke-width: 0.5px; fill: rgb(178, 121, 162); fill-opacity: 1; stroke: rgb(255, 255, 255); stroke-opacity: 1;"/><path class="point" transform="translate(408.16,194.29)" d="M4.09,0A4.09,4.09 0 1,1 0,-4.09A4.09,4.09 0 0,1 4.09,0Z" style="opacity: 0.832765; stroke-width: 0.5px; fill: rgb(178, 121, 162); fill-opacity: 1; stroke: rgb(255, 255, 255); stroke-opacity: 1;"/><path class="point" transform="translate(413.52,181.56)" d="M4.09,0A4.09,4.09 0 1,1 0,-4.09A4.09,4.09 0 0,1 4.09,0Z" style="opacity: 0.832765; stroke-width: 0.5px; fill: rgb(178, 121, 162); fill-opacity: 1; stroke: rgb(255, 255, 255); stroke-opacity: 1;"/><path class="point" transform="translate(418.85,174.68)" d="M4.09,0A4.09,4.09 0 1,1 0,-4.09A4.09,4.09 0 0,1 4.09,0Z" style="opacity: 0.832765; stroke-width: 0.5px; fill: rgb(178, 121, 162); fill-opacity: 1; stroke: rgb(255, 255, 255); stroke-opacity: 1;"/><path class="point" transform="translate(424.17,213.77)" d="M4.09,0A4.09,4.09 0 1,1 0,-4.09A4.09,4.09 0 0,1 4.09,0Z" style="opacity: 0.832765; stroke-width: 0.5px; fill: rgb(178, 121, 162); fill-opacity: 1; stroke: rgb(255, 255, 255); stroke-opacity: 1;"/><path class="point" transform="translate(429.54,196.24)" d="M4.09,0A4.09,4.09 0 1,1 0,-4.09A4.09,4.09 0 0,1 4.09,0Z" style="opacity: 0.832765; stroke-width: 0.5px; fill: rgb(178, 121, 162); fill-opacity: 1; stroke: rgb(255, 255, 255); stroke-opacity: 1;"/><path class="point" transform="translate(434.87,209.62)" d="M4.09,0A4.09,4.09 0 1,1 0,-4.09A4.09,4.09 0 0,1 4.09,0Z" style="opacity: 0.832765; stroke-width: 0.5px; fill: rgb(178, 121, 162); fill-opacity: 1; stroke: rgb(255, 255, 255); stroke-opacity: 1;"/><path class="point" transform="translate(440.19,203.64)" d="M4.09,0A4.09,4.09 0 1,1 0,-4.09A4.09,4.09 0 0,1 4.09,0Z" style="opacity: 0.832765; stroke-width: 0.5px; fill: rgb(178, 121, 162); fill-opacity: 1; stroke: rgb(255, 255, 255); stroke-opacity: 1;"/><path class="point" transform="translate(445.56,239.1)" d="M4.09,0A4.09,4.09 0 1,1 0,-4.09A4.09,4.09 0 0,1 4.09,0Z" style="opacity: 0.832765; stroke-width: 0.5px; fill: rgb(178, 121, 162); fill-opacity: 1; stroke: rgb(255, 255, 255); stroke-opacity: 1;"/><path class="point" transform="translate(450.89,279.89)" d="M4.09,0A4.09,4.09 0 1,1 0,-4.09A4.09,4.09 0 0,1 4.09,0Z" style="opacity: 0.832765; stroke-width: 0.5px; fill: rgb(178, 121, 162); fill-opacity: 1; stroke: rgb(255, 255, 255); stroke-opacity: 1;"/></g><g class="text"/></g></g></g></g><path class="xlines-above crisp" d="M78,401H562M78,99H562" style="fill: none; stroke-width: 2px; stroke: rgb(51, 51, 51); stroke-opacity: 1;"/><path class="ylines-above crisp" d="M79,100V400M561,100V400" style="fill: none; stroke-width: 2px; stroke: rgb(51, 51, 51); stroke-opacity: 1;"/><g class="overlines-above"/><g class="xaxislayer-above"><path class="xtick ticks crisp" d="M0,402v5" transform="translate(104.85,0)" style="stroke: rgb(0, 0, 0); stroke-opacity: 1; stroke-width: 1px;"/><path class="xtick ticks crisp" d="M0,402v5" transform="translate(190.06,0)" style="stroke: rgb(0, 0, 0); stroke-opacity: 1; stroke-width: 1px;"/><path class="xtick ticks crisp" d="M0,402v5" transform="translate(275.27,0)" style="stroke: rgb(0, 0, 0); stroke-opacity: 1; stroke-width: 1px;"/><path class="xtick ticks crisp" d="M0,402v5" transform="translate(360.47,0)" style="stroke: rgb(0, 0, 0); stroke-opacity: 1; stroke-width: 1px;"/><path class="xtick ticks crisp" d="M0,402v5" transform="translate(445.68,0)" style="stroke: rgb(0, 0, 0); stroke-opacity: 1; stroke-width: 1px;"/><path class="xtick ticks crisp" d="M0,402v5" transform="translate(530.89,0)" style="stroke: rgb(0, 0, 0); stroke-opacity: 1; stroke-width: 1px;"/><g class="xtick"><text text-anchor="middle" x="0" y="421.4" transform="translate(104.85,0)" style="font-family: 'Times New Roman'; font-size: 12px; fill: rgb(0, 0, 0); fill-opacity: 1; white-space: pre; opacity: 1;">0</text></g><g class="xtick"><text text-anchor="middle" x="0" y="421.4" style="font-family: 'Times New Roman'; font-size: 12px; fill: rgb(0, 0, 0); fill-opacity: 1; white-space: pre; opacity: 1;" transform="translate(190.06,0)">20</text></g><g class="xtick"><text text-anchor="middle" x="0" y="421.4" style="font-family: 'Times New Roman'; font-size: 12px; fill: rgb(0, 0, 0); fill-opacity: 1; white-space: pre; opacity: 1;" transform="translate(275.27,0)">40</text></g><g class="xtick"><text text-anchor="middle" x="0" y="421.4" style="font-family: 'Times New Roman'; font-size: 12px; fill: rgb(0, 0, 0); fill-opacity: 1; white-space: pre; opacity: 1;" transform="translate(360.47,0)">60</text></g><g class="xtick"><text text-anchor="middle" x="0" y="421.4" style="font-family: 'Times New Roman'; font-size: 12px; fill: rgb(0, 0, 0); fill-opacity: 1; white-space: pre; opacity: 1;" transform="translate(445.68,0)">80</text></g><g class="xtick"><text text-anchor="middle" x="0" y="421.4" style="font-family: 'Times New Roman'; font-size: 12px; fill: rgb(0, 0, 0); fill-opacity: 1; white-space: pre; opacity: 1;" transform="translate(530.89,0)">100</text></g></g><g class="yaxislayer-above"><path class="ytick ticks crisp" d="M78,0h-5" transform="translate(0,379.89)" style="stroke: rgb(0, 0, 0); stroke-opacity: 1; stroke-width: 1px;"/><path class="ytick ticks crisp" d="M78,0h-5" transform="translate(0,314.94)" style="stroke: rgb(0, 0, 0); stroke-opacity: 1; stroke-width: 1px;"/><path class="ytick ticks crisp" d="M78,0h-5" transform="translate(0,250)" style="stroke: rgb(0, 0, 0); stroke-opacity: 1; stroke-width: 1px;"/><path class="ytick ticks crisp" d="M78,0h-5" transform="translate(0,185.06)" style="stroke: rgb(0, 0, 0); stroke-opacity: 1; stroke-width: 1px;"/><path class="ytick ticks crisp" d="M78,0h-5" transform="translate(0,120.11)" style="stroke: rgb(0, 0, 0); stroke-opacity: 1; stroke-width: 1px;"/><g class="ytick"><text text-anchor="end" x="70.6" y="4.199999999999999" transform="translate(0,379.89)" style="font-family: 'Times New Roman'; font-size: 12px; fill: rgb(0, 0, 0); fill-opacity: 1; white-space: pre; opacity: 1;">0</text></g><g class="ytick"><text text-anchor="end" x="70.6" y="4.199999999999999" style="font-family: 'Times New Roman'; font-size: 12px; fill: rgb(0, 0, 0); fill-opacity: 1; white-space: pre; opacity: 1;" transform="translate(0,314.94)">5</text></g><g class="ytick"><text text-anchor="end" x="70.6" y="4.199999999999999" style="font-family: 'Times New Roman'; font-size: 12px; fill: rgb(0, 0, 0); fill-opacity: 1; white-space: pre; opacity: 1;" transform="translate(0,250)">10</text></g><g class="ytick"><text text-anchor="end" x="70.6" y="4.199999999999999" style="font-family: 'Times New Roman'; font-size: 12px; fill: rgb(0, 0, 0); fill-opacity: 1; white-space: pre; opacity: 1;" transform="translate(0,185.06)">15</text></g><g class="ytick"><text text-anchor="end" x="70.6" y="4.199999999999999" style="font-family: 'Times New Roman'; font-size: 12px; fill: rgb(0, 0, 0); fill-opacity: 1; white-space: pre; opacity: 1;" transform="translate(0,120.11)">20</text></g></g><g class="overaxes-above"/></g></g><g class="polarlayer"/><g class="smithlayer"/><g class="ternarylayer"/><g class="geolayer"/><g class="funnelarealayer"/><g class="pielayer"/><g class="iciclelayer"/><g class="treemaplayer"/><g class="sunburstlayer"/><g class="glimages"/><defs id="topdefs-bec22c"><g class="clips"/></defs><g class="layer-above"><g class="imagelayer"/><g class="shapelayer"/></g><g class="infolayer"><g class="g-gtitle"><text class="gtitle" x="320" y="50" text-anchor="middle" dy="0.7em" style="opacity: 1; font-family: 'Times New Roman'; font-size: 16px; fill: rgb(0, 0, 0); fill-opacity: 1; white-space: pre;">the Trend of Real Estate and Construction</text></g><g class="g-xtitle"><text class="xtitle" x="320" y="448.20625" text-anchor="middle" style="opacity: 1; font-family: 'Times New Roman'; font-size: 14px; fill: rgb(0, 0, 0); fill-opacity: 1; white-space: pre;">Development density (units/acre)</text></g><g class="g-ytitle"><text class="ytitle" transform="rotate(-90,39.69375,250)" x="39.69375" y="250" text-anchor="middle" style="opacity: 1; font-family: 'Times New Roman'; font-size: 14px; fill: rgb(0, 0, 0); fill-opacity: 1; white-space: pre;">Vacancy rate (%)</text></g></g></svg>