<svg class="main-svg" xmlns="http://www.w3.org/2000/svg" xmlns:xlink="http://www.w3.org/1999/xlink" width="640" height="480" style="" viewBox="0 0 640 480"><rect x="0" y="0" width="640" height="480" style="fill: rgb(255, 255, 255); fill-opacity: 1;"/><defs id="defs-23a98d"><g class="clips"><clipPath id="clip23a98dxyplot" class="plotclip"><rect width="480" height="300"/></clipPath><clipPath class="axesclip" id="clip23a98dx"><rect x="80" y="0" width="480" height="480"/></clipPath><clipPath class="axesclip" id="clip23a98dy"><rect x="0" y="100" width="640" height="300"/></clipPath><clipPath class="axesclip" id="clip23a98dxy"><rect x="80" y="100" width="480" height="300"/></clipPath></g><g class="gradients"/><g class="patterns"/></defs><g class="bglayer"/><g class="layer-below"><g class="imagelayer"/><g class="shapelayer"/></g><g class="cartesianlayer"><g class="subplot xy"><g class="layer-subplot"><g class="shapelayer"/><g class="imagelayer"/></g><g class="minor-gridlayer"><g class="x"/><g class="y"/></g><g class="gridlayer"><g class="x"><path class="xgrid crisp" transform="translate(195.48000000000002,0)" d="M0,100v300" style="stroke: rgb(255, 255, 255); stroke-opacity: 1; stroke-width: 1px;"/><path class="xgrid crisp" transform="translate(278.35,0)" d="M0,100v300" style="stroke: rgb(255, 255, 255); stroke-opacity: 1; stroke-width: 1px;"/><path class="xgrid crisp" transform="translate(361.23,0)" d="M0,100v300" style="stroke: rgb(255, 255, 255); stroke-opacity: 1; stroke-width: 1px;"/><path class="xgrid crisp" transform="translate(444.11,0)" d="M0,100v300" style="stroke: rgb(255, 255, 255); stroke-opacity: 1; stroke-width: 1px;"/><path class="xgrid crisp" transform="translate(526.99,0)" d="M0,100v300" style="stroke: rgb(255, 255, 255); stroke-opacity: 1; stroke-width: 1px;"/></g><g class="y"><path class="ygrid crisp" transform="translate(0,322.94)" d="M80,0h480" style="stroke: rgb(255, 255, 255); stroke-opacity: 1; stroke-width: 1px;"/><path class="ygrid crisp" transform="translate(0,256.63)" d="M80,0h480" style="stroke: rgb(255, 255, 255); stroke-opacity: 1; stroke-width: 1px;"/><path class="ygrid crisp" transform="translate(0,190.32)" d="M80,0h480" style="stroke: rgb(255, 255, 255); stroke-opacity: 1; stroke-width: 1px;"/><path class="ygrid crisp" transform="translate(0,124.01)" d="M80,0h480" style="stroke: rgb(255, 255, 255); stroke-opacity: 1; stroke-width: 1px;"/></g></g><g class="zerolinelayer"><path class="xzl zl crisp" transform="translate(112.6,0)" d="M0,100v300" style="stroke: rgb(255, 255, 255); stroke-opacity: 1; stroke-width: 2px;"/><path class="yzl zl crisp" transform="translate(0,389.25)" d="M80,0h480" style="stroke: rgb(255, 255, 255); stroke-opacity: 1; stroke-width: 2px;"/></g><g class="layer-between"><g class="shapelayer"/><g class="imagelayer"/></g><path class="xlines-below"/><path class="ylines-below"/><g class="overlines-below"/><g class="xaxislayer-below"/><g class="yaxislayer-below"/><g class="overaxes-below"/><g class="overplot"><g class="xy" transform="translate(80,100)" clip-path="url(#clip23a98dxyplot)"><g class="scatterlayer mlayer"><g class="trace scatter traceaf3d08" style="stroke-miterlimit: 2; opacity: 1;"><g class="fills"/><g class="errorbars"/><g class="lines"/><g class="points"><path class="point" transform="translate(33.01,111.55)" d="M7.21,0A7.21,7.21 0 1,1 0,-7.21A7.21,7.21 0 0,1 7.21,0Z" style="opacity: 0.81976; stroke-width: 0.5px; fill: rgb(22, 255, 50); fill-opacity: 1; stroke: rgb(255, 255, 255); stroke-opacity: 1;"/><path class="point" transform="translate(37.94,201.52)" d="M7.21,0A7.21,7.21 0 1,1 0,-7.21A7.21,7.21 0 0,1 7.21,0Z" style="opacity: 0.81976; stroke-width: 0.5px; fill: rgb(22, 255, 50); fill-opacity: 1; stroke: rgb(255, 255, 255); stroke-opacity: 1;"/><path class="point" transform="translate(42.87,134.71)" d="M7.21,0A7.21,7.21 0 1,1 0,-7.21A7.21,7.21 0 0,1 7.21,0Z" style="opacity: 0.81976; stroke-width: 0.5px; fill: rgb(22, 255, 50); fill-opacity: 1; stroke: rgb(255, 255, 255); stroke-opacity: 1;"/><path class="point" transform="translate(47.8,126.83)" d="M7.21,0A7.21,7.21 0 1,1 0,-7.21A7.21,7.21 0 0,1 7.21,0Z" style="opacity: 0.81976; stroke-width: 0.5px; fill: rgb(22, 255, 50); fill-opacity: 1; stroke: rgb(255, 255, 255); stroke-opacity: 1;"/><path class="point" transform="translate(52.73,122.49)" d="M7.21,0A7.21,7.21 0 1,1 0,-7.21A7.21,7.21 0 0,1 7.21,0Z" style="opacity: 0.81976; stroke-width: 0.5px; fill: rgb(22, 255, 50); fill-opacity: 1; stroke: rgb(255, 255, 255); stroke-opacity: 1;"/><path class="point" transform="translate(57.65,210.05)" d="M7.21,0A7.21,7.21 0 1,1 0,-7.21A7.21,7.21 0 0,1 7.21,0Z" style="opacity: 0.81976; stroke-width: 0.5px; fill: rgb(22, 255, 50); fill-opacity: 1; stroke: rgb(255, 255, 255); stroke-opacity: 1;"/><path class="point" transform="translate(62.58,207.93)" d="M7.21,0A7.21,7.21 0 1,1 0,-7.21A7.21,7.21 0 0,1 7.21,0Z" style="opacity: 0.81976; stroke-width: 0.5px; fill: rgb(22, 255, 50); fill-opacity: 1; stroke: rgb(255, 255, 255); stroke-opacity: 1;"/><path class="point" transform="translate(67.51,168.03)" d="M7.21,0A7.21,7.21 0 1,1 0,-7.21A7.21,7.21 0 0,1 7.21,0Z" style="opacity: 0.81976; stroke-width: 0.5px; fill: rgb(22, 255, 50); fill-opacity: 1; stroke: rgb(255, 255, 255); stroke-opacity: 1;"/><path class="point" transform="translate(72.44,234.26)" d="M7.21,0A7.21,7.21 0 1,1 0,-7.21A7.21,7.21 0 0,1 7.21,0Z" style="opacity: 0.81976; stroke-width: 0.5px; fill: rgb(22, 255, 50); fill-opacity: 1; stroke: rgb(255, 255, 255); stroke-opacity: 1;"/><path class="point" transform="translate(77.37,185.83)" d="M7.21,0A7.21,7.21 0 1,1 0,-7.21A7.21,7.21 0 0,1 7.21,0Z" style="opacity: 0.81976; stroke-width: 0.5px; fill: rgb(22, 255, 50); fill-opacity: 1; stroke: rgb(255, 255, 255); stroke-opacity: 1;"/><path class="point" transform="translate(82.3,142.69)" d="M7.21,0A7.21,7.21 0 1,1 0,-7.21A7.21,7.21 0 0,1 7.21,0Z" style="opacity: 0.81976; stroke-width: 0.5px; fill: rgb(22, 255, 50); fill-opacity: 1; stroke: rgb(255, 255, 255); stroke-opacity: 1;"/><path class="point" transform="translate(87.22,244.56)" d="M7.21,0A7.21,7.21 0 1,1 0,-7.21A7.21,7.21 0 0,1 7.21,0Z" style="opacity: 0.81976; stroke-width: 0.5px; fill: rgb(22, 255, 50); fill-opacity: 1; stroke: rgb(255, 255, 255); stroke-opacity: 1;"/><path class="point" transform="translate(92.15,193.09)" d="M7.21,0A7.21,7.21 0 1,1 0,-7.21A7.21,7.21 0 0,1 7.21,0Z" style="opacity: 0.81976; stroke-width: 0.5px; fill: rgb(22, 255, 50); fill-opacity: 1; stroke: rgb(255, 255, 255); stroke-opacity: 1;"/><path class="point" transform="translate(97.08,241.72)" d="M7.21,0A7.21,7.21 0 1,1 0,-7.21A7.21,7.21 0 0,1 7.21,0Z" style="opacity: 0.81976; stroke-width: 0.5px; fill: rgb(22, 255, 50); fill-opacity: 1; stroke: rgb(255, 255, 255); stroke-opacity: 1;"/><path class="point" transform="translate(102.01,201.17)" d="M7.21,0A7.21,7.21 0 1,1 0,-7.21A7.21,7.21 0 0,1 7.21,0Z" style="opacity: 0.81976; stroke-width: 0.5px; fill: rgb(22, 255, 50); fill-opacity: 1; stroke: rgb(255, 255, 255); stroke-opacity: 1;"/><path class="point" transform="translate(106.94,152.83)" d="M7.21,0A7.21,7.21 0 1,1 0,-7.21A7.21,7.21 0 0,1 7.21,0Z" style="opacity: 0.81976; stroke-width: 0.5px; fill: rgb(22, 255, 50); fill-opacity: 1; stroke: rgb(255, 255, 255); stroke-opacity: 1;"/><path class="point" transform="translate(111.87,190.51)" d="M7.21,0A7.21,7.21 0 1,1 0,-7.21A7.21,7.21 0 0,1 7.21,0Z" style="opacity: 0.81976; stroke-width: 0.5px; fill: rgb(22, 255, 50); fill-opacity: 1; stroke: rgb(255, 255, 255); stroke-opacity: 1;"/><path class="point" transform="translate(116.79,126.76)" d="M7.21,0A7.21,7.21 0 1,1 0,-7.21A7.21,7.21 0 0,1 7.21,0Z" style="opacity: 0.81976; stroke-width: 0.5px; fill: rgb(22, 255, 50); fill-opacity: 1; stroke: rgb(255, 255, 255); stroke-opacity: 1;"/><path class="point" transform="translate(121.72,108.29)" d="M7.21,0A7.21,7.21 0 1,1 0,-7.21A7.21,7.21 0 0,1 7.21,0Z" style="opacity: 0.81976; stroke-width: 0.5px; fill: rgb(22, 255, 50); fill-opacity: 1; stroke: rgb(255, 255, 255); stroke-opacity: 1;"/><path class="point" transform="translate(126.65,118.94)" d="M7.21,0A7.21,7.21 0 1,1 0,-7.21A7.21,7.21 0 0,1 7.21,0Z" style="opacity: 0.81976; stroke-width: 0.5px; fill: rgb(22, 255, 50); fill-opacity: 1; stroke: rgb(255, 255, 255); stroke-opacity: 1;"/><path class="point" transform="translate(131.58,158.19)" d="M7.21,0A7.21,7.21 0 1,1 0,-7.21A7.21,7.21 0 0,1 7.21,0Z" style="opacity: 0.81976; stroke-width: 0.5px; fill: rgb(22, 255, 50); fill-opacity: 1; stroke: rgb(255, 255, 255); stroke-opacity: 1;"/><path class="point" transform="translate(136.51,153.26)" d="M7.21,0A7.21,7.21 0 1,1 0,-7.21A7.21,7.21 0 0,1 7.21,0Z" style="opacity: 0.81976; stroke-width: 0.5px; fill: rgb(22, 255, 50); fill-opacity: 1; stroke: rgb(255, 255, 255); stroke-opacity: 1;"/><path class="point" transform="translate(141.43,99.67)" d="M7.21,0A7.21,7.21 0 1,1 0,-7.21A7.21,7.21 0 0,1 7.21,0Z" style="opacity: 0.81976; stroke-width: 0.5px; fill: rgb(22, 255, 50); fill-opacity: 1; stroke: rgb(255, 255, 255); stroke-opacity: 1;"/><path class="point" transform="translate(146.37,275.99)" d="M7.21,0A7.21,7.21 0 1,1 0,-7.21A7.21,7.21 0 0,1 7.21,0Z" style="opacity: 0.81976; stroke-width: 0.5px; fill: rgb(22, 255, 50); fill-opacity: 1; stroke: rgb(255, 255, 255); stroke-opacity: 1;"/><path class="point" transform="translate(151.29,114.43)" d="M7.21,0A7.21,7.21 0 1,1 0,-7.21A7.21,7.21 0 0,1 7.21,0Z" style="opacity: 0.81976; stroke-width: 0.5px; fill: rgb(22, 255, 50); fill-opacity: 1; stroke: rgb(255, 255, 255); stroke-opacity: 1;"/><path class="point" transform="translate(156.22,172.14)" d="M7.21,0A7.21,7.21 0 1,1 0,-7.21A7.21,7.21 0 0,1 7.21,0Z" style="opacity: 0.81976; stroke-width: 0.5px; fill: rgb(22, 255, 50); fill-opacity: 1; stroke: rgb(255, 255, 255); stroke-opacity: 1;"/><path class="point" transform="translate(161.15,196.83)" d="M7.21,0A7.21,7.21 0 1,1 0,-7.21A7.21,7.21 0 0,1 7.21,0Z" style="opacity: 0.81976; stroke-width: 0.5px; fill: rgb(22, 255, 50); fill-opacity: 1; stroke: rgb(255, 255, 255); stroke-opacity: 1;"/><path class="point" transform="translate(166.08,199.57)" d="M7.21,0A7.21,7.21 0 1,1 0,-7.21A7.21,7.21 0 0,1 7.21,0Z" style="opacity: 0.81976; stroke-width: 0.5px; fill: rgb(22, 255, 50); fill-opacity: 1; stroke: rgb(255, 255, 255); stroke-opacity: 1;"/><path class="point" transform="translate(171,134.48)" d="M7.21,0A7.21,7.21 0 1,1 0,-7.21A7.21,7.21 0 0,1 7.21,0Z" style="opacity: 0.81976; stroke-width: 0.5px; fill: rgb(22, 255, 50); fill-opacity: 1; stroke: rgb(255, 255, 255); stroke-opacity: 1;"/><path class="point" transform="translate(175.93,203.95)" d="M7.21,0A7.21,7.21 0 1,1 0,-7.21A7.21,7.21 0 0,1 7.21,0Z" style="opacity: 0.81976; stroke-width: 0.5px; fill: rgb(22, 255, 50); fill-opacity: 1; stroke: rgb(255, 255, 255); stroke-opacity: 1;"/><path class="point" transform="translate(180.86,147.97)" d="M7.21,0A7.21,7.21 0 1,1 0,-7.21A7.21,7.21 0 0,1 7.21,0Z" style="opacity: 0.81976; stroke-width: 0.5px; fill: rgb(22, 255, 50); fill-opacity: 1; stroke: rgb(255, 255, 255); stroke-opacity: 1;"/><path class="point" transform="translate(185.79,160.55)" d="M7.21,0A7.21,7.21 0 1,1 0,-7.21A7.21,7.21 0 0,1 7.21,0Z" style="opacity: 0.81976; stroke-width: 0.5px; fill: rgb(22, 255, 50); fill-opacity: 1; stroke: rgb(255, 255, 255); stroke-opacity: 1;"/><path class="point" transform="translate(190.72,189.09)" d="M7.21,0A7.21,7.21 0 1,1 0,-7.21A7.21,7.21 0 0,1 7.21,0Z" style="opacity: 0.81976; stroke-width: 0.5px; fill: rgb(22, 255, 50); fill-opacity: 1; stroke: rgb(255, 255, 255); stroke-opacity: 1;"/><path class="point" transform="translate(195.64,234.31)" d="M7.21,0A7.21,7.21 0 1,1 0,-7.21A7.21,7.21 0 0,1 7.21,0Z" style="opacity: 0.81976; stroke-width: 0.5px; fill: rgb(22, 255, 50); fill-opacity: 1; stroke: rgb(255, 255, 255); stroke-opacity: 1;"/><path class="point" transform="translate(200.58,172.82)" d="M7.21,0A7.21,7.21 0 1,1 0,-7.21A7.21,7.21 0 0,1 7.21,0Z" style="opacity: 0.81976; stroke-width: 0.5px; fill: rgb(22, 255, 50); fill-opacity: 1; stroke: rgb(255, 255, 255); stroke-opacity: 1;"/><path class="point" transform="translate(205.5,215.54)" d="M7.21,0A7.21,7.21 0 1,1 0,-7.21A7.21,7.21 0 0,1 7.21,0Z" style="opacity: 0.81976; stroke-width: 0.5px; fill: rgb(22, 255, 50); fill-opacity: 1; stroke: rgb(255, 255, 255); stroke-opacity: 1;"/><path class="point" transform="translate(210.43,236.53)" d="M7.21,0A7.21,7.21 0 1,1 0,-7.21A7.21,7.21 0 0,1 7.21,0Z" style="opacity: 0.81976; stroke-width: 0.5px; fill: rgb(22, 255, 50); fill-opacity: 1; stroke: rgb(255, 255, 255); stroke-opacity: 1;"/><path class="point" transform="translate(215.36,200.85)" d="M7.21,0A7.21,7.21 0 1,1 0,-7.21A7.21,7.21 0 0,1 7.21,0Z" style="opacity: 0.81976; stroke-width: 0.5px; fill: rgb(22, 255, 50); fill-opacity: 1; stroke: rgb(255, 255, 255); stroke-opacity: 1;"/><path class="point" transform="translate(220.29,146.85)" d="M7.21,0A7.21,7.21 0 1,1 0,-7.21A7.21,7.21 0 0,1 7.21,0Z" style="opacity: 0.81976; stroke-width: 0.5px; fill: rgb(22, 255, 50); fill-opacity: 1; stroke: rgb(255, 255, 255); stroke-opacity: 1;"/><path class="point" transform="translate(225.21,190.13)" d="M7.21,0A7.21,7.21 0 1,1 0,-7.21A7.21,7.21 0 0,1 7.21,0Z" style="opacity: 0.81976; stroke-width: 0.5px; fill: rgb(22, 255, 50); fill-opacity: 1; stroke: rgb(255, 255, 255); stroke-opacity: 1;"/><path class="point" transform="translate(230.14,204.49)" d="M7.21,0A7.21,7.21 0 1,1 0,-7.21A7.21,7.21 0 0,1 7.21,0Z" style="opacity: 0.81976; stroke-width: 0.5px; fill: rgb(22, 255, 50); fill-opacity: 1; stroke: rgb(255, 255, 255); stroke-opacity: 1;"/><path class="point" transform="translate(235.07,223.96)" d="M7.21,0A7.21,7.21 0 1,1 0,-7.21A7.21,7.21 0 0,1 7.21,0Z" style="opacity: 0.81976; stroke-width: 0.5px; fill: rgb(22, 255, 50); fill-opacity: 1; stroke: rgb(255, 255, 255); stroke-opacity: 1;"/><path class="point" transform="translate(240,155.76)" d="M7.21,0A7.21,7.21 0 1,1 0,-7.21A7.21,7.21 0 0,1 7.21,0Z" style="opacity: 0.81976; stroke-width: 0.5px; fill: rgb(22, 255, 50); fill-opacity: 1; stroke: rgb(255, 255, 255); stroke-opacity: 1;"/><path class="point" transform="translate(244.93,159.88)" d="M7.21,0A7.21,7.21 0 1,1 0,-7.21A7.21,7.21 0 0,1 7.21,0Z" style="opacity: 0.81976; stroke-width: 0.5px; fill: rgb(22, 255, 50); fill-opacity: 1; stroke: rgb(255, 255, 255); stroke-opacity: 1;"/><path class="point" transform="translate(249.86,188.64)" d="M7.21,0A7.21,7.21 0 1,1 0,-7.21A7.21,7.21 0 0,1 7.21,0Z" style="opacity: 0.81976; stroke-width: 0.5px; fill: rgb(22, 255, 50); fill-opacity: 1; stroke: rgb(255, 255, 255); stroke-opacity: 1;"/><path class="point" transform="translate(254.79,177.37)" d="M7.21,0A7.21,7.21 0 1,1 0,-7.21A7.21,7.21 0 0,1 7.21,0Z" style="opacity: 0.81976; stroke-width: 0.5px; fill: rgb(22, 255, 50); fill-opacity: 1; stroke: rgb(255, 255, 255); stroke-opacity: 1;"/><path class="point" transform="translate(259.71,185.33)" d="M7.21,0A7.21,7.21 0 1,1 0,-7.21A7.21,7.21 0 0,1 7.21,0Z" style="opacity: 0.81976; stroke-width: 0.5px; fill: rgb(22, 255, 50); fill-opacity: 1; stroke: rgb(255, 255, 255); stroke-opacity: 1;"/><path class="point" transform="translate(264.64,225.6)" d="M7.21,0A7.21,7.21 0 1,1 0,-7.21A7.21,7.21 0 0,1 7.21,0Z" style="opacity: 0.81976; stroke-width: 0.5px; fill: rgb(22, 255, 50); fill-opacity: 1; stroke: rgb(255, 255, 255); stroke-opacity: 1;"/><path class="point" transform="translate(269.57,216.68)" d="M7.21,0A7.21,7.21 0 1,1 0,-7.21A7.21,7.21 0 0,1 7.21,0Z" style="opacity: 0.81976; stroke-width: 0.5px; fill: rgb(22, 255, 50); fill-opacity: 1; stroke: rgb(255, 255, 255); stroke-opacity: 1;"/><path class="point" transform="translate(274.5,161.75)" d="M7.21,0A7.21,7.21 0 1,1 0,-7.21A7.21,7.21 0 0,1 7.21,0Z" style="opacity: 0.81976; stroke-width: 0.5px; fill: rgb(22, 255, 50); fill-opacity: 1; stroke: rgb(255, 255, 255); stroke-opacity: 1;"/><path class="point" transform="translate(279.42,172.95)" d="M7.21,0A7.21,7.21 0 1,1 0,-7.21A7.21,7.21 0 0,1 7.21,0Z" style="opacity: 0.81976; stroke-width: 0.5px; fill: rgb(22, 255, 50); fill-opacity: 1; stroke: rgb(255, 255, 255); stroke-opacity: 1;"/><path class="point" transform="translate(284.36,135.99)" d="M7.21,0A7.21,7.21 0 1,1 0,-7.21A7.21,7.21 0 0,1 7.21,0Z" style="opacity: 0.81976; stroke-width: 0.5px; fill: rgb(22, 255, 50); fill-opacity: 1; stroke: rgb(255, 255, 255); stroke-opacity: 1;"/><path class="point" transform="translate(289.28,175.65)" d="M7.21,0A7.21,7.21 0 1,1 0,-7.21A7.21,7.21 0 0,1 7.21,0Z" style="opacity: 0.81976; stroke-width: 0.5px; fill: rgb(22, 255, 50); fill-opacity: 1; stroke: rgb(255, 255, 255); stroke-opacity: 1;"/><path class="point" transform="translate(294.21,169.76)" d="M7.21,0A7.21,7.21 0 1,1 0,-7.21A7.21,7.21 0 0,1 7.21,0Z" style="opacity: 0.81976; stroke-width: 0.5px; fill: rgb(22, 255, 50); fill-opacity: 1; stroke: rgb(255, 255, 255); stroke-opacity: 1;"/><path class="point" transform="translate(299.14,202.62)" d="M7.21,0A7.21,7.21 0 1,1 0,-7.21A7.21,7.21 0 0,1 7.21,0Z" style="opacity: 0.81976; stroke-width: 0.5px; fill: rgb(22, 255, 50); fill-opacity: 1; stroke: rgb(255, 255, 255); stroke-opacity: 1;"/><path class="point" transform="translate(304.07,153.29)" d="M7.21,0A7.21,7.21 0 1,1 0,-7.21A7.21,7.21 0 0,1 7.21,0Z" style="opacity: 0.81976; stroke-width: 0.5px; fill: rgb(22, 255, 50); fill-opacity: 1; stroke: rgb(255, 255, 255); stroke-opacity: 1;"/><path class="point" transform="translate(309,242.68)" d="M7.21,0A7.21,7.21 0 1,1 0,-7.21A7.21,7.21 0 0,1 7.21,0Z" style="opacity: 0.81976; stroke-width: 0.5px; fill: rgb(22, 255, 50); fill-opacity: 1; stroke: rgb(255, 255, 255); stroke-opacity: 1;"/><path class="point" transform="translate(313.92,145.08)" d="M7.21,0A7.21,7.21 0 1,1 0,-7.21A7.21,7.21 0 0,1 7.21,0Z" style="opacity: 0.81976; stroke-width: 0.5px; fill: rgb(22, 255, 50); fill-opacity: 1; stroke: rgb(255, 255, 255); stroke-opacity: 1;"/><path class="point" transform="translate(318.85,234.5)" d="M7.21,0A7.21,7.21 0 1,1 0,-7.21A7.21,7.21 0 0,1 7.21,0Z" style="opacity: 0.81976; stroke-width: 0.5px; fill: rgb(22, 255, 50); fill-opacity: 1; stroke: rgb(255, 255, 255); stroke-opacity: 1;"/><path class="point" transform="translate(323.78,171.54)" d="M7.21,0A7.21,7.21 0 1,1 0,-7.21A7.21,7.21 0 0,1 7.21,0Z" style="opacity: 0.81976; stroke-width: 0.5px; fill: rgb(22, 255, 50); fill-opacity: 1; stroke: rgb(255, 255, 255); stroke-opacity: 1;"/><path class="point" transform="translate(328.71,24.01)" d="M7.21,0A7.21,7.21 0 1,1 0,-7.21A7.21,7.21 0 0,1 7.21,0Z" style="opacity: 0.81976; stroke-width: 0.5px; fill: rgb(22, 255, 50); fill-opacity: 1; stroke: rgb(255, 255, 255); stroke-opacity: 1;"/><path class="point" transform="translate(333.63,201.48)" d="M7.21,0A7.21,7.21 0 1,1 0,-7.21A7.21,7.21 0 0,1 7.21,0Z" style="opacity: 0.81976; stroke-width: 0.5px; fill: rgb(22, 255, 50); fill-opacity: 1; stroke: rgb(255, 255, 255); stroke-opacity: 1;"/><path class="point" transform="translate(338.57,190.42)" d="M7.21,0A7.21,7.21 0 1,1 0,-7.21A7.21,7.21 0 0,1 7.21,0Z" style="opacity: 0.81976; stroke-width: 0.5px; fill: rgb(22, 255, 50); fill-opacity: 1; stroke: rgb(255, 255, 255); stroke-opacity: 1;"/><path class="point" transform="translate(343.49,228.17)" d="M7.21,0A7.21,7.21 0 1,1 0,-7.21A7.21,7.21 0 0,1 7.21,0Z" style="opacity: 0.81976; stroke-width: 0.5px; fill: rgb(22, 255, 50); fill-opacity: 1; stroke: rgb(255, 255, 255); stroke-opacity: 1;"/><path class="point" transform="translate(348.42,196.71)" d="M7.21,0A7.21,7.21 0 1,1 0,-7.21A7.21,7.21 0 0,1 7.21,0Z" style="opacity: 0.81976; stroke-width: 0.5px; fill: rgb(22, 255, 50); fill-opacity: 1; stroke: rgb(255, 255, 255); stroke-opacity: 1;"/><path class="point" transform="translate(353.35,176.57)" d="M7.21,0A7.21,7.21 0 1,1 0,-7.21A7.21,7.21 0 0,1 7.21,0Z" style="opacity: 0.81976; stroke-width: 0.5px; fill: rgb(22, 255, 50); fill-opacity: 1; stroke: rgb(255, 255, 255); stroke-opacity: 1;"/><path class="point" transform="translate(358.28,197.09)" d="M7.21,0A7.21,7.21 0 1,1 0,-7.21A7.21,7.21 0 0,1 7.21,0Z" style="opacity: 0.81976; stroke-width: 0.5px; fill: rgb(22, 255, 50); fill-opacity: 1; stroke: rgb(255, 255, 255); stroke-opacity: 1;"/><path class="point" transform="translate(363.21,233.62)" d="M7.21,0A7.21,7.21 0 1,1 0,-7.21A7.21,7.21 0 0,1 7.21,0Z" style="opacity: 0.81976; stroke-width: 0.5px; fill: rgb(22, 255, 50); fill-opacity: 1; stroke: rgb(255, 255, 255); stroke-opacity: 1;"/><path class="point" transform="translate(368.13,231)" d="M7.21,0A7.21,7.21 0 1,1 0,-7.21A7.21,7.21 0 0,1 7.21,0Z" style="opacity: 0.81976; stroke-width: 0.5px; fill: rgb(22, 255, 50); fill-opacity: 1; stroke: rgb(255, 255, 255); stroke-opacity: 1;"/><path class="point" transform="translate(373.06,220.44)" d="M7.21,0A7.21,7.21 0 1,1 0,-7.21A7.21,7.21 0 0,1 7.21,0Z" style="opacity: 0.81976; stroke-width: 0.5px; fill: rgb(22, 255, 50); fill-opacity: 1; stroke: rgb(255, 255, 255); stroke-opacity: 1;"/><path class="point" transform="translate(377.99,221.95)" d="M7.21,0A7.21,7.21 0 1,1 0,-7.21A7.21,7.21 0 0,1 7.21,0Z" style="opacity: 0.81976; stroke-width: 0.5px; fill: rgb(22, 255, 50); fill-opacity: 1; stroke: rgb(255, 255, 255); stroke-opacity: 1;"/><path class="point" transform="translate(382.92,174.12)" d="M7.21,0A7.21,7.21 0 1,1 0,-7.21A7.21,7.21 0 0,1 7.21,0Z" style="opacity: 0.81976; stroke-width: 0.5px; fill: rgb(22, 255, 50); fill-opacity: 1; stroke: rgb(255, 255, 255); stroke-opacity: 1;"/><path class="point" transform="translate(387.85,222.29)" d="M7.21,0A7.21,7.21 0 1,1 0,-7.21A7.21,7.21 0 0,1 7.21,0Z" style="opacity: 0.81976; stroke-width: 0.5px; fill: rgb(22, 255, 50); fill-opacity: 1; stroke: rgb(255, 255, 255); stroke-opacity: 1;"/><path class="point" transform="translate(392.78,146.64)" d="M7.21,0A7.21,7.21 0 1,1 0,-7.21A7.21,7.21 0 0,1 7.21,0Z" style="opacity: 0.81976; stroke-width: 0.5px; fill: rgb(22, 255, 50); fill-opacity: 1; stroke: rgb(255, 255, 255); stroke-opacity: 1;"/><path class="point" transform="translate(397.7,168.07)" d="M7.21,0A7.21,7.21 0 1,1 0,-7.21A7.21,7.21 0 0,1 7.21,0Z" style="opacity: 0.81976; stroke-width: 0.5px; fill: rgb(22, 255, 50); fill-opacity: 1; stroke: rgb(255, 255, 255); stroke-opacity: 1;"/><path class="point" transform="translate(402.63,204.34)" d="M7.21,0A7.21,7.21 0 1,1 0,-7.21A7.21,7.21 0 0,1 7.21,0Z" style="opacity: 0.81976; stroke-width: 0.5px; fill: rgb(22, 255, 50); fill-opacity: 1; stroke: rgb(255, 255, 255); stroke-opacity: 1;"/><path class="point" transform="translate(407.56,200.48)" d="M7.21,0A7.21,7.21 0 1,1 0,-7.21A7.21,7.21 0 0,1 7.21,0Z" style="opacity: 0.81976; stroke-width: 0.5px; fill: rgb(22, 255, 50); fill-opacity: 1; stroke: rgb(255, 255, 255); stroke-opacity: 1;"/><path class="point" transform="translate(412.49,233.22)" d="M7.21,0A7.21,7.21 0 1,1 0,-7.21A7.21,7.21 0 0,1 7.21,0Z" style="opacity: 0.81976; stroke-width: 0.5px; fill: rgb(22, 255, 50); fill-opacity: 1; stroke: rgb(255, 255, 255); stroke-opacity: 1;"/><path class="point" transform="translate(417.42,147.51)" d="M7.21,0A7.21,7.21 0 1,1 0,-7.21A7.21,7.21 0 0,1 7.21,0Z" style="opacity: 0.81976; stroke-width: 0.5px; fill: rgb(22, 255, 50); fill-opacity: 1; stroke: rgb(255, 255, 255); stroke-opacity: 1;"/><path class="point" transform="translate(422.35,224.88)" d="M7.21,0A7.21,7.21 0 1,1 0,-7.21A7.21,7.21 0 0,1 7.21,0Z" style="opacity: 0.81976; stroke-width: 0.5px; fill: rgb(22, 255, 50); fill-opacity: 1; stroke: rgb(255, 255, 255); stroke-opacity: 1;"/><path class="point" transform="translate(427.27,222.55)" d="M7.21,0A7.21,7.21 0 1,1 0,-7.21A7.21,7.21 0 0,1 7.21,0Z" style="opacity: 0.81976; stroke-width: 0.5px; fill: rgb(22, 255, 50); fill-opacity: 1; stroke: rgb(255, 255, 255); stroke-opacity: 1;"/><path class="point" transform="translate(432.2,188.7)" d="M7.21,0A7.21,7.21 0 1,1 0,-7.21A7.21,7.21 0 0,1 7.21,0Z" style="opacity: 0.81976; stroke-width: 0.5px; fill: rgb(22, 255, 50); fill-opacity: 1; stroke: rgb(255, 255, 255); stroke-opacity: 1;"/><path class="point" transform="translate(437.13,245.79)" d="M7.21,0A7.21,7.21 0 1,1 0,-7.21A7.21,7.21 0 0,1 7.21,0Z" style="opacity: 0.81976; stroke-width: 0.5px; fill: rgb(22, 255, 50); fill-opacity: 1; stroke: rgb(255, 255, 255); stroke-opacity: 1;"/><path class="point" transform="translate(442.06,205.1)" d="M7.21,0A7.21,7.21 0 1,1 0,-7.21A7.21,7.21 0 0,1 7.21,0Z" style="opacity: 0.81976; stroke-width: 0.5px; fill: rgb(22, 255, 50); fill-opacity: 1; stroke: rgb(255, 255, 255); stroke-opacity: 1;"/><path class="point" transform="translate(446.99,157.9)" d="M7.21,0A7.21,7.21 0 1,1 0,-7.21A7.21,7.21 0 0,1 7.21,0Z" style="opacity: 0.81976; stroke-width: 0.5px; fill: rgb(22, 255, 50); fill-opacity: 1; stroke: rgb(255, 255, 255); stroke-opacity: 1;"/></g><g class="text"/></g></g></g></g><path class="xlines-above crisp" d="M78,401H562M78,99H562" style="fill: none; stroke-width: 2px; stroke: rgb(51, 51, 51); stroke-opacity: 1;"/><path class="ylines-above crisp" d="M79,100V400M561,100V400" style="fill: none; stroke-width: 2px; stroke: rgb(51, 51, 51); stroke-opacity: 1;"/><g class="overlines-above"/><g class="xaxislayer-above"><path class="xtick ticks crisp" d="M0,402v5" transform="translate(112.6,0)" style="stroke: rgb(0, 0, 0); stroke-opacity: 1; stroke-width: 1px;"/><path class="xtick ticks crisp" d="M0,402v5" transform="translate(195.48000000000002,0)" style="stroke: rgb(0, 0, 0); stroke-opacity: 1; stroke-width: 1px;"/><path class="xtick ticks crisp" d="M0,402v5" transform="translate(278.35,0)" style="stroke: rgb(0, 0, 0); stroke-opacity: 1; stroke-width: 1px;"/><path class="xtick ticks crisp" d="M0,402v5" transform="translate(361.23,0)" style="stroke: rgb(0, 0, 0); stroke-opacity: 1; stroke-width: 1px;"/><path class="xtick ticks crisp" d="M0,402v5" transform="translate(444.11,0)" style="stroke: rgb(0, 0, 0); stroke-opacity: 1; stroke-width: 1px;"/><path class="xtick ticks crisp" d="M0,402v5" transform="translate(526.99,0)" style="stroke: rgb(0, 0, 0); stroke-opacity: 1; stroke-width: 1px;"/><g class="xtick"><text text-anchor="middle" x="0" y="421.4" transform="translate(112.6,0)" style="font-family: 'Times New Roman'; font-size: 12px; fill: rgb(0, 0, 0); fill-opacity: 1; white-space: pre; opacity: 1;">0</text></g><g class="xtick"><text text-anchor="middle" x="0" y="421.4" style="font-family: 'Times New Roman'; font-size: 12px; fill: rgb(0, 0, 0); fill-opacity: 1; white-space: pre; opacity: 1;" transform="translate(195.48000000000002,0)">200</text></g><g class="xtick"><text text-anchor="middle" x="0" y="421.4" style="font-family: 'Times New Roman'; font-size: 12px; fill: rgb(0, 0, 0); fill-opacity: 1; white-space: pre; opacity: 1;" transform="translate(278.35,0)">400</text></g><g class="xtick"><text text-anchor="middle" x="0" y="421.4" style="font-family: 'Times New Roman'; font-size: 12px; fill: rgb(0, 0, 0); fill-opacity: 1; white-space: pre; opacity: 1;" transform="translate(361.23,0)">600</text></g><g class="xtick"><text text-anchor="middle" x="0" y="421.4" style="font-family: 'Times New Roman'; font-size: 12px; fill: rgb(0, 0, 0); fill-opacity: 1; white-space: pre; opacity: 1;" transform="translate(444.11,0)">800</text></g><g class="xtick"><text text-anchor="middle" x="0" y="421.4" style="font-family: 'Times New Roman'; font-size: 12px; fill: rgb(0, 0, 0); fill-opacity: 1; white-space: pre; opacity: 1;" transform="translate(526.99,0)">1000</text></g></g><g class="yaxislayer-above"><path class="ytick ticks crisp" d="M78,0h-5" transform="translate(0,389.25)" style="stroke: rgb(0, 0, 0); stroke-opacity: 1; stroke-width: 1px;"/><path class="ytick ticks crisp" d="M78,0h-5" transform="translate(0,322.94)" style="stroke: rgb(0, 0, 0); stroke-opacity: 1; stroke-width: 1px;"/><path class="ytick ticks crisp" d="M78,0h-5" transform="translate(0,256.63)" style="stroke: rgb(0, 0, 0); stroke-opacity: 1; stroke-width: 1px;"/><path class="ytick ticks crisp" d="M78,0h-5" transform="translate(0,190.32)" style="stroke: rgb(0, 0, 0); stroke-opacity: 1; stroke-width: 1px;"/><path class="ytick ticks crisp" d="M78,0h-5" transform="translate(0,124.01)" style="stroke: rgb(0, 0, 0); stroke-opacity: 1; stroke-width: 1px;"/><g class="ytick"><text text-anchor="end" x="70.6" y="4.199999999999999" transform="translate(0,389.25)" style="font-family: 'Times New Roman'; font-size: 12px; fill: rgb(0, 0, 0); fill-opacity: 1; white-space: pre; opacity: 1;">0</text></g><g class="ytick"><text text-anchor="end" x="70.6" y="4.199999999999999" style="font-family: 'Times New Roman'; font-size: 12px; fill: rgb(0, 0, 0); fill-opacity: 1; white-space: pre; opacity: 1;" transform="translate(0,322.94)">500</text></g><g class="ytick"><text text-anchor="end" x="70.6" y="4.199999999999999" style="font-family: 'Times New Roman'; font-size: 12px; fill: rgb(0, 0, 0); fill-opacity: 1; white-space: pre; opacity: 1;" transform="translate(0,256.63)">1000</text></g><g class="ytick"><text text-anchor="end" x="70.6" y="4.199999999999999" style="font-family: 'Times New Roman'; font-size: 12px; fill: rgb(0, 0, 0); fill-opacity: 1; white-space: pre; opacity: 1;" transform="translate(0,190.32)">1500</text></g><g class="ytick"><text text-anchor="end" x="70.6" y="4.199999999999999" style="font-family: 'Times New Roman'; font-size: 12px; fill: rgb(0, 0, 0); fill-opacity: 1; white-space: pre; opacity: 1;" transform="translate(0,124.01)">2000</text></g></g><g class="overaxes-above"/></g></g><g class="polarlayer"/><g class="smithlayer"/><g class="ternarylayer"/><g class="geolayer"/><g class="funnelarealayer"/><g class="pielayer"/><g class="iciclelayer"/><g class="treemaplayer"/><g class="sunburstlayer"/><g class="glimages"/><defs id="topdefs-23a98d"><g class="clips"/></defs><g class="layer-above"><g class="imagelayer"/><g class="shapelayer"/></g><g class="infolayer"><g class="g-gtitle"><text class="gtitle" x="320" y="50" text-anchor="middle" dy="0.7em" style="opacity: 1; font-family: 'Times New Roman'; font-size: 16px; fill: rgb(0, 0, 0); fill-opacity: 1; white-space: pre;">the Comparison of Agriculture and Food Production</text></g><g class="g-xtitle"><text class="xtitle" x="320" y="448.20625" text-anchor="middle" style="opacity: 1; font-family: 'Times New Roman'; font-size: 14px; fill: rgb(0, 0, 0); fill-opacity: 1; white-space: pre;">Farm size (hectares)</text></g><g class="g-ytitle"><text class="ytitle" transform="rotate(-90,27.69375,250)" x="27.69375" y="250" text-anchor="middle" style="opacity: 1; font-family: 'Times New Roman'; font-size: 14px; fill: rgb(0, 0, 0); fill-opacity: 1; white-space: pre;">Food production cost ($/ton)</text></g></g></svg>