<svg width="1920" height="1440" xmlns="http://www.w3.org/2000/svg" xmlns:xlink="http://www.w3.org/1999/xlink" version="1.1" baseProfile="full" viewBox="0 0 1920 1440">
<rect width="1920" height="1440" x="0" y="0" id="0" fill="#ffffff"></rect>
<polyline points="1147.7 539.6 1227.7 539.6" fill="none" stroke="#000000"></polyline>
<polyline points="1341.1 323.2 1421.1 323.2" fill="none" stroke="#000000"></polyline>
<polyline points="1039.3 756 1119.3 756" fill="none" stroke="#000000"></polyline>
<polyline points="979.7 972.4 1059.7 972.4" fill="none" stroke="#000000"></polyline>
<polyline points="972.4 1188.8 1052.4 1188.8" fill="none" stroke="#000000"></polyline>
<polygon points="524.3 432.4 1203.7 432.4 1091.7 646.8 636.3 646.8" fill="#F7D8DF" stroke="#000000" stroke-linejoin="round"></polygon>
<polygon points="249.6 216 1478.4 216 1203.7 430.4 524.3 430.4" fill="#F0E6E4" stroke="#000000" stroke-linejoin="round"></polygon>
<polygon points="636.3 648.8 1091.7 648.8 986.9 863.2 741.1 863.2" fill="#F47D85" stroke="#000000" stroke-linejoin="round"></polygon>
<polygon points="741.1 865.2 986.9 865.2 972.4 1079.6 755.6 1079.6" fill="#DF4C5B" stroke="#000000" stroke-linejoin="round"></polygon>
<polygon points="755.6 1081.6 972.4 1081.6 972.4 1296 755.6 1296" fill="#989E6A" stroke="#000000" stroke-linejoin="round"></polygon>
<text dominant-baseline="central" text-anchor="start" style="font-size:32px;font-family:Times New Roman;" xml:space="preserve" x="1232.7082352941177" y="539.5999999999999" fill="#000000">Follow Account: 94</text>
<text dominant-baseline="central" text-anchor="start" style="font-size:32px;font-family:Times New Roman;" xml:space="preserve" x="1426.0635294117646" y="323.2" fill="#000000">Share Content: 170</text>
<text dominant-baseline="central" text-anchor="start" style="font-size:32px;font-family:Times New Roman;" xml:space="preserve" x="1124.284705882353" y="756" fill="#000000">Join Group or Community: 63</text>
<text dominant-baseline="central" text-anchor="start" style="font-size:32px;font-family:Times New Roman;" xml:space="preserve" x="1064.6517647058822" y="972.3999999999999" fill="#000000">Content Creation or Upload: 34</text>
<text dominant-baseline="central" text-anchor="start" style="font-size:32px;font-family:Times New Roman;" xml:space="preserve" x="1057.4235294117648" y="1188.8" fill="#000000">Participate in Paid Subscription: 30</text>
<path d="M-412.9062 -5l825.8125 0l0 58l-825.8125 0Z" transform="translate(960 77)" fill="rgb(0,0,0)" fill-opacity="0" stroke="#ccc" stroke-width="0"></path>
<text dominant-baseline="central" text-anchor="middle" style="font-size:48px;font-family:Times New Roman;" xml:space="preserve" y="24" transform="translate(960 77)" fill="#000000">Social Media Engagement (Million Users)</text>
</svg>