<svg width="1920" height="1440" xmlns="http://www.w3.org/2000/svg" xmlns:xlink="http://www.w3.org/1999/xlink" version="1.1" baseProfile="full" viewBox="0 0 1920 1440">
<rect width="1920" height="1440" x="0" y="0" id="0" fill="#ffffff"></rect>
<polyline points="1242.7 665.8 1322.7 665.8" fill="none" stroke="#000000"></polyline>
<polyline points="1343.3 485.5 1423.3 485.5" fill="none" stroke="#000000"></polyline>
<polyline points="1147.4 846.2 1227.4 846.2" fill="none" stroke="#000000"></polyline>
<polyline points="1436 305.2 1516 305.2" fill="none" stroke="#000000"></polyline>
<polyline points="1065.3 1026.5 1145.3 1026.5" fill="none" stroke="#000000"></polyline>
<polyline points="1028.2 1206.8 1108.2 1206.8" fill="none" stroke="#000000"></polyline>
<polygon points="435 576.7 1293 576.7 1192.4 755 535.6 755" fill="#F47D85" stroke="#000000" stroke-linejoin="round"></polygon>
<polygon points="334.3 396.3 1393.7 396.3 1293 574.7 435 574.7" fill="#F7D8DF" stroke="#000000" stroke-linejoin="round"></polygon>
<polygon points="535.6 757 1192.4 757 1102.3 935.3 625.7 935.3" fill="#DF4C5B" stroke="#000000" stroke-linejoin="round"></polygon>
<polygon points="249.6 216 1478.4 216 1393.7 394.3 334.3 394.3" fill="#F0E6E4" stroke="#000000" stroke-linejoin="round"></polygon>
<polygon points="625.7 937.3 1102.3 937.3 1028.2 1115.7 699.8 1115.7" fill="#989E6A" stroke="#000000" stroke-linejoin="round"></polygon>
<polygon points="699.8 1117.7 1028.2 1117.7 1028.2 1296 699.8 1296" fill="#6B8E23" stroke="#000000" stroke-linejoin="round"></polygon>
<text dominant-baseline="central" text-anchor="start" style="font-size:32px;font-family:Times New Roman;" xml:space="preserve" x="1327.7034482758622" y="665.8333333333335" fill="#000000">Follow Account: 81</text>
<text dominant-baseline="central" text-anchor="start" style="font-size:32px;font-family:Times New Roman;" xml:space="preserve" x="1428.3379310344828" y="485.50000000000006" fill="#000000">Share Content: 100</text>
<text dominant-baseline="central" text-anchor="start" style="font-size:32px;font-family:Times New Roman;" xml:space="preserve" x="1232.3655172413794" y="846.1666666666667" fill="#000000">Join Group or Community: 62</text>
<text dominant-baseline="central" text-anchor="start" style="font-size:32px;font-family:Times New Roman;" xml:space="preserve" x="1521.0275862068966" y="305.1666666666667" fill="#000000">Like or Comment: 116</text>
<text dominant-baseline="central" text-anchor="start" style="font-size:32px;font-family:Times New Roman;" xml:space="preserve" x="1150.2689655172414" y="1026.5" fill="#000000">Content Creation or Upload: 45</text>
<text dominant-baseline="central" text-anchor="start" style="font-size:32px;font-family:Times New Roman;" xml:space="preserve" x="1113.193103448276" y="1206.8333333333335" fill="#000000">Participate in Paid Subscription: 31</text>
<path d="M-412.9062 -5l825.8125 0l0 58l-825.8125 0Z" transform="translate(960 77)" fill="rgb(0,0,0)" fill-opacity="0" stroke="#ccc" stroke-width="0"></path>
<text dominant-baseline="central" text-anchor="middle" style="font-size:48px;font-family:Times New Roman;" xml:space="preserve" y="24" transform="translate(960 77)" fill="#000000">Social Media Engagement (Million Users)</text>
</svg>