<svg width="1920" height="1440" xmlns="http://www.w3.org/2000/svg" xmlns:xlink="http://www.w3.org/1999/xlink" version="1.1" baseProfile="full" viewBox="0 0 1920 1440">
<rect width="1920" height="1440" x="0" y="0" id="0" fill="#ffffff"></rect>
<polyline points="974.4 846.2 1054.4 846.2" fill="none" stroke="#000000"></polyline>
<polyline points="1048.8 665.8 1128.8 665.8" fill="none" stroke="#000000"></polyline>
<polyline points="940.8 1026.5 1020.8 1026.5" fill="none" stroke="#000000"></polyline>
<polyline points="931.2 1206.8 1011.2 1206.8" fill="none" stroke="#000000"></polyline>
<polyline points="1358.4 305.2 1438.4 305.2" fill="none" stroke="#000000"></polyline>
<polyline points="1168.8 485.5 1248.8 485.5" fill="none" stroke="#000000"></polyline>
<polygon points="729.6 757 998.4 757 950.4 935.3 777.6 935.3" fill="#A3B3C8" stroke="#000000" stroke-linejoin="round"></polygon>
<polygon points="628.8 576.7 1099.2 576.7 998.4 755 729.6 755" fill="#84709B" stroke="#000000" stroke-linejoin="round"></polygon>
<polygon points="777.6 937.3 950.4 937.3 931.2 1115.7 796.8 1115.7" fill="#B6CAD7" stroke="#000000" stroke-linejoin="round"></polygon>
<polygon points="796.8 1117.7 931.2 1117.7 931.2 1296 796.8 1296" fill="#D2C3D5" stroke="#000000" stroke-linejoin="round"></polygon>
<polygon points="249.6 216 1478.4 216 1238.4 394.3 489.6 394.3" fill="#464879" stroke="#000000" stroke-linejoin="round"></polygon>
<polygon points="489.6 396.3 1238.4 396.3 1099.2 574.7 628.8 574.7" fill="#5D7DB3" stroke="#000000" stroke-linejoin="round"></polygon>
<text dominant-baseline="central" text-anchor="start" style="font-size:32px;font-family:Times New Roman;" xml:space="preserve" x="1059.4" y="846.1666666666667" fill="#000000">Follow Account: 28</text>
<text dominant-baseline="central" text-anchor="start" style="font-size:32px;font-family:Times New Roman;" xml:space="preserve" x="1133.8" y="665.8333333333335" fill="#000000">Share Content: 49</text>
<text dominant-baseline="central" text-anchor="start" style="font-size:32px;font-family:Times New Roman;" xml:space="preserve" x="1025.8" y="1026.5" fill="#000000">Join Group or Community: 18</text>
<text dominant-baseline="central" text-anchor="start" style="font-size:32px;font-family:Times New Roman;" xml:space="preserve" x="1016.1999999999999" y="1206.8333333333335" fill="#000000">Content Creation or Upload: 14</text>
<text dominant-baseline="central" text-anchor="start" style="font-size:32px;font-family:Times New Roman;" xml:space="preserve" x="1443.4" y="305.1666666666667" fill="#000000">View Content: 128</text>
<text dominant-baseline="central" text-anchor="start" style="font-size:32px;font-family:Times New Roman;" xml:space="preserve" x="1253.8000000000002" y="485.50000000000006" fill="#000000">Like or Comment: 78</text>
<path d="M-412.9062 -5l825.8125 0l0 58l-825.8125 0Z" transform="translate(960 77)" fill="rgb(0,0,0)" fill-opacity="0" stroke="#ccc" stroke-width="0"></path>
<text dominant-baseline="central" text-anchor="middle" style="font-size:48px;font-family:Times New Roman;" xml:space="preserve" y="24" transform="translate(960 77)" fill="#000000">Social Media Engagement (Million Users)</text>
</svg>