<svg width="1920" height="1440" xmlns="http://www.w3.org/2000/svg" xmlns:xlink="http://www.w3.org/1999/xlink" version="1.1" baseProfile="full" viewBox="0 0 1920 1440">
<rect width="1920" height="1440" x="0" y="0" id="0" fill="#ffffff"></rect>
<polyline points="992.9 846.2 1072.9 846.2" fill="none" stroke="#000000"></polyline>
<polyline points="1358.3 305.2 1438.3 305.2" fill="none" stroke="#000000"></polyline>
<polyline points="1169.4 485.5 1249.4 485.5" fill="none" stroke="#000000"></polyline>
<polyline points="1051.1 665.8 1131.1 665.8" fill="none" stroke="#000000"></polyline>
<polyline points="975.2 1026.5 1055.2 1026.5" fill="none" stroke="#000000"></polyline>
<polyline points="966.4 1206.8 1046.4 1206.8" fill="none" stroke="#000000"></polyline>
<polygon points="726.3 757 1001.7 757 984.1 935.3 743.9 935.3" fill="#FFC04A" stroke="#000000" stroke-linejoin="round"></polygon>
<polygon points="249.6 216 1478.4 216 1238.3 394.3 489.7 394.3" fill="#FFF5E1" stroke="#000000" stroke-linejoin="round"></polygon>
<polygon points="489.7 396.3 1238.3 396.3 1100.6 574.7 627.4 574.7" fill="#FFE4B5" stroke="#000000" stroke-linejoin="round"></polygon>
<polygon points="627.4 576.7 1100.6 576.7 1001.7 755 726.3 755" fill="#FFD27F" stroke="#000000" stroke-linejoin="round"></polygon>
<polygon points="743.9 937.3 984.1 937.3 966.4 1115.7 761.6 1115.7" fill="#FFAE14" stroke="#000000" stroke-linejoin="round"></polygon>
<polygon points="761.6 1117.7 966.4 1117.7 966.4 1296 761.6 1296" fill="#E69A00" stroke="#000000" stroke-linejoin="round"></polygon>
<text dominant-baseline="central" text-anchor="start" style="font-size:32px;font-family:Times New Roman;" xml:space="preserve" x="1077.8827586206896" y="846.1666666666667" fill="#000000">Follow Account: 39</text>
<text dominant-baseline="central" text-anchor="start" style="font-size:32px;font-family:Times New Roman;" xml:space="preserve" x="1443.344827586207" y="305.1666666666667" fill="#000000">View Content: 174</text>
<text dominant-baseline="central" text-anchor="start" style="font-size:32px;font-family:Times New Roman;" xml:space="preserve" x="1254.4344827586208" y="485.50000000000006" fill="#000000">Like or Comment: 106</text>
<text dominant-baseline="central" text-anchor="start" style="font-size:32px;font-family:Times New Roman;" xml:space="preserve" x="1136.144827586207" y="665.8333333333335" fill="#000000">Share Content: 67</text>
<text dominant-baseline="central" text-anchor="start" style="font-size:32px;font-family:Times New Roman;" xml:space="preserve" x="1060.2275862068966" y="1026.5" fill="#000000">Join Group or Community: 34</text>
<text dominant-baseline="central" text-anchor="start" style="font-size:32px;font-family:Times New Roman;" xml:space="preserve" x="1051.4" y="1206.8333333333335" fill="#000000">Content Creation or Upload: 29</text>
<path d="M-412.9062 -5l825.8125 0l0 58l-825.8125 0Z" transform="translate(960 77)" fill="rgb(0,0,0)" fill-opacity="0" stroke="#ccc" stroke-width="0"></path>
<text dominant-baseline="central" text-anchor="middle" style="font-size:48px;font-family:Times New Roman;" xml:space="preserve" y="24" transform="translate(960 77)" fill="#000000">Social Media Engagement (Million Users)</text>
</svg>