<svg width="1920" height="1440" xmlns="http://www.w3.org/2000/svg" xmlns:xlink="http://www.w3.org/1999/xlink" version="1.1" baseProfile="full" viewBox="0 0 1920 1440">
<rect width="1920" height="1440" x="0" y="0" id="0" fill="#ffffff"></rect>
<polyline points="1059.6 846.2 1139.6 846.2" fill="none" stroke="#000000"></polyline>
<polyline points="1010.5 1026.5 1090.5 1026.5" fill="none" stroke="#000000"></polyline>
<polyline points="1258.3 485.5 1338.3 485.5" fill="none" stroke="#000000"></polyline>
<polyline points="1149.7 665.8 1229.7 665.8" fill="none" stroke="#000000"></polyline>
<polyline points="1394.8 305.2 1474.8 305.2" fill="none" stroke="#000000"></polyline>
<polyline points="995.9 1206.8 1075.9 1206.8" fill="none" stroke="#000000"></polyline>
<polygon points="633.9 757 1094.1 757 1025.1 935.3 702.9 935.3" fill="#FFC04A" stroke="#000000" stroke-linejoin="round"></polygon>
<polygon points="702.9 937.3 1025.1 937.3 995.9 1115.7 732.1 1115.7" fill="#FFAE14" stroke="#000000" stroke-linejoin="round"></polygon>
<polygon points="416.9 396.3 1311.1 396.3 1205.4 574.7 522.6 574.7" fill="#FFE4B5" stroke="#000000" stroke-linejoin="round"></polygon>
<polygon points="522.6 576.7 1205.4 576.7 1094.1 755 633.9 755" fill="#FFD27F" stroke="#000000" stroke-linejoin="round"></polygon>
<polygon points="249.6 216 1478.4 216 1311.1 394.3 416.9 394.3" fill="#FFF5E1" stroke="#000000" stroke-linejoin="round"></polygon>
<polygon points="732.1 1117.7 995.9 1117.7 995.9 1296 732.1 1296" fill="#E69A00" stroke="#000000" stroke-linejoin="round"></polygon>
<text dominant-baseline="central" text-anchor="start" style="font-size:32px;font-family:Times New Roman;" xml:space="preserve" x="1144.5845723868083" y="846.1666666666667" fill="#000000">Fan Engagement: 670</text>
<text dominant-baseline="central" text-anchor="start" style="font-size:32px;font-family:Times New Roman;" xml:space="preserve" x="1095.4737842370039" y="1026.5" fill="#000000">Post-Event Feedback: 469</text>
<text dominant-baseline="central" text-anchor="start" style="font-size:32px;font-family:Times New Roman;" xml:space="preserve" x="1343.2600335382895" y="485.50000000000006" fill="#000000">Ticket Purchase: 1302</text>
<text dominant-baseline="central" text-anchor="start" style="font-size:32px;font-family:Times New Roman;" xml:space="preserve" x="1234.7354946897708" y="665.8333333333335" fill="#000000">Event Attendance: 994</text>
<text dominant-baseline="central" text-anchor="start" style="font-size:32px;font-family:Times New Roman;" xml:space="preserve" x="1479.774287311347" y="305.1666666666667" fill="#000000">Event Announcement: 1789</text>
<text dominant-baseline="central" text-anchor="start" style="font-size:32px;font-family:Times New Roman;" xml:space="preserve" x="1080.877920626048" y="1206.8333333333335" fill="#000000">Merchandise Purchase: 384</text>
<path d="M-392.2578 -5l784.5156 0l0 58l-784.5156 0Z" transform="translate(960 77)" fill="rgb(0,0,0)" fill-opacity="0" stroke="#ccc" stroke-width="0"></path>
<text dominant-baseline="central" text-anchor="middle" style="font-size:48px;font-family:Times New Roman;" xml:space="preserve" y="24" transform="translate(960 77)" fill="#000000">Sports Event Participation (Participants)</text>
</svg>