<svg width="1920" height="1440" xmlns="http://www.w3.org/2000/svg" xmlns:xlink="http://www.w3.org/1999/xlink" version="1.1" baseProfile="full" viewBox="0 0 1920 1440">
<rect width="1920" height="1440" x="0" y="0" id="0" fill="#ffffff"></rect>
<polyline points="1021 756 1101 756" fill="none" stroke="#000000"></polyline>
<polyline points="1085.9 601.4 1165.9 601.4" fill="none" stroke="#000000"></polyline>
<polyline points="1368.9 292.3 1448.9 292.3" fill="none" stroke="#000000"></polyline>
<polyline points="1195.4 446.9 1275.4 446.9" fill="none" stroke="#000000"></polyline>
<polyline points="1001.5 910.6 1081.5 910.6" fill="none" stroke="#000000"></polyline>
<polyline points="994.4 1065.1 1074.4 1065.1" fill="none" stroke="#000000"></polyline>
<polyline points="987.3 1219.7 1067.3 1219.7" fill="none" stroke="#000000"></polyline>
<polygon points="687.5 679.7 1040.5 679.7 1001.5 832.3 726.5 832.3" fill="#6A9AAA" stroke="#000000" stroke-linejoin="round"></polygon>
<polygon points="596.7 525.1 1131.3 525.1 1040.5 677.7 687.5 677.7" fill="#7AA9BD" stroke="#000000" stroke-linejoin="round"></polygon>
<polygon points="249.6 216 1478.4 216 1259.4 368.6 468.6 368.6" fill="#9AC7E3" stroke="#000000" stroke-linejoin="round"></polygon>
<polygon points="468.6 370.6 1259.4 370.6 1131.3 523.1 596.7 523.1" fill="#8AB8D0" stroke="#000000" stroke-linejoin="round"></polygon>
<polygon points="726.5 834.3 1001.5 834.3 1001.5 986.9 726.5 986.9" fill="#5A8B97" stroke="#000000" stroke-linejoin="round"></polygon>
<polygon points="726.5 988.9 1001.5 988.9 987.3 1141.4 740.7 1141.4" fill="#4A7C84" stroke="#000000" stroke-linejoin="round"></polygon>
<polygon points="740.7 1143.4 987.3 1143.4 987.3 1296 740.7 1296" fill="#3C6E71" stroke="#000000" stroke-linejoin="round"></polygon>
<text dominant-baseline="central" text-anchor="start" style="font-size:32px;font-family:Times New Roman;" xml:space="preserve" x="1105.9672849915682" y="756" fill="#000000">Fan Engagement: 511</text>
<text dominant-baseline="central" text-anchor="start" style="font-size:32px;font-family:Times New Roman;" xml:space="preserve" x="1170.89544688027" y="601.4285714285713" fill="#000000">Event Attendance: 774</text>
<text dominant-baseline="central" text-anchor="start" style="font-size:32px;font-family:Times New Roman;" xml:space="preserve" x="1453.9200674536257" y="292.2857142857143" fill="#000000">Event Announcement: 1779</text>
<text dominant-baseline="central" text-anchor="start" style="font-size:32px;font-family:Times New Roman;" xml:space="preserve" x="1280.3753794266443" y="446.85714285714283" fill="#000000">Ticket Purchase: 1145</text>
<text dominant-baseline="central" text-anchor="start" style="font-size:32px;font-family:Times New Roman;" xml:space="preserve" x="1086.454300168634" y="910.5714285714284" fill="#000000">Post-Event Feedback: 398</text>
<text dominant-baseline="central" text-anchor="start" style="font-size:32px;font-family:Times New Roman;" xml:space="preserve" x="1079.3743676222598" y="1065.142857142857" fill="#000000">Merchandise Purchase: 398</text>
<text dominant-baseline="central" text-anchor="start" style="font-size:32px;font-family:Times New Roman;" xml:space="preserve" x="1072.2944350758853" y="1219.7142857142858" fill="#000000">Event Reattendance: 357</text>
<path d="M-392.2578 -5l784.5156 0l0 58l-784.5156 0Z" transform="translate(960 77)" fill="rgb(0,0,0)" fill-opacity="0" stroke="#ccc" stroke-width="0"></path>
<text dominant-baseline="central" text-anchor="middle" style="font-size:48px;font-family:Times New Roman;" xml:space="preserve" y="24" transform="translate(960 77)" fill="#000000">Sports Event Participation (Participants)</text>
</svg>