<svg width="1920" height="1440" xmlns="http://www.w3.org/2000/svg" xmlns:xlink="http://www.w3.org/1999/xlink" version="1.1" baseProfile="full" viewBox="0 0 1920 1440">
<rect width="1920" height="1440" x="0" y="0" id="0" fill="#ffffff"></rect>
<polyline points="933 1188.8 1013 1188.8" fill="none" stroke="#000000"></polyline>
<polyline points="1136.1 539.6 1216.1 539.6" fill="none" stroke="#000000"></polyline>
<polyline points="1003.8 756 1083.8 756" fill="none" stroke="#000000"></polyline>
<polyline points="940.8 972.4 1020.8 972.4" fill="none" stroke="#000000"></polyline>
<polyline points="1345.8 323.2 1425.8 323.2" fill="none" stroke="#000000"></polyline>
<polygon points="795 1081.6 933 1081.6 933 1296 795 1296" fill="#5A8B97" stroke="#000000" stroke-linejoin="round"></polygon>
<polygon points="514.8 432.4 1213.2 432.4 1059 646.8 669 646.8" fill="#8AB8D0" stroke="#000000" stroke-linejoin="round"></polygon>
<polygon points="669 648.8 1059 648.8 948.6 863.2 779.4 863.2" fill="#7AA9BD" stroke="#000000" stroke-linejoin="round"></polygon>
<polygon points="779.4 865.2 948.6 865.2 933 1079.6 795 1079.6" fill="#6A9AAA" stroke="#000000" stroke-linejoin="round"></polygon>
<polygon points="249.6 216 1478.4 216 1213.2 430.4 514.8 430.4" fill="#9AC7E3" stroke="#000000" stroke-linejoin="round"></polygon>
<text dominant-baseline="central" text-anchor="start" style="font-size:32px;font-family:Times New Roman;" xml:space="preserve" x="1018" y="1188.8" fill="#000000">Make Reservation: 115</text>
<text dominant-baseline="central" text-anchor="start" style="font-size:32px;font-family:Times New Roman;" xml:space="preserve" x="1221.1" y="539.5999999999999" fill="#000000">Search Travel Packages: 582</text>
<text dominant-baseline="central" text-anchor="start" style="font-size:32px;font-family:Times New Roman;" xml:space="preserve" x="1088.8" y="756" fill="#000000">Select Accommodation: 325</text>
<text dominant-baseline="central" text-anchor="start" style="font-size:32px;font-family:Times New Roman;" xml:space="preserve" x="1025.8" y="972.3999999999999" fill="#000000">Book Flight: 141</text>
<text dominant-baseline="central" text-anchor="start" style="font-size:32px;font-family:Times New Roman;" xml:space="preserve" x="1430.8000000000002" y="323.2" fill="#000000">View Destination Info: 1024</text>
<path d="M-469.3906 -5l938.7813 0l0 58l-938.7812 0Z" transform="translate(960 77)" fill="rgb(0,0,0)" fill-opacity="0" stroke="#ccc" stroke-width="0"></path>
<text dominant-baseline="central" text-anchor="middle" style="font-size:48px;font-family:Times New Roman;" xml:space="preserve" y="24" transform="translate(960 77)" fill="#000000">Tourist Booking and Travel (Thousand Tourists)</text>
</svg>