<svg width="1920" height="1440" xmlns="http://www.w3.org/2000/svg" xmlns:xlink="http://www.w3.org/1999/xlink" version="1.1" baseProfile="full" viewBox="0 0 1920 1440">
<rect width="1920" height="1440" x="0" y="0" id="0" fill="#ffffff"></rect>
<polyline points="1001.2 891.3 1081.2 891.3" fill="none" stroke="#000000"></polyline>
<polyline points="1117.5 620.8 1197.5 620.8" fill="none" stroke="#000000"></polyline>
<polyline points="987.4 1161.8 1067.4 1161.8" fill="none" stroke="#000000"></polyline>
<polyline points="1349.1 350.3 1429.1 350.3" fill="none" stroke="#000000"></polyline>
<polygon points="712.9 757 1015.1 757 987.4 1025.5 740.6 1025.5" fill="#F47D85" stroke="#000000" stroke-linejoin="round"></polygon>
<polygon points="508.1 486.5 1219.9 486.5 1015.1 755 712.9 755" fill="#F7D8DF" stroke="#000000" stroke-linejoin="round"></polygon>
<polygon points="740.6 1027.5 987.4 1027.5 987.4 1296 740.6 1296" fill="#DF4C5B" stroke="#000000" stroke-linejoin="round"></polygon>
<polygon points="249.6 216 1478.4 216 1219.9 484.5 508.1 484.5" fill="#F0E6E4" stroke="#000000" stroke-linejoin="round"></polygon>
<text dominant-baseline="central" text-anchor="start" style="font-size:32px;font-family:Times New Roman;" xml:space="preserve" x="1086.2425974025975" y="891.25" fill="#000000">Make Reservation: 568</text>
<text dominant-baseline="central" text-anchor="start" style="font-size:32px;font-family:Times New Roman;" xml:space="preserve" x="1202.4732467532467" y="620.75" fill="#000000">Book Flight: 1338</text>
<text dominant-baseline="central" text-anchor="start" style="font-size:32px;font-family:Times New Roman;" xml:space="preserve" x="1072.411948051948" y="1161.75" fill="#000000">Travel to Destination: 464</text>
<text dominant-baseline="central" text-anchor="start" style="font-size:32px;font-family:Times New Roman;" xml:space="preserve" x="1434.1366233766234" y="350.25" fill="#000000">Select Accommodation: 2310</text>
<path d="M-469.3906 -5l938.7813 0l0 58l-938.7812 0Z" transform="translate(960 77)" fill="rgb(0,0,0)" fill-opacity="0" stroke="#ccc" stroke-width="0"></path>
<text dominant-baseline="central" text-anchor="middle" style="font-size:48px;font-family:Times New Roman;" xml:space="preserve" y="24" transform="translate(960 77)" fill="#000000">Tourist Booking and Travel (Thousand Tourists)</text>
</svg>