<svg width="1920" height="1440" xmlns="http://www.w3.org/2000/svg" xmlns:xlink="http://www.w3.org/1999/xlink" version="1.1" baseProfile="full" viewBox="0 0 1920 1440">
<rect width="1920" height="1440" x="0" y="0" id="0" fill="#ffffff"></rect>
<polyline points="1080.7 756 1160.7 756" fill="none" stroke="#000000"></polyline>
<polyline points="1047.4 910.6 1127.4 910.6" fill="none" stroke="#000000"></polyline>
<polyline points="1006 1065.1 1086 1065.1" fill="none" stroke="#000000"></polyline>
<polyline points="997.6 1219.7 1077.6 1219.7" fill="none" stroke="#000000"></polyline>
<polyline points="1405 292.3 1485 292.3" fill="none" stroke="#000000"></polyline>
<polyline points="1251.4 446.9 1331.4 446.9" fill="none" stroke="#000000"></polyline>
<polyline points="1126.1 601.4 1206.1 601.4" fill="none" stroke="#000000"></polyline>
<polygon points="647.1 679.7 1080.9 679.7 1080.6 832.3 647.4 832.3" fill="#DF4C5B" stroke="#000000" stroke-linejoin="round"></polygon>
<polygon points="647.4 834.3 1080.6 834.3 1014.3 986.9 713.7 986.9" fill="#989E6A" stroke="#000000" stroke-linejoin="round"></polygon>
<polygon points="713.7 988.9 1014.3 988.9 997.6 1141.4 730.4 1141.4" fill="#6B8E23" stroke="#000000" stroke-linejoin="round"></polygon>
<polygon points="730.4 1143.4 997.6 1143.4 997.6 1296 730.4 1296" fill="#5D6E4A" stroke="#000000" stroke-linejoin="round"></polygon>
<polygon points="249.6 216 1478.4 216 1331.6 368.6 396.4 368.6" fill="#F0E6E4" stroke="#000000" stroke-linejoin="round"></polygon>
<polygon points="396.4 370.6 1331.6 370.6 1171.2 523.1 556.8 523.1" fill="#F7D8DF" stroke="#000000" stroke-linejoin="round"></polygon>
<polygon points="556.8 525.1 1171.2 525.1 1080.9 677.7 647.1 677.7" fill="#F47D85" stroke="#000000" stroke-linejoin="round"></polygon>
<text dominant-baseline="central" text-anchor="start" style="font-size:32px;font-family:Times New Roman;" xml:space="preserve" x="1165.7445145018914" y="756" fill="#000000">Make Reservation: 560</text>
<text dominant-baseline="central" text-anchor="start" style="font-size:32px;font-family:Times New Roman;" xml:space="preserve" x="1132.4290037831022" y="910.5714285714284" fill="#000000">Travel to Destination: 559</text>
<text dominant-baseline="central" text-anchor="start" style="font-size:32px;font-family:Times New Roman;" xml:space="preserve" x="1090.9783102143758" y="1065.142857142857" fill="#000000">Check-in at Hotel: 388</text>
<text dominant-baseline="central" text-anchor="start" style="font-size:32px;font-family:Times New Roman;" xml:space="preserve" x="1082.6494325346785" y="1219.7142857142858" fill="#000000">Leave Review: 345</text>
<text dominant-baseline="central" text-anchor="start" style="font-size:32px;font-family:Times New Roman;" xml:space="preserve" x="1489.9896595208072" y="292.2857142857143" fill="#000000">Search Travel Packages: 1586</text>
<text dominant-baseline="central" text-anchor="start" style="font-size:32px;font-family:Times New Roman;" xml:space="preserve" x="1336.389659520807" y="446.85714285714283" fill="#000000">Select Accommodation: 1207</text>
<text dominant-baseline="central" text-anchor="start" style="font-size:32px;font-family:Times New Roman;" xml:space="preserve" x="1211.069104665826" y="601.4285714285713" fill="#000000">Book Flight: 793</text>
<path d="M-469.3906 -5l938.7813 0l0 58l-938.7812 0Z" transform="translate(960 77)" fill="rgb(0,0,0)" fill-opacity="0" stroke="#ccc" stroke-width="0"></path>
<text dominant-baseline="central" text-anchor="middle" style="font-size:48px;font-family:Times New Roman;" xml:space="preserve" y="24" transform="translate(960 77)" fill="#000000">Tourist Booking and Travel (Thousand Tourists)</text>
</svg>