<svg width="1920" height="1440" xmlns="http://www.w3.org/2000/svg" xmlns:xlink="http://www.w3.org/1999/xlink" version="1.1" baseProfile="full" viewBox="0 0 1920 1440">
<rect width="1920" height="1440" x="0" y="0" id="0" fill="#ffffff"></rect>
<polyline points="1002.1 891.3 1082.1 891.3" fill="none" stroke="#000000"></polyline>
<polyline points="992.4 1161.8 1072.4 1161.8" fill="none" stroke="#000000"></polyline>
<polyline points="1328.4 350.3 1408.4 350.3" fill="none" stroke="#000000"></polyline>
<polyline points="1095 620.8 1175 620.8" fill="none" stroke="#000000"></polyline>
<polygon points="716.2 757 1011.8 757 992.4 1025.5 735.6 1025.5" fill="#FFD27F" stroke="#000000" stroke-linejoin="round"></polygon>
<polygon points="735.6 1027.5 992.4 1027.5 992.4 1296 735.6 1296" fill="#FFC04A" stroke="#000000" stroke-linejoin="round"></polygon>
<polygon points="249.6 216 1478.4 216 1178.3 484.5 549.7 484.5" fill="#FFF5E1" stroke="#000000" stroke-linejoin="round"></polygon>
<polygon points="549.7 486.5 1178.3 486.5 1011.8 755 716.2 755" fill="#FFE4B5" stroke="#000000" stroke-linejoin="round"></polygon>
<text dominant-baseline="central" text-anchor="start" style="font-size:32px;font-family:Times New Roman;" xml:space="preserve" x="1087.0545961002786" y="891.25" fill="#000000">Book Flight: 259</text>
<text dominant-baseline="central" text-anchor="start" style="font-size:32px;font-family:Times New Roman;" xml:space="preserve" x="1077.3565459610027" y="1161.75" fill="#000000">Make Reservation: 225</text>
<text dominant-baseline="central" text-anchor="start" style="font-size:32px;font-family:Times New Roman;" xml:space="preserve" x="1413.365459610028" y="350.25" fill="#000000">Search Travel Packages: 1077</text>
<text dominant-baseline="central" text-anchor="start" style="font-size:32px;font-family:Times New Roman;" xml:space="preserve" x="1180.0417827298052" y="620.75" fill="#000000">Select Accommodation: 551</text>
<path d="M-469.3906 -5l938.7813 0l0 58l-938.7812 0Z" transform="translate(960 77)" fill="rgb(0,0,0)" fill-opacity="0" stroke="#ccc" stroke-width="0"></path>
<text dominant-baseline="central" text-anchor="middle" style="font-size:48px;font-family:Times New Roman;" xml:space="preserve" y="24" transform="translate(960 77)" fill="#000000">Tourist Booking and Travel (Thousand Tourists)</text>
</svg>