<svg width="1920" height="1440" xmlns="http://www.w3.org/2000/svg" xmlns:xlink="http://www.w3.org/1999/xlink" version="1.1" baseProfile="full" viewBox="0 0 1920 1440">
<rect width="1920" height="1440" x="0" y="0" id="0" fill="#ffffff"></rect>
<polyline points="1056.4 910.6 1136.4 910.6" fill="none" stroke="#000000"></polyline>
<polyline points="1245.3 601.4 1325.3 601.4" fill="none" stroke="#000000"></polyline>
<polyline points="1148.1 756 1228.1 756" fill="none" stroke="#000000"></polyline>
<polyline points="973.5 1065.1 1053.5 1065.1" fill="none" stroke="#000000"></polyline>
<polyline points="1430.3 292.3 1510.3 292.3" fill="none" stroke="#000000"></polyline>
<polyline points="1337.4 446.9 1417.4 446.9" fill="none" stroke="#000000"></polyline>
<polyline points="932.5 1219.7 1012.5 1219.7" fill="none" stroke="#000000"></polyline>
<polygon points="629.7 834.3 1098.3 834.3 1014.5 986.9 713.5 986.9" fill="#989E6A" stroke="#000000" stroke-linejoin="round"></polygon>
<polygon points="435.3 525.1 1292.7 525.1 1198 677.7 530 677.7" fill="#F47D85" stroke="#000000" stroke-linejoin="round"></polygon>
<polygon points="530 679.7 1198 679.7 1098.3 832.3 629.7 832.3" fill="#DF4C5B" stroke="#000000" stroke-linejoin="round"></polygon>
<polygon points="713.5 988.9 1014.5 988.9 932.5 1141.4 795.5 1141.4" fill="#6B8E23" stroke="#000000" stroke-linejoin="round"></polygon>
<polygon points="249.6 216 1478.4 216 1382.2 368.6 345.8 368.6" fill="#F0E6E4" stroke="#000000" stroke-linejoin="round"></polygon>
<polygon points="345.8 370.6 1382.2 370.6 1292.7 523.1 435.3 523.1" fill="#F7D8DF" stroke="#000000" stroke-linejoin="round"></polygon>
<polygon points="795.5 1143.4 932.5 1143.4 932.5 1296 795.5 1296" fill="#5D6E4A" stroke="#000000" stroke-linejoin="round"></polygon>
<text dominant-baseline="central" text-anchor="start" style="font-size:32px;font-family:Times New Roman;" xml:space="preserve" x="1141.3690993236028" y="910.5714285714284" fill="#000000">Make Reservation: 1071</text>
<text dominant-baseline="central" text-anchor="start" style="font-size:32px;font-family:Times New Roman;" xml:space="preserve" x="1330.3479530081881" y="601.4285714285713" fill="#000000">Select Accommodation: 1960</text>
<text dominant-baseline="central" text-anchor="start" style="font-size:32px;font-family:Times New Roman;" xml:space="preserve" x="1233.1244571021716" y="756" fill="#000000">Book Flight: 1527</text>
<text dominant-baseline="central" text-anchor="start" style="font-size:32px;font-family:Times New Roman;" xml:space="preserve" x="1058.4721253114988" y="1065.142857142857" fill="#000000">Travel to Destination: 688</text>
<text dominant-baseline="central" text-anchor="start" style="font-size:32px;font-family:Times New Roman;" xml:space="preserve" x="1515.280384478462" y="292.2857142857143" fill="#000000">View Destination Info: 2809</text>
<text dominant-baseline="central" text-anchor="start" style="font-size:32px;font-family:Times New Roman;" xml:space="preserve" x="1422.4313990744038" y="446.85714285714283" fill="#000000">Search Travel Packages: 2369</text>
<text dominant-baseline="central" text-anchor="start" style="font-size:32px;font-family:Times New Roman;" xml:space="preserve" x="1017.4610893556426" y="1219.7142857142858" fill="#000000">Check-in at Hotel: 313</text>
<path d="M-469.3906 -5l938.7813 0l0 58l-938.7812 0Z" transform="translate(960 77)" fill="rgb(0,0,0)" fill-opacity="0" stroke="#ccc" stroke-width="0"></path>
<text dominant-baseline="central" text-anchor="middle" style="font-size:48px;font-family:Times New Roman;" xml:space="preserve" y="24" transform="translate(960 77)" fill="#000000">Tourist Booking and Travel (Thousand Tourists)</text>
</svg>