<svg width="1920" height="1440" xmlns="http://www.w3.org/2000/svg" xmlns:xlink="http://www.w3.org/1999/xlink" version="1.1" baseProfile="full" viewBox="0 0 1920 1440">
<rect width="1920" height="1440" x="0" y="0" id="0" fill="#ffffff"></rect>
<polyline points="1043.7 665.8 1123.7 665.8" fill="none" stroke="#000000"></polyline>
<polyline points="970.4 846.2 1050.4 846.2" fill="none" stroke="#000000"></polyline>
<polyline points="935.6 1026.5 1015.6 1026.5" fill="none" stroke="#000000"></polyline>
<polyline points="930.8 1206.8 1010.8 1206.8" fill="none" stroke="#000000"></polyline>
<polyline points="1378.7 305.2 1458.7 305.2" fill="none" stroke="#000000"></polyline>
<polyline points="1183 485.5 1263 485.5" fill="none" stroke="#000000"></polyline>
<polygon points="641 576.7 1087 576.7 1000.4 755 727.6 755" fill="#F47D85" stroke="#000000" stroke-linejoin="round"></polygon>
<polygon points="727.6 757 1000.4 757 940.3 935.3 787.7 935.3" fill="#DF4C5B" stroke="#000000" stroke-linejoin="round"></polygon>
<polygon points="787.7 937.3 940.3 937.3 930.8 1115.7 797.2 1115.7" fill="#989E6A" stroke="#000000" stroke-linejoin="round"></polygon>
<polygon points="797.2 1117.7 930.8 1117.7 930.8 1296 797.2 1296" fill="#6B8E23" stroke="#000000" stroke-linejoin="round"></polygon>
<polygon points="249.6 216 1478.4 216 1279 394.3 449 394.3" fill="#F0E6E4" stroke="#000000" stroke-linejoin="round"></polygon>
<polygon points="449 396.3 1279 396.3 1087 574.7 641 574.7" fill="#F7D8DF" stroke="#000000" stroke-linejoin="round"></polygon>
<text dominant-baseline="central" text-anchor="start" style="font-size:32px;font-family:Times New Roman;" xml:space="preserve" x="1128.712" y="665.8333333333335" fill="#000000">Book Transport Service: 871</text>
<text dominant-baseline="central" text-anchor="start" style="font-size:32px;font-family:Times New Roman;" xml:space="preserve" x="1055.368" y="846.1666666666667" fill="#000000">Prepare for Pickup: 533</text>
<text dominant-baseline="central" text-anchor="start" style="font-size:32px;font-family:Times New Roman;" xml:space="preserve" x="1020.552" y="1026.5" fill="#000000">Begin Transportation: 298</text>
<text dominant-baseline="central" text-anchor="start" style="font-size:32px;font-family:Times New Roman;" xml:space="preserve" x="1015.816" y="1206.8333333333335" fill="#000000">Complete Delivery: 261</text>
<text dominant-baseline="central" text-anchor="start" style="font-size:32px;font-family:Times New Roman;" xml:space="preserve" x="1463.688" y="305.1666666666667" fill="#000000">Search Transport Options: 2400</text>
<text dominant-baseline="central" text-anchor="start" style="font-size:32px;font-family:Times New Roman;" xml:space="preserve" x="1267.976" y="485.50000000000006" fill="#000000">Select Carrier or Service: 1621</text>
<path d="M-564.2656 -5l1128.5313 0l0 58l-1128.5312 0Z" transform="translate(960 77)" fill="rgb(0,0,0)" fill-opacity="0" stroke="#ccc" stroke-width="0"></path>
<text dominant-baseline="central" text-anchor="middle" style="font-size:48px;font-family:Times New Roman;" xml:space="preserve" y="24" transform="translate(960 77)" fill="#000000">Freight Logistics Order Processing (Thousand Shipments)</text>
</svg>