<svg width="1920" height="1440" xmlns="http://www.w3.org/2000/svg" xmlns:xlink="http://www.w3.org/1999/xlink" version="1.1" baseProfile="full" viewBox="0 0 1920 1440">
<rect width="1920" height="1440" x="0" y="0" id="0" fill="#ffffff"></rect>
<polyline points="1081.3 620.8 1161.3 620.8" fill="none" stroke="#000000"></polyline>
<polyline points="1324.8 350.3 1404.8 350.3" fill="none" stroke="#000000"></polyline>
<polyline points="981.7 891.3 1061.7 891.3" fill="none" stroke="#000000"></polyline>
<polyline points="972 1161.8 1052 1161.8" fill="none" stroke="#000000"></polyline>
<polygon points="556.9 486.5 1171.1 486.5 991.4 755 736.6 755" fill="#8AB8D0" stroke="#000000" stroke-linejoin="round"></polygon>
<polygon points="249.6 216 1478.4 216 1171.1 484.5 556.9 484.5" fill="#9AC7E3" stroke="#000000" stroke-linejoin="round"></polygon>
<polygon points="736.6 757 991.4 757 972 1025.5 756 1025.5" fill="#7AA9BD" stroke="#000000" stroke-linejoin="round"></polygon>
<polygon points="756 1027.5 972 1027.5 972 1296 756 1296" fill="#6A9AAA" stroke="#000000" stroke-linejoin="round"></polygon>
<text dominant-baseline="central" text-anchor="start" style="font-size:32px;font-family:Times New Roman;" xml:space="preserve" x="1166.274010432648" y="620.75" fill="#000000">Prepare for Pickup: 1629</text>
<text dominant-baseline="central" text-anchor="start" style="font-size:32px;font-family:Times New Roman;" xml:space="preserve" x="1409.7528689782143" y="350.25" fill="#000000">Book Transport Service: 3259</text>
<text dominant-baseline="central" text-anchor="start" style="font-size:32px;font-family:Times New Roman;" xml:space="preserve" x="1066.733292420988" y="891.25" fill="#000000">Begin Transportation: 676</text>
<text dominant-baseline="central" text-anchor="start" style="font-size:32px;font-family:Times New Roman;" xml:space="preserve" x="1057.0243019331083" y="1161.75" fill="#000000">Complete Delivery: 573</text>
<path d="M-564.2656 -5l1128.5313 0l0 58l-1128.5312 0Z" transform="translate(960 77)" fill="rgb(0,0,0)" fill-opacity="0" stroke="#ccc" stroke-width="0"></path>
<text dominant-baseline="central" text-anchor="middle" style="font-size:48px;font-family:Times New Roman;" xml:space="preserve" y="24" transform="translate(960 77)" fill="#000000">Freight Logistics Order Processing (Thousand Shipments)</text>
</svg>