<svg width="1920" height="1440" xmlns="http://www.w3.org/2000/svg" xmlns:xlink="http://www.w3.org/1999/xlink" version="1.1" baseProfile="full" viewBox="0 0 1920 1440">
<rect width="1920" height="1440" x="0" y="0" id="0" fill="#ffffff"></rect>
<polyline points="1006.2 891.3 1086.2 891.3" fill="none" stroke="#000000"></polyline>
<polyline points="995.2 1161.8 1075.2 1161.8" fill="none" stroke="#000000"></polyline>
<polyline points="1324.8 350.3 1404.8 350.3" fill="none" stroke="#000000"></polyline>
<polyline points="1094.2 620.8 1174.2 620.8" fill="none" stroke="#000000"></polyline>
<polygon points="710.7 757 1017.3 757 995.2 1025.5 732.8 1025.5" fill="#7892B5" stroke="#000000" stroke-linejoin="round"></polygon>
<polygon points="732.8 1027.5 995.2 1027.5 995.2 1296 732.8 1296" fill="#8CB9C0" stroke="#000000" stroke-linejoin="round"></polygon>
<polygon points="249.6 216 1478.4 216 1171.2 484.5 556.8 484.5" fill="#E9B9AA" stroke="#000000" stroke-linejoin="round"></polygon>
<polygon points="556.8 486.5 1171.2 486.5 1017.3 755 710.7 755" fill="#D98481" stroke="#000000" stroke-linejoin="round"></polygon>
<text dominant-baseline="central" text-anchor="start" style="font-size:32px;font-family:Times New Roman;" xml:space="preserve" x="1091.2462513199578" y="891.25" fill="#000000">Prepare for Pickup: 945</text>
<text dominant-baseline="central" text-anchor="start" style="font-size:32px;font-family:Times New Roman;" xml:space="preserve" x="1080.2168954593453" y="1161.75" fill="#000000">Begin Transportation: 809</text>
<text dominant-baseline="central" text-anchor="start" style="font-size:32px;font-family:Times New Roman;" xml:space="preserve" x="1409.8000000000002" y="350.25" fill="#000000">Select Carrier or Service: 3788</text>
<text dominant-baseline="central" text-anchor="start" style="font-size:32px;font-family:Times New Roman;" xml:space="preserve" x="1179.2378035902852" y="620.75" fill="#000000">Book Transport Service: 1894</text>
<path d="M-564.2656 -5l1128.5313 0l0 58l-1128.5312 0Z" transform="translate(960 77)" fill="rgb(0,0,0)" fill-opacity="0" stroke="#ccc" stroke-width="0"></path>
<text dominant-baseline="central" text-anchor="middle" style="font-size:48px;font-family:Times New Roman;" xml:space="preserve" y="24" transform="translate(960 77)" fill="#000000">Freight Logistics Order Processing (Thousand Shipments)</text>
</svg>