<svg width="1920" height="1440" xmlns="http://www.w3.org/2000/svg" xmlns:xlink="http://www.w3.org/1999/xlink" version="1.1" baseProfile="full" viewBox="0 0 1920 1440">
<rect width="1920" height="1440" x="0" y="0" id="0" fill="#ffffff"></rect>
<polyline points="1081.4 891.3 1161.4 891.3" fill="none" stroke="#000000"></polyline>
<polyline points="1400.7 350.3 1480.7 350.3" fill="none" stroke="#000000"></polyline>
<polyline points="1236.6 620.8 1316.6 620.8" fill="none" stroke="#000000"></polyline>
<polyline points="1012.5 1161.8 1092.5 1161.8" fill="none" stroke="#000000"></polyline>
<polygon points="577.7 757 1150.3 757 1012.5 1025.5 715.5 1025.5" fill="#F47D85" stroke="#000000" stroke-linejoin="round"></polygon>
<polygon points="249.6 216 1478.4 216 1322.9 484.5 405.1 484.5" fill="#F0E6E4" stroke="#000000" stroke-linejoin="round"></polygon>
<polygon points="405.1 486.5 1322.9 486.5 1150.3 755 577.7 755" fill="#F7D8DF" stroke="#000000" stroke-linejoin="round"></polygon>
<polygon points="715.5 1027.5 1012.5 1027.5 1012.5 1296 715.5 1296" fill="#DF4C5B" stroke="#000000" stroke-linejoin="round"></polygon>
<text dominant-baseline="central" text-anchor="start" style="font-size:32px;font-family:Times New Roman;" xml:space="preserve" x="1166.39121706399" y="891.25" fill="#000000">Prepare for Pickup: 1114</text>
<text dominant-baseline="central" text-anchor="start" style="font-size:32px;font-family:Times New Roman;" xml:space="preserve" x="1485.6685069008784" y="350.25" fill="#000000">Select Carrier or Service: 2391</text>
<text dominant-baseline="central" text-anchor="start" style="font-size:32px;font-family:Times New Roman;" xml:space="preserve" x="1321.5972396486827" y="620.75" fill="#000000">Book Transport Service: 1786</text>
<text dominant-baseline="central" text-anchor="start" style="font-size:32px;font-family:Times New Roman;" xml:space="preserve" x="1097.5249686323714" y="1161.75" fill="#000000">Begin Transportation: 578</text>
<path d="M-564.2656 -5l1128.5313 0l0 58l-1128.5312 0Z" transform="translate(960 77)" fill="rgb(0,0,0)" fill-opacity="0" stroke="#ccc" stroke-width="0"></path>
<text dominant-baseline="central" text-anchor="middle" style="font-size:48px;font-family:Times New Roman;" xml:space="preserve" y="24" transform="translate(960 77)" fill="#000000">Freight Logistics Order Processing (Thousand Shipments)</text>
</svg>