<svg width="1920" height="1440" xmlns="http://www.w3.org/2000/svg" xmlns:xlink="http://www.w3.org/1999/xlink" version="1.1" baseProfile="full" viewBox="0 0 1920 1440">
<rect width="1920" height="1440" x="0" y="0" id="0" fill="#ffffff"></rect>
<polyline points="1168 756 1248 756" fill="none" stroke="#000000"></polyline>
<polyline points="1085.4 910.6 1165.4 910.6" fill="none" stroke="#000000"></polyline>
<polyline points="1255.2 601.4 1335.2 601.4" fill="none" stroke="#000000"></polyline>
<polyline points="1006.6 1065.1 1086.6 1065.1" fill="none" stroke="#000000"></polyline>
<polyline points="1433.9 292.3 1513.9 292.3" fill="none" stroke="#000000"></polyline>
<polyline points="1344.9 446.9 1424.9 446.9" fill="none" stroke="#000000"></polyline>
<polyline points="968.3 1219.7 1048.3 1219.7" fill="none" stroke="#000000"></polyline>
<polygon points="517.9 679.7 1210.1 679.7 1125.9 832.3 602.1 832.3" fill="#A3B3C8" stroke="#000000" stroke-linejoin="round"></polygon>
<polygon points="602.1 834.3 1125.9 834.3 1044.9 986.9 683.1 986.9" fill="#B6CAD7" stroke="#000000" stroke-linejoin="round"></polygon>
<polygon points="427.7 525.1 1300.3 525.1 1210.1 677.7 517.9 677.7" fill="#84709B" stroke="#000000" stroke-linejoin="round"></polygon>
<polygon points="683.1 988.9 1044.9 988.9 968.3 1141.4 759.7 1141.4" fill="#D2C3D5" stroke="#000000" stroke-linejoin="round"></polygon>
<polygon points="249.6 216 1478.4 216 1389.4 368.6 338.6 368.6" fill="#464879" stroke="#000000" stroke-linejoin="round"></polygon>
<polygon points="338.6 370.6 1389.4 370.6 1300.3 523.1 427.7 523.1" fill="#5D7DB3" stroke="#000000" stroke-linejoin="round"></polygon>
<polygon points="759.7 1143.4 968.3 1143.4 968.3 1296 759.7 1296" fill="#E1E4EA" stroke="#000000" stroke-linejoin="round"></polygon>
<text dominant-baseline="central" text-anchor="start" style="font-size:32px;font-family:Times New Roman;" xml:space="preserve" x="1252.9916449086163" y="756" fill="#000000">Proposal Sent: 863</text>
<text dominant-baseline="central" text-anchor="start" style="font-size:32px;font-family:Times New Roman;" xml:space="preserve" x="1170.376501305483" y="910.5714285714284" fill="#000000">Negotiation: 653</text>
<text dominant-baseline="central" text-anchor="start" style="font-size:32px;font-family:Times New Roman;" xml:space="preserve" x="1340.2187989556137" y="601.4285714285713" fill="#000000">Needs Analysis: 1088</text>
<text dominant-baseline="central" text-anchor="start" style="font-size:32px;font-family:Times New Roman;" xml:space="preserve" x="1091.571279373368" y="1065.142857142857" fill="#000000">Contract Signed: 451</text>
<text dominant-baseline="central" text-anchor="start" style="font-size:32px;font-family:Times New Roman;" xml:space="preserve" x="1518.8840731070497" y="292.2857142857143" fill="#000000">Lead Captured: 1532</text>
<text dominant-baseline="central" text-anchor="start" style="font-size:32px;font-family:Times New Roman;" xml:space="preserve" x="1429.8522193211488" y="446.85714285714283" fill="#000000">Initial Contact: 1310</text>
<text dominant-baseline="central" text-anchor="start" style="font-size:32px;font-family:Times New Roman;" xml:space="preserve" x="1053.2715404699738" y="1219.7142857142858" fill="#000000">Client Onboarded: 260</text>
<path d="M-271.6484 -5l543.2969 0l0 58l-543.2969 0Z" transform="translate(960 77)" fill="rgb(0,0,0)" fill-opacity="0" stroke="#ccc" stroke-width="0"></path>
<text dominant-baseline="central" text-anchor="middle" style="font-size:48px;font-family:Times New Roman;" xml:space="preserve" y="24" transform="translate(960 77)" fill="#000000">Client Acquisition (Clients)</text>
</svg>