<svg width="1920" height="1440" xmlns="http://www.w3.org/2000/svg" xmlns:xlink="http://www.w3.org/1999/xlink" version="1.1" baseProfile="full" viewBox="0 0 1920 1440">
<rect width="1920" height="1440" x="0" y="0" id="0" fill="#ffffff"></rect>
<polyline points="1180.6 756 1260.6 756" fill="none" stroke="#000000"></polyline>
<polyline points="1264.5 601.4 1344.5 601.4" fill="none" stroke="#000000"></polyline>
<polyline points="1348.7 446.9 1428.7 446.9" fill="none" stroke="#000000"></polyline>
<polyline points="1095.6 910.6 1175.6 910.6" fill="none" stroke="#000000"></polyline>
<polyline points="1015.9 1065.1 1095.9 1065.1" fill="none" stroke="#000000"></polyline>
<polyline points="1434.9 292.3 1514.9 292.3" fill="none" stroke="#000000"></polyline>
<polyline points="978.6 1219.7 1058.6 1219.7" fill="none" stroke="#000000"></polyline>
<polygon points="504.8 679.7 1223.2 679.7 1138 832.3 590 832.3" fill="#6A9AAA" stroke="#000000" stroke-linejoin="round"></polygon>
<polygon points="422.2 525.1 1305.8 525.1 1223.2 677.7 504.8 677.7" fill="#7AA9BD" stroke="#000000" stroke-linejoin="round"></polygon>
<polygon points="336.5 370.6 1391.5 370.6 1305.8 523.1 422.2 523.1" fill="#8AB8D0" stroke="#000000" stroke-linejoin="round"></polygon>
<polygon points="590 834.3 1138 834.3 1053.2 986.9 674.8 986.9" fill="#5A8B97" stroke="#000000" stroke-linejoin="round"></polygon>
<polygon points="674.8 988.9 1053.2 988.9 978.6 1141.4 749.4 1141.4" fill="#4A7C84" stroke="#000000" stroke-linejoin="round"></polygon>
<polygon points="249.6 216 1478.4 216 1391.5 368.6 336.5 368.6" fill="#9AC7E3" stroke="#000000" stroke-linejoin="round"></polygon>
<polygon points="749.4 1143.4 978.6 1143.4 978.6 1296 749.4 1296" fill="#3C6E71" stroke="#000000" stroke-linejoin="round"></polygon>
<text dominant-baseline="central" text-anchor="start" style="font-size:32px;font-family:Times New Roman;" xml:space="preserve" x="1265.573647711512" y="756" fill="#000000">Proposal Sent: 843</text>
<text dominant-baseline="central" text-anchor="start" style="font-size:32px;font-family:Times New Roman;" xml:space="preserve" x="1349.5104022191404" y="601.4285714285713" fill="#000000">Needs Analysis: 1037</text>
<text dominant-baseline="central" text-anchor="start" style="font-size:32px;font-family:Times New Roman;" xml:space="preserve" x="1433.6601941747574" y="446.85714285714283" fill="#000000">Initial Contact: 1238</text>
<text dominant-baseline="central" text-anchor="start" style="font-size:32px;font-family:Times New Roman;" xml:space="preserve" x="1180.5717059639392" y="910.5714285714284" fill="#000000">Negotiation: 643</text>
<text dominant-baseline="central" text-anchor="start" style="font-size:32px;font-family:Times New Roman;" xml:space="preserve" x="1100.8957004160889" y="1065.142857142857" fill="#000000">Contract Signed: 444</text>
<text dominant-baseline="central" text-anchor="start" style="font-size:32px;font-family:Times New Roman;" xml:space="preserve" x="1519.9403606102637" y="292.2857142857143" fill="#000000">Lead Captured: 1442</text>
<text dominant-baseline="central" text-anchor="start" style="font-size:32px;font-family:Times New Roman;" xml:space="preserve" x="1063.6141470180305" y="1219.7142857142858" fill="#000000">Client Onboarded: 269</text>
<path d="M-271.6484 -5l543.2969 0l0 58l-543.2969 0Z" transform="translate(960 77)" fill="rgb(0,0,0)" fill-opacity="0" stroke="#ccc" stroke-width="0"></path>
<text dominant-baseline="central" text-anchor="middle" style="font-size:48px;font-family:Times New Roman;" xml:space="preserve" y="24" transform="translate(960 77)" fill="#000000">Client Acquisition (Clients)</text>
</svg>