<svg width="1920" height="1440" xmlns="http://www.w3.org/2000/svg" xmlns:xlink="http://www.w3.org/1999/xlink" version="1.1" baseProfile="full" viewBox="0 0 1920 1440">
<rect width="1920" height="1440" x="0" y="0" id="0" fill="#ffffff"></rect>
<polyline points="1051 756 1131 756" fill="none" stroke="#000000"></polyline>
<polyline points="1249.5 446.9 1329.5 446.9" fill="none" stroke="#000000"></polyline>
<polyline points="1131.3 601.4 1211.3 601.4" fill="none" stroke="#000000"></polyline>
<polyline points="1009.8 910.6 1089.8 910.6" fill="none" stroke="#000000"></polyline>
<polyline points="960.4 1065.1 1040.4 1065.1" fill="none" stroke="#000000"></polyline>
<polyline points="1383 292.3 1463 292.3" fill="none" stroke="#000000"></polyline>
<polyline points="952 1219.7 1032 1219.7" fill="none" stroke="#000000"></polyline>
<polygon points="676.8 679.7 1051.2 679.7 1050.7 832.3 677.3 832.3" fill="#8CB9C0" stroke="#000000" stroke-linejoin="round"></polygon>
<polygon points="440.4 370.6 1287.6 370.6 1211.4 523.1 516.6 523.1" fill="#D98481" stroke="#000000" stroke-linejoin="round"></polygon>
<polygon points="516.6 525.1 1211.4 525.1 1051.2 677.7 676.8 677.7" fill="#7892B5" stroke="#000000" stroke-linejoin="round"></polygon>
<polygon points="677.3 834.3 1050.7 834.3 968.9 986.9 759.1 986.9" fill="#91B5A9" stroke="#000000" stroke-linejoin="round"></polygon>
<polygon points="759.1 988.9 968.9 988.9 952 1141.4 776 1141.4" fill="#EDCA7F" stroke="#000000" stroke-linejoin="round"></polygon>
<polygon points="249.6 216 1478.4 216 1287.6 368.6 440.4 368.6" fill="#E9B9AA" stroke="#000000" stroke-linejoin="round"></polygon>
<polygon points="776 1143.4 952 1143.4 952 1296 776 1296" fill="#A17CAB" stroke="#000000" stroke-linejoin="round"></polygon>
<text dominant-baseline="central" text-anchor="start" style="font-size:32px;font-family:Times New Roman;" xml:space="preserve" x="1135.9801831806826" y="756" fill="#000000">Proposal Sent: 366</text>
<text dominant-baseline="central" text-anchor="start" style="font-size:32px;font-family:Times New Roman;" xml:space="preserve" x="1334.4707743547044" y="446.85714285714283" fill="#000000">Initial Contact: 828</text>
<text dominant-baseline="central" text-anchor="start" style="font-size:32px;font-family:Times New Roman;" xml:space="preserve" x="1216.2972522897585" y="601.4285714285713" fill="#000000">Needs Analysis: 679</text>
<text dominant-baseline="central" text-anchor="start" style="font-size:32px;font-family:Times New Roman;" xml:space="preserve" x="1094.7985012489592" y="910.5714285714284" fill="#000000">Negotiation: 365</text>
<text dominant-baseline="central" text-anchor="start" style="font-size:32px;font-family:Times New Roman;" xml:space="preserve" x="1045.4316402997501" y="1065.142857142857" fill="#000000">Contract Signed: 205</text>
<text dominant-baseline="central" text-anchor="start" style="font-size:32px;font-family:Times New Roman;" xml:space="preserve" x="1467.9915070774355" y="292.2857142857143" fill="#000000">Lead Captured: 1201</text>
<text dominant-baseline="central" text-anchor="start" style="font-size:32px;font-family:Times New Roman;" xml:space="preserve" x="1036.9906744379684" y="1219.7142857142858" fill="#000000">Client Onboarded: 172</text>
<path d="M-271.6484 -5l543.2969 0l0 58l-543.2969 0Z" transform="translate(960 77)" fill="rgb(0,0,0)" fill-opacity="0" stroke="#ccc" stroke-width="0"></path>
<text dominant-baseline="central" text-anchor="middle" style="font-size:48px;font-family:Times New Roman;" xml:space="preserve" y="24" transform="translate(960 77)" fill="#000000">Client Acquisition (Clients)</text>
</svg>