<svg width="1920" height="1440" xmlns="http://www.w3.org/2000/svg" xmlns:xlink="http://www.w3.org/1999/xlink" version="1.1" baseProfile="full" viewBox="0 0 1920 1440">
<rect width="1920" height="1440" x="0" y="0" id="0" fill="#ffffff"></rect>
<polyline points="1009.9 1161.8 1089.9 1161.8" fill="none" stroke="#000000"></polyline>
<polyline points="1392.6 350.3 1472.6 350.3" fill="none" stroke="#000000"></polyline>
<polyline points="1228.5 620.8 1308.5 620.8" fill="none" stroke="#000000"></polyline>
<polyline points="1080.1 891.3 1160.1 891.3" fill="none" stroke="#000000"></polyline>
<polygon points="718.1 1027.5 1009.9 1027.5 1009.9 1296 718.1 1296" fill="#6A9AAA" stroke="#000000" stroke-linejoin="round"></polygon>
<polygon points="249.6 216 1478.4 216 1306.7 484.5 421.3 484.5" fill="#9AC7E3" stroke="#000000" stroke-linejoin="round"></polygon>
<polygon points="421.3 486.5 1306.7 486.5 1150.4 755 577.6 755" fill="#8AB8D0" stroke="#000000" stroke-linejoin="round"></polygon>
<polygon points="577.6 757 1150.4 757 1009.9 1025.5 718.1 1025.5" fill="#7AA9BD" stroke="#000000" stroke-linejoin="round"></polygon>
<text dominant-baseline="central" text-anchor="start" style="font-size:32px;font-family:Times New Roman;" xml:space="preserve" x="1094.9353293413174" y="1161.75" fill="#000000">Proposal Sent: 238</text>
<text dominant-baseline="central" text-anchor="start" style="font-size:32px;font-family:Times New Roman;" xml:space="preserve" x="1477.5556886227546" y="350.25" fill="#000000">Lead Captured: 1002</text>
<text dominant-baseline="central" text-anchor="start" style="font-size:32px;font-family:Times New Roman;" xml:space="preserve" x="1313.5317365269461" y="620.75" fill="#000000">Initial Contact: 722</text>
<text dominant-baseline="central" text-anchor="start" style="font-size:32px;font-family:Times New Roman;" xml:space="preserve" x="1165.1437125748503" y="891.25" fill="#000000">Needs Analysis: 467</text>
<path d="M-271.6484 -5l543.2969 0l0 58l-543.2969 0Z" transform="translate(960 77)" fill="rgb(0,0,0)" fill-opacity="0" stroke="#ccc" stroke-width="0"></path>
<text dominant-baseline="central" text-anchor="middle" style="font-size:48px;font-family:Times New Roman;" xml:space="preserve" y="24" transform="translate(960 77)" fill="#000000">Client Acquisition (Clients)</text>
</svg>