<svg width="1920" height="1440" xmlns="http://www.w3.org/2000/svg" xmlns:xlink="http://www.w3.org/1999/xlink" version="1.1" baseProfile="full" viewBox="0 0 1920 1440">
<rect width="1920" height="1440" x="0" y="0" id="0" fill="#ffffff"></rect>
<polyline points="1128.2 665.8 1208.2 665.8" fill="none" stroke="#000000"></polyline>
<polyline points="1033 846.2 1113 846.2" fill="none" stroke="#000000"></polyline>
<polyline points="1223.4 485.5 1303.4 485.5" fill="none" stroke="#000000"></polyline>
<polyline points="1364.7 305.2 1444.7 305.2" fill="none" stroke="#000000"></polyline>
<polyline points="996.1 1026.5 1076.1 1026.5" fill="none" stroke="#000000"></polyline>
<polyline points="986.9 1206.8 1066.9 1206.8" fill="none" stroke="#000000"></polyline>
<polygon points="532.2 576.7 1195.8 576.7 1060.6 755 667.4 755" fill="#7AA9BD" stroke="#000000" stroke-linejoin="round"></polygon>
<polygon points="667.4 757 1060.6 757 1005.3 935.3 722.7 935.3" fill="#6A9AAA" stroke="#000000" stroke-linejoin="round"></polygon>
<polygon points="476.9 396.3 1251.1 396.3 1195.8 574.7 532.2 574.7" fill="#8AB8D0" stroke="#000000" stroke-linejoin="round"></polygon>
<polygon points="249.6 216 1478.4 216 1251.1 394.3 476.9 394.3" fill="#9AC7E3" stroke="#000000" stroke-linejoin="round"></polygon>
<polygon points="722.7 937.3 1005.3 937.3 986.9 1115.7 741.1 1115.7" fill="#5A8B97" stroke="#000000" stroke-linejoin="round"></polygon>
<polygon points="741.1 1117.7 986.9 1117.7 986.9 1296 741.1 1296" fill="#4A7C84" stroke="#000000" stroke-linejoin="round"></polygon>
<text dominant-baseline="central" text-anchor="start" style="font-size:32px;font-family:Times New Roman;" xml:space="preserve" x="1213.192" y="665.8333333333335" fill="#000000">Displayed in Exhibition: 54%</text>
<text dominant-baseline="central" text-anchor="start" style="font-size:32px;font-family:Times New Roman;" xml:space="preserve" x="1117.96" y="846.1666666666667" fill="#000000">Shortlisted for Acquisition: 32%</text>
<text dominant-baseline="central" text-anchor="start" style="font-size:32px;font-family:Times New Roman;" xml:space="preserve" x="1308.424" y="485.50000000000006" fill="#000000">Approved for Exhibition: 63%</text>
<text dominant-baseline="central" text-anchor="start" style="font-size:32px;font-family:Times New Roman;" xml:space="preserve" x="1449.736" y="305.1666666666667" fill="#000000">Submitted for Review: 100%</text>
<text dominant-baseline="central" text-anchor="start" style="font-size:32px;font-family:Times New Roman;" xml:space="preserve" x="1081.096" y="1026.5" fill="#000000">Eligible for Acquisition: 23%</text>
<text dominant-baseline="central" text-anchor="start" style="font-size:32px;font-family:Times New Roman;" xml:space="preserve" x="1071.88" y="1206.8333333333335" fill="#000000">Institutionally Acquired: 20%</text>
<path d="M-329.6211 -5l659.2422 0l0 58l-659.2422 0Z" transform="translate(960 77)" fill="rgb(0,0,0)" fill-opacity="0" stroke="#ccc" stroke-width="0"></path>
<text dominant-baseline="central" text-anchor="middle" style="font-size:48px;font-family:Times New Roman;" xml:space="preserve" y="24" transform="translate(960 77)" fill="#000000">Cultural Artwork Exhibitions (%)</text>
</svg>