<svg width="1920" height="1440" xmlns="http://www.w3.org/2000/svg" xmlns:xlink="http://www.w3.org/1999/xlink" version="1.1" baseProfile="full" viewBox="0 0 1920 1440">
<rect width="1920" height="1440" x="0" y="0" id="0" fill="#ffffff"></rect>
<polyline points="1051.4 665.8 1131.4 665.8" fill="none" stroke="#000000"></polyline>
<polyline points="1005.3 846.2 1085.3 846.2" fill="none" stroke="#000000"></polyline>
<polyline points="993 1026.5 1073 1026.5" fill="none" stroke="#000000"></polyline>
<polyline points="1168.1 485.5 1248.1 485.5" fill="none" stroke="#000000"></polyline>
<polyline points="1358.6 305.2 1438.6 305.2" fill="none" stroke="#000000"></polyline>
<polyline points="980.7 1206.8 1060.7 1206.8" fill="none" stroke="#000000"></polyline>
<polygon points="630.5 576.7 1097.5 576.7 1005.3 755 722.7 755" fill="#FFD27F" stroke="#000000" stroke-linejoin="round"></polygon>
<polygon points="722.7 757 1005.3 757 1005.3 935.3 722.7 935.3" fill="#FFC04A" stroke="#000000" stroke-linejoin="round"></polygon>
<polygon points="722.7 937.3 1005.3 937.3 980.7 1115.7 747.3 1115.7" fill="#FFAE14" stroke="#000000" stroke-linejoin="round"></polygon>
<polygon points="489.2 396.3 1238.8 396.3 1097.5 574.7 630.5 574.7" fill="#FFE4B5" stroke="#000000" stroke-linejoin="round"></polygon>
<polygon points="249.6 216 1478.4 216 1238.8 394.3 489.2 394.3" fill="#FFF5E1" stroke="#000000" stroke-linejoin="round"></polygon>
<polygon points="747.3 1117.7 980.7 1117.7 980.7 1296 747.3 1296" fill="#E69A00" stroke="#000000" stroke-linejoin="round"></polygon>
<text dominant-baseline="central" text-anchor="start" style="font-size:32px;font-family:Times New Roman;" xml:space="preserve" x="1136.3919999999998" y="665.8333333333335" fill="#000000">Displayed in Exhibition: 38%</text>
<text dominant-baseline="central" text-anchor="start" style="font-size:32px;font-family:Times New Roman;" xml:space="preserve" x="1090.312" y="846.1666666666667" fill="#000000">Shortlisted for Acquisition: 23%</text>
<text dominant-baseline="central" text-anchor="start" style="font-size:32px;font-family:Times New Roman;" xml:space="preserve" x="1078.024" y="1026.5" fill="#000000">Eligible for Acquisition: 23%</text>
<text dominant-baseline="central" text-anchor="start" style="font-size:32px;font-family:Times New Roman;" xml:space="preserve" x="1253.1280000000002" y="485.50000000000006" fill="#000000">Approved for Exhibition: 61%</text>
<text dominant-baseline="central" text-anchor="start" style="font-size:32px;font-family:Times New Roman;" xml:space="preserve" x="1443.592" y="305.1666666666667" fill="#000000">Submitted for Review: 100%</text>
<text dominant-baseline="central" text-anchor="start" style="font-size:32px;font-family:Times New Roman;" xml:space="preserve" x="1065.7359999999999" y="1206.8333333333335" fill="#000000">Institutionally Acquired: 19%</text>
<path d="M-329.6211 -5l659.2422 0l0 58l-659.2422 0Z" transform="translate(960 77)" fill="rgb(0,0,0)" fill-opacity="0" stroke="#ccc" stroke-width="0"></path>
<text dominant-baseline="central" text-anchor="middle" style="font-size:48px;font-family:Times New Roman;" xml:space="preserve" y="24" transform="translate(960 77)" fill="#000000">Cultural Artwork Exhibitions (%)</text>
</svg>