<svg width="1920" height="1440" xmlns="http://www.w3.org/2000/svg" xmlns:xlink="http://www.w3.org/1999/xlink" version="1.1" baseProfile="full" viewBox="0 0 1920 1440">
<rect width="1920" height="1440" x="0" y="0" id="0" fill="#ffffff"></rect>
<polyline points="968.4 1161.8 1048.4 1161.8" fill="none" stroke="#000000"></polyline>
<polyline points="977.7 891.3 1057.7 891.3" fill="none" stroke="#000000"></polyline>
<polyline points="1079 620.8 1159 620.8" fill="none" stroke="#000000"></polyline>
<polyline points="1324.8 350.3 1404.8 350.3" fill="none" stroke="#000000"></polyline>
<polygon points="759.6 1027.5 968.4 1027.5 968.4 1296 759.6 1296" fill="#6A9AAA" stroke="#000000" stroke-linejoin="round"></polygon>
<polygon points="741.1 757 986.9 757 968.4 1025.5 759.6 1025.5" fill="#7AA9BD" stroke="#000000" stroke-linejoin="round"></polygon>
<polygon points="556.8 486.5 1171.2 486.5 986.9 755 741.1 755" fill="#8AB8D0" stroke="#000000" stroke-linejoin="round"></polygon>
<polygon points="249.6 216 1478.4 216 1171.2 484.5 556.8 484.5" fill="#9AC7E3" stroke="#000000" stroke-linejoin="round"></polygon>
<text dominant-baseline="central" text-anchor="start" style="font-size:32px;font-family:Times New Roman;" xml:space="preserve" x="1053.448" y="1161.75" fill="#000000">Displayed in Exhibition: 17%</text>
<text dominant-baseline="central" text-anchor="start" style="font-size:32px;font-family:Times New Roman;" xml:space="preserve" x="1062.664" y="891.25" fill="#000000">Approved for Exhibition: 20%</text>
<text dominant-baseline="central" text-anchor="start" style="font-size:32px;font-family:Times New Roman;" xml:space="preserve" x="1164.04" y="620.75" fill="#000000">Submitted for Review: 50%</text>
<text dominant-baseline="central" text-anchor="start" style="font-size:32px;font-family:Times New Roman;" xml:space="preserve" x="1409.8000000000002" y="350.25" fill="#000000">Artworks Created: 100%</text>
<path d="M-329.6211 -5l659.2422 0l0 58l-659.2422 0Z" transform="translate(960 77)" fill="rgb(0,0,0)" fill-opacity="0" stroke="#ccc" stroke-width="0"></path>
<text dominant-baseline="central" text-anchor="middle" style="font-size:48px;font-family:Times New Roman;" xml:space="preserve" y="24" transform="translate(960 77)" fill="#000000">Cultural Artwork Exhibitions (%)</text>
</svg>