<svg width="1920" height="1440" xmlns="http://www.w3.org/2000/svg" xmlns:xlink="http://www.w3.org/1999/xlink" version="1.1" baseProfile="full" viewBox="0 0 1920 1440">
<rect width="1920" height="1440" x="0" y="0" id="0" fill="#ffffff"></rect>
<polyline points="1125.1 539.6 1205.1 539.6" fill="none" stroke="#000000"></polyline>
<polyline points="1355.5 323.2 1435.5 323.2" fill="none" stroke="#000000"></polyline>
<polyline points="993 756 1073 756" fill="none" stroke="#000000"></polyline>
<polyline points="962.3 972.4 1042.3 972.4" fill="none" stroke="#000000"></polyline>
<polyline points="956.2 1188.8 1036.2 1188.8" fill="none" stroke="#000000"></polyline>
<polygon points="495.4 432.4 1232.6 432.4 1017.6 646.8 710.4 646.8" fill="#D98481" stroke="#000000" stroke-linejoin="round"></polygon>
<polygon points="249.6 216 1478.4 216 1232.6 430.4 495.4 430.4" fill="#E9B9AA" stroke="#000000" stroke-linejoin="round"></polygon>
<polygon points="710.4 648.8 1017.6 648.8 968.4 863.2 759.6 863.2" fill="#7892B5" stroke="#000000" stroke-linejoin="round"></polygon>
<polygon points="759.6 865.2 968.4 865.2 956.2 1079.6 771.8 1079.6" fill="#8CB9C0" stroke="#000000" stroke-linejoin="round"></polygon>
<polygon points="771.8 1081.6 956.2 1081.6 956.2 1296 771.8 1296" fill="#91B5A9" stroke="#000000" stroke-linejoin="round"></polygon>
<text dominant-baseline="central" text-anchor="start" style="font-size:32px;font-family:Times New Roman;" xml:space="preserve" x="1210.1200000000001" y="539.5999999999999" fill="#000000">Displayed in Exhibition: 60%</text>
<text dominant-baseline="central" text-anchor="start" style="font-size:32px;font-family:Times New Roman;" xml:space="preserve" x="1440.52" y="323.2" fill="#000000">Approved for Exhibition: 100%</text>
<text dominant-baseline="central" text-anchor="start" style="font-size:32px;font-family:Times New Roman;" xml:space="preserve" x="1078.024" y="756" fill="#000000">Shortlisted for Acquisition: 25%</text>
<text dominant-baseline="central" text-anchor="start" style="font-size:32px;font-family:Times New Roman;" xml:space="preserve" x="1047.304" y="972.3999999999999" fill="#000000">Eligible for Acquisition: 17%</text>
<text dominant-baseline="central" text-anchor="start" style="font-size:32px;font-family:Times New Roman;" xml:space="preserve" x="1041.16" y="1188.8" fill="#000000">Institutionally Acquired: 15%</text>
<path d="M-329.6211 -5l659.2422 0l0 58l-659.2422 0Z" transform="translate(960 77)" fill="rgb(0,0,0)" fill-opacity="0" stroke="#ccc" stroke-width="0"></path>
<text dominant-baseline="central" text-anchor="middle" style="font-size:48px;font-family:Times New Roman;" xml:space="preserve" y="24" transform="translate(960 77)" fill="#000000">Cultural Artwork Exhibitions (%)</text>
</svg>