<svg width="1920" height="1440" xmlns="http://www.w3.org/2000/svg" xmlns:xlink="http://www.w3.org/1999/xlink" version="1.1" baseProfile="full" viewBox="0 0 1920 1440">
<rect width="1920" height="1440" x="0" y="0" id="0" fill="#ffffff"></rect>
<polyline points="953.1 972.4 1033.1 972.4" fill="none" stroke="#000000"></polyline>
<polyline points="943.9 1188.8 1023.9 1188.8" fill="none" stroke="#000000"></polyline>
<polyline points="1343.2 323.2 1423.2 323.2" fill="none" stroke="#000000"></polyline>
<polyline points="1131.3 539.6 1211.3 539.6" fill="none" stroke="#000000"></polyline>
<polyline points="1008.4 756 1088.4 756" fill="none" stroke="#000000"></polyline>
<polygon points="765.7 865.2 962.3 865.2 943.9 1079.6 784.1 1079.6" fill="#FFC04A" stroke="#000000" stroke-linejoin="round"></polygon>
<polygon points="784.1 1081.6 943.9 1081.6 943.9 1296 784.1 1296" fill="#FFAE14" stroke="#000000" stroke-linejoin="round"></polygon>
<polygon points="249.6 216 1478.4 216 1208.1 430.4 519.9 430.4" fill="#FFF5E1" stroke="#000000" stroke-linejoin="round"></polygon>
<polygon points="519.9 432.4 1208.1 432.4 1054.5 646.8 673.5 646.8" fill="#FFE4B5" stroke="#000000" stroke-linejoin="round"></polygon>
<polygon points="673.5 648.8 1054.5 648.8 962.3 863.2 765.7 863.2" fill="#FFD27F" stroke="#000000" stroke-linejoin="round"></polygon>
<text dominant-baseline="central" text-anchor="start" style="font-size:32px;font-family:Times New Roman;" xml:space="preserve" x="1038.088" y="972.3999999999999" fill="#000000">Complete the first lesson: 16%</text>
<text dominant-baseline="central" text-anchor="start" style="font-size:32px;font-family:Times New Roman;" xml:space="preserve" x="1028.8719999999998" y="1188.8" fill="#000000">Complete the assignment: 13%</text>
<text dominant-baseline="central" text-anchor="start" style="font-size:32px;font-family:Times New Roman;" xml:space="preserve" x="1428.232" y="323.2" fill="#000000">Browse Course Page: 100%</text>
<text dominant-baseline="central" text-anchor="start" style="font-size:32px;font-family:Times New Roman;" xml:space="preserve" x="1216.264" y="539.5999999999999" fill="#000000">Register Learning Platform: 56%</text>
<text dominant-baseline="central" text-anchor="start" style="font-size:32px;font-family:Times New Roman;" xml:space="preserve" x="1093.384" y="756" fill="#000000">Register Courses: 31%</text>
<path d="M-324.2539 -5l648.5078 0l0 58l-648.5078 0Z" transform="translate(960 77)" fill="rgb(0,0,0)" fill-opacity="0" stroke="#ccc" stroke-width="0"></path>
<text dominant-baseline="central" text-anchor="middle" style="font-size:48px;font-family:Times New Roman;" xml:space="preserve" y="24" transform="translate(960 77)" fill="#000000">Online Learning Progression (%)</text>
</svg>