<svg width="1920" height="1440" xmlns="http://www.w3.org/2000/svg" xmlns:xlink="http://www.w3.org/1999/xlink" version="1.1" baseProfile="full" viewBox="0 0 1920 1440">
<rect width="1920" height="1440" x="0" y="0" id="0" fill="#ffffff"></rect>
<polyline points="1189.6 756 1269.6 756" fill="none" stroke="#000000"></polyline>
<polyline points="1435.4 292.3 1515.4 292.3" fill="none" stroke="#000000"></polyline>
<polyline points="1352.4 446.9 1432.4 446.9" fill="none" stroke="#000000"></polyline>
<polyline points="1272.6 601.4 1352.6 601.4" fill="none" stroke="#000000"></polyline>
<polyline points="1106.7 910.6 1186.7 910.6" fill="none" stroke="#000000"></polyline>
<polyline points="1033 1065.1 1113 1065.1" fill="none" stroke="#000000"></polyline>
<polyline points="999.2 1219.7 1079.2 1219.7" fill="none" stroke="#000000"></polyline>
<polygon points="495.4 679.7 1232.6 679.7 1146.6 832.3 581.4 832.3" fill="#FFC04A" stroke="#000000" stroke-linejoin="round"></polygon>
<polygon points="249.6 216 1478.4 216 1392.4 368.6 335.6 368.6" fill="#FFF5E1" stroke="#000000" stroke-linejoin="round"></polygon>
<polygon points="335.6 370.6 1392.4 370.6 1312.5 523.1 415.5 523.1" fill="#FFE4B5" stroke="#000000" stroke-linejoin="round"></polygon>
<polygon points="415.5 525.1 1312.5 525.1 1232.6 677.7 495.4 677.7" fill="#FFD27F" stroke="#000000" stroke-linejoin="round"></polygon>
<polygon points="581.4 834.3 1146.6 834.3 1066.8 986.9 661.2 986.9" fill="#FFAE14" stroke="#000000" stroke-linejoin="round"></polygon>
<polygon points="661.2 988.9 1066.8 988.9 999.2 1141.4 728.8 1141.4" fill="#E69A00" stroke="#000000" stroke-linejoin="round"></polygon>
<polygon points="728.8 1143.4 999.2 1143.4 999.2 1296 728.8 1296" fill="#CC8500" stroke="#000000" stroke-linejoin="round"></polygon>
<text dominant-baseline="central" text-anchor="start" style="font-size:32px;font-family:Times New Roman;" xml:space="preserve" x="1274.632" y="756" fill="#000000">Complete the first lesson: 60%</text>
<text dominant-baseline="central" text-anchor="start" style="font-size:32px;font-family:Times New Roman;" xml:space="preserve" x="1520.392" y="292.2857142857143" fill="#000000">Browse Course Page: 100%</text>
<text dominant-baseline="central" text-anchor="start" style="font-size:32px;font-family:Times New Roman;" xml:space="preserve" x="1437.448" y="446.85714285714283" fill="#000000">Register Learning Platform: 86%</text>
<text dominant-baseline="central" text-anchor="start" style="font-size:32px;font-family:Times New Roman;" xml:space="preserve" x="1357.576" y="601.4285714285713" fill="#000000">Register Courses: 73%</text>
<text dominant-baseline="central" text-anchor="start" style="font-size:32px;font-family:Times New Roman;" xml:space="preserve" x="1191.688" y="910.5714285714284" fill="#000000">Complete the assignment: 46%</text>
<text dominant-baseline="central" text-anchor="start" style="font-size:32px;font-family:Times New Roman;" xml:space="preserve" x="1117.96" y="1065.142857142857" fill="#000000">Pass the final test: 33%</text>
<text dominant-baseline="central" text-anchor="start" style="font-size:32px;font-family:Times New Roman;" xml:space="preserve" x="1084.1680000000001" y="1219.7142857142858" fill="#000000">Earn a certificate: 22%</text>
<path d="M-324.2539 -5l648.5078 0l0 58l-648.5078 0Z" transform="translate(960 77)" fill="rgb(0,0,0)" fill-opacity="0" stroke="#ccc" stroke-width="0"></path>
<text dominant-baseline="central" text-anchor="middle" style="font-size:48px;font-family:Times New Roman;" xml:space="preserve" y="24" transform="translate(960 77)" fill="#000000">Online Learning Progression (%)</text>
</svg>