<svg width="1920" height="1440" xmlns="http://www.w3.org/2000/svg" xmlns:xlink="http://www.w3.org/1999/xlink" version="1.1" baseProfile="full" viewBox="0 0 1920 1440">
<rect width="1920" height="1440" x="0" y="0" id="0" fill="#ffffff"></rect>
<polyline points="1212.1 539.6 1292.1 539.6" fill="none" stroke="#000000"></polyline>
<polyline points="1365.5 323.2 1445.5 323.2" fill="none" stroke="#000000"></polyline>
<polyline points="1128.2 756 1208.2 756" fill="none" stroke="#000000"></polyline>
<polyline points="1067.7 972.4 1147.7 972.4" fill="none" stroke="#000000"></polyline>
<polyline points="1050.7 1188.8 1130.7 1188.8" fill="none" stroke="#000000"></polyline>
<polygon points="475.5 432.4 1252.5 432.4 1171.6 646.8 556.4 646.8" fill="#D98481" stroke="#000000" stroke-linejoin="round"></polygon>
<polygon points="249.6 216 1478.4 216 1252.5 430.4 475.5 430.4" fill="#E9B9AA" stroke="#000000" stroke-linejoin="round"></polygon>
<polygon points="556.4 648.8 1171.6 648.8 1084.8 863.2 643.2 863.2" fill="#7892B5" stroke="#000000" stroke-linejoin="round"></polygon>
<polygon points="643.2 865.2 1084.8 865.2 1050.7 1079.6 677.3 1079.6" fill="#8CB9C0" stroke="#000000" stroke-linejoin="round"></polygon>
<polygon points="677.3 1081.6 1050.7 1081.6 1050.7 1296 677.3 1296" fill="#91B5A9" stroke="#000000" stroke-linejoin="round"></polygon>
<text dominant-baseline="central" text-anchor="start" style="font-size:32px;font-family:Times New Roman;" xml:space="preserve" x="1297.080162170591" y="539.5999999999999" fill="#000000">Post-Distribution: 40554</text>
<text dominant-baseline="central" text-anchor="start" style="font-size:32px;font-family:Times New Roman;" xml:space="preserve" x="1450.4646000311868" y="323.2" fill="#000000">Post-Transmission: 64130</text>
<text dominant-baseline="central" text-anchor="start" style="font-size:32px;font-family:Times New Roman;" xml:space="preserve" x="1213.2121191330111" y="756" fill="#000000">Delivered to End Users: 32110</text>
<text dominant-baseline="central" text-anchor="start" style="font-size:32px;font-family:Times New Roman;" xml:space="preserve" x="1152.7301730859192" y="972.3999999999999" fill="#000000">Billed Consumption: 23046</text>
<text dominant-baseline="central" text-anchor="start" style="font-size:32px;font-family:Times New Roman;" xml:space="preserve" x="1135.667232184625" y="1188.8" fill="#000000">Paid Consumption: 19484</text>
<path d="M-531.7578 -5l1063.5156 0l0 58l-1063.5156 0Z" transform="translate(960 77)" fill="rgb(0,0,0)" fill-opacity="0" stroke="#ccc" stroke-width="0"></path>
<text dominant-baseline="central" text-anchor="middle" style="font-size:48px;font-family:Times New Roman;" xml:space="preserve" y="24" transform="translate(960 77)" fill="#000000">Energy Generation and Distribution (Megawatt Hours)</text>
</svg>