<svg width="1920" height="1440" xmlns="http://www.w3.org/2000/svg" xmlns:xlink="http://www.w3.org/1999/xlink" version="1.1" baseProfile="full" viewBox="0 0 1920 1440">
<rect width="1920" height="1440" x="0" y="0" id="0" fill="#ffffff"></rect>
<polyline points="1097.9 891.3 1177.9 891.3" fill="none" stroke="#000000"></polyline>
<polyline points="1164.6 620.8 1244.6 620.8" fill="none" stroke="#000000"></polyline>
<polyline points="1342.1 350.3 1422.1 350.3" fill="none" stroke="#000000"></polyline>
<polyline points="1072.3 1161.8 1152.3 1161.8" fill="none" stroke="#000000"></polyline>
<polygon points="604.6 757 1123.4 757 1072.3 1025.5 655.7 1025.5" fill="#84709B" stroke="#000000" stroke-linejoin="round"></polygon>
<polygon points="522.3 486.5 1205.7 486.5 1123.4 755 604.6 755" fill="#5D7DB3" stroke="#000000" stroke-linejoin="round"></polygon>
<polygon points="249.6 216 1478.4 216 1205.7 484.5 522.3 484.5" fill="#464879" stroke="#000000" stroke-linejoin="round"></polygon>
<polygon points="655.7 1027.5 1072.3 1027.5 1072.3 1296 655.7 1296" fill="#A3B3C8" stroke="#000000" stroke-linejoin="round"></polygon>
<text dominant-baseline="central" text-anchor="start" style="font-size:32px;font-family:Times New Roman;" xml:space="preserve" x="1182.8666456841609" y="891.25" fill="#000000">Post-Distribution: 32193</text>
<text dominant-baseline="central" text-anchor="start" style="font-size:32px;font-family:Times New Roman;" xml:space="preserve" x="1249.5648280745927" y="620.75" fill="#000000">Post-Transmission: 42414</text>
<text dominant-baseline="central" text-anchor="start" style="font-size:32px;font-family:Times New Roman;" xml:space="preserve" x="1427.070784483437" y="350.25" fill="#000000">Post-Generation: 76254</text>
<text dominant-baseline="central" text-anchor="start" style="font-size:32px;font-family:Times New Roman;" xml:space="preserve" x="1157.34520418601" y="1161.75" fill="#000000">Delivered to End Users: 25858</text>
<path d="M-531.7578 -5l1063.5156 0l0 58l-1063.5156 0Z" transform="translate(960 77)" fill="rgb(0,0,0)" fill-opacity="0" stroke="#ccc" stroke-width="0"></path>
<text dominant-baseline="central" text-anchor="middle" style="font-size:48px;font-family:Times New Roman;" xml:space="preserve" y="24" transform="translate(960 77)" fill="#000000">Energy Generation and Distribution (Megawatt Hours)</text>
</svg>