<svg width="1920" height="1440" xmlns="http://www.w3.org/2000/svg" xmlns:xlink="http://www.w3.org/1999/xlink" version="1.1" baseProfile="full" viewBox="0 0 1920 1440">
<rect width="1920" height="1440" x="0" y="0" id="0" fill="#ffffff"></rect>
<polyline points="1003.9 756 1083.9 756" fill="none" stroke="#000000"></polyline>
<polyline points="942.4 972.4 1022.4 972.4" fill="none" stroke="#000000"></polyline>
<polyline points="1346.1 323.2 1426.1 323.2" fill="none" stroke="#000000"></polyline>
<polyline points="1136.3 539.6 1216.3 539.6" fill="none" stroke="#000000"></polyline>
<polyline points="935.6 1188.8 1015.6 1188.8" fill="none" stroke="#000000"></polyline>
<polygon points="669.2 648.8 1058.8 648.8 949.1 863.2 778.9 863.2" fill="#7892B5" stroke="#000000" stroke-linejoin="round"></polygon>
<polygon points="778.9 865.2 949.1 865.2 935.6 1079.6 792.4 1079.6" fill="#8CB9C0" stroke="#000000" stroke-linejoin="round"></polygon>
<polygon points="249.6 216 1478.4 216 1213.7 430.4 514.3 430.4" fill="#E9B9AA" stroke="#000000" stroke-linejoin="round"></polygon>
<polygon points="514.3 432.4 1213.7 432.4 1058.8 646.8 669.2 646.8" fill="#D98481" stroke="#000000" stroke-linejoin="round"></polygon>
<polygon points="792.4 1081.6 935.6 1081.6 935.6 1296 792.4 1296" fill="#91B5A9" stroke="#000000" stroke-linejoin="round"></polygon>
<text dominant-baseline="central" text-anchor="start" style="font-size:32px;font-family:Times New Roman;" xml:space="preserve" x="1088.9480777180654" y="756" fill="#000000">Retail Placement: 767</text>
<text dominant-baseline="central" text-anchor="start" style="font-size:32px;font-family:Times New Roman;" xml:space="preserve" x="1027.355684167011" y="972.3999999999999" fill="#000000">In-Store Promotion: 335</text>
<text dominant-baseline="central" text-anchor="start" style="font-size:32px;font-family:Times New Roman;" xml:space="preserve" x="1431.0715998346425" y="323.2" fill="#000000">Taste Testing: 2419</text>
<text dominant-baseline="central" text-anchor="start" style="font-size:32px;font-family:Times New Roman;" xml:space="preserve" x="1221.276477883423" y="539.5999999999999" fill="#000000">Launch in Market: 1377</text>
<text dominant-baseline="central" text-anchor="start" style="font-size:32px;font-family:Times New Roman;" xml:space="preserve" x="1020.6249689954526" y="1188.8" fill="#000000">Customer Purchase: 282</text>
<path d="M-422.2344 -5l844.4688 0l0 58l-844.4687 0Z" transform="translate(960 77)" fill="rgb(0,0,0)" fill-opacity="0" stroke="#ccc" stroke-width="0"></path>
<text dominant-baseline="central" text-anchor="middle" style="font-size:48px;font-family:Times New Roman;" xml:space="preserve" y="24" transform="translate(960 77)" fill="#000000">Beverage Sales Process (Thousand Bottles)</text>
</svg>