<svg width="1920" height="1440" xmlns="http://www.w3.org/2000/svg" xmlns:xlink="http://www.w3.org/1999/xlink" version="1.1" baseProfile="full" viewBox="0 0 1920 1440">
<rect width="1920" height="1440" x="0" y="0" id="0" fill="#ffffff"></rect>
<polyline points="1158.2 539.6 1238.2 539.6" fill="none" stroke="#000000"></polyline>
<polyline points="1356.4 323.2 1436.4 323.2" fill="none" stroke="#000000"></polyline>
<polyline points="1046.3 756 1126.3 756" fill="none" stroke="#000000"></polyline>
<polyline points="999.4 972.4 1079.4 972.4" fill="none" stroke="#000000"></polyline>
<polyline points="988.1 1188.8 1068.1 1188.8" fill="none" stroke="#000000"></polyline>
<polygon points="493.6 432.4 1234.4 432.4 1081.9 646.8 646.1 646.8" fill="#FFE4B5" stroke="#000000" stroke-linejoin="round"></polygon>
<polygon points="249.6 216 1478.4 216 1234.4 430.4 493.6 430.4" fill="#FFF5E1" stroke="#000000" stroke-linejoin="round"></polygon>
<polygon points="646.1 648.8 1081.9 648.8 1010.6 863.2 717.4 863.2" fill="#FFD27F" stroke="#000000" stroke-linejoin="round"></polygon>
<polygon points="717.4 865.2 1010.6 865.2 988.1 1079.6 739.9 1079.6" fill="#FFC04A" stroke="#000000" stroke-linejoin="round"></polygon>
<polygon points="739.9 1081.6 988.1 1081.6 988.1 1296 739.9 1296" fill="#FFAE14" stroke="#000000" stroke-linejoin="round"></polygon>
<text dominant-baseline="central" text-anchor="start" style="font-size:32px;font-family:Times New Roman;" xml:space="preserve" x="1243.1595511100268" y="539.5999999999999" fill="#000000">Retail Placement: 2471</text>
<text dominant-baseline="central" text-anchor="start" style="font-size:32px;font-family:Times New Roman;" xml:space="preserve" x="1441.3893632593317" y="323.2" fill="#000000">Launch in Market: 4099</text>
<text dominant-baseline="central" text-anchor="start" style="font-size:32px;font-family:Times New Roman;" xml:space="preserve" x="1131.2665040253721" y="756" fill="#000000">In-Store Promotion: 1454</text>
<text dominant-baseline="central" text-anchor="start" style="font-size:32px;font-family:Times New Roman;" xml:space="preserve" x="1084.350866064894" y="972.3999999999999" fill="#000000">Customer Purchase: 978</text>
<text dominant-baseline="central" text-anchor="start" style="font-size:32px;font-family:Times New Roman;" xml:space="preserve" x="1073.1090997804342" y="1188.8" fill="#000000">Repeat Purchase: 828</text>
<path d="M-422.2344 -5l844.4688 0l0 58l-844.4687 0Z" transform="translate(960 77)" fill="rgb(0,0,0)" fill-opacity="0" stroke="#ccc" stroke-width="0"></path>
<text dominant-baseline="central" text-anchor="middle" style="font-size:48px;font-family:Times New Roman;" xml:space="preserve" y="24" transform="translate(960 77)" fill="#000000">Beverage Sales Process (Thousand Bottles)</text>
</svg>