<svg width="1920" height="1440" xmlns="http://www.w3.org/2000/svg" xmlns:xlink="http://www.w3.org/1999/xlink" version="1.1" baseProfile="full" viewBox="0 0 1920 1440">
<rect width="1920" height="1440" x="0" y="0" id="0" fill="#ffffff"></rect>
<polyline points="1240 620.8 1320 620.8" fill="none" stroke="#000000"></polyline>
<polyline points="1098.1 891.3 1178.1 891.3" fill="none" stroke="#000000"></polyline>
<polyline points="1028.3 1161.8 1108.3 1161.8" fill="none" stroke="#000000"></polyline>
<polyline points="1395.2 350.3 1475.2 350.3" fill="none" stroke="#000000"></polyline>
<polygon points="416 486.5 1312 486.5 1168 755 560 755" fill="#8AB8D0" stroke="#000000" stroke-linejoin="round"></polygon>
<polygon points="560 757 1168 757 1028.3 1025.5 699.7 1025.5" fill="#7AA9BD" stroke="#000000" stroke-linejoin="round"></polygon>
<polygon points="699.7 1027.5 1028.3 1027.5 1028.3 1296 699.7 1296" fill="#6A9AAA" stroke="#000000" stroke-linejoin="round"></polygon>
<polygon points="249.6 216 1478.4 216 1312 484.5 416 484.5" fill="#9AC7E3" stroke="#000000" stroke-linejoin="round"></polygon>
<text dominant-baseline="central" text-anchor="start" style="font-size:32px;font-family:Times New Roman;" xml:space="preserve" x="1324.9951155691235" y="620.75" fill="#000000">Retail Placement: 3344</text>
<text dominant-baseline="central" text-anchor="start" style="font-size:32px;font-family:Times New Roman;" xml:space="preserve" x="1183.1177496729176" y="891.25" fill="#000000">In-Store Promotion: 2269</text>
<text dominant-baseline="central" text-anchor="start" style="font-size:32px;font-family:Times New Roman;" xml:space="preserve" x="1113.2508504143043" y="1161.75" fill="#000000">Customer Purchase: 1226</text>
<text dominant-baseline="central" text-anchor="start" style="font-size:32px;font-family:Times New Roman;" xml:space="preserve" x="1480.202791103358" y="350.25" fill="#000000">Launch in Market: 4586</text>
<path d="M-422.2344 -5l844.4688 0l0 58l-844.4687 0Z" transform="translate(960 77)" fill="rgb(0,0,0)" fill-opacity="0" stroke="#ccc" stroke-width="0"></path>
<text dominant-baseline="central" text-anchor="middle" style="font-size:48px;font-family:Times New Roman;" xml:space="preserve" y="24" transform="translate(960 77)" fill="#000000">Beverage Sales Process (Thousand Bottles)</text>
</svg>