<svg width="1920" height="1440" xmlns="http://www.w3.org/2000/svg" xmlns:xlink="http://www.w3.org/1999/xlink" version="1.1" baseProfile="full" viewBox="0 0 1920 1440">
<rect width="1920" height="1440" x="0" y="0" id="0" fill="#ffffff"></rect>
<polyline points="975 846.2 1055 846.2" fill="none" stroke="#000000"></polyline>
<polyline points="940.8 1026.5 1020.8 1026.5" fill="none" stroke="#000000"></polyline>
<polyline points="934.5 1206.8 1014.5 1206.8" fill="none" stroke="#000000"></polyline>
<polyline points="1052.3 665.8 1132.3 665.8" fill="none" stroke="#000000"></polyline>
<polyline points="1171.1 485.5 1251.1 485.5" fill="none" stroke="#000000"></polyline>
<polyline points="1359.5 305.2 1439.5 305.2" fill="none" stroke="#000000"></polyline>
<polygon points="725.1 757 1002.9 757 947 935.3 781 935.3" fill="#A3B3C8" stroke="#000000" stroke-linejoin="round"></polygon>
<polygon points="781 937.3 947 937.3 934.5 1115.7 793.5 1115.7" fill="#B6CAD7" stroke="#000000" stroke-linejoin="round"></polygon>
<polygon points="793.5 1117.7 934.5 1117.7 934.5 1296 793.5 1296" fill="#D2C3D5" stroke="#000000" stroke-linejoin="round"></polygon>
<polygon points="626.4 576.7 1101.6 576.7 1002.9 755 725.1 755" fill="#84709B" stroke="#000000" stroke-linejoin="round"></polygon>
<polygon points="487.5 396.3 1240.5 396.3 1101.6 574.7 626.4 574.7" fill="#5D7DB3" stroke="#000000" stroke-linejoin="round"></polygon>
<polygon points="249.6 216 1478.4 216 1240.5 394.3 487.5 394.3" fill="#464879" stroke="#000000" stroke-linejoin="round"></polygon>
<text dominant-baseline="central" text-anchor="start" style="font-size:32px;font-family:Times New Roman;" xml:space="preserve" x="1059.9738454898575" y="846.1666666666667" fill="#000000">Retail Placement: 524</text>
<text dominant-baseline="central" text-anchor="start" style="font-size:32px;font-family:Times New Roman;" xml:space="preserve" x="1025.7668536901165" y="1026.5" fill="#000000">In-Store Promotion: 313</text>
<text dominant-baseline="central" text-anchor="start" style="font-size:32px;font-family:Times New Roman;" xml:space="preserve" x="1019.5353474320241" y="1206.8333333333335" fill="#000000">Customer Purchase: 266</text>
<text dominant-baseline="central" text-anchor="start" style="font-size:32px;font-family:Times New Roman;" xml:space="preserve" x="1137.2710401381096" y="665.8333333333335" fill="#000000">Launch in Market: 896</text>
<text dominant-baseline="central" text-anchor="start" style="font-size:32px;font-family:Times New Roman;" xml:space="preserve" x="1256.0674147604661" y="485.50000000000006" fill="#000000">Taste Testing: 1420</text>
<text dominant-baseline="central" text-anchor="start" style="font-size:32px;font-family:Times New Roman;" xml:space="preserve" x="1444.4710401381096" y="305.1666666666667" fill="#000000">Product Concept: 2317</text>
<path d="M-422.2344 -5l844.4688 0l0 58l-844.4687 0Z" transform="translate(960 77)" fill="rgb(0,0,0)" fill-opacity="0" stroke="#ccc" stroke-width="0"></path>
<text dominant-baseline="central" text-anchor="middle" style="font-size:48px;font-family:Times New Roman;" xml:space="preserve" y="24" transform="translate(960 77)" fill="#000000">Beverage Sales Process (Thousand Bottles)</text>
</svg>