<svg width="1920" height="1440" xmlns="http://www.w3.org/2000/svg" xmlns:xlink="http://www.w3.org/1999/xlink" version="1.1" baseProfile="full" viewBox="0 0 1920 1440">
<rect width="1920" height="1440" x="0" y="0" id="0" fill="#ffffff"></rect>
<polyline points="1096.8 1161.8 1176.8 1161.8" fill="none" stroke="#000000"></polyline>
<polyline points="1118 891.3 1198 891.3" fill="none" stroke="#000000"></polyline>
<polyline points="1196.3 620.8 1276.3 620.8" fill="none" stroke="#000000"></polyline>
<polyline points="1365.8 350.3 1445.8 350.3" fill="none" stroke="#000000"></polyline>
<polygon points="631.2 1027.5 1096.8 1027.5 1096.8 1296 631.2 1296" fill="#6A9AAA" stroke="#000000" stroke-linejoin="round"></polygon>
<polygon points="588.8 757 1139.2 757 1096.8 1025.5 631.2 1025.5" fill="#7AA9BD" stroke="#000000" stroke-linejoin="round"></polygon>
<polygon points="474.7 486.5 1253.3 486.5 1139.2 755 588.8 755" fill="#8AB8D0" stroke="#000000" stroke-linejoin="round"></polygon>
<polygon points="249.6 216 1478.4 216 1253.3 484.5 474.7 484.5" fill="#9AC7E3" stroke="#000000" stroke-linejoin="round"></polygon>
<text dominant-baseline="central" text-anchor="start" style="font-size:32px;font-family:Times New Roman;" xml:space="preserve" x="1181.8380952380953" y="1161.75" fill="#000000">Retail Placement: 1719</text>
<text dominant-baseline="central" text-anchor="start" style="font-size:32px;font-family:Times New Roman;" xml:space="preserve" x="1203.0359788359788" y="891.25" fill="#000000">Launch in Market: 2032</text>
<text dominant-baseline="central" text-anchor="start" style="font-size:32px;font-family:Times New Roman;" xml:space="preserve" x="1281.258201058201" y="620.75" fill="#000000">Taste Testing: 2874</text>
<text dominant-baseline="central" text-anchor="start" style="font-size:32px;font-family:Times New Roman;" xml:space="preserve" x="1450.8412698412699" y="350.25" fill="#000000">Product Concept: 4536</text>
<path d="M-422.2344 -5l844.4688 0l0 58l-844.4687 0Z" transform="translate(960 77)" fill="rgb(0,0,0)" fill-opacity="0" stroke="#ccc" stroke-width="0"></path>
<text dominant-baseline="central" text-anchor="middle" style="font-size:48px;font-family:Times New Roman;" xml:space="preserve" y="24" transform="translate(960 77)" fill="#000000">Beverage Sales Process (Thousand Bottles)</text>
</svg>