<svg width="1920" height="1440" xmlns="http://www.w3.org/2000/svg" xmlns:xlink="http://www.w3.org/1999/xlink" version="1.1" baseProfile="full" viewBox="0 0 1920 1440">
<rect width="1920" height="1440" x="0" y="0" id="0" fill="#ffffff"></rect>
<polyline points="1386.2 350.3 1466.2 350.3" fill="none" stroke="#000000"></polyline>
<polyline points="1211.1 620.8 1291.1 620.8" fill="none" stroke="#000000"></polyline>
<polyline points="1054.5 891.3 1134.5 891.3" fill="none" stroke="#000000"></polyline>
<polyline points="980.7 1161.8 1060.7 1161.8" fill="none" stroke="#000000"></polyline>
<polygon points="249.6 216 1478.4 216 1294.1 484.5 433.9 484.5" fill="#F0E6E4" stroke="#000000" stroke-linejoin="round"></polygon>
<polygon points="433.9 486.5 1294.1 486.5 1128.2 755 599.8 755" fill="#F7D8DF" stroke="#000000" stroke-linejoin="round"></polygon>
<polygon points="599.8 757 1128.2 757 980.7 1025.5 747.3 1025.5" fill="#F47D85" stroke="#000000" stroke-linejoin="round"></polygon>
<polygon points="747.3 1027.5 980.7 1027.5 980.7 1296 747.3 1296" fill="#DF4C5B" stroke="#000000" stroke-linejoin="round"></polygon>
<text dominant-baseline="central" text-anchor="start" style="font-size:32px;font-family:Times New Roman;" xml:space="preserve" x="1471.24" y="350.25" fill="#000000">HR Interview: 100%</text>
<text dominant-baseline="central" text-anchor="start" style="font-size:32px;font-family:Times New Roman;" xml:space="preserve" x="1296.136" y="620.75" fill="#000000">Technical Interview: 70%</text>
<text dominant-baseline="central" text-anchor="start" style="font-size:32px;font-family:Times New Roman;" xml:space="preserve" x="1139.464" y="891.25" fill="#000000">Offer Extended: 43%</text>
<text dominant-baseline="central" text-anchor="start" style="font-size:32px;font-family:Times New Roman;" xml:space="preserve" x="1065.7359999999999" y="1161.75" fill="#000000">Offer Accepted: 19%</text>
<path d="M-268.9062 -5l537.8125 0l0 58l-537.8125 0Z" transform="translate(960 77)" fill="rgb(0,0,0)" fill-opacity="0" stroke="#ccc" stroke-width="0"></path>
<text dominant-baseline="central" text-anchor="middle" style="font-size:48px;font-family:Times New Roman;" xml:space="preserve" y="24" transform="translate(960 77)" fill="#000000">Employee Recruitment (%)</text>
</svg>