<svg width="1920" height="1440" xmlns="http://www.w3.org/2000/svg" xmlns:xlink="http://www.w3.org/1999/xlink" version="1.1" baseProfile="full" viewBox="0 0 1920 1440">
<rect width="1920" height="1440" x="0" y="0" id="0" fill="#ffffff"></rect>
<polyline points="973 1026.5 1053 1026.5" fill="none" stroke="#000000"></polyline>
<polyline points="965.1 1206.8 1045.1 1206.8" fill="none" stroke="#000000"></polyline>
<polyline points="1052.3 665.8 1132.3 665.8" fill="none" stroke="#000000"></polyline>
<polyline points="992 846.2 1072 846.2" fill="none" stroke="#000000"></polyline>
<polyline points="1171.2 485.5 1251.2 485.5" fill="none" stroke="#000000"></polyline>
<polyline points="1359.5 305.2 1439.5 305.2" fill="none" stroke="#000000"></polyline>
<polygon points="747.1 937.3 980.9 937.3 965.1 1115.7 762.9 1115.7" fill="#989E6A" stroke="#000000" stroke-linejoin="round"></polygon>
<polygon points="762.9 1117.7 965.1 1117.7 965.1 1296 762.9 1296" fill="#6B8E23" stroke="#000000" stroke-linejoin="round"></polygon>
<polygon points="626.3 576.7 1101.7 576.7 1003 755 725 755" fill="#F47D85" stroke="#000000" stroke-linejoin="round"></polygon>
<polygon points="725 757 1003 757 980.9 935.3 747.1 935.3" fill="#DF4C5B" stroke="#000000" stroke-linejoin="round"></polygon>
<polygon points="487.3 396.3 1240.7 396.3 1101.7 574.7 626.3 574.7" fill="#F7D8DF" stroke="#000000" stroke-linejoin="round"></polygon>
<polygon points="249.6 216 1478.4 216 1240.7 394.3 487.3 394.3" fill="#F0E6E4" stroke="#000000" stroke-linejoin="round"></polygon>
<text dominant-baseline="central" text-anchor="start" style="font-size:32px;font-family:Times New Roman;" xml:space="preserve" x="1058.0040579710144" y="1026.5" fill="#000000">Initiate Checkout: 1576</text>
<text dominant-baseline="central" text-anchor="start" style="font-size:32px;font-family:Times New Roman;" xml:space="preserve" x="1050.064347826087" y="1206.8333333333335" fill="#000000">Enter Payment Information: 1362</text>
<text dominant-baseline="central" text-anchor="start" style="font-size:32px;font-family:Times New Roman;" xml:space="preserve" x="1137.3269565217392" y="665.8333333333335" fill="#000000">Add to Wishlist: 3203</text>
<text dominant-baseline="central" text-anchor="start" style="font-size:32px;font-family:Times New Roman;" xml:space="preserve" x="1076.9628985507247" y="846.1666666666667" fill="#000000">Add to Cart: 1873</text>
<text dominant-baseline="central" text-anchor="start" style="font-size:32px;font-family:Times New Roman;" xml:space="preserve" x="1256.1628985507245" y="485.50000000000006" fill="#000000">Visit Product Page: 5076</text>
<text dominant-baseline="central" text-anchor="start" style="font-size:32px;font-family:Times New Roman;" xml:space="preserve" x="1444.526956521739" y="305.1666666666667" fill="#000000">View Advertisement: 8280</text>
<path d="M-348.1836 -5l696.3672 0l0 58l-696.3672 0Z" transform="translate(960 77)" fill="rgb(0,0,0)" fill-opacity="0" stroke="#ccc" stroke-width="0"></path>
<text dominant-baseline="central" text-anchor="middle" style="font-size:48px;font-family:Times New Roman;" xml:space="preserve" y="24" transform="translate(960 77)" fill="#000000">E-commerce User Purchase (Users)</text>
</svg>