<svg width="1920" height="1440" xmlns="http://www.w3.org/2000/svg" xmlns:xlink="http://www.w3.org/1999/xlink" version="1.1" baseProfile="full" viewBox="0 0 1920 1440">
<rect width="1920" height="1440" x="0" y="0" id="0" fill="#ffffff"></rect>
<polyline points="972 1161.8 1052 1161.8" fill="none" stroke="#000000"></polyline>
<polyline points="981.7 891.3 1061.7 891.3" fill="none" stroke="#000000"></polyline>
<polyline points="1324.8 350.3 1404.8 350.3" fill="none" stroke="#000000"></polyline>
<polyline points="1081.3 620.8 1161.3 620.8" fill="none" stroke="#000000"></polyline>
<polygon points="756 1027.5 972 1027.5 972 1296 756 1296" fill="#6A9AAA" stroke="#000000" stroke-linejoin="round"></polygon>
<polygon points="736.5 757 991.5 757 972 1025.5 756 1025.5" fill="#7AA9BD" stroke="#000000" stroke-linejoin="round"></polygon>
<polygon points="249.6 216 1478.4 216 1171.2 484.5 556.8 484.5" fill="#9AC7E3" stroke="#000000" stroke-linejoin="round"></polygon>
<polygon points="556.8 486.5 1171.2 486.5 991.5 755 736.5 755" fill="#8AB8D0" stroke="#000000" stroke-linejoin="round"></polygon>
<text dominant-baseline="central" text-anchor="start" style="font-size:32px;font-family:Times New Roman;" xml:space="preserve" x="1057.0113656132212" y="1161.75" fill="#000000">Initiate Checkout: 1819</text>
<text dominant-baseline="central" text-anchor="start" style="font-size:32px;font-family:Times New Roman;" xml:space="preserve" x="1066.7496085821977" y="891.25" fill="#000000">Add to Cart: 2147</text>
<text dominant-baseline="central" text-anchor="start" style="font-size:32px;font-family:Times New Roman;" xml:space="preserve" x="1409.7851551174253" y="350.25" fill="#000000">Visit Product Page: 10347</text>
<text dominant-baseline="central" text-anchor="start" style="font-size:32px;font-family:Times New Roman;" xml:space="preserve" x="1166.3290808930124" y="620.75" fill="#000000">Add to Wishlist: 5173</text>
<path d="M-348.1836 -5l696.3672 0l0 58l-696.3672 0Z" transform="translate(960 77)" fill="rgb(0,0,0)" fill-opacity="0" stroke="#ccc" stroke-width="0"></path>
<text dominant-baseline="central" text-anchor="middle" style="font-size:48px;font-family:Times New Roman;" xml:space="preserve" y="24" transform="translate(960 77)" fill="#000000">E-commerce User Purchase (Users)</text>
</svg>