<?xml version="1.0" encoding="utf-8" standalone="no"?>
<!DOCTYPE svg PUBLIC "-//W3C//DTD SVG 1.1//EN"
  "http://www.w3.org/Graphics/SVG/1.1/DTD/svg11.dtd">
<svg xmlns:xlink="http://www.w3.org/1999/xlink" width="885.876348pt" height="644.1275pt" viewBox="0 0 885.876348 644.1275" xmlns="http://www.w3.org/2000/svg" version="1.1">
 <metadata>
  <rdf:RDF xmlns:dc="http://purl.org/dc/elements/1.1/" xmlns:cc="http://creativecommons.org/ns#" xmlns:rdf="http://www.w3.org/1999/02/22-rdf-syntax-ns#">
   <cc:Work>
    <dc:type rdf:resource="http://purl.org/dc/dcmitype/StillImage"/>
    <dc:date>2025-05-30T22:55:23.311354</dc:date>
    <dc:format>image/svg+xml</dc:format>
    <dc:creator>
     <cc:Agent>
      <dc:title>Matplotlib v3.10.1, https://matplotlib.org/</dc:title>
     </cc:Agent>
    </dc:creator>
   </cc:Work>
  </rdf:RDF>
 </metadata>
 <defs>
  <style type="text/css">*{stroke-linejoin: round; stroke-linecap: butt}</style>
 </defs>
 <g id="figure_1">
  <g id="patch_1">
   <path d="M 0 644.1275 
L 885.876348 644.1275 
L 885.876348 0 
L 0 0 
z
" style="fill: #ffffff"/>
  </g>
  <g id="axes_1">
   <g id="patch_2">
    <path d="M 715.989315 359.7275 
C 715.989315 323.32593 708.819 287.278318 694.888722 253.647653 
C 680.958444 220.016987 660.539113 189.457298 634.799315 163.7175 
C 609.059518 137.977703 578.499829 117.558372 544.869163 103.628094 
C 511.238497 89.697816 475.190886 82.5275 438.789315 82.5275 
C 402.387745 82.5275 366.340134 89.697816 332.709468 103.628094 
C 299.078802 117.558372 268.519113 137.977703 242.779316 163.7175 
C 217.039518 189.457298 196.620187 220.016987 182.689909 253.647653 
C 168.759631 287.278318 161.589315 323.32593 161.589315 359.7275 
C 161.589315 396.12907 168.759631 432.176682 182.689909 465.807347 
C 196.620187 499.438013 217.039518 529.997702 242.779316 555.7375 
C 268.519113 581.477297 299.078802 601.896628 332.709468 615.826906 
C 366.340134 629.757184 402.387745 636.9275 438.789315 636.9275 
C 475.190886 636.9275 511.238497 629.757184 544.869163 615.826906 
C 578.499829 601.896628 609.059518 581.477297 634.799315 555.7375 
C 660.539113 529.997702 680.958444 499.438013 694.888722 465.807347 
C 708.819 432.176682 715.989315 396.12907 715.989315 359.7275 
M 438.789315 359.7275 
C 438.789315 359.7275 438.789315 359.7275 438.789315 359.7275 
C 438.789315 359.7275 438.789315 359.7275 438.789315 359.7275 
C 438.789315 359.7275 438.789315 359.7275 438.789315 359.7275 
C 438.789315 359.7275 438.789315 359.7275 438.789315 359.7275 
C 438.789315 359.7275 438.789315 359.7275 438.789315 359.7275 
C 438.789315 359.7275 438.789315 359.7275 438.789315 359.7275 
C 438.789315 359.7275 438.789315 359.7275 438.789315 359.7275 
C 438.789315 359.7275 438.789315 359.7275 438.789315 359.7275 
C 438.789315 359.7275 438.789315 359.7275 438.789315 359.7275 
C 438.789315 359.7275 438.789315 359.7275 438.789315 359.7275 
C 438.789315 359.7275 438.789315 359.7275 438.789315 359.7275 
C 438.789315 359.7275 438.789315 359.7275 438.789315 359.7275 
C 438.789315 359.7275 438.789315 359.7275 438.789315 359.7275 
C 438.789315 359.7275 438.789315 359.7275 438.789315 359.7275 
C 438.789315 359.7275 438.789315 359.7275 438.789315 359.7275 
C 438.789315 359.7275 438.789315 359.7275 438.789315 359.7275 
z
" style="fill: #ffffff"/>
   </g>
   <g id="patch_3">
    <path d="M 438.789315 104.7035 
L 502.061203 339.169217 
L 495.816241 438.218329 
L 332.882169 505.496182 
L 198.883407 281.777345 
z
" clip-path="url(#p4eacecbffb)" style="fill: #1f77b4; opacity: 0.15; stroke: #1f77b4; stroke-linejoin: miter"/>
   </g>
   <g id="matplotlib.axis_1">
    <g id="xtick_1">
     <g id="line2d_1">
      <path d="M 438.789315 359.7275 
L 438.789315 82.5275 
" clip-path="url(#p4eacecbffb)" style="fill: none; stroke: #b0b0b0; stroke-width: 0.8; stroke-linecap: square"/>
     </g>
     <g id="text_1">
      <!-- Tourist Conversion Rate -->
      <g transform="translate(350.929628 72.851719) scale(0.18 -0.18)">
       <defs>
        <path id="TimesNewRomanPSMT-54" d="M 3703 4238 
L 3750 3244 
L 3631 3244 
Q 3597 3506 3538 3619 
Q 3441 3800 3280 3886 
Q 3119 3972 2856 3972 
L 2259 3972 
L 2259 734 
Q 2259 344 2344 247 
Q 2463 116 2709 116 
L 2856 116 
L 2856 0 
L 1059 0 
L 1059 116 
L 1209 116 
Q 1478 116 1591 278 
Q 1659 378 1659 734 
L 1659 3972 
L 1150 3972 
Q 853 3972 728 3928 
Q 566 3869 450 3700 
Q 334 3531 313 3244 
L 194 3244 
L 244 4238 
L 3703 4238 
z
" transform="scale(0.015625)"/>
        <path id="TimesNewRomanPSMT-6f" d="M 1600 2947 
Q 2250 2947 2644 2453 
Q 2978 2031 2978 1484 
Q 2978 1100 2793 706 
Q 2609 313 2286 112 
Q 1963 -88 1566 -88 
Q 919 -88 538 428 
Q 216 863 216 1403 
Q 216 1797 411 2186 
Q 606 2575 925 2761 
Q 1244 2947 1600 2947 
z
M 1503 2744 
Q 1338 2744 1170 2645 
Q 1003 2547 900 2300 
Q 797 2053 797 1666 
Q 797 1041 1045 587 
Q 1294 134 1700 134 
Q 2003 134 2200 384 
Q 2397 634 2397 1244 
Q 2397 2006 2069 2444 
Q 1847 2744 1503 2744 
z
" transform="scale(0.015625)"/>
        <path id="TimesNewRomanPSMT-75" d="M 2709 2863 
L 2709 1128 
Q 2709 631 2732 520 
Q 2756 409 2807 365 
Q 2859 322 2928 322 
Q 3025 322 3147 375 
L 3191 266 
L 2334 -88 
L 2194 -88 
L 2194 519 
Q 1825 119 1631 15 
Q 1438 -88 1222 -88 
Q 981 -88 804 51 
Q 628 191 559 409 
Q 491 628 491 1028 
L 491 2306 
Q 491 2509 447 2587 
Q 403 2666 317 2708 
Q 231 2750 6 2747 
L 6 2863 
L 1009 2863 
L 1009 947 
Q 1009 547 1148 422 
Q 1288 297 1484 297 
Q 1619 297 1789 381 
Q 1959 466 2194 703 
L 2194 2325 
Q 2194 2569 2105 2655 
Q 2016 2741 1734 2747 
L 1734 2863 
L 2709 2863 
z
" transform="scale(0.015625)"/>
        <path id="TimesNewRomanPSMT-72" d="M 1038 2947 
L 1038 2303 
Q 1397 2947 1775 2947 
Q 1947 2947 2059 2842 
Q 2172 2738 2172 2600 
Q 2172 2478 2090 2393 
Q 2009 2309 1897 2309 
Q 1788 2309 1652 2417 
Q 1516 2525 1450 2525 
Q 1394 2525 1328 2463 
Q 1188 2334 1038 2041 
L 1038 669 
Q 1038 431 1097 309 
Q 1138 225 1241 169 
Q 1344 113 1538 113 
L 1538 0 
L 72 0 
L 72 113 
Q 291 113 397 181 
Q 475 231 506 341 
Q 522 394 522 644 
L 522 1753 
Q 522 2253 501 2348 
Q 481 2444 426 2487 
Q 372 2531 291 2531 
Q 194 2531 72 2484 
L 41 2597 
L 906 2947 
L 1038 2947 
z
" transform="scale(0.015625)"/>
        <path id="TimesNewRomanPSMT-69" d="M 928 4444 
Q 1059 4444 1151 4351 
Q 1244 4259 1244 4128 
Q 1244 3997 1151 3903 
Q 1059 3809 928 3809 
Q 797 3809 703 3903 
Q 609 3997 609 4128 
Q 609 4259 701 4351 
Q 794 4444 928 4444 
z
M 1188 2947 
L 1188 647 
Q 1188 378 1227 289 
Q 1266 200 1342 156 
Q 1419 113 1622 113 
L 1622 0 
L 231 0 
L 231 113 
Q 441 113 512 153 
Q 584 194 626 287 
Q 669 381 669 647 
L 669 1750 
Q 669 2216 641 2353 
Q 619 2453 572 2492 
Q 525 2531 444 2531 
Q 356 2531 231 2484 
L 188 2597 
L 1050 2947 
L 1188 2947 
z
" transform="scale(0.015625)"/>
        <path id="TimesNewRomanPSMT-73" d="M 2050 2947 
L 2050 1972 
L 1947 1972 
Q 1828 2431 1642 2597 
Q 1456 2763 1169 2763 
Q 950 2763 815 2647 
Q 681 2531 681 2391 
Q 681 2216 781 2091 
Q 878 1963 1175 1819 
L 1631 1597 
Q 2266 1288 2266 781 
Q 2266 391 1970 151 
Q 1675 -88 1309 -88 
Q 1047 -88 709 6 
Q 606 38 541 38 
Q 469 38 428 -44 
L 325 -44 
L 325 978 
L 428 978 
Q 516 541 762 319 
Q 1009 97 1316 97 
Q 1531 97 1667 223 
Q 1803 350 1803 528 
Q 1803 744 1651 891 
Q 1500 1038 1047 1263 
Q 594 1488 453 1669 
Q 313 1847 313 2119 
Q 313 2472 555 2709 
Q 797 2947 1181 2947 
Q 1350 2947 1591 2875 
Q 1750 2828 1803 2828 
Q 1853 2828 1881 2850 
Q 1909 2872 1947 2947 
L 2050 2947 
z
" transform="scale(0.015625)"/>
        <path id="TimesNewRomanPSMT-74" d="M 1031 3803 
L 1031 2863 
L 1700 2863 
L 1700 2644 
L 1031 2644 
L 1031 788 
Q 1031 509 1111 412 
Q 1191 316 1316 316 
Q 1419 316 1516 380 
Q 1613 444 1666 569 
L 1788 569 
Q 1678 263 1478 108 
Q 1278 -47 1066 -47 
Q 922 -47 784 33 
Q 647 113 581 261 
Q 516 409 516 719 
L 516 2644 
L 63 2644 
L 63 2747 
Q 234 2816 414 2980 
Q 594 3144 734 3369 
Q 806 3488 934 3803 
L 1031 3803 
z
" transform="scale(0.015625)"/>
        <path id="TimesNewRomanPSMT-20" transform="scale(0.015625)"/>
        <path id="TimesNewRomanPSMT-43" d="M 3853 4334 
L 3950 2894 
L 3853 2894 
Q 3659 3541 3300 3825 
Q 2941 4109 2438 4109 
Q 2016 4109 1675 3895 
Q 1334 3681 1139 3212 
Q 944 2744 944 2047 
Q 944 1472 1128 1050 
Q 1313 628 1683 403 
Q 2053 178 2528 178 
Q 2941 178 3256 354 
Q 3572 531 3950 1056 
L 4047 994 
Q 3728 428 3303 165 
Q 2878 -97 2294 -97 
Q 1241 -97 663 684 
Q 231 1266 231 2053 
Q 231 2688 515 3219 
Q 800 3750 1298 4042 
Q 1797 4334 2388 4334 
Q 2847 4334 3294 4109 
Q 3425 4041 3481 4041 
Q 3566 4041 3628 4100 
Q 3709 4184 3744 4334 
L 3853 4334 
z
" transform="scale(0.015625)"/>
        <path id="TimesNewRomanPSMT-6e" d="M 1034 2341 
Q 1538 2947 1994 2947 
Q 2228 2947 2397 2830 
Q 2566 2713 2666 2444 
Q 2734 2256 2734 1869 
L 2734 647 
Q 2734 375 2778 278 
Q 2813 200 2889 156 
Q 2966 113 3172 113 
L 3172 0 
L 1756 0 
L 1756 113 
L 1816 113 
Q 2016 113 2095 173 
Q 2175 234 2206 353 
Q 2219 400 2219 647 
L 2219 1819 
Q 2219 2209 2117 2386 
Q 2016 2563 1775 2563 
Q 1403 2563 1034 2156 
L 1034 647 
Q 1034 356 1069 288 
Q 1113 197 1189 155 
Q 1266 113 1500 113 
L 1500 0 
L 84 0 
L 84 113 
L 147 113 
Q 366 113 442 223 
Q 519 334 519 647 
L 519 1709 
Q 519 2225 495 2337 
Q 472 2450 423 2490 
Q 375 2531 294 2531 
Q 206 2531 84 2484 
L 38 2597 
L 900 2947 
L 1034 2947 
L 1034 2341 
z
" transform="scale(0.015625)"/>
        <path id="TimesNewRomanPSMT-76" d="M 53 2863 
L 1400 2863 
L 1400 2747 
L 1313 2747 
Q 1191 2747 1127 2687 
Q 1063 2628 1063 2528 
Q 1063 2419 1128 2269 
L 1794 688 
L 2463 2328 
Q 2534 2503 2534 2594 
Q 2534 2638 2509 2666 
Q 2475 2713 2422 2730 
Q 2369 2747 2206 2747 
L 2206 2863 
L 3141 2863 
L 3141 2747 
Q 2978 2734 2916 2681 
Q 2806 2588 2719 2369 
L 1703 -88 
L 1575 -88 
L 553 2328 
Q 484 2497 421 2570 
Q 359 2644 263 2694 
Q 209 2722 53 2747 
L 53 2863 
z
" transform="scale(0.015625)"/>
        <path id="TimesNewRomanPSMT-65" d="M 681 1784 
Q 678 1147 991 784 
Q 1303 422 1725 422 
Q 2006 422 2214 576 
Q 2422 731 2563 1106 
L 2659 1044 
Q 2594 616 2278 264 
Q 1963 -88 1488 -88 
Q 972 -88 605 314 
Q 238 716 238 1394 
Q 238 2128 614 2539 
Q 991 2950 1559 2950 
Q 2041 2950 2350 2633 
Q 2659 2316 2659 1784 
L 681 1784 
z
M 681 1966 
L 2006 1966 
Q 1991 2241 1941 2353 
Q 1863 2528 1708 2628 
Q 1553 2728 1384 2728 
Q 1125 2728 920 2526 
Q 716 2325 681 1966 
z
" transform="scale(0.015625)"/>
        <path id="TimesNewRomanPSMT-52" d="M 4325 0 
L 3194 0 
L 1759 1981 
Q 1600 1975 1500 1975 
Q 1459 1975 1412 1976 
Q 1366 1978 1316 1981 
L 1316 750 
Q 1316 350 1403 253 
Q 1522 116 1759 116 
L 1925 116 
L 1925 0 
L 109 0 
L 109 116 
L 269 116 
Q 538 116 653 291 
Q 719 388 719 750 
L 719 3488 
Q 719 3888 631 3984 
Q 509 4122 269 4122 
L 109 4122 
L 109 4238 
L 1653 4238 
Q 2328 4238 2648 4139 
Q 2969 4041 3192 3777 
Q 3416 3513 3416 3147 
Q 3416 2756 3161 2468 
Q 2906 2181 2372 2063 
L 3247 847 
Q 3547 428 3762 290 
Q 3978 153 4325 116 
L 4325 0 
z
M 1316 2178 
Q 1375 2178 1419 2176 
Q 1463 2175 1491 2175 
Q 2097 2175 2405 2437 
Q 2713 2700 2713 3106 
Q 2713 3503 2464 3751 
Q 2216 4000 1806 4000 
Q 1625 4000 1316 3941 
L 1316 2178 
z
" transform="scale(0.015625)"/>
        <path id="TimesNewRomanPSMT-61" d="M 1822 413 
Q 1381 72 1269 19 
Q 1100 -59 909 -59 
Q 613 -59 420 144 
Q 228 347 228 678 
Q 228 888 322 1041 
Q 450 1253 767 1440 
Q 1084 1628 1822 1897 
L 1822 2009 
Q 1822 2438 1686 2597 
Q 1550 2756 1291 2756 
Q 1094 2756 978 2650 
Q 859 2544 859 2406 
L 866 2225 
Q 866 2081 792 2003 
Q 719 1925 600 1925 
Q 484 1925 411 2006 
Q 338 2088 338 2228 
Q 338 2497 613 2722 
Q 888 2947 1384 2947 
Q 1766 2947 2009 2819 
Q 2194 2722 2281 2516 
Q 2338 2381 2338 1966 
L 2338 994 
Q 2338 584 2353 492 
Q 2369 400 2405 369 
Q 2441 338 2488 338 
Q 2538 338 2575 359 
Q 2641 400 2828 588 
L 2828 413 
Q 2478 -56 2159 -56 
Q 2006 -56 1915 50 
Q 1825 156 1822 413 
z
M 1822 616 
L 1822 1706 
Q 1350 1519 1213 1441 
Q 966 1303 859 1153 
Q 753 1003 753 825 
Q 753 600 887 451 
Q 1022 303 1197 303 
Q 1434 303 1822 616 
z
" transform="scale(0.015625)"/>
       </defs>
       <use xlink:href="#TimesNewRomanPSMT-54"/>
       <use xlink:href="#TimesNewRomanPSMT-6f" transform="translate(54.083984 0)"/>
       <use xlink:href="#TimesNewRomanPSMT-75" transform="translate(104.083984 0)"/>
       <use xlink:href="#TimesNewRomanPSMT-72" transform="translate(154.083984 0)"/>
       <use xlink:href="#TimesNewRomanPSMT-69" transform="translate(187.384766 0)"/>
       <use xlink:href="#TimesNewRomanPSMT-73" transform="translate(215.167969 0)"/>
       <use xlink:href="#TimesNewRomanPSMT-74" transform="translate(254.083984 0)"/>
       <use xlink:href="#TimesNewRomanPSMT-20" transform="translate(281.867188 0)"/>
       <use xlink:href="#TimesNewRomanPSMT-43" transform="translate(306.867188 0)"/>
       <use xlink:href="#TimesNewRomanPSMT-6f" transform="translate(373.566406 0)"/>
       <use xlink:href="#TimesNewRomanPSMT-6e" transform="translate(423.566406 0)"/>
       <use xlink:href="#TimesNewRomanPSMT-76" transform="translate(473.566406 0)"/>
       <use xlink:href="#TimesNewRomanPSMT-65" transform="translate(523.566406 0)"/>
       <use xlink:href="#TimesNewRomanPSMT-72" transform="translate(567.951172 0)"/>
       <use xlink:href="#TimesNewRomanPSMT-73" transform="translate(601.251953 0)"/>
       <use xlink:href="#TimesNewRomanPSMT-69" transform="translate(640.167969 0)"/>
       <use xlink:href="#TimesNewRomanPSMT-6f" transform="translate(667.951172 0)"/>
       <use xlink:href="#TimesNewRomanPSMT-6e" transform="translate(717.951172 0)"/>
       <use xlink:href="#TimesNewRomanPSMT-20" transform="translate(767.951172 0)"/>
       <use xlink:href="#TimesNewRomanPSMT-52" transform="translate(792.951172 0)"/>
       <use xlink:href="#TimesNewRomanPSMT-61" transform="translate(859.650391 0)"/>
       <use xlink:href="#TimesNewRomanPSMT-74" transform="translate(904.035156 0)"/>
       <use xlink:href="#TimesNewRomanPSMT-65" transform="translate(931.818359 0)"/>
      </g>
     </g>
    </g>
    <g id="xtick_2">
     <g id="line2d_2">
      <path d="M 438.789315 359.7275 
L 702.422182 274.067989 
" clip-path="url(#p4eacecbffb)" style="fill: none; stroke: #b0b0b0; stroke-width: 0.8; stroke-linecap: square"/>
     </g>
     <g id="text_2">
      <!-- Hotel Occupancy Rate -->
      <g transform="translate(715.736973 274.049095) scale(0.18 -0.18)">
       <defs>
        <path id="TimesNewRomanPSMT-48" d="M 1316 2272 
L 3284 2272 
L 3284 3484 
Q 3284 3809 3244 3913 
Q 3213 3991 3113 4047 
Q 2978 4122 2828 4122 
L 2678 4122 
L 2678 4238 
L 4491 4238 
L 4491 4122 
L 4341 4122 
Q 4191 4122 4056 4050 
Q 3956 4000 3920 3898 
Q 3884 3797 3884 3484 
L 3884 750 
Q 3884 428 3925 325 
Q 3956 247 4053 191 
Q 4191 116 4341 116 
L 4491 116 
L 4491 0 
L 2678 0 
L 2678 116 
L 2828 116 
Q 3088 116 3206 269 
Q 3284 369 3284 750 
L 3284 2041 
L 1316 2041 
L 1316 750 
Q 1316 428 1356 325 
Q 1388 247 1488 191 
Q 1622 116 1772 116 
L 1925 116 
L 1925 0 
L 109 0 
L 109 116 
L 259 116 
Q 522 116 641 269 
Q 716 369 716 750 
L 716 3484 
Q 716 3809 675 3913 
Q 644 3991 547 4047 
Q 409 4122 259 4122 
L 109 4122 
L 109 4238 
L 1925 4238 
L 1925 4122 
L 1772 4122 
Q 1622 4122 1488 4050 
Q 1391 4000 1353 3898 
Q 1316 3797 1316 3484 
L 1316 2272 
z
" transform="scale(0.015625)"/>
        <path id="TimesNewRomanPSMT-6c" d="M 1184 4444 
L 1184 647 
Q 1184 378 1223 290 
Q 1263 203 1344 158 
Q 1425 113 1647 113 
L 1647 0 
L 244 0 
L 244 113 
Q 441 113 512 153 
Q 584 194 625 287 
Q 666 381 666 647 
L 666 3247 
Q 666 3731 644 3842 
Q 622 3953 573 3993 
Q 525 4034 450 4034 
Q 369 4034 244 3984 
L 191 4094 
L 1044 4444 
L 1184 4444 
z
" transform="scale(0.015625)"/>
        <path id="TimesNewRomanPSMT-4f" d="M 2341 4334 
Q 3166 4334 3770 3707 
Q 4375 3081 4375 2144 
Q 4375 1178 3765 540 
Q 3156 -97 2291 -97 
Q 1416 -97 820 525 
Q 225 1147 225 2134 
Q 225 3144 913 3781 
Q 1509 4334 2341 4334 
z
M 2281 4106 
Q 1713 4106 1369 3684 
Q 941 3159 941 2147 
Q 941 1109 1384 550 
Q 1725 125 2284 125 
Q 2881 125 3270 590 
Q 3659 1056 3659 2059 
Q 3659 3147 3231 3681 
Q 2888 4106 2281 4106 
z
" transform="scale(0.015625)"/>
        <path id="TimesNewRomanPSMT-63" d="M 2631 1088 
Q 2516 522 2178 217 
Q 1841 -88 1431 -88 
Q 944 -88 581 321 
Q 219 731 219 1428 
Q 219 2103 620 2525 
Q 1022 2947 1584 2947 
Q 2006 2947 2278 2723 
Q 2550 2500 2550 2259 
Q 2550 2141 2473 2067 
Q 2397 1994 2259 1994 
Q 2075 1994 1981 2113 
Q 1928 2178 1911 2362 
Q 1894 2547 1784 2644 
Q 1675 2738 1481 2738 
Q 1169 2738 978 2506 
Q 725 2200 725 1697 
Q 725 1184 976 792 
Q 1228 400 1656 400 
Q 1963 400 2206 609 
Q 2378 753 2541 1131 
L 2631 1088 
z
" transform="scale(0.015625)"/>
        <path id="TimesNewRomanPSMT-70" d="M -6 2578 
L 875 2934 
L 994 2934 
L 994 2266 
Q 1216 2644 1439 2795 
Q 1663 2947 1909 2947 
Q 2341 2947 2628 2609 
Q 2981 2197 2981 1534 
Q 2981 794 2556 309 
Q 2206 -88 1675 -88 
Q 1444 -88 1275 -22 
Q 1150 25 994 166 
L 994 -706 
Q 994 -1000 1030 -1079 
Q 1066 -1159 1155 -1206 
Q 1244 -1253 1478 -1253 
L 1478 -1369 
L -22 -1369 
L -22 -1253 
L 56 -1253 
Q 228 -1256 350 -1188 
Q 409 -1153 442 -1076 
Q 475 -1000 475 -688 
L 475 2019 
Q 475 2297 450 2372 
Q 425 2447 370 2484 
Q 316 2522 222 2522 
Q 147 2522 31 2478 
L -6 2578 
z
M 994 2081 
L 994 1013 
Q 994 666 1022 556 
Q 1066 375 1236 237 
Q 1406 100 1666 100 
Q 1978 100 2172 344 
Q 2425 663 2425 1241 
Q 2425 1897 2138 2250 
Q 1938 2494 1663 2494 
Q 1513 2494 1366 2419 
Q 1253 2363 994 2081 
z
" transform="scale(0.015625)"/>
        <path id="TimesNewRomanPSMT-79" d="M 38 2863 
L 1372 2863 
L 1372 2747 
L 1306 2747 
Q 1166 2747 1095 2686 
Q 1025 2625 1025 2534 
Q 1025 2413 1128 2197 
L 1825 753 
L 2466 2334 
Q 2519 2463 2519 2588 
Q 2519 2644 2497 2672 
Q 2472 2706 2419 2726 
Q 2366 2747 2231 2747 
L 2231 2863 
L 3163 2863 
L 3163 2747 
Q 3047 2734 2984 2696 
Q 2922 2659 2847 2556 
Q 2819 2513 2741 2316 
L 1575 -541 
Q 1406 -956 1132 -1168 
Q 859 -1381 606 -1381 
Q 422 -1381 303 -1275 
Q 184 -1169 184 -1031 
Q 184 -900 270 -820 
Q 356 -741 506 -741 
Q 609 -741 788 -809 
Q 913 -856 944 -856 
Q 1038 -856 1148 -759 
Q 1259 -663 1372 -384 
L 1575 113 
L 547 2272 
Q 500 2369 397 2513 
Q 319 2622 269 2659 
Q 197 2709 38 2747 
L 38 2863 
z
" transform="scale(0.015625)"/>
       </defs>
       <use xlink:href="#TimesNewRomanPSMT-48"/>
       <use xlink:href="#TimesNewRomanPSMT-6f" transform="translate(72.216797 0)"/>
       <use xlink:href="#TimesNewRomanPSMT-74" transform="translate(122.216797 0)"/>
       <use xlink:href="#TimesNewRomanPSMT-65" transform="translate(150 0)"/>
       <use xlink:href="#TimesNewRomanPSMT-6c" transform="translate(194.384766 0)"/>
       <use xlink:href="#TimesNewRomanPSMT-20" transform="translate(222.167969 0)"/>
       <use xlink:href="#TimesNewRomanPSMT-4f" transform="translate(247.167969 0)"/>
       <use xlink:href="#TimesNewRomanPSMT-63" transform="translate(319.384766 0)"/>
       <use xlink:href="#TimesNewRomanPSMT-63" transform="translate(363.769531 0)"/>
       <use xlink:href="#TimesNewRomanPSMT-75" transform="translate(408.154297 0)"/>
       <use xlink:href="#TimesNewRomanPSMT-70" transform="translate(458.154297 0)"/>
       <use xlink:href="#TimesNewRomanPSMT-61" transform="translate(508.154297 0)"/>
       <use xlink:href="#TimesNewRomanPSMT-6e" transform="translate(552.539062 0)"/>
       <use xlink:href="#TimesNewRomanPSMT-63" transform="translate(602.539062 0)"/>
       <use xlink:href="#TimesNewRomanPSMT-79" transform="translate(646.923828 0)"/>
       <use xlink:href="#TimesNewRomanPSMT-20" transform="translate(696.923828 0)"/>
       <use xlink:href="#TimesNewRomanPSMT-52" transform="translate(721.923828 0)"/>
       <use xlink:href="#TimesNewRomanPSMT-61" transform="translate(788.623047 0)"/>
       <use xlink:href="#TimesNewRomanPSMT-74" transform="translate(833.007812 0)"/>
       <use xlink:href="#TimesNewRomanPSMT-65" transform="translate(860.791016 0)"/>
      </g>
     </g>
    </g>
    <g id="xtick_3">
     <g id="line2d_3">
      <path d="M 438.789315 359.7275 
L 601.723387 583.987011 
" clip-path="url(#p4eacecbffb)" style="fill: none; stroke: #b0b0b0; stroke-width: 0.8; stroke-linecap: square"/>
     </g>
     <g id="text_3">
      <!-- Revisit Rate  -->
      <g transform="translate(609.952381 599.637468) scale(0.18 -0.18)">
       <use xlink:href="#TimesNewRomanPSMT-52"/>
       <use xlink:href="#TimesNewRomanPSMT-65" transform="translate(66.699219 0)"/>
       <use xlink:href="#TimesNewRomanPSMT-76" transform="translate(111.083984 0)"/>
       <use xlink:href="#TimesNewRomanPSMT-69" transform="translate(161.083984 0)"/>
       <use xlink:href="#TimesNewRomanPSMT-73" transform="translate(188.867188 0)"/>
       <use xlink:href="#TimesNewRomanPSMT-69" transform="translate(227.783203 0)"/>
       <use xlink:href="#TimesNewRomanPSMT-74" transform="translate(255.566406 0)"/>
       <use xlink:href="#TimesNewRomanPSMT-20" transform="translate(283.349609 0)"/>
       <use xlink:href="#TimesNewRomanPSMT-52" transform="translate(308.349609 0)"/>
       <use xlink:href="#TimesNewRomanPSMT-61" transform="translate(375.048828 0)"/>
       <use xlink:href="#TimesNewRomanPSMT-74" transform="translate(419.433594 0)"/>
       <use xlink:href="#TimesNewRomanPSMT-65" transform="translate(447.216797 0)"/>
       <use xlink:href="#TimesNewRomanPSMT-20" transform="translate(491.601562 0)"/>
      </g>
     </g>
    </g>
    <g id="xtick_4">
     <g id="line2d_4">
      <path d="M 438.789315 359.7275 
L 275.855244 583.987011 
" clip-path="url(#p4eacecbffb)" style="fill: none; stroke: #b0b0b0; stroke-width: 0.8; stroke-linecap: square"/>
     </g>
     <g id="text_4">
      <!-- Attraction Capacity Utilization Rate -->
      <g transform="translate(7.2 599.620593) scale(0.18 -0.18)">
       <defs>
        <path id="TimesNewRomanPSMT-41" d="M 2928 1419 
L 1288 1419 
L 1000 750 
Q 894 503 894 381 
Q 894 284 986 211 
Q 1078 138 1384 116 
L 1384 0 
L 50 0 
L 50 116 
Q 316 163 394 238 
Q 553 388 747 847 
L 2238 4334 
L 2347 4334 
L 3822 809 
Q 4000 384 4145 257 
Q 4291 131 4550 116 
L 4550 0 
L 2878 0 
L 2878 116 
Q 3131 128 3220 200 
Q 3309 272 3309 375 
Q 3309 513 3184 809 
L 2928 1419 
z
M 2841 1650 
L 2122 3363 
L 1384 1650 
L 2841 1650 
z
" transform="scale(0.015625)"/>
        <path id="TimesNewRomanPSMT-55" d="M 3053 4122 
L 3053 4238 
L 4553 4238 
L 4553 4122 
L 4394 4122 
Q 4144 4122 4009 3913 
Q 3944 3816 3944 3463 
L 3944 1744 
Q 3944 1106 3817 754 
Q 3691 403 3320 151 
Q 2950 -100 2313 -100 
Q 1619 -100 1259 140 
Q 900 381 750 788 
Q 650 1066 650 1831 
L 650 3488 
Q 650 3878 542 4000 
Q 434 4122 194 4122 
L 34 4122 
L 34 4238 
L 1866 4238 
L 1866 4122 
L 1703 4122 
Q 1441 4122 1328 3956 
Q 1250 3844 1250 3488 
L 1250 1641 
Q 1250 1394 1295 1075 
Q 1341 756 1459 578 
Q 1578 400 1801 284 
Q 2025 169 2350 169 
Q 2766 169 3094 350 
Q 3422 531 3542 814 
Q 3663 1097 3663 1772 
L 3663 3488 
Q 3663 3884 3575 3984 
Q 3453 4122 3213 4122 
L 3053 4122 
z
" transform="scale(0.015625)"/>
        <path id="TimesNewRomanPSMT-7a" d="M 2688 878 
L 2653 0 
L 128 0 
L 128 113 
L 2028 2644 
L 1091 2644 
Q 788 2644 694 2605 
Q 600 2566 541 2456 
Q 456 2300 444 2069 
L 319 2069 
L 338 2863 
L 2738 2863 
L 2738 2747 
L 819 209 
L 1863 209 
Q 2191 209 2308 264 
Q 2425 319 2497 456 
Q 2547 556 2581 878 
L 2688 878 
z
" transform="scale(0.015625)"/>
       </defs>
       <use xlink:href="#TimesNewRomanPSMT-41"/>
       <use xlink:href="#TimesNewRomanPSMT-74" transform="translate(72.216797 0)"/>
       <use xlink:href="#TimesNewRomanPSMT-74" transform="translate(100 0)"/>
       <use xlink:href="#TimesNewRomanPSMT-72" transform="translate(127.783203 0)"/>
       <use xlink:href="#TimesNewRomanPSMT-61" transform="translate(161.083984 0)"/>
       <use xlink:href="#TimesNewRomanPSMT-63" transform="translate(205.46875 0)"/>
       <use xlink:href="#TimesNewRomanPSMT-74" transform="translate(249.853516 0)"/>
       <use xlink:href="#TimesNewRomanPSMT-69" transform="translate(277.636719 0)"/>
       <use xlink:href="#TimesNewRomanPSMT-6f" transform="translate(305.419922 0)"/>
       <use xlink:href="#TimesNewRomanPSMT-6e" transform="translate(355.419922 0)"/>
       <use xlink:href="#TimesNewRomanPSMT-20" transform="translate(405.419922 0)"/>
       <use xlink:href="#TimesNewRomanPSMT-43" transform="translate(430.419922 0)"/>
       <use xlink:href="#TimesNewRomanPSMT-61" transform="translate(497.119141 0)"/>
       <use xlink:href="#TimesNewRomanPSMT-70" transform="translate(541.503906 0)"/>
       <use xlink:href="#TimesNewRomanPSMT-61" transform="translate(591.503906 0)"/>
       <use xlink:href="#TimesNewRomanPSMT-63" transform="translate(635.888672 0)"/>
       <use xlink:href="#TimesNewRomanPSMT-69" transform="translate(680.273438 0)"/>
       <use xlink:href="#TimesNewRomanPSMT-74" transform="translate(708.056641 0)"/>
       <use xlink:href="#TimesNewRomanPSMT-79" transform="translate(735.839844 0)"/>
       <use xlink:href="#TimesNewRomanPSMT-20" transform="translate(785.839844 0)"/>
       <use xlink:href="#TimesNewRomanPSMT-55" transform="translate(810.839844 0)"/>
       <use xlink:href="#TimesNewRomanPSMT-74" transform="translate(883.056641 0)"/>
       <use xlink:href="#TimesNewRomanPSMT-69" transform="translate(910.839844 0)"/>
       <use xlink:href="#TimesNewRomanPSMT-6c" transform="translate(938.623047 0)"/>
       <use xlink:href="#TimesNewRomanPSMT-69" transform="translate(966.40625 0)"/>
       <use xlink:href="#TimesNewRomanPSMT-7a" transform="translate(994.189453 0)"/>
       <use xlink:href="#TimesNewRomanPSMT-61" transform="translate(1038.574219 0)"/>
       <use xlink:href="#TimesNewRomanPSMT-74" transform="translate(1082.958984 0)"/>
       <use xlink:href="#TimesNewRomanPSMT-69" transform="translate(1110.742188 0)"/>
       <use xlink:href="#TimesNewRomanPSMT-6f" transform="translate(1138.525391 0)"/>
       <use xlink:href="#TimesNewRomanPSMT-6e" transform="translate(1188.525391 0)"/>
       <use xlink:href="#TimesNewRomanPSMT-20" transform="translate(1238.525391 0)"/>
       <use xlink:href="#TimesNewRomanPSMT-52" transform="translate(1263.525391 0)"/>
       <use xlink:href="#TimesNewRomanPSMT-61" transform="translate(1330.224609 0)"/>
       <use xlink:href="#TimesNewRomanPSMT-74" transform="translate(1374.609375 0)"/>
       <use xlink:href="#TimesNewRomanPSMT-65" transform="translate(1402.392578 0)"/>
      </g>
     </g>
    </g>
    <g id="xtick_5">
     <g id="line2d_5">
      <path d="M 438.789315 359.7275 
L 175.156449 274.067989 
" clip-path="url(#p4eacecbffb)" style="fill: none; stroke: #b0b0b0; stroke-width: 0.8; stroke-linecap: square"/>
     </g>
     <g id="text_5">
      <!-- Tourist Growth Rate -->
      <g transform="translate(14.126345 274.06597) scale(0.18 -0.18)">
       <defs>
        <path id="TimesNewRomanPSMT-47" d="M 3928 4334 
L 4038 2997 
L 3928 2997 
Q 3763 3497 3500 3750 
Q 3122 4116 2528 4116 
Q 1719 4116 1297 3475 
Q 944 2934 944 2188 
Q 944 1581 1178 1081 
Q 1413 581 1792 348 
Q 2172 116 2572 116 
Q 2806 116 3025 175 
Q 3244 234 3447 350 
L 3447 1575 
Q 3447 1894 3398 1992 
Q 3350 2091 3248 2142 
Q 3147 2194 2891 2194 
L 2891 2313 
L 4531 2313 
L 4531 2194 
L 4453 2194 
Q 4209 2194 4119 2031 
Q 4056 1916 4056 1575 
L 4056 278 
Q 3697 84 3347 -6 
Q 2997 -97 2569 -97 
Q 1341 -97 703 691 
Q 225 1281 225 2053 
Q 225 2613 494 3125 
Q 813 3734 1369 4063 
Q 1834 4334 2469 4334 
Q 2700 4334 2889 4296 
Q 3078 4259 3425 4131 
Q 3600 4066 3659 4066 
Q 3719 4066 3761 4120 
Q 3803 4175 3813 4334 
L 3928 4334 
z
" transform="scale(0.015625)"/>
        <path id="TimesNewRomanPSMT-77" d="M 41 2863 
L 1241 2863 
L 1241 2747 
Q 1075 2734 1023 2687 
Q 972 2641 972 2553 
Q 972 2456 1025 2319 
L 1638 672 
L 2253 2013 
L 2091 2434 
Q 2016 2622 1894 2694 
Q 1825 2738 1638 2747 
L 1638 2863 
L 3000 2863 
L 3000 2747 
Q 2775 2738 2681 2666 
Q 2619 2616 2619 2506 
Q 2619 2444 2644 2378 
L 3294 734 
L 3897 2319 
Q 3959 2488 3959 2588 
Q 3959 2647 3898 2694 
Q 3838 2741 3659 2747 
L 3659 2863 
L 4563 2863 
L 4563 2747 
Q 4291 2706 4163 2378 
L 3206 -88 
L 3078 -88 
L 2363 1741 
L 1528 -88 
L 1413 -88 
L 494 2319 
Q 403 2547 315 2626 
Q 228 2706 41 2747 
L 41 2863 
z
" transform="scale(0.015625)"/>
        <path id="TimesNewRomanPSMT-68" d="M 1041 4444 
L 1041 2350 
Q 1388 2731 1591 2839 
Q 1794 2947 1997 2947 
Q 2241 2947 2416 2812 
Q 2591 2678 2675 2391 
Q 2734 2191 2734 1659 
L 2734 647 
Q 2734 375 2778 275 
Q 2809 200 2884 156 
Q 2959 113 3159 113 
L 3159 0 
L 1753 0 
L 1753 113 
L 1819 113 
Q 2019 113 2097 173 
Q 2175 234 2206 353 
Q 2216 403 2216 647 
L 2216 1659 
Q 2216 2128 2167 2275 
Q 2119 2422 2012 2495 
Q 1906 2569 1756 2569 
Q 1603 2569 1437 2487 
Q 1272 2406 1041 2159 
L 1041 647 
Q 1041 353 1073 281 
Q 1106 209 1195 161 
Q 1284 113 1503 113 
L 1503 0 
L 84 0 
L 84 113 
Q 275 113 384 172 
Q 447 203 484 290 
Q 522 378 522 647 
L 522 3238 
Q 522 3728 498 3840 
Q 475 3953 426 3993 
Q 378 4034 297 4034 
Q 231 4034 84 3984 
L 41 4094 
L 897 4444 
L 1041 4444 
z
" transform="scale(0.015625)"/>
       </defs>
       <use xlink:href="#TimesNewRomanPSMT-54"/>
       <use xlink:href="#TimesNewRomanPSMT-6f" transform="translate(54.083984 0)"/>
       <use xlink:href="#TimesNewRomanPSMT-75" transform="translate(104.083984 0)"/>
       <use xlink:href="#TimesNewRomanPSMT-72" transform="translate(154.083984 0)"/>
       <use xlink:href="#TimesNewRomanPSMT-69" transform="translate(187.384766 0)"/>
       <use xlink:href="#TimesNewRomanPSMT-73" transform="translate(215.167969 0)"/>
       <use xlink:href="#TimesNewRomanPSMT-74" transform="translate(254.083984 0)"/>
       <use xlink:href="#TimesNewRomanPSMT-20" transform="translate(281.867188 0)"/>
       <use xlink:href="#TimesNewRomanPSMT-47" transform="translate(306.867188 0)"/>
       <use xlink:href="#TimesNewRomanPSMT-72" transform="translate(379.083984 0)"/>
       <use xlink:href="#TimesNewRomanPSMT-6f" transform="translate(412.384766 0)"/>
       <use xlink:href="#TimesNewRomanPSMT-77" transform="translate(462.384766 0)"/>
       <use xlink:href="#TimesNewRomanPSMT-74" transform="translate(534.601562 0)"/>
       <use xlink:href="#TimesNewRomanPSMT-68" transform="translate(562.384766 0)"/>
       <use xlink:href="#TimesNewRomanPSMT-20" transform="translate(612.384766 0)"/>
       <use xlink:href="#TimesNewRomanPSMT-52" transform="translate(637.384766 0)"/>
       <use xlink:href="#TimesNewRomanPSMT-61" transform="translate(704.083984 0)"/>
       <use xlink:href="#TimesNewRomanPSMT-74" transform="translate(748.46875 0)"/>
       <use xlink:href="#TimesNewRomanPSMT-65" transform="translate(776.251953 0)"/>
      </g>
     </g>
    </g>
   </g>
   <g id="matplotlib.axis_2">
    <g id="ytick_1">
     <g id="line2d_6">
      <path d="M 438.789315 304.2875 
C 446.06963 304.2875 453.279152 305.721563 460.005285 308.507619 
C 466.731418 311.293674 472.843356 315.377541 477.991315 320.5255 
C 483.139275 325.67346 487.223141 331.785397 490.009197 338.511531 
C 492.795252 345.237664 494.229315 352.447186 494.229315 359.7275 
C 494.229315 367.007814 492.795252 374.217336 490.009197 380.943469 
C 487.223141 387.669603 483.139275 393.78154 477.991315 398.9295 
C 472.843356 404.077459 466.731418 408.161326 460.005285 410.947381 
C 453.279152 413.733437 446.06963 415.1675 438.789315 415.1675 
C 431.509001 415.1675 424.299479 413.733437 417.573346 410.947381 
C 410.847213 408.161326 404.735275 404.077459 399.587316 398.9295 
C 394.439356 393.78154 390.35549 387.669603 387.569434 380.943469 
C 384.783379 374.217336 383.349315 367.007814 383.349315 359.7275 
C 383.349315 352.447186 384.783379 345.237664 387.569434 338.511531 
C 390.35549 331.785397 394.439356 325.67346 399.587316 320.5255 
C 404.735275 315.377541 410.847213 311.293674 417.573346 308.507619 
C 424.299479 305.721563 431.509001 304.2875 438.789315 304.2875 
" clip-path="url(#p4eacecbffb)" style="fill: none; stroke: #b0b0b0; stroke-width: 0.8; stroke-linecap: square"/>
     </g>
     <g id="text_6">
      <!-- 20 -->
      <g style="fill: #808080" transform="translate(438.789315 302.148438) scale(0.1 -0.1)">
       <defs>
        <path id="TimesNewRomanPSMT-32" d="M 2934 816 
L 2638 0 
L 138 0 
L 138 116 
Q 1241 1122 1691 1759 
Q 2141 2397 2141 2925 
Q 2141 3328 1894 3587 
Q 1647 3847 1303 3847 
Q 991 3847 742 3664 
Q 494 3481 375 3128 
L 259 3128 
Q 338 3706 661 4015 
Q 984 4325 1469 4325 
Q 1984 4325 2329 3994 
Q 2675 3663 2675 3213 
Q 2675 2891 2525 2569 
Q 2294 2063 1775 1497 
Q 997 647 803 472 
L 1909 472 
Q 2247 472 2383 497 
Q 2519 522 2628 598 
Q 2738 675 2819 816 
L 2934 816 
z
" transform="scale(0.015625)"/>
        <path id="TimesNewRomanPSMT-30" d="M 231 2094 
Q 231 2819 450 3342 
Q 669 3866 1031 4122 
Q 1313 4325 1613 4325 
Q 2100 4325 2488 3828 
Q 2972 3213 2972 2159 
Q 2972 1422 2759 906 
Q 2547 391 2217 158 
Q 1888 -75 1581 -75 
Q 975 -75 572 641 
Q 231 1244 231 2094 
z
M 844 2016 
Q 844 1141 1059 588 
Q 1238 122 1591 122 
Q 1759 122 1940 273 
Q 2122 425 2216 781 
Q 2359 1319 2359 2297 
Q 2359 3022 2209 3506 
Q 2097 3866 1919 4016 
Q 1791 4119 1609 4119 
Q 1397 4119 1231 3928 
Q 1006 3669 925 3112 
Q 844 2556 844 2016 
z
" transform="scale(0.015625)"/>
       </defs>
       <use xlink:href="#TimesNewRomanPSMT-32"/>
       <use xlink:href="#TimesNewRomanPSMT-30" transform="translate(50 0)"/>
      </g>
     </g>
    </g>
    <g id="ytick_2">
     <g id="line2d_7">
      <path d="M 438.789315 248.8475 
C 453.349944 248.8475 467.768988 251.715626 481.221254 257.287737 
C 494.673521 262.859849 506.897396 271.027581 517.193315 281.3235 
C 527.489234 291.619419 535.656967 303.843295 541.229078 317.295561 
C 546.801189 330.747827 549.669315 345.166872 549.669315 359.7275 
C 549.669315 374.288128 546.801189 388.707173 541.229078 402.159439 
C 535.656967 415.611705 527.489234 427.835581 517.193315 438.1315 
C 506.897396 448.427419 494.673521 456.595151 481.221254 462.167263 
C 467.768988 467.739374 453.349944 470.6075 438.789315 470.6075 
C 424.228687 470.6075 409.809643 467.739374 396.357376 462.167263 
C 382.90511 456.595151 370.681235 448.427419 360.385316 438.1315 
C 350.089397 427.835581 341.921664 415.611705 336.349553 402.159439 
C 330.777442 388.707173 327.909315 374.288128 327.909315 359.7275 
C 327.909315 345.166872 330.777442 330.747827 336.349553 317.295561 
C 341.921664 303.843295 350.089397 291.619419 360.385316 281.3235 
C 370.681235 271.027581 382.90511 262.859849 396.357376 257.287737 
C 409.809643 251.715626 424.228687 248.8475 438.789315 248.8475 
" clip-path="url(#p4eacecbffb)" style="fill: none; stroke: #b0b0b0; stroke-width: 0.8; stroke-linecap: square"/>
     </g>
     <g id="text_7">
      <!-- 40 -->
      <g style="fill: #808080" transform="translate(438.789315 246.708438) scale(0.1 -0.1)">
       <defs>
        <path id="TimesNewRomanPSMT-34" d="M 2978 1563 
L 2978 1119 
L 2409 1119 
L 2409 0 
L 1894 0 
L 1894 1119 
L 100 1119 
L 100 1519 
L 2066 4325 
L 2409 4325 
L 2409 1563 
L 2978 1563 
z
M 1894 1563 
L 1894 3666 
L 406 1563 
L 1894 1563 
z
" transform="scale(0.015625)"/>
       </defs>
       <use xlink:href="#TimesNewRomanPSMT-34"/>
       <use xlink:href="#TimesNewRomanPSMT-30" transform="translate(50 0)"/>
      </g>
     </g>
    </g>
    <g id="ytick_3">
     <g id="line2d_8">
      <path d="M 438.789315 193.4075 
C 460.630258 193.4075 482.258824 197.709689 502.437224 206.067856 
C 522.615623 214.426023 540.951437 226.677622 556.395315 242.1215 
C 571.839194 257.565379 584.090793 275.901192 592.448959 296.079592 
C 600.807126 316.257991 605.109315 337.886558 605.109315 359.7275 
C 605.109315 381.568442 600.807126 403.197009 592.448959 423.375408 
C 584.090793 443.553808 571.839194 461.889621 556.395315 477.3335 
C 540.951437 492.777378 522.615623 505.028977 502.437224 513.387144 
C 482.258824 521.745311 460.630258 526.0475 438.789315 526.0475 
C 416.948373 526.0475 395.319807 521.745311 375.141407 513.387144 
C 354.963007 505.028977 336.627194 492.777378 321.183316 477.3335 
C 305.739437 461.889621 293.487838 443.553808 285.129672 423.375408 
C 276.771505 403.197009 272.469315 381.568442 272.469315 359.7275 
C 272.469315 337.886558 276.771505 316.257991 285.129672 296.079592 
C 293.487838 275.901192 305.739437 257.565379 321.183316 242.1215 
C 336.627194 226.677622 354.963007 214.426023 375.141407 206.067856 
C 395.319807 197.709689 416.948373 193.4075 438.789315 193.4075 
" clip-path="url(#p4eacecbffb)" style="fill: none; stroke: #b0b0b0; stroke-width: 0.8; stroke-linecap: square"/>
     </g>
     <g id="text_8">
      <!-- 60 -->
      <g style="fill: #808080" transform="translate(438.789315 191.268438) scale(0.1 -0.1)">
       <defs>
        <path id="TimesNewRomanPSMT-36" d="M 2869 4325 
L 2869 4209 
Q 2456 4169 2195 4045 
Q 1934 3922 1679 3669 
Q 1425 3416 1258 3105 
Q 1091 2794 978 2366 
Q 1428 2675 1881 2675 
Q 2316 2675 2634 2325 
Q 2953 1975 2953 1425 
Q 2953 894 2631 456 
Q 2244 -75 1606 -75 
Q 1172 -75 869 213 
Q 275 772 275 1663 
Q 275 2231 503 2743 
Q 731 3256 1154 3653 
Q 1578 4050 1965 4187 
Q 2353 4325 2688 4325 
L 2869 4325 
z
M 925 2138 
Q 869 1716 869 1456 
Q 869 1156 980 804 
Q 1091 453 1309 247 
Q 1469 100 1697 100 
Q 1969 100 2183 356 
Q 2397 613 2397 1088 
Q 2397 1622 2184 2012 
Q 1972 2403 1581 2403 
Q 1463 2403 1327 2353 
Q 1191 2303 925 2138 
z
" transform="scale(0.015625)"/>
       </defs>
       <use xlink:href="#TimesNewRomanPSMT-36"/>
       <use xlink:href="#TimesNewRomanPSMT-30" transform="translate(50 0)"/>
      </g>
     </g>
    </g>
    <g id="ytick_4">
     <g id="line2d_9">
      <path d="M 438.789315 137.9675 
C 467.910572 137.9675 496.748661 143.703753 523.653193 154.847975 
C 550.557726 165.992197 575.005477 182.327662 595.597315 202.9195 
C 616.189153 223.511338 632.524618 247.959089 643.668841 274.863622 
C 654.813063 301.768155 660.549315 330.606244 660.549315 359.7275 
C 660.549315 388.848756 654.813063 417.686845 643.668841 444.591378 
C 632.524618 471.495911 616.189153 495.943662 595.597315 516.5355 
C 575.005477 537.127338 550.557726 553.462803 523.653193 564.607025 
C 496.748661 575.751247 467.910572 581.4875 438.789315 581.4875 
C 409.668059 581.4875 380.82997 575.751247 353.925438 564.607025 
C 327.020905 553.462803 302.573154 537.127338 281.981316 516.5355 
C 261.389478 495.943662 245.054013 471.495911 233.90979 444.591378 
C 222.765568 417.686845 217.029315 388.848756 217.029315 359.7275 
C 217.029315 330.606244 222.765568 301.768155 233.90979 274.863622 
C 245.054013 247.959089 261.389478 223.511338 281.981316 202.9195 
C 302.573154 182.327662 327.020905 165.992197 353.925438 154.847975 
C 380.82997 143.703753 409.668059 137.9675 438.789315 137.9675 
" clip-path="url(#p4eacecbffb)" style="fill: none; stroke: #b0b0b0; stroke-width: 0.8; stroke-linecap: square"/>
     </g>
     <g id="text_9">
      <!-- 80 -->
      <g style="fill: #808080" transform="translate(438.789315 135.828438) scale(0.1 -0.1)">
       <defs>
        <path id="TimesNewRomanPSMT-38" d="M 1228 2134 
Q 725 2547 579 2797 
Q 434 3047 434 3316 
Q 434 3728 753 4026 
Q 1072 4325 1600 4325 
Q 2113 4325 2425 4047 
Q 2738 3769 2738 3413 
Q 2738 3175 2569 2928 
Q 2400 2681 1866 2347 
Q 2416 1922 2594 1678 
Q 2831 1359 2831 1006 
Q 2831 559 2490 242 
Q 2150 -75 1597 -75 
Q 994 -75 656 303 
Q 388 606 388 966 
Q 388 1247 577 1523 
Q 766 1800 1228 2134 
z
M 1719 2469 
Q 2094 2806 2194 3001 
Q 2294 3197 2294 3444 
Q 2294 3772 2109 3958 
Q 1925 4144 1606 4144 
Q 1288 4144 1088 3959 
Q 888 3775 888 3528 
Q 888 3366 970 3203 
Q 1053 3041 1206 2894 
L 1719 2469 
z
M 1375 2016 
Q 1116 1797 991 1539 
Q 866 1281 866 981 
Q 866 578 1086 336 
Q 1306 94 1647 94 
Q 1984 94 2187 284 
Q 2391 475 2391 747 
Q 2391 972 2272 1150 
Q 2050 1481 1375 2016 
z
" transform="scale(0.015625)"/>
       </defs>
       <use xlink:href="#TimesNewRomanPSMT-38"/>
       <use xlink:href="#TimesNewRomanPSMT-30" transform="translate(50 0)"/>
      </g>
     </g>
    </g>
   </g>
   <g id="line2d_10">
    <path d="M 438.789315 104.7035 
L 502.061203 339.169217 
L 495.816241 438.218329 
L 332.882169 505.496182 
L 198.883407 281.777345 
L 438.789315 104.7035 
" clip-path="url(#p4eacecbffb)" style="fill: none; stroke: #1f77b4; stroke-width: 2; stroke-linecap: square"/>
   </g>
   <g id="patch_4">
    <path d="M 438.789315 82.5275 
C 402.387745 82.5275 366.340134 89.697816 332.709468 103.628094 
C 299.078802 117.558372 268.519113 137.977703 242.779316 163.7175 
C 217.039518 189.457298 196.620187 220.016987 182.689909 253.647653 
C 168.759631 287.278318 161.589315 323.32593 161.589315 359.7275 
C 161.589315 396.12907 168.759631 432.176682 182.689909 465.807347 
C 196.620187 499.438013 217.039518 529.997702 242.779316 555.7375 
C 268.519113 581.477297 299.078802 601.896628 332.709468 615.826906 
C 366.340134 629.757184 402.387745 636.9275 438.789315 636.9275 
C 475.190886 636.9275 511.238497 629.757184 544.869163 615.826906 
C 578.499829 601.896628 609.059518 581.477297 634.799315 555.7375 
C 660.539113 529.997702 680.958444 499.438013 694.888722 465.807347 
C 708.819 432.176682 715.989315 396.12907 715.989315 359.7275 
C 715.989315 323.32593 708.819 287.278318 694.888722 253.647653 
C 680.958444 220.016987 660.539113 189.457298 634.799315 163.7175 
C 609.059518 137.977703 578.499829 117.558372 544.869163 103.628094 
C 511.238497 89.697816 475.190886 82.5275 438.789315 82.5275 
" style="fill: none; stroke: #000000; stroke-width: 0.8; stroke-linejoin: miter; stroke-linecap: square"/>
   </g>
   <g id="text_10">
    <!-- Tourism and Hospitality ( %) -->
    <g transform="translate(321.731503 21.0875) scale(0.2 -0.2)">
     <defs>
      <path id="TimesNewRomanPSMT-6d" d="M 1050 2338 
Q 1363 2650 1419 2697 
Q 1559 2816 1721 2881 
Q 1884 2947 2044 2947 
Q 2313 2947 2506 2790 
Q 2700 2634 2766 2338 
Q 3088 2713 3309 2830 
Q 3531 2947 3766 2947 
Q 3994 2947 4170 2830 
Q 4347 2713 4450 2447 
Q 4519 2266 4519 1878 
L 4519 647 
Q 4519 378 4559 278 
Q 4591 209 4675 161 
Q 4759 113 4950 113 
L 4950 0 
L 3538 0 
L 3538 113 
L 3597 113 
Q 3781 113 3884 184 
Q 3956 234 3988 344 
Q 4000 397 4000 647 
L 4000 1878 
Q 4000 2228 3916 2372 
Q 3794 2572 3525 2572 
Q 3359 2572 3192 2489 
Q 3025 2406 2788 2181 
L 2781 2147 
L 2788 2013 
L 2788 647 
Q 2788 353 2820 281 
Q 2853 209 2943 161 
Q 3034 113 3253 113 
L 3253 0 
L 1806 0 
L 1806 113 
Q 2044 113 2133 169 
Q 2222 225 2256 338 
Q 2272 391 2272 647 
L 2272 1878 
Q 2272 2228 2169 2381 
Q 2031 2581 1784 2581 
Q 1616 2581 1450 2491 
Q 1191 2353 1050 2181 
L 1050 647 
Q 1050 366 1089 281 
Q 1128 197 1204 155 
Q 1281 113 1516 113 
L 1516 0 
L 100 0 
L 100 113 
Q 297 113 375 155 
Q 453 197 493 289 
Q 534 381 534 647 
L 534 1741 
Q 534 2213 506 2350 
Q 484 2453 437 2492 
Q 391 2531 309 2531 
Q 222 2531 100 2484 
L 53 2597 
L 916 2947 
L 1050 2947 
L 1050 2338 
z
" transform="scale(0.015625)"/>
      <path id="TimesNewRomanPSMT-64" d="M 2222 322 
Q 2013 103 1813 7 
Q 1613 -88 1381 -88 
Q 913 -88 563 304 
Q 213 697 213 1313 
Q 213 1928 600 2439 
Q 988 2950 1597 2950 
Q 1975 2950 2222 2709 
L 2222 3238 
Q 2222 3728 2198 3840 
Q 2175 3953 2125 3993 
Q 2075 4034 2000 4034 
Q 1919 4034 1784 3984 
L 1744 4094 
L 2597 4444 
L 2738 4444 
L 2738 1134 
Q 2738 631 2761 520 
Q 2784 409 2836 365 
Q 2888 322 2956 322 
Q 3041 322 3181 375 
L 3216 266 
L 2366 -88 
L 2222 -88 
L 2222 322 
z
M 2222 541 
L 2222 2016 
Q 2203 2228 2109 2403 
Q 2016 2578 1861 2667 
Q 1706 2756 1559 2756 
Q 1284 2756 1069 2509 
Q 784 2184 784 1559 
Q 784 928 1059 592 
Q 1334 256 1672 256 
Q 1956 256 2222 541 
z
" transform="scale(0.015625)"/>
      <path id="TimesNewRomanPSMT-28" d="M 1988 -1253 
L 1988 -1369 
Q 1516 -1131 1200 -813 
Q 750 -359 506 256 
Q 263 872 263 1534 
Q 263 2503 741 3301 
Q 1219 4100 1988 4444 
L 1988 4313 
Q 1603 4100 1356 3731 
Q 1109 3363 987 2797 
Q 866 2231 866 1616 
Q 866 947 969 400 
Q 1050 -31 1165 -292 
Q 1281 -553 1476 -793 
Q 1672 -1034 1988 -1253 
z
" transform="scale(0.015625)"/>
      <path id="TimesNewRomanPSMT-25" d="M 4350 4334 
L 1263 -175 
L 984 -175 
L 4072 4334 
L 4350 4334 
z
M 1138 4334 
Q 1559 4334 1792 3984 
Q 2025 3634 2025 3181 
Q 2025 2638 1762 2341 
Q 1500 2044 1131 2044 
Q 884 2044 678 2180 
Q 472 2316 348 2584 
Q 225 2853 225 3181 
Q 225 3509 350 3786 
Q 475 4063 692 4198 
Q 909 4334 1138 4334 
z
M 1128 4159 
Q 969 4159 845 3971 
Q 722 3784 722 3184 
Q 722 2750 791 2522 
Q 844 2350 956 2256 
Q 1022 2200 1119 2200 
Q 1269 2200 1375 2363 
Q 1531 2603 1531 3166 
Q 1531 3759 1378 4000 
Q 1278 4159 1128 4159 
z
M 4206 2103 
Q 4428 2103 4648 1962 
Q 4869 1822 4989 1553 
Q 5109 1284 5109 963 
Q 5109 409 4843 117 
Q 4578 -175 4216 -175 
Q 3988 -175 3773 -34 
Q 3559 106 3436 367 
Q 3313 628 3313 963 
Q 3313 1291 3436 1562 
Q 3559 1834 3773 1968 
Q 3988 2103 4206 2103 
z
M 4209 1938 
Q 4059 1938 3950 1769 
Q 3809 1550 3809 941 
Q 3809 381 3953 159 
Q 4059 0 4209 0 
Q 4353 0 4466 172 
Q 4616 400 4616 956 
Q 4616 1544 4466 1778 
Q 4363 1938 4209 1938 
z
" transform="scale(0.015625)"/>
      <path id="TimesNewRomanPSMT-29" d="M 144 4313 
L 144 4444 
Q 619 4209 934 3891 
Q 1381 3434 1625 2820 
Q 1869 2206 1869 1541 
Q 1869 572 1392 -226 
Q 916 -1025 144 -1369 
L 144 -1253 
Q 528 -1038 776 -670 
Q 1025 -303 1145 264 
Q 1266 831 1266 1447 
Q 1266 2113 1163 2663 
Q 1084 3094 967 3353 
Q 850 3613 656 3853 
Q 463 4094 144 4313 
z
" transform="scale(0.015625)"/>
     </defs>
     <use xlink:href="#TimesNewRomanPSMT-54"/>
     <use xlink:href="#TimesNewRomanPSMT-6f" transform="translate(54.083984 0)"/>
     <use xlink:href="#TimesNewRomanPSMT-75" transform="translate(104.083984 0)"/>
     <use xlink:href="#TimesNewRomanPSMT-72" transform="translate(154.083984 0)"/>
     <use xlink:href="#TimesNewRomanPSMT-69" transform="translate(187.384766 0)"/>
     <use xlink:href="#TimesNewRomanPSMT-73" transform="translate(215.167969 0)"/>
     <use xlink:href="#TimesNewRomanPSMT-6d" transform="translate(254.083984 0)"/>
     <use xlink:href="#TimesNewRomanPSMT-20" transform="translate(331.867188 0)"/>
     <use xlink:href="#TimesNewRomanPSMT-61" transform="translate(356.867188 0)"/>
     <use xlink:href="#TimesNewRomanPSMT-6e" transform="translate(401.251953 0)"/>
     <use xlink:href="#TimesNewRomanPSMT-64" transform="translate(451.251953 0)"/>
     <use xlink:href="#TimesNewRomanPSMT-20" transform="translate(501.251953 0)"/>
     <use xlink:href="#TimesNewRomanPSMT-48" transform="translate(526.251953 0)"/>
     <use xlink:href="#TimesNewRomanPSMT-6f" transform="translate(598.46875 0)"/>
     <use xlink:href="#TimesNewRomanPSMT-73" transform="translate(648.46875 0)"/>
     <use xlink:href="#TimesNewRomanPSMT-70" transform="translate(687.384766 0)"/>
     <use xlink:href="#TimesNewRomanPSMT-69" transform="translate(737.384766 0)"/>
     <use xlink:href="#TimesNewRomanPSMT-74" transform="translate(765.167969 0)"/>
     <use xlink:href="#TimesNewRomanPSMT-61" transform="translate(792.951172 0)"/>
     <use xlink:href="#TimesNewRomanPSMT-6c" transform="translate(837.335938 0)"/>
     <use xlink:href="#TimesNewRomanPSMT-69" transform="translate(865.119141 0)"/>
     <use xlink:href="#TimesNewRomanPSMT-74" transform="translate(892.902344 0)"/>
     <use xlink:href="#TimesNewRomanPSMT-79" transform="translate(920.685547 0)"/>
     <use xlink:href="#TimesNewRomanPSMT-20" transform="translate(970.685547 0)"/>
     <use xlink:href="#TimesNewRomanPSMT-28" transform="translate(995.685547 0)"/>
     <use xlink:href="#TimesNewRomanPSMT-20" transform="translate(1028.986328 0)"/>
     <use xlink:href="#TimesNewRomanPSMT-25" transform="translate(1053.986328 0)"/>
     <use xlink:href="#TimesNewRomanPSMT-29" transform="translate(1137.287109 0)"/>
    </g>
   </g>
   <g id="legend_1">
    <g id="patch_5">
     <path d="M 726.144315 62.51 
L 871.109315 62.51 
Q 874.309315 62.51 874.309315 59.31 
L 874.309315 38.2875 
Q 874.309315 35.0875 871.109315 35.0875 
L 726.144315 35.0875 
Q 722.944315 35.0875 722.944315 38.2875 
L 722.944315 59.31 
Q 722.944315 62.51 726.144315 62.51 
z
" style="fill: #ffffff; opacity: 0.8; stroke: #cccccc; stroke-linejoin: miter"/>
    </g>
    <g id="line2d_11">
     <path d="M 729.344315 47.0875 
L 745.344315 47.0875 
L 761.344315 47.0875 
" style="fill: none; stroke: #1f77b4; stroke-width: 2; stroke-linecap: square"/>
    </g>
    <g id="text_11">
     <!-- New Anneside -->
     <g transform="translate(774.144315 52.6875) scale(0.16 -0.16)">
      <defs>
       <path id="TimesNewRomanPSMT-4e" d="M -84 4238 
L 1066 4238 
L 3656 1059 
L 3656 3503 
Q 3656 3894 3569 3991 
Q 3453 4122 3203 4122 
L 3056 4122 
L 3056 4238 
L 4531 4238 
L 4531 4122 
L 4381 4122 
Q 4113 4122 4000 3959 
Q 3931 3859 3931 3503 
L 3931 -69 
L 3819 -69 
L 1025 3344 
L 1025 734 
Q 1025 344 1109 247 
Q 1228 116 1475 116 
L 1625 116 
L 1625 0 
L 150 0 
L 150 116 
L 297 116 
Q 569 116 681 278 
Q 750 378 750 734 
L 750 3681 
Q 566 3897 470 3965 
Q 375 4034 191 4094 
Q 100 4122 -84 4122 
L -84 4238 
z
" transform="scale(0.015625)"/>
      </defs>
      <use xlink:href="#TimesNewRomanPSMT-4e"/>
      <use xlink:href="#TimesNewRomanPSMT-65" transform="translate(72.216797 0)"/>
      <use xlink:href="#TimesNewRomanPSMT-77" transform="translate(116.601562 0)"/>
      <use xlink:href="#TimesNewRomanPSMT-20" transform="translate(188.818359 0)"/>
      <use xlink:href="#TimesNewRomanPSMT-41" transform="translate(208.318359 0)"/>
      <use xlink:href="#TimesNewRomanPSMT-6e" transform="translate(280.535156 0)"/>
      <use xlink:href="#TimesNewRomanPSMT-6e" transform="translate(330.535156 0)"/>
      <use xlink:href="#TimesNewRomanPSMT-65" transform="translate(380.535156 0)"/>
      <use xlink:href="#TimesNewRomanPSMT-73" transform="translate(424.919922 0)"/>
      <use xlink:href="#TimesNewRomanPSMT-69" transform="translate(463.835938 0)"/>
      <use xlink:href="#TimesNewRomanPSMT-64" transform="translate(491.619141 0)"/>
      <use xlink:href="#TimesNewRomanPSMT-65" transform="translate(541.619141 0)"/>
     </g>
    </g>
   </g>
  </g>
 </g>
 <defs>
  <clipPath id="p4eacecbffb">
   <path d="M 715.989315 359.7275 
C 715.989315 323.32593 708.819 287.278318 694.888722 253.647653 
C 680.958444 220.016987 660.539113 189.457298 634.799315 163.7175 
C 609.059518 137.977703 578.499829 117.558372 544.869163 103.628094 
C 511.238497 89.697816 475.190886 82.5275 438.789315 82.5275 
C 402.387745 82.5275 366.340134 89.697816 332.709468 103.628094 
C 299.078802 117.558372 268.519113 137.977703 242.779316 163.7175 
C 217.039518 189.457298 196.620187 220.016987 182.689909 253.647653 
C 168.759631 287.278318 161.589315 323.32593 161.589315 359.7275 
C 161.589315 396.12907 168.759631 432.176682 182.689909 465.807347 
C 196.620187 499.438013 217.039518 529.997702 242.779316 555.7375 
C 268.519113 581.477297 299.078802 601.896628 332.709468 615.826906 
C 366.340134 629.757184 402.387745 636.9275 438.789315 636.9275 
C 475.190886 636.9275 511.238497 629.757184 544.869163 615.826906 
C 578.499829 601.896628 609.059518 581.477297 634.799315 555.7375 
C 660.539113 529.997702 680.958444 499.438013 694.888722 465.807347 
C 708.819 432.176682 715.989315 396.12907 715.989315 359.7275 
M 438.789315 359.7275 
C 438.789315 359.7275 438.789315 359.7275 438.789315 359.7275 
C 438.789315 359.7275 438.789315 359.7275 438.789315 359.7275 
C 438.789315 359.7275 438.789315 359.7275 438.789315 359.7275 
C 438.789315 359.7275 438.789315 359.7275 438.789315 359.7275 
C 438.789315 359.7275 438.789315 359.7275 438.789315 359.7275 
C 438.789315 359.7275 438.789315 359.7275 438.789315 359.7275 
C 438.789315 359.7275 438.789315 359.7275 438.789315 359.7275 
C 438.789315 359.7275 438.789315 359.7275 438.789315 359.7275 
C 438.789315 359.7275 438.789315 359.7275 438.789315 359.7275 
C 438.789315 359.7275 438.789315 359.7275 438.789315 359.7275 
C 438.789315 359.7275 438.789315 359.7275 438.789315 359.7275 
C 438.789315 359.7275 438.789315 359.7275 438.789315 359.7275 
C 438.789315 359.7275 438.789315 359.7275 438.789315 359.7275 
C 438.789315 359.7275 438.789315 359.7275 438.789315 359.7275 
C 438.789315 359.7275 438.789315 359.7275 438.789315 359.7275 
C 438.789315 359.7275 438.789315 359.7275 438.789315 359.7275 
z
"/>
  </clipPath>
 </defs>
</svg>
