<?xml version="1.0" encoding="utf-8" standalone="no"?>
<!DOCTYPE svg PUBLIC "-//W3C//DTD SVG 1.1//EN"
  "http://www.w3.org/Graphics/SVG/1.1/DTD/svg11.dtd">
<svg xmlns:xlink="http://www.w3.org/1999/xlink" width="582.20975pt" height="364.113404pt" viewBox="0 0 582.20975 364.113404" xmlns="http://www.w3.org/2000/svg" version="1.1">
 <metadata>
  <rdf:RDF xmlns:dc="http://purl.org/dc/elements/1.1/" xmlns:cc="http://creativecommons.org/ns#" xmlns:rdf="http://www.w3.org/1999/02/22-rdf-syntax-ns#">
   <cc:Work>
    <dc:type rdf:resource="http://purl.org/dc/dcmitype/StillImage"/>
    <dc:date>2025-06-04T10:26:37.916136</dc:date>
    <dc:format>image/svg+xml</dc:format>
    <dc:creator>
     <cc:Agent>
      <dc:title>Matplotlib v3.10.3, https://matplotlib.org/</dc:title>
     </cc:Agent>
    </dc:creator>
   </cc:Work>
  </rdf:RDF>
 </metadata>
 <defs>
  <style type="text/css">*{stroke-linejoin: round; stroke-linecap: butt}</style>
 </defs>
 <g id="figure_1">
  <g id="patch_1">
   <path d="M 0 364.113404 
L 582.20975 364.113404 
L 582.20975 0 
L 0 0 
z
" style="fill: #ffffff"/>
  </g>
  <g id="axes_1">
   <g id="patch_2">
    <path d="M 54.380625 314.449375 
L 443.180625 314.449375 
L 443.180625 37.249375 
L 54.380625 37.249375 
z
" style="fill: #ffffff"/>
   </g>
   <g id="FillBetweenPolyCollection_1">
    <path d="M 72.053352 290.226381 
L 72.053352 314.449375 
L 86.191534 314.449375 
L 100.329716 314.449375 
L 114.467898 314.449375 
L 128.60608 314.449375 
L 142.744261 314.449375 
L 156.882443 314.449375 
L 171.020625 314.449375 
L 185.158807 314.449375 
L 199.296989 314.449375 
L 213.43517 314.449375 
L 227.573352 314.449375 
L 241.711534 314.449375 
L 255.849716 314.449375 
L 269.987898 314.449375 
L 284.12608 314.449375 
L 298.264261 314.449375 
L 312.402443 314.449375 
L 326.540625 314.449375 
L 340.678807 314.449375 
L 354.816989 314.449375 
L 368.95517 314.449375 
L 383.093352 314.449375 
L 397.231534 314.449375 
L 411.369716 314.449375 
L 425.507898 314.449375 
L 425.507898 314.229959 
L 425.507898 314.229959 
L 411.369716 314.229959 
L 397.231534 314.229959 
L 383.093352 314.229959 
L 368.95517 314.229959 
L 354.816989 314.229959 
L 340.678807 314.229959 
L 326.540625 314.229959 
L 312.402443 314.229959 
L 298.264261 312.144478 
L 284.12608 313.293343 
L 269.987898 312.101326 
L 255.849716 310.116631 
L 241.711534 309.405137 
L 227.573352 308.436632 
L 213.43517 305.302195 
L 199.296989 306.735716 
L 185.158807 304.010124 
L 171.020625 300.808545 
L 156.882443 298.520032 
L 142.744261 298.66587 
L 128.60608 297.65831 
L 114.467898 299.364346 
L 100.329716 294.912093 
L 86.191534 294.10742 
L 72.053352 290.226381 
z
" clip-path="url(#p1f69ab5433)" style="fill: #1f77b4"/>
   </g>
   <g id="FillBetweenPolyCollection_2">
    <path d="M 72.053352 268.985111 
L 72.053352 290.226381 
L 86.191534 294.10742 
L 100.329716 294.912093 
L 114.467898 299.364346 
L 128.60608 297.65831 
L 142.744261 298.66587 
L 156.882443 298.520032 
L 171.020625 300.808545 
L 185.158807 304.010124 
L 199.296989 306.735716 
L 213.43517 305.302195 
L 227.573352 308.436632 
L 241.711534 309.405137 
L 255.849716 310.116631 
L 269.987898 312.101326 
L 284.12608 313.293343 
L 298.264261 312.144478 
L 312.402443 314.229959 
L 326.540625 314.229959 
L 340.678807 314.229959 
L 354.816989 314.229959 
L 368.95517 314.229959 
L 383.093352 314.229959 
L 397.231534 314.229959 
L 411.369716 314.229959 
L 425.507898 314.229959 
L 425.507898 249.594985 
L 425.507898 249.594985 
L 411.369716 248.460748 
L 397.231534 250.374645 
L 383.093352 253.3296 
L 368.95517 256.476763 
L 354.816989 255.925735 
L 340.678807 257.399629 
L 326.540625 262.240541 
L 312.402443 261.97651 
L 298.264261 263.423635 
L 284.12608 265.72663 
L 269.987898 262.761875 
L 255.849716 261.693463 
L 241.711534 266.592155 
L 227.573352 267.67461 
L 213.43517 265.561483 
L 199.296989 270.06742 
L 185.158807 267.567388 
L 171.020625 266.53028 
L 156.882443 264.212364 
L 142.744261 266.995882 
L 128.60608 269.264794 
L 114.467898 272.739035 
L 100.329716 267.288729 
L 86.191534 268.395905 
L 72.053352 268.985111 
z
" clip-path="url(#p1f69ab5433)" style="fill: #aec7e8"/>
   </g>
   <g id="FillBetweenPolyCollection_3">
    <path d="M 72.053352 245.565036 
L 72.053352 268.985111 
L 86.191534 268.395905 
L 100.329716 267.288729 
L 114.467898 272.739035 
L 128.60608 269.264794 
L 142.744261 266.995882 
L 156.882443 264.212364 
L 171.020625 266.53028 
L 185.158807 267.567388 
L 199.296989 270.06742 
L 213.43517 265.561483 
L 227.573352 267.67461 
L 241.711534 266.592155 
L 255.849716 261.693463 
L 269.987898 262.761875 
L 284.12608 265.72663 
L 298.264261 263.423635 
L 312.402443 261.97651 
L 326.540625 262.240541 
L 340.678807 257.399629 
L 354.816989 255.925735 
L 368.95517 256.476763 
L 383.093352 253.3296 
L 397.231534 250.374645 
L 411.369716 248.460748 
L 425.507898 249.594985 
L 425.507898 184.321656 
L 425.507898 184.321656 
L 411.369716 184.93412 
L 397.231534 189.78732 
L 383.093352 193.022397 
L 368.95517 197.774226 
L 354.816989 200.064056 
L 340.678807 202.618357 
L 326.540625 208.262772 
L 312.402443 210.922246 
L 298.264261 213.426959 
L 284.12608 217.896472 
L 269.987898 214.462897 
L 255.849716 217.821578 
L 241.711534 224.942081 
L 227.573352 226.614913 
L 213.43517 224.049056 
L 199.296989 232.306283 
L 185.158807 232.035962 
L 171.020625 232.319156 
L 156.882443 231.204813 
L 142.744261 236.925 
L 128.60608 239.41801 
L 114.467898 246.870856 
L 100.329716 243.381549 
L 86.191534 242.235318 
L 72.053352 245.565036 
z
" clip-path="url(#p1f69ab5433)" style="fill: #ff7f0e"/>
   </g>
   <g id="FillBetweenPolyCollection_4">
    <path d="M 72.053352 222.307328 
L 72.053352 245.565036 
L 86.191534 242.235318 
L 100.329716 243.381549 
L 114.467898 246.870856 
L 128.60608 239.41801 
L 142.744261 236.925 
L 156.882443 231.204813 
L 171.020625 232.319156 
L 185.158807 232.035962 
L 199.296989 232.306283 
L 213.43517 224.049056 
L 227.573352 226.614913 
L 241.711534 224.942081 
L 255.849716 217.821578 
L 269.987898 214.462897 
L 284.12608 217.896472 
L 298.264261 213.426959 
L 312.402443 210.922246 
L 326.540625 208.262772 
L 340.678807 202.618357 
L 354.816989 200.064056 
L 368.95517 197.774226 
L 383.093352 193.022397 
L 397.231534 189.78732 
L 411.369716 184.93412 
L 425.507898 184.321656 
L 425.507898 178.962628 
L 425.507898 178.962628 
L 411.369716 178.072675 
L 397.231534 182.557547 
L 383.093352 186.008237 
L 368.95517 189.470775 
L 354.816989 189.627878 
L 340.678807 193.633252 
L 326.540625 199.411219 
L 312.402443 198.965219 
L 298.264261 201.769215 
L 284.12608 204.56619 
L 269.987898 201.985998 
L 255.849716 206.240045 
L 241.711534 209.145704 
L 227.573352 212.777778 
L 213.43517 207.833447 
L 199.296989 216.618737 
L 185.158807 216.498058 
L 171.020625 215.203062 
L 156.882443 212.321099 
L 142.744261 218.619523 
L 128.60608 221.315858 
L 114.467898 226.189098 
L 100.329716 223.71174 
L 86.191534 221.487442 
L 72.053352 222.307328 
z
" clip-path="url(#p1f69ab5433)" style="fill: #ffbb78"/>
   </g>
   <g id="FillBetweenPolyCollection_5">
    <path d="M 72.053352 201.669892 
L 72.053352 222.307328 
L 86.191534 221.487442 
L 100.329716 223.71174 
L 114.467898 226.189098 
L 128.60608 221.315858 
L 142.744261 218.619523 
L 156.882443 212.321099 
L 171.020625 215.203062 
L 185.158807 216.498058 
L 199.296989 216.618737 
L 213.43517 207.833447 
L 227.573352 212.777778 
L 241.711534 209.145704 
L 255.849716 206.240045 
L 269.987898 201.985998 
L 284.12608 204.56619 
L 298.264261 201.769215 
L 312.402443 198.965219 
L 326.540625 199.411219 
L 340.678807 193.633252 
L 354.816989 189.627878 
L 368.95517 189.470775 
L 383.093352 186.008237 
L 397.231534 182.557547 
L 411.369716 178.072675 
L 425.507898 178.962628 
L 425.507898 129.213599 
L 425.507898 129.213599 
L 411.369716 130.236665 
L 397.231534 135.133309 
L 383.093352 139.007619 
L 368.95517 145.17527 
L 354.816989 145.471629 
L 340.678807 150.867665 
L 326.540625 157.549628 
L 312.402443 158.892457 
L 298.264261 163.265281 
L 284.12608 167.715339 
L 269.987898 164.870385 
L 255.849716 169.924863 
L 241.711534 174.096702 
L 227.573352 177.454505 
L 213.43517 173.963589 
L 199.296989 183.538778 
L 185.158807 186.400846 
L 171.020625 186.69662 
L 156.882443 184.993948 
L 142.744261 189.791562 
L 128.60608 194.27936 
L 114.467898 199.687977 
L 100.329716 199.154502 
L 86.191534 198.551107 
L 72.053352 201.669892 
z
" clip-path="url(#p1f69ab5433)" style="fill: #2ca02c"/>
   </g>
   <g id="FillBetweenPolyCollection_6">
    <path d="M 72.053352 180.546083 
L 72.053352 201.669892 
L 86.191534 198.551107 
L 100.329716 199.154502 
L 114.467898 199.687977 
L 128.60608 194.27936 
L 142.744261 189.791562 
L 156.882443 184.993948 
L 171.020625 186.69662 
L 185.158807 186.400846 
L 199.296989 183.538778 
L 213.43517 173.963589 
L 227.573352 177.454505 
L 241.711534 174.096702 
L 255.849716 169.924863 
L 269.987898 164.870385 
L 284.12608 167.715339 
L 298.264261 163.265281 
L 312.402443 158.892457 
L 326.540625 157.549628 
L 340.678807 150.867665 
L 354.816989 145.471629 
L 368.95517 145.17527 
L 383.093352 139.007619 
L 397.231534 135.133309 
L 411.369716 130.236665 
L 425.507898 129.213599 
L 425.507898 78.38197 
L 425.507898 78.38197 
L 411.369716 79.640543 
L 397.231534 87.669577 
L 383.093352 93.571441 
L 368.95517 101.291536 
L 354.816989 101.096109 
L 340.678807 105.958086 
L 326.540625 116.332682 
L 312.402443 119.769037 
L 298.264261 124.320319 
L 284.12608 129.155966 
L 269.987898 127.106031 
L 255.849716 132.685499 
L 241.711534 139.579857 
L 227.573352 142.475424 
L 213.43517 141.721362 
L 199.296989 153.049835 
L 185.158807 156.36829 
L 171.020625 158.219726 
L 156.882443 155.049743 
L 142.744261 161.412235 
L 128.60608 167.971033 
L 114.467898 174.225134 
L 100.329716 177.068186 
L 86.191534 175.923417 
L 72.053352 180.546083 
z
" clip-path="url(#p1f69ab5433)" style="fill: #98df8a"/>
   </g>
   <g id="FillBetweenPolyCollection_7">
    <path d="M 72.053352 158.350791 
L 72.053352 180.546083 
L 86.191534 175.923417 
L 100.329716 177.068186 
L 114.467898 174.225134 
L 128.60608 167.971033 
L 142.744261 161.412235 
L 156.882443 155.049743 
L 171.020625 158.219726 
L 185.158807 156.36829 
L 199.296989 153.049835 
L 213.43517 141.721362 
L 227.573352 142.475424 
L 241.711534 139.579857 
L 255.849716 132.685499 
L 269.987898 127.106031 
L 284.12608 129.155966 
L 298.264261 124.320319 
L 312.402443 119.769037 
L 326.540625 116.332682 
L 340.678807 105.958086 
L 354.816989 101.096109 
L 368.95517 101.291536 
L 383.093352 93.571441 
L 397.231534 87.669577 
L 411.369716 79.640543 
L 425.507898 78.38197 
L 425.507898 73.405897 
L 425.507898 73.405897 
L 411.369716 73.615074 
L 397.231534 79.024129 
L 383.093352 86.546311 
L 368.95517 92.768523 
L 354.816989 91.067606 
L 340.678807 96.414932 
L 326.540625 106.639594 
L 312.402443 108.889344 
L 298.264261 112.686126 
L 284.12608 117.853384 
L 269.987898 114.521765 
L 255.849716 119.005613 
L 241.711534 126.099787 
L 227.573352 125.848628 
L 213.43517 126.175559 
L 199.296989 137.060517 
L 185.158807 140.044143 
L 171.020625 142.141033 
L 156.882443 136.542402 
L 142.744261 142.740479 
L 128.60608 148.105504 
L 114.467898 154.33269 
L 100.329716 157.010887 
L 86.191534 153.868258 
L 72.053352 158.350791 
z
" clip-path="url(#p1f69ab5433)" style="fill: #d62728"/>
   </g>
   <g id="matplotlib.axis_1">
    <g id="xtick_1">
     <g id="line2d_1">
      <defs>
       <path id="me926a6260e" d="M 0 0 
L 0 3.5 
" style="stroke: #000000; stroke-width: 0.8"/>
      </defs>
      <g>
       <use xlink:href="#me926a6260e" x="72.053352" y="314.449375" style="stroke: #000000; stroke-width: 0.8"/>
      </g>
     </g>
     <g id="text_1">
      <!-- 1970 -->
      <g transform="translate(56.398671 340.501483) rotate(-45) scale(0.1 -0.1)">
       <defs>
        <path id="TimesNewRomanPSMT-31" d="M 750 3822 
L 1781 4325 
L 1884 4325 
L 1884 747 
Q 1884 391 1914 303 
Q 1944 216 2037 169 
Q 2131 122 2419 116 
L 2419 0 
L 825 0 
L 825 116 
Q 1125 122 1212 167 
Q 1300 213 1334 289 
Q 1369 366 1369 747 
L 1369 3034 
Q 1369 3497 1338 3628 
Q 1316 3728 1258 3775 
Q 1200 3822 1119 3822 
Q 1003 3822 797 3725 
L 750 3822 
z
" transform="scale(0.015625)"/>
        <path id="TimesNewRomanPSMT-39" d="M 338 -88 
L 338 28 
Q 744 34 1094 217 
Q 1444 400 1770 856 
Q 2097 1313 2225 1859 
Q 1734 1544 1338 1544 
Q 891 1544 572 1889 
Q 253 2234 253 2806 
Q 253 3363 572 3797 
Q 956 4325 1575 4325 
Q 2097 4325 2469 3894 
Q 2925 3359 2925 2575 
Q 2925 1869 2578 1258 
Q 2231 647 1613 244 
Q 1109 -88 516 -88 
L 338 -88 
z
M 2275 2091 
Q 2331 2497 2331 2741 
Q 2331 3044 2228 3395 
Q 2125 3747 1936 3934 
Q 1747 4122 1506 4122 
Q 1228 4122 1018 3872 
Q 809 3622 809 3128 
Q 809 2469 1088 2097 
Q 1291 1828 1588 1828 
Q 1731 1828 1928 1897 
Q 2125 1966 2275 2091 
z
" transform="scale(0.015625)"/>
        <path id="TimesNewRomanPSMT-37" d="M 644 4238 
L 2916 4238 
L 2916 4119 
L 1503 -88 
L 1153 -88 
L 2419 3728 
L 1253 3728 
Q 900 3728 750 3644 
Q 488 3500 328 3200 
L 238 3234 
L 644 4238 
z
" transform="scale(0.015625)"/>
        <path id="TimesNewRomanPSMT-30" d="M 231 2094 
Q 231 2819 450 3342 
Q 669 3866 1031 4122 
Q 1313 4325 1613 4325 
Q 2100 4325 2488 3828 
Q 2972 3213 2972 2159 
Q 2972 1422 2759 906 
Q 2547 391 2217 158 
Q 1888 -75 1581 -75 
Q 975 -75 572 641 
Q 231 1244 231 2094 
z
M 844 2016 
Q 844 1141 1059 588 
Q 1238 122 1591 122 
Q 1759 122 1940 273 
Q 2122 425 2216 781 
Q 2359 1319 2359 2297 
Q 2359 3022 2209 3506 
Q 2097 3866 1919 4016 
Q 1791 4119 1609 4119 
Q 1397 4119 1231 3928 
Q 1006 3669 925 3112 
Q 844 2556 844 2016 
z
" transform="scale(0.015625)"/>
       </defs>
       <use xlink:href="#TimesNewRomanPSMT-31"/>
       <use xlink:href="#TimesNewRomanPSMT-39" transform="translate(50 0)"/>
       <use xlink:href="#TimesNewRomanPSMT-37" transform="translate(100 0)"/>
       <use xlink:href="#TimesNewRomanPSMT-30" transform="translate(150 0)"/>
      </g>
     </g>
    </g>
    <g id="xtick_2">
     <g id="line2d_2">
      <g>
       <use xlink:href="#me926a6260e" x="100.329716" y="314.449375" style="stroke: #000000; stroke-width: 0.8"/>
      </g>
     </g>
     <g id="text_2">
      <!-- 1972 -->
      <g transform="translate(84.675035 340.501483) rotate(-45) scale(0.1 -0.1)">
       <defs>
        <path id="TimesNewRomanPSMT-32" d="M 2934 816 
L 2638 0 
L 138 0 
L 138 116 
Q 1241 1122 1691 1759 
Q 2141 2397 2141 2925 
Q 2141 3328 1894 3587 
Q 1647 3847 1303 3847 
Q 991 3847 742 3664 
Q 494 3481 375 3128 
L 259 3128 
Q 338 3706 661 4015 
Q 984 4325 1469 4325 
Q 1984 4325 2329 3994 
Q 2675 3663 2675 3213 
Q 2675 2891 2525 2569 
Q 2294 2063 1775 1497 
Q 997 647 803 472 
L 1909 472 
Q 2247 472 2383 497 
Q 2519 522 2628 598 
Q 2738 675 2819 816 
L 2934 816 
z
" transform="scale(0.015625)"/>
       </defs>
       <use xlink:href="#TimesNewRomanPSMT-31"/>
       <use xlink:href="#TimesNewRomanPSMT-39" transform="translate(50 0)"/>
       <use xlink:href="#TimesNewRomanPSMT-37" transform="translate(100 0)"/>
       <use xlink:href="#TimesNewRomanPSMT-32" transform="translate(150 0)"/>
      </g>
     </g>
    </g>
    <g id="xtick_3">
     <g id="line2d_3">
      <g>
       <use xlink:href="#me926a6260e" x="128.60608" y="314.449375" style="stroke: #000000; stroke-width: 0.8"/>
      </g>
     </g>
     <g id="text_3">
      <!-- 1974 -->
      <g transform="translate(112.951398 340.501483) rotate(-45) scale(0.1 -0.1)">
       <defs>
        <path id="TimesNewRomanPSMT-34" d="M 2978 1563 
L 2978 1119 
L 2409 1119 
L 2409 0 
L 1894 0 
L 1894 1119 
L 100 1119 
L 100 1519 
L 2066 4325 
L 2409 4325 
L 2409 1563 
L 2978 1563 
z
M 1894 1563 
L 1894 3666 
L 406 1563 
L 1894 1563 
z
" transform="scale(0.015625)"/>
       </defs>
       <use xlink:href="#TimesNewRomanPSMT-31"/>
       <use xlink:href="#TimesNewRomanPSMT-39" transform="translate(50 0)"/>
       <use xlink:href="#TimesNewRomanPSMT-37" transform="translate(100 0)"/>
       <use xlink:href="#TimesNewRomanPSMT-34" transform="translate(150 0)"/>
      </g>
     </g>
    </g>
    <g id="xtick_4">
     <g id="line2d_4">
      <g>
       <use xlink:href="#me926a6260e" x="156.882443" y="314.449375" style="stroke: #000000; stroke-width: 0.8"/>
      </g>
     </g>
     <g id="text_4">
      <!-- 1976 -->
      <g transform="translate(141.227762 340.501483) rotate(-45) scale(0.1 -0.1)">
       <defs>
        <path id="TimesNewRomanPSMT-36" d="M 2869 4325 
L 2869 4209 
Q 2456 4169 2195 4045 
Q 1934 3922 1679 3669 
Q 1425 3416 1258 3105 
Q 1091 2794 978 2366 
Q 1428 2675 1881 2675 
Q 2316 2675 2634 2325 
Q 2953 1975 2953 1425 
Q 2953 894 2631 456 
Q 2244 -75 1606 -75 
Q 1172 -75 869 213 
Q 275 772 275 1663 
Q 275 2231 503 2743 
Q 731 3256 1154 3653 
Q 1578 4050 1965 4187 
Q 2353 4325 2688 4325 
L 2869 4325 
z
M 925 2138 
Q 869 1716 869 1456 
Q 869 1156 980 804 
Q 1091 453 1309 247 
Q 1469 100 1697 100 
Q 1969 100 2183 356 
Q 2397 613 2397 1088 
Q 2397 1622 2184 2012 
Q 1972 2403 1581 2403 
Q 1463 2403 1327 2353 
Q 1191 2303 925 2138 
z
" transform="scale(0.015625)"/>
       </defs>
       <use xlink:href="#TimesNewRomanPSMT-31"/>
       <use xlink:href="#TimesNewRomanPSMT-39" transform="translate(50 0)"/>
       <use xlink:href="#TimesNewRomanPSMT-37" transform="translate(100 0)"/>
       <use xlink:href="#TimesNewRomanPSMT-36" transform="translate(150 0)"/>
      </g>
     </g>
    </g>
    <g id="xtick_5">
     <g id="line2d_5">
      <g>
       <use xlink:href="#me926a6260e" x="185.158807" y="314.449375" style="stroke: #000000; stroke-width: 0.8"/>
      </g>
     </g>
     <g id="text_5">
      <!-- 1978 -->
      <g transform="translate(169.504126 340.501483) rotate(-45) scale(0.1 -0.1)">
       <defs>
        <path id="TimesNewRomanPSMT-38" d="M 1228 2134 
Q 725 2547 579 2797 
Q 434 3047 434 3316 
Q 434 3728 753 4026 
Q 1072 4325 1600 4325 
Q 2113 4325 2425 4047 
Q 2738 3769 2738 3413 
Q 2738 3175 2569 2928 
Q 2400 2681 1866 2347 
Q 2416 1922 2594 1678 
Q 2831 1359 2831 1006 
Q 2831 559 2490 242 
Q 2150 -75 1597 -75 
Q 994 -75 656 303 
Q 388 606 388 966 
Q 388 1247 577 1523 
Q 766 1800 1228 2134 
z
M 1719 2469 
Q 2094 2806 2194 3001 
Q 2294 3197 2294 3444 
Q 2294 3772 2109 3958 
Q 1925 4144 1606 4144 
Q 1288 4144 1088 3959 
Q 888 3775 888 3528 
Q 888 3366 970 3203 
Q 1053 3041 1206 2894 
L 1719 2469 
z
M 1375 2016 
Q 1116 1797 991 1539 
Q 866 1281 866 981 
Q 866 578 1086 336 
Q 1306 94 1647 94 
Q 1984 94 2187 284 
Q 2391 475 2391 747 
Q 2391 972 2272 1150 
Q 2050 1481 1375 2016 
z
" transform="scale(0.015625)"/>
       </defs>
       <use xlink:href="#TimesNewRomanPSMT-31"/>
       <use xlink:href="#TimesNewRomanPSMT-39" transform="translate(50 0)"/>
       <use xlink:href="#TimesNewRomanPSMT-37" transform="translate(100 0)"/>
       <use xlink:href="#TimesNewRomanPSMT-38" transform="translate(150 0)"/>
      </g>
     </g>
    </g>
    <g id="xtick_6">
     <g id="line2d_6">
      <g>
       <use xlink:href="#me926a6260e" x="213.43517" y="314.449375" style="stroke: #000000; stroke-width: 0.8"/>
      </g>
     </g>
     <g id="text_6">
      <!-- 1980 -->
      <g transform="translate(197.780489 340.501483) rotate(-45) scale(0.1 -0.1)">
       <use xlink:href="#TimesNewRomanPSMT-31"/>
       <use xlink:href="#TimesNewRomanPSMT-39" transform="translate(50 0)"/>
       <use xlink:href="#TimesNewRomanPSMT-38" transform="translate(100 0)"/>
       <use xlink:href="#TimesNewRomanPSMT-30" transform="translate(150 0)"/>
      </g>
     </g>
    </g>
    <g id="xtick_7">
     <g id="line2d_7">
      <g>
       <use xlink:href="#me926a6260e" x="241.711534" y="314.449375" style="stroke: #000000; stroke-width: 0.8"/>
      </g>
     </g>
     <g id="text_7">
      <!-- 1982 -->
      <g transform="translate(226.056853 340.501483) rotate(-45) scale(0.1 -0.1)">
       <use xlink:href="#TimesNewRomanPSMT-31"/>
       <use xlink:href="#TimesNewRomanPSMT-39" transform="translate(50 0)"/>
       <use xlink:href="#TimesNewRomanPSMT-38" transform="translate(100 0)"/>
       <use xlink:href="#TimesNewRomanPSMT-32" transform="translate(150 0)"/>
      </g>
     </g>
    </g>
    <g id="xtick_8">
     <g id="line2d_8">
      <g>
       <use xlink:href="#me926a6260e" x="269.987898" y="314.449375" style="stroke: #000000; stroke-width: 0.8"/>
      </g>
     </g>
     <g id="text_8">
      <!-- 1984 -->
      <g transform="translate(254.333217 340.501483) rotate(-45) scale(0.1 -0.1)">
       <use xlink:href="#TimesNewRomanPSMT-31"/>
       <use xlink:href="#TimesNewRomanPSMT-39" transform="translate(50 0)"/>
       <use xlink:href="#TimesNewRomanPSMT-38" transform="translate(100 0)"/>
       <use xlink:href="#TimesNewRomanPSMT-34" transform="translate(150 0)"/>
      </g>
     </g>
    </g>
    <g id="xtick_9">
     <g id="line2d_9">
      <g>
       <use xlink:href="#me926a6260e" x="298.264261" y="314.449375" style="stroke: #000000; stroke-width: 0.8"/>
      </g>
     </g>
     <g id="text_9">
      <!-- 1986 -->
      <g transform="translate(282.60958 340.501483) rotate(-45) scale(0.1 -0.1)">
       <use xlink:href="#TimesNewRomanPSMT-31"/>
       <use xlink:href="#TimesNewRomanPSMT-39" transform="translate(50 0)"/>
       <use xlink:href="#TimesNewRomanPSMT-38" transform="translate(100 0)"/>
       <use xlink:href="#TimesNewRomanPSMT-36" transform="translate(150 0)"/>
      </g>
     </g>
    </g>
    <g id="xtick_10">
     <g id="line2d_10">
      <g>
       <use xlink:href="#me926a6260e" x="326.540625" y="314.449375" style="stroke: #000000; stroke-width: 0.8"/>
      </g>
     </g>
     <g id="text_10">
      <!-- 1988 -->
      <g transform="translate(310.885944 340.501483) rotate(-45) scale(0.1 -0.1)">
       <use xlink:href="#TimesNewRomanPSMT-31"/>
       <use xlink:href="#TimesNewRomanPSMT-39" transform="translate(50 0)"/>
       <use xlink:href="#TimesNewRomanPSMT-38" transform="translate(100 0)"/>
       <use xlink:href="#TimesNewRomanPSMT-38" transform="translate(150 0)"/>
      </g>
     </g>
    </g>
    <g id="xtick_11">
     <g id="line2d_11">
      <g>
       <use xlink:href="#me926a6260e" x="354.816989" y="314.449375" style="stroke: #000000; stroke-width: 0.8"/>
      </g>
     </g>
     <g id="text_11">
      <!-- 1990 -->
      <g transform="translate(339.162307 340.501483) rotate(-45) scale(0.1 -0.1)">
       <use xlink:href="#TimesNewRomanPSMT-31"/>
       <use xlink:href="#TimesNewRomanPSMT-39" transform="translate(50 0)"/>
       <use xlink:href="#TimesNewRomanPSMT-39" transform="translate(100 0)"/>
       <use xlink:href="#TimesNewRomanPSMT-30" transform="translate(150 0)"/>
      </g>
     </g>
    </g>
    <g id="xtick_12">
     <g id="line2d_12">
      <g>
       <use xlink:href="#me926a6260e" x="383.093352" y="314.449375" style="stroke: #000000; stroke-width: 0.8"/>
      </g>
     </g>
     <g id="text_12">
      <!-- 1992 -->
      <g transform="translate(367.438671 340.501483) rotate(-45) scale(0.1 -0.1)">
       <use xlink:href="#TimesNewRomanPSMT-31"/>
       <use xlink:href="#TimesNewRomanPSMT-39" transform="translate(50 0)"/>
       <use xlink:href="#TimesNewRomanPSMT-39" transform="translate(100 0)"/>
       <use xlink:href="#TimesNewRomanPSMT-32" transform="translate(150 0)"/>
      </g>
     </g>
    </g>
    <g id="xtick_13">
     <g id="line2d_13">
      <g>
       <use xlink:href="#me926a6260e" x="411.369716" y="314.449375" style="stroke: #000000; stroke-width: 0.8"/>
      </g>
     </g>
     <g id="text_13">
      <!-- 1994 -->
      <g transform="translate(395.715035 340.501483) rotate(-45) scale(0.1 -0.1)">
       <use xlink:href="#TimesNewRomanPSMT-31"/>
       <use xlink:href="#TimesNewRomanPSMT-39" transform="translate(50 0)"/>
       <use xlink:href="#TimesNewRomanPSMT-39" transform="translate(100 0)"/>
       <use xlink:href="#TimesNewRomanPSMT-34" transform="translate(150 0)"/>
      </g>
     </g>
    </g>
    <g id="text_14">
     <!-- Year -->
     <g transform="translate(237.722813 354.346529) scale(0.12 -0.12)">
      <defs>
       <path id="TimesNewRomanPSMT-59" d="M 3050 4238 
L 4528 4238 
L 4528 4122 
L 4447 4122 
Q 4366 4122 4209 4050 
Q 4053 3978 3925 3843 
Q 3797 3709 3609 3406 
L 2588 1797 
L 2588 734 
Q 2588 344 2675 247 
Q 2794 116 3050 116 
L 3188 116 
L 3188 0 
L 1388 0 
L 1388 116 
L 1538 116 
Q 1806 116 1919 278 
Q 1988 378 1988 734 
L 1988 1738 
L 825 3513 
Q 619 3825 545 3903 
Q 472 3981 241 4091 
Q 178 4122 59 4122 
L 59 4238 
L 1872 4238 
L 1872 4122 
L 1778 4122 
Q 1631 4122 1507 4053 
Q 1384 3984 1384 3847 
Q 1384 3734 1575 3441 
L 2459 2075 
L 3291 3381 
Q 3478 3675 3478 3819 
Q 3478 3906 3433 3975 
Q 3388 4044 3303 4083 
Q 3219 4122 3050 4122 
L 3050 4238 
z
" transform="scale(0.015625)"/>
       <path id="TimesNewRomanPSMT-65" d="M 681 1784 
Q 678 1147 991 784 
Q 1303 422 1725 422 
Q 2006 422 2214 576 
Q 2422 731 2563 1106 
L 2659 1044 
Q 2594 616 2278 264 
Q 1963 -88 1488 -88 
Q 972 -88 605 314 
Q 238 716 238 1394 
Q 238 2128 614 2539 
Q 991 2950 1559 2950 
Q 2041 2950 2350 2633 
Q 2659 2316 2659 1784 
L 681 1784 
z
M 681 1966 
L 2006 1966 
Q 1991 2241 1941 2353 
Q 1863 2528 1708 2628 
Q 1553 2728 1384 2728 
Q 1125 2728 920 2526 
Q 716 2325 681 1966 
z
" transform="scale(0.015625)"/>
       <path id="TimesNewRomanPSMT-61" d="M 1822 413 
Q 1381 72 1269 19 
Q 1100 -59 909 -59 
Q 613 -59 420 144 
Q 228 347 228 678 
Q 228 888 322 1041 
Q 450 1253 767 1440 
Q 1084 1628 1822 1897 
L 1822 2009 
Q 1822 2438 1686 2597 
Q 1550 2756 1291 2756 
Q 1094 2756 978 2650 
Q 859 2544 859 2406 
L 866 2225 
Q 866 2081 792 2003 
Q 719 1925 600 1925 
Q 484 1925 411 2006 
Q 338 2088 338 2228 
Q 338 2497 613 2722 
Q 888 2947 1384 2947 
Q 1766 2947 2009 2819 
Q 2194 2722 2281 2516 
Q 2338 2381 2338 1966 
L 2338 994 
Q 2338 584 2353 492 
Q 2369 400 2405 369 
Q 2441 338 2488 338 
Q 2538 338 2575 359 
Q 2641 400 2828 588 
L 2828 413 
Q 2478 -56 2159 -56 
Q 2006 -56 1915 50 
Q 1825 156 1822 413 
z
M 1822 616 
L 1822 1706 
Q 1350 1519 1213 1441 
Q 966 1303 859 1153 
Q 753 1003 753 825 
Q 753 600 887 451 
Q 1022 303 1197 303 
Q 1434 303 1822 616 
z
" transform="scale(0.015625)"/>
       <path id="TimesNewRomanPSMT-72" d="M 1038 2947 
L 1038 2303 
Q 1397 2947 1775 2947 
Q 1947 2947 2059 2842 
Q 2172 2738 2172 2600 
Q 2172 2478 2090 2393 
Q 2009 2309 1897 2309 
Q 1788 2309 1652 2417 
Q 1516 2525 1450 2525 
Q 1394 2525 1328 2463 
Q 1188 2334 1038 2041 
L 1038 669 
Q 1038 431 1097 309 
Q 1138 225 1241 169 
Q 1344 113 1538 113 
L 1538 0 
L 72 0 
L 72 113 
Q 291 113 397 181 
Q 475 231 506 341 
Q 522 394 522 644 
L 522 1753 
Q 522 2253 501 2348 
Q 481 2444 426 2487 
Q 372 2531 291 2531 
Q 194 2531 72 2484 
L 41 2597 
L 906 2947 
L 1038 2947 
z
" transform="scale(0.015625)"/>
      </defs>
      <use xlink:href="#TimesNewRomanPSMT-59"/>
      <use xlink:href="#TimesNewRomanPSMT-65" transform="translate(62.216797 0)"/>
      <use xlink:href="#TimesNewRomanPSMT-61" transform="translate(106.601562 0)"/>
      <use xlink:href="#TimesNewRomanPSMT-72" transform="translate(150.986328 0)"/>
     </g>
    </g>
   </g>
   <g id="matplotlib.axis_2">
    <g id="ytick_1">
     <g id="line2d_14">
      <defs>
       <path id="m6c62946f33" d="M 0 0 
L -3.5 0 
" style="stroke: #000000; stroke-width: 0.8"/>
      </defs>
      <g>
       <use xlink:href="#m6c62946f33" x="54.380625" y="314.449375" style="stroke: #000000; stroke-width: 0.8"/>
      </g>
     </g>
     <g id="text_15">
      <!-- 0 -->
      <g transform="translate(42.380625 317.92125) scale(0.1 -0.1)">
       <use xlink:href="#TimesNewRomanPSMT-30"/>
      </g>
     </g>
    </g>
    <g id="ytick_2">
     <g id="line2d_15">
      <g>
       <use xlink:href="#m6c62946f33" x="54.380625" y="277.879963" style="stroke: #000000; stroke-width: 0.8"/>
      </g>
     </g>
     <g id="text_16">
      <!-- 2500 -->
      <g transform="translate(27.380625 281.351838) scale(0.1 -0.1)">
       <defs>
        <path id="TimesNewRomanPSMT-35" d="M 2778 4238 
L 2534 3706 
L 1259 3706 
L 981 3138 
Q 1809 3016 2294 2522 
Q 2709 2097 2709 1522 
Q 2709 1188 2573 903 
Q 2438 619 2231 419 
Q 2025 219 1772 97 
Q 1413 -75 1034 -75 
Q 653 -75 479 54 
Q 306 184 306 341 
Q 306 428 378 495 
Q 450 563 559 563 
Q 641 563 702 538 
Q 763 513 909 409 
Q 1144 247 1384 247 
Q 1750 247 2026 523 
Q 2303 800 2303 1197 
Q 2303 1581 2056 1914 
Q 1809 2247 1375 2428 
Q 1034 2569 447 2591 
L 1259 4238 
L 2778 4238 
z
" transform="scale(0.015625)"/>
       </defs>
       <use xlink:href="#TimesNewRomanPSMT-32"/>
       <use xlink:href="#TimesNewRomanPSMT-35" transform="translate(50 0)"/>
       <use xlink:href="#TimesNewRomanPSMT-30" transform="translate(100 0)"/>
       <use xlink:href="#TimesNewRomanPSMT-30" transform="translate(150 0)"/>
      </g>
     </g>
    </g>
    <g id="ytick_3">
     <g id="line2d_16">
      <g>
       <use xlink:href="#m6c62946f33" x="54.380625" y="241.31055" style="stroke: #000000; stroke-width: 0.8"/>
      </g>
     </g>
     <g id="text_17">
      <!-- 5000 -->
      <g transform="translate(27.380625 244.782425) scale(0.1 -0.1)">
       <use xlink:href="#TimesNewRomanPSMT-35"/>
       <use xlink:href="#TimesNewRomanPSMT-30" transform="translate(50 0)"/>
       <use xlink:href="#TimesNewRomanPSMT-30" transform="translate(100 0)"/>
       <use xlink:href="#TimesNewRomanPSMT-30" transform="translate(150 0)"/>
      </g>
     </g>
    </g>
    <g id="ytick_4">
     <g id="line2d_17">
      <g>
       <use xlink:href="#m6c62946f33" x="54.380625" y="204.741138" style="stroke: #000000; stroke-width: 0.8"/>
      </g>
     </g>
     <g id="text_18">
      <!-- 7500 -->
      <g transform="translate(27.380625 208.213013) scale(0.1 -0.1)">
       <use xlink:href="#TimesNewRomanPSMT-37"/>
       <use xlink:href="#TimesNewRomanPSMT-35" transform="translate(50 0)"/>
       <use xlink:href="#TimesNewRomanPSMT-30" transform="translate(100 0)"/>
       <use xlink:href="#TimesNewRomanPSMT-30" transform="translate(150 0)"/>
      </g>
     </g>
    </g>
    <g id="ytick_5">
     <g id="line2d_18">
      <g>
       <use xlink:href="#m6c62946f33" x="54.380625" y="168.171726" style="stroke: #000000; stroke-width: 0.8"/>
      </g>
     </g>
     <g id="text_19">
      <!-- 10000 -->
      <g transform="translate(22.380625 171.643601) scale(0.1 -0.1)">
       <use xlink:href="#TimesNewRomanPSMT-31"/>
       <use xlink:href="#TimesNewRomanPSMT-30" transform="translate(50 0)"/>
       <use xlink:href="#TimesNewRomanPSMT-30" transform="translate(100 0)"/>
       <use xlink:href="#TimesNewRomanPSMT-30" transform="translate(150 0)"/>
       <use xlink:href="#TimesNewRomanPSMT-30" transform="translate(200 0)"/>
      </g>
     </g>
    </g>
    <g id="ytick_6">
     <g id="line2d_19">
      <g>
       <use xlink:href="#m6c62946f33" x="54.380625" y="131.602313" style="stroke: #000000; stroke-width: 0.8"/>
      </g>
     </g>
     <g id="text_20">
      <!-- 12500 -->
      <g transform="translate(22.380625 135.074188) scale(0.1 -0.1)">
       <use xlink:href="#TimesNewRomanPSMT-31"/>
       <use xlink:href="#TimesNewRomanPSMT-32" transform="translate(50 0)"/>
       <use xlink:href="#TimesNewRomanPSMT-35" transform="translate(100 0)"/>
       <use xlink:href="#TimesNewRomanPSMT-30" transform="translate(150 0)"/>
       <use xlink:href="#TimesNewRomanPSMT-30" transform="translate(200 0)"/>
      </g>
     </g>
    </g>
    <g id="ytick_7">
     <g id="line2d_20">
      <g>
       <use xlink:href="#m6c62946f33" x="54.380625" y="95.032901" style="stroke: #000000; stroke-width: 0.8"/>
      </g>
     </g>
     <g id="text_21">
      <!-- 15000 -->
      <g transform="translate(22.380625 98.504776) scale(0.1 -0.1)">
       <use xlink:href="#TimesNewRomanPSMT-31"/>
       <use xlink:href="#TimesNewRomanPSMT-35" transform="translate(50 0)"/>
       <use xlink:href="#TimesNewRomanPSMT-30" transform="translate(100 0)"/>
       <use xlink:href="#TimesNewRomanPSMT-30" transform="translate(150 0)"/>
       <use xlink:href="#TimesNewRomanPSMT-30" transform="translate(200 0)"/>
      </g>
     </g>
    </g>
    <g id="ytick_8">
     <g id="line2d_21">
      <g>
       <use xlink:href="#m6c62946f33" x="54.380625" y="58.463489" style="stroke: #000000; stroke-width: 0.8"/>
      </g>
     </g>
     <g id="text_22">
      <!-- 17500 -->
      <g transform="translate(22.380625 61.935364) scale(0.1 -0.1)">
       <use xlink:href="#TimesNewRomanPSMT-31"/>
       <use xlink:href="#TimesNewRomanPSMT-37" transform="translate(50 0)"/>
       <use xlink:href="#TimesNewRomanPSMT-35" transform="translate(100 0)"/>
       <use xlink:href="#TimesNewRomanPSMT-30" transform="translate(150 0)"/>
       <use xlink:href="#TimesNewRomanPSMT-30" transform="translate(200 0)"/>
      </g>
     </g>
    </g>
    <g id="text_23">
     <!-- Vehicle Maintenance Cost ($/month) -->
     <g transform="translate(15.81375 264.325938) rotate(-90) scale(0.12 -0.12)">
      <defs>
       <path id="TimesNewRomanPSMT-56" d="M 4544 4238 
L 4544 4122 
Q 4319 4081 4203 3978 
Q 4038 3825 3909 3509 
L 2431 -97 
L 2316 -97 
L 728 3556 
Q 606 3838 556 3900 
Q 478 3997 364 4051 
Q 250 4106 56 4122 
L 56 4238 
L 1788 4238 
L 1788 4122 
Q 1494 4094 1406 4022 
Q 1319 3950 1319 3838 
Q 1319 3681 1463 3350 
L 2541 866 
L 3541 3319 
Q 3688 3681 3688 3822 
Q 3688 3913 3597 3995 
Q 3506 4078 3291 4113 
Q 3275 4116 3238 4122 
L 3238 4238 
L 4544 4238 
z
" transform="scale(0.015625)"/>
       <path id="TimesNewRomanPSMT-68" d="M 1041 4444 
L 1041 2350 
Q 1388 2731 1591 2839 
Q 1794 2947 1997 2947 
Q 2241 2947 2416 2812 
Q 2591 2678 2675 2391 
Q 2734 2191 2734 1659 
L 2734 647 
Q 2734 375 2778 275 
Q 2809 200 2884 156 
Q 2959 113 3159 113 
L 3159 0 
L 1753 0 
L 1753 113 
L 1819 113 
Q 2019 113 2097 173 
Q 2175 234 2206 353 
Q 2216 403 2216 647 
L 2216 1659 
Q 2216 2128 2167 2275 
Q 2119 2422 2012 2495 
Q 1906 2569 1756 2569 
Q 1603 2569 1437 2487 
Q 1272 2406 1041 2159 
L 1041 647 
Q 1041 353 1073 281 
Q 1106 209 1195 161 
Q 1284 113 1503 113 
L 1503 0 
L 84 0 
L 84 113 
Q 275 113 384 172 
Q 447 203 484 290 
Q 522 378 522 647 
L 522 3238 
Q 522 3728 498 3840 
Q 475 3953 426 3993 
Q 378 4034 297 4034 
Q 231 4034 84 3984 
L 41 4094 
L 897 4444 
L 1041 4444 
z
" transform="scale(0.015625)"/>
       <path id="TimesNewRomanPSMT-69" d="M 928 4444 
Q 1059 4444 1151 4351 
Q 1244 4259 1244 4128 
Q 1244 3997 1151 3903 
Q 1059 3809 928 3809 
Q 797 3809 703 3903 
Q 609 3997 609 4128 
Q 609 4259 701 4351 
Q 794 4444 928 4444 
z
M 1188 2947 
L 1188 647 
Q 1188 378 1227 289 
Q 1266 200 1342 156 
Q 1419 113 1622 113 
L 1622 0 
L 231 0 
L 231 113 
Q 441 113 512 153 
Q 584 194 626 287 
Q 669 381 669 647 
L 669 1750 
Q 669 2216 641 2353 
Q 619 2453 572 2492 
Q 525 2531 444 2531 
Q 356 2531 231 2484 
L 188 2597 
L 1050 2947 
L 1188 2947 
z
" transform="scale(0.015625)"/>
       <path id="TimesNewRomanPSMT-63" d="M 2631 1088 
Q 2516 522 2178 217 
Q 1841 -88 1431 -88 
Q 944 -88 581 321 
Q 219 731 219 1428 
Q 219 2103 620 2525 
Q 1022 2947 1584 2947 
Q 2006 2947 2278 2723 
Q 2550 2500 2550 2259 
Q 2550 2141 2473 2067 
Q 2397 1994 2259 1994 
Q 2075 1994 1981 2113 
Q 1928 2178 1911 2362 
Q 1894 2547 1784 2644 
Q 1675 2738 1481 2738 
Q 1169 2738 978 2506 
Q 725 2200 725 1697 
Q 725 1184 976 792 
Q 1228 400 1656 400 
Q 1963 400 2206 609 
Q 2378 753 2541 1131 
L 2631 1088 
z
" transform="scale(0.015625)"/>
       <path id="TimesNewRomanPSMT-6c" d="M 1184 4444 
L 1184 647 
Q 1184 378 1223 290 
Q 1263 203 1344 158 
Q 1425 113 1647 113 
L 1647 0 
L 244 0 
L 244 113 
Q 441 113 512 153 
Q 584 194 625 287 
Q 666 381 666 647 
L 666 3247 
Q 666 3731 644 3842 
Q 622 3953 573 3993 
Q 525 4034 450 4034 
Q 369 4034 244 3984 
L 191 4094 
L 1044 4444 
L 1184 4444 
z
" transform="scale(0.015625)"/>
       <path id="TimesNewRomanPSMT-20" transform="scale(0.015625)"/>
       <path id="TimesNewRomanPSMT-4d" d="M 2619 0 
L 981 3566 
L 981 734 
Q 981 344 1066 247 
Q 1181 116 1431 116 
L 1581 116 
L 1581 0 
L 106 0 
L 106 116 
L 256 116 
Q 525 116 638 278 
Q 706 378 706 734 
L 706 3503 
Q 706 3784 644 3909 
Q 600 4000 483 4061 
Q 366 4122 106 4122 
L 106 4238 
L 1306 4238 
L 2844 922 
L 4356 4238 
L 5556 4238 
L 5556 4122 
L 5409 4122 
Q 5138 4122 5025 3959 
Q 4956 3859 4956 3503 
L 4956 734 
Q 4956 344 5044 247 
Q 5159 116 5409 116 
L 5556 116 
L 5556 0 
L 3756 0 
L 3756 116 
L 3906 116 
Q 4178 116 4288 278 
Q 4356 378 4356 734 
L 4356 3566 
L 2722 0 
L 2619 0 
z
" transform="scale(0.015625)"/>
       <path id="TimesNewRomanPSMT-6e" d="M 1034 2341 
Q 1538 2947 1994 2947 
Q 2228 2947 2397 2830 
Q 2566 2713 2666 2444 
Q 2734 2256 2734 1869 
L 2734 647 
Q 2734 375 2778 278 
Q 2813 200 2889 156 
Q 2966 113 3172 113 
L 3172 0 
L 1756 0 
L 1756 113 
L 1816 113 
Q 2016 113 2095 173 
Q 2175 234 2206 353 
Q 2219 400 2219 647 
L 2219 1819 
Q 2219 2209 2117 2386 
Q 2016 2563 1775 2563 
Q 1403 2563 1034 2156 
L 1034 647 
Q 1034 356 1069 288 
Q 1113 197 1189 155 
Q 1266 113 1500 113 
L 1500 0 
L 84 0 
L 84 113 
L 147 113 
Q 366 113 442 223 
Q 519 334 519 647 
L 519 1709 
Q 519 2225 495 2337 
Q 472 2450 423 2490 
Q 375 2531 294 2531 
Q 206 2531 84 2484 
L 38 2597 
L 900 2947 
L 1034 2947 
L 1034 2341 
z
" transform="scale(0.015625)"/>
       <path id="TimesNewRomanPSMT-74" d="M 1031 3803 
L 1031 2863 
L 1700 2863 
L 1700 2644 
L 1031 2644 
L 1031 788 
Q 1031 509 1111 412 
Q 1191 316 1316 316 
Q 1419 316 1516 380 
Q 1613 444 1666 569 
L 1788 569 
Q 1678 263 1478 108 
Q 1278 -47 1066 -47 
Q 922 -47 784 33 
Q 647 113 581 261 
Q 516 409 516 719 
L 516 2644 
L 63 2644 
L 63 2747 
Q 234 2816 414 2980 
Q 594 3144 734 3369 
Q 806 3488 934 3803 
L 1031 3803 
z
" transform="scale(0.015625)"/>
       <path id="TimesNewRomanPSMT-43" d="M 3853 4334 
L 3950 2894 
L 3853 2894 
Q 3659 3541 3300 3825 
Q 2941 4109 2438 4109 
Q 2016 4109 1675 3895 
Q 1334 3681 1139 3212 
Q 944 2744 944 2047 
Q 944 1472 1128 1050 
Q 1313 628 1683 403 
Q 2053 178 2528 178 
Q 2941 178 3256 354 
Q 3572 531 3950 1056 
L 4047 994 
Q 3728 428 3303 165 
Q 2878 -97 2294 -97 
Q 1241 -97 663 684 
Q 231 1266 231 2053 
Q 231 2688 515 3219 
Q 800 3750 1298 4042 
Q 1797 4334 2388 4334 
Q 2847 4334 3294 4109 
Q 3425 4041 3481 4041 
Q 3566 4041 3628 4100 
Q 3709 4184 3744 4334 
L 3853 4334 
z
" transform="scale(0.015625)"/>
       <path id="TimesNewRomanPSMT-6f" d="M 1600 2947 
Q 2250 2947 2644 2453 
Q 2978 2031 2978 1484 
Q 2978 1100 2793 706 
Q 2609 313 2286 112 
Q 1963 -88 1566 -88 
Q 919 -88 538 428 
Q 216 863 216 1403 
Q 216 1797 411 2186 
Q 606 2575 925 2761 
Q 1244 2947 1600 2947 
z
M 1503 2744 
Q 1338 2744 1170 2645 
Q 1003 2547 900 2300 
Q 797 2053 797 1666 
Q 797 1041 1045 587 
Q 1294 134 1700 134 
Q 2003 134 2200 384 
Q 2397 634 2397 1244 
Q 2397 2006 2069 2444 
Q 1847 2744 1503 2744 
z
" transform="scale(0.015625)"/>
       <path id="TimesNewRomanPSMT-73" d="M 2050 2947 
L 2050 1972 
L 1947 1972 
Q 1828 2431 1642 2597 
Q 1456 2763 1169 2763 
Q 950 2763 815 2647 
Q 681 2531 681 2391 
Q 681 2216 781 2091 
Q 878 1963 1175 1819 
L 1631 1597 
Q 2266 1288 2266 781 
Q 2266 391 1970 151 
Q 1675 -88 1309 -88 
Q 1047 -88 709 6 
Q 606 38 541 38 
Q 469 38 428 -44 
L 325 -44 
L 325 978 
L 428 978 
Q 516 541 762 319 
Q 1009 97 1316 97 
Q 1531 97 1667 223 
Q 1803 350 1803 528 
Q 1803 744 1651 891 
Q 1500 1038 1047 1263 
Q 594 1488 453 1669 
Q 313 1847 313 2119 
Q 313 2472 555 2709 
Q 797 2947 1181 2947 
Q 1350 2947 1591 2875 
Q 1750 2828 1803 2828 
Q 1853 2828 1881 2850 
Q 1909 2872 1947 2947 
L 2050 2947 
z
" transform="scale(0.015625)"/>
       <path id="TimesNewRomanPSMT-28" d="M 1988 -1253 
L 1988 -1369 
Q 1516 -1131 1200 -813 
Q 750 -359 506 256 
Q 263 872 263 1534 
Q 263 2503 741 3301 
Q 1219 4100 1988 4444 
L 1988 4313 
Q 1603 4100 1356 3731 
Q 1109 3363 987 2797 
Q 866 2231 866 1616 
Q 866 947 969 400 
Q 1050 -31 1165 -292 
Q 1281 -553 1476 -793 
Q 1672 -1034 1988 -1253 
z
" transform="scale(0.015625)"/>
       <path id="TimesNewRomanPSMT-24" d="M 338 1044 
L 475 1044 
Q 509 616 743 387 
Q 978 159 1444 116 
L 1444 1941 
Q 741 2375 506 2709 
Q 341 2947 341 3288 
Q 341 3672 627 3959 
Q 913 4247 1444 4306 
L 1444 4594 
L 1644 4594 
L 1644 4306 
Q 1900 4291 2075 4247 
Q 2166 4225 2675 4031 
L 2675 3097 
L 2553 3097 
Q 2513 3594 2295 3823 
Q 2078 4053 1644 4097 
L 1644 2509 
Q 2431 1959 2654 1698 
Q 2878 1438 2878 1050 
Q 2878 619 2551 290 
Q 2225 -38 1644 -88 
L 1644 -488 
L 1444 -488 
L 1444 -88 
Q 1150 -75 897 -20 
Q 644 34 338 159 
L 338 1044 
z
M 1444 2641 
L 1444 4094 
Q 1131 4056 979 3895 
Q 828 3734 828 3491 
Q 828 3263 965 3064 
Q 1103 2866 1444 2641 
z
M 1644 116 
Q 1878 156 2003 231 
Q 2178 341 2279 517 
Q 2381 694 2381 894 
Q 2381 1100 2257 1284 
Q 2134 1469 1644 1806 
L 1644 116 
z
" transform="scale(0.015625)"/>
       <path id="TimesNewRomanPSMT-2f" d="M 1794 4444 
L 259 -88 
L 9 -88 
L 1544 4444 
L 1794 4444 
z
" transform="scale(0.015625)"/>
       <path id="TimesNewRomanPSMT-6d" d="M 1050 2338 
Q 1363 2650 1419 2697 
Q 1559 2816 1721 2881 
Q 1884 2947 2044 2947 
Q 2313 2947 2506 2790 
Q 2700 2634 2766 2338 
Q 3088 2713 3309 2830 
Q 3531 2947 3766 2947 
Q 3994 2947 4170 2830 
Q 4347 2713 4450 2447 
Q 4519 2266 4519 1878 
L 4519 647 
Q 4519 378 4559 278 
Q 4591 209 4675 161 
Q 4759 113 4950 113 
L 4950 0 
L 3538 0 
L 3538 113 
L 3597 113 
Q 3781 113 3884 184 
Q 3956 234 3988 344 
Q 4000 397 4000 647 
L 4000 1878 
Q 4000 2228 3916 2372 
Q 3794 2572 3525 2572 
Q 3359 2572 3192 2489 
Q 3025 2406 2788 2181 
L 2781 2147 
L 2788 2013 
L 2788 647 
Q 2788 353 2820 281 
Q 2853 209 2943 161 
Q 3034 113 3253 113 
L 3253 0 
L 1806 0 
L 1806 113 
Q 2044 113 2133 169 
Q 2222 225 2256 338 
Q 2272 391 2272 647 
L 2272 1878 
Q 2272 2228 2169 2381 
Q 2031 2581 1784 2581 
Q 1616 2581 1450 2491 
Q 1191 2353 1050 2181 
L 1050 647 
Q 1050 366 1089 281 
Q 1128 197 1204 155 
Q 1281 113 1516 113 
L 1516 0 
L 100 0 
L 100 113 
Q 297 113 375 155 
Q 453 197 493 289 
Q 534 381 534 647 
L 534 1741 
Q 534 2213 506 2350 
Q 484 2453 437 2492 
Q 391 2531 309 2531 
Q 222 2531 100 2484 
L 53 2597 
L 916 2947 
L 1050 2947 
L 1050 2338 
z
" transform="scale(0.015625)"/>
       <path id="TimesNewRomanPSMT-29" d="M 144 4313 
L 144 4444 
Q 619 4209 934 3891 
Q 1381 3434 1625 2820 
Q 1869 2206 1869 1541 
Q 1869 572 1392 -226 
Q 916 -1025 144 -1369 
L 144 -1253 
Q 528 -1038 776 -670 
Q 1025 -303 1145 264 
Q 1266 831 1266 1447 
Q 1266 2113 1163 2663 
Q 1084 3094 967 3353 
Q 850 3613 656 3853 
Q 463 4094 144 4313 
z
" transform="scale(0.015625)"/>
      </defs>
      <use xlink:href="#TimesNewRomanPSMT-56"/>
      <use xlink:href="#TimesNewRomanPSMT-65" transform="translate(61.091797 0)"/>
      <use xlink:href="#TimesNewRomanPSMT-68" transform="translate(105.476562 0)"/>
      <use xlink:href="#TimesNewRomanPSMT-69" transform="translate(155.476562 0)"/>
      <use xlink:href="#TimesNewRomanPSMT-63" transform="translate(183.259766 0)"/>
      <use xlink:href="#TimesNewRomanPSMT-6c" transform="translate(227.644531 0)"/>
      <use xlink:href="#TimesNewRomanPSMT-65" transform="translate(255.427734 0)"/>
      <use xlink:href="#TimesNewRomanPSMT-20" transform="translate(299.8125 0)"/>
      <use xlink:href="#TimesNewRomanPSMT-4d" transform="translate(324.8125 0)"/>
      <use xlink:href="#TimesNewRomanPSMT-61" transform="translate(413.728516 0)"/>
      <use xlink:href="#TimesNewRomanPSMT-69" transform="translate(458.113281 0)"/>
      <use xlink:href="#TimesNewRomanPSMT-6e" transform="translate(485.896484 0)"/>
      <use xlink:href="#TimesNewRomanPSMT-74" transform="translate(535.896484 0)"/>
      <use xlink:href="#TimesNewRomanPSMT-65" transform="translate(563.679688 0)"/>
      <use xlink:href="#TimesNewRomanPSMT-6e" transform="translate(608.064453 0)"/>
      <use xlink:href="#TimesNewRomanPSMT-61" transform="translate(658.064453 0)"/>
      <use xlink:href="#TimesNewRomanPSMT-6e" transform="translate(702.449219 0)"/>
      <use xlink:href="#TimesNewRomanPSMT-63" transform="translate(752.449219 0)"/>
      <use xlink:href="#TimesNewRomanPSMT-65" transform="translate(796.833984 0)"/>
      <use xlink:href="#TimesNewRomanPSMT-20" transform="translate(841.21875 0)"/>
      <use xlink:href="#TimesNewRomanPSMT-43" transform="translate(866.21875 0)"/>
      <use xlink:href="#TimesNewRomanPSMT-6f" transform="translate(932.917969 0)"/>
      <use xlink:href="#TimesNewRomanPSMT-73" transform="translate(982.917969 0)"/>
      <use xlink:href="#TimesNewRomanPSMT-74" transform="translate(1021.833984 0)"/>
      <use xlink:href="#TimesNewRomanPSMT-20" transform="translate(1049.617188 0)"/>
      <use xlink:href="#TimesNewRomanPSMT-28" transform="translate(1074.617188 0)"/>
      <use xlink:href="#TimesNewRomanPSMT-24" transform="translate(1107.917969 0)"/>
      <use xlink:href="#TimesNewRomanPSMT-2f" transform="translate(1157.917969 0)"/>
      <use xlink:href="#TimesNewRomanPSMT-6d" transform="translate(1185.701172 0)"/>
      <use xlink:href="#TimesNewRomanPSMT-6f" transform="translate(1263.484375 0)"/>
      <use xlink:href="#TimesNewRomanPSMT-6e" transform="translate(1313.484375 0)"/>
      <use xlink:href="#TimesNewRomanPSMT-74" transform="translate(1363.484375 0)"/>
      <use xlink:href="#TimesNewRomanPSMT-68" transform="translate(1391.267578 0)"/>
      <use xlink:href="#TimesNewRomanPSMT-29" transform="translate(1441.267578 0)"/>
     </g>
    </g>
   </g>
   <g id="patch_3">
    <path d="M 54.380625 314.449375 
L 54.380625 37.249375 
" style="fill: none; stroke: #000000; stroke-width: 0.8; stroke-linejoin: miter; stroke-linecap: square"/>
   </g>
   <g id="patch_4">
    <path d="M 443.180625 314.449375 
L 443.180625 37.249375 
" style="fill: none; stroke: #000000; stroke-width: 0.8; stroke-linejoin: miter; stroke-linecap: square"/>
   </g>
   <g id="patch_5">
    <path d="M 54.380625 314.449375 
L 443.180625 314.449375 
" style="fill: none; stroke: #000000; stroke-width: 0.8; stroke-linejoin: miter; stroke-linecap: square"/>
   </g>
   <g id="patch_6">
    <path d="M 54.380625 37.249375 
L 443.180625 37.249375 
" style="fill: none; stroke: #000000; stroke-width: 0.8; stroke-linejoin: miter; stroke-linecap: square"/>
   </g>
   <g id="text_24">
    <!-- Vehicle Maintenance Cost from 1970 to 1995($/month) -->
    <g transform="translate(93.257031 17.249375) scale(0.14 -0.14)">
     <defs>
      <path id="TimesNewRomanPSMT-66" d="M 1319 2638 
L 1319 756 
Q 1319 356 1406 250 
Q 1522 113 1716 113 
L 1975 113 
L 1975 0 
L 266 0 
L 266 113 
L 394 113 
Q 519 113 622 175 
Q 725 238 764 344 
Q 803 450 803 756 
L 803 2638 
L 247 2638 
L 247 2863 
L 803 2863 
L 803 3050 
Q 803 3478 940 3775 
Q 1078 4072 1361 4255 
Q 1644 4438 1997 4438 
Q 2325 4438 2600 4225 
Q 2781 4084 2781 3909 
Q 2781 3816 2700 3733 
Q 2619 3650 2525 3650 
Q 2453 3650 2373 3701 
Q 2294 3753 2178 3923 
Q 2063 4094 1966 4153 
Q 1869 4213 1750 4213 
Q 1606 4213 1506 4136 
Q 1406 4059 1362 3898 
Q 1319 3738 1319 3069 
L 1319 2863 
L 2056 2863 
L 2056 2638 
L 1319 2638 
z
" transform="scale(0.015625)"/>
     </defs>
     <use xlink:href="#TimesNewRomanPSMT-56"/>
     <use xlink:href="#TimesNewRomanPSMT-65" transform="translate(61.091797 0)"/>
     <use xlink:href="#TimesNewRomanPSMT-68" transform="translate(105.476562 0)"/>
     <use xlink:href="#TimesNewRomanPSMT-69" transform="translate(155.476562 0)"/>
     <use xlink:href="#TimesNewRomanPSMT-63" transform="translate(183.259766 0)"/>
     <use xlink:href="#TimesNewRomanPSMT-6c" transform="translate(227.644531 0)"/>
     <use xlink:href="#TimesNewRomanPSMT-65" transform="translate(255.427734 0)"/>
     <use xlink:href="#TimesNewRomanPSMT-20" transform="translate(299.8125 0)"/>
     <use xlink:href="#TimesNewRomanPSMT-4d" transform="translate(324.8125 0)"/>
     <use xlink:href="#TimesNewRomanPSMT-61" transform="translate(413.728516 0)"/>
     <use xlink:href="#TimesNewRomanPSMT-69" transform="translate(458.113281 0)"/>
     <use xlink:href="#TimesNewRomanPSMT-6e" transform="translate(485.896484 0)"/>
     <use xlink:href="#TimesNewRomanPSMT-74" transform="translate(535.896484 0)"/>
     <use xlink:href="#TimesNewRomanPSMT-65" transform="translate(563.679688 0)"/>
     <use xlink:href="#TimesNewRomanPSMT-6e" transform="translate(608.064453 0)"/>
     <use xlink:href="#TimesNewRomanPSMT-61" transform="translate(658.064453 0)"/>
     <use xlink:href="#TimesNewRomanPSMT-6e" transform="translate(702.449219 0)"/>
     <use xlink:href="#TimesNewRomanPSMT-63" transform="translate(752.449219 0)"/>
     <use xlink:href="#TimesNewRomanPSMT-65" transform="translate(796.833984 0)"/>
     <use xlink:href="#TimesNewRomanPSMT-20" transform="translate(841.21875 0)"/>
     <use xlink:href="#TimesNewRomanPSMT-43" transform="translate(866.21875 0)"/>
     <use xlink:href="#TimesNewRomanPSMT-6f" transform="translate(932.917969 0)"/>
     <use xlink:href="#TimesNewRomanPSMT-73" transform="translate(982.917969 0)"/>
     <use xlink:href="#TimesNewRomanPSMT-74" transform="translate(1021.833984 0)"/>
     <use xlink:href="#TimesNewRomanPSMT-20" transform="translate(1049.617188 0)"/>
     <use xlink:href="#TimesNewRomanPSMT-66" transform="translate(1074.617188 0)"/>
     <use xlink:href="#TimesNewRomanPSMT-72" transform="translate(1107.917969 0)"/>
     <use xlink:href="#TimesNewRomanPSMT-6f" transform="translate(1141.21875 0)"/>
     <use xlink:href="#TimesNewRomanPSMT-6d" transform="translate(1191.21875 0)"/>
     <use xlink:href="#TimesNewRomanPSMT-20" transform="translate(1269.001953 0)"/>
     <use xlink:href="#TimesNewRomanPSMT-31" transform="translate(1294.001953 0)"/>
     <use xlink:href="#TimesNewRomanPSMT-39" transform="translate(1344.001953 0)"/>
     <use xlink:href="#TimesNewRomanPSMT-37" transform="translate(1394.001953 0)"/>
     <use xlink:href="#TimesNewRomanPSMT-30" transform="translate(1444.001953 0)"/>
     <use xlink:href="#TimesNewRomanPSMT-20" transform="translate(1494.001953 0)"/>
     <use xlink:href="#TimesNewRomanPSMT-74" transform="translate(1519.001953 0)"/>
     <use xlink:href="#TimesNewRomanPSMT-6f" transform="translate(1546.785156 0)"/>
     <use xlink:href="#TimesNewRomanPSMT-20" transform="translate(1596.785156 0)"/>
     <use xlink:href="#TimesNewRomanPSMT-31" transform="translate(1621.785156 0)"/>
     <use xlink:href="#TimesNewRomanPSMT-39" transform="translate(1671.785156 0)"/>
     <use xlink:href="#TimesNewRomanPSMT-39" transform="translate(1721.785156 0)"/>
     <use xlink:href="#TimesNewRomanPSMT-35" transform="translate(1771.785156 0)"/>
     <use xlink:href="#TimesNewRomanPSMT-28" transform="translate(1821.785156 0)"/>
     <use xlink:href="#TimesNewRomanPSMT-24" transform="translate(1855.085938 0)"/>
     <use xlink:href="#TimesNewRomanPSMT-2f" transform="translate(1905.085938 0)"/>
     <use xlink:href="#TimesNewRomanPSMT-6d" transform="translate(1932.869141 0)"/>
     <use xlink:href="#TimesNewRomanPSMT-6f" transform="translate(2010.652344 0)"/>
     <use xlink:href="#TimesNewRomanPSMT-6e" transform="translate(2060.652344 0)"/>
     <use xlink:href="#TimesNewRomanPSMT-74" transform="translate(2110.652344 0)"/>
     <use xlink:href="#TimesNewRomanPSMT-68" transform="translate(2138.435547 0)"/>
     <use xlink:href="#TimesNewRomanPSMT-29" transform="translate(2188.435547 0)"/>
    </g>
   </g>
   <g id="legend_1">
    <g id="patch_7">
     <path d="M 459.956625 135.825156 
L 479.956625 135.825156 
L 479.956625 128.825156 
L 459.956625 128.825156 
z
" style="fill: #1f77b4"/>
    </g>
    <g id="text_25">
     <!-- Cold Storage Vans -->
     <g transform="translate(487.956625 135.825156) scale(0.1 -0.1)">
      <defs>
       <path id="TimesNewRomanPSMT-64" d="M 2222 322 
Q 2013 103 1813 7 
Q 1613 -88 1381 -88 
Q 913 -88 563 304 
Q 213 697 213 1313 
Q 213 1928 600 2439 
Q 988 2950 1597 2950 
Q 1975 2950 2222 2709 
L 2222 3238 
Q 2222 3728 2198 3840 
Q 2175 3953 2125 3993 
Q 2075 4034 2000 4034 
Q 1919 4034 1784 3984 
L 1744 4094 
L 2597 4444 
L 2738 4444 
L 2738 1134 
Q 2738 631 2761 520 
Q 2784 409 2836 365 
Q 2888 322 2956 322 
Q 3041 322 3181 375 
L 3216 266 
L 2366 -88 
L 2222 -88 
L 2222 322 
z
M 2222 541 
L 2222 2016 
Q 2203 2228 2109 2403 
Q 2016 2578 1861 2667 
Q 1706 2756 1559 2756 
Q 1284 2756 1069 2509 
Q 784 2184 784 1559 
Q 784 928 1059 592 
Q 1334 256 1672 256 
Q 1956 256 2222 541 
z
" transform="scale(0.015625)"/>
       <path id="TimesNewRomanPSMT-53" d="M 2934 4334 
L 2934 2869 
L 2819 2869 
Q 2763 3291 2617 3541 
Q 2472 3791 2203 3937 
Q 1934 4084 1647 4084 
Q 1322 4084 1109 3886 
Q 897 3688 897 3434 
Q 897 3241 1031 3081 
Q 1225 2847 1953 2456 
Q 2547 2138 2764 1967 
Q 2981 1797 3098 1565 
Q 3216 1334 3216 1081 
Q 3216 600 2842 251 
Q 2469 -97 1881 -97 
Q 1697 -97 1534 -69 
Q 1438 -53 1133 45 
Q 828 144 747 144 
Q 669 144 623 97 
Q 578 50 556 -97 
L 441 -97 
L 441 1356 
L 556 1356 
Q 638 900 775 673 
Q 913 447 1195 297 
Q 1478 147 1816 147 
Q 2206 147 2432 353 
Q 2659 559 2659 841 
Q 2659 997 2573 1156 
Q 2488 1316 2306 1453 
Q 2184 1547 1640 1851 
Q 1097 2156 867 2337 
Q 638 2519 519 2737 
Q 400 2956 400 3219 
Q 400 3675 750 4004 
Q 1100 4334 1641 4334 
Q 1978 4334 2356 4169 
Q 2531 4091 2603 4091 
Q 2684 4091 2736 4139 
Q 2788 4188 2819 4334 
L 2934 4334 
z
" transform="scale(0.015625)"/>
       <path id="TimesNewRomanPSMT-67" d="M 966 1044 
Q 703 1172 562 1401 
Q 422 1631 422 1909 
Q 422 2334 742 2640 
Q 1063 2947 1563 2947 
Q 1972 2947 2272 2747 
L 2878 2747 
Q 3013 2747 3034 2739 
Q 3056 2731 3066 2713 
Q 3084 2684 3084 2613 
Q 3084 2531 3069 2500 
Q 3059 2484 3036 2475 
Q 3013 2466 2878 2466 
L 2506 2466 
Q 2681 2241 2681 1891 
Q 2681 1491 2375 1206 
Q 2069 922 1553 922 
Q 1341 922 1119 984 
Q 981 866 932 777 
Q 884 688 884 625 
Q 884 572 936 522 
Q 988 472 1138 450 
Q 1225 438 1575 428 
Q 2219 413 2409 384 
Q 2700 344 2873 169 
Q 3047 -6 3047 -263 
Q 3047 -616 2716 -925 
Q 2228 -1381 1444 -1381 
Q 841 -1381 425 -1109 
Q 191 -953 191 -784 
Q 191 -709 225 -634 
Q 278 -519 444 -313 
Q 466 -284 763 25 
Q 600 122 533 198 
Q 466 275 466 372 
Q 466 481 555 628 
Q 644 775 966 1044 
z
M 1509 2797 
Q 1278 2797 1122 2612 
Q 966 2428 966 2047 
Q 966 1553 1178 1281 
Q 1341 1075 1591 1075 
Q 1828 1075 1981 1253 
Q 2134 1431 2134 1813 
Q 2134 2309 1919 2591 
Q 1759 2797 1509 2797 
z
M 934 0 
Q 788 -159 713 -296 
Q 638 -434 638 -550 
Q 638 -700 819 -813 
Q 1131 -1006 1722 -1006 
Q 2284 -1006 2551 -807 
Q 2819 -609 2819 -384 
Q 2819 -222 2659 -153 
Q 2497 -84 2016 -72 
Q 1313 -53 934 0 
z
" transform="scale(0.015625)"/>
      </defs>
      <use xlink:href="#TimesNewRomanPSMT-43"/>
      <use xlink:href="#TimesNewRomanPSMT-6f" transform="translate(66.699219 0)"/>
      <use xlink:href="#TimesNewRomanPSMT-6c" transform="translate(116.699219 0)"/>
      <use xlink:href="#TimesNewRomanPSMT-64" transform="translate(144.482422 0)"/>
      <use xlink:href="#TimesNewRomanPSMT-20" transform="translate(194.482422 0)"/>
      <use xlink:href="#TimesNewRomanPSMT-53" transform="translate(219.482422 0)"/>
      <use xlink:href="#TimesNewRomanPSMT-74" transform="translate(275.097656 0)"/>
      <use xlink:href="#TimesNewRomanPSMT-6f" transform="translate(302.880859 0)"/>
      <use xlink:href="#TimesNewRomanPSMT-72" transform="translate(352.880859 0)"/>
      <use xlink:href="#TimesNewRomanPSMT-61" transform="translate(386.181641 0)"/>
      <use xlink:href="#TimesNewRomanPSMT-67" transform="translate(430.566406 0)"/>
      <use xlink:href="#TimesNewRomanPSMT-65" transform="translate(480.566406 0)"/>
      <use xlink:href="#TimesNewRomanPSMT-20" transform="translate(524.951172 0)"/>
      <use xlink:href="#TimesNewRomanPSMT-56" transform="translate(548.201172 0)"/>
      <use xlink:href="#TimesNewRomanPSMT-61" transform="translate(609.292969 0)"/>
      <use xlink:href="#TimesNewRomanPSMT-6e" transform="translate(653.677734 0)"/>
      <use xlink:href="#TimesNewRomanPSMT-73" transform="translate(703.677734 0)"/>
     </g>
    </g>
    <g id="patch_8">
     <path d="M 459.956625 149.982969 
L 479.956625 149.982969 
L 479.956625 142.982969 
L 459.956625 142.982969 
z
" style="fill: #aec7e8"/>
    </g>
    <g id="text_26">
     <!-- Aircraft Engines -->
     <g transform="translate(487.956625 149.982969) scale(0.1 -0.1)">
      <defs>
       <path id="TimesNewRomanPSMT-41" d="M 2928 1419 
L 1288 1419 
L 1000 750 
Q 894 503 894 381 
Q 894 284 986 211 
Q 1078 138 1384 116 
L 1384 0 
L 50 0 
L 50 116 
Q 316 163 394 238 
Q 553 388 747 847 
L 2238 4334 
L 2347 4334 
L 3822 809 
Q 4000 384 4145 257 
Q 4291 131 4550 116 
L 4550 0 
L 2878 0 
L 2878 116 
Q 3131 128 3220 200 
Q 3309 272 3309 375 
Q 3309 513 3184 809 
L 2928 1419 
z
M 2841 1650 
L 2122 3363 
L 1384 1650 
L 2841 1650 
z
" transform="scale(0.015625)"/>
       <path id="TimesNewRomanPSMT-45" d="M 1338 4006 
L 1338 2331 
L 2269 2331 
Q 2631 2331 2753 2441 
Q 2916 2584 2934 2947 
L 3050 2947 
L 3050 1472 
L 2934 1472 
Q 2891 1781 2847 1869 
Q 2791 1978 2662 2040 
Q 2534 2103 2269 2103 
L 1338 2103 
L 1338 706 
Q 1338 425 1363 364 
Q 1388 303 1450 267 
Q 1513 231 1688 231 
L 2406 231 
Q 2766 231 2928 281 
Q 3091 331 3241 478 
Q 3434 672 3638 1063 
L 3763 1063 
L 3397 0 
L 131 0 
L 131 116 
L 281 116 
Q 431 116 566 188 
Q 666 238 702 338 
Q 738 438 738 747 
L 738 3500 
Q 738 3903 656 3997 
Q 544 4122 281 4122 
L 131 4122 
L 131 4238 
L 3397 4238 
L 3444 3309 
L 3322 3309 
Q 3256 3644 3176 3769 
Q 3097 3894 2941 3959 
Q 2816 4006 2500 4006 
L 1338 4006 
z
" transform="scale(0.015625)"/>
      </defs>
      <use xlink:href="#TimesNewRomanPSMT-41"/>
      <use xlink:href="#TimesNewRomanPSMT-69" transform="translate(72.216797 0)"/>
      <use xlink:href="#TimesNewRomanPSMT-72" transform="translate(100 0)"/>
      <use xlink:href="#TimesNewRomanPSMT-63" transform="translate(133.300781 0)"/>
      <use xlink:href="#TimesNewRomanPSMT-72" transform="translate(177.685547 0)"/>
      <use xlink:href="#TimesNewRomanPSMT-61" transform="translate(210.986328 0)"/>
      <use xlink:href="#TimesNewRomanPSMT-66" transform="translate(255.371094 0)"/>
      <use xlink:href="#TimesNewRomanPSMT-74" transform="translate(288.671875 0)"/>
      <use xlink:href="#TimesNewRomanPSMT-20" transform="translate(316.455078 0)"/>
      <use xlink:href="#TimesNewRomanPSMT-45" transform="translate(341.455078 0)"/>
      <use xlink:href="#TimesNewRomanPSMT-6e" transform="translate(402.539062 0)"/>
      <use xlink:href="#TimesNewRomanPSMT-67" transform="translate(452.539062 0)"/>
      <use xlink:href="#TimesNewRomanPSMT-69" transform="translate(502.539062 0)"/>
      <use xlink:href="#TimesNewRomanPSMT-6e" transform="translate(530.322266 0)"/>
      <use xlink:href="#TimesNewRomanPSMT-65" transform="translate(580.322266 0)"/>
      <use xlink:href="#TimesNewRomanPSMT-73" transform="translate(624.707031 0)"/>
     </g>
    </g>
    <g id="patch_9">
     <path d="M 459.956625 164.140781 
L 479.956625 164.140781 
L 479.956625 157.140781 
L 459.956625 157.140781 
z
" style="fill: #ff7f0e"/>
    </g>
    <g id="text_27">
     <!-- Railway Cars -->
     <g transform="translate(487.956625 164.140781) scale(0.1 -0.1)">
      <defs>
       <path id="TimesNewRomanPSMT-52" d="M 4325 0 
L 3194 0 
L 1759 1981 
Q 1600 1975 1500 1975 
Q 1459 1975 1412 1976 
Q 1366 1978 1316 1981 
L 1316 750 
Q 1316 350 1403 253 
Q 1522 116 1759 116 
L 1925 116 
L 1925 0 
L 109 0 
L 109 116 
L 269 116 
Q 538 116 653 291 
Q 719 388 719 750 
L 719 3488 
Q 719 3888 631 3984 
Q 509 4122 269 4122 
L 109 4122 
L 109 4238 
L 1653 4238 
Q 2328 4238 2648 4139 
Q 2969 4041 3192 3777 
Q 3416 3513 3416 3147 
Q 3416 2756 3161 2468 
Q 2906 2181 2372 2063 
L 3247 847 
Q 3547 428 3762 290 
Q 3978 153 4325 116 
L 4325 0 
z
M 1316 2178 
Q 1375 2178 1419 2176 
Q 1463 2175 1491 2175 
Q 2097 2175 2405 2437 
Q 2713 2700 2713 3106 
Q 2713 3503 2464 3751 
Q 2216 4000 1806 4000 
Q 1625 4000 1316 3941 
L 1316 2178 
z
" transform="scale(0.015625)"/>
       <path id="TimesNewRomanPSMT-77" d="M 41 2863 
L 1241 2863 
L 1241 2747 
Q 1075 2734 1023 2687 
Q 972 2641 972 2553 
Q 972 2456 1025 2319 
L 1638 672 
L 2253 2013 
L 2091 2434 
Q 2016 2622 1894 2694 
Q 1825 2738 1638 2747 
L 1638 2863 
L 3000 2863 
L 3000 2747 
Q 2775 2738 2681 2666 
Q 2619 2616 2619 2506 
Q 2619 2444 2644 2378 
L 3294 734 
L 3897 2319 
Q 3959 2488 3959 2588 
Q 3959 2647 3898 2694 
Q 3838 2741 3659 2747 
L 3659 2863 
L 4563 2863 
L 4563 2747 
Q 4291 2706 4163 2378 
L 3206 -88 
L 3078 -88 
L 2363 1741 
L 1528 -88 
L 1413 -88 
L 494 2319 
Q 403 2547 315 2626 
Q 228 2706 41 2747 
L 41 2863 
z
" transform="scale(0.015625)"/>
       <path id="TimesNewRomanPSMT-79" d="M 38 2863 
L 1372 2863 
L 1372 2747 
L 1306 2747 
Q 1166 2747 1095 2686 
Q 1025 2625 1025 2534 
Q 1025 2413 1128 2197 
L 1825 753 
L 2466 2334 
Q 2519 2463 2519 2588 
Q 2519 2644 2497 2672 
Q 2472 2706 2419 2726 
Q 2366 2747 2231 2747 
L 2231 2863 
L 3163 2863 
L 3163 2747 
Q 3047 2734 2984 2696 
Q 2922 2659 2847 2556 
Q 2819 2513 2741 2316 
L 1575 -541 
Q 1406 -956 1132 -1168 
Q 859 -1381 606 -1381 
Q 422 -1381 303 -1275 
Q 184 -1169 184 -1031 
Q 184 -900 270 -820 
Q 356 -741 506 -741 
Q 609 -741 788 -809 
Q 913 -856 944 -856 
Q 1038 -856 1148 -759 
Q 1259 -663 1372 -384 
L 1575 113 
L 547 2272 
Q 500 2369 397 2513 
Q 319 2622 269 2659 
Q 197 2709 38 2747 
L 38 2863 
z
" transform="scale(0.015625)"/>
      </defs>
      <use xlink:href="#TimesNewRomanPSMT-52"/>
      <use xlink:href="#TimesNewRomanPSMT-61" transform="translate(66.699219 0)"/>
      <use xlink:href="#TimesNewRomanPSMT-69" transform="translate(111.083984 0)"/>
      <use xlink:href="#TimesNewRomanPSMT-6c" transform="translate(138.867188 0)"/>
      <use xlink:href="#TimesNewRomanPSMT-77" transform="translate(166.650391 0)"/>
      <use xlink:href="#TimesNewRomanPSMT-61" transform="translate(238.867188 0)"/>
      <use xlink:href="#TimesNewRomanPSMT-79" transform="translate(283.251953 0)"/>
      <use xlink:href="#TimesNewRomanPSMT-20" transform="translate(333.251953 0)"/>
      <use xlink:href="#TimesNewRomanPSMT-43" transform="translate(358.251953 0)"/>
      <use xlink:href="#TimesNewRomanPSMT-61" transform="translate(424.951172 0)"/>
      <use xlink:href="#TimesNewRomanPSMT-72" transform="translate(469.335938 0)"/>
      <use xlink:href="#TimesNewRomanPSMT-73" transform="translate(502.636719 0)"/>
     </g>
    </g>
    <g id="patch_10">
     <path d="M 459.956625 178.298594 
L 479.956625 178.298594 
L 479.956625 171.298594 
L 459.956625 171.298594 
z
" style="fill: #ffbb78"/>
    </g>
    <g id="text_28">
     <!-- Autonomous Drones -->
     <g transform="translate(487.956625 178.298594) scale(0.1 -0.1)">
      <defs>
       <path id="TimesNewRomanPSMT-75" d="M 2709 2863 
L 2709 1128 
Q 2709 631 2732 520 
Q 2756 409 2807 365 
Q 2859 322 2928 322 
Q 3025 322 3147 375 
L 3191 266 
L 2334 -88 
L 2194 -88 
L 2194 519 
Q 1825 119 1631 15 
Q 1438 -88 1222 -88 
Q 981 -88 804 51 
Q 628 191 559 409 
Q 491 628 491 1028 
L 491 2306 
Q 491 2509 447 2587 
Q 403 2666 317 2708 
Q 231 2750 6 2747 
L 6 2863 
L 1009 2863 
L 1009 947 
Q 1009 547 1148 422 
Q 1288 297 1484 297 
Q 1619 297 1789 381 
Q 1959 466 2194 703 
L 2194 2325 
Q 2194 2569 2105 2655 
Q 2016 2741 1734 2747 
L 1734 2863 
L 2709 2863 
z
" transform="scale(0.015625)"/>
       <path id="TimesNewRomanPSMT-44" d="M 109 0 
L 109 116 
L 269 116 
Q 538 116 650 288 
Q 719 391 719 750 
L 719 3488 
Q 719 3884 631 3984 
Q 509 4122 269 4122 
L 109 4122 
L 109 4238 
L 1834 4238 
Q 2784 4238 3279 4022 
Q 3775 3806 4076 3303 
Q 4378 2800 4378 2141 
Q 4378 1256 3841 663 
Q 3238 0 2003 0 
L 109 0 
z
M 1319 306 
Q 1716 219 1984 219 
Q 2709 219 3187 728 
Q 3666 1238 3666 2109 
Q 3666 2988 3187 3494 
Q 2709 4000 1959 4000 
Q 1678 4000 1319 3909 
L 1319 306 
z
" transform="scale(0.015625)"/>
      </defs>
      <use xlink:href="#TimesNewRomanPSMT-41"/>
      <use xlink:href="#TimesNewRomanPSMT-75" transform="translate(72.216797 0)"/>
      <use xlink:href="#TimesNewRomanPSMT-74" transform="translate(122.216797 0)"/>
      <use xlink:href="#TimesNewRomanPSMT-6f" transform="translate(150 0)"/>
      <use xlink:href="#TimesNewRomanPSMT-6e" transform="translate(200 0)"/>
      <use xlink:href="#TimesNewRomanPSMT-6f" transform="translate(250 0)"/>
      <use xlink:href="#TimesNewRomanPSMT-6d" transform="translate(300 0)"/>
      <use xlink:href="#TimesNewRomanPSMT-6f" transform="translate(377.783203 0)"/>
      <use xlink:href="#TimesNewRomanPSMT-75" transform="translate(427.783203 0)"/>
      <use xlink:href="#TimesNewRomanPSMT-73" transform="translate(477.783203 0)"/>
      <use xlink:href="#TimesNewRomanPSMT-20" transform="translate(516.699219 0)"/>
      <use xlink:href="#TimesNewRomanPSMT-44" transform="translate(541.699219 0)"/>
      <use xlink:href="#TimesNewRomanPSMT-72" transform="translate(613.916016 0)"/>
      <use xlink:href="#TimesNewRomanPSMT-6f" transform="translate(647.216797 0)"/>
      <use xlink:href="#TimesNewRomanPSMT-6e" transform="translate(697.216797 0)"/>
      <use xlink:href="#TimesNewRomanPSMT-65" transform="translate(747.216797 0)"/>
      <use xlink:href="#TimesNewRomanPSMT-73" transform="translate(791.601562 0)"/>
     </g>
    </g>
    <g id="patch_11">
     <path d="M 459.956625 192.437656 
L 479.956625 192.437656 
L 479.956625 185.437656 
L 459.956625 185.437656 
z
" style="fill: #2ca02c"/>
    </g>
    <g id="text_29">
     <!-- Diesel Fleets -->
     <g transform="translate(487.956625 192.437656) scale(0.1 -0.1)">
      <defs>
       <path id="TimesNewRomanPSMT-46" d="M 1309 4006 
L 1309 2341 
L 2081 2341 
Q 2347 2341 2470 2458 
Q 2594 2575 2634 2922 
L 2750 2922 
L 2750 1488 
L 2634 1488 
Q 2631 1734 2570 1850 
Q 2509 1966 2401 2023 
Q 2294 2081 2081 2081 
L 1309 2081 
L 1309 750 
Q 1309 428 1350 325 
Q 1381 247 1481 191 
Q 1619 116 1769 116 
L 1922 116 
L 1922 0 
L 103 0 
L 103 116 
L 253 116 
Q 516 116 634 269 
Q 709 369 709 750 
L 709 3488 
Q 709 3809 669 3913 
Q 638 3991 541 4047 
Q 406 4122 253 4122 
L 103 4122 
L 103 4238 
L 3256 4238 
L 3297 3306 
L 3188 3306 
Q 3106 3603 2998 3742 
Q 2891 3881 2733 3943 
Q 2575 4006 2244 4006 
L 1309 4006 
z
" transform="scale(0.015625)"/>
      </defs>
      <use xlink:href="#TimesNewRomanPSMT-44"/>
      <use xlink:href="#TimesNewRomanPSMT-69" transform="translate(72.216797 0)"/>
      <use xlink:href="#TimesNewRomanPSMT-65" transform="translate(100 0)"/>
      <use xlink:href="#TimesNewRomanPSMT-73" transform="translate(144.384766 0)"/>
      <use xlink:href="#TimesNewRomanPSMT-65" transform="translate(183.300781 0)"/>
      <use xlink:href="#TimesNewRomanPSMT-6c" transform="translate(227.685547 0)"/>
      <use xlink:href="#TimesNewRomanPSMT-20" transform="translate(255.46875 0)"/>
      <use xlink:href="#TimesNewRomanPSMT-46" transform="translate(280.46875 0)"/>
      <use xlink:href="#TimesNewRomanPSMT-6c" transform="translate(336.083984 0)"/>
      <use xlink:href="#TimesNewRomanPSMT-65" transform="translate(363.867188 0)"/>
      <use xlink:href="#TimesNewRomanPSMT-65" transform="translate(408.251953 0)"/>
      <use xlink:href="#TimesNewRomanPSMT-74" transform="translate(452.636719 0)"/>
      <use xlink:href="#TimesNewRomanPSMT-73" transform="translate(480.419922 0)"/>
     </g>
    </g>
    <g id="patch_12">
     <path d="M 459.956625 206.576719 
L 479.956625 206.576719 
L 479.956625 199.576719 
L 459.956625 199.576719 
z
" style="fill: #98df8a"/>
    </g>
    <g id="text_30">
     <!-- Heavy Machinery -->
     <g transform="translate(487.956625 206.576719) scale(0.1 -0.1)">
      <defs>
       <path id="TimesNewRomanPSMT-48" d="M 1316 2272 
L 3284 2272 
L 3284 3484 
Q 3284 3809 3244 3913 
Q 3213 3991 3113 4047 
Q 2978 4122 2828 4122 
L 2678 4122 
L 2678 4238 
L 4491 4238 
L 4491 4122 
L 4341 4122 
Q 4191 4122 4056 4050 
Q 3956 4000 3920 3898 
Q 3884 3797 3884 3484 
L 3884 750 
Q 3884 428 3925 325 
Q 3956 247 4053 191 
Q 4191 116 4341 116 
L 4491 116 
L 4491 0 
L 2678 0 
L 2678 116 
L 2828 116 
Q 3088 116 3206 269 
Q 3284 369 3284 750 
L 3284 2041 
L 1316 2041 
L 1316 750 
Q 1316 428 1356 325 
Q 1388 247 1488 191 
Q 1622 116 1772 116 
L 1925 116 
L 1925 0 
L 109 0 
L 109 116 
L 259 116 
Q 522 116 641 269 
Q 716 369 716 750 
L 716 3484 
Q 716 3809 675 3913 
Q 644 3991 547 4047 
Q 409 4122 259 4122 
L 109 4122 
L 109 4238 
L 1925 4238 
L 1925 4122 
L 1772 4122 
Q 1622 4122 1488 4050 
Q 1391 4000 1353 3898 
Q 1316 3797 1316 3484 
L 1316 2272 
z
" transform="scale(0.015625)"/>
       <path id="TimesNewRomanPSMT-76" d="M 53 2863 
L 1400 2863 
L 1400 2747 
L 1313 2747 
Q 1191 2747 1127 2687 
Q 1063 2628 1063 2528 
Q 1063 2419 1128 2269 
L 1794 688 
L 2463 2328 
Q 2534 2503 2534 2594 
Q 2534 2638 2509 2666 
Q 2475 2713 2422 2730 
Q 2369 2747 2206 2747 
L 2206 2863 
L 3141 2863 
L 3141 2747 
Q 2978 2734 2916 2681 
Q 2806 2588 2719 2369 
L 1703 -88 
L 1575 -88 
L 553 2328 
Q 484 2497 421 2570 
Q 359 2644 263 2694 
Q 209 2722 53 2747 
L 53 2863 
z
" transform="scale(0.015625)"/>
      </defs>
      <use xlink:href="#TimesNewRomanPSMT-48"/>
      <use xlink:href="#TimesNewRomanPSMT-65" transform="translate(72.216797 0)"/>
      <use xlink:href="#TimesNewRomanPSMT-61" transform="translate(116.601562 0)"/>
      <use xlink:href="#TimesNewRomanPSMT-76" transform="translate(160.986328 0)"/>
      <use xlink:href="#TimesNewRomanPSMT-79" transform="translate(210.986328 0)"/>
      <use xlink:href="#TimesNewRomanPSMT-20" transform="translate(260.986328 0)"/>
      <use xlink:href="#TimesNewRomanPSMT-4d" transform="translate(285.986328 0)"/>
      <use xlink:href="#TimesNewRomanPSMT-61" transform="translate(374.902344 0)"/>
      <use xlink:href="#TimesNewRomanPSMT-63" transform="translate(419.287109 0)"/>
      <use xlink:href="#TimesNewRomanPSMT-68" transform="translate(463.671875 0)"/>
      <use xlink:href="#TimesNewRomanPSMT-69" transform="translate(513.671875 0)"/>
      <use xlink:href="#TimesNewRomanPSMT-6e" transform="translate(541.455078 0)"/>
      <use xlink:href="#TimesNewRomanPSMT-65" transform="translate(591.455078 0)"/>
      <use xlink:href="#TimesNewRomanPSMT-72" transform="translate(635.839844 0)"/>
      <use xlink:href="#TimesNewRomanPSMT-79" transform="translate(669.140625 0)"/>
     </g>
    </g>
    <g id="patch_13">
     <path d="M 459.956625 220.734531 
L 479.956625 220.734531 
L 479.956625 213.734531 
L 459.956625 213.734531 
z
" style="fill: #d62728"/>
    </g>
    <g id="text_31">
     <!-- Electric Trucks -->
     <g transform="translate(487.956625 220.734531) scale(0.1 -0.1)">
      <defs>
       <path id="TimesNewRomanPSMT-54" d="M 3703 4238 
L 3750 3244 
L 3631 3244 
Q 3597 3506 3538 3619 
Q 3441 3800 3280 3886 
Q 3119 3972 2856 3972 
L 2259 3972 
L 2259 734 
Q 2259 344 2344 247 
Q 2463 116 2709 116 
L 2856 116 
L 2856 0 
L 1059 0 
L 1059 116 
L 1209 116 
Q 1478 116 1591 278 
Q 1659 378 1659 734 
L 1659 3972 
L 1150 3972 
Q 853 3972 728 3928 
Q 566 3869 450 3700 
Q 334 3531 313 3244 
L 194 3244 
L 244 4238 
L 3703 4238 
z
" transform="scale(0.015625)"/>
       <path id="TimesNewRomanPSMT-6b" d="M 1047 4444 
L 1047 1597 
L 1775 2259 
Q 2006 2472 2044 2528 
Q 2069 2566 2069 2603 
Q 2069 2666 2017 2711 
Q 1966 2756 1847 2763 
L 1847 2863 
L 3091 2863 
L 3091 2763 
Q 2834 2756 2664 2684 
Q 2494 2613 2291 2428 
L 1556 1750 
L 2291 822 
Q 2597 438 2703 334 
Q 2853 188 2966 144 
Q 3044 113 3238 113 
L 3238 0 
L 1847 0 
L 1847 113 
Q 1966 116 2008 148 
Q 2050 181 2050 241 
Q 2050 313 1925 472 
L 1047 1594 
L 1047 644 
Q 1047 366 1086 278 
Q 1125 191 1197 153 
Q 1269 116 1509 113 
L 1509 0 
L 53 0 
L 53 113 
Q 272 113 381 166 
Q 447 200 481 272 
Q 528 375 528 628 
L 528 3234 
Q 528 3731 506 3842 
Q 484 3953 434 3995 
Q 384 4038 303 4038 
Q 238 4038 106 3984 
L 53 4094 
L 903 4444 
L 1047 4444 
z
" transform="scale(0.015625)"/>
      </defs>
      <use xlink:href="#TimesNewRomanPSMT-45"/>
      <use xlink:href="#TimesNewRomanPSMT-6c" transform="translate(61.083984 0)"/>
      <use xlink:href="#TimesNewRomanPSMT-65" transform="translate(88.867188 0)"/>
      <use xlink:href="#TimesNewRomanPSMT-63" transform="translate(133.251953 0)"/>
      <use xlink:href="#TimesNewRomanPSMT-74" transform="translate(177.636719 0)"/>
      <use xlink:href="#TimesNewRomanPSMT-72" transform="translate(205.419922 0)"/>
      <use xlink:href="#TimesNewRomanPSMT-69" transform="translate(238.720703 0)"/>
      <use xlink:href="#TimesNewRomanPSMT-63" transform="translate(266.503906 0)"/>
      <use xlink:href="#TimesNewRomanPSMT-20" transform="translate(310.888672 0)"/>
      <use xlink:href="#TimesNewRomanPSMT-54" transform="translate(334.138672 0)"/>
      <use xlink:href="#TimesNewRomanPSMT-72" transform="translate(391.722656 0)"/>
      <use xlink:href="#TimesNewRomanPSMT-75" transform="translate(425.023438 0)"/>
      <use xlink:href="#TimesNewRomanPSMT-63" transform="translate(475.023438 0)"/>
      <use xlink:href="#TimesNewRomanPSMT-6b" transform="translate(519.408203 0)"/>
      <use xlink:href="#TimesNewRomanPSMT-73" transform="translate(569.408203 0)"/>
     </g>
    </g>
   </g>
  </g>
 </g>
 <defs>
  <clipPath id="p1f69ab5433">
   <rect x="54.380625" y="37.249375" width="388.8" height="277.2"/>
  </clipPath>
 </defs>
</svg>
